<?xml version="1.0" encoding="UTF-8"?>
<!DOCTYPE svg PUBLIC "-//W3C//DTD SVG 1.1//EN" "http://www.w3.org/Graphics/SVG/1.1/DTD/svg11.dtd">
<svg xmlns="http://www.w3.org/2000/svg" version="1.1" width="188px" height="128px" style="shape-rendering:geometricPrecision; text-rendering:geometricPrecision; image-rendering:optimizeQuality; fill-rule:evenodd; clip-rule:evenodd" xmlns:xlink="http://www.w3.org/1999/xlink">
<g><path style="opacity:0" fill="#fefffe" d="M 2.5,4.5 C 8.17645,4.33391 13.8431,4.50058 19.5,5C 43.8711,19.5156 68.2045,34.0156 92.5,48.5C 116.129,34.0152 139.795,19.5152 163.5,5C 169.157,4.50058 174.824,4.33391 180.5,4.5C 180.667,26.8358 180.5,49.1692 180,71.5C 154.083,87.5415 128.249,103.708 102.5,120C 96.1667,120.667 89.8333,120.667 83.5,120C 58.1667,104.667 32.8333,89.3333 7.5,74C 5.97506,72.9914 4.30839,72.4914 2.5,72.5C 2.5,49.8333 2.5,27.1667 2.5,4.5 Z"/></g>
<g><path style="opacity:0" fill="#000000" d="M 4.5,6.5 C 10.4337,5.88868 16.1004,6.72201 21.5,9C 45.2501,23.6256 69.0834,38.1256 93,52.5C 116.9,36.9378 141.067,21.7711 165.5,7C 169.821,6.50098 174.154,6.33432 178.5,6.5C 178.667,27.5026 178.5,48.5026 178,69.5C 152.083,85.5415 126.249,101.708 100.5,118C 95.5,118.667 90.5,118.667 85.5,118C 60.1667,102.667 34.8333,87.3333 9.5,72C 7.97506,70.9914 6.30839,70.4914 4.5,70.5C 4.5,49.1667 4.5,27.8333 4.5,6.5 Z"/></g>
<g><path style="opacity:0" fill="#de703f" d="M 11.5,14.5 C 38.71,30.3577 65.8766,46.3577 93,62.5C 118.956,46.7138 144.789,30.7138 170.5,14.5C 171.833,30.8333 171.833,47.1667 170.5,63.5C 144.789,79.7138 118.956,95.7138 93,111.5C 66.1002,95.6325 39.2669,79.6325 12.5,63.5C 11.5006,47.1803 11.1672,30.8469 11.5,14.5 Z"/></g>
</svg>
