<?xml version="1.0" encoding="UTF-8"?>
<!DOCTYPE svg PUBLIC "-//W3C//DTD SVG 1.1//EN" "http://www.w3.org/Graphics/SVG/1.1/DTD/svg11.dtd">
<svg xmlns="http://www.w3.org/2000/svg" version="1.1" width="188px" height="185px" style="shape-rendering:geometricPrecision; text-rendering:geometricPrecision; image-rendering:optimizeQuality; fill-rule:evenodd; clip-rule:evenodd" xmlns:xlink="http://www.w3.org/1999/xlink">
<g><path style="opacity:1" fill="#fefffe" d="M 1.5,3.5 C 7.84209,3.33379 14.1754,3.50046 20.5,4C 44.6661,18.2486 68.6661,32.7486 92.5,47.5C 115.666,32.7495 138.999,18.2495 162.5,4C 168.825,3.50046 175.158,3.33379 181.5,3.5C 181.83,46.4056 181.497,89.2389 180.5,132C 154.665,147.75 128.999,163.75 103.5,180C 96.5,180.667 89.5,180.667 82.5,180C 57.1667,164.667 31.8333,149.333 6.5,134C 4.97506,132.991 3.30839,132.491 1.5,132.5C 1.5,89.5 1.5,46.5 1.5,3.5 Z"/></g>
<g><path style="opacity:1" fill="#000000" d="M 3.5,5.5 C 8.51108,5.33407 13.5111,5.50074 18.5,6C 43.2978,20.6345 67.9645,35.4678 92.5,50.5C 116.368,35.4685 140.368,20.6352 164.5,6C 169.489,5.50074 174.489,5.33407 179.5,5.5C 179.83,47.0724 179.497,88.5724 178.5,130C 152.665,145.75 126.999,161.75 101.5,178C 95.8333,178.667 90.1667,178.667 84.5,178C 59.1667,162.667 33.8333,147.333 8.5,132C 6.97506,130.991 5.30839,130.491 3.5,130.5C 3.5,88.8333 3.5,47.1667 3.5,5.5 Z"/></g>
<g><path style="opacity:1" fill="#848480" d="M 11.5,14.5 C 38.71,30.3577 65.8766,46.3577 93,62.5C 118.956,46.7138 144.789,30.7138 170.5,14.5C 171.833,30.8333 171.833,47.1667 170.5,63.5C 144.248,78.8735 118.414,94.8735 93,111.5C 66.4147,95.1224 39.5814,79.1224 12.5,63.5C 11.5006,47.1803 11.1672,30.8469 11.5,14.5 Z"/></g>
<g><path style="opacity:1" fill="#848480" d="M 11.5,73.5 C 38.71,89.3577 65.8766,105.358 93,121.5C 118.956,105.714 144.789,89.7138 170.5,73.5C 171.833,89.8333 171.833,106.167 170.5,122.5C 144.789,138.714 118.956,154.714 93,170.5C 66.1002,154.633 39.2669,138.633 12.5,122.5C 11.5006,106.18 11.1672,89.8469 11.5,73.5 Z"/></g>
</svg>
