<?xml version="1.0" encoding="UTF-8"?>
<!DOCTYPE svg PUBLIC "-//W3C//DTD SVG 1.1//EN" "http://www.w3.org/Graphics/SVG/1.1/DTD/svg11.dtd">
<svg xmlns="http://www.w3.org/2000/svg" version="1.1" width="188px" height="259px" style="shape-rendering:geometricPrecision; text-rendering:geometricPrecision; image-rendering:optimizeQuality; fill-rule:evenodd; clip-rule:evenodd" xmlns:xlink="http://www.w3.org/1999/xlink">
<g><path style="opacity:1" fill="#fefffe" d="M 1.5,3.5 C 7.84209,3.33379 14.1754,3.50046 20.5,4C 44.6661,18.2486 68.6661,32.7486 92.5,47.5C 115.666,32.7495 138.999,18.2495 162.5,4C 168.825,3.50046 175.158,3.33379 181.5,3.5C 181.667,65.8342 181.5,128.168 181,190.5C 155.083,206.542 129.249,222.708 103.5,239C 96.5,239.667 89.5,239.667 82.5,239C 57.1667,223.667 31.8333,208.333 6.5,193C 4.97506,191.991 3.30839,191.491 1.5,191.5C 1.5,128.833 1.5,66.1667 1.5,3.5 Z"/></g>
<g><path style="opacity:1" fill="#000000" d="M 3.5,5.5 C 8.51108,5.33407 13.5111,5.50074 18.5,6C 43.2978,20.6345 67.9645,35.4678 92.5,50.5C 116.368,35.4685 140.368,20.6352 164.5,6C 169.489,5.50074 174.489,5.33407 179.5,5.5C 179.667,66.5009 179.5,127.501 179,188.5C 153.083,204.542 127.249,220.708 101.5,237C 95.8333,237.667 90.1667,237.667 84.5,237C 59.1667,221.667 33.8333,206.333 8.5,191C 6.97506,189.991 5.30839,189.491 3.5,189.5C 3.5,128.167 3.5,66.8333 3.5,5.5 Z"/></g>
<g><path style="opacity:1" fill="#fec90d" d="M 11.5,14.5 C 38.71,30.3577 65.8766,46.3577 93,62.5C 118.956,46.7138 144.789,30.7138 170.5,14.5C 171.833,30.8333 171.833,47.1667 170.5,63.5C 144.248,78.8735 118.414,94.8735 93,111.5C 66.4147,95.1224 39.5814,79.1224 12.5,63.5C 11.5006,47.1803 11.1672,30.8469 11.5,14.5 Z"/></g>
<g><path style="opacity:1" fill="#fec90d" d="M 11.5,73.5 C 38.71,89.3577 65.8766,105.358 93,121.5C 118.956,105.714 144.789,89.7138 170.5,73.5C 171.833,89.8333 171.833,106.167 170.5,122.5C 144.248,137.874 118.414,153.874 93,170.5C 66.4147,154.122 39.5814,138.122 12.5,122.5C 11.5006,106.18 11.1672,89.8469 11.5,73.5 Z"/></g>
<g><path style="opacity:1" fill="#fec90d" d="M 11.5,132.5 C 38.71,148.358 65.8766,164.358 93,180.5C 118.956,164.714 144.789,148.714 170.5,132.5C 171.833,148.833 171.833,165.167 170.5,181.5C 144.789,197.714 118.956,213.714 93,229.5C 66.1002,213.633 39.2669,197.633 12.5,181.5C 11.5006,165.18 11.1672,148.847 11.5,132.5 Z"/></g>
</svg>
