<?xml version="1.0" encoding="UTF-8"?>
<!DOCTYPE svg PUBLIC "-//W3C//DTD SVG 1.1//EN" "http://www.w3.org/Graphics/SVG/1.1/DTD/svg11.dtd">
<svg xmlns="http://www.w3.org/2000/svg" version="1.1" width="600px" height="600px" style="shape-rendering:geometricPrecision; text-rendering:geometricPrecision; image-rendering:optimizeQuality; fill-rule:evenodd; clip-rule:evenodd" xmlns:xlink="http://www.w3.org/1999/xlink">
<g><path style="opacity:1" fill="#fefffe" d="M 194.5,116.5 C 198.514,116.334 202.514,116.501 206.5,117C 209.041,118.848 210.041,121.348 209.5,124.5C 214.093,123.418 217.093,125.085 218.5,129.5C 221.145,130.192 223.645,131.192 226,132.5C 226.667,136.5 227.333,140.5 228,144.5C 231.03,148.595 232.697,153.261 233,158.5C 234.586,160.67 235.92,163.004 237,165.5C 246.183,169.582 249.183,176.582 246,186.5C 245.333,187.167 244.667,187.833 244,188.5C 243.501,192.486 243.334,196.486 243.5,200.5C 245.39,200.297 246.89,200.963 248,202.5C 247.219,196.283 249.886,193.949 256,195.5C 260.531,195.719 265.031,196.219 269.5,197C 270.357,197.689 271.023,198.522 271.5,199.5C 284.496,200.662 297.496,200.662 310.5,199.5C 324.359,200.231 338.193,201.231 352,202.5C 375.829,201.644 399.662,201.977 423.5,203.5C 428.859,203.589 434.025,202.922 439,201.5C 447.319,203.101 455.819,203.934 464.5,204C 466.5,205 468.5,206 470.5,207C 483.151,208.189 495.818,209.189 508.5,210C 522.46,212.549 536.46,214.882 550.5,217C 551.451,220.057 551.784,223.223 551.5,226.5C 548.161,226.89 544.827,227.39 541.5,228C 511.833,228.333 482.167,228.667 452.5,229C 449.961,230.047 447.295,230.547 444.5,230.5C 421.091,226.01 397.591,225.343 374,228.5C 354.828,227.174 335.661,227.174 316.5,228.5C 316.67,229.822 316.337,230.989 315.5,232C 311.179,232.499 306.846,232.666 302.5,232.5C 301.794,242.87 300.627,253.203 299,263.5C 297.309,269.216 294.809,274.549 291.5,279.5C 284.468,280.92 277.468,280.753 270.5,279C 263.302,274.901 256.636,270.068 250.5,264.5C 246.427,270.52 244.427,277.186 244.5,284.5C 247.446,287.991 249.446,291.991 250.5,296.5C 253.593,296.998 256.426,297.998 259,299.5C 261.326,312.698 258.159,324.198 249.5,334C 255.357,347.218 260.524,360.718 265,374.5C 265.38,396.906 266.713,419.239 269,441.5C 270.784,445.401 272.284,449.401 273.5,453.5C 278.905,456.111 283.405,459.778 287,464.5C 290.308,478.194 284.975,483.86 271,481.5C 260.676,481.532 250.51,480.365 240.5,478C 239.333,476.833 238.167,475.667 237,474.5C 235.796,470.284 235.13,465.951 235,461.5C 234.667,452.5 234.333,443.5 234,434.5C 232.465,430.227 231.131,425.894 230,421.5C 229.667,412.167 229.333,402.833 229,393.5C 221.251,380.333 213.251,367.333 205,354.5C 190.471,388.341 184.137,423.674 186,460.5C 185.311,461.357 184.478,462.023 183.5,462.5C 186.898,478.926 180.398,486.259 164,484.5C 157.78,485.097 151.947,483.931 146.5,481C 144.485,472.408 145.651,464.241 150,456.5C 151.111,437.852 151.777,419.185 152,400.5C 154.737,384.943 156.571,369.276 157.5,353.5C 152.134,353.958 146.967,353.291 142,351.5C 141.333,347.5 141.333,343.5 142,339.5C 145.963,338.4 149.797,336.9 153.5,335C 148.283,335.738 144.45,333.905 142,329.5C 140.569,320.541 140.235,311.541 141,302.5C 141.583,297.491 143.083,292.824 145.5,288.5C 152.208,285.764 158.874,282.931 165.5,280C 160.395,279.823 156.728,277.489 154.5,273C 151.898,272.117 149.731,270.617 148,268.5C 145.612,251.268 146.778,234.268 151.5,217.5C 149.073,212.169 148.073,206.502 148.5,200.5C 146.581,186.085 152.914,179.418 167.5,180.5C 165.939,174.724 167.939,171.224 173.5,170C 172.789,168.745 171.956,167.579 171,166.5C 170.333,161.5 170.333,156.5 171,151.5C 175.763,145.692 181.596,141.192 188.5,138C 188,137.5 187.5,137 187,136.5C 186.333,131.5 186.333,126.5 187,121.5C 189.479,119.686 191.979,118.019 194.5,116.5 Z"/></g>
<g><path style="opacity:1" fill="#020202" d="M 196.5,118.5 C 203.67,116.694 207.337,119.36 207.5,126.5C 212.093,125.418 215.093,127.085 216.5,131.5C 219.145,132.192 221.645,133.192 224,134.5C 224.667,138.5 225.333,142.5 226,146.5C 229.03,150.595 230.697,155.261 231,160.5C 232.586,162.67 233.92,165.004 235,167.5C 238.55,169.041 241.55,171.374 244,174.5C 245.772,180.467 244.272,185.301 239.5,189C 240.894,190.739 241.561,192.739 241.5,195C 241.083,197.498 240.749,199.998 240.5,202.5C 243.421,202.146 245.754,203.146 247.5,205.5C 248.167,205.167 248.833,204.833 249.5,204.5C 250.221,202.314 250.887,200.147 251.5,198C 256.868,197.522 262.201,197.855 267.5,199C 268.357,199.689 269.023,200.522 269.5,201.5C 283.166,202.719 296.832,202.719 310.5,201.5C 332.57,203.82 354.57,204.487 376.5,203.5C 392.16,204.278 407.827,204.944 423.5,205.5C 428.872,205.695 434.039,205.029 439,203.5C 446.64,205.171 454.474,206.004 462.5,206C 464.5,207 466.5,208 468.5,209C 481.151,210.189 493.818,211.189 506.5,212C 520.46,214.549 534.46,216.882 548.5,219C 549.406,220.699 549.739,222.533 549.5,224.5C 546.161,224.89 542.827,225.39 539.5,226C 527.667,226.167 515.833,226.333 504,226.5C 486.725,226.349 469.558,226.015 452.5,225.5C 450.264,227.617 447.597,228.617 444.5,228.5C 431.121,225.069 417.455,223.736 403.5,224.5C 395.5,224.667 387.5,224.833 379.5,225C 375.267,227.05 371.1,226.883 367,224.5C 349.517,225.25 332.017,225.916 314.5,226.5C 314.67,227.822 314.337,228.989 313.5,230C 309.179,230.499 304.846,230.666 300.5,230.5C 299.794,240.87 298.627,251.203 297,261.5C 295.309,267.216 292.809,272.549 289.5,277.5C 283.798,278.895 278.131,278.729 272.5,277C 264.102,271.937 256.269,266.104 249,259.5C 247.333,263.5 245.667,267.5 244,271.5C 243.632,275.85 243.132,280.183 242.5,284.5C 245.004,288.853 247.004,293.52 248.5,298.5C 251.593,298.998 254.426,299.998 257,301.5C 258.225,311.305 256.225,320.305 251,328.5C 249.681,330.487 247.848,331.654 245.5,332C 252.116,346.511 257.949,361.345 263,376.5C 263.38,398.906 264.713,421.239 267,443.5C 268.784,447.401 270.284,451.401 271.5,455.5C 276.085,457.919 280.252,460.919 284,464.5C 285.504,468.039 285.837,471.705 285,475.5C 283.786,477.049 282.286,478.215 280.5,479C 268.752,479.768 257.085,479.101 245.5,477C 242.804,476.31 240.637,474.81 239,472.5C 237.796,468.284 237.13,463.951 237,459.5C 236.667,450.5 236.333,441.5 236,432.5C 234.465,428.227 233.131,423.894 232,419.5C 231.667,410.167 231.333,400.833 231,391.5C 222.835,377.165 214.168,363.165 205,349.5C 188.86,383.993 181.86,420.326 184,458.5C 183.311,459.357 182.478,460.023 181.5,460.5C 180.67,466.138 180.17,471.804 180,477.5C 178.238,480.268 175.738,481.768 172.5,482C 165.751,482.877 159.084,482.544 152.5,481C 148.238,480.237 146.571,477.737 147.5,473.5C 147.441,467.226 149.441,461.726 153.5,457C 152.866,454.925 152.532,452.759 152.5,450.5C 153.238,434.51 153.738,418.51 154,402.5C 156.541,385.871 158.708,369.204 160.5,352.5C 155.121,351.844 149.787,351.011 144.5,350C 143.167,347 143.167,344 144.5,341C 149.847,339.323 155.181,337.657 160.5,336C 159.643,335.311 158.977,334.478 158.5,333.5C 154.878,332.675 151.211,332.175 147.5,332C 146.667,331.167 145.833,330.333 145,329.5C 141.342,316.689 141.842,304.023 146.5,291.5C 154.09,287.911 161.757,284.411 169.5,281C 170.167,280 170.833,279 171.5,278C 167.781,277.612 164.114,276.945 160.5,276C 159.167,274.333 157.833,272.667 156.5,271C 153.898,270.117 151.731,268.617 150,266.5C 147.871,249.527 149.371,232.86 154.5,216.5C 152.169,214.383 151.003,211.716 151,208.5C 145.884,191.295 152.05,182.629 169.5,182.5C 169.336,179.813 169.503,177.146 170,174.5C 172.93,172.934 176.097,172.1 179.5,172C 171.008,164.588 170.341,156.588 177.5,148C 182.969,144.697 188.302,141.197 193.5,137.5C 192.086,136.376 190.586,135.376 189,134.5C 188.333,130.833 188.333,127.167 189,123.5C 191.479,121.686 193.979,120.019 196.5,118.5 Z"/></g>
<g><path style="opacity:1" fill="#40C867" d="M 203.5,131.5 C 203.167,132.5 202.5,133.167 201.5,133.5C 190.919,130.139 190.919,127.306 201.5,125C 202.23,127.154 202.897,129.321 203.5,131.5 Z"/></g>
<g><path style="opacity:1" fill="#fef200" d="M 211.5,143.5 C 210.833,143.5 210.5,143.833 210.5,144.5C 200.03,146.507 197.03,142.84 201.5,133.5C 202.5,133.167 203.167,132.5 203.5,131.5C 205.713,130.395 207.88,130.395 210,131.5C 211.167,133.833 212.333,136.167 213.5,138.5C 212.544,140.075 211.877,141.742 211.5,143.5 Z"/></g>
<g><path style="opacity:1" fill="#fef200" d="M 219.5,145.5 C 219.027,144.094 218.027,143.427 216.5,143.5C 215.876,141.495 216.71,139.828 219,138.5C 219.311,140.556 219.811,142.556 220.5,144.5C 220.376,145.107 220.043,145.44 219.5,145.5 Z"/></g>
<g><path style="opacity:1" fill="#FFFFFF" d="M 216.5,143.5 C 218.027,143.427 219.027,144.094 219.5,145.5C 219.5,148.167 219.5,150.833 219.5,153.5C 218.094,153.027 217.427,152.027 217.5,150.5C 217.156,143.769 214.656,143.103 210,148.5C 208.687,152.205 209.854,154.538 213.5,155.5C 213.833,155.5 214.167,155.5 214.5,155.5C 213.012,157.845 211.012,158.179 208.5,156.5C 208.737,155.209 208.404,154.209 207.5,153.5C 207.334,149.998 208.334,146.998 210.5,144.5C 210.5,143.833 210.833,143.5 211.5,143.5C 213.167,142.167 214.833,142.167 216.5,143.5 Z"/></g>
<g><path style="opacity:1" fill="#FF3A41" d="M 217.5,150.5 C 216.833,150.167 216.167,149.833 215.5,149.5C 214.749,148.427 213.749,148.26 212.5,149C 211.209,150.292 211.209,151.458 212.5,152.5C 213.11,153.391 213.443,154.391 213.5,155.5C 209.854,154.538 208.687,152.205 210,148.5C 214.656,143.103 217.156,143.769 217.5,150.5 Z"/></g>
<g><path style="opacity:1" fill="#5D65EA" d="M 215.5,149.5 C 214.833,150.833 213.833,151.833 212.5,152.5C 211.209,151.458 211.209,150.292 212.5,149C 213.749,148.26 214.749,148.427 215.5,149.5 Z"/></g>
<g><path style="opacity:1" fill="#FFF52C" d="M 207.5,153.5 C 206.185,154.895 206.519,155.895 208.5,156.5C 206.167,158.5 203.833,160.5 201.5,162.5C 200.508,162.328 199.842,162.662 199.5,163.5C 194.301,164.01 189.301,165.343 184.5,167.5C 179.919,164.663 177.752,160.663 178,155.5C 178.49,156.793 178.657,158.127 178.5,159.5C 188.576,158.921 197.576,155.587 205.5,149.5C 206.172,150.949 206.839,152.282 207.5,153.5 Z"/></g>
<g><path style="opacity:1" fill="#C2C2C2" d="M 215.5,149.5 C 216.167,149.833 216.833,150.167 217.5,150.5C 217.427,152.027 218.094,153.027 219.5,153.5C 222.551,155.381 223.217,158.048 221.5,161.5C 222.035,163.271 222.869,163.604 224,162.5C 226.937,167.554 225.77,171.054 220.5,173C 218.087,173.484 215.754,173.15 213.5,172C 213.501,170.601 213.835,169.101 214.5,167.5C 211.841,165.036 211.174,162.203 212.5,159C 216.667,159.067 217.334,157.901 214.5,155.5C 214.167,155.5 213.833,155.5 213.5,155.5C 213.443,154.391 213.11,153.391 212.5,152.5C 213.833,151.833 214.833,150.833 215.5,149.5 Z"/></g>
<g><path style="opacity:1" fill="#000000" d="M 207.5,153.5 C 208.404,154.209 208.737,155.209 208.5,156.5C 206.519,155.895 206.185,154.895 207.5,153.5 Z"/></g>
<g><path style="opacity:1" fill="#000000" d="M 199.5,163.5 C 199.842,162.662 200.508,162.328 201.5,162.5C 201.5,164.167 201.5,165.833 201.5,167.5C 200.833,166.167 200.167,164.833 199.5,163.5 Z"/></g>
<g><path style="opacity:1" fill="#DCD234" d="M 201.5,162.5 C 202.586,162.62 203.253,163.287 203.5,164.5C 204.504,170.539 205.337,176.539 206,182.5C 205.722,181.584 205.222,180.918 204.5,180.5C 202.124,176.607 201.124,172.273 201.5,167.5C 201.5,165.833 201.5,164.167 201.5,162.5 Z"/></g>
<g><path style="opacity:1" fill="#fef200" d="M 199.5,163.5 C 200.167,164.833 200.833,166.167 201.5,167.5C 201.124,172.273 202.124,176.607 204.5,180.5C 203.752,182.735 202.919,182.402 202,179.5C 199.903,174.215 199.07,168.881 199.5,163.5 Z"/></g>
<g><path style="opacity:1" fill="#fef200" d="M 227.5,171.5 C 229.346,171.222 230.68,171.889 231.5,173.5C 230.747,175.753 229.414,177.587 227.5,179C 221.833,181.833 216.167,184.667 210.5,187.5C 209.155,186.653 208.155,185.487 207.5,184C 215.343,181.585 222.01,177.419 227.5,171.5 Z"/></g>
<g><path style="opacity:1" fill="#fef200" d="M 191.5,177.5 C 191.897,176.475 192.563,176.308 193.5,177C 195.667,179.167 197.833,181.333 200,183.5C 201.756,191.291 201.089,191.291 198,183.5C 195.963,181.294 193.797,179.294 191.5,177.5 Z"/></g>
<g><path style="opacity:1" fill="#fefffe" d="M 180.5,185.5 C 179.427,186.251 179.26,187.251 180,188.5C 183.012,191.174 184.678,194.507 185,198.5C 185.751,203.572 185.418,208.572 184,213.5C 183.167,212.667 182.333,211.833 181.5,211C 185.288,201.022 182.955,192.689 174.5,186C 175.191,184.933 175.691,183.766 176,182.5C 176.893,183.711 177.726,183.711 178.5,182.5C 177.167,181.5 175.833,180.5 174.5,179.5C 176.625,177.043 178.459,177.376 180,180.5C 180.494,182.134 180.66,183.801 180.5,185.5 Z"/></g>
<g><path style="opacity:1" fill="#fefffe" d="M 200.5,194.5 C 200.808,196.924 200.474,199.257 199.5,201.5C 198.397,196.82 197.23,192.153 196,187.5C 194.024,186.457 193.524,185.123 194.5,183.5C 196.879,186.98 198.879,190.647 200.5,194.5 Z"/></g>
<g><path style="opacity:1" fill="#E0E1E0" d="M 204.5,184.5 C 206.917,185.915 207.417,187.581 206,189.5C 202.402,188.371 201.902,186.704 204.5,184.5 Z"/></g>
<g><path style="opacity:1" fill="#DDB76D" d="M 180.5,185.5 C 184.182,185.335 187.848,185.501 191.5,186C 192.5,186.833 193.5,187.667 194.5,188.5C 196.099,193.921 197.432,199.421 198.5,205C 198.355,206.226 198.022,207.393 197.5,208.5C 193.825,209.056 190.325,210.056 187,211.5C 187.837,205.186 187.504,198.852 186,192.5C 184.334,190.004 182.5,187.671 180.5,185.5 Z"/></g>
<g><path style="opacity:1" fill="#CCA867" d="M 165.5,187.5 C 173.907,187.052 179.074,191.052 181,199.5C 182.088,211.746 176.588,217.246 164.5,216C 159.095,213.273 156.095,208.939 155.5,203C 156.409,200.177 156.576,197.343 156,194.5C 156.465,193.069 157.299,191.903 158.5,191C 160.925,189.787 163.259,188.621 165.5,187.5 Z"/></g>
<g><path style="opacity:1" fill="#E8894D" d="M 236.5,196.5 C 235.391,196.443 234.391,196.11 233.5,195.5C 232.609,194.89 231.609,194.557 230.5,194.5C 229.673,193.561 229.006,193.895 228.5,195.5C 223.899,195.945 219.565,195.278 215.5,193.5C 218.656,192.566 221.989,191.899 225.5,191.5C 225.842,192.338 226.508,192.672 227.5,192.5C 232.241,187.891 235.908,188.558 238.5,194.5C 237.757,195.182 237.091,195.849 236.5,196.5 Z"/></g>
<g><path style="opacity:1" fill="#FFBE9D" d="M 211.5,201.5 C 209.035,201.233 206.701,200.566 204.5,199.5C 203.791,198.596 202.791,198.263 201.5,198.5C 201.768,196.901 201.434,195.568 200.5,194.5C 200.066,191.834 201.066,190.667 203.5,191C 204.184,192.693 205.184,194.193 206.5,195.5C 206.291,196.086 205.957,196.586 205.5,197C 208.229,197.566 210.229,199.066 211.5,201.5 Z"/></g>
<g><path style="opacity:1" fill="#E0E1E0" d="M 206.5,190.5 C 207.675,190.281 208.675,190.614 209.5,191.5C 207.948,192.798 206.948,192.465 206.5,190.5 Z"/></g>
<g><path style="opacity:1" fill="#fefffe" d="M 227.5,192.5 C 226.508,192.672 225.842,192.338 225.5,191.5C 227.838,189.989 228.504,190.323 227.5,192.5 Z"/></g>
<g><path style="opacity:1" fill="#f3a481" d="M 215.5,193.5 C 219.565,195.278 223.899,195.945 228.5,195.5C 227.508,198.779 227.341,202.112 228,205.5C 228.236,201.656 229.07,197.989 230.5,194.5C 231.609,194.557 232.609,194.89 233.5,195.5C 231.583,197.262 230.25,199.429 229.5,202C 229.833,202.5 230.167,203 230.5,203.5C 232.304,203.014 233.971,202.681 235.5,202.5C 237.842,203.211 238.175,204.544 236.5,206.5C 233.052,207.262 229.719,207.429 226.5,207C 222.667,203.167 218.833,199.333 215,195.5C 214.308,194.563 214.475,193.897 215.5,193.5 Z"/></g>
<g><path style="opacity:1" fill="#000000" d="M 230.5,194.5 C 229.07,197.989 228.236,201.656 228,205.5C 227.341,202.112 227.508,198.779 228.5,195.5C 229.006,193.895 229.673,193.561 230.5,194.5 Z"/></g>
<g><path style="opacity:1" fill="#E0E1E0" d="M 210.5,195.5 C 212.103,195.312 213.437,195.812 214.5,197C 212.537,197.844 211.204,197.344 210.5,195.5 Z"/></g>
<g><path style="opacity:1" fill="#6C6B3B" d="M 233.5,195.5 C 234.391,196.11 235.391,196.443 236.5,196.5C 237.097,196.735 237.43,197.235 237.5,198C 236.556,199.477 235.223,200.477 233.5,201C 234.416,201.278 235.082,201.778 235.5,202.5C 233.971,202.681 232.304,203.014 230.5,203.5C 230.167,203 229.833,202.5 229.5,202C 230.25,199.429 231.583,197.262 233.5,195.5 Z"/></g>
<g><path style="opacity:1" fill="#E0E1E0" d="M 215.5,200.5 C 213.017,200.27 212.517,199.603 214,198.5C 215.03,198.836 215.53,199.503 215.5,200.5 Z"/></g>
<g><path style="opacity:1" fill="#A66437" d="M 204.5,199.5 C 206.701,200.566 209.035,201.233 211.5,201.5C 213.6,203.498 215.6,205.665 217.5,208C 216.181,208.195 214.847,208.028 213.5,207.5C 208.672,206.923 205.005,204.59 202.5,200.5C 202.842,199.662 203.508,199.328 204.5,199.5 Z"/></g>
<g><path style="opacity:1" fill="#D83D3C" d="M 202.5,200.5 C 205.005,204.59 208.672,206.923 213.5,207.5C 211.653,208.573 209.653,208.573 207.5,207.5C 204.802,207.155 202.802,205.822 201.5,203.5C 201.263,202.209 201.596,201.209 202.5,200.5 Z"/></g>
<g><path style="opacity:1" fill="#E0E1E0" d="M 215.5,200.5 C 217.983,200.73 218.483,201.397 217,202.5C 215.97,202.164 215.47,201.497 215.5,200.5 Z"/></g>
<g><path style="opacity:1" fill="#908B88" d="M 266.5,209.5 C 267.29,210.401 268.29,211.068 269.5,211.5C 271.466,212.255 271.8,213.421 270.5,215C 269,215.5 267.5,216 266,216.5C 265.235,216.43 264.735,216.097 264.5,215.5C 259.936,214.784 255.269,214.117 250.5,213.5C 249.561,212.673 249.895,212.006 251.5,211.5C 252.586,211.38 253.253,210.713 253.5,209.5C 254.269,206.885 254.603,204.219 254.5,201.5C 257.272,201.595 259.272,202.929 260.5,205.5C 261.275,203.525 262.609,202.691 264.5,203C 265.117,205.277 265.784,207.444 266.5,209.5 Z"/></g>
<g><path style="opacity:1" fill="#fef200" d="M 201.5,203.5 C 202.802,205.822 204.802,207.155 207.5,207.5C 205.149,209.203 202.482,209.703 199.5,209C 200.109,207.052 200.776,205.218 201.5,203.5 Z"/></g>
<g><path style="opacity:1" fill="#E0E1E0" d="M 220.5,205.5 C 218.897,205.688 217.563,205.188 216.5,204C 218.463,203.156 219.796,203.656 220.5,205.5 Z"/></g>
<g><path style="opacity:1" fill="#E0E1E0" d="M 220.5,205.5 C 221.376,205.369 222.043,205.702 222.5,206.5C 220.192,207.873 219.525,207.54 220.5,205.5 Z"/></g>
<g><path style="opacity:1" fill="#FFBF9D" d="M 236.5,206.5 C 237.791,206.263 238.791,206.596 239.5,207.5C 238.229,212.794 240.563,215.961 246.5,217C 249.817,217.498 253.15,217.665 256.5,217.5C 254.143,219.098 251.477,220.098 248.5,220.5C 247.833,221.5 247.167,222.5 246.5,223.5C 244.695,225.197 242.361,226.03 239.5,226C 241.382,226.198 243.048,226.698 244.5,227.5C 242.801,227.34 241.134,227.506 239.5,228C 240.737,228.232 241.737,228.732 242.5,229.5C 240.5,229.5 238.5,229.5 236.5,229.5C 236.665,226.482 236.498,223.482 236,220.5C 234.128,218.153 231.961,216.153 229.5,214.5C 230.674,213.486 231.34,212.153 231.5,210.5C 233.889,210.021 235.556,208.688 236.5,206.5 Z"/></g>
<g><path style="opacity:1" fill="#C48C6D" d="M 251.5,211.5 C 249.895,212.006 249.561,212.673 250.5,213.5C 254.715,215.436 259.381,216.103 264.5,215.5C 264.735,216.097 265.235,216.43 266,216.5C 267.5,216 269,215.5 270.5,215C 271.8,213.421 271.466,212.255 269.5,211.5C 273.981,210.352 278.648,210.185 283.5,211C 287.956,210.898 291.956,211.732 295.5,213.5C 294.798,214.116 293.798,214.116 292.5,213.5C 291.566,214.568 291.232,215.901 291.5,217.5C 279.708,217.594 268.042,217.594 256.5,217.5C 253.15,217.665 249.817,217.498 246.5,217C 240.563,215.961 238.229,212.794 239.5,207.5C 240.117,207.389 240.617,207.056 241,206.5C 243.656,212.381 247.322,213.047 252,208.5C 252.47,209.577 252.303,210.577 251.5,211.5 Z"/></g>
<g><path style="opacity:1" fill="#fec90d" d="M 310.5,209.5 C 306.769,207.472 307.435,206.472 312.5,206.5C 312.715,208.179 312.048,209.179 310.5,209.5 Z"/></g>
<g><path style="opacity:1" fill="#fec90d" d="M 441.5,214.5 C 440.71,219.022 441.71,219.355 444.5,215.5C 446.085,214.526 447.085,213.026 447.5,211C 448.749,210.26 449.749,210.427 450.5,211.5C 449.539,213.265 449.205,215.265 449.5,217.5C 448.881,220.119 447.214,221.786 444.5,222.5C 440.37,222.3 436.704,221.3 433.5,219.5C 434.434,218.432 434.768,217.099 434.5,215.5C 435.434,214.432 435.768,213.099 435.5,211.5C 436.29,210.391 436.79,209.058 437,207.5C 438.714,206.075 440.047,206.408 441,208.5C 441.495,210.473 441.662,212.473 441.5,214.5 Z"/></g>
<g><path style="opacity:1" fill="#9C9D9C" d="M 266.5,209.5 C 271.456,208.172 276.789,207.505 282.5,207.5C 287.833,207.833 293.167,208.167 298.5,208.5C 287.854,209.499 277.187,209.832 266.5,209.5 Z"/></g>
<g><path style="opacity:1" fill="#fec90d" d="M 301.5,210.5 C 300.833,210.833 300.167,211.167 299.5,211.5C 299.5,210.167 299.5,208.833 299.5,207.5C 302.248,207.402 302.914,208.402 301.5,210.5 Z"/></g>
<g><path style="opacity:1" fill="#9C9D9C" d="M 313.5,207.5 C 328.845,208.045 344.179,208.879 359.5,210C 347.995,210.5 336.495,210.333 325,209.5C 320.771,209.49 316.938,208.823 313.5,207.5 Z"/></g>
<g><path style="opacity:1" fill="#fec90d" d="M 361.5,208.5 C 362.5,208.5 363.5,208.5 364.5,208.5C 362.874,223.064 361.874,223.064 361.5,208.5 Z"/></g>
<g><path style="opacity:1" fill="#fec90d" d="M 374.5,208.5 C 375.833,208.5 377.167,208.5 378.5,208.5C 378.276,212.179 377.942,215.846 377.5,219.5C 376.167,219.5 374.833,219.5 373.5,219.5C 374.114,215.865 374.448,212.198 374.5,208.5 Z"/></g>
<g><path style="opacity:1" fill="#D49674" d="M 231.5,210.5 C 231.34,212.153 230.674,213.486 229.5,214.5C 224.424,214.312 219.424,215.478 214.5,218C 213.743,219.512 212.743,220.846 211.5,222C 207.703,224.138 204.203,226.638 201,229.5C 198.453,226.776 196.119,223.776 194,220.5C 192.991,218.975 192.491,217.308 192.5,215.5C 193.434,214.432 193.768,213.099 193.5,211.5C 205.186,211.132 216.852,210.466 228.5,209.5C 229.726,209.52 230.726,209.853 231.5,210.5 Z"/></g>
<g><path style="opacity:1" fill="#FAB294" d="M 310.5,209.5 C 310.198,212.059 310.532,214.393 311.5,216.5C 310.594,219.436 309.928,222.436 309.5,225.5C 305.154,225.334 300.821,225.501 296.5,226C 293.5,227.074 290.5,227.907 287.5,228.5C 286.5,228.5 285.5,228.5 284.5,228.5C 282.286,226.761 282.286,224.761 284.5,222.5C 285.78,221.069 287.447,220.402 289.5,220.5C 290.5,220.5 291.5,220.5 292.5,220.5C 292.5,218.167 292.5,215.833 292.5,213.5C 293.798,214.116 294.798,214.116 295.5,213.5C 296.467,212.194 297.801,211.527 299.5,211.5C 300.167,211.167 300.833,210.833 301.5,210.5C 302.833,210.5 304.167,210.5 305.5,210.5C 305.677,217.134 306.177,217.134 307,210.5C 308.011,209.663 309.178,209.33 310.5,209.5 Z"/></g>
<g><path style="opacity:1" fill="#9C9D9C" d="M 366.5,209.5 C 368.604,209.201 370.604,209.534 372.5,210.5C 371.5,210.833 370.5,211.167 369.5,211.5C 367.97,211.36 366.97,210.693 366.5,209.5 Z"/></g>
<g><path style="opacity:1" fill="#9C9D9C" d="M 435.5,211.5 C 417.243,212.486 398.91,212.82 380.5,212.5C 380.5,211.5 380.5,210.5 380.5,209.5C 399.016,209.483 417.349,210.149 435.5,211.5 Z"/></g>
<g><path style="opacity:1" fill="#9C9D9C" d="M 192.5,215.5 C 190.7,216.308 189.033,215.808 187.5,214C 190.776,210.301 192.443,210.801 192.5,215.5 Z"/></g>
<g><path style="opacity:1" fill="#D69874" d="M 311.5,216.5 C 311.5,214.833 311.5,213.167 311.5,211.5C 327.5,211.833 343.5,212.167 359.5,212.5C 359.5,214.5 359.5,216.5 359.5,218.5C 344.114,218.205 328.781,218.205 313.5,218.5C 312.818,217.757 312.151,217.091 311.5,216.5 Z"/></g>
<g><path style="opacity:1" fill="#7A7A7A" d="M 444.5,215.5 C 441.71,219.355 440.71,219.022 441.5,214.5C 442.404,213.791 442.737,212.791 442.5,211.5C 443.5,211.5 444.5,211.5 445.5,211.5C 445.567,212.959 445.234,214.292 444.5,215.5 Z"/></g>
<g><path style="opacity:1" fill="#9A9A9A" d="M 449.5,217.5 C 449.205,215.265 449.539,213.265 450.5,211.5C 455.47,210.088 460.136,210.921 464.5,214C 489.329,215.249 513.995,217.916 538.5,222C 514.655,222.228 490.821,221.728 467,220.5C 464.468,220.624 461.968,220.957 459.5,221.5C 458.558,221.392 457.725,221.059 457,220.5C 456.174,212.527 455.674,212.527 455.5,220.5C 453.5,220.5 451.5,220.5 449.5,220.5C 449.5,219.5 449.5,218.5 449.5,217.5 Z"/></g>
<g><path style="opacity:1" fill="#000000" d="M 250.5,213.5 C 255.269,214.117 259.936,214.784 264.5,215.5C 259.381,216.103 254.715,215.436 250.5,213.5 Z"/></g>
<g><path style="opacity:1" fill="#020203" d="M 292.5,213.5 C 292.5,215.833 292.5,218.167 292.5,220.5C 291.5,220.5 290.5,220.5 289.5,220.5C 281.324,219.179 272.991,219.179 264.5,220.5C 271.3,219.922 277.967,220.589 284.5,222.5C 282.286,224.761 282.286,226.761 284.5,228.5C 283.222,228.782 282.222,229.449 281.5,230.5C 281.517,226.623 280.351,225.957 278,228.5C 277.25,231.708 276.75,234.708 276.5,237.5C 276.957,238.298 277.624,238.631 278.5,238.5C 278.5,238.833 278.5,239.167 278.5,239.5C 277.5,239.5 276.5,239.5 275.5,239.5C 274.67,244.674 273.67,249.841 272.5,255C 272.768,258.574 273.435,262.074 274.5,265.5C 274.167,266.167 273.833,266.833 273.5,267.5C 270.966,262.278 269.966,256.944 270.5,251.5C 271.038,249.883 271.371,248.216 271.5,246.5C 272.525,246.103 272.692,245.437 272,244.5C 270.829,243.107 269.329,242.273 267.5,242C 266.107,240.829 265.273,239.329 265,237.5C 263.349,235.79 261.516,234.456 259.5,233.5C 258.917,230.715 257.25,229.049 254.5,228.5C 257.044,228.896 259.211,228.229 261,226.5C 261.635,224.382 262.469,222.382 263.5,220.5C 263.167,219.833 262.833,219.167 262.5,218.5C 259.989,220.895 257.489,223.228 255,225.5C 252.095,224.758 249.928,223.091 248.5,220.5C 251.477,220.098 254.143,219.098 256.5,217.5C 268.042,217.594 279.708,217.594 291.5,217.5C 291.232,215.901 291.566,214.568 292.5,213.5 Z"/></g>
<g><path style="opacity:1" fill="#5F5F5F" d="M 314.5,212.5 C 317.518,212.335 320.518,212.502 323.5,213C 324.833,214 324.833,215 323.5,216C 319.712,217.116 316.378,216.45 313.5,214C 314.056,213.617 314.389,213.117 314.5,212.5 Z"/></g>
<g><path style="opacity:1" fill="#D69874" d="M 366.5,213.5 C 368.527,213.338 370.527,213.505 372.5,214C 371.594,215.699 371.261,217.533 371.5,219.5C 369.5,219.5 367.5,219.5 365.5,219.5C 365.325,217.379 365.659,215.379 366.5,213.5 Z"/></g>
<g><path style="opacity:1" fill="#fef200" d="M 187.5,219.5 C 185.735,218.539 183.735,218.205 181.5,218.5C 180.374,217.142 180.374,215.808 181.5,214.5C 184.667,215.719 187.667,217.219 190.5,219C 189.552,219.483 188.552,219.649 187.5,219.5 Z"/></g>
<g><path style="opacity:1" fill="#D49776" d="M 434.5,215.5 C 430.486,215.334 426.486,215.501 422.5,216C 437.167,216.667 437.167,217.333 422.5,218C 426.356,218.177 430.023,218.677 433.5,219.5C 415.5,219.5 397.5,219.5 379.5,219.5C 379.286,217.856 379.62,216.356 380.5,215C 398.671,214.171 416.671,214.338 434.5,215.5 Z"/></g>
<g><path style="opacity:1" fill="#952531" d="M 170.5,226.5 C 167.478,224.334 164.145,223.001 160.5,222.5C 159.222,220.456 159.388,218.456 161,216.5C 165.271,218.496 169.771,218.996 174.5,218C 175.931,217.535 177.097,216.701 178,215.5C 178.667,216.167 178.667,216.833 178,217.5C 174.121,219.529 171.621,222.529 170.5,226.5 Z"/></g>
<g><path style="opacity:1" fill="#000000" d="M 434.5,215.5 C 434.768,217.099 434.434,218.432 433.5,219.5C 430.023,218.677 426.356,218.177 422.5,218C 437.167,217.333 437.167,216.667 422.5,216C 426.486,215.501 430.486,215.334 434.5,215.5 Z"/></g>
<g><path style="opacity:1" fill="#4576A5" d="M 227.5,235.5 C 226.264,233.389 224.764,231.389 223,229.5C 222.667,226.833 222.333,224.167 222,221.5C 220.698,220.915 219.531,220.249 218.5,219.5C 223.592,215.604 228.592,215.937 233.5,220.5C 234.593,224.108 234.76,227.775 234,231.5C 232.362,233.734 230.195,235.067 227.5,235.5 Z"/></g>
<g><path style="opacity:1" fill="#41B761" d="M 181.5,218.5 C 183.735,218.205 185.735,218.539 187.5,219.5C 192.66,220.829 195.494,224.162 196,229.5C 195.333,230.167 194.667,230.833 194,231.5C 193.667,229.833 193.333,228.167 193,226.5C 192.667,227.167 192.333,227.833 192,228.5C 190.324,227.939 188.991,226.939 188,225.5C 187.282,226.451 186.449,226.617 185.5,226C 184.773,224.601 184.273,223.101 184,221.5C 183.51,222.793 183.343,224.127 183.5,225.5C 180.756,224.49 178.423,224.824 176.5,226.5C 175.158,225.098 174.324,225.431 174,227.5C 174.058,222.598 176.558,219.598 181.5,218.5 Z"/></g>
<g><path style="opacity:1" fill="#fec90d" d="M 254.5,228.5 C 253.486,227.326 252.153,226.66 250.5,226.5C 249.074,225.659 247.74,224.659 246.5,223.5C 247.167,222.5 247.833,221.5 248.5,220.5C 249.928,223.091 252.095,224.758 255,225.5C 257.489,223.228 259.989,220.895 262.5,218.5C 262.833,219.167 263.167,219.833 263.5,220.5C 262.469,222.382 261.635,224.382 261,226.5C 259.211,228.229 257.044,228.896 254.5,228.5 Z"/></g>
<g><path style="opacity:1" fill="#fefffe" d="M 218.5,219.5 C 219.531,220.249 220.698,220.915 222,221.5C 222.333,224.167 222.667,226.833 223,229.5C 224.764,231.389 226.264,233.389 227.5,235.5C 227.5,236.833 226.833,237.5 225.5,237.5C 225.288,234.288 223.621,232.288 220.5,231.5C 221.055,227.988 220.388,224.988 218.5,222.5C 218.158,221.662 217.492,221.328 216.5,221.5C 215.34,219.797 216.007,219.131 218.5,219.5 Z"/></g>
<g><path style="opacity:1" fill="#fefffe" d="M 289.5,220.5 C 287.447,220.402 285.78,221.069 284.5,222.5C 277.967,220.589 271.3,219.922 264.5,220.5C 272.991,219.179 281.324,219.179 289.5,220.5 Z"/></g>
<g><path style="opacity:1" fill="#fefffe" d="M 315.5,219.5 C 330.492,220.117 345.492,220.617 360.5,221C 347.649,221.766 334.816,221.599 322,220.5C 319.966,220.354 318.299,221.02 317,222.5C 315.933,221.809 314.766,221.309 313.5,221C 314.416,220.722 315.082,220.222 315.5,219.5 Z"/></g>
<g><path style="opacity:1" fill="#467CAE" d="M 216.5,221.5 C 217.492,221.328 218.158,221.662 218.5,222.5C 219.088,225.61 219.755,228.61 220.5,231.5C 223.621,232.288 225.288,234.288 225.5,237.5C 219.275,244.808 211.942,250.975 203.5,256C 196.805,257.478 190.138,257.144 183.5,255C 180.196,252.727 178.696,249.561 179,245.5C 178.667,246.5 178.333,247.5 178,248.5C 176.883,247.051 176.216,245.384 176,243.5C 175.586,243.957 175.086,244.291 174.5,244.5C 170.32,228.841 175.653,224.008 190.5,230C 191.119,231.757 192.286,232.924 194,233.5C 196.912,231.934 200.079,231.101 203.5,231C 207.426,227.236 211.759,224.069 216.5,221.5 Z"/></g>
<g><path style="opacity:1" fill="#fefffe" d="M 160.5,222.5 C 164.145,223.001 167.478,224.334 170.5,226.5C 170.5,227.5 170.5,228.5 170.5,229.5C 169.71,230.609 169.21,231.942 169,233.5C 168.458,243.175 167.791,252.842 167,262.5C 165.188,263.977 163.355,265.31 161.5,266.5C 159.176,266.123 158.509,265.123 159.5,263.5C 163.043,263.128 165.21,261.128 166,257.5C 166.019,248.071 166.852,238.737 168.5,229.5C 168.41,227.575 167.41,226.408 165.5,226C 163.527,225.505 161.527,225.338 159.5,225.5C 157.871,223.804 158.204,222.804 160.5,222.5 Z"/></g>
<g><path style="opacity:1" fill="#000000" d="M 218.5,222.5 C 220.388,224.988 221.055,227.988 220.5,231.5C 219.755,228.61 219.088,225.61 218.5,222.5 Z"/></g>
<g><path style="opacity:1" fill="#972431" d="M 159.5,225.5 C 161.527,225.338 163.527,225.505 165.5,226C 167.41,226.408 168.41,227.575 168.5,229.5C 166.852,238.737 166.019,248.071 166,257.5C 165.21,261.128 163.043,263.128 159.5,263.5C 157.856,263.714 156.356,263.38 155,262.5C 153.67,251.108 154.337,239.775 157,228.5C 157.236,226.881 158.069,225.881 159.5,225.5 Z"/></g>
<g><path style="opacity:1" fill="#fefffe" d="M 242.5,229.5 C 243.5,229.167 244.167,228.5 244.5,227.5C 245.117,227.389 245.617,227.056 246,226.5C 248.295,235.641 247.961,244.641 245,253.5C 242.842,245.656 242.009,237.656 242.5,229.5 Z"/></g>
<g><path style="opacity:1" fill="#34516E" d="M 250.5,226.5 C 252.153,226.66 253.486,227.326 254.5,228.5C 257.25,229.049 258.917,230.715 259.5,233.5C 256.802,236.517 253.469,238.517 249.5,239.5C 249.441,236.31 249.107,233.143 248.5,230C 248.608,228.319 249.275,227.152 250.5,226.5 Z"/></g>
<g><path style="opacity:1" fill="#fefffe" d="M 267.5,226.5 C 269.167,226.5 270.833,226.5 272.5,226.5C 272.002,229.487 271.502,232.487 271,235.5C 270.047,233.545 268.713,231.878 267,230.5C 266.421,229.072 266.588,227.738 267.5,226.5 Z"/></g>
<g><path style="opacity:1" fill="#5A87B7" d="M 281.5,230.5 C 280.935,233.305 279.935,235.972 278.5,238.5C 277.624,238.631 276.957,238.298 276.5,237.5C 276.75,234.708 277.25,231.708 278,228.5C 280.351,225.957 281.517,226.623 281.5,230.5 Z"/></g>
<g><path style="opacity:1" fill="#000000" d="M 244.5,227.5 C 244.167,228.5 243.5,229.167 242.5,229.5C 241.737,228.732 240.737,228.232 239.5,228C 241.134,227.506 242.801,227.34 244.5,227.5 Z"/></g>
<g><path style="opacity:1" fill="#842B30" d="M 161.5,266.5 C 163.355,265.31 165.188,263.977 167,262.5C 167.791,252.842 168.458,243.175 169,233.5C 169.21,231.942 169.71,230.609 170.5,229.5C 171.117,229.389 171.617,229.056 172,228.5C 172.047,234.482 171.88,240.482 171.5,246.5C 171.292,251.651 171.958,256.651 173.5,261.5C 170.159,263.996 166.659,266.329 163,268.5C 162.283,267.956 161.783,267.289 161.5,266.5 Z"/></g>
<g><path style="opacity:1" fill="#fefffe" d="M 284.5,228.5 C 283.89,229.391 283.557,230.391 283.5,231.5C 282.167,233.833 282.167,236.167 283.5,238.5C 286.589,239.785 289.922,240.451 293.5,240.5C 291.735,241.461 289.735,241.795 287.5,241.5C 285.393,240.532 283.059,240.198 280.5,240.5C 280.158,239.662 279.492,239.328 278.5,239.5C 278.5,239.167 278.5,238.833 278.5,238.5C 279.5,238.5 280.5,238.5 281.5,238.5C 281.5,235.833 281.5,233.167 281.5,230.5C 282.222,229.449 283.222,228.782 284.5,228.5 Z"/></g>
<g><path style="opacity:1" fill="#44729E" d="M 284.5,228.5 C 285.5,228.5 286.5,228.5 287.5,228.5C 289.833,228.5 292.167,228.5 294.5,228.5C 294.443,230.884 294.777,233.218 295.5,235.5C 295.199,237.422 294.533,239.088 293.5,240.5C 289.922,240.451 286.589,239.785 283.5,238.5C 284.833,238.5 285.5,237.833 285.5,236.5C 284.032,235.221 283.365,233.554 283.5,231.5C 283.557,230.391 283.89,229.391 284.5,228.5 Z"/></g>
<g><path style="opacity:1" fill="#fefffe" d="M 226.5,254.5 C 226.204,252.597 225.537,250.93 224.5,249.5C 224.598,247.447 223.931,245.78 222.5,244.5C 227.12,240.217 231.787,235.883 236.5,231.5C 237.833,230.167 239.167,230.167 240.5,231.5C 234.814,239.034 230.648,247.368 228,256.5C 227.722,255.584 227.222,254.918 226.5,254.5 Z"/></g>
<g><path style="opacity:1" fill="#000000" d="M 281.5,230.5 C 281.5,233.167 281.5,235.833 281.5,238.5C 280.5,238.5 279.5,238.5 278.5,238.5C 279.935,235.972 280.935,233.305 281.5,230.5 Z"/></g>
<g><path style="opacity:1" fill="#000000" d="M 283.5,231.5 C 283.365,233.554 284.032,235.221 285.5,236.5C 284.167,236.5 283.5,237.167 283.5,238.5C 282.167,236.167 282.167,233.833 283.5,231.5 Z"/></g>
<g><path style="opacity:1" fill="#447AAB" d="M 259.5,233.5 C 261.516,234.456 263.349,235.79 265,237.5C 265.273,239.329 266.107,240.829 267.5,242C 269.329,242.273 270.829,243.107 272,244.5C 272.692,245.437 272.525,246.103 271.5,246.5C 267.855,247.987 264.188,249.487 260.5,251C 257.305,251.181 254.305,251.681 251.5,252.5C 249.516,252.516 248.516,251.516 248.5,249.5C 249.327,246.217 249.66,242.884 249.5,239.5C 253.469,238.517 256.802,236.517 259.5,233.5 Z"/></g>
<g><path style="opacity:1" fill="#fefffe" d="M 285.5,236.5 C 285.5,237.833 284.833,238.5 283.5,238.5C 283.5,237.167 284.167,236.5 285.5,236.5 Z"/></g>
<g><path style="opacity:1" fill="#fefffe" d="M 239.5,241.5 C 238.468,243.434 237.802,245.6 237.5,248C 238.31,251.792 238.644,255.625 238.5,259.5C 237.686,261.631 237.186,263.964 237,266.5C 236.503,263.854 236.336,261.187 236.5,258.5C 237.833,256.167 237.833,253.833 236.5,251.5C 236.268,246.954 237.101,242.621 239,238.5C 239.483,239.448 239.649,240.448 239.5,241.5 Z"/></g>
<g><path style="opacity:1" fill="#000000" d="M 280.5,240.5 C 283.059,240.198 285.393,240.532 287.5,241.5C 285.234,241.141 283.401,241.808 282,243.5C 281.487,242.473 280.987,241.473 280.5,240.5 Z"/></g>
<g><path style="opacity:1" fill="#436B93" d="M 239.5,241.5 C 240.754,246.227 242.088,251.06 243.5,256C 242.139,259.889 240.639,263.722 239,267.5C 238.503,264.854 238.336,262.187 238.5,259.5C 238.644,255.625 238.31,251.792 237.5,248C 237.802,245.6 238.468,243.434 239.5,241.5 Z"/></g>
<g><path style="opacity:1" fill="#467DAF" d="M 278.5,239.5 C 279.492,239.328 280.158,239.662 280.5,240.5C 280.987,241.473 281.487,242.473 282,243.5C 283.401,241.808 285.234,241.141 287.5,241.5C 289.265,242.461 291.265,242.795 293.5,242.5C 293.956,253.344 291.289,263.344 285.5,272.5C 283.604,273.466 281.604,273.799 279.5,273.5C 279.665,269.818 279.499,266.152 279,262.5C 278.824,265.882 278.324,269.215 277.5,272.5C 268.946,267.934 261.28,262.268 254.5,255.5C 259.579,253.535 264.912,252.202 270.5,251.5C 269.966,256.944 270.966,262.278 273.5,267.5C 273.833,266.833 274.167,266.167 274.5,265.5C 273.435,262.074 272.768,258.574 272.5,255C 273.67,249.841 274.67,244.674 275.5,239.5C 276.5,239.5 277.5,239.5 278.5,239.5 Z"/></g>
<g><path style="opacity:1" fill="#762D2E" d="M 222.5,244.5 C 223.931,245.78 224.598,247.447 224.5,249.5C 223.609,248.89 222.609,248.557 221.5,248.5C 219.14,247.092 219.474,245.759 222.5,244.5 Z"/></g>
<g><path style="opacity:1" fill="#fefffe" d="M 234.5,245.5 C 235.773,246.077 235.773,246.743 234.5,247.5C 233.537,247.03 233.537,246.363 234.5,245.5 Z"/></g>
<g><path style="opacity:1" fill="#4780B4" d="M 173.5,246.5 C 175.554,250.058 178.22,253.225 181.5,256C 179.759,257.62 177.925,259.12 176,260.5C 174.956,259.377 174.29,258.044 174,256.5C 173.502,253.183 173.335,249.85 173.5,246.5 Z"/></g>
<g><path style="opacity:1" fill="#345472" d="M 271.5,246.5 C 271.371,248.216 271.038,249.883 270.5,251.5C 264.912,252.202 259.579,253.535 254.5,255.5C 253.167,254.833 252.167,253.833 251.5,252.5C 254.305,251.681 257.305,251.181 260.5,251C 264.188,249.487 267.855,247.987 271.5,246.5 Z"/></g>
<g><path style="opacity:1" fill="#fefffe" d="M 217.5,248.5 C 218.043,248.56 218.376,248.893 218.5,249.5C 217.396,251.389 216.063,253.055 214.5,254.5C 213.417,253.635 213.251,252.635 214,251.5C 215.145,250.364 216.312,249.364 217.5,248.5 Z"/></g>
<g><path style="opacity:1" fill="#fec90d" d="M 221.5,248.5 C 222.609,248.557 223.609,248.89 224.5,249.5C 224.912,251.973 223.912,253.306 221.5,253.5C 220.929,251.64 220.929,249.973 221.5,248.5 Z"/></g>
<g><path style="opacity:1" fill="#4575A3" d="M 236.5,251.5 C 236.672,252.492 236.338,253.158 235.5,253.5C 232.833,254.5 232.833,255.5 235.5,256.5C 236.338,256.842 236.672,257.508 236.5,258.5C 235.698,259.952 235.198,261.618 235,263.5C 233.247,260.995 231.747,258.329 230.5,255.5C 231.095,252.683 232.428,250.35 234.5,248.5C 235.176,249.602 235.842,250.602 236.5,251.5 Z"/></g>
<g><path style="opacity:1" fill="#fefffe" d="M 221.5,253.5 C 221.402,255.553 222.069,257.22 223.5,258.5C 222.874,261.315 221.54,263.815 219.5,266C 205.333,279.088 188.999,288.588 170.5,294.5C 170.167,294.167 169.833,293.833 169.5,293.5C 171.888,290.554 173.888,287.387 175.5,284C 180.875,282.432 185.875,280.099 190.5,277C 196.884,271.615 203.55,266.615 210.5,262C 214.036,258.799 217.203,255.299 220,251.5C 220.278,252.416 220.778,253.082 221.5,253.5 Z"/></g>
<g><path style="opacity:1" fill="#000000" d="M 236.5,251.5 C 237.833,253.833 237.833,256.167 236.5,258.5C 236.672,257.508 236.338,256.842 235.5,256.5C 236.833,255.5 236.833,254.5 235.5,253.5C 236.338,253.158 236.672,252.492 236.5,251.5 Z"/></g>
<g><path style="opacity:1" fill="#872A30" d="M 224.5,249.5 C 225.537,250.93 226.204,252.597 226.5,254.5C 226.595,256.786 227.262,258.786 228.5,260.5C 232.632,268.241 234.965,276.574 235.5,285.5C 235.34,287.199 235.506,288.866 236,290.5C 240.982,293.978 243.149,298.644 242.5,304.5C 242.158,305.338 241.492,305.672 240.5,305.5C 239.503,305.53 238.836,305.03 238.5,304C 237.928,300.579 236.928,297.413 235.5,294.5C 235.167,293.5 234.5,292.833 233.5,292.5C 232.833,292.5 232.5,292.167 232.5,291.5C 232.666,286.821 232.499,282.155 232,277.5C 231.066,276.142 230.232,274.808 229.5,273.5C 227.597,270.47 226.263,267.137 225.5,263.5C 225.204,261.597 224.537,259.93 223.5,258.5C 222.069,257.22 221.402,255.553 221.5,253.5C 223.912,253.306 224.912,251.973 224.5,249.5 Z"/></g>
<g><path style="opacity:1" fill="#fefffe" d="M 235.5,253.5 C 236.833,254.5 236.833,255.5 235.5,256.5C 232.833,255.5 232.833,254.5 235.5,253.5 Z"/></g>
<g><path style="opacity:1" fill="#fefffe" d="M 207.5,256.5 C 209.76,257.238 209.927,258.238 208,259.5C 206.272,258.648 206.105,257.648 207.5,256.5 Z"/></g>
<g><path style="opacity:1" fill="#fefffe" d="M 183.5,257.5 C 186.487,257.998 189.487,258.498 192.5,259C 184.416,263.457 176.582,268.291 169,273.5C 167.414,272.624 165.914,271.624 164.5,270.5C 171.149,266.499 177.482,262.166 183.5,257.5 Z"/></g>
<g><path style="opacity:1" fill="#4276A5" d="M 200.5,258.5 C 201.725,259.152 202.392,260.319 202.5,262C 202.441,263.436 202.108,264.769 201.5,266C 194.114,272.383 185.947,277.55 177,281.5C 176.333,278.167 176.333,274.833 177,271.5C 184.343,265.92 192.176,261.587 200.5,258.5 Z"/></g>
<g><path style="opacity:1" fill="#fefffe" d="M 235.5,285.5 C 234.965,276.574 232.632,268.241 228.5,260.5C 228.369,259.761 228.536,259.094 229,258.5C 233.332,263.662 236.499,269.495 238.5,276C 237.928,279.421 236.928,282.587 235.5,285.5 Z"/></g>
<g><path style="opacity:1" fill="#fefffe" d="M 225.5,263.5 C 226.263,267.137 227.597,270.47 229.5,273.5C 229.607,275.379 229.107,275.712 228,274.5C 226.365,271.368 224.532,268.368 222.5,265.5C 223.005,264.081 224.005,263.415 225.5,263.5 Z"/></g>
<g><path style="opacity:1" fill="#4577A6" d="M 230.5,282.5 C 227.903,281.597 227.403,282.264 229,284.5C 229.383,283.944 229.883,283.611 230.5,283.5C 231.833,285.167 231.833,286.833 230.5,288.5C 229.167,288.5 228.5,289.167 228.5,290.5C 224.702,291.483 220.702,291.817 216.5,291.5C 215.955,287.828 215.622,288.162 215.5,292.5C 212.713,293.477 209.713,293.81 206.5,293.5C 205.508,293.672 204.842,293.338 204.5,292.5C 203.895,290.519 202.895,290.185 201.5,291.5C 200.596,290.791 200.263,289.791 200.5,288.5C 201.309,286.708 201.809,284.708 202,282.5C 207.289,278.88 212.289,274.88 217,270.5C 217.333,274.167 217.667,277.833 218,281.5C 218.333,277.167 218.667,272.833 219,268.5C 219.414,268.043 219.914,267.709 220.5,267.5C 223.754,271.647 227.254,275.647 231,279.5C 231.74,280.749 231.573,281.749 230.5,282.5 Z"/></g>
<g><path style="opacity:1" fill="#fefffe" d="M 230.5,282.5 C 230.5,282.833 230.5,283.167 230.5,283.5C 229.883,283.611 229.383,283.944 229,284.5C 227.403,282.264 227.903,281.597 230.5,282.5 Z"/></g>
<g><path style="opacity:1" fill="#fefffe" d="M 204.5,283.5 C 206.76,284.238 206.927,285.238 205,286.5C 203.272,285.648 203.105,284.648 204.5,283.5 Z"/></g>
<g><path style="opacity:1" fill="#42698F" d="M 198.5,288.5 C 198.756,290.792 198.423,292.959 197.5,295C 190.449,295.211 183.449,295.878 176.5,297C 173.194,297.986 170.194,299.486 167.5,301.5C 166.355,300.207 166.689,299.041 168.5,298C 174.264,295.078 180.264,292.745 186.5,291C 190.577,289.213 194.41,287.046 198,284.5C 198.49,285.793 198.657,287.127 198.5,288.5 Z"/></g>
<g><path style="opacity:1" fill="#fefffe" d="M 198.5,288.5 C 198.833,288.5 199.167,288.5 199.5,288.5C 199.018,294.239 201.352,295.906 206.5,293.5C 209.713,293.81 212.713,293.477 215.5,292.5C 221.259,292.786 226.925,292.452 232.5,291.5C 232.5,292.167 232.833,292.5 233.5,292.5C 228.167,293.167 222.833,293.833 217.5,294.5C 211.274,294.388 205.274,295.054 199.5,296.5C 192.576,296.068 185.909,296.734 179.5,298.5C 173.845,298.493 169.511,300.826 166.5,305.5C 165.957,305.44 165.624,305.107 165.5,304.5C 166.193,303.482 166.859,302.482 167.5,301.5C 170.194,299.486 173.194,297.986 176.5,297C 183.449,295.878 190.449,295.211 197.5,295C 198.423,292.959 198.756,290.792 198.5,288.5 Z"/></g>
<g><path style="opacity:1" fill="#fefffe" d="M 230.5,288.5 C 230.5,289.833 229.833,290.5 228.5,290.5C 228.5,289.167 229.167,288.5 230.5,288.5 Z"/></g>
<g><path style="opacity:1" fill="#fefffe" d="M 204.5,292.5 C 203.105,293.815 202.105,293.481 201.5,291.5C 202.895,290.185 203.895,290.519 204.5,292.5 Z"/></g>
<g><path style="opacity:1" fill="#505152" d="M 200.5,288.5 C 200.263,289.791 200.596,290.791 201.5,291.5C 202.105,293.481 203.105,293.815 204.5,292.5C 204.842,293.338 205.508,293.672 206.5,293.5C 201.352,295.906 199.018,294.239 199.5,288.5C 199.833,281.833 200.167,281.833 200.5,288.5 Z"/></g>
<g><path style="opacity:1" fill="#467CAE" d="M 217.5,294.5 C 220.167,294.5 222.833,294.5 225.5,294.5C 225.833,303.833 226.167,303.833 226.5,294.5C 228.167,294.5 229.833,294.5 231.5,294.5C 232.655,301.114 233.489,307.781 234,314.5C 235.969,320.098 237.636,325.764 239,331.5C 246.121,347.53 252.454,363.863 258,380.5C 258.566,401.19 259.566,421.856 261,442.5C 261.373,446.285 262.539,449.785 264.5,453C 251.522,459.24 244.856,455.406 244.5,441.5C 244.768,438.881 244.435,436.381 243.5,434C 244.56,432.702 245.726,431.535 247,430.5C 247.5,430.667 248,430.833 248.5,431C 251.715,436.643 254.548,442.476 257,448.5C 256.376,434.849 255.543,421.182 254.5,407.5C 255.4,400.511 255.566,393.511 255,386.5C 249.664,396.836 245.164,407.503 241.5,418.5C 237.571,407.377 240.238,398.21 249.5,391C 244.981,392.593 240.647,394.76 236.5,397.5C 236.665,394.15 236.498,390.817 236,387.5C 227.857,374.193 220.023,360.859 212.5,347.5C 209.207,341.8 210.207,336.967 215.5,333C 214.975,332.308 214.308,331.808 213.5,331.5C 210.171,333.506 207.171,335.839 204.5,338.5C 201.444,339.317 199.777,341.317 199.5,344.5C 194.175,349.324 189.009,354.324 184,359.5C 180.602,369.298 180.769,378.964 184.5,388.5C 184.44,391.341 183.774,394.007 182.5,396.5C 177.002,399.414 171.336,402.081 165.5,404.5C 171.141,406.07 176.474,405.403 181.5,402.5C 181.677,406.234 181.344,409.901 180.5,413.5C 177.949,415.578 176.116,418.244 175,421.5C 173.542,427.804 171.708,433.971 169.5,440C 169.259,447.049 172.592,450.883 179.5,451.5C 179.67,452.822 179.337,453.989 178.5,455C 172.554,457.33 166.554,457.664 160.5,456C 158.848,454.53 157.848,452.697 157.5,450.5C 158.301,435.859 158.801,421.192 159,406.5C 160.37,397.983 161.87,389.483 163.5,381C 162.236,378.138 162.236,375.305 163.5,372.5C 168.782,367.854 174.448,363.688 180.5,360C 178.5,359.333 176.5,359.333 174.5,360C 171.532,362.814 168.199,364.981 164.5,366.5C 163.882,357.601 165.882,349.434 170.5,342C 168.112,341.135 166.612,341.968 166,344.5C 166.028,339.1 165.195,333.933 163.5,329C 164.666,323.836 165.833,318.669 167,313.5C 167.792,311.413 168.959,309.579 170.5,308C 175.737,304.214 181.404,301.214 187.5,299C 186.833,298.667 186.167,298.333 185.5,298C 187.333,297.833 189.167,297.667 191,297.5C 193.295,297.547 195.129,298.213 196.5,299.5C 197.5,298.5 198.5,297.5 199.5,296.5C 200.5,296.5 201.5,296.5 202.5,296.5C 202.5,297.833 202.5,299.167 202.5,300.5C 205.889,300.368 209.223,300.201 212.5,300C 213.264,302.069 213.764,304.236 214,306.5C 214.025,302.041 215.192,298.041 217.5,294.5 Z"/></g>
<g><path style="opacity:1" fill="#7E7E7E" d="M 235.5,294.5 C 236.928,297.413 237.928,300.579 238.5,304C 238.836,305.03 239.503,305.53 240.5,305.5C 238.223,307.038 238.556,308.371 241.5,309.5C 241.018,310.416 240.685,311.416 240.5,312.5C 241.506,315.851 242.506,319.184 243.5,322.5C 246.625,323.1 246.958,324.267 244.5,326C 243.056,326.781 241.723,326.614 240.5,325.5C 235.743,315.512 234.076,305.179 235.5,294.5 Z"/></g>
<g><path style="opacity:1" fill="#393939" d="M 155.5,319.5 C 154.466,318.313 153.133,317.48 151.5,317C 152.167,316.667 152.833,316.333 153.5,316C 152.072,315.421 150.738,315.588 149.5,316.5C 148.252,315.666 147.585,314.333 147.5,312.5C 148.374,306.798 149.374,301.131 150.5,295.5C 153.85,295.506 156.85,296.506 159.5,298.5C 158.975,299.192 158.308,299.692 157.5,300C 158.667,300.5 159.5,301.333 160,302.5C 161.032,309.2 160.032,315.533 157,321.5C 156.722,320.584 156.222,319.918 155.5,319.5 Z"/></g>
<g><path style="opacity:1" fill="#303D4B" d="M 217.5,294.5 C 215.192,298.041 214.025,302.041 214,306.5C 213.764,304.236 213.264,302.069 212.5,300C 209.223,300.201 205.889,300.368 202.5,300.5C 202.5,299.167 202.5,297.833 202.5,296.5C 201.5,296.5 200.5,296.5 199.5,296.5C 205.274,295.054 211.274,294.388 217.5,294.5 Z"/></g>
<g><path style="opacity:1" fill="#446F99" d="M 179.5,298.5 C 180.376,298.369 181.043,298.702 181.5,299.5C 176.118,301.608 171.284,304.608 167,308.5C 164.952,313.765 163.286,319.098 162,324.5C 162.292,317.871 163.792,311.538 166.5,305.5C 169.511,300.826 173.845,298.493 179.5,298.5 Z"/></g>
<g><path style="opacity:1" fill="#000000" d="M 196.5,299.5 C 196.66,301.199 196.494,302.866 196,304.5C 193.26,303.718 190.426,303.218 187.5,303C 190.167,302.667 192.833,302.333 195.5,302C 190.635,301.202 190.969,300.368 196.5,299.5 Z"/></g>
<g><path style="opacity:1" fill="#000000" d="M 202.5,300.5 C 204.969,301.317 207.635,301.817 210.5,302C 207.854,302.497 205.187,302.664 202.5,302.5C 201.474,305.397 201.474,304.73 202.5,300.5 Z"/></g>
<g><path style="opacity:1" fill="#fec90d" d="M 242.5,304.5 C 243.609,304.557 244.609,304.89 245.5,305.5C 245.631,306.239 245.464,306.906 245,307.5C 243.698,308.085 242.531,308.751 241.5,309.5C 238.556,308.371 238.223,307.038 240.5,305.5C 241.492,305.672 242.158,305.338 242.5,304.5 Z"/></g>
<g><path style="opacity:1" fill="#B0901E" d="M 245.5,305.5 C 246.568,304.566 247.901,304.232 249.5,304.5C 249.5,305.833 249.5,307.167 249.5,308.5C 248.5,308.5 247.5,308.5 246.5,308.5C 246.737,307.209 246.404,306.209 245.5,305.5 Z"/></g>
<g><path style="opacity:1" fill="#fec90d" d="M 246.5,320.5 C 246.662,318.176 247.828,316.509 250,315.5C 250.175,311.789 250.675,308.122 251.5,304.5C 252.5,304.833 253.167,305.5 253.5,306.5C 252.756,309.443 252.256,312.443 252,315.5C 251.563,318.772 249.73,320.439 246.5,320.5 Z"/></g>
<g><path style="opacity:1" fill="#962531" d="M 245.5,305.5 C 246.404,306.209 246.737,307.209 246.5,308.5C 243.982,312.62 243.982,316.62 246.5,320.5C 246.179,322.048 245.179,322.715 243.5,322.5C 242.506,319.184 241.506,315.851 240.5,312.5C 240.685,311.416 241.018,310.416 241.5,309.5C 242.531,308.751 243.698,308.085 245,307.5C 245.464,306.906 245.631,306.239 245.5,305.5 Z"/></g>
<g><path style="opacity:1" fill="#000000" d="M 200.5,318.5 C 203.572,318.817 206.572,318.484 209.5,317.5C 208.311,316.571 206.978,316.238 205.5,316.5C 207.518,315.953 209.351,314.953 211,313.5C 211.5,314.667 212.333,315.5 213.5,316C 210.332,316.582 209.999,317.582 212.5,319C 211.552,319.483 210.552,319.649 209.5,319.5C 209.167,323.5 208.833,323.5 208.5,319.5C 205.615,319.806 202.948,319.473 200.5,318.5 Z"/></g>
<g><path style="opacity:1" fill="#000000" d="M 205.5,316.5 C 203.833,317.167 202.167,317.833 200.5,318.5C 198.801,318.66 197.134,318.494 195.5,318C 198.619,316.595 201.952,316.095 205.5,316.5 Z"/></g>
<g><path style="opacity:1" fill="#4780B4" d="M 205.5,316.5 C 206.978,316.238 208.311,316.571 209.5,317.5C 206.572,318.484 203.572,318.817 200.5,318.5C 202.167,317.833 203.833,317.167 205.5,316.5 Z"/></g>
<g><path style="opacity:1" fill="#DFD7AD" d="M 155.5,319.5 C 156.167,321.819 156.334,324.153 156,326.5C 154.274,327.576 152.441,327.743 150.5,327C 150.297,324.335 149.63,321.502 148.5,318.5C 148.863,317.817 149.196,317.15 149.5,316.5C 150.738,315.588 152.072,315.421 153.5,316C 152.833,316.333 152.167,316.667 151.5,317C 153.133,317.48 154.466,318.313 155.5,319.5 Z"/></g>
<g><path style="opacity:1" fill="#000000" d="M 185.5,319.5 C 192.108,319.271 192.608,319.937 187,321.5C 185.97,321.164 185.47,320.497 185.5,319.5 Z"/></g>
<g><path style="opacity:1" fill="#324255" d="M 212.5,347.5 C 211.671,348.332 210.838,347.999 210,346.5C 208.404,343.631 206.57,340.964 204.5,338.5C 207.171,335.839 210.171,333.506 213.5,331.5C 214.308,331.808 214.975,332.308 215.5,333C 210.207,336.967 209.207,341.8 212.5,347.5 Z"/></g>
<g><path style="opacity:1" fill="#fec90d" d="M 158.5,340.5 C 162.908,340.062 164.575,342.062 163.5,346.5C 158.489,346.666 153.489,346.499 148.5,346C 151.985,344.245 155.319,342.412 158.5,340.5 Z"/></g>
<g><path style="opacity:1" fill="#345472" d="M 199.5,344.5 C 194.077,359.103 189.077,373.77 184.5,388.5C 180.769,378.964 180.602,369.298 184,359.5C 189.009,354.324 194.175,349.324 199.5,344.5 Z"/></g>
<g><path style="opacity:1" fill="#334E68" d="M 219.5,351.5 C 222.666,353.834 225.333,356.667 227.5,360C 230.014,361.757 232.681,363.257 235.5,364.5C 233.102,365.724 230.769,365.558 228.5,364C 224.869,360.215 221.869,356.049 219.5,351.5 Z"/></g>
<g><path style="opacity:1" fill="#345472" d="M 163.5,372.5 C 163.517,370.435 163.85,368.435 164.5,366.5C 168.199,364.981 171.532,362.814 174.5,360C 176.5,359.333 178.5,359.333 180.5,360C 174.448,363.688 168.782,367.854 163.5,372.5 Z"/></g>
<g><path style="opacity:1" fill="#345270" d="M 244.5,441.5 C 244.119,446.237 243.286,450.904 242,455.5C 241.667,446.5 241.333,437.5 241,428.5C 237.001,418.549 235.501,408.216 236.5,397.5C 240.647,394.76 244.981,392.593 249.5,391C 240.238,398.21 237.571,407.377 241.5,418.5C 245.164,407.503 249.664,396.836 255,386.5C 255.566,393.511 255.4,400.511 254.5,407.5C 255.543,421.182 256.376,434.849 257,448.5C 254.548,442.476 251.715,436.643 248.5,431C 248,430.833 247.5,430.667 247,430.5C 245.726,431.535 244.56,432.702 243.5,434C 244.435,436.381 244.768,438.881 244.5,441.5 Z"/></g>
<g><path style="opacity:1" fill="#345472" d="M 182.5,396.5 C 182.795,398.735 182.461,400.735 181.5,402.5C 176.474,405.403 171.141,406.07 165.5,404.5C 171.336,402.081 177.002,399.414 182.5,396.5 Z"/></g>
<g><path style="opacity:1" fill="#345472" d="M 180.5,413.5 C 179.602,426.141 179.268,438.808 179.5,451.5C 172.592,450.883 169.259,447.049 169.5,440C 171.708,433.971 173.542,427.804 175,421.5C 176.116,418.244 177.949,415.578 180.5,413.5 Z"/></g>
<g><path style="opacity:1" fill="#3B3C3B" d="M 244.5,452.5 C 245.601,453.848 246.601,455.348 247.5,457C 252.362,457.692 257.195,457.525 262,456.5C 265.03,459.273 268.53,461.44 272.5,463C 265.77,470.678 257.77,472.344 248.5,468C 246.913,467.138 245.246,466.471 243.5,466C 242.978,465.439 242.645,464.772 242.5,464C 244.185,460.362 244.851,456.529 244.5,452.5 Z"/></g>
</svg>
