<?xml version="1.0" encoding="UTF-8"?>
<!DOCTYPE svg PUBLIC "-//W3C//DTD SVG 1.1//EN" "http://www.w3.org/Graphics/SVG/1.1/DTD/svg11.dtd">
<svg xmlns="http://www.w3.org/2000/svg" version="1.1" width="495px" height="500px" style="shape-rendering:geometricPrecision; text-rendering:geometricPrecision; image-rendering:optimizeQuality; fill-rule:evenodd; clip-rule:evenodd" xmlns:xlink="http://www.w3.org/1999/xlink">
<g><path style="opacity:1" fill="#fefffe" d="M 168.5,68.5 C 201.452,63.3441 217.786,77.3441 217.5,110.5C 217.476,113.421 217.143,116.254 216.5,119C 218,121.167 219.5,123.333 221,125.5C 228.844,129.332 237.01,132.499 245.5,135C 253.673,143.174 261.507,151.674 269,160.5C 269.333,164.167 269.667,167.833 270,171.5C 274,175.5 278,179.5 282,183.5C 282.982,188.126 283.816,192.792 284.5,197.5C 286.432,198.52 288.432,198.687 290.5,198C 292.5,195 294.5,192 296.5,189C 299.833,188.333 303.167,188.333 306.5,189C 310.5,191.333 314.5,193.667 318.5,196C 319.141,198.578 319.475,201.245 319.5,204C 319.516,208.971 318.849,213.804 317.5,218.5C 325.202,218.431 332.869,218.931 340.5,220C 347.142,222.269 353.808,224.436 360.5,226.5C 367.712,224.486 374.712,221.986 381.5,219C 394.368,216.32 406.701,217.654 418.5,223C 423.184,227.004 428.184,230.504 433.5,233.5C 435.074,236.729 436.741,239.896 438.5,243C 441.095,243.226 443.595,243.726 446,244.5C 447.21,249.421 449.376,253.921 452.5,258C 456.531,260.016 460.531,262.016 464.5,264C 464.997,267.415 466.664,270.082 469.5,272C 473.797,273.081 478.13,274.081 482.5,275C 484.974,278.775 487.807,282.275 491,285.5C 491.824,288.882 491.657,292.216 490.5,295.5C 484.073,296.008 477.739,296.342 471.5,296.5C 471.67,297.822 471.337,298.989 470.5,300C 463.392,300.826 456.392,300.326 449.5,298.5C 446.456,299.719 443.289,300.386 440,300.5C 432.489,298.662 424.989,296.829 417.5,295C 415.697,294.363 414.364,293.197 413.5,291.5C 411.577,290.692 409.577,290.192 407.5,290C 404.632,284.804 400.798,280.638 396,277.5C 393.831,268.973 389.498,261.64 383,255.5C 385.465,271.912 382.465,287.246 374,301.5C 369.312,310.23 362.812,317.23 354.5,322.5C 347.377,328.812 345.544,336.479 349,345.5C 351.333,350.167 353.667,354.833 356,359.5C 356.667,363.5 356.667,367.5 356,371.5C 344.598,383.896 333.598,396.563 323,409.5C 321.607,413.286 319.941,416.952 318,420.5C 315.776,422.054 313.276,423.054 310.5,423.5C 309.236,426.79 308.07,430.124 307,433.5C 305.681,435.487 303.848,436.654 301.5,437C 296.167,437.667 290.833,437.667 285.5,437C 283.254,435.961 281.087,434.794 279,433.5C 278.828,429.129 278.328,424.796 277.5,420.5C 272.889,421.61 268.222,421.777 263.5,421C 262.667,420.167 261.833,419.333 261,418.5C 258.762,405.908 261.428,394.575 269,384.5C 270.197,381.911 271.197,379.244 272,376.5C 276.41,373.852 281.243,372.352 286.5,372C 294.009,367.745 301.676,363.745 309.5,360C 311.584,358.499 312.917,356.499 313.5,354C 312.589,350.855 311.755,347.688 311,344.5C 307.067,346.478 302.9,346.978 298.5,346C 294.78,340.052 290.947,334.218 287,328.5C 275.043,333.632 262.543,335.799 249.5,335C 242.78,338.687 235.614,339.521 228,337.5C 221.663,339.483 215.497,341.983 209.5,345C 202.637,353.86 194.471,361.36 185,367.5C 182.976,369.334 183.142,371.001 185.5,372.5C 193.427,377.329 201.594,381.329 210,384.5C 213.585,381.472 217.752,380.139 222.5,380.5C 225.948,380.005 228.781,381.005 231,383.5C 234.053,386.887 236.72,390.553 239,394.5C 239.825,398.211 239.659,401.878 238.5,405.5C 233.699,406.234 229.366,408.067 225.5,411C 218.715,412.331 212.382,411.331 206.5,408C 202.167,407.667 197.833,407.333 193.5,407C 183.44,399.969 172.773,393.969 161.5,389C 151.693,381.999 148.193,372.499 151,360.5C 157.256,354.566 162.423,347.732 166.5,340C 155.268,338.308 145.435,341.141 137,348.5C 135.245,351.6 134.411,354.933 134.5,358.5C 136.101,363.71 137.101,369.043 137.5,374.5C 140.649,374.211 143.649,374.711 146.5,376C 153.265,381.984 155.432,389.484 153,398.5C 152.764,400.764 152.264,402.931 151.5,405C 148.5,405.667 145.5,405.667 142.5,405C 137.157,402.994 131.823,400.994 126.5,399C 123.691,393.359 119.357,389.193 113.5,386.5C 112.334,367.175 112.167,347.842 113,328.5C 113.936,324.793 115.769,321.626 118.5,319C 127.276,316.742 135.942,314.075 144.5,311C 145.798,306.882 145.798,302.715 144.5,298.5C 137.094,301.284 129.761,301.117 122.5,298C 115.261,291.098 108.428,283.931 102,276.5C 92.2465,277.579 82.7465,277.579 73.5,276.5C 69.4938,276.85 66.4938,275.35 64.5,272C 60.8333,271.667 57.1667,271.333 53.5,271C 51.8654,267.11 50.0321,263.276 48,259.5C 47.3333,255.5 47.3333,251.5 48,247.5C 55.2126,231.405 64.2126,216.405 75,202.5C 74.6,195.577 77.7666,191.743 84.5,191C 87.0796,187.842 89.4129,184.508 91.5,181C 95.5,180.333 99.5,180.333 103.5,181C 105.002,183.574 106.002,186.407 106.5,189.5C 109.994,187.921 113.327,186.087 116.5,184C 120.167,183.333 123.833,183.333 127.5,184C 131.099,188.294 135.099,188.627 139.5,185C 145.491,184.501 151.491,184.334 157.5,184.5C 157.5,185.833 157.5,187.167 157.5,188.5C 161.5,188.5 165.5,188.5 169.5,188.5C 169.5,189.5 169.5,190.5 169.5,191.5C 174.222,191.848 178.889,192.515 183.5,193.5C 183.284,189.941 183.618,186.441 184.5,183C 182.595,177.64 182.095,172.14 183,166.5C 183.574,164.508 184.741,163.008 186.5,162C 177.833,161.333 169.167,160.667 160.5,160C 158.481,159.55 156.648,158.717 155,157.5C 152.958,159.604 150.458,160.771 147.5,161C 139.612,162.587 132.446,161.087 126,156.5C 125.007,153.692 124.173,150.859 123.5,148C 87.6835,136.061 52.0168,123.728 16.5,111C 10.83,107.272 8.99672,102.106 11,95.5C 14.4085,94.3781 17.9085,94.2114 21.5,95C 57.0912,106.975 92.5912,119.141 128,131.5C 128.273,129.671 129.107,128.171 130.5,127C 133.833,126.333 137.167,126.333 140.5,127C 141.886,128.603 143.719,129.437 146,129.5C 151.722,130.071 157.389,130.404 163,130.5C 175.146,129.278 175.312,127.945 163.5,126.5C 162.448,121.462 163.948,117.462 168,114.5C 168.227,108.296 168.727,102.129 169.5,96C 168.899,94.395 167.899,93.0616 166.5,92C 163.833,91.6667 161.167,91.3333 158.5,91C 153.011,79.3029 156.344,71.8029 168.5,68.5 Z M 119.5,244.5 C 124.021,244.326 124.355,244.993 120.5,246.5C 119.702,246.043 119.369,245.376 119.5,244.5 Z M 128.5,257.5 C 130.233,258.008 130.566,258.841 129.5,260C 127.833,260.667 126.167,260.667 124.5,260C 126.066,259.392 127.4,258.558 128.5,257.5 Z M 135.5,272.5 C 138.954,273.792 141.288,276.292 142.5,280C 140.049,282.398 137.382,284.564 134.5,286.5C 130.348,282.849 126.348,279.016 122.5,275C 126.988,274.24 131.322,273.406 135.5,272.5 Z M 294.5,398.5 C 293.25,401.067 292.083,403.733 291,406.5C 290.333,404.167 290.333,401.833 291,399.5C 292.011,398.663 293.178,398.33 294.5,398.5 Z"/></g>
<g><path style="opacity:1" fill="#000000" d="M 170.5,70.5 C 200.632,66.81 215.632,80.1434 215.5,110.5C 215.333,112.5 215.167,114.5 215,116.5C 214.682,118.061 213.849,119.228 212.5,120C 215.48,122.651 218.147,125.651 220.5,129C 228.092,131.864 235.758,134.531 243.5,137C 251.673,145.174 259.507,153.674 267,162.5C 267.482,165.907 267.482,169.24 267,172.5C 271.333,176.833 275.667,181.167 280,185.5C 280.982,190.126 281.816,194.792 282.5,199.5C 285.773,200.585 289.106,200.752 292.5,200C 294.458,197.252 296.291,194.418 298,191.5C 299.062,190.903 300.228,190.57 301.5,190.5C 306.815,192.301 311.815,194.801 316.5,198C 318.23,203.634 317.564,208.968 314.5,214C 315.435,216.381 315.768,218.881 315.5,221.5C 323.171,220.332 330.837,220.498 338.5,222C 346,224.5 353.5,227 361,229.5C 368.622,226.85 376.122,224.017 383.5,221C 394.218,218.784 404.551,219.784 414.5,224C 419.855,228.34 425.521,232.174 431.5,235.5C 433.074,238.729 434.741,241.896 436.5,245C 438.833,245.333 441.167,245.667 443.5,246C 444.385,250.562 446.219,254.729 449,258.5C 453.29,261.395 457.79,263.895 462.5,266C 464.508,273.521 469.508,276.855 477.5,276C 479.329,276.273 480.829,277.107 482,278.5C 483.608,282.043 485.942,285.043 489,287.5C 489.808,289.579 489.641,291.579 488.5,293.5C 482.204,293.192 475.871,293.525 469.5,294.5C 469.67,295.822 469.337,296.989 468.5,298C 462.099,298.56 455.765,298.06 449.5,296.5C 446.317,297.087 443.151,297.754 440,298.5C 433.251,296.249 426.418,294.416 419.5,293C 417.697,292.363 416.364,291.197 415.5,289.5C 413.577,288.692 411.577,288.192 409.5,288C 406.632,282.804 402.798,278.638 398,275.5C 393.843,263.221 386.676,252.887 376.5,244.5C 376.167,245 375.833,245.5 375.5,246C 382.186,258.603 383.353,271.77 379,285.5C 374.894,295.263 369.56,304.263 363,312.5C 355.957,316.842 350.29,322.509 346,329.5C 344.44,341.3 347.107,351.967 354,361.5C 354.667,364.167 354.667,366.833 354,369.5C 342.598,381.896 331.598,394.563 321,407.5C 319.607,411.286 317.941,414.952 316,418.5C 313.776,420.054 311.276,421.054 308.5,421.5C 307.236,424.79 306.07,428.124 305,431.5C 303.681,433.487 301.848,434.654 299.5,435C 293.078,436.301 287.078,435.301 281.5,432C 280.254,427.51 280.42,423.01 282,418.5C 289.545,414.622 294.545,408.622 297,400.5C 301.333,396.167 305.667,391.833 310,387.5C 310.688,386.668 310.521,386.002 309.5,385.5C 303.515,390.993 296.682,394.993 289,397.5C 290.293,411.217 283.96,418.551 270,419.5C 267.019,419.919 264.686,418.919 263,416.5C 262.039,409.664 262.705,402.997 265,396.5C 268.527,390.779 271.527,384.779 274,378.5C 278.41,375.852 283.243,374.352 288.5,374C 296.009,369.745 303.676,365.745 311.5,362C 313.924,359.822 315.59,357.155 316.5,354C 314.923,349.524 313.423,345.024 312,340.5C 308.816,343.844 304.982,345.011 300.5,344C 296.375,337.584 292.375,331.084 288.5,324.5C 275.672,331.195 262.005,334.028 247.5,333C 245.833,334 244.167,335 242.5,336C 236.409,336.456 230.409,336.122 224.5,335C 219.016,337.907 213.349,340.574 207.5,343C 200.637,351.86 192.471,359.36 183,365.5C 182.365,366.966 181.531,368.3 180.5,369.5C 181.167,370.833 181.833,372.167 182.5,373.5C 191.129,379.19 200.129,383.856 209.5,387.5C 214.497,383.445 220.164,381.945 226.5,383C 229.667,386.833 232.833,390.667 236,394.5C 237.632,397.423 237.799,400.423 236.5,403.5C 231.699,404.234 227.366,406.067 223.5,409C 218.023,410.173 213.023,409.173 208.5,406C 204.167,405.667 199.833,405.333 195.5,405C 185.44,397.969 174.773,391.969 163.5,387C 154.405,381.304 150.905,373.137 153,362.5C 160.158,355.378 165.992,347.211 170.5,338C 159.312,336.685 148.645,338.352 138.5,343C 133.855,347.096 131.855,352.263 132.5,358.5C 133.504,364.505 134.504,370.505 135.5,376.5C 138.649,376.211 141.649,376.711 144.5,378C 151.999,384.993 153.666,393.326 149.5,403C 147.833,403.667 146.167,403.667 144.5,403C 139.157,400.994 133.823,398.994 128.5,397C 125.691,391.359 121.357,387.193 115.5,384.5C 114.334,366.509 114.167,348.509 115,330.5C 115.936,326.793 117.769,323.626 120.5,321C 129.276,318.742 137.942,316.075 146.5,313C 147.167,312.333 147.833,311.667 148.5,311C 147.869,309.094 147.536,307.094 147.5,305C 148.273,300.364 149.106,295.864 150,291.5C 138.512,301.41 127.679,300.743 117.5,289.5C 113.381,284.759 109.381,279.926 105.5,275C 103.567,274.749 101.734,274.249 100,273.5C 99.5,274 99,274.5 98.5,275C 92.1193,275.998 85.9526,275.498 80,273.5C 74.5068,275.67 70.0068,274.503 66.5,270C 62.8333,269.667 59.1667,269.333 55.5,269C 53.2014,263.936 51.2014,258.769 49.5,253.5C 49.6667,252.167 49.8333,250.833 50,249.5C 57.2126,233.405 66.2126,218.405 77,204.5C 76.6,197.577 79.7666,193.743 86.5,193C 89.0796,189.842 91.4129,186.508 93.5,183C 102.198,181.031 105.698,184.531 104,193.5C 109.927,190.534 115.927,187.867 122,185.5C 125.834,187.792 130.001,189.459 134.5,190.5C 140.967,186.861 147.967,185.528 155.5,186.5C 155.5,188.167 155.5,189.833 155.5,191.5C 159.452,190.728 163.452,190.395 167.5,190.5C 167.5,191.5 167.5,192.5 167.5,193.5C 172.526,194.007 177.526,194.674 182.5,195.5C 182.5,197.5 182.5,199.5 182.5,201.5C 185.261,202.085 186.927,201.085 187.5,198.5C 184.921,193.137 184.921,187.804 187.5,182.5C 183.655,176.447 183.655,170.447 187.5,164.5C 191.401,160.814 195.401,160.648 199.5,164C 201.735,168.997 202.068,174.164 200.5,179.5C 202.46,181.156 204.46,182.823 206.5,184.5C 207.5,184.167 208.167,183.5 208.5,182.5C 207.243,180.321 205.743,178.321 204,176.5C 203.737,171.983 202.737,167.649 201,163.5C 199.745,162.789 198.579,161.956 197.5,161C 190.201,159.98 182.868,159.313 175.5,159C 174.391,158.362 173.225,157.862 172,157.5C 165.38,159.528 159.546,158.195 154.5,153.5C 152.462,156.855 149.462,158.688 145.5,159C 138.975,160.077 133.141,158.577 128,154.5C 127.007,151.692 126.173,148.859 125.5,146C 90.4254,134.197 55.4254,122.197 20.5,110C 16.5029,107.846 13.8362,104.679 12.5,100.5C 12.5698,99.2284 12.9032,98.0617 13.5,97C 15.5,96.3333 17.5,96.3333 19.5,97C 56.0912,109.308 92.5912,121.808 129,134.5C 129.983,132.552 131.15,130.718 132.5,129C 133.5,128.833 134.5,128.667 135.5,128.5C 140.998,130.841 146.831,132.508 153,133.5C 155,132.833 157,132.167 159,131.5C 162.467,132.513 165.967,132.513 169.5,131.5C 173.86,131.842 177.86,133.175 181.5,135.5C 182.293,134.645 181.96,133.811 180.5,133C 178.564,132.187 176.564,131.687 174.5,131.5C 174.5,129.5 174.5,127.5 174.5,125.5C 171.482,125.296 168.482,124.963 165.5,124.5C 165.446,121.033 166.946,118.366 170,116.5C 170.333,110.833 170.667,105.167 171,99.5C 171.833,98.6667 172.667,97.8333 173.5,97C 171.463,90.6343 167.13,87.9676 160.5,89C 157.115,82.849 158.115,77.5157 163.5,73C 166.104,72.6097 168.438,71.7763 170.5,70.5 Z M 119.5,244.5 C 119.369,245.376 119.702,246.043 120.5,246.5C 124.355,244.993 124.021,244.326 119.5,244.5 Z M 128.5,257.5 C 127.4,258.558 126.066,259.392 124.5,260C 126.167,260.667 127.833,260.667 129.5,260C 130.566,258.841 130.233,258.008 128.5,257.5 Z M 135.5,272.5 C 131.322,273.406 126.988,274.24 122.5,275C 126.348,279.016 130.348,282.849 134.5,286.5C 137.382,284.564 140.049,282.398 142.5,280C 141.288,276.292 138.954,273.792 135.5,272.5 Z M 294.5,398.5 C 293.178,398.33 292.011,398.663 291,399.5C 290.333,401.833 290.333,404.167 291,406.5C 292.083,403.733 293.25,401.067 294.5,398.5 Z"/></g>
<g><path style="opacity:1" fill="#d7171f" d="M 173.5,74.5 C 193.145,71.9858 205.312,80.3191 210,99.5C 210.318,103.195 210.818,106.862 211.5,110.5C 211.224,112.33 210.557,113.997 209.5,115.5C 207.313,108.659 205.813,101.659 205,94.5C 201.808,85.3134 195.308,80.6467 185.5,80.5C 180.175,80.1605 175.508,81.6605 171.5,85C 161.823,86.8685 160.157,84.2018 166.5,77C 169.104,76.6097 171.438,75.7763 173.5,74.5 Z"/></g>
<g><path style="opacity:1" fill="#fec90d" d="M 181.5,82.5 C 192.65,81.9935 199.983,86.9935 203.5,97.5C 203.167,97.8333 202.833,98.1667 202.5,98.5C 194.023,92.8343 185.857,93.1676 178,99.5C 177.896,94.9622 176.396,90.9622 173.5,87.5C 175.601,84.7901 178.267,83.1234 181.5,82.5 Z"/></g>
<g><path style="opacity:1" fill="#c2c3c2" d="M 19.5,103.5 C 19.7352,102.903 20.2352,102.57 21,102.5C 57.7207,114.684 94.2207,127.351 130.5,140.5C 130.192,141.308 129.692,141.975 129,142.5C 95.5912,130.808 62.0912,119.308 28.5,108C 25.2155,106.967 22.2155,105.467 19.5,103.5 Z"/></g>
<g><path style="opacity:1" fill="#fec90d" d="M 174.5,107.5 C 182.875,107.316 191.208,107.816 199.5,109C 202.797,111.295 205.797,113.962 208.5,117C 197.212,116.969 185.879,117.136 174.5,117.5C 174.5,114.167 174.5,110.833 174.5,107.5 Z"/></g>
<g><path style="opacity:1" fill="#f9a884" d="M 194.5,117.5 C 197.243,117.077 198.576,118.244 198.5,121C 198.251,123.664 197.085,125.831 195,127.5C 194.782,124.574 194.282,121.74 193.5,119C 194.056,118.617 194.389,118.117 194.5,117.5 Z"/></g>
<g><path style="opacity:1" fill="#fec90d" d="M 190.5,118.5 C 192.047,123.909 193.547,129.576 195,135.5C 195.667,137.5 195.667,139.5 195,141.5C 192.446,135.366 190.113,129.032 188,122.5C 187.167,121.667 186.333,120.833 185.5,120C 187.382,119.802 189.048,119.302 190.5,118.5 Z"/></g>
<g><path style="opacity:1" fill="#a70019" d="M 201.5,125.5 C 199.832,123.521 199.166,121.188 199.5,118.5C 202.167,118.5 204.833,118.5 207.5,118.5C 208.377,122.91 206.877,126.243 203,128.5C 202.768,127.263 202.268,126.263 201.5,125.5 Z"/></g>
<g><path style="opacity:1" fill="#000000" d="M 196.5,120.5 C 197.465,121.721 197.298,123.054 196,124.5C 195.421,123.072 195.588,121.738 196.5,120.5 Z"/></g>
<g><path style="opacity:1" fill="#fa9f78" d="M 181.5,121.5 C 183.371,121.859 184.871,122.859 186,124.5C 187.164,127.481 187.831,130.481 188,133.5C 184.969,130.771 181.469,129.105 177.5,128.5C 177.238,127.022 177.571,125.689 178.5,124.5C 179.855,123.812 180.855,122.812 181.5,121.5 Z"/></g>
<g><path style="opacity:1" fill="#f9a884" d="M 201.5,125.5 C 201.528,129.155 199.861,131.822 196.5,133.5C 195.369,131.926 195.202,130.259 196,128.5C 197.385,127.449 198.385,126.116 199,124.5C 199.671,125.252 200.504,125.586 201.5,125.5 Z"/></g>
<g><path style="opacity:1" fill="#fef200" d="M 210.5,125.5 C 211.688,127.496 211.021,128.329 208.5,128C 209.381,127.292 210.047,126.458 210.5,125.5 Z"/></g>
<g><path style="opacity:1" fill="#f14423" d="M 213.5,135.5 C 210.833,137.5 208.5,139.833 206.5,142.5C 205.312,143.684 204.145,143.684 203,142.5C 201.699,140.635 201.365,138.635 202,136.5C 205.358,133.642 208.858,130.975 212.5,128.5C 215.727,130.562 216.06,132.895 213.5,135.5 Z"/></g>
<g><path style="opacity:1" fill="#fef200" d="M 204.5,130.5 C 205.239,130.369 205.906,130.536 206.5,131C 205.534,132.678 204.201,133.345 202.5,133C 203.381,132.292 204.047,131.458 204.5,130.5 Z"/></g>
<g><path style="opacity:1" fill="#c2c3c2" d="M 146.5,149.5 C 147.167,149.167 147.833,148.833 148.5,148.5C 149.905,151.414 148.905,153.247 145.5,154C 134.253,155.918 129.587,151.418 131.5,140.5C 133.194,138.446 134.361,136.112 135,133.5C 137.064,137.527 136.397,141.194 133,144.5C 131.959,147.636 132.793,150.136 135.5,152C 139.152,152.499 142.818,152.665 146.5,152.5C 146.5,151.5 146.5,150.5 146.5,149.5 Z"/></g>
<g><path style="opacity:1" fill="#c7b676" d="M 249.5,151.5 C 245.224,148.687 240.89,145.854 236.5,143C 216.278,133.022 205.445,139.189 204,161.5C 203.131,159.419 202.631,157.253 202.5,155C 202.842,150.449 204.175,146.282 206.5,142.5C 209.833,141.167 212.167,138.833 213.5,135.5C 215.156,134.854 216.823,134.187 218.5,133.5C 225.392,136.297 232.392,138.797 239.5,141C 242.982,144.316 246.315,147.816 249.5,151.5 Z"/></g>
<g><path style="opacity:1" fill="#fec90d" d="M 148.5,148.5 C 148.5,147.833 148.5,147.167 148.5,146.5C 152.083,142.738 155.583,138.738 159,134.5C 159.51,139.638 158.01,144.138 154.5,148C 152.527,148.495 150.527,148.662 148.5,148.5 Z"/></g>
<g><path style="opacity:1" fill="#c7b676" d="M 148.5,146.5 C 147.094,146.973 146.427,147.973 146.5,149.5C 145.596,148.791 145.263,147.791 145.5,146.5C 141.196,145.18 137.196,145.18 133.5,146.5C 136.248,143.339 137.581,139.673 137.5,135.5C 143.272,135.59 148.938,136.423 154.5,138C 152.121,140.599 150.121,143.433 148.5,146.5 Z"/></g>
<g><path style="opacity:1" fill="#c7b676" d="M 168.5,135.5 C 169.552,135.351 170.552,135.517 171.5,136C 166.864,140.835 165.197,146.668 166.5,153.5C 162.737,152.748 159.404,151.081 156.5,148.5C 158.839,144.816 160.172,140.816 160.5,136.5C 163.385,136.806 166.052,136.473 168.5,135.5 Z"/></g>
<g><path style="opacity:1" fill="#f9a884" d="M 189.5,135.5 C 191.441,137.011 191.941,139.011 191,141.5C 189.681,139.75 189.181,137.75 189.5,135.5 Z"/></g>
<g><path style="opacity:1" fill="#fef200" d="M 199.5,135.5 C 200.532,138.02 201.032,140.686 201,143.5C 197.626,141.1 197.126,138.433 199.5,135.5 Z"/></g>
<g><path style="opacity:1" fill="#000000" d="M 213.5,135.5 C 212.167,138.833 209.833,141.167 206.5,142.5C 208.5,139.833 210.833,137.5 213.5,135.5 Z"/></g>
<g><path style="opacity:1" fill="#008cc9" d="M 175.5,153.5 C 172.93,151.386 170.597,149.053 168.5,146.5C 169.188,142.465 171.355,139.465 175,137.5C 178.95,139.365 183.117,140.699 187.5,141.5C 187.709,142.086 188.043,142.586 188.5,143C 194.462,142.589 199.129,144.756 202.5,149.5C 201.94,151.854 201.273,154.187 200.5,156.5C 197.849,154.35 195.349,152.017 193,149.5C 193.329,151.805 194.495,153.805 196.5,155.5C 194.534,156.372 192.534,156.205 190.5,155C 189.12,153.075 187.62,151.241 186,149.5C 186.222,151.456 187.055,153.29 188.5,155C 186.5,155.667 184.5,155.667 182.5,155C 179.804,149.77 178.637,149.603 179,154.5C 177.989,153.663 176.822,153.33 175.5,153.5 Z"/></g>
<g><path style="opacity:1" fill="#008cc9" d="M 236.5,156.5 C 243.35,153.32 243.017,151.987 235.5,152.5C 234.217,150.132 232.55,147.965 230.5,146C 229.517,145.409 228.85,145.743 228.5,147C 231.624,151.357 233.79,156.191 235,161.5C 235.17,170.019 236.504,178.352 239,186.5C 241.236,194.163 238.569,198.83 231,200.5C 225.855,199.829 220.688,199.662 215.5,200C 213.163,195.815 212.163,191.315 212.5,186.5C 214.685,186.296 216.685,185.63 218.5,184.5C 218.982,183.584 219.315,182.584 219.5,181.5C 217.172,177.699 215.838,173.532 215.5,169C 215.833,167.833 216.167,166.667 216.5,165.5C 221.292,163.201 225.959,160.701 230.5,158C 225.308,159.148 220.474,161.315 216,164.5C 215.818,161.774 215.318,159.107 214.5,156.5C 213.336,162.472 213.17,168.472 214,174.5C 214.306,176.906 215.139,179.073 216.5,181C 215.991,182.169 215.158,183.002 214,183.5C 213.667,181.833 213.333,180.167 213,178.5C 208.463,175.436 205.963,171.102 205.5,165.5C 205.273,156.335 208.273,148.502 214.5,142C 227.972,140.884 239.305,145.384 248.5,155.5C 247.167,158.833 247.167,162.167 248.5,165.5C 245.638,168.188 242.472,170.521 239,172.5C 237.648,170.406 237.148,168.073 237.5,165.5C 241.5,165.167 241.5,164.833 237.5,164.5C 237.5,163.5 237.5,162.5 237.5,161.5C 245.473,161.326 245.473,160.826 237.5,160C 236.663,158.989 236.33,157.822 236.5,156.5 Z"/></g>
<g><path style="opacity:1" fill="#000000" d="M 148.5,146.5 C 148.5,147.167 148.5,147.833 148.5,148.5C 147.833,148.833 147.167,149.167 146.5,149.5C 146.427,147.973 147.094,146.973 148.5,146.5 Z"/></g>
<g><path style="opacity:1" fill="#121541" d="M 168.5,146.5 C 170.597,149.053 172.93,151.386 175.5,153.5C 173.236,152.781 170.903,152.448 168.5,152.5C 168.5,150.5 168.5,148.5 168.5,146.5 Z"/></g>
<g><path style="opacity:1" fill="#c7b676" d="M 249.5,151.5 C 250.906,151.973 251.573,152.973 251.5,154.5C 250.094,154.027 249.427,153.027 249.5,151.5 Z"/></g>
<g><path style="opacity:1" fill="#121541" d="M 235.5,152.5 C 243.017,151.987 243.35,153.32 236.5,156.5C 235.766,155.292 235.433,153.959 235.5,152.5 Z"/></g>
<g><path style="opacity:1" fill="#c7b676" d="M 251.5,154.5 C 254.984,158.092 258.484,161.759 262,165.5C 262.563,166.725 262.23,167.725 261,168.5C 256.773,164.46 253.607,159.793 251.5,154.5 Z"/></g>
<g><path style="opacity:1" fill="#000000" d="M 222.5,155.5 C 223.552,155.351 224.552,155.517 225.5,156C 222.942,157.626 220.275,158.626 217.5,159C 219.233,157.811 220.9,156.644 222.5,155.5 Z"/></g>
<g><path style="opacity:1" fill="#8e0c11" d="M 249.5,158.5 C 255.335,162.551 258.835,167.885 260,174.5C 254.983,170.017 251.483,164.683 249.5,158.5 Z"/></g>
<g><path style="opacity:1" fill="#000000" d="M 245.5,163.5 C 246.043,163.56 246.376,163.893 246.5,164.5C 244.851,165.648 243.351,166.981 242,168.5C 242.112,166.203 243.278,164.536 245.5,163.5 Z"/></g>
<g><path style="opacity:1" fill="#b87a56" d="M 193.5,164.5 C 195.229,165.117 196.729,166.117 198,167.5C 198.692,172.891 198.359,178.225 197,183.5C 197.439,178.271 197.272,173.104 196.5,168C 194.559,167.257 192.726,167.424 191,168.5C 190.333,171.5 190.333,174.5 191,177.5C 192.751,179.212 193.418,181.212 193,183.5C 189.239,179.548 187.906,174.881 189,169.5C 190.025,167.313 191.525,165.646 193.5,164.5 Z"/></g>
<g><path style="opacity:1" fill="#fef200" d="M 247.5,172.5 C 245.5,173.167 243.5,173.833 241.5,174.5C 244.099,172.521 246.765,170.521 249.5,168.5C 249.833,168.667 250.167,168.833 250.5,169C 249.29,170.039 248.29,171.206 247.5,172.5 Z"/></g>
<g><path style="opacity:1" fill="#c81f20" d="M 251.5,172.5 C 250.415,174.587 248.749,175.92 246.5,176.5C 243.805,176.933 241.638,178.266 240,180.5C 239.833,180 239.667,179.5 239.5,179C 242.022,176.583 244.688,174.417 247.5,172.5C 249.371,172.141 250.871,171.141 252,169.5C 253.795,170.719 253.628,171.719 251.5,172.5 Z"/></g>
<g><path style="opacity:1" fill="#fef200" d="M 251.5,172.5 C 252.239,172.369 252.906,172.536 253.5,173C 249.762,176.184 246.095,179.351 242.5,182.5C 241.761,182.631 241.094,182.464 240.5,182C 242.396,179.932 244.396,178.099 246.5,176.5C 248.749,175.92 250.415,174.587 251.5,172.5 Z"/></g>
<g><path style="opacity:1" fill="#ec1c23" d="M 242.5,182.5 C 247.225,180.377 251.392,177.377 255,173.5C 256.5,175 258,176.5 259.5,178C 253.46,181.128 247.626,184.628 242,188.5C 241.322,186.402 241.489,184.402 242.5,182.5 Z"/></g>
<g><path style="opacity:1" fill="#fef200" d="M 241.5,174.5 C 240.998,176.085 239.998,176.585 238.5,176C 239.244,174.961 240.244,174.461 241.5,174.5 Z"/></g>
<g><path style="opacity:1" fill="#8e0c11" d="M 261.5,175.5 C 265.06,177.283 265.06,178.283 261.5,178.5C 261.5,177.5 261.5,176.5 261.5,175.5 Z"/></g>
<g><path style="opacity:1" fill="#008cca" d="M 266.5,186.5 C 262.793,188.688 259.46,191.355 256.5,194.5C 252.36,184.116 256.026,179.616 267.5,181C 268.167,181.667 268.833,182.333 269.5,183C 267.944,183.72 266.944,184.887 266.5,186.5 Z"/></g>
<g><path style="opacity:1" fill="#0b0718" d="M 226.5,182.5 C 229.897,182.737 231.73,184.404 232,187.5C 231.282,188.451 230.449,188.617 229.5,188C 227.393,186.736 226.393,184.903 226.5,182.5 Z"/></g>
<g><path style="opacity:1" fill="#c7b676" d="M 191.5,184.5 C 197.937,185.121 204.271,186.121 210.5,187.5C 210.317,192.599 211.317,197.433 213.5,202C 212.437,203.188 211.103,203.688 209.5,203.5C 209.719,202.325 209.386,201.325 208.5,200.5C 206.998,199.917 205.665,199.084 204.5,198C 200.259,198.246 196.092,198.08 192,197.5C 189.142,193.119 188.975,188.786 191.5,184.5 Z"/></g>
<g><path style="opacity:1" fill="#000000" d="M 218.5,184.5 C 220.612,185.44 222.612,186.606 224.5,188C 221.649,188.32 219.649,187.153 218.5,184.5 Z"/></g>
<g><path style="opacity:1" fill="#0c8dc9" d="M 256.5,194.5 C 257.167,194.5 257.833,194.5 258.5,194.5C 261.473,192.194 264.14,189.527 266.5,186.5C 267.756,186.096 268.923,185.429 270,184.5C 276.897,188.52 279.064,194.353 276.5,202C 270.483,204.459 264.817,203.959 259.5,200.5C 258.441,198.466 257.441,196.466 256.5,194.5 Z"/></g>
<g><path style="opacity:1" fill="#00a1e8" d="M 251.5,185.5 C 251.993,190.14 253.326,194.64 255.5,199C 250.865,198.805 248.865,196.305 249.5,191.5C 249.676,189.215 250.343,187.215 251.5,185.5 Z"/></g>
<g><path style="opacity:1" fill="#000000" d="M 266.5,186.5 C 264.14,189.527 261.473,192.194 258.5,194.5C 257.833,194.5 257.167,194.5 256.5,194.5C 259.46,191.355 262.793,188.688 266.5,186.5 Z"/></g>
<g><path style="opacity:1" fill="#292a29" d="M 96.5,187.5 C 97.4959,187.414 98.3292,187.748 99,188.5C 101.785,196.11 100.785,203.11 96,209.5C 91.4499,206.617 87.9499,202.784 85.5,198C 91.5465,197.123 95.2131,193.623 96.5,187.5 Z"/></g>
<g><path style="opacity:1" fill="#121541" d="M 245.5,188.5 C 246.5,188.5 247.5,188.5 248.5,188.5C 248.664,191.187 248.497,193.854 248,196.5C 245.842,195.174 244.008,193.507 242.5,191.5C 243.77,190.712 244.77,189.712 245.5,188.5 Z"/></g>
<g><path style="opacity:1" fill="#fef200" d="M 269.5,189.5 C 272.113,190.095 272.113,190.929 269.5,192C 270.304,193.771 271.471,195.271 273,196.5C 273.692,195.975 274.192,195.308 274.5,194.5C 273.833,194.167 273.167,193.833 272.5,193.5C 273.774,191.15 275.107,191.317 276.5,194C 274.372,198.478 271.872,198.645 269,194.5C 268.36,192.735 268.527,191.068 269.5,189.5 Z"/></g>
<g><path style="opacity:1" fill="#292a29" d="M 120.5,190.5 C 124.706,192.847 129.206,194.514 134,195.5C 137.907,194.964 141.407,193.464 144.5,191C 146.473,190.505 148.473,190.338 150.5,190.5C 150.5,192.5 150.5,194.5 150.5,196.5C 154.215,196.577 157.881,196.244 161.5,195.5C 161.5,196.833 161.5,198.167 161.5,199.5C 165.007,200.006 168.174,199.34 171,197.5C 171.49,198.793 171.657,200.127 171.5,201.5C 173.167,201.5 174.833,201.5 176.5,201.5C 175.735,206.906 178.069,208.906 183.5,207.5C 183.329,209.993 184.329,211.826 186.5,213C 184.06,214.303 181.56,215.47 179,216.5C 177.163,214.387 174.996,212.554 172.5,211C 165.674,208.725 159.007,206.058 152.5,203C 145.979,202.574 139.646,201.241 133.5,199C 125.581,199.142 117.915,198.142 110.5,196C 114.346,194.914 117.68,193.081 120.5,190.5 Z"/></g>
<g><path style="opacity:1" fill="#fef200" d="M 258.5,194.5 C 260.017,194.511 261.184,195.177 262,196.5C 263.824,195.251 263.657,194.085 261.5,193C 263.92,193.372 265.92,194.705 267.5,197C 265.905,196.383 264.572,196.716 263.5,198C 265.007,198.837 265.507,200.004 265,201.5C 262.628,199.297 260.461,196.963 258.5,194.5 Z"/></g>
<g><path style="opacity:1" fill="#8e0c11" d="M 242.5,194.5 C 248.803,198.097 255.136,201.597 261.5,205C 263.5,205.333 265.5,205.667 267.5,206C 264.685,207.721 261.685,208.388 258.5,208C 252.521,204.674 246.855,200.84 241.5,196.5C 241.863,195.817 242.196,195.15 242.5,194.5 Z"/></g>
<g><path style="opacity:1" fill="#b87a56" d="M 145.5,243.5 C 136.387,248.165 127.054,252.665 117.5,257C 114.443,257.256 111.443,257.756 108.5,258.5C 107.288,260.841 107.622,263.007 109.5,265C 106.125,264.515 104.459,262.349 104.5,258.5C 98.0779,258.674 91.7446,258.007 85.5,256.5C 83.8453,257.228 82.1786,257.395 80.5,257C 81.056,256.617 81.3893,256.117 81.5,255.5C 83.0174,255.489 84.1841,254.823 85,253.5C 91.2894,255.756 97.7894,257.089 104.5,257.5C 106.746,253.341 109.246,249.341 112,245.5C 112.638,240.626 113.638,235.959 115,231.5C 112.748,227.785 109.581,225.118 105.5,223.5C 101.058,218.364 102.058,217.198 108.5,220C 109.39,222.581 111.057,223.914 113.5,224C 111.513,222.681 110.346,220.848 110,218.5C 108.748,211.471 107.748,204.471 107,197.5C 109.596,207.955 112.596,218.288 116,228.5C 118.955,232.057 118.622,235.39 115,238.5C 115.208,242.791 113.875,246.458 111,249.5C 109.961,251.901 109.794,254.234 110.5,256.5C 113.64,254.978 116.973,254.145 120.5,254C 123.891,252.311 126.891,250.144 129.5,247.5C 135.063,246.96 140.397,245.627 145.5,243.5 Z M 119.5,244.5 C 119.369,245.376 119.702,246.043 120.5,246.5C 124.355,244.993 124.021,244.326 119.5,244.5 Z"/></g>
<g><path style="opacity:1" fill="#b87a56" d="M 102.5,198.5 C 103.497,198.47 104.164,198.97 104.5,200C 103.702,205.596 102.535,211.096 101,216.5C 93.4192,213.59 86.9192,209.09 81.5,203C 82.2106,201.745 83.044,200.579 84,199.5C 86.3021,205.635 90.4688,209.969 96.5,212.5C 100.6,208.806 102.6,204.139 102.5,198.5 Z"/></g>
<g><path style="opacity:1" fill="#783000" d="M 150.5,235.5 C 147.571,233.018 144.571,230.518 141.5,228C 139.975,226.991 138.308,226.491 136.5,226.5C 135.486,225.326 134.153,224.66 132.5,224.5C 130.393,222.348 127.726,221.348 124.5,221.5C 123.167,221.833 121.833,222.167 120.5,222.5C 120.957,223.298 121.624,223.631 122.5,223.5C 126.922,225.587 129.922,228.92 131.5,233.5C 131.698,235.575 131.865,237.575 132,239.5C 129.182,234.839 125.349,231.505 120.5,229.5C 119.21,228.942 118.377,227.942 118,226.5C 117.5,224.5 117,222.5 116.5,220.5C 116.818,219.353 117.484,218.519 118.5,218C 113.744,215.447 112.077,211.614 113.5,206.5C 127.396,205.41 139.729,209.244 150.5,218C 153.742,219.639 157.076,220.639 160.5,221C 154.766,215.269 148.433,210.269 141.5,206C 133.54,204.509 125.54,203.343 117.5,202.5C 115.708,201.691 113.708,201.191 111.5,201C 110.289,200.107 110.289,199.274 111.5,198.5C 124.637,199.639 137.637,201.806 150.5,205C 158.283,208.147 165.95,211.48 173.5,215C 175.422,216.46 176.089,218.127 175.5,220C 167.529,225.814 159.196,230.981 150.5,235.5 Z"/></g>
<g><path style="opacity:1" fill="#dfd6b0" d="M 239.5,199.5 C 245.111,202.978 250.777,206.478 256.5,210C 264.898,210.483 272.565,208.317 279.5,203.5C 280.287,204.242 280.953,205.075 281.5,206C 279.554,209.881 276.888,213.214 273.5,216C 271.833,216.333 270.167,216.667 268.5,217C 264.913,219.583 261.08,221.75 257,223.5C 255.527,223.097 254.194,222.43 253,221.5C 250.24,218.346 248.24,214.679 247,210.5C 243.08,207.756 240.58,204.089 239.5,199.5 Z"/></g>
<g><path style="opacity:1" fill="#b87a56" d="M 193.5,200.5 C 194.5,200.5 195.5,200.5 196.5,200.5C 196.5,201.5 196.5,202.5 196.5,203.5C 198.681,203.284 200.347,204.117 201.5,206C 208.547,203.939 214.381,205.772 219,211.5C 219.667,212.833 219.667,214.167 219,215.5C 212.011,212.784 205.177,212.951 198.5,216C 192.216,229.633 183.549,241.633 172.5,252C 169.299,254.267 165.966,255.934 162.5,257C 174.782,247.384 184.948,235.884 193,222.5C 194.899,219.124 195.732,215.457 195.5,211.5C 194.448,211.649 193.448,211.483 192.5,211C 196.434,208.122 196.434,205.289 192.5,202.5C 192.863,201.817 193.196,201.15 193.5,200.5 Z"/></g>
<g><path style="opacity:1" fill="#7e7f7e" d="M 237.5,200.5 C 239.491,205.006 242.491,208.839 246.5,212C 243.681,215.805 241.514,219.971 240,224.5C 238,225.833 236,227.167 234,228.5C 234.783,230.345 235.116,232.345 235,234.5C 230.138,242.723 225.971,251.223 222.5,260C 224.586,266.337 227.086,272.504 230,278.5C 231.321,291.128 231.821,303.795 231.5,316.5C 229.167,316.5 226.833,316.5 224.5,316.5C 225.332,311.519 225.498,306.519 225,301.5C 222.304,287.017 218.471,272.85 213.5,259C 219.391,244.725 225.391,230.559 231.5,216.5C 230.127,216.657 228.793,216.49 227.5,216C 231.174,212.595 232.174,208.595 230.5,204C 233.069,203.102 235.402,201.935 237.5,200.5 Z"/></g>
<g><path style="opacity:1" fill="#361701" d="M 117.5,202.5 C 125.54,203.343 133.54,204.509 141.5,206C 148.433,210.269 154.766,215.269 160.5,221C 157.076,220.639 153.742,219.639 150.5,218C 139.729,209.244 127.396,205.41 113.5,206.5C 112.609,205.739 111.942,204.739 111.5,203.5C 113.396,202.534 115.396,202.201 117.5,202.5 Z"/></g>
<g><path style="opacity:1" fill="#fefffe" d="M 219.5,205.5 C 221.607,204.532 223.941,204.198 226.5,204.5C 226.875,207.397 226.375,210.063 225,212.5C 222.664,210.46 220.831,208.127 219.5,205.5 Z"/></g>
<g><path style="opacity:1" fill="#008cca" d="M 286.5,204.5 C 293.188,204.13 298.855,206.297 303.5,211C 296.262,209.675 289.262,210.508 282.5,213.5C 281.386,212.277 281.219,210.944 282,209.5C 283.707,207.963 285.207,206.296 286.5,204.5 Z"/></g>
<g><path style="opacity:1" fill="#4e2000" d="M 105.5,207.5 C 106.205,210.228 106.872,213.061 107.5,216C 106.552,216.483 105.552,216.649 104.5,216.5C 104.508,213.455 104.841,210.455 105.5,207.5 Z"/></g>
<g><path style="opacity:1" fill="#512000" d="M 80.5,207.5 C 83.4521,208.359 85.2854,210.359 86,213.5C 86.3333,212.833 86.6667,212.167 87,211.5C 88.9734,212.64 90.8067,213.973 92.5,215.5C 89.3972,220.706 86.5639,226.04 84,231.5C 80.0024,234.991 77.5024,239.324 76.5,244.5C 71.3324,242.014 66.9991,238.347 63.5,233.5C 69.6851,225.118 75.3518,216.452 80.5,207.5 Z"/></g>
<g><path style="opacity:1" fill="#00a1e8" d="M 306.5,214.5 C 307.189,213.226 308.023,213.226 309,214.5C 310.289,216.055 310.956,217.721 311,219.5C 309.483,217.76 307.983,216.094 306.5,214.5 Z"/></g>
<g><path style="opacity:1" fill="#774a31" d="M 278.5,214.5 C 280.067,215.681 280.901,217.347 281,219.5C 281.667,222.5 281.667,225.5 281,228.5C 279.657,224.49 277.491,220.99 274.5,218C 276.324,217.34 277.657,216.173 278.5,214.5 Z"/></g>
<g><path style="opacity:1" fill="#008cca" d="M 293.5,214.5 C 299.289,214.811 304.122,217.144 308,221.5C 308.667,222.167 308.667,222.833 308,223.5C 300.831,219.437 293.664,219.604 286.5,224C 285.789,225.255 284.956,226.421 284,227.5C 283.333,224.5 283.333,221.5 284,218.5C 287.291,217.243 290.458,215.91 293.5,214.5 Z"/></g>
<g><path style="opacity:1" fill="#000000" d="M 81.5,215.5 C 82.5,215.5 83.5,215.5 84.5,215.5C 85.1667,222.167 82.1667,225.167 75.5,224.5C 75.1202,219.885 77.1202,216.885 81.5,215.5 Z"/></g>
<g><path style="opacity:1" fill="#008cca" d="M 220.5,233.5 C 217.546,234.428 214.546,235.261 211.5,236C 208.242,238.43 208.242,240.264 211.5,241.5C 214.013,238.745 217.013,236.745 220.5,235.5C 217.273,241.952 214.607,248.619 212.5,255.5C 203.907,253.994 195.241,253.327 186.5,253.5C 186.929,250.214 186.929,247.047 186.5,244C 190.511,233.597 196.177,224.264 203.5,216C 209.444,214.745 214.777,215.912 219.5,219.5C 221.894,222.431 221.894,225.431 219.5,228.5C 216.548,229.068 213.881,230.234 211.5,232C 214.316,231.417 217.149,230.584 220,229.5C 220.49,230.793 220.657,232.127 220.5,233.5 Z"/></g>
<g><path style="opacity:1" fill="#b87a56" d="M 95.5,216.5 C 97.4643,216.977 98.7977,218.144 99.5,220C 97.1961,224.774 95.0295,229.608 93,234.5C 89.6691,238.492 86.8358,242.825 84.5,247.5C 81.752,248.454 79.752,247.454 78.5,244.5C 84.5398,235.361 90.2065,226.028 95.5,216.5 Z"/></g>
<g><path style="opacity:1" fill="#b87a56" d="M 145.5,243.5 C 154.597,237.109 163.93,230.942 173.5,225C 176.782,221.228 180.782,218.395 185.5,216.5C 185.833,216.833 186.167,217.167 186.5,217.5C 174.29,228.44 160.623,237.106 145.5,243.5 Z"/></g>
<g><path style="opacity:1" fill="#ec1c23" d="M 246.5,216.5 C 247.043,216.56 247.376,216.893 247.5,217.5C 246.281,220.667 244.781,223.667 243,226.5C 243.274,222.932 244.44,219.599 246.5,216.5 Z"/></g>
<g><path style="opacity:1" fill="#6e6f6e" d="M 224.5,217.5 C 225.833,217.5 227.167,217.5 228.5,217.5C 227.219,222.062 225.386,226.396 223,230.5C 223.504,226.806 223.337,223.14 222.5,219.5C 223.243,218.818 223.909,218.151 224.5,217.5 Z"/></g>
<g><path style="opacity:1" fill="#783100" d="M 146.5,259.5 C 144.655,256.667 142.989,253.667 141.5,250.5C 152.426,243.418 163.759,236.585 175.5,230C 180.019,226.571 184.352,222.904 188.5,219C 189.635,218.251 190.635,218.417 191.5,219.5C 188.136,224.366 184.969,229.366 182,234.5C 175.848,242.317 168.681,249.15 160.5,255C 156.008,257.121 151.342,258.621 146.5,259.5 Z"/></g>
<g><path style="opacity:1" fill="#fec90d" d="M 270.5,218.5 C 273.458,221.06 275.958,224.06 278,227.5C 278.779,229.906 277.946,231.573 275.5,232.5C 272.736,229.077 270.402,225.41 268.5,221.5C 268.942,220.261 269.609,219.261 270.5,218.5 Z"/></g>
<g><path style="opacity:1" fill="#000000" d="M 126.5,220.5 C 137.745,218.934 147.412,222.267 155.5,230.5C 155.333,230.833 155.167,231.167 155,231.5C 147.147,223.724 137.647,220.057 126.5,220.5 Z"/></g>
<g><path style="opacity:1" fill="#fec90d" d="M 248.5,220.5 C 249.376,220.369 250.043,220.702 250.5,221.5C 253.455,227.709 255.789,234.042 257.5,240.5C 256.325,240.719 255.325,240.386 254.5,239.5C 250.887,233.661 248.887,227.328 248.5,220.5 Z"/></g>
<g><path style="opacity:1" fill="#000000" d="M 132.5,224.5 C 130.044,223.738 127.544,223.071 125,222.5C 123.93,222.528 123.097,222.861 122.5,223.5C 121.624,223.631 120.957,223.298 120.5,222.5C 121.833,222.167 123.167,221.833 124.5,221.5C 127.726,221.348 130.393,222.348 132.5,224.5 Z"/></g>
<g><path style="opacity:1" fill="#774a31" d="M 265.5,221.5 C 266.883,225.246 269.05,228.579 272,231.5C 272.813,233.436 273.313,235.436 273.5,237.5C 268.929,238.197 264.596,239.364 260.5,241C 259.603,235.596 257.936,230.429 255.5,225.5C 259.567,225.794 262.9,224.46 265.5,221.5 Z"/></g>
<g><path style="opacity:1" fill="#4d1f00" d="M 122.5,223.5 C 123.097,222.861 123.93,222.528 125,222.5C 127.544,223.071 130.044,223.738 132.5,224.5C 134.153,224.66 135.486,225.326 136.5,226.5C 140.624,230.281 145.291,233.281 150.5,235.5C 144.858,241.824 137.858,244.491 129.5,243.5C 127.777,239.609 124.944,236.943 121,235.5C 120.505,233.527 120.338,231.527 120.5,229.5C 125.349,231.505 129.182,234.839 132,239.5C 131.865,237.575 131.698,235.575 131.5,233.5C 131.3,227.634 128.3,224.301 122.5,223.5 Z"/></g>
<g><path style="opacity:1" fill="#4e2000" d="M 100.5,223.5 C 105.583,226.045 109.916,229.545 113.5,234C 112.547,235.955 111.213,237.622 109.5,239C 104.391,241.889 99.0574,244.222 93.5,246C 91.597,248.405 89.2637,250.239 86.5,251.5C 86.1667,251.167 85.8333,250.833 85.5,250.5C 91.2994,241.897 96.2994,232.897 100.5,223.5 Z"/></g>
<g><path style="opacity:1" fill="#000000" d="M 122.5,223.5 C 128.3,224.301 131.3,227.634 131.5,233.5C 129.922,228.92 126.922,225.587 122.5,223.5 Z"/></g>
<g><path style="opacity:1" fill="#292a29" d="M 392.5,223.5 C 399.748,223.427 406.415,225.26 412.5,229C 417.018,233.09 422.018,236.423 427.5,239C 428.981,242.456 430.648,245.789 432.5,249C 434.473,249.495 436.473,249.662 438.5,249.5C 437.572,253.458 438.906,256.125 442.5,257.5C 445.092,263.395 449.592,267.062 456,268.5C 456.192,270.577 456.692,272.577 457.5,274.5C 460.531,275.366 463.197,276.866 465.5,279C 469.039,279.282 472.539,279.782 476,280.5C 478.142,283.314 480.308,286.147 482.5,289C 475.842,289.5 469.175,289.666 462.5,289.5C 462.5,290.833 462.5,292.167 462.5,293.5C 457.593,293.399 452.76,292.732 448,291.5C 445.381,291.727 442.881,292.393 440.5,293.5C 434.54,292.099 429.04,289.766 424,286.5C 422.838,287.187 421.672,287.353 420.5,287C 418.919,285.172 417.585,283.172 416.5,281C 414.888,280.28 413.388,280.446 412,281.5C 408.769,276.986 405.102,272.986 401,269.5C 400.759,266.711 400.092,264.044 399,261.5C 393.541,254.373 387.708,247.539 381.5,241C 379.423,240.808 377.423,240.308 375.5,239.5C 373.5,236.833 371.167,234.5 368.5,232.5C 376.124,228.295 384.124,225.295 392.5,223.5 Z"/></g>
<g><path style="opacity:1" fill="#b87a56" d="M 322.5,224.5 C 332.849,225.446 342.849,227.946 352.5,232C 360.497,231.673 367.164,234.34 372.5,240C 372,240.5 371.5,241 371,241.5C 367.73,239.23 364.23,237.396 360.5,236C 348.514,233.011 336.514,230.011 324.5,227C 321.62,226.316 318.787,226.483 316,227.5C 314.278,227.389 314.112,226.889 315.5,226C 318.036,225.814 320.369,225.314 322.5,224.5 Z"/></g>
<g><path style="opacity:1" fill="#000000" d="M 136.5,226.5 C 138.308,226.491 139.975,226.991 141.5,228C 144.571,230.518 147.571,233.018 150.5,235.5C 145.291,233.281 140.624,230.281 136.5,226.5 Z"/></g>
<g><path style="opacity:1" fill="#018bc8" d="M 295.5,222.5 C 314.125,225.542 316.792,233.708 303.5,247C 298.828,247.168 294.161,246.834 289.5,246C 287.35,241.4 285.35,236.733 283.5,232C 286.255,227.138 290.255,223.972 295.5,222.5 Z"/></g>
<g><path style="opacity:1" fill="#010204" d="M 302.5,243.5 C 302.5,243.167 302.5,242.833 302.5,242.5C 302.5,241.833 302.833,241.5 303.5,241.5C 307.648,236.828 307.315,232.328 302.5,228C 293.307,225.17 288.474,228.67 288,238.5C 286.537,232.26 288.703,227.76 294.5,225C 302.692,223.682 307.358,227.182 308.5,235.5C 307.933,239.325 305.933,241.991 302.5,243.5 Z"/></g>
<g><path style="opacity:1" fill="#c2c3c2" d="M 240.5,227.5 C 243.975,233.103 247.475,238.769 251,244.5C 252.789,247.993 253.789,251.66 254,255.5C 247.411,247.097 241.911,238.097 237.5,228.5C 238.791,228.737 239.791,228.404 240.5,227.5 Z"/></g>
<g><path style="opacity:1" fill="#7e7f7e" d="M 245.5,227.5 C 246.586,227.62 247.253,228.287 247.5,229.5C 248.228,231.155 248.395,232.821 248,234.5C 245.884,232.339 245.051,230.005 245.5,227.5 Z"/></g>
<g><path style="opacity:1" fill="#4e1f00" d="M 342.5,359.5 C 338.947,361.065 336.947,363.898 336.5,368C 337.544,369.174 338.544,370.341 339.5,371.5C 327.327,376.169 314.993,380.336 302.5,384C 297.776,388.712 292.109,391.712 285.5,393C 283.722,395.135 283.055,397.635 283.5,400.5C 279.148,401.735 274.814,401.568 270.5,400C 270.043,399.586 269.709,399.086 269.5,398.5C 273.407,393.754 276.24,388.42 278,382.5C 278.903,381.299 280.069,380.465 281.5,380C 285.896,379.254 290.23,378.254 294.5,377C 301.853,372.967 309.187,368.967 316.5,365C 320.976,358.941 321.642,352.441 318.5,345.5C 318.863,344.817 319.196,344.15 319.5,343.5C 325.903,341.129 327.736,336.796 325,330.5C 321.607,327.256 318.107,326.923 314.5,329.5C 310.713,325.3 307.38,320.634 304.5,315.5C 301.714,314.044 298.714,313.044 295.5,312.5C 293.555,309.607 291.889,306.607 290.5,303.5C 292.881,299.519 293.881,295.186 293.5,290.5C 296.516,289.941 299.516,289.275 302.5,288.5C 303.938,275.198 305.105,261.865 306,248.5C 311.283,243.291 313.783,237.125 313.5,230C 315.847,229.564 318.181,229.064 320.5,228.5C 334.165,231.999 347.832,235.499 361.5,239C 364.5,240.833 367.5,242.667 370.5,244.5C 372.101,251.034 374.268,257.367 377,263.5C 377.332,268.19 376.998,272.857 376,277.5C 372.243,288.347 366.91,298.347 360,307.5C 357.257,309.788 354.423,311.955 351.5,314C 349.237,317.704 346.404,320.87 343,323.5C 341.948,327.413 341.448,331.413 341.5,335.5C 341.767,343.422 342.434,351.255 343.5,359C 343.272,359.399 342.938,359.565 342.5,359.5 Z"/></g>
<g><path style="opacity:1" fill="#fef200" d="M 291.5,231.5 C 292.158,232.398 292.824,233.398 293.5,234.5C 295.31,230.517 296.31,230.851 296.5,235.5C 296.564,237.389 296.064,239.056 295,240.5C 294.051,236.622 292.885,236.622 291.5,240.5C 290.259,237.463 290.259,234.463 291.5,231.5 Z"/></g>
<g><path style="opacity:1" fill="#121541" d="M 220.5,233.5 C 220.5,234.167 220.5,234.833 220.5,235.5C 217.013,236.745 214.013,238.745 211.5,241.5C 208.242,240.264 208.242,238.43 211.5,236C 214.546,235.261 217.546,234.428 220.5,233.5 Z"/></g>
<g><path style="opacity:1" fill="#fef200" d="M 303.5,241.5 C 302.833,241.5 302.5,241.833 302.5,242.5C 299.305,242.487 297.638,240.82 297.5,237.5C 298.361,233.606 300.361,232.772 303.5,235C 302.207,235.49 300.873,235.657 299.5,235.5C 299.231,237.429 299.731,239.095 301,240.5C 302.204,239.529 302.704,238.529 302.5,237.5C 303.429,238.689 303.762,240.022 303.5,241.5 Z"/></g>
<g><path style="opacity:1" fill="#b87a56" d="M 61.5,236.5 C 65.084,239.58 68.584,242.913 72,246.5C 72.6667,247.167 72.6667,247.833 72,248.5C 67.1713,245.515 63.6713,241.515 61.5,236.5 Z"/></g>
<g><path style="opacity:1" fill="#ec1c23" d="M 236.5,236.5 C 237.756,236.461 238.756,236.961 239.5,238C 233.778,244.39 229.778,251.724 227.5,260C 229.66,266.479 231.826,272.979 234,279.5C 235.595,292.152 235.761,304.818 234.5,317.5C 233.838,303.816 233.005,290.149 232,276.5C 229.734,270.733 227.234,265.066 224.5,259.5C 228.763,251.974 232.763,244.307 236.5,236.5 Z"/></g>
<g><path style="opacity:1" fill="#783000" d="M 330.5,237.5 C 342.731,237.847 352.898,242.514 361,251.5C 362.579,255.009 364.079,258.509 365.5,262C 362.609,271.703 358.776,280.869 354,289.5C 347.833,294.333 342.333,299.833 337.5,306C 331.827,310.418 325.66,313.918 319,316.5C 316.931,315.736 314.764,315.236 312.5,315C 302.09,307.714 301.924,300.214 312,292.5C 312.29,290.048 312.956,287.715 314,285.5C 318.077,282.212 322.244,279.045 326.5,276C 331.929,275.74 337.262,276.073 342.5,277C 348.775,274.325 350.275,269.825 347,263.5C 339.715,255.363 333.048,255.697 327,264.5C 326.202,267.543 325.035,270.376 323.5,273C 319.74,274.176 316.907,273.01 315,269.5C 311.412,261.826 309.745,253.826 310,245.5C 315.805,239.958 322.638,237.291 330.5,237.5 Z"/></g>
<g><path style="opacity:1" fill="#fefffe" d="M 117.5,240.5 C 120.004,241.639 122.67,242.306 125.5,242.5C 125.33,243.822 125.663,244.989 126.5,246C 122.817,249.036 118.817,250.536 114.5,250.5C 116.704,247.553 117.704,244.22 117.5,240.5 Z M 119.5,244.5 C 119.369,245.376 119.702,246.043 120.5,246.5C 124.355,244.993 124.021,244.326 119.5,244.5 Z"/></g>
<g><path style="opacity:1" fill="#562300" d="M 59.5,241.5 C 62.5008,244.332 65.6675,246.998 69,249.5C 68.5198,252.813 69.0198,255.813 70.5,258.5C 68.9237,262.877 65.757,265.21 61,265.5C 59.7387,265.241 58.7387,264.574 58,263.5C 57.5779,261.645 57.0779,259.811 56.5,258C 59.0918,255.147 59.0918,252.314 56.5,249.5C 57.9,246.965 58.9,244.298 59.5,241.5 Z"/></g>
<g><path style="opacity:1" fill="#7e7f7e" d="M 239.5,241.5 C 241.951,243.123 243.951,245.289 245.5,248C 241.651,251.682 237.984,255.515 234.5,259.5C 235.651,260.731 236.817,260.731 238,259.5C 238.624,261.464 238.124,263.131 236.5,264.5C 237.97,266.482 237.636,268.148 235.5,269.5C 238.393,272.619 240.226,276.286 241,280.5C 241.898,289.707 243.065,298.874 244.5,308C 243.854,311.812 243.354,315.646 243,319.5C 241.301,318.594 239.467,318.261 237.5,318.5C 237.784,304.801 237.284,291.135 236,277.5C 234.238,271.483 232.071,265.65 229.5,260C 232.242,253.448 235.575,247.281 239.5,241.5 Z"/></g>
<g><path style="opacity:1" fill="#000000" d="M 302.5,243.5 C 301.508,245.026 300.008,245.693 298,245.5C 295.444,245.637 293.277,244.804 291.5,243C 293.616,243.282 295.783,243.782 298,244.5C 299.533,244.227 301.033,243.894 302.5,243.5 Z"/></g>
<g><path style="opacity:1" fill="#b87a56" d="M 173.5,259.5 C 175.646,253.881 178.812,248.881 183,244.5C 181.76,250.603 178.593,255.603 173.5,259.5 Z"/></g>
<g><path style="opacity:1" fill="#fefffe" d="M 104.5,245.5 C 105.552,245.351 106.552,245.517 107.5,246C 105.833,248.333 104.167,250.667 102.5,253C 99.4459,253.821 96.4459,253.655 93.5,252.5C 97.4687,250.51 101.135,248.176 104.5,245.5 Z"/></g>
<g><path style="opacity:1" fill="#c2c3c2" d="M 81.5,255.5 C 76.996,256.334 74.6627,259 74.5,263.5C 74.166,270.034 72.4993,270.034 69.5,263.5C 70.2485,261.668 71.2485,260.001 72.5,258.5C 72.0233,257.522 71.3567,256.689 70.5,256C 72.1091,253.246 73.4424,250.413 74.5,247.5C 77.7041,249.016 81.0374,250.349 84.5,251.5C 83.4756,252.852 82.4756,254.185 81.5,255.5 Z"/></g>
<g><path style="opacity:1" fill="#dfd6b0" d="M 290.5,248.5 C 294.81,249.08 299.143,249.414 303.5,249.5C 302.864,256.815 302.364,264.148 302,271.5C 298.156,263.811 294.322,256.145 290.5,248.5 Z"/></g>
<g><path style="opacity:1" fill="#4e1f00" d="M 141.5,250.5 C 142.989,253.667 144.655,256.667 146.5,259.5C 144.461,260.578 142.294,261.578 140,262.5C 138.524,258.728 136.691,255.228 134.5,252C 136.733,250.171 139.067,249.671 141.5,250.5 Z"/></g>
<g><path style="opacity:1" fill="#783100" d="M 183.5,250.5 C 184.608,251.823 184.608,253.323 183.5,255C 181.022,257.478 178.522,259.978 176,262.5C 177.065,259.394 179.065,256.727 182,254.5C 182.791,253.255 183.291,251.922 183.5,250.5 Z"/></g>
<g><path style="opacity:1" fill="#a66744" d="M 245.5,251.5 C 250.188,254.707 253.688,259.04 256,264.5C 256.76,272.623 256.093,280.623 254,288.5C 251,290.833 248,293.167 245,295.5C 245.136,286.344 243.303,277.677 239.5,269.5C 240.21,265.196 240.71,260.863 241,256.5C 242.707,254.963 244.207,253.296 245.5,251.5 Z"/></g>
<g><path style="opacity:1" fill="#fefffe" d="M 128.5,254.5 C 131.389,255.049 133.056,256.882 133.5,260C 133.095,260.945 132.428,261.612 131.5,262C 126.378,262.29 121.378,263.123 116.5,264.5C 113.771,264.495 111.771,263.329 110.5,261C 117.26,260.693 123.26,258.527 128.5,254.5 Z M 128.5,257.5 C 127.4,258.558 126.066,259.392 124.5,260C 126.167,260.667 127.833,260.667 129.5,260C 130.566,258.841 130.233,258.008 128.5,257.5 Z"/></g>
<g><path style="opacity:1" fill="#b87a56" d="M 188.5,255.5 C 190.833,255.5 193.167,255.5 195.5,255.5C 195.5,256.5 195.5,257.5 195.5,258.5C 192.327,258.401 189.327,259.068 186.5,260.5C 182.032,263.137 177.698,265.97 173.5,269C 167.333,275.833 161.167,282.667 155,289.5C 154.626,288.584 154.126,287.75 153.5,287C 159.71,282.458 164.876,276.958 169,270.5C 175.105,264.915 181.605,259.915 188.5,255.5 Z"/></g>
<g><path style="opacity:1" fill="#b87a56" d="M 196.5,255.5 C 197.5,255.5 198.5,255.5 199.5,255.5C 199.33,256.822 199.663,257.989 200.5,259C 197.862,259.509 196.528,258.342 196.5,255.5 Z"/></g>
<g><path style="opacity:1" fill="#783100" d="M 155.5,275.5 C 154.399,271.964 152.732,268.631 150.5,265.5C 157.754,262.924 164.754,260.091 171.5,257C 165.332,262.545 159.998,268.711 155.5,275.5 Z"/></g>
<g><path style="opacity:1" fill="#b87a56" d="M 200.5,257.5 C 203.994,256.665 207.66,256.665 211.5,257.5C 211.5,258.833 211.5,260.167 211.5,261.5C 207.036,262.091 203.369,260.758 200.5,257.5 Z"/></g>
<g><path style="opacity:1" fill="#a3a4a3" d="M 74.5,263.5 C 75.2556,260.416 77.2556,258.749 80.5,258.5C 80.7564,260.792 80.4231,262.959 79.5,265C 78.6667,265.167 77.8333,265.333 77,265.5C 75.6244,265.316 74.7911,264.649 74.5,263.5 Z"/></g>
<g><path style="opacity:1" fill="#fefffe" d="M 84.5,259.5 C 90.043,260.856 95.7097,261.69 101.5,262C 101.957,262.414 102.291,262.914 102.5,263.5C 101.333,263.833 100.167,264.167 99,264.5C 94.1801,263.669 89.3468,263.002 84.5,262.5C 84.5,261.5 84.5,260.5 84.5,259.5 Z"/></g>
<g><path style="opacity:1" fill="#b87a56" d="M 173.5,259.5 C 164.937,274.562 152.937,286.062 137.5,294C 133.88,294.841 130.546,294.174 127.5,292C 124.428,289.049 121.261,286.216 118,283.5C 116.224,280.059 114.057,276.892 111.5,274C 112.449,273.383 113.282,273.549 114,274.5C 118.45,283.452 125.283,289.785 134.5,293.5C 139.961,290.601 145.294,287.434 150.5,284C 158.005,275.662 165.672,267.495 173.5,259.5 Z"/></g>
<g><path style="opacity:1" fill="#b87a56" d="M 151.5,260.5 C 152.552,260.351 153.552,260.517 154.5,261C 144.488,264.804 134.155,267.471 123.5,269C 112.668,269.889 101.835,270.722 91,271.5C 89.272,271.546 87.772,271.046 86.5,270C 87.4954,268.166 88.9954,266.999 91,266.5C 108.289,268.222 125.456,267.388 142.5,264C 145.718,263.1 148.718,261.933 151.5,260.5 Z"/></g>
<g><path style="opacity:1" fill="#008cca" d="M 192.5,260.5 C 198.831,261.665 205.164,262.831 211.5,264C 215.822,278.013 210.822,283.346 196.5,280C 191.211,279.679 187.211,277.346 184.5,273C 185.713,269.934 186.547,266.767 187,263.5C 189.058,262.771 190.891,261.771 192.5,260.5 Z"/></g>
<g><path style="opacity:1" fill="#b87a56" d="M 80.5,265.5 C 82.8008,266.06 85.1341,266.56 87.5,267C 86.8333,267.667 86.1667,268.333 85.5,269C 81.8333,269.667 78.1667,269.667 74.5,269C 76.2106,267.224 78.2106,266.058 80.5,265.5 Z"/></g>
<g><path style="opacity:1" fill="#4e2000" d="M 150.5,265.5 C 152.732,268.631 154.399,271.964 155.5,275.5C 154.207,277.296 152.707,278.963 151,280.5C 148.626,276.25 146.126,272.084 143.5,268C 145.808,267.009 148.141,266.176 150.5,265.5 Z"/></g>
<g><path style="opacity:1" fill="#783000" d="M 211.5,296.5 C 206.209,299.957 201.709,304.29 198,309.5C 197.333,312.5 197.333,315.5 198,318.5C 199.083,321.267 200.25,323.933 201.5,326.5C 201.018,330.234 202.351,333.067 205.5,335C 204.944,335.383 204.611,335.883 204.5,336.5C 196.57,342.837 188.904,349.671 181.5,357C 180.833,357.667 180.167,357.667 179.5,357C 180.919,353.414 183.252,350.581 186.5,348.5C 188.58,341.626 192.913,336.959 199.5,334.5C 197.176,333.338 194.842,332.171 192.5,331C 188.295,327.621 184.295,324.121 180.5,320.5C 183.471,315.697 186.638,311.03 190,306.5C 191.885,304.086 192.552,301.419 192,298.5C 187.833,304 183.667,309.5 179.5,315C 177.167,315.667 174.833,315.667 172.5,315C 171.196,314.196 170.529,313.029 170.5,311.5C 174.794,305.686 178.961,299.686 183,293.5C 183.388,291.924 182.888,290.591 181.5,289.5C 176.748,294.521 171.748,299.354 166.5,304C 161.375,305.13 157.375,303.63 154.5,299.5C 154.523,297.073 155.023,294.74 156,292.5C 163.653,282.014 172.82,273.014 183.5,265.5C 183.833,265.667 184.167,265.833 184.5,266C 180.079,274.238 182.412,279.404 191.5,281.5C 191.143,286.587 193.476,289.42 198.5,290C 203.155,290.499 207.821,290.666 212.5,290.5C 212.675,292.621 212.341,294.621 211.5,296.5 Z"/></g>
<g><path style="opacity:1" fill="#fefffe" d="M 137.5,269.5 C 141.503,272.319 144.17,276.152 145.5,281C 142.29,284.289 138.623,287.123 134.5,289.5C 128.167,285.167 122.833,279.833 118.5,273.5C 125.017,272.405 131.35,271.071 137.5,269.5 Z M 135.5,272.5 C 131.322,273.406 126.988,274.24 122.5,275C 126.348,279.016 130.348,282.849 134.5,286.5C 137.382,284.564 140.049,282.398 142.5,280C 141.288,276.292 138.954,273.792 135.5,272.5 Z"/></g>
<g><path style="opacity:1" fill="#b87a56" d="M 214.5,272.5 C 215.302,286.007 215.969,299.674 216.5,313.5C 215.167,313.5 213.833,313.5 212.5,313.5C 214.283,299.916 214.949,286.25 214.5,272.5 Z"/></g>
<g><path style="opacity:1" fill="#dfd6b0" d="M 258.5,273.5 C 260,277.781 261.667,282.114 263.5,286.5C 265.078,287.298 266.744,287.798 268.5,288C 264.5,288.667 260.5,288.667 256.5,288C 257.613,283.267 258.28,278.434 258.5,273.5 Z"/></g>
<g><path style="opacity:1" fill="#dfd6b0" d="M 301.5,275.5 C 302.043,275.56 302.376,275.893 302.5,276.5C 302.181,280.295 301.181,283.795 299.5,287C 293.518,288.499 287.518,288.666 281.5,287.5C 281.023,286.522 280.357,285.689 279.5,285C 281.49,285.138 283.49,285.638 285.5,286.5C 290.167,281.836 295.5,278.169 301.5,275.5 Z"/></g>
<g><path style="opacity:1" fill="#a66744" d="M 211.5,280.5 C 212.473,282.948 212.806,285.615 212.5,288.5C 206.32,289.171 200.486,288.171 195,285.5C 194.517,284.552 194.351,283.552 194.5,282.5C 199.844,282.666 205.177,282.499 210.5,282C 211.056,281.617 211.389,281.117 211.5,280.5 Z"/></g>
<g><path style="opacity:1" fill="#a66744" d="M 217.5,281.5 C 218.868,285.298 219.868,289.298 220.5,293.5C 219.5,293.5 218.5,293.5 217.5,293.5C 217.5,289.5 217.5,285.5 217.5,281.5 Z"/></g>
<g><path style="opacity:1" fill="#c2c3c2" d="M 274.5,284.5 C 278.35,287.815 281.516,291.815 284,296.5C 290.978,310.456 298.478,324.122 306.5,337.5C 305.295,339.138 303.962,339.471 302.5,338.5C 293.372,321.027 283.372,304.027 272.5,287.5C 273.193,286.482 273.859,285.482 274.5,284.5 Z"/></g>
<g><path style="opacity:1" fill="#4b1f00" d="M 204.5,336.5 C 205.552,336.351 206.552,336.517 207.5,337C 205.833,338 204.167,339 202.5,340C 196.106,348.635 188.272,355.802 179,361.5C 177.426,364.322 175.926,367.156 174.5,370C 175.756,370.417 176.423,371.25 176.5,372.5C 175.31,374.355 173.977,376.188 172.5,378C 178.351,382.428 184.017,387.094 189.5,392C 193.492,393.177 195.158,391.677 194.5,387.5C 194.435,387.062 194.601,386.728 195,386.5C 199.204,387.603 203.037,389.436 206.5,392C 208.134,392.494 209.801,392.66 211.5,392.5C 212.355,395.711 213.355,398.878 214.5,402C 209.545,401.838 204.545,401.505 199.5,401C 189.157,394.493 178.49,388.493 167.5,383C 165.077,381.174 162.744,379.174 160.5,377C 161.056,376.617 161.389,376.117 161.5,375.5C 162.552,375.649 163.552,375.483 164.5,375C 169.764,370.633 173.097,365.133 174.5,358.5C 172.897,358.688 171.563,358.188 170.5,357C 176,352.167 181.5,347.333 187,342.5C 189.271,339.88 189.938,336.88 189,333.5C 185.956,330.456 182.956,327.456 180,324.5C 179.71,326.92 179.21,329.254 178.5,331.5C 166.902,332.819 155.235,333.986 143.5,335C 136.152,336.354 131.319,340.521 129,347.5C 128.5,354.826 128.334,362.159 128.5,369.5C 127.25,369.423 126.417,368.756 126,367.5C 125.333,361.5 125.333,355.5 126,349.5C 126.249,346.823 127.249,344.49 129,342.5C 131.872,339.963 134.372,337.13 136.5,334C 142.463,331.082 148.796,329.749 155.5,330C 160.084,328.925 162.084,326.092 161.5,321.5C 158.482,321.335 155.482,321.502 152.5,322C 146.853,324.699 140.853,326.199 134.5,326.5C 132.833,326.333 131.167,326.167 129.5,326C 128.748,325.329 128.414,324.496 128.5,323.5C 135.947,321.852 143.281,319.686 150.5,317C 155.394,313.15 155.728,308.983 151.5,304.5C 152.128,302.555 153.128,300.888 154.5,299.5C 157.375,303.63 161.375,305.13 166.5,304C 171.748,299.354 176.748,294.521 181.5,289.5C 182.888,290.591 183.388,291.924 183,293.5C 178.961,299.686 174.794,305.686 170.5,311.5C 170.529,313.029 171.196,314.196 172.5,315C 174.833,315.667 177.167,315.667 179.5,315C 183.667,309.5 187.833,304 192,298.5C 192.552,301.419 191.885,304.086 190,306.5C 186.638,311.03 183.471,315.697 180.5,320.5C 184.295,324.121 188.295,327.621 192.5,331C 194.842,332.171 197.176,333.338 199.5,334.5C 192.913,336.959 188.58,341.626 186.5,348.5C 183.252,350.581 180.919,353.414 179.5,357C 180.167,357.667 180.833,357.667 181.5,357C 188.904,349.671 196.57,342.837 204.5,336.5 Z"/></g>
<g><path style="opacity:1" fill="#4e2000" d="M 255.5,290.5 C 260.875,290.172 266.208,290.505 271.5,291.5C 277.129,300.593 283.129,309.426 289.5,318C 278.48,324.84 266.48,328.34 253.5,328.5C 253.471,323.64 250.971,321.307 246,321.5C 245.5,316.988 245.667,312.488 246.5,308C 246.457,304.832 245.791,301.832 244.5,299C 248.597,296.63 252.264,293.797 255.5,290.5 Z"/></g>
<g><path style="opacity:1" fill="#291000" d="M 293.5,290.5 C 293.881,295.186 292.881,299.519 290.5,303.5C 288.068,299.476 285.734,295.31 283.5,291C 286.817,290.502 290.15,290.335 293.5,290.5 Z"/></g>
<g><path style="opacity:1" fill="#783100" d="M 361.5,292.5 C 362.525,292.897 362.692,293.563 362,294.5C 357.162,303.671 351.162,312.004 344,319.5C 341.821,318.884 339.988,317.717 338.5,316C 347.012,308.988 354.679,301.155 361.5,292.5 Z"/></g>
<g><path style="opacity:1" fill="#4e2000" d="M 217.5,294.5 C 218.833,294.5 220.167,294.5 221.5,294.5C 221.844,298.544 222.51,302.544 223.5,306.5C 223.239,310.436 222.239,314.103 220.5,317.5C 218.408,310.008 217.408,302.341 217.5,294.5 Z"/></g>
<g><path style="opacity:1" fill="#4e1f00" d="M 211.5,296.5 C 212.152,297.449 212.486,298.615 212.5,300C 211.164,307.841 209.664,315.674 208,323.5C 206.007,324.914 203.84,325.914 201.5,326.5C 200.25,323.933 199.083,321.267 198,318.5C 197.333,315.5 197.333,312.5 198,309.5C 201.709,304.29 206.209,299.957 211.5,296.5 Z"/></g>
<g><path style="opacity:1" fill="#c2c3c2" d="M 212.5,315.5 C 214.167,315.5 215.833,315.5 217.5,315.5C 218.176,321.888 219.176,328.222 220.5,334.5C 219.5,334.5 218.5,334.5 217.5,334.5C 217.113,329.126 216.446,323.793 215.5,318.5C 213.876,318.36 212.71,319.027 212,320.5C 211.616,318.803 211.782,317.137 212.5,315.5 Z"/></g>
<g><path style="opacity:1" fill="#783000" d="M 128.5,369.5 C 129.434,370.772 130.101,372.272 130.5,374C 127.896,380.066 129.896,382.732 136.5,382C 134.667,384.5 132.833,387 131,389.5C 127.537,385.77 123.537,382.77 119,380.5C 118.238,376.413 118.404,372.413 119.5,368.5C 120.306,362.356 120.973,356.189 121.5,350C 121.467,347.39 120.8,345.223 119.5,343.5C 117.548,335.851 119.548,329.351 125.5,324C 126.448,323.517 127.448,323.351 128.5,323.5C 128.414,324.496 128.748,325.329 129.5,326C 131.167,326.167 132.833,326.333 134.5,326.5C 140.853,326.199 146.853,324.699 152.5,322C 155.482,321.502 158.482,321.335 161.5,321.5C 162.084,326.092 160.084,328.925 155.5,330C 148.796,329.749 142.463,331.082 136.5,334C 134.372,337.13 131.872,339.963 129,342.5C 127.249,344.49 126.249,346.823 126,349.5C 125.333,355.5 125.333,361.5 126,367.5C 126.417,368.756 127.25,369.423 128.5,369.5 Z"/></g>
<g><path style="opacity:1" fill="#783000" d="M 161.5,375.5 C 158.393,373.848 156.727,371.181 156.5,367.5C 166.869,357.443 174.202,345.443 178.5,331.5C 179.21,329.254 179.71,326.92 180,324.5C 182.956,327.456 185.956,330.456 189,333.5C 189.938,336.88 189.271,339.88 187,342.5C 181.5,347.333 176,352.167 170.5,357C 171.563,358.188 172.897,358.688 174.5,358.5C 173.097,365.133 169.764,370.633 164.5,375C 163.552,375.483 162.552,375.649 161.5,375.5 Z"/></g>
<g><path style="opacity:1" fill="#c2c3c2" d="M 243.5,324.5 C 252.807,325.485 252.807,327.152 243.5,329.5C 242.334,327.833 242.334,326.166 243.5,324.5 Z"/></g>
<g><path style="opacity:1" fill="#783000" d="M 319.5,343.5 C 317.456,339.572 315.456,335.405 313.5,331C 314.056,330.617 314.389,330.117 314.5,329.5C 318.107,326.923 321.607,327.256 325,330.5C 327.736,336.796 325.903,341.129 319.5,343.5 Z"/></g>
<g><path style="opacity:1" fill="#441c00" d="M 119.5,343.5 C 120.8,345.223 121.467,347.39 121.5,350C 120.973,356.189 120.306,362.356 119.5,368.5C 118.167,360.167 118.167,351.833 119.5,343.5 Z"/></g>
<g><path style="opacity:1" fill="#773000" d="M 329.5,357.5 C 334.724,358.253 336.557,361.253 335,366.5C 332.568,367.45 330.068,367.45 327.5,366.5C 325.713,362.878 326.38,359.878 329.5,357.5 Z"/></g>
<g><path style="opacity:1" fill="#783100" d="M 342.5,359.5 C 343.82,362.14 345.153,364.807 346.5,367.5C 344.847,369.947 342.513,371.28 339.5,371.5C 338.544,370.341 337.544,369.174 336.5,368C 336.947,363.898 338.947,361.065 342.5,359.5 Z"/></g>
<g><path style="opacity:1" fill="#783100" d="M 346.5,360.5 C 348.179,362 349.512,363.833 350.5,366C 350,366.5 349.5,367 349,367.5C 348.153,365.146 347.32,362.812 346.5,360.5 Z"/></g>
<g><path style="opacity:1" fill="#783100" d="M 176.5,372.5 C 176.269,375.785 177.603,378.285 180.5,380C 185.066,382.782 189.733,385.282 194.5,387.5C 195.158,391.677 193.492,393.177 189.5,392C 184.017,387.094 178.351,382.428 172.5,378C 173.977,376.188 175.31,374.355 176.5,372.5 Z"/></g>
<g><path style="opacity:1" fill="#4e2000" d="M 340.5,373.5 C 341.239,373.369 341.906,373.536 342.5,374C 336.684,381.117 330.518,387.95 324,394.5C 318.678,401.154 314.178,408.321 310.5,416C 305.505,415.993 302.672,418.493 302,423.5C 298.897,421.697 296.063,419.53 293.5,417C 296.642,413.215 299.142,409.048 301,404.5C 308.645,398.7 314.145,391.367 317.5,382.5C 325.145,379.167 332.812,376.167 340.5,373.5 Z"/></g>
<g><path style="opacity:1" fill="#a3a4a3" d="M 146.5,384.5 C 147.533,389.032 147.366,393.698 146,398.5C 145.539,393.816 145.705,389.149 146.5,384.5 Z"/></g>
<g><path style="opacity:1" fill="#c2c3c2" d="M 223.5,388.5 C 226.635,391.808 229.635,395.308 232.5,399C 232,399.5 231.5,400 231,400.5C 228.228,396.612 225.728,392.612 223.5,388.5 Z"/></g>
</svg>
