<?xml version="1.0" encoding="UTF-8"?>
<!DOCTYPE svg PUBLIC "-//W3C//DTD SVG 1.1//EN" "http://www.w3.org/Graphics/SVG/1.1/DTD/svg11.dtd">
<svg xmlns="http://www.w3.org/2000/svg" version="1.1" width="600px" height="602px" style="shape-rendering:geometricPrecision; text-rendering:geometricPrecision; image-rendering:optimizeQuality; fill-rule:evenodd; clip-rule:evenodd" xmlns:xlink="http://www.w3.org/1999/xlink">
<g><path style="opacity:1" fill="#fefffe" d="M 275.5,66.5 C 286.505,66.3335 297.505,66.5002 308.5,67C 312.087,70.0047 314.254,73.8381 315,78.5C 315.169,84.8594 315.669,91.1928 316.5,97.5C 318.131,99.0588 318.964,101.059 319,103.5C 319.168,111.853 319.668,120.187 320.5,128.5C 323.167,126.833 325.833,125.167 328.5,123.5C 329.321,120.553 329.821,117.553 330,114.5C 330.833,113.667 331.667,112.833 332.5,112C 340.167,111.333 347.833,111.333 355.5,112C 356.5,113 357.5,114 358.5,115C 361.833,115.333 365.167,115.667 368.5,116C 374.53,121.346 379.697,127.179 384,133.5C 385.225,140.755 385.892,148.089 386,155.5C 389.246,157.479 392.246,159.812 395,162.5C 395.333,165.167 395.667,167.833 396,170.5C 403.43,179.712 410.097,189.379 416,199.5C 416.333,209.5 416.667,219.5 417,229.5C 421.312,235.746 425.979,241.746 431,247.5C 431.667,258.167 431.667,268.833 431,279.5C 430.311,280.357 429.478,281.023 428.5,281.5C 427.337,286.802 427.171,292.136 428,297.5C 430.333,302.833 432.667,308.167 435,313.5C 438.244,317.744 441.078,322.244 443.5,327C 448.292,332.464 453.126,337.964 458,343.5C 458.667,353.167 458.667,362.833 458,372.5C 456.019,374.359 455.019,376.692 455,379.5C 451.738,382.092 449.238,385.259 447.5,389C 443.088,392.29 438.588,395.456 434,398.5C 432.229,403.721 434.062,406.555 439.5,407C 443.638,413.442 447.138,420.276 450,427.5C 451.096,435.124 451.762,442.791 452,450.5C 454.185,459.799 456.185,469.133 458,478.5C 458.667,493.167 458.667,507.833 458,522.5C 454.085,524.746 451.252,527.912 449.5,532C 441.08,536.973 431.913,538.807 422,537.5C 416.167,537.333 410.333,537.167 404.5,537C 402.919,536.293 401.419,535.46 400,534.5C 398.391,525.602 398.058,516.602 399,507.5C 400.905,504.029 403.072,500.696 405.5,497.5C 406.641,495.579 406.808,493.579 406,491.5C 400.527,479.729 394.694,468.229 388.5,457C 387.234,456.691 386.067,456.191 385,455.5C 383.713,451.63 382.047,447.964 380,444.5C 373.93,439.167 368.263,433.5 363,427.5C 362.697,423.106 362.03,418.773 361,414.5C 358.058,411.878 354.558,410.378 350.5,410C 347.978,409.043 345.811,407.543 344,405.5C 343.711,414.182 343.211,422.848 342.5,431.5C 343.036,436.948 345.202,441.615 349,445.5C 349.667,454.167 349.667,462.833 349,471.5C 346.537,475.978 344.037,480.478 341.5,485C 317.503,485.93 293.503,486.263 269.5,486C 265.687,485.852 262.521,484.352 260,481.5C 259.333,471.5 259.333,461.5 260,451.5C 263.985,448.559 268.485,446.892 273.5,446.5C 277.288,443.886 280.954,441.053 284.5,438C 285.448,437.517 286.448,437.351 287.5,437.5C 287.33,432.141 286.83,426.808 286,421.5C 282.569,411.44 280.235,401.106 279,390.5C 270.39,375.2 268.056,358.867 272,341.5C 274.827,338.671 276.827,335.337 278,331.5C 282.867,326.968 287.367,322.134 291.5,317C 282.097,317.441 273.097,315.775 264.5,312C 258.5,311.667 252.5,311.333 246.5,311C 241.167,307 235.833,303 230.5,299C 229.406,297.22 228.406,295.386 227.5,293.5C 222.5,291 217.5,288.5 212.5,286C 201.5,285.667 190.5,285.333 179.5,285C 177.582,282.072 174.915,280.406 171.5,280C 149.85,278.885 128.183,278.218 106.5,278C 104.051,277.275 101.717,276.275 99.5,275C 98.3655,271.995 96.6988,269.328 94.5,267C 64.1234,265.135 33.79,262.802 3.5,260C 1.55577,252.778 0.889099,245.278 1.5,237.5C 40.147,235.857 78.8137,235.357 117.5,236C 124.861,237.795 132.028,239.961 139,242.5C 163.833,241.402 188.666,240.236 213.5,239C 214.833,237.667 216.167,236.333 217.5,235C 229.034,234.198 240.534,234.365 252,235.5C 255.794,234.77 259.627,234.27 263.5,234C 263,233.5 262.5,233 262,232.5C 261.667,224.167 261.333,215.833 261,207.5C 258.259,205.933 257.092,203.599 257.5,200.5C 251.824,200.666 246.157,200.499 240.5,200C 240.208,196.194 238.708,193.027 236,190.5C 236.348,186.113 235.014,182.447 232,179.5C 231.667,178.167 231.333,176.833 231,175.5C 229,174.833 227,174.167 225,173.5C 225,149.503 225.333,125.503 226,101.5C 227.145,96.9174 227.811,92.2508 228,87.5C 231.05,83.9055 234.216,80.4055 237.5,77C 240.751,75.9023 243.417,73.9023 245.5,71C 247.392,70.0266 249.392,69.3599 251.5,69C 259.167,68.6667 266.833,68.3333 274.5,68C 275.056,67.6174 275.389,67.1174 275.5,66.5 Z"/></g>
<g><path style="opacity:1" fill="#010101" d="M 282.5,73.5 C 298.675,68.3685 307.342,74.0351 308.5,90.5C 308.458,93.9587 307.791,97.2921 306.5,100.5C 307.1,102.936 308.6,104.602 311,105.5C 312.677,112.646 312.844,119.813 311.5,127C 308.788,130.098 306.621,133.598 305,137.5C 304.405,141.175 305.238,141.342 307.5,138C 312.174,137.186 316.674,137.686 321,139.5C 325.917,136.625 330.751,133.625 335.5,130.5C 334.749,120.745 339.083,116.912 348.5,119C 349.5,120 350.5,121 351.5,122C 354.833,122.333 358.167,122.667 361.5,123C 367.53,128.346 372.697,134.179 377,140.5C 378.506,145.746 378.839,151.079 378,156.5C 377.5,157 377,157.5 376.5,158C 377.893,159.171 378.727,160.671 379,162.5C 382.246,164.479 385.246,166.812 388,169.5C 388.333,172.167 388.667,174.833 389,177.5C 396.43,186.712 403.097,196.379 409,206.5C 409.667,211.5 409.667,216.5 409,221.5C 408.333,222.167 407.667,222.833 407,223.5C 406.904,226.451 406.071,229.118 404.5,231.5C 407.484,233.984 410.318,236.65 413,239.5C 415.865,245.04 419.532,250.04 424,254.5C 424.667,260.5 424.667,266.5 424,272.5C 420.842,275.219 417.342,277.386 413.5,279C 420.322,285.752 422.322,293.752 419.5,303C 424.422,313.787 430.088,324.12 436.5,334C 441.292,339.464 446.126,344.964 451,350.5C 451.667,355.5 451.667,360.5 451,365.5C 446.371,376.225 438.871,384.391 428.5,390C 426.643,391.182 425.643,392.849 425.5,395C 426.213,400.476 426.713,405.976 427,411.5C 428.491,413.004 430.324,413.837 432.5,414C 436.638,420.442 440.138,427.276 443,434.5C 444.096,442.124 444.762,449.791 445,457.5C 447.185,466.799 449.185,476.133 451,485.5C 451.667,495.5 451.667,505.5 451,515.5C 447.085,517.746 444.252,520.912 442.5,525C 439.392,527.106 436.059,528.772 432.5,530C 425.5,530.667 418.5,530.667 411.5,530C 409.919,529.293 408.419,528.46 407,527.5C 405.466,523.289 405.133,518.956 406,514.5C 408.237,510.365 410.737,506.365 413.5,502.5C 415.234,498.299 415.734,493.965 415,489.5C 409.806,475.521 403.306,462.354 395.5,450C 394.234,449.691 393.067,449.191 392,448.5C 390.713,444.63 389.047,440.964 387,437.5C 380.93,432.167 375.263,426.5 370,420.5C 369.697,416.106 369.03,411.773 368,407.5C 365.058,404.878 361.558,403.378 357.5,403C 351.042,398.197 343.709,395.697 335.5,395.5C 336.805,410.202 336.472,424.868 334.5,439.5C 336.161,444.318 338.661,448.651 342,452.5C 342.667,456.5 342.667,460.5 342,464.5C 339.844,467.883 338.177,471.55 337,475.5C 336.167,476.333 335.333,477.167 334.5,478C 318.568,477.79 302.568,478.29 286.5,479.5C 279.214,480.416 272.714,478.749 267,474.5C 266.333,469.167 266.333,463.833 267,458.5C 270.985,455.559 275.485,453.892 280.5,453.5C 285.142,450.175 289.809,446.841 294.5,443.5C 295.167,442.167 295.833,440.833 296.5,439.5C 295.09,431.22 293.923,422.887 293,414.5C 289.569,404.44 287.235,394.106 286,383.5C 283.032,377.622 280.366,371.622 278,365.5C 277.333,360.5 277.333,355.5 278,350.5C 280.852,346.796 283.185,342.796 285,338.5C 294.167,328.667 303.333,318.833 312.5,309C 302.912,309.612 293.245,309.612 283.5,309C 277.451,307.208 271.618,305.042 266,302.5C 265.5,303 265,303.5 264.5,304C 260.833,304.667 257.167,304.667 253.5,304C 248.167,300 242.833,296 237.5,292C 236.406,290.22 235.406,288.386 234.5,286.5C 228.51,283.84 222.844,280.674 217.5,277C 207.238,278.296 196.905,278.629 186.5,278C 184.582,275.072 181.915,273.406 178.5,273C 156.85,271.885 135.183,271.218 113.5,271C 111.051,270.275 108.717,269.275 106.5,268C 105.365,264.995 103.699,262.328 101.5,260C 71.1234,258.135 40.79,255.802 10.5,253C 8.67869,250.544 8.01202,247.711 8.5,244.5C 42.4817,243 76.4817,242.5 110.5,243C 119.976,245.914 129.476,248.08 139,249.5C 166.178,248.563 193.345,247.396 220.5,246C 221.833,244.667 223.167,243.333 224.5,242C 230.833,241.333 237.167,241.333 243.5,242C 244.025,242.692 244.692,243.192 245.5,243.5C 255.777,242.295 266.11,241.461 276.5,241C 275.809,237.005 274.642,233.172 273,229.5C 271.667,228.167 270.333,226.833 269,225.5C 268.333,219.167 268.333,212.833 269,206.5C 269.5,205.5 270,204.5 270.5,203.5C 268.851,201.35 267.018,199.35 265,197.5C 264.814,195.1 264.314,192.766 263.5,190.5C 258.584,193.416 253.251,194.249 247.5,193C 247.208,189.194 245.708,186.027 243,183.5C 243.348,179.113 242.014,175.447 239,172.5C 238.667,171.167 238.333,169.833 238,168.5C 236,167.833 234,167.167 232,166.5C 230.588,161.468 231.588,157.135 235,153.5C 235.167,152.167 235.333,150.833 235.5,149.5C 234.611,145.581 233.611,141.747 232.5,138C 232.689,134.846 233.356,131.846 234.5,129C 233.351,124.403 232.684,119.736 232.5,115C 233.752,108.24 234.585,101.406 235,94.5C 238.05,90.9055 241.216,87.4055 244.5,84C 245.938,83.7811 247.271,83.2811 248.5,82.5C 250.024,80.1421 252.024,78.3088 254.5,77C 263.44,75.7846 272.44,75.118 281.5,75C 282.056,74.6174 282.389,74.1174 282.5,73.5 Z"/></g>
<g><path style="opacity:1" fill="#efefef" d="M 300.5,94.5 C 294.339,92.5289 288.006,91.5289 281.5,91.5C 283.196,88.7643 284.362,85.7643 285,82.5C 288.257,79.5715 292.091,78.7382 296.5,80C 300.806,84.077 302.14,88.9103 300.5,94.5 Z"/></g>
<g><path style="opacity:1" fill="#7e7f7e" d="M 256.5,85.5 C 257.5,85.5 258.5,85.5 259.5,85.5C 259.617,87.4835 258.95,89.1502 257.5,90.5C 255.246,89.286 254.913,87.6194 256.5,85.5 Z"/></g>
<g><path style="opacity:1" fill="#7e7f7e" d="M 274.5,88.5 C 275.239,88.369 275.906,88.5357 276.5,89C 272.56,96.4621 271.894,96.2954 274.5,88.5 Z"/></g>
<g><path style="opacity:1" fill="#e51a22" d="M 281.5,91.5 C 288.006,91.5289 294.339,92.5289 300.5,94.5C 299.321,98.2137 297.987,101.88 296.5,105.5C 294.739,107.68 292.573,109.346 290,110.5C 289.155,114.676 286.822,117.676 283,119.5C 278.329,117.077 276.162,113.077 276.5,107.5C 276.922,103.787 277.589,100.12 278.5,96.5C 279.935,95.0531 280.935,93.3864 281.5,91.5 Z"/></g>
<g><path style="opacity:1" fill="#7e7f7e" d="M 244.5,96.5 C 246.605,95.1811 248.605,95.5144 250.5,97.5C 248.243,98.7698 246.243,98.4364 244.5,96.5 Z"/></g>
<g><path style="opacity:1" fill="#7e7f7e" d="M 255.5,96.5 C 257.359,96.4609 258.692,97.2942 259.5,99C 257.055,99.9098 255.722,99.0764 255.5,96.5 Z"/></g>
<g><path style="opacity:1" fill="#7e7f7e" d="M 267.5,97.5 C 271.412,100.236 270.745,101.07 265.5,100C 266.381,99.2917 267.047,98.4584 267.5,97.5 Z"/></g>
<g><path style="opacity:1" fill="#7e7f7e" d="M 251.5,103.5 C 253.045,104.23 253.878,105.563 254,107.5C 254.308,106.692 254.808,106.025 255.5,105.5C 256.833,109.5 258.167,109.5 259.5,105.5C 260.614,106.723 260.781,108.056 260,109.5C 257.401,109.367 254.734,109.367 252,109.5C 251.505,107.527 251.338,105.527 251.5,103.5 Z"/></g>
<g><path style="opacity:1" fill="#7e7f7e" d="M 243.5,104.5 C 244.334,106.263 243.834,107.93 242,109.5C 241.25,108.874 240.416,108.374 239.5,108C 240.591,106.45 241.924,105.283 243.5,104.5 Z"/></g>
<g><path style="opacity:1" fill="#7e7f7e" d="M 246.5,104.5 C 247.5,104.5 248.5,104.5 249.5,104.5C 249.778,106.346 249.111,107.68 247.5,108.5C 246.571,107.311 246.238,105.978 246.5,104.5 Z"/></g>
<g><path style="opacity:1" fill="#7e7f7e" d="M 265.5,107.5 C 266.397,108.598 267.23,108.598 268,107.5C 267.585,112.729 266.751,112.729 265.5,107.5 Z"/></g>
<g><path style="opacity:1" fill="#7e7f7e" d="M 294.5,110.5 C 295.958,110.579 297.292,111.079 298.5,112C 297.437,113.188 296.103,113.688 294.5,113.5C 294.5,112.5 294.5,111.5 294.5,110.5 Z"/></g>
<g><path style="opacity:1" fill="#ec1c23" d="M 252.5,113.5 C 252.5,115.833 252.5,118.167 252.5,120.5C 254.5,120.833 256.5,121.167 258.5,121.5C 258.833,118.833 259.167,116.167 259.5,113.5C 262.421,113.283 265.087,113.949 267.5,115.5C 268.341,117.379 268.675,119.379 268.5,121.5C 267.833,122.5 267.167,123.5 266.5,124.5C 266.5,123.5 266.5,122.5 266.5,121.5C 259.842,120.164 257.175,122.83 258.5,129.5C 261.279,129.721 263.946,129.388 266.5,128.5C 266.5,129.5 266.5,130.5 266.5,131.5C 265.655,132.671 264.989,134.005 264.5,135.5C 261.941,135.802 259.607,135.468 257.5,134.5C 259.281,131.107 258.114,129.107 254,128.5C 253.228,128.645 252.561,128.978 252,129.5C 251.506,131.134 251.34,132.801 251.5,134.5C 249.833,134.5 248.167,134.5 246.5,134.5C 246.5,132.5 246.5,130.5 246.5,128.5C 245.167,128.5 243.833,128.5 242.5,128.5C 242.993,126.194 243.326,123.861 243.5,121.5C 244.5,121.5 245.5,121.5 246.5,121.5C 246.311,117.04 248.311,114.373 252.5,113.5 Z"/></g>
<g><path style="opacity:1" fill="#fefffe" d="M 252.5,113.5 C 254.833,113.5 257.167,113.5 259.5,113.5C 259.167,116.167 258.833,118.833 258.5,121.5C 256.5,121.167 254.5,120.833 252.5,120.5C 252.5,118.167 252.5,115.833 252.5,113.5 Z"/></g>
<g><path style="opacity:1" fill="#fefffe" d="M 267.5,115.5 C 269.764,116.219 272.097,116.552 274.5,116.5C 274.5,117.167 274.5,117.833 274.5,118.5C 272.483,119.529 270.483,120.529 268.5,121.5C 268.675,119.379 268.341,117.379 267.5,115.5 Z"/></g>
<g><path style="opacity:1" fill="#ec1c23" d="M 274.5,116.5 C 276.933,117.548 276.933,118.214 274.5,118.5C 274.5,117.833 274.5,117.167 274.5,116.5 Z"/></g>
<g><path style="opacity:1" fill="#272727" d="M 274.5,119.5 C 276.912,119.244 278.579,120.244 279.5,122.5C 283.371,120.857 285.538,122.191 286,126.5C 286.381,132.501 283.714,136.834 278,139.5C 275.775,137.758 273.275,136.591 270.5,136C 271.641,135.259 271.641,134.425 270.5,133.5C 271.736,132.643 273.069,131.977 274.5,131.5C 275.521,130.998 275.688,130.332 275,129.5C 271.47,132.601 268.97,131.934 267.5,127.5C 268.248,125.668 269.248,124.001 270.5,122.5C 271.667,124.167 272.833,125.833 274,127.5C 274.5,127 275,126.5 275.5,126C 272.229,124.083 271.896,121.916 274.5,119.5 Z"/></g>
<g><path style="opacity:1" fill="#1b8d3c" d="M 248.5,121.5 C 249.5,121.5 250.5,121.5 251.5,121.5C 251.5,123.833 251.5,126.167 251.5,128.5C 246.832,129.161 244.832,127.161 245.5,122.5C 246.791,122.737 247.791,122.404 248.5,121.5 Z"/></g>
<g><path style="opacity:1" fill="#1b8d3c" d="M 266.5,124.5 C 266.5,125.833 266.5,127.167 266.5,128.5C 263.946,129.388 261.279,129.721 258.5,129.5C 257.175,122.83 259.842,120.164 266.5,121.5C 266.5,122.5 266.5,123.5 266.5,124.5 Z"/></g>
<g><path style="opacity:1" fill="#ec1c23" d="M 290.5,124.5 C 290.573,126.027 289.906,127.027 288.5,127.5C 285.299,123.797 285.965,122.797 290.5,124.5 Z"/></g>
<g><path style="opacity:1" fill="#fefffe" d="M 290.5,124.5 C 292.345,125.995 292.678,127.662 291.5,129.5C 290.5,129.5 289.5,129.5 288.5,129.5C 288.5,128.833 288.5,128.167 288.5,127.5C 289.906,127.027 290.573,126.027 290.5,124.5 Z"/></g>
<g><path style="opacity:1" fill="#fefffe" d="M 342.5,125.5 C 349.384,127.264 349.717,129.264 343.5,131.5C 342.534,129.604 342.201,127.604 342.5,125.5 Z"/></g>
<g><path style="opacity:1" fill="#fefffe" d="M 242.5,128.5 C 243.833,128.5 245.167,128.5 246.5,128.5C 246.5,130.5 246.5,132.5 246.5,134.5C 244.712,134.785 243.045,134.452 241.5,133.5C 242.309,131.929 242.643,130.262 242.5,128.5 Z"/></g>
<g><path style="opacity:1" fill="#fefffe" d="M 257.5,134.5 C 255.5,134.5 253.5,134.5 251.5,134.5C 251.34,132.801 251.506,131.134 252,129.5C 252.561,128.978 253.228,128.645 254,128.5C 258.114,129.107 259.281,131.107 257.5,134.5 Z"/></g>
<g><path style="opacity:1" fill="#ec1c23" d="M 288.5,129.5 C 289.5,129.5 290.5,129.5 291.5,129.5C 290.545,131.746 289.878,134.079 289.5,136.5C 286.916,137.048 285.916,138.715 286.5,141.5C 284.365,141.853 283.032,141.02 282.5,139C 283.32,136.846 284.82,135.346 287,134.5C 287.352,132.753 287.852,131.086 288.5,129.5 Z"/></g>
<g><path style="opacity:1" fill="#fefffe" d="M 360.5,134.5 C 361.512,135.872 362.512,137.205 363.5,138.5C 363.539,139.583 363.873,140.583 364.5,141.5C 363.998,142.521 363.332,142.688 362.5,142C 359.783,137.616 356.116,134.282 351.5,132C 352,131.5 352.5,131 353,130.5C 355.64,131.656 358.14,132.989 360.5,134.5 Z"/></g>
<g><path style="opacity:1" fill="#636384" d="M 369.5,144.5 C 368.527,144.013 367.527,143.513 366.5,143C 365.947,141.122 364.947,139.622 363.5,138.5C 362.512,137.205 361.512,135.872 360.5,134.5C 359.71,133.206 358.71,132.039 357.5,131C 360.093,131.546 362.26,133.046 364,135.5C 365.856,138.556 367.689,141.556 369.5,144.5 Z"/></g>
<g><path style="opacity:1" fill="#fefffe" d="M 266.5,131.5 C 267.947,132.622 268.947,134.122 269.5,136C 267.613,136.78 265.946,136.613 264.5,135.5C 264.989,134.005 265.655,132.671 266.5,131.5 Z"/></g>
<g><path style="opacity:1" fill="#6c6d92" d="M 344.5,155.5 C 344.898,159.761 345.898,163.761 347.5,167.5C 346.312,168.364 345.145,169.364 344,170.5C 343.814,167.964 343.314,165.631 342.5,163.5C 340.608,160.724 338.941,157.724 337.5,154.5C 335.11,151.771 332.443,149.438 329.5,147.5C 328.909,146.849 328.243,146.182 327.5,145.5C 334.802,141.359 341.969,137.025 349,132.5C 353.697,133.864 357.197,136.697 359.5,141C 354.5,144.667 349.5,148.333 344.5,152C 343.209,153.292 343.209,154.458 344.5,155.5 Z"/></g>
<g><path style="opacity:1" fill="#e75c00" d="M 283.5,170.5 C 283.5,169.833 283.167,169.5 282.5,169.5C 281.282,168.839 279.949,168.172 278.5,167.5C 280.856,164.978 283.023,162.312 285,159.5C 285.588,156.861 285.088,154.527 283.5,152.5C 283.975,149.918 283.308,147.918 281.5,146.5C 281.265,145.903 280.765,145.57 280,145.5C 274.802,146.672 273.302,149.672 275.5,154.5C 274.185,156.316 272.685,157.983 271,159.5C 270.501,163.821 270.334,168.154 270.5,172.5C 268.5,172.5 266.5,172.5 264.5,172.5C 265.288,168.132 266.288,163.799 267.5,159.5C 267.89,157.018 266.89,155.685 264.5,155.5C 263.319,152.975 261.986,150.475 260.5,148C 255.962,145.564 251.295,143.398 246.5,141.5C 244.052,140.527 241.385,140.194 238.5,140.5C 238.33,139.178 238.663,138.011 239.5,137C 250.576,136.299 261.576,136.965 272.5,139C 276.333,140.491 280,142.158 283.5,144C 287.037,144.145 290.371,144.978 293.5,146.5C 292.515,148.098 292.349,149.765 293,151.5C 294.385,152.551 295.385,153.884 296,155.5C 298.133,156.418 300.3,156.584 302.5,156C 297.622,161.118 292.289,165.785 286.5,170C 285.552,170.483 284.552,170.649 283.5,170.5 Z"/></g>
<g><path style="opacity:1" fill="#fefffe" d="M 289.5,136.5 C 289.833,137.5 290.5,138.167 291.5,138.5C 291.5,139.5 291.5,140.5 291.5,141.5C 289.833,141.5 288.167,141.5 286.5,141.5C 285.916,138.715 286.916,137.048 289.5,136.5 Z"/></g>
<g><path style="opacity:1" fill="#ec1c23" d="M 291.5,138.5 C 292.586,138.62 293.253,139.287 293.5,140.5C 293.139,142.418 292.472,142.751 291.5,141.5C 291.5,140.5 291.5,139.5 291.5,138.5 Z"/></g>
<g><path style="opacity:1" fill="#e4d1ac" d="M 246.5,141.5 C 251.295,143.398 255.962,145.564 260.5,148C 261.986,150.475 263.319,152.975 264.5,155.5C 264.5,156.833 264.5,158.167 264.5,159.5C 263.5,159.5 262.5,159.5 261.5,159.5C 261.657,160.873 261.49,162.207 261,163.5C 259.185,165.1 258.018,167.1 257.5,169.5C 258.841,173.384 259.675,177.384 260,181.5C 260.837,183.007 262.004,183.507 263.5,183C 266.722,180.044 269.056,176.544 270.5,172.5C 271.065,170.614 272.065,168.947 273.5,167.5C 276.276,169.13 279.276,169.797 282.5,169.5C 283.167,169.5 283.5,169.833 283.5,170.5C 283.918,171.222 284.584,171.722 285.5,172C 280.833,176.667 276.167,181.333 271.5,186C 269.533,185.76 267.7,184.927 266,183.5C 261.658,184.698 257.491,186.365 253.5,188.5C 252.914,188.291 252.414,187.957 252,187.5C 251.667,185.167 251.333,182.833 251,180.5C 246.534,179.049 246.534,177.383 251,175.5C 251.667,174.5 251.667,173.5 251,172.5C 245.133,170.806 242.133,166.806 242,160.5C 240.507,162.56 238.674,162.893 236.5,161.5C 239.113,159.061 241.113,156.228 242.5,153C 243.793,152.51 245.127,152.343 246.5,152.5C 245.571,151.685 244.571,150.852 243.5,150C 245.899,150.216 247.899,149.049 249.5,146.5C 246.38,145.451 243.547,146.118 241,148.5C 240.503,146.19 240.337,143.857 240.5,141.5C 242.5,141.5 244.5,141.5 246.5,141.5 Z"/></g>
<g><path style="opacity:1" fill="#fefffe" d="M 310.5,144.5 C 313.32,144.248 315.986,144.748 318.5,146C 319.337,147.011 319.67,148.178 319.5,149.5C 315.833,150.167 312.167,150.833 308.5,151.5C 308.878,149.079 309.545,146.746 310.5,144.5 Z"/></g>
<g><path style="opacity:1" fill="#71739a" d="M 369.5,144.5 C 372.858,147.377 373.024,150.377 370,153.5C 369.502,150.518 369.335,147.518 369.5,144.5 Z"/></g>
<g><path style="opacity:1" fill="#a79a81" d="M 281.5,146.5 C 282.048,148.626 282.715,150.626 283.5,152.5C 285.088,154.527 285.588,156.861 285,159.5C 283.023,162.312 280.856,164.978 278.5,167.5C 279.949,168.172 281.282,168.839 282.5,169.5C 279.276,169.797 276.276,169.13 273.5,167.5C 272.065,168.947 271.065,170.614 270.5,172.5C 270.334,168.154 270.501,163.821 271,159.5C 272.685,157.983 274.185,156.316 275.5,154.5C 273.302,149.672 274.802,146.672 280,145.5C 280.765,145.57 281.265,145.903 281.5,146.5 Z"/></g>
<g><path style="opacity:1" fill="#000000" d="M 281.5,146.5 C 283.308,147.918 283.975,149.918 283.5,152.5C 282.715,150.626 282.048,148.626 281.5,146.5 Z"/></g>
<g><path style="opacity:1" fill="#fefffe" d="M 329.5,147.5 C 332.443,149.438 335.11,151.771 337.5,154.5C 338.941,157.724 340.608,160.724 342.5,163.5C 343.12,167.302 342.286,170.635 340,173.5C 339.517,172.552 339.351,171.552 339.5,170.5C 340.622,168.712 340.789,166.712 340,164.5C 337.533,160.4 334.699,156.566 331.5,153C 329.26,152.023 326.927,151.523 324.5,151.5C 323.791,150.596 322.791,150.263 321.5,150.5C 321.5,149.5 321.5,148.5 321.5,147.5C 324.167,147.5 326.833,147.5 329.5,147.5 Z"/></g>
<g><path style="opacity:1" fill="#5d5e7d" d="M 324.5,151.5 C 326.927,151.523 329.26,152.023 331.5,153C 334.699,156.566 337.533,160.4 340,164.5C 340.789,166.712 340.622,168.712 339.5,170.5C 333.238,177.235 326.071,183.235 318,188.5C 313.327,186.994 308.827,184.994 304.5,182.5C 302.766,181.326 301.766,179.66 301.5,177.5C 301.52,176.274 301.853,175.274 302.5,174.5C 305.852,178.869 309.852,182.535 314.5,185.5C 320.167,182 325.833,178.5 331.5,175C 332.749,172.79 332.582,170.624 331,168.5C 326.471,163.576 321.138,159.91 315,157.5C 312.516,157.826 310.349,158.826 308.5,160.5C 306.228,163.393 304.228,166.393 302.5,169.5C 301.883,169.611 301.383,169.944 301,170.5C 299.588,165.468 300.588,161.135 304,157.5C 304.483,156.552 304.649,155.552 304.5,154.5C 311.098,153.08 317.764,152.08 324.5,151.5 Z"/></g>
<g><path style="opacity:1" fill="#000000" d="M 246.5,152.5 C 248.355,152.272 249.188,152.939 249,154.5C 248.005,153.934 247.172,153.267 246.5,152.5 Z"/></g>
<g><path style="opacity:1" fill="#313131" d="M 364.5,162.5 C 364.5,163.167 364.167,163.5 363.5,163.5C 359.484,167.342 354.65,169.342 349,169.5C 348.722,168.584 348.222,167.918 347.5,167.5C 345.898,163.761 344.898,159.761 344.5,155.5C 344.47,154.503 344.97,153.836 346,153.5C 349.68,155.049 353.513,155.716 357.5,155.5C 357.335,159.182 357.501,162.848 358,166.5C 359.5,165 361,163.5 362.5,162C 363.437,161.308 364.103,161.475 364.5,162.5 Z"/></g>
<g><path style="opacity:1" fill="#000000" d="M 346.5,155.5 C 349.786,156.207 353.119,156.54 356.5,156.5C 356.665,159.85 356.498,163.183 356,166.5C 353.667,167.833 351.333,167.833 349,166.5C 348.005,162.855 347.172,159.188 346.5,155.5 Z"/></g>
<g><path style="opacity:1" fill="#bba26c" d="M 264.5,155.5 C 266.89,155.685 267.89,157.018 267.5,159.5C 266.288,163.799 265.288,168.132 264.5,172.5C 266.5,172.5 268.5,172.5 270.5,172.5C 269.056,176.544 266.722,180.044 263.5,183C 262.004,183.507 260.837,183.007 260,181.5C 259.675,177.384 258.841,173.384 257.5,169.5C 258.018,167.1 259.185,165.1 261,163.5C 261.49,162.207 261.657,160.873 261.5,159.5C 262.5,159.5 263.5,159.5 264.5,159.5C 264.5,158.167 264.5,156.833 264.5,155.5 Z"/></g>
<g><path style="opacity:1" fill="#69698d" d="M 302.5,174.5 C 302.5,172.833 302.5,171.167 302.5,169.5C 304.228,166.393 306.228,163.393 308.5,160.5C 310.349,158.826 312.516,157.826 315,157.5C 321.138,159.91 326.471,163.576 331,168.5C 332.582,170.624 332.749,172.79 331.5,175C 325.833,178.5 320.167,182 314.5,185.5C 309.852,182.535 305.852,178.869 302.5,174.5 Z"/></g>
<g><path style="opacity:1" fill="#fefffe" d="M 364.5,162.5 C 377.223,179.59 389.723,196.923 402,214.5C 402.667,215.5 402.667,216.5 402,217.5C 388.534,199.881 375.701,181.881 363.5,163.5C 364.167,163.5 364.5,163.167 364.5,162.5 Z"/></g>
<g><path style="opacity:1" fill="#c8c8c8" d="M 297.5,169.5 C 289.16,177.84 280.493,185.84 271.5,193.5C 269.915,192.998 269.415,191.998 270,190.5C 278.766,181.229 287.933,172.562 297.5,164.5C 298.666,166.167 298.666,167.834 297.5,169.5 Z"/></g>
<g><path style="opacity:1" fill="#fef200" d="M 297.5,169.5 C 299.64,171.881 299.973,174.548 298.5,177.5C 293.179,181.489 288.179,185.822 283.5,190.5C 279.239,191.902 277.405,194.902 278,199.5C 275.508,197.754 273.341,195.754 271.5,193.5C 280.493,185.84 289.16,177.84 297.5,169.5 Z"/></g>
<g><path style="opacity:1" fill="#fefffe" d="M 347.5,172.5 C 348.919,171.549 350.585,171.216 352.5,171.5C 352.491,173.308 352.991,174.975 354,176.5C 366.006,192.666 378.173,208.666 390.5,224.5C 391.659,228.122 391.825,231.789 391,235.5C 391.048,231.479 390.048,227.813 388,224.5C 374.636,206.981 361.136,189.647 347.5,172.5 Z"/></g>
<g><path style="opacity:1" fill="#b7b7b7" d="M 298.5,177.5 C 299.887,179.489 299.553,181.322 297.5,183C 294.167,185.667 290.833,188.333 287.5,191C 285.934,191.765 284.601,191.598 283.5,190.5C 288.179,185.822 293.179,181.489 298.5,177.5 Z"/></g>
<g><path style="opacity:1" fill="#ec1c23" d="M 292.5,190.5 C 294.863,187.146 297.863,184.48 301.5,182.5C 302.472,184.636 304.139,185.803 306.5,186C 302.221,188.736 297.554,190.236 292.5,190.5 Z"/></g>
<g><path style="opacity:1" fill="#f0332e" d="M 378.5,189.5 C 377.25,189.577 376.417,190.244 376,191.5C 374.915,189.343 373.749,189.176 372.5,191C 373.46,192.419 374.293,193.919 375,195.5C 379.047,197.182 379.88,196.515 377.5,193.5C 378.133,191.481 379.133,191.147 380.5,192.5C 381.551,193.222 382.218,194.222 382.5,195.5C 383.408,197.891 383.574,200.224 383,202.5C 383.995,201.934 384.828,201.267 385.5,200.5C 387.213,201.635 387.88,203.302 387.5,205.5C 382.055,205.575 377.888,203.242 375,198.5C 373.92,196.004 372.586,193.67 371,191.5C 370.911,182.922 373.411,182.255 378.5,189.5 Z"/></g>
<g><path style="opacity:1" fill="#efefef" d="M 282.5,206.5 C 284.5,206.5 286.5,206.5 288.5,206.5C 288.662,208.527 288.495,210.527 288,212.5C 284.667,216.167 281.333,219.833 278,223.5C 274.588,219.865 273.588,215.532 275,210.5C 279.472,203.032 285.639,197.199 293.5,193C 298.667,191.96 303.667,190.46 308.5,188.5C 315.443,188.626 320.109,191.793 322.5,198C 312.519,198.946 302.519,199.613 292.5,200C 289.986,203.726 286.652,205.892 282.5,206.5 Z"/></g>
<g><path style="opacity:1" fill="#ec1c23" d="M 292.5,190.5 C 291.998,192.085 290.998,192.585 289.5,192C 290.244,190.961 291.244,190.461 292.5,190.5 Z"/></g>
<g><path style="opacity:1" fill="#ffb4a5" d="M 378.5,189.5 C 379.551,190.222 380.218,191.222 380.5,192.5C 379.133,191.147 378.133,191.481 377.5,193.5C 379.88,196.515 379.047,197.182 375,195.5C 374.293,193.919 373.46,192.419 372.5,191C 373.749,189.176 374.915,189.343 376,191.5C 376.417,190.244 377.25,189.577 378.5,189.5 Z"/></g>
<g><path style="opacity:1" fill="#fefffe" d="M 282.5,193.5 C 284.199,193.34 285.866,193.506 287.5,194C 285.241,195.715 283.074,197.548 281,199.5C 280.252,197.16 280.752,195.16 282.5,193.5 Z"/></g>
<g><path style="opacity:1" fill="#ffd7ce" d="M 382.5,195.5 C 384.25,196.659 385.25,198.326 385.5,200.5C 384.828,201.267 383.995,201.934 383,202.5C 383.574,200.224 383.408,197.891 382.5,195.5 Z"/></g>
<g><path style="opacity:1" fill="#e91b23" d="M 315.5,200.5 C 317.65,203.481 319.983,206.481 322.5,209.5C 325.08,210.549 327.746,211.216 330.5,211.5C 331.357,214.549 331.357,217.549 330.5,220.5C 332.843,221.275 335.177,221.942 337.5,222.5C 341.72,229.402 346.386,236.069 351.5,242.5C 345.861,246.295 339.861,249.462 333.5,252C 329.514,252.499 325.514,252.666 321.5,252.5C 322.369,247.487 323.369,242.487 324.5,237.5C 324.167,236.833 323.833,236.167 323.5,235.5C 319.136,253.34 315.302,271.34 312,289.5C 309.906,294.059 307.74,298.559 305.5,303C 299.833,303.667 294.167,303.667 288.5,303C 281.062,300.577 273.729,298.077 266.5,295.5C 266.337,293.143 266.503,290.81 267,288.5C 268.889,285.888 270.389,283.055 271.5,280C 269.984,277.659 268.317,275.492 266.5,273.5C 266.811,272.522 267.478,271.855 268.5,271.5C 273.824,275.27 278.99,275.27 284,271.5C 291.181,274.689 297.847,278.689 304,283.5C 304.688,282.668 304.521,282.002 303.5,281.5C 298.058,276.884 292.224,272.884 286,269.5C 285.24,258.478 284.24,247.478 283,236.5C 281.938,233.138 280.772,229.804 279.5,226.5C 282.778,222.048 286.278,217.715 290,213.5C 290.333,210.5 290.667,207.5 291,204.5C 291.833,203.667 292.667,202.833 293.5,202C 300.858,201.684 308.191,201.184 315.5,200.5 Z"/></g>
<g><path style="opacity:1" fill="#c81019" d="M 315.5,200.5 C 318.898,200.18 322.232,200.513 325.5,201.5C 329.777,208.392 333.777,215.392 337.5,222.5C 335.177,221.942 332.843,221.275 330.5,220.5C 331.357,217.549 331.357,214.549 330.5,211.5C 327.746,211.216 325.08,210.549 322.5,209.5C 319.983,206.481 317.65,203.481 315.5,200.5 Z"/></g>
<g><path style="opacity:1" fill="#000000" d="M 282.5,206.5 C 282.261,208.467 282.594,210.301 283.5,212C 282.167,212.667 280.833,212.667 279.5,212C 280.953,210.351 281.953,208.518 282.5,206.5 Z"/></g>
<g><path style="opacity:1" fill="#f2f3f2" d="M 351.5,209.5 C 350.833,209.833 350.167,210.167 349.5,210.5C 348.859,209.518 348.193,208.518 347.5,207.5C 349.833,206.059 351.166,206.725 351.5,209.5 Z"/></g>
<g><path style="opacity:1" fill="#f2f3f2" d="M 345.5,213.5 C 345.5,214.167 345.167,214.5 344.5,214.5C 343.032,213.221 342.365,211.554 342.5,209.5C 343.5,209.5 344.5,209.5 345.5,209.5C 345.5,210.833 345.5,212.167 345.5,213.5 Z"/></g>
<g><path style="opacity:1" fill="#393a39" d="M 351.5,209.5 C 354.212,209.737 356.712,209.737 359,209.5C 361.035,212.245 362.701,215.245 364,218.5C 370.137,226.435 376.304,234.935 382.5,244C 380.924,244.388 379.591,243.888 378.5,242.5C 374.223,235.557 369.556,228.89 364.5,222.5C 361.973,227.194 358.306,230.694 353.5,233C 356.906,237.35 359.739,241.85 362,246.5C 355.982,238.821 349.649,231.488 343,224.5C 340.893,220.688 341.393,217.355 344.5,214.5C 345.167,214.5 345.5,214.167 345.5,213.5C 347.23,212.974 348.564,211.974 349.5,210.5C 350.167,210.167 350.833,209.833 351.5,209.5 Z"/></g>
<g><path style="opacity:1" fill="#000000" d="M 351.5,210.5 C 353.199,210.34 354.866,210.506 356.5,211C 358.333,214.569 360.667,217.736 363.5,220.5C 361.691,225.98 358.025,229.313 352.5,230.5C 351.228,230.43 350.062,230.097 349,229.5C 347.149,225.797 345.315,222.13 343.5,218.5C 343.667,217.833 343.833,217.167 344,216.5C 346.844,214.841 349.344,212.841 351.5,210.5 Z"/></g>
<g><path style="opacity:1" fill="#c81019" d="M 312.5,214.5 C 314.167,214.5 315.833,214.5 317.5,214.5C 317.703,216.39 317.037,217.89 315.5,219C 306.199,222.653 297.199,226.819 288.5,231.5C 287.692,231.192 287.025,230.692 286.5,230C 291.804,224.733 298.137,221.066 305.5,219C 308.187,217.951 310.52,216.451 312.5,214.5 Z"/></g>
<g><path style="opacity:1" fill="#393a39" d="M 370.5,214.5 C 372.887,216.913 375.054,219.58 377,222.5C 380.157,228.259 383.157,233.926 386,239.5C 380.154,231.509 374.987,223.176 370.5,214.5 Z"/></g>
<g><path style="opacity:1" fill="#000000" d="M 321.5,231.5 C 322.239,231.369 322.906,231.536 323.5,232C 322,233.5 320.5,235 319,236.5C 319.058,234.565 319.891,232.898 321.5,231.5 Z"/></g>
<g><path style="opacity:1" fill="#151615" d="M 394.5,235.5 C 399.578,237.132 403.745,240.132 407,244.5C 409.865,250.04 413.532,255.04 418,259.5C 418.667,262.167 418.667,264.833 418,267.5C 413.447,270.11 408.78,272.443 404,274.5C 400.333,269.167 396.667,263.833 393,258.5C 389.922,255.748 386.589,253.414 383,251.5C 382.03,248.173 383.197,246.007 386.5,245C 388.248,241.083 390.915,237.917 394.5,235.5 Z"/></g>
<g><path style="opacity:1" fill="#000000" d="M 315.5,238.5 C 316.525,238.897 316.692,239.563 316,240.5C 314.667,241.833 313.333,243.167 312,244.5C 311.333,243.833 311.333,243.167 312,242.5C 313.376,241.295 314.542,239.962 315.5,238.5 Z"/></g>
<g><path style="opacity:1" fill="#d9dad9" d="M 349.5,245.5 C 352.599,245.092 354.933,246.259 356.5,249C 345.382,255.198 333.382,258.032 320.5,257.5C 320.5,256.5 320.5,255.5 320.5,254.5C 331.594,255.77 341.261,252.77 349.5,245.5 Z"/></g>
<g><path style="opacity:1" fill="#7e7f7e" d="M 70.5,247.5 C 85.2691,246.891 99.9358,247.725 114.5,250C 119.29,252.395 124.29,254.228 129.5,255.5C 129.058,259.154 128.724,262.821 128.5,266.5C 117.944,268.857 111.278,265.024 108.5,255C 79.8604,252.631 51.1937,250.631 22.5,249C 38.6719,248.831 54.6719,248.331 70.5,247.5 Z"/></g>
<g><path style="opacity:1" fill="#e2c481" d="M 232.5,248.5 C 234.847,247.105 237.181,247.272 239.5,249C 236.974,251.082 234.64,250.916 232.5,248.5 Z"/></g>
<g><path style="opacity:1" fill="#efdcb5" d="M 229.5,266.5 C 229.982,265.584 230.315,264.584 230.5,263.5C 228.909,260.648 227.576,257.648 226.5,254.5C 229.373,246.48 231.54,246.814 233,255.5C 234.558,257.768 236.724,258.934 239.5,259C 242.465,260.943 244.131,263.61 244.5,267C 242.726,271.397 241.059,275.897 239.5,280.5C 234.341,278.088 229.341,275.421 224.5,272.5C 226.185,270.429 227.852,268.429 229.5,266.5 Z"/></g>
<g><path style="opacity:1" fill="#5c5d5c" d="M 272.5,248.5 C 275.833,248.5 279.167,248.5 282.5,248.5C 282.5,250.167 282.5,251.833 282.5,253.5C 266.836,254.417 251.17,254.917 235.5,255C 235.043,254.586 234.709,254.086 234.5,253.5C 236.624,252.851 238.624,252.017 240.5,251C 251.327,250.23 261.994,249.396 272.5,248.5 Z"/></g>
<g><path style="opacity:1" fill="#870014" d="M 379.5,248.5 C 381.768,262.269 383.268,276.269 384,290.5C 386.043,292.208 387.71,294.208 389,296.5C 390.878,304.427 391.878,312.427 392,320.5C 389.794,329.712 384.294,336.212 375.5,340C 358.814,342.392 358.481,341.392 374.5,337C 380.289,333.545 385.122,329.045 389,323.5C 389.706,315.792 389.372,308.125 388,300.5C 384.368,294.702 379.868,289.702 374.5,285.5C 376.681,276.584 376.847,267.584 375,258.5C 374.365,257.034 373.531,255.7 372.5,254.5C 374.678,252.255 377.012,250.255 379.5,248.5 Z"/></g>
<g><path style="opacity:1" fill="#ec1c23" d="M 363.5,279.5 C 354.135,275.067 344.135,273.233 333.5,274C 329.963,269.446 325.296,267.279 319.5,267.5C 319.5,264.833 319.5,262.167 319.5,259.5C 326.187,259.331 332.854,258.831 339.5,258C 345.618,256.105 351.618,253.939 357.5,251.5C 359.657,253.792 361.824,256.125 364,258.5C 364.821,265.679 364.655,272.679 363.5,279.5 Z"/></g>
<g><path style="opacity:1" fill="#7e7f7e" d="M 209.5,252.5 C 214.5,252.5 219.5,252.5 224.5,252.5C 224.5,253.833 224.5,255.167 224.5,256.5C 193.84,257.684 163.174,258.684 132.5,259.5C 132.5,258.167 132.5,256.833 132.5,255.5C 158.342,254.947 184.008,253.947 209.5,252.5 Z"/></g>
<g><path style="opacity:1" fill="#ec1c23" d="M 383.5,254.5 C 386.431,256.091 389.098,258.091 391.5,260.5C 399.58,271.659 407.413,282.993 415,294.5C 415.667,295.5 415.667,296.5 415,297.5C 412.741,300.785 410.574,304.118 408.5,307.5C 402.847,293.701 395.014,281.368 385,270.5C 384.023,265.207 383.523,259.874 383.5,254.5 Z"/></g>
<g><path style="opacity:1" fill="#885537" d="M 273.5,255.5 C 281.476,253.633 284.81,256.633 283.5,264.5C 276.426,264.574 269.426,265.241 262.5,266.5C 257.405,263.095 252.239,262.762 247,265.5C 245.969,262.461 244.135,259.961 241.5,258C 252.311,257.055 262.978,256.222 273.5,255.5 Z"/></g>
<g><path style="opacity:1" fill="#d9dad9" d="M 368.5,255.5 C 370.752,255.916 372.252,257.249 373,259.5C 374.93,268.572 374.764,277.572 372.5,286.5C 366.491,286.334 360.491,286.501 354.5,287C 351.344,289.157 348.511,291.657 346,294.5C 337.344,291.587 329.178,287.754 321.5,283C 320.663,281.989 320.33,280.822 320.5,279.5C 334.839,281.251 349.172,282.751 363.5,284C 364.701,283.097 365.535,281.931 366,280.5C 365.908,271.905 366.741,263.571 368.5,255.5 Z"/></g>
<g><path style="opacity:1" fill="#b87a56" d="M 222.5,259.5 C 225.491,259.33 227.491,260.663 228.5,263.5C 227.687,264.814 226.687,265.981 225.5,267C 216.5,267.667 207.5,267.667 198.5,267C 197.892,266.13 197.059,265.63 196,265.5C 194.527,267.046 192.694,268.046 190.5,268.5C 188.133,268.158 185.8,267.658 183.5,267C 166.17,266.5 148.837,266.333 131.5,266.5C 131.5,265.167 131.5,263.833 131.5,262.5C 156.833,262.078 182.167,261.578 207.5,261C 212.684,260.826 217.684,260.326 222.5,259.5 Z"/></g>
<g><path style="opacity:1" fill="#fef200" d="M 253.5,290.5 C 251.192,289.207 248.858,287.874 246.5,286.5C 244.842,285.819 243.175,284.985 241.5,284C 242.793,283.51 244.127,283.343 245.5,283.5C 247.867,284.914 250.367,286.248 253,287.5C 254.643,285.01 254.476,282.51 252.5,280C 250.391,278.354 248.057,277.188 245.5,276.5C 245.082,275.778 244.416,275.278 243.5,275C 245.32,271.864 247.32,268.864 249.5,266C 255.507,265.328 260.841,266.995 265.5,271C 261.339,274.154 258.839,278.321 258,283.5C 257.599,288.601 257.932,293.601 259,298.5C 257.846,297.257 256.512,296.257 255,295.5C 254.802,293.618 254.302,291.952 253.5,290.5 Z"/></g>
<g><path style="opacity:1" fill="#e2c481" d="M 229.5,266.5 C 232.738,267.633 236.071,268.467 239.5,269C 241.166,272.131 240.166,273.631 236.5,273.5C 234.133,273.158 231.8,272.658 229.5,272C 228.464,270.224 228.464,268.391 229.5,266.5 Z"/></g>
<g><path style="opacity:1" fill="#c81019" d="M 319.5,267.5 C 325.296,267.279 329.963,269.446 333.5,274C 344.135,273.233 354.135,275.067 363.5,279.5C 363.516,281.484 362.516,282.484 360.5,282.5C 345.806,280.497 331.139,278.33 316.5,276C 317.194,272.975 318.194,270.142 319.5,267.5 Z"/></g>
<g><path style="opacity:1" fill="#f6f6f6" d="M 198.5,269.5 C 206.84,269.334 215.173,269.5 223.5,270C 214.762,270.42 206.095,271.087 197.5,272C 198.252,271.329 198.586,270.496 198.5,269.5 Z"/></g>
<g><path style="opacity:1" fill="#f2f3f2" d="M 190.5,271.5 C 191.849,270.203 193.182,270.37 194.5,272C 193.072,272.579 191.738,272.412 190.5,271.5 Z"/></g>
<g><path style="opacity:1" fill="#c81019" d="M 266.5,273.5 C 268.317,275.492 269.984,277.659 271.5,280C 270.389,283.055 268.889,285.888 267,288.5C 266.503,290.81 266.337,293.143 266.5,295.5C 264.533,295.739 262.699,295.406 261,294.5C 258.469,286.273 260.302,279.273 266.5,273.5 Z"/></g>
<g><path style="opacity:1" fill="#c57232" d="M 384.5,273.5 C 386.477,275.814 388.477,278.147 390.5,280.5C 388.808,282.359 387.308,284.359 386,286.5C 385.417,282.168 384.917,277.835 384.5,273.5 Z"/></g>
<g><path style="opacity:1" fill="#adadad" d="M 245.5,276.5 C 248.057,277.188 250.391,278.354 252.5,280C 254.476,282.51 254.643,285.01 253,287.5C 250.367,286.248 247.867,284.914 245.5,283.5C 244.791,282.596 243.791,282.263 242.5,282.5C 242.031,279.607 243.031,277.607 245.5,276.5 Z"/></g>
<g><path style="opacity:1" fill="#c57132" d="M 391.5,282.5 C 396.982,289.445 401.482,297.112 405,305.5C 407.348,312.854 409.681,320.187 412,327.5C 413.626,329.917 415.126,332.417 416.5,335C 400.5,343 384.5,351 368.5,359C 366.833,359.667 365.167,359.667 363.5,359C 361.781,355.49 360.948,351.656 361,347.5C 358.295,346.047 357.461,344.047 358.5,341.5C 372.652,345.245 383.818,340.912 392,328.5C 394.129,323.338 394.796,318.005 394,312.5C 393.108,306.814 392.108,301.147 391,295.5C 389.542,293.04 387.709,290.873 385.5,289C 388.303,287.549 390.303,285.382 391.5,282.5 Z"/></g>
<g><path style="opacity:1" fill="#870014" d="M 315.5,284.5 C 319.573,290.973 323.406,297.64 327,304.5C 330.36,307.86 333.694,311.194 337,314.5C 337.251,316.433 337.751,318.266 338.5,320C 337.07,321.44 335.403,321.774 333.5,321C 328.613,316.113 323.779,311.279 319,306.5C 317.845,301.023 316.012,295.856 313.5,291C 314.23,288.846 314.897,286.679 315.5,284.5 Z"/></g>
<g><path style="opacity:1" fill="#adadad" d="M 246.5,286.5 C 248.858,287.874 251.192,289.207 253.5,290.5C 253.649,291.552 253.483,292.552 253,293.5C 250.167,291.333 247.333,289.167 244.5,287C 245.094,286.536 245.761,286.369 246.5,286.5 Z"/></g>
<g><path style="opacity:1" fill="#d9dad9" d="M 327.5,288.5 C 332.593,292.198 338.259,294.532 344.5,295.5C 344.67,296.822 344.337,297.989 343.5,299C 339.678,299.585 336.011,299.085 332.5,297.5C 332.405,294.728 331.071,292.728 328.5,291.5C 327.873,290.583 327.539,289.583 327.5,288.5 Z"/></g>
<g><path style="opacity:1" fill="#069de0" d="M 373.5,297.5 C 373.179,295.952 372.179,295.285 370.5,295.5C 369.653,294.034 368.32,293.2 366.5,293C 363.197,292.785 360.03,292.618 357,292.5C 352.333,295.586 348.166,299.253 344.5,303.5C 344.389,302.883 344.056,302.383 343.5,302C 345.487,300.681 346.654,298.848 347,296.5C 349.41,293.719 352.243,291.385 355.5,289.5C 375.591,284.924 386.258,292.924 387.5,313.5C 385.5,313.5 383.5,313.5 381.5,313.5C 382.504,306.175 379.838,300.841 373.5,297.5 Z"/></g>
<g><path style="opacity:1" fill="#000000" d="M 370.5,295.5 C 362.057,292.474 354.724,294.307 348.5,301C 350.473,301.495 352.473,301.662 354.5,301.5C 351.972,302.166 349.306,302.832 346.5,303.5C 345.199,305.444 344.199,307.444 343.5,309.5C 343.325,307.379 343.659,305.379 344.5,303.5C 348.166,299.253 352.333,295.586 357,292.5C 360.03,292.618 363.197,292.785 366.5,293C 368.32,293.2 369.653,294.034 370.5,295.5 Z"/></g>
<g><path style="opacity:1" fill="#1291cf" d="M 370.5,295.5 C 370.973,296.906 371.973,297.573 373.5,297.5C 373.611,298.117 373.944,298.617 374.5,299C 372.292,299.191 370.292,299.691 368.5,300.5C 364.03,301.486 359.363,301.819 354.5,301.5C 352.473,301.662 350.473,301.495 348.5,301C 354.724,294.307 362.057,292.474 370.5,295.5 Z"/></g>
<g><path style="opacity:1" fill="#000000" d="M 370.5,295.5 C 372.179,295.285 373.179,295.952 373.5,297.5C 371.973,297.573 370.973,296.906 370.5,295.5 Z"/></g>
<g><path style="opacity:1" fill="#679114" d="M 331.5,299.5 C 334.301,300.766 337.301,301.599 340.5,302C 338.357,304.758 337.19,307.924 337,311.5C 334.221,308.721 331.387,305.887 328.5,303C 329.71,301.961 330.71,300.794 331.5,299.5 Z"/></g>
<g><path style="opacity:1" fill="#00a1e8" d="M 368.5,300.5 C 376.278,299.942 380.278,303.609 380.5,311.5C 377.941,311.198 375.607,311.532 373.5,312.5C 365.299,312.517 357.299,313.183 349.5,314.5C 347.5,314.5 345.5,314.5 343.5,314.5C 343.5,312.833 343.5,311.167 343.5,309.5C 344.199,307.444 345.199,305.444 346.5,303.5C 349.306,302.832 351.972,302.166 354.5,301.5C 359.363,301.819 364.03,301.486 368.5,300.5 Z"/></g>
<g><path style="opacity:1" fill="#00a1e8" d="M 344.5,303.5 C 343.659,305.379 343.325,307.379 343.5,309.5C 342.549,310.919 342.216,312.585 342.5,314.5C 341.5,314.5 340.5,314.5 339.5,314.5C 339.301,311.059 339.801,307.726 341,304.5C 342.011,303.663 343.178,303.33 344.5,303.5 Z"/></g>
<g><path style="opacity:1" fill="#d1f31a" d="M 415.5,319.5 C 411.673,318.073 409.34,315.24 408.5,311C 409.098,309.699 410.098,308.865 411.5,308.5C 414.368,311.847 415.702,315.514 415.5,319.5 Z"/></g>
<g><path style="opacity:1" fill="#7a471f" d="M 400.5,310.5 C 405.52,312.147 405.52,313.481 400.5,314.5C 399.667,317.5 398.833,320.5 398,323.5C 397.754,320.11 397.254,316.777 396.5,313.5C 397.624,312.141 398.958,311.141 400.5,310.5 Z"/></g>
<g><path style="opacity:1" fill="#1192d1" d="M 373.5,312.5 C 375.833,312.5 378.167,312.5 380.5,312.5C 380.5,314.5 380.5,316.5 380.5,318.5C 379.275,319.937 378.275,321.604 377.5,323.5C 374.694,324.168 372.028,324.834 369.5,325.5C 365.03,326.486 360.363,326.819 355.5,326.5C 351.713,327.186 348.546,326.186 346,323.5C 346.355,324.959 346.189,326.293 345.5,327.5C 341.933,324.367 339.933,320.367 339.5,315.5C 340.5,315.5 341.5,315.5 342.5,315.5C 342.833,320.833 343.167,320.833 343.5,315.5C 345.735,315.795 347.735,315.461 349.5,314.5C 357.299,313.183 365.299,312.517 373.5,312.5 Z"/></g>
<g><path style="opacity:1" fill="#000000" d="M 380.5,318.5 C 380.528,320.582 379.861,322.416 378.5,324C 378.833,324.333 379.167,324.667 379.5,325C 376.941,326.777 374.274,328.277 371.5,329.5C 372.343,327.827 373.676,326.66 375.5,326C 373.527,325.505 371.527,325.338 369.5,325.5C 372.028,324.834 374.694,324.168 377.5,323.5C 378.275,321.604 379.275,319.937 380.5,318.5 Z"/></g>
<g><path style="opacity:1" fill="#178e69" d="M 415.5,319.5 C 418.452,320.399 419.619,322.399 419,325.5C 418.074,323.308 416.907,321.308 415.5,319.5 Z"/></g>
<g><path style="opacity:1" fill="#1b634b" d="M 328.5,320.5 C 326.588,323.919 324.088,326.919 321,329.5C 318.295,326.964 315.795,324.297 313.5,321.5C 314.669,317.656 317.002,314.656 320.5,312.5C 324.21,314.21 326.877,316.877 328.5,320.5 Z"/></g>
<g><path style="opacity:1" fill="#5f8415" d="M 328.5,320.5 C 330.5,320.5 331.5,321.5 331.5,323.5C 330.496,327.008 328.829,330.174 326.5,333C 327.025,333.692 327.692,334.192 328.5,334.5C 330.526,331.103 332.526,327.77 334.5,324.5C 336.03,323.933 337.53,323.267 339,322.5C 339.464,323.094 339.631,323.761 339.5,324.5C 336.634,329.057 333.634,333.557 330.5,338C 333.349,341.016 336.349,343.85 339.5,346.5C 342.271,343.295 344.271,339.628 345.5,335.5C 351.049,335.454 353.716,338.454 353.5,344.5C 352.527,346.948 352.194,349.615 352.5,352.5C 351.876,352.917 351.543,353.584 351.5,354.5C 351.747,355.713 352.414,356.38 353.5,356.5C 353.842,357.338 354.508,357.672 355.5,357.5C 356.261,358.391 357.261,359.058 358.5,359.5C 359.484,362.428 359.817,365.428 359.5,368.5C 359.565,368.938 359.399,369.272 359,369.5C 357.188,367.7 355.355,366.033 353.5,364.5C 352.448,362.744 350.781,362.077 348.5,362.5C 347.527,360.052 347.194,357.385 347.5,354.5C 345.901,354.768 344.568,354.434 343.5,353.5C 341.972,352.691 340.306,352.024 338.5,351.5C 329.187,342.189 319.52,333.189 309.5,324.5C 310.262,322.738 311.596,321.738 313.5,321.5C 315.795,324.297 318.295,326.964 321,329.5C 324.088,326.919 326.588,323.919 328.5,320.5 Z"/></g>
<g><path style="opacity:1" fill="#658c15" d="M 424.5,344.5 C 424.5,345.167 424.167,345.5 423.5,345.5C 422.508,345.328 421.842,345.662 421.5,346.5C 421.5,347.167 421.167,347.5 420.5,347.5C 418.943,344.376 417.277,341.209 415.5,338C 417.18,337.653 418.18,336.653 418.5,335C 417.136,331.773 415.636,328.606 414,325.5C 413.333,324.5 413.333,323.5 414,322.5C 417.822,329.806 421.322,337.139 424.5,344.5 Z"/></g>
<g><path style="opacity:1" fill="#d1f31a" d="M 331.5,323.5 C 332.791,323.263 333.791,323.596 334.5,324.5C 332.526,327.77 330.526,331.103 328.5,334.5C 327.692,334.192 327.025,333.692 326.5,333C 328.829,330.174 330.496,327.008 331.5,323.5 Z"/></g>
<g><path style="opacity:1" fill="#000000" d="M 355.5,326.5 C 353.5,327.167 351.5,327.833 349.5,328.5C 348.292,327.766 346.959,327.433 345.5,327.5C 346.189,326.293 346.355,324.959 346,323.5C 348.546,326.186 351.713,327.186 355.5,326.5 Z"/></g>
<g><path style="opacity:1" fill="#00a1e8" d="M 369.5,325.5 C 371.527,325.338 373.527,325.505 375.5,326C 373.676,326.66 372.343,327.827 371.5,329.5C 367.925,331.186 364.092,332.186 360,332.5C 356.202,331.847 352.702,330.514 349.5,328.5C 351.5,327.833 353.5,327.167 355.5,326.5C 360.363,326.819 365.03,326.486 369.5,325.5 Z"/></g>
<g><path style="opacity:1" fill="#d1f31a" d="M 308.5,326.5 C 311.137,330.248 314.137,333.748 317.5,337C 318.449,337.617 319.282,337.451 320,336.5C 322.333,338.833 324.667,341.167 327,343.5C 327.684,344.784 327.517,345.951 326.5,347C 330.043,350.049 333.709,352.882 337.5,355.5C 337.56,356.043 337.893,356.376 338.5,356.5C 339.386,355.675 339.719,354.675 339.5,353.5C 340.833,353.5 342.167,353.5 343.5,353.5C 344.568,354.434 345.901,354.768 347.5,354.5C 347.194,357.385 347.527,360.052 348.5,362.5C 350.028,363.309 351.694,363.976 353.5,364.5C 355.355,366.033 357.188,367.7 359,369.5C 359.399,369.272 359.565,368.938 359.5,368.5C 360.022,366.781 361.022,365.448 362.5,364.5C 364.202,366.8 364.868,369.467 364.5,372.5C 369.833,372.5 375.167,372.5 380.5,372.5C 380.5,370.833 380.5,369.167 380.5,367.5C 381.791,367.737 382.791,367.404 383.5,366.5C 383.938,366.565 384.272,366.399 384.5,366C 383.934,365.005 383.267,364.172 382.5,363.5C 382.34,361.847 381.674,360.514 380.5,359.5C 380.343,358.127 380.51,356.793 381,355.5C 381.77,354.402 382.603,354.402 383.5,355.5C 383.232,357.099 383.566,358.432 384.5,359.5C 383.887,362.969 385.221,364.969 388.5,365.5C 388.5,366.833 388.5,368.167 388.5,369.5C 389.791,369.737 390.791,369.404 391.5,368.5C 394.152,368.59 396.485,367.924 398.5,366.5C 400.796,366.804 401.129,367.804 399.5,369.5C 396.505,369.294 393.838,369.96 391.5,371.5C 390.942,373.789 389.776,375.789 388,377.5C 387.188,381.689 387.355,385.689 388.5,389.5C 388.5,392.833 388.5,396.167 388.5,399.5C 387.5,399.5 386.5,399.5 385.5,399.5C 385.5,392.5 385.5,385.5 385.5,378.5C 384.167,378.5 382.833,378.5 381.5,378.5C 381.5,376.833 381.5,375.167 381.5,373.5C 378.115,373.846 374.782,374.512 371.5,375.5C 369.218,374.777 366.884,374.443 364.5,374.5C 363.424,377.734 362.757,381.068 362.5,384.5C 361.527,386.948 361.194,389.615 361.5,392.5C 360.842,393.398 360.176,394.398 359.5,395.5C 358.614,394.675 358.281,393.675 358.5,392.5C 359.479,389.375 359.813,386.042 359.5,382.5C 360.139,381.903 360.472,381.07 360.5,380C 360.046,378.061 359.379,376.228 358.5,374.5C 359.885,373.053 359.552,372.053 357.5,371.5C 355.025,368.759 352.025,366.759 348.5,365.5C 348.44,364.957 348.107,364.624 347.5,364.5C 346.571,365.689 346.238,367.022 346.5,368.5C 344.821,368.285 343.821,368.952 343.5,370.5C 341.261,375.894 339.594,381.561 338.5,387.5C 336.821,387.715 335.821,387.048 335.5,385.5C 337.739,380.784 339.405,375.784 340.5,370.5C 341.434,369.432 341.768,368.099 341.5,366.5C 340.5,366.5 339.5,366.5 338.5,366.5C 338.663,364.143 338.497,361.81 338,359.5C 334.115,355.48 329.948,351.814 325.5,348.5C 324.295,349.577 323.628,350.91 323.5,352.5C 322.5,352.5 321.5,352.5 320.5,352.5C 319.458,351.209 318.292,351.209 317,352.5C 313.809,358.221 310.642,363.888 307.5,369.5C 306.596,368.791 306.263,367.791 306.5,366.5C 310.168,361.473 313.501,356.139 316.5,350.5C 316.376,349.893 316.043,349.56 315.5,349.5C 314.833,348.167 313.833,347.167 312.5,346.5C 312.5,345.833 312.5,345.167 312.5,344.5C 313.933,343.167 315.267,341.667 316.5,340C 312.702,336.188 309.035,332.355 305.5,328.5C 305.973,327.094 306.973,326.427 308.5,326.5 Z"/></g>
<g><path style="opacity:1" fill="#178e69" d="M 424.5,333.5 C 422.269,331.924 420.603,329.757 419.5,327C 420.332,326.312 420.998,326.479 421.5,327.5C 422.513,329.527 423.513,331.527 424.5,333.5 Z"/></g>
<g><path style="opacity:1" fill="#178e69" d="M 423.5,326.5 C 425.708,327.918 426.542,329.918 426,332.5C 424.878,330.593 424.045,328.593 423.5,326.5 Z"/></g>
<g><path style="opacity:1" fill="#00a1e8" d="M 345.5,327.5 C 346.959,327.433 348.292,327.766 349.5,328.5C 350.6,329.605 351.267,330.938 351.5,332.5C 347.932,333.303 345.932,331.636 345.5,327.5 Z"/></g>
<g><path style="opacity:1" fill="#597a16" d="M 305.5,328.5 C 309.035,332.355 312.702,336.188 316.5,340C 315.267,341.667 313.933,343.167 312.5,344.5C 311.761,344.631 311.094,344.464 310.5,344C 307.635,340.308 304.635,336.808 301.5,333.5C 302.604,331.611 303.937,329.945 305.5,328.5 Z"/></g>
<g><path style="opacity:1" fill="#000000" d="M 349.5,328.5 C 352.702,330.514 356.202,331.847 360,332.5C 364.092,332.186 367.925,331.186 371.5,329.5C 371.649,330.552 371.483,331.552 371,332.5C 370.667,332.167 370.333,331.833 370,331.5C 367.262,332.482 364.428,333.148 361.5,333.5C 361.737,334.791 361.404,335.791 360.5,336.5C 360.5,335.5 360.5,334.5 360.5,333.5C 357.728,333.78 355.228,333.113 353,331.5C 352.617,332.056 352.117,332.389 351.5,332.5C 351.267,330.938 350.6,329.605 349.5,328.5 Z"/></g>
<g><path style="opacity:1" fill="#00a1e8" d="M 360.5,336.5 C 359.842,337.398 359.176,338.398 358.5,339.5C 357.205,338.902 355.872,338.402 354.5,338C 353.833,336 352.5,334.667 350.5,334C 351.056,333.617 351.389,333.117 351.5,332.5C 352.117,332.389 352.617,332.056 353,331.5C 355.228,333.113 357.728,333.78 360.5,333.5C 360.5,334.5 360.5,335.5 360.5,336.5 Z"/></g>
<g><path style="opacity:1" fill="#049ee2" d="M 360.5,336.5 C 361.404,335.791 361.737,334.791 361.5,333.5C 364.428,333.148 367.262,332.482 370,331.5C 370.333,331.833 370.667,332.167 371,332.5C 371.483,331.552 371.649,330.552 371.5,329.5C 374.274,328.277 376.941,326.777 379.5,325C 379.167,324.667 378.833,324.333 378.5,324C 379.861,322.416 380.528,320.582 380.5,318.5C 381.434,317.432 381.768,316.099 381.5,314.5C 383.5,314.5 385.5,314.5 387.5,314.5C 387.665,317.518 387.498,320.518 387,323.5C 380.158,331.503 371.658,336.836 361.5,339.5C 360.614,338.675 360.281,337.675 360.5,336.5 Z"/></g>
<g><path style="opacity:1" fill="#178a67" d="M 343.5,331.5 C 341.937,333.617 340.604,335.95 339.5,338.5C 337.302,336.178 337.636,334.011 340.5,332C 339.829,331.014 339.829,329.847 340.5,328.5C 342.854,327.506 343.854,328.506 343.5,331.5 Z"/></g>
<g><path style="opacity:1" fill="#178e69" d="M 424.5,333.5 C 426.841,335.101 427.507,337.101 426.5,339.5C 424.583,337.72 423.916,335.72 424.5,333.5 Z"/></g>
<g><path style="opacity:1" fill="#178e69" d="M 427.5,342.5 C 426.596,341.791 426.263,340.791 426.5,339.5C 427.95,338.342 428.95,338.842 429.5,341C 428.584,341.278 427.918,341.778 427.5,342.5 Z"/></g>
<g><path style="opacity:1" fill="#178e69" d="M 412.5,341.5 C 412.747,339.025 413.413,339.025 414.5,341.5C 414.03,342.463 413.363,342.463 412.5,341.5 Z"/></g>
<g><path style="opacity:1" fill="#1a523e" d="M 339.5,324.5 C 340.434,325.568 340.768,326.901 340.5,328.5C 339.829,329.847 339.829,331.014 340.5,332C 337.636,334.011 337.302,336.178 339.5,338.5C 340.604,335.95 341.937,333.617 343.5,331.5C 345.104,332.287 345.771,333.62 345.5,335.5C 344.271,339.628 342.271,343.295 339.5,346.5C 336.349,343.85 333.349,341.016 330.5,338C 333.634,333.557 336.634,329.057 339.5,324.5 Z"/></g>
<g><path style="opacity:1" fill="#178e69" d="M 354.5,346.5 C 354.167,345.833 353.833,345.167 353.5,344.5C 354.29,343.391 354.79,342.058 355,340.5C 355.789,342.712 355.622,344.712 354.5,346.5 Z"/></g>
<g><path style="opacity:1" fill="#178e69" d="M 412.5,341.5 C 412.5,342.167 412.5,342.833 412.5,343.5C 411.391,343.443 410.391,343.11 409.5,342.5C 409.804,340.204 410.804,339.871 412.5,341.5 Z"/></g>
<g><path style="opacity:1" fill="#d1f31a" d="M 432.5,343.5 C 431.733,342.828 431.066,341.995 430.5,341C 432.061,340.812 432.728,341.645 432.5,343.5 Z"/></g>
<g><path style="opacity:1" fill="#405615" d="M 309.5,324.5 C 319.52,333.189 329.187,342.189 338.5,351.5C 338.768,353.099 338.434,354.432 337.5,355.5C 333.709,352.882 330.043,350.049 326.5,347C 327.517,345.951 327.684,344.784 327,343.5C 324.667,341.167 322.333,338.833 320,336.5C 319.282,337.451 318.449,337.617 317.5,337C 314.137,333.748 311.137,330.248 308.5,326.5C 308.328,325.508 308.662,324.842 309.5,324.5 Z"/></g>
<g><path style="opacity:1" fill="#1a7054" d="M 301.5,333.5 C 304.635,336.808 307.635,340.308 310.5,344C 311.094,344.464 311.761,344.631 312.5,344.5C 312.5,345.167 312.5,345.833 312.5,346.5C 311.504,346.414 310.671,346.748 310,347.5C 306.68,352.647 302.847,357.314 298.5,361.5C 297.504,361.586 296.671,361.252 296,360.5C 293.925,356.421 291.092,352.921 287.5,350C 290.928,343.409 295.594,337.909 301.5,333.5 Z"/></g>
<g><path style="opacity:1" fill="#d1f31a" d="M 427.5,342.5 C 428.496,342.414 429.329,342.748 430,343.5C 432.041,347.084 434.208,350.584 436.5,354C 435.584,354.278 434.918,354.778 434.5,355.5C 431.407,351.653 429.074,347.32 427.5,342.5 Z"/></g>
<g><path style="opacity:1" fill="#393a39" d="M 403.5,343.5 C 408.606,357.83 412.94,372.497 416.5,387.5C 413.951,387.387 411.618,388.054 409.5,389.5C 408.914,389.291 408.414,388.957 408,388.5C 404.655,374.785 401.155,361.118 397.5,347.5C 399.565,346.143 401.565,344.81 403.5,343.5 Z"/></g>
<g><path style="opacity:1" fill="#1b644b" d="M 409.5,342.5 C 410.391,343.11 411.391,343.443 412.5,343.5C 413.167,344.5 413.833,345.5 414.5,346.5C 414.389,347.117 414.056,347.617 413.5,348C 414.756,348.417 415.423,349.25 415.5,350.5C 414.564,351.974 413.23,352.974 411.5,353.5C 409.637,352.033 408.304,350.033 407.5,347.5C 408.471,346.038 408.138,344.705 406.5,343.5C 407.133,341.481 408.133,341.147 409.5,342.5 Z"/></g>
<g><path style="opacity:1" fill="#178e69" d="M 414.5,346.5 C 414.459,342.757 415.126,342.59 416.5,346C 415.906,346.464 415.239,346.631 414.5,346.5 Z"/></g>
<g><path style="opacity:1" fill="#d1f31a" d="M 432.5,343.5 C 434.703,344.884 436.703,346.551 438.5,348.5C 439.127,349.417 439.461,350.417 439.5,351.5C 438.833,351.5 438.5,351.833 438.5,352.5C 435.263,350.37 433.263,347.37 432.5,343.5 Z"/></g>
<g><path style="opacity:1" fill="#bdda1d" d="M 424.5,344.5 C 427.111,348.815 429.444,353.315 431.5,358C 430.756,359.039 429.756,359.539 428.5,359.5C 427.662,359.158 427.328,358.492 427.5,357.5C 427.448,354.654 426.448,352.32 424.5,350.5C 423.662,350.158 423.328,349.492 423.5,348.5C 423.5,347.5 423.5,346.5 423.5,345.5C 424.167,345.5 424.5,345.167 424.5,344.5 Z"/></g>
<g><path style="opacity:1" fill="#000000" d="M 421.5,346.5 C 421.842,345.662 422.508,345.328 423.5,345.5C 423.5,346.5 423.5,347.5 423.5,348.5C 422.833,347.833 422.167,347.167 421.5,346.5 Z"/></g>
<g><path style="opacity:1" fill="#5e8216" d="M 312.5,346.5 C 313.833,347.167 314.833,348.167 315.5,349.5C 311.149,354.23 307.149,359.23 303.5,364.5C 300.715,365.084 299.048,364.084 298.5,361.5C 302.847,357.314 306.68,352.647 310,347.5C 310.671,346.748 311.504,346.414 312.5,346.5 Z"/></g>
<g><path style="opacity:1" fill="#178e69" d="M 354.5,346.5 C 355.301,348.042 355.634,349.708 355.5,351.5C 355.634,349.708 355.301,348.042 354.5,346.5 Z"/></g>
<g><path style="opacity:1" fill="#d1f31a" d="M 421.5,346.5 C 422.167,347.167 422.833,347.833 423.5,348.5C 423.328,349.492 423.662,350.158 424.5,350.5C 424.935,353.157 425.935,355.491 427.5,357.5C 427.328,358.492 427.662,359.158 428.5,359.5C 427.833,360.167 427.167,360.833 426.5,361.5C 423.181,357.586 421.181,352.92 420.5,347.5C 421.167,347.5 421.5,347.167 421.5,346.5 Z"/></g>
<g><path style="opacity:1" fill="#435a15" d="M 315.5,349.5 C 316.043,349.56 316.376,349.893 316.5,350.5C 313.501,356.139 310.168,361.473 306.5,366.5C 304.821,366.715 303.821,366.048 303.5,364.5C 307.149,359.23 311.149,354.23 315.5,349.5 Z"/></g>
<g><path style="opacity:1" fill="#5b7e16" d="M 338.5,366.5 C 339.806,367.467 340.473,368.801 340.5,370.5C 339.405,375.784 337.739,380.784 335.5,385.5C 334.883,385.611 334.383,385.944 334,386.5C 332.124,385.391 330.291,384.391 328.5,383.5C 330.588,381.664 331.921,379.331 332.5,376.5C 334.059,374.392 335.392,372.059 336.5,369.5C 332.817,365.82 328.817,362.486 324.5,359.5C 321.395,363.374 319.062,367.708 317.5,372.5C 316.326,373.514 315.66,374.847 315.5,376.5C 312.188,374.843 309.521,372.51 307.5,369.5C 310.642,363.888 313.809,358.221 317,352.5C 318.292,351.209 319.458,351.209 320.5,352.5C 322.043,354.557 323.043,354.557 323.5,352.5C 323.628,350.91 324.295,349.577 325.5,348.5C 329.948,351.814 334.115,355.48 338,359.5C 338.497,361.81 338.663,364.143 338.5,366.5 Z"/></g>
<g><path style="opacity:1" fill="#178e69" d="M 355.5,351.5 C 357.54,350.525 357.873,351.192 356.5,353.5C 355.702,353.043 355.369,352.376 355.5,351.5 Z"/></g>
<g><path style="opacity:1" fill="#5d8116" d="M 415.5,350.5 C 418.665,351.495 419.665,353.495 418.5,356.5C 416.777,358.218 414.777,359.551 412.5,360.5C 411.229,358.891 410.229,357.058 409.5,355C 410.416,354.722 411.082,354.222 411.5,353.5C 413.23,352.974 414.564,351.974 415.5,350.5 Z"/></g>
<g><path style="opacity:1" fill="#000000" d="M 424.5,350.5 C 426.448,352.32 427.448,354.654 427.5,357.5C 425.935,355.491 424.935,353.157 424.5,350.5 Z"/></g>
<g><path style="opacity:1" fill="#000000" d="M 338.5,351.5 C 340.306,352.024 341.972,352.691 343.5,353.5C 342.167,353.5 340.833,353.5 339.5,353.5C 339.719,354.675 339.386,355.675 338.5,356.5C 337.893,356.376 337.56,356.043 337.5,355.5C 338.434,354.432 338.768,353.099 338.5,351.5 Z"/></g>
<g><path style="opacity:1" fill="#638a15" d="M 439.5,351.5 C 443.903,352.829 445.57,355.496 444.5,359.5C 444.167,358.5 443.5,357.833 442.5,357.5C 441.167,355.833 439.833,354.167 438.5,352.5C 438.5,351.833 438.833,351.5 439.5,351.5 Z"/></g>
<g><path style="opacity:1" fill="#eddab5" d="M 297.5,365.5 C 301.281,369.445 305.281,373.278 309.5,377C 308.43,379.806 307.097,382.473 305.5,385C 305.833,385.5 306.167,386 306.5,386.5C 307.857,384.104 309.357,381.771 311,379.5C 313.368,380.717 315.868,381.551 318.5,382C 320.389,383.764 322.389,385.264 324.5,386.5C 323.833,386.5 323.5,386.833 323.5,387.5C 323.167,388.167 322.833,388.833 322.5,389.5C 322.5,389.833 322.5,390.167 322.5,390.5C 321.833,390.5 321.167,390.5 320.5,390.5C 311.67,389.558 302.67,388.892 293.5,388.5C 292.955,385.187 292.455,381.854 292,378.5C 289.468,371.563 286.635,364.73 283.5,358C 283.625,356.373 284.125,354.873 285,353.5C 285.718,352.549 286.551,352.383 287.5,353C 291.047,357.041 294.38,361.208 297.5,365.5 Z"/></g>
<g><path style="opacity:1" fill="#000000" d="M 320.5,352.5 C 321.5,352.5 322.5,352.5 323.5,352.5C 323.043,354.557 322.043,354.557 320.5,352.5 Z"/></g>
<g><path style="opacity:1" fill="#000000" d="M 352.5,352.5 C 352.433,353.959 352.766,355.292 353.5,356.5C 352.414,356.38 351.747,355.713 351.5,354.5C 351.543,353.584 351.876,352.917 352.5,352.5 Z"/></g>
<g><path style="opacity:1" fill="#178e69" d="M 352.5,352.5 C 353.586,352.62 354.253,353.287 354.5,354.5C 354.457,355.416 354.124,356.083 353.5,356.5C 352.766,355.292 352.433,353.959 352.5,352.5 Z"/></g>
<g><path style="opacity:1" fill="#1b6149" d="M 396.5,357.5 C 396.263,358.791 396.596,359.791 397.5,360.5C 395.491,362.065 393.157,363.065 390.5,363.5C 389.417,363.539 388.417,363.873 387.5,364.5C 386.304,362.855 385.304,361.189 384.5,359.5C 383.566,358.432 383.232,357.099 383.5,355.5C 384.049,353.313 385.215,352.646 387,353.5C 389.156,351.383 391.656,349.716 394.5,348.5C 397.044,349.735 397.044,350.901 394.5,352C 397.459,353.046 398.126,354.879 396.5,357.5 Z"/></g>
<g><path style="opacity:1" fill="#178e69" d="M 355.5,357.5 C 355.281,356.325 355.614,355.325 356.5,354.5C 357.798,356.052 357.465,357.052 355.5,357.5 Z"/></g>
<g><path style="opacity:1" fill="#178e69" d="M 380.5,359.5 C 380.53,360.497 380.03,361.164 379,361.5C 377.989,360.944 377.156,360.278 376.5,359.5C 377.803,355.518 379.137,355.518 380.5,359.5 Z"/></g>
<g><path style="opacity:1" fill="#d1f31a" d="M 418.5,356.5 C 420.176,357.183 420.843,358.517 420.5,360.5C 417.996,361.584 415.663,362.917 413.5,364.5C 411.891,363.335 411.557,362.001 412.5,360.5C 414.777,359.551 416.777,358.218 418.5,356.5 Z"/></g>
<g><path style="opacity:1" fill="#178e69" d="M 396.5,357.5 C 398.796,357.804 399.129,358.804 397.5,360.5C 396.596,359.791 396.263,358.791 396.5,357.5 Z"/></g>
<g><path style="opacity:1" fill="#1a6e52" d="M 442.5,357.5 C 443.5,357.833 444.167,358.5 444.5,359.5C 444.483,361.028 443.816,361.528 442.5,361C 442.833,360.667 443.167,360.333 443.5,360C 440.598,359.081 440.265,358.248 442.5,357.5 Z"/></g>
<g><path style="opacity:1" fill="#178e69" d="M 376.5,359.5 C 376.5,360.5 376.5,361.5 376.5,362.5C 374.708,362.634 373.042,362.301 371.5,361.5C 372.425,358.869 374.091,358.202 376.5,359.5 Z"/></g>
<g><path style="opacity:1" fill="#000000" d="M 384.5,359.5 C 385.304,361.189 386.304,362.855 387.5,364.5C 388.417,363.873 389.417,363.539 390.5,363.5C 388.82,365.726 389.153,367.393 391.5,368.5C 390.791,369.404 389.791,369.737 388.5,369.5C 388.5,368.167 388.5,366.833 388.5,365.5C 385.221,364.969 383.887,362.969 384.5,359.5 Z"/></g>
<g><path style="opacity:1" fill="#679114" d="M 362.5,364.5 C 361.722,363.844 361.056,363.011 360.5,362C 361.99,360.366 363.324,360.699 364.5,363C 364.164,364.03 363.497,364.53 362.5,364.5 Z"/></g>
<g><path style="opacity:1" fill="#178e69" d="M 371.5,361.5 C 370.833,362.167 370.167,362.833 369.5,363.5C 368.022,363.762 366.689,363.429 365.5,362.5C 367.554,361.135 369.554,360.801 371.5,361.5 Z"/></g>
<g><path style="opacity:1" fill="#5b7e16" d="M 397.5,360.5 C 399.845,361.988 400.179,363.988 398.5,366.5C 396.485,367.924 394.152,368.59 391.5,368.5C 389.153,367.393 388.82,365.726 390.5,363.5C 393.157,363.065 395.491,362.065 397.5,360.5 Z"/></g>
<g><path style="opacity:1" fill="#597b16" d="M 420.5,360.5 C 422.104,361.287 422.771,362.62 422.5,364.5C 420.611,365.604 418.945,366.937 417.5,368.5C 414.129,369.805 412.796,368.471 413.5,364.5C 415.663,362.917 417.996,361.584 420.5,360.5 Z"/></g>
<g><path style="opacity:1" fill="#178a67" d="M 434.5,355.5 C 438.535,358.669 441.035,362.669 442,367.5C 440.374,364.872 438.374,362.539 436,360.5C 434.991,358.975 434.491,357.308 434.5,355.5 Z"/></g>
<g><path style="opacity:1" fill="#638a15" d="M 426.5,361.5 C 427.675,361.281 428.675,361.614 429.5,362.5C 430.414,364.664 431.581,366.664 433,368.5C 433,367.167 433,365.833 433,364.5C 434.515,366.677 436.015,368.844 437.5,371C 437.108,372.011 436.441,372.511 435.5,372.5C 436.245,375.324 435.079,377.324 432,378.5C 428.798,373.067 426.965,367.401 426.5,361.5 Z"/></g>
<g><path style="opacity:1" fill="#000000" d="M 348.5,362.5 C 350.781,362.077 352.448,362.744 353.5,364.5C 351.694,363.976 350.028,363.309 348.5,362.5 Z"/></g>
<g><path style="opacity:1" fill="#1a7558" d="M 382.5,363.5 C 383.267,364.172 383.934,365.005 384.5,366C 384.272,366.399 383.938,366.565 383.5,366.5C 381.446,366.635 379.779,365.968 378.5,364.5C 379.211,362.158 380.544,361.825 382.5,363.5 Z"/></g>
<g><path style="opacity:1" fill="#178e69" d="M 369.5,363.5 C 370.675,363.281 371.675,363.614 372.5,364.5C 370.235,365.647 367.902,365.814 365.5,365C 367.058,364.79 368.391,364.29 369.5,363.5 Z"/></g>
<g><path style="opacity:1" fill="#178e69" d="M 378.5,364.5 C 377.448,366.256 375.781,366.923 373.5,366.5C 373.5,365.5 373.5,364.5 373.5,363.5C 375.292,363.366 376.958,363.699 378.5,364.5 Z"/></g>
<g><path style="opacity:1" fill="#000000" d="M 348.5,365.5 C 347.566,366.568 347.232,367.901 347.5,369.5C 346.041,369.433 344.708,369.766 343.5,370.5C 343.821,368.952 344.821,368.285 346.5,368.5C 346.238,367.022 346.571,365.689 347.5,364.5C 348.107,364.624 348.44,364.957 348.5,365.5 Z"/></g>
<g><path style="opacity:1" fill="#e2c481" d="M 297.5,365.5 C 299.68,366.117 301.68,367.117 303.5,368.5C 306.917,371.757 310.25,375.257 313.5,379C 315.167,379.333 316.833,379.667 318.5,380C 320.984,382.744 323.984,384.744 327.5,386C 326.552,386.483 325.552,386.649 324.5,386.5C 322.389,385.264 320.389,383.764 318.5,382C 315.868,381.551 313.368,380.717 311,379.5C 309.357,381.771 307.857,384.104 306.5,386.5C 306.167,386 305.833,385.5 305.5,385C 307.097,382.473 308.43,379.806 309.5,377C 305.281,373.278 301.281,369.445 297.5,365.5 Z"/></g>
<g><path style="opacity:1" fill="#597b16" d="M 348.5,365.5 C 352.025,366.759 355.025,368.759 357.5,371.5C 358.11,372.391 358.443,373.391 358.5,374.5C 357.903,374.735 357.57,375.235 357.5,376C 359.013,377.879 359.679,380.046 359.5,382.5C 359.813,386.042 359.479,389.375 358.5,392.5C 357.603,393.598 356.77,393.598 356,392.5C 355.506,390.866 355.34,389.199 355.5,387.5C 356.634,385.034 356.801,382.367 356,379.5C 355.329,378.748 354.496,378.414 353.5,378.5C 352.486,377.326 351.153,376.66 349.5,376.5C 346.969,373.621 345.969,374.288 346.5,378.5C 345.549,379.919 345.216,381.585 345.5,383.5C 344.566,384.568 344.232,385.901 344.5,387.5C 342.449,390.147 340.449,390.147 338.5,387.5C 339.594,381.561 341.261,375.894 343.5,370.5C 344.708,369.766 346.041,369.433 347.5,369.5C 347.232,367.901 347.566,366.568 348.5,365.5 Z"/></g>
<g><path style="opacity:1" fill="#1a5641" d="M 332.5,376.5 C 331.59,373.589 329.59,371.589 326.5,370.5C 325.239,372.453 324.073,374.453 323,376.5C 321.982,374.072 320.148,372.738 317.5,372.5C 319.062,367.708 321.395,363.374 324.5,359.5C 328.817,362.486 332.817,365.82 336.5,369.5C 335.392,372.059 334.059,374.392 332.5,376.5 Z"/></g>
<g><path style="opacity:1" fill="#000000" d="M 338.5,366.5 C 339.5,366.5 340.5,366.5 341.5,366.5C 341.768,368.099 341.434,369.432 340.5,370.5C 340.473,368.801 339.806,367.467 338.5,366.5 Z"/></g>
<g><path style="opacity:1" fill="#679114" d="M 373.5,366.5 C 375.265,367.461 377.265,367.795 379.5,367.5C 379.5,368.833 379.5,370.167 379.5,371.5C 374.833,371.5 370.167,371.5 365.5,371.5C 365.5,369.833 365.5,368.167 365.5,366.5C 368.167,366.5 370.833,366.5 373.5,366.5 Z"/></g>
<g><path style="opacity:1" fill="#000000" d="M 399.5,369.5 C 397.095,370.768 394.428,371.435 391.5,371.5C 393.838,369.96 396.505,369.294 399.5,369.5 Z"/></g>
<g><path style="opacity:1" fill="#5e8316" d="M 399.5,369.5 C 402.031,371.624 402.698,374.291 401.5,377.5C 399.181,377.992 397.181,378.992 395.5,380.5C 394.5,380.5 393.5,380.5 392.5,380.5C 392.263,381.791 392.596,382.791 393.5,383.5C 393.216,385.415 393.549,387.081 394.5,388.5C 394.704,391.518 395.037,394.518 395.5,397.5C 393.418,397.472 391.584,398.139 390,399.5C 389.821,395.975 389.321,392.641 388.5,389.5C 387.355,385.689 387.188,381.689 388,377.5C 389.776,375.789 390.942,373.789 391.5,371.5C 394.428,371.435 397.095,370.768 399.5,369.5 Z"/></g>
<g><path style="opacity:1" fill="#000000" d="M 357.5,371.5 C 359.552,372.053 359.885,373.053 358.5,374.5C 358.443,373.391 358.11,372.391 357.5,371.5 Z"/></g>
<g><path style="opacity:1" fill="#1a7356" d="M 332.5,376.5 C 331.921,379.331 330.588,381.664 328.5,383.5C 323.976,381.348 319.643,379.014 315.5,376.5C 315.66,374.847 316.326,373.514 317.5,372.5C 320.148,372.738 321.982,374.072 323,376.5C 324.073,374.453 325.239,372.453 326.5,370.5C 329.59,371.589 331.59,373.589 332.5,376.5 Z"/></g>
<g><path style="opacity:1" fill="#178e69" d="M 425.5,376.5 C 425.167,377.167 424.833,377.833 424.5,378.5C 423.833,377.833 423.167,377.167 422.5,376.5C 422.238,375.022 422.571,373.689 423.5,372.5C 424.172,373.949 424.839,375.282 425.5,376.5 Z"/></g>
<g><path style="opacity:1" fill="#178e69" d="M 425.5,376.5 C 425.451,371.461 426.118,371.295 427.5,376C 426.906,376.464 426.239,376.631 425.5,376.5 Z"/></g>
<g><path style="opacity:1" fill="#188463" d="M 422.5,364.5 C 422.29,366.1 422.623,367.934 423.5,370C 422.576,371.811 421.743,371.645 421,369.5C 420.691,370.766 420.191,371.933 419.5,373C 420.814,373.985 421.814,375.152 422.5,376.5C 422.567,377.959 422.234,379.292 421.5,380.5C 419.973,380.427 418.973,381.094 418.5,382.5C 417.03,378.999 415.696,375.332 414.5,371.5C 415.77,370.712 416.77,369.712 417.5,368.5C 418.945,366.937 420.611,365.604 422.5,364.5 Z"/></g>
<g><path style="opacity:1" fill="#000000" d="M 349.5,376.5 C 348.222,376.782 347.222,377.449 346.5,378.5C 345.969,374.288 346.969,373.621 349.5,376.5 Z"/></g>
<g><path style="opacity:1" fill="#000000" d="M 358.5,374.5 C 359.379,376.228 360.046,378.061 360.5,380C 360.472,381.07 360.139,381.903 359.5,382.5C 359.679,380.046 359.013,377.879 357.5,376C 357.57,375.235 357.903,374.735 358.5,374.5 Z"/></g>
<g><path style="opacity:1" fill="#679114" d="M 377.5,392.5 C 377.5,389.5 377.5,386.5 377.5,383.5C 372.833,383.5 368.167,383.5 363.5,383.5C 364.167,380.833 364.833,378.167 365.5,375.5C 370.272,376.929 374.939,376.595 379.5,374.5C 380.452,376.045 380.785,377.712 380.5,379.5C 381.833,379.5 383.167,379.5 384.5,379.5C 384.666,386.175 384.5,392.842 384,399.5C 382.301,400.406 380.467,400.739 378.5,400.5C 378.806,397.615 378.473,394.948 377.5,392.5 Z"/></g>
<g><path style="opacity:1" fill="#178e69" d="M 349.5,376.5 C 350.72,378.284 350.72,379.95 349.5,381.5C 348.1,380.9 347.1,379.9 346.5,378.5C 347.222,377.449 348.222,376.782 349.5,376.5 Z"/></g>
<g><path style="opacity:1" fill="#000000" d="M 422.5,376.5 C 423.167,377.167 423.833,377.833 424.5,378.5C 424.5,379.833 424.5,381.167 424.5,382.5C 423.778,381.449 422.778,380.782 421.5,380.5C 422.234,379.292 422.567,377.959 422.5,376.5 Z"/></g>
<g><path style="opacity:1" fill="#178e69" d="M 426.5,380.5 C 426.819,376.7 427.819,376.534 429.5,380C 428.648,381.728 427.648,381.895 426.5,380.5 Z"/></g>
<g><path style="opacity:1" fill="#000000" d="M 346.5,378.5 C 347.1,379.9 348.1,380.9 349.5,381.5C 347.801,381.527 346.467,382.194 345.5,383.5C 345.216,381.585 345.549,379.919 346.5,378.5 Z"/></g>
<g><path style="opacity:1" fill="#178e69" d="M 353.5,378.5 C 353.719,379.675 353.386,380.675 352.5,381.5C 351.202,379.948 351.535,378.948 353.5,378.5 Z"/></g>
<g><path style="opacity:1" fill="#178e69" d="M 424.5,378.5 C 425.167,379.167 425.833,379.833 426.5,380.5C 426.5,381.833 425.833,382.5 424.5,382.5C 424.5,381.167 424.5,379.833 424.5,378.5 Z"/></g>
<g><path style="opacity:1" fill="#000000" d="M 395.5,380.5 C 394.449,381.222 393.782,382.222 393.5,383.5C 392.596,382.791 392.263,381.791 392.5,380.5C 393.5,380.5 394.5,380.5 395.5,380.5 Z"/></g>
<g><path style="opacity:1" fill="#000000" d="M 421.5,380.5 C 421.027,381.906 420.027,382.573 418.5,382.5C 418.973,381.094 419.973,380.427 421.5,380.5 Z"/></g>
<g><path style="opacity:1" fill="#178e69" d="M 421.5,380.5 C 422.778,380.782 423.778,381.449 424.5,382.5C 423.207,384.296 421.707,385.963 420,387.5C 418.731,386.095 418.231,384.429 418.5,382.5C 420.027,382.573 421.027,381.906 421.5,380.5 Z"/></g>
<g><path style="opacity:1" fill="#178e69" d="M 349.5,381.5 C 349.795,383.735 349.461,385.735 348.5,387.5C 347.791,386.596 346.791,386.263 345.5,386.5C 345.5,385.5 345.5,384.5 345.5,383.5C 346.467,382.194 347.801,381.527 349.5,381.5 Z"/></g>
<g><path style="opacity:1" fill="#178e69" d="M 350.5,382.5 C 351.649,382.791 352.316,383.624 352.5,385C 352.167,385.833 351.833,386.667 351.5,387.5C 350.548,385.955 350.215,384.288 350.5,382.5 Z"/></g>
<g><path style="opacity:1" fill="#000000" d="M 345.5,383.5 C 345.5,384.5 345.5,385.5 345.5,386.5C 346.791,386.263 347.791,386.596 348.5,387.5C 347.167,387.5 345.833,387.5 344.5,387.5C 344.232,385.901 344.566,384.568 345.5,383.5 Z"/></g>
<g><path style="opacity:1" fill="#178e69" d="M 355.5,387.5 C 354.883,387.611 354.383,387.944 354,388.5C 353.202,386.741 353.369,385.074 354.5,383.5C 355.429,384.689 355.762,386.022 355.5,387.5 Z"/></g>
<g><path style="opacity:1" fill="#178e69" d="M 362.5,384.5 C 364.5,384.5 366.5,384.5 368.5,384.5C 368.5,385.833 368.5,387.167 368.5,388.5C 366.5,388.5 364.5,388.5 362.5,388.5C 362.5,387.167 362.5,385.833 362.5,384.5 Z"/></g>
<g><path style="opacity:1" fill="#178e69" d="M 370.5,389.5 C 369.699,387.958 369.366,386.292 369.5,384.5C 370.833,384.5 372.167,384.5 373.5,384.5C 373.5,386.167 373.5,387.833 373.5,389.5C 372.5,389.5 371.5,389.5 370.5,389.5 Z"/></g>
<g><path style="opacity:1" fill="#178e69" d="M 374.5,384.5 C 375.649,384.791 376.316,385.624 376.5,387C 376.167,387.833 375.833,388.667 375.5,389.5C 374.548,387.955 374.215,386.288 374.5,384.5 Z"/></g>
<g><path style="opacity:1" fill="#1b694f" d="M 401.5,377.5 C 404.196,379.597 403.862,381.43 400.5,383C 403.195,384.416 403.861,386.416 402.5,389C 406.032,390.918 406.032,392.418 402.5,393.5C 401.914,393.291 401.414,392.957 401,392.5C 400.333,394.5 399,395.833 397,396.5C 396.454,393.621 395.621,390.954 394.5,388.5C 393.549,387.081 393.216,385.415 393.5,383.5C 393.782,382.222 394.449,381.222 395.5,380.5C 397.181,378.992 399.181,377.992 401.5,377.5 Z"/></g>
<g><path style="opacity:1" fill="#ec1c23" d="M 323.5,387.5 C 324.5,387.5 325.5,387.5 326.5,387.5C 326.167,388.167 325.833,388.833 325.5,389.5C 324.5,389.5 323.5,389.5 322.5,389.5C 322.833,388.833 323.167,388.167 323.5,387.5 Z"/></g>
<g><path style="opacity:1" fill="#fefffe" d="M 326.5,387.5 C 327.757,388.623 327.424,389.289 325.5,389.5C 325.833,388.833 326.167,388.167 326.5,387.5 Z"/></g>
<g><path style="opacity:1" fill="#178e69" d="M 344.5,387.5 C 345.833,387.5 347.167,387.5 348.5,387.5C 348.719,388.675 348.386,389.675 347.5,390.5C 345.787,390.121 344.787,389.121 344.5,387.5 Z"/></g>
<g><path style="opacity:1" fill="#178e69" d="M 352.5,389.5 C 350.694,392.338 349.694,392.005 349.5,388.5C 350.791,388.263 351.791,388.596 352.5,389.5 Z"/></g>
<g><path style="opacity:1" fill="#ec1c23" d="M 298.5,389.5 C 298.833,390.167 299.167,390.833 299.5,391.5C 297.396,391.799 295.396,391.466 293.5,390.5C 295.045,389.548 296.712,389.215 298.5,389.5 Z"/></g>
<g><path style="opacity:1" fill="#9d9d9d" d="M 298.5,389.5 C 301.096,390.265 303.763,390.599 306.5,390.5C 306.611,391.117 306.944,391.617 307.5,392C 309.81,392.497 312.143,392.663 314.5,392.5C 315.167,392.5 315.833,392.5 316.5,392.5C 312.719,393.783 307.052,393.783 299.5,392.5C 299.5,392.167 299.5,391.833 299.5,391.5C 299.167,390.833 298.833,390.167 298.5,389.5 Z"/></g>
<g><path style="opacity:1" fill="#178e69" d="M 352.5,389.5 C 354.337,389.639 354.67,390.306 353.5,391.5C 352.702,391.043 352.369,390.376 352.5,389.5 Z"/></g>
<g><path style="opacity:1" fill="#178e69" d="M 361.5,392.5 C 362.404,391.791 362.737,390.791 362.5,389.5C 364.5,389.5 366.5,389.5 368.5,389.5C 368.5,390.833 368.5,392.167 368.5,393.5C 365.941,393.802 363.607,393.468 361.5,392.5 Z"/></g>
<g><path style="opacity:1" fill="#178e69" d="M 370.5,389.5 C 371.209,390.404 372.209,390.737 373.5,390.5C 373.5,391.833 373.5,393.167 373.5,394.5C 372.5,394.5 371.5,394.5 370.5,394.5C 369.28,392.716 369.28,391.05 370.5,389.5 Z"/></g>
<g><path style="opacity:1" fill="#fec90d" d="M 413.5,389.5 C 414.833,389.5 416.167,389.5 417.5,389.5C 418.628,397.116 419.295,404.783 419.5,412.5C 417.856,412.714 416.356,412.38 415,411.5C 412.634,404.955 410.801,398.288 409.5,391.5C 411.38,391.771 412.713,391.104 413.5,389.5 Z"/></g>
<g><path style="opacity:1" fill="#ec1c23" d="M 306.5,390.5 C 308.833,390.5 311.167,390.5 313.5,390.5C 313.833,391.167 314.167,391.833 314.5,392.5C 312.143,392.663 309.81,392.497 307.5,392C 306.944,391.617 306.611,391.117 306.5,390.5 Z"/></g>
<g><path style="opacity:1" fill="#fefffe" d="M 313.5,390.5 C 314.833,390.5 316.167,390.5 317.5,390.5C 317.167,391.167 316.833,391.833 316.5,392.5C 315.833,392.5 315.167,392.5 314.5,392.5C 314.167,391.833 313.833,391.167 313.5,390.5 Z"/></g>
<g><path style="opacity:1" fill="#dc1d22" d="M 317.5,390.5 C 318.5,390.5 319.5,390.5 320.5,390.5C 321.167,390.5 321.833,390.5 322.5,390.5C 324.5,390.5 326.5,390.5 328.5,390.5C 328.635,392.554 327.968,394.221 326.5,395.5C 324.597,395.796 322.93,396.463 321.5,397.5C 318.411,398.785 315.078,399.451 311.5,399.5C 308.833,399.5 306.167,399.5 303.5,399.5C 301.369,398.686 299.036,398.186 296.5,398C 295.139,396.416 294.472,394.582 294.5,392.5C 296.167,392.5 297.833,392.5 299.5,392.5C 307.052,393.783 312.719,393.783 316.5,392.5C 316.833,391.833 317.167,391.167 317.5,390.5 Z"/></g>
<g><path style="opacity:1" fill="#178e69" d="M 377.5,392.5 C 377.179,394.048 376.179,394.715 374.5,394.5C 374.334,390.627 375.334,389.96 377.5,392.5 Z"/></g>
<g><path style="opacity:1" fill="#e2c481" d="M 407.5,395.5 C 402.91,397.128 398.577,399.295 394.5,402C 387.951,403.81 381.284,404.643 374.5,404.5C 385.969,403.506 396.802,399.84 407,393.5C 407.464,394.094 407.631,394.761 407.5,395.5 Z"/></g>
<g><path style="opacity:1" fill="#178e69" d="M 361.5,394.5 C 363.833,394.5 366.167,394.5 368.5,394.5C 368.762,395.978 368.429,397.311 367.5,398.5C 365.885,397.846 364.218,397.346 362.5,397C 361.748,396.329 361.414,395.496 361.5,394.5 Z"/></g>
<g><path style="opacity:1" fill="#178e69" d="M 370.5,394.5 C 371.209,395.404 372.209,395.737 373.5,395.5C 373.785,397.288 373.452,398.955 372.5,400.5C 369.643,399.045 368.977,397.045 370.5,394.5 Z"/></g>
<g><path style="opacity:1" fill="#bfbfbf" d="M 326.5,395.5 C 327.167,395.5 327.833,395.5 328.5,395.5C 327.069,402.07 324.736,402.736 321.5,397.5C 322.93,396.463 324.597,395.796 326.5,395.5 Z"/></g>
<g><path style="opacity:1" fill="#ec1c23" d="M 328.5,395.5 C 329.468,397.607 329.802,399.941 329.5,402.5C 327.078,404.286 327.078,405.952 329.5,407.5C 329.768,409.099 329.434,410.432 328.5,411.5C 327.542,411.047 326.708,410.381 326,409.5C 324.833,411.167 323.667,412.833 322.5,414.5C 322.624,415.107 322.957,415.44 323.5,415.5C 322.035,416.737 320.368,417.737 318.5,418.5C 317.5,415.833 316.5,415.833 315.5,418.5C 313.265,418.795 311.265,418.461 309.5,417.5C 310.936,416.571 312.269,415.405 313.5,414C 311.65,411.982 309.65,410.149 307.5,408.5C 305.493,410.533 303.493,412.533 301.5,414.5C 299.744,413.448 299.077,411.781 299.5,409.5C 300.141,408.518 300.807,407.518 301.5,406.5C 300.113,404.79 298.779,403.123 297.5,401.5C 297.389,400.883 297.056,400.383 296.5,400C 298.81,399.503 301.143,399.337 303.5,399.5C 306.167,404.833 308.833,404.833 311.5,399.5C 315.078,399.451 318.411,398.785 321.5,397.5C 324.736,402.736 327.069,402.07 328.5,395.5 Z"/></g>
<g><path style="opacity:1" fill="#178e69" d="M 374.5,395.5 C 375.5,395.5 376.5,395.5 377.5,395.5C 377.5,397.167 377.5,398.833 377.5,400.5C 376.5,400.5 375.5,400.5 374.5,400.5C 374.5,398.833 374.5,397.167 374.5,395.5 Z"/></g>
<g><path style="opacity:1" fill="#e5d3af" d="M 407.5,395.5 C 409.155,401.083 410.988,406.749 413,412.5C 418.266,414.251 423.099,416.751 427.5,420C 426.944,420.383 426.611,420.883 426.5,421.5C 424.588,422.98 423.421,424.98 423,427.5C 422.586,427.043 422.086,426.709 421.5,426.5C 419.641,428.192 417.641,429.692 415.5,431C 416.833,431.333 418.167,431.667 419.5,432C 420.451,432.718 420.617,433.551 420,434.5C 418.301,435.406 416.467,435.739 414.5,435.5C 414.649,434.448 414.483,433.448 414,432.5C 412.172,434.081 410.172,435.415 408,436.5C 407.308,437.437 407.475,438.103 408.5,438.5C 406.664,440.588 404.331,441.921 401.5,442.5C 401.179,440.952 400.179,440.285 398.5,440.5C 397.624,440.631 396.957,440.298 396.5,439.5C 394.764,435.028 392.264,431.028 389,427.5C 387.316,425.294 385.149,423.794 382.5,423C 382.833,422.667 383.167,422.333 383.5,422C 380.68,420.144 378.18,417.978 376,415.5C 375.68,411.786 375.18,408.119 374.5,404.5C 381.284,404.643 387.951,403.81 394.5,402C 398.577,399.295 402.91,397.128 407.5,395.5 Z"/></g>
<g><path style="opacity:1" fill="#a6a6a6" d="M 303.5,399.5 C 306.167,399.5 308.833,399.5 311.5,399.5C 308.833,404.833 306.167,404.833 303.5,399.5 Z"/></g>
<g><path style="opacity:1" fill="#f5f5f5" d="M 317.5,400.5 C 319.63,402.127 321.63,403.96 323.5,406C 321.983,407.685 320.316,409.185 318.5,410.5C 316.684,409.185 315.017,407.685 313.5,406C 315.439,404.568 316.772,402.735 317.5,400.5 Z"/></g>
<g><path style="opacity:1" fill="#f2f3f2" d="M 297.5,401.5 C 298.779,403.123 300.113,404.79 301.5,406.5C 300.807,407.518 300.141,408.518 299.5,409.5C 297.96,407.162 297.294,404.495 297.5,401.5 Z"/></g>
<g><path style="opacity:1" fill="#fdfdfd" d="M 329.5,402.5 C 329.5,404.167 329.5,405.833 329.5,407.5C 327.078,405.952 327.078,404.286 329.5,402.5 Z"/></g>
<g><path style="opacity:1" fill="#f4f4f4" d="M 309.5,417.5 C 306.888,416.629 304.221,415.963 301.5,415.5C 301.5,415.167 301.5,414.833 301.5,414.5C 303.493,412.533 305.493,410.533 307.5,408.5C 309.65,410.149 311.65,411.982 313.5,414C 312.269,415.405 310.936,416.571 309.5,417.5 Z"/></g>
<g><path style="opacity:1" fill="#f5f5f5" d="M 328.5,411.5 C 328.5,411.833 328.5,412.167 328.5,412.5C 326.668,413.248 325.001,414.248 323.5,415.5C 322.957,415.44 322.624,415.107 322.5,414.5C 323.667,412.833 324.833,411.167 326,409.5C 326.708,410.381 327.542,411.047 328.5,411.5 Z"/></g>
<g><path style="opacity:1" fill="#383838" d="M 328.5,412.5 C 329.497,412.47 330.164,412.97 330.5,414C 329.754,424.183 328.754,434.35 327.5,444.5C 330.125,449.312 333.125,453.979 336.5,458.5C 333.885,459.762 331.218,460.928 328.5,462C 320.926,462.644 313.426,463.477 306,464.5C 304.107,459.713 301.94,455.047 299.5,450.5C 301.838,446.316 303.172,441.816 303.5,437C 301.723,430.319 300.39,423.486 299.5,416.5C 299.957,415.702 300.624,415.369 301.5,415.5C 304.221,415.963 306.888,416.629 309.5,417.5C 311.265,418.461 313.265,418.795 315.5,418.5C 316.5,418.5 317.5,418.5 318.5,418.5C 320.368,417.737 322.035,416.737 323.5,415.5C 325.001,414.248 326.668,413.248 328.5,412.5 Z"/></g>
<g><path style="opacity:1" fill="#f2f3f2" d="M 318.5,418.5 C 317.5,418.5 316.5,418.5 315.5,418.5C 316.5,415.833 317.5,415.833 318.5,418.5 Z"/></g>
<g><path style="opacity:1" fill="#cfcfcf" d="M 428.5,422.5 C 430.481,423.105 430.815,424.105 429.5,425.5C 428.493,425.548 428.16,424.548 428.5,422.5 Z"/></g>
<g><path style="opacity:1" fill="#ec1c23" d="M 414.5,435.5 C 412.181,435.992 410.181,436.992 408.5,438.5C 407.475,438.103 407.308,437.437 408,436.5C 410.172,435.415 412.172,434.081 414,432.5C 414.483,433.448 414.649,434.448 414.5,435.5 Z"/></g>
<g><path style="opacity:1" fill="#e11d22" d="M 426.5,421.5 C 427.492,421.328 428.158,421.662 428.5,422.5C 428.16,424.548 428.493,425.548 429.5,425.5C 432.499,428.831 434.499,432.831 435.5,437.5C 434.417,437.461 433.417,437.127 432.5,436.5C 431.614,440.476 430.948,444.476 430.5,448.5C 433.206,448.575 435.873,448.908 438.5,449.5C 438.5,450.5 438.5,451.5 438.5,452.5C 436.447,452.402 434.78,453.069 433.5,454.5C 429.589,456.403 425.923,458.737 422.5,461.5C 422.167,461.5 421.833,461.5 421.5,461.5C 422.008,459.135 422.675,456.801 423.5,454.5C 420.609,453.322 417.609,452.655 414.5,452.5C 414.167,455.833 413.833,459.167 413.5,462.5C 412.178,462.67 411.011,462.337 410,461.5C 409.345,459.372 408.511,457.372 407.5,455.5C 409.175,453.544 408.842,452.211 406.5,451.5C 404.17,449.383 402.17,446.883 400.5,444C 401.056,443.617 401.389,443.117 401.5,442.5C 404.331,441.921 406.664,440.588 408.5,438.5C 410.181,436.992 412.181,435.992 414.5,435.5C 416.467,435.739 418.301,435.406 420,434.5C 420.617,433.551 420.451,432.718 419.5,432C 418.167,431.667 416.833,431.333 415.5,431C 417.641,429.692 419.641,428.192 421.5,426.5C 422.086,426.709 422.586,427.043 423,427.5C 423.421,424.98 424.588,422.98 426.5,421.5 Z"/></g>
<g><path style="opacity:1" fill="#fefffe" d="M 435.5,437.5 C 437.342,441.159 438.342,445.159 438.5,449.5C 435.873,448.908 433.206,448.575 430.5,448.5C 430.948,444.476 431.614,440.476 432.5,436.5C 433.417,437.127 434.417,437.461 435.5,437.5 Z"/></g>
<g><path style="opacity:1" fill="#ec1c23" d="M 398.5,440.5 C 400.179,440.285 401.179,440.952 401.5,442.5C 400.417,442.539 399.417,442.873 398.5,443.5C 397.438,442.575 397.438,441.575 398.5,440.5 Z"/></g>
<g><path style="opacity:1" fill="#bbbbbb" d="M 423.5,439.5 C 424.497,439.47 425.164,439.97 425.5,441C 424.767,442.766 424.433,444.599 424.5,446.5C 421.393,446.649 418.393,446.149 415.5,445C 418.407,443.391 421.073,441.558 423.5,439.5 Z"/></g>
<g><path style="opacity:1" fill="#393a39" d="M 296.5,450.5 C 299.868,454.202 302.535,458.536 304.5,463.5C 298.3,465.157 292.8,463.824 288,459.5C 287.517,458.552 287.351,457.552 287.5,456.5C 290.223,455.648 292.89,454.481 295.5,453C 296.252,452.329 296.586,451.496 296.5,450.5 Z"/></g>
<g><path style="opacity:1" fill="#fefffe" d="M 406.5,451.5 C 408.842,452.211 409.175,453.544 407.5,455.5C 406.566,454.432 406.232,453.099 406.5,451.5 Z"/></g>
<g><path style="opacity:1" fill="#fefffe" d="M 421.5,461.5 C 419.052,462.473 416.385,462.806 413.5,462.5C 413.833,459.167 414.167,455.833 414.5,452.5C 417.609,452.655 420.609,453.322 423.5,454.5C 422.675,456.801 422.008,459.135 421.5,461.5 Z"/></g>
<g><path style="opacity:1" fill="#3b3b3b" d="M 437.5,456.5 C 436.5,456.5 435.5,456.5 434.5,456.5C 434.5,457.5 434.5,458.5 434.5,459.5C 435.5,459.5 436.5,459.5 437.5,459.5C 438.043,459.56 438.376,459.893 438.5,460.5C 437.757,461.182 437.091,461.849 436.5,462.5C 436.5,463.5 436.5,464.5 436.5,465.5C 438.076,466.283 439.409,467.45 440.5,469C 440.167,469.333 439.833,469.667 439.5,470C 442.167,471.333 442.167,472.667 439.5,474C 440.318,475.177 441.318,476.51 442.5,478C 442.095,478.945 441.428,479.612 440.5,480C 440.889,481.618 442.222,482.785 444.5,483.5C 443.624,484.251 442.624,484.751 441.5,485C 445.082,485.595 445.416,486.929 442.5,489C 446.5,490 446.5,491 442.5,492C 443.5,492.333 444.5,492.667 445.5,493C 445.167,493.333 444.833,493.667 444.5,494C 447.167,495 447.167,496 444.5,497C 445.622,500.409 445.789,503.909 445,507.5C 444.5,508 444,508.5 443.5,509C 437.5,509.667 431.5,509.667 425.5,509C 423.334,507.998 421.667,506.498 420.5,504.5C 421.71,499.542 422.21,494.542 422,489.5C 419.088,480.688 415.921,472.021 412.5,463.5C 416.329,464.069 419.663,463.402 422.5,461.5C 425.923,458.737 429.589,456.403 433.5,454.5C 434.93,454.579 436.264,454.246 437.5,453.5C 438.776,454.614 438.776,455.614 437.5,456.5 Z"/></g>
<g><path style="opacity:1" fill="#c2c3c2" d="M 437.5,456.5 C 437.5,457.5 437.5,458.5 437.5,459.5C 436.5,459.5 435.5,459.5 434.5,459.5C 434.5,458.5 434.5,457.5 434.5,456.5C 435.5,456.5 436.5,456.5 437.5,456.5 Z"/></g>
<g><path style="opacity:1" fill="#c2c3c2" d="M 436.5,462.5 C 437.5,462.5 438.5,462.5 439.5,462.5C 439.5,463.5 439.5,464.5 439.5,465.5C 438.5,465.5 437.5,465.5 436.5,465.5C 436.5,464.5 436.5,463.5 436.5,462.5 Z"/></g>
</svg>
