<?xml version="1.0" encoding="UTF-8"?>
<!DOCTYPE svg PUBLIC "-//W3C//DTD SVG 1.1//EN" "http://www.w3.org/Graphics/SVG/1.1/DTD/svg11.dtd">
<svg xmlns="http://www.w3.org/2000/svg" version="1.1" width="600px" height="600px" style="shape-rendering:geometricPrecision; text-rendering:geometricPrecision; image-rendering:optimizeQuality; fill-rule:evenodd; clip-rule:evenodd" xmlns:xlink="http://www.w3.org/1999/xlink">
<g><path style="opacity:1" fill="#fefffe" d="M 76.5,67.5 C 83.8409,67.3337 91.1742,67.5003 98.5,68C 118,87.5 137.5,107 157,126.5C 157.333,130.5 157.667,134.5 158,138.5C 189.6,170.556 221.767,202.056 254.5,233C 261.854,231.403 266.021,234.237 267,241.5C 271.263,245.385 275.429,249.385 279.5,253.5C 281.382,246.069 285.215,239.735 291,234.5C 292.009,232.975 292.509,231.308 292.5,229.5C 289.482,229.665 286.482,229.498 283.5,229C 279.128,223.685 276.794,217.518 276.5,210.5C 275.178,210.67 274.011,210.337 273,209.5C 272.667,204.5 272.333,199.5 272,194.5C 270.667,193.833 269.667,192.833 269,191.5C 268.333,185.833 268.333,180.167 269,174.5C 272.373,171.97 276.207,170.97 280.5,171.5C 281.065,166.851 281.565,162.184 282,157.5C 284.902,153.718 286.568,149.385 287,144.5C 288.866,141.554 290.366,138.387 291.5,135C 297.196,134.83 302.862,134.33 308.5,133.5C 310.626,129.415 312.626,125.248 314.5,121C 322.5,120.333 330.5,120.333 338.5,121C 339.667,122.833 341.167,124.333 343,125.5C 343.667,133.5 343.667,141.5 343,149.5C 341.166,150.495 339.999,151.995 339.5,154C 340.916,156.425 342.75,158.591 345,160.5C 345.667,168.167 345.667,175.833 345,183.5C 343.553,188.319 342.72,193.319 342.5,198.5C 351.497,196.696 360.497,194.863 369.5,193C 376.5,192.333 383.5,192.333 390.5,193C 392.705,195.54 395.205,197.707 398,199.5C 398.253,202.79 399.253,205.79 401,208.5C 399.837,226.024 404.337,241.858 414.5,256C 415.974,262.11 418.14,267.943 421,273.5C 421.667,280.5 421.667,287.5 421,294.5C 417.833,295 416,296.833 415.5,300C 413.913,300.862 412.246,301.529 410.5,302C 413.102,302.977 415.602,304.144 418,305.5C 423.69,312.549 429.023,319.883 434,327.5C 434.797,334.55 434.63,341.55 433.5,348.5C 432.315,349.853 430.981,351.02 429.5,352C 425.546,353.154 421.546,353.987 417.5,354.5C 415.362,358.738 413.696,363.238 412.5,368C 415.021,375.621 416.521,383.454 417,391.5C 419.565,396.917 421.565,402.584 423,408.5C 423.667,409.833 424.667,410.833 426,411.5C 427.264,415.636 429.097,419.47 431.5,423C 432.91,428.651 434.744,434.151 437,439.5C 438.153,450.151 439.153,460.818 440,471.5C 440.727,473.953 441.727,476.286 443,478.5C 443.151,489.138 443.318,499.638 443.5,510C 445.07,523.274 439.236,528.107 426,524.5C 421.167,524.333 416.333,524.167 411.5,524C 409.139,523.803 407.472,522.636 406.5,520.5C 403.074,520.025 399.908,519.025 397,517.5C 396.243,502.149 395.41,486.816 394.5,471.5C 392.449,466.133 390.782,460.633 389.5,455C 387.291,450.676 385.458,446.176 384,441.5C 383,440.833 382,440.167 381,439.5C 376.192,426.738 371.192,414.071 366,401.5C 360.667,407.5 355.333,413.5 350,419.5C 346.767,426.411 343.267,433.078 339.5,439.5C 340.861,442.633 341.694,445.967 342,449.5C 342.333,458.833 342.667,468.167 343,477.5C 343.777,489.136 345.277,500.469 347.5,511.5C 347.167,515.167 346.833,518.833 346.5,522.5C 344.047,524.612 341.714,526.779 339.5,529C 319.27,532.336 299.103,532.169 279,528.5C 278.333,520.167 278.333,511.833 279,503.5C 279.956,502.421 280.789,501.255 281.5,500C 286.635,500.08 291.469,499.247 296,497.5C 296.726,487.134 296.392,476.801 295,466.5C 289.734,447.838 287.734,428.838 289,409.5C 296.196,396.275 303.03,382.775 309.5,369C 308.206,366.913 307.039,364.746 306,362.5C 305.7,355.092 304.867,347.758 303.5,340.5C 299.154,340.666 294.821,340.499 290.5,340C 287.166,336.665 285.166,332.665 284.5,328C 277.167,327.667 269.833,327.333 262.5,327C 259.345,324.011 256.345,320.844 253.5,317.5C 250.761,310.781 247.928,304.114 245,297.5C 244,295.833 242.667,294.5 241,293.5C 240.662,288.453 239.995,283.453 239,278.5C 235.667,275.167 232.333,271.833 229,268.5C 228.667,266.167 228.333,263.833 228,261.5C 217.5,251 207,240.5 196.5,230C 195.167,229.667 193.833,229.333 192.5,229C 184.333,220.833 176.167,212.667 168,204.5C 166.827,200.663 164.827,197.329 162,194.5C 151.602,183.773 141.602,172.773 132,161.5C 130.939,156.896 130.273,152.229 130,147.5C 112.333,127.833 94.6667,108.167 77,88.5C 75.289,81.4879 75.1224,74.4879 76.5,67.5 Z"/></g>
<g><path style="opacity:1" fill="#000000" d="M 80.5,71.5 C 85.1785,71.3342 89.8452,71.5008 94.5,72C 114,91.5 133.5,111 153,130.5C 153.333,134.5 153.667,138.5 154,142.5C 185.6,174.556 217.767,206.056 250.5,237C 257.854,235.403 262.021,238.237 263,245.5C 266.93,249.219 270.764,253.053 274.5,257C 277.447,259.164 280.781,259.998 284.5,259.5C 284.335,256.482 284.502,253.482 285,250.5C 287.328,247.663 289.495,244.663 291.5,241.5C 294.063,238.858 296.729,236.358 299.5,234C 297.503,231.508 296.503,228.675 296.5,225.5C 293.482,225.665 290.482,225.498 287.5,225C 283.128,219.685 280.794,213.518 280.5,206.5C 279.178,206.67 278.011,206.337 277,205.5C 276.333,202.167 276.333,198.833 277,195.5C 277.833,194.667 278.667,193.833 279.5,193C 277.2,191.275 275.034,189.442 273,187.5C 271.021,178.202 274.855,174.202 284.5,175.5C 285.065,170.851 285.565,166.184 286,161.5C 287,160.167 288,158.833 289,157.5C 290.088,151.122 292.088,145.122 295,139.5C 300.667,138.167 306.333,138.167 312,139.5C 313.718,134.454 315.884,129.621 318.5,125C 323.833,124.333 329.167,124.333 334.5,125C 338.931,127.94 340.598,132.107 339.5,137.5C 339.333,140.167 339.167,142.833 339,145.5C 336.031,148.819 333.864,152.653 332.5,157C 335.394,159.375 338.228,161.875 341,164.5C 341.167,167 341.333,169.5 341.5,172C 340.267,179.391 339.1,186.891 338,194.5C 337.801,196.402 336.967,197.902 335.5,199C 336.973,199.71 337.64,200.876 337.5,202.5C 342.511,202.666 347.511,202.499 352.5,202C 361.658,200.107 370.825,198.274 380,196.5C 382.167,196.667 384.333,196.833 386.5,197C 388.705,199.54 391.205,201.707 394,203.5C 394.253,206.79 395.253,209.79 397,212.5C 398.012,218.35 397.512,224.016 395.5,229.5C 402.769,245.484 409.936,261.484 417,277.5C 417.667,281.833 417.667,286.167 417,290.5C 413.833,291 412,292.833 411.5,296C 404.446,300.194 397.112,303.861 389.5,307C 395.756,306.421 402.089,306.421 408.5,307C 410.246,307.471 411.913,308.138 413.5,309C 419.535,316.094 425.035,323.594 430,331.5C 432.63,344.711 427.13,351.044 413.5,350.5C 411.729,353.962 410.229,357.628 409,361.5C 409.797,379.045 413.131,396.045 419,412.5C 419.667,413.833 420.667,414.833 422,415.5C 423.264,419.636 425.097,423.47 427.5,427C 428.91,432.651 430.744,438.151 433,443.5C 434.153,454.151 435.153,464.818 436,475.5C 439.281,481.774 440.281,488.441 439,495.5C 438.173,496.662 437.34,497.829 436.5,499C 440.002,505.351 440.335,511.851 437.5,518.5C 433.856,519.758 430.023,520.425 426,520.5C 422.5,520.333 419,520.167 415.5,520C 413.139,519.803 411.472,518.636 410.5,516.5C 407.074,516.025 403.908,515.025 401,513.5C 400.216,508.113 400.382,502.78 401.5,497.5C 399.937,494.778 399.271,491.778 399.5,488.5C 401.043,481.418 400.71,474.418 398.5,467.5C 396.449,462.133 394.782,456.633 393.5,451C 391.291,446.676 389.458,442.176 388,437.5C 387,436.833 386,436.167 385,435.5C 379.577,421 373.91,406.667 368,392.5C 353.185,404.616 342.352,419.449 335.5,437C 335.456,438.764 335.122,440.431 334.5,442C 336.608,445.482 337.775,449.315 338,453.5C 338.192,470.229 339.192,486.896 341,503.5C 341.414,503.957 341.914,504.291 342.5,504.5C 343.833,509.167 343.833,513.833 342.5,518.5C 340.047,520.612 337.714,522.779 335.5,525C 317.936,528.279 300.436,528.112 283,524.5C 282.333,518.833 282.333,513.167 283,507.5C 283.956,506.421 284.789,505.255 285.5,504C 292.147,504.377 298.147,502.877 303.5,499.5C 302.758,498.713 301.925,498.047 301,497.5C 300.768,485.805 300.102,474.138 299,462.5C 294.781,446.414 292.781,430.081 293,413.5C 297.706,403.086 302.706,392.752 308,382.5C 310.464,377.789 313.297,373.289 316.5,369C 313.707,365.919 311.54,362.419 310,358.5C 309.7,351.092 308.867,343.758 307.5,336.5C 303.154,336.666 298.821,336.499 294.5,336C 290.49,331.673 288.323,326.506 288,320.5C 287.228,321.849 286.061,322.682 284.5,323C 278.5,323.667 272.5,323.667 266.5,323C 263.345,320.011 260.345,316.844 257.5,313.5C 254.761,306.781 251.928,300.114 249,293.5C 248,291.833 246.667,290.5 245,289.5C 244.662,284.453 243.995,279.453 243,274.5C 239.667,271.167 236.333,267.833 233,264.5C 232.667,262.167 232.333,259.833 232,257.5C 221.5,247 211,236.5 200.5,226C 199.167,225.667 197.833,225.333 196.5,225C 188.333,216.833 180.167,208.667 172,200.5C 170.827,196.663 168.827,193.329 166,190.5C 155.602,179.773 145.602,168.773 136,157.5C 134.939,152.896 134.273,148.229 134,143.5C 116.333,123.833 98.6667,104.167 81,84.5C 79.4101,80.1568 79.2434,75.8235 80.5,71.5 Z"/></g>
<g><path style="opacity:1" fill="#c2c3c2" d="M 85.5,77.5 C 86.2506,76.4265 87.2506,76.2599 88.5,77C 107.667,96.1667 126.833,115.333 146,134.5C 146.333,138.833 146.667,143.167 147,147.5C 149.869,150.704 153.035,153.537 156.5,156C 154.953,157.849 153.119,159.349 151,160.5C 142.741,155.731 139.408,148.731 141,139.5C 122.717,118.572 104.217,97.9055 85.5,77.5 Z"/></g>
<g><path style="opacity:1" fill="#fefffe" d="M 324.5,131.5 C 329.155,130.819 331.822,132.819 332.5,137.5C 330.808,141.73 328.641,145.73 326,149.5C 326.171,155.443 323.671,156.943 318.5,154C 319.272,148.538 320.105,143.038 321,137.5C 322.936,135.963 324.103,133.963 324.5,131.5 Z"/></g>
<g><path style="opacity:1" fill="#6c6c6c" d="M 314.5,156.5 C 317.748,156.416 320.748,157.249 323.5,159C 325.22,162.086 324.553,164.419 321.5,166C 319.167,166.667 316.833,166.667 314.5,166C 313.605,162.905 313.605,159.738 314.5,156.5 Z"/></g>
<g><path style="opacity:1" fill="#c2c3c2" d="M 157.5,160.5 C 158.251,159.427 159.251,159.26 160.5,160C 190.667,189.5 220.833,219 251,248.5C 251.667,249.833 251.667,251.167 251,252.5C 220.082,221.078 188.916,190.412 157.5,160.5 Z"/></g>
<g><path style="opacity:1" fill="#b87a56" d="M 153.5,160.5 C 168.611,175.11 183.611,189.944 198.5,205C 201.369,206.748 204.036,208.748 206.5,211C 221.167,225.667 235.833,240.333 250.5,255C 248.714,255.785 247.214,256.951 246,258.5C 245.667,257.167 245.333,255.833 245,254.5C 232.196,242.696 219.696,230.53 207.5,218C 206.167,217.667 204.833,217.333 203.5,217C 195.077,207.906 186.077,199.572 176.5,192C 168.167,182.333 159.833,172.667 151.5,163C 152.381,162.292 153.047,161.458 153.5,160.5 Z"/></g>
<g><path style="opacity:1" fill="#fefffe" d="M 316.5,161.5 C 317.5,161.5 318.5,161.5 319.5,161.5C 319.5,162.5 319.5,163.5 319.5,164.5C 318.5,164.5 317.5,164.5 316.5,164.5C 316.5,163.5 316.5,162.5 316.5,161.5 Z"/></g>
<g><path style="opacity:1" fill="#fefffe" d="M 309.5,163.5 C 310.043,163.56 310.376,163.893 310.5,164.5C 309.258,166.733 307.924,168.899 306.5,171C 303.167,173.333 299.833,175.667 296.5,178C 295.167,178.667 293.833,178.667 292.5,178C 295.059,175.561 297.392,172.895 299.5,170C 303.069,168.058 306.402,165.892 309.5,163.5 Z"/></g>
<g><path style="opacity:1" fill="#7e7f7e" d="M 286.5,180.5 C 287.601,179.402 288.934,179.235 290.5,180C 296.663,182.551 302.663,185.384 308.5,188.5C 308.167,188.833 307.833,189.167 307.5,189.5C 300.595,186.212 293.595,183.212 286.5,180.5 Z"/></g>
<g><path style="opacity:1" fill="#66402c" d="M 308.5,193.5 C 307.714,198.891 305.88,203.891 303,208.5C 301.274,209.576 299.441,209.743 297.5,209C 296.978,208.439 296.645,207.772 296.5,207C 298.726,205.232 300.393,203.065 301.5,200.5C 302.244,197.64 302.911,194.64 303.5,191.5C 305.045,190.548 306.712,190.215 308.5,190.5C 308.5,191.5 308.5,192.5 308.5,193.5 Z"/></g>
<g><path style="opacity:1" fill="#f3a381" d="M 291.5,195.5 C 292.812,194.855 293.812,193.855 294.5,192.5C 296.743,191.526 299.076,191.192 301.5,191.5C 301.5,194.5 301.5,197.5 301.5,200.5C 300.393,203.065 298.726,205.232 296.5,207C 296.645,207.772 296.978,208.439 297.5,209C 299.441,209.743 301.274,209.576 303,208.5C 305.88,203.891 307.714,198.891 308.5,193.5C 310.353,190.978 312.353,190.978 314.5,193.5C 315.474,195.743 315.808,198.076 315.5,200.5C 314.354,202.475 312.687,203.975 310.5,205C 312.609,205.907 313.942,207.407 314.5,209.5C 314.489,211.017 313.823,212.184 312.5,213C 308.663,214.173 305.329,216.173 302.5,219C 298.903,220.277 295.236,220.61 291.5,220C 290.971,217.571 289.637,215.738 287.5,214.5C 289.167,213.333 290.833,212.167 292.5,211C 290.624,209.983 288.624,209.149 286.5,208.5C 285.224,206.139 285.558,203.972 287.5,202C 280.908,202.113 280.074,200.28 285,196.5C 285.494,194.866 285.66,193.199 285.5,191.5C 289.099,191.262 289.433,192.262 286.5,194.5C 287.655,195.95 289.155,196.95 291,197.5C 291.464,196.906 291.631,196.239 291.5,195.5 Z"/></g>
<g><path style="opacity:1" fill="#fefffe" d="M 176.5,194.5 C 176.897,193.475 177.563,193.308 178.5,194C 186.5,202 194.5,210 202.5,218C 203.833,218.333 205.167,218.667 206.5,219C 218.833,231.333 231.167,243.667 243.5,256C 242.833,256.667 242.167,256.667 241.5,256C 228.974,244.23 216.641,232.23 204.5,220C 203.167,219.667 201.833,219.333 200.5,219C 192.27,210.938 184.27,202.772 176.5,194.5 Z"/></g>
<g><path style="opacity:1" fill="#fefffe" d="M 291.5,195.5 C 290.711,195.217 290.044,194.717 289.5,194C 290.816,193.472 291.483,193.972 291.5,195.5 Z"/></g>
<g><path style="opacity:1" fill="#000000" d="M 311.5,193.5 C 312.932,196.267 312.599,198.934 310.5,201.5C 310.011,198.886 310.344,196.22 311.5,193.5 Z"/></g>
<g><path style="opacity:1" fill="#835236" d="M 314.5,209.5 C 313.942,207.407 312.609,205.907 310.5,205C 312.687,203.975 314.354,202.475 315.5,200.5C 316.461,198.735 316.795,196.735 316.5,194.5C 319.358,194.595 321.691,195.762 323.5,198C 325.473,198.495 327.473,198.662 329.5,198.5C 329.363,202.179 330.029,205.679 331.5,209C 325.796,212.009 320.129,212.176 314.5,209.5 Z"/></g>
<g><path style="opacity:1" fill="#fefffe" d="M 378.5,205.5 C 378.369,204.761 378.536,204.094 379,203.5C 384.512,208.439 387.512,214.439 388,221.5C 387.902,223.619 387.069,225.286 385.5,226.5C 384.495,225.89 384.662,225.224 386,224.5C 386.995,221.874 387.328,219.207 387,216.5C 384.714,212.384 381.88,208.717 378.5,205.5 Z"/></g>
<g><path style="opacity:1" fill="#7e7f7e" d="M 378.5,205.5 C 381.144,209.819 383.811,214.152 386.5,218.5C 385.694,221.446 384.361,224.112 382.5,226.5C 376.848,227.37 371.181,228.037 365.5,228.5C 364.654,220.795 361.321,214.295 355.5,209C 362.902,205.769 370.568,204.603 378.5,205.5 Z"/></g>
<g><path style="opacity:1" fill="#7e7f7e" d="M 382.5,205.5 C 382.56,204.957 382.893,204.624 383.5,204.5C 388.676,209.47 391.176,215.47 391,222.5C 390.581,223.672 389.915,224.672 389,225.5C 389.502,221.908 389.502,218.241 389,214.5C 387.278,211.133 385.111,208.133 382.5,205.5 Z"/></g>
<g><path style="opacity:1" fill="#6b6b6b" d="M 335.5,208.5 C 341.947,207.42 347.613,208.92 352.5,213C 353.96,216.089 355.793,218.922 358,221.5C 358.498,224.482 358.665,227.482 358.5,230.5C 356.473,230.338 354.473,230.505 352.5,231C 346.205,233.797 340.372,237.297 335,241.5C 331.825,240.314 330.159,237.981 330,234.5C 326.717,232.134 325.217,228.801 325.5,224.5C 325.682,221.774 326.182,219.107 327,216.5C 329.375,213.29 332.208,210.624 335.5,208.5 Z"/></g>
<g><path style="opacity:1" fill="#fef200" d="M 314.5,213.5 C 318.514,213.334 322.514,213.501 326.5,214C 324.077,217.753 323.077,221.92 323.5,226.5C 321.801,226.34 320.134,226.506 318.5,227C 314.363,230.054 309.863,231.221 305,230.5C 303.833,228.667 302.667,226.833 301.5,225C 302.191,223.933 302.691,222.766 303,221.5C 306.498,218.183 310.331,215.516 314.5,213.5 Z"/></g>
<g><path style="opacity:1" fill="#fefffe" d="M 355.5,213.5 C 357.337,213.639 357.67,214.306 356.5,215.5C 355.702,215.043 355.369,214.376 355.5,213.5 Z"/></g>
<g><path style="opacity:1" fill="#fefffe" d="M 358.5,217.5 C 361.944,220.3 363.61,223.967 363.5,228.5C 362.5,228.5 361.5,228.5 360.5,228.5C 360.584,224.669 359.917,221.002 358.5,217.5 Z"/></g>
<g><path style="opacity:1" fill="#fefffe" d="M 319.5,228.5 C 321.167,228.5 322.833,228.5 324.5,228.5C 324.34,230.199 324.506,231.866 325,233.5C 327.064,235.243 327.564,237.243 326.5,239.5C 319.868,238.494 313.201,238.494 306.5,239.5C 306.5,237.5 306.5,235.5 306.5,233.5C 311.368,232.881 315.702,231.215 319.5,228.5 Z"/></g>
<g><path style="opacity:1" fill="#fefffe" d="M 383.5,230.5 C 384.239,230.369 384.906,230.536 385.5,231C 387.046,233.257 388.712,235.424 390.5,237.5C 392.803,244.765 395.637,251.765 399,258.5C 400,259.5 401,260.5 402,261.5C 404.391,267.949 407.058,274.282 410,280.5C 410.667,282.5 410.667,284.5 410,286.5C 406.265,275.141 401.265,264.475 395,254.5C 394.133,249.88 392.133,245.88 389,242.5C 387.63,238.195 385.797,234.195 383.5,230.5 Z"/></g>
<g><path style="opacity:1" fill="#fefffe" d="M 363.5,232.5 C 365.377,231.375 367.21,231.709 369,233.5C 377.817,251.633 386.817,269.633 396,287.5C 397.102,290.905 396.268,293.572 393.5,295.5C 393.236,291.915 392.403,288.248 391,284.5C 386.712,276.193 382.378,267.86 378,259.5C 375.869,252.578 373.202,245.911 370,239.5C 367.817,237.093 365.65,234.76 363.5,232.5 Z"/></g>
<g><path style="opacity:1" fill="#a5a5a5" d="M 316.5,243.5 C 322.144,248.812 326.81,254.812 330.5,261.5C 330.167,261.5 329.833,261.5 329.5,261.5C 326.998,259.83 324.998,257.664 323.5,255C 321.934,254.7 320.601,255.2 319.5,256.5C 316.929,254.422 316.929,252.256 319.5,250C 317.86,247.946 316.194,247.613 314.5,249C 310.499,250.16 309.165,248.994 310.5,245.5C 312.199,245.66 313.866,245.494 315.5,245C 313.212,244.178 310.878,243.511 308.5,243C 311.192,242.57 313.859,242.737 316.5,243.5 Z"/></g>
<g><path style="opacity:1" fill="#f9a884" d="M 253.5,243.5 C 254.117,243.611 254.617,243.944 255,244.5C 256,250.184 257.5,255.684 259.5,261C 255.148,262.682 251.314,265.182 248,268.5C 243.946,265.947 240.779,262.614 238.5,258.5C 238.833,257.833 239.167,257.167 239.5,256.5C 244.782,262.062 249.282,261.395 253,254.5C 253.499,250.848 253.665,247.182 253.5,243.5 Z"/></g>
<g><path style="opacity:1" fill="#fefffe" d="M 307.5,245.5 C 302.186,245.761 301.686,245.094 306,243.5C 307.03,243.836 307.53,244.503 307.5,245.5 Z"/></g>
<g><path style="opacity:1" fill="#ec1c23" d="M 307.5,245.5 C 308.652,244.375 309.652,244.375 310.5,245.5C 309.165,248.994 310.499,250.16 314.5,249C 316.194,247.613 317.86,247.946 319.5,250C 316.929,252.256 316.929,254.422 319.5,256.5C 318.391,256.443 317.391,256.11 316.5,255.5C 316.5,254.167 315.833,253.5 314.5,253.5C 312.109,251.638 309.442,250.304 306.5,249.5C 303.695,248.681 300.695,248.181 297.5,248C 299.055,243.89 301.388,243.39 304.5,246.5C 305.726,246.48 306.726,246.147 307.5,245.5 Z"/></g>
<g><path style="opacity:1" fill="#fec90d" d="M 382.5,248.5 C 385.997,247.891 388.663,249.057 390.5,252C 392.839,256.203 393.839,260.703 393.5,265.5C 392.07,265.579 390.736,265.246 389.5,264.5C 387.727,261.94 385.727,259.607 383.5,257.5C 382.593,254.579 382.26,251.579 382.5,248.5 Z"/></g>
<g><path style="opacity:1" fill="#e2e2e2" d="M 306.5,249.5 C 309.442,250.304 312.109,251.638 314.5,253.5C 314.833,254.5 315.5,255.167 316.5,255.5C 317.391,256.11 318.391,256.443 319.5,256.5C 320.453,258.61 322.119,259.777 324.5,260C 326.141,261.129 327.141,262.629 327.5,264.5C 328.209,265.404 329.209,265.737 330.5,265.5C 330.5,264.167 330.5,262.833 330.5,261.5C 332.033,263.634 332.7,266.134 332.5,269C 332.333,270.833 332.167,272.667 332,274.5C 331.275,275.059 330.442,275.392 329.5,275.5C 322.808,268.977 315.141,263.811 306.5,260C 301.771,259.004 297.271,259.504 293,261.5C 292.667,262.833 292.333,264.167 292,265.5C 290.977,261.683 291.477,258.183 293.5,255C 310.833,254.333 310.833,253.667 293.5,253C 294.833,252.333 295.833,251.333 296.5,250C 299.817,249.502 303.15,249.335 306.5,249.5 Z"/></g>
<g><path style="opacity:1" fill="#c2c3c2" d="M 259.5,251.5 C 261.66,253.325 263.16,255.659 264,258.5C 264.903,259.701 266.069,260.535 267.5,261C 265.191,261.756 263.191,261.256 261.5,259.5C 260.451,256.92 259.784,254.254 259.5,251.5 Z"/></g>
<g><path style="opacity:1" fill="#000000" d="M 314.5,253.5 C 315.833,253.5 316.5,254.167 316.5,255.5C 315.5,255.167 314.833,254.5 314.5,253.5 Z"/></g>
<g><path style="opacity:1" fill="#ec1c23" d="M 329.5,261.5 C 329.715,263.179 329.048,264.179 327.5,264.5C 327.141,262.629 326.141,261.129 324.5,260C 322.119,259.777 320.453,258.61 319.5,256.5C 320.601,255.2 321.934,254.7 323.5,255C 324.998,257.664 326.998,259.83 329.5,261.5 Z"/></g>
<g><path style="opacity:1" fill="#ba0f16" d="M 338.5,254.5 C 344.508,260.06 348.008,267.06 349,275.5C 349.667,276.833 350.667,277.833 352,278.5C 352.409,282.491 353.576,286.157 355.5,289.5C 351.473,288.861 347.473,288.028 343.5,287C 342.167,286 342.167,285 343.5,284C 345.5,283.667 347.5,283.333 349.5,283C 345.131,273.72 341.464,264.22 338.5,254.5 Z"/></g>
<g><path style="opacity:1" fill="#fefffe" d="M 362.5,258.5 C 364.655,258.372 366.655,258.872 368.5,260C 364.167,263 359.833,266 355.5,269C 354.552,269.483 353.552,269.649 352.5,269.5C 352.298,267.011 352.798,264.677 354,262.5C 357.047,261.438 359.88,260.105 362.5,258.5 Z"/></g>
<g><path style="opacity:1" fill="#e61c23" d="M 338.5,254.5 C 341.464,264.22 345.131,273.72 349.5,283C 347.5,283.333 345.5,283.667 343.5,284C 342.167,285 342.167,286 343.5,287C 347.473,288.028 351.473,288.861 355.5,289.5C 355.5,290.5 355.5,291.5 355.5,292.5C 357.359,292.461 358.692,293.294 359.5,295C 346.984,295.408 334.651,294.074 322.5,291C 323.696,290.346 323.696,289.846 322.5,289.5C 319.78,291.111 316.78,291.944 313.5,292C 310.5,293.667 308.167,296 306.5,299C 304.385,299.557 302.385,300.391 300.5,301.5C 298.024,304.232 295.357,306.732 292.5,309C 288.005,310.811 284.005,313.478 280.5,317C 277.5,317.667 274.5,317.667 271.5,317C 261.238,306.969 256.072,295.469 256,282.5C 257.385,281.449 258.385,280.116 259,278.5C 269.455,273.62 274.788,276.953 275,288.5C 275.791,287.255 276.291,285.922 276.5,284.5C 277.492,284.672 278.158,284.338 278.5,283.5C 280.359,282.406 282.359,281.573 284.5,281C 288.808,275.107 292.642,268.94 296,262.5C 300.657,261.06 305.157,261.56 309.5,264C 315.784,267.629 321.451,271.962 326.5,277C 327.448,277.483 328.448,277.649 329.5,277.5C 329.5,278.5 329.5,279.5 329.5,280.5C 330.27,278.701 331.603,277.368 333.5,276.5C 334.662,271.533 334.829,266.533 334,261.5C 329.544,255.375 324.711,249.542 319.5,244C 318.552,243.517 317.552,243.351 316.5,243.5C 315.638,240.983 316.805,239.983 320,240.5C 326.725,241.172 332.725,243.505 338,247.5C 338.497,249.81 338.663,252.143 338.5,254.5 Z"/></g>
<g><path style="opacity:1" fill="#000000" d="M 329.5,261.5 C 329.833,261.5 330.167,261.5 330.5,261.5C 330.5,262.833 330.5,264.167 330.5,265.5C 329.209,265.737 328.209,265.404 327.5,264.5C 329.048,264.179 329.715,263.179 329.5,261.5 Z"/></g>
<g><path style="opacity:1" fill="#fef200" d="M 251.5,269.5 C 253.497,266.157 256.497,264.49 260.5,264.5C 264.694,262.612 268.194,263.612 271,267.5C 272.504,270.684 274.004,273.851 275.5,277C 272.666,275.063 269.333,274.23 265.5,274.5C 263.5,274.667 261.5,274.833 259.5,275C 259,275.5 258.5,276 258,276.5C 258.408,271.742 256.241,269.409 251.5,269.5 Z"/></g>
<g><path style="opacity:1" fill="#000000" d="M 260.5,264.5 C 266.02,263.868 268.853,266.201 269,271.5C 261.813,273.863 258.98,271.53 260.5,264.5 Z"/></g>
<g><path style="opacity:1" fill="#fefffe" d="M 261.5,265.5 C 264.731,265.559 267.065,267.059 268.5,270C 266.244,271.867 263.91,271.867 261.5,270C 260.272,268.51 260.272,267.01 261.5,265.5 Z"/></g>
<g><path style="opacity:1" fill="#c2c3c2" d="M 273.5,265.5 C 274.978,265.238 276.311,265.571 277.5,266.5C 277.968,268.134 278.968,269.3 280.5,270C 279.271,271.529 277.771,272.696 276,273.5C 274.856,270.92 274.022,268.253 273.5,265.5 Z"/></g>
<g><path style="opacity:1" fill="#c2c3c2" d="M 285.5,266.5 C 286.88,266.962 287.547,267.962 287.5,269.5C 285.551,271.792 284.551,274.459 284.5,277.5C 282.286,277.709 280.619,276.876 279.5,275C 281.705,272.298 283.705,269.464 285.5,266.5 Z"/></g>
<g><path style="opacity:1" fill="#fef200" d="M 251.5,269.5 C 251.337,271.857 251.503,274.19 252,276.5C 253.399,277.227 254.899,277.727 256.5,278C 254.348,280.12 252.848,282.62 252,285.5C 251.333,284.833 250.667,284.167 250,283.5C 249.682,279.805 249.182,276.138 248.5,272.5C 248.868,270.825 249.868,269.825 251.5,269.5 Z"/></g>
<g><path style="opacity:1" fill="#fefffe" d="M 252.5,270.5 C 256.647,271.6 257.313,273.6 254.5,276.5C 252.717,274.977 252.051,272.977 252.5,270.5 Z"/></g>
<g><path style="opacity:1" fill="#000000" d="M 329.5,280.5 C 329.128,283.716 327.794,284.216 325.5,282C 326.901,281.59 328.234,281.09 329.5,280.5 Z"/></g>
<g><path style="opacity:1" fill="#946247" d="M 278.5,283.5 C 278.158,284.338 277.492,284.672 276.5,284.5C 275.596,283.791 275.263,282.791 275.5,281.5C 277.179,281.285 278.179,281.952 278.5,283.5 Z"/></g>
<g><path style="opacity:1" fill="#fefffe" d="M 315.5,293.5 C 330.143,295.298 344.809,296.964 359.5,298.5C 360.09,299.799 361.09,300.632 362.5,301C 346.56,302.139 330.893,300.639 315.5,296.5C 315.5,295.5 315.5,294.5 315.5,293.5 Z"/></g>
<g><path style="opacity:1" fill="#870014" d="M 324.5,366.5 C 320.827,364.201 318.327,360.867 317,356.5C 316.485,346.378 315.152,336.378 313,326.5C 312.333,316.167 312.333,305.833 313,295.5C 313.368,296.91 314.201,297.91 315.5,298.5C 315.989,311.266 317.322,323.933 319.5,336.5C 317.676,342.39 317.176,348.39 318,354.5C 319.994,358.643 322.161,362.643 324.5,366.5 Z"/></g>
<g><path style="opacity:1" fill="#fef200" d="M 308.5,298.5 C 309.629,300.628 309.796,302.961 309,305.5C 307.978,304.646 307.145,303.646 306.5,302.5C 307.63,301.378 308.297,300.044 308.5,298.5 Z"/></g>
<g><path style="opacity:1" fill="#ec1c23" d="M 318.5,299.5 C 329.987,302.216 341.654,303.549 353.5,303.5C 353.174,306.311 352.341,308.978 351,311.5C 350.667,315.833 350.333,320.167 350,324.5C 349.586,324.957 349.086,325.291 348.5,325.5C 345.422,323.87 342.089,323.037 338.5,323C 332.314,317.313 325.981,311.813 319.5,306.5C 318.526,304.257 318.192,301.924 318.5,299.5 Z"/></g>
<g><path style="opacity:1" fill="#b87a56" d="M 302.5,303.5 C 308.243,306.383 310.91,311.05 310.5,317.5C 310.167,320.167 309.833,322.833 309.5,325.5C 306.727,326.97 303.894,328.303 301,329.5C 299.347,329.18 298.347,328.18 298,326.5C 296.812,321.72 295.312,317.053 293.5,312.5C 296.521,309.479 299.521,306.479 302.5,303.5 Z"/></g>
<g><path style="opacity:1" fill="#fefffe" d="M 358.5,305.5 C 357.737,304.732 356.737,304.232 355.5,304C 358.379,303.126 361.045,303.46 363.5,305C 361.866,305.494 360.199,305.66 358.5,305.5 Z"/></g>
<g><path style="opacity:1" fill="#fec90d" d="M 358.5,305.5 C 359.568,306.434 360.901,306.768 362.5,306.5C 362.5,307.833 362.5,309.167 362.5,310.5C 361.5,310.5 360.5,310.5 359.5,310.5C 358.486,309.326 357.153,308.66 355.5,308.5C 355.5,307.5 355.5,306.5 355.5,305.5C 356.5,305.5 357.5,305.5 358.5,305.5 Z"/></g>
<g><path style="opacity:1" fill="#ededed" d="M 382.5,317.5 C 380.712,316.378 378.712,316.211 376.5,317C 374.947,319.362 372.78,320.862 370,321.5C 369.805,320.181 369.972,318.847 370.5,317.5C 370.973,316.094 371.973,315.427 373.5,315.5C 374.477,312.713 374.81,309.713 374.5,306.5C 375.93,306.579 377.264,306.246 378.5,305.5C 379.281,306.729 379.781,308.062 380,309.5C 382.485,310.987 384.652,312.821 386.5,315C 385.307,316.095 383.973,316.928 382.5,317.5 Z"/></g>
<g><path style="opacity:1" fill="#870014" d="M 324.5,366.5 C 327.843,367.224 331.176,368.057 334.5,369C 340.626,369.638 346.626,368.971 352.5,367C 354.333,364.5 356.5,362.333 359,360.5C 359.376,357.99 360.21,355.657 361.5,353.5C 362.012,337.765 363.179,322.098 365,306.5C 367.063,310.496 367.897,314.829 367.5,319.5C 365.921,332.47 364.421,345.47 363,358.5C 359.507,362.993 355.673,367.159 351.5,371C 344.833,371.667 338.167,371.667 331.5,371C 329.276,369.219 326.942,367.719 324.5,366.5 Z"/></g>
<g><path style="opacity:1" fill="#ec1c23" d="M 373.5,315.5 C 371.973,315.427 370.973,316.094 370.5,317.5C 369.842,316.207 369.508,314.707 369.5,313C 369.561,310.358 370.561,308.191 372.5,306.5C 373.484,309.428 373.817,312.428 373.5,315.5 Z"/></g>
<g><path style="opacity:1" fill="#fefffe" d="M 318.5,308.5 C 324.147,313.143 329.814,317.81 335.5,322.5C 336.833,323.5 336.833,324.5 335.5,325.5C 333.189,326.497 330.856,326.997 328.5,327C 326.833,322.162 323.833,318.328 319.5,315.5C 318.526,313.257 318.192,310.924 318.5,308.5 Z"/></g>
<g><path style="opacity:1" fill="#cfcfcf" d="M 355.5,308.5 C 357.153,308.66 358.486,309.326 359.5,310.5C 361.075,312.114 361.741,314.114 361.5,316.5C 360.5,316.5 359.5,316.5 358.5,316.5C 356.597,316.204 354.93,315.537 353.5,314.5C 353.054,311.99 353.72,309.99 355.5,308.5 Z"/></g>
<g><path style="opacity:1" fill="#000000" d="M 376.5,311.5 C 382.982,313.049 382.982,314.049 376.5,314.5C 376.5,313.5 376.5,312.5 376.5,311.5 Z"/></g>
<g><path style="opacity:1" fill="#fec90d" d="M 353.5,314.5 C 354.93,315.537 356.597,316.204 358.5,316.5C 359.209,317.404 360.209,317.737 361.5,317.5C 361.5,318.833 361.5,320.167 361.5,321.5C 357.766,321.982 354.933,320.649 353,317.5C 352.26,316.251 352.427,315.251 353.5,314.5 Z"/></g>
<g><path style="opacity:1" fill="#ec1c23" d="M 318.5,317.5 C 324.387,320.672 326.22,325.338 324,331.5C 323,332.167 322,332.833 321,333.5C 320.002,328.18 319.169,322.847 318.5,317.5 Z"/></g>
<g><path style="opacity:1" fill="#e41c22" d="M 382.5,317.5 C 384.452,320.244 385.952,323.244 387,326.5C 388.333,327.167 389.667,327.833 391,328.5C 391.438,331.376 392.438,334.043 394,336.5C 397.087,339.295 399.92,342.295 402.5,345.5C 403.917,350.158 403.584,354.658 401.5,359C 395.012,361.456 388.345,363.289 381.5,364.5C 381.664,361.813 381.497,359.146 381,356.5C 377.678,347.298 374.511,337.965 371.5,328.5C 371.79,326.956 372.456,325.623 373.5,324.5C 372.975,323.808 372.308,323.308 371.5,323C 372.766,322.691 373.933,322.191 375,321.5C 379.864,331.322 385.364,340.655 391.5,349.5C 392.223,347.836 391.89,346.169 390.5,344.5C 385.558,336.941 380.892,329.274 376.5,321.5C 378.289,319.863 380.289,318.53 382.5,317.5 Z"/></g>
<g><path style="opacity:1" fill="#4d4e4d" d="M 398.5,317.5 C 403.482,323.429 408.482,329.429 413.5,335.5C 416.5,336.167 419.5,336.833 422.5,337.5C 419.893,338.318 417.226,338.818 414.5,339C 407.766,346.466 407.099,345.966 412.5,337.5C 407.394,331.074 402.727,324.407 398.5,317.5 Z"/></g>
<g><path style="opacity:1" fill="#fefffe" d="M 352.5,320.5 C 354.82,322.226 357.487,322.893 360.5,322.5C 360.666,326.514 360.499,330.514 360,334.5C 354.602,331.296 352.102,326.63 352.5,320.5 Z"/></g>
<g><path style="opacity:1" fill="#736635" d="M 368.5,323.5 C 368.755,328.479 370.255,333.146 373,337.5C 374.98,344.111 376.98,350.778 379,357.5C 380.33,363.799 380.996,370.132 381,376.5C 378.715,377.819 376.548,379.319 374.5,381C 361.833,382.145 349.166,383.311 336.5,384.5C 335.167,384.167 333.833,383.833 332.5,383.5C 331.355,380.252 330.521,376.919 330,373.5C 329.075,372.953 328.242,372.287 327.5,371.5C 329.123,370.524 330.457,371.024 331.5,373C 337.833,373.667 344.167,373.667 350.5,373C 355.634,368.867 360.468,364.367 365,359.5C 366.396,347.52 367.563,335.52 368.5,323.5 Z"/></g>
<g><path style="opacity:1" fill="#00a1e8" d="M 335.5,331.5 C 335.5,330.167 335.5,328.833 335.5,327.5C 337.833,327.5 340.167,327.5 342.5,327.5C 342.5,328.833 342.5,330.167 342.5,331.5C 340.167,331.5 337.833,331.5 335.5,331.5 Z"/></g>
<g><path style="opacity:1" fill="#049ee3" d="M 343.5,327.5 C 346.32,327.248 348.986,327.748 351.5,329C 352.976,331.643 354.976,333.81 357.5,335.5C 358.802,338.708 359.469,342.041 359.5,345.5C 358.167,345.5 356.833,345.5 355.5,345.5C 354.813,338.481 351.146,333.814 344.5,331.5C 343.571,330.311 343.238,328.978 343.5,327.5 Z"/></g>
<g><path style="opacity:1" fill="#059de1" d="M 335.5,331.5 C 327.27,334.923 323.27,341.256 323.5,350.5C 322.167,350.5 320.833,350.5 319.5,350.5C 318.882,343.085 321.215,336.918 326.5,332C 328.871,330.121 331.538,328.955 334.5,328.5C 334.263,329.791 334.596,330.791 335.5,331.5 Z"/></g>
<g><path style="opacity:1" fill="#158cc8" d="M 349.5,347.5 C 343.442,349.579 337.109,350.913 330.5,351.5C 329.178,351.67 328.011,351.337 327,350.5C 326.505,348.527 326.338,346.527 326.5,344.5C 330.056,344.725 330.39,343.892 327.5,342C 329.558,338.098 332.891,336.431 337.5,337C 336.167,336.667 334.833,336.333 333.5,336C 339.259,332.512 344.592,333.179 349.5,338C 348.833,338.333 348.167,338.667 347.5,339C 351.851,339.46 353.851,341.96 353.5,346.5C 351.901,346.232 350.568,346.566 349.5,347.5 Z"/></g>
<g><path style="opacity:1" fill="#00a1e8" d="M 349.5,347.5 C 350.833,347.5 352.167,347.5 353.5,347.5C 353.88,352.778 351.546,355.444 346.5,355.5C 342.958,355.187 339.625,355.521 336.5,356.5C 332.831,357.303 330.164,356.136 328.5,353C 329.416,352.722 330.082,352.222 330.5,351.5C 337.109,350.913 343.442,349.579 349.5,347.5 Z"/></g>
<g><path style="opacity:1" fill="#1689c3" d="M 346.5,355.5 C 350.099,355.262 350.433,356.262 347.5,358.5C 342.349,361.307 337.349,361.14 332.5,358C 334.058,357.79 335.391,357.29 336.5,356.5C 339.625,355.521 342.958,355.187 346.5,355.5 Z"/></g>
<g><path style="opacity:1" fill="#049ee3" d="M 323.5,350.5 C 325.816,356.314 329.983,360.314 336,362.5C 336.667,364.167 336.667,365.833 336,367.5C 327.262,365.596 322.096,360.263 320.5,351.5C 321.791,351.737 322.791,351.404 323.5,350.5 Z"/></g>
<g><path style="opacity:1" fill="#049ee2" d="M 355.5,347.5 C 359.796,347.588 360.129,349.421 356.5,353C 354.794,363.112 348.461,367.945 337.5,367.5C 337.5,365.833 337.5,364.167 337.5,362.5C 348.407,363.252 354.407,358.252 355.5,347.5 Z"/></g>
<g><path style="opacity:1" fill="#7e7f7e" d="M 404.5,392.5 C 400.681,392.395 397.014,391.562 393.5,390C 392.511,387.842 390.844,386.675 388.5,386.5C 384.464,380.611 382.464,374.111 382.5,367C 388.454,365.848 394.12,364.015 399.5,361.5C 399.162,364.325 400.162,366.492 402.5,368C 401.919,368.893 401.585,369.893 401.5,371C 402.568,378.168 403.568,385.335 404.5,392.5 Z"/></g>
<g><path style="opacity:1" fill="#787878" d="M 338.5,412.5 C 336.358,411.402 335.025,412.236 334.5,415C 329.833,419 325.167,423 320.5,427C 321.593,428.365 322.926,428.699 324.5,428C 325.949,426.883 327.616,426.216 329.5,426C 330.163,424.482 331.163,423.315 332.5,422.5C 330.821,425.841 329.154,429.174 327.5,432.5C 327.903,437.02 327.903,441.687 327.5,446.5C 322.811,444.077 317.811,442.744 312.5,442.5C 312.323,444.981 313.323,446.814 315.5,448C 319.399,450.515 323.399,451.348 327.5,450.5C 328.496,450.414 329.329,450.748 330,451.5C 331.142,463.468 331.808,475.468 332,487.5C 332.424,489.976 333.257,492.309 334.5,494.5C 334.081,495.672 333.415,496.672 332.5,497.5C 329.833,498.833 327.167,498.833 324.5,497.5C 323.135,496.059 321.635,494.726 320,493.5C 319.506,491.866 319.34,490.199 319.5,488.5C 318.5,488.5 317.5,488.5 316.5,488.5C 316.167,491.833 315.833,495.167 315.5,498.5C 314.5,498.5 313.5,498.5 312.5,498.5C 311.72,495.899 310.054,493.899 307.5,492.5C 306.707,480.496 305.873,468.496 305,456.5C 302.631,446.593 300.631,436.593 299,426.5C 298.333,423.833 298.333,421.167 299,418.5C 301.877,412.675 304.544,406.675 307,400.5C 307.333,400.833 307.667,401.167 308,401.5C 310.162,396.208 312.329,390.875 314.5,385.5C 315.242,384.713 316.075,384.047 317,383.5C 318.253,378.287 320.92,373.954 325,370.5C 327.923,375.435 329.756,380.768 330.5,386.5C 341.5,385.666 352.5,385.166 363.5,385C 354.96,394.037 346.627,403.204 338.5,412.5 Z"/></g>
<g><path style="opacity:1" fill="#870014" d="M 381.5,378.5 C 389.187,392.706 396.52,407.206 403.5,422C 402,423.5 400.5,425 399,426.5C 391.577,411.987 384.41,397.32 377.5,382.5C 379.188,381.479 380.521,380.145 381.5,378.5 Z"/></g>
<g><path style="opacity:1" fill="#525252" d="M 392.5,418.5 C 390.883,417.962 389.216,417.629 387.5,417.5C 383.781,412.054 381.114,406.054 379.5,399.5C 377.923,397.551 376.423,395.551 375,393.5C 374.884,390.068 373.717,387.068 371.5,384.5C 373.006,383.253 374.506,383.253 376,384.5C 381.786,395.737 387.286,407.071 392.5,418.5 Z"/></g>
<g><path style="opacity:1" fill="#4f4f4f" d="M 388.5,386.5 C 390.844,386.675 392.511,387.842 393.5,390C 397.014,391.562 400.681,392.395 404.5,392.5C 405.473,394.948 405.806,397.615 405.5,400.5C 405.083,401.124 404.416,401.457 403.5,401.5C 400.408,400.692 397.408,399.692 394.5,398.5C 392.322,394.662 390.322,390.662 388.5,386.5 Z"/></g>
<g><path style="opacity:1" fill="#464646" d="M 342.5,389.5 C 343.5,389.5 344.5,389.5 345.5,389.5C 344.472,392.714 342.138,394.548 338.5,395C 334.025,398.804 329.525,402.637 325,406.5C 323.926,405.382 322.76,404.382 321.5,403.5C 323.603,400.586 325.437,397.586 327,394.5C 327.805,399.529 329.305,399.696 331.5,395C 333.715,393.956 336.048,393.29 338.5,393C 340.324,392.34 341.657,391.173 342.5,389.5 Z"/></g>
<g><path style="opacity:1" fill="#4e4f4e" d="M 338.5,398.5 C 340.562,399.505 341.396,401.171 341,403.5C 333.525,409.971 326.025,416.471 318.5,423C 316.48,425.052 314.813,424.885 313.5,422.5C 315.436,418.689 318.436,416.022 322.5,414.5C 325.417,409.681 329.417,406.015 334.5,403.5C 335.612,401.581 336.946,399.914 338.5,398.5 Z"/></g>
<g><path style="opacity:1" fill="#515151" d="M 338.5,412.5 C 337.192,415.486 335.859,418.486 334.5,421.5C 334.043,422.298 333.376,422.631 332.5,422.5C 331.163,423.315 330.163,424.482 329.5,426C 327.616,426.216 325.949,426.883 324.5,428C 322.926,428.699 321.593,428.365 320.5,427C 325.167,423 329.833,419 334.5,415C 335.025,412.236 336.358,411.402 338.5,412.5 Z"/></g>
<g><path style="opacity:1" fill="#7e7e7e" d="M 394.5,398.5 C 397.408,399.692 400.408,400.692 403.5,401.5C 404.416,401.457 405.083,401.124 405.5,400.5C 406.496,400.414 407.329,400.748 408,401.5C 408.872,406.195 409.872,410.861 411,415.5C 414.128,419.611 416.794,423.944 419,428.5C 420.463,433.516 422.297,438.35 424.5,443C 426.545,455.794 428.379,468.628 430,481.5C 430.761,484.053 431.594,486.553 432.5,489C 431.833,490.333 431.167,491.667 430.5,493C 424.449,493.208 418.449,493.708 412.5,494.5C 409.745,492.99 407.412,490.99 405.5,488.5C 406.732,485.7 407.399,482.7 407.5,479.5C 405.718,465.096 402.218,451.096 397,437.5C 392.457,431.416 389.29,424.749 387.5,417.5C 389.216,417.629 390.883,417.962 392.5,418.5C 396.106,426.211 400.106,433.711 404.5,441C 408.581,441.923 410.581,440.256 410.5,436C 405.585,423.334 400.251,410.834 394.5,398.5 Z"/></g>
<g><path style="opacity:1" fill="#fec90d" d="M 404.5,425.5 C 406.808,429.497 408.141,433.83 408.5,438.5C 404.248,437.582 401.582,434.916 400.5,430.5C 401.857,428.814 403.19,427.148 404.5,425.5 Z"/></g>
<g><path style="opacity:1" fill="#4e4f4e" d="M 327.5,446.5 C 327.5,447.833 327.5,449.167 327.5,450.5C 323.399,451.348 319.399,450.515 315.5,448C 313.323,446.814 312.323,444.981 312.5,442.5C 317.811,442.744 322.811,444.077 327.5,446.5 Z"/></g>
<g><path style="opacity:1" fill="#000000" d="M 310.5,478.5 C 311.777,479.694 312.444,481.36 312.5,483.5C 312.167,485.167 311.833,486.833 311.5,488.5C 310.513,485.232 310.18,481.898 310.5,478.5 Z"/></g>
<g><path style="opacity:1" fill="#c2c3c2" d="M 318.5,498.5 C 321.861,499.203 322.194,500.537 319.5,502.5C 317.358,501.563 317.024,500.23 318.5,498.5 Z"/></g>
<g><path style="opacity:1" fill="#c2c3c2" d="M 318.5,504.5 C 321.861,505.203 322.194,506.537 319.5,508.5C 317.358,507.563 317.024,506.23 318.5,504.5 Z"/></g>
<g><path style="opacity:1" fill="#c2c3c2" d="M 317.5,511.5 C 320.861,512.203 321.194,513.537 318.5,515.5C 316.358,514.563 316.024,513.23 317.5,511.5 Z"/></g>
</svg>
