<?xml version="1.0" encoding="UTF-8"?>
<!DOCTYPE svg PUBLIC "-//W3C//DTD SVG 1.1//EN" "http://www.w3.org/Graphics/SVG/1.1/DTD/svg11.dtd">
<svg xmlns="http://www.w3.org/2000/svg" version="1.1" width="430px" height="432px" style="shape-rendering:geometricPrecision; text-rendering:geometricPrecision; image-rendering:optimizeQuality; fill-rule:evenodd; clip-rule:evenodd" xmlns:xlink="http://www.w3.org/1999/xlink">
<g><path style="opacity:1" fill="#fefefe" d="M -0.5,-0.5 C 142.833,-0.5 286.167,-0.5 429.5,-0.5C 429.5,143.5 429.5,287.5 429.5,431.5C 286.167,431.5 142.833,431.5 -0.5,431.5C -0.5,287.5 -0.5,143.5 -0.5,-0.5 Z"/></g>
<g><path style="opacity:1" fill="#020204" d="M 198.5,42.5 C 203.732,41.7404 207.732,43.5737 210.5,48C 212.608,48.3599 214.608,49.0266 216.5,50C 220.913,54.2998 224.746,59.1332 228,64.5C 228.393,69.2009 228.393,73.8676 228,78.5C 231.349,81.682 234.516,85.0154 237.5,88.5C 235.069,91.5068 233.735,95.0068 233.5,99C 234.27,100.775 235.437,102.275 237,103.5C 237.667,104.833 237.667,106.167 237,107.5C 234.132,108.361 231.798,110.028 230,112.5C 230.24,114.467 231.073,116.3 232.5,118C 231.225,120.071 229.391,121.571 227,122.5C 225.07,124.919 225.403,126.586 228,127.5C 229.112,129.39 229.946,131.39 230.5,133.5C 228.829,138.332 227.496,143.165 226.5,148C 226.96,153.887 227.793,159.72 229,165.5C 229.308,166.308 229.808,166.975 230.5,167.5C 239.269,165.513 248.103,165.18 257,166.5C 275.527,165.718 294.027,164.551 312.5,163C 314.809,160.513 317.476,158.513 320.5,157C 345.161,155.932 369.827,155.598 394.5,156C 397.371,156.118 400.038,156.784 402.5,158C 377.68,161.603 352.68,164.937 327.5,168C 322.718,170.453 317.718,172.453 312.5,174C 303.833,175.667 295.167,177.333 286.5,179C 284.25,179.611 282.583,180.944 281.5,183C 270.846,183.833 260.18,184.333 249.5,184.5C 249.128,188.043 247.128,190.21 243.5,191C 239.184,198.533 232.851,200.533 224.5,197C 220.833,194.667 217.167,192.333 213.5,190C 209.541,190.158 205.541,190.325 201.5,190.5C 201.158,204.04 194.491,212.54 181.5,216C 178.539,219.417 176.206,223.25 174.5,227.5C 181.335,237.001 187.001,247.168 191.5,258C 191.066,260.634 190.233,263.134 189,265.5C 183.232,271.702 180.232,279.036 180,287.5C 178.139,289.888 176.806,292.554 176,295.5C 174.371,303.978 172.871,312.478 171.5,321C 171.613,324.175 172.613,327.008 174.5,329.5C 177.86,332.194 180.86,335.194 183.5,338.5C 191.71,340.656 192.71,344.823 186.5,351C 171.808,354.995 157.975,352.829 145,344.5C 144.922,342.343 144.755,340.343 144.5,338.5C 140.822,340.588 136.822,341.755 132.5,342C 122.94,343.199 113.44,343.366 104,342.5C 103.28,340.888 103.446,339.388 104.5,338C 103.196,337.196 102.529,336.029 102.5,334.5C 105.067,329.705 107.9,325.038 111,320.5C 113.442,308.849 115.775,297.182 118,285.5C 121.584,276.909 127.084,269.742 134.5,264C 132.5,263.667 130.5,263.333 128.5,263C 123.48,260.819 118.48,258.486 113.5,256C 111.359,252.759 108.359,250.759 104.5,250C 100.832,246.176 99.3315,241.676 100,236.5C 104.93,226.543 109.763,216.543 114.5,206.5C 111.771,205.938 110.271,204.272 110,201.5C 101.309,206.767 92.1419,210.767 82.5,213.5C 80.836,204.846 79.1694,196.18 77.5,187.5C 77.8333,186.5 78.1667,185.5 78.5,184.5C 86.4236,183.148 94.4236,182.314 102.5,182C 103.993,177.18 106.16,172.68 109,168.5C 109.667,166.167 109.667,163.833 109,161.5C 107.592,157.943 106.592,154.276 106,150.5C 105.5,142.173 105.334,133.84 105.5,125.5C 107.824,125.338 109.491,124.172 110.5,122C 118.53,122.195 126.197,120.695 133.5,117.5C 135.274,114.285 136.774,110.952 138,107.5C 139.644,104.689 141.81,102.356 144.5,100.5C 144.609,93.9942 146.942,88.4942 151.5,84C 153.025,82.9914 154.692,82.4914 156.5,82.5C 158.02,75.6556 162.353,71.989 169.5,71.5C 172.952,72.0952 176.286,73.0952 179.5,74.5C 181.238,66.6814 185.238,60.3481 191.5,55.5C 192.046,50.0669 194.379,45.7335 198.5,42.5 Z"/></g>
<g><path style="opacity:1" fill="#efefef" d="M 200.5,45.5 C 203.412,45.7888 205.412,47.2888 206.5,50C 203.14,52.0641 199.474,53.2308 195.5,53.5C 196.34,50.3243 198.007,47.6576 200.5,45.5 Z"/></g>
<g><path style="opacity:1" fill="#7e7f7e" d="M 208.5,52.5 C 209.922,52.7086 211.255,53.2086 212.5,54C 210.5,54.6667 208.5,54.6667 206.5,54C 207.416,53.7216 208.082,53.2216 208.5,52.5 Z"/></g>
<g><path style="opacity:1" fill="#7e7f7e" d="M 197.5,58.5 C 199.605,57.1811 201.605,57.5144 203.5,59.5C 201.243,60.7698 199.243,60.4364 197.5,58.5 Z"/></g>
<g><path style="opacity:1" fill="#7e7f7e" d="M 208.5,58.5 C 210.359,58.4609 211.692,59.2942 212.5,61C 210.055,61.9098 208.722,61.0764 208.5,58.5 Z"/></g>
<g><path style="opacity:1" fill="#7e7f7e" d="M 204.5,65.5 C 206.045,66.2297 206.878,67.563 207,69.5C 207.308,68.6919 207.808,68.0253 208.5,67.5C 209.833,71.5 211.167,71.5 212.5,67.5C 213.614,68.723 213.781,70.0563 213,71.5C 210.401,71.3671 207.734,71.3671 205,71.5C 204.505,69.5273 204.338,67.5273 204.5,65.5 Z"/></g>
<g><path style="opacity:1" fill="#7e7f7e" d="M 199.5,66.5 C 200.5,66.5 201.5,66.5 202.5,66.5C 202.778,68.3464 202.111,69.6798 200.5,70.5C 199.571,69.3112 199.238,67.9778 199.5,66.5 Z"/></g>
<g><path style="opacity:1" fill="#7e7f7e" d="M 185.5,68.5 C 186.5,68.5 187.5,68.5 188.5,68.5C 188.884,70.6648 188.217,72.3315 186.5,73.5C 185.548,71.9547 185.215,70.288 185.5,68.5 Z"/></g>
<g><path style="opacity:1" fill="#7e7f7e" d="M 217.5,78.5 C 218.451,79.9187 218.784,81.5853 218.5,83.5C 216.335,83.8841 214.668,83.2174 213.5,81.5C 215.231,78.7612 216.397,79.0945 217,82.5C 217.49,81.2068 217.657,79.8734 217.5,78.5 Z"/></g>
<g><path style="opacity:1" fill="#fefffe" d="M 174.5,80.5 C 177.045,78.9768 179.045,79.6434 180.5,82.5C 179.167,84.5 177.5,86.1667 175.5,87.5C 173.358,86.5629 173.024,85.2296 174.5,83.5C 175.833,82.5 175.833,81.5 174.5,80.5 Z"/></g>
<g><path style="opacity:1" fill="#b8b8b8" d="M 174.5,80.5 C 175.833,81.5 175.833,82.5 174.5,83.5C 171.833,82.5 171.833,81.5 174.5,80.5 Z"/></g>
<g><path style="opacity:1" fill="#7e7f7e" d="M 186.5,80.5 C 187.478,80.811 188.145,81.4777 188.5,82.5C 187.359,83.4255 187.359,84.2588 188.5,85C 187.365,85.7494 186.365,85.5827 185.5,84.5C 186.246,83.2638 186.579,81.9305 186.5,80.5 Z"/></g>
<g><path style="opacity:1" fill="#7e7f7e" d="M 195.5,80.5 C 198.347,82.7975 198.013,84.1309 194.5,84.5C 194.433,83.0413 194.766,81.7079 195.5,80.5 Z"/></g>
<g><path style="opacity:1" fill="#1b8d3c" d="M 228.5,84.5 C 228.5,84.8333 228.5,85.1667 228.5,85.5C 226.451,86.6414 224.451,86.6414 222.5,85.5C 222.484,83.5159 223.484,82.5159 225.5,82.5C 227.038,82.4534 228.038,83.1201 228.5,84.5 Z"/></g>
<g><path style="opacity:1" fill="#71739a" d="M 162.5,84.5 C 163.251,83.4265 164.251,83.2599 165.5,84C 174.291,88.3072 177.124,95.1406 174,104.5C 171.512,106.743 168.846,108.743 166,110.5C 164.933,109.809 163.766,109.309 162.5,109C 168.93,102.738 170.097,95.5711 166,87.5C 164.961,86.2899 163.794,85.2899 162.5,84.5 Z"/></g>
<g><path style="opacity:1" fill="#646587" d="M 185.5,92.5 C 184.253,97.8388 182.253,102.839 179.5,107.5C 177.007,107.869 176.34,107.203 177.5,105.5C 178.436,101.265 178.769,96.9315 178.5,92.5C 178.446,89.033 179.946,86.3663 183,84.5C 183.279,87.4568 184.113,90.1234 185.5,92.5 Z"/></g>
<g><path style="opacity:1" fill="#7e7f7e" d="M 205.5,84.5 C 206.793,86.3635 206.793,88.3635 205.5,90.5C 205.891,89.2815 205.224,88.4482 203.5,88C 204.823,87.1841 205.489,86.0174 205.5,84.5 Z"/></g>
<g><path style="opacity:1" fill="#fefffe" d="M 228.5,84.5 C 231.217,85.6782 231.55,86.6782 229.5,87.5C 228.662,87.1583 228.328,86.4916 228.5,85.5C 228.5,85.1667 228.5,84.8333 228.5,84.5 Z"/></g>
<g><path style="opacity:1" fill="#ec1c23" d="M 222.5,85.5 C 224.451,86.6414 226.451,86.6414 228.5,85.5C 228.328,86.4916 228.662,87.1583 229.5,87.5C 228.738,89.2624 227.404,90.2624 225.5,90.5C 224.642,87.705 222.642,87.0383 219.5,88.5C 219.5,86.5 220.5,85.5 222.5,85.5 Z"/></g>
<g><path style="opacity:1" fill="#7e7f7e" d="M 192.5,87.5 C 196.512,90.5835 196.179,91.7501 191.5,91C 192.337,89.9887 192.67,88.8221 192.5,87.5 Z"/></g>
<g><path style="opacity:1" fill="#fefffe" d="M 225.5,90.5 C 223.999,91.7515 222.332,92.7515 220.5,93.5C 220.567,92.0413 220.234,90.7079 219.5,89.5C 219.5,89.1667 219.5,88.8333 219.5,88.5C 222.642,87.0383 224.642,87.705 225.5,90.5 Z"/></g>
<g><path style="opacity:1" fill="#5f607f" d="M 154.5,84.5 C 160.798,84.2933 164.631,87.2933 166,93.5C 166.916,99.086 165.249,103.753 161,107.5C 159.913,105.068 159.413,105.402 159.5,108.5C 151.219,107.892 147.219,103.559 147.5,95.5C 148.128,93.7419 149.128,92.2419 150.5,91C 150.043,90.586 149.709,90.086 149.5,89.5C 150.882,87.4514 152.548,85.7847 154.5,84.5 Z"/></g>
<g><path style="opacity:1" fill="#fefffe" d="M 178.5,92.5 C 178.769,96.9315 178.436,101.265 177.5,105.5C 177.645,101.336 177.311,97.0029 176.5,92.5C 176.667,91.5 176.833,90.5 177,89.5C 177.232,90.7375 177.732,91.7375 178.5,92.5 Z"/></g>
<g><path style="opacity:1" fill="#ec1c23" d="M 219.5,89.5 C 220.234,90.7079 220.567,92.0413 220.5,93.5C 218.958,94.3007 217.292,94.634 215.5,94.5C 215.167,93.8333 214.833,93.1667 214.5,92.5C 215.605,90.7769 217.272,89.7769 219.5,89.5 Z"/></g>
<g><path style="opacity:1" fill="#e75c00" d="M 230.5,94.5 C 225.634,96.4004 220.801,98.4004 216,100.5C 214.517,103.702 214.183,107.036 215,110.5C 217.172,111.509 218.338,113.176 218.5,115.5C 211.181,114.998 208.014,110.998 209,103.5C 208.292,102.619 207.458,101.953 206.5,101.5C 205.053,100.115 204.053,100.448 203.5,102.5C 200.78,106.087 201.114,109.587 204.5,113C 202.97,114.12 201.303,114.954 199.5,115.5C 198.299,113.091 196.633,111.091 194.5,109.5C 194.5,107.167 194.5,104.833 194.5,102.5C 195.552,101.47 196.886,100.803 198.5,100.5C 210.367,100.115 221.367,96.782 231.5,90.5C 231.833,90.8333 232.167,91.1667 232.5,91.5C 231.807,92.5178 231.141,93.5178 230.5,94.5 Z"/></g>
<g><path style="opacity:1" fill="#484964" d="M 185.5,92.5 C 188.787,93.8182 191.787,95.4849 194.5,97.5C 194.5,99.1667 194.5,100.833 194.5,102.5C 194.5,104.833 194.5,107.167 194.5,109.5C 193.833,108.833 193.167,108.167 192.5,107.5C 190.253,107.915 188.086,108.582 186,109.5C 183.774,108.967 181.607,108.3 179.5,107.5C 182.253,102.839 184.253,97.8388 185.5,92.5 Z"/></g>
<g><path style="opacity:1" fill="#fefffe" d="M 214.5,92.5 C 214.833,93.1667 215.167,93.8333 215.5,94.5C 214.486,95.6737 213.153,96.3404 211.5,96.5C 211.167,95.8333 210.833,95.1667 210.5,94.5C 211.287,92.8958 212.62,92.2291 214.5,92.5 Z"/></g>
<g><path style="opacity:1" fill="#deeddf" d="M 204.5,95.5 C 204.5,96.1667 204.5,96.8333 204.5,97.5C 203.5,97.5 202.5,97.5 201.5,97.5C 201.5,96.1667 200.833,95.5 199.5,95.5C 200.172,94.7326 201.005,94.0659 202,93.5C 202.708,94.3805 203.542,95.0472 204.5,95.5 Z"/></g>
<g><path style="opacity:1" fill="#ead8b2" d="M 220.5,124.5 C 219.739,123.609 218.739,122.942 217.5,122.5C 212.905,124.52 209.239,123.52 206.5,119.5C 204.929,118.691 203.262,118.357 201.5,118.5C 200.094,118.027 199.427,117.027 199.5,115.5C 201.303,114.954 202.97,114.12 204.5,113C 201.114,109.587 200.78,106.087 203.5,102.5C 204.391,101.89 205.391,101.557 206.5,101.5C 207.458,101.953 208.292,102.619 209,103.5C 208.014,110.998 211.181,114.998 218.5,115.5C 218.338,113.176 217.172,111.509 215,110.5C 214.183,107.036 214.517,103.702 216,100.5C 220.801,98.4004 225.634,96.4004 230.5,94.5C 234.081,93.7088 234.414,94.8755 231.5,98C 228.367,97.9539 225.7,98.9539 223.5,101C 226.191,101.049 228.858,101.049 231.5,101C 237.065,105.335 236.065,107.335 228.5,107C 229.833,107.333 231.167,107.667 232.5,108C 230.649,109.684 228.982,111.517 227.5,113.5C 228.5,114.833 229.5,116.167 230.5,117.5C 228.005,119.164 226.005,121.33 224.5,124C 223.207,124.49 221.873,124.657 220.5,124.5 Z"/></g>
<g><path style="opacity:1" fill="#ec1c23" d="M 210.5,94.5 C 210.833,95.1667 211.167,95.8333 211.5,96.5C 209.283,97.3686 206.95,97.702 204.5,97.5C 204.5,96.8333 204.5,96.1667 204.5,95.5C 205.15,95.8039 205.817,96.1373 206.5,96.5C 207.622,95.3698 208.956,94.7031 210.5,94.5 Z"/></g>
<g><path style="opacity:1" fill="#ec1c23" d="M 199.5,95.5 C 200.833,95.5 201.5,96.1667 201.5,97.5C 199.712,98.6225 197.712,98.7891 195.5,98C 196.693,96.9054 198.027,96.072 199.5,95.5 Z"/></g>
<g><path style="opacity:1" fill="#000000" d="M 206.5,101.5 C 205.391,101.557 204.391,101.89 203.5,102.5C 204.053,100.448 205.053,100.115 206.5,101.5 Z"/></g>
<g><path style="opacity:1" fill="#393a39" d="M 144.5,102.5 C 146.909,104.367 149.242,106.534 151.5,109C 153.392,109.973 155.392,110.64 157.5,111C 155.833,112 154.167,113 152.5,114C 147.384,114.696 142.384,115.863 137.5,117.5C 138.058,111.895 140.391,106.895 144.5,102.5 Z"/></g>
<g><path style="opacity:1" fill="#b9b9b9" d="M 192.5,107.5 C 193.167,108.167 193.833,108.833 194.5,109.5C 196.633,111.091 198.299,113.091 199.5,115.5C 199.427,117.027 200.094,118.027 201.5,118.5C 203.931,124.825 203.098,130.825 199,136.5C 198.722,135.584 198.222,134.918 197.5,134.5C 195.735,130.631 194.235,126.631 193,122.5C 192.292,121.619 191.458,120.953 190.5,120.5C 189.363,117.771 188.03,115.104 186.5,112.5C 186.97,111.537 187.637,111.537 188.5,112.5C 193.035,116.896 196.035,122.23 197.5,128.5C 198.988,131.186 199.655,130.853 199.5,127.5C 199.662,125.473 199.495,123.473 199,121.5C 196.579,117.929 194.413,114.262 192.5,110.5C 192.5,109.5 192.5,108.5 192.5,107.5 Z"/></g>
<g><path style="opacity:1" fill="#fef200" d="M 192.5,110.5 C 194.413,114.262 196.579,117.929 199,121.5C 199.495,123.473 199.662,125.473 199.5,127.5C 198.833,127.833 198.167,128.167 197.5,128.5C 196.035,122.23 193.035,116.896 188.5,112.5C 189.345,110.238 190.678,109.571 192.5,110.5 Z"/></g>
<g><path style="opacity:1" fill="#e31a21" d="M 173.5,123.5 C 174.183,125.176 175.517,125.843 177.5,125.5C 178.603,129.485 177.27,132.651 173.5,135C 159.304,140.808 144.637,142.641 129.5,140.5C 130.013,146.358 129.346,152.025 127.5,157.5C 122.688,159.271 117.854,160.937 113,162.5C 108.793,151.188 107.46,139.521 109,127.5C 109.956,126.421 110.789,125.255 111.5,124C 115.5,123.667 119.5,123.333 123.5,123C 133.43,120.351 143.43,118.017 153.5,116C 162.685,108.51 168.185,110.677 170,122.5C 171.011,123.337 172.178,123.67 173.5,123.5 Z"/></g>
<g><path style="opacity:1" fill="#d5d5d5" d="M 176.5,147.5 C 175.833,146.167 174.833,145.167 173.5,144.5C 175.733,139.701 178.233,135.035 181,130.5C 182.679,124.519 182.846,118.519 181.5,112.5C 181.938,111.494 182.604,111.494 183.5,112.5C 187.211,117.191 188.378,122.524 187,128.5C 183.965,135.249 180.465,141.582 176.5,147.5 Z"/></g>
<g><path style="opacity:1" fill="#d1d1d1" d="M 177.5,125.5 C 177.631,124.761 177.464,124.094 177,123.5C 175.855,124.684 174.688,124.684 173.5,123.5C 173.607,121.621 173.107,121.288 172,122.5C 169.833,121 170,119.833 172.5,119C 169.456,118.641 169.122,117.974 171.5,117C 168.332,116.418 167.999,115.418 170.5,114C 169.552,113.517 168.552,113.351 167.5,113.5C 167.651,110.282 168.484,109.949 170,112.5C 170.49,111.207 170.657,109.873 170.5,108.5C 172.857,108.337 175.19,108.503 177.5,109C 178.126,109.75 178.626,110.584 179,111.5C 180.305,115.147 180.805,118.814 180.5,122.5C 180.484,124.516 179.484,125.516 177.5,125.5 Z"/></g>
<g><path style="opacity:1" fill="#000000" d="M 176.5,116.5 C 178.646,116.696 178.812,117.696 177,119.5C 176.517,118.552 176.351,117.552 176.5,116.5 Z"/></g>
<g><path style="opacity:1" fill="#931013" d="M 190.5,120.5 C 191.458,120.953 192.292,121.619 193,122.5C 194.235,126.631 195.735,130.631 197.5,134.5C 197.443,135.609 197.11,136.609 196.5,137.5C 197.5,139.5 198.5,141.5 199.5,143.5C 201.607,144.468 203.941,144.802 206.5,144.5C 204.883,149.451 201.549,152.784 196.5,154.5C 195.558,154.392 194.725,154.059 194,153.5C 191.57,142.424 190.403,131.424 190.5,120.5 Z"/></g>
<g><path style="opacity:1" fill="#000000" d="M 173.5,123.5 C 174.688,124.684 175.855,124.684 177,123.5C 177.464,124.094 177.631,124.761 177.5,125.5C 175.517,125.843 174.183,125.176 173.5,123.5 Z"/></g>
<g><path style="opacity:1" fill="#e3e4e3" d="M 220.5,124.5 C 225.34,142.029 219.673,155.529 203.5,165C 202.251,165.74 201.251,165.573 200.5,164.5C 201.167,164.5 201.5,164.167 201.5,163.5C 203.392,162.298 205.226,160.965 207,159.5C 209.587,155.239 212.587,151.239 216,147.5C 216.87,140.185 217.537,132.852 218,125.5C 218.671,124.748 219.504,124.414 220.5,124.5 Z"/></g>
<g><path style="opacity:1" fill="#000000" d="M 199.5,127.5 C 199.655,130.853 198.988,131.186 197.5,128.5C 198.167,128.167 198.833,127.833 199.5,127.5 Z"/></g>
<g><path style="opacity:1" fill="#e3e4e3" d="M 206.5,136.5 C 205.153,137.028 203.819,137.195 202.5,137C 206.682,134.074 210.682,130.907 214.5,127.5C 215.521,128.002 215.688,128.668 215,129.5C 211.977,131.698 209.144,134.031 206.5,136.5 Z"/></g>
<g><path style="opacity:1" fill="#e3e4e3" d="M 188.5,129.5 C 189.984,138.013 191.318,146.679 192.5,155.5C 191.07,155.421 189.736,155.754 188.5,156.5C 186.66,150.971 185.327,145.304 184.5,139.5C 185.283,135.936 186.616,132.603 188.5,129.5 Z"/></g>
<g><path style="opacity:1" fill="#f3f3f3" d="M 224.5,129.5 C 225.289,129.783 225.956,130.283 226.5,131C 225.184,131.528 224.517,131.028 224.5,129.5 Z"/></g>
<g><path style="opacity:1" fill="#e3e4e3" d="M 213.5,131.5 C 216.466,141.684 213.466,150.184 204.5,157C 201.617,159.845 198.951,159.845 196.5,157C 201.252,154.252 205.419,150.752 209,146.5C 210.293,141.331 211.793,136.331 213.5,131.5 Z"/></g>
<g><path style="opacity:1" fill="#eff0ef" d="M 224.5,134.5 C 226.085,135.002 226.585,136.002 226,137.5C 224.961,136.756 224.461,135.756 224.5,134.5 Z"/></g>
<g><path style="opacity:1" fill="#c00f18" d="M 170.5,144.5 C 169.599,145.29 168.932,146.29 168.5,147.5C 162.222,148.79 155.888,148.79 149.5,147.5C 150.309,145.929 150.643,144.262 150.5,142.5C 159.199,141.807 167.365,139.474 175,135.5C 175.079,139.263 173.579,142.263 170.5,144.5 Z"/></g>
<g><path style="opacity:1" fill="#a10d13" d="M 206.5,136.5 C 207.767,135.913 208.767,135.913 209.5,136.5C 208.386,137.776 207.386,137.776 206.5,136.5 Z"/></g>
<g><path style="opacity:1" fill="#e3e4e3" d="M 196.5,137.5 C 200.481,138.021 204.481,138.354 208.5,138.5C 208.579,139.93 208.246,141.264 207.5,142.5C 204.914,143.48 202.247,143.813 199.5,143.5C 198.5,141.5 197.5,139.5 196.5,137.5 Z"/></g>
<g><path style="opacity:1" fill="#000000" d="M 200.5,139.5 C 202.195,140.011 203.861,140.678 205.5,141.5C 202.83,143.09 201.163,142.423 200.5,139.5 Z"/></g>
<g><path style="opacity:1" fill="#a10d13" d="M 181.5,141.5 C 182.117,141.611 182.617,141.944 183,142.5C 184.31,146.07 185.143,149.737 185.5,153.5C 182.415,153.458 180.081,152.125 178.5,149.5C 180.076,147.021 181.076,144.354 181.5,141.5 Z"/></g>
<g><path style="opacity:1" fill="#393a39" d="M 132.5,142.5 C 134.5,142.833 136.5,143.167 138.5,143.5C 134.515,155.812 132.515,155.478 132.5,142.5 Z"/></g>
<g><path style="opacity:1" fill="#4c4c4c" d="M 170.5,144.5 C 171.5,144.5 172.5,144.5 173.5,144.5C 174.833,145.167 175.833,146.167 176.5,147.5C 176.158,148.338 175.492,148.672 174.5,148.5C 172.602,147.266 170.935,147.599 169.5,149.5C 168.662,149.158 168.328,148.492 168.5,147.5C 168.932,146.29 169.599,145.29 170.5,144.5 Z"/></g>
<g><path style="opacity:1" fill="#d1131c" d="M 225.5,167.5 C 222.126,167.326 218.793,166.826 215.5,166C 213.676,165.34 212.343,164.173 211.5,162.5C 213.795,159.703 216.295,157.036 219,154.5C 220.139,151.417 221.472,148.417 223,145.5C 223.694,152.858 224.528,160.191 225.5,167.5 Z"/></g>
<g><path style="opacity:1" fill="#e3e4e3" d="M 174.5,148.5 C 174.611,149.117 174.944,149.617 175.5,150C 174,151.5 172.5,153 171,154.5C 168.676,153.225 168.176,151.558 169.5,149.5C 170.935,147.599 172.602,147.266 174.5,148.5 Z"/></g>
<g><path style="opacity:1" fill="#e3e4e3" d="M 152.5,149.5 C 157.537,149.413 162.537,149.746 167.5,150.5C 167.67,151.822 167.337,152.989 166.5,154C 159.144,154.831 151.811,154.665 144.5,153.5C 144.977,152.522 145.643,151.689 146.5,151C 148.708,150.809 150.708,150.309 152.5,149.5 Z"/></g>
<g><path style="opacity:1" fill="#d5d5d5" d="M 176.5,151.5 C 177.801,152.64 178.968,153.973 180,155.5C 182.573,154.017 184.74,154.517 186.5,157C 184.884,157.615 183.551,158.615 182.5,160C 181.5,160.667 180.5,160.667 179.5,160C 178.333,158.5 177.167,157 176,155.5C 175.086,156.654 174.253,156.487 173.5,155C 174.71,153.961 175.71,152.794 176.5,151.5 Z"/></g>
<g><path style="opacity:1" fill="#e21820" d="M 155.5,172.5 C 154.161,169.299 152.494,168.965 150.5,171.5C 151.953,173.185 153.286,174.851 154.5,176.5C 152.606,175.952 150.94,174.952 149.5,173.5C 147.805,174.174 146.138,174.841 144.5,175.5C 141.894,174.15 141.894,172.65 144.5,171C 144.272,170.601 143.938,170.435 143.5,170.5C 142.909,169.849 142.243,169.182 141.5,168.5C 144.052,166.631 146.552,164.631 149,162.5C 148.782,160.413 148.949,158.413 149.5,156.5C 161.205,153.593 171.871,155.593 181.5,162.5C 180.076,164.718 178.076,166.218 175.5,167C 168.903,169.149 162.236,170.982 155.5,172.5 Z"/></g>
<g><path style="opacity:1" fill="#333333" d="M 139.5,170.5 C 139.259,172.886 139.925,174.886 141.5,176.5C 139.176,177.656 136.843,178.656 134.5,179.5C 133.5,179.167 132.833,178.5 132.5,177.5C 135.189,170.456 138.689,163.79 143,157.5C 145.503,156.45 147.003,157.45 147.5,160.5C 145.313,162.85 142.813,164.85 140,166.5C 139.51,167.793 139.343,169.127 139.5,170.5 Z"/></g>
<g><path style="opacity:1" fill="#7e7f7e" d="M 191.5,157.5 C 194.09,158.128 196.423,159.295 198.5,161C 196.383,162.731 194.883,164.898 194,167.5C 192.806,168.43 191.473,169.097 190,169.5C 181.321,164.65 181.821,160.65 191.5,157.5 Z"/></g>
<g><path style="opacity:1" fill="#7e7f7e" d="M 358.5,157.5 C 370.171,157.333 381.838,157.5 393.5,158C 392.833,158.333 392.167,158.667 391.5,159C 369.252,160.328 347.085,162.494 325,165.5C 322.4,165.082 320.233,163.916 318.5,162C 319.551,160.615 320.884,159.615 322.5,159C 334.674,158.831 346.674,158.331 358.5,157.5 Z"/></g>
<g><path style="opacity:1" fill="#a10d13" d="M 202.5,160.5 C 203.002,158.915 204.002,158.415 205.5,159C 204.756,160.039 203.756,160.539 202.5,160.5 Z"/></g>
<g><path style="opacity:1" fill="#fef200" d="M 130.5,163.5 C 128.974,164.492 128.307,165.992 128.5,168C 128.514,169.385 128.848,170.551 129.5,171.5C 129.918,172.222 130.584,172.722 131.5,173C 125.181,177.131 118.515,178.464 111.5,177C 112.416,176.722 113.082,176.222 113.5,175.5C 114.634,173.034 114.801,170.367 114,167.5C 113.617,166.944 113.117,166.611 112.5,166.5C 112.389,165.883 112.056,165.383 111.5,165C 116.793,163.886 121.96,162.386 127,160.5C 128.908,160.715 130.074,161.715 130.5,163.5 Z"/></g>
<g><path style="opacity:1" fill="#921113" d="M 202.5,160.5 C 201.89,161.391 201.557,162.391 201.5,163.5C 201.5,164.167 201.167,164.5 200.5,164.5C 199.624,164.631 198.957,164.298 198.5,163.5C 199.283,161.712 200.616,160.712 202.5,160.5 Z"/></g>
<g><path style="opacity:1" fill="#a10d13" d="M 211.5,162.5 C 212.343,164.173 213.676,165.34 215.5,166C 218.793,166.826 222.126,167.326 225.5,167.5C 224.77,169.045 223.437,169.878 221.5,170C 215.37,171.735 210.703,170.068 207.5,165C 208.471,163.519 209.804,162.685 211.5,162.5 Z"/></g>
<g><path style="opacity:1" fill="#7e7f7e" d="M 316.5,162.5 C 318.522,164.456 320.855,165.956 323.5,167C 321.317,168.694 318.984,168.861 316.5,167.5C 315.185,165.801 315.185,164.135 316.5,162.5 Z"/></g>
<g><path style="opacity:1" fill="#b0b0b0" d="M 130.5,163.5 C 131.156,164.622 131.489,165.955 131.5,167.5C 131.415,169.333 130.748,170.666 129.5,171.5C 128.848,170.551 128.514,169.385 128.5,168C 128.307,165.992 128.974,164.492 130.5,163.5 Z"/></g>
<g><path style="opacity:1" fill="#8c8c8c" d="M 123.5,163.5 C 124.496,163.414 125.329,163.748 126,164.5C 126.667,167.5 126.667,170.5 126,173.5C 122.341,175.02 120.841,173.687 121.5,169.5C 121.363,167.159 122.03,165.159 123.5,163.5 Z"/></g>
<g><path style="opacity:1" fill="#8c8c8c" d="M 116.5,164.5 C 118.017,164.511 119.184,165.177 120,166.5C 120.667,169.167 120.667,171.833 120,174.5C 118.667,175.833 117.333,175.833 116,174.5C 115.253,171.076 115.42,167.743 116.5,164.5 Z"/></g>
<g><path style="opacity:1" fill="#e3e4e3" d="M 180.5,165.5 C 182.296,166.793 183.963,168.293 185.5,170C 184.833,170.667 184.167,171.333 183.5,172C 176.483,172.602 169.483,172.935 162.5,173C 168.758,170.974 174.758,168.474 180.5,165.5 Z"/></g>
<g><path style="opacity:1" fill="#fefffe" d="M 198.5,170.5 C 198.167,169.5 197.5,168.833 196.5,168.5C 197.193,165.162 198.86,164.662 201.5,167C 200.364,168.145 199.364,169.312 198.5,170.5 Z"/></g>
<g><path style="opacity:1" fill="#b1b1b1" d="M 112.5,166.5 C 113.117,166.611 113.617,166.944 114,167.5C 114.801,170.367 114.634,173.034 113.5,175.5C 112.235,174.486 111.569,172.986 111.5,171C 111.508,169.293 111.842,167.793 112.5,166.5 Z"/></g>
<g><path style="opacity:1" fill="#4d4d4d" d="M 302.5,167.5 C 286.701,169.483 270.701,170.817 254.5,171.5C 252.396,171.799 250.396,171.466 248.5,170.5C 264.316,169.001 280.149,167.668 296,166.5C 298.361,166.504 300.527,166.837 302.5,167.5 Z"/></g>
<g><path style="opacity:1" fill="#7e7f7e" d="M 310.5,166.5 C 316.492,166.797 316.825,168.13 311.5,170.5C 310.571,169.311 310.238,167.978 310.5,166.5 Z"/></g>
<g><path style="opacity:1" fill="#fefffe" d="M 204.5,167.5 C 206.196,167.685 207.529,168.519 208.5,170C 206.5,170.667 204.5,170.667 202.5,170C 203.381,169.292 204.047,168.458 204.5,167.5 Z"/></g>
<g><path style="opacity:1" fill="#b87a56" d="M 302.5,167.5 C 304.5,167.5 306.5,167.5 308.5,167.5C 308.5,168.833 308.5,170.167 308.5,171.5C 300.358,172.517 292.358,174.184 284.5,176.5C 283.071,175.065 281.405,174.065 279.5,173.5C 278,173.453 277,174.119 276.5,175.5C 267.823,176.602 259.157,177.602 250.5,178.5C 249.77,176.659 249.103,174.825 248.5,173C 250.708,172.809 252.708,172.309 254.5,171.5C 270.701,170.817 286.701,169.483 302.5,167.5 Z"/></g>
<g><path style="opacity:1" fill="#7c1412" d="M 196.5,168.5 C 197.5,168.833 198.167,169.5 198.5,170.5C 197.791,171.404 196.791,171.737 195.5,171.5C 195.263,170.209 195.596,169.209 196.5,168.5 Z"/></g>
<g><path style="opacity:1" fill="#efdeb8" d="M 247.5,183.5 C 244.478,184.926 241.312,185.926 238,186.5C 235.183,185.969 232.35,185.636 229.5,185.5C 229.833,182.833 230.167,180.167 230.5,177.5C 231.114,174.692 232.281,172.025 234,169.5C 234.832,185.486 235.332,185.486 235.5,169.5C 236.833,169.5 238.167,169.5 239.5,169.5C 239.833,184.167 240.167,184.167 240.5,169.5C 241.5,169.5 242.5,169.5 243.5,169.5C 243.335,172.518 243.502,175.518 244,178.5C 244.333,175.167 244.667,171.833 245,168.5C 247.029,173.231 247.863,178.231 247.5,183.5 Z"/></g>
<g><path style="opacity:1" fill="#e3e4e3" d="M 193.5,169.5 C 194.043,169.56 194.376,169.893 194.5,170.5C 193.635,171.583 192.635,171.749 191.5,171C 192.416,170.722 193.082,170.222 193.5,169.5 Z"/></g>
<g><path style="opacity:1" fill="#5a5a5a" d="M 155.5,172.5 C 156.631,175.333 158.798,176.666 162,176.5C 184.824,174.797 207.658,173.63 230.5,173C 227.635,173.183 224.969,173.683 222.5,174.5C 205.703,176.536 188.703,177.869 171.5,178.5C 167.637,178.462 163.804,178.795 160,179.5C 157.822,179.605 155.988,178.939 154.5,177.5C 154.5,177.167 154.5,176.833 154.5,176.5C 153.286,174.851 151.953,173.185 150.5,171.5C 152.494,168.965 154.161,169.299 155.5,172.5 Z"/></g>
<g><path style="opacity:1" fill="#000000" d="M 154.5,176.5 C 154.5,176.833 154.5,177.167 154.5,177.5C 152.43,177.551 150.597,176.885 149,175.5C 147.118,176.093 146.118,177.427 146,179.5C 145.59,178.099 145.09,176.766 144.5,175.5C 146.138,174.841 147.805,174.174 149.5,173.5C 150.94,174.952 152.606,175.952 154.5,176.5 Z"/></g>
<g><path style="opacity:1" fill="#b77956" d="M 222.5,174.5 C 225.167,174.5 227.833,174.5 230.5,174.5C 230.5,175.5 230.5,176.5 230.5,177.5C 223.827,180.404 216.827,182.237 209.5,183C 192.539,184.813 175.539,186.146 158.5,187C 154.779,187.681 151.113,188.514 147.5,189.5C 147.103,188.475 146.437,188.308 145.5,189C 144.816,192.922 142.482,194.422 138.5,193.5C 137.5,192.5 136.5,191.5 135.5,190.5C 135.685,188.804 136.519,187.471 138,186.5C 138.765,184.934 138.598,183.601 137.5,182.5C 136.167,181.833 135.167,180.833 134.5,179.5C 136.843,178.656 139.176,177.656 141.5,176.5C 141.643,178.262 141.309,179.929 140.5,181.5C 140.855,182.522 141.522,183.189 142.5,183.5C 144.356,187.168 147.356,188.334 151.5,187C 156.668,185.75 161.334,183.416 165.5,180C 167.708,179.809 169.708,179.309 171.5,178.5C 188.703,177.869 205.703,176.536 222.5,174.5 Z"/></g>
<g><path style="opacity:1" fill="#ecdab6" d="M 132.5,177.5 C 132.833,178.5 133.5,179.167 134.5,179.5C 135.167,180.833 136.167,181.833 137.5,182.5C 137.201,184.973 136.201,187.14 134.5,189C 134.57,189.765 134.903,190.265 135.5,190.5C 135.662,192.527 135.495,194.527 135,196.5C 134.586,196.957 134.086,197.291 133.5,197.5C 132.206,195.038 130.706,192.705 129,190.5C 128.835,192.678 129.668,194.511 131.5,196C 129.45,199.069 127.95,198.569 127,194.5C 126.316,195.784 126.483,196.951 127.5,198C 125.723,200.152 124.223,199.985 123,197.5C 122.275,199.158 121.108,199.658 119.5,199C 118.186,198.015 117.186,196.848 116.5,195.5C 115.083,192.331 113.417,189.331 111.5,186.5C 112.15,184.565 112.483,182.565 112.5,180.5C 119.131,180.437 125.297,178.771 131,175.5C 131.278,176.416 131.778,177.082 132.5,177.5 Z"/></g>
<g><path style="opacity:1" fill="#737373" d="M 139.5,170.5 C 140.833,170.5 142.167,170.5 143.5,170.5C 143.938,170.435 144.272,170.601 144.5,171C 141.894,172.65 141.894,174.15 144.5,175.5C 145.09,176.766 145.59,178.099 146,179.5C 146.118,177.427 147.118,176.093 149,175.5C 150.597,176.885 152.43,177.551 154.5,177.5C 154.414,178.496 154.748,179.329 155.5,180C 157.167,180.333 158.833,180.667 160.5,181C 154.858,185.167 148.858,186.001 142.5,183.5C 141.522,183.189 140.855,182.522 140.5,181.5C 141.309,179.929 141.643,178.262 141.5,176.5C 139.925,174.886 139.259,172.886 139.5,170.5 Z"/></g>
<g><path style="opacity:1" fill="#fec90d" d="M 278.5,175.5 C 280.337,175.639 280.67,176.306 279.5,177.5C 278.702,177.043 278.369,176.376 278.5,175.5 Z"/></g>
<g><path style="opacity:1" fill="#000000" d="M 154.5,177.5 C 155.988,178.939 157.822,179.605 160,179.5C 163.804,178.795 167.637,178.462 171.5,178.5C 169.708,179.309 167.708,179.809 165.5,180C 161.334,183.416 156.668,185.75 151.5,187C 147.356,188.334 144.356,187.168 142.5,183.5C 148.858,186.001 154.858,185.167 160.5,181C 158.833,180.667 157.167,180.333 155.5,180C 154.748,179.329 154.414,178.496 154.5,177.5 Z"/></g>
<g><path style="opacity:1" fill="#fefffe" d="M 265.5,178.5 C 270.297,178.121 274.964,178.621 279.5,180C 269.507,180.917 259.507,181.25 249.5,181C 254.936,179.989 260.27,179.156 265.5,178.5 Z"/></g>
<g><path style="opacity:1" fill="#fefffe" d="M 224.5,181.5 C 225.873,181.343 227.207,181.51 228.5,182C 221.684,184.43 214.684,186.097 207.5,187C 188.481,188.591 169.481,189.925 150.5,191C 153.471,190.206 156.471,189.539 159.5,189C 176.539,188.146 193.539,186.813 210.5,185C 215.465,184.513 220.132,183.346 224.5,181.5 Z"/></g>
<g><path style="opacity:1" fill="#000000" d="M 137.5,182.5 C 138.598,183.601 138.765,184.934 138,186.5C 136.519,187.471 135.685,188.804 135.5,190.5C 134.903,190.265 134.57,189.765 134.5,189C 136.201,187.14 137.201,184.973 137.5,182.5 Z"/></g>
<g><path style="opacity:1" fill="#e2c481" d="M 247.5,183.5 C 247.67,184.822 247.337,185.989 246.5,187C 242.406,189.198 238.073,190.698 233.5,191.5C 229.692,191.555 227.525,189.888 227,186.5C 227.671,185.748 228.504,185.414 229.5,185.5C 232.35,185.636 235.183,185.969 238,186.5C 241.312,185.926 244.478,184.926 247.5,183.5 Z"/></g>
<g><path style="opacity:1" fill="#ae7352" d="M 111.5,186.5 C 113.417,189.331 115.083,192.331 116.5,195.5C 116.5,196.5 116.5,197.5 116.5,198.5C 106.508,199.406 97.341,202.74 89,208.5C 88.6174,207.944 88.1174,207.611 87.5,207.5C 85.4205,201.442 84.0872,195.109 83.5,188.5C 84.1522,187.275 85.3189,186.608 87,186.5C 93.8369,185.857 100.67,185.19 107.5,184.5C 109.114,184.803 110.448,185.47 111.5,186.5 Z"/></g>
<g><path style="opacity:1" fill="#fec90d" d="M 83.5,188.5 C 84.0872,195.109 85.4205,201.442 87.5,207.5C 87.2942,209.549 86.4609,209.883 85,208.5C 83.7488,201.574 82.2488,194.741 80.5,188C 81.7195,186.205 82.7195,186.372 83.5,188.5 Z"/></g>
<g><path style="opacity:1" fill="#fef200" d="M 220.5,187.5 C 221.833,187.5 223.167,187.5 224.5,187.5C 224.297,189.39 224.963,190.89 226.5,192C 229.377,193.127 232.377,193.794 235.5,194C 230.625,195.461 225.958,194.628 221.5,191.5C 220.571,190.311 220.238,188.978 220.5,187.5 Z"/></g>
<g><path style="opacity:1" fill="#5c5c5c" d="M 147.5,189.5 C 148.301,191.042 148.634,192.708 148.5,194.5C 147.556,196.688 145.889,198.021 143.5,198.5C 141.833,198.5 140.167,198.5 138.5,198.5C 137.508,198.672 136.842,198.338 136.5,197.5C 136.157,195.517 136.824,194.183 138.5,193.5C 142.482,194.422 144.816,192.922 145.5,189C 146.437,188.308 147.103,188.475 147.5,189.5 Z"/></g>
<g><path style="opacity:1" fill="#0e6189" d="M 193.5,193.5 C 193.382,196.688 192.549,199.688 191,202.5C 188.585,205.014 186.419,207.681 184.5,210.5C 183.5,210.5 182.5,210.5 181.5,210.5C 182.158,204.206 183.825,198.206 186.5,192.5C 187.667,192.167 188.833,191.833 190,191.5C 191.681,191.608 192.848,192.275 193.5,193.5 Z"/></g>
<g><path style="opacity:1" fill="#870014" d="M 184.5,210.5 C 186.419,207.681 188.585,205.014 191,202.5C 192.549,199.688 193.382,196.688 193.5,193.5C 195.161,190.839 196.828,190.839 198.5,193.5C 197.028,200.136 193.695,205.636 188.5,210C 187.207,210.49 185.873,210.657 184.5,210.5 Z"/></g>
<g><path style="opacity:1" fill="#178e69" d="M 172.5,192.5 C 171.779,194.382 170.779,194.715 169.5,193.5C 170.391,192.89 171.391,192.557 172.5,192.5 Z"/></g>
<g><path style="opacity:1" fill="#142a92" d="M 172.5,192.5 C 173.167,192.5 173.833,192.5 174.5,192.5C 173.075,193.922 172.075,195.589 171.5,197.5C 170.298,196.595 168.964,196.595 167.5,197.5C 168.234,196.292 168.567,194.959 168.5,193.5C 168.833,193.5 169.167,193.5 169.5,193.5C 170.779,194.715 171.779,194.382 172.5,192.5 Z"/></g>
<g><path style="opacity:1" fill="#1f886c" d="M 174.5,192.5 C 177.612,193.219 180.612,193.552 183.5,193.5C 181.821,193.285 180.821,193.952 180.5,195.5C 178.167,197.5 175.833,199.5 173.5,201.5C 173.33,200.178 173.663,199.011 174.5,198C 173.552,197.517 172.552,197.351 171.5,197.5C 172.075,195.589 173.075,193.922 174.5,192.5 Z"/></g>
<g><path style="opacity:1" fill="#207f66" d="M 168.5,193.5 C 168.567,194.959 168.234,196.292 167.5,197.5C 167.158,198.338 166.492,198.672 165.5,198.5C 164.167,198.167 162.833,197.833 161.5,197.5C 161.461,196.417 161.127,195.417 160.5,194.5C 163.086,193.52 165.753,193.187 168.5,193.5 Z"/></g>
<g><path style="opacity:1" fill="#142a92" d="M 183.5,193.5 C 182.833,194.167 182.167,194.833 181.5,195.5C 181.167,195.5 180.833,195.5 180.5,195.5C 180.821,193.952 181.821,193.285 183.5,193.5 Z"/></g>
<g><path style="opacity:1" fill="#779483" d="M 180.5,195.5 C 180.833,195.5 181.167,195.5 181.5,195.5C 180.76,201.536 179.76,207.536 178.5,213.5C 175.829,216.837 173.663,220.504 172,224.5C 170.334,218.853 170.167,213.187 171.5,207.5C 170.606,207.483 169.606,207.149 168.5,206.5C 169.08,204.251 170.413,202.585 172.5,201.5C 172.833,201.5 173.167,201.5 173.5,201.5C 175.833,199.5 178.167,197.5 180.5,195.5 Z"/></g>
<g><path style="opacity:1" fill="#188866" d="M 171.5,197.5 C 172.11,198.391 172.443,199.391 172.5,200.5C 170.629,200.859 169.129,201.859 168,203.5C 166.628,202.09 165.795,200.423 165.5,198.5C 166.492,198.672 167.158,198.338 167.5,197.5C 168.964,196.595 170.298,196.595 171.5,197.5 Z"/></g>
<g><path style="opacity:1" fill="#178e69" d="M 136.5,197.5 C 136.842,198.338 137.508,198.672 138.5,198.5C 137.555,203.405 137.221,208.405 137.5,213.5C 136.5,213.5 135.5,213.5 134.5,213.5C 133.041,209.474 132.708,205.474 133.5,201.5C 134.143,199.924 135.143,198.59 136.5,197.5 Z"/></g>
<g><path style="opacity:1" fill="#208369" d="M 161.5,197.5 C 162.11,198.391 162.443,199.391 162.5,200.5C 160.847,200.66 159.514,201.326 158.5,202.5C 157.141,201.993 156.141,200.993 155.5,199.5C 155.891,200.718 155.224,201.552 153.5,202C 154.984,202.662 156.317,203.496 157.5,204.5C 159.168,206.34 160.668,208.34 162,210.5C 163.102,209.051 164.269,207.718 165.5,206.5C 166.5,206.5 167.5,206.5 168.5,206.5C 169.744,211.298 169.744,215.965 168.5,220.5C 167.876,216.067 166.876,215.733 165.5,219.5C 164.432,220.434 163.099,220.768 161.5,220.5C 159.833,220.5 158.167,220.5 156.5,220.5C 155.326,219.486 154.66,218.153 154.5,216.5C 154.5,215.5 154.5,214.5 154.5,213.5C 152.833,213.5 151.167,213.5 149.5,213.5C 147.893,208.348 145.893,203.348 143.5,198.5C 145.889,198.021 147.556,196.688 148.5,194.5C 150.074,194.937 151.241,195.937 152,197.5C 152.617,196.551 152.451,195.718 151.5,195C 153.764,194.764 155.931,194.264 158,193.5C 158.949,195.093 160.115,196.426 161.5,197.5 Z"/></g>
<g><path style="opacity:1" fill="#142a92" d="M 171.5,197.5 C 172.552,197.351 173.552,197.517 174.5,198C 173.663,199.011 173.33,200.178 173.5,201.5C 173.167,201.5 172.833,201.5 172.5,201.5C 172.5,201.167 172.5,200.833 172.5,200.5C 172.443,199.391 172.11,198.391 171.5,197.5 Z"/></g>
<g><path style="opacity:1" fill="#178e69" d="M 133.5,201.5 C 131.825,204.507 131.159,207.84 131.5,211.5C 130.5,211.5 129.5,211.5 128.5,211.5C 127.194,210.533 126.527,209.199 126.5,207.5C 127.451,206.081 127.784,204.415 127.5,202.5C 128.404,201.791 128.737,200.791 128.5,199.5C 129.93,199.579 131.264,199.246 132.5,198.5C 133.386,199.325 133.719,200.325 133.5,201.5 Z"/></g>
<g><path style="opacity:1" fill="#178e69" d="M 141.5,199.5 C 143.874,204.277 145.874,209.277 147.5,214.5C 146.167,214.5 144.833,214.5 143.5,214.5C 143.435,212.304 142.768,210.304 141.5,208.5C 140.319,210.135 140.319,211.802 141.5,213.5C 141.167,213.833 140.833,214.167 140.5,214.5C 140.167,213.167 139.833,211.833 139.5,210.5C 141.183,207.768 141.85,204.101 141.5,199.5 Z"/></g>
<g><path style="opacity:1" fill="#17163c" d="M 161.5,197.5 C 162.833,197.833 164.167,198.167 165.5,198.5C 165.795,200.423 166.628,202.09 168,203.5C 169.129,201.859 170.629,200.859 172.5,200.5C 172.5,200.833 172.5,201.167 172.5,201.5C 170.413,202.585 169.08,204.251 168.5,206.5C 167.5,206.5 166.5,206.5 165.5,206.5C 166.489,203.751 165.489,201.751 162.5,200.5C 162.443,199.391 162.11,198.391 161.5,197.5 Z"/></g>
<g><path style="opacity:1" fill="#267c6c" d="M 127.5,202.5 C 127.784,204.415 127.451,206.081 126.5,207.5C 125.9,208.9 124.9,209.9 123.5,210.5C 122.89,209.609 122.557,208.609 122.5,207.5C 123.612,205.401 124.279,203.067 124.5,200.5C 126.179,200.285 127.179,200.952 127.5,202.5 Z"/></g>
<g><path style="opacity:1" fill="#1a2067" d="M 158.5,202.5 C 158.167,203.167 157.833,203.833 157.5,204.5C 156.317,203.496 154.984,202.662 153.5,202C 155.224,201.552 155.891,200.718 155.5,199.5C 156.141,200.993 157.141,201.993 158.5,202.5 Z"/></g>
<g><path style="opacity:1" fill="#2b6b6c" d="M 162.5,200.5 C 165.489,201.751 166.489,203.751 165.5,206.5C 164.269,207.718 163.102,209.051 162,210.5C 160.668,208.34 159.168,206.34 157.5,204.5C 157.833,203.833 158.167,203.167 158.5,202.5C 159.514,201.326 160.847,200.66 162.5,200.5 Z"/></g>
<g><path style="opacity:1" fill="#178e69" d="M 120.5,202.5 C 121.239,202.369 121.906,202.536 122.5,203C 120.951,204.214 119.785,205.714 119,207.5C 118.387,205.505 118.887,203.838 120.5,202.5 Z"/></g>
<g><path style="opacity:1" fill="#14122c" d="M 133.5,201.5 C 132.708,205.474 133.041,209.474 134.5,213.5C 132.766,215.683 131.766,218.35 131.5,221.5C 132.602,222.176 133.602,222.842 134.5,223.5C 133.5,223.5 132.5,223.5 131.5,223.5C 131.5,225.167 131.5,226.833 131.5,228.5C 130.532,230.607 130.198,232.941 130.5,235.5C 132.5,235.5 134.5,235.5 136.5,235.5C 137.833,235.833 137.833,236.167 136.5,236.5C 134.208,236.244 132.041,236.577 130,237.5C 129.502,240.482 129.335,243.482 129.5,246.5C 130.791,246.263 131.791,246.596 132.5,247.5C 131.167,247.5 129.833,247.5 128.5,247.5C 127.833,247.5 127.167,247.5 126.5,247.5C 125.833,246.833 125.167,246.167 124.5,245.5C 125.5,245.5 126.5,245.5 127.5,245.5C 127.695,241.622 127.695,237.956 127.5,234.5C 128.756,232.274 128.756,229.941 127.5,227.5C 129.845,226.012 130.179,224.012 128.5,221.5C 131.071,218.168 131.071,214.835 128.5,211.5C 129.5,211.5 130.5,211.5 131.5,211.5C 131.159,207.84 131.825,204.507 133.5,201.5 Z"/></g>
<g><path style="opacity:1" fill="#142a92" d="M 122.5,207.5 C 122.557,208.609 122.89,209.609 123.5,210.5C 122.833,211.167 122.167,211.833 121.5,212.5C 121.672,211.508 121.338,210.842 120.5,210.5C 120.932,209.29 121.599,208.29 122.5,207.5 Z"/></g>
<g><path style="opacity:1" fill="#142a92" d="M 126.5,207.5 C 126.527,209.199 127.194,210.533 128.5,211.5C 127.391,211.557 126.391,211.89 125.5,212.5C 124.833,211.833 124.167,211.167 123.5,210.5C 124.9,209.9 125.9,208.9 126.5,207.5 Z"/></g>
<g><path style="opacity:1" fill="#178e69" d="M 114.5,216.5 C 114.755,213.984 115.589,211.65 117,209.5C 117.295,212.242 116.462,214.575 114.5,216.5 Z"/></g>
<g><path style="opacity:1" fill="#198362" d="M 120.5,210.5 C 121.338,210.842 121.672,211.508 121.5,212.5C 120.868,214.743 119.534,216.409 117.5,217.5C 118.264,214.982 119.264,212.649 120.5,210.5 Z"/></g>
<g><path style="opacity:1" fill="#178e69" d="M 123.5,210.5 C 124.167,211.167 124.833,211.833 125.5,212.5C 124.549,213.919 124.216,215.585 124.5,217.5C 123.833,218.167 123.167,218.833 122.5,219.5C 121.909,218.849 121.243,218.182 120.5,217.5C 121.309,215.929 121.643,214.262 121.5,212.5C 122.167,211.833 122.833,211.167 123.5,210.5 Z"/></g>
<g><path style="opacity:1" fill="#277d6e" d="M 128.5,211.5 C 131.071,214.835 131.071,218.168 128.5,221.5C 127.209,221.737 126.209,221.404 125.5,220.5C 124.89,219.609 124.557,218.609 124.5,217.5C 124.216,215.585 124.549,213.919 125.5,212.5C 126.391,211.89 127.391,211.557 128.5,211.5 Z"/></g>
<g><path style="opacity:1" fill="#142a92" d="M 121.5,212.5 C 121.643,214.262 121.309,215.929 120.5,217.5C 121.243,218.182 121.909,218.849 122.5,219.5C 121.391,219.557 120.391,219.89 119.5,220.5C 119.5,219.167 118.833,218.5 117.5,218.5C 117.5,218.167 117.5,217.833 117.5,217.5C 119.534,216.409 120.868,214.743 121.5,212.5 Z"/></g>
<g><path style="opacity:1" fill="#178a67" d="M 134.5,213.5 C 135.636,215.046 136.302,216.879 136.5,219C 136.431,220.986 135.765,222.486 134.5,223.5C 133.602,222.842 132.602,222.176 131.5,221.5C 131.766,218.35 132.766,215.683 134.5,213.5 Z"/></g>
<g><path style="opacity:1" fill="#142a92" d="M 149.5,213.5 C 151.167,213.5 152.833,213.5 154.5,213.5C 154.5,214.5 154.5,215.5 154.5,216.5C 153.533,215.194 152.199,214.527 150.5,214.5C 149.833,214.5 149.5,214.167 149.5,213.5 Z"/></g>
<g><path style="opacity:1" fill="#178e69" d="M 150.5,214.5 C 152.199,214.527 153.533,215.194 154.5,216.5C 154.66,218.153 155.326,219.486 156.5,220.5C 155.833,221.167 155.167,221.833 154.5,222.5C 152.657,220.147 151.323,217.48 150.5,214.5 Z"/></g>
<g><path style="opacity:1" fill="#178e69" d="M 138.5,215.5 C 139.675,215.281 140.675,215.614 141.5,216.5C 142.106,218.709 142.773,220.876 143.5,223C 141.866,223.494 140.199,223.66 138.5,223.5C 138.5,220.833 138.5,218.167 138.5,215.5 Z"/></g>
<g><path style="opacity:1" fill="#178e69" d="M 149.5,223.5 C 148.022,223.762 146.689,223.429 145.5,222.5C 144.894,220.291 144.227,218.124 143.5,216C 145.473,215.505 147.473,215.338 149.5,215.5C 149.317,217.936 149.984,220.103 151.5,222C 150.584,222.278 149.918,222.778 149.5,223.5 Z"/></g>
<g><path style="opacity:1" fill="#178e69" d="M 114.5,216.5 C 114.539,219.089 113.539,221.089 111.5,222.5C 111.461,219.911 112.461,217.911 114.5,216.5 Z"/></g>
<g><path style="opacity:1" fill="#142a92" d="M 124.5,217.5 C 124.557,218.609 124.89,219.609 125.5,220.5C 124.833,221.167 124.167,221.833 123.5,222.5C 123.443,221.391 123.11,220.391 122.5,219.5C 123.167,218.833 123.833,218.167 124.5,217.5 Z"/></g>
<g><path style="opacity:1" fill="#237d69" d="M 117.5,218.5 C 118.833,218.5 119.5,219.167 119.5,220.5C 118.978,222.219 117.978,223.552 116.5,224.5C 115.508,224.672 114.842,224.338 114.5,223.5C 115.263,221.632 116.263,219.965 117.5,218.5 Z"/></g>
<g><path style="opacity:1" fill="#1a1e5f" d="M 168.5,220.5 C 167.609,219.89 166.609,219.557 165.5,219.5C 166.876,215.733 167.876,216.067 168.5,220.5 Z"/></g>
<g><path style="opacity:1" fill="#178e69" d="M 122.5,219.5 C 123.11,220.391 123.443,221.391 123.5,222.5C 122.9,223.9 121.9,224.9 120.5,225.5C 119.699,223.958 119.366,222.292 119.5,220.5C 120.391,219.89 121.391,219.557 122.5,219.5 Z"/></g>
<g><path style="opacity:1" fill="#24816c" d="M 165.5,219.5 C 166.609,219.557 167.609,219.89 168.5,220.5C 168.414,221.496 168.748,222.329 169.5,223C 168.263,223.232 167.263,223.732 166.5,224.5C 165.081,225.451 163.415,225.784 161.5,225.5C 160.391,225.443 159.391,225.11 158.5,224.5C 158.672,223.508 158.338,222.842 157.5,222.5C 158.833,221.833 160.167,221.167 161.5,220.5C 163.099,220.768 164.432,220.434 165.5,219.5 Z"/></g>
<g><path style="opacity:1" fill="#142a92" d="M 119.5,220.5 C 119.366,222.292 119.699,223.958 120.5,225.5C 119.022,226.448 118.022,227.781 117.5,229.5C 117.634,227.708 117.301,226.042 116.5,224.5C 117.978,223.552 118.978,222.219 119.5,220.5 Z"/></g>
<g><path style="opacity:1" fill="#142a92" d="M 156.5,220.5 C 158.167,220.5 159.833,220.5 161.5,220.5C 160.167,221.167 158.833,221.833 157.5,222.5C 156.5,222.5 155.5,222.5 154.5,222.5C 155.167,221.833 155.833,221.167 156.5,220.5 Z"/></g>
<g><path style="opacity:1" fill="#188463" d="M 125.5,220.5 C 126.209,221.404 127.209,221.737 128.5,221.5C 130.179,224.012 129.845,226.012 127.5,227.5C 126.432,226.566 125.099,226.232 123.5,226.5C 123.5,225.167 123.5,223.833 123.5,222.5C 124.167,221.833 124.833,221.167 125.5,220.5 Z"/></g>
<g><path style="opacity:1" fill="#178e69" d="M 111.5,222.5 C 111.405,224.786 110.738,226.786 109.5,228.5C 108.916,226.28 109.583,224.28 111.5,222.5 Z"/></g>
<g><path style="opacity:1" fill="#142a92" d="M 123.5,222.5 C 123.5,223.833 123.5,225.167 123.5,226.5C 125.099,226.232 126.432,226.566 127.5,227.5C 125.833,227.5 124.167,227.5 122.5,227.5C 121.833,226.833 121.167,226.167 120.5,225.5C 121.9,224.9 122.9,223.9 123.5,222.5 Z"/></g>
<g><path style="opacity:1" fill="#267768" d="M 154.5,222.5 C 155.5,222.5 156.5,222.5 157.5,222.5C 158.338,222.842 158.672,223.508 158.5,224.5C 158.167,225.167 157.833,225.833 157.5,226.5C 155.088,226.306 154.088,224.973 154.5,222.5 Z"/></g>
<g><path style="opacity:1" fill="#188865" d="M 114.5,223.5 C 114.842,224.338 115.508,224.672 116.5,224.5C 117.301,226.042 117.634,227.708 117.5,229.5C 116.292,230.234 114.959,230.567 113.5,230.5C 112.35,227.951 112.684,225.617 114.5,223.5 Z"/></g>
<g><path style="opacity:1" fill="#178e69" d="M 134.5,223.5 C 135.968,224.779 136.635,226.446 136.5,228.5C 134.833,228.5 133.167,228.5 131.5,228.5C 131.5,226.833 131.5,225.167 131.5,223.5C 132.5,223.5 133.5,223.5 134.5,223.5 Z"/></g>
<g><path style="opacity:1" fill="#178e69" d="M 149.5,223.5 C 150.5,223.5 151.5,223.5 152.5,223.5C 152.567,224.959 152.234,226.292 151.5,227.5C 144.839,227.546 144.172,226.212 149.5,223.5 Z"/></g>
<g><path style="opacity:1" fill="#178e69" d="M 138.5,224.5 C 140.167,224.5 141.833,224.5 143.5,224.5C 143.33,225.822 143.663,226.989 144.5,228C 142.527,228.495 140.527,228.662 138.5,228.5C 138.5,227.167 138.5,225.833 138.5,224.5 Z"/></g>
<g><path style="opacity:1" fill="#142a92" d="M 158.5,224.5 C 159.391,225.11 160.391,225.443 161.5,225.5C 161.088,227.973 162.088,229.306 164.5,229.5C 163.89,230.391 163.557,231.391 163.5,232.5C 162.778,232.082 162.278,231.416 162,230.5C 160.989,231.337 159.822,231.67 158.5,231.5C 161.004,229.458 160.67,227.792 157.5,226.5C 157.833,225.833 158.167,225.167 158.5,224.5 Z"/></g>
<g><path style="opacity:1" fill="#178e69" d="M 166.5,224.5 C 169.567,224.121 170.567,225.121 169.5,227.5C 167.447,227.402 165.78,228.069 164.5,229.5C 162.088,229.306 161.088,227.973 161.5,225.5C 163.415,225.784 165.081,225.451 166.5,224.5 Z"/></g>
<g><path style="opacity:1" fill="#188664" d="M 120.5,225.5 C 121.167,226.167 121.833,226.833 122.5,227.5C 121.566,228.568 121.232,229.901 121.5,231.5C 119.517,231.843 118.183,231.176 117.5,229.5C 118.022,227.781 119.022,226.448 120.5,225.5 Z"/></g>
<g><path style="opacity:1" fill="#178e69" d="M 157.5,226.5 C 160.67,227.792 161.004,229.458 158.5,231.5C 155.746,229.826 155.413,228.159 157.5,226.5 Z"/></g>
<g><path style="opacity:1" fill="#28766c" d="M 122.5,227.5 C 124.167,227.5 125.833,227.5 127.5,227.5C 128.756,229.941 128.756,232.274 127.5,234.5C 125.901,234.768 124.568,234.434 123.5,233.5C 122.833,232.833 122.167,232.167 121.5,231.5C 121.232,229.901 121.566,228.568 122.5,227.5 Z"/></g>
<g><path style="opacity:1" fill="#26816f" d="M 151.5,227.5 C 153.522,228.507 154.855,230.174 155.5,232.5C 153.786,233.738 151.786,234.405 149.5,234.5C 147.386,233.216 146.386,231.216 146.5,228.5C 148.415,228.784 150.081,228.451 151.5,227.5 Z"/></g>
<g><path style="opacity:1" fill="#267f6d" d="M 169.5,227.5 C 172.209,229.903 174.209,232.903 175.5,236.5C 175.158,237.338 174.492,237.672 173.5,237.5C 172.5,237.833 171.833,238.5 171.5,239.5C 170.041,239.567 168.708,239.234 167.5,238.5C 166.662,238.158 166.328,237.492 166.5,236.5C 166.043,234.443 165.043,234.443 163.5,236.5C 163.158,237.338 162.492,237.672 161.5,237.5C 159.302,237.591 158.969,236.925 160.5,235.5C 160.842,234.662 161.508,234.328 162.5,234.5C 164.424,234.289 164.757,233.623 163.5,232.5C 163.557,231.391 163.89,230.391 164.5,229.5C 165.78,228.069 167.447,227.402 169.5,227.5 Z"/></g>
<g><path style="opacity:1" fill="#178e69" d="M 109.5,228.5 C 108.537,231.744 107.204,234.744 105.5,237.5C 104.849,234.711 105.516,232.044 107.5,229.5C 107.957,228.702 108.624,228.369 109.5,228.5 Z"/></g>
<g><path style="opacity:1" fill="#178e69" d="M 131.5,228.5 C 132.919,229.451 134.585,229.784 136.5,229.5C 136.5,231.5 136.5,233.5 136.5,235.5C 134.5,235.5 132.5,235.5 130.5,235.5C 130.198,232.941 130.532,230.607 131.5,228.5 Z"/></g>
<g><path style="opacity:1" fill="#142a92" d="M 117.5,229.5 C 118.183,231.176 119.517,231.843 121.5,231.5C 122.167,232.167 122.833,232.833 123.5,233.5C 122.1,234.1 121.1,235.1 120.5,236.5C 120.5,235.167 120.5,233.833 120.5,232.5C 119.325,232.281 118.325,232.614 117.5,233.5C 116.972,235.336 116.306,237.003 115.5,238.5C 115.318,236.409 115.652,234.409 116.5,232.5C 115.398,231.824 114.398,231.158 113.5,230.5C 114.959,230.567 116.292,230.234 117.5,229.5 Z"/></g>
<g><path style="opacity:1" fill="#178e69" d="M 145.5,235.5 C 143.167,235.5 140.833,235.5 138.5,235.5C 138.5,233.5 138.5,231.5 138.5,229.5C 140.5,229.5 142.5,229.5 144.5,229.5C 144.833,231.5 145.167,233.5 145.5,235.5 Z"/></g>
<g><path style="opacity:1" fill="#1c8769" d="M 113.5,230.5 C 114.398,231.158 115.398,231.824 116.5,232.5C 115.652,234.409 115.318,236.409 115.5,238.5C 114.533,239.806 113.199,240.473 111.5,240.5C 110.508,240.672 109.842,240.338 109.5,239.5C 108.592,237.548 108.759,235.548 110,233.5C 110.422,231.574 111.589,230.574 113.5,230.5 Z"/></g>
<g><path style="opacity:1" fill="#178e69" d="M 163.5,232.5 C 163.167,233.167 162.833,233.833 162.5,234.5C 161.508,234.328 160.842,234.662 160.5,235.5C 158.824,234.817 158.157,233.483 158.5,231.5C 159.822,231.67 160.989,231.337 162,230.5C 162.278,231.416 162.778,232.082 163.5,232.5 Z"/></g>
<g><path style="opacity:1" fill="#188563" d="M 120.5,236.5 C 119.549,237.919 119.216,239.585 119.5,241.5C 118.609,242.11 117.609,242.443 116.5,242.5C 115.766,241.292 115.433,239.959 115.5,238.5C 116.306,237.003 116.972,235.336 117.5,233.5C 118.325,232.614 119.325,232.281 120.5,232.5C 120.5,233.833 120.5,235.167 120.5,236.5 Z"/></g>
<g><path style="opacity:1" fill="#178e69" d="M 155.5,232.5 C 156.773,235.735 158.107,239.068 159.5,242.5C 159.137,243.183 158.804,243.85 158.5,244.5C 156.214,244.595 154.214,245.262 152.5,246.5C 151.5,246.5 150.5,246.5 149.5,246.5C 149.406,242.864 148.739,239.364 147.5,236C 148.416,235.722 149.082,235.222 149.5,234.5C 151.786,234.405 153.786,233.738 155.5,232.5 Z"/></g>
<g><path style="opacity:1" fill="#142a92" d="M 163.5,232.5 C 164.757,233.623 164.424,234.289 162.5,234.5C 162.833,233.833 163.167,233.167 163.5,232.5 Z"/></g>
<g><path style="opacity:1" fill="#237663" d="M 123.5,233.5 C 124.568,234.434 125.901,234.768 127.5,234.5C 127.695,237.956 127.695,241.622 127.5,245.5C 126.5,245.5 125.5,245.5 124.5,245.5C 123.209,245.737 122.209,245.404 121.5,244.5C 120.449,243.778 119.782,242.778 119.5,241.5C 119.216,239.585 119.549,237.919 120.5,236.5C 121.1,235.1 122.1,234.1 123.5,233.5 Z"/></g>
<g><path style="opacity:1" fill="#142a92" d="M 166.5,236.5 C 165.5,236.5 164.5,236.5 163.5,236.5C 165.043,234.443 166.043,234.443 166.5,236.5 Z"/></g>
<g><path style="opacity:1" fill="#142a92" d="M 138.5,236.5 C 138.5,236.167 138.5,235.833 138.5,235.5C 140.833,235.5 143.167,235.5 145.5,235.5C 145.5,235.833 145.5,236.167 145.5,236.5C 144.5,236.5 143.5,236.5 142.5,236.5C 142.5,240.167 142.5,243.833 142.5,247.5C 144.167,247.5 145.833,247.5 147.5,247.5C 147.5,247.833 147.5,248.167 147.5,248.5C 145.379,248.325 143.379,248.659 141.5,249.5C 140.432,248.566 139.099,248.232 137.5,248.5C 137.5,248.167 137.5,247.833 137.5,247.5C 138.833,247.5 140.167,247.5 141.5,247.5C 141.5,243.833 141.5,240.167 141.5,236.5C 140.5,236.5 139.5,236.5 138.5,236.5 Z"/></g>
<g><path style="opacity:1" fill="#178e69" d="M 136.5,236.5 C 136.577,240.215 136.244,243.881 135.5,247.5C 134.5,247.5 133.5,247.5 132.5,247.5C 131.791,246.596 130.791,246.263 129.5,246.5C 129.335,243.482 129.502,240.482 130,237.5C 132.041,236.577 134.208,236.244 136.5,236.5 Z"/></g>
<g><path style="opacity:1" fill="#178e69" d="M 138.5,236.5 C 139.5,236.5 140.5,236.5 141.5,236.5C 141.5,240.167 141.5,243.833 141.5,247.5C 140.167,247.5 138.833,247.5 137.5,247.5C 138.344,243.901 138.677,240.234 138.5,236.5 Z"/></g>
<g><path style="opacity:1" fill="#178e69" d="M 145.5,236.5 C 146.675,240.042 147.341,243.709 147.5,247.5C 145.833,247.5 144.167,247.5 142.5,247.5C 142.5,243.833 142.5,240.167 142.5,236.5C 143.5,236.5 144.5,236.5 145.5,236.5 Z"/></g>
<g><path style="opacity:1" fill="#178e69" d="M 163.5,236.5 C 164.5,236.5 165.5,236.5 166.5,236.5C 166.328,237.492 166.662,238.158 167.5,238.5C 167.5,239.167 167.5,239.833 167.5,240.5C 165.901,240.232 164.568,240.566 163.5,241.5C 160.664,241.163 159.998,239.829 161.5,237.5C 162.492,237.672 163.158,237.338 163.5,236.5 Z"/></g>
<g><path style="opacity:1" fill="#178e69" d="M 105.5,237.5 C 105.291,238.922 104.791,240.255 104,241.5C 101.931,239.296 102.431,237.963 105.5,237.5 Z"/></g>
<g><path style="opacity:1" fill="#142a92" d="M 173.5,237.5 C 173.869,239.993 173.203,240.66 171.5,239.5C 171.833,238.5 172.5,237.833 173.5,237.5 Z"/></g>
<g><path style="opacity:1" fill="#142a92" d="M 115.5,238.5 C 115.433,239.959 115.766,241.292 116.5,242.5C 115.833,242.5 115.167,242.5 114.5,242.5C 113.5,241.833 112.5,241.167 111.5,240.5C 113.199,240.473 114.533,239.806 115.5,238.5 Z"/></g>
<g><path style="opacity:1" fill="#142a92" d="M 167.5,238.5 C 168.708,239.234 170.041,239.567 171.5,239.5C 170.432,240.434 169.099,240.768 167.5,240.5C 167.5,239.833 167.5,239.167 167.5,238.5 Z"/></g>
<g><path style="opacity:1" fill="#178e69" d="M 109.5,239.5 C 109.842,240.338 110.508,240.672 111.5,240.5C 112.5,241.167 113.5,241.833 114.5,242.5C 113.566,243.568 113.232,244.901 113.5,246.5C 111.153,248.982 108.653,248.982 106,246.5C 105.08,243.006 106.246,240.673 109.5,239.5 Z"/></g>
<g><path style="opacity:1" fill="#277f70" d="M 175.5,236.5 C 178.893,240.267 181.56,244.6 183.5,249.5C 181.389,250.949 179.056,251.949 176.5,252.5C 175.914,252.291 175.414,251.957 175,251.5C 174.34,253.324 173.173,254.657 171.5,255.5C 168.992,251.818 166.992,247.818 165.5,243.5C 165.782,242.222 166.449,241.222 167.5,240.5C 169.099,240.768 170.432,240.434 171.5,239.5C 173.203,240.66 173.869,239.993 173.5,237.5C 174.492,237.672 175.158,237.338 175.5,236.5 Z"/></g>
<g><path style="opacity:1" fill="#142a92" d="M 163.5,241.5 C 164.568,240.566 165.901,240.232 167.5,240.5C 166.449,241.222 165.782,242.222 165.5,243.5C 164.833,242.833 164.167,242.167 163.5,241.5 Z"/></g>
<g><path style="opacity:1" fill="#142a92" d="M 119.5,241.5 C 119.782,242.778 120.449,243.778 121.5,244.5C 120.222,244.782 119.222,245.449 118.5,246.5C 118.473,244.801 117.806,243.467 116.5,242.5C 117.609,242.443 118.609,242.11 119.5,241.5 Z"/></g>
<g><path style="opacity:1" fill="#2a7c72" d="M 114.5,242.5 C 115.167,242.5 115.833,242.5 116.5,242.5C 117.806,243.467 118.473,244.801 118.5,246.5C 118.784,248.415 118.451,250.081 117.5,251.5C 116.559,254.125 115.393,254.125 114,251.5C 113.506,249.866 113.34,248.199 113.5,246.5C 113.232,244.901 113.566,243.568 114.5,242.5 Z"/></g>
<g><path style="opacity:1" fill="#178a67" d="M 163.5,241.5 C 164.167,242.167 164.833,242.833 165.5,243.5C 166.992,247.818 168.992,251.818 171.5,255.5C 170.292,256.782 168.958,256.782 167.5,255.5C 165.931,251.625 164.264,247.792 162.5,244C 162.743,243.098 163.077,242.265 163.5,241.5 Z"/></g>
<g><path style="opacity:1" fill="#178a67" d="M 121.5,244.5 C 122.209,245.404 123.209,245.737 124.5,245.5C 125.167,246.167 125.833,246.833 126.5,247.5C 126.543,250.91 126.043,254.243 125,257.5C 122.808,256.601 120.642,255.601 118.5,254.5C 117.614,253.675 117.281,252.675 117.5,251.5C 118.451,250.081 118.784,248.415 118.5,246.5C 119.222,245.449 120.222,244.782 121.5,244.5 Z"/></g>
<g><path style="opacity:1" fill="#25816e" d="M 158.5,244.5 C 162.035,247.57 164.035,251.57 164.5,256.5C 160.564,256.478 156.897,257.478 153.5,259.5C 152.269,258.349 152.269,257.183 153.5,256C 150.431,252.96 150.097,249.793 152.5,246.5C 154.214,245.262 156.214,244.595 158.5,244.5 Z"/></g>
<g><path style="opacity:1" fill="#142a92" d="M 178.5,246.5 C 180.085,247.002 180.585,248.002 180,249.5C 178.961,248.756 178.461,247.756 178.5,246.5 Z"/></g>
<g><path style="opacity:1" fill="#178e69" d="M 128.5,247.5 C 129.833,247.5 131.167,247.5 132.5,247.5C 133.209,248.404 134.209,248.737 135.5,248.5C 135.823,252.226 135.489,255.893 134.5,259.5C 131.03,260.902 128.697,259.736 127.5,256C 128.348,253.23 128.681,250.397 128.5,247.5 Z"/></g>
<g><path style="opacity:1" fill="#178e69" d="M 137.5,248.5 C 139.099,248.232 140.432,248.566 141.5,249.5C 140.676,253.312 140.176,257.312 140,261.5C 139.586,261.043 139.086,260.709 138.5,260.5C 137.509,256.555 137.176,252.555 137.5,248.5 Z"/></g>
<g><path style="opacity:1" fill="#178e69" d="M 147.5,248.5 C 149.118,252.575 150.118,256.908 150.5,261.5C 147.751,261.274 145.084,261.607 142.5,262.5C 141.508,258.217 141.174,253.884 141.5,249.5C 143.379,248.659 145.379,248.325 147.5,248.5 Z"/></g>
<g><path style="opacity:1" fill="#ead8b2" d="M 172.5,282.5 C 170.901,282.768 169.568,282.434 168.5,281.5C 164.558,281.125 160.891,280.125 157.5,278.5C 158.239,278.631 158.906,278.464 159.5,278C 158.643,277.311 157.977,276.478 157.5,275.5C 159.971,271.925 161.971,268.092 163.5,264C 163.05,262.715 162.383,261.548 161.5,260.5C 165.459,259.673 169.459,259.173 173.5,259C 176.875,255.64 180.875,253.974 185.5,254C 187.124,255.117 188.124,256.617 188.5,258.5C 184.838,264.347 181.338,270.347 178,276.5C 177.505,278.473 177.338,280.473 177.5,282.5C 175.833,282.5 174.167,282.5 172.5,282.5 Z"/></g>
<g><path style="opacity:1" fill="#e2c481" d="M 154.5,273.5 C 151.815,270.81 149.482,267.81 147.5,264.5C 151.14,264.529 154.473,263.529 157.5,261.5C 159.405,266.357 158.405,270.357 154.5,273.5 Z"/></g>
<g><path style="opacity:1" fill="#ecdab6" d="M 147.5,264.5 C 149.482,267.81 151.815,270.81 154.5,273.5C 151.546,277.674 149.546,282.341 148.5,287.5C 147.311,288.429 145.978,288.762 144.5,288.5C 144.154,285.398 144.821,282.565 146.5,280C 144.288,277.957 142.288,275.791 140.5,273.5C 139.247,276.257 137.413,278.591 135,280.5C 134.517,281.448 134.351,282.448 134.5,283.5C 133.833,283.5 133.167,283.5 132.5,283.5C 131.095,281.621 129.428,281.288 127.5,282.5C 126.614,281.675 126.281,280.675 126.5,279.5C 129.439,274.036 133.439,269.202 138.5,265C 141.482,264.502 144.482,264.335 147.5,264.5 Z"/></g>
<g><path style="opacity:1" fill="#d3b679" d="M 144.5,288.5 C 143.833,288.5 143.167,288.5 142.5,288.5C 141.167,288.5 139.833,288.5 138.5,288.5C 137.694,287.272 136.694,286.272 135.5,285.5C 135.167,284.833 134.833,284.167 134.5,283.5C 134.351,282.448 134.517,281.448 135,280.5C 137.413,278.591 139.247,276.257 140.5,273.5C 142.288,275.791 144.288,277.957 146.5,280C 144.821,282.565 144.154,285.398 144.5,288.5 Z"/></g>
<g><path style="opacity:1" fill="#990c18" d="M 157.5,278.5 C 160.891,280.125 164.558,281.125 168.5,281.5C 164.674,282.48 164.674,283.313 168.5,284C 171.367,284.801 174.034,284.634 176.5,283.5C 177.338,283.842 177.672,284.508 177.5,285.5C 174.15,285.665 170.817,285.498 167.5,285C 162.709,283.765 158.042,282.265 153.5,280.5C 154.375,278.194 155.708,277.527 157.5,278.5 Z"/></g>
<g><path style="opacity:1" fill="#eb1b23" d="M 153.5,280.5 C 158.042,282.265 162.709,283.765 167.5,285C 170.817,285.498 174.15,285.665 177.5,285.5C 176.341,286.74 175.341,288.074 174.5,289.5C 167.176,288.706 160.176,287.039 153.5,284.5C 153.5,283.167 153.5,281.833 153.5,280.5 Z"/></g>
<g><path style="opacity:1" fill="#fefffe" d="M 168.5,281.5 C 169.568,282.434 170.901,282.768 172.5,282.5C 173.568,283.434 174.901,283.768 176.5,283.5C 174.034,284.634 171.367,284.801 168.5,284C 164.674,283.313 164.674,282.48 168.5,281.5 Z"/></g>
<g><path style="opacity:1" fill="#000000" d="M 132.5,284.5 C 132.5,284.167 132.5,283.833 132.5,283.5C 133.167,283.5 133.833,283.5 134.5,283.5C 134.833,284.167 135.167,284.833 135.5,285.5C 134.833,285.5 134.167,285.5 133.5,285.5C 133.5,284.833 133.167,284.5 132.5,284.5 Z"/></g>
<g><path style="opacity:1" fill="#fefffe" d="M 132.5,284.5 C 133.167,284.5 133.5,284.833 133.5,285.5C 133.631,286.376 133.298,287.043 132.5,287.5C 131.224,286.386 131.224,285.386 132.5,284.5 Z"/></g>
<g><path style="opacity:1" fill="#870014" d="M 153.5,284.5 C 160.176,287.039 167.176,288.706 174.5,289.5C 174.5,290.167 174.167,290.5 173.5,290.5C 170.545,289.841 167.545,289.508 164.5,289.5C 163.609,288.89 162.609,288.557 161.5,288.5C 159.106,287.985 156.772,287.319 154.5,286.5C 153.833,286.5 153.167,286.5 152.5,286.5C 152.328,285.508 152.662,284.842 153.5,284.5 Z"/></g>
<g><path style="opacity:1" fill="#fefffe" d="M 121.5,286.5 C 121.953,287.458 122.619,288.292 123.5,289C 122.473,289.513 121.473,290.013 120.5,290.5C 120.232,288.901 120.566,287.568 121.5,286.5 Z"/></g>
<g><path style="opacity:1" fill="#fefffe" d="M 152.5,286.5 C 153.167,286.5 153.833,286.5 154.5,286.5C 153.833,287.833 152.833,288.833 151.5,289.5C 151.557,288.391 151.89,287.391 152.5,286.5 Z"/></g>
<g><path style="opacity:1" fill="#ec1c23" d="M 154.5,286.5 C 156.772,287.319 159.106,287.985 161.5,288.5C 159.673,289.932 158.006,291.599 156.5,293.5C 159.706,299.769 163.54,300.103 168,294.5C 167.888,292.203 166.722,290.536 164.5,289.5C 167.545,289.508 170.545,289.841 173.5,290.5C 173.198,293.373 172.531,296.039 171.5,298.5C 169.833,299.5 168.5,300.833 167.5,302.5C 163.342,302.668 159.342,302.002 155.5,300.5C 154.378,299.053 152.878,298.053 151,297.5C 150.398,294.779 150.565,292.113 151.5,289.5C 152.833,288.833 153.833,287.833 154.5,286.5 Z"/></g>
<g><path style="opacity:1" fill="#fefffe" d="M 138.5,288.5 C 139.833,288.5 141.167,288.5 142.5,288.5C 143.263,289.268 144.263,289.768 145.5,290C 144.944,290.383 144.611,290.883 144.5,291.5C 141.607,291.969 139.607,290.969 138.5,288.5 Z"/></g>
<g><path style="opacity:1" fill="#fefffe" d="M 161.5,288.5 C 162.609,288.557 163.609,288.89 164.5,289.5C 166.722,290.536 167.888,292.203 168,294.5C 163.54,300.103 159.706,299.769 156.5,293.5C 158.006,291.599 159.673,289.932 161.5,288.5 Z"/></g>
<g><path style="opacity:1" fill="#e21822" d="M 126.5,279.5 C 126.281,280.675 126.614,281.675 127.5,282.5C 129.428,281.288 131.095,281.621 132.5,283.5C 132.5,283.833 132.5,284.167 132.5,284.5C 131.224,285.386 131.224,286.386 132.5,287.5C 133.298,287.043 133.631,286.376 133.5,285.5C 134.167,285.5 134.833,285.5 135.5,285.5C 136.694,286.272 137.694,287.272 138.5,288.5C 139.607,290.969 141.607,291.969 144.5,291.5C 143.89,292.391 143.557,293.391 143.5,294.5C 141.833,294.5 140.167,294.5 138.5,294.5C 138.232,296.099 138.566,297.432 139.5,298.5C 139.34,300.153 138.674,301.486 137.5,302.5C 137.539,301.244 137.039,300.244 136,299.5C 134.293,301.037 132.793,302.704 131.5,304.5C 129.167,304.5 126.833,304.5 124.5,304.5C 124.5,304.167 124.5,303.833 124.5,303.5C 124.663,301.143 124.497,298.81 124,296.5C 122.629,298.041 121.129,299.375 119.5,300.5C 119.062,300.565 118.728,300.399 118.5,300C 119.432,296.915 120.099,293.748 120.5,290.5C 121.473,290.013 122.473,289.513 123.5,289C 122.619,288.292 121.953,287.458 121.5,286.5C 122.533,283.562 124.033,280.895 126,278.5C 126.399,278.728 126.565,279.062 126.5,279.5 Z"/></g>
<g><path style="opacity:1" fill="#fefffe" d="M 128.5,292.5 C 130.199,292.34 131.866,292.506 133.5,293C 134.022,293.561 134.355,294.228 134.5,295C 132.869,296.926 131.035,298.76 129,300.5C 128.503,297.854 128.336,295.187 128.5,292.5 Z"/></g>
<g><path style="opacity:1" fill="#fefffe" d="M 143.5,294.5 C 142.5,296.167 141.167,297.5 139.5,298.5C 138.566,297.432 138.232,296.099 138.5,294.5C 140.167,294.5 141.833,294.5 143.5,294.5 Z"/></g>
<g><path style="opacity:1" fill="#fefffe" d="M 146.5,295.5 C 150.309,307.398 150.309,319.398 146.5,331.5C 141.382,328.873 137.049,325.373 133.5,321C 137.181,312.09 141.515,303.59 146.5,295.5 Z"/></g>
<g><path style="opacity:1" fill="#fefffe" d="M 124.5,303.5 C 122.833,302.833 121.167,302.167 119.5,301.5C 119.5,301.167 119.5,300.833 119.5,300.5C 121.129,299.375 122.629,298.041 124,296.5C 124.497,298.81 124.663,301.143 124.5,303.5 Z"/></g>
<g><path style="opacity:1" fill="#fefffe" d="M 171.5,298.5 C 171.473,300.199 170.806,301.533 169.5,302.5C 168.833,302.5 168.167,302.5 167.5,302.5C 168.5,300.833 169.833,299.5 171.5,298.5 Z"/></g>
<g><path style="opacity:1" fill="#fefffe" d="M 137.5,302.5 C 136.082,304.308 134.082,304.975 131.5,304.5C 132.793,302.704 134.293,301.037 136,299.5C 137.039,300.244 137.539,301.244 137.5,302.5 Z"/></g>
<g><path style="opacity:1" fill="#383838" d="M 155.5,300.5 C 159.342,302.002 163.342,302.668 167.5,302.5C 168.167,302.5 168.833,302.5 169.5,302.5C 170.376,302.369 171.043,302.702 171.5,303.5C 170.177,308.437 169.177,313.437 168.5,318.5C 161.833,318.833 161.833,319.167 168.5,319.5C 168.301,322.941 168.801,326.274 170,329.5C 173.113,332.613 176.279,335.779 179.5,339C 177.624,341.896 174.957,343.062 171.5,342.5C 163.597,341.998 155.763,341.331 148,340.5C 149.314,335.608 150.814,330.608 152.5,325.5C 151.515,323.902 151.349,322.235 152,320.5C 152.654,321.696 153.154,321.696 153.5,320.5C 153.5,317.167 153.5,313.833 153.5,310.5C 152.833,309.5 152.167,308.5 151.5,307.5C 152.407,305.744 152.407,303.911 151.5,302C 151.833,301.167 152.167,300.333 152.5,299.5C 153.417,300.127 154.417,300.461 155.5,300.5 Z"/></g>
<g><path style="opacity:1" fill="#373737" d="M 119.5,301.5 C 121.167,302.167 122.833,302.833 124.5,303.5C 124.5,303.833 124.5,304.167 124.5,304.5C 128.353,305.166 132.353,305.833 136.5,306.5C 133.792,311.077 131.792,315.91 130.5,321C 130.667,322.167 130.833,323.333 131,324.5C 134.229,327.013 137.062,329.846 139.5,333C 139.095,333.945 138.428,334.612 137.5,335C 127.687,337.908 117.853,338.074 108,335.5C 106.457,334.423 106.457,333.089 108,331.5C 110.531,328.309 113.031,325.142 115.5,322C 114.919,321.107 114.585,320.107 114.5,319C 115.904,313.549 117.071,308.049 118,302.5C 118.383,301.944 118.883,301.611 119.5,301.5 Z"/></g>
</svg>
