<?xml version="1.0" encoding="UTF-8"?>
<!DOCTYPE svg PUBLIC "-//W3C//DTD SVG 1.1//EN" "http://www.w3.org/Graphics/SVG/1.1/DTD/svg11.dtd">
<svg xmlns="http://www.w3.org/2000/svg" version="1.1" width="495px" height="295px" style="shape-rendering:geometricPrecision; text-rendering:geometricPrecision; image-rendering:optimizeQuality; fill-rule:evenodd; clip-rule:evenodd" xmlns:xlink="http://www.w3.org/1999/xlink">
<g><path style="opacity:1" fill="#000000" d="M 177.5,6.5 C 180.049,6.38742 182.382,7.05408 184.5,8.5C 186.183,7.40794 188.016,6.74127 190,6.5C 198.386,8.48479 206.886,10.3181 215.5,12C 222.072,16.4179 229.072,20.0846 236.5,23C 243.439,29.6937 250.272,36.527 257,43.5C 258.197,46.0891 259.197,48.7558 260,51.5C 262.928,52.7598 264.761,54.9265 265.5,58C 271.901,58.0188 277.068,60.5188 281,65.5C 281.333,68.1667 281.667,70.8333 282,73.5C 285.168,69.4668 289.001,68.6335 293.5,71C 297.677,75.9538 297.343,80.6204 292.5,85C 288.495,86.0981 284.995,85.2648 282,82.5C 281.783,85.9388 280.283,88.6054 277.5,90.5C 276.668,95.4787 276.002,100.479 275.5,105.5C 275.39,107.374 276.056,108.874 277.5,110C 280.833,110.333 284.167,110.667 287.5,111C 289.325,112.466 289.825,114.299 289,116.5C 285.541,118.66 281.708,119.827 277.5,120C 276.833,120.667 276.167,121.333 275.5,122C 283.731,127.894 292.231,133.394 301,138.5C 305.066,135.777 308.899,135.943 312.5,139C 314.5,139.333 316.5,139.667 318.5,140C 321.939,145.391 326.939,148.224 333.5,148.5C 333.178,150.722 333.845,152.556 335.5,154C 345.77,158.644 355.936,163.477 366,168.5C 370.487,166.659 373.653,167.993 375.5,172.5C 384.571,176.785 393.404,181.451 402,186.5C 406.478,181.064 410.811,181.397 415,187.5C 415.483,188.448 415.649,189.448 415.5,190.5C 424.187,190.674 432.853,190.34 441.5,189.5C 445.685,190.062 449.851,190.728 454,191.5C 459.81,190.39 465.644,189.89 471.5,190C 474.428,193.257 475.262,197.091 474,201.5C 468.431,204.264 462.931,203.931 457.5,200.5C 456.719,201.729 456.219,203.062 456,204.5C 451.928,208.45 447.762,212.283 443.5,216C 439.751,216.708 436.084,217.708 432.5,219C 421.819,219.411 411.153,219.078 400.5,218C 396.833,216.167 393.167,214.333 389.5,212.5C 388.738,211.372 388.071,210.205 387.5,209C 381.601,205.546 375.267,203.546 368.5,203C 364.53,198.179 359.53,196.513 353.5,198C 325.758,185.306 297.425,173.972 268.5,164C 264.599,164.354 260.766,164.187 257,163.5C 257.132,166.508 257.632,169.508 258.5,172.5C 257.973,175.68 256.973,178.68 255.5,181.5C 257.523,185.895 256.689,189.561 253,192.5C 252.472,196.943 251.472,201.277 250,205.5C 222.361,248.868 182.861,265.368 131.5,255C 98.5407,242.863 74.7074,221.029 60,189.5C 59.3333,188.833 58.6667,188.167 58,187.5C 57.1315,179.482 56.1315,171.482 55,163.5C 53.9242,161.933 53.0909,160.266 52.5,158.5C 53.685,156.289 54.685,153.955 55.5,151.5C 53.9884,150.751 52.9884,149.584 52.5,148C 53.5355,146.099 54.7022,144.265 56,142.5C 56,139.167 56,135.833 56,132.5C 59.4235,129.949 60.4235,126.616 59,122.5C 64.5365,119.734 67.2032,115.401 67,109.5C 69.039,107.126 71.3723,105.126 74,103.5C 74.3333,102.167 74.6667,100.833 75,99.5C 78.5453,98.4602 80.3786,96.1269 80.5,92.5C 85.1656,92.9452 88.1656,90.9452 89.5,86.5C 93.8785,85.4772 97.8785,83.6439 101.5,81C 100.167,80.6667 98.8333,80.3333 97.5,80C 81.6349,79.7403 65.8015,79.5736 50,79.5C 45.1102,79.7642 40.2768,80.4309 35.5,81.5C 34.1667,81.1667 32.8333,80.8333 31.5,80.5C 26.8099,71.7395 26.3099,62.7395 30,53.5C 31.5,52 33,50.5 34.5,49C 36.7135,48.3744 38.8801,48.5411 41,49.5C 45.0631,52.0307 49.3964,54.0307 54,55.5C 55.7827,54.0471 57.7827,53.0471 60,52.5C 61.9711,52.4683 63.4711,53.3016 64.5,55C 81.1667,55.6667 97.8333,55.6667 114.5,55C 116.769,52.3718 117.602,49.5385 117,46.5C 117.667,44.5 119,43.1667 121,42.5C 121.059,38.0199 123.226,35.3533 127.5,34.5C 130.658,29.1794 134.658,24.6794 139.5,21C 144.29,17.971 149.29,15.3043 154.5,13C 160.017,11.4979 165.517,9.99785 171,8.5C 173.948,10.273 176.114,9.60633 177.5,6.5 Z M 180.5,25.5 C 187.01,25.0698 193.344,25.9031 199.5,28C 197.287,34.6844 195.621,41.5177 194.5,48.5C 189.492,47.9986 184.492,47.332 179.5,46.5C 177.679,40.8844 176.013,35.2178 174.5,29.5C 174.608,28.5581 174.941,27.7247 175.5,27C 177.382,26.8019 179.048,26.3019 180.5,25.5 Z M 163.5,29.5 C 164.586,29.62 165.253,30.2867 165.5,31.5C 166.912,36.3137 168.245,41.1471 169.5,46C 167.351,48.6621 165.351,51.4954 163.5,54.5C 161.235,55.6474 158.902,55.8141 156.5,55C 152.5,50.6667 148.5,46.3333 144.5,42C 150.247,36.803 156.581,32.6363 163.5,29.5 Z M 207.5,30.5 C 216.793,33.4773 224.793,38.4773 231.5,45.5C 227.341,49.4904 223.007,53.3237 218.5,57C 212.413,58.2698 206.746,57.4365 201.5,54.5C 203.816,46.571 205.816,38.571 207.5,30.5 Z M 137.5,48.5 C 147.151,55.3826 145.817,57.3826 133.5,54.5C 134.844,52.4714 136.177,50.4714 137.5,48.5 Z M 237.5,51.5 C 240.089,52.6478 241.755,54.6478 242.5,57.5C 238.683,58.9145 235.016,58.7478 231.5,57C 233.996,55.669 235.996,53.8356 237.5,51.5 Z M 180.5,55.5 C 183.687,54.1944 187.02,54.1944 190.5,55.5C 187.126,56.7505 183.793,56.7505 180.5,55.5 Z M 231.5,92.5 C 233.628,91.3709 235.961,91.2042 238.5,92C 240.134,93.3083 241.968,94.1416 244,94.5C 246.734,93.2042 249.567,92.7042 252.5,93C 253.637,96.7842 253.637,100.618 252.5,104.5C 247.745,104.258 244.078,102.091 241.5,98C 240.167,97.6667 238.833,97.3333 237.5,97C 235.905,94.8981 233.905,93.3981 231.5,92.5 Z M 101.5,104.5 C 103.371,104.859 104.871,105.859 106,107.5C 114.228,119.451 123.061,130.951 132.5,142C 117.256,135.969 102.089,129.469 87,122.5C 89.6679,114.871 94.5012,108.871 101.5,104.5 Z M 137.5,119.5 C 142.103,120.302 145.436,122.802 147.5,127C 146.646,128.022 145.646,128.855 144.5,129.5C 141.655,126.458 139.321,123.125 137.5,119.5 Z M 79.5,133.5 C 98.3077,139.933 116.641,147.433 134.5,156C 133.833,156.667 133.167,157.333 132.5,158C 113.499,158.556 94.4995,159.056 75.5,159.5C 75.4128,150.605 76.7461,141.938 79.5,133.5 Z M 195.5,143.5 C 196.496,143.414 197.329,143.748 198,144.5C 199.039,146.746 200.206,148.913 201.5,151C 195.763,153.074 190.097,152.908 184.5,150.5C 188.401,148.392 192.067,146.059 195.5,143.5 Z M 209.5,147.5 C 210.922,147.709 212.255,148.209 213.5,149C 211.296,151.069 209.963,150.569 209.5,147.5 Z M 102.5,169.5 C 112.172,169.334 121.839,169.5 131.5,170C 116.976,178.919 102.31,187.252 87.5,195C 82.9927,187.475 79.6594,179.475 77.5,171C 86.0101,170.829 94.3434,170.329 102.5,169.5 Z M 213.5,170.5 C 220.529,170.377 227.529,170.71 234.5,171.5C 234.668,179.825 232.501,187.492 228,194.5C 216.5,187.667 205,180.833 193.5,174C 200.395,173.352 207.061,172.185 213.5,170.5 Z M 136.5,178.5 C 137.479,179.765 138.479,181.099 139.5,182.5C 132.198,196.444 124.531,210.111 116.5,223.5C 109.093,218.598 102.426,212.765 96.5,206C 109.737,196.58 123.07,187.413 136.5,178.5 Z M 177.5,178.5 C 180.425,178.46 183.091,179.293 185.5,181C 198.001,188.416 210.335,196.083 222.5,204C 218.167,209.667 213.167,214.667 207.5,219C 206.5,219.667 205.5,219.667 204.5,219C 195.107,205.701 186.107,192.201 177.5,178.5 Z M 165.5,182.5 C 167.624,183.031 169.124,184.365 170,186.5C 177.968,199.965 186.135,213.299 194.5,226.5C 186.269,230.466 177.603,232.799 168.5,233.5C 167.443,217.812 166.109,202.146 164.5,186.5C 164.623,185.075 164.957,183.742 165.5,182.5 Z M 148.5,187.5 C 150.5,187.5 152.5,187.5 154.5,187.5C 155.668,203.186 157.002,218.852 158.5,234.5C 148.037,233.884 138.037,231.384 128.5,227C 135.308,213.885 141.974,200.718 148.5,187.5 Z"/></g>
<g><path style="opacity:1" fill="#c2c3c2" d="M 133.5,33.5 C 135.772,29.5586 138.772,26.2253 142.5,23.5C 147.118,20.9505 151.784,18.4505 156.5,16C 161.455,14.7469 166.289,13.2469 171,11.5C 175.554,11.7246 180.054,11.7246 184.5,11.5C 186.593,11.5142 188.426,10.8476 190,9.5C 190.5,10 191,10.5 191.5,11C 198.921,11.9033 206.254,13.2367 213.5,15C 216.999,18.0829 220.999,20.0829 225.5,21C 228.048,23.4416 231.048,25.1083 234.5,26C 240.672,32.3607 247.172,38.5273 254,44.5C 256.799,49.1044 259.299,53.771 261.5,58.5C 258.355,57.9233 256.855,55.9233 257,52.5C 249.435,43.2538 240.935,34.7538 231.5,27C 209.822,14.7755 186.822,11.1089 162.5,16C 156.713,18.3935 151.046,21.0602 145.5,24C 142.224,28.1118 138.224,31.2785 133.5,33.5 Z"/></g>
<g><path style="opacity:1" fill="#b7b895" d="M 152.5,23.5 C 162.02,17.4945 172.52,14.8279 184,15.5C 196.692,16.048 208.859,18.8813 220.5,24C 217.121,24.711 215.621,26.8777 216,30.5C 200.225,21.6192 183.892,20.2859 167,26.5C 164.094,25.5876 161.427,26.2543 159,28.5C 158.997,24.1178 156.831,22.4511 152.5,23.5 Z"/></g>
<g><path style="opacity:1" fill="#b7b895" d="M 152.5,23.5 C 150.952,26.2585 151.285,28.7585 153.5,31C 150.898,31.8834 148.731,33.3834 147,35.5C 146.644,32.2712 144.81,30.7712 141.5,31C 144.244,27.0799 147.911,24.5799 152.5,23.5 Z"/></g>
<g><path style="opacity:1" fill="#c2c3c2" d="M 153.5,25.5 C 154.5,25.5 155.5,25.5 156.5,25.5C 156.5,26.5 156.5,27.5 156.5,28.5C 155.5,28.5 154.5,28.5 153.5,28.5C 153.5,27.5 153.5,26.5 153.5,25.5 Z"/></g>
<g><path style="opacity:1" fill="#b7b895" d="M 223.5,25.5 C 227.469,27.1512 231.135,29.3178 234.5,32C 230.21,31.436 228.043,33.2693 228,37.5C 225.5,35.6667 223,33.8333 220.5,32C 223.145,30.7135 224.145,28.5468 223.5,25.5 Z"/></g>
<g><path style="opacity:1" fill="#c2c3c2" d="M 218.5,26.5 C 219.5,26.5 220.5,26.5 221.5,26.5C 221.5,27.5 221.5,28.5 221.5,29.5C 220.5,29.5 219.5,29.5 218.5,29.5C 218.5,28.5 218.5,27.5 218.5,26.5 Z"/></g>
<g><path style="opacity:1" fill="#b7b895" d="M 168.5,27.5 C 169.75,27.5774 170.583,28.244 171,29.5C 172.606,35.7636 174.44,41.9303 176.5,48C 175.552,48.4828 174.552,48.6495 173.5,48.5C 171.675,41.535 170.009,34.535 168.5,27.5 Z"/></g>
<g><path style="opacity:1" fill="#b7b895" d="M 202.5,27.5 C 203.649,27.7911 204.316,28.6244 204.5,30C 202.604,38.6237 200.271,47.1237 197.5,55.5C 197.167,54.6667 196.833,53.8333 196.5,53C 198.583,44.5041 200.583,36.0041 202.5,27.5 Z"/></g>
<g><path style="opacity:1" fill="#b7b895" d="M 138.5,32.5 C 139.302,33.9516 139.802,35.6183 140,37.5C 140.75,38.1258 141.584,38.6258 142.5,39C 137.033,43.4616 132.7,48.7949 129.5,55C 126.833,55.6667 124.167,55.6667 121.5,55C 123.664,51.1848 125.831,47.3515 128,43.5C 131.759,39.9114 135.259,36.2447 138.5,32.5 Z"/></g>
<g><path style="opacity:1" fill="#c2c3c2" d="M 133.5,33.5 C 131.612,36.8991 129.112,39.8991 126,42.5C 124.3,45.52 122.634,48.52 121,51.5C 120.727,49.8988 120.227,48.3988 119.5,47C 123.313,45.5694 125.313,42.7361 125.5,38.5C 126.552,38.6495 127.552,38.4828 128.5,38C 129.78,36.0336 131.447,34.5336 133.5,33.5 Z"/></g>
<g><path style="opacity:1" fill="#c2c3c2" d="M 141.5,33.5 C 142.5,33.5 143.5,33.5 144.5,33.5C 144.5,34.5 144.5,35.5 144.5,36.5C 143.5,36.5 142.5,36.5 141.5,36.5C 141.5,35.5 141.5,34.5 141.5,33.5 Z"/></g>
<g><path style="opacity:1" fill="#b7b895" d="M 235.5,33.5 C 244.13,40.2948 251.13,48.4614 256.5,58C 253.118,58.8236 249.784,58.657 246.5,57.5C 245.333,55.1667 244.167,52.8333 243,50.5C 240.667,48.8333 238.333,47.1667 236,45.5C 234.878,43.3762 233.378,41.5429 231.5,40C 235.03,39.3282 236.363,37.1616 235.5,33.5 Z"/></g>
<g><path style="opacity:1" fill="#c2c3c2" d="M 230.5,34.5 C 231.5,34.5 232.5,34.5 233.5,34.5C 233.5,35.5 233.5,36.5 233.5,37.5C 232.5,37.5 231.5,37.5 230.5,37.5C 230.5,36.5 230.5,35.5 230.5,34.5 Z"/></g>
<g><path style="opacity:1" fill="#b7b895" d="M 140.5,44.5 C 141.239,44.369 141.906,44.5357 142.5,45C 145.734,48.1446 148.734,51.4779 151.5,55C 150.833,55.6667 150.167,55.6667 149.5,55C 145.893,51.9023 142.893,48.4023 140.5,44.5 Z"/></g>
<g><path style="opacity:1" fill="#b7b895" d="M 233.5,47.5 C 234.756,47.4614 235.756,47.9614 236.5,49C 233.167,52 229.833,55 226.5,58C 225.167,58.6667 223.833,58.6667 222.5,58C 226.241,54.4841 229.908,50.9841 233.5,47.5 Z"/></g>
<g><path style="opacity:1" fill="#fef049" d="M 194.5,58.5 C 193.833,58.5 193.167,58.5 192.5,58.5C 192.739,56.5328 192.406,54.6995 191.5,53C 184.167,52.3333 176.833,52.3333 169.5,53C 168.603,55.1265 167.269,55.6265 165.5,54.5C 166.313,53.1861 167.313,52.0195 168.5,51C 176.5,50.3333 184.5,50.3333 192.5,51C 194.278,53.1354 194.945,55.6354 194.5,58.5 Z"/></g>
<g><path style="opacity:1" fill="#b7b895" d="M 175.5,53.5 C 177.337,53.6395 177.67,54.3061 176.5,55.5C 175.702,55.0431 175.369,54.3764 175.5,53.5 Z"/></g>
<g><path style="opacity:1" fill="#fef049" d="M 193.5,65.5 C 191.39,63.8949 189.39,62.0616 187.5,60C 180.833,59.3333 174.167,59.3333 167.5,60C 166.601,61.6516 165.601,63.1516 164.5,64.5C 164.104,61.9556 164.771,59.7889 166.5,58C 173.5,57.3333 180.5,57.3333 187.5,58C 190.857,59.5125 192.857,62.0125 193.5,65.5 Z"/></g>
<g><path style="opacity:1" fill="#deb63d" d="M 162.5,64.5 C 163.919,65.4511 165.585,65.7845 167.5,65.5C 167.33,64.1779 167.663,63.0113 168.5,62C 174.833,61.3333 181.167,61.3333 187.5,62C 189.022,63.5218 190.522,65.0218 192,66.5C 192.765,66.4301 193.265,66.0967 193.5,65.5C 194.878,63.0298 194.545,60.6965 192.5,58.5C 193.167,58.5 193.833,58.5 194.5,58.5C 196.961,61.0673 199.461,61.0673 202,58.5C 202.5,59 203,59.5 203.5,60C 225.536,61.2281 247.536,61.8947 269.5,62C 272.582,63.4086 275.415,65.2419 278,67.5C 278.498,70.4816 278.665,73.4816 278.5,76.5C 276.771,77.1175 275.271,78.1175 274,79.5C 273.163,81.8442 271.829,83.8442 270,85.5C 268.401,82.4415 265.901,80.4415 262.5,79.5C 261.692,77.5767 261.192,75.5767 261,73.5C 260.758,79.1667 260.925,84.8333 261.5,90.5C 260.5,90.5 259.5,90.5 258.5,90.5C 258.265,84.1505 257.765,77.8172 257,71.5C 256.503,73.8098 256.337,76.1432 256.5,78.5C 253.193,77.9492 249.86,77.6159 246.5,77.5C 244.821,74.4189 244.821,78.4189 246.5,89.5C 244.545,92.1325 242.545,92.1325 240.5,89.5C 242.172,78.2681 242.172,74.6015 240.5,78.5C 227.443,77.9853 214.443,76.9853 201.5,75.5C 201.663,73.1432 201.497,70.8098 201,68.5C 200.503,71.146 200.336,73.8127 200.5,76.5C 190.16,72.249 179.493,69.249 168.5,67.5C 161.73,67.9788 154.897,67.9788 148,67.5C 143.098,67.8 138.265,68.4667 133.5,69.5C 132.228,68.954 130.894,68.6207 129.5,68.5C 125.399,70.1811 121.065,70.8478 116.5,70.5C 97.4909,71.293 78.4909,70.9596 59.5,69.5C 57.8423,66.7279 58.509,69.0613 61.5,76.5C 59.9504,77.7199 58.2837,77.7199 56.5,76.5C 55.9645,72.181 55.4645,67.8477 55,63.5C 54.5045,65.4727 54.3379,67.4727 54.5,69.5C 46.4387,69.4892 38.4387,68.8226 30.5,67.5C 30.6744,64.1262 31.1744,60.7928 32,57.5C 33.3922,54.6058 35.5589,52.6058 38.5,51.5C 43.3066,54.3809 48.4733,56.3809 54,57.5C 56.3428,57.3184 58.1761,56.3184 59.5,54.5C 60.8448,55.3467 61.8448,56.5134 62.5,58C 95.9226,58.3239 129.256,58.8239 162.5,59.5C 162.5,61.1667 162.5,62.8333 162.5,64.5 Z"/></g>
<g><path style="opacity:1" fill="#a47e1e" d="M 193.5,65.5 C 193.265,66.0967 192.765,66.4301 192,66.5C 190.522,65.0218 189.022,63.5218 187.5,62C 181.167,61.3333 174.833,61.3333 168.5,62C 167.663,63.0113 167.33,64.1779 167.5,65.5C 165.585,65.7845 163.919,65.4511 162.5,64.5C 163.167,64.5 163.833,64.5 164.5,64.5C 165.601,63.1516 166.601,61.6516 167.5,60C 174.167,59.3333 180.833,59.3333 187.5,60C 189.39,62.0616 191.39,63.8949 193.5,65.5 Z"/></g>
<g><path style="opacity:1" fill="#a47d1f" d="M 56.5,76.5 C 49.2378,75.928 42.2378,76.928 35.5,79.5C 32.7173,75.9383 31.0506,71.9383 30.5,67.5C 38.4387,68.8226 46.4387,69.4892 54.5,69.5C 54.3379,67.4727 54.5045,65.4727 55,63.5C 55.4645,67.8477 55.9645,72.181 56.5,76.5 Z"/></g>
<g><path style="opacity:1" fill="#a47e1e" d="M 116.5,70.5 C 116.196,71.1499 115.863,71.8165 115.5,72.5C 110.541,73.6603 105.874,75.327 101.5,77.5C 88.1862,76.5746 74.8529,76.2413 61.5,76.5C 58.509,69.0613 57.8423,66.7279 59.5,69.5C 78.4909,70.9596 97.4909,71.293 116.5,70.5 Z"/></g>
<g><path style="opacity:1" fill="#a47e1e" d="M 240.5,89.5 C 231.764,88.927 223.097,87.5937 214.5,85.5C 214.023,84.5224 213.357,83.6891 212.5,83C 207.712,82.109 203.712,79.9423 200.5,76.5C 200.336,73.8127 200.503,71.146 201,68.5C 201.497,70.8098 201.663,73.1432 201.5,75.5C 214.443,76.9853 227.443,77.9853 240.5,78.5C 242.172,74.6015 242.172,78.2681 240.5,89.5 Z"/></g>
<g><path style="opacity:1" fill="#c2c3c2" d="M 143.5,70.5 C 174.74,67.2385 201.073,76.5719 222.5,98.5C 223.912,99.8064 225.579,100.64 227.5,101C 232.145,107.528 237.145,113.861 242.5,120C 244.047,124.503 245.214,129.003 246,133.5C 232.827,105.616 211.327,87.1158 181.5,78C 156.282,71.06 131.616,72.7267 107.5,83C 86.516,93.3255 71.6826,109.492 63,131.5C 61.4104,138.115 60.077,144.782 59,151.5C 58.5,150 58,148.5 57.5,147C 59.6661,143.169 59.9994,139.169 58.5,135C 61.7525,132.25 62.7525,128.917 61.5,125C 66.5912,121.549 69.7579,116.715 71,110.5C 75.2546,105.778 79.4212,101.111 83.5,96.5C 91.7272,89.7041 100.394,83.5374 109.5,78C 112.044,76.908 114.711,76.2414 117.5,76C 118.167,75 118.833,74 119.5,73C 127.659,72.2284 135.659,71.3951 143.5,70.5 Z M 137.5,119.5 C 139.321,123.125 141.655,126.458 144.5,129.5C 145.646,128.855 146.646,128.022 147.5,127C 145.436,122.802 142.103,120.302 137.5,119.5 Z"/></g>
<g><path style="opacity:1" fill="#a47e1e" d="M 258.5,90.5 C 254.534,89.8379 250.534,89.5045 246.5,89.5C 244.821,78.4189 244.821,74.4189 246.5,77.5C 249.86,77.6159 253.193,77.9492 256.5,78.5C 256.337,76.1432 256.503,73.8098 257,71.5C 257.765,77.8172 258.265,84.1505 258.5,90.5 Z"/></g>
<g><path style="opacity:1" fill="#fef049" d="M 288.5,72.5 C 294.866,75.5548 295.033,78.8881 289,82.5C 281.902,79.5965 281.735,76.2631 288.5,72.5 Z"/></g>
<g><path style="opacity:1" fill="#a47e1e" d="M 278.5,76.5 C 280.162,83.3225 277.495,87.8225 270.5,90C 267.518,90.498 264.518,90.6646 261.5,90.5C 260.925,84.8333 260.758,79.1667 261,73.5C 261.192,75.5767 261.692,77.5767 262.5,79.5C 265.901,80.4415 268.401,82.4415 270,85.5C 271.829,83.8442 273.163,81.8442 274,79.5C 275.271,78.1175 276.771,77.1175 278.5,76.5 Z"/></g>
<g><path style="opacity:1" fill="#b7b895" d="M 69.5,194.5 C 66.9193,191.68 65.0859,188.346 64,184.5C 58.1675,164.442 59.5009,144.775 68,125.5C 70.6057,120.565 73.6057,115.898 77,111.5C 76.6294,117.14 78.9628,118.807 84,116.5C 85.4054,111.731 83.572,109.398 78.5,109.5C 89.5419,94.0146 104.542,84.1812 123.5,80C 165.769,69.8699 201.603,80.7032 231,112.5C 248.989,135.081 254.322,160.415 247,188.5C 245.797,194.314 244.13,199.981 242,205.5C 236.064,215.261 228.898,223.928 220.5,231.5C 220.602,226.428 218.269,224.595 213.5,226C 211.193,231.037 212.86,233.371 218.5,233C 185.073,255.942 150.073,258.608 113.5,241C 103.717,234.218 94.2166,227.051 85,219.5C 78.3932,212.06 73.2266,203.726 69.5,194.5 Z M 101.5,104.5 C 94.5012,108.871 89.6679,114.871 87,122.5C 102.089,129.469 117.256,135.969 132.5,142C 123.061,130.951 114.228,119.451 106,107.5C 104.871,105.859 103.371,104.859 101.5,104.5 Z M 137.5,119.5 C 139.321,123.125 141.655,126.458 144.5,129.5C 145.646,128.855 146.646,128.022 147.5,127C 145.436,122.802 142.103,120.302 137.5,119.5 Z M 79.5,133.5 C 76.7461,141.938 75.4128,150.605 75.5,159.5C 94.4995,159.056 113.499,158.556 132.5,158C 133.167,157.333 133.833,156.667 134.5,156C 116.641,147.433 98.3077,139.933 79.5,133.5 Z M 195.5,143.5 C 192.067,146.059 188.401,148.392 184.5,150.5C 190.097,152.908 195.763,153.074 201.5,151C 200.206,148.913 199.039,146.746 198,144.5C 197.329,143.748 196.496,143.414 195.5,143.5 Z M 209.5,147.5 C 209.963,150.569 211.296,151.069 213.5,149C 212.255,148.209 210.922,147.709 209.5,147.5 Z M 102.5,169.5 C 94.3434,170.329 86.0101,170.829 77.5,171C 79.6594,179.475 82.9927,187.475 87.5,195C 102.31,187.252 116.976,178.919 131.5,170C 121.839,169.5 112.172,169.334 102.5,169.5 Z M 213.5,170.5 C 207.061,172.185 200.395,173.352 193.5,174C 205,180.833 216.5,187.667 228,194.5C 232.501,187.492 234.668,179.825 234.5,171.5C 227.529,170.71 220.529,170.377 213.5,170.5 Z M 136.5,178.5 C 123.07,187.413 109.737,196.58 96.5,206C 102.426,212.765 109.093,218.598 116.5,223.5C 124.531,210.111 132.198,196.444 139.5,182.5C 138.479,181.099 137.479,179.765 136.5,178.5 Z M 177.5,178.5 C 186.107,192.201 195.107,205.701 204.5,219C 205.5,219.667 206.5,219.667 207.5,219C 213.167,214.667 218.167,209.667 222.5,204C 210.335,196.083 198.001,188.416 185.5,181C 183.091,179.293 180.425,178.46 177.5,178.5 Z M 165.5,182.5 C 164.957,183.742 164.623,185.075 164.5,186.5C 166.109,202.146 167.443,217.812 168.5,233.5C 177.603,232.799 186.269,230.466 194.5,226.5C 186.135,213.299 177.968,199.965 170,186.5C 169.124,184.365 167.624,183.031 165.5,182.5 Z M 148.5,187.5 C 141.974,200.718 135.308,213.885 128.5,227C 138.037,231.384 148.037,233.884 158.5,234.5C 157.002,218.852 155.668,203.186 154.5,187.5C 152.5,187.5 150.5,187.5 148.5,187.5 Z"/></g>
<g><path style="opacity:1" fill="#a47e1e" d="M 280.5,76.5 C 282.337,76.6395 282.67,77.3061 281.5,78.5C 280.702,78.0431 280.369,77.3764 280.5,76.5 Z"/></g>
<g><path style="opacity:1" fill="#000000" d="M 162.5,78.5 C 168.158,77.6794 169.825,79.846 167.5,85C 161.741,86.1387 160.074,83.972 162.5,78.5 Z"/></g>
<g><path style="opacity:1" fill="#c2c3c2" d="M 163.5,80.5 C 164.5,80.5 165.5,80.5 166.5,80.5C 166.5,81.5 166.5,82.5 166.5,83.5C 165.5,83.5 164.5,83.5 163.5,83.5C 163.5,82.5 163.5,81.5 163.5,80.5 Z"/></g>
<g><path style="opacity:1" fill="#000000" d="M 176.5,82.5 C 182.158,81.6794 183.825,83.846 181.5,89C 176.213,89.5502 174.546,87.3836 176.5,82.5 Z"/></g>
<g><path style="opacity:1" fill="#c2c3c2" d="M 177.5,84.5 C 178.5,84.5 179.5,84.5 180.5,84.5C 180.5,85.5 180.5,86.5 180.5,87.5C 179.5,87.5 178.5,87.5 177.5,87.5C 177.5,86.5 177.5,85.5 177.5,84.5 Z"/></g>
<g><path style="opacity:1" fill="#000000" d="M 128.5,86.5 C 139.838,86.3335 151.172,86.5001 162.5,87C 169.078,87.2283 175.411,88.5616 181.5,91C 190.693,95.7606 199.693,100.761 208.5,106C 214.033,111.198 219.2,116.698 224,122.5C 226.19,128.367 228.857,134.034 232,139.5C 240.176,159.774 240.176,180.107 232,200.5C 225.25,209.921 217.75,218.754 209.5,227C 198.837,232.499 187.837,237.166 176.5,241C 147.11,246.24 121.443,238.906 99.5,219C 94.6667,214.167 89.8333,209.333 85,204.5C 80.2107,194.132 76.2107,183.466 73,172.5C 71.395,158.511 72.7283,144.844 77,131.5C 81.2875,122.213 86.7875,113.713 93.5,106C 100.236,101.641 106.903,97.3076 113.5,93C 118.367,90.2259 123.367,88.0593 128.5,86.5 Z M 101.5,104.5 C 94.5012,108.871 89.6679,114.871 87,122.5C 102.089,129.469 117.256,135.969 132.5,142C 123.061,130.951 114.228,119.451 106,107.5C 104.871,105.859 103.371,104.859 101.5,104.5 Z M 137.5,119.5 C 139.321,123.125 141.655,126.458 144.5,129.5C 145.646,128.855 146.646,128.022 147.5,127C 145.436,122.802 142.103,120.302 137.5,119.5 Z M 79.5,133.5 C 76.7461,141.938 75.4128,150.605 75.5,159.5C 94.4995,159.056 113.499,158.556 132.5,158C 133.167,157.333 133.833,156.667 134.5,156C 116.641,147.433 98.3077,139.933 79.5,133.5 Z M 195.5,143.5 C 192.067,146.059 188.401,148.392 184.5,150.5C 190.097,152.908 195.763,153.074 201.5,151C 200.206,148.913 199.039,146.746 198,144.5C 197.329,143.748 196.496,143.414 195.5,143.5 Z M 209.5,147.5 C 209.963,150.569 211.296,151.069 213.5,149C 212.255,148.209 210.922,147.709 209.5,147.5 Z M 102.5,169.5 C 94.3434,170.329 86.0101,170.829 77.5,171C 79.6594,179.475 82.9927,187.475 87.5,195C 102.31,187.252 116.976,178.919 131.5,170C 121.839,169.5 112.172,169.334 102.5,169.5 Z M 213.5,170.5 C 207.061,172.185 200.395,173.352 193.5,174C 205,180.833 216.5,187.667 228,194.5C 232.501,187.492 234.668,179.825 234.5,171.5C 227.529,170.71 220.529,170.377 213.5,170.5 Z M 136.5,178.5 C 123.07,187.413 109.737,196.58 96.5,206C 102.426,212.765 109.093,218.598 116.5,223.5C 124.531,210.111 132.198,196.444 139.5,182.5C 138.479,181.099 137.479,179.765 136.5,178.5 Z M 177.5,178.5 C 186.107,192.201 195.107,205.701 204.5,219C 205.5,219.667 206.5,219.667 207.5,219C 213.167,214.667 218.167,209.667 222.5,204C 210.335,196.083 198.001,188.416 185.5,181C 183.091,179.293 180.425,178.46 177.5,178.5 Z M 165.5,182.5 C 164.957,183.742 164.623,185.075 164.5,186.5C 166.109,202.146 167.443,217.812 168.5,233.5C 177.603,232.799 186.269,230.466 194.5,226.5C 186.135,213.299 177.968,199.965 170,186.5C 169.124,184.365 167.624,183.031 165.5,182.5 Z M 148.5,187.5 C 141.974,200.718 135.308,213.885 128.5,227C 138.037,231.384 148.037,233.884 158.5,234.5C 157.002,218.852 155.668,203.186 154.5,187.5C 152.5,187.5 150.5,187.5 148.5,187.5 Z"/></g>
<g><path style="opacity:1" fill="#b7b895" d="M 148.5,88.5 C 149.5,88.5 150.5,88.5 151.5,88.5C 153.227,106.825 154.893,125.159 156.5,143.5C 155.5,143.5 154.5,143.5 153.5,143.5C 151.421,125.2 149.754,106.866 148.5,88.5 Z"/></g>
<g><path style="opacity:1" fill="#6a6a5e" d="M 130.5,89.5 C 135.167,89.5 139.833,89.5 144.5,89.5C 145.929,100.856 147.095,112.189 148,123.5C 146.499,121.631 144.999,119.797 143.5,118C 136.637,115.268 129.637,112.934 122.5,111C 120.874,108.372 118.874,106.039 116.5,104C 117.757,100.476 119.09,96.976 120.5,93.5C 123.865,91.9409 127.198,90.6076 130.5,89.5 Z"/></g>
<g><path style="opacity:1" fill="#6d6e61" d="M 155.5,89.5 C 157.474,91.2931 159.64,92.9598 162,94.5C 164.553,93.7771 166.72,92.4438 168.5,90.5C 172.947,91.2413 177.281,92.4079 181.5,94C 188.192,95.8448 189.025,99.0115 184,103.5C 176.96,100.542 169.794,97.8751 162.5,95.5C 161.558,95.6082 160.725,95.9415 160,96.5C 159.163,98.8442 157.829,100.844 156,102.5C 155.501,98.1794 155.334,93.8461 155.5,89.5 Z"/></g>
<g><path style="opacity:1" fill="#a47e1e" d="M 159.5,90.5 C 161.288,89.3775 163.288,89.2109 165.5,90C 163.663,93.1019 161.663,93.2686 159.5,90.5 Z"/></g>
<g><path style="opacity:1" fill="#c0c0c0" d="M 221.5,91.5 C 222.601,90.4017 223.934,90.235 225.5,91C 229.543,95.3414 234.21,98.6748 239.5,101C 242.138,104.975 245.805,107.308 250.5,108C 252.208,110.043 254.208,111.71 256.5,113C 253.766,113.718 253.1,115.218 254.5,117.5C 257.748,118.645 261.081,119.479 264.5,120C 265.5,120.833 266.5,121.667 267.5,122.5C 262.56,124.304 257.893,126.637 253.5,129.5C 257.835,132.336 262.501,134.503 267.5,136C 266.437,137.188 265.103,137.688 263.5,137.5C 261.506,145.314 259.006,152.981 256,160.5C 255.383,155.462 254.549,150.462 253.5,145.5C 250.437,135.521 247.604,125.855 245,116.5C 241.462,113.969 239.128,110.636 238,106.5C 232.931,100.927 227.431,95.9265 221.5,91.5 Z"/></g>
<g><path style="opacity:1" fill="#b7b895" d="M 256.5,93.5 C 261.167,93.5 265.833,93.5 270.5,93.5C 270.932,99.0037 270.265,104.337 268.5,109.5C 266.477,110.54 264.477,111.54 262.5,112.5C 259.353,111.186 257.02,109.019 255.5,106C 256.329,101.874 256.663,97.7071 256.5,93.5 Z"/></g>
<g><path style="opacity:1" fill="#b97a56" d="M 161.5,96.5 C 168.29,99.4301 175.29,101.763 182.5,103.5C 182.509,105.308 182.009,106.975 181,108.5C 177.97,112.698 175.137,117.032 172.5,121.5C 167.199,119.789 162.032,117.789 157,115.5C 156.333,112.167 156.333,108.833 157,105.5C 158.513,102.473 160.013,99.4734 161.5,96.5 Z"/></g>
<g><path style="opacity:1" fill="#000000" d="M 89.5,97.5 C 95.1581,96.6794 96.8248,98.846 94.5,104C 88.741,105.139 87.0744,102.972 89.5,97.5 Z"/></g>
<g><path style="opacity:1" fill="#c2c3c2" d="M 90.5,99.5 C 91.5,99.5 92.5,99.5 93.5,99.5C 93.5,100.5 93.5,101.5 93.5,102.5C 92.5,102.5 91.5,102.5 90.5,102.5C 90.5,101.5 90.5,100.5 90.5,99.5 Z"/></g>
<g><path style="opacity:1" fill="#b7b895" d="M 190.5,99.5 C 193.465,100.582 193.965,102.249 192,104.5C 183.361,117.305 174.528,129.971 165.5,142.5C 164.635,143.583 163.635,143.749 162.5,143C 172.477,128.868 181.811,114.368 190.5,99.5 Z"/></g>
<g><path style="opacity:1" fill="#000000" d="M 259.5,99.5 C 265.158,98.6794 266.825,100.846 264.5,106C 258.741,107.139 257.074,104.972 259.5,99.5 Z"/></g>
<g><path style="opacity:1" fill="#b7b895" d="M 105.5,101.5 C 107.153,100.201 108.653,100.534 110,102.5C 121.123,116.625 132.623,130.459 144.5,144C 142.045,145.864 139.878,145.698 138,143.5C 126.905,129.612 116.071,115.612 105.5,101.5 Z"/></g>
<g><path style="opacity:1" fill="#c2c3c2" d="M 260.5,101.5 C 261.5,101.5 262.5,101.5 263.5,101.5C 263.5,102.5 263.5,103.5 263.5,104.5C 262.5,104.5 261.5,104.5 260.5,104.5C 260.5,103.5 260.5,102.5 260.5,101.5 Z"/></g>
<g><path style="opacity:1" fill="#b87a56" d="M 192.5,108.5 C 196.781,109.284 199.114,111.784 199.5,116C 199.109,118.953 198.275,121.787 197,124.5C 196.359,126.813 195.026,128.48 193,129.5C 189.009,128.117 185.175,126.45 181.5,124.5C 185.177,119.138 188.843,113.804 192.5,108.5 Z"/></g>
<g><path style="opacity:1" fill="#795f47" d="M 268.5,111.5 C 275.716,110.688 277.716,113.355 274.5,119.5C 268.351,121.7 265.518,119.7 266,113.5C 266.995,112.934 267.828,112.267 268.5,111.5 Z"/></g>
<g><path style="opacity:1" fill="#c2c3c2" d="M 79.5,112.5 C 80.5,112.5 81.5,112.5 82.5,112.5C 82.5,113.5 82.5,114.5 82.5,115.5C 81.5,115.5 80.5,115.5 79.5,115.5C 79.5,114.5 79.5,113.5 79.5,112.5 Z"/></g>
<g><path style="opacity:1" fill="#796046" d="M 277.5,112.5 C 280.187,112.336 282.854,112.503 285.5,113C 286.337,114.011 286.67,115.178 286.5,116.5C 283.859,117.263 281.192,117.43 278.5,117C 277.62,115.644 277.286,114.144 277.5,112.5 Z"/></g>
<g><path style="opacity:1" fill="#5d5d42" d="M 195.5,103.5 C 199.14,104.15 202.473,105.65 205.5,108C 209.527,112.027 213.527,116.027 217.5,120C 210.5,123.833 203.5,127.667 196.5,131.5C 196.167,131.167 195.833,130.833 195.5,130.5C 197.696,125.91 199.696,121.243 201.5,116.5C 201,114.5 200.5,112.5 200,110.5C 197.815,109.33 195.649,108.164 193.5,107C 194.305,105.887 194.972,104.721 195.5,103.5 Z"/></g>
<g><path style="opacity:1" fill="#796046" d="M 260.5,114.5 C 261.833,114.5 263.167,114.5 264.5,114.5C 264.5,115.5 264.5,116.5 264.5,117.5C 261.784,117.322 259.117,116.822 256.5,116C 258.058,115.79 259.391,115.29 260.5,114.5 Z"/></g>
<g><path style="opacity:1" fill="#5e5f40" d="M 126.5,115.5 C 128.117,116.038 129.784,116.371 131.5,116.5C 134.959,122.527 139.292,128.027 144.5,133C 146.387,133.163 147.887,132.329 149,130.5C 150.102,133.905 149.268,136.572 146.5,138.5C 139.59,132.421 133.09,125.755 127,118.5C 126.517,117.552 126.351,116.552 126.5,115.5 Z"/></g>
<g><path style="opacity:1" fill="#45463b" d="M 157.5,118.5 C 162.18,119.893 166.846,121.393 171.5,123C 169.5,126 167.5,129 165.5,132C 163.236,132.236 161.069,132.736 159,133.5C 157.95,128.552 157.45,123.552 157.5,118.5 Z"/></g>
<g><path style="opacity:1" fill="#b7b895" d="M 219.5,122.5 C 221.973,122.604 222.639,123.604 221.5,125.5C 206.672,133.413 192.005,141.58 177.5,150C 175.926,150.699 174.593,150.365 173.5,149C 189.002,140.303 204.335,131.47 219.5,122.5 Z"/></g>
<g><path style="opacity:1" fill="#796046" d="M 268.5,125.5 C 268.856,124.13 269.69,123.13 271,122.5C 272.853,124.685 275.02,126.518 277.5,128C 276.892,128.87 276.059,129.37 275,129.5C 272.429,128.75 270.262,127.417 268.5,125.5 Z"/></g>
<g><path style="opacity:1" fill="#b7b895" d="M 84.5,125.5 C 102.745,132.956 120.745,140.956 138.5,149.5C 137.833,150.833 136.833,151.833 135.5,152.5C 117.541,144.569 99.5413,136.736 81.5,129C 82.365,127.641 83.365,126.474 84.5,125.5 Z"/></g>
<g><path style="opacity:1" fill="#796046" d="M 268.5,125.5 C 270.077,129.622 273.077,131.122 277.5,130C 279.751,128.742 281.751,129.409 283.5,132C 280.774,134.03 277.774,135.53 274.5,136.5C 268.972,134.549 263.639,132.215 258.5,129.5C 261.4,127.049 264.734,125.715 268.5,125.5 Z"/></g>
<g><path style="opacity:1" fill="#45463b" d="M 179.5,126.5 C 184.468,128.1 189.468,129.6 194.5,131C 190.187,135.587 185.02,139.087 179,141.5C 177.833,139 176,137.167 173.5,136C 175.636,132.89 177.636,129.723 179.5,126.5 Z"/></g>
<g><path style="opacity:1" fill="#5e5e40" d="M 220.5,129.5 C 221.496,129.414 222.329,129.748 223,130.5C 228.12,138.207 231.453,146.541 233,155.5C 222.934,149.717 212.434,144.884 201.5,141C 207.897,137.141 214.23,133.308 220.5,129.5 Z"/></g>
<g><path style="opacity:1" fill="#000000" d="M 235.5,133.5 C 241.158,132.679 242.825,134.846 240.5,140C 234.741,141.139 233.074,138.972 235.5,133.5 Z"/></g>
<g><path style="opacity:1" fill="#aaaa8c" d="M 303.5,142.5 C 311.128,146.153 318.795,149.486 326.5,152.5C 339.12,159.23 351.954,165.896 365,172.5C 367.041,171.577 369.208,171.244 371.5,171.5C 371.421,172.93 371.754,174.264 372.5,175.5C 370.162,177.049 370.662,178.049 374,178.5C 375.439,176.079 376.939,176.079 378.5,178.5C 382.334,179.035 383.001,180.535 380.5,183C 381.448,183.483 382.448,183.649 383.5,183.5C 383.351,182.448 383.517,181.448 384,180.5C 385.419,181.46 386.919,182.293 388.5,183C 387.167,184 387.167,185 388.5,186C 389.745,186.791 391.078,187.291 392.5,187.5C 395.842,190.268 399.342,192.934 403,195.5C 403.5,196.5 404,197.5 404.5,198.5C 404.043,199.298 403.376,199.631 402.5,199.5C 401.328,197.461 399.662,196.128 397.5,195.5C 398.239,195.631 398.906,195.464 399.5,195C 390.034,190.265 380.368,186.098 370.5,182.5C 371.609,181.71 372.942,181.21 374.5,181C 365.73,176.438 356.73,172.771 347.5,170C 353.053,172.608 358.387,175.441 363.5,178.5C 334.181,166.677 305.181,154.01 276.5,140.5C 275.167,139.833 275.167,139.167 276.5,138.5C 279.661,137.087 282.661,135.42 285.5,133.5C 290.964,137.565 296.964,140.565 303.5,142.5 Z"/></g>
<g><path style="opacity:1" fill="#45463b" d="M 160.5,134.5 C 161.552,134.351 162.552,134.517 163.5,135C 162.333,136.833 161.167,138.667 160,140.5C 157.909,138.17 158.075,136.17 160.5,134.5 Z"/></g>
<g><path style="opacity:1" fill="#c2c3c2" d="M 236.5,135.5 C 237.5,135.5 238.5,135.5 239.5,135.5C 239.5,136.5 239.5,137.5 239.5,138.5C 238.5,138.5 237.5,138.5 236.5,138.5C 236.5,137.5 236.5,136.5 236.5,135.5 Z"/></g>
<g><path style="opacity:1" fill="#c2c3c2" d="M 269.5,137.5 C 270.922,137.709 272.255,138.209 273.5,139C 270.671,145.483 267.837,151.983 265,158.5C 263.078,161.089 260.911,161.589 258.5,160C 260.859,153.925 263.025,147.759 265,141.5C 266.25,139.807 267.75,138.473 269.5,137.5 Z"/></g>
<g><path style="opacity:1" fill="#45463b" d="M 171.5,138.5 C 173.903,138.695 175.57,139.862 176.5,142C 174.71,143.734 172.71,145.234 170.5,146.5C 169.328,146.081 168.328,145.415 167.5,144.5C 168.844,142.471 170.177,140.471 171.5,138.5 Z"/></g>
<g><path style="opacity:1" fill="#c2c3c2" d="M 326.5,152.5 C 318.795,149.486 311.128,146.153 303.5,142.5C 304.184,140.815 305.517,139.815 307.5,139.5C 314.732,144.177 322.399,148.344 330.5,152C 329.207,152.49 327.873,152.657 326.5,152.5 Z"/></g>
<g><path style="opacity:1" fill="#b0b08f" d="M 342.5,178.5 C 341.551,180.777 340.218,182.777 338.5,184.5C 337.778,184.918 337.278,185.584 337,186.5C 329.042,183.243 321.209,179.91 313.5,176.5C 314.873,176.657 316.207,176.49 317.5,176C 301.062,169.465 284.395,163.632 267.5,158.5C 268.11,157.609 268.443,156.609 268.5,155.5C 274.259,157.544 279.926,159.878 285.5,162.5C 286.833,161.833 286.833,161.167 285.5,160.5C 283.167,159.333 280.833,158.167 278.5,157C 284.327,157.828 289.993,159.495 295.5,162C 296.833,162.667 298.167,162.667 299.5,162C 290.255,158.209 280.922,154.709 271.5,151.5C 271.635,148.226 272.635,145.226 274.5,142.5C 296.683,153.09 319.016,163.424 341.5,173.5C 342.452,175.045 342.785,176.712 342.5,178.5 Z"/></g>
<g><path style="opacity:1" fill="#b7b895" d="M 145.5,145.5 C 151.509,145.334 157.509,145.501 163.5,146C 174.506,149.192 179.006,156.359 177,167.5C 176.8,155.627 170.633,149.127 158.5,148C 146.673,145.17 139.506,149.67 137,161.5C 137.017,154.655 139.85,149.322 145.5,145.5 Z"/></g>
<g><path style="opacity:1" fill="#5e5f40" d="M 202.5,146.5 C 203.209,145.596 204.209,145.263 205.5,145.5C 207.981,154.343 206.981,154.676 202.5,146.5 Z"/></g>
<g><path style="opacity:1" fill="#000000" d="M 240.5,147.5 C 246.158,146.679 247.825,148.846 245.5,154C 239.741,155.139 238.074,152.972 240.5,147.5 Z"/></g>
<g><path style="opacity:1" fill="#5e5f40" d="M 147.5,149.5 C 155.355,148.771 162.688,150.271 169.5,154C 175.077,159.854 175.91,166.354 172,173.5C 170.533,156.338 161.366,149.838 144.5,154C 143.069,154.465 141.903,155.299 141,156.5C 141.892,153.104 144.059,150.77 147.5,149.5 Z"/></g>
<g><path style="opacity:1" fill="#c2c3c2" d="M 241.5,149.5 C 242.5,149.5 243.5,149.5 244.5,149.5C 244.5,150.5 244.5,151.5 244.5,152.5C 243.5,152.5 242.5,152.5 241.5,152.5C 241.5,151.5 241.5,150.5 241.5,149.5 Z"/></g>
<g><path style="opacity:1" fill="#c2c3c2" d="M 250.5,149.5 C 251.117,149.611 251.617,149.944 252,150.5C 252.449,158.041 253.615,165.375 255.5,172.5C 252.437,176.944 251.77,181.777 253.5,187C 251.622,188.543 250.122,190.376 249,192.5C 250.473,183.944 251.64,175.277 252.5,166.5C 251.978,160.802 251.311,155.135 250.5,149.5 Z"/></g>
<g><path style="opacity:1" fill="#5e5f40" d="M 216.5,150.5 C 222.193,152.179 227.526,154.679 232.5,158C 214.819,158.025 197.152,157.358 179.5,156C 176.736,154.456 176.903,153.289 180,152.5C 187.867,155.989 195.867,156.322 204,153.5C 207.111,154.293 210.277,154.126 213.5,153C 214.942,152.623 215.942,151.79 216.5,150.5 Z"/></g>
<g><path style="opacity:1" fill="#515145" d="M 271.5,151.5 C 280.922,154.709 290.255,158.209 299.5,162C 298.167,162.667 296.833,162.667 295.5,162C 289.993,159.495 284.327,157.828 278.5,157C 280.833,158.167 283.167,159.333 285.5,160.5C 286.833,161.167 286.833,161.833 285.5,162.5C 279.926,159.878 274.259,157.544 268.5,155.5C 269.026,153.77 270.026,152.436 271.5,151.5 Z"/></g>
<g><path style="opacity:1" fill="#5e5f40" d="M 149.5,154.5 C 162.877,154.045 169.377,160.379 169,173.5C 163.946,184.52 155.78,187.687 144.5,183C 134.708,175.445 134.042,167.112 142.5,158C 144.925,156.787 147.259,155.621 149.5,154.5 Z"/></g>
<g><path style="opacity:1" fill="#000000" d="M 149.5,158.5 C 160.473,158.305 165.306,163.639 164,174.5C 156.718,185.156 149.384,185.156 142,174.5C 140.485,167.2 142.985,161.867 149.5,158.5 Z"/></g>
<g><path style="opacity:1" fill="#5c5c4d" d="M 267.5,158.5 C 284.395,163.632 301.062,169.465 317.5,176C 316.207,176.49 314.873,176.657 313.5,176.5C 298.232,171.966 283.232,166.633 268.5,160.5C 267.702,160.043 267.369,159.376 267.5,158.5 Z"/></g>
<g><path style="opacity:1" fill="#b7b895" d="M 179.5,159.5 C 198.504,160.786 217.504,162.119 236.5,163.5C 236.5,165.167 236.5,166.833 236.5,168.5C 217.518,166.779 198.518,165.113 179.5,163.5C 179.5,162.167 179.5,160.833 179.5,159.5 Z"/></g>
<g><path style="opacity:1" fill="#a47e1e" d="M 150.5,160.5 C 160.17,161.321 163.67,166.321 161,175.5C 152.667,183.097 146.833,181.43 143.5,170.5C 144.288,166.052 146.621,162.718 150.5,160.5 Z"/></g>
<g><path style="opacity:1" fill="#b7b895" d="M 100.5,161.5 C 111.833,161.5 123.167,161.5 134.5,161.5C 134.714,163.144 134.38,164.644 133.5,166C 113.833,166.563 94.1664,167.063 74.5,167.5C 74.5,165.833 74.5,164.167 74.5,162.5C 83.3494,162.826 92.0161,162.493 100.5,161.5 Z"/></g>
<g><path style="opacity:1" fill="#5e5f40" d="M 184.5,168.5 C 185.964,167.84 187.631,167.507 189.5,167.5C 194.83,168.03 200.164,168.53 205.5,169C 198.379,171.064 191.379,170.897 184.5,168.5 Z"/></g>
<g><path style="opacity:1" fill="#424238" d="M 338.5,166.5 C 338.735,165.903 339.235,165.57 340,165.5C 341.893,166.196 343.726,167.03 345.5,168C 343.078,168.135 340.745,167.635 338.5,166.5 Z"/></g>
<g><path style="opacity:1" fill="#b7b895" d="M 178.5,169.5 C 195.945,179.105 213.278,188.939 230.5,199C 229.382,200.074 228.382,201.24 227.5,202.5C 211.167,193 194.833,183.5 178.5,174C 177.587,172.586 177.587,171.086 178.5,169.5 Z"/></g>
<g><path style="opacity:1" fill="#46463c" d="M 370.5,182.5 C 369.833,182.5 369.167,182.5 368.5,182.5C 368.167,182.5 367.833,182.5 367.5,182.5C 367.918,181.778 368.584,181.278 369.5,181C 367.593,179.878 365.593,179.045 363.5,178.5C 358.387,175.441 353.053,172.608 347.5,170C 356.73,172.771 365.73,176.438 374.5,181C 372.942,181.21 371.609,181.71 370.5,182.5 Z"/></g>
<g><path style="opacity:1" fill="#b7b895" d="M 133.5,172.5 C 134.954,173.52 135.287,174.687 134.5,176C 119.711,185.473 105.211,195.306 91,205.5C 89.7263,204.465 88.5596,203.298 87.5,202C 89.6152,199.8 91.9486,197.8 94.5,196C 107.896,188.644 120.896,180.81 133.5,172.5 Z"/></g>
<g><path style="opacity:1" fill="#b7b7b7" d="M 363.5,184.5 C 361.796,187.256 360.463,190.256 359.5,193.5C 355.681,194.775 352.014,194.275 348.5,192C 345.95,190.558 343.284,189.392 340.5,188.5C 339.295,187.423 338.628,186.09 338.5,184.5C 340.218,182.777 341.551,180.777 342.5,178.5C 343.29,177.391 343.79,176.058 344,174.5C 350.796,177.48 357.296,180.813 363.5,184.5 Z"/></g>
<g><path style="opacity:1" fill="#000000" d="M 65.5,177.5 C 71.1581,176.679 72.8248,178.846 70.5,184C 64.741,185.139 63.0744,182.972 65.5,177.5 Z"/></g>
<g><path style="opacity:1" fill="#000000" d="M 378.5,178.5 C 377.998,180.085 376.998,180.585 375.5,180C 376.244,178.961 377.244,178.461 378.5,178.5 Z"/></g>
<g><path style="opacity:1" fill="#c2c3c2" d="M 66.5,179.5 C 67.5,179.5 68.5,179.5 69.5,179.5C 69.5,180.5 69.5,181.5 69.5,182.5C 68.5,182.5 67.5,182.5 66.5,182.5C 66.5,181.5 66.5,180.5 66.5,179.5 Z"/></g>
<g><path style="opacity:1" fill="#b7b895" d="M 172.5,179.5 C 183.137,194.32 193.637,209.32 204,224.5C 204.163,226.731 202.997,228.065 200.5,228.5C 190.667,213.5 180.833,198.5 171,183.5C 170.7,181.934 171.2,180.601 172.5,179.5 Z"/></g>
<g><path style="opacity:1" fill="#929279" d="M 363.5,178.5 C 365.593,179.045 367.593,179.878 369.5,181C 368.584,181.278 367.918,181.778 367.5,182.5C 365.407,181.955 363.407,181.122 361.5,180C 362.416,179.722 363.082,179.222 363.5,178.5 Z"/></g>
<g><path style="opacity:1" fill="#b7b895" d="M 142.5,184.5 C 143.627,185.122 144.627,185.955 145.5,187C 137.769,200.963 130.435,215.129 123.5,229.5C 121.813,230.568 120.146,230.401 118.5,229C 126.73,214.276 134.73,199.442 142.5,184.5 Z"/></g>
<g><path style="opacity:1" fill="#a3a386" d="M 363.5,184.5 C 375.002,188.837 386.335,193.671 397.5,199C 396.263,199.232 395.263,199.732 394.5,200.5C 394.5,201.833 394.5,203.167 394.5,204.5C 394.167,205.167 393.833,205.833 393.5,206.5C 391.345,206.628 389.345,206.128 387.5,205C 388.604,203.869 388.271,203.035 386.5,202.5C 385.707,202.931 384.873,203.265 384,203.5C 380.886,202.026 377.719,200.693 374.5,199.5C 372.14,201.305 370.473,200.805 369.5,198C 366.185,196.17 362.851,194.67 359.5,193.5C 360.463,190.256 361.796,187.256 363.5,184.5 Z"/></g>
<g><path style="opacity:1" fill="#6d6d5d" d="M 368.5,182.5 C 369.167,182.5 369.833,182.5 370.5,182.5C 380.368,186.098 390.034,190.265 399.5,195C 398.906,195.464 398.239,195.631 397.5,195.5C 387.646,191.403 377.98,187.07 368.5,182.5 Z"/></g>
<g><path style="opacity:1" fill="#b7b895" d="M 160.5,185.5 C 162.822,203.321 164.822,221.321 166.5,239.5C 164.549,239.773 163.049,239.107 162,237.5C 160.334,220.508 158.834,203.508 157.5,186.5C 158.791,186.737 159.791,186.404 160.5,185.5 Z"/></g>
<g><path style="opacity:1" fill="#262626" d="M 423.5,204.5 C 422.694,205.997 422.028,207.664 421.5,209.5C 415.577,210.475 410.244,208.975 405.5,205C 401.333,203.833 399.833,205.333 401,209.5C 403.235,211.202 405.735,212.202 408.5,212.5C 412.066,213.903 415.733,214.903 419.5,215.5C 409.344,217.029 400.011,215.029 391.5,209.5C 392.193,208.482 392.859,207.482 393.5,206.5C 393.833,205.833 394.167,205.167 394.5,204.5C 395.833,204.5 397.167,204.5 398.5,204.5C 399.128,202.338 400.461,200.672 402.5,199.5C 403.376,199.631 404.043,199.298 404.5,198.5C 404,197.5 403.5,196.5 403,195.5C 399.342,192.934 395.842,190.268 392.5,187.5C 392.735,186.903 393.235,186.57 394,186.5C 397.225,187.408 400.225,188.741 403,190.5C 404.599,188.944 406.099,187.277 407.5,185.5C 410.448,187.277 412.448,189.777 413.5,193C 421.521,193.168 429.521,193.668 437.5,194.5C 440.861,198.272 444.528,198.438 448.5,195C 452.887,194.774 457.221,194.274 461.5,193.5C 463.149,194.648 464.649,195.981 466,197.5C 471.514,197.249 471.68,195.749 466.5,193C 471.288,193.098 472.621,195.431 470.5,200C 468.5,200.667 466.5,200.667 464.5,200C 462.361,198.596 460.028,197.763 457.5,197.5C 455.681,197.342 454.348,198.009 453.5,199.5C 443.183,200.332 432.849,200.832 422.5,201C 423.337,202.011 423.67,203.178 423.5,204.5 Z"/></g>
<g><path style="opacity:1" fill="#000000" d="M 69.5,194.5 C 68.6794,188.842 70.846,187.175 76,189.5C 77.1387,195.259 74.972,196.926 69.5,194.5 Z"/></g>
<g><path style="opacity:1" fill="#c2c3c2" d="M 71.5,190.5 C 72.5,190.5 73.5,190.5 74.5,190.5C 74.5,191.5 74.5,192.5 74.5,193.5C 73.5,193.5 72.5,193.5 71.5,193.5C 71.5,192.5 71.5,191.5 71.5,190.5 Z"/></g>
<g><path style="opacity:1" fill="#c2c3c2" d="M 394.5,200.5 C 395.833,200.5 397.167,200.5 398.5,200.5C 398.5,201.833 398.5,203.167 398.5,204.5C 397.167,204.5 395.833,204.5 394.5,204.5C 394.5,203.167 394.5,201.833 394.5,200.5 Z"/></g>
<g><path style="opacity:1" fill="#c2c3c2" d="M 419.5,215.5 C 423.886,214.06 428.219,212.727 432.5,211.5C 433.801,210.116 433.801,208.616 432.5,207C 430.613,206.22 428.946,206.387 427.5,207.5C 426.292,208.234 424.959,208.567 423.5,208.5C 423.5,207.167 423.5,205.833 423.5,204.5C 432.756,203.362 442.089,203.195 451.5,204C 442.729,213.376 432.062,217.209 419.5,215.5 Z"/></g>
<g><path style="opacity:1" fill="#000000" d="M 423.5,204.5 C 423.5,205.833 423.5,207.167 423.5,208.5C 424.959,208.567 426.292,208.234 427.5,207.5C 427.5,208.833 427.5,210.167 427.5,211.5C 429.167,211.5 430.833,211.5 432.5,211.5C 428.219,212.727 423.886,214.06 419.5,215.5C 415.733,214.903 412.066,213.903 408.5,212.5C 405.735,212.202 403.235,211.202 401,209.5C 399.833,205.333 401.333,203.833 405.5,205C 410.244,208.975 415.577,210.475 421.5,209.5C 422.028,207.664 422.694,205.997 423.5,204.5 Z"/></g>
<g><path style="opacity:1" fill="#c2c3c2" d="M 408.5,212.5 C 406.941,210.376 404.941,208.709 402.5,207.5C 402.833,207.167 403.167,206.833 403.5,206.5C 406.329,207.747 408.995,209.247 411.5,211C 416.338,211.354 421.005,211.52 425.5,211.5C 423.293,213.029 420.793,213.695 418,213.5C 414.814,213.256 411.647,212.923 408.5,212.5 Z"/></g>
<g><path style="opacity:1" fill="#5e5f40" d="M 91.5,208.5 C 91.8966,207.475 92.5632,207.308 93.5,208C 100.538,214.707 107.872,221.04 115.5,227C 114.833,227.667 114.167,227.667 113.5,227C 105.39,221.721 98.0568,215.554 91.5,208.5 Z"/></g>
<g><path style="opacity:1" fill="#8a8a8a" d="M 432.5,211.5 C 430.833,211.5 429.167,211.5 427.5,211.5C 427.5,210.167 427.5,208.833 427.5,207.5C 428.946,206.387 430.613,206.22 432.5,207C 433.801,208.616 433.801,210.116 432.5,211.5 Z"/></g>
<g><path style="opacity:1" fill="#000000" d="M 224.5,213.5 C 230.158,212.679 231.825,214.846 229.5,220C 223.741,221.139 222.074,218.972 224.5,213.5 Z"/></g>
<g><path style="opacity:1" fill="#c2c3c2" d="M 225.5,215.5 C 226.5,215.5 227.5,215.5 228.5,215.5C 228.5,216.5 228.5,217.5 228.5,218.5C 227.5,218.5 226.5,218.5 225.5,218.5C 225.5,217.5 225.5,216.5 225.5,215.5 Z"/></g>
<g><path style="opacity:1" fill="#c2c3c2" d="M 214.5,227.5 C 215.5,227.5 216.5,227.5 217.5,227.5C 217.5,228.5 217.5,229.5 217.5,230.5C 216.5,230.5 215.5,230.5 214.5,230.5C 214.5,229.5 214.5,228.5 214.5,227.5 Z"/></g>
<g><path style="opacity:1" fill="#5e5f40" d="M 194.5,229.5 C 195.552,229.351 196.552,229.517 197.5,230C 188.55,235.481 178.883,238.648 168.5,239.5C 168.5,238.5 168.5,237.5 168.5,236.5C 171.91,236.543 175.243,236.043 178.5,235C 183.851,232.846 189.184,231.013 194.5,229.5 Z"/></g>
<g><path style="opacity:1" fill="#5e5f40" d="M 125.5,230.5 C 131.844,232.225 138.178,234.058 144.5,236C 149.137,236.829 153.804,237.329 158.5,237.5C 158.5,238.5 158.5,239.5 158.5,240.5C 146.937,240.352 135.937,237.852 125.5,233C 124.402,232.23 124.402,231.397 125.5,230.5 Z"/></g>
<g><path style="opacity:1" fill="#000000" d="M 127.5,239.5 C 133.158,238.679 134.825,240.846 132.5,246C 126.741,247.139 125.074,244.972 127.5,239.5 Z"/></g>
<g><path style="opacity:1" fill="#c2c3c2" d="M 128.5,241.5 C 129.5,241.5 130.5,241.5 131.5,241.5C 131.5,242.5 131.5,243.5 131.5,244.5C 130.5,244.5 129.5,244.5 128.5,244.5C 128.5,243.5 128.5,242.5 128.5,241.5 Z"/></g>
<g><path style="opacity:1" fill="#000000" d="M 146.5,243.5 C 152.158,242.679 153.825,244.846 151.5,250C 145.741,251.139 144.074,248.972 146.5,243.5 Z"/></g>
<g><path style="opacity:1" fill="#c2c3c2" d="M 147.5,245.5 C 148.5,245.5 149.5,245.5 150.5,245.5C 150.5,246.5 150.5,247.5 150.5,248.5C 149.5,248.5 148.5,248.5 147.5,248.5C 147.5,247.5 147.5,246.5 147.5,245.5 Z"/></g>
</svg>
