<?xml version="1.0" encoding="UTF-8"?>
<!DOCTYPE svg PUBLIC "-//W3C//DTD SVG 1.1//EN" "http://www.w3.org/Graphics/SVG/1.1/DTD/svg11.dtd">
<svg xmlns="http://www.w3.org/2000/svg" version="1.1" width="495px" height="295px" style="shape-rendering:geometricPrecision; text-rendering:geometricPrecision; image-rendering:optimizeQuality; fill-rule:evenodd; clip-rule:evenodd" xmlns:xlink="http://www.w3.org/1999/xlink">
<g><path style="opacity:1" fill="#010101" d="M 177.5,6.5 C 180.049,6.38742 182.382,7.05408 184.5,8.5C 186.183,7.40794 188.016,6.74127 190,6.5C 197.64,8.5808 205.473,10.0808 213.5,11C 220.849,15.6038 228.516,19.6038 236.5,23C 238.601,25.7695 241.268,27.7695 244.5,29C 246.625,33.4573 249.791,36.9573 254,39.5C 254.953,41.4552 256.287,43.1218 258,44.5C 258.511,46.8782 259.178,49.2115 260,51.5C 262.657,52.7451 264.49,54.7451 265.5,57.5C 271.824,57.9922 276.99,60.6589 281,65.5C 281.333,68.1667 281.667,70.8333 282,73.5C 285.168,69.4668 289.001,68.6335 293.5,71C 297.677,75.9538 297.343,80.6204 292.5,85C 288.495,86.0981 284.995,85.2648 282,82.5C 281.783,85.9388 280.283,88.6054 277.5,90.5C 276.668,95.4787 276.002,100.479 275.5,105.5C 275.39,107.374 276.056,108.874 277.5,110C 280.833,110.333 284.167,110.667 287.5,111C 289.325,112.466 289.825,114.299 289,116.5C 285.541,118.66 281.708,119.827 277.5,120C 276.833,120.667 276.167,121.333 275.5,122C 283.731,127.894 292.231,133.394 301,138.5C 305.066,135.777 308.899,135.943 312.5,139C 314.5,139.333 316.5,139.667 318.5,140C 321.939,145.391 326.939,148.224 333.5,148.5C 333.178,150.722 333.845,152.556 335.5,154C 345.77,158.644 355.936,163.477 366,168.5C 370.487,166.659 373.653,167.993 375.5,172.5C 384.571,176.785 393.404,181.451 402,186.5C 406.478,181.064 410.811,181.397 415,187.5C 415.483,188.448 415.649,189.448 415.5,190.5C 424.187,190.674 432.853,190.34 441.5,189.5C 445.685,190.062 449.851,190.728 454,191.5C 459.81,190.39 465.644,189.89 471.5,190C 474.428,193.257 475.262,197.091 474,201.5C 468.431,204.264 462.931,203.931 457.5,200.5C 456.719,201.729 456.219,203.062 456,204.5C 451.928,208.45 447.762,212.283 443.5,216C 439.751,216.708 436.084,217.708 432.5,219C 421.819,219.411 411.153,219.078 400.5,218C 396.833,216.167 393.167,214.333 389.5,212.5C 388.738,211.372 388.071,210.205 387.5,209C 381.601,205.546 375.267,203.546 368.5,203C 364.53,198.179 359.53,196.513 353.5,198C 325.758,185.306 297.425,173.972 268.5,164C 264.599,164.354 260.766,164.187 257,163.5C 257.132,166.508 257.632,169.508 258.5,172.5C 257.973,175.68 256.973,178.68 255.5,181.5C 257.54,186.312 256.54,190.312 252.5,193.5C 253.544,195.768 253.711,198.101 253,200.5C 250.743,206.026 247.743,211.026 244,215.5C 242.736,217.607 240.903,218.607 238.5,218.5C 237.89,224.615 234.556,228.449 228.5,230C 227.773,231.399 227.273,232.899 227,234.5C 198.525,255.732 166.692,262.565 131.5,255C 98.5407,242.863 74.7074,221.029 60,189.5C 59.3333,188.833 58.6667,188.167 58,187.5C 57.1315,179.482 56.1315,171.482 55,163.5C 53.9242,161.933 53.0909,160.266 52.5,158.5C 53.685,156.289 54.685,153.955 55.5,151.5C 53.9884,150.751 52.9884,149.584 52.5,148C 53.5355,146.099 54.7022,144.265 56,142.5C 56.4986,139.978 56.3319,137.478 55.5,135C 56.1782,132.476 57.5115,130.309 59.5,128.5C 57.3004,123.695 58.8004,120.695 64,119.5C 64.9143,117.336 66.081,115.336 67.5,113.5C 66.5721,112.232 66.4054,110.899 67,109.5C 69.039,107.126 71.3723,105.126 74,103.5C 74.3333,102.167 74.6667,100.833 75,99.5C 78.5453,98.4602 80.3786,96.1269 80.5,92.5C 85.1656,92.9452 88.1656,90.9452 89.5,86.5C 93.8785,85.4772 97.8785,83.6439 101.5,81C 91.1566,80.2766 80.8233,79.4433 70.5,78.5C 66.7502,78.7599 63.0836,79.4266 59.5,80.5C 57.0826,79.5956 54.5826,78.929 52,78.5C 47.4578,79.5222 42.9578,80.6888 38.5,82C 36.5,82.6667 34.5,82.6667 32.5,82C 26.9187,72.9382 26.0853,63.4382 30,53.5C 31.8184,51.0005 34.1517,49.3338 37,48.5C 42.7398,50.9492 48.5731,53.2825 54.5,55.5C 56.5,54.5 58.5,53.5 60.5,52.5C 62.3969,52.7282 63.7303,53.7282 64.5,55.5C 81.196,56.9083 97.8626,56.7416 114.5,55C 115.5,53.3333 116.5,51.6667 117.5,50C 115.498,45.9864 116.665,43.4864 121,42.5C 120.64,37.6986 122.806,35.0319 127.5,34.5C 130.658,29.1794 134.658,24.6794 139.5,21C 141.025,19.9914 142.692,19.4914 144.5,19.5C 144.5,18.5 144.5,17.5 144.5,16.5C 149.034,16.9744 152.867,15.6411 156,12.5C 160.215,11.458 164.382,10.2913 168.5,9C 170.568,8.31312 172.568,8.47978 174.5,9.5C 175.855,8.81181 176.855,7.81181 177.5,6.5 Z M 180.5,25.5 C 187.01,25.0698 193.344,25.9031 199.5,28C 197.287,34.6844 195.621,41.5177 194.5,48.5C 189.492,47.9986 184.492,47.332 179.5,46.5C 177.679,40.8844 176.013,35.2178 174.5,29.5C 174.608,28.5581 174.941,27.7247 175.5,27C 177.382,26.8019 179.048,26.3019 180.5,25.5 Z M 163.5,29.5 C 164.586,29.62 165.253,30.2867 165.5,31.5C 166.912,36.3137 168.245,41.1471 169.5,46C 168.46,48.1307 166.96,49.964 165,51.5C 163.991,53.0249 163.491,54.6916 163.5,56.5C 160.951,55.4909 158.285,54.6575 155.5,54C 152.066,49.8104 148.4,45.8104 144.5,42C 150.247,36.803 156.581,32.6363 163.5,29.5 Z M 206.5,30.5 C 215.223,32.7233 222.89,36.89 229.5,43C 231.007,43.8373 231.507,45.0039 231,46.5C 226.833,50 222.667,53.5 218.5,57C 212.122,58.22 206.122,57.3866 200.5,54.5C 203.119,46.6462 205.119,38.6462 206.5,30.5 Z M 137.5,48.5 C 139.963,50.4611 142.297,52.6278 144.5,55C 141.629,55.1308 139.295,56.2975 137.5,58.5C 135.885,57.846 134.218,57.346 132.5,57C 133.963,54.0395 135.629,51.2062 137.5,48.5 Z M 237.5,51.5 C 240.089,52.6478 241.755,54.6478 242.5,57.5C 238.752,58.842 235.085,58.6753 231.5,57C 233.996,55.669 235.996,53.8356 237.5,51.5 Z M 185.5,53.5 C 188.278,53.0217 190.278,54.0217 191.5,56.5C 191.167,56.8333 190.833,57.1667 190.5,57.5C 187.442,55.8593 184.108,55.0259 180.5,55C 182.382,54.8019 184.048,54.3019 185.5,53.5 Z M 231.5,92.5 C 233.628,91.3709 235.961,91.2042 238.5,92C 240.134,93.3083 241.968,94.1416 244,94.5C 246.734,93.2042 249.567,92.7042 252.5,93C 253.637,96.7842 253.637,100.618 252.5,104.5C 247.745,104.258 244.078,102.091 241.5,98C 240.167,97.6667 238.833,97.3333 237.5,97C 235.905,94.8981 233.905,93.3981 231.5,92.5 Z M 130.5,141.5 C 115.403,135.633 100.403,129.466 85.5,123C 89.2339,115.013 94.9006,108.846 102.5,104.5C 112.619,116.279 121.952,128.613 130.5,141.5 Z M 137.5,119.5 C 142.097,120.3 145.431,122.8 147.5,127C 146.646,128.022 145.646,128.855 144.5,129.5C 141.655,126.458 139.321,123.125 137.5,119.5 Z M 80.5,132.5 C 98.8076,139.985 117.141,147.485 135.5,155C 115.494,157.234 95.4936,159.401 75.5,161.5C 74.9828,151.423 76.6495,141.757 80.5,132.5 Z M 195.5,143.5 C 196.496,143.414 197.329,143.748 198,144.5C 199.039,146.746 200.206,148.913 201.5,151C 195.763,153.074 190.097,152.908 184.5,150.5C 188.401,148.392 192.067,146.059 195.5,143.5 Z M 210.5,148.5 C 214.243,148.459 214.41,149.126 211,150.5C 210.536,149.906 210.369,149.239 210.5,148.5 Z M 127.5,167.5 C 129.924,167.192 132.257,167.526 134.5,168.5C 119.176,177.496 103.843,186.496 88.5,195.5C 83.0332,188.444 79.6999,180.444 78.5,171.5C 95.0013,170.424 111.335,169.091 127.5,167.5 Z M 213.5,170.5 C 220.529,170.377 227.529,170.71 234.5,171.5C 234.9,179.802 232.567,187.136 227.5,193.5C 216.5,187 205.5,180.5 194.5,174C 201.046,173.245 207.38,172.078 213.5,170.5 Z M 136.5,178.5 C 137.596,180.103 138.93,181.603 140.5,183C 132.998,196.65 125.331,210.15 117.5,223.5C 109.478,218.985 102.478,213.152 96.5,206C 109.737,196.58 123.07,187.413 136.5,178.5 Z M 179.5,180.5 C 193.855,188.013 207.855,196.18 221.5,205C 217.269,211.252 211.935,215.918 205.5,219C 196.586,206.268 187.92,193.434 179.5,180.5 Z M 165.5,182.5 C 175.64,196.759 185.307,211.425 194.5,226.5C 186.269,230.466 177.603,232.799 168.5,233.5C 167.443,217.812 166.109,202.146 164.5,186.5C 164.623,185.075 164.957,183.742 165.5,182.5 Z M 147.5,186.5 C 149.717,187.369 152.05,187.702 154.5,187.5C 155.668,203.186 157.002,218.852 158.5,234.5C 147.764,233.733 137.431,231.233 127.5,227C 134.578,213.678 141.244,200.178 147.5,186.5 Z"/></g>
<g><path style="opacity:1" fill="#c2c3c2" d="M 247.5,40.5 C 242.741,37.2467 238.408,33.4134 234.5,29C 211.14,14.4953 186.14,10.4953 159.5,17C 153.288,19.9373 147.288,23.104 141.5,26.5C 141.281,25.325 141.614,24.325 142.5,23.5C 147.118,20.9505 151.784,18.4505 156.5,16C 161.531,14.7747 166.364,13.2747 171,11.5C 174.182,12.9147 177.182,12.5814 180,10.5C 183.587,13.2759 186.92,12.9426 190,9.5C 191.736,12.4134 194.069,13.08 197,11.5C 202.5,12.6667 208,13.8333 213.5,15C 216.999,18.0829 220.999,20.0829 225.5,21C 231.63,23.9345 237.296,27.6011 242.5,32C 243.673,35.2092 245.34,38.0426 247.5,40.5 Z"/></g>
<g><path style="opacity:1" fill="#b7b895" d="M 152.5,23.5 C 162.02,17.4945 172.52,14.8279 184,15.5C 196.692,16.048 208.859,18.8813 220.5,24C 217.121,24.711 215.621,26.8777 216,30.5C 200.225,21.6192 183.892,20.2859 167,26.5C 164.094,25.5876 161.427,26.2543 159,28.5C 158.997,24.1178 156.831,22.4511 152.5,23.5 Z"/></g>
<g><path style="opacity:1" fill="#b7b895" d="M 152.5,23.5 C 150.952,26.2585 151.285,28.7585 153.5,31C 150.898,31.8834 148.731,33.3834 147,35.5C 146.644,32.2712 144.81,30.7712 141.5,31C 144.244,27.0799 147.911,24.5799 152.5,23.5 Z"/></g>
<g><path style="opacity:1" fill="#c2c3c2" d="M 153.5,25.5 C 154.5,25.5 155.5,25.5 156.5,25.5C 156.5,26.5 156.5,27.5 156.5,28.5C 155.5,28.5 154.5,28.5 153.5,28.5C 153.5,27.5 153.5,26.5 153.5,25.5 Z"/></g>
<g><path style="opacity:1" fill="#b7b895" d="M 234.5,32.5 C 230.169,31.4511 228.003,33.1178 228,37.5C 225.5,35.6667 223,33.8333 220.5,32C 222.993,30.6754 224.16,28.5087 224,25.5C 227.996,27.2368 231.496,29.5701 234.5,32.5 Z"/></g>
<g><path style="opacity:1" fill="#c2c3c2" d="M 141.5,26.5 C 140.381,29.5017 138.214,31.5017 135,32.5C 135.603,29.0704 137.769,27.0704 141.5,26.5 Z"/></g>
<g><path style="opacity:1" fill="#c2c3c2" d="M 218.5,26.5 C 219.5,26.5 220.5,26.5 221.5,26.5C 221.5,27.5 221.5,28.5 221.5,29.5C 220.5,29.5 219.5,29.5 218.5,29.5C 218.5,28.5 218.5,27.5 218.5,26.5 Z"/></g>
<g><path style="opacity:1" fill="#b7b895" d="M 168.5,27.5 C 169.75,27.5774 170.583,28.244 171,29.5C 172.606,35.7636 174.44,41.9303 176.5,48C 175.552,48.4828 174.552,48.6495 173.5,48.5C 171.675,41.535 170.009,34.535 168.5,27.5 Z"/></g>
<g><path style="opacity:1" fill="#b7b895" d="M 202.5,27.5 C 203.239,27.369 203.906,27.5357 204.5,28C 201.808,37.0824 199.308,46.2491 197,55.5C 198.183,46.0897 200.017,36.7564 202.5,27.5 Z"/></g>
<g><path style="opacity:1" fill="#b7b895" d="M 138.5,32.5 C 139.302,33.9516 139.802,35.6183 140,37.5C 140.75,38.1258 141.584,38.6258 142.5,39C 139.667,42.5 136.5,45.6667 133,48.5C 131.37,52.0587 129.37,55.392 127,58.5C 124.853,57.8875 122.686,57.2208 120.5,56.5C 123.278,52.3424 125.778,48.009 128,43.5C 131.759,39.9114 135.259,36.2447 138.5,32.5 Z"/></g>
<g><path style="opacity:1" fill="#c2c3c2" d="M 132.5,33.5 C 133.525,33.8966 133.692,34.5632 133,35.5C 130.667,37.8333 128.333,40.1667 126,42.5C 125.51,41.2068 125.343,39.8734 125.5,38.5C 126.552,38.6495 127.552,38.4828 128.5,38C 129.699,36.3057 131.032,34.8057 132.5,33.5 Z"/></g>
<g><path style="opacity:1" fill="#c2c3c2" d="M 141.5,33.5 C 142.5,33.5 143.5,33.5 144.5,33.5C 144.5,34.5 144.5,35.5 144.5,36.5C 143.5,36.5 142.5,36.5 141.5,36.5C 141.5,35.5 141.5,34.5 141.5,33.5 Z"/></g>
<g><path style="opacity:1" fill="#b7b895" d="M 235.5,33.5 C 244.325,40.3231 251.325,48.6564 256.5,58.5C 253.494,59.7485 250.494,59.7485 247.5,58.5C 245.747,55.9952 244.247,53.3286 243,50.5C 240.667,48.8333 238.333,47.1667 236,45.5C 234.878,43.3762 233.378,41.5429 231.5,40C 235.03,39.3282 236.363,37.1616 235.5,33.5 Z"/></g>
<g><path style="opacity:1" fill="#c2c3c2" d="M 230.5,34.5 C 231.5,34.5 232.5,34.5 233.5,34.5C 233.5,35.5 233.5,36.5 233.5,37.5C 232.5,37.5 231.5,37.5 230.5,37.5C 230.5,36.5 230.5,35.5 230.5,34.5 Z"/></g>
<g><path style="opacity:1" fill="#c2c3c2" d="M 248.5,41.5 C 249.5,41.5 250.5,41.5 251.5,41.5C 251.662,43.8244 252.828,45.4911 255,46.5C 255.667,47.5 255.667,48.5 255,49.5C 251.64,47.7669 249.473,45.1003 248.5,41.5 Z"/></g>
<g><path style="opacity:1" fill="#b7b895" d="M 140.5,44.5 C 143.056,45.5434 145.223,47.2101 147,49.5C 148.626,52.1277 150.626,54.461 153,56.5C 153.667,57.1667 153.667,57.8333 153,58.5C 148.232,54.2401 144.066,49.5734 140.5,44.5 Z"/></g>
<g><path style="opacity:1" fill="#c2c3c2" d="M 119.5,47.5 C 120.601,46.4017 121.934,46.235 123.5,47C 122.853,48.6095 122.02,50.1095 121,51.5C 120.79,49.9419 120.29,48.6085 119.5,47.5 Z"/></g>
<g><path style="opacity:1" fill="#b7b895" d="M 234.5,47.5 C 235.525,47.8966 235.692,48.5632 235,49.5C 231.688,51.6453 228.854,54.312 226.5,57.5C 225.277,58.6139 223.944,58.7805 222.5,58C 226.693,54.6349 230.693,51.1349 234.5,47.5 Z"/></g>
<g><path style="opacity:1" fill="#fef049" d="M 193.5,59.5 C 192.734,57.3157 192.067,54.9823 191.5,52.5C 190.5,52.1667 189.5,51.8333 188.5,51.5C 182.187,52.2071 175.853,52.7071 169.5,53C 168.603,55.1265 167.269,55.6265 165.5,54.5C 166.313,53.1861 167.313,52.0195 168.5,51C 176.5,50.3333 184.5,50.3333 192.5,51C 193.444,53.7191 193.777,56.5525 193.5,59.5 Z"/></g>
<g><path style="opacity:1" fill="#b7b895" d="M 175.5,53.5 C 177.337,53.6395 177.67,54.3061 176.5,55.5C 175.702,55.0431 175.369,54.3764 175.5,53.5 Z"/></g>
<g><path style="opacity:1" fill="#c2c3c2" d="M 257.5,54.5 C 259.553,55.5336 261.22,57.0336 262.5,59C 261.207,59.49 259.873,59.6567 258.5,59.5C 258.371,57.7839 258.038,56.1172 257.5,54.5 Z"/></g>
<g><path style="opacity:1" fill="#fef049" d="M 193.5,65.5 C 192.833,65.5 192.167,65.5 191.5,65.5C 190.785,63.2453 189.452,61.4119 187.5,60C 180.833,59.3333 174.167,59.3333 167.5,60C 166.418,61.3297 165.751,62.8297 165.5,64.5C 165.167,64.5 164.833,64.5 164.5,64.5C 164.104,61.9556 164.771,59.7889 166.5,58C 173.5,57.3333 180.5,57.3333 187.5,58C 190.857,59.5125 192.857,62.0125 193.5,65.5 Z"/></g>
<g><path style="opacity:1" fill="#ddb53d" d="M 164.5,64.5 C 164.833,64.5 165.167,64.5 165.5,64.5C 166.117,64.6107 166.617,64.944 167,65.5C 167.309,64.2341 167.809,63.0674 168.5,62C 174.833,61.3333 181.167,61.3333 187.5,62C 188.705,63.3756 190.038,64.5423 191.5,65.5C 192.167,65.5 192.833,65.5 193.5,65.5C 194.742,63.6112 194.742,61.6112 193.5,59.5C 195.199,59.6204 196.865,59.9537 198.5,60.5C 200.029,60.4712 201.196,59.8045 202,58.5C 202.5,59 203,59.5 203.5,60C 225.551,61.1865 247.551,61.8531 269.5,62C 272.582,63.4086 275.415,65.2419 278,67.5C 278.498,70.4816 278.665,73.4816 278.5,76.5C 276.771,77.1175 275.271,78.1175 274,79.5C 273.163,81.8442 271.829,83.8442 270,85.5C 268.401,82.4415 265.901,80.4415 262.5,79.5C 261.692,77.5767 261.192,75.5767 261,73.5C 260.758,79.1667 260.925,84.8333 261.5,90.5C 260.5,90.5 259.5,90.5 258.5,90.5C 258.265,84.1505 257.765,77.8172 257,71.5C 256.503,73.8098 256.337,76.1432 256.5,78.5C 253.193,77.9492 249.86,77.6159 246.5,77.5C 244.821,74.4189 244.821,78.4189 246.5,89.5C 244.545,92.1325 242.545,92.1325 240.5,89.5C 242.172,78.2681 242.172,74.6015 240.5,78.5C 227.443,77.9853 214.443,76.9853 201.5,75.5C 201.663,73.1432 201.497,70.8098 201,68.5C 200.503,71.146 200.336,73.8127 200.5,76.5C 190.16,72.249 179.493,69.249 168.5,67.5C 161.73,67.9788 154.897,67.9788 148,67.5C 143.098,67.8 138.265,68.4667 133.5,69.5C 132.228,68.954 130.894,68.6207 129.5,68.5C 125.399,70.1811 121.065,70.8478 116.5,70.5C 97.4428,73.4073 78.4428,73.074 59.5,69.5C 57.8423,66.7279 58.509,69.0613 61.5,76.5C 60.0011,77.494 58.3344,77.494 56.5,76.5C 55.9645,72.181 55.4645,67.8477 55,63.5C 54.5045,65.4727 54.3379,67.4727 54.5,69.5C 47.5839,69.6875 40.7506,69.0209 34,67.5C 32.9302,67.528 32.0968,67.8614 31.5,68.5C 29.8745,61.8629 31.7078,56.1962 37,51.5C 41.2707,54.0514 45.7707,56.218 50.5,58C 54.1177,58.966 57.451,58.466 60.5,56.5C 61.3857,57.325 61.719,58.325 61.5,59.5C 79.3496,59.7718 97.1829,59.4384 115,58.5C 122.324,59.5731 129.658,60.5731 137,61.5C 139.175,61.1661 141.008,60.1661 142.5,58.5C 145.967,61.2946 149.967,62.128 154.5,61C 155.337,59.9887 155.67,58.8221 155.5,57.5C 157.833,58.1667 160.167,58.8333 162.5,59.5C 162.077,61.7812 162.744,63.4479 164.5,64.5 Z"/></g>
<g><path style="opacity:1" fill="#000000" d="M 191.5,65.5 C 190.038,64.5423 188.705,63.3756 187.5,62C 181.167,61.3333 174.833,61.3333 168.5,62C 167.809,63.0674 167.309,64.2341 167,65.5C 166.617,64.944 166.117,64.6107 165.5,64.5C 165.751,62.8297 166.418,61.3297 167.5,60C 174.167,59.3333 180.833,59.3333 187.5,60C 189.452,61.4119 190.785,63.2453 191.5,65.5 Z"/></g>
<g><path style="opacity:1" fill="#a47d1f" d="M 56.5,76.5 C 53.2569,75.42 49.9236,75.2534 46.5,76C 42.9687,77.6058 39.302,78.7725 35.5,79.5C 32.752,76.3393 31.4187,72.6726 31.5,68.5C 32.0968,67.8614 32.9302,67.528 34,67.5C 40.7506,69.0209 47.5839,69.6875 54.5,69.5C 54.3379,67.4727 54.5045,65.4727 55,63.5C 55.4645,67.8477 55.9645,72.181 56.5,76.5 Z"/></g>
<g><path style="opacity:1" fill="#a47e1e" d="M 116.5,70.5 C 114.934,72.8751 112.601,74.0418 109.5,74C 107.884,74.6152 106.551,75.6152 105.5,77C 93.9653,77.4546 82.4653,76.9546 71,75.5C 67.6482,75.5018 64.4815,75.8351 61.5,76.5C 58.509,69.0613 57.8423,66.7279 59.5,69.5C 78.4428,73.074 97.4428,73.4073 116.5,70.5 Z"/></g>
<g><path style="opacity:1" fill="#a47e1e" d="M 240.5,89.5 C 231.764,88.927 223.097,87.5937 214.5,85.5C 214.023,84.5224 213.357,83.6891 212.5,83C 207.712,82.109 203.712,79.9423 200.5,76.5C 200.336,73.8127 200.503,71.146 201,68.5C 201.497,70.8098 201.663,73.1432 201.5,75.5C 214.443,76.9853 227.443,77.9853 240.5,78.5C 242.172,74.6015 242.172,78.2681 240.5,89.5 Z"/></g>
<g><path style="opacity:1" fill="#c2c3c2" d="M 143.5,70.5 C 151.916,71.4725 160.25,71.4725 168.5,70.5C 172.182,72.7205 176.015,73.3871 180,72.5C 190.033,75.2666 199.2,79.7666 207.5,86C 208.793,86.49 210.127,86.6567 211.5,86.5C 212.397,89.9896 214.73,92.1563 218.5,93C 220.875,97.4331 224.375,100.6 229,102.5C 232.546,108.23 236.712,113.564 241.5,118.5C 243.849,123.301 245.349,128.301 246,133.5C 232.827,105.616 211.327,87.1158 181.5,78C 156.282,71.06 131.616,72.7267 107.5,83C 86.4894,93.35 71.6561,109.517 63,131.5C 61.4104,138.115 60.077,144.782 59,151.5C 58.5,150 58,148.5 57.5,147C 59.6661,143.169 59.9994,139.169 58.5,135C 61.7525,132.25 62.7525,128.917 61.5,125C 66.6016,121.541 69.7683,116.708 71,110.5C 72.8153,108.595 74.8153,106.928 77,105.5C 77.2066,102.577 78.7066,100.744 81.5,100C 87.8444,91.3345 96.1777,85.3345 106.5,82C 108.821,77.6704 112.488,75.6704 117.5,76C 119.007,72.3864 121.507,71.553 125,73.5C 126.812,73.5066 128.312,72.84 129.5,71.5C 134.337,72.4705 139.004,72.1371 143.5,70.5 Z M 137.5,119.5 C 139.321,123.125 141.655,126.458 144.5,129.5C 145.646,128.855 146.646,128.022 147.5,127C 145.431,122.8 142.097,120.3 137.5,119.5 Z"/></g>
<g><path style="opacity:1" fill="#a47e1e" d="M 258.5,90.5 C 254.534,89.8379 250.534,89.5045 246.5,89.5C 244.821,78.4189 244.821,74.4189 246.5,77.5C 249.86,77.6159 253.193,77.9492 256.5,78.5C 256.337,76.1432 256.503,73.8098 257,71.5C 257.765,77.8172 258.265,84.1505 258.5,90.5 Z"/></g>
<g><path style="opacity:1" fill="#fef049" d="M 288.5,72.5 C 294.866,75.5548 295.033,78.8881 289,82.5C 281.902,79.5965 281.735,76.2631 288.5,72.5 Z"/></g>
<g><path style="opacity:1" fill="#a47e1e" d="M 278.5,76.5 C 280.034,82.5155 277.868,86.8488 272,89.5C 270.913,87.0684 270.413,87.4017 270.5,90.5C 267.5,90.5 264.5,90.5 261.5,90.5C 260.925,84.8333 260.758,79.1667 261,73.5C 261.192,75.5767 261.692,77.5767 262.5,79.5C 265.901,80.4415 268.401,82.4415 270,85.5C 271.829,83.8442 273.163,81.8442 274,79.5C 275.271,78.1175 276.771,77.1175 278.5,76.5 Z"/></g>
<g><path style="opacity:1" fill="#b7b895" d="M 69.5,194.5 C 66.9193,191.68 65.0859,188.346 64,184.5C 58.1675,164.442 59.5009,144.775 68,125.5C 70.6057,120.565 73.6057,115.898 77,111.5C 76.6294,117.14 78.9628,118.807 84,116.5C 85.4054,111.731 83.572,109.398 78.5,109.5C 81.1059,105.391 84.2726,101.724 88,98.5C 87.6294,104.14 89.9628,105.807 95,103.5C 96.544,99.1884 95.044,97.0217 90.5,97C 99.9317,88.4498 110.932,82.7832 123.5,80C 165.769,69.8699 201.603,80.7032 231,112.5C 248.989,135.081 254.322,160.415 247,188.5C 245.797,194.314 244.13,199.981 242,205.5C 236.064,215.261 228.898,223.928 220.5,231.5C 220.602,226.428 218.269,224.595 213.5,226C 211.193,231.037 212.86,233.371 218.5,233C 185.073,255.942 150.073,258.608 113.5,241C 103.717,234.218 94.2166,227.051 85,219.5C 78.3932,212.06 73.2266,203.726 69.5,194.5 Z M 130.5,141.5 C 121.952,128.613 112.619,116.279 102.5,104.5C 94.9006,108.846 89.2339,115.013 85.5,123C 100.403,129.466 115.403,135.633 130.5,141.5 Z M 137.5,119.5 C 139.321,123.125 141.655,126.458 144.5,129.5C 145.646,128.855 146.646,128.022 147.5,127C 145.431,122.8 142.097,120.3 137.5,119.5 Z M 80.5,132.5 C 76.6495,141.757 74.9828,151.423 75.5,161.5C 95.4936,159.401 115.494,157.234 135.5,155C 117.141,147.485 98.8076,139.985 80.5,132.5 Z M 195.5,143.5 C 192.067,146.059 188.401,148.392 184.5,150.5C 190.097,152.908 195.763,153.074 201.5,151C 200.206,148.913 199.039,146.746 198,144.5C 197.329,143.748 196.496,143.414 195.5,143.5 Z M 210.5,148.5 C 210.369,149.239 210.536,149.906 211,150.5C 214.41,149.126 214.243,148.459 210.5,148.5 Z M 127.5,167.5 C 111.335,169.091 95.0013,170.424 78.5,171.5C 79.6999,180.444 83.0332,188.444 88.5,195.5C 103.843,186.496 119.176,177.496 134.5,168.5C 132.257,167.526 129.924,167.192 127.5,167.5 Z M 213.5,170.5 C 207.38,172.078 201.046,173.245 194.5,174C 205.5,180.5 216.5,187 227.5,193.5C 232.567,187.136 234.9,179.802 234.5,171.5C 227.529,170.71 220.529,170.377 213.5,170.5 Z M 136.5,178.5 C 123.07,187.413 109.737,196.58 96.5,206C 102.478,213.152 109.478,218.985 117.5,223.5C 125.331,210.15 132.998,196.65 140.5,183C 138.93,181.603 137.596,180.103 136.5,178.5 Z M 179.5,180.5 C 187.92,193.434 196.586,206.268 205.5,219C 211.935,215.918 217.269,211.252 221.5,205C 207.855,196.18 193.855,188.013 179.5,180.5 Z M 165.5,182.5 C 164.957,183.742 164.623,185.075 164.5,186.5C 166.109,202.146 167.443,217.812 168.5,233.5C 177.603,232.799 186.269,230.466 194.5,226.5C 185.307,211.425 175.64,196.759 165.5,182.5 Z M 147.5,186.5 C 141.244,200.178 134.578,213.678 127.5,227C 137.431,231.233 147.764,233.733 158.5,234.5C 157.002,218.852 155.668,203.186 154.5,187.5C 152.05,187.702 149.717,187.369 147.5,186.5 Z"/></g>
<g><path style="opacity:1" fill="#a47e1e" d="M 280.5,76.5 C 282.337,76.6395 282.67,77.3061 281.5,78.5C 280.702,78.0431 280.369,77.3764 280.5,76.5 Z"/></g>
<g><path style="opacity:1" fill="#000000" d="M 162.5,78.5 C 168.158,77.6794 169.825,79.846 167.5,85C 161.741,86.1387 160.074,83.972 162.5,78.5 Z"/></g>
<g><path style="opacity:1" fill="#c2c3c2" d="M 163.5,80.5 C 164.5,80.5 165.5,80.5 166.5,80.5C 166.5,81.5 166.5,82.5 166.5,83.5C 165.5,83.5 164.5,83.5 163.5,83.5C 163.5,82.5 163.5,81.5 163.5,80.5 Z"/></g>
<g><path style="opacity:1" fill="#000000" d="M 175.5,88.5 C 174.507,83.3248 176.507,81.4914 181.5,83C 183.439,86.6892 182.439,89.0226 178.5,90C 184.81,91.819 190.143,95.1524 194.5,100C 206.918,104.082 216.752,111.582 224,122.5C 226.19,128.367 228.857,134.034 232,139.5C 236.561,149.732 238.561,160.398 238,171.5C 237.156,179.586 235.823,187.586 234,195.5C 227.656,207.321 219.49,217.821 209.5,227C 198.837,232.499 187.837,237.166 176.5,241C 147.11,246.24 121.443,238.906 99.5,219C 94.6667,214.167 89.8333,209.333 85,204.5C 80.2107,194.132 76.2107,183.466 73,172.5C 71.9017,160.711 72.5684,149.044 75,137.5C 79.0542,127.68 84.0542,118.347 90,109.5C 93.8826,105.95 98.0493,102.783 102.5,100C 108.602,96.1096 114.935,92.4429 121.5,89C 123.788,88.1779 126.122,87.5112 128.5,87C 144.226,86.09 159.893,86.59 175.5,88.5 Z M 130.5,141.5 C 121.952,128.613 112.619,116.279 102.5,104.5C 94.9006,108.846 89.2339,115.013 85.5,123C 100.403,129.466 115.403,135.633 130.5,141.5 Z M 137.5,119.5 C 139.321,123.125 141.655,126.458 144.5,129.5C 145.646,128.855 146.646,128.022 147.5,127C 145.431,122.8 142.097,120.3 137.5,119.5 Z M 80.5,132.5 C 76.6495,141.757 74.9828,151.423 75.5,161.5C 95.4936,159.401 115.494,157.234 135.5,155C 117.141,147.485 98.8076,139.985 80.5,132.5 Z M 195.5,143.5 C 192.067,146.059 188.401,148.392 184.5,150.5C 190.097,152.908 195.763,153.074 201.5,151C 200.206,148.913 199.039,146.746 198,144.5C 197.329,143.748 196.496,143.414 195.5,143.5 Z M 210.5,148.5 C 210.369,149.239 210.536,149.906 211,150.5C 214.41,149.126 214.243,148.459 210.5,148.5 Z M 127.5,167.5 C 111.335,169.091 95.0013,170.424 78.5,171.5C 79.6999,180.444 83.0332,188.444 88.5,195.5C 103.843,186.496 119.176,177.496 134.5,168.5C 132.257,167.526 129.924,167.192 127.5,167.5 Z M 213.5,170.5 C 207.38,172.078 201.046,173.245 194.5,174C 205.5,180.5 216.5,187 227.5,193.5C 232.567,187.136 234.9,179.802 234.5,171.5C 227.529,170.71 220.529,170.377 213.5,170.5 Z M 136.5,178.5 C 123.07,187.413 109.737,196.58 96.5,206C 102.478,213.152 109.478,218.985 117.5,223.5C 125.331,210.15 132.998,196.65 140.5,183C 138.93,181.603 137.596,180.103 136.5,178.5 Z M 179.5,180.5 C 187.92,193.434 196.586,206.268 205.5,219C 211.935,215.918 217.269,211.252 221.5,205C 207.855,196.18 193.855,188.013 179.5,180.5 Z M 165.5,182.5 C 164.957,183.742 164.623,185.075 164.5,186.5C 166.109,202.146 167.443,217.812 168.5,233.5C 177.603,232.799 186.269,230.466 194.5,226.5C 185.307,211.425 175.64,196.759 165.5,182.5 Z M 147.5,186.5 C 141.244,200.178 134.578,213.678 127.5,227C 137.431,231.233 147.764,233.733 158.5,234.5C 157.002,218.852 155.668,203.186 154.5,187.5C 152.05,187.702 149.717,187.369 147.5,186.5 Z"/></g>
<g><path style="opacity:1" fill="#c2c3c2" d="M 177.5,84.5 C 178.5,84.5 179.5,84.5 180.5,84.5C 180.5,85.5 180.5,86.5 180.5,87.5C 179.5,87.5 178.5,87.5 177.5,87.5C 177.5,86.5 177.5,85.5 177.5,84.5 Z"/></g>
<g><path style="opacity:1" fill="#b7b895" d="M 148.5,88.5 C 150.197,90.3052 151.03,92.6385 151,95.5C 152.668,111.173 154.001,126.84 155,142.5C 152.669,124.515 150.502,106.515 148.5,88.5 Z"/></g>
<g><path style="opacity:1" fill="#646459" d="M 130.5,89.5 C 135.5,89.5 140.5,89.5 145.5,89.5C 146.927,101.508 148.094,113.508 149,125.5C 147.294,123.295 145.794,120.962 144.5,118.5C 137.342,115.503 130.009,113.003 122.5,111C 120.874,108.372 118.874,106.039 116.5,104C 117.757,100.476 119.09,96.976 120.5,93.5C 123.865,91.9409 127.198,90.6076 130.5,89.5 Z"/></g>
<g><path style="opacity:1" fill="#6d6e61" d="M 153.5,89.5 C 154.978,89.238 156.311,89.5713 157.5,90.5C 158.54,92.3749 160.04,93.7082 162,94.5C 164.553,93.7771 166.72,92.4438 168.5,90.5C 175.345,92.0023 181.678,94.669 187.5,98.5C 186.333,100.167 185.167,101.833 184,103.5C 176.96,100.542 169.794,97.8751 162.5,95.5C 161.558,95.6082 160.725,95.9415 160,96.5C 158.999,99.1732 157.499,101.507 155.5,103.5C 154.57,98.8628 153.903,94.1962 153.5,89.5 Z"/></g>
<g><path style="opacity:1" fill="#a47e1e" d="M 159.5,90.5 C 161.288,89.3775 163.288,89.2109 165.5,90C 163.663,93.1019 161.663,93.2686 159.5,90.5 Z"/></g>
<g><path style="opacity:1" fill="#b7b895" d="M 256.5,93.5 C 261.167,93.5 265.833,93.5 270.5,93.5C 270.932,99.0037 270.265,104.337 268.5,109.5C 266.477,110.54 264.477,111.54 262.5,112.5C 259.353,111.186 257.02,109.019 255.5,106C 256.329,101.874 256.663,97.7071 256.5,93.5 Z"/></g>
<g><path style="opacity:1" fill="#b97a56" d="M 161.5,97.5 C 168.642,99.7699 175.642,102.437 182.5,105.5C 179.375,110.249 176.375,115.083 173.5,120C 167.661,119.448 161.995,117.948 156.5,115.5C 155.167,112.167 155.167,108.833 156.5,105.5C 158.977,103.353 160.644,100.686 161.5,97.5 Z"/></g>
<g><path style="opacity:1" fill="#c2c3c2" d="M 90.5,99.5 C 91.5,99.5 92.5,99.5 93.5,99.5C 93.5,100.5 93.5,101.5 93.5,102.5C 92.5,102.5 91.5,102.5 90.5,102.5C 90.5,101.5 90.5,100.5 90.5,99.5 Z"/></g>
<g><path style="opacity:1" fill="#b7b895" d="M 190.5,99.5 C 192.914,100.777 193.081,102.443 191,104.5C 182.388,117.445 173.388,130.111 164,142.5C 163.333,141.833 163.333,141.167 164,140.5C 173.353,127.117 182.186,113.45 190.5,99.5 Z"/></g>
<g><path style="opacity:1" fill="#000000" d="M 259.5,99.5 C 265.158,98.6794 266.825,100.846 264.5,106C 258.741,107.139 257.074,104.972 259.5,99.5 Z"/></g>
<g><path style="opacity:1" fill="#b7b895" d="M 138.5,147.5 C 138.392,145.217 137.559,143.217 136,141.5C 125.833,128 115.667,114.5 105.5,101C 107.701,100.175 109.534,100.675 111,102.5C 122.5,116 134,129.5 145.5,143C 142.855,144.044 140.522,145.544 138.5,147.5 Z"/></g>
<g><path style="opacity:1" fill="#c2c3c2" d="M 260.5,101.5 C 261.5,101.5 262.5,101.5 263.5,101.5C 263.5,102.5 263.5,103.5 263.5,104.5C 262.5,104.5 261.5,104.5 260.5,104.5C 260.5,103.5 260.5,102.5 260.5,101.5 Z"/></g>
<g><path style="opacity:1" fill="#b87a56" d="M 191.5,109.5 C 196.23,109.525 198.896,111.858 199.5,116.5C 197.64,120.083 195.973,123.749 194.5,127.5C 193.833,127.833 193.167,128.167 192.5,128.5C 188.684,127.286 185.018,125.786 181.5,124C 185.054,119.286 188.387,114.453 191.5,109.5 Z"/></g>
<g><path style="opacity:1" fill="#795f47" d="M 268.5,111.5 C 275.716,110.688 277.716,113.355 274.5,119.5C 268.351,121.7 265.518,119.7 266,113.5C 266.995,112.934 267.828,112.267 268.5,111.5 Z"/></g>
<g><path style="opacity:1" fill="#c2c3c2" d="M 79.5,112.5 C 80.5,112.5 81.5,112.5 82.5,112.5C 82.5,113.5 82.5,114.5 82.5,115.5C 81.5,115.5 80.5,115.5 79.5,115.5C 79.5,114.5 79.5,113.5 79.5,112.5 Z"/></g>
<g><path style="opacity:1" fill="#796046" d="M 277.5,112.5 C 280.187,112.336 282.854,112.503 285.5,113C 286.337,114.011 286.67,115.178 286.5,116.5C 283.859,117.263 281.192,117.43 278.5,117C 277.62,115.644 277.286,114.144 277.5,112.5 Z"/></g>
<g><path style="opacity:1" fill="#59593d" d="M 194.5,104.5 C 201.55,106.192 207.55,109.692 212.5,115C 211.5,115.333 210.5,115.667 209.5,116C 212.715,116.274 215.381,117.607 217.5,120C 210.5,123.833 203.5,127.667 196.5,131.5C 196.167,131.167 195.833,130.833 195.5,130.5C 196.942,127.95 198.108,125.284 199,122.5C 199.75,121.874 200.584,121.374 201.5,121C 201.461,118.703 201.128,116.37 200.5,114C 201.167,113.667 201.833,113.333 202.5,113C 200.02,110.257 197.02,108.257 193.5,107C 194.252,106.329 194.586,105.496 194.5,104.5 Z"/></g>
<g><path style="opacity:1" fill="#796046" d="M 260.5,114.5 C 261.833,114.5 263.167,114.5 264.5,114.5C 264.5,115.5 264.5,116.5 264.5,117.5C 261.784,117.322 259.117,116.822 256.5,116C 258.058,115.79 259.391,115.29 260.5,114.5 Z"/></g>
<g><path style="opacity:1" fill="#5e5f40" d="M 126.5,115.5 C 128.117,116.038 129.784,116.371 131.5,116.5C 134.959,122.527 139.292,128.027 144.5,133C 146.745,132.805 148.578,131.638 150,129.5C 151.498,133.729 150.331,136.729 146.5,138.5C 139.59,132.421 133.09,125.755 127,118.5C 126.517,117.552 126.351,116.552 126.5,115.5 Z"/></g>
<g><path style="opacity:1" fill="#45463b" d="M 156.5,118.5 C 161.571,119.69 166.571,121.19 171.5,123C 169.5,126 167.5,129 165.5,132C 163.109,132.287 160.776,132.787 158.5,133.5C 157.259,128.575 156.593,123.575 156.5,118.5 Z"/></g>
<g><path style="opacity:1" fill="#b7b895" d="M 219.5,122.5 C 221.973,122.604 222.639,123.604 221.5,125.5C 206.672,133.413 192.005,141.58 177.5,150C 175.926,150.699 174.593,150.365 173.5,149C 189.002,140.303 204.335,131.47 219.5,122.5 Z"/></g>
<g><path style="opacity:1" fill="#796046" d="M 268.5,125.5 C 268.856,124.13 269.69,123.13 271,122.5C 272.853,124.685 275.02,126.518 277.5,128C 276.892,128.87 276.059,129.37 275,129.5C 272.429,128.75 270.262,127.417 268.5,125.5 Z"/></g>
<g><path style="opacity:1" fill="#c1c1c1" d="M 221.5,91.5 C 222.601,90.4017 223.934,90.235 225.5,91C 229.543,95.3414 234.21,98.6748 239.5,101C 242.138,104.975 245.805,107.308 250.5,108C 252.208,110.043 254.208,111.71 256.5,113C 253.766,113.718 253.1,115.218 254.5,117.5C 257.748,118.645 261.081,119.479 264.5,120C 265.5,120.833 266.5,121.667 267.5,122.5C 262.56,124.304 257.893,126.637 253.5,129.5C 257.835,132.336 262.501,134.503 267.5,136C 266.437,137.188 265.103,137.688 263.5,137.5C 261.506,145.314 259.006,152.981 256,160.5C 255.383,155.462 254.549,150.462 253.5,145.5C 250.437,135.521 247.604,125.855 245,116.5C 241.462,113.969 239.128,110.636 238,106.5C 232.931,100.927 227.431,95.9265 221.5,91.5 Z"/></g>
<g><path style="opacity:1" fill="#796046" d="M 268.5,125.5 C 270.077,129.622 273.077,131.122 277.5,130C 279.751,128.742 281.751,129.409 283.5,132C 280.774,134.03 277.774,135.53 274.5,136.5C 268.972,134.549 263.639,132.215 258.5,129.5C 261.4,127.049 264.734,125.715 268.5,125.5 Z"/></g>
<g><path style="opacity:1" fill="#b7b895" d="M 138.5,147.5 C 138.778,149.346 138.111,150.68 136.5,151.5C 118.167,144 99.8333,136.5 81.5,129C 81.9981,127.842 82.8315,127.009 84,126.5C 100.557,133.195 117.057,140.029 133.5,147C 135.134,147.494 136.801,147.66 138.5,147.5 Z"/></g>
<g><path style="opacity:1" fill="#45463b" d="M 179.5,126.5 C 183.67,127.502 187.67,129.002 191.5,131C 187.603,134.531 183.436,137.697 179,140.5C 177.442,138.641 175.609,137.141 173.5,136C 175.636,132.89 177.636,129.723 179.5,126.5 Z"/></g>
<g><path style="opacity:1" fill="#5c5c3f" d="M 220.5,129.5 C 221.496,129.414 222.329,129.748 223,130.5C 228.12,138.207 231.453,146.541 233,155.5C 222.934,149.717 212.434,144.884 201.5,141C 207.897,137.141 214.23,133.308 220.5,129.5 Z"/></g>
<g><path style="opacity:1" fill="#000000" d="M 235.5,133.5 C 241.158,132.679 242.825,134.846 240.5,140C 234.741,141.139 233.074,138.972 235.5,133.5 Z"/></g>
<g><path style="opacity:1" fill="#a0a084" d="M 303.5,142.5 C 311.128,146.153 318.795,149.486 326.5,152.5C 339.12,159.23 351.954,165.896 365,172.5C 367.041,171.577 369.208,171.244 371.5,171.5C 371.421,172.93 371.754,174.264 372.5,175.5C 370.162,177.049 370.662,178.049 374,178.5C 375.439,176.079 376.939,176.079 378.5,178.5C 382.334,179.035 383.001,180.535 380.5,183C 381.448,183.483 382.448,183.649 383.5,183.5C 383.351,182.448 383.517,181.448 384,180.5C 385.419,181.46 386.919,182.293 388.5,183C 387.167,184 387.167,185 388.5,186C 389.745,186.791 391.078,187.291 392.5,187.5C 395.842,190.268 399.342,192.934 403,195.5C 403.5,196.5 404,197.5 404.5,198.5C 404.043,199.298 403.376,199.631 402.5,199.5C 401.547,197.39 399.881,196.223 397.5,196C 398.167,195.667 398.833,195.333 399.5,195C 359.597,178.049 318.597,159.883 276.5,140.5C 275.167,139.833 275.167,139.167 276.5,138.5C 279.661,137.087 282.661,135.42 285.5,133.5C 290.964,137.565 296.964,140.565 303.5,142.5 Z"/></g>
<g><path style="opacity:1" fill="#45463b" d="M 160.5,134.5 C 161.552,134.351 162.552,134.517 163.5,135C 161.623,137.251 160.123,139.751 159,142.5C 158.133,139.479 158.633,136.812 160.5,134.5 Z"/></g>
<g><path style="opacity:1" fill="#c2c3c2" d="M 236.5,135.5 C 237.5,135.5 238.5,135.5 239.5,135.5C 239.5,136.5 239.5,137.5 239.5,138.5C 238.5,138.5 237.5,138.5 236.5,138.5C 236.5,137.5 236.5,136.5 236.5,135.5 Z"/></g>
<g><path style="opacity:1" fill="#c2c3c2" d="M 269.5,137.5 C 270.922,137.709 272.255,138.209 273.5,139C 270.671,145.483 267.837,151.983 265,158.5C 263.078,161.089 260.911,161.589 258.5,160C 260.859,153.925 263.025,147.759 265,141.5C 266.25,139.807 267.75,138.473 269.5,137.5 Z"/></g>
<g><path style="opacity:1" fill="#45463b" d="M 171.5,138.5 C 173.903,138.695 175.57,139.862 176.5,142C 174.71,143.734 172.71,145.234 170.5,146.5C 169.328,146.081 168.328,145.415 167.5,144.5C 168.844,142.471 170.177,140.471 171.5,138.5 Z"/></g>
<g><path style="opacity:1" fill="#c2c3c2" d="M 326.5,152.5 C 318.795,149.486 311.128,146.153 303.5,142.5C 304.184,140.815 305.517,139.815 307.5,139.5C 314.732,144.177 322.399,148.344 330.5,152C 329.207,152.49 327.873,152.657 326.5,152.5 Z"/></g>
<g><path style="opacity:1" fill="#adad8d" d="M 342.5,178.5 C 341.551,180.777 340.218,182.777 338.5,184.5C 337.778,184.918 337.278,185.584 337,186.5C 329.264,183.142 321.43,179.976 313.5,177C 314.5,176.667 315.5,176.333 316.5,176C 300.277,169.813 283.944,163.813 267.5,158C 268.047,157.075 268.713,156.242 269.5,155.5C 274.976,157.935 280.476,160.268 286,162.5C 286.688,161.668 286.521,161.002 285.5,160.5C 280.5,158.333 275.5,156.167 270.5,154C 269.304,153.346 269.304,152.846 270.5,152.5C 279.627,156.578 288.96,159.745 298.5,162C 289.977,158.241 281.31,154.741 272.5,151.5C 271.584,148.273 272.25,145.273 274.5,142.5C 296.683,153.09 319.016,163.424 341.5,173.5C 342.452,175.045 342.785,176.712 342.5,178.5 Z"/></g>
<g><path style="opacity:1" fill="#b7b895" d="M 149.5,143.5 C 159.636,142.826 168.136,146.16 175,153.5C 178.277,159.472 178.277,165.472 175,171.5C 176.278,160.766 171.778,153.599 161.5,150C 150.466,147.767 142.3,151.6 137,161.5C 136.333,160.167 136.333,158.833 137,157.5C 138.076,154.352 139.409,151.352 141,148.5C 143.97,146.916 146.803,145.249 149.5,143.5 Z"/></g>
<g><path style="opacity:1" fill="#5e5f40" d="M 202.5,146.5 C 203.209,145.596 204.209,145.263 205.5,145.5C 207.981,154.343 206.981,154.676 202.5,146.5 Z"/></g>
<g><path style="opacity:1" fill="#000000" d="M 240.5,147.5 C 246.158,146.679 247.825,148.846 245.5,154C 239.741,155.139 238.074,152.972 240.5,147.5 Z"/></g>
<g><path style="opacity:1" fill="#c2c3c2" d="M 241.5,149.5 C 242.5,149.5 243.5,149.5 244.5,149.5C 244.5,150.5 244.5,151.5 244.5,152.5C 243.5,152.5 242.5,152.5 241.5,152.5C 241.5,151.5 241.5,150.5 241.5,149.5 Z"/></g>
<g><path style="opacity:1" fill="#c2c3c2" d="M 251.5,179.5 C 251.626,174.989 251.96,170.489 252.5,166C 251.867,160.453 251.367,154.953 251,149.5C 252.37,157.251 253.87,164.918 255.5,172.5C 254.108,174.869 252.775,177.203 251.5,179.5 Z"/></g>
<g><path style="opacity:1" fill="#5e5f40" d="M 216.5,150.5 C 222.193,152.179 227.526,154.679 232.5,158C 231.069,158.465 229.903,159.299 229,160.5C 214.236,159.319 199.403,158.319 184.5,157.5C 181.443,157.607 179.109,156.44 177.5,154C 178.416,153.626 179.25,153.126 180,152.5C 187.867,155.989 195.867,156.322 204,153.5C 207.111,154.293 210.277,154.126 213.5,153C 214.942,152.623 215.942,151.79 216.5,150.5 Z"/></g>
<g><path style="opacity:1" fill="#5e5f40" d="M 150.5,152.5 C 159.363,150.07 166.53,152.737 172,160.5C 172.667,164.833 172.667,169.167 172,173.5C 171.592,159.592 164.426,152.592 150.5,152.5 Z"/></g>
<g><path style="opacity:1" fill="#5e5f40" d="M 149.5,154.5 C 162.877,154.045 169.377,160.379 169,173.5C 164.644,183.594 157.144,187.094 146.5,184C 145.027,183.29 144.36,182.124 144.5,180.5C 141.192,181.026 139.026,179.693 138,176.5C 135.067,165.606 138.9,158.273 149.5,154.5 Z"/></g>
<g><path style="opacity:1" fill="#b7b895" d="M 130.5,158.5 C 131.833,158.5 133.167,158.5 134.5,158.5C 134.5,160.5 134.5,162.5 134.5,164.5C 114.497,165.789 94.4966,167.122 74.5,168.5C 74.5,167.167 74.5,165.833 74.5,164.5C 93.35,162.883 112.017,160.883 130.5,158.5 Z"/></g>
<g><path style="opacity:1" fill="#000000" d="M 149.5,158.5 C 160.473,158.305 165.306,163.639 164,174.5C 160.501,181.835 155.001,184.002 147.5,181C 139.06,172.69 139.726,165.19 149.5,158.5 Z"/></g>
<g><path style="opacity:1" fill="#49483d" d="M 63.5,159.5 C 64.8333,159.5 66.1667,159.5 67.5,159.5C 67.5,160.5 67.5,161.5 67.5,162.5C 66.1667,162.5 64.8333,162.5 63.5,162.5C 63.5,161.5 63.5,160.5 63.5,159.5 Z"/></g>
<g><path style="opacity:1" fill="#a47e1e" d="M 150.5,160.5 C 160.17,161.321 163.67,166.321 161,175.5C 152.667,183.097 146.833,181.43 143.5,170.5C 144.288,166.052 146.621,162.718 150.5,160.5 Z"/></g>
<g><path style="opacity:1" fill="#b7b895" d="M 179.5,160.5 C 198.497,161.535 217.497,162.535 236.5,163.5C 236.5,165.167 236.5,166.833 236.5,168.5C 217.518,166.779 198.518,165.113 179.5,163.5C 179.5,162.5 179.5,161.5 179.5,160.5 Z"/></g>
<g><path style="opacity:1" fill="#5e5f40" d="M 184.5,168.5 C 185.964,167.84 187.631,167.507 189.5,167.5C 194.83,168.03 200.164,168.53 205.5,169C 198.379,171.064 191.379,170.897 184.5,168.5 Z"/></g>
<g><path style="opacity:1" fill="#000000" d="M 313.5,167.5 C 314.043,167.56 314.376,167.893 314.5,168.5C 313.277,169.614 311.944,169.781 310.5,169C 311.737,168.768 312.737,168.268 313.5,167.5 Z"/></g>
<g><path style="opacity:1" fill="#b7b895" d="M 178.5,168.5 C 194.742,178.54 211.242,188.207 228,197.5C 229.162,196.813 230.328,196.647 231.5,197C 229.542,199.748 227.709,202.582 226,205.5C 225.691,204.234 225.191,203.067 224.5,202C 208.5,192.667 192.5,183.333 176.5,174C 177.861,172.416 178.528,170.582 178.5,168.5 Z"/></g>
<g><path style="opacity:1" fill="#b7b895" d="M 133.5,172.5 C 134.954,173.52 135.287,174.687 134.5,176C 119.195,185.562 104.362,195.729 90,206.5C 88.8333,205.333 87.6667,204.167 86.5,203C 89.1667,200.667 91.8333,198.333 94.5,196C 107.896,188.644 120.896,180.81 133.5,172.5 Z"/></g>
<g><path style="opacity:1" fill="#b7b7b7" d="M 363.5,184.5 C 361.796,187.256 360.463,190.256 359.5,193.5C 355.681,194.775 352.014,194.275 348.5,192C 345.95,190.558 343.284,189.392 340.5,188.5C 339.295,187.423 338.628,186.09 338.5,184.5C 340.218,182.777 341.551,180.777 342.5,178.5C 343.29,177.391 343.79,176.058 344,174.5C 350.796,177.48 357.296,180.813 363.5,184.5 Z"/></g>
<g><path style="opacity:1" fill="#000000" d="M 65.5,177.5 C 71.1581,176.679 72.8248,178.846 70.5,184C 64.741,185.139 63.0744,182.972 65.5,177.5 Z"/></g>
<g><path style="opacity:1" fill="#000000" d="M 378.5,178.5 C 377.998,180.085 376.998,180.585 375.5,180C 376.244,178.961 377.244,178.461 378.5,178.5 Z"/></g>
<g><path style="opacity:1" fill="#c2c3c2" d="M 66.5,179.5 C 67.5,179.5 68.5,179.5 69.5,179.5C 69.5,180.5 69.5,181.5 69.5,182.5C 68.5,182.5 67.5,182.5 66.5,182.5C 66.5,181.5 66.5,180.5 66.5,179.5 Z"/></g>
<g><path style="opacity:1" fill="#b7b895" d="M 172.5,179.5 C 175.098,181.304 177.265,183.638 179,186.5C 187.333,198.833 195.667,211.167 204,223.5C 205.399,224.227 206.899,224.727 208.5,225C 205.588,226.373 202.754,227.873 200,229.5C 190.846,213.862 181.179,198.529 171,183.5C 170.7,181.934 171.2,180.601 172.5,179.5 Z"/></g>
<g><path style="opacity:1" fill="#c2c3c2" d="M 251.5,179.5 C 251.466,182.199 252.133,184.699 253.5,187C 251.622,188.543 250.122,190.376 249,192.5C 249.14,187.969 249.973,183.635 251.5,179.5 Z"/></g>
<g><path style="opacity:1" fill="#9b9b7f" d="M 363.5,184.5 C 375.002,188.837 386.335,193.671 397.5,199C 396.263,199.232 395.263,199.732 394.5,200.5C 394.5,201.833 394.5,203.167 394.5,204.5C 394.167,205.167 393.833,205.833 393.5,206.5C 391.345,206.628 389.345,206.128 387.5,205C 388.604,203.869 388.271,203.035 386.5,202.5C 385.707,202.931 384.873,203.265 384,203.5C 380.886,202.026 377.719,200.693 374.5,199.5C 372.14,201.305 370.473,200.805 369.5,198C 366.185,196.17 362.851,194.67 359.5,193.5C 360.463,190.256 361.796,187.256 363.5,184.5 Z"/></g>
<g><path style="opacity:1" fill="#b7b895" d="M 142.5,185.5 C 143.239,185.369 143.906,185.536 144.5,186C 136.579,201.008 129.079,216.174 122,231.5C 121.25,230.874 120.416,230.374 119.5,230C 127.05,215.066 134.716,200.233 142.5,185.5 Z"/></g>
<g><path style="opacity:1" fill="#b7b895" d="M 160.5,185.5 C 162.877,203.648 164.877,221.981 166.5,240.5C 165.167,240.5 163.833,240.5 162.5,240.5C 160.503,222.536 158.836,204.536 157.5,186.5C 158.791,186.737 159.791,186.404 160.5,185.5 Z"/></g>
<g><path style="opacity:1" fill="#262626" d="M 423.5,204.5 C 422.694,205.997 422.028,207.664 421.5,209.5C 415.577,210.475 410.244,208.975 405.5,205C 401.333,203.833 399.833,205.333 401,209.5C 403.235,211.202 405.735,212.202 408.5,212.5C 412.066,213.903 415.733,214.903 419.5,215.5C 409.344,217.029 400.011,215.029 391.5,209.5C 392.193,208.482 392.859,207.482 393.5,206.5C 393.833,205.833 394.167,205.167 394.5,204.5C 395.833,204.5 397.167,204.5 398.5,204.5C 399.128,202.338 400.461,200.672 402.5,199.5C 403.376,199.631 404.043,199.298 404.5,198.5C 404,197.5 403.5,196.5 403,195.5C 399.342,192.934 395.842,190.268 392.5,187.5C 392.735,186.903 393.235,186.57 394,186.5C 397.225,187.408 400.225,188.741 403,190.5C 404.599,188.944 406.099,187.277 407.5,185.5C 410.448,187.277 412.448,189.777 413.5,193C 421.521,193.168 429.521,193.668 437.5,194.5C 440.861,198.272 444.528,198.438 448.5,195C 452.887,194.774 457.221,194.274 461.5,193.5C 463.149,194.648 464.649,195.981 466,197.5C 471.514,197.249 471.68,195.749 466.5,193C 471.288,193.098 472.621,195.431 470.5,200C 468.5,200.667 466.5,200.667 464.5,200C 462.361,198.596 460.028,197.763 457.5,197.5C 455.681,197.342 454.348,198.009 453.5,199.5C 443.183,200.332 432.849,200.832 422.5,201C 423.337,202.011 423.67,203.178 423.5,204.5 Z"/></g>
<g><path style="opacity:1" fill="#000000" d="M 69.5,194.5 C 68.6794,188.842 70.846,187.175 76,189.5C 77.1387,195.259 74.972,196.926 69.5,194.5 Z"/></g>
<g><path style="opacity:1" fill="#c2c3c2" d="M 71.5,190.5 C 72.5,190.5 73.5,190.5 74.5,190.5C 74.5,191.5 74.5,192.5 74.5,193.5C 73.5,193.5 72.5,193.5 71.5,193.5C 71.5,192.5 71.5,191.5 71.5,190.5 Z"/></g>
<g><path style="opacity:1" fill="#c2c3c2" d="M 394.5,200.5 C 395.833,200.5 397.167,200.5 398.5,200.5C 398.5,201.833 398.5,203.167 398.5,204.5C 397.167,204.5 395.833,204.5 394.5,204.5C 394.5,203.167 394.5,201.833 394.5,200.5 Z"/></g>
<g><path style="opacity:1" fill="#c2c3c2" d="M 419.5,215.5 C 423.886,214.06 428.219,212.727 432.5,211.5C 433.801,210.116 433.801,208.616 432.5,207C 430.613,206.22 428.946,206.387 427.5,207.5C 426.292,208.234 424.959,208.567 423.5,208.5C 423.5,207.167 423.5,205.833 423.5,204.5C 432.756,203.362 442.089,203.195 451.5,204C 442.729,213.376 432.062,217.209 419.5,215.5 Z"/></g>
<g><path style="opacity:1" fill="#000000" d="M 423.5,204.5 C 423.5,205.833 423.5,207.167 423.5,208.5C 424.959,208.567 426.292,208.234 427.5,207.5C 427.5,208.833 427.5,210.167 427.5,211.5C 429.167,211.5 430.833,211.5 432.5,211.5C 428.219,212.727 423.886,214.06 419.5,215.5C 415.733,214.903 412.066,213.903 408.5,212.5C 405.735,212.202 403.235,211.202 401,209.5C 399.833,205.333 401.333,203.833 405.5,205C 410.244,208.975 415.577,210.475 421.5,209.5C 422.028,207.664 422.694,205.997 423.5,204.5 Z"/></g>
<g><path style="opacity:1" fill="#c2c3c2" d="M 408.5,212.5 C 406.941,210.376 404.941,208.709 402.5,207.5C 402.833,207.167 403.167,206.833 403.5,206.5C 406.329,207.747 408.995,209.247 411.5,211C 416.338,211.354 421.005,211.52 425.5,211.5C 423.293,213.029 420.793,213.695 418,213.5C 414.814,213.256 411.647,212.923 408.5,212.5 Z"/></g>
<g><path style="opacity:1" fill="#5e5f40" d="M 91.5,208.5 C 91.8966,207.475 92.5632,207.308 93.5,208C 99.2055,213.822 105.205,219.156 111.5,224C 113.67,225.586 116.004,226.92 118.5,228C 118,228.5 117.5,229 117,229.5C 114.094,226.963 110.927,224.796 107.5,223C 101.844,218.518 96.5103,213.684 91.5,208.5 Z"/></g>
<g><path style="opacity:1" fill="#8a8a8a" d="M 432.5,211.5 C 430.833,211.5 429.167,211.5 427.5,211.5C 427.5,210.167 427.5,208.833 427.5,207.5C 428.946,206.387 430.613,206.22 432.5,207C 433.801,208.616 433.801,210.116 432.5,211.5 Z"/></g>
<g><path style="opacity:1" fill="#000000" d="M 224.5,213.5 C 230.158,212.679 231.825,214.846 229.5,220C 223.741,221.139 222.074,218.972 224.5,213.5 Z"/></g>
<g><path style="opacity:1" fill="#c2c3c2" d="M 225.5,215.5 C 226.5,215.5 227.5,215.5 228.5,215.5C 228.5,216.5 228.5,217.5 228.5,218.5C 227.5,218.5 226.5,218.5 225.5,218.5C 225.5,217.5 225.5,216.5 225.5,215.5 Z"/></g>
<g><path style="opacity:1" fill="#c2c3c2" d="M 214.5,227.5 C 215.5,227.5 216.5,227.5 217.5,227.5C 217.5,228.5 217.5,229.5 217.5,230.5C 216.5,230.5 215.5,230.5 214.5,230.5C 214.5,229.5 214.5,228.5 214.5,227.5 Z"/></g>
<g><path style="opacity:1" fill="#5e5f40" d="M 194.5,229.5 C 195.552,229.351 196.552,229.517 197.5,230C 188.55,235.481 178.883,238.648 168.5,239.5C 168.5,238.5 168.5,237.5 168.5,236.5C 171.91,236.543 175.243,236.043 178.5,235C 183.851,232.846 189.184,231.013 194.5,229.5 Z"/></g>
<g><path style="opacity:1" fill="#5e5f40" d="M 125.5,230.5 C 131.844,232.225 138.178,234.058 144.5,236C 149.793,236.977 155.126,237.477 160.5,237.5C 160.5,238.5 160.5,239.5 160.5,240.5C 148.246,240.57 136.58,238.07 125.5,233C 124.402,232.23 124.402,231.397 125.5,230.5 Z"/></g>
<g><path style="opacity:1" fill="#000000" d="M 127.5,239.5 C 133.158,238.679 134.825,240.846 132.5,246C 126.741,247.139 125.074,244.972 127.5,239.5 Z"/></g>
<g><path style="opacity:1" fill="#c2c3c2" d="M 128.5,241.5 C 129.5,241.5 130.5,241.5 131.5,241.5C 131.5,242.5 131.5,243.5 131.5,244.5C 130.5,244.5 129.5,244.5 128.5,244.5C 128.5,243.5 128.5,242.5 128.5,241.5 Z"/></g>
<g><path style="opacity:1" fill="#000000" d="M 146.5,243.5 C 152.158,242.679 153.825,244.846 151.5,250C 145.741,251.139 144.074,248.972 146.5,243.5 Z"/></g>
<g><path style="opacity:1" fill="#c2c3c2" d="M 147.5,245.5 C 148.5,245.5 149.5,245.5 150.5,245.5C 150.5,246.5 150.5,247.5 150.5,248.5C 149.5,248.5 148.5,248.5 147.5,248.5C 147.5,247.5 147.5,246.5 147.5,245.5 Z"/></g>
</svg>
