<?xml version="1.0" encoding="UTF-8"?>
<!DOCTYPE svg PUBLIC "-//W3C//DTD SVG 1.1//EN" "http://www.w3.org/Graphics/SVG/1.1/DTD/svg11.dtd">
<svg xmlns="http://www.w3.org/2000/svg" version="1.1" width="495px" height="495px" style="shape-rendering:geometricPrecision; text-rendering:geometricPrecision; image-rendering:optimizeQuality; fill-rule:evenodd; clip-rule:evenodd" xmlns:xlink="http://www.w3.org/1999/xlink">
<g><path style="opacity:1" fill="#000000" d="M 317.5,51.5 C 323.499,51.002 325.666,53.6687 324,59.5C 321.64,62.3603 319.473,65.3603 317.5,68.5C 319.17,72.505 320.836,76.505 322.5,80.5C 321.76,82.8937 320.093,84.3937 317.5,85C 318.009,89.0783 320.342,91.0783 324.5,91C 333.934,93.7753 341.268,91.2753 346.5,83.5C 342.627,75.5387 344.96,71.372 353.5,71C 350.549,67.2648 350.882,63.9314 354.5,61C 359.202,60.8283 363.868,60.3283 368.5,59.5C 371.29,55.9532 374.457,55.6198 378,58.5C 379.076,60.0672 379.909,61.7338 380.5,63.5C 379.363,67.107 377.696,70.4404 375.5,73.5C 376.931,76.6259 378.264,79.7926 379.5,83C 377.59,86.0486 375.09,88.5486 372,90.5C 371.167,92.1667 370.333,93.8333 369.5,95.5C 371.71,101.292 369.71,103.959 363.5,103.5C 363.649,104.552 363.483,105.552 363,106.5C 357.84,107.941 355.673,111.108 356.5,116C 356.385,117.895 355.718,119.562 354.5,121C 352.122,121.511 349.788,122.178 347.5,123C 342.575,123.069 337.741,123.236 333,123.5C 330.274,126.286 328.607,129.619 328,133.5C 323.17,137.965 318.67,142.798 314.5,148C 316.513,148.68 317.846,150.013 318.5,152C 316.818,153.895 316.318,156.062 317,158.5C 372.624,213.465 427.624,267.798 482,321.5C 483.591,328.077 481.091,330.244 474.5,328C 458.833,312.333 443.167,296.667 427.5,281C 393.544,274.841 359.544,269.007 325.5,263.5C 336.708,303.366 334.208,342.366 318,380.5C 310.957,398.438 300.123,413.604 285.5,426C 263.345,439.597 242.845,437.431 224,419.5C 211.191,401.278 205.358,380.945 206.5,358.5C 206.368,350.408 207.035,342.408 208.5,334.5C 201.933,332.358 195.266,330.525 188.5,329C 187.54,327.581 186.707,326.081 186,324.5C 185.275,323.941 184.442,323.608 183.5,323.5C 177.527,329.314 172.027,335.647 167,342.5C 141.377,378.913 115.877,415.413 90.5,452C 84.1261,451.546 77.9594,450.046 72,447.5C 68.6397,451.236 66.3064,455.569 65,460.5C 58.6685,467.729 51.3351,469.063 43,464.5C 39.5462,456.405 41.3796,449.905 48.5,445C 51.3272,444.299 53.9938,443.299 56.5,442C 53.2105,441.118 49.8772,440.452 46.5,440C 42.4076,436.251 39.5743,431.751 38,426.5C 31.8042,433.729 25.9709,441.229 20.5,449C 14.4382,451.942 12.2715,450.109 14,443.5C 29.8333,423 45.6667,402.5 61.5,382C 57.6667,379.5 54.5,376.333 52,372.5C 38.9607,350.261 33.9607,326.261 37,300.5C 38.9281,283.187 43.2614,266.52 50,250.5C 54.6667,243.167 59.3333,235.833 64,228.5C 84.7323,202.953 109.899,197.453 139.5,212C 151.501,221.162 159.667,232.995 164,247.5C 205.079,194.49 244.579,142.824 282.5,92.5C 281.737,89.8589 281.57,87.1922 282,84.5C 284.405,83.7256 286.905,83.2256 289.5,83C 283.429,74.2192 285.762,69.3859 296.5,68.5C 294.938,65.3864 295.271,62.553 297.5,60C 302.5,59.6667 307.5,59.3333 312.5,59C 314.389,56.6182 316.055,54.1182 317.5,51.5 Z M 302.5,65.5 C 305.548,65.494 306.048,66.494 304,68.5C 302.961,67.7562 302.461,66.7562 302.5,65.5 Z M 358.5,67.5 C 359.946,66.3871 361.613,66.2204 363.5,67C 361.998,70.0857 360.331,70.2524 358.5,67.5 Z M 292.5,76.5 C 293.251,75.4265 294.251,75.2599 295.5,76C 294.648,77.7284 293.648,77.895 292.5,76.5 Z M 350.5,76.5 C 353.797,76.3287 354.131,76.9954 351.5,78.5C 350.702,78.0431 350.369,77.3764 350.5,76.5 Z M 312.5,100.5 C 319.187,100.669 325.854,101.169 332.5,102C 329.868,104.98 327.035,107.48 324,109.5C 318.461,108.896 312.961,108.063 307.5,107C 309.539,105.074 311.206,102.907 312.5,100.5 Z M 299.5,117.5 C 304.6,117.466 304.766,118.132 300,119.5C 299.167,119.333 298.333,119.167 297.5,119C 298.416,118.722 299.082,118.222 299.5,117.5 Z M 272.5,119.5 C 274.527,119.338 276.527,119.505 278.5,120C 274.835,121.668 272.668,124.501 272,128.5C 268.287,133.424 264.454,138.258 260.5,143C 258.831,143.122 257.165,142.788 255.5,142C 261.792,134.888 267.458,127.388 272.5,119.5 Z M 311.5,120.5 C 313.966,119.366 316.633,119.199 319.5,120C 318.695,121.972 317.361,123.472 315.5,124.5C 314.16,123.133 312.827,121.8 311.5,120.5 Z M 303.5,126.5 C 307.135,126.656 307.468,127.822 304.5,130C 301.187,131.196 297.854,131.863 294.5,132C 296.656,128.597 299.656,126.763 303.5,126.5 Z M 303.5,139.5 C 301.745,142.436 299.745,145.269 297.5,148C 290.856,147.862 284.189,147.695 277.5,147.5C 279.956,142.02 283.289,137.02 287.5,132.5C 288.734,135.304 290.734,137.471 293.5,139C 296.817,139.498 300.15,139.665 303.5,139.5 Z M 251.5,147.5 C 252.601,148.848 253.601,150.348 254.5,152C 252.506,154.827 250.172,157.327 247.5,159.5C 246.354,158.855 245.354,158.022 244.5,157C 247.051,153.956 249.384,150.789 251.5,147.5 Z M 272.5,154.5 C 278.598,154.679 284.598,155.512 290.5,157C 288.835,160.508 286.168,162.674 282.5,163.5C 279.108,163.111 275.775,162.444 272.5,161.5C 270.051,159.027 270.051,156.694 272.5,154.5 Z M 304.5,160.5 C 305.552,160.351 306.552,160.517 307.5,161C 343.167,196.667 378.833,232.333 414.5,268C 383.112,263.324 351.778,257.991 320.5,252C 316.055,242.555 309.221,235.388 300,230.5C 294.402,216.54 288.902,202.54 283.5,188.5C 290.524,179.148 297.524,169.815 304.5,160.5 Z M 237.5,165.5 C 239.196,165.685 240.529,166.519 241.5,168C 240.299,168.903 239.465,170.069 239,171.5C 215.333,201.167 191.667,230.833 168,260.5C 166.77,259.725 166.437,258.725 167,257.5C 191.099,227.242 214.599,196.575 237.5,165.5 Z M 253.5,175.5 C 258.879,176.006 264.213,176.839 269.5,178C 270.357,178.689 271.023,179.522 271.5,180.5C 268.471,185.231 264.971,189.564 261,193.5C 258.061,192.544 255.728,190.877 254,188.5C 251.845,189.244 249.845,190.244 248,191.5C 246.365,191.122 244.865,190.456 243.5,189.5C 247.246,185.094 250.58,180.427 253.5,175.5 Z M 276.5,196.5 C 281.105,206.796 285.438,217.296 289.5,228C 283.86,227.868 278.193,227.701 272.5,227.5C 271.676,221.695 270.009,216.195 267.5,211C 270.296,206.038 273.296,201.205 276.5,196.5 Z M 235.5,198.5 C 239.042,198.38 242.542,198.714 246,199.5C 248.227,201.381 250.727,202.881 253.5,204C 250.121,208.59 246.621,213.09 243,217.5C 236.994,215.497 230.827,213.997 224.5,213C 228.549,208.376 232.215,203.543 235.5,198.5 Z M 261.5,216.5 C 263.672,220.191 265.339,224.191 266.5,228.5C 261.362,232.149 255.696,233.315 249.5,232C 254.098,227.243 258.098,222.076 261.5,216.5 Z M 218.5,220.5 C 224.866,221.434 231.199,222.6 237.5,224C 233.313,230.18 228.479,235.68 223,240.5C 217.221,239.317 211.387,238.65 205.5,238.5C 205.351,237.448 205.517,236.448 206,235.5C 210.378,230.627 214.545,225.627 218.5,220.5 Z M 109.5,223.5 C 111.792,223.244 113.959,223.577 116,224.5C 116.667,232.167 116.667,239.833 116,247.5C 114.615,248.551 113.615,249.884 113,251.5C 108.706,243.746 104.539,235.913 100.5,228C 103.324,225.921 106.324,224.421 109.5,223.5 Z M 132.5,234.5 C 130.833,234.5 129.167,234.5 127.5,234.5C 127.34,232.801 127.506,231.134 128,229.5C 129.707,231.037 131.207,232.704 132.5,234.5 Z M 90.5,233.5 C 93.1046,239.131 95.4379,244.964 97.5,251C 93.3808,253.739 91.2141,257.573 91,262.5C 86.4403,257.611 82.2736,252.445 78.5,247C 81.6387,241.697 85.6387,237.197 90.5,233.5 Z M 199.5,245.5 C 205.196,246.434 210.863,247.601 216.5,249C 212.359,254.776 207.859,260.276 203,265.5C 198.7,257.149 193.867,256.649 188.5,264C 187.167,264.667 185.833,264.667 184.5,264C 189.388,257.711 194.388,251.544 199.5,245.5 Z M 279.5,248.5 C 282.647,248.737 285.647,249.57 288.5,251C 282.872,261.755 277.372,272.589 272,283.5C 273.172,271.466 275.672,259.799 279.5,248.5 Z M 104.5,253.5 C 106.384,253.712 107.717,254.712 108.5,256.5C 106.192,259.975 103.692,263.308 101,266.5C 98.9908,261.355 100.157,257.021 104.5,253.5 Z M 70.5,257.5 C 71.4959,257.414 72.3292,257.748 73,258.5C 78.645,265.646 84.4783,272.646 90.5,279.5C 87.7524,281.993 85.7524,284.993 84.5,288.5C 76.8678,286.234 69.2012,284.067 61.5,282C 63.2328,273.368 66.2328,265.201 70.5,257.5 Z M 297.5,258.5 C 301.56,262.287 303.727,266.954 304,272.5C 297,279.5 290,286.5 283,293.5C 287.321,281.727 292.154,270.06 297.5,258.5 Z M 179.5,271.5 C 180.5,271.5 181.5,271.5 182.5,271.5C 180.693,277.32 181.693,282.654 185.5,287.5C 185,287.833 184.5,288.167 184,288.5C 179.528,287.629 175.028,286.962 170.5,286.5C 170.34,284.801 170.506,283.134 171,281.5C 174.078,278.321 176.912,274.988 179.5,271.5 Z M 190.5,273.5 C 196.793,274.298 197.126,276.298 191.5,279.5C 190.534,277.604 190.201,275.604 190.5,273.5 Z M 254.5,273.5 C 256.833,273.5 259.167,273.5 261.5,273.5C 260.067,280.5 258.567,287.5 257,294.5C 255.938,287.518 255.104,280.518 254.5,273.5 Z M 307.5,284.5 C 308.765,285.514 309.431,287.014 309.5,289C 310.197,295.838 310.864,302.672 311.5,309.5C 302.751,311.117 294.085,313.117 285.5,315.5C 284.5,315.167 283.833,314.5 283.5,313.5C 291.523,303.814 299.523,294.147 307.5,284.5 Z M 60.5,292.5 C 69.2258,294.348 77.8924,296.515 86.5,299C 88.2997,301.094 89.2997,303.594 89.5,306.5C 88.7598,308.894 87.0932,310.394 84.5,311C 75.9146,314.796 67.2479,318.296 58.5,321.5C 56.8698,311.618 57.5364,301.951 60.5,292.5 Z M 244.5,297.5 C 246.377,298.659 246.877,300.326 246,302.5C 243.491,301.347 242.991,299.68 244.5,297.5 Z M 97.5,317.5 C 88.2386,330.101 78.572,342.435 68.5,354.5C 64.1504,347.95 61.4837,340.784 60.5,333C 72.6542,327.34 84.9875,322.173 97.5,317.5 Z M 309.5,319.5 C 310.376,319.369 311.043,319.702 311.5,320.5C 309.88,329.555 308.047,338.555 306,347.5C 299.917,343.541 293.751,339.708 287.5,336C 289.032,332.71 289.365,329.376 288.5,326C 295.515,323.667 302.515,321.5 309.5,319.5 Z M 140.5,323.5 C 142.308,323.491 143.975,323.991 145.5,325C 144.478,327.545 143.312,330.045 142,332.5C 140.624,329.407 140.124,326.407 140.5,323.5 Z M 129.5,335.5 C 131.753,337.817 133.42,340.65 134.5,344C 131.253,344.438 128.253,343.772 125.5,342C 127.085,339.931 128.419,337.764 129.5,335.5 Z M 240.5,346.5 C 237.299,354.931 233.799,363.265 230,371.5C 228.383,365.674 228.05,359.674 229,353.5C 232.736,350.914 236.57,348.581 240.5,346.5 Z M 281.5,346.5 C 288.941,350.103 296.274,353.936 303.5,358C 301.06,364.648 298.226,371.148 295,377.5C 289.167,368.5 283.333,359.5 277.5,350.5C 278.867,349.16 280.2,347.827 281.5,346.5 Z M 96.5,350.5 C 94.1812,358.47 89.8479,365.136 83.5,370.5C 82.8333,370.167 82.1667,369.833 81.5,369.5C 86.1733,362.836 91.1733,356.503 96.5,350.5 Z M 125.5,351.5 C 127.103,351.312 128.437,351.812 129.5,353C 126.146,358.099 124.813,357.599 125.5,351.5 Z M 104.5,372.5 C 107.503,368.657 110.336,364.657 113,360.5C 115.037,367.908 112.204,371.908 104.5,372.5 Z M 268.5,360.5 C 275.303,369.485 281.97,378.651 288.5,388C 285.141,393.567 280.974,398.4 276,402.5C 272.971,388.667 270.471,374.667 268.5,360.5 Z M 256.5,371.5 C 259.421,383.922 262.421,396.422 265.5,409C 263.541,409.931 261.541,410.764 259.5,411.5C 257.591,410.652 255.591,410.318 253.5,410.5C 254.996,397.55 255.996,384.55 256.5,371.5 Z M 242.5,375.5 C 243.732,384.363 243.565,393.363 242,402.5C 239.243,399.571 237.076,396.238 235.5,392.5C 238.122,386.926 240.456,381.259 242.5,375.5 Z M 66.5,388.5 C 68.1033,388.312 69.4366,388.812 70.5,390C 62.2839,399.881 54.4506,410.048 47,420.5C 45.2739,421.576 43.4406,421.743 41.5,421C 50.4317,410.576 58.7651,399.742 66.5,388.5 Z M 86.5,395.5 C 91.3371,395.852 96.0038,396.852 100.5,398.5C 98.2093,401.46 95.7093,404.127 93,406.5C 88.8333,405.333 84.6667,404.167 80.5,403C 82.3336,400.337 84.3336,397.837 86.5,395.5 Z M 74.5,411.5 C 78.8586,412.507 83.192,413.673 87.5,415C 83.5132,420.484 79.1799,425.651 74.5,430.5C 70.8333,429 67.1667,427.5 63.5,426C 67.5398,421.406 71.2065,416.573 74.5,411.5 Z M 92.5,420.5 C 94.6456,420.696 94.8122,421.696 93,423.5C 90.3333,426.833 87.6667,430.167 85,433.5C 84.1627,435.007 82.9961,435.507 81.5,435C 85.7911,430.555 89.4578,425.722 92.5,420.5 Z M 53.5,454.5 C 54.9778,454.238 56.3112,454.571 57.5,455.5C 55.6606,458.979 52.994,460.312 49.5,459.5C 50.8569,457.814 52.1902,456.148 53.5,454.5 Z"/></g>
<g><path style="opacity:1" fill="#cb9d83" d="M 319.5,54.5 C 320.478,54.811 321.145,55.4777 321.5,56.5C 319.862,59.3041 318.029,61.9708 316,64.5C 315.626,63.5838 315.126,62.7504 314.5,62C 316.415,59.6004 318.081,57.1004 319.5,54.5 Z"/></g>
<g><path style="opacity:1" fill="#744830" d="M 372.5,59.5 C 374.844,59.979 376.178,61.479 376.5,64C 375.804,65.8928 374.97,67.7262 374,69.5C 373.235,66.8041 372.068,64.3041 370.5,62C 371.381,61.2917 372.047,60.4584 372.5,59.5 Z"/></g>
<g><path style="opacity:1" fill="#6a6b6a" d="M 298.5,61.5 C 302.846,61.3343 307.179,61.501 311.5,62C 314.884,67.9365 317.884,74.1032 320.5,80.5C 319.833,81.8333 319.167,81.8333 318.5,80.5C 316.762,74.5255 314.096,69.0255 310.5,64C 307.167,63.3333 303.833,63.3333 300.5,64C 300.166,66.0014 300.166,67.8347 300.5,69.5C 297.632,67.3615 296.965,64.6948 298.5,61.5 Z M 302.5,65.5 C 302.461,66.7562 302.961,67.7562 304,68.5C 306.048,66.494 305.548,65.494 302.5,65.5 Z"/></g>
<g><path style="opacity:1" fill="#6a6b6a" d="M 355.5,62.5 C 359.514,62.3345 363.514,62.5012 367.5,63C 368.308,63.3076 368.975,63.8076 369.5,64.5C 365.769,64.4548 361.769,64.6214 357.5,65C 357.067,67.1724 356.734,69.3391 356.5,71.5C 353.694,68.5382 353.361,65.5382 355.5,62.5 Z"/></g>
<g><path style="opacity:1" fill="#744830" d="M 365.5,66.5 C 370.516,70.1629 370.349,73.4962 365,76.5C 363.177,73.1013 363.344,69.7679 365.5,66.5 Z"/></g>
<g><path style="opacity:1" fill="#cb9d83" d="M 308.5,67.5 C 309.922,67.7496 310.922,68.583 311.5,70C 309.697,70.6368 308.364,71.8035 307.5,73.5C 307.167,73 306.833,72.5 306.5,72C 307.414,70.5936 308.08,69.0936 308.5,67.5 Z"/></g>
<g><path style="opacity:1" fill="#6a6b6a" d="M 373.5,75.5 C 371.901,74.2015 371.401,72.5348 372,70.5C 373.009,72.0249 373.509,73.6916 373.5,75.5 Z"/></g>
<g><path style="opacity:1" fill="#6a6b6a" d="M 309.5,84.5 C 307.03,81.1767 304.696,77.6767 302.5,74C 298.833,73.3333 295.167,73.3333 291.5,74C 291.036,76.405 290.869,78.905 291,81.5C 289.961,79.2537 288.794,77.087 287.5,75C 288.357,74.3109 289.023,73.4776 289.5,72.5C 294.131,71.3384 298.798,71.1717 303.5,72C 305.095,75.8581 307.428,79.1914 310.5,82C 309.748,82.6708 309.414,83.5041 309.5,84.5 Z M 292.5,76.5 C 293.648,77.895 294.648,77.7284 295.5,76C 294.251,75.2599 293.251,75.4265 292.5,76.5 Z"/></g>
<g><path style="opacity:1" fill="#6a6b6a" d="M 347.5,73.5 C 352.214,73.1734 356.88,73.5067 361.5,74.5C 364.986,79.4236 367.153,84.757 368,90.5C 366.148,87.2895 364.481,83.9561 363,80.5C 359.806,75.4871 355.306,73.6537 349.5,75C 348.729,77.4402 348.562,79.9402 349,82.5C 346.287,79.8638 345.787,76.8638 347.5,73.5 Z M 350.5,76.5 C 350.369,77.3764 350.702,78.0431 351.5,78.5C 354.131,76.9954 353.797,76.3287 350.5,76.5 Z"/></g>
<g><path style="opacity:1" fill="#d28641" d="M 297.5,75.5 C 299.716,75.2746 301.383,76.1079 302.5,78C 300.506,80.8274 298.172,83.3274 295.5,85.5C 294.328,85.0814 293.328,84.4147 292.5,83.5C 294.689,81.1133 296.356,78.4466 297.5,75.5 Z"/></g>
<g><path style="opacity:1" fill="#697076" d="M 313.5,84.5 C 294.89,110.051 275.557,135.051 255.5,159.5C 254.577,160.303 253.577,160.47 252.5,160C 253.88,158.075 255.38,156.241 257,154.5C 257.425,151.328 257.091,148.328 256,145.5C 258.015,146.842 260.182,147.342 262.5,147C 269.003,137.783 275.837,128.95 283,120.5C 283.667,118.833 283.667,117.167 283,115.5C 280.599,116.602 278.099,116.769 275.5,116C 277.312,113.14 279.646,110.973 282.5,109.5C 283.832,110.83 284.665,112.497 285,114.5C 285.513,113.473 286.013,112.473 286.5,111.5C 293.869,103.465 300.869,95.1317 307.5,86.5C 308.833,86.5 309.5,85.8333 309.5,84.5C 311.252,84.5824 312.252,83.7491 312.5,82C 311.711,80.3745 310.711,78.8745 309.5,77.5C 310.667,75.8333 311.833,74.1667 313,72.5C 314.167,75.5 315.333,78.5 316.5,81.5C 315.23,82.2876 314.23,83.2876 313.5,84.5 Z"/></g>
<g><path style="opacity:1" fill="#6a6b6a" d="M 373.5,75.5 C 375.227,77.5157 376.061,79.849 376,82.5C 374.477,80.4308 373.643,78.0974 373.5,75.5 Z"/></g>
<g><path style="opacity:1" fill="#d28641" d="M 355.5,77.5 C 357.252,77.4176 358.252,78.2509 358.5,80C 357.464,81.9014 356.298,83.7348 355,85.5C 354.097,84.2986 352.931,83.4652 351.5,83C 352.965,81.2258 354.298,79.3925 355.5,77.5 Z"/></g>
<g><path style="opacity:1" fill="#7f888f" d="M 369.5,75.5 C 370.126,78.0765 371.46,80.7431 373.5,83.5C 372.52,84.9814 371.353,86.3147 370,87.5C 367.983,84.6595 366.816,81.8262 366.5,79C 367.544,77.8261 368.544,76.6594 369.5,75.5 Z"/></g>
<g><path style="opacity:1" fill="#838d93" d="M 305.5,84.5 C 303.177,87.1261 300.843,89.7928 298.5,92.5C 297.751,91.469 297.085,90.3024 296.5,89C 298.674,85.9964 301.008,83.1631 303.5,80.5C 304.705,81.5769 305.372,82.9102 305.5,84.5 Z"/></g>
<g><path style="opacity:1" fill="#838d93" d="M 363.5,87.5 C 361.5,87.5 359.5,87.5 357.5,87.5C 357.656,93.3125 356.989,93.6459 355.5,88.5C 357.333,86.1667 359.167,83.8333 361,81.5C 362.663,83.1579 363.496,85.1579 363.5,87.5 Z"/></g>
<g><path style="opacity:1" fill="#51565a" d="M 305.5,84.5 C 306.5,84.8333 307.167,85.5 307.5,86.5C 300.869,95.1317 293.869,103.465 286.5,111.5C 285.596,110.791 285.263,109.791 285.5,108.5C 288.152,104.518 291.152,100.851 294.5,97.5C 296.587,96.4154 297.92,94.7488 298.5,92.5C 300.843,89.7928 303.177,87.1261 305.5,84.5 Z"/></g>
<g><path style="opacity:1" fill="#838d93" d="M 313.5,84.5 C 316.328,87.891 316.162,91.2244 313,94.5C 306.357,103.31 299.524,111.977 292.5,120.5C 289.698,121.712 287.198,123.379 285,125.5C 284.71,127.952 284.044,130.285 283,132.5C 279.615,136.217 276.615,140.217 274,144.5C 272.556,146.155 270.722,146.822 268.5,146.5C 268.5,147.5 268.5,148.5 268.5,149.5C 277.202,149.951 285.868,150.785 294.5,152C 293.737,152.944 292.737,153.444 291.5,153.5C 283.574,151.981 275.574,151.315 267.5,151.5C 265.854,154.895 266.187,158.061 268.5,161C 266.78,160.29 265.113,159.123 263.5,157.5C 262.571,158.689 262.238,160.022 262.5,161.5C 260.473,161.662 258.473,161.495 256.5,161C 255.944,160.617 255.611,160.117 255.5,159.5C 275.557,135.051 294.89,110.051 313.5,84.5 Z"/></g>
<g><path style="opacity:1" fill="#c2c3c2" d="M 283.5,85.5 C 291.747,83.2668 295.58,86.2668 295,94.5C 294.218,86.6691 290.551,84.6691 284,88.5C 283.517,87.552 283.351,86.552 283.5,85.5 Z"/></g>
<g><path style="opacity:1" fill="#c2c3c2" d="M 347.5,85.5 C 349.288,85.2148 350.955,85.5481 352.5,86.5C 353.407,89.0567 354.407,91.5567 355.5,94C 355,94.5 354.5,95 354,95.5C 353.328,90.4926 350.495,87.9926 345.5,88C 346.381,87.2917 347.047,86.4584 347.5,85.5 Z"/></g>
<g><path style="opacity:1" fill="#838d93" d="M 363.5,87.5 C 365.004,90.6595 366.337,93.9928 367.5,97.5C 367.426,99.7394 366.259,100.739 364,100.5C 363.167,100.333 362.333,100.167 361.5,100C 363.219,96.0431 363.886,91.8764 363.5,87.5 Z"/></g>
<g><path style="opacity:1" fill="#d38541" d="M 288.5,88.5 C 290.196,88.6854 291.529,89.5187 292.5,91C 201.303,209.23 110.47,327.73 20,446.5C 16.614,449.701 15.2806,449.035 16,444.5C 106.666,325.672 197.499,207.006 288.5,88.5 Z"/></g>
<g><path style="opacity:1" fill="#d28641" d="M 345.5,90.5 C 346.833,90.5 348.167,90.5 349.5,90.5C 349.649,91.552 349.483,92.552 349,93.5C 309.011,144.128 269.011,194.794 229,245.5C 227.263,248.533 225.097,249.033 222.5,247C 263.388,194.712 304.388,142.546 345.5,90.5 Z"/></g>
<g><path style="opacity:1" fill="#838d93" d="M 317.5,93.5 C 324.815,94.1363 332.148,94.6363 339.5,95C 337.266,97.9524 334.266,99.1191 330.5,98.5C 325.489,98.1099 320.489,97.6099 315.5,97C 316.305,95.8873 316.972,94.7206 317.5,93.5 Z"/></g>
<g><path style="opacity:1" fill="#838d93" d="M 276.5,95.5 C 277.708,94.218 279.042,94.218 280.5,95.5C 279.375,97.7936 278.041,97.7936 276.5,95.5 Z"/></g>
<g><path style="opacity:1" fill="#838d93" d="M 294.5,97.5 C 291.152,100.851 288.152,104.518 285.5,108.5C 284.609,109.11 283.609,109.443 282.5,109.5C 282.351,108.448 282.517,107.448 283,106.5C 286.385,102.783 289.385,98.7829 292,94.5C 293.045,95.3734 293.878,96.3734 294.5,97.5 Z"/></g>
<g><path style="opacity:1" fill="#c2c3c2" d="M 347.5,97.5 C 352.757,97.6301 357.09,99.6301 360.5,103.5C 360.167,103.833 359.833,104.167 359.5,104.5C 357.205,103.568 354.871,102.735 352.5,102C 350.292,100.953 348.626,99.4525 347.5,97.5 Z"/></g>
<g><path style="opacity:1" fill="#80888f" d="M 345.5,100.5 C 347.708,101.023 349.208,102.356 350,104.5C 352.128,104.073 354.295,104.573 356.5,106C 352.64,108.516 351.64,111.849 353.5,116C 351.078,118.16 348.244,119.66 345,120.5C 344.502,117.518 344.335,114.518 344.5,111.5C 342.143,111.663 339.81,111.497 337.5,111C 340.383,107.624 343.049,104.124 345.5,100.5 Z"/></g>
<g><path style="opacity:1" fill="#000000" d="M 285.5,108.5 C 285.263,109.791 285.596,110.791 286.5,111.5C 286.013,112.473 285.513,113.473 285,114.5C 284.665,112.497 283.832,110.83 282.5,109.5C 283.609,109.443 284.609,109.11 285.5,108.5 Z"/></g>
<g><path style="opacity:1" fill="#838d93" d="M 304.5,110.5 C 311.525,111.069 318.525,111.903 325.5,113C 324.5,114 323.5,115 322.5,116C 315.423,116.66 308.423,116.16 301.5,114.5C 302.524,113.148 303.524,111.815 304.5,110.5 Z"/></g>
<g><path style="opacity:1" fill="#838d93" d="M 336.5,112.5 C 338.833,112.5 341.167,112.5 343.5,112.5C 343.5,115.167 343.5,117.833 343.5,120.5C 339.928,120.062 336.428,119.396 333,118.5C 332.333,117.833 332.333,117.167 333,116.5C 334.376,115.295 335.542,113.962 336.5,112.5 Z"/></g>
<g><path style="opacity:1" fill="#b8b8b8" d="M 306.5,120.5 C 307.552,120.351 308.552,120.517 309.5,121C 310.928,123.185 312.595,125.185 314.5,127C 309.935,134.616 303.268,137.949 294.5,137C 291.562,134.975 289.728,132.142 289,128.5C 287.989,129.337 286.822,129.67 285.5,129.5C 285.641,126.52 287.141,124.52 290,123.5C 290.945,123.905 291.612,124.572 292,125.5C 292.833,124.667 293.667,123.833 294.5,123C 298.609,122.056 302.609,121.222 306.5,120.5 Z M 303.5,126.5 C 299.656,126.763 296.656,128.597 294.5,132C 297.854,131.863 301.187,131.196 304.5,130C 307.468,127.822 307.135,126.656 303.5,126.5 Z"/></g>
<g><path style="opacity:1" fill="#000000" d="M 302.5,124.5 C 310.851,124.708 311.685,127.708 305,133.5C 304.586,133.043 304.086,132.709 303.5,132.5C 299.306,133.132 295.973,133.965 293.5,135C 292.154,132.206 292.654,129.706 295,127.5C 297.48,126.188 299.98,125.188 302.5,124.5 Z M 303.5,126.5 C 299.656,126.763 296.656,128.597 294.5,132C 297.854,131.863 301.187,131.196 304.5,130C 307.468,127.822 307.135,126.656 303.5,126.5 Z"/></g>
<g><path style="opacity:1" fill="#838d93" d="M 325.5,125.5 C 326.043,125.56 326.376,125.893 326.5,126.5C 325.736,131.102 323.236,134.435 319,136.5C 316,140.5 313,144.5 310,148.5C 309.282,149.451 308.449,149.617 307.5,149C 314.099,141.575 320.099,133.742 325.5,125.5 Z"/></g>
<g><path style="opacity:1" fill="#c2c3c2" d="M 310.5,152.5 C 311.5,152.5 312.5,152.5 313.5,152.5C 312.511,159.145 311.511,159.145 310.5,152.5 Z"/></g>
<g><path style="opacity:1" fill="#838d93" d="M 301.5,156.5 C 302.239,156.369 302.906,156.536 303.5,157C 279.95,186.882 256.784,217.048 234,247.5C 232.637,249.784 231.137,249.951 229.5,248C 253.333,217.338 277.333,186.838 301.5,156.5 Z"/></g>
<g><path style="opacity:1" fill="#585d60" d="M 262.5,171.5 C 257.817,171.814 253.317,171.148 249,169.5C 244.052,175.758 238.885,181.758 233.5,187.5C 232.599,188.29 231.932,189.29 231.5,190.5C 213.848,212.815 195.848,234.815 177.5,256.5C 176.475,256.103 176.308,255.437 177,254.5C 194.244,231.919 212.244,209.919 231,188.5C 234.934,181.633 239.601,175.3 245,169.5C 245.667,168.5 245.667,167.5 245,166.5C 242.295,165.047 241.461,163.047 242.5,160.5C 246.178,162.588 250.178,163.755 254.5,164C 263.885,164.58 273.218,165.58 282.5,167C 276.366,170.651 269.699,172.151 262.5,171.5 Z"/></g>
<g><path style="opacity:1" fill="#838d93" d="M 312.5,161.5 C 312.897,160.475 313.563,160.308 314.5,161C 369.68,215.347 424.68,269.847 479.5,324.5C 478.635,325.583 477.635,325.749 476.5,325C 421.965,270.299 367.299,215.799 312.5,161.5 Z"/></g>
<g><path style="opacity:1" fill="#6e7578" d="M 262.5,171.5 C 263.952,172.302 265.618,172.802 267.5,173C 262.167,173 256.833,173 251.5,173C 247.5,178.333 243.5,183.667 239.5,189C 238.5,189.167 237.5,189.333 236.5,189.5C 234.97,189.36 233.97,188.693 233.5,187.5C 238.885,181.758 244.052,175.758 249,169.5C 253.317,171.148 257.817,171.814 262.5,171.5 Z"/></g>
<g><path style="opacity:1" fill="#6e7578" d="M 274.5,173.5 C 275.552,173.351 276.552,173.517 277.5,174C 275.663,177.645 273.663,177.978 271.5,175C 272.737,174.768 273.737,174.268 274.5,173.5 Z"/></g>
<g><path style="opacity:1" fill="#6a6f73" d="M 231.5,190.5 C 232.404,191.209 232.737,192.209 232.5,193.5C 229.954,194.979 229.954,196.479 232.5,198C 228.881,202.074 225.381,206.241 222,210.5C 220.681,212.487 218.848,213.654 216.5,214C 224.435,216.254 232.435,218.254 240.5,220C 233.339,219.55 226.172,218.716 219,217.5C 217.342,217.325 216.009,216.658 215,215.5C 214.316,216.784 214.483,217.951 215.5,219C 210.622,224.209 206.122,229.709 202,235.5C 200.681,237.487 198.848,238.654 196.5,239C 205.095,240.992 213.761,242.658 222.5,244C 221.57,244.991 220.404,245.491 219,245.5C 211.537,244.004 204.037,243.171 196.5,243C 190.956,251.734 183.956,259.567 175.5,266.5C 172.954,267.979 172.954,269.479 175.5,271C 173.353,274.115 170.853,276.948 168,279.5C 167.824,282.882 167.324,286.215 166.5,289.5C 162.576,292.379 158.743,295.379 155,298.5C 154.333,295.167 154.333,291.833 155,288.5C 157.625,285.406 160.125,282.24 162.5,279C 161.66,277.233 160.327,275.899 158.5,275C 161.5,272 164.5,269 167.5,266C 168.449,265.383 169.282,265.549 170,266.5C 172.849,263.776 174.516,260.776 175,257.5C 176.007,259.742 176.841,259.408 177.5,256.5C 195.848,234.815 213.848,212.815 231.5,190.5 Z"/></g>
<g><path style="opacity:1" fill="#cb9d83" d="M 253.5,190.5 C 256.334,192.649 256.001,193.649 252.5,193.5C 252.5,195.5 252.5,197.5 252.5,199.5C 253.5,199.5 254.5,199.5 255.5,199.5C 255.101,202.971 253.601,203.304 251,200.5C 250.282,196.703 251.116,193.37 253.5,190.5 Z"/></g>
<g><path style="opacity:1" fill="#6e7578" d="M 280.5,191.5 C 286.225,204.033 290.892,216.699 294.5,229.5C 289.212,217.806 284.212,205.973 279.5,194C 280.252,193.329 280.586,192.496 280.5,191.5 Z"/></g>
<g><path style="opacity:1" fill="#6e7578" d="M 232.5,193.5 C 237.89,192.84 243.223,193.507 248.5,195.5C 248,195.833 247.5,196.167 247,196.5C 241.964,195.86 237.131,194.86 232.5,193.5 Z"/></g>
<g><path style="opacity:1" fill="#6e7578" d="M 253.5,194.5 C 262.721,195.61 262.721,196.61 253.5,197.5C 253.5,196.5 253.5,195.5 253.5,194.5 Z"/></g>
<g><path style="opacity:1" fill="#28292c" d="M 108.5,209.5 C 101.418,211.119 94.7515,213.952 88.5,218C 75.1367,229.17 65.1367,242.67 58.5,258.5C 57.6618,258.842 57.3284,259.508 57.5,260.5C 53.5111,273.773 50.5111,287.107 48.5,300.5C 47.7784,300.918 47.2784,301.584 47,302.5C 44.4341,301.993 42.2675,300.826 40.5,299C 41.1852,296.205 41.6852,293.372 42,290.5C 42.3826,291.056 42.8826,291.389 43.5,291.5C 46.1667,290.833 46.1667,290.167 43.5,289.5C 44.2524,274.72 48.4191,260.72 56,247.5C 56.2784,248.416 56.7784,249.082 57.5,249.5C 58.8333,249.5 59.5,248.833 59.5,247.5C 59.0825,246.778 58.4158,246.278 57.5,246C 60.6667,240.833 63.8333,235.667 67,230.5C 68.451,228.536 70.2843,227.203 72.5,226.5C 73.8333,226.5 74.5,225.833 74.5,224.5C 75.5434,221.944 77.2101,219.777 79.5,218C 90.9523,208.972 103.952,205.639 118.5,208C 114.975,208.179 111.641,208.679 108.5,209.5 Z"/></g>
<g><path style="opacity:1" fill="#7d8185" d="M 108.5,209.5 C 109.833,209.5 111.167,209.5 112.5,209.5C 112.5,213.167 112.5,216.833 112.5,220.5C 104.983,220.769 98.6496,223.436 93.5,228.5C 84.1874,233.146 77.1874,240.146 72.5,249.5C 72.7373,250.791 72.404,251.791 71.5,252.5C 67.7939,254.905 65.2939,258.238 64,262.5C 61.9847,261.303 60.1513,259.97 58.5,258.5C 65.1367,242.67 75.1367,229.17 88.5,218C 94.7515,213.952 101.418,211.119 108.5,209.5 Z"/></g>
<g><path style="opacity:1" fill="#7e8285" d="M 114.5,209.5 C 122.232,209.355 129.232,211.522 135.5,216C 144.719,220.763 151.719,227.763 156.5,237C 155.892,237.87 155.059,238.37 154,238.5C 151.459,237.993 148.959,237.326 146.5,236.5C 142.827,233.681 139.993,230.681 138,227.5C 137.667,227.833 137.333,228.167 137,228.5C 130.478,223.286 122.978,220.619 114.5,220.5C 114.5,216.833 114.5,213.167 114.5,209.5 Z"/></g>
<g><path style="opacity:1" fill="#cb9d83" d="M 264.5,212.5 C 268.597,217.121 270.263,222.454 269.5,228.5C 267.43,224.16 265.43,219.66 263.5,215C 263.743,214.098 264.077,213.265 264.5,212.5 Z"/></g>
<g><path style="opacity:1" fill="#c2c3c2" d="M 118.5,213.5 C 120.337,213.639 120.67,214.306 119.5,215.5C 118.702,215.043 118.369,214.376 118.5,213.5 Z"/></g>
<g><path style="opacity:1" fill="#c2c3c2" d="M 106.5,215.5 C 108.337,215.639 108.67,216.306 107.5,217.5C 106.702,217.043 106.369,216.376 106.5,215.5 Z"/></g>
<g><path style="opacity:1" fill="#949a9d" d="M 119.5,223.5 C 121.117,224.038 122.784,224.371 124.5,224.5C 124.666,228.846 124.499,233.179 124,237.5C 122.287,238.878 120.953,240.545 120,242.5C 119.5,236.175 119.334,229.842 119.5,223.5 Z"/></g>
<g><path style="opacity:1" fill="#c2c3c2" d="M 74.5,224.5 C 74.5,225.833 73.8333,226.5 72.5,226.5C 72.5,225.167 73.1667,224.5 74.5,224.5 Z"/></g>
<g><path style="opacity:1" fill="#949a9d" d="M 93.5,228.5 C 94.6879,227.316 95.8545,227.316 97,228.5C 99.7057,234.078 102.539,239.578 105.5,245C 103.751,246.292 101.918,247.458 100,248.5C 97.7211,241.831 95.5544,235.164 93.5,228.5 Z"/></g>
<g><path style="opacity:1" fill="#949a9d" d="M 133.5,230.5 C 134.721,229.535 136.054,229.702 137.5,231C 139.208,233.043 141.208,234.71 143.5,236C 141.765,236.651 140.098,236.485 138.5,235.5C 137.145,233.479 135.479,231.812 133.5,230.5 Z"/></g>
<g><path style="opacity:1" fill="#28292c" d="M 280.5,232.5 C 274.953,234.607 269.62,237.273 264.5,240.5C 262.847,240.66 261.514,241.326 260.5,242.5C 250.524,252.47 242.524,263.804 236.5,276.5C 233.787,276.993 231.454,275.993 229.5,273.5C 236.935,256.572 248.435,243.238 264,233.5C 264.278,234.416 264.778,235.082 265.5,235.5C 266.833,235.5 267.5,234.833 267.5,233.5C 267.611,232.883 267.944,232.383 268.5,232C 272.761,230.637 277.095,230.304 281.5,231C 280.944,231.383 280.611,231.883 280.5,232.5 Z"/></g>
<g><path style="opacity:1" fill="#949a9d" d="M 284.5,232.5 C 290.165,231.245 295.499,232.245 300.5,235.5C 295.272,233.988 289.938,232.988 284.5,232.5 Z"/></g>
<g><path style="opacity:1" fill="#7a7e81" d="M 280.5,232.5 C 281.833,232.5 283.167,232.5 284.5,232.5C 289.938,232.988 295.272,233.988 300.5,235.5C 305.687,238.173 310.187,241.84 314,246.5C 313.733,250.708 312.066,254.375 309,257.5C 300.801,247.661 290.301,243.828 277.5,246C 273.411,248.127 269.577,250.627 266,253.5C 263.967,249.312 263.467,244.979 264.5,240.5C 269.62,237.273 274.953,234.607 280.5,232.5 Z"/></g>
<g><path style="opacity:1" fill="#c2c3c2" d="M 267.5,233.5 C 267.5,234.833 266.833,235.5 265.5,235.5C 265.5,234.167 266.167,233.5 267.5,233.5 Z"/></g>
<g><path style="opacity:1" fill="#b06a31" d="M 246.5,239.5 C 245.294,238.12 245.627,236.953 247.5,236C 249.5,235.333 251.5,235.333 253.5,236C 251.691,238.238 249.358,239.405 246.5,239.5 Z"/></g>
<g><path style="opacity:1" fill="#949a9d" d="M 127.5,237.5 C 135.83,238.618 144.163,239.785 152.5,241C 148.5,245.667 144.5,250.333 140.5,255C 139.167,255.333 137.833,255.667 136.5,256C 133,259.5 129.5,263 126,266.5C 125.578,269.236 125.578,271.902 126,274.5C 121.167,280.667 116.333,286.833 111.5,293C 103.804,291.828 96.1373,290.162 88.5,288C 101.88,271.377 114.88,254.544 127.5,237.5 Z"/></g>
<g><path style="opacity:1" fill="#b06a31" d="M 246.5,239.5 C 246.611,240.117 246.944,240.617 247.5,241C 244.96,243.205 242.793,245.705 241,248.5C 239.867,250.211 238.367,250.711 236.5,250C 238.333,247.5 240.167,245 242,242.5C 243.129,240.859 244.629,239.859 246.5,239.5 Z"/></g>
<g><path style="opacity:1" fill="#696f72" d="M 156.5,240.5 C 158.22,243.797 160.22,246.964 162.5,250C 158.359,255.776 153.859,261.276 149,266.5C 146.833,263.667 144.667,260.833 142.5,258C 147,252.003 151.667,246.17 156.5,240.5 Z"/></g>
<g><path style="opacity:1" fill="#808487" d="M 260.5,242.5 C 261.703,246.331 262.703,250.331 263.5,254.5C 253.85,263.467 246.183,273.8 240.5,285.5C 239.546,291.497 238.046,292.164 236,287.5C 235.571,289.669 236.071,291.669 237.5,293.5C 236.817,296.461 235.984,296.795 235,294.5C 234.141,302.942 232.141,311.276 229,319.5C 228.617,318.944 228.117,318.611 227.5,318.5C 226.167,318.5 225.5,319.167 225.5,320.5C 224.662,320.158 224.328,319.492 224.5,318.5C 227.053,305.955 230.386,293.622 234.5,281.5C 235.537,280.07 236.204,278.403 236.5,276.5C 242.524,263.804 250.524,252.47 260.5,242.5 Z"/></g>
<g><path style="opacity:1" fill="#c2c3c2" d="M 251.5,244.5 C 253.337,244.639 253.67,245.306 252.5,246.5C 251.702,246.043 251.369,245.376 251.5,244.5 Z"/></g>
<g><path style="opacity:1" fill="#c2c3c2" d="M 59.5,247.5 C 59.5,248.833 58.8333,249.5 57.5,249.5C 57.5,248.167 58.1667,247.5 59.5,247.5 Z"/></g>
<g><path style="opacity:1" fill="#c2c3c2" d="M 106.5,248.5 C 108.67,249.838 110.336,251.672 111.5,254C 109.796,253.028 107.962,251.861 106,250.5C 97.2332,254.231 94.7332,260.398 98.5,269C 97.8742,269.75 97.3742,270.584 97,271.5C 95.9911,267.487 95.3244,263.487 95,259.5C 97.4373,254.226 101.271,250.56 106.5,248.5 Z"/></g>
<g><path style="opacity:1" fill="#949a9d" d="M 72.5,249.5 C 73.552,249.351 74.552,249.517 75.5,250C 81.3333,256.5 87.1667,263 93,269.5C 93.6667,271.833 93.6667,274.167 93,276.5C 86.3097,267.982 79.1431,259.982 71.5,252.5C 72.404,251.791 72.7373,250.791 72.5,249.5 Z"/></g>
<g><path style="opacity:1" fill="#c2c3c2" d="M 308.5,249.5 C 310.337,249.639 310.67,250.306 309.5,251.5C 308.702,251.043 308.369,250.376 308.5,249.5 Z"/></g>
<g><path style="opacity:1" fill="#949a9d" d="M 219.5,250.5 C 225.256,251.251 230.922,252.417 236.5,254C 231.621,261.589 227.121,269.422 223,277.5C 219.659,284.868 216.326,292.201 213,299.5C 210.333,302.833 207.667,306.167 205,309.5C 196.927,307.106 188.76,304.94 180.5,303C 179.549,302.282 179.383,301.449 180,300.5C 193.381,283.958 206.547,267.292 219.5,250.5 Z"/></g>
<g><path style="opacity:1" fill="#949a9d" d="M 292.5,250.5 C 294.14,251.32 295.807,252.153 297.5,253C 295.383,254.731 293.883,256.898 293,259.5C 287.051,273.062 281.385,286.729 276,300.5C 274.692,302.641 273.192,304.641 271.5,306.5C 269.885,305.846 268.218,305.346 266.5,305C 274.447,286.601 283.114,268.434 292.5,250.5 Z"/></g>
<g><path style="opacity:1" fill="#949a9d" d="M 272.5,252.5 C 273.239,252.369 273.906,252.536 274.5,253C 270.88,269.431 267.38,285.931 264,302.5C 262.722,305.155 260.722,307.155 258,308.5C 261.038,291.48 264.538,274.48 268.5,257.5C 269.823,255.835 271.156,254.168 272.5,252.5 Z"/></g>
<g><path style="opacity:1" fill="#6e7578" d="M 298.5,252.5 C 304.321,257.096 308.987,262.762 312.5,269.5C 310.994,270.747 309.494,270.747 308,269.5C 305.812,263.18 302.645,257.514 298.5,252.5 Z"/></g>
<g><path style="opacity:1" fill="#818589" d="M 312.5,258.5 C 313.833,258.5 314.5,257.833 314.5,256.5C 313.476,254.381 314.143,253.215 316.5,253C 328.665,278.978 332.332,306.145 327.5,334.5C 323.179,335.176 321.179,333.342 321.5,329C 325.311,308.192 323.478,288.026 316,268.5C 314.561,265.397 312.727,262.564 310.5,260C 311.044,259.283 311.711,258.783 312.5,258.5 Z"/></g>
<g><path style="opacity:1" fill="#c2c3c2" d="M 63.5,254.5 C 65.337,254.639 65.6704,255.306 64.5,256.5C 63.7025,256.043 63.3691,255.376 63.5,254.5 Z"/></g>
<g><path style="opacity:1" fill="#c2c3c2" d="M 314.5,256.5 C 314.5,257.833 313.833,258.5 312.5,258.5C 312.5,257.167 313.167,256.5 314.5,256.5 Z"/></g>
<g><path style="opacity:1" fill="#838d93" d="M 322.5,257.5 C 323.097,256.861 323.93,256.528 325,256.5C 356.532,261.839 388.032,267.339 419.5,273C 420.5,274 421.5,275 422.5,276C 390.486,271.109 358.486,265.775 326.5,260C 324.867,259.52 323.534,258.687 322.5,257.5 Z"/></g>
<g><path style="opacity:1" fill="#c2c3c2" d="M 137.5,257.5 C 141.957,260.031 145.29,263.698 147.5,268.5C 147.333,268.833 147.167,269.167 147,269.5C 145.333,267.167 143.667,264.833 142,262.5C 141.196,261.196 140.029,260.529 138.5,260.5C 132.506,262.956 129.673,267.289 130,273.5C 132.284,277.382 133.951,281.382 135,285.5C 131.694,280.554 129.194,275.221 127.5,269.5C 130.448,265.215 133.781,261.215 137.5,257.5 Z"/></g>
<g><path style="opacity:1" fill="#b06a31" d="M 263.5,259.5 C 264.097,259.735 264.43,260.235 264.5,261C 263.434,264.094 262.768,267.26 262.5,270.5C 259.753,270.813 257.086,270.48 254.5,269.5C 257.522,266.147 260.522,262.813 263.5,259.5 Z"/></g>
<g><path style="opacity:1" fill="#818589" d="M 57.5,260.5 C 59.34,262.168 61.34,263.668 63.5,265C 60.0301,271.513 58.6968,278.347 59.5,285.5C 59.5,286.167 59.5,286.833 59.5,287.5C 58.0927,289.308 56.926,291.308 56,293.5C 54.6159,302.464 54.2826,311.464 55,320.5C 56.6029,323.422 57.7696,326.422 58.5,329.5C 57.7456,336.318 58.7456,342.985 61.5,349.5C 60.2433,351.679 58.7433,353.679 57,355.5C 56.6174,354.944 56.1174,354.611 55.5,354.5C 51.8753,344.676 49.542,334.676 48.5,324.5C 48.5,316.5 48.5,308.5 48.5,300.5C 50.5111,287.107 53.5111,273.773 57.5,260.5 Z"/></g>
<g><path style="opacity:1" fill="#6b7174" d="M 137.5,262.5 C 139.017,262.511 140.184,263.177 141,264.5C 142.626,266.917 144.126,269.417 145.5,272C 142.667,275.5 139.833,279 137,282.5C 135.231,279.112 133.397,275.279 131.5,271C 132.927,267.743 134.927,264.91 137.5,262.5 Z"/></g>
<g><path style="opacity:1" fill="#949a9d" d="M 163.5,262.5 C 164.525,262.897 164.692,263.563 164,264.5C 162,266.5 160,268.5 158,270.5C 157.333,269.833 157.333,269.167 158,268.5C 160.04,266.63 161.873,264.63 163.5,262.5 Z"/></g>
<g><path style="opacity:1" fill="#c2c3c2" d="M 193.5,262.5 C 197.194,263.033 199.361,265.033 200,268.5C 198.611,266.773 196.944,265.439 195,264.5C 190.801,267.908 187.968,272.242 186.5,277.5C 187.648,279.761 188.148,282.095 188,284.5C 186.833,282.167 185.667,279.833 184.5,277.5C 186.743,272.007 189.743,267.007 193.5,262.5 Z"/></g>
<g><path style="opacity:1" fill="#c2c3c2" d="M 236.5,265.5 C 238.337,265.639 238.67,266.306 237.5,267.5C 236.702,267.043 236.369,266.376 236.5,265.5 Z"/></g>
<g><path style="opacity:1" fill="#c2c3c2" d="M 49.5,266.5 C 51.337,266.639 51.6704,267.306 50.5,268.5C 49.7025,268.043 49.3691,267.376 49.5,266.5 Z"/></g>
<g><path style="opacity:1" fill="#6e7578" d="M 175.5,266.5 C 179.247,266.392 182.914,266.892 186.5,268C 186,268.5 185.5,269 185,269.5C 181.633,268.867 178.466,267.867 175.5,266.5 Z"/></g>
<g><path style="opacity:1" fill="#6e7578" d="M 195.5,267.5 C 198.768,271.37 198.101,272.203 193.5,270C 194.381,269.292 195.047,268.458 195.5,267.5 Z"/></g>
<g><path style="opacity:1" fill="#c2c3c2" d="M 57.5,268.5 C 59.337,268.639 59.6704,269.306 58.5,270.5C 57.7025,270.043 57.3691,269.376 57.5,268.5 Z"/></g>
<g><path style="opacity:1" fill="#949a9d" d="M 312.5,276.5 C 308.61,278.878 305.11,281.878 302,285.5C 294.667,294.167 287.333,302.833 280,311.5C 278.197,310.687 276.697,309.52 275.5,308C 276.651,306.177 277.818,304.344 279,302.5C 289.014,292.653 298.848,282.653 308.5,272.5C 309.689,271.571 311.022,271.238 312.5,271.5C 312.5,273.167 312.5,274.833 312.5,276.5 Z"/></g>
<g><path style="opacity:1" fill="#6e7578" d="M 318.5,312.5 C 318.5,311.167 318.5,309.833 318.5,308.5C 317.167,308.5 315.833,308.5 314.5,308.5C 313.86,299.129 312.86,289.796 311.5,280.5C 311.846,279.151 312.179,277.817 312.5,276.5C 313.268,275.737 313.768,274.737 314,273.5C 318.59,286.32 320.09,299.32 318.5,312.5 Z"/></g>
<g><path style="opacity:1" fill="#838d93" d="M 432.5,274.5 C 433.209,273.596 434.209,273.263 435.5,273.5C 435.649,274.552 435.483,275.552 435,276.5C 434.292,275.619 433.458,274.953 432.5,274.5 Z"/></g>
<g><path style="opacity:1" fill="#949a9d" d="M 250.5,274.5 C 251.29,275.609 251.79,276.942 252,278.5C 252.64,288.018 253.474,297.518 254.5,307C 254.637,309.556 253.804,311.723 252,313.5C 249.778,303.531 248.278,293.365 247.5,283C 247.801,279.903 248.801,277.07 250.5,274.5 Z"/></g>
<g><path style="opacity:1" fill="#949a9d" d="M 152.5,276.5 C 154.305,277.237 155.971,278.237 157.5,279.5C 156.182,282.65 154.016,284.983 151,286.5C 149.379,286.275 148.212,285.442 147.5,284C 149.295,281.574 150.962,279.074 152.5,276.5 Z"/></g>
<g><path style="opacity:1" fill="#292a2e" d="M 234.5,281.5 C 230.386,293.622 227.053,305.955 224.5,318.5C 223.833,320.167 223.167,321.833 222.5,323.5C 221.549,324.919 221.216,326.585 221.5,328.5C 218.899,347.514 218.899,366.514 221.5,385.5C 221.38,386.586 220.713,387.253 219.5,387.5C 217.218,386.777 214.884,386.443 212.5,386.5C 209.723,372.978 208.89,359.311 210,345.5C 211.675,332.449 213.675,319.449 216,306.5C 218.327,295.673 222.494,285.673 228.5,276.5C 231.426,277.265 233.426,278.932 234.5,281.5 Z"/></g>
<g><path style="opacity:1" fill="#000000" d="M 240.5,285.5 C 238.901,284.201 238.401,282.535 239,280.5C 240.009,282.025 240.509,283.692 240.5,285.5 Z"/></g>
<g><path style="opacity:1" fill="#949a9d" d="M 59.5,285.5 C 67.5368,287.289 75.5368,289.289 83.5,291.5C 84.4419,291.392 85.2753,291.059 86,290.5C 86.7065,292.081 87.5399,293.581 88.5,295C 78.5783,293.603 68.9117,291.103 59.5,287.5C 59.5,286.833 59.5,286.167 59.5,285.5 Z"/></g>
<g><path style="opacity:1" fill="#6e7578" d="M 143.5,287.5 C 145.028,287.517 145.528,288.184 145,289.5C 140.952,293.88 137.285,298.546 134,303.5C 133.163,305.007 131.996,305.507 130.5,305C 135.075,299.271 139.408,293.437 143.5,287.5 Z"/></g>
<g><path style="opacity:1" fill="#c2c3c2" d="M 225.5,287.5 C 227.337,287.639 227.67,288.306 226.5,289.5C 225.702,289.043 225.369,288.376 225.5,287.5 Z"/></g>
<g><path style="opacity:1" fill="#6e7578" d="M 243.5,287.5 C 244.695,287.866 245.361,288.699 245.5,290C 243.284,293.381 241.284,296.881 239.5,300.5C 241.123,303.491 243.457,305.824 246.5,307.5C 247.614,308.723 247.781,310.056 247,311.5C 243.356,308.536 240.522,305.036 238.5,301C 239.755,296.327 241.422,291.827 243.5,287.5 Z"/></g>
<g><path style="opacity:1" fill="#c2c3c2" d="M 43.5,289.5 C 46.1667,290.167 46.1667,290.833 43.5,291.5C 43.5,290.833 43.5,290.167 43.5,289.5 Z"/></g>
<g><path style="opacity:1" fill="#949a9d" d="M 169.5,289.5 C 173.926,289.927 178.26,290.761 182.5,292C 180.654,295.179 178.154,297.679 175,299.5C 170.497,298.333 165.997,297.166 161.5,296C 164.355,293.969 167.022,291.803 169.5,289.5 Z"/></g>
<g><path style="opacity:1" fill="#666b6f" d="M 126.5,277.5 C 127.376,277.369 128.043,277.702 128.5,278.5C 130.039,281.746 131.706,284.912 133.5,288C 126.82,296.383 120.153,304.716 113.5,313C 109.088,313.394 104.755,312.894 100.5,311.5C 96.6994,304.537 92.6994,297.703 88.5,291C 96.7274,292.79 105.061,294.29 113.5,295.5C 113.34,297.199 113.506,298.866 114,300.5C 114.333,298.167 114.667,295.833 115,293.5C 119.052,288.288 122.885,282.955 126.5,277.5 Z"/></g>
<g><path style="opacity:1" fill="#83878a" d="M 148.5,290.5 C 149.5,290.5 150.5,290.5 151.5,290.5C 150.617,294.872 150.45,299.206 151,303.5C 147.697,309.933 142.864,311.266 136.5,307.5C 137.833,306.5 137.833,305.5 136.5,304.5C 140.552,299.789 144.552,295.122 148.5,290.5 Z"/></g>
<g><path style="opacity:1" fill="#000000" d="M 147.5,293.5 C 148.077,292.227 148.743,292.227 149.5,293.5C 149.03,294.463 148.363,294.463 147.5,293.5 Z"/></g>
<g><path style="opacity:1" fill="#6e7578" d="M 159.5,297.5 C 163.71,298.978 168.043,300.144 172.5,301C 173.973,301.71 174.64,302.876 174.5,304.5C 168.294,303.615 162.294,302.115 156.5,300C 157.571,299.148 158.571,298.315 159.5,297.5 Z"/></g>
<g><path style="opacity:1" fill="#949a9d" d="M 90.5,299.5 C 92.1662,301.187 93.4995,303.187 94.5,305.5C 93.675,306.386 92.675,306.719 91.5,306.5C 91.3259,304.139 90.9926,301.806 90.5,299.5 Z"/></g>
<g><path style="opacity:1" fill="#2b2c30" d="M 48.5,324.5 C 49.542,334.676 51.8753,344.676 55.5,354.5C 55.6596,356.153 56.3263,357.486 57.5,358.5C 59.0987,360.604 60.932,362.604 63,364.5C 62.4149,368.024 63.5816,371.024 66.5,373.5C 65.6091,375.609 64.4424,377.609 63,379.5C 46.1912,360.572 38.6912,338.572 40.5,313.5C 43.1667,312.833 43.1667,312.167 40.5,311.5C 39.1968,308.645 39.1968,305.645 40.5,302.5C 42.5,303.167 44.5,303.833 46.5,304.5C 47.1667,311.321 47.8334,317.988 48.5,324.5 Z"/></g>
<g><path style="opacity:1" fill="#676c70" d="M 154.5,302.5 C 160.577,303.686 166.577,305.186 172.5,307C 170.942,310.06 168.609,312.226 165.5,313.5C 160.383,312.759 155.383,311.593 150.5,310C 152.54,307.815 153.874,305.315 154.5,302.5 Z"/></g>
<g><path style="opacity:1" fill="#d28641" d="M 176.5,305.5 C 177.922,305.709 179.255,306.209 180.5,307C 141.286,355.879 102.452,405.046 64,454.5C 62.8904,456.037 61.3904,456.703 59.5,456.5C 59.6079,454.217 60.4412,452.217 62,450.5C 100.381,402.292 138.548,353.958 176.5,305.5 Z"/></g>
<g><path style="opacity:1" fill="#949a9d" d="M 236.5,305.5 C 240.468,309.639 244.301,313.973 248,318.5C 248.688,319.332 248.521,319.998 247.5,320.5C 243.167,318 238.833,315.5 234.5,313C 235.554,310.618 236.221,308.118 236.5,305.5 Z"/></g>
<g><path style="opacity:1" fill="#646a6d" d="M 128.5,307.5 C 129.427,309.576 131.093,310.743 133.5,311C 143.904,312.678 154.238,314.678 164.5,317C 163.158,320.184 160.824,322.017 157.5,322.5C 145.856,320.752 134.19,319.585 122.5,319C 116.366,328.1 109.866,336.933 103,345.5C 103.025,343.08 103.691,340.747 105,338.5C 113.645,327.436 121.478,317.103 128.5,307.5 Z"/></g>
<g><path style="opacity:1" fill="#5f6568" d="M 211.5,306.5 C 212.015,310.937 211.349,315.437 209.5,320C 210.595,322.171 209.928,323.838 207.5,325C 209.917,326.673 209.917,328.506 207.5,330.5C 201.782,328.987 196.116,327.321 190.5,325.5C 186.555,320.276 183.721,314.609 182,308.5C 182.725,307.941 183.558,307.608 184.5,307.5C 192.081,309.646 199.748,311.313 207.5,312.5C 207.351,313.552 207.517,314.552 208,315.5C 208.117,312.037 209.284,309.037 211.5,306.5 Z"/></g>
<g><path style="opacity:1" fill="#949a9d" d="M 58.5,329.5 C 58.5,328.167 58.5,326.833 58.5,325.5C 71.4575,321.181 83.7909,315.515 95.5,308.5C 96.8448,309.347 97.8448,310.513 98.5,312C 85.4665,318.511 72.1331,324.345 58.5,329.5 Z"/></g>
<g><path style="opacity:1" fill="#949a9d" d="M 263.5,308.5 C 268.183,308.507 272.183,310.174 275.5,313.5C 262.807,321.245 259.64,331.911 266,345.5C 267.167,346.667 268.333,347.833 269.5,349C 264.753,349.862 260.92,348.362 258,344.5C 254.22,338.449 251.72,331.949 250.5,325C 252.102,320.962 254.102,317.129 256.5,313.5C 259.077,312.057 261.41,310.39 263.5,308.5 Z"/></g>
<g><path style="opacity:1" fill="#c2c3c2" d="M 218.5,309.5 C 220.465,309.948 220.798,310.948 219.5,312.5C 218.614,311.675 218.281,310.675 218.5,309.5 Z"/></g>
<g><path style="opacity:1" fill="#c2c3c2" d="M 40.5,311.5 C 43.1667,312.167 43.1667,312.833 40.5,313.5C 40.5,312.833 40.5,312.167 40.5,311.5 Z"/></g>
<g><path style="opacity:1" fill="#454a4c" d="M 178.5,311.5 C 179.376,311.369 180.043,311.702 180.5,312.5C 181.706,315.079 183.039,317.579 184.5,320C 184,320.167 183.5,320.333 183,320.5C 181.88,318.925 180.38,317.925 178.5,317.5C 177.136,318.043 175.803,318.21 174.5,318C 176.085,315.931 177.419,313.764 178.5,311.5 Z"/></g>
<g><path style="opacity:1" fill="#949a9d" d="M 318.5,312.5 C 318.119,313.931 317.119,314.764 315.5,315C 306.833,317.167 298.167,319.333 289.5,321.5C 288.09,321.132 287.09,320.299 286.5,319C 296.099,316.312 305.766,313.812 315.5,311.5C 316.584,311.685 317.584,312.018 318.5,312.5 Z"/></g>
<g><path style="opacity:1" fill="#949a9d" d="M 72.5,363.5 C 72.1667,362.5 71.5,361.833 70.5,361.5C 70.6716,360.508 70.3382,359.842 69.5,359.5C 81.3337,344.499 93.167,329.499 105,314.5C 107.135,315.127 109.302,315.627 111.5,316C 99.6358,330.897 88.1358,346.064 77,361.5C 75.8904,363.037 74.3904,363.703 72.5,363.5 Z"/></g>
<g><path style="opacity:1" fill="#6c7175" d="M 271.5,410.5 C 271.5,409.833 271.833,409.5 272.5,409.5C 275.592,407.592 278.592,405.426 281.5,403C 285.771,398.244 289.771,393.41 293.5,388.5C 294.5,387.5 295.5,386.5 296.5,385.5C 299.866,376.427 303.532,367.427 307.5,358.5C 309.975,357.313 310.975,355.313 310.5,352.5C 310.018,351.584 309.685,350.584 309.5,349.5C 311.447,339.202 313.114,328.868 314.5,318.5C 316.911,318.863 318.411,317.863 319,315.5C 318.659,341.872 311.992,366.539 299,389.5C 291.341,398.501 282.508,406.001 272.5,412C 270.553,412.991 268.553,413.325 266.5,413C 268.175,412.015 269.842,411.181 271.5,410.5 Z"/></g>
<g><path style="opacity:1" fill="#6e7578" d="M 233.5,316.5 C 234.478,316.811 235.145,317.478 235.5,318.5C 233.314,323.561 232.981,328.728 234.5,334C 232.391,335.141 230.558,336.641 229,338.5C 229.226,330.924 230.726,323.591 233.5,316.5 Z"/></g>
<g><path style="opacity:1" fill="#878b8f" d="M 277.5,326.5 C 274.981,330.21 274.981,333.876 277.5,337.5C 279.292,338.309 281.292,338.809 283.5,339C 273.183,349.87 267.183,347.537 265.5,332C 266.196,330.107 267.03,328.274 268,326.5C 268.333,327.833 268.667,329.167 269,330.5C 269.451,325.43 271.618,321.264 275.5,318C 277.167,317.333 278.833,317.333 280.5,318C 282.167,320.333 283.833,322.667 285.5,325C 282.635,325.183 279.969,325.683 277.5,326.5 Z"/></g>
<g><path style="opacity:1" fill="#8b8f93" d="M 224.5,318.5 C 224.328,319.492 224.662,320.158 225.5,320.5C 226.167,320.5 226.833,320.5 227.5,320.5C 227.954,322.259 227.954,324.259 227.5,326.5C 225.833,326.5 224.167,326.5 222.5,326.5C 222.5,325.5 222.5,324.5 222.5,323.5C 223.167,321.833 223.833,320.167 224.5,318.5 Z"/></g>
<g><path style="opacity:1" fill="#c2c3c2" d="M 227.5,318.5 C 227.5,319.167 227.5,319.833 227.5,320.5C 226.833,320.5 226.167,320.5 225.5,320.5C 225.5,319.167 226.167,318.5 227.5,318.5 Z"/></g>
<g><path style="opacity:1" fill="#949a9d" d="M 177.5,319.5 C 179.688,320.536 179.688,322.036 177.5,324C 175.064,324.436 173.064,323.603 171.5,321.5C 173.631,320.831 175.631,320.165 177.5,319.5 Z"/></g>
<g><path style="opacity:1" fill="#6e7578" d="M 238.5,319.5 C 241.149,321.14 243.816,322.807 246.5,324.5C 236.982,334.922 234.315,333.255 238.5,319.5 Z"/></g>
<g><path style="opacity:1" fill="#949a9d" d="M 127.5,323.5 C 103.178,356.128 78.8451,388.795 54.5,421.5C 52.3884,423.162 51.2217,422.828 51,420.5C 76.3312,387.82 101.165,354.82 125.5,321.5C 126.522,321.855 127.189,322.522 127.5,323.5 Z"/></g>
<g><path style="opacity:1" fill="#7a7e81" d="M 54.5,421.5 C 78.8451,388.795 103.178,356.128 127.5,323.5C 129.738,322.463 132.071,322.297 134.5,323C 129.884,328.442 125.884,334.276 122.5,340.5C 120.376,341.149 118.376,341.983 116.5,343C 123.61,345.925 130.943,348.258 138.5,350C 130.467,349.201 122.634,347.367 115,344.5C 113.812,345.563 113.312,346.897 113.5,348.5C 114.675,348.281 115.675,348.614 116.5,349.5C 111.126,356.777 105.626,364.444 100,372.5C 93.1707,373.938 93.0041,375.438 99.5,377C 104.882,377.307 110.215,377.974 115.5,379C 114.91,380.299 113.91,381.132 112.5,381.5C 107.854,380.559 103.187,379.726 98.5,379C 96.2729,378.879 94.4396,378.046 93,376.5C 90.7153,389.278 83.5486,397.945 71.5,402.5C 70.8291,404.507 69.8291,406.34 68.5,408C 69.8932,409.301 70.3932,410.801 70,412.5C 66.8689,416.633 63.3689,420.466 59.5,424C 56.7383,425.077 55.0717,424.244 54.5,421.5 Z"/></g>
<g><path style="opacity:1" fill="#6e7578" d="M 148.5,324.5 C 151.522,324.804 154.522,325.304 157.5,326C 153,331.833 148.5,337.667 144,343.5C 142.736,345.607 140.903,346.607 138.5,346.5C 137.238,341.717 135.572,337.05 133.5,332.5C 134.861,330.972 136.028,329.305 137,327.5C 137.879,332.136 139.545,336.469 142,340.5C 145.015,335.475 147.182,330.142 148.5,324.5 Z"/></g>
<g><path style="opacity:1" fill="#949a9d" d="M 167.5,327.5 C 169.291,323.656 171.625,323.489 174.5,327C 173.695,328.972 172.361,330.472 170.5,331.5C 169.943,329.668 168.943,328.335 167.5,327.5 Z"/></g>
<g><path style="opacity:1" fill="#c2c3c2" d="M 277.5,326.5 C 280.167,326.5 282.833,326.5 285.5,326.5C 287.918,334.021 285.252,337.687 277.5,337.5C 274.981,333.876 274.981,330.21 277.5,326.5 Z"/></g>
<g><path style="opacity:1" fill="#888d90" d="M 167.5,327.5 C 167.104,330.044 167.771,332.211 169.5,334C 168.531,335.758 167.364,336.258 166,335.5C 165.383,336.449 165.549,337.282 166.5,338C 165.531,339.758 164.364,340.258 163,339.5C 163.257,342.376 162.257,345.043 160,347.5C 158.426,348.984 157.093,350.651 156,352.5C 155.667,351.833 155.333,351.167 155,350.5C 154.667,352.167 154.333,353.833 154,355.5C 153.329,356.252 152.496,356.586 151.5,356.5C 150.259,354.122 150.926,352.289 153.5,351C 152.906,350.536 152.239,350.369 151.5,350.5C 152.919,347.9 154.585,345.4 156.5,343C 155.167,341.16 155.334,340.66 157,341.5C 160.363,336.65 163.863,331.983 167.5,327.5 Z"/></g>
<g><path style="opacity:1" fill="#919599" d="M 221.5,328.5 C 226.946,328.829 227.946,331.163 224.5,335.5C 221.833,336.167 221.833,336.833 224.5,337.5C 225.096,350.706 225.93,364.039 227,377.5C 229.354,388.92 234.187,399.087 241.5,408C 240.076,411.389 238.076,414.223 235.5,416.5C 229.817,408.1 225.484,399.1 222.5,389.5C 222.768,387.901 222.434,386.568 221.5,385.5C 218.899,366.514 218.899,347.514 221.5,328.5 Z"/></g>
<g><path style="opacity:1" fill="#949a9d" d="M 247.5,328.5 C 249.117,330.98 249.45,333.646 248.5,336.5C 241.914,340.709 235.414,345.043 229,349.5C 228.333,347.167 228.333,344.833 229,342.5C 235.635,338.354 241.801,333.687 247.5,328.5 Z"/></g>
<g><path style="opacity:1" fill="#c2c3c2" d="M 323.5,330.5 C 325.337,330.639 325.67,331.306 324.5,332.5C 323.702,332.043 323.369,331.376 323.5,330.5 Z"/></g>
<g><path style="opacity:1" fill="#c2c3c2" d="M 213.5,334.5 C 215.465,334.948 215.798,335.948 214.5,337.5C 213.614,336.675 213.281,335.675 213.5,334.5 Z"/></g>
<g><path style="opacity:1" fill="#c2c3c2" d="M 224.5,335.5 C 224.5,336.167 224.5,336.833 224.5,337.5C 221.833,336.833 221.833,336.167 224.5,335.5 Z"/></g>
<g><path style="opacity:1" fill="#828689" d="M 320.5,335.5 C 323.617,334.927 325.617,336.094 326.5,339C 322.364,359.44 315.531,378.94 306,397.5C 303.277,400.557 300.944,403.89 299,407.5C 297.316,409.351 295.483,411.018 293.5,412.5C 292.914,412.291 292.414,411.957 292,411.5C 291.132,408.515 290.799,405.515 291,402.5C 298.608,396.572 304.275,389.238 308,380.5C 310.372,372.751 313.038,365.084 316,357.5C 317.951,350.247 319.451,342.914 320.5,335.5 Z"/></g>
<g><path style="opacity:1" fill="#949a9d" d="M 249.5,339.5 C 250.496,339.414 251.329,339.748 252,340.5C 252.667,342.167 252.667,343.833 252,345.5C 246,359.5 240,373.5 234,387.5C 232.735,384.539 231.569,381.539 230.5,378.5C 236.084,365.001 242.417,352.001 249.5,339.5 Z"/></g>
<g><path style="opacity:1" fill="#c2c3c2" d="M 322.5,339.5 C 324.337,339.639 324.67,340.306 323.5,341.5C 322.702,341.043 322.369,340.376 322.5,339.5 Z"/></g>
<g><path style="opacity:1" fill="#949a9d" d="M 310.5,352.5 C 310.975,355.313 309.975,357.313 307.5,358.5C 307.719,357.325 307.386,356.325 306.5,355.5C 298.914,351.902 291.58,347.902 284.5,343.5C 285.167,342.167 286.167,341.167 287.5,340.5C 293.299,343.802 298.966,347.302 304.5,351C 306.345,352.128 308.345,352.628 310.5,352.5 Z"/></g>
<g><path style="opacity:1" fill="#c2c3c2" d="M 56.5,346.5 C 58.337,346.639 58.6704,347.306 57.5,348.5C 56.7025,348.043 56.3691,347.376 56.5,346.5 Z"/></g>
<g><path style="opacity:1" fill="#949a9d" d="M 254.5,347.5 C 255.16,348.964 255.493,350.631 255.5,352.5C 253.945,370.162 252.445,387.828 251,405.5C 250.42,410.401 248.753,410.735 246,406.5C 246.032,392.487 246.699,378.487 248,364.5C 250.471,358.915 252.638,353.248 254.5,347.5 Z"/></g>
<g><path style="opacity:1" fill="#6e7578" d="M 120.5,350.5 C 121.87,356.198 123.203,362.032 124.5,368C 117.891,372.477 115.224,370.644 116.5,362.5C 115.775,357.73 117.109,353.73 120.5,350.5 Z"/></g>
<g><path style="opacity:1" fill="#949a9d" d="M 272.5,409.5 C 271.833,409.5 271.5,409.833 271.5,410.5C 270.5,410.5 269.5,410.5 268.5,410.5C 265.409,393.88 261.742,377.38 257.5,361C 258.218,357.539 258.718,354.039 259,350.5C 261.071,351.525 263.238,352.358 265.5,353C 264.903,354.062 264.57,355.228 264.5,356.5C 267.494,374.128 270.16,391.795 272.5,409.5 Z"/></g>
<g><path style="opacity:1" fill="#949a9d" d="M 296.5,385.5 C 295.5,386.5 294.5,387.5 293.5,388.5C 284.82,376.996 276.486,365.163 268.5,353C 270.329,352.727 271.829,351.893 273,350.5C 280.696,362.344 288.53,374.01 296.5,385.5 Z"/></g>
<g><path style="opacity:1" fill="#84888c" d="M 148.5,351.5 C 141.926,360.974 135.592,370.641 129.5,380.5C 127.738,381.262 126.738,382.596 126.5,384.5C 120.267,392.619 114.267,400.952 108.5,409.5C 104.984,411.837 104.65,414.503 107.5,417.5C 108.303,418.423 108.47,419.423 108,420.5C 102.416,429.991 96.0827,438.991 89,447.5C 88.6174,446.944 88.1174,446.611 87.5,446.5C 87.6716,445.508 87.3382,444.842 86.5,444.5C 86.6567,443.127 86.49,441.793 86,440.5C 85.5831,441.756 84.7498,442.423 83.5,442.5C 82.4863,441.326 81.153,440.66 79.5,440.5C 78.105,439.352 78.2716,438.352 80,437.5C 82,438.833 84,438.833 86,437.5C 97.2774,420.557 108.944,403.89 121,387.5C 128.964,374.567 138.131,362.567 148.5,351.5 Z"/></g>
<g><path style="opacity:1" fill="#767a7c" d="M 69.5,359.5 C 70.3382,359.842 70.6716,360.508 70.5,361.5C 70.5,362.833 71.1667,363.5 72.5,363.5C 72.9175,364.222 73.5842,364.722 74.5,365C 71.9329,368.003 69.2663,370.836 66.5,373.5C 63.5816,371.024 62.4149,368.024 63,364.5C 60.932,362.604 59.0987,360.604 57.5,358.5C 58.4616,356.014 59.2949,356.014 60,358.5C 60.5,357.333 61.3333,356.5 62.5,356C 60.2985,355.223 60.2985,354.056 62.5,352.5C 64.6946,355.045 65.8613,357.712 66,360.5C 67.0113,359.663 68.1779,359.33 69.5,359.5 Z"/></g>
<g><path style="opacity:1" fill="#6e7578" d="M 133.5,353.5 C 134.239,353.369 134.906,353.536 135.5,354C 132.333,357.833 129.167,361.667 126,365.5C 125.333,364.167 125.333,362.833 126,361.5C 128.705,358.964 131.205,356.297 133.5,353.5 Z"/></g>
<g><path style="opacity:1" fill="#000000" d="M 70.5,361.5 C 71.5,361.833 72.1667,362.5 72.5,363.5C 71.1667,363.5 70.5,362.833 70.5,361.5 Z"/></g>
<g><path style="opacity:1" fill="#6e7578" d="M 112.5,372.5 C 114.854,372.838 117.187,373.338 119.5,374C 118.874,374.75 118.374,375.584 118,376.5C 116.266,375.751 114.433,375.251 112.5,375C 111.402,374.23 111.402,373.397 112.5,372.5 Z"/></g>
<g><path style="opacity:1" fill="#949a9d" d="M 76.5,376.5 C 77.7892,373.678 79.7892,373.011 82.5,374.5C 81.2055,377.487 79.2055,378.154 76.5,376.5 Z"/></g>
<g><path style="opacity:1" fill="#949a9d" d="M 76.5,376.5 C 77.0577,377.79 78.0577,378.623 79.5,379C 77.8008,382.29 76.1341,382.29 74.5,379C 74.6387,377.699 75.3054,376.866 76.5,376.5 Z"/></g>
<g><path style="opacity:1" fill="#c2c3c2" d="M 214.5,378.5 C 216.337,378.639 216.67,379.306 215.5,380.5C 214.702,380.043 214.369,379.376 214.5,378.5 Z"/></g>
<g><path style="opacity:1" fill="#000000" d="M 129.5,380.5 C 129.262,382.404 128.262,383.738 126.5,384.5C 126.738,382.596 127.738,381.262 129.5,380.5 Z"/></g>
<g><path style="opacity:1" fill="#2e3033" d="M 71.5,381.5 C 76.0165,382.625 76.3498,384.292 72.5,386.5C 71.5,386 70.5,385.5 69.5,385C 70.8228,384.184 71.4894,383.017 71.5,381.5 Z"/></g>
<g><path style="opacity:1" fill="#656b6e" d="M 106.5,390.5 C 102.083,390.347 97.4158,390.347 92.5,390.5C 91.2935,389.12 91.6269,387.953 93.5,387C 95.1667,386.667 96.8333,386.333 98.5,386C 94.6257,384.207 94.9591,383.041 99.5,382.5C 103.573,383.012 107.573,383.845 111.5,385C 109.598,386.73 107.931,388.563 106.5,390.5 Z"/></g>
<g><path style="opacity:1" fill="#707477" d="M 151.5,350.5 C 152.239,350.369 152.906,350.536 153.5,351C 150.926,352.289 150.259,354.122 151.5,356.5C 151.649,357.552 151.483,358.552 151,359.5C 144.349,369.28 137.849,377.78 131.5,385C 131.833,385.333 132.167,385.667 132.5,386C 125.544,395.412 118.711,404.912 112,414.5C 111.722,413.584 111.222,412.918 110.5,412.5C 109.449,411.778 108.782,410.778 108.5,409.5C 114.267,400.952 120.267,392.619 126.5,384.5C 128.262,383.738 129.262,382.404 129.5,380.5C 135.592,370.641 141.926,360.974 148.5,351.5C 149.031,348.233 150.031,347.9 151.5,350.5 Z"/></g>
<g><path style="opacity:1" fill="#28282c" d="M 222.5,389.5 C 225.484,399.1 229.817,408.1 235.5,416.5C 236.167,417.833 237.167,418.833 238.5,419.5C 241.621,421.448 244.621,423.615 247.5,426C 261.466,428.974 274.466,426.474 286.5,418.5C 286.938,418.435 287.272,418.601 287.5,419C 267.015,436.561 246.848,436.061 227,417.5C 220.33,408.828 215.83,399.162 213.5,388.5C 216.455,389.159 219.455,389.492 222.5,389.5 Z"/></g>
<g><path style="opacity:1" fill="#252629" d="M 106.5,390.5 C 105.428,392.571 103.761,393.905 101.5,394.5C 97.408,393.99 93.408,393.157 89.5,392C 90.2438,390.961 91.2438,390.461 92.5,390.5C 97.4158,390.347 102.083,390.347 106.5,390.5 Z"/></g>
<g><path style="opacity:1" fill="#c2c3c2" d="M 216.5,394.5 C 217.675,394.281 218.675,394.614 219.5,395.5C 217.948,396.798 216.948,396.465 216.5,394.5 Z"/></g>
<g><path style="opacity:1" fill="#949a9d" d="M 71.5,404.5 C 78.3351,405.709 85.0018,407.542 91.5,410C 90.737,410.944 89.737,411.444 88.5,411.5C 83.8333,410.333 79.1667,409.167 74.5,408C 72.5743,407.578 71.5743,406.411 71.5,404.5 Z"/></g>
<g><path style="opacity:1" fill="#c2c3c2" d="M 292.5,404.5 C 294.337,404.639 294.67,405.306 293.5,406.5C 292.702,406.043 292.369,405.376 292.5,404.5 Z"/></g>
<g><path style="opacity:1" fill="#83888b" d="M 286.5,418.5 C 274.466,426.474 261.466,428.974 247.5,426C 244.621,423.615 241.621,421.448 238.5,419.5C 238.563,416.805 239.563,415.805 241.5,416.5C 242.833,416.5 243.5,415.833 243.5,414.5C 241.407,413.114 241.574,411.447 244,409.5C 245.319,411.487 247.152,412.654 249.5,413C 256.789,414.661 264.122,415.661 271.5,416C 277.515,413.321 283.015,409.821 288,405.5C 289.084,408.249 289.917,411.082 290.5,414C 289.656,416.007 288.323,417.507 286.5,418.5 Z"/></g>
<g><path style="opacity:1" fill="#c2c3c2" d="M 235.5,407.5 C 237.337,407.639 237.67,408.306 236.5,409.5C 235.702,409.043 235.369,408.376 235.5,407.5 Z"/></g>
<g><path style="opacity:1" fill="#000000" d="M 108.5,409.5 C 108.782,410.778 109.449,411.778 110.5,412.5C 108.259,413.3 107.259,414.966 107.5,417.5C 104.65,414.503 104.984,411.837 108.5,409.5 Z"/></g>
<g><path style="opacity:1" fill="#c2c3c2" d="M 283.5,411.5 C 285.337,411.639 285.67,412.306 284.5,413.5C 283.702,413.043 283.369,412.376 283.5,411.5 Z"/></g>
<g><path style="opacity:1" fill="#949a9d" d="M 110.5,412.5 C 110.741,415.034 109.741,416.7 107.5,417.5C 107.259,414.966 108.259,413.3 110.5,412.5 Z"/></g>
<g><path style="opacity:1" fill="#c2c3c2" d="M 243.5,414.5 C 243.5,415.833 242.833,416.5 241.5,416.5C 241.5,415.167 242.167,414.5 243.5,414.5 Z"/></g>
<g><path style="opacity:1" fill="#949a9d" d="M 68.5,435.5 C 61.5077,432.393 54.1743,430.059 46.5,428.5C 44.9577,427.859 43.6243,426.859 42.5,425.5C 44.4213,424.359 46.4213,424.192 48.5,425C 56.2158,427.513 63.8825,430.179 71.5,433C 72.8333,433.667 72.8333,434.333 71.5,435C 70.552,435.483 69.552,435.649 68.5,435.5 Z"/></g>
<g><path style="opacity:1" fill="#5e6366" d="M 46.5,428.5 C 54.1743,430.059 61.5077,432.393 68.5,435.5C 70.8157,437.172 70.3157,438.505 67,439.5C 64.2745,438.203 61.4412,437.203 58.5,436.5C 57.3279,436.919 56.3279,437.585 55.5,438.5C 48.7451,438.408 44.7451,435.075 43.5,428.5C 44.5,428.5 45.5,428.5 46.5,428.5 Z"/></g>
<g><path style="opacity:1" fill="#b1b3a4" d="M 59.5,439.5 C 62.0163,439.755 64.3496,440.589 66.5,442C 63.8333,445.333 61.1667,448.667 58.5,452C 51.9908,452.186 48.4908,455.352 48,461.5C 48.7247,462.059 49.5581,462.392 50.5,462.5C 54.0295,461.363 57.3628,460.196 60.5,459C 55.868,464.697 50.868,465.364 45.5,461C 44.4494,452.349 48.4494,447.349 57.5,446C 59.229,444.211 59.8957,442.044 59.5,439.5 Z"/></g>
<g><path style="opacity:1" fill="#64696d" d="M 79.5,440.5 C 81.153,440.66 82.4863,441.326 83.5,442.5C 84.2905,443.401 85.2905,444.068 86.5,444.5C 87.3382,444.842 87.6716,445.508 87.5,446.5C 87.5299,447.497 87.0299,448.164 86,448.5C 82.0657,447.393 78.2323,446.06 74.5,444.5C 75.6046,442.389 77.2712,441.055 79.5,440.5 Z"/></g>
<g><path style="opacity:1" fill="#000000" d="M 86.5,444.5 C 85.2905,444.068 84.2905,443.401 83.5,442.5C 84.7498,442.423 85.5831,441.756 86,440.5C 86.49,441.793 86.6567,443.127 86.5,444.5 Z"/></g>
</svg>
