<?xml version="1.0" encoding="UTF-8"?>
<!DOCTYPE svg PUBLIC "-//W3C//DTD SVG 1.1//EN" "http://www.w3.org/Graphics/SVG/1.1/DTD/svg11.dtd">
<svg xmlns="http://www.w3.org/2000/svg" version="1.1" width="968px" height="631px" style="shape-rendering:geometricPrecision; text-rendering:geometricPrecision; image-rendering:optimizeQuality; fill-rule:evenodd; clip-rule:evenodd" xmlns:xlink="http://www.w3.org/1999/xlink">
<g><path style="opacity:1" fill="#a3a2a4" d="M 857.5,260.5 C 857.149,258.131 856.982,255.797 857,253.5C 859.984,256.085 861.651,259.418 862,263.5C 863.829,265.156 865.163,267.156 866,269.5C 867.461,282.682 869.461,295.682 872,308.5C 875.316,309.829 878.65,311.162 882,312.5C 884.768,310.349 887.768,310.015 891,311.5C 893.46,309.673 895.793,307.673 898,305.5C 901.049,299.944 902.715,293.944 903,287.5C 910,279.167 917.667,271.5 926,264.5C 929.716,260.452 933.05,256.118 936,251.5C 941.895,247.54 947.228,242.874 952,237.5C 953.819,231.237 952.319,225.737 947.5,221C 948.252,220.329 948.586,219.496 948.5,218.5C 945.4,212.238 940.4,208.405 933.5,207C 923.707,193.924 915.041,180.091 907.5,165.5C 904.262,162.093 900.595,159.259 896.5,157C 883.904,155.393 871.237,155.059 858.5,156C 851.387,157.72 848.387,162.22 849.5,169.5C 846.998,162.013 849.664,157.18 857.5,155C 862.5,154.667 867.5,154.333 872.5,154C 887.952,147.262 902.952,148.262 917.5,157C 922.079,163.303 927.246,169.136 933,174.5C 934.667,177.167 936.333,179.833 938,182.5C 941.866,195.394 946.699,207.894 952.5,220C 952.056,221.533 951.723,223.033 951.5,224.5C 955.709,230.509 955.209,236.175 950,241.5C 949.667,244.167 949.333,246.833 949,249.5C 948.758,258.703 949.258,267.87 950.5,277C 951.404,289.618 947.904,300.785 940,310.5C 931.705,319.135 922.538,326.635 912.5,333C 905.901,334.09 899.567,333.256 893.5,330.5C 889.822,333.006 885.822,334.173 881.5,334C 875.021,330.002 869.188,325.168 864,319.5C 861.775,315.719 860.109,311.719 859,307.5C 859.027,296.029 857.861,284.695 855.5,273.5C 856.009,269.133 856.676,264.799 857.5,260.5 Z"/></g>
<g><path style="opacity:1" fill="#e0a685" d="M 948.5,218.5 C 943.346,216.086 937.846,215.086 932,215.5C 925.121,215.935 918.287,216.435 911.5,217C 908.438,215.939 905.938,214.106 904,211.5C 896.401,197.581 884.901,188.414 869.5,184C 868.333,182.833 867.167,181.667 866,180.5C 865.383,179.551 865.549,178.718 866.5,178C 870.259,177.059 874.093,176.559 878,176.5C 881.775,174.687 885.442,172.687 889,170.5C 890.837,165.591 889.003,162.424 883.5,161C 873.675,160.492 864.341,162.492 855.5,167C 853.45,168.965 851.783,171.132 850.5,173.5C 849.566,172.432 849.232,171.099 849.5,169.5C 848.387,162.22 851.387,157.72 858.5,156C 871.237,155.059 883.904,155.393 896.5,157C 900.595,159.259 904.262,162.093 907.5,165.5C 915.041,180.091 923.707,193.924 933.5,207C 940.4,208.405 945.4,212.238 948.5,218.5 Z"/></g>
<g><path style="opacity:1" fill="#fdbe81" d="M 948.5,218.5 C 948.586,219.496 948.252,220.329 947.5,221C 952.319,225.737 953.819,231.237 952,237.5C 947.228,242.874 941.895,247.54 936,251.5C 933.05,256.118 929.716,260.452 926,264.5C 917.667,271.5 910,279.167 903,287.5C 902.715,293.944 901.049,299.944 898,305.5C 895.793,307.673 893.46,309.673 891,311.5C 887.768,310.015 884.768,310.349 882,312.5C 878.65,311.162 875.316,309.829 872,308.5C 869.461,295.682 867.461,282.682 866,269.5C 865.163,267.156 863.829,265.156 862,263.5C 861.651,259.418 859.984,256.085 857,253.5C 856.982,255.797 857.149,258.131 857.5,260.5C 855.745,257.156 854.745,253.489 854.5,249.5C 860.24,233.704 856.573,220.37 843.5,209.5C 842.954,208.228 842.621,206.894 842.5,205.5C 845.799,194.969 848.466,184.303 850.5,173.5C 851.783,171.132 853.45,168.965 855.5,167C 864.341,162.492 873.675,160.492 883.5,161C 889.003,162.424 890.837,165.591 889,170.5C 885.442,172.687 881.775,174.687 878,176.5C 874.093,176.559 870.259,177.059 866.5,178C 865.549,178.718 865.383,179.551 866,180.5C 867.167,181.667 868.333,182.833 869.5,184C 884.901,188.414 896.401,197.581 904,211.5C 905.938,214.106 908.438,215.939 911.5,217C 918.287,216.435 925.121,215.935 932,215.5C 937.846,215.086 943.346,216.086 948.5,218.5 Z"/></g>
</svg>
