<?xml version="1.0" encoding="UTF-8"?>
<!DOCTYPE svg PUBLIC "-//W3C//DTD SVG 1.1//EN" "http://www.w3.org/Graphics/SVG/1.1/DTD/svg11.dtd">
<svg xmlns="http://www.w3.org/2000/svg" version="1.1" width="968px" height="631px" style="shape-rendering:geometricPrecision; text-rendering:geometricPrecision; image-rendering:optimizeQuality; fill-rule:evenodd; clip-rule:evenodd" xmlns:xlink="http://www.w3.org/1999/xlink">
<g><path style="opacity:1" fill="#b6b6b7" d="M 949.5,226.5 C 937.829,226.333 926.162,226.5 914.5,227C 909.142,228.182 904.142,230.182 899.5,233C 882.139,235.863 865.139,234.53 848.5,229C 842.473,227.966 836.806,228.966 831.5,232C 825.833,236.333 820.167,240.667 814.5,245C 828.382,245.193 842.215,246.026 856,247.5C 866.473,245.798 876.973,245.465 887.5,246.5C 891.555,246.425 895.555,245.925 899.5,245C 914.266,238.974 929.6,236.14 945.5,236.5C 945.826,250.79 947.993,264.79 952,278.5C 952.667,286.833 952.667,295.167 952,303.5C 951,305.5 950,307.5 949,309.5C 944.403,313.886 939.903,318.386 935.5,323C 925.63,327.516 915.63,327.516 905.5,323C 887.357,320.15 871.357,324.483 857.5,336C 853.134,340.561 849.634,345.728 847,351.5C 844.657,367.889 841.991,384.222 839,400.5C 834.442,411.842 826.608,414.676 815.5,409C 811.46,407.31 807.46,405.643 803.5,404C 795.5,399 787.5,394 779.5,389C 766.567,378.067 752.567,368.734 737.5,361C 723.766,355.866 710.099,350.532 696.5,345C 682.148,343.222 667.815,343.556 653.5,346C 644.422,347.757 637.589,352.59 633,360.5C 630.376,370.544 626.876,380.21 622.5,389.5C 620.355,392.074 617.688,393.907 614.5,395C 607.455,396.5 600.455,398 593.5,399.5C 590.659,402.672 587.992,406.005 585.5,409.5C 578.405,415.882 570.071,418.215 560.5,416.5C 549.125,416.263 537.791,415.429 526.5,414C 519.474,411.27 512.141,409.603 504.5,409C 503.32,406.402 501.32,404.736 498.5,404C 487.706,402.682 477.206,403.849 467,407.5C 444.961,418.765 422.127,428.265 398.5,436C 376.338,447.878 352.672,452.211 327.5,449C 311.812,441.892 296.478,434.225 281.5,426C 277.912,423.623 274.412,421.123 271,418.5C 262.668,396.842 248.168,381.008 227.5,371C 224.071,366.58 219.738,363.247 214.5,361C 209.339,356.856 205.506,351.689 203,345.5C 200.217,328.108 197.217,310.774 194,293.5C 193.024,283.715 193.69,274.049 196,264.5C 206.239,247.891 218.072,232.391 231.5,218C 239.273,212.075 247.94,208.075 257.5,206C 277.511,201.663 297.511,197.33 317.5,193C 327.599,189.731 336.599,184.564 344.5,177.5C 351.328,173.461 358.661,170.961 366.5,170C 393.699,168.636 420.032,163.302 445.5,154C 460.675,151.251 475.008,153.585 488.5,161C 497.456,163.792 506.456,166.458 515.5,169C 524.77,173.267 532.937,179.101 540,186.5C 541.669,190.847 544.502,194.18 548.5,196.5C 565.49,197.666 582.49,197.833 599.5,197C 611.861,195.243 623.861,192.243 635.5,188C 645.849,187.168 656.183,187.334 666.5,188.5C 666.711,196.871 670.878,201.538 679,202.5C 699.668,199.497 719.168,192.997 737.5,183C 749.202,179.655 760.535,175.321 771.5,170C 774.529,169.461 777.529,168.794 780.5,168C 796.215,160.814 812.215,154.147 828.5,148C 842.531,143.823 856.864,142.49 871.5,144C 883.146,147.658 894.146,152.658 904.5,159C 919.807,172.445 932.64,187.945 943,205.5C 949.252,209.95 952.252,215.95 952,223.5C 950.955,224.373 950.122,225.373 949.5,226.5 Z"/></g>
<g><path style="opacity:1" fill="#fca670" d="M 949.5,226.5 C 947.237,229.44 945.904,232.773 945.5,236.5C 929.6,236.14 914.266,238.974 899.5,245C 895.555,245.925 891.555,246.425 887.5,246.5C 876.973,245.465 866.473,245.798 856,247.5C 842.215,246.026 828.382,245.193 814.5,245C 820.167,240.667 825.833,236.333 831.5,232C 836.806,228.966 842.473,227.966 848.5,229C 865.139,234.53 882.139,235.863 899.5,233C 904.142,230.182 909.142,228.182 914.5,227C 926.162,226.5 937.829,226.333 949.5,226.5 Z"/></g>
<g><path style="opacity:1" fill="#fca670" d="M 282.5,246.5 C 286.35,246.178 289.517,247.511 292,250.5C 294.202,263.853 296.536,277.187 299,290.5C 304.805,301.311 311.805,311.311 320,320.5C 320.238,329.174 319.905,337.841 319,346.5C 317.615,347.551 316.615,348.884 316,350.5C 303.578,355.033 290.745,356.533 277.5,355C 261.731,352.564 252.564,343.397 250,327.5C 249.787,319.124 249.121,310.79 248,302.5C 247.02,300.941 246.187,299.274 245.5,297.5C 243.929,296.691 242.262,296.357 240.5,296.5C 237.845,291.328 234.178,286.828 229.5,283C 232.93,277.571 237.596,273.571 243.5,271C 250.458,269.936 257.458,269.269 264.5,269C 268.301,266.308 271.801,263.142 275,259.5C 276.993,254.845 279.493,250.511 282.5,246.5 Z"/></g>
<g><path style="opacity:1" fill="#000000" d="M 33.5,337.5 C 40.657,337.155 43.8237,340.488 43,347.5C 38.3333,354.167 33.6667,354.167 29,347.5C 28.0769,343.017 29.5769,339.683 33.5,337.5 Z"/></g>
</svg>
