<?xml version="1.0" encoding="UTF-8"?>
<!DOCTYPE svg PUBLIC "-//W3C//DTD SVG 1.1//EN" "http://www.w3.org/Graphics/SVG/1.1/DTD/svg11.dtd">
<svg xmlns="http://www.w3.org/2000/svg" version="1.1" width="968px" height="631px" style="shape-rendering:geometricPrecision; text-rendering:geometricPrecision; image-rendering:optimizeQuality; fill-rule:evenodd; clip-rule:evenodd" xmlns:xlink="http://www.w3.org/1999/xlink">
<g><path style="opacity:1" fill="#b6b6b7" d="M 395.5,168.5 C 406.172,168.333 416.839,168.5 427.5,169C 449.373,172.625 471.373,175.292 493.5,177C 511.637,180.38 529.304,185.38 546.5,192C 567.594,198.013 589.094,201.513 611,202.5C 628.945,202.426 646.445,199.593 663.5,194C 690.936,189.846 718.269,185.179 745.5,180C 775.497,178.032 805.497,178.032 835.5,180C 860.531,182.264 884.198,188.93 906.5,200C 918.993,206.412 931.326,213.079 943.5,220C 948.287,221.561 952.954,223.395 957.5,225.5C 956.103,230.192 954.603,234.859 953,239.5C 951.377,259.629 946.71,278.962 939,297.5C 934.599,305.799 929.099,313.299 922.5,320C 919.116,321.96 915.45,322.793 911.5,322.5C 898.825,321.221 886.492,318.388 874.5,314C 868.938,312.419 864.438,313.919 861,318.5C 859.333,321.833 857.667,325.167 856,328.5C 855.557,350.294 849.557,370.294 838,388.5C 832.289,395.137 825.123,397.304 816.5,395C 799.961,391.156 784.295,385.156 769.5,377C 749.537,365.469 729.87,353.469 710.5,341C 698.892,335.871 686.726,333.704 674,334.5C 653.293,333.405 633.793,337.572 615.5,347C 609.167,352.667 602.833,358.333 596.5,364C 585.939,378.611 572.605,389.945 556.5,398C 549.432,405.738 541.766,412.738 533.5,419C 528.697,420.935 523.697,421.768 518.5,421.5C 499.213,419.03 479.88,417.03 460.5,415.5C 444.441,414.611 429.441,418.111 415.5,426C 400.557,434.422 386.224,443.755 372.5,454C 366.26,457.789 359.593,460.455 352.5,462C 334.914,463.61 317.58,462.276 300.5,458C 279.887,451.349 260.554,442.016 242.5,430C 238.084,427.588 234.251,424.422 231,420.5C 222.749,407.667 214.749,394.667 207,381.5C 204.5,379 202,376.5 199.5,374C 188.201,368.038 178.368,360.204 170,350.5C 168.726,341.862 169.726,333.528 173,325.5C 174.11,316.849 175.11,308.182 176,299.5C 180.145,287.73 183.479,275.73 186,263.5C 188,258.833 190,254.167 192,249.5C 198.996,240.178 205.496,230.512 211.5,220.5C 214.357,216.143 218.023,212.643 222.5,210C 239.407,201.369 257.407,197.036 276.5,197C 294.809,195.543 313.142,194.543 331.5,194C 340.046,192.108 347.713,188.441 354.5,183C 367.916,177.075 381.582,172.242 395.5,168.5 Z"/></g>
<g><path style="opacity:1" fill="#fca670" d="M 951.5,225.5 C 952.552,225.351 953.552,225.517 954.5,226C 952.419,229.75 949.419,232.416 945.5,234C 920.061,237.342 894.727,241.342 869.5,246C 856.687,246.904 844.687,244.238 833.5,238C 853.216,236.155 872.883,233.822 892.5,231C 912.546,231.602 932.213,229.768 951.5,225.5 Z"/></g>
</svg>
