<?xml version="1.0" encoding="UTF-8"?>
<!DOCTYPE svg PUBLIC "-//W3C//DTD SVG 1.1//EN" "http://www.w3.org/Graphics/SVG/1.1/DTD/svg11.dtd">
<svg xmlns="http://www.w3.org/2000/svg" version="1.1" width="968px" height="631px" style="shape-rendering:geometricPrecision; text-rendering:geometricPrecision; image-rendering:optimizeQuality; fill-rule:evenodd; clip-rule:evenodd" xmlns:xlink="http://www.w3.org/1999/xlink">
<g><path style="opacity:1" fill="#b6b6b7" d="M 403.5,169.5 C 412.287,169.246 420.954,170.08 429.5,172C 432.39,177.387 436.39,181.553 441.5,184.5C 451.37,182.471 461.37,181.971 471.5,183C 473.96,184.458 476.127,186.291 478,188.5C 479.902,192.739 482.235,196.739 485,200.5C 485.667,202.5 485.667,204.5 485,206.5C 483.689,210.958 482.522,215.458 481.5,220C 481.726,223.012 482.559,225.845 484,228.5C 496.733,240.523 511.567,244.357 528.5,240C 549.626,230.514 571.626,223.847 594.5,220C 599.604,218.613 604.604,216.946 609.5,215C 611.305,214.028 612.972,212.861 614.5,211.5C 621.2,192.496 634.533,182.162 654.5,180.5C 655.022,185.067 656.355,189.4 658.5,193.5C 663.498,196.982 668.165,196.315 672.5,191.5C 675.795,185.742 679.461,180.242 683.5,175C 692.476,170.412 701.81,169.078 711.5,171C 715.306,177.1 720.139,182.266 726,186.5C 730.577,189.359 735.577,191.026 741,191.5C 752.178,188.502 763.345,185.335 774.5,182C 793.832,179.667 813.165,177.333 832.5,175C 857.289,172.912 881.622,175.246 905.5,182C 918.52,188.171 930.52,195.837 941.5,205C 946.496,209.821 950.496,215.321 953.5,221.5C 954.325,222.386 955.325,222.719 956.5,222.5C 959.178,243.743 960.011,265.076 959,286.5C 957.065,298.668 951.898,309.168 943.5,318C 937.614,322.572 930.947,324.405 923.5,323.5C 918.765,323.531 914.099,323.031 909.5,322C 903.167,317.667 896.833,313.333 890.5,309C 883.629,308.401 877.796,310.568 873,315.5C 865.571,326.499 857.071,336.665 847.5,346C 830.52,359.941 815.02,358.441 801,341.5C 798.074,337.318 794.907,333.318 791.5,329.5C 788.692,328.03 785.692,327.197 782.5,327C 761.817,323.88 742.15,326.88 723.5,336C 714.896,337.124 706.562,336.124 698.5,333C 693.572,330.827 688.905,328.161 684.5,325C 651.975,327.17 619.641,331.17 587.5,337C 578.212,339.562 570.712,344.728 565,352.5C 555.626,366.218 546.626,380.218 538,394.5C 526.028,407.04 512.528,408.873 497.5,400C 488.181,390.513 480.181,380.013 473.5,368.5C 466.727,367.457 460.894,369.457 456,374.5C 453.41,379.349 451.076,384.349 449,389.5C 441.611,399.223 434.611,409.223 428,419.5C 423.252,424.902 417.419,428.736 410.5,431C 395.14,431.906 379.807,433.24 364.5,435C 360.392,436.027 356.392,437.36 352.5,439C 342.873,445.98 332.54,451.646 321.5,456C 304.494,457.962 287.494,457.962 270.5,456C 263.112,453.955 256.112,450.955 249.5,447C 242.263,445.084 234.929,443.917 227.5,443.5C 225.809,435.629 221.809,429.129 215.5,424C 203.325,416.079 190.992,408.413 178.5,401C 169,392.5 159.5,384 150,375.5C 147.609,368.054 146.276,360.387 146,352.5C 145.333,327.5 145.333,302.5 146,277.5C 148.179,271.804 150.512,266.137 153,260.5C 156.333,255.833 159.667,251.167 163,246.5C 165.694,243.14 168.694,240.14 172,237.5C 179.12,225.082 188.62,214.916 200.5,207C 209.061,204.789 216.061,200.122 221.5,193C 227.955,188.877 234.955,187.544 242.5,189C 255.258,193.208 268.258,196.542 281.5,199C 292.143,200.266 302.81,200.599 313.5,200C 324.167,194 334.833,188 345.5,182C 360.402,176.87 375.735,173.87 391.5,173C 395.75,172.261 399.75,171.094 403.5,169.5 Z"/></g>
<g><path style="opacity:1" fill="#fca670" d="M 942.5,226.5 C 946.833,226.5 951.167,226.5 955.5,226.5C 955.785,228.288 955.452,229.955 954.5,231.5C 940.424,235.12 926.091,236.953 911.5,237C 902.556,239.152 893.556,241.152 884.5,243C 873.795,243.644 863.128,244.644 852.5,246C 842.523,248.937 832.523,251.77 822.5,254.5C 817.759,252.294 813.092,249.794 808.5,247C 802.2,246.557 802.2,245.224 808.5,243C 818.192,242.203 827.859,241.203 837.5,240C 840.023,239.482 842.023,238.148 843.5,236C 855.476,236.265 867.476,235.932 879.5,235C 882.5,234 885.5,233 888.5,232C 906.731,230.937 924.731,229.104 942.5,226.5 Z"/></g>
</svg>
