<?xml version="1.0" encoding="UTF-8"?>
<!DOCTYPE svg PUBLIC "-//W3C//DTD SVG 1.1//EN" "http://www.w3.org/Graphics/SVG/1.1/DTD/svg11.dtd">
<svg xmlns="http://www.w3.org/2000/svg" version="1.1" width="968px" height="631px" style="shape-rendering:geometricPrecision; text-rendering:geometricPrecision; image-rendering:optimizeQuality; fill-rule:evenodd; clip-rule:evenodd" xmlns:xlink="http://www.w3.org/1999/xlink">
<g><path style="opacity:1" fill="#b6b6b7" d="M 678.5,163.5 C 692.471,164.261 706.137,166.761 719.5,171C 733.707,176.221 747.707,181.887 761.5,188C 777.041,192.508 792.874,195.342 809,196.5C 823.05,196.255 836.883,194.421 850.5,191C 855.982,188.423 860.982,185.09 865.5,181C 876.37,174.863 888.037,172.863 900.5,175C 912.362,176.287 923.362,179.954 933.5,186C 942.9,191.965 948.4,200.465 950,211.5C 952.5,216 955,220.5 957.5,225C 956.751,243.766 956.584,262.6 957,281.5C 955.892,291.549 951.725,300.049 944.5,307C 935.051,310.746 925.385,311.413 915.5,309C 907.519,305.449 899.352,302.282 891,299.5C 885.863,300.293 881.363,302.46 877.5,306C 865.109,317.381 854.609,330.214 846,344.5C 840.716,356.246 837.716,368.579 837,381.5C 835.39,386.331 833.39,390.997 831,395.5C 829.68,397.654 827.847,399.154 825.5,400C 812.071,400.863 799.071,398.863 786.5,394C 768.874,383.688 750.541,374.688 731.5,367C 721.15,360.986 711.65,353.82 703,345.5C 701.124,337.014 697.624,329.347 692.5,322.5C 686.889,318.613 680.722,315.946 674,314.5C 664.668,315.944 655.835,318.778 647.5,323C 631.03,322.078 615.03,324.412 599.5,330C 598.271,331.529 596.771,332.696 595,333.5C 588.028,343.971 580.862,354.305 573.5,364.5C 564.008,373.825 552.675,376.992 539.5,374C 531.016,373.086 522.683,371.419 514.5,369C 502.666,365.082 491.333,360.082 480.5,354C 471.285,353.702 462.285,355.035 453.5,358C 448.58,360.196 443.58,362.196 438.5,364C 435.705,365.793 433.205,367.96 431,370.5C 430.5,376.509 430.667,382.509 431.5,388.5C 432.284,403.195 425.951,413.362 412.5,419C 393.675,429.824 374.008,431.49 353.5,424C 347.772,421.425 342.438,418.259 337.5,414.5C 319.61,421.621 304.276,432.454 291.5,447C 285.453,451.692 278.786,455.359 271.5,458C 266.167,458.667 260.833,458.667 255.5,458C 250.608,456.106 245.941,453.772 241.5,451C 233.46,444.424 224.794,438.757 215.5,434C 201.944,421.73 186.944,411.73 170.5,404C 154.691,402.632 141.524,396.132 131,384.5C 130.439,381.71 129.106,379.377 127,377.5C 123.235,364.674 120.235,351.674 118,338.5C 115.324,333.652 112.157,330.818 108.5,330C 107.817,307.387 113.983,286.887 127,268.5C 130.815,264.355 134.981,260.522 139.5,257C 147.819,252.842 155.819,248.175 163.5,243C 175.042,229.928 185.375,215.928 194.5,201C 207.662,192.251 222.162,188.417 238,189.5C 245.202,189.532 252.369,190.032 259.5,191C 272.908,196.18 285.908,202.014 298.5,208.5C 300.889,207.82 303.222,206.986 305.5,206C 308.899,202.939 311.899,199.606 314.5,196C 322.044,193.476 329.71,192.976 337.5,194.5C 344.722,194.221 351.055,191.721 356.5,187C 360.533,182.632 364.866,178.632 369.5,175C 382.959,176.994 396.626,178.66 410.5,180C 427.249,182.637 442.915,188.137 457.5,196.5C 459.524,198.69 461.357,201.023 463,203.5C 465.205,211.987 467.871,220.32 471,228.5C 473.5,232.333 476.667,235.5 480.5,238C 510.262,244.842 540.262,246.176 570.5,242C 578.998,241.512 586.498,238.679 593,233.5C 603.374,211.808 620.541,199.308 644.5,196C 647.063,190.755 649.729,185.588 652.5,180.5C 661.228,174.743 669.894,169.076 678.5,163.5 Z"/></g>
<g><path style="opacity:1" fill="#fca670" d="M 930.5,224.5 C 938.844,224.612 947.178,224.945 955.5,225.5C 955.703,227.39 955.037,228.89 953.5,230C 948.376,232.562 943.043,234.562 937.5,236C 914.86,235.043 892.527,237.043 870.5,242C 857.83,243.971 845.163,243.971 832.5,242C 837.44,240.353 842.44,238.687 847.5,237C 864.481,235.207 881.481,233.54 898.5,232C 909.645,230.942 920.311,228.442 930.5,224.5 Z"/></g>
</svg>
