<?xml version="1.0" encoding="UTF-8"?>
<!DOCTYPE svg PUBLIC "-//W3C//DTD SVG 1.1//EN" "http://www.w3.org/Graphics/SVG/1.1/DTD/svg11.dtd">
<svg xmlns="http://www.w3.org/2000/svg" version="1.1" width="968px" height="631px" style="shape-rendering:geometricPrecision; text-rendering:geometricPrecision; image-rendering:optimizeQuality; fill-rule:evenodd; clip-rule:evenodd" xmlns:xlink="http://www.w3.org/1999/xlink">
<g><path style="opacity:1" fill="#b7b6b8" d="M 750.5,139.5 C 768.777,137.841 786.111,141.008 802.5,149C 811.482,156.317 819.482,164.65 826.5,174C 830.234,176.246 834.234,177.913 838.5,179C 845.883,179.161 853.216,178.495 860.5,177C 872.326,173.568 884.326,170.901 896.5,169C 903.167,168.333 909.833,168.333 916.5,169C 934.245,175.745 946.745,187.911 954,205.5C 956.236,219.965 959.07,234.298 962.5,248.5C 961.254,262.5 957.087,275.5 950,287.5C 942.284,296.608 932.784,303.108 921.5,307C 918.5,307.667 915.5,307.667 912.5,307C 905.61,304.638 898.777,302.138 892,299.5C 871.683,302.495 854.017,310.828 839,324.5C 834.717,329.739 833.384,335.739 835,342.5C 841.714,350.212 848.047,358.212 854,366.5C 857.711,377.765 855.544,387.598 847.5,396C 841.779,400.721 835.779,405.054 829.5,409C 822.793,411.927 815.793,413.76 808.5,414.5C 796.061,413.369 784.061,410.536 772.5,406C 769.772,403.608 766.772,401.608 763.5,400C 756.167,391.667 748.833,383.333 741.5,375C 729.912,366.956 718.412,358.789 707,350.5C 699.566,339.966 692.9,328.966 687,317.5C 685.023,314.688 682.856,312.022 680.5,309.5C 668.254,302.749 655.087,299.749 641,300.5C 624.305,298.414 609.972,303.08 598,314.5C 590.866,328.616 581.033,340.449 568.5,350C 566.5,350.333 564.5,350.667 562.5,351C 543.406,363.646 523.073,365.98 501.5,358C 495.673,353.25 489.34,349.25 482.5,346C 460.459,345.436 441.292,352.602 425,367.5C 423.414,369.67 422.08,372.004 421,374.5C 419.26,383.829 417.594,393.162 416,402.5C 412.173,407.841 407.006,411.341 400.5,413C 381.898,414.921 363.564,418.254 345.5,423C 332.104,427.726 323.604,436.892 320,450.5C 318.5,452 317,453.5 315.5,455C 299.613,459.711 283.613,464.045 267.5,468C 246.824,470.01 228.157,465.01 211.5,453C 207.492,449.289 203.492,445.622 199.5,442C 190.511,439.986 184.844,443.319 182.5,452C 169.643,456.292 156.643,456.625 143.5,453C 137,450.5 132.5,446 130,439.5C 127.257,437.212 124.423,435.045 121.5,433C 108.237,427.136 94.9038,421.469 81.5,416C 76.3547,413.186 72.188,409.353 69,404.5C 68.3333,401.5 68.3333,398.5 69,395.5C 73.7511,387.663 78.7511,379.996 84,372.5C 89.5825,361.538 92.0825,349.871 91.5,337.5C 90.9447,335.278 89.9447,333.278 88.5,331.5C 91.7376,320.946 89.2376,311.946 81,304.5C 80.3333,302.167 80.3333,299.833 81,297.5C 83.3873,294.623 86.054,291.956 89,289.5C 91.2601,284.644 94.2601,280.311 98,276.5C 103.46,265.444 108.126,254.111 112,242.5C 115.091,237.986 118.425,233.653 122,229.5C 140.257,214.619 160.757,203.786 183.5,197C 211.666,194.786 238.999,198.453 265.5,208C 275.768,209.673 285.434,208.007 294.5,203C 323.501,183.001 355.167,177.001 389.5,185C 394.718,190.775 401.051,194.775 408.5,197C 420.496,198.039 432.496,199.039 444.5,200C 445.938,200.219 447.271,200.719 448.5,201.5C 451.322,209.462 454.822,217.128 459,224.5C 460.209,239.042 468.042,246.875 482.5,248C 496.474,249.499 510.474,250.165 524.5,250C 532.864,248.492 541.198,246.826 549.5,245C 576.119,236.127 602.452,226.46 628.5,216C 636.995,211.836 644.661,206.502 651.5,200C 660.853,188.315 671.186,177.648 682.5,168C 703.639,154.465 726.306,144.965 750.5,139.5 Z"/></g>
<g><path style="opacity:1" fill="#fca670" d="M 909.5,223.5 C 919.073,222.322 928.073,223.989 936.5,228.5C 942.371,227.704 948.204,226.704 954,225.5C 956.997,227.478 957.164,229.645 954.5,232C 950.097,234.045 945.43,235.045 940.5,235C 934.884,237.867 929.217,240.534 923.5,243C 916.833,242.505 910.166,241.672 903.5,240.5C 895.645,242.315 887.978,241.815 880.5,239C 889.953,233.276 899.619,228.109 909.5,223.5 Z"/></g>
</svg>
