<?xml version="1.0" encoding="UTF-8"?>
<!DOCTYPE svg PUBLIC "-//W3C//DTD SVG 1.1//EN" "http://www.w3.org/Graphics/SVG/1.1/DTD/svg11.dtd">
<svg xmlns="http://www.w3.org/2000/svg" version="1.1" width="968px" height="631px" style="shape-rendering:geometricPrecision; text-rendering:geometricPrecision; image-rendering:optimizeQuality; fill-rule:evenodd; clip-rule:evenodd" xmlns:xlink="http://www.w3.org/1999/xlink">
<g><path style="opacity:1" fill="#b6b6b7" d="M 715.5,154.5 C 743.835,154.333 772.169,154.5 800.5,155C 804.897,156.617 808.731,159.117 812,162.5C 820.399,173.898 828.399,185.565 836,197.5C 847.359,209.835 860.525,212.002 875.5,204C 886.895,198.634 898.228,193.301 909.5,188C 921.583,184.685 931.416,187.852 939,197.5C 943.203,203.909 946.87,210.576 950,217.5C 951.46,220.21 953.46,220.876 956,219.5C 957.052,225.3 957.885,231.133 958.5,237C 956.036,248.904 953.203,260.737 950,272.5C 945.252,284.038 938.419,294.205 929.5,303C 920.421,309.248 910.421,311.581 899.5,310C 894.284,307.48 888.95,305.147 883.5,303C 872.977,301.897 863.643,304.73 855.5,311.5C 849.697,317.114 844.863,323.447 841,330.5C 839.03,339.82 839.03,349.153 841,358.5C 846.94,367.959 851.94,377.959 856,388.5C 856.667,394.833 856.667,401.167 856,407.5C 855.5,409.333 854.333,410.5 852.5,411C 830.787,411.208 809.121,410.208 787.5,408C 777.232,405.033 767.565,400.7 758.5,395C 739.479,378.643 719.146,363.976 697.5,351C 689.206,343.379 682.039,334.879 676,325.5C 664.576,316.585 651.576,312.918 637,314.5C 614.851,313.188 594.685,318.688 576.5,331C 564.931,340.704 559.431,353.204 560,368.5C 558,373.167 556,377.833 554,382.5C 540.388,391.72 526.554,400.554 512.5,409C 491.974,410.537 473.307,405.537 456.5,394C 446.333,385.167 436.167,376.333 426,367.5C 418.493,371.007 412.159,376.007 407,382.5C 402.554,389.995 398.387,397.661 394.5,405.5C 389.277,412.447 382.277,416.281 373.5,417C 359.099,417.051 344.765,417.718 330.5,419C 327.96,421.205 325.793,423.705 324,426.5C 319.558,438.72 313.558,450.054 306,460.5C 294.129,474.416 279.295,478.916 261.5,474C 248.528,472.896 236.195,469.563 224.5,464C 218.896,460.284 213.396,456.451 208,452.5C 197.65,456.017 189.483,462.35 183.5,471.5C 177.031,476.995 169.531,479.328 161,478.5C 155.787,478.454 150.62,477.954 145.5,477C 143.152,476.654 141.319,475.487 140,473.5C 137.361,466.407 135.695,459.074 135,451.5C 134.085,450.672 133.419,449.672 133,448.5C 123.866,450.853 114.532,451.853 105,451.5C 97.7934,451.505 90.6268,451.005 83.5,450C 76.199,445.68 68.8657,441.347 61.5,437C 55.8111,431.653 51.3111,425.486 48,418.5C 47.3333,411.833 47.3333,405.167 48,398.5C 52.6112,389.612 56.9445,380.612 61,371.5C 61.818,361.407 61.1513,351.407 59,341.5C 57.9265,319.406 58.9265,297.406 62,275.5C 67.8892,260.621 74.2225,245.954 81,231.5C 85.4443,228.168 88.4443,223.835 90,218.5C 104.519,199.981 123.352,188.147 146.5,183C 178.005,176.946 209.672,175.946 241.5,180C 255.497,183.996 268.83,189.662 281.5,197C 300.642,201.038 319.975,202.372 339.5,201C 347.505,198.778 355.172,195.778 362.5,192C 370.5,191.333 378.5,191.333 386.5,192C 404.921,194.825 423.421,196.991 442,198.5C 450.887,198.207 459.72,197.374 468.5,196C 477.43,193.135 486.43,190.468 495.5,188C 515.973,184.175 534.307,188.509 550.5,201C 557.167,200.667 563.833,200.333 570.5,200C 578.078,203.262 585.412,206.929 592.5,211C 595.419,212.14 598.419,212.973 601.5,213.5C 606.697,212.236 611.697,210.403 616.5,208C 627.167,202 637.833,196 648.5,190C 660.141,181.177 672.141,172.844 684.5,165C 689.032,163.478 693.365,161.478 697.5,159C 703.479,156.839 709.479,155.339 715.5,154.5 Z"/></g>
<g><path style="opacity:1" fill="#fca670" d="M 945.5,224.5 C 948.833,224.5 952.167,224.5 955.5,224.5C 955.244,226.792 955.577,228.959 956.5,231C 948.923,232.194 941.59,234.194 934.5,237C 927.089,237.108 919.755,237.775 912.5,239C 911.476,243.694 909.142,247.694 905.5,251C 898.111,252.369 892.111,250.203 887.5,244.5C 883.381,242.941 879.381,241.107 875.5,239C 876.167,238.333 876.833,237.667 877.5,237C 885.278,234.277 892.945,231.277 900.5,228C 915.662,226.925 930.662,225.758 945.5,224.5 Z"/></g>
</svg>
