<?xml version="1.0" encoding="UTF-8"?>
<!DOCTYPE svg PUBLIC "-//W3C//DTD SVG 1.1//EN" "http://www.w3.org/Graphics/SVG/1.1/DTD/svg11.dtd">
<svg xmlns="http://www.w3.org/2000/svg" version="1.1" width="968px" height="631px" style="shape-rendering:geometricPrecision; text-rendering:geometricPrecision; image-rendering:optimizeQuality; fill-rule:evenodd; clip-rule:evenodd" xmlns:xlink="http://www.w3.org/1999/xlink">
<g><path style="opacity:1" fill="#b7b6b8" d="M 715.5,124.5 C 722.982,122.738 727.982,125.405 730.5,132.5C 732.249,148.083 740.916,156.916 756.5,159C 772.372,159.63 788.206,160.796 804,162.5C 811.34,162.356 818.507,161.19 825.5,159C 840.533,150.155 855.2,140.822 869.5,131C 874.44,129.181 879.44,127.514 884.5,126C 909.52,123.312 934.353,124.146 959,128.5C 962.781,152.06 963.448,175.726 961,199.5C 959.822,204.543 958.489,209.543 957,214.5C 957.666,222.571 956.666,230.571 954,238.5C 946.942,245.559 940.608,253.226 935,261.5C 923.136,274.367 909.303,284.533 893.5,292C 873.171,308.569 849.837,318.569 823.5,322C 797.367,327.527 771.033,331.694 744.5,334.5C 730.366,333.743 716.366,331.91 702.5,329C 674.652,323.496 646.985,317.163 619.5,310C 609.45,307.686 599.283,306.186 589,305.5C 555.661,311.596 522.161,316.763 488.5,321C 474.59,323.244 461.257,327.244 448.5,333C 441,337.918 433.333,342.584 425.5,347C 423.996,348.491 423.163,350.324 423,352.5C 420.305,354.694 417.472,356.694 414.5,358.5C 411.494,369.368 408.994,380.368 407,391.5C 401.755,395.753 396.255,399.586 390.5,403C 377.19,404.08 363.857,404.746 350.5,405C 337.299,408.544 325.799,415.044 316,424.5C 310.17,432.156 304.837,440.156 300,448.5C 297.291,451.378 294.458,454.044 291.5,456.5C 280.164,463.668 268.164,469.501 255.5,474C 241.455,474.191 228.121,471.191 215.5,465C 199.845,463.163 187.845,468.83 179.5,482C 168.613,483.675 158.28,482.008 148.5,477C 146.497,472.663 144.497,468.33 142.5,464C 130.582,464.142 118.749,465.308 107,467.5C 93.7958,466.812 80.9625,464.312 68.5,460C 63.0659,456.532 57.8992,452.699 53,448.5C 52.5065,446.866 52.3398,445.199 52.5,443.5C 45.2755,442.993 42.2755,438.993 43.5,431.5C 45.1924,419.316 46.8591,407.149 48.5,395C 35.3598,379.954 30.5265,362.454 34,342.5C 36.2899,336.255 38.2899,329.921 40,323.5C 39.679,308.158 39.8456,292.824 40.5,277.5C 43.0007,273.257 46.0007,269.423 49.5,266C 55.0239,263.869 60.6906,262.202 66.5,261C 65.1068,259.829 64.2735,258.329 64,256.5C 63.2039,252.245 63.3705,248.079 64.5,244C 67.4348,241.234 70.7681,239.067 74.5,237.5C 85.3826,237.313 92.2159,231.98 95,221.5C 105.934,208.121 120.101,201.954 137.5,203C 146.837,200.998 156.17,198.998 165.5,197C 175.372,191.15 185.372,185.483 195.5,180C 199.295,179.163 202.961,179.496 206.5,181C 211.167,184.333 215.833,187.667 220.5,191C 229.453,193.243 238.453,195.243 247.5,197C 256.258,206.307 266.925,210.14 279.5,208.5C 284.644,209.639 289.811,210.639 295,211.5C 302.142,204.681 310.309,199.514 319.5,196C 330.183,196.479 340.85,197.146 351.5,198C 354.311,196.356 356.644,194.19 358.5,191.5C 359.667,191.167 360.833,190.833 362,190.5C 367.146,191.992 372.312,193.492 377.5,195C 389.262,203.916 401.595,211.916 414.5,219C 421.016,220.929 427.683,222.262 434.5,223C 437.055,224.444 439.721,225.611 442.5,226.5C 443.093,232.124 443.26,237.791 443,243.5C 449.32,250.177 457.154,254.01 466.5,255C 484.931,255.924 503.265,254.924 521.5,252C 537.992,244.919 554.326,237.585 570.5,230C 579.534,224.107 586.367,216.274 591,206.5C 593.472,203.092 596.305,199.925 599.5,197C 612.205,189.849 625.872,186.182 640.5,186C 646.828,184.64 652.828,182.473 658.5,179.5C 667.693,173.073 676.693,166.406 685.5,159.5C 691.333,150.5 697.167,141.5 703,132.5C 706.977,129.435 711.144,126.768 715.5,124.5 Z"/></g>
<g><path style="opacity:1" fill="#fca670" d="M 944.5,225.5 C 948.226,225.177 951.893,225.511 955.5,226.5C 954.636,228.197 953.303,229.363 951.5,230C 943.904,231.544 936.237,232.544 928.5,233C 919.38,236.161 910.047,238.494 900.5,240C 899.334,245.518 900.334,250.685 903.5,255.5C 902.833,255.833 902.167,256.167 901.5,256.5C 896.78,253.918 892.113,253.918 887.5,256.5C 882.539,252.678 877.539,248.845 872.5,245C 868.605,243.734 864.605,243.234 860.5,243.5C 860.337,241.143 860.503,238.81 861,236.5C 862.067,235.809 863.234,235.309 864.5,235C 871.477,235.397 878.477,235.397 885.5,235C 905.066,230.347 924.732,227.18 944.5,225.5 Z"/></g>
<g><path style="opacity:1" fill="#fca670" d="M 665.5,250.5 C 675.212,250.214 684.879,250.714 694.5,252C 671.78,259.512 648.447,263.845 624.5,265C 612.463,269.02 600.13,270.353 587.5,269C 595,263.277 603.334,259.277 612.5,257C 630.379,255.367 648.046,253.2 665.5,250.5 Z"/></g>
</svg>
