<?xml version="1.0" encoding="UTF-8"?>
<!DOCTYPE svg PUBLIC "-//W3C//DTD SVG 1.1//EN" "http://www.w3.org/Graphics/SVG/1.1/DTD/svg11.dtd">
<svg xmlns="http://www.w3.org/2000/svg" version="1.1" width="968px" height="631px" style="shape-rendering:geometricPrecision; text-rendering:geometricPrecision; image-rendering:optimizeQuality; fill-rule:evenodd; clip-rule:evenodd" xmlns:xlink="http://www.w3.org/1999/xlink">
<g><path style="opacity:1" fill="#b6b6b7" d="M 739.5,92.5 C 750.61,92.0525 761.61,92.8858 772.5,95C 779.263,98.4313 784.763,103.265 789,109.5C 787.488,129.445 792.988,146.945 805.5,162C 808.475,164.004 811.808,165.004 815.5,165C 819.02,167.198 822.52,169.365 826,171.5C 834.034,182.093 840.868,193.426 846.5,205.5C 849.167,208.167 851.833,210.833 854.5,213.5C 858.785,215.42 862.119,214.42 864.5,210.5C 865.333,208.833 866.167,207.167 867,205.5C 867.726,197.116 869.726,189.116 873,181.5C 883.339,173.49 893.839,165.657 904.5,158C 908.833,157.333 913.167,157.333 917.5,158C 924.053,161.562 930.386,165.395 936.5,169.5C 944.033,180.564 950.533,192.231 956,204.5C 958.158,211.126 957.991,217.626 955.5,224C 956.328,224.915 957.328,225.581 958.5,226C 955.703,227.233 953.037,228.733 950.5,230.5C 948.268,248.909 944.435,266.909 939,284.5C 933.293,296.888 923.626,304.555 910,307.5C 900.008,303.221 890.175,298.388 880.5,293C 877.5,292.333 874.5,292.333 871.5,293C 843.345,304.145 833.511,324.312 842,353.5C 848.252,366.251 855.252,378.584 863,390.5C 865.613,395.002 867.446,399.835 868.5,405C 868.375,406.627 867.875,408.127 867,409.5C 848.672,425.853 828.172,429.02 805.5,419C 779.464,405.645 756.464,388.311 736.5,367C 709.335,349.852 682.668,331.852 656.5,313C 644.909,306.789 632.576,302.456 619.5,300C 584.405,293.99 558.238,306.156 541,336.5C 536.812,353.407 530.479,369.407 522,384.5C 514.722,393.111 506.222,400.277 496.5,406C 493.529,406.794 490.529,407.461 487.5,408C 461.831,408.693 436.165,409.027 410.5,409C 399.382,402.112 388.049,395.779 376.5,390C 370.461,389.427 364.461,389.761 358.5,391C 344.64,396.931 331.307,403.931 318.5,412C 301.246,429.593 284.246,447.593 267.5,466C 258.982,471.275 250.315,476.608 241.5,482C 233.739,486.214 225.739,489.881 217.5,493C 211.856,495.875 206.522,499.208 201.5,503C 193.833,503.667 186.167,503.667 178.5,503C 165.945,500.492 153.278,498.826 140.5,498C 117.983,493.763 95.6495,488.93 73.5,483.5C 73.6495,482.448 73.4828,481.448 73,480.5C 61.3536,471.021 49.8536,461.355 38.5,451.5C 30.5668,439.469 22.7335,427.469 15,415.5C 12.5506,408.702 10.8839,401.702 10,394.5C 9.33333,384.5 9.33333,374.5 10,364.5C 12.3973,359.373 15.064,354.373 18,349.5C 19.9904,343.514 21.9904,337.514 24,331.5C 25.739,314.55 26.739,297.55 27,280.5C 32.0838,271.997 37.4171,263.664 43,255.5C 56.781,247.052 67.9476,235.886 76.5,222C 95.1795,206.827 116.18,196.16 139.5,190C 156.495,188.116 173.495,188.116 190.5,190C 205.297,196.226 218.964,204.226 231.5,214C 250.787,220.764 270.287,221.264 290,215.5C 296.228,211.56 303.062,209.06 310.5,208C 325.683,206.639 340.683,207.639 355.5,211C 360.353,213.824 365.02,216.824 369.5,220C 373.386,220.61 376.72,222.276 379.5,225C 382.101,225.92 384.768,226.587 387.5,227C 389.607,229.227 391.94,231.227 394.5,233C 409.537,238.345 424.871,242.679 440.5,246C 462.878,248.82 483.211,243.987 501.5,231.5C 505.177,227.988 508.511,224.154 511.5,220C 516.37,217.422 521.37,215.089 526.5,213C 552.787,206.822 579.454,203.822 606.5,204C 616.962,202.379 626.962,199.379 636.5,195C 644.729,188.732 653.062,182.732 661.5,177C 677.953,159.291 692.453,140.124 705,119.5C 712.204,110.629 720.371,102.795 729.5,96C 732.98,94.8974 736.313,93.7308 739.5,92.5 Z"/></g>
<g><path style="opacity:1" fill="#fca670" d="M 919.5,221.5 C 924.215,220.962 928.548,221.962 932.5,224.5C 939.595,221.677 946.595,221.843 953.5,225C 948.055,229.781 941.722,232.781 934.5,234C 931.377,235.882 928.711,238.215 926.5,241C 917.804,242.812 910.137,240.812 903.5,235C 908.962,230.477 914.295,225.977 919.5,221.5 Z"/></g>
<g><path style="opacity:1" fill="#fca670" d="M 856.5,234.5 C 860.869,234.467 865.202,234.8 869.5,235.5C 869.5,236.5 869.5,237.5 869.5,238.5C 873.578,240.057 877.578,241.89 881.5,244C 876.174,244.88 870.841,245.713 865.5,246.5C 861.437,244.081 857.27,241.747 853,239.5C 853.112,237.203 854.278,235.536 856.5,234.5 Z"/></g>
</svg>
