<?xml version="1.0" encoding="UTF-8"?>
<!DOCTYPE svg PUBLIC "-//W3C//DTD SVG 1.1//EN" "http://www.w3.org/Graphics/SVG/1.1/DTD/svg11.dtd">
<svg xmlns="http://www.w3.org/2000/svg" version="1.1" width="968px" height="631px" style="shape-rendering:geometricPrecision; text-rendering:geometricPrecision; image-rendering:optimizeQuality; fill-rule:evenodd; clip-rule:evenodd" xmlns:xlink="http://www.w3.org/1999/xlink">
<g><path style="opacity:1" fill="#b6b6b7" d="M 956.5,222.5 C 945.226,220.808 933.892,220.142 922.5,220.5C 919.145,224.661 917.478,223.994 917.5,218.5C 912.716,217.839 908.382,218.839 904.5,221.5C 901.311,225.878 898.645,230.545 896.5,235.5C 897.189,237.353 898.522,238.519 900.5,239C 904.591,240.231 908.758,241.065 913,241.5C 916.236,240.534 919.403,239.367 922.5,238C 929.379,238.137 935.712,236.471 941.5,233C 944.146,232.503 946.813,232.336 949.5,232.5C 951.264,256.221 950.764,279.888 948,303.5C 937.904,329.417 925.07,331.084 909.5,308.5C 905.625,304.461 901.292,300.961 896.5,298C 889.233,296.485 881.899,296.152 874.5,297C 861.693,306.636 848.027,314.969 833.5,322C 829.5,325.333 825.5,328.667 821.5,332C 814.664,335.203 807.664,338.203 800.5,341C 788.708,343.125 777.041,342.459 765.5,339C 751.886,333.017 737.886,328.017 723.5,324C 716.399,320.033 709.232,316.2 702,312.5C 684.596,309.239 667.429,305.073 650.5,300C 632.289,294.827 615.289,297.16 599.5,307C 596.833,307.667 594.167,308.333 591.5,309C 587.307,312.36 582.974,315.527 578.5,318.5C 573.042,324.693 568.208,331.359 564,338.5C 559.684,346.133 556.184,354.133 553.5,362.5C 545.569,376.932 534.236,387.765 519.5,395C 484.931,404.699 449.931,412.366 414.5,418C 401.748,418.986 389.415,417.153 377.5,412.5C 376.578,405.867 375.745,399.2 375,392.5C 374.245,388.038 372.745,383.872 370.5,380C 359.468,379.251 348.468,379.585 337.5,381C 335.333,381.833 333.833,383.333 333,385.5C 332.777,392.286 331.777,398.953 330,405.5C 326.941,416.55 320.774,425.383 311.5,432C 304.876,434.584 298.21,437.251 291.5,440C 280.675,441.867 270.009,444.2 259.5,447C 256.198,448.651 252.864,450.318 249.5,452C 220.267,474.221 188.601,492.221 154.5,506C 146.145,506.475 137.811,506.142 129.5,505C 106.818,499.501 84.8182,492.168 63.5,483C 53.2353,478.37 43.2353,473.37 33.5,468C 29.3267,464.159 25.4934,459.993 22,455.5C 17.5714,447.634 12.9047,439.967 8,432.5C 4.44215,419.204 1.60881,405.87 -0.5,392.5C -0.5,370.5 -0.5,348.5 -0.5,326.5C 2.5286,317.918 6.36193,309.584 11,301.5C 16.5482,294.936 20.8815,287.603 24,279.5C 25.251,270.325 27.251,261.325 30,252.5C 35.0538,243.781 41.2205,235.947 48.5,229C 56.9093,222.799 64.9093,216.133 72.5,209C 79.268,206.894 85.6013,203.894 91.5,200C 97.7864,197.845 104.12,195.845 110.5,194C 119.5,193.333 128.5,193.333 137.5,194C 181.314,200.116 224.981,207.283 268.5,215.5C 293.957,209.172 319.791,204.838 346,202.5C 354.785,203.962 363.618,205.129 372.5,206C 374.76,207.335 376.927,208.835 379,210.5C 381.61,216.053 383.943,221.719 386,227.5C 392.02,234.236 399.02,239.236 407,242.5C 423.773,243.818 438.44,239.152 451,228.5C 452.479,225.695 454.312,223.195 456.5,221C 468.934,211.883 481.6,203.217 494.5,195C 510.505,189.795 526.838,186.962 543.5,186.5C 542.772,190.302 541.606,193.969 540,197.5C 539.182,200.227 539.348,202.894 540.5,205.5C 549.661,204.015 558.827,202.348 568,200.5C 574.925,196.496 581.425,191.996 587.5,187C 590.33,186.131 592.997,184.964 595.5,183.5C 595.833,183.833 596.167,184.167 596.5,184.5C 593.376,189.04 592.209,194.04 593,199.5C 595.466,200.777 597.966,200.777 600.5,199.5C 605.399,196.711 610.399,193.877 615.5,191C 619.007,187.076 623.34,184.409 628.5,183C 641.612,171.275 655.945,161.275 671.5,153C 672.833,151.667 674.167,150.333 675.5,149C 697.77,139.021 720.437,130.021 743.5,122C 754.061,118.359 764.394,118.693 774.5,123C 775.667,124.167 776.833,125.333 778,126.5C 779.636,131.012 780.636,135.678 781,140.5C 781.372,149.855 782.038,159.189 783,168.5C 785.13,173.278 787.963,177.612 791.5,181.5C 810.13,196.219 831.13,206.052 854.5,211C 857.817,211.498 861.15,211.665 864.5,211.5C 864.135,201.443 864.635,191.443 866,181.5C 870.378,172.124 877.545,165.957 887.5,163C 894.5,162.333 901.5,162.333 908.5,163C 919.276,168.142 929.776,173.642 940,179.5C 946.053,190.282 951.053,201.615 955,213.5C 958.633,216.168 959.133,219.168 956.5,222.5 Z"/></g>
<g><path style="opacity:1" fill="#fca670" d="M 956.5,222.5 C 955.627,226.932 953.293,230.265 949.5,232.5C 946.813,232.336 944.146,232.503 941.5,233C 935.712,236.471 929.379,238.137 922.5,238C 919.403,239.367 916.236,240.534 913,241.5C 908.758,241.065 904.591,240.231 900.5,239C 898.522,238.519 897.189,237.353 896.5,235.5C 898.645,230.545 901.311,225.878 904.5,221.5C 908.382,218.839 912.716,217.839 917.5,218.5C 917.478,223.994 919.145,224.661 922.5,220.5C 933.892,220.142 945.226,220.808 956.5,222.5 Z"/></g>
<g><path style="opacity:1" fill="#fca670" d="M 842.5,231.5 C 851.359,230.207 858.693,232.874 864.5,239.5C 863.002,241.854 861.668,244.187 860.5,246.5C 854.961,247.305 850.295,245.805 846.5,242C 843.568,240.855 840.568,240.022 837.5,239.5C 837.343,238.127 837.51,236.793 838,235.5C 840.118,234.717 841.618,233.384 842.5,231.5 Z"/></g>
</svg>
