<svg width="2000" height="631" xmlns="http://www.w3.org/2000/svg" clip-rule="evenodd" version="1.1">

 <g>
  <title>Layer 1</title>
  <g id="svg_1">
   <path id="svg_2" d="m2003.17175,215.8333c-11.274,-1.692 -22.608,-2.358 -34,-2c-3.355,4.161 -5.022,3.494 -5,-2c-4.784,-0.661 -9.118,0.339 -13,3c-3.189,4.378 -5.855,9.045 -8,14c0.689,1.853 2.022,3.019 4,3.5c4.091,1.231 8.258,2.065 12.5,2.5c3.236,-0.966 6.403,-2.133 9.5,-3.5c6.879,0.137 13.212,-1.529 19,-5c2.646,-0.497 5.313,-0.664 8,-0.5c1.764,23.721 1.264,47.388 -1.5,71c-10.096,25.917 -22.93,27.584 -38.5,5c-3.875,-4.039 -8.208,-7.539 -13,-10.5c-7.267,-1.515 -14.601,-1.848 -22,-1c-12.807,9.636 -26.473,17.969 -41,25c-4,3.333 -8,6.667 -12,10c-6.836,3.203 -13.836,6.203 -21,9c-11.792,2.125 -23.459,1.459 -35,-2c-13.614,-5.983 -27.614,-10.983 -42,-15c-7.101,-3.967 -14.268,-7.8 -21.5,-11.5c-17.404,-3.261 -34.571,-7.427 -51.5,-12.5c-18.211,-5.173 -35.211,-2.84 -51,7c-2.667,0.667 -5.333,1.333 -8,2c-4.193,3.36 -8.526,6.527 -13,9.5c-5.458,6.193 -10.292,12.859 -14.5,20c-4.316,7.633 -7.816,15.633 -10.5,24c-7.931,14.432 -19.264,25.265 -34,32.5c-34.569,9.699 -69.569,17.366 -105,23c-12.752,0.986 -25.085,-0.847 -37,-5.5c-0.922,-6.633 -1.755,-13.3 -2.5,-20c-0.755,-4.462 -2.255,-8.628 -4.5,-12.5c-11.032,-0.749 -22.032,-0.415 -33,1c-2.167,0.833 -3.667,2.333 -4.5,4.5c-0.223,6.786 -1.223,13.453 -3,20c-3.059,11.05 -9.226,19.883 -18.5,26.5c-6.624,2.584 -13.29,5.251 -20,8c-10.825,1.867 -21.491,4.2 -32,7c-3.302,1.651 -6.636,3.318 -10,5c-29.233,22.221 -60.899,40.221 -95,54c-8.355,0.475 -16.689,0.142 -25,-1c-22.682,-5.499 -44.6818,-12.832 -66,-22c-10.2647,-4.63 -20.2647,-9.63 -30,-15c-4.1733,-3.841 -8.0066,-8.007 -11.5,-12.5c-4.4286,-7.866 -9.0953,-15.533 -14,-23c-3.55785,-13.296 -6.39119,-26.63 -8.5,-40c0,-22 0,-44 0,-66c3.0286,-8.582 6.86193,-16.916 11.5,-25c5.5482,-6.564 9.8815,-13.897 13,-22c1.251,-9.175 3.251,-18.175 6,-27c5.0538,-8.719 11.2205,-16.553 18.5,-23.5c8.4093,-6.201 16.4093,-12.867 24,-20c6.768,-2.106 13.1013,-5.106 19,-9c6.2864,-2.155 12.62,-4.155 19,-6c9,-0.667 18,-0.667 27,0c43.814,6.116 87.481,13.283 131,21.5c25.457,-6.328 51.291,-10.662 77.5,-13c8.785,1.462 17.618,2.629 26.5,3.5c2.26,1.335 4.427,2.835 6.5,4.5c2.61,5.553 4.943,11.219 7,17c6.02,6.736 13.02,11.736 21,15c16.773,1.318 31.44,-3.348 44,-14c1.479,-2.805 3.312,-5.305 5.5,-7.5c12.434,-9.117 25.1,-17.783 38,-26c16.005,-5.205 32.338,-8.038 49,-8.5c-0.728,3.802 -1.894,7.469 -3.5,11c-0.818,2.727 -0.652,5.394 0.5,8c9.161,-1.485 18.327,-3.152 27.5,-5c6.925,-4.004 13.425,-8.504 19.5,-13.5c2.83,-0.869 5.497,-2.036 8,-3.5c0.333,0.333 0.667,0.667 1,1c-3.124,4.54 -4.291,9.54 -3.5,15c2.466,1.277 4.966,1.277 7.5,0c4.899,-2.789 9.899,-5.623 15,-8.5c3.507,-3.924 7.84,-6.591 13,-8c13.112,-11.725 27.445,-21.725 43,-30c1.333,-1.333 2.667,-2.667 4,-4c22.27,-9.979 44.937,-18.979 68,-27c10.561,-3.641 20.894,-3.307 31,1c1.167,1.167 2.333,2.333 3.5,3.5c1.636,4.512 2.636,9.178 3,14c0.372,9.355 1.038,18.689 2,28c2.13,4.778 4.963,9.112 8.5,13c18.63,14.719 39.63,24.552 63,29.5c3.317,0.498 6.65,0.665 10,0.5c-0.365,-10.057 0.135,-20.057 1.5,-30c4.378,-9.376 11.545,-15.543 21.5,-18.5c7,-0.667 14,-0.667 21,0c10.776,5.142 21.276,10.642 31.5,16.5c6.053,10.782 11.053,22.115 15,34c3.633,2.668 4.133,5.668 1.5,9z" fill="#b6b6b7"/>
  </g>
  <g id="svg_3">
   <path id="svg_4" d="m2003.17175,215.8333c-0.873,4.432 -3.207,7.765 -7,10c-2.687,-0.164 -5.354,0.003 -8,0.5c-5.788,3.471 -12.121,5.137 -19,5c-3.097,1.367 -6.264,2.534 -9.5,3.5c-4.242,-0.435 -8.409,-1.269 -12.5,-2.5c-1.978,-0.481 -3.311,-1.647 -4,-3.5c2.145,-4.955 4.811,-9.622 8,-14c3.882,-2.661 8.216,-3.661 13,-3c-0.022,5.494 1.645,6.161 5,2c11.392,-0.358 22.726,0.308 34,2z" fill="#fca670"/>
  </g>
  <g id="svg_5">
   <path id="svg_6" d="m1889.17175,224.8333c8.859,-1.293 16.193,1.374 22,8c-1.498,2.354 -2.832,4.687 -4,7c-5.539,0.805 -10.205,-0.695 -14,-4.5c-2.932,-1.145 -5.932,-1.978 -9,-2.5c-0.157,-1.373 0.01,-2.707 0.5,-4c2.118,-0.783 3.618,-2.116 4.5,-4z" fill="#fca670"/>
  </g>
  <path id="svg_7" d="m-759.68332,206.31401l42.65337,0l13.18022,-59.84179l13.18023,59.84179l42.65336,0l-34.50724,36.98384l13.1809,59.84179l-34.50725,-36.98484l-34.50724,36.98484l13.1809,-59.84179l-34.50725,-36.98384z" stroke="#000" fill="#fff"/>
  <path id="svg_8" d="m14.93484,261.07072l47.1097,0l14.55726,-43.2898l14.55727,43.2898l47.10969,0l-38.11248,26.75426l14.55801,43.2898l-38.1125,-26.75499l-38.11249,26.75499l14.55802,-43.2898l-38.11249,-26.75426z" stroke="#fff" fill="#000"/>
 </g>
</svg>