<?xml version="1.0" encoding="UTF-8"?>
<!DOCTYPE svg PUBLIC "-//W3C//DTD SVG 1.1//EN" "http://www.w3.org/Graphics/SVG/1.1/DTD/svg11.dtd">
<svg xmlns="http://www.w3.org/2000/svg" version="1.1" width="968px" height="631px" style="shape-rendering:geometricPrecision; text-rendering:geometricPrecision; image-rendering:optimizeQuality; fill-rule:evenodd; clip-rule:evenodd" xmlns:xlink="http://www.w3.org/1999/xlink">
<g><path style="opacity:1" fill="#a3a2a4" d="M 949.5,221.5 C 943.854,216.012 938.687,210.012 934,203.5C 929.7,195.937 925.034,188.603 920,181.5C 909.833,171.333 899.667,161.167 889.5,151C 877.904,143.413 865.237,138.913 851.5,137.5C 850.291,130.096 845.958,127.429 838.5,129.5C 842.352,118.971 848.352,109.804 856.5,102C 857.833,101.333 859.167,100.667 860.5,100C 878.82,97.2143 893.987,102.714 906,116.5C 909.627,122.253 913.127,128.086 916.5,134C 923.421,153.769 930.921,173.269 939,192.5C 945.82,201.459 949.82,211.459 951,222.5C 950.617,221.944 950.117,221.611 949.5,221.5 Z"/></g>
<g><path style="opacity:1" fill="#f7c733" d="M 836.5,131.5 C 839.833,131.5 843.167,131.5 846.5,131.5C 846.146,134.421 847.146,136.754 849.5,138.5C 854.813,142.645 859.98,146.979 865,151.5C 864.893,155.489 866.059,158.989 868.5,162C 869.833,162.667 871.167,162.667 872.5,162C 874.453,160.367 876.62,159.201 879,158.5C 884.567,159.049 888.9,161.716 892,166.5C 898.372,176.171 901.372,186.837 901,198.5C 904.531,202.397 907.697,206.564 910.5,211C 921.445,214.537 932.445,217.871 943.5,221C 945.431,221.902 947.097,223.069 948.5,224.5C 948.666,230.176 948.499,235.843 948,241.5C 947.535,242.931 946.701,244.097 945.5,245C 942.265,246.795 939.265,248.628 936.5,250.5C 923.605,255.08 911.272,260.913 899.5,268C 895.742,271.279 893.075,275.279 891.5,280C 892.956,286.771 893.456,293.604 893,300.5C 890.714,303.493 888.381,306.493 886,309.5C 885.502,312.817 885.335,316.15 885.5,319.5C 886.061,326.501 886.228,333.501 886,340.5C 884.398,345.877 881.231,350.044 876.5,353C 864.725,358.145 852.892,358.645 841,354.5C 837.198,355.738 835.032,358.405 834.5,362.5C 832.833,363.667 831.167,364.833 829.5,366C 820.339,366.563 811.339,365.563 802.5,363C 797.023,359.76 791.356,356.76 785.5,354C 779.12,353.196 772.786,352.196 766.5,351C 759.998,347.25 753.665,343.25 747.5,339C 739.881,337.797 732.214,336.797 724.5,336C 718.171,333.175 712.504,329.342 707.5,324.5C 701.588,314.424 695.088,304.757 688,295.5C 680.163,292.76 673.829,288.094 669,281.5C 669.245,277.187 669.245,272.853 669,268.5C 668.546,266.464 667.713,264.63 666.5,263C 670.258,258.237 674.425,253.737 679,249.5C 680.196,243.581 680.862,237.581 681,231.5C 681.901,228.929 683.234,226.596 685,224.5C 685.667,218.5 685.667,212.5 685,206.5C 684.097,205.299 682.931,204.465 681.5,204C 678.833,203.667 676.167,203.333 673.5,203C 672.941,202.275 672.608,201.442 672.5,200.5C 674.395,196.377 676.562,192.377 679,188.5C 681.574,178.447 684.074,168.447 686.5,158.5C 700.038,149.731 714.372,142.564 729.5,137C 735.445,132.063 742.111,128.396 749.5,126C 753.167,125.333 756.833,125.333 760.5,126C 767.772,128.535 775.105,130.868 782.5,133C 790.169,133.055 797.836,133.055 805.5,133C 809.641,134.572 813.308,136.905 816.5,140C 824.965,141.264 831.632,138.431 836.5,131.5 Z"/></g>
<g><path style="opacity:1" fill="#fdbe81" d="M 838.5,129.5 C 845.958,127.429 850.291,130.096 851.5,137.5C 865.237,138.913 877.904,143.413 889.5,151C 899.667,161.167 909.833,171.333 920,181.5C 925.034,188.603 929.7,195.937 934,203.5C 938.687,210.012 943.854,216.012 949.5,221.5C 949.737,222.791 949.404,223.791 948.5,224.5C 947.097,223.069 945.431,221.902 943.5,221C 932.445,217.871 921.445,214.537 910.5,211C 907.697,206.564 904.531,202.397 901,198.5C 901.372,186.837 898.372,176.171 892,166.5C 888.9,161.716 884.567,159.049 879,158.5C 876.62,159.201 874.453,160.367 872.5,162C 871.167,162.667 869.833,162.667 868.5,162C 866.059,158.989 864.893,155.489 865,151.5C 859.98,146.979 854.813,142.645 849.5,138.5C 847.146,136.754 846.146,134.421 846.5,131.5C 843.167,131.5 839.833,131.5 836.5,131.5C 836.833,130.5 837.5,129.833 838.5,129.5 Z"/></g>
<g><path style="opacity:1" fill="#a3a2a4" d="M 936.5,250.5 C 936.938,250.435 937.272,250.601 937.5,251C 934.333,255.167 931.167,259.333 928,263.5C 926.796,271.772 926.129,280.106 926,288.5C 925.394,291.548 923.894,294.048 921.5,296C 917.833,296.333 914.167,296.667 910.5,297C 909.975,297.692 909.308,298.192 908.5,298.5C 906.534,310.805 899.534,318.805 887.5,322.5C 886.824,321.398 886.158,320.398 885.5,319.5C 885.335,316.15 885.502,312.817 886,309.5C 888.381,306.493 890.714,303.493 893,300.5C 893.456,293.604 892.956,286.771 891.5,280C 893.075,275.279 895.742,271.279 899.5,268C 911.272,260.913 923.605,255.08 936.5,250.5 Z"/></g>
</svg>
