<?xml version="1.0" encoding="UTF-8"?>
<!DOCTYPE svg PUBLIC "-//W3C//DTD SVG 1.1//EN" "http://www.w3.org/Graphics/SVG/1.1/DTD/svg11.dtd">
<svg xmlns="http://www.w3.org/2000/svg" version="1.1" width="968px" height="631px" style="shape-rendering:geometricPrecision; text-rendering:geometricPrecision; image-rendering:optimizeQuality; fill-rule:evenodd; clip-rule:evenodd" xmlns:xlink="http://www.w3.org/1999/xlink">
<g><path style="opacity:1" fill="#a3a2a4" d="M 952.5,224.5 C 936.572,221.507 920.572,218.673 904.5,216C 890.5,215.667 876.5,215.333 862.5,215C 861.056,213.874 860.39,212.374 860.5,210.5C 863.653,201.52 866.82,192.52 870,183.5C 870.825,179.789 870.659,176.122 869.5,172.5C 867.998,171.917 866.665,171.084 865.5,170C 864.167,169.333 862.833,169.333 861.5,170C 858.612,173.681 855.112,176.514 851,178.5C 847.858,178.025 846.025,176.192 845.5,173C 840.744,171.556 836.911,172.723 834,176.5C 833.855,180.037 833.022,183.371 831.5,186.5C 825.341,174.214 819.841,161.547 815,148.5C 813.129,143.919 810.629,139.752 807.5,136C 794.655,133.245 781.655,131.912 768.5,132C 759.814,127.964 751.147,123.964 742.5,120C 739.167,119.333 735.833,119.333 732.5,120C 725.993,125.253 718.66,128.92 710.5,131C 707.441,136.901 708.108,142.401 712.5,147.5C 706.485,153.676 699.152,157.509 690.5,159C 682.493,160.002 674.493,160.669 666.5,161C 668.049,159.786 669.215,158.286 670,156.5C 670.031,146.062 670.864,135.728 672.5,125.5C 678.943,118.1 686.943,112.934 696.5,110C 720.774,106.33 744.44,108.663 767.5,117C 775.437,122.21 784.104,123.877 793.5,122C 808.802,116.055 824.136,116.055 839.5,122C 843.5,122.667 847.5,122.667 851.5,122C 860.016,115.574 868.349,108.907 876.5,102C 881.939,99.6292 887.606,98.9625 893.5,100C 898.788,103.232 903.622,107.065 908,111.5C 913.107,118.712 917.44,126.379 921,134.5C 923.439,145.758 925.439,157.091 927,168.5C 932.608,177.772 938.608,186.772 945,195.5C 949.665,204.653 952.165,214.32 952.5,224.5 Z"/></g>
<g><path style="opacity:1" fill="#febe82" d="M 952.5,224.5 C 953.278,225.156 953.944,225.989 954.5,227C 951.752,231.003 949.418,235.169 947.5,239.5C 943.367,241.4 939.367,243.567 935.5,246C 925.397,248.692 915.397,251.692 905.5,255C 896.357,259.157 888.857,265.323 883,273.5C 882.072,280.309 880.572,286.976 878.5,293.5C 877.5,293.833 876.5,294.167 875.5,294.5C 871.648,292.831 867.648,292.331 863.5,293C 862,293.833 860.833,295 860,296.5C 856.93,303.27 854.596,310.27 853,317.5C 852.848,330.124 849.014,341.457 841.5,351.5C 839.009,353.412 836.342,354.746 833.5,355.5C 809.815,353.607 787.148,357.44 765.5,367C 756.642,369.379 747.642,370.045 738.5,369C 731.167,366.667 723.833,364.333 716.5,362C 707.5,361.667 698.5,361.333 689.5,361C 685.304,359.523 680.971,358.689 676.5,358.5C 677.575,362.923 675.908,364.923 671.5,364.5C 659.27,361.239 646.937,358.406 634.5,356C 627.226,345.968 620.059,335.802 613,325.5C 605.744,321.791 598.911,317.458 592.5,312.5C 591.757,304.203 591.59,295.869 592,287.5C 588.815,282.463 586.148,277.13 584,271.5C 583.119,263.503 582.286,255.503 581.5,247.5C 581.698,240.644 582.865,233.977 585,227.5C 592.936,213.294 600.603,198.961 608,184.5C 612.916,178.592 617.416,172.426 621.5,166C 633.429,164.203 645.429,163.203 657.5,163C 660.089,161.803 662.756,160.803 665.5,160C 667.049,158.786 668.215,157.286 669,155.5C 669.333,147.5 669.667,139.5 670,131.5C 670.566,129.277 671.4,127.277 672.5,125.5C 670.864,135.728 670.031,146.062 670,156.5C 669.215,158.286 668.049,159.786 666.5,161C 674.493,160.669 682.493,160.002 690.5,159C 699.152,157.509 706.485,153.676 712.5,147.5C 708.108,142.401 707.441,136.901 710.5,131C 718.66,128.92 725.993,125.253 732.5,120C 735.833,119.333 739.167,119.333 742.5,120C 751.147,123.964 759.814,127.964 768.5,132C 781.655,131.912 794.655,133.245 807.5,136C 810.629,139.752 813.129,143.919 815,148.5C 819.841,161.547 825.341,174.214 831.5,186.5C 833.022,183.371 833.855,180.037 834,176.5C 836.911,172.723 840.744,171.556 845.5,173C 846.025,176.192 847.858,178.025 851,178.5C 855.112,176.514 858.612,173.681 861.5,170C 862.833,169.333 864.167,169.333 865.5,170C 866.665,171.084 867.998,171.917 869.5,172.5C 870.659,176.122 870.825,179.789 870,183.5C 866.82,192.52 863.653,201.52 860.5,210.5C 860.39,212.374 861.056,213.874 862.5,215C 876.5,215.333 890.5,215.667 904.5,216C 920.572,218.673 936.572,221.507 952.5,224.5 Z"/></g>
<g><path style="opacity:1" fill="#f7c733" d="M 758.5,166.5 C 759.794,168.048 760.461,170.048 760.5,172.5C 760.333,174.5 760.167,176.5 760,178.5C 752.091,189.747 743.424,200.413 734,210.5C 733.333,214.5 733.333,218.5 734,222.5C 746.148,229.664 758.315,236.831 770.5,244C 778.551,246.873 786.885,248.207 795.5,248C 798.562,249.061 801.062,250.894 803,253.5C 805.849,264.662 806.849,275.995 806,287.5C 800.14,295.863 797.807,305.196 799,315.5C 797.274,322.783 794.108,329.283 789.5,335C 785.556,336.982 781.389,338.148 777,338.5C 771.473,337.215 765.973,335.715 760.5,334C 750.789,332.843 741.289,333.677 732,336.5C 731.167,336.333 730.333,336.167 729.5,336C 721.638,326.766 711.638,322.932 699.5,324.5C 699.18,327.898 699.513,331.232 700.5,334.5C 702.747,335.374 705.08,335.708 707.5,335.5C 709.227,339.226 708.227,342.059 704.5,344C 697.983,346.21 691.316,346.876 684.5,346C 680.967,340.438 677.8,334.605 675,328.5C 673.581,327.54 672.081,326.707 670.5,326C 659.412,325.684 648.412,326.351 637.5,328C 630.272,322.933 624.605,316.433 620.5,308.5C 612.769,303.286 607.603,296.286 605,287.5C 604,280.833 603,274.167 602,267.5C 598.849,259.547 596.015,251.547 593.5,243.5C 601.129,233.578 604.296,222.244 603,209.5C 603.707,207.919 604.54,206.419 605.5,205C 611.655,200.089 617.989,195.423 624.5,191C 632.31,186.807 640.643,185.474 649.5,187C 651.295,191.126 654.128,194.293 658,196.5C 661.701,193.311 666.034,191.311 671,190.5C 672.5,191 674,191.5 675.5,192C 676.457,194.535 677.624,196.701 679,198.5C 674.328,200.887 669.495,203.053 664.5,205C 661.305,206.695 658.972,209.195 657.5,212.5C 659.694,213.632 662.027,214.299 664.5,214.5C 676.728,214.152 687.228,209.818 696,201.5C 697.814,199.285 698.314,196.952 697.5,194.5C 693.962,192.231 690.295,190.231 686.5,188.5C 687.301,185.867 688.967,184.033 691.5,183C 698.414,179.474 705.414,176.14 712.5,173C 716.822,171.115 721.322,169.615 726,168.5C 727.107,168.585 728.107,168.919 729,169.5C 729.172,174.202 729.672,178.868 730.5,183.5C 741.328,187.622 748.328,184.289 751.5,173.5C 753.881,171.119 756.215,168.785 758.5,166.5 Z"/></g>
<g><path style="opacity:1" fill="#a3a2a4" d="M 947.5,239.5 C 940.038,258.572 939.538,277.906 946,297.5C 947.569,313.453 942.403,326.619 930.5,337C 924.012,337.834 917.679,337.168 911.5,335C 904.342,331.588 897.342,327.922 890.5,324C 887.5,323.333 884.5,323.333 881.5,324C 879.741,325.008 878.574,326.508 878,328.5C 876.318,335.879 873.652,342.879 870,349.5C 866.643,355.342 861.643,358.676 855,359.5C 847.619,359.072 840.452,357.739 833.5,355.5C 836.342,354.746 839.009,353.412 841.5,351.5C 849.014,341.457 852.848,330.124 853,317.5C 854.596,310.27 856.93,303.27 860,296.5C 860.833,295 862,293.833 863.5,293C 867.648,292.331 871.648,292.831 875.5,294.5C 876.5,294.167 877.5,293.833 878.5,293.5C 880.572,286.976 882.072,280.309 883,273.5C 888.857,265.323 896.357,259.157 905.5,255C 915.397,251.692 925.397,248.692 935.5,246C 939.367,243.567 943.367,241.4 947.5,239.5 Z"/></g>
</svg>
