<?xml version="1.0" encoding="UTF-8"?>
<!DOCTYPE svg PUBLIC "-//W3C//DTD SVG 1.1//EN" "http://www.w3.org/Graphics/SVG/1.1/DTD/svg11.dtd">
<svg xmlns="http://www.w3.org/2000/svg" version="1.1" width="968px" height="631px" style="shape-rendering:geometricPrecision; text-rendering:geometricPrecision; image-rendering:optimizeQuality; fill-rule:evenodd; clip-rule:evenodd" xmlns:xlink="http://www.w3.org/1999/xlink">
<g><path style="opacity:1" fill="#a3a2a4" d="M 935.5,220.5 C 919.538,218.667 903.538,216.167 887.5,213C 861.864,211.137 836.198,209.804 810.5,209C 794.566,206.2 778.566,203.867 762.5,202C 758.581,201.25 754.915,199.917 751.5,198C 748.049,195.428 747.549,192.261 750,188.5C 754.426,185.599 756.926,181.599 757.5,176.5C 750.523,177.457 743.523,177.623 736.5,177C 734.363,173.364 732.029,169.864 729.5,166.5C 722.688,163.235 715.688,160.402 708.5,158C 704.646,154.911 700.646,152.078 696.5,149.5C 696.297,147.956 695.63,146.622 694.5,145.5C 697.74,144.427 700.24,142.427 702,139.5C 703.235,131.577 703.902,123.577 704,115.5C 708.784,109.111 715.284,105.944 723.5,106C 733.291,104.524 742.624,105.858 751.5,110C 755.187,113.21 758.021,117.044 760,121.5C 763.473,124.306 766.64,127.473 769.5,131C 781.693,138.898 795.027,143.065 809.5,143.5C 813.5,143.333 817.5,143.167 821.5,143C 826.449,140.777 831.615,139.277 837,138.5C 842.19,139.343 847.023,141.176 851.5,144C 858.663,148.088 865.33,152.921 871.5,158.5C 875.617,163.407 877.45,169.074 877,175.5C 879.264,178.433 882.098,180.6 885.5,182C 903.387,181.552 919.72,186.219 934.5,196C 939.776,200.492 943.609,205.992 946,212.5C 947.419,215.296 949.585,217.296 952.5,218.5C 953.386,219.325 953.719,220.325 953.5,221.5C 947.5,221.167 941.5,220.833 935.5,220.5 Z"/></g>
<g><path style="opacity:1" fill="#fdbe81" d="M 696.5,149.5 C 700.646,152.078 704.646,154.911 708.5,158C 715.688,160.402 722.688,163.235 729.5,166.5C 732.029,169.864 734.363,173.364 736.5,177C 743.523,177.623 750.523,177.457 757.5,176.5C 756.926,181.599 754.426,185.599 750,188.5C 747.549,192.261 748.049,195.428 751.5,198C 754.915,199.917 758.581,201.25 762.5,202C 778.566,203.867 794.566,206.2 810.5,209C 836.198,209.804 861.864,211.137 887.5,213C 903.538,216.167 919.538,218.667 935.5,220.5C 941.274,221.946 947.274,222.612 953.5,222.5C 953.343,223.873 953.51,225.207 954,226.5C 954.906,223.879 955.406,224.046 955.5,227C 954.891,229.708 953.891,232.208 952.5,234.5C 950.134,238.194 946.801,240.694 942.5,242C 925.523,244.165 908.523,246.165 891.5,248C 883.535,249.905 875.868,252.572 868.5,256C 863.156,260.345 858.489,265.345 854.5,271C 850.916,272.073 847.25,272.74 843.5,273C 841.376,274.122 839.543,275.622 838,277.5C 836.872,287.881 833.039,297.047 826.5,305C 824.801,305.958 822.967,306.458 821,306.5C 815.521,305.514 810.021,305.348 804.5,306C 799.297,308.77 794.63,312.27 790.5,316.5C 788.915,320.142 787.581,323.808 786.5,327.5C 785.897,331.858 784.73,336.191 783,340.5C 779.86,343.64 776.694,346.806 773.5,350C 754.625,359.938 735.625,369.604 716.5,379C 710.685,381.575 704.685,383.575 698.5,385C 684.985,387.114 671.485,389.28 658,391.5C 655.144,390.744 652.311,389.911 649.5,389C 647.293,387.931 645.96,386.765 645.5,385.5C 643.332,382.5 640.666,380 637.5,378C 626.5,372.333 615.5,366.667 604.5,361C 594.189,361.661 583.855,361.995 573.5,362C 570.167,360.333 566.833,358.667 563.5,357C 554.597,346.091 543.931,337.424 531.5,331C 511.077,310.961 501.743,286.461 503.5,257.5C 502.943,247.609 504.11,237.942 507,228.5C 517.432,211.394 530.099,196.061 545,182.5C 550.125,175.707 555.625,169.207 561.5,163C 562.833,162.333 564.167,161.667 565.5,161C 582.823,161.557 599.823,159.557 616.5,155C 626.436,149.454 637.103,146.454 648.5,146C 663.511,145.167 678.511,145.334 693.5,146.5C 694.188,147.855 695.188,148.855 696.5,149.5 Z"/></g>
<g><path style="opacity:1" fill="#f7c733" d="M 703.5,165.5 C 711.908,165.75 715.408,170.083 714,178.5C 710.113,182.528 705.613,185.694 700.5,188C 697.833,191.667 695.167,195.333 692.5,199C 687.358,199.83 682.358,201.163 677.5,203C 671.048,208.497 671.048,213.831 677.5,219C 688.647,225.047 700.314,229.714 712.5,233C 714.837,238.354 719.004,240.521 725,239.5C 729.789,239.387 734.456,238.721 739,237.5C 742.921,244.557 748.754,249.39 756.5,252C 776.771,255.272 777.437,261.272 758.5,270C 756.416,271.501 755.083,273.501 754.5,276C 758.606,279.427 762.772,282.927 767,286.5C 768.841,290.183 771.174,293.516 774,296.5C 774.333,300.167 774.667,303.833 775,307.5C 777.167,311.167 779.333,314.833 781.5,318.5C 779.473,320.339 777.14,320.839 774.5,320C 768.474,317.067 762.307,314.567 756,312.5C 741.89,316.821 730.39,324.988 721.5,337C 717.184,339.535 712.518,341.202 707.5,342C 701.896,345.603 697.729,350.437 695,356.5C 694.793,360.089 694.293,363.589 693.5,367C 679.916,369.777 667.583,367.11 656.5,359C 649.516,357.574 642.516,356.24 635.5,355C 627.996,351.82 620.329,349.153 612.5,347C 597.833,344.333 583.167,341.667 568.5,339C 564.714,337.607 561.048,335.941 557.5,334C 549.575,329.79 542.075,324.957 535,319.5C 530.001,313.169 526.335,306.169 524,298.5C 525.522,289.115 526.689,279.615 527.5,270C 525.037,265.716 523.37,261.049 522.5,256C 525.669,249.155 527.835,241.989 529,234.5C 531.703,231.462 534.703,228.795 538,226.5C 540.305,220.057 539.805,213.89 536.5,208C 544.545,205.635 550.545,200.635 554.5,193C 563.339,191.737 572.005,189.737 580.5,187C 583.772,185.392 586.772,183.392 589.5,181C 594.475,181.328 599.475,181.328 604.5,181C 606.963,179.079 608.963,176.746 610.5,174C 615.89,172.126 621.223,172.293 626.5,174.5C 629.895,174.151 633.228,173.485 636.5,172.5C 648.121,176.971 659.954,177.638 672,174.5C 676.458,175.579 680.958,175.746 685.5,175C 691.46,171.488 697.46,168.321 703.5,165.5 Z"/></g>
<g><path style="opacity:1" fill="#a3a2a4" d="M 786.5,327.5 C 787.581,323.808 788.915,320.142 790.5,316.5C 794.63,312.27 799.297,308.77 804.5,306C 810.021,305.348 815.521,305.514 821,306.5C 822.967,306.458 824.801,305.958 826.5,305C 833.039,297.047 836.872,287.881 838,277.5C 839.543,275.622 841.376,274.122 843.5,273C 847.25,272.74 850.916,272.073 854.5,271C 858.489,265.345 863.156,260.345 868.5,256C 875.868,252.572 883.535,249.905 891.5,248C 908.523,246.165 925.523,244.165 942.5,242C 946.801,240.694 950.134,238.194 952.5,234.5C 955.27,232.634 956.77,229.968 957,226.5C 957.743,229.783 957.076,232.783 955,235.5C 946.628,242.205 939.295,249.871 933,258.5C 932.342,260.8 931.842,263.133 931.5,265.5C 936.482,281.326 933.816,295.493 923.5,308C 921.608,308.973 919.608,309.64 917.5,310C 902.715,310.604 888.048,311.937 873.5,314C 864.037,328.42 855.204,343.253 847,358.5C 828.586,374.064 808.086,377.731 785.5,369.5C 782.222,365.279 779.722,360.612 778,355.5C 775.48,354.793 772.98,353.96 770.5,353C 777.487,349.115 782.654,343.615 786,336.5C 786.498,333.518 786.665,330.518 786.5,327.5 Z"/></g>
<g><path style="opacity:1" fill="#fefffe" d="M 645.5,385.5 C 644.833,386.167 644.833,386.167 645.5,385.5 Z"/></g>
</svg>
