<?xml version="1.0" encoding="UTF-8"?>
<!DOCTYPE svg PUBLIC "-//W3C//DTD SVG 1.1//EN" "http://www.w3.org/Graphics/SVG/1.1/DTD/svg11.dtd">
<svg xmlns="http://www.w3.org/2000/svg" version="1.1" width="968px" height="631px" style="shape-rendering:geometricPrecision; text-rendering:geometricPrecision; image-rendering:optimizeQuality; fill-rule:evenodd; clip-rule:evenodd" xmlns:xlink="http://www.w3.org/1999/xlink">
<g><path style="opacity:1" fill="#a3a2a4" d="M 956.5,226.5 C 944.44,225.546 932.44,224.046 920.5,222C 880.353,220.939 840.353,222.772 800.5,227.5C 785.154,226.412 770.154,223.579 755.5,219C 752.667,218.833 749.833,218.667 747,218.5C 731.532,220.281 716.032,221.781 700.5,223C 692.337,224.05 684.337,223.383 676.5,221C 672.527,216.268 673.027,211.768 678,207.5C 678.667,204.167 678.667,200.833 678,197.5C 674.686,194.182 670.852,191.682 666.5,190C 654.854,190.391 643.521,188.724 632.5,185C 628.509,182.011 625.676,178.178 624,173.5C 623.339,167.523 621.672,161.856 619,156.5C 606.974,146.771 595.474,147.605 584.5,159C 571.984,165.438 558.651,168.438 544.5,168C 532.746,181.213 518.08,189.213 500.5,192C 495.993,196.253 490.66,198.92 484.5,200C 478.189,205.77 472.689,212.27 468,219.5C 462.037,225.309 455.704,230.642 449,235.5C 449.032,233.402 449.699,231.402 451,229.5C 455.056,225.278 457.556,220.278 458.5,214.5C 462.226,208.727 465.726,202.727 469,196.5C 472.167,193.333 475.333,190.167 478.5,187C 501.537,173.316 525.203,160.983 549.5,150C 555.99,144.843 562.99,140.509 570.5,137C 583.24,134.781 595.907,135.114 608.5,138C 618.816,145.275 630.149,147.608 642.5,145C 649.878,139.098 658.211,137.098 667.5,139C 675.819,142.825 683.819,147.158 691.5,152C 698.667,155.351 703.834,153.518 707,146.5C 699.835,114.997 711.668,103.164 742.5,111C 749.475,116.637 756.475,122.303 763.5,128C 779.963,137.083 797.297,139.083 815.5,134C 819.241,132.262 822.408,129.762 825,126.5C 826.953,122.308 829.453,118.474 832.5,115C 834.274,114.03 836.107,113.196 838,112.5C 840.281,113.776 842.281,115.443 844,117.5C 846.885,122.173 849.385,127.007 851.5,132C 858.873,133.233 864.706,130.733 869,124.5C 869.949,117.815 870.949,111.149 872,104.5C 877.903,97.7757 885.07,94.9424 893.5,96C 894.333,96.8333 895.167,97.6667 896,98.5C 898.966,104.294 902.133,109.961 905.5,115.5C 911.089,118.194 916.256,121.527 921,125.5C 925.424,132.107 929.091,139.107 932,146.5C 937.581,152.15 943.248,157.816 949,163.5C 949.739,165.221 950.573,166.887 951.5,168.5C 952.291,179.196 953.291,189.862 954.5,200.5C 954.332,204.515 953.999,208.515 953.5,212.5C 955.116,216.971 956.116,221.638 956.5,226.5 Z"/></g>
<g><path style="opacity:1" fill="#fdbe81" d="M 956.5,226.5 C 957.31,230.524 955.977,233.857 952.5,236.5C 951.054,235.387 949.387,235.22 947.5,236C 943.391,239.388 938.725,241.721 933.5,243C 918.501,244.499 903.501,245.833 888.5,247C 871.209,252.144 854.209,258.144 837.5,265C 822.138,266.31 806.805,267.977 791.5,270C 788.383,272.542 785.717,275.542 783.5,279C 772.959,281.208 762.292,282.542 751.5,283C 746.427,283.619 742.594,286.119 740,290.5C 736.368,298.147 732.702,305.814 729,313.5C 727.615,326.196 725.948,338.862 724,351.5C 721.389,364.112 713.889,372.279 701.5,376C 695.365,381.475 688.699,386.142 681.5,390C 677.903,390.972 674.236,391.472 670.5,391.5C 662.315,390.664 654.148,389.664 646,388.5C 639.855,389.547 633.855,391.214 628,393.5C 626.112,393.204 624.278,392.704 622.5,392C 619.167,388.333 615.833,384.667 612.5,381C 609.12,379.916 605.62,379.416 602,379.5C 592.993,380.503 583.993,381.503 575,382.5C 567.479,381.858 559.979,381.358 552.5,381C 550.923,384.08 548.59,386.247 545.5,387.5C 540.793,388.923 536.126,388.756 531.5,387C 528.818,381.972 526.318,376.805 524,371.5C 523.25,370.874 522.416,370.374 521.5,370C 513.496,369.567 505.496,369.733 497.5,370.5C 485.823,370.853 475.823,366.853 467.5,358.5C 462.806,352.306 458.306,345.972 454,339.5C 451.808,335.26 450.642,330.76 450.5,326C 451.201,321.805 451.701,317.638 452,313.5C 449.475,308.921 447.141,304.254 445,299.5C 445.052,290.973 444.885,282.473 444.5,274C 446.037,261.556 446.87,249.056 447,236.5C 447.438,233.624 448.438,230.957 450,228.5C 453.523,224.168 456.356,219.501 458.5,214.5C 457.556,220.278 455.056,225.278 451,229.5C 449.699,231.402 449.032,233.402 449,235.5C 455.704,230.642 462.037,225.309 468,219.5C 472.689,212.27 478.189,205.77 484.5,200C 490.66,198.92 495.993,196.253 500.5,192C 518.08,189.213 532.746,181.213 544.5,168C 558.651,168.438 571.984,165.438 584.5,159C 595.474,147.605 606.974,146.771 619,156.5C 621.672,161.856 623.339,167.523 624,173.5C 625.676,178.178 628.509,182.011 632.5,185C 643.521,188.724 654.854,190.391 666.5,190C 670.852,191.682 674.686,194.182 678,197.5C 678.667,200.833 678.667,204.167 678,207.5C 673.027,211.768 672.527,216.268 676.5,221C 684.337,223.383 692.337,224.05 700.5,223C 716.032,221.781 731.532,220.281 747,218.5C 749.833,218.667 752.667,218.833 755.5,219C 770.154,223.579 785.154,226.412 800.5,227.5C 840.353,222.772 880.353,220.939 920.5,222C 932.44,224.046 944.44,225.546 956.5,226.5 Z"/></g>
<g><path style="opacity:1" fill="#f7c733" d="M 501.5,219.5 C 503.39,219.297 504.89,219.963 506,221.5C 507.779,224.613 508.945,227.946 509.5,231.5C 507.24,236.269 504.74,240.936 502,245.5C 499.942,253.004 501.775,259.504 507.5,265C 511.734,267.409 516.067,269.576 520.5,271.5C 528.496,268.171 534.162,262.504 537.5,254.5C 543.234,251.452 549.401,250.119 556,250.5C 563.013,251.036 570.013,251.703 577,252.5C 584.502,252.753 591.502,251.086 598,247.5C 597.667,244.833 597.333,242.167 597,239.5C 606.952,230.936 618.452,228.103 631.5,231C 636.814,234.993 642.814,236.993 649.5,237C 656.561,239.029 662.894,242.363 668.5,247C 672.148,247.062 675.815,246.895 679.5,246.5C 679.5,247.5 679.5,248.5 679.5,249.5C 675.987,248.876 673.153,249.876 671,252.5C 669.491,264.864 670.824,276.864 675,288.5C 682.071,296.974 688.405,305.974 694,315.5C 695.816,319.281 695.483,322.947 693,326.5C 690.876,327.622 689.043,329.122 687.5,331C 674.306,330.877 669.14,337.377 672,350.5C 669.143,361.452 662.477,364.786 652,360.5C 651.506,358.866 651.34,357.199 651.5,355.5C 640.747,354.524 630.747,356.69 621.5,362C 606.93,362.596 592.93,360.096 579.5,354.5C 575.62,354.62 572.954,356.453 571.5,360C 567.361,364.036 563.028,364.369 558.5,361C 552.934,353.154 546.601,352.487 539.5,359C 535.797,359.579 532.131,359.412 528.5,358.5C 528.98,355.315 528.314,352.481 526.5,350C 519.916,348.624 514.082,345.791 509,341.5C 508.331,337.352 508.831,333.352 510.5,329.5C 510.43,328.228 510.097,327.062 509.5,326C 506.366,325.21 503.366,325.543 500.5,327C 498.938,331.011 497.604,335.178 496.5,339.5C 493.1,341.978 489.267,343.311 485,343.5C 476.657,343.123 468.823,340.956 461.5,337C 456.114,329.77 456.28,322.603 462,315.5C 463.354,309.332 462.354,303.666 459,298.5C 456.25,289.994 454.583,281.327 454,272.5C 458.174,265.484 462.841,258.817 468,252.5C 468.92,249.899 469.587,247.232 470,244.5C 477.5,238.333 484.333,231.5 490.5,224C 493.5,223.667 496.5,223.333 499.5,223C 500.305,221.887 500.972,220.721 501.5,219.5 Z"/></g>
<g><path style="opacity:1" fill="#a3a2a4" d="M 952.5,236.5 C 946.374,241.402 940.041,246.068 933.5,250.5C 930.421,254.324 927.588,258.324 925,262.5C 924.163,266.295 924.496,269.961 926,273.5C 932.355,278.857 938.355,284.523 944,290.5C 945.38,296.937 942.88,300.437 936.5,301C 916.581,302.063 896.747,301.229 877,298.5C 869.031,297.144 863.698,300.144 861,307.5C 860.689,313.874 860.023,320.207 859,326.5C 858.333,327.833 857.667,329.167 857,330.5C 853,333.833 849,337.167 845,340.5C 843.08,343.339 841.413,346.339 840,349.5C 839.882,358.56 839.215,367.56 838,376.5C 833.638,389.661 824.471,395.327 810.5,393.5C 803.705,393.957 797.371,392.457 791.5,389C 787.421,383.006 784.254,376.506 782,369.5C 778.753,365.341 775.753,361.008 773,356.5C 770.706,355.148 768.206,354.481 765.5,354.5C 761.171,355.037 756.838,355.537 752.5,356C 746.863,358.82 741.53,362.153 736.5,366C 725.196,378.304 713.53,390.304 701.5,402C 696.666,405.252 691.666,408.252 686.5,411C 680.167,411.667 673.833,411.667 667.5,411C 658.594,406.877 649.594,406.544 640.5,410C 637.167,410.667 633.833,410.667 630.5,410C 618.622,405.727 607.289,400.393 596.5,394C 591.009,393.401 585.509,392.901 580,392.5C 570.377,394.196 560.877,393.696 551.5,391C 549.273,390.059 547.273,388.892 545.5,387.5C 548.59,386.247 550.923,384.08 552.5,381C 559.979,381.358 567.479,381.858 575,382.5C 583.993,381.503 592.993,380.503 602,379.5C 605.62,379.416 609.12,379.916 612.5,381C 615.833,384.667 619.167,388.333 622.5,392C 624.278,392.704 626.112,393.204 628,393.5C 633.855,391.214 639.855,389.547 646,388.5C 654.148,389.664 662.315,390.664 670.5,391.5C 674.236,391.472 677.903,390.972 681.5,390C 688.699,386.142 695.365,381.475 701.5,376C 713.889,372.279 721.389,364.112 724,351.5C 725.948,338.862 727.615,326.196 729,313.5C 732.702,305.814 736.368,298.147 740,290.5C 742.594,286.119 746.427,283.619 751.5,283C 762.292,282.542 772.959,281.208 783.5,279C 785.717,275.542 788.383,272.542 791.5,270C 806.805,267.977 822.138,266.31 837.5,265C 854.209,258.144 871.209,252.144 888.5,247C 903.501,245.833 918.501,244.499 933.5,243C 938.725,241.721 943.391,239.388 947.5,236C 949.387,235.22 951.054,235.387 952.5,236.5 Z"/></g>
<g><path style="opacity:1" fill="#fdbe81" d="M 572.5,329.5 C 575.187,329.336 577.854,329.503 580.5,330C 580.953,332.693 582.453,334.527 585,335.5C 586.033,338.217 585.2,340.051 582.5,341C 580.167,341.667 577.833,341.667 575.5,341C 573.341,338.435 571.008,336.101 568.5,334C 569.344,331.993 570.677,330.493 572.5,329.5 Z"/></g>
</svg>
