<?xml version="1.0" encoding="UTF-8"?>
<!DOCTYPE svg PUBLIC "-//W3C//DTD SVG 1.1//EN" "http://www.w3.org/Graphics/SVG/1.1/DTD/svg11.dtd">
<svg xmlns="http://www.w3.org/2000/svg" version="1.1" width="968px" height="631px" style="shape-rendering:geometricPrecision; text-rendering:geometricPrecision; image-rendering:optimizeQuality; fill-rule:evenodd; clip-rule:evenodd" xmlns:xlink="http://www.w3.org/1999/xlink">
<g><path style="opacity:1" fill="#b6b6b7" d="M 949.5,223.5 C 907.853,221.687 866.187,220.854 824.5,221C 815.971,223.065 807.638,225.732 799.5,229C 793.5,229.667 787.5,229.667 781.5,229C 766.768,223.232 751.768,222.232 736.5,226C 731.135,229.014 725.801,232.014 720.5,235C 709.217,232.12 698.55,233.786 688.5,240C 678.627,242.141 668.96,244.974 659.5,248.5C 654.877,247.859 651.211,245.692 648.5,242C 635.877,240.269 623.211,238.935 610.5,238C 607.938,235.587 604.938,233.92 601.5,233C 592.217,230.786 582.884,228.786 573.5,227C 564.787,222.823 563.62,217.323 570,210.5C 570.42,203.814 573.92,199.981 580.5,199C 588.529,198.665 596.529,197.998 604.5,197C 606.002,196.417 607.335,195.584 608.5,194.5C 610.568,184.81 606.901,177.977 597.5,174C 591.794,171.095 585.794,170.095 579.5,171C 575.083,173.16 573.749,176.494 575.5,181C 577.623,181.815 579.623,182.815 581.5,184C 572.967,187.817 564.301,188.15 555.5,185C 554.667,184.167 553.833,183.333 553,182.5C 550.29,170.236 543.457,167.403 532.5,174C 526.688,180.143 520.522,185.977 514,191.5C 510.376,188.857 506.543,186.69 502.5,185C 501.178,180.689 498.845,177.023 495.5,174C 487.819,171.999 481.319,173.833 476,179.5C 469.154,193.687 459.988,206.187 448.5,217C 444.269,219.017 440.103,218.85 436,216.5C 433.61,217.278 431.443,218.445 429.5,220C 418.317,230.684 406.984,241.184 395.5,251.5C 388.554,259.79 381.888,268.123 375.5,276.5C 374.418,275.406 373.752,274.073 373.5,272.5C 375.255,269.321 376.755,265.987 378,262.5C 385.712,253.79 393.045,244.79 400,235.5C 403.021,231.456 405.521,227.123 407.5,222.5C 408.192,223.025 408.692,223.692 409,224.5C 412.399,218.432 416.565,212.932 421.5,208C 433.167,199.667 444.833,191.333 456.5,183C 462.376,172.256 469.71,162.589 478.5,154C 482.616,150.776 487.283,148.942 492.5,148.5C 498.257,149.218 503.924,150.385 509.5,152C 516.839,153.232 523.839,152.232 530.5,149C 550.316,135.062 572.316,130.062 596.5,134C 606.367,136.933 615.033,141.933 622.5,149C 626.919,151.876 631.586,154.21 636.5,156C 639.5,156.667 642.5,156.667 645.5,156C 655,151.713 664.667,151.38 674.5,155C 681.683,160.427 688.683,166.094 695.5,172C 701.463,174.785 705.296,172.951 707,166.5C 708.182,158.853 707.182,151.52 704,144.5C 699.978,118.194 711.144,106.027 737.5,108C 746.727,110.945 755.061,115.445 762.5,121.5C 765.494,124.82 767.994,128.487 770,132.5C 772.565,140.786 775.732,148.786 779.5,156.5C 790.035,165.843 802.368,169.677 816.5,168C 825.05,163.443 833.05,158.109 840.5,152C 857.612,141.794 875.279,140.794 893.5,149C 899.722,153.128 901.222,158.628 898,165.5C 890.491,174.435 889.491,184.102 895,194.5C 898.86,198.36 902.694,202.194 906.5,206C 913.454,207.088 920.454,208.088 927.5,209C 933.5,212.333 939.5,215.667 945.5,219C 947.041,220.371 948.375,221.871 949.5,223.5 Z"/></g>
<g><path style="opacity:1" fill="#fca670" d="M 949.5,223.5 C 951.913,225.051 954.579,225.717 957.5,225.5C 957.664,228.187 957.497,230.854 957,233.5C 955.807,235.497 954.307,237.164 952.5,238.5C 940.744,241.19 929.077,244.356 917.5,248C 907.651,248.713 897.818,248.546 888,247.5C 869.309,250.884 850.476,253.051 831.5,254C 828.246,254.25 825.246,255.25 822.5,257C 818.48,261.01 813.813,264.01 808.5,266C 793.477,265.412 778.477,264.746 763.5,264C 749.977,267.432 736.643,271.432 723.5,276C 718.38,278.06 713.38,280.393 708.5,283C 702.167,283.333 695.833,283.667 689.5,284C 670.989,287.186 665.823,297.353 674,314.5C 678.368,318.533 682.368,322.866 686,327.5C 687.845,331.143 687.845,334.809 686,338.5C 681.035,340.826 676.035,343.159 671,345.5C 671.165,352.492 671.165,359.492 671,366.5C 668.968,373.261 664.801,375.428 658.5,373C 649.014,366.498 640.181,367.331 632,375.5C 631.51,376.793 631.343,378.127 631.5,379.5C 636.333,379.375 641,380.208 645.5,382C 649.671,383.45 651.005,386.117 649.5,390C 645.104,390.746 640.77,391.746 636.5,393C 634.697,393.637 633.364,394.803 632.5,396.5C 636.192,401.025 639.692,405.692 643,410.5C 644.031,413.683 643.365,416.349 641,418.5C 636.481,416.235 632.481,413.235 629,409.5C 621.613,396.552 614.113,383.719 606.5,371C 589.439,369.854 572.439,368.854 555.5,368C 545.676,371.578 535.676,374.578 525.5,377C 520.167,381 514.833,385 509.5,389C 504.209,390.828 498.875,390.994 493.5,389.5C 496.68,404.153 491.013,409.986 476.5,407C 472.072,406.303 468.072,404.637 464.5,402C 461.045,397.589 457.711,393.089 454.5,388.5C 450.787,385.317 446.787,382.65 442.5,380.5C 436.525,368.553 429.525,357.219 421.5,346.5C 420.354,345.855 419.354,345.022 418.5,344C 412.254,343.587 406.254,342.254 400.5,340C 392.551,333.383 386.051,325.55 381,316.5C 379.469,308.575 377.136,300.909 374,293.5C 373.211,287.685 373.711,282.019 375.5,276.5C 381.888,268.123 388.554,259.79 395.5,251.5C 406.984,241.184 418.317,230.684 429.5,220C 431.443,218.445 433.61,217.278 436,216.5C 440.103,218.85 444.269,219.017 448.5,217C 459.988,206.187 469.154,193.687 476,179.5C 481.319,173.833 487.819,171.999 495.5,174C 498.845,177.023 501.178,180.689 502.5,185C 506.543,186.69 510.376,188.857 514,191.5C 520.522,185.977 526.688,180.143 532.5,174C 543.457,167.403 550.29,170.236 553,182.5C 553.833,183.333 554.667,184.167 555.5,185C 564.301,188.15 572.967,187.817 581.5,184C 579.623,182.815 577.623,181.815 575.5,181C 573.749,176.494 575.083,173.16 579.5,171C 585.794,170.095 591.794,171.095 597.5,174C 606.901,177.977 610.568,184.81 608.5,194.5C 607.335,195.584 606.002,196.417 604.5,197C 596.529,197.998 588.529,198.665 580.5,199C 573.92,199.981 570.42,203.814 570,210.5C 563.62,217.323 564.787,222.823 573.5,227C 582.884,228.786 592.217,230.786 601.5,233C 604.938,233.92 607.938,235.587 610.5,238C 623.211,238.935 635.877,240.269 648.5,242C 651.211,245.692 654.877,247.859 659.5,248.5C 668.96,244.974 678.627,242.141 688.5,240C 698.55,233.786 709.217,232.12 720.5,235C 725.801,232.014 731.135,229.014 736.5,226C 751.768,222.232 766.768,223.232 781.5,229C 787.5,229.667 793.5,229.667 799.5,229C 807.638,225.732 815.971,223.065 824.5,221C 866.187,220.854 907.853,221.687 949.5,223.5 Z"/></g>
<g><path style="opacity:1" fill="#b6b6b7" d="M 952.5,238.5 C 951.92,242.142 951.42,245.809 951,249.5C 946.632,253.533 942.632,257.866 939,262.5C 938.767,273.507 938.767,284.507 939,295.5C 939.48,306.019 934.647,309.853 924.5,307C 915.155,305.055 905.822,303.221 896.5,301.5C 891.117,302.008 885.784,302.842 880.5,304C 877.758,305.07 875.258,306.57 873,308.5C 871.333,312.167 869.667,315.833 868,319.5C 863.5,323.333 859,327.167 854.5,331C 849.792,331.496 845.125,331.162 840.5,330C 833.595,327.38 826.595,325.047 819.5,323C 814.777,322.376 810.11,322.71 805.5,324C 804.874,324.75 804.374,325.584 804,326.5C 805.047,338.025 802.047,348.358 795,357.5C 794.097,358.701 792.931,359.535 791.5,360C 788.167,360.667 784.833,360.667 781.5,360C 771.938,355.718 762.271,351.718 752.5,348C 745.253,347.321 738.253,348.321 731.5,351C 727.267,354.599 722.601,357.599 717.5,360C 704.013,375.161 689.013,388.494 672.5,400C 666.37,405.448 661.87,411.948 659,419.5C 656.713,422.462 653.88,424.629 650.5,426C 644.746,425.784 639.079,424.784 633.5,423C 623.73,418.281 614.063,413.281 604.5,408C 598.239,405.12 591.739,402.953 585,401.5C 580.647,402.037 576.48,403.203 572.5,405C 566.833,405.667 561.167,405.667 555.5,405C 543.615,399.989 531.282,398.322 518.5,400C 514.295,401.864 510.628,404.53 507.5,408C 487.087,418.82 467.254,417.987 448,405.5C 444.7,397.498 442.866,389.165 442.5,380.5C 446.787,382.65 450.787,385.317 454.5,388.5C 457.711,393.089 461.045,397.589 464.5,402C 468.072,404.637 472.072,406.303 476.5,407C 491.013,409.986 496.68,404.153 493.5,389.5C 498.875,390.994 504.209,390.828 509.5,389C 514.833,385 520.167,381 525.5,377C 535.676,374.578 545.676,371.578 555.5,368C 572.439,368.854 589.439,369.854 606.5,371C 614.113,383.719 621.613,396.552 629,409.5C 632.481,413.235 636.481,416.235 641,418.5C 643.365,416.349 644.031,413.683 643,410.5C 639.692,405.692 636.192,401.025 632.5,396.5C 633.364,394.803 634.697,393.637 636.5,393C 640.77,391.746 645.104,390.746 649.5,390C 651.005,386.117 649.671,383.45 645.5,382C 641,380.208 636.333,379.375 631.5,379.5C 631.343,378.127 631.51,376.793 632,375.5C 640.181,367.331 649.014,366.498 658.5,373C 664.801,375.428 668.968,373.261 671,366.5C 671.165,359.492 671.165,352.492 671,345.5C 676.035,343.159 681.035,340.826 686,338.5C 687.845,334.809 687.845,331.143 686,327.5C 682.368,322.866 678.368,318.533 674,314.5C 665.823,297.353 670.989,287.186 689.5,284C 695.833,283.667 702.167,283.333 708.5,283C 713.38,280.393 718.38,278.06 723.5,276C 736.643,271.432 749.977,267.432 763.5,264C 778.477,264.746 793.477,265.412 808.5,266C 813.813,264.01 818.48,261.01 822.5,257C 825.246,255.25 828.246,254.25 831.5,254C 850.476,253.051 869.309,250.884 888,247.5C 897.818,248.546 907.651,248.713 917.5,248C 929.077,244.356 940.744,241.19 952.5,238.5 Z"/></g>
<g><path style="opacity:1" fill="#f7c733" d="M 545.5,252.5 C 548.187,252.336 550.854,252.503 553.5,253C 561.393,257.56 568.727,262.893 575.5,269C 581.795,273.068 588.628,275.568 596,276.5C 599.574,276.232 603.074,275.565 606.5,274.5C 607.554,274.68 608.554,275.013 609.5,275.5C 610.982,279.344 611.815,283.344 612,287.5C 617.21,291.238 623.044,293.405 629.5,294C 635.878,299.707 638.211,306.873 636.5,315.5C 632.116,315.174 627.783,315.508 623.5,316.5C 622.349,318.809 621.016,320.976 619.5,323C 621.258,325.267 621.758,327.767 621,330.5C 614.26,338.317 607.76,346.317 601.5,354.5C 596.869,355.662 592.202,355.828 587.5,355C 570.371,348.984 552.704,345.651 534.5,345C 531.756,344.197 529.089,343.197 526.5,342C 516.048,341.468 505.715,342.135 495.5,344C 493.181,340.682 490.515,337.682 487.5,335C 489.388,329.962 490.221,324.795 490,319.5C 482.902,314.868 480.568,308.535 483,300.5C 483.903,299.299 485.069,298.465 486.5,298C 497.846,297.998 507.013,293.498 514,284.5C 516.667,279.167 519.333,273.833 522,268.5C 528.903,261.491 536.736,256.157 545.5,252.5 Z"/></g>
<g><path style="opacity:1" fill="#fca670" d="M 594.5,294.5 C 597.365,294.055 599.865,294.722 602,296.5C 602.901,299.071 604.234,301.404 606,303.5C 606.334,305.847 606.167,308.181 605.5,310.5C 603.801,310.66 602.134,310.494 600.5,310C 597.044,306.549 593.044,303.882 588.5,302C 590.217,300.441 592.217,299.608 594.5,299.5C 594.5,297.833 594.5,296.167 594.5,294.5 Z"/></g>
<g><path style="opacity:1" fill="#fca670" d="M 513.5,324.5 C 521.177,324.327 524.177,327.827 522.5,335C 512.238,337.253 509.238,333.753 513.5,324.5 Z"/></g>
<g><path style="opacity:1" fill="#f7c733" d="M 467.5,327.5 C 471.555,327.176 475.555,327.509 479.5,328.5C 476.377,332.078 472.377,333.411 467.5,332.5C 467.5,330.833 467.5,329.167 467.5,327.5 Z"/></g>
</svg>
