<?xml version="1.0" encoding="UTF-8"?>
<!DOCTYPE svg PUBLIC "-//W3C//DTD SVG 1.1//EN" "http://www.w3.org/Graphics/SVG/1.1/DTD/svg11.dtd">
<svg xmlns="http://www.w3.org/2000/svg" version="1.1" width="968px" height="631px" style="shape-rendering:geometricPrecision; text-rendering:geometricPrecision; image-rendering:optimizeQuality; fill-rule:evenodd; clip-rule:evenodd" xmlns:xlink="http://www.w3.org/1999/xlink">
<g><path style="opacity:1" fill="#b6b6b7" d="M 900.5,166.5 C 901.045,168.593 901.878,170.593 903,172.5C 903.333,178.833 903.667,185.167 904,191.5C 905.01,195.843 907.51,199.01 911.5,201C 927.434,206.288 941.934,214.121 955,224.5C 956.301,226.365 956.635,228.365 956,230.5C 954.948,226.874 952.448,225.041 948.5,225C 943.5,224.333 938.5,224.333 933.5,225C 926.476,226.922 919.309,227.755 912,227.5C 900.428,226.887 888.928,225.553 877.5,223.5C 869.742,226.867 861.742,229.867 853.5,232.5C 841.347,229.207 829.013,227.707 816.5,228C 810.506,230.655 804.506,233.321 798.5,236C 778.64,240.848 759.64,238.848 741.5,230C 727.761,225.951 713.761,224.618 699.5,226C 683.397,230.686 668.73,238.02 655.5,248C 644.042,248.378 633.375,251.378 623.5,257C 609.829,256.801 596.162,256.134 582.5,255C 573.357,253.624 565.19,250.124 558,244.5C 554.299,238.294 550.799,231.96 547.5,225.5C 542.314,219.913 535.981,218.08 528.5,220C 522.21,222.812 516.21,226.145 510.5,230C 507.57,231.318 504.57,231.985 501.5,232C 499.462,230.764 498.295,228.931 498,226.5C 496.552,217.074 498.886,208.741 505,201.5C 508.033,192.749 504.866,187.916 495.5,187C 486.77,186.124 478.104,186.458 469.5,188C 459.037,192.812 449.371,198.812 440.5,206C 425.593,211.114 410.26,214.114 394.5,215C 389.258,216.745 384.425,219.245 380,222.5C 377.964,226.948 376.13,231.448 374.5,236C 370.916,237.073 367.25,237.74 363.5,238C 356.989,242.423 350.655,247.089 344.5,252C 339.955,256.928 337.455,262.761 337,269.5C 329.667,273.5 324,279.167 320,286.5C 318.024,296.206 318.357,305.873 321,315.5C 327.035,326.53 334.869,336.03 344.5,344C 348.863,344.894 353.196,345.894 357.5,347C 368.573,347.796 379.573,349.129 390.5,351C 392.895,351.681 395.228,352.515 397.5,353.5C 401.454,362.621 408.12,368.788 417.5,372C 432.895,375.912 448.561,377.579 464.5,377C 468.469,377.853 472.469,378.519 476.5,379C 484.142,388.339 493.809,391.006 505.5,387C 509.547,381.742 513.713,376.575 518,371.5C 518.109,366.386 518.776,361.386 520,356.5C 526.462,349.68 534.295,345.013 543.5,342.5C 551.475,346.77 559.975,349.103 569,349.5C 573.222,349.441 577.389,348.941 581.5,348C 582.931,347.535 584.097,346.701 585,345.5C 585.667,340.5 585.667,335.5 585,330.5C 579.746,321.661 574.746,312.661 570,303.5C 569.333,299.167 569.333,294.833 570,290.5C 573.062,286.057 577.229,284.557 582.5,286C 595.725,293.846 609.392,294.513 623.5,288C 630.869,283.994 638.203,279.994 645.5,276C 661.361,275.487 677.194,275.987 693,277.5C 699.868,277.452 706.702,276.952 713.5,276C 722.035,273.933 730.369,271.266 738.5,268C 754.474,266.843 770.474,266.176 786.5,266C 800.11,263.895 813.777,262.228 827.5,261C 836.63,259.134 845.63,256.801 854.5,254C 872.664,251.945 890.664,248.945 908.5,245C 921.516,239.123 935.183,236.79 949.5,238C 942.333,241.167 937.167,246.333 934,253.5C 932.382,260.68 933.882,267.013 938.5,272.5C 941.607,278.989 943.607,285.822 944.5,293C 941.775,312.377 930.775,320.044 911.5,316C 900.25,311.041 889.583,305.041 879.5,298C 876.697,297.245 874.03,297.578 871.5,299C 864.799,303.688 858.466,308.855 852.5,314.5C 851.704,321.117 851.204,327.783 851,334.5C 846.667,343.833 842.333,353.167 838,362.5C 827.491,381.493 811.657,387.993 790.5,382C 774.07,377.527 759.07,370.194 745.5,360C 735.215,349.675 729.382,337.175 728,322.5C 726.363,320.19 724.196,318.69 721.5,318C 711.834,315.991 704.334,319.158 699,327.5C 697.945,333.136 696.945,338.803 696,344.5C 690.693,355.145 683.193,363.978 673.5,371C 665.114,377.72 656.447,384.053 647.5,390C 642.427,395.744 636.76,400.744 630.5,405C 627.247,406.036 623.914,406.703 620.5,407C 610.167,407.667 599.833,407.667 589.5,407C 580.273,404.026 570.939,401.359 561.5,399C 548.292,396.373 535.626,398.04 523.5,404C 514.878,408.97 506.545,414.303 498.5,420C 487.763,422.941 477.43,421.941 467.5,417C 454.985,408.573 441.985,400.907 428.5,394C 420.708,391.241 412.708,389.241 404.5,388C 403.167,387 401.833,386 400.5,385C 371.913,375.957 347.413,360.457 327,338.5C 322.497,332.165 318.497,325.498 315,318.5C 312.105,306.923 311.771,295.256 314,283.5C 317.522,276.639 321.855,270.306 327,264.5C 330.444,257.946 333.611,251.279 336.5,244.5C 343.699,239.736 351.032,235.236 358.5,231C 362.959,225.253 366.793,219.086 370,212.5C 374.74,207.379 380.573,204.212 387.5,203C 400.321,200.636 412.988,197.636 425.5,194C 441.49,184.669 456.824,174.336 471.5,163C 492.632,163.313 513.298,160.647 533.5,155C 539.5,154.333 545.5,154.333 551.5,155C 560.521,162.681 570.854,167.681 582.5,170C 594.561,169.98 606.561,169.313 618.5,168C 624.743,171.238 630.743,174.905 636.5,179C 649.404,181.661 662.404,182.328 675.5,181C 682.614,183.783 688.947,187.783 694.5,193C 697.465,195.33 700.632,195.83 704,194.5C 705.467,190.63 706.301,186.63 706.5,182.5C 705.717,176.65 704.217,170.983 702,165.5C 699.648,157.106 701.815,150.272 708.5,145C 718.624,136.97 729.958,134.637 742.5,138C 748.328,139.943 753.995,142.276 759.5,145C 765.068,150.812 770.401,156.812 775.5,163C 784.285,168.634 793.951,171.134 804.5,170.5C 821.85,170.56 837.85,166.06 852.5,157C 856.72,155.589 861.053,154.756 865.5,154.5C 873.222,155.678 880.889,157.178 888.5,159C 893,160.747 897,163.247 900.5,166.5 Z"/></g>
<g><path style="opacity:1" fill="#fda671" d="M 900.5,166.5 C 902.136,167.749 903.303,169.416 904,171.5C 904.333,177.833 904.667,184.167 905,190.5C 906.01,194.843 908.51,198.01 912.5,200C 926.282,204.224 938.949,210.558 950.5,219C 953.237,220.614 955.403,222.781 957,225.5C 957.254,228.195 957.421,230.695 957.5,233C 953.097,237.291 947.764,241.291 941.5,245C 935.78,249.935 933.614,256.102 935,263.5C 936.741,266.309 937.908,269.309 938.5,272.5C 933.882,267.013 932.382,260.68 934,253.5C 937.167,246.333 942.333,241.167 949.5,238C 935.183,236.79 921.516,239.123 908.5,245C 890.664,248.945 872.664,251.945 854.5,254C 845.63,256.801 836.63,259.134 827.5,261C 813.777,262.228 800.11,263.895 786.5,266C 770.474,266.176 754.474,266.843 738.5,268C 730.369,271.266 722.035,273.933 713.5,276C 706.702,276.952 699.868,277.452 693,277.5C 677.194,275.987 661.361,275.487 645.5,276C 638.203,279.994 630.869,283.994 623.5,288C 609.392,294.513 595.725,293.846 582.5,286C 577.229,284.557 573.062,286.057 570,290.5C 569.333,294.833 569.333,299.167 570,303.5C 574.746,312.661 579.746,321.661 585,330.5C 585.667,335.5 585.667,340.5 585,345.5C 584.097,346.701 582.931,347.535 581.5,348C 577.389,348.941 573.222,349.441 569,349.5C 559.975,349.103 551.475,346.77 543.5,342.5C 534.295,345.013 526.462,349.68 520,356.5C 518.776,361.386 518.109,366.386 518,371.5C 513.713,376.575 509.547,381.742 505.5,387C 493.809,391.006 484.142,388.339 476.5,379C 472.469,378.519 468.469,377.853 464.5,377C 448.561,377.579 432.895,375.912 417.5,372C 408.12,368.788 401.454,362.621 397.5,353.5C 395.228,352.515 392.895,351.681 390.5,351C 379.573,349.129 368.573,347.796 357.5,347C 353.196,345.894 348.863,344.894 344.5,344C 334.869,336.03 327.035,326.53 321,315.5C 318.357,305.873 318.024,296.206 320,286.5C 324,279.167 329.667,273.5 337,269.5C 337.455,262.761 339.955,256.928 344.5,252C 350.655,247.089 356.989,242.423 363.5,238C 367.25,237.74 370.916,237.073 374.5,236C 376.13,231.448 377.964,226.948 380,222.5C 384.425,219.245 389.258,216.745 394.5,215C 410.26,214.114 425.593,211.114 440.5,206C 449.371,198.812 459.037,192.812 469.5,188C 478.104,186.458 486.77,186.124 495.5,187C 504.866,187.916 508.033,192.749 505,201.5C 498.886,208.741 496.552,217.074 498,226.5C 498.295,228.931 499.462,230.764 501.5,232C 504.57,231.985 507.57,231.318 510.5,230C 516.21,226.145 522.21,222.812 528.5,220C 535.981,218.08 542.314,219.913 547.5,225.5C 550.799,231.96 554.299,238.294 558,244.5C 565.19,250.124 573.357,253.624 582.5,255C 596.162,256.134 609.829,256.801 623.5,257C 633.375,251.378 644.042,248.378 655.5,248C 668.73,238.02 683.397,230.686 699.5,226C 713.761,224.618 727.761,225.951 741.5,230C 759.64,238.848 778.64,240.848 798.5,236C 804.506,233.321 810.506,230.655 816.5,228C 829.013,227.707 841.347,229.207 853.5,232.5C 861.742,229.867 869.742,226.867 877.5,223.5C 888.928,225.553 900.428,226.887 912,227.5C 919.309,227.755 926.476,226.922 933.5,225C 938.5,224.333 943.5,224.333 948.5,225C 952.448,225.041 954.948,226.874 956,230.5C 956.635,228.365 956.301,226.365 955,224.5C 941.934,214.121 927.434,206.288 911.5,201C 907.51,199.01 905.01,195.843 904,191.5C 903.667,185.167 903.333,178.833 903,172.5C 901.878,170.593 901.045,168.593 900.5,166.5 Z"/></g>
<g><path style="opacity:1" fill="#f7c733" d="M 493.5,281.5 C 495.604,281.201 497.604,281.534 499.5,282.5C 505.071,289.408 512.071,291.241 520.5,288C 524.496,286.337 528.163,284.171 531.5,281.5C 533.141,284.558 533.974,287.892 534,291.5C 537.774,293.634 538.274,296.301 535.5,299.5C 531.933,300.907 528.766,302.907 526,305.5C 526.384,316.436 521.384,323.436 511,326.5C 508.837,326.505 507.337,325.505 506.5,323.5C 509.647,320.695 511.98,317.361 513.5,313.5C 513.182,312.353 512.516,311.519 511.5,311C 508.306,310.408 505.139,310.574 502,311.5C 499.117,313.525 495.951,314.858 492.5,315.5C 494.117,322.887 491.451,325.22 484.5,322.5C 483.104,318.513 481.604,314.513 480,310.5C 477.602,309.144 475.102,307.977 472.5,307C 471.146,303.791 471.313,300.624 473,297.5C 477.167,293.333 481.333,289.167 485.5,285C 488.309,283.907 490.976,282.74 493.5,281.5 Z"/></g>
<g><path style="opacity:1" fill="#000000" d="M 284.5,307.5 C 292.52,307.392 294.854,310.892 291.5,318C 285.945,320.867 282.279,319.367 280.5,313.5C 280.866,310.744 282.2,308.744 284.5,307.5 Z"/></g>
<g><path style="opacity:1" fill="#f7c733" d="M 462.5,325.5 C 466.555,325.176 470.555,325.509 474.5,326.5C 473.227,331.095 470.56,334.429 466.5,336.5C 461.69,334.135 460.357,330.468 462.5,325.5 Z"/></g>
</svg>
