<?xml version="1.0" encoding="UTF-8"?>
<!DOCTYPE svg PUBLIC "-//W3C//DTD SVG 1.1//EN" "http://www.w3.org/Graphics/SVG/1.1/DTD/svg11.dtd">
<svg xmlns="http://www.w3.org/2000/svg" version="1.1" width="968px" height="631px" style="shape-rendering:geometricPrecision; text-rendering:geometricPrecision; image-rendering:optimizeQuality; fill-rule:evenodd; clip-rule:evenodd" xmlns:xlink="http://www.w3.org/1999/xlink">
<g><path style="opacity:1" fill="#b7b6b8" d="M 733.5,135.5 C 747.224,134.423 758.057,139.423 766,150.5C 769.631,159.417 773.631,168.083 778,176.5C 782.636,180.708 788.136,182.874 794.5,183C 799.558,183.661 804.558,183.328 809.5,182C 819.19,176.488 829.19,171.488 839.5,167C 849.849,163.994 860.182,160.994 870.5,158C 909.215,152.254 935.882,167.421 950.5,203.5C 951.323,210.496 951.99,217.496 952.5,224.5C 954.103,224.312 955.437,224.812 956.5,226C 949.664,232.836 942.664,239.836 935.5,247C 928.174,250.155 923.174,255.322 920.5,262.5C 920.542,265.259 921.042,267.925 922,270.5C 926.833,280.667 934.333,288.167 944.5,293C 947.372,295.537 949.872,298.37 952,301.5C 952.837,305.295 952.504,308.961 951,312.5C 942.309,322.647 931.476,325.481 918.5,321C 907.911,317.039 897.911,312.039 888.5,306C 879.834,302.333 871.501,302.999 863.5,308C 859.21,314.08 855.043,320.247 851,326.5C 844.467,333.682 836.3,337.515 826.5,338C 799.868,337.561 773.868,333.228 748.5,325C 747.134,323.4 746.134,321.567 745.5,319.5C 728.798,310.994 711.131,307.16 692.5,308C 686.459,308.375 682.959,311.541 682,317.5C 679.443,329.176 681.943,339.509 689.5,348.5C 688.833,349.833 688.167,351.167 687.5,352.5C 684.128,354.43 680.461,355.596 676.5,356C 674.714,356.785 673.214,357.951 672,359.5C 664.415,371.668 657.082,384.001 650,396.5C 647.258,400.116 643.758,402.616 639.5,404C 629.5,404.333 619.5,404.667 609.5,405C 602.225,408.414 594.559,409.414 586.5,408C 574.51,406.837 563.176,403.503 552.5,398C 547.266,397.023 542.266,397.69 537.5,400C 533.964,404.237 530.798,408.737 528,413.5C 523.303,418.107 518.47,422.607 513.5,427C 511.466,428.006 509.3,428.506 507,428.5C 494.853,425.947 482.686,423.447 470.5,421C 462.049,417.608 453.716,413.941 445.5,410C 440.5,409.333 435.5,409.333 430.5,410C 418.065,411.752 405.732,413.918 393.5,416.5C 380.445,414.922 367.778,411.755 355.5,407C 345.5,400.362 339.667,391.196 338,379.5C 337.167,378.667 336.333,377.833 335.5,377C 328.66,375.01 321.66,374.01 314.5,374C 303.917,356.163 290.917,340.163 275.5,326C 272.971,323.971 270.304,322.138 267.5,320.5C 266.528,312.666 265.528,304.833 264.5,297C 265.32,290.208 267.153,283.708 270,277.5C 276.085,267.662 282.418,257.996 289,248.5C 298.177,238.654 307.011,228.488 315.5,218C 317.715,216.956 320.048,216.29 322.5,216C 332.266,215.949 341.933,215.282 351.5,214C 360.276,206.557 367.61,197.89 373.5,188C 380.72,181.892 389.053,178.225 398.5,177C 411.214,176.898 423.88,176.231 436.5,175C 445.515,169.493 454.182,163.493 462.5,157C 473.799,151.591 485.633,150.091 498,152.5C 512.371,149.617 526.871,147.45 541.5,146C 550.943,145.105 560.277,145.771 569.5,148C 586.758,156.426 604.425,164.093 622.5,171C 628.849,171.83 634.182,169.83 638.5,165C 649.926,159.752 660.092,161.585 669,170.5C 668.248,176.114 667.914,181.78 668,187.5C 672.574,192.15 678.074,193.65 684.5,192C 685.701,191.097 686.535,189.931 687,188.5C 689.883,169.227 699.05,153.727 714.5,142C 720.789,139.354 727.122,137.188 733.5,135.5 Z"/></g>
<g><path style="opacity:1" fill="#fca670" d="M 403.5,209.5 C 407.007,208.994 410.174,209.66 413,211.5C 414.461,216.718 415.461,222.052 416,227.5C 421.569,239.038 429.736,241.372 440.5,234.5C 442.374,234.39 443.874,235.056 445,236.5C 446.899,239.374 447.733,242.541 447.5,246C 446.574,251.328 445.24,256.494 443.5,261.5C 444.151,267.99 447.818,271.823 454.5,273C 466.213,273.812 477.88,273.645 489.5,272.5C 495.849,274.682 498.849,279.182 498.5,286C 498.3,289.233 497.133,292.067 495,294.5C 494.333,296.5 494.333,298.5 495,300.5C 499.667,306.5 504.333,312.5 509,318.5C 511.471,325.957 512.138,333.624 511,341.5C 508.31,351.592 505.31,361.592 502,371.5C 500.595,375.848 497.762,378.681 493.5,380C 486.5,380.333 479.5,380.667 472.5,381C 467.167,385 461.833,389 456.5,393C 453.068,395.072 449.402,395.738 445.5,395C 435.536,391.342 426.87,385.675 419.5,378C 405.98,372.907 393.313,366.24 381.5,358C 371.392,358.574 361.726,356.907 352.5,353C 345.967,348.121 341.801,341.621 340,333.5C 339.167,332.667 338.333,331.833 337.5,331C 330.373,328.069 323.04,325.736 315.5,324C 310.306,322.153 305.472,319.653 301,316.5C 296.878,304.638 296.212,292.638 299,280.5C 302.447,273.386 307.614,267.886 314.5,264C 324.391,260.622 334.391,257.622 344.5,255C 351.216,248.95 356.383,241.784 360,233.5C 363.043,228.123 367.543,224.623 373.5,223C 379.803,221.814 386.136,220.814 392.5,220C 396.668,216.998 400.335,213.498 403.5,209.5 Z"/></g>
<g><path style="opacity:1" fill="#000000" d="M 208.5,317.5 C 216.986,317.151 220.82,321.151 220,329.5C 217.647,334.426 213.814,336.26 208.5,335C 200.555,329.17 200.555,323.336 208.5,317.5 Z"/></g>
</svg>
