<?xml version="1.0" encoding="UTF-8"?>
<!DOCTYPE svg PUBLIC "-//W3C//DTD SVG 1.1//EN" "http://www.w3.org/Graphics/SVG/1.1/DTD/svg11.dtd">
<svg xmlns="http://www.w3.org/2000/svg" version="1.1" width="968px" height="631px" style="shape-rendering:geometricPrecision; text-rendering:geometricPrecision; image-rendering:optimizeQuality; fill-rule:evenodd; clip-rule:evenodd" xmlns:xlink="http://www.w3.org/1999/xlink">
<g><path style="opacity:1" fill="#b7b6b8" d="M 874.5,115.5 C 888.68,114.949 901.18,119.282 912,128.5C 917.77,136.387 923.77,144.054 930,151.5C 928.358,165.123 929.691,178.457 934,191.5C 938.591,198.095 943.924,204.095 950,209.5C 952.27,214.098 954.937,218.431 958,222.5C 958.667,224.833 958.667,227.167 958,229.5C 954.667,234.167 950.667,238.167 946,241.5C 941.928,246.132 940.595,251.465 942,257.5C 944.26,262.356 947.26,266.689 951,270.5C 955.733,280.622 957.399,291.289 956,302.5C 950.36,317.399 939.86,322.232 924.5,317C 913.839,311.889 902.839,307.556 891.5,304C 878.671,301.659 868.171,305.492 860,315.5C 858.667,317.5 857.333,319.5 856,321.5C 850.287,334.629 844.954,347.962 840,361.5C 831.993,371.044 821.826,374.21 809.5,371C 792.154,365.645 776.154,357.645 761.5,347C 753.448,339.61 745.448,332.277 737.5,325C 721.133,316.575 703.8,312.242 685.5,312C 670.819,314.004 658.819,320.67 649.5,332C 631.523,341.194 612.523,344.194 592.5,341C 590.312,338.805 588.479,336.305 587,333.5C 585.796,327.247 585.129,320.914 585,314.5C 581.212,305.757 576.045,297.924 569.5,291C 565.289,289.466 560.956,289.133 556.5,290C 549.198,293.651 541.864,297.318 534.5,301C 523.535,303.518 512.535,305.852 501.5,308C 496.116,309.384 492.783,312.717 491.5,318C 492.98,322.458 494.313,326.958 495.5,331.5C 495.064,334.179 494.564,336.845 494,339.5C 482.004,344.124 474.671,352.791 472,365.5C 472.553,376.549 469.053,386.049 461.5,394C 446.858,397.331 432.191,400.664 417.5,404C 412.334,406.748 407.334,409.748 402.5,413C 397.456,418.376 392.789,424.042 388.5,430C 385.453,430.58 385.119,430.247 387.5,429C 387,428.833 386.5,428.667 386,428.5C 371.595,434.591 357.762,433.425 344.5,425C 341.328,423.248 338.328,421.248 335.5,419C 332.479,415.254 329.479,411.588 326.5,408C 309.899,409.448 297.066,403.282 288,389.5C 284,382.833 280,376.167 276,369.5C 271.246,365.35 265.746,362.517 259.5,361C 248.267,356.767 240.767,348.934 237,337.5C 230.862,320.675 228.195,303.341 229,285.5C 228.932,269.733 233.599,255.733 243,243.5C 250.362,235.467 258.862,228.967 268.5,224C 282.097,220.852 295.764,217.852 309.5,215C 312.618,213.941 315.618,212.608 318.5,211C 324.187,206.311 329.521,201.311 334.5,196C 345.533,189.15 356.866,182.816 368.5,177C 373.266,175.963 378.099,175.463 383,175.5C 393.657,175.859 404.157,177.359 414.5,180C 420.833,180.667 427.167,180.667 433.5,180C 448.261,170.23 463.261,160.897 478.5,152C 487.401,148.382 496.401,145.049 505.5,142C 517.893,139.716 529.893,141.049 541.5,146C 551.006,151.587 560.673,156.92 570.5,162C 573.682,162.407 576.849,162.907 580,163.5C 585.978,161.128 592.144,160.295 598.5,161C 606.104,165.939 613.104,171.605 619.5,178C 628.583,183.367 638.25,185.034 648.5,183C 652.273,179.282 655.44,175.116 658,170.5C 661.845,165.997 666.678,164.497 672.5,166C 676.198,168.186 679.532,170.853 682.5,174C 684.65,175.59 686.983,176.257 689.5,176C 695.384,166.4 700.884,156.567 706,146.5C 714.164,135.17 724.997,131.336 738.5,135C 750.092,139.132 761.425,143.799 772.5,149C 776.347,150.616 780.347,151.616 784.5,152C 797.033,152.804 809.533,152.638 822,151.5C 831.318,154.403 839.818,152.737 847.5,146.5C 854.077,138.351 859.91,129.684 865,120.5C 867.995,118.347 871.162,116.681 874.5,115.5 Z"/></g>
<g><path style="opacity:1" fill="#fca670" d="M 950.5,224.5 C 953.168,224.834 955.168,226.167 956.5,228.5C 954.323,230.758 951.657,232.258 948.5,233C 924.388,238.159 900.055,241.825 875.5,244C 867.256,247.272 859.256,250.938 851.5,255C 843.833,255.667 836.167,255.667 828.5,255C 807.556,252.191 786.556,251.858 765.5,254C 758.105,256.132 750.772,258.465 743.5,261C 733.895,263.688 724.229,264.022 714.5,262C 712.939,261.059 711.605,259.892 710.5,258.5C 713.573,251.783 718.906,248.283 726.5,248C 735.479,247.06 744.479,246.393 753.5,246C 757.934,243.855 762.6,242.522 767.5,242C 775.899,241.454 784.232,241.954 792.5,243.5C 804.705,241.134 817.038,239.634 829.5,239C 838.052,233.927 847.219,230.427 857,228.5C 860.269,228.923 863.436,229.756 866.5,231C 894.82,231.25 922.82,229.084 950.5,224.5 Z"/></g>
<g><path style="opacity:1" fill="#fca670" d="M 636.5,254.5 C 640.769,254.734 644.769,255.901 648.5,258C 649.876,260.54 649.21,262.54 646.5,264C 637.867,265.837 629.2,265.837 620.5,264C 624.851,258.998 630.184,255.831 636.5,254.5 Z"/></g>
<g><path style="opacity:1" fill="#fca670" d="M 326.5,269.5 C 332.545,269.428 338.545,269.928 344.5,271C 349.965,273.232 354.965,276.232 359.5,280C 368.161,288.416 377.328,296.249 387,303.5C 388.562,305.957 389.562,308.624 390,311.5C 392.54,313.705 394.707,316.205 396.5,319C 402.092,323.38 407.592,327.88 413,332.5C 417.588,338.686 416.754,344.186 410.5,349C 405.953,350.545 401.287,350.879 396.5,350C 392.147,345.476 388.647,340.309 386,334.5C 373.291,328.059 360.125,326.893 346.5,331C 343.238,333.592 340.738,336.759 339,340.5C 337.927,346.449 337.26,352.449 337,358.5C 333.003,365.59 326.836,369.257 318.5,369.5C 312.001,368.66 308.167,364.993 307,358.5C 306.888,350.84 307.054,343.173 307.5,335.5C 295.64,334.812 290.64,328.646 292.5,317C 292.385,315.105 291.718,313.438 290.5,312C 283.573,308.434 276.24,306.101 268.5,305C 264.82,303.987 262.487,301.653 261.5,298C 264.868,292.1 268.368,286.267 272,280.5C 274.383,277.727 277.217,275.561 280.5,274C 291.476,274.878 302.476,275.544 313.5,276C 317.769,273.529 322.102,271.363 326.5,269.5 Z"/></g>
<g><path style="opacity:1" fill="#000000" d="M 121.5,327.5 C 131.286,329.089 132.953,333.589 126.5,341C 119.87,342.037 116.703,339.203 117,332.5C 118.025,330.313 119.525,328.646 121.5,327.5 Z"/></g>
</svg>
