<?xml version="1.0" encoding="UTF-8"?>
<!DOCTYPE svg PUBLIC "-//W3C//DTD SVG 1.1//EN" "http://www.w3.org/Graphics/SVG/1.1/DTD/svg11.dtd">
<svg xmlns="http://www.w3.org/2000/svg" version="1.1" width="800px" height="800px" style="shape-rendering:geometricPrecision; text-rendering:geometricPrecision; image-rendering:optimizeQuality; fill-rule:evenodd; clip-rule:evenodd" xmlns:xlink="http://www.w3.org/1999/xlink">
<g><path style="opacity:1" fill="#000000" d="M 482.5,30.5 C 502.359,26.0953 519.193,31.0953 533,45.5C 535,50.1667 537,54.8333 539,59.5C 539.469,70.8408 539.303,82.1741 538.5,93.5C 562.493,87.9729 579.993,95.9729 591,117.5C 595.537,126.649 597.37,136.316 596.5,146.5C 596.333,151.167 596.167,155.833 596,160.5C 589.855,177.647 589.188,194.981 594,212.5C 595.223,216.615 597.223,220.282 600,223.5C 600.92,226.101 601.587,228.768 602,231.5C 602.667,243.833 602.667,256.167 602,268.5C 600.833,269.667 599.667,270.833 598.5,272C 589.788,273.557 581.121,275.223 572.5,277C 561.113,277.599 549.78,277.599 538.5,277C 550.916,299.689 565.416,320.856 582,340.5C 606.044,376.13 630.211,411.297 654.5,446C 656.378,444.457 657.878,442.624 659,440.5C 661.306,432.638 662.972,424.638 664,416.5C 665.269,386.194 665.936,355.861 666,325.5C 673.991,318.053 683.491,313.886 694.5,313C 710.167,312.333 725.833,312.333 741.5,313C 753.112,313.865 763.279,318.032 772,325.5C 772.667,326.833 773.333,328.167 774,329.5C 774.667,338.5 774.667,347.5 774,356.5C 771.743,360.683 769.743,365.016 768,369.5C 766.343,378.803 763.676,387.803 760,396.5C 755.69,419.847 752.69,443.513 751,467.5C 740.04,525.741 716.373,578.075 680,624.5C 647.188,659.982 609.355,688.815 566.5,711C 542.822,719.337 519.156,727.67 495.5,736C 467.954,743.19 439.954,745.856 411.5,744C 371.348,743.217 332.015,737.217 293.5,726C 186.729,683.895 110.896,610.062 66,504.5C 64.5275,500.277 63.5275,495.943 63,491.5C 59.9807,488.797 57.9807,485.464 57,481.5C 53.7942,469.216 49.7942,457.216 45,445.5C 44.4265,441.152 43.7599,436.819 43,432.5C 40.2484,427.162 38.5817,421.495 38,415.5C 33.3908,405.282 29.0574,394.948 25,384.5C 16.4743,349.784 29.3076,328.284 63.5,320C 109.991,313.576 156.657,311.909 203.5,315C 222.343,314.345 238.509,320.512 252,333.5C 253.75,336.246 254.75,339.246 255,342.5C 255.667,352.5 255.667,362.5 255,372.5C 254.587,375.232 253.92,377.899 253,380.5C 250.304,383.895 247.971,387.562 246,391.5C 245.131,393.581 244.631,395.747 244.5,398C 245.278,408.835 246.111,419.668 247,430.5C 261.046,417.455 274.046,403.455 286,388.5C 298.667,371.167 311.333,353.833 324,336.5C 336.916,314.999 350.083,293.666 363.5,272.5C 350.627,272.94 337.627,272.44 324.5,271C 315.46,267.958 308.96,262.124 305,253.5C 299.638,235.619 299.138,217.619 303.5,199.5C 304.822,199.67 305.989,199.337 307,198.5C 308.434,192.863 310.268,187.363 312.5,182C 310.864,173.94 310.031,165.773 310,157.5C 306.08,153.66 303.747,148.994 303,143.5C 295.346,99.6545 313.512,80.9879 357.5,87.5C 357.101,77.1017 357.601,66.7683 359,56.5C 364.54,49.2927 371.04,43.126 378.5,38C 399.402,34.529 420.236,35.029 441,39.5C 455.326,38.2035 469.159,35.2035 482.5,30.5 Z M 438.5,102.5 C 441.5,102.5 444.5,102.5 447.5,102.5C 447.5,103.5 447.5,104.5 447.5,105.5C 455.223,105.8 462.89,105.467 470.5,104.5C 472.776,105.213 475.109,105.713 477.5,106C 476.167,107.333 474.833,108.667 473.5,110C 470.549,110.096 467.882,110.929 465.5,112.5C 459.092,119.567 453.092,126.901 447.5,134.5C 440.531,125.19 433.531,115.857 426.5,106.5C 429.447,105.679 432.447,105.179 435.5,105C 437.119,104.764 438.119,103.931 438.5,102.5 Z M 359.5,168.5 C 368.653,175.586 377.653,182.919 386.5,190.5C 378.072,196.133 369.239,201.133 360,205.5C 359.5,193.171 359.333,180.838 359.5,168.5 Z M 520.5,169.5 C 521.5,169.5 522.5,169.5 523.5,169.5C 526.321,180.566 527.487,191.9 527,203.5C 515.963,200.231 505.463,195.731 495.5,190C 500.905,183.924 506.905,178.591 513.5,174C 515.5,173.667 517.5,173.333 519.5,173C 520.337,171.989 520.67,170.822 520.5,169.5 Z M 439.5,327.5 C 440.497,327.47 441.164,327.97 441.5,329C 446.781,342.845 452.447,356.512 458.5,370C 455.332,374.504 452.832,379.337 451,384.5C 450.333,395.5 450.333,406.5 451,417.5C 452.067,422.368 453.734,427.034 456,431.5C 459.5,435.667 463,439.833 466.5,444C 464.106,452.742 461.94,461.576 460,470.5C 459.333,479.5 459.333,488.5 460,497.5C 463.401,508.562 470.901,513.728 482.5,513C 498.241,513.953 513.907,513.286 529.5,511C 538.137,508.848 546.47,505.848 554.5,502C 562.833,497 571.167,492 579.5,487C 581.36,483.64 584.027,481.14 587.5,479.5C 592.16,484.998 596.66,490.665 601,496.5C 604.338,503.851 606.671,511.518 608,519.5C 610.333,524.5 614,528.167 619,530.5C 619.667,531.5 619.667,532.5 619,533.5C 590.68,567.427 555.514,591.594 513.5,606C 451.322,626.816 391.655,621.149 334.5,589C 309.696,573.2 288.363,553.533 270.5,530C 272.319,527.511 274.152,525.011 276,522.5C 280.67,511.153 284.336,499.487 287,487.5C 302.734,498.357 319.901,506.023 338.5,510.5C 338.5,511.5 338.5,512.5 338.5,513.5C 343.433,516.115 348.767,517.949 354.5,519C 372.843,518.896 391.177,517.896 409.5,516C 415.772,513.738 420.939,509.905 425,504.5C 426.537,488.976 424.37,473.976 418.5,459.5C 431.15,449.237 436.817,435.903 435.5,419.5C 435.773,412.679 434.939,406.013 433,399.5C 430.069,394.733 426.569,390.399 422.5,386.5C 429.242,367.207 434.909,347.541 439.5,327.5 Z"/></g>
<g><path style="opacity:1" fill="#b7860a" d="M 492.5,40.5 C 511.868,41.699 524.201,51.699 529.5,70.5C 528.813,80.3907 527.813,90.2241 526.5,100C 528.228,107.407 526.061,113.573 520,118.5C 518.813,120.044 518.48,121.711 519,123.5C 524.134,117.365 529.634,111.531 535.5,106C 551.432,100.31 564.599,104.144 575,117.5C 581.042,126.257 584.875,135.923 586.5,146.5C 579.579,171.628 578.745,196.961 584,222.5C 585.929,227.412 588.262,232.078 591,236.5C 592.467,243.777 592.801,251.111 592,258.5C 588.086,262.53 583.253,264.53 577.5,264.5C 575.519,264.563 573.852,263.896 572.5,262.5C 566.183,266.995 559.183,268.495 551.5,267C 541.923,265.013 532.257,263.68 522.5,263C 518.833,262 515.167,261 511.5,260C 503.989,251.966 496.322,244.799 488.5,238.5C 493.558,244.636 499.058,250.303 505,255.5C 505.29,257.952 505.956,260.285 507,262.5C 512.762,268.259 517.762,274.592 522,281.5C 524.628,283.126 526.961,285.126 529,287.5C 541.427,310.454 555.76,331.454 572,350.5C 586.26,372.689 601.26,394.356 617,415.5C 625.75,428.664 634.25,441.997 642.5,455.5C 649.752,457.95 657.086,458.117 664.5,456C 667.467,453.9 669.3,451.066 670,447.5C 672.206,437.928 673.873,428.261 675,418.5C 675.333,390.833 675.667,363.167 676,335.5C 683.991,328.053 693.491,323.886 704.5,323C 722.204,320.613 739.204,322.947 755.5,330C 762.195,333.558 765.029,339.058 764,346.5C 759.316,354.544 756.316,363.211 755,372.5C 752.99,379.366 750.49,386.033 747.5,392.5C 747.939,394.104 748.606,395.604 749.5,397C 747.887,399.756 746.553,402.59 745.5,405.5C 745.315,456.57 733.481,504.903 710,550.5C 697.337,577.035 681.003,601.701 661,624.5C 636.438,648.679 609.605,669.846 580.5,688C 571.273,693.781 561.606,698.781 551.5,703C 529.414,710.473 507.414,718.14 485.5,726C 466.555,731.452 447.221,734.285 427.5,734.5C 389.655,733.603 352.322,728.769 315.5,720C 202.68,679.846 122.847,604.679 76,494.5C 74.6905,490.93 73.8572,487.263 73.5,483.5C 79.7933,482.889 79.4599,482.056 72.5,481C 70.9512,479.786 69.7845,478.286 69,476.5C 64.7921,462.664 60.1254,448.997 55,435.5C 54.4265,431.152 53.7599,426.819 53,422.5C 50.2484,417.162 48.5817,411.495 48,405.5C 43.3908,395.282 39.0574,384.948 35,374.5C 32.8038,363.629 35.4705,353.962 43,345.5C 55.7344,334.557 70.5678,328.724 87.5,328C 122.748,323.671 158.081,322.671 193.5,325C 212.343,324.345 228.509,330.512 242,343.5C 246.605,353.139 246.605,362.806 242,372.5C 236.323,378.937 233.156,386.937 232.5,396.5C 235.068,413.056 236.568,429.723 237,446.5C 238.46,449.986 240.96,451.819 244.5,452C 263.012,435.487 280.179,417.654 296,398.5C 328.317,355.887 357.65,311.22 384,264.5C 384.525,255.737 380.525,253.07 372,256.5C 371.167,256.167 370.333,255.833 369.5,255.5C 370.506,254.604 370.506,253.938 369.5,253.5C 354.988,264.461 339.988,265.294 324.5,256C 318.835,251.827 315.335,246.327 314,239.5C 313.34,234.2 312.174,229.033 310.5,224C 310.625,222.373 311.125,220.873 312,219.5C 312.914,220.654 313.747,220.487 314.5,219C 313.422,218.326 312.755,217.326 312.5,216C 313.077,213.863 313.41,211.696 313.5,209.5C 314.822,209.67 315.989,209.337 317,208.5C 318.553,201.836 320.887,195.503 324,189.5C 324.783,181.623 323.783,173.956 321,166.5C 320.281,161.799 320.447,157.133 321.5,152.5C 318.838,147.645 316.338,142.645 314,137.5C 309.836,119.662 316.003,106.829 332.5,99C 342.807,96.0616 352.474,97.395 361.5,103C 371.483,104.194 373.649,100.694 368,92.5C 367.124,83.7704 367.458,75.1037 369,66.5C 374.54,59.2927 381.04,53.126 388.5,48C 393.272,46.8765 398.105,46.0432 403,45.5C 433.44,52.0841 463.273,50.4174 492.5,40.5 Z M 438.5,102.5 C 438.119,103.931 437.119,104.764 435.5,105C 432.447,105.179 429.447,105.679 426.5,106.5C 433.531,115.857 440.531,125.19 447.5,134.5C 453.092,126.901 459.092,119.567 465.5,112.5C 467.882,110.929 470.549,110.096 473.5,110C 474.833,108.667 476.167,107.333 477.5,106C 475.109,105.713 472.776,105.213 470.5,104.5C 462.89,105.467 455.223,105.8 447.5,105.5C 447.5,104.5 447.5,103.5 447.5,102.5C 444.5,102.5 441.5,102.5 438.5,102.5 Z M 359.5,168.5 C 359.333,180.838 359.5,193.171 360,205.5C 369.239,201.133 378.072,196.133 386.5,190.5C 377.653,182.919 368.653,175.586 359.5,168.5 Z M 520.5,169.5 C 520.67,170.822 520.337,171.989 519.5,173C 517.5,173.333 515.5,173.667 513.5,174C 506.905,178.591 500.905,183.924 495.5,190C 505.463,195.731 515.963,200.231 527,203.5C 527.487,191.9 526.321,180.566 523.5,169.5C 522.5,169.5 521.5,169.5 520.5,169.5 Z M 439.5,327.5 C 434.909,347.541 429.242,367.207 422.5,386.5C 426.569,390.399 430.069,394.733 433,399.5C 434.939,406.013 435.773,412.679 435.5,419.5C 436.817,435.903 431.15,449.237 418.5,459.5C 424.37,473.976 426.537,488.976 425,504.5C 420.939,509.905 415.772,513.738 409.5,516C 391.177,517.896 372.843,518.896 354.5,519C 348.767,517.949 343.433,516.115 338.5,513.5C 338.5,512.5 338.5,511.5 338.5,510.5C 319.901,506.023 302.734,498.357 287,487.5C 284.336,499.487 280.67,511.153 276,522.5C 274.152,525.011 272.319,527.511 270.5,530C 288.363,553.533 309.696,573.2 334.5,589C 391.655,621.149 451.322,626.816 513.5,606C 555.514,591.594 590.68,567.427 619,533.5C 619.667,532.5 619.667,531.5 619,530.5C 614,528.167 610.333,524.5 608,519.5C 606.671,511.518 604.338,503.851 601,496.5C 596.66,490.665 592.16,484.998 587.5,479.5C 584.027,481.14 581.36,483.64 579.5,487C 571.167,492 562.833,497 554.5,502C 546.47,505.848 538.137,508.848 529.5,511C 513.907,513.286 498.241,513.953 482.5,513C 470.901,513.728 463.401,508.562 460,497.5C 459.333,488.5 459.333,479.5 460,470.5C 461.94,461.576 464.106,452.742 466.5,444C 463,439.833 459.5,435.667 456,431.5C 453.734,427.034 452.067,422.368 451,417.5C 450.333,406.5 450.333,395.5 451,384.5C 452.832,379.337 455.332,374.504 458.5,370C 452.447,356.512 446.781,342.845 441.5,329C 441.164,327.97 440.497,327.47 439.5,327.5 Z"/></g>
<g><path style="opacity:1" fill="#000000" d="M 428.5,91.5 C 440.451,92.8161 452.451,92.8161 464.5,91.5C 465.966,92.1355 467.3,92.9688 468.5,94C 474.874,94.3107 481.207,94.9774 487.5,96C 488.91,96.3678 489.91,97.2011 490.5,98.5C 487.578,102.721 486.911,107.221 488.5,112C 487.358,116.483 484.692,119.816 480.5,122C 479.256,122.456 478.423,121.956 478,120.5C 468.628,129.582 460.961,139.915 455,151.5C 452.667,153.167 450.333,154.833 448,156.5C 445,153.5 442,150.5 439,147.5C 428.278,133.11 417.944,118.444 408,103.5C 406.062,100.894 403.562,99.0608 400.5,98C 405.005,97.7375 409.339,96.7375 413.5,95C 418.658,94.7766 423.658,94.61 428.5,94.5C 428.5,93.5 428.5,92.5 428.5,91.5 Z M 438.5,102.5 C 438.119,103.931 437.119,104.764 435.5,105C 432.447,105.179 429.447,105.679 426.5,106.5C 433.531,115.857 440.531,125.19 447.5,134.5C 453.092,126.901 459.092,119.567 465.5,112.5C 467.882,110.929 470.549,110.096 473.5,110C 474.833,108.667 476.167,107.333 477.5,106C 475.109,105.713 472.776,105.213 470.5,104.5C 462.89,105.467 455.223,105.8 447.5,105.5C 447.5,104.5 447.5,103.5 447.5,102.5C 444.5,102.5 441.5,102.5 438.5,102.5 Z"/></g>
<g><path style="opacity:1" fill="#b7860a" d="M 457.5,93.5 C 459.337,93.6395 459.67,94.3061 458.5,95.5C 457.702,95.0431 457.369,94.3764 457.5,93.5 Z"/></g>
<g><path style="opacity:1" fill="#000000" d="M 347.5,145.5 C 349.746,150.464 353.746,152.631 359.5,152C 376.405,162.783 391.738,175.45 405.5,190C 401.846,196.321 396.846,201.321 390.5,205C 378.404,211.382 366.07,217.215 353.5,222.5C 352.558,222.392 351.725,222.059 351,221.5C 349.773,206.873 349.106,192.206 349,177.5C 348.445,172.175 347.278,167.008 345.5,162C 345.81,158.252 346.81,154.752 348.5,151.5C 347.844,149.547 347.511,147.547 347.5,145.5 Z M 359.5,168.5 C 359.333,180.838 359.5,193.171 360,205.5C 369.239,201.133 378.072,196.133 386.5,190.5C 377.653,182.919 368.653,175.586 359.5,168.5 Z"/></g>
<g><path style="opacity:1" fill="#000000" d="M 508.5,160.5 C 508.811,159.522 509.478,158.855 510.5,158.5C 513.496,159.833 515.163,158.833 515.5,155.5C 519.236,154.801 522.903,153.801 526.5,152.5C 529.651,152.811 531.818,154.477 533,157.5C 536.704,175.548 538.371,193.881 538,212.5C 537.117,215.102 535.617,217.269 533.5,219C 523.063,215.186 512.396,211.519 501.5,208C 494.801,205.234 488.301,202.067 482,198.5C 482.086,192.81 482.753,187.143 484,181.5C 491.176,173.144 499.342,166.144 508.5,160.5 Z M 520.5,169.5 C 520.67,170.822 520.337,171.989 519.5,173C 517.5,173.333 515.5,173.667 513.5,174C 506.905,178.591 500.905,183.924 495.5,190C 505.463,195.731 515.963,200.231 527,203.5C 527.487,191.9 526.321,180.566 523.5,169.5C 522.5,169.5 521.5,169.5 520.5,169.5 Z"/></g>
<g><path style="opacity:1" fill="#b7860a" d="M 508.5,160.5 C 511.012,161.216 511.012,162.216 508.5,163.5C 507.438,162.575 507.438,161.575 508.5,160.5 Z"/></g>
<g><path style="opacity:1" fill="#000000" d="M 433.5,290.5 C 438.668,291.527 438.835,293.193 434,295.5C 433.333,296.167 433.333,296.833 434,297.5C 437.089,298.051 439.922,299.217 442.5,301C 444.458,303.748 446.291,306.582 448,309.5C 456.028,330.389 464.195,351.223 472.5,372C 469.782,377.728 466.615,383.228 463,388.5C 459.547,398.285 459.88,407.952 464,417.5C 468.281,424.115 472.947,430.448 478,436.5C 478.875,437.873 479.375,439.373 479.5,441C 475.784,455.244 472.451,469.578 469.5,484C 472.604,499.076 481.937,505.576 497.5,503.5C 514.072,503.274 529.739,499.44 544.5,492C 551.833,487.667 559.167,483.333 566.5,479C 569.833,477 572.5,474.333 574.5,471C 580.729,468.636 586.229,465.136 591,460.5C 597.667,469.167 604.333,477.833 611,486.5C 614.251,495.425 617.251,504.425 620,513.5C 623.552,516.719 627.385,519.552 631.5,522C 633.684,524.016 635.684,526.183 637.5,528.5C 629.037,544.21 618.037,558.043 604.5,570C 580.226,589.898 553.226,605.231 523.5,616C 499.312,622.771 474.812,627.604 450,630.5C 449.517,631.448 449.351,632.448 449.5,633.5C 445.953,632.159 442.286,630.992 438.5,630C 360.579,628.298 299.412,595.798 255,532.5C 252.922,529.13 252.089,525.463 252.5,521.5C 258.668,521.156 263.168,518.156 266,512.5C 270.626,500.366 274.626,488.033 278,475.5C 278.903,474.299 280.069,473.465 281.5,473C 284.167,472.667 286.833,472.333 289.5,472C 290,471.5 290.5,471 291,470.5C 291.983,472.448 293.15,474.282 294.5,476C 310.89,487.695 328.89,495.862 348.5,500.5C 348.5,501.5 348.5,502.5 348.5,503.5C 349.822,503.67 350.989,503.337 352,502.5C 352.833,504.667 354.333,506.167 356.5,507C 359.936,508.087 363.436,508.921 367,509.5C 377.755,507.873 388.588,506.707 399.5,506C 405.942,503.568 411.276,499.568 415.5,494C 412.675,480.359 408.342,467.192 402.5,454.5C 408.453,450.382 413.62,445.382 418,439.5C 429.072,423.716 427.239,409.716 412.5,397.5C 410.296,388.939 410.629,380.439 413.5,372C 416.049,366.359 418.215,360.526 420,354.5C 423.955,338.178 428.455,322.012 433.5,306C 432.186,300.79 432.186,295.624 433.5,290.5 Z M 439.5,327.5 C 434.909,347.541 429.242,367.207 422.5,386.5C 426.569,390.399 430.069,394.733 433,399.5C 434.939,406.013 435.773,412.679 435.5,419.5C 436.817,435.903 431.15,449.237 418.5,459.5C 424.37,473.976 426.537,488.976 425,504.5C 420.939,509.905 415.772,513.738 409.5,516C 391.177,517.896 372.843,518.896 354.5,519C 348.767,517.949 343.433,516.115 338.5,513.5C 338.5,512.5 338.5,511.5 338.5,510.5C 319.901,506.023 302.734,498.357 287,487.5C 284.336,499.487 280.67,511.153 276,522.5C 274.152,525.011 272.319,527.511 270.5,530C 288.363,553.533 309.696,573.2 334.5,589C 391.655,621.149 451.322,626.816 513.5,606C 555.514,591.594 590.68,567.427 619,533.5C 619.667,532.5 619.667,531.5 619,530.5C 614,528.167 610.333,524.5 608,519.5C 606.671,511.518 604.338,503.851 601,496.5C 596.66,490.665 592.16,484.998 587.5,479.5C 584.027,481.14 581.36,483.64 579.5,487C 571.167,492 562.833,497 554.5,502C 546.47,505.848 538.137,508.848 529.5,511C 513.907,513.286 498.241,513.953 482.5,513C 470.901,513.728 463.401,508.562 460,497.5C 459.333,488.5 459.333,479.5 460,470.5C 461.94,461.576 464.106,452.742 466.5,444C 463,439.833 459.5,435.667 456,431.5C 453.734,427.034 452.067,422.368 451,417.5C 450.333,406.5 450.333,395.5 451,384.5C 452.832,379.337 455.332,374.504 458.5,370C 452.447,356.512 446.781,342.845 441.5,329C 441.164,327.97 440.497,327.47 439.5,327.5 Z"/></g>
</svg>
