<?xml version="1.0" encoding="UTF-8"?>
<!DOCTYPE svg PUBLIC "-//W3C//DTD SVG 1.1//EN" "http://www.w3.org/Graphics/SVG/1.1/DTD/svg11.dtd">
<svg xmlns="http://www.w3.org/2000/svg" version="1.1" width="1914px" height="835px" style="shape-rendering:geometricPrecision; text-rendering:geometricPrecision; image-rendering:optimizeQuality; fill-rule:evenodd; clip-rule:evenodd" xmlns:xlink="http://www.w3.org/1999/xlink">
<g><path style="opacity:1" fill="#fefffe" d="M 24.5,182.5 C 30.5092,182.334 36.5092,182.501 42.5,183C 66.3276,192.825 89.9943,202.825 113.5,213C 301.33,211.823 489.163,210.656 677,209.5C 717.5,209.667 758,209.833 798.5,210C 813.844,210.429 829.177,211.096 844.5,212C 954.75,229.486 1065.08,246.32 1175.5,262.5C 1175.5,261.5 1175.5,260.5 1175.5,259.5C 1191.66,260.629 1207.66,263.129 1223.5,267C 1224.89,268.171 1225.73,269.671 1226,271.5C 1225.92,281.056 1227.26,290.39 1230,299.5C 1234.9,302.04 1239.4,305.207 1243.5,309C 1245.7,310.373 1248.03,310.706 1250.5,310C 1255.55,304.736 1260.72,299.57 1266,294.5C 1268.32,289.064 1269.82,283.397 1270.5,277.5C 1276.8,276.513 1283.14,276.347 1289.5,277C 1311.69,282.288 1334.02,286.788 1356.5,290.5C 1356.67,295.844 1356.5,301.177 1356,306.5C 1347.51,344.112 1339.34,381.779 1331.5,419.5C 1268.16,416.722 1204.82,413.722 1141.5,410.5C 1137.83,430.499 1134.17,450.499 1130.5,470.5C 1125.16,470.666 1119.82,470.499 1114.5,470C 1095.16,466.1 1075.83,462.266 1056.5,458.5C 1057.5,437.81 1060.84,417.477 1066.5,397.5C 981.04,379.107 895.373,361.274 809.5,344C 664.183,338.978 518.85,333.978 373.5,329C 280.139,325.217 186.805,321.05 93.5,316.5C 78.0976,309.134 62.4309,302.3 46.5,296C 39.9408,291.562 33.6075,286.896 27.5,282C 26.1667,281.667 24.8333,281.333 23.5,281C 21.1904,276.867 18.5237,273.034 15.5,269.5C 14.3421,241.542 14.1754,213.542 15,185.5C 18.2445,184.428 21.4112,183.428 24.5,182.5 Z"/></g>
<g><path style="opacity:1" fill="#000000" d="M 28.5,186.5 C 31.8499,186.335 35.1832,186.502 38.5,187C 62.3276,196.825 85.9943,206.825 109.5,217C 298.664,215.885 487.831,214.718 677,213.5C 725.509,213.413 774.009,213.913 822.5,215C 828.5,215.333 834.5,215.667 840.5,216C 952.105,233.601 1063.77,250.768 1175.5,267.5C 1178.51,267.821 1179.85,266.488 1179.5,263.5C 1192.85,265.67 1206.19,268.17 1219.5,271C 1220.89,272.171 1221.73,273.671 1222,275.5C 1221.92,285.056 1223.26,294.39 1226,303.5C 1231.42,306.579 1236.59,310.079 1241.5,314C 1245.83,314.667 1250.17,314.667 1254.5,314C 1259.55,308.736 1264.72,303.57 1270,298.5C 1272.32,293.064 1273.82,287.397 1274.5,281.5C 1278.15,280.717 1281.81,280.55 1285.5,281C 1307.69,286.288 1330.02,290.788 1352.5,294.5C 1352.58,298.897 1352.08,303.23 1351,307.5C 1342.84,343.445 1335.01,379.445 1327.5,415.5C 1264.14,412.462 1200.81,409.128 1137.5,405.5C 1133.94,425.853 1130.27,446.186 1126.5,466.5C 1104.39,463.145 1082.39,459.145 1060.5,454.5C 1063.28,433.753 1067.28,413.253 1072.5,393C 986.167,375.333 899.833,357.667 813.5,340C 668.183,334.978 522.85,329.978 377.5,325C 284.139,321.217 190.805,317.05 97.5,312.5C 82.0976,305.134 66.4309,298.3 50.5,292C 43.9408,287.562 37.6075,282.896 31.5,278C 30.1667,277.667 28.8333,277.333 27.5,277C 25.1904,272.867 22.5237,269.034 19.5,265.5C 18.343,240.209 18.1764,214.876 19,189.5C 22.2445,188.428 25.4112,187.428 28.5,186.5 Z"/></g>
<g><path style="opacity:1" fill="#278b1c" d="M 32.5,190.5 C 57.4742,200.985 82.4742,211.485 107.5,222C 120.162,222.5 132.829,222.667 145.5,222.5C 145.5,251.833 145.5,281.167 145.5,310.5C 131.158,309.893 116.825,309.06 102.5,308C 85.5823,300.472 68.5823,293.139 51.5,286C 44.0252,280.692 36.6919,275.192 29.5,269.5C 27.6667,265.833 25.8333,262.167 24,258.5C 23.3333,236.833 23.3333,215.167 24,193.5C 26.8044,192.132 29.6377,191.132 32.5,190.5 Z"/></g>
<g><path style="opacity:1" fill="#278b1c" d="M 561.5,218.5 C 634.833,218.5 708.167,218.5 781.5,218.5C 781.5,256.833 781.5,295.167 781.5,333.5C 687.835,330.477 594.168,327.477 500.5,324.5C 501.549,320.169 499.882,318.003 495.5,318C 456.842,316.334 418.175,315.334 379.5,315C 378.62,316.356 378.286,317.856 378.5,319.5C 305.15,316.713 231.817,313.713 158.5,310.5C 158.5,281.167 158.5,251.833 158.5,222.5C 292.996,221.248 427.329,219.915 561.5,218.5 Z"/></g>
<g><path style="opacity:1" fill="#278a1c" d="M 789.5,218.5 C 805.812,219.357 822.145,220.19 838.5,221C 952.588,238.738 1066.59,256.571 1180.5,274.5C 1179.54,280.439 1179.21,286.439 1179.5,292.5C 1186.6,293.062 1193.6,294.229 1200.5,296C 1207.04,306.252 1213.71,316.419 1220.5,326.5C 1232.96,328.993 1245.46,331.327 1258,333.5C 1266.49,325.679 1274.99,317.846 1283.5,310C 1291.53,310.282 1299.53,311.115 1307.5,312.5C 1308.62,306.171 1310.29,300.004 1312.5,294C 1316.85,293.762 1321.18,294.095 1325.5,295C 1332.69,297.285 1340.02,298.952 1347.5,300C 1339.09,336.457 1330.76,372.957 1322.5,409.5C 1261.51,407.278 1200.51,404.278 1139.5,400.5C 1139.55,396.802 1139.89,393.135 1140.5,389.5C 1119.69,385.106 1098.86,380.772 1078,376.5C 1077.17,376.833 1076.33,377.167 1075.5,377.5C 1074.51,380.45 1073.68,383.45 1073,386.5C 985.545,369.771 898.045,352.271 810.5,334C 803.508,333.5 796.508,333.334 789.5,333.5C 789.5,295.167 789.5,256.833 789.5,218.5 Z"/></g>
<g><path style="opacity:1" fill="#000000" d="M 763.5,224.5 C 764.5,224.5 765.5,224.5 766.5,224.5C 766.642,231.64 770.309,234.973 777.5,234.5C 777.5,235.5 777.5,236.5 777.5,237.5C 770.473,237.284 766.806,240.617 766.5,247.5C 765.5,247.5 764.5,247.5 763.5,247.5C 763.244,245.063 762.577,242.729 761.5,240.5C 758.343,239.283 755.343,237.783 752.5,236C 755.436,234.351 758.436,232.851 761.5,231.5C 762.577,229.271 763.244,226.937 763.5,224.5 Z"/></g>
<g><path style="opacity:1" fill="#000000" d="M 43.5,228.5 C 44.5,228.5 45.5,228.5 46.5,228.5C 46.6421,235.64 50.3088,238.973 57.5,238.5C 57.5,239.5 57.5,240.5 57.5,241.5C 50.4727,241.284 46.806,244.617 46.5,251.5C 45.5,251.5 44.5,251.5 43.5,251.5C 43.2437,249.063 42.5771,246.729 41.5,244.5C 38.3435,243.283 35.3435,241.783 32.5,240C 35.4356,238.351 38.4356,236.851 41.5,235.5C 42.5771,233.271 43.2437,230.937 43.5,228.5 Z"/></g>
<g><path style="opacity:1" fill="#7e7f7e" d="M 764.5,230.5 C 765.321,233.484 767.321,235.317 770.5,236C 767.333,236.5 765.5,238.333 765,241.5C 764.5,238.333 762.667,236.5 759.5,236C 762.772,235.563 764.439,233.73 764.5,230.5 Z"/></g>
<g><path style="opacity:1" fill="#7e7f7e" d="M 44.5,234.5 C 45.3212,237.484 47.3212,239.317 50.5,240C 47.3333,240.5 45.5,242.333 45,245.5C 44.5,242.333 42.6667,240.5 39.5,240C 42.7723,239.563 44.439,237.73 44.5,234.5 Z"/></g>
<g><path style="opacity:1" fill="#000000" d="M 91.5,268.5 C 92.5,268.5 93.5,268.5 94.5,268.5C 94.2236,274.89 97.2236,277.89 103.5,277.5C 109.776,277.89 112.776,274.89 112.5,268.5C 113.5,268.5 114.5,268.5 115.5,268.5C 115.642,275.64 119.309,278.973 126.5,278.5C 126.5,279.5 126.5,280.5 126.5,281.5C 119.473,281.284 115.806,284.617 115.5,291.5C 114.5,291.5 113.5,291.5 112.5,291.5C 112.693,284.961 109.526,281.961 103,282.5C 97.0309,282.395 94.1976,285.395 94.5,291.5C 93.5,291.5 92.5,291.5 91.5,291.5C 91.2437,289.063 90.5771,286.729 89.5,284.5C 86.3435,283.283 83.3435,281.783 80.5,280C 83.4356,278.351 86.4356,276.851 89.5,275.5C 90.5771,273.271 91.2437,270.937 91.5,268.5 Z"/></g>
<g><path style="opacity:1" fill="#2f302f" d="M 1184.5,269.5 C 1195.14,271.627 1205.8,273.627 1216.5,275.5C 1215.33,286.81 1216.83,297.81 1221,308.5C 1226.42,311.579 1231.59,315.079 1236.5,319C 1244.17,319.667 1251.83,319.667 1259.5,319C 1265,312.505 1270.83,306.338 1277,300.5C 1279.13,295.749 1280.3,290.749 1280.5,285.5C 1289.83,287.266 1299.17,289.1 1308.5,291C 1308.26,296.826 1307.09,302.659 1305,308.5C 1304.59,308.957 1304.09,309.291 1303.5,309.5C 1297.29,308.226 1291.13,306.893 1285,305.5C 1283.93,306.191 1282.77,306.691 1281.5,307C 1273.03,314.469 1264.86,322.302 1257,330.5C 1245.15,328.33 1233.31,325.996 1221.5,323.5C 1214.87,313.704 1208.87,303.537 1203.5,293C 1196.8,291.939 1190.13,290.772 1183.5,289.5C 1183.17,288.833 1182.83,288.167 1182.5,287.5C 1183.28,281.508 1183.94,275.508 1184.5,269.5 Z"/></g>
<g><path style="opacity:1" fill="#7e7f7e" d="M 92.5,274.5 C 93.3212,277.484 95.3212,279.317 98.5,280C 95.3333,280.5 93.5,282.333 93,285.5C 92.5,282.333 90.6667,280.5 87.5,280C 90.7723,279.563 92.439,277.73 92.5,274.5 Z"/></g>
<g><path style="opacity:1" fill="#7e7f7e" d="M 113.5,274.5 C 114.321,277.484 116.321,279.317 119.5,280C 116.333,280.5 114.5,282.333 114,285.5C 113.5,282.333 111.667,280.5 108.5,280C 111.772,279.563 113.439,277.73 113.5,274.5 Z"/></g>
<g><path style="opacity:1" fill="#000000" d="M 813.5,298.5 C 814.5,298.5 815.5,298.5 816.5,298.5C 816.642,305.64 820.309,308.973 827.5,308.5C 827.5,309.5 827.5,310.5 827.5,311.5C 820.473,311.284 816.806,314.617 816.5,321.5C 815.5,321.5 814.5,321.5 813.5,321.5C 813.244,319.063 812.577,316.729 811.5,314.5C 808.343,313.283 805.343,311.783 802.5,310C 805.436,308.351 808.436,306.851 811.5,305.5C 812.577,303.271 813.244,300.937 813.5,298.5 Z"/></g>
<g><path style="opacity:1" fill="#7e7f7e" d="M 814.5,304.5 C 815.321,307.484 817.321,309.317 820.5,310C 817.333,310.5 815.5,312.333 815,315.5C 814.5,312.333 812.667,310.5 809.5,310C 812.772,309.563 814.439,307.73 814.5,304.5 Z"/></g>
<g><path style="opacity:1" fill="#000000" d="M 1279.5,371.5 C 1280.5,371.5 1281.5,371.5 1282.5,371.5C 1282.64,378.64 1286.31,381.973 1293.5,381.5C 1293.5,382.5 1293.5,383.5 1293.5,384.5C 1286.47,384.284 1282.81,387.617 1282.5,394.5C 1281.5,394.5 1280.5,394.5 1279.5,394.5C 1279.24,392.063 1278.58,389.729 1277.5,387.5C 1274.34,386.283 1271.34,384.783 1268.5,383C 1271.44,381.351 1274.44,379.851 1277.5,378.5C 1278.58,376.271 1279.24,373.937 1279.5,371.5 Z"/></g>
<g><path style="opacity:1" fill="#7e7f7e" d="M 1280.5,377.5 C 1281.32,380.484 1283.32,382.317 1286.5,383C 1283.33,383.5 1281.5,385.333 1281,388.5C 1280.5,385.333 1278.67,383.5 1275.5,383C 1278.77,382.563 1280.44,380.73 1280.5,377.5 Z"/></g>
<g><path style="opacity:1" fill="#278b1c" d="M 1079.5,384.5 C 1097.85,388.036 1116.18,391.703 1134.5,395.5C 1130.31,417.63 1125.81,439.63 1121,461.5C 1102.67,457.5 1084.33,453.5 1066,449.5C 1070.17,427.839 1074.67,406.172 1079.5,384.5 Z"/></g>
<g><path style="opacity:1" fill="#000000" d="M 1095.5,396.5 C 1106.16,395.992 1114.99,399.659 1122,407.5C 1128.61,421.924 1126.11,434.424 1114.5,445C 1099.52,452.891 1087.02,450.058 1077,436.5C 1069.47,416.597 1075.64,403.264 1095.5,396.5 Z"/></g>
<g><path style="opacity:1" fill="#2f302f" d="M 1095.5,401.5 C 1112.8,401.628 1120.96,410.294 1120,427.5C 1116.65,440.096 1108.48,445.596 1095.5,444C 1083.11,440.074 1077.61,431.574 1079,418.5C 1081.38,409.626 1086.88,403.959 1095.5,401.5 Z"/></g>
</svg>
