<?xml version="1.0" encoding="UTF-8"?>
<!DOCTYPE svg PUBLIC "-//W3C//DTD SVG 1.1//EN" "http://www.w3.org/Graphics/SVG/1.1/DTD/svg11.dtd">
<svg xmlns="http://www.w3.org/2000/svg" version="1.1" width="2000px" height="349px" style="shape-rendering:geometricPrecision; text-rendering:geometricPrecision; image-rendering:optimizeQuality; fill-rule:evenodd; clip-rule:evenodd" xmlns:xlink="http://www.w3.org/1999/xlink">
<g><path style="opacity:1" fill="#fefffe" d="M -0.5,-0.5 C 666.167,-0.5 1332.83,-0.5 1999.5,-0.5C 1999.5,115.833 1999.5,232.167 1999.5,348.5C 1332.83,348.5 666.167,348.5 -0.5,348.5C -0.5,232.167 -0.5,115.833 -0.5,-0.5 Z"/></g>
<g><path style="opacity:1" fill="#010000" d="M 453.5,88.5 C 457.463,88.0889 461.13,88.9222 464.5,91C 465.602,93.4009 465.769,95.9009 465,98.5C 458.195,107.939 451.029,117.105 443.5,126C 444.63,128.428 446.13,130.595 448,132.5C 448.497,135.146 448.664,137.813 448.5,140.5C 527.498,141.157 606.498,140.657 685.5,139C 693.679,136.763 701.679,137.096 709.5,140C 826.833,139.856 944.167,139.356 1061.5,138.5C 1061.5,137.167 1061.5,135.833 1061.5,134.5C 1067.87,134.781 1074.2,135.448 1080.5,136.5C 1184.83,137.5 1289.16,137.833 1393.5,137.5C 1393.5,135.5 1393.5,133.5 1393.5,131.5C 1398.51,131.334 1403.51,131.501 1408.5,132C 1410.5,133.333 1412.5,134.667 1414.5,136C 1427.5,136.5 1440.5,136.667 1453.5,136.5C 1453.24,133.266 1454.74,131.932 1458,132.5C 1465.48,133.178 1472.81,134.178 1480,135.5C 1487.83,134.979 1495.67,134.479 1503.5,134C 1506.84,128.159 1511.84,125.659 1518.5,126.5C 1518.5,128.833 1518.5,131.167 1518.5,133.5C 1524.18,133.666 1529.84,133.499 1535.5,133C 1542.2,124.394 1551.03,119.227 1562,117.5C 1563.61,115.79 1565.11,113.957 1566.5,112C 1695.17,112.479 1823.83,113.312 1952.5,114.5C 1952.71,116.92 1952.37,119.253 1951.5,121.5C 1944.34,127.548 1936.01,130.715 1926.5,131C 1807.84,133.973 1689.17,136.307 1570.5,138C 1566.22,134.049 1561.39,133.549 1556,136.5C 1557.37,143.026 1557.7,149.692 1557,156.5C 1555.46,158.378 1553.62,159.878 1551.5,161C 1556.15,161.499 1560.82,161.666 1565.5,161.5C 1566.03,165.351 1565.36,168.851 1563.5,172C 1528.16,172.033 1492.83,171.533 1457.5,170.5C 1452.83,170.833 1448.17,171.167 1443.5,171.5C 1443.17,172.167 1442.83,172.833 1442.5,173.5C 1421.89,175.564 1401.23,176.897 1380.5,177.5C 1380.5,176.5 1380.5,175.5 1380.5,174.5C 1280.83,174.333 1181.17,174.5 1081.5,175C 1079.38,176.194 1077.04,176.86 1074.5,177C 953.496,179.547 832.496,182.213 711.5,185C 710.833,185.667 710.167,186.333 709.5,187C 628.57,191.156 547.57,195.156 466.5,199C 444.135,200.313 421.802,201.98 399.5,204C 398.069,204.465 396.903,205.299 396,206.5C 394.175,212.137 392.508,217.804 391,223.5C 387.685,227.818 383.519,230.985 378.5,233C 368.862,234.314 359.196,234.648 349.5,234C 338.667,229.833 331.167,222.333 327,211.5C 325.745,209.406 323.912,208.406 321.5,208.5C 288.686,216.828 256.019,225.661 223.5,235C 167.06,247.401 110.56,259.568 54,271.5C 51.2298,271.243 48.7298,270.243 46.5,268.5C 44.4128,265.327 42.5795,261.994 41,258.5C 40.7935,245.468 41.4602,232.468 43,219.5C 47.6132,205.328 51.6132,190.995 55,176.5C 56.3019,172.726 58.4686,169.559 61.5,167C 123.512,167.926 185.512,169.593 247.5,172C 251.348,176.016 255.348,179.849 259.5,183.5C 264.975,181.305 270.642,179.805 276.5,179C 299.378,167.727 322.378,156.727 345.5,146C 356.779,143.728 368.113,141.895 379.5,140.5C 381.635,134.762 383.969,129.096 386.5,123.5C 390.862,119.919 392.695,115.253 392,109.5C 394.074,107.548 396.241,105.715 398.5,104C 402.361,105.286 405.361,104.286 407.5,101C 414.175,100.011 417.342,102.844 417,109.5C 415.5,111 414,112.5 412.5,114C 415.333,116.167 418.167,118.333 421,120.5C 421.073,127.575 424.407,132.575 431,135.5C 433.559,134.556 435.059,132.722 435.5,130C 432.206,124.617 430.873,118.784 431.5,112.5C 435.886,111.634 439.386,109.301 442,105.5C 445.564,99.6147 449.398,93.9481 453.5,88.5 Z"/></g>
<g><path style="opacity:1" fill="#7e7f7e" d="M 456.5,91.5 C 458.636,92.4026 460.636,93.5693 462.5,95C 457.878,101.078 453.378,107.245 449,113.5C 444.496,116.647 441.663,120.813 440.5,126C 440.788,129.743 442.288,132.91 445,135.5C 445.241,142.078 448.074,147.244 453.5,151C 451.503,153.492 450.503,156.325 450.5,159.5C 444.145,159.725 437.812,159.892 431.5,160C 430.773,158.601 430.273,157.101 430,155.5C 425.952,151.784 421.618,148.45 417,145.5C 416.362,144.391 415.862,143.225 415.5,142C 417.095,137.26 416.595,132.76 414,128.5C 409.685,125.558 405.185,122.891 400.5,120.5C 401.874,119.289 403.374,118.289 405,117.5C 407.822,119.653 410.656,121.819 413.5,124C 415.025,125.009 416.692,125.509 418.5,125.5C 418.338,127.527 418.505,129.527 419,131.5C 421.321,134.269 424.154,136.436 427.5,138C 434.281,139.547 437.948,136.88 438.5,130C 437.319,125.134 435.986,120.301 434.5,115.5C 438.886,114.634 442.386,112.301 445,108.5C 448.564,102.615 452.398,96.9481 456.5,91.5 Z"/></g>
<g><path style="opacity:1" fill="#7e7f7e" d="M 409.5,104.5 C 411.196,104.685 412.529,105.519 413.5,107C 410.196,109.273 408.696,112.439 409,116.5C 406.599,115.398 404.099,115.231 401.5,116C 399.359,117.308 397.359,118.808 395.5,120.5C 394.348,117.894 394.182,115.227 395,112.5C 396.667,110.833 398.333,109.167 400,107.5C 400.483,108.448 400.649,109.448 400.5,110.5C 402.199,110.66 403.866,110.494 405.5,110C 406.665,108.008 407.998,106.175 409.5,104.5 Z"/></g>
<g><path style="opacity:1" fill="#c2c3c2" d="M 1569.5,114.5 C 1695.84,115.162 1822.18,116.495 1948.5,118.5C 1943.17,123.497 1936.84,126.33 1929.5,127C 1917.87,128.194 1906.21,128.861 1894.5,129C 1787.5,131.307 1680.5,133.307 1573.5,135C 1569.52,131.661 1564.85,130.661 1559.5,132C 1550.71,132.487 1546.71,136.987 1547.5,145.5C 1550.13,137.734 1552.3,137.734 1554,145.5C 1555.44,150.212 1554.28,154.045 1550.5,157C 1548,158.08 1545.67,159.414 1543.5,161C 1532.17,161.5 1520.84,161.667 1509.5,161.5C 1509.39,152.769 1508.73,144.102 1507.5,135.5C 1509.5,132.513 1512.16,130.513 1515.5,129.5C 1515.5,131.833 1515.5,134.167 1515.5,136.5C 1521.83,136.5 1528.17,136.5 1534.5,136.5C 1534.68,138.591 1534.35,140.591 1533.5,142.5C 1534.32,143.386 1535.32,143.719 1536.5,143.5C 1538.27,133.876 1543.94,127.376 1553.5,124C 1557.18,122.331 1561.01,121.164 1565,120.5C 1566.74,118.68 1568.24,116.68 1569.5,114.5 Z"/></g>
<g><path style="opacity:1" fill="#7e7f7e" d="M 392.5,122.5 C 400.213,122.856 406.88,125.69 412.5,131C 407.253,131.572 403.753,134.405 402,139.5C 403.622,149.099 400.789,156.932 393.5,163C 387.941,166.631 381.941,168.631 375.5,169C 369.671,168.849 367.171,166.016 368,160.5C 369.278,156.835 370.444,153.168 371.5,149.5C 375.465,149.304 378.965,147.97 382,145.5C 384.036,141.029 385.703,136.362 387,131.5C 387.662,137.22 390.829,139.386 396.5,138C 400.82,136.695 402.153,134.029 400.5,130C 397.475,129.639 394.475,129.139 391.5,128.5C 390.558,128.608 389.725,128.941 389,129.5C 389.066,126.7 390.233,124.367 392.5,122.5 Z"/></g>
<g><path style="opacity:1" fill="#fefffe" d="M 408.5,134.5 C 410.467,134.261 412.301,134.594 414,135.5C 414.175,138.157 414.008,140.824 413.5,143.5C 410.102,143.82 406.768,143.487 403.5,142.5C 404.691,139.432 406.358,136.765 408.5,134.5 Z"/></g>
<g><path style="opacity:1" fill="#dfb504" d="M 1470.5,146.5 C 1459.52,148.192 1448.85,150.692 1438.5,154C 1427.15,154.832 1415.82,154.666 1404.5,153.5C 1403.68,151.889 1402.35,151.222 1400.5,151.5C 1401.45,145.343 1400.12,139.843 1396.5,135C 1402.3,133.527 1407.3,134.86 1411.5,139C 1426.5,139.5 1441.5,139.667 1456.5,139.5C 1456.24,138.022 1456.57,136.689 1457.5,135.5C 1461.11,136.262 1464.78,136.762 1468.5,137C 1470.34,139.826 1471.01,142.993 1470.5,146.5 Z"/></g>
<g><path style="opacity:1" fill="#dfb504" d="M 1064.5,137.5 C 1068.79,138.111 1073.12,138.778 1077.5,139.5C 1079.15,150.677 1079.48,161.844 1078.5,173C 1074.21,173.923 1069.88,174.423 1065.5,174.5C 1065.01,162.172 1064.67,149.839 1064.5,137.5 Z"/></g>
<g><path style="opacity:1" fill="#7e7f7e" d="M 1489.5,137.5 C 1495.17,137.5 1500.83,137.5 1506.5,137.5C 1506.73,145.505 1507.06,153.505 1507.5,161.5C 1501.52,160.835 1495.52,160.502 1489.5,160.5C 1489.5,152.833 1489.5,145.167 1489.5,137.5 Z"/></g>
<g><path style="opacity:1" fill="#7e7f7e" d="M 1473.5,138.5 C 1478.17,138.5 1482.83,138.5 1487.5,138.5C 1487.5,145.833 1487.5,153.167 1487.5,160.5C 1482.5,160.5 1477.5,160.5 1472.5,160.5C 1472.94,153.173 1473.28,145.84 1473.5,138.5 Z"/></g>
<g><path style="opacity:1" fill="#dfb504" d="M 691.5,140.5 C 695.375,140.085 699.042,140.585 702.5,142C 700.996,143.491 700.163,145.324 700,147.5C 699.256,154.503 698.922,161.503 699,168.5C 701.826,172.984 704.993,177.151 708.5,181C 708.415,182.107 708.081,183.107 707.5,184C 700.184,185.054 692.851,185.887 685.5,186.5C 682.679,177.787 681.846,168.787 683,159.5C 685.946,153.829 687.78,147.829 688.5,141.5C 689.791,141.737 690.791,141.404 691.5,140.5 Z"/></g>
<g><path style="opacity:1" fill="#9c6241" d="M 1317.5,157.5 C 1265.84,158.449 1214.18,158.782 1162.5,158.5C 1161.27,156.703 1160.6,154.703 1160.5,152.5C 1133.83,152.626 1107.16,152.292 1080.5,151.5C 1080.5,147.833 1080.5,144.167 1080.5,140.5C 1186.17,140.167 1291.84,140.5 1397.5,141.5C 1398.08,145.096 1398.08,148.763 1397.5,152.5C 1371.17,151.632 1344.83,151.132 1318.5,151C 1317.58,153.041 1317.24,155.208 1317.5,157.5 Z"/></g>
<g><path style="opacity:1" fill="#9c6241" d="M 1062.5,156.5 C 1018.02,157.409 973.52,158.742 929,160.5C 918.499,160.197 907.999,159.864 897.5,159.5C 859.103,160.591 820.77,161.258 782.5,161.5C 781.908,158.873 781.575,156.206 781.5,153.5C 766.492,153.954 751.492,154.62 736.5,155.5C 724.885,153.947 713.218,153.28 701.5,153.5C 701.466,149.284 702.799,145.617 705.5,142.5C 721.957,143.16 738.457,143.493 755,143.5C 857.499,142.693 959.999,142.027 1062.5,141.5C 1062.5,146.5 1062.5,151.5 1062.5,156.5 Z"/></g>
<g><path style="opacity:1" fill="#9c6141" d="M 680.5,163.5 C 651.843,164.246 623.177,164.746 594.5,165C 566.362,168.135 538.195,168.301 510,165.5C 504.511,166.066 499.011,166.399 493.5,166.5C 494.483,173.997 498.65,178.997 506,181.5C 516.147,180.262 526.314,180.262 536.5,181.5C 542.091,180.267 547.758,179.434 553.5,179C 572.5,178.667 591.5,178.333 610.5,178C 624.767,176.105 639.1,175.105 653.5,175C 660.888,174.087 668.222,172.92 675.5,171.5C 677.258,171.592 678.924,171.925 680.5,172.5C 680.379,176.825 681.046,180.991 682.5,185C 589.828,189.857 497.161,194.524 404.5,199C 416.319,196.708 428.319,195.042 440.5,194C 442.592,193.047 442.925,191.714 441.5,190C 425.663,185.913 409.663,184.913 393.5,187C 389.724,187.592 386.057,188.592 382.5,190C 355.954,191.602 329.62,194.768 303.5,199.5C 304.29,198.206 305.29,197.039 306.5,196C 310.887,196.348 314.553,195.014 317.5,192C 319.591,190.325 321.758,189.825 324,190.5C 330.443,187.696 336.61,184.529 342.5,181C 334.167,180.333 325.833,180.333 317.5,181C 307.221,183.973 297.555,188.306 288.5,194C 275.224,199.139 261.557,202.806 247.5,205C 239.919,208.124 232.586,211.791 225.5,216C 208.433,220.934 191.099,224.6 173.5,227C 135.194,229.451 96.8605,231.284 58.5,232.5C 54.8833,232.131 51.5499,231.131 48.5,229.5C 49.1667,225.5 49.8333,221.5 50.5,217.5C 53.2576,209.465 55.2576,201.132 56.5,192.5C 57.7682,190.095 58.4349,187.428 58.5,184.5C 60.8367,180.103 62.8367,175.436 64.5,170.5C 121.492,171 178.492,172.333 235.5,174.5C 238.5,174.833 241.5,175.167 244.5,175.5C 248.167,178.833 251.833,182.167 255.5,185.5C 258.106,186.652 260.773,186.818 263.5,186C 269.463,184.207 275.463,182.541 281.5,181C 302.864,170.651 324.198,160.317 345.5,150C 354.921,146.781 364.588,145.448 374.5,146C 364.814,148.84 355.148,151.84 345.5,155C 339.053,159.113 332.886,163.613 327,168.5C 326.333,169.833 326.333,171.167 327,172.5C 329.469,174.652 332.302,176.152 335.5,177C 343.167,177.667 350.833,177.667 358.5,177C 368.486,175.001 378.486,173.001 388.5,171C 407.886,170.381 427.22,169.047 446.5,167C 457.182,166.596 467.849,166.596 478.5,167C 486.55,163.081 487.55,157.748 481.5,151C 478.576,149.119 475.409,147.952 472,147.5C 466.187,148.499 460.354,148.665 454.5,148C 453.167,146.667 451.833,145.333 450.5,144C 464.644,144.101 478.81,144.267 493,144.5C 557.5,143.563 622,143.063 686.5,143C 685.068,147.961 683.234,152.795 681,157.5C 680.505,159.473 680.338,161.473 680.5,163.5 Z"/></g>
<g><path style="opacity:1" fill="#7e7f7e" d="M 403.5,145.5 C 412.754,145.705 420.587,149.372 427,156.5C 427.333,158.5 427.667,160.5 428,162.5C 428.75,163.126 429.584,163.626 430.5,164C 438.099,163.117 445.766,162.617 453.5,162.5C 454.284,158.277 455.617,154.277 457.5,150.5C 462.385,150.752 467.219,150.419 472,149.5C 477.505,150.666 481.338,153.833 483.5,159C 482.101,162.064 479.768,164.064 476.5,165C 470.53,164.963 464.53,164.796 458.5,164.5C 435.536,166.539 412.536,167.706 389.5,168C 395.592,165.54 400.092,161.373 403,155.5C 403.498,152.183 403.665,148.85 403.5,145.5 Z"/></g>
<g><path style="opacity:1" fill="#fad336" d="M 1470.5,146.5 C 1469.78,148.764 1469.45,151.097 1469.5,153.5C 1462.85,154.11 1456.18,154.61 1449.5,155C 1445.85,158.635 1442.51,162.468 1439.5,166.5C 1437.58,165.149 1435.41,164.482 1433,164.5C 1418.84,165.084 1405,165.084 1391.5,164.5C 1395.7,160.972 1398.7,156.639 1400.5,151.5C 1402.35,151.222 1403.68,151.889 1404.5,153.5C 1415.82,154.666 1427.15,154.832 1438.5,154C 1448.85,150.692 1459.52,148.192 1470.5,146.5 Z"/></g>
<g><path style="opacity:1" fill="#7e7f7e" d="M 367.5,150.5 C 368.043,150.56 368.376,150.893 368.5,151.5C 365.882,156.562 365.049,161.895 366,167.5C 368.042,169.604 370.542,170.771 373.5,171C 365.005,173.441 356.339,174.941 347.5,175.5C 341.151,176.231 335.318,174.898 330,171.5C 329.837,169.613 330.671,168.113 332.5,167C 336.833,164 341.167,161 345.5,158C 352.83,155.168 360.164,152.668 367.5,150.5 Z"/></g>
<g><path style="opacity:1" fill="#7e7f7e" d="M 1319.5,152.5 C 1420.78,155.16 1420.78,156.493 1319.5,156.5C 1319.5,155.167 1319.5,153.833 1319.5,152.5 Z"/></g>
<g><path style="opacity:1" fill="#7e7f7e" d="M 1080.5,153.5 C 1086.51,153.334 1092.51,153.501 1098.5,154C 1099.5,154.5 1100.5,155 1101.5,155.5C 1120.47,154.18 1139.47,154.18 1158.5,155.5C 1158.71,156.086 1159.04,156.586 1159.5,157C 1138.83,157.667 1118.17,157.667 1097.5,157C 1091.51,156.265 1085.84,155.099 1080.5,153.5 Z"/></g>
<g><path style="opacity:1" fill="#7e7f7e" d="M 1465.5,154.5 C 1466.82,154.33 1467.99,154.663 1469,155.5C 1469.43,158.192 1469.26,160.859 1468.5,163.5C 1499.83,164.172 1531.16,164.505 1562.5,164.5C 1562.5,166.167 1562.5,167.833 1562.5,169.5C 1522.16,168.967 1481.83,168.133 1441.5,167C 1443.92,163.296 1446.59,159.796 1449.5,156.5C 1454.96,155.876 1460.3,155.21 1465.5,154.5 Z"/></g>
<g><path style="opacity:1" fill="#7e7f7e" d="M 701.5,155.5 C 713.215,155.336 724.882,156.002 736.5,157.5C 750.831,156.727 765.165,156.06 779.5,155.5C 779.67,156.822 779.337,157.989 778.5,159C 752.828,159.599 727.161,159.433 701.5,158.5C 701.5,157.5 701.5,156.5 701.5,155.5 Z"/></g>
<g><path style="opacity:1" fill="#ba7e5d" d="M 1062.5,156.5 C 1062.5,157.5 1062.5,158.5 1062.5,159.5C 1049.53,160.699 1036.53,161.532 1023.5,162C 992.82,162.346 962.153,163.18 931.5,164.5C 911.505,163.556 891.505,163.389 871.5,164C 853.871,165.754 836.204,166.92 818.5,167.5C 782.808,166.021 747.141,166.521 711.5,169C 708.97,169.891 706.637,171.058 704.5,172.5C 701.402,169.331 700.402,165.664 701.5,161.5C 728.478,161.295 755.478,161.295 782.5,161.5C 820.77,161.258 859.103,160.591 897.5,159.5C 907.999,159.864 918.499,160.197 929,160.5C 973.52,158.742 1018.02,157.409 1062.5,156.5 Z"/></g>
<g><path style="opacity:1" fill="#ba7e5d" d="M 1162.5,158.5 C 1214.18,158.782 1265.84,158.449 1317.5,157.5C 1342.84,157.333 1368.17,157.5 1393.5,158C 1392.07,159.886 1390.4,161.553 1388.5,163C 1378.51,163.5 1368.51,163.666 1358.5,163.5C 1358.64,161.876 1357.97,160.71 1356.5,160C 1335.25,159.045 1314.08,159.878 1293,162.5C 1274.88,161.015 1256.71,160.015 1238.5,159.5C 1224.5,160.765 1210.5,160.765 1196.5,159.5C 1183.32,160.06 1170.16,160.726 1157,161.5C 1131.72,161.147 1106.56,160.48 1081.5,159.5C 1086.15,157.106 1091.15,156.94 1096.5,159C 1118.67,159.83 1140.67,159.663 1162.5,158.5 Z"/></g>
<g><path style="opacity:1" fill="#9a6041" d="M 1062.5,159.5 C 1063.48,162.625 1063.81,165.958 1063.5,169.5C 1054.65,169.174 1045.98,169.507 1037.5,170.5C 936.325,171.85 835.325,173.85 734.5,176.5C 725.827,176.666 717.16,176.5 708.5,176C 706.907,175.051 705.574,173.885 704.5,172.5C 706.637,171.058 708.97,169.891 711.5,169C 747.141,166.521 782.808,166.021 818.5,167.5C 836.204,166.92 853.871,165.754 871.5,164C 891.505,163.389 911.505,163.556 931.5,164.5C 962.153,163.18 992.82,162.346 1023.5,162C 1036.53,161.532 1049.53,160.699 1062.5,159.5 Z"/></g>
<g><path style="opacity:1" fill="#9c6241" d="M 1081.5,159.5 C 1106.56,160.48 1131.72,161.147 1157,161.5C 1170.16,160.726 1183.32,160.06 1196.5,159.5C 1210.5,160.765 1224.5,160.765 1238.5,159.5C 1256.71,160.015 1274.88,161.015 1293,162.5C 1314.08,159.878 1335.25,159.045 1356.5,160C 1357.97,160.71 1358.64,161.876 1358.5,163.5C 1317.02,164.686 1275.69,165.686 1234.5,166.5C 1193.66,166.503 1152.99,167.17 1112.5,168.5C 1102.17,168.5 1091.83,168.5 1081.5,168.5C 1081.5,165.5 1081.5,162.5 1081.5,159.5 Z"/></g>
<g><path style="opacity:1" fill="#ba7e5d" d="M 680.5,163.5 C 680.5,166.5 680.5,169.5 680.5,172.5C 678.924,171.925 677.258,171.592 675.5,171.5C 668.222,172.92 660.888,174.087 653.5,175C 639.1,175.105 624.767,176.105 610.5,178C 591.5,178.333 572.5,178.667 553.5,179C 547.758,179.434 542.091,180.267 536.5,181.5C 526.314,180.262 516.147,180.262 506,181.5C 498.65,178.997 494.483,173.997 493.5,166.5C 499.011,166.399 504.511,166.066 510,165.5C 538.195,168.301 566.362,168.135 594.5,165C 623.177,164.746 651.843,164.246 680.5,163.5 Z"/></g>
<g><path style="opacity:1" fill="#dfb504" d="M 1439.5,166.5 C 1440.41,168.086 1440.41,169.586 1439.5,171C 1420.85,172.433 1402.18,173.599 1383.5,174.5C 1383.34,172.801 1383.51,171.134 1384,169.5C 1386.4,167.585 1388.9,165.919 1391.5,164.5C 1405,165.084 1418.84,165.084 1433,164.5C 1435.41,164.482 1437.58,165.149 1439.5,166.5 Z"/></g>
<g><path style="opacity:1" fill="#717171" d="M 1112.5,168.5 C 1152.99,167.17 1193.66,166.503 1234.5,166.5C 1279.85,166.656 1325.18,165.989 1370.5,164.5C 1375.5,164.667 1380.5,164.833 1385.5,165C 1383.7,165.637 1382.36,166.803 1381.5,168.5C 1281.51,170.675 1181.51,171.342 1081.5,170.5C 1091.99,169.833 1102.33,169.167 1112.5,168.5 Z"/></g>
<g><path style="opacity:1" fill="#3e3e3e" d="M 1037.5,170.5 C 1046.19,170.169 1054.86,170.502 1063.5,171.5C 1053.67,172.167 1044.01,172.833 1034.5,173.5C 937.007,175.83 839.34,177.497 741.5,178.5C 731.161,178.666 720.828,178.5 710.5,178C 718.677,177.829 726.677,177.329 734.5,176.5C 835.325,173.85 936.325,171.85 1037.5,170.5 Z"/></g>
<g><path style="opacity:1" fill="#ba7e5d" d="M 456.5,171.5 C 464.84,171.334 473.173,171.5 481.5,172C 462.196,173.291 442.862,174.291 423.5,175C 416.534,175.084 409.701,175.918 403,177.5C 400.453,177.238 397.953,176.738 395.5,176C 415.962,174.165 436.295,172.665 456.5,171.5 Z"/></g>
<g><path style="opacity:1" fill="#9c6241" d="M 1034.5,173.5 C 1044.17,173.334 1053.84,173.5 1063.5,174C 945.832,177.153 828.165,179.32 710.5,180.5C 720.992,179.833 731.326,179.167 741.5,178.5C 839.34,177.497 937.007,175.83 1034.5,173.5 Z"/></g>
<g><path style="opacity:1" fill="#dfb504" d="M 58.5,184.5 C 57.4824,181.623 57.6491,178.623 59,175.5C 59.8928,174.289 60.7261,174.289 61.5,175.5C 59.7357,178.215 58.7357,181.215 58.5,184.5 Z"/></g>
<g><path style="opacity:1" fill="#ba7e5d" d="M 303.5,199.5 C 271.015,207.038 238.681,215.372 206.5,224.5C 206.44,223.957 206.107,223.624 205.5,223.5C 202.026,225.062 198.36,225.895 194.5,226C 193.167,226.667 192.167,227.667 191.5,229C 170.606,232.317 149.939,236.651 129.5,242C 102.265,245.428 75.2651,249.928 48.5,255.5C 47.2826,246.848 47.2826,238.182 48.5,229.5C 51.5499,231.131 54.8833,232.131 58.5,232.5C 96.8605,231.284 135.194,229.451 173.5,227C 191.099,224.6 208.433,220.934 225.5,216C 232.586,211.791 239.919,208.124 247.5,205C 261.557,202.806 275.224,199.139 288.5,194C 297.555,188.306 307.221,183.973 317.5,181C 325.833,180.333 334.167,180.333 342.5,181C 336.61,184.529 330.443,187.696 324,190.5C 321.758,189.825 319.591,190.325 317.5,192C 314.553,195.014 310.887,196.348 306.5,196C 305.29,197.039 304.29,198.206 303.5,199.5 Z"/></g>
<g><path style="opacity:1" fill="#000000" d="M 294.5,183.5 C 295.773,184.077 295.773,184.743 294.5,185.5C 292.76,187.211 290.76,188.044 288.5,188C 290.684,186.637 292.684,185.137 294.5,183.5 Z"/></g>
<g><path style="opacity:1" fill="#dfb504" d="M 216.5,225.5 C 218.09,223.766 220.09,222.6 222.5,222C 257.892,212.423 293.559,204.09 329.5,197C 347.815,195.146 366.148,193.479 384.5,192C 392.079,189.203 399.913,187.703 408,187.5C 418.257,188.417 428.423,189.917 438.5,192C 426.812,193.205 415.145,194.538 403.5,196C 401.167,197 399.5,198.667 398.5,201C 396.324,201.163 394.491,201.996 393,203.5C 391.039,208.677 389.706,214.01 389,219.5C 381.392,229.299 371.392,233.299 359,231.5C 354.923,231.727 351.09,230.893 347.5,229C 343.756,226.045 339.922,223.211 336,220.5C 334.329,214.992 331.495,210.158 327.5,206C 325.863,205.399 324.197,204.899 322.5,204.5C 290.24,212.94 258.073,221.606 226,230.5C 225.161,224.65 221.994,222.984 216.5,225.5 Z"/></g>
<g><path style="opacity:1" fill="#dfb504" d="M 56.5,192.5 C 53.7547,200.538 51.7547,208.871 50.5,217.5C 49.2237,219.562 48.3903,221.896 48,224.5C 46.2077,235.527 46.2077,246.527 48,257.5C 48.4983,259.544 49.665,260.878 51.5,261.5C 52.5794,263.543 54.246,264.876 56.5,265.5C 56.6107,266.117 56.944,266.617 57.5,267C 54.0451,268.644 51.0451,267.811 48.5,264.5C 45.8483,260.364 44.1816,255.864 43.5,251C 44.1883,241.154 45.0216,231.321 46,221.5C 49.1782,210.454 52.5116,199.454 56,188.5C 56.49,189.793 56.6567,191.127 56.5,192.5 Z"/></g>
<g><path style="opacity:1" fill="#000000" d="M 56.5,192.5 C 55.2576,201.132 53.2576,209.465 50.5,217.5C 51.7547,208.871 53.7547,200.538 56.5,192.5 Z"/></g>
<g><path style="opacity:1" fill="#000000" d="M 380.5,195.5 C 382.199,195.34 383.866,195.506 385.5,196C 387.109,203.98 385.109,210.98 379.5,217C 366.103,221.079 352.437,222.412 338.5,221C 338,220.5 337.5,220 337,219.5C 336.333,216.167 336.333,212.833 337,209.5C 337.5,209 338,208.5 338.5,208C 334.87,207.729 333.87,206.062 335.5,203C 350.661,200.623 365.661,198.123 380.5,195.5 Z"/></g>
<g><path style="opacity:1" fill="#fefffe" d="M 375.5,204.5 C 377.857,204.337 380.19,204.503 382.5,205C 380.36,212.647 375.36,216.147 367.5,215.5C 367.144,209.535 369.811,205.869 375.5,204.5 Z"/></g>
<g><path style="opacity:1" fill="#fefffe" d="M 346.5,208.5 C 350.182,208.335 353.848,208.501 357.5,209C 358.602,211.401 358.769,213.901 358,216.5C 357.25,217.126 356.416,217.626 355.5,218C 350.5,218.667 345.5,218.667 340.5,218C 339.424,216.274 339.257,214.441 340,212.5C 341.77,210.403 343.937,209.069 346.5,208.5 Z"/></g>
<g><path style="opacity:1" fill="#000000" d="M 50.5,217.5 C 49.8333,221.5 49.1667,225.5 48.5,229.5C 47.2826,238.182 47.2826,246.848 48.5,255.5C 49.5,257.5 50.5,259.5 51.5,261.5C 49.665,260.878 48.4983,259.544 48,257.5C 46.2077,246.527 46.2077,235.527 48,224.5C 48.3903,221.896 49.2237,219.562 50.5,217.5 Z"/></g>
<g><path style="opacity:1" fill="#9c6241" d="M 206.5,224.5 C 203.74,228.226 204.073,231.726 207.5,235C 158.269,245.712 109.102,256.545 60,267.5C 59.1841,266.177 58.0174,265.511 56.5,265.5C 55.4613,263.469 53.7946,262.136 51.5,261.5C 50.5,259.5 49.5,257.5 48.5,255.5C 75.2651,249.928 102.265,245.428 129.5,242C 149.939,236.651 170.606,232.317 191.5,229C 192.167,227.667 193.167,226.667 194.5,226C 198.36,225.895 202.026,225.062 205.5,223.5C 206.107,223.624 206.44,223.957 206.5,224.5 Z"/></g>
<g><path style="opacity:1" fill="#dfb504" d="M 216.5,225.5 C 215.232,227.67 215.232,229.837 216.5,232C 212.175,234.694 208.842,233.861 206.5,229.5C 209.222,226.811 212.555,225.478 216.5,225.5 Z"/></g>
<g><path style="opacity:1" fill="#fad336" d="M 220.5,225.5 C 222.384,225.712 223.717,226.712 224.5,228.5C 222.887,230.088 220.887,231.088 218.5,231.5C 217.28,231.113 216.613,230.28 216.5,229C 217.347,227.229 218.68,226.063 220.5,225.5 Z"/></g>
<g><path style="opacity:1" fill="#000000" d="M 51.5,261.5 C 53.7946,262.136 55.4613,263.469 56.5,265.5C 54.246,264.876 52.5794,263.543 51.5,261.5 Z"/></g>
</svg>
