<?xml version="1.0" encoding="UTF-8"?>
<!DOCTYPE svg PUBLIC "-//W3C//DTD SVG 1.1//EN" "http://www.w3.org/Graphics/SVG/1.1/DTD/svg11.dtd">
<svg xmlns="http://www.w3.org/2000/svg" version="1.1" width="600px" height="512px" style="shape-rendering:geometricPrecision; text-rendering:geometricPrecision; image-rendering:optimizeQuality; fill-rule:evenodd; clip-rule:evenodd" xmlns:xlink="http://www.w3.org/1999/xlink">
<g><path style="opacity:1" fill="#000000" d="M 549.5,-0.5 C 551.833,-0.5 554.167,-0.5 556.5,-0.5C 563.835,4.05942 564.168,9.22608 557.5,15C 443.686,111.979 330.02,209.146 216.5,306.5C 223.809,316.31 231.309,325.976 239,335.5C 239.667,337.5 239.667,339.5 239,341.5C 215.833,360 192.667,378.5 169.5,397C 166.612,400.222 164.112,403.722 162,407.5C 161,408.167 160,408.833 159,409.5C 147.907,426.254 137.24,443.254 127,460.5C 105.978,477.364 85.1445,494.364 64.5,511.5C 54.8333,511.5 45.1667,511.5 35.5,511.5C 23.8333,499.167 11.8333,487.167 -0.5,475.5C -0.5,466.167 -0.5,456.833 -0.5,447.5C 50.7022,408.14 101.202,367.807 151,326.5C 147.442,317.232 141.775,309.232 134,302.5C 132.418,300.376 132.251,298.21 133.5,296C 268.422,200.087 403.088,103.753 537.5,7C 542.424,5.89634 546.424,3.39634 549.5,-0.5 Z"/></g>
<g><path style="opacity:1" fill="#cad0d7" d="M 374.5,144.5 C 375.239,144.369 375.906,144.536 376.5,145C 320.793,192.376 264.793,239.376 208.5,286C 206.622,287.543 205.122,289.376 204,291.5C 199.645,286.646 195.478,281.646 191.5,276.5C 226.083,251.084 261.083,226.251 296.5,202C 322.401,182.584 348.401,163.417 374.5,144.5 Z"/></g>
<g><path style="opacity:1" fill="#cad0d7" d="M 173.5,288.5 C 174.496,288.414 175.329,288.748 176,289.5C 178.377,293.088 180.877,296.588 183.5,300C 178.667,304.167 173.833,308.333 169,312.5C 165.833,308.167 162.667,303.833 159.5,299.5C 164.236,295.814 168.903,292.147 173.5,288.5 Z"/></g>
<g><path style="opacity:1" fill="#cad0d7" d="M 195.5,321.5 C 199.97,326.813 204.303,332.313 208.5,338C 192.12,351.382 175.453,364.382 158.5,377C 157.365,377.749 156.365,377.583 155.5,376.5C 152.365,370.869 149.032,365.369 145.5,360C 162.352,347.303 179.019,334.47 195.5,321.5 Z"/></g>
<g><path style="opacity:1" fill="#955352" d="M 125.5,372.5 C 132.224,381.592 138.724,390.926 145,400.5C 145.667,401.5 145.667,402.5 145,403.5C 134.778,418.777 123.945,433.61 112.5,448C 94.2118,461.953 76.2118,476.286 58.5,491C 55.8008,493.51 52.8008,495.176 49.5,496C 38.3333,484.833 27.1667,473.667 16,462.5C 15.3333,461.833 15.3333,461.167 16,460.5C 52.6879,431.303 89.1879,401.969 125.5,372.5 Z"/></g>
</svg>
