<?xml version="1.0" encoding="UTF-8"?>
<!DOCTYPE svg PUBLIC "-//W3C//DTD SVG 1.1//EN" "http://www.w3.org/Graphics/SVG/1.1/DTD/svg11.dtd">
<svg xmlns="http://www.w3.org/2000/svg" version="1.1" width="640px" height="426px" style="shape-rendering:geometricPrecision; text-rendering:geometricPrecision; image-rendering:optimizeQuality; fill-rule:evenodd; clip-rule:evenodd" xmlns:xlink="http://www.w3.org/1999/xlink">
<g><path style="opacity:0" fill="#000000" d="M -0.5,-0.5 C 0.5,-0.5 1.5,-0.5 2.5,-0.5C 2.5,0.5 2.5,1.5 2.5,2.5C 1.5,2.5 0.5,2.5 -0.5,2.5C -0.5,1.5 -0.5,0.5 -0.5,-0.5 Z"/></g>
<g><path style="opacity:0" fill="#000000" d="M 636.5,-0.5 C 637.5,-0.5 638.5,-0.5 639.5,-0.5C 639.5,0.5 639.5,1.5 639.5,2.5C 638.5,2.5 637.5,2.5 636.5,2.5C 636.5,1.5 636.5,0.5 636.5,-0.5 Z"/></g>
<g><path style="opacity:1" fill="#7e7f7e" d="M 360.5,50.5 C 371.895,51.9143 375.229,57.9143 370.5,68.5C 372.976,69.8149 375.143,71.4815 377,73.5C 377.694,78.1194 377.194,82.6194 375.5,87C 375.954,88.6217 376.954,89.7884 378.5,90.5C 378.833,92 379.167,93.5 379.5,95C 376.169,106.998 371.669,118.498 366,129.5C 364.509,135.453 363.343,141.453 362.5,147.5C 360.409,147.682 358.409,147.348 356.5,146.5C 356.459,137.654 353.959,129.654 349,122.5C 348.369,118.143 348.535,113.809 349.5,109.5C 347.133,102.865 345.8,96.0321 345.5,89C 345.667,86.5 345.833,84 346,81.5C 348.37,79.1296 349.87,76.2962 350.5,73C 349.459,67.8493 348.959,62.6826 349,57.5C 352.225,53.9793 356.058,51.646 360.5,50.5 Z"/></g>
<g><path style="opacity:1" fill="#fef200" d="M 361.5,90.5 C 362.032,109.015 361.532,127.681 360,146.5C 359.597,127.783 360.097,109.117 361.5,90.5 Z"/></g>
<g><path style="opacity:1" fill="#ffec05" d="M 22.5,135.5 C 34.5569,141.365 46.2236,148.032 57.5,155.5C 57.8333,155.333 58.1667,155.167 58.5,155C 54.7593,150.262 51.4259,145.262 48.5,140C 48.8333,139.5 49.1667,139 49.5,138.5C 64.5,149.833 79.5,161.167 94.5,172.5C 95.4954,178.128 95.8288,183.794 95.5,189.5C 75.2059,193.592 55.0392,198.259 35,203.5C 33.1739,202.99 33.0072,202.156 34.5,201C 41.4891,198.67 48.4891,196.337 55.5,194C 41.4911,193.667 27.4911,193.667 13.5,194C 12.4477,192.284 13.1144,191.284 15.5,191C 28.9309,187.809 42.2642,184.309 55.5,180.5C 40.375,173.104 25.375,165.437 10.5,157.5C 11,157.167 11.5,156.833 12,156.5C 25.4707,160.772 38.9707,164.606 52.5,168C 42.2723,157.276 32.2723,146.443 22.5,135.5 Z"/></g>
<g><path style="opacity:1" fill="#fe7f26" d="M 36.5,145.5 C 34.5767,145.205 32.9101,144.372 31.5,143C 33.668,142.751 35.3347,143.584 36.5,145.5 Z"/></g>
<g><path style="opacity:1" fill="#fe7f26" d="M 36.5,145.5 C 39.7043,146.383 42.3709,148.05 44.5,150.5C 41.2957,149.617 38.6291,147.95 36.5,145.5 Z"/></g>
<g><path style="opacity:1" fill="#fe7f26" d="M 44.5,150.5 C 45.7562,150.461 46.7562,150.961 47.5,152C 46.0024,152.585 45.0024,152.085 44.5,150.5 Z"/></g>
<g><path style="opacity:1" fill="#fe7f26" d="M 52.5,155.5 C 51.2438,155.539 50.2438,155.039 49.5,154C 50.9976,153.415 51.9976,153.915 52.5,155.5 Z"/></g>
<g><path style="opacity:1" fill="#fe7f26" d="M 52.5,155.5 C 53.7562,155.461 54.7562,155.961 55.5,157C 54.0024,157.585 53.0024,157.085 52.5,155.5 Z"/></g>
<g><path style="opacity:1" fill="#fe7f26" d="M 68.5,165.5 C 67.2438,165.539 66.2438,165.039 65.5,164C 66.9976,163.415 67.9976,163.915 68.5,165.5 Z"/></g>
<g><path style="opacity:1" fill="#fe7f26" d="M 68.5,165.5 C 69.7562,165.461 70.7562,165.961 71.5,167C 70.0024,167.585 69.0024,167.085 68.5,165.5 Z"/></g>
<g><path style="opacity:1" fill="#fe7f26" d="M 76.5,170.5 C 75.2438,170.539 74.2438,170.039 73.5,169C 74.9976,168.415 75.9976,168.915 76.5,170.5 Z"/></g>
<g><path style="opacity:1" fill="#fe7f26" d="M 76.5,170.5 C 79.7043,171.383 82.3709,173.05 84.5,175.5C 81.2957,174.617 78.6291,172.95 76.5,170.5 Z"/></g>
<g><path style="opacity:1" fill="#fe7f26" d="M 84.5,175.5 C 86.4233,175.795 88.0899,176.628 89.5,178C 87.332,178.249 85.6653,177.416 84.5,175.5 Z"/></g>
<g><path style="opacity:1" fill="#fe7f26" d="M 78.5,181.5 C 82.9707,181.672 83.3041,182.506 79.5,184C 63.3186,186.78 47.1519,189.614 31,192.5C 29.5,192 28,191.5 26.5,191C 43.9856,187.921 61.319,184.755 78.5,181.5 Z"/></g>
<g><path style="opacity:0" fill="#000000" d="M -0.5,422.5 C 0.5,422.5 1.5,422.5 2.5,422.5C 2.5,423.5 2.5,424.5 2.5,425.5C 1.5,425.5 0.5,425.5 -0.5,425.5C -0.5,424.5 -0.5,423.5 -0.5,422.5 Z"/></g>
<g><path style="opacity:0" fill="#000000" d="M 639.5,422.5 C 639.5,423.5 639.5,424.5 639.5,425.5C 638.5,425.5 637.5,425.5 636.5,425.5C 636.5,424.5 636.5,423.5 636.5,422.5C 637.5,422.5 638.5,422.5 639.5,422.5 Z"/></g>
</svg>
