<?xml version="1.0" encoding="UTF-8"?>
<!DOCTYPE svg PUBLIC "-//W3C//DTD SVG 1.1//EN" "http://www.w3.org/Graphics/SVG/1.1/DTD/svg11.dtd">
<svg xmlns="http://www.w3.org/2000/svg" version="1.1" width="640px" height="426px" style="shape-rendering:geometricPrecision; text-rendering:geometricPrecision; image-rendering:optimizeQuality; fill-rule:evenodd; clip-rule:evenodd" xmlns:xlink="http://www.w3.org/1999/xlink">
<g><path style="opacity:0" fill="#000000" d="M -0.5,-0.5 C 0.5,-0.5 1.5,-0.5 2.5,-0.5C 2.5,0.5 2.5,1.5 2.5,2.5C 1.5,2.5 0.5,2.5 -0.5,2.5C -0.5,1.5 -0.5,0.5 -0.5,-0.5 Z"/></g>
<g><path style="opacity:0" fill="#000000" d="M 636.5,-0.5 C 637.5,-0.5 638.5,-0.5 639.5,-0.5C 639.5,0.5 639.5,1.5 639.5,2.5C 638.5,2.5 637.5,2.5 636.5,2.5C 636.5,1.5 636.5,0.5 636.5,-0.5 Z"/></g>
<g><path style="opacity:1" fill="#c2c3c2" d="M 364.5,21.5 C 373.229,21.5065 381.896,22.1732 390.5,23.5C 390.5,26.1667 390.5,28.8333 390.5,31.5C 398.481,32.157 406.481,32.657 414.5,33C 419.229,34.782 423.729,36.9486 428,39.5C 429.729,45.1312 429.895,50.7978 428.5,56.5C 433.081,57.9786 437.748,59.1453 442.5,60C 443.931,60.4652 445.097,61.2986 446,62.5C 446.87,68.9172 446.536,75.2506 445,81.5C 440.158,86.2989 434.325,87.7989 427.5,86C 419.381,84.0968 411.381,81.9301 403.5,79.5C 395.051,81.1564 386.551,82.4897 378,83.5C 375.833,83.1667 373.667,82.8333 371.5,82.5C 369.432,77.5991 365.766,74.7658 360.5,74C 355.143,73.3222 349.809,73.4889 344.5,74.5C 340.799,73.8248 337.132,72.9914 333.5,72C 326.501,67.9044 320.334,62.7378 315,56.5C 314.222,51.6693 314.722,47.0027 316.5,42.5C 319.455,41.8413 322.455,41.5079 325.5,41.5C 325.192,39.076 325.526,36.7427 326.5,34.5C 331.609,30.6123 337.275,27.7789 343.5,26C 350.621,24.4111 357.621,22.9111 364.5,21.5 Z"/></g>
<g><path style="opacity:1" fill="#c2c3c2" d="M 44.5,22.5 C 51.7223,21.5942 58.3889,23.0942 64.5,27C 69.5518,27.7437 74.5518,28.7437 79.5,30C 83.8047,32.3051 86.638,35.8051 88,40.5C 92.1684,52.8537 93.5018,65.5204 92,78.5C 90.6219,85.1015 89.7885,91.7682 89.5,98.5C 89.7062,104.179 90.7062,109.679 92.5,115C 92.359,118.552 91.859,122.052 91,125.5C 88.0496,130.118 84.7162,134.452 81,138.5C 78.7303,145.042 79.0637,151.375 82,157.5C 84.527,160.027 87.027,162.527 89.5,165C 92.7591,166.211 95.5925,168.044 98,170.5C 98.8917,177.627 98.3917,184.627 96.5,191.5C 92.9061,190.043 89.2394,188.543 85.5,187C 82.772,184.608 79.772,182.608 76.5,181C 67.9291,179.084 59.2625,177.751 50.5,177C 41.5631,173.531 32.8965,169.531 24.5,165C 11.8446,154.305 11.1779,142.805 22.5,130.5C 26.1514,127.349 29.6514,124.016 33,120.5C 36.3115,111.345 34.6449,103.345 28,96.5C 23.7102,85.9191 18.3768,75.9191 12,66.5C 9.34006,58.3612 10.1734,50.6945 14.5,43.5C 23.202,34.4961 33.202,27.4961 44.5,22.5 Z"/></g>
<g><path style="opacity:0" fill="#000000" d="M -0.5,422.5 C 0.5,422.5 1.5,422.5 2.5,422.5C 2.5,423.5 2.5,424.5 2.5,425.5C 1.5,425.5 0.5,425.5 -0.5,425.5C -0.5,424.5 -0.5,423.5 -0.5,422.5 Z"/></g>
<g><path style="opacity:0" fill="#000000" d="M 639.5,422.5 C 639.5,423.5 639.5,424.5 639.5,425.5C 638.5,425.5 637.5,425.5 636.5,425.5C 636.5,424.5 636.5,423.5 636.5,422.5C 637.5,422.5 638.5,422.5 639.5,422.5 Z"/></g>
</svg>
