<?xml version="1.0" encoding="UTF-8"?>
<!DOCTYPE svg PUBLIC "-//W3C//DTD SVG 1.1//EN" "http://www.w3.org/Graphics/SVG/1.1/DTD/svg11.dtd">
<svg xmlns="http://www.w3.org/2000/svg" version="1.1" width="1064px" height="585px" style="shape-rendering:geometricPrecision; text-rendering:geometricPrecision; image-rendering:optimizeQuality; fill-rule:evenodd; clip-rule:evenodd" xmlns:xlink="http://www.w3.org/1999/xlink">
<g><path style="opacity:1" fill="#000000" d="M 259.5,14.5 C 274.211,14.1063 288.878,14.6063 303.5,16C 314.896,20.5974 321.062,29.0974 322,41.5C 323.513,61.1423 323.847,80.809 323,100.5C 322.661,103.036 322.161,105.536 321.5,108C 323.346,120.916 327.846,132.749 335,143.5C 335.64,148.088 337.474,152.088 340.5,155.5C 343.079,155.915 344.913,157.248 346,159.5C 346.16,166.563 346.827,173.563 348,180.5C 349.971,182.808 351.971,185.142 354,187.5C 355.427,194.872 357.927,201.872 361.5,208.5C 363.193,209.228 364.693,210.228 366,211.5C 367.743,214.957 368.743,218.623 369,222.5C 370.574,223.984 371.907,225.651 373,227.5C 375.595,233.745 378.595,239.745 382,245.5C 399.371,177.803 439.871,129.636 503.5,101C 522.942,91.9637 543.275,85.9637 564.5,83C 589.809,81.4347 615.142,81.1014 640.5,82C 653.912,83.9019 667.245,86.2353 680.5,89C 693.061,93.3075 705.728,97.3075 718.5,101C 734.096,110.265 749.429,119.931 764.5,130C 773.31,137.405 781.81,145.238 790,153.5C 797.182,163.86 804.849,173.86 813,183.5C 814.851,187.004 816.184,190.67 817,194.5C 819.105,197.064 820.938,199.731 822.5,202.5C 823.566,209.804 826.566,216.137 831.5,221.5C 832.378,225.589 833.545,229.589 835,233.5C 837.654,237.873 839.987,242.54 842,247.5C 845.186,265.682 847.519,284.015 849,302.5C 850.815,300.595 852.815,298.928 855,297.5C 861.404,288.011 868.737,279.344 877,271.5C 882.043,263.432 888.043,256.098 895,249.5C 897.13,244.023 900.796,239.69 906,236.5C 912.631,223.187 919.298,209.853 926,196.5C 926.828,191.188 928.494,186.188 931,181.5C 932.642,173.134 932.642,164.8 931,156.5C 928.453,149.194 926.12,141.861 924,134.5C 923.333,125.5 923.333,116.5 924,107.5C 925.167,101 929,97.1667 935.5,96C 979.525,89.243 1017.86,100.576 1050.5,130C 1053.72,133.552 1056.55,137.385 1059,141.5C 1059.67,153.5 1059.67,165.5 1059,177.5C 1057.89,180.278 1056.05,182.445 1053.5,184C 1043.78,189.723 1035.28,196.889 1028,205.5C 1020.89,217.718 1014.89,230.384 1010,243.5C 998.103,265.629 985.436,287.296 972,308.5C 964.842,316.138 959.175,324.805 955,334.5C 949.978,338.859 945.645,343.859 942,349.5C 939.356,351.31 936.856,353.31 934.5,355.5C 923.348,373.155 909.848,388.821 894,402.5C 843.64,455.506 785.806,498.673 720.5,532C 690.638,548.094 659.638,561.761 627.5,573C 603.887,578.977 579.887,581.477 555.5,580.5C 544.792,580.589 534.126,580.089 523.5,579C 514.478,577.107 505.478,575.107 496.5,573C 482.953,567.378 469.62,561.378 456.5,555C 403.097,525.968 353.097,491.968 306.5,453C 298.023,444.286 289.023,436.286 279.5,429C 278.624,427.414 277.624,425.914 276.5,424.5C 270.84,421.528 264.84,419.361 258.5,418C 252.824,413.148 249.991,406.981 250,399.5C 241.349,391.186 232.349,383.186 223,375.5C 207.441,355.918 190.608,337.418 172.5,320C 170.579,319.64 168.912,318.806 167.5,317.5C 163.107,311.874 157.774,307.374 151.5,304C 148.683,301.362 146.35,298.362 144.5,295C 139.521,291.362 134.521,287.696 129.5,284C 120.618,279.814 111.618,275.814 102.5,272C 80.883,268.285 59.5497,263.285 38.5,257C 33.263,254.437 28.263,251.437 23.5,248C 18.5821,243.588 14.2488,238.755 10.5,233.5C 9.3339,219.512 9.16723,205.512 10,191.5C 14.8303,178.375 20.8303,165.709 28,153.5C 84.221,72.7858 161.388,26.4525 259.5,14.5 Z M 596.5,151.5 C 647.573,151.457 689.073,171.124 721,210.5C 738.82,232.898 749.32,258.398 752.5,287C 751.52,303.033 748.02,318.533 742,333.5C 737.953,341.926 733.619,350.26 729,358.5C 723.971,365.207 719.305,372.207 715,379.5C 709.198,384.3 703.698,389.467 698.5,395C 692.147,398.843 686.147,403.177 680.5,408C 664.734,415.55 648.734,422.55 632.5,429C 620.167,429.667 607.833,429.667 595.5,429C 594.672,428.085 593.672,427.419 592.5,427C 583.729,425.975 575.062,424.308 566.5,422C 565.833,421.333 565.167,420.667 564.5,420C 559.291,419.411 554.291,418.077 549.5,416C 543.706,412.527 537.706,409.527 531.5,407C 529.935,403.581 527.268,401.581 523.5,401C 516.405,394.116 508.072,389.283 498.5,386.5C 484.206,369.923 474.039,350.923 468,329.5C 462.444,313.951 460.111,297.951 461,281.5C 465.155,253.872 475.822,229.205 493,207.5C 521.111,177.015 555.611,158.348 596.5,151.5 Z"/></g>
<g><path style="opacity:1" fill="#b7860a" d="M 269.5,24.5 C 280.777,23.2111 291.443,25.0444 301.5,30C 307.531,35.8966 311.031,43.0633 312,51.5C 312.904,59.8084 313.404,68.1418 313.5,76.5C 311.915,90.7902 311.415,105.123 312,119.5C 313.604,131.944 317.937,143.278 325,153.5C 325.64,158.088 327.474,162.088 330.5,165.5C 333.079,165.915 334.913,167.248 336,169.5C 336.65,174.191 336.483,178.857 335.5,183.5C 336.67,186.505 337.836,189.505 339,192.5C 344.302,196.437 346.969,201.77 347,208.5C 348.597,211.791 350.097,215.125 351.5,218.5C 353.193,219.228 354.693,220.228 356,221.5C 357.743,224.957 358.743,228.623 359,232.5C 365.521,242.875 371.521,253.542 377,264.5C 380,266.5 383,268.5 386,270.5C 387.385,269.449 388.385,268.116 389,266.5C 396.243,234.695 408.91,205.362 427,178.5C 467.55,128.464 520.05,99.631 584.5,92C 599.833,91.3333 615.167,91.3333 630.5,92C 643.912,93.9019 657.245,96.2353 670.5,99C 683.061,103.307 695.728,107.307 708.5,111C 724.096,120.265 739.429,129.931 754.5,140C 763.31,147.405 771.81,155.238 780,163.5C 787.182,173.86 794.849,183.86 803,193.5C 804.851,197.004 806.184,200.67 807,204.5C 809.105,207.064 810.938,209.731 812.5,212.5C 813.566,219.804 816.566,226.137 821.5,231.5C 822.378,235.589 823.545,239.589 825,243.5C 827.654,247.873 829.987,252.54 832,257.5C 834.814,273.537 836.981,289.704 838.5,306C 837.443,310.979 838.11,315.812 840.5,320.5C 841.865,321.456 843.365,322.122 845,322.5C 851.828,317.749 858.495,312.749 865,307.5C 871.404,298.011 878.737,289.344 887,281.5C 892.043,273.432 898.043,266.098 905,259.5C 907.13,254.023 910.796,249.69 916,246.5C 922.631,233.187 929.298,219.853 936,206.5C 936.828,201.188 938.494,196.188 941,191.5C 945.8,170.473 943.8,150.14 935,130.5C 932.172,122.625 933.338,115.458 938.5,109C 964.428,103.096 989.095,106.763 1012.5,120C 1023.18,126.668 1033.35,134.168 1043,142.5C 1049.24,149.669 1051.24,158.003 1049,167.5C 1047.89,170.278 1046.05,172.445 1043.5,174C 1033.78,179.723 1025.28,186.889 1018,195.5C 1010.89,207.718 1004.89,220.384 1000,233.5C 988.103,255.629 975.436,277.296 962,298.5C 954.842,306.138 949.175,314.805 945,324.5C 939.978,328.859 935.645,333.859 932,339.5C 929.356,341.31 926.856,343.31 924.5,345.5C 913.348,363.155 899.848,378.821 884,392.5C 833.64,445.506 775.806,488.673 710.5,522C 680.638,538.094 649.638,551.761 617.5,563C 580.465,572.731 543.465,572.731 506.5,563C 492.953,557.378 479.62,551.378 466.5,545C 413.097,515.968 363.097,481.968 316.5,443C 308.023,434.286 299.023,426.286 289.5,419C 288.624,417.414 287.624,415.914 286.5,414.5C 280.84,411.528 274.84,409.361 268.5,408C 262.824,403.148 259.991,396.981 260,389.5C 251.349,381.186 242.349,373.186 233,365.5C 217.441,345.918 200.608,327.418 182.5,310C 180.579,309.64 178.912,308.806 177.5,307.5C 173.107,301.874 167.774,297.374 161.5,294C 158.683,291.362 156.35,288.362 154.5,285C 149.521,281.362 144.521,277.696 139.5,274C 130.618,269.814 121.618,265.814 112.5,262C 90.883,258.285 69.5497,253.285 48.5,247C 43.263,244.437 38.263,241.437 33.5,238C 19.8825,227.688 15.7158,214.188 21,197.5C 36.6044,161.161 59.4377,129.994 89.5,104C 129.997,68.0828 176.663,43.7495 229.5,31C 242.889,28.2678 256.223,26.1012 269.5,24.5 Z M 596.5,151.5 C 555.611,158.348 521.111,177.015 493,207.5C 475.822,229.205 465.155,253.872 461,281.5C 460.111,297.951 462.444,313.951 468,329.5C 474.039,350.923 484.206,369.923 498.5,386.5C 508.072,389.283 516.405,394.116 523.5,401C 527.268,401.581 529.935,403.581 531.5,407C 537.706,409.527 543.706,412.527 549.5,416C 554.291,418.077 559.291,419.411 564.5,420C 565.167,420.667 565.833,421.333 566.5,422C 575.062,424.308 583.729,425.975 592.5,427C 593.672,427.419 594.672,428.085 595.5,429C 607.833,429.667 620.167,429.667 632.5,429C 648.734,422.55 664.734,415.55 680.5,408C 686.147,403.177 692.147,398.843 698.5,395C 703.698,389.467 709.198,384.3 715,379.5C 719.305,372.207 723.971,365.207 729,358.5C 733.619,350.26 737.953,341.926 742,333.5C 748.02,318.533 751.52,303.033 752.5,287C 749.32,258.398 738.82,232.898 721,210.5C 689.073,171.124 647.573,151.457 596.5,151.5 Z"/></g>
<g><path style="opacity:1" fill="#000000" d="M 598.5,140.5 C 675.198,140.432 727.698,175.765 756,246.5C 766.328,282.878 763.662,318.211 748,352.5C 741.076,365.36 733.409,377.694 725,389.5C 719.198,394.3 713.698,399.467 708.5,405C 702.147,408.843 696.147,413.177 690.5,418C 673.735,426.05 656.735,433.55 639.5,440.5C 626.67,440.427 613.836,440.094 601,439.5C 597.756,439.849 594.59,440.515 591.5,441.5C 587.972,440.927 584.972,439.427 582.5,437C 579.901,436.231 577.401,436.398 575,437.5C 562.916,434.16 551.083,430.327 539.5,426C 533.706,422.527 527.706,419.527 521.5,417C 519.935,413.581 517.268,411.581 513.5,411C 506.405,404.116 498.072,399.283 488.5,396.5C 474.206,379.923 464.039,360.923 458,339.5C 442.805,291.474 449.138,246.474 477,204.5C 508.903,166.894 549.403,145.561 598.5,140.5 Z M 596.5,151.5 C 555.611,158.348 521.111,177.015 493,207.5C 475.822,229.205 465.155,253.872 461,281.5C 460.111,297.951 462.444,313.951 468,329.5C 474.039,350.923 484.206,369.923 498.5,386.5C 508.072,389.283 516.405,394.116 523.5,401C 527.268,401.581 529.935,403.581 531.5,407C 537.706,409.527 543.706,412.527 549.5,416C 554.291,418.077 559.291,419.411 564.5,420C 565.167,420.667 565.833,421.333 566.5,422C 575.062,424.308 583.729,425.975 592.5,427C 593.672,427.419 594.672,428.085 595.5,429C 607.833,429.667 620.167,429.667 632.5,429C 648.734,422.55 664.734,415.55 680.5,408C 686.147,403.177 692.147,398.843 698.5,395C 703.698,389.467 709.198,384.3 715,379.5C 719.305,372.207 723.971,365.207 729,358.5C 733.619,350.26 737.953,341.926 742,333.5C 748.02,318.533 751.52,303.033 752.5,287C 749.32,258.398 738.82,232.898 721,210.5C 689.073,171.124 647.573,151.457 596.5,151.5 Z"/></g>
</svg>
