<?xml version="1.0" encoding="UTF-8"?>
<!DOCTYPE svg PUBLIC "-//W3C//DTD SVG 1.1//EN" "http://www.w3.org/Graphics/SVG/1.1/DTD/svg11.dtd">
<svg xmlns="http://www.w3.org/2000/svg" version="1.1" width="640px" height="426px" style="shape-rendering:geometricPrecision; text-rendering:geometricPrecision; image-rendering:optimizeQuality; fill-rule:evenodd; clip-rule:evenodd" xmlns:xlink="http://www.w3.org/1999/xlink">
<g><path style="opacity:0" fill="#000000" d="M -0.5,-0.5 C 0.5,-0.5 1.5,-0.5 2.5,-0.5C 2.5,0.5 2.5,1.5 2.5,2.5C 1.5,2.5 0.5,2.5 -0.5,2.5C -0.5,1.5 -0.5,0.5 -0.5,-0.5 Z"/></g>
<g><path style="opacity:0" fill="#000000" d="M 636.5,-0.5 C 637.5,-0.5 638.5,-0.5 639.5,-0.5C 639.5,0.5 639.5,1.5 639.5,2.5C 638.5,2.5 637.5,2.5 636.5,2.5C 636.5,1.5 636.5,0.5 636.5,-0.5 Z"/></g>
<g><path style="opacity:1" fill="#7e7f7e" d="M 269.5,37.5 C 274.179,37.3342 278.845,37.5008 283.5,38C 285.317,39.7998 286.484,41.9664 287,44.5C 287.757,51.1977 287.591,57.8644 286.5,64.5C 288.984,68.7959 291.484,73.1292 294,77.5C 293.755,87.5505 293.088,97.5505 292,107.5C 294.667,110.167 297.333,112.833 300,115.5C 301.563,120.718 301.896,126.051 301,131.5C 297.142,137.237 293.309,142.904 289.5,148.5C 287.659,146.167 285.492,145.834 283,147.5C 276.728,142.901 270.728,137.901 265,132.5C 263.28,127.203 263.114,121.87 264.5,116.5C 259.512,111.679 254.679,106.679 250,101.5C 248.174,94.4466 249.841,88.4466 255,83.5C 255.667,81.8333 255.667,80.1667 255,78.5C 251.015,72.8521 246.682,67.5188 242,62.5C 239.856,53.9563 242.356,47.123 249.5,42C 256.118,39.7371 262.784,38.2371 269.5,37.5 Z"/></g>
<g><path style="opacity:1" fill="#fec90d" d="M 270.5,76.5 C 272.328,79.135 273.495,82.135 274,85.5C 278.73,105.371 282.896,125.038 286.5,144.5C 285.201,143.91 284.368,142.91 284,141.5C 279.06,121.241 273.894,101.075 268.5,81C 269.582,79.6703 270.249,78.1703 270.5,76.5 Z"/></g>
<g><path style="opacity:1" fill="#ffc312" d="M 624.5,148.5 C 625.5,148.5 626.5,148.5 627.5,148.5C 627.719,149.675 627.386,150.675 626.5,151.5C 610.618,158.941 594.618,166.108 578.5,173C 594.398,174.911 610.398,176.245 626.5,177C 629.167,177.333 631.833,177.667 634.5,178C 634.957,178.414 635.291,178.914 635.5,179.5C 618.296,183.201 600.962,186.368 583.5,189C 583.167,189.333 582.833,189.667 582.5,190C 585.667,193.167 588.833,196.333 592,199.5C 592.483,200.448 592.649,201.448 592.5,202.5C 576.735,198.912 561.068,194.912 545.5,190.5C 543.976,184.607 542.976,178.607 542.5,172.5C 542.833,171.5 543.167,170.5 543.5,169.5C 554.94,164.03 566.44,158.697 578,153.5C 579.257,153.85 579.591,154.517 579,155.5C 575.434,158.699 571.6,161.533 567.5,164C 586.725,159.534 605.725,154.367 624.5,148.5 Z"/></g>
<g><path style="opacity:1" fill="#fe7f26" d="M 625.5,167.5 C 625.897,166.475 626.563,166.308 627.5,167C 626.906,167.464 626.239,167.631 625.5,167.5 Z"/></g>
<g><path style="opacity:0" fill="#000000" d="M 3.5,425.5 C 2.5,425.5 1.5,425.5 0.5,425.5C 0.5,424.5 0.5,423.5 0.5,422.5C 1.5,422.5 2.5,422.5 3.5,422.5C 3.5,423.5 3.5,424.5 3.5,425.5 Z"/></g>
<g><path style="opacity:0" fill="#000000" d="M 639.5,422.5 C 639.5,423.5 639.5,424.5 639.5,425.5C 638.5,425.5 637.5,425.5 636.5,425.5C 636.5,424.5 636.5,423.5 636.5,422.5C 637.5,422.5 638.5,422.5 639.5,422.5 Z"/></g>
</svg>
