<?xml version="1.0" encoding="UTF-8"?>
<!DOCTYPE svg PUBLIC "-//W3C//DTD SVG 1.1//EN" "http://www.w3.org/Graphics/SVG/1.1/DTD/svg11.dtd">
<svg xmlns="http://www.w3.org/2000/svg" version="1.1" width="569px" height="155px" style="shape-rendering:geometricPrecision; text-rendering:geometricPrecision; image-rendering:optimizeQuality; fill-rule:evenodd; clip-rule:evenodd" xmlns:xlink="http://www.w3.org/1999/xlink">
<g><path style="opacity:1" fill="#fefffe" d="M 235.5,27.5 C 247.861,27.3211 260.194,27.8211 272.5,29C 273.893,30.1711 274.727,31.6711 275,33.5C 275.175,37.211 275.675,40.8776 276.5,44.5C 277.308,44.1924 277.975,43.6924 278.5,43C 284.167,42.3333 289.833,42.3333 295.5,43C 296.328,43.9147 297.328,44.5814 298.5,45C 354.5,46.5725 410.5,48.0725 466.5,49.5C 473.711,47.7231 481.044,47.2231 488.5,48C 491.724,50.4766 495.39,51.1432 499.5,50C 500.551,48.6152 501.884,47.6152 503.5,47C 509.167,46.3333 514.833,46.3333 520.5,47C 522.667,49.8333 525.167,52.3333 528,54.5C 528.667,69.5 528.667,84.5 528,99.5C 526.285,101.759 524.452,103.926 522.5,106C 516.947,107.57 511.281,107.903 505.5,107C 503.156,106.163 501.156,104.829 499.5,103C 495.39,101.857 491.724,102.523 488.5,105C 486.167,105.167 483.833,105.333 481.5,105.5C 476.7,105.312 472.033,104.646 467.5,103.5C 411.173,104.447 354.84,105.28 298.5,106C 295.474,108.945 291.807,110.112 287.5,109.5C 267.27,107.45 246.937,106.95 226.5,108C 223.553,111.023 219.886,112.19 215.5,111.5C 212.309,111.622 209.309,111.122 206.5,110C 176.167,109.333 145.833,109.333 115.5,110C 113.999,111.252 112.332,112.252 110.5,113C 103.508,113.5 96.5079,113.666 89.5,113.5C 89.067,110.834 88.567,108.168 88,105.5C 84.3369,101.166 81.5036,96.3329 79.5,91C 72.2056,91.5142 64.8723,91.5142 57.5,91C 53.3333,89.5 50.5,86.6667 49,82.5C 45.0766,56.7647 55.5766,47.9314 80.5,56C 81.2546,53.8252 82.088,51.6585 83,49.5C 86.5905,44.9163 89.7571,40.0829 92.5,35C 98.8333,34.3333 105.167,34.3333 111.5,35C 117.167,36 122.833,37 128.5,38C 152.667,38.9015 176.834,39.7348 201,40.5C 205.474,39.1282 210.141,38.4616 215,38.5C 220.751,37.6942 225.585,39.3609 229.5,43.5C 230.841,39.6163 231.675,35.6163 232,31.5C 233.376,30.2949 234.542,28.9616 235.5,27.5 Z"/></g>
<g><path style="opacity:1" fill="#000000" d="M 238.5,30.5 C 248.86,30.4225 259.193,30.9225 269.5,32C 270.893,33.1711 271.727,34.6711 272,36.5C 272.499,40.1516 272.665,43.8183 272.5,47.5C 277.526,47.6021 282.359,46.9354 287,45.5C 290.214,45.2077 293.048,46.0411 295.5,48C 352.497,49.6159 409.497,51.1159 466.5,52.5C 471.638,52.6061 476.638,51.9394 481.5,50.5C 484.006,50.2207 486.006,51.0541 487.5,53C 492.5,53.6667 497.5,53.6667 502.5,53C 503.551,51.6152 504.884,50.6152 506.5,50C 510.167,49.3333 513.833,49.3333 517.5,50C 519.667,52.8333 522.167,55.3333 525,57.5C 525.667,70.5 525.667,83.5 525,96.5C 521.551,103.474 516.051,105.974 508.5,104C 502.226,99.632 495.226,98.2987 487.5,100C 486.006,101.946 484.006,102.779 481.5,102.5C 477.038,101.022 472.372,100.356 467.5,100.5C 410.171,101.425 352.837,102.259 295.5,103C 291.329,106.772 286.663,107.439 281.5,105C 262.167,104.333 242.833,104.333 223.5,105C 221.624,107.896 218.957,109.062 215.5,108.5C 213.288,108.588 211.288,108.088 209.5,107C 177.167,106.333 144.833,106.333 112.5,107C 110.999,108.252 109.332,109.252 107.5,110C 102.511,110.499 97.5111,110.666 92.5,110.5C 92.067,107.834 91.567,105.168 91,102.5C 87.1129,97.2208 83.6129,91.7208 80.5,86C 77.7559,86.0192 75.0893,86.6859 72.5,88C 55.3317,90.1595 48.4984,82.6595 52,65.5C 53.8333,62.3333 56.3333,59.8333 59.5,58C 64.5,57.3333 69.5,57.3333 74.5,58C 76,59.5 77.5,61 79,62.5C 79.9025,61.2986 81.0692,60.4652 82.5,60C 86.3922,52.433 90.7255,45.0996 95.5,38C 113.162,39.111 130.829,40.4443 148.5,42C 166.007,42.2956 183.507,42.7956 201,43.5C 205.868,43.6132 210.534,42.9465 215,41.5C 219.288,41.2596 222.788,42.7596 225.5,46C 228.146,46.4974 230.813,46.6641 233.5,46.5C 233.16,40.3752 234.827,35.0419 238.5,30.5 Z"/></g>
<g><path style="opacity:1" fill="#c69e48" d="M 284.5,78.5 C 283.167,78.5 281.833,78.5 280.5,78.5C 275.267,69.5913 267.933,67.4246 258.5,72C 255.928,74.3128 254.261,77.1461 253.5,80.5C 243.168,80.1251 232.835,79.7918 222.5,79.5C 222.5,70.1667 222.5,60.8333 222.5,51.5C 227.511,51.6659 232.511,51.4993 237.5,51C 238.793,46.9627 239.626,42.7961 240,38.5C 242.041,36.0259 244.708,35.0259 248,35.5C 253.831,36.0276 259.664,36.5276 265.5,37C 266.976,41.9026 267.976,46.9026 268.5,52C 273.823,52.4994 279.156,52.666 284.5,52.5C 284.5,61.1667 284.5,69.8333 284.5,78.5 Z"/></g>
<g><path style="opacity:1" fill="#000000" d="M 243.5,38.5 C 249.842,38.3338 256.175,38.5005 262.5,39C 263,39.5 263.5,40 264,40.5C 264.667,44.1667 264.667,47.8333 264,51.5C 256.914,52.6456 249.747,52.8123 242.5,52C 239.518,46.9889 239.851,42.4889 243.5,38.5 Z"/></g>
<g><path style="opacity:1" fill="#c69e48" d="M 99.5,42.5 C 101.167,42.5 102.833,42.5 104.5,42.5C 104.667,63.1694 104.5,83.836 104,104.5C 101.358,106.059 99.025,105.725 97,103.5C 96.3333,85.1667 96.3333,66.8333 97,48.5C 97.9383,46.5115 98.7717,44.5115 99.5,42.5 Z"/></g>
<g><path style="opacity:1" fill="#fefffe" d="M 247.5,43.5 C 251.182,43.3347 254.848,43.5014 258.5,44C 259.337,45.0113 259.67,46.1779 259.5,47.5C 255.167,47.5 250.833,47.5 246.5,47.5C 246.433,46.0413 246.766,44.7079 247.5,43.5 Z"/></g>
<g><path style="opacity:1" fill="#c69e48" d="M 213.5,78.5 C 177.833,78.1543 142.167,77.821 106.5,77.5C 106.5,66.8333 106.5,56.1667 106.5,45.5C 109.483,45.1016 112.483,44.7683 115.5,44.5C 124.986,46.1562 134.653,46.9896 144.5,47C 167.501,47.5455 190.501,48.0455 213.5,48.5C 213.5,58.5 213.5,68.5 213.5,78.5 Z"/></g>
<g><path style="opacity:1" fill="#c69e48" d="M 215.5,47.5 C 217.39,47.2965 218.89,47.9632 220,49.5C 220.667,66.1667 220.667,82.8333 220,99.5C 218.667,100.833 217.333,102.167 216,103.5C 215.5,84.8363 215.333,66.1696 215.5,47.5 Z"/></g>
<g><path style="opacity:1" fill="#c69e48" d="M 286.5,50.5 C 288.017,50.5106 289.184,51.1772 290,52.5C 290.667,68.1667 290.667,83.8333 290,99.5C 288.989,100.337 287.822,100.67 286.5,100.5C 286.5,83.8333 286.5,67.1667 286.5,50.5 Z"/></g>
<g><path style="opacity:1" fill="#c69e48" d="M 94.5,76.5 C 92.5,76.5 90.5,76.5 88.5,76.5C 88.2614,70.4348 88.7614,64.4348 90,58.5C 91.3333,56.5 92.6667,54.5 94,52.5C 94.4997,60.4931 94.6664,68.4931 94.5,76.5 Z"/></g>
<g><path style="opacity:1" fill="#c69e48" d="M 477.5,80.5 C 415.829,80.1533 354.163,79.4866 292.5,78.5C 292.5,70.1667 292.5,61.8333 292.5,53.5C 354.166,54.8478 415.833,56.1812 477.5,57.5C 477.5,65.1667 477.5,72.8333 477.5,80.5 Z"/></g>
<g><path style="opacity:1" fill="#c69e48" d="M 511.5,54.5 C 513.371,54.8588 514.871,55.8588 516,57.5C 516.667,70.8333 516.667,84.1667 516,97.5C 515,98.1667 514,98.8333 513,99.5C 511.517,84.6564 511.017,69.6564 511.5,54.5 Z"/></g>
<g><path style="opacity:1" fill="#c69e48" d="M 509.5,79.5 C 501.833,79.5 494.167,79.5 486.5,79.5C 486.5,72.5 486.5,65.5 486.5,58.5C 493.175,58.6663 499.842,58.4996 506.5,58C 507.333,57.1667 508.167,56.3333 509,55.5C 509.5,63.4931 509.666,71.4931 509.5,79.5 Z"/></g>
<g><path style="opacity:1" fill="#c69e48" d="M 479.5,56.5 C 481.39,56.2965 482.89,56.9632 484,58.5C 484.667,70.5 484.667,82.5 484,94.5C 482.921,96.3937 481.587,96.727 480,95.5C 479.5,82.5043 479.333,69.5043 479.5,56.5 Z"/></g>
<g><path style="opacity:1" fill="#c69e48" d="M 73.5,75.5 C 69.2485,78.5671 64.5819,79.2337 59.5,77.5C 56.8515,75.4414 56.0182,72.7747 57,69.5C 62.255,61.1281 68.255,60.4615 75,67.5C 75.8671,70.5209 75.3671,73.1876 73.5,75.5 Z"/></g>
<g><path style="opacity:1" fill="#be9643" d="M 84.5,65.5 C 85.8142,67.9151 86.4809,70.7485 86.5,74C 86.3333,76.8333 86.1667,79.6667 86,82.5C 85.3333,81.8333 84.6667,81.1667 84,80.5C 83.2223,75.4158 83.3889,70.4158 84.5,65.5 Z"/></g>
<g><path style="opacity:1" fill="#c09845" d="M 77.5,68.5 C 79.1667,68.5 80.8333,68.5 82.5,68.5C 82.6653,72.1817 82.4986,75.8484 82,79.5C 80.6439,78.6198 79.1439,78.2865 77.5,78.5C 77.5,75.1667 77.5,71.8333 77.5,68.5 Z"/></g>
<g><path style="opacity:1" fill="#000000" d="M 280.5,78.5 C 280.349,92.0755 273.682,97.2422 260.5,94C 255.404,90.9765 253.071,86.4765 253.5,80.5C 254.261,77.1461 255.928,74.3128 258.5,72C 267.933,67.4246 275.267,69.5913 280.5,78.5 Z"/></g>
<g><path style="opacity:1" fill="#9b7930" d="M 276.5,87.5 C 276.844,78.3507 272.51,74.8507 263.5,77C 260.921,78.0757 259.254,79.909 258.5,82.5C 258.865,85.0787 258.865,87.412 258.5,89.5C 254.35,84.1735 254.683,79.0068 259.5,74C 265.379,70.4433 270.879,70.9433 276,75.5C 279.057,79.5233 279.223,83.5233 276.5,87.5 Z"/></g>
<g><path style="opacity:1" fill="#9d7a31" d="M 73.5,75.5 C 75.3442,76.2039 75.8442,77.5372 75,79.5C 69.9295,84.4014 64.7628,84.568 59.5,80C 58.2264,79.0228 58.2264,78.1894 59.5,77.5C 64.5819,79.2337 69.2485,78.5671 73.5,75.5 Z"/></g>
<g><path style="opacity:1" fill="#a38032" d="M 88.5,76.5 C 90.5,76.5 92.5,76.5 94.5,76.5C 94.6662,82.8421 94.4995,89.1754 94,95.5C 89.246,90.0657 87.4127,83.7323 88.5,76.5 Z"/></g>
<g><path style="opacity:1" fill="#000000" d="M 276.5,87.5 C 273.372,76.3013 267.372,74.6346 258.5,82.5C 259.254,79.909 260.921,78.0757 263.5,77C 272.51,74.8507 276.844,78.3507 276.5,87.5 Z"/></g>
<g><path style="opacity:1" fill="#a38032" d="M 106.5,77.5 C 142.167,77.821 177.833,78.1543 213.5,78.5C 213.5,86.1667 213.5,93.8333 213.5,101.5C 178.498,101.333 143.498,101.5 108.5,102C 108,102.5 107.5,103 107,103.5C 106.5,94.8397 106.334,86.1731 106.5,77.5 Z"/></g>
<g><path style="opacity:1" fill="#c69e48" d="M 276.5,87.5 C 271.297,94.5357 265.297,95.2024 258.5,89.5C 258.865,87.412 258.865,85.0787 258.5,82.5C 267.372,74.6346 273.372,76.3013 276.5,87.5 Z"/></g>
<g><path style="opacity:1" fill="#af8a3a" d="M 518.5,60.5 C 519.117,60.6107 519.617,60.944 520,61.5C 520.167,66.6667 520.333,71.8333 520.5,77C 520.646,82.668 520.146,88.168 519,93.5C 518.5,82.505 518.333,71.505 518.5,60.5 Z"/></g>
<g><path style="opacity:1" fill="#a38032" d="M 280.5,78.5 C 281.833,78.5 283.167,78.5 284.5,78.5C 284.5,85.5 284.5,92.5 284.5,99.5C 263.833,99.5 243.167,99.5 222.5,99.5C 222.5,92.8333 222.5,86.1667 222.5,79.5C 232.835,79.7918 243.168,80.1251 253.5,80.5C 253.071,86.4765 255.404,90.9765 260.5,94C 273.682,97.2422 280.349,92.0755 280.5,78.5 Z"/></g>
<g><path style="opacity:1" fill="#a38032" d="M 292.5,78.5 C 354.163,79.4866 415.829,80.1533 477.5,80.5C 477.5,85.5 477.5,90.5 477.5,95.5C 415.838,96.4858 354.172,97.1524 292.5,97.5C 292.5,91.1667 292.5,84.8333 292.5,78.5 Z"/></g>
<g><path style="opacity:1" fill="#a38032" d="M 486.5,79.5 C 494.167,79.5 501.833,79.5 509.5,79.5C 509.666,85.5092 509.499,91.5092 509,97.5C 508.167,96.6667 507.333,95.8333 506.5,95C 499.842,94.5004 493.175,94.3337 486.5,94.5C 486.5,89.5 486.5,84.5 486.5,79.5 Z"/></g>
</svg>
