<?xml version="1.0" standalone="no"?>
<!DOCTYPE svg PUBLIC "-//W3C//DTD SVG 20010904//EN"
 "http://www.w3.org/TR/2001/REC-SVG-20010904/DTD/svg10.dtd">
<svg version="1.0" xmlns="http://www.w3.org/2000/svg"
 width="900.000000pt" height="788.000000pt" viewBox="0 0 900.000000 788.000000"
 preserveAspectRatio="xMidYMid meet">

<g transform="translate(0.000000,788.000000) scale(0.100000,-0.100000)"
fill="#000000" stroke="none">
<path d="M4941 7797 c-6 -8 -32 -24 -58 -36 -27 -13 -55 -27 -63 -31 -20 -10
-27 -234 -8 -257 6 -8 11 -35 9 -59 -1 -25 2 -50 7 -57 5 -7 15 -35 22 -63 12
-49 12 -51 -14 -77 -15 -15 -35 -27 -46 -27 -10 0 -22 -4 -25 -10 -3 -5 -21
-10 -40 -10 -19 0 -37 -4 -40 -10 -3 -5 -21 -10 -39 -10 -27 0 -41 -9 -75 -47
-85 -96 -127 -136 -165 -155 l-39 -20 -87 23 c-84 22 -89 22 -114 6 -31 -21
-33 -45 -6 -80 l20 -25 -39 -7 c-43 -7 -106 7 -163 36 -21 11 -58 19 -84 19
l-47 0 7 -41 7 -42 -45 36 c-27 23 -57 38 -77 39 l-34 3 -3 -52 c-6 -98 55
-187 142 -209 17 -4 35 -19 45 -37 41 -77 131 -127 227 -127 46 0 85 -16 184
-76 39 -23 86 -39 157 -53 139 -29 158 -27 249 19 43 22 80 40 82 40 1 0 2
-18 2 -39 0 -22 5 -43 10 -46 6 -3 10 -17 10 -31 0 -14 12 -41 26 -60 l26 -34
-35 0 c-20 0 -39 -4 -42 -10 -3 -5 -31 -10 -61 -10 -50 0 -63 -5 -144 -57 -68
-44 -90 -63 -90 -80 0 -29 -57 -59 -286 -147 -98 -38 -138 -62 -231 -136 -53
-42 -93 -83 -101 -102 -18 -42 -8 -112 23 -159 25 -38 120 -124 198 -179 43
-31 47 -37 47 -74 0 -23 9 -55 20 -74 11 -18 20 -34 20 -36 0 -2 -19 -16 -42
-31 -23 -15 -65 -47 -93 -70 -29 -23 -78 -59 -109 -80 -70 -47 -86 -68 -86
-121 0 -57 7 -72 43 -90 l30 -16 -24 -12 c-13 -6 -37 -34 -52 -61 -23 -42 -27
-59 -24 -108 l3 -59 -30 5 c-17 2 -76 10 -131 17 -55 6 -129 18 -165 26 -101
22 -153 19 -189 -12 -32 -27 -39 -52 -20 -71 17 -17 -6 -105 -48 -184 l-35
-65 -98 -11 c-63 -7 -136 -24 -210 -49 l-112 -39 -15 23 c-12 17 -25 22 -62
22 -47 0 -111 -29 -111 -51 0 -6 -15 -28 -32 -48 -18 -21 -44 -50 -57 -66
l-23 -28 -133 7 c-76 4 -165 15 -211 27 -137 35 -214 36 -329 4 -55 -15 -113
-34 -130 -42 -71 -37 -186 -127 -265 -210 -74 -76 -90 -99 -117 -168 -17 -44
-40 -134 -52 -200 -12 -66 -25 -137 -30 -158 -24 -102 -141 -268 -215 -305
-24 -12 -48 -22 -53 -22 -25 0 -160 -70 -183 -95 -27 -29 -79 -58 -120 -68
-29 -7 -81 -82 -136 -193 -29 -58 -37 -86 -41 -155 -5 -74 -9 -87 -33 -111
-15 -14 -45 -30 -66 -34 -30 -5 -55 -23 -106 -74 -66 -66 -68 -69 -68 -118 0
-44 4 -53 29 -71 47 -34 120 -61 164 -61 34 0 71 17 212 100 97 56 183 100
197 100 14 0 45 -9 69 -20 24 -11 55 -20 69 -20 18 0 79 46 209 153 142 120
195 158 237 172 49 16 67 32 174 149 65 72 128 143 140 159 30 38 95 289 119
460 20 137 21 139 67 202 35 47 55 66 78 71 17 3 69 19 115 35 47 16 86 27 88
25 2 -2 -5 -28 -16 -57 -50 -136 -68 -302 -37 -328 10 -8 16 -50 21 -144 4
-85 12 -140 21 -154 8 -12 14 -40 14 -62 0 -22 5 -51 11 -65 25 -53 -16 -99
-279 -314 -56 -46 -102 -88 -102 -95 0 -6 -18 -33 -41 -59 -42 -50 -72 -128
-70 -183 2 -42 42 -106 93 -147 62 -51 71 -54 208 -78 157 -28 198 -42 261
-92 53 -41 86 -89 162 -228 25 -47 54 -94 65 -103 28 -26 84 -32 162 -17 l69
13 56 -38 c30 -21 70 -56 88 -78 50 -61 57 -67 76 -67 10 0 26 10 37 21 24 27
116 90 174 119 59 29 100 68 100 95 0 44 -124 134 -185 135 -11 0 -63 9 -115
20 -52 11 -122 20 -156 20 -34 0 -76 5 -95 12 -61 20 -140 80 -181 137 -22 31
-92 108 -155 171 l-114 116 129 82 c91 58 138 82 160 82 19 0 87 27 164 64
203 98 382 138 475 105 37 -12 73 -89 73 -155 0 -59 -24 -166 -55 -243 -35
-91 -34 -151 6 -213 21 -33 38 -48 53 -48 14 0 36 -19 65 -55 45 -56 46 -57
163 -85 42 -11 60 -27 198 -175 84 -90 161 -170 172 -177 23 -15 25 -46 14
-173 l-8 -90 45 -33 c25 -17 52 -32 60 -32 9 0 52 -14 97 -30 61 -23 98 -30
150 -30 89 0 95 10 86 126 -6 65 -4 89 9 113 27 53 20 73 -55 152 -58 61 -75
87 -101 154 -31 79 -32 81 -136 165 -258 207 -285 240 -298 356 l-7 59 65 86
c76 100 117 177 117 218 0 18 21 64 52 116 47 79 54 86 77 81 14 -3 175 -8
356 -11 306 -6 415 -15 415 -36 0 -5 -27 -26 -59 -48 -56 -38 -59 -43 -66 -90
-4 -28 -4 -55 0 -61 3 -5 37 -10 76 -10 61 0 69 -2 69 -19 0 -11 -16 -38 -35
-61 -54 -65 -132 -259 -107 -268 27 -9 7 -62 -108 -292 -141 -281 -143 -291
-80 -374 34 -45 40 -60 40 -102 0 -33 -7 -57 -20 -74 -11 -14 -20 -33 -20 -42
0 -9 -4 -20 -10 -23 -16 -10 -12 -41 9 -78 11 -19 21 -45 23 -58 2 -17 10 -25
28 -27 24 -3 64 -19 125 -49 36 -18 198 -28 275 -16 l55 8 3 39 c3 38 -9 78
-49 159 -11 22 -19 53 -19 71 0 25 -11 42 -51 81 -48 48 -50 52 -46 95 3 25
26 124 52 220 25 96 49 186 52 200 5 25 66 111 130 183 19 21 38 49 43 63 9
21 15 24 64 24 30 0 66 5 80 11 20 9 29 9 40 0 27 -22 94 -2 262 81 156 78
165 81 251 87 l90 6 111 104 112 104 0 105 c0 90 4 117 30 193 17 48 42 107
55 131 22 37 25 55 25 139 0 69 -6 114 -21 162 l-21 67 85 112 c47 62 88 127
92 145 3 18 15 50 26 72 21 43 37 190 46 423 l5 137 23 -9 c12 -5 68 -14 124
-21 l102 -12 97 31 c169 54 226 70 272 77 25 4 59 13 75 20 73 32 169 67 282
101 121 36 124 36 158 20 20 -10 51 -31 71 -48 91 -80 235 -120 309 -86 62 28
95 126 95 281 0 117 0 118 -34 172 -19 29 -38 71 -42 92 -3 21 -14 47 -24 58
-45 52 -71 106 -85 179 -24 126 -69 222 -137 291 -46 47 -61 71 -74 116 -12
42 -22 59 -38 63 -11 4 -34 18 -51 32 -23 19 -25 24 -10 20 11 -3 331 -100
712 -216 380 -115 698 -210 707 -210 9 0 16 6 16 13 0 18 -109 122 -150 143
-19 9 -293 106 -608 215 -316 110 -643 224 -729 256 l-154 57 6 73 c8 84 3 88
-68 51 -42 -21 -125 -40 -182 -41 -16 0 -50 9 -75 20 -25 11 -58 23 -75 27
-56 13 -75 33 -75 76 0 33 -7 47 -38 78 -21 20 -51 43 -67 51 -17 7 -38 17
-47 22 -10 5 -27 9 -37 9 -11 0 -23 5 -26 10 -3 6 -21 10 -40 10 -19 0 -37 5
-40 10 -9 14 -118 12 -146 -2 -13 -7 -41 -30 -61 -51 -31 -31 -38 -45 -38 -77
0 -49 -5 -49 -108 -14 -68 24 -82 26 -132 17 -30 -6 -70 -8 -88 -6 -20 3 -41
-1 -57 -11 -27 -18 -150 -23 -160 -6 -9 14 -138 13 -153 -2 -9 -9 -16 -8 -30
5 -21 19 -57 22 -67 7 -4 -6 -22 2 -45 20 -33 27 -46 30 -104 30 -46 0 -66 4
-66 13 1 18 47 67 64 67 8 0 17 4 21 9 3 5 20 13 38 16 55 12 77 41 77 101 0
44 3 52 21 57 17 5 20 11 17 32 -3 14 -1 28 3 31 16 9 10 40 -11 59 -34 31
-26 58 25 83 53 26 61 40 46 83 -11 32 -126 216 -160 256 -10 13 -52 35 -92
49 -41 15 -80 32 -88 38 -59 45 -9 136 86 157 40 9 57 18 63 34 4 11 15 27 24
34 11 9 16 30 16 67 0 37 4 54 13 54 7 0 21 14 30 30 10 17 25 30 33 30 8 0
17 7 20 15 4 8 17 15 31 15 28 0 72 46 73 76 1 58 -15 87 -81 154 -61 62 -73
70 -107 70 -31 0 -45 -7 -80 -43 -31 -32 -42 -51 -42 -74 0 -18 5 -35 10 -38
6 -3 10 -27 10 -52 0 -51 -37 -113 -68 -113 -25 0 -46 39 -43 78 1 18 -2 39
-9 47 -7 9 -8 15 0 20 13 8 13 92 0 100 -5 3 -10 28 -10 56 0 27 -6 58 -12 69
-10 15 -10 22 0 32 18 18 15 53 -7 72 -11 10 -21 32 -23 50 -3 28 -9 33 -53
48 -27 9 -64 17 -81 17 -17 1 -37 8 -44 16 -15 19 -64 20 -79 2z m468 -621
c23 -37 29 -134 10 -153 -24 -24 -109 66 -109 116 0 11 6 21 13 21 8 0 24 11
37 25 13 14 25 25 26 25 1 0 12 -15 23 -34z m-296 -75 c68 -32 87 -46 100 -73
9 -18 29 -46 45 -61 l30 -29 -39 -41 c-35 -37 -39 -46 -33 -77 3 -18 13 -40
22 -47 15 -11 15 -12 1 -13 -9 0 -29 10 -45 23 -33 25 -103 30 -169 10 -22 -7
-52 -15 -68 -18 -37 -7 -95 -62 -131 -122 l-29 -48 -26 26 c-15 14 -32 28 -40
30 -17 6 11 73 71 168 23 36 45 86 50 111 19 104 93 200 154 200 12 0 60 -18
107 -39z m179 5 c4 -20 -1 -25 -31 -35 -37 -11 -51 -3 -51 30 0 23 9 29 46 29
25 0 33 -5 36 -24z m-439 -3 c-13 -2 -35 -2 -50 0 -16 2 -5 4 22 4 28 0 40 -2
28 -4z m475 -57 l22 -24 -26 -21 c-33 -26 -35 -26 -62 -1 -28 27 -28 48 1 60
33 13 40 12 65 -14z m-478 -16 c-8 -5 -25 -10 -38 -10 -37 0 -90 -27 -123 -62
-27 -29 -29 -29 -14 -6 22 36 73 67 127 77 59 12 65 12 48 1z m530 -35 c17
-20 13 -23 -40 -31 l-45 -6 30 26 c35 30 39 31 55 11z m-1000 -87 c0 -5 -20
-8 -44 -8 -25 0 -47 3 -49 8 -3 4 17 7 44 7 27 0 49 -3 49 -7z m375 -8 c-3 -5
-11 -10 -17 -10 -6 0 -21 -8 -32 -17 -20 -17 -20 -17 -6 1 8 10 23 22 35 26
27 12 27 11 20 0z m-645 -141 c11 -7 8 -8 -10 -3 -37 10 -110 42 -110 48 0 6
96 -30 120 -45z m445 0 c-17 -4 -59 -38 -94 -74 -35 -37 -65 -64 -67 -62 -5 5
93 107 126 129 14 10 34 17 45 17 14 -1 10 -4 -10 -10z m629 2 c3 -4 33 -18
67 -30 33 -13 59 -24 57 -26 -7 -7 -251 -77 -333 -96 -44 -10 -97 -18 -118
-18 l-38 -1 18 31 c26 45 81 107 106 121 12 6 36 15 52 19 43 10 183 11 189 0z
m226 -92 c0 -6 -4 -7 -10 -4 -5 3 -10 11 -10 16 0 6 5 7 10 4 6 -3 10 -11 10
-16z m-1413 -81 c9 -10 23 -18 31 -18 9 0 12 -3 9 -7 -4 -3 -18 0 -32 7 -25
13 -46 57 -44 94 1 12 5 3 10 -18 5 -22 17 -48 26 -58z m1408 33 c-6 -5 -25
10 -25 20 0 5 6 4 14 -3 8 -7 12 -15 11 -17z m-48 -27 c-3 -3 -12 -4 -19 -1
-8 3 -5 6 6 6 11 1 17 -2 13 -5z m-60 -10 c-3 -3 -12 -4 -19 -1 -8 3 -5 6 6 6
11 1 17 -2 13 -5z m-50 -10 c-3 -3 -12 -4 -19 -1 -8 3 -5 6 6 6 11 1 17 -2 13
-5z m213 2 c0 -3 -4 -8 -10 -11 -5 -3 -10 -1 -10 4 0 6 5 11 10 11 6 0 10 -2
10 -4z m-872 -46 c-27 -55 -62 -80 -107 -79 l-36 2 43 6 c46 8 71 29 91 79 7
17 17 32 21 32 4 0 -1 -18 -12 -40z m527 29 c11 -17 -1 -21 -15 -4 -8 9 -8 15
-2 15 6 0 14 -5 17 -11z m81 -1 c5 -8 2 -9 -9 -5 -11 4 -17 1 -17 -9 0 -8 -5
-12 -10 -9 -8 5 -7 11 1 21 14 17 25 18 35 2z m-270 -35 c-7 -7 -26 7 -26 19
0 6 6 6 15 -2 9 -7 13 -15 11 -17z m159 7 c3 -5 1 -10 -4 -10 -6 0 -11 5 -11
10 0 6 2 10 4 10 3 0 8 -4 11 -10z m-888 -36 c32 -9 83 -23 113 -31 30 -8 66
-26 80 -40 l25 -25 -39 26 c-21 14 -49 26 -62 26 -13 0 -41 7 -61 15 -21 8
-68 22 -103 29 -36 8 -53 15 -38 15 15 1 53 -6 85 -15z m697 -19 c3 -8 1 -15
-4 -15 -6 0 -10 7 -10 15 0 8 2 15 4 15 2 0 6 -7 10 -15z m141 -5 c12 -13 20
-48 27 -112 l10 -93 71 -73 c40 -40 107 -101 149 -135 42 -34 75 -63 73 -65
-10 -10 -58 11 -126 56 -74 49 -222 205 -244 256 -6 13 -17 32 -26 43 -8 10
-21 36 -28 57 -13 38 -13 41 13 63 33 28 57 29 81 3z m-165 -43 c0 -5 -4 -5
-10 -2 -5 3 -10 14 -10 23 0 15 2 15 10 2 5 -8 10 -19 10 -23z m725 -8 c4 -11
5 -22 3 -23 -41 -28 -65 -36 -100 -36 -24 0 -61 -5 -83 -10 -23 -6 -99 -7
-182 -4 -115 6 -143 10 -143 21 0 13 24 14 148 12 182 -4 297 10 320 40 21 26
29 26 37 0z m-125 -110 c0 -11 13 -34 29 -52 34 -35 29 -52 -20 -62 -32 -7
-63 10 -52 28 4 6 1 7 -6 3 -9 -6 -8 -12 4 -26 16 -17 14 -19 -38 -31 -74 -16
-84 -23 -68 -43 17 -21 84 -21 101 -1 7 8 23 15 36 15 22 0 24 -4 24 -43 0
-47 -17 -70 -59 -80 -20 -5 -40 5 -95 48 -97 74 -212 194 -220 228 l-7 29 149
-4 c120 -2 148 -6 144 -17 -3 -8 1 -12 12 -10 9 2 16 8 16 14 -1 8 23 22 43
24 4 1 7 -8 7 -20z m-500 -57 c0 -9 9 -34 20 -55 33 -61 30 -64 -49 -54 -64 9
-69 11 -58 28 9 14 9 26 0 50 -16 42 -10 49 43 49 35 0 44 -3 44 -18z m170
-162 c19 -20 46 -43 60 -53 22 -15 20 -15 -26 2 -28 10 -72 32 -97 50 -40 27
-47 37 -47 65 0 18 -7 41 -15 52 -8 10 -14 24 -14 29 0 6 23 -17 52 -50 29
-33 68 -75 87 -95z m375 89 c10 -15 3 -19 -41 -26 -22 -3 -46 -12 -56 -20 -17
-15 -93 -15 -93 1 0 5 36 19 80 32 95 26 102 27 110 13z m-840 -49 c-3 -6 -21
-17 -38 -26 -18 -9 -51 -32 -75 -51 -45 -37 -68 -41 -29 -6 27 26 129 93 140
93 4 0 5 -5 2 -10z m99 -33 c-75 -55 -166 -154 -204 -220 -46 -80 -60 -191
-68 -518 l-7 -286 -49 14 c-47 14 -48 15 -42 46 3 18 10 158 15 312 5 154 15
304 21 333 20 88 79 164 194 248 55 41 115 80 133 86 18 7 33 16 33 20 0 4 7
8 16 8 9 0 -10 -19 -42 -43z m12 -106 c14 -11 62 -34 107 -52 80 -32 85 -33
235 -32 147 0 192 -8 115 -21 -21 -3 -91 -6 -155 -6 -123 0 -158 7 -270 57
-47 21 -59 32 -68 59 -6 18 -8 39 -3 46 6 9 9 6 11 -9 2 -13 14 -31 28 -42z
m-56 -10 c0 -10 8 -25 18 -34 26 -24 154 -75 207 -82 l45 -7 -40 -29 c-50 -37
-124 -137 -152 -209 -19 -45 -23 -75 -23 -170 0 -109 2 -118 29 -165 56 -99
97 -137 171 -160 34 -11 -70 -62 -161 -80 -43 -9 -89 -20 -102 -25 -17 -8 -46
-3 -114 18 l-91 27 7 295 c7 338 19 420 77 514 38 64 107 138 120 130 5 -3 9
-13 9 -23z m-258 -78 c-23 -32 -46 -80 -52 -108 -7 -27 -15 -177 -19 -333 -5
-155 -11 -285 -14 -288 -23 -23 -28 373 -6 501 6 39 12 84 13 100 1 17 8 41
16 55 26 50 92 141 97 136 3 -2 -13 -31 -35 -63z m2073 37 c3 -5 21 -10 40
-10 19 0 37 -4 40 -10 3 -5 15 -10 26 -10 10 0 27 -4 37 -9 9 -5 30 -15 46
-22 17 -8 45 -29 64 -48 l33 -33 -6 -127 c-7 -117 -9 -128 -33 -153 -37 -40
-93 -39 -133 1 -30 30 -36 58 -20 89 49 90 54 108 39 153 -24 72 -132 130
-213 115 -37 -7 -85 -47 -85 -71 0 -20 -19 -19 -26 0 -14 34 25 96 82 132 23
15 101 17 109 3z m-45 -85 c0 -9 -81 -110 -91 -113 -15 -6 -22 28 -11 54 16
33 102 84 102 59z m58 -14 c11 -6 4 -23 -32 -72 -62 -86 -66 -91 -79 -86 -32
10 -10 61 62 140 27 30 30 31 49 18z m-364 -42 c26 -11 73 -25 106 -30 61 -10
105 -39 112 -75 3 -16 15 -26 48 -38 8 -3 22 -11 31 -17 28 -21 68 -2 86 39
27 64 29 67 57 70 34 4 34 -17 1 -86 -14 -29 -25 -58 -25 -64 -1 -27 -50 -51
-93 -45 -38 5 -71 -1 -262 -50 -33 -8 -82 -24 -109 -34 -27 -10 -54 -19 -61
-19 -7 0 -17 26 -25 63 -6 34 -20 96 -30 137 -18 79 -12 130 16 130 8 0 14 5
14 10 0 13 36 28 66 29 12 1 42 -8 68 -20z m428 4 c23 -21 23 -33 0 -33 -24 0
-46 -24 -66 -73 -16 -40 -41 -56 -58 -39 -11 11 12 56 65 125 33 42 34 43 59
20z m717 -278 c262 -90 535 -185 606 -210 72 -26 195 -68 275 -95 80 -26 206
-69 280 -95 74 -26 160 -56 190 -67 87 -29 175 -76 206 -110 l29 -30 -30 15
c-27 14 -434 139 -595 183 -36 10 -83 25 -105 35 -54 23 -219 73 -330 100 -49
12 -126 35 -170 51 -44 16 -109 38 -145 48 -36 10 -208 61 -383 114 -175 53
-320 96 -323 96 -2 0 -4 22 -4 49 0 49 7 81 18 81 3 0 220 -74 481 -165z
m-2386 60 c-33 -50 -35 -59 -30 -107 19 -179 161 -302 257 -222 26 22 38 26
71 21 52 -7 75 -25 56 -44 -10 -11 -20 -11 -46 -2 -24 9 -39 9 -57 0 -14 -6
-34 -11 -45 -11 -10 0 -28 -5 -38 -11 -10 -7 -30 -9 -45 -5 -40 10 -113 82
-127 124 -7 20 -18 47 -26 59 -22 34 -32 129 -18 176 11 39 61 91 77 81 4 -3
-9 -29 -29 -59z m731 -172 c4 -4 -13 -15 -36 -24 -53 -20 -60 -49 -26 -115
l23 -47 -34 -26 c-19 -14 -58 -47 -87 -73 -44 -39 -61 -48 -92 -48 -50 0 -62
-14 -56 -64 5 -32 2 -47 -14 -66 l-20 -24 -36 19 c-21 11 -44 28 -53 37 -14
15 -13 20 8 50 12 18 43 58 68 88 105 124 115 141 117 189 2 57 17 67 118 85
42 7 79 16 83 20 8 8 28 8 37 -1z m-1340 -105 c3 -24 8 -72 11 -107 6 -63 6
-64 -17 -57 -13 3 -40 6 -60 6 -29 0 -46 8 -73 34 -19 19 -35 39 -35 44 0 6
19 21 43 35 23 14 58 39 77 56 19 17 38 30 42 31 4 0 9 -19 12 -42z m1066 -16
c0 -8 -31 -48 -78 -101 -40 -46 -13 9 31 62 39 47 47 54 47 39z m-105 -152 c3
-5 -12 -29 -35 -54 -22 -24 -54 -63 -70 -87 l-29 -43 -161 -33 -161 -32 -37
41 c-20 23 -43 48 -51 55 -7 8 -12 15 -10 17 2 2 39 11 82 19 43 9 90 22 105
30 111 58 140 70 195 82 74 16 163 19 172 5z m-851 -222 c-17 -21 -16 -21 9 1
16 14 27 19 27 12 0 -7 -10 -22 -22 -32 l-23 -20 26 15 c24 15 39 13 39 -5 0
-4 -12 -12 -27 -18 -22 -9 -23 -10 -5 -7 31 6 23 -16 -9 -25 -13 -4 -18 -7
-11 -8 26 -2 0 -21 -29 -21 -21 0 -29 -5 -29 -18 0 -38 -61 -60 -74 -26 -13
35 -6 56 24 67 19 7 28 17 25 25 -9 24 6 34 22 15 13 -17 13 -16 3 5 -16 32
-1 51 17 21 l14 -24 -7 24 c-6 24 8 41 35 41 11 0 9 -6 -5 -22z m668 0 c-7 -7
-12 -22 -12 -34 0 -25 -73 -104 -96 -104 -14 0 -15 8 -9 58 7 61 15 71 55 73
14 0 34 4 45 9 28 12 31 12 17 -2z m101 -16 c19 -21 6 -42 -26 -42 -10 0 -27
-5 -38 -10 -30 -17 -25 24 7 49 33 26 37 26 57 3z m-1253 -15 c0 -7 -13 -20
-29 -30 -33 -20 -41 -21 -41 -7 0 6 7 10 15 10 8 0 19 9 25 20 12 22 30 27 30
7z m1025 -51 c-6 -47 -10 -56 -25 -51 -9 3 -40 6 -68 6 -52 2 -52 2 -52 35 0
18 5 36 12 40 12 8 131 32 136 28 2 -1 0 -28 -3 -58z m-885 10 c0 -8 -4 -18
-10 -21 -5 -3 -10 -14 -10 -25 0 -20 -26 -34 -36 -19 -9 15 25 79 41 79 8 0
15 -6 15 -14z m850 -144 c25 -4 40 -10 34 -14 -15 -10 -194 3 -188 13 6 10 89
11 154 1z m-695 -25 c10 -8 15 -19 11 -25 -11 -18 -53 -14 -60 4 -13 33 16 45
49 21z m704 -23 c2 -2 -6 -26 -18 -53 -39 -92 -28 -167 39 -266 29 -43 93
-161 198 -368 49 -96 62 -131 53 -136 -7 -5 -43 -11 -80 -15 -37 -3 -99 -17
-138 -30 l-71 -24 -12 26 c-6 15 -30 74 -51 132 -46 122 -113 250 -210 403
l-69 109 52 62 c66 77 136 145 168 163 18 10 41 12 80 7 30 -3 57 -8 59 -10z
m-436 -123 c4 -4 -2 -16 -13 -26 -19 -17 -22 -17 -37 -3 -22 23 -10 51 19 43
13 -4 26 -10 31 -14z m2508 -77 c182 -65 170 -59 149 -76 -26 -23 -138 -33
-186 -18 -81 26 -120 44 -144 67 -24 24 -25 24 -6 39 30 22 104 17 187 -12z
m-292 -36 c5 -13 31 -44 58 -70 41 -41 60 -51 128 -68 113 -30 236 -17 352 37
60 28 68 25 125 -34 l38 -38 -48 -22 c-26 -11 -83 -31 -127 -43 -117 -33 -303
-95 -360 -120 -82 -36 -233 -70 -312 -70 -81 0 -166 19 -159 35 33 72 59 147
64 177 4 32 18 52 77 111 75 75 135 126 148 127 4 0 11 -10 16 -22z m-2074
-103 c96 -154 158 -275 210 -410 26 -66 49 -127 51 -135 3 -11 -15 -22 -68
-42 -85 -32 -72 -38 -182 90 -143 168 -181 230 -267 435 -18 43 -45 98 -60
122 l-28 43 42 -19 c60 -27 132 -25 182 5 22 13 43 22 47 20 3 -2 36 -52 73
-109z m-735 -55 c14 -5 45 -11 70 -15 71 -9 72 -10 44 -105 -13 -47 -29 -104
-34 -127 -11 -42 -11 -43 -54 -43 -24 0 -63 7 -86 15 -23 8 -60 15 -81 15 -29
0 -39 4 -39 16 0 9 19 71 42 139 l42 123 36 -5 c19 -2 46 -8 60 -13z m3754
-16 c9 -8 16 -22 16 -29 0 -18 -27 -45 -45 -45 -18 0 -45 27 -45 45 0 18 27
45 45 45 7 0 21 -7 29 -16z m-4292 -173 c70 -40 131 -101 159 -160 28 -58 49
-223 69 -520 5 -79 13 -148 18 -153 8 -8 552 27 822 52 58 6 140 13 183 17
l77 6 0 -52 c0 -48 -2 -52 -20 -46 -12 4 -27 2 -34 -4 -8 -7 -102 -14 -239
-19 -171 -7 -230 -12 -243 -23 -12 -9 -59 -16 -148 -22 -315 -18 -403 -25
-426 -31 -22 -6 -30 -1 -62 41 l-36 48 -8 205 c-4 126 -12 222 -21 250 -7 25
-18 81 -23 125 -12 99 -57 191 -139 283 -78 88 -93 110 -87 121 4 5 28 -12 55
-39 27 -27 73 -62 103 -79z m-658 14 c16 -24 16 -26 -8 -50 -27 -27 -55 -31
-87 -15 -29 16 -23 48 14 70 43 26 61 25 81 -5z m2542 -320 c26 -64 29 -62
-133 -69 -133 -6 -156 -10 -226 -37 l-77 -31 -19 23 -19 23 97 38 c119 48 180
66 256 77 103 15 105 15 121 -24z m-1319 -126 c-20 -17 -37 -35 -37 -41 0 -5
19 7 42 26 23 20 47 35 52 33 6 -2 17 -21 24 -42 12 -37 11 -40 -10 -57 -14
-11 -32 -16 -46 -13 -15 4 -21 2 -17 -5 8 -14 48 -13 63 2 17 17 15 -3 -3 -29
-13 -18 -23 -21 -61 -18 -51 4 -52 -4 -2 -15 l33 -7 -37 -18 c-31 -15 -42 -16
-63 -7 -41 19 -48 15 -41 -23 6 -29 3 -39 -18 -60 -32 -32 -70 -32 -101 0 -32
31 -32 69 0 101 21 21 31 24 62 18 35 -7 36 -6 29 17 -16 52 -17 65 -2 84 15
20 15 20 16 -2 0 -12 4 -24 9 -28 6 -3 7 9 4 31 -5 29 -2 40 12 50 28 20 32
17 29 -18 -3 -23 -1 -27 4 -13 13 36 27 53 47 58 45 11 48 6 12 -24z m1404
-1121 c20 -40 39 -229 39 -400 0 -79 -2 -88 -18 -88 -18 0 -19 15 -25 218 -4
153 -10 227 -20 252 -8 19 -17 49 -21 65 -6 29 -6 29 10 10 8 -11 24 -37 35
-57z m354 -46 c-3 -13 -9 -38 -12 -56 -6 -35 -84 -116 -131 -135 -26 -11 -35
-10 -71 8 -23 12 -41 24 -41 28 0 3 22 29 49 57 26 29 54 67 61 86 l12 35 70
1 c68 0 69 0 63 -24z m-899 -122 c-3 -22 -9 -58 -12 -80 l-6 -40 -64 0 -63 0
6 33 c3 17 7 34 9 36 5 5 128 90 132 90 2 1 1 -17 -2 -39z"/>
<path d="M4945 7021 c6 -5 53 -12 105 -15 94 -5 95 -5 20 4 -41 5 -88 12 -105
15 -18 3 -26 2 -20 -4z"/>
<path d="M4965 6972 c-35 -8 -95 -43 -95 -55 0 -9 10 -4 50 24 55 37 197 33
243 -8 10 -10 17 -12 17 -5 0 33 -138 61 -215 44z"/>
<path d="M5003 6900 c0 -25 2 -35 4 -22 2 12 2 32 0 45 -2 12 -4 2 -4 -23z"/>
<path d="M5061 6918 c0 -14 -4 -35 -7 -45 -5 -17 -5 -17 6 0 6 10 9 30 7 45
l-4 27 -2 -27z"/>
<path d="M4933 6906 c4 -10 7 -26 7 -37 0 -10 4 -19 8 -19 12 0 2 59 -11 67
-7 4 -8 0 -4 -11z"/>
<path d="M5125 6880 c-39 -41 -28 -44 15 -3 19 18 30 33 24 33 -5 0 -23 -13
-39 -30z"/>
<path d="M4881 6860 c14 -31 19 -36 19 -24 0 6 -7 19 -16 30 -14 18 -14 18 -3
-6z"/>
<path d="M4820 6827 c0 -5 9 -20 20 -34 11 -14 20 -21 20 -15 0 12 -39 60 -40
49z"/>
<path d="M4871 4826 c-8 -10 -9 -16 -1 -21 6 -4 9 -2 8 3 -2 6 2 10 7 10 6 0
9 -4 7 -10 -1 -5 2 -7 8 -3 8 5 7 11 -1 21 -6 8 -13 14 -14 14 -1 0 -8 -6 -14
-14z"/>
<path d="M3826 4133 c-20 -59 -35 -108 -33 -109 10 -10 192 -33 199 -26 11 11
61 202 55 208 -4 4 -163 34 -179 34 -3 0 -22 -48 -42 -107z m90 20 c-5 -17 -3
-29 6 -34 23 -15 36 -10 47 19 8 23 9 20 4 -18 -3 -25 -10 -54 -15 -65 -6 -14
-7 -11 -2 12 5 28 3 32 -25 38 -17 4 -31 12 -31 18 0 19 12 57 17 57 3 0 2
-12 -1 -27z"/>
<path d="M3996 3599 c-22 -16 -33 -29 -25 -29 16 1 76 47 69 54 -3 2 -23 -9
-44 -25z"/>
</g>
</svg>
