<?xml version="1.0" encoding="UTF-8"?>
<!DOCTYPE svg PUBLIC "-//W3C//DTD SVG 1.1//EN" "http://www.w3.org/Graphics/SVG/1.1/DTD/svg11.dtd">
<svg xmlns="http://www.w3.org/2000/svg" version="1.1" width="640px" height="426px" style="shape-rendering:geometricPrecision; text-rendering:geometricPrecision; image-rendering:optimizeQuality; fill-rule:evenodd; clip-rule:evenodd" xmlns:xlink="http://www.w3.org/1999/xlink">
<g><path style="opacity:0" fill="#000000" d="M -0.5,-0.5 C 0.5,-0.5 1.5,-0.5 2.5,-0.5C 2.5,0.5 2.5,1.5 2.5,2.5C 1.5,2.5 0.5,2.5 -0.5,2.5C -0.5,1.5 -0.5,0.5 -0.5,-0.5 Z"/></g>
<g><path style="opacity:0" fill="#000000" d="M 635.5,-0.5 C 636.5,-0.5 637.5,-0.5 638.5,-0.5C 638.5,0.5 638.5,1.5 638.5,2.5C 637.5,2.5 636.5,2.5 635.5,2.5C 635.5,1.5 635.5,0.5 635.5,-0.5 Z"/></g>
<g><path style="opacity:1" fill="#c2c3c2" d="M 222.5,4.5 C 229.222,4.28964 235.888,4.78964 242.5,6C 250.496,8.33022 258.496,10.6636 266.5,13C 275.575,13.0854 284.575,13.7521 293.5,15C 300.067,16.8646 305.567,20.3646 310,25.5C 311.489,35.3544 307.989,42.8544 299.5,48C 295.5,48.6667 291.5,48.6667 287.5,48C 281.405,45.6144 275.071,44.4478 268.5,44.5C 256.464,45.6712 244.464,47.1712 232.5,49C 233.743,50.1545 234.743,51.4878 235.5,53C 241.985,55.7433 248.319,58.7433 254.5,62C 261.583,65.825 262.25,70.4917 256.5,76C 250.235,77.4842 243.902,77.8176 237.5,77C 233.442,75.3839 229.275,74.2172 225,73.5C 222.7,73.4944 220.534,73.9944 218.5,75C 216.191,77.4866 213.524,79.4866 210.5,81C 201.5,81.6667 192.5,81.6667 183.5,81C 177.065,74.0206 174.899,65.854 177,56.5C 178.667,53.5 181,51.1667 184,49.5C 186.834,42.659 189.167,35.659 191,28.5C 197.416,15.0519 207.916,7.05188 222.5,4.5 Z"/></g>
<g><path style="opacity:1" fill="#c2c3c2" d="M 639.5,30.5 C 639.5,36.1667 639.5,41.8333 639.5,47.5C 638.187,57.217 636.02,66.8837 633,76.5C 627.415,85.335 622.081,94.335 617,103.5C 618.229,116.11 618.562,128.777 618,141.5C 616.041,151.457 610.874,159.29 602.5,165C 594.258,169.289 585.924,173.289 577.5,177C 568.833,177.667 560.167,177.667 551.5,177C 549.222,176.014 546.889,175.18 544.5,174.5C 543.167,173.167 543.167,171.833 544.5,170.5C 549.326,168.254 553.992,165.754 558.5,163C 563.861,159.118 566.028,153.951 565,147.5C 562.066,141.967 558.4,136.967 554,132.5C 552.639,121.429 555.805,111.929 563.5,104C 569.835,99.4969 576.502,95.4969 583.5,92C 592.315,84.1581 592.815,75.6581 585,66.5C 580.952,62.1203 577.285,57.4537 574,52.5C 571.427,45.2941 573.26,39.4607 579.5,35C 596.493,26.2522 614.493,21.5856 633.5,21C 635.662,24.1796 637.662,27.3463 639.5,30.5 Z"/></g>
<g><path style="opacity:0" fill="#000000" d="M 632.5,418.5 C 633.5,418.5 634.5,418.5 635.5,418.5C 635.5,419.5 635.5,420.5 635.5,421.5C 634.5,421.5 633.5,421.5 632.5,421.5C 632.5,420.5 632.5,419.5 632.5,418.5 Z"/></g>
<g><path style="opacity:0" fill="#000000" d="M -0.5,419.5 C 0.5,419.5 1.5,419.5 2.5,419.5C 2.5,420.5 2.5,421.5 2.5,422.5C 1.5,422.5 0.5,422.5 -0.5,422.5C -0.5,421.5 -0.5,420.5 -0.5,419.5 Z"/></g>
<g><path style="opacity:0" fill="#000000" d="M 639.5,419.5 C 639.5,420.5 639.5,421.5 639.5,422.5C 638.596,423.209 638.263,424.209 638.5,425.5C 637.5,425.5 636.5,425.5 635.5,425.5C 635.833,423.5 636.167,421.5 636.5,419.5C 637.5,419.5 638.5,419.5 639.5,419.5 Z"/></g>
</svg>
