<?xml version="1.0" encoding="UTF-8"?>
<!DOCTYPE svg PUBLIC "-//W3C//DTD SVG 1.1//EN" "http://www.w3.org/Graphics/SVG/1.1/DTD/svg11.dtd">
<svg xmlns="http://www.w3.org/2000/svg" version="1.1" width="325px" height="381px" style="shape-rendering:geometricPrecision; text-rendering:geometricPrecision; image-rendering:optimizeQuality; fill-rule:evenodd; clip-rule:evenodd" xmlns:xlink="http://www.w3.org/1999/xlink">
<g><path style="opacity:1" fill="#000000" d="M 169.5,29.5 C 180.087,29.0397 187.92,33.3731 193,42.5C 194.298,62.769 194.965,83.1023 195,103.5C 196.907,91.1519 198.907,78.8186 201,66.5C 203.167,59 208,54.1667 215.5,52C 237.519,49.6859 247.019,59.5192 244,81.5C 239.24,111.152 234.574,140.819 230,170.5C 229.333,175.167 229.333,179.833 230,184.5C 233.656,172.516 238.656,161.183 245,150.5C 256.808,140.295 269.475,138.962 283,146.5C 285.556,149.712 287.056,153.378 287.5,157.5C 278.429,187.545 268.263,217.212 257,246.5C 250.24,260.513 240.74,272.346 228.5,282C 223.667,285.5 218.833,289 214,292.5C 213.042,294.199 212.542,296.033 212.5,298C 214.286,308.782 215.12,319.615 215,330.5C 212.174,332.34 209.007,333.006 205.5,332.5C 205.47,343.181 205.804,353.848 206.5,364.5C 175.167,364.5 143.833,364.5 112.5,364.5C 113.888,353.89 114.555,343.223 114.5,332.5C 110.993,333.006 107.826,332.34 105,330.5C 105.667,317.166 106.333,303.833 107,290.5C 92.9601,273.063 84.9601,253.063 83,230.5C 82.3683,218.165 81.7017,205.831 81,193.5C 72.8648,166.761 64.5314,140.095 56,113.5C 55.1493,101.023 60.6493,92.8564 72.5,89C 83.2207,86.6244 91.7207,89.7911 98,98.5C 100.667,105.833 103.333,113.167 106,120.5C 104.474,106.15 102.474,91.8167 100,77.5C 98.5608,61.3876 105.894,52.3876 122,50.5C 133.593,51.4365 140.926,57.4365 144,68.5C 145.667,79.1667 147.333,89.8333 149,100.5C 149.052,81.7815 149.718,63.1149 151,44.5C 154.401,35.9186 160.568,30.9186 169.5,29.5 Z"/></g>
<g><path style="opacity:1" fill="#fefffe" d="M 167.5,40.5 C 175.128,39.0649 180.628,41.7315 184,48.5C 184.333,90.5 184.667,132.5 185,174.5C 187.925,177.059 190.925,177.059 194,174.5C 199.775,139.519 205.441,104.519 211,69.5C 212.994,64.2484 216.828,61.5817 222.5,61.5C 232.254,62.9781 236.087,68.6448 234,78.5C 229.426,108.181 224.76,137.848 220,167.5C 219.667,178.5 219.333,189.5 219,200.5C 206.183,208.798 197.183,220.132 192,234.5C 191.308,241.219 194.141,243.219 200.5,240.5C 203.079,235.008 205.912,229.675 209,224.5C 216.667,217.167 224.333,209.833 232,202.5C 239.009,190.487 244.676,177.821 249,164.5C 253.212,155.309 260.379,151.142 270.5,152C 275.71,153.211 277.544,156.377 276,161.5C 269.469,180.092 263.136,198.759 257,217.5C 252.339,231.162 246.339,244.162 239,256.5C 230.347,266.495 220.514,274.995 209.5,282C 202.818,288.064 200.651,295.564 203,304.5C 203.472,310.432 204.306,316.265 205.5,322C 175.502,322.5 145.502,322.667 115.5,322.5C 116.072,312.618 117.072,302.784 118.5,293C 117.917,290.082 117.084,287.249 116,284.5C 102.489,267.991 94.8225,248.991 93,227.5C 93.0642,213.407 92.0642,199.407 90,185.5C 82.3371,161.844 74.6704,138.178 67,114.5C 65.2633,106.806 68.0966,101.639 75.5,99C 80.1354,98.0457 84.1354,99.2123 87.5,102.5C 97.2035,126.584 106.37,150.917 115,175.5C 116.691,179.213 119.525,180.379 123.5,179C 124.98,177.701 125.646,176.034 125.5,174C 120.383,140.299 115.05,106.632 109.5,73C 112.09,62.5383 118.424,59.2049 128.5,63C 131.467,65.1005 133.3,67.9338 134,71.5C 139.128,105.936 144.795,140.269 151,174.5C 154.761,177.359 157.761,176.692 160,172.5C 160.333,130.833 160.667,89.1667 161,47.5C 162.694,44.6424 164.861,42.309 167.5,40.5 Z"/></g>
<g><path style="opacity:1" fill="#fefffe" d="M 124.5,332.5 C 148.167,332.5 171.833,332.5 195.5,332.5C 195.5,339.833 195.5,347.167 195.5,354.5C 171.833,354.5 148.167,354.5 124.5,354.5C 124.5,347.167 124.5,339.833 124.5,332.5 Z"/></g>
</svg>
