<?xml version="1.0" encoding="UTF-8"?>
<!DOCTYPE svg PUBLIC "-//W3C//DTD SVG 1.1//EN" "http://www.w3.org/Graphics/SVG/1.1/DTD/svg11.dtd">
<svg xmlns="http://www.w3.org/2000/svg" version="1.1" width="325px" height="381px" style="shape-rendering:geometricPrecision; text-rendering:geometricPrecision; image-rendering:optimizeQuality; fill-rule:evenodd; clip-rule:evenodd" xmlns:xlink="http://www.w3.org/1999/xlink">
<g><path style="opacity:1" fill="#000000" d="M 232.5,380.5 C 186.167,380.5 139.833,380.5 93.5,380.5C 92.828,379.733 91.9947,379.066 91,378.5C 90.8333,376.667 90.6667,374.833 90.5,373C 92.9476,356.2 95.1143,339.367 97,322.5C 100.879,321.287 104.712,319.953 108.5,318.5C 110.251,310.573 111.085,302.573 111,294.5C 110.535,293.069 109.701,291.903 108.5,291C 93.0473,281.881 80.5473,269.714 71,254.5C 57.6178,222.854 46.1178,190.521 36.5,157.5C 38.4953,146.485 45.162,141.152 56.5,141.5C 69.3006,141.475 78.4672,147.142 84,158.5C 87.3333,167.167 90.6667,175.833 94,184.5C 94.6667,179.833 94.6667,175.167 94,170.5C 88.7313,138.222 83.8979,105.889 79.5,73.5C 79.1012,64.0708 83.1012,57.2374 91.5,53C 102.447,49.3269 111.947,51.4936 120,59.5C 121.275,61.7173 122.275,64.0506 123,66.5C 125.093,78.8186 127.093,91.1519 129,103.5C 129.035,83.1023 129.702,62.769 131,42.5C 137.468,31.3547 146.968,27.5214 159.5,31C 167.612,34.1125 172.445,39.9458 174,48.5C 174.333,65.8333 174.667,83.1667 175,100.5C 176.667,89.8333 178.333,79.1667 180,68.5C 186.15,51.5186 197.65,46.6853 214.5,54C 222.506,59.8489 225.672,67.6822 224,77.5C 221.526,91.8167 219.526,106.15 218,120.5C 220.667,113.167 223.333,105.833 226,98.5C 233.333,88.9524 242.833,86.119 254.5,90C 266.107,95.7169 270.273,104.884 267,117.5C 258.6,142.7 250.6,168.033 243,193.5C 242.298,205.831 241.632,218.165 241,230.5C 239.04,253.063 231.04,273.063 217,290.5C 216.945,299.85 217.445,309.183 218.5,318.5C 221.829,319.498 224.996,320.831 228,322.5C 229.848,339.589 232.348,356.589 235.5,373.5C 235.305,376.218 234.305,378.551 232.5,380.5 Z"/></g>
<g><path style="opacity:1" fill="#cccdcc" d="M 163.5,154.5 C 162.178,154.67 161.011,154.337 160,153.5C 157.574,146.547 154.574,139.881 151,133.5C 147.942,140.007 145.275,146.674 143,153.5C 141.989,154.337 140.822,154.67 139.5,154.5C 139.077,153.735 138.743,152.902 138.5,152C 139.323,117.529 139.823,83.0294 140,48.5C 144.051,40.6259 150.218,38.4592 158.5,42C 160.378,43.5429 161.878,45.3762 163,47.5C 163.177,82.3627 163.677,117.196 164.5,152C 164.257,152.902 163.923,153.735 163.5,154.5 Z"/></g>
<g><path style="opacity:1" fill="#cdcdcd" d="M 126.5,155.5 C 124.99,156.728 123.49,156.728 122,155.5C 118.922,149.009 115.588,142.675 112,136.5C 109.746,145.104 107.746,153.77 106,162.5C 105.329,163.252 104.496,163.586 103.5,163.5C 98.6446,134.044 93.9779,104.211 89.5,74C 89.4313,68.1284 92.098,64.1284 97.5,62C 104.743,60.372 109.909,62.872 113,69.5C 117.641,98.1554 122.141,126.822 126.5,155.5 Z"/></g>
<g><path style="opacity:1" fill="#cdcdcd" d="M 200.5,159.5 C 199.178,159.67 198.011,159.337 197,158.5C 195.867,150.694 194.2,143.027 192,135.5C 188.081,141.67 184.414,148.003 181,154.5C 179.51,155.728 178.01,155.728 176.5,154.5C 181.213,126.886 185.713,99.2197 190,71.5C 192.415,63.0409 197.915,59.8743 206.5,62C 211.092,64.2598 213.759,67.9264 214.5,73C 209.88,101.888 205.213,130.721 200.5,159.5 Z"/></g>
<g><path style="opacity:1" fill="#cccdcc" d="M 237.5,174.5 C 236.178,174.67 235.011,174.337 234,173.5C 233.667,166.167 233.333,158.833 233,151.5C 232.586,151.043 232.086,150.709 231.5,150.5C 226.354,154.478 221.354,158.645 216.5,163C 215.552,163.483 214.552,163.649 213.5,163.5C 220.455,144.169 227.622,124.502 235,104.5C 243.097,96.069 250.43,96.7357 257,106.5C 257.667,109.167 257.667,111.833 257,114.5C 250.586,134.576 244.086,154.576 237.5,174.5 Z"/></g>
<g><path style="opacity:1" fill="#dfe0df" d="M 163.5,154.5 C 163.334,160.509 163.501,166.509 164,172.5C 164.368,173.91 165.201,174.91 166.5,175.5C 166.833,182.667 167.167,189.833 167.5,197C 166.819,219.162 166.485,241.329 166.5,263.5C 167.5,263.5 168.5,263.5 169.5,263.5C 169.471,234.151 170.137,204.817 171.5,175.5C 172.971,174.619 173.804,173.286 174,171.5C 175.269,165.889 176.102,160.222 176.5,154.5C 178.01,155.728 179.51,155.728 181,154.5C 184.414,148.003 188.081,141.67 192,135.5C 194.2,143.027 195.867,150.694 197,158.5C 198.011,159.337 199.178,159.67 200.5,159.5C 199.882,164.33 199.215,169.163 198.5,174C 199.031,176.857 200.031,179.523 201.5,182C 198.974,209.484 196.64,236.984 194.5,264.5C 195.5,264.5 196.5,264.5 197.5,264.5C 199.556,237.83 201.722,211.164 204,184.5C 208.011,178.002 211.178,171.002 213.5,163.5C 214.552,163.649 215.552,163.483 216.5,163C 221.354,158.645 226.354,154.478 231.5,150.5C 232.086,150.709 232.586,151.043 233,151.5C 233.333,158.833 233.667,166.167 234,173.5C 235.011,174.337 236.178,174.67 237.5,174.5C 234.591,181.872 232.758,189.539 232,197.5C 233.856,222.673 229.523,246.673 219,269.5C 215.389,275.444 211.389,281.111 207,286.5C 206.355,297.223 206.855,307.89 208.5,318.5C 178.833,318.5 149.167,318.5 119.5,318.5C 120.995,309.216 121.495,299.883 121,290.5C 120.333,289.167 119.667,287.833 119,286.5C 104.414,276.582 91.7473,264.582 81,250.5C 75.5064,239.847 70.8397,228.847 67,217.5C 60.8642,198.759 54.5308,180.092 48,161.5C 46.9448,155.045 49.7782,151.711 56.5,151.5C 62.3473,152.111 67.3473,154.445 71.5,158.5C 78.8475,175.558 86.1808,192.558 93.5,209.5C 90.9744,210.876 89.3077,213.042 88.5,216C 91.9421,225.66 95.7754,235.16 100,244.5C 101.25,247.916 103.417,250.583 106.5,252.5C 109.74,250.897 111.24,248.231 111,244.5C 111.667,234.5 111.667,224.5 111,214.5C 109.615,210.687 107.115,208.021 103.5,206.5C 104.793,192.16 104.793,177.826 103.5,163.5C 104.496,163.586 105.329,163.252 106,162.5C 107.746,153.77 109.746,145.104 112,136.5C 115.588,142.675 118.922,149.009 122,155.5C 123.49,156.728 124.99,156.728 126.5,155.5C 127.664,161.813 128.83,168.147 130,174.5C 132.892,175.842 134.225,178.175 134,181.5C 135.976,208.828 137.809,236.162 139.5,263.5C 140.5,263.5 141.5,263.5 142.5,263.5C 140.784,235.48 138.784,207.48 136.5,179.5C 136.307,177.312 137.141,175.645 139,174.5C 139.5,167.842 139.666,161.175 139.5,154.5C 140.822,154.67 141.989,154.337 143,153.5C 145.275,146.674 147.942,140.007 151,133.5C 154.574,139.881 157.574,146.547 160,153.5C 161.011,154.337 162.178,154.67 163.5,154.5 Z"/></g>
<g><path style="opacity:1" fill="#fefffe" d="M 150.5,161.5 C 159.108,163.722 161.608,169.055 158,177.5C 154,182.833 150,182.833 146,177.5C 142.994,170.771 144.494,165.438 150.5,161.5 Z"/></g>
<g><path style="opacity:1" fill="#fefffe" d="M 115.5,162.5 C 122.044,162.879 125.378,166.379 125.5,173C 124.522,182.567 120.022,185.067 112,180.5C 107.943,173.372 109.109,167.372 115.5,162.5 Z"/></g>
<g><path style="opacity:1" fill="#fefffe" d="M 184.5,162.5 C 190.51,163.348 193.51,166.848 193.5,173C 193.658,178.495 191.158,181.995 186,183.5C 180.842,181.995 178.342,178.495 178.5,173C 178.37,168.172 180.37,164.672 184.5,162.5 Z"/></g>
<g><path style="opacity:1" fill="#fefffe" d="M 218.5,175.5 C 224.377,176.06 227.044,179.393 226.5,185.5C 226.886,190.408 224.886,193.741 220.5,195.5C 216.114,193.741 214.114,190.408 214.5,185.5C 214.478,181.554 215.812,178.22 218.5,175.5 Z"/></g>
<g><path style="opacity:1" fill="#cccdcc" d="M 103.5,206.5 C 107.115,208.021 109.615,210.687 111,214.5C 111.667,224.5 111.667,234.5 111,244.5C 111.24,248.231 109.74,250.897 106.5,252.5C 103.417,250.583 101.25,247.916 100,244.5C 95.7754,235.16 91.9421,225.66 88.5,216C 89.3077,213.042 90.9744,210.876 93.5,209.5C 96.0123,213.673 98.3456,218.006 100.5,222.5C 101.934,220.78 102.767,218.78 103,216.5C 103.498,213.183 103.665,209.85 103.5,206.5 Z"/></g>
<g><path style="opacity:1" fill="#fec90d" d="M 105.5,324.5 C 143.5,324.5 181.5,324.5 219.5,324.5C 219.5,325.5 219.5,326.5 219.5,327.5C 181.5,327.5 143.5,327.5 105.5,327.5C 105.5,326.5 105.5,325.5 105.5,324.5 Z"/></g>
<g><path style="opacity:1" fill="#3f47cc" d="M 109.5,330.5 C 144.833,330.5 180.167,330.5 215.5,330.5C 217.003,343.859 218.67,357.193 220.5,370.5C 218.5,370.5 216.5,370.5 214.5,370.5C 214.5,361.167 214.5,351.833 214.5,342.5C 207.167,342.5 199.833,342.5 192.5,342.5C 192.5,351.833 192.5,361.167 192.5,370.5C 186.242,370.81 180.076,370.476 174,369.5C 173.5,360.173 173.334,350.839 173.5,341.5C 166.167,341.5 158.833,341.5 151.5,341.5C 151.666,350.839 151.5,360.173 151,369.5C 144.924,370.476 138.758,370.81 132.5,370.5C 132.5,361.167 132.5,351.833 132.5,342.5C 125.167,342.5 117.833,342.5 110.5,342.5C 110.5,351.833 110.5,361.167 110.5,370.5C 108.5,370.5 106.5,370.5 104.5,370.5C 106.167,357.167 107.833,343.833 109.5,330.5 Z"/></g>
<g><path style="opacity:1" fill="#fec90d" d="M 154.5,344.5 C 159.833,344.5 165.167,344.5 170.5,344.5C 170.5,352.833 170.5,361.167 170.5,369.5C 165.167,369.5 159.833,369.5 154.5,369.5C 154.5,361.167 154.5,352.833 154.5,344.5 Z"/></g>
<g><path style="opacity:1" fill="#fec90d" d="M 113.5,345.5 C 118.833,345.5 124.167,345.5 129.5,345.5C 129.5,353.833 129.5,362.167 129.5,370.5C 124.167,370.5 118.833,370.5 113.5,370.5C 113.5,362.167 113.5,353.833 113.5,345.5 Z"/></g>
<g><path style="opacity:1" fill="#fec90d" d="M 195.5,345.5 C 200.833,345.5 206.167,345.5 211.5,345.5C 211.5,353.833 211.5,362.167 211.5,370.5C 206.167,370.5 200.833,370.5 195.5,370.5C 195.5,362.167 195.5,353.833 195.5,345.5 Z"/></g>
</svg>
