<?xml version="1.0" encoding="UTF-8"?>
<!DOCTYPE svg PUBLIC "-//W3C//DTD SVG 1.1//EN" "http://www.w3.org/Graphics/SVG/1.1/DTD/svg11.dtd">
<svg xmlns="http://www.w3.org/2000/svg" version="1.1" width="100px" height="100px" style="shape-rendering:geometricPrecision; text-rendering:geometricPrecision; image-rendering:optimizeQuality; fill-rule:evenodd; clip-rule:evenodd" xmlns:xlink="http://www.w3.org/1999/xlink">
<g><path style="opacity:1" fill="#000000" d="M 13.5,0.5 C 22.1922,0.168631 30.8589,0.501964 39.5,1.5C 31.1866,2.33174 22.8532,2.83174 14.5,3C 8.33333,4.5 4.5,8.33333 3,14.5C 2.83161,22.5207 2.33161,30.5207 1.5,38.5C 0.334926,30.1866 0.168259,21.8533 1,13.5C 2.68235,6.65291 6.84902,2.31958 13.5,0.5 Z"/></g>
<g><path style="opacity:1" fill="#000000" d="M 60.5,0.5 C 68.84,0.3336 77.1733,0.500266 85.5,1C 92.3333,2.5 96.5,6.66667 98,13.5C 98.8319,22.1858 98.6652,30.8525 97.5,39.5C 96.6683,31.1866 96.1683,22.8532 96,14.5C 94.5,8.33333 90.6667,4.5 84.5,3C 76.104,3.14002 68.104,2.30669 60.5,0.5 Z"/></g>
<g><path style="opacity:1" fill="#000000" d="M 0.5,59.5 C 2.30798,67.4398 3.14132,75.7732 3,84.5C 4.5,90.6667 8.33333,94.5 14.5,96C 22.5207,96.1684 30.5207,96.6684 38.5,97.5C 30.1866,98.6651 21.8533,98.8317 13.5,98C 6.66667,96.5 2.5,92.3333 1,85.5C 0.500246,76.8397 0.33358,68.1731 0.5,59.5 Z"/></g>
<g><path style="opacity:1" fill="#000000" d="M 96.5,60.5 C 97.8248,64.2762 98.4915,68.4428 98.5,73C 100.93,85.1428 96.5964,93.4762 85.5,98C 76.8142,98.8319 68.1475,98.6652 59.5,97.5C 67.8134,96.6683 76.1468,96.1683 84.5,96C 90.6667,94.5 94.5,90.6667 96,84.5C 96.4997,76.5069 96.6664,68.5069 96.5,60.5 Z"/></g>
</svg>
