<?xml version="1.0" encoding="UTF-8"?>
<!DOCTYPE svg PUBLIC "-//W3C//DTD SVG 1.1//EN" "http://www.w3.org/Graphics/SVG/1.1/DTD/svg11.dtd">
<svg xmlns="http://www.w3.org/2000/svg" version="1.1" width="640px" height="414px" style="shape-rendering:geometricPrecision; text-rendering:geometricPrecision; image-rendering:optimizeQuality; fill-rule:evenodd; clip-rule:evenodd" xmlns:xlink="http://www.w3.org/1999/xlink">
<g><path style="opacity:1" fill="#000000" d="M 520.5,28.5 C 525.099,28.2 529.599,28.5333 534,29.5C 534.166,45.1911 533.499,60.8578 532,76.5C 488.167,116.333 444.333,156.167 400.5,196C 398.5,196.667 396.5,196.667 394.5,196C 389.99,193.484 385.49,190.984 381,188.5C 379.739,188.759 378.739,189.426 378,190.5C 355.88,222.627 334.546,255.293 314,288.5C 309.417,297.25 305.417,306.25 302,315.5C 297.59,333.146 292.257,350.479 286,367.5C 283.736,370.433 280.902,372.6 277.5,374C 272.155,375.669 266.822,377.335 261.5,379C 259.332,384.003 257.666,389.17 256.5,394.5C 247.161,394.334 237.827,394.5 228.5,395C 226.122,395.511 223.788,396.178 221.5,397C 209.269,397.183 197.102,398.016 185,399.5C 166.975,398.109 148.975,396.442 131,394.5C 125.19,395.372 119.356,396.039 113.5,396.5C 96.8869,394.247 80.2202,392.58 63.5,391.5C 63.3379,389.473 63.5045,387.473 64,385.5C 83.4583,365.027 104.958,347.194 128.5,332C 139.5,325.167 150.5,318.333 161.5,311.5C 178.648,313.016 194.648,309.516 209.5,301C 225.407,289.763 240.74,277.763 255.5,265C 290.968,232.534 326.135,199.7 361,166.5C 360.968,164.402 360.301,162.402 359,160.5C 358.333,158.167 358.333,155.833 359,153.5C 399.833,113.5 440.333,73.167 480.5,32.5C 493.938,30.8319 507.271,29.4986 520.5,28.5 Z"/></g>
<g><path style="opacity:1" fill="#3b3c3b" d="M 528.5,49.5 C 526.441,52.6106 524.608,55.9439 523,59.5C 520.886,62.1208 518.386,64.1208 515.5,65.5C 504,57.4996 494.333,47.6663 486.5,36C 501.128,34.419 515.794,33.2523 530.5,32.5C 530.688,38.2859 530.022,43.9525 528.5,49.5 Z"/></g>
<g><path style="opacity:1" fill="#3b503b" d="M 512.5,67.5 C 510.78,70.7311 508.447,73.5644 505.5,76C 496.604,84.4019 487.604,92.5685 478.5,100.5C 469.963,97.8163 463.13,92.8163 458,85.5C 454.915,80.9998 452.082,76.3331 449.5,71.5C 460.819,59.6807 472.319,48.014 484,36.5C 492.34,48.002 501.84,58.3354 512.5,67.5 Z"/></g>
<g><path style="opacity:1" fill="#1b1b1b" d="M 528.5,49.5 C 529.668,57.0628 529.334,64.7294 527.5,72.5C 523.437,70.1401 519.437,67.8067 515.5,65.5C 518.386,64.1208 520.886,62.1208 523,59.5C 524.608,55.9439 526.441,52.6106 528.5,49.5 Z"/></g>
<g><path style="opacity:1" fill="#283c3b" d="M 512.5,67.5 C 517.547,69.1915 522.213,71.6915 526.5,75C 514.367,85.4647 502.534,96.298 491,107.5C 486.918,104.875 482.752,102.542 478.5,100.5C 487.604,92.5685 496.604,84.4019 505.5,76C 508.447,73.5644 510.78,70.7311 512.5,67.5 Z"/></g>
<g><path style="opacity:1" fill="#3b3c3b" d="M 474.5,103.5 C 461.807,115.861 449.14,128.194 436.5,140.5C 427.963,137.816 421.13,132.816 416,125.5C 413.042,121.084 410.208,116.584 407.5,112C 420.985,99.3487 434.318,86.5153 447.5,73.5C 452.316,81.6276 457.983,89.1276 464.5,96C 468.007,98.254 471.673,100.254 475.5,102C 474.944,102.383 474.611,102.883 474.5,103.5 Z"/></g>
<g><path style="opacity:1" fill="#1c1c1c" d="M 436.5,140.5 C 449.14,128.194 461.807,115.861 474.5,103.5C 475.496,103.586 476.329,103.252 477,102.5C 480.896,104.408 484.729,106.408 488.5,108.5C 475.137,121.273 461.637,133.94 448,146.5C 444.035,144.58 440.202,142.58 436.5,140.5 Z"/></g>
<g><path style="opacity:1" fill="#3b503b" d="M 434.5,142.5 C 420.185,158.146 404.852,172.813 388.5,186.5C 382.337,183.517 376.837,179.517 372,174.5C 368.721,168.778 365.554,162.945 362.5,157C 377,142.5 391.5,128 406,113.5C 411.659,126.992 421.159,136.658 434.5,142.5 Z"/></g>
<g><path style="opacity:1" fill="#283c3b" d="M 434.5,142.5 C 438.216,144.238 441.882,146.072 445.5,148C 429.833,162.333 414.167,176.667 398.5,191C 394.566,190.867 391.233,189.367 388.5,186.5C 404.852,172.813 420.185,158.146 434.5,142.5 Z"/></g>
<g><path style="opacity:1" fill="#fec90d" d="M 361.5,177.5 C 362.97,174.682 363.97,171.682 364.5,168.5C 364.435,168.062 364.601,167.728 365,167.5C 366.084,168.665 366.917,169.998 367.5,171.5C 365.812,173.854 363.812,175.854 361.5,177.5 Z"/></g>
<g><path style="opacity:1" fill="#fe803f" d="M 364.5,168.5 C 363.97,171.682 362.97,174.682 361.5,177.5C 361.5,178.167 361.167,178.5 360.5,178.5C 359.549,177.081 359.216,175.415 359.5,173.5C 360.833,171.5 362.5,169.833 364.5,168.5 Z"/></g>
<g><path style="opacity:0.999" fill="#dadada" d="M 359.5,173.5 C 359.216,175.415 359.549,177.081 360.5,178.5C 290.868,248.632 221.035,318.632 151,388.5C 150.293,390.081 149.46,391.581 148.5,393C 142.825,393.47 137.159,393.303 131.5,392.5C 125.644,392.961 119.81,393.628 114,394.5C 98.218,392.228 82.3847,390.395 66.5,389C 79.5453,374.954 93.5453,361.954 108.5,350C 126.827,337.501 145.494,325.501 164.5,314C 181.327,315.902 196.994,312.569 211.5,304C 231.034,290.139 249.7,275.139 267.5,259C 298.036,230.295 328.703,201.795 359.5,173.5 Z"/></g>
<g><path style="opacity:0.999" fill="#b87956" d="M 368.5,173.5 C 369.764,175.27 371.264,176.937 373,178.5C 373.667,179.167 373.667,179.833 373,180.5C 303.306,249.861 233.972,319.527 165,389.5C 163.441,391.217 162.608,393.217 162.5,395.5C 158.51,395.001 154.51,394.501 150.5,394C 152.041,392.421 153.208,390.587 154,388.5C 225.701,316.965 297.201,245.299 368.5,173.5 Z"/></g>
<g><path style="opacity:1" fill="#fec90d" d="M 377.5,185.5 C 375.323,185.586 373.323,186.253 371.5,187.5C 370.893,187.376 370.56,187.043 370.5,186.5C 371.692,184.122 373.359,182.122 375.5,180.5C 378.193,181.532 378.86,183.198 377.5,185.5 Z"/></g>
<g><path style="opacity:1" fill="#fe803f" d="M 377.5,185.5 C 376.833,186.833 375.833,187.833 374.5,188.5C 372.39,191.002 370.39,191.002 368.5,188.5C 368.833,187.5 369.5,186.833 370.5,186.5C 370.56,187.043 370.893,187.376 371.5,187.5C 373.323,186.253 375.323,185.586 377.5,185.5 Z"/></g>
<g><path style="opacity:0.999" fill="#dadada" d="M 368.5,188.5 C 370.39,191.002 372.39,191.002 374.5,188.5C 352.795,220.727 331.628,253.394 311,286.5C 306.417,295.25 302.417,304.25 299,313.5C 294.59,331.146 289.257,348.479 283,365.5C 281.062,368.106 278.562,369.939 275.5,371C 269.759,372.684 264.092,374.517 258.5,376.5C 256.133,381.595 254.8,386.929 254.5,392.5C 247.241,392.319 239.908,391.985 232.5,391.5C 228.134,392.508 223.8,393.675 219.5,395C 208.095,395.114 196.762,395.947 185.5,397.5C 178.46,396.996 171.46,396.162 164.5,395C 231.283,325.05 299.283,256.217 368.5,188.5 Z"/></g>
</svg>
