<?xml version="1.0" encoding="UTF-8"?>
<!DOCTYPE svg PUBLIC "-//W3C//DTD SVG 1.1//EN" "http://www.w3.org/Graphics/SVG/1.1/DTD/svg11.dtd">
<svg xmlns="http://www.w3.org/2000/svg" version="1.1" width="512px" height="512px" style="shape-rendering:geometricPrecision; text-rendering:geometricPrecision; image-rendering:optimizeQuality; fill-rule:evenodd; clip-rule:evenodd" xmlns:xlink="http://www.w3.org/1999/xlink">
<g><path style="opacity:0.986" fill="#010000" d="M 511.5,133.5 C 511.5,134.5 511.5,135.5 511.5,136.5C 480.998,147.168 450.665,158.334 420.5,170C 407.167,183.333 393.833,196.667 380.5,210C 317.38,239.06 254.38,268.393 191.5,298C 180.287,347.582 149.954,367.416 100.5,357.5C 97.3932,361.711 95.3932,366.378 94.5,371.5C 96.2856,383.284 97.6189,395.118 98.5,407C 99.4365,424.06 91.4365,432.726 74.5,433C 59.0201,435.459 43.6868,434.793 28.5,431C 12.5924,425.6 2.92575,414.766 -0.5,398.5C -0.5,391.833 -0.5,385.167 -0.5,378.5C 4.12976,357.878 11.6298,338.212 22,319.5C 38.7089,290.468 57.3755,262.801 78,236.5C 84.6437,224.57 89.3104,211.903 92,198.5C 93.4244,189.424 95.091,180.424 97,171.5C 102.633,165.221 108.633,164.888 115,170.5C 116.131,172.725 116.964,175.058 117.5,177.5C 116.541,183.135 115.874,188.801 115.5,194.5C 127.927,194.714 137.927,199.714 145.5,209.5C 194.272,188.781 243.272,168.614 292.5,149C 358.205,124.932 423.872,100.765 489.5,76.5C 496.859,95.5896 504.192,114.59 511.5,133.5 Z M 162.5,310.5 C 163.239,310.369 163.906,310.536 164.5,311C 154.307,333.598 137.307,341.931 113.5,336C 118.376,331.393 124.043,328.059 130.5,326C 132.96,325.937 135.46,326.104 138,326.5C 144.216,326.288 148.05,323.122 149.5,317C 154.173,315.33 158.507,313.163 162.5,310.5 Z"/></g>
<g><path style="opacity:1" fill="#a6adb8" d="M 474.5,104.5 C 476.124,104.36 477.29,105.027 478,106.5C 479.667,110.833 481.333,115.167 483,119.5C 483.781,120.944 483.614,122.277 482.5,123.5C 462.089,130.97 441.756,138.637 421.5,146.5C 418.123,140.71 415.123,134.71 412.5,128.5C 433.335,120.671 454.002,112.671 474.5,104.5 Z"/></g>
<g><path style="opacity:1" fill="#945252" d="M 389.5,135.5 C 391.911,135.137 393.411,136.137 394,138.5C 396.333,143.833 398.667,149.167 401,154.5C 401.667,156.167 401.667,157.833 401,159.5C 389.196,170.303 377.696,181.47 366.5,193C 318.173,215.335 269.84,237.335 221.5,259C 226.249,250.754 229.416,241.921 231,232.5C 232.45,220.448 232.95,208.448 232.5,196.5C 284.539,175.158 336.872,154.825 389.5,135.5 Z"/></g>
<g><path style="opacity:1" fill="#b7bcc3" d="M 110.5,215.5 C 115.324,214.971 119.657,216.138 123.5,219C 117.792,221.944 112.126,224.111 106.5,225.5C 107.645,222.058 108.979,218.725 110.5,215.5 Z"/></g>
<g><path style="opacity:1" fill="#c8cdd5" d="M 208.5,205.5 C 209.5,205.5 210.5,205.5 211.5,205.5C 212.835,229.477 205.668,250.477 190,268.5C 186.167,272.333 182.333,276.167 178.5,280C 155.536,290.598 132.536,301.098 109.5,311.5C 89.826,306.825 81.6593,294.491 85,274.5C 86.1334,268.6 87.9667,262.933 90.5,257.5C 129.658,239.584 168.991,222.25 208.5,205.5 Z"/></g>
<g><path style="opacity:1" fill="#935151" d="M 62.5,293.5 C 63.4972,293.47 64.1639,293.97 64.5,295C 68.3408,310.667 77.6741,321.5 92.5,327.5C 85.41,340.172 78.41,353.005 71.5,366C 74.852,380.983 76.5187,396.15 76.5,411.5C 23.6932,420.877 8.19323,401.21 30,352.5C 39.8282,332.168 50.6615,312.502 62.5,293.5 Z"/></g>
</svg>
