<?xml version="1.0" encoding="UTF-8"?>
<!DOCTYPE svg PUBLIC "-//W3C//DTD SVG 1.1//EN" "http://www.w3.org/Graphics/SVG/1.1/DTD/svg11.dtd">
<svg xmlns="http://www.w3.org/2000/svg" version="1.1" width="1800px" height="466px" style="shape-rendering:geometricPrecision; text-rendering:geometricPrecision; image-rendering:optimizeQuality; fill-rule:evenodd; clip-rule:evenodd" xmlns:xlink="http://www.w3.org/1999/xlink">
<g><path style="opacity:1" fill="#000000" d="M 536.5,54.5 C 544.287,55.3775 547.12,59.7108 545,67.5C 544.308,68.0253 543.808,68.6919 543.5,69.5C 545.898,73.1286 547.898,76.9619 549.5,81C 554.5,81.3333 559.5,81.6667 564.5,82C 566.98,83.4817 569.147,85.315 571,87.5C 575.424,85.4797 578.258,86.8131 579.5,91.5C 578.132,94.7844 575.632,96.7844 572,97.5C 571.205,99.9012 570.038,102.068 568.5,104C 562.697,106.451 556.697,108.284 550.5,109.5C 549.551,112.126 549.551,114.792 550.5,117.5C 558.131,116.436 565.798,116.269 573.5,117C 577.443,119.958 581.61,122.458 586,124.5C 595.788,122.981 605.621,122.481 615.5,123C 616,123.5 616.5,124 617,124.5C 614.073,108.951 610.573,93.451 606.5,78C 607.34,73.3059 609.673,69.6392 613.5,67C 614.793,66.51 616.127,66.3433 617.5,66.5C 617.804,72.9884 618.97,79.3218 621,85.5C 625.27,93.4301 629.936,101.097 635,108.5C 635.219,112.853 634.385,117.019 632.5,121C 633.38,122.356 633.714,123.856 633.5,125.5C 636.84,126.607 640.173,126.273 643.5,124.5C 647.434,127.66 650.767,127.16 653.5,123C 659.187,120.963 661.854,122.796 661.5,128.5C 664.85,128.665 668.183,128.498 671.5,128C 670.38,124.341 667.88,122.175 664,121.5C 662.859,118.143 664.025,116.143 667.5,115.5C 674.391,116.724 678.724,120.724 680.5,127.5C 795.831,128.5 911.165,128.833 1026.5,128.5C 1026.23,126.549 1026.89,125.049 1028.5,124C 1038.1,122.283 1047.77,121.616 1057.5,122C 1058.42,124.041 1058.76,126.208 1058.5,128.5C 1292.5,128.167 1526.5,128.5 1760.5,129.5C 1767.04,140.122 1767.04,150.789 1760.5,161.5C 1705.5,162.333 1650.5,162.833 1595.5,163C 1592.5,165.333 1589.5,167.667 1586.5,170C 1586.83,170.167 1587.17,170.333 1587.5,170.5C 1589.79,169.078 1592.29,168.411 1595,168.5C 1603.68,168.776 1612.34,169.109 1621,169.5C 1635.51,162.339 1640.84,166.673 1637,182.5C 1636.7,187.309 1634.2,189.309 1629.5,188.5C 1625.39,188.692 1621.89,187.359 1619,184.5C 1615.5,186.733 1612,186.9 1608.5,185C 1598.66,184.862 1589,184.029 1579.5,182.5C 1576.83,182.667 1574.17,182.833 1571.5,183C 1546.59,192.539 1520.92,195.206 1494.5,191C 1493.09,190.632 1492.09,189.799 1491.5,188.5C 1470.33,188.167 1449.17,187.833 1428,187.5C 1307.16,189.176 1186.33,190.842 1065.5,192.5C 1065.76,193.978 1065.43,195.311 1064.5,196.5C 1062.22,197.213 1059.89,197.713 1057.5,198C 1047.84,198.5 1038.17,198.666 1028.5,198.5C 1028.5,197.167 1028.5,195.833 1028.5,194.5C 919.177,196.854 809.844,198.521 700.5,199.5C 700.099,203.07 698.099,205.236 694.5,206C 667.189,207.928 639.855,209.428 612.5,210.5C 610.592,217.991 609.092,225.657 608,233.5C 605.715,241.451 600.881,247.285 593.5,251C 587.5,254.333 581.5,257.667 575.5,261C 562.656,262.058 549.989,261.058 537.5,258C 530.618,254.448 524.284,250.115 518.5,245C 515.475,244.867 512.808,243.867 510.5,242C 504.098,234.927 497.098,228.594 489.5,223C 485.399,220.099 481.065,219.766 476.5,222C 461.247,228.529 445.914,234.862 430.5,241C 425.65,242.732 420.65,243.732 415.5,244C 398.833,257.333 382.167,270.667 365.5,284C 345.77,299.185 323.437,305.185 298.5,302C 281.107,307.432 263.44,311.765 245.5,315C 189.755,336.137 134.088,357.47 78.5,379C 70.9984,381.946 63.6651,385.279 56.5,389C 55.5,390 54.5,391 53.5,392C 45.1422,393.799 36.8089,393.799 28.5,392C 27.8742,391.25 27.3742,390.416 27,389.5C 25.8989,383.411 25.3989,377.245 25.5,371C 26.1151,351.646 27.1151,332.313 28.5,313C 24.184,290.104 20.5173,267.104 17.5,244C 16.4396,234.763 20.4396,229.43 29.5,228C 53.5389,222.782 77.7056,218.282 102,214.5C 104.583,214.929 107.083,215.596 109.5,216.5C 151.396,207.554 193.396,199.054 235.5,191C 251.728,187.92 268.061,185.586 284.5,184C 311.847,181.253 337.513,186.587 361.5,200C 368.78,201.035 375.78,200.035 382.5,197C 398.153,189.175 413.486,180.842 428.5,172C 463.325,154.391 499.659,140.724 537.5,131C 530.255,127.016 526.755,120.849 527,112.5C 524.288,109.91 522.788,106.743 522.5,103C 523.036,98.8557 524.036,94.8557 525.5,91C 520.799,86.7586 517.799,81.5919 516.5,75.5C 516.326,73.3066 516.993,71.4733 518.5,70C 521.158,69.9271 523.824,70.2604 526.5,71C 527.282,73.7405 527.782,76.5738 528,79.5C 529.171,81.6157 530.671,82.2824 532.5,81.5C 533.593,77.8922 533.76,74.2255 533,70.5C 527.657,63.5104 528.824,58.1771 536.5,54.5 Z M 542.5,112.5 C 543.573,113.251 543.74,114.251 543,115.5C 541.272,114.648 541.105,113.648 542.5,112.5 Z M 566.5,201.5 C 567.5,201.5 568.5,201.5 569.5,201.5C 569.104,204.044 569.771,206.211 571.5,208C 575.795,208.912 580.128,209.579 584.5,210C 592.713,213.928 595.547,220.428 593,229.5C 586.481,242.002 576.148,249.002 562,250.5C 553.722,250.399 545.889,248.566 538.5,245C 533.954,240.123 529.787,234.956 526,229.5C 525.063,224.597 525.73,219.93 528,215.5C 531.619,211.885 535.786,209.051 540.5,207C 541.337,205.989 541.67,204.822 541.5,203.5C 544.596,202.907 546.929,203.907 548.5,206.5C 546.088,214.771 545.588,223.104 547,231.5C 548.986,235.165 551.653,238.165 555,240.5C 555.772,240.355 556.439,240.022 557,239.5C 554.989,226.964 556.656,214.964 562,203.5C 563.622,202.901 565.122,202.234 566.5,201.5 Z"/></g>
<g><path style="opacity:1" fill="#909190" d="M 534.5,58.5 C 542.715,58.7648 544.382,62.2648 539.5,69C 542.226,73.6193 544.559,78.4526 546.5,83.5C 551.802,84.3295 557.136,84.8295 562.5,85C 563.672,85.4186 564.672,86.0853 565.5,87C 553.389,90.1343 541.056,91.6343 528.5,91.5C 526.36,86.5011 523.526,81.8344 520,77.5C 519.51,76.2068 519.343,74.8734 519.5,73.5C 521.167,73.5 522.833,73.5 524.5,73.5C 523.345,78.8552 525.012,83.0219 529.5,86C 531.701,86.8249 533.534,86.3249 535,84.5C 537.658,76.9732 536.824,69.9732 532.5,63.5C 533.456,61.9246 534.123,60.258 534.5,58.5 Z"/></g>
<g><path style="opacity:1" fill="#909190" d="M 613.5,70.5 C 614.991,76.039 616.491,81.7057 618,87.5C 622.437,95.598 627.27,103.431 632.5,111C 629.552,116.574 628.885,122.408 630.5,128.5C 636.666,129.031 642.833,129.364 649,129.5C 652.274,128.386 655.44,127.053 658.5,125.5C 657.623,134.985 661.957,138.485 671.5,136C 675.955,130.06 675.289,124.727 669.5,120C 671.417,120.027 673.084,120.861 674.5,122.5C 678.256,127.993 678.922,133.659 676.5,139.5C 677.01,146.353 680.01,151.853 685.5,156C 692.923,159.086 700.59,161.419 708.5,163C 713.87,169.205 713.537,175.205 707.5,181C 686.128,183.213 664.795,182.88 643.5,180C 618.164,179.793 592.831,179.793 567.5,180C 574.5,178.342 580.666,175.175 586,170.5C 588.258,166.469 589.425,162.135 589.5,157.5C 588.905,151.482 588.239,145.482 587.5,139.5C 594.54,140.938 601.54,140.771 608.5,139C 609.435,136.619 609.768,134.119 609.5,131.5C 613.131,132.412 616.797,132.579 620.5,132C 621.097,130.938 621.43,129.772 621.5,128.5C 618.358,111.435 614.358,94.6014 609.5,78C 610.973,75.5524 612.307,73.0524 613.5,70.5 Z"/></g>
<g><path style="opacity:1" fill="#191a19" d="M 564.5,89.5 C 568.2,89.9215 571.867,90.5881 575.5,91.5C 573.547,92.7607 571.547,93.9274 569.5,95C 559.248,96.9019 549.081,99.0685 539,101.5C 537.303,99.301 535.803,96.9676 534.5,94.5C 544.696,93.1894 554.696,91.5228 564.5,89.5 Z"/></g>
<g><path style="opacity:1" fill="#909190" d="M 527.5,93.5 C 528.873,93.3433 530.207,93.51 531.5,94C 532.916,96.8349 534.583,99.5015 536.5,102C 533.333,103.833 530.833,106.333 529,109.5C 527.445,107.557 526.278,105.39 525.5,103C 526.566,99.9063 527.232,96.7396 527.5,93.5 Z"/></g>
<g><path style="opacity:1" fill="#909190" d="M 560.5,98.5 C 562.924,98.1924 565.257,98.5258 567.5,99.5C 567.291,100.086 566.957,100.586 566.5,101C 557.699,103.626 549.033,106.626 540.5,110C 537.662,114.153 538.328,117.82 542.5,121C 543.5,121.167 544.5,121.333 545.5,121.5C 554.1,119.754 562.767,119.254 571.5,120C 575.304,122.305 578.97,124.805 582.5,127.5C 585.093,137.315 586.76,147.315 587.5,157.5C 587.43,162.627 585.763,167.127 582.5,171C 575.073,175.143 567.239,178.31 559,180.5C 550.273,175.71 546.273,168.377 547,158.5C 549.463,155.035 552.296,151.869 555.5,149C 565.079,150.74 569.579,146.907 569,137.5C 568.065,134.898 566.232,133.398 563.5,133C 551.276,135.204 541.11,131.704 533,122.5C 528.696,115.308 529.863,109.308 536.5,104.5C 544.525,102.101 552.525,100.101 560.5,98.5 Z"/></g>
<g><path style="opacity:1" fill="#909190" d="M 546.5,110.5 C 547.283,112.343 547.95,114.343 548.5,116.5C 547.758,117.287 546.925,117.953 546,118.5C 545.278,115.739 545.445,113.073 546.5,110.5 Z"/></g>
<g><path style="opacity:1" fill="#baac54" d="M 1047.5,124.5 C 1050.17,124.5 1052.83,124.5 1055.5,124.5C 1058.59,133.386 1058.09,142.053 1054,150.5C 1051.12,165.465 1053.95,179.132 1062.5,191.5C 1062.39,192.442 1062.06,193.275 1061.5,194C 1051.55,195.498 1041.55,195.831 1031.5,195C 1042.29,174.308 1041.29,154.141 1028.5,134.5C 1029.12,131.961 1029.78,129.461 1030.5,127C 1036.3,126.109 1041.97,125.275 1047.5,124.5 Z"/></g>
<g><path style="opacity:1" fill="#909190" d="M 602.5,125.5 C 606.182,125.335 609.848,125.501 613.5,126C 615.421,127.241 615.754,128.741 614.5,130.5C 612.253,129.626 609.92,129.292 607.5,129.5C 607.5,132.167 607.5,134.833 607.5,137.5C 600.813,138.832 594.146,138.666 587.5,137C 586.568,133.915 585.901,130.748 585.5,127.5C 591.339,127.102 597.006,126.435 602.5,125.5 Z"/></g>
<g><path style="opacity:1" fill="#909190" d="M 662.5,132.5 C 664.966,131.366 667.633,131.199 670.5,132C 669.737,132.944 668.737,133.444 667.5,133.5C 665.865,132.954 664.199,132.62 662.5,132.5 Z"/></g>
<g><path style="opacity:1" fill="#909190" d="M 680.5,131.5 C 796.167,131.333 911.834,131.5 1027.5,132C 1026.39,135.826 1027.39,139.159 1030.5,142C 913.167,141.818 795.834,141.318 678.5,140.5C 678.756,137.402 679.422,134.402 680.5,131.5 Z"/></g>
<g><path style="opacity:1" fill="#909190" d="M 1059.5,131.5 C 1292.17,131.333 1524.83,131.5 1757.5,132C 1763.96,140.949 1763.96,149.949 1757.5,159C 1703.5,159.5 1649.5,159.667 1595.5,159.5C 1594.35,154.851 1591.35,152.018 1586.5,151C 1573.97,148.48 1561.3,147.147 1548.5,147C 1385.51,144.535 1222.51,143.035 1059.5,142.5C 1059.5,138.833 1059.5,135.167 1059.5,131.5 Z"/></g>
<g><path style="opacity:1" fill="#7f403f" d="M 542.5,132.5 C 543.473,132.987 544.473,133.487 545.5,134C 552.246,134.121 558.913,134.788 565.5,136C 566.861,137.584 567.528,139.418 567.5,141.5C 555.697,142.451 544.364,145.284 533.5,150C 530.833,152.667 528.167,155.333 525.5,158C 522.833,158.667 520.167,159.333 517.5,160C 512.248,164.746 507.582,169.913 503.5,175.5C 504.318,178.295 505.985,180.462 508.5,182C 513.122,183.065 517.789,183.899 522.5,184.5C 555.301,182.816 588.135,181.816 621,181.5C 639.688,182.035 658.354,183.035 677,184.5C 687.498,183.955 697.998,183.455 708.5,183C 715.247,176.784 716.08,169.95 711,162.5C 702.901,159.671 694.735,156.838 686.5,154C 682.494,151.149 680.16,147.315 679.5,142.5C 796.84,142.833 914.173,143.833 1031.5,145.5C 1034.77,152.823 1036.77,160.489 1037.5,168.5C 1035.9,176.292 1033.9,183.959 1031.5,191.5C 872.963,194.469 714.463,197.135 556,199.5C 530.029,201.58 504.196,204.747 478.5,209C 469.09,210.803 460.09,213.803 451.5,218C 442.167,223.333 432.833,228.667 423.5,234C 403.213,249.285 383.213,264.952 363.5,281C 343.77,296.185 321.437,302.185 296.5,299C 279.107,304.432 261.44,308.765 243.5,312C 177.284,337.27 111.617,362.604 46.5,388C 45.2986,387.097 44.4652,385.931 44,384.5C 41.5868,376.687 40.2534,368.687 40,360.5C 38.0671,321.184 37.0671,281.851 37,242.5C 37.7065,240.919 38.5399,239.419 39.5,238C 44.2609,235.413 49.2609,233.413 54.5,232C 76.1882,225.744 98.1882,221.077 120.5,218C 172.097,205.947 224.097,195.947 276.5,188C 295.828,185.041 314.828,186.374 333.5,192C 342.398,195.115 351.064,198.782 359.5,203C 368.107,204.204 376.441,203.204 384.5,200C 400.153,192.175 415.486,183.842 430.5,175C 466.539,157.136 503.872,142.969 542.5,132.5 Z"/></g>
<g><path style="opacity:1" fill="#909190" d="M 561.5,143.5 C 563.199,143.34 564.866,143.506 566.5,144C 565.833,144.667 565.167,145.333 564.5,146C 561.167,146.333 557.833,146.667 554.5,147C 541.653,157.485 541.32,168.485 553.5,180C 543.152,180.775 532.819,181.608 522.5,182.5C 518.14,181.806 513.806,180.972 509.5,180C 507.362,178.578 506.195,176.745 506,174.5C 510.167,170.333 514.333,166.167 518.5,162C 521.167,161.333 523.833,160.667 526.5,160C 529.167,157.333 531.833,154.667 534.5,152C 543.366,148.374 552.366,145.54 561.5,143.5 Z"/></g>
<g><path style="opacity:1" fill="#7f403f" d="M 1058.5,144.5 C 1221.17,145.197 1383.84,146.53 1546.5,148.5C 1546.33,156.517 1545.83,164.517 1545,172.5C 1544.2,178.505 1540.7,181.672 1534.5,182C 1522.38,183.608 1510.21,184.775 1498,185.5C 1452.84,184.356 1407.68,184.19 1362.5,185C 1263.16,186.721 1163.83,188.055 1064.5,189C 1055.97,177.9 1053.14,165.4 1056,151.5C 1057.14,149.257 1057.97,146.924 1058.5,144.5 Z"/></g>
<g><path style="opacity:1" fill="#baac54" d="M 1548.5,149.5 C 1562.06,149.09 1575.4,150.59 1588.5,154C 1591.7,155.172 1593.2,157.339 1593,160.5C 1589.27,163.952 1585.1,166.785 1580.5,169C 1578.58,173.256 1575.58,176.589 1571.5,179C 1547.42,189.443 1522.42,192.443 1496.5,188C 1507.48,186.823 1518.48,185.823 1529.5,185C 1534.45,184.597 1539.11,183.264 1543.5,181C 1545.6,178.958 1546.77,176.458 1547,173.5C 1547.83,165.517 1548.33,157.517 1548.5,149.5 Z"/></g>
<g><path style="opacity:1" fill="#000000" d="M 558.5,154.5 C 569.817,154.813 573.317,160.146 569,170.5C 562.297,175.105 556.63,174.105 552,167.5C 550.881,161.469 553.048,157.136 558.5,154.5 Z"/></g>
<g><path style="opacity:1" fill="#909190" d="M 559.5,157.5 C 564.693,156.285 568.026,158.451 569.5,164C 568.888,166.058 567.888,167.891 566.5,169.5C 564.14,165.437 561.807,161.437 559.5,157.5 Z"/></g>
<g><path style="opacity:1" fill="#909190" d="M 555.5,158.5 C 556.675,158.281 557.675,158.614 558.5,159.5C 560.738,163.303 562.404,167.303 563.5,171.5C 554.853,170.562 552.186,166.229 555.5,158.5 Z"/></g>
<g><path style="opacity:1" fill="#909190" d="M 1626.5,169.5 C 1631.69,168.121 1634.69,169.954 1635.5,175C 1634.73,178.243 1633.73,181.41 1632.5,184.5C 1628.26,186.207 1624.76,185.207 1622,181.5C 1621.78,178.574 1621.28,175.74 1620.5,173C 1623.26,172.994 1625.26,171.828 1626.5,169.5 Z"/></g>
<g><path style="opacity:1" fill="#7f403f" d="M 1590.5,171.5 C 1593.04,174.613 1592.88,177.613 1590,180.5C 1584.92,179.693 1579.75,179.193 1574.5,179C 1576.79,177.71 1578.79,176.043 1580.5,174C 1583.5,173.667 1586.5,173.333 1589.5,173C 1590.06,172.617 1590.39,172.117 1590.5,171.5 Z"/></g>
<g><path style="opacity:1" fill="#909190" d="M 1593.5,171.5 C 1598.81,172.109 1604.15,172.609 1609.5,173C 1610.6,175.401 1610.77,177.901 1610,180.5C 1604.25,181.641 1598.42,181.807 1592.5,181C 1594.81,178.061 1595.15,174.895 1593.5,171.5 Z"/></g>
<g><path style="opacity:1" fill="#909190" d="M 1611.5,172.5 C 1616.5,170.139 1619.17,171.806 1619.5,177.5C 1619.43,178.772 1619.1,179.938 1618.5,181C 1616.39,181.557 1614.39,182.391 1612.5,183.5C 1612.68,179.817 1612.35,176.15 1611.5,172.5 Z"/></g>
<g><path style="opacity:1" fill="#baac54" d="M 671.5,199.5 C 680.173,199.334 688.84,199.5 697.5,200C 696.284,201.74 694.618,202.74 692.5,203C 665.171,204.762 637.837,206.428 610.5,208C 609.853,209.609 609.02,211.109 608,212.5C 607.186,218.864 606.186,225.197 605,231.5C 602.978,239.052 598.478,244.552 591.5,248C 585.5,251.333 579.5,254.667 573.5,258C 553.048,261.324 535.381,255.991 520.5,242C 517.475,241.867 514.808,240.867 512.5,239C 505.337,230.495 497.004,223.495 487.5,218C 483.112,217.423 478.779,217.756 474.5,219C 461.833,224.333 449.167,229.667 436.5,235C 430.712,237.711 424.712,239.378 418.5,240C 433.819,229.506 450.152,220.84 467.5,214C 490.858,208.289 514.525,204.956 538.5,204C 525.149,208.533 519.983,217.7 523,231.5C 527.5,240 534,246.5 542.5,251C 557.34,255.744 571.34,254.077 584.5,246C 588.714,241.454 592.547,236.621 596,231.5C 597.098,224.615 596.431,217.949 594,211.5C 587.897,207.286 581.064,205.119 573.5,205C 572.542,203.853 572.875,202.853 574.5,202C 606.996,201.176 639.33,200.343 671.5,199.5 Z"/></g>
<g><path style="opacity:1" fill="#baac54" d="M 553.5,201.5 C 555.288,201.215 556.955,201.548 558.5,202.5C 556.503,206.657 555.003,210.99 554,215.5C 553.598,222.34 553.431,229.007 553.5,235.5C 550.163,231.816 548.83,227.483 549.5,222.5C 549.731,217.114 550.398,211.78 551.5,206.5C 551.43,205.228 551.097,204.062 550.5,203C 551.737,202.768 552.737,202.268 553.5,201.5 Z"/></g>
<g><path style="opacity:1" fill="#baac54" d="M 93.5,219.5 C 77.1565,223.506 60.8232,228.006 44.5,233C 39.7548,234.115 36.5881,236.948 35,241.5C 35.0338,281.518 36.0338,321.518 38,361.5C 38.3669,367.204 39.0336,372.87 40,378.5C 40.5362,382.451 42.0362,385.951 44.5,389C 39.8443,390.952 35.1777,390.785 30.5,388.5C 29.9017,387.205 29.4017,385.872 29,384.5C 28.8333,380 28.6667,375.5 28.5,371C 29.6855,349.165 30.5189,327.332 31,305.5C 27.1267,286.594 23.7934,267.594 21,248.5C 18.6166,238.884 22.1166,233.051 31.5,231C 52.0818,226.583 72.7485,222.75 93.5,219.5 Z"/></g>
<g><path style="opacity:1" fill="#000000" d="M 1384.5,271.5 C 1386.46,271.948 1386.8,272.948 1385.5,274.5C 1384.61,273.675 1384.28,272.675 1384.5,271.5 Z"/></g>
</svg>
