<?xml version="1.0" encoding="UTF-8"?>
<!DOCTYPE svg PUBLIC "-//W3C//DTD SVG 1.1//EN" "http://www.w3.org/Graphics/SVG/1.1/DTD/svg11.dtd">
<svg xmlns="http://www.w3.org/2000/svg" version="1.1" width="200px" height="200px" style="shape-rendering:geometricPrecision; text-rendering:geometricPrecision; image-rendering:optimizeQuality; fill-rule:evenodd; clip-rule:evenodd" xmlns:xlink="http://www.w3.org/1999/xlink">
<g><path style="opacity:1" fill="#7d7c7c" d="M 71.5,13.5 C 70.0413,13.5674 68.7079,13.2341 67.5,12.5C 66.1751,11.0474 65.3418,11.3808 65,13.5C 64.7216,12.5842 64.2216,11.9175 63.5,11.5C 62.7784,11.9175 62.2784,12.5842 62,13.5C 61,13.1667 60,12.8333 59,12.5C 57.9888,16.7949 58.9888,20.4616 62,23.5C 63.4616,22.9648 65.1282,22.9648 67,23.5C 68.6581,23.3248 69.9914,22.6582 71,21.5C 71.3076,22.3081 71.8076,22.9747 72.5,23.5C 73.208,21.8974 73.8747,19.8974 74.5,17.5C 75.3446,18.6715 76.0113,20.0048 76.5,21.5C 75.4131,27.0001 72.7465,31.6668 68.5,35.5C 64.5483,36.2721 60.5483,36.6054 56.5,36.5C 55.4863,35.3263 54.153,34.6596 52.5,34.5C 50.5,34.5 49.5,33.5 49.5,31.5C 46.8333,26.1667 46.8333,20.8333 49.5,15.5C 52.0624,11.0649 56.0624,9.06487 61.5,9.5C 65.5745,9.21076 68.9078,10.5441 71.5,13.5 Z"/></g>
<g><path style="opacity:1" fill="#9e9d9d" d="M 63.5,11.5 C 63.3178,13.6746 62.6511,15.6746 61.5,17.5C 62.1152,19.1161 63.1152,20.4495 64.5,21.5C 65.5,20.1667 66.5,20.1667 67.5,21.5C 68.4776,21.0233 69.3109,20.3567 70,19.5C 70.3333,19.8333 70.6667,20.1667 71,20.5C 73.1065,16.6367 72.1065,14.9701 68,15.5C 67.5172,14.552 67.3505,13.552 67.5,12.5C 68.7079,13.2341 70.0413,13.5674 71.5,13.5C 73.2624,14.2623 74.2624,15.5956 74.5,17.5C 73.8747,19.8974 73.208,21.8974 72.5,23.5C 71.8076,22.9747 71.3076,22.3081 71,21.5C 69.9914,22.6582 68.6581,23.3248 67,23.5C 65.1282,22.9648 63.4616,22.9648 62,23.5C 58.9888,20.4616 57.9888,16.7949 59,12.5C 60,12.8333 61,13.1667 62,13.5C 62.2784,12.5842 62.7784,11.9175 63.5,11.5 Z"/></g>
<g><path style="opacity:1" fill="#c6c6c6" d="M 63.5,11.5 C 64.2216,11.9175 64.7216,12.5842 65,13.5C 65.3418,11.3808 66.1751,11.0474 67.5,12.5C 67.3505,13.552 67.5172,14.552 68,15.5C 72.1065,14.9701 73.1065,16.6367 71,20.5C 70.6667,20.1667 70.3333,19.8333 70,19.5C 69.3109,20.3567 68.4776,21.0233 67.5,21.5C 66.5,20.1667 65.5,20.1667 64.5,21.5C 63.1152,20.4495 62.1152,19.1161 61.5,17.5C 62.6511,15.6746 63.3178,13.6746 63.5,11.5 Z"/></g>
<g><path style="opacity:1" fill="#7d7c7c" d="M 129.5,21.5 C 128.041,21.5674 126.708,21.2341 125.5,20.5C 124.175,19.0474 123.342,19.3808 123,21.5C 122.722,20.5842 122.222,19.9175 121.5,19.5C 120.778,19.9175 120.278,20.5842 120,21.5C 119,21.1667 118,20.8333 117,20.5C 115.989,24.7949 116.989,28.4616 120,31.5C 121.462,30.9648 123.128,30.9648 125,31.5C 126.658,31.3248 127.991,30.6582 129,29.5C 129.308,30.3081 129.808,30.9747 130.5,31.5C 131.208,29.8974 131.875,27.8974 132.5,25.5C 133.345,26.6715 134.011,28.0048 134.5,29.5C 133.413,35.0001 130.746,39.6668 126.5,43.5C 122.548,44.2721 118.548,44.6054 114.5,44.5C 113.486,43.3263 112.153,42.6596 110.5,42.5C 108.5,42.5 107.5,41.5 107.5,39.5C 104.833,34.1667 104.833,28.8333 107.5,23.5C 110.062,19.0649 114.062,17.0649 119.5,17.5C 123.574,17.2108 126.908,18.5441 129.5,21.5 Z"/></g>
<g><path style="opacity:1" fill="#9e9d9d" d="M 121.5,19.5 C 121.318,21.6746 120.651,23.6746 119.5,25.5C 120.115,27.1161 121.115,28.4495 122.5,29.5C 123.5,28.1667 124.5,28.1667 125.5,29.5C 126.478,29.0233 127.311,28.3567 128,27.5C 128.333,27.8333 128.667,28.1667 129,28.5C 131.106,24.6367 130.106,22.9701 126,23.5C 125.517,22.552 125.351,21.552 125.5,20.5C 126.708,21.2341 128.041,21.5674 129.5,21.5C 131.262,22.2623 132.262,23.5956 132.5,25.5C 131.875,27.8974 131.208,29.8974 130.5,31.5C 129.808,30.9747 129.308,30.3081 129,29.5C 127.991,30.6582 126.658,31.3248 125,31.5C 123.128,30.9648 121.462,30.9648 120,31.5C 116.989,28.4616 115.989,24.7949 117,20.5C 118,20.8333 119,21.1667 120,21.5C 120.278,20.5842 120.778,19.9175 121.5,19.5 Z"/></g>
<g><path style="opacity:1" fill="#c6c6c6" d="M 121.5,19.5 C 122.222,19.9175 122.722,20.5842 123,21.5C 123.342,19.3808 124.175,19.0474 125.5,20.5C 125.351,21.552 125.517,22.552 126,23.5C 130.106,22.9701 131.106,24.6367 129,28.5C 128.667,28.1667 128.333,27.8333 128,27.5C 127.311,28.3567 126.478,29.0233 125.5,29.5C 124.5,28.1667 123.5,28.1667 122.5,29.5C 121.115,28.4495 120.115,27.1161 119.5,25.5C 120.651,23.6746 121.318,21.6746 121.5,19.5 Z"/></g>
<g><path style="opacity:1" fill="#1f1f1d" d="M 49.5,15.5 C 46.8333,20.8333 46.8333,26.1667 49.5,31.5C 47.0728,29.4924 46.0728,26.8257 46.5,23.5C 46.0728,20.1743 47.0728,17.5076 49.5,15.5 Z"/></g>
<g><path style="opacity:1" fill="#7d7c7c" d="M 186.5,29.5 C 185.041,29.5674 183.708,29.2341 182.5,28.5C 181.175,27.0474 180.342,27.3808 180,29.5C 179.722,28.5842 179.222,27.9175 178.5,27.5C 177.778,27.9175 177.278,28.5842 177,29.5C 176,29.1667 175,28.8333 174,28.5C 172.989,32.7949 173.989,36.4616 177,39.5C 178.462,38.9648 180.128,38.9648 182,39.5C 183.658,39.3248 184.991,38.6582 186,37.5C 186.308,38.3081 186.808,38.9747 187.5,39.5C 188.208,37.8974 188.875,35.8974 189.5,33.5C 190.345,34.6715 191.011,36.0048 191.5,37.5C 190.413,43.0001 187.746,47.6668 183.5,51.5C 179.548,52.2721 175.548,52.6054 171.5,52.5C 170.486,51.3263 169.153,50.6596 167.5,50.5C 165.5,50.5 164.5,49.5 164.5,47.5C 161.833,42.1667 161.833,36.8333 164.5,31.5C 167.062,27.0649 171.062,25.0649 176.5,25.5C 180.574,25.2108 183.908,26.5441 186.5,29.5 Z"/></g>
<g><path style="opacity:1" fill="#9e9d9d" d="M 178.5,27.5 C 178.318,29.6746 177.651,31.6746 176.5,33.5C 177.115,35.1161 178.115,36.4495 179.5,37.5C 180.5,36.1667 181.5,36.1667 182.5,37.5C 183.478,37.0233 184.311,36.3567 185,35.5C 185.333,35.8333 185.667,36.1667 186,36.5C 188.106,32.6367 187.106,30.9701 183,31.5C 182.517,30.552 182.351,29.552 182.5,28.5C 183.708,29.2341 185.041,29.5674 186.5,29.5C 188.262,30.2623 189.262,31.5956 189.5,33.5C 188.875,35.8974 188.208,37.8974 187.5,39.5C 186.808,38.9747 186.308,38.3081 186,37.5C 184.991,38.6582 183.658,39.3248 182,39.5C 180.128,38.9648 178.462,38.9648 177,39.5C 173.989,36.4616 172.989,32.7949 174,28.5C 175,28.8333 176,29.1667 177,29.5C 177.278,28.5842 177.778,27.9175 178.5,27.5 Z"/></g>
<g><path style="opacity:1" fill="#c6c6c6" d="M 178.5,27.5 C 179.222,27.9175 179.722,28.5842 180,29.5C 180.342,27.3808 181.175,27.0474 182.5,28.5C 182.351,29.552 182.517,30.552 183,31.5C 187.106,30.9701 188.106,32.6367 186,36.5C 185.667,36.1667 185.333,35.8333 185,35.5C 184.311,36.3567 183.478,37.0233 182.5,37.5C 181.5,36.1667 180.5,36.1667 179.5,37.5C 178.115,36.4495 177.115,35.1161 176.5,33.5C 177.651,31.6746 178.318,29.6746 178.5,27.5 Z"/></g>
<g><path style="opacity:1" fill="#1f1f1d" d="M 107.5,23.5 C 104.833,28.8333 104.833,34.1667 107.5,39.5C 105.073,37.4924 104.073,34.8257 104.5,31.5C 104.073,28.1743 105.073,25.5076 107.5,23.5 Z"/></g>
<g><path style="opacity:1" fill="#1f1f1e" d="M 76.5,21.5 C 76.8929,28.0612 74.2262,32.7279 68.5,35.5C 72.7465,31.6668 75.4131,27.0001 76.5,21.5 Z"/></g>
<g><path style="opacity:1" fill="#252524" d="M 52.5,34.5 C 54.153,34.6596 55.4863,35.3263 56.5,36.5C 54.6203,36.7709 53.287,36.1042 52.5,34.5 Z"/></g>
<g><path style="opacity:1" fill="#1b1b1a" d="M 68.5,35.5 C 66.5379,37.0173 64.2046,37.6839 61.5,37.5C 59.6307,37.4932 57.964,37.1599 56.5,36.5C 60.5483,36.6054 64.5483,36.2721 68.5,35.5 Z"/></g>
<g><path style="opacity:1" fill="#1f1f1d" d="M 164.5,31.5 C 161.833,36.8333 161.833,42.1667 164.5,47.5C 162.073,45.4924 161.073,42.8257 161.5,39.5C 161.073,36.1743 162.073,33.5076 164.5,31.5 Z"/></g>
<g><path style="opacity:1" fill="#1f1f1e" d="M 134.5,29.5 C 134.893,36.0612 132.226,40.7279 126.5,43.5C 130.746,39.6668 133.413,35.0001 134.5,29.5 Z"/></g>
<g><path style="opacity:1" fill="#252524" d="M 110.5,42.5 C 112.153,42.6596 113.486,43.3263 114.5,44.5C 112.62,44.7709 111.287,44.1042 110.5,42.5 Z"/></g>
<g><path style="opacity:1" fill="#1b1b1a" d="M 126.5,43.5 C 124.538,45.0173 122.205,45.6839 119.5,45.5C 117.631,45.4932 115.964,45.1599 114.5,44.5C 118.548,44.6054 122.548,44.2721 126.5,43.5 Z"/></g>
<g><path style="opacity:1" fill="#1f1f1e" d="M 191.5,37.5 C 191.893,44.0612 189.226,48.7279 183.5,51.5C 187.746,47.6668 190.413,43.0001 191.5,37.5 Z"/></g>
<g><path style="opacity:1" fill="#252524" d="M 167.5,50.5 C 169.153,50.6596 170.486,51.3263 171.5,52.5C 169.62,52.7709 168.287,52.1042 167.5,50.5 Z"/></g>
<g><path style="opacity:1" fill="#1b1b1a" d="M 183.5,51.5 C 181.538,53.0173 179.205,53.6839 176.5,53.5C 174.631,53.4932 172.964,53.1599 171.5,52.5C 175.548,52.6054 179.548,52.2721 183.5,51.5 Z"/></g>
<g><path style="opacity:1" fill="#7d7c7c" d="M 75.5,58.5 C 74.0413,58.5674 72.7079,58.2341 71.5,57.5C 70.1751,56.0474 69.3418,56.3808 69,58.5C 68.7216,57.5842 68.2216,56.9175 67.5,56.5C 66.7784,56.9175 66.2784,57.5842 66,58.5C 65,58.1667 64,57.8333 63,57.5C 61.9888,61.7949 62.9888,65.4616 66,68.5C 67.4616,67.9648 69.1282,67.9648 71,68.5C 72.6581,68.3248 73.9914,67.6582 75,66.5C 75.3076,67.3081 75.8076,67.9747 76.5,68.5C 77.208,66.8974 77.8747,64.8974 78.5,62.5C 79.3446,63.6715 80.0113,65.0048 80.5,66.5C 79.4131,72.0001 76.7465,76.6668 72.5,80.5C 68.5483,81.2721 64.5483,81.6054 60.5,81.5C 59.4863,80.3263 58.153,79.6596 56.5,79.5C 54.5,79.5 53.5,78.5 53.5,76.5C 50.8333,71.1667 50.8333,65.8333 53.5,60.5C 56.0624,56.0649 60.0624,54.0649 65.5,54.5C 69.5745,54.2108 72.9078,55.5441 75.5,58.5 Z"/></g>
<g><path style="opacity:1" fill="#9e9d9d" d="M 67.5,56.5 C 67.3178,58.6746 66.6511,60.6746 65.5,62.5C 66.1152,64.1161 67.1152,65.4495 68.5,66.5C 69.5,65.1667 70.5,65.1667 71.5,66.5C 72.4776,66.0233 73.3109,65.3567 74,64.5C 74.3333,64.8333 74.6667,65.1667 75,65.5C 77.1065,61.6367 76.1065,59.9701 72,60.5C 71.5172,59.552 71.3505,58.552 71.5,57.5C 72.7079,58.2341 74.0413,58.5674 75.5,58.5C 77.2624,59.2623 78.2624,60.5956 78.5,62.5C 77.8747,64.8974 77.208,66.8974 76.5,68.5C 75.8076,67.9747 75.3076,67.3081 75,66.5C 73.9914,67.6582 72.6581,68.3248 71,68.5C 69.1282,67.9648 67.4616,67.9648 66,68.5C 62.9888,65.4616 61.9888,61.7949 63,57.5C 64,57.8333 65,58.1667 66,58.5C 66.2784,57.5842 66.7784,56.9175 67.5,56.5 Z"/></g>
<g><path style="opacity:1" fill="#c6c6c6" d="M 67.5,56.5 C 68.2216,56.9175 68.7216,57.5842 69,58.5C 69.3418,56.3808 70.1751,56.0474 71.5,57.5C 71.3505,58.552 71.5172,59.552 72,60.5C 76.1065,59.9701 77.1065,61.6367 75,65.5C 74.6667,65.1667 74.3333,64.8333 74,64.5C 73.3109,65.3567 72.4776,66.0233 71.5,66.5C 70.5,65.1667 69.5,65.1667 68.5,66.5C 67.1152,65.4495 66.1152,64.1161 65.5,62.5C 66.6511,60.6746 67.3178,58.6746 67.5,56.5 Z"/></g>
<g><path style="opacity:1" fill="#1f1f1d" d="M 53.5,60.5 C 50.8333,65.8333 50.8333,71.1667 53.5,76.5C 51.0728,74.4924 50.0728,71.8257 50.5,68.5C 50.0728,65.1743 51.0728,62.5076 53.5,60.5 Z"/></g>
<g><path style="opacity:1" fill="#7d7c7c" d="M 148.5,73.5 C 147.041,73.5674 145.708,73.2341 144.5,72.5C 143.175,71.0474 142.342,71.3808 142,73.5C 141.722,72.5842 141.222,71.9175 140.5,71.5C 139.778,71.9175 139.278,72.5842 139,73.5C 138,73.1667 137,72.8333 136,72.5C 134.989,76.7949 135.989,80.4616 139,83.5C 140.462,82.9648 142.128,82.9648 144,83.5C 145.658,83.3248 146.991,82.6582 148,81.5C 148.308,82.3081 148.808,82.9747 149.5,83.5C 150.208,81.8974 150.875,79.8974 151.5,77.5C 152.345,78.6715 153.011,80.0048 153.5,81.5C 152.413,87.0001 149.746,91.6668 145.5,95.5C 141.548,96.2721 137.548,96.6054 133.5,96.5C 132.486,95.3263 131.153,94.6596 129.5,94.5C 127.5,94.5 126.5,93.5 126.5,91.5C 123.833,86.1667 123.833,80.8333 126.5,75.5C 129.062,71.0649 133.062,69.0649 138.5,69.5C 142.574,69.2108 145.908,70.5441 148.5,73.5 Z"/></g>
<g><path style="opacity:1" fill="#9e9d9d" d="M 140.5,71.5 C 140.318,73.6746 139.651,75.6746 138.5,77.5C 139.115,79.1161 140.115,80.4495 141.5,81.5C 142.5,80.1667 143.5,80.1667 144.5,81.5C 145.478,81.0233 146.311,80.3567 147,79.5C 147.333,79.8333 147.667,80.1667 148,80.5C 150.106,76.6367 149.106,74.9701 145,75.5C 144.517,74.552 144.351,73.552 144.5,72.5C 145.708,73.2341 147.041,73.5674 148.5,73.5C 150.262,74.2623 151.262,75.5956 151.5,77.5C 150.875,79.8974 150.208,81.8974 149.5,83.5C 148.808,82.9747 148.308,82.3081 148,81.5C 146.991,82.6582 145.658,83.3248 144,83.5C 142.128,82.9648 140.462,82.9648 139,83.5C 135.989,80.4616 134.989,76.7949 136,72.5C 137,72.8333 138,73.1667 139,73.5C 139.278,72.5842 139.778,71.9175 140.5,71.5 Z"/></g>
<g><path style="opacity:1" fill="#c6c6c6" d="M 140.5,71.5 C 141.222,71.9175 141.722,72.5842 142,73.5C 142.342,71.3808 143.175,71.0474 144.5,72.5C 144.351,73.552 144.517,74.552 145,75.5C 149.106,74.9701 150.106,76.6367 148,80.5C 147.667,80.1667 147.333,79.8333 147,79.5C 146.311,80.3567 145.478,81.0233 144.5,81.5C 143.5,80.1667 142.5,80.1667 141.5,81.5C 140.115,80.4495 139.115,79.1161 138.5,77.5C 139.651,75.6746 140.318,73.6746 140.5,71.5 Z"/></g>
<g><path style="opacity:1" fill="#7d7c7c" d="M 111.5,76.5 C 110.041,76.5674 108.708,76.2341 107.5,75.5C 106.175,74.0474 105.342,74.3808 105,76.5C 104.722,75.5842 104.222,74.9175 103.5,74.5C 102.778,74.9175 102.278,75.5842 102,76.5C 101,76.1667 100,75.8333 99,75.5C 97.9888,79.7949 98.9888,83.4616 102,86.5C 103.462,85.9648 105.128,85.9648 107,86.5C 108.658,86.3248 109.991,85.6582 111,84.5C 111.308,85.3081 111.808,85.9747 112.5,86.5C 113.208,84.8974 113.875,82.8974 114.5,80.5C 115.345,81.6715 116.011,83.0048 116.5,84.5C 115.413,90.0001 112.746,94.6668 108.5,98.5C 104.548,99.2721 100.548,99.6054 96.5,99.5C 95.4863,98.3263 94.153,97.6596 92.5,97.5C 90.5,97.5 89.5,96.5 89.5,94.5C 86.8333,89.1667 86.8333,83.8333 89.5,78.5C 92.0624,74.0649 96.0624,72.0649 101.5,72.5C 105.574,72.2108 108.908,73.5441 111.5,76.5 Z"/></g>
<g><path style="opacity:1" fill="#9e9d9d" d="M 103.5,74.5 C 103.318,76.6746 102.651,78.6746 101.5,80.5C 102.115,82.1161 103.115,83.4495 104.5,84.5C 105.5,83.1667 106.5,83.1667 107.5,84.5C 108.478,84.0233 109.311,83.3567 110,82.5C 110.333,82.8333 110.667,83.1667 111,83.5C 113.106,79.6367 112.106,77.9701 108,78.5C 107.517,77.552 107.351,76.552 107.5,75.5C 108.708,76.2341 110.041,76.5674 111.5,76.5C 113.262,77.2623 114.262,78.5956 114.5,80.5C 113.875,82.8974 113.208,84.8974 112.5,86.5C 111.808,85.9747 111.308,85.3081 111,84.5C 109.991,85.6582 108.658,86.3248 107,86.5C 105.128,85.9648 103.462,85.9648 102,86.5C 98.9888,83.4616 97.9888,79.7949 99,75.5C 100,75.8333 101,76.1667 102,76.5C 102.278,75.5842 102.778,74.9175 103.5,74.5 Z"/></g>
<g><path style="opacity:1" fill="#c6c6c6" d="M 103.5,74.5 C 104.222,74.9175 104.722,75.5842 105,76.5C 105.342,74.3808 106.175,74.0474 107.5,75.5C 107.351,76.552 107.517,77.552 108,78.5C 112.106,77.9701 113.106,79.6367 111,83.5C 110.667,83.1667 110.333,82.8333 110,82.5C 109.311,83.3567 108.478,84.0233 107.5,84.5C 106.5,83.1667 105.5,83.1667 104.5,84.5C 103.115,83.4495 102.115,82.1161 101.5,80.5C 102.651,78.6746 103.318,76.6746 103.5,74.5 Z"/></g>
<g><path style="opacity:1" fill="#1f1f1e" d="M 80.5,66.5 C 80.8929,73.0612 78.2262,77.7279 72.5,80.5C 76.7465,76.6668 79.4131,72.0001 80.5,66.5 Z"/></g>
<g><path style="opacity:1" fill="#252524" d="M 56.5,79.5 C 58.153,79.6596 59.4863,80.3263 60.5,81.5C 58.6203,81.7709 57.287,81.1042 56.5,79.5 Z"/></g>
<g><path style="opacity:1" fill="#1b1b1a" d="M 72.5,80.5 C 70.5379,82.0173 68.2046,82.6839 65.5,82.5C 63.6307,82.4932 61.964,82.1599 60.5,81.5C 64.5483,81.6054 68.5483,81.2721 72.5,80.5 Z"/></g>
<g><path style="opacity:1" fill="#1f1f1d" d="M 126.5,75.5 C 123.833,80.8333 123.833,86.1667 126.5,91.5C 124.073,89.4924 123.073,86.8257 123.5,83.5C 123.073,80.1743 124.073,77.5076 126.5,75.5 Z"/></g>
<g><path style="opacity:1" fill="#1f1f1d" d="M 89.5,78.5 C 86.8333,83.8333 86.8333,89.1667 89.5,94.5C 87.0728,92.4924 86.0728,89.8257 86.5,86.5C 86.0728,83.1743 87.0728,80.5076 89.5,78.5 Z"/></g>
<g><path style="opacity:1" fill="#7d7c7c" d="M 42.5,95.5 C 41.0413,95.5674 39.7079,95.2341 38.5,94.5C 37.1751,93.0474 36.3418,93.3808 36,95.5C 35.7216,94.5842 35.2216,93.9175 34.5,93.5C 33.7784,93.9175 33.2784,94.5842 33,95.5C 32,95.1667 31,94.8333 30,94.5C 28.9888,98.7949 29.9888,102.462 33,105.5C 34.4616,104.965 36.1282,104.965 38,105.5C 39.6581,105.325 40.9914,104.658 42,103.5C 42.3076,104.308 42.8076,104.975 43.5,105.5C 44.208,103.897 44.8747,101.897 45.5,99.5C 46.3446,100.671 47.0113,102.005 47.5,103.5C 46.4131,109 43.7465,113.667 39.5,117.5C 35.5483,118.272 31.5483,118.605 27.5,118.5C 26.4863,117.326 25.153,116.66 23.5,116.5C 21.5,116.5 20.5,115.5 20.5,113.5C 17.8333,108.167 17.8333,102.833 20.5,97.5C 23.0624,93.0649 27.0624,91.0649 32.5,91.5C 36.5745,91.2108 39.9078,92.5441 42.5,95.5 Z"/></g>
<g><path style="opacity:1" fill="#1f1f1e" d="M 153.5,81.5 C 153.893,88.0612 151.226,92.7279 145.5,95.5C 149.746,91.6668 152.413,87.0001 153.5,81.5 Z"/></g>
<g><path style="opacity:1" fill="#9e9d9d" d="M 34.5,93.5 C 34.3178,95.6746 33.6511,97.6746 32.5,99.5C 33.1152,101.116 34.1152,102.449 35.5,103.5C 36.5,102.167 37.5,102.167 38.5,103.5C 39.4776,103.023 40.3109,102.357 41,101.5C 41.3333,101.833 41.6667,102.167 42,102.5C 44.1065,98.6367 43.1065,96.9701 39,97.5C 38.5172,96.552 38.3505,95.552 38.5,94.5C 39.7079,95.2341 41.0413,95.5674 42.5,95.5C 44.2624,96.2623 45.2624,97.5956 45.5,99.5C 44.8747,101.897 44.208,103.897 43.5,105.5C 42.8076,104.975 42.3076,104.308 42,103.5C 40.9914,104.658 39.6581,105.325 38,105.5C 36.1282,104.965 34.4616,104.965 33,105.5C 29.9888,102.462 28.9888,98.7949 30,94.5C 31,94.8333 32,95.1667 33,95.5C 33.2784,94.5842 33.7784,93.9175 34.5,93.5 Z"/></g>
<g><path style="opacity:1" fill="#c6c6c6" d="M 34.5,93.5 C 35.2216,93.9175 35.7216,94.5842 36,95.5C 36.3418,93.3808 37.1751,93.0474 38.5,94.5C 38.3505,95.552 38.5172,96.552 39,97.5C 43.1065,96.9701 44.1065,98.6367 42,102.5C 41.6667,102.167 41.3333,101.833 41,101.5C 40.3109,102.357 39.4776,103.023 38.5,103.5C 37.5,102.167 36.5,102.167 35.5,103.5C 34.1152,102.449 33.1152,101.116 32.5,99.5C 33.6511,97.6746 34.3178,95.6746 34.5,93.5 Z"/></g>
<g><path style="opacity:1" fill="#1f1f1e" d="M 116.5,84.5 C 116.893,91.0612 114.226,95.7279 108.5,98.5C 112.746,94.6668 115.413,90.0001 116.5,84.5 Z"/></g>
<g><path style="opacity:1" fill="#252524" d="M 129.5,94.5 C 131.153,94.6596 132.486,95.3263 133.5,96.5C 131.62,96.7709 130.287,96.1042 129.5,94.5 Z"/></g>
<g><path style="opacity:1" fill="#1b1b1a" d="M 145.5,95.5 C 143.538,97.0173 141.205,97.6839 138.5,97.5C 136.631,97.4932 134.964,97.1599 133.5,96.5C 137.548,96.6054 141.548,96.2721 145.5,95.5 Z"/></g>
<g><path style="opacity:1" fill="#252524" d="M 92.5,97.5 C 94.153,97.6596 95.4863,98.3263 96.5,99.5C 94.6203,99.7709 93.287,99.1042 92.5,97.5 Z"/></g>
<g><path style="opacity:1" fill="#1b1b1a" d="M 108.5,98.5 C 106.538,100.017 104.205,100.684 101.5,100.5C 99.6307,100.493 97.964,100.16 96.5,99.5C 100.548,99.6054 104.548,99.2721 108.5,98.5 Z"/></g>
<g><path style="opacity:1" fill="#1f1f1d" d="M 20.5,97.5 C 17.8333,102.833 17.8333,108.167 20.5,113.5C 18.0728,111.492 17.0728,108.826 17.5,105.5C 17.0728,102.174 18.0728,99.5076 20.5,97.5 Z"/></g>
<g><path style="opacity:1" fill="#7d7c7c" d="M 85.5,107.5 C 84.0413,107.567 82.7079,107.234 81.5,106.5C 80.1751,105.047 79.3418,105.381 79,107.5C 78.7216,106.584 78.2216,105.918 77.5,105.5C 76.7784,105.918 76.2784,106.584 76,107.5C 75,107.167 74,106.833 73,106.5C 71.9888,110.795 72.9888,114.462 76,117.5C 77.4616,116.965 79.1282,116.965 81,117.5C 82.6581,117.325 83.9914,116.658 85,115.5C 85.3076,116.308 85.8076,116.975 86.5,117.5C 87.208,115.897 87.8747,113.897 88.5,111.5C 89.3446,112.671 90.0113,114.005 90.5,115.5C 89.4131,121 86.7465,125.667 82.5,129.5C 78.5483,130.272 74.5483,130.605 70.5,130.5C 69.4863,129.326 68.153,128.66 66.5,128.5C 64.5,128.5 63.5,127.5 63.5,125.5C 60.8333,120.167 60.8333,114.833 63.5,109.5C 66.0624,105.065 70.0624,103.065 75.5,103.5C 79.5745,103.211 82.9078,104.544 85.5,107.5 Z"/></g>
<g><path style="opacity:1" fill="#9e9d9d" d="M 77.5,105.5 C 77.3178,107.675 76.6511,109.675 75.5,111.5C 76.1152,113.116 77.1152,114.449 78.5,115.5C 79.5,114.167 80.5,114.167 81.5,115.5C 82.4776,115.023 83.3109,114.357 84,113.5C 84.3333,113.833 84.6667,114.167 85,114.5C 87.1065,110.637 86.1065,108.97 82,109.5C 81.5172,108.552 81.3505,107.552 81.5,106.5C 82.7079,107.234 84.0413,107.567 85.5,107.5C 87.2624,108.262 88.2624,109.596 88.5,111.5C 87.8747,113.897 87.208,115.897 86.5,117.5C 85.8076,116.975 85.3076,116.308 85,115.5C 83.9914,116.658 82.6581,117.325 81,117.5C 79.1282,116.965 77.4616,116.965 76,117.5C 72.9888,114.462 71.9888,110.795 73,106.5C 74,106.833 75,107.167 76,107.5C 76.2784,106.584 76.7784,105.918 77.5,105.5 Z"/></g>
<g><path style="opacity:1" fill="#c6c6c6" d="M 77.5,105.5 C 78.2216,105.918 78.7216,106.584 79,107.5C 79.3418,105.381 80.1751,105.047 81.5,106.5C 81.3505,107.552 81.5172,108.552 82,109.5C 86.1065,108.97 87.1065,110.637 85,114.5C 84.6667,114.167 84.3333,113.833 84,113.5C 83.3109,114.357 82.4776,115.023 81.5,115.5C 80.5,114.167 79.5,114.167 78.5,115.5C 77.1152,114.449 76.1152,113.116 75.5,111.5C 76.6511,109.675 77.3178,107.675 77.5,105.5 Z"/></g>
<g><path style="opacity:1" fill="#7d7c7c" d="M 158.5,116.5 C 157.041,116.567 155.708,116.234 154.5,115.5C 153.175,114.047 152.342,114.381 152,116.5C 151.722,115.584 151.222,114.918 150.5,114.5C 149.778,114.918 149.278,115.584 149,116.5C 148,116.167 147,115.833 146,115.5C 144.989,119.795 145.989,123.462 149,126.5C 150.462,125.965 152.128,125.965 154,126.5C 155.658,126.325 156.991,125.658 158,124.5C 158.308,125.308 158.808,125.975 159.5,126.5C 160.208,124.897 160.875,122.897 161.5,120.5C 162.345,121.671 163.011,123.005 163.5,124.5C 162.413,130 159.746,134.667 155.5,138.5C 151.548,139.272 147.548,139.605 143.5,139.5C 142.486,138.326 141.153,137.66 139.5,137.5C 137.5,137.5 136.5,136.5 136.5,134.5C 133.833,129.167 133.833,123.833 136.5,118.5C 139.062,114.065 143.062,112.065 148.5,112.5C 152.574,112.211 155.908,113.544 158.5,116.5 Z"/></g>
<g><path style="opacity:1" fill="#1f1f1e" d="M 47.5,103.5 C 47.8929,110.061 45.2262,114.728 39.5,117.5C 43.7465,113.667 46.4131,109 47.5,103.5 Z"/></g>
<g><path style="opacity:1" fill="#9e9d9d" d="M 150.5,114.5 C 150.318,116.675 149.651,118.675 148.5,120.5C 149.115,122.116 150.115,123.449 151.5,124.5C 152.5,123.167 153.5,123.167 154.5,124.5C 155.478,124.023 156.311,123.357 157,122.5C 157.333,122.833 157.667,123.167 158,123.5C 160.106,119.637 159.106,117.97 155,118.5C 154.517,117.552 154.351,116.552 154.5,115.5C 155.708,116.234 157.041,116.567 158.5,116.5C 160.262,117.262 161.262,118.596 161.5,120.5C 160.875,122.897 160.208,124.897 159.5,126.5C 158.808,125.975 158.308,125.308 158,124.5C 156.991,125.658 155.658,126.325 154,126.5C 152.128,125.965 150.462,125.965 149,126.5C 145.989,123.462 144.989,119.795 146,115.5C 147,115.833 148,116.167 149,116.5C 149.278,115.584 149.778,114.918 150.5,114.5 Z"/></g>
<g><path style="opacity:1" fill="#c6c6c6" d="M 150.5,114.5 C 151.222,114.918 151.722,115.584 152,116.5C 152.342,114.381 153.175,114.047 154.5,115.5C 154.351,116.552 154.517,117.552 155,118.5C 159.106,117.97 160.106,119.637 158,123.5C 157.667,123.167 157.333,122.833 157,122.5C 156.311,123.357 155.478,124.023 154.5,124.5C 153.5,123.167 152.5,123.167 151.5,124.5C 150.115,123.449 149.115,122.116 148.5,120.5C 149.651,118.675 150.318,116.675 150.5,114.5 Z"/></g>
<g><path style="opacity:1" fill="#1f1f1d" d="M 63.5,109.5 C 60.8333,114.833 60.8333,120.167 63.5,125.5C 61.0728,123.492 60.0728,120.826 60.5,117.5C 60.0728,114.174 61.0728,111.508 63.5,109.5 Z"/></g>
<g><path style="opacity:1" fill="#252524" d="M 23.5,116.5 C 25.153,116.66 26.4863,117.326 27.5,118.5C 25.6203,118.771 24.287,118.104 23.5,116.5 Z"/></g>
<g><path style="opacity:1" fill="#1b1b1a" d="M 39.5,117.5 C 37.5379,119.017 35.2046,119.684 32.5,119.5C 30.6307,119.493 28.964,119.16 27.5,118.5C 31.5483,118.605 35.5483,118.272 39.5,117.5 Z"/></g>
<g><path style="opacity:1" fill="#7d7c7c" d="M 122.5,124.5 C 121.041,124.567 119.708,124.234 118.5,123.5C 117.175,122.047 116.342,122.381 116,124.5C 115.722,123.584 115.222,122.918 114.5,122.5C 113.778,122.918 113.278,123.584 113,124.5C 112,124.167 111,123.833 110,123.5C 108.989,127.795 109.989,131.462 113,134.5C 114.462,133.965 116.128,133.965 118,134.5C 119.658,134.325 120.991,133.658 122,132.5C 122.308,133.308 122.808,133.975 123.5,134.5C 124.208,132.897 124.875,130.897 125.5,128.5C 126.345,129.671 127.011,131.005 127.5,132.5C 126.413,138 123.746,142.667 119.5,146.5C 115.548,147.272 111.548,147.605 107.5,147.5C 106.486,146.326 105.153,145.66 103.5,145.5C 101.5,145.5 100.5,144.5 100.5,142.5C 97.8333,137.167 97.8333,131.833 100.5,126.5C 103.062,122.065 107.062,120.065 112.5,120.5C 116.574,120.211 119.908,121.544 122.5,124.5 Z"/></g>
<g><path style="opacity:1" fill="#9e9d9d" d="M 114.5,122.5 C 114.318,124.675 113.651,126.675 112.5,128.5C 113.115,130.116 114.115,131.449 115.5,132.5C 116.5,131.167 117.5,131.167 118.5,132.5C 119.478,132.023 120.311,131.357 121,130.5C 121.333,130.833 121.667,131.167 122,131.5C 124.106,127.637 123.106,125.97 119,126.5C 118.517,125.552 118.351,124.552 118.5,123.5C 119.708,124.234 121.041,124.567 122.5,124.5C 124.262,125.262 125.262,126.596 125.5,128.5C 124.875,130.897 124.208,132.897 123.5,134.5C 122.808,133.975 122.308,133.308 122,132.5C 120.991,133.658 119.658,134.325 118,134.5C 116.128,133.965 114.462,133.965 113,134.5C 109.989,131.462 108.989,127.795 110,123.5C 111,123.833 112,124.167 113,124.5C 113.278,123.584 113.778,122.918 114.5,122.5 Z"/></g>
<g><path style="opacity:1" fill="#c6c6c6" d="M 114.5,122.5 C 115.222,122.918 115.722,123.584 116,124.5C 116.342,122.381 117.175,122.047 118.5,123.5C 118.351,124.552 118.517,125.552 119,126.5C 123.106,125.97 124.106,127.637 122,131.5C 121.667,131.167 121.333,130.833 121,130.5C 120.311,131.357 119.478,132.023 118.5,132.5C 117.5,131.167 116.5,131.167 115.5,132.5C 114.115,131.449 113.115,130.116 112.5,128.5C 113.651,126.675 114.318,124.675 114.5,122.5 Z"/></g>
<g><path style="opacity:1" fill="#1f1f1d" d="M 136.5,118.5 C 133.833,123.833 133.833,129.167 136.5,134.5C 134.073,132.492 133.073,129.826 133.5,126.5C 133.073,123.174 134.073,120.508 136.5,118.5 Z"/></g>
<g><path style="opacity:1" fill="#1f1f1e" d="M 90.5,115.5 C 90.8929,122.061 88.2262,126.728 82.5,129.5C 86.7465,125.667 89.4131,121 90.5,115.5 Z"/></g>
<g><path style="opacity:1" fill="#252524" d="M 66.5,128.5 C 68.153,128.66 69.4863,129.326 70.5,130.5C 68.6203,130.771 67.287,130.104 66.5,128.5 Z"/></g>
<g><path style="opacity:1" fill="#1b1b1a" d="M 82.5,129.5 C 80.5379,131.017 78.2046,131.684 75.5,131.5C 73.6307,131.493 71.964,131.16 70.5,130.5C 74.5483,130.605 78.5483,130.272 82.5,129.5 Z"/></g>
<g><path style="opacity:1" fill="#1f1f1d" d="M 100.5,126.5 C 97.8333,131.833 97.8333,137.167 100.5,142.5C 98.0728,140.492 97.0728,137.826 97.5,134.5C 97.0728,131.174 98.0728,128.508 100.5,126.5 Z"/></g>
<g><path style="opacity:1" fill="#7d7c7c" d="M 47.5,138.5 C 46.0413,138.567 44.7079,138.234 43.5,137.5C 42.1751,136.047 41.3418,136.381 41,138.5C 40.7216,137.584 40.2216,136.918 39.5,136.5C 38.7784,136.918 38.2784,137.584 38,138.5C 37,138.167 36,137.833 35,137.5C 33.9888,141.795 34.9888,145.462 38,148.5C 39.4616,147.965 41.1282,147.965 43,148.5C 44.6581,148.325 45.9914,147.658 47,146.5C 47.3076,147.308 47.8076,147.975 48.5,148.5C 49.208,146.897 49.8747,144.897 50.5,142.5C 51.3446,143.671 52.0113,145.005 52.5,146.5C 51.4131,152 48.7465,156.667 44.5,160.5C 40.5483,161.272 36.5483,161.605 32.5,161.5C 31.4863,160.326 30.153,159.66 28.5,159.5C 26.5,159.5 25.5,158.5 25.5,156.5C 22.8333,151.167 22.8333,145.833 25.5,140.5C 28.0624,136.065 32.0624,134.065 37.5,134.5C 41.5745,134.211 44.9078,135.544 47.5,138.5 Z"/></g>
<g><path style="opacity:1" fill="#1f1f1e" d="M 163.5,124.5 C 163.893,131.061 161.226,135.728 155.5,138.5C 159.746,134.667 162.413,130 163.5,124.5 Z"/></g>
<g><path style="opacity:1" fill="#9e9d9d" d="M 39.5,136.5 C 39.3178,138.675 38.6511,140.675 37.5,142.5C 38.1152,144.116 39.1152,145.449 40.5,146.5C 41.5,145.167 42.5,145.167 43.5,146.5C 44.4776,146.023 45.3109,145.357 46,144.5C 46.3333,144.833 46.6667,145.167 47,145.5C 49.1065,141.637 48.1065,139.97 44,140.5C 43.5172,139.552 43.3505,138.552 43.5,137.5C 44.7079,138.234 46.0413,138.567 47.5,138.5C 49.2624,139.262 50.2624,140.596 50.5,142.5C 49.8747,144.897 49.208,146.897 48.5,148.5C 47.8076,147.975 47.3076,147.308 47,146.5C 45.9914,147.658 44.6581,148.325 43,148.5C 41.1282,147.965 39.4616,147.965 38,148.5C 34.9888,145.462 33.9888,141.795 35,137.5C 36,137.833 37,138.167 38,138.5C 38.2784,137.584 38.7784,136.918 39.5,136.5 Z"/></g>
<g><path style="opacity:1" fill="#c6c6c6" d="M 39.5,136.5 C 40.2216,136.918 40.7216,137.584 41,138.5C 41.3418,136.381 42.1751,136.047 43.5,137.5C 43.3505,138.552 43.5172,139.552 44,140.5C 48.1065,139.97 49.1065,141.637 47,145.5C 46.6667,145.167 46.3333,144.833 46,144.5C 45.3109,145.357 44.4776,146.023 43.5,146.5C 42.5,145.167 41.5,145.167 40.5,146.5C 39.1152,145.449 38.1152,144.116 37.5,142.5C 38.6511,140.675 39.3178,138.675 39.5,136.5 Z"/></g>
<g><path style="opacity:1" fill="#252524" d="M 139.5,137.5 C 141.153,137.66 142.486,138.326 143.5,139.5C 141.62,139.771 140.287,139.104 139.5,137.5 Z"/></g>
<g><path style="opacity:1" fill="#1b1b1a" d="M 155.5,138.5 C 153.538,140.017 151.205,140.684 148.5,140.5C 146.631,140.493 144.964,140.16 143.5,139.5C 147.548,139.605 151.548,139.272 155.5,138.5 Z"/></g>
<g><path style="opacity:1" fill="#1f1f1e" d="M 127.5,132.5 C 127.893,139.061 125.226,143.728 119.5,146.5C 123.746,142.667 126.413,138 127.5,132.5 Z"/></g>
<g><path style="opacity:1" fill="#252524" d="M 103.5,145.5 C 105.153,145.66 106.486,146.326 107.5,147.5C 105.62,147.771 104.287,147.104 103.5,145.5 Z"/></g>
<g><path style="opacity:1" fill="#1f1f1d" d="M 25.5,140.5 C 22.8333,145.833 22.8333,151.167 25.5,156.5C 23.0728,154.492 22.0728,151.826 22.5,148.5C 22.0728,145.174 23.0728,142.508 25.5,140.5 Z"/></g>
<g><path style="opacity:1" fill="#1b1b1a" d="M 119.5,146.5 C 117.538,148.017 115.205,148.684 112.5,148.5C 110.631,148.493 108.964,148.16 107.5,147.5C 111.548,147.605 115.548,147.272 119.5,146.5 Z"/></g>
<g><path style="opacity:1" fill="#1f1f1e" d="M 52.5,146.5 C 52.8929,153.061 50.2262,157.728 44.5,160.5C 48.7465,156.667 51.4131,152 52.5,146.5 Z"/></g>
<g><path style="opacity:1" fill="#252524" d="M 28.5,159.5 C 30.153,159.66 31.4863,160.326 32.5,161.5C 30.6203,161.771 29.287,161.104 28.5,159.5 Z"/></g>
<g><path style="opacity:1" fill="#1b1b1a" d="M 44.5,160.5 C 42.5379,162.017 40.2046,162.684 37.5,162.5C 35.6307,162.493 33.964,162.16 32.5,161.5C 36.5483,161.605 40.5483,161.272 44.5,160.5 Z"/></g>
</svg>
