<?xml version="1.0" encoding="UTF-8"?>
<!DOCTYPE svg PUBLIC "-//W3C//DTD SVG 1.1//EN" "http://www.w3.org/Graphics/SVG/1.1/DTD/svg11.dtd">
<svg xmlns="http://www.w3.org/2000/svg" version="1.1" width="1160px" height="1049px" style="shape-rendering:geometricPrecision; text-rendering:geometricPrecision; image-rendering:optimizeQuality; fill-rule:evenodd; clip-rule:evenodd" xmlns:xlink="http://www.w3.org/1999/xlink">
<g><path style="opacity:1" fill="#000000" d="M 842.5,17.5 C 844.167,17.5 845.833,17.5 847.5,17.5C 847.521,22.9379 846.021,27.9379 843,32.5C 825.164,60.8419 806.831,88.8419 788,116.5C 784.278,120.725 780.112,124.392 775.5,127.5C 781.994,132.248 788.661,136.748 795.5,141C 802.364,148.198 809.53,155.032 817,161.5C 822.331,159.597 827.831,159.097 833.5,160C 841.081,163.124 848.414,166.791 855.5,171C 867.543,176.126 879.876,180.459 892.5,184C 914.817,189.829 937.15,195.496 959.5,201C 969.521,202.574 979.521,204.241 989.5,206C 1009.97,205.467 1029.64,209.134 1048.5,217C 1050.64,219.179 1050.97,221.679 1049.5,224.5C 1047.73,225.087 1045.89,225.42 1044,225.5C 1037.31,224.327 1030.64,222.994 1024,221.5C 1017.41,222.219 1010.91,223.386 1004.5,225C 997.5,225.167 990.5,225.333 983.5,225.5C 934.797,223.332 886.131,220.832 837.5,218C 873.511,233.335 910.177,247.001 947.5,259C 977.756,266.064 1007.76,274.064 1037.5,283C 1047.52,282.551 1057.52,281.884 1067.5,281C 1069.7,285.987 1068.36,289.654 1063.5,292C 1060.9,292.92 1058.23,293.587 1055.5,294C 1021.07,296.497 986.738,295.497 952.5,291C 933.127,288.995 913.794,286.662 894.5,284C 843.49,276.331 792.49,268.664 741.5,261C 725.023,253.845 708.856,246.011 693,237.5C 508.167,493 323.333,748.5 138.5,1004C 127.293,1006.15 120.126,1001.65 117,990.5C 116.333,987.5 116.333,984.5 117,981.5C 300.5,732.667 484,483.833 667.5,235C 662.173,235.008 659.673,232.508 660,227.5C 665.512,223.743 670.846,219.743 676,215.5C 676.667,214.167 677.333,212.833 678,211.5C 678.333,207.167 678.667,202.833 679,198.5C 682.465,195.872 685.965,195.872 689.5,198.5C 708.108,172.717 726.942,147.05 746,121.5C 748.888,116.758 753.055,114.425 758.5,114.5C 759.85,106.466 763.35,99.4657 769,93.5C 793.277,67.9417 817.777,42.6084 842.5,17.5 Z"/></g>
<g><path style="opacity:1" fill="#7e7f7e" d="M 836.5,30.5 C 837.525,30.8966 837.692,31.5632 837,32.5C 821.583,57.0033 805.916,81.3366 790,105.5C 786.246,111.258 781.746,116.425 776.5,121C 773.942,122.626 771.275,123.626 768.5,124C 766.456,121.3 764.456,118.633 762.5,116C 763.321,110.526 765.488,105.692 769,101.5C 791.339,77.6615 813.839,53.9949 836.5,30.5 Z"/></g>
<g><path style="opacity:1" fill="#f0f0f0" d="M 769.5,132.5 C 764.945,134.553 761.111,137.553 758,141.5C 755.354,147.29 752.854,153.124 750.5,159C 751.861,160.584 752.528,162.418 752.5,164.5C 752.737,165.791 752.404,166.791 751.5,167.5C 749.992,165.819 748.992,163.819 748.5,161.5C 748.44,160.957 748.107,160.624 747.5,160.5C 746.614,161.325 746.281,162.325 746.5,163.5C 744.237,167.103 741.57,170.436 738.5,173.5C 744.327,175.473 750.327,176.806 756.5,177.5C 756.842,178.338 757.508,178.672 758.5,178.5C 759.716,180.451 761.382,181.951 763.5,183C 776.697,190.095 789.031,198.429 800.5,208C 803.375,209.302 806.375,210.135 809.5,210.5C 810.677,213.175 812.677,215.008 815.5,216C 857.391,233.965 900.058,249.965 943.5,264C 973.756,271.064 1003.76,279.064 1033.5,288C 1042.25,288.641 1050.92,288.308 1059.5,287C 1056.9,287.92 1054.23,288.587 1051.5,289C 1040.17,289.633 1028.84,290.133 1017.5,290.5C 977.659,288.499 937.992,284.666 898.5,279C 847.49,271.331 796.49,263.664 745.5,256C 723.963,245.732 702.297,235.732 680.5,226C 679.549,225.282 679.383,224.449 680,223.5C 703.28,190.554 726.946,157.887 751,125.5C 755.068,118.782 759.735,118.115 765,123.5C 766.808,126.438 768.308,129.438 769.5,132.5 Z"/></g>
<g><path style="opacity:1" fill="#ec1c23" d="M 769.5,132.5 C 776.945,136.727 784.278,141.227 791.5,146C 797.57,152.74 804.237,158.74 811.5,164C 813.423,164.808 815.423,165.308 817.5,165.5C 822.143,164.517 826.809,164.35 831.5,165C 849.198,175.18 867.864,183.18 887.5,189C 910.119,194.655 932.786,200.321 955.5,206C 974.639,209.952 993.973,212.285 1013.5,213C 1017.94,213.528 1022.28,214.528 1026.5,216C 1012.2,218.164 997.864,219.664 983.5,220.5C 925.442,218.121 867.442,214.787 809.5,210.5C 806.375,210.135 803.375,209.302 800.5,208C 789.031,198.429 776.697,190.095 763.5,183C 761.382,181.951 759.716,180.451 758.5,178.5C 758.167,177.5 757.5,176.833 756.5,176.5C 755.336,172.341 754.003,168.341 752.5,164.5C 752.528,162.418 751.861,160.584 750.5,159C 752.854,153.124 755.354,147.29 758,141.5C 761.111,137.553 764.945,134.553 769.5,132.5 Z"/></g>
<g><path style="opacity:1" fill="#000000" d="M 748.5,161.5 C 747.833,162.167 747.167,162.833 746.5,163.5C 746.281,162.325 746.614,161.325 747.5,160.5C 748.107,160.624 748.44,160.957 748.5,161.5 Z"/></g>
<g><path style="opacity:1" fill="#ec1c23" d="M 748.5,161.5 C 748.992,163.819 749.992,165.819 751.5,167.5C 752.41,170.992 754.076,173.992 756.5,176.5C 756.5,176.833 756.5,177.167 756.5,177.5C 750.327,176.806 744.327,175.473 738.5,173.5C 741.57,170.436 744.237,167.103 746.5,163.5C 747.167,162.833 747.833,162.167 748.5,161.5 Z"/></g>
<g><path style="opacity:1" fill="#000000" d="M 723.5,164.5 C 731.106,166.724 734.439,171.724 733.5,179.5C 731.717,176.327 730.217,172.994 729,169.5C 727.581,168.54 726.081,167.707 724.5,167C 723.748,166.329 723.414,165.496 723.5,164.5 Z"/></g>
<g><path style="opacity:1" fill="#000000" d="M 752.5,164.5 C 754.003,168.341 755.336,172.341 756.5,176.5C 754.076,173.992 752.41,170.992 751.5,167.5C 752.404,166.791 752.737,165.791 752.5,164.5 Z"/></g>
<g><path style="opacity:1" fill="#000000" d="M 756.5,176.5 C 757.5,176.833 758.167,177.5 758.5,178.5C 757.508,178.672 756.842,178.338 756.5,177.5C 756.5,177.167 756.5,176.833 756.5,176.5 Z"/></g>
<g><path style="opacity:1" fill="#f2f3f2" d="M 682.5,199.5 C 683.822,199.33 684.989,199.663 686,200.5C 685.735,214.996 678.902,225.329 665.5,231.5C 664.417,230.635 664.251,229.635 665,228.5C 669.954,225.215 674.62,221.548 679,217.5C 679.667,216.167 680.333,214.833 681,213.5C 681.223,208.75 681.723,204.084 682.5,199.5 Z"/></g>
<g><path style="opacity:1" fill="#b87a56" d="M 678.5,229.5 C 681.911,230.36 685.244,231.526 688.5,233C 503.588,488.157 318.922,743.49 134.5,999C 133.167,999.667 131.833,999.667 130.5,999C 125.88,995.725 122.88,991.392 121.5,986C 307.795,734.218 493.461,482.052 678.5,229.5 Z"/></g>
</svg>
