<?xml version="1.0" encoding="UTF-8"?>
<!DOCTYPE svg PUBLIC "-//W3C//DTD SVG 1.1//EN" "http://www.w3.org/Graphics/SVG/1.1/DTD/svg11.dtd">
<svg xmlns="http://www.w3.org/2000/svg" version="1.1" width="91px" height="91px" style="shape-rendering:geometricPrecision; text-rendering:geometricPrecision; image-rendering:optimizeQuality; fill-rule:evenodd; clip-rule:evenodd" xmlns:xlink="http://www.w3.org/1999/xlink">
<g><path style="opacity:0.972" fill="#e5e7e9" d="M 43.5,-0.5 C 44.5,-0.5 45.5,-0.5 46.5,-0.5C 48.3584,3.52691 49.0251,7.86025 48.5,12.5C 47.1667,14.5 47.1667,16.5 48.5,18.5C 48.5,20.5 48.5,22.5 48.5,24.5C 47.5655,25.5676 47.2322,26.901 47.5,28.5C 44.0504,29.2436 42.3838,27.9103 42.5,24.5C 42.5,22.5 42.5,20.5 42.5,18.5C 42.5,16.5 42.5,14.5 42.5,12.5C 42.2307,8.06853 42.564,3.7352 43.5,-0.5 Z"/></g>
<g><path style="opacity:0.89" fill="#d2d2d4" d="M 42.5,12.5 C 42.5,14.5 42.5,16.5 42.5,18.5C 29.7918,21.2082 22.1251,28.8749 19.5,41.5C 17.3888,42.7416 15.3888,42.7416 13.5,41.5C 14.1314,31.6823 18.4648,23.8489 26.5,18C 31.4686,15.0662 36.8019,13.2328 42.5,12.5 Z"/></g>
<g><path style="opacity:0.906" fill="#d2d2d4" d="M 48.5,12.5 C 65.1633,15.1633 74.83,24.83 77.5,41.5C 75.5,42.8333 73.5,42.8333 71.5,41.5C 68.8333,28.8333 61.1667,21.1667 48.5,18.5C 47.1667,16.5 47.1667,14.5 48.5,12.5 Z"/></g>
<g><path style="opacity:0.968" fill="#ef9a9a" d="M 42.5,24.5 C 42.3838,27.9103 44.0504,29.2436 47.5,28.5C 47.2322,26.901 47.5655,25.5676 48.5,24.5C 58.3724,26.0384 64.3724,31.705 66.5,41.5C 65.3915,42.29 64.0581,42.79 62.5,43C 60.9907,46.6693 62.3241,48.1693 66.5,47.5C 64.8094,57.8573 58.8094,63.8573 48.5,65.5C 47.71,64.3915 47.21,63.0581 47,61.5C 43.3307,59.9907 41.8307,61.3241 42.5,65.5C 35.8157,65.2374 30.649,62.2374 27,56.5C 25.4511,53.6883 24.6178,50.6883 24.5,47.5C 28.6759,48.1693 30.0093,46.6693 28.5,43C 26.9419,42.79 25.6085,42.29 24.5,41.5C 25.1928,35.2928 28.1928,30.4595 33.5,27C 36.2065,25.0924 39.2065,24.259 42.5,24.5 Z"/></g>
<g><path style="opacity:1" fill="#fefafa" d="M 42.5,40.5 C 46.7555,39.4545 49.4222,40.9545 50.5,45C 48.3182,49.7681 45.1516,50.6014 41,47.5C 40.1668,44.829 40.6668,42.4957 42.5,40.5 Z"/></g>
<g><path style="opacity:0.972" fill="#e6e6e8" d="M 13.5,41.5 C 15.3888,42.7416 17.3888,42.7416 19.5,41.5C 21.1667,41.5 22.8333,41.5 24.5,41.5C 25.6085,42.29 26.9419,42.79 28.5,43C 30.0093,46.6693 28.6759,48.1693 24.5,47.5C 22.8333,47.5 21.1667,47.5 19.5,47.5C 17.1667,47.5 14.8333,47.5 12.5,47.5C 7.84685,48.0008 3.51351,47.3342 -0.5,45.5C -0.5,45.1667 -0.5,44.8333 -0.5,44.5C 0.309426,43.5313 1.30943,42.6979 2.5,42C 6.15159,41.5014 9.81826,41.3347 13.5,41.5 Z"/></g>
<g><path style="opacity:0.962" fill="#e6e7e9" d="M 66.5,41.5 C 68.1667,41.5 69.8333,41.5 71.5,41.5C 73.5,42.8333 75.5,42.8333 77.5,41.5C 82.1398,40.9749 86.4731,41.6416 90.5,43.5C 90.5,44.5 90.5,45.5 90.5,46.5C 86.2648,47.436 81.9315,47.7693 77.5,47.5C 75.5,47.5 73.5,47.5 71.5,47.5C 69.8333,47.5 68.1667,47.5 66.5,47.5C 62.3241,48.1693 60.9907,46.6693 62.5,43C 64.0581,42.79 65.3915,42.29 66.5,41.5 Z"/></g>
<g><path style="opacity:0.913" fill="#d1d1d3" d="M 12.5,47.5 C 14.8333,47.5 17.1667,47.5 19.5,47.5C 21.6707,60.6724 29.3373,68.6724 42.5,71.5C 42.5,73.5 42.5,75.5 42.5,77.5C 25.496,74.496 15.496,64.496 12.5,47.5 Z"/></g>
<g><path style="opacity:0.89" fill="#d2d2d4" d="M 71.5,47.5 C 73.5,47.5 75.5,47.5 77.5,47.5C 75.286,64.7139 65.6193,74.7139 48.5,77.5C 47.1667,75.1667 47.1667,72.8333 48.5,70.5C 61.7752,68.5582 69.4419,60.8916 71.5,47.5 Z"/></g>
<g><path style="opacity:0.953" fill="#e6e6e8" d="M 48.5,65.5 C 48.5,67.1667 48.5,68.8333 48.5,70.5C 47.1667,72.8333 47.1667,75.1667 48.5,77.5C 49.0251,82.1398 48.3584,86.4731 46.5,90.5C 45.5,90.5 44.5,90.5 43.5,90.5C 42.564,86.2648 42.2307,81.9315 42.5,77.5C 42.5,75.5 42.5,73.5 42.5,71.5C 42.5,69.5 42.5,67.5 42.5,65.5C 41.8307,61.3241 43.3307,59.9907 47,61.5C 47.21,63.0581 47.71,64.3915 48.5,65.5 Z"/></g>
</svg>
