<?xml version="1.0" encoding="UTF-8"?>
<!DOCTYPE svg PUBLIC "-//W3C//DTD SVG 1.1//EN" "http://www.w3.org/Graphics/SVG/1.1/DTD/svg11.dtd">
<svg xmlns="http://www.w3.org/2000/svg" version="1.1" width="249px" height="187px" style="shape-rendering:geometricPrecision; text-rendering:geometricPrecision; image-rendering:optimizeQuality; fill-rule:evenodd; clip-rule:evenodd" xmlns:xlink="http://www.w3.org/1999/xlink">
<g><path style="opacity:1" fill="#0e0b0b" d="M 51.5,-0.5 C 53.1667,-0.5 54.8333,-0.5 56.5,-0.5C 77.1688,0.164107 95.1688,7.49744 110.5,21.5C 115.568,26.5626 120.235,31.8959 124.5,37.5C 132.325,27.5083 141.325,18.675 151.5,11C 169.164,1.13207 187.831,-1.20127 207.5,4C 224.867,8.36013 237.034,18.8601 244,35.5C 249.564,53.6688 248.231,71.3355 240,88.5C 230.498,109.687 216.998,127.853 199.5,143C 176.849,161.415 151.682,175.581 124,185.5C 94.7219,174.513 68.2219,159.013 44.5,139C 24.1709,120.858 10.0043,98.6917 2,72.5C -4.33116,32.4568 12.1688,8.12342 51.5,-0.5 Z"/></g>
<g><path style="opacity:1" fill="#eb1b22" d="M 47.5,10.5 C 80.5759,8.77928 104.743,22.4459 120,51.5C 123.534,54.2008 126.867,53.8675 130,50.5C 149.964,13.2699 179.464,2.76988 218.5,19C 235.445,31.8287 241.278,48.6621 236,69.5C 233.034,82.7665 227.367,94.7665 219,105.5C 195.225,137.094 164.725,159.761 127.5,173.5C 86.4538,161.254 52.9538,138.254 27,104.5C 18.1018,90.0348 12.6018,74.3681 10.5,57.5C 10.8513,32.9941 22.8513,17.8274 46.5,12C 47.056,11.6174 47.3893,11.1174 47.5,10.5 Z"/></g>
</svg>
