<?xml version="1.0" encoding="UTF-8"?>
<!DOCTYPE svg PUBLIC "-//W3C//DTD SVG 1.1//EN" "http://www.w3.org/Graphics/SVG/1.1/DTD/svg11.dtd">
<svg xmlns="http://www.w3.org/2000/svg" version="1.1" width="200px" height="200px" style="shape-rendering:geometricPrecision; text-rendering:geometricPrecision; image-rendering:optimizeQuality; fill-rule:evenodd; clip-rule:evenodd" xmlns:xlink="http://www.w3.org/1999/xlink">
<g><path style="opacity:1" fill="#9a9a9a" d="M 69.5,-0.5 C 71.5,-0.5 73.5,-0.5 75.5,-0.5C 75.5,0.5 75.5,1.5 75.5,2.5C 73.5,2.5 71.5,2.5 69.5,2.5C 69.5,1.5 69.5,0.5 69.5,-0.5 Z"/></g>
<g><path style="opacity:1" fill="#080808" d="M 81.5,-0.5 C 87.8333,-0.5 94.1667,-0.5 100.5,-0.5C 100.5,0.5 100.5,1.5 100.5,2.5C 96.1667,2.5 91.8333,2.5 87.5,2.5C 85.5,2.5 83.5,2.5 81.5,2.5C 81.5,1.5 81.5,0.5 81.5,-0.5 Z"/></g>
<g><path style="opacity:1" fill="#a9a9a9" d="M 106.5,-0.5 C 108.5,-0.5 110.5,-0.5 112.5,-0.5C 112.5,0.5 112.5,1.5 112.5,2.5C 110.5,2.5 108.5,2.5 106.5,2.5C 106.5,1.5 106.5,0.5 106.5,-0.5 Z"/></g>
<g><path style="opacity:1" fill="#e1e2e1" d="M 60.5,2.5 C 60.5,3.5 60.5,4.5 60.5,5.5C 59.5,5.5 58.5,5.5 57.5,5.5C 57.5,4.5 57.5,3.5 57.5,2.5C 58.5,2.5 59.5,2.5 60.5,2.5 Z"/></g>
<g><path style="opacity:1" fill="#6f706f" d="M 60.5,2.5 C 61.5,2.5 62.5,2.5 63.5,2.5C 63.5,3.5 63.5,4.5 63.5,5.5C 62.5,5.5 61.5,5.5 60.5,5.5C 60.5,4.5 60.5,3.5 60.5,2.5 Z"/></g>
<g><path style="opacity:1" fill="#080807" d="M 106.5,2.5 C 108.5,2.5 110.5,2.5 112.5,2.5C 114.5,2.5 116.5,2.5 118.5,2.5C 118.5,3.5 118.5,4.5 118.5,5.5C 114.5,5.5 110.5,5.5 106.5,5.5C 106.5,4.5 106.5,3.5 106.5,2.5 Z"/></g>
<g><path style="opacity:1" fill="#dfe0df" d="M 121.5,2.5 C 122.5,2.5 123.5,2.5 124.5,2.5C 124.5,3.5 124.5,4.5 124.5,5.5C 123.5,5.5 122.5,5.5 121.5,5.5C 121.5,4.5 121.5,3.5 121.5,2.5 Z"/></g>
<g><path style="opacity:1" fill="#9a9b9a" d="M 54.5,5.5 C 54.5,6.5 54.5,7.5 54.5,8.5C 53.5,8.5 52.5,8.5 51.5,8.5C 51.5,7.5 51.5,6.5 51.5,5.5C 52.5,5.5 53.5,5.5 54.5,5.5 Z"/></g>
<g><path style="opacity:1" fill="#21211f" d="M 63.5,2.5 C 65.5,2.5 67.5,2.5 69.5,2.5C 71.5,2.5 73.5,2.5 75.5,2.5C 76.5,2.5 77.5,2.5 78.5,2.5C 78.5,5.5 78.5,8.5 78.5,11.5C 76.5,11.5 74.5,11.5 72.5,11.5C 72.5,25.8333 72.5,40.1667 72.5,54.5C 73.5,54.5 74.5,54.5 75.5,54.5C 75.5,56.5 75.5,58.5 75.5,60.5C 76.5,60.5 77.5,60.5 78.5,60.5C 78.5,61.5 78.5,62.5 78.5,63.5C 79.5,63.5 80.5,63.5 81.5,63.5C 81.5,65.5 81.5,67.5 81.5,69.5C 82.5,69.5 83.5,69.5 84.5,69.5C 84.5,70.5 84.5,71.5 84.5,72.5C 85.5,72.5 86.5,72.5 87.5,72.5C 87.5,73.5 87.5,74.5 87.5,75.5C 88.5,75.5 89.5,75.5 90.5,75.5C 90.5,76.5 90.5,77.5 90.5,78.5C 92.8333,78.5 95.1667,78.5 97.5,78.5C 97.5,79.5 97.5,80.5 97.5,81.5C 98.5,81.5 99.5,81.5 100.5,81.5C 100.5,82.5 100.5,83.5 100.5,84.5C 103.5,84.5 106.5,84.5 109.5,84.5C 109.5,85.5 109.5,86.5 109.5,87.5C 121.5,87.5 133.5,87.5 145.5,87.5C 145.5,86.5 145.5,85.5 145.5,84.5C 146.5,84.5 147.5,84.5 148.5,84.5C 148.5,83.5 148.5,82.5 148.5,81.5C 151.5,81.5 154.5,81.5 157.5,81.5C 157.5,80.5 157.5,79.5 157.5,78.5C 158.833,78.5 160.167,78.5 161.5,78.5C 161.5,77.5 161.5,76.5 161.5,75.5C 163.5,75.5 165.5,75.5 167.5,75.5C 167.5,74.5 167.5,73.5 167.5,72.5C 168.5,72.5 169.5,72.5 170.5,72.5C 170.5,71.5 170.5,70.5 170.5,69.5C 171.5,69.5 172.5,69.5 173.5,69.5C 173.5,68.5 173.5,67.5 173.5,66.5C 174.5,66.5 175.5,66.5 176.5,66.5C 176.5,65.5 176.5,64.5 176.5,63.5C 175.5,63.5 174.5,63.5 173.5,63.5C 173.5,62.5 173.5,61.5 173.5,60.5C 173.5,58.5 173.5,56.5 173.5,54.5C 172.5,54.5 171.5,54.5 170.5,54.5C 170.5,53.5 170.5,52.5 170.5,51.5C 170.5,50.5 170.5,49.5 170.5,48.5C 169.5,48.5 168.5,48.5 167.5,48.5C 167.5,46.1667 167.5,43.8333 167.5,41.5C 168.5,41.5 169.5,41.5 170.5,41.5C 170.5,42.8333 170.5,44.1667 170.5,45.5C 171.5,45.5 172.5,45.5 173.5,45.5C 173.5,46.5 173.5,47.5 173.5,48.5C 173.5,49.5 173.5,50.5 173.5,51.5C 174.5,51.5 175.5,51.5 176.5,51.5C 176.5,53.5 176.5,55.5 176.5,57.5C 176.5,58.5 176.5,59.5 176.5,60.5C 177.5,60.5 178.5,60.5 179.5,60.5C 179.5,62.5 179.5,64.5 179.5,66.5C 179.5,68.5 179.5,70.5 179.5,72.5C 180.5,72.5 181.5,72.5 182.5,72.5C 182.5,80.5 182.5,88.5 182.5,96.5C 181.5,96.5 180.5,96.5 179.5,96.5C 179.5,99.5 179.5,102.5 179.5,105.5C 179.5,107.5 179.5,109.5 179.5,111.5C 178.5,111.5 177.5,111.5 176.5,111.5C 176.5,112.5 176.5,113.5 176.5,114.5C 176.5,116.5 176.5,118.5 176.5,120.5C 175.5,120.5 174.5,120.5 173.5,120.5C 173.5,121.5 173.5,122.5 173.5,123.5C 173.5,124.5 173.5,125.5 173.5,126.5C 172.5,126.5 171.5,126.5 170.5,126.5C 170.5,127.833 170.5,129.167 170.5,130.5C 169.5,130.5 168.5,130.5 167.5,130.5C 167.5,131.5 167.5,132.5 167.5,133.5C 167.5,134.5 167.5,135.5 167.5,136.5C 166.5,136.5 165.5,136.5 164.5,136.5C 164.5,137.5 164.5,138.5 164.5,139.5C 163.5,139.5 162.5,139.5 161.5,139.5C 161.5,140.5 161.5,141.5 161.5,142.5C 160.167,142.5 158.833,142.5 157.5,142.5C 157.5,143.5 157.5,144.5 157.5,145.5C 156.5,145.5 155.5,145.5 154.5,145.5C 154.5,146.5 154.5,147.5 154.5,148.5C 153.5,148.5 152.5,148.5 151.5,148.5C 151.5,149.5 151.5,150.5 151.5,151.5C 150.5,151.5 149.5,151.5 148.5,151.5C 148.5,152.5 148.5,153.5 148.5,154.5C 147.5,154.5 146.5,154.5 145.5,154.5C 145.5,155.5 145.5,156.5 145.5,157.5C 144.5,157.5 143.5,157.5 142.5,157.5C 141.5,157.5 140.5,157.5 139.5,157.5C 139.5,158.5 139.5,159.5 139.5,160.5C 138.5,160.5 137.5,160.5 136.5,160.5C 135.5,160.5 134.5,160.5 133.5,160.5C 133.5,161.5 133.5,162.5 133.5,163.5C 132.5,163.5 131.5,163.5 130.5,163.5C 129.5,163.5 128.5,163.5 127.5,163.5C 127.5,164.5 127.5,165.5 127.5,166.5C 126.5,166.5 125.5,166.5 124.5,166.5C 123.5,166.5 122.5,166.5 121.5,166.5C 120.5,166.5 119.5,166.5 118.5,166.5C 118.5,167.5 118.5,168.5 118.5,169.5C 116.5,169.5 114.5,169.5 112.5,169.5C 109.5,169.5 106.5,169.5 103.5,169.5C 103.5,170.5 103.5,171.5 103.5,172.5C 94.1667,172.5 84.8333,172.5 75.5,172.5C 75.5,171.5 75.5,170.5 75.5,169.5C 73.5,169.5 71.5,169.5 69.5,169.5C 67.5,169.5 65.5,169.5 63.5,169.5C 63.5,168.5 63.5,167.5 63.5,166.5C 62.5,166.5 61.5,166.5 60.5,166.5C 59.5,166.5 58.5,166.5 57.5,166.5C 56.5,166.5 55.5,166.5 54.5,166.5C 54.5,165.5 54.5,164.5 54.5,163.5C 53.5,163.5 52.5,163.5 51.5,163.5C 50.5,163.5 49.5,163.5 48.5,163.5C 48.5,162.5 48.5,161.5 48.5,160.5C 47.5,160.5 46.5,160.5 45.5,160.5C 44.5,160.5 43.5,160.5 42.5,160.5C 42.5,159.5 42.5,158.5 42.5,157.5C 41.5,157.5 40.5,157.5 39.5,157.5C 38.5,157.5 37.5,157.5 36.5,157.5C 36.5,156.5 36.5,155.5 36.5,154.5C 35.5,154.5 34.5,154.5 33.5,154.5C 33.5,153.5 33.5,152.5 33.5,151.5C 32.1667,151.5 30.8333,151.5 29.5,151.5C 29.5,150.5 29.5,149.5 29.5,148.5C 28.5,148.5 27.5,148.5 26.5,148.5C 26.5,147.5 26.5,146.5 26.5,145.5C 25.5,145.5 24.5,145.5 23.5,145.5C 23.5,144.5 23.5,143.5 23.5,142.5C 22.5,142.5 21.5,142.5 20.5,142.5C 20.5,141.5 20.5,140.5 20.5,139.5C 19.5,139.5 18.5,139.5 17.5,139.5C 17.5,138.5 17.5,137.5 17.5,136.5C 16.5,136.5 15.5,136.5 14.5,136.5C 14.5,135.5 14.5,134.5 14.5,133.5C 14.5,132.5 14.5,131.5 14.5,130.5C 13.5,130.5 12.5,130.5 11.5,130.5C 11.5,129.167 11.5,127.833 11.5,126.5C 10.5,126.5 9.5,126.5 8.5,126.5C 8.5,125.5 8.5,124.5 8.5,123.5C 8.5,122.5 8.5,121.5 8.5,120.5C 7.5,120.5 6.5,120.5 5.5,120.5C 5.5,118.5 5.5,116.5 5.5,114.5C 5.5,113.5 5.5,112.5 5.5,111.5C 4.5,111.5 3.5,111.5 2.5,111.5C 2.5,109.5 2.5,107.5 2.5,105.5C 2.5,102.5 2.5,99.5 2.5,96.5C 1.5,96.5 0.5,96.5 -0.5,96.5C -0.5,88.5 -0.5,80.5 -0.5,72.5C 0.5,72.5 1.5,72.5 2.5,72.5C 2.5,70.5 2.5,68.5 2.5,66.5C 2.5,64.5 2.5,62.5 2.5,60.5C 3.5,60.5 4.5,60.5 5.5,60.5C 5.5,59.5 5.5,58.5 5.5,57.5C 5.5,55.5 5.5,53.5 5.5,51.5C 6.5,51.5 7.5,51.5 8.5,51.5C 8.5,50.5 8.5,49.5 8.5,48.5C 8.5,47.5 8.5,46.5 8.5,45.5C 9.5,45.5 10.5,45.5 11.5,45.5C 11.5,44.1667 11.5,42.8333 11.5,41.5C 12.5,41.5 13.5,41.5 14.5,41.5C 14.5,40.5 14.5,39.5 14.5,38.5C 14.5,37.5 14.5,36.5 14.5,35.5C 15.5,35.5 16.5,35.5 17.5,35.5C 17.5,34.5 17.5,33.5 17.5,32.5C 18.5,32.5 19.5,32.5 20.5,32.5C 20.5,31.5 20.5,30.5 20.5,29.5C 21.5,29.5 22.5,29.5 23.5,29.5C 23.5,28.5 23.5,27.5 23.5,26.5C 24.5,26.5 25.5,26.5 26.5,26.5C 26.5,25.5 26.5,24.5 26.5,23.5C 27.5,23.5 28.5,23.5 29.5,23.5C 29.5,22.5 29.5,21.5 29.5,20.5C 30.8333,20.5 32.1667,20.5 33.5,20.5C 33.5,19.5 33.5,18.5 33.5,17.5C 34.5,17.5 35.5,17.5 36.5,17.5C 36.5,16.5 36.5,15.5 36.5,14.5C 37.5,14.5 38.5,14.5 39.5,14.5C 40.5,14.5 41.5,14.5 42.5,14.5C 42.5,13.5 42.5,12.5 42.5,11.5C 43.5,11.5 44.5,11.5 45.5,11.5C 46.5,11.5 47.5,11.5 48.5,11.5C 48.5,10.5 48.5,9.5 48.5,8.5C 49.5,8.5 50.5,8.5 51.5,8.5C 52.5,8.5 53.5,8.5 54.5,8.5C 54.5,7.5 54.5,6.5 54.5,5.5C 55.5,5.5 56.5,5.5 57.5,5.5C 58.5,5.5 59.5,5.5 60.5,5.5C 61.5,5.5 62.5,5.5 63.5,5.5C 63.5,4.5 63.5,3.5 63.5,2.5 Z"/></g>
<g><path style="opacity:1" fill="#000100" d="M 121.5,5.5 C 122.5,5.5 123.5,5.5 124.5,5.5C 125.5,5.5 126.5,5.5 127.5,5.5C 127.5,6.5 127.5,7.5 127.5,8.5C 125.5,8.5 123.5,8.5 121.5,8.5C 121.5,7.5 121.5,6.5 121.5,5.5 Z"/></g>
<g><path style="opacity:1" fill="#969897" d="M 127.5,5.5 C 128.5,5.5 129.5,5.5 130.5,5.5C 130.5,6.5 130.5,7.5 130.5,8.5C 129.5,8.5 128.5,8.5 127.5,8.5C 127.5,7.5 127.5,6.5 127.5,5.5 Z"/></g>
<g><path style="opacity:1" fill="#8d8e8d" d="M 48.5,8.5 C 48.5,9.5 48.5,10.5 48.5,11.5C 47.5,11.5 46.5,11.5 45.5,11.5C 45.5,10.5 45.5,9.5 45.5,8.5C 46.5,8.5 47.5,8.5 48.5,8.5 Z"/></g>
<g><path style="opacity:1" fill="#070505" d="M 127.5,8.5 C 128.5,8.5 129.5,8.5 130.5,8.5C 131.5,8.5 132.5,8.5 133.5,8.5C 133.5,9.5 133.5,10.5 133.5,11.5C 131.5,11.5 129.5,11.5 127.5,11.5C 127.5,10.5 127.5,9.5 127.5,8.5 Z"/></g>
<g><path style="opacity:1" fill="#898a89" d="M 133.5,8.5 C 134.5,8.5 135.5,8.5 136.5,8.5C 136.5,9.5 136.5,10.5 136.5,11.5C 135.5,11.5 134.5,11.5 133.5,11.5C 133.5,10.5 133.5,9.5 133.5,8.5 Z"/></g>
<g><path style="opacity:1" fill="#c5c6c5" d="M 42.5,11.5 C 42.5,12.5 42.5,13.5 42.5,14.5C 41.5,14.5 40.5,14.5 39.5,14.5C 39.5,13.5 39.5,12.5 39.5,11.5C 40.5,11.5 41.5,11.5 42.5,11.5 Z"/></g>
<g><path style="opacity:1" fill="#070606" d="M 133.5,11.5 C 134.5,11.5 135.5,11.5 136.5,11.5C 137.5,11.5 138.5,11.5 139.5,11.5C 139.5,12.5 139.5,13.5 139.5,14.5C 137.5,14.5 135.5,14.5 133.5,14.5C 133.5,13.5 133.5,12.5 133.5,11.5 Z"/></g>
<g><path style="opacity:1" fill="#c2c3c2" d="M 139.5,11.5 C 140.5,11.5 141.5,11.5 142.5,11.5C 142.5,12.5 142.5,13.5 142.5,14.5C 141.5,14.5 140.5,14.5 139.5,14.5C 139.5,13.5 139.5,12.5 139.5,11.5 Z"/></g>
<g><path style="opacity:1" fill="#242323" d="M 139.5,14.5 C 140.5,14.5 141.5,14.5 142.5,14.5C 143.5,14.5 144.5,14.5 145.5,14.5C 145.5,15.5 145.5,16.5 145.5,17.5C 146.5,17.5 147.5,17.5 148.5,17.5C 148.5,18.5 148.5,19.5 148.5,20.5C 147.5,20.5 146.5,20.5 145.5,20.5C 144.5,20.5 143.5,20.5 142.5,20.5C 142.5,19.5 142.5,18.5 142.5,17.5C 141.5,17.5 140.5,17.5 139.5,17.5C 139.5,16.5 139.5,15.5 139.5,14.5 Z"/></g>
<g><path style="opacity:1" fill="#eeefee" d="M 33.5,17.5 C 33.5,18.5 33.5,19.5 33.5,20.5C 32.1667,20.5 30.8333,20.5 29.5,20.5C 29.5,19.5 29.5,18.5 29.5,17.5C 30.8333,17.5 32.1667,17.5 33.5,17.5 Z"/></g>
<g><path style="opacity:1" fill="#edeeed" d="M 148.5,17.5 C 149.5,17.5 150.5,17.5 151.5,17.5C 151.5,18.5 151.5,19.5 151.5,20.5C 150.5,20.5 149.5,20.5 148.5,20.5C 148.5,19.5 148.5,18.5 148.5,17.5 Z"/></g>
<g><path style="opacity:1" fill="#c2c3c2" d="M 29.5,20.5 C 29.5,21.5 29.5,22.5 29.5,23.5C 28.5,23.5 27.5,23.5 26.5,23.5C 26.5,22.5 26.5,21.5 26.5,20.5C 27.5,20.5 28.5,20.5 29.5,20.5 Z"/></g>
<g><path style="opacity:1" fill="#9b9090" d="M 139.5,17.5 C 140.5,17.5 141.5,17.5 142.5,17.5C 142.5,18.5 142.5,19.5 142.5,20.5C 143.5,20.5 144.5,20.5 145.5,20.5C 145.5,21.5 145.5,22.5 145.5,23.5C 144.5,23.5 143.5,23.5 142.5,23.5C 142.5,24.5 142.5,25.5 142.5,26.5C 142.5,31.5 142.5,36.5 142.5,41.5C 141.5,41.5 140.5,41.5 139.5,41.5C 139.5,42.8333 139.5,44.1667 139.5,45.5C 138.5,45.5 137.5,45.5 136.5,45.5C 136.5,46.5 136.5,47.5 136.5,48.5C 130.5,48.5 124.5,48.5 118.5,48.5C 118.5,47.5 118.5,46.5 118.5,45.5C 117.5,45.5 116.5,45.5 115.5,45.5C 115.5,44.1667 115.5,42.8333 115.5,41.5C 114.5,41.5 113.5,41.5 112.5,41.5C 112.5,36.5 112.5,31.5 112.5,26.5C 113.5,26.5 114.5,26.5 115.5,26.5C 115.5,25.5 115.5,24.5 115.5,23.5C 116.5,23.5 117.5,23.5 118.5,23.5C 118.5,22.5 118.5,21.5 118.5,20.5C 124.5,20.5 130.5,20.5 136.5,20.5C 136.5,21.5 136.5,22.5 136.5,23.5C 137.5,23.5 138.5,23.5 139.5,23.5C 139.5,21.5 139.5,19.5 139.5,17.5 Z"/></g>
<g><path style="opacity:1" fill="#000000" d="M 148.5,20.5 C 149.5,20.5 150.5,20.5 151.5,20.5C 151.5,21.5 151.5,22.5 151.5,23.5C 150.5,23.5 149.5,23.5 148.5,23.5C 148.5,22.5 148.5,21.5 148.5,20.5 Z"/></g>
<g><path style="opacity:1" fill="#c0c1c0" d="M 151.5,20.5 C 152.5,20.5 153.5,20.5 154.5,20.5C 154.5,21.5 154.5,22.5 154.5,23.5C 153.5,23.5 152.5,23.5 151.5,23.5C 151.5,22.5 151.5,21.5 151.5,20.5 Z"/></g>
<g><path style="opacity:1" fill="#aaabaa" d="M 26.5,23.5 C 26.5,24.5 26.5,25.5 26.5,26.5C 25.5,26.5 24.5,26.5 23.5,26.5C 23.5,25.5 23.5,24.5 23.5,23.5C 24.5,23.5 25.5,23.5 26.5,23.5 Z"/></g>
<g><path style="opacity:1" fill="#000000" d="M 151.5,23.5 C 152.5,23.5 153.5,23.5 154.5,23.5C 154.5,24.5 154.5,25.5 154.5,26.5C 153.5,26.5 152.5,26.5 151.5,26.5C 151.5,25.5 151.5,24.5 151.5,23.5 Z"/></g>
<g><path style="opacity:1" fill="#a7a9a8" d="M 154.5,23.5 C 155.5,23.5 156.5,23.5 157.5,23.5C 157.5,24.5 157.5,25.5 157.5,26.5C 156.5,26.5 155.5,26.5 154.5,26.5C 154.5,25.5 154.5,24.5 154.5,23.5 Z"/></g>
<g><path style="opacity:1" fill="#b0b1b0" d="M 23.5,26.5 C 23.5,27.5 23.5,28.5 23.5,29.5C 22.5,29.5 21.5,29.5 20.5,29.5C 20.5,28.5 20.5,27.5 20.5,26.5C 21.5,26.5 22.5,26.5 23.5,26.5 Z"/></g>
<g><path style="opacity:1" fill="#000000" d="M 154.5,26.5 C 155.5,26.5 156.5,26.5 157.5,26.5C 157.5,27.5 157.5,28.5 157.5,29.5C 156.5,29.5 155.5,29.5 154.5,29.5C 154.5,28.5 154.5,27.5 154.5,26.5 Z"/></g>
<g><path style="opacity:1" fill="#adaead" d="M 157.5,26.5 C 158.833,26.5 160.167,26.5 161.5,26.5C 161.5,27.5 161.5,28.5 161.5,29.5C 160.167,29.5 158.833,29.5 157.5,29.5C 157.5,28.5 157.5,27.5 157.5,26.5 Z"/></g>
<g><path style="opacity:1" fill="#d0d1d0" d="M 20.5,29.5 C 20.5,30.5 20.5,31.5 20.5,32.5C 19.5,32.5 18.5,32.5 17.5,32.5C 17.5,31.5 17.5,30.5 17.5,29.5C 18.5,29.5 19.5,29.5 20.5,29.5 Z"/></g>
<g><path style="opacity:1" fill="#000000" d="M 157.5,29.5 C 158.833,29.5 160.167,29.5 161.5,29.5C 161.5,30.5 161.5,31.5 161.5,32.5C 160.167,32.5 158.833,32.5 157.5,32.5C 157.5,31.5 157.5,30.5 157.5,29.5 Z"/></g>
<g><path style="opacity:1" fill="#cfd0cf" d="M 161.5,29.5 C 162.5,29.5 163.5,29.5 164.5,29.5C 164.5,30.5 164.5,31.5 164.5,32.5C 163.5,32.5 162.5,32.5 161.5,32.5C 161.5,31.5 161.5,30.5 161.5,29.5 Z"/></g>
<g><path style="opacity:1" fill="#474443" d="M 100.5,-0.5 C 102.5,-0.5 104.5,-0.5 106.5,-0.5C 106.5,0.5 106.5,1.5 106.5,2.5C 106.5,3.5 106.5,4.5 106.5,5.5C 103.5,5.5 100.5,5.5 97.5,5.5C 97.5,7.5 97.5,9.5 97.5,11.5C 95.1667,11.5 92.8333,11.5 90.5,11.5C 90.5,13.5 90.5,15.5 90.5,17.5C 89.5,17.5 88.5,17.5 87.5,17.5C 87.5,19.5 87.5,21.5 87.5,23.5C 86.5,23.5 85.5,23.5 84.5,23.5C 84.5,32.8333 84.5,42.1667 84.5,51.5C 85.5,51.5 86.5,51.5 87.5,51.5C 87.5,53.5 87.5,55.5 87.5,57.5C 86.5,57.5 85.5,57.5 84.5,57.5C 84.5,56.5 84.5,55.5 84.5,54.5C 83.5,54.5 82.5,54.5 81.5,54.5C 81.5,52.5 81.5,50.5 81.5,48.5C 80.5,48.5 79.5,48.5 78.5,48.5C 78.5,41.1667 78.5,33.8333 78.5,26.5C 79.5,26.5 80.5,26.5 81.5,26.5C 81.5,23.5 81.5,20.5 81.5,17.5C 82.5,17.5 83.5,17.5 84.5,17.5C 84.5,16.5 84.5,15.5 84.5,14.5C 85.5,14.5 86.5,14.5 87.5,14.5C 87.5,10.5 87.5,6.5 87.5,2.5C 91.8333,2.5 96.1667,2.5 100.5,2.5C 100.5,1.5 100.5,0.5 100.5,-0.5 Z"/></g>
<g><path style="opacity:1" fill="#151413" d="M 161.5,32.5 C 162.5,32.5 163.5,32.5 164.5,32.5C 164.5,33.5 164.5,34.5 164.5,35.5C 165.5,35.5 166.5,35.5 167.5,35.5C 167.5,36.5 167.5,37.5 167.5,38.5C 167.5,39.5 167.5,40.5 167.5,41.5C 166.5,41.5 165.5,41.5 164.5,41.5C 164.5,40.5 164.5,39.5 164.5,38.5C 163.5,38.5 162.5,38.5 161.5,38.5C 161.5,36.5 161.5,34.5 161.5,32.5 Z"/></g>
<g><path style="opacity:1" fill="#797a79" d="M 14.5,38.5 C 14.5,39.5 14.5,40.5 14.5,41.5C 13.5,41.5 12.5,41.5 11.5,41.5C 11.5,40.5 11.5,39.5 11.5,38.5C 12.5,38.5 13.5,38.5 14.5,38.5 Z"/></g>
<g><path style="opacity:1" fill="#767776" d="M 167.5,38.5 C 168.5,38.5 169.5,38.5 170.5,38.5C 170.5,39.5 170.5,40.5 170.5,41.5C 169.5,41.5 168.5,41.5 167.5,41.5C 167.5,40.5 167.5,39.5 167.5,38.5 Z"/></g>
<g><path style="opacity:1" fill="#e1e2e1" d="M 8.5,48.5 C 8.5,49.5 8.5,50.5 8.5,51.5C 7.5,51.5 6.5,51.5 5.5,51.5C 5.5,50.5 5.5,49.5 5.5,48.5C 6.5,48.5 7.5,48.5 8.5,48.5 Z"/></g>
<g><path style="opacity:1" fill="#e0e1e0" d="M 173.5,48.5 C 174.5,48.5 175.5,48.5 176.5,48.5C 176.5,49.5 176.5,50.5 176.5,51.5C 176.5,50.5 176.5,49.5 176.5,48.5C 175.5,48.5 174.5,48.5 173.5,48.5 Z"/></g>
<g><path style="opacity:1" fill="#635d5c" d="M 118.5,2.5 C 119.5,2.5 120.5,2.5 121.5,2.5C 121.5,3.5 121.5,4.5 121.5,5.5C 121.5,6.5 121.5,7.5 121.5,8.5C 119.5,8.5 117.5,8.5 115.5,8.5C 115.5,9.5 115.5,10.5 115.5,11.5C 111.5,11.5 107.5,11.5 103.5,11.5C 103.5,12.5 103.5,13.5 103.5,14.5C 102.5,14.5 101.5,14.5 100.5,14.5C 100.5,15.5 100.5,16.5 100.5,17.5C 99.5,17.5 98.5,17.5 97.5,17.5C 97.5,18.5 97.5,19.5 97.5,20.5C 96.1667,20.5 94.8333,20.5 93.5,20.5C 93.5,28.8333 93.5,37.1667 93.5,45.5C 94.8333,45.5 96.1667,45.5 97.5,45.5C 97.5,46.5 97.5,47.5 97.5,48.5C 98.5,48.5 99.5,48.5 100.5,48.5C 100.5,49.5 100.5,50.5 100.5,51.5C 101.5,51.5 102.5,51.5 103.5,51.5C 103.5,52.5 103.5,53.5 103.5,54.5C 104.5,54.5 105.5,54.5 106.5,54.5C 106.5,55.5 106.5,56.5 106.5,57.5C 107.5,57.5 108.5,57.5 109.5,57.5C 109.5,58.5 109.5,59.5 109.5,60.5C 119.5,60.5 129.5,60.5 139.5,60.5C 139.5,59.5 139.5,58.5 139.5,57.5C 141.5,57.5 143.5,57.5 145.5,57.5C 145.5,56.5 145.5,55.5 145.5,54.5C 146.5,54.5 147.5,54.5 148.5,54.5C 148.5,53.5 148.5,52.5 148.5,51.5C 149.5,51.5 150.5,51.5 151.5,51.5C 151.5,49.5 151.5,47.5 151.5,45.5C 152.5,45.5 153.5,45.5 154.5,45.5C 154.5,42.1667 154.5,38.8333 154.5,35.5C 155.5,35.5 156.5,35.5 157.5,35.5C 157.5,34.5 157.5,33.5 157.5,32.5C 158.833,32.5 160.167,32.5 161.5,32.5C 161.5,34.5 161.5,36.5 161.5,38.5C 162.5,38.5 163.5,38.5 164.5,38.5C 164.5,39.5 164.5,40.5 164.5,41.5C 163.5,41.5 162.5,41.5 161.5,41.5C 161.5,42.8333 161.5,44.1667 161.5,45.5C 160.167,45.5 158.833,45.5 157.5,45.5C 157.5,47.5 157.5,49.5 157.5,51.5C 156.5,51.5 155.5,51.5 154.5,51.5C 154.5,52.5 154.5,53.5 154.5,54.5C 153.5,54.5 152.5,54.5 151.5,54.5C 151.5,55.5 151.5,56.5 151.5,57.5C 150.5,57.5 149.5,57.5 148.5,57.5C 148.5,58.5 148.5,59.5 148.5,60.5C 147.5,60.5 146.5,60.5 145.5,60.5C 145.5,61.5 145.5,62.5 145.5,63.5C 143.5,63.5 141.5,63.5 139.5,63.5C 139.5,64.5 139.5,65.5 139.5,66.5C 127.5,66.5 115.5,66.5 103.5,66.5C 103.5,65.5 103.5,64.5 103.5,63.5C 102.5,63.5 101.5,63.5 100.5,63.5C 100.5,62.5 100.5,61.5 100.5,60.5C 99.5,60.5 98.5,60.5 97.5,60.5C 97.5,59.5 97.5,58.5 97.5,57.5C 96.1667,57.5 94.8333,57.5 93.5,57.5C 93.5,56.5 93.5,55.5 93.5,54.5C 92.5,54.5 91.5,54.5 90.5,54.5C 90.5,51.5 90.5,48.5 90.5,45.5C 89.5,45.5 88.5,45.5 87.5,45.5C 87.5,38.1667 87.5,30.8333 87.5,23.5C 87.5,21.5 87.5,19.5 87.5,17.5C 88.5,17.5 89.5,17.5 90.5,17.5C 90.5,15.5 90.5,13.5 90.5,11.5C 92.8333,11.5 95.1667,11.5 97.5,11.5C 97.5,9.5 97.5,7.5 97.5,5.5C 100.5,5.5 103.5,5.5 106.5,5.5C 110.5,5.5 114.5,5.5 118.5,5.5C 118.5,4.5 118.5,3.5 118.5,2.5 Z"/></g>
<g><path style="opacity:1" fill="#8b8281" d="M 127.5,11.5 C 129.5,11.5 131.5,11.5 133.5,11.5C 133.5,12.5 133.5,13.5 133.5,14.5C 135.5,14.5 137.5,14.5 139.5,14.5C 139.5,15.5 139.5,16.5 139.5,17.5C 139.5,19.5 139.5,21.5 139.5,23.5C 138.5,23.5 137.5,23.5 136.5,23.5C 136.5,22.5 136.5,21.5 136.5,20.5C 130.5,20.5 124.5,20.5 118.5,20.5C 118.5,21.5 118.5,22.5 118.5,23.5C 117.5,23.5 116.5,23.5 115.5,23.5C 115.5,24.5 115.5,25.5 115.5,26.5C 114.5,26.5 113.5,26.5 112.5,26.5C 112.5,31.5 112.5,36.5 112.5,41.5C 113.5,41.5 114.5,41.5 115.5,41.5C 115.5,42.8333 115.5,44.1667 115.5,45.5C 116.5,45.5 117.5,45.5 118.5,45.5C 118.5,46.5 118.5,47.5 118.5,48.5C 124.5,48.5 130.5,48.5 136.5,48.5C 136.5,47.5 136.5,46.5 136.5,45.5C 137.5,45.5 138.5,45.5 139.5,45.5C 139.5,44.1667 139.5,42.8333 139.5,41.5C 140.5,41.5 141.5,41.5 142.5,41.5C 142.5,36.5 142.5,31.5 142.5,26.5C 144.5,26.5 146.5,26.5 148.5,26.5C 148.5,33.8333 148.5,41.1667 148.5,48.5C 147.5,48.5 146.5,48.5 145.5,48.5C 145.5,49.5 145.5,50.5 145.5,51.5C 144.5,51.5 143.5,51.5 142.5,51.5C 142.5,52.5 142.5,53.5 142.5,54.5C 133.5,54.5 124.5,54.5 115.5,54.5C 115.5,53.5 115.5,52.5 115.5,51.5C 114.5,51.5 113.5,51.5 112.5,51.5C 112.5,50.5 112.5,49.5 112.5,48.5C 111.5,48.5 110.5,48.5 109.5,48.5C 109.5,40.1667 109.5,31.8333 109.5,23.5C 110.5,23.5 111.5,23.5 112.5,23.5C 112.5,22.5 112.5,21.5 112.5,20.5C 113.5,20.5 114.5,20.5 115.5,20.5C 115.5,19.5 115.5,18.5 115.5,17.5C 116.5,17.5 117.5,17.5 118.5,17.5C 118.5,16.5 118.5,15.5 118.5,14.5C 120.5,14.5 122.5,14.5 124.5,14.5C 124.5,13.5 124.5,12.5 124.5,11.5C 125.5,11.5 126.5,11.5 127.5,11.5 Z"/></g>
<g><path style="opacity:1" fill="#787170" d="M 121.5,8.5 C 123.5,8.5 125.5,8.5 127.5,8.5C 127.5,9.5 127.5,10.5 127.5,11.5C 126.5,11.5 125.5,11.5 124.5,11.5C 124.5,12.5 124.5,13.5 124.5,14.5C 122.5,14.5 120.5,14.5 118.5,14.5C 118.5,15.5 118.5,16.5 118.5,17.5C 117.5,17.5 116.5,17.5 115.5,17.5C 115.5,18.5 115.5,19.5 115.5,20.5C 114.5,20.5 113.5,20.5 112.5,20.5C 112.5,21.5 112.5,22.5 112.5,23.5C 111.5,23.5 110.5,23.5 109.5,23.5C 109.5,31.8333 109.5,40.1667 109.5,48.5C 110.5,48.5 111.5,48.5 112.5,48.5C 112.5,49.5 112.5,50.5 112.5,51.5C 113.5,51.5 114.5,51.5 115.5,51.5C 115.5,52.5 115.5,53.5 115.5,54.5C 124.5,54.5 133.5,54.5 142.5,54.5C 142.5,53.5 142.5,52.5 142.5,51.5C 143.5,51.5 144.5,51.5 145.5,51.5C 145.5,50.5 145.5,49.5 145.5,48.5C 146.5,48.5 147.5,48.5 148.5,48.5C 148.5,41.1667 148.5,33.8333 148.5,26.5C 146.5,26.5 144.5,26.5 142.5,26.5C 142.5,25.5 142.5,24.5 142.5,23.5C 143.5,23.5 144.5,23.5 145.5,23.5C 145.5,22.5 145.5,21.5 145.5,20.5C 146.5,20.5 147.5,20.5 148.5,20.5C 148.5,21.5 148.5,22.5 148.5,23.5C 149.5,23.5 150.5,23.5 151.5,23.5C 151.5,24.5 151.5,25.5 151.5,26.5C 152.5,26.5 153.5,26.5 154.5,26.5C 154.5,27.5 154.5,28.5 154.5,29.5C 155.5,29.5 156.5,29.5 157.5,29.5C 157.5,30.5 157.5,31.5 157.5,32.5C 157.5,33.5 157.5,34.5 157.5,35.5C 156.5,35.5 155.5,35.5 154.5,35.5C 154.5,38.8333 154.5,42.1667 154.5,45.5C 153.5,45.5 152.5,45.5 151.5,45.5C 151.5,47.5 151.5,49.5 151.5,51.5C 150.5,51.5 149.5,51.5 148.5,51.5C 148.5,52.5 148.5,53.5 148.5,54.5C 147.5,54.5 146.5,54.5 145.5,54.5C 145.5,55.5 145.5,56.5 145.5,57.5C 143.5,57.5 141.5,57.5 139.5,57.5C 139.5,58.5 139.5,59.5 139.5,60.5C 129.5,60.5 119.5,60.5 109.5,60.5C 109.5,59.5 109.5,58.5 109.5,57.5C 108.5,57.5 107.5,57.5 106.5,57.5C 106.5,56.5 106.5,55.5 106.5,54.5C 105.5,54.5 104.5,54.5 103.5,54.5C 103.5,53.5 103.5,52.5 103.5,51.5C 102.5,51.5 101.5,51.5 100.5,51.5C 100.5,50.5 100.5,49.5 100.5,48.5C 99.5,48.5 98.5,48.5 97.5,48.5C 97.5,47.5 97.5,46.5 97.5,45.5C 96.1667,45.5 94.8333,45.5 93.5,45.5C 93.5,37.1667 93.5,28.8333 93.5,20.5C 94.8333,20.5 96.1667,20.5 97.5,20.5C 97.5,19.5 97.5,18.5 97.5,17.5C 98.5,17.5 99.5,17.5 100.5,17.5C 100.5,16.5 100.5,15.5 100.5,14.5C 101.5,14.5 102.5,14.5 103.5,14.5C 103.5,13.5 103.5,12.5 103.5,11.5C 107.5,11.5 111.5,11.5 115.5,11.5C 115.5,10.5 115.5,9.5 115.5,8.5C 117.5,8.5 119.5,8.5 121.5,8.5 Z"/></g>
<g><path style="opacity:1" fill="#ab9f9e" d="M 121.5,23.5 C 125.5,23.5 129.5,23.5 133.5,23.5C 133.5,24.5 133.5,25.5 133.5,26.5C 134.5,26.5 135.5,26.5 136.5,26.5C 136.5,31.5 136.5,36.5 136.5,41.5C 135.5,41.5 134.5,41.5 133.5,41.5C 133.5,42.8333 133.5,44.1667 133.5,45.5C 129.5,45.5 125.5,45.5 121.5,45.5C 121.5,43.1667 121.5,40.8333 121.5,38.5C 120.5,38.5 119.5,38.5 118.5,38.5C 118.5,34.5 118.5,30.5 118.5,26.5C 119.5,26.5 120.5,26.5 121.5,26.5C 121.5,25.5 121.5,24.5 121.5,23.5 Z"/></g>
<g><path style="opacity:1" fill="#868786" d="M 5.5,57.5 C 5.5,58.5 5.5,59.5 5.5,60.5C 4.5,60.5 3.5,60.5 2.5,60.5C 2.5,59.5 2.5,58.5 2.5,57.5C 3.5,57.5 4.5,57.5 5.5,57.5 Z"/></g>
<g><path style="opacity:1" fill="#858786" d="M 176.5,57.5 C 177.5,57.5 178.5,57.5 179.5,57.5C 179.5,58.5 179.5,59.5 179.5,60.5C 179.5,59.5 179.5,58.5 179.5,57.5C 178.5,57.5 177.5,57.5 176.5,57.5 Z"/></g>
<g><path style="opacity:1" fill="#565250" d="M 87.5,23.5 C 87.5,30.8333 87.5,38.1667 87.5,45.5C 88.5,45.5 89.5,45.5 90.5,45.5C 90.5,48.5 90.5,51.5 90.5,54.5C 91.5,54.5 92.5,54.5 93.5,54.5C 93.5,55.5 93.5,56.5 93.5,57.5C 94.8333,57.5 96.1667,57.5 97.5,57.5C 97.5,58.5 97.5,59.5 97.5,60.5C 98.5,60.5 99.5,60.5 100.5,60.5C 100.5,61.5 100.5,62.5 100.5,63.5C 101.5,63.5 102.5,63.5 103.5,63.5C 103.5,64.5 103.5,65.5 103.5,66.5C 115.5,66.5 127.5,66.5 139.5,66.5C 139.5,65.5 139.5,64.5 139.5,63.5C 141.5,63.5 143.5,63.5 145.5,63.5C 145.5,62.5 145.5,61.5 145.5,60.5C 146.5,60.5 147.5,60.5 148.5,60.5C 148.5,59.5 148.5,58.5 148.5,57.5C 149.5,57.5 150.5,57.5 151.5,57.5C 151.5,56.5 151.5,55.5 151.5,54.5C 152.5,54.5 153.5,54.5 154.5,54.5C 154.5,53.5 154.5,52.5 154.5,51.5C 155.5,51.5 156.5,51.5 157.5,51.5C 157.5,49.5 157.5,47.5 157.5,45.5C 158.833,45.5 160.167,45.5 161.5,45.5C 161.5,44.1667 161.5,42.8333 161.5,41.5C 162.5,41.5 163.5,41.5 164.5,41.5C 165.5,41.5 166.5,41.5 167.5,41.5C 167.5,43.8333 167.5,46.1667 167.5,48.5C 168.5,48.5 169.5,48.5 170.5,48.5C 170.5,49.5 170.5,50.5 170.5,51.5C 168.5,51.5 166.5,51.5 164.5,51.5C 164.5,52.5 164.5,53.5 164.5,54.5C 163.5,54.5 162.5,54.5 161.5,54.5C 161.5,56.5 161.5,58.5 161.5,60.5C 160.167,60.5 158.833,60.5 157.5,60.5C 157.5,61.5 157.5,62.5 157.5,63.5C 156.5,63.5 155.5,63.5 154.5,63.5C 154.5,64.5 154.5,65.5 154.5,66.5C 153.5,66.5 152.5,66.5 151.5,66.5C 151.5,67.5 151.5,68.5 151.5,69.5C 150.5,69.5 149.5,69.5 148.5,69.5C 148.5,70.5 148.5,71.5 148.5,72.5C 133.5,72.5 118.5,72.5 103.5,72.5C 103.5,71.5 103.5,70.5 103.5,69.5C 102.5,69.5 101.5,69.5 100.5,69.5C 100.5,68.5 100.5,67.5 100.5,66.5C 99.5,66.5 98.5,66.5 97.5,66.5C 97.5,65.5 97.5,64.5 97.5,63.5C 96.1667,63.5 94.8333,63.5 93.5,63.5C 93.5,62.5 93.5,61.5 93.5,60.5C 92.5,60.5 91.5,60.5 90.5,60.5C 90.5,59.5 90.5,58.5 90.5,57.5C 89.5,57.5 88.5,57.5 87.5,57.5C 87.5,55.5 87.5,53.5 87.5,51.5C 86.5,51.5 85.5,51.5 84.5,51.5C 84.5,42.1667 84.5,32.8333 84.5,23.5C 85.5,23.5 86.5,23.5 87.5,23.5 Z"/></g>
<g><path style="opacity:1" fill="#33312f" d="M 75.5,-0.5 C 77.5,-0.5 79.5,-0.5 81.5,-0.5C 81.5,0.5 81.5,1.5 81.5,2.5C 83.5,2.5 85.5,2.5 87.5,2.5C 87.5,6.5 87.5,10.5 87.5,14.5C 86.5,14.5 85.5,14.5 84.5,14.5C 84.5,15.5 84.5,16.5 84.5,17.5C 83.5,17.5 82.5,17.5 81.5,17.5C 81.5,20.5 81.5,23.5 81.5,26.5C 80.5,26.5 79.5,26.5 78.5,26.5C 78.5,33.8333 78.5,41.1667 78.5,48.5C 79.5,48.5 80.5,48.5 81.5,48.5C 81.5,50.5 81.5,52.5 81.5,54.5C 82.5,54.5 83.5,54.5 84.5,54.5C 84.5,55.5 84.5,56.5 84.5,57.5C 85.5,57.5 86.5,57.5 87.5,57.5C 87.5,61.5 87.5,65.5 87.5,69.5C 88.5,69.5 89.5,69.5 90.5,69.5C 90.5,70.5 90.5,71.5 90.5,72.5C 91.5,72.5 92.5,72.5 93.5,72.5C 93.5,73.5 93.5,74.5 93.5,75.5C 94.8333,75.5 96.1667,75.5 97.5,75.5C 97.5,76.5 97.5,77.5 97.5,78.5C 95.1667,78.5 92.8333,78.5 90.5,78.5C 90.5,77.5 90.5,76.5 90.5,75.5C 89.5,75.5 88.5,75.5 87.5,75.5C 87.5,74.5 87.5,73.5 87.5,72.5C 86.5,72.5 85.5,72.5 84.5,72.5C 84.5,71.5 84.5,70.5 84.5,69.5C 83.5,69.5 82.5,69.5 81.5,69.5C 81.5,67.5 81.5,65.5 81.5,63.5C 80.5,63.5 79.5,63.5 78.5,63.5C 78.5,62.5 78.5,61.5 78.5,60.5C 77.5,60.5 76.5,60.5 75.5,60.5C 75.5,58.5 75.5,56.5 75.5,54.5C 74.5,54.5 73.5,54.5 72.5,54.5C 72.5,40.1667 72.5,25.8333 72.5,11.5C 74.5,11.5 76.5,11.5 78.5,11.5C 78.5,8.5 78.5,5.5 78.5,2.5C 77.5,2.5 76.5,2.5 75.5,2.5C 75.5,1.5 75.5,0.5 75.5,-0.5 Z"/></g>
<g><path style="opacity:1" fill="#403d3c" d="M 170.5,51.5 C 170.5,52.5 170.5,53.5 170.5,54.5C 171.5,54.5 172.5,54.5 173.5,54.5C 173.5,56.5 173.5,58.5 173.5,60.5C 171.5,60.5 169.5,60.5 167.5,60.5C 167.5,62.5 167.5,64.5 167.5,66.5C 166.5,66.5 165.5,66.5 164.5,66.5C 164.5,67.5 164.5,68.5 164.5,69.5C 163.5,69.5 162.5,69.5 161.5,69.5C 161.5,70.5 161.5,71.5 161.5,72.5C 160.167,72.5 158.833,72.5 157.5,72.5C 157.5,73.5 157.5,74.5 157.5,75.5C 156.5,75.5 155.5,75.5 154.5,75.5C 154.5,76.5 154.5,77.5 154.5,78.5C 151.5,78.5 148.5,78.5 145.5,78.5C 145.5,79.5 145.5,80.5 145.5,81.5C 131.5,81.5 117.5,81.5 103.5,81.5C 103.5,80.5 103.5,79.5 103.5,78.5C 101.5,78.5 99.5,78.5 97.5,78.5C 97.5,77.5 97.5,76.5 97.5,75.5C 96.1667,75.5 94.8333,75.5 93.5,75.5C 93.5,74.5 93.5,73.5 93.5,72.5C 92.5,72.5 91.5,72.5 90.5,72.5C 90.5,71.5 90.5,70.5 90.5,69.5C 89.5,69.5 88.5,69.5 87.5,69.5C 87.5,65.5 87.5,61.5 87.5,57.5C 88.5,57.5 89.5,57.5 90.5,57.5C 90.5,58.5 90.5,59.5 90.5,60.5C 91.5,60.5 92.5,60.5 93.5,60.5C 93.5,61.5 93.5,62.5 93.5,63.5C 94.8333,63.5 96.1667,63.5 97.5,63.5C 97.5,64.5 97.5,65.5 97.5,66.5C 98.5,66.5 99.5,66.5 100.5,66.5C 100.5,67.5 100.5,68.5 100.5,69.5C 101.5,69.5 102.5,69.5 103.5,69.5C 103.5,70.5 103.5,71.5 103.5,72.5C 118.5,72.5 133.5,72.5 148.5,72.5C 148.5,71.5 148.5,70.5 148.5,69.5C 149.5,69.5 150.5,69.5 151.5,69.5C 151.5,68.5 151.5,67.5 151.5,66.5C 152.5,66.5 153.5,66.5 154.5,66.5C 154.5,65.5 154.5,64.5 154.5,63.5C 155.5,63.5 156.5,63.5 157.5,63.5C 157.5,62.5 157.5,61.5 157.5,60.5C 158.833,60.5 160.167,60.5 161.5,60.5C 161.5,58.5 161.5,56.5 161.5,54.5C 162.5,54.5 163.5,54.5 164.5,54.5C 164.5,53.5 164.5,52.5 164.5,51.5C 166.5,51.5 168.5,51.5 170.5,51.5 Z"/></g>
<g><path style="opacity:1" fill="#969696" d="M -0.5,66.5 C 0.5,66.5 1.5,66.5 2.5,66.5C 2.5,68.5 2.5,70.5 2.5,72.5C 1.5,72.5 0.5,72.5 -0.5,72.5C -0.5,70.5 -0.5,68.5 -0.5,66.5 Z"/></g>
<g><path style="opacity:1" fill="#969696" d="M 179.5,66.5 C 180.5,66.5 181.5,66.5 182.5,66.5C 182.5,68.5 182.5,70.5 182.5,72.5C 181.5,72.5 180.5,72.5 179.5,72.5C 179.5,70.5 179.5,68.5 179.5,66.5 Z"/></g>
<g><path style="opacity:1" fill="#302f2d" d="M 173.5,60.5 C 173.5,61.5 173.5,62.5 173.5,63.5C 174.5,63.5 175.5,63.5 176.5,63.5C 176.5,64.5 176.5,65.5 176.5,66.5C 175.5,66.5 174.5,66.5 173.5,66.5C 173.5,67.5 173.5,68.5 173.5,69.5C 172.5,69.5 171.5,69.5 170.5,69.5C 170.5,70.5 170.5,71.5 170.5,72.5C 169.5,72.5 168.5,72.5 167.5,72.5C 167.5,73.5 167.5,74.5 167.5,75.5C 165.5,75.5 163.5,75.5 161.5,75.5C 161.5,76.5 161.5,77.5 161.5,78.5C 160.167,78.5 158.833,78.5 157.5,78.5C 157.5,79.5 157.5,80.5 157.5,81.5C 154.5,81.5 151.5,81.5 148.5,81.5C 148.5,82.5 148.5,83.5 148.5,84.5C 147.5,84.5 146.5,84.5 145.5,84.5C 145.5,85.5 145.5,86.5 145.5,87.5C 133.5,87.5 121.5,87.5 109.5,87.5C 109.5,86.5 109.5,85.5 109.5,84.5C 106.5,84.5 103.5,84.5 100.5,84.5C 100.5,83.5 100.5,82.5 100.5,81.5C 99.5,81.5 98.5,81.5 97.5,81.5C 97.5,80.5 97.5,79.5 97.5,78.5C 99.5,78.5 101.5,78.5 103.5,78.5C 103.5,79.5 103.5,80.5 103.5,81.5C 117.5,81.5 131.5,81.5 145.5,81.5C 145.5,80.5 145.5,79.5 145.5,78.5C 148.5,78.5 151.5,78.5 154.5,78.5C 154.5,77.5 154.5,76.5 154.5,75.5C 155.5,75.5 156.5,75.5 157.5,75.5C 157.5,74.5 157.5,73.5 157.5,72.5C 158.833,72.5 160.167,72.5 161.5,72.5C 161.5,71.5 161.5,70.5 161.5,69.5C 162.5,69.5 163.5,69.5 164.5,69.5C 164.5,68.5 164.5,67.5 164.5,66.5C 165.5,66.5 166.5,66.5 167.5,66.5C 167.5,64.5 167.5,62.5 167.5,60.5C 169.5,60.5 171.5,60.5 173.5,60.5 Z"/></g>
<g><path style="opacity:1" fill="#848484" d="M -0.5,96.5 C 0.5,96.5 1.5,96.5 2.5,96.5C 2.5,99.5 2.5,102.5 2.5,105.5C 1.5,105.5 0.5,105.5 -0.5,105.5C -0.5,102.5 -0.5,99.5 -0.5,96.5 Z"/></g>
<g><path style="opacity:1" fill="#848484" d="M 182.5,96.5 C 182.5,99.5 182.5,102.5 182.5,105.5C 181.5,105.5 180.5,105.5 179.5,105.5C 179.5,102.5 179.5,99.5 179.5,96.5C 180.5,96.5 181.5,96.5 182.5,96.5 Z"/></g>
<g><path style="opacity:1" fill="#868786" d="M 2.5,111.5 C 3.5,111.5 4.5,111.5 5.5,111.5C 5.5,112.5 5.5,113.5 5.5,114.5C 4.5,114.5 3.5,114.5 2.5,114.5C 2.5,113.5 2.5,112.5 2.5,111.5 Z"/></g>
<g><path style="opacity:1" fill="#868787" d="M 179.5,111.5 C 179.5,112.5 179.5,113.5 179.5,114.5C 178.5,114.5 177.5,114.5 176.5,114.5C 176.5,113.5 176.5,112.5 176.5,111.5C 177.5,111.5 178.5,111.5 179.5,111.5 Z"/></g>
<g><path style="opacity:1" fill="#e1e2e1" d="M 5.5,120.5 C 6.5,120.5 7.5,120.5 8.5,120.5C 8.5,121.5 8.5,122.5 8.5,123.5C 7.5,123.5 6.5,123.5 5.5,123.5C 5.5,122.5 5.5,121.5 5.5,120.5 Z"/></g>
<g><path style="opacity:1" fill="#e1e2e1" d="M 176.5,120.5 C 176.5,121.5 176.5,122.5 176.5,123.5C 175.5,123.5 174.5,123.5 173.5,123.5C 173.5,122.5 173.5,121.5 173.5,120.5C 174.5,120.5 175.5,120.5 176.5,120.5 Z"/></g>
<g><path style="opacity:1" fill="#797a79" d="M 11.5,130.5 C 12.5,130.5 13.5,130.5 14.5,130.5C 14.5,131.5 14.5,132.5 14.5,133.5C 13.5,133.5 12.5,133.5 11.5,133.5C 11.5,132.5 11.5,131.5 11.5,130.5 Z"/></g>
<g><path style="opacity:1" fill="#797a79" d="M 170.5,130.5 C 170.5,131.5 170.5,132.5 170.5,133.5C 169.5,133.5 168.5,133.5 167.5,133.5C 167.5,132.5 167.5,131.5 167.5,130.5C 168.5,130.5 169.5,130.5 170.5,130.5 Z"/></g>
<g><path style="opacity:1" fill="#d0d1d1" d="M 17.5,139.5 C 18.5,139.5 19.5,139.5 20.5,139.5C 20.5,140.5 20.5,141.5 20.5,142.5C 19.5,142.5 18.5,142.5 17.5,142.5C 17.5,141.5 17.5,140.5 17.5,139.5 Z"/></g>
<g><path style="opacity:1" fill="#d0d1d0" d="M 164.5,139.5 C 164.5,140.5 164.5,141.5 164.5,142.5C 163.5,142.5 162.5,142.5 161.5,142.5C 161.5,141.5 161.5,140.5 161.5,139.5C 162.5,139.5 163.5,139.5 164.5,139.5 Z"/></g>
<g><path style="opacity:1" fill="#b0b1b0" d="M 20.5,142.5 C 21.5,142.5 22.5,142.5 23.5,142.5C 23.5,143.5 23.5,144.5 23.5,145.5C 22.5,145.5 21.5,145.5 20.5,145.5C 20.5,144.5 20.5,143.5 20.5,142.5 Z"/></g>
<g><path style="opacity:1" fill="#b0b1b0" d="M 161.5,142.5 C 161.5,143.5 161.5,144.5 161.5,145.5C 160.167,145.5 158.833,145.5 157.5,145.5C 157.5,144.5 157.5,143.5 157.5,142.5C 158.833,142.5 160.167,142.5 161.5,142.5 Z"/></g>
<g><path style="opacity:1" fill="#aaabaa" d="M 23.5,145.5 C 24.5,145.5 25.5,145.5 26.5,145.5C 26.5,146.5 26.5,147.5 26.5,148.5C 25.5,148.5 24.5,148.5 23.5,148.5C 23.5,147.5 23.5,146.5 23.5,145.5 Z"/></g>
<g><path style="opacity:1" fill="#aaabaa" d="M 157.5,145.5 C 157.5,146.5 157.5,147.5 157.5,148.5C 156.5,148.5 155.5,148.5 154.5,148.5C 154.5,147.5 154.5,146.5 154.5,145.5C 155.5,145.5 156.5,145.5 157.5,145.5 Z"/></g>
<g><path style="opacity:1" fill="#c2c3c2" d="M 26.5,148.5 C 27.5,148.5 28.5,148.5 29.5,148.5C 29.5,149.5 29.5,150.5 29.5,151.5C 28.5,151.5 27.5,151.5 26.5,151.5C 26.5,150.5 26.5,149.5 26.5,148.5 Z"/></g>
<g><path style="opacity:1" fill="#c2c3c2" d="M 154.5,148.5 C 154.5,149.5 154.5,150.5 154.5,151.5C 153.5,151.5 152.5,151.5 151.5,151.5C 151.5,150.5 151.5,149.5 151.5,148.5C 152.5,148.5 153.5,148.5 154.5,148.5 Z"/></g>
<g><path style="opacity:1" fill="#eeefee" d="M 29.5,151.5 C 30.8333,151.5 32.1667,151.5 33.5,151.5C 33.5,152.5 33.5,153.5 33.5,154.5C 32.1667,154.5 30.8333,154.5 29.5,154.5C 29.5,153.5 29.5,152.5 29.5,151.5 Z"/></g>
<g><path style="opacity:1" fill="#eeefee" d="M 151.5,151.5 C 151.5,152.5 151.5,153.5 151.5,154.5C 150.5,154.5 149.5,154.5 148.5,154.5C 148.5,153.5 148.5,152.5 148.5,151.5C 149.5,151.5 150.5,151.5 151.5,151.5 Z"/></g>
<g><path style="opacity:1" fill="#c5c6c5" d="M 39.5,157.5 C 40.5,157.5 41.5,157.5 42.5,157.5C 42.5,158.5 42.5,159.5 42.5,160.5C 41.5,160.5 40.5,160.5 39.5,160.5C 39.5,159.5 39.5,158.5 39.5,157.5 Z"/></g>
<g><path style="opacity:1" fill="#c5c6c5" d="M 142.5,157.5 C 142.5,158.5 142.5,159.5 142.5,160.5C 141.5,160.5 140.5,160.5 139.5,160.5C 139.5,159.5 139.5,158.5 139.5,157.5C 140.5,157.5 141.5,157.5 142.5,157.5 Z"/></g>
<g><path style="opacity:1" fill="#8d8e8d" d="M 45.5,160.5 C 46.5,160.5 47.5,160.5 48.5,160.5C 48.5,161.5 48.5,162.5 48.5,163.5C 47.5,163.5 46.5,163.5 45.5,163.5C 45.5,162.5 45.5,161.5 45.5,160.5 Z"/></g>
<g><path style="opacity:1" fill="#8e8f8e" d="M 136.5,160.5 C 136.5,161.5 136.5,162.5 136.5,163.5C 135.5,163.5 134.5,163.5 133.5,163.5C 133.5,162.5 133.5,161.5 133.5,160.5C 134.5,160.5 135.5,160.5 136.5,160.5 Z"/></g>
<g><path style="opacity:1" fill="#9a9b9a" d="M 51.5,163.5 C 52.5,163.5 53.5,163.5 54.5,163.5C 54.5,164.5 54.5,165.5 54.5,166.5C 53.5,166.5 52.5,166.5 51.5,166.5C 51.5,165.5 51.5,164.5 51.5,163.5 Z"/></g>
<g><path style="opacity:1" fill="#9a9b9b" d="M 130.5,163.5 C 130.5,164.5 130.5,165.5 130.5,166.5C 129.5,166.5 128.5,166.5 127.5,166.5C 127.5,165.5 127.5,164.5 127.5,163.5C 128.5,163.5 129.5,163.5 130.5,163.5 Z"/></g>
<g><path style="opacity:1" fill="#e1e2e1" d="M 57.5,166.5 C 58.5,166.5 59.5,166.5 60.5,166.5C 60.5,167.5 60.5,168.5 60.5,169.5C 59.5,169.5 58.5,169.5 57.5,169.5C 57.5,168.5 57.5,167.5 57.5,166.5 Z"/></g>
<g><path style="opacity:1" fill="#6f7070" d="M 60.5,166.5 C 61.5,166.5 62.5,166.5 63.5,166.5C 63.5,167.5 63.5,168.5 63.5,169.5C 62.5,169.5 61.5,169.5 60.5,169.5C 60.5,168.5 60.5,167.5 60.5,166.5 Z"/></g>
<g><path style="opacity:1" fill="#707170" d="M 121.5,166.5 C 121.5,167.5 121.5,168.5 121.5,169.5C 120.5,169.5 119.5,169.5 118.5,169.5C 118.5,168.5 118.5,167.5 118.5,166.5C 119.5,166.5 120.5,166.5 121.5,166.5 Z"/></g>
<g><path style="opacity:1" fill="#e1e2e1" d="M 121.5,166.5 C 122.5,166.5 123.5,166.5 124.5,166.5C 124.5,167.5 124.5,168.5 124.5,169.5C 123.5,169.5 122.5,169.5 121.5,169.5C 121.5,168.5 121.5,167.5 121.5,166.5 Z"/></g>
<g><path style="opacity:1" fill="#9a9a9a" d="M 69.5,169.5 C 71.5,169.5 73.5,169.5 75.5,169.5C 75.5,170.5 75.5,171.5 75.5,172.5C 73.5,172.5 71.5,172.5 69.5,172.5C 69.5,171.5 69.5,170.5 69.5,169.5 Z"/></g>
<g><path style="opacity:1" fill="#898989" d="M 112.5,169.5 C 112.5,170.5 112.5,171.5 112.5,172.5C 109.5,172.5 106.5,172.5 103.5,172.5C 103.5,171.5 103.5,170.5 103.5,169.5C 106.5,169.5 109.5,169.5 112.5,169.5 Z"/></g>
</svg>
