<?xml version="1.0" encoding="UTF-8"?>
<!DOCTYPE svg PUBLIC "-//W3C//DTD SVG 1.1//EN" "http://www.w3.org/Graphics/SVG/1.1/DTD/svg11.dtd">
<svg xmlns="http://www.w3.org/2000/svg" version="1.1" width="960px" height="573px" style="shape-rendering:geometricPrecision; text-rendering:geometricPrecision; image-rendering:optimizeQuality; fill-rule:evenodd; clip-rule:evenodd" xmlns:xlink="http://www.w3.org/1999/xlink">
<g><path style="opacity:1" fill="#fefffe" d="M 271.5,65.5 C 278.01,65.0698 284.344,65.9031 290.5,68C 298.43,72.2696 306.097,76.9363 313.5,82C 453.269,186.102 594.435,288.269 737,388.5C 737.903,387.299 739.069,386.465 740.5,386C 743.623,385.794 746.623,385.127 749.5,384C 751.208,381.957 753.208,380.29 755.5,379C 759.833,378.333 764.167,378.333 768.5,379C 770.102,380.935 771.269,383.101 772,385.5C 772.525,395.198 772.525,404.865 772,414.5C 779.87,422.039 788.037,429.206 796.5,436C 801,441.167 805.5,446.333 810,451.5C 812.56,460.36 810.06,467.194 802.5,472C 797.584,473.161 792.584,473.827 787.5,474C 782.833,476.667 778.167,479.333 773.5,482C 755.767,485.445 740.601,480.945 728,468.5C 724.392,460.95 721.058,453.283 718,445.5C 716.124,436.748 716.29,428.082 718.5,419.5C 718.392,418.558 718.059,417.725 717.5,417C 700.5,404 683.5,391 666.5,378C 543.657,289.492 421.657,199.825 300.5,109C 290.667,100.5 281.5,91.3333 273,81.5C 271.661,76.2636 271.161,70.9302 271.5,65.5 Z M 749.5,442.5 C 753.14,443.15 756.473,444.65 759.5,447C 763.833,450.667 768.167,454.333 772.5,458C 769.311,459.76 765.977,461.26 762.5,462.5C 754.831,458.994 749.831,453.161 747.5,445C 748.056,443.989 748.722,443.156 749.5,442.5 Z"/></g>
<g><path style="opacity:1" fill="#000000" d="M 273.5,67.5 C 278.675,67.272 283.675,68.1053 288.5,70C 296.43,74.2696 304.097,78.9363 311.5,84C 451.435,188.269 592.768,290.602 735.5,391C 736.416,391.374 737.25,391.874 738,392.5C 740.561,388.25 744.394,386.417 749.5,387C 752.167,385 754.833,383 757.5,381C 764.214,378.667 768.381,380.833 770,387.5C 770.929,396.59 770.429,405.59 768.5,414.5C 771.289,417.791 774.289,420.958 777.5,424C 789.085,432.374 799.251,442.207 808,453.5C 809.244,464.596 804.244,470.596 793,471.5C 791.236,471.456 789.569,471.122 788,470.5C 771.778,482.933 754.944,483.766 737.5,473C 734.72,471.188 732.22,469.021 730,466.5C 726.392,458.95 723.058,451.283 720,443.5C 717.234,434.579 718.068,426.079 722.5,418C 704.5,404 686.5,390 668.5,376C 545.657,287.492 423.657,197.825 302.5,107C 293.697,99.1975 285.197,91.0309 277,82.5C 273.992,77.984 272.826,72.984 273.5,67.5 Z M 749.5,442.5 C 748.722,443.156 748.056,443.989 747.5,445C 749.831,453.161 754.831,458.994 762.5,462.5C 765.977,461.26 769.311,459.76 772.5,458C 768.167,454.333 763.833,450.667 759.5,447C 756.473,444.65 753.14,443.15 749.5,442.5 Z"/></g>
<g><path style="opacity:1" fill="#717171" d="M 359.5,126.5 C 351.181,120.19 342.515,114.69 333.5,110C 339.21,115.701 345.543,120.701 352.5,125C 361.443,133.123 370.777,140.623 380.5,147.5C 380.5,148.167 380.167,148.5 379.5,148.5C 366.595,140.275 353.928,131.608 341.5,122.5C 340.479,123.002 340.312,123.668 341,124.5C 356.642,138.48 373.142,151.313 390.5,163C 389.552,163.483 388.552,163.649 387.5,163.5C 360.056,143.598 332.723,123.432 305.5,103C 297.03,95.531 288.863,87.6977 281,79.5C 278.99,77.1292 277.99,74.4625 278,71.5C 283.429,72.9622 288.596,75.1288 293.5,78C 312.992,91.9132 332.659,105.58 352.5,119C 355.088,121.416 357.422,123.916 359.5,126.5 Z"/></g>
<g><path style="opacity:1" fill="#c2c3c2" d="M 359.5,126.5 C 363.304,129.239 367.304,131.739 371.5,134C 492.12,223.445 613.454,311.612 735.5,398.5C 721.546,389.849 707.879,380.683 694.5,371C 692.593,369.878 690.593,369.045 688.5,368.5C 686.819,366.992 684.819,365.992 682.5,365.5C 591.871,300.512 501.204,235.512 410.5,170.5C 410.027,169.094 409.027,168.427 407.5,168.5C 407.5,167.833 407.167,167.5 406.5,167.5C 406.027,166.094 405.027,165.427 403.5,165.5C 396.431,158.767 388.764,152.767 380.5,147.5C 370.777,140.623 361.443,133.123 352.5,125C 345.543,120.701 339.21,115.701 333.5,110C 342.515,114.69 351.181,120.19 359.5,126.5 Z"/></g>
<g><path style="opacity:1" fill="#b6b6b6" d="M 379.5,148.5 C 386.939,154.937 394.939,160.603 403.5,165.5C 403.973,166.906 404.973,167.573 406.5,167.5C 407.167,167.5 407.5,167.833 407.5,168.5C 407.973,169.906 408.973,170.573 410.5,170.5C 501.204,235.512 591.871,300.512 682.5,365.5C 683.579,367.543 685.246,368.876 687.5,369.5C 702.9,380.303 717.733,391.97 732,404.5C 732.667,405.167 732.667,405.833 732,406.5C 730.115,408.02 727.949,409.02 725.5,409.5C 724.614,410.325 724.281,411.325 724.5,412.5C 631.885,343.854 538.885,275.687 445.5,208C 425.951,193.264 406.618,178.431 387.5,163.5C 388.552,163.649 389.552,163.483 390.5,163C 373.142,151.313 356.642,138.48 341,124.5C 340.312,123.668 340.479,123.002 341.5,122.5C 353.928,131.608 366.595,140.275 379.5,148.5 Z"/></g>
<g><path style="opacity:1" fill="#000000" d="M 380.5,147.5 C 388.764,152.767 396.431,158.767 403.5,165.5C 394.939,160.603 386.939,154.937 379.5,148.5C 380.167,148.5 380.5,148.167 380.5,147.5 Z"/></g>
<g><path style="opacity:1" fill="#000000" d="M 403.5,165.5 C 405.027,165.427 406.027,166.094 406.5,167.5C 404.973,167.573 403.973,166.906 403.5,165.5 Z"/></g>
<g><path style="opacity:1" fill="#000000" d="M 407.5,168.5 C 409.027,168.427 410.027,169.094 410.5,170.5C 408.973,170.573 407.973,169.906 407.5,168.5 Z"/></g>
<g><path style="opacity:1" fill="#000000" d="M 682.5,365.5 C 684.819,365.992 686.819,366.992 688.5,368.5C 687.833,368.5 687.5,368.833 687.5,369.5C 685.246,368.876 683.579,367.543 682.5,365.5 Z"/></g>
<g><path style="opacity:1" fill="#717171" d="M 688.5,368.5 C 690.593,369.045 692.593,369.878 694.5,371C 707.879,380.683 721.546,389.849 735.5,398.5C 736.789,397.499 738.122,397.666 739.5,399C 741.667,401.167 743.833,403.333 746,405.5C 746.667,407.167 746.667,408.833 746,410.5C 743.445,414.312 740.445,417.645 737,420.5C 732.38,418.349 728.214,415.683 724.5,412.5C 724.281,411.325 724.614,410.325 725.5,409.5C 727.949,409.02 730.115,408.02 732,406.5C 732.667,405.833 732.667,405.167 732,404.5C 717.733,391.97 702.9,380.303 687.5,369.5C 687.5,368.833 687.833,368.5 688.5,368.5 Z"/></g>
<g><path style="opacity:1" fill="#fec80d" d="M 747.5,461.5 C 748.143,464.988 750.143,467.488 753.5,469C 760.06,470.085 766.394,471.585 772.5,473.5C 770.191,475.727 767.358,476.727 764,476.5C 757.979,476.165 752.145,474.998 746.5,473C 742.049,470.217 737.883,467.05 734,463.5C 731.606,457.713 728.94,452.046 726,446.5C 721.717,436.835 722.217,427.668 727.5,419C 730.098,419.126 732.431,420.126 734.5,422C 736.167,422.667 737.833,422.667 739.5,422C 742.453,418.592 745.287,415.092 748,411.5C 748.667,409.167 748.667,406.833 748,404.5C 745.5,402 743,399.5 740.5,397C 743.091,392.371 747.091,390.371 752.5,391C 755.403,388.428 758.569,386.261 762,384.5C 765.761,387.946 767.261,392.279 766.5,397.5C 765.414,416.007 756.914,430.007 741,439.5C 740.101,447.846 742.268,455.179 747.5,461.5 Z"/></g>
<g><path style="opacity:1" fill="#9e7b00" d="M 763.5,427.5 C 764.713,428.497 764.546,429.497 763,430.5C 762.53,429.423 762.697,428.423 763.5,427.5 Z"/></g>
<g><path style="opacity:1" fill="#9e7b00" d="M 760.5,431.5 C 761.559,433.07 761.059,434.403 759,435.5C 758.7,433.934 759.2,432.601 760.5,431.5 Z"/></g>
<g><path style="opacity:1" fill="#9e7b00" d="M 780.5,433.5 C 781.043,433.56 781.376,433.893 781.5,434.5C 780.375,439.386 778.209,443.719 775,447.5C 774.282,448.451 773.449,448.617 772.5,448C 776.264,443.745 778.931,438.912 780.5,433.5 Z"/></g>
<g><path style="opacity:1" fill="#9e7b00" d="M 785.5,437.5 C 786.478,437.811 787.145,438.478 787.5,439.5C 785.851,444.316 783.184,448.483 779.5,452C 778.833,452.667 778.167,452.667 777.5,452C 782.158,448.197 784.825,443.364 785.5,437.5 Z"/></g>
<g><path style="opacity:1" fill="#fefffe" d="M 750.5,438.5 C 760.027,444.025 768.694,450.692 776.5,458.5C 765.035,467.88 755.535,466.214 748,453.5C 745.67,449.693 745.17,445.693 746.5,441.5C 748.261,440.965 749.594,439.965 750.5,438.5 Z M 749.5,442.5 C 748.722,443.156 748.056,443.989 747.5,445C 749.831,453.161 754.831,458.994 762.5,462.5C 765.977,461.26 769.311,459.76 772.5,458C 768.167,454.333 763.833,450.667 759.5,447C 756.473,444.65 753.14,443.15 749.5,442.5 Z"/></g>
<g><path style="opacity:1" fill="#fec90d" d="M 798.5,464.5 C 794.883,463.358 791.55,461.692 788.5,459.5C 791.139,455.21 792.973,450.544 794,445.5C 798.059,449.056 801.559,453.056 804.5,457.5C 803.912,461.085 801.912,463.419 798.5,464.5 Z"/></g>
<g><path style="opacity:1" fill="#9e7b00" d="M 788.5,459.5 C 791.55,461.692 794.883,463.358 798.5,464.5C 797.129,466.141 795.296,467.141 793,467.5C 790.213,466.483 787.38,466.316 784.5,467C 780.606,469.446 776.606,471.612 772.5,473.5C 766.394,471.585 760.06,470.085 753.5,469C 750.143,467.488 748.143,464.988 747.5,461.5C 753.312,468.208 760.646,470.375 769.5,468C 774.313,466.688 778.313,464.188 781.5,460.5C 783.743,459.526 786.076,459.192 788.5,459.5 Z"/></g>
</svg>
