<?xml version="1.0" encoding="UTF-8"?>
<!DOCTYPE svg PUBLIC "-//W3C//DTD SVG 1.1//EN" "http://www.w3.org/Graphics/SVG/1.1/DTD/svg11.dtd">
<svg xmlns="http://www.w3.org/2000/svg" version="1.1" width="600px" height="509px" style="shape-rendering:geometricPrecision; text-rendering:geometricPrecision; image-rendering:optimizeQuality; fill-rule:evenodd; clip-rule:evenodd" xmlns:xlink="http://www.w3.org/1999/xlink">
<g><path style="opacity:1" fill="#fefffe" d="M 230.5,44.5 C 247.19,44.2599 263.857,44.7599 280.5,46C 295.189,48.5694 309.689,51.736 324,55.5C 344.643,49.0876 365.81,45.7542 387.5,45.5C 402.495,46.1427 417.495,46.6427 432.5,47C 447.902,49.6842 463.236,52.6842 478.5,56C 484.759,59.5706 491.425,62.2373 498.5,64C 503.113,67.9799 508.113,71.4799 513.5,74.5C 518.818,80.3187 524.318,85.9854 530,91.5C 539.771,109.18 544.771,128.18 545,148.5C 545.667,158.833 545.667,169.167 545,179.5C 544.713,181.891 544.213,184.224 543.5,186.5C 545.949,214.784 548.116,243.117 550,271.5C 554.039,296.439 557.706,321.439 561,346.5C 564.917,352.758 569.25,358.758 574,364.5C 574.928,371.94 574.594,379.274 573,386.5C 572.25,387.126 571.416,387.626 570.5,388C 562.812,388.831 555.145,388.665 547.5,387.5C 531.857,375.691 516.357,363.691 501,351.5C 493.189,335.535 484.355,320.202 474.5,305.5C 469.045,301.217 463.712,296.717 458.5,292C 447.232,289.133 436.232,285.466 425.5,281C 360.216,270.388 294.883,260.055 229.5,250C 210.161,249.667 190.828,250 171.5,251C 157.196,252.37 142.863,253.203 128.5,253.5C 110.871,252.179 93.204,251.345 75.5,251C 65.1669,248.108 54.6669,246.275 44,245.5C 41.4255,243.257 38.5922,241.424 35.5,240C 27.888,236.515 20.2213,233.182 12.5,230C 11.6959,228.229 10.5292,226.729 9,225.5C 7.89831,217.309 8.56497,209.309 11,201.5C 12.1667,200.333 13.3333,199.167 14.5,198C 25.1893,196.814 35.8559,195.647 46.5,194.5C 58.4667,196.044 70.4667,196.877 82.5,197C 96.4124,194.595 108.412,188.428 118.5,178.5C 142.919,144.246 166.752,109.579 190,74.5C 194.867,69.9677 199.367,65.1344 203.5,60C 207.783,57.3847 211.783,54.3847 215.5,51C 220.142,47.7399 225.142,45.5732 230.5,44.5 Z"/></g>
<g><path style="opacity:1" fill="#000000" d="M 235.5,49.5 C 248.857,49.3599 262.19,49.8599 275.5,51C 292.009,54.5039 308.509,58.0039 325,61.5C 358.459,51.2303 392.626,48.0636 427.5,52C 442.902,54.6842 458.236,57.6842 473.5,61C 479.759,64.5706 486.425,67.2373 493.5,69C 498.113,72.9799 503.113,76.4799 508.5,79.5C 513.818,85.3187 519.318,90.9854 525,96.5C 534.771,114.18 539.771,133.18 540,153.5C 540.783,164.559 540.283,175.559 538.5,186.5C 540.714,216.496 542.881,246.496 545,276.5C 549.039,301.439 552.706,326.439 556,351.5C 559.917,357.758 564.25,363.758 569,369.5C 569.854,373.625 569.52,377.625 568,381.5C 565.243,383.027 562.243,383.693 559,383.5C 556.833,383.167 554.667,382.833 552.5,382.5C 536.857,370.691 521.357,358.691 506,346.5C 498.189,330.535 489.355,315.202 479.5,300.5C 474.045,296.217 468.712,291.717 463.5,287C 452.232,284.133 441.232,280.466 430.5,276C 365.216,265.388 299.883,255.055 234.5,245C 199.114,244.479 163.78,245.645 128.5,248.5C 112.543,247.068 96.5433,246.235 80.5,246C 70.1669,243.108 59.6669,241.275 49,240.5C 46.4255,238.257 43.5922,236.424 40.5,235C 32.888,231.515 25.2213,228.182 17.5,225C 11.9666,217.238 12.6332,209.905 19.5,203C 28.5421,202.009 37.5421,200.842 46.5,199.5C 57.6163,201.255 68.783,202.588 80,203.5C 96.8798,201.932 111.38,195.266 123.5,183.5C 147.919,149.246 171.752,114.579 195,79.5C 199.867,74.9677 204.367,70.1344 208.5,65C 212.783,62.3847 216.783,59.3847 220.5,56C 225.142,52.7399 230.142,50.5732 235.5,49.5 Z"/></g>
<g><path style="opacity:1" fill="#343534" d="M 371.5,54.5 C 388.749,54.9779 406.082,55.4779 423.5,56C 432.289,57.0244 440.955,58.691 449.5,61C 445.5,61.6667 441.5,61.6667 437.5,61C 422.41,57.143 407.077,55.643 391.5,56.5C 383.5,56.6667 375.5,56.8333 367.5,57C 360.289,58.461 353.122,59.961 346,61.5C 345.5,61 345,60.5 344.5,60C 346.878,59.4888 349.212,58.8221 351.5,58C 358.361,58.2449 365.028,57.0783 371.5,54.5 Z"/></g>
<g><path style="opacity:1" fill="#fec90d" d="M 368.5,58.5 C 383.504,58.3334 398.504,58.5001 413.5,59C 425.326,61.8799 437.326,63.5466 449.5,64C 459.289,67.8022 469.289,70.8022 479.5,73C 487.41,77.5234 495.41,81.8567 503.5,86C 508.719,91.1865 514.219,96.0198 520,100.5C 525.335,108.813 529.335,117.813 532,127.5C 534.855,141.712 536.188,156.046 536,170.5C 535.86,173.043 535.194,175.377 534,177.5C 530.738,165.048 527.071,152.714 523,140.5C 519.405,129.79 513.239,120.957 504.5,114C 486.748,101.957 467.748,92.2903 447.5,85C 416.406,77.5305 385.073,76.1972 353.5,81C 336.285,84.4381 319.285,88.7714 302.5,94C 286.46,102.733 270.46,111.4 254.5,120C 248.809,123.513 243.476,127.513 238.5,132C 235.623,132.956 232.956,134.289 230.5,136C 206.879,155.954 184.213,176.954 162.5,199C 154.5,204.667 146.5,210.333 138.5,216C 127.645,219.552 116.979,223.219 106.5,227C 104.287,227.626 102.12,227.459 100,226.5C 97.0245,229.6 93.8579,229.933 90.5,227.5C 85.6411,229.199 80.6411,230.532 75.5,231.5C 75.6495,232.552 75.4828,233.552 75,234.5C 72.4572,235.207 70.2905,236.54 68.5,238.5C 63.8867,237.721 59.22,237.221 54.5,237C 49.623,233.586 44.2896,230.919 38.5,229C 40.7501,228.389 42.4168,227.056 43.5,225C 48.179,222.06 53.179,219.56 58.5,217.5C 59.1667,217.833 59.8333,218.167 60.5,218.5C 61.6113,217.389 62.9446,216.722 64.5,216.5C 102.394,222.762 133.394,211.096 157.5,181.5C 177.897,163.944 197.897,145.778 217.5,127C 245.598,106.257 275.265,87.924 306.5,72C 310.773,70.4646 315.106,69.1312 319.5,68C 336.06,65.3312 352.393,62.1645 368.5,58.5 Z"/></g>
<g><path style="opacity:1" fill="#343534" d="M 451.5,62.5 C 453.288,61.3775 455.288,61.2109 457.5,62C 473.416,65.4629 488.083,71.6296 501.5,80.5C 501.333,80.8333 501.167,81.1667 501,81.5C 493.547,77.5237 486.047,73.6903 478.5,70C 469.289,68.2068 460.289,65.7068 451.5,62.5 Z"/></g>
<g><path style="opacity:1" fill="#343534" d="M 383.5,79.5 C 405.833,79.9083 427.833,82.7416 449.5,88C 468.392,96.1109 486.392,105.778 503.5,117C 510.504,122.842 515.671,130.009 519,138.5C 524.21,154.461 529.21,170.461 534,186.5C 536.57,217.48 538.903,248.48 541,279.5C 545.039,304.439 548.706,329.439 552,354.5C 554.732,359.5 557.566,364.5 560.5,369.5C 560,369.833 559.5,370.167 559,370.5C 550.029,367.858 545.029,361.858 544,352.5C 526.667,331.833 509.333,311.167 492,290.5C 482.927,285.764 474.094,280.598 465.5,275C 424.547,264.126 384.213,251.459 344.5,237C 318.238,230.272 291.571,226.272 264.5,225C 260.697,224.613 258.363,222.613 257.5,219C 259.475,211.382 263.475,205.049 269.5,200C 283.866,189.146 297.866,177.813 311.5,166C 332.779,151.109 353.613,135.609 374,119.5C 383.401,107.851 384.901,95.1848 378.5,81.5C 380.291,80.8302 381.958,80.1635 383.5,79.5 Z"/></g>
<g><path style="opacity:1" fill="#000000" d="M 462.5,171.5 C 463.75,171.577 464.583,172.244 465,173.5C 466.469,178.905 468.135,184.239 470,189.5C 474.592,186.453 479.426,183.786 484.5,181.5C 485.561,184.116 485.228,186.616 483.5,189C 479.156,191.171 475.156,193.837 471.5,197C 473.461,200.421 475.294,203.921 477,207.5C 477.818,210.227 477.652,212.894 476.5,215.5C 472.805,210.455 469.472,205.122 466.5,199.5C 462.334,202.417 458.001,205.084 453.5,207.5C 450.605,205.192 449.938,202.359 451.5,199C 456.16,197.005 460.494,194.505 464.5,191.5C 462.634,186.568 460.967,181.568 459.5,176.5C 460.092,174.577 461.092,172.911 462.5,171.5 Z"/></g>
<g><path style="opacity:1" fill="#343534" d="M 45.5,203.5 C 50.9635,204.348 56.2969,205.514 61.5,207C 55.172,207.057 48.8387,206.723 42.5,206C 43.5707,205.148 44.5707,204.315 45.5,203.5 Z"/></g>
<g><path style="opacity:1" fill="#343534" d="M 28.5,223.5 C 27.8826,223.611 27.3826,223.944 27,224.5C 21.2877,222.383 18.6211,218.383 19,212.5C 21.2917,216.788 24.7917,219.622 29.5,221C 28.7476,221.671 28.4142,222.504 28.5,223.5 Z"/></g>
<g><path style="opacity:1" fill="#343534" d="M 28.5,223.5 C 31.4844,220.018 35.151,217.518 39.5,216C 46.7413,214.178 54.0746,213.511 61.5,214C 57.0701,215.38 52.7368,217.047 48.5,219C 44.4276,222.123 39.9276,224.623 35,226.5C 32.2696,226.294 30.1029,225.294 28.5,223.5 Z"/></g>
<g><path style="opacity:1" fill="#fec90d" d="M 562.5,369.5 C 566.843,374.511 565.677,377.844 559,379.5C 557.276,379.045 555.776,378.212 554.5,377C 556.833,376.667 559.167,376.333 561.5,376C 562.423,373.959 562.756,371.792 562.5,369.5 Z"/></g>
</svg>
