<?xml version="1.0" encoding="UTF-8"?>
<!DOCTYPE svg PUBLIC "-//W3C//DTD SVG 1.1//EN" "http://www.w3.org/Graphics/SVG/1.1/DTD/svg11.dtd">
<svg xmlns="http://www.w3.org/2000/svg" version="1.1" width="1400px" height="1400px" style="shape-rendering:geometricPrecision; text-rendering:geometricPrecision; image-rendering:optimizeQuality; fill-rule:evenodd; clip-rule:evenodd" xmlns:xlink="http://www.w3.org/1999/xlink">
<g><path style="opacity:1" fill="#000000" d="M 45.5,15.5 C 49.5443,14.9579 53.211,15.7912 56.5,18C 277.074,213.038 498.407,408.538 720.5,604.5C 722.969,602.993 725.135,603.327 727,605.5C 728.857,603.369 731.023,602.869 733.5,604C 739.901,597.108 743.567,598.275 744.5,607.5C 742.325,612.16 740.491,616.827 739,621.5C 793.648,668.647 848.148,715.98 902.5,763.5C 902.833,763.167 903.167,762.833 903.5,762.5C 900.489,753.926 898.823,745.093 898.5,736C 899.27,726.135 900.27,716.302 901.5,706.5C 906.056,706.554 908.556,708.888 909,713.5C 910.683,731.289 913.85,748.789 918.5,766C 918.29,769.057 916.957,771.557 914.5,773.5C 918.004,777.504 921.837,781.17 926,784.5C 929.312,780.58 933.478,777.747 938.5,776C 943.525,775.037 948.358,773.537 953,771.5C 955.321,768.942 955.654,766.275 954,763.5C 951.5,752.667 955.667,748.5 966.5,751C 971.069,753.541 972.569,757.375 971,762.5C 969.485,764.677 967.985,766.844 966.5,769C 966.862,770.225 967.362,771.391 968,772.5C 969.424,768.207 971.591,764.374 974.5,761C 981.265,758.757 984.098,761.257 983,768.5C 981.333,770.833 979.667,773.167 978,775.5C 976.273,788.327 973.94,800.993 971,813.5C 970.127,816.618 968.961,819.618 967.5,822.5C 968.313,823.814 969.313,824.981 970.5,826C 974.644,827.266 978.477,829.099 982,831.5C 982.333,834.833 982.667,838.167 983,841.5C 1003.41,864.083 1020.91,888.75 1035.5,915.5C 1036.63,916.262 1037.79,916.929 1039,917.5C 1052.8,942.762 1065.8,968.429 1078,994.5C 1082.67,1003.5 1088.5,1011.67 1095.5,1019C 1101.54,1022.12 1107.87,1024.46 1114.5,1026C 1165.34,1069.83 1214.67,1115.5 1262.5,1163C 1289.54,1186.53 1316.21,1210.53 1342.5,1235C 1352.46,1244.62 1361.29,1255.12 1369,1266.5C 1370.2,1272.51 1369.36,1278.17 1366.5,1283.5C 1323.79,1320.04 1282.12,1357.87 1241.5,1397C 1240.5,1397.67 1239.5,1397.67 1238.5,1397C 1172.28,1294.75 1108.45,1190.92 1047,1085.5C 1045.53,1087.32 1043.7,1087.82 1041.5,1087C 1034.22,1076.45 1026.22,1066.45 1017.5,1057C 1013.94,1054.8 1010.1,1053.3 1006,1052.5C 1001.9,1053.3 998.064,1054.8 994.5,1057C 989.788,1062.04 985.455,1067.38 981.5,1073C 973.189,1072.04 967.855,1067.37 965.5,1059C 968.958,1053.26 972.791,1047.76 977,1042.5C 980.281,1036.21 981.281,1029.54 980,1022.5C 977.869,1014.44 975.536,1006.44 973,998.5C 958.681,981.502 941.515,968.335 921.5,959C 912.5,955.333 903.5,951.667 894.5,948C 889.667,943.167 884.833,938.333 880,933.5C 874.805,922.518 874.138,911.184 878,899.5C 879.608,896.228 881.608,893.228 884,890.5C 884.359,887.38 883.192,884.88 880.5,883C 874.165,878.497 867.498,874.497 860.5,871C 858,868.5 855.5,866 853,863.5C 851.909,858.902 853.743,856.069 858.5,855C 850.333,846.833 842.167,838.667 834,830.5C 833.695,828.443 833.695,826.443 834,824.5C 764.833,761.333 695.667,698.167 626.5,635C 616.636,625.47 607.136,615.637 598,605.5C 594.32,600.458 592.32,594.792 592,588.5C 568.5,567.667 545,546.833 521.5,526C 519.821,525.605 518.155,525.772 516.5,526.5C 515.062,526.281 513.729,525.781 512.5,525C 498.833,514 485.167,503 471.5,492C 469.876,490.883 468.876,489.383 468.5,487.5C 469.368,484.934 470.368,482.434 471.5,480C 391.581,408.742 311.081,338.242 230,268.5C 225.299,270.788 222.633,269.455 222,264.5C 192.05,238.864 162.55,213.03 133.5,187C 129.27,187.841 124.937,188.508 120.5,189C 112.966,185.831 106.466,181.331 101,175.5C 100.833,174.167 100.667,172.833 100.5,171.5C 101.509,166.854 103.009,162.52 105,158.5C 75.3333,133.167 45.6667,107.833 16,82.5C 8.81008,84.6445 6.14342,81.9778 8,74.5C 11.7169,70.2384 15.5502,66.0718 19.5,62C 21.7695,61.2419 23.9361,61.4086 26,62.5C 27.2445,70.0829 31.2445,75.7496 38,79.5C 38.5497,76.7366 39.3831,74.0699 40.5,71.5C 36.9023,67.7258 33.4023,63.7258 30,59.5C 29.3157,54.5476 30.4823,50.0476 33.5,46C 30.4774,44.818 28.8107,42.6513 28.5,39.5C 28.8495,35.2457 30.0162,31.2457 32,27.5C 36.1025,22.8955 40.6025,18.8955 45.5,15.5 Z M 111.5,165.5 C 114.21,167.945 117.044,170.278 120,172.5C 120.635,174.635 120.301,176.635 119,178.5C 115.333,176.5 111.667,174.5 108,172.5C 108.579,170.008 109.746,167.675 111.5,165.5 Z M 928.5,787.5 C 935.982,786.508 943.648,786.175 951.5,786.5C 951.301,788.96 950.635,791.293 949.5,793.5C 943.888,792.423 938.221,791.59 932.5,791C 931.295,789.624 929.962,788.458 928.5,787.5 Z M 896.5,894.5 C 900.747,894.178 904.747,895.011 908.5,897C 914,901.167 919.5,905.333 925,909.5C 925.175,922.645 921.508,934.645 914,945.5C 908.255,942.712 902.755,939.546 897.5,936C 887.738,926.677 884.238,915.51 887,902.5C 889.775,899.22 892.942,896.554 896.5,894.5 Z M 938.5,927.5 C 940.308,927.491 941.975,927.991 943.5,929C 957.239,942.735 970.239,957.069 982.5,972C 979.537,973.961 976.871,976.294 974.5,979C 973.241,979.982 971.908,980.315 970.5,980C 964.098,972.927 957.098,966.594 949.5,961C 939.747,956.083 929.747,951.75 919.5,948C 925.728,940.944 932.061,934.111 938.5,927.5 Z M 993.5,988.5 C 996.115,990.379 998.281,992.712 1000,995.5C 1006.69,1004.54 1013.02,1013.87 1019,1023.5C 1021.68,1027.85 1023.51,1032.52 1024.5,1037.5C 1024.22,1040.13 1023.55,1042.63 1022.5,1045C 1017.26,1043.15 1011.76,1041.99 1006,1041.5C 999.594,1041.77 993.594,1043.43 988,1046.5C 988.325,1041.84 988.992,1037.18 990,1032.5C 991.306,1020.03 989.139,1008.2 983.5,997C 987.025,994.302 990.358,991.469 993.5,988.5 Z"/></g>
<g><path style="opacity:1" fill="#7e7f7e" d="M 47.5,18.5 C 50.7449,18.8801 53.7449,20.0468 56.5,22C 284.356,224.211 512.356,425.878 740.5,627C 799.605,678.786 858.605,730.453 917.5,782C 924.5,788.333 931.5,794.667 938.5,801C 935.216,804.405 932.05,807.905 929,811.5C 881.5,772.667 834,733.833 786.5,695C 541.5,476.667 296.5,258.333 51.5,40C 48.9893,38.1522 46.4893,36.3189 44,34.5C 39.7452,35.7548 36.7452,38.4214 35,42.5C 33.5134,41.8448 32.3467,40.8448 31.5,39.5C 32.1058,35.9723 33.2725,32.639 35,29.5C 38.9576,25.4628 43.1242,21.7962 47.5,18.5 Z"/></g>
<g><path style="opacity:1" fill="#7e7f7e" d="M 59.5,22.5 C 61.0894,21.3789 62.7561,21.5456 64.5,23C 66.9587,25.1079 68.4587,27.6079 69,30.5C 65.8949,27.7065 62.7283,25.0398 59.5,22.5 Z"/></g>
<g><path style="opacity:1" fill="#fec90d" d="M 43.5,36.5 C 48.9276,40.4225 53.9276,44.9225 58.5,50C 52.0602,54.7183 46.8935,60.5516 43,67.5C 38.6433,64.6435 35.1433,60.9768 32.5,56.5C 34.9054,51.6931 36.7387,46.6931 38,41.5C 39.7297,39.5981 41.563,37.9314 43.5,36.5 Z"/></g>
<g><path style="opacity:1" fill="#fec90d" d="M 59.5,51.5 C 61.7288,52.0553 63.3954,53.3886 64.5,55.5C 59.515,60.9853 54.3484,66.3187 49,71.5C 46.427,75.5446 44.427,79.8779 43,84.5C 41.977,83.3999 41.477,82.0666 41.5,80.5C 44.2057,68.7487 50.2057,59.0821 59.5,51.5 Z"/></g>
<g><path style="opacity:1" fill="#7f403f" d="M 66.5,56.5 C 308.927,271.421 550.927,486.921 792.5,703C 836.5,739 880.5,775 924.5,811C 926.212,812.751 928.212,813.418 930.5,813C 933.784,809.595 936.95,806.095 940,802.5C 949.5,811.333 959,820.167 968.5,829C 971.994,830.217 975.327,831.717 978.5,833.5C 979.324,836.785 979.824,840.118 980,843.5C 989,854.5 998,865.5 1007,876.5C 1016.18,890.87 1025.35,905.203 1034.5,919.5C 1036.2,941.582 1045.7,959.249 1063,972.5C 1069.65,987.141 1077.32,1001.14 1086,1014.5C 1093,1022.58 1101.83,1027.42 1112.5,1029C 1163.34,1072.83 1212.67,1118.5 1260.5,1166C 1281.6,1183.76 1302.1,1202.26 1322,1221.5C 1328.97,1231.79 1336.63,1241.46 1345,1250.5C 1344.91,1253.7 1343.91,1256.7 1342,1259.5C 1341.61,1264.2 1341.61,1268.87 1342,1273.5C 1338.72,1279.11 1335.06,1284.44 1331,1289.5C 1300.53,1322.3 1269.7,1354.8 1238.5,1387C 1237.83,1387.67 1237.17,1387.67 1236.5,1387C 1171.36,1286.59 1108.86,1184.42 1049,1080.5C 1040.87,1068.88 1033.37,1056.88 1026.5,1044.5C 1028.66,1036.15 1027.16,1028.48 1022,1021.5C 1012.18,1007.88 1002.85,993.881 994,979.5C 979.804,962.458 965.137,945.791 950,929.5C 948.503,924.526 947.503,919.526 947,914.5C 963.48,927.323 981.647,936.823 1001.5,943C 1005.25,941.416 1007.25,938.583 1007.5,934.5C 1002.07,915.974 995.238,897.974 987,880.5C 972.533,863.699 957.033,847.865 940.5,833C 938.645,832.578 936.811,832.078 935,831.5C 928.324,834.589 921.491,837.255 914.5,839.5C 909.362,838.465 904.362,836.965 899.5,835C 895.667,831.167 891.833,827.333 888,823.5C 887.296,821.722 886.796,819.888 886.5,818C 887.252,815.846 887.419,813.68 887,811.5C 874.43,798.926 861.263,787.093 847.5,776C 840.833,772.667 834.167,769.333 827.5,766C 823.031,765.326 818.864,766.159 815,768.5C 812.666,774.489 813.332,780.156 817,785.5C 828.861,788.508 840.027,793.342 850.5,800C 853.372,802.537 855.872,805.37 858,808.5C 860.136,814.709 861.802,821.042 863,827.5C 875.218,837.697 888.385,846.53 902.5,854C 913.205,857.089 924.038,859.589 935,861.5C 943.535,859.112 947.702,853.445 947.5,844.5C 948.552,844.351 949.552,844.517 950.5,845C 962.731,856.562 974.231,868.729 985,881.5C 992.955,898.742 999.789,916.409 1005.5,934.5C 1004.94,938.064 1002.94,940.397 999.5,941.5C 979.895,933.037 961.562,922.537 944.5,910C 899.434,870.605 855.267,830.105 812,788.5C 807.6,784.033 803.934,779.033 801,773.5C 798.856,766.798 799.356,760.298 802.5,754C 809.728,749.493 817.395,748.493 825.5,751C 832.498,754.497 839.165,758.497 845.5,763C 868.868,781.355 891.868,800.188 914.5,819.5C 915.521,818.998 915.688,818.332 915,817.5C 890.414,796.243 865.247,775.743 839.5,756C 827.216,746.262 814.216,745.095 800.5,752.5C 795.585,763.281 796.751,773.281 804,782.5C 811.802,791.303 819.969,799.803 828.5,808C 852,829.5 875.5,851 899,872.5C 899.591,873.483 899.257,874.15 898,874.5C 889.451,878.09 881.951,876.59 875.5,870C 871.333,865.833 867.167,861.667 863,857.5C 862.667,856.167 862.333,854.833 862,853.5C 854,845.5 846,837.5 838,829.5C 838.576,824.486 836.743,820.653 832.5,818C 773.5,764.333 714.5,710.667 655.5,657C 638.571,640.949 621.737,624.782 605,608.5C 598.965,602.428 595.632,595.095 595,586.5C 556.472,552.966 518.972,518.466 482.5,483C 480.194,480.861 477.527,479.361 474.5,478.5C 394.304,406.804 313.637,335.638 232.5,265C 231.552,264.517 230.552,264.351 229.5,264.5C 229.673,261.821 230.673,259.487 232.5,257.5C 195.21,224.714 158.044,191.714 121,158.5C 122.48,155.613 124.146,152.613 126,149.5C 128.333,147.833 130.667,146.167 133,144.5C 134.127,135.314 130.293,132.148 121.5,135C 119.297,137.76 118.964,140.76 120.5,144C 117.979,146.22 115.812,148.72 114,151.5C 91.3008,129.799 68.3008,108.466 45,87.5C 45.9966,82.1927 47.9966,77.1927 51,72.5C 56.3697,67.298 61.5364,61.9647 66.5,56.5 Z"/></g>
<g><path style="opacity:1" fill="#7e7f7e" d="M 21.5,64.5 C 23.0853,65.4737 24.0853,66.9737 24.5,69C 18.6667,69.5 15.5,72.6667 15,78.5C 11.9531,81.3099 10.6198,80.6432 11,76.5C 14.7433,72.6558 18.2433,68.6558 21.5,64.5 Z"/></g>
<g><path style="opacity:1" fill="#7e7f7e" d="M 21.5,71.5 C 26.1806,73.6666 30.1806,76.8333 33.5,81C 35.7049,82.706 38.0383,84.206 40.5,85.5C 64.0214,108.522 88.0214,131.022 112.5,153C 111.315,154.353 109.981,155.52 108.5,156.5C 78.9801,131.146 49.3135,105.979 19.5,81C 16.7486,77.1667 17.4153,74.0001 21.5,71.5 Z"/></g>
<g><path style="opacity:1" fill="#000000" d="M 81.5,92.5 C 90.5688,94.2146 94.5688,99.548 93.5,108.5C 85.4737,108.817 81.1404,104.817 80.5,96.5C 80.6233,95.0755 80.9566,93.7421 81.5,92.5 Z"/></g>
<g><path style="opacity:1" fill="#7e7f7e" d="M 82.5,94.5 C 89.2467,96.5329 92.2467,100.866 91.5,107.5C 84.9473,105.616 81.9473,101.282 82.5,94.5 Z"/></g>
<g><path style="opacity:1" fill="#7e7f7e" d="M 122.5,147.5 C 124.519,144.633 126.852,141.967 129.5,139.5C 130.583,140.365 130.749,141.365 130,142.5C 127.557,144.301 125.057,145.968 122.5,147.5 Z"/></g>
<g><path style="opacity:1" fill="#7e7f7e" d="M 122.5,147.5 C 122.291,148.922 121.791,150.255 121,151.5C 114.322,157.164 108.822,163.664 104.5,171C 104.643,173.151 105.643,174.818 107.5,176C 112.633,178.735 117.633,181.735 122.5,185C 115.025,182.586 108.358,178.586 102.5,173C 103.051,169.911 104.217,167.078 106,164.5C 111.73,158.938 117.23,153.271 122.5,147.5 Z"/></g>
<g><path style="opacity:1" fill="#7e7f7e" d="M 117.5,159.5 C 125.234,165.057 132.567,171.223 139.5,178C 137.787,179.378 136.453,181.045 135.5,183C 130.36,184.46 126.026,183.293 122.5,179.5C 123.654,176.898 124.154,174.232 124,171.5C 121.116,168.315 117.949,165.482 114.5,163C 115.71,161.961 116.71,160.794 117.5,159.5 Z"/></g>
<g><path style="opacity:1" fill="#000000" d="M 156.5,167.5 C 162.158,166.679 163.825,168.846 161.5,174C 155.741,175.139 154.074,172.972 156.5,167.5 Z"/></g>
<g><path style="opacity:1" fill="#7e7f7e" d="M 157.5,169.5 C 158.5,169.5 159.5,169.5 160.5,169.5C 160.5,170.5 160.5,171.5 160.5,172.5C 159.5,172.5 158.5,172.5 157.5,172.5C 157.5,171.5 157.5,170.5 157.5,169.5 Z"/></g>
<g><path style="opacity:1" fill="#7e7f7e" d="M 140.5,179.5 C 141.497,179.47 142.164,179.97 142.5,181C 140.951,183.638 139.785,186.471 139,189.5C 136.857,185.765 137.357,182.432 140.5,179.5 Z"/></g>
<g><path style="opacity:1" fill="#7e7f7e" d="M 144.5,182.5 C 171.506,206.506 198.506,230.506 225.5,254.5C 224.333,256.167 223.167,257.833 222,259.5C 195.264,235.922 168.431,212.589 141.5,189.5C 141.93,186.862 142.93,184.529 144.5,182.5 Z"/></g>
<g><path style="opacity:1" fill="#131313" d="M 216.5,221.5 C 221.159,221.015 222.492,222.848 220.5,227C 215.728,227.81 214.395,225.977 216.5,221.5 Z"/></g>
<g><path style="opacity:1" fill="#7e7f7e" d="M 227.5,256.5 C 228.376,256.369 229.043,256.702 229.5,257.5C 228.27,260.523 227.103,263.523 226,266.5C 225.578,264.645 225.078,262.811 224.5,261C 225.315,259.357 226.315,257.857 227.5,256.5 Z"/></g>
<g><path style="opacity:1" fill="#000000" d="M 349.5,342.5 C 355.857,342.76 361.357,345.094 366,349.5C 365.457,361.735 360.457,363.735 351,355.5C 347.734,351.302 347.234,346.969 349.5,342.5 Z"/></g>
<g><path style="opacity:1" fill="#7e7f7e" d="M 350.5,344.5 C 355.445,345.139 359.778,347.139 363.5,350.5C 363.533,359.553 360.033,360.887 353,354.5C 350.747,351.293 349.913,347.96 350.5,344.5 Z"/></g>
<g><path style="opacity:1" fill="#7e7f7e" d="M 475.5,481.5 C 480.89,484.71 485.89,488.544 490.5,493C 498.863,501.697 507.53,510.031 516.5,518C 514.631,520.314 512.631,520.647 510.5,519C 497.735,508.308 485.069,497.641 472.5,487C 472.895,484.752 473.895,482.918 475.5,481.5 Z"/></g>
<g><path style="opacity:1" fill="#7e7f7e" d="M 517.5,519.5 C 521.491,520.642 521.324,521.642 517,522.5C 516.5,522.167 516,521.833 515.5,521.5C 516.243,520.818 516.909,520.151 517.5,519.5 Z"/></g>
<g><path style="opacity:1" fill="#7e7f7e" d="M 739.5,602.5 C 740.83,608.567 739.164,613.901 734.5,618.5C 728.989,616.417 724.656,612.917 721.5,608C 725.943,608.356 730.276,608.356 734.5,608C 736.373,606.296 738.04,604.463 739.5,602.5 Z"/></g>
<g><path style="opacity:1" fill="#000000" d="M 646.5,604.5 C 651.044,605.188 655.211,606.854 659,609.5C 661.31,613.177 661.81,617.011 660.5,621C 654.702,620.956 649.535,619.123 645,615.5C 644.242,611.638 644.742,607.972 646.5,604.5 Z"/></g>
<g><path style="opacity:1" fill="#7e7f7e" d="M 647.5,606.5 C 651.086,607.626 654.419,609.293 657.5,611.5C 658.96,614.029 659.46,616.696 659,619.5C 654.734,618.413 650.734,616.746 647,614.5C 646.57,611.808 646.737,609.141 647.5,606.5 Z"/></g>
<g><path style="opacity:1" fill="#7e7f7e" d="M 904.5,711.5 C 906.899,724.312 909.066,737.312 911,750.5C 912.5,755.667 914,760.833 915.5,766C 912.4,771.887 909.067,771.887 905.5,766C 906.097,764.938 906.43,763.772 906.5,762.5C 904.117,753.8 902.45,744.967 901.5,736C 902.205,727.774 903.205,719.607 904.5,711.5 Z"/></g>
<g><path style="opacity:1" fill="#7e7f7e" d="M 958.5,753.5 C 963.521,752.506 966.855,754.34 968.5,759C 966.892,762.272 964.892,765.272 962.5,768C 962.975,769.763 963.642,771.43 964.5,773C 958.778,774.006 956.778,771.839 958.5,766.5C 957.833,763.833 957.167,761.167 956.5,758.5C 956.437,756.486 957.103,754.819 958.5,753.5 Z"/></g>
<g><path style="opacity:1" fill="#7e7f7e" d="M 976.5,763.5 C 978.346,763.222 979.68,763.889 980.5,765.5C 978.527,768.64 976.36,771.64 974,774.5C 974.438,777.06 974.271,779.56 973.5,782C 959.862,783.451 946.195,783.784 932.5,783C 940.413,779.526 948.413,776.359 956.5,773.5C 959.523,774.73 962.523,775.897 965.5,777C 966.833,777.667 968.167,777.667 969.5,777C 971.937,772.496 974.271,767.996 976.5,763.5 Z"/></g>
<g><path style="opacity:1" fill="#fec90d" d="M 822.5,767.5 C 830.925,767.728 834.092,771.728 832,779.5C 826.833,776.333 821.667,773.167 816.5,770C 818.611,769.155 820.611,768.322 822.5,767.5 Z"/></g>
<g><path style="opacity:1" fill="#fec90d" d="M 815.5,772.5 C 820.727,775.048 825.727,778.048 830.5,781.5C 824.108,787.589 819.274,786.589 816,778.5C 815.505,776.527 815.338,774.527 815.5,772.5 Z"/></g>
<g><path style="opacity:1" fill="#fec90d" d="M 835.5,772.5 C 843.816,776.319 851.483,781.152 858.5,787C 867.429,795.385 876.263,803.885 885,812.5C 884.094,816.522 884.427,820.522 886,824.5C 890.167,828.667 894.333,832.833 898.5,837C 906.904,841.499 915.404,841.999 924,838.5C 923.747,841.133 923.747,843.8 924,846.5C 925.793,849.295 927.96,851.795 930.5,854C 937.565,855.547 942.399,853.047 945,846.5C 944.984,853.526 941.484,857.526 934.5,858.5C 919.977,857.62 906.31,853.787 893.5,847C 884.167,840.333 874.833,833.667 865.5,827C 863.881,819.694 861.714,812.528 859,805.5C 855.799,801.964 852.299,798.797 848.5,796C 841.833,792.667 835.167,789.333 828.5,786C 833.596,782.977 835.929,778.477 835.5,772.5 Z"/></g>
<g><path style="opacity:1" fill="#7e7f7e" d="M 964.5,784.5 C 967.5,784.5 970.5,784.5 973.5,784.5C 971.185,793.423 969.352,802.423 968,811.5C 967.311,814.408 966.145,817.075 964.5,819.5C 955.35,811.518 946.35,803.351 937.5,795C 942.424,795.699 947.424,796.033 952.5,796C 953.971,792.679 954.637,789.179 954.5,785.5C 958.042,785.813 961.375,785.479 964.5,784.5 Z"/></g>
<g><path style="opacity:1" fill="#fec90d" d="M 934.5,833.5 C 941.5,834.799 944.5,838.799 943.5,845.5C 937.788,843.476 932.455,840.643 927.5,837C 930.174,836.33 932.507,835.163 934.5,833.5 Z"/></g>
<g><path style="opacity:1" fill="#fec90d" d="M 926.5,839.5 C 932.22,842.064 937.053,845.398 941,849.5C 934.425,854.439 929.425,853.106 926,845.5C 925.82,843.512 925.986,841.512 926.5,839.5 Z"/></g>
<g><path style="opacity:1" fill="#fec90d" d="M 858.5,858.5 C 859.552,858.351 860.552,858.517 861.5,859C 867.57,865.74 874.237,871.74 881.5,877C 883.909,877.935 886.409,878.435 889,878.5C 893.636,877.877 898.136,877.043 902.5,876C 915.371,887.873 928.537,899.373 942,910.5C 943.089,915.021 944.255,919.521 945.5,924C 945.167,924.5 944.833,925 944.5,925.5C 941.092,924.106 937.759,924.272 934.5,926C 929.585,930.244 925.419,935.077 922,940.5C 923.597,935.265 925.264,929.932 927,924.5C 928.197,918.871 928.53,913.204 928,907.5C 921.782,902.281 915.282,897.448 908.5,893C 896.275,888.866 887.775,892.7 883,904.5C 881.511,921.021 887.677,933.854 901.5,943C 916.714,950.186 932.048,957.186 947.5,964C 955.432,969.928 962.765,976.595 969.5,984C 970.833,984.667 972.167,984.667 973.5,984C 977.167,981 980.833,978 984.5,975C 988.496,976.487 991.496,979.32 993.5,983.5C 989.507,987.324 985.34,990.991 981,994.5C 981.61,1001.35 983.277,1008.02 986,1014.5C 986.859,1017.95 987.359,1021.45 987.5,1025C 986.394,1033.23 985.227,1041.4 984,1049.5C 984.725,1050.06 985.558,1050.39 986.5,1050.5C 992.859,1047.99 999.359,1045.99 1006,1044.5C 1012.55,1046.13 1019.05,1047.96 1025.5,1050C 1032.29,1060.42 1038.96,1070.92 1045.5,1081.5C 1044.71,1083.49 1043.54,1083.82 1042,1082.5C 1035.26,1072.43 1027.76,1062.93 1019.5,1054C 1010.5,1048 1001.5,1048 992.5,1054C 987.572,1058.7 983.238,1063.87 979.5,1069.5C 974.5,1067.83 971.167,1064.5 969.5,1059.5C 974.164,1053.51 978.33,1047.18 982,1040.5C 983.544,1033.92 983.877,1027.25 983,1020.5C 980.869,1012.44 978.536,1004.44 976,996.5C 965.731,985.226 954.565,975.059 942.5,966C 927.674,957.921 912.341,950.921 896.5,945C 892,940.5 887.5,936 883,931.5C 876.04,917.648 877.373,904.648 887,892.5C 888.466,887.265 886.966,883.099 882.5,880C 876.165,875.497 869.498,871.497 862.5,868C 860.167,865.667 857.833,863.333 855.5,861C 856.571,860.148 857.571,859.315 858.5,858.5 Z"/></g>
<g><path style="opacity:1" fill="#fec90d" d="M 1037.5,923.5 C 1045.2,937.066 1052.53,950.899 1059.5,965C 1056.56,964.107 1054.06,962.274 1052,959.5C 1043.94,948.836 1039.11,936.836 1037.5,923.5 Z"/></g>
<g><path style="opacity:1" fill="#000000" d="M 1097.5,1057.5 C 1098.5,1057.5 1099.5,1057.5 1100.5,1057.5C 1098.65,1065.23 1096.48,1072.9 1094,1080.5C 1092.04,1088.84 1092.04,1097.18 1094,1105.5C 1113.18,1154.72 1141.01,1198.22 1177.5,1236C 1188.38,1243.95 1200.05,1250.61 1212.5,1256C 1221.5,1259.67 1230.5,1263.33 1239.5,1267C 1246.54,1268.76 1253.54,1268.76 1260.5,1267C 1262.96,1265.54 1265.13,1263.71 1267,1261.5C 1273.18,1251.15 1278.84,1240.48 1284,1229.5C 1285.01,1228.66 1286.18,1228.33 1287.5,1228.5C 1283.15,1239.53 1277.98,1250.2 1272,1260.5C 1269.03,1265.47 1264.86,1268.97 1259.5,1271C 1252.13,1271.69 1244.79,1271.35 1237.5,1270C 1219.96,1263.49 1202.96,1255.82 1186.5,1247C 1173.71,1237.87 1162.54,1227.04 1153,1214.5C 1143.33,1201.17 1133.67,1187.83 1124,1174.5C 1114.75,1157.66 1105.75,1140.66 1097,1123.5C 1089.54,1109.24 1087.54,1094.24 1091,1078.5C 1093.07,1071.45 1095.24,1064.45 1097.5,1057.5 Z"/></g>
<g><path style="opacity:1" fill="#fec90d" d="M 1337.5,1237.5 C 1337.9,1236.47 1338.56,1236.31 1339.5,1237C 1348.49,1245.51 1356.65,1254.67 1364,1264.5C 1367.33,1269.83 1367.33,1275.17 1364,1280.5C 1322.27,1316.56 1281.44,1353.73 1241.5,1392C 1239.33,1392.5 1238.5,1391.67 1239,1389.5C 1263.64,1363.2 1288.64,1337.2 1314,1311.5C 1323.38,1301.13 1332.38,1290.46 1341,1279.5C 1341.75,1277.67 1342.75,1276 1344,1274.5C 1343.84,1269.85 1343.84,1265.18 1344,1260.5C 1345.59,1257.83 1346.75,1254.99 1347.5,1252C 1345.77,1246.03 1342.44,1241.2 1337.5,1237.5 Z"/></g>
</svg>
