<?xml version="1.0" encoding="UTF-8"?>
<!DOCTYPE svg PUBLIC "-//W3C//DTD SVG 1.1//EN" "http://www.w3.org/Graphics/SVG/1.1/DTD/svg11.dtd">
<svg xmlns="http://www.w3.org/2000/svg" version="1.1" width="500px" height="273px" style="shape-rendering:geometricPrecision; text-rendering:geometricPrecision; image-rendering:optimizeQuality; fill-rule:evenodd; clip-rule:evenodd" xmlns:xlink="http://www.w3.org/1999/xlink">
<g><path style="opacity:1" fill="#000000" d="M -0.5,-0.5 C 0.5,-0.5 1.5,-0.5 2.5,-0.5C 2.5,0.5 2.5,1.5 2.5,2.5C 1.5,2.5 0.5,2.5 -0.5,2.5C -0.5,1.5 -0.5,0.5 -0.5,-0.5 Z"/></g>
<g><path style="opacity:1" fill="#c2c3c2" d="M 427.5,26.5 C 435.529,26.3437 443.529,26.677 451.5,27.5C 451.338,29.5273 451.505,31.5273 452,33.5C 452.388,34.428 453.055,35.0946 454,35.5C 458.781,36.419 463.615,36.7523 468.5,36.5C 468.5,37.5 468.5,38.5 468.5,39.5C 473.588,39.7507 478.588,40.584 483.5,42C 487.782,44.2937 491.782,46.7937 495.5,49.5C 495.5,52.8333 495.5,56.1667 495.5,59.5C 490.784,63.0924 485.45,65.7591 479.5,67.5C 476.747,70.3346 476.913,73.0012 480,75.5C 481.328,80.3376 479.494,82.671 474.5,82.5C 474.719,83.675 474.386,84.675 473.5,85.5C 471.205,86.4318 468.871,87.2652 466.5,88C 459.5,88.6667 452.5,88.6667 445.5,88C 442.483,87.4954 440.149,85.9954 438.5,83.5C 437.5,84.1667 436.5,84.8333 435.5,85.5C 432.866,84.484 430.2,84.484 427.5,85.5C 427.5,84.5 427.5,83.5 427.5,82.5C 410.85,79.1122 394.183,75.6122 377.5,72C 364.512,71.1339 351.512,70.6339 338.5,70.5C 338.5,69.5 338.5,68.5 338.5,67.5C 313.47,66.9986 288.47,65.832 263.5,64C 264.788,61.5335 264.788,59.0335 263.5,56.5C 287.803,54.8478 312.137,54.1812 336.5,54.5C 336.5,53.5 336.5,52.5 336.5,51.5C 355.862,51.8605 375.195,51.3605 394.5,50C 397.899,47.3036 401.566,44.9703 405.5,43C 407.645,39.7814 409.645,36.4481 411.5,33C 416.793,30.5129 422.126,28.3462 427.5,26.5 Z"/></g>
<g><path style="opacity:1" fill="#c2c3c2" d="M 411.5,106.5 C 416.179,106.334 420.845,106.501 425.5,107C 430.461,108.92 435.461,110.587 440.5,112C 442.353,116.207 444.353,120.374 446.5,124.5C 447.325,125.386 448.325,125.719 449.5,125.5C 449.5,128.833 449.5,132.167 449.5,135.5C 443.478,139.426 436.978,142.426 430,144.5C 429.333,145.833 429.333,147.167 430,148.5C 436.33,153.474 435.497,157.141 427.5,159.5C 426.614,160.325 426.281,161.325 426.5,162.5C 418.893,163.808 411.226,164.808 403.5,165.5C 403.291,166.086 402.957,166.586 402.5,167C 387.772,169.892 373.439,168.558 359.5,163C 358.929,161.795 358.262,160.628 357.5,159.5C 349.936,155.43 342.27,151.597 334.5,148C 327.174,147.5 319.841,147.334 312.5,147.5C 312.5,146.5 312.5,145.5 312.5,144.5C 281.135,143.618 249.802,142.118 218.5,140C 219.466,136.565 219.466,133.065 218.5,129.5C 251.173,128.959 283.84,128.126 316.5,127C 328.153,124.663 339.486,121.33 350.5,117C 351.939,116.009 352.939,114.676 353.5,113C 363.806,108.942 374.473,107.608 385.5,109C 388.031,110.489 390.198,112.322 392,114.5C 398.562,111.925 405.062,109.259 411.5,106.5 Z"/></g>
<g><path style="opacity:1" fill="#c2c3c2" d="M 314.5,183.5 C 324.363,183.23 334.196,183.563 344,184.5C 350.568,185.541 355.068,189.041 357.5,195C 367.741,195.643 377.407,198.31 386.5,203C 392.223,209.716 391.556,215.716 384.5,221C 382.866,221.494 381.199,221.66 379.5,221.5C 379.5,222.5 379.5,223.5 379.5,224.5C 376.619,225.274 373.952,226.607 371.5,228.5C 375.171,231.327 376.338,234.994 375,239.5C 370.369,242.711 365.202,244.545 359.5,245C 352.833,245.667 346.167,245.667 339.5,245C 336.735,243.871 334.235,242.371 332,240.5C 325.779,242.028 319.446,242.695 313,242.5C 303.673,242.75 294.507,241.75 285.5,239.5C 285.5,238.5 285.5,237.5 285.5,236.5C 272.112,233.987 258.778,231.153 245.5,228C 220.196,226.198 194.863,225.032 169.5,224.5C 169.5,223.5 169.5,222.5 169.5,221.5C 165.818,221.665 162.152,221.499 158.5,221C 161.105,218.589 161.105,216.089 158.5,213.5C 187.53,212.319 216.53,210.986 245.5,209.5C 245.36,207.876 246.027,206.71 247.5,206C 259.759,201.525 272.092,197.358 284.5,193.5C 284.5,192.5 284.5,191.5 284.5,190.5C 294.418,187.386 304.418,185.053 314.5,183.5 Z"/></g>
</svg>
