<?xml version="1.0" encoding="UTF-8"?>
<!DOCTYPE svg PUBLIC "-//W3C//DTD SVG 1.1//EN" "http://www.w3.org/Graphics/SVG/1.1/DTD/svg11.dtd">
<svg xmlns="http://www.w3.org/2000/svg" version="1.1" width="500px" height="273px" style="shape-rendering:geometricPrecision; text-rendering:geometricPrecision; image-rendering:optimizeQuality; fill-rule:evenodd; clip-rule:evenodd" xmlns:xlink="http://www.w3.org/1999/xlink">
<g><path style="opacity:0" fill="#000000" d="M -0.5,-0.5 C 0.5,-0.5 1.5,-0.5 2.5,-0.5C 2.5,0.5 2.5,1.5 2.5,2.5C 1.5,2.5 0.5,2.5 -0.5,2.5C -0.5,1.5 -0.5,0.5 -0.5,-0.5 Z"/></g>
<g><path style="opacity:0" fill="#000000" d="M 496.5,-0.5 C 497.5,-0.5 498.5,-0.5 499.5,-0.5C 499.5,0.5 499.5,1.5 499.5,2.5C 498.5,2.5 497.5,2.5 496.5,2.5C 496.5,1.5 496.5,0.5 496.5,-0.5 Z"/></g>
<g><path style="opacity:0" fill="#fe7f26" d="M 259.5,14.5 C 260.5,14.5 261.5,14.5 262.5,14.5C 261.532,17.0439 259.865,19.2105 257.5,21C 245.894,29.3834 234.394,37.8834 223,46.5C 222.5,46.1667 222,45.8333 221.5,45.5C 222.648,43.8513 223.981,42.3513 225.5,41C 237.083,32.3884 248.417,23.5551 259.5,14.5 Z"/></g>
<g><path style="opacity:0" fill="#fe7f26" d="M 276.5,22.5 C 278.973,22.6043 279.639,23.6043 278.5,25.5C 271.833,28.8333 265.167,32.1667 258.5,35.5C 257.692,35.1924 257.025,34.6924 256.5,34C 263.066,29.8869 269.733,26.0536 276.5,22.5 Z"/></g>
<g><path style="opacity:0" fill="#fe7f26" d="M 251.5,34.5 C 253.973,34.6043 254.639,35.6043 253.5,37.5C 247.833,40.8333 242.167,44.1667 236.5,47.5C 235.692,47.1924 235.025,46.6924 234.5,46C 240.232,42.1436 245.899,38.3103 251.5,34.5 Z"/></g>
<g><path style="opacity:0" fill="#000000" d="M 338.5,38.5 C 344.212,38.313 349.879,38.6463 355.5,39.5C 355.104,42.4822 355.771,45.1489 357.5,47.5C 367.102,47.6474 375.768,50.4808 383.5,56C 386.318,59.3379 387.151,63.1712 386,67.5C 382.068,71.2047 377.901,74.538 373.5,77.5C 374.083,79.0016 374.916,80.3349 376,81.5C 376.667,83.1667 376.667,84.8333 376,86.5C 368.749,92.1102 360.582,93.9436 351.5,92C 348.898,91.1166 346.731,89.6166 345,87.5C 343.43,88.3578 341.763,89.0245 340,89.5C 336.383,88.4612 332.883,87.1278 329.5,85.5C 328.232,83.6957 327.565,81.6957 327.5,79.5C 292.818,77.2434 258.151,74.7434 223.5,72C 224.788,69.5335 224.788,67.0335 223.5,64.5C 257.135,62.5205 290.801,61.1872 324.5,60.5C 323.132,49.2215 327.799,41.8882 338.5,38.5 Z"/></g>
<g><path style="opacity:0" fill="#fe7f26" d="M 259.5,43.5 C 263.333,44.6665 263.333,45.8332 259.5,47C 249.276,49.6304 239.109,52.4638 229,55.5C 227.941,55.3699 227.108,54.8699 226.5,54C 237.409,50.0265 248.409,46.5265 259.5,43.5 Z"/></g>
<g><path style="opacity:0" fill="#fe7f26" d="M 272.5,49.5 C 276.211,49.4695 276.878,50.4695 274.5,52.5C 267.48,53.7256 260.48,55.0589 253.5,56.5C 252.263,56.4435 251.263,55.9435 250.5,55C 257.761,52.628 265.094,50.7947 272.5,49.5 Z"/></g>
<g><path style="opacity:0" fill="#fe7f26" d="M 256.5,64.5 C 259.85,64.335 263.183,64.5017 266.5,65C 270.583,67.8601 270.25,70.1935 265.5,72C 259.5,72.6667 253.5,72.6667 247.5,72C 240.409,71.0796 233.409,70.0796 226.5,69C 227.328,68.0853 228.328,67.4186 229.5,67C 238.706,66.7675 247.706,65.9341 256.5,64.5 Z"/></g>
<g><path style="opacity:0" fill="#fec90d" d="M 246.5,67.5 C 253.345,67.0421 260.012,67.5421 266.5,69C 263.184,70.1302 259.684,70.6302 256,70.5C 247.164,70.0391 238.331,69.5391 229.5,69C 235.348,68.8272 241.015,68.3272 246.5,67.5 Z"/></g>
<g><path style="opacity:0" fill="#fe7f26" d="M 225.5,77.5 C 230.484,78.2751 235.484,78.9418 240.5,79.5C 240.5,80.5 240.5,81.5 240.5,82.5C 235.043,82.1461 229.709,81.1461 224.5,79.5C 224.863,78.8165 225.196,78.1499 225.5,77.5 Z"/></g>
<g><path style="opacity:0" fill="#fe7f26" d="M 248.5,81.5 C 266.477,83.9972 284.477,86.3305 302.5,88.5C 302.5,89.5 302.5,90.5 302.5,91.5C 284.044,89.5683 265.711,86.9016 247.5,83.5C 247.863,82.8165 248.196,82.1499 248.5,81.5 Z"/></g>
<g><path style="opacity:1" fill="#fe7f26" d="M 223.5,86.5 C 224.995,86.4148 225.995,87.0815 226.5,88.5C 223.646,91.1884 220.646,93.6884 217.5,96C 216.365,96.7494 215.365,96.5827 214.5,95.5C 217.34,92.2654 220.34,89.2654 223.5,86.5 Z"/></g>
<g><path style="opacity:1" fill="#fe7f26" d="M 240.5,93.5 C 242.973,93.6043 243.639,94.6043 242.5,96.5C 230.01,102.578 217.677,108.911 205.5,115.5C 204.692,115.192 204.025,114.692 203.5,114C 215.895,107.139 228.229,100.305 240.5,93.5 Z"/></g>
<g><path style="opacity:1" fill="#fe7f26" d="M 205.5,97.5 C 206.5,97.5 207.5,97.5 208.5,97.5C 208.719,98.675 208.386,99.675 207.5,100.5C 203.794,103.376 199.961,106.043 196,108.5C 194.743,108.15 194.409,107.483 195,106.5C 198.665,103.601 202.165,100.601 205.5,97.5 Z"/></g>
<g><path style="opacity:1" fill="#7e7f7e" d="M 328.5,108.5 C 335.333,108.582 341.666,110.415 347.5,114C 350.269,117.372 352.102,121.205 353,125.5C 353.667,128.167 353.667,130.833 353,133.5C 349.068,137.205 344.901,140.538 340.5,143.5C 345.615,150.377 343.949,154.877 335.5,157C 330.874,157.982 326.208,158.816 321.5,159.5C 320.619,160.971 319.286,161.804 317.5,162C 310.26,163.072 303.26,162.238 296.5,159.5C 295.653,154.846 294.987,150.179 294.5,145.5C 259.818,143.243 225.151,140.743 190.5,138C 191.788,135.534 191.788,133.034 190.5,130.5C 221.823,128.824 253.156,127.324 284.5,126C 281.773,119.497 283.773,115.164 290.5,113C 299.71,108.602 307.876,109.769 315,116.5C 319.155,113.176 323.655,110.509 328.5,108.5 Z"/></g>
<g><path style="opacity:1" fill="#fe7f26" d="M 224.5,111.5 C 226.973,111.604 227.639,112.604 226.5,114.5C 220.04,117.264 213.54,119.931 207,122.5C 205.274,121.352 205.441,120.185 207.5,119C 213.492,116.999 219.158,114.499 224.5,111.5 Z"/></g>
<g><path style="opacity:1" fill="#fe7f26" d="M 223.5,130.5 C 226.85,130.335 230.183,130.502 233.5,131C 237.583,133.86 237.25,136.193 232.5,138C 226.5,138.667 220.5,138.667 214.5,138C 207.409,137.08 200.409,136.08 193.5,135C 194.328,134.085 195.328,133.419 196.5,133C 205.706,132.767 214.706,131.934 223.5,130.5 Z"/></g>
<g><path style="opacity:1" fill="#fec90d" d="M 213.5,133.5 C 220.345,133.042 227.012,133.542 233.5,135C 230.184,136.13 226.684,136.63 223,136.5C 214.164,136.039 205.331,135.539 196.5,135C 202.348,134.827 208.015,134.327 213.5,133.5 Z"/></g>
<g><path style="opacity:1" fill="#fe7f26" d="M 206.5,150.5 C 210.5,151.167 212.833,153.5 213.5,157.5C 209.5,156.833 207.167,154.5 206.5,150.5 Z"/></g>
<g><path style="opacity:1" fill="#fe7f26" d="M 194.5,152.5 C 197.335,153.069 199.001,154.736 199.5,157.5C 196.916,157.431 194.916,156.265 193.5,154C 194.056,153.617 194.389,153.117 194.5,152.5 Z"/></g>
<g><path style="opacity:1" fill="#fe7f26" d="M 230.5,163.5 C 234.061,165.048 237.394,167.048 240.5,169.5C 241.386,170.325 241.719,171.325 241.5,172.5C 236.899,171.086 232.899,168.586 229.5,165C 230.056,164.617 230.389,164.117 230.5,163.5 Z"/></g>
<g><path style="opacity:0" fill="#fe7f26" d="M 204.5,172.5 C 207.5,172.167 208.833,173.5 208.5,176.5C 205.5,176.833 204.167,175.5 204.5,172.5 Z"/></g>
<g><path style="opacity:0" fill="#000000" d="M 264.5,175.5 C 275.11,173.087 283.443,176.253 289.5,185C 298.803,185.567 306.303,189.4 312,196.5C 312.667,199.167 312.667,201.833 312,204.5C 308.537,208.23 304.537,211.23 300,213.5C 301.646,216.546 302.312,219.88 302,223.5C 294.749,229.11 286.582,230.944 277.5,229C 274.898,228.117 272.731,226.617 271,224.5C 269.43,225.358 267.763,226.025 266,226.5C 262.383,225.461 258.883,224.128 255.5,222.5C 254.232,220.696 253.565,218.696 253.5,216.5C 218.818,214.243 184.151,211.743 149.5,209C 150.788,206.534 150.788,204.034 149.5,201.5C 183.135,199.52 216.801,198.187 250.5,197.5C 249.132,186.222 253.799,178.888 264.5,175.5 Z"/></g>
<g><path style="opacity:0" fill="#fe7f26" d="M 178.5,179.5 C 182.211,179.47 182.878,180.47 180.5,182.5C 174.167,183.833 167.833,185.167 161.5,186.5C 160.833,186.167 160.167,185.833 159.5,185.5C 160.381,184.029 161.714,183.196 163.5,183C 168.702,182.131 173.702,180.964 178.5,179.5 Z"/></g>
<g><path style="opacity:0" fill="#fe7f26" d="M 209.5,187.5 C 211.833,187.5 214.167,187.5 216.5,187.5C 216.5,188.5 216.5,189.5 216.5,190.5C 195.505,192.222 174.505,193.888 153.5,195.5C 153.5,194.5 153.5,193.5 153.5,192.5C 172.351,191.263 191.018,189.597 209.5,187.5 Z"/></g>
<g><path style="opacity:0" fill="#fe7f26" d="M 182.5,201.5 C 185.85,201.335 189.183,201.502 192.5,202C 196.583,204.86 196.25,207.193 191.5,209C 185.5,209.667 179.5,209.667 173.5,209C 166.409,208.08 159.409,207.08 152.5,206C 153.328,205.085 154.328,204.419 155.5,204C 164.706,203.767 173.706,202.934 182.5,201.5 Z"/></g>
<g><path style="opacity:0" fill="#fec90d" d="M 172.5,204.5 C 179.345,204.042 186.012,204.542 192.5,206C 189.184,207.13 185.684,207.63 182,207.5C 173.164,207.039 164.331,206.539 155.5,206C 161.348,205.827 167.015,205.327 172.5,204.5 Z"/></g>
<g><path style="opacity:0" fill="#fe7f26" d="M 167.5,216.5 C 178.814,219.329 190.148,222.162 201.5,225C 205.017,226.109 205.184,227.276 202,228.5C 191.231,225.433 180.398,222.599 169.5,220C 167.061,219.467 166.395,218.3 167.5,216.5 Z"/></g>
<g><path style="opacity:0" fill="#fe7f26" d="M 152.5,219.5 C 156.482,220.663 160.482,221.829 164.5,223C 167.267,223.669 167.767,224.836 166,226.5C 160.832,225.446 155.999,223.612 151.5,221C 152.056,220.617 152.389,220.117 152.5,219.5 Z"/></g>
<g><path style="opacity:0" fill="#fe7f26" d="M 175.5,229.5 C 183.189,231.172 190.856,233.005 198.5,235C 201.592,235.934 201.925,237.1 199.5,238.5C 190.869,236.762 182.536,234.262 174.5,231C 175.056,230.617 175.389,230.117 175.5,229.5 Z"/></g>
</svg>
