<?xml version="1.0" encoding="UTF-8"?>
<!DOCTYPE svg PUBLIC "-//W3C//DTD SVG 1.1//EN" "http://www.w3.org/Graphics/SVG/1.1/DTD/svg11.dtd">
<svg xmlns="http://www.w3.org/2000/svg" version="1.1" width="100px" height="100px" style="shape-rendering:geometricPrecision; text-rendering:geometricPrecision; image-rendering:optimizeQuality; fill-rule:evenodd; clip-rule:evenodd" xmlns:xlink="http://www.w3.org/1999/xlink">
<g><path style="opacity:1" fill="#000000" d="M 13.5,-0.5 C 21.1667,-0.5 28.8333,-0.5 36.5,-0.5C 37.7279,1.00978 37.7279,2.50978 36.5,4C 10.8371,-0.669477 0.00375353,9.83052 4,35.5C 2.50978,36.7279 1.00978,36.7279 -0.5,35.5C -0.5,28.1667 -0.5,20.8333 -0.5,13.5C 2.16667,6.83333 6.83333,2.16667 13.5,-0.5 Z"/></g>
<g><path style="opacity:1" fill="#000000" d="M 63.5,-0.5 C 70.5,-0.5 77.5,-0.5 84.5,-0.5C 91.4385,2.1057 96.4385,6.77236 99.5,13.5C 99.5,21.1667 99.5,28.8333 99.5,36.5C 97.9902,37.7279 96.4902,37.7279 95,36.5C 99.6924,10.8597 89.1924,0.0263699 63.5,4C 62.2721,2.50978 62.2721,1.00978 63.5,-0.5 Z"/></g>
<g><path style="opacity:1" fill="#000000" d="M 36.5,99.5 C 28.8333,99.5 21.1667,99.5 13.5,99.5C 6.59639,97.0522 1.92973,92.3856 -0.5,85.5C -0.5,78.1667 -0.5,70.8333 -0.5,63.5C 1.00978,62.2721 2.50978,62.2721 4,63.5C -0.0287686,89.1365 10.8046,99.6365 36.5,95C 37.7279,96.4902 37.7279,97.9902 36.5,99.5 Z"/></g>
<g><path style="opacity:1" fill="#000000" d="M 99.5,64.5 C 99.5,71.5 99.5,78.5 99.5,85.5C 96.7328,92.6018 91.7328,97.2684 84.5,99.5C 77.5,99.5 70.5,99.5 63.5,99.5C 62.2721,97.9902 62.2721,96.4902 63.5,95C 88.1961,99.3025 98.6961,89.1358 95,64.5C 96.4902,63.2721 97.9902,63.2721 99.5,64.5 Z"/></g>
</svg>
