<?xml version="1.0" encoding="UTF-8"?>
<!DOCTYPE svg PUBLIC "-//W3C//DTD SVG 1.1//EN" "http://www.w3.org/Graphics/SVG/1.1/DTD/svg11.dtd">
<svg xmlns="http://www.w3.org/2000/svg" version="1.1" width="192px" height="192px" style="shape-rendering:geometricPrecision; text-rendering:geometricPrecision; image-rendering:optimizeQuality; fill-rule:evenodd; clip-rule:evenodd" xmlns:xlink="http://www.w3.org/1999/xlink">
<g><path style="opacity:1" fill="#0b1014" d="M 181.5,11.5 C 182.833,12.1667 182.833,12.1667 181.5,11.5 Z"/></g>
<g><path style="opacity:1" fill="#0d1319" d="M 181.5,12.5 C 180.833,13.1667 180.833,13.1667 181.5,12.5 Z"/></g>
<g><path style="opacity:1" fill="#141d24" d="M 180.5,13.5 C 179.833,14.1667 179.833,14.1667 180.5,13.5 Z"/></g>
<g><path style="opacity:1" fill="#18222c" d="M 179.5,14.5 C 178.833,15.1667 178.833,15.1667 179.5,14.5 Z"/></g>
<g><path style="opacity:1" fill="#1e2a38" d="M 178.5,15.5 C 177.833,16.1667 177.833,16.1667 178.5,15.5 Z"/></g>
<g><path style="opacity:1" fill="#243143" d="M 177.5,16.5 C 176.833,17.1667 176.833,17.1667 177.5,16.5 Z"/></g>
<g><path style="opacity:1" fill="#304458" d="M 176.5,17.5 C 174.906,20.7642 172.573,23.4309 169.5,25.5C 169.5,24.8333 169.167,24.5 168.5,24.5C 170.549,21.4503 173.216,19.117 176.5,17.5 Z"/></g>
<g><path style="opacity:1" fill="#395167" d="M 168.5,24.5 C 169.167,24.5 169.5,24.8333 169.5,25.5C 166.138,29.1925 162.805,32.8592 159.5,36.5C 159.5,35.1667 158.833,34.5 157.5,34.5C 160.558,30.4754 164.225,27.1421 168.5,24.5 Z"/></g>
<g><path style="opacity:1" fill="#4b6986" d="M 157.5,34.5 C 158.833,34.5 159.5,35.1667 159.5,36.5C 157.167,39.5 154.5,42.1667 151.5,44.5C 151.672,43.5084 151.338,42.8417 150.5,42.5C 150.5,42.1667 150.5,41.8333 150.5,41.5C 152.5,38.8333 154.833,36.5 157.5,34.5 Z"/></g>
<g><path style="opacity:1" fill="#73a1be" d="M 150.5,42.5 C 151.338,42.8417 151.672,43.5084 151.5,44.5C 151.167,45.5 150.5,46.1667 149.5,46.5C 149.167,46.5 148.833,46.5 148.5,46.5C 148.5,45.8333 148.167,45.5 147.5,45.5C 148.167,44.1667 149.167,43.1667 150.5,42.5 Z"/></g>
<g><path style="opacity:1" fill="#314458" d="M 150.5,41.5 C 150.5,41.8333 150.5,42.1667 150.5,42.5C 149.167,43.1667 148.167,44.1667 147.5,45.5C 145.5,47.1667 143.5,48.8333 141.5,50.5C 141.167,50.5 140.833,50.5 140.5,50.5C 143.231,46.7657 146.564,43.7657 150.5,41.5 Z"/></g>
<g><path style="opacity:1" fill="#32485b" d="M 148.5,46.5 C 148.833,46.5 149.167,46.5 149.5,46.5C 146.167,50.5 142.5,54.1667 138.5,57.5C 141.101,53.2294 144.434,49.5628 148.5,46.5 Z"/></g>
<g><path style="opacity:1" fill="#4f708f" d="M 140.5,50.5 C 140.833,50.5 141.167,50.5 141.5,50.5C 137.167,55.1667 132.833,59.8333 128.5,64.5C 128.167,64.5 127.833,64.5 127.5,64.5C 127.5,64.1667 127.5,63.8333 127.5,63.5C 131.5,58.8333 135.833,54.5 140.5,50.5 Z"/></g>
<g><path style="opacity:1" fill="#a7c9d4" d="M 147.5,45.5 C 148.167,45.5 148.5,45.8333 148.5,46.5C 144.434,49.5628 141.101,53.2294 138.5,57.5C 135.833,60.8333 132.833,63.8333 129.5,66.5C 129.167,65.8333 128.833,65.1667 128.5,64.5C 132.833,59.8333 137.167,55.1667 141.5,50.5C 143.5,48.8333 145.5,47.1667 147.5,45.5 Z"/></g>
<g><path style="opacity:1" fill="#283948" d="M 127.5,63.5 C 127.5,63.8333 127.5,64.1667 127.5,64.5C 122.833,68.8333 118.167,73.1667 113.5,77.5C 113.167,77.5 112.833,77.5 112.5,77.5C 116.892,72.1057 121.892,67.439 127.5,63.5 Z"/></g>
<g><path style="opacity:1" fill="#a7bbcb" d="M 127.5,64.5 C 127.833,64.5 128.167,64.5 128.5,64.5C 128.833,65.1667 129.167,65.8333 129.5,66.5C 120.833,75.8333 111.833,84.8333 102.5,93.5C 102.167,93.5 101.833,93.5 101.5,93.5C 101.167,92.8333 100.833,92.1667 100.5,91.5C 104.833,86.8333 109.167,82.1667 113.5,77.5C 118.167,73.1667 122.833,68.8333 127.5,64.5 Z"/></g>
<g><path style="opacity:1" fill="#effeff" d="M 100.5,91.5 C 100.833,92.1667 101.167,92.8333 101.5,93.5C 93.8333,100.833 86.1667,108.167 78.5,115.5C 77.8333,115.5 77.1667,115.5 76.5,115.5C 84.1667,107.167 92.1667,99.1667 100.5,91.5 Z"/></g>
<g><path style="opacity:1" fill="#4a6987" d="M 112.5,77.5 C 112.833,77.5 113.167,77.5 113.5,77.5C 109.167,82.1667 104.833,86.8333 100.5,91.5C 92.1667,99.1667 84.1667,107.167 76.5,115.5C 68.1667,123.5 59.8333,131.5 51.5,139.5C 51.5,139.167 51.5,138.833 51.5,138.5C 71.5,117.833 91.8333,97.5 112.5,77.5 Z"/></g>
<g><path style="opacity:1" fill="#253442" d="M 101.5,93.5 C 101.833,93.5 102.167,93.5 102.5,93.5C 92.4473,104.554 81.7806,114.887 70.5,124.5C 73.1667,121.5 75.8333,118.5 78.5,115.5C 86.1667,108.167 93.8333,100.833 101.5,93.5 Z"/></g>
<g><path style="opacity:1" fill="#bcdae6" d="M 76.5,115.5 C 77.1667,115.5 77.8333,115.5 78.5,115.5C 75.8333,118.5 73.1667,121.5 70.5,124.5C 68.5,127.167 66.1667,129.5 63.5,131.5C 59.562,134.098 55.8953,137.098 52.5,140.5C 52.1667,140.5 51.8333,140.5 51.5,140.5C 51.5,140.167 51.5,139.833 51.5,139.5C 59.8333,131.5 68.1667,123.5 76.5,115.5 Z"/></g>
<g><path style="opacity:1" fill="#314458" d="M 51.5,138.5 C 51.5,138.833 51.5,139.167 51.5,139.5C 51.5,139.833 51.5,140.167 51.5,140.5C 48.8333,142.5 46.5,144.833 44.5,147.5C 41.7029,149.795 39.0362,152.295 36.5,155C 37.0944,155.464 37.7611,155.631 38.5,155.5C 33.1359,160.865 27.4692,165.865 21.5,170.5C 30.5748,159.061 40.5748,148.394 51.5,138.5 Z"/></g>
<g><path style="opacity:1" fill="#96d4fb" d="M 51.5,140.5 C 51.8333,140.5 52.1667,140.5 52.5,140.5C 50.5,142.833 48.5,145.167 46.5,147.5C 45.8333,147.5 45.1667,147.5 44.5,147.5C 46.5,144.833 48.8333,142.5 51.5,140.5 Z"/></g>
<g><path style="opacity:1" fill="#202d39" d="M 63.5,131.5 C 58.4428,137.559 52.7762,142.893 46.5,147.5C 48.5,145.167 50.5,142.833 52.5,140.5C 55.8953,137.098 59.562,134.098 63.5,131.5 Z"/></g>
<g><path style="opacity:1" fill="#507191" d="M 44.5,147.5 C 45.1667,147.5 45.8333,147.5 46.5,147.5C 44.1667,150.5 41.5,153.167 38.5,155.5C 37.7611,155.631 37.0944,155.464 36.5,155C 39.0362,152.295 41.7029,149.795 44.5,147.5 Z"/></g>
<g><path style="opacity:1" fill="#2e4253" d="M 21.5,170.5 C 20.8333,171.167 20.8333,171.167 21.5,170.5 Z"/></g>
<g><path style="opacity:1" fill="#263843" d="M 20.5,171.5 C 19.8333,172.167 19.8333,172.167 20.5,171.5 Z"/></g>
<g><path style="opacity:1" fill="#1d2635" d="M 19.5,172.5 C 18.8333,173.167 18.8333,173.167 19.5,172.5 Z"/></g>
<g><path style="opacity:1" fill="#172128" d="M 18.5,173.5 C 17.8333,174.167 17.8333,174.167 18.5,173.5 Z"/></g>
<g><path style="opacity:1" fill="#0f161c" d="M 17.5,174.5 C 16.8333,175.167 16.8333,175.167 17.5,174.5 Z"/></g>
<g><path style="opacity:1" fill="#0b1014" d="M 16.5,175.5 C 15.8333,176.167 15.8333,176.167 16.5,175.5 Z"/></g>
</svg>
