<?xml version="1.0" encoding="UTF-8"?>
<!DOCTYPE svg PUBLIC "-//W3C//DTD SVG 1.1//EN" "http://www.w3.org/Graphics/SVG/1.1/DTD/svg11.dtd">
<svg xmlns="http://www.w3.org/2000/svg" version="1.1" width="192px" height="192px" style="shape-rendering:geometricPrecision; text-rendering:geometricPrecision; image-rendering:optimizeQuality; fill-rule:evenodd; clip-rule:evenodd" xmlns:xlink="http://www.w3.org/1999/xlink">
<g><path style="opacity:1" fill="#3a486d" d="M 121.5,73.5 C 121.672,72.5084 121.338,71.8417 120.5,71.5C 122.502,68.6662 125.002,66.3329 128,64.5C 126.856,68.0765 124.69,71.0765 121.5,73.5 Z"/></g>
<g><path style="opacity:1" fill="#6781bf" d="M 120.5,71.5 C 121.338,71.8417 121.672,72.5084 121.5,73.5C 120.833,74.8333 119.833,75.8333 118.5,76.5C 118.5,75.8333 118.5,75.1667 118.5,74.5C 119.167,73.5 119.833,72.5 120.5,71.5 Z"/></g>
<g><path style="opacity:1" fill="#f0faff" d="M 118.5,74.5 C 118.5,75.1667 118.5,75.8333 118.5,76.5C 106.14,88.5274 93.8067,100.527 81.5,112.5C 80.8333,112.5 80.5,112.167 80.5,111.5C 92.5312,98.4682 105.198,86.1349 118.5,74.5 Z"/></g>
<g><path style="opacity:1" fill="#323f5f" d="M 118.5,76.5 C 118.631,77.2389 118.464,77.9056 118,78.5C 106.268,90.7347 94.101,102.401 81.5,113.5C 81.5,113.167 81.5,112.833 81.5,112.5C 93.8067,100.527 106.14,88.5274 118.5,76.5 Z"/></g>
<g><path style="opacity:1" fill="#495b88" d="M 120.5,71.5 C 119.833,72.5 119.167,73.5 118.5,74.5C 105.198,86.1349 92.5312,98.4682 80.5,111.5C 76.6247,114.048 76.6247,115.048 80.5,114.5C 78.1203,117.881 75.1203,120.547 71.5,122.5C 70.6618,122.158 70.3284,121.492 70.5,120.5C 85.8878,102.778 102.554,86.4447 120.5,71.5 Z"/></g>
<g><path style="opacity:1" fill="#adc8e6" d="M 80.5,111.5 C 80.5,112.167 80.8333,112.5 81.5,112.5C 81.5,112.833 81.5,113.167 81.5,113.5C 81.5,114.167 81.1667,114.5 80.5,114.5C 76.6247,115.048 76.6247,114.048 80.5,111.5 Z"/></g>
<g><path style="opacity:1" fill="#273249" d="M 70.5,120.5 C 70.3284,121.492 70.6618,122.158 71.5,122.5C 69.7194,125.046 67.386,126.546 64.5,127C 66.7341,124.937 68.7341,122.771 70.5,120.5 Z"/></g>
</svg>
