<?xml version="1.0" encoding="UTF-8"?>
<!DOCTYPE svg PUBLIC "-//W3C//DTD SVG 1.1//EN" "http://www.w3.org/Graphics/SVG/1.1/DTD/svg11.dtd">
<svg xmlns="http://www.w3.org/2000/svg" version="1.1" width="192px" height="192px" style="shape-rendering:geometricPrecision; text-rendering:geometricPrecision; image-rendering:optimizeQuality; fill-rule:evenodd; clip-rule:evenodd" xmlns:xlink="http://www.w3.org/1999/xlink">
<g><path style="opacity:1" fill="#0d1319" d="M 179.5,13.5 C 180.833,14.1667 180.833,14.1667 179.5,13.5 Z"/></g>
<g><path style="opacity:1" fill="#131b21" d="M 179.5,14.5 C 178.833,15.1667 178.833,15.1667 179.5,14.5 Z"/></g>
<g><path style="opacity:1" fill="#1a252e" d="M 178.5,15.5 C 177.833,16.1667 177.833,16.1667 178.5,15.5 Z"/></g>
<g><path style="opacity:1" fill="#22303d" d="M 177.5,16.5 C 176.833,17.1667 176.833,17.1667 177.5,16.5 Z"/></g>
<g><path style="opacity:1" fill="#263843" d="M 176.5,17.5 C 175.833,18.1667 175.833,18.1667 176.5,17.5 Z"/></g>
<g><path style="opacity:1" fill="#2e4253" d="M 175.5,18.5 C 174.833,19.1667 174.833,19.1667 175.5,18.5 Z"/></g>
<g><path style="opacity:1" fill="#354f5d" d="M 174.5,19.5 C 173.833,20.1667 173.833,20.1667 174.5,19.5 Z"/></g>
<g><path style="opacity:1" fill="#395466" d="M 173.5,20.5 C 172.833,21.1667 172.833,21.1667 173.5,20.5 Z"/></g>
<g><path style="opacity:1" fill="#44637a" d="M 172.5,21.5 C 171.833,22.1667 171.833,22.1667 172.5,21.5 Z"/></g>
<g><path style="opacity:1" fill="#537b92" d="M 171.5,22.5 C 170.833,23.1667 170.833,23.1667 171.5,22.5 Z"/></g>
<g><path style="opacity:1" fill="#57809b" d="M 170.5,23.5 C 169.833,24.1667 169.833,24.1667 170.5,23.5 Z"/></g>
<g><path style="opacity:1" fill="#4c7287" d="M 169.5,24.5 C 168.833,25.1667 168.833,25.1667 169.5,24.5 Z"/></g>
<g><path style="opacity:1" fill="#4f768e" d="M 168.5,25.5 C 167.833,26.1667 167.833,26.1667 168.5,25.5 Z"/></g>
<g><path style="opacity:1" fill="#537b92" d="M 167.5,26.5 C 166.833,27.1667 166.833,27.1667 167.5,26.5 Z"/></g>
<g><path style="opacity:1" fill="#537b92" d="M 166.5,27.5 C 165.833,28.1667 165.833,28.1667 166.5,27.5 Z"/></g>
<g><path style="opacity:1" fill="#537b92" d="M 165.5,28.5 C 164.833,29.1667 164.833,29.1667 165.5,28.5 Z"/></g>
<g><path style="opacity:1" fill="#57809b" d="M 164.5,29.5 C 163.833,30.1667 163.833,30.1667 164.5,29.5 Z"/></g>
<g><path style="opacity:1" fill="#57809b" d="M 163.5,30.5 C 162.833,31.1667 162.833,31.1667 163.5,30.5 Z"/></g>
<g><path style="opacity:1" fill="#57809b" d="M 162.5,31.5 C 161.833,32.1667 161.833,32.1667 162.5,31.5 Z"/></g>
<g><path style="opacity:1" fill="#57809b" d="M 161.5,32.5 C 160.833,33.1667 160.833,33.1667 161.5,32.5 Z"/></g>
<g><path style="opacity:1" fill="#537b92" d="M 160.5,33.5 C 159.833,34.1667 159.833,34.1667 160.5,33.5 Z"/></g>
<g><path style="opacity:1" fill="#537b92" d="M 159.5,34.5 C 158.833,35.1667 158.833,35.1667 159.5,34.5 Z"/></g>
<g><path style="opacity:1" fill="#4f768e" d="M 158.5,35.5 C 157.833,36.1667 157.833,36.1667 158.5,35.5 Z"/></g>
<g><path style="opacity:1" fill="#4c7287" d="M 157.5,36.5 C 156.833,37.1667 156.833,37.1667 157.5,36.5 Z"/></g>
<g><path style="opacity:1" fill="#496c83" d="M 156.5,37.5 C 155.833,38.1667 155.833,38.1667 156.5,37.5 Z"/></g>
<g><path style="opacity:1" fill="#496c83" d="M 155.5,38.5 C 154.833,39.1667 154.833,39.1667 155.5,38.5 Z"/></g>
<g><path style="opacity:1" fill="#496c83" d="M 154.5,39.5 C 153.833,40.1667 153.833,40.1667 154.5,39.5 Z"/></g>
<g><path style="opacity:1" fill="#44637a" d="M 153.5,40.5 C 152.833,41.1667 152.833,41.1667 153.5,40.5 Z"/></g>
<g><path style="opacity:1" fill="#44637a" d="M 152.5,41.5 C 151.833,42.1667 151.833,42.1667 152.5,41.5 Z"/></g>
<g><path style="opacity:1" fill="#44637a" d="M 151.5,42.5 C 150.833,43.1667 150.833,43.1667 151.5,42.5 Z"/></g>
<g><path style="opacity:1" fill="#44637a" d="M 150.5,43.5 C 149.833,44.1667 149.833,44.1667 150.5,43.5 Z"/></g>
<g><path style="opacity:1" fill="#3c5a6b" d="M 149.5,44.5 C 148.833,45.1667 148.833,45.1667 149.5,44.5 Z"/></g>
<g><path style="opacity:1" fill="#3c5a6b" d="M 148.5,45.5 C 147.833,46.1667 147.833,46.1667 148.5,45.5 Z"/></g>
<g><path style="opacity:1" fill="#395466" d="M 147.5,46.5 C 146.833,47.1667 146.833,47.1667 147.5,46.5 Z"/></g>
<g><path style="opacity:1" fill="#375262" d="M 146.5,47.5 C 145.833,48.1667 145.833,48.1667 146.5,47.5 Z"/></g>
<g><path style="opacity:1" fill="#354f5d" d="M 145.5,48.5 C 144.833,49.1667 144.833,49.1667 145.5,48.5 Z"/></g>
<g><path style="opacity:1" fill="#314856" d="M 144.5,49.5 C 143.833,50.1667 143.833,50.1667 144.5,49.5 Z"/></g>
<g><path style="opacity:1" fill="#2e4253" d="M 143.5,50.5 C 142.833,51.1667 142.833,51.1667 143.5,50.5 Z"/></g>
<g><path style="opacity:1" fill="#2c404d" d="M 142.5,51.5 C 141.833,52.1667 141.833,52.1667 142.5,51.5 Z"/></g>
<g><path style="opacity:1" fill="#1e2b35" d="M 141.5,52.5 C 140.833,53.8333 139.833,54.8333 138.5,55.5C 138.5,55.1667 138.5,54.8333 138.5,54.5C 138.973,53.0937 139.973,52.427 141.5,52.5 Z"/></g>
<g><path style="opacity:1" fill="#19232d" d="M 138.5,54.5 C 138.5,54.8333 138.5,55.1667 138.5,55.5C 138.5,56.1667 138.167,56.5 137.5,56.5C 137.167,56.5 136.833,56.5 136.5,56.5C 136.833,55.5 137.5,54.8333 138.5,54.5 Z"/></g>
<g><path style="opacity:1" fill="#1b2631" d="M 136.5,56.5 C 136.833,56.5 137.167,56.5 137.5,56.5C 136.833,57.8333 135.833,58.8333 134.5,59.5C 134.5,59.1667 134.5,58.8333 134.5,58.5C 134.833,57.5 135.5,56.8333 136.5,56.5 Z"/></g>
<g><path style="opacity:1" fill="#1f2c37" d="M 134.5,58.5 C 134.5,58.8333 134.5,59.1667 134.5,59.5C 130.108,64.8943 125.108,69.561 119.5,73.5C 124.167,68.1667 129.167,63.1667 134.5,58.5 Z"/></g>
<g><path style="opacity:1" fill="#74abcf" d="M 119.5,73.5 C 118.833,74.1667 118.833,74.1667 119.5,73.5 Z"/></g>
<g><path style="opacity:1" fill="#7bb5da" d="M 118.5,74.5 C 117.833,75.1667 117.833,75.1667 118.5,74.5 Z"/></g>
<g><path style="opacity:1" fill="#83c1e9" d="M 117.5,75.5 C 116.833,76.1667 116.833,76.1667 117.5,75.5 Z"/></g>
<g><path style="opacity:1" fill="#8acaf6" d="M 116.5,76.5 C 115.833,77.1667 115.833,77.1667 116.5,76.5 Z"/></g>
<g><path style="opacity:1" fill="#95dafe" d="M 115.5,77.5 C 114.833,78.1667 114.833,78.1667 115.5,77.5 Z"/></g>
<g><path style="opacity:1" fill="#a1ecfe" d="M 114.5,78.5 C 113.833,79.1667 113.833,79.1667 114.5,78.5 Z"/></g>
<g><path style="opacity:1" fill="#acfcfe" d="M 113.5,79.5 C 112.833,80.1667 112.833,80.1667 113.5,79.5 Z"/></g>
<g><path style="opacity:1" fill="#b9fffe" d="M 112.5,80.5 C 111.833,81.1667 111.833,81.1667 112.5,80.5 Z"/></g>
<g><path style="opacity:1" fill="#c4fffe" d="M 111.5,81.5 C 110.833,82.1667 110.833,82.1667 111.5,81.5 Z"/></g>
<g><path style="opacity:1" fill="#d0fffe" d="M 110.5,82.5 C 109.833,83.1667 109.833,83.1667 110.5,82.5 Z"/></g>
<g><path style="opacity:1" fill="#dcfffe" d="M 109.5,83.5 C 108.833,84.1667 108.833,84.1667 109.5,83.5 Z"/></g>
<g><path style="opacity:1" fill="#e9fffe" d="M 108.5,84.5 C 107.833,85.1667 107.833,85.1667 108.5,84.5 Z"/></g>
<g><path style="opacity:1" fill="#f8fffe" d="M 107.5,85.5 C 106.833,86.1667 106.833,86.1667 107.5,85.5 Z"/></g>
<g><path style="opacity:1" fill="#fefffe" d="M 106.5,86.5 C 105.833,87.1667 105.833,87.1667 106.5,86.5 Z"/></g>
<g><path style="opacity:1" fill="#fefffe" d="M 105.5,87.5 C 104.833,88.1667 104.833,88.1667 105.5,87.5 Z"/></g>
<g><path style="opacity:1" fill="#fefffe" d="M 104.5,88.5 C 103.833,89.1667 103.833,89.1667 104.5,88.5 Z"/></g>
<g><path style="opacity:1" fill="#fefffe" d="M 103.5,89.5 C 102.833,90.1667 102.833,90.1667 103.5,89.5 Z"/></g>
<g><path style="opacity:1" fill="#fefffe" d="M 102.5,90.5 C 101.833,91.1667 101.833,91.1667 102.5,90.5 Z"/></g>
<g><path style="opacity:1" fill="#fefffe" d="M 101.5,91.5 C 100.833,92.1667 100.833,92.1667 101.5,91.5 Z"/></g>
<g><path style="opacity:1" fill="#fefffe" d="M 100.5,92.5 C 99.8333,93.1667 99.8333,93.1667 100.5,92.5 Z"/></g>
<g><path style="opacity:1" fill="#fefffe" d="M 99.5,93.5 C 98.8333,94.1667 98.8333,94.1667 99.5,93.5 Z"/></g>
<g><path style="opacity:1" fill="#fefffe" d="M 98.5,94.5 C 97.8333,95.1667 97.8333,95.1667 98.5,94.5 Z"/></g>
<g><path style="opacity:1" fill="#fefffe" d="M 97.5,95.5 C 96.8333,96.1667 96.8333,96.1667 97.5,95.5 Z"/></g>
<g><path style="opacity:1" fill="#fefffe" d="M 96.5,96.5 C 95.8333,97.1667 95.8333,97.1667 96.5,96.5 Z"/></g>
<g><path style="opacity:1" fill="#fefffe" d="M 95.5,97.5 C 94.8333,98.1667 94.8333,98.1667 95.5,97.5 Z"/></g>
<g><path style="opacity:1" fill="#fefffe" d="M 94.5,98.5 C 93.8333,99.1667 93.8333,99.1667 94.5,98.5 Z"/></g>
<g><path style="opacity:1" fill="#fefffe" d="M 93.5,99.5 C 92.8333,100.167 92.8333,100.167 93.5,99.5 Z"/></g>
<g><path style="opacity:1" fill="#fefffe" d="M 92.5,100.5 C 91.8333,101.167 91.8333,101.167 92.5,100.5 Z"/></g>
<g><path style="opacity:1" fill="#fefffe" d="M 91.5,101.5 C 90.8333,102.167 90.8333,102.167 91.5,101.5 Z"/></g>
<g><path style="opacity:1" fill="#fefffe" d="M 90.5,102.5 C 89.8333,103.167 89.8333,103.167 90.5,102.5 Z"/></g>
<g><path style="opacity:1" fill="#fefffe" d="M 89.5,103.5 C 88.8333,104.167 88.8333,104.167 89.5,103.5 Z"/></g>
<g><path style="opacity:1" fill="#fefffe" d="M 88.5,104.5 C 87.8333,105.167 87.8333,105.167 88.5,104.5 Z"/></g>
<g><path style="opacity:1" fill="#fefffe" d="M 87.5,105.5 C 86.8333,106.167 86.8333,106.167 87.5,105.5 Z"/></g>
<g><path style="opacity:1" fill="#fdfffe" d="M 86.5,106.5 C 85.8333,107.167 85.8333,107.167 86.5,106.5 Z"/></g>
<g><path style="opacity:1" fill="#f0fffe" d="M 85.5,107.5 C 84.8333,108.167 84.8333,108.167 85.5,107.5 Z"/></g>
<g><path style="opacity:1" fill="#e4fffe" d="M 84.5,108.5 C 83.8333,109.167 83.8333,109.167 84.5,108.5 Z"/></g>
<g><path style="opacity:1" fill="#d8fffe" d="M 83.5,109.5 C 82.8333,110.167 82.8333,110.167 83.5,109.5 Z"/></g>
<g><path style="opacity:1" fill="#c8fffe" d="M 82.5,110.5 C 81.8333,111.167 81.8333,111.167 82.5,110.5 Z"/></g>
<g><path style="opacity:1" fill="#bcfffe" d="M 81.5,111.5 C 80.8333,112.167 80.8333,112.167 81.5,111.5 Z"/></g>
<g><path style="opacity:1" fill="#b0fffe" d="M 80.5,112.5 C 79.8333,113.167 79.8333,113.167 80.5,112.5 Z"/></g>
<g><path style="opacity:1" fill="#a4f2fe" d="M 79.5,113.5 C 78.8333,114.167 78.8333,114.167 79.5,113.5 Z"/></g>
<g><path style="opacity:1" fill="#9ce4fe" d="M 78.5,114.5 C 77.8333,115.167 77.8333,115.167 78.5,114.5 Z"/></g>
<g><path style="opacity:1" fill="#8ed0fc" d="M 77.5,115.5 C 76.8333,116.167 76.8333,116.167 77.5,115.5 Z"/></g>
<g><path style="opacity:1" fill="#83c1e9" d="M 76.5,116.5 C 75.8333,117.167 75.8333,117.167 76.5,116.5 Z"/></g>
<g><path style="opacity:1" fill="#7bb5da" d="M 75.5,117.5 C 74.8333,118.167 74.8333,118.167 75.5,117.5 Z"/></g>
<g><path style="opacity:1" fill="#74abcf" d="M 74.5,118.5 C 73.8333,119.167 73.8333,119.167 74.5,118.5 Z"/></g>
<g><path style="opacity:1" fill="#6a9cbc" d="M 73.5,119.5 C 72.8333,120.167 72.8333,120.167 73.5,119.5 Z"/></g>
<g><path style="opacity:1" fill="#6290ae" d="M 72.5,120.5 C 71.8333,121.167 71.8333,121.167 72.5,120.5 Z"/></g>
<g><path style="opacity:1" fill="#5a87a0" d="M 71.5,121.5 C 70.8333,122.167 70.8333,122.167 71.5,121.5 Z"/></g>
<g><path style="opacity:1" fill="#364e5d" d="M 70.5,122.5 C 69.8333,123.833 68.8333,124.833 67.5,125.5C 67.5,125.167 67.5,124.833 67.5,124.5C 67.9731,123.094 68.9731,122.427 70.5,122.5 Z"/></g>
<g><path style="opacity:1" fill="#273945" d="M 67.5,124.5 C 67.5,124.833 67.5,125.167 67.5,125.5C 67.1667,126.5 66.5,127.167 65.5,127.5C 65.5,127.167 65.5,126.833 65.5,126.5C 65.8333,125.5 66.5,124.833 67.5,124.5 Z"/></g>
<g><path style="opacity:1" fill="#212f3b" d="M 65.5,126.5 C 65.5,126.833 65.5,127.167 65.5,127.5C 65.1667,128.5 64.5,129.167 63.5,129.5C 63.5,129.167 63.5,128.833 63.5,128.5C 63.8333,127.5 64.5,126.833 65.5,126.5 Z"/></g>
<g><path style="opacity:1" fill="#1c2833" d="M 63.5,128.5 C 63.5,128.833 63.5,129.167 63.5,129.5C 63.1667,130.5 62.5,131.167 61.5,131.5C 61.5,131.167 61.5,130.833 61.5,130.5C 61.8333,129.5 62.5,128.833 63.5,128.5 Z"/></g>
<g><path style="opacity:1" fill="#17212a" d="M 61.5,130.5 C 61.5,130.833 61.5,131.167 61.5,131.5C 61.1667,132.5 60.5,133.167 59.5,133.5C 59.5,133.167 59.5,132.833 59.5,132.5C 59.8333,131.5 60.5,130.833 61.5,130.5 Z"/></g>
<g><path style="opacity:1" fill="#131c23" d="M 59.5,132.5 C 59.5,132.833 59.5,133.167 59.5,133.5C 58.0892,135.914 56.0892,137.581 53.5,138.5C 55.1667,136.167 57.1667,134.167 59.5,132.5 Z"/></g>
<g><path style="opacity:1" fill="#1d2933" d="M 53.5,138.5 C 52.8333,139.167 52.8333,139.167 53.5,138.5 Z"/></g>
<g><path style="opacity:1" fill="#1e2a38" d="M 52.5,139.5 C 51.8333,140.167 51.8333,140.167 52.5,139.5 Z"/></g>
<g><path style="opacity:1" fill="#22303d" d="M 51.5,140.5 C 50.8333,141.167 50.8333,141.167 51.5,140.5 Z"/></g>
<g><path style="opacity:1" fill="#22303d" d="M 50.5,141.5 C 49.8333,142.167 49.8333,142.167 50.5,141.5 Z"/></g>
<g><path style="opacity:1" fill="#22303d" d="M 49.5,142.5 C 48.8333,143.167 48.8333,143.167 49.5,142.5 Z"/></g>
<g><path style="opacity:1" fill="#243143" d="M 48.5,143.5 C 47.8333,144.167 47.8333,144.167 48.5,143.5 Z"/></g>
<g><path style="opacity:1" fill="#263843" d="M 47.5,144.5 C 46.8333,145.167 46.8333,145.167 47.5,144.5 Z"/></g>
<g><path style="opacity:1" fill="#263843" d="M 46.5,145.5 C 45.8333,146.167 45.8333,146.167 46.5,145.5 Z"/></g>
<g><path style="opacity:1" fill="#2c404d" d="M 45.5,146.5 C 44.8333,147.167 44.8333,147.167 45.5,146.5 Z"/></g>
<g><path style="opacity:1" fill="#2c404d" d="M 44.5,147.5 C 43.8333,148.167 43.8333,148.167 44.5,147.5 Z"/></g>
<g><path style="opacity:1" fill="#2e4253" d="M 43.5,148.5 C 42.8333,149.167 42.8333,149.167 43.5,148.5 Z"/></g>
<g><path style="opacity:1" fill="#314856" d="M 42.5,149.5 C 41.8333,150.167 41.8333,150.167 42.5,149.5 Z"/></g>
<g><path style="opacity:1" fill="#314856" d="M 41.5,150.5 C 40.8333,151.167 40.8333,151.167 41.5,150.5 Z"/></g>
<g><path style="opacity:1" fill="#314856" d="M 40.5,151.5 C 39.8333,152.167 39.8333,152.167 40.5,151.5 Z"/></g>
<g><path style="opacity:1" fill="#354f5d" d="M 39.5,152.5 C 38.8333,153.167 38.8333,153.167 39.5,152.5 Z"/></g>
<g><path style="opacity:1" fill="#354f5d" d="M 38.5,153.5 C 37.8333,154.167 37.8333,154.167 38.5,153.5 Z"/></g>
<g><path style="opacity:1" fill="#354f5d" d="M 37.5,154.5 C 36.8333,155.167 36.8333,155.167 37.5,154.5 Z"/></g>
<g><path style="opacity:1" fill="#354f5d" d="M 36.5,155.5 C 35.8333,156.167 35.8333,156.167 36.5,155.5 Z"/></g>
<g><path style="opacity:1" fill="#354f5d" d="M 35.5,156.5 C 34.8333,157.167 34.8333,157.167 35.5,156.5 Z"/></g>
<g><path style="opacity:1" fill="#354f5d" d="M 34.5,157.5 C 33.8333,158.167 33.8333,158.167 34.5,157.5 Z"/></g>
<g><path style="opacity:1" fill="#354f5d" d="M 33.5,158.5 C 32.8333,159.167 32.8333,159.167 33.5,158.5 Z"/></g>
<g><path style="opacity:1" fill="#375262" d="M 32.5,159.5 C 31.8333,160.167 31.8333,160.167 32.5,159.5 Z"/></g>
<g><path style="opacity:1" fill="#395466" d="M 31.5,160.5 C 30.8333,161.167 30.8333,161.167 31.5,160.5 Z"/></g>
<g><path style="opacity:1" fill="#395466" d="M 30.5,161.5 C 29.8333,162.167 29.8333,162.167 30.5,161.5 Z"/></g>
<g><path style="opacity:1" fill="#395466" d="M 29.5,162.5 C 28.8333,163.167 28.8333,163.167 29.5,162.5 Z"/></g>
<g><path style="opacity:1" fill="#395466" d="M 28.5,163.5 C 27.8333,164.167 27.8333,164.167 28.5,163.5 Z"/></g>
<g><path style="opacity:1" fill="#375262" d="M 27.5,164.5 C 26.8333,165.167 26.8333,165.167 27.5,164.5 Z"/></g>
<g><path style="opacity:1" fill="#375262" d="M 26.5,165.5 C 25.8333,166.167 25.8333,166.167 26.5,165.5 Z"/></g>
<g><path style="opacity:1" fill="#354f5d" d="M 25.5,166.5 C 24.8333,167.167 24.8333,167.167 25.5,166.5 Z"/></g>
<g><path style="opacity:1" fill="#334a5c" d="M 24.5,167.5 C 23.8333,168.167 23.8333,168.167 24.5,167.5 Z"/></g>
<g><path style="opacity:1" fill="#304556" d="M 23.5,168.5 C 22.8333,169.167 22.8333,169.167 23.5,168.5 Z"/></g>
<g><path style="opacity:1" fill="#2e4253" d="M 22.5,169.5 C 21.8333,170.167 21.8333,170.167 22.5,169.5 Z"/></g>
<g><path style="opacity:1" fill="#314856" d="M 21.5,170.5 C 20.8333,171.167 20.8333,171.167 21.5,170.5 Z"/></g>
<g><path style="opacity:1" fill="#2c404d" d="M 20.5,171.5 C 19.8333,172.167 19.8333,172.167 20.5,171.5 Z"/></g>
<g><path style="opacity:1" fill="#22303d" d="M 19.5,172.5 C 18.8333,173.167 18.8333,173.167 19.5,172.5 Z"/></g>
<g><path style="opacity:1" fill="#1a252e" d="M 18.5,173.5 C 17.8333,174.167 17.8333,174.167 18.5,173.5 Z"/></g>
<g><path style="opacity:1" fill="#131d22" d="M 17.5,174.5 C 16.8333,175.167 16.8333,175.167 17.5,174.5 Z"/></g>
<g><path style="opacity:1" fill="#0b1014" d="M 16.5,175.5 C 15.8333,176.167 15.8333,176.167 16.5,175.5 Z"/></g>
</svg>
