<?xml version="1.0" encoding="UTF-8"?>
<!DOCTYPE svg PUBLIC "-//W3C//DTD SVG 1.1//EN" "http://www.w3.org/Graphics/SVG/1.1/DTD/svg11.dtd">
<svg xmlns="http://www.w3.org/2000/svg" version="1.1" width="192px" height="192px" style="shape-rendering:geometricPrecision; text-rendering:geometricPrecision; image-rendering:optimizeQuality; fill-rule:evenodd; clip-rule:evenodd" xmlns:xlink="http://www.w3.org/1999/xlink">
<g><path style="opacity:1" fill="#0f161c" d="M 171.5,21.5 C 172.833,22.1667 172.833,22.1667 171.5,21.5 Z"/></g>
<g><path style="opacity:1" fill="#191f2f" d="M 171.5,22.5 C 170.833,23.1667 170.833,23.1667 171.5,22.5 Z"/></g>
<g><path style="opacity:1" fill="#28344a" d="M 170.5,23.5 C 167.202,28.1323 163.536,32.4656 159.5,36.5C 158.092,34.1403 156.759,34.4736 155.5,37.5C 152.474,40.1954 149.474,42.8621 146.5,45.5C 144.5,46.8333 142.833,48.5 141.5,50.5C 140.694,51.7281 139.694,52.7281 138.5,53.5C 135.573,54.7573 133.239,56.7573 131.5,59.5C 130.833,59.5 130.167,59.5 129.5,59.5C 142.22,46.3247 155.887,34.3247 170.5,23.5 Z"/></g>
<g><path style="opacity:1" fill="#4c658d" d="M 159.5,36.5 C 158.833,37.8333 157.833,38.8333 156.5,39.5C 156.672,38.5084 156.338,37.8417 155.5,37.5C 156.759,34.4736 158.092,34.1403 159.5,36.5 Z"/></g>
<g><path style="opacity:1" fill="#789fdc" d="M 155.5,37.5 C 156.338,37.8417 156.672,38.5084 156.5,39.5C 153.833,41.8333 151.167,44.1667 148.5,46.5C 148.158,45.6618 147.492,45.3284 146.5,45.5C 149.474,42.8621 152.474,40.1954 155.5,37.5 Z"/></g>
<g><path style="opacity:1" fill="#1f293b" d="M 156.5,39.5 C 153.23,44.4397 149.23,48.7731 144.5,52.5C 144.5,52.1667 144.5,51.8333 144.5,51.5C 145.833,49.8333 147.167,48.1667 148.5,46.5C 151.167,44.1667 153.833,41.8333 156.5,39.5 Z"/></g>
<g><path style="opacity:1" fill="#94c3ef" d="M 146.5,45.5 C 147.492,45.3284 148.158,45.6618 148.5,46.5C 147.167,48.1667 145.833,49.8333 144.5,51.5C 144.167,51.5 143.833,51.5 143.5,51.5C 143.158,50.6618 142.492,50.3284 141.5,50.5C 142.833,48.5 144.5,46.8333 146.5,45.5 Z"/></g>
<g><path style="opacity:1" fill="#5e7caf" d="M 143.5,51.5 C 143.833,51.5 144.167,51.5 144.5,51.5C 144.5,51.8333 144.5,52.1667 144.5,52.5C 143.5,53.1667 142.5,53.8333 141.5,54.5C 141.427,52.9731 142.094,51.9731 143.5,51.5 Z"/></g>
<g><path style="opacity:1" fill="#87b3e2" d="M 138.5,53.5 C 136.833,55.5 135.167,57.5 133.5,59.5C 132.833,59.8333 132.167,60.1667 131.5,60.5C 131.5,60.1667 131.5,59.8333 131.5,59.5C 133.239,56.7573 135.573,54.7573 138.5,53.5 Z"/></g>
<g><path style="opacity:1" fill="#6a8dbe" d="M 140.5,55.5 C 139.833,56.8333 138.833,57.8333 137.5,58.5C 137.5,56.5 138.5,55.5 140.5,55.5 Z"/></g>
<g><path style="opacity:1" fill="#c9f1fe" d="M 141.5,50.5 C 142.492,50.3284 143.158,50.6618 143.5,51.5C 142.094,51.9731 141.427,52.9731 141.5,54.5C 140.833,54.5 140.5,54.8333 140.5,55.5C 138.5,55.5 137.5,56.5 137.5,58.5C 136.167,59.5 134.833,60.5 133.5,61.5C 133.5,60.8333 133.5,60.1667 133.5,59.5C 135.167,57.5 136.833,55.5 138.5,53.5C 139.694,52.7281 140.694,51.7281 141.5,50.5 Z"/></g>
<g><path style="opacity:1" fill="#29364c" d="M 144.5,52.5 C 140.895,57.774 136.562,62.4407 131.5,66.5C 131.5,65.8333 131.5,65.1667 131.5,64.5C 132.167,63.5 132.833,62.5 133.5,61.5C 134.833,60.5 136.167,59.5 137.5,58.5C 138.833,57.8333 139.833,56.8333 140.5,55.5C 140.5,54.8333 140.833,54.5 141.5,54.5C 142.5,53.8333 143.5,53.1667 144.5,52.5 Z"/></g>
<g><path style="opacity:1" fill="#e6fbfe" d="M 133.5,59.5 C 133.5,60.1667 133.5,60.8333 133.5,61.5C 132.833,62.5 132.167,63.5 131.5,64.5C 114.833,80.5 98.5,96.8333 82.5,113.5C 81.1667,113.5 80.5,114.167 80.5,115.5C 77.2358,117.094 74.5691,119.427 72.5,122.5C 68.8333,125.5 65.5,128.833 62.5,132.5C 60.2512,133.08 58.5846,134.413 57.5,136.5C 56.5084,136.672 55.8417,136.338 55.5,135.5C 59.5,132.167 63.1667,128.5 66.5,124.5C 80.8333,109.5 95.5,94.8333 110.5,80.5C 112.5,79.1667 114.167,77.5 115.5,75.5C 117.5,72.1667 120.167,69.5 123.5,67.5C 126.167,65.1667 128.833,62.8333 131.5,60.5C 132.167,60.1667 132.833,59.8333 133.5,59.5 Z"/></g>
<g><path style="opacity:1" fill="#465d83" d="M 129.5,59.5 C 130.167,59.5 130.833,59.5 131.5,59.5C 131.5,59.8333 131.5,60.1667 131.5,60.5C 128.833,62.8333 126.167,65.1667 123.5,67.5C 123.5,66.8333 123.5,66.1667 123.5,65.5C 125.167,63.1667 127.167,61.1667 129.5,59.5 Z"/></g>
<g><path style="opacity:1" fill="#253045" d="M 123.5,65.5 C 123.5,66.1667 123.5,66.8333 123.5,67.5C 120.167,69.5 117.5,72.1667 115.5,75.5C 113.251,76.0798 111.585,77.4131 110.5,79.5C 109.833,79.5 109.167,79.5 108.5,79.5C 112.892,74.1057 117.892,69.439 123.5,65.5 Z"/></g>
<g><path style="opacity:1" fill="#90bee7" d="M 115.5,75.5 C 114.167,77.5 112.5,79.1667 110.5,80.5C 110.5,80.1667 110.5,79.8333 110.5,79.5C 111.585,77.4131 113.251,76.0798 115.5,75.5 Z"/></g>
<g><path style="opacity:1" fill="#405578" d="M 108.5,79.5 C 109.167,79.5 109.833,79.5 110.5,79.5C 110.5,79.8333 110.5,80.1667 110.5,80.5C 95.5,94.8333 80.8333,109.5 66.5,124.5C 66.1667,124.5 65.8333,124.5 65.5,124.5C 65.5,123.833 65.5,123.167 65.5,122.5C 79.5,107.833 93.8333,93.5 108.5,79.5 Z"/></g>
<g><path style="opacity:1" fill="#384b6a" d="M 131.5,64.5 C 131.5,65.1667 131.5,65.8333 131.5,66.5C 115.833,82.8333 99.8333,98.8333 83.5,114.5C 83.1667,114.5 82.8333,114.5 82.5,114.5C 82.5,114.167 82.5,113.833 82.5,113.5C 98.5,96.8333 114.833,80.5 131.5,64.5 Z"/></g>
<g><path style="opacity:1" fill="#6586b5" d="M 82.5,113.5 C 82.5,113.833 82.5,114.167 82.5,114.5C 81.8333,114.833 81.1667,115.167 80.5,115.5C 80.5,114.167 81.1667,113.5 82.5,113.5 Z"/></g>
<g><path style="opacity:1" fill="#141a24" d="M 82.5,114.5 C 82.8333,114.5 83.1667,114.5 83.5,114.5C 81.1002,117.903 78.1002,120.57 74.5,122.5C 76.5,120.167 78.5,117.833 80.5,115.5C 81.1667,115.167 81.8333,114.833 82.5,114.5 Z"/></g>
<g><path style="opacity:1" fill="#5c7aab" d="M 80.5,115.5 C 78.5,117.833 76.5,120.167 74.5,122.5C 73.8333,122.5 73.1667,122.5 72.5,122.5C 74.5691,119.427 77.2358,117.094 80.5,115.5 Z"/></g>
<g><path style="opacity:1" fill="#344562" d="M 72.5,122.5 C 73.1667,122.5 73.8333,122.5 74.5,122.5C 71.1667,126.5 67.5,130.167 63.5,133.5C 63.1667,133.5 62.8333,133.5 62.5,133.5C 62.5,133.167 62.5,132.833 62.5,132.5C 65.5,128.833 68.8333,125.5 72.5,122.5 Z"/></g>
<g><path style="opacity:1" fill="#80aadb" d="M 65.5,124.5 C 65.8333,124.5 66.1667,124.5 66.5,124.5C 63.1667,128.5 59.5,132.167 55.5,135.5C 58.1009,131.229 61.4342,127.563 65.5,124.5 Z"/></g>
<g><path style="opacity:1" fill="#6384b5" d="M 62.5,132.5 C 62.5,132.833 62.5,133.167 62.5,133.5C 60.8333,134.5 59.5,135.833 58.5,137.5C 58.1667,137.5 57.8333,137.5 57.5,137.5C 57.5,137.167 57.5,136.833 57.5,136.5C 58.5846,134.413 60.2512,133.08 62.5,132.5 Z"/></g>
<g><path style="opacity:1" fill="#141923" d="M 62.5,133.5 C 62.8333,133.5 63.1667,133.5 63.5,133.5C 62.4154,135.587 60.7488,136.92 58.5,137.5C 59.5,135.833 60.8333,134.5 62.5,133.5 Z"/></g>
<g><path style="opacity:1" fill="#98c8f2" d="M 55.5,135.5 C 55.8417,136.338 56.5084,136.672 57.5,136.5C 57.5,136.833 57.5,137.167 57.5,137.5C 54.8333,139.5 52.1667,141.5 49.5,143.5C 49.5,142.833 49.5,142.167 49.5,141.5C 51.1667,139.167 53.1667,137.167 55.5,135.5 Z"/></g>
<g><path style="opacity:1" fill="#253044" d="M 65.5,122.5 C 65.5,123.167 65.5,123.833 65.5,124.5C 61.4342,127.563 58.1009,131.229 55.5,135.5C 53.1667,137.167 51.1667,139.167 49.5,141.5C 47.1667,143.167 45.1667,145.167 43.5,147.5C 41.7341,149.771 39.7341,151.937 37.5,154C 38.0944,154.464 38.7611,154.631 39.5,154.5C 35.7322,158.877 31.3988,162.544 26.5,165.5C 38.42,150.244 51.42,135.91 65.5,122.5 Z"/></g>
<g><path style="opacity:1" fill="#7fa8e8" d="M 49.5,141.5 C 49.5,142.167 49.5,142.833 49.5,143.5C 48.1667,145.5 46.5,147.167 44.5,148.5C 43.8333,148.5 43.5,148.167 43.5,147.5C 45.1667,145.167 47.1667,143.167 49.5,141.5 Z"/></g>
<g><path style="opacity:1" fill="#6180b5" d="M 43.5,147.5 C 43.5,148.167 43.8333,148.5 44.5,148.5C 42.8333,150.5 41.1667,152.5 39.5,154.5C 38.7611,154.631 38.0944,154.464 37.5,154C 39.7341,151.937 41.7341,149.771 43.5,147.5 Z"/></g>
<g><path style="opacity:1" fill="#263246" d="M 57.5,137.5 C 57.8333,137.5 58.1667,137.5 58.5,137.5C 53.0659,144.273 46.7326,149.939 39.5,154.5C 41.1667,152.5 42.8333,150.5 44.5,148.5C 46.5,147.167 48.1667,145.5 49.5,143.5C 52.1667,141.5 54.8333,139.5 57.5,137.5 Z"/></g>
<g><path style="opacity:1" fill="#131924" d="M 26.5,165.5 C 25.8333,166.167 25.8333,166.167 26.5,165.5 Z"/></g>
<g><path style="opacity:1" fill="#0d1319" d="M 25.5,166.5 C 24.8333,167.167 24.8333,167.167 25.5,166.5 Z"/></g>
</svg>
