<?xml version="1.0" encoding="UTF-8"?>
<!DOCTYPE svg PUBLIC "-//W3C//DTD SVG 1.1//EN" "http://www.w3.org/Graphics/SVG/1.1/DTD/svg11.dtd">
<svg xmlns="http://www.w3.org/2000/svg" version="1.1" width="100px" height="100px" style="shape-rendering:geometricPrecision; text-rendering:geometricPrecision; image-rendering:optimizeQuality; fill-rule:evenodd; clip-rule:evenodd" xmlns:xlink="http://www.w3.org/1999/xlink">
<g><path style="opacity:1" fill="#000000" d="M 0.5,0.5 C 33.1667,0.5 65.8333,0.5 98.5,0.5C 98.5,33.1667 98.5,65.8333 98.5,98.5C 65.8333,98.5 33.1667,98.5 0.5,98.5C 0.5,65.8333 0.5,33.1667 0.5,0.5 Z M 9.5,9.5 C 36.1667,9.5 62.8333,9.5 89.5,9.5C 89.5,36.1667 89.5,62.8333 89.5,89.5C 62.8333,89.5 36.1667,89.5 9.5,89.5C 9.5,62.8333 9.5,36.1667 9.5,9.5 Z"/></g>
<g><path style="opacity:1" fill="#fefffe" d="M 3.5,3.5 C 34.1667,3.5 64.8333,3.5 95.5,3.5C 95.5,34.1667 95.5,64.8333 95.5,95.5C 64.8333,95.5 34.1667,95.5 3.5,95.5C 3.5,64.8333 3.5,34.1667 3.5,3.5 Z M 9.5,9.5 C 9.5,36.1667 9.5,62.8333 9.5,89.5C 36.1667,89.5 62.8333,89.5 89.5,89.5C 89.5,62.8333 89.5,36.1667 89.5,9.5C 62.8333,9.5 36.1667,9.5 9.5,9.5 Z"/></g>
<g><path style="opacity:1" fill="#000000" d="M 6.5,6.5 C 35.1667,6.5 63.8333,6.5 92.5,6.5C 92.5,35.1667 92.5,63.8333 92.5,92.5C 63.8333,92.5 35.1667,92.5 6.5,92.5C 6.5,63.8333 6.5,35.1667 6.5,6.5 Z M 9.5,9.5 C 9.5,36.1667 9.5,62.8333 9.5,89.5C 36.1667,89.5 62.8333,89.5 89.5,89.5C 89.5,62.8333 89.5,36.1667 89.5,9.5C 62.8333,9.5 36.1667,9.5 9.5,9.5 Z"/></g>
</svg>
