<?xml version="1.0" encoding="UTF-8"?>
<!DOCTYPE svg PUBLIC "-//W3C//DTD SVG 1.1//EN" "http://www.w3.org/Graphics/SVG/1.1/DTD/svg11.dtd">
<svg xmlns="http://www.w3.org/2000/svg" version="1.1" width="124px" height="124px" style="shape-rendering:geometricPrecision; text-rendering:geometricPrecision; image-rendering:optimizeQuality; fill-rule:evenodd; clip-rule:evenodd" xmlns:xlink="http://www.w3.org/1999/xlink">
<g><path style="opacity:1" fill="#fefffe" d="M 55.5,5.5 C 59.226,5.17744 62.8927,5.51078 66.5,6.5C 69.9385,18.7584 73.6052,30.9251 77.5,43C 90.1557,43.8328 102.822,44.3328 115.5,44.5C 115.665,48.1817 115.499,51.8484 115,55.5C 106.511,62.0778 97.8441,68.4111 89,74.5C 88.3333,76.1667 88.3333,77.8333 89,79.5C 93.4906,91.1245 95.9906,103.125 96.5,115.5C 92.0329,115.867 87.6996,115.367 83.5,114C 76.2491,108.128 68.7491,102.628 61,97.5C 52.43,103.204 43.93,109.037 35.5,115C 31.8484,115.499 28.1817,115.665 24.5,115.5C 25.0094,103.125 27.5094,91.1245 32,79.5C 32.6667,77.8333 32.6667,76.1667 32,74.5C 23.1559,68.4111 14.4893,62.0778 6,55.5C 5.50137,51.8484 5.3347,48.1817 5.5,44.5C 18.1805,44.3993 30.8471,43.8993 43.5,43C 47.7993,30.602 51.7993,18.102 55.5,5.5 Z"/></g>
<g><path style="opacity:1" fill="#000000" d="M 57.5,7.5 C 60.3938,7.04229 62.8938,7.70896 65,9.5C 68.1177,21.4757 71.6177,33.309 75.5,45C 88.1557,45.8328 100.822,46.3328 113.5,46.5C 113.768,49.1194 113.435,51.6194 112.5,54C 103.578,60.3779 94.7444,66.8779 86,73.5C 87.816,84.3 90.4827,94.9667 94,105.5C 94.4974,108.146 94.6641,110.813 94.5,113.5C 91.3508,113.789 88.3508,113.289 85.5,112C 77.3333,105.833 69.1667,99.6667 61,93.5C 52.4115,99.5443 43.9115,105.711 35.5,112C 32.6492,113.289 29.6492,113.789 26.5,113.5C 26.3359,110.813 26.5026,108.146 27,105.5C 30.5173,94.9667 33.184,84.3 35,73.5C 26.2556,66.8779 17.4222,60.3779 8.5,54C 7.565,51.6194 7.23166,49.1194 7.5,46.5C 20.1805,46.3993 32.8471,45.8993 45.5,45C 49.7993,32.602 53.7993,20.102 57.5,7.5 Z"/></g>
<g><path style="opacity:1" fill="#fec90d" d="M 60.5,12.5 C 64.1446,24.3874 67.8113,36.3874 71.5,48.5C 83.4844,49.5326 95.4844,50.3659 107.5,51C 97.9478,57.9358 88.6145,65.1024 79.5,72.5C 83.3103,84.4122 86.477,96.4122 89,108.5C 79.8456,101.257 70.5122,94.2567 61,87.5C 51.3333,94.5 41.6667,101.5 32,108.5C 34.523,96.4122 37.6897,84.4122 41.5,72.5C 32.3855,65.1024 23.0522,57.9358 13.5,51C 25.5203,50.4288 37.5203,49.5955 49.5,48.5C 53.5757,36.6076 57.2423,24.6076 60.5,12.5 Z"/></g>
</svg>
