<?xml version="1.0" encoding="UTF-8"?>
<!DOCTYPE svg PUBLIC "-//W3C//DTD SVG 1.1//EN" "http://www.w3.org/Graphics/SVG/1.1/DTD/svg11.dtd">
<svg xmlns="http://www.w3.org/2000/svg" version="1.1" width="1415px" height="650px" style="shape-rendering:geometricPrecision; text-rendering:geometricPrecision; image-rendering:optimizeQuality; fill-rule:evenodd; clip-rule:evenodd" xmlns:xlink="http://www.w3.org/1999/xlink">
<g><path style="opacity:1" fill="#fefffe" d="M 1089.5,183.5 C 1096.83,183.5 1104.17,183.5 1111.5,183.5C 1111.24,184.978 1111.57,186.311 1112.5,187.5C 1119.62,185.584 1126.96,184.917 1134.5,185.5C 1134.5,186.833 1134.5,188.167 1134.5,189.5C 1195.45,197.793 1244.78,225.96 1282.5,274C 1290.77,274.101 1294.77,278.268 1294.5,286.5C 1297.32,286.081 1299.49,287.081 1301,289.5C 1303.29,295.827 1306.29,301.827 1310,307.5C 1310.33,312.167 1310.67,316.833 1311,321.5C 1328.6,364.289 1333.93,408.623 1327,454.5C 1324.8,469.461 1320.97,483.961 1315.5,498C 1316.63,502.079 1316.8,506.245 1316,510.5C 1314.86,513.432 1314.02,516.432 1313.5,519.5C 1312.17,519.5 1310.83,519.5 1309.5,519.5C 1310.05,527.094 1306.72,531.761 1299.5,533.5C 1300.44,539.203 1299.11,544.203 1295.5,548.5C 1293.23,549.314 1290.9,549.814 1288.5,550C 1250.49,601.184 1199.83,631.684 1136.5,641.5C 1136.5,643.167 1136.5,644.833 1136.5,646.5C 1114.17,647.75 1091.83,647.75 1069.5,646.5C 1069.5,644.833 1069.5,643.167 1069.5,641.5C 1005.16,632.761 953.829,602.427 915.5,550.5C 906.96,548.823 902.627,543.49 902.5,534.5C 900.396,534.799 898.396,534.466 896.5,533.5C 893.181,524.687 889.014,516.354 884,508.5C 883.333,504.5 883.333,500.5 884,496.5C 884.75,495.874 885.584,495.374 886.5,495C 875.491,463.095 871.324,430.261 874,396.5C 875.316,373.071 880.483,350.571 889.5,329C 887.721,322.2 888.554,315.7 892,309.5C 893.11,307.963 894.61,307.297 896.5,307.5C 897.4,302.354 898.9,297.354 901,292.5C 902.356,291.62 903.856,291.286 905.5,291.5C 905.444,286.697 907.11,282.531 910.5,279C 912.9,278.814 915.234,278.314 917.5,277.5C 955.524,228.141 1005.52,198.808 1067.5,189.5C 1067.5,188.167 1067.5,186.833 1067.5,185.5C 1074.95,184.892 1082.11,185.559 1089,187.5C 1089.49,186.207 1089.66,184.873 1089.5,183.5 Z M 1116.5,249.5 C 1133.57,251.47 1149.9,255.97 1165.5,263C 1148.87,292.419 1132.37,321.919 1116,351.5C 1116.14,317.504 1116.3,283.504 1116.5,249.5 Z M 1077.5,250.5 C 1079.17,250.5 1080.83,250.5 1082.5,250.5C 1082.72,284.837 1082.89,319.171 1083,353.5C 1066.58,324.327 1050.41,294.994 1034.5,265.5C 1037.35,262.907 1040.68,261.074 1044.5,260C 1055.48,256.28 1066.48,253.114 1077.5,250.5 Z M 1150.5,364.5 C 1166.41,336.738 1182.58,309.071 1199,281.5C 1212.13,290.96 1223.63,302.127 1233.5,315C 1206.11,332.026 1178.44,348.526 1150.5,364.5 Z M 999.5,285.5 C 1000.5,285.414 1001.33,285.748 1002,286.5C 1018,313.519 1033.66,340.519 1049,367.5C 1021.58,351.54 994.082,335.707 966.5,320C 976.044,307.053 987.044,295.553 999.5,285.5 Z M 1250.5,346.5 C 1251.68,346.281 1252.68,346.614 1253.5,347.5C 1261.33,363.323 1266.33,379.99 1268.5,397.5C 1233.83,397.702 1199.16,397.868 1164.5,398C 1193.4,381.059 1222.06,363.892 1250.5,346.5 Z M 948.5,351.5 C 978.139,367.988 1007.81,384.488 1037.5,401C 1003.17,400.995 968.835,400.662 934.5,400C 937.224,383.272 941.89,367.106 948.5,351.5 Z M 1100.5,404.5 C 1106.49,405.819 1110.15,409.485 1111.5,415.5C 1110.24,421.093 1106.91,424.759 1101.5,426.5C 1088.62,419.672 1088.29,412.338 1100.5,404.5 Z M 1165.5,430.5 C 1200,430.127 1234.66,430.127 1269.5,430.5C 1267.8,447.965 1263.3,464.632 1256,480.5C 1226.02,463.428 1195.85,446.762 1165.5,430.5 Z M 1001.5,433.5 C 1014.17,433.333 1026.84,433.5 1039.5,434C 1009.73,450.634 979.898,467.134 950,483.5C 945.856,477.092 942.856,470.092 941,462.5C 938.074,453.37 936.241,444.036 935.5,434.5C 957.673,434.831 979.673,434.497 1001.5,433.5 Z M 1151.5,462.5 C 1180.05,479.029 1208.55,495.696 1237,512.5C 1228.78,526.4 1217.95,538.233 1204.5,548C 1203.67,548.688 1203,548.521 1202.5,547.5C 1185.23,519.277 1168.23,490.944 1151.5,462.5 Z M 1056.5,464.5 C 1039.9,493.525 1022.9,522.358 1005.5,551C 1003.72,550.956 1002.05,550.289 1000.5,549C 988.447,539.948 978.114,529.281 969.5,517C 997.862,498.484 1026.86,480.984 1056.5,464.5 Z M 1120.5,479.5 C 1137.6,508.856 1154.6,538.356 1171.5,568C 1155.83,576.278 1139.16,581.445 1121.5,583.5C 1121.45,548.83 1121.12,514.163 1120.5,479.5 Z M 1087.5,480.5 C 1087.86,514.995 1087.86,549.662 1087.5,584.5C 1069.38,582.471 1052.05,577.637 1035.5,570C 1053.46,540.538 1070.79,510.705 1087.5,480.5 Z"/></g>
<g><path style="opacity:1" fill="#000000" d="M 1092.5,186.5 C 1097.83,186.5 1103.17,186.5 1108.5,186.5C 1108.5,187.833 1108.5,189.167 1108.5,190.5C 1116.1,189.22 1123.77,188.554 1131.5,188.5C 1131.5,189.833 1131.5,191.167 1131.5,192.5C 1192.45,200.793 1241.78,228.96 1279.5,277C 1287.77,277.101 1291.77,281.268 1291.5,289.5C 1294.32,289.081 1296.49,290.081 1298,292.5C 1299.79,295.214 1300.96,298.214 1301.5,301.5C 1306.98,306.25 1308.31,311.917 1305.5,318.5C 1327.92,369.241 1332.42,421.575 1319,475.5C 1316.76,483.897 1313.92,492.064 1310.5,500C 1312.85,500.576 1313.85,502.076 1313.5,504.5C 1312.49,508.512 1311.49,512.512 1310.5,516.5C 1308.8,516.34 1307.13,516.506 1305.5,517C 1306.89,524.851 1303.56,529.518 1295.5,531C 1297.43,536.452 1296.43,541.285 1292.5,545.5C 1290.23,546.314 1287.9,546.814 1285.5,547C 1247.49,598.184 1196.83,628.684 1133.5,638.5C 1133.5,640.167 1133.5,641.833 1133.5,643.5C 1127.5,643.5 1121.5,643.5 1115.5,643.5C 1115.5,642.5 1115.5,641.5 1115.5,640.5C 1113.83,640.5 1112.17,640.5 1110.5,640.5C 1110.5,641.833 1110.5,643.167 1110.5,644.5C 1104.5,644.5 1098.5,644.5 1092.5,644.5C 1092.76,643.022 1092.43,641.689 1091.5,640.5C 1090.61,641.325 1090.28,642.325 1090.5,643.5C 1084.5,643.5 1078.5,643.5 1072.5,643.5C 1072.5,641.833 1072.5,640.167 1072.5,638.5C 1008.16,629.761 956.829,599.427 918.5,547.5C 915.973,546.786 913.473,546.12 911,545.5C 909.333,542.833 907.667,540.167 906,537.5C 905.257,535.559 905.424,533.726 906.5,532C 904.1,531.814 901.766,531.314 899.5,530.5C 896.404,526.307 894.404,521.641 893.5,516.5C 892.522,516.023 891.689,515.357 891,514.5C 889.941,511.382 888.608,508.382 887,505.5C 886.333,503.5 886.333,501.5 887,499.5C 888.609,498.853 890.109,498.02 891.5,497C 875.915,455.225 872.415,412.392 881,368.5C 884.009,354.629 888.175,341.129 893.5,328C 891.656,325.439 891.156,322.606 892,319.5C 893.275,317.283 894.275,314.949 895,312.5C 896.11,310.963 897.61,310.297 899.5,310.5C 900.4,305.354 901.9,300.354 904,295.5C 905.356,294.62 906.856,294.286 908.5,294.5C 908.444,289.697 910.11,285.531 913.5,282C 915.9,281.814 918.234,281.314 920.5,280.5C 958.524,231.141 1008.52,201.808 1070.5,192.5C 1070.5,191.167 1070.5,189.833 1070.5,188.5C 1077.91,188.467 1085.25,189.134 1092.5,190.5C 1092.5,189.167 1092.5,187.833 1092.5,186.5 Z M 1116.5,249.5 C 1116.3,283.504 1116.14,317.504 1116,351.5C 1132.37,321.919 1148.87,292.419 1165.5,263C 1149.9,255.97 1133.57,251.47 1116.5,249.5 Z M 1077.5,250.5 C 1066.48,253.114 1055.48,256.28 1044.5,260C 1040.68,261.074 1037.35,262.907 1034.5,265.5C 1050.41,294.994 1066.58,324.327 1083,353.5C 1082.89,319.171 1082.72,284.837 1082.5,250.5C 1080.83,250.5 1079.17,250.5 1077.5,250.5 Z M 1150.5,364.5 C 1178.44,348.526 1206.11,332.026 1233.5,315C 1223.63,302.127 1212.13,290.96 1199,281.5C 1182.58,309.071 1166.41,336.738 1150.5,364.5 Z M 999.5,285.5 C 987.044,295.553 976.044,307.053 966.5,320C 994.082,335.707 1021.58,351.54 1049,367.5C 1033.66,340.519 1018,313.519 1002,286.5C 1001.33,285.748 1000.5,285.414 999.5,285.5 Z M 1250.5,346.5 C 1222.06,363.892 1193.4,381.059 1164.5,398C 1199.16,397.868 1233.83,397.702 1268.5,397.5C 1266.33,379.99 1261.33,363.323 1253.5,347.5C 1252.68,346.614 1251.68,346.281 1250.5,346.5 Z M 948.5,351.5 C 941.89,367.106 937.224,383.272 934.5,400C 968.835,400.662 1003.17,400.995 1037.5,401C 1007.81,384.488 978.139,367.988 948.5,351.5 Z M 1100.5,404.5 C 1088.29,412.338 1088.62,419.672 1101.5,426.5C 1106.91,424.759 1110.24,421.093 1111.5,415.5C 1110.15,409.485 1106.49,405.819 1100.5,404.5 Z M 1165.5,430.5 C 1195.85,446.762 1226.02,463.428 1256,480.5C 1263.3,464.632 1267.8,447.965 1269.5,430.5C 1234.66,430.127 1200,430.127 1165.5,430.5 Z M 1001.5,433.5 C 979.673,434.497 957.673,434.831 935.5,434.5C 936.241,444.036 938.074,453.37 941,462.5C 942.856,470.092 945.856,477.092 950,483.5C 979.898,467.134 1009.73,450.634 1039.5,434C 1026.84,433.5 1014.17,433.333 1001.5,433.5 Z M 1151.5,462.5 C 1168.23,490.944 1185.23,519.277 1202.5,547.5C 1203,548.521 1203.67,548.688 1204.5,548C 1217.95,538.233 1228.78,526.4 1237,512.5C 1208.55,495.696 1180.05,479.029 1151.5,462.5 Z M 1056.5,464.5 C 1026.86,480.984 997.862,498.484 969.5,517C 978.114,529.281 988.447,539.948 1000.5,549C 1002.05,550.289 1003.72,550.956 1005.5,551C 1022.9,522.358 1039.9,493.525 1056.5,464.5 Z M 1120.5,479.5 C 1121.12,514.163 1121.45,548.83 1121.5,583.5C 1139.16,581.445 1155.83,576.278 1171.5,568C 1154.6,538.356 1137.6,508.856 1120.5,479.5 Z M 1087.5,480.5 C 1070.79,510.705 1053.46,540.538 1035.5,570C 1052.05,577.637 1069.38,582.471 1087.5,584.5C 1087.86,549.662 1087.86,514.995 1087.5,480.5 Z"/></g>
<g><path style="opacity:1" fill="#7e7f7e" d="M 1097.5,191.5 C 1099.5,191.5 1101.5,191.5 1103.5,191.5C 1103.5,192.833 1103.5,194.167 1103.5,195.5C 1109.19,195.532 1114.86,195.866 1120.5,196.5C 1120.5,195.5 1120.5,194.5 1120.5,193.5C 1122.5,193.5 1124.5,193.5 1126.5,193.5C 1126.5,194.833 1126.5,196.167 1126.5,197.5C 1189.94,205.295 1240.78,234.628 1279,285.5C 1281.9,281.508 1284.4,281.842 1286.5,286.5C 1285.17,288.167 1283.83,289.833 1282.5,291.5C 1284.07,292.984 1285.41,294.651 1286.5,296.5C 1288.84,297.725 1290.68,297.059 1292,294.5C 1293.05,296.09 1294.21,297.59 1295.5,299C 1293.41,300.041 1291.75,301.541 1290.5,303.5C 1291.77,305.71 1293.27,307.71 1295,309.5C 1296.61,308.899 1297.94,307.899 1299,306.5C 1299.79,308.587 1300.96,310.421 1302.5,312C 1300.7,312.972 1299.03,314.139 1297.5,315.5C 1327.11,376.818 1329.11,438.985 1303.5,502C 1307.57,503.713 1308.57,506.546 1306.5,510.5C 1304.42,510.528 1302.58,509.861 1301,508.5C 1299.5,511.5 1298,514.5 1296.5,517.5C 1297.98,518.48 1299.31,519.647 1300.5,521C 1298.87,525.75 1296.7,526.25 1294,522.5C 1291.96,526.084 1289.79,529.584 1287.5,533C 1292.38,534.914 1292.71,537.414 1288.5,540.5C 1287.13,538.876 1285.46,538.376 1283.5,539C 1245.73,592.904 1194.06,624.404 1128.5,633.5C 1128.5,635.167 1128.5,636.833 1128.5,638.5C 1124.82,638.913 1121.48,638.079 1118.5,636C 1114.18,635.501 1109.85,635.334 1105.5,635.5C 1105.5,636.833 1105.5,638.167 1105.5,639.5C 1102.5,639.5 1099.5,639.5 1096.5,639.5C 1096.5,638.167 1096.5,636.833 1096.5,635.5C 1089.95,635.639 1083.61,636.639 1077.5,638.5C 1077.5,636.833 1077.5,635.167 1077.5,633.5C 1010.16,625.585 957.325,593.919 919,538.5C 917.445,540.146 915.779,540.479 914,539.5C 913.535,538.069 912.701,536.903 911.5,536C 912.99,535.255 913.99,534.088 914.5,532.5C 913.242,529.4 911.742,526.4 910,523.5C 907.984,523.697 905.984,524.697 904,526.5C 902.634,524.63 901.467,522.63 900.5,520.5C 902.453,519.239 904.453,518.073 906.5,517C 904.873,514.246 903.373,511.412 902,508.5C 896.908,512.042 893.742,510.708 892.5,504.5C 894.669,503.091 896.335,501.258 897.5,499C 875.08,439.598 876.414,380.765 901.5,322.5C 899.654,322.778 898.32,322.111 897.5,320.5C 898.333,318.833 899.167,317.167 900,315.5C 901.584,316.861 903.418,317.528 905.5,317.5C 905.586,315.323 906.253,313.323 907.5,311.5C 905.277,308.218 905.443,304.885 908,301.5C 909.645,301.307 911.479,301.14 913.5,301C 914.833,299.333 916.167,297.667 917.5,296C 916.167,294.667 914.833,293.333 913.5,292C 914.304,290.229 915.471,288.729 917,287.5C 918.692,289.245 920.525,289.578 922.5,288.5C 960.158,236.261 1011.16,205.928 1075.5,197.5C 1075.5,196.167 1075.5,194.833 1075.5,193.5C 1077.5,193.5 1079.5,193.5 1081.5,193.5C 1081.5,194.5 1081.5,195.5 1081.5,196.5C 1086.81,195.902 1092.15,195.569 1097.5,195.5C 1097.5,194.167 1097.5,192.833 1097.5,191.5 Z M 1116.5,249.5 C 1116.3,283.504 1116.14,317.504 1116,351.5C 1132.37,321.919 1148.87,292.419 1165.5,263C 1149.9,255.97 1133.57,251.47 1116.5,249.5 Z M 1077.5,250.5 C 1066.48,253.114 1055.48,256.28 1044.5,260C 1040.68,261.074 1037.35,262.907 1034.5,265.5C 1050.41,294.994 1066.58,324.327 1083,353.5C 1082.89,319.171 1082.72,284.837 1082.5,250.5C 1080.83,250.5 1079.17,250.5 1077.5,250.5 Z M 1150.5,364.5 C 1178.44,348.526 1206.11,332.026 1233.5,315C 1223.63,302.127 1212.13,290.96 1199,281.5C 1182.58,309.071 1166.41,336.738 1150.5,364.5 Z M 999.5,285.5 C 987.044,295.553 976.044,307.053 966.5,320C 994.082,335.707 1021.58,351.54 1049,367.5C 1033.66,340.519 1018,313.519 1002,286.5C 1001.33,285.748 1000.5,285.414 999.5,285.5 Z M 1250.5,346.5 C 1222.06,363.892 1193.4,381.059 1164.5,398C 1199.16,397.868 1233.83,397.702 1268.5,397.5C 1266.33,379.99 1261.33,363.323 1253.5,347.5C 1252.68,346.614 1251.68,346.281 1250.5,346.5 Z M 948.5,351.5 C 941.89,367.106 937.224,383.272 934.5,400C 968.835,400.662 1003.17,400.995 1037.5,401C 1007.81,384.488 978.139,367.988 948.5,351.5 Z M 1100.5,404.5 C 1088.29,412.338 1088.62,419.672 1101.5,426.5C 1106.91,424.759 1110.24,421.093 1111.5,415.5C 1110.15,409.485 1106.49,405.819 1100.5,404.5 Z M 1165.5,430.5 C 1195.85,446.762 1226.02,463.428 1256,480.5C 1263.3,464.632 1267.8,447.965 1269.5,430.5C 1234.66,430.127 1200,430.127 1165.5,430.5 Z M 1001.5,433.5 C 979.673,434.497 957.673,434.831 935.5,434.5C 936.241,444.036 938.074,453.37 941,462.5C 942.856,470.092 945.856,477.092 950,483.5C 979.898,467.134 1009.73,450.634 1039.5,434C 1026.84,433.5 1014.17,433.333 1001.5,433.5 Z M 1151.5,462.5 C 1168.23,490.944 1185.23,519.277 1202.5,547.5C 1203,548.521 1203.67,548.688 1204.5,548C 1217.95,538.233 1228.78,526.4 1237,512.5C 1208.55,495.696 1180.05,479.029 1151.5,462.5 Z M 1056.5,464.5 C 1026.86,480.984 997.862,498.484 969.5,517C 978.114,529.281 988.447,539.948 1000.5,549C 1002.05,550.289 1003.72,550.956 1005.5,551C 1022.9,522.358 1039.9,493.525 1056.5,464.5 Z M 1120.5,479.5 C 1121.12,514.163 1121.45,548.83 1121.5,583.5C 1139.16,581.445 1155.83,576.278 1171.5,568C 1154.6,538.356 1137.6,508.856 1120.5,479.5 Z M 1087.5,480.5 C 1070.79,510.705 1053.46,540.538 1035.5,570C 1052.05,577.637 1069.38,582.471 1087.5,584.5C 1087.86,549.662 1087.86,514.995 1087.5,480.5 Z"/></g>
<g><path style="opacity:1" fill="#000000" d="M 1087.5,197.5 C 1165.04,195.364 1227.88,224.364 1276,284.5C 1316.73,341.496 1328.73,404.162 1312,472.5C 1288.17,551 1237,602.167 1158.5,626C 1073.6,645.694 1000.77,624.528 940,562.5C 887.294,500.655 871.627,430.322 893,351.5C 918.266,276.567 968.766,227.734 1044.5,205C 1058.79,201.397 1073.12,198.897 1087.5,197.5 Z M 1116.5,249.5 C 1116.3,283.504 1116.14,317.504 1116,351.5C 1132.37,321.919 1148.87,292.419 1165.5,263C 1149.9,255.97 1133.57,251.47 1116.5,249.5 Z M 1077.5,250.5 C 1066.48,253.114 1055.48,256.28 1044.5,260C 1040.68,261.074 1037.35,262.907 1034.5,265.5C 1050.41,294.994 1066.58,324.327 1083,353.5C 1082.89,319.171 1082.72,284.837 1082.5,250.5C 1080.83,250.5 1079.17,250.5 1077.5,250.5 Z M 1150.5,364.5 C 1178.44,348.526 1206.11,332.026 1233.5,315C 1223.63,302.127 1212.13,290.96 1199,281.5C 1182.58,309.071 1166.41,336.738 1150.5,364.5 Z M 999.5,285.5 C 987.044,295.553 976.044,307.053 966.5,320C 994.082,335.707 1021.58,351.54 1049,367.5C 1033.66,340.519 1018,313.519 1002,286.5C 1001.33,285.748 1000.5,285.414 999.5,285.5 Z M 1250.5,346.5 C 1222.06,363.892 1193.4,381.059 1164.5,398C 1199.16,397.868 1233.83,397.702 1268.5,397.5C 1266.33,379.99 1261.33,363.323 1253.5,347.5C 1252.68,346.614 1251.68,346.281 1250.5,346.5 Z M 948.5,351.5 C 941.89,367.106 937.224,383.272 934.5,400C 968.835,400.662 1003.17,400.995 1037.5,401C 1007.81,384.488 978.139,367.988 948.5,351.5 Z M 1100.5,404.5 C 1088.29,412.338 1088.62,419.672 1101.5,426.5C 1106.91,424.759 1110.24,421.093 1111.5,415.5C 1110.15,409.485 1106.49,405.819 1100.5,404.5 Z M 1165.5,430.5 C 1195.85,446.762 1226.02,463.428 1256,480.5C 1263.3,464.632 1267.8,447.965 1269.5,430.5C 1234.66,430.127 1200,430.127 1165.5,430.5 Z M 1001.5,433.5 C 979.673,434.497 957.673,434.831 935.5,434.5C 936.241,444.036 938.074,453.37 941,462.5C 942.856,470.092 945.856,477.092 950,483.5C 979.898,467.134 1009.73,450.634 1039.5,434C 1026.84,433.5 1014.17,433.333 1001.5,433.5 Z M 1151.5,462.5 C 1168.23,490.944 1185.23,519.277 1202.5,547.5C 1203,548.521 1203.67,548.688 1204.5,548C 1217.95,538.233 1228.78,526.4 1237,512.5C 1208.55,495.696 1180.05,479.029 1151.5,462.5 Z M 1056.5,464.5 C 1026.86,480.984 997.862,498.484 969.5,517C 978.114,529.281 988.447,539.948 1000.5,549C 1002.05,550.289 1003.72,550.956 1005.5,551C 1022.9,522.358 1039.9,493.525 1056.5,464.5 Z M 1120.5,479.5 C 1121.12,514.163 1121.45,548.83 1121.5,583.5C 1139.16,581.445 1155.83,576.278 1171.5,568C 1154.6,538.356 1137.6,508.856 1120.5,479.5 Z M 1087.5,480.5 C 1070.79,510.705 1053.46,540.538 1035.5,570C 1052.05,577.637 1069.38,582.471 1087.5,584.5C 1087.86,549.662 1087.86,514.995 1087.5,480.5 Z"/></g>
<g><path style="opacity:1" fill="#278b1c" d="M 1087.5,200.5 C 1174.36,198.503 1240.86,233.836 1287,306.5C 1325.19,376.942 1326.19,447.942 1290,519.5C 1241.43,599.207 1170.26,635.707 1076.5,629C 997.98,617.442 941.147,576.276 906,505.5C 876.316,435.277 880.649,367.277 919,301.5C 959.157,241.33 1015.32,207.663 1087.5,200.5 Z M 1116.5,249.5 C 1116.3,283.504 1116.14,317.504 1116,351.5C 1132.37,321.919 1148.87,292.419 1165.5,263C 1149.9,255.97 1133.57,251.47 1116.5,249.5 Z M 1077.5,250.5 C 1066.48,253.114 1055.48,256.28 1044.5,260C 1040.68,261.074 1037.35,262.907 1034.5,265.5C 1050.41,294.994 1066.58,324.327 1083,353.5C 1082.89,319.171 1082.72,284.837 1082.5,250.5C 1080.83,250.5 1079.17,250.5 1077.5,250.5 Z M 1150.5,364.5 C 1178.44,348.526 1206.11,332.026 1233.5,315C 1223.63,302.127 1212.13,290.96 1199,281.5C 1182.58,309.071 1166.41,336.738 1150.5,364.5 Z M 999.5,285.5 C 987.044,295.553 976.044,307.053 966.5,320C 994.082,335.707 1021.58,351.54 1049,367.5C 1033.66,340.519 1018,313.519 1002,286.5C 1001.33,285.748 1000.5,285.414 999.5,285.5 Z M 1250.5,346.5 C 1222.06,363.892 1193.4,381.059 1164.5,398C 1199.16,397.868 1233.83,397.702 1268.5,397.5C 1266.33,379.99 1261.33,363.323 1253.5,347.5C 1252.68,346.614 1251.68,346.281 1250.5,346.5 Z M 948.5,351.5 C 941.89,367.106 937.224,383.272 934.5,400C 968.835,400.662 1003.17,400.995 1037.5,401C 1007.81,384.488 978.139,367.988 948.5,351.5 Z M 1100.5,404.5 C 1088.29,412.338 1088.62,419.672 1101.5,426.5C 1106.91,424.759 1110.24,421.093 1111.5,415.5C 1110.15,409.485 1106.49,405.819 1100.5,404.5 Z M 1165.5,430.5 C 1195.85,446.762 1226.02,463.428 1256,480.5C 1263.3,464.632 1267.8,447.965 1269.5,430.5C 1234.66,430.127 1200,430.127 1165.5,430.5 Z M 1001.5,433.5 C 979.673,434.497 957.673,434.831 935.5,434.5C 936.241,444.036 938.074,453.37 941,462.5C 942.856,470.092 945.856,477.092 950,483.5C 979.898,467.134 1009.73,450.634 1039.5,434C 1026.84,433.5 1014.17,433.333 1001.5,433.5 Z M 1151.5,462.5 C 1168.23,490.944 1185.23,519.277 1202.5,547.5C 1203,548.521 1203.67,548.688 1204.5,548C 1217.95,538.233 1228.78,526.4 1237,512.5C 1208.55,495.696 1180.05,479.029 1151.5,462.5 Z M 1056.5,464.5 C 1026.86,480.984 997.862,498.484 969.5,517C 978.114,529.281 988.447,539.948 1000.5,549C 1002.05,550.289 1003.72,550.956 1005.5,551C 1022.9,522.358 1039.9,493.525 1056.5,464.5 Z M 1120.5,479.5 C 1121.12,514.163 1121.45,548.83 1121.5,583.5C 1139.16,581.445 1155.83,576.278 1171.5,568C 1154.6,538.356 1137.6,508.856 1120.5,479.5 Z M 1087.5,480.5 C 1070.79,510.705 1053.46,540.538 1035.5,570C 1052.05,577.637 1069.38,582.471 1087.5,584.5C 1087.86,549.662 1087.86,514.995 1087.5,480.5 Z"/></g>
<g><path style="opacity:1" fill="#000000" d="M 1098.5,211.5 C 1107.33,211.499 1111.5,215.832 1111,224.5C 1104.33,233.833 1097.67,233.833 1091,224.5C 1089.95,218.061 1092.45,213.728 1098.5,211.5 Z"/></g>
<g><path style="opacity:1" fill="#7e7f7e" d="M 1098.5,214.5 C 1106.56,214.373 1109.39,218.04 1107,225.5C 1101.88,229.875 1097.55,229.209 1094,223.5C 1093.38,219.412 1094.88,216.412 1098.5,214.5 Z"/></g>
<g><path style="opacity:1" fill="#000000" d="M 1090.5,240.5 C 1163.15,239.064 1218.32,269.064 1256,330.5C 1281.34,377.735 1285.34,426.735 1268,477.5C 1245.57,534.264 1205.07,571.098 1146.5,588C 1067.75,604.013 1004.25,580.18 956,516.5C 925.158,468.605 917.824,417.271 934,362.5C 961.497,290.168 1013.66,249.501 1090.5,240.5 Z M 1116.5,249.5 C 1116.3,283.504 1116.14,317.504 1116,351.5C 1132.37,321.919 1148.87,292.419 1165.5,263C 1149.9,255.97 1133.57,251.47 1116.5,249.5 Z M 1077.5,250.5 C 1066.48,253.114 1055.48,256.28 1044.5,260C 1040.68,261.074 1037.35,262.907 1034.5,265.5C 1050.41,294.994 1066.58,324.327 1083,353.5C 1082.89,319.171 1082.72,284.837 1082.5,250.5C 1080.83,250.5 1079.17,250.5 1077.5,250.5 Z M 1150.5,364.5 C 1178.44,348.526 1206.11,332.026 1233.5,315C 1223.63,302.127 1212.13,290.96 1199,281.5C 1182.58,309.071 1166.41,336.738 1150.5,364.5 Z M 999.5,285.5 C 987.044,295.553 976.044,307.053 966.5,320C 994.082,335.707 1021.58,351.54 1049,367.5C 1033.66,340.519 1018,313.519 1002,286.5C 1001.33,285.748 1000.5,285.414 999.5,285.5 Z M 1250.5,346.5 C 1222.06,363.892 1193.4,381.059 1164.5,398C 1199.16,397.868 1233.83,397.702 1268.5,397.5C 1266.33,379.99 1261.33,363.323 1253.5,347.5C 1252.68,346.614 1251.68,346.281 1250.5,346.5 Z M 948.5,351.5 C 941.89,367.106 937.224,383.272 934.5,400C 968.835,400.662 1003.17,400.995 1037.5,401C 1007.81,384.488 978.139,367.988 948.5,351.5 Z M 1100.5,404.5 C 1088.29,412.338 1088.62,419.672 1101.5,426.5C 1106.91,424.759 1110.24,421.093 1111.5,415.5C 1110.15,409.485 1106.49,405.819 1100.5,404.5 Z M 1165.5,430.5 C 1195.85,446.762 1226.02,463.428 1256,480.5C 1263.3,464.632 1267.8,447.965 1269.5,430.5C 1234.66,430.127 1200,430.127 1165.5,430.5 Z M 1001.5,433.5 C 979.673,434.497 957.673,434.831 935.5,434.5C 936.241,444.036 938.074,453.37 941,462.5C 942.856,470.092 945.856,477.092 950,483.5C 979.898,467.134 1009.73,450.634 1039.5,434C 1026.84,433.5 1014.17,433.333 1001.5,433.5 Z M 1151.5,462.5 C 1168.23,490.944 1185.23,519.277 1202.5,547.5C 1203,548.521 1203.67,548.688 1204.5,548C 1217.95,538.233 1228.78,526.4 1237,512.5C 1208.55,495.696 1180.05,479.029 1151.5,462.5 Z M 1056.5,464.5 C 1026.86,480.984 997.862,498.484 969.5,517C 978.114,529.281 988.447,539.948 1000.5,549C 1002.05,550.289 1003.72,550.956 1005.5,551C 1022.9,522.358 1039.9,493.525 1056.5,464.5 Z M 1120.5,479.5 C 1121.12,514.163 1121.45,548.83 1121.5,583.5C 1139.16,581.445 1155.83,576.278 1171.5,568C 1154.6,538.356 1137.6,508.856 1120.5,479.5 Z M 1087.5,480.5 C 1070.79,510.705 1053.46,540.538 1035.5,570C 1052.05,577.637 1069.38,582.471 1087.5,584.5C 1087.86,549.662 1087.86,514.995 1087.5,480.5 Z"/></g>
<g><path style="opacity:1" fill="#278b1c" d="M 1090.5,243.5 C 1096.5,243.5 1102.5,243.5 1108.5,243.5C 1108.17,287.5 1107.83,331.5 1107.5,375.5C 1102.13,375.392 1096.8,375.725 1091.5,376.5C 1091.16,332.167 1090.82,287.833 1090.5,243.5 Z"/></g>
<g><path style="opacity:1" fill="#fefffe" d="M 1081.5,246.5 C 1082.83,246.5 1084.17,246.5 1085.5,246.5C 1085.89,286.835 1086.06,327.168 1086,367.5C 1066.63,332.961 1047.47,298.294 1028.5,263.5C 1036.34,258.914 1044.68,255.414 1053.5,253C 1062.89,250.484 1072.22,248.317 1081.5,246.5 Z M 1077.5,250.5 C 1066.48,253.114 1055.48,256.28 1044.5,260C 1040.68,261.074 1037.35,262.907 1034.5,265.5C 1050.41,294.994 1066.58,324.327 1083,353.5C 1082.89,319.171 1082.72,284.837 1082.5,250.5C 1080.83,250.5 1079.17,250.5 1077.5,250.5 Z"/></g>
<g><path style="opacity:1" fill="#fefffe" d="M 1113.5,246.5 C 1133.77,247.568 1153.11,252.401 1171.5,261C 1152.13,295.581 1132.63,330.081 1113,364.5C 1112.97,325.169 1113.14,285.835 1113.5,246.5 Z M 1116.5,249.5 C 1116.3,283.504 1116.14,317.504 1116,351.5C 1132.37,321.919 1148.87,292.419 1165.5,263C 1149.9,255.97 1133.57,251.47 1116.5,249.5 Z"/></g>
<g><path style="opacity:1" fill="#278b1c" d="M 1177.5,261.5 C 1182.76,263.462 1187.76,265.962 1192.5,269C 1193.52,270.049 1193.68,271.216 1193,272.5C 1171.06,310.095 1148.73,347.428 1126,384.5C 1122.03,381.098 1117.53,378.598 1112.5,377C 1134.31,338.554 1155.97,300.054 1177.5,261.5 Z"/></g>
<g><path style="opacity:1" fill="#278b1c" d="M 1020.5,263.5 C 1022.07,263.937 1023.24,264.937 1024,266.5C 1044.25,303.994 1064.75,341.327 1085.5,378.5C 1081.14,381.013 1077.14,384.013 1073.5,387.5C 1050.83,349.5 1028.17,311.5 1005.5,273.5C 1010.36,269.908 1015.36,266.575 1020.5,263.5 Z"/></g>
<g><path style="opacity:1" fill="#fefffe" d="M 1197.5,275.5 C 1213.92,286.415 1227.92,299.915 1239.5,316C 1205.65,336.912 1171.65,357.246 1137.5,377C 1157.64,343.221 1177.64,309.388 1197.5,275.5 Z M 1150.5,364.5 C 1178.44,348.526 1206.11,332.026 1233.5,315C 1223.63,302.127 1212.13,290.96 1199,281.5C 1182.58,309.071 1166.41,336.738 1150.5,364.5 Z"/></g>
<g><path style="opacity:1" fill="#fefffe" d="M 1001.5,278.5 C 1021.81,311.461 1041.31,344.794 1060,378.5C 1026.75,359.46 993.585,340.293 960.5,321C 966.308,313.224 972.475,305.724 979,298.5C 986.397,291.597 993.897,284.93 1001.5,278.5 Z M 999.5,285.5 C 987.044,295.553 976.044,307.053 966.5,320C 994.082,335.707 1021.58,351.54 1049,367.5C 1033.66,340.519 1018,313.519 1002,286.5C 1001.33,285.748 1000.5,285.414 999.5,285.5 Z"/></g>
<g><path style="opacity:1" fill="#000000" d="M 1265.5,305.5 C 1274.33,305.499 1278.5,309.832 1278,318.5C 1271.33,327.833 1264.67,327.833 1258,318.5C 1256.95,312.061 1259.45,307.728 1265.5,305.5 Z"/></g>
<g><path style="opacity:1" fill="#7e7f7e" d="M 1265.5,308.5 C 1273.56,308.373 1276.39,312.04 1274,319.5C 1268.88,323.875 1264.55,323.209 1261,317.5C 1260.38,313.412 1261.88,310.412 1265.5,308.5 Z"/></g>
<g><path style="opacity:1" fill="#000000" d="M 928.5,310.5 C 937.335,310.499 941.501,314.832 941,323.5C 934.333,332.833 927.667,332.833 921,323.5C 919.953,317.061 922.453,312.728 928.5,310.5 Z"/></g>
<g><path style="opacity:1" fill="#7e7f7e" d="M 928.5,313.5 C 936.558,313.373 939.391,317.04 937,324.5C 931.879,328.875 927.545,328.209 924,322.5C 923.377,318.412 924.877,315.412 928.5,313.5 Z"/></g>
<g><path style="opacity:1" fill="#278b1c" d="M 1244.5,319.5 C 1247.56,323.258 1250.39,327.258 1253,331.5C 1253.75,332.635 1253.58,333.635 1252.5,334.5C 1214.23,357.398 1176.07,379.732 1138,401.5C 1136.65,396.62 1134.15,392.453 1130.5,389C 1168.73,366.059 1206.73,342.892 1244.5,319.5 Z"/></g>
<g><path style="opacity:1" fill="#278b1c" d="M 955.5,324.5 C 993.806,346.655 1032.14,368.822 1070.5,391C 1067.92,395.401 1065.59,399.901 1063.5,404.5C 1024.47,382.991 985.806,360.991 947.5,338.5C 949.795,333.559 952.461,328.892 955.5,324.5 Z"/></g>
<g><path style="opacity:1" fill="#fefffe" d="M 1252.5,340.5 C 1253.5,340.414 1254.33,340.748 1255,341.5C 1264.57,360.056 1270.41,379.722 1272.5,400.5C 1232.16,400.853 1191.83,401.02 1151.5,401C 1185.56,381.311 1219.23,361.144 1252.5,340.5 Z M 1250.5,346.5 C 1222.06,363.892 1193.4,381.059 1164.5,398C 1199.16,397.868 1233.83,397.702 1268.5,397.5C 1266.33,379.99 1261.33,363.323 1253.5,347.5C 1252.68,346.614 1251.68,346.281 1250.5,346.5 Z"/></g>
<g><path style="opacity:1" fill="#fefffe" d="M 946.5,345.5 C 981.473,364.988 1016.47,384.488 1051.5,404C 1011.5,403.993 971.502,403.826 931.5,403.5C 933.233,383.305 938.233,363.972 946.5,345.5 Z M 948.5,351.5 C 941.89,367.106 937.224,383.272 934.5,400C 968.835,400.662 1003.17,400.995 1037.5,401C 1007.81,384.488 978.139,367.988 948.5,351.5 Z"/></g>
<g><path style="opacity:1" fill="#278b1c" d="M 1095.5,378.5 C 1117.29,377.634 1131.12,387.634 1137,408.5C 1138.66,430.686 1128.83,444.853 1107.5,451C 1085.14,452.405 1071.3,442.238 1066,420.5C 1064.85,399.099 1074.69,385.099 1095.5,378.5 Z M 1100.5,404.5 C 1088.29,412.338 1088.62,419.672 1101.5,426.5C 1106.91,424.759 1110.24,421.093 1111.5,415.5C 1110.15,409.485 1106.49,405.819 1100.5,404.5 Z"/></g>
<g><path style="opacity:1" fill="#000000" d="M 1097.5,395.5 C 1113.95,395.783 1121.45,404.117 1120,420.5C 1114.25,434.752 1104.41,438.586 1090.5,432C 1079.83,421 1079.83,410 1090.5,399C 1092.93,397.787 1095.26,396.621 1097.5,395.5 Z M 1100.5,404.5 C 1088.29,412.338 1088.62,419.672 1101.5,426.5C 1106.91,424.759 1110.24,421.093 1111.5,415.5C 1110.15,409.485 1106.49,405.819 1100.5,404.5 Z"/></g>
<g><path style="opacity:0" fill="#fefffe" d="M 1099.5,400.5 C 1108.68,401.346 1114.01,406.346 1115.5,415.5C 1113.46,426.492 1107.13,430.992 1096.5,429C 1087.03,422.601 1085.53,414.768 1092,405.5C 1094.48,403.686 1096.98,402.019 1099.5,400.5 Z M 1100.5,404.5 C 1088.29,412.338 1088.62,419.672 1101.5,426.5C 1106.91,424.759 1110.24,421.093 1111.5,415.5C 1110.15,409.485 1106.49,405.819 1100.5,404.5 Z"/></g>
<g><path style="opacity:1" fill="#278b1c" d="M 1207.5,405.5 C 1230.17,405.5 1252.83,405.5 1275.5,405.5C 1275.5,411.167 1275.5,416.833 1275.5,422.5C 1230.5,422.157 1185.5,421.824 1140.5,421.5C 1140.78,416.767 1140.44,412.1 1139.5,407.5C 1162.33,406.833 1185,406.167 1207.5,405.5 Z"/></g>
<g><path style="opacity:1" fill="#278b1c" d="M 928.5,408.5 C 973.167,408.795 1017.83,409.128 1062.5,409.5C 1062.47,414.862 1062.81,420.195 1063.5,425.5C 1018.5,425.843 973.5,426.176 928.5,426.5C 928.5,420.5 928.5,414.5 928.5,408.5 Z"/></g>
<g><path style="opacity:1" fill="#278b1c" d="M 1138.5,425.5 C 1177.36,447.506 1216.36,469.339 1255.5,491C 1256.36,491.689 1257.02,492.522 1257.5,493.5C 1255.41,498.695 1252.58,503.362 1249,507.5C 1209.77,485.412 1170.93,462.746 1132.5,439.5C 1135.6,435.296 1137.6,430.629 1138.5,425.5 Z"/></g>
<g><path style="opacity:1" fill="#fefffe" d="M 1152.5,427.5 C 1192.33,426.968 1232.33,426.968 1272.5,427.5C 1271.59,448.125 1266.76,467.791 1258,486.5C 1222.94,466.605 1187.78,446.938 1152.5,427.5 Z M 1165.5,430.5 C 1195.85,446.762 1226.02,463.428 1256,480.5C 1263.3,464.632 1267.8,447.965 1269.5,430.5C 1234.66,430.127 1200,430.127 1165.5,430.5 Z"/></g>
<g><path style="opacity:1" fill="#fefffe" d="M 998.5,430.5 C 1016.5,430.333 1034.5,430.5 1052.5,431C 1018,450.753 983.329,470.253 948.5,489.5C 943.679,482.18 940.179,474.18 938,465.5C 934.612,454.393 932.445,443.06 931.5,431.5C 954.006,431.831 976.34,431.497 998.5,430.5 Z M 1001.5,433.5 C 979.673,434.497 957.673,434.831 935.5,434.5C 936.241,444.036 938.074,453.37 941,462.5C 942.856,470.092 945.856,477.092 950,483.5C 979.898,467.134 1009.73,450.634 1039.5,434C 1026.84,433.5 1014.17,433.333 1001.5,433.5 Z"/></g>
<g><path style="opacity:1" fill="#278b1c" d="M 1064.5,430.5 C 1067.36,434.355 1070.36,438.188 1073.5,442C 1034.58,465.374 995.75,488.874 957,512.5C 954.333,507.833 951.667,503.167 949,498.5C 948.251,497.365 948.417,496.365 949.5,495.5C 988.058,474.059 1026.39,452.392 1064.5,430.5 Z"/></g>
<g><path style="opacity:1" fill="#278b1c" d="M 1126.5,444.5 C 1127.5,444.414 1128.33,444.748 1129,445.5C 1151.75,483.333 1174.75,521 1198,558.5C 1198.68,559.784 1198.52,560.951 1197.5,562C 1193.5,564.333 1189.5,566.667 1185.5,569C 1184.36,569.749 1183.36,569.583 1182.5,568.5C 1160.77,529.28 1138.43,490.446 1115.5,452C 1119.93,450.465 1123.59,447.965 1126.5,444.5 Z"/></g>
<g><path style="opacity:1" fill="#278b1c" d="M 1078.5,447.5 C 1083.02,449.929 1087.69,452.095 1092.5,454C 1069.46,493.249 1046.29,532.416 1023,571.5C 1018.23,569.062 1013.73,566.229 1009.5,563C 1032.64,524.555 1055.64,486.055 1078.5,447.5 Z"/></g>
<g><path style="opacity:1" fill="#fefffe" d="M 1139.5,452.5 C 1140.72,451.535 1142.05,451.702 1143.5,453C 1176.5,472.167 1209.5,491.333 1242.5,510.5C 1243.58,511.365 1243.75,512.365 1243,513.5C 1232.02,529.645 1218.52,543.312 1202.5,554.5C 1181.44,520.46 1160.44,486.46 1139.5,452.5 Z M 1151.5,462.5 C 1168.23,490.944 1185.23,519.277 1202.5,547.5C 1203,548.521 1203.67,548.688 1204.5,548C 1217.95,538.233 1228.78,526.4 1237,512.5C 1208.55,495.696 1180.05,479.029 1151.5,462.5 Z"/></g>
<g><path style="opacity:1" fill="#fefffe" d="M 1066.5,452.5 C 1067.24,452.369 1067.91,452.536 1068.5,453C 1047.79,488.249 1026.96,523.416 1006,558.5C 989.708,547.208 975.708,533.541 964,517.5C 963.333,516.5 963.333,515.5 964,514.5C 998.313,493.933 1032.48,473.267 1066.5,452.5 Z M 1056.5,464.5 C 1026.86,480.984 997.862,498.484 969.5,517C 978.114,529.281 988.447,539.948 1000.5,549C 1002.05,550.289 1003.72,550.956 1005.5,551C 1022.9,522.358 1039.9,493.525 1056.5,464.5 Z"/></g>
<g><path style="opacity:1" fill="#278b1c" d="M 1111.5,452.5 C 1112.81,498.328 1113.48,544.328 1113.5,590.5C 1107.5,590.5 1101.5,590.5 1095.5,590.5C 1095.83,545.167 1096.17,499.833 1096.5,454.5C 1101.78,454.904 1106.78,454.238 1111.5,452.5 Z"/></g>
<g><path style="opacity:1" fill="#fefffe" d="M 1090.5,466.5 C 1091.02,506.664 1091.02,546.998 1090.5,587.5C 1069.3,586.534 1049.3,581.2 1030.5,571.5C 1050.78,536.608 1070.78,501.608 1090.5,466.5 Z M 1087.5,480.5 C 1070.79,510.705 1053.46,540.538 1035.5,570C 1052.05,577.637 1069.38,582.471 1087.5,584.5C 1087.86,549.662 1087.86,514.995 1087.5,480.5 Z"/></g>
<g><path style="opacity:1" fill="#fefffe" d="M 1117.5,466.5 C 1137.5,500.536 1157.17,534.87 1176.5,569.5C 1173.87,571.821 1170.87,573.654 1167.5,575C 1151.76,581.518 1135.43,585.685 1118.5,587.5C 1118.3,547.165 1117.96,506.832 1117.5,466.5 Z M 1120.5,479.5 C 1121.12,514.163 1121.45,548.83 1121.5,583.5C 1139.16,581.445 1155.83,576.278 1171.5,568C 1154.6,538.356 1137.6,508.856 1120.5,479.5 Z"/></g>
<g><path style="opacity:1" fill="#000000" d="M 1271.5,501.5 C 1280.33,501.499 1284.5,505.832 1284,514.5C 1277.33,523.833 1270.67,523.833 1264,514.5C 1262.95,508.061 1265.45,503.728 1271.5,501.5 Z"/></g>
<g><path style="opacity:1" fill="#000000" d="M 931.5,502.5 C 940.335,502.499 944.501,506.832 944,515.5C 937.333,524.833 930.667,524.833 924,515.5C 922.953,509.061 925.453,504.728 931.5,502.5 Z"/></g>
<g><path style="opacity:1" fill="#7e7f7e" d="M 1271.5,504.5 C 1279.56,504.373 1282.39,508.04 1280,515.5C 1274.88,519.875 1270.55,519.209 1267,513.5C 1266.38,509.412 1267.88,506.412 1271.5,504.5 Z"/></g>
<g><path style="opacity:1" fill="#7e7f7e" d="M 931.5,505.5 C 939.558,505.373 942.391,509.04 940,516.5C 934.879,520.875 930.545,520.209 927,514.5C 926.377,510.412 927.877,507.412 931.5,505.5 Z"/></g>
<g><path style="opacity:1" fill="#000000" d="M 1101.5,604.5 C 1110.33,604.499 1114.5,608.832 1114,617.5C 1107.33,626.833 1100.67,626.833 1094,617.5C 1092.95,611.061 1095.45,606.728 1101.5,604.5 Z"/></g>
<g><path style="opacity:1" fill="#7e7f7e" d="M 1101.5,607.5 C 1109.56,607.373 1112.39,611.04 1110,618.5C 1104.88,622.875 1100.55,622.209 1097,616.5C 1096.38,612.412 1097.88,609.412 1101.5,607.5 Z"/></g>
</svg>
