<?xml version="1.0" encoding="UTF-8"?>
<!DOCTYPE svg PUBLIC "-//W3C//DTD SVG 1.1//EN" "http://www.w3.org/Graphics/SVG/1.1/DTD/svg11.dtd">
<svg xmlns="http://www.w3.org/2000/svg" version="1.1" width="645px" height="600px" style="shape-rendering:geometricPrecision; text-rendering:geometricPrecision; image-rendering:optimizeQuality; fill-rule:evenodd; clip-rule:evenodd" xmlns:xlink="http://www.w3.org/1999/xlink">
<g><path style="opacity:1" fill="#fefffe" d="M 375.5,3.5 C 382.361,2.96506 389.028,3.79839 395.5,6C 397.473,9.49436 400.473,10.9944 404.5,10.5C 405.362,15.8129 405.529,21.1462 405,26.5C 404.417,28.0016 403.584,29.3349 402.5,30.5C 401.823,42.9056 400.656,55.2389 399,67.5C 396.4,72.9668 394.4,78.6335 393,84.5C 391.71,86.792 390.043,88.792 388,90.5C 387.547,97.1923 387.881,103.859 389,110.5C 394.418,107.207 399.918,104.04 405.5,101C 411.496,93.9306 419.162,91.4306 428.5,93.5C 428.666,98.8437 428.499,104.177 428,109.5C 420.786,115.715 413.286,121.549 405.5,127C 412.84,128.095 420.174,129.428 427.5,131C 431.948,133.114 435.448,136.281 438,140.5C 438.667,147.833 438.667,155.167 438,162.5C 436.834,165.503 435.167,168.17 433,170.5C 432.548,174.011 433.715,174.511 436.5,172C 441.5,171.333 446.5,171.333 451.5,172C 453.888,173.861 456.554,175.194 459.5,176C 461.447,179.07 463.947,181.57 467,183.5C 467.483,182.552 467.649,181.552 467.5,180.5C 476.453,179.235 484.286,181.568 491,187.5C 491.333,192.5 491.667,197.5 492,202.5C 495.204,204.4 497.038,207.233 497.5,211C 501.164,212.002 504.331,213.836 507,216.5C 506.719,223.269 508.719,229.269 513,234.5C 516.367,238.203 520.034,241.536 524,244.5C 524.862,246.087 525.529,247.754 526,249.5C 530.035,253.2 533.702,257.2 537,261.5C 537.667,266.167 537.667,270.833 537,275.5C 535.731,279.649 535.065,283.982 535,288.5C 534.535,289.931 533.701,291.097 532.5,292C 529.576,292.988 526.576,293.654 523.5,294C 521.532,297.96 518.865,301.293 515.5,304C 496.735,306.215 479.068,303.215 462.5,295C 460.898,290.962 458.898,287.129 456.5,283.5C 450.862,282.67 445.196,282.17 439.5,282C 436.619,280.749 434.786,278.583 434,275.5C 434.103,284.257 431.27,291.757 425.5,298C 424.207,298.49 422.873,298.657 421.5,298.5C 421.34,300.199 421.506,301.866 422,303.5C 425.01,306.223 428.01,308.89 431,311.5C 431.829,316.533 431.662,321.533 430.5,326.5C 429.205,327.098 427.872,327.598 426.5,328C 424.333,331.5 421.5,334.333 418,336.5C 415.27,348.313 409.27,357.979 400,365.5C 396.941,375.282 391.608,383.616 384,390.5C 380.975,396.087 380.975,401.753 384,407.5C 387.194,412.554 389.861,417.888 392,423.5C 393.37,437.39 397.37,450.39 404,462.5C 404.169,467.768 406.169,472.102 410,475.5C 412.203,482.636 413.536,489.969 414,497.5C 416.25,501.668 418.75,505.668 421.5,509.5C 425.475,511.642 428.642,514.642 431,518.5C 431.667,524.167 431.667,529.833 431,535.5C 427.584,537.792 424.084,539.959 420.5,542C 409.573,543.597 398.573,543.931 387.5,543C 385.622,541.457 384.122,539.624 383,537.5C 382.333,531.833 382.333,526.167 383,520.5C 385.05,517.138 384.05,514.805 380,513.5C 377.739,507.594 375.073,501.927 372,496.5C 369.463,502.035 365.296,505.868 359.5,508C 348.199,509.607 337.366,508.107 327,503.5C 326.229,495.47 326.396,487.47 327.5,479.5C 325.605,475.377 323.438,471.377 321,467.5C 318.929,452.787 321.763,439.121 329.5,426.5C 330.915,417.753 333.249,409.253 336.5,401C 332.971,391.43 327.804,382.93 321,375.5C 318.679,371.371 316.846,367.037 315.5,362.5C 305.159,361.735 294.826,361.068 284.5,360.5C 283.864,366.517 283.031,372.517 282,378.5C 267.136,379.831 253.302,376.497 240.5,368.5C 239.516,365.572 239.183,362.572 239.5,359.5C 237.856,359.714 236.356,359.38 235,358.5C 234.333,353.167 234.333,347.833 235,342.5C 237.335,339.834 239.169,336.834 240.5,333.5C 234.689,333.019 229.022,332.019 223.5,330.5C 219.656,334.847 216.823,339.847 215,345.5C 213.214,355.075 212.214,364.742 212,374.5C 211.439,376.725 210.439,378.725 209,380.5C 204.405,384.55 199.905,388.717 195.5,393C 193.913,393.862 192.246,394.529 190.5,395C 180.847,396.044 171.18,396.377 161.5,396C 159.333,395.167 157.833,393.667 157,391.5C 156.09,382.756 156.424,374.089 158,365.5C 158.833,362.667 160.667,360.833 163.5,360C 168.419,359.198 173.252,359.365 178,360.5C 180.201,355.035 182.701,349.702 185.5,344.5C 180.86,341.675 175.86,340.175 170.5,340C 158.778,350.78 152.612,364.28 152,380.5C 150.601,383.629 148.935,386.629 147,389.5C 146.794,392.623 146.127,395.623 145,398.5C 138.739,401.729 132.239,404.562 125.5,407C 120.833,407.667 116.167,407.667 111.5,407C 107.855,403.547 105.355,399.38 104,394.5C 103.2,386.784 103.367,379.117 104.5,371.5C 105.025,370.808 105.692,370.308 106.5,370C 110.486,369.501 114.486,369.334 118.5,369.5C 117.063,359.639 120.23,351.639 128,345.5C 132.019,329.425 136.352,313.425 141,297.5C 141.792,295.413 142.959,293.579 144.5,292C 150.084,291.194 155.584,291.361 161,292.5C 166.579,290.589 170.579,286.923 173,281.5C 174.025,269.328 175.691,257.328 178,245.5C 176.122,247.043 174.622,248.876 173.5,251C 168.5,251.667 163.5,251.667 158.5,251C 156.804,248.018 154.137,246.684 150.5,247C 148.769,245.37 146.769,244.203 144.5,243.5C 138.153,242.833 131.82,242.166 125.5,241.5C 125.5,237.167 125.5,232.833 125.5,228.5C 121.653,226.039 117.486,224.039 113,222.5C 112.551,214.778 111.718,207.112 110.5,199.5C 109.711,195.105 111.044,191.605 114.5,189C 123.045,187.958 131.379,188.791 139.5,191.5C 146.262,190.786 151.928,187.952 156.5,183C 176.715,179.264 195.548,182.764 213,193.5C 214.276,189.218 215.776,185.051 217.5,181C 221.046,179.826 224.713,179.16 228.5,179C 228,178.5 227.5,178 227,177.5C 226.333,173.167 226.333,168.833 227,164.5C 229.185,163.072 231.185,161.405 233,159.5C 234.436,152.579 235.436,145.579 236,138.5C 237.833,134 241,130.833 245.5,129C 254.627,124.348 263.96,120.181 273.5,116.5C 273.343,115.127 273.51,113.793 274,112.5C 278.534,108.997 282.701,105.164 286.5,101C 293.011,99.9685 299.344,100.468 305.5,102.5C 310.333,100.757 315.333,100.09 320.5,100.5C 319.477,89.1855 319.31,77.8522 320,66.5C 323.727,54.2033 330.56,44.0366 340.5,36C 348.524,32.8915 356.857,31.7249 365.5,32.5C 365.596,24.8207 365.93,17.154 366.5,9.5C 369.91,9.61623 371.244,7.94956 370.5,4.5C 372.415,4.78448 374.081,4.45115 375.5,3.5 Z M 369.5,163.5 C 374.787,164.342 380.12,164.676 385.5,164.5C 385.5,167.5 385.5,170.5 385.5,173.5C 384.5,173.5 383.5,173.5 382.5,173.5C 382.67,174.822 382.337,175.989 381.5,177C 375.013,177.089 368.846,178.255 363,180.5C 361.833,178.833 360.667,177.167 359.5,175.5C 362.48,171.189 365.813,167.189 369.5,163.5 Z M 356.5,448.5 C 357.376,448.369 358.043,448.702 358.5,449.5C 361.079,454.992 363.912,460.325 367,465.5C 367.342,471.631 368.008,477.631 369,483.5C 366.794,477.421 363.794,471.755 360,466.5C 358.876,460.452 357.709,454.452 356.5,448.5 Z"/></g>
<g><path style="opacity:1" fill="#000000" d="M 378.5,6.5 C 383.371,6.19216 388.037,7.0255 392.5,9C 394.473,12.4944 397.473,13.9944 401.5,13.5C 402.005,16.8411 402.172,20.1745 402,23.5C 400.697,25.9676 399.197,28.301 397.5,30.5C 398.125,33.6124 398.459,36.7791 398.5,40C 397.261,48.0983 396.428,56.265 396,64.5C 393.4,69.9668 391.4,75.6335 390,81.5C 388.71,83.792 387.043,85.792 385,87.5C 384.72,92.1966 384.22,96.8633 383.5,101.5C 387.266,107.593 385.933,111.927 379.5,114.5C 377.789,116.24 376.956,118.24 377,120.5C 386.703,116.065 396.203,111.232 405.5,106C 409.167,103 412.833,100 416.5,97C 419.482,96.502 422.482,96.3354 425.5,96.5C 425.665,99.8499 425.498,103.183 425,106.5C 417.069,113.767 408.569,120.267 399.5,126C 400.728,128.14 402.395,129.807 404.5,131C 412.873,131.008 420.873,132.674 428.5,136C 431.04,138.205 433.207,140.705 435,143.5C 435.667,148.833 435.667,154.167 435,159.5C 432.458,163.67 430.458,168.004 429,172.5C 427.185,174.405 425.185,176.072 423,177.5C 422.437,178.725 422.77,179.725 424,180.5C 427.042,177.918 430.042,177.918 433,180.5C 436.732,174.954 441.899,173.121 448.5,175C 450.888,176.861 453.554,178.194 456.5,179C 461.36,183.414 465.693,188.247 469.5,193.5C 470.487,190.232 470.82,186.898 470.5,183.5C 477.16,183.775 482.993,186.109 488,190.5C 488.796,194.755 488.629,198.921 487.5,203C 488.333,205.167 489.833,206.667 492,207.5C 492.973,209.392 493.64,211.392 494,213.5C 497.784,214.76 501.117,216.76 504,219.5C 503.822,224.925 505.155,229.925 508,234.5C 511.667,239.5 516,243.833 521,247.5C 523.832,253.343 527.832,258.343 533,262.5C 533.985,264.366 534.485,266.366 534.5,268.5C 533.168,274.751 532.002,281.085 531,287.5C 527.925,289.771 524.425,290.937 520.5,291C 517.122,300.689 510.456,304.022 500.5,301C 498.323,297.352 495.99,297.019 493.5,300C 483.682,298.994 474.182,296.161 465,291.5C 463.278,286.388 460.778,281.721 457.5,277.5C 452.755,279.547 447.755,280.047 442.5,279C 441.069,278.535 439.903,277.701 439,276.5C 438.257,273.489 436.924,270.822 435,268.5C 432.626,270.539 430.626,272.872 429,275.5C 429.605,279.495 429.438,283.495 428.5,287.5C 426.631,290.052 424.631,292.552 422.5,295C 420.744,295.202 419.078,295.702 417.5,296.5C 418.254,299.777 418.754,303.11 419,306.5C 422.01,309.223 425.01,311.89 428,314.5C 428.821,317.554 428.655,320.554 427.5,323.5C 426.205,324.098 424.872,324.598 423.5,325C 421.333,328.5 418.5,331.333 415,333.5C 412.27,345.313 406.27,354.979 397,362.5C 393.941,372.282 388.608,380.616 381,387.5C 380,389.5 379,391.5 378,393.5C 377.96,399.305 378.96,404.972 381,410.5C 384.194,415.554 386.861,420.888 389,426.5C 390.37,440.39 394.37,453.39 401,465.5C 401.169,470.768 403.169,475.102 407,478.5C 409.203,485.636 410.536,492.969 411,500.5C 414.701,508.251 420.034,514.584 427,519.5C 428.74,523.964 428.907,528.464 427.5,533C 422.56,537.136 416.893,539.636 410.5,540.5C 408.055,540.597 405.889,539.93 404,538.5C 399.747,540.494 395.247,540.994 390.5,540C 386.662,537.323 384.995,533.656 385.5,529C 386.186,524.005 387.019,519.172 388,514.5C 386.622,512.787 384.955,511.453 383,510.5C 381.972,505.444 379.639,501.11 376,497.5C 373.453,485.884 371.453,474.217 370,462.5C 365.397,454.293 361.063,445.959 357,437.5C 354.807,442.103 353.307,446.937 352.5,452C 354.734,457.615 356.234,463.448 357,469.5C 360.721,474.275 363.388,479.609 365,485.5C 370.194,491.764 369.361,497.264 362.5,502C 356.922,505.301 350.922,506.301 344.5,505C 339.568,503.727 334.735,502.227 330,500.5C 329.751,491.823 329.751,483.157 330,474.5C 328,471.167 326,467.833 324,464.5C 323.027,451.917 325.86,440.25 332.5,429.5C 334.464,419.447 337.13,409.614 340.5,400C 337.017,389.541 331.517,380.374 324,372.5C 321.679,368.371 319.846,364.037 318.5,359.5C 317.372,358.738 316.205,358.071 315,357.5C 307.246,358.647 299.413,358.814 291.5,358C 288.202,357.513 285.202,356.347 282.5,354.5C 281.27,361.486 280.103,368.486 279,375.5C 277.769,376.108 276.436,376.441 275,376.5C 263.8,374.712 253.3,371.045 243.5,365.5C 242.516,362.572 242.183,359.572 242.5,356.5C 240.856,356.714 239.356,356.38 238,355.5C 237.333,352.167 237.333,348.833 238,345.5C 241.167,341.328 243.667,336.828 245.5,332C 244.636,330.303 243.303,329.137 241.5,328.5C 237.558,329.6 233.558,329.767 229.5,329C 227.448,328.07 225.948,326.57 225,324.5C 223.172,326.081 221.172,327.415 219,328.5C 216.139,332.888 213.806,337.554 212,342.5C 210.419,353.152 209.085,363.819 208,374.5C 202.919,380.792 197.085,386.292 190.5,391C 183.403,392.234 176.236,393.067 169,393.5C 164.8,393.902 161.8,392.235 160,388.5C 159.333,382.833 159.333,377.167 160,371.5C 160.898,365.433 164.398,362.433 170.5,362.5C 173.794,362.846 176.794,363.679 179.5,365C 180.787,363.59 181.954,362.09 183,360.5C 184.063,355.436 186.063,350.769 189,346.5C 189.756,344.191 189.256,342.191 187.5,340.5C 182.151,338.328 176.651,336.661 171,335.5C 168.078,336.755 165.411,338.422 163,340.5C 153.875,352.201 148.875,365.534 148,380.5C 144.392,384.055 142.725,388.388 143,393.5C 142.535,394.931 141.701,396.097 140.5,397C 133.611,400.575 126.278,403.075 118.5,404.5C 115.209,404.721 112.709,403.387 111,400.5C 106.736,392.687 105.403,384.354 107,375.5C 107.5,374.333 108.333,373.5 109.5,373C 113.486,372.501 117.486,372.334 121.5,372.5C 120.063,362.639 123.23,354.639 131,348.5C 135.019,332.425 139.352,316.425 144,300.5C 144.792,298.413 145.959,296.579 147.5,295C 151.771,293.992 155.771,294.492 159.5,296.5C 167.075,295.301 172.575,291.301 176,284.5C 176.842,274.433 178.175,264.433 180,254.5C 181.489,249.356 183.656,244.522 186.5,240C 182.542,240.755 178.542,241.755 174.5,243C 172.787,244.378 171.453,246.045 170.5,248C 167.5,248.667 164.5,248.667 161.5,248C 159.804,245.018 157.137,243.684 153.5,244C 149.651,241.551 145.651,239.384 141.5,237.5C 137.299,239.701 132.966,240.034 128.5,238.5C 128.021,234.089 128.688,229.922 130.5,226C 127.443,226.107 125.109,224.94 123.5,222.5C 120.743,221.971 118.243,220.971 116,219.5C 115.283,215.955 115.45,212.455 116.5,209C 109.738,196.907 113.072,191.24 126.5,192C 138.79,197.353 149.79,195.353 159.5,186C 178.977,183.161 196.811,187.328 213,198.5C 213.748,200.332 214.748,201.999 216,203.5C 215.962,196.864 217.295,190.53 220,184.5C 220.75,183.874 221.584,183.374 222.5,183C 227.5,182.667 232.5,182.333 237.5,182C 233.57,179.097 230.903,175.43 229.5,171C 229.667,169.833 229.833,168.667 230,167.5C 232.185,166.072 234.185,164.405 236,162.5C 237.436,155.579 238.436,148.579 239,141.5C 240.833,137 244,133.833 248.5,132C 257.627,127.348 266.96,123.181 276.5,119.5C 276.343,118.127 276.51,116.793 277,115.5C 281.534,111.997 285.701,108.164 289.5,104C 294.744,102.837 299.577,103.67 304,106.5C 312.292,104.01 320.792,102.844 329.5,103C 327.759,101.38 325.925,99.8804 324,98.5C 317.941,74.3449 324.441,54.5116 343.5,39C 351.237,35.5666 359.237,34.7333 367.5,36.5C 368.23,34.6587 368.897,32.8254 369.5,31C 368.823,24.7115 368.823,18.5449 369.5,12.5C 372.91,12.6162 374.244,10.9496 373.5,7.5C 375.415,7.78448 377.081,7.45115 378.5,6.5 Z M 369.5,163.5 C 365.813,167.189 362.48,171.189 359.5,175.5C 360.667,177.167 361.833,178.833 363,180.5C 368.846,178.255 375.013,177.089 381.5,177C 382.337,175.989 382.67,174.822 382.5,173.5C 383.5,173.5 384.5,173.5 385.5,173.5C 385.5,170.5 385.5,167.5 385.5,164.5C 380.12,164.676 374.787,164.342 369.5,163.5 Z M 356.5,448.5 C 357.709,454.452 358.876,460.452 360,466.5C 363.794,471.755 366.794,477.421 369,483.5C 368.008,477.631 367.342,471.631 367,465.5C 363.912,460.325 361.079,454.992 358.5,449.5C 358.043,448.702 357.376,448.369 356.5,448.5 Z"/></g>
<g><path style="opacity:1" fill="#e41820" d="M 380.5,11.5 C 385.446,11.1398 389.112,13.1398 391.5,17.5C 393.225,18.0149 394.892,18.6816 396.5,19.5C 394.054,23.0517 392.72,26.7184 392.5,30.5C 392.921,32.6575 393.421,34.6575 394,36.5C 391,32.5 388,32.5 385,36.5C 384.572,40.6194 382.572,43.6194 379,45.5C 378.692,44.6919 378.192,44.0253 377.5,43.5C 374.525,45.0173 373.858,44.3506 375.5,41.5C 375.24,39.8129 374.573,38.3129 373.5,37C 375.332,36.2515 376.999,35.2515 378.5,34C 378.201,32.6796 378.034,31.1796 378,29.5C 377.097,28.2986 375.931,27.4652 374.5,27C 377.113,24.2047 377.113,21.3714 374.5,18.5C 374.977,17.5224 375.643,16.6891 376.5,16C 376.167,15.6667 375.833,15.3333 375.5,15C 377.59,14.3305 379.257,13.1639 380.5,11.5 Z"/></g>
<g><path style="opacity:1" fill="#fec90d" d="M 388.5,35.5 C 393.473,37.8123 394.64,41.479 392,46.5C 390.333,49.1667 388.667,49.1667 387,46.5C 384.842,42.4608 385.342,38.7942 388.5,35.5 Z"/></g>
<g><path style="opacity:1" fill="#303130" d="M 357.5,40.5 C 360.425,40.4598 363.091,41.2932 365.5,43C 361.892,43.0259 358.558,43.8593 355.5,45.5C 353.235,51.1276 351.069,56.7943 349,62.5C 345.243,65.5858 342.243,69.2525 340,73.5C 336.585,80.8256 334.251,88.4923 333,96.5C 329.099,94.4206 327.433,91.0873 328,86.5C 326.989,79.9643 327.656,73.631 330,67.5C 334.309,59.7152 339.476,52.5485 345.5,46C 349.284,43.4713 353.284,41.638 357.5,40.5 Z"/></g>
<g><path style="opacity:1" fill="#fbc60d" d="M 369.5,55.5 C 364.076,57.1902 361.243,55.1902 361,49.5C 360.667,51.8333 360.333,54.1667 360,56.5C 357.258,58.4703 355.092,60.9703 353.5,64C 357.378,66.438 361.378,68.6047 365.5,70.5C 365.297,68.6096 365.963,67.1096 367.5,66C 370.462,64.15 373.462,62.65 376.5,61.5C 377.873,61.3433 379.207,61.51 380.5,62C 376.08,63.1237 371.913,64.957 368,67.5C 366.452,70.2063 365.286,73.0397 364.5,76C 365.448,76.4828 366.448,76.6495 367.5,76.5C 367.541,73.1952 368.875,71.0285 371.5,70C 374.006,73.0565 374.006,76.2231 371.5,79.5C 369.926,80.6309 368.259,80.7975 366.5,80C 362.833,77.6667 359.167,75.3333 355.5,73C 353.422,70.589 351.755,67.9223 350.5,65C 352.496,58.5117 355.163,52.345 358.5,46.5C 366.669,44.1001 370.335,47.1001 369.5,55.5 Z"/></g>
<g><path style="opacity:1" fill="#fec90d" d="M 373.5,45.5 C 372.958,52.7874 376.291,55.6208 383.5,54C 384.149,51.5192 385.149,51.1859 386.5,53C 383.729,60.2259 379.229,61.3925 373,56.5C 371.113,52.7572 371.28,49.0905 373.5,45.5 Z"/></g>
<g><path style="opacity:1" fill="#fec90d" d="M 383.5,45.5 C 384.391,46.2613 385.058,47.2613 385.5,48.5C 383.641,50.9119 381.308,52.0786 378.5,52C 377.643,51.3109 376.977,50.4776 376.5,49.5C 378.904,48.1568 381.238,46.8234 383.5,45.5 Z"/></g>
<g><path style="opacity:1" fill="#927200" d="M 369.5,55.5 C 370.779,58.6519 373.112,60.6519 376.5,61.5C 373.462,62.65 370.462,64.15 367.5,66C 365.963,67.1096 365.297,68.6096 365.5,70.5C 361.378,68.6047 357.378,66.438 353.5,64C 355.092,60.9703 357.258,58.4703 360,56.5C 360.333,54.1667 360.667,51.8333 361,49.5C 361.243,55.1902 364.076,57.1902 369.5,55.5 Z"/></g>
<g><path style="opacity:1" fill="#e71921" d="M 388.5,50.5 C 390.491,52.8104 391.824,55.6437 392.5,59C 391.624,61.8364 390.291,64.3364 388.5,66.5C 387.622,70.5886 386.455,74.5886 385,78.5C 383.71,80.792 382.043,82.792 380,84.5C 378.833,82 377,80.1667 374.5,79C 376.002,74.8495 375.669,70.8495 373.5,67C 376.308,66.0068 379.141,65.1734 382,64.5C 383.115,62.0919 384.782,60.0919 387,58.5C 388.079,55.9373 388.579,53.2706 388.5,50.5 Z"/></g>
<g><path style="opacity:1" fill="#a9aaa9" d="M 347.5,67.5 C 352.022,73.5107 357.689,78.344 364.5,82C 367.536,82.6385 370.536,82.4718 373.5,81.5C 374.932,81.7332 375.432,82.3999 375,83.5C 373.701,84.9797 372.034,85.6464 370,85.5C 365.881,84.6906 361.715,84.6906 357.5,85.5C 352.75,85.9566 348.75,84.4566 345.5,81C 343.559,80.2571 341.726,80.4238 340,81.5C 341.156,76.1918 343.656,71.5251 347.5,67.5 Z"/></g>
<g><path style="opacity:1" fill="#303130" d="M 346.5,88.5 C 340.968,85.1102 337.968,86.9435 337.5,94C 337.961,96.1993 338.127,98.3659 338,100.5C 336.529,99.6195 335.696,98.2861 335.5,96.5C 335.972,91.969 337.139,87.6357 339,83.5C 340.194,82.5697 341.527,81.9031 343,81.5C 345.235,83.3706 347.735,84.8706 350.5,86C 359.354,86.2392 368.021,86.0725 376.5,85.5C 378.873,86.5497 379.873,88.383 379.5,91C 379.201,94.3966 378.201,97.5632 376.5,100.5C 372.763,96.6695 369.097,96.8362 365.5,101C 361.555,101.538 357.722,101.038 354,99.5C 351.849,99.6431 350.182,100.643 349,102.5C 349.072,97.7221 348.239,93.0554 346.5,88.5 Z"/></g>
<g><path style="opacity:1" fill="#eab80a" d="M 346.5,88.5 C 347.883,92.5719 347.716,96.5719 346,100.5C 342.057,102.251 339.723,100.918 339,96.5C 337.779,89.8916 340.279,87.2249 346.5,88.5 Z"/></g>
<g><path style="opacity:1" fill="#c2c3c2" d="M 420.5,100.5 C 421.525,100.897 421.692,101.563 421,102.5C 411.298,111.267 400.798,118.934 389.5,125.5C 351.992,145.755 314.325,165.755 276.5,185.5C 274.341,184.215 273.674,182.548 274.5,180.5C 317.082,158.064 359.749,135.897 402.5,114C 408.967,110.021 414.967,105.521 420.5,100.5 Z"/></g>
<g><path style="opacity:1" fill="#df9574" d="M 338.5,101.5 C 339.649,101.791 340.316,102.624 340.5,104C 339.946,105.551 339.28,107.051 338.5,108.5C 340.069,110.652 340.569,112.986 340,115.5C 339.085,114.672 338.419,113.672 338,112.5C 337.206,118.516 335.706,118.849 333.5,113.5C 335.374,109.535 337.04,105.535 338.5,101.5 Z"/></g>
<g><path style="opacity:1" fill="#fec90d" d="M 350.5,104.5 C 350.461,103.244 350.961,102.244 352,101.5C 353.214,103.049 354.714,104.215 356.5,105C 363.747,105.812 370.914,105.646 378,104.5C 378.833,105.333 379.667,106.167 380.5,107C 372.944,109.156 365.277,109.49 357.5,108C 355.423,106.295 353.09,105.128 350.5,104.5 Z"/></g>
<g><path style="opacity:1" fill="#e7b609" d="M 341.5,102.5 C 343.167,102.5 344.833,102.5 346.5,102.5C 345.979,113.951 346.646,125.285 348.5,136.5C 349.873,136.343 351.207,136.51 352.5,137C 350.941,138.756 349.274,138.756 347.5,137C 346.12,135.075 344.62,133.241 343,131.5C 341.641,121.891 341.141,112.224 341.5,102.5 Z"/></g>
<g><path style="opacity:1" fill="#b87a56" d="M 350.5,104.5 C 351.995,107.512 351.162,109.845 348,111.5C 347.182,108.773 347.348,106.106 348.5,103.5C 349.183,103.863 349.85,104.196 350.5,104.5 Z"/></g>
<g><path style="opacity:1" fill="#656565" d="M 313.5,157.5 C 314.492,154.221 314.659,150.888 314,147.5C 312.322,149.666 310.155,150.999 307.5,151.5C 315.746,142.866 318.58,132.533 316,120.5C 315.218,117.924 313.718,115.924 311.5,114.5C 310.754,113.264 310.421,111.93 310.5,110.5C 312.39,110.703 313.89,110.037 315,108.5C 317.913,113.934 319.413,119.767 319.5,126C 318.693,135.705 317.859,145.538 317,155.5C 315.887,156.305 314.721,156.972 313.5,157.5 Z"/></g>
<g><path style="opacity:1" fill="#f4c00c" d="M 318.5,108.5 C 320.604,108.201 322.604,108.534 324.5,109.5C 328.669,121.847 330.169,134.514 329,147.5C 327.453,150.544 324.953,152.544 321.5,153.5C 321.344,142.201 321.178,130.867 321,119.5C 320.593,115.715 319.759,112.048 318.5,108.5 Z"/></g>
<g><path style="opacity:1" fill="#e8e9e8" d="M 346.5,138.5 C 344.097,138.552 341.764,138.219 339.5,137.5C 337.833,135.167 335.833,133.167 333.5,131.5C 330.835,126.349 329.168,120.849 328.5,115C 328.695,112.106 330.028,109.939 332.5,108.5C 332.833,108.833 333.167,109.167 333.5,109.5C 331.018,114.415 330.852,119.415 333,124.5C 337.031,129.696 341.531,134.363 346.5,138.5 Z"/></g>
<g><path style="opacity:1" fill="#f5a583" d="M 368.5,126.5 C 368.631,125.761 368.464,125.094 368,124.5C 366.237,124.306 364.403,124.306 362.5,124.5C 362.002,123.397 361.669,122.397 361.5,121.5C 360.611,123.007 359.611,124.34 358.5,125.5C 354.798,125.226 352.465,126.892 351.5,130.5C 350.249,131.472 350.582,132.139 352.5,132.5C 364.56,130.371 365.227,131.704 354.5,136.5C 352.929,135.691 351.262,135.357 349.5,135.5C 347.591,128.292 347.091,120.959 348,113.5C 349.708,111.457 351.708,109.79 354,108.5C 355.887,110.886 358.387,112.053 361.5,112C 358.949,113.516 359.282,114.349 362.5,114.5C 362.5,113.5 362.5,112.5 362.5,111.5C 363.5,111.5 364.5,111.5 365.5,111.5C 365.351,112.552 365.517,113.552 366,114.5C 367.273,110.898 369.773,109.732 373.5,111C 372.692,111.308 372.025,111.808 371.5,112.5C 372.606,116.777 372.772,121.11 372,125.5C 370.989,126.337 369.822,126.67 368.5,126.5 Z"/></g>
<g><path style="opacity:1" fill="#c8141c" d="M 293.5,108.5 C 296.599,110.145 299.932,111.312 303.5,112C 309.751,119.756 308.085,122.089 298.5,119C 296.759,117.38 294.925,115.88 293,114.5C 292.82,112.512 292.986,110.512 293.5,108.5 Z"/></g>
<g><path style="opacity:1" fill="#e4e4e4" d="M 300.5,152.5 C 300.833,151.5 301.5,150.833 302.5,150.5C 305.458,145.393 306.124,139.893 304.5,134C 306.531,129.71 307.864,125.21 308.5,120.5C 307.601,117.412 306.767,114.412 306,111.5C 312.589,117.808 313.255,124.808 308,132.5C 307.693,137.882 307.026,143.215 306,148.5C 304.954,150.09 303.787,151.59 302.5,153C 301.563,153.692 300.897,153.525 300.5,152.5 Z"/></g>
<g><path style="opacity:1" fill="#de1820" d="M 288.5,114.5 C 290.934,116.749 293.601,118.916 296.5,121C 299.5,121.833 302.5,122.667 305.5,123.5C 303.961,126.746 302.294,129.912 300.5,133C 297.326,133.506 294.493,132.672 292,130.5C 291.667,130.833 291.333,131.167 291,131.5C 289.113,128.617 286.613,126.284 283.5,124.5C 282.682,122.892 282.015,121.225 281.5,119.5C 284.077,118.057 286.41,116.39 288.5,114.5 Z"/></g>
<g><path style="opacity:1" fill="#e86a35" d="M 338.5,116.5 C 339.117,116.611 339.617,116.944 340,117.5C 340.667,120.833 340.667,124.167 340,127.5C 335.402,124.019 334.902,120.353 338.5,116.5 Z"/></g>
<g><path style="opacity:1" fill="#ec1c23" d="M 312.5,120.5 C 316.04,129.885 314.54,138.552 308,146.5C 307.609,139.835 308.943,133.502 312,127.5C 312.497,125.19 312.663,122.857 312.5,120.5 Z"/></g>
<g><path style="opacity:1" fill="#000000" d="M 368.5,126.5 C 365.193,125.949 361.86,125.616 358.5,125.5C 359.611,124.34 360.611,123.007 361.5,121.5C 361.669,122.397 362.002,123.397 362.5,124.5C 364.403,124.306 366.237,124.306 368,124.5C 368.464,125.094 368.631,125.761 368.5,126.5 Z"/></g>
<g><path style="opacity:1" fill="#3b44c4" d="M 268.5,151.5 C 267.609,149.391 266.442,147.391 265,145.5C 264.412,148.139 264.912,150.473 266.5,152.5C 266.586,153.496 266.252,154.329 265.5,155C 263.153,155.436 260.819,155.936 258.5,156.5C 256.971,156.471 255.804,155.804 255,154.5C 254.626,155.416 254.126,156.25 253.5,157C 249.839,157.829 246.505,159.329 243.5,161.5C 242.28,157.54 242.613,153.707 244.5,150C 243.497,146.24 244.664,143.074 248,140.5C 249.666,141.34 249.833,140.84 248.5,139C 258.469,133.765 268.636,128.932 279,124.5C 285.228,129.567 292.061,133.567 299.5,136.5C 302.302,134.659 303.635,135.492 303.5,139C 303.135,144.192 300.469,147.359 295.5,148.5C 295.649,147.448 295.483,146.448 295,145.5C 293.372,146.01 291.539,146.01 289.5,145.5C 282.849,146.993 276.515,149.327 270.5,152.5C 269.817,152.137 269.15,151.804 268.5,151.5 Z"/></g>
<g><path style="opacity:1" fill="#a16a4c" d="M 358.5,125.5 C 361.86,125.616 365.193,125.949 368.5,126.5C 368.611,127.117 368.944,127.617 369.5,128C 368.107,129.363 366.441,130.196 364.5,130.5C 360.114,129.271 355.78,129.271 351.5,130.5C 352.465,126.892 354.798,125.226 358.5,125.5 Z"/></g>
<g><path style="opacity:1" fill="#bf161b" d="M 389.5,127.5 C 391.482,127.995 393.482,128.495 395.5,129C 396.3,132.106 397.967,134.606 400.5,136.5C 399.495,143.204 395.829,145.871 389.5,144.5C 388.723,139.844 388.057,135.177 387.5,130.5C 387.942,129.261 388.609,128.261 389.5,127.5 Z"/></g>
<g><path style="opacity:1" fill="#e8e9e8" d="M 380.5,154.5 C 381.906,154.027 382.573,153.027 382.5,151.5C 383.222,151.082 383.722,150.416 384,149.5C 384.535,143.115 384.535,136.781 384,130.5C 387.192,138.414 387.192,146.414 384,154.5C 381.139,158.326 379.973,158.326 380.5,154.5 Z"/></g>
<g><path style="opacity:1" fill="#5a5a5a" d="M 333.5,131.5 C 335.833,133.167 337.833,135.167 339.5,137.5C 337.629,137.141 336.129,136.141 335,134.5C 334.643,138.51 334.81,142.51 335.5,146.5C 334.279,147.028 333.113,147.695 332,148.5C 331.833,145.667 331.667,142.833 331.5,140C 331.519,136.748 332.186,133.915 333.5,131.5 Z"/></g>
<g><path style="opacity:1" fill="#ec1c23" d="M 382.5,151.5 C 381.094,151.973 380.427,152.973 380.5,154.5C 377.696,155.449 375.363,154.616 373.5,152C 376.939,146.345 378.773,140.179 379,133.5C 381.374,130.712 382.707,131.046 383,134.5C 383.687,140.204 383.521,145.87 382.5,151.5 Z"/></g>
<g><path style="opacity:1" fill="#c1c1c1" d="M 339.5,137.5 C 340.152,138.725 341.319,139.392 343,139.5C 344.385,139.486 345.551,139.152 346.5,138.5C 347.773,139.077 347.773,139.743 346.5,140.5C 342.646,142.258 338.979,144.258 335.5,146.5C 334.81,142.51 334.643,138.51 335,134.5C 336.129,136.141 337.629,137.141 339.5,137.5 Z"/></g>
<g><path style="opacity:1" fill="#e7b609" d="M 374.5,135.5 C 375.586,135.62 376.253,136.287 376.5,137.5C 375.537,142.229 373.703,146.563 371,150.5C 363.306,157.029 356.139,164.029 349.5,171.5C 348.417,170.635 348.251,169.635 349,168.5C 352.451,165.044 355.118,161.044 357,156.5C 358.378,154.787 360.045,153.453 362,152.5C 363.476,148.596 364.643,144.596 365.5,140.5C 368.724,139.059 371.724,137.392 374.5,135.5 Z"/></g>
<g><path style="opacity:1" fill="#3d45c5" d="M 402.5,136.5 C 409.753,136.863 416.753,138.363 423.5,141C 431.793,146.923 432.626,153.756 426,161.5C 423.186,159.015 420.686,156.181 418.5,153C 415.905,152.774 413.405,152.274 411,151.5C 409.703,152.784 408.536,152.617 407.5,151C 407.833,150.667 408.167,150.333 408.5,150C 402.19,145.912 396.856,146.912 392.5,153C 390.866,153.494 389.199,153.66 387.5,153.5C 387.261,151.533 387.594,149.699 388.5,148C 397.591,149.401 402.258,145.568 402.5,136.5 Z"/></g>
<g><path style="opacity:1" fill="#181818" d="M 339.5,137.5 C 341.764,138.219 344.097,138.552 346.5,138.5C 345.551,139.152 344.385,139.486 343,139.5C 341.319,139.392 340.152,138.725 339.5,137.5 Z"/></g>
<g><path style="opacity:1" fill="#707070" d="M 300.5,175.5 C 308.51,182.449 317.843,185.949 328.5,186C 332.479,182.344 336.812,179.178 341.5,176.5C 342.147,173.546 342.314,170.546 342,167.5C 346.109,159.595 350.942,152.262 356.5,145.5C 358.386,144.639 360.22,143.639 362,142.5C 362.122,144.169 361.788,145.835 361,147.5C 355.853,153.779 351.187,160.446 347,167.5C 345.798,169.677 345.298,172.011 345.5,174.5C 346.5,174.5 347.5,174.5 348.5,174.5C 348.677,176.981 347.677,178.814 345.5,180C 340.154,182.003 335.487,185.003 331.5,189C 329.232,190.552 326.732,191.385 324,191.5C 313.508,189.672 304.674,184.838 297.5,177C 298.527,176.487 299.527,175.987 300.5,175.5 Z"/></g>
<g><path style="opacity:1" fill="#a9aaa9" d="M 356.5,145.5 C 350.942,152.262 346.109,159.595 342,167.5C 342.314,170.546 342.147,173.546 341.5,176.5C 336.812,179.178 332.479,182.344 328.5,186C 317.843,185.949 308.51,182.449 300.5,175.5C 304.272,173.066 308.272,171.066 312.5,169.5C 313.483,177.685 317.816,180.852 325.5,179C 327.667,176.167 329.833,173.333 332,170.5C 332.501,166.49 333.001,162.49 333.5,158.5C 340.969,153.929 348.636,149.596 356.5,145.5 Z"/></g>
<g><path style="opacity:1" fill="#23215d" d="M 268.5,151.5 C 268.591,153.698 267.925,154.031 266.5,152.5C 264.912,150.473 264.412,148.139 265,145.5C 266.442,147.391 267.609,149.391 268.5,151.5 Z"/></g>
<g><path style="opacity:1" fill="#a3a3a3" d="M 313.5,157.5 C 304.982,162.012 296.482,166.678 288,171.5C 285.862,168.854 286.195,166.521 289,164.5C 289.422,161.764 289.422,159.098 289,156.5C 290.692,154.178 292.526,153.678 294.5,155C 297.5,155.667 300.5,155.667 303.5,155C 305.35,154.31 306.684,153.144 307.5,151.5C 310.155,150.999 312.322,149.666 314,147.5C 314.659,150.888 314.492,154.221 313.5,157.5 Z"/></g>
<g><path style="opacity:1" fill="#ec1c23" d="M 302.5,150.5 C 301.5,150.833 300.833,151.5 300.5,152.5C 298.365,153.966 296.365,153.8 294.5,152C 297.122,151.077 299.622,149.911 302,148.5C 302.464,149.094 302.631,149.761 302.5,150.5 Z"/></g>
<g><path style="opacity:1" fill="#2d2d2d" d="M 451.5,185.5 C 450.21,186.058 449.377,187.058 449,188.5C 448.824,191.882 448.324,195.215 447.5,198.5C 446.408,196.404 444.741,195.071 442.5,194.5C 439.893,195.137 437.56,196.304 435.5,198C 425.284,198.698 415.284,197.532 405.5,194.5C 401.37,196.735 397.37,199.235 393.5,202C 391.536,203.451 390.203,205.284 389.5,207.5C 383.161,201.494 376.827,195.494 370.5,189.5C 373.375,188.919 376.042,187.919 378.5,186.5C 380.316,187.815 381.983,189.315 383.5,191C 384.944,191.781 386.277,191.614 387.5,190.5C 388.786,185.929 390.619,181.595 393,177.5C 393.39,174.161 393.224,170.827 392.5,167.5C 393.434,163.194 394.267,158.861 395,154.5C 398.852,149.48 402.685,149.313 406.5,154C 403.65,163.388 400.316,172.555 396.5,181.5C 403.321,178.382 409.154,179.716 414,185.5C 420.979,184.534 427.645,185.534 434,188.5C 435.107,188.415 436.107,188.081 437,187.5C 437.256,183.41 439.422,181.077 443.5,180.5C 445.711,181.685 448.045,182.685 450.5,183.5C 451.298,183.957 451.631,184.624 451.5,185.5 Z"/></g>
<g><path style="opacity:1" fill="#000000" d="M 382.5,151.5 C 382.573,153.027 381.906,154.027 380.5,154.5C 380.427,152.973 381.094,151.973 382.5,151.5 Z"/></g>
<g><path style="opacity:1" fill="#fefffe" d="M 280.5,154.5 C 281.5,154.5 282.5,154.5 283.5,154.5C 283.663,156.857 283.497,159.19 283,161.5C 280.667,163.5 278.333,165.5 276,167.5C 274.533,164.734 272.7,162.234 270.5,160C 274.088,158.378 277.421,156.545 280.5,154.5 Z"/></g>
<g><path style="opacity:1" fill="#e8e8e8" d="M 408.5,154.5 C 411.187,154.336 413.854,154.503 416.5,155C 418.947,157.903 421.614,160.57 424.5,163C 423.757,168.419 420.757,172.086 415.5,174C 414.111,175.957 412.611,177.79 411,179.5C 407.924,178.236 404.757,177.236 401.5,176.5C 402.765,173.204 403.932,169.871 405,166.5C 405.75,165.874 406.584,165.374 407.5,165C 406.941,164.275 406.608,163.442 406.5,162.5C 407.171,159.815 407.838,157.148 408.5,154.5 Z"/></g>
<g><path style="opacity:1" fill="#e8e9e8" d="M 256.5,157.5 C 258.844,158.672 261.177,158.672 263.5,157.5C 264.03,162.393 266.03,166.56 269.5,170C 259.979,171.424 252.312,175.924 246.5,183.5C 243.392,178.888 239.725,174.722 235.5,171C 238.311,169.356 240.644,167.19 242.5,164.5C 247.306,162.141 251.972,159.807 256.5,157.5 Z"/></g>
<g><path style="opacity:1" fill="#fefffe" d="M 369.5,157.5 C 375.118,161.862 381.118,162.528 387.5,159.5C 388.495,165.128 388.829,170.794 388.5,176.5C 387.5,176.5 386.5,176.5 385.5,176.5C 385.496,178.842 384.663,180.842 383,182.5C 381.701,181.02 380.034,180.354 378,180.5C 374.362,181.882 370.528,182.716 366.5,183C 365.54,184.419 364.707,185.919 364,187.5C 360.111,184.046 356.944,180.046 354.5,175.5C 358.77,168.897 363.77,162.897 369.5,157.5 Z M 369.5,163.5 C 365.813,167.189 362.48,171.189 359.5,175.5C 360.667,177.167 361.833,178.833 363,180.5C 368.846,178.255 375.013,177.089 381.5,177C 382.337,175.989 382.67,174.822 382.5,173.5C 383.5,173.5 384.5,173.5 385.5,173.5C 385.5,170.5 385.5,167.5 385.5,164.5C 380.12,164.676 374.787,164.342 369.5,163.5 Z"/></g>
<g><path style="opacity:1" fill="#666666" d="M 333.5,158.5 C 333.001,162.49 332.501,166.49 332,170.5C 329.833,173.333 327.667,176.167 325.5,179C 317.816,180.852 313.483,177.685 312.5,169.5C 313.261,168.609 314.261,167.942 315.5,167.5C 316.674,173.268 320.008,174.934 325.5,172.5C 327.749,168.424 329.416,164.091 330.5,159.5C 331.417,158.873 332.417,158.539 333.5,158.5 Z"/></g>
<g><path style="opacity:1" fill="#f6c10c" d="M 325.5,161.5 C 326.097,161.735 326.43,162.235 326.5,163C 325.283,165.368 324.449,167.868 324,170.5C 322.951,171.517 321.784,171.684 320.5,171C 319.74,169.559 319.074,168.059 318.5,166.5C 320.724,164.566 323.058,162.899 325.5,161.5 Z"/></g>
<g><path style="opacity:1" fill="#000000" d="M 408.5,166.5 C 410.982,167.804 412.149,169.804 412,172.5C 410.558,170.609 409.391,168.609 408.5,166.5 Z"/></g>
<g><path style="opacity:1" fill="#ec1c23" d="M 283.5,169.5 C 284.995,169.415 285.995,170.081 286.5,171.5C 277.884,177.379 276.884,176.713 283.5,169.5 Z"/></g>
<g><path style="opacity:1" fill="#eebb0b" d="M 269.5,172.5 C 270.639,176.301 271.472,180.301 272,184.5C 273.42,186.444 274.92,188.277 276.5,190C 271.545,198.453 264.545,204.62 255.5,208.5C 253.885,207.846 252.218,207.346 250.5,207C 247.721,203.903 245.388,200.569 243.5,197C 247.204,183.46 255.871,175.293 269.5,172.5 Z"/></g>
<g><path style="opacity:1" fill="#c0121a" d="M 293.5,178.5 C 297.272,181.094 300.939,183.927 304.5,187C 309.58,188.804 314.58,190.804 319.5,193C 322.833,193.667 326.167,193.667 329.5,193C 334.162,189.334 339.162,186.167 344.5,183.5C 344.597,185.834 343.597,188 341.5,190C 327.639,201.503 313.973,201.17 300.5,189C 296.652,186.353 294.319,182.853 293.5,178.5 Z"/></g>
<g><path style="opacity:1" fill="#e8e8e8" d="M 288.5,181.5 C 291.891,184.385 295.224,187.552 298.5,191C 302.167,193.333 305.833,195.667 309.5,198C 314.35,199.732 319.35,200.732 324.5,201C 321.299,203.964 317.465,205.13 313,204.5C 310.5,204.333 308,204.167 305.5,204C 300.517,201.752 295.351,200.252 290,199.5C 289.833,199.833 289.667,200.167 289.5,200.5C 293.817,201.014 297.817,202.347 301.5,204.5C 307.48,205.199 313.48,205.699 319.5,206C 316.146,212.692 311.98,218.859 307,224.5C 304.167,231.827 301.334,239.161 298.5,246.5C 295.868,247.148 293.535,246.315 291.5,244C 286.467,243.171 281.467,243.338 276.5,244.5C 280.796,245.328 285.129,245.828 289.5,246C 294.645,247.641 297.311,251.141 297.5,256.5C 296.652,257.991 295.319,258.658 293.5,258.5C 289.183,257.868 284.85,257.368 280.5,257C 278.112,256.697 275.945,255.863 274,254.5C 273.633,247.989 273.133,241.489 272.5,235C 274.305,225.089 276.472,215.256 279,205.5C 279.85,201.464 279.35,197.631 277.5,194C 278.12,191.527 278.786,189.027 279.5,186.5C 282.724,185.059 285.724,183.392 288.5,181.5 Z"/></g>
<g><path style="opacity:1" fill="#e8e9e8" d="M 350.5,182.5 C 353.268,185.771 356.268,188.938 359.5,192C 353.833,192.667 348.167,192.667 342.5,192C 345.754,189.253 348.42,186.086 350.5,182.5 Z"/></g>
<g><path style="opacity:1" fill="#b87a56" d="M 451.5,185.5 C 452.423,184.697 453.423,184.53 454.5,185C 456.167,188 458.5,190.333 461.5,192C 460.689,194.291 461.523,196.125 464,197.5C 464.96,199.98 465.793,202.48 466.5,205C 462.4,207.467 458.566,210.301 455,213.5C 454.138,215.087 453.471,216.754 453,218.5C 451.43,215.367 451.097,212.033 452,208.5C 452.811,209.96 453.645,210.293 454.5,209.5C 449.412,202.045 448.412,194.045 451.5,185.5 Z"/></g>
<g><path style="opacity:1" fill="#c7151a" d="M 235.5,195.5 C 231.922,195.451 228.589,194.785 225.5,193.5C 223.49,191.977 223.156,190.144 224.5,188C 231.167,187.333 237.833,187.333 244.5,188C 242.562,190.47 241.396,193.304 241,196.5C 239.301,195.594 237.467,195.261 235.5,195.5 Z"/></g>
<g><path style="opacity:1" fill="#2e2e2e" d="M 170.5,188.5 C 178.677,191.168 187.01,193.335 195.5,195C 201.347,197.754 206.68,201.254 211.5,205.5C 212.819,208.442 213.985,211.442 215,214.5C 216.205,215.071 217.372,215.738 218.5,216.5C 214.207,218.31 209.874,220.143 205.5,222C 202.689,223.644 200.356,225.81 198.5,228.5C 194.846,229.379 191.179,230.213 187.5,231C 181.937,234.448 175.937,236.781 169.5,238C 168.213,239.41 167.046,240.91 166,242.5C 165.626,241.584 165.126,240.75 164.5,240C 160.033,240.39 156.699,238.724 154.5,235C 150.569,234.933 147.236,233.6 144.5,231C 142.5,230.333 140.5,230.333 138.5,231C 137.315,232.353 135.981,233.52 134.5,234.5C 133.572,230.702 135.072,228.035 139,226.5C 139.494,224.866 139.66,223.199 139.5,221.5C 131.525,223.503 127.191,220.503 126.5,212.5C 123.14,211.79 121.307,213.124 121,216.5C 120.284,213.582 120.784,210.915 122.5,208.5C 121.793,205.636 120.459,203.136 118.5,201C 118.759,199.739 119.426,198.739 120.5,198C 127.63,199.86 134.963,200.527 142.5,200C 147.938,198.641 153.272,196.974 158.5,195C 162.157,192.008 166.157,189.841 170.5,188.5 Z"/></g>
<g><path style="opacity:1" fill="#b87a56" d="M 475.5,189.5 C 483.839,191.996 485.839,197.163 481.5,205C 477.24,205.701 474.24,204.035 472.5,200C 473.416,199.626 474.25,199.126 475,198.5C 475.498,195.518 475.665,192.518 475.5,189.5 Z"/></g>
<g><path style="opacity:1" fill="#000000" d="M 459.5,199.5 C 462.456,202.647 461.956,205.313 458,207.5C 456.018,207.01 454.351,206.01 453,204.5C 452.358,200.509 451.858,196.509 451.5,192.5C 455.82,192.987 458.487,195.32 459.5,199.5 Z"/></g>
<g><path style="opacity:1" fill="#fefffe" d="M 225.5,193.5 C 228.589,194.785 231.922,195.451 235.5,195.5C 233.052,196.473 230.385,196.806 227.5,196.5C 226.282,195.839 224.949,195.172 223.5,194.5C 223.957,193.702 224.624,193.369 225.5,193.5 Z"/></g>
<g><path style="opacity:1" fill="#000000" d="M 281.5,194.5 C 281.56,193.957 281.893,193.624 282.5,193.5C 290.285,199.444 289.952,199.778 281.5,194.5 Z"/></g>
<g><path style="opacity:1" fill="#a36643" d="M 459.5,199.5 C 459.421,200.93 459.754,202.264 460.5,203.5C 458.663,206.977 456.496,206.977 454,203.5C 453.374,200.137 453.041,196.804 453,193.5C 455.69,195.027 457.857,197.027 459.5,199.5 Z"/></g>
<g><path style="opacity:1" fill="#686862" d="M 340.5,194.5 C 349.173,194.334 357.84,194.5 366.5,195C 368.461,197.963 370.794,200.629 373.5,203C 370.869,204.327 368.202,205.66 365.5,207C 362.561,210.669 359.894,214.502 357.5,218.5C 354.347,215.757 350.68,214.423 346.5,214.5C 331.849,213.768 319.349,218.435 309,228.5C 309.647,224.808 311.647,221.808 315,219.5C 320.106,207.56 328.606,199.226 340.5,194.5 Z"/></g>
<g><path style="opacity:1" fill="#b87a56" d="M 405.5,195.5 C 415.538,198.879 425.871,200.046 436.5,199C 438.37,197.634 440.37,196.467 442.5,195.5C 443.646,196.145 444.646,196.978 445.5,198C 436.547,206.159 431.38,216.326 430,228.5C 421.792,217.364 413.625,206.364 405.5,195.5 Z"/></g>
<g><path style="opacity:1" fill="#3f47cc" d="M 227.5,196.5 C 231.995,197.422 236.662,198.089 241.5,198.5C 241.33,199.822 241.663,200.989 242.5,202C 235.34,201.918 228.34,200.751 221.5,198.5C 223.023,196.717 225.023,196.051 227.5,196.5 Z"/></g>
<g><path style="opacity:1" fill="#2d35a6" d="M 275.5,196.5 C 276.533,197.912 277.199,199.578 277.5,201.5C 275.328,207.357 273.662,213.357 272.5,219.5C 268.616,220.441 264.949,221.941 261.5,224C 257.848,224.499 254.182,224.665 250.5,224.5C 249.836,219.527 249.503,214.527 249.5,209.5C 252.469,210.329 255.469,210.495 258.5,210C 265.408,206.902 271.075,202.402 275.5,196.5 Z"/></g>
<g><path style="opacity:1" fill="#fefffe" d="M 242.5,205.5 C 235.426,204.765 228.426,203.599 221.5,202C 228.767,202.1 235.767,203.267 242.5,205.5 Z"/></g>
<g><path style="opacity:1" fill="#b87a56" d="M 389.5,207.5 C 391.837,205.334 394.337,203.334 397,201.5C 401.195,204.499 405.028,207.833 408.5,211.5C 413.309,218.143 418.309,224.643 423.5,231C 411.037,224.924 399.703,217.091 389.5,207.5 Z"/></g>
<g><path style="opacity:1" fill="#010101" d="M 170.5,203.5 C 172.75,203.181 174.75,203.681 176.5,205C 168.627,209.873 162.461,216.373 158,224.5C 156.795,223.929 155.628,223.262 154.5,222.5C 157.407,214.554 162.741,208.22 170.5,203.5 Z"/></g>
<g><path style="opacity:1" fill="#3f47cc" d="M 233.5,218.5 C 236.68,214.24 235.68,211.24 230.5,209.5C 235.411,207.327 234.745,206.327 228.5,206.5C 227.685,210.833 229.352,213.166 233.5,213.5C 233.5,214.5 233.5,215.5 233.5,216.5C 232.07,216.579 230.736,216.246 229.5,215.5C 228.702,215.957 228.369,216.624 228.5,217.5C 226.219,216.793 224.052,215.793 222,214.5C 221.502,211.183 221.335,207.85 221.5,204.5C 228.255,204.755 234.755,206.089 241,208.5C 241.975,211.76 243.142,214.927 244.5,218C 240.848,218.499 237.182,218.665 233.5,218.5 Z"/></g>
<g><path style="opacity:1" fill="#303130" d="M 374.5,204.5 C 377.582,206.075 380.249,208.242 382.5,211C 378.317,213.257 373.984,215.257 369.5,217C 367.19,217.497 364.857,217.663 362.5,217.5C 362.491,215.692 362.991,214.025 364,212.5C 367.299,209.449 370.799,206.782 374.5,204.5 Z"/></g>
<g><path style="opacity:1" fill="#fefffe" d="M 242.5,205.5 C 243.5,205.5 244.5,205.5 245.5,205.5C 246.5,211.5 247.5,217.5 248.5,223.5C 243.489,223.666 238.489,223.499 233.5,223C 229.394,220.952 225.061,219.452 220.5,218.5C 219.167,217.833 219.167,217.167 220.5,216.5C 228.413,220.104 236.747,221.437 245.5,220.5C 245.538,215.284 244.538,210.284 242.5,205.5 Z"/></g>
<g><path style="opacity:1" fill="#fef200" d="M 233.5,218.5 C 231.784,218.371 230.117,218.038 228.5,217.5C 228.369,216.624 228.702,215.957 229.5,215.5C 230.736,216.246 232.07,216.579 233.5,216.5C 233.5,215.5 233.5,214.5 233.5,213.5C 229.352,213.166 227.685,210.833 228.5,206.5C 234.745,206.327 235.411,207.327 230.5,209.5C 235.68,211.24 236.68,214.24 233.5,218.5 Z"/></g>
<g><path style="opacity:1" fill="#b77856" d="M 488.5,257.5 C 481.422,251.599 474.422,245.433 467.5,239C 465.473,237.121 463.14,235.954 460.5,235.5C 460.657,234.127 460.49,232.793 460,231.5C 456.464,228.695 455.797,225.361 458,221.5C 462.445,216.038 467.945,212.204 474.5,210C 482.317,208.001 487.317,210.834 489.5,218.5C 492.934,219.697 496.1,221.364 499,223.5C 500.153,226.711 500.82,230.044 501,233.5C 503.698,237.367 506.198,241.367 508.5,245.5C 503.982,250.851 498.982,255.685 493.5,260C 491.565,259.942 489.898,259.109 488.5,257.5 Z"/></g>
<g><path style="opacity:1" fill="#b87a56" d="M 443.5,211.5 C 444.321,214.641 444.821,217.975 445,221.5C 447.328,224.794 447.661,228.461 446,232.5C 443.323,234.845 440.99,237.512 439,240.5C 438.044,239.421 437.211,238.255 436.5,237C 436.454,227.954 438.787,219.454 443.5,211.5 Z"/></g>
<g><path style="opacity:1" fill="#b67855" d="M 363.5,259.5 C 361.697,257.519 360.03,255.352 358.5,253C 360.527,251.121 362.86,249.954 365.5,249.5C 365.5,248.5 365.5,247.5 365.5,246.5C 357.671,245.29 357.671,243.624 365.5,241.5C 364.318,239.239 362.651,237.405 360.5,236C 362.351,234.316 364.018,232.483 365.5,230.5C 364.076,228.282 362.076,226.782 359.5,226C 361.229,224.211 361.896,222.044 361.5,219.5C 369.982,220.284 377.482,217.95 384,212.5C 397.844,224.674 413.344,234.174 430.5,241C 436.546,248.924 442.713,256.757 449,264.5C 449.667,265.167 449.667,265.833 449,266.5C 447.229,265.696 445.729,264.529 444.5,263C 442.888,262.28 441.388,262.446 440,263.5C 437.997,261.078 435.497,260.245 432.5,261C 428.405,264.704 424.905,268.871 422,273.5C 423.967,279.934 422.467,285.434 417.5,290C 415.527,290.495 413.527,290.662 411.5,290.5C 413.416,300.594 410.75,309.427 403.5,317C 402.127,317.875 400.627,318.375 399,318.5C 383.921,316.193 369.755,311.359 356.5,304C 350.091,298.713 343.591,293.546 337,288.5C 334.751,285.018 334.251,281.351 335.5,277.5C 338.084,278.393 340.751,278.726 343.5,278.5C 343.335,275.15 343.502,271.817 344,268.5C 346.228,270.113 348.728,270.78 351.5,270.5C 351.794,266.9 352.46,263.4 353.5,260C 356.551,260.29 359.551,261.123 362.5,262.5C 363.386,261.675 363.719,260.675 363.5,259.5 Z"/></g>
<g><path style="opacity:1" fill="#ad7251" d="M 226.5,224.5 C 222.268,227.222 218.435,230.555 215,234.5C 211.608,242.951 207.941,251.284 204,259.5C 202.275,266.758 200.109,273.758 197.5,280.5C 196.559,283.125 195.393,283.125 194,280.5C 192.729,275.246 192.229,269.913 192.5,264.5C 191.178,264.33 190.011,264.663 189,265.5C 185.965,276.749 183.298,288.082 181,299.5C 180.577,300.956 179.744,301.456 178.5,301C 177.418,299.67 176.751,298.17 176.5,296.5C 178.463,294.601 179.963,292.267 181,289.5C 181.72,278.023 183.386,266.689 186,255.5C 190.2,246.951 194.867,238.618 200,230.5C 206.132,223.474 212.966,220.307 220.5,221C 223.152,221.353 225.152,222.52 226.5,224.5 Z"/></g>
<g><path style="opacity:1" fill="#686862" d="M 335.5,221.5 C 340.511,221.334 345.511,221.501 350.5,222C 355.851,224.851 357.851,229.351 356.5,235.5C 356.698,240.676 355.864,245.676 354,250.5C 344.463,260.368 335.297,270.535 326.5,281C 318.62,284.773 311.62,289.773 305.5,296C 301.454,298.174 297.121,299.007 292.5,298.5C 293.053,293.382 290.719,290.716 285.5,290.5C 293.043,279.415 299.543,267.748 305,255.5C 306.379,248.906 308.379,242.573 311,236.5C 317.824,229.15 325.99,224.15 335.5,221.5 Z"/></g>
<g><path style="opacity:1" fill="#686862" d="M 269.5,222.5 C 270.675,222.281 271.675,222.614 272.5,223.5C 271.099,227.194 270.433,231.027 270.5,235C 271.234,240.496 271.4,245.996 271,251.5C 270.333,252.167 269.667,252.833 269,253.5C 268.815,261.589 266.482,268.922 262,275.5C 259,273.167 256,270.833 253,268.5C 248.647,257.439 248.647,246.439 253,235.5C 254.011,234.663 255.178,234.33 256.5,234.5C 256.178,232.278 256.845,230.444 258.5,229C 262.23,226.807 265.897,224.64 269.5,222.5 Z"/></g>
<g><path style="opacity:1" fill="#ababab" d="M 231.5,225.5 C 225.742,230.758 220.908,236.758 217,243.5C 212.633,255.731 208.133,267.898 203.5,280C 214.535,286.514 225.535,293.014 236.5,299.5C 238.564,301.66 238.898,303.993 237.5,306.5C 224.728,298.608 211.728,290.941 198.5,283.5C 197.614,282.675 197.281,281.675 197.5,280.5C 200.109,273.758 202.275,266.758 204,259.5C 207.941,251.284 211.608,242.951 215,234.5C 218.435,230.555 222.268,227.222 226.5,224.5C 228.259,223.739 229.926,224.072 231.5,225.5 Z"/></g>
<g><path style="opacity:1" fill="#c2c3c2" d="M 450.5,224.5 C 451.239,224.369 451.906,224.536 452.5,225C 451,227.167 449.5,229.333 448,231.5C 447.333,230.167 447.333,228.833 448,227.5C 449.045,226.627 449.878,225.627 450.5,224.5 Z"/></g>
<g><path style="opacity:1" fill="#3e47cb" d="M 231.5,225.5 C 239.875,225.316 248.208,225.816 256.5,227C 255.257,228.154 254.257,229.488 253.5,231C 251.866,231.494 250.199,231.66 248.5,231.5C 249.014,233.512 249.18,235.512 249,237.5C 246.357,238.976 244.19,240.976 242.5,243.5C 243.605,244.892 244.939,246.059 246.5,247C 244.218,249.397 242.884,252.231 242.5,255.5C 243.833,255.5 245.167,255.5 246.5,255.5C 245.219,260.062 243.386,264.396 241,268.5C 240.594,272.272 239.761,275.939 238.5,279.5C 239.167,280.5 239.833,281.5 240.5,282.5C 239.721,287.113 239.221,291.78 239,296.5C 238.764,298.119 237.931,299.119 236.5,299.5C 225.535,293.014 214.535,286.514 203.5,280C 208.133,267.898 212.633,255.731 217,243.5C 220.908,236.758 225.742,230.758 231.5,225.5 Z"/></g>
<g><path style="opacity:1" fill="#000000" d="M 473.5,226.5 C 479.221,225.025 482.388,227.025 483,232.5C 479.405,234.456 475.572,234.956 471.5,234C 465.534,229.353 466.2,226.853 473.5,226.5 Z"/></g>
<g><path style="opacity:1" fill="#ec1c23" d="M 358.5,228.5 C 361.401,229.178 361.901,230.512 360,232.5C 359.209,231.255 358.709,229.922 358.5,228.5 Z"/></g>
<g><path style="opacity:1" fill="#fefffe" d="M 479.5,230.5 C 481.337,230.639 481.67,231.306 480.5,232.5C 479.702,232.043 479.369,231.376 479.5,230.5 Z"/></g>
<g><path style="opacity:1" fill="#c2c3c2" d="M 456.5,231.5 C 460.34,232.568 460.507,234.235 457,236.5C 455.212,234.977 455.045,233.31 456.5,231.5 Z"/></g>
<g><path style="opacity:1" fill="#b87a56" d="M 453.5,234.5 C 453.938,236.638 454.105,238.972 454,241.5C 455.067,242.191 456.234,242.691 457.5,243C 456.549,243.718 456.383,244.551 457,245.5C 464.01,251.678 470.843,258.011 477.5,264.5C 475.813,265.568 474.146,265.401 472.5,264C 463.5,257.167 454.5,250.333 445.5,243.5C 448.189,240.48 450.856,237.48 453.5,234.5 Z"/></g>
<g><path style="opacity:1" fill="#000000" d="M 405.5,236.5 C 406.552,236.351 407.552,236.517 408.5,237C 406.598,238.301 404.598,238.968 402.5,239C 403.571,238.148 404.571,237.315 405.5,236.5 Z"/></g>
<g><path style="opacity:1" fill="#c2c3c2" d="M 460.5,236.5 C 463.861,237.203 464.194,238.537 461.5,240.5C 460.571,239.311 460.238,237.978 460.5,236.5 Z"/></g>
<g><path style="opacity:1" fill="#c2c3c2" d="M 455.5,237.5 C 459.157,237.974 459.324,239.307 456,241.5C 454.232,240.318 454.065,238.985 455.5,237.5 Z"/></g>
<g><path style="opacity:1" fill="#ec1c23" d="M 358.5,238.5 C 360.76,239.238 360.927,240.238 359,241.5C 358.517,240.552 358.351,239.552 358.5,238.5 Z"/></g>
<g><path style="opacity:1" fill="#ec1c23" d="M 246.5,241.5 C 248.337,241.639 248.67,242.306 247.5,243.5C 246.702,243.043 246.369,242.376 246.5,241.5 Z"/></g>
<g><path style="opacity:1" fill="#000000" d="M 495.5,245.5 C 495.897,244.475 496.563,244.308 497.5,245C 499.329,246.113 500.163,247.613 500,249.5C 498.629,247.959 497.129,246.625 495.5,245.5 Z"/></g>
<g><path style="opacity:1" fill="#ec1c23" d="M 357.5,246.5 C 361.265,247.475 361.265,248.808 357.5,250.5C 356.708,249.3 356.708,247.967 357.5,246.5 Z"/></g>
<g><path style="opacity:1" fill="#7c4d35" d="M 397.5,272.5 C 400.903,270.1 403.57,267.1 405.5,263.5C 411.901,255.33 419.901,250.33 429.5,248.5C 421.863,252.078 415.696,257.412 411,264.5C 408.065,270.427 404.732,276.094 401,281.5C 397.719,288.176 395.386,295.176 394,302.5C 391.159,304.504 387.993,305.004 384.5,304C 380.19,300.659 379.356,296.492 382,291.5C 386.239,284.322 391.406,277.989 397.5,272.5 Z"/></g>
<g><path style="opacity:1" fill="#686862" d="M 513.5,249.5 C 517.522,256.363 522.856,262.197 529.5,267C 528.874,267.75 528.374,268.584 528,269.5C 528.945,284.808 522.445,289.142 508.5,282.5C 506.833,284.167 505.833,283.833 505.5,281.5C 506.963,279.369 507.963,277.035 508.5,274.5C 508.423,272.701 507.923,271.034 507,269.5C 504,268.167 501,268.167 498,269.5C 497.097,268.299 495.931,267.465 494.5,267C 501.63,262.037 507.963,256.203 513.5,249.5 Z"/></g>
<g><path style="opacity:1" fill="#ec1c23" d="M 246.5,250.5 C 247.776,251.386 247.776,252.386 246.5,253.5C 245.438,252.575 245.438,251.575 246.5,250.5 Z"/></g>
<g><path style="opacity:1" fill="#c2c3c2" d="M 479.5,251.5 C 480.239,251.369 480.906,251.536 481.5,252C 480.696,253.771 479.529,255.271 478,256.5C 477.387,254.505 477.887,252.838 479.5,251.5 Z"/></g>
<g><path style="opacity:1" fill="#ec1c23" d="M 354.5,253.5 C 356.757,254.562 357.923,256.228 358,258.5C 356.414,257.624 354.914,256.624 353.5,255.5C 353.863,254.817 354.196,254.15 354.5,253.5 Z"/></g>
<g><path style="opacity:1" fill="#000000" d="M 363.5,259.5 C 363.351,258.448 363.517,257.448 364,256.5C 368.574,263.733 369.574,271.399 367,279.5C 367.457,275.216 367.457,270.882 367,266.5C 366.33,263.826 365.163,261.493 363.5,259.5 Z"/></g>
<g><path style="opacity:1" fill="#c2c3c2" d="M 488.5,257.5 C 490.18,262.167 488.514,264.834 483.5,265.5C 483.351,264.448 483.517,263.448 484,262.5C 485.524,260.729 487.024,259.062 488.5,257.5 Z"/></g>
<g><path style="opacity:1" fill="#ec1c23" d="M 247.5,259.5 C 248.782,260.708 248.782,262.042 247.5,263.5C 247.094,262.443 247.094,261.109 247.5,259.5 Z"/></g>
<g><path style="opacity:1" fill="#ec1c23" d="M 349.5,259.5 C 350.701,262.405 350.534,265.405 349,268.5C 347.352,267.283 345.519,266.45 343.5,266C 345.706,263.963 347.706,261.797 349.5,259.5 Z"/></g>
<g><path style="opacity:1" fill="#000000" d="M 405.5,263.5 C 403.57,267.1 400.903,270.1 397.5,272.5C 399.43,268.9 402.097,265.9 405.5,263.5 Z"/></g>
<g><path style="opacity:1" fill="#c2c3c2" d="M 441.5,263.5 C 444.636,264.434 446.302,266.601 446.5,270C 448.108,270.658 449.275,270.158 450,268.5C 453.292,269.39 453.959,271.057 452,273.5C 447.634,275.48 444.634,274.147 443,269.5C 442.495,267.482 441.995,265.482 441.5,263.5 Z"/></g>
<g><path style="opacity:1" fill="#8c573b" d="M 197.5,280.5 C 197.281,281.675 197.614,282.675 198.5,283.5C 211.728,290.941 224.728,298.608 237.5,306.5C 238.093,309.8 238.76,313.134 239.5,316.5C 240.425,315.643 241.092,314.643 241.5,313.5C 242.167,313.5 242.5,313.167 242.5,312.5C 245.757,311.538 248.757,310.038 251.5,308C 252.5,307.333 253.5,307.333 254.5,308C 252.319,314.282 251.152,320.782 251,327.5C 246.506,322.143 241.173,321.143 235,324.5C 232.126,323.468 230.626,321.468 230.5,318.5C 221.746,318.044 215.079,321.544 210.5,329C 207.567,330.271 204.901,331.938 202.5,334C 197.833,334.667 193.167,334.667 188.5,334C 182.597,332.053 176.597,330.553 170.5,329.5C 173.684,325.733 174.351,321.4 172.5,316.5C 169.556,312.661 166.389,312.661 163,316.5C 159.556,321.727 159.723,326.727 163.5,331.5C 151.938,340.619 145.605,352.619 144.5,367.5C 143.883,367.611 143.383,367.944 143,368.5C 142.612,364.781 141.945,361.114 141,357.5C 137.173,360.327 134.506,363.993 133,368.5C 132.501,364.848 132.335,361.182 132.5,357.5C 134.101,355.765 135.435,353.765 136.5,351.5C 140.406,334.538 145.239,317.872 151,301.5C 159.948,303.154 168.448,301.487 176.5,296.5C 176.751,298.17 177.418,299.67 178.5,301C 179.744,301.456 180.577,300.956 181,299.5C 183.298,288.082 185.965,276.749 189,265.5C 190.011,264.663 191.178,264.33 192.5,264.5C 192.229,269.913 192.729,275.246 194,280.5C 195.393,283.125 196.559,283.125 197.5,280.5 Z"/></g>
<g><path style="opacity:1" fill="#060606" d="M 226.5,269.5 C 229.831,272.19 230.498,275.524 228.5,279.5C 227.178,279.67 226.011,279.337 225,278.5C 224,279.833 223,281.167 222,282.5C 220.497,278.141 218.33,277.641 215.5,281C 213.288,281.789 211.288,281.622 209.5,280.5C 206.688,277.161 207.021,273.995 210.5,271C 214.322,269.311 217.989,267.478 221.5,265.5C 224.102,265.777 225.769,267.111 226.5,269.5 Z"/></g>
<g><path style="opacity:1" fill="#fefffe" d="M 226.5,269.5 C 225.833,270.167 225.167,270.833 224.5,271.5C 228.099,271.262 228.433,272.262 225.5,274.5C 228.133,279.394 227.299,279.728 223,275.5C 223.617,277.095 223.284,278.428 222,279.5C 220.89,277.963 219.39,277.297 217.5,277.5C 217.768,274.881 217.435,272.381 216.5,270C 218.07,267.073 220.404,266.073 223.5,267C 222.833,267.667 222.167,268.333 221.5,269C 223.227,268.474 224.894,268.641 226.5,269.5 Z"/></g>
<g><path style="opacity:1" fill="#d6111a" d="M 243.5,266.5 C 247.796,266.08 248.463,267.747 245.5,271.5C 247.396,272.466 249.396,272.799 251.5,272.5C 251.682,274.591 251.348,276.591 250.5,278.5C 252.588,279.489 254.588,279.156 256.5,277.5C 257.5,277.833 258.167,278.5 258.5,279.5C 253.144,280.786 247.811,280.786 242.5,279.5C 242.167,279 241.833,278.5 241.5,278C 242.438,274.208 243.104,270.375 243.5,266.5 Z"/></g>
<g><path style="opacity:1" fill="#ec1c23" d="M 249.5,267.5 C 250.776,268.386 250.776,269.386 249.5,270.5C 248.438,269.575 248.438,268.575 249.5,267.5 Z"/></g>
<g><path style="opacity:1" fill="#ec1c23" d="M 340.5,268.5 C 341.473,270.948 341.806,273.615 341.5,276.5C 339.436,276.313 337.436,275.813 335.5,275C 337.054,272.713 338.721,270.546 340.5,268.5 Z"/></g>
<g><path style="opacity:1" fill="#c2c3c2" d="M 499.5,269.5 C 505.448,268.283 507.948,270.617 507,276.5C 506.586,276.957 506.086,277.291 505.5,277.5C 504.756,276.009 504.09,274.509 503.5,273C 501.744,272.798 500.078,272.298 498.5,271.5C 498.863,270.817 499.196,270.15 499.5,269.5 Z"/></g>
<g><path style="opacity:1" fill="#000000" d="M 520.5,269.5 C 522.167,269.5 523.833,269.5 525.5,269.5C 525.67,270.822 525.337,271.989 524.5,273C 521.92,274.786 519.253,276.286 516.5,277.5C 516.278,273.944 517.611,271.277 520.5,269.5 Z"/></g>
<g><path style="opacity:1" fill="#fefffe" d="M 209.5,280.5 C 207.511,274.511 209.511,271.844 215.5,272.5C 217.71,278.292 215.71,280.959 209.5,280.5 Z"/></g>
<g><path style="opacity:1" fill="#000000" d="M 224.5,271.5 C 223.998,273.085 222.998,273.585 221.5,273C 222.244,271.961 223.244,271.461 224.5,271.5 Z"/></g>
<g><path style="opacity:1" fill="#ec1c23" d="M 253.5,273.5 C 254.675,273.281 255.675,273.614 256.5,274.5C 254.948,275.798 253.948,275.465 253.5,273.5 Z"/></g>
<g><path style="opacity:1" fill="#c2c3c2" d="M 494.5,276.5 C 492.65,277.872 491.317,277.372 490.5,275C 491.563,273.812 492.897,273.312 494.5,273.5C 494.5,274.5 494.5,275.5 494.5,276.5 Z"/></g>
<g><path style="opacity:1" fill="#c2c3c2" d="M 496.5,287.5 C 495.34,286.735 494.34,285.735 493.5,284.5C 493.437,281.867 493.771,279.201 494.5,276.5C 498.025,275.149 501.191,275.816 504,278.5C 504.667,280.5 504.667,282.5 504,284.5C 501.528,285.601 499.028,286.601 496.5,287.5 Z"/></g>
<g><path style="opacity:1" fill="#ec1c23" d="M 260.5,277.5 C 261.376,277.369 262.043,277.702 262.5,278.5C 260.993,282.355 260.326,282.021 260.5,277.5 Z"/></g>
<g><path style="opacity:1" fill="#ec1c23" d="M 331.5,279.5 C 332.8,282.024 332.8,284.691 331.5,287.5C 329.833,286.5 328.5,285.167 327.5,283.5C 329.188,282.479 330.521,281.145 331.5,279.5 Z"/></g>
<g><path style="opacity:1" fill="#000000" d="M 345.5,280.5 C 348.554,282.871 351.887,284.871 355.5,286.5C 357.432,285.48 359.432,285.313 361.5,286C 354.621,288.384 349.288,286.551 345.5,280.5 Z"/></g>
<g><path style="opacity:1" fill="#686762" d="M 242.5,312.5 C 242.5,313.167 242.167,313.5 241.5,313.5C 240.223,312.306 239.556,310.64 239.5,308.5C 240.148,305.259 240.148,302.093 239.5,299C 240.08,293.123 240.913,287.29 242,281.5C 248.908,282.038 255.741,283.038 262.5,284.5C 260.757,291.062 258.424,297.395 255.5,303.5C 250.912,306.281 246.578,309.281 242.5,312.5 Z"/></g>
<g><path style="opacity:1" fill="#ec1c23" d="M 322.5,285.5 C 323.258,287.981 323.258,290.648 322.5,293.5C 319.903,293.357 317.569,292.523 315.5,291C 317.903,289.147 320.236,287.314 322.5,285.5 Z"/></g>
<g><path style="opacity:1" fill="#686862" d="M 496.5,287.5 C 496.56,288.043 496.893,288.376 497.5,288.5C 499.167,287.833 500.833,287.167 502.5,286.5C 504.754,289.634 507.754,291.8 511.5,293C 506.597,297.75 502.931,296.75 500.5,290C 498.1,289.814 495.766,289.314 493.5,288.5C 494.325,287.614 495.325,287.281 496.5,287.5 Z"/></g>
<g><path style="opacity:1" fill="#b37654" d="M 379.5,365.5 C 376.585,362.674 374.418,359.34 373,355.5C 373.564,359.79 371.731,361.957 367.5,362C 362.225,363.359 356.891,363.692 351.5,363C 344.877,357.096 340.543,349.763 338.5,341C 338.921,338.815 339.421,336.649 340,334.5C 342.589,332.789 345.089,330.955 347.5,329C 340.434,328.12 334.267,325.287 329,320.5C 327.025,316.524 324.692,312.858 322,309.5C 321.188,305.311 321.355,301.311 322.5,297.5C 324.257,294.557 325.59,291.223 326.5,287.5C 329.985,290.484 333.318,293.651 336.5,297C 345.718,302.22 354.384,308.22 362.5,315C 371.927,318.773 381.594,321.773 391.5,324C 389.668,325.489 388.835,327.322 389,329.5C 390.141,327.391 391.641,325.558 393.5,324C 397.529,323.249 398.862,324.749 397.5,328.5C 394.634,330.518 392.468,332.852 391,335.5C 393.292,334.21 395.292,332.543 397,330.5C 394.093,343.781 388.259,355.447 379.5,365.5 Z"/></g>
<g><path style="opacity:1" fill="#c2c3c2" d="M 286.5,293.5 C 288.124,293.36 289.29,294.027 290,295.5C 290.458,298.558 290.124,301.558 289,304.5C 282.116,315.266 276.616,326.599 272.5,338.5C 270.556,337.811 268.556,337.311 266.5,337C 272.225,322.051 278.892,307.551 286.5,293.5 Z"/></g>
<g><path style="opacity:1" fill="#ec1c23" d="M 311.5,293.5 C 312.586,293.62 313.253,294.287 313.5,295.5C 314.228,297.155 314.395,298.821 314,300.5C 312.5,299 311,297.5 309.5,296C 310.381,295.292 311.047,294.458 311.5,293.5 Z"/></g>
<g><path style="opacity:1" fill="#8d573b" d="M 322.5,297.5 C 321.355,301.311 321.188,305.311 322,309.5C 324.692,312.858 327.025,316.524 329,320.5C 334.267,325.287 340.434,328.12 347.5,329C 345.089,330.955 342.589,332.789 340,334.5C 339.421,336.649 338.921,338.815 338.5,341C 340.543,349.763 344.877,357.096 351.5,363C 356.891,363.692 362.225,363.359 367.5,362C 371.731,361.957 373.564,359.79 373,355.5C 374.418,359.34 376.585,362.674 379.5,365.5C 377.814,370.22 375.148,374.22 371.5,377.5C 372.273,380.465 372.939,383.465 373.5,386.5C 373.196,388.441 372.363,390.107 371,391.5C 371.862,399.287 373.528,406.953 376,414.5C 378.94,420.046 381.606,425.713 384,431.5C 385.381,445.37 389.381,458.37 396,470.5C 396.241,475.737 398.241,480.071 402,483.5C 404.514,490.25 405.848,497.25 406,504.5C 407.205,507.562 408.372,510.562 409.5,513.5C 403.387,512.41 398.221,514.077 394,518.5C 393.667,515.5 393.333,512.5 393,509.5C 391.333,508.167 389.667,506.833 388,505.5C 386.188,499.703 383.521,494.369 380,489.5C 378.2,479.502 376.533,469.502 375,459.5C 369.206,448.234 363.206,437.234 357,426.5C 356.674,421.854 355.34,417.521 353,413.5C 350.277,410.443 347.944,407.11 346,403.5C 345.869,398.318 344.869,393.318 343,388.5C 340.816,384.323 338.65,380.157 336.5,376C 335.253,373.334 333.253,371.501 330.5,370.5C 329.614,369.675 329.281,368.675 329.5,367.5C 330.79,366.942 331.623,365.942 332,364.5C 332.739,358.442 332.406,352.442 331,346.5C 326.888,336.027 321.888,326.027 316,316.5C 315.833,317 315.667,317.5 315.5,318C 316.5,320.5 317.5,323 318.5,325.5C 317.357,328.285 316.357,331.118 315.5,334C 316.57,339.88 318.57,345.38 321.5,350.5C 321.137,351.183 320.804,351.85 320.5,352.5C 314.807,352.701 309.14,352.868 303.5,353C 296.36,345.86 289.194,338.694 282,331.5C 280.85,329.246 280.516,326.913 281,324.5C 285.152,317.366 288.818,310.032 292,302.5C 293.333,305.167 294.667,307.833 296,310.5C 297.011,311.337 298.178,311.67 299.5,311.5C 299.421,308.729 299.921,306.063 301,303.5C 302.309,305.976 304.142,307.976 306.5,309.5C 307.325,305.878 307.825,302.211 308,298.5C 315.11,307.195 317.61,306.028 315.5,295C 318.242,294.705 320.575,295.538 322.5,297.5 Z"/></g>
<g><path style="opacity:1" fill="#ec1c23" d="M 302.5,299.5 C 303.5,299.5 304.5,299.5 305.5,299.5C 306.187,305.599 304.854,306.099 301.5,301C 302.056,300.617 302.389,300.117 302.5,299.5 Z"/></g>
<g><path style="opacity:1" fill="#ec1c23" d="M 294.5,300.5 C 295.833,300.5 297.167,300.5 298.5,300.5C 297.716,308.327 296.383,308.327 294.5,300.5 Z"/></g>
<g><path style="opacity:1" fill="#b87a56" d="M 196.5,304.5 C 201.213,304.468 202.713,306.801 201,311.5C 199.927,316.74 196.761,319.74 191.5,320.5C 189.098,318.951 186.432,318.284 183.5,318.5C 183.298,316.011 183.798,313.677 185,311.5C 188.762,308.875 192.595,306.541 196.5,304.5 Z"/></g>
<g><path style="opacity:1" fill="#b87a56" d="M 413.5,311.5 C 414.15,311.804 414.817,312.137 415.5,312.5C 418.234,319.581 416.401,324.914 410,328.5C 407.615,334.938 404.948,341.272 402,347.5C 399.333,351.5 396,354.833 392,357.5C 390.82,361.217 389.487,364.884 388,368.5C 383.65,373.187 379.65,378.187 376,383.5C 374.635,382.407 374.301,381.074 375,379.5C 382.139,369.35 388.472,358.683 394,347.5C 397.262,340.048 399.929,332.381 402,324.5C 407.691,321.768 411.524,317.435 413.5,311.5 Z"/></g>
<g><path style="opacity:1" fill="#b87a56" d="M 170.5,329.5 C 170.217,330.289 169.717,330.956 169,331.5C 167.172,330.248 165.339,330.248 163.5,331.5C 159.723,326.727 159.556,321.727 163,316.5C 166.389,312.661 169.556,312.661 172.5,316.5C 174.351,321.4 173.684,325.733 170.5,329.5 Z"/></g>
<g><path style="opacity:1" fill="#b87a56" d="M 329.5,367.5 C 326.617,363.706 324.784,359.373 324,354.5C 322.887,353.695 321.721,353.028 320.5,352.5C 320.804,351.85 321.137,351.183 321.5,350.5C 318.57,345.38 316.57,339.88 315.5,334C 316.357,331.118 317.357,328.285 318.5,325.5C 317.5,323 316.5,320.5 315.5,318C 315.667,317.5 315.833,317 316,316.5C 321.888,326.027 326.888,336.027 331,346.5C 332.406,352.442 332.739,358.442 332,364.5C 331.623,365.942 330.79,366.942 329.5,367.5 Z"/></g>
<g><path style="opacity:1" fill="#513322" d="M 205.5,335.5 C 206.497,335.47 207.164,335.97 207.5,337C 205.147,347.676 203.98,358.509 204,369.5C 199.45,377.05 193.283,382.884 185.5,387C 181.5,387.667 177.5,387.667 173.5,387C 171.638,383.737 169.971,380.403 168.5,377C 169.094,374.21 170.261,371.71 172,369.5C 177.795,372.731 182.795,371.731 187,366.5C 188.254,360.662 190.587,355.328 194,350.5C 194.499,346.179 194.666,341.846 194.5,337.5C 197.518,337.665 200.518,337.498 203.5,337C 204.416,336.722 205.082,336.222 205.5,335.5 Z"/></g>
<g><path style="opacity:1" fill="#8d583b" d="M 276.5,335.5 C 281.221,340.724 286.221,345.891 291.5,351C 287.746,349.748 283.746,348.915 279.5,348.5C 278.971,345.112 277.638,342.112 275.5,339.5C 275.846,338.151 276.179,336.817 276.5,335.5 Z"/></g>
<g><path style="opacity:1" fill="#000000" d="M 378.5,337.5 C 379.805,340.38 378.805,341.88 375.5,342C 377.141,340.871 378.141,339.371 378.5,337.5 Z"/></g>
<g><path style="opacity:1" fill="#c2c3c2" d="M 274.5,344.5 C 267.231,338.467 261.065,339.467 256,347.5C 254.221,350.613 253.055,353.946 252.5,357.5C 252.637,359.107 253.304,360.441 254.5,361.5C 259.986,365.084 265.819,368.084 272,370.5C 273.695,368.768 275.028,366.768 276,364.5C 275.909,371.187 272.743,373.02 266.5,370C 259.877,367.022 253.543,363.522 247.5,359.5C 250.695,356.106 252.861,352.106 254,347.5C 258.032,339.963 264.198,337.463 272.5,340C 273.582,341.33 274.249,342.83 274.5,344.5 Z"/></g>
<g><path style="opacity:1" fill="#c2c3c2" d="M 274.5,344.5 C 275.812,345.145 276.812,346.145 277.5,347.5C 276.738,351.111 276.238,354.778 276,358.5C 275.719,353.785 275.219,349.118 274.5,344.5 Z"/></g>
<g><path style="opacity:1" fill="#cccdcc" d="M 132.5,357.5 C 132.335,361.182 132.501,364.848 133,368.5C 134.506,363.993 137.173,360.327 141,357.5C 141.945,361.114 142.612,364.781 143,368.5C 143.383,367.944 143.883,367.611 144.5,367.5C 144.579,370.271 144.079,372.937 143,375.5C 139.063,379.709 137.063,384.709 137,390.5C 129.921,396.677 124.255,395.677 120,387.5C 118.851,384.607 118.351,381.607 118.5,378.5C 121.106,379.136 123.606,379.136 126,378.5C 125.749,371.796 127.082,365.463 130,359.5C 130.708,358.619 131.542,357.953 132.5,357.5 Z"/></g>
<g><path style="opacity:1" fill="#b87a56" d="M 346.5,383.5 C 350.998,391.84 357.165,398.84 365,404.5C 367.397,408.444 366.897,411.778 363.5,414.5C 359.656,413.166 356.489,410.832 354,407.5C 351.782,399.401 349.282,391.401 346.5,383.5 Z"/></g>
<g><path style="opacity:1" fill="#8d583b" d="M 348.5,441.5 C 347.504,441.414 346.671,441.748 346,442.5C 344.029,438.706 341.529,435.373 338.5,432.5C 339.736,423.622 341.902,414.955 345,406.5C 347.917,410.666 350.584,414.999 353,419.5C 353.869,421.581 354.369,423.747 354.5,426C 352.337,431.15 350.337,436.317 348.5,441.5 Z"/></g>
<g><path style="opacity:1" fill="#b87a56" d="M 338.5,432.5 C 341.529,435.373 344.029,438.706 346,442.5C 346.671,441.748 347.504,441.414 348.5,441.5C 345.367,449.129 345.867,456.462 350,463.5C 350.388,467.219 351.055,470.886 352,474.5C 353.955,476.911 355.789,479.411 357.5,482C 349.453,482.961 342.12,485.794 335.5,490.5C 335.574,483.673 335.407,476.673 335,469.5C 332.7,465.732 330.533,461.898 328.5,458C 330.409,448.788 333.743,440.288 338.5,432.5 Z"/></g>
<g><path style="opacity:1" fill="#c2c3c2" d="M 416.5,525.5 C 418.527,525.338 420.527,525.505 422.5,526C 423.741,527.487 423.241,528.32 421,528.5C 415.857,529.203 410.691,529.703 405.5,530C 402.774,532.296 399.774,534.129 396.5,535.5C 395.692,535.192 395.025,534.692 394.5,534C 401.387,529.712 408.721,526.878 416.5,525.5 Z"/></g>
</svg>
