<?xml version="1.0" encoding="UTF-8"?>
<!DOCTYPE svg PUBLIC "-//W3C//DTD SVG 1.1//EN" "http://www.w3.org/Graphics/SVG/1.1/DTD/svg11.dtd">
<svg xmlns="http://www.w3.org/2000/svg" version="1.1" width="600px" height="600px" style="shape-rendering:geometricPrecision; text-rendering:geometricPrecision; image-rendering:optimizeQuality; fill-rule:evenodd; clip-rule:evenodd" xmlns:xlink="http://www.w3.org/1999/xlink">
<g><path style="opacity:1" fill="#fefffe" d="M 277.5,94.5 C 285.84,94.3336 294.173,94.5003 302.5,95C 306.524,97.3485 310.691,99.5151 315,101.5C 315.328,114.891 316.161,128.225 317.5,141.5C 323.842,141.334 330.175,141.5 336.5,142C 338.34,144.826 339.006,147.993 338.5,151.5C 342.182,151.335 345.848,151.501 349.5,152C 351.552,152.93 353.052,154.43 354,156.5C 354.667,165.833 354.667,175.167 354,184.5C 351.881,190.071 349.215,195.404 346,200.5C 345.667,213.167 345.333,225.833 345,238.5C 343.349,242.658 343.183,246.825 344.5,251C 371.233,257.289 398.233,263.622 425.5,270C 435.5,270.667 445.5,271.333 455.5,272C 486.904,280.518 518.237,289.352 549.5,298.5C 549.5,304.167 549.5,309.833 549.5,315.5C 540.036,318.306 530.37,319.14 520.5,318C 499.98,313.578 479.48,309.078 459,304.5C 457.225,305.27 455.725,306.437 454.5,308C 447.5,308.667 440.5,308.667 433.5,308C 428.694,306.131 423.694,305.131 418.5,305C 395.488,293.834 371.155,289.168 345.5,291C 342.204,290.543 339.037,289.709 336,288.5C 335,290.5 334,292.5 333,294.5C 332.486,306.338 332.653,318.172 333.5,330C 331.93,354.47 330.763,378.97 330,403.5C 328.509,411.002 327.509,418.669 327,426.5C 325.019,431.625 323.186,436.792 321.5,442C 323.213,452.806 326.713,462.973 332,472.5C 332.667,479.167 332.667,485.833 332,492.5C 331.206,496.537 328.706,498.704 324.5,499C 317.833,499.667 311.167,499.667 304.5,499C 301.097,498.9 297.93,498.066 295,496.5C 292.385,492.217 289.385,488.217 286,484.5C 285.75,481.246 284.75,478.246 283,475.5C 282.169,462.947 282.669,450.447 284.5,438C 280.407,422.468 280.573,406.968 285,391.5C 285.829,386.467 285.662,381.467 284.5,376.5C 281.392,384.25 278.892,392.25 277,400.5C 273.602,405.232 271.102,410.398 269.5,416C 270.654,429.156 270.487,442.323 269,455.5C 266.749,457.377 264.249,458.877 261.5,460C 252.833,460.667 244.167,460.667 235.5,460C 233.383,458.269 231.883,456.102 231,453.5C 230.333,436.5 230.333,419.5 231,402.5C 231.419,401.328 232.085,400.328 233,399.5C 233.333,391.167 233.667,382.833 234,374.5C 235.284,371.193 236.617,367.859 238,364.5C 238.263,344.659 238.763,324.825 239.5,305C 239.724,300.234 238.89,295.734 237,291.5C 234.532,290.896 232.532,289.562 231,287.5C 230.501,281.843 230.334,276.176 230.5,270.5C 226.486,270.666 222.486,270.499 218.5,270C 215.143,268.488 213.143,265.988 212.5,262.5C 208.941,262.408 205.608,263.241 202.5,265C 195.586,265.811 188.752,265.645 182,264.5C 181.333,256.5 181.333,248.5 182,240.5C 183.579,237.006 185.413,233.673 187.5,230.5C 186.391,228.615 185.557,226.615 185,224.5C 184.333,216.833 184.333,209.167 185,201.5C 186.046,199.91 187.213,198.41 188.5,197C 204.671,190.791 221.338,186.457 238.5,184C 239.729,182.471 241.229,181.304 243,180.5C 243.368,179.09 244.201,178.09 245.5,177.5C 246.456,166.844 247.289,156.178 248,145.5C 249.659,144.183 250.826,142.517 251.5,140.5C 249.862,137.696 248.029,135.029 246,132.5C 245.333,126.5 245.333,120.5 246,114.5C 246.786,111.417 248.619,109.251 251.5,108C 258.301,105.121 265.301,102.955 272.5,101.5C 273.002,98.3315 274.669,95.9981 277.5,94.5 Z"/></g>
<g><path style="opacity:1" fill="#000000" d="M 281.5,98.5 C 287.176,98.3339 292.843,98.5006 298.5,99C 302.524,101.348 306.691,103.515 311,105.5C 311.191,119.244 312.191,132.91 314,146.5C 315.378,148.213 317.045,149.547 319,150.5C 319.273,148.671 320.107,147.171 321.5,146C 325.167,145.333 328.833,145.333 332.5,146C 334.34,148.826 335.006,151.993 334.5,155.5C 346.992,152.994 352.325,157.994 350.5,170.5C 350.531,175.235 350.031,179.901 349,184.5C 345.274,189.286 342.607,194.619 341,200.5C 342.519,218.696 341.352,236.696 337.5,254.5C 348.623,257.614 359.957,259.447 371.5,260C 372.5,261 373.5,262 374.5,263C 390.203,266.509 405.87,270.176 421.5,274C 431.5,274.667 441.5,275.333 451.5,276C 482.904,284.518 514.237,293.352 545.5,302.5C 545.5,305.5 545.5,308.5 545.5,311.5C 538.71,314.042 531.71,314.875 524.5,314C 501.258,308.552 477.925,303.885 454.5,300C 453.167,301.333 451.833,302.667 450.5,304C 446.167,304.667 441.833,304.667 437.5,304C 432.694,302.131 427.694,301.131 422.5,301C 417.306,298.912 412.306,296.579 407.5,294C 394.28,290.903 381.113,287.736 368,284.5C 364.826,286.993 361.159,287.993 357,287.5C 348.72,286.707 340.553,285.541 332.5,284C 331.206,286.087 330.039,288.254 329,290.5C 328.323,303.676 328.49,316.843 329.5,330C 327.849,353.132 326.683,376.298 326,399.5C 324.509,407.002 323.509,414.669 323,422.5C 321.611,426.944 319.944,431.277 318,435.5C 316.886,450.268 320.22,463.935 328,476.5C 328.932,481.989 328.432,487.323 326.5,492.5C 324.631,493.624 322.631,494.457 320.5,495C 314.126,495.608 307.793,495.275 301.5,494C 294.528,487.892 289.695,480.392 287,471.5C 286.483,460.294 286.983,449.128 288.5,438C 287.971,430.567 286.971,423.234 285.5,416C 286.517,407.573 288.183,399.24 290.5,391C 290.523,378.114 288.356,365.614 284,353.5C 281.267,366.971 277.934,380.304 274,393.5C 271.574,399.349 268.907,405.016 266,410.5C 266.875,424.176 266.542,437.843 265,451.5C 262.749,453.377 260.249,454.877 257.5,456C 251.5,456.667 245.5,456.667 239.5,456C 237.383,454.269 235.883,452.102 235,449.5C 234.333,435.167 234.333,420.833 235,406.5C 235.419,405.328 236.085,404.328 237,403.5C 237.333,395.167 237.667,386.833 238,378.5C 239.284,375.193 240.617,371.859 242,368.5C 242.628,343.496 242.962,318.496 243,293.5C 241.837,291.715 241.17,289.715 241,287.5C 238.532,286.896 236.532,285.562 235,283.5C 234.32,277.64 234.82,271.974 236.5,266.5C 231.821,266.666 227.155,266.499 222.5,266C 219.143,264.488 217.143,261.988 216.5,258.5C 212.154,258.334 207.821,258.501 203.5,259C 197.813,261.571 191.979,262.071 186,260.5C 184.362,251.941 185.696,243.941 190,236.5C 192.258,234.57 194.758,233.07 197.5,232C 192.864,229.585 190.03,225.751 189,220.5C 188.333,215.5 188.333,210.5 189,205.5C 190.046,203.91 191.213,202.41 192.5,201C 208.671,194.791 225.338,190.457 242.5,188C 243.729,186.471 245.229,185.304 247,184.5C 247.368,183.09 248.201,182.09 249.5,181.5C 250.456,170.844 251.289,160.178 252,149.5C 253.69,146.976 255.857,144.976 258.5,143.5C 256.69,137.884 253.856,132.884 250,128.5C 248.049,121.586 249.882,116.086 255.5,112C 262.301,109.121 269.301,106.955 276.5,105.5C 277.002,102.331 278.669,99.9981 281.5,98.5 Z"/></g>
<g><path style="opacity:1" fill="#3f47cc" d="M 286.5,104.5 C 290.79,103.987 294.623,104.987 298,107.5C 298.989,114.014 296.156,117.348 289.5,117.5C 283.8,116.646 281.634,113.313 283,107.5C 284.145,106.364 285.312,105.364 286.5,104.5 Z"/></g>
<g><path style="opacity:1" fill="#7e7f7e" d="M 277.5,118.5 C 279.527,118.338 281.527,118.505 283.5,119C 275.155,122.16 266.488,123.16 257.5,122C 262.167,121.667 266.833,121.333 271.5,121C 273.974,120.963 275.974,120.13 277.5,118.5 Z"/></g>
<g><path style="opacity:1" fill="#fefffe" d="M 293.5,118.5 C 298.401,118.304 300.567,120.638 300,125.5C 296.686,130.271 292.186,132.104 286.5,131C 283.075,128.715 282.575,125.882 285,122.5C 287.778,120.848 290.611,119.514 293.5,118.5 Z"/></g>
<g><path style="opacity:1" fill="#ec1c23" d="M 290.5,120.5 C 297.678,122.515 298.178,125.515 292,129.5C 286.733,127.217 286.233,124.217 290.5,120.5 Z"/></g>
<g><path style="opacity:1" fill="#3f47cc" d="M 291.5,122.5 C 296.016,123.625 296.35,125.292 292.5,127.5C 289.14,126.209 288.806,124.543 291.5,122.5 Z"/></g>
<g><path style="opacity:1" fill="#fec90d" d="M 293.5,132.5 C 297.025,133.759 300.025,135.759 302.5,138.5C 300.588,142.66 298.421,146.66 296,150.5C 293.106,147.639 289.939,145.139 286.5,143C 289.216,139.729 291.549,136.229 293.5,132.5 Z"/></g>
<g><path style="opacity:1" fill="#6d76d8" d="M 261.5,150.5 C 263.288,150.215 264.955,150.548 266.5,151.5C 268.167,155.5 269.833,159.5 271.5,163.5C 267.954,168.797 267.621,174.297 270.5,180C 267.666,180.045 265.166,180.879 263,182.5C 262.667,181.5 262.333,180.5 262,179.5C 257.857,178.691 256.024,176.191 256.5,172C 257.102,166.176 257.602,160.342 258,154.5C 259.376,153.295 260.542,151.962 261.5,150.5 Z"/></g>
<g><path style="opacity:1" fill="#fefffe" d="M 326.5,151.5 C 327.117,151.611 327.617,151.944 328,152.5C 328.667,154.833 328.667,157.167 328,159.5C 325.318,157.276 324.818,154.61 326.5,151.5 Z"/></g>
<g><path style="opacity:1" fill="#7e7f7e" d="M 295.5,163.5 C 301.363,161.975 305.363,158.308 307.5,152.5C 306.928,159.393 302.928,163.06 295.5,163.5 Z"/></g>
<g><path style="opacity:1" fill="#6d76d8" d="M 314.5,156.5 C 317.132,157.327 319.798,158.16 322.5,159C 319.296,167.239 315.963,175.405 312.5,183.5C 310.709,183.038 309.709,181.871 309.5,180C 310.185,171.854 311.851,164.02 314.5,156.5 Z"/></g>
<g><path style="opacity:1" fill="#fefffe" d="M 324.5,160.5 C 325.473,160.987 326.473,161.487 327.5,162C 325.562,167.241 323.395,172.408 321,177.5C 320.503,180.146 320.336,182.813 320.5,185.5C 318.712,185.785 317.045,185.452 315.5,184.5C 318.115,176.316 321.115,168.316 324.5,160.5 Z"/></g>
<g><path style="opacity:1" fill="#7e7f7e" d="M 295.5,163.5 C 290.514,164.569 285.514,164.069 280.5,162C 285.447,162.488 290.447,162.988 295.5,163.5 Z"/></g>
<g><path style="opacity:1" fill="#6d76d8" d="M 329.5,161.5 C 344.807,160.565 348.973,167.232 342,181.5C 339.497,184.502 337.497,187.835 336,191.5C 333.757,193.282 331.257,193.782 328.5,193C 327.042,190.54 325.209,188.373 323,186.5C 322.833,185.333 322.667,184.167 322.5,183C 324.929,175.879 327.263,168.712 329.5,161.5 Z"/></g>
<g><path style="opacity:1" fill="#f9a884" d="M 271.5,167.5 C 272.496,167.414 273.329,167.748 274,168.5C 275.084,171.249 275.917,174.082 276.5,177C 274.163,180.12 272.33,179.62 271,175.5C 270.398,172.779 270.565,170.113 271.5,167.5 Z"/></g>
<g><path style="opacity:1" fill="#fec90d" d="M 277.5,169.5 C 279.723,173.576 281.889,177.909 284,182.5C 287.882,186.714 291.382,191.214 294.5,196C 289.363,195.231 285.53,192.397 283,187.5C 279.369,182.047 277.536,176.047 277.5,169.5 Z"/></g>
<g><path style="opacity:1" fill="#000000" d="M 272.5,171.5 C 273.703,172.943 274.203,174.609 274,176.5C 272.731,175.095 272.231,173.429 272.5,171.5 Z"/></g>
<g><path style="opacity:1" fill="#faa47f" d="M 307.5,170.5 C 308.147,171.274 308.48,172.274 308.5,173.5C 307.45,179.135 306.616,184.802 306,190.5C 304.654,193.179 302.654,195.179 300,196.5C 295.701,192.531 291.701,188.198 288,183.5C 285.913,180.327 284.079,176.994 282.5,173.5C 282.833,173.167 283.167,172.833 283.5,172.5C 287.263,173.651 290.929,174.984 294.5,176.5C 297.889,174.53 301.389,172.863 305,171.5C 306.516,174.051 307.349,173.718 307.5,170.5 Z"/></g>
<g><path style="opacity:1" fill="#870014" d="M 265.5,182.5 C 267.527,182.338 269.527,182.505 271.5,183C 268.993,183.093 266.826,183.926 265,185.5C 264.53,184.423 264.697,183.423 265.5,182.5 Z"/></g>
<g><path style="opacity:1" fill="#f9a884" d="M 277.5,182.5 C 279.085,183.002 279.585,184.002 279,185.5C 277.961,184.756 277.461,183.756 277.5,182.5 Z"/></g>
<g><path style="opacity:1" fill="#ec1c23" d="M 273.5,183.5 C 276.649,187.095 279.816,190.762 283,194.5C 283.667,196.833 283.667,199.167 283,201.5C 282,200.833 281,200.167 280,199.5C 278.468,194.56 275.635,190.727 271.5,188C 273.037,186.89 273.703,185.39 273.5,183.5 Z"/></g>
<g><path style="opacity:1" fill="#000000" d="M 298.5,184.5 C 300.5,184.5 302.5,184.5 304.5,184.5C 305.245,187.93 303.911,189.597 300.5,189.5C 296.179,189.197 295.513,187.531 298.5,184.5 Z"/></g>
<g><path style="opacity:1" fill="#870014" d="M 308.5,184.5 C 312.557,186.683 316.89,188.183 321.5,189C 325.387,192.365 327.72,196.532 328.5,201.5C 326.345,201.628 324.345,201.128 322.5,200C 319.81,197.315 316.81,194.982 313.5,193C 311.866,192.506 310.199,192.34 308.5,192.5C 308.5,189.833 308.5,187.167 308.5,184.5 Z"/></g>
<g><path style="opacity:1" fill="#3c45c6" d="M 217.5,220.5 C 217.441,218.278 216.275,217.278 214,217.5C 211.201,217.632 209.201,218.965 208,221.5C 208.083,225.639 208.749,229.639 210,233.5C 204.938,228.775 200.272,223.775 196,218.5C 193.652,214.252 194.152,210.419 197.5,207C 213.671,200.791 230.338,196.457 247.5,194C 250.255,192.289 252.589,190.122 254.5,187.5C 257.039,186.885 259.539,186.218 262,185.5C 260.52,188.387 258.854,191.387 257,194.5C 253.525,202.926 250.858,211.592 249,220.5C 248.5,220 248,219.5 247.5,219C 240.548,217.603 233.548,217.27 226.5,218C 224.624,219.863 222.457,221.363 220,222.5C 219.292,221.619 218.458,220.953 217.5,220.5 Z"/></g>
<g><path style="opacity:1" fill="#fefffe" d="M 267.5,185.5 C 268.239,185.369 268.906,185.536 269.5,186C 264.056,194.644 259.556,203.811 256,213.5C 254.287,218.396 252.954,223.396 252,228.5C 251.598,227.128 251.098,225.795 250.5,224.5C 252.557,213.379 256.057,202.712 261,192.5C 263.372,190.297 265.539,187.963 267.5,185.5 Z"/></g>
<g><path style="opacity:1" fill="#ce1019" d="M 300.5,185.5 C 301.675,185.281 302.675,185.614 303.5,186.5C 301.926,187.631 300.259,187.798 298.5,187C 299.416,186.722 300.082,186.222 300.5,185.5 Z"/></g>
<g><path style="opacity:1" fill="#fefffe" d="M 269.5,191.5 C 270.251,190.427 271.251,190.26 272.5,191C 274.461,194.421 276.294,197.921 278,201.5C 280.916,203.041 283.749,204.707 286.5,206.5C 280.972,211.187 275.139,215.52 269,219.5C 268.529,216.406 266.696,214.739 263.5,214.5C 267.552,214.293 269.052,212.293 268,208.5C 265.824,208.012 263.991,207.012 262.5,205.5C 263.432,203.205 264.265,200.871 265,198.5C 270.117,198.218 271.617,195.885 269.5,191.5 Z"/></g>
<g><path style="opacity:1" fill="#fec90d" d="M 268.5,192.5 C 269.867,194.093 269.534,195.426 267.5,196.5C 267.167,196.333 266.833,196.167 266.5,196C 267.305,194.887 267.972,193.721 268.5,192.5 Z"/></g>
<g><path style="opacity:1" fill="#ec1c23" d="M 306.5,194.5 C 307.552,194.351 308.552,194.517 309.5,195C 304.574,200.459 298.574,203.792 291.5,205C 292.103,203.175 292.77,201.341 293.5,199.5C 296.777,198.746 300.11,198.246 303.5,198C 304.71,196.961 305.71,195.794 306.5,194.5 Z"/></g>
<g><path style="opacity:1" fill="#232a85" d="M 285.5,195.5 C 289.917,196.869 291.583,199.869 290.5,204.5C 288.61,204.703 287.11,204.037 286,202.5C 285.503,200.19 285.337,197.857 285.5,195.5 Z"/></g>
<g><path style="opacity:1" fill="#fefffe" d="M 312.5,195.5 C 314.546,196.359 315.879,197.859 316.5,200C 315.274,211.157 314.107,222.323 313,233.5C 312.692,234.308 312.192,234.975 311.5,235.5C 309.295,224.962 308.461,214.295 309,203.5C 309.872,200.639 311.038,197.972 312.5,195.5 Z"/></g>
<g><path style="opacity:1" fill="#fefffe" d="M 330.5,195.5 C 331.73,197.626 333.063,199.792 334.5,202C 333.99,203.826 333.156,203.993 332,202.5C 331.023,200.26 330.523,197.927 330.5,195.5 Z"/></g>
<g><path style="opacity:1" fill="#fefffe" d="M 305.5,201.5 C 306.643,204.976 306.81,208.642 306,212.5C 305.167,213.333 304.333,214.167 303.5,215C 290.585,222.374 277.751,229.874 265,237.5C 263.323,236.099 261.656,234.765 260,233.5C 258.775,233.862 257.609,234.362 256.5,235C 254.943,237.296 253.276,239.462 251.5,241.5C 251.167,241 250.833,240.5 250.5,240C 251.722,237.966 252.722,235.8 253.5,233.5C 255.924,232.577 257.924,231.077 259.5,229C 268.993,222.087 278.659,215.42 288.5,209C 293.348,207.813 298.015,206.146 302.5,204C 303.942,203.623 304.942,202.79 305.5,201.5 Z"/></g>
<g><path style="opacity:1" fill="#3f47cc" d="M 320.5,202.5 C 322.589,202.857 324.589,203.523 326.5,204.5C 325.187,206.885 323.52,207.052 321.5,205C 320.748,204.329 320.414,203.496 320.5,202.5 Z"/></g>
<g><path style="opacity:1" fill="#ec1c23" d="M 318.5,203.5 C 320.28,206.554 322.946,207.721 326.5,207C 327.126,206.25 327.626,205.416 328,204.5C 328.595,205.899 328.428,207.232 327.5,208.5C 323.065,210.376 319.732,209.21 317.5,205C 318.056,204.617 318.389,204.117 318.5,203.5 Z"/></g>
<g><path style="opacity:1" fill="#3a43c3" d="M 329.5,204.5 C 330.69,207.774 332.523,210.774 335,213.5C 335.167,216.167 335.333,218.833 335.5,221.5C 333.839,233.458 332.339,245.458 331,257.5C 324.616,255.723 318.116,254.39 311.5,253.5C 314.498,238.706 316.665,223.706 318,208.5C 321.304,210.6 324.804,210.933 328.5,209.5C 329.309,207.929 329.643,206.262 329.5,204.5 Z"/></g>
<g><path style="opacity:1" fill="#000000" d="M 208.5,206.5 C 214.106,207.065 218.939,209.732 223,214.5C 223.667,215.167 223.667,215.833 223,216.5C 218.734,210.867 213.234,209.034 206.5,211C 208.623,209.806 210.957,209.14 213.5,209C 211.807,208.153 210.14,207.32 208.5,206.5 Z"/></g>
<g><path style="opacity:1" fill="#fec90d" d="M 264.5,208.5 C 267.861,209.203 268.194,210.537 265.5,212.5C 263.358,211.563 263.024,210.23 264.5,208.5 Z"/></g>
<g><path style="opacity:1" fill="#3f47cc" d="M 260.5,210.5 C 261.814,215.348 261.814,220.348 260.5,225.5C 258.247,226.253 256.413,227.586 255,229.5C 255.3,222.763 257.133,216.43 260.5,210.5 Z"/></g>
<g><path style="opacity:1" fill="#fec90d" d="M 264.5,216.5 C 267.861,217.203 268.194,218.537 265.5,220.5C 263.358,219.563 263.024,218.23 264.5,216.5 Z"/></g>
<g><path style="opacity:1" fill="#3f47cc" d="M 305.5,216.5 C 306.117,216.611 306.617,216.944 307,217.5C 307.2,226.025 308.2,234.359 310,242.5C 308.414,240.33 307.08,237.996 306,235.5C 305.667,230.167 305.333,224.833 305,219.5C 303.205,218.281 303.372,217.281 305.5,216.5 Z"/></g>
<g><path style="opacity:1" fill="#ec1c23" d="M 217.5,220.5 C 218.242,222.426 219.242,224.259 220.5,226C 218.893,227.049 218.227,228.549 218.5,230.5C 219.5,230.5 220.5,230.5 221.5,230.5C 221.343,229.127 221.51,227.793 222,226.5C 223.176,230.302 225.009,230.968 227.5,228.5C 226.352,226.851 225.019,225.351 223.5,224C 227.441,224.799 231.107,226.466 234.5,229C 235.357,229.689 236.023,230.522 236.5,231.5C 232.936,232.966 229.27,234.132 225.5,235C 222.196,237.273 220.696,240.439 221,244.5C 217.395,241.568 214.561,238.068 212.5,234C 212.735,233.127 213.069,232.293 213.5,231.5C 212.167,228.833 210.833,226.167 209.5,223.5C 211.003,222.948 212.669,222.948 214.5,223.5C 214.343,222.127 214.51,220.793 215,219.5C 215.671,220.252 216.504,220.586 217.5,220.5 Z"/></g>
<g><path style="opacity:1" fill="#fec90d" d="M 301.5,219.5 C 304.861,220.203 305.194,221.537 302.5,223.5C 300.358,222.563 300.024,221.23 301.5,219.5 Z"/></g>
<g><path style="opacity:1" fill="#fefffe" d="M 298.5,220.5 C 298.933,223.259 300.6,224.592 303.5,224.5C 303.649,225.552 303.483,226.552 303,227.5C 298.167,225.667 296.667,227.167 298.5,232C 300.112,232.72 301.612,232.554 303,231.5C 303.483,232.448 303.649,233.448 303.5,234.5C 299.323,233.842 297.823,235.508 299,239.5C 301.776,241.14 303.776,240.473 305,237.5C 305.273,239.329 306.107,240.829 307.5,242C 303.363,241.797 301.863,243.63 303,247.5C 306.387,249.318 308.387,248.318 309,244.5C 309.497,247.146 309.664,249.813 309.5,252.5C 303.5,251.5 297.5,250.5 291.5,249.5C 290.68,246.005 288.68,243.338 285.5,241.5C 284.659,236.866 284.659,232.199 285.5,227.5C 290.276,225.946 294.61,223.613 298.5,220.5 Z"/></g>
<g><path style="opacity:1" fill="#251e0d" d="M 214.5,223.5 C 215.5,223.5 216.5,223.5 217.5,223.5C 217.5,224.833 217.5,226.167 217.5,227.5C 216.5,227.5 215.5,227.5 214.5,227.5C 214.5,226.167 214.5,224.833 214.5,223.5 Z"/></g>
<g><path style="opacity:1" fill="#fec90d" d="M 299.5,227.5 C 302.861,228.203 303.194,229.537 300.5,231.5C 298.358,230.563 298.024,229.23 299.5,227.5 Z"/></g>
<g><path style="opacity:1" fill="#fefffe" d="M 282.5,229.5 C 282.704,232.918 282.704,236.584 282.5,240.5C 278.212,240.818 274.545,242.484 271.5,245.5C 266.271,242.393 266.271,239.227 271.5,236C 275.23,233.807 278.897,231.64 282.5,229.5 Z"/></g>
<g><path style="opacity:1" fill="#f9a784" d="M 241.5,253.5 C 240.883,253.389 240.383,253.056 240,252.5C 240.195,254.126 240.195,255.793 240,257.5C 239.23,258.598 238.397,258.598 237.5,257.5C 237.5,258.5 237.5,259.5 237.5,260.5C 236.167,260.5 234.833,260.5 233.5,260.5C 232.685,256.554 231.185,252.887 229,249.5C 229.624,252.866 230.791,256.199 232.5,259.5C 231.5,260.833 230.5,260.833 229.5,259.5C 228.333,257.833 227.167,256.167 226,254.5C 227.031,259.378 226.031,259.711 223,255.5C 222.449,250.455 222.782,245.455 224,240.5C 227.258,237.171 231.258,235.171 236,234.5C 238.822,236.653 241.656,238.819 244.5,241C 242.667,241.5 241.5,242.667 241,244.5C 240.366,247.555 240.532,250.555 241.5,253.5 Z"/></g>
<g><path style="opacity:1" fill="#fec90d" d="M 300.5,235.5 C 303.861,236.203 304.194,237.537 301.5,239.5C 299.358,238.563 299.024,237.23 300.5,235.5 Z"/></g>
<g><path style="opacity:1" fill="#b87a56" d="M 202.5,237.5 C 209.953,237.372 215.786,240.372 220,246.5C 220.495,248.473 220.662,250.473 220.5,252.5C 213.159,252.334 205.826,252.5 198.5,253C 196.385,253.557 194.385,254.391 192.5,255.5C 191.684,247.126 195.018,241.126 202.5,237.5 Z"/></g>
<g><path style="opacity:1" fill="#7e7f7e" d="M 261.5,238.5 C 266.909,240.662 266.742,242.329 261,243.5C 260.5,243.167 260,242.833 259.5,242.5C 260.63,241.378 261.297,240.044 261.5,238.5 Z"/></g>
<g><path style="opacity:1" fill="#b87a56" d="M 246.5,242.5 C 251.415,242.541 252.415,244.374 249.5,248C 250.858,249.689 252.525,251.022 254.5,252C 252.369,253.647 250.369,253.314 248.5,251C 246.527,250.505 244.527,250.338 242.5,250.5C 242.278,246.944 243.611,244.277 246.5,242.5 Z"/></g>
<g><path style="opacity:1" fill="#fefffe" d="M 281.5,242.5 C 284.556,243.387 286.889,245.22 288.5,248C 284.064,248.248 279.73,247.581 275.5,246C 277.432,244.541 279.432,243.375 281.5,242.5 Z"/></g>
<g><path style="opacity:1" fill="#fec90d" d="M 304.5,243.5 C 307.861,244.203 308.194,245.537 305.5,247.5C 303.358,246.563 303.024,245.23 304.5,243.5 Z"/></g>
<g><path style="opacity:1" fill="#7e7f7e" d="M 263.5,244.5 C 266.205,244.38 266.872,245.38 265.5,247.5C 263.772,249.226 261.772,250.559 259.5,251.5C 257.167,250.333 254.833,249.167 252.5,248C 256.114,246.409 259.78,245.242 263.5,244.5 Z"/></g>
<g><path style="opacity:1" fill="#b87a56" d="M 268.5,247.5 C 271.839,247.89 275.173,248.39 278.5,249C 275.922,251.074 273.922,253.574 272.5,256.5C 269.161,255.332 265.828,254.166 262.5,253C 265.185,251.839 267.185,250.006 268.5,247.5 Z"/></g>
<g><path style="opacity:1" fill="#000000" d="M 237.5,257.5 C 235.538,255.575 234.705,253.242 235,250.5C 236.411,252.65 237.245,254.984 237.5,257.5 Z"/></g>
<g><path style="opacity:1" fill="#f9a884" d="M 286.5,250.5 C 288.132,250.825 289.132,251.825 289.5,253.5C 290.197,257.471 290.697,261.471 291,265.5C 292.663,267.158 293.496,269.158 293.5,271.5C 287.928,270.921 282.594,269.421 277.5,267C 277.458,262.701 277.625,258.201 278,253.5C 278.667,252.833 279.333,252.167 280,251.5C 280.171,256.533 280.671,261.533 281.5,266.5C 281.833,266.333 282.167,266.167 282.5,266C 281.531,261.263 281.197,256.43 281.5,251.5C 282.833,251.5 284.167,251.5 285.5,251.5C 285.054,257.021 285.554,262.355 287,267.5C 286.598,261.919 286.431,256.253 286.5,250.5 Z"/></g>
<g><path style="opacity:1" fill="#b87a56" d="M 291.5,251.5 C 314.178,255.202 336.511,260.369 358.5,267C 356.845,268.444 356.178,270.278 356.5,272.5C 335.283,269.423 314.283,265.257 293.5,260C 292.675,257.222 292.008,254.389 291.5,251.5 Z"/></g>
<g><path style="opacity:1" fill="#f9a884" d="M 241.5,253.5 C 247.891,253.285 248.058,254.285 242,256.5C 241.517,255.552 241.351,254.552 241.5,253.5 Z"/></g>
<g><path style="opacity:1" fill="#fefffe" d="M 255.5,254.5 C 256.552,254.351 257.552,254.517 258.5,255C 257.422,255.674 256.755,256.674 256.5,258C 257.507,260.517 258.674,263.017 260,265.5C 263.897,268.112 267.897,270.445 272,272.5C 273.887,272.031 275.387,271.031 276.5,269.5C 278.795,270.432 281.129,271.265 283.5,272C 281.899,272.273 280.399,272.773 279,273.5C 278.342,275.108 278.842,276.275 280.5,277C 273.18,282.01 266.514,281.177 260.5,274.5C 258.391,271.679 256.558,268.679 255,265.5C 252.715,264.181 250.548,262.681 248.5,261C 249.872,259.758 250.872,258.258 251.5,256.5C 252.949,255.828 254.282,255.161 255.5,254.5 Z"/></g>
<g><path style="opacity:1" fill="#fefffe" d="M 263.5,257.5 C 263.735,256.903 264.235,256.57 265,256.5C 267.724,257.687 270.557,258.353 273.5,258.5C 273.66,260.199 273.494,261.866 273,263.5C 269.89,261.364 266.723,259.364 263.5,257.5 Z"/></g>
<g><path style="opacity:1" fill="#fefffe" d="M 259.5,259.5 C 259.56,258.957 259.893,258.624 260.5,258.5C 265.033,261.598 269.7,264.431 274.5,267C 273.299,267.903 272.465,269.069 272,270.5C 269.592,268.044 266.759,266.211 263.5,265C 262.023,263.188 260.69,261.355 259.5,259.5 Z"/></g>
<g><path style="opacity:1" fill="#dedfde" d="M 243.5,261.5 C 249.575,262.652 251.075,265.652 248,270.5C 247.667,274.5 247.333,278.5 247,282.5C 245.054,281.253 243.22,279.92 241.5,278.5C 242.406,272.876 243.072,267.209 243.5,261.5 Z"/></g>
<g><path style="opacity:1" fill="#fefffe" d="M 292.5,263.5 C 293.672,262.295 295.005,262.295 296.5,263.5C 297.316,265.287 298.316,266.954 299.5,268.5C 298.311,269.429 296.978,269.762 295.5,269.5C 295.539,266.911 294.539,264.911 292.5,263.5 Z"/></g>
<g><path style="opacity:1" fill="#fec90d" d="M 300.5,263.5 C 303.788,264.88 305.788,267.38 306.5,271C 306,271.5 305.5,272 305,272.5C 302.962,269.757 301.462,266.757 300.5,263.5 Z"/></g>
<g><path style="opacity:1" fill="#fefffe" d="M 306.5,266.5 C 321.34,268.24 336.173,271.24 351,275.5C 351.402,276.872 351.902,278.205 352.5,279.5C 352,279.833 351.5,280.167 351,280.5C 337.192,277.189 323.358,274.022 309.5,271C 308.219,269.591 307.219,268.091 306.5,266.5 Z"/></g>
<g><path style="opacity:1" fill="#fec90d" d="M 361.5,265.5 C 367.914,265.033 368.747,266.699 364,270.5C 363.355,273.559 362.522,276.559 361.5,279.5C 359.826,277.651 358.826,275.484 358.5,273C 359.748,270.59 360.748,268.09 361.5,265.5 Z"/></g>
<g><path style="opacity:1" fill="#fdfdfd" d="M 266.5,291.5 C 271.091,297.129 277.091,300.129 284.5,300.5C 283.841,303.455 283.508,306.455 283.5,309.5C 282.513,314.305 282.179,319.305 282.5,324.5C 277.64,333.875 272.474,343.209 267,352.5C 267.003,358.075 266.169,363.408 264.5,368.5C 263.584,368.982 262.584,369.315 261.5,369.5C 257.251,367.539 252.917,365.872 248.5,364.5C 248.357,342.486 248.857,320.486 250,298.5C 251.405,289.403 252.738,280.403 254,271.5C 253.085,272.328 252.419,273.328 252,274.5C 251.824,277.882 251.324,281.215 250.5,284.5C 249.34,280.541 249.173,276.541 250,272.5C 250.26,270.382 251.26,268.716 253,267.5C 255.301,274.3 259.801,278.967 266.5,281.5C 267.037,284.773 266.37,287.939 264.5,291C 265.094,291.464 265.761,291.631 266.5,291.5 Z"/></g>
<g><path style="opacity:1" fill="#b87a56" d="M 368.5,269.5 C 384.621,272.363 400.621,275.863 416.5,280C 417.357,280.689 418.023,281.522 418.5,282.5C 416.823,284.54 415.156,286.54 413.5,288.5C 397.251,284.35 380.917,280.516 364.5,277C 365.026,274.037 366.359,271.537 368.5,269.5 Z"/></g>
<g><path style="opacity:1" fill="#ec1c23" d="M 295.5,271.5 C 297.339,272.752 299.172,272.752 301,271.5C 302.242,273.541 304.075,274.707 306.5,275C 303.758,276.12 301.258,277.62 299,279.5C 295.843,277.683 292.677,275.85 289.5,274C 292.051,273.998 294.051,273.164 295.5,271.5 Z"/></g>
<g><path style="opacity:1" fill="#fefffe" d="M 280.5,273.5 C 282.429,273.231 284.095,273.731 285.5,275C 283.5,277 281.5,277 279.5,275C 280.056,274.617 280.389,274.117 280.5,273.5 Z"/></g>
<g><path style="opacity:1" fill="#3f47cc" d="M 311.5,273.5 C 316.437,275.089 321.437,276.589 326.5,278C 324.339,284.168 320.006,286.834 313.5,286C 309.385,284.777 305.718,282.777 302.5,280C 306.276,278.791 309.276,276.624 311.5,273.5 Z"/></g>
<g><path style="opacity:1" fill="#fec90d" d="M 353.5,274.5 C 356.997,276.144 358.164,278.477 357,281.5C 354.619,279.906 353.453,277.573 353.5,274.5 Z"/></g>
<g><path style="opacity:1" fill="#fefffe" d="M 286.5,275.5 C 290.22,277.05 293.553,279.217 296.5,282C 295.234,282.309 294.067,282.809 293,283.5C 289.784,281.807 286.617,279.973 283.5,278C 284.571,277.148 285.571,276.315 286.5,275.5 Z"/></g>
<g><path style="opacity:1" fill="#fbfbfb" d="M 283.5,309.5 C 289.935,308.19 296.269,306.357 302.5,304C 305.329,300.827 304.495,299.327 300,299.5C 295.147,300.127 290.314,300.794 285.5,301.5C 286.23,295.247 285.896,292.581 284.5,293.5C 278.554,292.599 272.887,290.932 267.5,288.5C 267.833,286.5 268.167,284.5 268.5,282.5C 272.943,282.579 277.277,281.913 281.5,280.5C 285.018,282.841 288.851,284.508 293,285.5C 296.151,284.894 299.151,283.894 302,282.5C 304.093,285.044 305.093,288.044 305,291.5C 305.192,289.423 305.692,287.423 306.5,285.5C 307.912,286.806 309.579,287.64 311.5,288C 314.758,288.212 317.924,288.712 321,289.5C 322.145,298.675 322.311,307.841 321.5,317C 322.074,321.348 322.74,325.682 323.5,330C 322.078,341.787 321.078,353.621 320.5,365.5C 311.671,363.937 303.005,364.27 294.5,366.5C 291.506,352.037 288.006,337.704 284,323.5C 283.501,318.845 283.334,314.179 283.5,309.5 Z"/></g>
<g><path style="opacity:1" fill="#fec90d" d="M 428.5,280.5 C 430.5,280.833 432.5,281.167 434.5,281.5C 432.624,286.254 430.458,290.921 428,295.5C 424.087,292.957 419.92,291.124 415.5,290C 418.039,287.958 420.039,285.458 421.5,282.5C 423.969,281.832 426.302,281.165 428.5,280.5 Z"/></g>
<g><path style="opacity:1" fill="#7e7f7e" d="M 511.5,303.5 C 491.951,299.823 472.451,295.823 453,291.5C 452.167,291.667 451.333,291.833 450.5,292C 448.987,294.846 446.821,297.013 444,298.5C 439.54,297.604 435.707,295.604 432.5,292.5C 433.913,289.339 435.58,286.339 437.5,283.5C 439.758,282.582 442.091,281.915 444.5,281.5C 464.351,286.214 484.018,291.714 503.5,298C 485.34,294.794 467.34,290.628 449.5,285.5C 447.775,286.015 446.108,286.682 444.5,287.5C 467.063,292.392 489.396,297.725 511.5,303.5 Z"/></g>
<g><path style="opacity:1" fill="#dedfde" d="M 267.5,288.5 C 272.887,290.932 278.554,292.599 284.5,293.5C 284.5,295.833 284.5,298.167 284.5,300.5C 277.091,300.129 271.091,297.129 266.5,291.5C 266.557,290.391 266.89,289.391 267.5,288.5 Z"/></g>
<g><path style="opacity:1" fill="#bebebe" d="M 283.5,309.5 C 283.508,306.455 283.841,303.455 284.5,300.5C 284.5,298.167 284.5,295.833 284.5,293.5C 285.896,292.581 286.23,295.247 285.5,301.5C 290.314,300.794 295.147,300.127 300,299.5C 304.495,299.327 305.329,300.827 302.5,304C 296.269,306.357 289.935,308.19 283.5,309.5 Z"/></g>
<g><path style="opacity:1" fill="#7e7f7e" d="M 507.5,300.5 C 510.377,299.482 513.377,299.649 516.5,301C 513.493,301.301 510.493,301.135 507.5,300.5 Z"/></g>
<g><path style="opacity:1" fill="#7e7f7e" d="M 511.5,303.5 C 515.841,303.658 519.841,304.658 523.5,306.5C 519.226,306.13 515.226,305.13 511.5,303.5 Z"/></g>
<g><path style="opacity:1" fill="#7e7f7e" d="M 523.5,306.5 C 526.92,305.189 530.253,305.356 533.5,307C 532.5,307.5 531.5,308 530.5,308.5C 528.018,307.933 525.684,307.266 523.5,306.5 Z"/></g>
<g><path style="opacity:1" fill="#dedfde" d="M 282.5,324.5 C 283.097,324.735 283.43,325.235 283.5,326C 279.887,337.534 277.054,349.367 275,361.5C 272.774,365.699 269.274,368.033 264.5,368.5C 266.169,363.408 267.003,358.075 267,352.5C 272.474,343.209 277.64,333.875 282.5,324.5 Z"/></g>
</svg>
