<?xml version="1.0" encoding="UTF-8"?>
<!DOCTYPE svg PUBLIC "-//W3C//DTD SVG 1.1//EN" "http://www.w3.org/Graphics/SVG/1.1/DTD/svg11.dtd">
<svg xmlns="http://www.w3.org/2000/svg" version="1.1" width="399px" height="505px" style="shape-rendering:geometricPrecision; text-rendering:geometricPrecision; image-rendering:optimizeQuality; fill-rule:evenodd; clip-rule:evenodd" xmlns:xlink="http://www.w3.org/1999/xlink">
<g><path style="opacity:1" fill="#fefffe" d="M 246.5,55.5 C 254.553,55.2252 262.553,55.7252 270.5,57C 272.346,59.0924 274.679,60.4258 277.5,61C 278.701,61.9025 279.535,63.0692 280,64.5C 280.667,68.8333 280.667,73.1667 280,77.5C 279.159,81.9773 277.992,86.3106 276.5,90.5C 278.051,99.4236 277.718,108.257 275.5,117C 278.415,123.332 280.915,129.832 283,136.5C 284.912,138.657 286.579,140.991 288,143.5C 288.667,150.5 288.667,157.5 288,164.5C 287.727,167.393 286.893,170.06 285.5,172.5C 286.327,175.783 286.66,179.116 286.5,182.5C 293.378,180.844 300.378,180.344 307.5,181C 309.923,182.571 311.256,184.737 311.5,187.5C 318.252,188.07 322.919,191.57 325.5,198C 326.273,204.129 326.773,210.296 327,216.5C 328.74,217.716 329.74,219.382 330,221.5C 332.797,238.387 333.797,255.387 333,272.5C 331.167,278.333 327.333,282.167 321.5,284C 324.191,283.946 326.024,285.113 327,287.5C 330.951,298.868 332.618,310.535 332,322.5C 330.692,324.641 329.192,326.641 327.5,328.5C 330.919,330.626 334.419,332.626 338,334.5C 339.248,341.215 338.248,347.548 335,353.5C 333.333,356.833 331.667,360.167 330,363.5C 328.933,364.191 327.766,364.691 326.5,365C 331.626,372.46 337.793,378.96 345,384.5C 345.667,388.5 345.667,392.5 345,396.5C 343.581,397.46 342.081,398.293 340.5,399C 341.789,403.103 342.956,407.27 344,411.5C 345,412.167 346,412.833 347,413.5C 347.36,415.608 348.027,417.608 349,419.5C 352.473,422.061 355.473,425.061 358,428.5C 358.667,433.5 358.667,438.5 358,443.5C 356.623,445.754 355.123,447.92 353.5,450C 336.404,457.68 318.737,459.68 300.5,456C 299.368,451.587 299.201,447.087 300,442.5C 302.724,441.108 305.557,439.942 308.5,439C 310.5,436.333 312.5,433.667 314.5,431C 310.126,423.085 305.626,415.252 301,407.5C 297.645,402.644 293.478,398.644 288.5,395.5C 287.571,394.311 287.238,392.978 287.5,391.5C 285.143,391.663 282.81,391.497 280.5,391C 277.13,387.965 274.13,384.632 271.5,381C 268.711,380.759 266.044,380.092 263.5,379C 260.386,375.94 257.886,372.44 256,368.5C 251.91,373.018 248.577,378.018 246,383.5C 246.362,394.153 246.362,404.82 246,415.5C 238.802,429.023 236.468,443.356 239,458.5C 238.235,461.196 237.068,463.696 235.5,466C 219.225,465.259 202.892,464.592 186.5,464C 182.016,463.129 177.683,461.796 173.5,460C 172.107,458.829 171.273,457.329 171,455.5C 170.333,450.833 170.333,446.167 171,441.5C 171.75,440.874 172.584,440.374 173.5,440C 184.393,440.968 193.893,437.801 202,430.5C 202.93,417.809 204.097,405.142 205.5,392.5C 203.691,383.907 203.191,375.241 204,366.5C 205.23,363.268 207.23,360.601 210,358.5C 212.279,348.32 216.112,338.82 221.5,330C 214.591,327.53 207.591,325.364 200.5,323.5C 195.533,324.561 190.533,324.728 185.5,324C 181.167,322.333 176.833,320.667 172.5,319C 172.004,317.004 171.004,315.337 169.5,314C 145.24,307.518 120.907,301.518 96.5,296C 95.6634,294.989 95.33,293.822 95.5,292.5C 90.5815,293.628 86.9148,292.128 84.5,288C 81.3004,287.899 78.3004,287.232 75.5,286C 69.8333,285.667 64.1667,285.333 58.5,285C 46.4425,280.137 34.1092,276.137 21.5,273C 18.5,271.167 15.5,269.333 12.5,267.5C 11.5159,264.572 11.1826,261.572 11.5,258.5C 31.1633,258.816 50.6633,260.816 70,264.5C 76.0598,262.659 82.2265,262.159 88.5,263C 90.3325,263.748 91.9991,264.748 93.5,266C 101.539,267.141 109.539,268.474 117.5,270C 118.337,271.011 118.67,272.178 118.5,273.5C 136.148,280.324 154.314,285.657 173,289.5C 174.971,289.532 176.471,288.698 177.5,287C 181.5,286.667 185.5,286.333 189.5,286C 195.83,281.342 201.997,276.508 208,271.5C 213.24,262.022 218.24,252.355 223,242.5C 220.989,231.908 224.156,223.408 232.5,217C 228.985,215.844 226.985,213.344 226.5,209.5C 225.186,208.687 224.019,207.687 223,206.5C 221.641,201.225 221.308,195.891 222,190.5C 222.972,188.695 224.139,187.028 225.5,185.5C 223.399,179.694 222.233,173.694 222,167.5C 217.025,158.244 213.025,148.577 210,138.5C 206.526,120.62 213.693,109.453 231.5,105C 235.821,104.501 240.154,104.334 244.5,104.5C 243.446,96.8565 242.446,89.1898 241.5,81.5C 240.522,81.0233 239.689,80.3567 239,79.5C 238.149,73.7469 238.483,68.0802 240,62.5C 242.255,60.2801 244.422,57.9468 246.5,55.5 Z M 233.5,299.5 C 235.074,301.102 235.741,303.102 235.5,305.5C 232.608,305.279 229.941,304.446 227.5,303C 229.727,302.059 231.727,300.892 233.5,299.5 Z"/></g>
<g><path style="opacity:1" fill="#000000" d="M 248.5,57.5 C 255.222,57.2896 261.888,57.7896 268.5,59C 270.346,61.0924 272.679,62.4258 275.5,63C 276.701,63.9025 277.535,65.0692 278,66.5C 277.997,73.1996 277.33,79.8663 276,86.5C 275.167,87.3333 274.333,88.1667 273.5,89C 276.336,99.1159 276.003,109.116 272.5,119C 276.293,125.086 279.126,131.586 281,138.5C 282.912,140.657 284.579,142.991 286,145.5C 287.095,154.766 286.262,163.766 283.5,172.5C 284.066,177.159 284.566,181.826 285,186.5C 285.5,186 286,185.5 286.5,185C 291.622,184.71 296.622,183.877 301.5,182.5C 306.044,182.711 308.71,185.045 309.5,189.5C 316.252,190.07 320.919,193.57 323.5,200C 324.811,205.513 324.811,211.013 323.5,216.5C 327.712,221.658 329.879,227.658 330,234.5C 331.07,246.488 331.403,258.488 331,270.5C 329.92,272.996 328.586,275.33 327,277.5C 324.041,279.389 321.208,281.389 318.5,283.5C 320.653,285.564 322.82,287.564 325,289.5C 327.548,298.191 329.381,307.024 330.5,316C 329.871,322.309 326.538,326.642 320.5,329C 325.62,331.06 330.62,333.393 335.5,336C 336.61,338.737 336.777,341.571 336,344.5C 333.606,350.287 330.94,355.954 328,361.5C 326.266,362.249 324.433,362.749 322.5,363C 327.527,372.363 334.36,380.197 343,386.5C 345.021,392.265 343.188,395.932 337.5,397.5C 339.311,402.744 340.811,408.077 342,413.5C 343,414.167 344,414.833 345,415.5C 345.36,417.608 346.027,419.608 347,421.5C 350.473,424.061 353.473,427.061 356,430.5C 357.702,437.245 356.202,443.078 351.5,448C 335.727,455.347 319.394,457.347 302.5,454C 301.383,450.927 301.216,447.76 302,444.5C 304.724,443.108 307.557,441.942 310.5,441C 313.026,437.974 315.36,434.807 317.5,431.5C 312.34,420.505 306.173,410.172 299,400.5C 296.603,397.6 293.77,395.267 290.5,393.5C 289.571,392.311 289.238,390.978 289.5,389.5C 287.143,389.663 284.81,389.497 282.5,389C 279.13,385.965 276.13,382.632 273.5,379C 268.688,379.177 264.855,377.344 262,373.5C 260.5,370.5 259,367.5 257.5,364.5C 256.998,363.479 256.332,363.312 255.5,364C 250.85,369.313 247.017,375.146 244,381.5C 244.148,392.162 244.148,402.829 244,413.5C 236.664,427.14 234.33,441.473 237,456.5C 236.275,458.949 235.275,461.283 234,463.5C 226.252,465.256 218.752,464.589 211.5,461.5C 199.149,463.636 187.149,462.469 175.5,458C 174.107,456.829 173.273,455.329 173,453.5C 172.211,449.909 172.378,446.409 173.5,443C 185.079,443.628 195.246,440.128 204,432.5C 205.025,419.154 206.191,405.821 207.5,392.5C 205.902,384.559 205.402,376.559 206,368.5C 207.23,365.268 209.23,362.601 212,360.5C 214.472,349.063 218.972,338.563 225.5,329C 217,325.667 208.333,322.833 199.5,320.5C 195.743,322.418 191.743,322.918 187.5,322C 183.167,320.333 178.833,318.667 174.5,317C 174.004,315.004 173.004,313.337 171.5,312C 147.24,305.518 122.907,299.518 98.5,294C 97.6634,292.989 97.33,291.822 97.5,290.5C 92.5815,291.628 88.9148,290.128 86.5,286C 82.1848,286.16 78.3514,284.994 75,282.5C 70.2523,283.635 65.419,283.802 60.5,283C 48.4425,278.137 36.1092,274.137 23.5,271C 20.5,269.167 17.5,267.333 14.5,265.5C 13.5481,263.955 13.2148,262.288 13.5,260.5C 33.2137,261.021 52.7137,263.355 72,267.5C 78.6215,263.436 85.1215,263.603 91.5,268C 99.5391,269.141 107.539,270.474 115.5,272C 116.337,273.011 116.67,274.178 116.5,275.5C 125.999,278.103 135.332,281.27 144.5,285C 153.919,287.563 163.419,289.73 173,291.5C 175.664,291.809 177.83,290.975 179.5,289C 183.5,288.667 187.5,288.333 191.5,288C 195.19,284.825 199.19,282.158 203.5,280C 207.752,276.419 211.252,272.252 214,267.5C 217.394,259.712 221.061,252.045 225,244.5C 225.333,239.167 225.667,233.833 226,228.5C 229.799,223.699 233.966,219.199 238.5,215C 236.167,214.667 233.833,214.333 231.5,214C 230.446,210.054 228.279,206.888 225,204.5C 222.095,197.48 223.262,191.313 228.5,186C 225.976,179.419 224.476,172.586 224,165.5C 219.025,156.244 215.025,146.577 212,136.5C 211.333,131.833 211.333,127.167 212,122.5C 220.815,109.511 232.982,104.344 248.5,107C 247.874,106.25 247.374,105.416 247,104.5C 245.673,96.1922 244.507,87.8588 243.5,79.5C 241.016,77.9085 240.016,75.5752 240.5,72.5C 240.411,68.9332 241.245,65.5999 243,62.5C 245.328,61.3365 247.162,59.6698 248.5,57.5 Z M 233.5,299.5 C 231.727,300.892 229.727,302.059 227.5,303C 229.941,304.446 232.608,305.279 235.5,305.5C 235.741,303.102 235.074,301.102 233.5,299.5 Z"/></g>
<g><path style="opacity:1" fill="#e51a22" d="M 268.5,92.5 C 263.171,89.7249 257.504,88.8916 251.5,90C 256.904,93.7454 262.904,95.5788 269.5,95.5C 268.064,99.1453 268.398,102.645 270.5,106C 269.089,111.407 267.256,116.907 265,122.5C 263.247,121.373 261.413,120.373 259.5,119.5C 258.648,117.076 257.648,114.742 256.5,112.5C 258.833,112.5 261.167,112.5 263.5,112.5C 263.703,110.61 263.037,109.11 261.5,108C 259.26,107.023 256.927,106.523 254.5,106.5C 253.678,104.611 252.845,102.611 252,100.5C 251.676,95.2483 250.843,90.0816 249.5,85C 250.796,82.2664 251.296,79.433 251,76.5C 248.863,75.5214 247.029,74.1881 245.5,72.5C 249.754,61.9249 257.088,59.4249 267.5,65C 274.629,68.615 274.795,72.115 268,75.5C 266.959,78.6363 267.793,81.1363 270.5,83C 268.66,85.8263 267.994,88.9929 268.5,92.5 Z"/></g>
<g><path style="opacity:1" fill="#a50d13" d="M 262.5,66.5 C 265.311,66.8257 267.978,67.6591 270.5,69C 271.784,70.2975 271.617,71.4642 270,72.5C 266.889,70.2285 263.389,69.0619 259.5,69C 260.571,68.1482 261.571,67.3149 262.5,66.5 Z"/></g>
<g><path style="opacity:1" fill="#a50d13" d="M 258.5,72.5 C 260.92,72.2924 263.253,72.6258 265.5,73.5C 266.583,74.365 266.749,75.365 266,76.5C 263.204,77.2113 260.37,77.878 257.5,78.5C 256.23,76.2432 256.564,74.2432 258.5,72.5 Z"/></g>
<g><path style="opacity:1" fill="#a50d13" d="M 259.5,81.5 C 261.857,81.3367 264.19,81.5034 266.5,82C 267.833,83 267.833,84 266.5,85C 262.789,85.8253 259.122,85.6586 255.5,84.5C 256.624,83.1408 257.958,82.1408 259.5,81.5 Z"/></g>
<g><path style="opacity:1" fill="#a50d13" d="M 268.5,92.5 C 269.404,93.209 269.737,94.209 269.5,95.5C 262.904,95.5788 256.904,93.7454 251.5,90C 257.504,88.8916 263.171,89.7249 268.5,92.5 Z"/></g>
<g><path style="opacity:1" fill="#a50d13" d="M 259.5,99.5 C 262.167,99.5 264.833,99.5 267.5,99.5C 267.807,101.446 267.807,103.113 267.5,104.5C 263.939,103.239 260.272,102.406 256.5,102C 257.571,101.148 258.571,100.315 259.5,99.5 Z"/></g>
<g><path style="opacity:1" fill="#a50d13" d="M 254.5,106.5 C 256.927,106.523 259.26,107.023 261.5,108C 263.037,109.11 263.703,110.61 263.5,112.5C 261.167,112.5 258.833,112.5 256.5,112.5C 255.833,110.5 255.167,108.5 254.5,106.5 Z"/></g>
<g><path style="opacity:1" fill="#272727" d="M 237.5,111.5 C 242.598,112.191 247.598,113.358 252.5,115C 254.436,116.362 255.769,118.195 256.5,120.5C 261.782,123.057 266.948,125.723 272,128.5C 275.483,137.241 277.149,146.241 277,155.5C 276.691,156.766 276.191,157.933 275.5,159C 268.917,162.66 262.25,162.993 255.5,160C 244.009,155.09 233.676,148.424 224.5,140C 219.123,138.81 216.457,135.31 216.5,129.5C 220.44,119.891 227.44,113.891 237.5,111.5 Z"/></g>
<g><path style="opacity:1" fill="#fefffe" d="M 262.5,128.5 C 270.642,128.481 273.808,132.481 272,140.5C 267.155,146.079 262.822,145.746 259,139.5C 257.906,135.041 259.073,131.374 262.5,128.5 Z"/></g>
<g><path style="opacity:1" fill="#ec1c23" d="M 264.5,130.5 C 267.238,129.965 269.072,130.965 270,133.5C 270.93,141.603 268.263,143.27 262,138.5C 261.018,135.225 261.851,132.559 264.5,130.5 Z"/></g>
<g><path style="opacity:1" fill="#3f47cc" d="M 265.5,132.5 C 270.024,134.327 270.357,136.66 266.5,139.5C 262.967,137.58 262.633,135.246 265.5,132.5 Z"/></g>
<g><path style="opacity:1" fill="#fefffe" d="M 224.5,148.5 C 222.908,149.602 222.075,148.935 222,146.5C 221.202,144.741 221.369,143.074 222.5,141.5C 223.086,141.709 223.586,142.043 224,142.5C 224.495,144.473 224.662,146.473 224.5,148.5 Z"/></g>
<g><path style="opacity:1" fill="#dfdfdf" d="M 228.5,148.5 C 229.833,149.5 229.833,150.5 228.5,151.5C 225.6,152.954 224.267,151.954 224.5,148.5C 225.29,147.391 225.79,146.058 226,144.5C 226.934,145.858 227.768,147.192 228.5,148.5 Z"/></g>
<g><path style="opacity:1" fill="#fefffe" d="M 228.5,148.5 C 228.897,147.475 229.563,147.308 230.5,148C 231.582,149.33 232.249,150.83 232.5,152.5C 230.962,154.777 229.629,154.444 228.5,151.5C 229.833,150.5 229.833,149.5 228.5,148.5 Z"/></g>
<g><path style="opacity:1" fill="#fefffe" d="M 232.5,152.5 C 233.52,150.066 234.853,150.066 236.5,152.5C 238.121,157.319 236.954,158.319 233,155.5C 232.517,154.552 232.351,153.552 232.5,152.5 Z"/></g>
<g><path style="opacity:1" fill="#fefffe" d="M 280.5,155.5 C 279.527,153.932 279.36,152.265 280,150.5C 281.677,152.148 281.844,153.815 280.5,155.5 Z"/></g>
<g><path style="opacity:1" fill="#fefffe" d="M 238.5,153.5 C 243.325,155.978 243.325,157.644 238.5,158.5C 238.5,156.833 238.5,155.167 238.5,153.5 Z"/></g>
<g><path style="opacity:1" fill="#272727" d="M 247.5,162.5 C 247.577,163.75 248.244,164.583 249.5,165C 258.913,168.662 268.413,169.162 278,166.5C 278.241,171.705 278.741,176.872 279.5,182C 278.557,186.828 277.057,191.328 275,195.5C 271.258,197.019 267.424,198.352 263.5,199.5C 261.46,198.43 260.126,196.763 259.5,194.5C 261.341,190.817 260.341,188.484 256.5,187.5C 253.813,187.664 251.146,187.497 248.5,187C 245.494,178.003 240.827,170.003 234.5,163C 232.527,162.505 230.527,162.338 228.5,162.5C 227.357,159.885 226.524,157.218 226,154.5C 232.599,158.645 239.766,161.311 247.5,162.5 Z"/></g>
<g><path style="opacity:1" fill="#fefffe" d="M 280.5,155.5 C 281.872,157.477 281.538,159.144 279.5,160.5C 277.977,158.414 278.31,156.748 280.5,155.5 Z"/></g>
<g><path style="opacity:1" fill="#fefffe" d="M 243.5,156.5 C 245.283,157.114 246.616,158.28 247.5,160C 244.828,160.485 243.495,159.318 243.5,156.5 Z"/></g>
<g><path style="opacity:1" fill="#fefffe" d="M 247.5,162.5 C 248.63,159.116 250.297,159.116 252.5,162.5C 250.997,163.052 249.331,163.052 247.5,162.5 Z"/></g>
<g><path style="opacity:1" fill="#f2f2f2" d="M 279.5,160.5 C 280.796,164.033 279.629,165.033 276,163.5C 274.688,165.658 273.022,165.991 271,164.5C 269.164,166.604 266.998,166.938 264.5,165.5C 269.272,163.21 274.272,161.543 279.5,160.5 Z"/></g>
<g><path style="opacity:1" fill="#fefffe" d="M 258.5,164.5 C 256.833,164.5 255.167,164.5 253.5,164.5C 253.351,163.448 253.517,162.448 254,161.5C 255.878,162.053 257.378,163.053 258.5,164.5 Z"/></g>
<g><path style="opacity:1" fill="#fefffe" d="M 258.5,164.5 C 260.166,163.334 261.833,163.334 263.5,164.5C 261.701,165.788 260.035,165.788 258.5,164.5 Z"/></g>
<g><path style="opacity:1" fill="#fec90d" d="M 229.5,164.5 C 232.325,164.081 234.491,165.081 236,167.5C 238.641,171.951 241.141,176.451 243.5,181C 239.534,181.828 235.534,182.328 231.5,182.5C 230.947,178.237 229.947,174.07 228.5,170C 229.233,168.234 229.567,166.401 229.5,164.5 Z"/></g>
<g><path style="opacity:1" fill="#e96f3c" d="M 245.5,185.5 C 241.824,186.754 238.324,188.421 235,190.5C 234.292,189.619 233.458,188.953 232.5,188.5C 232.67,187.178 232.337,186.011 231.5,185C 233.061,184.812 233.728,185.645 233.5,187.5C 234.791,187.737 235.791,187.404 236.5,186.5C 236.5,185.833 236.833,185.5 237.5,185.5C 240.236,182.852 242.902,182.852 245.5,185.5 Z"/></g>
<g><path style="opacity:1" fill="#fefffe" d="M 237.5,185.5 C 236.833,185.5 236.5,185.833 236.5,186.5C 235.711,186.217 235.044,185.717 234.5,185C 235.749,184.26 236.749,184.427 237.5,185.5 Z"/></g>
<g><path style="opacity:1" fill="#eda07e" d="M 245.5,185.5 C 245.5,186.167 245.5,186.833 245.5,187.5C 241.196,191.377 241.863,193.543 247.5,194C 248.71,192.961 249.71,191.794 250.5,190.5C 252.574,189.486 254.574,188.486 256.5,187.5C 260.341,188.484 261.341,190.817 259.5,194.5C 258.761,194.369 258.094,194.536 257.5,195C 258.26,196.441 258.926,197.941 259.5,199.5C 256.263,201.035 253.097,202.702 250,204.5C 249.667,203.5 249.333,202.5 249,201.5C 248.648,203.247 248.148,204.914 247.5,206.5C 246.198,208.822 244.198,210.155 241.5,210.5C 238.823,211.614 236.156,211.614 233.5,210.5C 232.691,208.929 232.357,207.262 232.5,205.5C 233.5,205.5 234.5,205.5 235.5,205.5C 237.112,206.555 238.445,206.055 239.5,204C 239.169,201.122 237.836,198.956 235.5,197.5C 232.642,196.834 229.642,196.167 226.5,195.5C 227.856,192.487 229.856,190.153 232.5,188.5C 233.458,188.953 234.292,189.619 235,190.5C 238.324,188.421 241.824,186.754 245.5,185.5 Z"/></g>
<g><path style="opacity:1" fill="#fefffe" d="M 300.5,186.5 C 304.093,187.43 305.759,189.763 305.5,193.5C 304.5,193.5 303.5,193.5 302.5,193.5C 302.567,190.234 300.901,188.734 297.5,189C 298.571,188.148 299.571,187.315 300.5,186.5 Z"/></g>
<g><path style="opacity:1" fill="#613e2b" d="M 245.5,187.5 C 247.113,188.692 248.78,189.692 250.5,190.5C 249.71,191.794 248.71,192.961 247.5,194C 241.863,193.543 241.196,191.377 245.5,187.5 Z"/></g>
<g><path style="opacity:1" fill="#fefffe" d="M 289.5,188.5 C 294.472,188.242 295.639,190.242 293,194.5C 291.758,192.459 289.925,191.293 287.5,191C 288.381,190.292 289.047,189.458 289.5,188.5 Z"/></g>
<g><path style="opacity:1" fill="#fefffe" d="M 279.5,190.5 C 284.159,190.015 285.492,191.848 283.5,196C 278.165,196.536 276.832,194.702 279.5,190.5 Z"/></g>
<g><path style="opacity:1" fill="#577091" d="M 306.5,196.5 C 313.676,202.569 315.343,209.902 311.5,218.5C 310.533,219.806 309.199,220.473 307.5,220.5C 307.737,219.209 307.404,218.209 306.5,217.5C 305.448,213.348 304.614,209.015 304,204.5C 302.389,201.062 300.223,198.062 297.5,195.5C 300.455,194.632 303.455,194.965 306.5,196.5 Z"/></g>
<g><path style="opacity:1" fill="#fefffe" d="M 310.5,196.5 C 315.362,202.419 316.695,209.085 314.5,216.5C 313.842,217.398 313.176,218.398 312.5,219.5C 311.893,219.376 311.56,219.043 311.5,218.5C 315.343,209.902 313.676,202.569 306.5,196.5C 306.369,195.624 306.702,194.957 307.5,194.5C 308.518,195.193 309.518,195.859 310.5,196.5 Z"/></g>
<g><path style="opacity:1" fill="#fefffe" d="M 289.5,197.5 C 291.488,199.465 292.988,201.798 294,204.5C 294.641,210.528 294.474,216.528 293.5,222.5C 292.039,223.686 290.705,223.686 289.5,222.5C 290.966,221.653 291.8,220.32 292,218.5C 292.667,213.833 292.667,209.167 292,204.5C 290.334,201.669 288.168,199.336 285.5,197.5C 286.594,195.164 287.927,195.164 289.5,197.5 Z"/></g>
<g><path style="opacity:1" fill="#fefffe" d="M 294.5,196.5 C 295.209,195.596 296.209,195.263 297.5,195.5C 300.223,198.062 302.389,201.062 304,204.5C 304.614,209.015 305.448,213.348 306.5,217.5C 306.198,220.059 306.532,222.393 307.5,224.5C 307.444,229.731 308.111,234.731 309.5,239.5C 309.198,242.059 309.532,244.393 310.5,246.5C 310.205,248.735 310.539,250.735 311.5,252.5C 311.666,258.509 311.499,264.509 311,270.5C 309.338,273.649 307.505,276.649 305.5,279.5C 303.389,280.742 301.389,280.742 299.5,279.5C 306.759,274.994 310.426,268.327 310.5,259.5C 309.275,254.014 307.942,248.68 306.5,243.5C 306.128,237.268 305.128,231.268 303.5,225.5C 303.813,221.958 303.479,218.625 302.5,215.5C 303.379,207.6 300.712,201.266 294.5,196.5 Z"/></g>
<g><path style="opacity:1" fill="#576c89" d="M 314.5,216.5 C 316.695,209.085 315.362,202.419 310.5,196.5C 310.56,195.957 310.893,195.624 311.5,195.5C 314.718,198.258 317.218,201.591 319,205.5C 319.667,207.5 319.667,209.5 319,211.5C 317.632,214.186 316.299,216.853 315,219.5C 314.517,218.552 314.351,217.552 314.5,216.5 Z"/></g>
<g><path style="opacity:1" fill="#587192" d="M 294.5,196.5 C 300.712,201.266 303.379,207.6 302.5,215.5C 302.5,217.5 302.5,219.5 302.5,221.5C 299.933,221.855 297.433,222.521 295,223.5C 294.235,223.43 293.735,223.097 293.5,222.5C 294.474,216.528 294.641,210.528 294,204.5C 292.988,201.798 291.488,199.465 289.5,197.5C 290.919,196.549 292.585,196.216 294.5,196.5 Z"/></g>
<g><path style="opacity:1" fill="#7d4f35" d="M 235.5,197.5 C 237.836,198.956 239.169,201.122 239.5,204C 238.445,206.055 237.112,206.555 235.5,205.5C 233.708,204.691 231.708,204.191 229.5,204C 226.936,201.724 227.27,199.724 230.5,198C 232.134,197.506 233.801,197.34 235.5,197.5 Z"/></g>
<g><path style="opacity:1" fill="#617ea4" d="M 285.5,197.5 C 288.168,199.336 290.334,201.669 292,204.5C 292.667,209.167 292.667,213.833 292,218.5C 291.8,220.32 290.966,221.653 289.5,222.5C 287.236,223.219 284.903,223.552 282.5,223.5C 286.254,216.611 286.42,209.611 283,202.5C 280.417,201.126 277.917,199.626 275.5,198C 278.877,198.619 282.21,198.453 285.5,197.5 Z"/></g>
<g><path style="opacity:1" fill="#7092be" d="M 271.5,201.5 C 265.622,204.252 263.455,208.919 265,215.5C 265.278,216.416 265.778,217.082 266.5,217.5C 265.923,218.773 265.257,218.773 264.5,217.5C 262.321,212.108 262.821,206.775 266,201.5C 268.243,199.718 270.743,199.218 273.5,200C 272.584,200.278 271.918,200.778 271.5,201.5 Z"/></g>
<g><path style="opacity:1" fill="#7092be" d="M 274.5,216.5 C 271.904,217.265 269.237,217.599 266.5,217.5C 264.584,210.92 266.251,205.587 271.5,201.5C 277.142,200.58 280.975,202.914 283,208.5C 283.998,213.357 283.165,217.857 280.5,222C 277.446,222.821 274.446,222.655 271.5,221.5C 274.157,220.741 276.823,220.074 279.5,219.5C 280.744,215.22 281.244,210.886 281,206.5C 280.167,210.5 279.333,214.5 278.5,218.5C 275.269,218.898 272.269,219.898 269.5,221.5C 268.5,221 267.5,220.5 266.5,220C 269.409,219.15 272.076,217.983 274.5,216.5 Z"/></g>
<g><path style="opacity:1" fill="#3f47cc" d="M 241.5,210.5 C 244.198,210.155 246.198,208.822 247.5,206.5C 252.567,205.138 257.567,203.471 262.5,201.5C 262.833,201.667 263.167,201.833 263.5,202C 262.009,204.621 261.342,207.455 261.5,210.5C 255.536,210.815 250.203,212.815 245.5,216.5C 243.674,214.853 242.34,212.853 241.5,210.5 Z"/></g>
<g><path style="opacity:1" fill="#000000" d="M 271.5,201.5 C 266.251,205.587 264.584,210.92 266.5,217.5C 265.778,217.082 265.278,216.416 265,215.5C 263.455,208.919 265.622,204.252 271.5,201.5 Z"/></g>
<g><path style="opacity:1" fill="#000000" d="M 277.5,205.5 C 276.153,204.972 274.819,204.805 273.5,205C 272.415,207.172 271.081,209.172 269.5,211C 270,211.5 270.5,212 271,212.5C 271.837,210.993 273.004,210.493 274.5,211C 271.113,214.646 269.28,214.146 269,209.5C 270.292,207.751 271.458,205.918 272.5,204C 274.674,203.123 276.341,203.623 277.5,205.5 Z"/></g>
<g><path style="opacity:1" fill="#000000" d="M 277.5,205.5 C 278.629,207.628 278.796,209.961 278,212.5C 277.584,214.55 276.417,215.884 274.5,216.5C 276.877,213.279 277.877,209.612 277.5,205.5 Z"/></g>
<g><path style="opacity:1" fill="#a50d13" d="M 258.5,212.5 C 259.5,212.5 260.5,212.5 261.5,212.5C 261.5,213.5 261.5,214.5 261.5,215.5C 257.183,216.444 252.849,216.944 248.5,217C 251.815,215.17 255.149,213.67 258.5,212.5 Z"/></g>
<g><path style="opacity:1" fill="#000000" d="M 302.5,215.5 C 303.479,218.625 303.813,221.958 303.5,225.5C 302.849,224.909 302.182,224.243 301.5,223.5C 296.461,224.915 291.461,225.915 286.5,226.5C 285.26,225.341 283.926,224.341 282.5,223.5C 284.903,223.552 287.236,223.219 289.5,222.5C 290.705,223.686 292.039,223.686 293.5,222.5C 293.735,223.097 294.235,223.43 295,223.5C 297.433,222.521 299.933,221.855 302.5,221.5C 302.5,219.5 302.5,217.5 302.5,215.5 Z"/></g>
<g><path style="opacity:1" fill="#de1820" d="M 259.5,217.5 C 262.999,217.259 263.332,218.092 260.5,220C 253.706,224.166 246.373,225.499 238.5,224C 239.833,222.667 241.167,221.333 242.5,220C 248.4,219.79 254.066,218.956 259.5,217.5 Z"/></g>
<g><path style="opacity:1" fill="#fefffe" d="M 261.5,220.5 C 264.063,221.2 266.563,222.2 269,223.5C 270.257,223.85 270.591,224.517 270,225.5C 267.508,228.191 265.675,227.691 264.5,224C 263.167,223.333 261.833,222.667 260.5,222C 261.056,221.617 261.389,221.117 261.5,220.5 Z"/></g>
<g><path style="opacity:1" fill="#770713" d="M 324.5,241.5 C 323.833,241.167 323.167,240.833 322.5,240.5C 321.691,238.708 321.191,236.708 321,234.5C 319.989,233.663 318.822,233.33 317.5,233.5C 317.5,236.833 317.5,240.167 317.5,243.5C 315.735,244.461 313.735,244.795 311.5,244.5C 310.976,242.694 310.309,241.028 309.5,239.5C 308.111,234.731 307.444,229.731 307.5,224.5C 309.938,222.737 312.771,221.403 316,220.5C 317.399,221.227 318.899,221.727 320.5,222C 321.811,225.354 322.644,228.854 323,232.5C 323.667,233.833 324.333,233.833 325,232.5C 325.634,235.555 325.468,238.555 324.5,241.5 Z"/></g>
<g><path style="opacity:1" fill="#6e0a12" d="M 303.5,225.5 C 305.128,231.268 306.128,237.268 306.5,243.5C 305.833,243.833 305.167,244.167 304.5,244.5C 303.222,244.218 302.222,243.551 301.5,242.5C 300.869,240.097 299.869,237.764 298.5,235.5C 297.548,237.045 297.215,238.712 297.5,240.5C 297.5,242.167 297.5,243.833 297.5,245.5C 296.5,245.5 295.5,245.5 294.5,245.5C 291.461,239.401 288.795,233.068 286.5,226.5C 291.461,225.915 296.461,224.915 301.5,223.5C 302.182,224.243 302.849,224.909 303.5,225.5 Z"/></g>
<g><path style="opacity:1" fill="#dc1820" d="M 257.5,222.5 C 262.559,224.754 265.892,228.587 267.5,234C 267.167,234.5 266.833,235 266.5,235.5C 264.894,234.923 263.228,234.59 261.5,234.5C 255.029,235.455 248.529,236.121 242,236.5C 238.136,236.67 234.469,236.003 231,234.5C 231.088,231.358 232.588,228.858 235.5,227C 241.117,225.948 246.784,225.282 252.5,225C 254.491,224.626 256.158,223.793 257.5,222.5 Z"/></g>
<g><path style="opacity:1" fill="#fefffe" d="M 322.5,240.5 C 322.198,243.059 322.532,245.393 323.5,247.5C 323.216,249.415 323.549,251.081 324.5,252.5C 324.5,253.5 324.5,254.5 324.5,255.5C 322.376,253.941 320.709,251.941 319.5,249.5C 319.737,248.209 319.404,247.209 318.5,246.5C 318.737,245.209 318.404,244.209 317.5,243.5C 317.5,240.167 317.5,236.833 317.5,233.5C 318.822,233.33 319.989,233.663 321,234.5C 321.191,236.708 321.691,238.708 322.5,240.5 Z"/></g>
<g><path style="opacity:1" fill="#fefffe" d="M 301.5,242.5 C 301.198,245.059 301.532,247.393 302.5,249.5C 302.5,250.833 302.5,252.167 302.5,253.5C 301.5,253.5 300.5,253.5 299.5,253.5C 299.768,251.901 299.434,250.568 298.5,249.5C 298.81,246.287 298.477,243.287 297.5,240.5C 297.215,238.712 297.548,237.045 298.5,235.5C 299.869,237.764 300.869,240.097 301.5,242.5 Z"/></g>
<g><path style="opacity:1" fill="#3f47cc" d="M 267.5,238.5 C 265.83,238.751 264.33,239.418 263,240.5C 262.374,247.222 260.541,253.555 257.5,259.5C 250.341,267.798 244.674,277.132 240.5,287.5C 228.981,287.464 217.981,289.797 207.5,294.5C 207.335,291.15 207.502,287.817 208,284.5C 212.418,280.753 216.084,276.42 219,271.5C 222.394,263.712 226.061,256.045 230,248.5C 230.914,244.858 231.748,241.192 232.5,237.5C 242.021,238.794 251.521,238.46 261,236.5C 263.4,236.802 265.566,237.468 267.5,238.5 Z"/></g>
<g><path style="opacity:1" fill="#2b3199" d="M 267.5,238.5 C 267.995,247.862 268.995,257.195 270.5,266.5C 268.926,267.631 267.259,267.798 265.5,267C 263.5,265.667 261.5,264.333 259.5,263C 258.177,262.184 257.511,261.017 257.5,259.5C 260.541,253.555 262.374,247.222 263,240.5C 264.33,239.418 265.83,238.751 267.5,238.5 Z"/></g>
<g><path style="opacity:1" fill="#fefffe" d="M 270.5,238.5 C 272.167,238.5 273.833,238.5 275.5,238.5C 279.699,239.084 283.699,240.584 287.5,243C 282.831,244.515 278.164,244.349 273.5,242.5C 272.791,241.596 271.791,241.263 270.5,241.5C 270.5,240.5 270.5,239.5 270.5,238.5 Z"/></g>
<g><path style="opacity:1" fill="#000000" d="M 309.5,239.5 C 310.309,241.028 310.976,242.694 311.5,244.5C 310.662,244.842 310.328,245.508 310.5,246.5C 309.532,244.393 309.198,242.059 309.5,239.5 Z"/></g>
<g><path style="opacity:1" fill="#000000" d="M 297.5,240.5 C 298.477,243.287 298.81,246.287 298.5,249.5C 297.609,248.89 296.609,248.557 295.5,248.5C 295.918,247.778 296.584,247.278 297.5,247C 296.263,246.768 295.263,246.268 294.5,245.5C 295.5,245.5 296.5,245.5 297.5,245.5C 297.5,243.833 297.5,242.167 297.5,240.5 Z"/></g>
<g><path style="opacity:1" fill="#fefffe" d="M 324.5,241.5 C 325.776,242.386 325.776,243.386 324.5,244.5C 323.438,243.575 323.438,242.575 324.5,241.5 Z"/></g>
<g><path style="opacity:1" fill="#fcfcfc" d="M 282.5,223.5 C 283.926,224.341 285.26,225.341 286.5,226.5C 288.795,233.068 291.461,239.401 294.5,245.5C 295.263,246.268 296.263,246.768 297.5,247C 296.584,247.278 295.918,247.778 295.5,248.5C 294.883,248.611 294.383,248.944 294,249.5C 293.969,257.311 292.969,264.978 291,272.5C 288.926,276.077 286.093,278.744 282.5,280.5C 278.515,279.085 275.682,276.419 274,272.5C 270.856,262.715 269.856,252.715 271,242.5C 271.179,246.025 271.679,249.359 272.5,252.5C 271.527,261.127 273.86,268.627 279.5,275C 281.785,276.954 283.952,276.787 286,274.5C 288.949,271.05 290.116,267.05 289.5,262.5C 290.187,257.1 290.854,251.6 291.5,246C 290.934,245.005 290.267,244.172 289.5,243.5C 287.596,238.695 285.596,233.861 283.5,229C 280.227,227.305 276.893,227.305 273.5,229C 272.244,229.417 271.577,230.25 271.5,231.5C 270.532,233.607 270.198,235.941 270.5,238.5C 269.359,235.36 269.192,232.027 270,228.5C 273.509,225.255 277.676,223.588 282.5,223.5 Z"/></g>
<g><path style="opacity:1" fill="#000000" d="M 271.5,231.5 C 271.5,233.5 271.5,235.5 271.5,237.5C 273.099,237.232 274.432,237.566 275.5,238.5C 273.833,238.5 272.167,238.5 270.5,238.5C 270.198,235.941 270.532,233.607 271.5,231.5 Z"/></g>
<g><path style="opacity:1" fill="#750813" d="M 289.5,243.5 C 289.5,249.833 289.5,256.167 289.5,262.5C 290.116,267.05 288.949,271.05 286,274.5C 283.952,276.787 281.785,276.954 279.5,275C 273.86,268.627 271.527,261.127 272.5,252.5C 272.187,248.958 272.521,245.625 273.5,242.5C 278.164,244.349 282.831,244.515 287.5,243C 283.699,240.584 279.699,239.084 275.5,238.5C 274.432,237.566 273.099,237.232 271.5,237.5C 271.5,235.5 271.5,233.5 271.5,231.5C 271.577,230.25 272.244,229.417 273.5,229C 276.893,227.305 280.227,227.305 283.5,229C 285.596,233.861 287.596,238.695 289.5,243.5 Z"/></g>
<g><path style="opacity:1" fill="#000000" d="M 301.5,242.5 C 302.222,243.551 303.222,244.218 304.5,244.5C 301.662,246.306 301.995,247.306 305.5,247.5C 304.5,248.167 303.5,248.833 302.5,249.5C 301.532,247.393 301.198,245.059 301.5,242.5 Z"/></g>
<g><path style="opacity:1" fill="#000000" d="M 289.5,243.5 C 290.267,244.172 290.934,245.005 291.5,246C 290.854,251.6 290.187,257.1 289.5,262.5C 289.5,256.167 289.5,249.833 289.5,243.5 Z"/></g>
<g><path style="opacity:1" fill="#fefffe" d="M 306.5,243.5 C 306.567,244.959 306.234,246.292 305.5,247.5C 301.995,247.306 301.662,246.306 304.5,244.5C 305.167,244.167 305.833,243.833 306.5,243.5 Z"/></g>
<g><path style="opacity:1" fill="#000000" d="M 317.5,243.5 C 318.404,244.209 318.737,245.209 318.5,246.5C 316.048,245.935 313.715,245.268 311.5,244.5C 313.735,244.795 315.735,244.461 317.5,243.5 Z"/></g>
<g><path style="opacity:1" fill="#fefffe" d="M 311.5,244.5 C 313.715,245.268 316.048,245.935 318.5,246.5C 315.939,247.767 313.272,247.767 310.5,246.5C 310.328,245.508 310.662,244.842 311.5,244.5 Z"/></g>
<g><path style="opacity:1" fill="#640d11" d="M 324.5,252.5 C 323.549,251.081 323.216,249.415 323.5,247.5C 323.369,246.624 323.702,245.957 324.5,245.5C 325.797,247.973 325.797,250.307 324.5,252.5 Z"/></g>
<g><path style="opacity:1" fill="#000000" d="M 310.5,246.5 C 313.272,247.767 315.939,247.767 318.5,246.5C 319.404,247.209 319.737,248.209 319.5,249.5C 316.946,248.612 314.279,248.279 311.5,248.5C 311.5,249.833 311.5,251.167 311.5,252.5C 310.539,250.735 310.205,248.735 310.5,246.5 Z"/></g>
<g><path style="opacity:1" fill="#6c0b12" d="M 306.5,243.5 C 307.942,248.68 309.275,254.014 310.5,259.5C 310.426,268.327 306.759,274.994 299.5,279.5C 293.836,281.63 288.17,281.963 282.5,280.5C 286.093,278.744 288.926,276.077 291,272.5C 292.969,264.978 293.969,257.311 294,249.5C 294.383,248.944 294.883,248.611 295.5,248.5C 296.609,248.557 297.609,248.89 298.5,249.5C 299.434,250.568 299.768,251.901 299.5,253.5C 300.5,253.5 301.5,253.5 302.5,253.5C 302.5,252.167 302.5,250.833 302.5,249.5C 303.5,248.833 304.5,248.167 305.5,247.5C 306.234,246.292 306.567,244.959 306.5,243.5 Z"/></g>
<g><path style="opacity:1" fill="#751016" d="M 319.5,249.5 C 320.709,251.941 322.376,253.941 324.5,255.5C 325.434,256.568 325.768,257.901 325.5,259.5C 324.833,259.167 324.167,258.833 323.5,258.5C 322.5,258.5 321.5,258.5 320.5,258.5C 320.259,261.034 321.259,262.7 323.5,263.5C 324.338,263.842 324.672,264.508 324.5,265.5C 324.5,266.5 324.5,267.5 324.5,268.5C 323.928,270.255 323.094,271.922 322,273.5C 321.667,272.833 321.333,272.167 321,271.5C 316.757,275.375 311.924,278.375 306.5,280.5C 305.893,280.376 305.56,280.043 305.5,279.5C 307.505,276.649 309.338,273.649 311,270.5C 311.499,264.509 311.666,258.509 311.5,252.5C 311.5,251.167 311.5,249.833 311.5,248.5C 314.279,248.279 316.946,248.612 319.5,249.5 Z"/></g>
<g><path style="opacity:1" fill="#fefffe" d="M 323.5,258.5 C 323.5,260.167 323.5,261.833 323.5,263.5C 321.259,262.7 320.259,261.034 320.5,258.5C 321.5,258.5 322.5,258.5 323.5,258.5 Z"/></g>
<g><path style="opacity:1" fill="#000000" d="M 323.5,258.5 C 324.167,258.833 324.833,259.167 325.5,259.5C 325.795,261.735 325.461,263.735 324.5,265.5C 324.672,264.508 324.338,263.842 323.5,263.5C 323.5,261.833 323.5,260.167 323.5,258.5 Z"/></g>
<g><path style="opacity:1" fill="#fefffe" d="M 325.5,259.5 C 326.152,260.449 326.486,261.615 326.5,263C 326.607,265.221 325.94,267.054 324.5,268.5C 324.5,267.5 324.5,266.5 324.5,265.5C 325.461,263.735 325.795,261.735 325.5,259.5 Z"/></g>
<g><path style="opacity:1" fill="#fefffe" d="M 300.5,260.5 C 304.071,260.408 305.238,262.074 304,265.5C 303.586,265.957 303.086,266.291 302.5,266.5C 300.914,264.827 300.247,262.827 300.5,260.5 Z"/></g>
<g><path style="opacity:1" fill="#7e7f7e" d="M 23.5,265.5 C 24.0968,264.861 24.9302,264.528 26,264.5C 43.262,268.906 60.762,271.073 78.5,271C 79.1079,270.13 79.9412,269.63 81,269.5C 84.7495,270.692 88.2495,272.358 91.5,274.5C 90.9377,280.668 87.6044,282.835 81.5,281C 77.8269,275.505 73.4935,275.005 68.5,279.5C 53.671,273.878 38.671,269.212 23.5,265.5 Z"/></g>
<g><path style="opacity:1" fill="#fefffe" d="M 255.5,264.5 C 259.127,265.28 262.46,266.78 265.5,269C 267.134,269.494 268.801,269.66 270.5,269.5C 271.167,271.833 271.833,274.167 272.5,276.5C 265.561,276.312 258.895,274.979 252.5,272.5C 252.572,269.447 253.572,266.781 255.5,264.5 Z"/></g>
<g><path style="opacity:1" fill="#fec90d" d="M 96.5,272.5 C 98.8896,272.685 99.8896,274.018 99.5,276.5C 99.1583,278.867 98.6583,281.2 98,283.5C 94.859,286.257 92.359,285.59 90.5,281.5C 91.7932,277.88 93.7932,274.88 96.5,272.5 Z"/></g>
<g><path style="opacity:1" fill="#fefffe" d="M 249.5,274.5 C 253.945,277.562 258.611,280.395 263.5,283C 267.167,286.667 270.833,290.333 274.5,294C 279.037,295.832 283.371,297.832 287.5,300C 283.029,299.227 279.363,300.727 276.5,304.5C 265.503,297.508 255.503,289.342 246.5,280C 247.639,278.22 248.639,276.386 249.5,274.5 Z"/></g>
<g><path style="opacity:1" fill="#3f47cc" d="M 281.5,283.5 C 281.805,288.688 284.472,291.688 289.5,292.5C 288.167,292.5 286.833,292.5 285.5,292.5C 285.5,293.5 285.5,294.5 285.5,295.5C 281.938,295.035 278.605,293.868 275.5,292C 271.833,288.333 268.167,284.667 264.5,281C 260.835,279.503 257.502,277.503 254.5,275C 257.591,276.334 260.925,277.334 264.5,278C 267.76,278.784 270.927,278.617 274,277.5C 276.663,279.334 279.163,281.334 281.5,283.5 Z"/></g>
<g><path style="opacity:1" fill="#7e7f7e" d="M 101.5,276.5 C 106.718,277.798 106.718,279.464 101.5,281.5C 100.833,281.333 100.167,281.167 99.5,281C 100.582,279.67 101.249,278.17 101.5,276.5 Z"/></g>
<g><path style="opacity:1" fill="#fec90d" d="M 108.5,276.5 C 109.5,276.5 110.5,276.5 111.5,276.5C 110.38,280.1 109.213,283.767 108,287.5C 105.492,291.414 102.992,291.414 100.5,287.5C 102.144,284.689 104.31,282.356 107,280.5C 107.791,279.255 108.291,277.922 108.5,276.5 Z"/></g>
<g><path style="opacity:1" fill="#535353" d="M 169.5,298.5 C 150.393,294.725 131.727,289.725 113.5,283.5C 112.147,282.133 112.481,281.133 114.5,280.5C 133.385,286.803 152.385,292.636 171.5,298C 170.906,298.464 170.239,298.631 169.5,298.5 Z"/></g>
<g><path style="opacity:1" fill="#2c33a3" d="M 289.5,292.5 C 284.472,291.688 281.805,288.688 281.5,283.5C 291.881,283.44 302.214,282.774 312.5,281.5C 312.779,284.118 313.446,286.618 314.5,289C 306.209,290.429 297.875,291.596 289.5,292.5 Z"/></g>
<g><path style="opacity:1" fill="#955e3e" d="M 113.5,283.5 C 131.727,289.725 150.393,294.725 169.5,298.5C 172.048,300.718 172.048,303.051 169.5,305.5C 149.067,300.485 128.733,295.151 108.5,289.5C 108.783,286.242 110.45,284.242 113.5,283.5 Z"/></g>
<g><path style="opacity:1" fill="#fefffe" d="M 204.5,283.5 C 205.645,287.311 205.812,291.311 205,295.5C 201.833,298 198.667,300.5 195.5,303C 193.191,303.756 191.191,303.256 189.5,301.5C 191.407,295.173 195.407,290.506 201.5,287.5C 202.524,286.148 203.524,284.815 204.5,283.5 Z"/></g>
<g><path style="opacity:1" fill="#3e46c8" d="M 289.5,326.5 C 289.94,330.179 289.273,333.512 287.5,336.5C 286.549,337.919 286.216,339.585 286.5,341.5C 284.901,341.232 283.568,341.566 282.5,342.5C 282.5,343.167 282.5,343.833 282.5,344.5C 282.5,345.167 282.5,345.833 282.5,346.5C 277.575,349.77 278.242,352.437 284.5,354.5C 285.182,353.757 285.849,353.091 286.5,352.5C 287.161,351.282 287.828,349.949 288.5,348.5C 288.799,354.205 287.966,359.871 286,365.5C 285.667,365.167 285.333,364.833 285,364.5C 270.871,339.736 256.371,315.236 241.5,291C 242.363,288.773 243.363,286.607 244.5,284.5C 245.002,283.479 245.668,283.312 246.5,284C 255.727,291.861 265.227,299.361 275,306.5C 272.629,315.129 274.795,322.295 281.5,328C 284.332,328.326 286.999,327.826 289.5,326.5 Z"/></g>
<g><path style="opacity:1" fill="#2c33a3" d="M 240.5,287.5 C 240.938,287.435 241.272,287.601 241.5,288C 229.244,292.909 217.411,298.742 206,305.5C 204.351,304.214 203.185,302.547 202.5,300.5C 204.907,299.095 206.574,297.095 207.5,294.5C 217.981,289.797 228.981,287.464 240.5,287.5 Z"/></g>
<g><path style="opacity:1" fill="#fec90d" d="M 201.5,288.5 C 203.951,290.916 204.117,293.583 202,296.5C 200.188,293.954 200.022,291.288 201.5,288.5 Z"/></g>
<g><path style="opacity:1" fill="#fec90d" d="M 197.5,291.5 C 199.951,293.916 200.117,296.583 198,299.5C 196.188,296.954 196.022,294.288 197.5,291.5 Z"/></g>
<g><path style="opacity:1" fill="#272827" d="M 322.5,301.5 C 320.21,303.033 319.544,302.7 320.5,300.5C 319.081,298.085 317.415,297.919 315.5,300C 316.956,300.423 317.456,301.256 317,302.5C 314.875,301.149 313.708,301.815 313.5,304.5C 314.064,306.819 314.564,309.153 315,311.5C 317.92,307.486 318.753,307.653 317.5,312C 319.167,312.667 320.833,312.667 322.5,312C 320.993,311.163 320.493,309.996 321,308.5C 322.039,309.71 323.206,310.71 324.5,311.5C 325.279,314.075 325.113,316.408 324,318.5C 319.504,322.327 314.504,325.327 309,327.5C 304.964,316.391 301.131,305.225 297.5,294C 304.817,292.366 312.151,291.866 319.5,292.5C 320.351,295.578 321.351,298.578 322.5,301.5 Z"/></g>
<g><path style="opacity:1" fill="#d1111a" d="M 238.5,292.5 C 243.137,298.653 247.637,304.986 252,311.5C 262.468,330.942 273.301,350.109 284.5,369C 280.252,370.305 276.085,371.805 272,373.5C 267.564,370.652 264.564,366.652 263,361.5C 260.66,347.823 256.326,334.823 250,322.5C 249.519,318.469 248.853,314.469 248,310.5C 244.533,304.562 241.366,298.562 238.5,292.5 Z"/></g>
<g><path style="opacity:1" fill="#f9a884" d="M 184.5,293.5 C 186.484,293.383 188.15,294.05 189.5,295.5C 188.04,298.029 187.54,300.696 188,303.5C 190.312,306.646 192.812,309.646 195.5,312.5C 194.826,314.517 193.659,316.183 192,317.5C 187.441,315.593 182.941,313.593 178.5,311.5C 182.604,306.259 184.604,300.259 184.5,293.5 Z"/></g>
<g><path style="opacity:1" fill="#272827" d="M 292.5,293.5 C 294.124,293.36 295.29,294.027 296,295.5C 299.203,306.277 302.703,316.943 306.5,327.5C 304.159,328.712 301.993,328.378 300,326.5C 295.704,321.583 293.371,315.916 293,309.5C 291.296,304.597 289.463,299.763 287.5,295C 289.382,294.802 291.048,294.302 292.5,293.5 Z"/></g>
<g><path style="opacity:1" fill="#fec90d" d="M 193.5,294.5 C 195.94,296.573 196.106,298.906 194,301.5C 192.193,299.294 192.026,296.961 193.5,294.5 Z"/></g>
<g><path style="opacity:1" fill="#fec90d" d="M 305.5,295.5 C 309.349,295.019 311.349,296.686 311.5,300.5C 307.651,300.981 305.651,299.314 305.5,295.5 Z"/></g>
<g><path style="opacity:1" fill="#fec90d" d="M 173.5,296.5 C 175.167,296.5 176.833,296.5 178.5,296.5C 178.406,300.68 177.073,304.347 174.5,307.5C 173.5,307.167 172.833,306.5 172.5,305.5C 173.407,302.579 173.74,299.579 173.5,296.5 Z"/></g>
<g><path style="opacity:1" fill="#fefffe" d="M 233.5,297.5 C 237.505,300.447 238.005,303.78 235,307.5C 230.928,306.106 226.762,304.94 222.5,304C 226.23,301.807 229.897,299.64 233.5,297.5 Z M 233.5,299.5 C 231.727,300.892 229.727,302.059 227.5,303C 229.941,304.446 232.608,305.279 235.5,305.5C 235.741,303.102 235.074,301.102 233.5,299.5 Z"/></g>
<g><path style="opacity:1" fill="#fec90d" d="M 322.5,301.5 C 323.222,301.918 323.722,302.584 324,303.5C 324.497,306.146 324.664,308.813 324.5,311.5C 323.206,310.71 322.039,309.71 321,308.5C 320.493,309.996 320.993,311.163 322.5,312C 320.833,312.667 319.167,312.667 317.5,312C 318.753,307.653 317.92,307.486 315,311.5C 314.564,309.153 314.064,306.819 313.5,304.5C 313.708,301.815 314.875,301.149 317,302.5C 317.456,301.256 316.956,300.423 315.5,300C 317.415,297.919 319.081,298.085 320.5,300.5C 319.544,302.7 320.21,303.033 322.5,301.5 Z"/></g>
<g><path style="opacity:1" fill="#955e3e" d="M 179.5,301.5 C 180.239,301.369 180.906,301.536 181.5,302C 177.952,309.276 177.285,309.109 179.5,301.5 Z"/></g>
<g><path style="opacity:1" fill="#fec90d" d="M 283.5,301.5 C 284.573,302.251 284.74,303.251 284,304.5C 279.315,307.939 278.315,312.273 281,317.5C 283.222,319.385 285.056,321.551 286.5,324C 286.046,325.622 285.046,326.788 283.5,327.5C 276.448,322.033 274.615,315.033 278,306.5C 279.107,303.887 280.94,302.22 283.5,301.5 Z"/></g>
<g><path style="opacity:1" fill="#d01019" d="M 198.5,302.5 C 203.996,305.585 203.829,308.585 198,311.5C 196.167,309.667 194.333,307.833 192.5,306C 195.264,305.994 197.264,304.828 198.5,302.5 Z"/></g>
<g><path style="opacity:1" fill="#5c5c5c" d="M 218.5,311.5 C 215.572,311.435 212.905,310.768 210.5,309.5C 210.389,308.883 210.056,308.383 209.5,308C 212.558,307.542 215.558,307.876 218.5,309C 219.774,309.977 219.774,310.811 218.5,311.5 Z"/></g>
<g><path style="opacity:1" fill="#fefffe" d="M 246.5,316.5 C 244.725,328.222 240.058,338.722 232.5,348C 238.296,347.576 243.296,345.243 247.5,341C 249.403,340.226 251.07,340.56 252.5,342C 247.625,347.043 242.625,351.876 237.5,356.5C 238.333,356.833 239.167,357.167 240,357.5C 244.776,356.981 249.276,355.648 253.5,353.5C 252.921,356.331 251.588,358.664 249.5,360.5C 246.077,362.628 242.577,364.628 239,366.5C 231.984,364.662 225.151,362.328 218.5,359.5C 221.602,346.964 227.102,335.63 235,325.5C 236.359,319.084 238.693,313.084 242,307.5C 245.107,309.714 246.607,312.714 246.5,316.5 Z"/></g>
<g><path style="opacity:1" fill="#2c33a3" d="M 282.5,308.5 C 285.644,310.907 287.978,314.073 289.5,318C 288.333,318.5 287.5,319.333 287,320.5C 282.342,317.542 280.842,313.542 282.5,308.5 Z"/></g>
<g><path style="opacity:1" fill="#955e3e" d="M 210.5,309.5 C 212.905,310.768 215.572,311.435 218.5,311.5C 218.6,316.551 216.267,318.718 211.5,318C 207.757,316.864 204.09,315.53 200.5,314C 203.527,311.65 206.86,310.15 210.5,309.5 Z"/></g>
<g><path style="opacity:1" fill="#fec90d" d="M 221.5,310.5 C 223.167,310.5 224.833,310.5 226.5,310.5C 226.448,314.198 226.114,317.865 225.5,321.5C 222.941,321.61 220.608,320.944 218.5,319.5C 219.801,316.573 220.801,313.573 221.5,310.5 Z"/></g>
<g><path style="opacity:1" fill="#7e7f7e" d="M 231.5,314.5 C 230.737,313.732 229.737,313.232 228.5,313C 229.546,311.461 230.879,311.295 232.5,312.5C 233.167,312.833 233.833,313.167 234.5,313.5C 233.675,314.386 232.675,314.719 231.5,314.5 Z"/></g>
<g><path style="opacity:1" fill="#fec90d" d="M 313.5,312.5 C 317.435,314.551 317.435,316.884 313.5,319.5C 312.167,318.833 311.167,317.833 310.5,316.5C 311.524,315.148 312.524,313.815 313.5,312.5 Z"/></g>
<g><path style="opacity:1" fill="#955e3e" d="M 231.5,314.5 C 232.263,315.268 233.263,315.768 234.5,316C 233.286,318.351 232.452,320.851 232,323.5C 230.701,323.966 229.201,323.966 227.5,323.5C 227.337,321.143 227.503,318.81 228,316.5C 228.71,315.027 229.876,314.36 231.5,314.5 Z"/></g>
<g><path style="opacity:1" fill="#c3c4c3" d="M 246.5,316.5 C 251.517,330.075 256.184,343.908 260.5,358C 259.216,358.684 258.049,358.517 257,357.5C 256,355.167 255,352.833 254,350.5C 253.517,351.448 253.351,352.448 253.5,353.5C 249.276,355.648 244.776,356.981 240,357.5C 239.167,357.167 238.333,356.833 237.5,356.5C 242.625,351.876 247.625,347.043 252.5,342C 251.07,340.56 249.403,340.226 247.5,341C 243.296,345.243 238.296,347.576 232.5,348C 240.058,338.722 244.725,328.222 246.5,316.5 Z"/></g>
<g><path style="opacity:1" fill="#fefffe" d="M 293.5,328.5 C 292.835,330.369 292.169,332.369 291.5,334.5C 290.832,331.694 290.166,329.028 289.5,326.5C 287.805,324.61 287.472,322.277 288.5,319.5C 289.5,319.5 290.5,319.5 291.5,319.5C 292.167,322.5 292.833,325.5 293.5,328.5 Z"/></g>
<g><path style="opacity:1" fill="#fefffe" d="M 292.5,319.5 C 293.364,320.688 294.364,321.855 295.5,323C 293.066,323.333 292.066,322.166 292.5,319.5 Z"/></g>
<g><path style="opacity:1" fill="#fefffe" d="M 297.5,330.5 C 304.198,334.116 304.031,337.45 297,340.5C 295.523,339.556 294.523,338.223 294,336.5C 293.503,333.854 293.336,331.187 293.5,328.5C 294.404,327.791 294.737,326.791 294.5,325.5C 295.675,325.281 296.675,325.614 297.5,326.5C 296.295,327.995 296.295,329.328 297.5,330.5 Z"/></g>
<g><path style="opacity:1" fill="#ec1c23" d="M 297.5,330.5 C 298.623,327.959 299.956,327.959 301.5,330.5C 300.443,330.906 299.109,330.906 297.5,330.5 Z"/></g>
<g><path style="opacity:1" fill="#3f47cc" d="M 303.5,330.5 C 305.5,330.5 307.5,330.5 309.5,330.5C 310.809,335.523 310.642,340.523 309,345.5C 305.488,341.121 303.655,336.121 303.5,330.5 Z"/></g>
<g><path style="opacity:1" fill="#955e3e" d="M 313.5,332.5 C 319.618,334.725 325.285,337.725 330.5,341.5C 328.273,346.954 325.773,352.287 323,357.5C 320.86,356.272 319.193,354.605 318,352.5C 316.496,345.819 314.996,339.153 313.5,332.5 Z"/></g>
<g><path style="opacity:1" fill="#cd1119" d="M 291.5,340.5 C 291.443,339.391 291.11,338.391 290.5,337.5C 290.369,336.624 290.702,335.957 291.5,335.5C 299.01,344.858 301.01,355.358 297.5,367C 293.892,368.323 290.225,368.989 286.5,369C 290.439,359.815 292.106,350.315 291.5,340.5 Z"/></g>
<g><path style="opacity:1" fill="#fefffe" d="M 287.5,336.5 C 288.609,336.557 289.609,336.89 290.5,337.5C 291.11,338.391 291.443,339.391 291.5,340.5C 288.205,341.824 286.872,340.491 287.5,336.5 Z"/></g>
<g><path style="opacity:1" fill="#272827" d="M 300.5,339.5 C 306.571,348.634 312.405,357.967 318,367.5C 322.091,373.347 326.424,379.013 331,384.5C 331.688,385.332 331.521,385.998 330.5,386.5C 319.724,372.721 309.724,358.388 300.5,343.5C 299.193,342.135 299.193,340.802 300.5,339.5 Z"/></g>
<g><path style="opacity:1" fill="#fefffe" d="M 282.5,342.5 C 284.5,342.5 286.5,342.5 288.5,342.5C 288.5,344.167 288.5,345.833 288.5,347.5C 286.053,347.385 284.053,346.385 282.5,344.5C 282.5,343.833 282.5,343.167 282.5,342.5 Z"/></g>
<g><path style="opacity:1" fill="#d01019" d="M 311.5,345.5 C 312.586,345.62 313.253,346.287 313.5,347.5C 314.553,350.131 315.053,352.798 315,355.5C 312.416,352.664 311.249,349.331 311.5,345.5 Z"/></g>
<g><path style="opacity:1" fill="#d01019" d="M 282.5,346.5 C 285.325,347.478 286.658,349.478 286.5,352.5C 285.849,353.091 285.182,353.757 284.5,354.5C 278.242,352.437 277.575,349.77 282.5,346.5 Z"/></g>
<g><path style="opacity:1" fill="#fec90d" d="M 294.5,347.5 C 295.268,348.263 295.768,349.263 296,350.5C 296.654,349.304 297.154,349.304 297.5,350.5C 296.833,351.167 296.167,351.833 295.5,352.5C 296.167,352.833 296.833,353.167 297.5,353.5C 296.833,354.167 296.167,354.833 295.5,355.5C 296.167,355.833 296.833,356.167 297.5,356.5C 296.61,357.711 296.61,359.045 297.5,360.5C 297.566,362.266 296.732,363.266 295,363.5C 293.268,363.266 292.434,362.266 292.5,360.5C 293.39,359.045 293.39,357.711 292.5,356.5C 293.167,356.167 293.833,355.833 294.5,355.5C 293.833,354.833 293.167,354.167 292.5,353.5C 293.167,353.167 293.833,352.833 294.5,352.5C 293.833,351.833 293.167,351.167 292.5,350.5C 292.846,349.304 293.346,349.304 294,350.5C 294.483,349.552 294.649,348.552 294.5,347.5 Z"/></g>
<g><path style="opacity:1" fill="#fdc40f" d="M 269.5,352.5 C 270.268,353.263 270.768,354.263 271,355.5C 271.333,354.833 271.667,354.167 272,353.5C 272.419,357.852 273.086,358.185 274,354.5C 274.129,357.003 275.129,359.003 277,360.5C 278.174,364.661 276.841,365.995 273,364.5C 272.51,363.207 272.343,361.873 272.5,360.5C 268.107,360.543 267.774,360.043 271.5,359C 270.167,358.667 268.833,358.333 267.5,358C 269.878,357.026 269.544,356.359 266.5,356C 268.426,355.578 269.426,354.411 269.5,352.5 Z"/></g>
<g><path style="opacity:1" fill="#d01019" d="M 303.5,354.5 C 306.637,358.485 309.637,362.652 312.5,367C 310.888,367.72 309.388,367.554 308,366.5C 306.209,362.589 304.709,358.589 303.5,354.5 Z"/></g>
<g><path style="opacity:1" fill="#c3c4c3" d="M 315.5,371.5 C 312.881,371.232 310.381,371.565 308,372.5C 305.757,370.213 303.257,370.047 300.5,372C 295.888,376.469 290.555,379.636 284.5,381.5C 277.448,377.489 277.448,374.323 284.5,372C 289.645,371.405 294.645,370.238 299.5,368.5C 300.44,365.197 301.273,361.864 302,358.5C 303.978,362.288 305.811,366.121 307.5,370C 310.365,370.183 313.031,370.683 315.5,371.5 Z"/></g>
<g><path style="opacity:1" fill="#c3c4c3" d="M 218.5,359.5 C 225.151,362.328 231.984,364.662 239,366.5C 242.577,364.628 246.077,362.628 249.5,360.5C 247.251,364.754 244.585,368.754 241.5,372.5C 233.266,368.645 224.599,366.645 215.5,366.5C 217.075,364.453 218.075,362.119 218.5,359.5 Z"/></g>
<g><path style="opacity:1" fill="#e8e8e8" d="M 215.5,366.5 C 224.599,366.645 233.266,368.645 241.5,372.5C 240.199,373.882 239.366,375.548 239,377.5C 238.68,382.023 238.18,386.523 237.5,391C 240.985,400.311 240.152,409.145 235,417.5C 230.489,428.098 229.656,438.931 232.5,450C 232.057,451.825 231.723,453.658 231.5,455.5C 228.627,455.198 225.961,454.531 223.5,453.5C 223.5,452.5 223.5,451.5 223.5,450.5C 222.5,450.5 221.5,450.5 220.5,450.5C 220.5,451.5 220.5,452.5 220.5,453.5C 211.193,453.084 202.193,450.584 193.5,446C 199.251,443.711 204.418,440.545 209,436.5C 209.933,421.44 211.433,406.44 213.5,391.5C 212.447,386.014 211.447,380.514 210.5,375C 211.034,371.422 212.701,368.589 215.5,366.5 Z"/></g>
<g><path style="opacity:1" fill="#f7f7f7" d="M 315.5,371.5 C 325.13,384.764 332.13,399.431 336.5,415.5C 336.137,416.183 335.804,416.85 335.5,417.5C 331.563,421.435 326.897,424.102 321.5,425.5C 316.683,415.197 310.85,405.53 304,396.5C 301.297,393.462 298.297,390.795 295,388.5C 294.691,387.234 294.191,386.067 293.5,385C 291.167,384.667 288.833,384.333 286.5,384C 285.619,383.292 284.953,382.458 284.5,381.5C 290.555,379.636 295.888,376.469 300.5,372C 303.257,370.047 305.757,370.213 308,372.5C 310.381,371.565 312.881,371.232 315.5,371.5 Z"/></g>
<g><path style="opacity:1" fill="#fefffe" d="M 229.5,374.5 C 230.5,374.5 231.5,374.5 232.5,374.5C 232.5,375.5 232.5,376.5 232.5,377.5C 231.5,377.5 230.5,377.5 229.5,377.5C 229.5,376.5 229.5,375.5 229.5,374.5 Z"/></g>
<g><path style="opacity:1" fill="#fefffe" d="M 227.5,380.5 C 228.5,380.5 229.5,380.5 230.5,380.5C 230.5,381.5 230.5,382.5 230.5,383.5C 229.5,383.5 228.5,383.5 227.5,383.5C 227.5,382.5 227.5,381.5 227.5,380.5 Z"/></g>
<g><path style="opacity:1" fill="#fefffe" d="M 226.5,386.5 C 227.5,386.5 228.5,386.5 229.5,386.5C 229.5,387.5 229.5,388.5 229.5,389.5C 228.5,389.5 227.5,389.5 226.5,389.5C 226.5,388.5 226.5,387.5 226.5,386.5 Z"/></g>
<g><path style="opacity:1" fill="#fec90d" d="M 332.5,386.5 C 335.168,386.834 337.168,388.167 338.5,390.5C 335.309,391.352 333.309,390.019 332.5,386.5 Z"/></g>
<g><path style="opacity:1" fill="#fefffe" d="M 225.5,393.5 C 226.5,393.5 227.5,393.5 228.5,393.5C 228.5,394.5 228.5,395.5 228.5,396.5C 227.5,396.5 226.5,396.5 225.5,396.5C 225.5,395.5 225.5,394.5 225.5,393.5 Z"/></g>
<g><path style="opacity:1" fill="#fefffe" d="M 225.5,401.5 C 226.5,401.5 227.5,401.5 228.5,401.5C 228.5,402.5 228.5,403.5 228.5,404.5C 227.5,404.5 226.5,404.5 225.5,404.5C 225.5,403.5 225.5,402.5 225.5,401.5 Z"/></g>
<g><path style="opacity:1" fill="#fefffe" d="M 225.5,408.5 C 226.5,408.5 227.5,408.5 228.5,408.5C 228.5,409.5 228.5,410.5 228.5,411.5C 227.5,411.5 226.5,411.5 225.5,411.5C 225.5,410.5 225.5,409.5 225.5,408.5 Z"/></g>
<g><path style="opacity:1" fill="#fefffe" d="M 224.5,414.5 C 225.5,414.5 226.5,414.5 227.5,414.5C 227.5,415.5 227.5,416.5 227.5,417.5C 226.5,417.5 225.5,417.5 224.5,417.5C 224.5,416.5 224.5,415.5 224.5,414.5 Z"/></g>
<g><path style="opacity:1" fill="#b1b1b1" d="M 335.5,417.5 C 336.807,418.153 338.14,418.82 339.5,419.5C 340.255,422.325 341.255,424.991 342.5,427.5C 337.147,433.172 330.481,436.172 322.5,436.5C 323.3,434.393 323.967,432.226 324.5,430C 324.443,427.791 323.443,426.291 321.5,425.5C 326.897,424.102 331.563,421.435 335.5,417.5 Z"/></g>
<g><path style="opacity:1" fill="#fefffe" d="M 223.5,420.5 C 224.5,420.5 225.5,420.5 226.5,420.5C 226.5,421.5 226.5,422.5 226.5,423.5C 225.5,423.5 224.5,423.5 223.5,423.5C 223.5,422.5 223.5,421.5 223.5,420.5 Z"/></g>
<g><path style="opacity:1" fill="#fefffe" d="M 221.5,426.5 C 222.5,426.5 223.5,426.5 224.5,426.5C 224.5,427.5 224.5,428.5 224.5,429.5C 223.5,429.5 222.5,429.5 221.5,429.5C 221.5,428.5 221.5,427.5 221.5,426.5 Z"/></g>
<g><path style="opacity:1" fill="#fefffe" d="M 342.5,427.5 C 346.288,429.06 349.288,431.56 351.5,435C 341.571,440.201 331.071,444.034 320,446.5C 318.272,446.546 316.772,446.046 315.5,445C 317.698,441.977 320.031,439.144 322.5,436.5C 330.481,436.172 337.147,433.172 342.5,427.5 Z"/></g>
<g><path style="opacity:1" fill="#fefffe" d="M 221.5,432.5 C 222.5,432.5 223.5,432.5 224.5,432.5C 224.5,433.5 224.5,434.5 224.5,435.5C 223.5,435.5 222.5,435.5 221.5,435.5C 221.5,434.5 221.5,433.5 221.5,432.5 Z"/></g>
<g><path style="opacity:1" fill="#fefffe" d="M 221.5,438.5 C 222.5,438.5 223.5,438.5 224.5,438.5C 224.5,439.5 224.5,440.5 224.5,441.5C 223.5,441.5 222.5,441.5 221.5,441.5C 221.5,440.5 221.5,439.5 221.5,438.5 Z"/></g>
<g><path style="opacity:1" fill="#272827" d="M 346.5,439.5 C 349.926,439.35 350.259,440.516 347.5,443C 337.021,447.87 326.021,450.703 314.5,451.5C 311.772,450.855 309.105,450.021 306.5,449C 309.552,447.125 312.552,446.791 315.5,448C 326.673,448.072 337.006,445.238 346.5,439.5 Z"/></g>
<g><path style="opacity:1" fill="#fefffe" d="M 220.5,444.5 C 221.5,444.5 222.5,444.5 223.5,444.5C 223.5,445.5 223.5,446.5 223.5,447.5C 222.5,447.5 221.5,447.5 220.5,447.5C 220.5,446.5 220.5,445.5 220.5,444.5 Z"/></g>
<g><path style="opacity:1" fill="#272827" d="M 179.5,446.5 C 183.514,446.334 187.514,446.501 191.5,447C 199.223,451.575 207.557,454.575 216.5,456C 205.724,458.191 195.057,457.858 184.5,455C 178.711,453.977 177.044,451.143 179.5,446.5 Z"/></g>
<g><path style="opacity:1" fill="#fefffe" d="M 223.5,453.5 C 222.5,453.5 221.5,453.5 220.5,453.5C 220.5,452.5 220.5,451.5 220.5,450.5C 221.5,450.5 222.5,450.5 223.5,450.5C 223.5,451.5 223.5,452.5 223.5,453.5 Z"/></g>
</svg>
