<?xml version="1.0" encoding="UTF-8"?>
<!DOCTYPE svg PUBLIC "-//W3C//DTD SVG 1.1//EN" "http://www.w3.org/Graphics/SVG/1.1/DTD/svg11.dtd">
<svg xmlns="http://www.w3.org/2000/svg" version="1.1" width="74px" height="82px" style="shape-rendering:geometricPrecision; text-rendering:geometricPrecision; image-rendering:optimizeQuality; fill-rule:evenodd; clip-rule:evenodd" xmlns:xlink="http://www.w3.org/1999/xlink">
<g><path style="opacity:1" fill="#fefffe" d="M 33.5,9.5 C 36.8499,9.33499 40.1832,9.50166 43.5,10C 45.3333,10.5 46.5,11.6667 47,13.5C 47.4998,23.1609 47.6665,32.8276 47.5,42.5C 53.1764,42.3339 58.8431,42.5006 64.5,43C 65.5742,43.7387 66.2409,44.7387 66.5,46C 57.9665,56.0339 48.6332,65.2006 38.5,73.5C 29.2415,65.7451 20.4082,57.4118 12,48.5C 11.1751,46.2992 11.6751,44.4659 13.5,43C 18.8229,42.5006 24.1563,42.334 29.5,42.5C 29.3335,32.8276 29.5002,23.1609 30,13.5C 30.6897,11.6498 31.8564,10.3164 33.5,9.5 Z"/></g>
</svg>
