<?xml version="1.0" encoding="UTF-8"?>
<!DOCTYPE svg PUBLIC "-//W3C//DTD SVG 1.1//EN" "http://www.w3.org/Graphics/SVG/1.1/DTD/svg11.dtd">
<svg xmlns="http://www.w3.org/2000/svg" version="1.1" width="188px" height="256px" style="shape-rendering:geometricPrecision; text-rendering:geometricPrecision; image-rendering:optimizeQuality; fill-rule:evenodd; clip-rule:evenodd" xmlns:xlink="http://www.w3.org/1999/xlink">
<g><path style="opacity:1" fill="#fefffe" d="M 3.5,5.5 C 8.51108,5.33407 13.5111,5.50074 18.5,6C 43.2978,20.6345 67.9645,35.4678 92.5,50.5C 116.368,35.4685 140.368,20.6352 164.5,6C 169.489,5.50074 174.489,5.33407 179.5,5.5C 179.667,27.1692 179.5,48.8359 179,70.5C 159.7,82.3022 140.534,94.3022 121.5,106.5C 120.501,120.15 120.167,133.817 120.5,147.5C 127.167,147.5 133.833,147.5 140.5,147.5C 140.904,153.29 140.404,158.956 139,164.5C 126.333,181.833 113.667,199.167 101,216.5C 95.6667,217.833 90.3333,217.833 85,216.5C 72.3847,198.884 59.3847,181.55 46,164.5C 44.5962,158.956 44.0962,153.29 44.5,147.5C 51.1667,147.5 57.8333,147.5 64.5,147.5C 64.8325,133.817 64.4992,120.15 63.5,106.5C 45.1667,95.3333 26.8333,84.1667 8.5,73C 6.97506,71.9914 5.30839,71.4914 3.5,71.5C 3.5,49.5 3.5,27.5 3.5,5.5 Z"/></g>
<g><path style="opacity:1" fill="#000000" d="M 7.5,9.5 C 11.4629,9.08892 15.1295,9.92225 18.5,12C 43.0387,27.1003 67.7054,41.9336 92.5,56.5C 117.962,41.2662 143.295,25.7662 168.5,10C 170.81,9.50335 173.143,9.33669 175.5,9.5C 175.667,28.5029 175.5,47.5029 175,66.5C 155.7,78.3022 136.534,90.3022 117.5,102.5C 116.501,118.82 116.167,135.153 116.5,151.5C 123.167,151.5 129.833,151.5 136.5,151.5C 136.789,154.649 136.289,157.649 135,160.5C 122.333,177.833 109.667,195.167 97,212.5C 94.3333,213.833 91.6667,213.833 89,212.5C 76.3847,194.884 63.3847,177.55 50,160.5C 48.7114,157.649 48.2114,154.649 48.5,151.5C 55.1667,151.5 61.8333,151.5 68.5,151.5C 68.8328,135.153 68.4994,118.82 67.5,102.5C 49.1667,91.3333 30.8333,80.1667 12.5,69C 10.9751,67.9914 9.30839,67.4914 7.5,67.5C 7.5,48.1667 7.5,28.8333 7.5,9.5 Z"/></g>
<g><path style="opacity:1" fill="#fefffe" d="M 11.5,14.5 C 38.71,30.3577 65.8766,46.3577 93,62.5C 118.956,46.7138 144.789,30.7138 170.5,14.5C 171.833,30.8333 171.833,47.1667 170.5,63.5C 151.249,75.3749 132.083,87.3749 113,99.5C 112.5,118.164 112.333,136.83 112.5,155.5C 118.868,155.17 125.202,155.504 131.5,156.5C 118.667,174.167 105.833,191.833 93,209.5C 80.0259,191.692 66.8592,174.026 53.5,156.5C 59.7985,155.504 66.1318,155.17 72.5,155.5C 72.6666,136.83 72.4999,118.164 72,99.5C 52.2498,87.3743 32.4164,75.3743 12.5,63.5C 11.5006,47.1803 11.1672,30.8469 11.5,14.5 Z"/></g>
</svg>
