<?xml version="1.0" encoding="UTF-8"?>
<!DOCTYPE svg PUBLIC "-//W3C//DTD SVG 1.1//EN" "http://www.w3.org/Graphics/SVG/1.1/DTD/svg11.dtd">
<svg xmlns="http://www.w3.org/2000/svg" version="1.1" width="188px" height="256px" style="shape-rendering:geometricPrecision; text-rendering:geometricPrecision; image-rendering:optimizeQuality; fill-rule:evenodd; clip-rule:evenodd" xmlns:xlink="http://www.w3.org/1999/xlink">
<g><path style="opacity:1" fill="#fefffe" d="M 10.5,10.5 C 23.8333,10.5 37.1667,10.5 50.5,10.5C 50.1671,29.8448 50.5004,49.1782 51.5,68.5C 64.6188,77.1135 78.1188,85.1135 92,92.5C 104.4,84.7144 116.9,77.0477 129.5,69.5C 130.5,49.8446 130.833,30.178 130.5,10.5C 143.833,10.5 157.167,10.5 170.5,10.5C 170.833,38.1747 170.5,65.8414 169.5,93.5C 150.249,105.375 131.083,117.375 112,129.5C 111.5,148.164 111.333,166.83 111.5,185.5C 117.868,185.17 124.202,185.504 130.5,186.5C 117.667,204.167 104.833,221.833 92,239.5C 79.0259,221.692 65.8592,204.026 52.5,186.5C 58.7985,185.504 65.1318,185.17 71.5,185.5C 71.6666,166.83 71.4999,148.164 71,129.5C 51.2498,117.374 31.4164,105.374 11.5,93.5C 10.5002,65.8414 10.1669,38.1747 10.5,10.5 Z"/></g>
</svg>
