<?xml version="1.0" encoding="UTF-8"?>
<!DOCTYPE svg PUBLIC "-//W3C//DTD SVG 1.1//EN" "http://www.w3.org/Graphics/SVG/1.1/DTD/svg11.dtd">
<svg xmlns="http://www.w3.org/2000/svg" version="1.1" width="1024px" height="1024px" style="shape-rendering:geometricPrecision; text-rendering:geometricPrecision; image-rendering:optimizeQuality; fill-rule:evenodd; clip-rule:evenodd" xmlns:xlink="http://www.w3.org/1999/xlink">
<g><path style="opacity:0.98" fill="#282828" d="M 499.5,153.5 C 537.378,151.317 574.044,156.817 609.5,170C 652.632,190.154 676.799,223.987 682,271.5C 685.393,302.873 680.393,332.873 667,361.5C 659.196,377.613 650.196,392.947 640,407.5C 624.381,428.12 608.381,448.454 592,468.5C 572.732,492.015 556.732,517.682 544,545.5C 539.879,556.655 536.379,567.989 533.5,579.5C 499.142,570.494 464.809,561.327 430.5,552C 428.001,518.84 433.501,487.007 447,456.5C 453.237,443.022 460.237,430.022 468,417.5C 488.722,389.111 509.055,360.444 529,331.5C 534.598,322.205 538.098,312.205 539.5,301.5C 539.69,286.695 533.356,275.862 520.5,269C 501.31,264.523 482.643,266.19 464.5,274C 441.804,284.098 419.304,294.598 397,305.5C 382.077,275.988 367.411,246.321 353,216.5C 350.87,211.913 349.037,207.247 347.5,202.5C 375.767,189.797 404.434,177.964 433.5,167C 455.183,160.24 477.183,155.74 499.5,153.5 Z"/></g>
<g><path style="opacity:1" fill="#fefefe" d="M 490.5,176.5 C 523.427,174.096 555.761,177.263 587.5,186C 630.196,199.705 654.363,228.872 660,273.5C 662.589,305.395 656.256,335.395 641,363.5C 634.062,375.433 626.729,387.1 619,398.5C 603.574,418.349 587.907,438.016 572,457.5C 553.246,481.318 537.246,506.985 524,534.5C 521.454,540.303 519.621,546.303 518.5,552.5C 496.703,546.967 475.036,540.967 453.5,534.5C 452.224,514.488 455.391,495.155 463,476.5C 471.858,454.351 483.192,433.685 497,414.5C 514.775,391.391 531.775,367.725 548,343.5C 558.151,327.23 562.484,309.563 561,290.5C 557.368,267.202 544.201,252.368 521.5,246C 499.899,241.491 478.899,243.491 458.5,252C 441.607,259.697 424.773,267.53 408,275.5C 397.471,255.61 387.305,235.443 377.5,215C 413.091,195.861 450.758,183.028 490.5,176.5 Z"/></g>
<g><path style="opacity:0.978" fill="#282828" d="M 484.5,572.5 C 520.289,570.96 546.122,585.96 562,617.5C 572.012,645.242 570.345,672.242 557,698.5C 540.511,722.581 517.511,734.581 488,734.5C 452.679,733.814 428.179,717.314 414.5,685C 404.991,655.232 408.824,627.399 426,601.5C 441.391,583.387 460.891,573.721 484.5,572.5 Z"/></g>
<g><path style="opacity:1" fill="#fdfdfd" d="M 480.5,595.5 C 525.257,593.424 547.09,614.757 546,659.5C 544.015,685.666 530.515,702.499 505.5,710C 476.419,717.207 453.919,708.374 438,683.5C 428.295,660.778 429.629,638.778 442,617.5C 451.836,604.812 464.67,597.478 480.5,595.5 Z"/></g>
</svg>
