<?xml version="1.0" encoding="UTF-8"?>
<!DOCTYPE svg PUBLIC "-//W3C//DTD SVG 1.1//EN" "http://www.w3.org/Graphics/SVG/1.1/DTD/svg11.dtd">
<svg xmlns="http://www.w3.org/2000/svg" version="1.1" width="389px" height="540px" style="shape-rendering:geometricPrecision; text-rendering:geometricPrecision; image-rendering:optimizeQuality; fill-rule:evenodd; clip-rule:evenodd" xmlns:xlink="http://www.w3.org/1999/xlink">
<g><path style="opacity:1" fill="#fefffe" d="M 164.5,116.5 C 170.842,116.334 177.175,116.5 183.5,117C 187.351,125.641 185.351,132.641 177.5,138C 187.988,142.164 197.488,147.997 206,155.5C 206.667,159.167 206.667,162.833 206,166.5C 203.873,170.589 201.373,174.423 198.5,178C 200.167,179 201.833,180 203.5,181C 208.167,181.333 212.833,181.667 217.5,182C 221.354,185.718 226.021,187.718 231.5,188C 238.924,192.292 242.257,198.792 241.5,207.5C 241.476,210.421 241.143,213.254 240.5,216C 244.37,224.933 247.87,234.1 251,243.5C 252.397,251.231 251.397,258.564 248,265.5C 246.581,266.46 245.081,267.293 243.5,268C 246.833,270 249.5,272.667 251.5,276C 262.988,278.443 268.655,285.61 268.5,297.5C 268.973,303.459 266.64,307.793 261.5,310.5C 266.089,317.344 270.922,324.01 276,330.5C 276.333,332.833 276.667,335.167 277,337.5C 281.645,341.655 286.645,345.322 292,348.5C 293.023,352.317 292.523,355.817 290.5,359C 284.833,359.667 279.167,359.667 273.5,359C 263.696,350.197 254.196,341.03 245,331.5C 240.166,347.839 235,364.172 229.5,380.5C 231.864,384.567 233.698,388.9 235,393.5C 238.385,397.217 241.385,401.217 244,405.5C 244.699,418.359 246.699,431.025 250,443.5C 254.265,449.502 255.598,456.169 254,463.5C 249.13,468.715 243.463,472.715 237,475.5C 227.185,476.576 217.352,476.743 207.5,476C 206.667,475.167 205.833,474.333 205,473.5C 204.333,470.167 204.333,466.833 205,463.5C 208,461.5 211,459.5 214,457.5C 216.301,454.212 218.134,450.712 219.5,447C 217.527,437.556 214.027,428.722 209,420.5C 208.282,419.549 207.449,419.383 206.5,420C 198.395,429.477 188.395,432.144 176.5,428C 175.299,427.097 174.465,425.931 174,424.5C 173.333,420.833 173.333,417.167 174,413.5C 175.333,410.833 177.333,408.833 180,407.5C 181.373,405.305 181.706,402.971 181,400.5C 169.421,391.458 156.588,384.625 142.5,380C 137.779,375.557 132.612,371.724 127,368.5C 123.061,360.229 124.061,352.563 130,345.5C 141.26,331.57 153.26,318.237 166,305.5C 166.792,303.413 167.959,301.579 169.5,300C 152.35,298.751 135.35,297.085 118.5,295C 117.887,292.853 117.221,290.686 116.5,288.5C 107.277,286.994 98.6098,283.994 90.5,279.5C 82.8245,283.15 76.1578,281.984 70.5,276C 65.1327,275.597 59.7993,274.93 54.5,274C 51.8999,271.016 50.8999,267.516 51.5,263.5C 56.1271,263.427 60.4604,262.26 64.5,260C 73.1301,258.914 81.7968,258.247 90.5,258C 97.5314,256.575 104.531,255.408 111.5,254.5C 108.647,245.755 106.481,236.755 105,227.5C 104.333,220.5 104.333,213.5 105,206.5C 108.175,200.829 113.008,198.162 119.5,198.5C 126.952,199.196 134.285,200.53 141.5,202.5C 141.34,200.801 141.506,199.134 142,197.5C 143.563,196.275 144.73,194.775 145.5,193C 143.971,190.475 141.804,188.642 139,187.5C 136.762,181.073 138.928,177.239 145.5,176C 143.477,172.817 142.977,169.317 144,165.5C 145.61,160.669 147.61,156.003 150,151.5C 150.945,147.886 151.612,144.219 152,140.5C 153.074,139.382 154.24,138.382 155.5,137.5C 151.771,127.406 154.771,120.406 164.5,116.5 Z M 142.5,246.5 C 145.435,253.121 148.101,259.955 150.5,267C 147.525,267.044 144.525,266.877 141.5,266.5C 141.777,263.552 141.444,260.719 140.5,258C 141,257.5 141.5,257 142,256.5C 142.498,253.183 142.665,249.85 142.5,246.5 Z M 194.5,343.5 C 195.239,343.369 195.906,343.536 196.5,344C 194.95,350.791 193.45,357.624 192,364.5C 189.833,359.667 186.333,356.167 181.5,354C 186.311,351.015 190.644,347.515 194.5,343.5 Z"/></g>
<g><path style="opacity:1" fill="#010101" d="M 168.5,118.5 C 173.648,117.926 178.482,118.593 183,120.5C 183.667,122.5 183.667,124.5 183,126.5C 180.891,131.065 178.058,135.065 174.5,138.5C 185.796,142.565 195.963,148.565 205,156.5C 205.667,159.5 205.667,162.5 205,165.5C 202.916,169.336 200.583,173.003 198,176.5C 197.251,177.635 197.417,178.635 198.5,179.5C 200.583,180.959 202.75,182.292 205,183.5C 211.276,181.336 216.776,182.503 221.5,187C 234.562,187.636 240.895,194.469 240.5,207.5C 240.333,209.833 240.167,212.167 240,214.5C 239.5,215 239,215.5 238.5,216C 240.049,217.214 241.215,218.714 242,220.5C 244.263,228.621 246.929,236.621 250,244.5C 251.356,251.576 250.356,258.243 247,264.5C 244.913,265.794 242.746,266.961 240.5,268C 244.78,269.947 248.113,272.947 250.5,277C 263.064,280.269 268.564,288.436 267,301.5C 266.529,303.246 265.862,304.913 265,306.5C 262.863,307.479 261.029,308.812 259.5,310.5C 264.667,317.5 269.833,324.5 275,331.5C 275.333,333.833 275.667,336.167 276,338.5C 280.645,342.655 285.645,346.322 291,349.5C 291.978,352.669 291.478,355.503 289.5,358C 284.5,358.667 279.5,358.667 274.5,358C 264.029,348.53 253.863,338.697 244,328.5C 244.344,334.796 242.677,340.463 239,345.5C 236.265,357.537 232.432,369.204 227.5,380.5C 230.471,384.776 232.637,389.442 234,394.5C 237.385,398.217 240.385,402.217 243,406.5C 243.699,419.359 245.699,432.025 249,444.5C 256.322,454.744 254.822,463.244 244.5,470C 241.884,471.958 239.051,473.458 236,474.5C 226.852,475.569 217.686,475.735 208.5,475C 205.606,472.091 204.773,468.591 206,464.5C 209,462.5 212,460.5 215,458.5C 217.767,455.08 219.6,451.247 220.5,447C 218.592,435.768 214.258,425.601 207.5,416.5C 200.149,427.68 190.149,431.18 177.5,427C 174.64,423.319 173.807,419.152 175,414.5C 177.333,411.833 179.667,409.167 182,406.5C 182.667,404.167 182.667,401.833 182,399.5C 170.421,390.458 157.588,383.625 143.5,379C 138.779,374.557 133.612,370.724 128,367.5C 125.702,363.782 125.035,359.782 126,355.5C 129.922,347.984 134.589,340.984 140,334.5C 151.055,323.281 161.555,311.614 171.5,299.5C 154.046,297.789 136.712,295.955 119.5,294C 118.887,291.853 118.221,289.686 117.5,287.5C 110.031,285.773 102.697,283.607 95.5,281C 93.9095,279.954 92.4095,278.787 91,277.5C 83.6661,282.219 77.1661,281.386 71.5,275C 66.1327,274.597 60.7993,273.93 55.5,273C 53.0695,270.695 52.0695,267.862 52.5,264.5C 57.1271,264.427 61.4604,263.26 65.5,261C 74.1301,259.914 82.7968,259.247 91.5,259C 98.8682,257.594 106.201,256.26 113.5,255C 107.398,239.809 104.898,223.975 106,207.5C 110.348,199.892 116.848,197.392 125.5,200C 131.094,201.273 136.594,202.773 142,204.5C 142.333,202.5 142.667,200.5 143,198.5C 145.077,196.924 146.577,194.924 147.5,192.5C 145.613,189.71 143.113,187.71 140,186.5C 139.333,184.5 139.333,182.5 140,180.5C 142.708,179.104 145.208,177.437 147.5,175.5C 144.61,173.205 143.777,170.205 145,166.5C 146.61,161.669 148.61,157.003 151,152.5C 151.945,148.886 152.612,145.219 153,141.5C 155.069,140.736 157.236,140.236 159.5,140C 154.962,133.372 155.629,127.372 161.5,122C 163.713,120.384 166.047,119.217 168.5,118.5 Z M 142.5,246.5 C 142.665,249.85 142.498,253.183 142,256.5C 141.5,257 141,257.5 140.5,258C 141.444,260.719 141.777,263.552 141.5,266.5C 144.525,266.877 147.525,267.044 150.5,267C 148.101,259.955 145.435,253.121 142.5,246.5 Z M 194.5,343.5 C 190.644,347.515 186.311,351.015 181.5,354C 186.333,356.167 189.833,359.667 192,364.5C 193.45,357.624 194.95,350.791 196.5,344C 195.906,343.536 195.239,343.369 194.5,343.5 Z"/></g>
<g><path style="opacity:1" fill="#699d15" d="M 167.5,120.5 C 171.514,120.334 175.514,120.501 179.5,121C 180.516,121.519 181.182,122.353 181.5,123.5C 178.559,130.774 173.559,136.107 166.5,139.5C 159.213,138.604 156.713,134.604 159,127.5C 161.441,124.546 164.275,122.213 167.5,120.5 Z"/></g>
<g><path style="opacity:1" fill="#fefffe" d="M 165.5,149.5 C 164.764,151.229 163.43,152.229 161.5,152.5C 161.167,151.833 160.833,151.167 160.5,150.5C 161.496,150.586 162.329,150.252 163,149.5C 163.952,141.423 162.118,140.589 157.5,147C 157.978,148.303 158.645,149.469 159.5,150.5C 158.833,150.5 158.167,150.5 157.5,150.5C 156.167,148.167 156.167,145.833 157.5,143.5C 165.428,138.165 168.095,140.165 165.5,149.5 Z"/></g>
<g><path style="opacity:1" fill="#f4cb12" d="M 192.5,158.5 C 185.951,151.892 177.951,147.892 168.5,146.5C 168.254,144.22 168.254,142.22 168.5,140.5C 180.534,144.101 191.7,149.434 202,156.5C 202.497,158.81 202.663,161.143 202.5,163.5C 198.899,162.366 195.565,160.699 192.5,158.5 Z"/></g>
<g><path style="opacity:1" fill="#f4cb12" d="M 157.5,143.5 C 155.926,143.937 154.759,144.937 154,146.5C 153.631,143.049 155.131,141.549 158.5,142C 157.944,142.383 157.611,142.883 157.5,143.5 Z"/></g>
<g><path style="opacity:1" fill="#ec1c23" d="M 160.5,150.5 C 160.167,150.5 159.833,150.5 159.5,150.5C 158.645,149.469 157.978,148.303 157.5,147C 162.118,140.589 163.952,141.423 163,149.5C 162.329,150.252 161.496,150.586 160.5,150.5 Z"/></g>
<g><path style="opacity:1" fill="#3f47cc" d="M 159.5,145.5 C 162.674,145.952 163.007,146.952 160.5,148.5C 158.481,147.867 158.147,146.867 159.5,145.5 Z"/></g>
<g><path style="opacity:1" fill="#1a1a1a" d="M 173.5,171.5 C 168.65,174.876 163.65,175.209 158.5,172.5C 159.5,171.833 160.5,171.167 161.5,170.5C 163.973,168.857 165.973,166.69 167.5,164C 164.673,163.299 162.006,162.299 159.5,161C 161.022,159.672 162.689,159.838 164.5,161.5C 164.833,161.167 165.167,160.833 165.5,160.5C 164.787,158.224 164.287,155.891 164,153.5C 163.047,155.592 161.714,155.925 160,154.5C 159.333,153.833 159.333,153.167 160,152.5C 160.69,153.738 161.19,153.738 161.5,152.5C 163.43,152.229 164.764,151.229 165.5,149.5C 168.466,146.845 171.466,146.845 174.5,149.5C 176.072,157.083 175.738,164.416 173.5,171.5 Z"/></g>
<g><path style="opacity:1" fill="#fec90d" d="M 157.5,150.5 C 158.167,150.5 158.833,150.5 159.5,150.5C 159.833,150.5 160.167,150.5 160.5,150.5C 160.833,151.167 161.167,151.833 161.5,152.5C 161.19,153.738 160.69,153.738 160,152.5C 159.333,153.167 159.333,153.833 160,154.5C 161.714,155.925 163.047,155.592 164,153.5C 164.287,155.891 164.787,158.224 165.5,160.5C 165.167,160.833 164.833,161.167 164.5,161.5C 162.689,159.838 161.022,159.672 159.5,161C 162.006,162.299 164.673,163.299 167.5,164C 165.973,166.69 163.973,168.857 161.5,170.5C 156.907,171.582 153.907,169.915 152.5,165.5C 154.389,164.396 156.055,163.063 157.5,161.5C 157.192,160.692 156.692,160.025 156,159.5C 155.151,161.506 153.985,162.172 152.5,161.5C 153.074,158.823 153.741,156.157 154.5,153.5C 155.478,153.977 156.311,154.643 157,155.5C 157.494,153.866 157.66,152.199 157.5,150.5 Z"/></g>
<g><path style="opacity:1" fill="#eec514" d="M 181.5,167.5 C 181.158,168.338 180.492,168.672 179.5,168.5C 178.184,165.913 177.517,162.913 177.5,159.5C 177.833,156.5 178.167,153.5 178.5,150.5C 180.795,151.136 182.461,152.469 183.5,154.5C 182.897,158.889 182.23,163.222 181.5,167.5 Z"/></g>
<g><path style="opacity:1" fill="#f4cb12" d="M 182.5,178.5 C 185.614,177.909 188.114,176.242 190,173.5C 192.587,170.587 194.754,167.42 196.5,164C 197.725,163.437 198.725,163.77 199.5,165C 195.94,169.563 192.773,174.396 190,179.5C 188.333,181.167 186.667,182.833 185,184.5C 184.062,182.512 183.228,180.512 182.5,178.5 Z"/></g>
<g><path style="opacity:1" fill="#f3f142" d="M 192.5,158.5 C 190.007,164.98 186.341,170.646 181.5,175.5C 180.209,175.263 179.209,175.596 178.5,176.5C 172.545,177.684 166.545,178.684 160.5,179.5C 147.466,178.033 143.966,171.7 150,160.5C 147.874,167.888 150.707,171.888 158.5,172.5C 163.65,175.209 168.65,174.876 173.5,171.5C 175.97,171.346 177.97,170.346 179.5,168.5C 180.492,168.672 181.158,168.338 181.5,167.5C 186.068,165.598 189.735,162.598 192.5,158.5 Z"/></g>
<g><path style="opacity:1" fill="#c2a119" d="M 181.5,175.5 C 182.404,176.209 182.737,177.209 182.5,178.5C 180.801,178.66 179.134,178.494 177.5,178C 178.056,177.617 178.389,177.117 178.5,176.5C 179.209,175.596 180.209,175.263 181.5,175.5 Z"/></g>
<g><path style="opacity:1" fill="#fec90d" d="M 178.5,180.5 C 179.5,180.5 180.5,180.5 181.5,180.5C 182.167,182.819 182.334,185.153 182,187.5C 178.576,189.267 176.41,188.267 175.5,184.5C 175.787,182.557 176.787,181.223 178.5,180.5 Z"/></g>
<g><path style="opacity:1" fill="#d6d6d6" d="M 196.5,186.5 C 195.486,187.674 194.153,188.34 192.5,188.5C 191.351,188.209 190.684,187.376 190.5,186C 190.528,184.93 190.861,184.097 191.5,183.5C 192.251,182.427 193.251,182.26 194.5,183C 195.328,183.915 196.328,184.581 197.5,185C 196.944,185.383 196.611,185.883 196.5,186.5 Z"/></g>
<g><path style="opacity:1" fill="#000000" d="M 191.5,183.5 C 193.983,183.73 194.483,184.397 193,185.5C 191.97,185.164 191.47,184.497 191.5,183.5 Z"/></g>
<g><path style="opacity:1" fill="#fefffe" d="M 196.5,186.5 C 197.239,186.369 197.906,186.536 198.5,187C 190.295,194.656 187.795,203.823 191,214.5C 187.434,205.575 187.934,196.909 192.5,188.5C 194.153,188.34 195.486,187.674 196.5,186.5 Z"/></g>
<g><path style="opacity:1" fill="#fefffe" d="M 208.5,186.5 C 210.958,186.227 212.625,187.227 213.5,189.5C 210.9,192.488 208.9,192.154 207.5,188.5C 207.863,187.817 208.196,187.15 208.5,186.5 Z"/></g>
<g><path style="opacity:1" fill="#c0601d" d="M 168.5,194.5 C 165.119,195.812 161.619,196.812 158,197.5C 156.739,197.241 155.739,196.574 155,195.5C 154.667,197.167 154.333,198.833 154,200.5C 153.434,197.771 151.934,195.771 149.5,194.5C 149.683,192.064 149.016,189.897 147.5,188C 155.598,187.114 163.598,187.614 171.5,189.5C 170.725,191.396 169.725,193.063 168.5,194.5 Z"/></g>
<g><path style="opacity:1" fill="#000000" d="M 209.5,187.5 C 211.337,187.639 211.67,188.306 210.5,189.5C 209.702,189.043 209.369,188.376 209.5,187.5 Z"/></g>
<g><path style="opacity:1" fill="#000000" d="M 163.5,189.5 C 160.014,190.238 156.681,191.071 153.5,192C 156.378,188.696 159.711,187.863 163.5,189.5 Z"/></g>
<g><path style="opacity:1" fill="#fec90d" d="M 174.5,188.5 C 177.813,190.232 177.98,192.566 175,195.5C 172.014,193.431 171.847,191.097 174.5,188.5 Z"/></g>
<g><path style="opacity:1" fill="#7e7f7e" d="M 199.5,188.5 C 202.604,187.971 204.937,188.971 206.5,191.5C 200.893,199.381 200.227,207.548 204.5,216C 200.708,216.286 197.208,215.453 194,213.5C 191.012,206.799 191.345,200.465 195,194.5C 196.752,192.649 198.252,190.649 199.5,188.5 Z"/></g>
<g><path style="opacity:1" fill="#000000" d="M 163.5,189.5 C 165.344,190.204 165.844,191.537 165,193.5C 164.59,192.099 164.09,190.766 163.5,189.5 Z"/></g>
<g><path style="opacity:1" fill="#7e7f7e" d="M 214.5,191.5 C 219.31,192.095 223.976,193.262 228.5,195C 218.865,200.777 215.031,209.277 217,220.5C 211.493,218.515 208.66,214.515 208.5,208.5C 209.652,202.53 211.652,196.863 214.5,191.5 Z"/></g>
<g><path style="opacity:1" fill="#000000" d="M 158.5,192.5 C 158.5,193.5 158.5,194.5 158.5,195.5C 155.833,194.5 155.833,193.5 158.5,192.5 Z"/></g>
<g><path style="opacity:1" fill="#fefffe" d="M 158.5,192.5 C 163.767,193.438 163.767,194.438 158.5,195.5C 158.5,194.5 158.5,193.5 158.5,192.5 Z"/></g>
<g><path style="opacity:1" fill="#fefffe" d="M 208.5,192.5 C 209.675,192.281 210.675,192.614 211.5,193.5C 206.449,201.063 205.282,209.063 208,217.5C 202.079,209.138 202.246,200.805 208.5,192.5 Z"/></g>
<g><path style="opacity:1" fill="#f2a381" d="M 182.5,202.5 C 181.128,203.512 179.795,204.512 178.5,205.5C 177.065,207.401 175.398,207.734 173.5,206.5C 173.389,205.883 173.056,205.383 172.5,205C 174.5,201.333 176.5,197.667 178.5,194C 179.784,193.316 180.951,193.483 182,194.5C 182.497,197.146 182.664,199.813 182.5,202.5 Z"/></g>
<g><path style="opacity:1" fill="#f8a784" d="M 149.5,194.5 C 151.934,195.771 153.434,197.771 154,200.5C 154.333,198.833 154.667,197.167 155,195.5C 155.739,196.574 156.739,197.241 158,197.5C 161.619,196.812 165.119,195.812 168.5,194.5C 165.77,201.183 162.937,207.85 160,214.5C 159.167,215.333 158.333,216.167 157.5,217C 154.518,217.498 151.518,217.665 148.5,217.5C 147.566,216.432 147.232,215.099 147.5,213.5C 149.868,212.986 151.868,211.82 153.5,210C 153.272,209.601 152.938,209.435 152.5,209.5C 151.01,207.72 149.01,207.054 146.5,207.5C 145.209,206.458 145.209,205.292 146.5,204C 148.5,203.667 150.5,203.333 152.5,203C 149.774,202.818 147.107,202.318 144.5,201.5C 145.931,198.961 147.597,196.628 149.5,194.5 Z"/></g>
<g><path style="opacity:1" fill="#fec90d" d="M 171.5,194.5 C 174.465,195.582 174.965,197.249 173,199.5C 170.676,198.225 170.176,196.558 171.5,194.5 Z"/></g>
<g><path style="opacity:1" fill="#6f5d55" d="M 185.5,207.5 C 185.265,206.903 184.765,206.57 184,206.5C 182.697,206.978 181.531,207.645 180.5,208.5C 180.068,207.29 179.401,206.29 178.5,205.5C 179.795,204.512 181.128,203.512 182.5,202.5C 183.309,200.708 183.809,198.708 184,196.5C 184.915,197.328 185.581,198.328 186,199.5C 186.333,198.5 186.667,197.5 187,196.5C 186.5,200.018 186.666,203.518 187.5,207C 187.317,208.684 186.65,208.85 185.5,207.5 Z"/></g>
<g><path style="opacity:1" fill="#7e7f7e" d="M 226.5,197.5 C 228.582,197.472 230.416,198.139 232,199.5C 232.748,201.332 233.748,202.999 235,204.5C 235.667,206.5 235.667,208.5 235,210.5C 232.303,213.858 229.636,217.191 227,220.5C 225.333,221.5 223.667,222.5 222,223.5C 217.663,216.826 217.663,210.159 222,203.5C 224.102,201.905 225.602,199.905 226.5,197.5 Z"/></g>
<g><path style="opacity:1" fill="#fec90d" d="M 169.5,198.5 C 173.156,200.266 173.156,202.266 169.5,204.5C 168.5,204.167 167.833,203.5 167.5,202.5C 168.18,201.14 168.847,199.807 169.5,198.5 Z"/></g>
<g><path style="opacity:1" fill="#000000" d="M 177.5,199.5 C 178.568,198.566 179.901,198.232 181.5,198.5C 181.934,201.166 180.934,202.333 178.5,202C 181.332,200.092 180.999,199.259 177.5,199.5 Z"/></g>
<g><path style="opacity:1" fill="#000000" d="M 226.5,203.5 C 227.568,202.566 228.901,202.232 230.5,202.5C 230.752,205.32 230.252,207.986 229,210.5C 227.989,211.337 226.822,211.67 225.5,211.5C 225.457,207.107 225.957,206.774 227,210.5C 228.903,208.559 229.736,206.226 229.5,203.5C 228.5,203.5 227.5,203.5 226.5,203.5 Z"/></g>
<g><path style="opacity:1" fill="#000000" d="M 226.5,203.5 C 224.167,206.614 222.501,210.114 221.5,214C 222.126,214.75 222.626,215.584 223,216.5C 225.183,214.817 227.35,214.15 229.5,214.5C 227.402,215.632 225.235,216.632 223,217.5C 221.558,216.788 220.725,215.621 220.5,214C 221.536,211.226 222.369,208.393 223,205.5C 223.816,204.177 224.983,203.511 226.5,203.5 Z"/></g>
<g><path style="opacity:1" fill="#212880" d="M 117.5,204.5 C 124.747,205.561 131.747,207.394 138.5,210C 134.872,211.792 132.539,214.625 131.5,218.5C 133.137,223.107 135.304,227.44 138,231.5C 139.845,233.35 141.845,233.683 144,232.5C 144.781,233.944 144.614,235.277 143.5,236.5C 140.46,235.157 137.46,233.824 134.5,232.5C 132.085,232.719 131.085,234.052 131.5,236.5C 125.514,235.384 119.514,235.384 113.5,236.5C 113.093,232.797 112.426,229.13 111.5,225.5C 111.833,224.833 112.167,224.167 112.5,223.5C 115.749,225.853 119.082,226.019 122.5,224C 117.302,224.068 113.302,222.068 110.5,218C 110.833,217.167 111.167,216.333 111.5,215.5C 114.433,216.93 116.933,218.93 119,221.5C 119.315,220.092 118.982,218.759 118,217.5C 115.766,215.3 113.266,213.467 110.5,212C 112.361,208.975 114.694,206.475 117.5,204.5 Z"/></g>
<g><path style="opacity:1" fill="#fec90d" d="M 166.5,204.5 C 169.819,205.319 170.319,206.986 168,209.5C 165.527,208.26 165.027,206.593 166.5,204.5 Z"/></g>
<g><path style="opacity:1" fill="#bc5e1d" d="M 178.5,205.5 C 179.401,206.29 180.068,207.29 180.5,208.5C 175.324,214.259 168.991,218.259 161.5,220.5C 161.167,220.5 160.833,220.5 160.5,220.5C 162.519,219.067 164.686,217.733 167,216.5C 168.469,212.523 170.635,209.19 173.5,206.5C 175.398,207.734 177.065,207.401 178.5,205.5 Z"/></g>
<g><path style="opacity:1" fill="#ec1c23" d="M 185.5,207.5 C 184.833,207.5 184.5,207.833 184.5,208.5C 178.647,214.506 171.814,219.172 164,222.5C 165.737,227.002 167.237,231.669 168.5,236.5C 167.167,236.5 165.833,236.5 164.5,236.5C 161.967,232.768 159.967,228.768 158.5,224.5C 158.5,223.833 158.833,223.5 159.5,223.5C 160.987,226.473 162.487,229.473 164,232.5C 164.72,234.255 165.887,235.089 167.5,235C 164.998,230.316 162.998,225.482 161.5,220.5C 168.991,218.259 175.324,214.259 180.5,208.5C 181.531,207.645 182.697,206.978 184,206.5C 184.765,206.57 185.265,206.903 185.5,207.5 Z"/></g>
<g><path style="opacity:1" fill="#fefffe" d="M 146.5,207.5 C 149.01,207.054 151.01,207.72 152.5,209.5C 150.5,209.5 148.5,209.5 146.5,209.5C 146.5,208.833 146.5,208.167 146.5,207.5 Z"/></g>
<g><path style="opacity:1" fill="#fec90d" d="M 164.5,208.5 C 167.465,209.582 167.965,211.249 166,213.5C 165.25,212.874 164.416,212.374 163.5,212C 164.337,210.989 164.67,209.822 164.5,208.5 Z"/></g>
<g><path style="opacity:1" fill="#f4cb12" d="M 184.5,208.5 C 186.489,211.806 188.489,215.139 190.5,218.5C 185.682,222.652 182.015,227.652 179.5,233.5C 175.789,234.344 172.123,235.344 168.5,236.5C 167.237,231.669 165.737,227.002 164,222.5C 171.814,219.172 178.647,214.506 184.5,208.5 Z"/></g>
<g><path style="opacity:1" fill="#ddb717" d="M 146.5,209.5 C 146.833,210.833 147.167,212.167 147.5,213.5C 146.833,214.167 146.167,214.833 145.5,215.5C 144.147,217.128 144.481,218.462 146.5,219.5C 146.833,220.5 147.5,221.167 148.5,221.5C 147.243,225.65 144.909,228.983 141.5,231.5C 139.712,229.32 138.045,226.987 136.5,224.5C 137.949,223.828 139.282,223.161 140.5,222.5C 140.842,221.662 141.508,221.328 142.5,221.5C 145.853,221.655 146.186,220.988 143.5,219.5C 143.167,218.5 142.5,217.833 141.5,217.5C 141.5,216.5 141.5,215.5 141.5,214.5C 139.833,214.5 138.167,214.5 136.5,214.5C 139.373,212.087 142.706,210.42 146.5,209.5 Z"/></g>
<g><path style="opacity:1" fill="#52100c" d="M 146.5,209.5 C 148.5,209.5 150.5,209.5 152.5,209.5C 152.938,209.435 153.272,209.601 153.5,210C 151.868,211.82 149.868,212.986 147.5,213.5C 147.167,212.167 146.833,210.833 146.5,209.5 Z"/></g>
<g><path style="opacity:1" fill="#fec90d" d="M 162.5,213.5 C 163.756,213.461 164.756,213.961 165.5,215C 163.945,216.289 162.279,216.956 160.5,217C 161.823,216.184 162.489,215.017 162.5,213.5 Z"/></g>
<g><path style="opacity:1" fill="#c7a519" d="M 136.5,214.5 C 138.294,215.233 139.961,216.233 141.5,217.5C 140.833,218.167 140.167,218.833 139.5,219.5C 139.44,220.043 139.107,220.376 138.5,220.5C 136.974,220.006 135.641,219.339 134.5,218.5C 134.229,216.62 134.896,215.287 136.5,214.5 Z"/></g>
<g><path style="opacity:1" fill="#000000" d="M 136.5,214.5 C 138.167,214.5 139.833,214.5 141.5,214.5C 141.5,215.5 141.5,216.5 141.5,217.5C 139.961,216.233 138.294,215.233 136.5,214.5 Z"/></g>
<g><path style="opacity:1" fill="#000000" d="M 145.5,215.5 C 145.833,216.833 146.167,218.167 146.5,219.5C 144.481,218.462 144.147,217.128 145.5,215.5 Z"/></g>
<g><path style="opacity:1" fill="#4e7117" d="M 147.5,213.5 C 147.232,215.099 147.566,216.432 148.5,217.5C 150.836,218.594 150.836,219.927 148.5,221.5C 147.5,221.167 146.833,220.5 146.5,219.5C 146.167,218.167 145.833,216.833 145.5,215.5C 146.167,214.833 146.833,214.167 147.5,213.5 Z"/></g>
<g><path style="opacity:1" fill="#000000" d="M 141.5,217.5 C 142.5,217.833 143.167,218.5 143.5,219.5C 142.167,219.5 140.833,219.5 139.5,219.5C 140.167,218.833 140.833,218.167 141.5,217.5 Z"/></g>
<g><path style="opacity:1" fill="#6e0010" d="M 196.5,218.5 C 203.321,217.866 209.988,219.199 216.5,222.5C 217.489,227.969 218.989,233.302 221,238.5C 224.796,247.085 228.296,255.752 231.5,264.5C 229.712,264.785 228.045,264.452 226.5,263.5C 224,258.5 221.5,253.5 219,248.5C 217.871,242.521 216.871,236.521 216,230.5C 210.471,227.832 205.638,224.332 201.5,220C 199.975,218.991 198.308,218.491 196.5,218.5 Z"/></g>
<g><path style="opacity:1" fill="#f4cb12" d="M 134.5,218.5 C 135.641,219.339 136.974,220.006 138.5,220.5C 139.107,220.376 139.44,220.043 139.5,219.5C 140.833,219.5 142.167,219.5 143.5,219.5C 143.167,220.167 142.833,220.833 142.5,221.5C 141.508,221.328 140.842,221.662 140.5,222.5C 137.404,223.093 135.071,222.093 133.5,219.5C 133.624,218.893 133.957,218.56 134.5,218.5 Z"/></g>
<g><path style="opacity:1" fill="#fefffe" d="M 152.5,218.5 C 154.167,218.5 155.833,218.5 157.5,218.5C 156.595,223.698 154.428,228.364 151,232.5C 151.22,236.248 149.887,239.248 147,241.5C 146.333,237.833 146.333,234.167 147,230.5C 148.588,226.328 150.421,222.328 152.5,218.5 Z"/></g>
<g><path style="opacity:1" fill="#000000" d="M 143.5,219.5 C 146.186,220.988 145.853,221.655 142.5,221.5C 142.833,220.833 143.167,220.167 143.5,219.5 Z"/></g>
<g><path style="opacity:1" fill="#fefffe" d="M 193.5,219.5 C 196.516,219.841 199.182,221.007 201.5,223C 199.456,223.048 197.456,222.548 195.5,221.5C 193.545,223.958 191.378,226.291 189,228.5C 187.826,232.046 187.16,235.713 187,239.5C 184.907,242.044 183.907,245.044 184,248.5C 183,249.833 182,251.167 181,252.5C 178.459,238.922 182.626,227.922 193.5,219.5 Z"/></g>
<g><path style="opacity:1" fill="#870014" d="M 229.5,219.5 C 231.308,219.491 232.975,219.991 234.5,221C 231.369,224.903 227.369,226.569 222.5,226C 224.001,224.748 225.668,223.748 227.5,223C 228.823,222.184 229.489,221.017 229.5,219.5 Z"/></g>
<g><path style="opacity:1" fill="#4c0609" d="M 160.5,220.5 C 160.833,220.5 161.167,220.5 161.5,220.5C 162.998,225.482 164.998,230.316 167.5,235C 165.887,235.089 164.72,234.255 164,232.5C 162.487,229.473 160.987,226.473 159.5,223.5C 159.263,222.209 159.596,221.209 160.5,220.5 Z"/></g>
<g><path style="opacity:1" fill="#fefffe" d="M 235.5,222.5 C 236.043,222.56 236.376,222.893 236.5,223.5C 233.015,227.519 228.681,229.352 223.5,229C 228.124,227.85 232.124,225.684 235.5,222.5 Z"/></g>
<g><path style="opacity:1" fill="#5f8c17" d="M 203.5,226.5 C 202.341,231.33 199.341,233.996 194.5,234.5C 192.833,234.5 191.167,234.5 189.5,234.5C 189.491,232.692 189.991,231.025 191,229.5C 193.018,227.65 194.851,225.65 196.5,223.5C 198.885,224.661 201.219,225.661 203.5,226.5 Z"/></g>
<g><path style="opacity:1" fill="#f4cb12" d="M 158.5,224.5 C 159.967,228.768 161.967,232.768 164.5,236.5C 163.167,236.167 161.833,235.833 160.5,235.5C 159.034,234.653 158.2,233.32 158,231.5C 157.204,228.961 157.371,226.628 158.5,224.5 Z"/></g>
<g><path style="opacity:1" fill="#870014" d="M 236.5,225.5 C 240.51,232.327 243.676,239.661 246,247.5C 247.076,252.072 246.243,256.239 243.5,260C 240.901,260.769 238.401,260.602 236,259.5C 233.129,249.926 229.296,240.76 224.5,232C 229.131,230.839 233.131,228.673 236.5,225.5 Z"/></g>
<g><path style="opacity:1" fill="#dab517" d="M 203.5,226.5 C 208.37,227.729 212.037,230.396 214.5,234.5C 214.418,237.093 213.252,239.093 211,240.5C 209.334,239.66 209.167,240.16 210.5,242C 206.228,245.961 201.561,248.461 196.5,249.5C 193.432,248.699 190.432,247.699 187.5,246.5C 186.386,245.277 186.219,243.944 187,242.5C 188.66,239.664 191.16,238.164 194.5,238C 188.143,237.03 188.143,235.864 194.5,234.5C 199.341,233.996 202.341,231.33 203.5,226.5 Z"/></g>
<g><path style="opacity:1" fill="#fefffe" d="M 219.5,226.5 C 225.744,238.278 230.744,250.278 234.5,262.5C 228.395,250.957 223.395,238.957 219.5,226.5 Z"/></g>
<g><path style="opacity:1" fill="#fefffe" d="M 154.5,230.5 C 156.785,233.855 157.118,237.522 155.5,241.5C 156.875,250.415 160.541,258.249 166.5,265C 166,265.167 165.5,265.333 165,265.5C 154.311,255.937 150.811,244.271 154.5,230.5 Z"/></g>
<g><path style="opacity:1" fill="#fefffe" d="M 179.5,233.5 C 178.694,234.728 177.694,235.728 176.5,236.5C 173.933,236.721 171.599,237.388 169.5,238.5C 167.167,238.5 164.833,238.5 162.5,238.5C 162.5,237.833 162.167,237.5 161.5,237.5C 161.167,236.833 160.833,236.167 160.5,235.5C 161.833,235.833 163.167,236.167 164.5,236.5C 165.833,236.5 167.167,236.5 168.5,236.5C 172.123,235.344 175.789,234.344 179.5,233.5 Z"/></g>
<g><path style="opacity:1" fill="#212677" d="M 176.5,236.5 C 177.525,236.897 177.692,237.563 177,238.5C 173.667,243.167 170.333,247.833 167,252.5C 166.5,252 166,251.5 165.5,251C 166.451,247.943 166.784,244.777 166.5,241.5C 167.5,240.5 168.5,239.5 169.5,238.5C 171.599,237.388 173.933,236.721 176.5,236.5 Z"/></g>
<g><path style="opacity:1" fill="#ec1c23" d="M 134.5,247.5 C 131.681,247.131 128.848,246.798 126,246.5C 123.179,246.408 120.679,247.074 118.5,248.5C 116.598,245.663 115.931,242.329 116.5,238.5C 121.809,237.488 127.142,237.488 132.5,238.5C 132.207,241.754 132.874,244.754 134.5,247.5 Z"/></g>
<g><path style="opacity:1" fill="#21287e" d="M 161.5,237.5 C 162.167,237.5 162.5,237.833 162.5,238.5C 164.219,239.022 165.552,240.022 166.5,241.5C 165.683,243.969 165.183,246.635 165,249.5C 162.592,245.942 160.758,242.109 159.5,238C 160.094,237.536 160.761,237.369 161.5,237.5 Z"/></g>
<g><path style="opacity:1" fill="#000000" d="M 162.5,238.5 C 164.833,238.5 167.167,238.5 169.5,238.5C 168.5,239.5 167.5,240.5 166.5,241.5C 165.552,240.022 164.219,239.022 162.5,238.5 Z"/></g>
<g><path style="opacity:1" fill="#870014" d="M 157.5,239.5 C 159.02,243.525 160.854,247.525 163,251.5C 166.359,254.384 168.859,257.884 170.5,262C 169.975,262.692 169.308,263.192 168.5,263.5C 162.139,256.775 158.472,248.775 157.5,239.5 Z"/></g>
<g><path style="opacity:1" fill="#21277d" d="M 214.5,239.5 C 217.522,245.259 216.688,250.592 212,255.5C 204.027,255.847 196.027,255.18 188,253.5C 187.167,253.833 186.333,254.167 185.5,254.5C 190.684,256.15 196.017,257.15 201.5,257.5C 204.564,256.675 207.564,256.675 210.5,257.5C 205.476,267.023 198.809,275.189 190.5,282C 183.285,279.001 176.619,274.834 170.5,269.5C 169.406,270.868 169.74,272.035 171.5,273C 176.558,277.057 181.892,280.724 187.5,284C 183.167,287 178.833,290 174.5,293C 164.138,293.247 153.805,292.747 143.5,291.5C 143.498,285.477 143.165,279.477 142.5,273.5C 148.245,273.789 153.912,273.289 159.5,272C 164.833,268.667 170.167,265.333 175.5,262C 179.689,257.779 183.522,253.279 187,248.5C 198.722,253.392 207.889,250.392 214.5,239.5 Z"/></g>
<g><path style="opacity:1" fill="#fefffe" d="M 177.5,240.5 C 178.19,245.233 178.856,250.066 179.5,255C 177.295,257.54 174.795,259.707 172,261.5C 170.833,259.167 169.667,256.833 168.5,254.5C 171.553,249.798 174.553,245.131 177.5,240.5 Z"/></g>
<g><path style="opacity:1" fill="#fefffe" d="M 138.5,241.5 C 140.716,242.203 142.549,243.536 144,245.5C 146.452,252.865 149.286,260.031 152.5,267C 151.4,268.023 150.067,268.523 148.5,268.5C 145.86,267.905 143.193,267.572 140.5,267.5C 140.701,264.272 140.367,261.105 139.5,258C 140.93,256.111 141.597,253.945 141.5,251.5C 141.073,247.984 140.073,244.651 138.5,241.5 Z M 142.5,246.5 C 142.665,249.85 142.498,253.183 142,256.5C 141.5,257 141,257.5 140.5,258C 141.444,260.719 141.777,263.552 141.5,266.5C 144.525,266.877 147.525,267.044 150.5,267C 148.101,259.955 145.435,253.121 142.5,246.5 Z"/></g>
<g><path style="opacity:1" fill="#222882" d="M 148.5,241.5 C 149.496,241.414 150.329,241.748 151,242.5C 152.1,248.318 153.433,253.984 155,259.5C 151.971,253.782 149.804,247.782 148.5,241.5 Z"/></g>
<g><path style="opacity:1" fill="#fefffe" d="M 134.5,247.5 C 135.303,248.423 135.47,249.423 135,250.5C 129.85,247.505 124.35,246.839 118.5,248.5C 120.679,247.074 123.179,246.408 126,246.5C 128.848,246.798 131.681,247.131 134.5,247.5 Z"/></g>
<g><path style="opacity:1" fill="#f9a884" d="M 123.5,249.5 C 125.144,249.286 126.644,249.62 128,250.5C 128.144,254.931 129.477,258.931 132,262.5C 132.667,264.5 132.667,266.5 132,268.5C 131.349,264.363 129.515,260.863 126.5,258C 124.527,257.505 122.527,257.338 120.5,257.5C 120.5,255.167 120.5,252.833 120.5,250.5C 121.791,250.737 122.791,250.404 123.5,249.5 Z"/></g>
<g><path style="opacity:1" fill="#1b1f65" d="M 130.5,250.5 C 134.413,251.686 134.413,253.02 130.5,254.5C 129.708,253.3 129.708,251.967 130.5,250.5 Z"/></g>
<g><path style="opacity:1" fill="#202679" d="M 216.5,251.5 C 218.433,252.642 219.933,254.308 221,256.5C 222.205,259.562 223.372,262.562 224.5,265.5C 219.156,265.666 213.823,265.499 208.5,265C 211.316,260.527 213.982,256.027 216.5,251.5 Z"/></g>
<g><path style="opacity:1" fill="#f5a582" d="M 110.5,270.5 C 112.635,270.853 113.968,270.02 114.5,268C 113.652,266.334 112.652,264.834 111.5,263.5C 109.369,262.686 107.036,262.186 104.5,262C 107.378,259.55 110.712,258.884 114.5,260C 117.338,264.99 120.338,269.823 123.5,274.5C 123.101,277.359 122.267,280.026 121,282.5C 112.385,280.912 104.218,278.079 96.5,274C 100.833,273.667 105.167,273.333 109.5,273C 110.252,272.329 110.586,271.496 110.5,270.5 Z"/></g>
<g><path style="opacity:1" fill="#b87a56" d="M 118.5,259.5 C 125.243,258.6 128.91,261.6 129.5,268.5C 127.208,268.244 125.041,268.577 123,269.5C 120.001,266.53 118.501,263.196 118.5,259.5 Z"/></g>
<g><path style="opacity:1" fill="#fefffe" d="M 156.5,259.5 C 158.361,262.022 160.361,264.522 162.5,267C 161.216,267.684 160.049,267.517 159,266.5C 157.589,264.35 156.755,262.016 156.5,259.5 Z"/></g>
<g><path style="opacity:1" fill="#7e7f7e" d="M 89.5,265.5 C 90.2297,263.955 91.563,263.122 93.5,263C 96.7675,261.787 100.101,261.454 103.5,262C 98.7193,262.862 94.0526,264.029 89.5,265.5 Z"/></g>
<g><path style="opacity:1" fill="#737373" d="M 81.5,268.5 C 81.6716,269.492 81.3382,270.158 80.5,270.5C 79.0222,270.762 77.6888,270.429 76.5,269.5C 79.8457,268.896 80.179,267.063 77.5,264C 78.7932,263.51 80.1266,263.343 81.5,263.5C 81.5,265.167 81.5,266.833 81.5,268.5 Z"/></g>
<g><path style="opacity:1" fill="#fec90d" d="M 89.5,265.5 C 89.4411,270.922 86.7745,274.255 81.5,275.5C 79.853,274.722 78.5196,273.556 77.5,272C 78.7375,271.768 79.7375,271.268 80.5,270.5C 81.3382,270.158 81.6716,269.492 81.5,268.5C 82.4511,267.081 82.7845,265.415 82.5,263.5C 85.2108,263.185 87.5441,263.852 89.5,265.5 Z"/></g>
<g><path style="opacity:1" fill="#9b674a" d="M 111.5,263.5 C 112.652,264.834 113.652,266.334 114.5,268C 113.968,270.02 112.635,270.853 110.5,270.5C 107.941,270.802 105.607,270.468 103.5,269.5C 104.451,268.081 104.784,266.415 104.5,264.5C 106.95,264.702 109.283,264.369 111.5,263.5 Z"/></g>
<g><path style="opacity:1" fill="#7e7f7e" d="M 68.5,264.5 C 70.1667,264.5 71.8333,264.5 73.5,264.5C 73.2606,266.467 73.5939,268.301 74.5,270C 73.0559,271.064 71.3893,271.564 69.5,271.5C 65.6194,271.302 61.9527,270.468 58.5,269C 62.1932,268.092 65.5266,266.592 68.5,264.5 Z"/></g>
<g><path style="opacity:1" fill="#b87a56" d="M 101.5,268.5 C 98.272,269.414 94.9387,269.747 91.5,269.5C 91.5,268.5 91.5,267.5 91.5,266.5C 94.5534,266.089 97.5534,265.423 100.5,264.5C 101.429,265.689 101.762,267.022 101.5,268.5 Z"/></g>
<g><path style="opacity:1" fill="#fec90d" d="M 103.5,269.5 C 102.732,270.263 102.232,271.263 102,272.5C 101.51,271.207 101.343,269.873 101.5,268.5C 102.29,267.391 102.79,266.058 103,264.5C 103.494,266.134 103.66,267.801 103.5,269.5 Z"/></g>
<g><path style="opacity:1" fill="#fefffe" d="M 226.5,266.5 C 227.873,266.343 229.207,266.51 230.5,267C 222.328,269.399 213.994,270.066 205.5,269C 212.512,267.869 219.512,267.036 226.5,266.5 Z"/></g>
<g><path style="opacity:1" fill="#1d1e1d" d="M 228.5,270.5 C 237.133,270.331 243.8,274.165 248.5,282C 245.763,285.288 242.43,286.122 238.5,284.5C 235.498,279.513 232.164,274.847 228.5,270.5 Z"/></g>
<g><path style="opacity:1" fill="#fec90d" d="M 90.5,270.5 C 91.7733,271.077 91.7733,271.743 90.5,272.5C 89.537,272.03 89.537,271.363 90.5,270.5 Z"/></g>
<g><path style="opacity:1" fill="#fefffe" d="M 92.5,270.5 C 95.2469,270.187 97.9135,270.52 100.5,271.5C 99.1667,271.833 97.8333,272.167 96.5,272.5C 94.6672,272.415 93.3339,271.748 92.5,270.5 Z"/></g>
<g><path style="opacity:1" fill="#fefffe" d="M 127.5,270.5 C 127.167,275.833 126.833,281.167 126.5,286.5C 125.5,286.5 124.5,286.5 123.5,286.5C 123.98,280.706 125.314,275.373 127.5,270.5 Z"/></g>
<g><path style="opacity:1" fill="#ea1c23" d="M 127.5,270.5 C 131.906,270.748 136.24,271.415 140.5,272.5C 141.014,278.822 141.347,285.155 141.5,291.5C 139.446,291.635 137.779,290.968 136.5,289.5C 135.5,289.5 134.5,289.5 133.5,289.5C 130.789,289.815 128.456,289.148 126.5,287.5C 126.5,287.167 126.5,286.833 126.5,286.5C 126.833,281.167 127.167,275.833 127.5,270.5 Z"/></g>
<g><path style="opacity:1" fill="#21287f" d="M 203.5,271.5 C 210.175,271.334 216.842,271.5 223.5,272C 225.959,275.75 228.292,279.583 230.5,283.5C 219.225,284.371 208.225,282.871 197.5,279C 200.094,276.914 202.094,274.414 203.5,271.5 Z"/></g>
<g><path style="opacity:1" fill="#fefffe" d="M 227.5,273.5 C 230.136,276.31 232.636,279.31 235,282.5C 235.688,283.332 235.521,283.998 234.5,284.5C 231.753,281.088 229.42,277.422 227.5,273.5 Z"/></g>
<g><path style="opacity:1" fill="#870014" d="M 194.5,281.5 C 194.56,280.957 194.893,280.624 195.5,280.5C 200.945,282.778 206.612,284.278 212.5,285C 224.167,286 235.833,287 247.5,288C 249.645,288.743 249.811,289.576 248,290.5C 235.564,288.964 223.064,288.13 210.5,288C 205.028,286.094 199.694,283.928 194.5,281.5 Z"/></g>
<g><path style="opacity:1" fill="#e07323" d="M 249.5,302.5 C 247.503,299.175 245.503,295.841 243.5,292.5C 245.859,292.544 248.359,292.21 251,291.5C 251.977,288.741 251.144,286.741 248.5,285.5C 249.347,284.155 250.513,283.155 252,282.5C 254.627,283.314 256.96,284.647 259,286.5C 260.793,290.046 262.293,293.713 263.5,297.5C 260.993,305.426 256.326,307.092 249.5,302.5 Z"/></g>
<g><path style="opacity:1" fill="#fefffe" d="M 191.5,283.5 C 201.902,287.689 212.568,291.189 223.5,294C 223,294.5 222.5,295 222,295.5C 221.544,298.572 221.544,301.572 222,304.5C 210.982,298.047 199.482,292.547 187.5,288C 187.167,287.667 186.833,287.333 186.5,287C 188.346,285.97 190.013,284.804 191.5,283.5 Z"/></g>
<g><path style="opacity:1" fill="#fec90d" d="M 126.5,287.5 C 126.052,289.465 125.052,289.798 123.5,288.5C 124.325,287.614 125.325,287.281 126.5,287.5 Z"/></g>
<g><path style="opacity:1" fill="#fec90d" d="M 133.5,289.5 C 134.5,289.5 135.5,289.5 136.5,289.5C 135.5,292.167 134.5,292.167 133.5,289.5 Z"/></g>
<g><path style="opacity:1" fill="#222882" d="M 183.5,294.5 C 182.048,293.698 180.382,293.198 178.5,293C 180.374,291.565 182.374,290.398 184.5,289.5C 188.162,290.997 191.828,292.497 195.5,294C 191.514,294.499 187.514,294.666 183.5,294.5 Z"/></g>
<g><path style="opacity:1" fill="#222882" d="M 219.5,291.5 C 225.319,290.347 231.319,290.181 237.5,291C 242.21,293.836 243.044,297.336 240,301.5C 235.102,294.51 228.269,291.177 219.5,291.5 Z"/></g>
<g><path style="opacity:1" fill="#fefffe" d="M 243.5,292.5 C 245.503,295.841 247.503,299.175 249.5,302.5C 249.778,304.346 249.111,305.68 247.5,306.5C 245.641,304.808 243.641,303.308 241.5,302C 245.337,298.435 245.004,295.102 240.5,292C 241.577,291.53 242.577,291.697 243.5,292.5 Z"/></g>
<g><path style="opacity:1" fill="#fefffe" d="M 183.5,294.5 C 189.167,295.167 194.833,295.833 200.5,296.5C 199.209,296.263 198.209,296.596 197.5,297.5C 192.5,297.5 187.5,297.5 182.5,297.5C 181.432,296.566 180.099,296.232 178.5,296.5C 178.389,295.883 178.056,295.383 177.5,295C 179.473,294.505 181.473,294.338 183.5,294.5 Z"/></g>
<g><path style="opacity:1" fill="#fec90d" d="M 225.5,295.5 C 227.527,295.338 229.527,295.505 231.5,296C 226.689,298.123 225.356,301.623 227.5,306.5C 229.332,307.248 230.999,308.248 232.5,309.5C 233.833,310.833 233.833,312.167 232.5,313.5C 225.482,311.469 222.482,306.802 223.5,299.5C 223.752,297.927 224.418,296.594 225.5,295.5 Z"/></g>
<g><path style="opacity:1" fill="#c7c7c7" d="M 178.5,296.5 C 180.099,296.232 181.432,296.566 182.5,297.5C 185.625,298.479 188.958,298.813 192.5,298.5C 192.205,300.735 192.539,302.735 193.5,304.5C 195.597,307.053 197.93,309.386 200.5,311.5C 194.013,309.416 187.679,307.082 181.5,304.5C 180.026,303.564 179.026,302.23 178.5,300.5C 177.314,299.039 177.314,297.705 178.5,296.5 Z"/></g>
<g><path style="opacity:1" fill="#f4f4f4" d="M 200.5,296.5 C 209.837,299.248 218.004,303.915 225,310.5C 226.797,318.538 231.131,324.872 238,329.5C 238.602,332.662 238.102,335.662 236.5,338.5C 233.79,339.914 232.79,341.914 233.5,344.5C 230.257,357.062 225.924,369.228 220.5,381C 222.533,384.898 224.7,388.732 227,392.5C 226.948,396.767 225.115,400.267 221.5,403C 217.712,404.978 213.879,406.811 210,408.5C 207.167,404.333 203.667,400.833 199.5,398C 200.833,397.667 202.167,397.333 203.5,397C 197.612,397.44 194.612,394.774 194.5,389C 196.572,369.561 200.572,350.561 206.5,332C 206.352,330.744 206.018,329.577 205.5,328.5C 211.696,327.015 218.029,326.015 224.5,325.5C 220.616,324.159 216.616,323.325 212.5,323C 219.159,319.701 218.493,318.034 210.5,318C 214.178,316.539 217.845,315.206 221.5,314C 216.657,312.786 212.49,313.953 209,317.5C 207.306,316.301 205.806,314.968 204.5,313.5C 203.329,312.655 201.995,311.989 200.5,311.5C 197.93,309.386 195.597,307.053 193.5,304.5C 193.201,302.396 193.534,300.396 194.5,298.5C 197.489,303.647 201.823,306.814 207.5,308C 204.42,305.71 201.253,303.543 198,301.5C 197.51,300.207 197.343,298.873 197.5,297.5C 198.209,296.596 199.209,296.263 200.5,296.5 Z"/></g>
<g><path style="opacity:1" fill="#000000" d="M 182.5,297.5 C 187.5,297.5 192.5,297.5 197.5,297.5C 197.343,298.873 197.51,300.207 198,301.5C 201.253,303.543 204.42,305.71 207.5,308C 201.823,306.814 197.489,303.647 194.5,298.5C 193.534,300.396 193.201,302.396 193.5,304.5C 192.539,302.735 192.205,300.735 192.5,298.5C 188.958,298.813 185.625,298.479 182.5,297.5 Z"/></g>
<g><path style="opacity:1" fill="#870014" d="M 230.5,298.5 C 231.251,297.427 232.251,297.26 233.5,298C 235.241,299.62 237.075,301.12 239,302.5C 239.667,303.167 239.667,303.833 239,304.5C 236.287,302.28 233.454,300.28 230.5,298.5 Z"/></g>
<g><path style="opacity:1" fill="#fefffe" d="M 228.5,299.5 C 232.161,300.648 235.161,302.814 237.5,306C 236.91,307.299 235.91,308.132 234.5,308.5C 232.523,307.54 230.523,306.54 228.5,305.5C 227.306,303.484 227.306,301.484 228.5,299.5 Z"/></g>
<g><path style="opacity:1" fill="#f7f7f7" d="M 178.5,300.5 C 179.026,302.23 180.026,303.564 181.5,304.5C 182.167,305.167 182.833,305.833 183.5,306.5C 183.5,306.833 183.5,307.167 183.5,307.5C 182.668,308.329 183.001,309.162 184.5,310C 185.745,310.791 187.078,311.291 188.5,311.5C 189.96,313.463 191.627,315.296 193.5,317C 190.351,316.41 187.685,314.744 185.5,312C 183.421,311.192 181.421,311.359 179.5,312.5C 182.458,315.944 186.124,318.444 190.5,320C 185.184,319.737 179.851,319.737 174.5,320C 180.589,322.438 186.922,323.772 193.5,324C 186.833,327.667 180.167,331.333 173.5,335C 168.524,336.081 163.524,337.081 158.5,338C 164.694,338.579 170.694,337.746 176.5,335.5C 177.167,335.667 177.833,335.833 178.5,336C 175.766,336.998 174.099,338.832 173.5,341.5C 172.127,341.343 170.793,341.51 169.5,342C 171.878,342.974 171.544,343.641 168.5,344C 175.344,344.539 181.677,343.039 187.5,339.5C 182.374,344.448 176.54,348.448 170,351.5C 170.407,355.447 170.073,359.447 169,363.5C 165.427,367.04 161.261,369.706 156.5,371.5C 156.167,370.833 155.833,370.167 155.5,369.5C 152.833,370.833 150.167,372.167 147.5,373.5C 143.135,369.811 138.469,366.478 133.5,363.5C 132.304,362.441 131.637,361.107 131.5,359.5C 133.895,353.709 137.062,348.376 141,343.5C 150.601,331.897 160.934,320.897 172,310.5C 172.973,308.608 173.64,306.608 174,304.5C 176.019,303.643 177.519,302.309 178.5,300.5 Z"/></g>
<g><path style="opacity:1" fill="#000000" d="M 181.5,304.5 C 187.679,307.082 194.013,309.416 200.5,311.5C 201.995,311.989 203.329,312.655 204.5,313.5C 201.26,313.232 198.094,312.566 195,311.5C 191.162,309.66 187.329,307.994 183.5,306.5C 182.833,305.833 182.167,305.167 181.5,304.5 Z"/></g>
<g><path style="opacity:1" fill="#fefffe" d="M 236.5,312.5 C 239.204,312.33 240.871,310.997 241.5,308.5C 242.29,307.391 242.79,306.058 243,304.5C 249.031,310.023 248.698,315.357 242,320.5C 239.833,318.333 237.667,316.167 235.5,314C 236.056,313.617 236.389,313.117 236.5,312.5 Z"/></g>
<g><path style="opacity:1" fill="#83660d" d="M 241.5,308.5 C 240.871,310.997 239.204,312.33 236.5,312.5C 235.475,312.103 235.308,311.437 236,310.5C 237.667,308.833 239.333,307.167 241,305.5C 241.483,306.448 241.649,307.448 241.5,308.5 Z"/></g>
<g><path style="opacity:1" fill="#dedede" d="M 183.5,307.5 C 183.5,307.167 183.5,306.833 183.5,306.5C 187.329,307.994 191.162,309.66 195,311.5C 198.094,312.566 201.26,313.232 204.5,313.5C 205.806,314.968 207.306,316.301 209,317.5C 212.49,313.953 216.657,312.786 221.5,314C 217.845,315.206 214.178,316.539 210.5,318C 218.493,318.034 219.159,319.701 212.5,323C 216.616,323.325 220.616,324.159 224.5,325.5C 218.029,326.015 211.696,327.015 205.5,328.5C 203.801,328.34 202.134,328.506 200.5,329C 196.292,332.713 191.959,336.213 187.5,339.5C 181.677,343.039 175.344,344.539 168.5,344C 171.544,343.641 171.878,342.974 169.5,342C 170.793,341.51 172.127,341.343 173.5,341.5C 174.099,338.832 175.766,336.998 178.5,336C 177.833,335.833 177.167,335.667 176.5,335.5C 170.694,337.746 164.694,338.579 158.5,338C 163.524,337.081 168.524,336.081 173.5,335C 180.167,331.333 186.833,327.667 193.5,324C 186.922,323.772 180.589,322.438 174.5,320C 179.851,319.737 185.184,319.737 190.5,320C 186.124,318.444 182.458,315.944 179.5,312.5C 181.421,311.359 183.421,311.192 185.5,312C 187.685,314.744 190.351,316.41 193.5,317C 191.627,315.296 189.96,313.463 188.5,311.5C 187.055,309.937 185.389,308.604 183.5,307.5 Z"/></g>
<g><path style="opacity:1" fill="#000000" d="M 183.5,307.5 C 185.389,308.604 187.055,309.937 188.5,311.5C 187.078,311.291 185.745,310.791 184.5,310C 183.001,309.162 182.668,308.329 183.5,307.5 Z"/></g>
<g><path style="opacity:1" fill="#ec1c23" d="M 227.5,314.5 C 227.735,313.903 228.235,313.57 229,313.5C 233.645,315.132 237.478,317.966 240.5,322C 239.953,322.925 239.287,323.758 238.5,324.5C 236.78,323.066 234.78,322.233 232.5,322C 232.182,318.53 230.516,316.03 227.5,314.5 Z"/></g>
<g><path style="opacity:1" fill="#1d1e1d" d="M 248.5,315.5 C 255.217,326.387 263.883,335.553 274.5,343C 275.833,344.333 277.167,345.667 278.5,347C 276.91,348.046 275.41,349.213 274,350.5C 263.277,341.612 253.777,331.612 245.5,320.5C 246.952,319.06 247.952,317.394 248.5,315.5 Z"/></g>
<g><path style="opacity:1" fill="#fefffe" d="M 252.5,317.5 C 255.768,321.271 259.268,324.938 263,328.5C 263.667,329.167 263.667,329.833 263,330.5C 258.504,326.851 255.004,322.518 252.5,317.5 Z"/></g>
<g><path style="opacity:1" fill="#fefffe" d="M 197.5,339.5 C 196.267,348.919 194.767,358.585 193,368.5C 190.938,366.099 189.271,363.433 188,360.5C 185.094,357.963 181.927,355.796 178.5,354C 185.303,349.687 191.636,344.853 197.5,339.5 Z M 194.5,343.5 C 190.644,347.515 186.311,351.015 181.5,354C 186.333,356.167 189.833,359.667 192,364.5C 193.45,357.624 194.95,350.791 196.5,344C 195.906,343.536 195.239,343.369 194.5,343.5 Z"/></g>
<g><path style="opacity:1" fill="#fec90d" d="M 279.5,348.5 C 287.635,352.706 286.968,354.04 277.5,352.5C 277.167,352.167 276.833,351.833 276.5,351.5C 277.77,350.712 278.77,349.712 279.5,348.5 Z"/></g>
<g><path style="opacity:1" fill="#1d1d1d" d="M 171.5,358.5 C 174.93,359.714 178.264,361.214 181.5,363C 184.618,367.786 188.118,372.286 192,376.5C 191.644,382.812 191.644,389.145 192,395.5C 193.5,397 195,398.5 196.5,400C 195.167,400.333 193.833,400.667 192.5,401C 199.97,400.759 201.303,403.426 196.5,409C 193.649,410.289 190.649,410.789 187.5,410.5C 187.203,406.233 187.536,402.066 188.5,398C 185.976,393.748 182.809,390.915 179,389.5C 171.023,384.094 162.523,379.594 153.5,376C 157.674,373.412 162.007,371.079 166.5,369C 168,367.5 169.5,366 171,364.5C 171.495,362.527 171.662,360.527 171.5,358.5 Z"/></g>
<g><path style="opacity:1" fill="#fec90d" d="M 228.5,401.5 C 228.5,402.833 227.833,403.5 226.5,403.5C 226.5,402.167 227.167,401.5 228.5,401.5 Z"/></g>
<g><path style="opacity:1" fill="#1b1b1b" d="M 238.5,427.5 C 237.167,427.5 236.5,428.167 236.5,429.5C 236.337,431.857 236.503,434.19 237,436.5C 237.698,435.309 238.531,434.309 239.5,433.5C 241.922,435.286 241.922,436.952 239.5,438.5C 239.5,439.167 239.5,439.833 239.5,440.5C 238.737,441.268 237.737,441.768 236.5,442C 237.737,442.232 238.737,442.732 239.5,443.5C 239.5,444.833 240.167,445.5 241.5,445.5C 242.117,445.389 242.617,445.056 243,444.5C 244.158,448.981 245.991,453.147 248.5,457C 246.346,460.488 243.512,463.321 240,465.5C 234.919,465.164 229.752,464.998 224.5,465C 222.754,464.529 221.087,463.862 219.5,463C 221.409,459.34 223.909,456.173 227,453.5C 227.236,451.236 227.736,449.069 228.5,447C 225.833,445.333 225.833,443.667 228.5,442C 227.069,441.535 225.903,440.701 225,439.5C 222.651,428.804 218.151,419.137 211.5,410.5C 216.38,408.477 220.88,405.81 225,402.5C 225.383,403.056 225.883,403.389 226.5,403.5C 227.833,403.5 228.5,402.833 228.5,401.5C 226.905,399.626 227.239,398.793 229.5,399C 238.316,406.79 241.316,416.29 238.5,427.5 Z"/></g>
<g><path style="opacity:1" fill="#fec90d" d="M 226.5,405.5 C 228.337,405.639 228.67,406.306 227.5,407.5C 226.702,407.043 226.369,406.376 226.5,405.5 Z"/></g>
<g><path style="opacity:1" fill="#fec90d" d="M 230.5,409.5 C 232.337,409.639 232.67,410.306 231.5,411.5C 230.702,411.043 230.369,410.376 230.5,409.5 Z"/></g>
<g><path style="opacity:1" fill="#fec90d" d="M 234.5,414.5 C 236.337,414.639 236.67,415.306 235.5,416.5C 234.702,416.043 234.369,415.376 234.5,414.5 Z"/></g>
<g><path style="opacity:1" fill="#fec90d" d="M 235.5,420.5 C 237.337,420.639 237.67,421.306 236.5,422.5C 235.702,422.043 235.369,421.376 235.5,420.5 Z"/></g>
<g><path style="opacity:1" fill="#fec90d" d="M 238.5,427.5 C 238.5,428.833 237.833,429.5 236.5,429.5C 236.5,428.167 237.167,427.5 238.5,427.5 Z"/></g>
<g><path style="opacity:1" fill="#fec90d" d="M 239.5,433.5 C 237.663,433.361 237.33,432.694 238.5,431.5C 239.298,431.957 239.631,432.624 239.5,433.5 Z"/></g>
<g><path style="opacity:1" fill="#fec90d" d="M 239.5,438.5 C 242.167,439.167 242.167,439.833 239.5,440.5C 239.5,439.833 239.5,439.167 239.5,438.5 Z"/></g>
<g><path style="opacity:1" fill="#fec90d" d="M 239.5,443.5 C 240.833,443.5 241.5,444.167 241.5,445.5C 241.5,444.167 240.833,443.5 239.5,443.5 Z"/></g>
<g><path style="opacity:1" fill="#fec90d" d="M 240.5,448.5 C 242.337,448.639 242.67,449.306 241.5,450.5C 240.702,450.043 240.369,449.376 240.5,448.5 Z"/></g>
<g><path style="opacity:1" fill="#fec90d" d="M 240.5,453.5 C 242.337,453.639 242.67,454.306 241.5,455.5C 240.702,455.043 240.369,454.376 240.5,453.5 Z"/></g>
<g><path style="opacity:1" fill="#fec90d" d="M 241.5,457.5 C 243.337,457.639 243.67,458.306 242.5,459.5C 241.702,459.043 241.369,458.376 241.5,457.5 Z"/></g>
</svg>
