<?xml version="1.0" encoding="UTF-8"?>
<!DOCTYPE svg PUBLIC "-//W3C//DTD SVG 1.1//EN" "http://www.w3.org/Graphics/SVG/1.1/DTD/svg11.dtd">
<svg xmlns="http://www.w3.org/2000/svg" version="1.1" width="365px" height="419px" style="shape-rendering:geometricPrecision; text-rendering:geometricPrecision; image-rendering:optimizeQuality; fill-rule:evenodd; clip-rule:evenodd" xmlns:xlink="http://www.w3.org/1999/xlink">
<g><path style="opacity:1" fill="#fefffe" d="M 115.5,56.5 C 122.255,55.6681 128.589,56.8348 134.5,60C 136.32,60.9794 137.487,62.4794 138,64.5C 138.914,69.1964 138.414,73.6964 136.5,78C 140.147,78.7745 143.814,79.4412 147.5,80C 149.286,80.7845 150.786,81.9512 152,83.5C 152.333,94.5 152.667,105.5 153,116.5C 153.419,117.672 154.085,118.672 155,119.5C 156.045,131.813 156.545,144.146 156.5,156.5C 162.568,155.652 168.068,156.985 173,160.5C 173.554,168.193 175.054,175.526 177.5,182.5C 177.653,185.706 176.986,188.706 175.5,191.5C 175.833,193.167 176.833,194.167 178.5,194.5C 194.478,193.16 210.478,191.993 226.5,191C 229.7,190.899 232.7,190.232 235.5,189C 271.517,188.277 307.517,187.11 343.5,185.5C 343.5,188.5 343.5,191.5 343.5,194.5C 338.316,197.074 332.982,199.574 327.5,202C 308.388,205.914 289.055,208.08 269.5,208.5C 269.739,210.467 269.406,212.301 268.5,214C 261.492,214.227 254.659,215.06 248,216.5C 231.519,214.571 215.019,214.738 198.5,217C 194.348,221.999 189.015,223.833 182.5,222.5C 183.322,230.181 179.989,235.014 172.5,237C 167.177,237.499 161.844,237.666 156.5,237.5C 156.851,243.262 156.351,248.928 155,254.5C 152.358,257.029 149.192,258.029 145.5,257.5C 146.002,266.363 145.335,275.029 143.5,283.5C 145.296,300.13 146.13,316.797 146,333.5C 145.007,337.442 144.34,341.442 144,345.5C 137.511,354.82 133.511,365.153 132,376.5C 131.768,380.555 131.268,384.555 130.5,388.5C 132.854,391.688 135.688,394.355 139,396.5C 139.667,400.833 139.667,405.167 139,409.5C 136.929,410.525 134.762,411.358 132.5,412C 125.5,412.667 118.5,412.667 111.5,412C 108.397,410.561 105.564,408.727 103,406.5C 102.253,394.817 102.42,383.15 103.5,371.5C 100.388,360.939 99.8881,350.272 102,339.5C 107.269,330.872 107.935,321.872 104,312.5C 98.2638,318.972 93.2638,325.972 89,333.5C 88.4846,337.577 87.6513,341.577 86.5,345.5C 87.6318,352.783 87.7985,360.117 87,367.5C 85.5727,371.947 82.7393,374.78 78.5,376C 73.5,376.667 68.5,376.667 63.5,376C 59.5783,372.749 56.4117,368.916 54,364.5C 53.7452,353.827 54.0785,343.16 55,332.5C 57.7844,330.221 58.1177,327.554 56,324.5C 55.3333,319.833 55.3333,315.167 56,310.5C 58.6286,305.579 60.9619,300.579 63,295.5C 62.1687,285.839 62.3353,276.172 63.5,266.5C 60.8333,266.5 58.1667,266.5 55.5,266.5C 55.5,262.833 55.5,259.167 55.5,255.5C 54.1667,255.5 52.8333,255.5 51.5,255.5C 49.9962,250.502 48.3296,245.502 46.5,240.5C 42.223,241.606 37.8897,241.772 33.5,241C 32.2986,240.097 31.4652,238.931 31,237.5C 29.6349,227.866 29.3016,218.199 30,208.5C 34.3633,207.14 38.8633,206.306 43.5,206C 38.0348,197.569 32.2014,189.403 26,181.5C 21.7362,173.687 20.4029,165.354 22,156.5C 23.1411,154.391 24.6411,152.558 26.5,151C 39.214,150.375 51.8807,150.875 64.5,152.5C 65.737,152.444 66.737,151.944 67.5,151C 65.9025,143.395 66.4025,135.895 69,128.5C 70.5429,126.622 72.3762,125.122 74.5,124C 78.5,123.667 82.5,123.333 86.5,123C 87.2598,121.559 87.9264,120.059 88.5,118.5C 91.8333,117.833 95.1667,117.167 98.5,116.5C 93.9409,109.797 92.4409,102.463 94,94.5C 95.0608,91.4384 96.8941,88.9384 99.5,87C 104.973,83.845 110.639,81.1783 116.5,79C 113.308,75.2656 111.308,70.9323 110.5,66C 111.781,62.6025 113.448,59.4358 115.5,56.5 Z"/></g>
<g><path style="opacity:1" fill="#010101" d="M 118.5,58.5 C 124.759,57.9767 130.259,59.6434 135,63.5C 137.556,69.5627 136.722,75.0627 132.5,80C 136.848,80.5735 141.181,81.2401 145.5,82C 147.286,82.7845 148.786,83.9512 150,85.5C 150.333,96.5 150.667,107.5 151,118.5C 154.053,122.944 154.219,127.444 151.5,132C 152.893,133.171 153.727,134.671 154,136.5C 154.812,143.747 154.646,150.914 153.5,158C 159.875,157.602 165.709,159.102 171,162.5C 171.503,167.19 172.17,171.857 173,176.5C 175.702,179.776 176.202,183.443 174.5,187.5C 173.5,188.333 172.5,189.167 171.5,190C 172.627,191.753 173.627,193.587 174.5,195.5C 175.833,195.833 177.167,196.167 178.5,196.5C 191.471,195.239 204.471,194.406 217.5,194C 225.868,193.601 234.035,192.435 242,190.5C 244.042,190.615 246.042,190.949 248,191.5C 279.146,190.098 310.312,188.765 341.5,187.5C 341.5,189.167 341.5,190.833 341.5,192.5C 336.316,195.074 330.982,197.574 325.5,200C 306.388,203.914 287.055,206.08 267.5,206.5C 267.739,208.467 267.406,210.301 266.5,212C 262.577,212.793 258.744,212.626 255,211.5C 253.314,213.919 250.981,214.919 248,214.5C 230.844,212.498 213.677,212.665 196.5,215C 192.348,219.999 187.015,221.833 180.5,220.5C 181.322,228.181 177.989,233.014 170.5,235C 165.177,235.499 159.844,235.666 154.5,235.5C 154.851,241.262 154.351,246.928 153,252.5C 150.358,255.029 147.192,256.029 143.5,255.5C 143.666,262.508 143.5,269.508 143,276.5C 141.842,276.998 141.009,277.831 140.5,279C 142.567,294.592 143.9,310.258 144.5,326C 143.588,331.816 142.755,337.649 142,343.5C 135.511,352.82 131.511,363.153 130,374.5C 129.301,380.175 128.968,385.842 129,391.5C 131.479,394.069 134.146,396.402 137,398.5C 137.667,401.5 137.667,404.5 137,407.5C 129.451,410.398 121.618,411.231 113.5,410C 110.397,408.561 107.564,406.727 105,404.5C 105.491,393.489 105.657,382.489 105.5,371.5C 104.502,364.84 103.502,358.173 102.5,351.5C 103.938,342.946 106.271,334.613 109.5,326.5C 107.761,317.396 105.594,308.396 103,299.5C 102.667,303.167 102.333,306.833 102,310.5C 96.2638,316.972 91.2638,323.972 87,331.5C 86.231,336.178 85.3977,340.845 84.5,345.5C 85.5476,352.144 85.7143,358.81 85,365.5C 83.5727,369.947 80.7393,372.78 76.5,374C 72.8333,374.667 69.1667,374.667 65.5,374C 61.5783,370.749 58.4117,366.916 56,362.5C 55.9015,353.168 56.2349,343.834 57,334.5C 58.5084,332.983 59.3417,331.149 59.5,329C 55.7213,318.934 57.2213,309.768 64,301.5C 64.8873,297.675 65.7207,293.842 66.5,290C 64.9723,287.261 64.3056,284.261 64.5,281C 65.0657,275.511 65.399,270.011 65.5,264.5C 62.8333,264.5 60.1667,264.5 57.5,264.5C 57.2493,261.091 57.5827,257.758 58.5,254.5C 56.9547,253.548 55.288,253.215 53.5,253.5C 51.3913,247.732 49.8913,241.732 49,235.5C 45.1695,239.128 40.6695,240.295 35.5,239C 34.2986,238.097 33.4652,236.931 33,235.5C 31.7102,227.198 31.3768,218.865 32,210.5C 37.2128,209.333 42.3794,208.167 47.5,207C 41.1229,197.746 34.6229,188.579 28,179.5C 26.9413,176.382 25.6079,173.382 24,170.5C 22.2011,163.675 23.7011,157.842 28.5,153C 41.8559,152.935 55.1892,153.269 68.5,154C 68.6575,148.262 68.8242,142.429 69,136.5C 71.7454,126.699 78.2454,122.866 88.5,125C 89.2598,123.559 89.9264,122.059 90.5,120.5C 94.122,119.341 97.7887,119.175 101.5,120C 102.38,121.356 102.714,122.856 102.5,124.5C 103.675,124.719 104.675,124.386 105.5,123.5C 102.412,118.325 99.5787,112.992 97,107.5C 94.0125,100.214 95.5125,94.0469 101.5,89C 105.327,87.254 108.993,85.254 112.5,83C 116.114,82.0551 119.781,81.3884 123.5,81C 120.262,80.768 117.762,79.268 116,76.5C 114.681,72.8919 113.514,69.2252 112.5,65.5C 113.802,62.5341 115.802,60.2008 118.5,58.5 Z"/></g>
<g><path style="opacity:1" fill="#699d15" d="M 121.5,60.5 C 132.584,60.012 136.417,65.012 133,75.5C 128.969,78.982 124.469,79.482 119.5,77C 115.953,73.51 114.786,69.3434 116,64.5C 117.456,62.5347 119.29,61.2013 121.5,60.5 Z"/></g>
<g><path style="opacity:0.999" fill="#fefffe" d="M 133.5,82.5 C 135.461,84.2916 136.795,86.4582 137.5,89C 137.382,91.563 136.049,93.063 133.5,93.5C 132.167,92.1667 130.833,92.1667 129.5,93.5C 126.547,93.8504 124.213,92.8504 122.5,90.5C 122.514,82.1049 126.181,79.4382 133.5,82.5 Z"/></g>
<g><path style="opacity:1" fill="#f4cb12" d="M 133.5,82.5 C 134.601,81.4017 135.934,81.235 137.5,82C 140.417,83.5275 143.417,84.8608 146.5,86C 148.155,87.4443 148.822,89.2776 148.5,91.5C 145.575,91.5402 142.909,90.7068 140.5,89C 138.929,85.9262 136.596,83.7595 133.5,82.5 Z"/></g>
<g><path style="opacity:1" fill="#f4cb12" d="M 118.5,82.5 C 119.5,82.5 120.5,82.5 121.5,82.5C 121.007,84.8056 120.674,87.139 120.5,89.5C 118.143,89.3367 115.81,89.5034 113.5,90C 109.993,92.254 106.327,94.254 102.5,96C 101,98.1667 99.5,100.333 98,102.5C 97.1533,99.4124 97.6533,96.5791 99.5,94C 105.526,89.4346 111.86,85.6013 118.5,82.5 Z"/></g>
<g><path style="opacity:1" fill="#ec1c23" d="M 128.5,83.5 C 133.281,84.091 134.947,86.591 133.5,91C 125.702,92.0703 124.035,89.5703 128.5,83.5 Z"/></g>
<g><path style="opacity:1" fill="#3f47cc" d="M 128.5,86.5 C 131.166,86.0658 132.333,87.0658 132,89.5C 128.403,91.0661 127.237,90.0661 128.5,86.5 Z"/></g>
<g><path style="opacity:1" fill="#171717" d="M 122.5,90.5 C 124.213,92.8504 126.547,93.8504 129.5,93.5C 129.66,95.1992 129.494,96.8659 129,98.5C 127.667,97.1667 126.333,95.8333 125,94.5C 124.509,98.234 124.176,101.901 124,105.5C 125.34,104.132 126.674,102.799 128,101.5C 129.274,102.535 130.44,103.702 131.5,105C 128.607,106.149 125.607,106.649 122.5,106.5C 123.143,109.988 125.143,112.488 128.5,114C 131.221,114.602 133.887,114.435 136.5,113.5C 136.389,114.117 136.056,114.617 135.5,115C 126.858,116.545 119.524,114.212 113.5,108C 114.132,104.73 114.799,101.563 115.5,98.5C 115.593,93.9173 117.926,91.2506 122.5,90.5 Z"/></g>
<g><path style="opacity:1" fill="#f4cb12" d="M 142.5,91.5 C 143.458,91.9528 144.292,92.6195 145,93.5C 145.667,96.5 145.667,99.5 145,102.5C 143.85,98.8883 143.017,95.2217 142.5,91.5 Z"/></g>
<g><path style="opacity:1" fill="#fec90d" d="M 133.5,93.5 C 133.607,95.3786 133.107,95.7119 132,94.5C 131.075,97.1341 131.909,98.3008 134.5,98C 134.983,94.5379 136.15,94.0379 138,96.5C 138.568,99.2213 138.901,101.888 139,104.5C 137.758,103.128 136.258,102.128 134.5,101.5C 133.41,102.391 133.41,103.391 134.5,104.5C 136.5,105.167 138.5,105.833 140.5,106.5C 139.408,109.024 138.074,111.357 136.5,113.5C 133.887,114.435 131.221,114.602 128.5,114C 125.143,112.488 123.143,109.988 122.5,106.5C 125.607,106.649 128.607,106.149 131.5,105C 130.44,103.702 129.274,102.535 128,101.5C 126.674,102.799 125.34,104.132 124,105.5C 124.176,101.901 124.509,98.234 125,94.5C 126.333,95.8333 127.667,97.1667 129,98.5C 129.494,96.8659 129.66,95.1992 129.5,93.5C 130.833,92.1667 132.167,92.1667 133.5,93.5 Z"/></g>
<g><path style="opacity:1" fill="#eedd33" d="M 115.5,98.5 C 114.799,101.563 114.132,104.73 113.5,108C 119.524,114.212 126.858,116.545 135.5,115C 136.056,114.617 136.389,114.117 136.5,113.5C 140.961,113.21 143.795,110.877 145,106.5C 144.961,114.04 141.128,118.207 133.5,119C 126.446,119.969 120.279,118.136 115,113.5C 114.503,116.146 114.336,118.813 114.5,121.5C 111.737,121.256 109.571,119.923 108,117.5C 105.361,113.361 102.528,109.361 99.5,105.5C 100.355,104.707 101.189,105.04 102,106.5C 104.626,110.956 107.793,114.956 111.5,118.5C 112.221,116.314 112.887,114.147 113.5,112C 110.366,108.551 108.2,104.718 107,100.5C 108,101.5 109,102.5 110,103.5C 110.333,100.5 110.667,97.5 111,94.5C 112.154,93.2567 113.488,92.2567 115,91.5C 115.497,93.8098 115.663,96.1432 115.5,98.5 Z"/></g>
<g><path style="opacity:1" fill="#fec90d" d="M 111.5,122.5 C 112.5,122.5 113.5,122.5 114.5,122.5C 114.5,123.5 114.5,124.5 114.5,125.5C 113.5,125.5 112.5,125.5 111.5,125.5C 111.5,124.5 111.5,123.5 111.5,122.5 Z"/></g>
<g><path style="opacity:1" fill="#fefffe" d="M 95.5,124.5 C 97.8741,126.401 98.0407,128.735 96,131.5C 94.9326,130.809 93.7659,130.309 92.5,130C 93.9711,128.417 94.9711,126.583 95.5,124.5 Z"/></g>
<g><path style="opacity:1" fill="#fec90d" d="M 113.5,127.5 C 115.465,127.948 115.798,128.948 114.5,130.5C 113.614,129.675 113.281,128.675 113.5,127.5 Z"/></g>
<g><path style="opacity:1" fill="#ca6723" d="M 145.5,134.5 C 144.833,134.833 144.167,135.167 143.5,135.5C 141.03,136.878 138.696,136.545 136.5,134.5C 136.167,130.5 135.833,130.5 135.5,134.5C 132.762,134.851 130.096,135.518 127.5,136.5C 124.209,135.618 120.876,134.952 117.5,134.5C 118.448,133.022 119.781,132.022 121.5,131.5C 122.156,130.722 122.989,130.056 124,129.5C 126.871,130.401 129.704,131.401 132.5,132.5C 132.833,132.167 133.167,131.833 133.5,131.5C 132.335,130.416 131.002,129.583 129.5,129C 135.157,128.501 140.824,128.334 146.5,128.5C 146.167,130.5 145.833,132.5 145.5,134.5 Z"/></g>
<g><path style="opacity:1" fill="#7e7f7e" d="M 99.5,129.5 C 104.046,129.268 108.379,130.101 112.5,132C 110.115,132.055 108.781,133.222 108.5,135.5C 109.075,139.482 110.408,143.149 112.5,146.5C 110.436,149.461 108.769,152.628 107.5,156C 104.867,155.747 102.2,155.747 99.5,156C 98.8095,157.067 98.3095,158.234 98,159.5C 97.6258,158.584 97.1258,157.75 96.5,157C 99.6683,153.825 101.002,149.992 100.5,145.5C 100.279,140.56 99.6122,135.726 98.5,131C 99.056,130.617 99.3893,130.117 99.5,129.5 Z"/></g>
<g><path style="opacity:1" fill="#b87a56" d="M 121.5,131.5 C 120.022,131.762 118.689,131.429 117.5,130.5C 118.167,130.167 118.833,129.833 119.5,129.5C 120.713,129.747 121.38,130.414 121.5,131.5 Z"/></g>
<g><path style="opacity:1" fill="#000000" d="M 142.5,129.5 C 143.552,129.351 144.552,129.517 145.5,130C 143.349,131.895 141.016,132.395 138.5,131.5C 139.949,130.828 141.282,130.161 142.5,129.5 Z"/></g>
<g><path style="opacity:1" fill="#767676" d="M 80.5,130.5 C 82.8568,130.337 85.1902,130.503 87.5,131C 89.0609,131.318 90.2276,132.151 91,133.5C 94.4003,139.634 94.2336,145.634 90.5,151.5C 86.6527,152.937 82.8194,153.27 79,152.5C 78.6827,154.301 78.016,154.634 77,153.5C 75.6319,152.007 75.4652,150.507 76.5,149C 75.8333,148.667 75.1667,148.333 74.5,148C 75.0681,146.704 75.0681,145.204 74.5,143.5C 74.7092,142.006 75.3759,140.839 76.5,140C 75.6919,139.692 75.0253,139.192 74.5,138.5C 75.2458,137.264 75.5792,135.93 75.5,134.5C 76.552,134.649 77.552,134.483 78.5,134C 78.1667,133.667 77.8333,133.333 77.5,133C 78.5707,132.148 79.5707,131.315 80.5,130.5 Z"/></g>
<g><path style="opacity:1" fill="#000000" d="M 136.5,134.5 C 137.481,136.489 138.481,138.489 139.5,140.5C 139.426,142.739 138.259,143.739 136,143.5C 134.105,142.491 132.272,142.325 130.5,143C 132.894,142.016 135.394,141.516 138,141.5C 137.063,139.326 136.229,136.993 135.5,134.5C 135.833,130.5 136.167,130.5 136.5,134.5 Z"/></g>
<g><path style="opacity:1" fill="#fefffe" d="M 93.5,132.5 C 94.7079,133.234 96.0413,133.567 97.5,133.5C 98.1997,139.159 98.3664,144.825 98,150.5C 97.2515,152.332 96.2515,153.999 95,155.5C 93.9783,154.646 93.1449,153.646 92.5,152.5C 96.103,146.023 96.4363,139.356 93.5,132.5 Z"/></g>
<g><path style="opacity:1" fill="#fefffe" d="M 128.5,132.5 C 128.5,133.167 128.5,133.833 128.5,134.5C 124.711,133.404 124.711,132.737 128.5,132.5 Z"/></g>
<g><path style="opacity:1" fill="#000000" d="M 128.5,132.5 C 132.289,133.596 132.289,134.263 128.5,134.5C 128.5,133.833 128.5,133.167 128.5,132.5 Z"/></g>
<g><path style="opacity:1" fill="#fec90d" d="M 114.5,133.5 C 116.337,133.639 116.67,134.306 115.5,135.5C 114.702,135.043 114.369,134.376 114.5,133.5 Z"/></g>
<g><path style="opacity:1" fill="#000000" d="M 143.5,135.5 C 141.663,135.361 141.33,134.694 142.5,133.5C 143.298,133.957 143.631,134.624 143.5,135.5 Z"/></g>
<g><path style="opacity:1" fill="#f9a884" d="M 110.5,134.5 C 114.321,135.25 114.988,136.916 112.5,139.5C 113.145,140.646 113.978,141.646 115,142.5C 115.667,143.5 115.667,144.5 115,145.5C 112.207,142.398 110.707,138.731 110.5,134.5 Z"/></g>
<g><path style="opacity:1" fill="#f6a583" d="M 117.5,134.5 C 120.876,134.952 124.209,135.618 127.5,136.5C 130.096,135.518 132.762,134.851 135.5,134.5C 136.229,136.993 137.063,139.326 138,141.5C 135.394,141.516 132.894,142.016 130.5,143C 132.272,142.325 134.105,142.491 136,143.5C 138.259,143.739 139.426,142.739 139.5,140.5C 138.481,138.489 137.481,136.489 136.5,134.5C 138.696,136.545 141.03,136.878 143.5,135.5C 144.167,135.167 144.833,134.833 145.5,134.5C 146.056,143.321 143.723,151.154 138.5,158C 132.585,160.866 127.918,159.699 124.5,154.5C 123.5,153.167 122.5,151.833 121.5,150.5C 121.5,149.833 121.5,149.167 121.5,148.5C 121.784,146.585 121.451,144.919 120.5,143.5C 120.672,142.508 120.338,141.842 119.5,141.5C 119.204,139.597 118.537,137.93 117.5,136.5C 117.5,135.833 117.5,135.167 117.5,134.5 Z"/></g>
<g><path style="opacity:1" fill="#fec90d" d="M 117.5,136.5 C 117.719,137.675 117.386,138.675 116.5,139.5C 115.202,137.948 115.535,136.948 117.5,136.5 Z"/></g>
<g><path style="opacity:1" fill="#7e7f7e" d="M 147.5,137.5 C 148.268,138.263 148.768,139.263 149,140.5C 149.667,144.833 149.667,149.167 149,153.5C 147.517,157.665 144.684,159.165 140.5,158C 145.491,152.162 147.824,145.329 147.5,137.5 Z"/></g>
<g><path style="opacity:1" fill="#fec90d" d="M 119.5,141.5 C 118.632,143.625 117.632,143.791 116.5,142C 117.176,140.317 118.176,140.15 119.5,141.5 Z"/></g>
<g><path style="opacity:1" fill="#fec90d" d="M 120.5,143.5 C 120.443,144.609 120.11,145.609 119.5,146.5C 117.162,145.375 117.495,144.375 120.5,143.5 Z"/></g>
<g><path style="opacity:1" fill="#000000" d="M 120.5,143.5 C 121.451,144.919 121.784,146.585 121.5,148.5C 120.833,147.833 120.167,147.167 119.5,146.5C 120.11,145.609 120.443,144.609 120.5,143.5 Z"/></g>
<g><path style="opacity:1" fill="#c7641d" d="M 116.5,154.5 C 115.992,151.824 115.825,149.157 116,146.5C 116.789,149.834 117.956,153.001 119.5,156C 118.212,156.239 117.212,155.739 116.5,154.5 Z"/></g>
<g><path style="opacity:1" fill="#fec90d" d="M 119.5,146.5 C 120.167,147.167 120.833,147.833 121.5,148.5C 121.5,149.167 121.5,149.833 121.5,150.5C 120.5,150.5 119.5,150.5 118.5,150.5C 118.433,149.041 118.766,147.708 119.5,146.5 Z"/></g>
<g><path style="opacity:1" fill="#fefffe" d="M 138.5,148.5 C 135.167,148.5 131.833,148.5 128.5,148.5C 129.946,147.06 131.779,146.393 134,146.5C 136.008,146.307 137.508,146.974 138.5,148.5 Z"/></g>
<g><path style="opacity:1" fill="#640e0d" d="M 128.5,148.5 C 131.833,148.5 135.167,148.5 138.5,148.5C 139.774,149.189 139.774,150.023 138.5,151C 134.39,152.143 130.724,151.477 127.5,149C 127.728,148.601 128.062,148.435 128.5,148.5 Z"/></g>
<g><path style="opacity:1" fill="#4e0609" d="M 116.5,154.5 C 116.5,155.167 116.5,155.833 116.5,156.5C 114.833,155.167 113.167,153.833 111.5,152.5C 111.908,151.357 112.575,150.357 113.5,149.5C 114.696,151.145 115.696,152.811 116.5,154.5 Z"/></g>
<g><path style="opacity:1" fill="#ec1c23" d="M 111.5,152.5 C 113.167,153.833 114.833,155.167 116.5,156.5C 116.5,157.167 116.833,157.5 117.5,157.5C 120.318,160.505 123.484,163.172 127,165.5C 126.907,169.826 126.907,174.159 127,178.5C 128.011,177.663 129.178,177.33 130.5,177.5C 130.718,172.962 131.718,168.629 133.5,164.5C 134.911,162.461 136.911,161.461 139.5,161.5C 134.014,165.219 131.347,170.552 131.5,177.5C 129.598,179.151 127.598,179.484 125.5,178.5C 125.675,174.459 125.842,170.459 126,166.5C 120.595,163.067 115.762,159.067 111.5,154.5C 111.5,153.833 111.5,153.167 111.5,152.5 Z"/></g>
<g><path style="opacity:1" fill="#cca117" d="M 121.5,150.5 C 122.5,151.833 123.5,153.167 124.5,154.5C 124.629,156.216 124.962,157.883 125.5,159.5C 120.444,157.753 119.111,154.753 121.5,150.5 Z"/></g>
<g><path style="opacity:1" fill="#5a8417" d="M 97.5,164.5 C 94.8127,164.664 92.146,164.497 89.5,164C 87.4436,161.386 85.7769,158.553 84.5,155.5C 91.6185,153.893 95.9518,156.893 97.5,164.5 Z"/></g>
<g><path style="opacity:1" fill="#f4cb12" d="M 111.5,154.5 C 115.762,159.067 120.595,163.067 126,166.5C 125.842,170.459 125.675,174.459 125.5,178.5C 120.686,178.093 116.686,176.093 113.5,172.5C 113.068,171.29 112.401,170.29 111.5,169.5C 111.167,168.5 110.5,167.833 109.5,167.5C 107.806,162.697 108.472,158.364 111.5,154.5 Z"/></g>
<g><path style="opacity:1" fill="#d3af18" d="M 84.5,155.5 C 85.7769,158.553 87.4436,161.386 89.5,164C 92.146,164.497 94.8127,164.664 97.5,164.5C 96.4221,170.102 94.4221,174.602 91.5,178C 89.193,178.271 88.0264,177.105 88,174.5C 87.6667,175.5 87.3333,176.5 87,177.5C 85.9266,173.916 85.2599,170.25 85,166.5C 84.1939,169.446 82.8605,172.112 81,174.5C 79.2602,173.284 78.2602,171.618 78,169.5C 77.6667,170.167 77.3333,170.833 77,171.5C 73.703,166.077 75.203,162.243 81.5,160C 79.2852,158.956 76.9519,158.29 74.5,158C 77.5571,156.236 80.8905,155.402 84.5,155.5 Z"/></g>
<g><path style="opacity:1" fill="#fefffe" d="M 100.5,157.5 C 102.5,157.833 104.5,158.167 106.5,158.5C 106.665,161.85 106.498,165.183 106,168.5C 102.175,176.819 97.8418,184.819 93,192.5C 89.5046,195.162 86.3379,198.162 83.5,201.5C 80.8971,202.562 78.2305,202.728 75.5,202C 82.4066,195.764 88.5733,188.931 94,181.5C 97.4171,173.831 99.5838,165.831 100.5,157.5 Z"/></g>
<g><path style="opacity:1" fill="#4e0609" d="M 117.5,157.5 C 122.414,160.961 127.748,163.294 133.5,164.5C 131.718,168.629 130.718,172.962 130.5,177.5C 129.178,177.33 128.011,177.663 127,178.5C 126.907,174.159 126.907,169.826 127,165.5C 123.484,163.172 120.318,160.505 117.5,157.5 Z"/></g>
<g><path style="opacity:1" fill="#212677" d="M 52.5,193.5 C 53.5,194.167 54.5,194.833 55.5,195.5C 54.5,195.5 53.5,195.5 52.5,195.5C 52.5,196.5 52.5,197.5 52.5,198.5C 53.5,198.5 54.5,198.5 55.5,198.5C 54.4324,199.434 53.099,199.768 51.5,199.5C 51.8432,197.517 51.1765,196.183 49.5,195.5C 39.8215,187.124 32.8215,176.791 28.5,164.5C 29.4419,162.121 30.7753,159.954 32.5,158C 38.2599,157.436 43.9266,157.936 49.5,159.5C 50.7722,158.954 52.1055,158.621 53.5,158.5C 57.6768,158.653 61.5102,159.653 65,161.5C 68.8458,159.822 72.6792,159.656 76.5,161C 71.9473,167.53 73.2806,172.697 80.5,176.5C 82.1338,176.032 83.3005,175.032 84,173.5C 84.3333,175.167 84.6667,176.833 85,178.5C 87.0715,179.525 89.2381,180.358 91.5,181C 86.742,187.762 81.242,193.929 75,199.5C 74.4926,198.004 74.9926,196.837 76.5,196C 71.7459,188.905 66.5792,182.071 61,175.5C 60.0266,173.608 59.3599,171.608 59,169.5C 58.6667,170.167 58.3333,170.833 58,171.5C 51.4733,166.126 43.9733,163.626 35.5,164C 42.0082,165.876 48.3415,168.21 54.5,171C 58.2162,175.048 61.5496,179.382 64.5,184C 60.0251,186.65 56.0251,189.817 52.5,193.5 Z"/></g>
<g><path style="opacity:1" fill="#fec90d" d="M 125.5,159.5 C 126.756,159.461 127.756,159.961 128.5,161C 127.002,161.585 126.002,161.085 125.5,159.5 Z"/></g>
<g><path style="opacity:1" fill="#fefffe" d="M 142.5,161.5 C 144.605,160.181 146.605,160.514 148.5,162.5C 150.431,166.292 151.764,170.292 152.5,174.5C 149.872,182.345 147.872,190.345 146.5,198.5C 145.127,198.657 143.793,198.49 142.5,198C 145.528,186.661 146.028,175.161 144,163.5C 143.722,162.584 143.222,161.918 142.5,161.5 Z"/></g>
<g><path style="opacity:1" fill="#f4cb12" d="M 139.5,161.5 C 140.79,162.058 141.623,163.058 142,164.5C 142.796,167.039 142.629,169.372 141.5,171.5C 138.466,174.016 135.132,176.016 131.5,177.5C 131.347,170.552 134.014,165.219 139.5,161.5 Z"/></g>
<g><path style="opacity:1" fill="#699d15" d="M 155.5,163.5 C 160,163.219 160.833,164.886 158,168.5C 156.89,170.037 155.39,170.703 153.5,170.5C 153.167,168.5 152.833,166.5 152.5,164.5C 153.791,164.737 154.791,164.404 155.5,163.5 Z"/></g>
<g><path style="opacity:1" fill="#e7c015" d="M 160.5,164.5 C 162.582,164.624 164.082,165.624 165,167.5C 165.333,167.167 165.667,166.833 166,166.5C 166.211,172.122 167.378,177.455 169.5,182.5C 169.192,183.308 168.692,183.975 168,184.5C 166.579,181.991 164.912,179.657 163,177.5C 163.446,179.883 164.612,182.05 166.5,184C 164.741,184.798 163.074,184.631 161.5,183.5C 160.391,181.615 159.557,179.615 159,177.5C 158.313,179.92 158.813,182.087 160.5,184C 159.207,184.49 157.873,184.657 156.5,184.5C 156.167,175.167 155.833,175.167 155.5,184.5C 154.127,184.657 152.793,184.49 151.5,184C 154.12,180.025 155.12,175.859 154.5,171.5C 158.562,171.065 160.562,168.731 160.5,164.5 Z"/></g>
<g><path style="opacity:1" fill="#840114" d="M 109.5,167.5 C 110.5,167.833 111.167,168.5 111.5,169.5C 111.687,171.564 112.187,173.564 113,175.5C 118.711,183.755 124.544,191.921 130.5,200C 129.365,200.749 128.365,200.583 127.5,199.5C 118.763,189.991 112.763,179.325 109.5,167.5 Z"/></g>
<g><path style="opacity:1" fill="#fefffe" d="M 106.5,171.5 C 110.559,177.941 114.392,184.607 118,191.5C 126.419,199.911 124.753,203.245 113,201.5C 109.356,194.379 105.856,187.213 102.5,180C 104.246,177.341 105.58,174.508 106.5,171.5 Z"/></g>
<g><path style="opacity:1" fill="#fefffe" d="M 141.5,171.5 C 141.69,173.959 140.69,175.626 138.5,176.5C 135.314,177.597 132.314,178.93 129.5,180.5C 127.5,180.5 125.5,180.5 123.5,180.5C 122.791,179.596 121.791,179.263 120.5,179.5C 117.199,178.199 114.865,175.865 113.5,172.5C 116.686,176.093 120.686,178.093 125.5,178.5C 127.598,179.484 129.598,179.151 131.5,177.5C 135.132,176.016 138.466,174.016 141.5,171.5 Z"/></g>
<g><path style="opacity:1" fill="#fefffe" d="M 142.5,175.5 C 143.33,183.498 142.497,191.498 140,199.5C 138.534,201.325 136.701,201.825 134.5,201C 133.167,199.667 131.833,198.333 130.5,197C 136.004,190.665 140.004,183.499 142.5,175.5 Z"/></g>
<g><path style="opacity:1" fill="#212678" d="M 138.5,176.5 C 139.239,176.369 139.906,176.536 140.5,177C 137.453,183.375 133.619,189.208 129,194.5C 126.863,192.679 126.03,190.346 126.5,187.5C 127.105,185.026 128.105,182.693 129.5,180.5C 132.314,178.93 135.314,177.597 138.5,176.5 Z"/></g>
<g><path style="opacity:1" fill="#212677" d="M 120.5,179.5 C 121.791,179.263 122.791,179.596 123.5,180.5C 124.209,181.404 125.209,181.737 126.5,181.5C 126.5,183.5 126.5,185.5 126.5,187.5C 125.778,187.918 125.278,188.584 125,189.5C 123.224,186.059 121.057,182.892 118.5,180C 119.094,179.536 119.761,179.369 120.5,179.5 Z"/></g>
<g><path style="opacity:1" fill="#000000" d="M 123.5,180.5 C 125.5,180.5 127.5,180.5 129.5,180.5C 128.105,182.693 127.105,185.026 126.5,187.5C 126.5,185.5 126.5,183.5 126.5,181.5C 125.209,181.737 124.209,181.404 123.5,180.5 Z"/></g>
<g><path style="opacity:1" fill="#20236d" d="M 103.5,192.5 C 102.833,192.833 102.167,193.167 101.5,193.5C 100.262,191.786 99.595,189.786 99.5,187.5C 99.5332,184.903 100.533,183.903 102.5,184.5C 103.214,186.811 104.214,188.978 105.5,191C 104.584,191.278 103.918,191.778 103.5,192.5 Z"/></g>
<g><path style="opacity:1" fill="#fefffe" d="M 66.5,187.5 C 64.9505,188.441 63.2838,189.107 61.5,189.5C 62.5077,187.661 64.0077,186.328 66,185.5C 66.4643,186.094 66.631,186.761 66.5,187.5 Z"/></g>
<g><path style="opacity:1" fill="#212677" d="M 151.5,186.5 C 156.5,186.5 161.5,186.5 166.5,186.5C 165.923,191.081 166.923,195.248 169.5,199C 165.428,199.956 161.595,199.456 158,197.5C 154.927,198.617 151.76,198.784 148.5,198C 149.328,197.085 150.328,196.419 151.5,196C 150.422,195.326 149.755,194.326 149.5,193C 149.875,190.711 150.541,188.545 151.5,186.5 Z"/></g>
<g><path style="opacity:1" fill="#de1d22" d="M 66.5,187.5 C 69.5269,189.529 71.8602,192.196 73.5,195.5C 68.9207,200.036 63.754,203.702 58,206.5C 56.8926,206.415 55.8926,206.081 55,205.5C 54.4363,203.113 53.2696,201.113 51.5,199.5C 53.099,199.768 54.4324,199.434 55.5,198.5C 57.3469,195.52 59.3469,192.52 61.5,189.5C 63.2838,189.107 64.9505,188.441 66.5,187.5 Z"/></g>
<g><path style="opacity:1" fill="#fefffe" d="M 99.5,187.5 C 99.595,189.786 100.262,191.786 101.5,193.5C 101.216,195.415 101.549,197.081 102.5,198.5C 102.232,200.099 102.566,201.432 103.5,202.5C 103.44,203.043 103.107,203.376 102.5,203.5C 101.828,202.051 101.161,200.718 100.5,199.5C 100.706,196.505 100.04,193.838 98.5,191.5C 96.9219,189.625 97.2552,188.292 99.5,187.5 Z"/></g>
<g><path style="opacity:1" fill="#dcdcdc" d="M 61.5,189.5 C 59.3469,192.52 57.3469,195.52 55.5,198.5C 55.5,197.5 55.5,196.5 55.5,195.5C 54.5,194.833 53.5,194.167 52.5,193.5C 55.6071,192.447 58.6071,191.114 61.5,189.5 Z"/></g>
<g><path style="opacity:1" fill="#212676" d="M 98.5,191.5 C 100.04,193.838 100.706,196.505 100.5,199.5C 100.5,200.833 100.5,202.167 100.5,203.5C 98.0799,203.292 95.7466,203.626 93.5,204.5C 92.9278,202.083 91.9278,199.916 90.5,198C 93.0402,195.795 95.2068,193.295 97,190.5C 97.3826,191.056 97.8826,191.389 98.5,191.5 Z"/></g>
<g><path style="opacity:1" fill="#7e7f7e" d="M 329.5,191.5 C 330.873,191.343 332.207,191.51 333.5,192C 330.417,193.139 327.417,194.472 324.5,196C 306.926,198.565 289.259,200.232 271.5,201C 267.749,201.066 264.249,201.899 261,203.5C 258.113,203.168 255.946,201.835 254.5,199.5C 254.68,198.446 255.013,197.446 255.5,196.5C 279.499,195.333 303.499,194.167 327.5,193C 328.416,192.722 329.082,192.222 329.5,191.5 Z"/></g>
<g><path style="opacity:1" fill="#000000" d="M 103.5,192.5 C 103.5,193.5 103.5,194.5 103.5,195.5C 102.596,196.209 102.263,197.209 102.5,198.5C 101.549,197.081 101.216,195.415 101.5,193.5C 102.167,193.167 102.833,192.833 103.5,192.5 Z"/></g>
<g><path style="opacity:1" fill="#fec90d" d="M 103.5,192.5 C 104.552,192.351 105.552,192.517 106.5,193C 105.748,193.671 105.414,194.504 105.5,195.5C 104.833,195.5 104.167,195.5 103.5,195.5C 103.5,194.5 103.5,193.5 103.5,192.5 Z"/></g>
<g><path style="opacity:1" fill="#202267" d="M 103.5,202.5 C 102.566,201.432 102.232,200.099 102.5,198.5C 102.263,197.209 102.596,196.209 103.5,195.5C 104.167,195.5 104.833,195.5 105.5,195.5C 106.117,195.389 106.617,195.056 107,194.5C 108.167,196.833 109.333,199.167 110.5,201.5C 108.334,201.28 106.001,201.613 103.5,202.5 Z"/></g>
<g><path style="opacity:1" fill="#ffcec4" d="M 49.5,195.5 C 51.1765,196.183 51.8432,197.517 51.5,199.5C 50.3263,198.486 49.6596,197.153 49.5,195.5 Z"/></g>
<g><path style="opacity:1" fill="#fec90d" d="M 55.5,195.5 C 55.5,196.5 55.5,197.5 55.5,198.5C 54.5,198.5 53.5,198.5 52.5,198.5C 52.5,197.5 52.5,196.5 52.5,195.5C 53.5,195.5 54.5,195.5 55.5,195.5 Z"/></g>
<g><path style="opacity:1" fill="#fec90d" d="M 241.5,195.5 C 243.142,197.081 245.142,197.747 247.5,197.5C 247.196,201.215 247.863,204.715 249.5,208C 248.344,209.615 247.011,209.615 245.5,208C 242.854,207.503 240.187,207.336 237.5,207.5C 237.92,203.137 239.253,199.137 241.5,195.5 Z"/></g>
<g><path style="opacity:1" fill="#7e7f7e" d="M 230.5,196.5 C 238.886,196.772 239.22,197.606 231.5,199C 218.83,199.796 206.163,200.63 193.5,201.5C 191.833,201.167 190.167,200.833 188.5,200.5C 202.628,199.017 216.628,197.684 230.5,196.5 Z"/></g>
<g><path style="opacity:1" fill="#7e7f7e" d="M 250.5,196.5 C 252.141,198.203 253.141,200.37 253.5,203C 256.466,204.266 259.466,205.433 262.5,206.5C 258.699,206.266 254.866,206.266 251,206.5C 249.18,203.247 249.013,199.913 250.5,196.5 Z"/></g>
<g><path style="opacity:1" fill="#f9a884" d="M 71.5,199.5 C 72.6006,200.848 73.6006,202.348 74.5,204C 76.8098,204.497 79.1432,204.663 81.5,204.5C 81.6602,206.199 81.4935,207.866 81,209.5C 79,210.167 77.6667,211.5 77,213.5C 76.4125,217.353 76.7458,221.02 78,224.5C 76.3333,222.833 74.6667,221.167 73,219.5C 72.6667,217.167 72.3333,214.833 72,212.5C 70.5568,217.212 71.7235,221.045 75.5,224C 70.5717,222.387 67.7384,218.887 67,213.5C 66.3333,215.5 66.3333,217.5 67,219.5C 68.5,221 70,222.5 71.5,224C 65.1312,223.614 62.2978,220.114 63,213.5C 61.9963,216.993 62.4963,220.159 64.5,223C 62.193,223.271 61.0264,222.105 61,219.5C 60.3186,215.798 60.4852,212.131 61.5,208.5C 64.8276,205.506 68.1609,202.506 71.5,199.5 Z"/></g>
<g><path style="opacity:1" fill="#7e7f7e" d="M 89.5,200.5 C 90.2829,202.343 90.9495,204.343 91.5,206.5C 92.2739,207.711 93.1072,207.711 94,206.5C 97.4675,208.717 97.3008,210.551 93.5,212C 90.9969,212.874 88.9969,212.207 87.5,210C 89.3398,207.174 90.0065,204.007 89.5,200.5 Z"/></g>
<g><path style="opacity:1" fill="#f8a684" d="M 157.5,218.5 C 154.31,221.752 150.31,223.419 145.5,223.5C 141.862,223.262 139.029,221.596 137,218.5C 136.501,213.511 136.334,208.511 136.5,203.5C 137.5,203.5 138.5,203.5 139.5,203.5C 139.668,224.823 140.168,224.823 141,203.5C 142.113,201.671 143.613,200.837 145.5,201C 142.142,206.501 141.642,212.334 144,218.5C 143.415,213.426 143.748,208.426 145,203.5C 146.113,201.671 147.613,200.837 149.5,201C 148.042,203.077 147.376,205.41 147.5,208C 147.837,211.523 148.337,215.023 149,218.5C 149,213.833 149,209.167 149,204.5C 149.919,201.356 151.752,200.356 154.5,201.5C 153.407,205.108 153.24,208.775 154,212.5C 155.442,214.391 156.609,216.391 157.5,218.5 Z"/></g>
<g><path style="opacity:1" fill="#7e7f7e" d="M 169.5,200.5 C 173.884,200.174 178.217,200.508 182.5,201.5C 173.85,203.071 165.184,203.405 156.5,202.5C 160.982,201.833 165.316,201.166 169.5,200.5 Z"/></g>
<g><path style="opacity:1" fill="#fec90d" d="M 184.5,200.5 C 185.496,200.414 186.329,200.748 187,201.5C 187.226,204.095 187.726,206.595 188.5,209C 187.207,209.49 185.873,209.657 184.5,209.5C 184.5,206.5 184.5,203.5 184.5,200.5 Z"/></g>
<g><path style="opacity:1" fill="#b87a56" d="M 230.5,200.5 C 232.5,200.5 234.5,200.5 236.5,200.5C 236.167,202.5 235.833,204.5 235.5,206.5C 220.801,207.686 206.134,209.02 191.5,210.5C 190.056,208.392 189.39,206.059 189.5,203.5C 203.343,202.866 217.01,201.866 230.5,200.5 Z"/></g>
<g><path style="opacity:1" fill="#fec90d" d="M 56.5,201.5 C 57.5,201.5 58.5,201.5 59.5,201.5C 59.5,202.5 59.5,203.5 59.5,204.5C 58.5,204.5 57.5,204.5 56.5,204.5C 56.5,203.5 56.5,202.5 56.5,201.5 Z"/></g>
<g><path style="opacity:1" fill="#222882" d="M 86.5,201.5 C 87.6225,203.288 87.7891,205.288 87,207.5C 85.7586,205.452 85.5919,203.452 86.5,201.5 Z"/></g>
<g><path style="opacity:1" fill="#fec90d" d="M 129.5,202.5 C 130.693,202.97 131.36,203.97 131.5,205.5C 132.095,208.14 132.428,210.807 132.5,213.5C 131.5,213.5 130.5,213.5 129.5,213.5C 128.479,209.771 128.479,206.104 129.5,202.5 Z"/></g>
<g><path style="opacity:1" fill="#7e7f7e" d="M 120.5,203.5 C 122.604,203.201 124.604,203.534 126.5,204.5C 116.21,206.039 105.876,206.539 95.5,206C 103.99,205.204 112.323,204.371 120.5,203.5 Z"/></g>
<g><path style="opacity:1" fill="#b87a56" d="M 133.5,203.5 C 135.337,203.639 135.67,204.306 134.5,205.5C 133.702,205.043 133.369,204.376 133.5,203.5 Z"/></g>
<g><path style="opacity:1" fill="#b87a56" d="M 169.5,204.5 C 173.833,204.5 178.167,204.5 182.5,204.5C 182.5,206.167 182.5,207.833 182.5,209.5C 174.3,210.244 166.133,211.244 158,212.5C 157.228,212.355 156.561,212.022 156,211.5C 155.505,209.527 155.338,207.527 155.5,205.5C 160.363,205.819 165.03,205.486 169.5,204.5 Z"/></g>
<g><path style="opacity:1" fill="#b87a56" d="M 112.5,207.5 C 117.167,207.5 121.833,207.5 126.5,207.5C 126.519,209.06 126.852,210.56 127.5,212C 127.095,212.945 126.428,213.612 125.5,214C 115.81,214.352 106.144,215.019 96.5,216C 90.6545,216.476 84.9879,217.642 79.5,219.5C 77.9883,215.907 78.8217,212.907 82,210.5C 82.8793,213.346 84.5459,214.013 87,212.5C 89.9684,214.991 93.1351,215.157 96.5,213C 98.0368,211.89 98.7035,210.39 98.5,208.5C 103.363,208.819 108.03,208.486 112.5,207.5 Z"/></g>
<g><path style="opacity:1" fill="#fefffe" d="M 178.5,211.5 C 181.518,211.335 184.518,211.502 187.5,212C 188.815,213.395 188.481,214.395 186.5,215C 178.819,215.308 171.152,215.808 163.5,216.5C 161.611,216.564 159.944,216.064 158.5,215C 165.243,213.646 171.91,212.48 178.5,211.5 Z"/></g>
<g><path style="opacity:1" fill="#b87a56" d="M 50.5,212.5 C 53.1667,212.5 55.8333,212.5 58.5,212.5C 58.1486,216.529 58.8152,220.362 60.5,224C 60.1667,224.5 59.8333,225 59.5,225.5C 52.9951,228.276 46.4951,230.943 40,233.5C 39.0546,233.095 38.3879,232.428 38,231.5C 37.2425,225.851 36.7425,220.184 36.5,214.5C 41.353,214.187 46.0196,213.521 50.5,212.5 Z"/></g>
<g><path style="opacity:1" fill="#fefffe" d="M 126.5,215.5 C 128.857,215.337 131.19,215.503 133.5,216C 129.433,218.011 125.1,219.011 120.5,219C 113.321,219.344 106.155,219.844 99,220.5C 96.9493,220.577 95.116,220.077 93.5,219C 104.589,217.327 115.589,216.161 126.5,215.5 Z"/></g>
<g><path style="opacity:1" fill="#222882" d="M 168.5,217.5 C 170.833,217.5 173.167,217.5 175.5,217.5C 175.723,225.776 171.723,229.943 163.5,230C 167.023,226.602 168.689,222.436 168.5,217.5 Z"/></g>
<g><path style="opacity:1" fill="#fefffe" d="M 132.5,218.5 C 133.552,218.351 134.552,218.517 135.5,219C 137.979,222.313 140.645,225.48 143.5,228.5C 141.417,229.959 139.25,231.292 137,232.5C 133.273,229.276 130.106,225.609 127.5,221.5C 129.36,220.675 131.026,219.675 132.5,218.5 Z"/></g>
<g><path style="opacity:1" fill="#ae581c" d="M 157.5,218.5 C 158.552,218.351 159.552,218.517 160.5,219C 157.264,226.889 152.264,228.389 145.5,223.5C 150.31,223.419 154.31,221.752 157.5,218.5 Z"/></g>
<g><path style="opacity:1" fill="#e22d22" d="M 165.5,218.5 C 164.981,224.34 161.981,228.007 156.5,229.5C 152.37,231.121 148.37,230.287 144.5,227C 146.544,226.952 148.544,227.452 150.5,228.5C 156.819,228.681 160.652,225.681 162,219.5C 163.011,218.663 164.178,218.33 165.5,218.5 Z"/></g>
<g><path style="opacity:1" fill="#fefffe" d="M 165.5,218.5 C 166.3,223.099 164.633,226.933 160.5,230C 158.934,230.765 157.601,230.598 156.5,229.5C 161.981,228.007 164.981,224.34 165.5,218.5 Z"/></g>
<g><path style="opacity:1" fill="#1a1c55" d="M 90.5,220.5 C 89.1007,221.89 87.4341,222.89 85.5,223.5C 83.712,223.785 82.0453,223.452 80.5,222.5C 82.0595,220.305 84.2261,219.305 87,219.5C 88.3847,219.514 89.5514,219.848 90.5,220.5 Z"/></g>
<g><path style="opacity:1" fill="#fec90d" d="M 90.5,220.5 C 91.3764,220.369 92.0431,220.702 92.5,221.5C 91.018,223.483 89.3513,225.316 87.5,227C 85.1654,227.507 83.1654,226.84 81.5,225C 83.0581,224.79 84.3915,224.29 85.5,223.5C 87.4341,222.89 89.1007,221.89 90.5,220.5 Z"/></g>
<g><path style="opacity:1" fill="#21277a" d="M 127.5,227.5 C 127.5,228.833 128.167,229.5 129.5,229.5C 131.912,229.694 132.912,231.027 132.5,233.5C 129.55,234.214 126.216,234.88 122.5,235.5C 116.846,234.496 111.179,234.496 105.5,235.5C 105.5,234.5 105.5,233.5 105.5,232.5C 104.174,230.805 104.507,229.472 106.5,228.5C 108.532,223.964 112.199,221.631 117.5,221.5C 117.833,225.5 118.167,225.5 118.5,221.5C 124.105,219.424 127.105,221.424 127.5,227.5 Z"/></g>
<g><path style="opacity:1" fill="#fefffe" d="M 104.5,221.5 C 105.873,221.343 107.207,221.51 108.5,222C 102.76,224.886 96.7596,226.553 90.5,227C 91.8333,225.667 93.1667,224.333 94.5,223C 98.0252,222.821 101.359,222.321 104.5,221.5 Z"/></g>
<g><path style="opacity:1" fill="#fefffe" d="M 67.5,226.5 C 71.7691,225.109 76.1024,225.276 80.5,227C 76.141,227.534 71.8076,227.368 67.5,226.5 Z"/></g>
<g><path style="opacity:1" fill="#fec90d" d="M 106.5,228.5 C 105.5,228.5 104.5,228.5 103.5,228.5C 104.754,224.69 105.754,224.69 106.5,228.5 Z"/></g>
<g><path style="opacity:1" fill="#1d1e1d" d="M 62.5,227.5 C 63.9778,227.238 65.3112,227.571 66.5,228.5C 64.1486,234.958 62.8152,241.625 62.5,248.5C 61.448,248.649 60.448,248.483 59.5,248C 60.3802,246.644 60.7135,245.144 60.5,243.5C 59.1779,243.33 58.0113,243.663 57,244.5C 56.6667,243.5 56.3333,242.5 56,241.5C 55.5634,237.377 56.0634,233.377 57.5,229.5C 59.5529,229.598 61.2196,228.931 62.5,227.5 Z"/></g>
<g><path style="opacity:1" fill="#21277d" d="M 100.5,230.5 C 100.819,232.75 100.319,234.75 99,236.5C 87.6025,230.52 76.7692,231.186 66.5,238.5C 66.5766,234.854 67.5766,231.521 69.5,228.5C 76.2574,229.145 82.9241,229.478 89.5,229.5C 93.1759,229.572 96.6759,228.906 100,227.5C 100.483,228.448 100.649,229.448 100.5,230.5 Z"/></g>
<g><path style="opacity:1" fill="#fec90d" d="M 127.5,227.5 C 128.833,227.5 129.5,228.167 129.5,229.5C 129.5,228.167 128.833,227.5 127.5,227.5 Z"/></g>
<g><path style="opacity:1" fill="#000000" d="M 103.5,228.5 C 104.5,228.5 105.5,228.5 106.5,228.5C 104.507,229.472 104.174,230.805 105.5,232.5C 104.5,232.5 103.5,232.5 102.5,232.5C 103.234,231.292 103.567,229.959 103.5,228.5 Z"/></g>
<g><path style="opacity:1" fill="#fec90d" d="M 141.5,248.5 C 142.167,248.5 142.5,248.167 142.5,247.5C 143.315,246.571 144.148,245.571 145,244.5C 145.393,239.799 145.393,235.132 145,230.5C 146.343,229.786 147.676,230.12 149,231.5C 149.851,237.253 149.517,242.92 148,248.5C 145.701,251.106 143.534,251.106 141.5,248.5 Z"/></g>
<g><path style="opacity:1" fill="#fbfbfb" d="M 103.5,228.5 C 103.567,229.959 103.234,231.292 102.5,232.5C 102.5,233.5 102.5,234.5 102.5,235.5C 103.5,235.5 104.5,235.5 105.5,235.5C 111.179,234.496 116.846,234.496 122.5,235.5C 126.216,234.88 129.55,234.214 132.5,233.5C 133.117,233.389 133.617,233.056 134,232.5C 134.667,235.833 134.667,239.167 134,242.5C 130.748,247.334 127.748,252.334 125,257.5C 121.884,259.967 118.718,262.301 115.5,264.5C 115.833,264.833 116.167,265.167 116.5,265.5C 121.543,262.985 126.21,259.985 130.5,256.5C 129.975,255.808 129.308,255.308 128.5,255C 129.667,253.167 130.833,251.333 132,249.5C 132.333,250.167 132.667,250.833 133,251.5C 135.451,276.239 137.618,301.072 139.5,326C 139.162,328.609 138.162,330.776 136.5,332.5C 132.395,332.766 128.395,332.266 124.5,331C 122.326,327.996 119.992,325.163 117.5,322.5C 116.638,323.766 115.971,325.099 115.5,326.5C 113.165,315.539 110.498,304.539 107.5,293.5C 108.75,290.979 108.417,288.646 106.5,286.5C 110.934,288.797 115.101,291.464 119,294.5C 119.257,291.983 118.59,289.65 117,287.5C 112.813,282.894 108.98,278.061 105.5,273C 106.833,272.333 108.167,272.333 109.5,273C 111.926,275.1 114.593,276.934 117.5,278.5C 118.108,276.316 117.441,274.316 115.5,272.5C 119.796,271.672 124.129,271.172 128.5,271C 120.991,268.967 113.325,267.967 105.5,268C 105.167,267.667 104.833,267.333 104.5,267C 111.426,262.952 111.093,261.786 103.5,263.5C 102.699,261.958 102.366,260.292 102.5,258.5C 107.738,256.881 112.738,254.714 117.5,252C 113.514,251.501 109.514,251.334 105.5,251.5C 107.461,249.037 109.628,246.703 112,244.5C 112.497,242.19 112.663,239.857 112.5,237.5C 107.5,237.5 102.5,237.5 97.5,237.5C 94.2006,235.517 90.5339,234.517 86.5,234.5C 85.0813,233.549 83.4147,233.216 81.5,233.5C 74.2489,234.1 68.9156,237.434 65.5,243.5C 65.366,241.708 65.6993,240.042 66.5,238.5C 76.7692,231.186 87.6025,230.52 99,236.5C 100.319,234.75 100.819,232.75 100.5,230.5C 101.268,229.737 101.768,228.737 102,227.5C 102.383,228.056 102.883,228.389 103.5,228.5 Z"/></g>
<g><path style="opacity:1" fill="#fec90d" d="M 102.5,232.5 C 103.5,232.5 104.5,232.5 105.5,232.5C 105.5,233.5 105.5,234.5 105.5,235.5C 104.5,235.5 103.5,235.5 102.5,235.5C 102.5,234.5 102.5,233.5 102.5,232.5 Z"/></g>
<g><path style="opacity:1" fill="#ec1c23" d="M 81.5,233.5 C 76.745,235.633 72.5783,238.633 69,242.5C 67.1095,246.611 66.1095,250.944 66,255.5C 64.4263,256.984 63.093,258.651 62,260.5C 63.5702,254.975 64.7368,249.308 65.5,243.5C 68.9156,237.434 74.2489,234.1 81.5,233.5 Z"/></g>
<g><path style="opacity:1" fill="#dadada" d="M 86.5,234.5 C 90.5339,234.517 94.2006,235.517 97.5,237.5C 98.2625,238.268 99.2625,238.768 100.5,239C 99.629,242.771 97.2957,244.771 93.5,245C 98.5012,245.901 101.168,243.734 101.5,238.5C 104.833,238.5 108.167,238.5 111.5,238.5C 111.66,240.199 111.494,241.866 111,243.5C 108.5,246 106,248.5 103.5,251C 104.094,251.464 104.761,251.631 105.5,251.5C 109.514,251.334 113.514,251.501 117.5,252C 112.738,254.714 107.738,256.881 102.5,258.5C 101.66,256.208 100.66,253.875 99.5,251.5C 92.8456,245.511 85.179,242.511 76.5,242.5C 77.7701,243.288 78.7701,244.288 79.5,245.5C 74.9373,246.448 70.9373,248.448 67.5,251.5C 67.8175,247.212 69.4842,243.545 72.5,240.5C 77.013,237.904 81.6797,235.904 86.5,234.5 Z"/></g>
<g><path style="opacity:1" fill="#000000" d="M 97.5,237.5 C 102.5,237.5 107.5,237.5 112.5,237.5C 112.663,239.857 112.497,242.19 112,244.5C 109.628,246.703 107.461,249.037 105.5,251.5C 104.761,251.631 104.094,251.464 103.5,251C 106,248.5 108.5,246 111,243.5C 111.494,241.866 111.66,240.199 111.5,238.5C 108.167,238.5 104.833,238.5 101.5,238.5C 101.168,243.734 98.5012,245.901 93.5,245C 97.2957,244.771 99.629,242.771 100.5,239C 99.2625,238.768 98.2625,238.268 97.5,237.5 Z"/></g>
<g><path style="opacity:1" fill="#000000" d="M 118.5,238.5 C 124.475,237.38 125.808,237.38 122.5,238.5C 122.285,242.266 120.951,245.6 118.5,248.5C 118.167,248.333 117.833,248.167 117.5,248C 119.533,245.104 120.866,241.937 121.5,238.5C 120.5,238.5 119.5,238.5 118.5,238.5 Z"/></g>
<g><path style="opacity:1" fill="#a98402" d="M 142.5,247.5 C 142.5,248.167 142.167,248.5 141.5,248.5C 139.112,247.781 137.612,246.115 137,243.5C 136.192,241.421 136.359,239.421 137.5,237.5C 138.152,241.47 139.818,244.804 142.5,247.5 Z"/></g>
<g><path style="opacity:1" fill="#a5a5a5" d="M 99.5,257.5 C 98.8826,257.611 98.3826,257.944 98,258.5C 92.2655,253.918 86.4322,249.585 80.5,245.5C 87.1296,245.72 92.9629,248.386 98,253.5C 98.7914,254.745 99.2914,256.078 99.5,257.5 Z"/></g>
<g><path style="opacity:1" fill="#ec1c23" d="M 134.5,244.5 C 136.136,245.749 137.303,247.416 138,249.5C 138.667,257.167 138.667,264.833 138,272.5C 136.212,263.245 135.046,253.912 134.5,244.5 Z"/></g>
<g><path style="opacity:1" fill="#fcfcfc" d="M 79.5,245.5 C 79.8333,245.5 80.1667,245.5 80.5,245.5C 86.4322,249.585 92.2655,253.918 98,258.5C 98.3826,257.944 98.8826,257.611 99.5,257.5C 102.131,266.237 102.131,274.904 99.5,283.5C 101.042,287.725 100.542,291.725 98,295.5C 97.6667,299.167 97.3333,302.833 97,306.5C 93.287,311.424 89.4537,316.258 85.5,321C 81.5475,321.912 77.8809,321.245 74.5,319C 71.8333,315.667 69.1667,312.333 66.5,309C 67.3333,308.167 68.1667,307.333 69,306.5C 69.7745,302.853 70.4412,299.186 71,295.5C 71.6742,290.943 71.3409,286.609 70,282.5C 71.6495,285.72 74.1495,287.553 77.5,288C 73.7637,285.931 71.097,282.931 69.5,279C 70.6051,272.872 70.7718,266.706 70,260.5C 67.8951,257.893 67.0617,254.893 67.5,251.5C 70.9373,248.448 74.9373,246.448 79.5,245.5 Z"/></g>
<g><path style="opacity:1" fill="#e0e1e0" d="M 106.5,286.5 C 103.748,279.147 102.748,271.481 103.5,263.5C 111.093,261.786 111.426,262.952 104.5,267C 104.833,267.333 105.167,267.667 105.5,268C 113.325,267.967 120.991,268.967 128.5,271C 124.129,271.172 119.796,271.672 115.5,272.5C 117.441,274.316 118.108,276.316 117.5,278.5C 114.593,276.934 111.926,275.1 109.5,273C 108.167,272.333 106.833,272.333 105.5,273C 108.98,278.061 112.813,282.894 117,287.5C 118.59,289.65 119.257,291.983 119,294.5C 115.101,291.464 110.934,288.797 106.5,286.5 Z"/></g>
<g><path style="opacity:1" fill="#1d1e1d" d="M 65.5,311.5 C 68.3021,314.476 70.9688,317.642 73.5,321C 76.6438,322.692 79.9771,323.858 83.5,324.5C 79.8279,333.763 78.8279,343.263 80.5,353C 73.447,356.71 67.1137,355.877 61.5,350.5C 62.1667,348.167 62.8333,345.833 63.5,343.5C 63.278,341.945 62.6113,340.611 61.5,339.5C 63.3869,337.06 64.7203,334.393 65.5,331.5C 64.9278,326.731 63.9278,322.064 62.5,317.5C 63.5133,315.473 64.5133,313.473 65.5,311.5 Z"/></g>
<g><path style="opacity:1" fill="#e0e0e0" d="M 136.5,332.5 C 136.645,335.857 136.145,339.19 135,342.5C 132.306,343.883 129.473,344.383 126.5,344C 121.934,341.797 117.768,338.964 114,335.5C 114.158,332.498 114.658,329.498 115.5,326.5C 115.971,325.099 116.638,323.766 117.5,322.5C 119.992,325.163 122.326,327.996 124.5,331C 128.395,332.266 132.395,332.766 136.5,332.5 Z"/></g>
<g><path style="opacity:1" fill="#1d1e1d" d="M 112.5,337.5 C 115.956,339.783 119.29,342.283 122.5,345C 126.006,346.313 129.34,346.813 132.5,346.5C 128.214,354.177 125.714,362.177 125,370.5C 124.278,378.162 123.612,385.829 123,393.5C 118.953,395.959 114.62,397.626 110,398.5C 110.082,386.346 110.082,374.012 110,361.5C 106.831,353.151 107.664,345.151 112.5,337.5 Z"/></g>
</svg>
