<?xml version="1.0" encoding="UTF-8"?>
<!DOCTYPE svg PUBLIC "-//W3C//DTD SVG 1.1//EN" "http://www.w3.org/Graphics/SVG/1.1/DTD/svg11.dtd">
<svg xmlns="http://www.w3.org/2000/svg" version="1.1" width="696px" height="926px" style="shape-rendering:geometricPrecision; text-rendering:geometricPrecision; image-rendering:optimizeQuality; fill-rule:evenodd; clip-rule:evenodd" xmlns:xlink="http://www.w3.org/1999/xlink">
<g><path style="opacity:1" fill="#fefffe" d="M 356.5,125.5 C 366.875,125.602 377.209,126.268 387.5,127.5C 387.192,129.924 387.526,132.257 388.5,134.5C 392.478,135.556 395.311,137.889 397,141.5C 397.667,146.833 397.667,152.167 397,157.5C 392.543,169.41 390.21,181.744 390,194.5C 386.853,200.094 383.853,205.761 381,211.5C 380.667,214.5 380.333,217.5 380,220.5C 379.333,221.167 378.667,221.833 378,222.5C 378.55,228.052 376.883,232.718 373,236.5C 372.896,242.145 371.563,247.478 369,252.5C 369.172,258.17 368.005,263.504 365.5,268.5C 367.897,272.523 369.397,276.856 370,281.5C 369.614,291.173 371.114,300.507 374.5,309.5C 375.748,310.04 376.915,310.707 378,311.5C 378.171,316.864 378.671,322.198 379.5,327.5C 383.049,328.274 386.382,329.607 389.5,331.5C 390.66,335.459 390.827,339.459 390,343.5C 389.31,346.196 387.81,348.363 385.5,350C 388.907,352.245 390.24,355.412 389.5,359.5C 388.183,363.831 386.849,368.164 385.5,372.5C 387.857,372.337 390.19,372.503 392.5,373C 392.957,373.414 393.291,373.914 393.5,374.5C 398.809,374.739 403.309,376.739 407,380.5C 407.273,382.101 407.773,383.601 408.5,385C 412.551,387.28 416.718,389.113 421,390.5C 445.485,388.501 469.985,386.668 494.5,385C 517.059,382.119 539.725,380.285 562.5,379.5C 567.88,379.536 573.214,380.036 578.5,381C 579.632,385.413 579.799,389.913 579,394.5C 576.895,399.541 575.895,404.874 576,410.5C 572.483,413.735 568.316,415.735 563.5,416.5C 563.863,418.911 562.863,420.411 560.5,421C 551.437,421.629 542.437,421.129 533.5,419.5C 533.843,423.134 532.177,424.801 528.5,424.5C 512.166,426.353 495.833,428.186 479.5,430C 456.525,435.827 433.525,441.494 410.5,447C 403.606,449.398 400.606,454.231 401.5,461.5C 401.812,469.26 403.646,476.593 407,483.5C 407.667,491.5 407.667,499.5 407,507.5C 406.308,508.025 405.808,508.692 405.5,509.5C 407.925,515.578 409.092,521.911 409,528.5C 414.746,526.813 420.246,527.313 425.5,530C 426.969,533.656 427.969,537.489 428.5,541.5C 431.19,543.356 433.356,545.689 435,548.5C 435.839,557.22 435.505,565.887 434,574.5C 432.579,577.009 430.912,579.343 429,581.5C 427.589,583.65 426.755,585.984 426.5,588.5C 423.813,588.336 421.146,588.503 418.5,589C 418.686,595.867 421.186,601.7 426,606.5C 426.667,611.833 426.667,617.167 426,622.5C 424.659,624.244 423.492,626.077 422.5,628C 424.412,639.445 425.912,650.945 427,662.5C 428.135,666.905 429.468,671.238 431,675.5C 431.333,683.833 431.667,692.167 432,700.5C 433.827,704.281 434.827,708.281 435,712.5C 437.162,734.463 438.829,756.463 440,778.5C 441.089,782.186 443.255,785.019 446.5,787C 452.718,788.722 459.051,789.722 465.5,790C 468.726,791.198 471.559,793.031 474,795.5C 474.667,800.5 474.667,805.5 474,810.5C 472.048,812.894 469.548,814.394 466.5,815C 457.459,816.408 448.459,818.075 439.5,820C 422.242,821.724 405.409,819.891 389,814.5C 386.974,810.097 386.14,805.43 386.5,800.5C 388.189,790.94 388.689,781.273 388,771.5C 383.151,759.008 380.984,746.008 381.5,732.5C 381.585,729.135 381.918,725.802 382.5,722.5C 378.584,714.636 376.084,706.302 375,697.5C 372.833,693.833 370.667,690.167 368.5,686.5C 358.017,710.136 347.517,733.803 337,757.5C 330.667,768.167 324.333,778.833 318,789.5C 316.301,790.406 314.467,790.739 312.5,790.5C 313.332,797.255 312.165,803.589 309,809.5C 308.833,811.333 308.667,813.167 308.5,815C 310.382,822.435 312.215,829.935 314,837.5C 314.667,844.5 314.667,851.5 314,858.5C 313.508,862.657 311.342,865.491 307.5,867C 301.833,867.667 296.167,867.667 290.5,867C 282.816,862.826 274.816,859.326 266.5,856.5C 265.441,846.86 265.275,837.194 266,827.5C 267.647,825.369 267.314,823.369 265,821.5C 263.779,790.03 265.112,758.697 269,727.5C 271.886,720.679 274.052,713.679 275.5,706.5C 272.833,706.5 270.167,706.5 267.5,706.5C 267.859,689.822 268.526,673.155 269.5,656.5C 268.777,648.489 267.943,640.489 267,632.5C 264.907,639.549 260.24,642.216 253,640.5C 250.167,640.333 247.333,640.167 244.5,640C 240.759,637.268 236.759,634.934 232.5,633C 225.421,632.886 218.421,632.219 211.5,631C 210.13,629.559 209.13,627.892 208.5,626C 206.051,625.275 203.717,624.275 201.5,623C 199.689,620.022 197.356,617.522 194.5,615.5C 193.067,611.649 192.067,607.649 191.5,603.5C 185.5,600.833 179.5,598.167 173.5,595.5C 170.045,591.189 165.545,588.856 160,588.5C 159.333,582.833 159.333,577.167 160,571.5C 160.833,568.667 162.667,566.833 165.5,566C 170.489,565.501 175.489,565.334 180.5,565.5C 180.33,566.822 180.663,567.989 181.5,569C 184.393,570.149 187.393,570.649 190.5,570.5C 190.344,566.418 190.844,562.418 192,558.5C 194.541,549.547 197.874,540.88 202,532.5C 203.562,524.234 204.562,515.901 205,507.5C 207.835,495.831 210.501,484.165 213,472.5C 218.262,463.647 224.262,455.314 231,447.5C 239.456,439.887 247.456,431.887 255,423.5C 256.272,417.951 259.272,413.618 264,410.5C 264.872,402.632 269.039,397.466 276.5,395C 288.586,397.455 297.252,393.288 302.5,382.5C 302.192,381.692 301.692,381.025 301,380.5C 300.5,374.175 300.334,367.842 300.5,361.5C 294.608,362.927 290.441,360.927 288,355.5C 285.928,350.796 284.928,345.796 285,340.5C 278.231,333.066 272.231,325.066 267,316.5C 264.346,307.157 266.846,299.657 274.5,294C 278.172,291.162 282.172,288.829 286.5,287C 299.833,282 313.167,277 326.5,272C 330.782,270.843 335.116,270.01 339.5,269.5C 337.544,255.205 335.877,240.871 334.5,226.5C 334.711,207.125 334.711,187.625 334.5,168C 335.103,161.487 335.77,154.987 336.5,148.5C 337.5,148.5 338.5,148.5 339.5,148.5C 339.335,145.482 339.502,142.482 340,139.5C 342.021,137.291 343.188,134.624 343.5,131.5C 345.795,130.864 347.461,129.531 348.5,127.5C 351.306,126.832 353.972,126.166 356.5,125.5 Z"/></g>
<g><path style="opacity:1" fill="#000000" d="M 359.5,128.5 C 367.833,129.167 376.167,129.833 384.5,130.5C 384.192,132.924 384.526,135.257 385.5,137.5C 393.346,140.546 396.18,146.212 394,154.5C 389.543,166.41 387.21,178.744 387,191.5C 383.625,195.971 381.291,200.971 380,206.5C 378.833,207.667 377.667,208.833 376.5,210C 378.138,213.539 377.638,216.706 375,219.5C 375.55,225.052 373.883,229.718 370,233.5C 366.995,245.084 364.495,256.751 362.5,268.5C 364.27,273.722 365.77,279.055 367,284.5C 366.614,294.173 368.114,303.507 371.5,312.5C 372.748,313.04 373.915,313.707 375,314.5C 375.667,318.833 375.667,323.167 375,327.5C 374.626,328.416 374.126,329.25 373.5,330C 389.832,332.33 391.832,338.997 379.5,350C 382.877,352.523 385.21,355.69 386.5,359.5C 384.221,362.296 382.555,365.463 381.5,369C 382.423,371.041 382.756,373.208 382.5,375.5C 384.857,375.337 387.19,375.503 389.5,376C 391.682,378.012 394.349,379.012 397.5,379C 401.972,380.468 404.638,383.468 405.5,388C 410.303,391.165 415.47,392.999 421,393.5C 455.28,391.564 489.447,388.564 523.5,384.5C 526.199,384.614 528.865,384.947 531.5,385.5C 546.124,382.891 560.791,382.391 575.5,384C 577.697,389.047 576.363,392.713 571.5,395C 573.059,396.996 573.726,399.329 573.5,402C 573.435,404.225 573.102,406.392 572.5,408.5C 568.822,410.948 564.822,412.615 560.5,413.5C 560.863,415.911 559.863,417.411 557.5,418C 548.565,418.008 539.732,417.175 531,415.5C 531.199,419.465 529.366,421.465 525.5,421.5C 517.614,422.111 509.78,423.111 502,424.5C 500.564,424.441 499.231,424.108 498,423.5C 469.721,428.944 441.554,435.11 413.5,442C 403.622,443.541 398.289,449.207 397.5,459C 398.013,468.565 400.179,477.731 404,486.5C 404.667,492.5 404.667,498.5 404,504.5C 402.536,505.459 401.703,506.792 401.5,508.5C 405.242,517.834 406.409,527.501 405,537.5C 402.562,541.377 400.395,545.377 398.5,549.5C 398.667,550.167 398.833,550.833 399,551.5C 401.092,548.319 403.425,545.319 406,542.5C 404.31,534.197 407.643,530.197 416,530.5C 418.728,530.557 421.061,531.557 423,533.5C 424.014,537.099 424.847,540.765 425.5,544.5C 430.785,547.94 433.118,552.774 432.5,559C 433.201,566.544 431.034,573.044 426,578.5C 424.589,580.65 423.755,582.984 423.5,585.5C 420.5,585.5 417.5,585.5 414.5,585.5C 415.458,592.264 416.958,598.931 419,605.5C 423.321,609.181 424.654,613.848 423,619.5C 421.723,621.731 419.889,623.398 417.5,624.5C 418.979,629.081 420.145,633.748 421,638.5C 421.252,652.228 423.586,665.561 428,678.5C 428.333,686.833 428.667,695.167 429,703.5C 430.827,707.281 431.827,711.281 432,715.5C 432.34,726.892 433.34,738.225 435,749.5C 435.797,756.55 435.63,763.55 434.5,770.5C 436.164,773.897 436.997,777.564 437,781.5C 438.089,785.186 440.255,788.019 443.5,790C 449.718,791.722 456.051,792.722 462.5,793C 470.387,794.884 473.22,799.718 471,807.5C 467.845,810.667 464.012,812.501 459.5,813C 448.728,815.022 437.895,816.522 427,817.5C 415.033,817.09 403.366,815.09 392,811.5C 388.396,802.457 388.896,793.624 393.5,785C 392.874,784.25 392.374,783.416 392,782.5C 391.667,777.833 391.333,773.167 391,768.5C 389.333,763.5 387.667,758.5 386,753.5C 384.731,741.497 384.398,729.497 385,717.5C 381.389,710.271 379.055,702.604 378,694.5C 374.192,688.551 371.192,682.217 369,675.5C 357.076,701.685 345.409,728.019 334,754.5C 327.667,765.167 321.333,775.833 315,786.5C 313.301,787.406 311.467,787.739 309.5,787.5C 310.332,794.255 309.165,800.589 306,806.5C 305.68,811.023 305.18,815.523 304.5,820C 311.173,832.698 312.84,846.031 309.5,860C 308.142,861.689 306.475,863.022 304.5,864C 300.833,864.667 297.167,864.667 293.5,864C 285.816,859.826 277.816,856.326 269.5,853.5C 268.475,845.861 268.309,838.195 269,830.5C 270.312,828.045 271.478,825.545 272.5,823C 268.311,820.787 266.644,817.287 267.5,812.5C 267.432,793.205 267.932,773.872 269,754.5C 269.654,740.602 272.654,727.269 278,714.5C 278.998,710.527 279.331,706.527 279,702.5C 276.281,703.444 273.448,703.777 270.5,703.5C 270.733,688.099 271.733,672.766 273.5,657.5C 270.914,643.94 270.081,630.273 271,616.5C 277.027,606.608 275.694,598.274 267,591.5C 263.123,586.146 261.623,580.146 262.5,573.5C 262.436,569.081 262.936,564.748 264,560.5C 268.391,556.388 273.224,552.888 278.5,550C 279.191,548.933 279.691,547.766 280,546.5C 281.153,535.537 281.819,524.537 282,513.5C 282.769,509.486 283.603,505.486 284.5,501.5C 282.1,494.468 279.6,487.468 277,480.5C 270.04,485.792 263.373,491.458 257,497.5C 256,499.5 255,501.5 254,503.5C 250.273,523.971 246.106,544.305 241.5,564.5C 242.932,567.662 243.599,570.995 243.5,574.5C 242.777,579.496 242.61,584.496 243,589.5C 247.261,592.236 249.261,596.236 249,601.5C 253.797,606.23 259.13,610.23 265,613.5C 266.922,622.137 265.089,629.804 259.5,636.5C 255.558,637.6 251.558,637.767 247.5,637C 242.019,633.176 236.185,630.009 230,627.5C 224.986,629.991 219.819,630.158 214.5,628C 213.13,626.559 212.13,624.892 211.5,623C 209.051,622.275 206.717,621.275 204.5,620C 202.181,616.682 199.515,613.682 196.5,611C 195.942,607.486 195.276,603.986 194.5,600.5C 188.5,597.833 182.5,595.167 176.5,592.5C 173.045,588.189 168.545,585.856 163,585.5C 159.94,572.914 164.774,567.247 177.5,568.5C 177.33,569.822 177.663,570.989 178.5,572C 183.506,572.634 188.172,574.134 192.5,576.5C 194.924,562.314 199.091,548.648 205,535.5C 206.562,527.234 207.562,518.901 208,510.5C 210.835,498.831 213.501,487.165 216,475.5C 221.262,466.647 227.262,458.314 234,450.5C 242.456,442.887 250.456,434.887 258,426.5C 259.272,420.951 262.272,416.618 267,413.5C 269.953,399.609 278.12,394.942 291.5,399.5C 295.167,396.833 298.833,394.167 302.5,391.5C 303.993,388.684 305.326,385.85 306.5,383C 306.342,380.851 305.508,379.017 304,377.5C 303.5,371.175 303.334,364.842 303.5,358.5C 297.608,359.927 293.441,357.927 291,352.5C 288.451,348.229 287.951,343.729 289.5,339C 282.233,331.069 275.733,322.569 270,313.5C 269.333,310.833 269.333,308.167 270,305.5C 275.055,298.551 281.555,293.384 289.5,290C 301.943,285.611 314.277,280.944 326.5,276C 332.952,274.479 339.285,272.645 345.5,270.5C 342.426,267.324 341.759,263.658 343.5,259.5C 339.708,251.566 338.708,243.233 340.5,234.5C 336.985,229.879 336.651,225.046 339.5,220C 338.119,216.843 337.452,213.509 337.5,210C 337.223,199.226 337.723,188.392 339,177.5C 340.895,175.565 340.562,173.898 338,172.5C 337.833,171 337.667,169.5 337.5,168C 338.494,162.533 339.16,157.033 339.5,151.5C 340.5,151.5 341.5,151.5 342.5,151.5C 342.335,148.482 342.502,145.482 343,142.5C 345.021,140.291 346.188,137.624 346.5,134.5C 348.795,133.864 350.461,132.531 351.5,130.5C 354.306,129.832 356.972,129.166 359.5,128.5 Z"/></g>
<g><path style="opacity:1" fill="#eb1b23" d="M 360.5,253.5 C 358.983,253.511 357.816,254.177 357,255.5C 356.058,252.557 354.892,249.724 353.5,247C 354.685,245.647 356.019,244.48 357.5,243.5C 359.563,239.26 358.23,237.094 353.5,237C 352.333,235.833 351.167,234.667 350,233.5C 351.071,230.023 351.404,226.356 351,222.5C 349.543,220.342 347.71,218.509 345.5,217C 348.082,217.255 350.748,217.422 353.5,217.5C 353.665,214.15 353.498,210.817 353,207.5C 349.347,205.036 347.18,201.702 346.5,197.5C 347.873,197.343 349.207,197.51 350.5,198C 351.726,199.635 353.059,201.135 354.5,202.5C 355.854,199.933 355.52,197.599 353.5,195.5C 355.097,194.209 356.43,192.709 357.5,191C 357.355,190.228 357.022,189.561 356.5,189C 354.444,188.689 352.444,188.189 350.5,187.5C 349.453,186.078 349.453,184.578 350.5,183C 350.095,182.055 349.428,181.388 348.5,181C 352.12,179.942 355.787,179.442 359.5,179.5C 360.246,178.264 360.579,176.93 360.5,175.5C 361.5,175.5 362.5,175.5 363.5,175.5C 363.66,173.801 363.494,172.134 363,170.5C 361.246,165.749 359.246,161.082 357,156.5C 356.505,154.527 356.338,152.527 356.5,150.5C 357.675,150.719 358.675,150.386 359.5,149.5C 358.229,149.874 357.062,149.208 356,147.5C 355.333,146.833 355.333,146.167 356,145.5C 356.654,146.696 357.154,146.696 357.5,145.5C 355.789,143.76 354.956,141.76 355,139.5C 356.041,141.585 357.541,143.252 359.5,144.5C 360.187,141.66 360.521,138.993 360.5,136.5C 362.335,135.878 363.502,134.544 364,132.5C 366.479,135.683 369.146,136.016 372,133.5C 373.199,136.207 375.033,136.874 377.5,135.5C 378.167,137.167 378.833,138.833 379.5,140.5C 382.088,141.194 384.421,142.36 386.5,144C 385.663,145.011 385.33,146.178 385.5,147.5C 387.665,147.116 389.332,147.783 390.5,149.5C 387.32,158.537 384.654,167.703 382.5,177C 382.95,178.285 383.617,179.452 384.5,180.5C 380.87,182.455 378.87,185.455 378.5,189.5C 379.675,189.281 380.675,189.614 381.5,190.5C 378.321,193.825 376.488,197.825 376,202.5C 373.012,204.807 370.845,207.64 369.5,211C 372.259,213.413 372.092,215.58 369,217.5C 368.34,220.047 368.507,222.547 369.5,225C 366.886,227.78 364.886,230.947 363.5,234.5C 363.818,235.647 364.484,236.481 365.5,237C 362.803,242.217 361.136,247.717 360.5,253.5 Z"/></g>
<g><path style="opacity:1" fill="#b40e16" d="M 360.5,136.5 C 360.521,138.993 360.187,141.66 359.5,144.5C 357.541,143.252 356.041,141.585 355,139.5C 354.956,141.76 355.789,143.76 357.5,145.5C 357.154,146.696 356.654,146.696 356,145.5C 355.333,146.167 355.333,146.833 356,147.5C 357.062,149.208 358.229,149.874 359.5,149.5C 358.675,150.386 357.675,150.719 356.5,150.5C 356.338,152.527 356.505,154.527 357,156.5C 359.246,161.082 361.246,165.749 363,170.5C 363.494,172.134 363.66,173.801 363.5,175.5C 362.5,175.5 361.5,175.5 360.5,175.5C 360.579,176.93 360.246,178.264 359.5,179.5C 355.787,179.442 352.12,179.942 348.5,181C 349.428,181.388 350.095,182.055 350.5,183C 349.453,184.578 349.453,186.078 350.5,187.5C 352.444,188.189 354.444,188.689 356.5,189C 357.022,189.561 357.355,190.228 357.5,191C 356.43,192.709 355.097,194.209 353.5,195.5C 355.52,197.599 355.854,199.933 354.5,202.5C 353.059,201.135 351.726,199.635 350.5,198C 349.207,197.51 347.873,197.343 346.5,197.5C 347.18,201.702 349.347,205.036 353,207.5C 353.498,210.817 353.665,214.15 353.5,217.5C 350.748,217.422 348.082,217.255 345.5,217C 347.71,218.509 349.543,220.342 351,222.5C 351.404,226.356 351.071,230.023 350,233.5C 351.167,234.667 352.333,235.833 353.5,237C 358.23,237.094 359.563,239.26 357.5,243.5C 356.019,244.48 354.685,245.647 353.5,247C 354.892,249.724 356.058,252.557 357,255.5C 357.816,254.177 358.983,253.511 360.5,253.5C 361.329,255.933 360.829,258.267 359,260.5C 358.826,265.684 358.326,270.684 357.5,275.5C 355.785,275.598 353.951,275.598 352,275.5C 351.667,272.833 351.333,270.167 351,267.5C 350.167,266.667 349.333,265.833 348.5,265C 349.773,260.793 348.939,256.96 346,253.5C 345.72,249.527 344.886,245.694 343.5,242C 345.393,236.234 344.726,230.9 341.5,226C 343.215,225.223 344.215,223.89 344.5,222C 343.657,217.96 342.657,213.96 341.5,210C 342.456,208.635 343.122,207.135 343.5,205.5C 342.833,202.5 342.167,199.5 341.5,196.5C 342.442,193.863 343.442,191.196 344.5,188.5C 342.894,186.41 342.394,184.076 343,181.5C 346.953,178.411 347.12,174.911 343.5,171C 344.428,170.612 345.095,169.945 345.5,169C 344.833,167.333 344.167,165.667 343.5,164C 344.738,161.285 344.738,158.618 343.5,156C 344.416,155.626 345.25,155.126 346,154.5C 346.497,151.854 346.664,149.187 346.5,146.5C 347.5,146.5 348.5,146.5 349.5,146.5C 349.211,143.351 349.711,140.351 351,137.5C 351.333,137.833 351.667,138.167 352,138.5C 354.256,134.248 357.09,133.582 360.5,136.5 Z"/></g>
<g><path style="opacity:1" fill="#b30e15" d="M 373.5,188.5 C 376.076,188.722 376.91,190.055 376,192.5C 374.474,196.271 371.807,198.938 368,200.5C 366.513,198.728 366.18,196.728 367,194.5C 369.037,192.294 371.203,190.294 373.5,188.5 Z"/></g>
<g><path style="opacity:1" fill="#fefffe" d="M 357.5,275.5 C 358.091,276.151 358.757,276.818 359.5,277.5C 357.336,283.949 358.669,289.449 363.5,294C 362.851,296.977 361.517,297.311 359.5,295C 357.548,292.574 355.881,290.074 354.5,287.5C 354.034,283.018 355.034,279.018 357.5,275.5 Z"/></g>
<g><path style="opacity:1" fill="#fec90d" d="M 354.5,287.5 C 354.698,289.575 354.865,291.575 355,293.5C 352.5,296 350,298.5 347.5,301C 342.364,302.596 337.531,304.763 333,307.5C 332.689,305.444 332.189,303.444 331.5,301.5C 327.279,298.493 324.612,299.659 323.5,305C 324.625,306.963 325.959,308.796 327.5,310.5C 318.468,313.566 309.468,316.733 300.5,320C 295.307,321.968 289.974,322.634 284.5,322C 281.115,318.283 278.115,314.283 275.5,310C 280.833,309.667 286.167,309.333 291.5,309C 299.776,306.13 308.11,303.463 316.5,301C 326.52,295.633 336.52,290.3 346.5,285C 348.96,283.542 351.127,281.709 353,279.5C 353.183,282.365 353.683,285.031 354.5,287.5 Z"/></g>
<g><path style="opacity:1" fill="#ec1c23" d="M 359.5,279.5 C 360.966,280.347 361.8,281.68 362,283.5C 362.74,286.176 363.073,288.842 363,291.5C 360.052,288.087 358.885,284.087 359.5,279.5 Z"/></g>
<g><path style="opacity:1" fill="#373837" d="M 288.5,297.5 C 289.239,297.369 289.906,297.536 290.5,298C 287.581,299.754 285.581,302.254 284.5,305.5C 286.078,306.298 287.744,306.798 289.5,307C 285.5,307.667 281.5,307.667 277.5,307C 280.865,303.343 284.532,300.176 288.5,297.5 Z"/></g>
<g><path style="opacity:1" fill="#fec90d" d="M 362.5,297.5 C 363.186,302.857 364.519,308.191 366.5,313.5C 365.758,314.287 364.925,314.953 364,315.5C 363.902,313.381 363.069,311.714 361.5,310.5C 359.545,312.512 358.045,314.846 357,317.5C 355.405,313.354 355.072,309.02 356,304.5C 356.689,303.643 357.522,302.977 358.5,302.5C 359.768,303.428 361.101,303.595 362.5,303C 362.146,301.374 362.146,299.541 362.5,297.5 Z"/></g>
<g><path style="opacity:1" fill="#fec90d" d="M 327.5,302.5 C 328.75,302.577 329.583,303.244 330,304.5C 330.236,306.764 330.736,308.931 331.5,311C 331.167,311.167 330.833,311.333 330.5,311.5C 329.896,308.737 328.562,306.403 326.5,304.5C 326.863,303.817 327.196,303.15 327.5,302.5 Z"/></g>
<g><path style="opacity:1" fill="#fec90d" d="M 329.5,312.5 C 331.289,314.651 332.622,317.151 333.5,320C 331.527,320.495 329.527,320.662 327.5,320.5C 327.584,317.673 328.25,315.006 329.5,312.5 Z"/></g>
<g><path style="opacity:1" fill="#d4a500" d="M 332.5,313.5 C 333.289,313.783 333.956,314.283 334.5,315C 333.184,315.528 332.517,315.028 332.5,313.5 Z"/></g>
<g><path style="opacity:1" fill="#fec90d" d="M 336.5,317.5 C 336.56,316.957 336.893,316.624 337.5,316.5C 347.889,321.279 358.389,321.612 369,317.5C 370.947,318.044 371.78,319.377 371.5,321.5C 371.61,323.374 370.944,324.874 369.5,326C 363.239,328.577 356.906,328.911 350.5,327C 345.631,324.071 340.965,320.904 336.5,317.5 Z"/></g>
<g><path style="opacity:1" fill="#fec90d" d="M 325.5,321.5 C 338.495,322.575 338.828,325.575 326.5,330.5C 326.632,327.43 326.299,324.43 325.5,321.5 Z"/></g>
<g><path style="opacity:1" fill="#fec90d" d="M 323.5,324.5 C 324.693,324.97 325.36,325.97 325.5,327.5C 324.745,329.988 323.245,331.988 321,333.5C 318.218,340.9 314.051,347.4 308.5,353C 301.657,354.839 297.157,352.339 295,345.5C 294.841,340.462 296.007,340.295 298.5,345C 300.971,345.706 303.305,345.373 305.5,344C 312.046,337.956 318.046,331.456 323.5,324.5 Z"/></g>
<g><path style="opacity:1" fill="#fec90d" d="M 367.5,328.5 C 368.404,329.209 368.737,330.209 368.5,331.5C 362.07,333.585 356.07,336.585 350.5,340.5C 349.03,337.411 349.697,334.911 352.5,333C 357.506,331.18 362.506,329.68 367.5,328.5 Z"/></g>
<g><path style="opacity:1" fill="#fec90d" d="M 325.5,332.5 C 327.39,332.297 328.89,332.963 330,334.5C 331.7,337.467 332.867,340.633 333.5,344C 331.287,349.871 327.454,354.038 322,356.5C 320.829,352.987 319.662,349.487 318.5,346C 319.4,340.699 321.733,336.199 325.5,332.5 Z"/></g>
<g><path style="opacity:1" fill="#896b00" d="M 332.5,332.5 C 340.346,336.166 342.512,341.833 339,349.5C 336,351.833 333,354.167 330,356.5C 332.161,352.61 333.995,348.444 335.5,344C 335.03,339.951 334.03,336.118 332.5,332.5 Z"/></g>
<g><path style="opacity:1" fill="#fec90d" d="M 341.5,332.5 C 348.637,333.595 349.47,336.928 344,342.5C 343.152,339.302 341.652,336.469 339.5,334C 340.416,333.722 341.082,333.222 341.5,332.5 Z"/></g>
<g><path style="opacity:1" fill="#323130" d="M 380.5,340.5 C 377.092,341.901 373.592,343.235 370,344.5C 366.346,343.938 362.846,343.271 359.5,342.5C 362.764,339.417 366.264,336.417 370,333.5C 374.468,334.658 378.635,336.491 382.5,339C 381.956,339.717 381.289,340.217 380.5,340.5 Z"/></g>
<g><path style="opacity:1" fill="#fec90d" d="M 380.5,340.5 C 378.522,343.012 375.855,344.512 372.5,345C 368.167,345.667 363.833,345.667 359.5,345C 354.407,343.445 354.407,342.612 359.5,342.5C 362.846,343.271 366.346,343.938 370,344.5C 373.592,343.235 377.092,341.901 380.5,340.5 Z"/></g>
<g><path style="opacity:1" fill="#51070b" d="M 320.5,362.5 C 318.756,364.862 316.923,367.195 315,369.5C 313.293,371.909 312.46,374.575 312.5,377.5C 311.356,375.9 310.189,374.233 309,372.5C 308.888,367.24 308.721,362.073 308.5,357C 311.372,354.463 313.872,351.63 316,348.5C 318.409,352.892 319.909,357.558 320.5,362.5 Z"/></g>
<g><path style="opacity:1" fill="#f9a480" d="M 378.5,360.5 C 377.399,359.402 376.066,359.235 374.5,360C 373.829,360.986 373.829,362.153 374.5,363.5C 371.594,365.915 370.927,368.915 372.5,372.5C 373.522,372.145 374.189,371.478 374.5,370.5C 376.484,370.484 377.484,371.484 377.5,373.5C 376.304,377.412 374.971,381.245 373.5,385C 370.442,385.458 367.442,385.124 364.5,384C 363.221,381.502 363.221,379.002 364.5,376.5C 367.204,373.649 366.537,371.316 362.5,369.5C 360.185,363.56 358.185,357.56 356.5,351.5C 360.179,351.637 363.679,350.971 367,349.5C 367.308,350.308 367.808,350.975 368.5,351.5C 369.249,349.988 370.416,348.988 372,348.5C 374.774,352.278 377.941,355.778 381.5,359C 380.756,360.039 379.756,360.539 378.5,360.5 Z"/></g>
<g><path style="opacity:1" fill="#f9a884" d="M 338.5,352.5 C 340.306,354.089 341.639,356.089 342.5,358.5C 341.675,359.386 340.675,359.719 339.5,359.5C 339.5,360.5 339.5,361.5 339.5,362.5C 340.93,362.579 342.264,362.246 343.5,361.5C 347.778,364.005 348.278,367.005 345,370.5C 341.675,369.007 339.175,366.673 337.5,363.5C 338.426,359.906 338.759,356.24 338.5,352.5 Z"/></g>
<g><path style="opacity:1" fill="#fec90d" d="M 335.5,355.5 C 335.955,358.985 336.121,362.652 336,366.5C 338.077,368.076 339.577,370.076 340.5,372.5C 329.345,377.019 327.011,374.352 333.5,364.5C 334.064,361.435 334.731,358.435 335.5,355.5 Z"/></g>
<g><path style="opacity:1" fill="#51070b" d="M 324.5,357.5 C 327.254,357.784 329.92,358.451 332.5,359.5C 329.998,363.859 328.164,368.526 327,373.5C 323.553,368.591 322.719,363.258 324.5,357.5 Z"/></g>
<g><path style="opacity:1" fill="#e3b314" d="M 358.5,377.5 C 355.836,374.721 353.169,371.221 350.5,367C 351.167,366.667 351.833,366.333 352.5,366C 350.709,365.585 349.376,364.585 348.5,363C 349.167,362.667 349.833,362.333 350.5,362C 344.249,359.822 344.249,358.489 350.5,358C 348.423,357.808 346.423,357.308 344.5,356.5C 343.359,355.575 343.359,354.741 344.5,354C 342.82,353.653 341.82,352.653 341.5,351C 341.869,346.751 344.035,343.918 348,342.5C 350.335,345.166 352.169,348.166 353.5,351.5C 353.167,352.167 352.833,352.833 352.5,353.5C 352.846,354.696 353.346,354.696 354,353.5C 354.309,354.766 354.809,355.933 355.5,357C 355.167,357.333 354.833,357.667 354.5,358C 356.032,358.7 357.032,359.866 357.5,361.5C 357.377,363.378 357.377,365.211 357.5,367C 359.689,367.677 360.022,368.844 358.5,370.5C 360.413,372.605 360.413,374.938 358.5,377.5 Z"/></g>
<g><path style="opacity:1" fill="#fec90d" d="M 320.5,362.5 C 321.268,361.737 321.768,360.737 322,359.5C 322.814,361.902 322.647,364.235 321.5,366.5C 320.571,365.311 320.238,363.978 320.5,362.5 Z"/></g>
<g><path style="opacity:1" fill="#000000" d="M 378.5,360.5 C 377.5,360.5 376.5,360.5 375.5,360.5C 375.737,361.791 375.404,362.791 374.5,363.5C 373.829,362.153 373.829,360.986 374.5,360C 376.066,359.235 377.399,359.402 378.5,360.5 Z"/></g>
<g><path style="opacity:1" fill="#6c0b12" d="M 378.5,360.5 C 378.539,361.583 378.873,362.583 379.5,363.5C 378.069,366.039 376.403,368.372 374.5,370.5C 374.189,371.478 373.522,372.145 372.5,372.5C 370.927,368.915 371.594,365.915 374.5,363.5C 375.404,362.791 375.737,361.791 375.5,360.5C 376.5,360.5 377.5,360.5 378.5,360.5 Z"/></g>
<g><path style="opacity:1" fill="#fec90d" d="M 318.5,366.5 C 319.766,367.09 321.099,367.59 322.5,368C 320.537,368.844 319.204,368.344 318.5,366.5 Z"/></g>
<g><path style="opacity:1" fill="#f17d4c" d="M 353.5,390.5 C 351.516,390.383 349.85,391.05 348.5,392.5C 339.427,389.644 331.761,385.477 325.5,380C 326.893,378.829 327.727,377.329 328,375.5C 333.11,376.975 338.11,376.642 343,374.5C 343.483,373.552 343.649,372.552 343.5,371.5C 345.592,371.439 347.092,370.439 348,368.5C 352.01,373.019 354.843,378.186 356.5,384C 353.774,384.182 351.107,384.682 348.5,385.5C 346.861,386.916 346.027,388.583 346,390.5C 347.71,388.62 349.543,386.954 351.5,385.5C 353.5,386 355.5,386.5 357.5,387C 355.676,387.66 354.343,388.827 353.5,390.5 Z"/></g>
<g><path style="opacity:1" fill="#51070b" d="M 362.5,369.5 C 366.537,371.316 367.204,373.649 364.5,376.5C 362.656,374.721 361.99,372.388 362.5,369.5 Z"/></g>
<g><path style="opacity:1" fill="#fec90d" d="M 317.5,370.5 C 322.697,370.465 325.03,372.798 324.5,377.5C 316.587,380.092 314.253,377.759 317.5,370.5 Z"/></g>
<g><path style="opacity:1" fill="#29319c" d="M 312.5,377.5 C 314.796,379.401 316.629,381.734 318,384.5C 318.671,385.252 319.504,385.586 320.5,385.5C 327.561,389.857 335.228,392.857 343.5,394.5C 344.287,396.104 345.62,396.771 347.5,396.5C 347.666,401.511 347.499,406.511 347,411.5C 345.333,412.5 343.667,413.5 342,414.5C 336.39,413.304 332.557,410.137 330.5,405C 328.559,404.257 326.726,404.424 325,405.5C 322.167,402.667 319.333,399.833 316.5,397C 313.571,396.223 310.737,396.39 308,397.5C 309.906,393.014 311.739,388.347 313.5,383.5C 312.844,381.547 312.511,379.547 312.5,377.5 Z"/></g>
<g><path style="opacity:1" fill="#fec90d" d="M 358.5,377.5 C 359.833,377.5 360.5,378.167 360.5,379.5C 359.5,379.833 358.833,380.5 358.5,381.5C 357.314,380.295 357.314,378.961 358.5,377.5 Z"/></g>
<g><path style="opacity:1" fill="#000000" d="M 360.5,379.5 C 360.5,380.833 359.833,381.5 358.5,381.5C 358.833,380.5 359.5,379.833 360.5,379.5 Z"/></g>
<g><path style="opacity:1" fill="#fec90d" d="M 360.5,379.5 C 361.404,380.209 361.737,381.209 361.5,382.5C 360.209,382.737 359.209,382.404 358.5,381.5C 359.833,381.5 360.5,380.833 360.5,379.5 Z"/></g>
<g><path style="opacity:1" fill="#fec90d" d="M 375.5,391.5 C 376.496,391.586 377.329,391.252 378,390.5C 379.092,387.956 379.759,385.289 380,382.5C 383.425,379.533 385.591,380.366 386.5,385C 384.669,390.996 380.669,394.829 374.5,396.5C 373.5,396.167 372.833,395.5 372.5,394.5C 373.77,393.712 374.77,392.712 375.5,391.5 Z"/></g>
<g><path style="opacity:1" fill="#dd1d22" d="M 353.5,390.5 C 356.958,389.265 359.958,387.265 362.5,384.5C 363.308,384.808 363.975,385.308 364.5,386C 363.238,388.276 361.571,390.109 359.5,391.5C 354.075,393.62 352.075,397.62 353.5,403.5C 353.833,406.167 354.167,408.833 354.5,411.5C 356.332,410.752 357.999,409.752 359.5,408.5C 360.282,410.329 359.616,411.829 357.5,413C 354.647,414.534 351.814,416.034 349,417.5C 347.184,416.671 345.351,415.837 343.5,415C 345.081,414.293 346.581,413.46 348,412.5C 348.499,406.843 348.666,401.176 348.5,395.5C 346.784,395.371 345.117,395.038 343.5,394.5C 335.987,391.325 328.32,388.325 320.5,385.5C 319.859,384.518 319.193,383.518 318.5,382.5C 319.167,382.167 319.833,381.833 320.5,381.5C 329.044,385.605 337.711,389.439 346.5,393C 349.478,393.833 351.811,393 353.5,390.5 Z"/></g>
<g><path style="opacity:1" fill="#fec90d" d="M 375.5,391.5 C 373.255,392.635 370.922,393.135 368.5,393C 367.237,391.295 366.903,389.628 367.5,388C 366.906,387.536 366.239,387.369 365.5,387.5C 365.369,386.761 365.536,386.094 366,385.5C 369.094,386.599 372.26,387.099 375.5,387C 376.893,385.829 377.727,384.329 378,382.5C 378.869,385.993 378.036,388.993 375.5,391.5 Z"/></g>
<g><path style="opacity:1" fill="#fec90d" d="M 391.5,400.5 C 390.329,401.345 388.995,402.011 387.5,402.5C 388.935,403.985 388.768,405.318 387,406.5C 384.14,403.64 381.306,400.806 378.5,398C 381.266,396.533 383.766,394.7 386,392.5C 387.304,389.213 388.97,386.213 391,383.5C 392.225,383.862 393.391,384.362 394.5,385C 394.167,385.333 393.833,385.667 393.5,386C 395.019,387.351 396.352,388.851 397.5,390.5C 397.167,390.833 396.833,391.167 396.5,391.5C 394.76,389.789 392.76,388.956 390.5,389C 393.001,390.673 395.334,392.507 397.5,394.5C 397.192,395.308 396.692,395.975 396,396.5C 393.622,394.137 391.122,392.804 388.5,392.5C 390.359,394.192 392.359,395.692 394.5,397C 393.773,398.399 393.273,399.899 393,401.5C 392.617,400.944 392.117,400.611 391.5,400.5 Z"/></g>
<g><path style="opacity:1" fill="#000000" d="M 320.5,385.5 C 328.32,388.325 335.987,391.325 343.5,394.5C 335.228,392.857 327.561,389.857 320.5,385.5 Z"/></g>
<g><path style="opacity:1" fill="#29319c" d="M 365.5,387.5 C 365.665,389.827 366.331,391.993 367.5,394C 366.078,398.249 364.078,402.249 361.5,406C 359.336,406.914 357.336,408.081 355.5,409.5C 354.339,405.205 354.172,400.871 355,396.5C 356.758,394.917 358.258,393.25 359.5,391.5C 362.237,391.141 364.237,389.807 365.5,387.5 Z"/></g>
<g><path style="opacity:1" fill="#fefffe" d="M 557.5,396.5 C 553.187,396.548 549.187,397.715 545.5,400C 544.065,402.267 544.398,404.267 546.5,406C 548.833,407.167 551.167,408.333 553.5,409.5C 554.386,410.325 554.719,411.325 554.5,412.5C 545.5,411.833 536.5,411.167 527.5,410.5C 526.222,408.201 524.889,405.868 523.5,403.5C 525.258,399.646 527.258,395.979 529.5,392.5C 542.613,389.24 555.947,387.74 569.5,388C 570.833,388.667 570.833,389.333 569.5,390C 565.308,392.075 561.308,394.242 557.5,396.5 Z"/></g>
<g><path style="opacity:1" fill="#ec1c23" d="M 521.5,389.5 C 522.552,389.351 523.552,389.517 524.5,390C 518.746,397.985 516.413,406.819 517.5,416.5C 510.886,417.707 504.219,418.374 497.5,418.5C 497.964,409.242 500.964,400.909 506.5,393.5C 511.497,391.669 516.497,390.336 521.5,389.5 Z"/></g>
<g><path style="opacity:1" fill="#605313" d="M 529.5,392.5 C 527.258,395.979 525.258,399.646 523.5,403.5C 524.889,405.868 526.222,408.201 527.5,410.5C 526.833,410.833 526.167,411.167 525.5,411.5C 523.277,409.559 521.944,407.059 521.5,404C 523.068,400.595 524.402,397.095 525.5,393.5C 526.531,392.751 527.698,392.085 529,391.5C 529.399,391.728 529.565,392.062 529.5,392.5 Z"/></g>
<g><path style="opacity:1" fill="#29319c" d="M 394.5,473.5 C 391.366,465.898 387.699,458.565 383.5,451.5C 381.752,435.902 380.752,420.236 380.5,404.5C 382.292,406.461 384.458,407.795 387,408.5C 390.003,408.257 391.17,406.59 390.5,403.5C 392.167,403.5 393.833,403.5 395.5,403.5C 395.5,401.833 395.5,400.167 395.5,398.5C 396.552,398.649 397.552,398.483 398.5,398C 399.05,396.155 400.05,394.655 401.5,393.5C 404.329,394.747 406.995,396.247 409.5,398C 412.433,398.893 415.433,399.393 418.5,399.5C 446.874,396.855 475.207,394.688 503.5,393C 497.738,400.457 495.071,408.957 495.5,418.5C 487.467,419.339 479.467,420.505 471.5,422C 452.971,426.966 434.304,431.299 415.5,435C 407.707,436.257 400.874,439.423 395,444.5C 391.836,454.125 391.67,463.791 394.5,473.5 Z"/></g>
<g><path style="opacity:1" fill="#67090d" d="M 525.5,393.5 C 524.402,397.095 523.068,400.595 521.5,404C 521.944,407.059 523.277,409.559 525.5,411.5C 523.979,417.861 521.646,418.028 518.5,412C 519.461,408.197 520.294,404.364 521,400.5C 522.026,397.761 523.526,395.428 525.5,393.5 Z"/></g>
<g><path style="opacity:1" fill="#282d8c" d="M 378.5,403.5 C 378.928,415.833 379.428,428.167 380,440.5C 380.614,444.475 381.781,448.141 383.5,451.5C 385.979,458.468 388.479,465.468 391,472.5C 392.189,474.233 393.356,475.9 394.5,477.5C 395.703,483.313 397.369,488.98 399.5,494.5C 399.097,499.306 397.097,503.306 393.5,506.5C 393.104,503.279 391.771,500.612 389.5,498.5C 388.596,497.791 388.263,496.791 388.5,495.5C 388.116,491.728 386.45,488.728 383.5,486.5C 382.244,482.313 380.244,478.646 377.5,475.5C 376.243,472.573 374.243,470.239 371.5,468.5C 371.573,466.973 370.906,465.973 369.5,465.5C 368.986,463.634 368.32,461.8 367.5,460C 369.948,452.749 372.448,445.582 375,438.5C 376,427.176 376.333,415.843 376,404.5C 373.619,403.565 371.119,403.232 368.5,403.5C 368.214,401.723 367.547,400.056 366.5,398.5C 366.703,396.792 367.536,395.459 369,394.5C 371.5,396.333 374,398.167 376.5,400C 377.823,400.816 378.489,401.983 378.5,403.5 Z"/></g>
<g><path style="opacity:1" fill="#000000" d="M 389.5,398.5 C 388.373,397.878 387.373,397.045 386.5,396C 388.489,395.481 389.489,396.314 389.5,398.5 Z"/></g>
<g><path style="opacity:1" fill="#fefffe" d="M 557.5,396.5 C 561.954,396.612 564.621,398.945 565.5,403.5C 564.573,405.946 562.906,406.779 560.5,406C 561.811,403.726 561.811,401.56 560.5,399.5C 561.188,404.136 559.355,407.136 555,408.5C 554.5,408.167 554,407.833 553.5,407.5C 554.193,406.482 554.859,405.482 555.5,404.5C 559.149,403.51 559.482,401.677 556.5,399C 555.552,398.517 554.552,398.351 553.5,398.5C 554.833,397.833 556.167,397.167 557.5,396.5 Z"/></g>
<g><path style="opacity:1" fill="#000000" d="M 560.5,399.5 C 559.711,399.217 559.044,398.717 558.5,398C 559.816,397.472 560.483,397.972 560.5,399.5 Z"/></g>
<g><path style="opacity:1" fill="#fefffe" d="M 564.5,397.5 C 568.18,398.963 569.013,401.297 567,404.5C 566.153,402.146 565.32,399.812 564.5,397.5 Z"/></g>
<g><path style="opacity:1" fill="#fec90d" d="M 310.5,398.5 C 311.873,398.343 313.207,398.51 314.5,399C 317.167,401.667 319.833,404.333 322.5,407C 319.237,409.216 315.737,411.049 312,412.5C 309.5,408.667 306.333,405.5 302.5,403C 305.099,401.205 307.766,399.705 310.5,398.5 Z"/></g>
<g><path style="opacity:1" fill="#000000" d="M 387.5,402.5 C 385.456,401.969 383.789,400.802 382.5,399C 384.772,399.077 386.438,400.243 387.5,402.5 Z"/></g>
<g><path style="opacity:1" fill="#000000" d="M 389.5,398.5 C 390.833,398.5 391.5,399.167 391.5,400.5C 390.5,400.167 389.833,399.5 389.5,398.5 Z"/></g>
<g><path style="opacity:1" fill="#fefffe" d="M 553.5,398.5 C 556.364,399.758 557.03,401.758 555.5,404.5C 551.546,407.412 548.213,406.746 545.5,402.5C 547.607,400.113 550.273,398.78 553.5,398.5 Z"/></g>
<g><path style="opacity:1" fill="#000000" d="M 553.5,398.5 C 554.552,398.351 555.552,398.517 556.5,399C 559.482,401.677 559.149,403.51 555.5,404.5C 557.03,401.758 556.364,399.758 553.5,398.5 Z"/></g>
<g><path style="opacity:1" fill="#fec90d" d="M 278.5,406.5 C 281.491,402.437 284.157,402.604 286.5,407C 285.5,407.5 284.5,408 283.5,408.5C 281.925,407.544 280.258,406.877 278.5,406.5 Z"/></g>
<g><path style="opacity:1" fill="#fec90d" d="M 365.5,403.5 C 370.224,411.337 370.39,419.337 366,427.5C 363.03,429.401 359.864,430.901 356.5,432C 351.398,431.811 346.398,430.811 341.5,429C 336.799,424.634 332.466,419.967 328.5,415C 329.931,414.535 331.097,413.701 332,412.5C 338.045,416.285 344.545,418.452 351.5,419C 359.535,416.802 364.201,411.635 365.5,403.5 Z"/></g>
<g><path style="opacity:1" fill="#ec1c23" d="M 378.5,403.5 C 379.167,403.833 379.833,404.167 380.5,404.5C 380.752,420.236 381.752,435.902 383.5,451.5C 381.781,448.141 380.614,444.475 380,440.5C 379.428,428.167 378.928,415.833 378.5,403.5 Z"/></g>
<g><path style="opacity:1" fill="#fec90d" d="M 286.5,405.5 C 286.56,404.957 286.893,404.624 287.5,404.5C 289.444,405.189 291.444,405.689 293.5,406C 291.037,407.97 288.703,407.804 286.5,405.5 Z"/></g>
<g><path style="opacity:1" fill="#fec90d" d="M 297.5,405.5 C 299.199,405.34 300.866,405.506 302.5,406C 304.833,408.333 307.167,410.667 309.5,413C 308.069,413.465 306.903,414.299 306,415.5C 302.926,412.714 299.759,410.048 296.5,407.5C 296.863,406.817 297.196,406.15 297.5,405.5 Z"/></g>
<g><path style="opacity:1" fill="#9c6241" d="M 369.5,405.5 C 371.144,405.286 372.644,405.62 374,406.5C 374.216,416.838 373.882,427.172 373,437.5C 369.619,447.931 365.952,458.264 362,468.5C 345.25,495.669 328.25,522.669 311,549.5C 309.961,547.254 308.794,545.087 307.5,543C 324.877,517.746 342.377,492.579 360,467.5C 363.333,458.167 366.667,448.833 370,439.5C 372.056,428.093 371.89,416.759 369.5,405.5 Z"/></g>
<g><path style="opacity:1" fill="#fbc60f" d="M 278.5,406.5 C 279.315,407.837 280.482,408.837 282,409.5C 282.483,410.448 282.649,411.448 282.5,412.5C 283.308,414.22 284.308,415.887 285.5,417.5C 287.508,418.301 288.008,419.634 287,421.5C 287.667,420.833 288.333,420.167 289,419.5C 289.826,427.473 290.326,427.473 290.5,419.5C 293.346,419.809 294.846,421.475 295,424.5C 294.379,418.27 296.046,417.936 300,423.5C 300.333,421.953 299.833,420.62 298.5,419.5C 298.855,418.478 299.522,417.811 300.5,417.5C 300.783,416.711 301.283,416.044 302,415.5C 304.784,417.779 305.118,420.446 303,423.5C 296.497,427.826 289.664,428.326 282.5,425C 276.665,422.206 273.831,417.706 274,411.5C 274.996,409.34 276.496,407.673 278.5,406.5 Z"/></g>
<g><path style="opacity:1" fill="#fec90d" d="M 327.5,406.5 C 329.377,407.659 329.877,409.326 329,411.5C 325.359,413.367 323.692,412.367 324,408.5C 325.302,407.915 326.469,407.249 327.5,406.5 Z"/></g>
<g><path style="opacity:1" fill="#fec90d" d="M 286.5,409.5 C 291.982,408.595 296.649,410.095 300.5,414C 295.443,418.824 290.609,418.657 286,413.5C 285.421,412.072 285.588,410.738 286.5,409.5 Z"/></g>
<g><path style="opacity:1" fill="#000000" d="M 282.5,412.5 C 280.228,413.764 277.895,413.598 275.5,412C 277.797,411.982 280.131,412.149 282.5,412.5 Z"/></g>
<g><path style="opacity:1" fill="#282f91" d="M 359.5,439.5 C 360.486,443.97 360.819,448.637 360.5,453.5C 360.733,458.034 359.9,462.368 358,466.5C 347.233,481.717 336.733,497.051 326.5,512.5C 322.867,510.557 319.201,508.557 315.5,506.5C 314.304,505.441 313.637,504.107 313.5,502.5C 320.967,490.565 327.133,477.898 332,464.5C 336.054,445.988 329.721,432.321 313,423.5C 312.637,420.456 312.137,417.456 311.5,414.5C 314.686,414.105 317.686,413.105 320.5,411.5C 326.586,417.433 332.586,423.599 338.5,430C 344.836,432.967 351.503,434.467 358.5,434.5C 358.216,436.415 358.549,438.081 359.5,439.5 Z"/></g>
<g><path style="opacity:1" fill="#ec1c23" d="M 311.5,414.5 C 312.137,417.456 312.637,420.456 313,423.5C 329.721,432.321 336.054,445.988 332,464.5C 327.133,477.898 320.967,490.565 313.5,502.5C 313.637,504.107 314.304,505.441 315.5,506.5C 319.201,508.557 322.867,510.557 326.5,512.5C 326.167,513.5 325.5,514.167 324.5,514.5C 319.387,511.549 314.721,508.049 310.5,504C 314.947,494.573 319.781,485.407 325,476.5C 326.667,471.167 328.333,465.833 330,460.5C 331.226,444.953 325.059,433.286 311.5,425.5C 310.751,422.473 310.084,419.473 309.5,416.5C 309.833,415.5 310.5,414.833 311.5,414.5 Z"/></g>
<g><path style="opacity:1" fill="#000000" d="M 283.5,417.5 C 281.425,417.698 279.425,417.865 277.5,418C 279.483,416.293 281.483,416.126 283.5,417.5 Z"/></g>
<g><path style="opacity:1" fill="#28319a" d="M 309.5,416.5 C 310.084,419.473 310.751,422.473 311.5,425.5C 325.059,433.286 331.226,444.953 330,460.5C 328.333,465.833 326.667,471.167 325,476.5C 319.781,485.407 314.947,494.573 310.5,504C 314.721,508.049 319.387,511.549 324.5,514.5C 318.343,523.471 312.177,532.471 306,541.5C 305.107,540.919 304.107,540.585 303,540.5C 299.188,541.146 295.354,541.646 291.5,542C 289.376,543.122 287.543,544.622 286,546.5C 285.636,532.063 286.97,517.729 290,503.5C 290.667,500.833 290.667,498.167 290,495.5C 286.813,488.281 283.813,480.948 281,473.5C 278.79,472.251 276.624,472.418 274.5,474C 267.058,479.474 259.891,485.308 253,491.5C 251.414,493.67 250.08,496.004 249,498.5C 244.5,521.519 240.334,544.519 236.5,567.5C 231.767,567.223 227.1,567.557 222.5,568.5C 218.64,575.656 216.474,583.322 216,591.5C 211.687,589.786 207.52,587.786 203.5,585.5C 204.098,584.205 204.598,582.872 205,581.5C 205.383,582.056 205.883,582.389 206.5,582.5C 209.852,584.329 212.519,583.662 214.5,580.5C 212.235,576.933 209.568,576.6 206.5,579.5C 205.953,575.022 205.953,570.355 206.5,565.5C 207.1,561.594 208.433,557.927 210.5,554.5C 210.263,555.791 210.596,556.791 211.5,557.5C 214.324,559.168 216.657,558.668 218.5,556C 218.355,555.228 218.022,554.561 217.5,554C 215.866,553.506 214.199,553.34 212.5,553.5C 212.167,553.5 211.833,553.5 211.5,553.5C 211.833,551.5 212.167,549.5 212.5,547.5C 217.261,548.82 221.928,549.987 226.5,551C 223.833,549.333 221.167,547.667 218.5,546C 216.098,545.186 213.765,545.353 211.5,546.5C 207.706,551.881 205.706,557.881 205.5,564.5C 204.167,564.5 202.833,564.5 201.5,564.5C 203.227,555.819 206.06,547.486 210,539.5C 211.574,531.238 212.574,522.905 213,514.5C 216.127,503.661 218.46,492.661 220,481.5C 223.425,477.081 226.425,472.415 229,467.5C 239.685,454.817 251.019,442.817 263,431.5C 264.272,425.951 267.272,421.618 272,418.5C 276.32,425.913 282.82,429.579 291.5,429.5C 295.633,429.201 299.633,428.368 303.5,427C 305.438,424.53 306.604,421.696 307,418.5C 307.708,417.619 308.542,416.953 309.5,416.5 Z"/></g>
<g><path style="opacity:1" fill="#fec90d" d="M 315.5,416.5 C 319.161,416.35 320.161,417.85 318.5,421C 314.707,421.487 313.707,419.987 315.5,416.5 Z"/></g>
<g><path style="opacity:1" fill="#000000" d="M 283.5,417.5 C 284.167,417.5 284.833,417.5 285.5,417.5C 284.542,418.962 283.376,420.295 282,421.5C 281.7,419.934 282.2,418.601 283.5,417.5 Z"/></g>
<g><path style="opacity:1" fill="#000000" d="M 300.5,417.5 C 301.848,418.527 302.348,419.86 302,421.5C 300.812,420.437 300.312,419.103 300.5,417.5 Z"/></g>
<g><path style="opacity:1" fill="#29319c" d="M 360.5,453.5 C 360.819,448.637 360.486,443.97 359.5,439.5C 359.201,437.396 359.534,435.396 360.5,433.5C 363.43,432.453 365.93,430.787 368,428.5C 368.167,430.167 368.333,431.833 368.5,433.5C 367.217,441.074 365.05,448.408 362,455.5C 361.722,454.584 361.222,453.918 360.5,453.5 Z"/></g>
<g><path style="opacity:1" fill="#3f47cc" d="M 300.5,430.5 C 302.494,431.937 304.661,433.27 307,434.5C 308,433.167 309,431.833 310,430.5C 312.557,433.192 315.391,435.525 318.5,437.5C 319.553,438.438 320.22,439.605 320.5,441C 320.15,442.257 319.483,442.591 318.5,442C 315.98,440.237 313.647,438.237 311.5,436C 309.365,435.365 307.365,435.699 305.5,437C 304.359,437.741 304.359,438.575 305.5,439.5C 302.045,442.74 299.878,446.74 299,451.5C 294.246,455 290.413,459.334 287.5,464.5C 286.386,463.277 286.219,461.944 287,460.5C 291.812,455.874 294.145,450.207 294,443.5C 296.184,440.598 298.184,437.598 300,434.5C 300.49,433.207 300.657,431.873 300.5,430.5 Z"/></g>
<g><path style="opacity:1" fill="#fec90d" d="M 333.5,432.5 C 337.161,432.35 338.161,433.85 336.5,437C 332.707,437.487 331.707,435.987 333.5,432.5 Z"/></g>
<g><path style="opacity:1" fill="#fec90d" d="M 374.5,446.5 C 378.161,446.35 379.161,447.85 377.5,451C 373.707,451.487 372.707,449.987 374.5,446.5 Z"/></g>
<g><path style="opacity:1" fill="#fec90d" d="M 337.5,447.5 C 341.161,447.35 342.161,448.85 340.5,452C 336.707,452.487 335.707,450.987 337.5,447.5 Z"/></g>
<g><path style="opacity:1" fill="#ec1c23" d="M 383.5,451.5 C 387.699,458.565 391.366,465.898 394.5,473.5C 394.5,474.833 394.5,476.167 394.5,477.5C 393.356,475.9 392.189,474.233 391,472.5C 388.479,465.468 385.979,458.468 383.5,451.5 Z"/></g>
<g><path style="opacity:1" fill="#fec90d" d="M 377.5,458.5 C 381.161,458.35 382.161,459.85 380.5,463C 376.707,463.487 375.707,461.987 377.5,458.5 Z"/></g>
<g><path style="opacity:1" fill="#fec90d" d="M 337.5,462.5 C 341.161,462.35 342.161,463.85 340.5,467C 336.707,467.487 335.707,465.987 337.5,462.5 Z"/></g>
<g><path style="opacity:1" fill="#29319a" d="M 369.5,465.5 C 369.427,467.027 370.094,468.027 371.5,468.5C 372.757,471.427 374.757,473.761 377.5,475.5C 378.753,479.611 380.753,483.277 383.5,486.5C 384.917,489.669 386.583,492.669 388.5,495.5C 388.263,496.791 388.596,497.791 389.5,498.5C 390.279,501.545 391.613,504.211 393.5,506.5C 394.962,510.883 396.629,515.216 398.5,519.5C 396.222,521.223 393.722,522.556 391,523.5C 388.484,522.227 385.984,522.227 383.5,523.5C 382.818,522.757 382.151,522.091 381.5,521.5C 381.5,522.5 381.5,523.5 381.5,524.5C 385.037,522.981 388.37,523.314 391.5,525.5C 399.44,519.638 402.273,521.972 400,532.5C 397.667,536.833 395.333,541.167 393,545.5C 393.1,551.202 392.934,556.869 392.5,562.5C 393.224,567.848 394.057,573.181 395,578.5C 398.727,586.955 402.727,595.288 407,603.5C 413.064,625.43 417.064,647.763 419,670.5C 423.128,682.458 424.628,694.791 423.5,707.5C 419.913,706.244 416.246,705.744 412.5,706C 407.453,709.38 403.453,713.714 400.5,719C 397.233,720.82 393.9,720.986 390.5,719.5C 390.663,717.143 390.497,714.81 390,712.5C 386.389,705.271 384.055,697.604 383,689.5C 377.027,680.22 372.694,670.22 370,659.5C 367.507,653.843 364.507,648.51 361,643.5C 359.423,636.689 357.423,630.023 355,623.5C 352.408,622.018 350.075,622.352 348,624.5C 344.201,632.735 341.034,641.069 338.5,649.5C 336.673,651.132 334.839,652.799 333,654.5C 327.836,662.695 322.336,670.529 316.5,678C 311.03,678.851 305.697,678.351 300.5,676.5C 298.096,677.008 297.429,678.175 298.5,680C 304.585,679.813 308.585,682.479 310.5,688C 309.932,694.068 306.598,697.235 300.5,697.5C 298.063,697.402 296.063,696.402 294.5,694.5C 294.167,695 293.833,695.5 293.5,696C 294.998,700.265 297.998,702.931 302.5,704C 303.991,706.022 303.658,707.688 301.5,709C 297.916,710.073 294.25,710.74 290.5,711C 289.833,711.667 289.167,712.333 288.5,713C 291.473,714.31 293.807,716.31 295.5,719C 292.899,722.52 293.066,726.02 296,729.5C 297.751,730.174 299.417,730.507 301,730.5C 303.813,728.85 306.313,726.85 308.5,724.5C 306.109,721.886 303.275,719.886 300,718.5C 299.441,714.447 300.941,711.28 304.5,709C 309.82,708.193 314.987,707.027 320,705.5C 320.902,705.743 321.735,706.077 322.5,706.5C 322.804,707.15 323.137,707.817 323.5,708.5C 319.895,719.125 316.395,729.791 313,740.5C 312.414,736.668 310.414,734.001 307,732.5C 303.275,733.259 301.442,735.593 301.5,739.5C 299.61,739.703 298.11,739.037 297,737.5C 296.224,729.703 292.39,727.537 285.5,731C 282.37,733.128 279.537,735.628 277,738.5C 278.211,732.013 280.211,725.68 283,719.5C 286.613,698.544 289.946,677.544 293,656.5C 293.667,651.5 293.667,646.5 293,641.5C 291.283,636.397 289.283,631.397 287,626.5C 286.718,622.961 286.218,619.461 285.5,616C 287.637,609.921 289.971,603.921 292.5,598C 298.644,594.522 303.478,589.689 307,583.5C 307.361,580.475 307.861,577.475 308.5,574.5C 308.125,572.541 307.459,570.707 306.5,569C 307.931,568.535 309.097,567.701 310,566.5C 311.145,561.917 311.811,557.251 312,552.5C 316.031,546.634 319.864,540.634 323.5,534.5C 328.303,537.471 332.97,540.638 337.5,544C 340.309,545.741 343.309,546.908 346.5,547.5C 347.601,548.598 348.934,548.765 350.5,548C 356.034,544.908 361.368,541.741 366.5,538.5C 368.804,541.658 370.97,544.991 373,548.5C 376.023,546.302 378.856,543.969 381.5,541.5C 378.337,542.321 375.67,543.988 373.5,546.5C 370.402,541.291 367.068,536.291 363.5,531.5C 364.387,517.412 364.387,503.412 363.5,489.5C 361.119,479.955 362.285,470.955 367,462.5C 367.377,463.942 368.21,464.942 369.5,465.5 Z"/></g>
<g><path style="opacity:1" fill="#000000" d="M 369.5,465.5 C 370.906,465.973 371.573,466.973 371.5,468.5C 370.094,468.027 369.427,467.027 369.5,465.5 Z"/></g>
<g><path style="opacity:1" fill="#000000" d="M 371.5,468.5 C 374.243,470.239 376.243,472.573 377.5,475.5C 374.757,473.761 372.757,471.427 371.5,468.5 Z"/></g>
<g><path style="opacity:1" fill="#fec90d" d="M 382.5,468.5 C 386.161,468.35 387.161,469.85 385.5,473C 381.707,473.487 380.707,471.987 382.5,468.5 Z"/></g>
<g><path style="opacity:1" fill="#fec90d" d="M 333.5,472.5 C 337.161,472.35 338.161,473.85 336.5,477C 332.707,477.487 331.707,475.987 333.5,472.5 Z"/></g>
<g><path style="opacity:1" fill="#fec90d" d="M 368.5,473.5 C 370.484,473.484 371.484,474.484 371.5,476.5C 370.167,480.5 368.833,480.5 367.5,476.5C 367.685,475.416 368.018,474.416 368.5,473.5 Z"/></g>
<g><path style="opacity:1" fill="#29319c" d="M 363.5,489.5 C 363.748,502.548 363.081,515.548 361.5,528.5C 363.107,531.799 364.774,535.133 366.5,538.5C 359.59,541.129 352.923,544.129 346.5,547.5C 338.801,543.316 331.468,538.482 324.5,533C 325.732,530.025 327.566,527.525 330,525.5C 331.303,525.978 332.469,526.645 333.5,527.5C 333.288,525.616 332.288,524.283 330.5,523.5C 340.667,507.167 350.833,490.833 361,474.5C 361.437,479.706 362.27,484.706 363.5,489.5 Z"/></g>
<g><path style="opacity:1" fill="#000000" d="M 377.5,475.5 C 380.244,478.646 382.244,482.313 383.5,486.5C 380.753,483.277 378.753,479.611 377.5,475.5 Z"/></g>
<g><path style="opacity:1" fill="#fec90d" d="M 388.5,481.5 C 392.161,481.35 393.161,482.85 391.5,486C 387.707,486.487 386.707,484.987 388.5,481.5 Z"/></g>
<g><path style="opacity:1" fill="#3f47cc" d="M 224.5,485.5 C 227.256,487.447 229.922,489.614 232.5,492C 235.099,492.769 237.599,492.602 240,491.5C 240.167,491.833 240.333,492.167 240.5,492.5C 236.448,493.218 234.115,495.552 233.5,499.5C 236.554,498.679 239.554,498.679 242.5,499.5C 238.253,501.582 234.419,504.249 231,507.5C 227.884,507.331 224.717,506.498 221.5,505C 223.956,503.289 226.623,501.956 229.5,501C 230.081,500.107 230.415,499.107 230.5,498C 229.119,494.937 227.286,492.104 225,489.5C 224.51,488.207 224.343,486.873 224.5,485.5 Z"/></g>
<g><path style="opacity:1" fill="#fec90d" d="M 327.5,485.5 C 331.161,485.35 332.161,486.85 330.5,490C 326.707,490.487 325.707,488.987 327.5,485.5 Z"/></g>
<g><path style="opacity:1" fill="#fec90d" d="M 368.5,485.5 C 372.161,485.35 373.161,486.85 371.5,490C 367.707,490.487 366.707,488.987 368.5,485.5 Z"/></g>
<g><path style="opacity:1" fill="#000000" d="M 383.5,486.5 C 386.45,488.728 388.116,491.728 388.5,495.5C 386.583,492.669 384.917,489.669 383.5,486.5 Z"/></g>
<g><path style="opacity:1" fill="#000000" d="M 363.5,489.5 C 364.387,503.412 364.387,517.412 363.5,531.5C 367.068,536.291 370.402,541.291 373.5,546.5C 375.67,543.988 378.337,542.321 381.5,541.5C 378.856,543.969 376.023,546.302 373,548.5C 370.97,544.991 368.804,541.658 366.5,538.5C 364.774,535.133 363.107,531.799 361.5,528.5C 363.081,515.548 363.748,502.548 363.5,489.5 Z"/></g>
<g><path style="opacity:1" fill="#fec90d" d="M 392.5,491.5 C 396.161,491.35 397.161,492.85 395.5,496C 391.707,496.487 390.707,494.987 392.5,491.5 Z"/></g>
<g><path style="opacity:1" fill="#fec90d" d="M 367.5,495.5 C 371.161,495.35 372.161,496.85 370.5,500C 366.707,500.487 365.707,498.987 367.5,495.5 Z"/></g>
<g><path style="opacity:1" fill="#fec90d" d="M 320.5,497.5 C 324.161,497.35 325.161,498.85 323.5,502C 319.707,502.487 318.707,500.987 320.5,497.5 Z"/></g>
<g><path style="opacity:1" fill="#000000" d="M 389.5,498.5 C 391.771,500.612 393.104,503.279 393.5,506.5C 391.613,504.211 390.279,501.545 389.5,498.5 Z"/></g>
<g><path style="opacity:1" fill="#3f47cc" d="M 239.5,503.5 C 240.833,503.5 242.167,503.5 243.5,503.5C 242.078,512.193 239.578,520.527 236,528.5C 233.847,526.556 231.347,526.056 228.5,527C 224.868,529.63 221.535,532.63 218.5,536C 216.481,536.45 214.648,537.283 213,538.5C 212.333,537.833 212.333,537.167 213,536.5C 218.771,531.568 223.604,525.902 227.5,519.5C 227,518.119 226,517.453 224.5,517.5C 222.526,518.704 220.526,519.537 218.5,520C 225.4,514.255 232.4,508.755 239.5,503.5 Z"/></g>
<g><path style="opacity:1" fill="#fec90d" d="M 368.5,506.5 C 372.161,506.35 373.161,507.85 371.5,511C 367.707,511.487 366.707,509.987 368.5,506.5 Z"/></g>
<g><path style="opacity:1" fill="#fec90d" d="M 310.5,515.5 C 314.161,515.35 315.161,516.85 313.5,520C 309.707,520.487 308.707,518.987 310.5,515.5 Z"/></g>
<g><path style="opacity:1" fill="#000000" d="M 354.5,522.5 C 354.372,520.345 354.872,518.345 356,516.5C 356.405,518.775 355.905,520.775 354.5,522.5 Z"/></g>
<g><path style="opacity:1" fill="#000000" d="M 381.5,521.5 C 379.584,520.335 378.751,518.668 379,516.5C 380.372,517.91 381.205,519.577 381.5,521.5 Z"/></g>
<g><path style="opacity:1" fill="#fec90d" d="M 367.5,517.5 C 371.161,517.35 372.161,518.85 370.5,522C 366.707,522.487 365.707,520.987 367.5,517.5 Z"/></g>
<g><path style="opacity:1" fill="#000000" d="M 354.5,522.5 C 354.843,524.483 354.176,525.817 352.5,526.5C 352.989,525.005 353.655,523.671 354.5,522.5 Z"/></g>
<g><path style="opacity:1" fill="#fec90d" d="M 304.5,525.5 C 308.161,525.35 309.161,526.85 307.5,530C 303.707,530.487 302.707,528.987 304.5,525.5 Z"/></g>
<g><path style="opacity:1" fill="#000000" d="M 352.5,526.5 C 348.688,527.324 344.688,527.824 340.5,528C 338.579,528.36 336.912,529.194 335.5,530.5C 334.081,529.995 333.415,528.995 333.5,527.5C 335.452,528.408 337.452,528.241 339.5,527C 343.821,526.501 348.154,526.334 352.5,526.5 Z"/></g>
<g><path style="opacity:1" fill="#fec90d" d="M 369.5,528.5 C 373.161,528.35 374.161,529.85 372.5,533C 368.707,533.487 367.707,531.987 369.5,528.5 Z"/></g>
<g><path style="opacity:1" fill="#000000" d="M 394.5,532.5 C 398.221,532.793 398.055,533.459 394,534.5C 393.5,534.333 393,534.167 392.5,534C 393.416,533.722 394.082,533.222 394.5,532.5 Z"/></g>
<g><path style="opacity:1" fill="#000000" d="M 381.5,541.5 C 383.918,538.556 386.918,536.722 390.5,536C 387.861,538.483 384.861,540.316 381.5,541.5 Z"/></g>
<g><path style="opacity:1" fill="#fec90d" d="M 412.5,535.5 C 419.049,535.335 421.049,538.002 418.5,543.5C 414.112,545.305 411.445,543.805 410.5,539C 410.978,537.697 411.645,536.531 412.5,535.5 Z"/></g>
<g><path style="opacity:1" fill="#000000" d="M 366.5,538.5 C 361.368,541.741 356.034,544.908 350.5,548C 348.934,548.765 347.601,548.598 346.5,547.5C 352.923,544.129 359.59,541.129 366.5,538.5 Z"/></g>
<g><path style="opacity:1" fill="#eee4af" d="M 301.5,541.5 C 303.359,541.461 304.692,542.294 305.5,544C 302.691,546.056 301.358,545.223 301.5,541.5 Z"/></g>
<g><path style="opacity:1" fill="#000000" d="M 362.5,588.5 C 363.163,584.51 363.83,580.51 364.5,576.5C 364.491,567.713 363.824,559.046 362.5,550.5C 363.968,547.722 364.801,544.722 365,541.5C 365.167,542.667 365.333,543.833 365.5,545C 364.679,555.59 364.679,566.09 365.5,576.5C 365.414,580.845 364.414,584.845 362.5,588.5 Z"/></g>
<g><path style="opacity:1" fill="#b87a56" d="M 297.5,549.5 C 298.524,553.347 300.857,554.347 304.5,552.5C 305.427,550.887 306.261,549.221 307,547.5C 313.468,562.41 308.635,569.577 292.5,569C 282.254,560.732 282.254,552.398 292.5,544C 297.148,542.69 298.148,543.69 295.5,547C 295.639,548.301 296.305,549.134 297.5,549.5 Z"/></g>
<g><path style="opacity:1" fill="#b87a56" d="M 297.5,549.5 C 297.128,546.978 297.961,544.978 300,543.5C 301.087,545.752 302.921,547.085 305.5,547.5C 303.849,553.011 301.182,553.678 297.5,549.5 Z"/></g>
<g><path style="opacity:1" fill="#fec90d" d="M 417.5,550.5 C 417.167,551.5 416.5,552.167 415.5,552.5C 414.089,550.086 412.089,548.419 409.5,547.5C 410.09,546.234 410.59,544.901 411,543.5C 412.826,545.074 414.993,545.907 417.5,546C 416.199,547.616 416.199,549.116 417.5,550.5 Z"/></g>
<g><path style="opacity:1" fill="#ec1c23" d="M 211.5,553.5 C 210.833,553.5 210.5,553.833 210.5,554.5C 208.433,557.927 207.1,561.594 206.5,565.5C 205.833,565.5 205.5,565.167 205.5,564.5C 205.706,557.881 207.706,551.881 211.5,546.5C 213.765,545.353 216.098,545.186 218.5,546C 221.167,547.667 223.833,549.333 226.5,551C 221.928,549.987 217.261,548.82 212.5,547.5C 212.167,549.5 211.833,551.5 211.5,553.5 Z"/></g>
<g><path style="opacity:1" fill="#fec90d" d="M 409.5,547.5 C 410.911,549.914 412.911,551.581 415.5,552.5C 414.928,553.973 414.095,555.307 413,556.5C 410.357,555.024 408.19,553.024 406.5,550.5C 407.188,549.145 408.188,548.145 409.5,547.5 Z"/></g>
<g><path style="opacity:1" fill="#000000" d="M 409.5,547.5 C 412.089,548.419 414.089,550.086 415.5,552.5C 412.911,551.581 410.911,549.914 409.5,547.5 Z"/></g>
<g><path style="opacity:1" fill="#fec90d" d="M 409.5,577.5 C 406.912,575.408 403.912,574.075 400.5,573.5C 395.046,570.321 395.213,567.321 401,564.5C 407.131,567.115 412.631,570.782 417.5,575.5C 425.075,570.831 427.575,564.165 425,555.5C 423.67,551.993 421.17,550.327 417.5,550.5C 417.281,549.325 417.614,548.325 418.5,547.5C 428.023,551.222 430.856,557.889 427,567.5C 423.912,572.01 421.078,576.676 418.5,581.5C 416.483,580.826 414.817,579.659 413.5,578C 412.207,577.51 410.873,577.343 409.5,577.5 Z"/></g>
<g><path style="opacity:1" fill="#3f47cc" d="M 362.5,550.5 C 363.824,559.046 364.491,567.713 364.5,576.5C 363.83,580.51 363.163,584.51 362.5,588.5C 359.91,593.091 357.41,597.758 355,602.5C 345.452,611.05 337.785,621.05 332,632.5C 324.787,641.59 319.12,651.59 315,662.5C 315.011,658.775 315.677,655.108 317,651.5C 321.891,644.057 325.391,636.057 327.5,627.5C 327.333,625.833 327.167,624.167 327,622.5C 321.406,613.055 316.572,603.222 312.5,593C 315.221,594.483 318.221,595.816 321.5,597C 324.856,598.031 326.856,596.864 327.5,593.5C 326.315,591.289 325.315,588.955 324.5,586.5C 326.256,584.809 326.756,582.809 326,580.5C 324.077,576.742 321.577,573.409 318.5,570.5C 318.833,570.167 319.167,569.833 319.5,569.5C 322.432,572.797 326.099,574.13 330.5,573.5C 330.785,571.712 330.452,570.045 329.5,568.5C 325.648,564.814 321.648,561.314 317.5,558C 318.167,557 318.833,556 319.5,555C 322.838,555.483 326.172,556.317 329.5,557.5C 337.895,553.563 346.728,550.896 356,549.5C 358.137,550.077 360.304,550.41 362.5,550.5 Z"/></g>
<g><path style="opacity:1" fill="#fec90d" d="M 409.5,562.5 C 407.063,560.567 404.729,558.4 402.5,556C 403.618,554.926 404.618,553.76 405.5,552.5C 407.833,554.333 410.167,556.167 412.5,558C 411.601,559.652 410.601,561.152 409.5,562.5 Z"/></g>
<g><path style="opacity:1" fill="#fec90d" d="M 212.5,553.5 C 214.199,553.34 215.866,553.506 217.5,554C 218.022,554.561 218.355,555.228 218.5,556C 216.657,558.668 214.324,559.168 211.5,557.5C 211.433,556.041 211.766,554.708 212.5,553.5 Z"/></g>
<g><path style="opacity:1" fill="#0b0714" d="M 211.5,553.5 C 211.833,553.5 212.167,553.5 212.5,553.5C 211.766,554.708 211.433,556.041 211.5,557.5C 210.596,556.791 210.263,555.791 210.5,554.5C 210.5,553.833 210.833,553.5 211.5,553.5 Z"/></g>
<g><path style="opacity:1" fill="#b87a56" d="M 281.5,555.5 C 282.761,558.258 283.594,561.258 284,564.5C 285.5,567.333 287.667,569.5 290.5,571C 295.217,571.476 299.883,571.476 304.5,571C 307.01,579.321 304.677,585.988 297.5,591C 292.959,595.033 287.626,596.533 281.5,595.5C 281.5,594.5 281.5,593.5 281.5,592.5C 275.674,590.848 271.507,587.181 269,581.5C 267.056,576.14 267.056,570.807 269,565.5C 273.066,561.923 277.232,558.589 281.5,555.5 Z"/></g>
<g><path style="opacity:1" fill="#fec90d" d="M 409.5,562.5 C 408.346,568.448 405.846,568.781 402,563.5C 401.333,561.5 401.333,559.5 402,557.5C 403.857,560.2 406.357,561.866 409.5,562.5 Z"/></g>
<g><path style="opacity:1" fill="#fefffe" d="M 418.5,557.5 C 420.439,558.014 421.439,559.347 421.5,561.5C 421.012,564.474 419.512,566.807 417,568.5C 415.978,567.646 415.145,566.646 414.5,565.5C 415.86,562.78 417.193,560.114 418.5,557.5 Z"/></g>
<g><path style="opacity:1" fill="#fec90d" d="M 211.5,563.5 C 216.159,563.015 217.492,564.848 215.5,569C 210.728,569.81 209.395,567.977 211.5,563.5 Z"/></g>
<g><path style="opacity:1" fill="#ec1c23" d="M 201.5,566.5 C 203.484,566.484 204.484,567.484 204.5,569.5C 203.837,572.806 203.337,576.139 203,579.5C 202.64,581.421 201.806,583.088 200.5,584.5C 199.914,584.291 199.414,583.957 199,583.5C 198.333,578.833 198.333,574.167 199,569.5C 199.698,568.309 200.531,567.309 201.5,566.5 Z"/></g>
<g><path style="opacity:1" fill="#ec1c23" d="M 225.5,569.5 C 228.85,569.335 232.183,569.502 235.5,570C 236.428,570.388 237.095,571.055 237.5,572C 236.628,577.255 236.628,582.588 237.5,588C 236.672,588.915 235.672,589.581 234.5,590C 229.278,590.522 224.278,591.022 219.5,591.5C 218.438,583.35 220.438,576.016 225.5,569.5 Z"/></g>
<g><path style="opacity:1" fill="#373837" d="M 400.5,573.5 C 402.531,590.238 401.198,590.572 396.5,574.5C 396.833,573.833 397.167,573.167 397.5,572.5C 398.417,573.127 399.417,573.461 400.5,573.5 Z"/></g>
<g><path style="opacity:1" fill="#fec90d" d="M 171.5,574.5 C 172.404,575.209 172.737,576.209 172.5,577.5C 175.647,577.737 178.647,578.57 181.5,580C 180.624,581.586 179.624,583.086 178.5,584.5C 175.526,581.372 171.86,579.872 167.5,580C 168.488,577.833 169.821,576 171.5,574.5 Z"/></g>
<g><path style="opacity:1" fill="#c59900" d="M 409.5,577.5 C 407.562,579.163 405.228,579.829 402.5,579.5C 402.238,578.022 402.571,576.689 403.5,575.5C 405.323,576.747 407.323,577.414 409.5,577.5 Z"/></g>
<g><path style="opacity:1" fill="#fec90d" d="M 206.5,582.5 C 206.5,581.5 206.5,580.5 206.5,579.5C 209.568,576.6 212.235,576.933 214.5,580.5C 212.519,583.662 209.852,584.329 206.5,582.5 Z"/></g>
<g><path style="opacity:1" fill="#fec90d" d="M 184.5,580.5 C 187.358,580.595 189.691,581.762 191.5,584C 189.47,585.896 187.803,588.063 186.5,590.5C 184.336,589.586 182.336,588.419 180.5,587C 181.719,584.722 183.052,582.555 184.5,580.5 Z"/></g>
<g><path style="opacity:1" fill="#c59900" d="M 402.5,580.5 C 404.604,580.201 406.604,580.534 408.5,581.5C 407.5,581.833 406.5,582.167 405.5,582.5C 403.97,582.36 402.97,581.693 402.5,580.5 Z"/></g>
<g><path style="opacity:1" fill="#c59900" d="M 402.5,583.5 C 404.833,583.5 407.167,583.5 409.5,583.5C 409.812,588.199 410.812,592.699 412.5,597C 411.897,598.825 411.23,600.659 410.5,602.5C 405.363,597.223 402.696,590.89 402.5,583.5 Z"/></g>
<g><path style="opacity:1" fill="#373837" d="M 193.5,585.5 C 196.226,585.264 198.559,586.097 200.5,588C 199.044,590.266 198.21,592.766 198,595.5C 195.214,593.858 192.381,592.358 189.5,591C 190.665,589.008 191.998,587.175 193.5,585.5 Z"/></g>
<g><path style="opacity:1" fill="#fefffe" d="M 202.5,589.5 C 207.991,591.494 213.658,592.994 219.5,594C 225.493,593.868 231.493,593.868 237.5,594C 240.793,595.476 242.793,597.976 243.5,601.5C 243.167,602.167 242.833,602.833 242.5,603.5C 238.713,602.293 235.046,600.793 231.5,599C 230.056,598.219 228.723,598.386 227.5,599.5C 227.833,600.167 228.167,600.833 228.5,601.5C 224.955,608.154 223.789,615.154 225,622.5C 220.373,624.559 217.54,623.059 216.5,618C 214.5,617.333 212.5,616.667 210.5,616C 207.973,612.806 205.14,609.973 202,607.5C 199.894,601.399 200.061,595.399 202.5,589.5 Z"/></g>
<g><path style="opacity:1" fill="#29319c" d="M 281.5,597.5 C 283.527,597.338 285.527,597.505 287.5,598C 284.013,603.139 281.18,608.639 279,614.5C 278.847,608.667 279.681,603.001 281.5,597.5 Z"/></g>
<g><path style="opacity:1" fill="#ec1c23" d="M 284.5,609.5 C 285.731,606.039 287.231,602.706 289,599.5C 288.867,603.434 287.367,606.767 284.5,609.5 Z"/></g>
<g><path style="opacity:1" fill="#373837" d="M 230.5,601.5 C 234.629,603.488 238.962,604.988 243.5,606C 245.5,608 247.5,610 249.5,612C 244.485,615.531 242.319,620.364 243,626.5C 238.143,623.489 232.977,621.155 227.5,619.5C 227.481,617.94 227.148,616.44 226.5,615C 227.915,610.504 229.248,606.004 230.5,601.5 Z"/></g>
<g><path style="opacity:1" fill="#c59900" d="M 409.5,603.5 C 415.03,604.766 415.53,606.766 411,609.5C 410.187,607.564 409.687,605.564 409.5,603.5 Z"/></g>
<g><path style="opacity:1" fill="#ec1c23" d="M 284.5,609.5 C 282.374,615.716 280.54,622.049 279,628.5C 278.252,630.332 277.252,631.999 276,633.5C 275.333,629.5 275.333,625.5 276,621.5C 277.193,619.395 278.86,617.728 281,616.5C 281.67,613.826 282.837,611.493 284.5,609.5 Z"/></g>
<g><path style="opacity:1" fill="#c59900" d="M 412.5,609.5 C 414.942,609.119 415.609,609.786 414.5,611.5C 415.253,613.753 416.586,615.587 418.5,617C 418,617.5 417.5,618 417,618.5C 415.414,616.33 414.08,613.996 413,611.5C 412.667,611.833 412.333,612.167 412,612.5C 411.53,611.423 411.697,610.423 412.5,609.5 Z"/></g>
<g><path style="opacity:1" fill="#c59900" d="M 416.5,611.5 C 418.446,612.254 419.279,613.588 419,615.5C 417.519,614.529 416.685,613.196 416.5,611.5 Z"/></g>
<g><path style="opacity:1" fill="#fec90d" d="M 251.5,613.5 C 254.267,614.051 256.6,615.384 258.5,617.5C 254.579,620.998 251.912,625.332 250.5,630.5C 245.273,627.863 244.106,623.863 247,618.5C 248.707,616.963 250.207,615.296 251.5,613.5 Z"/></g>
<g><path style="opacity:1" fill="#c59900" d="M 413.5,616.5 C 414.267,617.172 414.934,618.005 415.5,619C 413.939,619.188 413.272,618.355 413.5,616.5 Z"/></g>
<g><path style="opacity:1" fill="#a30d13" d="M 283.5,619.5 C 284.319,622.305 284.819,625.305 285,628.5C 287.496,633.32 289.496,638.32 291,643.5C 291.667,647.5 291.667,651.5 291,655.5C 287.691,667.959 285.358,680.625 284,693.5C 283.626,694.416 283.126,695.25 282.5,696C 280.527,696.495 278.527,696.662 276.5,696.5C 276.132,683.434 276.799,670.434 278.5,657.5C 278.115,651.47 277.448,645.47 276.5,639.5C 277.67,636.437 279.17,633.437 281,630.5C 281.681,626.779 282.514,623.113 283.5,619.5 Z"/></g>
<g><path style="opacity:1" fill="#c2c3c2" d="M 258.5,620.5 C 259.239,620.369 259.906,620.536 260.5,621C 259.131,624.911 257.131,628.411 254.5,631.5C 254.327,627.47 255.66,623.803 258.5,620.5 Z"/></g>
<g><path style="opacity:1" fill="#3f47cc" d="M 363.5,621.5 C 367.778,623.977 372.112,626.477 376.5,629C 379.699,632.943 383.366,636.443 387.5,639.5C 390.528,643.361 393.361,647.361 396,651.5C 397.424,656.662 395.59,658.829 390.5,658C 383.118,649.406 375.618,640.906 368,632.5C 365.384,629.271 363.884,625.604 363.5,621.5 Z"/></g>
<g><path style="opacity:1" fill="#a30d13" d="M 351.5,626.5 C 353.653,629.222 354.986,632.389 355.5,636C 353.552,643.726 350.386,650.893 346,657.5C 343.801,665.928 341.301,674.262 338.5,682.5C 336.754,684.854 334.421,685.854 331.5,685.5C 336.976,665.405 343.643,645.739 351.5,626.5 Z"/></g>
<g><path style="opacity:1" fill="#3f47cc" d="M 338.5,649.5 C 336.506,657.315 334.006,664.982 331,672.5C 329.686,676.754 328.853,681.087 328.5,685.5C 324.294,683.427 321.627,684.594 320.5,689C 321.259,692.725 323.593,694.558 327.5,694.5C 327.741,699.481 326.074,703.481 322.5,706.5C 321.735,706.077 320.902,705.743 320,705.5C 314.987,707.027 309.82,708.193 304.5,709C 300.941,711.28 299.441,714.447 300,718.5C 303.275,719.886 306.109,721.886 308.5,724.5C 306.313,726.85 303.813,728.85 301,730.5C 299.417,730.507 297.751,730.174 296,729.5C 293.066,726.02 292.899,722.52 295.5,719C 293.807,716.31 291.473,714.31 288.5,713C 289.167,712.333 289.833,711.667 290.5,711C 294.25,710.74 297.916,710.073 301.5,709C 303.658,707.688 303.991,706.022 302.5,704C 297.998,702.931 294.998,700.265 293.5,696C 293.833,695.5 294.167,695 294.5,694.5C 296.063,696.402 298.063,697.402 300.5,697.5C 306.598,697.235 309.932,694.068 310.5,688C 308.585,682.479 304.585,679.813 298.5,680C 297.429,678.175 298.096,677.008 300.5,676.5C 305.697,678.351 311.03,678.851 316.5,678C 322.336,670.529 327.836,662.695 333,654.5C 334.839,652.799 336.673,651.132 338.5,649.5 Z"/></g>
<g><path style="opacity:1" fill="#373837" d="M 361.5,653.5 C 363.85,656.349 365.85,659.515 367.5,663C 354.996,691.184 342.496,719.351 330,747.5C 328.5,746 327,744.5 325.5,743C 338.19,713.427 350.19,683.594 361.5,653.5 Z"/></g>
<g><path style="opacity:1" fill="#283199" d="M 328.5,685.5 C 328.736,688.609 328.403,691.609 327.5,694.5C 323.593,694.558 321.259,692.725 320.5,689C 321.627,684.594 324.294,683.427 328.5,685.5 Z"/></g>
<g><path style="opacity:1" fill="#fefffe" d="M 335.5,690.5 C 337.199,690.34 338.866,690.506 340.5,691C 334.537,705.095 328.704,719.261 323,733.5C 322.799,730.485 323.132,727.485 324,724.5C 329.36,713.587 333.193,702.253 335.5,690.5 Z"/></g>
<g><path style="opacity:1" fill="#373737" d="M 413.5,707.5 C 417.301,708.201 420.968,709.368 424.5,711C 426.02,713.596 426.853,716.429 427,719.5C 427.47,732.894 428.636,746.227 430.5,759.5C 430.154,763.552 429.487,767.552 428.5,771.5C 430.02,775.623 430.853,779.956 431,784.5C 431.795,786.901 432.962,789.068 434.5,791C 430.107,791.696 426.44,793.696 423.5,797C 426.777,795.043 430.444,793.543 434.5,792.5C 436.731,793.903 439.064,795.07 441.5,796C 440.069,796.465 438.903,797.299 438,798.5C 436.126,800.569 435.126,802.902 435,805.5C 436.833,803 438.667,800.5 440.5,798C 441.873,797.125 443.373,796.625 445,796.5C 450.227,797.039 455.394,797.872 460.5,799C 462.09,800.046 463.59,801.213 465,802.5C 465.688,803.332 465.521,803.998 464.5,804.5C 461.344,806.163 458.011,807.33 454.5,808C 445.359,809.628 436.192,811.128 427,812.5C 417.019,811.437 407.186,809.604 397.5,807C 396.789,805.745 395.956,804.579 395,803.5C 396.231,797.267 397.398,790.934 398.5,784.5C 398.614,781.622 397.948,778.956 396.5,776.5C 397.575,773.562 397.741,770.562 397,767.5C 390.612,752.764 388.779,737.43 391.5,721.5C 395.731,723.015 399.731,722.515 403.5,720C 406.348,715.332 409.681,711.166 413.5,707.5 Z"/></g>
<g><path style="opacity:1" fill="#373837" d="M 288.5,731.5 C 289.552,731.351 290.552,731.517 291.5,732C 293.068,734.304 294.235,736.804 295,739.5C 296.92,742.438 299.42,743.105 302.5,741.5C 303.498,738.836 304.998,736.503 307,734.5C 309.117,738.344 310.951,742.344 312.5,746.5C 309.603,759.691 306.603,772.857 303.5,786C 305.417,791.754 304.417,796.921 300.5,801.5C 297.489,800.459 294.489,800.292 291.5,801C 292.406,799.301 292.739,797.467 292.5,795.5C 286.669,796.055 281.169,797.721 276,800.5C 273.723,799.46 272.556,797.626 272.5,795C 273.049,783.269 273.549,771.435 274,759.5C 274.617,754.533 275.783,749.7 277.5,745C 277.355,744.228 277.022,743.561 276.5,743C 280.395,738.935 284.395,735.102 288.5,731.5 Z"/></g>
<g><path style="opacity:1" fill="#fec90d" d="M 323.5,747.5 C 326.221,748.696 327.387,750.696 327,753.5C 322.333,761.5 317.667,769.5 313,777.5C 312.333,775.833 312.333,774.167 313,772.5C 316.799,764.265 320.299,755.931 323.5,747.5 Z"/></g>
<g><path style="opacity:1" fill="#000000" d="M 415.5,772.5 C 418.607,772.351 421.607,772.851 424.5,774C 426.984,776.284 427.151,778.784 425,781.5C 419.68,785.117 413.846,786.284 407.5,785C 405.032,783.412 404.866,781.578 407,779.5C 408.851,775.843 411.684,773.51 415.5,772.5 Z"/></g>
<g><path style="opacity:1" fill="#353535" d="M 292.5,806.5 C 294.913,808.051 297.579,808.717 300.5,808.5C 298.454,816.902 299.287,824.902 303,832.5C 303.862,837.894 305.029,843.228 306.5,848.5C 306.158,850.867 305.658,853.2 305,855.5C 303,856.833 301,858.167 299,859.5C 291.293,855.642 283.459,851.975 275.5,848.5C 273.648,844.335 273.148,840.002 274,835.5C 276.873,830.122 278.207,824.455 278,818.5C 273.266,816.383 271.933,813.05 274,808.5C 276.634,811.495 279.467,814.161 282.5,816.5C 286.876,814.124 290.21,810.79 292.5,806.5 Z"/></g>
<g><path style="opacity:1" fill="#000000" d="M 288.5,821.5 C 292.82,821.959 293.487,823.792 290.5,827C 291.308,827.308 291.975,827.808 292.5,828.5C 289.385,829.224 286.718,830.724 284.5,833C 280.912,833.611 279.746,832.111 281,828.5C 283.015,825.588 285.515,823.255 288.5,821.5 Z"/></g>
</svg>
