<?xml version="1.0" encoding="UTF-8"?>
<!DOCTYPE svg PUBLIC "-//W3C//DTD SVG 1.1//EN" "http://www.w3.org/Graphics/SVG/1.1/DTD/svg11.dtd">
<svg xmlns="http://www.w3.org/2000/svg" version="1.1" width="420px" height="426px" style="shape-rendering:geometricPrecision; text-rendering:geometricPrecision; image-rendering:optimizeQuality; fill-rule:evenodd; clip-rule:evenodd" xmlns:xlink="http://www.w3.org/1999/xlink">
<g><path style="opacity:1" fill="#fefffe" d="M 215.5,96.5 C 221.176,96.3339 226.843,96.5006 232.5,97C 236.907,99.5317 238.574,103.365 237.5,108.5C 239.833,108.5 242.167,108.5 244.5,108.5C 245.141,120.323 246.808,131.99 249.5,143.5C 254.597,144.285 256.597,147.285 255.5,152.5C 256.621,157.172 254.954,159.839 250.5,160.5C 250.5,162.833 250.5,165.167 250.5,167.5C 252.857,167.337 255.19,167.503 257.5,168C 264.331,177.815 268.831,188.648 271,200.5C 272.713,201.878 274.047,203.545 275,205.5C 275.703,209.769 277.036,213.769 279,217.5C 279.499,221.486 279.666,225.486 279.5,229.5C 291.783,227.119 304.116,224.953 316.5,223C 317.167,222 317.833,221 318.5,220C 329.048,218.512 339.548,218.345 350,219.5C 370.545,214.715 391.379,212.049 412.5,211.5C 412.665,214.518 412.498,217.518 412,220.5C 407.897,223.427 403.397,225.593 398.5,227C 383.167,231.333 367.833,235.667 352.5,240C 332.408,241.68 312.408,244.68 292.5,249C 290.5,250.333 288.833,252 287.5,254C 283.187,254.735 278.853,255.235 274.5,255.5C 274.649,256.552 274.483,257.552 274,258.5C 271.926,260.452 269.759,262.285 267.5,264C 262.798,264.172 258.132,264.672 253.5,265.5C 256.54,274.036 261.04,281.703 267,288.5C 270.234,298.608 271.234,308.941 270,319.5C 269.626,320.416 269.126,321.25 268.5,322C 266.527,322.495 264.527,322.662 262.5,322.5C 262.6,334.321 260.433,345.654 256,356.5C 255.814,363.414 255.314,370.247 254.5,377C 257.819,380.311 259.152,384.311 258.5,389C 258.961,392.84 257.961,396.173 255.5,399C 241.649,401.798 229.483,398.632 219,389.5C 217.926,375.413 219.593,361.747 224,348.5C 224.667,339.5 224.667,330.5 224,321.5C 221.2,314.108 219.033,306.608 217.5,299C 216.833,298.333 216.167,298.333 215.5,299C 211.543,308.418 207.71,317.918 204,327.5C 202.442,329.768 200.276,330.934 197.5,331C 194.183,331.498 190.85,331.665 187.5,331.5C 187.98,334.685 187.314,337.519 185.5,340C 181.833,340.667 178.167,340.667 174.5,340C 170.74,334.566 166.574,329.4 162,324.5C 155.375,320.209 149.709,314.876 145,308.5C 144.333,302.833 144.333,297.167 145,291.5C 145.5,291 146,290.5 146.5,290C 150.211,289.825 153.878,289.325 157.5,288.5C 157.709,287.914 158.043,287.414 158.5,287C 154.167,286.667 149.833,286.333 145.5,286C 142.959,281.725 140.792,277.225 139,272.5C 138.333,267.5 138.333,262.5 139,257.5C 143.336,255.61 147.836,254.11 152.5,253C 153.622,249.591 153.789,246.091 153,242.5C 150.058,236.282 147.391,229.949 145,223.5C 144.333,217.167 144.333,210.833 145,204.5C 149.427,199.711 154.594,196.211 160.5,194C 162.249,192.708 164.082,191.542 166,190.5C 166.796,182.727 168.13,175.061 170,167.5C 172.228,165.032 175.062,163.865 178.5,164C 181.317,161.36 183.651,158.36 185.5,155C 190.199,155.279 194.199,153.945 197.5,151C 199.256,150.798 200.922,150.298 202.5,149.5C 199.136,144.634 195.969,139.634 193,134.5C 192.333,130.5 192.333,126.5 193,122.5C 198.06,119.223 203.56,116.889 209.5,115.5C 210.328,110.868 210.828,106.202 211,101.5C 212.707,99.9625 214.207,98.2959 215.5,96.5 Z"/></g>
<g><path style="opacity:1" fill="#000000" d="M 217.5,98.5 C 223.173,97.8386 228.506,98.6719 233.5,101C 235.227,103.904 235.893,107.07 235.5,110.5C 237.833,110.5 240.167,110.5 242.5,110.5C 243.141,122.323 244.808,133.99 247.5,145.5C 251.629,145.965 253.629,148.299 253.5,152.5C 253.776,156.725 251.776,158.892 247.5,159C 248.799,162.135 248.799,165.301 247.5,168.5C 250.107,169.318 252.774,169.818 255.5,170C 262.331,179.815 266.831,190.648 269,202.5C 270.713,203.878 272.047,205.545 273,207.5C 273.703,211.769 275.036,215.769 277,219.5C 277.499,223.486 277.666,227.486 277.5,231.5C 291.186,229.553 304.852,227.386 318.5,225C 319.167,224 319.833,223 320.5,222C 330.329,220.52 340.163,220.354 350,221.5C 369.997,217.361 390.164,214.694 410.5,213.5C 410.739,215.467 410.406,217.301 409.5,219C 405.455,221.573 401.122,223.573 396.5,225C 381.167,229.333 365.833,233.667 350.5,238C 330.408,239.68 310.408,242.68 290.5,247C 288.5,248.333 286.833,250 285.5,252C 281.187,252.735 276.853,253.235 272.5,253.5C 272.649,254.552 272.483,255.552 272,256.5C 269.926,258.452 267.759,260.285 265.5,262C 260.511,262.499 255.511,262.666 250.5,262.5C 252.891,273.068 257.724,282.402 265,290.5C 268.118,299.268 269.118,308.268 268,317.5C 267.626,318.416 267.126,319.25 266.5,320C 264.527,320.495 262.527,320.662 260.5,320.5C 259.937,328.523 259.104,336.523 258,344.5C 253.262,354.018 251.429,364.018 252.5,374.5C 251.328,374.919 250.328,375.585 249.5,376.5C 257.033,382.146 258.367,388.979 253.5,397C 241.185,398.67 230.351,395.504 221,387.5C 221.404,379.428 221.737,371.428 222,363.5C 223.787,359.363 225.121,355.03 226,350.5C 226.221,343.63 226.721,336.797 227.5,330C 226.782,326.539 226.282,323.039 226,319.5C 223.2,312.108 221.033,304.608 219.5,297C 217.105,294.855 214.938,295.022 213,297.5C 210.006,305.49 207.006,313.49 204,321.5C 203.117,324.102 201.617,326.269 199.5,328C 194.915,329.225 190.248,329.725 185.5,329.5C 186.834,337 183.834,339.833 176.5,338C 172.74,332.566 168.574,327.4 164,322.5C 157.375,318.209 151.709,312.876 147,306.5C 146.333,302.167 146.333,297.833 147,293.5C 147.5,293 148,292.5 148.5,292C 152.211,291.825 155.878,291.325 159.5,290.5C 161.479,287.28 162.145,283.947 161.5,280.5C 159.483,281.174 157.817,282.341 156.5,284C 153.5,284.667 150.5,284.667 147.5,284C 142.23,276.635 140.063,268.469 141,259.5C 145.591,257.636 150.257,255.97 155,254.5C 155.667,249.833 155.667,245.167 155,240.5C 148.594,229.97 145.928,218.637 147,206.5C 151.427,201.711 156.594,198.211 162.5,196C 164.249,194.708 166.082,193.542 168,192.5C 168.796,184.727 170.13,177.061 172,169.5C 174.228,167.032 177.062,165.865 180.5,166C 183.317,163.36 185.651,160.36 187.5,157C 190.76,156.216 193.927,156.383 197,157.5C 197.273,155.671 198.107,154.171 199.5,153C 201.9,152.814 204.234,152.314 206.5,151.5C 202.667,145.167 198.833,138.833 195,132.5C 194.333,129.833 194.333,127.167 195,124.5C 200.579,120.695 206.746,118.361 213.5,117.5C 212.519,112.871 212.352,108.204 213,103.5C 214.707,101.963 216.207,100.296 217.5,98.5 Z"/></g>
<g><path style="opacity:1" fill="#00a1e8" d="M 221.5,103.5 C 229.138,103.44 231.472,106.774 228.5,113.5C 222.726,116.943 219.059,115.443 217.5,109C 218.65,107.019 219.984,105.186 221.5,103.5 Z"/></g>
<g><path style="opacity:1" fill="#fefffe" d="M 233.5,117.5 C 235.097,122.046 233.764,125.38 229.5,127.5C 226.576,127.102 224.242,125.769 222.5,123.5C 223.364,116.724 227.03,114.724 233.5,117.5 Z"/></g>
<g><path style="opacity:1" fill="#ec1c23" d="M 226.5,117.5 C 232.488,117.664 233.821,120.164 230.5,125C 224.398,125.223 223.064,122.723 226.5,117.5 Z"/></g>
<g><path style="opacity:1" fill="#00a1e8" d="M 228.5,119.5 C 230.852,120.543 231.019,121.876 229,123.5C 227.232,122.318 227.065,120.985 228.5,119.5 Z"/></g>
<g><path style="opacity:1" fill="#1a1a19" d="M 239.5,156.5 C 239.5,156.833 239.5,157.167 239.5,157.5C 234.316,158.193 229.316,159.193 224.5,160.5C 224.167,160.5 223.833,160.5 223.5,160.5C 222.133,161.853 221.133,161.519 220.5,159.5C 221.729,158.719 223.062,158.219 224.5,158C 219.197,158.023 217.864,156.023 220.5,152C 218.63,150.634 216.63,149.467 214.5,148.5C 213.833,148.833 213.167,149.167 212.5,149.5C 210.38,144.089 207.38,139.255 203.5,135C 204.167,134.667 204.833,134.333 205.5,134C 202.946,133.228 201.279,131.562 200.5,129C 200.905,128.055 201.572,127.388 202.5,127C 208.659,124.754 214.826,122.587 221,120.5C 221.232,121.737 221.732,122.737 222.5,123.5C 224.242,125.769 226.576,127.102 229.5,127.5C 233.764,125.38 235.097,122.046 233.5,117.5C 234.531,116.751 235.698,116.085 237,115.5C 238.072,127.003 240.072,138.336 243,149.5C 245.343,150.127 247.51,151.127 249.5,152.5C 246.151,153.958 242.818,155.292 239.5,156.5 Z"/></g>
<g><path style="opacity:1" fill="#7e7f7e" d="M 229.5,127.5 C 231.093,128.348 232.26,129.681 233,131.5C 234.117,130.051 234.784,128.384 235,126.5C 236.379,130.475 235.213,133.309 231.5,135C 233.898,136.018 236.231,137.185 238.5,138.5C 236.486,144.755 232.486,146.255 226.5,143C 224.845,141.556 224.178,139.722 224.5,137.5C 226.144,137.714 227.644,137.38 229,136.5C 227.702,134.476 226.202,132.309 224.5,130C 226.047,129.667 227.38,130.167 228.5,131.5C 230.642,130.563 230.976,129.23 229.5,127.5 Z"/></g>
<g><path style="opacity:1" fill="#7e7f7e" d="M 213.5,150.5 C 216.709,151.013 217.709,152.68 216.5,155.5C 220.667,162.5 224.833,169.5 229,176.5C 229.982,177.759 230.315,179.092 230,180.5C 228.333,178.833 226.667,177.167 225,175.5C 220.898,167.738 216.398,160.238 211.5,153C 212.381,152.292 213.047,151.458 213.5,150.5 Z"/></g>
<g><path style="opacity:1" fill="#eee4c7" d="M 203.5,165.5 C 203.5,164.833 203.167,164.5 202.5,164.5C 201.026,162.073 201.193,159.74 203,157.5C 204.049,156.483 205.216,156.316 206.5,157C 207.591,159.064 207.758,161.231 207,163.5C 206.29,164.973 205.124,165.64 203.5,165.5 Z"/></g>
<g><path style="opacity:1" fill="#cd6d2d" d="M 239.5,156.5 C 241.167,156.5 242.833,156.5 244.5,156.5C 244.5,157.5 244.5,158.5 244.5,159.5C 242.621,160.341 240.621,160.675 238.5,160.5C 237.58,159.933 237.246,160.599 237.5,162.5C 232.837,163.917 228.504,163.25 224.5,160.5C 229.316,159.193 234.316,158.193 239.5,157.5C 239.5,157.167 239.5,156.833 239.5,156.5 Z"/></g>
<g><path style="opacity:1" fill="#000000" d="M 239.5,157.5 C 240.675,157.281 241.675,157.614 242.5,158.5C 241.14,159.665 240.14,159.332 239.5,157.5 Z"/></g>
<g><path style="opacity:1" fill="#000000" d="M 204.5,159.5 C 206.97,160.36 207.137,161.694 205,163.5C 204.51,162.207 204.343,160.873 204.5,159.5 Z"/></g>
<g><path style="opacity:1" fill="#000000" d="M 232.5,160.5 C 233.386,159.224 234.386,159.224 235.5,160.5C 234.575,161.562 233.575,161.562 232.5,160.5 Z"/></g>
<g><path style="opacity:1" fill="#000000" d="M 238.5,160.5 C 240.391,163.614 241.724,166.948 242.5,170.5C 239.518,170.896 236.851,170.229 234.5,168.5C 234.667,168.167 234.833,167.833 235,167.5C 236.913,169.187 239.08,169.687 241.5,169C 240.267,166.686 238.933,164.519 237.5,162.5C 237.246,160.599 237.58,159.933 238.5,160.5 Z"/></g>
<g><path style="opacity:1" fill="#f9a884" d="M 244.5,159.5 C 244.821,160.817 245.154,162.151 245.5,163.5C 244.173,168.468 243.173,173.468 242.5,178.5C 236.426,180.973 231.76,179.473 228.5,174C 229.357,173.311 230.023,172.478 230.5,171.5C 229.219,168.553 227.219,166.219 224.5,164.5C 223.754,163.264 223.421,161.93 223.5,160.5C 223.833,160.5 224.167,160.5 224.5,160.5C 228.504,163.25 232.837,163.917 237.5,162.5C 238.933,164.519 240.267,166.686 241.5,169C 239.08,169.687 236.913,169.187 235,167.5C 234.833,167.833 234.667,168.167 234.5,168.5C 236.851,170.229 239.518,170.896 242.5,170.5C 241.724,166.948 240.391,163.614 238.5,160.5C 240.621,160.675 242.621,160.341 244.5,159.5 Z"/></g>
<g><path style="opacity:1" fill="#eee4c7" d="M 191.5,160.5 C 195.758,162.934 195.425,164.6 190.5,165.5C 189.833,165.167 189.167,164.833 188.5,164.5C 189.524,163.148 190.524,161.815 191.5,160.5 Z"/></g>
<g><path style="opacity:1" fill="#e89165" d="M 219.5,173.5 C 218.674,171.736 217.341,170.402 215.5,169.5C 214.71,168.599 213.71,167.932 212.5,167.5C 212.672,166.508 212.338,165.842 211.5,165.5C 210.746,161.581 212.08,160.247 215.5,161.5C 217.754,165.007 219.754,168.673 221.5,172.5C 221.043,173.298 220.376,173.631 219.5,173.5 Z"/></g>
<g><path style="opacity:1" fill="#7e0414" d="M 202.5,164.5 C 203.167,164.5 203.5,164.833 203.5,165.5C 203.263,166.791 203.596,167.791 204.5,168.5C 205.402,174.218 203.069,177.885 197.5,179.5C 196.828,178.051 196.161,176.718 195.5,175.5C 194.366,172.784 193.033,170.118 191.5,167.5C 194.638,166.216 197.805,164.883 201,163.5C 201.383,164.056 201.883,164.389 202.5,164.5 Z"/></g>
<g><path style="opacity:1" fill="#630d11" d="M 211.5,165.5 C 212.338,165.842 212.672,166.508 212.5,167.5C 212.771,169.38 212.104,170.713 210.5,171.5C 209.655,170.329 208.989,168.995 208.5,167.5C 208.821,165.952 209.821,165.285 211.5,165.5 Z"/></g>
<g><path style="opacity:1" fill="#eee4c7" d="M 191.5,167.5 C 193.033,170.118 194.366,172.784 195.5,175.5C 195.849,178.045 195.016,180.045 193,181.5C 192.802,179.618 192.302,177.952 191.5,176.5C 191.585,173.351 190.585,170.684 188.5,168.5C 188.804,166.204 189.804,165.871 191.5,167.5 Z"/></g>
<g><path style="opacity:1" fill="#730913" d="M 188.5,168.5 C 190.585,170.684 191.585,173.351 191.5,176.5C 192.137,180.455 190.637,183.122 187,184.5C 186.814,181.964 186.314,179.631 185.5,177.5C 184.799,175.412 183.799,173.412 182.5,171.5C 184.103,170.404 185.603,169.07 187,167.5C 187.383,168.056 187.883,168.389 188.5,168.5 Z"/></g>
<g><path style="opacity:1" fill="#eee4c7" d="M 204.5,168.5 C 205.568,167.566 206.901,167.232 208.5,167.5C 208.989,168.995 209.655,170.329 210.5,171.5C 209.708,173.257 208.375,174.591 206.5,175.5C 205.832,173.031 205.165,170.698 204.5,168.5 Z"/></g>
<g><path style="opacity:1" fill="#4a5428" d="M 215.5,169.5 C 217.341,170.402 218.674,171.736 219.5,173.5C 222.167,175.833 224.833,178.167 227.5,180.5C 222.909,177.915 218.576,174.915 214.5,171.5C 214.328,170.508 214.662,169.842 215.5,169.5 Z"/></g>
<g><path style="opacity:1" fill="#eee4c7" d="M 182.5,171.5 C 183.799,173.412 184.799,175.412 185.5,177.5C 185.664,180.187 185.497,182.854 185,185.5C 184.617,186.056 184.117,186.389 183.5,186.5C 183.81,183.287 183.477,180.287 182.5,177.5C 182.598,175.447 181.931,173.78 180.5,172.5C 180.082,171.778 179.416,171.278 178.5,171C 179.928,170.421 181.262,170.588 182.5,171.5 Z"/></g>
<g><path style="opacity:1" fill="#770713" d="M 180.5,172.5 C 181.931,173.78 182.598,175.447 182.5,177.5C 182.5,179.167 182.5,180.833 182.5,182.5C 181.167,182.5 179.833,182.5 178.5,182.5C 176.973,182.573 175.973,181.906 175.5,180.5C 175.804,177.478 176.304,174.478 177,171.5C 178.011,172.337 179.178,172.67 180.5,172.5 Z"/></g>
<g><path style="opacity:1" fill="#adbe72" d="M 214.5,171.5 C 218.576,174.915 222.909,177.915 227.5,180.5C 228.167,181.5 228.833,182.5 229.5,183.5C 229.007,185.806 228.674,188.139 228.5,190.5C 222.521,185.188 216.854,179.521 211.5,173.5C 212.357,172.575 213.357,171.908 214.5,171.5 Z"/></g>
<g><path style="opacity:1" fill="#000000" d="M 232.5,171.5 C 233.239,171.369 233.906,171.536 234.5,172C 231.821,178.105 231.154,177.939 232.5,171.5 Z"/></g>
<g><path style="opacity:1" fill="#000000" d="M 236.5,172.5 C 241.244,172.038 242.244,173.538 239.5,177C 233.392,178.097 232.392,176.597 236.5,172.5 Z"/></g>
<g><path style="opacity:1" fill="#eee4c7" d="M 247.5,173.5 C 252.571,174.023 253.404,176.023 250,179.5C 248.878,177.593 248.045,175.593 247.5,173.5 Z"/></g>
<g><path style="opacity:1" fill="#870014" d="M 209.5,175.5 C 223.795,188.436 235.961,203.102 246,219.5C 246.667,220.833 246.667,222.167 246,223.5C 236.034,205.877 223.534,190.377 208.5,177C 209.056,176.617 209.389,176.117 209.5,175.5 Z"/></g>
<g><path style="opacity:1" fill="#000000" d="M 182.5,177.5 C 183.477,180.287 183.81,183.287 183.5,186.5C 181.901,186.768 180.568,186.434 179.5,185.5C 180.675,185.719 181.675,185.386 182.5,184.5C 181.051,183.828 179.718,183.161 178.5,182.5C 179.833,182.5 181.167,182.5 182.5,182.5C 182.5,180.833 182.5,179.167 182.5,177.5 Z"/></g>
<g><path style="opacity:1" fill="#eee4c7" d="M 203.5,177.5 C 207.645,178.137 210.478,180.471 212,184.5C 216.769,201.103 211.936,213.936 197.5,223C 193.141,223.534 188.808,223.368 184.5,222.5C 184.5,221.5 184.5,220.5 184.5,219.5C 189.297,219.879 193.964,219.379 198.5,218C 207.48,208.873 210.313,198.04 207,185.5C 205.623,183.246 204.123,181.08 202.5,179C 203.056,178.617 203.389,178.117 203.5,177.5 Z"/></g>
<g><path style="opacity:1" fill="#adbe72" d="M 252.5,178.5 C 255.263,181.497 254.763,184.164 251,186.5C 250.749,184.567 250.249,182.734 249.5,181C 250.942,180.623 251.942,179.79 252.5,178.5 Z"/></g>
<g><path style="opacity:1" fill="#eee4c7" d="M 175.5,180.5 C 175.973,181.906 176.973,182.573 178.5,182.5C 179.718,183.161 181.051,183.828 182.5,184.5C 181.675,185.386 180.675,185.719 179.5,185.5C 178.486,184.326 177.153,183.66 175.5,183.5C 174.375,182.348 174.375,181.348 175.5,180.5 Z"/></g>
<g><path style="opacity:1" fill="#a8b76e" d="M 200.5,180.5 C 196.95,185.962 197.95,190.295 203.5,193.5C 205.952,208.383 199.619,215.383 184.5,214.5C 181.236,209.369 176.569,207.202 170.5,208C 175.345,209.25 179.345,211.75 182.5,215.5C 182.167,215.833 181.833,216.167 181.5,216.5C 177.385,215.277 173.718,213.277 170.5,210.5C 171.301,213.166 173.301,215.333 176.5,217C 175.975,217.692 175.308,218.192 174.5,218.5C 169.773,217.124 165.44,215.291 161.5,213C 164.311,217.405 168.311,219.738 173.5,220C 169.039,220.406 164.706,220.072 160.5,219C 164.724,220.776 168.724,222.61 172.5,224.5C 169.873,225.105 167.207,225.605 164.5,226C 167.802,227.026 171.135,227.86 174.5,228.5C 174.833,229.167 175.167,229.833 175.5,230.5C 171.168,229.903 166.835,229.737 162.5,230C 167.185,231.171 171.852,232.338 176.5,233.5C 176.389,234.117 176.056,234.617 175.5,235C 177.886,235.284 178.552,236.284 177.5,238C 178.667,238.5 179.5,239.333 180,240.5C 182.178,246.951 180.011,251.118 173.5,253C 169.855,254.166 166.188,254.833 162.5,255C 160.522,252.503 160.022,249.669 161,246.5C 162.098,245.033 163.598,244.199 165.5,244C 164.062,243.781 162.729,243.281 161.5,242.5C 161.709,241.914 162.043,241.414 162.5,241C 156.525,231.579 153.025,221.412 152,210.5C 155.465,208.037 158.631,205.204 161.5,202C 170.538,198.309 178.871,193.309 186.5,187C 191.073,184.546 195.739,182.379 200.5,180.5 Z"/></g>
<g><path style="opacity:1" fill="#58662e" d="M 200.5,180.5 C 203.294,182.819 205.128,185.819 206,189.5C 207.629,199.849 204.796,208.683 197.5,216C 193.3,217.367 188.967,217.867 184.5,217.5C 184.5,216.5 184.5,215.5 184.5,214.5C 199.619,215.383 205.952,208.383 203.5,193.5C 197.95,190.295 196.95,185.962 200.5,180.5 Z"/></g>
<g><path style="opacity:1" fill="#58662e" d="M 231.5,189.5 C 232.083,186.759 233.083,184.092 234.5,181.5C 236.167,180.167 237.833,180.167 239.5,181.5C 238.031,185.412 235.698,188.746 232.5,191.5C 231.702,191.043 231.369,190.376 231.5,189.5 Z"/></g>
<g><path style="opacity:1" fill="#eee4c7" d="M 241.5,182.5 C 244.154,184.46 245.821,187.127 246.5,190.5C 244.542,196.24 242.375,201.907 240,207.5C 238.533,204.734 236.7,202.234 234.5,200C 237.711,194.536 240.045,188.703 241.5,182.5 Z"/></g>
<g><path style="opacity:1" fill="#adbe72" d="M 258.5,189.5 C 257.833,193.5 255.5,195.833 251.5,196.5C 251.335,193.482 251.502,190.482 252,187.5C 253.713,186.122 255.047,184.455 256,182.5C 257.411,184.65 258.245,186.984 258.5,189.5 Z"/></g>
<g><path style="opacity:1" fill="#7c0514" d="M 175.5,183.5 C 177.153,183.66 178.486,184.326 179.5,185.5C 180.568,186.434 181.901,186.768 183.5,186.5C 180.312,188.69 177.145,191.024 174,193.5C 173.904,189.999 174.404,186.666 175.5,183.5 Z"/></g>
<g><path style="opacity:1" fill="#58662e" d="M 229.5,183.5 C 231.308,184.918 231.975,186.918 231.5,189.5C 230.842,190.398 230.176,191.398 229.5,192.5C 228.702,192.043 228.369,191.376 228.5,190.5C 228.674,188.139 229.007,185.806 229.5,183.5 Z"/></g>
<g><path style="opacity:1" fill="#adbe72" d="M 214.5,185.5 C 215.117,185.611 215.617,185.944 216,186.5C 216.674,197.198 217.34,207.865 218,218.5C 209.309,228.289 198.809,231.123 186.5,227C 185.289,226.107 185.289,225.274 186.5,224.5C 202.248,225.824 211.748,218.491 215,202.5C 215.74,196.782 215.573,191.115 214.5,185.5 Z"/></g>
<g><path style="opacity:1" fill="#4b5528" d="M 258.5,189.5 C 259.338,189.842 259.672,190.508 259.5,191.5C 259.521,196.721 256.854,199.054 251.5,198.5C 251.5,197.833 251.5,197.167 251.5,196.5C 255.5,195.833 257.833,193.5 258.5,189.5 Z"/></g>
<g><path style="opacity:1" fill="#adbe72" d="M 218.5,190.5 C 220.296,191.793 221.963,193.293 223.5,195C 220.183,196.085 219.849,197.585 222.5,199.5C 223.478,199.023 224.311,198.357 225,197.5C 230.363,201.204 230.697,205.204 226,209.5C 224.921,207.606 223.587,207.273 222,208.5C 221.667,210.047 222.167,211.38 223.5,212.5C 222.855,213.646 222.022,214.646 221,215.5C 219.461,207.231 218.628,198.898 218.5,190.5 Z"/></g>
<g><path style="opacity:1" fill="#58662e" d="M 234.5,191.5 C 235.376,191.369 236.043,191.702 236.5,192.5C 235.752,194.332 234.752,195.999 233.5,197.5C 232.5,197.167 231.833,196.5 231.5,195.5C 232.524,194.148 233.524,192.815 234.5,191.5 Z"/></g>
<g><path style="opacity:1" fill="#a9b96f" d="M 259.5,191.5 C 261.442,196.244 262.942,201.244 264,206.5C 267.618,210.012 269.285,214.345 269,219.5C 270.045,220.373 270.878,221.373 271.5,222.5C 269.262,223.537 266.929,223.703 264.5,223C 265.91,222.632 266.91,221.799 267.5,220.5C 262.508,219.408 257.508,219.408 252.5,220.5C 252.797,213.08 252.464,205.746 251.5,198.5C 256.854,199.054 259.521,196.721 259.5,191.5 Z"/></g>
<g><path style="opacity:1" fill="#efe4c9" d="M 242.5,178.5 C 243.302,177.048 243.802,175.382 244,173.5C 246.727,177.39 248.393,181.723 249,186.5C 251.259,201.429 251.926,216.429 251,231.5C 250.936,217.096 249.936,202.763 248,188.5C 246.773,184.789 244.94,181.455 242.5,178.5 Z"/></g>
<g><path style="opacity:1" fill="#adbe72" d="M 245.5,196.5 C 246.748,197.334 247.415,198.667 247.5,200.5C 247.944,203.822 248.277,207.155 248.5,210.5C 248.603,213.037 248.103,215.371 247,217.5C 245.291,214.582 243.458,211.748 241.5,209C 244.42,205.329 245.754,201.163 245.5,196.5 Z"/></g>
<g><path style="opacity:1" fill="#eee4c7" d="M 231.5,205.5 C 233.114,207.456 234.781,209.456 236.5,211.5C 228.346,223.816 217.346,232.649 203.5,238C 196.797,238.713 190.13,238.546 183.5,237.5C 183.245,234.01 184.578,231.343 187.5,229.5C 195.893,232.659 203.893,231.826 211.5,227C 219.418,220.918 226.084,213.752 231.5,205.5 Z"/></g>
<g><path style="opacity:1" fill="#a8b76f" d="M 224.5,243.5 C 233.251,236.261 232.251,234.761 221.5,239C 220.748,239.671 220.414,240.504 220.5,241.5C 219.266,239.799 218.599,237.799 218.5,235.5C 218.64,233.97 219.307,232.97 220.5,232.5C 220.56,233.043 220.893,233.376 221.5,233.5C 226.09,231.238 230.09,228.238 233.5,224.5C 233.167,224.167 232.833,223.833 232.5,223.5C 230.113,225.689 227.447,227.356 224.5,228.5C 229.846,224.318 234.346,219.318 238,213.5C 239.731,217.295 241.731,220.962 244,224.5C 245,225.167 246,225.833 247,226.5C 247.453,229.84 247.953,233.174 248.5,236.5C 248.291,237.994 247.624,239.161 246.5,240C 239.209,241.492 231.875,242.659 224.5,243.5 Z"/></g>
<g><path style="opacity:1" fill="#58662e" d="M 213.5,215.5 C 214.376,215.369 215.043,215.702 215.5,216.5C 211.173,221.492 205.839,224.659 199.5,226C 204.414,222.723 209.08,219.223 213.5,215.5 Z"/></g>
<g><path style="opacity:1" fill="#a1a1a1" d="M 397.5,217.5 C 399.199,217.34 400.866,217.506 402.5,218C 384.084,223.622 365.417,228.622 346.5,233C 344.421,233.808 342.421,233.641 340.5,232.5C 340.709,231.914 341.043,231.414 341.5,231C 335.268,229.855 335.268,228.022 341.5,225.5C 343.239,226.4 345.072,227.067 347,227.5C 364.01,224.331 380.844,220.998 397.5,217.5 Z"/></g>
<g><path style="opacity:1" fill="#58662e" d="M 271.5,222.5 C 272.11,223.391 272.443,224.391 272.5,225.5C 268.785,225.32 265.118,225.654 261.5,226.5C 259.438,224.561 257.104,224.561 254.5,226.5C 253.833,224.5 253.167,222.5 252.5,220.5C 257.508,219.408 262.508,219.408 267.5,220.5C 266.91,221.799 265.91,222.632 264.5,223C 266.929,223.703 269.262,223.537 271.5,222.5 Z"/></g>
<g><path style="opacity:1" fill="#515c2b" d="M 220.5,232.5 C 221.326,230.736 222.659,229.402 224.5,228.5C 227.447,227.356 230.113,225.689 232.5,223.5C 232.833,223.833 233.167,224.167 233.5,224.5C 230.09,228.238 226.09,231.238 221.5,233.5C 220.893,233.376 220.56,233.043 220.5,232.5 Z"/></g>
<g><path style="opacity:1" fill="#58662e" d="M 172.5,224.5 C 174.104,225.287 174.771,226.62 174.5,228.5C 171.135,227.86 167.802,227.026 164.5,226C 167.207,225.605 169.873,225.105 172.5,224.5 Z"/></g>
<g><path style="opacity:1" fill="#adbe72" d="M 272.5,225.5 C 272.5,228.833 272.5,232.167 272.5,235.5C 266.5,236.5 260.5,237.5 254.5,238.5C 254.5,234.5 254.5,230.5 254.5,226.5C 257.104,224.561 259.438,224.561 261.5,226.5C 265.118,225.654 268.785,225.32 272.5,225.5 Z"/></g>
<g><path style="opacity:1" fill="#282d18" d="M 238.5,224.5 C 241.861,225.203 242.194,226.537 239.5,228.5C 237.358,227.563 237.024,226.23 238.5,224.5 Z"/></g>
<g><path style="opacity:1" fill="#fec90d" d="M 324.5,225.5 C 325.117,225.611 325.617,225.944 326,226.5C 326.667,229.5 326.667,232.5 326,235.5C 325.586,235.957 325.086,236.291 324.5,236.5C 323.317,232.825 323.317,229.159 324.5,225.5 Z"/></g>
<g><path style="opacity:1" fill="#c2c3c2" d="M 334.5,225.5 C 337.001,225.511 337.168,226.178 335,227.5C 333.967,230.217 334.8,232.051 337.5,233C 335.924,233.44 334.59,234.273 333.5,235.5C 332.645,233.392 331.978,231.226 331.5,229C 332.071,227.401 333.071,226.234 334.5,225.5 Z"/></g>
<g><path style="opacity:1" fill="#c2c3c2" d="M 328.5,227.5 C 329.965,229.686 330.298,232.019 329.5,234.5C 328.526,232.257 328.192,229.924 328.5,227.5 Z"/></g>
<g><path style="opacity:1" fill="#58662e" d="M 175.5,230.5 C 176.11,231.391 176.443,232.391 176.5,233.5C 171.852,232.338 167.185,231.171 162.5,230C 166.835,229.737 171.168,229.903 175.5,230.5 Z"/></g>
<g><path style="opacity:1" fill="#b77956" d="M 279.5,242.5 C 278.662,242.158 278.328,241.492 278.5,240.5C 278.5,239.167 278.5,237.833 278.5,236.5C 293.167,234.167 307.833,231.833 322.5,229.5C 322.5,231.833 322.5,234.167 322.5,236.5C 309.335,238.766 296.168,241.099 283,243.5C 281.744,243.352 280.577,243.018 279.5,242.5 Z"/></g>
<g><path style="opacity:1" fill="#58662e" d="M 214.5,234.5 C 216.568,237.685 217.901,241.352 218.5,245.5C 217.022,245.762 215.689,245.429 214.5,244.5C 212.956,243.253 211.456,241.92 210,240.5C 209.251,239.365 209.417,238.365 210.5,237.5C 211.901,236.479 213.235,235.479 214.5,234.5 Z"/></g>
<g><path style="opacity:1" fill="#58662e" d="M 224.5,243.5 C 222.517,243.843 221.183,243.176 220.5,241.5C 220.414,240.504 220.748,239.671 221.5,239C 232.251,234.761 233.251,236.261 224.5,243.5 Z"/></g>
<g><path style="opacity:1" fill="#fec90d" d="M 278.5,240.5 C 278.328,241.492 278.662,242.158 279.5,242.5C 279.196,244.796 278.196,245.129 276.5,243.5C 276.573,241.973 275.906,240.973 274.5,240.5C 274.461,238.641 275.294,237.308 277,236.5C 277.21,238.058 277.71,239.391 278.5,240.5 Z"/></g>
<g><path style="opacity:1" fill="#b47654" d="M 274.5,240.5 C 275.906,240.973 276.573,241.973 276.5,243.5C 271.601,245.387 266.434,246.72 261,247.5C 257.236,245.952 256.736,243.786 259.5,241C 263.883,239.988 268.216,238.821 272.5,237.5C 273.176,238.602 273.842,239.602 274.5,240.5 Z"/></g>
<g><path style="opacity:1" fill="#525e2c" d="M 186.5,240.5 C 185.735,243.096 185.401,245.763 185.5,248.5C 184.662,248.158 184.328,247.492 184.5,246.5C 182.96,244.49 181.96,242.156 181.5,239.5C 183.192,238.799 184.858,239.133 186.5,240.5 Z"/></g>
<g><path style="opacity:1" fill="#58662e" d="M 206.5,238.5 C 207.32,241.786 209.32,244.119 212.5,245.5C 207.94,247.18 203.274,248.013 198.5,248C 201.28,246.188 203.78,244.021 206,241.5C 206.483,240.552 206.649,239.552 206.5,238.5 Z"/></g>
<g><path style="opacity:1" fill="#adbe72" d="M 186.5,240.5 C 192.176,240.334 197.843,240.501 203.5,241C 200.678,243.913 197.345,246.08 193.5,247.5C 192.818,246.757 192.151,246.091 191.5,245.5C 190.292,244.218 188.958,244.218 187.5,245.5C 187.624,246.107 187.957,246.44 188.5,246.5C 188.573,248.027 187.906,249.027 186.5,249.5C 186.5,248.833 186.167,248.5 185.5,248.5C 185.401,245.763 185.735,243.096 186.5,240.5 Z"/></g>
<g><path style="opacity:1" fill="#f9a884" d="M 252.5,240.5 C 253.376,240.369 254.043,240.702 254.5,241.5C 255.712,245.377 257.379,249.044 259.5,252.5C 259.291,253.086 258.957,253.586 258.5,254C 254.167,254.667 249.833,254.667 245.5,254C 242.682,250.662 241.849,246.829 243,242.5C 243.828,251.81 244.328,251.81 244.5,242.5C 245.5,242.5 246.5,242.5 247.5,242.5C 247.338,244.527 247.505,246.527 248,248.5C 248.497,246.19 248.663,243.857 248.5,241.5C 249.5,241.5 250.5,241.5 251.5,241.5C 251.337,243.857 251.503,246.19 252,248.5C 252.497,245.854 252.664,243.187 252.5,240.5 Z"/></g>
<g><path style="opacity:1" fill="#b87a56" d="M 229.5,248.5 C 229.36,246.876 230.027,245.71 231.5,245C 234.513,244.498 237.513,243.998 240.5,243.5C 240.768,246.119 240.435,248.619 239.5,251C 236.487,251.502 233.487,252.002 230.5,252.5C 230.768,250.901 230.434,249.568 229.5,248.5 Z"/></g>
<g><path style="opacity:1" fill="#000000" d="M 191.5,245.5 C 190.209,245.263 189.209,245.596 188.5,246.5C 187.957,246.44 187.624,246.107 187.5,245.5C 188.958,244.218 190.292,244.218 191.5,245.5 Z"/></g>
<g><path style="opacity:1" fill="#b8b8b8" d="M 188.5,246.5 C 189.209,245.596 190.209,245.263 191.5,245.5C 191.261,247.467 191.594,249.301 192.5,251C 195.675,250.947 198.342,251.78 200.5,253.5C 197.33,255.425 193.997,256.758 190.5,257.5C 188.5,257.5 186.5,257.5 184.5,257.5C 184.158,256.662 183.492,256.328 182.5,256.5C 183.577,253.474 183.577,250.474 182.5,247.5C 182.957,246.702 183.624,246.369 184.5,246.5C 184.328,247.492 184.662,248.158 185.5,248.5C 186.167,248.5 186.5,248.833 186.5,249.5C 187.052,255.885 188.385,256.052 190.5,250C 190.192,248.541 189.525,247.374 188.5,246.5 Z"/></g>
<g><path style="opacity:1" fill="#fec90d" d="M 225.5,246.5 C 226.209,245.596 227.209,245.263 228.5,245.5C 228.263,246.791 228.596,247.791 229.5,248.5C 229.528,253.565 228.528,254.231 226.5,250.5C 226.768,248.901 226.434,247.568 225.5,246.5 Z"/></g>
<g><path style="opacity:1" fill="#000000" d="M 188.5,246.5 C 189.525,247.374 190.192,248.541 190.5,250C 188.385,256.052 187.052,255.885 186.5,249.5C 187.906,249.027 188.573,248.027 188.5,246.5 Z"/></g>
<g><path style="opacity:1" fill="#a86f4f" d="M 225.5,246.5 C 226.434,247.568 226.768,248.901 226.5,250.5C 226.5,251.5 226.5,252.5 226.5,253.5C 215.487,254.774 204.82,257.108 194.5,260.5C 193.005,260.011 191.671,259.345 190.5,258.5C 190.5,258.167 190.5,257.833 190.5,257.5C 193.997,256.758 197.33,255.425 200.5,253.5C 201.267,252.828 201.934,251.995 202.5,251C 210.149,249.337 217.815,247.837 225.5,246.5 Z"/></g>
<g><path style="opacity:1" fill="#eee4c7" d="M 278.5,246.5 C 279.873,246.343 281.207,246.51 282.5,247C 280.715,248.163 278.715,248.83 276.5,249C 270.835,249.801 265.168,250.134 259.5,250C 265.983,248.906 272.316,247.739 278.5,246.5 Z"/></g>
<g><path style="opacity:1" fill="#eee4c7" d="M 240.5,251.5 C 242.986,252.462 242.986,253.295 240.5,254C 227.119,256.916 213.786,259.082 200.5,260.5C 213.862,257.23 227.196,254.23 240.5,251.5 Z"/></g>
<g><path style="opacity:1" fill="#58662e" d="M 264.5,251.5 C 265.552,251.351 266.552,251.517 267.5,252C 262.988,257.216 257.322,258.882 250.5,257C 253.5,256.667 256.5,256.333 259.5,256C 261.497,254.807 263.164,253.307 264.5,251.5 Z"/></g>
<g><path style="opacity:1" fill="#f9a884" d="M 176.5,253.5 C 178.959,257.534 179.959,261.868 179.5,266.5C 178,264.167 176.5,261.833 175,259.5C 175.203,261.937 176.037,264.271 177.5,266.5C 177.192,267.308 176.692,267.975 176,268.5C 174.92,266.004 173.586,263.67 172,261.5C 172.079,263.846 172.912,266.013 174.5,268C 173.833,268.667 173.167,268.667 172.5,268C 171.624,266.414 170.624,264.914 169.5,263.5C 169.269,265.296 169.935,267.129 171.5,269C 169.887,269.089 168.72,268.255 168,266.5C 167.502,263.183 167.335,259.85 167.5,256.5C 170.854,256.253 173.854,255.253 176.5,253.5 Z"/></g>
<g><path style="opacity:1" fill="#b2784f" d="M 182.5,256.5 C 183.492,256.328 184.158,256.662 184.5,257.5C 185.833,258.167 187.167,258.833 188.5,259.5C 188.5,259.833 188.5,260.167 188.5,260.5C 188.318,265.794 187.818,265.794 187,260.5C 186.487,261.527 185.987,262.527 185.5,263.5C 181.457,263.151 179.457,260.818 179.5,256.5C 179.833,255.833 180.167,255.167 180.5,254.5C 181.182,255.243 181.849,255.909 182.5,256.5 Z"/></g>
<g><path style="opacity:1" fill="#adbe72" d="M 223.5,262.5 C 227.771,266.975 232.771,270.475 238.5,273C 240.833,273.667 243.167,273.667 245.5,273C 240.503,269.166 235.17,265.833 229.5,263C 227.959,261.629 226.625,260.129 225.5,258.5C 226.167,258.5 226.833,258.5 227.5,258.5C 231.552,261.86 236.219,264.193 241.5,265.5C 242.932,265.267 243.432,264.6 243,263.5C 240.604,260.933 238.104,258.6 235.5,256.5C 238.449,255.987 241.282,255.987 244,256.5C 243.949,265.806 246.449,274.306 251.5,282C 244.521,278.673 237.521,275.007 230.5,271C 227.553,268.564 225.22,265.731 223.5,262.5 Z"/></g>
<g><path style="opacity:1" fill="#58662e" d="M 235.5,256.5 C 238.104,258.6 240.604,260.933 243,263.5C 243.432,264.6 242.932,265.267 241.5,265.5C 236.219,264.193 231.552,261.86 227.5,258.5C 230.112,257.629 232.779,256.963 235.5,256.5 Z"/></g>
<g><path style="opacity:1" fill="#000000" d="M 184.5,257.5 C 186.5,257.5 188.5,257.5 190.5,257.5C 190.5,257.833 190.5,258.167 190.5,258.5C 189.833,258.833 189.167,259.167 188.5,259.5C 187.167,258.833 185.833,258.167 184.5,257.5 Z"/></g>
<g><path style="opacity:1" fill="#b87a56" d="M 162.5,258.5 C 163.822,258.33 164.989,258.663 166,259.5C 166.256,262.557 166.756,265.557 167.5,268.5C 162.283,272.031 157.116,275.698 152,279.5C 149.647,274.785 147.48,269.951 145.5,265C 145.905,264.055 146.572,263.388 147.5,263C 152.664,261.631 157.664,260.131 162.5,258.5 Z"/></g>
<g><path style="opacity:1" fill="#fec90d" d="M 190.5,258.5 C 191.671,259.345 193.005,260.011 194.5,260.5C 193.766,261.708 193.433,263.041 193.5,264.5C 192.833,264.5 192.5,264.833 192.5,265.5C 191.761,265.631 191.094,265.464 190.5,265C 193.318,262.131 192.652,260.631 188.5,260.5C 188.5,260.167 188.5,259.833 188.5,259.5C 189.167,259.167 189.833,258.833 190.5,258.5 Z"/></g>
<g><path style="opacity:1" fill="#58662e" d="M 225.5,258.5 C 226.625,260.129 227.959,261.629 229.5,263C 235.17,265.833 240.503,269.166 245.5,273C 243.167,273.667 240.833,273.667 238.5,273C 232.771,270.475 227.771,266.975 223.5,262.5C 222.503,262.53 221.836,262.03 221.5,261C 222.356,259.405 223.689,258.572 225.5,258.5 Z"/></g>
<g><path style="opacity:1" fill="#242111" d="M 188.5,260.5 C 192.652,260.631 193.318,262.131 190.5,265C 191.094,265.464 191.761,265.631 192.5,265.5C 191.71,266.401 190.71,267.068 189.5,267.5C 188.167,266.167 186.833,264.833 185.5,263.5C 185.987,262.527 186.487,261.527 187,260.5C 187.818,265.794 188.318,265.794 188.5,260.5 Z"/></g>
<g><path style="opacity:1" fill="#adbe72" d="M 179.5,325.5 C 178.198,322.893 178.364,320.227 180,317.5C 186.662,311.838 192.995,305.838 199,299.5C 203.884,290.619 209.551,282.286 216,274.5C 217.814,272.285 218.314,269.952 217.5,267.5C 214.415,272 211.582,276.667 209,281.5C 205.419,285.752 201.252,289.252 196.5,292C 195.668,292.688 195.002,292.521 194.5,291.5C 200.097,283.4 206.264,275.733 213,268.5C 213.798,266.741 213.631,265.074 212.5,263.5C 206.523,271.278 200.19,278.778 193.5,286C 185.671,290.08 178.004,294.413 170.5,299C 165.259,301.456 159.925,303.623 154.5,305.5C 151.611,303.225 150.944,300.392 152.5,297C 159.871,298.643 166.204,296.809 171.5,291.5C 175.331,291.751 178.664,290.584 181.5,288C 188.3,279.366 195.633,271.199 203.5,263.5C 208.696,261.391 214.03,260.724 219.5,261.5C 222.792,265.132 223.292,269.132 221,273.5C 209.203,292.463 195.37,309.796 179.5,325.5 Z"/></g>
<g><path style="opacity:1" fill="#57642e" d="M 203.5,263.5 C 195.633,271.199 188.3,279.366 181.5,288C 178.664,290.584 175.331,291.751 171.5,291.5C 173.168,289.66 174.668,287.66 176,285.5C 176.333,280.5 176.667,275.5 177,270.5C 179.397,268.218 182.231,266.884 185.5,266.5C 186.708,267.234 188.041,267.567 189.5,267.5C 190.71,267.068 191.71,266.401 192.5,265.5C 192.5,264.833 192.833,264.5 193.5,264.5C 194.151,263.909 194.818,263.243 195.5,262.5C 198.084,263.393 200.751,263.726 203.5,263.5 Z"/></g>
<g><path style="opacity:1" fill="#fec90d" d="M 185.5,263.5 C 186.833,264.833 188.167,266.167 189.5,267.5C 188.041,267.567 186.708,267.234 185.5,266.5C 184.167,265.5 184.167,264.5 185.5,263.5 Z"/></g>
<g><path style="opacity:1" fill="#58662e" d="M 179.5,325.5 C 179.627,327.915 179.793,330.249 180,332.5C 176.743,327.568 173.076,322.902 169,318.5C 163.622,314.735 158.789,310.402 154.5,305.5C 159.925,303.623 165.259,301.456 170.5,299C 178.004,294.413 185.671,290.08 193.5,286C 200.19,278.778 206.523,271.278 212.5,263.5C 213.631,265.074 213.798,266.741 213,268.5C 206.264,275.733 200.097,283.4 194.5,291.5C 195.002,292.521 195.668,292.688 196.5,292C 201.252,289.252 205.419,285.752 209,281.5C 211.582,276.667 214.415,272 217.5,267.5C 218.314,269.952 217.814,272.285 216,274.5C 209.551,282.286 203.884,290.619 199,299.5C 192.995,305.838 186.662,311.838 180,317.5C 178.364,320.227 178.198,322.893 179.5,325.5 Z"/></g>
<g><path style="opacity:1" fill="#828adb" d="M 226.5,270.5 C 223.557,273.353 223.89,275.686 227.5,277.5C 226.167,279.167 224.833,280.833 223.5,282.5C 227.662,285.66 231.662,288.993 235.5,292.5C 234.833,292.833 234.167,293.167 233.5,293.5C 230.843,291.998 228.177,290.831 225.5,290C 228.903,294.661 232.569,299.161 236.5,303.5C 236.333,303.833 236.167,304.167 236,304.5C 232.624,301.617 229.124,298.951 225.5,296.5C 225.703,294.61 225.037,293.11 223.5,292C 221.246,291.376 219.579,290.043 218.5,288C 217.167,287.667 215.833,287.333 214.5,287C 219.065,281.37 222.732,275.203 225.5,268.5C 226.298,268.957 226.631,269.624 226.5,270.5 Z"/></g>
<g><path style="opacity:1" fill="#9ea5e3" d="M 226.5,270.5 C 232.984,275.247 239.984,279.247 247.5,282.5C 250.407,293.198 252.74,304.032 254.5,315C 254.138,316.434 253.472,317.601 252.5,318.5C 249.232,320.656 245.899,320.823 242.5,319C 238.387,314.887 234.221,310.721 230,306.5C 229.333,307.5 229.333,308.5 230,309.5C 231.795,312.43 233.295,315.43 234.5,318.5C 234.714,320.942 233.714,322.608 231.5,323.5C 231.664,320.813 231.497,318.146 231,315.5C 228.464,309.284 226.63,302.95 225.5,296.5C 229.124,298.951 232.624,301.617 236,304.5C 236.167,304.167 236.333,303.833 236.5,303.5C 232.569,299.161 228.903,294.661 225.5,290C 228.177,290.831 230.843,291.998 233.5,293.5C 234.167,293.167 234.833,292.833 235.5,292.5C 231.662,288.993 227.662,285.66 223.5,282.5C 224.833,280.833 226.167,279.167 227.5,277.5C 223.89,275.686 223.557,273.353 226.5,270.5 Z"/></g>
<g><path style="opacity:1" fill="#9ea5e3" d="M 173.5,280.5 C 174.748,284.363 173.414,287.363 169.5,289.5C 168.417,288.635 168.251,287.635 169,286.5C 170.332,284.34 171.832,282.34 173.5,280.5 Z"/></g>
<g><path style="opacity:1" fill="#58662e" d="M 250.5,284.5 C 260.176,292.187 264.176,302.187 262.5,314.5C 260.604,315.466 258.604,315.799 256.5,315.5C 255.012,305.059 253.012,294.726 250.5,284.5 Z"/></g>
<g><path style="opacity:1" fill="#828adb" d="M 204.5,299.5 C 205.097,299.735 205.43,300.235 205.5,301C 202.592,308.129 199.758,315.295 197,322.5C 192.99,326.082 188.823,326.248 184.5,323C 192.525,316.156 199.192,308.322 204.5,299.5 Z"/></g>
<g><path style="opacity:1" fill="#7e86d5" d="M 252.5,318.5 C 253.809,320.571 254.475,323.071 254.5,326C 254.353,330.87 253.853,335.703 253,340.5C 248.268,349.156 246.768,358.323 248.5,368C 247.66,369.767 246.327,371.101 244.5,372C 238.107,372.658 232.107,371.491 226.5,368.5C 228.607,364.086 230.107,359.419 231,354.5C 231.333,348.167 231.667,341.833 232,335.5C 232.718,336.451 233.551,336.617 234.5,336C 236.62,333.591 238.62,331.091 240.5,328.5C 239.998,327.479 239.332,327.312 238.5,328C 236.641,329.558 235.141,331.391 234,333.5C 233.854,329.942 233.021,326.609 231.5,323.5C 233.714,322.608 234.714,320.942 234.5,318.5C 233.295,315.43 231.795,312.43 230,309.5C 229.333,308.5 229.333,307.5 230,306.5C 234.221,310.721 238.387,314.887 242.5,319C 245.899,320.823 249.232,320.656 252.5,318.5 Z"/></g>
<g><path style="opacity:1" fill="#000000" d="M 241.5,331.5 C 242.376,331.369 243.043,331.702 243.5,332.5C 242.231,336.054 240.231,339.054 237.5,341.5C 237.167,341.167 236.833,340.833 236.5,340.5C 238.432,337.634 240.099,334.634 241.5,331.5 Z"/></g>
</svg>
