<?xml version="1.0" encoding="UTF-8"?>
<!DOCTYPE svg PUBLIC "-//W3C//DTD SVG 1.1//EN" "http://www.w3.org/Graphics/SVG/1.1/DTD/svg11.dtd">
<svg xmlns="http://www.w3.org/2000/svg" version="1.1" width="311px" height="424px" style="shape-rendering:geometricPrecision; text-rendering:geometricPrecision; image-rendering:optimizeQuality; fill-rule:evenodd; clip-rule:evenodd" xmlns:xlink="http://www.w3.org/1999/xlink">
<g><path style="opacity:1" fill="#fefffe" d="M 131.5,19.5 C 136.844,19.334 142.177,19.5006 147.5,20C 150.034,20.5163 152.2,21.683 154,23.5C 154.5,32.1603 154.666,40.8269 154.5,49.5C 164.712,52.024 173.546,57.024 181,64.5C 183.071,73.3739 181.238,81.2073 175.5,88C 175.833,88.3333 176.167,88.6667 176.5,89C 181.721,90.2323 187.054,90.8989 192.5,91C 193.878,92.7134 195.545,94.0467 197.5,95C 205.522,95.0853 211.355,98.5853 215,105.5C 216.219,112.421 216.886,119.421 217,126.5C 219.794,135.215 222.794,143.882 226,152.5C 226.667,159.167 226.667,165.833 226,172.5C 224.833,174.833 223.667,177.167 222.5,179.5C 225.733,184.555 230.4,187.722 236.5,189C 243.481,197.801 245.314,207.634 242,218.5C 241.363,220.303 240.197,221.636 238.5,222.5C 242.474,228.307 246.64,233.974 251,239.5C 251.333,241.833 251.667,244.167 252,246.5C 256.645,250.655 261.645,254.322 267,257.5C 267.667,261.833 267.667,266.167 267,270.5C 266.5,271 266,271.5 265.5,272C 262,272.167 258.5,272.333 255,272.5C 250.719,272.601 246.552,272.101 242.5,271C 235,263.5 227.5,256 220,248.5C 214.589,262.399 209.755,276.566 205.5,291C 207.392,294.675 208.892,298.509 210,302.5C 213.385,306.217 216.385,310.217 219,314.5C 219.699,327.359 221.699,340.025 225,352.5C 229.367,359.872 230.701,367.872 229,376.5C 224.13,381.715 218.463,385.715 212,388.5C 200.851,389.588 189.685,389.755 178.5,389C 177.667,388.167 176.833,387.333 176,386.5C 175.333,381.833 175.333,377.167 176,372.5C 178.748,370.542 181.582,368.709 184.5,367C 186.5,364 188.5,361 190.5,358C 188.383,350.592 185.55,343.426 182,336.5C 181.333,335.833 180.667,335.167 180,334.5C 177.292,338.104 173.792,340.604 169.5,342C 162.06,342.928 154.726,342.594 147.5,341C 146.299,340.097 145.465,338.931 145,337.5C 144.333,332.5 144.333,327.5 145,322.5C 147.599,319.777 150.099,316.943 152.5,314C 140.839,304.667 127.839,297.667 113.5,293C 108.779,288.557 103.612,284.724 98,281.5C 94.6667,274.167 94.6667,266.833 98,259.5C 101.611,253.556 105.611,247.889 110,242.5C 118.984,232.682 128.151,223.015 137.5,213.5C 121.398,211.65 105.398,209.817 89.5,208C 89.0722,205.371 88.0722,203.038 86.5,201C 78.3531,199.81 70.6864,197.31 63.5,193.5C 57.8862,194.621 52.2195,194.788 46.5,194C 44.8333,192.333 43.1667,190.667 41.5,189C 36.1327,188.597 30.7993,187.93 25.5,187C 22.7435,182.641 21.7435,177.808 22.5,172.5C 27.1271,172.427 31.4604,171.26 35.5,169C 44.1301,167.914 52.7968,167.247 61.5,167C 68.2066,165.648 74.8733,164.482 81.5,163.5C 79.1085,156.059 77.2751,148.393 76,140.5C 75.3333,132.167 75.3333,123.833 76,115.5C 77.6933,112.228 80.1933,109.728 83.5,108C 93.3528,106.917 103.02,107.75 112.5,110.5C 112.674,108.139 113.007,105.806 113.5,103.5C 112.178,103.67 111.011,103.337 110,102.5C 109.333,97.8333 109.333,93.1667 110,88.5C 111.932,86.9617 114.099,85.795 116.5,85C 117.893,83.8289 118.727,82.3289 119,80.5C 120.793,66.5308 122.459,52.5308 124,38.5C 124.615,36.8839 125.615,35.5505 127,34.5C 127.333,30.5 127.667,26.5 128,22.5C 129.518,21.8366 130.685,20.8366 131.5,19.5 Z M 116.5,169.5 C 118.043,170.736 119.043,172.402 119.5,174.5C 118.675,175.386 117.675,175.719 116.5,175.5C 116.5,173.5 116.5,171.5 116.5,169.5 Z M 164.5,260.5 C 165.124,260.917 165.457,261.584 165.5,262.5C 165,264.5 164.5,266.5 164,268.5C 162.786,266.951 161.286,265.785 159.5,265C 161.618,263.951 163.284,262.451 164.5,260.5 Z"/></g>
<g><path style="opacity:1" fill="#010000" d="M 134.5,22.5 C 140.605,21.651 146.105,22.9843 151,26.5C 151.956,30.572 151.456,34.4054 149.5,38C 150.126,38.7504 150.626,39.5838 151,40.5C 151.499,44.4862 151.666,48.4862 151.5,52.5C 161.712,55.024 170.546,60.024 178,67.5C 178.667,70.5 178.667,73.5 178,76.5C 175.916,80.3359 173.583,84.0026 171,87.5C 170.251,88.635 170.417,89.635 171.5,90.5C 173.583,91.9587 175.75,93.2921 178,94.5C 184.276,92.3364 189.776,93.503 194.5,98C 207.562,98.6356 213.895,105.469 213.5,118.5C 213.333,120.833 213.167,123.167 213,125.5C 212.5,126 212,126.5 211.5,127C 213.049,128.214 214.215,129.714 215,131.5C 217.263,139.621 219.929,147.621 223,155.5C 224.356,162.576 223.356,169.243 220,175.5C 217.913,176.794 215.746,177.961 213.5,179C 217.78,180.947 221.113,183.947 223.5,188C 236.064,191.269 241.564,199.436 240,212.5C 239.529,214.246 238.862,215.913 238,217.5C 235.863,218.479 234.029,219.812 232.5,221.5C 237.667,228.5 242.833,235.5 248,242.5C 248.333,244.833 248.667,247.167 249,249.5C 253.645,253.655 258.645,257.322 264,260.5C 264.978,263.669 264.478,266.503 262.5,269C 257.5,269.667 252.5,269.667 247.5,269C 237.029,259.53 226.863,249.697 217,239.5C 217.344,245.796 215.677,251.463 212,256.5C 209.265,268.537 205.432,280.204 200.5,291.5C 203.471,295.776 205.637,300.442 207,305.5C 211.989,309.818 215.323,315.151 217,321.5C 217.148,333.057 218.815,344.39 222,355.5C 226.186,360.816 227.519,366.816 226,373.5C 213.783,385.991 198.95,390.157 181.5,386C 178.606,383.091 177.773,379.591 179,375.5C 182,373.5 185,371.5 188,369.5C 190.767,366.08 192.6,362.247 193.5,358C 191.592,346.768 187.258,336.601 180.5,327.5C 173.149,338.68 163.149,342.18 150.5,338C 147.64,334.319 146.807,330.152 148,325.5C 150.333,322.833 152.667,320.167 155,317.5C 155.667,315.167 155.667,312.833 155,310.5C 143.421,301.458 130.588,294.625 116.5,290C 112.033,285.6 107.033,281.934 101.5,279C 98.7575,275.239 97.9241,271.072 99,266.5C 105.461,254.702 113.461,244.035 123,234.5C 131.093,227.245 138.26,219.245 144.5,210.5C 127.046,208.789 109.712,206.955 92.5,205C 91.8875,202.853 91.2208,200.686 90.5,198.5C 83.0308,196.773 75.6974,194.607 68.5,192C 66.9095,190.954 65.4095,189.787 64,188.5C 56.6661,193.219 50.1661,192.386 44.5,186C 39.1327,185.597 33.7993,184.93 28.5,184C 26.0695,181.695 25.0695,178.862 25.5,175.5C 30.1271,175.427 34.4604,174.26 38.5,172C 47.1301,170.914 55.7968,170.247 64.5,170C 71.8682,168.594 79.2015,167.26 86.5,166C 80.398,150.809 77.898,134.975 79,118.5C 83.3482,110.892 89.8482,108.392 98.5,111C 104.094,112.273 109.594,113.773 115,115.5C 114.943,110.995 116.443,107.161 119.5,104C 118.212,101.292 116.045,99.792 113,99.5C 110.762,93.0727 112.928,89.2393 119.5,88C 120.893,86.8289 121.727,85.3289 122,83.5C 123.097,73.1465 124.431,62.8131 126,52.5C 126.87,51.8921 127.37,51.0588 127.5,50C 125.653,45.2437 126.486,41.0771 130,37.5C 130.333,33.5 130.667,29.5 131,25.5C 132.518,24.8366 133.685,23.8366 134.5,22.5 Z M 116.5,169.5 C 116.5,171.5 116.5,173.5 116.5,175.5C 117.675,175.719 118.675,175.386 119.5,174.5C 119.043,172.402 118.043,170.736 116.5,169.5 Z M 164.5,260.5 C 163.284,262.451 161.618,263.951 159.5,265C 161.286,265.785 162.786,266.951 164,268.5C 164.5,266.5 165,264.5 165.5,262.5C 165.457,261.584 165.124,260.917 164.5,260.5 Z"/></g>
<g><path style="opacity:1" fill="#c01f1f" d="M 140.5,31.5 C 140.657,32.8734 140.49,34.2068 140,35.5C 139.617,34.944 139.117,34.6107 138.5,34.5C 137.566,33.4324 137.232,32.099 137.5,30.5C 137.312,28.8967 137.812,27.5634 139,26.5C 139.198,28.3817 139.698,30.0484 140.5,31.5 Z"/></g>
<g><path style="opacity:1" fill="#ec1c23" d="M 143.5,31.5 C 142.71,32.6085 142.21,33.9419 142,35.5C 141.79,33.9419 141.29,32.6085 140.5,31.5C 140.34,29.8008 140.506,28.1341 141,26.5C 142.892,27.6174 143.725,29.2841 143.5,31.5 Z"/></g>
<g><path style="opacity:1" fill="#ec1c23" d="M 143.5,31.5 C 144.465,27.6179 145.465,27.6179 146.5,31.5C 144.621,36.448 143.621,36.448 143.5,31.5 Z"/></g>
<g><path style="opacity:1" fill="#ec1c23" d="M 137.5,30.5 C 137.232,32.099 137.566,33.4324 138.5,34.5C 137.434,35.6921 136.601,35.3588 136,33.5C 135.333,32.1667 135.333,30.8333 136,29.5C 136.383,30.056 136.883,30.3893 137.5,30.5 Z"/></g>
<g><path style="opacity:1" fill="#ec1c23" d="M 138.5,37.5 C 140.288,37.2148 141.955,37.5481 143.5,38.5C 145.603,41.6647 146.77,44.998 147,48.5C 145.136,51.2072 142.636,52.0405 139.5,51C 129.242,47.2635 128.909,42.7635 138.5,37.5 Z"/></g>
<g><path style="opacity:1" fill="#fefffe" d="M 139.5,58.5 C 138.662,58.8417 138.328,59.5084 138.5,60.5C 137.766,61.9293 136.599,62.9293 135,63.5C 133.97,63.1639 133.47,62.4972 133.5,61.5C 135.89,61.3152 136.89,59.9818 136.5,57.5C 136.66,55.6455 135.993,54.3121 134.5,53.5C 135.26,50.0401 136.76,49.7068 139,52.5C 139.495,54.4727 139.662,56.4727 139.5,58.5 Z"/></g>
<g><path style="opacity:1" fill="#ec1c23" d="M 134.5,53.5 C 135.993,54.3121 136.66,55.6455 136.5,57.5C 136.89,59.9818 135.89,61.3152 133.5,61.5C 133.167,61.5 132.833,61.5 132.5,61.5C 131.89,60.609 131.557,59.609 131.5,58.5C 132.985,59.9349 134.318,59.7683 135.5,58C 134.318,56.2317 132.985,56.0651 131.5,57.5C 132.211,55.9699 133.211,54.6366 134.5,53.5 Z"/></g>
<g><path style="opacity:1" fill="#dc1e22" d="M 155.5,89.5 C 153.833,89.5 152.167,89.5 150.5,89.5C 150.666,81.16 150.5,72.8267 150,64.5C 148.247,63.373 146.413,62.373 144.5,61.5C 143.289,60.7261 143.289,59.8928 144.5,59C 142.68,59.4759 141.013,59.3093 139.5,58.5C 140.163,56.9581 140.83,55.2914 141.5,53.5C 142.354,54.5217 143.354,55.3551 144.5,56C 155.486,58.9921 165.153,64.3254 173.5,72C 169.353,77.7926 165.853,83.9593 163,90.5C 161.333,92.1667 159.667,93.8333 158,95.5C 157.062,93.5115 156.228,91.5115 155.5,89.5 Z"/></g>
<g><path style="opacity:1" fill="#3f47cc" d="M 131.5,58.5 C 131.5,58.1667 131.5,57.8333 131.5,57.5C 132.985,56.0651 134.318,56.2317 135.5,58C 134.318,59.7683 132.985,59.9349 131.5,58.5 Z"/></g>
<g><path style="opacity:1" fill="#1b1b1b" d="M 138.5,60.5 C 142.003,61.5018 145.17,63.1685 148,65.5C 148.667,73.5 148.667,81.5 148,89.5C 142.364,84.9545 135.864,82.7878 128.5,83C 130.708,82.8091 132.708,82.3091 134.5,81.5C 136.973,79.8568 138.973,77.6902 140.5,75C 137.996,74.3024 135.663,73.4691 133.5,72.5C 133.5,72.1667 133.5,71.8333 133.5,71.5C 136.657,70.173 137.824,67.8396 137,64.5C 136.576,66.6145 135.409,67.4479 133.5,67C 132.594,65.3005 132.261,63.4672 132.5,61.5C 132.833,61.5 133.167,61.5 133.5,61.5C 133.47,62.4972 133.97,63.1639 135,63.5C 136.599,62.9293 137.766,61.9293 138.5,60.5 Z"/></g>
<g><path style="opacity:1" fill="#fec90d" d="M 132.5,61.5 C 132.261,63.4672 132.594,65.3005 133.5,67C 135.409,67.4479 136.576,66.6145 137,64.5C 137.824,67.8396 136.657,70.173 133.5,71.5C 131.571,71.7692 129.905,71.2692 128.5,70C 130.884,68.0213 131.551,65.688 130.5,63C 130.836,61.9701 131.503,61.4701 132.5,61.5 Z"/></g>
<g><path style="opacity:1" fill="#151515" d="M 155.5,89.5 C 155.169,82.1365 155.503,74.8032 156.5,67.5C 160.663,70.5009 164.663,73.6675 168.5,77C 165.41,81.1666 162.076,85.1666 158.5,89C 157.552,89.4828 156.552,89.6495 155.5,89.5 Z"/></g>
<g><path style="opacity:1" fill="#fec90d" d="M 133.5,72.5 C 135.663,73.4691 137.996,74.3024 140.5,75C 138.973,77.6902 136.973,79.8568 134.5,81.5C 132.5,81.5 130.5,81.5 128.5,81.5C 128.337,79.1432 128.503,76.8098 129,74.5C 130.11,72.9632 131.61,72.2965 133.5,72.5 Z"/></g>
<g><path style="opacity:1" fill="#ec1c23" d="M 127.5,85.5 C 135.169,84.7789 141.835,86.9455 147.5,92C 146.929,93.2051 146.262,94.3717 145.5,95.5C 139.381,92.5716 133.048,90.2382 126.5,88.5C 127.127,87.5832 127.461,86.5832 127.5,85.5 Z"/></g>
<g><path style="opacity:1" fill="#fec90d" d="M 151.5,91.5 C 152.5,91.5 153.5,91.5 154.5,91.5C 155.167,93.8194 155.334,96.1527 155,98.5C 151.576,100.267 149.41,99.2671 148.5,95.5C 148.787,93.5567 149.787,92.2233 151.5,91.5 Z"/></g>
<g><path style="opacity:1" fill="#d6d6d6" d="M 169.5,97.5 C 168.486,98.6737 167.153,99.3404 165.5,99.5C 164.351,99.2089 163.684,98.3756 163.5,97C 163.528,95.9302 163.861,95.0968 164.5,94.5C 165.251,93.4265 166.251,93.2599 167.5,94C 168.328,94.9147 169.328,95.5814 170.5,96C 169.944,96.3826 169.611,96.8826 169.5,97.5 Z"/></g>
<g><path style="opacity:1" fill="#000000" d="M 164.5,94.5 C 166.983,94.73 167.483,95.3966 166,96.5C 164.97,96.1639 164.47,95.4972 164.5,94.5 Z"/></g>
<g><path style="opacity:1" fill="#fefffe" d="M 169.5,97.5 C 170.239,97.369 170.906,97.5357 171.5,98C 163.295,105.656 160.795,114.823 164,125.5C 160.434,116.575 160.934,107.909 165.5,99.5C 167.153,99.3404 168.486,98.6737 169.5,97.5 Z"/></g>
<g><path style="opacity:1" fill="#fefffe" d="M 181.5,97.5 C 183.958,97.2275 185.625,98.2275 186.5,100.5C 183.9,103.488 181.9,103.154 180.5,99.5C 180.863,98.8165 181.196,98.1499 181.5,97.5 Z"/></g>
<g><path style="opacity:1" fill="#c1601d" d="M 141.5,105.5 C 137.869,106.728 134.203,107.895 130.5,109C 132.234,112.672 133.067,116.506 133,120.5C 131.922,115.599 130.256,110.932 128,106.5C 127.667,108.167 127.333,109.833 127,111.5C 126.434,108.771 124.934,106.771 122.5,105.5C 122.683,103.064 122.016,100.897 120.5,99C 128.598,98.1136 136.598,98.6136 144.5,100.5C 143.725,102.396 142.725,104.063 141.5,105.5 Z"/></g>
<g><path style="opacity:1" fill="#000000" d="M 182.5,98.5 C 184.337,98.6395 184.67,99.3061 183.5,100.5C 182.702,100.043 182.369,99.3764 182.5,98.5 Z"/></g>
<g><path style="opacity:1" fill="#000000" d="M 136.5,100.5 C 133.014,101.238 129.681,102.071 126.5,103C 129.378,99.6962 132.711,98.8629 136.5,100.5 Z"/></g>
<g><path style="opacity:1" fill="#fec90d" d="M 147.5,99.5 C 148.627,100.122 149.627,100.955 150.5,102C 146.372,109.755 142.372,117.589 138.5,125.5C 137.084,127.139 135.417,127.973 133.5,128C 138.021,118.459 142.687,108.959 147.5,99.5 Z"/></g>
<g><path style="opacity:1" fill="#ec1c23" d="M 156.5,99.5 C 160.222,100.991 161.055,103.325 159,106.5C 157.5,105 156,103.5 154.5,102C 155.381,101.292 156.047,100.458 156.5,99.5 Z"/></g>
<g><path style="opacity:1" fill="#c8b87d" d="M 172.5,99.5 C 175.604,98.9711 177.937,99.9711 179.5,102.5C 173.893,110.381 173.227,118.548 177.5,127C 173.708,127.286 170.208,126.453 167,124.5C 164.012,117.799 164.345,111.465 168,105.5C 169.752,103.649 171.252,101.649 172.5,99.5 Z"/></g>
<g><path style="opacity:1" fill="#000000" d="M 136.5,100.5 C 138.344,101.204 138.844,102.537 138,104.5C 137.59,103.099 137.09,101.766 136.5,100.5 Z"/></g>
<g><path style="opacity:1" fill="#c8b87d" d="M 187.5,102.5 C 192.31,103.095 196.976,104.262 201.5,106C 191.865,111.777 188.031,120.277 190,131.5C 184.493,129.515 181.66,125.515 181.5,119.5C 182.652,113.53 184.652,107.863 187.5,102.5 Z"/></g>
<g><path style="opacity:1" fill="#222222" d="M 129.5,103.5 C 131.288,103.215 132.955,103.548 134.5,104.5C 132.203,107.29 130.536,106.956 129.5,103.5 Z"/></g>
<g><path style="opacity:1" fill="#fefffe" d="M 181.5,103.5 C 182.675,103.281 183.675,103.614 184.5,104.5C 179.449,112.063 178.282,120.063 181,128.5C 175.079,120.138 175.246,111.805 181.5,103.5 Z"/></g>
<g><path style="opacity:1" fill="#f2a381" d="M 155.5,113.5 C 154.128,114.512 152.795,115.512 151.5,116.5C 150.065,118.401 148.398,118.734 146.5,117.5C 146.389,116.883 146.056,116.383 145.5,116C 147.5,112.333 149.5,108.667 151.5,105C 152.784,104.316 153.951,104.483 155,105.5C 155.497,108.146 155.664,110.813 155.5,113.5 Z"/></g>
<g><path style="opacity:1" fill="#f5a482" d="M 122.5,105.5 C 124.934,106.771 126.434,108.771 127,111.5C 127.333,109.833 127.667,108.167 128,106.5C 130.256,110.932 131.922,115.599 133,120.5C 133.067,116.506 132.234,112.672 130.5,109C 134.203,107.895 137.869,106.728 141.5,105.5C 138.77,112.183 135.937,118.85 133,125.5C 132.167,126.333 131.333,127.167 130.5,128C 127.518,128.498 124.518,128.665 121.5,128.5C 119.481,127.462 119.147,126.128 120.5,124.5C 123.35,123.816 125.85,122.482 128,120.5C 128.772,120.645 129.439,120.978 130,121.5C 130.765,119.934 130.598,118.601 129.5,117.5C 129.306,115.088 127.973,114.088 125.5,114.5C 123.302,113.835 120.969,113.168 118.5,112.5C 119.094,109.692 120.427,107.359 122.5,105.5 Z"/></g>
<g><path style="opacity:1" fill="#7d543d" d="M 158.5,110.5 C 158.768,112.099 158.434,113.432 157.5,114.5C 156.732,115.263 156.232,116.263 156,117.5C 155.329,118.252 154.496,118.586 153.5,118.5C 152.833,117.833 152.167,117.167 151.5,116.5C 152.795,115.512 154.128,114.512 155.5,113.5C 156.309,111.708 156.809,109.708 157,107.5C 158.039,108.244 158.539,109.244 158.5,110.5 Z"/></g>
<g><path style="opacity:1" fill="#c8b87d" d="M 157.5,114.5 C 158.434,113.432 158.768,112.099 158.5,110.5C 159.268,109.737 159.768,108.737 160,107.5C 159.5,111.018 159.666,114.518 160.5,118C 159.898,119.563 159.065,119.396 158,117.5C 157.517,116.552 157.351,115.552 157.5,114.5 Z"/></g>
<g><path style="opacity:1" fill="#c8b87d" d="M 199.5,108.5 C 201.582,108.472 203.416,109.139 205,110.5C 205.748,112.332 206.748,113.999 208,115.5C 208.667,117.5 208.667,119.5 208,121.5C 205.303,124.858 202.636,128.191 200,131.5C 198.333,132.5 196.667,133.5 195,134.5C 190.663,127.826 190.663,121.159 195,114.5C 197.102,112.905 198.602,110.905 199.5,108.5 Z"/></g>
<g><path style="opacity:1" fill="#000000" d="M 150.5,110.5 C 151.568,109.566 152.901,109.232 154.5,109.5C 154.934,112.166 153.934,113.333 151.5,113C 154.332,111.092 153.999,110.259 150.5,110.5 Z"/></g>
<g><path style="opacity:1" fill="#000000" d="M 199.5,114.5 C 200.568,113.566 201.901,113.232 203.5,113.5C 203.752,116.32 203.252,118.986 202,121.5C 200.989,122.337 199.822,122.67 198.5,122.5C 198.457,118.107 198.957,117.774 200,121.5C 201.903,119.559 202.736,117.226 202.5,114.5C 201.5,114.5 200.5,114.5 199.5,114.5 Z"/></g>
<g><path style="opacity:1" fill="#9d6d53" d="M 125.5,114.5 C 127.973,114.088 129.306,115.088 129.5,117.5C 129.209,118.649 128.376,119.316 127,119.5C 123.839,119.703 120.673,119.203 117.5,118C 119.372,115.056 122.039,113.889 125.5,114.5 Z"/></g>
<g><path style="opacity:1" fill="#000000" d="M 199.5,114.5 C 197.167,117.614 195.501,121.114 194.5,125C 195.126,125.75 195.626,126.584 196,127.5C 198.183,125.817 200.35,125.15 202.5,125.5C 200.402,126.632 198.235,127.632 196,128.5C 194.558,127.788 193.725,126.621 193.5,125C 194.536,122.226 195.369,119.393 196,116.5C 196.816,115.177 197.983,114.511 199.5,114.5 Z"/></g>
<g><path style="opacity:1" fill="#3f47cc" d="M 106.5,143.5 C 104.317,138.473 101.483,133.807 98,129.5C 97.6753,131.553 98.0087,133.553 99,135.5C 100.697,138.672 102.53,141.672 104.5,144.5C 104.5,145.5 104.5,146.5 104.5,147.5C 98.5138,146.384 92.5138,146.384 86.5,147.5C 86.0929,143.797 85.4263,140.13 84.5,136.5C 84.8333,135.833 85.1667,135.167 85.5,134.5C 88.7488,136.853 92.0821,137.019 95.5,135C 91.4939,134.888 87.8272,133.722 84.5,131.5C 83.1667,129.833 83.1667,128.167 84.5,126.5C 87.4327,127.93 89.9327,129.93 92,132.5C 92.065,129.802 90.8983,127.636 88.5,126C 82.4351,124.311 82.1018,121.644 87.5,118C 89.0672,116.924 90.7338,116.091 92.5,115.5C 99.0255,116.879 105.359,118.712 111.5,121C 107.872,122.792 105.539,125.625 104.5,129.5C 106.137,134.107 108.304,138.44 111,142.5C 112.845,144.35 114.845,144.683 117,143.5C 117.781,144.944 117.614,146.277 116.5,147.5C 113.177,145.952 109.843,144.619 106.5,143.5 Z"/></g>
<g><path style="opacity:1" fill="#b95d1d" d="M 151.5,116.5 C 152.167,117.167 152.833,117.833 153.5,118.5C 150.522,122.633 146.689,125.966 142,128.5C 141.308,127.975 140.808,127.308 140.5,126.5C 141.804,122.851 143.804,119.851 146.5,117.5C 148.398,118.734 150.065,118.401 151.5,116.5 Z"/></g>
<g><path style="opacity:1" fill="#c7c7c7" d="M 158.5,122.5 C 153.541,127.985 147.541,131.985 140.5,134.5C 139.529,135.962 139.862,137.295 141.5,138.5C 142.738,140.214 143.405,142.214 143.5,144.5C 143.719,145.675 143.386,146.675 142.5,147.5C 139.883,143.151 137.55,138.651 135.5,134C 143.617,130.529 150.783,125.695 157,119.5C 158.039,120.244 158.539,121.244 158.5,122.5 Z"/></g>
<g><path style="opacity:1" fill="#d91e22" d="M 120.5,124.5 C 119.147,126.128 119.481,127.462 121.5,128.5C 121.918,129.222 122.584,129.722 123.5,130C 121.065,134.218 118.398,138.218 115.5,142C 114.551,142.617 113.718,142.451 113,141.5C 112.042,139.376 110.875,137.376 109.5,135.5C 110.949,134.828 112.282,134.161 113.5,133.5C 113.842,132.662 114.508,132.328 115.5,132.5C 118.853,132.655 119.186,131.988 116.5,130.5C 116.167,129.5 115.5,128.833 114.5,128.5C 114.5,127.5 114.5,126.5 114.5,125.5C 112.833,125.5 111.167,125.5 109.5,125.5C 112.23,123.187 115.396,121.52 119,120.5C 119.791,121.745 120.291,123.078 120.5,124.5 Z"/></g>
<g><path style="opacity:1" fill="#ec1c23" d="M 158.5,122.5 C 160.497,124.513 162.164,126.846 163.5,129.5C 158.669,134.537 154.335,139.87 150.5,145.5C 149.508,145.328 148.842,145.662 148.5,146.5C 146.446,146.635 144.779,145.968 143.5,144.5C 143.405,142.214 142.738,140.214 141.5,138.5C 141.567,137.041 141.234,135.708 140.5,134.5C 147.541,131.985 153.541,127.985 158.5,122.5 Z"/></g>
<g><path style="opacity:1" fill="#c11f1f" d="M 109.5,125.5 C 111.294,126.233 112.961,127.233 114.5,128.5C 113.833,129.167 113.167,129.833 112.5,130.5C 112.44,131.043 112.107,131.376 111.5,131.5C 109.974,131.006 108.641,130.339 107.5,129.5C 107.229,127.62 107.896,126.287 109.5,125.5 Z"/></g>
<g><path style="opacity:1" fill="#000000" d="M 109.5,125.5 C 111.167,125.5 112.833,125.5 114.5,125.5C 114.5,126.5 114.5,127.5 114.5,128.5C 112.961,127.233 111.294,126.233 109.5,125.5 Z"/></g>
<g><path style="opacity:1" fill="#000000" d="M 114.5,128.5 C 115.5,128.833 116.167,129.5 116.5,130.5C 115.167,130.5 113.833,130.5 112.5,130.5C 113.167,129.833 113.833,129.167 114.5,128.5 Z"/></g>
<g><path style="opacity:1" fill="#6e0010" d="M 169.5,129.5 C 176.321,128.866 182.988,130.199 189.5,133.5C 190.489,138.969 191.989,144.302 194,149.5C 197.796,158.085 201.296,166.752 204.5,175.5C 202.712,175.785 201.045,175.452 199.5,174.5C 197,169.5 194.5,164.5 192,159.5C 190.871,153.521 189.871,147.521 189,141.5C 183.471,138.832 178.638,135.332 174.5,131C 172.975,129.991 171.308,129.491 169.5,129.5 Z"/></g>
<g><path style="opacity:1" fill="#1b1f65" d="M 106.5,143.5 C 105.833,143.833 105.167,144.167 104.5,144.5C 102.53,141.672 100.697,138.672 99,135.5C 98.0087,133.553 97.6753,131.553 98,129.5C 101.483,133.807 104.317,138.473 106.5,143.5 Z"/></g>
<g><path style="opacity:1" fill="#ec1c23" d="M 107.5,129.5 C 108.641,130.339 109.974,131.006 111.5,131.5C 112.107,131.376 112.44,131.043 112.5,130.5C 113.833,130.5 115.167,130.5 116.5,130.5C 116.167,131.167 115.833,131.833 115.5,132.5C 114.508,132.328 113.842,132.662 113.5,133.5C 110.404,134.093 108.071,133.093 106.5,130.5C 106.624,129.893 106.957,129.56 107.5,129.5 Z"/></g>
<g><path style="opacity:1" fill="#fefffe" d="M 125.5,129.5 C 127.167,129.5 128.833,129.5 130.5,129.5C 129.595,134.698 127.428,139.364 124,143.5C 124.22,147.248 122.887,150.248 120,152.5C 119.333,148.833 119.333,145.167 120,141.5C 121.588,137.328 123.421,133.328 125.5,129.5 Z"/></g>
<g><path style="opacity:1" fill="#000000" d="M 116.5,130.5 C 119.186,131.988 118.853,132.655 115.5,132.5C 115.833,131.833 116.167,131.167 116.5,130.5 Z"/></g>
<g><path style="opacity:1" fill="#fefffe" d="M 166.5,130.5 C 169.516,130.841 172.182,132.007 174.5,134C 172.456,134.048 170.456,133.548 168.5,132.5C 166.545,134.958 164.378,137.291 162,139.5C 160.826,143.046 160.16,146.713 160,150.5C 157.907,153.044 156.907,156.044 157,159.5C 156,160.833 155,162.167 154,163.5C 151.459,149.922 155.626,138.922 166.5,130.5 Z"/></g>
<g><path style="opacity:1" fill="#870014" d="M 202.5,130.5 C 204.308,130.491 205.975,130.991 207.5,132C 204.369,135.903 200.369,137.569 195.5,137C 197.001,135.748 198.668,134.748 200.5,134C 201.823,133.184 202.489,132.017 202.5,130.5 Z"/></g>
<g><path style="opacity:1" fill="#fefffe" d="M 208.5,133.5 C 209.043,133.56 209.376,133.893 209.5,134.5C 206.015,138.519 201.681,140.352 196.5,140C 201.124,138.85 205.124,136.684 208.5,133.5 Z"/></g>
<g><path style="opacity:1" fill="#000000" d="M 140.5,134.5 C 141.234,135.708 141.567,137.041 141.5,138.5C 139.862,137.295 139.529,135.962 140.5,134.5 Z"/></g>
<g><path style="opacity:1" fill="#d91e22" d="M 168.5,134.5 C 174.97,136.068 180.97,138.734 186.5,142.5C 188.215,146.209 187.382,149.209 184,151.5C 182.334,150.66 182.167,151.16 183.5,153C 179.228,156.961 174.561,159.461 169.5,160.5C 166.432,159.699 163.432,158.699 160.5,157.5C 159.386,156.277 159.219,154.944 160,153.5C 161.66,150.664 164.16,149.164 167.5,149C 165.866,148.506 164.199,148.34 162.5,148.5C 162.338,146.473 162.505,144.473 163,142.5C 165.08,139.935 166.913,137.268 168.5,134.5 Z"/></g>
<g><path style="opacity:1" fill="#bbbbbb" d="M 136.5,146.5 C 136.167,145.5 135.5,144.833 134.5,144.5C 132.992,142.819 131.992,140.819 131.5,138.5C 130.145,135.203 130.645,134.87 133,137.5C 134.247,140.329 135.747,142.995 137.5,145.5C 137.376,146.107 137.043,146.44 136.5,146.5 Z"/></g>
<g><path style="opacity:1" fill="#870014" d="M 209.5,136.5 C 213.51,143.327 216.676,150.661 219,158.5C 220.076,163.072 219.243,167.239 216.5,171C 213.901,171.769 211.401,171.602 209,170.5C 206.129,160.926 202.296,151.76 197.5,143C 202.131,141.839 206.131,139.673 209.5,136.5 Z"/></g>
<g><path style="opacity:1" fill="#fefffe" d="M 192.5,137.5 C 198.744,149.278 203.744,161.278 207.5,173.5C 201.395,161.957 196.395,149.957 192.5,137.5 Z"/></g>
<g><path style="opacity:1" fill="#d61e21" d="M 131.5,138.5 C 131.992,140.819 132.992,142.819 134.5,144.5C 134.5,145.833 135.167,146.5 136.5,146.5C 140.45,148.96 144.45,148.96 148.5,146.5C 148.842,145.662 149.508,145.328 150.5,145.5C 151.525,145.897 151.692,146.563 151,147.5C 149.698,148.085 148.531,148.751 147.5,149.5C 146.791,150.404 145.791,150.737 144.5,150.5C 142.5,150.5 140.5,150.5 138.5,150.5C 137.329,149.655 135.995,148.989 134.5,148.5C 131.418,145.606 130.418,142.272 131.5,138.5 Z"/></g>
<g><path style="opacity:1" fill="#fefffe" d="M 127.5,141.5 C 129.785,144.855 130.118,148.522 128.5,152.5C 129.875,161.415 133.541,169.249 139.5,176C 139,176.167 138.5,176.333 138,176.5C 127.311,166.937 123.811,155.271 127.5,141.5 Z"/></g>
<g><path style="opacity:1" fill="#000000" d="M 134.5,144.5 C 135.5,144.833 136.167,145.5 136.5,146.5C 135.167,146.5 134.5,145.833 134.5,144.5 Z"/></g>
<g><path style="opacity:1" fill="#ec1c23" d="M 103.5,157.5 C 102.036,156.84 100.369,156.507 98.5,156.5C 95.5143,156.382 92.8476,157.048 90.5,158.5C 89.5233,155.713 89.19,152.713 89.5,149.5C 94.8087,148.488 100.142,148.488 105.5,149.5C 105.292,151.92 105.626,154.253 106.5,156.5C 105.675,157.386 104.675,157.719 103.5,157.5 Z"/></g>
<g><path style="opacity:1" fill="#e5e5e5" d="M 134.5,148.5 C 135.995,148.989 137.329,149.655 138.5,150.5C 138.833,151.167 139.167,151.833 139.5,152.5C 138.683,154.969 138.183,157.635 138,160.5C 135.592,156.942 133.758,153.109 132.5,149C 133.094,148.536 133.761,148.369 134.5,148.5 Z"/></g>
<g><path style="opacity:1" fill="#fefffe" d="M 147.5,149.5 C 148.239,149.369 148.906,149.536 149.5,150C 146.333,154.5 143.167,159 140,163.5C 139.5,163 139,162.5 138.5,162C 139.451,158.943 139.784,155.777 139.5,152.5C 141.306,151.976 142.972,151.309 144.5,150.5C 145.791,150.737 146.791,150.404 147.5,149.5 Z"/></g>
<g><path style="opacity:1" fill="#870014" d="M 130.5,150.5 C 132.02,154.525 133.854,158.525 136,162.5C 139.359,165.384 141.859,168.884 143.5,173C 142.975,173.692 142.308,174.192 141.5,174.5C 135.139,167.775 131.472,159.775 130.5,150.5 Z"/></g>
<g><path style="opacity:1" fill="#000000" d="M 138.5,150.5 C 140.5,150.5 142.5,150.5 144.5,150.5C 142.972,151.309 141.306,151.976 139.5,152.5C 139.167,151.833 138.833,151.167 138.5,150.5 Z"/></g>
<g><path style="opacity:1" fill="#3e46c8" d="M 146.5,174.5 C 147.93,174.421 149.264,174.754 150.5,175.5C 152.024,177.858 154.024,179.691 156.5,181C 161.202,181.828 165.869,181.662 170.5,180.5C 163.951,176.65 156.951,173.984 149.5,172.5C 152.992,168.197 156.492,163.864 160,159.5C 171.735,164.312 181.068,161.312 188,150.5C 190.474,156.464 189.474,161.797 185,166.5C 177.027,166.847 169.027,166.18 161,164.5C 160.167,164.833 159.333,165.167 158.5,165.5C 163.684,167.15 169.017,168.15 174.5,168.5C 177.564,167.675 180.564,167.675 183.5,168.5C 178.291,178.372 171.291,186.706 162.5,193.5C 155.892,189.557 149.559,185.224 143.5,180.5C 142.406,181.868 142.74,183.035 144.5,184C 149.558,188.057 154.892,191.724 160.5,195C 156.167,198 151.833,201 147.5,204C 140.131,204.617 132.798,204.283 125.5,203C 123.893,201.951 123.227,200.451 123.5,198.5C 121.167,198.5 118.833,198.5 116.5,198.5C 116.331,193.819 115.998,189.152 115.5,184.5C 121.245,184.789 126.912,184.289 132.5,183C 137.028,179.904 141.695,177.071 146.5,174.5 Z"/></g>
<g><path style="opacity:1" fill="#fefffe" d="M 150.5,151.5 C 151.19,156.233 151.856,161.066 152.5,166C 150.295,168.54 147.795,170.707 145,172.5C 143.833,170.167 142.667,167.833 141.5,165.5C 144.553,160.798 147.553,156.131 150.5,151.5 Z"/></g>
<g><path style="opacity:1" fill="#fefffe" d="M 111.5,152.5 C 113.716,153.203 115.549,154.536 117,156.5C 119.452,163.865 122.286,171.031 125.5,178C 124.4,179.023 123.067,179.523 121.5,179.5C 118.86,178.905 116.193,178.572 113.5,178.5C 113.701,175.272 113.367,172.105 112.5,169C 113.93,167.111 114.597,164.945 114.5,162.5C 114.073,158.984 113.073,155.651 111.5,152.5 Z M 116.5,169.5 C 116.5,171.5 116.5,173.5 116.5,175.5C 117.675,175.719 118.675,175.386 119.5,174.5C 119.043,172.402 118.043,170.736 116.5,169.5 Z"/></g>
<g><path style="opacity:1" fill="#1b1f65" d="M 121.5,152.5 C 122.496,152.414 123.329,152.748 124,153.5C 124.667,155.5 124.667,157.5 124,159.5C 122.589,157.35 121.755,155.016 121.5,152.5 Z"/></g>
<g><path style="opacity:1" fill="#b2b2b2" d="M 103.5,157.5 C 104.609,158.29 105.942,158.79 107.5,159C 108.451,159.718 108.617,160.551 108,161.5C 105.165,159.692 101.998,158.692 98.5,158.5C 95.5289,158.525 93.0289,159.525 91,161.5C 90.5172,160.552 90.3505,159.552 90.5,158.5C 92.8476,157.048 95.5143,156.382 98.5,156.5C 100.369,156.507 102.036,156.84 103.5,157.5 Z"/></g>
<g><path style="opacity:1" fill="#f9a884" d="M 96.5,160.5 C 98.1439,160.286 99.6439,160.62 101,161.5C 101.144,165.931 102.477,169.931 105,173.5C 105.667,175.5 105.667,177.5 105,179.5C 104.349,175.363 102.515,171.863 99.5,169C 97.5273,168.505 95.5273,168.338 93.5,168.5C 93.5,166.167 93.5,163.833 93.5,161.5C 94.791,161.737 95.791,161.404 96.5,160.5 Z"/></g>
<g><path style="opacity:1" fill="#1b1f65" d="M 103.5,161.5 C 107.413,162.686 107.413,164.02 103.5,165.5C 102.708,164.3 102.708,162.967 103.5,161.5 Z"/></g>
<g><path style="opacity:1" fill="#3b43c0" d="M 194.5,169.5 C 191.747,170.022 189.08,170.856 186.5,172C 189.963,173.469 193.63,174.303 197.5,174.5C 195.257,175.812 192.59,176.478 189.5,176.5C 186.833,176.333 184.167,176.167 181.5,176C 184.128,171.242 187.128,166.742 190.5,162.5C 192.11,164.725 193.443,167.059 194.5,169.5 Z"/></g>
<g><path style="opacity:1" fill="#1b1f65" d="M 164.5,169.5 C 168.534,169.505 172.534,169.838 176.5,170.5C 177.014,172.512 177.18,174.512 177,176.5C 172.048,173.148 166.548,171.648 160.5,172C 161.858,171.066 163.192,170.232 164.5,169.5 Z"/></g>
<g><path style="opacity:1" fill="#1b1f65" d="M 194.5,169.5 C 195.248,171.332 196.248,172.999 197.5,174.5C 193.63,174.303 189.963,173.469 186.5,172C 189.08,170.856 191.747,170.022 194.5,169.5 Z"/></g>
<g><path style="opacity:1" fill="#f5a582" d="M 83.5,181.5 C 85.6348,181.853 86.9681,181.02 87.5,179C 86.6521,177.334 85.6521,175.834 84.5,174.5C 82.369,173.686 80.0356,173.186 77.5,173C 80.3782,170.55 83.7115,169.884 87.5,171C 90.3385,175.99 93.3385,180.823 96.5,185.5C 96.1006,188.359 95.2673,191.026 94,193.5C 85.3848,191.912 77.2182,189.079 69.5,185C 73.8333,184.667 78.1667,184.333 82.5,184C 83.2524,183.329 83.5858,182.496 83.5,181.5 Z"/></g>
<g><path style="opacity:1" fill="#b87a56" d="M 91.5,170.5 C 98.243,169.6 101.91,172.6 102.5,179.5C 100.208,179.244 98.0408,179.577 96,180.5C 93.0007,177.53 91.5007,174.196 91.5,170.5 Z"/></g>
<g><path style="opacity:1" fill="#fefffe" d="M 129.5,170.5 C 131.361,173.022 133.361,175.522 135.5,178C 134.216,178.684 133.049,178.517 132,177.5C 130.589,175.35 129.755,173.016 129.5,170.5 Z"/></g>
<g><path style="opacity:1" fill="#7e7f7e" d="M 62.5,176.5 C 63.2297,174.955 64.563,174.122 66.5,174C 69.7675,172.787 73.1008,172.454 76.5,173C 71.7193,173.862 67.0526,175.029 62.5,176.5 Z"/></g>
<g><path style="opacity:1" fill="#1b1f65" d="M 149.5,172.5 C 156.951,173.984 163.951,176.65 170.5,180.5C 165.869,181.662 161.202,181.828 156.5,181C 154.024,179.691 152.024,177.858 150.5,175.5C 149.264,174.754 147.93,174.421 146.5,174.5C 147.29,173.599 148.29,172.932 149.5,172.5 Z"/></g>
<g><path style="opacity:1" fill="#737373" d="M 54.5,179.5 C 54.6716,180.492 54.3382,181.158 53.5,181.5C 52.0222,181.762 50.6888,181.429 49.5,180.5C 52.8457,179.896 53.179,178.063 50.5,175C 51.7932,174.51 53.1266,174.343 54.5,174.5C 54.5,176.167 54.5,177.833 54.5,179.5 Z"/></g>
<g><path style="opacity:1" fill="#fec90d" d="M 62.5,176.5 C 62.4411,181.922 59.7745,185.255 54.5,186.5C 52.853,185.722 51.5196,184.556 50.5,183C 51.7375,182.768 52.7375,182.268 53.5,181.5C 54.3382,181.158 54.6716,180.492 54.5,179.5C 55.4511,178.081 55.7845,176.415 55.5,174.5C 58.2108,174.185 60.5441,174.852 62.5,176.5 Z"/></g>
<g><path style="opacity:1" fill="#9b674a" d="M 84.5,174.5 C 85.6521,175.834 86.6521,177.334 87.5,179C 86.9681,181.02 85.6348,181.853 83.5,181.5C 80.9407,181.802 78.6074,181.468 76.5,180.5C 77.4511,179.081 77.7845,177.415 77.5,175.5C 79.9496,175.702 82.283,175.369 84.5,174.5 Z"/></g>
<g><path style="opacity:1" fill="#7e7f7e" d="M 41.5,175.5 C 43.1667,175.5 44.8333,175.5 46.5,175.5C 46.2606,177.467 46.5939,179.301 47.5,181C 46.0559,182.064 44.3893,182.564 42.5,182.5C 38.6194,182.302 34.9527,181.468 31.5,180C 35.1932,179.092 38.5266,177.592 41.5,175.5 Z"/></g>
<g><path style="opacity:1" fill="#b87a56" d="M 74.5,179.5 C 71.272,180.414 67.9387,180.747 64.5,180.5C 64.5,179.5 64.5,178.5 64.5,177.5C 67.5534,177.089 70.5534,176.423 73.5,175.5C 74.4287,176.689 74.762,178.022 74.5,179.5 Z"/></g>
<g><path style="opacity:1" fill="#fec90d" d="M 76.5,180.5 C 75.7321,181.263 75.2321,182.263 75,183.5C 74.51,182.207 74.3433,180.873 74.5,179.5C 75.29,178.391 75.79,177.058 76,175.5C 76.4935,177.134 76.6602,178.801 76.5,180.5 Z"/></g>
<g><path style="opacity:1" fill="#fefffe" d="M 199.5,177.5 C 200.873,177.343 202.207,177.51 203.5,178C 195.328,180.399 186.994,181.066 178.5,180C 185.512,178.869 192.512,178.036 199.5,177.5 Z"/></g>
<g><path style="opacity:1" fill="#1d1e1d" d="M 201.5,181.5 C 210.133,181.331 216.8,185.165 221.5,193C 218.763,196.288 215.43,197.122 211.5,195.5C 208.498,190.513 205.164,185.847 201.5,181.5 Z"/></g>
<g><path style="opacity:1" fill="#fec90d" d="M 63.5,181.5 C 64.7733,182.077 64.7733,182.743 63.5,183.5C 62.537,183.03 62.537,182.363 63.5,181.5 Z"/></g>
<g><path style="opacity:1" fill="#fefffe" d="M 65.5,181.5 C 68.2469,181.187 70.9135,181.52 73.5,182.5C 72.1667,182.833 70.8333,183.167 69.5,183.5C 67.6672,183.415 66.3339,182.748 65.5,181.5 Z"/></g>
<g><path style="opacity:1" fill="#fefffe" d="M 100.5,189.5 C 99.5318,191.607 99.1984,193.941 99.5,196.5C 104.544,196.173 109.544,196.506 114.5,197.5C 112.955,198.452 111.288,198.785 109.5,198.5C 105.366,197.515 101.032,197.182 96.5,197.5C 97.2416,192.125 98.2416,186.791 99.5,181.5C 100.48,184.086 100.813,186.753 100.5,189.5 Z"/></g>
<g><path style="opacity:1" fill="#ec1c23" d="M 100.5,189.5 C 101.473,187.052 101.806,184.385 101.5,181.5C 105.538,181.958 109.538,182.624 113.5,183.5C 113.505,187.534 113.838,191.534 114.5,195.5C 109.833,195.5 105.167,195.5 100.5,195.5C 100.5,193.5 100.5,191.5 100.5,189.5 Z"/></g>
<g><path style="opacity:1" fill="#3f47cc" d="M 176.5,182.5 C 183.175,182.334 189.842,182.5 196.5,183C 198.959,186.75 201.292,190.583 203.5,194.5C 192.225,195.371 181.225,193.871 170.5,190C 173.094,187.914 175.094,185.414 176.5,182.5 Z"/></g>
<g><path style="opacity:1" fill="#fefffe" d="M 200.5,184.5 C 203.136,187.31 205.636,190.31 208,193.5C 208.688,194.332 208.521,194.998 207.5,195.5C 204.753,192.088 202.42,188.422 200.5,184.5 Z"/></g>
<g><path style="opacity:1" fill="#1b1f65" d="M 191.5,187.5 C 193.527,187.338 195.527,187.505 197.5,188C 197.957,188.414 198.291,188.914 198.5,189.5C 194.636,191.171 190.636,191.671 186.5,191C 188.584,190.303 190.251,189.136 191.5,187.5 Z"/></g>
<g><path style="opacity:1" fill="#870014" d="M 167.5,192.5 C 167.56,191.957 167.893,191.624 168.5,191.5C 173.945,193.778 179.612,195.278 185.5,196C 197.167,197 208.833,198 220.5,199C 222.645,199.743 222.811,200.576 221,201.5C 208.564,199.964 196.064,199.13 183.5,199C 178.028,197.094 172.694,194.928 167.5,192.5 Z"/></g>
<g><path style="opacity:1" fill="#e07323" d="M 222.5,213.5 C 220.503,210.175 218.503,206.841 216.5,203.5C 218.859,203.544 221.359,203.21 224,202.5C 224.977,199.741 224.144,197.741 221.5,196.5C 222.347,195.155 223.513,194.155 225,193.5C 227.627,194.314 229.96,195.647 232,197.5C 233.793,201.046 235.293,204.713 236.5,208.5C 233.993,216.426 229.326,218.092 222.5,213.5 Z"/></g>
<g><path style="opacity:1" fill="#fefffe" d="M 164.5,194.5 C 174.902,198.689 185.568,202.189 196.5,205C 196,205.5 195.5,206 195,206.5C 194.544,209.572 194.544,212.572 195,215.5C 183.982,209.047 172.482,203.547 160.5,199C 160.167,198.667 159.833,198.333 159.5,198C 161.346,196.97 163.013,195.804 164.5,194.5 Z"/></g>
<g><path style="opacity:1" fill="#fec90d" d="M 96.5,198.5 C 97.675,198.281 98.675,198.614 99.5,199.5C 97.9483,200.798 96.9483,200.465 96.5,198.5 Z"/></g>
<g><path style="opacity:1" fill="#1a1e60" d="M 109.5,198.5 C 112.167,199.167 114.833,199.833 117.5,200.5C 114.833,203.167 112.167,203.167 109.5,200.5C 108.5,200.5 107.5,200.5 106.5,200.5C 104.396,200.799 102.396,200.466 100.5,199.5C 103.428,198.516 106.428,198.183 109.5,198.5 Z"/></g>
<g><path style="opacity:1" fill="#fec90d" d="M 106.5,200.5 C 107.5,200.5 108.5,200.5 109.5,200.5C 108.5,203.167 107.5,203.167 106.5,200.5 Z"/></g>
<g><path style="opacity:1" fill="#fec90d" d="M 117.5,200.5 C 118.675,200.281 119.675,200.614 120.5,201.5C 118.948,202.798 117.948,202.465 117.5,200.5 Z"/></g>
<g><path style="opacity:1" fill="#fefffe" d="M 156.5,205.5 C 155.048,204.698 153.382,204.198 151.5,204C 153.374,202.565 155.374,201.398 157.5,200.5C 161.162,201.997 164.828,203.497 168.5,205C 164.514,205.499 160.514,205.666 156.5,205.5 Z"/></g>
<g><path style="opacity:1" fill="#3f47cc" d="M 192.5,202.5 C 198.319,201.347 204.319,201.181 210.5,202C 215.21,204.836 216.044,208.336 213,212.5C 208.102,205.51 201.269,202.177 192.5,202.5 Z"/></g>
<g><path style="opacity:1" fill="#fefffe" d="M 216.5,203.5 C 218.503,206.841 220.503,210.175 222.5,213.5C 222.778,215.346 222.111,216.68 220.5,217.5C 218.641,215.808 216.641,214.308 214.5,213C 218.337,209.435 218.004,206.102 213.5,203C 214.577,202.53 215.577,202.697 216.5,203.5 Z"/></g>
<g><path style="opacity:1" fill="#ec1c23" d="M 156.5,205.5 C 162.167,206.167 167.833,206.833 173.5,207.5C 172.209,207.263 171.209,207.596 170.5,208.5C 165.5,208.5 160.5,208.5 155.5,208.5C 154.432,207.566 153.099,207.232 151.5,207.5C 151.389,206.883 151.056,206.383 150.5,206C 152.473,205.505 154.473,205.338 156.5,205.5 Z"/></g>
<g><path style="opacity:1" fill="#fec90d" d="M 198.5,206.5 C 200.527,206.338 202.527,206.505 204.5,207C 199.689,209.123 198.356,212.623 200.5,217.5C 202.332,218.248 203.999,219.248 205.5,220.5C 206.833,221.833 206.833,223.167 205.5,224.5C 198.482,222.469 195.482,217.802 196.5,210.5C 196.752,208.927 197.418,207.594 198.5,206.5 Z"/></g>
<g><path style="opacity:1" fill="#c7c7c7" d="M 151.5,207.5 C 153.099,207.232 154.432,207.566 155.5,208.5C 158.625,209.479 161.958,209.813 165.5,209.5C 165.205,211.735 165.539,213.735 166.5,215.5C 168.597,218.053 170.93,220.386 173.5,222.5C 167.013,220.416 160.679,218.082 154.5,215.5C 153.026,214.564 152.026,213.23 151.5,211.5C 150.314,210.039 150.314,208.705 151.5,207.5 Z"/></g>
<g><path style="opacity:1" fill="#f4f4f4" d="M 173.5,207.5 C 182.837,210.248 191.004,214.915 198,221.5C 199.797,229.538 204.131,235.872 211,240.5C 211.602,243.662 211.102,246.662 209.5,249.5C 206.79,250.914 205.79,252.914 206.5,255.5C 203.257,268.062 198.924,280.228 193.5,292C 195.533,295.898 197.7,299.732 200,303.5C 199.948,307.767 198.115,311.267 194.5,314C 190.712,315.978 186.879,317.811 183,319.5C 180.167,315.333 176.667,311.833 172.5,309C 173.833,308.667 175.167,308.333 176.5,308C 170.612,308.44 167.612,305.774 167.5,300C 169.572,280.561 173.572,261.561 179.5,243C 179.352,241.744 179.018,240.577 178.5,239.5C 184.696,238.015 191.029,237.015 197.5,236.5C 193.616,235.159 189.616,234.325 185.5,234C 192.159,230.701 191.493,229.034 183.5,229C 187.178,227.539 190.845,226.206 194.5,225C 189.657,223.786 185.49,224.953 182,228.5C 180.306,227.301 178.806,225.968 177.5,224.5C 176.329,223.655 174.995,222.989 173.5,222.5C 170.93,220.386 168.597,218.053 166.5,215.5C 166.201,213.396 166.534,211.396 167.5,209.5C 170.489,214.647 174.823,217.814 180.5,219C 177.42,216.71 174.253,214.543 171,212.5C 170.51,211.207 170.343,209.873 170.5,208.5C 171.209,207.596 172.209,207.263 173.5,207.5 Z"/></g>
<g><path style="opacity:1" fill="#000000" d="M 155.5,208.5 C 160.5,208.5 165.5,208.5 170.5,208.5C 170.343,209.873 170.51,211.207 171,212.5C 174.253,214.543 177.42,216.71 180.5,219C 174.823,217.814 170.489,214.647 167.5,209.5C 166.534,211.396 166.201,213.396 166.5,215.5C 165.539,213.735 165.205,211.735 165.5,209.5C 161.958,209.813 158.625,209.479 155.5,208.5 Z"/></g>
<g><path style="opacity:1" fill="#870014" d="M 203.5,209.5 C 204.251,208.427 205.251,208.26 206.5,209C 208.241,210.62 210.075,212.12 212,213.5C 212.667,214.167 212.667,214.833 212,215.5C 209.287,213.28 206.454,211.28 203.5,209.5 Z"/></g>
<g><path style="opacity:1" fill="#fefffe" d="M 201.5,210.5 C 205.161,211.648 208.161,213.814 210.5,217C 209.91,218.299 208.91,219.132 207.5,219.5C 205.523,218.54 203.523,217.54 201.5,216.5C 200.306,214.484 200.306,212.484 201.5,210.5 Z"/></g>
<g><path style="opacity:1" fill="#f7f7f7" d="M 151.5,211.5 C 152.026,213.23 153.026,214.564 154.5,215.5C 155.167,216.167 155.833,216.833 156.5,217.5C 156.5,217.833 156.5,218.167 156.5,218.5C 155.668,219.329 156.001,220.162 157.5,221C 158.745,221.791 160.078,222.291 161.5,222.5C 162.96,224.463 164.627,226.296 166.5,228C 163.351,227.41 160.685,225.744 158.5,223C 156.421,222.192 154.421,222.359 152.5,223.5C 155.458,226.944 159.124,229.444 163.5,231C 158.184,230.737 152.851,230.737 147.5,231C 153.589,233.438 159.922,234.772 166.5,235C 159.833,238.667 153.167,242.333 146.5,246C 141.524,247.081 136.524,248.081 131.5,249C 137.694,249.579 143.694,248.746 149.5,246.5C 150.167,246.667 150.833,246.833 151.5,247C 148.766,247.998 147.099,249.832 146.5,252.5C 145.127,252.343 143.793,252.51 142.5,253C 144.878,253.974 144.544,254.641 141.5,255C 148.344,255.539 154.677,254.039 160.5,250.5C 155.374,255.448 149.54,259.448 143,262.5C 143.407,266.447 143.073,270.447 142,274.5C 138.427,278.04 134.261,280.706 129.5,282.5C 129.167,281.833 128.833,281.167 128.5,280.5C 125.833,281.833 123.167,283.167 120.5,284.5C 116.135,280.811 111.469,277.478 106.5,274.5C 105.304,273.441 104.637,272.107 104.5,270.5C 106.895,264.709 110.062,259.376 114,254.5C 123.601,242.897 133.934,231.897 145,221.5C 145.973,219.608 146.64,217.608 147,215.5C 149.019,214.643 150.519,213.309 151.5,211.5 Z"/></g>
<g><path style="opacity:1" fill="#000000" d="M 154.5,215.5 C 160.679,218.082 167.013,220.416 173.5,222.5C 174.995,222.989 176.329,223.655 177.5,224.5C 174.26,224.232 171.094,223.566 168,222.5C 164.162,220.66 160.329,218.994 156.5,217.5C 155.833,216.833 155.167,216.167 154.5,215.5 Z"/></g>
<g><path style="opacity:1" fill="#fefffe" d="M 209.5,223.5 C 212.204,223.33 213.871,221.997 214.5,219.5C 215.29,218.391 215.79,217.058 216,215.5C 222.031,221.023 221.698,226.357 215,231.5C 212.833,229.333 210.667,227.167 208.5,225C 209.056,224.617 209.389,224.117 209.5,223.5 Z"/></g>
<g><path style="opacity:1" fill="#83660d" d="M 214.5,219.5 C 213.871,221.997 212.204,223.33 209.5,223.5C 208.475,223.103 208.308,222.437 209,221.5C 210.667,219.833 212.333,218.167 214,216.5C 214.483,217.448 214.649,218.448 214.5,219.5 Z"/></g>
<g><path style="opacity:1" fill="#dedede" d="M 156.5,218.5 C 156.5,218.167 156.5,217.833 156.5,217.5C 160.329,218.994 164.162,220.66 168,222.5C 171.094,223.566 174.26,224.232 177.5,224.5C 178.806,225.968 180.306,227.301 182,228.5C 185.49,224.953 189.657,223.786 194.5,225C 190.845,226.206 187.178,227.539 183.5,229C 191.493,229.034 192.159,230.701 185.5,234C 189.616,234.325 193.616,235.159 197.5,236.5C 191.029,237.015 184.696,238.015 178.5,239.5C 176.801,239.34 175.134,239.506 173.5,240C 169.292,243.713 164.959,247.213 160.5,250.5C 154.677,254.039 148.344,255.539 141.5,255C 144.544,254.641 144.878,253.974 142.5,253C 143.793,252.51 145.127,252.343 146.5,252.5C 147.099,249.832 148.766,247.998 151.5,247C 150.833,246.833 150.167,246.667 149.5,246.5C 143.694,248.746 137.694,249.579 131.5,249C 136.524,248.081 141.524,247.081 146.5,246C 153.167,242.333 159.833,238.667 166.5,235C 159.922,234.772 153.589,233.438 147.5,231C 152.851,230.737 158.184,230.737 163.5,231C 159.124,229.444 155.458,226.944 152.5,223.5C 154.421,222.359 156.421,222.192 158.5,223C 160.685,225.744 163.351,227.41 166.5,228C 164.627,226.296 162.96,224.463 161.5,222.5C 160.055,220.937 158.389,219.604 156.5,218.5 Z"/></g>
<g><path style="opacity:1" fill="#000000" d="M 156.5,218.5 C 158.389,219.604 160.055,220.937 161.5,222.5C 160.078,222.291 158.745,221.791 157.5,221C 156.001,220.162 155.668,219.329 156.5,218.5 Z"/></g>
<g><path style="opacity:1" fill="#3f47cc" d="M 200.5,225.5 C 200.735,224.903 201.235,224.57 202,224.5C 206.645,226.132 210.478,228.966 213.5,233C 212.953,233.925 212.287,234.758 211.5,235.5C 209.78,234.066 207.78,233.233 205.5,233C 205.182,229.53 203.516,227.03 200.5,225.5 Z"/></g>
<g><path style="opacity:1" fill="#1d1e1d" d="M 221.5,226.5 C 228.217,237.387 236.883,246.553 247.5,254C 248.833,255.333 250.167,256.667 251.5,258C 249.91,259.046 248.41,260.213 247,261.5C 236.277,252.612 226.777,242.612 218.5,231.5C 219.952,230.06 220.952,228.394 221.5,226.5 Z"/></g>
<g><path style="opacity:1" fill="#fefffe" d="M 225.5,228.5 C 228.768,232.271 232.268,235.938 236,239.5C 236.667,240.167 236.667,240.833 236,241.5C 231.504,237.851 228.004,233.518 225.5,228.5 Z"/></g>
<g><path style="opacity:1" fill="#fefffe" d="M 170.5,250.5 C 169.267,259.919 167.767,269.585 166,279.5C 163.938,277.099 162.271,274.433 161,271.5C 158.094,268.963 154.927,266.796 151.5,265C 158.303,260.687 164.636,255.853 170.5,250.5 Z M 164.5,260.5 C 163.284,262.451 161.618,263.951 159.5,265C 161.286,265.785 162.786,266.951 164,268.5C 164.5,266.5 165,264.5 165.5,262.5C 165.457,261.584 165.124,260.917 164.5,260.5 Z"/></g>
<g><path style="opacity:1" fill="#fec90d" d="M 252.5,259.5 C 260.635,263.706 259.968,265.04 250.5,263.5C 250.167,263.167 249.833,262.833 249.5,262.5C 250.77,261.712 251.77,260.712 252.5,259.5 Z"/></g>
<g><path style="opacity:1" fill="#1d1d1d" d="M 144.5,269.5 C 147.93,270.714 151.264,272.214 154.5,274C 157.618,278.786 161.118,283.286 165,287.5C 164.644,293.812 164.644,300.145 165,306.5C 166.5,308 168,309.5 169.5,311C 168.167,311.333 166.833,311.667 165.5,312C 172.97,311.759 174.303,314.426 169.5,320C 166.649,321.289 163.649,321.789 160.5,321.5C 160.203,317.233 160.536,313.066 161.5,309C 158.976,304.748 155.809,301.915 152,300.5C 144.023,295.094 135.523,290.594 126.5,287C 130.674,284.412 135.007,282.079 139.5,280C 141,278.5 142.5,277 144,275.5C 144.495,273.527 144.662,271.527 144.5,269.5 Z"/></g>
<g><path style="opacity:1" fill="#fec90d" d="M 201.5,312.5 C 201.5,313.833 200.833,314.5 199.5,314.5C 199.5,313.167 200.167,312.5 201.5,312.5 Z"/></g>
<g><path style="opacity:1" fill="#fec90d" d="M 211.5,338.5 C 211.5,339.833 210.833,340.5 209.5,340.5C 209.5,339.167 210.167,338.5 211.5,338.5 Z"/></g>
<g><path style="opacity:1" fill="#fec90d" d="M 212.5,344.5 C 210.663,344.361 210.33,343.694 211.5,342.5C 212.298,342.957 212.631,343.624 212.5,344.5 Z"/></g>
<g><path style="opacity:1" fill="#fec90d" d="M 212.5,349.5 C 215.167,350.167 215.167,350.833 212.5,351.5C 212.5,350.833 212.5,350.167 212.5,349.5 Z"/></g>
<g><path style="opacity:1" fill="#fec90d" d="M 212.5,354.5 C 213.833,354.5 214.5,355.167 214.5,356.5C 214.5,355.167 213.833,354.5 212.5,354.5 Z"/></g>
<g><path style="opacity:1" fill="#1b1b1b" d="M 211.5,338.5 C 210.167,338.5 209.5,339.167 209.5,340.5C 209.337,342.857 209.503,345.19 210,347.5C 210.698,346.309 211.531,345.309 212.5,344.5C 214.922,346.286 214.922,347.952 212.5,349.5C 212.5,350.167 212.5,350.833 212.5,351.5C 211.737,352.268 210.737,352.768 209.5,353C 210.737,353.232 211.737,353.732 212.5,354.5C 212.5,355.833 213.167,356.5 214.5,356.5C 215.117,356.389 215.617,356.056 216,355.5C 217.158,359.981 218.991,364.147 221.5,368C 219.346,371.488 216.512,374.321 213,376.5C 207.919,376.164 202.752,375.998 197.5,376C 195.754,375.529 194.087,374.862 192.5,374C 194.409,370.34 196.909,367.173 200,364.5C 200.236,362.236 200.736,360.069 201.5,358C 198.833,356.333 198.833,354.667 201.5,353C 200.069,352.535 198.903,351.701 198,350.5C 195.651,339.804 191.151,330.137 184.5,321.5C 189.38,319.477 193.88,316.81 198,313.5C 198.383,314.056 198.883,314.389 199.5,314.5C 200.833,314.5 201.5,313.833 201.5,312.5C 199.905,310.626 200.239,309.793 202.5,310C 211.316,317.79 214.316,327.29 211.5,338.5 Z"/></g>
<g><path style="opacity:1" fill="#fec90d" d="M 208.5,331.5 C 210.337,331.639 210.67,332.306 209.5,333.5C 208.702,333.043 208.369,332.376 208.5,331.5 Z"/></g>
<g><path style="opacity:1" fill="#fec90d" d="M 207.5,325.5 C 209.337,325.639 209.67,326.306 208.5,327.5C 207.702,327.043 207.369,326.376 207.5,325.5 Z"/></g>
<g><path style="opacity:1" fill="#fec90d" d="M 203.5,320.5 C 205.337,320.639 205.67,321.306 204.5,322.5C 203.702,322.043 203.369,321.376 203.5,320.5 Z"/></g>
<g><path style="opacity:1" fill="#fec90d" d="M 199.5,316.5 C 201.337,316.639 201.67,317.306 200.5,318.5C 199.702,318.043 199.369,317.376 199.5,316.5 Z"/></g>
<g><path style="opacity:1" fill="#fec90d" d="M 213.5,359.5 C 215.337,359.639 215.67,360.306 214.5,361.5C 213.702,361.043 213.369,360.376 213.5,359.5 Z"/></g>
<g><path style="opacity:1" fill="#fec90d" d="M 213.5,364.5 C 215.337,364.639 215.67,365.306 214.5,366.5C 213.702,366.043 213.369,365.376 213.5,364.5 Z"/></g>
<g><path style="opacity:1" fill="#fec90d" d="M 214.5,368.5 C 216.337,368.639 216.67,369.306 215.5,370.5C 214.702,370.043 214.369,369.376 214.5,368.5 Z"/></g>
</svg>
