<?xml version="1.0" encoding="UTF-8"?>
<!DOCTYPE svg PUBLIC "-//W3C//DTD SVG 1.1//EN" "http://www.w3.org/Graphics/SVG/1.1/DTD/svg11.dtd">
<svg xmlns="http://www.w3.org/2000/svg" version="1.1" width="594px" height="600px" style="shape-rendering:geometricPrecision; text-rendering:geometricPrecision; image-rendering:optimizeQuality; fill-rule:evenodd; clip-rule:evenodd" xmlns:xlink="http://www.w3.org/1999/xlink">
<g><path style="opacity:1" fill="#fefffe" d="M 357.5,6.5 C 364.17,6.04274 370.67,6.70941 377,8.5C 379.845,13.0749 381.178,18.0749 381,23.5C 383.758,32.5523 386.425,41.5523 389,50.5C 389.847,57.9613 389.347,65.2946 387.5,72.5C 388.499,80.8188 388.666,89.1521 388,97.5C 386.846,98.7433 385.512,99.7433 384,100.5C 383.152,109.158 381.652,117.658 379.5,126C 381.241,127.62 383.075,129.12 385,130.5C 385.667,135.167 385.667,139.833 385,144.5C 382.281,145.444 379.448,145.777 376.5,145.5C 376.66,147.199 376.494,148.866 376,150.5C 371.082,152.978 368.082,156.978 367,162.5C 364.776,164.054 362.276,165.054 359.5,165.5C 358.594,167.386 357.594,169.22 356.5,171C 365.858,171.567 375.191,171.234 384.5,170C 387.813,168.032 391.146,166.032 394.5,164C 405.241,162.258 415.408,163.758 425,168.5C 429.748,167.365 434.581,167.198 439.5,168C 441,169.5 442.5,171 444,172.5C 464.326,164.925 484.826,157.758 505.5,151C 514.984,146.761 523.984,141.761 532.5,136C 537.489,135.501 542.489,135.334 547.5,135.5C 548.434,145.241 545.101,153.074 537.5,159C 530.833,163 524.167,167 517.5,171C 498.167,178.333 478.833,185.667 459.5,193C 458.736,195.069 458.236,197.236 458,199.5C 454.592,202.453 451.092,205.287 447.5,208C 438.5,208.667 429.5,208.667 420.5,208C 419.315,206.647 417.981,205.48 416.5,204.5C 407.382,205.032 398.382,206.366 389.5,208.5C 389.666,214.176 389.499,219.843 389,225.5C 386.571,232.553 381.571,235.553 374,234.5C 370.757,234.693 367.757,234.027 365,232.5C 364.219,233.944 364.386,235.277 365.5,236.5C 371.991,239.578 378.325,242.912 384.5,246.5C 390.55,240.307 397.884,236.474 406.5,235C 410.996,231.173 415.996,228.173 421.5,226C 436.167,225.333 450.833,225.333 465.5,226C 468.692,226.197 471.692,227.03 474.5,228.5C 475.05,224.686 476.383,221.186 478.5,218C 483.167,217.333 487.833,217.333 492.5,218C 493.416,218.374 494.25,218.874 495,219.5C 497.093,224.628 498.426,229.962 499,235.5C 502.149,236.996 505.316,238.496 508.5,240C 509.126,240.75 509.626,241.584 510,242.5C 510.333,246.167 510.667,249.833 511,253.5C 514,257.833 517,262.167 520,266.5C 521.754,271.696 522.921,277.029 523.5,282.5C 524.478,282.977 525.311,283.643 526,284.5C 526.778,292.167 528.778,299.501 532,306.5C 532.667,312.833 532.667,319.167 532,325.5C 528.912,327.576 527.079,330.409 526.5,334C 522.637,335.354 518.637,335.854 514.5,335.5C 514.615,340.338 513.615,344.838 511.5,349C 495.582,351.136 479.748,350.969 464,348.5C 461.649,349.714 459.149,350.548 456.5,351C 446.5,351.667 436.5,351.667 426.5,351C 425.5,350.5 424.5,350 423.5,349.5C 422.202,353.715 422.202,357.882 423.5,362C 431.469,361.512 439.469,361.512 447.5,362C 454.706,369.293 458.04,378.126 457.5,388.5C 454.596,404.999 452.762,421.666 452,438.5C 445.743,443.738 441.576,450.238 439.5,458C 434.327,460.489 429.66,463.822 425.5,468C 417.178,471.32 408.844,474.986 400.5,479C 391.833,485.333 383.167,491.667 374.5,498C 362.823,497.495 351.156,497.495 339.5,498C 333.002,494.834 326.169,492.668 319,491.5C 318.333,485.833 318.333,480.167 319,474.5C 323.833,469.667 328.667,464.833 333.5,460C 338.5,459.333 343.5,459.333 348.5,460C 351.702,462.392 355.369,463.725 359.5,464C 362.5,464.667 365.5,464.667 368.5,464C 373.667,459.5 378.833,455 384,450.5C 384.667,449.5 384.667,448.5 384,447.5C 378.167,440.333 372.333,433.167 366.5,426C 361.999,423.584 357.666,420.917 353.5,418C 351.963,415.72 350.797,413.22 350,410.5C 349.902,412.619 349.069,414.286 347.5,415.5C 346.679,418.447 346.179,421.447 346,424.5C 335.69,427.859 325.19,428.359 314.5,426C 313.521,423.863 312.188,422.029 310.5,420.5C 304.552,421.624 298.552,421.79 292.5,421C 289.553,420.888 288.22,419.388 288.5,416.5C 285.956,416.896 283.789,416.229 282,414.5C 281.502,411.518 281.335,408.518 281.5,405.5C 269.106,404.808 257.439,401.475 246.5,395.5C 246.209,399.952 244.376,403.619 241,406.5C 240.333,409.833 239.667,413.167 239,416.5C 231.283,423.478 225.449,431.644 221.5,441C 223.873,445.581 226.373,450.081 229,454.5C 237.558,458.695 246.391,462.195 255.5,465C 256.333,465.833 257.167,466.667 258,467.5C 258.239,476.33 262.239,482.664 270,486.5C 270.903,497.226 270.569,507.893 269,518.5C 267.282,519.85 265.448,521.017 263.5,522C 254.657,523.079 245.991,522.413 237.5,520C 235.167,518.167 232.833,516.333 230.5,514.5C 228.918,510.266 227.584,505.932 226.5,501.5C 221.443,500.222 217.276,497.555 214,493.5C 211.689,489.046 209.522,484.546 207.5,480C 192.336,474.613 177.17,469.446 162,464.5C 161.333,459.833 161.333,455.167 162,450.5C 168.327,438.848 173.827,426.848 178.5,414.5C 170.514,406.014 162.348,397.681 154,389.5C 143.768,376.369 136.768,361.702 133,345.5C 132.667,339.833 132.333,334.167 132,328.5C 127.95,339.449 121.783,348.949 113.5,357C 105.488,359.7 99.3214,364.533 95,371.5C 93.4207,373.041 91.5873,374.208 89.5,375C 83.7173,375.835 78.0506,376.835 72.5,378C 67.2926,378.759 62.1259,378.592 57,377.5C 54.755,378.137 52.5883,378.97 50.5,380C 44.1667,380.333 37.8333,380.667 31.5,381C 28.7536,382.75 25.7536,383.75 22.5,384C 21.1667,385.333 19.8333,386.667 18.5,388C 13.9132,388.799 9.41316,388.632 5,387.5C 3.14626,379.002 4.81292,371.335 10,364.5C 10.3333,360.167 10.6667,355.833 11,351.5C 13.555,347.133 17.3884,344.633 22.5,344C 29.3875,338.387 37.0542,334.054 45.5,331C 48.9368,326.559 52.7702,322.393 57,318.5C 57.3333,315.5 57.6667,312.5 58,309.5C 60.37,307.629 62.87,305.962 65.5,304.5C 66.3333,302.833 67.1667,301.167 68,299.5C 74.0725,293.883 80.2392,288.383 86.5,283C 100.453,281.425 114.453,281.091 128.5,282C 133.769,282.47 138.936,283.303 144,284.5C 157.887,280.921 171.72,277.088 185.5,273C 190.155,272.501 194.821,272.334 199.5,272.5C 198.971,268.808 199.971,265.642 202.5,263C 206.17,262.452 209.837,261.952 213.5,261.5C 213.334,256.821 213.501,252.155 214,247.5C 214.615,245.884 215.615,244.551 217,243.5C 217.221,238.78 217.721,234.113 218.5,229.5C 203.636,222.485 189.136,214.818 175,206.5C 172.734,192.892 176.067,180.892 185,170.5C 191.752,169.355 198.586,169.189 205.5,170C 212.409,177.772 220.742,182.939 230.5,185.5C 232.5,185.333 234.5,185.167 236.5,185C 243.26,177.793 250.927,171.793 259.5,167C 265.491,166.501 271.491,166.334 277.5,166.5C 276.959,161.551 277.792,156.884 280,152.5C 283.799,147.699 287.966,143.199 292.5,139C 302.372,134.833 312.706,133.333 323.5,134.5C 323.154,131.398 323.821,128.565 325.5,126C 321.922,115.127 320.755,103.96 322,92.5C 325.721,88.4495 330.221,85.6162 335.5,84C 343.159,83.5003 350.826,83.3336 358.5,83.5C 358.666,78.4889 358.499,73.4889 358,68.5C 353.961,64.7352 351.628,60.0685 351,54.5C 349.488,53.7433 348.154,52.7433 347,51.5C 346.722,44.1654 345.889,36.9987 344.5,30C 344.607,23.6999 345.44,17.5332 347,11.5C 350.625,9.90243 354.125,8.23576 357.5,6.5 Z M 349.5,210.5 C 352.271,210.421 354.937,210.921 357.5,212C 356.167,212.167 354.833,212.333 353.5,212.5C 351.667,212.415 350.334,211.748 349.5,210.5 Z M 417.5,396.5 C 419.924,396.192 422.257,396.526 424.5,397.5C 425.559,400.235 426.225,403.069 426.5,406C 423.793,412.93 421.793,420.096 420.5,427.5C 419.178,427.67 418.011,427.337 417,426.5C 414.904,417.114 411.738,408.114 407.5,399.5C 410.891,398.283 414.224,397.283 417.5,396.5 Z"/></g>
<g><path style="opacity:1" fill="#020101" d="M 360.5,9.5 C 365.183,9.18564 369.683,9.85231 374,11.5C 376.845,16.0749 378.178,21.0749 378,26.5C 379.805,33.2105 381.472,39.8772 383,46.5C 385.414,49.8593 386.581,53.6927 386.5,58C 385.172,64.099 384.172,70.2657 383.5,76.5C 385.466,82.3486 385.966,88.3486 385,94.5C 383.846,95.7433 382.512,96.7433 381,97.5C 380.136,107.685 378.303,117.685 375.5,127.5C 377.164,129.995 379.33,131.995 382,133.5C 384.506,141.495 381.672,144.495 373.5,142.5C 373.66,144.199 373.494,145.866 373,147.5C 368.082,149.978 365.082,153.978 364,159.5C 361.776,161.054 359.276,162.054 356.5,162.5C 354.709,166.123 352.709,169.623 350.5,173C 351.226,174.397 352.393,175.231 354,175.5C 365.164,174.717 376.33,173.883 387.5,173C 390.813,171.032 394.146,169.032 397.5,167C 407.268,165.976 416.435,167.809 425,172.5C 428.599,170.654 432.432,170.154 436.5,171C 438.667,173.167 440.833,175.333 443,177.5C 448.644,174.596 454.477,172.096 460.5,170C 476.381,164.362 492.381,159.029 508.5,154C 517.984,149.761 526.984,144.761 535.5,139C 538.482,138.502 541.482,138.335 544.5,138.5C 543.788,147.428 539.454,153.928 531.5,158C 525.669,161.081 520.002,164.415 514.5,168C 495.167,175.333 475.833,182.667 456.5,190C 455.736,192.069 455.236,194.236 455,196.5C 451.592,199.453 448.092,202.287 444.5,205C 437.5,205.667 430.5,205.667 423.5,205C 421.291,203.127 419.458,200.96 418,198.5C 417.024,200.887 415.191,202.054 412.5,202C 401.685,202.602 391.018,204.269 380.5,207C 382.609,208.141 384.442,209.641 386,211.5C 388.094,229.449 380.761,235.115 364,228.5C 363.228,228.645 362.561,228.978 362,229.5C 360.93,232.242 359.43,234.742 357.5,237C 366.99,241.578 376.324,246.411 385.5,251.5C 391.857,244.153 399.857,239.653 409.5,238C 413.996,234.173 418.996,231.173 424.5,229C 437.201,228.937 449.867,228.937 462.5,229C 467.723,229.112 472.056,231.112 475.5,235C 476.448,235.483 477.448,235.649 478.5,235.5C 477.959,230.551 478.792,225.884 481,221.5C 483.737,220.39 486.571,220.223 489.5,221C 491.333,221.5 492.5,222.667 493,224.5C 494.383,229.08 495.383,233.747 496,238.5C 499.421,239.975 502.754,241.641 506,243.5C 507.204,247.716 507.87,252.049 508,256.5C 511,260.833 514,265.167 517,269.5C 518.754,274.696 519.921,280.029 520.5,285.5C 521.478,285.977 522.311,286.643 523,287.5C 523.778,295.167 525.778,302.501 529,309.5C 529.667,313.833 529.667,318.167 529,322.5C 525.912,324.576 524.079,327.409 523.5,331C 519.906,332.741 516.239,332.908 512.5,331.5C 511.435,335.784 510.602,340.117 510,344.5C 509.5,345 509,345.5 508.5,346C 494.829,347.937 481.163,347.937 467.5,346C 466.391,345.362 465.225,344.862 464,344.5C 456.879,347.862 449.379,349.195 441.5,348.5C 437.5,348.333 433.5,348.167 429.5,348C 426.464,345.994 423.131,345.16 419.5,345.5C 419.81,351.758 419.476,357.924 418.5,364C 420.87,365.036 423.37,365.536 426,365.5C 432.155,364.616 438.322,364.449 444.5,365C 449.908,369.981 453.074,376.148 454,383.5C 451.685,400.684 450.018,418.017 449,435.5C 442.743,440.738 438.576,447.238 436.5,455C 431.327,457.489 426.66,460.822 422.5,465C 414.178,468.32 405.844,471.986 397.5,476C 388.833,482.333 380.167,488.667 371.5,495C 365.739,495.691 360.073,495.191 354.5,493.5C 349.392,496.321 344.392,496.154 339.5,493C 333.926,491.285 328.26,489.952 322.5,489C 321.374,485.256 321.207,481.423 322,477.5C 326.833,472.667 331.667,467.833 336.5,463C 340.61,461.857 344.276,462.523 347.5,465C 350.471,465.794 353.471,466.461 356.5,467C 357.191,468.067 357.691,469.234 358,470.5C 358.374,469.584 358.874,468.75 359.5,468C 363.5,467.667 367.5,467.333 371.5,467C 378.491,461.675 384.824,455.675 390.5,449C 384.454,441.076 378.287,433.243 372,425.5C 367.093,421.629 361.926,418.129 356.5,415C 355.037,411.358 353.203,407.858 351,404.5C 349.89,402.963 348.39,402.297 346.5,402.5C 346.665,405.518 346.498,408.518 346,411.5C 343.908,414.373 342.908,417.707 343,421.5C 334.702,424.788 326.202,425.288 317.5,423C 316.265,420.018 314.432,417.518 312,415.5C 310.509,417.004 308.676,417.837 306.5,418C 301.473,418.938 296.64,418.438 292,416.5C 291.517,415.552 291.351,414.552 291.5,413.5C 288.956,413.896 286.789,413.229 285,411.5C 284.502,408.518 284.335,405.518 284.5,402.5C 269.493,401.331 255.66,396.664 243,388.5C 243.602,394.371 241.935,399.371 238,403.5C 237.333,406.833 236.667,410.167 236,413.5C 229.953,419.277 224.62,425.611 220,432.5C 218.816,436.449 218.482,440.449 219,444.5C 221.079,448.993 223.412,453.326 226,457.5C 234.558,461.695 243.391,465.195 252.5,468C 253.333,468.833 254.167,469.667 255,470.5C 255.239,479.33 259.239,485.664 267,489.5C 267.876,498.23 267.542,506.896 266,515.5C 262.703,518.765 258.703,520.098 254,519.5C 239.631,519.585 231.465,512.585 229.5,498.5C 224.443,497.222 220.276,494.555 217,490.5C 214.689,486.046 212.522,481.546 210.5,477C 195.336,471.613 180.17,466.446 165,461.5C 164.333,458.833 164.333,456.167 165,453.5C 171.936,440.963 177.77,427.963 182.5,414.5C 181.902,413.205 181.402,411.872 181,410.5C 173,402.5 165,394.5 157,386.5C 146.768,373.369 139.768,358.702 136,342.5C 134.826,332.476 135.659,322.643 138.5,313C 138.138,311.775 137.638,310.609 137,309.5C 131.271,321.292 125.271,332.959 119,344.5C 116.518,347.949 113.685,351.116 110.5,354C 101.809,356.987 95.1425,362.32 90.5,370C 84.9492,373.245 79.1159,374.078 73,372.5C 68.2423,376.135 63.2423,376.469 58,373.5C 52.5914,375.362 47.0914,376.695 41.5,377.5C 39.5,377.333 37.5,377.167 35.5,377C 34.8742,376.25 34.3742,375.416 34,374.5C 29.7202,377.89 24.8869,380.056 19.5,381C 16.6158,385.362 12.7825,386.529 8,384.5C 7.25606,376.811 9.75606,370.311 15.5,365C 11.6805,355.318 15.0138,349.318 25.5,347C 32.3875,341.387 40.0542,337.054 48.5,334C 52.1395,329.027 56.4728,324.694 61.5,321C 60.3895,318.263 60.2228,315.429 61,312.5C 63.37,310.629 65.87,308.962 68.5,307.5C 69.3333,305.833 70.1667,304.167 71,302.5C 77.0725,296.883 83.2392,291.383 89.5,286C 107.725,283.792 125.891,284.292 144,287.5C 159.01,284.299 173.843,280.465 188.5,276C 193.155,275.501 197.821,275.334 202.5,275.5C 201.971,271.808 202.971,268.642 205.5,266C 209.17,265.452 212.837,264.952 216.5,264.5C 216.334,259.821 216.501,255.155 217,250.5C 217.833,248.333 219.333,246.833 221.5,246C 219.877,239.314 220.544,232.814 223.5,226.5C 207.701,220.017 192.534,212.35 178,203.5C 177.274,198.761 177.607,194.095 179,189.5C 181.479,183.875 184.479,178.542 188,173.5C 196.229,170.673 203.063,172.506 208.5,179C 214.667,183.167 220.833,187.333 227,191.5C 227.833,190.667 228.667,189.833 229.5,189C 232.833,188.667 236.167,188.333 239.5,188C 246.26,180.793 253.927,174.793 262.5,170C 268.389,169.225 274.055,169.558 279.5,171C 280.297,167.255 280.797,163.421 281,159.5C 290.699,141.196 305.865,133.862 326.5,137.5C 326.02,133.694 327.02,130.361 329.5,127.5C 325.804,117.131 324.304,106.465 325,95.5C 328.721,91.4495 333.221,88.6162 338.5,87C 346.159,86.5003 353.826,86.3336 361.5,86.5C 361.154,83.3979 361.821,80.5645 363.5,78C 363,77.5 362.5,77 362,76.5C 361.667,72.8333 361.333,69.1667 361,65.5C 356.961,61.7352 354.628,57.0685 354,51.5C 352.488,50.7433 351.154,49.7433 350,48.5C 349.875,42.1428 349.042,35.9761 347.5,30C 347.826,24.7178 348.659,19.5511 350,14.5C 353.625,12.9024 357.125,11.2358 360.5,9.5 Z M 349.5,210.5 C 350.334,211.748 351.667,212.415 353.5,212.5C 354.833,212.333 356.167,212.167 357.5,212C 354.937,210.921 352.271,210.421 349.5,210.5 Z M 417.5,396.5 C 414.224,397.283 410.891,398.283 407.5,399.5C 411.738,408.114 414.904,417.114 417,426.5C 418.011,427.337 419.178,427.67 420.5,427.5C 421.793,420.096 423.793,412.93 426.5,406C 426.225,403.069 425.559,400.235 424.5,397.5C 422.257,396.526 419.924,396.192 417.5,396.5 Z"/></g>
<g><path style="opacity:1" fill="#f2ebc4" d="M 364.5,14.5 C 368.722,14.9119 371.222,17.2453 372,21.5C 372.631,29.3732 374.464,36.8732 377.5,44C 375.807,47.5171 376.64,50.3505 380,52.5C 380.489,57.9064 379.989,63.2398 378.5,68.5C 378.608,69.4419 378.941,70.2753 379.5,71C 377.845,72.4443 377.178,74.2776 377.5,76.5C 375.856,76.2865 374.356,76.6198 373,77.5C 371.292,75.4565 369.292,73.7899 367,72.5C 366.667,68.8333 366.333,65.1667 366,61.5C 361.961,57.7352 359.628,53.0685 359,47.5C 357.846,46.2567 356.512,45.2567 355,44.5C 354.667,40.1667 354.333,35.8333 354,31.5C 353.5,31 353,30.5 352.5,30C 353.288,26.9243 353.788,23.7577 354,20.5C 354.374,19.5838 354.874,18.7504 355.5,18C 358.65,16.9644 361.65,15.7977 364.5,14.5 Z"/></g>
<g><path style="opacity:1" fill="#fec90d" d="M 373.5,79.5 C 378.574,79.6548 380.908,82.3214 380.5,87.5C 380.333,88.5 380.167,89.5 380,90.5C 378.247,91.627 376.413,92.627 374.5,93.5C 364.438,89.0942 364.105,84.4276 373.5,79.5 Z"/></g>
<g><path style="opacity:1" fill="#202020" d="M 342.5,91.5 C 350.208,91.3583 357.875,91.8583 365.5,93C 368.249,94.1227 370.749,95.6227 373,97.5C 373.414,97.0426 373.914,96.7093 374.5,96.5C 374.876,99.3733 374.876,102.373 374.5,105.5C 367.91,108.084 361.077,109.75 354,110.5C 346.438,109.869 339.104,108.202 332,105.5C 329.799,104.038 329.133,102.038 330,99.5C 333.625,95.9403 337.792,93.2736 342.5,91.5 Z"/></g>
<g><path style="opacity:1" fill="#20bcff" d="M 330.5,107.5 C 338.079,110.303 345.913,111.969 354,112.5C 361.161,111.99 367.994,110.49 374.5,108C 373.573,114.382 371.573,120.382 368.5,126C 366.5,126.5 364.5,127 362.5,127.5C 358.076,125.793 354.076,126.459 350.5,129.5C 346.287,128.089 341.954,127.422 337.5,127.5C 335.115,120.807 332.782,114.141 330.5,107.5 Z"/></g>
<g><path style="opacity:1" fill="#cea217" d="M 358.5,136.5 C 357.167,137.833 355.833,137.833 354.5,136.5C 351.801,133.41 352.301,130.41 356,127.5C 361.963,129.39 362.796,132.39 358.5,136.5 Z"/></g>
<g><path style="opacity:1" fill="#830214" d="M 345.5,137.5 C 344.699,139.042 344.366,140.708 344.5,142.5C 344.663,144.857 344.497,147.19 344,149.5C 343.586,149.957 343.086,150.291 342.5,150.5C 336.444,148.287 332.778,144.12 331.5,138C 331.6,135.63 332.6,133.797 334.5,132.5C 338.376,133.942 342.043,135.609 345.5,137.5 Z"/></g>
<g><path style="opacity:1" fill="#fec90d" d="M 354.5,136.5 C 355.833,137.833 357.167,137.833 358.5,136.5C 359.404,137.209 359.737,138.209 359.5,139.5C 356.833,139.5 354.167,139.5 351.5,139.5C 351.5,138.5 351.5,137.5 351.5,136.5C 352.5,136.5 353.5,136.5 354.5,136.5 Z"/></g>
<g><path style="opacity:1" fill="#c36208" d="M 367.5,141.5 C 365.079,141.878 362.746,142.545 360.5,143.5C 360.5,141.833 360.5,140.167 360.5,138.5C 363.631,137.908 365.964,138.908 367.5,141.5 Z"/></g>
<g><path style="opacity:1" fill="#fec90d" d="M 351.5,141.5 C 353.948,140.527 356.615,140.194 359.5,140.5C 359.5,141.5 359.5,142.5 359.5,143.5C 356.467,143.868 353.8,143.202 351.5,141.5 Z"/></g>
<g><path style="opacity:1" fill="#f9c08c" d="M 367.5,141.5 C 371.772,144.035 371.439,145.368 366.5,145.5C 364.336,144.882 362.67,145.882 361.5,148.5C 361.624,149.107 361.957,149.44 362.5,149.5C 363.189,152.749 362.356,155.749 360,158.5C 359.502,155.183 359.335,151.85 359.5,148.5C 360.451,147.081 360.784,145.415 360.5,143.5C 362.746,142.545 365.079,141.878 367.5,141.5 Z"/></g>
<g><path style="opacity:1" fill="#707070" d="M 292.5,191.5 C 291.299,193.909 289.633,195.909 287.5,197.5C 286.238,192.187 284.905,186.854 283.5,181.5C 284.823,179.529 286.156,177.529 287.5,175.5C 287.137,174.817 286.804,174.15 286.5,173.5C 285.995,170.159 285.828,166.826 286,163.5C 291.314,152.849 299.647,145.849 311,142.5C 313.333,143.833 315.667,143.833 318,142.5C 321.326,143.063 324.493,144.063 327.5,145.5C 325.289,148.756 322.955,151.922 320.5,155C 313.689,155.931 307.856,158.764 303,163.5C 299.146,173.084 295.646,182.418 292.5,191.5 Z"/></g>
<g><path style="opacity:1" fill="#c2c3c2" d="M 538.5,142.5 C 539.325,145.125 538.659,147.625 536.5,150C 529.496,154.837 522.163,159.171 514.5,163C 492.794,171.068 471.128,179.235 449.5,187.5C 447.076,186.577 445.076,185.077 443.5,183C 449.881,179.426 456.547,176.426 463.5,174C 479.381,168.362 495.381,163.029 511.5,158C 521.184,153.769 530.184,148.602 538.5,142.5 Z"/></g>
<g><path style="opacity:1" fill="#fec90d" d="M 359.5,148.5 C 359.167,148.5 358.833,148.5 358.5,148.5C 356.735,147.539 354.735,147.205 352.5,147.5C 352.5,146.5 352.5,145.5 352.5,144.5C 354.833,144.5 357.167,144.5 359.5,144.5C 359.5,145.833 359.5,147.167 359.5,148.5 Z"/></g>
<g><path style="opacity:1" fill="#dcd200" d="M 344.5,175.5 C 340.863,169.699 335.696,166.032 329,164.5C 322.408,165.618 315.908,167.118 309.5,169C 306.064,170.274 303.397,172.441 301.5,175.5C 301.416,169.288 304.083,164.121 309.5,160C 310.749,159.26 311.749,159.427 312.5,160.5C 310.856,160.81 309.856,161.81 309.5,163.5C 307.683,164.219 307.016,165.219 307.5,166.5C 309.336,165.972 311.003,165.306 312.5,164.5C 316.387,164.354 320.054,163.687 323.5,162.5C 324.675,162.719 325.675,162.386 326.5,161.5C 326.043,160.702 325.376,160.369 324.5,160.5C 324.158,159.662 323.492,159.328 322.5,159.5C 320.302,157.558 320.969,156.225 324.5,155.5C 330.613,160.074 336.613,164.908 342.5,170C 343.449,170.617 344.282,170.451 345,169.5C 346.626,166.942 347.626,164.275 348,161.5C 342.226,157.036 336.393,152.702 330.5,148.5C 329.402,145.132 330.402,144.632 333.5,147C 339.291,151.122 344.791,155.622 350,160.5C 348.756,165.764 346.923,170.764 344.5,175.5 Z"/></g>
<g><path style="opacity:1" fill="#f1b988" d="M 345.5,137.5 C 347.167,137.5 348.833,137.5 350.5,137.5C 350.232,139.099 350.566,140.432 351.5,141.5C 351.64,143.124 350.973,144.29 349.5,145C 351.02,147.334 352.02,149.834 352.5,152.5C 352.631,153.376 352.298,154.043 351.5,154.5C 349.578,153.289 347.745,151.956 346,150.5C 345.257,148.559 345.424,146.726 346.5,145C 345.934,144.005 345.267,143.172 344.5,142.5C 344.366,140.708 344.699,139.042 345.5,137.5 Z"/></g>
<g><path style="opacity:1" fill="#000000" d="M 346.5,140.5 C 347.267,141.172 347.934,142.005 348.5,143C 346.939,143.188 346.272,142.355 346.5,140.5 Z"/></g>
<g><path style="opacity:1" fill="#590f10" d="M 366.5,145.5 C 366.5,146.5 366.5,147.5 366.5,148.5C 365.041,148.433 363.708,148.766 362.5,149.5C 361.957,149.44 361.624,149.107 361.5,148.5C 362.67,145.882 364.336,144.882 366.5,145.5 Z"/></g>
<g><path style="opacity:1" fill="#2796ca" d="M 330.5,148.5 C 336.393,152.702 342.226,157.036 348,161.5C 347.626,164.275 346.626,166.942 345,169.5C 344.282,170.451 343.449,170.617 342.5,170C 336.613,164.908 330.613,160.074 324.5,155.5C 324.389,154.883 324.056,154.383 323.5,154C 325.049,152.786 326.215,151.286 327,149.5C 328.011,148.663 329.178,148.33 330.5,148.5 Z"/></g>
<g><path style="opacity:1" fill="#fec90d" d="M 358.5,148.5 C 358.5,149.5 358.5,150.5 358.5,151.5C 356.585,151.216 354.919,151.549 353.5,152.5C 353.167,152.5 352.833,152.5 352.5,152.5C 352.5,151.167 352.5,149.833 352.5,148.5C 354.5,148.5 356.5,148.5 358.5,148.5 Z"/></g>
<g><path style="opacity:1" fill="#fec90d" d="M 353.5,152.5 C 355.167,152.5 356.833,152.5 358.5,152.5C 358.5,153.5 358.5,154.5 358.5,155.5C 356.833,155.5 355.167,155.5 353.5,155.5C 353.5,154.5 353.5,153.5 353.5,152.5 Z"/></g>
<g><path style="opacity:1" fill="#fec90d" d="M 353.5,156.5 C 358.947,156.455 359.447,157.455 355,159.5C 353.961,158.756 353.461,157.756 353.5,156.5 Z"/></g>
<g><path style="opacity:1" fill="#2788b7" d="M 322.5,159.5 C 323.492,159.328 324.158,159.662 324.5,160.5C 324.167,161.167 323.833,161.833 323.5,162.5C 320.054,163.687 316.387,164.354 312.5,164.5C 311.209,164.737 310.209,164.404 309.5,163.5C 309.856,161.81 310.856,160.81 312.5,160.5C 315.674,158.439 319.007,158.106 322.5,159.5 Z"/></g>
<g><path style="opacity:1" fill="#000000" d="M 324.5,160.5 C 325.376,160.369 326.043,160.702 326.5,161.5C 325.675,162.386 324.675,162.719 323.5,162.5C 323.833,161.833 324.167,161.167 324.5,160.5 Z"/></g>
<g><path style="opacity:1" fill="#000000" d="M 309.5,163.5 C 310.209,164.404 311.209,164.737 312.5,164.5C 311.003,165.306 309.336,165.972 307.5,166.5C 307.016,165.219 307.683,164.219 309.5,163.5 Z"/></g>
<g><path style="opacity:1" fill="#23b0ef" d="M 344.5,175.5 C 345.614,176.885 346.614,178.385 347.5,180C 353.694,180.208 359.694,180.375 365.5,180.5C 362.866,182.899 361.699,185.899 362,189.5C 365.887,187.647 369.053,184.98 371.5,181.5C 381.468,179.44 391.468,177.44 401.5,175.5C 402.5,175.5 403.5,175.5 404.5,175.5C 404.5,176.5 404.5,177.5 404.5,178.5C 404.249,180.17 403.582,181.67 402.5,183C 407.086,186.058 409.753,190.225 410.5,195.5C 410.586,196.496 410.252,197.329 409.5,198C 393.864,200.226 378.197,202.393 362.5,204.5C 356.334,203.459 350.168,202.459 344,201.5C 335.341,207.409 325.841,211.576 315.5,214C 309.804,214.83 304.137,214.663 298.5,213.5C 297.652,211.591 297.318,209.591 297.5,207.5C 301.219,203.978 305.552,201.478 310.5,200C 306.064,198.098 301.731,198.265 297.5,200.5C 294.819,195.559 295.152,190.559 298.5,185.5C 301.623,183.885 304.956,182.885 308.5,182.5C 311.167,183.167 313.833,183.833 316.5,184.5C 317.338,184.158 317.672,183.492 317.5,182.5C 319.22,181.249 319.553,179.749 318.5,178C 313.167,177.333 307.833,177.333 302.5,178C 301.584,178.278 300.918,178.778 300.5,179.5C 299.957,179.44 299.624,179.107 299.5,178.5C 300.193,177.482 300.859,176.482 301.5,175.5C 303.397,172.441 306.064,170.274 309.5,169C 315.908,167.118 322.408,165.618 329,164.5C 335.696,166.032 340.863,169.699 344.5,175.5 Z"/></g>
<g><path style="opacity:1" fill="#f2ebc4" d="M 411.5,174.5 C 407.958,174.187 404.625,174.521 401.5,175.5C 399.801,175.66 398.134,175.494 396.5,175C 401.444,170.504 406.444,170.337 411.5,174.5 Z"/></g>
<g><path style="opacity:1" fill="#e2dab5" d="M 286.5,173.5 C 286.804,174.15 287.137,174.817 287.5,175.5C 286.156,177.529 284.823,179.529 283.5,181.5C 277.837,181.136 272.171,181.636 266.5,183C 262.882,185.931 262.549,189.265 265.5,193C 259.696,194.823 254.363,197.49 249.5,201C 242.5,207.333 235.5,213.667 228.5,220C 225.743,220.584 223.077,220.25 220.5,219C 213.167,215.333 205.833,211.667 198.5,208C 195.664,206.609 193.331,204.776 191.5,202.5C 191.312,200.897 191.812,199.563 193,198.5C 196.644,200.401 200.144,202.401 203.5,204.5C 205.833,205.833 208.167,205.833 210.5,204.5C 211.878,203.766 213.378,203.099 215,202.5C 215.063,199.339 214.229,196.339 212.5,193.5C 208.988,191.243 205.654,188.743 202.5,186C 202.728,185.601 203.062,185.435 203.5,185.5C 204.496,185.586 205.329,185.252 206,184.5C 211.224,188.723 216.724,192.556 222.5,196C 226.61,197.143 230.276,196.477 233.5,194C 238.976,192.833 239.642,193.833 235.5,197C 235.833,197.333 236.167,197.667 236.5,198C 232.486,204.37 228.486,210.703 224.5,217C 226.441,217.743 228.274,217.576 230,216.5C 235.404,204.185 242.904,193.352 252.5,184C 257.167,181 261.833,178 266.5,175C 271.046,175.704 275.712,176.537 280.5,177.5C 282.765,176.568 284.765,175.235 286.5,173.5 Z"/></g>
<g><path style="opacity:1" fill="#2796cb" d="M 417.5,176.5 C 416.549,177.919 416.216,179.585 416.5,181.5C 416.963,184.482 417.296,187.482 417.5,190.5C 417.179,192.048 416.179,192.715 414.5,192.5C 411.507,189.499 408.841,186.165 406.5,182.5C 407.519,180.396 408.519,178.396 409.5,176.5C 410.5,176.167 411.167,175.5 411.5,174.5C 413.72,173.916 415.72,174.583 417.5,176.5 Z"/></g>
<g><path style="opacity:1" fill="#000000" d="M 401.5,175.5 C 404.625,174.521 407.958,174.187 411.5,174.5C 411.167,175.5 410.5,176.167 409.5,176.5C 408.432,175.566 407.099,175.232 405.5,175.5C 405.737,176.791 405.404,177.791 404.5,178.5C 404.5,177.5 404.5,176.5 404.5,175.5C 403.5,175.5 402.5,175.5 401.5,175.5 Z"/></g>
<g><path style="opacity:1" fill="#dcd200" d="M 409.5,176.5 C 408.519,178.396 407.519,180.396 406.5,182.5C 408.841,186.165 411.507,189.499 414.5,192.5C 414.597,196.816 413.263,197.816 410.5,195.5C 409.753,190.225 407.086,186.058 402.5,183C 403.582,181.67 404.249,180.17 404.5,178.5C 405.404,177.791 405.737,176.791 405.5,175.5C 407.099,175.232 408.432,175.566 409.5,176.5 Z"/></g>
<g><path style="opacity:1" fill="#000000" d="M 417.5,176.5 C 418.872,178.477 418.538,180.144 416.5,181.5C 416.216,179.585 416.549,177.919 417.5,176.5 Z"/></g>
<g><path style="opacity:1" fill="#bcb699" d="M 417.5,176.5 C 420.056,177.051 422.389,178.051 424.5,179.5C 428.768,184.036 431.435,189.369 432.5,195.5C 432.5,196.5 432.5,197.5 432.5,198.5C 432.5,199.167 432.167,199.5 431.5,199.5C 430.077,201.545 428.077,202.545 425.5,202.5C 425.5,201.167 425.5,199.833 425.5,198.5C 427.425,195.697 427.425,192.697 425.5,189.5C 425.631,188.761 425.464,188.094 425,187.5C 423.378,188.099 421.878,188.766 420.5,189.5C 420.672,190.492 420.338,191.158 419.5,191.5C 418.833,191.167 418.167,190.833 417.5,190.5C 417.296,187.482 416.963,184.482 416.5,181.5C 418.538,180.144 418.872,178.477 417.5,176.5 Z"/></g>
<g><path style="opacity:1" fill="#ded7b4" d="M 447.5,190.5 C 446.833,191.833 445.833,192.833 444.5,193.5C 443.778,193.082 443.278,192.416 443,191.5C 442.019,194.689 440.686,195.022 439,192.5C 437.951,194.107 436.451,194.773 434.5,194.5C 434.657,193.127 434.49,191.793 434,190.5C 433.802,192.382 433.302,194.048 432.5,195.5C 431.435,189.369 428.768,184.036 424.5,179.5C 427.241,178.917 429.908,177.917 432.5,176.5C 438.196,180.533 443.196,185.199 447.5,190.5 Z"/></g>
<g><path style="opacity:1" fill="#616161" d="M 201.5,182.5 C 199.887,183.838 199.387,185.505 200,187.5C 204.5,190.667 208.333,194.5 211.5,199C 208.293,199.572 206.626,201.405 206.5,204.5C 207.833,204.5 209.167,204.5 210.5,204.5C 208.167,205.833 205.833,205.833 203.5,204.5C 205.652,203.923 205.985,202.756 204.5,201C 200.727,199.03 196.894,197.197 193,195.5C 191.057,197.136 189.557,199.136 188.5,201.5C 185.939,201.553 183.939,200.553 182.5,198.5C 184.247,191.007 187.58,184.34 192.5,178.5C 197.098,176.421 200.098,177.755 201.5,182.5 Z"/></g>
<g><path style="opacity:1" fill="#1a638d" d="M 317.5,182.5 C 314.5,182.5 311.5,182.5 308.5,182.5C 304.956,182.885 301.623,183.885 298.5,185.5C 297.957,185.44 297.624,185.107 297.5,184.5C 298.065,182.491 299.065,180.824 300.5,179.5C 300.918,178.778 301.584,178.278 302.5,178C 307.833,177.333 313.167,177.333 318.5,178C 319.553,179.749 319.22,181.249 317.5,182.5 Z"/></g>
<g><path style="opacity:1" fill="#1b5d83" d="M 371.5,181.5 C 369.053,184.98 365.887,187.647 362,189.5C 361.699,185.899 362.866,182.899 365.5,180.5C 368.012,178.821 370.012,179.155 371.5,181.5 Z"/></g>
<g><path style="opacity:1" fill="#1c5070" d="M 341.5,179.5 C 343.964,182.066 343.631,184.566 340.5,187C 338.545,187.953 336.878,189.287 335.5,191C 333.087,191.484 330.754,191.15 328.5,190C 329.5,189.667 330.5,189.333 331.5,189C 334.25,185.142 337.584,181.975 341.5,179.5 Z"/></g>
<g><path style="opacity:1" fill="#f2bf11" d="M 201.5,182.5 C 204.007,182.632 204.674,183.632 203.5,185.5C 203.062,185.435 202.728,185.601 202.5,186C 205.654,188.743 208.988,191.243 212.5,193.5C 214.229,196.339 215.063,199.339 215,202.5C 213.378,203.099 211.878,203.766 210.5,204.5C 209.167,204.5 207.833,204.5 206.5,204.5C 206.626,201.405 208.293,199.572 211.5,199C 208.333,194.5 204.5,190.667 200,187.5C 199.387,185.505 199.887,183.838 201.5,182.5 Z"/></g>
<g><path style="opacity:1" fill="#000000" d="M 308.5,182.5 C 311.5,182.5 314.5,182.5 317.5,182.5C 317.672,183.492 317.338,184.158 316.5,184.5C 313.833,183.833 311.167,183.167 308.5,182.5 Z"/></g>
<g><path style="opacity:1" fill="#766f4c" d="M 257.5,182.5 C 259.273,183.314 259.773,184.648 259,186.5C 256.372,188.126 254.039,190.126 252,192.5C 249.248,195.578 246.914,198.911 245,202.5C 243.414,203.376 241.914,204.376 240.5,205.5C 240.167,205.167 239.833,204.833 239.5,204.5C 242,200.167 244.5,195.833 247,191.5C 250.692,188.635 254.192,185.635 257.5,182.5 Z"/></g>
<g><path style="opacity:1" fill="#fec90d" d="M 279.5,185.5 C 276.67,185.963 274.003,186.629 271.5,187.5C 264.855,188.209 264.188,187.042 269.5,184C 272.5,183.333 275.5,183.333 278.5,184C 279.056,184.383 279.389,184.883 279.5,185.5 Z"/></g>
<g><path style="opacity:1" fill="#b57755" d="M 282.5,229.5 C 276.328,216.157 270.995,202.491 266.5,188.5C 268.415,188.784 270.081,188.451 271.5,187.5C 274.003,186.629 276.67,185.963 279.5,185.5C 280.688,184.316 281.855,184.316 283,185.5C 284.404,200.152 285.57,214.819 286.5,229.5C 285.167,229.5 283.833,229.5 282.5,229.5 Z"/></g>
<g><path style="opacity:1" fill="#000000" d="M 316.5,184.5 C 316.918,185.222 317.584,185.722 318.5,186C 317.365,186.749 316.365,186.583 315.5,185.5C 315.624,184.893 315.957,184.56 316.5,184.5 Z"/></g>
<g><path style="opacity:1" fill="#000000" d="M 425.5,189.5 C 423.833,189.5 422.167,189.5 420.5,189.5C 421.878,188.766 423.378,188.099 425,187.5C 425.464,188.094 425.631,188.761 425.5,189.5 Z"/></g>
<g><path style="opacity:1" fill="#fec90d" d="M 420.5,189.5 C 422.167,189.5 423.833,189.5 425.5,189.5C 427.425,192.697 427.425,195.697 425.5,198.5C 424.504,198.586 423.671,198.252 423,197.5C 422.436,195.113 421.27,193.113 419.5,191.5C 420.338,191.158 420.672,190.492 420.5,189.5 Z"/></g>
<g><path style="opacity:1" fill="#000000" d="M 444.5,193.5 C 442.187,198.986 438.187,200.652 432.5,198.5C 432.5,197.5 432.5,196.5 432.5,195.5C 433.302,194.048 433.802,192.382 434,190.5C 434.49,191.793 434.657,193.127 434.5,194.5C 436.451,194.773 437.951,194.107 439,192.5C 440.686,195.022 442.019,194.689 443,191.5C 443.278,192.416 443.778,193.082 444.5,193.5 Z"/></g>
<g><path style="opacity:1" fill="#fec90d" d="M 447.5,190.5 C 448.756,190.461 449.756,190.961 450.5,192C 446.601,196.594 441.768,199.428 436,200.5C 434.293,200.492 432.793,200.158 431.5,199.5C 432.167,199.5 432.5,199.167 432.5,198.5C 438.187,200.652 442.187,198.986 444.5,193.5C 445.833,192.833 446.833,191.833 447.5,190.5 Z"/></g>
<g><path style="opacity:1" fill="#f2ebc4" d="M 292.5,191.5 C 293.491,198.72 294.657,206.053 296,213.5C 297.54,217.419 299.707,220.919 302.5,224C 316.964,227.837 329.13,224.003 339,212.5C 339.249,216.412 337.916,219.745 335,222.5C 320.08,239.381 304.747,240.047 289,224.5C 287.169,215.537 286.669,206.537 287.5,197.5C 289.633,195.909 291.299,193.909 292.5,191.5 Z"/></g>
<g><path style="opacity:1" fill="#1c5374" d="M 333.5,193.5 C 337.652,193.631 338.318,195.131 335.5,198C 330.997,200.39 326.331,202.39 321.5,204C 320.874,204.75 320.374,205.584 320,206.5C 318.186,204.285 317.686,201.952 318.5,199.5C 323.452,197.079 328.452,195.079 333.5,193.5 Z"/></g>
<g><path style="opacity:1" fill="#fec90d" d="M 203.5,204.5 C 200.144,202.401 196.644,200.401 193,198.5C 191.812,199.563 191.312,200.897 191.5,202.5C 190.105,203.815 189.105,203.481 188.5,201.5C 189.557,199.136 191.057,197.136 193,195.5C 196.894,197.197 200.727,199.03 204.5,201C 205.985,202.756 205.652,203.923 203.5,204.5 Z"/></g>
<g><path style="opacity:1" fill="#717271" d="M 264.5,195.5 C 265.376,195.369 266.043,195.702 266.5,196.5C 267.074,198.059 267.74,199.559 268.5,201C 261.069,205.928 254.069,211.428 247.5,217.5C 243.059,225.295 238.892,233.295 235,241.5C 233.356,244.311 231.19,246.644 228.5,248.5C 227.042,245.672 226.042,242.672 225.5,239.5C 227.391,233.387 229.558,227.387 232,221.5C 239.5,214.667 247,207.833 254.5,201C 257.55,198.497 260.883,196.664 264.5,195.5 Z"/></g>
<g><path style="opacity:1" fill="#1b587c" d="M 297.5,207.5 C 296.244,205.274 296.244,202.941 297.5,200.5C 301.731,198.265 306.064,198.098 310.5,200C 305.552,201.478 301.219,203.978 297.5,207.5 Z"/></g>
<g><path style="opacity:1" fill="#e7d990" d="M 267.5,203.5 C 268.239,203.369 268.906,203.536 269.5,204C 264.727,209.784 261.227,216.284 259,223.5C 253.333,227.167 247.667,230.833 242,234.5C 242.846,229.977 244.513,225.644 247,221.5C 253.624,215.129 260.458,209.129 267.5,203.5 Z"/></g>
<g><path style="opacity:1" fill="#f2ebc4" d="M 339.5,206.5 C 340.525,206.897 340.692,207.563 340,208.5C 333.493,217.361 324.826,222.361 314,223.5C 308.754,222.956 304.254,220.956 300.5,217.5C 314.786,217.984 327.786,214.318 339.5,206.5 Z"/></g>
<g><path style="opacity:1" fill="#fefffe" d="M 346.5,206.5 C 352.496,207.285 358.496,208.118 364.5,209C 362.688,212.134 360.521,214.968 358,217.5C 353.906,216.217 349.739,215.217 345.5,214.5C 346.393,211.916 346.726,209.249 346.5,206.5 Z M 349.5,210.5 C 350.334,211.748 351.667,212.415 353.5,212.5C 354.833,212.333 356.167,212.167 357.5,212C 354.937,210.921 352.271,210.421 349.5,210.5 Z"/></g>
<g><path style="opacity:1" fill="#20bcff" d="M 273.5,217.5 C 268.211,219.637 265.878,223.637 266.5,229.5C 265.71,230.609 265.21,231.942 265,233.5C 260.333,227.167 260.333,220.833 265,214.5C 266.667,212.167 268.333,209.833 270,207.5C 272.257,210.438 273.424,213.771 273.5,217.5 Z"/></g>
<g><path style="opacity:1" fill="#fefffe" d="M 373.5,216.5 C 374.465,217.721 374.298,219.054 373,220.5C 372.282,221.451 371.449,221.617 370.5,221C 371.883,219.729 372.883,218.229 373.5,216.5 Z"/></g>
<g><path style="opacity:1" fill="#117cb1" d="M 273.5,217.5 C 275.977,220.438 277.977,223.771 279.5,227.5C 278.757,228.182 278.091,228.849 277.5,229.5C 277.81,231.144 278.81,232.144 280.5,232.5C 280.5,233.833 280.5,235.167 280.5,236.5C 278.62,236.229 277.287,236.896 276.5,238.5C 273.757,235.464 270.424,233.464 266.5,232.5C 266.5,231.5 266.5,230.5 266.5,229.5C 265.878,223.637 268.211,219.637 273.5,217.5 Z"/></g>
<g><path style="opacity:1" fill="#fec90d" d="M 340.5,221.5 C 338.194,225.085 336.861,229.085 336.5,233.5C 335.842,234.398 335.176,235.398 334.5,236.5C 332.679,234.757 330.679,233.257 328.5,232C 332.702,228.133 336.535,223.967 340,219.5C 340.464,220.094 340.631,220.761 340.5,221.5 Z"/></g>
<g><path style="opacity:1" fill="#d2cbaa" d="M 355.5,231.5 C 353.572,229.706 351.238,228.706 348.5,228.5C 347.68,232.183 349.013,234.517 352.5,235.5C 352.715,237.179 352.048,238.179 350.5,238.5C 348.73,236.887 347.564,234.887 347,232.5C 346.667,233.167 346.333,233.833 346,234.5C 345.023,233.226 344.189,233.226 343.5,234.5C 341.409,234.318 339.409,234.652 337.5,235.5C 336.702,235.043 336.369,234.376 336.5,233.5C 336.861,229.085 338.194,225.085 340.5,221.5C 346.163,218.619 351.663,218.952 357,222.5C 358.011,221.663 359.178,221.33 360.5,221.5C 361.056,224.895 359.723,227.062 356.5,228C 359.064,229.736 358.731,230.902 355.5,231.5 Z"/></g>
<g><path style="opacity:1" fill="#000000" d="M 351.5,223.5 C 352.267,224.172 352.934,225.005 353.5,226C 351.939,226.188 351.272,225.355 351.5,223.5 Z"/></g>
<g><path style="opacity:1" fill="#66412b" d="M 490.5,243.5 C 489.609,241.391 488.442,239.391 487,237.5C 485.041,242.652 486.208,247.152 490.5,251C 489.167,251.667 487.833,251.667 486.5,251C 485.627,249.955 484.627,249.122 483.5,248.5C 484.386,242.847 484.386,237.013 483.5,231C 485.718,224.86 487.552,225.027 489,231.5C 489.598,235.057 490.431,238.557 491.5,242C 491.43,242.765 491.097,243.265 490.5,243.5 Z"/></g>
<g><path style="opacity:1" fill="#0c82ba" d="M 315.5,240.5 C 313.992,242.181 312.992,244.181 312.5,246.5C 310.219,248.032 310.219,249.366 312.5,250.5C 313.391,251.11 314.391,251.443 315.5,251.5C 310.281,255.773 304.281,258.44 297.5,259.5C 296.374,256.535 295.374,253.535 294.5,250.5C 293.677,247.316 293.01,243.983 292.5,240.5C 292.737,239.209 292.404,238.209 291.5,237.5C 291.672,236.508 291.338,235.842 290.5,235.5C 290.768,233.901 290.434,232.568 289.5,231.5C 288.833,231.5 288.5,231.167 288.5,230.5C 288.351,229.448 288.517,228.448 289,227.5C 294.493,232.484 300.66,236.484 307.5,239.5C 310.344,237.897 313.344,237.397 316.5,238C 315.748,238.671 315.414,239.504 315.5,240.5 Z"/></g>
<g><path style="opacity:1" fill="#a9a48a" d="M 355.5,231.5 C 355.912,233.973 354.912,235.306 352.5,235.5C 349.013,234.517 347.68,232.183 348.5,228.5C 351.238,228.706 353.572,229.706 355.5,231.5 Z"/></g>
<g><path style="opacity:1" fill="#f2ebc4" d="M 277.5,229.5 C 279.167,229.5 280.833,229.5 282.5,229.5C 284.265,230.461 286.265,230.795 288.5,230.5C 288.5,231.167 288.833,231.5 289.5,231.5C 288.082,233.308 286.082,233.975 283.5,233.5C 282.779,231.618 281.779,231.285 280.5,232.5C 278.81,232.144 277.81,231.144 277.5,229.5 Z"/></g>
<g><path style="opacity:1" fill="#fefffe" d="M 256.5,230.5 C 258.657,231.053 258.49,232.053 256,233.5C 255.088,237.795 254.421,242.128 254,246.5C 253.167,245.667 252.333,244.833 251.5,244C 247.833,243 244.167,242 240.5,241C 246.07,237.725 251.403,234.225 256.5,230.5 Z"/></g>
<g><path style="opacity:1" fill="#000000" d="M 289.5,231.5 C 290.434,232.568 290.768,233.901 290.5,235.5C 288.048,234.935 285.715,234.268 283.5,233.5C 286.082,233.975 288.082,233.308 289.5,231.5 Z"/></g>
<g><path style="opacity:1" fill="#9c674a" d="M 283.5,233.5 C 285.715,234.268 288.048,234.935 290.5,235.5C 291.338,235.842 291.672,236.508 291.5,237.5C 291.5,238.833 290.833,239.5 289.5,239.5C 288.414,239.62 287.747,240.287 287.5,241.5C 287.059,243.145 286.726,244.811 286.5,246.5C 288.226,252.846 290.059,259.179 292,265.5C 292.499,269.821 292.666,274.154 292.5,278.5C 293.08,282.649 292.414,286.316 290.5,289.5C 289.432,288.566 288.099,288.232 286.5,288.5C 285.885,273.16 285.051,257.827 284,242.5C 283.576,239.975 282.41,237.975 280.5,236.5C 280.5,235.167 280.5,233.833 280.5,232.5C 281.779,231.285 282.779,231.618 283.5,233.5 Z"/></g>
<g><path style="opacity:1" fill="#fec90d" d="M 326.5,232.5 C 327.773,233.077 327.773,233.743 326.5,234.5C 325.537,234.03 325.537,233.363 326.5,232.5 Z"/></g>
<g><path style="opacity:1" fill="#1f1f1f" d="M 459.5,251.5 C 453.906,251.952 448.406,251.952 443,251.5C 442.581,252.672 441.915,253.672 441,254.5C 439.274,253.424 437.441,253.257 435.5,254C 423.155,259.19 411.488,266.024 400.5,274.5C 394.996,269.833 389.33,265.333 383.5,261C 385.377,259.815 387.377,258.815 389.5,258C 395.213,249.47 403.213,244.47 413.5,243C 419.27,237.115 426.27,233.948 434.5,233.5C 441.68,234.656 448.846,234.656 456,233.5C 462.183,233.344 467.35,235.511 471.5,240C 474.903,240.1 478.07,240.934 481,242.5C 481.667,243.833 481.667,245.167 481,246.5C 477.495,244.316 473.828,243.649 470,244.5C 468.634,246.37 467.467,248.37 466.5,250.5C 464.257,251.474 461.924,251.808 459.5,251.5 Z"/></g>
<g><path style="opacity:1" fill="#20bcff" d="M 276.5,240.5 C 277.002,243.669 278.669,246.002 281.5,247.5C 276.826,246.331 272.326,244.664 268,242.5C 266.399,239.906 266.233,237.239 267.5,234.5C 270.536,236.552 273.536,238.552 276.5,240.5 Z"/></g>
<g><path style="opacity:1" fill="#222222" d="M 350.5,238.5 C 358.808,247.282 368.475,254.448 379.5,260C 401.527,276.688 421.693,295.521 440,316.5C 440.667,317.167 440.667,317.833 440,318.5C 418.739,299.784 397.573,280.951 376.5,262C 362.904,255.9 351.904,246.733 343.5,234.5C 344.189,233.226 345.023,233.226 346,234.5C 346.333,233.833 346.667,233.167 347,232.5C 347.564,234.887 348.73,236.887 350.5,238.5 Z"/></g>
<g><path style="opacity:1" fill="#707070" d="M 263.5,242.5 C 262.677,250.471 262.344,258.471 262.5,266.5C 266.691,278.865 273.858,289.198 284,297.5C 284.796,300.039 284.629,302.372 283.5,304.5C 280.738,303.62 278.071,302.454 275.5,301C 269.267,296.585 262.933,292.418 256.5,288.5C 257.659,286.145 258.659,283.812 259.5,281.5C 260.298,278.829 260.965,275.996 261.5,273C 259.983,266.927 258.316,260.927 256.5,255C 257.949,248.928 259.116,242.761 260,236.5C 261.356,235.62 262.856,235.286 264.5,235.5C 264.552,237.903 264.219,240.236 263.5,242.5 Z"/></g>
<g><path style="opacity:1" fill="#fec90d" d="M 325.5,235.5 C 326.774,236.189 326.774,237.023 325.5,238C 322.833,238.667 320.167,238.667 317.5,238C 320.166,236.939 322.833,236.106 325.5,235.5 Z"/></g>
<g><path style="opacity:1" fill="#c2c3c2" d="M 280.5,236.5 C 280.5,236.833 280.5,237.167 280.5,237.5C 276.378,240.868 276.711,241.868 281.5,240.5C 282.167,240.5 282.5,240.833 282.5,241.5C 277.445,242.488 277.445,243.821 282.5,245.5C 283.895,246.648 283.728,247.648 282,248.5C 281.601,248.272 281.435,247.938 281.5,247.5C 278.669,246.002 277.002,243.669 276.5,240.5C 276.5,239.833 276.5,239.167 276.5,238.5C 277.287,236.896 278.62,236.229 280.5,236.5 Z"/></g>
<g><path style="opacity:1" fill="#008cca" d="M 280.5,237.5 C 281.11,238.391 281.443,239.391 281.5,240.5C 276.711,241.868 276.378,240.868 280.5,237.5 Z"/></g>
<g><path style="opacity:1" fill="#000000" d="M 291.5,237.5 C 292.404,238.209 292.737,239.209 292.5,240.5C 291.209,240.737 290.209,240.404 289.5,239.5C 290.833,239.5 291.5,238.833 291.5,237.5 Z"/></g>
<g><path style="opacity:1" fill="#c2c3c2" d="M 289.5,239.5 C 290.209,240.404 291.209,240.737 292.5,240.5C 293.01,243.983 293.677,247.316 294.5,250.5C 294.354,261.182 294.687,271.848 295.5,282.5C 295.167,284.833 294.833,287.167 294.5,289.5C 293.833,285.687 293.166,282.021 292.5,278.5C 292.666,274.154 292.499,269.821 292,265.5C 290.059,259.179 288.226,252.846 286.5,246.5C 286.726,244.811 287.059,243.145 287.5,241.5C 287.747,240.287 288.414,239.62 289.5,239.5 Z"/></g>
<g><path style="opacity:1" fill="#c19818" d="M 319.5,240.5 C 321.099,240.232 322.432,240.566 323.5,241.5C 322.432,242.434 321.099,242.768 319.5,242.5C 318.167,241.833 316.833,241.167 315.5,240.5C 316.833,239.167 318.167,239.167 319.5,240.5 Z"/></g>
<g><path style="opacity:1" fill="#fec90d" d="M 319.5,240.5 C 321.364,239.207 323.364,239.207 325.5,240.5C 325.043,241.298 324.376,241.631 323.5,241.5C 322.432,240.566 321.099,240.232 319.5,240.5 Z"/></g>
<g><path style="opacity:1" fill="#fefffe" d="M 340.5,240.5 C 341.627,241.122 342.627,241.955 343.5,243C 339.167,243.667 334.833,243.667 330.5,243C 334.179,242.974 337.512,242.14 340.5,240.5 Z"/></g>
<g><path style="opacity:1" fill="#20bafc" d="M 265.5,247.5 C 264.371,249.628 264.204,251.961 265,254.5C 266.252,256.001 267.252,257.668 268,259.5C 271.757,261.796 275.591,263.796 279.5,265.5C 280.974,266.436 281.974,267.77 282.5,269.5C 283.839,277.744 284.339,286.078 284,294.5C 275.453,287.077 269.119,278.077 265,267.5C 264.329,266.748 263.496,266.414 262.5,266.5C 262.344,258.471 262.677,250.471 263.5,242.5C 264.117,242.389 264.617,242.056 265,241.5C 265.495,243.473 265.662,245.473 265.5,247.5 Z"/></g>
<g><path style="opacity:1" fill="#008cca" d="M 282.5,241.5 C 282.5,242.833 282.5,244.167 282.5,245.5C 277.445,243.821 277.445,242.488 282.5,241.5 Z"/></g>
<g><path style="opacity:1" fill="#fec90d" d="M 319.5,242.5 C 321.158,243.181 322.825,244.015 324.5,245C 321.691,245.18 319.024,244.513 316.5,243C 317.448,242.517 318.448,242.351 319.5,242.5 Z"/></g>
<g><path style="opacity:1" fill="#fec90d" d="M 282.5,269.5 C 281.974,267.77 280.974,266.436 279.5,265.5C 279.67,264.178 279.337,263.011 278.5,262C 270.58,260.297 266.247,255.464 265.5,247.5C 266.268,246.737 266.768,245.737 267,244.5C 267.749,254.749 273.249,260.083 283.5,260.5C 283.81,263.713 283.477,266.713 282.5,269.5 Z"/></g>
<g><path style="opacity:1" fill="#d9ab15" d="M 320.5,248.5 C 318.067,248.273 316.401,249.273 315.5,251.5C 314.391,251.443 313.391,251.11 312.5,250.5C 312.881,249.069 313.881,248.236 315.5,248C 314.263,247.768 313.263,247.268 312.5,246.5C 314.566,244.155 316.9,243.989 319.5,246C 320.252,246.671 320.586,247.504 320.5,248.5 Z"/></g>
<g><path style="opacity:1" fill="#f2ebc4" d="M 240.5,246.5 C 237.351,246.415 234.684,247.415 232.5,249.5C 231.957,249.44 231.624,249.107 231.5,248.5C 234.132,245.566 237.132,244.9 240.5,246.5 Z"/></g>
<g><path style="opacity:1" fill="#20bcff" d="M 269.5,245.5 C 273.471,247.159 277.471,248.826 281.5,250.5C 283.102,253.338 283.602,256.338 283,259.5C 279.045,258.023 275.378,256.023 272,253.5C 271.059,250.846 270.226,248.179 269.5,245.5 Z"/></g>
<g><path style="opacity:1" fill="#f2ebc4" d="M 240.5,246.5 C 246.622,245.927 250.955,248.427 253.5,254C 252.906,254.464 252.239,254.631 251.5,254.5C 250.089,252.086 248.089,250.419 245.5,249.5C 243.928,248.313 242.261,247.313 240.5,246.5 Z"/></g>
<g><path style="opacity:1" fill="#000000" d="M 312.5,246.5 C 313.263,247.268 314.263,247.768 315.5,248C 313.881,248.236 312.881,249.069 312.5,250.5C 310.219,249.366 310.219,248.032 312.5,246.5 Z"/></g>
<g><path style="opacity:1" fill="#196894" d="M 240.5,246.5 C 242.261,247.313 243.928,248.313 245.5,249.5C 246.911,251.914 248.911,253.581 251.5,254.5C 251.611,255.117 251.944,255.617 252.5,256C 251.207,256.49 249.873,256.657 248.5,256.5C 248.423,255.25 247.756,254.417 246.5,254C 244.866,253.506 243.199,253.34 241.5,253.5C 237.537,253.089 233.87,253.922 230.5,256C 228.267,258.996 225.934,261.829 223.5,264.5C 221.31,263.252 220.977,261.586 222.5,259.5C 223.079,255.639 225.079,252.973 228.5,251.5C 230.153,251.34 231.486,250.674 232.5,249.5C 234.684,247.415 237.351,246.415 240.5,246.5 Z"/></g>
<g><path style="opacity:1" fill="#000000" d="M 265.5,247.5 C 266.247,255.464 270.58,260.297 278.5,262C 279.337,263.011 279.67,264.178 279.5,265.5C 275.591,263.796 271.757,261.796 268,259.5C 267.252,257.668 266.252,256.001 265,254.5C 264.204,251.961 264.371,249.628 265.5,247.5 Z"/></g>
<g><path style="opacity:1" fill="#fec90d" d="M 317.5,276.5 C 316.387,277.946 316.22,279.613 317,281.5C 317.422,283.426 318.589,284.426 320.5,284.5C 322.002,286.175 323.335,288.008 324.5,290C 323.906,290.464 323.239,290.631 322.5,290.5C 319.524,287.698 316.358,285.031 313,282.5C 312.86,280.744 313.36,279.078 314.5,277.5C 313.274,272.861 311.608,272.528 309.5,276.5C 308.5,276.5 307.5,276.5 306.5,276.5C 305.043,274.372 304.043,272.038 303.5,269.5C 305.167,269.5 306.833,269.5 308.5,269.5C 309.947,270.885 310.947,270.552 311.5,268.5C 313.857,265.667 314.024,262.667 312,259.5C 308.13,262.576 303.964,264.909 299.5,266.5C 298.5,266.5 297.5,266.5 296.5,266.5C 296.298,264.05 296.631,261.717 297.5,259.5C 304.281,258.44 310.281,255.773 315.5,251.5C 317.434,250.89 319.101,249.89 320.5,248.5C 322.23,247.024 323.563,247.358 324.5,249.5C 320.882,253.24 317.882,257.407 315.5,262C 316.401,266.809 317.068,271.642 317.5,276.5 Z"/></g>
<g><path style="opacity:1" fill="#ec1c23" d="M 470.5,247.5 C 471.043,247.56 471.376,247.893 471.5,248.5C 466.236,261.126 461.069,273.793 456,286.5C 459.134,272.938 463.967,259.938 470.5,247.5 Z"/></g>
<g><path style="opacity:1" fill="#ec1c23" d="M 477.5,247.5 C 479.225,247.843 479.725,248.843 479,250.5C 473.591,262.984 467.924,275.317 462,287.5C 466.279,273.922 471.446,260.589 477.5,247.5 Z"/></g>
<g><path style="opacity:1" fill="#000000" d="M 320.5,248.5 C 319.101,249.89 317.434,250.89 315.5,251.5C 316.401,249.273 318.067,248.273 320.5,248.5 Z"/></g>
<g><path style="opacity:1" fill="#7c7c7c" d="M 356.5,282.5 C 348.127,287.518 339.127,291.185 329.5,293.5C 323.035,284.218 319.035,273.885 317.5,262.5C 320.258,256.908 324.258,252.408 329.5,249C 348.672,246.828 358.672,255.494 359.5,275C 359.555,278.018 358.555,280.518 356.5,282.5 Z"/></g>
<g><path style="opacity:1" fill="#f2ebc4" d="M 228.5,251.5 C 225.079,252.973 223.079,255.639 222.5,259.5C 220.796,254.266 222.796,250.932 228.5,249.5C 229.463,249.97 229.463,250.637 228.5,251.5 Z"/></g>
<g><path style="opacity:1" fill="#000000" d="M 245.5,249.5 C 248.089,250.419 250.089,252.086 251.5,254.5C 248.911,253.581 246.911,251.914 245.5,249.5 Z"/></g>
<g><path style="opacity:1" fill="#66412b" d="M 459.5,251.5 C 461.292,252.309 463.292,252.809 465.5,253C 463.548,256.354 461.881,259.854 460.5,263.5C 458.709,264.17 457.042,264.837 455.5,265.5C 437.946,264.95 422.946,270.617 410.5,282.5C 406.854,280.183 403.52,277.516 400.5,274.5C 411.488,266.024 423.155,259.19 435.5,254C 437.441,253.257 439.274,253.424 441,254.5C 441.915,253.672 442.581,252.672 443,251.5C 448.406,251.952 453.906,251.952 459.5,251.5 Z"/></g>
<g><path style="opacity:1" fill="#f2ebc4" d="M 241.5,253.5 C 243.812,254.341 246.145,255.341 248.5,256.5C 251.122,258.782 253.788,261.115 256.5,263.5C 257.653,264.687 257.653,265.687 256.5,266.5C 252.143,260.734 246.31,257.4 239,256.5C 231.707,258.627 226.873,263.293 224.5,270.5C 223.883,270.611 223.383,270.944 223,271.5C 222.297,269.071 222.463,266.738 223.5,264.5C 225.934,261.829 228.267,258.996 230.5,256C 233.87,253.922 237.537,253.089 241.5,253.5 Z"/></g>
<g><path style="opacity:1" fill="#000000" d="M 241.5,253.5 C 243.199,253.34 244.866,253.506 246.5,254C 247.756,254.417 248.423,255.25 248.5,256.5C 246.145,255.341 243.812,254.341 241.5,253.5 Z"/></g>
<g><path style="opacity:1" fill="#1574a5" d="M 256.5,266.5 C 257.355,267.531 258.022,268.697 258.5,270C 259.201,272.401 259.201,274.901 258.5,277.5C 251.169,269.873 243.335,269.539 235,276.5C 230.463,286.1 233.296,292.1 243.5,294.5C 244.643,296.101 243.976,296.767 241.5,296.5C 238.634,296.069 235.968,295.069 233.5,293.5C 224.397,280.855 227.397,272.355 242.5,268C 245.167,267.667 247.833,267.333 250.5,267C 242.951,265.469 236.118,266.969 230,271.5C 228.92,273.996 227.586,276.33 226,278.5C 224.259,275.861 223.759,273.194 224.5,270.5C 226.873,263.293 231.707,258.627 239,256.5C 246.31,257.4 252.143,260.734 256.5,266.5 Z"/></g>
<g><path style="opacity:1" fill="#25a4de" d="M 311.5,268.5 C 310.609,269.11 309.609,269.443 308.5,269.5C 306.833,269.5 305.167,269.5 303.5,269.5C 304.043,272.038 305.043,274.372 306.5,276.5C 306.957,278.557 307.957,278.557 309.5,276.5C 311.608,272.528 313.274,272.861 314.5,277.5C 313.36,279.078 312.86,280.744 313,282.5C 316.358,285.031 319.524,287.698 322.5,290.5C 323.688,291.364 324.855,292.364 326,293.5C 331.811,302.954 336.978,312.788 341.5,323C 340.561,328.33 338.561,333.164 335.5,337.5C 332.916,339.472 329.916,340.472 326.5,340.5C 325.504,340.414 324.671,340.748 324,341.5C 323.536,340.906 323.369,340.239 323.5,339.5C 326.77,334.104 327.27,328.438 325,322.5C 317.928,306.635 309.095,291.968 298.5,278.5C 296.908,275.034 296.242,271.367 296.5,267.5C 297.791,267.737 298.791,267.404 299.5,266.5C 303.964,264.909 308.13,262.576 312,259.5C 314.024,262.667 313.857,265.667 311.5,268.5 Z"/></g>
<g><path style="opacity:1" fill="#643f2b" d="M 501.5,260.5 C 510.616,267.849 515.116,277.516 515,289.5C 515.925,290.047 516.758,290.713 517.5,291.5C 514.426,294.742 510.926,297.409 507,299.5C 501.939,287.493 496.772,275.493 491.5,263.5C 492.689,262.571 494.022,262.238 495.5,262.5C 497.684,263.108 499.684,262.441 501.5,260.5 Z"/></g>
<g><path style="opacity:1" fill="#fefffe" d="M 363.5,261.5 C 368.399,262.207 368.566,263.874 364,266.5C 363.506,264.866 363.34,263.199 363.5,261.5 Z"/></g>
<g><path style="opacity:1" fill="#212121" d="M 390.5,278.5 C 386.925,280.729 383.592,283.395 380.5,286.5C 376.169,282.337 371.669,278.337 367,274.5C 367.195,272.255 368.362,270.422 370.5,269C 372.37,267.634 374.37,266.467 376.5,265.5C 381.861,269.199 386.528,273.532 390.5,278.5 Z"/></g>
<g><path style="opacity:1" fill="#312016" d="M 455.5,265.5 C 456.833,265.5 458.167,265.5 459.5,265.5C 457.778,271.168 455.944,276.835 454,282.5C 444.159,287.67 437.159,295.337 433,305.5C 430.546,303.559 428.713,301.225 427.5,298.5C 430.828,290.34 436.161,283.84 443.5,279C 433.85,279.989 425.184,283.489 417.5,289.5C 414.833,287.5 412.5,285.167 410.5,282.5C 422.946,270.617 437.946,264.95 455.5,265.5 Z"/></g>
<g><path style="opacity:1" fill="#000000" d="M 311.5,268.5 C 310.947,270.552 309.947,270.885 308.5,269.5C 309.609,269.443 310.609,269.11 311.5,268.5 Z"/></g>
<g><path style="opacity:1" fill="#7b7b7b" d="M 246.5,294.5 C 249.621,293.105 252.621,291.438 255.5,289.5C 255.369,290.239 255.536,290.906 256,291.5C 264.229,299.577 273.395,306.244 283.5,311.5C 285.868,312.783 288.035,314.45 290,316.5C 290.178,328.409 290.678,340.242 291.5,352C 293.112,352.72 294.612,352.554 296,351.5C 296.333,337.833 296.667,324.167 297,310.5C 298.147,312.731 299.147,315.065 300,317.5C 303.29,321.912 306.456,326.412 309.5,331C 308.032,340.571 305.032,349.738 300.5,358.5C 299.051,359.172 297.718,359.839 296.5,360.5C 296.5,361.167 296.167,361.5 295.5,361.5C 293.585,361.216 291.919,361.549 290.5,362.5C 289.791,363.404 288.791,363.737 287.5,363.5C 286.209,363.263 285.209,363.596 284.5,364.5C 282.214,364.595 280.214,365.262 278.5,366.5C 277.791,367.404 276.791,367.737 275.5,367.5C 274.209,367.263 273.209,367.596 272.5,368.5C 271.432,369.434 270.099,369.768 268.5,369.5C 267.391,369.557 266.391,369.89 265.5,370.5C 263.374,371.048 261.374,371.715 259.5,372.5C 257.5,372.5 255.5,372.5 253.5,372.5C 251.708,372.366 250.042,372.699 248.5,373.5C 247.167,372.833 245.833,372.167 244.5,371.5C 242.795,369.808 240.795,368.475 238.5,367.5C 237.833,367.5 237.5,367.167 237.5,366.5C 235.194,364.861 233.194,362.861 231.5,360.5C 231.068,359.29 230.401,358.29 229.5,357.5C 228.662,357.158 228.328,356.492 228.5,355.5C 228.737,354.209 228.404,353.209 227.5,352.5C 226.596,351.791 226.263,350.791 226.5,349.5C 226.218,348.222 225.551,347.222 224.5,346.5C 224.5,344.833 224.5,343.167 224.5,341.5C 224.5,340.833 224.5,340.167 224.5,339.5C 224.216,337.585 224.549,335.919 225.5,334.5C 226.486,332.574 227.486,330.574 228.5,328.5C 228.5,328.167 228.5,327.833 228.5,327.5C 230.008,325.819 231.008,323.819 231.5,321.5C 231.833,320.833 232.167,320.167 232.5,319.5C 233.404,318.791 233.737,317.791 233.5,316.5C 233.328,315.508 233.662,314.842 234.5,314.5C 235.924,312.485 236.59,310.152 236.5,307.5C 235.833,306.167 235.167,304.833 234.5,303.5C 234.34,301.847 233.674,300.514 232.5,299.5C 231.833,299.5 231.5,299.167 231.5,298.5C 231.631,297.761 231.464,297.094 231,296.5C 230.31,297.738 229.81,297.738 229.5,296.5C 225.519,289.52 220.186,283.854 213.5,279.5C 213.161,276.331 211.495,274.164 208.5,273C 211.277,271.76 214.11,270.594 217,269.5C 218.154,270.743 219.488,271.743 221,272.5C 224.372,280.076 227.872,287.576 231.5,295C 236.109,298.367 241.109,299.2 246.5,297.5C 247.562,296.575 247.562,295.575 246.5,294.5 Z"/></g>
<g><path style="opacity:1" fill="#fec90d" d="M 258.5,277.5 C 259.234,278.708 259.567,280.041 259.5,281.5C 258.659,283.812 257.659,286.145 256.5,288.5C 255.833,288.5 255.5,288.833 255.5,289.5C 252.621,291.438 249.621,293.105 246.5,294.5C 245.5,294.5 244.5,294.5 243.5,294.5C 233.296,292.1 230.463,286.1 235,276.5C 243.335,269.539 251.169,269.873 258.5,277.5 Z"/></g>
<g><path style="opacity:1" fill="#196690" d="M 246.5,273.5 C 252.93,275.362 254.763,279.362 252,285.5C 247.915,289.976 243.082,291.143 237.5,289C 234.36,283.084 235.693,278.418 241.5,275C 243.382,274.802 245.048,274.302 246.5,273.5 Z"/></g>
<g><path style="opacity:1" fill="#000000" d="M 505.5,275.5 C 506.867,277.093 506.534,278.426 504.5,279.5C 499.131,275.917 499.464,274.584 505.5,275.5 Z"/></g>
<g><path style="opacity:1" fill="#222322" d="M 430.5,330.5 C 430.082,329.778 429.416,329.278 428.5,329C 430.746,326.573 431.412,323.906 430.5,321C 403.359,314.519 381.192,300.352 364,278.5C 363.251,277.365 363.417,276.365 364.5,275.5C 372.315,282.148 379.982,288.981 387.5,296C 399.917,307.042 414.25,314.042 430.5,317C 431.667,316.5 432.5,315.667 433,314.5C 435.35,316.683 437.517,319.016 439.5,321.5C 437.922,322.298 436.256,322.798 434.5,323C 433.736,325.069 433.236,327.236 433,329.5C 432.329,330.252 431.496,330.586 430.5,330.5 Z"/></g>
<g><path style="opacity:1" fill="#212020" d="M 490.5,243.5 C 491.371,246.112 492.037,248.779 492.5,251.5C 493.5,251.5 494.5,251.5 495.5,251.5C 493.661,244.641 495.661,243.641 501.5,248.5C 501.998,252.425 501.998,256.425 501.5,260.5C 499.684,262.441 497.684,263.108 495.5,262.5C 493.81,261.897 492.31,260.897 491,259.5C 490.5,261 490,262.5 489.5,264C 494.793,276.046 499.793,288.212 504.5,300.5C 504.137,301.183 503.804,301.85 503.5,302.5C 499.778,303.391 498.278,305.724 499,309.5C 501.743,310.917 504.243,310.584 506.5,308.5C 507.5,309.167 508.5,309.833 509.5,310.5C 511.387,315.266 514.054,319.599 517.5,323.5C 518.29,324.794 519.29,325.961 520.5,327C 516.959,328.455 513.626,327.955 510.5,325.5C 509.03,323.849 507.697,322.015 506.5,320C 502.971,317.621 500.471,318.454 499,322.5C 497.672,327.338 499.506,329.671 504.5,329.5C 504.421,330.93 504.754,332.264 505.5,333.5C 505.145,334.522 504.478,335.189 503.5,335.5C 499.51,335.001 495.51,334.501 491.5,334C 485.692,331.676 479.859,329.509 474,327.5C 472.833,327.667 471.667,327.833 470.5,328C 468.833,330.333 467.167,332.667 465.5,335C 464.5,335.667 463.5,335.667 462.5,335C 465.042,332.301 465.709,329.301 464.5,326C 459.231,324.894 453.897,324.227 448.5,324C 447.743,322.488 446.743,321.154 445.5,320C 449.071,320.801 452.737,321.134 456.5,321C 457.727,319.413 457.394,318.079 455.5,317C 450.668,313.329 445.335,311.829 439.5,312.5C 433.165,309.153 432.998,305.486 439,301.5C 440.133,303.211 441.633,303.711 443.5,303C 446.926,298.152 450.592,293.485 454.5,289C 457.712,289.565 460.879,289.398 464,288.5C 466,284.5 468,280.5 470,276.5C 470.75,275.874 471.584,275.374 472.5,275C 471.483,273.951 471.316,272.784 472,271.5C 475.352,263.462 479.185,255.796 483.5,248.5C 484.627,249.122 485.627,249.955 486.5,251C 487.833,251.667 489.167,251.667 490.5,251C 486.208,247.152 485.041,242.652 487,237.5C 488.442,239.391 489.609,241.391 490.5,243.5 Z"/></g>
<g><path style="opacity:1" fill="#fefffe" d="M 505.5,275.5 C 505.489,278.001 504.822,278.168 503.5,276C 504.094,275.536 504.761,275.369 505.5,275.5 Z"/></g>
<g><path style="opacity:1" fill="#fec90d" d="M 242.5,276.5 C 244.288,276.215 245.955,276.548 247.5,277.5C 241.12,279.336 241.12,280.503 247.5,281C 248.595,284.619 247.095,286.786 243,287.5C 241.72,287.387 240.887,286.72 240.5,285.5C 241.391,284.41 242.391,284.41 243.5,285.5C 244.5,285.167 245.167,284.5 245.5,283.5C 239.11,283.072 238.11,280.739 242.5,276.5 Z"/></g>
<g><path style="opacity:1" fill="#000000" d="M 306.5,276.5 C 307.5,276.5 308.5,276.5 309.5,276.5C 307.957,278.557 306.957,278.557 306.5,276.5 Z"/></g>
<g><path style="opacity:1" fill="#2779a3" d="M 317.5,276.5 C 319.059,278.608 320.392,280.941 321.5,283.5C 321.376,284.107 321.043,284.44 320.5,284.5C 318.589,284.426 317.422,283.426 317,281.5C 316.22,279.613 316.387,277.946 317.5,276.5 Z"/></g>
<g><path style="opacity:1" fill="#fec90d" d="M 298.5,278.5 C 309.095,291.968 317.928,306.635 325,322.5C 327.27,328.438 326.77,334.104 323.5,339.5C 321.886,341.075 319.886,341.741 317.5,341.5C 317.158,340.662 316.492,340.328 315.5,340.5C 317.367,339.24 318.7,337.573 319.5,335.5C 320.117,335.389 320.617,335.056 321,334.5C 321.759,327.69 319.926,321.69 315.5,316.5C 310.336,306.167 304.669,296.167 298.5,286.5C 297.343,283.693 297.343,281.026 298.5,278.5 Z"/></g>
<g><path style="opacity:1" fill="#623e2a" d="M 390.5,278.5 C 403.402,288.559 415.902,299.226 428,310.5C 428.684,311.784 428.517,312.951 427.5,314C 422.329,314.836 419.496,312.669 419,307.5C 418.781,308.938 418.281,310.271 417.5,311.5C 403.233,305.878 390.9,297.544 380.5,286.5C 383.592,283.395 386.925,280.729 390.5,278.5 Z"/></g>
<g><path style="opacity:1" fill="#66412b" d="M 427.5,298.5 C 423.564,296.234 420.231,293.234 417.5,289.5C 425.184,283.489 433.85,279.989 443.5,279C 436.161,283.84 430.828,290.34 427.5,298.5 Z"/></g>
<g><path style="opacity:1" fill="#3f47cc" d="M 213.5,279.5 C 220.186,283.854 225.519,289.52 229.5,296.5C 228.5,296.5 227.5,296.5 226.5,296.5C 226.616,293.09 224.95,291.756 221.5,292.5C 222.167,288.5 220.5,286.833 216.5,287.5C 216.843,285.517 216.176,284.183 214.5,283.5C 213.791,282.596 212.791,282.263 211.5,282.5C 211.285,280.821 211.952,279.821 213.5,279.5 Z"/></g>
<g><path style="opacity:1" fill="#000000" d="M 478.5,280.5 C 481.129,291.056 485.129,301.056 490.5,310.5C 491.183,310.137 491.85,309.804 492.5,309.5C 493.303,310.423 493.47,311.423 493,312.5C 491.175,311.897 489.341,311.23 487.5,310.5C 484.474,304.061 481.141,304.061 477.5,310.5C 472.809,306.641 467.975,302.975 463,299.5C 461.581,300.46 460.081,301.293 458.5,302C 461.667,306.5 465.5,310.333 470,313.5C 471.879,319.615 470.379,321.282 465.5,318.5C 464.915,316.1 463.748,314.1 462,312.5C 456.582,311.701 451.749,309.701 447.5,306.5C 448.624,305.086 449.624,303.586 450.5,302C 463.025,298.805 471.859,291.305 477,279.5C 477.383,280.056 477.883,280.389 478.5,280.5 Z"/></g>
<g><path style="opacity:1" fill="#ec1c23" d="M 492.5,309.5 C 491.85,309.804 491.183,310.137 490.5,310.5C 485.129,301.056 481.129,291.056 478.5,280.5C 479.825,279.047 480.658,279.381 481,281.5C 484.017,291.197 487.85,300.53 492.5,309.5 Z"/></g>
<g><path style="opacity:1" fill="#222222" d="M 211.5,282.5 C 212.791,282.263 213.791,282.596 214.5,283.5C 190.512,280.777 170.179,288.277 153.5,306C 142.744,312.58 141.41,311.247 149.5,302C 160.214,295.922 170.881,289.922 181.5,284C 187.97,281.676 194.637,280.509 201.5,280.5C 205.098,280.591 208.431,281.257 211.5,282.5 Z"/></g>
<g><path style="opacity:1" fill="#b87a56" d="M 356.5,282.5 C 359.292,283.392 360.625,285.392 360.5,288.5C 351.79,293.287 342.79,297.287 333.5,300.5C 330.917,299.015 329.584,296.682 329.5,293.5C 339.127,291.185 348.127,287.518 356.5,282.5 Z"/></g>
<g><path style="opacity:1" fill="#65402b" d="M 216.5,287.5 C 220.5,286.833 222.167,288.5 221.5,292.5C 224.95,291.756 226.616,293.09 226.5,296.5C 227.5,296.5 228.5,296.5 229.5,296.5C 229.81,297.738 230.31,297.738 231,296.5C 231.464,297.094 231.631,297.761 231.5,298.5C 228.875,299.466 228.875,300.466 231.5,301.5C 232.298,301.043 232.631,300.376 232.5,299.5C 233.674,300.514 234.34,301.847 234.5,303.5C 230.527,305.46 230.527,307.46 234.5,309.5C 235.182,308.757 235.849,308.091 236.5,307.5C 236.59,310.152 235.924,312.485 234.5,314.5C 234.53,313.503 234.03,312.836 233,312.5C 228.705,313.79 228.872,315.123 233.5,316.5C 233.737,317.791 233.404,318.791 232.5,319.5C 232.565,319.062 232.399,318.728 232,318.5C 230.795,319.071 229.628,319.738 228.5,320.5C 229.133,322.519 230.133,322.853 231.5,321.5C 231.008,323.819 230.008,325.819 228.5,327.5C 227.081,326.549 225.415,326.216 223.5,326.5C 222.904,325.065 222.904,323.398 223.5,321.5C 212.194,322.162 201.194,324.329 190.5,328C 184.246,334.517 179.246,341.851 175.5,350C 181.217,364.911 191.884,373.077 207.5,374.5C 204.028,369.194 200.361,364.028 196.5,359C 206.677,363.464 216.177,369.298 225,376.5C 226.92,379.838 228.42,383.338 229.5,387C 229.204,388.888 228.704,390.722 228,392.5C 225.205,394.293 222.705,396.46 220.5,399C 212.885,400.013 205.885,398.346 199.5,394C 186.734,385.2 174.234,376.033 162,366.5C 161.667,366.833 161.333,367.167 161,367.5C 161.733,375.122 165.233,381.289 171.5,386C 180.03,392.029 188.697,397.863 197.5,403.5C 193.677,404.301 190.011,403.635 186.5,401.5C 185.081,402.005 184.415,403.005 184.5,404.5C 176.868,397.369 169.368,390.036 162,382.5C 155.831,373.5 150.164,364.166 145,354.5C 138.928,340.363 139.094,326.363 145.5,312.5C 154.139,308.038 161.806,302.205 168.5,295C 175.851,291.216 183.518,288.216 191.5,286C 199.962,285.155 208.295,285.655 216.5,287.5 Z"/></g>
<g><path style="opacity:1" fill="#66412b" d="M 476.5,285.5 C 478.717,290.624 481.051,295.791 483.5,301C 483.167,301.333 482.833,301.667 482.5,302C 477.5,301.737 472.5,301.07 467.5,300C 466.692,299.692 466.025,299.192 465.5,298.5C 469.565,294.441 473.232,290.107 476.5,285.5 Z"/></g>
<g><path style="opacity:1" fill="#66412b" d="M 169.5,286.5 C 170.552,286.351 171.552,286.517 172.5,287C 164.181,290.825 156.181,295.158 148.5,300C 146.548,302.074 144.715,304.241 143,306.5C 145.444,302.314 147.61,297.814 149.5,293C 156.243,290.696 162.91,288.529 169.5,286.5 Z"/></g>
<g><path style="opacity:1" fill="#24a7e2" d="M 298.5,286.5 C 304.669,296.167 310.336,306.167 315.5,316.5C 316.987,321.099 315.654,321.765 311.5,318.5C 310.692,318.808 310.025,319.308 309.5,320C 312.648,323.071 315.981,325.904 319.5,328.5C 320.575,330.811 320.575,333.144 319.5,335.5C 318.7,337.573 317.367,339.24 315.5,340.5C 313.597,340.204 311.93,339.537 310.5,338.5C 308.955,335.348 309.621,332.681 312.5,330.5C 311.653,329.155 310.487,328.155 309,327.5C 306.997,322.154 303.997,317.487 300,313.5C 299.26,312.251 299.427,311.251 300.5,310.5C 302.917,313.22 305.917,315.22 309.5,316.5C 310.5,316 311.5,315.5 312.5,315C 307.349,312.004 302.349,308.838 297.5,305.5C 297.389,304.883 297.056,304.383 296.5,304C 297.148,298.067 297.814,292.234 298.5,286.5 Z"/></g>
<g><path style="opacity:1" fill="#b77956" d="M 256.5,288.5 C 262.933,292.418 269.267,296.585 275.5,301C 278.071,302.454 280.738,303.62 283.5,304.5C 284.756,306.941 284.756,309.274 283.5,311.5C 273.395,306.244 264.229,299.577 256,291.5C 255.536,290.906 255.369,290.239 255.5,289.5C 255.5,288.833 255.833,288.5 256.5,288.5 Z"/></g>
<g><path style="opacity:1" fill="#7c7c7c" d="M 360.5,288.5 C 363.075,289.568 365.242,291.235 367,293.5C 368.274,296.391 369.774,299.058 371.5,301.5C 371.928,304.785 372.928,307.785 374.5,310.5C 374.721,313.067 375.388,315.401 376.5,317.5C 376.263,318.791 376.596,319.791 377.5,320.5C 378.164,325.473 378.497,330.473 378.5,335.5C 378.768,337.099 378.434,338.432 377.5,339.5C 376.069,340.78 375.402,342.447 375.5,344.5C 375.167,345.833 374.833,347.167 374.5,348.5C 370.783,351.025 366.783,353.025 362.5,354.5C 360.901,354.232 359.568,354.566 358.5,355.5C 352.167,355.5 345.833,355.5 339.5,355.5C 338.432,354.566 337.099,354.232 335.5,354.5C 336.856,348.552 338.023,342.552 339,336.5C 341.299,332.271 342.799,327.771 343.5,323C 340.882,315.429 337.215,308.429 332.5,302C 333.056,301.617 333.389,301.117 333.5,300.5C 342.79,297.287 351.79,293.287 360.5,288.5 Z"/></g>
<g><path style="opacity:1" fill="#222322" d="M 69.5,319.5 C 68.1882,318.855 67.1882,317.855 66.5,316.5C 68.1311,314.703 70.1311,313.536 72.5,313C 73.7938,310.913 74.9605,308.746 76,306.5C 81.8333,301.333 87.6667,296.167 93.5,291C 111.447,288.425 129.114,289.591 146.5,294.5C 145.016,298.132 143.016,301.466 140.5,304.5C 138.556,303.811 136.556,303.311 134.5,303C 137.672,301.248 140.672,299.248 143.5,297C 143,296.833 142.5,296.667 142,296.5C 135.25,300.756 128.084,304.256 120.5,307C 111.352,316.748 108.019,328.248 110.5,341.5C 110.935,331.26 113.435,321.593 118,312.5C 121.936,309.287 126.27,306.62 131,304.5C 125.89,319.052 118.89,332.719 110,345.5C 105.344,349.329 100.344,352.663 95,355.5C 94.3333,353.5 94.3333,351.5 95,349.5C 98.5342,339.897 101.868,330.231 105,320.5C 107.667,316.5 110.333,312.5 113,308.5C 115.469,306.348 118.302,304.848 121.5,304C 120.892,303.13 120.059,302.63 119,302.5C 116.078,303.755 113.411,305.422 111,307.5C 103.353,318.473 95.3533,329.14 87,339.5C 84.106,342.361 80.9393,344.861 77.5,347C 76.6683,347.688 76.0016,347.521 75.5,346.5C 76.6446,345.109 76.6446,343.776 75.5,342.5C 68.1448,343.993 61.1448,346.993 54.5,351.5C 54.1667,351.333 53.8333,351.167 53.5,351C 56.5,347.333 59.5,343.667 62.5,340C 60.0966,339.37 58.2633,340.203 57,342.5C 48.1044,357.538 35.2711,363.038 18.5,359C 19.899,355.936 22.2324,353.936 25.5,353C 32.9924,353.013 40.3258,352.013 47.5,350C 49.8706,347.294 52.5372,344.961 55.5,343C 54.8333,342.833 54.1667,342.667 53.5,342.5C 50.7624,343.728 48.4291,345.562 46.5,348C 41.6689,350.062 36.6689,350.729 31.5,350C 38.0583,345.554 45.0583,341.887 52.5,339C 57.3333,332.833 62.8333,327.333 69,322.5C 69.4828,321.552 69.6495,320.552 69.5,319.5 Z"/></g>
<g><path style="opacity:1" fill="#fec90d" d="M 290.5,289.5 C 291.919,290.451 293.585,290.784 295.5,290.5C 295.5,291.833 295.5,293.167 295.5,294.5C 292.5,294.5 289.5,294.5 286.5,294.5C 286.5,292.833 286.5,291.167 286.5,289.5C 287.833,289.5 289.167,289.5 290.5,289.5 Z"/></g>
<g><path style="opacity:1" fill="#000000" d="M 69.5,319.5 C 74.4421,318.174 79.4421,316.341 84.5,314C 91.5,308.333 98.5,302.667 105.5,297C 107.035,296.504 108.535,296.67 110,297.5C 115.384,294.904 121.05,293.237 127,292.5C 128.059,292.63 128.892,293.13 129.5,294C 114.1,296.116 101.6,303.283 92,315.5C 85.7618,324.129 78.9284,332.296 71.5,340C 67.9636,342.366 64.297,344.533 60.5,346.5C 59.2888,345.726 59.2888,344.893 60.5,344C 66.2906,341.02 71.4573,337.187 76,332.5C 82.1667,325 88.3333,317.5 94.5,310C 93.8333,309.333 93.1667,309.333 92.5,310C 86.4177,317.042 78.7511,320.209 69.5,319.5 Z"/></g>
<g><path style="opacity:1" fill="#65402b" d="M 374.5,310.5 C 372.928,307.785 371.928,304.785 371.5,301.5C 371.841,298.484 373.007,295.818 375,293.5C 379.74,297.785 384.573,301.952 389.5,306C 398.226,310.694 406.893,315.361 415.5,320C 413.743,325.706 412.576,331.539 412,337.5C 411.581,338.672 410.915,339.672 410,340.5C 404.866,334.365 399.366,328.531 393.5,323C 387.256,318.569 380.922,314.402 374.5,310.5 Z"/></g>
<g><path style="opacity:1" fill="#ec1c23" d="M 516.5,294.5 C 518.379,294.393 518.712,294.893 517.5,296C 506.027,301.932 505.694,301.432 516.5,294.5 Z"/></g>
<g><path style="opacity:1" fill="#b87a56" d="M 287.5,301.5 C 286.659,299.621 286.325,297.621 286.5,295.5C 288.5,295.5 290.5,295.5 292.5,295.5C 292.5,297.5 292.5,299.5 292.5,301.5C 290.833,301.5 289.167,301.5 287.5,301.5 Z"/></g>
<g><path style="opacity:1" fill="#c2c3c2" d="M 293.5,295.5 C 294.693,295.97 295.36,296.97 295.5,298.5C 295.167,299.5 294.833,300.5 294.5,301.5C 293.534,299.604 293.201,297.604 293.5,295.5 Z"/></g>
<g><path style="opacity:1" fill="#3f47cc" d="M 231.5,298.5 C 231.5,299.167 231.833,299.5 232.5,299.5C 232.631,300.376 232.298,301.043 231.5,301.5C 228.875,300.466 228.875,299.466 231.5,298.5 Z"/></g>
<g><path style="opacity:1" fill="#ec1c23" d="M 507.5,306.5 C 511.353,304.318 515.186,301.984 519,299.5C 519.617,300.449 519.451,301.282 518.5,302C 515.029,304.072 511.362,305.572 507.5,306.5 Z"/></g>
<g><path style="opacity:1" fill="#fec90d" d="M 287.5,301.5 C 289.607,302.468 291.941,302.802 294.5,302.5C 294.5,303.5 294.5,304.5 294.5,305.5C 293.209,305.263 292.209,305.596 291.5,306.5C 290.07,308.455 290.403,310.121 292.5,311.5C 293.66,312.265 294.66,313.265 295.5,314.5C 294.833,314.833 294.167,315.167 293.5,315.5C 287.079,312.736 285.079,308.069 287.5,301.5 Z"/></g>
<g><path style="opacity:1" fill="#fec90d" d="M 503.5,302.5 C 505,303.625 506.333,304.959 507.5,306.5C 507.167,307.167 506.833,307.833 506.5,308.5C 504.243,310.584 501.743,310.917 499,309.5C 498.278,305.724 499.778,303.391 503.5,302.5 Z"/></g>
<g><path style="opacity:1" fill="#3f47cc" d="M 234.5,303.5 C 235.167,304.833 235.833,306.167 236.5,307.5C 235.849,308.091 235.182,308.757 234.5,309.5C 230.527,307.46 230.527,305.46 234.5,303.5 Z"/></g>
<g><path style="opacity:1" fill="#66412b" d="M 517.5,323.5 C 514.054,319.599 511.387,315.266 509.5,310.5C 509.369,309.624 509.702,308.957 510.5,308.5C 513.746,306.961 516.912,305.294 520,303.5C 521.371,307.073 522.871,310.573 524.5,314C 523.376,314.249 522.376,314.749 521.5,315.5C 520.716,318.57 519.383,321.237 517.5,323.5 Z"/></g>
<g><path style="opacity:1" fill="#1b445f" d="M 297.5,305.5 C 302.349,308.838 307.349,312.004 312.5,315C 311.5,315.5 310.5,316 309.5,316.5C 305.917,315.22 302.917,313.22 300.5,310.5C 299.312,309.636 298.145,308.636 297,307.5C 296.308,306.563 296.475,305.897 297.5,305.5 Z"/></g>
<g><path style="opacity:1" fill="#939393" d="M 291.5,306.5 C 292.5,306.5 293.5,306.5 294.5,306.5C 294.923,308.781 294.256,310.448 292.5,311.5C 290.403,310.121 290.07,308.455 291.5,306.5 Z"/></g>
<g><path style="opacity:1" fill="#3f47cc" d="M 234.5,314.5 C 233.662,314.842 233.328,315.508 233.5,316.5C 228.872,315.123 228.705,313.79 233,312.5C 234.03,312.836 234.53,313.503 234.5,314.5 Z"/></g>
<g><path style="opacity:1" fill="#222222" d="M 377.5,320.5 C 376.596,319.791 376.263,318.791 376.5,317.5C 376.351,316.448 376.517,315.448 377,314.5C 391.537,323.368 403.871,334.701 414,348.5C 414.667,351.5 414.667,354.5 414,357.5C 413.75,354.246 412.75,351.246 411,348.5C 401.22,339.215 390.72,330.882 379.5,323.5C 378.824,322.398 378.158,321.398 377.5,320.5 Z"/></g>
<g><path style="opacity:1" fill="#c2c3c2" d="M 292.5,317.5 C 293.829,322.624 294.495,328.124 294.5,334C 294.167,339.5 293.833,345 293.5,350.5C 292.501,339.52 292.168,328.52 292.5,317.5 Z"/></g>
<g><path style="opacity:1" fill="#3f47cc" d="M 232.5,319.5 C 232.167,320.167 231.833,320.833 231.5,321.5C 230.133,322.853 229.133,322.519 228.5,320.5C 229.628,319.738 230.795,319.071 232,318.5C 232.399,318.728 232.565,319.062 232.5,319.5 Z"/></g>
<g><path style="opacity:1" fill="#a1a1a1" d="M 510.5,325.5 C 510.25,326.922 509.417,327.922 508,328.5C 507.427,332.848 506.76,337.181 506,341.5C 504.612,342.554 503.112,342.72 501.5,342C 504.321,340.379 504.987,338.212 503.5,335.5C 504.478,335.189 505.145,334.522 505.5,333.5C 504.754,332.264 504.421,330.93 504.5,329.5C 499.506,329.671 497.672,327.338 499,322.5C 500.471,318.454 502.971,317.621 506.5,320C 507.697,322.015 509.03,323.849 510.5,325.5 Z"/></g>
<g><path style="opacity:1" fill="#1a3b52" d="M 315.5,316.5 C 319.926,321.69 321.759,327.69 321,334.5C 320.617,335.056 320.117,335.389 319.5,335.5C 320.575,333.144 320.575,330.811 319.5,328.5C 315.981,325.904 312.648,323.071 309.5,320C 310.025,319.308 310.692,318.808 311.5,318.5C 315.654,321.765 316.987,321.099 315.5,316.5 Z"/></g>
<g><path style="opacity:1" fill="#2f1f15" d="M 223.5,326.5 C 223.5,326.833 223.5,327.167 223.5,327.5C 222.504,327.414 221.671,327.748 221,328.5C 217.986,334.315 213.153,337.815 206.5,339C 204.154,340.013 202.487,341.679 201.5,344C 205.691,350.56 211.357,354.894 218.5,357C 220.141,355.871 221.141,354.371 221.5,352.5C 223.352,353.089 225.185,353.756 227,354.5C 227.464,353.906 227.631,353.239 227.5,352.5C 228.404,353.209 228.737,354.209 228.5,355.5C 227.038,356.458 225.705,357.624 224.5,359C 225.333,359.167 226.167,359.333 227,359.5C 228.376,359.316 229.209,358.649 229.5,357.5C 230.401,358.29 231.068,359.29 231.5,360.5C 230.539,362.265 230.205,364.265 230.5,366.5C 232.833,366.5 235.167,366.5 237.5,366.5C 237.5,367.167 237.833,367.5 238.5,367.5C 238.5,369.167 238.5,370.833 238.5,372.5C 239.263,373.268 240.263,373.768 241.5,374C 241.239,377.7 239.406,380.2 236,381.5C 232.157,375.147 227.823,369.147 223,363.5C 221.736,361.393 219.903,360.393 217.5,360.5C 217.351,361.552 217.517,362.552 218,363.5C 225.725,371.228 231.891,380.061 236.5,390C 234.942,390.21 233.609,390.71 232.5,391.5C 226.385,398.726 223.385,407.06 223.5,416.5C 220.062,414.241 216.729,411.741 213.5,409C 205.341,408.588 197.341,409.254 189.5,411C 187.934,408.674 186.268,406.508 184.5,404.5C 184.415,403.005 185.081,402.005 186.5,401.5C 190.011,403.635 193.677,404.301 197.5,403.5C 188.697,397.863 180.03,392.029 171.5,386C 165.233,381.289 161.733,375.122 161,367.5C 161.333,367.167 161.667,366.833 162,366.5C 174.234,376.033 186.734,385.2 199.5,394C 205.885,398.346 212.885,400.013 220.5,399C 222.705,396.46 225.205,394.293 228,392.5C 228.704,390.722 229.204,388.888 229.5,387C 228.42,383.338 226.92,379.838 225,376.5C 216.177,369.298 206.677,363.464 196.5,359C 200.361,364.028 204.028,369.194 207.5,374.5C 191.884,373.077 181.217,364.911 175.5,350C 179.246,341.851 184.246,334.517 190.5,328C 201.194,324.329 212.194,322.162 223.5,321.5C 222.904,323.398 222.904,325.065 223.5,326.5 Z"/></g>
<g><path style="opacity:1" fill="#fec90d" d="M 501.5,322.5 C 505.676,321.831 507.009,323.331 505.5,327C 504.207,327.49 502.873,327.657 501.5,327.5C 501.5,325.833 501.5,324.167 501.5,322.5 Z"/></g>
<g><path style="opacity:1" fill="#222322" d="M 98.5,326.5 C 99.3764,326.369 100.043,326.702 100.5,327.5C 98,334.5 95.5,341.5 93,348.5C 92.231,351.099 92.3977,353.599 93.5,356C 90.706,358.56 88.3726,361.56 86.5,365C 83.7937,366.548 80.9603,367.714 78,368.5C 77.3203,366.487 75.987,365.154 74,364.5C 71.1006,366.034 68.2672,367.701 65.5,369.5C 64.3887,368.389 63.0554,367.722 61.5,367.5C 54.5219,367.937 47.8553,369.604 41.5,372.5C 39.4689,371.461 38.1355,369.795 37.5,367.5C 47.8726,357.637 59.7059,349.97 73,344.5C 71.1939,352.904 66.6939,359.738 59.5,365C 60.5,365.667 61.5,365.667 62.5,365C 66.8881,361.278 70.5548,356.945 73.5,352C 77.3333,349.5 81.1667,347 85,344.5C 81.9772,351.069 77.8105,357.069 72.5,362.5C 73.0016,363.521 73.6683,363.688 74.5,363C 82.5203,354.463 89.187,344.963 94.5,334.5C 94.2907,333.914 93.9574,333.414 93.5,333C 95.7655,331.242 97.4322,329.075 98.5,326.5 Z"/></g>
<g><path style="opacity:1" fill="#3f47cc" d="M 223.5,327.5 C 223.5,327.167 223.5,326.833 223.5,326.5C 225.415,326.216 227.081,326.549 228.5,327.5C 228.5,327.833 228.5,328.167 228.5,328.5C 227.417,328.539 226.417,328.873 225.5,329.5C 224.818,328.757 224.151,328.091 223.5,327.5 Z"/></g>
<g><path style="opacity:1" fill="#66402b" d="M 359.5,487.5 C 357.787,486.365 357.12,484.698 357.5,482.5C 357.343,481.127 357.51,479.793 358,478.5C 360.308,477.359 362.141,475.692 363.5,473.5C 367.104,473.09 370.771,472.923 374.5,473C 381.896,467.059 388.729,460.559 395,453.5C 395.667,450.5 395.667,447.5 395,444.5C 387.701,434.703 379.868,425.369 371.5,416.5C 374.977,411.855 378.644,407.355 382.5,403C 381.975,402.308 381.308,401.808 380.5,401.5C 374.925,404.406 370.258,408.406 366.5,413.5C 364.37,412.533 362.37,411.366 360.5,410C 359.745,407.825 358.912,405.659 358,403.5C 349.695,394.059 343.861,383.226 340.5,371C 340.57,370.235 340.903,369.735 341.5,369.5C 346.482,378.119 351.982,386.452 358,394.5C 359.142,392.321 359.975,389.988 360.5,387.5C 361.167,387.167 361.833,386.833 362.5,386.5C 365.169,387.687 367.835,388.52 370.5,389C 374.104,386.292 376.604,382.792 378,378.5C 380.703,381.538 383.703,384.205 387,386.5C 387.692,385.975 388.192,385.308 388.5,384.5C 384.333,374.179 378.167,365.179 370,357.5C 369.517,356.552 369.351,355.552 369.5,354.5C 370.5,354.5 371.5,354.5 372.5,354.5C 374.308,353.082 374.975,351.082 374.5,348.5C 378.159,347.864 378.493,346.531 375.5,344.5C 375.402,342.447 376.069,340.78 377.5,339.5C 378.209,340.404 379.209,340.737 380.5,340.5C 380.371,338.784 380.038,337.117 379.5,335.5C 379.183,332.428 379.516,329.428 380.5,326.5C 390.434,333.598 399.934,341.264 409,349.5C 410.855,352.935 412.022,356.602 412.5,360.5C 411.107,365.439 410.273,370.439 410,375.5C 405.538,383.102 400.038,389.435 393.5,394.5C 400.854,406.555 406.021,419.555 409,433.5C 412.69,437.689 416.19,442.022 419.5,446.5C 417.254,452.921 414.254,458.921 410.5,464.5C 405.287,467.273 399.954,469.773 394.5,472C 385.833,478.333 377.167,484.667 368.5,491C 364.675,491.674 361.675,490.508 359.5,487.5 Z"/></g>
<g><path style="opacity:1" fill="#5d3b28" d="M 223.5,327.5 C 224.151,328.091 224.818,328.757 225.5,329.5C 226.417,328.873 227.417,328.539 228.5,328.5C 227.486,330.574 226.486,332.574 225.5,334.5C 219.589,334.472 219.255,336.139 224.5,339.5C 224.5,340.167 224.5,340.833 224.5,341.5C 220.5,343.167 220.5,344.833 224.5,346.5C 225.551,347.222 226.218,348.222 226.5,349.5C 224.288,348.953 222.621,349.953 221.5,352.5C 221.141,354.371 220.141,355.871 218.5,357C 211.357,354.894 205.691,350.56 201.5,344C 202.487,341.679 204.154,340.013 206.5,339C 213.153,337.815 217.986,334.315 221,328.5C 221.671,327.748 222.504,327.414 223.5,327.5 Z"/></g>
<g><path style="opacity:1" fill="#fefffe" d="M 438.5,328.5 C 439.873,328.343 441.207,328.51 442.5,329C 444.461,331.963 446.794,334.629 449.5,337C 446.5,339.003 443.167,339.836 439.5,339.5C 438.886,335.865 438.552,332.198 438.5,328.5 Z"/></g>
<g><path style="opacity:1" fill="#fec90d" d="M 430.5,330.5 C 431.469,331.309 432.302,332.309 433,333.5C 433.781,336.834 434.114,340.167 434,343.5C 432.433,335.773 428.433,334.44 422,339.5C 421.464,337.433 421.964,335.599 423.5,334C 425.527,332.121 427.86,330.954 430.5,330.5 Z"/></g>
<g><path style="opacity:1" fill="#fefffe" d="M 473.5,331.5 C 477.373,333.154 477.04,333.654 472.5,333C 473.056,332.617 473.389,332.117 473.5,331.5 Z"/></g>
<g><path style="opacity:1" fill="#3f47cc" d="M 225.5,334.5 C 224.549,335.919 224.216,337.585 224.5,339.5C 219.255,336.139 219.589,334.472 225.5,334.5 Z"/></g>
<g><path style="opacity:1" fill="#3f47cc" d="M 378.5,335.5 C 378.833,335.5 379.167,335.5 379.5,335.5C 380.038,337.117 380.371,338.784 380.5,340.5C 379.209,340.737 378.209,340.404 377.5,339.5C 378.434,338.432 378.768,337.099 378.5,335.5 Z"/></g>
<g><path style="opacity:1" fill="#fac50f" d="M 335.5,337.5 C 336.009,346.1 333.676,354.1 328.5,361.5C 327.575,362.562 326.575,362.562 325.5,361.5C 325.461,360.417 325.127,359.417 324.5,358.5C 327.151,356.35 329.651,354.017 332,351.5C 333.15,348.232 333.984,344.899 334.5,341.5C 330.132,342.288 325.799,343.288 321.5,344.5C 318.154,343.83 314.821,343.163 311.5,342.5C 310.722,341.844 310.056,341.011 309.5,340C 309.57,339.235 309.903,338.735 310.5,338.5C 311.93,339.537 313.597,340.204 315.5,340.5C 316.492,340.328 317.158,340.662 317.5,341.5C 319.966,342.634 322.633,342.801 325.5,342C 326.056,341.617 326.389,341.117 326.5,340.5C 329.916,340.472 332.916,339.472 335.5,337.5 Z"/></g>
<g><path style="opacity:1" fill="#222322" d="M 460.5,338.5 C 472.752,337.068 485.085,337.568 497.5,340C 498.672,340.419 499.672,341.085 500.5,342C 486.795,344.565 473.462,343.398 460.5,338.5 Z"/></g>
<g><path style="opacity:1" fill="#000000" d="M 323.5,339.5 C 323.369,340.239 323.536,340.906 324,341.5C 324.671,340.748 325.504,340.414 326.5,340.5C 326.389,341.117 326.056,341.617 325.5,342C 322.633,342.801 319.966,342.634 317.5,341.5C 319.886,341.741 321.886,341.075 323.5,339.5 Z"/></g>
<g><path style="opacity:1" fill="#3f47cc" d="M 224.5,341.5 C 224.5,343.167 224.5,344.833 224.5,346.5C 220.5,344.833 220.5,343.167 224.5,341.5 Z"/></g>
<g><path style="opacity:1" fill="#212121" d="M 325.5,361.5 C 320.619,373.113 319.119,385.113 321,397.5C 323.172,398.509 324.338,400.176 324.5,402.5C 325.19,406.49 325.357,410.49 325,414.5C 323.687,415.287 322.52,414.954 321.5,413.5C 317.949,410.997 313.949,409.33 309.5,408.5C 307.085,408.719 306.085,410.052 306.5,412.5C 302.953,414.026 299.619,413.693 296.5,411.5C 297.243,410.818 297.909,410.151 298.5,409.5C 299.9,408.9 300.9,407.9 301.5,406.5C 300.081,405.549 298.415,405.216 296.5,405.5C 296.08,395.72 296.914,386.053 299,376.5C 302.178,365.454 305.512,354.454 309,343.5C 309.671,342.748 310.504,342.414 311.5,342.5C 314.821,343.163 318.154,343.83 321.5,344.5C 325.799,343.288 330.132,342.288 334.5,341.5C 333.984,344.899 333.15,348.232 332,351.5C 329.651,354.017 327.151,356.35 324.5,358.5C 325.127,359.417 325.461,360.417 325.5,361.5 Z"/></g>
<g><path style="opacity:1" fill="#3f47cc" d="M 375.5,344.5 C 378.493,346.531 378.159,347.864 374.5,348.5C 374.833,347.167 375.167,345.833 375.5,344.5 Z"/></g>
<g><path style="opacity:1" fill="#3f47cc" d="M 226.5,349.5 C 226.263,350.791 226.596,351.791 227.5,352.5C 227.631,353.239 227.464,353.906 227,354.5C 225.185,353.756 223.352,353.089 221.5,352.5C 222.621,349.953 224.288,348.953 226.5,349.5 Z"/></g>
<g><path style="opacity:1" fill="#3f47cc" d="M 374.5,348.5 C 374.975,351.082 374.308,353.082 372.5,354.5C 371.432,353.566 370.099,353.232 368.5,353.5C 368.628,355.655 368.128,357.655 367,359.5C 366.617,358.944 366.117,358.611 365.5,358.5C 363.771,357.764 362.771,356.43 362.5,354.5C 366.783,353.025 370.783,351.025 374.5,348.5 Z"/></g>
<g><path style="opacity:1" fill="#3f47cc" d="M 228.5,355.5 C 228.328,356.492 228.662,357.158 229.5,357.5C 229.209,358.649 228.376,359.316 227,359.5C 226.167,359.333 225.333,359.167 224.5,359C 225.705,357.624 227.038,356.458 228.5,355.5 Z"/></g>
<g><path style="opacity:1" fill="#3f47cc" d="M 339.5,355.5 C 339.918,356.222 340.584,356.722 341.5,357C 340.614,358.615 339.614,360.115 338.5,361.5C 338.167,361.5 337.833,361.5 337.5,361.5C 336.488,360.128 335.488,358.795 334.5,357.5C 334.389,356.883 334.056,356.383 333.5,356C 335.473,355.505 337.473,355.338 339.5,355.5 Z"/></g>
<g><path style="opacity:1" fill="#5f3c29" d="M 358.5,355.5 C 359.568,354.566 360.901,354.232 362.5,354.5C 362.771,356.43 363.771,357.764 365.5,358.5C 366.469,362.608 368.136,366.441 370.5,370C 368.714,370.785 367.214,371.951 366,373.5C 365.163,375.844 363.829,377.844 362,379.5C 355.686,373.69 352.853,366.69 353.5,358.5C 355.017,358.511 356.184,359.177 357,360.5C 358.046,358.91 359.213,357.41 360.5,356C 359.906,355.536 359.239,355.369 358.5,355.5 Z"/></g>
<g><path style="opacity:1" fill="#362317" d="M 334.5,357.5 C 335.488,358.795 336.488,360.128 337.5,361.5C 336.979,374.398 340.646,386.065 348.5,396.5C 347.333,396.833 346.167,397.167 345,397.5C 340.833,396.766 336.667,396.1 332.5,395.5C 332.5,391.833 332.5,388.167 332.5,384.5C 333.562,382.766 333.562,381.099 332.5,379.5C 332.334,372.492 332.5,365.492 333,358.5C 333.383,357.944 333.883,357.611 334.5,357.5 Z"/></g>
<g><path style="opacity:1" fill="#2d1d14" d="M 372.5,354.5 C 371.5,354.5 370.5,354.5 369.5,354.5C 369.351,355.552 369.517,356.552 370,357.5C 378.167,365.179 384.333,374.179 388.5,384.5C 388.192,385.308 387.692,385.975 387,386.5C 383.703,384.205 380.703,381.538 378,378.5C 376.604,382.792 374.104,386.292 370.5,389C 367.835,388.52 365.169,387.687 362.5,386.5C 361.833,386.833 361.167,387.167 360.5,387.5C 359.975,389.988 359.142,392.321 358,394.5C 351.982,386.452 346.482,378.119 341.5,369.5C 339.94,367.046 338.94,364.38 338.5,361.5C 339.614,360.115 340.614,358.615 341.5,357C 340.584,356.722 339.918,356.222 339.5,355.5C 345.833,355.5 352.167,355.5 358.5,355.5C 356.708,356.309 354.708,356.809 352.5,357C 353.056,357.383 353.389,357.883 353.5,358.5C 352.853,366.69 355.686,373.69 362,379.5C 363.829,377.844 365.163,375.844 366,373.5C 367.214,371.951 368.714,370.785 370.5,370C 368.136,366.441 366.469,362.608 365.5,358.5C 366.117,358.611 366.617,358.944 367,359.5C 368.128,357.655 368.628,355.655 368.5,353.5C 370.099,353.232 371.432,353.566 372.5,354.5 Z"/></g>
<g><path style="opacity:1" fill="#3f47cc" d="M 342.5,357.5 C 344.966,356.366 347.633,356.199 350.5,357C 349.789,358.255 348.956,359.421 348,360.5C 346.259,359.242 344.426,358.242 342.5,357.5 Z"/></g>
<g><path style="opacity:1" fill="#3f47cc" d="M 358.5,355.5 C 359.239,355.369 359.906,355.536 360.5,356C 359.213,357.41 358.046,358.91 357,360.5C 356.184,359.177 355.017,358.511 353.5,358.5C 353.389,357.883 353.056,357.383 352.5,357C 354.708,356.809 356.708,356.309 358.5,355.5 Z"/></g>
<g><path style="opacity:1" fill="#222322" d="M 37.5,360.5 C 38.8734,360.343 40.2068,360.51 41.5,361C 38.5372,362.961 35.8706,365.294 33.5,368C 27.0059,371.661 20.5059,375.161 14,378.5C 13.3333,377.5 13.3333,376.5 14,375.5C 17.5,372 21,368.5 24.5,365C 28.7407,363.004 33.074,361.504 37.5,360.5 Z"/></g>
<g><path style="opacity:1" fill="#3f47cc" d="M 231.5,360.5 C 233.194,362.861 235.194,364.861 237.5,366.5C 235.167,366.5 232.833,366.5 230.5,366.5C 230.205,364.265 230.539,362.265 231.5,360.5 Z"/></g>
<g><path style="opacity:1" fill="#3f47cc" d="M 296.5,360.5 C 300.64,359.956 301.307,360.956 298.5,363.5C 296.837,366.052 295.17,365.886 293.5,363C 294.416,362.722 295.082,362.222 295.5,361.5C 296.167,361.5 296.5,361.167 296.5,360.5 Z"/></g>
<g><path style="opacity:1" fill="#c2c3c2" d="M 332.5,379.5 C 333.562,381.099 333.562,382.766 332.5,384.5C 331.238,392.867 329.905,401.367 328.5,410C 328.585,411.107 328.919,412.107 329.5,413C 341.629,416.278 341.296,418.445 328.5,419.5C 324.248,419.515 321.248,417.682 319.5,414C 320.094,413.536 320.761,413.369 321.5,413.5C 322.52,414.954 323.687,415.287 325,414.5C 325.357,410.49 325.19,406.49 324.5,402.5C 326.118,399.829 326.785,396.829 326.5,393.5C 327.479,390.375 327.813,387.042 327.5,383.5C 328.328,377.347 328.828,371.013 329,364.5C 329.915,363.672 330.581,362.672 331,361.5C 331.172,367.681 331.672,373.681 332.5,379.5 Z"/></g>
<g><path style="opacity:1" fill="#3f47cc" d="M 290.5,362.5 C 291.376,362.369 292.043,362.702 292.5,363.5C 290.05,368.435 288.383,368.435 287.5,363.5C 288.791,363.737 289.791,363.404 290.5,362.5 Z"/></g>
<g><path style="opacity:1" fill="#5f3c29" d="M 290.5,362.5 C 291.919,361.549 293.585,361.216 295.5,361.5C 295.082,362.222 294.416,362.722 293.5,363C 295.17,365.886 296.837,366.052 298.5,363.5C 299.097,363.735 299.43,364.235 299.5,365C 295.184,375.394 293.184,386.227 293.5,397.5C 274.107,396.98 256.44,391.147 240.5,380C 241.255,377.825 242.088,375.659 243,373.5C 243.232,374.737 243.732,375.737 244.5,376.5C 246.404,376.262 247.738,375.262 248.5,373.5C 250.042,372.699 251.708,372.366 253.5,372.5C 255.152,377.598 257.152,377.598 259.5,372.5C 261.129,373.625 262.629,374.959 264,376.5C 264.813,374.564 265.313,372.564 265.5,370.5C 266.391,369.89 267.391,369.557 268.5,369.5C 268.787,371.121 269.787,372.121 271.5,372.5C 273.534,371.426 273.867,370.093 272.5,368.5C 273.209,367.596 274.209,367.263 275.5,367.5C 276.641,368.339 277.974,369.006 279.5,369.5C 282.29,367.667 281.957,366.667 278.5,366.5C 280.214,365.262 282.214,364.595 284.5,364.5C 285.209,363.596 286.209,363.263 287.5,363.5C 288.383,368.435 290.05,368.435 292.5,363.5C 292.043,362.702 291.376,362.369 290.5,362.5 Z"/></g>
<g><path style="opacity:1" fill="#3f47cc" d="M 284.5,364.5 C 285.376,364.369 286.043,364.702 286.5,365.5C 285.469,366.7 284.635,368.034 284,369.5C 281.99,367.604 282.157,365.937 284.5,364.5 Z"/></g>
<g><path style="opacity:1" fill="#3f47cc" d="M 278.5,366.5 C 281.957,366.667 282.29,367.667 279.5,369.5C 277.974,369.006 276.641,368.339 275.5,367.5C 276.791,367.737 277.791,367.404 278.5,366.5 Z"/></g>
<g><path style="opacity:1" fill="#3f47cc" d="M 238.5,367.5 C 240.795,368.475 242.795,369.808 244.5,371.5C 242.621,372.341 240.621,372.675 238.5,372.5C 238.5,370.833 238.5,369.167 238.5,367.5 Z"/></g>
<g><path style="opacity:1" fill="#332116" d="M 327.5,383.5 C 327.813,387.042 327.479,390.375 326.5,393.5C 325.732,394.263 325.232,395.263 325,396.5C 323.557,394.072 322.724,391.405 322.5,388.5C 323.525,381.4 325.025,374.4 327,367.5C 327.499,372.823 327.666,378.156 327.5,383.5 Z"/></g>
<g><path style="opacity:1" fill="#3f47cc" d="M 272.5,368.5 C 273.867,370.093 273.534,371.426 271.5,372.5C 269.787,372.121 268.787,371.121 268.5,369.5C 270.099,369.768 271.432,369.434 272.5,368.5 Z"/></g>
<g><path style="opacity:1" fill="#372317" d="M 437.5,436.5 C 434.982,435.736 432.649,434.736 430.5,433.5C 429.972,432.279 429.305,431.113 428.5,430C 436.145,417.1 437.311,403.6 432,389.5C 429.243,387.973 426.243,387.307 423,387.5C 416.397,387.906 409.897,388.906 403.5,390.5C 403.167,390.167 402.833,389.833 402.5,389.5C 408.276,383.946 411.942,377.279 413.5,369.5C 422.496,370.596 431.496,370.762 440.5,370C 447.965,377.691 450.132,386.524 447,396.5C 446,408.167 445,419.833 444,431.5C 442.223,433.79 440.056,435.457 437.5,436.5 Z"/></g>
<g><path style="opacity:1" fill="#3f47cc" d="M 265.5,370.5 C 265.313,372.564 264.813,374.564 264,376.5C 262.629,374.959 261.129,373.625 259.5,372.5C 261.374,371.715 263.374,371.048 265.5,370.5 Z"/></g>
<g><path style="opacity:1" fill="#3f47cc" d="M 244.5,371.5 C 245.833,372.167 247.167,372.833 248.5,373.5C 247.738,375.262 246.404,376.262 244.5,376.5C 244.5,374.833 244.5,373.167 244.5,371.5 Z"/></g>
<g><path style="opacity:1" fill="#3f47cc" d="M 253.5,372.5 C 255.5,372.5 257.5,372.5 259.5,372.5C 257.152,377.598 255.152,377.598 253.5,372.5 Z"/></g>
<g><path style="opacity:1" fill="#66412b" d="M 232.5,391.5 C 234.167,391.5 235.833,391.5 237.5,391.5C 236.804,394.554 235.304,397.22 233,399.5C 232.333,402.833 231.667,406.167 231,409.5C 228.63,412.039 226.13,414.372 223.5,416.5C 223.385,407.06 226.385,398.726 232.5,391.5 Z"/></g>
<g><path style="opacity:1" fill="#fefffe" d="M 420.5,392.5 C 423.157,392.162 425.49,392.829 427.5,394.5C 428.654,398.117 429.654,401.784 430.5,405.5C 428.399,413.995 426.066,422.328 423.5,430.5C 420.843,430.162 418.51,430.829 416.5,432.5C 415.667,431.5 414.833,430.5 414,429.5C 411.051,417.819 407.218,406.486 402.5,395.5C 408.732,395.128 414.732,394.128 420.5,392.5 Z M 417.5,396.5 C 414.224,397.283 410.891,398.283 407.5,399.5C 411.738,408.114 414.904,417.114 417,426.5C 418.011,427.337 419.178,427.67 420.5,427.5C 421.793,420.096 423.793,412.93 426.5,406C 426.225,403.069 425.559,400.235 424.5,397.5C 422.257,396.526 419.924,396.192 417.5,396.5 Z"/></g>
<g><path style="opacity:1" fill="#66412b" d="M 184.5,404.5 C 186.268,406.508 187.934,408.674 189.5,411C 197.341,409.254 205.341,408.588 213.5,409C 216.729,411.741 220.062,414.241 223.5,416.5C 219.501,423.156 215.001,429.489 210,435.5C 206.889,439.722 205.889,444.389 207,449.5C 213.767,457.107 221.601,463.107 230.5,467.5C 230.083,468.124 229.416,468.457 228.5,468.5C 224.138,467.628 219.804,466.628 215.5,465.5C 213.803,465.899 212.137,466.399 210.5,467C 219.112,469.306 226.778,473.306 233.5,479C 233.167,479.167 232.833,479.333 232.5,479.5C 230.021,477.924 227.354,476.924 224.5,476.5C 207.314,468.363 189.314,462.363 170.5,458.5C 176.539,445.753 182.039,432.753 187,419.5C 188.019,414.161 187.186,409.161 184.5,404.5 Z"/></g>
<g><path style="opacity:1" fill="#c2c3c2" d="M 301.5,406.5 C 300.9,407.9 299.9,408.9 298.5,409.5C 295.8,408.484 293.134,408.484 290.5,409.5C 288.899,408.965 288.399,407.965 289,406.5C 292.806,407.43 296.973,407.43 301.5,406.5 Z"/></g>
<g><path style="opacity:1" fill="#cea38a" d="M 430.5,433.5 C 432.649,434.736 434.982,435.736 437.5,436.5C 437.611,437.117 437.944,437.617 438.5,438C 435.21,441.759 432.876,445.925 431.5,450.5C 427.715,446.372 423.381,443.039 418.5,440.5C 420.79,436.458 424.123,435.291 428.5,437C 429.085,435.698 429.751,434.531 430.5,433.5 Z"/></g>
<g><path style="opacity:1" fill="#372417" d="M 212.5,437.5 C 212.746,440.293 212.913,443.293 213,446.5C 214.946,449.377 216.279,452.377 217,455.5C 215.039,452.537 212.706,449.871 210,447.5C 209.913,443.985 210.746,440.652 212.5,437.5 Z"/></g>
<g><path style="opacity:1" fill="#332116" d="M 230.5,467.5 C 230.56,466.957 230.893,466.624 231.5,466.5C 236.88,469.428 242.547,471.595 248.5,473C 250.553,477.68 252.386,482.514 254,487.5C 256.13,490.23 258.797,492.23 262,493.5C 262.239,494.788 261.739,495.788 260.5,496.5C 255.547,497.329 250.547,497.663 245.5,497.5C 241.129,496.431 240.629,494.431 244,491.5C 244.896,488.975 244.396,486.808 242.5,485C 239.093,484.518 235.76,484.518 232.5,485C 229.869,482.023 226.869,479.523 223.5,477.5C 223.624,476.893 223.957,476.56 224.5,476.5C 227.354,476.924 230.021,477.924 232.5,479.5C 232.833,479.333 233.167,479.167 233.5,479C 226.778,473.306 219.112,469.306 210.5,467C 212.137,466.399 213.803,465.899 215.5,465.5C 219.804,466.628 224.138,467.628 228.5,468.5C 229.416,468.457 230.083,468.124 230.5,467.5 Z"/></g>
<g><path style="opacity:1" fill="#c2c3c2" d="M 343.5,471.5 C 340.238,476.102 336.572,480.435 332.5,484.5C 330.5,484.5 328.5,484.5 326.5,484.5C 326.472,482.418 327.139,480.584 328.5,479C 330.905,478.719 330.905,479.385 328.5,481C 329,481.5 329.5,482 330,482.5C 334.167,479.667 337.667,476.167 340.5,472C 338.007,470.417 338.174,468.917 341,467.5C 342.481,468.471 343.315,469.804 343.5,471.5 Z"/></g>
<g><path style="opacity:1" fill="#202020" d="M 352.5,476.5 C 350.804,478.525 349.137,480.525 347.5,482.5C 346.686,484.631 346.186,486.964 346,489.5C 341.457,487.711 336.957,486.044 332.5,484.5C 336.572,480.435 340.238,476.102 343.5,471.5C 346.388,470.922 349.388,470.922 352.5,471.5C 352.5,473.167 352.5,474.833 352.5,476.5 Z"/></g>
<g><path style="opacity:1" fill="#cea38a" d="M 352.5,476.5 C 355.122,477.765 356.788,479.765 357.5,482.5C 357.12,484.698 357.787,486.365 359.5,487.5C 359.53,488.497 359.03,489.164 358,489.5C 354.507,488.331 351.007,488.331 347.5,489.5C 347.5,487.167 347.5,484.833 347.5,482.5C 349.137,480.525 350.804,478.525 352.5,476.5 Z"/></g>
<g><path style="opacity:1" fill="#372417" d="M 217.5,477.5 C 221.959,480.787 226.292,484.287 230.5,488C 233.202,488.607 235.868,488.44 238.5,487.5C 242.31,488.226 242.476,489.559 239,491.5C 238.785,494.856 238.785,498.189 239,501.5C 238,500.833 237,500.167 236,499.5C 235.697,497.112 234.863,494.945 233.5,493C 225.046,491.045 219.712,485.879 217.5,477.5 Z"/></g>
<g><path style="opacity:1" fill="#212121" d="M 260.5,496.5 C 261.787,497.871 262.453,499.705 262.5,502C 262.676,505.794 261.843,509.294 260,512.5C 253.921,510.795 248.588,507.795 244,503.5C 243.749,501.567 243.249,499.734 242.5,498C 243.448,497.517 244.448,497.351 245.5,497.5C 250.547,497.663 255.547,497.329 260.5,496.5 Z"/></g>
</svg>
