<?xml version="1.0" encoding="UTF-8"?>
<!DOCTYPE svg PUBLIC "-//W3C//DTD SVG 1.1//EN" "http://www.w3.org/Graphics/SVG/1.1/DTD/svg11.dtd">
<svg xmlns="http://www.w3.org/2000/svg" version="1.1" width="497px" height="452px" style="shape-rendering:geometricPrecision; text-rendering:geometricPrecision; image-rendering:optimizeQuality; fill-rule:evenodd; clip-rule:evenodd" xmlns:xlink="http://www.w3.org/1999/xlink">
<g><path style="opacity:1" fill="#fefffe" d="M 360.5,70.5 C 369.029,69.5138 376.529,71.8471 383,77.5C 383.667,81.8333 383.667,86.1667 383,90.5C 381.365,91.7256 379.865,93.059 378.5,94.5C 383.303,97.4711 387.97,100.638 392.5,104C 399.077,108.559 401.243,114.726 399,122.5C 395.5,126.667 392,130.833 388.5,135C 394.327,136.289 400.327,136.956 406.5,137C 408.803,139.164 410.137,141.831 410.5,145C 415.955,146.369 420.789,148.869 425,152.5C 429.004,163.792 428.171,174.625 422.5,185C 424.953,201.139 425.12,217.305 423,233.5C 422.333,234.833 421.667,236.167 421,237.5C 417.833,239.333 415.333,241.833 413.5,245C 410.623,246.127 407.623,246.794 404.5,247C 405.264,249.069 405.764,251.236 406,253.5C 409.879,255.189 413.712,257.022 417.5,259C 419.378,260.543 420.878,262.376 422,264.5C 423.604,276.429 423.937,288.429 423,300.5C 421.291,303.418 419.458,306.252 417.5,309C 413.514,309.499 409.514,309.666 405.5,309.5C 406.833,315.5 404.5,317.833 398.5,316.5C 398.297,318.39 398.963,319.89 400.5,321C 409.265,326.8 417.765,332.966 426,339.5C 426.667,342.833 426.667,346.167 426,349.5C 425.167,350.333 424.333,351.167 423.5,352C 414.307,353.804 405.807,352.304 398,347.5C 391.765,353.735 384.931,359.235 377.5,364C 372.5,364.667 367.5,364.667 362.5,364C 360.667,363.5 359.5,362.333 359,360.5C 357.291,350.69 357.124,340.857 358.5,331C 357.841,325.7 356.674,320.534 355,315.5C 353.745,314.789 352.579,313.956 351.5,313C 334.291,308.555 317.624,302.721 301.5,295.5C 300.135,298.687 299.301,302.02 299,305.5C 298,315.833 297,326.167 296,336.5C 294.215,337.24 292.382,337.907 290.5,338.5C 289.812,344.052 289.146,349.552 288.5,355C 269.232,356.851 249.899,356.851 230.5,355C 229.073,349.468 229.24,343.968 231,338.5C 239.428,334.281 247.428,329.281 255,323.5C 259.343,298.445 264.009,273.445 269,248.5C 269.5,248 270,247.5 270.5,247C 288.524,246.568 306.524,247.068 324.5,248.5C 324.134,239.835 322.301,231.502 319,223.5C 311.859,227.987 304.359,231.821 296.5,235C 283.742,239.26 275.575,235.093 272,222.5C 270.161,209.471 268.328,196.471 266.5,183.5C 264.143,183.663 261.81,183.497 259.5,183C 253.162,180.136 246.495,178.136 239.5,177C 223.409,175.701 207.409,174.035 191.5,172C 190.313,170.981 189.313,169.814 188.5,168.5C 167.581,165.395 146.581,163.895 125.5,164C 124.833,163.333 124.167,162.667 123.5,162C 119.833,161.667 116.167,161.333 112.5,161C 111.455,159.474 109.955,158.641 108,158.5C 84.4119,156.398 60.9119,153.564 37.5,150C 28.8706,148.741 26.2039,144.074 29.5,136C 34.4623,135.127 39.4623,134.627 44.5,134.5C 66.7508,135.412 88.9174,136.745 111,138.5C 122.424,137.346 133.924,137.18 145.5,138C 147.808,139.867 150.475,140.867 153.5,141C 197.146,144.957 240.813,148.624 284.5,152C 297.014,150.883 309.681,150.55 322.5,151C 323.406,152.699 323.739,154.533 323.5,156.5C 324.5,156.5 325.5,156.5 326.5,156.5C 326.241,152.76 326.574,149.094 327.5,145.5C 323.629,141.274 322.462,136.274 324,130.5C 326.061,126.019 329.561,124.352 334.5,125.5C 337.367,113.403 340.534,101.403 344,89.5C 346.041,88.5769 348.208,88.2436 350.5,88.5C 350.917,83.9049 353.417,80.9049 358,79.5C 358.057,76.1888 358.89,73.1888 360.5,70.5 Z M 298.5,182.5 C 302.237,184.521 302.737,186.855 300,189.5C 299.023,187.26 298.523,184.927 298.5,182.5 Z"/></g>
<g><path style="opacity:1" fill="#010101" d="M 362.5,72.5 C 369.433,72.7128 375.6,75.0461 381,79.5C 381.667,82.5 381.667,85.5 381,88.5C 376.704,90.2613 375.537,93.2613 377.5,97.5C 385.067,101.571 391.567,106.904 397,113.5C 397.667,115.833 397.667,118.167 397,120.5C 392.454,125.377 388.287,130.544 384.5,136C 388.253,137.588 390.253,140.421 390.5,144.5C 391.23,142.659 391.897,140.825 392.5,139C 396.5,138.333 400.5,138.333 404.5,139C 406.803,141.164 408.137,143.831 408.5,147C 413.955,148.369 418.789,150.869 423,154.5C 425.344,160.631 426.011,166.964 425,173.5C 423.149,177.203 421.315,180.87 419.5,184.5C 420.641,187.755 421.474,191.089 422,194.5C 422.894,206.882 422.561,219.215 421,231.5C 420.333,232.833 419.667,234.167 419,235.5C 415.833,237.333 413.333,239.833 411.5,243C 408.649,244.289 405.649,244.789 402.5,244.5C 402.781,248.188 403.281,251.855 404,255.5C 407.879,257.189 411.712,259.022 415.5,261C 417.378,262.543 418.878,264.376 420,266.5C 421.595,277.093 421.928,287.76 421,298.5C 419.291,301.418 417.458,304.252 415.5,307C 411.514,307.499 407.514,307.666 403.5,307.5C 403.756,309.792 403.423,311.959 402.5,314C 399.833,314.333 397.167,314.667 394.5,315C 396.074,316.826 396.907,318.993 397,321.5C 406,328.167 415,334.833 424,341.5C 425.123,344.956 424.29,347.79 421.5,350C 417.167,350.667 412.833,350.667 408.5,350C 404.504,348.337 400.837,346.171 397.5,343.5C 390.949,350.547 383.615,356.714 375.5,362C 371.833,362.667 368.167,362.667 364.5,362C 362.667,361.5 361.5,360.333 361,358.5C 358.872,349.107 359.039,339.774 361.5,330.5C 360.061,324.801 358.561,319.135 357,313.5C 355.745,312.789 354.579,311.956 353.5,311C 335.583,305.59 317.916,299.424 300.5,292.5C 299.914,292.709 299.414,293.043 299,293.5C 296.615,307.068 294.948,320.735 294,334.5C 291.423,335.271 288.923,336.271 286.5,337.5C 287.814,342.697 287.814,347.864 286.5,353C 268.566,354.837 250.566,354.837 232.5,353C 229.118,344.452 231.784,339.118 240.5,337C 246.087,333.29 251.587,329.457 257,325.5C 261.343,300.445 266.009,275.445 271,250.5C 271.5,250 272,249.5 272.5,249C 290.903,248.537 309.236,249.37 327.5,251.5C 326.426,240.974 324.426,230.641 321.5,220.5C 312.563,224.633 303.563,228.799 294.5,233C 289.713,233.879 285.047,233.545 280.5,232C 277.433,228.703 275.267,224.869 274,220.5C 272.161,207.471 270.328,194.471 268.5,181.5C 266.143,181.663 263.81,181.497 261.5,181C 255.162,178.136 248.495,176.136 241.5,175C 225.409,173.701 209.409,172.035 193.5,170C 192.313,168.981 191.313,167.814 190.5,166.5C 169.586,163.396 148.586,161.896 127.5,162C 126.833,161.333 126.167,160.667 125.5,160C 121.833,159.667 118.167,159.333 114.5,159C 113.455,157.474 111.955,156.641 110,156.5C 86.4119,154.398 62.9119,151.564 39.5,148C 36.7213,147.111 34.0546,145.944 31.5,144.5C 30.2203,142.298 30.2203,140.132 31.5,138C 35.8066,137.266 40.1399,136.766 44.5,136.5C 66.6901,137.557 88.8567,138.89 111,140.5C 120.356,139.74 129.689,139.407 139,139.5C 143.318,140.25 147.485,141.416 151.5,143C 201.011,147.27 250.511,151.437 300,155.5C 301.434,155.07 302.601,154.236 303.5,153C 309.167,152.333 314.833,152.333 320.5,153C 321.071,155.611 321.904,158.111 323,160.5C 324.444,158.845 326.278,158.178 328.5,158.5C 328.116,153.663 328.783,148.997 330.5,144.5C 324.262,139.34 323.929,133.84 329.5,128C 331.81,127.503 334.143,127.337 336.5,127.5C 339.367,115.403 342.534,103.403 346,91.5C 348.041,90.5769 350.208,90.2436 352.5,90.5C 352.917,85.9049 355.417,82.9049 360,81.5C 360.057,78.1888 360.89,75.1888 362.5,72.5 Z M 298.5,182.5 C 298.523,184.927 299.023,187.26 300,189.5C 302.737,186.855 302.237,184.521 298.5,182.5 Z"/></g>
<g><path style="opacity:1" fill="#22b14b" d="M 365.5,78.5 C 369.423,79.7951 373.09,81.6284 376.5,84C 372.955,87.1744 369.455,87.0077 366,83.5C 365.506,81.8659 365.34,80.1992 365.5,78.5 Z"/></g>
<g><path style="opacity:1" fill="#fef200" d="M 364.5,85.5 C 368.696,86.2641 371.029,88.7641 371.5,93C 370.708,94.9597 369.375,96.4597 367.5,97.5C 363.743,96.3143 360.41,94.481 357.5,92C 359.425,89.3748 361.758,87.2082 364.5,85.5 Z"/></g>
<g><path style="opacity:1" fill="030202" d="M 386.5,121.5 C 382.182,114.85 376.182,110.517 368.5,108.5C 367.473,107.152 366.14,106.652 364.5,107C 358.887,113.437 353.887,120.271 349.5,127.5C 349.833,128.167 350.167,128.833 350.5,129.5C 359.149,132.49 366.815,136.323 373.5,141C 370.67,144.359 368.503,143.859 367,139.5C 366.439,140.022 365.772,140.355 365,140.5C 359.38,136.807 352.88,134.14 345.5,132.5C 348.526,129.212 348.859,125.879 346.5,122.5C 350.97,117.187 355.303,111.687 359.5,106C 356.952,103.558 353.952,101.892 350.5,101C 355.794,100.182 355.794,99.6822 350.5,99.5C 350.5,98.1667 350.5,96.8333 350.5,95.5C 356.844,95.4983 362.844,96.9983 368.5,100C 374.757,103.134 380.757,106.801 386.5,111C 388.351,112.684 390.018,114.517 391.5,116.5C 390.476,118.946 388.809,120.612 386.5,121.5 Z"/></g>
<g><path style="opacity:1" fill="#1d1d1d" d="M 368.5,108.5 C 376.182,110.517 382.182,114.85 386.5,121.5C 382.9,127.685 378.567,133.352 373.5,138.5C 366.608,133.887 359.275,130.053 351.5,127C 356,121.167 360.5,115.333 365,109.5C 366.011,108.663 367.178,108.33 368.5,108.5 Z"/></g>
<g><path style="opacity:1" fill="#030202" d="M 346.5,122.5 C 345.883,122.389 345.383,122.056 345,121.5C 344.333,118.833 344.333,116.167 345,113.5C 346.289,116.351 346.789,119.351 346.5,122.5 Z"/></g>
<g><path style="opacity:1" fill="#fec90d" d="M 343.5,123.5 C 347.156,125.266 347.156,127.266 343.5,129.5C 341.001,127.604 341.001,125.604 343.5,123.5 Z"/></g>
<g><path style="opacity:1" fill="#fec90d" d="M 342.5,132.5 C 341.537,131.637 341.537,130.97 342.5,130.5C 343.773,131.257 343.773,131.923 342.5,132.5 Z"/></g>
<g><path style="opacity:1" fill="#fec90d" d="M 342.5,132.5 C 342.912,134.973 341.912,136.306 339.5,136.5C 339.468,134.381 340.468,133.048 342.5,132.5 Z"/></g>
<g><path style="opacity:1" fill="#3b2519" d="M 344.5,150.5 C 343.751,149.469 343.085,148.302 342.5,147C 346.029,144.144 347.362,140.644 346.5,136.5C 351.395,135.633 355.729,137.133 359.5,141C 357.777,144.408 358.777,146.741 362.5,148C 356.264,147.974 350.264,148.807 344.5,150.5 Z"/></g>
<g><path style="opacity:1" fill="#fec90d" d="M 339.5,136.5 C 340.706,138.437 340.373,140.104 338.5,141.5C 338.67,140.178 338.337,139.011 337.5,138C 338.044,137.283 338.711,136.783 339.5,136.5 Z"/></g>
<g><path style="opacity:1" fill="#fec90d" d="M 338.5,141.5 C 338.574,145.161 337.574,145.828 335.5,143.5C 336.098,142.205 336.598,140.872 337,139.5C 337.278,140.416 337.778,141.082 338.5,141.5 Z"/></g>
<g><path style="opacity:1" fill="#7e7f7e" d="M 42.5,142.5 C 42.9169,141.876 43.5836,141.543 44.5,141.5C 67.8166,142.981 91.1499,144.314 114.5,145.5C 114.5,147.5 114.5,149.5 114.5,151.5C 90.333,149.519 66.333,146.519 42.5,142.5 Z"/></g>
<g><path style="opacity:1" fill="#fefffe" d="M 380.5,141.5 C 384.724,142.471 385.224,144.138 382,146.5C 378.372,145.453 377.872,143.786 380.5,141.5 Z"/></g>
<g><path style="opacity:1" fill="#fefffe" d="M 360.5,142.5 C 362.167,142.5 363.833,142.5 365.5,142.5C 365.822,146.439 364.489,147.272 361.5,145C 360.748,144.329 360.414,143.496 360.5,142.5 Z"/></g>
<g><path style="opacity:1" fill="#fefffe" d="M 399.5,147.5 C 395.24,144.842 395.573,143.676 400.5,144C 401.985,145.756 401.652,146.923 399.5,147.5 Z"/></g>
<g><path style="opacity:1" fill="#7e7f7e" d="M 122.5,152.5 C 122.38,153.586 121.713,154.253 120.5,154.5C 116.908,152.228 115.575,148.894 116.5,144.5C 118.167,144.5 119.833,144.5 121.5,144.5C 121.194,147.385 121.527,150.052 122.5,152.5 Z"/></g>
<g><path style="opacity:1" fill="#fec90d" d="M 129.5,147.5 C 129.484,149.484 130.484,150.484 132.5,150.5C 134.038,150.547 135.038,149.88 135.5,148.5C 136.429,147.064 137.595,145.731 139,144.5C 139.038,148.563 139.872,152.397 141.5,156C 138.242,156.212 135.076,156.712 132,157.5C 131.167,156.667 130.333,155.833 129.5,155C 126.823,154.832 124.49,153.999 122.5,152.5C 122.5,149.833 122.5,147.167 122.5,144.5C 125.491,144.166 127.824,145.166 129.5,147.5 Z"/></g>
<g><path style="opacity:1" fill="#5b5b5b" d="M 135.5,148.5 C 135.038,149.88 134.038,150.547 132.5,150.5C 130.484,150.484 129.484,149.484 129.5,147.5C 129.369,146.761 129.536,146.094 130,145.5C 132.326,145.88 134.159,146.88 135.5,148.5 Z"/></g>
<g><path style="opacity:1" fill="#fec90d" d="M 334.5,145.5 C 336.87,145.983 337.537,147.149 336.5,149C 335.365,149.749 334.365,149.583 333.5,148.5C 334.127,147.583 334.461,146.583 334.5,145.5 Z"/></g>
<g><path style="opacity:1" fill="#7e7f7e" d="M 141.5,146.5 C 161.216,147.837 180.882,149.671 200.5,152C 183.814,151.666 167.147,150.666 150.5,149C 147.008,149.07 144.008,148.237 141.5,146.5 Z"/></g>
<g><path style="opacity:1" fill="#eea07f" d="M 346.5,136.5 C 347.362,140.644 346.029,144.144 342.5,147C 343.085,148.302 343.751,149.469 344.5,150.5C 344.202,153.265 343.202,155.765 341.5,158C 339.681,158.783 338.348,158.283 337.5,156.5C 339.623,151.395 341.123,146.061 342,140.5C 342.805,142.901 343.638,142.734 344.5,140C 343.833,139.667 343.167,139.333 342.5,139C 343.308,137.294 344.641,136.461 346.5,136.5 Z"/></g>
<g><path style="opacity:1" fill="#fefffe" d="M 365.5,147.5 C 372.492,151.015 375.325,156.681 374,164.5C 373.125,167.628 371.958,170.628 370.5,173.5C 370.167,173 369.833,172.5 369.5,172C 371.322,166.62 371.822,161.12 371,155.5C 368.92,152.935 367.087,150.268 365.5,147.5 Z"/></g>
<g><path style="opacity:1" fill="#fefffe" d="M 380.5,148.5 C 383.877,148.411 387.044,149.744 390,152.5C 391.348,159.761 391.848,167.094 391.5,174.5C 390.5,174.5 389.5,174.5 388.5,174.5C 389.487,168.195 389.653,161.862 389,155.5C 387.195,151.857 384.362,149.524 380.5,148.5 Z"/></g>
<g><path style="opacity:1" fill="#fefffe" d="M 399.5,147.5 C 400.739,148.212 401.239,149.212 401,150.5C 399.745,149.789 398.579,148.956 397.5,148C 398.094,147.536 398.761,147.369 399.5,147.5 Z"/></g>
<g><path style="opacity:1" fill="#b87a56" d="M 141.5,149.5 C 161.196,150.81 180.863,152.477 200.5,154.5C 199.626,156.747 199.292,159.08 199.5,161.5C 180.787,159.83 162.121,157.83 143.5,155.5C 142.253,153.677 141.586,151.677 141.5,149.5 Z"/></g>
<g><path style="opacity:1" fill="#c8b87d" d="M 390.5,150.5 C 395.498,148.906 399.331,150.573 402,155.5C 402.83,161.528 402.664,167.528 401.5,173.5C 398.904,174.213 396.237,174.213 393.5,173.5C 393.666,167.491 393.499,161.491 393,155.5C 392.901,153.347 392.067,151.681 390.5,150.5 Z"/></g>
<g><path style="opacity:1" fill="#fec90d" d="M 333.5,153.5 C 333.5,152.5 333.5,151.5 333.5,150.5C 334.5,150.5 335.5,150.5 336.5,150.5C 336.5,151.5 336.5,152.5 336.5,153.5C 335.5,153.5 334.5,153.5 333.5,153.5 Z"/></g>
<g><path style="opacity:1" fill="#c8b87d" d="M 357.5,154.5 C 357.489,152.983 356.823,151.816 355.5,151C 364.073,148.91 368.74,152.244 369.5,161C 369.065,165.242 368.231,169.409 367,173.5C 363.953,175.053 360.786,175.886 357.5,176C 362.548,168.807 362.548,161.641 357.5,154.5 Z"/></g>
<g><path style="opacity:1" fill="#c8b87d" d="M 372.5,151.5 C 377.563,149.57 382.063,150.57 386,154.5C 387.057,157.207 387.557,160.04 387.5,163C 387.243,166.848 386.909,170.682 386.5,174.5C 382.129,174.125 377.796,173.459 373.5,172.5C 376.173,167.104 377.006,161.437 376,155.5C 375.34,153.676 374.173,152.343 372.5,151.5 Z"/></g>
<g><path style="opacity:1" fill="#7e7f7e" d="M 204.5,151.5 C 206.288,151.215 207.955,151.548 209.5,152.5C 208.667,152.833 207.833,153.167 207,153.5C 205.624,153.316 204.791,152.649 204.5,151.5 Z"/></g>
<g><path style="opacity:1" fill="#c8b87d" d="M 357.5,154.5 C 357.5,156.167 357.5,157.833 357.5,159.5C 357.167,159.5 356.833,159.5 356.5,159.5C 356.047,154.239 353.047,151.739 347.5,152C 351.327,151.024 354.66,151.857 357.5,154.5 Z"/></g>
<g><path style="opacity:1" fill="#fefffe" d="M 402.5,152.5 C 403.994,151.601 405.494,151.935 407,153.5C 408.257,155.513 409.091,157.679 409.5,160C 408.979,164.798 407.645,169.298 405.5,173.5C 404.669,167.193 404.169,160.859 404,154.5C 403.722,153.584 403.222,152.918 402.5,152.5 Z"/></g>
<g><path style="opacity:1" fill="#fec90d" d="M 202.5,152.5 C 203.196,155.461 202.696,158.461 201,161.5C 200.403,158.319 200.903,155.319 202.5,152.5 Z"/></g>
<g><path style="opacity:1" fill="#fec90d" d="M 210.5,152.5 C 211.097,152.735 211.43,153.235 211.5,154C 210.815,156.795 210.315,159.628 210,162.5C 209.341,159.112 209.508,155.779 210.5,152.5 Z"/></g>
<g><path style="opacity:1" fill="#7e7f7e" d="M 213.5,152.5 C 244.156,153.988 274.656,156.654 305,160.5C 306.316,157.972 307.483,157.972 308.5,160.5C 301.524,161.664 294.524,161.831 287.5,161C 265.264,157.984 242.93,155.984 220.5,155C 217.639,155.03 215.305,154.197 213.5,152.5 Z"/></g>
<g><path style="opacity:1" fill="#fec90d" d="M 333.5,153.5 C 334.278,154.156 334.944,154.989 335.5,156C 335.167,156.5 334.833,157 334.5,157.5C 332.811,156.225 332.478,154.892 333.5,153.5 Z"/></g>
<g><path style="opacity:1" fill="#c8b87d" d="M 356.5,159.5 C 358.448,166.277 356.448,171.61 350.5,175.5C 350.667,175.833 350.833,176.167 351,176.5C 352.774,175.035 354.608,173.702 356.5,172.5C 353.74,179.839 349.573,180.505 344,174.5C 343.312,173.668 343.479,173.002 344.5,172.5C 348.151,173.737 350.651,172.404 352,168.5C 352.667,165.833 352.667,163.167 352,160.5C 350.112,158.078 348.112,158.078 346,160.5C 345.503,163.146 345.336,165.813 345.5,168.5C 347.292,168.634 348.958,168.301 350.5,167.5C 349.446,171.817 347.279,172.817 344,170.5C 341.916,163.584 343.75,157.917 349.5,153.5C 353.134,154.143 355.467,156.143 356.5,159.5 Z"/></g>
<g><path style="opacity:1" fill="#c8b87d" d="M 410.5,154.5 C 417.261,155.828 420.594,159.995 420.5,167C 419.421,171.325 417.421,175.158 414.5,178.5C 413.128,176.132 411.128,174.466 408.5,173.5C 411.011,167.305 411.677,160.972 410.5,154.5 Z"/></g>
<g><path style="opacity:1" fill="#b87a56" d="M 204.5,155.5 C 205.833,155.5 207.167,155.5 208.5,155.5C 208.5,157.5 208.5,159.5 208.5,161.5C 206.473,161.662 204.473,161.495 202.5,161C 203.244,159.185 203.911,157.352 204.5,155.5 Z"/></g>
<g><path style="opacity:1" fill="#b27654" d="M 295.5,164.5 C 295.577,165.75 296.244,166.583 297.5,167C 301.5,167.667 305.5,167.667 309.5,167C 311.426,166.578 312.426,165.411 312.5,163.5C 313.251,162.427 314.251,162.26 315.5,163C 317.901,165.062 320.567,166.729 323.5,168C 319.233,169.296 315.9,171.796 313.5,175.5C 302.229,171.146 290.562,168.646 278.5,168C 271.699,164.724 264.699,162.224 257.5,160.5C 257.232,162.099 257.566,163.432 258.5,164.5C 260.019,165.41 261.685,166.243 263.5,167C 246.788,166.551 230.121,165.218 213.5,163C 211.75,161.246 211.083,159.079 211.5,156.5C 230.155,157.777 248.821,158.944 267.5,160C 276.992,161.416 286.325,162.916 295.5,164.5 Z"/></g>
<g><path style="opacity:1" fill="#7e7f7e" d="M 314.5,157.5 C 316.028,157.517 316.528,158.184 316,159.5C 312.189,160.966 311.689,160.3 314.5,157.5 Z"/></g>
<g><path style="opacity:1" fill="#fec90d" d="M 333.5,158.5 C 334.376,158.369 335.043,158.702 335.5,159.5C 334.011,164.646 333.344,164.313 333.5,158.5 Z"/></g>
<g><path style="opacity:1" fill="#000000" d="M 356.5,159.5 C 356.833,159.5 357.167,159.5 357.5,159.5C 357.443,161.884 357.777,164.218 358.5,166.5C 357.822,168.516 357.156,170.516 356.5,172.5C 354.608,173.702 352.774,175.035 351,176.5C 350.833,176.167 350.667,175.833 350.5,175.5C 356.448,171.61 358.448,166.277 356.5,159.5 Z"/></g>
<g><path style="opacity:1" fill="#c8b87d" d="M 357.5,159.5 C 358.609,161.586 359.276,163.92 359.5,166.5C 359.533,169.102 358.533,171.102 356.5,172.5C 357.156,170.516 357.822,168.516 358.5,166.5C 357.777,164.218 357.443,161.884 357.5,159.5 Z"/></g>
<g><path style="opacity:1" fill="#c8b87d" d="M 350.5,167.5 C 350.719,166.325 350.386,165.325 349.5,164.5C 350.016,165.758 349.35,166.758 347.5,167.5C 346.231,165.305 346.231,163.139 347.5,161C 348.784,160.316 349.951,160.483 351,161.5C 351.789,163.712 351.622,165.712 350.5,167.5 Z"/></g>
<g><path style="opacity:1" fill="#f9a884" d="M 258.5,164.5 C 258.281,163.325 258.614,162.325 259.5,161.5C 267.569,164.072 275.236,167.406 282.5,171.5C 277.417,175.384 271.751,176.884 265.5,176C 264.376,175.751 263.376,175.251 262.5,174.5C 268.496,168.498 267.162,165.165 258.5,164.5 Z"/></g>
<g><path style="opacity:1" fill="#fef200" d="M 336.5,161.5 C 337.833,161.5 339.167,161.5 340.5,161.5C 340.5,163.5 340.5,165.5 340.5,167.5C 338.801,167.66 337.134,167.494 335.5,167C 336.406,165.301 336.739,163.467 336.5,161.5 Z"/></g>
<g><path style="opacity:1" fill="#f9a884" d="M 327.5,162.5 C 328.833,162.5 330.167,162.5 331.5,162.5C 331.297,164.39 331.963,165.89 333.5,167C 331.273,168.835 329.44,168.335 328,165.5C 327.517,164.552 327.351,163.552 327.5,162.5 Z"/></g>
<g><path style="opacity:1" fill="#fefffe" d="M 194.5,164.5 C 194.735,163.903 195.235,163.57 196,163.5C 218.473,165.764 240.973,167.931 263.5,170C 262.646,171.022 261.646,171.855 260.5,172.5C 244.279,170.955 227.946,168.955 211.5,166.5C 205.701,167.234 200.034,166.567 194.5,164.5 Z"/></g>
<g><path style="opacity:1" fill="#fec90d" d="M 312.5,163.5 C 312.426,165.411 311.426,166.578 309.5,167C 305.5,167.667 301.5,167.667 297.5,167C 296.244,166.583 295.577,165.75 295.5,164.5C 298.319,164.869 301.152,165.202 304,165.5C 307.073,165.519 309.907,164.853 312.5,163.5 Z"/></g>
<g><path style="opacity:1" fill="#fefffe" d="M 333.5,170.5 C 338.566,168.169 341.399,169.835 342,175.5C 343.938,178.106 346.438,179.939 349.5,181C 348.584,181.374 347.75,181.874 347,182.5C 342.926,177.921 338.426,173.921 333.5,170.5 Z"/></g>
<g><path style="opacity:1" fill="#fef200" d="M 329.5,171.5 C 324.914,172.583 320.581,174.25 316.5,176.5C 317.359,173.548 319.359,171.715 322.5,171C 325.039,170.204 327.372,170.371 329.5,171.5 Z"/></g>
<g><path style="opacity:1" fill="#fefffe" d="M 285.5,172.5 C 291.648,171.288 297.648,172.122 303.5,175C 297.323,175.359 291.323,174.526 285.5,172.5 Z"/></g>
<g><path style="opacity:1" fill="#239742" d="M 329.5,171.5 C 333.202,173.024 336.536,175.19 339.5,178C 337,179.167 334.5,180.333 332,181.5C 331.667,180.167 331.333,178.833 331,177.5C 330.784,179.384 330.117,181.051 329,182.5C 328.667,181.833 328.333,181.167 328,180.5C 327.16,183.464 326.16,183.797 325,181.5C 324.632,182.91 323.799,183.91 322.5,184.5C 321.348,175.236 320.515,175.236 320,184.5C 317.284,185.597 315.45,184.597 314.5,181.5C 314.902,179.7 315.569,178.033 316.5,176.5C 320.581,174.25 324.914,172.583 329.5,171.5 Z"/></g>
<g><path style="opacity:1" fill="#fefffe" d="M 291.5,178.5 C 288.849,177.51 286.183,176.51 283.5,175.5C 281.865,176.046 280.199,176.38 278.5,176.5C 281.909,174.04 285.575,173.874 289.5,176C 290.756,176.417 291.423,177.25 291.5,178.5 Z"/></g>
<g><path style="opacity:1" fill="#ec1c23" d="M 291.5,178.5 C 291.81,181.713 291.477,184.713 290.5,187.5C 286.127,183.65 281.794,183.65 277.5,187.5C 276.5,187.5 275.5,187.5 274.5,187.5C 273.737,184.859 273.57,182.192 274,179.5C 275.652,178.601 277.152,177.601 278.5,176.5C 280.199,176.38 281.865,176.046 283.5,175.5C 286.183,176.51 288.849,177.51 291.5,178.5 Z"/></g>
<g><path style="opacity:1" fill="#fec90d" d="M 309.5,178.5 C 310.398,179.158 311.398,179.824 312.5,180.5C 311.635,181.583 310.635,181.749 309.5,181C 308.167,179.333 306.833,177.667 305.5,176C 306.167,175.333 306.833,175.333 307.5,176C 308.066,176.995 308.733,177.828 309.5,178.5 Z"/></g>
<g><path style="opacity:1" fill="#870014" d="M 370.5,175.5 C 374.967,175.133 379.3,175.633 383.5,177C 382.483,178.049 382.316,179.216 383,180.5C 384.441,181.87 386.108,182.87 388,183.5C 389.219,187.809 389.886,192.143 390,196.5C 386.7,198.794 383.2,199.127 379.5,197.5C 379.067,194.834 378.567,192.168 378,189.5C 376,188.167 374,188.167 372,189.5C 371.57,192.192 371.737,194.859 372.5,197.5C 370.692,197.509 369.025,197.009 367.5,196C 365.323,191.979 362.656,188.312 359.5,185C 356.424,184.654 353.424,183.988 350.5,183C 356.758,179.022 363.425,176.522 370.5,175.5 Z"/></g>
<g><path style="opacity:1" fill="#870014" d="M 394.5,175.5 C 397.643,176.738 400.81,176.738 404,175.5C 406.389,175.482 408.556,176.149 410.5,177.5C 412.205,183.25 414.205,188.916 416.5,194.5C 415.15,195.95 413.484,196.617 411.5,196.5C 412.526,190.019 410.026,187.686 404,189.5C 403.289,191.899 403.456,194.232 404.5,196.5C 402.257,197.474 399.924,197.808 397.5,197.5C 397.191,192.491 396.191,187.658 394.5,183C 395.574,182.261 396.241,181.261 396.5,180C 395.586,178.594 394.92,177.094 394.5,175.5 Z"/></g>
<g><path style="opacity:1" fill="#f9a884" d="M 309.5,178.5 C 309.369,177.624 309.702,176.957 310.5,176.5C 314.355,178.007 314.021,178.674 309.5,178.5 Z"/></g>
<g><path style="opacity:1" fill="#fefffe" d="M 384.5,179.5 C 385.793,178.842 387.293,178.508 389,178.5C 391.051,178.423 392.884,178.923 394.5,180C 391.076,180.747 387.743,180.58 384.5,179.5 Z"/></g>
<g><path style="opacity:1" fill="#fefffe" d="M 296.5,180.5 C 298.199,180.34 299.866,180.506 301.5,181C 302.833,183.667 304.833,185.667 307.5,187C 304.354,189.312 301.354,191.812 298.5,194.5C 297.015,189.954 296.348,185.287 296.5,180.5 Z M 298.5,182.5 C 298.523,184.927 299.023,187.26 300,189.5C 302.737,186.855 302.237,184.521 298.5,182.5 Z"/></g>
<g><path style="opacity:1" fill="#fefffe" d="M 390.5,182.5 C 391.75,182.577 392.583,183.244 393,184.5C 393.984,189.407 395.151,194.24 396.5,199C 403.099,199.389 409.599,198.889 416,197.5C 416.5,198 417,198.5 417.5,199C 410.331,200.072 403.164,200.906 396,201.5C 395.435,209.509 394.769,217.509 394,225.5C 393.39,230.415 391.056,234.081 387,236.5C 386.167,236.333 385.333,236.167 384.5,236C 386.894,234.048 388.394,231.548 389,228.5C 390.573,218.678 392.073,208.844 393.5,199C 392.121,193.559 391.121,188.059 390.5,182.5 Z"/></g>
<g><path style="opacity:1" fill="#3d44c0" d="M 343.5,211.5 C 341.712,211.215 340.045,211.548 338.5,212.5C 339.855,214.521 341.521,216.188 343.5,217.5C 343.249,221.768 343.749,225.768 345,229.5C 337.755,226.404 331.922,221.737 327.5,215.5C 331.966,217.566 336.299,219.9 340.5,222.5C 341.521,221.998 341.688,221.332 341,220.5C 336.669,217.336 332.836,213.669 329.5,209.5C 328.099,210.521 326.765,211.521 325.5,212.5C 323.801,212.34 322.134,212.506 320.5,213C 309.803,219.273 298.969,224.44 288,228.5C 283.191,226.004 280.191,222.004 279,216.5C 277.906,208.323 276.74,200.157 275.5,192C 275.759,190.213 276.425,188.713 277.5,187.5C 281.794,183.65 286.127,183.65 290.5,187.5C 291.66,191.292 292.66,195.126 293.5,199C 290.397,200.439 287.564,202.273 285,204.5C 284.333,206.5 284.333,208.5 285,210.5C 285.561,207.71 286.894,205.377 289,203.5C 289.667,218.167 290.333,218.167 291,203.5C 291.667,202.833 292.333,202.167 293,201.5C 293.823,208.134 294.323,208.134 294.5,201.5C 299.697,201.402 304.03,199.402 307.5,195.5C 310.368,197.601 313.368,199.101 316.5,200C 313.98,198.237 311.647,196.237 309.5,194C 310.354,192.978 311.354,192.145 312.5,191.5C 329.133,202.068 329.466,201.568 313.5,190C 320.202,187.23 327.202,184.896 334.5,183C 336.833,181.833 339.167,180.667 341.5,179.5C 343.167,181.5 344.833,183.5 346.5,185.5C 344.579,194.043 343.579,202.71 343.5,211.5 Z"/></g>
<g><path style="opacity:1" fill="#fefffe" d="M 348.5,186.5 C 348.917,185.876 349.584,185.543 350.5,185.5C 355.732,185.238 359.732,187.238 362.5,191.5C 362.333,191.833 362.167,192.167 362,192.5C 358.475,188.378 353.975,186.378 348.5,186.5 Z"/></g>
<g><path style="opacity:1" fill="#fefffe" d="M 347.5,188.5 C 348.156,189.622 348.489,190.955 348.5,192.5C 347.334,203.149 346.834,213.816 347,224.5C 349.87,233.127 354.203,233.793 360,226.5C 360.822,224.212 361.489,221.878 362,219.5C 362.333,211.833 362.667,204.167 363,196.5C 363.333,196.833 363.667,197.167 364,197.5C 364.303,207.224 363.637,216.89 362,226.5C 359.999,230.346 356.832,232.679 352.5,233.5C 348.693,232.191 346.526,229.524 346,225.5C 345.242,213.108 345.742,200.775 347.5,188.5 Z"/></g>
<g><path style="opacity:1" fill="#870014" d="M 350.5,189.5 C 354.426,189.047 357.592,190.38 360,193.5C 360.667,201.833 360.667,210.167 360,218.5C 359.949,224.199 357.283,227.866 352,229.5C 351.055,229.095 350.388,228.428 350,227.5C 349.107,224.567 348.607,221.567 348.5,218.5C 349.291,208.838 349.958,199.171 350.5,189.5 Z"/></g>
<g><path style="opacity:1" fill="#fefffe" d="M 373.5,190.5 C 374.5,190.5 375.5,190.5 376.5,190.5C 376.751,194.249 377.417,197.915 378.5,201.5C 377.5,201.5 376.5,201.5 375.5,201.5C 374.992,197.803 374.326,194.136 373.5,190.5 Z"/></g>
<g><path style="opacity:1" fill="#fefffe" d="M 405.5,190.5 C 406.822,190.33 407.989,190.663 409,191.5C 409.495,193.473 409.662,195.473 409.5,197.5C 408.5,197.5 407.5,197.5 406.5,197.5C 406.007,195.194 405.674,192.861 405.5,190.5 Z"/></g>
<g><path style="opacity:1" fill="#000000" d="M 287.5,194.5 C 288.885,195.302 288.718,195.969 287,196.5C 284.95,197.791 282.783,198.291 280.5,198C 282.925,196.787 285.259,195.621 287.5,194.5 Z"/></g>
<g><path style="opacity:1" fill="#fefffe" d="M 366.5,199.5 C 366.56,198.957 366.893,198.624 367.5,198.5C 369.444,199.189 371.444,199.689 373.5,200C 371.071,200.703 368.738,200.537 366.5,199.5 Z"/></g>
<g><path style="opacity:1" fill="#fefffe" d="M 387.5,200.5 C 388.531,199.751 389.698,199.085 391,198.5C 391.167,198.833 391.333,199.167 391.5,199.5C 390.311,200.429 388.978,200.762 387.5,200.5 Z"/></g>
<g><path style="opacity:1" fill="#fefffe" d="M 387.5,200.5 C 385.153,201.895 382.819,201.728 380.5,200C 382.751,200.207 385.085,200.373 387.5,200.5 Z"/></g>
<g><path style="opacity:1" fill="#870014" d="M 415.5,201.5 C 416.821,204.598 417.488,208.098 417.5,212C 418.036,218.841 416.869,225.341 414,231.5C 413.275,232.059 412.442,232.392 411.5,232.5C 408.662,230.898 405.662,230.398 402.5,231C 399.462,232.849 396.462,234.682 393.5,236.5C 392.833,236.333 392.167,236.167 391.5,236C 393.761,233.228 395.261,230.062 396,226.5C 396.934,218.524 397.434,210.524 397.5,202.5C 400.652,202.047 403.152,203.047 405,205.5C 405.139,210.948 404.806,216.281 404,221.5C 409.807,223.876 412.974,221.876 413.5,215.5C 411.849,210.389 412.516,205.722 415.5,201.5 Z"/></g>
<g><path style="opacity:1" fill="#870014" d="M 366.5,202.5 C 368.857,202.337 371.19,202.503 373.5,203C 372.978,203.561 372.645,204.228 372.5,205C 375.106,208.184 375.106,211.351 372.5,214.5C 372.977,215.478 373.643,216.311 374.5,217C 372.906,222.256 374.739,223.756 380,221.5C 380.212,218.748 381.045,216.248 382.5,214C 380.174,210.737 379.841,207.237 381.5,203.5C 384.249,203.726 386.916,203.393 389.5,202.5C 389.8,211.91 388.634,221.243 386,230.5C 384.818,233.523 382.651,235.189 379.5,235.5C 376.082,234.264 372.748,232.764 369.5,231C 366.8,230.747 364.133,230.747 361.5,231C 363.774,228.656 364.941,225.822 365,222.5C 365.526,215.829 366.026,209.163 366.5,202.5 Z"/></g>
<g><path style="opacity:1" fill="#fefffe" d="M 375.5,202.5 C 376.833,202.5 378.167,202.5 379.5,202.5C 379.156,205.562 378.489,208.562 377.5,211.5C 376.928,209.083 375.928,206.916 374.5,205C 375.252,204.329 375.586,203.496 375.5,202.5 Z"/></g>
<g><path style="opacity:1" fill="#fefffe" d="M 405.5,203.5 C 407.265,202.539 409.265,202.205 411.5,202.5C 410.793,205.786 410.46,209.119 410.5,212.5C 409.5,212.5 408.5,212.5 407.5,212.5C 407.664,209.813 407.497,207.146 407,204.5C 406.617,203.944 406.117,203.611 405.5,203.5 Z"/></g>
<g><path style="opacity:1" fill="#191a4e" d="M 334.5,201.5 C 336.355,204.642 339.022,207.142 342.5,209C 339.153,208.783 335.82,208.116 332.5,207C 334.155,205.556 334.822,203.722 334.5,201.5 Z"/></g>
<g><path style="opacity:1" fill="#1a1e5d" d="M 327.5,215.5 C 326.449,214.778 325.782,213.778 325.5,212.5C 326.765,211.521 328.099,210.521 329.5,209.5C 332.836,213.669 336.669,217.336 341,220.5C 341.688,221.332 341.521,221.998 340.5,222.5C 336.299,219.9 331.966,217.566 327.5,215.5 Z"/></g>
<g><path style="opacity:1" fill="#1b1f65" d="M 343.5,211.5 C 343.5,213.5 343.5,215.5 343.5,217.5C 341.521,216.188 339.855,214.521 338.5,212.5C 340.045,211.548 341.712,211.215 343.5,211.5 Z"/></g>
<g><path style="opacity:1" fill="#fefffe" d="M 378.5,215.5 C 377.737,214.732 376.737,214.232 375.5,214C 377.167,212 378.833,212 380.5,214C 379.956,214.717 379.289,215.217 378.5,215.5 Z"/></g>
<g><path style="opacity:1" fill="#fefffe" d="M 407.5,213.5 C 409.346,213.222 410.68,213.889 411.5,215.5C 409.579,216.641 407.579,216.808 405.5,216C 406.381,215.292 407.047,214.458 407.5,213.5 Z"/></g>
<g><path style="opacity:1" fill="#fefffe" d="M 378.5,215.5 C 378.5,217.167 378.5,218.833 378.5,220.5C 377.325,220.719 376.325,220.386 375.5,219.5C 375.815,217.517 376.815,216.184 378.5,215.5 Z"/></g>
<g><path style="opacity:1" fill="#fefffe" d="M 405.5,217.5 C 407.288,217.215 408.955,217.548 410.5,218.5C 409.332,220.217 407.665,220.884 405.5,220.5C 405.5,219.5 405.5,218.5 405.5,217.5 Z"/></g>
<g><path style="opacity:1" fill="#fefffe" d="M 326.5,218.5 C 334.255,226.871 343.589,232.371 354.5,235C 356.081,234.293 357.581,233.46 359,232.5C 363.197,232.718 367.364,233.218 371.5,234C 370.284,235.74 368.618,236.74 366.5,237C 359.751,237.877 353.084,237.544 346.5,236C 340.663,232.582 334.996,228.916 329.5,225C 328.086,223.007 327.086,220.84 326.5,218.5 Z"/></g>
<g><path style="opacity:1" fill="#3d45c4" d="M 329.5,227.5 C 336.665,233.979 344.998,238.313 354.5,240.5C 352.794,247.08 350.127,253.246 346.5,259C 345.391,259.638 344.225,260.138 343,260.5C 335.629,250.458 331.129,239.458 329.5,227.5 Z"/></g>
<g><path style="opacity:1" fill="#fefffe" d="M 403.5,232.5 C 409.208,233.215 409.874,235.381 405.5,239C 397.104,239.31 396.437,237.143 403.5,232.5 Z"/></g>
<g><path style="opacity:1" fill="#fefffe" d="M 373.5,237.5 C 376.584,237.271 379.918,237.271 383.5,237.5C 384.235,242.874 386.235,247.707 389.5,252C 387.112,252.303 384.945,253.137 383,254.5C 380.327,248.48 377.16,242.813 373.5,237.5 Z"/></g>
<g><path style="opacity:1" fill="#4a4cc5" d="M 370.5,237.5 C 375.559,241.976 377.559,247.643 376.5,254.5C 375.932,266.776 373.765,278.776 370,290.5C 369.069,288.541 368.236,286.541 367.5,284.5C 362.507,281.507 358.507,277.507 355.5,272.5C 360.61,265.952 363.777,258.619 365,250.5C 366.938,246.178 368.771,241.845 370.5,237.5 Z"/></g>
<g><path style="opacity:1" fill="#1b1f65" d="M 385.5,239.5 C 387.265,238.539 389.265,238.205 391.5,238.5C 391.436,242.22 390.936,245.886 390,249.5C 388.38,246.107 386.88,242.774 385.5,239.5 Z"/></g>
<g><path style="opacity:1" fill="#fefffe" d="M 393.5,238.5 C 394.5,238.5 395.5,238.5 396.5,238.5C 396.792,244.896 397.292,251.229 398,257.5C 394.927,256.761 392.76,254.928 391.5,252C 392.861,247.638 393.528,243.138 393.5,238.5 Z"/></g>
<g><path style="opacity:1" fill="#fefffe" d="M 356.5,239.5 C 359.833,239.5 363.167,239.5 366.5,239.5C 363.888,249.837 360.388,259.837 356,269.5C 353.5,266.5 351,263.5 348.5,260.5C 352.581,254.01 355.248,247.01 356.5,239.5 Z"/></g>
<g><path style="opacity:1" fill="#fefffe" d="M 335.5,267.5 C 333.678,260.977 332.844,254.311 333,247.5C 334.847,252.694 337.347,257.528 340.5,262C 339.167,264.191 337.5,266.024 335.5,267.5 Z"/></g>
<g><path style="opacity:1" fill="#fec90d" d="M 368.5,248.5 C 372.095,249.905 372.262,251.572 369,253.5C 368.167,252.667 367.333,251.833 366.5,251C 367.381,250.292 368.047,249.458 368.5,248.5 Z"/></g>
<g><path style="opacity:1" fill="#3f47cc" d="M 378.5,250.5 C 379.793,251.842 380.626,253.509 381,255.5C 381.489,265.519 381.156,275.519 380,285.5C 377.354,273.939 376.854,262.272 378.5,250.5 Z"/></g>
<g><path style="opacity:1" fill="#3d44c0" d="M 316.5,256.5 C 314.41,259.939 312.743,263.606 311.5,267.5C 312.012,269.884 312.679,272.217 313.5,274.5C 312.675,275.386 311.675,275.719 310.5,275.5C 307.603,274.871 304.936,273.871 302.5,272.5C 301.531,271.691 300.698,270.691 300,269.5C 299.329,270.252 298.496,270.586 297.5,270.5C 295.214,270.405 293.214,269.738 291.5,268.5C 289.095,267.232 286.428,266.565 283.5,266.5C 281.998,264.825 280.665,262.992 279.5,261C 291.517,257.146 303.851,255.646 316.5,256.5 Z"/></g>
<g><path style="opacity:1" fill="#3d44c0" d="M 322.5,257.5 C 325.287,256.523 328.287,256.19 331.5,256.5C 331.662,258.527 331.495,260.527 331,262.5C 328.358,260.432 325.525,258.765 322.5,257.5 Z"/></g>
<g><path style="opacity:1" fill="#fec90d" d="M 318.5,257.5 C 321.943,259.104 325.277,260.938 328.5,263C 327.975,263.692 327.308,264.192 326.5,264.5C 324.833,263.333 323.167,262.167 321.5,261C 320.216,260.316 319.049,260.483 318,261.5C 315.865,265.799 316.032,269.966 318.5,274C 318,274.5 317.5,275 317,275.5C 315.234,273.119 314.068,270.452 313.5,267.5C 315.162,264.17 316.828,260.836 318.5,257.5 Z"/></g>
<g><path style="opacity:1" fill="#d7d7d7" d="M 338.5,282.5 C 338.783,283.289 339.283,283.956 340,284.5C 343.379,280.613 342.546,277.613 337.5,275.5C 336.145,276.188 335.145,277.188 334.5,278.5C 333.957,278.44 333.624,278.107 333.5,277.5C 336.247,273.298 338.747,268.965 341,264.5C 342.667,263.5 344.333,262.5 346,261.5C 348.977,264.131 351.477,267.131 353.5,270.5C 347.184,274.987 343.017,280.987 341,288.5C 339.542,286.04 337.709,283.873 335.5,282C 336.577,281.53 337.577,281.697 338.5,282.5 Z"/></g>
<g><path style="opacity:1" fill="#3d44c0" d="M 319.5,262.5 C 321.358,263.595 323.025,264.929 324.5,266.5C 323.243,268.679 321.743,270.679 320,272.5C 318.356,269.253 318.189,265.92 319.5,262.5 Z"/></g>
<g><path style="opacity:1" fill="#22b14b" d="M 329.5,264.5 C 330.675,264.281 331.675,264.614 332.5,265.5C 329.392,270.112 325.725,274.278 321.5,278C 320.167,278.667 318.833,278.667 317.5,278C 322.079,273.926 326.079,269.426 329.5,264.5 Z"/></g>
<g><path style="opacity:1" fill="#000000" d="M 283.5,266.5 C 286.428,266.565 289.095,267.232 291.5,268.5C 287.812,268.219 284.145,267.719 280.5,267C 281.448,266.517 282.448,266.351 283.5,266.5 Z"/></g>
<g><path style="opacity:1" fill="#3d44c0" d="M 316.5,256.5 C 303.851,255.646 291.517,257.146 279.5,261C 280.665,262.992 281.998,264.825 283.5,266.5C 282.448,266.351 281.448,266.517 280.5,267C 284.145,267.719 287.812,268.219 291.5,268.5C 293.214,269.738 295.214,270.405 297.5,270.5C 298.78,271.931 300.447,272.598 302.5,272.5C 304.936,273.871 307.603,274.871 310.5,275.5C 312.97,276.249 314.97,277.749 316.5,280C 319.466,280.895 322.133,280.395 324.5,278.5C 326.397,279.368 327.73,280.701 328.5,282.5C 328.328,283.492 328.662,284.158 329.5,284.5C 329.232,286.099 329.566,287.432 330.5,288.5C 330.232,290.099 330.566,291.432 331.5,292.5C 331.5,293.5 331.5,294.5 331.5,295.5C 330.778,295.918 330.278,296.584 330,297.5C 326.465,295.908 322.965,294.241 319.5,292.5C 319.5,291.833 319.167,291.5 318.5,291.5C 318.027,290.094 317.027,289.427 315.5,289.5C 314.738,287.738 313.404,286.738 311.5,286.5C 308.026,283.198 304.359,280.032 300.5,277C 295.928,276.113 291.595,276.78 287.5,279C 286.251,281.21 286.418,283.376 288,285.5C 289.992,286.665 291.825,287.998 293.5,289.5C 291.446,303.089 290.113,316.756 289.5,330.5C 285.167,331.833 280.833,331.833 276.5,330.5C 276.646,325.312 275.312,320.645 272.5,316.5C 271.692,314.577 271.192,312.577 271,310.5C 270.323,317.048 268.49,323.215 265.5,329C 264.552,329.483 263.552,329.649 262.5,329.5C 266.349,304.408 270.849,279.408 276,254.5C 278.411,253.861 280.911,253.527 283.5,253.5C 295.288,253.809 306.288,254.809 316.5,256.5 Z"/></g>
<g><path style="opacity:1" fill="#ec1c23" d="M 333.5,269.5 C 331.367,271.091 329.701,273.091 328.5,275.5C 327.778,275.918 327.278,276.584 327,277.5C 327.903,273.724 329.903,270.39 333,267.5C 333.464,268.094 333.631,268.761 333.5,269.5 Z"/></g>
<g><path style="opacity:1" fill="#23883c" d="M 335.5,267.5 C 334.46,271.246 332.626,274.579 330,277.5C 328.97,277.164 328.47,276.497 328.5,275.5C 329.701,273.091 331.367,271.091 333.5,269.5C 334.167,268.833 334.833,268.167 335.5,267.5 Z"/></g>
<g><path style="opacity:1" fill="#fec90d" d="M 361.5,268.5 C 365.095,269.905 365.262,271.572 362,273.5C 361.167,272.667 360.333,271.833 359.5,271C 360.381,270.292 361.047,269.458 361.5,268.5 Z"/></g>
<g><path style="opacity:1" fill="#c2c3c2" d="M 401.5,268.5 C 402.249,269.531 402.915,270.698 403.5,272C 405.676,272.163 407.509,272.996 409,274.5C 409.333,273.5 409.667,272.5 410,271.5C 414.438,274.3 414.272,275.633 409.5,275.5C 410.263,279.138 408.93,280.638 405.5,280C 403.648,276.789 401.981,273.456 400.5,270C 401.056,269.617 401.389,269.117 401.5,268.5 Z"/></g>
<g><path style="opacity:1" fill="#000000" d="M 302.5,272.5 C 300.447,272.598 298.78,271.931 297.5,270.5C 298.496,270.586 299.329,270.252 300,269.5C 300.698,270.691 301.531,271.691 302.5,272.5 Z"/></g>
<g><path style="opacity:1" fill="#1d1e1d" d="M 352.5,273.5 C 365.837,288.316 378.837,303.482 391.5,319C 390.833,319.667 390.167,319.667 389.5,319C 375.904,305.948 362.404,292.781 349,279.5C 348.333,278.833 348.333,278.167 349,277.5C 350.376,276.295 351.542,274.962 352.5,273.5 Z"/></g>
<g><path style="opacity:1" fill="#000000" d="M 404.5,274.5 C 408.161,274.426 408.828,275.426 406.5,277.5C 405.081,276.995 404.415,275.995 404.5,274.5 Z"/></g>
<g><path style="opacity:1" fill="#3d44c0" d="M 375.5,275.5 C 378.402,283.486 379.569,291.82 379,300.5C 376.147,297.948 373.647,295.115 371.5,292C 373.379,286.649 374.713,281.149 375.5,275.5 Z"/></g>
<g><path style="opacity:1" fill="#3d44c0" d="M 311.5,286.5 C 312.262,288.262 313.596,289.262 315.5,289.5C 315.973,290.906 316.973,291.573 318.5,291.5C 319.167,291.5 319.5,291.833 319.5,292.5C 319.44,293.043 319.107,293.376 318.5,293.5C 311.11,290.436 303.943,287.103 297,283.5C 294.266,284.362 294.099,285.195 296.5,286C 295.837,287.518 294.837,288.685 293.5,289.5C 291.825,287.998 289.992,286.665 288,285.5C 286.418,283.376 286.251,281.21 287.5,279C 291.595,276.78 295.928,276.113 300.5,277C 304.359,280.032 308.026,283.198 311.5,286.5 Z"/></g>
<g><path style="opacity:1" fill="#8e8e8e" d="M 338.5,282.5 C 338.881,280.058 338.214,279.391 336.5,280.5C 335.478,280.145 334.811,279.478 334.5,278.5C 335.145,277.188 336.145,276.188 337.5,275.5C 342.546,277.613 343.379,280.613 340,284.5C 339.283,283.956 338.783,283.289 338.5,282.5 Z"/></g>
<g><path style="opacity:1" fill="#23a146" d="M 331.5,286.5 C 330.833,285.833 330.167,285.167 329.5,284.5C 328.662,284.158 328.328,283.492 328.5,282.5C 328.281,281.325 328.614,280.325 329.5,279.5C 333.531,281.223 334.198,283.556 331.5,286.5 Z"/></g>
<g><path style="opacity:1" fill="#1d1e1d" d="M 346.5,280.5 C 361.852,294.533 376.852,309.033 391.5,324C 397.378,328.1 403.044,332.433 408.5,337C 407.888,339.058 406.888,340.891 405.5,342.5C 398.028,337.528 390.695,332.361 383.5,327C 370.471,313.637 357.138,300.637 343.5,288C 344.991,285.692 345.991,283.192 346.5,280.5 Z"/></g>
<g><path style="opacity:1" fill="#000000" d="M 329.5,284.5 C 330.167,285.167 330.833,285.833 331.5,286.5C 331.167,287.167 330.833,287.833 330.5,288.5C 329.566,287.432 329.232,286.099 329.5,284.5 Z"/></g>
<g><path style="opacity:1" fill="#fefffe" d="M 386.5,284.5 C 388.544,285.031 390.211,286.198 391.5,288C 390.427,290.657 388.76,292.823 386.5,294.5C 382.604,291.258 382.604,287.925 386.5,284.5 Z"/></g>
<g><path style="opacity:1" fill="#3d44c0" d="M 338.5,298.5 C 337.559,296.95 336.893,295.284 336.5,293.5C 336.768,291.901 336.434,290.568 335.5,289.5C 335.343,288.127 335.51,286.793 336,285.5C 337.529,286.729 338.696,288.229 339.5,290C 344.806,292.287 349.306,295.787 353,300.5C 353.781,301.944 353.614,303.277 352.5,304.5C 348.596,303.024 344.596,301.857 340.5,301C 339.244,300.583 338.577,299.75 338.5,298.5 Z"/></g>
<g><path style="opacity:1" fill="#000000" d="M 311.5,286.5 C 313.404,286.738 314.738,287.738 315.5,289.5C 313.596,289.262 312.262,288.262 311.5,286.5 Z"/></g>
<g><path style="opacity:1" fill="#239742" d="M 331.5,286.5 C 332.5,286.5 333.5,286.5 334.5,286.5C 334.5,287.5 334.5,288.5 334.5,289.5C 334.158,290.338 333.492,290.672 332.5,290.5C 331.833,289.833 331.167,289.167 330.5,288.5C 330.833,287.833 331.167,287.167 331.5,286.5 Z"/></g>
<g><path style="opacity:1" fill="#27255c" d="M 386.5,286.5 C 387.995,286.415 388.995,287.081 389.5,288.5C 388.974,290.23 387.974,291.564 386.5,292.5C 384.001,290.604 384.001,288.604 386.5,286.5 Z"/></g>
<g><path style="opacity:1" fill="#000000" d="M 330.5,288.5 C 331.167,289.167 331.833,289.833 332.5,290.5C 332.167,291.167 331.833,291.833 331.5,292.5C 330.566,291.432 330.232,290.099 330.5,288.5 Z"/></g>
<g><path style="opacity:1" fill="#000000" d="M 315.5,289.5 C 317.027,289.427 318.027,290.094 318.5,291.5C 316.973,291.573 315.973,290.906 315.5,289.5 Z"/></g>
<g><path style="opacity:1" fill="#22b14b" d="M 334.5,289.5 C 334.833,289.5 335.167,289.5 335.5,289.5C 335.473,291.199 334.806,292.533 333.5,293.5C 332.833,293.167 332.167,292.833 331.5,292.5C 331.833,291.833 332.167,291.167 332.5,290.5C 333.492,290.672 334.158,290.338 334.5,289.5 Z"/></g>
<g><path style="opacity:1" fill="#000000" d="M 335.5,289.5 C 336.434,290.568 336.768,291.901 336.5,293.5C 335.5,293.5 334.5,293.5 333.5,293.5C 334.806,292.533 335.473,291.199 335.5,289.5 Z"/></g>
<g><path style="opacity:1" fill="#3c43bc" d="M 395.5,294.5 C 395.167,295.5 394.5,296.167 393.5,296.5C 388.47,297.586 387.637,296.253 391,292.5C 393.471,290.142 394.971,290.808 395.5,294.5 Z"/></g>
<g><path style="opacity:1" fill="#000000" d="M 331.5,292.5 C 332.167,292.833 332.833,293.167 333.5,293.5C 333.167,294.5 332.5,295.167 331.5,295.5C 331.5,294.5 331.5,293.5 331.5,292.5 Z"/></g>
<g><path style="opacity:1" fill="#fefffe" d="M 398.5,295.5 C 397.5,295.833 396.833,296.5 396.5,297.5C 394.804,299.129 393.804,298.796 393.5,296.5C 394.5,296.167 395.167,295.5 395.5,294.5C 397.306,291.662 398.306,291.995 398.5,295.5 Z"/></g>
<g><path style="opacity:1" fill="#239e45" d="M 333.5,293.5 C 334.5,293.5 335.5,293.5 336.5,293.5C 336.893,295.284 337.559,296.95 338.5,298.5C 337.778,298.918 337.278,299.584 337,300.5C 336.667,299.167 336.333,297.833 336,296.5C 335.751,297.624 335.251,298.624 334.5,299.5C 332.45,298.923 331.45,297.59 331.5,295.5C 332.5,295.167 333.167,294.5 333.5,293.5 Z"/></g>
<g><path style="opacity:1" fill="#3b42b8" d="M 407.5,297.5 C 407.573,299.027 406.906,300.027 405.5,300.5C 403.143,300.663 400.81,300.497 398.5,300C 397.244,299.583 396.577,298.75 396.5,297.5C 396.833,296.5 397.5,295.833 398.5,295.5C 399.151,294.909 399.818,294.243 400.5,293.5C 403.349,294.1 405.682,295.433 407.5,297.5 Z"/></g>
<g><path style="opacity:1" fill="#3f47cc" d="M 386.5,297.5 C 387.202,300.44 388.202,303.273 389.5,306C 390.167,306.667 390.833,306.667 391.5,306C 392.386,304.385 393.386,302.885 394.5,301.5C 395.5,301.5 396.5,301.5 397.5,301.5C 397.575,304.206 397.908,306.873 398.5,309.5C 394.103,309.575 389.77,309.075 385.5,308C 381.633,304.34 380.466,299.84 382,294.5C 383.652,295.399 385.152,296.399 386.5,297.5 Z"/></g>
<g><path style="opacity:1" fill="#fefffe" d="M 410.5,300.5 C 409.833,300.5 409.5,300.833 409.5,301.5C 407.737,302.954 406.403,302.62 405.5,300.5C 406.906,300.027 407.573,299.027 407.5,297.5C 409.854,296.506 410.854,297.506 410.5,300.5 Z"/></g>
<g><path style="opacity:1" fill="#fefffe" d="M 386.5,297.5 C 387.5,297.833 388.167,298.5 388.5,299.5C 389.327,305.632 390.993,305.966 393.5,300.5C 394.167,300.5 394.5,300.833 394.5,301.5C 393.386,302.885 392.386,304.385 391.5,306C 390.833,306.667 390.167,306.667 389.5,306C 388.202,303.273 387.202,300.44 386.5,297.5 Z"/></g>
<g><path style="opacity:1" fill="#3b41b5" d="M 409.5,301.5 C 409.5,300.833 409.833,300.5 410.5,300.5C 411.268,299.737 411.768,298.737 412,297.5C 413.615,298.656 413.615,299.989 412,301.5C 411.023,302.774 410.189,302.774 409.5,301.5 Z"/></g>
<g><path style="opacity:1" fill="#3f47cc" d="M 388.5,299.5 C 390.415,299.216 392.081,299.549 393.5,300.5C 390.993,305.966 389.327,305.632 388.5,299.5 Z"/></g>
<g><path style="opacity:1" fill="#3d44c0" d="M 362.5,308.5 C 365.755,310.608 366.255,313.275 364,316.5C 363.178,313.883 362.678,311.216 362.5,308.5 Z"/></g>
<g><path style="opacity:1" fill="#1d1d1d" d="M 271.5,318.5 C 273.295,322.52 274.462,326.853 275,331.5C 276.356,332.38 277.856,332.714 279.5,332.5C 280.877,336.712 281.877,341.045 282.5,345.5C 282.291,346.994 281.624,348.161 280.5,349C 273.167,349.667 265.833,349.667 258.5,349C 255.929,345.017 252.595,341.85 248.5,339.5C 251.975,337.192 255.308,334.692 258.5,332C 261.478,331.515 264.478,330.849 267.5,330C 269.829,326.519 271.162,322.685 271.5,318.5 Z"/></g>
<g><path style="opacity:1" fill="#1c1c1c" d="M 365.5,324.5 C 369.311,323.355 373.311,323.188 377.5,324C 378.667,325.167 379.833,326.333 381,327.5C 381.705,336.493 380.372,345.16 377,353.5C 374.976,355.346 372.643,356.679 370,357.5C 368.108,357.223 366.775,356.223 366,354.5C 365.5,351 365,347.5 364.5,344C 366.429,337.416 366.762,330.916 365.5,324.5 Z"/></g>
<g><path style="opacity:1" fill="#3d44c0" d="M 383.5,329.5 C 386.871,331.524 389.871,334.024 392.5,337C 391.722,339.39 390.555,341.557 389,343.5C 386.372,345.126 384.039,347.126 382,349.5C 382.529,342.888 383.029,336.222 383.5,329.5 Z"/></g>
<g><path style="opacity:1" fill="#fec90d" d="M 267.5,331.5 C 269.337,331.639 269.67,332.306 268.5,333.5C 267.702,333.043 267.369,332.376 267.5,331.5 Z"/></g>
<g><path style="opacity:1" fill="#fec90d" d="M 409.5,337.5 C 412.982,339.748 416.316,342.248 419.5,345C 415.019,347.312 411.019,346.645 407.5,343C 408.32,341.2 408.986,339.366 409.5,337.5 Z"/></g>
</svg>
