<?xml version="1.0" encoding="UTF-8"?>
<!DOCTYPE svg PUBLIC "-//W3C//DTD SVG 1.1//EN" "http://www.w3.org/Graphics/SVG/1.1/DTD/svg11.dtd">
<svg xmlns="http://www.w3.org/2000/svg" version="1.1" width="508px" height="428px" style="shape-rendering:geometricPrecision; text-rendering:geometricPrecision; image-rendering:optimizeQuality; fill-rule:evenodd; clip-rule:evenodd" xmlns:xlink="http://www.w3.org/1999/xlink">
<g><path style="opacity:1" fill="#fefffe" d="M 351.5,33.5 C 356.179,33.3342 360.845,33.5008 365.5,34C 367.667,35.5 369.833,37 372,38.5C 372.667,42.8333 372.667,47.1667 372,51.5C 371.07,53.5524 369.57,55.0524 367.5,56C 376.199,59.0961 384.032,63.5961 391,69.5C 391.667,73.5 391.667,77.5 391,81.5C 386.833,87.1667 382.667,92.8333 378.5,98.5C 379.574,99.0798 380.574,98.5798 381.5,97C 386.167,96.3333 390.833,96.3333 395.5,97C 396.416,97.3742 397.25,97.8742 398,98.5C 398.495,100.473 398.662,102.473 398.5,104.5C 405.04,103.686 410.873,105.353 416,109.5C 420.435,120.287 420.602,131.12 416.5,142C 423.491,157.906 425.324,174.406 422,191.5C 418.723,194.361 415.89,197.527 413.5,201C 409.943,202.408 406.276,203.408 402.5,204C 403.337,205.011 403.67,206.178 403.5,207.5C 411.153,207.588 418.487,209.088 425.5,212C 427.686,215.205 429.186,218.705 430,222.5C 431.992,233.094 432.658,243.761 432,254.5C 430.749,257.381 428.583,259.214 425.5,260C 422.5,260.333 419.5,260.667 416.5,261C 416,261.5 415.5,262 415,262.5C 414.333,266.5 414.333,270.5 415,274.5C 424.386,278.773 433.886,282.939 443.5,287C 444,287.5 444.5,288 445,288.5C 445.667,292.5 445.667,296.5 445,300.5C 443.933,301.191 442.766,301.691 441.5,302C 435.167,302.667 428.833,302.667 422.5,302C 421.234,301.691 420.067,301.191 419,300.5C 421.238,310.355 423.238,320.355 425,330.5C 425.112,347.543 425.945,364.543 427.5,381.5C 428.478,381.977 429.311,382.643 430,383.5C 433.393,394.431 429.56,401.264 418.5,404C 412.431,404.804 406.431,404.471 400.5,403C 399.299,402.097 398.465,400.931 398,399.5C 397.667,396.5 397.333,393.5 397,390.5C 395.807,388.395 394.14,386.728 392,385.5C 391.074,366.763 389.408,348.097 387,329.5C 381.982,312.111 375.982,295.111 369,278.5C 358.641,287.988 350.141,298.655 343.5,310.5C 345.236,324.65 344.402,338.65 341,352.5C 340.695,364.842 340.695,377.176 341,389.5C 339.933,390.191 338.766,390.691 337.5,391C 323.5,392.644 309.834,391.311 296.5,387C 287.821,383.346 284.988,376.846 288,367.5C 291.771,363.186 296.604,361.186 302.5,361.5C 304.473,358.754 305.973,355.754 307,352.5C 308.043,343.872 308.543,335.205 308.5,326.5C 307.966,313.497 307.8,300.497 308,287.5C 312.226,277.382 316.726,267.382 321.5,257.5C 319.226,255.287 317.726,252.621 317,249.5C 315.746,242.535 315.413,235.535 316,228.5C 317.789,226.771 319.956,226.104 322.5,226.5C 322.335,223.482 322.502,220.482 323,217.5C 324.998,213.671 326.498,209.671 327.5,205.5C 326.32,198.945 323.987,192.945 320.5,187.5C 313.324,191.588 305.991,195.422 298.5,199C 292.833,199.667 287.167,199.667 281.5,199C 277.822,194.811 275.322,189.977 274,184.5C 272.631,176.653 270.631,168.986 268,161.5C 267.501,156.511 267.334,151.511 267.5,146.5C 263.818,146.665 260.152,146.499 256.5,146C 255.833,145.333 255.167,144.667 254.5,144C 236.352,142.195 218.186,142.028 200,143.5C 197.167,143.333 194.333,143.167 191.5,143C 190.833,142.333 190.167,141.667 189.5,141C 176.833,140.333 164.167,140.333 151.5,141C 150.672,141.915 149.672,142.581 148.5,143C 143.511,143.61 138.511,144.11 133.5,144.5C 127.675,143.102 121.675,142.269 115.5,142C 114.034,141.365 112.7,140.531 111.5,139.5C 89.5722,141.624 67.5722,142.457 45.5,142C 42.3526,141.054 39.3526,139.887 36.5,138.5C 36.5,135.5 36.5,132.5 36.5,129.5C 58.0387,126.193 79.7054,123.693 101.5,122C 106.278,119.889 111.278,118.555 116.5,118C 124.169,117.541 131.836,117.041 139.5,116.5C 143.709,116.412 147.709,117.079 151.5,118.5C 198.843,116.733 246.177,115.4 293.5,114.5C 294.034,112.386 295.034,110.552 296.5,109C 303.167,108.333 309.833,108.333 316.5,109C 317.423,111.041 317.756,113.208 317.5,115.5C 319.5,115.5 321.5,115.5 323.5,115.5C 324.554,110.418 323.054,106.418 319,103.5C 318.333,99.5 318.333,95.5 319,91.5C 321.407,87.834 324.907,86.1673 329.5,86.5C 329.264,83.7743 330.097,81.441 332,79.5C 331.835,73.4572 333.168,67.7905 336,62.5C 336.333,59.1667 336.667,55.8333 337,52.5C 338.444,50.8446 340.278,50.178 342.5,50.5C 342.124,45.7036 344.291,42.7036 349,41.5C 349.097,38.5177 349.93,35.8511 351.5,33.5 Z M 299.5,146.5 C 302.079,147.228 304.746,147.728 307.5,148C 305.627,150.209 303.46,152.042 301,153.5C 299.648,151.406 299.148,149.073 299.5,146.5 Z"/></g>
<g><path style="opacity:1" fill="#010101" d="M 353.5,35.5 C 359.932,34.347 365.432,36.0137 370,40.5C 370.667,43.5 370.667,46.5 370,49.5C 369.333,51.5 368,52.8333 366,53.5C 365.202,55.2588 365.369,56.9255 366.5,58.5C 374.867,61.4304 382.367,65.7637 389,71.5C 389.817,74.9643 389.483,78.2976 388,81.5C 382.975,87.6911 378.142,94.0245 373.5,100.5C 376.027,101.214 378.527,101.88 381,102.5C 381.465,101.069 382.299,99.9025 383.5,99C 387.9,98.0223 392.067,98.5223 396,100.5C 396.495,102.473 396.662,104.473 396.5,106.5C 403.04,105.686 408.873,107.353 414,111.5C 418.827,121.503 418.661,131.337 413.5,141C 421.076,156.462 423.243,172.629 420,189.5C 416.723,192.361 413.89,195.527 411.5,199C 407.653,200.616 403.653,201.616 399.5,202C 400.554,204.382 401.221,206.882 401.5,209.5C 409.153,209.588 416.487,211.088 423.5,214C 425.686,217.205 427.186,220.705 428,224.5C 429.661,233.781 430.328,243.114 430,252.5C 428.749,255.381 426.583,257.214 423.5,258C 420.5,258.333 417.5,258.667 414.5,259C 414,259.5 413.5,260 413,260.5C 412.333,265.833 412.333,271.167 413,276.5C 422.386,280.773 431.886,284.939 441.5,289C 443.504,291.841 444.004,295.007 443,298.5C 433.732,301.593 424.732,300.927 416,296.5C 418.311,308.427 420.644,320.427 423,332.5C 423.112,349.543 423.945,366.543 425.5,383.5C 427.955,384.91 428.955,387.077 428.5,390C 427.278,396.556 423.278,400.556 416.5,402C 411.761,402.726 407.095,402.393 402.5,401C 401.299,400.097 400.465,398.931 400,397.5C 399.667,394.5 399.333,391.5 399,388.5C 397.807,386.395 396.14,384.728 394,383.5C 393.074,364.763 391.408,346.097 389,327.5C 383.649,309.111 377.316,291.111 370,273.5C 359.692,281.792 351.692,291.792 346,303.5C 344.915,304.293 343.748,304.96 342.5,305.5C 342.292,314.797 342.125,324.13 342,333.5C 337.779,351.52 336.779,369.52 339,387.5C 322.002,391.936 306.002,389.603 291,380.5C 287.712,368.935 292.212,363.268 304.5,363.5C 306.473,360.754 307.973,357.754 309,354.5C 310.055,345.205 310.555,335.871 310.5,326.5C 310.079,314.159 309.912,301.826 310,289.5C 314.765,278.138 319.931,266.971 325.5,256C 323,254.833 321.167,253 320,250.5C 318.718,245.418 317.885,240.251 317.5,235C 317.089,229.912 319.422,227.745 324.5,228.5C 324.335,225.482 324.502,222.482 325,219.5C 327.13,214.941 328.964,210.274 330.5,205.5C 328.496,198.321 325.996,191.321 323,184.5C 322.586,184.043 322.086,183.709 321.5,183.5C 313.486,188.509 305.152,193.009 296.5,197C 292.167,197.667 287.833,197.667 283.5,197C 279.822,192.811 277.322,187.977 276,182.5C 274.631,174.653 272.631,166.986 270,159.5C 269.501,154.511 269.334,149.511 269.5,144.5C 265.818,144.665 262.152,144.499 258.5,144C 257.833,143.333 257.167,142.667 256.5,142C 237.684,140.225 218.85,140.059 200,141.5C 196.706,141.881 193.873,141.048 191.5,139C 177.5,138.333 163.5,138.333 149.5,139C 148.672,139.915 147.672,140.581 146.5,141C 140.846,141.926 135.18,142.259 129.5,142C 128.646,140.978 127.646,140.145 126.5,139.5C 123.562,140.575 120.562,140.741 117.5,140C 115.791,138.455 113.791,137.622 111.5,137.5C 90.2082,139.465 68.8749,140.298 47.5,140C 44.3526,139.054 41.3526,137.887 38.5,136.5C 38.5,134.833 38.5,133.167 38.5,131.5C 60.0387,128.193 81.7054,125.693 103.5,124C 112.503,120.11 121.836,118.944 131.5,120.5C 133.913,119.051 136.58,118.384 139.5,118.5C 143.36,119.646 147.36,120.312 151.5,120.5C 199.516,118.766 247.516,117.433 295.5,116.5C 297.033,111.03 300.699,109.03 306.5,110.5C 309.167,110.667 311.833,110.833 314.5,111C 314.698,114.979 316.532,117.812 320,119.5C 321.916,118.072 324.083,117.072 326.5,116.5C 324.91,112.738 325.243,109.238 327.5,106C 321.045,104.183 318.879,100.016 321,93.5C 323.407,89.834 326.907,88.1673 331.5,88.5C 331.264,85.7743 332.097,83.441 334,81.5C 333.835,75.4572 335.168,69.7905 338,64.5C 338.333,61.1667 338.667,57.8333 339,54.5C 340.444,52.8446 342.278,52.178 344.5,52.5C 344.124,47.7036 346.291,44.7036 351,43.5C 351.097,40.5177 351.93,37.8511 353.5,35.5 Z M 299.5,146.5 C 299.148,149.073 299.648,151.406 301,153.5C 303.46,152.042 305.627,150.209 307.5,148C 304.746,147.728 302.079,147.228 299.5,146.5 Z"/></g>
<g><path style="opacity:1" fill="#22b14b" d="M 356.5,39.5 C 358.199,39.3398 359.866,39.5065 361.5,40C 363.208,42.0435 365.208,43.7101 367.5,45C 363.141,50.7846 359.307,50.2846 356,43.5C 355.421,42.0715 355.588,40.7382 356.5,39.5 Z"/></g>
<g><path style="opacity:1" fill="#fef200" d="M 356.5,59.5 C 354.786,58.2616 352.786,57.595 350.5,57.5C 349.178,55.6889 348.678,53.6889 349,51.5C 350.896,49.4701 353.063,47.8034 355.5,46.5C 358.42,48.8333 360.753,51.6666 362.5,55C 360.905,57.1019 358.905,58.6019 356.5,59.5 Z"/></g>
<g><path style="opacity:1" fill="#fef200" d="M 344.5,62.5 C 347.5,63.8333 350.5,65.1667 353.5,66.5C 350.193,65.9492 346.86,65.6159 343.5,65.5C 343.263,64.209 343.596,63.209 344.5,62.5 Z"/></g>
<g><path style="opacity:1" fill="#ddd210" d="M 350.5,57.5 C 352.786,57.595 354.786,58.2616 356.5,59.5C 365.419,64.2091 374.252,69.2091 383,74.5C 383.795,77.3832 382.629,78.8832 379.5,79C 380.696,79.6543 380.696,80.1543 379.5,80.5C 375.09,77.6284 370.423,75.2951 365.5,73.5C 365.158,72.6618 364.492,72.3284 363.5,72.5C 362.739,71.6091 361.739,70.9424 360.5,70.5C 355.616,77.1078 350.616,83.6078 345.5,90C 345.905,90.9454 346.572,91.6121 347.5,92C 352.857,93.1711 357.857,95.0044 362.5,97.5C 362.34,99.153 361.674,100.486 360.5,101.5C 354.928,100.143 349.428,98.4767 344,96.5C 343.05,97.0223 342.216,97.689 341.5,98.5C 340.702,98.0431 340.369,97.3764 340.5,96.5C 343.866,93.711 344.199,90.711 341.5,87.5C 340.737,86.7321 339.737,86.2321 338.5,86C 339.293,82.5894 339.793,79.0894 340,75.5C 340.667,74.1667 341.333,72.8333 342,71.5C 342.134,74.3094 341.968,77.1427 341.5,80C 341.667,81.5 341.833,83 342,84.5C 342.414,84.9574 342.914,85.2907 343.5,85.5C 347.954,80.0908 352.287,74.5908 356.5,69C 355.429,68.1482 354.429,67.3149 353.5,66.5C 350.5,65.1667 347.5,63.8333 344.5,62.5C 343.766,61.2921 343.433,59.9587 343.5,58.5C 345.95,58.702 348.283,58.3686 350.5,57.5 Z"/></g>
<g><path style="opacity:1" fill="#1d1d1d" d="M 363.5,72.5 C 364.492,72.3284 365.158,72.6618 365.5,73.5C 369.766,76.6454 374.099,79.8121 378.5,83C 375,87.8333 371.5,92.6667 368,97.5C 361.778,94.1484 355.278,91.4817 348.5,89.5C 352.839,83.0844 357.839,77.4177 363.5,72.5 Z"/></g>
<g><path style="opacity:1" fill="#696969" d="M 341.5,87.5 C 344.199,90.711 343.866,93.711 340.5,96.5C 339.609,97.1098 338.609,97.4431 337.5,97.5C 337.565,95.2939 337.232,92.9606 336.5,90.5C 337.375,88.2275 339.042,87.2275 341.5,87.5 Z"/></g>
<g><path style="opacity:1" fill="#c7641d" d="M 335.5,99.5 C 334.566,100.568 334.232,101.901 334.5,103.5C 334.167,103.5 333.833,103.5 333.5,103.5C 332.833,103.5 332.167,103.5 331.5,103.5C 329.479,99.2495 330.813,96.9162 335.5,96.5C 335.5,97.5 335.5,98.5 335.5,99.5 Z"/></g>
<g><path style="opacity:1" fill="#595959" d="M 337.5,97.5 C 338.551,98.2223 339.218,99.2223 339.5,100.5C 339.737,101.791 339.404,102.791 338.5,103.5C 335.203,103.329 334.869,103.995 337.5,105.5C 337.043,106.298 336.376,106.631 335.5,106.5C 334.89,105.609 334.557,104.609 334.5,103.5C 334.232,101.901 334.566,100.568 335.5,99.5C 336.167,98.8333 336.833,98.1667 337.5,97.5 Z"/></g>
<g><path style="opacity:1" fill="#64441a" d="M 362.5,112.5 C 361.34,109.867 359.34,109.034 356.5,110C 354.839,113.15 355.839,114.65 359.5,114.5C 359.082,115.222 358.416,115.722 357.5,116C 358.056,116.383 358.389,116.883 358.5,117.5C 354.929,116.913 351.263,116.913 347.5,117.5C 344.568,116.2 342.234,114.2 340.5,111.5C 342.351,108.622 344.018,105.622 345.5,102.5C 344.807,101.482 344.141,100.482 343.5,99.5C 343.369,98.7611 343.536,98.0944 344,97.5C 350.273,99.8706 356.44,102.537 362.5,105.5C 363.797,107.973 363.797,110.307 362.5,112.5 Z"/></g>
<g><path style="opacity:1" fill="#fef200" d="M 362.5,97.5 C 367.049,97.8374 368.215,99.8374 366,103.5C 363.391,104.909 361.558,104.242 360.5,101.5C 361.674,100.486 362.34,99.153 362.5,97.5 Z"/></g>
<g><path style="opacity:1" fill="#f9a884" d="M 343.5,99.5 C 344.141,100.482 344.807,101.482 345.5,102.5C 344.018,105.622 342.351,108.622 340.5,111.5C 339.5,111.5 338.5,111.5 337.5,111.5C 337.833,108.833 338.167,106.167 338.5,103.5C 339.404,102.791 339.737,101.791 339.5,100.5C 340.708,99.7659 342.041,99.4326 343.5,99.5 Z"/></g>
<g><path style="opacity:1" fill="#fefffe" d="M 387.5,102.5 C 391.485,102.629 392.818,104.463 391.5,108C 385.94,108.824 384.607,106.99 387.5,102.5 Z"/></g>
<g><path style="opacity:1" fill="#f9a884" d="M 331.5,103.5 C 332.167,103.5 332.833,103.5 333.5,103.5C 332.781,105.764 332.448,108.097 332.5,110.5C 331.566,111.568 331.232,112.901 331.5,114.5C 330.778,114.918 330.278,115.584 330,116.5C 329.399,114.863 328.899,113.197 328.5,111.5C 330.449,109.208 331.449,106.541 331.5,103.5 Z"/></g>
<g><path style="opacity:1" fill="#000000" d="M 341.5,103.5 C 342.465,104.721 342.298,106.054 341,107.5C 340.421,106.072 340.588,104.738 341.5,103.5 Z"/></g>
<g><path style="opacity:1" fill="#000000" d="M 387.5,104.5 C 389.337,104.639 389.67,105.306 388.5,106.5C 387.702,106.043 387.369,105.376 387.5,104.5 Z"/></g>
<g><path style="opacity:1" fill="#fefffe" d="M 374.5,112.5 C 373.448,112.649 372.448,112.483 371.5,112C 372.952,110.042 373.285,108.042 372.5,106C 374.641,105.116 376.307,105.616 377.5,107.5C 376.74,109.36 375.74,111.027 374.5,112.5 Z"/></g>
<g><path style="opacity:1" fill="#7e7f7e" d="M 335.5,106.5 C 336.914,108.598 336.248,109.598 333.5,109.5C 333.285,107.821 333.952,106.821 335.5,106.5 Z"/></g>
<g><path style="opacity:1" fill="#fefffe" d="M 362.5,112.5 C 362.5,112.833 362.5,113.167 362.5,113.5C 361.209,113.263 360.209,113.596 359.5,114.5C 355.839,114.65 354.839,113.15 356.5,110C 359.34,109.034 361.34,109.867 362.5,112.5 Z"/></g>
<g><path style="opacity:1" fill="#fefffe" d="M 387.5,110.5 C 387.917,109.876 388.584,109.543 389.5,109.5C 391.996,110.889 394.663,111.889 397.5,112.5C 401.957,117.251 403.624,122.918 402.5,129.5C 401.549,130.919 401.216,132.585 401.5,134.5C 400.5,134.5 399.5,134.5 398.5,134.5C 398.5,132.5 398.5,130.5 398.5,128.5C 398.924,124.172 398.091,119.839 396,115.5C 393.687,112.928 390.854,111.261 387.5,110.5 Z"/></g>
<g><path style="opacity:1" fill="#5e5e5e" d="M 332.5,110.5 C 335.718,110.651 336.051,111.484 333.5,113C 333.957,113.414 334.291,113.914 334.5,114.5C 333.386,115.776 332.386,115.776 331.5,114.5C 331.232,112.901 331.566,111.568 332.5,110.5 Z"/></g>
<g><path style="opacity:1" fill="#000000" d="M 357.5,110.5 C 359.337,110.639 359.67,111.306 358.5,112.5C 357.702,112.043 357.369,111.376 357.5,110.5 Z"/></g>
<g><path style="opacity:1" fill="#a07f44" d="M 387.5,110.5 C 390.854,111.261 393.687,112.928 396,115.5C 398.091,119.839 398.924,124.172 398.5,128.5C 397.539,130.265 397.205,132.265 397.5,134.5C 394.635,134.055 392.135,134.722 390,136.5C 389.802,134.618 389.302,132.952 388.5,131.5C 388.095,125.268 386.429,119.268 383.5,113.5C 384.436,112.026 385.77,111.026 387.5,110.5 Z"/></g>
<g><path style="opacity:1" fill="#b0581c" d="M 337.5,111.5 C 338.5,111.5 339.5,111.5 340.5,111.5C 342.234,114.2 344.568,116.2 347.5,117.5C 344.941,117.198 342.607,117.532 340.5,118.5C 339.205,119.488 337.872,120.488 336.5,121.5C 335.833,121.833 335.167,122.167 334.5,122.5C 333.833,122.5 333.5,122.167 333.5,121.5C 334.54,117.958 335.874,114.625 337.5,111.5 Z"/></g>
<g><path style="opacity:1" fill="#ae8b49" d="M 402.5,129.5 C 403.624,122.918 401.957,117.251 397.5,112.5C 405.851,111.807 410.684,115.807 412,124.5C 412.352,128.258 411.519,131.758 409.5,135C 407.319,137.078 405.319,136.911 403.5,134.5C 402.548,132.955 402.215,131.288 402.5,129.5 Z"/></g>
<g><path style="opacity:1" fill="#fefffe" d="M 374.5,113.5 C 374.5,113.167 374.5,112.833 374.5,112.5C 377.455,113.159 380.455,113.492 383.5,113.5C 386.429,119.268 388.095,125.268 388.5,131.5C 388.5,134.167 388.5,136.833 388.5,139.5C 386.833,139.5 385.167,139.5 383.5,139.5C 383.5,138.5 383.5,137.5 383.5,136.5C 385.89,128.493 384.223,121.327 378.5,115C 377.255,114.209 375.922,113.709 374.5,113.5 Z"/></g>
<g><path style="opacity:1" fill="#000000" d="M 359.5,114.5 C 360.209,113.596 361.209,113.263 362.5,113.5C 362.5,114.167 362.5,114.833 362.5,115.5C 361.609,114.89 360.609,114.557 359.5,114.5 Z"/></g>
<g><path style="opacity:1" fill="#a08044" d="M 362.5,113.5 C 366.458,114.45 370.458,114.45 374.5,113.5C 375.922,113.709 377.255,114.209 378.5,115C 384.223,121.327 385.89,128.493 383.5,136.5C 379.706,137.895 375.872,139.228 372,140.5C 371.536,139.906 371.369,139.239 371.5,138.5C 374.376,128.579 371.376,120.912 362.5,115.5C 362.5,114.833 362.5,114.167 362.5,113.5 Z"/></g>
<g><path style="opacity:1" fill="#fefffe" d="M 359.5,114.5 C 360.609,114.557 361.609,114.89 362.5,115.5C 371.376,120.912 374.376,128.579 371.5,138.5C 370.844,139.278 370.011,139.944 369,140.5C 368.235,140.43 367.735,140.097 367.5,139.5C 370.615,133.098 369.782,127.098 365,121.5C 363.362,119.266 361.195,117.933 358.5,117.5C 358.389,116.883 358.056,116.383 357.5,116C 358.416,115.722 359.082,115.222 359.5,114.5 Z"/></g>
<g><path style="opacity:1" fill="#7d7d7d" d="M 304.5,122.5 C 304.5,123.167 304.167,123.5 303.5,123.5C 289.814,124.077 276.148,124.077 262.5,123.5C 274.82,122.667 287.153,122.167 299.5,122C 300.329,120.184 301.163,118.351 302,116.5C 302.29,118.044 302.956,119.377 304,120.5C 305.815,118.595 307.815,116.928 310,115.5C 310.495,117.473 310.662,119.473 310.5,121.5C 308.265,121.205 306.265,121.539 304.5,122.5 Z"/></g>
<g><path style="opacity:1" fill="#ae8b49" d="M 358.5,117.5 C 361.195,117.933 363.362,119.266 365,121.5C 369.782,127.098 370.615,133.098 367.5,139.5C 364.105,142.698 360.105,144.531 355.5,145C 360.465,137.073 359.798,129.406 353.5,122C 350.996,121.302 348.663,120.469 346.5,119.5C 347.338,119.158 347.672,118.492 347.5,117.5C 351.263,116.913 354.929,116.913 358.5,117.5 Z"/></g>
<g><path style="opacity:1" fill="#000000" d="M 340.5,118.5 C 342.607,117.532 344.941,117.198 347.5,117.5C 347.672,118.492 347.338,119.158 346.5,119.5C 344.735,118.539 342.735,118.205 340.5,118.5 Z"/></g>
<g><path style="opacity:1" fill="#c91f20" d="M 340.5,118.5 C 342.735,118.205 344.735,118.539 346.5,119.5C 344.588,120.799 342.588,121.799 340.5,122.5C 338.71,124.272 337.377,126.272 336.5,128.5C 336.167,128.5 335.833,128.5 335.5,128.5C 335.448,126.097 335.781,123.764 336.5,121.5C 337.872,120.488 339.205,119.488 340.5,118.5 Z"/></g>
<g><path style="opacity:1" fill="#f9a884" d="M 333.5,121.5 C 333.5,122.167 333.833,122.5 334.5,122.5C 334.784,124.415 334.451,126.081 333.5,127.5C 330.781,126.087 327.781,125.42 324.5,125.5C 321.875,124.559 321.875,123.393 324.5,122C 327.615,121.13 330.615,120.964 333.5,121.5 Z"/></g>
<g><path style="opacity:1" fill="#fec90d" d="M 257.5,121.5 C 258.5,121.5 259.5,121.5 260.5,121.5C 260.5,123.5 260.5,125.5 260.5,127.5C 259.5,127.5 258.5,127.5 257.5,127.5C 257.5,125.5 257.5,123.5 257.5,121.5 Z"/></g>
<g><path style="opacity:1" fill="#000000" d="M 336.5,121.5 C 335.781,123.764 335.448,126.097 335.5,128.5C 334.508,128.672 333.842,128.338 333.5,127.5C 334.451,126.081 334.784,124.415 334.5,122.5C 335.167,122.167 335.833,121.833 336.5,121.5 Z"/></g>
<g><path style="opacity:1" fill="#7e7f7e" d="M 235.5,122.5 C 242.2,122.17 248.866,122.503 255.5,123.5C 241.516,125.166 227.516,125.5 213.5,124.5C 220.989,123.833 228.322,123.167 235.5,122.5 Z"/></g>
<g><path style="opacity:1" fill="#9a6649" d="M 304.5,122.5 C 305.791,122.263 306.791,122.596 307.5,123.5C 306.657,125.173 305.324,126.34 303.5,127C 300.167,127.333 296.833,127.667 293.5,128C 297.833,128.667 302.167,128.667 306.5,128C 308.037,126.89 308.703,125.39 308.5,123.5C 309.097,122.861 309.93,122.528 311,122.5C 315.294,124.431 319.794,125.431 324.5,125.5C 327.781,125.42 330.781,126.087 333.5,127.5C 333.842,128.338 334.508,128.672 335.5,128.5C 335.833,128.5 336.167,128.5 336.5,128.5C 336.5,128.833 336.5,129.167 336.5,129.5C 337.598,130.397 337.598,131.23 336.5,132C 334.753,132.352 333.086,132.852 331.5,133.5C 329.871,131.94 328.704,132.273 328,134.5C 327.506,132.866 327.34,131.199 327.5,129.5C 326.5,129.5 325.5,129.5 324.5,129.5C 324.657,130.873 324.49,132.207 324,133.5C 323.727,131.899 323.227,130.399 322.5,129C 321.212,128.761 320.212,129.261 319.5,130.5C 316.6,131.737 313.433,132.403 310,132.5C 303.941,132.355 297.941,131.688 292,130.5C 288.111,130.844 284.278,131.511 280.5,132.5C 274.594,130.467 268.594,128.8 262.5,127.5C 275.479,126.368 288.479,125.534 301.5,125C 302.416,124.722 303.082,124.222 303.5,123.5C 304.167,123.5 304.5,123.167 304.5,122.5 Z"/></g>
<g><path style="opacity:1" fill="#fef200" d="M 340.5,122.5 C 341.239,122.369 341.906,122.536 342.5,123C 340.951,125.711 338.951,127.877 336.5,129.5C 336.5,129.167 336.5,128.833 336.5,128.5C 337.377,126.272 338.71,124.272 340.5,122.5 Z"/></g>
<g><path style="opacity:1" fill="#fec90d" d="M 142.5,130.5 C 142.427,132.027 143.094,133.027 144.5,133.5C 141.456,135.265 137.956,136.265 134,136.5C 132.739,136.241 131.739,135.574 131,134.5C 130.802,132.618 130.302,130.952 129.5,129.5C 129.5,128.167 129.5,126.833 129.5,125.5C 130.5,125.5 131.5,125.5 132.5,125.5C 134.144,131.991 135.644,131.991 137,125.5C 137.689,124.643 138.522,123.977 139.5,123.5C 141.018,125.621 142.018,127.954 142.5,130.5 Z"/></g>
<g><path style="opacity:1" fill="#7e7f7e" d="M 182.5,123.5 C 196.826,124.15 196.493,124.983 181.5,126C 168.495,127.201 155.495,127.368 142.5,126.5C 155.983,125.434 169.316,124.434 182.5,123.5 Z"/></g>
<g><path style="opacity:1" fill="#fec90d" d="M 195.5,123.5 C 196.833,123.5 198.167,123.5 199.5,123.5C 200.34,127.911 199.173,131.577 196,134.5C 195.501,130.848 195.335,127.182 195.5,123.5 Z"/></g>
<g><path style="opacity:1" fill="#7e7f7e" d="M 201.5,123.5 C 202.978,123.238 204.311,123.571 205.5,124.5C 204.833,124.833 204.167,125.167 203.5,125.5C 202.287,125.253 201.62,124.586 201.5,123.5 Z"/></g>
<g><path style="opacity:1" fill="#fec90d" d="M 207.5,123.5 C 208.833,123.5 210.167,123.5 211.5,123.5C 211.663,125.857 211.497,128.19 211,130.5C 210.632,131.91 209.799,132.91 208.5,133.5C 207.513,130.232 207.18,126.898 207.5,123.5 Z"/></g>
<g><path style="opacity:1" fill="#fec90d" d="M 307.5,123.5 C 307.833,123.5 308.167,123.5 308.5,123.5C 308.703,125.39 308.037,126.89 306.5,128C 302.167,128.667 297.833,128.667 293.5,128C 296.833,127.667 300.167,127.333 303.5,127C 305.324,126.34 306.657,125.173 307.5,123.5 Z"/></g>
<g><path style="opacity:1" fill="#7b7b7b" d="M 129.5,129.5 C 129.694,133.262 127.86,134.929 124,134.5C 120.841,134.653 118.008,133.819 115.5,132C 117.62,130.477 117.953,128.644 116.5,126.5C 119.438,125.511 122.438,124.844 125.5,124.5C 125.347,130.324 126.013,130.657 127.5,125.5C 128.172,126.949 128.839,128.282 129.5,129.5 Z"/></g>
<g><path style="opacity:1" fill="#997a41" d="M 345.5,122.5 C 348.199,122.466 350.699,123.133 353,124.5C 355.094,128.449 356.594,132.616 357.5,137C 356.722,139.39 355.555,141.557 354,143.5C 353,144.833 352,144.833 351,143.5C 348.969,148.51 346.469,148.677 343.5,144C 343.127,140.807 342.46,137.474 341.5,134C 341.098,129.8 342.765,126.8 346.5,125C 344.381,124.658 344.047,123.825 345.5,122.5 Z"/></g>
<g><path style="opacity:1" fill="#7e7f7e" d="M 112.5,126.5 C 115.69,127.667 116.023,129.334 113.5,131.5C 95.2447,133.907 76.9114,135.573 58.5,136.5C 53.6333,136.738 48.9667,135.905 44.5,134C 67.383,132.08 90.0496,129.58 112.5,126.5 Z"/></g>
<g><path style="opacity:1" fill="#b77956" d="M 254.5,128.5 C 254.5,129.167 254.5,129.833 254.5,130.5C 254.611,131.117 254.944,131.617 255.5,132C 257.81,132.497 260.143,132.663 262.5,132.5C 245.67,133.692 228.67,134.192 211.5,134C 213.016,132.103 213.683,129.936 213.5,127.5C 227.504,127.06 241.504,126.894 255.5,127C 254.944,127.383 254.611,127.883 254.5,128.5 Z"/></g>
<g><path style="opacity:1" fill="#b67855" d="M 144.5,133.5 C 143.094,133.027 142.427,132.027 142.5,130.5C 159.328,129.192 176.328,128.192 193.5,127.5C 193.5,129.5 193.5,131.5 193.5,133.5C 177.167,133.5 160.833,133.5 144.5,133.5 Z"/></g>
<g><path style="opacity:1" fill="#b87a56" d="M 201.5,127.5 C 202.833,127.5 204.167,127.5 205.5,127.5C 205.5,129.833 205.5,132.167 205.5,134.5C 203.181,135.167 200.847,135.334 198.5,135C 201.041,133.152 202.041,130.652 201.5,127.5 Z"/></g>
<g><path style="opacity:1" fill="#f9a884" d="M 254.5,128.5 C 261.526,129.433 268.526,130.599 275.5,132C 278.362,132.93 280.695,134.597 282.5,137C 275.976,139.173 269.31,140.173 262.5,140C 261.167,138.667 259.833,137.333 258.5,136C 259.784,135.316 260.951,135.483 262,136.5C 264.725,135.075 264.892,133.742 262.5,132.5C 259.997,131.629 257.33,130.963 254.5,130.5C 254.5,129.833 254.5,129.167 254.5,128.5 Z"/></g>
<g><path style="opacity:1" fill="#de9677" d="M 331.5,133.5 C 327.779,136.875 323.445,139.542 318.5,141.5C 316.889,140.68 316.222,139.346 316.5,137.5C 316.328,136.508 316.662,135.842 317.5,135.5C 318.931,134.22 319.598,132.553 319.5,130.5C 320.212,129.261 321.212,128.761 322.5,129C 323.227,130.399 323.727,131.899 324,133.5C 324.49,132.207 324.657,130.873 324.5,129.5C 325.5,129.5 326.5,129.5 327.5,129.5C 327.34,131.199 327.506,132.866 328,134.5C 328.704,132.273 329.871,131.94 331.5,133.5 Z"/></g>
<g><path style="opacity:1" fill="#000000" d="M 254.5,130.5 C 257.33,130.963 259.997,131.629 262.5,132.5C 260.143,132.663 257.81,132.497 255.5,132C 254.944,131.617 254.611,131.117 254.5,130.5 Z"/></g>
<g><path style="opacity:1" fill="#fefffe" d="M 288.5,132.5 C 292.56,132.485 296.56,132.985 300.5,134C 295.115,134.214 289.781,134.714 284.5,135.5C 284.167,135.167 283.833,134.833 283.5,134.5C 285.291,133.83 286.958,133.163 288.5,132.5 Z"/></g>
<g><path style="opacity:1" fill="#fec90d" d="M 317.5,135.5 C 316.662,135.842 316.328,136.508 316.5,137.5C 313.329,139.901 309.829,140.568 306,139.5C 305.727,137.671 304.893,136.171 303.5,135C 304,134.5 304.5,134 305,133.5C 305.776,137.95 308.276,139.45 312.5,138C 314,136.5 315.5,135 317,133.5C 317.464,134.094 317.631,134.761 317.5,135.5 Z"/></g>
<g><path style="opacity:1" fill="#fefffe" d="M 333.5,134.5 C 334.833,134.5 336.167,134.5 337.5,134.5C 337.253,137.505 338.253,140.005 340.5,142C 337.281,141.025 334.614,139.025 332.5,136C 333.056,135.617 333.389,135.117 333.5,134.5 Z"/></g>
<g><path style="opacity:1" fill="#fefffe" d="M 232.5,135.5 C 240.507,135.334 248.507,135.5 256.5,136C 256.167,136.333 255.833,136.667 255.5,137C 239.833,137.667 224.167,137.667 208.5,137C 216.677,136.829 224.677,136.329 232.5,135.5 Z"/></g>
<g><path style="opacity:1" fill="#7c0514" d="M 412.5,156.5 C 411.1,157.1 410.1,158.1 409.5,159.5C 408.067,156.718 406.9,153.718 406,150.5C 404.989,149.663 403.822,149.33 402.5,149.5C 402.5,151.167 402.5,152.833 402.5,154.5C 402.5,155.833 402.5,157.167 402.5,158.5C 401.209,158.263 400.209,158.596 399.5,159.5C 398.503,159.53 397.836,159.03 397.5,158C 396.265,154.129 394.932,150.296 393.5,146.5C 393.043,145.702 392.376,145.369 391.5,145.5C 391.833,144.833 392.167,144.167 392.5,143.5C 392.443,142.391 392.11,141.391 391.5,140.5C 391.082,139.778 390.416,139.278 389.5,139C 394.75,135.901 400.084,135.734 405.5,138.5C 408.233,144.369 410.566,150.369 412.5,156.5 Z"/></g>
<g><path style="opacity:1" fill="#23a045" d="M 328.5,138.5 C 331.509,138.423 333.676,139.756 335,142.5C 335.781,143.944 335.614,145.277 334.5,146.5C 332.422,146.82 330.256,147.82 328,149.5C 327.667,147.833 327.333,146.167 327,144.5C 326.808,146.577 326.308,148.577 325.5,150.5C 324.808,149.975 324.308,149.308 324,148.5C 323,152.5 322,152.5 321,148.5C 320.51,149.793 320.343,151.127 320.5,152.5C 319.5,152.5 318.5,152.5 317.5,152.5C 317.649,151.448 317.483,150.448 317,149.5C 316.781,150.938 316.281,152.271 315.5,153.5C 314.13,150.515 314.63,147.849 317,145.5C 320.814,143.016 324.647,140.682 328.5,138.5 Z"/></g>
<g><path style="opacity:1" fill="#285e90" d="M 279.5,147.5 C 278.205,148.488 276.872,149.488 275.5,150.5C 274.182,147.435 274.182,144.269 275.5,141C 279.449,139.816 283.449,139.482 287.5,140C 289.451,141.734 290.451,143.901 290.5,146.5C 286.629,146.185 282.962,146.518 279.5,147.5 Z"/></g>
<g><path style="opacity:1" fill="#fefffe" d="M 295.5,139.5 C 296.873,139.343 298.207,139.51 299.5,140C 300.941,144.979 304.274,146.812 309.5,145.5C 309.66,147.199 309.494,148.866 309,150.5C 306,153.167 303,155.833 300,158.5C 298.956,157.377 298.29,156.044 298,154.5C 297.819,149.294 296.986,144.294 295.5,139.5 Z M 299.5,146.5 C 299.148,149.073 299.648,151.406 301,153.5C 303.46,152.042 305.627,150.209 307.5,148C 304.746,147.728 302.079,147.228 299.5,146.5 Z"/></g>
<g><path style="opacity:1" fill="#7d0514" d="M 383.5,139.5 C 383.167,140.167 382.833,140.833 382.5,141.5C 381.167,142.5 381.167,143.5 382.5,144.5C 385.067,145.717 387.4,147.384 389.5,149.5C 390.338,149.842 390.672,150.508 390.5,151.5C 390.676,154.727 391.343,157.727 392.5,160.5C 392.715,162.179 392.048,163.179 390.5,163.5C 388.958,162.699 387.292,162.366 385.5,162.5C 383.379,162.675 381.379,162.341 379.5,161.5C 378.177,159.238 376.843,156.904 375.5,154.5C 374.534,156.396 374.201,158.396 374.5,160.5C 374.5,161.5 374.5,162.5 374.5,163.5C 372.5,163.5 370.5,163.5 368.5,163.5C 363.762,157.796 357.762,154.13 350.5,152.5C 349.316,151.312 349.316,150.145 350.5,149C 361.241,144.919 372.241,141.753 383.5,139.5 Z"/></g>
<g><path style="opacity:1" fill="#fefffe" d="M 391.5,140.5 C 392.11,141.391 392.443,142.391 392.5,143.5C 389.119,143.46 385.786,143.793 382.5,144.5C 381.167,143.5 381.167,142.5 382.5,141.5C 385.43,140.701 388.43,140.368 391.5,140.5 Z"/></g>
<g><path style="opacity:1" fill="#000000" d="M 392.5,143.5 C 392.167,144.167 391.833,144.833 391.5,145.5C 389.932,144.527 388.265,144.36 386.5,145C 388.141,146.129 389.141,147.629 389.5,149.5C 387.4,147.384 385.067,145.717 382.5,144.5C 385.786,143.793 389.119,143.46 392.5,143.5 Z"/></g>
<g><path style="opacity:1" fill="#fefffe" d="M 391.5,145.5 C 397.743,160.253 399.243,175.586 396,191.5C 395,192.5 394,193.5 393,194.5C 393.635,188.092 394.135,181.592 394.5,175C 394.595,169.921 393.928,165.088 392.5,160.5C 392.785,157.171 392.118,154.171 390.5,151.5C 390.672,150.508 390.338,149.842 389.5,149.5C 389.141,147.629 388.141,146.129 386.5,145C 388.265,144.36 389.932,144.527 391.5,145.5 Z"/></g>
<g><path style="opacity:1" fill="#fefffe" d="M 279.5,147.5 C 284.032,147.069 288.365,147.569 292.5,149C 287.649,149.174 282.982,149.674 278.5,150.5C 277.167,151.167 276.167,152.167 275.5,153.5C 274.375,152.652 274.375,151.652 275.5,150.5C 276.872,149.488 278.205,148.488 279.5,147.5 Z"/></g>
<g><path style="opacity:1" fill="#275a8a" d="M 275.5,153.5 C 276.167,152.167 277.167,151.167 278.5,150.5C 283.167,150.5 287.833,150.5 292.5,150.5C 292.746,154.151 292.746,157.651 292.5,161C 293.967,162.098 294.801,163.598 295,165.5C 295.667,166.167 296.333,166.833 297,167.5C 299.436,166.645 301.936,165.979 304.5,165.5C 309.062,168.901 314.062,171.567 319.5,173.5C 322.304,171.862 324.971,170.029 327.5,168C 320.158,167.01 313.492,164.51 307.5,160.5C 309.27,159.236 310.937,157.736 312.5,156C 319.733,154.985 326.566,152.819 333,149.5C 333.333,149.833 333.667,150.167 334,150.5C 336.054,148.942 337.554,146.942 338.5,144.5C 341.672,146.252 344.672,148.252 347.5,150.5C 347.079,164.046 348.079,177.546 350.5,191C 350.167,191.5 349.833,192 349.5,192.5C 341.637,188.789 334.803,183.789 329,177.5C 328.667,177.833 328.333,178.167 328,178.5C 326.938,177.101 325.605,176.101 324,175.5C 318.795,177.548 313.962,180.215 309.5,183.5C 308.914,183.291 308.414,182.957 308,182.5C 302.154,188.009 295.321,191.176 287.5,192C 283.432,187.416 281.599,182.249 282,176.5C 281.667,177.167 281.333,177.833 281,178.5C 279.945,175.457 279.778,172.457 280.5,169.5C 280.154,168.304 279.654,168.304 279,169.5C 278.345,164.375 276.845,159.542 274.5,155C 275.056,154.617 275.389,154.117 275.5,153.5 Z"/></g>
<g><path style="opacity:1" fill="#fefffe" d="M 409.5,159.5 C 409.328,160.492 409.662,161.158 410.5,161.5C 410.5,164.833 410.5,168.167 410.5,171.5C 409.167,171.5 407.833,171.5 406.5,171.5C 406.795,169.265 406.461,167.265 405.5,165.5C 405.672,164.508 405.338,163.842 404.5,163.5C 404.01,160.345 403.344,157.345 402.5,154.5C 402.5,152.833 402.5,151.167 402.5,149.5C 403.822,149.33 404.989,149.663 406,150.5C 406.9,153.718 408.067,156.718 409.5,159.5 Z"/></g>
<g><path style="opacity:1" fill="#000000" d="M 390.5,151.5 C 392.118,154.171 392.785,157.171 392.5,160.5C 391.343,157.727 390.676,154.727 390.5,151.5 Z"/></g>
<g><path style="opacity:1" fill="#fefffe" d="M 350.5,152.5 C 357.762,154.13 363.762,157.796 368.5,163.5C 370.292,164.309 372.292,164.809 374.5,165C 371.518,165.498 368.518,165.665 365.5,165.5C 363.964,159.969 360.297,156.969 354.5,156.5C 353.432,155.566 352.099,155.232 350.5,155.5C 349.909,154.849 349.243,154.182 348.5,153.5C 348.957,152.702 349.624,152.369 350.5,152.5 Z"/></g>
<g><path style="opacity:1" fill="#fcfcfc" d="M 379.5,161.5 C 379.461,162.756 379.961,163.756 381,164.5C 382.622,163.901 384.122,163.234 385.5,162.5C 387.292,162.366 388.958,162.699 390.5,163.5C 393.338,165.306 393.005,166.306 389.5,166.5C 387.393,165.532 385.059,165.198 382.5,165.5C 382.5,167.167 382.5,168.833 382.5,170.5C 381.506,171.999 381.506,173.666 382.5,175.5C 380.833,175.5 379.167,175.5 377.5,175.5C 377.889,172.447 377.223,169.78 375.5,167.5C 375.802,164.941 375.468,162.607 374.5,160.5C 374.201,158.396 374.534,156.396 375.5,154.5C 376.843,156.904 378.177,159.238 379.5,161.5 Z"/></g>
<g><path style="opacity:1" fill="#000000" d="M 402.5,154.5 C 403.344,157.345 404.01,160.345 404.5,163.5C 402.958,162.699 401.292,162.366 399.5,162.5C 400.398,161.842 401.398,161.176 402.5,160.5C 401.675,159.614 400.675,159.281 399.5,159.5C 400.209,158.596 401.209,158.263 402.5,158.5C 402.5,157.167 402.5,155.833 402.5,154.5 Z"/></g>
<g><path style="opacity:1" fill="#000000" d="M 350.5,155.5 C 352.099,155.232 353.432,155.566 354.5,156.5C 353.5,156.5 352.5,156.5 351.5,156.5C 351.5,159.5 351.5,162.5 351.5,165.5C 350.521,162.375 350.187,159.042 350.5,155.5 Z"/></g>
<g><path style="opacity:1" fill="#730913" d="M 354.5,156.5 C 360.297,156.969 363.964,159.969 365.5,165.5C 364.903,165.735 364.57,166.235 364.5,167C 366.215,175.098 367.048,183.265 367,191.5C 365.585,194.705 363.085,196.372 359.5,196.5C 356.896,195.731 355.062,194.064 354,191.5C 351.997,182.952 351.163,174.285 351.5,165.5C 351.5,162.5 351.5,159.5 351.5,156.5C 352.5,156.5 353.5,156.5 354.5,156.5 Z"/></g>
<g><path style="opacity:1" fill="#fefffe" d="M 412.5,156.5 C 413.043,156.56 413.376,156.893 413.5,157.5C 412.398,158.176 411.398,158.842 410.5,159.5C 410.167,159.5 409.833,159.5 409.5,159.5C 410.1,158.1 411.1,157.1 412.5,156.5 Z"/></g>
<g><path style="opacity:1" fill="#fefffe" d="M 399.5,159.5 C 400.675,159.281 401.675,159.614 402.5,160.5C 401.398,161.176 400.398,161.842 399.5,162.5C 398.375,161.652 398.375,160.652 399.5,159.5 Z"/></g>
<g><path style="opacity:1" fill="#800314" d="M 409.5,159.5 C 409.833,159.5 410.167,159.5 410.5,159.5C 411.822,159.33 412.989,159.663 414,160.5C 416.717,168.759 417.05,177.092 415,185.5C 412.887,187.733 410.387,189.067 407.5,189.5C 405.071,190.551 402.738,191.884 400.5,193.5C 398.62,192.922 397.62,191.588 397.5,189.5C 398.11,180.442 398.776,171.442 399.5,162.5C 401.292,162.366 402.958,162.699 404.5,163.5C 405.338,163.842 405.672,164.508 405.5,165.5C 405.5,167.833 405.5,170.167 405.5,172.5C 405.5,173.5 405.5,174.5 405.5,175.5C 405.263,176.791 405.596,177.791 406.5,178.5C 407.833,178.5 409.167,178.5 410.5,178.5C 411.404,177.791 411.737,176.791 411.5,175.5C 411.5,174.5 411.5,173.5 411.5,172.5C 411.815,168.629 411.482,164.962 410.5,161.5C 409.662,161.158 409.328,160.492 409.5,159.5 Z"/></g>
<g><path style="opacity:1" fill="#224161" d="M 307.5,160.5 C 313.492,164.51 320.158,167.01 327.5,168C 324.971,170.029 322.304,171.862 319.5,173.5C 314.062,171.567 309.062,168.901 304.5,165.5C 303.953,163.288 304.953,161.621 307.5,160.5 Z"/></g>
<g><path style="opacity:1" fill="#000000" d="M 374.5,160.5 C 375.468,162.607 375.802,164.941 375.5,167.5C 373.283,166.631 370.95,166.298 368.5,166.5C 368.5,168.833 368.5,171.167 368.5,173.5C 367.935,170.695 366.935,168.028 365.5,165.5C 368.518,165.665 371.518,165.498 374.5,165C 372.292,164.809 370.292,164.309 368.5,163.5C 370.5,163.5 372.5,163.5 374.5,163.5C 374.5,162.5 374.5,161.5 374.5,160.5 Z"/></g>
<g><path style="opacity:1" fill="#000000" d="M 379.5,161.5 C 381.379,162.341 383.379,162.675 385.5,162.5C 384.122,163.234 382.622,163.901 381,164.5C 379.961,163.756 379.461,162.756 379.5,161.5 Z"/></g>
<g><path style="opacity:1" fill="#000000" d="M 410.5,161.5 C 411.482,164.962 411.815,168.629 411.5,172.5C 409.5,172.5 407.5,172.5 405.5,172.5C 405.5,170.167 405.5,167.833 405.5,165.5C 406.461,167.265 406.795,169.265 406.5,171.5C 407.833,171.5 409.167,171.5 410.5,171.5C 410.5,168.167 410.5,164.833 410.5,161.5 Z"/></g>
<g><path style="opacity:1" fill="#000000" d="M 389.5,166.5 C 387.5,166.5 385.5,166.5 383.5,166.5C 383.768,168.099 383.434,169.432 382.5,170.5C 382.5,168.833 382.5,167.167 382.5,165.5C 385.059,165.198 387.393,165.532 389.5,166.5 Z"/></g>
<g><path style="opacity:1" fill="#7b0613" d="M 375.5,167.5 C 377.223,169.78 377.889,172.447 377.5,175.5C 379.167,175.5 380.833,175.5 382.5,175.5C 381.506,173.666 381.506,171.999 382.5,170.5C 383.434,169.432 383.768,168.099 383.5,166.5C 385.5,166.5 387.5,166.5 389.5,166.5C 390.568,167.434 391.901,167.768 393.5,167.5C 393.598,175.536 393.098,183.536 392,191.5C 390.635,195.191 387.968,196.858 384,196.5C 378.652,196.095 373.486,195.428 368.5,194.5C 369.535,187.563 369.535,180.563 368.5,173.5C 368.5,171.167 368.5,168.833 368.5,166.5C 370.95,166.298 373.283,166.631 375.5,167.5 Z"/></g>
<g><path style="opacity:1" fill="#fefffe" d="M 405.5,172.5 C 407.5,172.5 409.5,172.5 411.5,172.5C 411.5,173.5 411.5,174.5 411.5,175.5C 409.5,175.5 407.5,175.5 405.5,175.5C 405.5,174.5 405.5,173.5 405.5,172.5 Z"/></g>
<g><path style="opacity:1" fill="#fefffe" d="M 382.5,175.5 C 383.434,176.568 383.768,177.901 383.5,179.5C 381.5,179.5 379.5,179.5 377.5,179.5C 377.5,178.5 377.5,177.5 377.5,176.5C 379.415,176.784 381.081,176.451 382.5,175.5 Z"/></g>
<g><path style="opacity:1" fill="#000000" d="M 405.5,175.5 C 407.5,175.5 409.5,175.5 411.5,175.5C 411.737,176.791 411.404,177.791 410.5,178.5C 410.38,177.414 409.713,176.747 408.5,176.5C 407.287,176.747 406.62,177.414 406.5,178.5C 405.596,177.791 405.263,176.791 405.5,175.5 Z"/></g>
<g><path style="opacity:1" fill="#fefffe" d="M 410.5,178.5 C 409.167,178.5 407.833,178.5 406.5,178.5C 406.62,177.414 407.287,176.747 408.5,176.5C 409.713,176.747 410.38,177.414 410.5,178.5 Z"/></g>
<g><path style="opacity:1" fill="#000000" d="M 377.5,179.5 C 379.5,179.5 381.5,179.5 383.5,179.5C 383.768,181.099 383.434,182.432 382.5,183.5C 382.5,182.5 382.5,181.5 382.5,180.5C 380.901,180.232 379.568,180.566 378.5,181.5C 377.662,181.158 377.328,180.492 377.5,179.5 Z"/></g>
<g><path style="opacity:1" fill="#fefffe" d="M 378.5,181.5 C 379.568,180.566 380.901,180.232 382.5,180.5C 382.5,181.5 382.5,182.5 382.5,183.5C 381.542,183.953 380.708,184.619 380,185.5C 379.79,183.942 379.29,182.609 378.5,181.5 Z"/></g>
<g><path style="opacity:1" fill="#f3f3f3" d="M 350.5,155.5 C 350.187,159.042 350.521,162.375 351.5,165.5C 351.163,174.285 351.997,182.952 354,191.5C 355.062,194.064 356.896,195.731 359.5,196.5C 363.085,196.372 365.585,194.705 367,191.5C 367.048,183.265 366.215,175.098 364.5,167C 364.57,166.235 364.903,165.735 365.5,165.5C 366.935,168.028 367.935,170.695 368.5,173.5C 369.535,180.563 369.535,187.563 368.5,194.5C 366.255,194.541 365.588,195.375 366.5,197C 370.167,197.333 373.833,197.667 377.5,198C 372.906,202.072 367.572,203.406 361.5,202C 348.23,200.203 337.564,194.036 329.5,183.5C 329.667,183.167 329.833,182.833 330,182.5C 336.718,188.559 344.384,192.893 353,195.5C 351.173,182.94 349.673,170.273 348.5,157.5C 348.747,156.287 349.414,155.62 350.5,155.5 Z"/></g>
<g><path style="opacity:1" fill="#275e90" d="M 331.5,189.5 C 337.871,195.048 344.871,199.548 352.5,203C 349.396,206.821 345.896,210.321 342,213.5C 340.426,212.016 339.093,210.349 338,208.5C 335.684,202.243 333.517,195.91 331.5,189.5 Z"/></g>
<g><path style="opacity:1" fill="#fefffe" d="M 407.5,189.5 C 408.239,189.369 408.906,189.536 409.5,190C 408.864,193.561 406.698,195.394 403,195.5C 401.699,195.361 400.866,194.695 400.5,193.5C 402.738,191.884 405.071,190.551 407.5,189.5 Z"/></g>
<g><path style="opacity:1" fill="#fefffe" d="M 379.5,199.5 C 382.304,198.362 385.304,198.195 388.5,199C 390.374,202.581 392.374,206.081 394.5,209.5C 391.973,210.214 389.473,210.88 387,211.5C 384.241,207.593 381.741,203.593 379.5,199.5 Z"/></g>
<g><path style="opacity:1" fill="#296296" d="M 391.5,198.5 C 392.75,198.577 393.583,199.244 394,200.5C 395.071,203.932 396.071,207.265 397,210.5C 394.344,206.856 392.511,202.856 391.5,198.5 Z"/></g>
<g><path style="opacity:1" fill="#285d8e" d="M 384.5,223.5 C 383.069,222.22 382.402,220.553 382.5,218.5C 382.5,217.167 382.5,215.833 382.5,214.5C 381.5,214.5 380.5,214.5 379.5,214.5C 379.216,216.415 379.549,218.081 380.5,219.5C 381.404,220.209 381.737,221.209 381.5,222.5C 380.448,224.256 378.781,224.923 376.5,224.5C 375.908,221.873 375.575,219.206 375.5,216.5C 375.833,215.833 376.167,215.167 376.5,214.5C 374.302,213.835 371.969,213.168 369.5,212.5C 370.332,209.839 371.166,207.172 372,204.5C 374,203.167 376,201.833 378,200.5C 379.746,204.327 381.746,207.993 384,211.5C 384.325,215.616 385.159,219.616 386.5,223.5C 386.03,224.463 385.363,224.463 384.5,223.5 Z"/></g>
<g><path style="opacity:1" fill="#870014" d="M 353.5,202.5 C 354.376,202.369 355.043,202.702 355.5,203.5C 350.854,209.314 346.021,214.98 341,220.5C 339.711,223.351 339.211,226.351 339.5,229.5C 337.41,229.55 336.077,228.55 335.5,226.5C 340.015,218.478 345.848,211.478 353,205.5C 353.483,204.552 353.649,203.552 353.5,202.5 Z"/></g>
<g><path style="opacity:1" fill="#163654" d="M 356.5,204.5 C 357.043,204.56 357.376,204.893 357.5,205.5C 354.756,212.242 351.922,218.908 349,225.5C 346.913,224.166 345.413,222.333 344.5,220C 348.333,214.672 352.333,209.505 356.5,204.5 Z"/></g>
<g><path style="opacity:1" fill="#fefffe" d="M 359.5,204.5 C 362.898,204.18 366.232,204.513 369.5,205.5C 366.3,215.934 362.8,226.267 359,236.5C 356.515,233.686 353.681,231.186 350.5,229C 353.12,220.683 356.12,212.516 359.5,204.5 Z"/></g>
<g><path style="opacity:1" fill="#7e7f7e" d="M 334.5,211.5 C 335.404,213.638 336.071,215.971 336.5,218.5C 334.734,221.668 333.901,225.001 334,228.5C 335.325,230.993 337.491,232.16 340.5,232C 343.079,233.612 343.079,235.112 340.5,236.5C 337.441,233.47 333.774,231.803 329.5,231.5C 329.336,228.813 329.503,226.146 330,223.5C 332.002,219.658 333.502,215.658 334.5,211.5 Z"/></g>
<g><path style="opacity:1" fill="#fefffe" d="M 337.5,212.5 C 339.273,213.314 339.773,214.648 339,216.5C 337.812,215.437 337.312,214.103 337.5,212.5 Z"/></g>
<g><path style="opacity:1" fill="#1c1c1c" d="M 388.5,212.5 C 396.094,213.984 403.76,215.151 411.5,216C 418.619,217.035 422.453,221.201 423,228.5C 423.999,233.813 424.332,239.146 424,244.5C 416.789,245.755 409.623,245.255 402.5,243C 401.299,242.097 400.465,240.931 400,239.5C 398.666,232.831 397.333,226.164 396,219.5C 394.855,214.642 392.022,212.809 387.5,214C 388.056,213.617 388.389,213.117 388.5,212.5 Z"/></g>
<g><path style="opacity:1" fill="#fefffe" d="M 376.5,214.5 C 376.167,215.167 375.833,215.833 375.5,216.5C 374.234,218.694 374.234,221.028 375.5,223.5C 375.03,224.463 374.363,224.463 373.5,223.5C 373.802,220.941 373.468,218.607 372.5,216.5C 371.391,215.71 370.058,215.21 368.5,215C 371.146,214.503 373.813,214.336 376.5,214.5 Z"/></g>
<g><path style="opacity:1" fill="#000000" d="M 382.5,218.5 C 381.732,217.737 381.232,216.737 381,215.5C 380.51,216.793 380.343,218.127 380.5,219.5C 379.549,218.081 379.216,216.415 379.5,214.5C 380.5,214.5 381.5,214.5 382.5,214.5C 382.5,215.833 382.5,217.167 382.5,218.5 Z"/></g>
<g><path style="opacity:1" fill="#fefffe" d="M 382.5,218.5 C 382.402,220.553 383.069,222.22 384.5,223.5C 384.44,224.043 384.107,224.376 383.5,224.5C 382.818,223.757 382.151,223.091 381.5,222.5C 381.737,221.209 381.404,220.209 380.5,219.5C 380.343,218.127 380.51,216.793 381,215.5C 381.232,216.737 381.732,217.737 382.5,218.5 Z"/></g>
<g><path style="opacity:1" fill="#1d1e1d" d="M 389.5,215.5 C 391.888,216.219 393.388,217.885 394,220.5C 395.492,227.119 396.659,233.786 397.5,240.5C 395.856,240.286 394.356,240.62 393,241.5C 391.865,233.99 390.031,226.656 387.5,219.5C 387.803,217.886 388.47,216.552 389.5,215.5 Z"/></g>
<g><path style="opacity:1" fill="#26507a" d="M 372.5,216.5 C 373.468,218.607 373.802,220.941 373.5,223.5C 372.833,224.167 372.167,224.833 371.5,225.5C 368.741,225.933 367.408,227.6 367.5,230.5C 369.715,231.268 372.048,231.935 374.5,232.5C 375.184,236.525 376.85,240.192 379.5,243.5C 379.291,244.086 378.957,244.586 378.5,245C 375.183,245.498 371.85,245.665 368.5,245.5C 364.798,243.976 361.464,241.81 358.5,239C 359.416,238.626 360.25,238.126 361,237.5C 363.097,231.695 365.263,226.029 367.5,220.5C 368.833,220.5 369.5,219.833 369.5,218.5C 369.389,217.883 369.056,217.383 368.5,217C 369.793,216.51 371.127,216.343 372.5,216.5 Z"/></g>
<g><path style="opacity:1" fill="#fefffe" d="M 369.5,218.5 C 369.5,219.833 368.833,220.5 367.5,220.5C 367.5,219.167 368.167,218.5 369.5,218.5 Z"/></g>
<g><path style="opacity:1" fill="#fefffe" d="M 344.5,236.5 C 343.577,233.204 342.577,229.871 341.5,226.5C 341.577,224.701 342.077,223.034 343,221.5C 344.14,224.621 345.973,227.121 348.5,229C 347.527,231.784 346.194,234.284 344.5,236.5 Z"/></g>
<g><path style="opacity:1" fill="#fefffe" d="M 371.5,225.5 C 376.875,225.172 382.208,225.505 387.5,226.5C 388.246,227.736 388.579,229.07 388.5,230.5C 381.5,230.5 374.5,230.5 367.5,230.5C 367.408,227.6 368.741,225.933 371.5,225.5 Z"/></g>
<g><path style="opacity:1" fill="#7e7f7e" d="M 406.5,226.5 C 408.029,226.319 409.696,225.986 411.5,225.5C 413.197,226.364 414.363,227.697 415,229.5C 415.249,228.376 415.749,227.376 416.5,226.5C 416.833,227 417.167,227.5 417.5,228C 416.368,230.133 414.868,231.966 413,233.5C 410.669,231.335 408.502,229.001 406.5,226.5 Z"/></g>
<g><path style="opacity:1" fill="#000000" d="M 410.5,227.5 C 413.275,227.834 413.941,229.167 412.5,231.5C 411.295,230.423 410.628,229.09 410.5,227.5 Z"/></g>
<g><path style="opacity:1" fill="#fefffe" d="M 349.5,231.5 C 352.658,232.313 355.324,233.98 357.5,236.5C 354.947,239.314 353.447,242.647 353,246.5C 350.586,244.709 348.086,243.043 345.5,241.5C 347.741,238.539 349.075,235.206 349.5,231.5 Z"/></g>
<g><path style="opacity:1" fill="#fbfbfb" d="M 374.5,232.5 C 374.56,231.957 374.893,231.624 375.5,231.5C 376.17,233.291 376.837,234.958 377.5,236.5C 377.229,238.38 377.896,239.713 379.5,240.5C 382.333,245.456 383.167,250.789 382,256.5C 380.595,253.381 380.095,250.048 380.5,246.5C 377.287,246.19 374.287,246.523 371.5,247.5C 369.973,247.573 368.973,246.906 368.5,245.5C 371.85,245.665 375.183,245.498 378.5,245C 378.957,244.586 379.291,244.086 379.5,243.5C 376.85,240.192 375.184,236.525 374.5,232.5 Z"/></g>
<g><path style="opacity:1" fill="#26537f" d="M 379.5,240.5 C 377.896,239.713 377.229,238.38 377.5,236.5C 377.5,234.833 377.5,233.167 377.5,231.5C 378.5,231.5 379.5,231.5 380.5,231.5C 380.81,234.713 380.477,237.713 379.5,240.5 Z"/></g>
<g><path style="opacity:1" fill="#26537f" d="M 391.5,250.5 C 392.167,250.5 392.5,250.833 392.5,251.5C 392.5,251.833 392.5,252.167 392.5,252.5C 392.469,257.991 394.802,259.491 399.5,257C 397.942,256.79 396.609,256.29 395.5,255.5C 395.47,254.503 395.97,253.836 397,253.5C 398.766,254.233 400.599,254.567 402.5,254.5C 402.263,255.791 402.596,256.791 403.5,257.5C 403.586,258.496 403.252,259.329 402.5,260C 397.5,260.779 392.5,261.112 387.5,261C 388.056,260.617 388.389,260.117 388.5,259.5C 389.555,256.927 389.722,254.261 389,251.5C 387.89,249.963 386.39,249.297 384.5,249.5C 383.776,247.782 383.109,245.948 382.5,244C 383.464,239.934 383.797,235.767 383.5,231.5C 385.467,231.261 387.301,231.594 389,232.5C 389.645,238.673 390.478,244.673 391.5,250.5 Z"/></g>
<g><path style="opacity:1" fill="#fec90d" d="M 334.5,237.5 C 333.094,237.973 332.427,238.973 332.5,240.5C 330.527,239.513 328.527,238.513 326.5,237.5C 326.167,238.833 325.833,240.167 325.5,241.5C 326.186,244.628 327.019,247.628 328,250.5C 326.615,249.449 325.615,248.116 325,246.5C 324.044,242.658 323.21,238.825 322.5,235C 325.633,233.43 328.967,233.097 332.5,234C 333.973,234.71 334.64,235.876 334.5,237.5 Z"/></g>
<g><path style="opacity:1" fill="#22aa49" d="M 339.5,239.5 C 336.763,242.983 335.097,246.983 334.5,251.5C 333.842,252.398 333.176,253.398 332.5,254.5C 331.065,253.071 330.065,251.405 329.5,249.5C 330.308,246.408 331.308,243.408 332.5,240.5C 332.427,238.973 333.094,237.973 334.5,237.5C 336.443,235.552 338.11,236.218 339.5,239.5 Z"/></g>
<g><path style="opacity:1" fill="#fefffe" d="M 344.5,236.5 C 344.719,237.675 344.386,238.675 343.5,239.5C 342.335,238.14 342.668,237.14 344.5,236.5 Z"/></g>
<g><path style="opacity:1" fill="#785d08" d="M 339.5,239.5 C 342.803,241.939 343.303,244.939 341,248.5C 339.723,250.731 337.889,252.398 335.5,253.5C 334.702,253.043 334.369,252.376 334.5,251.5C 335.097,246.983 336.763,242.983 339.5,239.5 Z"/></g>
<g><path style="opacity:1" fill="#1d1e1d" d="M 356.5,240.5 C 370.623,250.783 384.623,261.283 398.5,272C 388.859,268.003 379.859,262.669 371.5,256C 367.017,251.928 362.351,248.094 357.5,244.5C 356.571,243.311 356.238,241.978 356.5,240.5 Z"/></g>
<g><path style="opacity:1" fill="#fefffe" d="M 371.5,240.5 C 373.337,240.639 373.67,241.306 372.5,242.5C 371.702,242.043 371.369,241.376 371.5,240.5 Z"/></g>
<g><path style="opacity:1" fill="#d2d2d2" d="M 400.5,247.5 C 400.573,249.027 399.906,250.027 398.5,250.5C 396.565,251.15 394.565,251.483 392.5,251.5C 392.5,250.833 392.167,250.5 391.5,250.5C 391.34,248.801 391.506,247.134 392,245.5C 392.333,246.167 392.667,246.833 393,247.5C 393.695,242.701 396.195,241.368 400.5,243.5C 400.5,244.833 400.5,246.167 400.5,247.5 Z"/></g>
<g><path style="opacity:1" fill="#fefffe" d="M 344.5,243.5 C 352.708,244.981 355.042,249.314 351.5,256.5C 348.5,254.333 345.5,252.167 342.5,250C 344.229,248.211 344.896,246.044 344.5,243.5 Z"/></g>
<g><path style="opacity:1" fill="#eee4af" d="M 405.5,248.5 C 404.596,249.209 404.263,250.209 404.5,251.5C 402.099,253.062 400.099,252.729 398.5,250.5C 399.906,250.027 400.573,249.027 400.5,247.5C 401.779,246.032 403.446,245.365 405.5,245.5C 405.5,246.5 405.5,247.5 405.5,248.5 Z"/></g>
<g><path style="opacity:1" fill="#ded5ae" d="M 419.5,249.5 C 418.611,252.948 416.277,254.281 412.5,253.5C 409.303,253.019 406.637,252.352 404.5,251.5C 404.263,250.209 404.596,249.209 405.5,248.5C 407.039,246.018 408.539,246.018 410,248.5C 410.333,247.833 410.667,247.167 411,246.5C 414.254,246.838 417.088,247.838 419.5,249.5 Z"/></g>
<g><path style="opacity:1" fill="#eee4af" d="M 424.5,246.5 C 425.465,247.721 425.298,249.054 424,250.5C 423.421,249.072 423.588,247.738 424.5,246.5 Z"/></g>
<g><path style="opacity:1" fill="#296296" d="M 371.5,247.5 C 374.167,247.5 376.833,247.5 379.5,247.5C 379.663,249.857 379.497,252.19 379,254.5C 375.954,252.617 373.454,250.284 371.5,247.5 Z"/></g>
<g><path style="opacity:1" fill="#fefffe" d="M 419.5,249.5 C 420.151,248.909 420.818,248.243 421.5,247.5C 422.666,249.365 422.333,251.032 420.5,252.5C 419.614,251.675 419.281,250.675 419.5,249.5 Z"/></g>
<g><path style="opacity:1" fill="#fec90d" d="M 384.5,249.5 C 386.39,249.297 387.89,249.963 389,251.5C 389.722,254.261 389.555,256.927 388.5,259.5C 386.62,259.771 385.287,259.104 384.5,257.5C 388.35,257.299 389.35,255.466 387.5,252C 386.552,251.517 385.552,251.351 384.5,251.5C 384.5,250.833 384.5,250.167 384.5,249.5 Z"/></g>
<g><path style="opacity:1" fill="#1d1e1d" d="M 354.5,250.5 C 376.001,262.416 397.334,274.582 418.5,287C 417.299,287.903 416.465,289.069 416,290.5C 395.621,279.393 375.455,267.893 355.5,256C 354.594,254.301 354.261,252.467 354.5,250.5 Z"/></g>
<g><path style="opacity:1" fill="#224263" d="M 384.5,251.5 C 385.552,251.351 386.552,251.517 387.5,252C 389.35,255.466 388.35,257.299 384.5,257.5C 383.167,255.5 383.167,253.5 384.5,251.5 Z"/></g>
<g><path style="opacity:1" fill="#22b14b" d="M 340.5,252.5 C 343.81,253.871 343.977,255.204 341,256.5C 339.666,255.122 339.499,253.789 340.5,252.5 Z"/></g>
<g><path style="opacity:1" fill="#fec90d" d="M 392.5,252.5 C 393.728,253.306 394.728,254.306 395.5,255.5C 396.609,256.29 397.942,256.79 399.5,257C 394.802,259.491 392.469,257.991 392.5,252.5 Z"/></g>
<g><path style="opacity:1" fill="#fefffe" d="M 403.5,257.5 C 403.281,256.325 403.614,255.325 404.5,254.5C 405.614,255.723 405.781,257.056 405,258.5C 404.617,257.944 404.117,257.611 403.5,257.5 Z"/></g>
<g><path style="opacity:1" fill="#22b14b" d="M 342.5,256.5 C 347.236,256.885 347.569,258.219 343.5,260.5C 341.824,259.272 341.491,257.939 342.5,256.5 Z"/></g>
<g><path style="opacity:1" fill="#275b8c" d="M 349.5,272.5 C 344.353,276.803 339.02,280.97 333.5,285C 336.77,284.537 339.77,283.204 342.5,281C 343.833,280.333 345.167,280.333 346.5,281C 340.152,287.012 333.485,292.679 326.5,298C 331.482,297.728 336.482,297.228 341.5,296.5C 341.719,297.675 341.386,298.675 340.5,299.5C 337.338,300.365 334.338,301.365 331.5,302.5C 327.524,303.295 323.524,303.962 319.5,304.5C 317.856,303.684 316.69,302.35 316,300.5C 315.667,300.833 315.333,301.167 315,301.5C 314.333,298.833 314.333,296.167 315,293.5C 320.059,281.714 325.393,270.047 331,258.5C 333.003,256.078 335.503,255.245 338.5,256C 337.167,257.84 337.334,258.34 339,257.5C 341.274,261.714 343.274,266.047 345,270.5C 346.11,272.037 347.61,272.703 349.5,272.5 Z"/></g>
<g><path style="opacity:1" fill="#163654" d="M 341.5,296.5 C 336.482,297.228 331.482,297.728 326.5,298C 333.485,292.679 340.152,287.012 346.5,281C 345.167,280.333 343.833,280.333 342.5,281C 339.77,283.204 336.77,284.537 333.5,285C 339.02,280.97 344.353,276.803 349.5,272.5C 351.505,270.666 353.672,268.999 356,267.5C 355.912,264.358 354.412,261.858 351.5,260C 352.872,259.598 354.205,259.098 355.5,258.5C 359.833,261 364.167,263.5 368.5,266C 358.148,275.172 349.148,285.339 341.5,296.5 Z"/></g>
<g><path style="opacity:1" fill="#fef200" d="M 346.5,259.5 C 349.563,261.051 352.229,263.218 354.5,266C 352.333,267.5 350.167,269 348,270.5C 346.697,268.06 345.53,265.56 344.5,263C 344.978,261.697 345.645,260.531 346.5,259.5 Z"/></g>
<g><path style="opacity:1" fill="#285d8e" d="M 403.5,261.5 C 406.121,261.477 407.455,262.811 407.5,265.5C 407.453,268.412 407.119,271.412 406.5,274.5C 403.696,272.862 401.029,271.029 398.5,269C 399.5,268.667 400.5,268.333 401.5,268C 399.5,267.667 397.5,267.333 395.5,267C 394.449,265.615 393.116,264.615 391.5,264C 395.609,263.056 399.609,262.222 403.5,261.5 Z"/></g>
<g><path style="opacity:1" fill="#163654" d="M 398.5,284.5 C 392.107,282.985 385.774,281.319 379.5,279.5C 377.734,276.913 377.067,274.247 377.5,271.5C 384.825,275.53 391.825,279.863 398.5,284.5 Z"/></g>
<g><path style="opacity:1" fill="#296296" d="M 379.5,279.5 C 385.774,281.319 392.107,282.985 398.5,284.5C 400.819,284.992 402.819,285.992 404.5,287.5C 400.154,287.666 395.821,287.499 391.5,287C 388.321,285.539 384.988,284.705 381.5,284.5C 380.559,282.95 379.893,281.284 379.5,279.5 Z"/></g>
<g><path style="opacity:1" fill="#163654" d="M 381.5,284.5 C 384.988,284.705 388.321,285.539 391.5,287C 395.821,287.499 400.154,287.666 404.5,287.5C 405.708,288.234 407.041,288.567 408.5,288.5C 408.5,289.5 408.5,290.5 408.5,291.5C 400.808,293.802 393.308,293.136 386,289.5C 385.5,289.833 385,290.167 384.5,290.5C 386.358,292.524 388.025,294.691 389.5,297C 388.552,297.483 387.552,297.649 386.5,297.5C 384.266,293.478 382.599,289.144 381.5,284.5 Z"/></g>
<g><path style="opacity:1" fill="#fec90d" d="M 420.5,287.5 C 426.356,289.092 432.023,291.258 437.5,294C 430.639,296.112 424.306,294.945 418.5,290.5C 419.193,289.482 419.859,288.482 420.5,287.5 Z"/></g>
<g><path style="opacity:1" fill="#265d8e" d="M 408.5,291.5 C 409.761,297.54 411.095,303.54 412.5,309.5C 407.718,312.449 402.718,312.949 397.5,311C 394.944,307.942 391.944,305.442 388.5,303.5C 386.926,301.898 386.259,299.898 386.5,297.5C 387.552,297.649 388.552,297.483 389.5,297C 388.025,294.691 386.358,292.524 384.5,290.5C 385,290.167 385.5,289.833 386,289.5C 393.308,293.136 400.808,293.802 408.5,291.5 Z"/></g>
<g><path style="opacity:1" fill="#15304a" d="M 331.5,302.5 C 332.5,302.5 333.5,302.5 334.5,302.5C 332.369,304.685 329.703,306.018 326.5,306.5C 327.347,307.845 328.513,308.845 330,309.5C 330.495,311.473 330.662,313.473 330.5,315.5C 329.127,315.657 327.793,315.49 326.5,315C 323.944,311.942 320.944,309.442 317.5,307.5C 317.932,306.29 318.599,305.29 319.5,304.5C 323.524,303.962 327.524,303.295 331.5,302.5 Z"/></g>
<g><path style="opacity:1" fill="#296296" d="M 334.5,302.5 C 336.698,305.706 337.031,309.206 335.5,313C 336.567,316.766 337.233,320.599 337.5,324.5C 335.04,337.223 333.373,350.056 332.5,363C 332.536,365.094 332.869,367.094 333.5,369C 329.485,371.801 325.152,372.301 320.5,370.5C 319.014,357.746 318.014,345.079 317.5,332.5C 317.5,324.167 317.5,315.833 317.5,307.5C 320.944,309.442 323.944,311.942 326.5,315C 327.793,315.49 329.127,315.657 330.5,315.5C 330.662,313.473 330.495,311.473 330,309.5C 328.513,308.845 327.347,307.845 326.5,306.5C 329.703,306.018 332.369,304.685 334.5,302.5 Z"/></g>
<g><path style="opacity:1" fill="#296296" d="M 317.5,332.5 C 317.666,341.839 317.5,351.173 317,360.5C 316.255,363.545 314.922,366.211 313,368.5C 311.72,368.387 310.887,367.72 310.5,366.5C 313.164,361.842 314.664,356.842 315,351.5C 315.333,335.5 315.667,319.5 316,303.5C 316.17,313.342 316.67,323.009 317.5,332.5 Z"/></g>
<g><path style="opacity:1" fill="#163654" d="M 388.5,303.5 C 391.944,305.442 394.944,307.942 397.5,311C 402.718,312.949 407.718,312.449 412.5,309.5C 412.5,310.167 412.5,310.833 412.5,311.5C 407.575,314.332 402.242,315.166 396.5,314C 394.19,312.363 392.69,310.196 392,307.5C 390.887,306.695 389.721,306.028 388.5,305.5C 388.5,304.833 388.5,304.167 388.5,303.5 Z"/></g>
<g><path style="opacity:1" fill="#286093" d="M 388.5,305.5 C 389.721,306.028 390.887,306.695 392,307.5C 392.69,310.196 394.19,312.363 396.5,314C 402.242,315.166 407.575,314.332 412.5,311.5C 414.9,319.663 416.734,327.997 418,336.5C 418.445,350.525 418.779,364.525 419,378.5C 418.221,379.728 417.221,380.728 416,381.5C 409.923,383.358 404.257,382.692 399,379.5C 397.979,362.808 396.646,346.142 395,329.5C 393.409,321.393 391.242,313.393 388.5,305.5 Z"/></g>
<g><path style="opacity:1" fill="#1d1d1d" d="M 316.5,367.5 C 318.085,368.474 319.085,369.974 319.5,372C 323.142,372.914 326.808,373.748 330.5,374.5C 331.373,376.413 332.373,378.247 333.5,380C 328.72,381.708 323.72,382.542 318.5,382.5C 318.725,378.944 317.892,378.61 316,381.5C 309.256,379.215 303.423,375.548 298.5,370.5C 301.836,369.76 305.17,369.094 308.5,368.5C 309.833,369.5 311.167,370.5 312.5,371.5C 314.518,370.187 315.685,370.853 316,373.5C 316.495,371.527 316.662,369.527 316.5,367.5 Z"/></g>
</svg>
