<?xml version="1.0" encoding="UTF-8"?>
<!DOCTYPE svg PUBLIC "-//W3C//DTD SVG 1.1//EN" "http://www.w3.org/Graphics/SVG/1.1/DTD/svg11.dtd">
<svg xmlns="http://www.w3.org/2000/svg" version="1.1" width="493px" height="452px" style="shape-rendering:geometricPrecision; text-rendering:geometricPrecision; image-rendering:optimizeQuality; fill-rule:evenodd; clip-rule:evenodd" xmlns:xlink="http://www.w3.org/1999/xlink">
<g><path style="opacity:1" fill="#fefffe" d="M -0.5,-0.5 C 163.833,-0.5 328.167,-0.5 492.5,-0.5C 492.5,150.167 492.5,300.833 492.5,451.5C 328.167,451.5 163.833,451.5 -0.5,451.5C -0.5,300.833 -0.5,150.167 -0.5,-0.5 Z"/></g>
<g><path style="opacity:1" fill="#030202" d="M 130.5,73.5 C 138.963,71.0363 143.297,74.0363 143.5,82.5C 147.555,82.3591 150.555,84.0257 152.5,87.5C 157.362,85.6804 162.362,85.1804 167.5,86C 173.969,96.4351 179.803,107.268 185,118.5C 188.073,117.383 191.24,117.216 194.5,118C 195.46,119.419 196.293,120.919 197,122.5C 200.744,121.374 204.577,121.207 208.5,122C 209.701,122.903 210.535,124.069 211,125.5C 211.832,133.483 212.332,141.483 212.5,149.5C 220.064,147.37 224.064,150.037 224.5,157.5C 234.981,156.58 245.481,156.58 256,157.5C 265.549,157.419 275.049,156.753 284.5,155.5C 299.501,156.454 314.501,156.12 329.5,154.5C 335.019,154.328 340.186,153.328 345,151.5C 350.171,152.768 355.337,152.768 360.5,151.5C 365.956,151.482 370.622,153.316 374.5,157C 396.406,157.172 418.239,157.672 440,158.5C 440.72,160.112 440.554,161.612 439.5,163C 436.311,163.842 433.311,165.175 430.5,167C 407.481,168.434 384.481,170.101 361.5,172C 359.654,173.999 357.321,174.832 354.5,174.5C 350.949,173.401 347.449,173.401 344,174.5C 341.094,174.555 338.427,173.888 336,172.5C 324.502,173.27 313.002,174.103 301.5,175C 298.508,177.11 295.175,178.443 291.5,179C 275.387,179.517 259.387,180.684 243.5,182.5C 244.927,188.763 247.094,194.763 250,200.5C 250.964,208.787 249.964,216.787 247,224.5C 240.249,226.915 233.416,227.082 226.5,225C 222.884,222.258 220.384,218.758 219,214.5C 217.596,222.268 220.429,227.935 227.5,231.5C 236.534,225.74 242.534,228.074 245.5,238.5C 249.527,239.605 253.527,240.771 257.5,242C 259.359,243.558 260.859,245.391 262,247.5C 264.436,261.113 266.769,274.78 269,288.5C 271.816,299.936 274.816,311.27 278,322.5C 284.074,327.581 290.407,332.248 297,336.5C 299.748,344.378 297.248,349.211 289.5,351C 281.228,352.082 273.228,351.082 265.5,348C 259.833,347.667 254.167,347.333 248.5,347C 247.884,345.6 247.551,344.1 247.5,342.5C 248.386,337.186 249.053,331.853 249.5,326.5C 247.473,326.662 245.473,326.495 243.5,326C 242.874,325.25 242.374,324.416 242,323.5C 240.574,315.853 239.241,308.186 238,300.5C 237.479,297.126 236.146,294.126 234,291.5C 233.825,287.789 233.325,284.122 232.5,280.5C 226.241,281.99 219.908,283.157 213.5,284C 210,287.5 206.5,291 203,294.5C 202.986,296.471 203.319,298.471 204,300.5C 211.686,308.063 213.352,316.729 209,326.5C 207.59,327.787 206.09,328.954 204.5,330C 199.245,331.047 194.245,330.547 189.5,328.5C 188.571,329.689 188.238,331.022 188.5,332.5C 185.432,333.022 182.432,333.855 179.5,335C 172.274,339.78 164.608,343.78 156.5,347C 151.833,347.667 147.167,347.667 142.5,347C 139.333,344.5 136.167,342 133,339.5C 132.441,331.742 133.107,324.076 135,316.5C 138.245,305.764 142.078,295.264 146.5,285C 141.128,285.068 137.628,282.568 136,277.5C 135.333,271.5 135.333,265.5 136,259.5C 136.901,256.929 138.234,254.596 140,252.5C 140.333,248.833 140.667,245.167 141,241.5C 144.305,236.384 147.472,231.217 150.5,226C 149.206,223.913 148.039,221.746 147,219.5C 123.241,229.072 114.241,221.406 120,196.5C 125.38,190.194 128.046,182.86 128,174.5C 130.03,171.774 131.53,168.774 132.5,165.5C 128.432,156.57 126.599,147.237 127,137.5C 129.295,135.062 132.128,133.562 135.5,133C 131.301,128.466 126.801,124.299 122,120.5C 121.333,117.167 121.333,113.833 122,110.5C 124.739,107.882 127.573,105.382 130.5,103C 128.059,99.9886 126.893,96.4886 127,92.5C 125.333,91.5 123.667,90.5 122,89.5C 121.333,86.5 121.333,83.5 122,80.5C 124.996,78.2674 127.829,75.9341 130.5,73.5 Z"/></g>
<g><path style="opacity:1" fill="#fef200" d="M 134.5,78.5 C 135.496,78.4142 136.329,78.7476 137,79.5C 138.252,83.9255 136.586,86.5922 132,87.5C 130.107,86.8037 128.274,85.9704 126.5,85C 129.355,82.9692 132.022,80.8025 134.5,78.5 Z"/></g>
<g><path style="opacity:1" fill="#22a949" d="M 146.5,97.5 C 144.537,98.8202 142.537,100.154 140.5,101.5C 133.834,100.07 132.168,96.5704 135.5,91C 133.043,89.8456 133.043,88.5123 135.5,87C 138.596,87.5089 141.929,88.1755 145.5,89C 147.838,91.5417 148.172,94.3751 146.5,97.5 Z"/></g>
<g><path style="opacity:1" fill="#e3d70e" d="M 153.5,99.5 C 153.5,98.8333 153.167,98.5 152.5,98.5C 152.389,97.8826 152.056,97.3826 151.5,97C 154.869,94.3159 158.536,92.1492 162.5,90.5C 164.124,91.8689 164.624,93.5355 164,95.5C 161.629,98.206 158.963,100.539 156,102.5C 155.623,101.058 154.79,100.058 153.5,99.5 Z"/></g>
<g><path style="opacity:1" fill="#fbfbfb" d="M 146.5,97.5 C 148.435,98.1495 150.435,98.4828 152.5,98.5C 153.167,98.5 153.5,98.8333 153.5,99.5C 154.265,102.096 154.599,104.763 154.5,107.5C 153.105,108.815 152.105,108.481 151.5,106.5C 151.336,100.512 148.836,99.179 144,102.5C 142.608,106.22 143.775,108.22 147.5,108.5C 147.5,109.167 147.833,109.5 148.5,109.5C 148.134,110.695 147.301,111.361 146,111.5C 144.433,110.144 142.6,109.477 140.5,109.5C 140.5,106.833 140.5,104.167 140.5,101.5C 142.537,100.154 144.537,98.8202 146.5,97.5 Z"/></g>
<g><path style="opacity:1" fill="#fef200" d="M 162.5,99.5 C 168.848,103.228 173.015,108.562 175,115.5C 169.866,111.367 165.032,106.867 160.5,102C 161.381,101.292 162.047,100.458 162.5,99.5 Z"/></g>
<g><path style="opacity:1" fill="#ec1c23" d="M 151.5,106.5 C 150.5,106.167 149.833,105.5 149.5,104.5C 148.998,102.915 147.998,102.415 146.5,103C 145.316,104.145 145.316,105.312 146.5,106.5C 146.833,107.167 147.167,107.833 147.5,108.5C 143.775,108.22 142.608,106.22 144,102.5C 148.836,99.179 151.336,100.512 151.5,106.5 Z"/></g>
<g><path style="opacity:1" fill="#3f47cc" d="M 149.5,104.5 C 148.5,105.167 147.5,105.833 146.5,106.5C 145.316,105.312 145.316,104.145 146.5,103C 147.998,102.415 148.998,102.915 149.5,104.5 Z"/></g>
<g><path style="opacity:1" fill="#e4d80e" d="M 140.5,109.5 C 141.362,110.39 141.862,111.39 142,112.5C 138.908,115.422 135.408,117.755 131.5,119.5C 129.611,118.396 127.945,117.063 126.5,115.5C 130.536,112.057 134.703,108.724 139,105.5C 139.21,107.058 139.71,108.391 140.5,109.5 Z"/></g>
<g><path style="opacity:1" fill="#a1a1a1" d="M 149.5,104.5 C 149.833,105.5 150.5,106.167 151.5,106.5C 152.105,108.481 153.105,108.815 154.5,107.5C 155.423,106.697 156.423,106.53 157.5,107C 158.376,108.586 159.376,110.086 160.5,111.5C 159.019,112.48 157.685,113.647 156.5,115C 157.047,115.925 157.713,116.758 158.5,117.5C 160.394,115.219 162.728,114.052 165.5,114C 166.642,118.24 166.642,122.573 165.5,127C 164.034,127.635 162.7,128.469 161.5,129.5C 158.148,128.774 154.815,127.941 151.5,127C 148.846,124.928 149.18,123.261 152.5,122C 149.137,120.101 147.137,117.268 146.5,113.5C 151.997,113.781 152.664,112.447 148.5,109.5C 147.833,109.5 147.5,109.167 147.5,108.5C 147.167,107.833 146.833,107.167 146.5,106.5C 147.5,105.833 148.5,105.167 149.5,104.5 Z"/></g>
<g><path style="opacity:1" fill="#fef200" d="M 138.5,117.5 C 140.136,118.749 141.303,120.416 142,122.5C 144.296,127.061 145.963,131.728 147,136.5C 142.413,130.683 139.58,124.35 138.5,117.5 Z"/></g>
<g><path style="opacity:1" fill="#fef200" d="M 177.5,118.5 C 178.848,119.527 179.348,120.86 179,122.5C 171.489,130.673 162.656,137.006 152.5,141.5C 150.646,140.824 150.313,139.824 151.5,138.5C 161.318,133.266 169.984,126.599 177.5,118.5 Z"/></g>
<g><path style="opacity:1" fill="#fefffe" d="M 189.5,121.5 C 190.222,121.918 190.722,122.584 191,123.5C 192.234,132.809 192.567,142.142 192,151.5C 189.987,143.434 188.487,135.268 187.5,127C 187.698,124.879 188.364,123.046 189.5,121.5 Z"/></g>
<g><path style="opacity:1" fill="#c3b279" d="M 201.5,126.5 C 203.911,126.137 205.411,127.137 206,129.5C 206.944,137.156 207.277,144.822 207,152.5C 202.873,152.388 198.706,152.055 194.5,151.5C 194.646,143.804 194.313,136.138 193.5,128.5C 196.373,128.198 199.039,127.531 201.5,126.5 Z"/></g>
<g><path style="opacity:1" fill="#c8b87d" d="M 184.5,127.5 C 185.573,128.251 185.74,129.251 185,130.5C 183.272,129.648 183.105,128.648 184.5,127.5 Z"/></g>
<g><path style="opacity:1" fill="#c7641d" d="M 183.5,131.5 C 182.486,134.689 180.82,137.522 178.5,140C 174.833,142.333 171.167,144.667 167.5,147C 165.26,147.977 162.927,148.477 160.5,148.5C 159.027,147.928 157.693,147.095 156.5,146C 168.134,145.6 176.967,140.434 183,130.5C 183.399,130.728 183.565,131.062 183.5,131.5 Z"/></g>
<g><path style="opacity:1" fill="#e59978" d="M 183.5,131.5 C 185.411,131.574 186.578,132.574 187,134.5C 187.676,138.202 188.509,141.869 189.5,145.5C 189.253,146.713 188.586,147.38 187.5,147.5C 186.432,146.566 185.099,146.232 183.5,146.5C 183.404,142.689 182.738,142.689 181.5,146.5C 176.569,148.748 173.569,152.415 172.5,157.5C 175.967,157.554 178.634,156.054 180.5,153C 183.445,152.861 185.779,151.694 187.5,149.5C 189.176,150.183 189.843,151.517 189.5,153.5C 189.024,156.071 187.69,158.071 185.5,159.5C 182.373,160.125 179.373,161.125 176.5,162.5C 171.57,159.535 167.237,155.869 163.5,151.5C 162.306,150.728 161.306,149.728 160.5,148.5C 162.927,148.477 165.26,147.977 167.5,147C 171.167,144.667 174.833,142.333 178.5,140C 180.82,137.522 182.486,134.689 183.5,131.5 Z"/></g>
<g><path style="opacity:1" fill="#fefffe" d="M 144.5,136.5 C 148.799,139.651 150.633,143.984 150,149.5C 150.975,152.76 152.142,155.927 153.5,159C 152.584,159.374 151.75,159.874 151,160.5C 148.323,152.635 146.156,144.635 144.5,136.5 Z"/></g>
<g><path style="opacity:1" fill="#c1b076" d="M 139.5,137.5 C 140.5,137.5 141.5,137.5 142.5,137.5C 144.088,145.266 146.088,152.933 148.5,160.5C 146.206,162.388 143.539,163.722 140.5,164.5C 138.515,162.543 137.015,160.21 136,157.5C 134.344,152.54 132.844,147.54 131.5,142.5C 131.977,141.522 132.643,140.689 133.5,140C 135.723,139.434 137.723,138.6 139.5,137.5 Z"/></g>
<g><path style="opacity:1" fill="#c6b57c" d="M 161.5,152.5 C 162.167,152.5 162.5,152.833 162.5,153.5C 161.069,156.435 158.736,157.935 155.5,158C 148.467,142.997 150.467,141.164 161.5,152.5 Z"/></g>
<g><path style="opacity:1" fill="#2a1b13" d="M 187.5,147.5 C 187.5,148.167 187.5,148.833 187.5,149.5C 185.779,151.694 183.445,152.861 180.5,153C 178.634,156.054 175.967,157.554 172.5,157.5C 173.569,152.415 176.569,148.748 181.5,146.5C 182.738,142.689 183.404,142.689 183.5,146.5C 185.099,146.232 186.432,146.566 187.5,147.5 Z"/></g>
<g><path style="opacity:1" fill="#fec90d" d="M 161.5,152.5 C 161.842,151.662 162.508,151.328 163.5,151.5C 167.237,155.869 171.57,159.535 176.5,162.5C 175.104,164.373 173.437,164.706 171.5,163.5C 171.167,162.5 170.5,161.833 169.5,161.5C 168.5,159.833 167.167,158.5 165.5,157.5C 164.488,156.128 163.488,154.795 162.5,153.5C 162.5,152.833 162.167,152.5 161.5,152.5 Z"/></g>
<g><path style="opacity:1" fill="#fef200" d="M 190.5,153.5 C 191.833,153.5 192.5,154.167 192.5,155.5C 191.842,156.398 191.176,157.398 190.5,158.5C 190.167,158.333 189.833,158.167 189.5,158C 190.38,156.644 190.714,155.144 190.5,153.5 Z"/></g>
<g><path style="opacity:1" fill="#22b14b" d="M 194.5,159.5 C 193.194,158.533 192.527,157.199 192.5,155.5C 193.467,154.194 194.801,153.527 196.5,153.5C 196.741,155.898 196.074,157.898 194.5,159.5 Z"/></g>
<g><path style="opacity:1" fill="#fefffe" d="M 199.5,154.5 C 203.395,154.857 204.395,156.857 202.5,160.5C 200.802,161.681 199.135,161.681 197.5,160.5C 198.172,158.47 198.838,156.47 199.5,154.5 Z"/></g>
<g><path style="opacity:1" fill="#22aa49" d="M 215.5,157.5 C 216.833,157.833 216.833,158.167 215.5,158.5C 203.193,158.674 202.693,157.341 214,154.5C 214.232,155.737 214.732,156.737 215.5,157.5 Z"/></g>
<g><path style="opacity:1" fill="#fef200" d="M 215.5,158.5 C 216.833,158.167 216.833,157.833 215.5,157.5C 215.281,156.325 215.614,155.325 216.5,154.5C 218.543,155.579 219.876,157.246 220.5,159.5C 215.869,160.662 211.202,160.828 206.5,160C 209.695,159.819 212.695,159.319 215.5,158.5 Z"/></g>
<g><path style="opacity:1" fill="#29100a" d="M 189.5,153.5 C 189.833,153.5 190.167,153.5 190.5,153.5C 190.714,155.144 190.38,156.644 189.5,158C 189.833,158.167 190.167,158.333 190.5,158.5C 191.176,157.398 191.842,156.398 192.5,155.5C 192.527,157.199 193.194,158.533 194.5,159.5C 192.983,159.511 191.816,160.177 191,161.5C 189.556,159.845 187.722,159.178 185.5,159.5C 187.69,158.071 189.024,156.071 189.5,153.5 Z"/></g>
<g><path style="opacity:1" fill="#fec90d" d="M 344.5,156.5 C 346.144,156.286 347.644,156.62 349,157.5C 349.667,161.167 349.667,164.833 349,168.5C 346.733,169.935 344.733,169.602 343,167.5C 342.013,163.525 342.513,159.859 344.5,156.5 Z"/></g>
<g><path style="opacity:1" fill="#fec90d" d="M 358.5,156.5 C 360.75,156.181 362.75,156.681 364.5,158C 362.579,158.36 360.912,159.194 359.5,160.5C 358.965,162.661 358.132,164.661 357,166.5C 355.532,162.995 356.032,159.661 358.5,156.5 Z"/></g>
<g><path style="opacity:1" fill="#239341" d="M 165.5,157.5 C 167.167,158.5 168.5,159.833 169.5,161.5C 169.167,161.5 168.833,161.5 168.5,161.5C 167.209,161.263 166.209,161.596 165.5,162.5C 160.675,161.644 160.675,159.978 165.5,157.5 Z"/></g>
<g><path style="opacity:1" fill="#7e7f7e" d="M 352.5,157.5 C 354.252,157.418 355.252,158.251 355.5,160C 354.227,162.516 354.227,165.016 355.5,167.5C 354.711,169.488 353.545,169.821 352,168.5C 351.245,164.745 351.411,161.078 352.5,157.5 Z"/></g>
<g><path style="opacity:1" fill="#fefffe" d="M 159.5,158.5 C 159.865,160.588 159.865,162.921 159.5,165.5C 158.5,165.5 157.5,165.5 156.5,165.5C 156.545,162.679 157.545,160.346 159.5,158.5 Z"/></g>
<g><path style="opacity:1" fill="#7e7f7e" d="M 324.5,158.5 C 329.875,158.172 335.208,158.505 340.5,159.5C 323.235,161.579 305.902,162.913 288.5,163.5C 288.5,162.5 288.5,161.5 288.5,160.5C 300.703,160.735 312.703,160.068 324.5,158.5 Z"/></g>
<g><path style="opacity:1" fill="#686868" d="M 185.5,159.5 C 187.722,159.178 189.556,159.845 191,161.5C 191.816,160.177 192.983,159.511 194.5,159.5C 194.087,162.32 195.087,164.32 197.5,165.5C 198.512,166.872 199.512,168.205 200.5,169.5C 203.233,171.397 202.9,172.73 199.5,173.5C 195.78,172.88 192.114,172.047 188.5,171C 187.268,168.234 186.268,165.401 185.5,162.5C 185.5,161.5 185.5,160.5 185.5,159.5 Z"/></g>
<g><path style="opacity:1" fill="#7e7f7e" d="M 365.5,159.5 C 389.47,160.304 413.47,160.804 437.5,161C 435.122,161.511 432.788,162.178 430.5,163C 409.309,164.22 388.142,165.72 367,167.5C 358.989,165.989 358.489,163.323 365.5,159.5 Z"/></g>
<g><path style="opacity:1" fill="#22ab49" d="M 141.5,172.5 C 140.508,172.672 139.842,172.338 139.5,171.5C 139.5,169.833 139.5,168.167 139.5,166.5C 145.08,165.584 150.247,163.584 155,160.5C 155.18,162.488 155.014,164.488 154.5,166.5C 150.708,166.726 147.041,167.56 143.5,169C 142.915,170.302 142.249,171.469 141.5,172.5 Z"/></g>
<g><path style="opacity:1" fill="#7e7f7e" d="M 273.5,160.5 C 275.833,160.5 278.167,160.5 280.5,160.5C 280.5,161.5 280.5,162.5 280.5,163.5C 266.176,164.143 251.842,164.476 237.5,164.5C 237.5,163.5 237.5,162.5 237.5,161.5C 249.678,161.828 261.678,161.495 273.5,160.5 Z"/></g>
<g><path style="opacity:1" fill="#fec90d" d="M 282.5,160.5 C 283.833,160.5 285.167,160.5 286.5,160.5C 286.15,164.054 286.816,167.388 288.5,170.5C 285.871,172.05 284.037,171.384 283,168.5C 282.503,165.854 282.336,163.187 282.5,160.5 Z"/></g>
<g><path style="opacity:1" fill="#000000" d="M 165.5,162.5 C 166.209,161.596 167.209,161.263 168.5,161.5C 168.5,162.167 168.5,162.833 168.5,163.5C 167.609,162.89 166.609,162.557 165.5,162.5 Z"/></g>
<g><path style="opacity:1" fill="#ad201d" d="M 168.5,161.5 C 168.833,161.5 169.167,161.5 169.5,161.5C 170.5,161.833 171.167,162.5 171.5,163.5C 170.652,164.625 169.652,164.625 168.5,163.5C 168.5,162.833 168.5,162.167 168.5,161.5 Z"/></g>
<g><path style="opacity:1" fill="#7e7f7e" d="M 197.5,165.5 C 198.589,163.883 200.256,163.05 202.5,163C 212.85,162.673 223.183,162.173 233.5,161.5C 233.5,162.5 233.5,163.5 233.5,164.5C 221.498,164.763 209.498,165.097 197.5,165.5 Z"/></g>
<g><path style="opacity:1" fill="#fec90d" d="M 234.5,169.5 C 234.187,166.753 234.52,164.086 235.5,161.5C 236.662,166.131 236.828,170.798 236,175.5C 235.809,173.292 235.309,171.292 234.5,169.5 Z"/></g>
<g><path style="opacity:1" fill="#fefffe" d="M 165.5,162.5 C 166.609,162.557 167.609,162.89 168.5,163.5C 166.657,164.283 164.657,164.95 162.5,165.5C 162.167,165.167 161.833,164.833 161.5,164.5C 162.949,163.828 164.282,163.161 165.5,162.5 Z"/></g>
<g><path style="opacity:1" fill="#f4a481" d="M 183.5,163.5 C 178.217,167.056 178.217,170.556 183.5,174C 186.817,174.498 190.15,174.665 193.5,174.5C 194.429,175.315 195.429,176.148 196.5,177C 192.642,178.273 188.642,179.273 184.5,180C 185.5,180.333 186.5,180.667 187.5,181C 185.608,181.973 183.608,182.64 181.5,183C 182.833,183.333 184.167,183.667 185.5,184C 184.584,184.278 183.918,184.778 183.5,185.5C 182.791,186.404 181.791,186.737 180.5,186.5C 178.396,186.799 176.396,186.466 174.5,185.5C 167.667,175.106 170.167,167.44 182,162.5C 182.765,162.57 183.265,162.903 183.5,163.5 Z"/></g>
<g><path style="opacity:1" fill="#986548" d="M 185.5,162.5 C 186.268,165.401 187.268,168.234 188.5,171C 192.114,172.047 195.78,172.88 199.5,173.5C 202.9,172.73 203.233,171.397 200.5,169.5C 202.571,168.191 205.071,167.525 208,167.5C 216.512,166.443 225.012,166.443 233.5,167.5C 232.757,168.182 232.091,168.849 231.5,169.5C 231.167,177.5 230.833,177.5 230.5,169.5C 229.325,169.281 228.325,169.614 227.5,170.5C 226.811,172.444 226.311,174.444 226,176.5C 225.506,174.866 225.34,173.199 225.5,171.5C 224.5,171.5 223.5,171.5 222.5,171.5C 222.662,173.527 222.495,175.527 222,177.5C 221.998,174.949 221.164,172.949 219.5,171.5C 211.116,173.556 202.45,174.556 193.5,174.5C 190.15,174.665 186.817,174.498 183.5,174C 178.217,170.556 178.217,167.056 183.5,163.5C 184.167,163.167 184.833,162.833 185.5,162.5 Z"/></g>
<g><path style="opacity:1" fill="#b87a56" d="M 332.5,162.5 C 335.167,162.5 337.833,162.5 340.5,162.5C 340.5,164.167 340.5,165.833 340.5,167.5C 324.29,168.01 308.123,169.01 292,170.5C 290.606,169.387 289.439,168.053 288.5,166.5C 303.299,164.996 317.966,163.663 332.5,162.5 Z"/></g>
<g><path style="opacity:1" fill="#b87a56" d="M 244.5,170.5 C 245.833,169.833 245.833,169.167 244.5,168.5C 242.369,167.686 240.036,167.186 237.5,167C 251.837,166.511 266.17,166.011 280.5,165.5C 280.357,167.262 280.691,168.929 281.5,170.5C 279.922,171.298 278.256,171.798 276.5,172C 263.5,172.667 250.5,172.667 237.5,172C 240.036,171.814 242.369,171.314 244.5,170.5 Z"/></g>
<g><path style="opacity:1" fill="#b87a56" d="M 163.5,166.5 C 166.187,166.336 168.854,166.503 171.5,167C 170.206,169.087 169.039,171.254 168,173.5C 167.311,172.643 166.478,171.977 165.5,171.5C 159.444,175.398 153.277,179.064 147,182.5C 145.844,178.56 145.01,174.56 144.5,170.5C 151.116,169.903 157.449,168.569 163.5,166.5 Z"/></g>
<g><path style="opacity:1" fill="#707070" d="M 244.5,168.5 C 245.833,169.167 245.833,169.833 244.5,170.5C 235.167,169.833 235.167,169.167 244.5,168.5 Z"/></g>
<g><path style="opacity:1" fill="#fef200" d="M 139.5,171.5 C 139.842,172.338 140.508,172.672 141.5,172.5C 141.611,173.117 141.944,173.617 142.5,174C 138.333,175.167 136.833,173.667 138,169.5C 138.278,170.416 138.778,171.082 139.5,171.5 Z"/></g>
<g><path style="opacity:1" fill="#e99d7c" d="M 231.5,169.5 C 232.5,169.5 233.5,169.5 234.5,169.5C 234.274,172.249 234.607,174.916 235.5,177.5C 234.96,178.748 234.293,179.915 233.5,181C 229.049,182.974 224.382,183.807 219.5,183.5C 219.5,182.833 219.167,182.5 218.5,182.5C 219.344,178.901 219.677,175.234 219.5,171.5C 221.164,172.949 221.998,174.949 222,177.5C 222.495,175.527 222.662,173.527 222.5,171.5C 223.5,171.5 224.5,171.5 225.5,171.5C 225.34,173.199 225.506,174.866 226,176.5C 226.311,174.444 226.811,172.444 227.5,170.5C 228.325,169.614 229.325,169.281 230.5,169.5C 230.833,177.5 231.167,177.5 231.5,169.5 Z"/></g>
<g><path style="opacity:1" fill="#fefffe" d="M 296.5,171.5 C 297.675,171.281 298.675,171.614 299.5,172.5C 298.335,173.584 297.002,174.417 295.5,175C 280.228,176.862 264.895,177.862 249.5,178C 245.045,180.532 241.378,179.698 238.5,175.5C 251.154,174.667 263.82,174.167 276.5,174C 283.39,173.797 290.057,172.964 296.5,171.5 Z"/></g>
<g><path style="opacity:1" fill="#239541" d="M 135.5,174.5 C 137.82,176.226 140.487,176.893 143.5,176.5C 143.851,178.869 144.018,181.203 144,183.5C 142.284,184.552 141.284,183.886 141,181.5C 140.667,182.5 140.333,183.5 140,184.5C 137.713,183.526 135.713,182.193 134,180.5C 133.667,180.833 133.333,181.167 133,181.5C 132.683,178.793 133.516,176.46 135.5,174.5 Z"/></g>
<g><path style="opacity:1" fill="#858585" d="M 167.5,177.5 C 165.14,179.853 162.473,181.853 159.5,183.5C 158.209,183.737 157.209,183.404 156.5,182.5C 159.167,180.167 161.833,177.833 164.5,175.5C 166.025,174.611 167.025,175.278 167.5,177.5 Z"/></g>
<g><path style="opacity:1" fill="#ec1c23" d="M 164.5,175.5 C 161.833,177.833 159.167,180.167 156.5,182.5C 155.957,182.44 155.624,182.107 155.5,181.5C 157.66,178.252 160.66,176.252 164.5,175.5 Z"/></g>
<g><path style="opacity:1" fill="#fec90d" d="M 199.5,180.5 C 198.5,180.833 197.833,181.5 197.5,182.5C 194.833,182.5 192.167,182.5 189.5,182.5C 189.389,181.883 189.056,181.383 188.5,181C 193.662,181.541 197.662,179.708 200.5,175.5C 201.652,177.397 201.319,179.064 199.5,180.5 Z"/></g>
<g><path style="opacity:1" fill="#fefffe" d="M 204.5,175.5 C 209.179,175.334 213.845,175.501 218.5,176C 213.53,177.081 208.53,177.414 203.5,177C 204.056,176.617 204.389,176.117 204.5,175.5 Z"/></g>
<g><path style="opacity:1" fill="#3d45c5" d="M 228.5,187.5 C 229.5,187.5 230.5,187.5 231.5,187.5C 233.552,188.053 233.885,189.053 232.5,190.5C 228.5,191.167 228.5,191.833 232.5,192.5C 234.597,193.879 234.93,195.545 233.5,197.5C 232.425,196.438 231.425,196.438 230.5,197.5C 231.325,198.386 232.325,198.719 233.5,198.5C 234.827,195.678 236.66,193.011 239,190.5C 241.872,195.542 244.039,200.875 245.5,206.5C 245.066,210.994 244.066,215.327 242.5,219.5C 235.31,222.828 229.476,221.161 225,214.5C 223.023,209.566 220.857,204.732 218.5,200C 216.866,199.506 215.199,199.34 213.5,199.5C 211.85,192.898 210.516,186.231 209.5,179.5C 212.141,178.737 214.808,178.57 217.5,179C 215.093,182.62 214.927,186.453 217,190.5C 219.723,198.278 222.723,205.945 226,213.5C 227.684,215.351 229.517,217.018 231.5,218.5C 231.833,218.167 232.167,217.833 232.5,217.5C 227.764,212.156 224.431,205.989 222.5,199C 223.687,196.41 225.52,195.91 228,197.5C 228.221,194.096 227.721,190.762 226.5,187.5C 226.97,186.537 227.637,186.537 228.5,187.5 Z"/></g>
<g><path style="opacity:1" fill="#fefffe" d="M 204.5,179.5 C 205.5,179.5 206.5,179.5 207.5,179.5C 209.019,188.224 210.519,196.89 212,205.5C 209.833,203.17 208.166,200.503 207,197.5C 205.848,191.546 204.015,185.88 201.5,180.5C 202.791,180.737 203.791,180.404 204.5,179.5 Z"/></g>
<g><path style="opacity:1" fill="#fec90d" d="M 166.5,180.5 C 167.5,180.5 168.5,180.5 169.5,180.5C 169.5,181.5 169.5,182.5 169.5,183.5C 168.5,183.5 167.5,183.5 166.5,183.5C 166.5,182.5 166.5,181.5 166.5,180.5 Z"/></g>
<g><path style="opacity:1" fill="#000000" d="M 199.5,180.5 C 199.5,182.833 199.5,185.167 199.5,187.5C 199.167,187.5 198.833,187.5 198.5,187.5C 198.784,185.585 198.451,183.919 197.5,182.5C 197.833,181.5 198.5,180.833 199.5,180.5 Z"/></g>
<g><path style="opacity:1" fill="#3e46c7" d="M 167.5,177.5 C 168.043,177.56 168.376,177.893 168.5,178.5C 167.757,179.182 167.091,179.849 166.5,180.5C 166.5,181.5 166.5,182.5 166.5,183.5C 166.5,184.167 166.5,184.833 166.5,185.5C 166.167,186.5 165.5,187.167 164.5,187.5C 163.833,186.833 163.167,186.167 162.5,185.5C 161.5,185.5 160.5,185.5 159.5,185.5C 159.5,186.5 159.5,187.5 159.5,188.5C 159.833,189.167 160.167,189.833 160.5,190.5C 159.29,190.932 158.29,191.599 157.5,192.5C 159.488,194.601 161.155,197.101 162.5,200C 159.147,202.533 155.481,204.367 151.5,205.5C 146.017,208.278 140.35,210.778 134.5,213C 131.518,213.498 128.518,213.665 125.5,213.5C 124.475,212.626 123.808,211.459 123.5,210C 124.204,206.872 124.704,203.706 125,200.5C 126.558,199.655 127.558,200.321 128,202.5C 128.326,198.148 129.993,194.481 133,191.5C 132.498,195.092 132.498,198.759 133,202.5C 133.815,197.91 135.315,193.577 137.5,189.5C 138.396,188.494 139.062,188.494 139.5,189.5C 138.407,193.108 138.24,196.775 139,200.5C 139.13,195.448 140.463,190.781 143,186.5C 143.846,190.234 145.346,193.568 147.5,196.5C 147.833,196.167 148.167,195.833 148.5,195.5C 146.92,192.277 146.086,188.944 146,185.5C 148.034,183.968 150.201,182.635 152.5,181.5C 154.149,182.648 155.649,183.981 157,185.5C 157.995,184.934 158.828,184.267 159.5,183.5C 162.473,181.853 165.14,179.853 167.5,177.5 Z"/></g>
<g><path style="opacity:1" fill="#830214" d="M 189.5,182.5 C 189.804,183.15 190.137,183.817 190.5,184.5C 182.738,204.693 172.905,223.693 161,241.5C 160.517,240.552 160.351,239.552 160.5,238.5C 161.906,238.027 162.573,237.027 162.5,235.5C 163.11,234.609 163.443,233.609 163.5,232.5C 164.167,232.167 164.833,231.833 165.5,231.5C 173.801,215.233 181.801,198.9 189.5,182.5 Z"/></g>
<g><path style="opacity:1" fill="#1a1e5d" d="M 218.5,182.5 C 219.167,182.5 219.5,182.833 219.5,183.5C 221.969,184.317 224.635,184.817 227.5,185C 224.5,185.667 221.5,185.667 218.5,185C 217.226,184.023 217.226,183.189 218.5,182.5 Z"/></g>
<g><path style="opacity:1" fill="#ec1c23" d="M 236.5,182.5 C 238.525,184.726 238.691,187.059 237,189.5C 235.336,187.214 235.17,184.881 236.5,182.5 Z"/></g>
<g><path style="opacity:1" fill="#3f47cc" d="M 131.5,183.5 C 133.812,184.32 136.146,185.153 138.5,186C 135.734,187.467 133.234,189.3 131,191.5C 130.398,188.779 130.565,186.113 131.5,183.5 Z"/></g>
<g><path style="opacity:1" fill="#000000" d="M 166.5,183.5 C 167.5,183.5 168.5,183.5 169.5,183.5C 168.71,184.401 167.71,185.068 166.5,185.5C 166.5,184.833 166.5,184.167 166.5,183.5 Z"/></g>
<g><path style="opacity:1" fill="#fefffe" d="M 192.5,183.5 C 193.978,183.238 195.311,183.571 196.5,184.5C 192.388,196.73 186.222,207.73 178,217.5C 183.579,206.654 188.412,195.321 192.5,183.5 Z"/></g>
<g><path style="opacity:1" fill="#9e9e9e" d="M 169.5,183.5 C 170.496,183.414 171.329,183.748 172,184.5C 172.45,186.519 173.283,188.352 174.5,190C 173.906,190.464 173.239,190.631 172.5,190.5C 171.207,189.158 170.374,187.491 170,185.5C 167.584,188.423 164.75,190.757 161.5,192.5C 160.662,192.158 160.328,191.492 160.5,190.5C 162.23,189.974 163.564,188.974 164.5,187.5C 165.5,187.167 166.167,186.5 166.5,185.5C 167.71,185.068 168.71,184.401 169.5,183.5 Z"/></g>
<g><path style="opacity:1" fill="#fec90d" d="M 162.5,185.5 C 162.5,186.5 162.5,187.5 162.5,188.5C 161.5,188.5 160.5,188.5 159.5,188.5C 159.5,187.5 159.5,186.5 159.5,185.5C 160.5,185.5 161.5,185.5 162.5,185.5 Z"/></g>
<g><path style="opacity:1" fill="#000000" d="M 162.5,185.5 C 163.167,186.167 163.833,186.833 164.5,187.5C 163.564,188.974 162.23,189.974 160.5,190.5C 160.167,189.833 159.833,189.167 159.5,188.5C 160.5,188.5 161.5,188.5 162.5,188.5C 162.5,187.5 162.5,186.5 162.5,185.5 Z"/></g>
<g><path style="opacity:1" fill="#ec1c23" d="M 172.5,190.5 C 170.166,193.666 167.333,196.333 164,198.5C 162.878,196.593 162.045,194.593 161.5,192.5C 164.75,190.757 167.584,188.423 170,185.5C 170.374,187.491 171.207,189.158 172.5,190.5 Z"/></g>
<g><path style="opacity:1" fill="#fefffe" d="M 183.5,185.5 C 184.376,185.369 185.043,185.702 185.5,186.5C 183.667,188.833 181.833,191.167 180,193.5C 178.708,191.751 177.542,189.918 176.5,188C 178.058,187.79 179.391,187.29 180.5,186.5C 181.791,186.737 182.791,186.404 183.5,185.5 Z"/></g>
<g><path style="opacity:1" fill="#fec90d" d="M 231.5,187.5 C 230.5,187.5 229.5,187.5 228.5,187.5C 229.5,184.833 230.5,184.833 231.5,187.5 Z"/></g>
<g><path style="opacity:1" fill="#acacac" d="M 224.5,188.5 C 222.585,188.784 220.919,188.451 219.5,187.5C 221.364,186.207 223.364,186.207 225.5,187.5C 225.376,188.107 225.043,188.44 224.5,188.5 Z"/></g>
<g><path style="opacity:1" fill="#fefffe" d="M 197.5,191.5 C 196.833,192.167 196.167,192.833 195.5,193.5C 195.687,191.436 196.187,189.436 197,187.5C 197.49,188.793 197.657,190.127 197.5,191.5 Z"/></g>
<g><path style="opacity:1" fill="#ec1c23" d="M 198.5,187.5 C 198.833,187.5 199.167,187.5 199.5,187.5C 199.5,189.167 199.5,190.833 199.5,192.5C 198.672,198.653 198.172,204.987 198,211.5C 197.5,204.842 197.334,198.175 197.5,191.5C 198.434,190.432 198.768,189.099 198.5,187.5 Z"/></g>
<g><path style="opacity:1" fill="#3c44bf" d="M 199.5,192.5 C 200.163,190.958 200.83,189.291 201.5,187.5C 203.124,195.747 206.624,203.08 212,209.5C 212.706,214.176 213.04,218.843 213,223.5C 211.129,222.003 210.129,220.003 210,217.5C 209.751,218.624 209.251,219.624 208.5,220.5C 204.444,218.612 201.61,215.612 200,211.5C 199.5,205.175 199.334,198.842 199.5,192.5 Z"/></g>
<g><path style="opacity:1" fill="#ec1c23" d="M 219.5,187.5 C 220.919,188.451 222.585,188.784 224.5,188.5C 224.936,191.364 224.103,193.697 222,195.5C 220.744,193.246 219.577,190.912 218.5,188.5C 218.624,187.893 218.957,187.56 219.5,187.5 Z"/></g>
<g><path style="opacity:1" fill="#151225" d="M 152.5,189.5 C 152.5,190.5 152.5,191.5 152.5,192.5C 153.5,192.5 154.5,192.5 155.5,192.5C 155.5,191.5 155.5,190.5 155.5,189.5C 156.167,190.5 156.833,191.5 157.5,192.5C 156.594,194.914 154.928,195.747 152.5,195C 151.193,193.057 151.193,191.223 152.5,189.5 Z"/></g>
<g><path style="opacity:1" fill="#fec90d" d="M 152.5,189.5 C 153.5,189.5 154.5,189.5 155.5,189.5C 155.5,190.5 155.5,191.5 155.5,192.5C 154.5,192.5 153.5,192.5 152.5,192.5C 152.5,191.5 152.5,190.5 152.5,189.5 Z"/></g>
<g><path style="opacity:1" fill="#fec90d" d="M 232.5,190.5 C 232.5,191.167 232.5,191.833 232.5,192.5C 228.5,191.833 228.5,191.167 232.5,190.5 Z"/></g>
<g><path style="opacity:1" fill="#fefffe" d="M 175.5,191.5 C 176.601,192.848 177.601,194.348 178.5,196C 177.213,197.41 176.046,198.91 175,200.5C 173.341,199.183 172.174,197.517 171.5,195.5C 172.867,194.16 174.2,192.827 175.5,191.5 Z"/></g>
<g><path style="opacity:1" fill="#fec90d" d="M 195.5,193.5 C 195.5,194.5 195.5,195.5 195.5,196.5C 193.443,196.043 193.443,195.043 195.5,193.5 Z"/></g>
<g><path style="opacity:1" fill="#fefffe" d="M 180.5,195.5 C 181.043,195.56 181.376,195.893 181.5,196.5C 175.675,206.456 170.508,216.79 166,227.5C 162.352,231.417 158.685,235.417 155,239.5C 154.148,234.998 154.648,230.665 156.5,226.5C 160.81,224.024 164.31,220.69 167,216.5C 172.009,209.811 176.509,202.811 180.5,195.5 Z"/></g>
<g><path style="opacity:1" fill="#f1f1f1" d="M 195.5,196.5 C 196.843,198.683 196.51,200.683 194.5,202.5C 194.5,203.167 194.5,203.833 194.5,204.5C 196.14,205.79 196.64,207.457 196,209.5C 193.982,207.65 192.149,205.65 190.5,203.5C 191.747,201.677 192.414,199.677 192.5,197.5C 193.791,197.737 194.791,197.404 195.5,196.5 Z"/></g>
<g><path style="opacity:1" fill="#fec90d" d="M 233.5,197.5 C 233.5,197.833 233.5,198.167 233.5,198.5C 232.325,198.719 231.325,198.386 230.5,197.5C 231.425,196.438 232.425,196.438 233.5,197.5 Z"/></g>
<g><path style="opacity:1" fill="#f6f6f6" d="M 167.5,207.5 C 166.833,207.5 166.167,207.5 165.5,207.5C 163.353,205.322 163.353,203.322 165.5,201.5C 166.27,199.701 167.603,198.368 169.5,197.5C 171.027,199.193 172.36,201.027 173.5,203C 172,205.167 170.5,207.333 169,209.5C 168.722,208.584 168.222,207.918 167.5,207.5 Z"/></g>
<g><path style="opacity:1" fill="#fec90d" d="M 165.5,201.5 C 162.999,201.489 162.832,200.822 165,199.5C 165.464,200.094 165.631,200.761 165.5,201.5 Z"/></g>
<g><path style="opacity:1" fill="#fec90d" d="M 194.5,202.5 C 197.167,203.167 197.167,203.833 194.5,204.5C 194.5,203.833 194.5,203.167 194.5,202.5 Z"/></g>
<g><path style="opacity:1" fill="#3c43bc" d="M 159.5,203.5 C 165.821,211.754 164.654,218.754 156,224.5C 153.632,220.101 152.132,215.435 151.5,210.5C 154.198,208.159 156.865,205.826 159.5,203.5 Z"/></g>
<g><path style="opacity:1" fill="#1b1f65" d="M 151.5,205.5 C 148.448,209.058 145.114,212.558 141.5,216C 137.203,217.092 132.869,217.425 128.5,217C 126.574,216.578 125.574,215.411 125.5,213.5C 128.518,213.665 131.518,213.498 134.5,213C 140.35,210.778 146.017,208.278 151.5,205.5 Z"/></g>
<g><path style="opacity:1" fill="#fefffe" d="M 188.5,206.5 C 199.981,216.475 211.648,226.309 223.5,236C 219.375,236.854 215.375,236.52 211.5,235C 201.755,228.754 192.755,221.587 184.5,213.5C 185.861,211.15 187.194,208.816 188.5,206.5 Z"/></g>
<g><path style="opacity:1" fill="#fec90d" d="M 165.5,207.5 C 166.167,207.5 166.833,207.5 167.5,207.5C 166.833,210.167 166.167,210.167 165.5,207.5 Z"/></g>
<g><path style="opacity:1" fill="#fefffe" d="M 165.5,210.5 C 167.973,210.947 168.14,211.947 166,213.5C 165.517,212.552 165.351,211.552 165.5,210.5 Z"/></g>
<g><path style="opacity:1" fill="#f5f5f5" d="M 195.5,228.5 C 195.5,229.833 196.167,230.5 197.5,230.5C 198.765,232.357 198.432,234.024 196.5,235.5C 196.5,236.167 196.5,236.833 196.5,237.5C 193.645,238.803 190.645,238.803 187.5,237.5C 187.167,236.833 186.833,236.167 186.5,235.5C 189.255,234.369 191.589,232.702 193.5,230.5C 192.426,229.92 191.426,230.42 190.5,232C 186.889,233.254 185.389,232.088 186,228.5C 190.569,225.505 190.069,224.838 184.5,226.5C 183.819,222.803 183.319,219.136 183,215.5C 187.5,219.333 192,223.167 196.5,227C 195.944,227.383 195.611,227.883 195.5,228.5 Z"/></g>
<g><path style="opacity:1" fill="#fefffe" d="M 172.5,228.5 C 173.922,223.566 176.756,219.566 181,216.5C 182.669,220.125 183.169,223.791 182.5,227.5C 179.242,228.417 175.909,228.751 172.5,228.5 Z"/></g>
<g><path style="opacity:1" fill="#f2f2f2" d="M 172.5,228.5 C 176.298,229.483 180.298,229.817 184.5,229.5C 184.5,230.833 184.5,232.167 184.5,233.5C 182.143,233.337 179.81,233.503 177.5,234C 180.146,234.497 182.813,234.664 185.5,234.5C 185.421,235.93 185.754,237.264 186.5,238.5C 184.369,239.169 182.369,239.835 180.5,240.5C 178.114,240.741 176.114,240.075 174.5,238.5C 173.167,238.5 172.5,239.167 172.5,240.5C 172.158,241.338 171.492,241.672 170.5,241.5C 170.185,238.789 170.852,236.456 172.5,234.5C 172.5,233.833 172.5,233.167 172.5,232.5C 169.833,231.167 169.833,229.833 172.5,228.5 Z"/></g>
<g><path style="opacity:1" fill="#fec90d" d="M 195.5,228.5 C 196.833,228.5 197.5,229.167 197.5,230.5C 197.5,229.167 196.833,228.5 195.5,228.5 Z"/></g>
<g><path style="opacity:1" fill="#3f47cc" d="M 165.5,231.5 C 164.833,231.833 164.167,232.167 163.5,232.5C 164.032,229.54 164.699,229.207 165.5,231.5 Z"/></g>
<g><path style="opacity:1" fill="#ec1c23" d="M 201.5,233.5 C 201.5,234.167 201.5,234.833 201.5,235.5C 199.559,233.989 199.059,231.989 200,229.5C 200.21,231.058 200.71,232.391 201.5,233.5 Z"/></g>
<g><path style="opacity:1" fill="#3b41b5" d="M 204.5,236.5 C 203.833,236.167 203.167,235.833 202.5,235.5C 202.167,235.5 201.833,235.5 201.5,235.5C 201.5,234.833 201.5,234.167 201.5,233.5C 201.351,232.448 201.517,231.448 202,230.5C 203.558,232.359 205.391,233.859 207.5,235C 206.263,235.232 205.263,235.732 204.5,236.5 Z"/></g>
<g><path style="opacity:1" fill="#3f47cc" d="M 163.5,232.5 C 163.443,233.609 163.11,234.609 162.5,235.5C 161.285,234.221 161.618,233.221 163.5,232.5 Z"/></g>
<g><path style="opacity:1" fill="#fec90d" d="M 172.5,232.5 C 172.5,233.167 172.5,233.833 172.5,234.5C 169.833,233.833 169.833,233.167 172.5,232.5 Z"/></g>
<g><path style="opacity:1" fill="#fec90d" d="M 234.5,233.5 C 237.499,234.976 238.999,237.309 239,240.5C 235.963,239.291 232.796,238.457 229.5,238C 231.66,237.004 233.327,235.504 234.5,233.5 Z"/></g>
<g><path style="opacity:1" fill="#393eae" d="M 168.5,241.5 C 168.5,242.5 168.5,243.5 168.5,244.5C 166.735,245.461 164.735,245.795 162.5,245.5C 161.761,245.631 161.094,245.464 160.5,245C 163.057,242.108 165.224,238.941 167,235.5C 167.191,237.708 167.691,239.708 168.5,241.5 Z"/></g>
<g><path style="opacity:1" fill="#fec90d" d="M 196.5,235.5 C 199.167,236.167 199.167,236.833 196.5,237.5C 196.5,236.833 196.5,236.167 196.5,235.5 Z"/></g>
<g><path style="opacity:1" fill="#ec1c23" d="M 201.5,235.5 C 201.833,235.5 202.167,235.5 202.5,235.5C 202.557,236.609 202.89,237.609 203.5,238.5C 201.952,238.179 201.285,237.179 201.5,235.5 Z"/></g>
<g><path style="opacity:1" fill="#000000" d="M 202.5,235.5 C 203.167,235.833 203.833,236.167 204.5,236.5C 204.672,237.492 204.338,238.158 203.5,238.5C 202.89,237.609 202.557,236.609 202.5,235.5 Z"/></g>
<g><path style="opacity:1" fill="#3f47cc" d="M 160.5,238.5 C 156.236,243.974 155.736,243.641 159,237.5C 160.107,236.288 160.607,236.621 160.5,238.5 Z"/></g>
<g><path style="opacity:1" fill="#fefffe" d="M 204.5,236.5 C 207.32,236.248 209.986,236.748 212.5,238C 209.333,242.5 206.167,247 203,251.5C 201.236,249.611 199.736,247.611 198.5,245.5C 198.5,243.833 198.5,242.167 198.5,240.5C 199.791,240.737 200.791,240.404 201.5,239.5C 202.492,239.672 203.158,239.338 203.5,238.5C 204.338,238.158 204.672,237.492 204.5,236.5 Z"/></g>
<g><path style="opacity:1" fill="#fec90d" d="M 174.5,238.5 C 174.5,239.833 173.833,240.5 172.5,240.5C 172.5,239.167 173.167,238.5 174.5,238.5 Z"/></g>
<g><path style="opacity:1" fill="#2e120b" d="M 174.5,238.5 C 176.114,240.075 178.114,240.741 180.5,240.5C 180.5,240.833 180.5,241.167 180.5,241.5C 180.5,241.833 180.5,242.167 180.5,242.5C 178.735,243.461 176.735,243.795 174.5,243.5C 173.167,242.833 171.833,242.167 170.5,241.5C 171.492,241.672 172.158,241.338 172.5,240.5C 173.833,240.5 174.5,239.833 174.5,238.5 Z"/></g>
<g><path style="opacity:1" fill="#f5f5f5" d="M 207.5,278.5 C 204.389,280.559 201.056,282.392 197.5,284C 196.929,285.205 196.262,286.372 195.5,287.5C 194.232,286.572 192.899,286.405 191.5,287C 188.47,289.372 185.47,291.705 182.5,294C 179.018,299.146 175.685,304.313 172.5,309.5C 172.5,309.167 172.5,308.833 172.5,308.5C 172.103,307.475 171.437,307.308 170.5,308C 168.425,312.079 165.592,315.579 162,318.5C 159.333,322.5 156.667,326.5 154,330.5C 151.049,335.936 152.549,338.103 158.5,337C 167.921,330.25 176.754,322.75 185,314.5C 187.004,318.515 186.837,322.515 184.5,326.5C 174.595,330.786 164.928,335.619 155.5,341C 151.225,343.284 147.225,342.95 143.5,340C 141.007,338.434 139.007,336.434 137.5,334C 140.452,316.811 145.619,300.311 153,284.5C 153.783,282.567 153.283,281.067 151.5,280C 157.573,269.683 160.24,258.516 159.5,246.5C 160.791,246.737 161.791,246.404 162.5,245.5C 164.735,245.795 166.735,245.461 168.5,244.5C 170.735,244.795 172.735,244.461 174.5,243.5C 176.735,243.795 178.735,243.461 180.5,242.5C 182.5,242.5 184.5,242.5 186.5,242.5C 186.66,244.199 186.494,245.866 186,247.5C 184.229,248.304 182.729,249.471 181.5,251C 183.982,251.677 185.815,250.844 187,248.5C 187.667,249.833 187.667,251.167 187,252.5C 185.365,253.726 183.865,255.059 182.5,256.5C 184.527,256.473 186.527,256.473 188.5,256.5C 188.5,255.5 188.5,254.5 188.5,253.5C 199.167,253.167 199.167,252.833 188.5,252.5C 188.5,251.167 188.5,249.833 188.5,248.5C 193.5,247.997 193.167,247.664 187.5,247.5C 187.325,245.379 187.659,243.379 188.5,241.5C 190.948,240.527 193.615,240.194 196.5,240.5C 197.167,242.167 197.833,243.833 198.5,245.5C 198.34,247.199 198.506,248.866 199,250.5C 200.221,251.774 201.054,253.274 201.5,255C 198.551,260.171 197.051,265.671 197,271.5C 200.628,259.407 206.461,248.574 214.5,239C 217.5,238.333 220.5,238.333 223.5,239C 233.052,240.745 242.386,243.079 251.5,246C 254,247.167 255.833,249 257,251.5C 259.436,265.113 261.769,278.78 264,292.5C 265.165,300.001 267.332,307.168 270.5,314C 268.693,316.276 267.193,316.443 266,314.5C 265.626,315.416 265.126,316.25 264.5,317C 261.318,317.407 258.151,317.907 255,318.5C 254.167,318.167 253.333,317.833 252.5,317.5C 249.496,307.479 246.496,297.479 243.5,287.5C 244.374,298.011 246.707,308.344 250.5,318.5C 249.758,319.287 248.925,319.953 248,320.5C 245.636,311.325 243.636,301.992 242,292.5C 241.086,290.336 239.919,288.336 238.5,286.5C 239.556,282.529 239.556,278.529 238.5,274.5C 228.24,276.352 217.906,277.685 207.5,278.5 Z"/></g>
<g><path style="opacity:1" fill="#ec1c23" d="M 196.5,239.5 C 196.5,239.833 196.5,240.167 196.5,240.5C 193.615,240.194 190.948,240.527 188.5,241.5C 185.833,241.5 183.167,241.5 180.5,241.5C 180.5,241.167 180.5,240.833 180.5,240.5C 185.822,240.02 191.155,239.687 196.5,239.5 Z"/></g>
<g><path style="opacity:1" fill="#000000" d="M 196.5,240.5 C 196.5,240.167 196.5,239.833 196.5,239.5C 198.167,239.5 199.833,239.5 201.5,239.5C 200.791,240.404 199.791,240.737 198.5,240.5C 198.5,242.167 198.5,243.833 198.5,245.5C 197.833,243.833 197.167,242.167 196.5,240.5 Z"/></g>
<g><path style="opacity:1" fill="#000000" d="M 168.5,241.5 C 168.833,241.5 169.167,241.5 169.5,241.5C 170.552,243.256 172.219,243.923 174.5,243.5C 172.735,244.461 170.735,244.795 168.5,244.5C 168.5,243.5 168.5,242.5 168.5,241.5 Z"/></g>
<g><path style="opacity:1" fill="#ec1c23" d="M 169.5,241.5 C 169.833,241.5 170.167,241.5 170.5,241.5C 171.833,242.167 173.167,242.833 174.5,243.5C 172.219,243.923 170.552,243.256 169.5,241.5 Z"/></g>
<g><path style="opacity:1" fill="#000000" d="M 180.5,242.5 C 180.5,242.167 180.5,241.833 180.5,241.5C 183.167,241.5 185.833,241.5 188.5,241.5C 187.659,243.379 187.325,245.379 187.5,247.5C 193.167,247.664 193.5,247.997 188.5,248.5C 188.5,249.833 188.5,251.167 188.5,252.5C 199.167,252.833 199.167,253.167 188.5,253.5C 188.5,254.5 188.5,255.5 188.5,256.5C 186.527,256.473 184.527,256.473 182.5,256.5C 183.865,255.059 185.365,253.726 187,252.5C 187.667,251.167 187.667,249.833 187,248.5C 185.815,250.844 183.982,251.677 181.5,251C 182.729,249.471 184.229,248.304 186,247.5C 186.494,245.866 186.66,244.199 186.5,242.5C 184.5,242.5 182.5,242.5 180.5,242.5 Z"/></g>
<g><path style="opacity:1" fill="#870014" d="M 158.5,242.5 C 159.525,242.897 159.692,243.563 159,244.5C 155.991,248.339 152.824,252.006 149.5,255.5C 148.479,254.998 148.312,254.332 149,253.5C 152.647,250.175 155.814,246.508 158.5,242.5 Z"/></g>
<g><path style="opacity:1" fill="#030303" d="M 201.5,271.5 C 199.775,271.157 199.275,270.157 200,268.5C 204.262,260.303 208.762,252.303 213.5,244.5C 216.154,246.572 215.82,248.239 212.5,249.5C 208.815,256.929 205.149,264.262 201.5,271.5 Z"/></g>
<g><path style="opacity:1" fill="#000000" d="M 175.5,245.5 C 176.956,250.383 178.123,255.383 179,260.5C 175.231,256.042 174.064,251.042 175.5,245.5 Z"/></g>
<g><path style="opacity:1" fill="#cc7742" d="M 155.5,251.5 C 156.797,253.693 156.797,256.027 155.5,258.5C 152.222,256.53 152.222,254.197 155.5,251.5 Z"/></g>
<g><path style="opacity:1" fill="#000000" d="M 166.5,252.5 C 168.347,252.234 169.014,252.568 168.5,253.5C 166.902,254.485 165.235,254.651 163.5,254C 164.737,253.768 165.737,253.268 166.5,252.5 Z"/></g>
<g><path style="opacity:1" fill="#000000" d="M 164.5,255.5 C 166.179,255.892 167.846,256.392 169.5,257C 166.944,258.438 164.278,258.438 161.5,257C 162.737,256.768 163.737,256.268 164.5,255.5 Z"/></g>
<g><path style="opacity:1" fill="#cc7742" d="M 144.5,256.5 C 149.339,256.92 153.339,258.92 156.5,262.5C 154.61,267.947 152.443,273.28 150,278.5C 145.451,279.999 142.451,278.332 141,273.5C 139.685,267.246 140.852,261.58 144.5,256.5 Z"/></g>
<g><path style="opacity:1" fill="#000000" d="M 172.5,256.5 C 174.202,260.043 176.535,263.21 179.5,266C 183.333,267.552 187,269.385 190.5,271.5C 189.635,272.583 188.635,272.749 187.5,272C 184.392,269.894 181.059,268.228 177.5,267C 173.808,264.45 172.142,260.95 172.5,256.5 Z"/></g>
<g><path style="opacity:1" fill="#000000" d="M 188.5,256.5 C 191.384,261.698 192.884,267.365 193,273.5C 190.092,268.201 188.592,262.535 188.5,256.5 Z"/></g>
<g><path style="opacity:1" fill="#000000" d="M 201.5,271.5 C 206.593,267.912 211.26,263.745 215.5,259C 216.167,258.333 216.833,258.333 217.5,259C 211.612,266.904 204.612,273.237 196.5,278C 198.054,275.713 199.721,273.546 201.5,271.5 Z"/></g>
<g><path style="opacity:1" fill="#000000" d="M 228.5,263.5 C 225.972,262.834 223.306,262.168 220.5,261.5C 230.651,258.674 235.318,262.341 234.5,272.5C 233.515,270.228 232.681,267.895 232,265.5C 231.184,264.177 230.017,263.511 228.5,263.5 Z"/></g>
<g><path style="opacity:1" fill="#000000" d="M 228.5,263.5 C 228.631,264.376 228.298,265.043 227.5,265.5C 219.734,268.288 213.068,272.622 207.5,278.5C 205.972,278.483 205.472,277.816 206,276.5C 212.16,269.838 219.66,265.505 228.5,263.5 Z"/></g>
<g><path style="opacity:1" fill="#000000" d="M 163.5,266.5 C 170.725,266.41 177.392,268.243 183.5,272C 178.171,271.17 172.837,270.003 167.5,268.5C 164.846,269.268 162.179,269.434 159.5,269C 160.858,268.066 162.192,267.232 163.5,266.5 Z"/></g>
<g><path style="opacity:1" fill="#000000" d="M 173.5,274.5 C 176.976,273.357 180.642,273.19 184.5,274C 183.271,274.781 181.938,275.281 180.5,275.5C 178.218,274.777 175.884,274.443 173.5,274.5 Z"/></g>
<g><path style="opacity:1" fill="#1d1e1d" d="M 192.5,288.5 C 197.296,290.765 198.796,294.431 197,299.5C 200.402,305.3 203.568,311.3 206.5,317.5C 201.959,327.273 196.293,327.94 189.5,319.5C 188.301,312.844 185.968,306.678 182.5,301C 185.263,296.268 188.596,292.101 192.5,288.5 Z"/></g>
<g><path style="opacity:1" fill="#e0e1e0" d="M 172.5,308.5 C 172.5,308.833 172.5,309.167 172.5,309.5C 171.272,313.015 169.938,316.515 168.5,320C 168.833,320.5 169.167,321 169.5,321.5C 172.478,314.877 175.978,308.543 180,302.5C 183.576,304.98 184.91,308.313 184,312.5C 175.754,320.75 166.921,328.25 157.5,335C 156.365,335.749 155.365,335.583 154.5,334.5C 160.041,325.385 166.041,316.718 172.5,308.5 Z"/></g>
<g><path style="opacity:1" fill="#1d1e1d" d="M 270.5,316.5 C 271.282,319.714 272.115,323.048 273,326.5C 278.289,331.549 284.123,335.716 290.5,339C 291.574,339.739 292.241,340.739 292.5,342C 289.935,344.639 286.768,346.139 283,346.5C 275.757,345.064 268.59,343.397 261.5,341.5C 258.86,342.095 256.193,342.428 253.5,342.5C 254.248,335.191 254.582,327.858 254.5,320.5C 258.163,320.048 261.83,319.548 265.5,319C 267.491,318.626 269.158,317.793 270.5,316.5 Z"/></g>
</svg>
