<?xml version="1.0" encoding="UTF-8"?>
<!DOCTYPE svg PUBLIC "-//W3C//DTD SVG 1.1//EN" "http://www.w3.org/Graphics/SVG/1.1/DTD/svg11.dtd">
<svg xmlns="http://www.w3.org/2000/svg" version="1.1" width="591px" height="515px" style="shape-rendering:geometricPrecision; text-rendering:geometricPrecision; image-rendering:optimizeQuality; fill-rule:evenodd; clip-rule:evenodd" xmlns:xlink="http://www.w3.org/1999/xlink">
<g><path style="opacity:1" fill="#fefffe" d="M 282.5,43.5 C 286.846,43.3343 291.179,43.501 295.5,44C 303.916,47.3882 312.416,50.2215 321,52.5C 321.667,56.1667 321.667,59.8333 321,63.5C 317.333,64.5 315,66.8333 314,70.5C 311.149,77.5302 309.815,84.8635 310,92.5C 308.299,94.024 308.799,95.024 311.5,95.5C 312.041,98.7335 313.374,101.567 315.5,104C 320.416,105.161 325.416,105.827 330.5,106C 337.324,110.796 340.49,117.296 340,125.5C 347.315,130.817 353.982,136.817 360,143.5C 361.988,147.224 362.821,151.224 362.5,155.5C 362.7,159.362 362.034,163.029 360.5,166.5C 361.816,172.364 361.816,178.197 360.5,184C 413.441,199.536 466.441,214.869 519.5,230C 520.931,230.465 522.097,231.299 523,232.5C 523.802,237.419 523.635,242.252 522.5,247C 516.755,249.46 510.755,250.127 504.5,249C 453.897,234.187 403.23,219.687 352.5,205.5C 352.5,211.167 352.5,216.833 352.5,222.5C 365.149,223.996 377.483,226.83 389.5,231C 400.725,237.448 411.058,245.114 420.5,254C 433.784,255.884 447.117,257.55 460.5,259C 474.511,260.675 487.178,265.675 498.5,274C 508.197,283.363 517.53,293.03 526.5,303C 531.614,306.636 536.781,310.136 542,313.5C 542.667,318.5 542.667,323.5 542,328.5C 537.276,331.112 532.443,333.612 527.5,336C 515.86,335.514 504.193,334.847 492.5,334C 485.763,332.264 481.263,328.097 479,321.5C 477.172,319.919 475.172,318.585 473,317.5C 471.833,320 470,321.833 467.5,323C 453.14,326.412 441.307,322.579 432,311.5C 429.578,307.656 426.911,303.99 424,300.5C 423.135,305.625 421.802,310.625 420,315.5C 415.953,323.096 411.786,330.596 407.5,338C 411.404,351.319 418.238,362.819 428,372.5C 428.667,377.833 428.667,383.167 428,388.5C 422.546,401.409 416.546,414.076 410,426.5C 408.798,432.773 406.798,438.773 404,444.5C 400.205,445.618 396.705,447.285 393.5,449.5C 391.889,452.22 391.056,455.22 391,458.5C 390.333,460.5 389,461.833 387,462.5C 387.304,466.561 385.804,469.727 382.5,472C 371.302,473.1 360.302,472.1 349.5,469C 348.069,468.535 346.903,467.701 346,466.5C 345.091,460.388 345.424,454.388 347,448.5C 348.828,446.919 350.828,445.585 353,444.5C 352.812,440.768 354.312,437.934 357.5,436C 361.34,433.579 365.34,431.412 369.5,429.5C 370.541,425.003 372.041,420.669 374,416.5C 383.141,408.629 387.474,398.629 387,386.5C 381.667,380.5 376.333,374.5 371,368.5C 368.496,360.296 364.496,352.963 359,346.5C 349.96,355.585 344.96,366.585 344,379.5C 343.667,387.167 343.333,394.833 343,402.5C 336.728,406.456 329.895,409.29 322.5,411C 311.324,417.286 299.658,422.62 287.5,427C 285.893,432.147 284.06,437.314 282,442.5C 277.518,445.107 272.684,446.941 267.5,448C 259.395,448.934 251.395,448.601 243.5,447C 242.874,446.25 242.374,445.416 242,444.5C 241.333,439.833 241.333,435.167 242,430.5C 245.937,424.413 248.771,417.913 250.5,411C 252.5,410.333 254.5,409.667 256.5,409C 261.199,403.966 266.199,399.3 271.5,395C 280.085,391.138 288.752,387.472 297.5,384C 301.016,381.486 303.35,378.152 304.5,374C 302.046,359.938 300.379,345.772 299.5,331.5C 286.576,336.253 273.243,337.753 259.5,336C 251.22,333.541 243.22,334.207 235.5,338C 228.5,338.333 221.5,338.667 214.5,339C 208.263,340.809 201.93,342.143 195.5,343C 183.785,343.298 172.118,343.465 160.5,343.5C 155.698,351.437 151.698,359.77 148.5,368.5C 151.251,370.293 154.084,371.959 157,373.5C 157.667,379.5 157.667,385.5 157,391.5C 152.737,397.765 147.237,402.598 140.5,406C 134.251,406.809 128.084,406.642 122,405.5C 121.138,403.913 120.471,402.246 120,400.5C 120.145,389.633 118.978,378.966 116.5,368.5C 111.485,368.85 106.652,368.183 102,366.5C 100.099,358.249 101.766,350.916 107,344.5C 107.241,341.711 107.908,339.044 109,336.5C 112.734,333.048 116.9,330.215 121.5,328C 123.795,324.703 126.462,321.703 129.5,319C 132.833,317.667 136.167,316.333 139.5,315C 142.552,309.639 147.219,307.139 153.5,307.5C 154.972,304.195 157.305,301.695 160.5,300C 164.635,297.597 168.968,295.763 173.5,294.5C 172.215,282.671 170.048,271.005 167,259.5C 161.956,249.798 156.123,240.631 149.5,232C 148.167,231.333 146.833,231.333 145.5,232C 135.026,235.269 124.693,238.936 114.5,243C 100.537,244.532 86.537,244.866 72.5,244C 71.0692,243.535 69.9025,242.701 69,241.5C 65.8071,232.756 64.8071,223.756 66,214.5C 68.6667,212.5 71.3333,210.5 74,208.5C 73.0924,202.976 75.2591,199.476 80.5,198C 85.4875,191.863 89.3209,185.029 92,177.5C 94.8263,175.66 97.9929,174.994 101.5,175.5C 102.96,168.441 106.627,162.608 112.5,158C 115.5,157.667 118.5,157.333 121.5,157C 126.414,150.712 132.747,146.712 140.5,145C 137.167,144.667 133.833,144.333 130.5,144C 123.739,139.87 117.239,135.37 111,130.5C 110.501,126.514 110.334,122.514 110.5,118.5C 121.26,118.19 131.927,119.024 142.5,121C 172.294,129.429 201.961,138.596 231.5,148.5C 234.034,147.731 236.034,146.231 237.5,144C 233.16,141.647 231.493,137.98 232.5,133C 232.571,127.12 234.071,121.62 237,116.5C 243.967,112.625 251.467,110.792 259.5,111C 262.756,109.541 265.423,107.374 267.5,104.5C 265.73,101.807 265.063,98.8066 265.5,95.5C 263.856,95.7135 262.356,95.3802 261,94.5C 260.333,90.8333 260.333,87.1667 261,83.5C 263.909,79.7415 265.409,75.4082 265.5,70.5C 262.822,67.9703 260.655,64.9703 259,61.5C 258.333,57.1667 258.333,52.8333 259,48.5C 259.5,48 260,47.5 260.5,47C 267.9,45.3934 275.234,44.2267 282.5,43.5 Z M 246.5,176.5 C 250.889,176.639 255.056,177.639 259,179.5C 258.498,182.719 256.998,185.552 254.5,188C 251.429,188.147 248.596,188.98 246,190.5C 242.201,187.703 238.701,184.536 235.5,181C 239.688,180.566 243.355,179.066 246.5,176.5 Z"/></g>
<g><path style="opacity:1" fill="#010101" d="M 285.5,46.5 C 287.857,46.3367 290.19,46.5034 292.5,47C 300.916,50.3882 309.416,53.2215 318,55.5C 318.667,57.1667 318.667,58.8333 318,60.5C 313.093,62.946 310.093,66.946 309,72.5C 307.304,76.8626 306.804,81.1959 307.5,85.5C 307.072,88.4119 306.405,91.2452 305.5,94C 308.135,98.0582 310.469,102.392 312.5,107C 317.416,108.161 322.416,108.827 327.5,109C 334.324,113.796 337.49,120.296 337,128.5C 342.408,133.12 347.908,137.62 353.5,142C 361.016,150.125 361.349,158.459 354.5,167C 359.044,171.748 359.71,177.081 356.5,183C 354.122,183.511 351.788,184.178 349.5,185C 405.122,201.155 460.788,217.155 516.5,233C 517.931,233.465 519.097,234.299 520,235.5C 521.794,240.633 520.294,244.133 515.5,246C 512.833,246.667 510.167,246.667 507.5,246C 452.025,229.946 396.692,213.946 341.5,198C 349.114,203.208 351.614,210.374 349,219.5C 346.565,221.437 346.398,223.27 348.5,225C 361.458,226.857 374.124,229.857 386.5,234C 397.725,240.448 408.058,248.114 417.5,257C 432.813,258.998 448.146,260.998 463.5,263C 475.144,265.49 485.811,270.157 495.5,277C 505.197,286.363 514.53,296.03 523.5,306C 528.614,309.636 533.781,313.136 539,316.5C 539.667,319.5 539.667,322.5 539,325.5C 533.248,329.126 527.081,331.793 520.5,333.5C 515.281,332.946 510.281,331.612 505.5,329.5C 497.612,332.713 490.779,331.047 485,324.5C 483.877,321.751 482.377,319.251 480.5,317C 476.921,315.294 473.421,313.461 470,311.5C 470.185,315.647 468.352,318.48 464.5,320C 452.119,322.596 442.286,318.763 435,308.5C 430.667,302.5 426.333,296.5 422,290.5C 420.026,307.942 413.526,323.442 402.5,337C 407.058,351.625 414.558,364.458 425,375.5C 425.667,378.833 425.667,382.167 425,385.5C 419.546,398.409 413.546,411.076 407,423.5C 405.798,429.773 403.798,435.773 401,441.5C 397.205,442.618 393.705,444.285 390.5,446.5C 388.889,449.22 388.056,452.22 388,455.5C 387.333,457.5 386,458.833 384,459.5C 384.304,463.561 382.804,466.727 379.5,469C 370.32,469.689 361.32,468.689 352.5,466C 351.069,465.535 349.903,464.701 349,463.5C 346.591,455.934 348.924,450.601 356,447.5C 355.812,443.768 357.312,440.934 360.5,439C 364.34,436.579 368.34,434.412 372.5,432.5C 373.583,423.669 377.749,416.669 385,411.5C 387.875,404.042 390.041,396.375 391.5,388.5C 391.423,386.701 390.923,385.034 390,383.5C 384.667,377.5 379.333,371.5 374,365.5C 370.787,356.071 365.787,347.738 359,340.5C 353.113,345.944 348.446,352.277 345,359.5C 340.71,372.558 339.044,385.892 340,399.5C 333.728,403.456 326.895,406.29 319.5,408C 308.324,414.286 296.658,419.62 284.5,424C 282.893,429.147 281.06,434.314 279,439.5C 268.798,445.441 257.965,446.941 246.5,444C 244.571,440.744 244.071,437.244 245,433.5C 248.937,427.413 251.771,420.913 253.5,414C 255.5,413.333 257.5,412.667 259.5,412C 264.199,406.966 269.199,402.3 274.5,398C 283.085,394.138 291.752,390.472 300.5,387C 304.943,383.779 307.277,379.445 307.5,374C 305.096,358.248 303.429,342.415 302.5,326.5C 283.497,334.387 263.997,335.72 244,330.5C 236.766,334.906 228.933,336.406 220.5,335C 219.584,334.626 218.75,334.126 218,333.5C 209.784,336.679 201.284,338.846 192.5,340C 180.808,340.053 169.142,340.22 157.5,340.5C 151.886,349.894 147.22,359.727 143.5,370C 146.749,372.543 150.249,374.709 154,376.5C 154.667,380.5 154.667,384.5 154,388.5C 147.102,398.865 137.602,403.698 125.5,403C 124.874,402.25 124.374,401.416 124,400.5C 122.765,392.577 122.098,384.577 122,376.5C 121.148,372.811 120.315,369.144 119.5,365.5C 103.056,366.926 99.8898,360.926 110,347.5C 110.241,344.711 110.908,342.044 112,339.5C 115.734,336.048 119.9,333.215 124.5,331C 126.795,327.703 129.462,324.703 132.5,322C 135.833,320.667 139.167,319.333 142.5,318C 145.552,312.639 150.219,310.139 156.5,310.5C 157.253,308.247 158.586,306.413 160.5,305C 166.52,300.655 173.186,297.988 180.5,297C 179.213,295.59 178.046,294.09 177,292.5C 175.315,280.367 172.981,268.367 170,256.5C 164.315,245.782 157.648,235.782 150,226.5C 137.017,230.575 124.183,235.075 111.5,240C 101.34,241.317 91.1733,241.817 81,241.5C 77.4794,241.917 74.4794,240.917 72,238.5C 69.1816,231.745 68.1816,224.745 69,217.5C 71.6667,215.5 74.3333,213.5 77,211.5C 76.0924,205.976 78.2591,202.476 83.5,201C 88.4875,194.863 92.3209,188.029 95,180.5C 97.8263,178.66 100.993,177.994 104.5,178.5C 105.96,171.441 109.627,165.608 115.5,161C 118.5,160.667 121.5,160.333 124.5,160C 129.956,152.542 137.289,148.542 146.5,148C 144.647,145.96 143.314,143.627 142.5,141C 139.572,141.456 136.572,141.456 133.5,141C 126.739,136.87 120.239,132.37 114,127.5C 113.505,125.527 113.338,123.527 113.5,121.5C 123.643,121.46 133.643,122.627 143.5,125C 173.984,133.71 204.318,143.21 234.5,153.5C 238.423,149.829 241.756,145.662 244.5,141C 236.965,140.789 234.131,136.956 236,129.5C 236.942,126.007 238.275,122.674 240,119.5C 246.967,115.625 254.467,113.792 262.5,114C 266.471,112.018 269.804,109.352 272.5,106C 270.969,103.069 269.636,100.069 268.5,97C 268.439,95.2894 269.106,93.956 270.5,93C 262.516,92.1737 261.35,88.6737 267,82.5C 268.197,76.8706 268.53,71.204 268,65.5C 261.61,61.6701 260.11,56.5034 263.5,50C 270.9,48.3934 278.234,47.2267 285.5,46.5 Z M 246.5,176.5 C 243.355,179.066 239.688,180.566 235.5,181C 238.701,184.536 242.201,187.703 246,190.5C 248.596,188.98 251.429,188.147 254.5,188C 256.998,185.552 258.498,182.719 259,179.5C 255.056,177.639 250.889,176.639 246.5,176.5 Z"/></g>
<g><path style="opacity:1" fill="#fefffe" d="M 304.5,72.5 C 299.643,70.4861 295.143,67.8194 291,64.5C 290.192,66.5787 290.359,68.5787 291.5,70.5C 295.407,71.4662 299.074,72.7995 302.5,74.5C 303.278,75.1556 303.944,75.9889 304.5,77C 304.164,78.0299 303.497,78.5299 302.5,78.5C 297.888,76.2329 293.055,74.2329 288,72.5C 284.89,72.9445 282.057,73.9445 279.5,75.5C 279.5,74.5 279.5,73.5 279.5,72.5C 280.791,72.7373 281.791,72.404 282.5,71.5C 283.568,70.5655 284.901,70.2322 286.5,70.5C 286.511,68.4534 286.844,66.4534 287.5,64.5C 286.714,62.9589 285.714,61.6256 284.5,60.5C 283.791,59.596 282.791,59.2627 281.5,59.5C 281.5,60.8333 281.5,62.1667 281.5,63.5C 280.611,65.8586 279.278,66.0253 277.5,64C 276.773,62.6012 276.273,61.1012 276,59.5C 275.888,62.4471 274.388,63.7804 271.5,63.5C 270.128,62.4884 268.795,61.4884 267.5,60.5C 270.512,57.6314 269.845,56.2981 265.5,56.5C 264.209,55.4583 264.209,54.2917 265.5,53C 273.254,51.3121 281.087,50.1454 289,49.5C 297.112,53.3198 305.612,55.8198 314.5,57C 314.833,57.3333 315.167,57.6667 315.5,58C 313.413,58.7922 311.579,59.9588 310,61.5C 308.435,65.4022 306.602,69.0688 304.5,72.5 Z"/></g>
<g><path style="opacity:1" fill="#ec1c23" d="M 281.5,55.5 C 282.946,54.3871 284.613,54.2204 286.5,55C 287.731,56.1827 287.731,57.3493 286.5,58.5C 285.06,57.0476 283.394,56.0476 281.5,55.5 Z"/></g>
<g><path style="opacity:1" fill="#ec1c23" d="M 291.5,54.5 C 297.565,55.683 303.565,57.183 309.5,59C 307.959,60.5793 306.792,62.4127 306,64.5C 301.353,62.0947 296.52,60.0947 291.5,58.5C 290.374,57.1916 290.374,55.8583 291.5,54.5 Z"/></g>
<g><path style="opacity:1" fill="#ec1c23" d="M 265.5,56.5 C 269.845,56.2981 270.512,57.6314 267.5,60.5C 265.896,59.713 265.229,58.3797 265.5,56.5 Z"/></g>
<g><path style="opacity:1" fill="#dd1d22" d="M 281.5,63.5 C 282.1,62.0998 283.1,61.0998 284.5,60.5C 285.714,61.6256 286.714,62.9589 287.5,64.5C 286.844,66.4534 286.511,68.4534 286.5,70.5C 284.901,70.2322 283.568,70.5655 282.5,71.5C 281.041,71.5674 279.708,71.2341 278.5,70.5C 277.07,68.614 275.403,66.9473 273.5,65.5C 272.833,64.8333 272.167,64.1667 271.5,63.5C 274.388,63.7804 275.888,62.4471 276,59.5C 276.273,61.1012 276.773,62.6012 277.5,64C 279.278,66.0253 280.611,65.8586 281.5,63.5 Z"/></g>
<g><path style="opacity:1" fill="#000000" d="M 284.5,60.5 C 283.1,61.0998 282.1,62.0998 281.5,63.5C 281.5,62.1667 281.5,60.8333 281.5,59.5C 282.791,59.2627 283.791,59.596 284.5,60.5 Z"/></g>
<g><path style="opacity:1" fill="#ec1c23" d="M 304.5,72.5 C 305.66,74.2027 304.993,74.8693 302.5,74.5C 299.074,72.7995 295.407,71.4662 291.5,70.5C 290.359,68.5787 290.192,66.5787 291,64.5C 295.143,67.8194 299.643,70.4861 304.5,72.5 Z"/></g>
<g><path style="opacity:1" fill="#fec90d" d="M 273.5,65.5 C 275.403,66.9473 277.07,68.614 278.5,70.5C 278.216,72.4147 278.549,74.0813 279.5,75.5C 281.238,81.9271 278.905,84.5938 272.5,83.5C 271.528,82.6009 270.862,81.4343 270.5,80C 270.887,74.8978 271.887,70.0644 273.5,65.5 Z"/></g>
<g><path style="opacity:1" fill="#000000" d="M 278.5,70.5 C 279.708,71.2341 281.041,71.5674 282.5,71.5C 281.791,72.404 280.791,72.7373 279.5,72.5C 279.5,73.5 279.5,74.5 279.5,75.5C 278.549,74.0813 278.216,72.4147 278.5,70.5 Z"/></g>
<g><path style="opacity:1" fill="#2e2e2e" d="M 302.5,78.5 C 303.315,80.7537 303.981,83.0871 304.5,85.5C 304.253,86.7133 303.586,87.38 302.5,87.5C 297.47,85.05 292.136,84.05 286.5,84.5C 286.5,82.8333 286.5,81.1667 286.5,79.5C 285.178,79.33 284.011,79.6634 283,80.5C 282.648,82.2475 282.148,83.9142 281.5,85.5C 278.86,86.4485 276.193,87.4485 273.5,88.5C 271.45,88.9612 269.45,89.6279 267.5,90.5C 267.02,86.9353 268.686,84.602 272.5,83.5C 278.905,84.5938 281.238,81.9271 279.5,75.5C 282.057,73.9445 284.89,72.9445 288,72.5C 293.055,74.2329 297.888,76.2329 302.5,78.5 Z"/></g>
<g><path style="opacity:1" fill="#fefffe" d="M 286.5,84.5 C 285.662,84.8417 285.328,85.5084 285.5,86.5C 282.997,93.3411 280.664,100.341 278.5,107.5C 276.952,107.179 276.285,106.179 276.5,104.5C 278.665,98.6713 280.665,92.6713 282.5,86.5C 282.376,85.8933 282.043,85.56 281.5,85.5C 282.148,83.9142 282.648,82.2475 283,80.5C 284.011,79.6634 285.178,79.33 286.5,79.5C 286.5,81.1667 286.5,82.8333 286.5,84.5 Z"/></g>
<g><path style="opacity:1" fill="#b47755" d="M 286.5,84.5 C 292.136,84.05 297.47,85.05 302.5,87.5C 302.665,90.8499 302.498,94.1832 302,97.5C 300.513,98.2529 300.346,99.0862 301.5,100C 298.183,100.498 294.85,100.665 291.5,100.5C 291.737,99.209 291.404,98.209 290.5,97.5C 289.949,94.1933 289.616,90.8599 289.5,87.5C 288.041,87.5674 286.708,87.2341 285.5,86.5C 285.328,85.5084 285.662,84.8417 286.5,84.5 Z"/></g>
<g><path style="opacity:1" fill="#f5b384" d="M 281.5,85.5 C 282.043,85.56 282.376,85.8933 282.5,86.5C 280.665,92.6713 278.665,98.6713 276.5,104.5C 275.221,102.877 273.887,101.21 272.5,99.5C 273.376,98.7492 274.376,98.2492 275.5,98C 273.744,97.7978 272.078,97.2978 270.5,96.5C 271.857,94.8144 273.19,93.1477 274.5,91.5C 275.439,90.6726 275.105,90.0059 273.5,89.5C 273.5,89.1667 273.5,88.8333 273.5,88.5C 276.193,87.4485 278.86,86.4485 281.5,85.5 Z"/></g>
<g><path style="opacity:1" fill="#f5b384" d="M 285.5,86.5 C 286.708,87.2341 288.041,87.5674 289.5,87.5C 289.616,90.8599 289.949,94.1933 290.5,97.5C 290.762,98.9778 290.429,100.311 289.5,101.5C 286.871,102.467 284.871,104.133 283.5,106.5C 282.833,107.167 282.167,107.833 281.5,108.5C 280.348,109.625 279.348,109.625 278.5,108.5C 278.5,108.167 278.5,107.833 278.5,107.5C 280.664,100.341 282.997,93.3411 285.5,86.5 Z"/></g>
<g><path style="opacity:1" fill="#000000" d="M 273.5,89.5 C 275.105,90.0059 275.439,90.6726 274.5,91.5C 272.895,90.9941 272.561,90.3274 273.5,89.5 Z"/></g>
<g><path style="opacity:1" fill="#ec1c23" d="M 301.5,101.5 C 302.5,101.5 303.5,101.5 304.5,101.5C 304.244,103.792 304.577,105.959 305.5,108C 303.444,108.311 301.444,108.811 299.5,109.5C 295.608,107.86 291.608,106.526 287.5,105.5C 288.665,104.416 289.998,103.583 291.5,103C 295.025,102.821 298.359,102.321 301.5,101.5 Z"/></g>
<g><path style="opacity:1" fill="#fefffe" d="M 278.5,108.5 C 279.348,109.625 280.348,109.625 281.5,108.5C 282.5,109.167 283.5,109.833 284.5,110.5C 283.508,110.328 282.842,110.662 282.5,111.5C 279.377,116.457 275.377,120.624 270.5,124C 264.766,126.077 259.099,128.243 253.5,130.5C 250.775,131.713 248.441,133.546 246.5,136C 242.872,137.316 240.539,136.149 239.5,132.5C 241.41,123.367 247.076,118.7 256.5,118.5C 258.801,119.396 261.134,119.562 263.5,119C 268.98,115.994 273.98,112.494 278.5,108.5 Z"/></g>
<g><path style="opacity:1" fill="#2827e3" d="M 310.5,113.5 C 312.205,115.192 314.205,116.525 316.5,117.5C 320.141,120.805 323.808,124.138 327.5,127.5C 327.5,128.167 327.833,128.5 328.5,128.5C 329.117,130.229 330.117,131.729 331.5,133C 336.889,137.389 342.556,141.389 348.5,145C 349.774,145.977 349.774,146.811 348.5,147.5C 343.41,143.443 338.077,139.61 332.5,136C 330.457,134.292 328.79,132.292 327.5,130C 325.613,129.22 323.946,129.387 322.5,130.5C 321.167,130.5 320.5,131.167 320.5,132.5C 319.326,133.514 318.66,134.847 318.5,136.5C 315.441,131.387 312.608,126.053 310,120.5C 306.796,117.631 303.963,114.465 301.5,111C 304.993,110.131 307.993,110.964 310.5,113.5 Z"/></g>
<g><path style="opacity:1" fill="#2827e3" d="M 282.5,111.5 C 290.215,116.716 296.382,123.382 301,131.5C 301.74,132.749 301.573,133.749 300.5,134.5C 296.254,126.995 290.254,125.495 282.5,130C 269.903,142.437 256.903,154.271 243.5,165.5C 242.504,165.586 241.671,165.252 241,164.5C 240.333,161.5 240.333,158.5 241,155.5C 246.603,147.838 250.77,139.505 253.5,130.5C 259.099,128.243 264.766,126.077 270.5,124C 275.377,120.624 279.377,116.457 282.5,111.5 Z"/></g>
<g><path style="opacity:1" fill="#efe0c0" d="M 283.5,106.5 C 289.282,107.11 294.615,108.943 299.5,112C 301.963,115.465 304.796,118.631 308,121.5C 311.412,128.658 315.078,135.658 319,142.5C 320.708,144.543 322.708,146.21 325,147.5C 325.615,152.745 323.782,154.078 319.5,151.5C 316.918,146.667 314.085,142 311,137.5C 311.817,150.715 313.983,163.715 317.5,176.5C 322.564,180.13 327.897,180.463 333.5,177.5C 334.752,175.999 335.752,174.332 336.5,172.5C 337.689,171.571 339.022,171.238 340.5,171.5C 341.919,172.451 343.585,172.784 345.5,172.5C 348.241,172.707 350.574,173.707 352.5,175.5C 353.706,176.88 353.373,178.047 351.5,179C 345.105,181.076 338.772,183.242 332.5,185.5C 330.174,182.84 327.174,181.507 323.5,181.5C 320.342,181.421 317.675,182.421 315.5,184.5C 314.71,185.609 314.21,186.942 314,188.5C 311.068,179.912 309.735,170.912 310,161.5C 308.303,151.347 305.969,141.347 303,131.5C 298.741,122.746 292.574,115.746 284.5,110.5C 283.5,109.833 282.5,109.167 281.5,108.5C 282.167,107.833 282.833,107.167 283.5,106.5 Z"/></g>
<g><path style="opacity:1" fill="#e5e5e5" d="M 328.5,128.5 C 327.833,128.5 327.5,128.167 327.5,127.5C 328.146,119.139 324.48,115.805 316.5,117.5C 314.205,116.525 312.205,115.192 310.5,113.5C 310.917,112.876 311.584,112.543 312.5,112.5C 314.318,113.636 316.318,114.303 318.5,114.5C 320.224,114.096 321.891,113.929 323.5,114C 327.746,117.355 330.246,121.522 331,126.5C 330.292,127.381 329.458,128.047 328.5,128.5 Z"/></g>
<g><path style="opacity:1" fill="#b7b7b7" d="M 327.5,127.5 C 323.808,124.138 320.141,120.805 316.5,117.5C 324.48,115.805 328.146,119.139 327.5,127.5 Z"/></g>
<g><path style="opacity:1" fill="#000000" d="M 252.5,120.5 C 255.073,120.148 257.406,120.648 259.5,122C 254.505,127.298 248.839,131.298 242.5,134C 241.742,126.578 245.075,122.078 252.5,120.5 Z"/></g>
<g><path style="opacity:1" fill="#c2c3c2" d="M 148.5,134.5 C 147.732,135.263 147.232,136.263 147,137.5C 143.848,133.845 140.514,133.845 137,137.5C 130.415,133.458 123.915,129.291 117.5,125C 125.179,125.861 132.846,127.194 140.5,129C 142.049,130.214 143.215,131.714 144,133.5C 146.045,131.957 147.545,132.29 148.5,134.5 Z"/></g>
<g><path style="opacity:1" fill="#fefffe" d="M 248.5,124.5 C 249.376,124.369 250.043,124.702 250.5,125.5C 249.379,128.047 247.712,129.047 245.5,128.5C 246.524,127.148 247.524,125.815 248.5,124.5 Z"/></g>
<g><path style="opacity:1" fill="#ec1c23" d="M 300.5,134.5 C 304.192,141.281 305.859,148.615 305.5,156.5C 305.61,162.171 303.943,167.171 300.5,171.5C 298.804,173.129 297.804,172.796 297.5,170.5C 303.824,157.717 303.491,145.051 296.5,132.5C 294.213,132.276 292.047,131.609 290,130.5C 284.494,132.83 279.994,136.497 276.5,141.5C 268.473,147.539 260.807,153.872 253.5,160.5C 250.714,162.113 248.047,163.946 245.5,166C 244.563,166.692 243.897,166.525 243.5,165.5C 256.903,154.271 269.903,142.437 282.5,130C 290.254,125.495 296.254,126.995 300.5,134.5 Z"/></g>
<g><path style="opacity:1" fill="#1715a4" d="M 297.5,170.5 C 296.733,171.172 296.066,172.005 295.5,173C 288.48,173.279 281.48,173.779 274.5,174.5C 272.423,174.308 270.423,173.808 268.5,173C 268.452,166.73 268.786,160.397 269.5,154C 269.491,152.596 268.991,151.43 268,150.5C 264.895,155.443 260.728,159.109 255.5,161.5C 254.584,161.457 253.917,161.124 253.5,160.5C 260.807,153.872 268.473,147.539 276.5,141.5C 279.994,136.497 284.494,132.83 290,130.5C 292.047,131.609 294.213,132.276 296.5,132.5C 303.491,145.051 303.824,157.717 297.5,170.5 Z"/></g>
<g><path style="opacity:1" fill="#000000" d="M 322.5,130.5 C 322.167,131.5 321.5,132.167 320.5,132.5C 320.5,131.167 321.167,130.5 322.5,130.5 Z"/></g>
<g><path style="opacity:1" fill="#ec1c23" d="M 348.5,147.5 C 351.439,149.342 353.439,152.009 354.5,155.5C 354.03,156.463 353.363,156.463 352.5,155.5C 351.781,153.909 350.781,152.409 349.5,151C 340.514,146.161 332.181,140.327 324.5,133.5C 323.479,134.901 322.479,136.235 321.5,137.5C 320.031,140.1 319.031,139.767 318.5,136.5C 318.66,134.847 319.326,133.514 320.5,132.5C 321.5,132.167 322.167,131.5 322.5,130.5C 323.946,129.387 325.613,129.22 327.5,130C 328.79,132.292 330.457,134.292 332.5,136C 338.077,139.61 343.41,143.443 348.5,147.5 Z"/></g>
<g><path style="opacity:1" fill="#fefffe" d="M 190.5,146.5 C 189.662,146.842 189.328,147.508 189.5,148.5C 188.778,149.551 187.778,150.218 186.5,150.5C 185.5,150.5 184.5,150.5 183.5,150.5C 179.219,149 174.886,147.333 170.5,145.5C 169.583,146.127 168.583,146.461 167.5,146.5C 167.047,145.542 166.381,144.708 165.5,144C 160.336,142.631 155.336,141.131 150.5,139.5C 149.032,138.221 148.365,136.554 148.5,134.5C 151.117,133.621 153.784,133.788 156.5,135C 167.454,138.488 178.454,141.822 189.5,145C 190.056,145.383 190.389,145.883 190.5,146.5 Z"/></g>
<g><path style="opacity:1" fill="#1815a2" d="M 352.5,155.5 C 352.66,157.199 352.494,158.866 352,160.5C 349.303,163.276 347.803,166.609 347.5,170.5C 346.833,171.167 346.167,171.833 345.5,172.5C 343.585,172.784 341.919,172.451 340.5,171.5C 339.391,170.71 338.058,170.21 336.5,170C 340.258,160.84 337.591,154.173 328.5,150C 327.809,148.933 327.309,147.766 327,146.5C 324.555,145.023 322.388,143.19 320.5,141C 321.337,139.989 321.67,138.822 321.5,137.5C 322.479,136.235 323.479,134.901 324.5,133.5C 332.181,140.327 340.514,146.161 349.5,151C 350.781,152.409 351.781,153.909 352.5,155.5 Z"/></g>
<g><path style="opacity:1" fill="#ec1c23" d="M 150.5,139.5 C 155.336,141.131 160.336,142.631 165.5,144C 166.381,144.708 167.047,145.542 167.5,146.5C 166.035,147.406 165.035,148.739 164.5,150.5C 165.931,152.938 167.931,154.604 170.5,155.5C 164.081,154.192 158.415,155.859 153.5,160.5C 152.736,153.687 150.403,147.354 146.5,141.5C 147.577,140.295 148.91,139.628 150.5,139.5 Z"/></g>
<g><path style="opacity:1" fill="#fefffe" d="M 183.5,150.5 C 179.686,150.651 178.019,152.651 178.5,156.5C 177.946,158.889 176.446,160.555 174,161.5C 173.994,158.736 172.828,156.736 170.5,155.5C 167.931,154.604 165.931,152.938 164.5,150.5C 165.035,148.739 166.035,147.406 167.5,146.5C 168.583,146.461 169.583,146.127 170.5,145.5C 174.886,147.333 179.219,149 183.5,150.5 Z"/></g>
<g><path style="opacity:1" fill="#68412c" d="M 190.5,146.5 C 204.058,150.054 217.391,154.221 230.5,159C 229.069,159.465 227.903,160.299 227,161.5C 214.543,156.769 202.043,152.436 189.5,148.5C 189.328,147.508 189.662,146.842 190.5,146.5 Z"/></g>
<g><path style="opacity:1" fill="#191919" d="M 320.5,154.5 C 319.519,159.791 321.019,164.125 325,167.5C 327.605,166.785 329.772,165.452 331.5,163.5C 330.68,160.528 329.347,157.861 327.5,155.5C 326.246,152.117 327.246,151.617 330.5,154C 333.637,155.805 335.637,158.472 336.5,162C 335.711,166.282 334.544,170.448 333,174.5C 329.205,177.803 325.038,178.303 320.5,176C 319.299,175.097 318.465,173.931 318,172.5C 316.285,163.826 314.952,155.159 314,146.5C 315.001,150.199 317.168,152.866 320.5,154.5 Z"/></g>
<g><path style="opacity:1" fill="#fefffe" d="M 183.5,150.5 C 184.5,150.5 185.5,150.5 186.5,150.5C 186.918,151.222 187.584,151.722 188.5,152C 186.287,155.007 184.62,154.507 183.5,150.5 Z"/></g>
<g><path style="opacity:1" fill="#393939" d="M 153.5,160.5 C 158.415,155.859 164.081,154.192 170.5,155.5C 172.828,156.736 173.994,158.736 174,161.5C 176.446,160.555 177.946,158.889 178.5,156.5C 180.44,151.976 182.44,151.809 184.5,156C 186.207,156.195 187.874,156.195 189.5,156C 195.078,159.236 198.745,163.903 200.5,170C 201.793,170.49 203.127,170.657 204.5,170.5C 203.841,173.455 203.508,176.455 203.5,179.5C 199.85,179.358 196.35,180.025 193,181.5C 191.107,180.804 189.274,179.97 187.5,179C 191.996,176.703 196.663,176.036 201.5,177C 195.73,174.064 189.896,174.231 184,177.5C 182.5,177 181,176.5 179.5,176C 181.952,175.71 184.285,175.044 186.5,174C 188.257,171.154 190.257,168.488 192.5,166C 192.167,165.833 191.833,165.667 191.5,165.5C 188.63,167.873 185.963,170.373 183.5,173C 177.554,175.102 171.887,174.436 166.5,171C 174.433,168.505 182.433,166.172 190.5,164C 180.46,163.939 170.96,166.106 162,170.5C 158.184,169.588 154.351,168.754 150.5,168C 156.537,164.877 162.87,162.543 169.5,161C 166.833,160.333 164.167,160.333 161.5,161C 157.259,162.704 153.093,164.538 149,166.5C 149.74,164.057 151.24,162.057 153.5,160.5 Z"/></g>
<g><path style="opacity:1" fill="#52402e" d="M 118.5,177.5 C 119.688,173.463 121.688,169.796 124.5,166.5C 129.015,164.065 133.015,160.898 136.5,157C 139.35,155.829 142.184,154.662 145,153.5C 144.592,159.319 142.259,164.319 138,168.5C 135.833,175 133.667,181.5 131.5,188C 131.15,189.257 130.483,189.591 129.5,189C 126.283,185.483 122.783,182.316 119,179.5C 118.536,178.906 118.369,178.239 118.5,177.5 Z"/></g>
<g><path style="opacity:1" fill="#3b3c3b" d="M 320.5,154.5 C 322.861,155.021 325.194,155.354 327.5,155.5C 329.347,157.861 330.68,160.528 331.5,163.5C 329.772,165.452 327.605,166.785 325,167.5C 321.019,164.125 319.519,159.791 320.5,154.5 Z"/></g>
<g><path style="opacity:1" fill="#1615a9" d="M 305.5,156.5 C 307.13,158.026 307.963,160.026 308,162.5C 308.821,165.554 308.655,168.554 307.5,171.5C 305.028,172.766 302.694,172.766 300.5,171.5C 303.943,167.171 305.61,162.171 305.5,156.5 Z"/></g>
<g><path style="opacity:1" fill="#271e17" d="M 139.5,156.5 C 140.478,156.811 141.145,157.478 141.5,158.5C 137.909,166.69 133.076,174.024 127,180.5C 124.67,177.541 124.004,174.207 125,170.5C 129.536,165.49 134.369,160.824 139.5,156.5 Z"/></g>
<g><path style="opacity:1" fill="#feeecb" d="M 236.5,157.5 C 238.22,159.658 239.053,162.325 239,165.5C 240.171,166.893 241.671,167.727 243.5,168C 236.965,172.711 229.632,175.045 221.5,175C 218.105,176.115 214.939,177.615 212,179.5C 211.667,181.833 211.333,184.167 211,186.5C 210.282,187.451 209.449,187.617 208.5,187C 204.902,182.099 204.569,176.933 207.5,171.5C 212.111,170.144 216.777,168.977 221.5,168C 226.403,164.248 231.403,160.748 236.5,157.5 Z"/></g>
<g><path style="opacity:1" fill="#fefffe" d="M 200.5,159.5 C 200.56,158.957 200.893,158.624 201.5,158.5C 206.796,160.432 212.129,162.265 217.5,164C 212.899,165.894 208.232,166.394 203.5,165.5C 203.539,162.911 202.539,160.911 200.5,159.5 Z"/></g>
<g><path style="opacity:1" fill="#fefffe" d="M 264.5,159.5 C 265.773,160.077 265.773,160.743 264.5,161.5C 263.537,161.03 263.537,160.363 264.5,159.5 Z"/></g>
<g><path style="opacity:1" fill="#69422c" d="M 251.5,163.5 C 256.619,165.781 261.953,167.448 267.5,168.5C 267.719,169.675 267.386,170.675 266.5,171.5C 260.86,169.706 255.194,168.04 249.5,166.5C 250.193,165.482 250.859,164.482 251.5,163.5 Z"/></g>
<g><path style="opacity:1" fill="#343434" d="M 124.5,166.5 C 121.688,169.796 119.688,173.463 118.5,177.5C 117.735,177.923 116.902,178.257 116,178.5C 114.349,177.258 112.515,176.424 110.5,176C 113.13,172.368 116.13,169.035 119.5,166C 121.387,165.22 123.054,165.387 124.5,166.5 Z"/></g>
<g><path style="opacity:1" fill="#52402e" d="M 158.5,201.5 C 154.002,196.345 148.335,193.345 141.5,192.5C 142.932,198 146.265,202 151.5,204.5C 150.492,206.339 148.992,207.672 147,208.5C 143.819,203.989 140.652,199.489 137.5,195C 140.601,187.362 143.101,179.529 145,171.5C 145.519,170.484 146.353,169.818 147.5,169.5C 162.509,171.892 176.842,176.392 190.5,183C 179.969,189.431 169.303,195.598 158.5,201.5 Z"/></g>
<g><path style="opacity:1" fill="#feeecb" d="M 347.5,170.5 C 350.272,170.595 352.272,171.929 353.5,174.5C 353.376,175.107 353.043,175.44 352.5,175.5C 350.574,173.707 348.241,172.707 345.5,172.5C 346.167,171.833 346.833,171.167 347.5,170.5 Z"/></g>
<g><path style="opacity:1" fill="#fefffe" d="M 245.5,172.5 C 250.973,172.933 256.306,174.1 261.5,176C 262.167,178.333 262.833,180.667 263.5,183C 261.5,185.667 259.5,188.333 257.5,191C 252.874,191.23 248.707,192.73 245,195.5C 238.833,190 232.667,184.5 226.5,179C 233.603,178.76 239.936,176.593 245.5,172.5 Z M 246.5,176.5 C 243.355,179.066 239.688,180.566 235.5,181C 238.701,184.536 242.201,187.703 246,190.5C 248.596,188.98 251.429,188.147 254.5,188C 256.998,185.552 258.498,182.719 259,179.5C 255.056,177.639 250.889,176.639 246.5,176.5 Z"/></g>
<g><path style="opacity:1" fill="#feeecb" d="M 307.5,173.5 C 308.788,175.035 308.788,176.701 307.5,178.5C 294.376,181.274 281.043,182.274 267.5,181.5C 267.5,179.5 267.5,177.5 267.5,175.5C 281.001,176.157 294.334,175.49 307.5,173.5 Z"/></g>
<g><path style="opacity:1" fill="#3b3c3b" d="M 217.5,178.5 C 226.107,185.101 234.44,192.101 242.5,199.5C 239.786,202.213 240.453,203.046 244.5,202C 256.538,192.275 258.871,194.109 251.5,207.5C 250.833,207.833 250.167,208.167 249.5,208.5C 237.771,205.302 226.771,200.468 216.5,194C 219.618,192.107 222.951,190.774 226.5,190C 225.07,188.56 223.403,188.226 221.5,189C 217.315,192.109 212.648,193.109 207.5,192C 209.241,190.38 211.075,188.88 213,187.5C 213.333,185.167 213.667,182.833 214,180.5C 215.302,179.915 216.469,179.249 217.5,178.5 Z"/></g>
<g><path style="opacity:1" fill="#1e1477" d="M 308.5,184.5 C 308.5,185.833 309.167,186.5 310.5,186.5C 311.87,188.172 313.203,189.839 314.5,191.5C 314.672,192.492 314.338,193.158 313.5,193.5C 312.833,190.833 312.167,190.833 311.5,193.5C 310.778,193.082 310.278,192.416 310,191.5C 309.613,195.165 311.113,197.998 314.5,200C 316.025,201.009 317.692,201.509 319.5,201.5C 319.5,201.833 319.5,202.167 319.5,202.5C 317.007,203.229 314.674,204.063 312.5,205C 308.183,200.203 305.016,194.703 303,188.5C 302.51,189.793 302.343,191.127 302.5,192.5C 301.833,193.167 301.167,193.833 300.5,194.5C 300.5,195.167 300.5,195.833 300.5,196.5C 298.926,194.898 298.259,192.898 298.5,190.5C 298.833,189.833 299.167,189.167 299.5,188.5C 299.5,187.167 298.833,186.5 297.5,186.5C 296.833,186.5 296.167,186.5 295.5,186.5C 295.5,185.5 295.5,184.5 295.5,183.5C 299.749,182.225 304.082,181.225 308.5,180.5C 309.626,181.808 309.626,183.142 308.5,184.5 Z"/></g>
<g><path style="opacity:1" fill="#181918" d="M 198.5,181.5 C 200.199,181.34 201.866,181.506 203.5,182C 186.332,190.745 169.999,200.745 154.5,212C 150.892,213.323 147.225,213.989 143.5,214C 161.266,202.12 179.6,191.287 198.5,181.5 Z"/></g>
<g><path style="opacity:1" fill="#663f2b" d="M 332.5,185.5 C 393.024,203.392 453.691,221.226 514.5,239C 512.386,240.518 510.053,240.851 507.5,240C 449.529,223.065 391.529,206.232 333.5,189.5C 330.551,190.302 327.551,190.636 324.5,190.5C 321.454,190.275 319.121,188.942 317.5,186.5C 316.833,185.833 316.167,185.167 315.5,184.5C 317.675,182.421 320.342,181.421 323.5,181.5C 327.174,181.507 330.174,182.84 332.5,185.5 Z"/></g>
<g><path style="opacity:1" fill="#52402e" d="M 100.5,183.5 C 106.733,184.119 112.733,185.619 118.5,188C 120.167,189.667 121.833,191.333 123.5,193C 114.322,201.011 105.656,209.511 97.5,218.5C 92.9023,215.467 89.9023,211.3 88.5,206C 93.4109,199.013 97.4109,191.513 100.5,183.5 Z"/></g>
<g><path style="opacity:1" fill="#1615a9" d="M 268.5,183.5 C 269.239,183.369 269.906,183.536 270.5,184C 266.828,189.68 264.328,195.847 263,202.5C 259.71,204.491 257.043,207.158 255,210.5C 254.308,209.975 253.808,209.308 253.5,208.5C 258.129,199.887 263.129,191.554 268.5,183.5 Z"/></g>
<g><path style="opacity:1" fill="#feeecb" d="M 261.5,214.5 C 261.796,216.403 262.463,218.07 263.5,219.5C 258.916,220.877 256.25,219.043 255.5,214C 257.293,209.922 260.126,206.756 264,204.5C 266.151,197.547 268.985,190.88 272.5,184.5C 273.167,183.167 273.833,183.167 274.5,184.5C 268.83,193.011 265.663,202.344 265,212.5C 263.951,211.483 262.784,211.316 261.5,212C 260.226,212.977 260.226,213.811 261.5,214.5 Z"/></g>
<g><path style="opacity:1" fill="#ec1c23" d="M 295.5,186.5 C 295.833,187.5 296.5,188.167 297.5,188.5C 297.328,189.492 297.662,190.158 298.5,190.5C 298.259,192.898 298.926,194.898 300.5,196.5C 300.232,198.099 300.566,199.432 301.5,200.5C 302.263,202.368 303.263,204.035 304.5,205.5C 304.427,207.027 305.094,208.027 306.5,208.5C 306.44,209.043 306.107,209.376 305.5,209.5C 296.892,203.062 288.725,196.062 281,188.5C 279.991,186.975 279.491,185.308 279.5,183.5C 284.5,183.5 289.5,183.5 294.5,183.5C 294.263,184.791 294.596,185.791 295.5,186.5 Z"/></g>
<g><path style="opacity:1" fill="#181918" d="M 203.5,184.5 C 204.933,185.833 206.267,187.333 207.5,189C 184.832,209.502 158.499,222.169 128.5,227C 118.93,231.624 108.93,234.79 98.5,236.5C 94.73,236.372 91.0634,235.705 87.5,234.5C 89.5104,231.983 92.1771,230.483 95.5,230C 122.029,224.534 148.029,217.201 173.5,208C 185.201,202.319 195.201,194.485 203.5,184.5 Z"/></g>
<g><path style="opacity:1" fill="#d01e21" d="M 281.5,192.5 C 276.922,198.651 272.589,204.985 268.5,211.5C 267.053,210.866 266.387,209.699 266.5,208C 266.921,205.815 267.421,203.649 268,201.5C 270.369,196.038 273.036,190.705 276,185.5C 276.333,185.167 276.667,184.833 277,184.5C 277.738,187.648 279.238,190.315 281.5,192.5 Z"/></g>
<g><path style="opacity:1" fill="#fec90d" d="M 308.5,184.5 C 309.833,184.5 310.5,185.167 310.5,186.5C 310.5,185.167 309.833,184.5 308.5,184.5 Z"/></g>
<g><path style="opacity:1" fill="#000000" d="M 295.5,186.5 C 296.167,186.5 296.833,186.5 297.5,186.5C 297.5,187.167 297.5,187.833 297.5,188.5C 296.5,188.167 295.833,187.5 295.5,186.5 Z"/></g>
<g><path style="opacity:1" fill="#fec90d" d="M 297.5,186.5 C 298.833,186.5 299.5,187.167 299.5,188.5C 298.833,188.5 298.167,188.5 297.5,188.5C 297.5,187.833 297.5,187.167 297.5,186.5 Z"/></g>
<g><path style="opacity:1" fill="#feeecb" d="M 317.5,186.5 C 319.121,188.942 321.454,190.275 324.5,190.5C 326.631,191.314 328.964,191.814 331.5,192C 324.664,196.091 319.33,194.591 315.5,187.5C 315.957,186.702 316.624,186.369 317.5,186.5 Z"/></g>
<g><path style="opacity:1" fill="#34281d" d="M 195.5,187.5 C 196.239,187.369 196.906,187.536 197.5,188C 188.025,199.054 176.358,205.888 162.5,208.5C 173.734,201.725 184.734,194.725 195.5,187.5 Z"/></g>
<g><path style="opacity:1" fill="#000000" d="M 297.5,188.5 C 298.167,188.5 298.833,188.5 299.5,188.5C 299.167,189.167 298.833,189.833 298.5,190.5C 297.662,190.158 297.328,189.492 297.5,188.5 Z"/></g>
<g><path style="opacity:1" fill="#000000" d="M 102.5,191.5 C 103.873,191.343 105.207,191.51 106.5,192C 107.474,194.702 106.474,196.035 103.5,196C 102.62,194.644 102.286,193.144 102.5,191.5 Z"/></g>
<g><path style="opacity:1" fill="#ec1c23" d="M 311.5,193.5 C 311.328,194.492 311.662,195.158 312.5,195.5C 314.647,197.737 316.98,199.737 319.5,201.5C 317.692,201.509 316.025,201.009 314.5,200C 311.113,197.998 309.613,195.165 310,191.5C 310.278,192.416 310.778,193.082 311.5,193.5 Z"/></g>
<g><path style="opacity:1" fill="#fec90d" d="M 313.5,193.5 C 312.833,193.5 312.167,193.5 311.5,193.5C 312.167,190.833 312.833,190.833 313.5,193.5 Z"/></g>
<g><path style="opacity:1" fill="#1d1482" d="M 314.5,191.5 C 316.641,194.472 319.308,196.972 322.5,199C 321.944,199.383 321.611,199.883 321.5,200.5C 321.158,201.338 320.492,201.672 319.5,201.5C 316.98,199.737 314.647,197.737 312.5,195.5C 312.833,194.833 313.167,194.167 313.5,193.5C 314.338,193.158 314.672,192.492 314.5,191.5 Z"/></g>
<g><path style="opacity:1" fill="#fefffe" d="M 103.5,192.5 C 106.001,192.511 106.168,193.178 104,194.5C 103.536,193.906 103.369,193.239 103.5,192.5 Z"/></g>
<g><path style="opacity:1" fill="#34281d" d="M 158.5,201.5 C 156.539,203.312 154.206,204.312 151.5,204.5C 146.265,202 142.932,198 141.5,192.5C 148.335,193.345 154.002,196.345 158.5,201.5 Z"/></g>
<g><path style="opacity:1" fill="#523f2e" d="M 138.5,363.5 C 135.712,364.655 133.545,366.655 132,369.5C 128.789,366.189 127.956,362.522 129.5,358.5C 136.598,345.14 143.598,331.64 150.5,318C 151.5,317.5 152.5,317 153.5,316.5C 156.405,317.813 159.405,318.313 162.5,318C 170.766,314.725 178.266,310.225 185,304.5C 188.163,308.156 190.829,312.156 193,316.5C 193.893,317.711 194.726,317.711 195.5,316.5C 193.136,311.091 189.802,306.424 185.5,302.5C 181.842,285.969 178.342,269.303 175,252.5C 169.124,241.909 162.624,231.743 155.5,222C 163.198,219.146 170.865,216.313 178.5,213.5C 180.903,217.285 183.57,220.952 186.5,224.5C 188.421,225.641 190.421,225.808 192.5,225C 192.934,218.371 190.268,213.204 184.5,209.5C 192.052,204.455 199.219,198.788 206,192.5C 206.167,192.833 206.333,193.167 206.5,193.5C 203.752,196.081 201.586,199.081 200,202.5C 199.333,204.167 199.333,205.833 200,207.5C 203.926,209.437 207.759,211.437 211.5,213.5C 203.415,228.242 198.915,243.909 198,260.5C 199.14,265.64 202.306,268.807 207.5,270C 209.5,270.667 211.5,271.333 213.5,272C 219.142,272.356 224.642,272.522 230,272.5C 231.092,276.797 231.425,281.131 231,285.5C 227.534,295.698 224.534,306.031 222,316.5C 214.1,313.102 211.434,315.436 214,323.5C 215.41,324.787 216.91,325.954 218.5,327C 197.895,335.484 176.562,337.817 154.5,334C 148.474,343.559 143.14,353.393 138.5,363.5 Z"/></g>
<g><path style="opacity:1" fill="#1815a1" d="M 281.5,192.5 C 287.513,197.193 293.18,202.359 298.5,208C 301.554,210.194 304.888,211.861 308.5,213C 305.451,214.762 302.118,215.596 298.5,215.5C 289.481,214.856 280.481,214.023 271.5,213C 270.263,212.768 269.263,212.268 268.5,211.5C 272.589,204.985 276.922,198.651 281.5,192.5 Z"/></g>
<g><path style="opacity:1" fill="#000000" d="M 302.5,192.5 C 303.738,194.214 304.405,196.214 304.5,198.5C 303.833,197.833 303.167,197.167 302.5,196.5C 302.5,195.167 301.833,194.5 300.5,194.5C 301.167,193.833 301.833,193.167 302.5,192.5 Z"/></g>
<g><path style="opacity:1" fill="#fec90d" d="M 273.5,193.5 C 275.337,193.639 275.67,194.306 274.5,195.5C 273.702,195.043 273.369,194.376 273.5,193.5 Z"/></g>
<g><path style="opacity:1" fill="#000000" d="M 311.5,193.5 C 312.167,193.5 312.833,193.5 313.5,193.5C 313.167,194.167 312.833,194.833 312.5,195.5C 311.662,195.158 311.328,194.492 311.5,193.5 Z"/></g>
<g><path style="opacity:1" fill="#fec90d" d="M 208.5,196.5 C 209.151,195.909 209.818,195.243 210.5,194.5C 216.392,196.445 222.058,198.945 227.5,202C 225.316,204.016 223.316,206.183 221.5,208.5C 218.947,209.805 216.28,210.805 213.5,211.5C 209.857,209.404 206.024,207.737 202,206.5C 202.359,201.781 204.359,197.781 208,194.5C 208.464,195.094 208.631,195.761 208.5,196.5 Z"/></g>
<g><path style="opacity:1" fill="#fec90d" d="M 300.5,194.5 C 301.833,194.5 302.5,195.167 302.5,196.5C 301.833,196.5 301.167,196.5 300.5,196.5C 300.5,195.833 300.5,195.167 300.5,194.5 Z"/></g>
<g><path style="opacity:1" fill="#000000" d="M 300.5,196.5 C 301.167,196.5 301.833,196.5 302.5,196.5C 301.766,197.708 301.433,199.041 301.5,200.5C 300.566,199.432 300.232,198.099 300.5,196.5 Z"/></g>
<g><path style="opacity:1" fill="#1e1371" d="M 302.5,196.5 C 303.167,197.167 303.833,197.833 304.5,198.5C 305.401,199.29 306.068,200.29 306.5,201.5C 305.833,202.167 305.167,202.833 304.5,203.5C 304.5,204.167 304.5,204.833 304.5,205.5C 303.263,204.035 302.263,202.368 301.5,200.5C 301.433,199.041 301.766,197.708 302.5,196.5 Z"/></g>
<g><path style="opacity:1" fill="#392c21" d="M 208.5,196.5 C 212.294,198.078 215.96,200.245 219.5,203C 213.834,209.185 208.834,208.851 204.5,202C 205.996,200.255 207.329,198.421 208.5,196.5 Z"/></g>
<g><path style="opacity:1" fill="#fefffe" d="M 329.5,201.5 C 328.833,201.5 328.167,201.5 327.5,201.5C 327.97,200.307 328.97,199.64 330.5,199.5C 331.5,199.667 332.5,199.833 333.5,200C 331.942,200.21 330.609,200.71 329.5,201.5 Z"/></g>
<g><path style="opacity:1" fill="#52402e" d="M 128.5,200.5 C 132.115,202.021 134.615,204.687 136,208.5C 136.326,211.985 135.826,215.318 134.5,218.5C 124.965,221.3 115.298,223.634 105.5,225.5C 104.833,225.167 104.167,224.833 103.5,224.5C 107.794,221.011 112.127,217.511 116.5,214C 121.079,209.926 125.079,205.426 128.5,200.5 Z"/></g>
<g><path style="opacity:1" fill="#fefffe" d="M 321.5,200.5 C 323.565,200.517 325.565,200.85 327.5,201.5C 328.167,201.5 328.833,201.5 329.5,201.5C 334.382,204.226 337.049,208.56 337.5,214.5C 336.999,216.836 335.999,218.836 334.5,220.5C 333.624,220.631 332.957,220.298 332.5,219.5C 333.127,218.583 333.461,217.583 333.5,216.5C 334.574,211.365 332.907,207.532 328.5,205C 325.372,204.159 322.372,203.325 319.5,202.5C 319.5,202.167 319.5,201.833 319.5,201.5C 320.492,201.672 321.158,201.338 321.5,200.5 Z"/></g>
<g><path style="opacity:1" fill="#fec90d" d="M 269.5,201.5 C 271.337,201.639 271.67,202.306 270.5,203.5C 269.702,203.043 269.369,202.376 269.5,201.5 Z"/></g>
<g><path style="opacity:1" fill="#000000" d="M 306.5,201.5 C 307.674,202.514 308.34,203.847 308.5,205.5C 307.833,205.5 307.167,205.5 306.5,205.5C 306.5,204.167 305.833,203.5 304.5,203.5C 305.167,202.833 305.833,202.167 306.5,201.5 Z"/></g>
<g><path style="opacity:1" fill="#ec1c23" d="M 329.5,201.5 C 332.535,201.539 335.202,202.539 337.5,204.5C 339.803,208.586 340.136,212.919 338.5,217.5C 336.762,219.119 336.262,221.119 337,223.5C 339.445,224.977 341.612,226.81 343.5,229C 338.749,228.649 334.082,227.649 329.5,226C 330.843,223.768 332.51,221.934 334.5,220.5C 335.999,218.836 336.999,216.836 337.5,214.5C 337.049,208.56 334.382,204.226 329.5,201.5 Z"/></g>
<g><path style="opacity:1" fill="#ea1c23" d="M 319.5,202.5 C 322.372,203.325 325.372,204.159 328.5,205C 332.907,207.532 334.574,211.365 333.5,216.5C 328.095,207.296 320.429,204.63 310.5,208.5C 310.068,207.29 309.401,206.29 308.5,205.5C 308.34,203.847 307.674,202.514 306.5,201.5C 306.068,200.29 305.401,199.29 304.5,198.5C 304.405,196.214 303.738,194.214 302.5,192.5C 302.343,191.127 302.51,189.793 303,188.5C 305.016,194.703 308.183,200.203 312.5,205C 314.674,204.063 317.007,203.229 319.5,202.5 Z"/></g>
<g><path style="opacity:1" fill="#fec90d" d="M 304.5,203.5 C 305.833,203.5 306.5,204.167 306.5,205.5C 305.833,205.5 305.167,205.5 304.5,205.5C 304.5,204.833 304.5,204.167 304.5,203.5 Z"/></g>
<g><path style="opacity:1" fill="#fefffe" d="M 342.5,209.5 C 343.833,210.833 343.833,212.167 342.5,213.5C 341.916,215.743 340.75,217.743 339,219.5C 338.536,218.906 338.369,218.239 338.5,217.5C 340.136,212.919 339.803,208.586 337.5,204.5C 337.897,203.475 338.563,203.308 339.5,204C 340.869,205.719 341.869,207.552 342.5,209.5 Z"/></g>
<g><path style="opacity:1" fill="#1e1370" d="M 304.5,205.5 C 305.167,205.5 305.833,205.5 306.5,205.5C 307.167,205.5 307.833,205.5 308.5,205.5C 309.401,206.29 310.068,207.29 310.5,208.5C 309.167,211.167 307.833,211.167 306.5,208.5C 305.094,208.027 304.427,207.027 304.5,205.5 Z"/></g>
<g><path style="opacity:1" fill="#ec1c23" d="M 317.5,208.5 C 323.978,208.82 328.311,211.987 330.5,218C 328.009,227.387 322.342,230.053 313.5,226C 309.838,221.688 309.005,216.854 311,211.5C 313.166,210.269 315.333,209.269 317.5,208.5 Z"/></g>
<g><path style="opacity:1" fill="#ec1c23" d="M 342.5,209.5 C 342.56,208.957 342.893,208.624 343.5,208.5C 344.799,211.577 344.632,214.577 343,217.5C 342.51,216.207 342.343,214.873 342.5,213.5C 343.833,212.167 343.833,210.833 342.5,209.5 Z"/></g>
<g><path style="opacity:1" fill="#34281d" d="M 184.5,209.5 C 190.268,213.204 192.934,218.371 192.5,225C 190.421,225.808 188.421,225.641 186.5,224.5C 183.57,220.952 180.903,217.285 178.5,213.5C 180.118,211.684 182.118,210.351 184.5,209.5 Z"/></g>
<g><path style="opacity:1" fill="#fefffe" d="M 225.5,212.5 C 221.008,216.138 218.008,220.805 216.5,226.5C 214.274,229.945 212.274,233.611 210.5,237.5C 210.808,238.308 211.308,238.975 212,239.5C 214.728,236.527 217.561,233.694 220.5,231C 219.756,229.961 218.756,229.461 217.5,229.5C 218.635,227.787 220.302,227.12 222.5,227.5C 220.034,233.425 217.867,239.425 216,245.5C 216.333,245.833 216.667,246.167 217,246.5C 219.9,241.74 224.067,239.407 229.5,239.5C 229.739,241.467 229.406,243.301 228.5,245C 226.275,245.239 225.942,244.405 227.5,242.5C 227.167,241.5 226.5,240.833 225.5,240.5C 221.647,243.519 218.313,247.019 215.5,251C 214.552,251.483 213.552,251.649 212.5,251.5C 213.461,248.574 214.127,245.574 214.5,242.5C 215.598,241.399 215.765,240.066 215,238.5C 214.283,239.044 213.783,239.711 213.5,240.5C 207.877,243.394 206.044,247.727 208,253.5C 213.15,256.164 218.65,257.498 224.5,257.5C 225.808,258.232 227.142,259.066 228.5,260C 225.183,260.498 221.85,260.665 218.5,260.5C 204.796,261.972 200.296,256.306 205,243.5C 208.667,235.5 212.333,227.5 216,219.5C 217.277,217.253 218.777,215.253 220.5,213.5C 221.429,212.064 222.595,210.731 224,209.5C 226.158,210.05 226.658,211.05 225.5,212.5 Z"/></g>
<g><path style="opacity:1" fill="#ec1c23" d="M 220.5,213.5 C 218.777,215.253 217.277,217.253 216,219.5C 212.333,227.5 208.667,235.5 205,243.5C 200.296,256.306 204.796,261.972 218.5,260.5C 221.625,261.479 224.958,261.813 228.5,261.5C 228.5,263.167 228.5,264.833 228.5,266.5C 224.5,266.5 220.5,266.5 216.5,266.5C 212.511,265.494 208.511,264.16 204.5,262.5C 202.432,259.715 201.098,256.715 200.5,253.5C 200.517,251.435 200.85,249.435 201.5,247.5C 205.813,236.909 210.147,226.243 214.5,215.5C 215.659,213.369 217.492,212.036 220,211.5C 220.464,212.094 220.631,212.761 220.5,213.5 Z"/></g>
<g><path style="opacity:1" fill="#1c158f" d="M 224.5,257.5 C 218.65,257.498 213.15,256.164 208,253.5C 206.044,247.727 207.877,243.394 213.5,240.5C 214.338,240.842 214.672,241.508 214.5,242.5C 214.127,245.574 213.461,248.574 212.5,251.5C 213.552,251.649 214.552,251.483 215.5,251C 218.313,247.019 221.647,243.519 225.5,240.5C 226.5,240.833 227.167,241.5 227.5,242.5C 225.942,244.405 226.275,245.239 228.5,245C 229.406,243.301 229.739,241.467 229.5,239.5C 224.067,239.407 219.9,241.74 217,246.5C 216.667,246.167 216.333,245.833 216,245.5C 217.867,239.425 220.034,233.425 222.5,227.5C 220.302,227.12 218.635,227.787 217.5,229.5C 216.596,228.791 216.263,227.791 216.5,226.5C 218.008,220.805 221.008,216.138 225.5,212.5C 226.583,212.461 227.583,212.127 228.5,211.5C 233.385,213.628 238.385,215.462 243.5,217C 244.428,217.388 245.095,218.055 245.5,219C 239.248,229.591 233.414,240.425 228,251.5C 227.505,253.473 227.338,255.473 227.5,257.5C 226.5,257.5 225.5,257.5 224.5,257.5 Z"/></g>
<g><path style="opacity:1" fill="#fefffe" d="M 214.5,215.5 C 210.147,226.243 205.813,236.909 201.5,247.5C 203.543,236.215 207.377,225.215 213,214.5C 214.107,213.288 214.607,213.621 214.5,215.5 Z"/></g>
<g><path style="opacity:1" fill="#181818" d="M 302.5,218.5 C 300.948,221.112 298.614,222.445 295.5,222.5C 284.699,223.306 274.033,222.306 263.5,219.5C 262.463,218.07 261.796,216.403 261.5,214.5C 261.56,213.957 261.893,213.624 262.5,213.5C 275.915,215.547 289.248,217.213 302.5,218.5 Z"/></g>
<g><path style="opacity:1" fill="#52402e" d="M 82.5,214.5 C 86.45,218.787 90.45,223.12 94.5,227.5C 92.6314,228.624 90.6314,229.457 88.5,230C 86.2838,232.553 83.7838,234.72 81,236.5C 77.6094,235.942 75.7761,233.942 75.5,230.5C 76.8962,229.148 77.5629,227.481 77.5,225.5C 76.9788,223.476 76.8122,221.476 77,219.5C 79.3284,218.336 81.1618,216.67 82.5,214.5 Z"/></g>
<g><path style="opacity:1" fill="#fec90d" d="M 295.5,222.5 C 298.614,222.445 300.948,221.112 302.5,218.5C 305.444,215.623 307.444,216.289 308.5,220.5C 306.054,224.643 302.387,226.643 297.5,226.5C 296.295,225.423 295.628,224.09 295.5,222.5 Z"/></g>
<g><path style="opacity:1" fill="#2827e3" d="M 252.5,221.5 C 250.937,222.945 249.604,224.611 248.5,226.5C 247.662,226.842 247.328,227.508 247.5,228.5C 245.457,229.579 244.124,231.246 243.5,233.5C 242.662,233.842 242.328,234.508 242.5,235.5C 239.421,238.65 237.087,242.317 235.5,246.5C 234.549,247.919 234.216,249.585 234.5,251.5C 233.355,253.953 233.688,256.287 235.5,258.5C 235.216,260.415 235.549,262.081 236.5,263.5C 236.646,267.387 237.313,271.054 238.5,274.5C 238.198,277.059 238.532,279.393 239.5,281.5C 239.5,289.5 239.5,297.5 239.5,305.5C 238.835,307.369 238.169,309.369 237.5,311.5C 236.914,311.291 236.414,310.957 236,310.5C 235.35,305.809 235.517,301.143 236.5,296.5C 233.921,282.87 231.588,269.203 229.5,255.5C 234.117,242.257 240.784,230.257 249.5,219.5C 251.038,219.453 252.038,220.12 252.5,221.5 Z"/></g>
<g><path style="opacity:1" fill="#ec1c23" d="M 252.5,221.5 C 254.833,221.5 257.167,221.5 259.5,221.5C 259.5,222.5 259.5,223.5 259.5,224.5C 256.29,229.89 252.456,234.89 248,239.5C 245.422,244.156 243.255,248.989 241.5,254C 246.408,271.016 248.408,288.183 247.5,305.5C 246.834,308.358 246.167,311.358 245.5,314.5C 243.572,315.712 241.905,315.379 240.5,313.5C 239.735,310.904 239.401,308.237 239.5,305.5C 240.167,300.5 240.833,295.5 241.5,290.5C 244.167,289.5 244.167,288.5 241.5,287.5C 240.167,286.167 240.167,284.833 241.5,283.5C 244.167,282.833 244.167,282.167 241.5,281.5C 240.833,281.5 240.167,281.5 239.5,281.5C 239.205,279.265 239.539,277.265 240.5,275.5C 243.167,274.833 243.167,274.167 240.5,273.5C 239.833,273.833 239.167,274.167 238.5,274.5C 237.313,271.054 236.646,267.387 236.5,263.5C 237.1,262.1 238.1,261.1 239.5,260.5C 239.179,258.952 238.179,258.285 236.5,258.5C 236.167,258.5 235.833,258.5 235.5,258.5C 233.688,256.287 233.355,253.953 234.5,251.5C 234.833,251.5 235.167,251.5 235.5,251.5C 236.5,251.5 237.5,251.5 238.5,251.5C 238.5,250.5 238.5,249.5 238.5,248.5C 237.5,247.833 236.5,247.167 235.5,246.5C 237.087,242.317 239.421,238.65 242.5,235.5C 243.167,235.833 243.833,236.167 244.5,236.5C 248.5,235.833 248.5,235.167 244.5,234.5C 243.833,234.5 243.5,234.167 243.5,233.5C 244.124,231.246 245.457,229.579 247.5,228.5C 248.167,228.833 248.833,229.167 249.5,229.5C 252.167,228.833 252.167,228.167 249.5,227.5C 248.833,227.5 248.5,227.167 248.5,226.5C 249.604,224.611 250.937,222.945 252.5,221.5 Z"/></g>
<g><path style="opacity:1" fill="#2827e3" d="M 247.5,314.5 C 247.5,311.5 247.5,308.5 247.5,305.5C 248.408,288.183 246.408,271.016 241.5,254C 243.255,248.989 245.422,244.156 248,239.5C 252.456,234.89 256.29,229.89 259.5,224.5C 260.552,223.47 261.886,222.803 263.5,222.5C 270.47,223.58 277.47,224.413 284.5,225C 276.037,231.794 267.87,238.961 260,246.5C 258.08,249.339 256.413,252.339 255,255.5C 254.462,270.181 254.795,284.848 256,299.5C 256.146,304.495 256.98,309.329 258.5,314C 254.925,315.742 251.259,315.908 247.5,314.5 Z"/></g>
<g><path style="opacity:1" fill="#fefffe" d="M 309.5,226.5 C 307.896,229.981 306.896,233.648 306.5,237.5C 307.193,243.187 308.027,248.854 309,254.5C 309.295,270.008 309.795,285.508 310.5,301C 310.475,303.755 310.141,306.422 309.5,309C 307.711,309.52 306.044,309.187 304.5,308C 290.28,298.118 277.614,286.451 266.5,273C 264.005,273.412 261.671,273.245 259.5,272.5C 258.737,271.732 257.737,271.232 256.5,271C 257.056,270.617 257.389,270.117 257.5,269.5C 260.833,266.833 264.167,266.833 267.5,269.5C 267.833,270.5 268.5,271.167 269.5,271.5C 279.727,283.743 291.394,294.076 304.5,302.5C 305.172,303.267 306.005,303.934 307,304.5C 307.78,302.613 307.613,300.946 306.5,299.5C 304.462,291.036 304.128,282.37 305.5,273.5C 304.33,262.142 302.997,250.809 301.5,239.5C 302.938,235.795 304.271,232.128 305.5,228.5C 306.429,227.064 307.595,225.731 309,224.5C 309.464,225.094 309.631,225.761 309.5,226.5 Z"/></g>
<g><path style="opacity:1" fill="#19159c" d="M 305.5,228.5 C 304.271,232.128 302.938,235.795 301.5,239.5C 302.997,250.809 304.33,262.142 305.5,273.5C 304.128,282.37 304.462,291.036 306.5,299.5C 306.715,301.179 306.048,302.179 304.5,302.5C 291.394,294.076 279.727,283.743 269.5,271.5C 269.5,270.167 268.833,269.5 267.5,269.5C 264.167,266.833 260.833,266.833 257.5,269.5C 255.665,262.933 256.498,256.6 260,250.5C 268.18,241.654 277.014,233.487 286.5,226C 287.833,225.833 289.167,225.667 290.5,225.5C 293.26,225.758 295.594,226.758 297.5,228.5C 300.327,227.337 302.994,227.337 305.5,228.5 Z"/></g>
<g><path style="opacity:1" fill="#000000" d="M 248.5,226.5 C 248.5,227.167 248.833,227.5 249.5,227.5C 249.5,228.167 249.5,228.833 249.5,229.5C 248.833,229.167 248.167,228.833 247.5,228.5C 247.328,227.508 247.662,226.842 248.5,226.5 Z"/></g>
<g><path style="opacity:1" fill="#ec1c23" d="M 309.5,226.5 C 311.027,226.427 312.027,227.094 312.5,228.5C 311.471,230.948 310.804,233.614 310.5,236.5C 313.246,249.387 315.246,262.387 316.5,275.5C 315.565,279.139 314.732,282.806 314,286.5C 313.93,295.601 313.096,304.601 311.5,313.5C 304.819,313.331 298.819,311.164 293.5,307C 283.19,295.514 271.857,285.348 259.5,276.5C 258.791,275.596 257.791,275.263 256.5,275.5C 256.5,274.5 256.5,273.5 256.5,272.5C 257.5,272.5 258.5,272.5 259.5,272.5C 261.671,273.245 264.005,273.412 266.5,273C 277.614,286.451 290.28,298.118 304.5,308C 306.044,309.187 307.711,309.52 309.5,309C 310.141,306.422 310.475,303.755 310.5,301C 309.795,285.508 309.295,270.008 309,254.5C 308.027,248.854 307.193,243.187 306.5,237.5C 306.896,233.648 307.896,229.981 309.5,226.5 Z"/></g>
<g><path style="opacity:1" fill="#fec90d" d="M 249.5,227.5 C 252.167,228.167 252.167,228.833 249.5,229.5C 249.5,228.833 249.5,228.167 249.5,227.5 Z"/></g>
<g><path style="opacity:1" fill="#1d1256" d="M 216.5,226.5 C 216.263,227.791 216.596,228.791 217.5,229.5C 218.756,229.461 219.756,229.961 220.5,231C 217.561,233.694 214.728,236.527 212,239.5C 211.308,238.975 210.808,238.308 210.5,237.5C 212.274,233.611 214.274,229.945 216.5,226.5 Z"/></g>
<g><path style="opacity:1" fill="#fefffe" d="M 312.5,228.5 C 313.5,228.5 314.5,228.5 315.5,228.5C 315.607,232.535 315.274,236.535 314.5,240.5C 321.006,266.013 321.006,291.513 314.5,317C 312.5,317.5 310.5,318 308.5,318.5C 300.311,315.804 292.977,311.638 286.5,306C 277.803,297.637 269.469,288.97 261.5,280C 259.833,279 258.167,278 256.5,277C 257.448,276.517 258.448,276.351 259.5,276.5C 271.857,285.348 283.19,295.514 293.5,307C 298.819,311.164 304.819,313.331 311.5,313.5C 313.096,304.601 313.93,295.601 314,286.5C 314.732,282.806 315.565,279.139 316.5,275.5C 315.246,262.387 313.246,249.387 310.5,236.5C 310.804,233.614 311.471,230.948 312.5,228.5 Z"/></g>
<g><path style="opacity:1" fill="#523f2e" d="M 302.5,409.5 C 295.84,409.335 289.507,407.835 283.5,405C 282.748,404.329 282.414,403.496 282.5,402.5C 282.577,401.25 283.244,400.417 284.5,400C 291.167,397.333 297.833,394.667 304.5,392C 307.762,389.408 310.262,386.241 312,382.5C 310.301,361.9 309.134,341.234 308.5,320.5C 311.742,320.429 314.575,319.429 317,317.5C 323.025,291.585 322.859,265.751 316.5,240C 317.218,236.539 317.718,233.039 318,229.5C 318.725,230.059 319.558,230.392 320.5,230.5C 322.974,229.731 325.474,229.064 328,228.5C 347.21,232.126 365.71,237.959 383.5,246C 389.958,250.124 395.458,255.29 400,261.5C 399.544,264.428 399.544,267.428 400,270.5C 400.903,271.701 402.069,272.535 403.5,273C 398.489,286.695 392.322,299.862 385,312.5C 376.815,320.673 367.649,327.506 357.5,333C 344.714,343.069 337.547,356.236 336,372.5C 335.167,377.5 334.333,382.5 333.5,387.5C 334.357,390.171 334.857,392.837 335,395.5C 323.849,399.493 313.016,404.159 302.5,409.5 Z"/></g>
<g><path style="opacity:1" fill="#000000" d="M 243.5,233.5 C 243.5,234.167 243.833,234.5 244.5,234.5C 244.5,235.167 244.5,235.833 244.5,236.5C 243.833,236.167 243.167,235.833 242.5,235.5C 242.328,234.508 242.662,233.842 243.5,233.5 Z"/></g>
<g><path style="opacity:1" fill="#fec90d" d="M 244.5,234.5 C 248.5,235.167 248.5,235.833 244.5,236.5C 244.5,235.833 244.5,235.167 244.5,234.5 Z"/></g>
<g><path style="opacity:1" fill="#000000" d="M 214.5,242.5 C 214.672,241.508 214.338,240.842 213.5,240.5C 213.783,239.711 214.283,239.044 215,238.5C 215.765,240.066 215.598,241.399 214.5,242.5 Z"/></g>
<g><path style="opacity:1" fill="#fec90d" d="M 240.5,242.5 C 242.337,242.639 242.67,243.306 241.5,244.5C 240.702,244.043 240.369,243.376 240.5,242.5 Z"/></g>
<g><path style="opacity:1" fill="#000000" d="M 235.5,246.5 C 236.5,247.167 237.5,247.833 238.5,248.5C 237.5,248.5 236.5,248.5 235.5,248.5C 235.5,249.5 235.5,250.5 235.5,251.5C 235.167,251.5 234.833,251.5 234.5,251.5C 234.216,249.585 234.549,247.919 235.5,246.5 Z"/></g>
<g><path style="opacity:1" fill="#fec90d" d="M 238.5,248.5 C 238.5,249.5 238.5,250.5 238.5,251.5C 237.5,251.5 236.5,251.5 235.5,251.5C 235.5,250.5 235.5,249.5 235.5,248.5C 236.5,248.5 237.5,248.5 238.5,248.5 Z"/></g>
<g><path style="opacity:1" fill="#fefffe" d="M 200.5,253.5 C 201.098,256.715 202.432,259.715 204.5,262.5C 208.511,264.16 212.511,265.494 216.5,266.5C 220.684,267.166 225.018,267.833 229.5,268.5C 220.012,271.789 211.012,270.622 202.5,265C 199.807,261.34 199.14,257.506 200.5,253.5 Z"/></g>
<g><path style="opacity:1" fill="#f8f8f8" d="M 289.5,255.5 C 294.371,257.317 295.038,259.817 291.5,263C 293.167,264 294.833,265 296.5,266C 294.205,266.984 294.539,267.817 297.5,268.5C 298.736,267.754 300.07,267.421 301.5,267.5C 301.241,271.24 301.574,274.906 302.5,278.5C 301.5,279.333 300.5,280.167 299.5,281C 301.211,282.133 301.711,283.633 301,285.5C 298.457,286.207 296.291,287.54 294.5,289.5C 293.702,285.616 292.036,284.949 289.5,287.5C 287.766,282.298 285.1,277.632 281.5,273.5C 283.553,269.588 285.72,269.588 288,273.5C 289.142,271.321 289.975,268.988 290.5,266.5C 289.619,265.029 288.286,264.196 286.5,264C 285.941,263.275 285.608,262.442 285.5,261.5C 287.218,259.777 288.551,257.777 289.5,255.5 Z"/></g>
<g><path style="opacity:1" fill="#000000" d="M 235.5,258.5 C 235.833,258.5 236.167,258.5 236.5,258.5C 236.821,260.048 237.821,260.715 239.5,260.5C 238.1,261.1 237.1,262.1 236.5,263.5C 235.549,262.081 235.216,260.415 235.5,258.5 Z"/></g>
<g><path style="opacity:1" fill="#fec90d" d="M 236.5,258.5 C 238.179,258.285 239.179,258.952 239.5,260.5C 237.821,260.715 236.821,260.048 236.5,258.5 Z"/></g>
<g><path style="opacity:1" fill="#000000" d="M 289.5,258.5 C 291.97,259.36 292.137,260.694 290,262.5C 288.489,261.436 288.323,260.103 289.5,258.5 Z"/></g>
<g><path style="opacity:1" fill="#383838" d="M 402.5,261.5 C 408.543,262.004 414.543,262.838 420.5,264C 420.167,264.333 419.833,264.667 419.5,265C 420.833,266.667 422.167,268.333 423.5,270C 432.494,276.499 441.827,282.499 451.5,288C 455.702,291.867 459.535,296.033 463,300.5C 462.243,304.614 462.577,308.614 464,312.5C 458.61,309.554 453.11,306.721 447.5,304C 444.167,301.333 440.833,298.667 437.5,296C 429.167,289.001 421.167,281.001 413.5,272C 409.954,270.826 406.287,270.16 402.5,270C 401.477,267.226 401.477,264.393 402.5,261.5 Z"/></g>
<g><path style="opacity:1" fill="#393939" d="M 421.5,264.5 C 439.018,264.36 456.351,266.86 473.5,272C 478.659,274.412 483.659,277.079 488.5,280C 488.167,280.333 487.833,280.667 487.5,281C 491.546,286.593 494.379,292.759 496,299.5C 501.651,312.485 511.151,321.319 524.5,326C 521.97,327.422 519.303,327.755 516.5,327C 511.787,325.81 507.453,323.81 503.5,321C 491.939,309.719 482.439,296.886 475,282.5C 471.922,277.589 467.756,273.922 462.5,271.5C 461.479,272.002 461.312,272.668 462,273.5C 466.506,275.918 470.173,279.251 473,283.5C 481.511,297.649 490.344,311.483 499.5,325C 495.747,324.955 492.581,323.455 490,320.5C 488.753,317.671 487.253,315.005 485.5,312.5C 481.091,310.547 476.924,308.213 473,305.5C 469.368,297.909 466.035,290.243 463,282.5C 462.949,289.126 463.949,295.459 466,301.5C 462.246,295.742 457.746,290.575 452.5,286C 443.331,280.583 434.331,274.917 425.5,269C 424.267,267.333 422.933,265.833 421.5,264.5 Z"/></g>
<g><path style="opacity:1" fill="#fec90d" d="M 239.5,266.5 C 241.337,266.639 241.67,267.306 240.5,268.5C 239.702,268.043 239.369,267.376 239.5,266.5 Z"/></g>
<g><path style="opacity:1" fill="#000000" d="M 429.5,267.5 C 430.251,266.427 431.251,266.26 432.5,267C 438.568,270.399 444.068,274.565 449,279.5C 449.667,280.167 449.667,280.833 449,281.5C 443.439,275.426 436.939,270.76 429.5,267.5 Z"/></g>
<g><path style="opacity:1" fill="#000000" d="M 267.5,269.5 C 268.833,269.5 269.5,270.167 269.5,271.5C 268.5,271.167 267.833,270.5 267.5,269.5 Z"/></g>
<g><path style="opacity:1" fill="#000000" d="M 240.5,273.5 C 240.5,274.167 240.5,274.833 240.5,275.5C 239.539,277.265 239.205,279.265 239.5,281.5C 238.532,279.393 238.198,277.059 238.5,274.5C 239.167,274.167 239.833,273.833 240.5,273.5 Z"/></g>
<g><path style="opacity:1" fill="#fec90d" d="M 240.5,273.5 C 243.167,274.167 243.167,274.833 240.5,275.5C 240.5,274.833 240.5,274.167 240.5,273.5 Z"/></g>
<g><path style="opacity:1" fill="#34281d" d="M 395.5,335.5 C 390.285,334.702 385.785,336.036 382,339.5C 380.179,345.709 379.012,352.043 378.5,358.5C 374.539,349.925 369.539,341.925 363.5,334.5C 372.368,328.809 380.534,322.143 388,314.5C 395.417,301.752 401.583,288.419 406.5,274.5C 408.187,273.432 409.854,273.599 411.5,275C 413.333,276.833 415.167,278.667 417,280.5C 417.115,294.038 413.782,306.705 407,318.5C 403.304,324.344 399.47,330.011 395.5,335.5 Z"/></g>
<g><path style="opacity:1" fill="#000000" d="M 475.5,276.5 C 480.226,283.602 484.726,290.936 489,298.5C 492.131,302.633 495.631,306.466 499.5,310C 498.833,310.667 498.167,310.667 497.5,310C 487.952,300.286 480.619,289.119 475.5,276.5 Z"/></g>
<g><path style="opacity:1" fill="#34281d" d="M 256.5,280.5 C 256.897,279.475 257.563,279.308 258.5,280C 267.136,289.637 276.136,298.97 285.5,308C 291.156,312.496 297.156,316.496 303.5,320C 295.591,322.803 287.591,325.303 279.5,327.5C 274.381,326.74 269.714,324.906 265.5,322C 262.414,317.994 260.248,313.494 259,308.5C 258.2,299.01 257.367,289.676 256.5,280.5 Z"/></g>
<g><path style="opacity:1" fill="#000000" d="M 296.5,279.5 C 297.364,280.688 298.364,281.855 299.5,283C 296.444,283.349 295.444,282.182 296.5,279.5 Z"/></g>
<g><path style="opacity:1" fill="#000000" d="M 239.5,281.5 C 240.167,281.5 240.833,281.5 241.5,281.5C 241.5,282.167 241.5,282.833 241.5,283.5C 240.167,284.833 240.167,286.167 241.5,287.5C 241.5,288.5 241.5,289.5 241.5,290.5C 240.833,295.5 240.167,300.5 239.5,305.5C 239.5,297.5 239.5,289.5 239.5,281.5 Z"/></g>
<g><path style="opacity:1" fill="#fec90d" d="M 241.5,281.5 C 244.167,282.167 244.167,282.833 241.5,283.5C 241.5,282.833 241.5,282.167 241.5,281.5 Z"/></g>
<g><path style="opacity:1" fill="#3b3c3b" d="M 490.5,281.5 C 500.661,290.828 510.328,300.661 519.5,311C 524.362,314.593 529.362,317.927 534.5,321C 532,321.885 529.667,323.052 527.5,324.5C 515.465,320.62 506.298,313.287 500,302.5C 496.731,295.518 493.564,288.518 490.5,281.5 Z"/></g>
<g><path style="opacity:1" fill="#fec90d" d="M 241.5,287.5 C 244.167,288.5 244.167,289.5 241.5,290.5C 241.5,289.5 241.5,288.5 241.5,287.5 Z"/></g>
<g><path style="opacity:1" fill="#3b3c3b" d="M 433.5,296.5 C 433.897,295.475 434.563,295.308 435.5,296C 442.351,303.35 450.518,308.85 460,312.5C 461.829,314.192 461.329,315.192 458.5,315.5C 454.602,315.022 450.935,313.855 447.5,312C 442.231,307.232 437.565,302.066 433.5,296.5 Z"/></g>
<g><path style="opacity:1" fill="#fec90d" d="M 242.5,296.5 C 244.337,296.639 244.67,297.306 243.5,298.5C 242.702,298.043 242.369,297.376 242.5,296.5 Z"/></g>
<g><path style="opacity:1" fill="#000000" d="M 306.5,299.5 C 307.613,300.946 307.78,302.613 307,304.5C 306.005,303.934 305.172,303.267 304.5,302.5C 306.048,302.179 306.715,301.179 306.5,299.5 Z"/></g>
<g><path style="opacity:1" fill="#52402e" d="M 232.5,301.5 C 233.198,304.897 233.865,308.397 234.5,312C 232.765,313.985 231.432,313.651 230.5,311C 231.61,307.951 232.277,304.784 232.5,301.5 Z"/></g>
<g><path style="opacity:1" fill="#34281d" d="M 177.5,302.5 C 179.288,302.215 180.955,302.548 182.5,303.5C 176.497,309.603 169.497,313.27 161.5,314.5C 162.128,312.742 163.128,311.242 164.5,310C 168.896,307.473 173.229,304.973 177.5,302.5 Z"/></g>
<g><path style="opacity:1" fill="#fec90d" d="M 242.5,302.5 C 244.465,302.948 244.798,303.948 243.5,305.5C 242.614,304.675 242.281,303.675 242.5,302.5 Z"/></g>
<g><path style="opacity:1" fill="#34281d" d="M 357.5,302.5 C 359.5,302.5 361.5,302.5 363.5,302.5C 362.359,308.158 359.359,312.658 354.5,316C 347.833,320.333 341.167,324.667 334.5,329C 331.978,330.341 329.311,331.174 326.5,331.5C 325.56,327.537 325.393,323.537 326,319.5C 327.167,318.333 328.333,317.167 329.5,316C 338.772,311.196 348.105,306.696 357.5,302.5 Z"/></g>
<g><path style="opacity:1" fill="#fec90d" d="M 242.5,310.5 C 244.337,310.639 244.67,311.306 243.5,312.5C 242.702,312.043 242.369,311.376 242.5,310.5 Z"/></g>
<g><path style="opacity:1" fill="#393939" d="M 247.5,305.5 C 247.5,308.5 247.5,311.5 247.5,314.5C 247.577,315.75 248.244,316.583 249.5,317C 252.907,317.482 256.24,317.482 259.5,317C 263.4,319.951 263.067,322.618 258.5,325C 256.966,325.923 255.299,326.423 253.5,326.5C 245.465,324.381 237.965,325.381 231,329.5C 228.386,323.451 229.553,318.284 234.5,314C 236.473,313.505 238.473,313.338 240.5,313.5C 241.905,315.379 243.572,315.712 245.5,314.5C 246.167,311.358 246.834,308.358 247.5,305.5 Z"/></g>
<g><path style="opacity:1" fill="#3b3c3b" d="M 216.5,316.5 C 218.138,317.159 219.805,317.826 221.5,318.5C 222.481,322.182 222.981,325.849 223,329.5C 221.333,326.5 219,324.167 216,322.5C 213.909,320.17 214.075,318.17 216.5,316.5 Z"/></g>
<g><path style="opacity:1" fill="#32261c" d="M 186.5,320.5 C 188.252,320.418 189.252,321.251 189.5,323C 188.917,325.499 187.584,327.499 185.5,329C 173.218,330.181 161.218,329.181 149.5,326C 159.876,325.839 170.209,325.172 180.5,324C 182.727,323.059 184.727,321.892 186.5,320.5 Z"/></g>
<g><path style="opacity:1" fill="#4e3c2c" d="M 135.5,338.5 C 132.656,338.657 130.989,337.324 130.5,334.5C 133.193,328.29 137.86,325.123 144.5,325C 142.206,329.088 140.039,333.255 138,337.5C 137.329,338.252 136.496,338.586 135.5,338.5 Z"/></g>
<g><path style="opacity:1" fill="#fefffe" d="M 130.5,334.5 C 130.989,337.324 132.656,338.657 135.5,338.5C 135.804,339.15 136.137,339.817 136.5,340.5C 134.208,344.921 131.541,349.088 128.5,353C 124.204,352.299 119.871,351.465 115.5,350.5C 115.298,348.011 115.798,345.677 117,343.5C 121.382,340.278 125.882,337.278 130.5,334.5 Z"/></g>
<g><path style="opacity:1" fill="#523f2e" d="M 395.5,335.5 C 400.468,352.441 408.801,367.441 420.5,380.5C 413.882,396.066 406.548,411.066 398.5,425.5C 397.264,427.043 395.598,428.043 393.5,428.5C 389.593,427.534 385.926,426.2 382.5,424.5C 385.094,420.728 387.927,417.061 391,413.5C 393.795,404.987 395.962,396.32 397.5,387.5C 397.534,384.567 396.701,381.9 395,379.5C 391.034,374.533 386.701,369.866 382,365.5C 380.295,363.423 379.128,361.09 378.5,358.5C 379.012,352.043 380.179,345.709 382,339.5C 385.785,336.036 390.285,334.702 395.5,335.5 Z"/></g>
<g><path style="opacity:1" fill="#fefffe" d="M 129.5,358.5 C 127.956,362.522 128.789,366.189 132,369.5C 133.545,366.655 135.712,364.655 138.5,363.5C 138.546,366.929 138.712,370.596 139,374.5C 139.5,375.667 140.333,376.5 141.5,377C 140.944,377.383 140.611,377.883 140.5,378.5C 137.805,378.933 135.638,380.266 134,382.5C 131.628,385.91 129.795,389.577 128.5,393.5C 127.671,386.679 127.171,379.679 127,372.5C 126.545,369.219 125.711,366.052 124.5,363C 125.541,360.277 127.041,357.777 129,355.5C 129.483,356.448 129.649,357.448 129.5,358.5 Z"/></g>
<g><path style="opacity:1" fill="#171717" d="M 128.5,393.5 C 129.795,389.577 131.628,385.91 134,382.5C 135.638,380.266 137.805,378.933 140.5,378.5C 144.194,377.838 147.194,379.172 149.5,382.5C 149.281,383.938 148.781,385.271 148,386.5C 143.622,390.935 138.788,394.768 133.5,398C 129.857,398.832 128.19,397.332 128.5,393.5 Z"/></g>
<g><path style="opacity:1" fill="#fefffe" d="M 282.5,402.5 C 282.414,403.496 282.748,404.329 283.5,405C 289.507,407.835 295.84,409.335 302.5,409.5C 295.309,412.74 287.975,415.906 280.5,419C 279.667,419.833 278.833,420.667 278,421.5C 277.887,425.543 276.721,429.209 274.5,432.5C 267.941,430.796 261.274,429.629 254.5,429C 255.374,425.634 256.374,422.3 257.5,419C 259.5,418.333 261.5,417.667 263.5,417C 268.739,411.09 274.572,405.923 281,401.5C 281.383,402.056 281.883,402.389 282.5,402.5 Z"/></g>
<g><path style="opacity:1" fill="#fefffe" d="M 382.5,424.5 C 385.926,426.2 389.593,427.534 393.5,428.5C 395.598,428.043 397.264,427.043 398.5,425.5C 399.376,425.369 400.043,425.702 400.5,426.5C 399.362,429.913 398.029,433.246 396.5,436.5C 393.094,437.817 389.761,439.317 386.5,441C 384.121,444.412 382.788,448.245 382.5,452.5C 380.833,453.5 379.5,454.833 378.5,456.5C 375.554,457.655 372.554,457.821 369.5,457C 367.167,455.333 364.833,453.667 362.5,452C 361.424,450.274 361.257,448.441 362,446.5C 366.829,442.416 372.162,439.083 378,436.5C 378.539,433.471 379.206,430.471 380,427.5C 380.377,426.058 381.21,425.058 382.5,424.5 Z"/></g>
</svg>
