<?xml version="1.0" encoding="UTF-8"?>
<!DOCTYPE svg PUBLIC "-//W3C//DTD SVG 1.1//EN" "http://www.w3.org/Graphics/SVG/1.1/DTD/svg11.dtd">
<svg xmlns="http://www.w3.org/2000/svg" version="1.1" width="365px" height="382px" style="shape-rendering:geometricPrecision; text-rendering:geometricPrecision; image-rendering:optimizeQuality; fill-rule:evenodd; clip-rule:evenodd" xmlns:xlink="http://www.w3.org/1999/xlink">
<g><path style="opacity:1" fill="#fefffe" d="M 115.5,10.5 C 120.844,10.334 126.177,10.5006 131.5,11C 132,11.5 132.5,12 133,12.5C 133.333,15.1667 133.667,17.8333 134,20.5C 138.871,24.7037 140.705,30.037 139.5,36.5C 143.803,35.7962 147.303,37.1295 150,40.5C 150.333,51.5 150.667,62.5 151,73.5C 151.419,74.6721 152.085,75.6721 153,76.5C 154.045,88.8126 154.545,101.146 154.5,113.5C 160.568,112.652 166.068,113.985 171,117.5C 171.503,122.19 172.17,126.857 173,131.5C 173.667,132.167 174.333,132.833 175,133.5C 175.293,139.594 175.46,145.594 175.5,151.5C 191.124,150.128 206.791,148.962 222.5,148C 225.7,147.899 228.7,147.232 231.5,146C 268.182,145.222 304.848,144.055 341.5,142.5C 341.5,146.167 341.5,149.833 341.5,153.5C 336.316,156.074 330.982,158.574 325.5,161C 306.388,164.914 287.055,167.08 267.5,167.5C 267.739,169.467 267.406,171.301 266.5,173C 259.165,173.278 251.999,174.111 245,175.5C 228.866,173.607 212.699,173.774 196.5,176C 192.348,180.999 187.015,182.833 180.5,181.5C 181.322,189.181 177.989,194.014 170.5,196C 165.177,196.499 159.844,196.666 154.5,196.5C 154.851,202.262 154.351,207.928 153,213.5C 150.358,216.029 147.192,217.029 143.5,216.5C 144.033,225.036 143.367,233.37 141.5,241.5C 144.495,262.526 144.661,283.526 142,304.5C 132.604,317.273 128.604,331.606 130,347.5C 132.333,349.5 134.667,351.5 137,353.5C 137.667,358.5 137.667,363.5 137,368.5C 134.929,369.525 132.762,370.358 130.5,371C 122.833,371.667 115.167,371.667 107.5,371C 104.397,369.561 101.564,367.727 99,365.5C 98.228,353.48 98.3947,341.48 99.5,329.5C 94.7348,314.073 95.7348,299.073 102.5,284.5C 101.896,281.102 101.063,277.769 100,274.5C 95.1768,280.147 90.8434,286.147 87,292.5C 85.8108,303.792 85.1441,315.125 85,326.5C 83.8773,329.249 82.3773,331.749 80.5,334C 73.5667,335.506 66.5667,335.839 59.5,335C 55.5783,331.749 52.4117,327.916 50,323.5C 49.667,312.157 50.0003,300.824 51,289.5C 51.9907,288.57 52.4907,287.404 52.5,286C 49.7371,275.224 51.5704,265.391 58,256.5C 58.5,254.5 59,252.5 59.5,250.5C 58.2367,242.168 58.2367,233.834 59.5,225.5C 56.8333,225.5 54.1667,225.5 51.5,225.5C 51.5,221.833 51.5,218.167 51.5,214.5C 50.1667,214.5 48.8333,214.5 47.5,214.5C 46.0254,210.284 44.6921,205.95 43.5,201.5C 38.8685,200.672 34.2018,200.172 29.5,200C 28.2986,199.097 27.4652,197.931 27,196.5C 25.6075,186.199 25.2742,175.866 26,165.5C 30.0373,164.207 34.2039,163.374 38.5,163C 30.2852,153.405 23.4519,142.905 18,131.5C 17.3333,125.5 17.3333,119.5 18,113.5C 19.1411,111.391 20.6411,109.558 22.5,108C 35.5685,107.3 48.5685,107.8 61.5,109.5C 62.3303,103.528 62.8303,97.5275 63,91.5C 65.7454,81.699 72.2454,77.8657 82.5,80C 83.2598,78.5589 83.9264,77.0589 84.5,75.5C 87.5,74.8333 90.5,74.1667 93.5,73.5C 84.1194,54.2643 89.7861,42.2643 110.5,37.5C 110.97,34.6544 110.137,32.3211 108,30.5C 107.333,25.5 107.333,20.5 108,15.5C 110.17,13.1769 112.67,11.5103 115.5,10.5 Z"/></g>
<g><path style="opacity:1" fill="#010101" d="M 118.5,13.5 C 127.675,10.8545 131.842,14.1879 131,23.5C 135.871,27.7037 137.705,33.037 136.5,39.5C 140.803,38.7962 144.303,40.1295 147,43.5C 147.333,54.5 147.667,65.5 148,76.5C 151.053,80.9444 151.219,85.4444 148.5,90C 149.893,91.1711 150.727,92.6711 151,94.5C 151.812,101.747 151.646,108.914 150.5,116C 156.875,115.602 162.709,117.102 168,120.5C 168.503,125.19 169.17,129.857 170,134.5C 172.702,137.776 173.202,141.443 171.5,145.5C 170.5,146.333 169.5,147.167 168.5,148C 169.627,149.753 170.627,151.587 171.5,153.5C 172.833,153.833 174.167,154.167 175.5,154.5C 188.471,153.239 201.471,152.406 214.5,152C 222.868,151.601 231.035,150.435 239,148.5C 241.042,148.615 243.042,148.949 245,149.5C 276.146,148.098 307.312,146.765 338.5,145.5C 338.5,147.167 338.5,148.833 338.5,150.5C 333.316,153.074 327.982,155.574 322.5,158C 303.388,161.914 284.055,164.08 264.5,164.5C 264.739,166.467 264.406,168.301 263.5,170C 259.577,170.793 255.744,170.626 252,169.5C 250.314,171.919 247.981,172.919 245,172.5C 227.844,170.498 210.677,170.665 193.5,173C 189.348,177.999 184.015,179.833 177.5,178.5C 178.322,186.181 174.989,191.014 167.5,193C 162.177,193.499 156.844,193.666 151.5,193.5C 151.851,199.262 151.351,204.928 150,210.5C 147.358,213.029 144.192,214.029 140.5,213.5C 140.666,220.508 140.5,227.508 140,234.5C 138.842,234.998 138.009,235.831 137.5,237C 139.567,252.592 140.9,268.258 141.5,284C 140.588,289.816 139.755,295.649 139,301.5C 132.511,310.82 128.511,321.153 127,332.5C 126.301,338.175 125.968,343.842 126,349.5C 128.479,352.069 131.146,354.402 134,356.5C 134.667,359.5 134.667,362.5 134,365.5C 126.451,368.398 118.618,369.231 110.5,368C 107.397,366.561 104.564,364.727 102,362.5C 102.491,351.489 102.657,340.489 102.5,329.5C 101.502,322.84 100.502,316.173 99.5,309.5C 100.938,300.946 103.271,292.613 106.5,284.5C 104.761,275.396 102.594,266.396 100,257.5C 99.6667,261.167 99.3333,264.833 99,268.5C 93.2638,274.972 88.2638,281.972 84,289.5C 83.231,294.178 82.3977,298.845 81.5,303.5C 82.5476,310.144 82.7143,316.81 82,323.5C 80.5727,327.947 77.7393,330.78 73.5,332C 69.8333,332.667 66.1667,332.667 62.5,332C 58.5783,328.749 55.4117,324.916 53,320.5C 52.9015,311.168 53.2349,301.834 54,292.5C 55.5084,290.983 56.3417,289.149 56.5,287C 52.7213,276.934 54.2213,267.768 61,259.5C 61.8873,255.675 62.7207,251.842 63.5,248C 61.9723,245.261 61.3056,242.261 61.5,239C 62.0657,233.511 62.399,228.011 62.5,222.5C 59.8333,222.5 57.1667,222.5 54.5,222.5C 54.2493,219.091 54.5827,215.758 55.5,212.5C 53.9547,211.548 52.288,211.215 50.5,211.5C 48.3913,205.732 46.8913,199.732 46,193.5C 42.1695,197.128 37.6695,198.295 32.5,197C 31.2986,196.097 30.4652,194.931 30,193.5C 28.7102,185.198 28.3768,176.865 29,168.5C 34.2128,167.333 39.3794,166.167 44.5,165C 38.1229,155.746 31.6229,146.579 25,137.5C 23.9413,134.382 22.6079,131.382 21,128.5C 19.2011,121.675 20.7011,115.842 25.5,111C 38.8559,110.935 52.1892,111.269 65.5,112C 65.6575,106.262 65.8242,100.429 66,94.5C 68.7454,84.699 75.2454,80.8657 85.5,83C 86.2598,81.5589 86.9264,80.0589 87.5,78.5C 91.122,77.3414 94.7887,77.1747 98.5,78C 99.3802,79.3561 99.7135,80.8561 99.5,82.5C 100.675,82.719 101.675,82.3857 102.5,81.5C 99.412,76.3252 96.5787,70.9918 94,65.5C 91.0125,58.2135 92.5125,52.0469 98.5,47C 103.345,44.2382 108.345,42.0715 113.5,40.5C 113.665,36.8183 113.499,33.1516 113,29.5C 108.304,21.8346 110.137,16.5013 118.5,13.5 Z"/></g>
<g><path style="opacity:1" fill="#b3201e" d="M 122.5,26.5 C 122.158,27.3382 121.492,27.6716 120.5,27.5C 117.331,27.3383 115.331,25.6716 114.5,22.5C 116.323,21.5091 117.823,20.1757 119,18.5C 119.383,19.056 119.883,19.3893 120.5,19.5C 121.167,20.1667 121.833,20.8333 122.5,21.5C 123.29,20.3915 123.79,19.0581 124,17.5C 125.375,19.9368 125.875,22.6035 125.5,25.5C 124.209,25.2627 123.209,25.596 122.5,26.5 Z"/></g>
<g><path style="opacity:1" fill="#ec1c23" d="M 120.5,19.5 C 120.56,18.9569 120.893,18.6236 121.5,18.5C 122.386,19.325 122.719,20.325 122.5,21.5C 121.833,20.8333 121.167,20.1667 120.5,19.5 Z"/></g>
<g><path style="opacity:1" fill="#ec1c23" d="M 122.5,26.5 C 127.791,26.8026 131.125,29.4692 132.5,34.5C 132.471,36.0293 131.804,37.196 130.5,38C 127.294,38.2963 124.128,38.7963 121,39.5C 119.395,38.8993 118.062,37.8993 117,36.5C 117.836,33.5106 119.003,30.5106 120.5,27.5C 121.492,27.6716 122.158,27.3382 122.5,26.5 Z"/></g>
<g><path style="opacity:1" fill="#fbfbfb" d="M 120.5,49.5 C 119.833,49.5 119.5,49.1667 119.5,48.5C 119.555,40.6043 123.222,38.1043 130.5,41C 136.685,47.1052 135.518,50.6052 127,51.5C 124.498,51.6616 122.331,50.9949 120.5,49.5 Z"/></g>
<g><path style="opacity:1" fill="#ec1c23" d="M 125.5,41.5 C 130.281,42.091 131.947,44.591 130.5,49C 122.702,50.0703 121.035,47.5703 125.5,41.5 Z"/></g>
<g><path style="opacity:1" fill="#3f47cc" d="M 125.5,44.5 C 128.166,44.0658 129.333,45.0658 129,47.5C 125.403,49.0661 124.237,48.0661 125.5,44.5 Z"/></g>
<g><path style="opacity:1" fill="#e01d22" d="M 119.5,48.5 C 119.5,49.1667 119.833,49.5 120.5,49.5C 117.803,51.2489 114.97,52.9156 112,54.5C 111.333,62.5 111.333,70.5 112,78.5C 112.561,79.0219 113.228,79.3552 114,79.5C 121.981,74.4605 130.481,73.2938 139.5,76C 140.91,76.3678 141.91,77.2011 142.5,78.5C 139.361,79.6028 136.194,79.6028 133,78.5C 126.122,80.0722 119.289,81.7389 112.5,83.5C 112.737,82.209 112.404,81.209 111.5,80.5C 109.958,79.8592 108.624,78.8592 107.5,77.5C 108.663,75.7148 109.33,73.7148 109.5,71.5C 109.037,66.8294 108.537,62.1628 108,57.5C 107.586,57.0426 107.086,56.7093 106.5,56.5C 104.343,58.4121 102.009,60.0787 99.5,61.5C 98.3961,60.3687 98.7295,59.5354 100.5,59C 99.6919,58.6924 99.0253,58.1924 98.5,57.5C 99.2531,55.2466 100.586,53.4133 102.5,52C 106.327,50.254 109.993,48.254 113.5,46C 115.134,45.5065 116.801,45.3398 118.5,45.5C 118.263,46.791 118.596,47.791 119.5,48.5 Z"/></g>
<g><path style="opacity:1" fill="#d71e21" d="M 135.5,44.5 C 138.099,44.5494 140.266,45.5494 142,47.5C 142.33,51.6502 142.33,55.9836 142,60.5C 142.133,55.3309 139.967,51.6642 135.5,49.5C 136.025,48.8076 136.692,48.3076 137.5,48C 136.027,47.2904 135.36,46.1238 135.5,44.5 Z"/></g>
<g><path style="opacity:1" fill="#fec90d" d="M 126.5,53.5 C 126.56,52.9569 126.893,52.6236 127.5,52.5C 129.502,57.7677 131.335,57.7677 133,52.5C 135.542,54.747 136.042,57.4137 134.5,60.5C 131.286,56.6909 130.286,57.3575 131.5,62.5C 133.5,63.1667 135.5,63.8333 137.5,64.5C 133.134,73.8667 127.3,74.8667 120,67.5C 119.517,66.552 119.351,65.552 119.5,64.5C 122.448,64.7771 125.281,64.4438 128,63.5C 127.697,58.0924 125.864,57.4257 122.5,61.5C 121.353,59.2351 121.186,56.9018 122,54.5C 123.396,56.5268 125.062,56.8602 127,55.5C 127.692,54.5632 127.525,53.8966 126.5,53.5 Z"/></g>
<g><path style="opacity:1" fill="#fec90d" d="M 111.5,80.5 C 111.5,81.5 111.5,82.5 111.5,83.5C 110.5,83.5 109.5,83.5 108.5,83.5C 108.5,82.5 108.5,81.5 108.5,80.5C 109.5,80.5 110.5,80.5 111.5,80.5 Z"/></g>
<g><path style="opacity:1" fill="#fefffe" d="M 92.5,82.5 C 94.8741,84.4013 95.0407,86.7346 93,89.5C 91.9326,88.8095 90.7659,88.3095 89.5,88C 90.9711,86.4167 91.9711,84.5834 92.5,82.5 Z"/></g>
<g><path style="opacity:1" fill="#fec90d" d="M 110.5,85.5 C 112.465,85.9483 112.798,86.9483 111.5,88.5C 110.614,87.675 110.281,86.675 110.5,85.5 Z"/></g>
<g><path style="opacity:1" fill="#c06425" d="M 142.5,92.5 C 141.833,92.8333 141.167,93.1667 140.5,93.5C 138.777,94.807 136.943,94.807 135,93.5C 134.517,94.448 134.351,95.448 134.5,96.5C 133.566,95.4324 133.232,94.099 133.5,92.5C 130.399,92.6917 127.399,93.3584 124.5,94.5C 121.209,93.6182 117.876,92.9516 114.5,92.5C 115.448,91.0221 116.781,90.0221 118.5,89.5C 122.278,86.8421 125.945,87.1754 129.5,90.5C 129.762,88.8678 128.762,87.7012 126.5,87C 130.833,86.3333 135.167,86.3333 139.5,87C 137.671,88.1133 136.837,89.6133 137,91.5C 138.684,89.6487 140.517,87.982 142.5,86.5C 143.231,88.4012 143.231,90.4012 142.5,92.5 Z"/></g>
<g><path style="opacity:1" fill="#c8b87d" d="M 96.5,87.5 C 101.046,87.2681 105.379,88.1015 109.5,90C 107.115,90.0549 105.781,91.2216 105.5,93.5C 106.075,97.4821 107.408,101.149 109.5,104.5C 107.436,107.461 105.769,110.628 104.5,114C 101.867,113.747 99.2004,113.747 96.5,114C 95.8095,115.067 95.3095,116.234 95,117.5C 94.6258,116.584 94.1258,115.75 93.5,115C 96.6683,111.825 98.0016,107.992 97.5,103.5C 97.2789,98.5596 96.6122,93.7263 95.5,89C 96.056,88.6174 96.3893,88.1174 96.5,87.5 Z"/></g>
<g><path style="opacity:1" fill="#b87a56" d="M 118.5,89.5 C 117.022,89.762 115.689,89.4287 114.5,88.5C 115.167,88.1667 115.833,87.8333 116.5,87.5C 117.713,87.7472 118.38,88.4138 118.5,89.5 Z"/></g>
<g><path style="opacity:1" fill="#b9a974" d="M 77.5,88.5 C 79.8568,88.3367 82.1902,88.5034 84.5,89C 86.0609,89.3176 87.2276,90.1509 88,91.5C 91.4003,97.6342 91.2336,103.634 87.5,109.5C 83.6527,110.937 79.8194,111.27 76,110.5C 75.6827,112.301 75.016,112.634 74,111.5C 72.6319,110.007 72.4652,108.507 73.5,107C 72.8333,106.667 72.1667,106.333 71.5,106C 72.0681,104.704 72.0681,103.204 71.5,101.5C 71.7092,100.006 72.3759,98.8388 73.5,98C 72.6919,97.6924 72.0253,97.1924 71.5,96.5C 72.2458,95.2638 72.5792,93.9305 72.5,92.5C 73.552,92.6495 74.552,92.4828 75.5,92C 75.1667,91.6667 74.8333,91.3333 74.5,91C 75.5707,90.1482 76.5707,89.3149 77.5,88.5 Z"/></g>
<g><path style="opacity:1" fill="#fefffe" d="M 90.5,90.5 C 91.7079,91.2341 93.0413,91.5674 94.5,91.5C 95.1997,97.1586 95.3664,102.825 95,108.5C 94.2515,110.332 93.2515,111.999 92,113.5C 90.9783,112.646 90.1449,111.646 89.5,110.5C 93.103,104.023 93.4363,97.3562 90.5,90.5 Z"/></g>
<g><path style="opacity:1" fill="#000000" d="M 125.5,90.5 C 127.983,90.73 128.483,91.3966 127,92.5C 125.97,92.1639 125.47,91.4972 125.5,90.5 Z"/></g>
<g><path style="opacity:1" fill="#fec90d" d="M 111.5,91.5 C 113.337,91.6395 113.67,92.3061 112.5,93.5C 111.702,93.0431 111.369,92.3764 111.5,91.5 Z"/></g>
<g><path style="opacity:1" fill="#000000" d="M 140.5,93.5 C 138.663,93.3605 138.33,92.6939 139.5,91.5C 140.298,91.9569 140.631,92.6236 140.5,93.5 Z"/></g>
<g><path style="opacity:1" fill="#f9a884" d="M 107.5,92.5 C 111.321,93.2495 111.988,94.9162 109.5,97.5C 110.145,98.646 110.978,99.646 112,100.5C 112.667,101.5 112.667,102.5 112,103.5C 109.207,100.398 107.707,96.731 107.5,92.5 Z"/></g>
<g><path style="opacity:1" fill="#f3a481" d="M 114.5,92.5 C 117.876,92.9516 121.209,93.6182 124.5,94.5C 127.399,93.3584 130.399,92.6917 133.5,92.5C 133.232,94.099 133.566,95.4324 134.5,96.5C 134.5,97.8333 134.5,99.1667 134.5,100.5C 132.284,100.725 130.617,99.8921 129.5,98C 128.167,97.3333 126.833,97.3333 125.5,98C 123.367,100.062 122.367,102.229 122.5,104.5C 123.5,105.5 124.5,106.5 125.5,107.5C 125.818,109.818 127.152,111.152 129.5,111.5C 131.987,111.241 133.987,110.241 135.5,108.5C 136.605,107.4 137.938,106.733 139.5,106.5C 139.037,115.453 134.37,118.953 125.5,117C 123.807,115.75 122.473,114.25 121.5,112.5C 120.5,111.167 119.5,109.833 118.5,108.5C 118.5,107.833 118.5,107.167 118.5,106.5C 118.784,104.585 118.451,102.919 117.5,101.5C 117.672,100.508 117.338,99.8417 116.5,99.5C 116.204,97.597 115.537,95.9303 114.5,94.5C 114.5,93.8333 114.5,93.1667 114.5,92.5 Z"/></g>
<g><path style="opacity:1" fill="#f9a884" d="M 142.5,92.5 C 142.81,95.7131 142.477,98.7131 141.5,101.5C 140.644,98.4869 138.811,97.8203 136,99.5C 135.768,98.2625 135.268,97.2625 134.5,96.5C 134.351,95.448 134.517,94.448 135,93.5C 136.943,94.807 138.777,94.807 140.5,93.5C 141.167,93.1667 141.833,92.8333 142.5,92.5 Z"/></g>
<g><path style="opacity:1" fill="#fec90d" d="M 114.5,94.5 C 114.719,95.675 114.386,96.675 113.5,97.5C 112.202,95.9483 112.535,94.9483 114.5,94.5 Z"/></g>
<g><path style="opacity:1" fill="#c8b87d" d="M 144.5,95.5 C 145.268,96.2625 145.768,97.2625 146,98.5C 146.667,102.833 146.667,107.167 146,111.5C 144.517,115.665 141.684,117.165 137.5,116C 142.491,110.162 144.824,103.329 144.5,95.5 Z"/></g>
<g><path style="opacity:1" fill="#fec90d" d="M 116.5,99.5 C 115.632,101.625 114.632,101.791 113.5,100C 114.176,98.3167 115.176,98.1501 116.5,99.5 Z"/></g>
<g><path style="opacity:1" fill="#7f5a47" d="M 134.5,96.5 C 135.268,97.2625 135.768,98.2625 136,99.5C 138.811,97.8203 140.644,98.4869 141.5,101.5C 141.88,103.698 141.213,105.365 139.5,106.5C 137.642,104.87 135.642,104.537 133.5,105.5C 132.167,105.5 130.833,105.5 129.5,105.5C 127.139,105.326 124.806,104.993 122.5,104.5C 122.367,102.229 123.367,100.062 125.5,98C 126.833,97.3333 128.167,97.3333 129.5,98C 130.617,99.8921 132.284,100.725 134.5,100.5C 134.5,99.1667 134.5,97.8333 134.5,96.5 Z"/></g>
<g><path style="opacity:1" fill="#fec90d" d="M 117.5,101.5 C 117.443,102.609 117.11,103.609 116.5,104.5C 114.162,103.375 114.495,102.375 117.5,101.5 Z"/></g>
<g><path style="opacity:1" fill="#000000" d="M 117.5,101.5 C 118.451,102.919 118.784,104.585 118.5,106.5C 117.833,105.833 117.167,105.167 116.5,104.5C 117.11,103.609 117.443,102.609 117.5,101.5 Z"/></g>
<g><path style="opacity:1" fill="#fec90d" d="M 116.5,104.5 C 117.167,105.167 117.833,105.833 118.5,106.5C 118.5,107.167 118.5,107.833 118.5,108.5C 117.5,108.5 116.5,108.5 115.5,108.5C 115.433,107.041 115.766,105.708 116.5,104.5 Z"/></g>
<g><path style="opacity:1" fill="#000000" d="M 122.5,104.5 C 124.806,104.993 127.139,105.326 129.5,105.5C 128.167,106.167 126.833,106.833 125.5,107.5C 124.5,106.5 123.5,105.5 122.5,104.5 Z"/></g>
<g><path style="opacity:1" fill="#000000" d="M 139.5,106.5 C 137.938,106.733 136.605,107.4 135.5,108.5C 135.218,107.222 134.551,106.222 133.5,105.5C 135.642,104.537 137.642,104.87 139.5,106.5 Z"/></g>
<g><path style="opacity:1" fill="#5b0f0d" d="M 129.5,105.5 C 130.833,105.5 132.167,105.5 133.5,105.5C 134.551,106.222 135.218,107.222 135.5,108.5C 133.987,110.241 131.987,111.241 129.5,111.5C 127.152,111.152 125.818,109.818 125.5,107.5C 126.833,106.833 128.167,106.167 129.5,105.5 Z"/></g>
<g><path style="opacity:1" fill="#4e0609" d="M 125.5,136.5 C 123.656,134.721 122.99,132.388 123.5,129.5C 124.622,127.712 124.789,125.712 124,123.5C 118.242,119.746 113.075,115.246 108.5,110C 109.047,109.075 109.713,108.242 110.5,107.5C 112.975,111.142 115.642,114.642 118.5,118C 122.191,120.347 126.191,121.847 130.5,122.5C 129.122,127.393 127.455,132.06 125.5,136.5 Z"/></g>
<g><path style="opacity:1" fill="#cca117" d="M 118.5,108.5 C 119.5,109.833 120.5,111.167 121.5,112.5C 121.629,114.216 121.962,115.883 122.5,117.5C 117.444,115.753 116.111,112.753 118.5,108.5 Z"/></g>
<g><path style="opacity:1" fill="#cb1f20" d="M 81.5,112.5 C 87.4338,111.587 91.6005,113.921 94,119.5C 94.1463,123.262 93.4797,126.928 92,130.5C 91.6667,130.167 91.3333,129.833 91,129.5C 90.273,132.155 89.1064,134.488 87.5,136.5C 86.0295,135.619 85.1962,134.286 85,132.5C 84.6667,133.5 84.3333,134.5 84,135.5C 82.9266,131.916 82.2599,128.25 82,124.5C 81.1939,127.446 79.8605,130.112 78,132.5C 76.2602,131.284 75.2602,129.618 75,127.5C 74.6667,128.167 74.3333,128.833 74,129.5C 70.703,124.077 72.203,120.243 78.5,118C 76.2852,116.956 73.9519,116.29 71.5,116C 74.8026,114.517 78.1359,113.35 81.5,112.5 Z"/></g>
<g><path style="opacity:1" fill="#c3c3c3" d="M 123.5,129.5 C 121.698,137.542 120.698,137.208 120.5,128.5C 119.188,125.464 116.854,123.298 113.5,122C 111.294,119.963 109.294,117.797 107.5,115.5C 107.351,114.448 107.517,113.448 108,112.5C 112.105,117.443 116.938,121.443 122.5,124.5C 123.452,126.045 123.785,127.712 123.5,129.5 Z"/></g>
<g><path style="opacity:1" fill="#fefffe" d="M 97.5,115.5 C 99.5,115.833 101.5,116.167 103.5,116.5C 103.665,119.85 103.498,123.183 103,126.5C 99.1751,134.819 94.8418,142.819 90,150.5C 86.5046,153.162 83.3379,156.162 80.5,159.5C 77.8971,160.562 75.2305,160.728 72.5,160C 79.4066,153.764 85.5733,146.931 91,139.5C 94.4171,131.831 96.5838,123.831 97.5,115.5 Z"/></g>
<g><path style="opacity:1" fill="#da1e22" d="M 107.5,115.5 C 109.294,117.797 111.294,119.963 113.5,122C 116.854,123.298 119.188,125.464 120.5,128.5C 119.79,130.893 119.123,133.393 118.5,136C 120.355,136.422 122.189,136.922 124,137.5C 124.765,137.43 125.265,137.097 125.5,136.5C 127.38,136.771 128.713,136.104 129.5,134.5C 132.925,134.633 133.258,133.967 130.5,132.5C 131.776,130.438 132.61,128.104 133,125.5C 134.707,123.963 136.207,122.296 137.5,120.5C 139.446,122.949 140.112,125.615 139.5,128.5C 139.063,131.225 137.73,133.225 135.5,134.5C 132.912,136.625 129.912,137.958 126.5,138.5C 124.5,138.5 122.5,138.5 120.5,138.5C 119.209,138.737 118.209,138.404 117.5,137.5C 115.909,136.781 114.409,135.781 113,134.5C 112.383,133.551 112.549,132.718 113.5,132C 111.313,130.975 109.646,129.475 108.5,127.5C 108.167,126.5 107.5,125.833 106.5,125.5C 105.431,122.592 105.264,119.592 106,116.5C 106.383,115.944 106.883,115.611 107.5,115.5 Z"/></g>
<g><path style="opacity:1" fill="#3d45c2" d="M 61.5,119.5 C 60.3622,122.304 60.1955,125.304 61,128.5C 61.3333,126.5 61.6667,124.5 62,122.5C 63.1096,124.037 64.6096,124.703 66.5,124.5C 66.6747,122.379 66.3414,120.379 65.5,118.5C 66.9305,118.579 68.2638,118.246 69.5,117.5C 70.7946,118.098 72.1279,118.598 73.5,119C 68.9473,125.53 70.2806,130.697 77.5,134.5C 79.1338,134.032 80.3005,133.032 81,131.5C 81.3333,133.167 81.6667,134.833 82,136.5C 84.0715,137.525 86.2381,138.358 88.5,139C 84.6351,144.901 79.9684,150.068 74.5,154.5C 75.3897,152.218 75.5564,149.885 75,147.5C 71.971,144.572 68.471,142.572 64.5,141.5C 60.6619,137.484 57.8286,132.817 56,127.5C 55.6667,128.167 55.3333,128.833 55,129.5C 48.4733,124.126 40.9733,121.626 32.5,122C 39.0082,123.876 45.3415,126.21 51.5,129C 55.2162,133.048 58.5496,137.382 61.5,142C 58.4201,144.29 55.2534,146.457 52,148.5C 50.8571,145.664 49.0237,143.331 46.5,141.5C 44.4235,143.288 42.2568,144.954 40,146.5C 33.3787,139.593 28.5454,131.593 25.5,122.5C 26.4115,117.75 29.2449,115.416 34,115.5C 41.8537,117.049 49.687,117.716 57.5,117.5C 59.3328,117.585 60.6661,118.252 61.5,119.5 Z"/></g>
<g><path style="opacity:1" fill="#fec90d" d="M 122.5,117.5 C 123.756,117.461 124.756,117.961 125.5,119C 124.002,119.585 123.002,119.085 122.5,117.5 Z"/></g>
<g><path style="opacity:1" fill="#1a1a4f" d="M 65.5,118.5 C 66.3414,120.379 66.6747,122.379 66.5,124.5C 64.6096,124.703 63.1096,124.037 62,122.5C 61.6667,124.5 61.3333,126.5 61,128.5C 60.1955,125.304 60.3622,122.304 61.5,119.5C 62.7079,118.766 64.0413,118.433 65.5,118.5 Z"/></g>
<g><path style="opacity:1" fill="#fefffe" d="M 139.5,119.5 C 141.605,118.181 143.605,118.514 145.5,120.5C 147.431,124.292 148.764,128.292 149.5,132.5C 146.872,140.345 144.872,148.345 143.5,156.5C 142.127,156.657 140.793,156.49 139.5,156C 142.528,144.661 143.028,133.161 141,121.5C 140.722,120.584 140.222,119.918 139.5,119.5 Z"/></g>
<g><path style="opacity:1" fill="#adadad" d="M 137.5,120.5 C 136.207,122.296 134.707,123.963 133,125.5C 132.61,128.104 131.776,130.438 130.5,132.5C 129.662,132.842 129.328,133.508 129.5,134.5C 128.995,130.477 129.828,126.477 132,122.5C 133.637,120.394 135.47,119.728 137.5,120.5 Z"/></g>
<g><path style="opacity:1" fill="#e31d23" d="M 152.5,121.5 C 156.462,121.067 159.628,122.4 162,125.5C 162.333,125.167 162.667,124.833 163,124.5C 163.211,130.122 164.378,135.455 166.5,140.5C 166.192,141.308 165.692,141.975 165,142.5C 163.579,139.991 161.912,137.657 160,135.5C 160.446,137.883 161.612,140.05 163.5,142C 161.741,142.798 160.074,142.631 158.5,141.5C 157.391,139.615 156.557,137.615 156,135.5C 155.313,137.92 155.813,140.087 157.5,142C 156.207,142.49 154.873,142.657 153.5,142.5C 153.167,133.167 152.833,133.167 152.5,142.5C 151.127,142.657 149.793,142.49 148.5,142C 150.028,139.083 151.361,136.083 152.5,133C 151.199,129.596 150.199,126.096 149.5,122.5C 150.791,122.737 151.791,122.404 152.5,121.5 Z"/></g>
<g><path style="opacity:1" fill="#840114" d="M 106.5,125.5 C 107.5,125.833 108.167,126.5 108.5,127.5C 108.687,129.564 109.187,131.564 110,133.5C 115.711,141.755 121.544,149.921 127.5,158C 126.365,158.749 125.365,158.583 124.5,157.5C 115.763,147.991 109.763,137.325 106.5,125.5 Z"/></g>
<g><path style="opacity:1" fill="#000000" d="M 120.5,128.5 C 120.698,137.208 121.698,137.542 123.5,129.5C 122.99,132.388 123.656,134.721 125.5,136.5C 125.265,137.097 124.765,137.43 124,137.5C 122.189,136.922 120.355,136.422 118.5,136C 119.123,133.393 119.79,130.893 120.5,128.5 Z"/></g>
<g><path style="opacity:1" fill="#fefffe" d="M 103.5,129.5 C 107.559,135.941 111.392,142.607 115,149.5C 123.419,157.911 121.753,161.245 110,159.5C 106.356,152.379 102.856,145.213 99.5,138C 101.246,135.341 102.58,132.508 103.5,129.5 Z"/></g>
<g><path style="opacity:1" fill="#000000" d="M 130.5,132.5 C 133.258,133.967 132.925,134.633 129.5,134.5C 129.328,133.508 129.662,132.842 130.5,132.5 Z"/></g>
<g><path style="opacity:1" fill="#fefffe" d="M 139.5,133.5 C 140.33,141.498 139.497,149.498 137,157.5C 135.534,159.325 133.701,159.825 131.5,159C 130.167,157.667 128.833,156.333 127.5,155C 133.004,148.665 137.004,141.499 139.5,133.5 Z"/></g>
<g><path style="opacity:1" fill="#fefffe" d="M 135.5,134.5 C 136.239,134.369 136.906,134.536 137.5,135C 134.453,141.375 130.619,147.208 126,152.5C 123.863,150.679 123.03,148.346 123.5,145.5C 124.105,143.026 125.105,140.693 126.5,138.5C 129.912,137.958 132.912,136.625 135.5,134.5 Z"/></g>
<g><path style="opacity:1" fill="#fefffe" d="M 117.5,137.5 C 118.209,138.404 119.209,138.737 120.5,138.5C 121.209,139.404 122.209,139.737 123.5,139.5C 123.5,141.5 123.5,143.5 123.5,145.5C 122.778,145.918 122.278,146.584 122,147.5C 120.224,144.059 118.057,140.892 115.5,138C 116.094,137.536 116.761,137.369 117.5,137.5 Z"/></g>
<g><path style="opacity:1" fill="#000000" d="M 120.5,138.5 C 122.5,138.5 124.5,138.5 126.5,138.5C 125.105,140.693 124.105,143.026 123.5,145.5C 123.5,143.5 123.5,141.5 123.5,139.5C 122.209,139.737 121.209,139.404 120.5,138.5 Z"/></g>
<g><path style="opacity:1" fill="#1d226c" d="M 64.5,141.5 C 68.471,142.572 71.971,144.572 75,147.5C 75.5564,149.885 75.3897,152.218 74.5,154.5C 71.4099,158.478 71.0766,158.311 73.5,154C 70.698,149.697 67.698,145.53 64.5,141.5 Z"/></g>
<g><path style="opacity:1" fill="#d3d3d3" d="M 100.5,150.5 C 99.8333,150.833 99.1667,151.167 98.5,151.5C 97.2616,149.786 96.595,147.786 96.5,145.5C 96.5332,142.903 97.5332,141.903 99.5,142.5C 100.214,144.811 101.214,146.978 102.5,149C 101.584,149.278 100.918,149.778 100.5,150.5 Z"/></g>
<g><path style="opacity:1" fill="#343694" d="M 54.5,152.5 C 55.5418,156.012 57.2085,159.178 59.5,162C 57.6618,164.303 55.3285,164.969 52.5,164C 49.6667,159.833 46.8333,155.667 44,151.5C 41.7675,148.185 42.4342,145.519 46,143.5C 47.1545,144.743 48.4878,145.743 50,146.5C 49.8246,149.818 51.3246,151.818 54.5,152.5 Z"/></g>
<g><path style="opacity:1" fill="#bbbbbb" d="M 63.5,145.5 C 61.7632,147.55 59.7632,149.383 57.5,151C 59.3887,153.382 61.0553,155.882 62.5,158.5C 62.6309,159.376 62.2975,160.043 61.5,160.5C 59.1152,157.788 56.7819,155.122 54.5,152.5C 54.5858,151.504 54.2524,150.671 53.5,150C 56.927,148.204 60.0937,146.037 63,143.5C 63.4643,144.094 63.631,144.761 63.5,145.5 Z"/></g>
<g><path style="opacity:1" fill="#3b42ba" d="M 148.5,144.5 C 153.5,144.5 158.5,144.5 163.5,144.5C 162.923,149.081 163.923,153.248 166.5,157C 162.428,157.956 158.595,157.456 155,155.5C 151.927,156.617 148.76,156.784 145.5,156C 146.328,155.085 147.328,154.419 148.5,154C 147.422,153.326 146.755,152.326 146.5,151C 146.875,148.711 147.541,146.545 148.5,144.5 Z"/></g>
<g><path style="opacity:1" fill="#ec1c23" d="M 63.5,145.5 C 66.5269,147.529 68.8602,150.196 70.5,153.5C 68.2092,155.288 66.0425,157.288 64,159.5C 63.6174,158.944 63.1174,158.611 62.5,158.5C 61.0553,155.882 59.3887,153.382 57.5,151C 59.7632,149.383 61.7632,147.55 63.5,145.5 Z"/></g>
<g><path style="opacity:1" fill="#ec1c23" d="M 96.5,145.5 C 96.595,147.786 97.2616,149.786 98.5,151.5C 98.2155,153.415 98.5489,155.081 99.5,156.5C 99.2322,158.099 99.5655,159.432 100.5,160.5C 100.44,161.043 100.107,161.376 99.5,161.5C 98.8281,160.051 98.1614,158.718 97.5,157.5C 97.7062,154.505 97.0395,151.838 95.5,149.5C 93.9219,147.625 94.2552,146.292 96.5,145.5 Z"/></g>
<g><path style="opacity:1" fill="#000000" d="M 48.5,147.5 C 47.5,147.5 46.5,147.5 45.5,147.5C 45.5,148.5 45.5,149.5 45.5,150.5C 44.5655,149.432 44.2322,148.099 44.5,146.5C 46.099,146.232 47.4324,146.566 48.5,147.5 Z"/></g>
<g><path style="opacity:1" fill="#fec90d" d="M 48.5,147.5 C 48.5,148.5 48.5,149.5 48.5,150.5C 47.5,150.5 46.5,150.5 45.5,150.5C 45.5,149.5 45.5,148.5 45.5,147.5C 46.5,147.5 47.5,147.5 48.5,147.5 Z"/></g>
<g><path style="opacity:1" fill="#3b42b9" d="M 95.5,149.5 C 97.0395,151.838 97.7062,154.505 97.5,157.5C 97.5,158.833 97.5,160.167 97.5,161.5C 95.0799,161.292 92.7466,161.626 90.5,162.5C 89.9278,160.083 88.9278,157.916 87.5,156C 90.0402,153.795 92.2068,151.295 94,148.5C 94.3826,149.056 94.8826,149.389 95.5,149.5 Z"/></g>
<g><path style="opacity:1" fill="#7e7f7e" d="M 326.5,149.5 C 327.873,149.343 329.207,149.51 330.5,150C 327.417,151.139 324.417,152.472 321.5,154C 303.926,156.565 286.259,158.232 268.5,159C 264.749,159.066 261.249,159.899 258,161.5C 255.113,161.168 252.946,159.835 251.5,157.5C 251.68,156.446 252.013,155.446 252.5,154.5C 276.499,153.333 300.499,152.167 324.5,151C 325.416,150.722 326.082,150.222 326.5,149.5 Z"/></g>
<g><path style="opacity:1" fill="#000000" d="M 100.5,150.5 C 100.5,151.5 100.5,152.5 100.5,153.5C 99.596,154.209 99.2627,155.209 99.5,156.5C 98.5489,155.081 98.2155,153.415 98.5,151.5C 99.1667,151.167 99.8333,150.833 100.5,150.5 Z"/></g>
<g><path style="opacity:1" fill="#fec90d" d="M 100.5,150.5 C 101.552,150.351 102.552,150.517 103.5,151C 102.748,151.671 102.414,152.504 102.5,153.5C 101.833,153.5 101.167,153.5 100.5,153.5C 100.5,152.5 100.5,151.5 100.5,150.5 Z"/></g>
<g><path style="opacity:1" fill="#cdc7be" d="M 100.5,160.5 C 99.5655,159.432 99.2322,158.099 99.5,156.5C 99.2627,155.209 99.596,154.209 100.5,153.5C 101.167,153.5 101.833,153.5 102.5,153.5C 103.117,153.389 103.617,153.056 104,152.5C 105.167,154.833 106.333,157.167 107.5,159.5C 105.406,160.392 103.073,160.725 100.5,160.5 Z"/></g>
<g><path style="opacity:1" fill="#fec90d" d="M 49.5,153.5 C 50.5,153.5 51.5,153.5 52.5,153.5C 52.5,154.5 52.5,155.5 52.5,156.5C 51.5,156.5 50.5,156.5 49.5,156.5C 49.5,155.5 49.5,154.5 49.5,153.5 Z"/></g>
<g><path style="opacity:1" fill="#fec90d" d="M 238.5,153.5 C 240.142,155.081 242.142,155.747 244.5,155.5C 244.196,159.215 244.863,162.715 246.5,166C 245.344,167.615 244.011,167.615 242.5,166C 239.854,165.503 237.187,165.336 234.5,165.5C 234.92,161.137 236.253,157.137 238.5,153.5 Z"/></g>
<g><path style="opacity:1" fill="#7e7f7e" d="M 227.5,154.5 C 235.886,154.772 236.22,155.606 228.5,157C 215.83,157.796 203.163,158.63 190.5,159.5C 188.833,159.167 187.167,158.833 185.5,158.5C 199.628,157.017 213.628,155.684 227.5,154.5 Z"/></g>
<g><path style="opacity:1" fill="#7e7f7e" d="M 247.5,154.5 C 249.141,156.203 250.141,158.37 250.5,161C 253.466,162.266 256.466,163.433 259.5,164.5C 255.699,164.266 251.866,164.266 248,164.5C 246.18,161.247 246.013,157.913 247.5,154.5 Z"/></g>
<g><path style="opacity:1" fill="#f9a884" d="M 68.5,157.5 C 69.6006,158.848 70.6006,160.348 71.5,162C 73.8098,162.497 76.1432,162.663 78.5,162.5C 78.6602,164.199 78.4935,165.866 78,167.5C 76,168.167 74.6667,169.5 74,171.5C 73.4125,175.353 73.7458,179.02 75,182.5C 73.3333,180.833 71.6667,179.167 70,177.5C 69.6667,175.167 69.3333,172.833 69,170.5C 67.5568,175.212 68.7235,179.045 72.5,182C 67.5717,180.387 64.7384,176.887 64,171.5C 63.3333,173.5 63.3333,175.5 64,177.5C 65.5,179 67,180.5 68.5,182C 62.1312,181.614 59.2978,178.114 60,171.5C 58.9963,174.993 59.4963,178.159 61.5,181C 59.193,181.271 58.0264,180.105 58,177.5C 57.3186,173.798 57.4852,170.131 58.5,166.5C 61.8276,163.506 65.1609,160.506 68.5,157.5 Z"/></g>
<g><path style="opacity:1" fill="#7e7f7e" d="M 86.5,158.5 C 87.2829,160.343 87.9495,162.343 88.5,164.5C 89.2739,165.711 90.1072,165.711 91,164.5C 94.4675,166.717 94.3008,168.551 90.5,170C 87.9969,170.874 85.9969,170.207 84.5,168C 86.3398,165.174 87.0065,162.007 86.5,158.5 Z"/></g>
<g><path style="opacity:1" fill="#f8a684" d="M 154.5,176.5 C 151.31,179.752 147.31,181.419 142.5,181.5C 138.862,181.262 136.029,179.596 134,176.5C 133.501,171.511 133.334,166.511 133.5,161.5C 134.5,161.5 135.5,161.5 136.5,161.5C 136.668,182.823 137.168,182.823 138,161.5C 139.113,159.671 140.613,158.837 142.5,159C 139.142,164.501 138.642,170.334 141,176.5C 140.415,171.426 140.748,166.426 142,161.5C 143.113,159.671 144.613,158.837 146.5,159C 145.042,161.077 144.376,163.41 144.5,166C 144.837,169.523 145.337,173.023 146,176.5C 146,171.833 146,167.167 146,162.5C 146.919,159.356 148.752,158.356 151.5,159.5C 150.407,163.108 150.24,166.775 151,170.5C 152.442,172.391 153.609,174.391 154.5,176.5 Z"/></g>
<g><path style="opacity:1" fill="#7e7f7e" d="M 166.5,158.5 C 170.884,158.174 175.217,158.508 179.5,159.5C 170.85,161.071 162.184,161.405 153.5,160.5C 157.982,159.833 162.316,159.166 166.5,158.5 Z"/></g>
<g><path style="opacity:1" fill="#fec90d" d="M 181.5,158.5 C 182.496,158.414 183.329,158.748 184,159.5C 184.226,162.095 184.726,164.595 185.5,167C 184.207,167.49 182.873,167.657 181.5,167.5C 181.5,164.5 181.5,161.5 181.5,158.5 Z"/></g>
<g><path style="opacity:1" fill="#b87a56" d="M 227.5,158.5 C 229.5,158.5 231.5,158.5 233.5,158.5C 233.167,160.5 232.833,162.5 232.5,164.5C 217.801,165.686 203.134,167.02 188.5,168.5C 187.056,166.392 186.39,164.059 186.5,161.5C 200.343,160.866 214.01,159.866 227.5,158.5 Z"/></g>
<g><path style="opacity:1" fill="#fec90d" d="M 53.5,159.5 C 54.5,159.5 55.5,159.5 56.5,159.5C 56.5,160.5 56.5,161.5 56.5,162.5C 55.5,162.5 54.5,162.5 53.5,162.5C 53.5,161.5 53.5,160.5 53.5,159.5 Z"/></g>
<g><path style="opacity:1" fill="#3f47cc" d="M 83.5,159.5 C 84.6225,161.288 84.7891,163.288 84,165.5C 82.7586,163.452 82.5919,161.452 83.5,159.5 Z"/></g>
<g><path style="opacity:1" fill="#fec90d" d="M 126.5,160.5 C 127.693,160.97 128.36,161.97 128.5,163.5C 129.095,166.14 129.428,168.807 129.5,171.5C 128.5,171.5 127.5,171.5 126.5,171.5C 125.479,167.771 125.479,164.104 126.5,160.5 Z"/></g>
<g><path style="opacity:1" fill="#7e7f7e" d="M 117.5,161.5 C 119.604,161.201 121.604,161.534 123.5,162.5C 113.21,164.039 102.876,164.539 92.5,164C 100.99,163.204 109.323,162.371 117.5,161.5 Z"/></g>
<g><path style="opacity:1" fill="#b87a56" d="M 130.5,161.5 C 132.337,161.639 132.67,162.306 131.5,163.5C 130.702,163.043 130.369,162.376 130.5,161.5 Z"/></g>
<g><path style="opacity:1" fill="#b87a56" d="M 166.5,162.5 C 170.833,162.5 175.167,162.5 179.5,162.5C 179.5,164.167 179.5,165.833 179.5,167.5C 171.3,168.244 163.133,169.244 155,170.5C 154.228,170.355 153.561,170.022 153,169.5C 152.505,167.527 152.338,165.527 152.5,163.5C 157.363,163.819 162.03,163.486 166.5,162.5 Z"/></g>
<g><path style="opacity:1" fill="#b87a56" d="M 109.5,165.5 C 114.167,165.5 118.833,165.5 123.5,165.5C 123.519,167.06 123.852,168.56 124.5,170C 124.095,170.945 123.428,171.612 122.5,172C 112.81,172.352 103.144,173.019 93.5,174C 87.6545,174.476 81.9879,175.642 76.5,177.5C 74.9883,173.907 75.8217,170.907 79,168.5C 79.8793,171.346 81.5459,172.013 84,170.5C 86.9684,172.991 90.1351,173.157 93.5,171C 95.0368,169.89 95.7035,168.39 95.5,166.5C 100.363,166.819 105.03,166.486 109.5,165.5 Z"/></g>
<g><path style="opacity:1" fill="#fefffe" d="M 175.5,169.5 C 178.518,169.335 181.518,169.502 184.5,170C 185.815,171.395 185.481,172.395 183.5,173C 175.819,173.308 168.152,173.808 160.5,174.5C 158.611,174.564 156.944,174.064 155.5,173C 162.243,171.646 168.91,170.48 175.5,169.5 Z"/></g>
<g><path style="opacity:1" fill="#b87a56" d="M 47.5,170.5 C 50.1667,170.5 52.8333,170.5 55.5,170.5C 55.1486,174.529 55.8152,178.362 57.5,182C 57.1667,182.5 56.8333,183 56.5,183.5C 49.9951,186.276 43.4951,188.943 37,191.5C 36.0546,191.095 35.3879,190.428 35,189.5C 34.2425,183.851 33.7425,178.184 33.5,172.5C 38.353,172.187 43.0196,171.521 47.5,170.5 Z"/></g>
<g><path style="opacity:1" fill="#fefffe" d="M 123.5,173.5 C 125.857,173.337 128.19,173.503 130.5,174C 126.433,176.011 122.1,177.011 117.5,177C 110.321,177.344 103.155,177.844 96,178.5C 93.9493,178.577 92.116,178.077 90.5,177C 101.589,175.327 112.589,174.161 123.5,173.5 Z"/></g>
<g><path style="opacity:1" fill="#3f47cc" d="M 165.5,175.5 C 167.833,175.5 170.167,175.5 172.5,175.5C 172.723,183.776 168.723,187.943 160.5,188C 164.023,184.602 165.689,180.436 165.5,175.5 Z"/></g>
<g><path style="opacity:1" fill="#fefffe" d="M 129.5,176.5 C 130.552,176.351 131.552,176.517 132.5,177C 134.979,180.313 137.645,183.48 140.5,186.5C 138.417,187.959 136.25,189.292 134,190.5C 130.273,187.276 127.106,183.609 124.5,179.5C 126.36,178.675 128.026,177.675 129.5,176.5 Z"/></g>
<g><path style="opacity:1" fill="#ae581c" d="M 154.5,176.5 C 155.552,176.351 156.552,176.517 157.5,177C 154.264,184.889 149.264,186.389 142.5,181.5C 147.31,181.419 151.31,179.752 154.5,176.5 Z"/></g>
<g><path style="opacity:1" fill="#a7a7a7" d="M 160.5,179.5 C 159.331,182.511 157.664,185.178 155.5,187.5C 154.427,186.749 154.26,185.749 155,184.5C 157.062,182.099 158.729,179.433 160,176.5C 160.483,177.448 160.649,178.448 160.5,179.5 Z"/></g>
<g><path style="opacity:1" fill="#ec1c23" d="M 155.5,187.5 C 157.664,185.178 159.331,182.511 160.5,179.5C 161.158,178.602 161.824,177.602 162.5,176.5C 163.25,181.188 161.583,185.021 157.5,188C 156.563,188.692 155.897,188.525 155.5,187.5 Z"/></g>
<g><path style="opacity:1" fill="#1a1c55" d="M 87.5,178.5 C 86.1007,179.89 84.4341,180.89 82.5,181.5C 80.712,181.785 79.0453,181.452 77.5,180.5C 79.0595,178.305 81.2261,177.305 84,177.5C 85.3847,177.514 86.5514,177.848 87.5,178.5 Z"/></g>
<g><path style="opacity:1" fill="#fec90d" d="M 87.5,178.5 C 88.3764,178.369 89.0431,178.702 89.5,179.5C 88.018,181.483 86.3513,183.316 84.5,185C 82.1654,185.507 80.1654,184.84 78.5,183C 80.0581,182.79 81.3915,182.29 82.5,181.5C 84.4341,180.89 86.1007,179.89 87.5,178.5 Z"/></g>
<g><path style="opacity:1" fill="#d6d6d6" d="M 124.5,185.5 C 124.5,186.833 125.167,187.5 126.5,187.5C 129.767,188.031 130.1,189.031 127.5,190.5C 126.319,192.067 124.653,192.901 122.5,193C 120.288,193.789 118.288,193.622 116.5,192.5C 115.167,191.833 113.833,191.167 112.5,190.5C 112.802,187.627 113.469,184.961 114.5,182.5C 115.404,181.791 115.737,180.791 115.5,179.5C 121.105,177.424 124.105,179.424 124.5,185.5 Z"/></g>
<g><path style="opacity:1" fill="#fefffe" d="M 101.5,179.5 C 102.873,179.343 104.207,179.51 105.5,180C 99.7596,182.886 93.7596,184.553 87.5,185C 88.8333,183.667 90.1667,182.333 91.5,181C 95.0252,180.821 98.3586,180.321 101.5,179.5 Z"/></g>
<g><path style="opacity:1" fill="#fefffe" d="M 114.5,182.5 C 113.469,184.961 112.802,187.627 112.5,190.5C 111.005,190.989 109.671,191.655 108.5,192.5C 106.114,192.741 104.114,192.075 102.5,190.5C 101.174,188.805 101.507,187.472 103.5,186.5C 105.532,181.964 109.199,179.631 114.5,179.5C 114.5,180.5 114.5,181.5 114.5,182.5 Z"/></g>
<g><path style="opacity:1" fill="#fefffe" d="M 64.5,184.5 C 68.7691,183.109 73.1024,183.276 77.5,185C 73.141,185.534 68.8076,185.368 64.5,184.5 Z"/></g>
<g><path style="opacity:1" fill="#fec90d" d="M 103.5,186.5 C 102.5,186.5 101.5,186.5 100.5,186.5C 101.754,182.69 102.754,182.69 103.5,186.5 Z"/></g>
<g><path style="opacity:1" fill="#fefffe" d="M 141.5,185.5 C 143.543,184.771 145.543,185.271 147.5,187C 145.428,187.036 143.428,186.536 141.5,185.5 Z"/></g>
<g><path style="opacity:1" fill="#1d1e1d" d="M 59.5,185.5 C 60.9778,185.238 62.3112,185.571 63.5,186.5C 61.1486,192.958 59.8152,199.625 59.5,206.5C 58.448,206.649 57.448,206.483 56.5,206C 57.3802,204.644 57.7135,203.144 57.5,201.5C 56.1779,201.33 55.0113,201.663 54,202.5C 53.6667,201.5 53.3333,200.5 53,199.5C 52.5634,195.377 53.0634,191.377 54.5,187.5C 56.5529,187.598 58.2196,186.931 59.5,185.5 Z"/></g>
<g><path style="opacity:1" fill="#3c43be" d="M 97.5,188.5 C 97.7845,190.415 97.4511,192.081 96.5,193.5C 95.8333,194.167 95.1667,194.833 94.5,195.5C 90.6775,194.664 87.0108,193.664 83.5,192.5C 68.7087,191.793 61.5421,199.126 62,214.5C 61,215.833 60,217.167 59,218.5C 60.8146,211.365 62.148,204.032 63,196.5C 63.561,192.905 64.7276,189.572 66.5,186.5C 73.2574,187.145 79.9241,187.478 86.5,187.5C 90.1759,187.572 93.6759,186.906 97,185.5C 97.4828,186.448 97.6495,187.448 97.5,188.5 Z"/></g>
<g><path style="opacity:1" fill="#c21f1f" d="M 100.5,186.5 C 100.567,187.959 100.234,189.292 99.5,190.5C 99.5,191.5 99.5,192.5 99.5,193.5C 100.5,193.5 101.5,193.5 102.5,193.5C 104.735,193.795 106.735,193.461 108.5,192.5C 111.167,192.5 113.833,192.5 116.5,192.5C 118.288,193.622 120.288,193.789 122.5,193C 124.653,192.901 126.319,192.067 127.5,190.5C 128.492,190.328 129.158,190.662 129.5,191.5C 128.05,193.61 126.05,194.943 123.5,195.5C 120.833,195.5 118.167,195.5 115.5,195.5C 113.5,195.5 111.5,195.5 109.5,195.5C 104.706,196.097 100.373,195.43 96.5,193.5C 97.4511,192.081 97.7845,190.415 97.5,188.5C 98.2679,187.737 98.7679,186.737 99,185.5C 99.3826,186.056 99.8826,186.389 100.5,186.5 Z"/></g>
<g><path style="opacity:1" fill="#fec90d" d="M 124.5,185.5 C 125.833,185.5 126.5,186.167 126.5,187.5C 126.5,186.167 125.833,185.5 124.5,185.5 Z"/></g>
<g><path style="opacity:1" fill="#353898" d="M 148.5,185.5 C 150.288,185.215 151.955,185.548 153.5,186.5C 152.667,186.833 151.833,187.167 151,187.5C 149.624,187.316 148.791,186.649 148.5,185.5 Z"/></g>
<g><path style="opacity:1" fill="#000000" d="M 100.5,186.5 C 101.5,186.5 102.5,186.5 103.5,186.5C 101.507,187.472 101.174,188.805 102.5,190.5C 101.5,190.5 100.5,190.5 99.5,190.5C 100.234,189.292 100.567,187.959 100.5,186.5 Z"/></g>
<g><path style="opacity:1" fill="#fec90d" d="M 138.5,206.5 C 139.167,206.5 139.5,206.167 139.5,205.5C 140.315,204.571 141.148,203.571 142,202.5C 142.393,197.799 142.393,193.132 142,188.5C 143.343,187.786 144.676,188.12 146,189.5C 146.851,195.253 146.517,200.92 145,206.5C 142.701,209.106 140.534,209.106 138.5,206.5 Z"/></g>
<g><path style="opacity:1" fill="#fec90d" d="M 99.5,190.5 C 100.5,190.5 101.5,190.5 102.5,190.5C 102.5,191.5 102.5,192.5 102.5,193.5C 101.5,193.5 100.5,193.5 99.5,193.5C 99.5,192.5 99.5,191.5 99.5,190.5 Z"/></g>
<g><path style="opacity:1" fill="#000000" d="M 102.5,190.5 C 104.114,192.075 106.114,192.741 108.5,192.5C 106.735,193.461 104.735,193.795 102.5,193.5C 102.5,192.5 102.5,191.5 102.5,190.5 Z"/></g>
<g><path style="opacity:1" fill="#000000" d="M 112.5,190.5 C 113.833,191.167 115.167,191.833 116.5,192.5C 113.833,192.5 111.167,192.5 108.5,192.5C 109.671,191.655 111.005,190.989 112.5,190.5 Z"/></g>
<g><path style="opacity:1" fill="#fdfdfd" d="M 133.5,290.5 C 129.395,290.766 125.395,290.266 121.5,289C 119.326,285.996 116.992,283.163 114.5,280.5C 113.638,281.766 112.971,283.099 112.5,284.5C 110.165,273.539 107.498,262.539 104.5,251.5C 105.75,248.979 105.417,246.646 103.5,244.5C 107.934,246.797 112.101,249.464 116,252.5C 116.257,249.983 115.59,247.65 114,245.5C 109.813,240.894 105.98,236.061 102.5,231C 103.833,230.333 105.167,230.333 106.5,231C 108.926,233.1 111.593,234.934 114.5,236.5C 115.108,234.316 114.441,232.316 112.5,230.5C 116.796,229.672 121.129,229.172 125.5,229C 117.991,226.967 110.325,225.967 102.5,226C 102.167,225.667 101.833,225.333 101.5,225C 108.426,220.952 108.093,219.786 100.5,221.5C 99.6993,219.958 99.366,218.292 99.5,216.5C 104.738,214.881 109.738,212.714 114.5,210C 110.514,209.501 106.514,209.334 102.5,209.5C 104.461,207.037 106.628,204.703 109,202.5C 109.497,200.19 109.663,197.857 109.5,195.5C 111.5,195.5 113.5,195.5 115.5,195.5C 116.209,196.404 117.209,196.737 118.5,196.5C 117.866,199.937 116.533,203.104 114.5,206C 114.833,206.167 115.167,206.333 115.5,206.5C 117.951,203.6 119.285,200.266 119.5,196.5C 121.099,196.768 122.432,196.434 123.5,195.5C 126.05,194.943 128.05,193.61 129.5,191.5C 130.117,191.389 130.617,191.056 131,190.5C 131.667,193.833 131.667,197.167 131,200.5C 127.748,205.334 124.748,210.334 122,215.5C 118.884,217.967 115.718,220.301 112.5,222.5C 112.833,222.833 113.167,223.167 113.5,223.5C 118.543,220.985 123.21,217.985 127.5,214.5C 126.975,213.808 126.308,213.308 125.5,213C 126.667,211.167 127.833,209.333 129,207.5C 129.333,208.167 129.667,208.833 130,209.5C 132.451,234.239 134.618,259.072 136.5,284C 136.162,286.609 135.162,288.776 133.5,290.5 Z"/></g>
<g><path style="opacity:1" fill="#e0e1e0" d="M 83.5,192.5 C 87.0108,193.664 90.6775,194.664 94.5,195.5C 95.2625,196.268 96.2625,196.768 97.5,197C 96.629,200.771 94.2957,202.771 90.5,203C 95.5012,203.901 98.1679,201.734 98.5,196.5C 101.833,196.5 105.167,196.5 108.5,196.5C 108.66,198.199 108.494,199.866 108,201.5C 105.5,204 103,206.5 100.5,209C 101.094,209.464 101.761,209.631 102.5,209.5C 106.514,209.334 110.514,209.501 114.5,210C 109.738,212.714 104.738,214.881 99.5,216.5C 98.6605,214.208 97.6605,211.875 96.5,209.5C 89.8456,203.511 82.179,200.511 73.5,200.5C 74.7701,201.288 75.7701,202.288 76.5,203.5C 71.9373,204.448 67.9373,206.448 64.5,209.5C 64.8175,205.212 66.4842,201.545 69.5,198.5C 74.0168,195.902 78.6835,193.902 83.5,192.5 Z"/></g>
<g><path style="opacity:1" fill="#000000" d="M 96.5,193.5 C 100.373,195.43 104.706,196.097 109.5,195.5C 109.663,197.857 109.497,200.19 109,202.5C 106.628,204.703 104.461,207.037 102.5,209.5C 101.761,209.631 101.094,209.464 100.5,209C 103,206.5 105.5,204 108,201.5C 108.494,199.866 108.66,198.199 108.5,196.5C 105.167,196.5 101.833,196.5 98.5,196.5C 98.1679,201.734 95.5012,203.901 90.5,203C 94.2957,202.771 96.629,200.771 97.5,197C 96.2625,196.768 95.2625,196.268 94.5,195.5C 95.1667,194.833 95.8333,194.167 96.5,193.5 Z"/></g>
<g><path style="opacity:1" fill="#000000" d="M 115.5,195.5 C 118.167,195.5 120.833,195.5 123.5,195.5C 122.432,196.434 121.099,196.768 119.5,196.5C 119.285,200.266 117.951,203.6 115.5,206.5C 115.167,206.333 114.833,206.167 114.5,206C 116.533,203.104 117.866,199.937 118.5,196.5C 117.209,196.737 116.209,196.404 115.5,195.5 Z"/></g>
<g><path style="opacity:1" fill="#a98402" d="M 139.5,205.5 C 139.5,206.167 139.167,206.5 138.5,206.5C 136.112,205.781 134.612,204.115 134,201.5C 133.192,199.421 133.359,197.421 134.5,195.5C 135.152,199.47 136.818,202.804 139.5,205.5 Z"/></g>
<g><path style="opacity:1" fill="#a5a5a5" d="M 96.5,215.5 C 95.8826,215.611 95.3826,215.944 95,216.5C 89.2655,211.918 83.4322,207.585 77.5,203.5C 84.1296,203.72 89.9629,206.386 95,211.5C 95.7914,212.745 96.2914,214.078 96.5,215.5 Z"/></g>
<g><path style="opacity:1" fill="#3f47cc" d="M 131.5,202.5 C 133.136,203.749 134.303,205.416 135,207.5C 135.667,215.167 135.667,222.833 135,230.5C 133.212,221.245 132.046,211.912 131.5,202.5 Z"/></g>
<g><path style="opacity:1" fill="#fcfcfc" d="M 76.5,203.5 C 76.8333,203.5 77.1667,203.5 77.5,203.5C 83.4322,207.585 89.2655,211.918 95,216.5C 95.3826,215.944 95.8826,215.611 96.5,215.5C 99.1314,224.237 99.1314,232.904 96.5,241.5C 98.0418,245.725 97.5418,249.725 95,253.5C 94.6667,257.167 94.3333,260.833 94,264.5C 90.287,269.424 86.4537,274.258 82.5,279C 78.5475,279.912 74.8809,279.245 71.5,277C 68.8333,273.667 66.1667,270.333 63.5,267C 64.3333,266.167 65.1667,265.333 66,264.5C 66.7745,260.853 67.4412,257.186 68,253.5C 68.6742,248.943 68.3409,244.609 67,240.5C 68.6495,243.72 71.1495,245.553 74.5,246C 70.7637,243.931 68.097,240.931 66.5,237C 67.6051,230.872 67.7718,224.706 67,218.5C 64.8951,215.893 64.0617,212.893 64.5,209.5C 67.9373,206.448 71.9373,204.448 76.5,203.5 Z"/></g>
<g><path style="opacity:1" fill="#e0e1e0" d="M 103.5,244.5 C 100.748,237.147 99.7479,229.481 100.5,221.5C 108.093,219.786 108.426,220.952 101.5,225C 101.833,225.333 102.167,225.667 102.5,226C 110.325,225.967 117.991,226.967 125.5,229C 121.129,229.172 116.796,229.672 112.5,230.5C 114.441,232.316 115.108,234.316 114.5,236.5C 111.593,234.934 108.926,233.1 106.5,231C 105.167,230.333 103.833,230.333 102.5,231C 105.98,236.061 109.813,240.894 114,245.5C 115.59,247.65 116.257,249.983 116,252.5C 112.101,249.464 107.934,246.797 103.5,244.5 Z"/></g>
<g><path style="opacity:1" fill="#1d1e1d" d="M 62.5,269.5 C 65.3021,272.476 67.9688,275.642 70.5,279C 73.6438,280.692 76.9771,281.858 80.5,282.5C 76.8279,291.763 75.8279,301.263 77.5,311C 70.447,314.71 64.1137,313.877 58.5,308.5C 59.1667,306.167 59.8333,303.833 60.5,301.5C 60.278,299.945 59.6113,298.611 58.5,297.5C 60.3869,295.06 61.7203,292.393 62.5,289.5C 61.9278,284.731 60.9278,280.064 59.5,275.5C 60.5133,273.473 61.5133,271.473 62.5,269.5 Z"/></g>
<g><path style="opacity:1" fill="#e0e0e0" d="M 133.5,290.5 C 133.645,293.857 133.145,297.19 132,300.5C 129.306,301.883 126.473,302.383 123.5,302C 118.934,299.797 114.768,296.964 111,293.5C 111.158,290.498 111.658,287.498 112.5,284.5C 112.971,283.099 113.638,281.766 114.5,280.5C 116.992,283.163 119.326,285.996 121.5,289C 125.395,290.266 129.395,290.766 133.5,290.5 Z"/></g>
<g><path style="opacity:1" fill="#1d1e1d" d="M 109.5,295.5 C 112.956,297.783 116.29,300.283 119.5,303C 123.006,304.313 126.34,304.813 129.5,304.5C 125.214,312.177 122.714,320.177 122,328.5C 121.278,336.162 120.612,343.829 120,351.5C 115.953,353.959 111.62,355.626 107,356.5C 107.082,344.346 107.082,332.012 107,319.5C 103.831,311.151 104.664,303.151 109.5,295.5 Z"/></g>
</svg>
