<?xml version="1.0" encoding="UTF-8"?>
<!DOCTYPE svg PUBLIC "-//W3C//DTD SVG 1.1//EN" "http://www.w3.org/Graphics/SVG/1.1/DTD/svg11.dtd">
<svg xmlns="http://www.w3.org/2000/svg" version="1.1" width="600px" height="600px" style="shape-rendering:geometricPrecision; text-rendering:geometricPrecision; image-rendering:optimizeQuality; fill-rule:evenodd; clip-rule:evenodd" xmlns:xlink="http://www.w3.org/1999/xlink">
<g><path style="opacity:1" fill="#fefefe" d="M 79.5,70.5 C 84.8437,70.334 90.1771,70.5006 95.5,71C 115,90.5 134.5,110 154,129.5C 154.333,133.5 154.667,137.5 155,141.5C 186.6,173.556 218.767,205.056 251.5,236C 258.854,234.403 263.021,237.237 264,244.5C 267.93,248.219 271.764,252.053 275.5,256C 277.217,257.559 279.217,258.392 281.5,258.5C 281.937,253.292 283.77,248.625 287,244.5C 289.487,242.191 291.487,239.524 293,236.5C 294.731,234.383 296.898,232.883 299.5,232C 298.035,229.57 296.702,227.07 295.5,224.5C 290.85,223.668 286.183,222.835 281.5,222C 278.076,218.735 277.743,215.235 280.5,211.5C 278.332,207.432 275.665,203.765 272.5,200.5C 273.871,196.957 275.871,193.79 278.5,191C 275.956,189.908 273.289,189.241 270.5,189C 266.417,186.14 266.75,183.807 271.5,182C 275.021,180.326 278.687,179.16 282.5,178.5C 282.759,172.092 283.593,165.759 285,159.5C 286,158.167 287,156.833 288,155.5C 289.088,149.122 291.088,143.122 294,137.5C 299.78,136.853 305.613,136.186 311.5,135.5C 312.98,130.245 314.147,124.911 315,119.5C 317.919,113.975 322.419,112.142 328.5,114C 333.667,115.167 336.833,118.333 338,123.5C 338.977,126.241 339.477,129.075 339.5,132C 338.475,138.541 337.308,145.041 336,151.5C 334.98,152.891 334.147,154.391 333.5,156C 340.717,158.536 343.717,163.536 342.5,171C 340.992,181.052 339.659,191.219 338.5,201.5C 344.732,202.061 350.732,201.228 356.5,199C 364.471,198.446 372.304,197.279 380,195.5C 382.5,195.667 385,195.833 387.5,196C 389.705,198.54 392.205,200.707 395,202.5C 395.253,205.79 396.253,208.79 398,211.5C 398.455,218.53 398.455,225.53 398,232.5C 401.333,239.833 404.667,247.167 408,254.5C 409.161,255.995 410.327,257.495 411.5,259C 412.974,265.11 415.14,270.943 418,276.5C 418.667,281.5 418.667,286.5 418,291.5C 414.833,292 413,293.833 412.5,297C 407.257,300.453 401.591,303.12 395.5,305C 400.167,305.333 404.833,305.667 409.5,306C 411.246,306.471 412.913,307.138 414.5,308C 420.538,315.138 426.038,322.638 431,330.5C 431.781,335.554 431.614,340.554 430.5,345.5C 429.5,346.5 428.5,347.5 427.5,348.5C 422.895,350.075 418.562,351.075 414.5,351.5C 412.729,354.962 411.229,358.628 410,362.5C 410.943,379.333 414.277,395.667 420,411.5C 420.667,412.833 421.667,413.833 423,414.5C 424.264,418.636 426.097,422.47 428.5,426C 429.91,431.651 431.744,437.151 434,442.5C 435.153,453.151 436.153,463.818 437,474.5C 440.334,481.451 441.334,488.784 440,496.5C 439.5,497.667 438.667,498.5 437.5,499C 438.516,499.519 439.182,500.353 439.5,501.5C 441.102,507.661 440.769,513.661 438.5,519.5C 434.519,520.766 430.352,521.432 426,521.5C 422.167,521.333 418.333,521.167 414.5,521C 412.139,520.803 410.472,519.636 409.5,517.5C 406.074,517.025 402.908,516.025 400,514.5C 398.831,502.485 398.664,490.485 399.5,478.5C 396.566,464.757 392.399,451.424 387,438.5C 386,437.833 385,437.167 384,436.5C 379.217,422.298 373.384,408.632 366.5,395.5C 354.971,405.576 346.138,417.576 340,431.5C 337.483,433.457 336.316,436.124 336.5,439.5C 337.032,443.877 337.865,448.21 339,452.5C 339.192,469.229 340.192,485.896 342,502.5C 342.414,502.957 342.914,503.291 343.5,503.5C 346.425,512.946 344.092,520.446 336.5,526C 318.269,529.296 300.103,529.13 282,525.5C 281.333,519.167 281.333,512.833 282,506.5C 282.956,505.421 283.789,504.255 284.5,503C 289.202,502.828 293.868,502.328 298.5,501.5C 298.977,500.522 299.643,499.689 300.5,499C 299.782,487.215 298.949,475.382 298,463.5C 293.519,446.771 291.519,429.771 292,412.5C 299.489,398.065 306.989,383.565 314.5,369C 312.288,366.079 310.455,362.912 309,359.5C 308.7,352.092 307.867,344.758 306.5,337.5C 302.154,337.666 297.821,337.499 293.5,337C 292.258,335.125 290.924,333.291 289.5,331.5C 288.994,328.609 287.994,325.942 286.5,323.5C 279.55,324.63 272.55,324.797 265.5,324C 262.345,321.011 259.345,317.844 256.5,314.5C 253.761,307.781 250.928,301.114 248,294.5C 247,292.833 245.667,291.5 244,290.5C 243.662,285.453 242.995,280.453 242,275.5C 238.667,272.167 235.333,268.833 232,265.5C 231.667,263.167 231.333,260.833 231,258.5C 220.5,248 210,237.5 199.5,227C 198.167,226.667 196.833,226.333 195.5,226C 187.333,217.833 179.167,209.667 171,201.5C 169.827,197.663 167.827,194.329 165,191.5C 154.602,180.773 144.602,169.773 135,158.5C 133.939,153.896 133.273,149.229 133,144.5C 115.333,124.833 97.6667,105.167 80,85.5C 78.3619,80.4905 78.1953,75.4905 79.5,70.5 Z"/></g>
<g><path style="opacity:1" fill="#000000" d="M 81.5,72.5 C 85.5138,72.3345 89.5138,72.5012 93.5,73C 113,92.5 132.5,112 152,131.5C 152.333,135.5 152.667,139.5 153,143.5C 184.6,175.556 216.767,207.056 249.5,238C 256.854,236.403 261.021,239.237 262,246.5C 267.119,250.652 271.952,255.152 276.5,260C 278.101,260.273 279.601,260.773 281,261.5C 282.356,260.62 283.856,260.286 285.5,260.5C 285.335,257.482 285.502,254.482 286,251.5C 291.207,244.301 297.04,237.801 303.5,232C 299.825,229.018 298.492,225.351 299.5,221C 295.167,220.667 290.833,220.333 286.5,220C 282.13,218.022 281.464,215.189 284.5,211.5C 283.194,210.088 282.36,208.421 282,206.5C 279.697,204.607 277.53,202.607 275.5,200.5C 278.906,197.007 281.239,193.007 282.5,188.5C 279.126,188.326 275.793,187.826 272.5,187C 272.043,186.586 271.709,186.086 271.5,185.5C 275.964,183.581 280.464,181.581 285,179.5C 285.799,173.515 286.465,167.515 287,161.5C 288,160.167 289,158.833 290,157.5C 291.088,151.122 293.088,145.122 296,139.5C 300.748,138.365 305.581,138.198 310.5,139C 311.333,139.833 312.167,140.667 313,141.5C 313.988,133.218 315.988,125.218 319,117.5C 324.769,114.471 330.102,115.138 335,119.5C 335.373,123.785 336.206,127.951 337.5,132C 336.269,140.259 334.269,148.259 331.5,156C 331.833,156.833 332.167,157.667 332.5,158.5C 340.231,162.527 342.731,168.861 340,177.5C 338.726,183.058 337.56,188.724 336.5,194.5C 335.963,195.741 335.296,196.908 334.5,198C 335.885,199.597 336.551,201.43 336.5,203.5C 341.233,203.223 345.9,203.557 350.5,204.5C 353.05,203.058 355.716,201.892 358.5,201C 365.875,200.848 373.042,199.681 380,197.5C 381.833,197.667 383.667,197.833 385.5,198C 387.705,200.54 390.205,202.707 393,204.5C 394.306,209.558 395.472,214.558 396.5,219.5C 396.913,223.299 395.913,226.633 393.5,229.5C 401.482,245.613 408.982,261.946 416,278.5C 416.667,282.167 416.667,285.833 416,289.5C 412.833,290 411,291.833 410.5,295C 403.087,299.307 395.421,303.14 387.5,306.5C 388.145,307.646 388.978,308.646 390,309.5C 393.098,307.953 396.431,307.286 400,307.5C 404.406,307.236 408.573,308.069 412.5,310C 418.273,316.381 423.44,323.215 428,330.5C 429.759,334.765 429.926,339.098 428.5,343.5C 427.315,344.853 425.981,346.02 424.5,347C 420.546,348.154 416.546,348.987 412.5,349.5C 410.729,352.962 409.229,356.628 408,360.5C 407.333,365.5 407.333,370.5 408,375.5C 410.301,382.305 411.634,389.305 412,396.5C 414.565,401.917 416.565,407.584 418,413.5C 418.667,414.833 419.667,415.833 421,416.5C 422.264,420.636 424.097,424.47 426.5,428C 427.91,433.651 429.744,439.151 432,444.5C 433.153,455.151 434.153,465.818 435,476.5C 438.208,482.098 439.208,488.098 438,494.5C 437.167,496 436,497.167 434.5,498C 439.232,504.711 439.565,511.545 435.5,518.5C 429.193,519.664 422.859,519.831 416.5,519C 414.139,518.803 412.472,517.636 411.5,515.5C 408.074,515.025 404.908,514.025 402,512.5C 400.953,507.245 401.453,502.245 403.5,497.5C 402.855,496.354 402.022,495.354 401,494.5C 400.39,489.149 400.557,483.816 401.5,478.5C 398.882,464.024 394.715,450.024 389,436.5C 388,435.833 387,435.167 386,434.5C 381.921,423.266 377.254,412.266 372,401.5C 371.339,398.054 370.505,394.721 369.5,391.5C 367.217,391.608 365.217,392.441 363.5,394C 351.96,405.014 342.626,417.514 335.5,431.5C 334.724,434.986 334.058,438.486 333.5,442C 335.18,446.017 336.347,450.184 337,454.5C 337.192,471.229 338.192,487.896 340,504.5C 340.414,504.957 340.914,505.291 341.5,505.5C 342.833,509.5 342.833,513.5 341.5,517.5C 339.047,519.612 336.714,521.779 334.5,524C 317.602,527.258 300.769,527.091 284,523.5C 283.333,518.5 283.333,513.5 284,508.5C 284.915,507.672 285.581,506.672 286,505.5C 290.784,504.857 295.617,504.191 300.5,503.5C 302.318,502.226 303.985,500.726 305.5,499C 304.421,498.044 303.255,497.211 302,496.5C 301.768,484.805 301.102,473.138 300,461.5C 296.042,446.056 294.042,430.389 294,414.5C 295.117,413.051 295.784,411.384 296,409.5C 302.786,395.82 309.952,382.32 317.5,369C 314.961,365.426 312.794,361.593 311,357.5C 310.974,349.643 309.807,341.976 307.5,334.5C 303.558,335.6 299.558,335.767 295.5,335C 291.359,330.357 289.192,324.857 289,318.5C 287.417,320.055 285.584,321.222 283.5,322C 278.167,322.667 272.833,322.667 267.5,322C 264.345,319.011 261.345,315.844 258.5,312.5C 255.761,305.781 252.928,299.114 250,292.5C 249,290.833 247.667,289.5 246,288.5C 245.662,283.453 244.995,278.453 244,273.5C 240.667,270.167 237.333,266.833 234,263.5C 233.667,261.167 233.333,258.833 233,256.5C 222.5,246 212,235.5 201.5,225C 200.167,224.667 198.833,224.333 197.5,224C 189.333,215.833 181.167,207.667 173,199.5C 171.827,195.663 169.827,192.329 167,189.5C 156.602,178.773 146.602,167.773 137,156.5C 135.452,152.322 135.285,148.156 136.5,144C 118.333,123.833 100.167,103.667 82,83.5C 80.4893,79.8203 80.3226,76.1536 81.5,72.5 Z"/></g>
<g><path style="opacity:1" fill="#c2c3c2" d="M 85.5,77.5 C 86.2506,76.4265 87.2506,76.2599 88.5,77C 107.667,96.1667 126.833,115.333 146,134.5C 146.333,138.833 146.667,143.167 147,147.5C 149.869,150.704 153.035,153.537 156.5,156C 154.953,157.849 153.119,159.349 151,160.5C 142.741,155.731 139.408,148.731 141,139.5C 122.717,118.572 104.217,97.9055 85.5,77.5 Z"/></g>
<g><path style="opacity:1" fill="#fefefe" d="M 334.5,136.5 C 329.094,135.378 323.761,134.045 318.5,132.5C 317.571,127.235 318.904,122.735 322.5,119C 326.882,117.581 330.216,118.748 332.5,122.5C 333.816,127.079 334.483,131.746 334.5,136.5 Z"/></g>
<g><path style="opacity:1" fill="#ba0f16" d="M 318.5,132.5 C 323.761,134.045 329.094,135.378 334.5,136.5C 332.233,141.646 330.399,146.979 329,152.5C 327.587,154.414 325.753,155.747 323.5,156.5C 318.487,149.096 316.82,141.096 318.5,132.5 Z"/></g>
<g><path style="opacity:1" fill="#696969" d="M 314.5,165.5 C 313.659,163.621 313.325,161.621 313.5,159.5C 317.533,154.109 320.867,154.609 323.5,161C 323.561,162.711 322.894,164.044 321.5,165C 319.19,165.497 316.857,165.663 314.5,165.5 Z"/></g>
<g><path style="opacity:1" fill="#c2c3c2" d="M 157.5,160.5 C 158.251,159.427 159.251,159.26 160.5,160C 190.667,189.5 220.833,219 251,248.5C 251.667,249.833 251.667,251.167 251,252.5C 220.082,221.078 188.916,190.412 157.5,160.5 Z"/></g>
<g><path style="opacity:1" fill="#fefffe" d="M 313.5,159.5 C 313.325,161.621 313.659,163.621 314.5,165.5C 309.378,169.899 304.045,174.066 298.5,178C 296.323,179.202 293.989,179.702 291.5,179.5C 290.041,179.567 288.708,179.234 287.5,178.5C 287.414,177.504 287.748,176.671 288.5,176C 290.5,175.667 292.5,175.333 294.5,175C 296.126,172.372 298.126,170.039 300.5,168C 304.89,165.146 309.224,162.313 313.5,159.5 Z"/></g>
<g><path style="opacity:1" fill="#b87a56" d="M 153.5,160.5 C 168.611,175.11 183.611,189.944 198.5,205C 201.369,206.748 204.036,208.748 206.5,211C 221.167,225.667 235.833,240.333 250.5,255C 248.714,255.785 247.214,256.951 246,258.5C 245.667,257.167 245.333,255.833 245,254.5C 232.196,242.696 219.696,230.53 207.5,218C 206.167,217.667 204.833,217.333 203.5,217C 195.077,207.906 186.077,199.572 176.5,192C 168.167,182.333 159.833,172.667 151.5,163C 152.381,162.292 153.047,161.458 153.5,160.5 Z"/></g>
<g><path style="opacity:1" fill="#fefffe" d="M 316.5,160.5 C 317.5,160.5 318.5,160.5 319.5,160.5C 319.5,161.5 319.5,162.5 319.5,163.5C 318.5,163.5 317.5,163.5 316.5,163.5C 316.5,162.5 316.5,161.5 316.5,160.5 Z"/></g>
<g><path style="opacity:1" fill="#7e7f7e" d="M 287.5,178.5 C 288.708,179.234 290.041,179.567 291.5,179.5C 295.956,181.892 300.623,184.058 305.5,186C 306.696,186.654 306.696,187.154 305.5,187.5C 299.059,184.946 293.059,181.946 287.5,178.5 Z"/></g>
<g><path style="opacity:1" fill="#fefffe" d="M 286.5,189.5 C 287.873,189.343 289.207,189.51 290.5,190C 289.347,191.883 287.681,192.716 285.5,192.5C 286.11,191.609 286.443,190.609 286.5,189.5 Z"/></g>
<g><path style="opacity:1" fill="#f7a582" d="M 301.5,199.5 C 300.863,202.646 299.196,205.146 296.5,207C 296.645,207.772 296.978,208.439 297.5,209C 299.167,209.667 300.833,209.667 302.5,209C 305.814,204.005 307.814,198.505 308.5,192.5C 310.353,189.978 312.353,189.978 314.5,192.5C 315.474,194.743 315.808,197.076 315.5,199.5C 314.78,202.06 313.113,203.893 310.5,205C 312.609,205.907 313.942,207.407 314.5,209.5C 313.811,212.353 311.978,214.019 309,214.5C 309,212.5 309,210.5 309,208.5C 307.508,216.254 302.842,219.254 295,217.5C 292.167,217.333 289.333,217.167 286.5,217C 285.978,216.439 285.645,215.772 285.5,215C 286.952,213.435 288.619,212.102 290.5,211C 288.842,209.337 286.842,208.504 284.5,208.5C 284.5,207.167 284.5,205.833 284.5,204.5C 285.5,204.5 286.5,204.5 287.5,204.5C 287.649,203.448 287.483,202.448 287,201.5C 284.087,203.921 281.254,203.588 278.5,200.5C 280.397,197.314 282.731,194.647 285.5,192.5C 287.681,192.716 289.347,191.883 290.5,190C 289.207,189.51 287.873,189.343 286.5,189.5C 285.761,189.631 285.094,189.464 284.5,189C 285.833,188.833 287.167,188.667 288.5,188.5C 292.77,189.59 297.103,190.257 301.5,190.5C 301.5,193.5 301.5,196.5 301.5,199.5 Z"/></g>
<g><path style="opacity:1" fill="#66402c" d="M 308.5,192.5 C 307.814,198.505 305.814,204.005 302.5,209C 300.833,209.667 299.167,209.667 297.5,209C 296.978,208.439 296.645,207.772 296.5,207C 299.196,205.146 300.863,202.646 301.5,199.5C 302.244,196.64 302.911,193.64 303.5,190.5C 305.045,189.548 306.712,189.215 308.5,189.5C 308.5,190.5 308.5,191.5 308.5,192.5 Z"/></g>
<g><path style="opacity:1" fill="#000000" d="M 311.5,192.5 C 312.837,195.53 312.503,198.53 310.5,201.5C 309.892,198.495 310.226,195.495 311.5,192.5 Z"/></g>
<g><path style="opacity:1" fill="#fefffe" d="M 176.5,194.5 C 176.897,193.475 177.563,193.308 178.5,194C 186.5,202 194.5,210 202.5,218C 203.833,218.333 205.167,218.667 206.5,219C 218.833,231.333 231.167,243.667 243.5,256C 242.833,256.667 242.167,256.667 241.5,256C 228.974,244.23 216.641,232.23 204.5,220C 203.167,219.667 201.833,219.333 200.5,219C 192.27,210.938 184.27,202.772 176.5,194.5 Z"/></g>
<g><path style="opacity:1" fill="#835236" d="M 314.5,209.5 C 313.942,207.407 312.609,205.907 310.5,205C 313.113,203.893 314.78,202.06 315.5,199.5C 316.461,197.735 316.795,195.735 316.5,193.5C 319.358,193.595 321.691,194.762 323.5,197C 325.473,197.495 327.473,197.662 329.5,197.5C 329.287,201.516 329.954,205.35 331.5,209C 325.796,212.009 320.129,212.176 314.5,209.5 Z"/></g>
<g><path style="opacity:1" fill="#fefffe" d="M 378.5,205.5 C 378.369,204.761 378.536,204.094 379,203.5C 384.512,208.439 387.512,214.439 388,221.5C 387.902,223.619 387.069,225.286 385.5,226.5C 384.495,225.89 384.662,225.224 386,224.5C 386.995,221.874 387.328,219.207 387,216.5C 384.714,212.384 381.88,208.717 378.5,205.5 Z"/></g>
<g><path style="opacity:1" fill="#474746" d="M 378.5,205.5 C 381.144,209.819 383.811,214.152 386.5,218.5C 385.694,221.446 384.361,224.112 382.5,226.5C 376.848,227.37 371.181,228.037 365.5,228.5C 364.654,220.795 361.321,214.295 355.5,209C 362.902,205.769 370.568,204.603 378.5,205.5 Z"/></g>
<g><path style="opacity:1" fill="#474746" d="M 382.5,205.5 C 382.56,204.957 382.893,204.624 383.5,204.5C 388.676,209.47 391.176,215.47 391,222.5C 390.581,223.672 389.915,224.672 389,225.5C 389.502,221.908 389.502,218.241 389,214.5C 387.278,211.133 385.111,208.133 382.5,205.5 Z"/></g>
<g><path style="opacity:1" fill="#3e3d3d" d="M 335.5,208.5 C 341.947,207.42 347.613,208.92 352.5,213C 353.96,216.089 355.793,218.922 358,221.5C 358.498,224.482 358.665,227.482 358.5,230.5C 356.473,230.338 354.473,230.505 352.5,231C 346.205,233.797 340.372,237.297 335,241.5C 331.825,240.314 330.159,237.981 330,234.5C 326.717,232.134 325.217,228.801 325.5,224.5C 325.682,221.774 326.182,219.107 327,216.5C 329.375,213.29 332.208,210.624 335.5,208.5 Z"/></g>
<g><path style="opacity:1" fill="#fef200" d="M 317.5,212.5 C 320.649,212.211 323.649,212.711 326.5,214C 324.077,217.753 323.077,221.92 323.5,226.5C 321.801,226.34 320.134,226.506 318.5,227C 314.363,230.054 309.863,231.221 305,230.5C 303.303,228.301 301.803,225.968 300.5,223.5C 305.411,218.552 311.077,214.885 317.5,212.5 Z"/></g>
<g><path style="opacity:1" fill="#fefffe" d="M 355.5,213.5 C 357.337,213.639 357.67,214.306 356.5,215.5C 355.702,215.043 355.369,214.376 355.5,213.5 Z"/></g>
<g><path style="opacity:1" fill="#fefffe" d="M 358.5,217.5 C 361.944,220.3 363.61,223.967 363.5,228.5C 362.5,228.5 361.5,228.5 360.5,228.5C 360.584,224.669 359.917,221.002 358.5,217.5 Z"/></g>
<g><path style="opacity:1" fill="#fefffe" d="M 319.5,228.5 C 321.167,228.5 322.833,228.5 324.5,228.5C 324.34,230.199 324.506,231.866 325,233.5C 327.064,235.243 327.564,237.243 326.5,239.5C 318.137,238.446 309.803,238.779 301.5,240.5C 300.692,240.192 300.025,239.692 299.5,239C 304.304,234.615 309.971,231.948 316.5,231C 317.571,230.148 318.571,229.315 319.5,228.5 Z"/></g>
<g><path style="opacity:1" fill="#fefffe" d="M 383.5,230.5 C 384.239,230.369 384.906,230.536 385.5,231C 387.046,233.257 388.712,235.424 390.5,237.5C 392.803,244.765 395.637,251.765 399,258.5C 400,259.5 401,260.5 402,261.5C 404.391,267.949 407.058,274.282 410,280.5C 410.667,282.5 410.667,284.5 410,286.5C 406.265,275.141 401.265,264.475 395,254.5C 394.133,249.88 392.133,245.88 389,242.5C 387.63,238.195 385.797,234.195 383.5,230.5 Z"/></g>
<g><path style="opacity:1" fill="#fefefe" d="M 363.5,232.5 C 365.377,231.375 367.21,231.709 369,233.5C 377.817,251.633 386.817,269.633 396,287.5C 397.102,290.905 396.268,293.572 393.5,295.5C 393.236,291.915 392.403,288.248 391,284.5C 386.712,276.193 382.378,267.86 378,259.5C 375.869,252.578 373.202,245.911 370,239.5C 367.817,237.093 365.65,234.76 363.5,232.5 Z"/></g>
<g><path style="opacity:1" fill="#e71c23" d="M 338.5,252.5 C 338.192,254.924 338.526,257.257 339.5,259.5C 343.336,267.095 346.67,274.929 349.5,283C 347.5,283.333 345.5,283.667 343.5,284C 342.167,285 342.167,286 343.5,287C 347.473,288.028 351.473,288.861 355.5,289.5C 355.5,290.5 355.5,291.5 355.5,292.5C 357.359,292.461 358.692,293.294 359.5,295C 346.984,295.408 334.651,294.074 322.5,291C 323.696,290.346 323.696,289.846 322.5,289.5C 319.78,291.111 316.78,291.944 313.5,292C 310.5,293.667 308.167,296 306.5,299C 304.385,299.557 302.385,300.391 300.5,301.5C 298.024,304.232 295.357,306.732 292.5,309C 288.005,310.811 284.005,313.478 280.5,317C 277.5,317.667 274.5,317.667 271.5,317C 261.238,306.969 256.072,295.469 256,282.5C 257.385,281.449 258.385,280.116 259,278.5C 269.455,273.62 274.788,276.953 275,288.5C 275.791,287.255 276.291,285.922 276.5,284.5C 277.492,284.672 278.158,284.338 278.5,283.5C 280.612,282.406 282.779,281.406 285,280.5C 285.956,277.623 287.289,274.956 289,272.5C 287.079,260.431 290.079,249.765 298,240.5C 298.5,241 299,241.5 299.5,242C 291.893,248.049 291.559,254.382 298.5,261C 302.829,262.151 306.662,261.318 310,258.5C 312.568,252.793 314.735,246.96 316.5,241C 324.473,240.617 331.64,242.783 338,247.5C 338.494,249.134 338.66,250.801 338.5,252.5 Z"/></g>
<g><path style="opacity:1" fill="#e7e7e7" d="M 302.5,242.5 C 305.85,242.335 309.183,242.502 312.5,243C 311.711,246.595 310.544,250.095 309,253.5C 307.654,256.179 305.654,258.179 303,259.5C 300.525,259.016 298.692,257.683 297.5,255.5C 300.447,254.679 303.447,254.179 306.5,254C 303.183,253.502 299.85,253.335 296.5,253.5C 296.5,252.167 296.5,250.833 296.5,249.5C 299.85,249.665 303.183,249.498 306.5,249C 303.5,248.667 300.5,248.333 297.5,248C 298.762,245.724 300.429,243.891 302.5,242.5 Z"/></g>
<g><path style="opacity:1" fill="#f9a884" d="M 253.5,243.5 C 254.117,243.611 254.617,243.944 255,244.5C 256,250.184 257.5,255.684 259.5,261C 255.333,263.833 251.167,266.667 247,269.5C 243.943,265.951 241.109,262.284 238.5,258.5C 238.833,257.833 239.167,257.167 239.5,256.5C 244.782,262.062 249.282,261.395 253,254.5C 253.499,250.848 253.665,247.182 253.5,243.5 Z"/></g>
<g><path style="opacity:1" fill="#fec90d" d="M 382.5,248.5 C 385.997,247.891 388.663,249.057 390.5,252C 392.839,256.203 393.839,260.703 393.5,265.5C 392.07,265.579 390.736,265.246 389.5,264.5C 387.727,261.94 385.727,259.607 383.5,257.5C 382.593,254.579 382.26,251.579 382.5,248.5 Z"/></g>
<g><path style="opacity:1" fill="#c2c3c2" d="M 259.5,251.5 C 261.66,253.325 263.16,255.659 264,258.5C 264.903,259.701 266.069,260.535 267.5,261C 265.191,261.756 263.191,261.256 261.5,259.5C 260.451,256.92 259.784,254.254 259.5,251.5 Z"/></g>
<g><path style="opacity:1" fill="#ba0f16" d="M 338.5,252.5 C 344.229,258.958 347.729,266.624 349,275.5C 350,276.5 351,277.5 352,278.5C 352.409,282.491 353.576,286.157 355.5,289.5C 351.473,288.861 347.473,288.028 343.5,287C 342.167,286 342.167,285 343.5,284C 345.5,283.667 347.5,283.333 349.5,283C 346.67,274.929 343.336,267.095 339.5,259.5C 338.526,257.257 338.192,254.924 338.5,252.5 Z"/></g>
<g><path style="opacity:1" fill="#fffeff" d="M 362.5,258.5 C 364.655,258.372 366.655,258.872 368.5,260C 364.167,263 359.833,266 355.5,269C 354.552,269.483 353.552,269.649 352.5,269.5C 352.298,267.011 352.798,264.677 354,262.5C 357.047,261.438 359.88,260.105 362.5,258.5 Z"/></g>
<g><path style="opacity:1" fill="#fef200" d="M 251.5,269.5 C 253.497,266.157 256.497,264.49 260.5,264.5C 264.694,262.612 268.194,263.612 271,267.5C 272.504,270.684 274.004,273.851 275.5,277C 272.666,275.063 269.333,274.23 265.5,274.5C 263.5,274.667 261.5,274.833 259.5,275C 259,275.5 258.5,276 258,276.5C 258.408,271.742 256.241,269.409 251.5,269.5 Z"/></g>
<g><path style="opacity:1" fill="#000000" d="M 260.5,264.5 C 266.02,263.868 268.853,266.201 269,271.5C 261.813,273.863 258.98,271.53 260.5,264.5 Z"/></g>
<g><path style="opacity:1" fill="#fefffe" d="M 261.5,265.5 C 264.731,265.559 267.065,267.059 268.5,270C 266.244,271.867 263.91,271.867 261.5,270C 260.272,268.51 260.272,267.01 261.5,265.5 Z"/></g>
<g><path style="opacity:1" fill="#c2c3c2" d="M 273.5,265.5 C 274.978,265.238 276.311,265.571 277.5,266.5C 277.968,268.134 278.968,269.3 280.5,270C 279.271,271.529 277.771,272.696 276,273.5C 274.856,270.92 274.022,268.253 273.5,265.5 Z"/></g>
<g><path style="opacity:1" fill="#c2c3c2" d="M 285.5,266.5 C 286.88,266.962 287.547,267.962 287.5,269.5C 285.551,271.792 284.551,274.459 284.5,277.5C 282.286,277.709 280.619,276.876 279.5,275C 281.705,272.298 283.705,269.464 285.5,266.5 Z"/></g>
<g><path style="opacity:1" fill="#fef200" d="M 251.5,269.5 C 251.337,271.857 251.503,274.19 252,276.5C 253.399,277.227 254.899,277.727 256.5,278C 254.348,280.12 252.848,282.62 252,285.5C 251.333,284.833 250.667,284.167 250,283.5C 249.682,279.805 249.182,276.138 248.5,272.5C 248.868,270.825 249.868,269.825 251.5,269.5 Z"/></g>
<g><path style="opacity:1" fill="#fefffe" d="M 252.5,270.5 C 256.647,271.6 257.313,273.6 254.5,276.5C 252.717,274.977 252.051,272.977 252.5,270.5 Z"/></g>
<g><path style="opacity:1" fill="#000000" d="M 328.5,280.5 C 329.311,283.484 328.311,283.984 325.5,282C 326.737,281.768 327.737,281.268 328.5,280.5 Z"/></g>
<g><path style="opacity:1" fill="#946247" d="M 278.5,283.5 C 278.158,284.338 277.492,284.672 276.5,284.5C 275.596,283.791 275.263,282.791 275.5,281.5C 277.179,281.285 278.179,281.952 278.5,283.5 Z"/></g>
<g><path style="opacity:1" fill="#fefffe" d="M 315.5,293.5 C 330.143,295.298 344.809,296.964 359.5,298.5C 360.09,299.799 361.09,300.632 362.5,301C 346.56,302.139 330.893,300.639 315.5,296.5C 315.5,295.5 315.5,294.5 315.5,293.5 Z"/></g>
<g><path style="opacity:1" fill="#870014" d="M 324.5,366.5 C 320.827,364.201 318.327,360.867 317,356.5C 316.485,346.378 315.152,336.378 313,326.5C 312.333,316.167 312.333,305.833 313,295.5C 313.368,296.91 314.201,297.91 315.5,298.5C 315.989,311.266 317.322,323.933 319.5,336.5C 317.676,342.39 317.176,348.39 318,354.5C 319.994,358.643 322.161,362.643 324.5,366.5 Z"/></g>
<g><path style="opacity:1" fill="#fef200" d="M 308.5,298.5 C 309.629,300.628 309.796,302.961 309,305.5C 307.978,304.646 307.145,303.646 306.5,302.5C 307.63,301.378 308.297,300.044 308.5,298.5 Z"/></g>
<g><path style="opacity:1" fill="#ec1c23" d="M 318.5,299.5 C 329.987,302.216 341.654,303.549 353.5,303.5C 353.174,306.311 352.341,308.978 351,311.5C 350.667,315.833 350.333,320.167 350,324.5C 349.586,324.957 349.086,325.291 348.5,325.5C 345.422,323.87 342.089,323.037 338.5,323C 332.314,317.313 325.981,311.813 319.5,306.5C 318.526,304.257 318.192,301.924 318.5,299.5 Z"/></g>
<g><path style="opacity:1" fill="#b87a56" d="M 302.5,303.5 C 308.243,306.383 310.91,311.05 310.5,317.5C 310.167,320.167 309.833,322.833 309.5,325.5C 306.727,326.97 303.894,328.303 301,329.5C 299.347,329.18 298.347,328.18 298,326.5C 296.812,321.72 295.312,317.053 293.5,312.5C 296.521,309.479 299.521,306.479 302.5,303.5 Z"/></g>
<g><path style="opacity:1" fill="#fefffe" d="M 355.5,304.5 C 358.178,303.091 360.844,303.257 363.5,305C 360.843,305.175 358.176,305.008 355.5,304.5 Z"/></g>
<g><path style="opacity:1" fill="#fec90d" d="M 355.5,305.5 C 357.806,305.993 360.139,306.326 362.5,306.5C 362.5,307.833 362.5,309.167 362.5,310.5C 358.794,310.501 356.461,308.835 355.5,305.5 Z"/></g>
<g><path style="opacity:1" fill="#fefffe" d="M 377.5,305.5 C 379.818,309.061 382.818,312.228 386.5,315C 384.038,316.216 381.371,316.882 378.5,317C 376.5,318.333 374.5,319.667 372.5,321C 371.365,321.749 370.365,321.583 369.5,320.5C 370.5,318.833 371.833,317.5 373.5,316.5C 374.487,313.232 374.82,309.898 374.5,306.5C 375.791,306.737 376.791,306.404 377.5,305.5 Z"/></g>
<g><path style="opacity:1" fill="#870014" d="M 324.5,366.5 C 327.843,367.224 331.176,368.057 334.5,369C 340.626,369.638 346.626,368.971 352.5,367C 354.333,364.5 356.5,362.333 359,360.5C 359.376,357.99 360.21,355.657 361.5,353.5C 362.012,337.765 363.179,322.098 365,306.5C 367.063,310.496 367.897,314.829 367.5,319.5C 365.921,332.47 364.421,345.47 363,358.5C 359.507,362.993 355.673,367.159 351.5,371C 344.833,371.667 338.167,371.667 331.5,371C 329.276,369.219 326.942,367.719 324.5,366.5 Z"/></g>
<g><path style="opacity:1" fill="#ec1c23" d="M 371.5,306.5 C 374.387,310.405 373.887,314.072 370,317.5C 369.187,313.596 369.687,309.929 371.5,306.5 Z"/></g>
<g><path style="opacity:1" fill="#fefffe" d="M 318.5,308.5 C 324.147,313.143 329.814,317.81 335.5,322.5C 336.833,323.5 336.833,324.5 335.5,325.5C 333.189,326.497 330.856,326.997 328.5,327C 326.833,322.162 323.833,318.328 319.5,315.5C 318.526,313.257 318.192,310.924 318.5,308.5 Z"/></g>
<g><path style="opacity:1" fill="#000000" d="M 375.5,308.5 C 376.249,309.531 376.915,310.698 377.5,312C 378.938,312.219 380.271,312.719 381.5,313.5C 376.91,315.176 374.91,313.51 375.5,308.5 Z"/></g>
<g><path style="opacity:1" fill="#fefffe" d="M 353.5,309.5 C 356.167,310.167 358.833,310.833 361.5,311.5C 361.785,313.288 361.452,314.955 360.5,316.5C 358.615,315.391 356.615,314.557 354.5,314C 353.62,312.644 353.286,311.144 353.5,309.5 Z"/></g>
<g><path style="opacity:1" fill="#fec90d" d="M 352.5,314.5 C 355.402,315.784 358.402,316.784 361.5,317.5C 361.5,318.833 361.5,320.167 361.5,321.5C 356.259,321.997 353.259,319.664 352.5,314.5 Z"/></g>
<g><path style="opacity:1" fill="#ec1c23" d="M 318.5,317.5 C 324.387,320.672 326.22,325.338 324,331.5C 323,332.167 322,332.833 321,333.5C 320.002,328.18 319.169,322.847 318.5,317.5 Z"/></g>
<g><path style="opacity:1" fill="#4d4e4d" d="M 398.5,317.5 C 403.482,323.429 408.482,329.429 413.5,335.5C 416.5,336.167 419.5,336.833 422.5,337.5C 419.893,338.318 417.226,338.818 414.5,339C 407.766,346.466 407.099,345.966 412.5,337.5C 407.394,331.074 402.727,324.407 398.5,317.5 Z"/></g>
<g><path style="opacity:1" fill="#e51c22" d="M 380.5,318.5 C 382.716,319.203 384.549,320.536 386,322.5C 387.201,324.909 388.867,326.909 391,328.5C 393.092,334.601 396.759,339.601 402,343.5C 404.059,348.745 403.892,353.911 401.5,359C 395.012,361.456 388.345,363.289 381.5,364.5C 381.664,361.813 381.497,359.146 381,356.5C 377.678,347.298 374.511,337.965 371.5,328.5C 371.79,326.956 372.456,325.623 373.5,324.5C 372.975,323.808 372.308,323.308 371.5,323C 372.766,322.691 373.933,322.191 375,321.5C 379.891,329.56 384.391,337.727 388.5,346C 389.319,347.319 390.319,348.485 391.5,349.5C 391.833,349.167 392.167,348.833 392.5,348.5C 387.439,339.25 382.106,330.25 376.5,321.5C 377.624,320.141 378.958,319.141 380.5,318.5 Z"/></g>
<g><path style="opacity:1" fill="#fefffe" d="M 352.5,320.5 C 354.82,322.226 357.487,322.893 360.5,322.5C 360.666,326.514 360.499,330.514 360,334.5C 354.602,331.296 352.102,326.63 352.5,320.5 Z"/></g>
<g><path style="opacity:1" fill="#746635" d="M 368.5,323.5 C 368.755,328.479 370.255,333.146 373,337.5C 374.98,344.111 376.98,350.778 379,357.5C 380.33,363.799 380.996,370.132 381,376.5C 378.715,377.819 376.548,379.319 374.5,381C 361.833,382.145 349.166,383.311 336.5,384.5C 335.167,384.167 333.833,383.833 332.5,383.5C 331.355,380.252 330.521,376.919 330,373.5C 329.075,372.953 328.242,372.287 327.5,371.5C 329.123,370.524 330.457,371.024 331.5,373C 337.833,373.667 344.167,373.667 350.5,373C 355.634,368.867 360.468,364.367 365,359.5C 366.396,347.52 367.563,335.52 368.5,323.5 Z"/></g>
<g><path style="opacity:1" fill="#00a1e8" d="M 335.5,331.5 C 335.5,330.167 335.5,328.833 335.5,327.5C 337.833,327.5 340.167,327.5 342.5,327.5C 342.5,328.833 342.5,330.167 342.5,331.5C 340.167,331.5 337.833,331.5 335.5,331.5 Z"/></g>
<g><path style="opacity:1" fill="#049ee3" d="M 343.5,327.5 C 346.32,327.248 348.986,327.748 351.5,329C 352.976,331.643 354.976,333.81 357.5,335.5C 358.802,338.708 359.469,342.041 359.5,345.5C 358.167,345.5 356.833,345.5 355.5,345.5C 354.813,338.481 351.146,333.814 344.5,331.5C 343.571,330.311 343.238,328.978 343.5,327.5 Z"/></g>
<g><path style="opacity:1" fill="#059de1" d="M 335.5,331.5 C 327.27,334.923 323.27,341.256 323.5,350.5C 322.167,350.5 320.833,350.5 319.5,350.5C 318.882,343.085 321.215,336.918 326.5,332C 328.871,330.121 331.538,328.955 334.5,328.5C 334.263,329.791 334.596,330.791 335.5,331.5 Z"/></g>
<g><path style="opacity:1" fill="#158cc8" d="M 349.5,347.5 C 343.442,349.579 337.109,350.913 330.5,351.5C 329.178,351.67 328.011,351.337 327,350.5C 326.505,348.527 326.338,346.527 326.5,344.5C 330.056,344.725 330.39,343.892 327.5,342C 329.558,338.098 332.891,336.431 337.5,337C 336.167,336.667 334.833,336.333 333.5,336C 339.259,332.512 344.592,333.179 349.5,338C 348.833,338.333 348.167,338.667 347.5,339C 351.851,339.46 353.851,341.96 353.5,346.5C 351.901,346.232 350.568,346.566 349.5,347.5 Z"/></g>
<g><path style="opacity:1" fill="#00a1e8" d="M 349.5,347.5 C 350.833,347.5 352.167,347.5 353.5,347.5C 353.88,352.778 351.546,355.444 346.5,355.5C 342.958,355.187 339.625,355.521 336.5,356.5C 332.831,357.303 330.164,356.136 328.5,353C 329.416,352.722 330.082,352.222 330.5,351.5C 337.109,350.913 343.442,349.579 349.5,347.5 Z"/></g>
<g><path style="opacity:1" fill="#1689c3" d="M 346.5,355.5 C 350.099,355.262 350.433,356.262 347.5,358.5C 342.349,361.307 337.349,361.14 332.5,358C 334.058,357.79 335.391,357.29 336.5,356.5C 339.625,355.521 342.958,355.187 346.5,355.5 Z"/></g>
<g><path style="opacity:1" fill="#049ee3" d="M 323.5,350.5 C 325.816,356.314 329.983,360.314 336,362.5C 336.667,364.167 336.667,365.833 336,367.5C 327.262,365.596 322.096,360.263 320.5,351.5C 321.791,351.737 322.791,351.404 323.5,350.5 Z"/></g>
<g><path style="opacity:1" fill="#069de1" d="M 355.5,347.5 C 359.796,347.588 360.129,349.421 356.5,353C 354.794,363.112 348.461,367.945 337.5,367.5C 337.5,365.833 337.5,364.167 337.5,362.5C 348.407,363.252 354.407,358.252 355.5,347.5 Z"/></g>
<g><path style="opacity:1" fill="#484646" d="M 401.5,360.5 C 402.763,380.64 406.929,400.306 414,419.5C 417.154,422.652 419.487,426.319 421,430.5C 425.857,447.161 428.857,464.161 430,481.5C 430.761,484.053 431.594,486.553 432.5,489C 431.833,490.333 431.167,491.667 430.5,493C 424.137,493.247 417.804,493.747 411.5,494.5C 409.272,493.781 407.439,492.448 406,490.5C 406.023,485.993 406.523,481.493 407.5,477C 405.746,468.152 403.913,459.319 402,450.5C 391.731,428.514 381.564,406.514 371.5,384.5C 373.006,383.253 374.506,383.253 376,384.5C 384.845,403.691 394.345,422.524 404.5,441C 406.701,441.825 408.534,441.325 410,439.5C 410.667,437.167 410.667,434.833 410,432.5C 401.606,414.046 392.94,395.712 384,377.5C 383.793,373.911 383.293,370.411 382.5,367C 389.226,365.526 395.56,363.36 401.5,360.5 Z"/></g>
<g><path style="opacity:1" fill="#464545" d="M 323.5,370.5 C 327.729,374.801 330.062,380.134 330.5,386.5C 341.5,385.666 352.5,385.166 363.5,385C 355.333,393.833 347.167,402.667 339,411.5C 335.645,418.512 332.312,425.512 329,432.5C 327.231,438.781 327.898,444.781 331,450.5C 331.333,461.5 331.667,472.5 332,483.5C 334.392,487.637 334.892,491.97 333.5,496.5C 325.982,498.958 320.482,496.291 317,488.5C 316.174,491.793 315.674,495.126 315.5,498.5C 312.041,497.564 309.207,495.564 307,492.5C 306.706,480.477 306.039,468.477 305,456.5C 302.42,445.287 300.253,433.953 298.5,422.5C 303.636,403.563 311.969,386.23 323.5,370.5 Z"/></g>
<g><path style="opacity:1" fill="#880015" d="M 381.5,378.5 C 389.187,392.706 396.52,407.206 403.5,422C 402,423.5 400.5,425 399,426.5C 391.577,411.987 384.41,397.32 377.5,382.5C 379.188,381.479 380.521,380.145 381.5,378.5 Z"/></g>
<g><path style="opacity:1" fill="#fec90d" d="M 404.5,425.5 C 406.808,429.497 408.141,433.83 408.5,438.5C 404.248,437.582 401.582,434.916 400.5,430.5C 401.857,428.814 403.19,427.148 404.5,425.5 Z"/></g>
<g><path style="opacity:1" fill="#c2c3c2" d="M 318.5,498.5 C 321.861,499.203 322.194,500.537 319.5,502.5C 317.358,501.563 317.024,500.23 318.5,498.5 Z"/></g>
<g><path style="opacity:1" fill="#c2c3c2" d="M 318.5,504.5 C 321.861,505.203 322.194,506.537 319.5,508.5C 317.358,507.563 317.024,506.23 318.5,504.5 Z"/></g>
<g><path style="opacity:1" fill="#c2c3c2" d="M 317.5,511.5 C 320.861,512.203 321.194,513.537 318.5,515.5C 316.358,514.563 316.024,513.23 317.5,511.5 Z"/></g>
</svg>
