<?xml version="1.0" encoding="UTF-8"?>
<!DOCTYPE svg PUBLIC "-//W3C//DTD SVG 1.1//EN" "http://www.w3.org/Graphics/SVG/1.1/DTD/svg11.dtd">
<svg xmlns="http://www.w3.org/2000/svg" version="1.1" width="736px" height="668px" style="shape-rendering:geometricPrecision; text-rendering:geometricPrecision; image-rendering:optimizeQuality; fill-rule:evenodd; clip-rule:evenodd" xmlns:xlink="http://www.w3.org/1999/xlink">
<g><path style="opacity:1" fill="#fefffe" d="M 507.5,124.5 C 511.846,124.334 516.179,124.501 520.5,125C 523.001,127.139 525.168,129.639 527,132.5C 528.527,138.415 528.861,144.415 528,150.5C 526.192,155.753 524.192,160.753 522,165.5C 530.718,168.561 538.718,172.894 546,178.5C 546.667,183.5 546.667,188.5 546,193.5C 543.83,205.683 541.663,217.85 539.5,230C 539.321,234.435 540.154,238.601 542,242.5C 544.775,245.654 547.942,246.154 551.5,244C 561.865,242.515 571.865,243.681 581.5,247.5C 585.327,252.472 587.493,258.139 588,264.5C 593.107,270.128 596.107,276.795 597,284.5C 600.442,304.816 603.775,325.149 607,345.5C 609.307,349.284 611.474,353.118 613.5,357C 620.167,357.333 626.833,357.667 633.5,358C 635.624,359.122 637.457,360.622 639,362.5C 640.917,370.754 643.584,378.754 647,386.5C 647.667,391.833 647.667,397.167 647,402.5C 645.142,404.775 643.642,407.275 642.5,410C 637.374,413.513 631.708,415.347 625.5,415.5C 627.436,422.036 627.936,428.703 627,435.5C 621.722,437.717 616.222,439.217 610.5,440C 610.043,440.414 609.709,440.914 609.5,441.5C 612.897,446.477 614.231,451.977 613.5,458C 613.333,461.167 613.167,464.333 613,467.5C 611.497,471.172 609.997,474.838 608.5,478.5C 613.825,490.627 615.992,503.293 615,516.5C 603.045,523.24 590.211,525.406 576.5,523C 572.392,521.973 568.392,520.64 564.5,519C 563.631,513.125 563.298,507.292 563.5,501.5C 562.354,500.855 561.354,500.022 560.5,499C 554.917,498.809 549.417,498.309 544,497.5C 541.844,488.54 539.844,479.54 538,470.5C 529.607,470.511 521.107,470.345 512.5,470C 508.615,469.261 504.948,467.927 501.5,466C 493.874,459.909 489.541,452.075 488.5,442.5C 487.07,442.579 485.736,442.246 484.5,441.5C 484.167,444.167 483.833,446.833 483.5,449.5C 483.925,456.782 484.925,463.949 486.5,471C 486.72,474.116 486.053,476.95 484.5,479.5C 486.517,486.75 486.85,494.083 485.5,501.5C 484.069,501.977 482.736,502.643 481.5,503.5C 478.422,512.44 472.256,516.773 463,516.5C 441.111,514.684 419.278,512.85 397.5,511C 389.087,502.658 388.254,493.491 395,483.5C 395.903,482.299 397.069,481.465 398.5,481C 407.343,480.227 416.009,478.56 424.5,476C 419.557,474.408 417.557,470.908 418.5,465.5C 419.42,454.57 420.753,443.736 422.5,433C 419.551,419.348 418.385,405.515 419,391.5C 422.497,380.334 429.997,373.834 441.5,372C 458.716,369.113 475.882,368.947 493,371.5C 490.51,362.557 487.843,353.557 485,344.5C 472.463,349.791 459.629,354.291 446.5,358C 438.769,359.397 431.436,358.397 424.5,355C 410.441,343.611 400.275,329.444 394,312.5C 393.216,307.113 393.382,301.78 394.5,296.5C 392.115,294.113 389.448,292.113 386.5,290.5C 361.192,291.63 335.858,292.463 310.5,293C 309.122,294.713 307.455,296.047 305.5,297C 281.5,297.667 257.5,297.667 233.5,297C 231.416,295.252 229.416,293.418 227.5,291.5C 216.181,290.668 204.848,290.168 193.5,290C 192.833,289.333 192.167,288.667 191.5,288C 187.167,287.667 182.833,287.333 178.5,287C 178,286.5 177.5,286 177,285.5C 175.545,278.556 175.212,271.556 176,264.5C 176.5,264 177,263.5 177.5,263C 260.812,257.705 344.145,252.705 427.5,248C 438.839,247.801 450.173,247.801 461.5,248C 462.167,243.667 462.833,239.333 463.5,235C 459.481,233.909 456.314,231.742 454,228.5C 449.624,215.571 454.124,208.404 467.5,207C 468.428,206.612 469.095,205.945 469.5,205C 473.173,188.809 478.006,172.975 484,157.5C 485.123,154.751 486.623,152.251 488.5,150C 492.541,149.827 496.541,149.327 500.5,148.5C 501.599,142.504 502.766,136.504 504,130.5C 504.564,128.113 505.73,126.113 507.5,124.5 Z M 446.5,291.5 C 449.15,291.958 449.65,292.958 448,294.5C 446.961,293.756 446.461,292.756 446.5,291.5 Z"/></g>
<g><path style="opacity:1" fill="#000000" d="M 510.5,127.5 C 517.231,126.448 521.731,129.114 524,135.5C 526.099,141.614 525.766,147.614 523,153.5C 520.293,158.416 517.459,163.249 514.5,168C 525.113,170.224 534.613,174.724 543,181.5C 542.317,196.922 539.817,212.089 535.5,227C 535.915,233.387 537.082,239.554 539,245.5C 540.916,247.209 543.082,248.543 545.5,249.5C 552.926,246.778 560.592,245.945 568.5,247C 574.606,247.46 579.106,250.294 582,255.5C 583.313,259.42 584.313,263.42 585,267.5C 588.874,270.58 591.208,274.58 592,279.5C 596.539,302.4 600.539,325.4 604,348.5C 606.307,352.284 608.474,356.118 610.5,360C 628.818,355.21 638.652,362.044 640,380.5C 646.126,389.691 645.959,398.524 639.5,407C 634.11,410.907 628.11,412.407 621.5,411.5C 622.013,415.553 622.846,419.553 624,423.5C 624.667,426.5 624.667,429.5 624,432.5C 618.722,434.717 613.222,436.217 607.5,437C 606.642,438.57 605.975,440.237 605.5,442C 608.629,446.913 610.296,452.246 610.5,458C 610.333,460.167 610.167,462.333 610,464.5C 607.877,469.075 606.044,473.742 604.5,478.5C 609.622,489.611 612.122,501.278 612,513.5C 597.371,522.072 582.371,522.738 567,515.5C 566.645,509.77 567.145,504.103 568.5,498.5C 567.448,498.649 566.448,498.483 565.5,498C 563.451,495.407 561.285,492.907 559,490.5C 558.727,492.101 558.227,493.601 557.5,495C 553.909,495.789 550.409,495.622 547,494.5C 544.844,485.54 542.844,476.54 541,467.5C 540.612,466.572 539.945,465.905 539,465.5C 527.147,468.866 515.647,468.032 504.5,463C 496.874,456.909 492.541,449.075 491.5,439.5C 488.124,439.048 484.791,438.382 481.5,437.5C 479.812,448.847 480.478,460.013 483.5,471C 483.64,473.693 482.64,475.86 480.5,477.5C 482.816,484.382 483.483,491.382 482.5,498.5C 481.069,498.977 479.736,499.643 478.5,500.5C 476.124,508.391 470.958,512.724 463,513.5C 442.12,511.573 421.287,509.74 400.5,508C 392.176,501.731 391.343,494.565 398,486.5C 400.042,484.396 402.542,483.229 405.5,483C 413.348,482.717 421.015,481.384 428.5,479C 430.5,478.333 431.833,477 432.5,475C 429.048,473.774 425.715,472.274 422.5,470.5C 422.167,468.833 421.833,467.167 421.5,465.5C 422.974,454.684 424.307,443.85 425.5,433C 423.388,420.224 422.221,407.391 422,394.5C 425.497,383.334 432.997,376.834 444.5,375C 461.938,371.815 479.271,371.815 496.5,375C 497.167,374 497.833,373 498.5,372C 493.992,361.474 490.325,350.641 487.5,339.5C 473.151,345.561 458.484,350.727 443.5,355C 437.732,356.225 432.399,355.225 427.5,352C 414.927,341.706 405.094,329.206 398,314.5C 394.963,307.082 396.13,300.582 401.5,295C 396.825,292.664 392.492,289.831 388.5,286.5C 386.224,287.213 383.891,287.713 381.5,288C 356.833,288.667 332.167,289.333 307.5,290C 306.122,291.713 304.455,293.047 302.5,294C 280.5,294.667 258.5,294.667 236.5,294C 234.416,292.252 232.416,290.418 230.5,288.5C 219.181,287.668 207.848,287.168 196.5,287C 195.833,286.333 195.167,285.667 194.5,285C 190.167,284.667 185.833,284.333 181.5,284C 179.926,282.174 179.093,280.007 179,277.5C 178.333,274.167 178.333,270.833 179,267.5C 179.5,267 180,266.5 180.5,266C 266.15,260.612 351.816,255.445 437.5,250.5C 444.694,250.919 451.861,251.586 459,252.5C 462.714,251.131 466.547,250.464 470.5,250.5C 470.374,247.532 468.874,245.532 466,244.5C 465.833,243.5 465.667,242.5 465.5,241.5C 466.28,238.607 467.613,235.94 469.5,233.5C 466.076,231.705 462.576,230.038 459,228.5C 455.257,222.855 455.757,217.689 460.5,213C 463.774,211.798 467.107,210.798 470.5,210C 471.428,209.612 472.095,208.945 472.5,208C 476.173,191.809 481.006,175.975 487,160.5C 489.694,152.284 494.861,150.284 502.5,154.5C 504.229,147.578 505.729,140.578 507,133.5C 507.564,131.113 508.73,129.113 510.5,127.5 Z M 446.5,291.5 C 446.461,292.756 446.961,293.756 448,294.5C 449.65,292.958 449.15,291.958 446.5,291.5 Z"/></g>
<g><path style="opacity:1" fill="#22b14b" d="M 509.5,172.5 C 509.158,173.338 508.492,173.672 507.5,173.5C 505.592,168.689 505.092,163.689 506,158.5C 507.055,150.784 508.388,143.118 510,135.5C 510.427,132.058 512.26,130.558 515.5,131C 522.594,136.613 524.094,143.447 520,151.5C 515.946,158.274 512.446,165.274 509.5,172.5 Z"/></g>
<g><path style="opacity:1" fill="#cbccba" d="M 490.5,171.5 C 491.167,174.5 491.833,177.5 492.5,180.5C 490.81,178.496 489.476,176.163 488.5,173.5C 488.855,172.478 489.522,171.811 490.5,171.5 Z"/></g>
<g><path style="opacity:1" fill="#191919" d="M 509.5,172.5 C 520.169,174.835 529.836,179.335 538.5,186C 536.455,198.723 533.455,211.223 529.5,223.5C 520.84,219.613 511.84,216.946 502.5,215.5C 503.363,204.557 505.03,193.89 507.5,183.5C 512.833,180.167 512.833,176.833 507.5,173.5C 508.492,173.672 509.158,173.338 509.5,172.5 Z"/></g>
<g><path style="opacity:1" fill="#cbccba" d="M 486.5,190.5 C 485.5,190.5 484.5,190.5 483.5,190.5C 483.833,188.5 484.167,186.5 484.5,184.5C 487.921,184.482 490.588,183.149 492.5,180.5C 493.721,179.972 494.887,179.305 496,178.5C 495.453,184.602 492.287,188.602 486.5,190.5 Z"/></g>
<g><path style="opacity:1" fill="#22b14b" d="M 482.5,206.5 C 481.5,206.5 480.5,206.5 479.5,206.5C 479.152,202.062 481.152,199.729 485.5,199.5C 492.466,195.242 497.3,189.242 500,181.5C 500.87,182.108 501.37,182.941 501.5,184C 498.958,189.648 496.791,195.481 495,201.5C 494.167,202.333 493.333,203.167 492.5,204C 489.009,204.738 485.675,205.571 482.5,206.5 Z"/></g>
<g><path style="opacity:1" fill="#2a2a2a" d="M 507.5,173.5 C 512.833,176.833 512.833,180.167 507.5,183.5C 506.417,183.461 505.417,183.127 504.5,182.5C 503.002,193.153 501.668,203.819 500.5,214.5C 496.836,214.64 493.336,213.973 490,212.5C 480.441,214.764 470.941,216.93 461.5,219C 462.167,218.333 462.833,217.667 463.5,217C 469.373,215.453 475.04,213.453 480.5,211C 479.027,210.29 478.36,209.124 478.5,207.5C 480.099,207.768 481.432,207.434 482.5,206.5C 485.675,205.571 489.009,204.738 492.5,204C 493.333,203.167 494.167,202.333 495,201.5C 496.791,195.481 498.958,189.648 501.5,184C 501.37,182.941 500.87,182.108 500,181.5C 497.3,189.242 492.466,195.242 485.5,199.5C 483.801,199.66 482.134,199.494 480.5,199C 481.867,196.699 482.534,194.199 482.5,191.5C 484.099,191.768 485.432,191.434 486.5,190.5C 492.287,188.602 495.453,184.602 496,178.5C 494.887,179.305 493.721,179.972 492.5,180.5C 491.833,177.5 491.167,174.5 490.5,171.5C 490.937,166.292 492.77,161.625 496,157.5C 502.211,161.415 504.711,166.915 503.5,174C 504.819,174.195 506.153,174.028 507.5,173.5 Z"/></g>
<g><path style="opacity:1" fill="#76442b" d="M 497.5,218.5 C 498.826,221.682 499.326,225.015 499,228.5C 497.629,230.041 496.129,231.375 494.5,232.5C 493.518,235.962 493.185,239.629 493.5,243.5C 491.741,248.791 488.241,250.791 483,249.5C 482.125,248.127 481.625,246.627 481.5,245C 482.798,240.26 484.465,235.76 486.5,231.5C 487.488,226.36 487.821,221.026 487.5,215.5C 491.819,216.035 496.152,216.535 500.5,217C 499.263,217.232 498.263,217.732 497.5,218.5 Z"/></g>
<g><path style="opacity:1" fill="#bd643a" d="M 486.5,223.5 C 484.833,224.5 483.5,225.833 482.5,227.5C 482.167,227.5 481.833,227.5 481.5,227.5C 479.833,228.167 478.167,228.833 476.5,229.5C 476.5,227.833 476.5,226.167 476.5,224.5C 480.888,223.183 481.221,221.849 477.5,220.5C 476.022,220.762 474.689,220.429 473.5,219.5C 477.574,217.674 481.907,216.674 486.5,216.5C 486.5,218.833 486.5,221.167 486.5,223.5 Z"/></g>
<g><path style="opacity:1" fill="#834b2f" d="M 507.5,229.5 C 507.172,225.307 505.505,221.641 502.5,218.5C 512.097,219.242 521.43,221.908 530.5,226.5C 532.241,230.204 532.407,233.871 531,237.5C 530.196,238.804 529.029,239.471 527.5,239.5C 520.506,236.67 513.84,233.337 507.5,229.5 Z"/></g>
<g><path style="opacity:1" fill="#fefffe" d="M 477.5,220.5 C 481.221,221.849 480.888,223.183 476.5,224.5C 476.062,224.565 475.728,224.399 475.5,224C 476.823,223.184 477.489,222.017 477.5,220.5 Z"/></g>
<g><path style="opacity:1" fill="#d29577" d="M 497.5,218.5 C 499.167,218.5 500.833,218.5 502.5,218.5C 505.505,221.641 507.172,225.307 507.5,229.5C 507.859,231.371 508.859,232.871 510.5,234C 514.5,236 518.5,238 522.5,240C 520.618,240.198 518.952,240.698 517.5,241.5C 506.128,245.868 497.128,253.201 490.5,263.5C 487.753,264.956 484.92,266.289 482,267.5C 480.285,266.396 478.785,265.062 477.5,263.5C 477.81,260.287 477.477,257.287 476.5,254.5C 476.5,253.5 476.5,252.5 476.5,251.5C 478.575,251.698 480.575,251.865 482.5,252C 480.038,250.784 477.371,250.118 474.5,250C 473.009,247.978 473.342,246.312 475.5,245C 472.629,244.869 470.295,243.703 468.5,241.5C 471.177,237.471 473.844,233.471 476.5,229.5C 478.167,228.833 479.833,228.167 481.5,227.5C 480.277,230.274 478.777,232.941 477,235.5C 476.294,237.971 476.627,240.305 478,242.5C 478.496,240.965 478.33,239.465 477.5,238C 479.593,234.649 481.26,231.149 482.5,227.5C 483.5,225.833 484.833,224.5 486.5,223.5C 486.5,226.167 486.5,228.833 486.5,231.5C 484.465,235.76 482.798,240.26 481.5,245C 481.625,246.627 482.125,248.127 483,249.5C 488.241,250.791 491.741,248.791 493.5,243.5C 494.434,242.432 494.768,241.099 494.5,239.5C 498.5,239.167 498.5,238.833 494.5,238.5C 494.5,236.5 494.5,234.5 494.5,232.5C 496.129,231.375 497.629,230.041 499,228.5C 499.326,225.015 498.826,221.682 497.5,218.5 Z"/></g>
<g><path style="opacity:1" fill="#000000" d="M 481.5,227.5 C 481.833,227.5 482.167,227.5 482.5,227.5C 481.26,231.149 479.593,234.649 477.5,238C 478.33,239.465 478.496,240.965 478,242.5C 476.627,240.305 476.294,237.971 477,235.5C 478.777,232.941 480.277,230.274 481.5,227.5 Z"/></g>
<g><path style="opacity:1" fill="#000000" d="M 494.5,232.5 C 494.5,234.5 494.5,236.5 494.5,238.5C 498.5,238.833 498.5,239.167 494.5,239.5C 494.768,241.099 494.434,242.432 493.5,243.5C 493.185,239.629 493.518,235.962 494.5,232.5 Z"/></g>
<g><path style="opacity:1" fill="#fefefe" d="M 530.5,243.5 C 522.232,245.424 514.232,248.257 506.5,252C 501.971,255.364 497.971,259.197 494.5,263.5C 493.764,265.229 492.43,266.229 490.5,266.5C 490.5,265.5 490.5,264.5 490.5,263.5C 497.128,253.201 506.128,245.868 517.5,241.5C 521.832,240.903 526.165,240.737 530.5,241C 534.236,242.507 534.236,243.34 530.5,243.5 Z"/></g>
<g><path style="opacity:1" fill="#fef200" d="M 530.5,243.5 C 531.209,244.404 532.209,244.737 533.5,244.5C 533.351,245.552 533.517,246.552 534,247.5C 536.09,249.416 537.923,251.416 539.5,253.5C 531.676,254.165 524.009,255.665 516.5,258C 512.106,259.582 508.439,262.082 505.5,265.5C 502.396,264.225 499.396,264.225 496.5,265.5C 495.167,265.5 494.5,264.833 494.5,263.5C 497.971,259.197 501.971,255.364 506.5,252C 514.232,248.257 522.232,245.424 530.5,243.5 Z"/></g>
<g><path style="opacity:1" fill="#eeefe1" d="M 557.5,250.5 C 563.444,250.314 569.11,251.481 574.5,254C 577.64,257.416 579.64,261.416 580.5,266C 577.386,263.912 574.386,261.245 571.5,258C 566.946,256.724 562.613,254.891 558.5,252.5C 557.702,252.043 557.369,251.376 557.5,250.5 Z"/></g>
<g><path style="opacity:1" fill="#472727" d="M 559.5,256.5 C 561.746,258.649 563.246,261.316 564,264.5C 564.24,294.205 563.24,323.872 561,353.5C 559.921,360.82 558.088,367.82 555.5,374.5C 554.883,374.611 554.383,374.944 554,375.5C 551.086,373.822 548.586,371.822 546.5,369.5C 549.447,360.71 551.614,351.71 553,342.5C 556.072,316.209 556.739,289.875 555,263.5C 554.769,259.019 552.603,256.019 548.5,254.5C 549.134,253.053 550.301,252.387 552,252.5C 555.023,252.927 557.523,254.261 559.5,256.5 Z"/></g>
<g><path style="opacity:1" fill="#dc9c7c" d="M 476.5,254.5 C 476.5,255.833 476.5,257.167 476.5,258.5C 472.038,258.034 467.705,257.034 463.5,255.5C 466.923,253.12 470.423,253.12 474,255.5C 474.902,255.257 475.735,254.923 476.5,254.5 Z"/></g>
<g><path style="opacity:1" fill="#fefefe" d="M 539.5,253.5 C 540.873,253.343 542.207,253.51 543.5,254C 542.584,254.278 541.918,254.778 541.5,255.5C 530.218,258.077 519.218,261.743 508.5,266.5C 507.5,266.5 506.5,266.5 505.5,266.5C 505.5,266.167 505.5,265.833 505.5,265.5C 508.439,262.082 512.106,259.582 516.5,258C 524.009,255.665 531.676,254.165 539.5,253.5 Z"/></g>
<g><path style="opacity:1" fill="#eeefe1" d="M 548.5,254.5 C 552.603,256.019 554.769,259.019 555,263.5C 556.739,289.875 556.072,316.209 553,342.5C 551.614,351.71 549.447,360.71 546.5,369.5C 543.976,369.957 541.309,369.957 538.5,369.5C 545.786,342.237 550.953,314.57 554,286.5C 554.702,277.797 554.368,269.13 553,260.5C 551.185,258.595 549.185,256.928 547,255.5C 546.395,253.365 546.895,253.031 548.5,254.5 Z"/></g>
<g><path style="opacity:1" fill="#c2c3c2" d="M 444.5,256.5 C 427.309,256.845 410.309,257.845 393.5,259.5C 387.642,259.178 381.975,259.511 376.5,260.5C 319.643,263.178 262.976,266.511 206.5,270.5C 203.15,270.335 199.817,270.502 196.5,271C 195.624,272.585 194.291,273.585 192.5,274C 189.183,274.498 185.85,274.665 182.5,274.5C 182.286,272.856 182.62,271.356 183.5,270C 268.159,264.723 352.826,259.556 437.5,254.5C 440.155,254.44 442.489,255.107 444.5,256.5 Z"/></g>
<g><path style="opacity:1" fill="#ec1c23" d="M 508.5,266.5 C 519.218,261.743 530.218,258.077 541.5,255.5C 542.822,255.67 543.989,255.337 545,254.5C 547.833,257.091 550.166,260.091 552,263.5C 552.905,275.596 552.238,287.596 550,299.5C 539.008,285.917 525.508,275.584 509.5,268.5C 508.702,268.043 508.369,267.376 508.5,266.5 Z"/></g>
<g><path style="opacity:1" fill="#eeefe1" d="M 559.5,256.5 C 559.56,255.957 559.893,255.624 560.5,255.5C 565.395,258.292 567.562,262.626 567,268.5C 567.818,285.211 567.652,301.878 566.5,318.5C 566.977,319.478 567.643,320.311 568.5,321C 567.441,342.45 566.275,363.95 565,385.5C 564.252,387.332 563.252,388.999 562,390.5C 560.49,384.782 558.324,379.449 555.5,374.5C 558.088,367.82 559.921,360.82 561,353.5C 563.24,323.872 564.24,294.205 564,264.5C 563.246,261.316 561.746,258.649 559.5,256.5 Z"/></g>
<g><path style="opacity:1" fill="#a66e4f" d="M 444.5,256.5 C 449.844,256.334 455.177,256.501 460.5,257C 465.662,258.916 470.996,260.083 476.5,260.5C 476.263,261.791 476.596,262.791 477.5,263.5C 478.785,265.062 480.285,266.396 482,267.5C 484.92,266.289 487.753,264.956 490.5,263.5C 490.5,264.5 490.5,265.5 490.5,266.5C 490.5,267.167 490.5,267.833 490.5,268.5C 485.715,270.736 481.382,273.736 477.5,277.5C 476.504,277.586 475.671,277.252 475,276.5C 474.667,275.167 474.333,273.833 474,272.5C 473.692,273.308 473.192,273.975 472.5,274.5C 469.964,274.156 467.797,273.156 466,271.5C 464.74,275.094 462.407,277.761 459,279.5C 457.108,276.61 456.275,276.944 456.5,280.5C 455.5,280.5 454.5,280.5 453.5,280.5C 453.649,279.448 453.483,278.448 453,277.5C 451.989,278.337 450.822,278.67 449.5,278.5C 449.167,278.5 448.833,278.5 448.5,278.5C 448.267,276.938 447.6,275.605 446.5,274.5C 445.295,273.314 443.961,273.314 442.5,274.5C 437.453,275.007 432.453,275.84 427.5,277C 426.244,277.417 425.577,278.25 425.5,279.5C 418.124,277.99 410.791,276.156 403.5,274C 398.623,270.624 394.623,266.457 391.5,261.5C 392.167,260.833 392.833,260.167 393.5,259.5C 410.309,257.845 427.309,256.845 444.5,256.5 Z"/></g>
<g><path style="opacity:1" fill="#ec1c23" d="M 567.5,258.5 C 570.414,259.906 572.914,261.906 575,264.5C 577.282,268.718 580.282,272.384 584,275.5C 585.197,278.089 586.197,280.756 587,283.5C 592.416,308.994 596.416,334.66 599,360.5C 590.111,346.278 580.444,332.612 570,319.5C 569.667,302.167 569.333,284.833 569,267.5C 568.637,264.456 568.137,261.456 567.5,258.5 Z"/></g>
<g><path style="opacity:1" fill="#000000" d="M 376.5,260.5 C 381.975,259.511 387.642,259.178 393.5,259.5C 392.833,260.167 392.167,260.833 391.5,261.5C 389.901,260.438 388.234,260.438 386.5,261.5C 383.375,260.521 380.042,260.187 376.5,260.5 Z"/></g>
<g><path style="opacity:1" fill="#a36c4d" d="M 376.5,260.5 C 380.042,260.187 383.375,260.521 386.5,261.5C 386.242,265.367 386.908,269.034 388.5,272.5C 388.935,275.613 387.935,276.279 385.5,274.5C 380.012,275.075 374.679,275.742 369.5,276.5C 332.682,278.517 295.682,279.851 258.5,280.5C 250.822,280.152 243.155,279.985 235.5,280C 234.5,281 233.5,282 232.5,283C 221.5,283.667 210.5,283.667 199.5,283C 197.571,279.744 197.071,276.244 198,272.5C 200.939,271.872 203.772,271.205 206.5,270.5C 262.976,266.511 319.643,263.178 376.5,260.5 Z"/></g>
<g><path style="opacity:1" fill="#dc9c7c" d="M 391.5,261.5 C 394.623,266.457 398.623,270.624 403.5,274C 410.791,276.156 418.124,277.99 425.5,279.5C 426.867,281.142 427.201,282.808 426.5,284.5C 419.045,284.981 412.545,287.648 407,292.5C 399.33,289.309 393.497,284.309 389.5,277.5C 389.784,275.585 389.451,273.919 388.5,272.5C 386.908,269.034 386.242,265.367 386.5,261.5C 388.234,260.438 389.901,260.438 391.5,261.5 Z"/></g>
<g><path style="opacity:1" fill="#000000" d="M 496.5,265.5 C 499.396,264.225 502.396,264.225 505.5,265.5C 505.5,265.833 505.5,266.167 505.5,266.5C 504.833,266.5 504.167,266.5 503.5,266.5C 501.393,265.532 499.059,265.198 496.5,265.5 Z"/></g>
<g><path style="opacity:1" fill="#101010" d="M 494.5,263.5 C 494.5,264.833 495.167,265.5 496.5,265.5C 494.819,267.008 492.819,268.008 490.5,268.5C 490.5,267.833 490.5,267.167 490.5,266.5C 492.43,266.229 493.764,265.229 494.5,263.5 Z"/></g>
<g><path style="opacity:1" fill="#bbbbbb" d="M 496.5,265.5 C 499.059,265.198 501.393,265.532 503.5,266.5C 498.352,268.105 493.352,270.105 488.5,272.5C 487.29,272.932 486.29,273.599 485.5,274.5C 483.833,276.833 481.833,278.833 479.5,280.5C 477.952,280.179 477.285,279.179 477.5,277.5C 481.382,273.736 485.715,270.736 490.5,268.5C 492.819,268.008 494.819,267.008 496.5,265.5 Z"/></g>
<g><path style="opacity:1" fill="#eeeee1" d="M 503.5,266.5 C 504.167,266.5 504.833,266.5 505.5,266.5C 506.028,267.721 506.695,268.887 507.5,270C 523.835,277.246 537.668,287.746 549,301.5C 549.14,307.239 548.473,312.906 547,318.5C 535.4,305.895 522.9,294.395 509.5,284C 502.955,280.56 496.288,277.394 489.5,274.5C 488.702,274.043 488.369,273.376 488.5,272.5C 493.352,270.105 498.352,268.105 503.5,266.5 Z"/></g>
<g><path style="opacity:1" fill="#c2c3c2" d="M 193.5,274.5 C 194.693,274.97 195.36,275.97 195.5,277.5C 195.333,278.5 195.167,279.5 195,280.5C 191.32,279.955 187.654,279.621 184,279.5C 183.316,278.216 183.483,277.049 184.5,276C 187.695,275.819 190.695,275.319 193.5,274.5 Z"/></g>
<g><path style="opacity:1" fill="#dbdcc2" d="M 442.5,274.5 C 442.191,277.346 440.525,278.846 437.5,279C 433.514,279.499 429.514,279.666 425.5,279.5C 425.577,278.25 426.244,277.417 427.5,277C 432.453,275.84 437.453,275.007 442.5,274.5 Z"/></g>
<g><path style="opacity:1" fill="#fec90d" d="M 446.5,274.5 C 447.6,275.605 448.267,276.938 448.5,278.5C 446.58,283.754 444.913,283.421 443.5,277.5C 443.516,275.484 444.516,274.484 446.5,274.5 Z"/></g>
<g><path style="opacity:1" fill="#ec1c23" d="M 485.5,274.5 C 497.088,279.627 508.088,285.794 518.5,293C 527.667,302.167 536.833,311.333 546,320.5C 546.667,322.5 546.667,324.5 546,326.5C 542.671,340.814 539.504,355.147 536.5,369.5C 531.845,369.117 527.512,370.117 523.5,372.5C 506.85,364.675 496.517,351.842 492.5,334C 495.563,329.931 498.23,325.598 500.5,321C 493.097,307.693 486.097,294.193 479.5,280.5C 481.833,278.833 483.833,276.833 485.5,274.5 Z"/></g>
<g><path style="opacity:1" fill="#eeefe1" d="M 466.5,275.5 C 471.265,275.427 474.599,277.594 476.5,282C 472.286,285.882 467.786,289.382 463,292.5C 460.729,289.88 460.062,286.88 461,283.5C 462.243,280.424 464.077,277.757 466.5,275.5 Z"/></g>
<g><path style="opacity:1" fill="#dbdcc2" d="M 369.5,276.5 C 375.167,276.5 380.833,276.5 386.5,276.5C 387.162,282.359 384.496,284.859 378.5,284C 352.636,284.56 326.802,285.394 301,286.5C 282.205,285.257 263.371,284.423 244.5,284C 244.957,283.586 245.291,283.086 245.5,282.5C 249.982,281.833 254.316,281.166 258.5,280.5C 295.682,279.851 332.682,278.517 369.5,276.5 Z"/></g>
<g><path style="opacity:1" fill="#fec90d" d="M 389.5,277.5 C 389.762,278.978 389.429,280.311 388.5,281.5C 387.369,279.926 387.202,278.259 388,276.5C 388.383,277.056 388.883,277.389 389.5,277.5 Z"/></g>
<g><path style="opacity:1" fill="#c2c3c2" d="M 448.5,278.5 C 448.833,278.5 449.167,278.5 449.5,278.5C 451.028,282.692 454.028,285.025 458.5,285.5C 452.472,287.15 449.139,284.817 448.5,278.5 Z"/></g>
<g><path style="opacity:1" fill="#fec90d" d="M 236.5,281.5 C 238.857,281.337 241.19,281.503 243.5,282C 241.167,283.833 238.833,285.667 236.5,287.5C 234.001,285.604 234.001,283.604 236.5,281.5 Z"/></g>
<g><path style="opacity:1" fill="#fefffe" d="M 440.5,282.5 C 443.989,284.381 447.322,286.547 450.5,289C 452.473,289.495 454.473,289.662 456.5,289.5C 456.649,290.552 456.483,291.552 456,292.5C 453.297,295.538 450.297,298.205 447,300.5C 443.44,294.551 439.274,289.051 434.5,284C 436.708,283.809 438.708,283.309 440.5,282.5 Z M 446.5,291.5 C 446.461,292.756 446.961,293.756 448,294.5C 449.65,292.958 449.15,291.958 446.5,291.5 Z"/></g>
<g><path style="opacity:1" fill="#ec1c23" d="M 411.5,323.5 C 416.595,317.231 421.928,311.064 427.5,305C 429.838,304.163 432.172,303.33 434.5,302.5C 436.851,303.173 439.184,303.84 441.5,304.5C 442.29,305.794 443.29,306.961 444.5,308C 438.204,312.129 433.537,317.629 430.5,324.5C 431.002,325.521 431.668,325.688 432.5,325C 435.443,319.789 439.11,315.122 443.5,311C 454.882,301.229 466.715,292.062 479,283.5C 485.438,296.209 492.271,308.709 499.5,321C 497.22,324.947 494.553,328.613 491.5,332C 474.036,338.731 456.37,344.898 438.5,350.5C 426.457,344.457 417.457,335.457 411.5,323.5 Z"/></g>
<g><path style="opacity:1" fill="#dbdcc2" d="M 242.5,285.5 C 252.839,285.334 263.172,285.5 273.5,286C 272.257,287.154 271.257,288.488 270.5,290C 260.172,290.5 249.839,290.666 239.5,290.5C 239.31,288.041 240.31,286.374 242.5,285.5 Z"/></g>
<g><path style="opacity:1" fill="#fec90d" d="M 274.5,286.5 C 277.5,286.5 280.5,286.5 283.5,286.5C 283.33,287.822 283.663,288.989 284.5,290C 280.459,290.827 276.459,290.66 272.5,289.5C 273.193,288.482 273.859,287.482 274.5,286.5 Z"/></g>
<g><path style="opacity:1" fill="#dbdcc2" d="M 284.5,286.5 C 290.577,286.196 296.577,286.696 302.5,288C 301.672,288.915 300.672,289.581 299.5,290C 295.167,290.667 290.833,290.667 286.5,290C 285.177,289.184 284.511,288.017 284.5,286.5 Z"/></g>
<g><path style="opacity:1" fill="#fefefe" d="M 429.5,288.5 C 432.277,290.951 434.277,293.951 435.5,297.5C 434.012,299.845 432.012,300.179 429.5,298.5C 427.44,295.76 425.774,292.76 424.5,289.5C 425.792,286.33 427.458,285.996 429.5,288.5 Z"/></g>
<g><path style="opacity:1" fill="#fef200" d="M 437.5,300.5 C 437.068,299.29 436.401,298.29 435.5,297.5C 434.277,293.951 432.277,290.951 429.5,288.5C 429.369,287.761 429.536,287.094 430,286.5C 434.104,290.548 437.604,295.048 440.5,300C 439.552,300.483 438.552,300.649 437.5,300.5 Z"/></g>
<g><path style="opacity:1" fill="#fef200" d="M 424.5,289.5 C 425.774,292.76 427.44,295.76 429.5,298.5C 429.5,299.167 429.5,299.833 429.5,300.5C 428.508,300.328 427.842,300.662 427.5,301.5C 426.022,300.552 425.022,299.219 424.5,297.5C 423.617,294.296 421.95,291.629 419.5,289.5C 421.134,286.849 422.801,286.849 424.5,289.5 Z"/></g>
<g><path style="opacity:1" fill="#fefefe" d="M 419.5,289.5 C 421.95,291.629 423.617,294.296 424.5,297.5C 424.5,299.5 424.5,301.5 424.5,303.5C 423.5,303.5 422.5,303.5 421.5,303.5C 417.426,301.382 414.759,298.049 413.5,293.5C 414.802,291.178 416.802,289.845 419.5,289.5 Z"/></g>
<g><path style="opacity:1" fill="#fef200" d="M 413.5,293.5 C 414.759,298.049 417.426,301.382 421.5,303.5C 421.5,304.167 421.5,304.833 421.5,305.5C 419.871,306.625 418.371,307.959 417,309.5C 414,305.5 411,301.5 408,297.5C 406.108,299.054 404.608,300.888 403.5,303C 404.953,306.072 406.787,308.905 409,311.5C 409.816,312.823 410.983,313.489 412.5,313.5C 412.833,314.167 413.167,314.833 413.5,315.5C 412.764,317.229 411.43,318.229 409.5,318.5C 407.952,314.402 406.119,310.402 404,306.5C 403.31,305.262 402.81,305.262 402.5,306.5C 401.503,306.53 400.836,306.03 400.5,305C 403.57,299.924 407.403,295.424 412,291.5C 412.278,292.416 412.778,293.082 413.5,293.5 Z"/></g>
<g><path style="opacity:1" fill="#000000" d="M 424.5,297.5 C 425.022,299.219 426.022,300.552 427.5,301.5C 426.71,302.401 425.71,303.068 424.5,303.5C 424.5,301.5 424.5,299.5 424.5,297.5 Z"/></g>
<g><path style="opacity:1" fill="#000000" d="M 435.5,297.5 C 436.401,298.29 437.068,299.29 437.5,300.5C 434.833,300.5 432.167,300.5 429.5,300.5C 429.5,299.833 429.5,299.167 429.5,298.5C 432.012,300.179 434.012,299.845 435.5,297.5 Z"/></g>
<g><path style="opacity:1" fill="#fefefe" d="M 421.5,305.5 C 422.71,305.068 423.71,304.401 424.5,303.5C 425.71,303.068 426.71,302.401 427.5,301.5C 427.842,300.662 428.508,300.328 429.5,300.5C 432.167,300.5 434.833,300.5 437.5,300.5C 438.609,301.29 439.942,301.79 441.5,302C 442.774,302.977 442.774,303.811 441.5,304.5C 439.184,303.84 436.851,303.173 434.5,302.5C 432.172,303.33 429.838,304.163 427.5,305C 421.928,311.064 416.595,317.231 411.5,323.5C 410.075,325.031 409.409,324.698 409.5,322.5C 410.405,321.036 410.405,319.702 409.5,318.5C 411.43,318.229 412.764,317.229 413.5,315.5C 416.239,312.977 415.906,312.31 412.5,313.5C 410.983,313.489 409.816,312.823 409,311.5C 406.787,308.905 404.953,306.072 403.5,303C 404.608,300.888 406.108,299.054 408,297.5C 411,301.5 414,305.5 417,309.5C 418.371,307.959 419.871,306.625 421.5,305.5 Z"/></g>
<g><path style="opacity:1" fill="#000000" d="M 421.5,303.5 C 422.5,303.5 423.5,303.5 424.5,303.5C 423.71,304.401 422.71,305.068 421.5,305.5C 421.5,304.833 421.5,304.167 421.5,303.5 Z"/></g>
<g><path style="opacity:1" fill="#fefefe" d="M 409.5,318.5 C 410.405,319.702 410.405,321.036 409.5,322.5C 404.369,318.252 402.036,312.919 402.5,306.5C 402.81,305.262 403.31,305.262 404,306.5C 406.119,310.402 407.952,314.402 409.5,318.5 Z"/></g>
<g><path style="opacity:1" fill="#fefefe" d="M 409.5,318.5 C 410.405,319.702 410.405,321.036 409.5,322.5C 404.369,318.252 402.036,312.919 402.5,306.5C 402.81,305.262 403.31,305.262 404,306.5C 406.119,310.402 407.952,314.402 409.5,318.5 Z"/></g>
<g><path style="opacity:1" fill="#000000" d="M 413.5,315.5 C 413.167,314.833 412.833,314.167 412.5,313.5C 415.906,312.31 416.239,312.977 413.5,315.5 Z"/></g>
<g><path style="opacity:1" fill="#eeefe1" d="M 569.5,323.5 C 579.913,335.469 589.246,348.302 597.5,362C 595.109,362.287 592.776,362.787 590.5,363.5C 584.978,354.471 578.145,346.471 570,339.5C 569.501,334.177 569.334,328.844 569.5,323.5 Z"/></g>
<g><path style="opacity:1" fill="#ec1c23" d="M 580.5,364.5 C 577.876,360.915 576.043,356.915 575,352.5C 573.483,350.76 571.983,349.094 570.5,347.5C 569.527,345.932 569.36,344.265 570,342.5C 577.152,348.478 582.985,355.478 587.5,363.5C 585.257,364.474 582.924,364.808 580.5,364.5 Z"/></g>
<g><path style="opacity:1" fill="#e0e0e0" d="M 570.5,347.5 C 571.983,349.094 573.483,350.76 575,352.5C 576.043,356.915 577.876,360.915 580.5,364.5C 582.292,365.309 584.292,365.809 586.5,366C 584.545,366.953 582.878,368.287 581.5,370C 579.618,370.198 577.952,370.698 576.5,371.5C 574.585,371.216 572.919,371.549 571.5,372.5C 571.158,373.338 570.492,373.672 569.5,373.5C 568.167,371.167 568.167,368.833 569.5,366.5C 571.777,367.371 574.11,367.038 576.5,365.5C 575,362.5 573.5,359.5 572,356.5C 570.589,358.65 569.755,360.984 569.5,363.5C 568.352,359.019 568.185,354.352 569,349.5C 569.278,348.584 569.778,347.918 570.5,347.5 Z"/></g>
<g><path style="opacity:1" fill="#eeefe1" d="M 600.5,352.5 C 602.852,355.531 604.352,358.865 605,362.5C 603.644,361.62 602.144,361.286 600.5,361.5C 600.5,358.5 600.5,355.5 600.5,352.5 Z"/></g>
<g><path style="opacity:1" fill="#eeefe1" d="M 498.5,355.5 C 499.458,355.953 500.292,356.619 501,357.5C 502.667,361.167 504.333,364.833 506,368.5C 509,371.5 512,374.5 515,377.5C 514.554,380.739 513.221,383.739 511,386.5C 506.845,376.185 502.678,365.852 498.5,355.5 Z"/></g>
<g><path style="opacity:1" fill="#661a18" d="M 569.5,366.5 C 569.5,365.5 569.5,364.5 569.5,363.5C 569.755,360.984 570.589,358.65 572,356.5C 573.5,359.5 575,362.5 576.5,365.5C 574.11,367.038 571.777,367.371 569.5,366.5 Z"/></g>
<g><path style="opacity:1" fill="#191a19" d="M 598.5,363.5 C 608.913,363.918 619.247,364.752 629.5,366C 631.894,367.952 633.394,370.452 634,373.5C 635.015,380.862 637.182,387.862 640.5,394.5C 640.167,395.167 639.833,395.833 639.5,396.5C 626.887,398.943 614.22,399.11 601.5,397C 599.203,388.02 597.703,378.853 597,369.5C 596.439,368.978 595.772,368.645 595,368.5C 591.396,370.595 587.563,371.428 583.5,371C 587.8,366.85 592.8,364.35 598.5,363.5 Z"/></g>
<g><path style="opacity:1" fill="#5a3130" d="M 507.5,365.5 C 512.018,368.505 516.684,371.338 521.5,374C 520.328,376.055 518.661,376.722 516.5,376C 512.893,372.902 509.893,369.402 507.5,365.5 Z"/></g>
<g><path style="opacity:1" fill="#2f302f" d="M 594.5,369.5 C 595.117,369.611 595.617,369.944 596,370.5C 596.617,379.867 598.117,389.033 600.5,398C 598.667,399.833 596.833,401.667 595,403.5C 590.752,395.595 589.086,387.262 590,378.5C 589.028,376.695 587.861,375.028 586.5,373.5C 589.348,372.341 592.015,371.008 594.5,369.5 Z"/></g>
<g><path style="opacity:1" fill="#00a1e8" d="M 530.5,371.5 C 546.87,369.175 556.87,376.008 560.5,392C 552.137,410.268 538.804,414.935 520.5,406C 510.691,395.071 511.358,384.738 522.5,375C 525.309,373.907 527.976,372.74 530.5,371.5 Z"/></g>
<g><path style="opacity:1" fill="#ec1c23" d="M 576.5,371.5 C 583.281,372.012 587.281,375.678 588.5,382.5C 588.274,384.189 587.941,385.855 587.5,387.5C 588.425,392.681 589.925,397.681 592,402.5C 592.105,411.48 593.272,420.314 595.5,429C 592.684,431.379 589.351,432.545 585.5,432.5C 582.407,412.181 579.407,391.848 576.5,371.5 Z"/></g>
<g><path style="opacity:1" fill="#000000" d="M 549.5,401.5 C 547.747,403.223 545.747,404.723 543.5,406C 537.167,406.667 530.833,406.667 524.5,406C 520.928,404.376 518.094,401.876 516,398.5C 512.868,384.964 518.034,376.464 531.5,373C 541.601,371.019 549.601,374.185 555.5,382.5C 557.132,388.047 556.632,393.381 554,398.5C 552.871,400.141 551.371,401.141 549.5,401.5 Z"/></g>
<g><path style="opacity:1" fill="#ec1c23" d="M 571.5,372.5 C 572.5,372.5 573.5,372.5 574.5,372.5C 577.5,392.497 580.5,412.497 583.5,432.5C 580.5,432.5 577.5,432.5 574.5,432.5C 574.76,416.149 572.093,400.316 566.5,385C 566.815,380.883 567.815,377.049 569.5,373.5C 570.492,373.672 571.158,373.338 571.5,372.5 Z"/></g>
<g><path style="opacity:1" fill="#00a1e8" d="M 549.5,401.5 C 546.91,402.128 544.577,403.295 542.5,405C 536.833,405.667 531.167,405.667 525.5,405C 516.478,400.304 513.978,393.137 518,383.5C 530.265,370.188 542.432,370.188 554.5,383.5C 556.858,390.646 555.191,396.646 549.5,401.5 Z"/></g>
<g><path style="opacity:1" fill="#b7c6c6" d="M 528.5,426.5 C 530.167,427.833 531.833,427.833 533.5,426.5C 534.434,425.432 534.768,424.099 534.5,422.5C 540.243,421.652 545.909,420.819 551.5,420C 540.538,433.509 528.205,435.175 514.5,425C 509,419.5 503.5,414 498,408.5C 498.842,399.447 500.342,390.447 502.5,381.5C 501.051,379.392 501.551,377.725 504,376.5C 504.899,380.538 506.566,384.205 509,387.5C 506.254,403.509 512.087,415.009 526.5,422C 527.099,423.622 527.766,425.122 528.5,426.5 Z"/></g>
<g><path style="opacity:1" fill="#737473" d="M 492.5,413.5 C 482.561,406.856 472.228,400.689 461.5,395C 457.404,392.741 453.071,391.741 448.5,392C 465.264,398.965 480.598,408.131 494.5,419.5C 494.827,424.544 494.494,429.544 493.5,434.5C 487.285,433.373 481.285,431.539 475.5,429C 471.207,421.581 467.04,414.081 463,406.5C 461.71,404.208 460.043,402.208 458,400.5C 457.333,401.5 457.333,402.5 458,403.5C 460.043,405.208 461.71,407.208 463,409.5C 466.943,417.722 471.109,425.722 475.5,433.5C 470.539,429.707 466.039,425.373 462,420.5C 458.09,412.263 452.424,405.597 445,400.5C 445.112,402.178 445.612,403.845 446.5,405.5C 445.388,407.631 443.888,407.631 442,405.5C 441.935,408.198 443.102,410.364 445.5,412C 450.435,414.606 455.102,417.606 459.5,421C 464.094,427.097 469.428,432.264 475.5,436.5C 475.334,445.839 475.5,455.173 476,464.5C 476.21,467.234 477.044,469.734 478.5,472C 460.951,476.366 443.951,474.866 427.5,467.5C 427.167,467 426.833,466.5 426.5,466C 431.811,444.171 431.811,422.338 426.5,400.5C 428.454,390.716 434.121,384.216 443.5,381C 455.404,378.676 467.404,377.676 479.5,378C 486.524,379.205 493.524,380.538 500.5,382C 498.188,391.369 496.354,400.869 495,410.5C 494.764,412.119 493.931,413.119 492.5,413.5 Z"/></g>
<g><path style="opacity:1" fill="#b8c8c7" d="M 564.5,390.5 C 566.41,391.975 567.576,393.975 568,396.5C 571.53,413.313 572.864,430.313 572,447.5C 566.933,452.225 561.099,455.725 554.5,458C 543.978,459.337 533.478,460.837 523,462.5C 517.852,462.005 513.018,460.505 508.5,458C 504.618,453.786 501.118,449.286 498,444.5C 496.287,433.535 496.121,422.535 497.5,411.5C 503.683,417.517 510.017,423.351 516.5,429C 522.697,433.303 529.364,434.636 536.5,433C 545.807,429.362 552.974,423.195 558,414.5C 562.044,407.088 564.211,399.088 564.5,390.5 Z"/></g>
<g><path style="opacity:1" fill="#5a3130" d="M 532.5,421.5 C 523.194,419.42 516.36,414.086 512,405.5C 510.797,396.438 511.797,395.771 515,403.5C 526.34,413.786 538.84,415.286 552.5,408C 556.115,404.381 558.949,400.214 561,395.5C 561.882,403.15 559.716,409.817 554.5,415.5C 547.324,418.134 539.991,420.134 532.5,421.5 Z"/></g>
<g><path style="opacity:1" fill="#2f302f" d="M 601.5,398.5 C 613.501,399.789 625.501,399.789 637.5,398.5C 637.714,400.144 637.38,401.644 636.5,403C 631.595,406.704 626.095,408.204 620,407.5C 612.432,407.252 604.932,406.418 597.5,405C 597.167,404.667 596.833,404.333 596.5,404C 598.373,402.296 600.04,400.463 601.5,398.5 Z"/></g>
<g><path style="opacity:1" fill="#2f302f" d="M 475.5,433.5 C 475.5,434.5 475.5,435.5 475.5,436.5C 469.428,432.264 464.094,427.097 459.5,421C 455.102,417.606 450.435,414.606 445.5,412C 443.102,410.364 441.935,408.198 442,405.5C 443.888,407.631 445.388,407.631 446.5,405.5C 445.612,403.845 445.112,402.178 445,400.5C 452.424,405.597 458.09,412.263 462,420.5C 466.039,425.373 470.539,429.707 475.5,433.5 Z"/></g>
<g><path style="opacity:1" fill="#222222" d="M 492.5,413.5 C 494.081,415.142 494.747,417.142 494.5,419.5C 480.598,408.131 465.264,398.965 448.5,392C 453.071,391.741 457.404,392.741 461.5,395C 472.228,400.689 482.561,406.856 492.5,413.5 Z"/></g>
<g><path style="opacity:1" fill="#ec1c23" d="M 609.5,413.5 C 610.862,419.233 612.529,424.9 614.5,430.5C 613.085,431.289 611.585,431.956 610,432.5C 607.702,431.039 605.535,429.372 603.5,427.5C 601.271,428.577 598.937,429.244 596.5,429.5C 594.463,421.614 593.63,413.614 594,405.5C 598.574,407.55 603.408,408.717 608.5,409C 609.38,410.356 609.714,411.856 609.5,413.5 Z"/></g>
<g><path style="opacity:1" fill="#fefffe" d="M 612.5,414.5 C 611.058,413.18 610.392,411.514 610.5,409.5C 612.467,409.261 614.301,409.594 616,410.5C 617.422,416.355 618.922,422.188 620.5,428C 620.167,428.5 619.833,429 619.5,429.5C 618.316,424.725 616.816,420.058 615,415.5C 614.329,414.748 613.496,414.414 612.5,414.5 Z"/></g>
<g><path style="opacity:1" fill="#b31c23" d="M 609.5,413.5 C 610.391,414.11 611.391,414.443 612.5,414.5C 615.854,419.235 617.52,424.568 617.5,430.5C 616.5,430.5 615.5,430.5 614.5,430.5C 612.529,424.9 610.862,419.233 609.5,413.5 Z"/></g>
<g><path style="opacity:1" fill="#fec90d" d="M 532.5,421.5 C 533.301,423.042 533.634,424.708 533.5,426.5C 531.833,427.833 530.167,427.833 528.5,426.5C 527.756,423.05 529.09,421.384 532.5,421.5 Z"/></g>
<g><path style="opacity:1" fill="#737473" d="M 600.5,430.5 C 601.552,430.351 602.552,430.517 603.5,431C 601.235,434.83 600.068,438.997 600,443.5C 598.13,440.982 595.63,439.648 592.5,439.5C 586.247,438.586 580.414,439.92 575,443.5C 574.502,440.518 574.335,437.518 574.5,434.5C 579.844,434.666 585.177,434.499 590.5,434C 594.109,433.299 597.442,432.132 600.5,430.5 Z"/></g>
<g><path style="opacity:1" fill="#2d2d2d" d="M 602.5,463.5 C 602.843,461.517 602.176,460.183 600.5,459.5C 599.158,455.675 597.991,451.675 597,447.5C 595.859,445.391 594.359,443.558 592.5,442C 598.185,443.684 602.019,447.518 604,453.5C 604.875,454.873 605.375,456.373 605.5,458C 604.701,462.1 603.201,465.934 601,469.5C 600.257,467.126 600.757,465.126 602.5,463.5 Z"/></g>
<g><path style="opacity:1" fill="#2f302f" d="M 569.5,451.5 C 569.97,459.444 571.136,467.444 573,475.5C 572,474.5 571,473.5 570,472.5C 568.422,467.022 566.922,461.522 565.5,456C 566.604,454.285 567.938,452.785 569.5,451.5 Z"/></g>
<g><path style="opacity:1" fill="#737473" d="M 562.5,456.5 C 564.774,461.894 566.607,467.56 568,473.5C 569.833,475.333 571.667,477.167 573.5,479C 572.826,483.869 571.826,488.702 570.5,493.5C 560.984,484.472 555.817,473.472 555,460.5C 557.769,459.534 560.269,458.201 562.5,456.5 Z"/></g>
<g><path style="opacity:1" fill="#fec90d" d="M 600.5,459.5 C 602.176,460.183 602.843,461.517 602.5,463.5C 600.824,462.817 600.157,461.483 600.5,459.5 Z"/></g>
<g><path style="opacity:1" fill="#272727" d="M 583.5,441.5 C 588.691,441.676 592.524,444.009 595,448.5C 596.677,454.408 597.844,460.408 598.5,466.5C 590.5,466.833 590.5,467.167 598.5,467.5C 599.223,474.171 600.056,480.837 601,487.5C 604.023,494.429 606.19,501.596 607.5,509C 596.438,516.557 584.938,517.391 573,511.5C 574.046,497.549 574.88,483.549 575.5,469.5C 577.199,469.66 578.866,469.494 580.5,469C 578.236,468.764 576.069,468.264 574,467.5C 570.875,459.889 571.375,452.556 575.5,445.5C 578.259,444.121 580.925,442.787 583.5,441.5 Z"/></g>
<g><path style="opacity:1" fill="#2e2e2e" d="M 438.5,474.5 C 450.436,476.746 462.436,477.079 474.5,475.5C 475.833,481.832 477.166,488.166 478.5,494.5C 462.57,498.993 446.57,499.16 430.5,495C 427.203,492.705 424.203,490.038 421.5,487C 425.867,485.793 430.2,484.459 434.5,483C 436.697,480.579 438.03,477.745 438.5,474.5 Z"/></g>
<g><path style="opacity:1" fill="#fec90d" d="M 452.5,479.5 C 456.095,480.905 456.262,482.572 453,484.5C 452.167,483.667 451.333,482.833 450.5,482C 451.381,481.292 452.047,480.458 452.5,479.5 Z"/></g>
<g><path style="opacity:1" fill="#fec90d" d="M 549.5,479.5 C 550.5,479.5 551.5,479.5 552.5,479.5C 553.368,493.995 552.368,493.995 549.5,479.5 Z"/></g>
<g><path style="opacity:1" fill="#272827" d="M 409.5,487.5 C 412.85,487.335 416.183,487.502 419.5,488C 422.167,490.667 424.833,493.333 427.5,496C 431.346,497.536 435.346,498.369 439.5,498.5C 439.326,500.861 438.993,503.194 438.5,505.5C 427.055,505.504 415.722,504.671 404.5,503C 402.259,501.261 400.592,499.094 399.5,496.5C 401.022,491.303 404.355,488.303 409.5,487.5 Z"/></g>
<g><path style="opacity:1" fill="#fec90d" d="M 449.5,491.5 C 450.978,491.238 452.311,491.571 453.5,492.5C 452.68,494.111 451.346,494.778 449.5,494.5C 449.5,493.5 449.5,492.5 449.5,491.5 Z"/></g>
<g><path style="opacity:1" fill="#272827" d="M 468.5,498.5 C 469.873,498.343 471.207,498.51 472.5,499C 470.753,502.834 468.086,505.834 464.5,508C 458.508,507.779 452.508,507.112 446.5,506C 447.5,504.333 448.5,502.667 449.5,501C 455.977,500.138 462.311,499.305 468.5,498.5 Z"/></g>
</svg>
