<?xml version="1.0" encoding="UTF-8"?>
<!DOCTYPE svg PUBLIC "-//W3C//DTD SVG 1.1//EN" "http://www.w3.org/Graphics/SVG/1.1/DTD/svg11.dtd">
<svg xmlns="http://www.w3.org/2000/svg" version="1.1" width="591px" height="600px" style="shape-rendering:geometricPrecision; text-rendering:geometricPrecision; image-rendering:optimizeQuality; fill-rule:evenodd; clip-rule:evenodd" xmlns:xlink="http://www.w3.org/1999/xlink">
<g><path style="opacity:1" fill="#fefffe" d="M 260.5,65.5 C 265.844,65.334 271.177,65.5006 276.5,66C 287.347,69.9494 292.013,77.7827 290.5,89.5C 293.292,89.4521 295.125,90.7854 296,93.5C 296.587,97.9279 297.587,102.261 299,106.5C 301.684,112.53 304.35,118.53 307,124.5C 307.351,129.198 307.851,133.864 308.5,138.5C 311.518,138.335 314.518,138.502 317.5,139C 318,139.5 318.5,140 319,140.5C 319.667,144.5 319.667,148.5 319,152.5C 318.075,153.047 317.242,153.713 316.5,154.5C 317.407,166.533 317.74,178.533 317.5,190.5C 322.316,192.155 327.316,192.988 332.5,193C 335.652,196.154 339.319,198.487 343.5,200C 354.905,212.001 356.572,225.335 348.5,240C 349.973,248.785 351.473,257.618 353,266.5C 353.487,269.798 354.653,272.798 356.5,275.5C 381.5,259.333 406.5,243.167 431.5,227C 433.429,223.758 436.095,221.258 439.5,219.5C 440.029,216.743 441.029,214.243 442.5,212C 469.994,193.086 497.661,174.419 525.5,156C 529.821,155.501 534.154,155.334 538.5,155.5C 538.666,159.846 538.499,164.179 538,168.5C 534.667,173.167 531.333,177.833 528,182.5C 508.715,196.784 489.715,211.451 471,226.5C 470.667,228.5 470.333,230.5 470,232.5C 467.104,235.454 465.771,239.121 466,243.5C 451.666,250.013 438.333,258.346 426,268.5C 424.601,271.363 423.601,274.363 423,277.5C 407.732,287.221 391.898,296.054 375.5,304C 369.757,308.621 363.924,313.121 358,317.5C 357.821,320.553 357.321,323.553 356.5,326.5C 355.264,327.246 353.93,327.579 352.5,327.5C 352.822,329.722 352.155,331.556 350.5,333C 347.879,333.939 345.212,334.772 342.5,335.5C 346.809,341.101 348.476,347.434 347.5,354.5C 344.28,372.774 341.113,391.108 338,409.5C 338.464,418.823 338.797,428.157 339,437.5C 338.602,440.232 337.102,442.065 334.5,443C 336.992,449.806 339.492,456.639 342,463.5C 345.572,483.583 337.406,490.75 317.5,485C 315.608,484.027 313.608,483.36 311.5,483C 309.065,477.296 306.231,471.796 303,466.5C 300.933,463.93 298.433,461.93 295.5,460.5C 293.699,451.357 294.699,442.524 298.5,434C 298.37,432.941 297.87,432.108 297,431.5C 296.186,423.587 296.353,415.754 297.5,408C 294.242,407.788 291.076,407.288 288,406.5C 286.017,394.395 287.184,382.562 291.5,371C 289.326,371.937 286.993,372.771 284.5,373.5C 284.5,374.5 284.5,375.5 284.5,376.5C 278.026,379.91 272.026,384.077 266.5,389C 264.196,393.774 262.029,398.608 260,403.5C 259.645,409.608 258.645,415.608 257,421.5C 254.48,427.865 251.98,434.198 249.5,440.5C 240.852,441.466 232.186,441.632 223.5,441C 221.391,439.859 219.558,438.359 218,436.5C 214.225,428.728 211.059,420.728 208.5,412.5C 206.618,411.907 204.785,411.24 203,410.5C 202.333,406.167 202.333,401.833 203,397.5C 207.084,396.339 210.75,394.339 214,391.5C 214.834,380.805 215.667,370.138 216.5,359.5C 215.301,354.101 212.801,349.434 209,345.5C 204.167,340 199.333,334.5 194.5,329C 192.481,328.55 190.648,327.717 189,326.5C 185.443,315.698 184.776,304.698 187,293.5C 191.644,278.256 195.978,262.923 200,247.5C 200.667,244.167 200.667,240.833 200,237.5C 197.966,235.302 197.132,232.636 197.5,229.5C 197.244,225.877 198.077,222.544 200,219.5C 200.477,211.484 201.144,203.484 202,195.5C 203.353,193.12 204.519,190.62 205.5,188C 204.372,178.535 204.205,169.035 205,159.5C 205.5,157.667 206.667,156.5 208.5,156C 214.231,155.567 219.898,154.734 225.5,153.5C 226.712,150.698 228.379,148.198 230.5,146C 233.482,145.502 236.482,145.335 239.5,145.5C 237.816,137.583 237.316,129.583 238,121.5C 241,119.167 244,116.833 247,114.5C 246.969,106.38 250.469,100.38 257.5,96.5C 256.139,94.9716 254.972,93.3049 254,91.5C 253.333,85.1667 253.333,78.8333 254,72.5C 255.694,69.6424 257.861,67.309 260.5,65.5 Z"/></g>
<g><path style="opacity:1" fill="#010101" d="M 262.5,67.5 C 280.495,65.4973 289.162,73.4973 288.5,91.5C 291.292,91.4521 293.125,92.7854 294,95.5C 294.587,99.9279 295.587,104.261 297,108.5C 299.684,114.53 302.35,120.53 305,126.5C 305.351,131.198 305.851,135.864 306.5,140.5C 315.49,138.325 318.99,141.658 317,150.5C 313.141,151.89 312.475,154.224 315,157.5C 315.79,168.935 315.457,180.268 314,191.5C 315.419,192.46 316.919,193.293 318.5,194C 322.5,194.333 326.5,194.667 330.5,195C 333.652,198.154 337.319,200.487 341.5,202C 349.215,208.813 352.382,217.313 351,227.5C 349.074,231.517 347.574,235.684 346.5,240C 347.869,253.344 350.202,266.511 353.5,279.5C 357.381,278.226 361.048,276.393 364.5,274C 387.329,258.751 410.329,243.751 433.5,229C 435.429,225.758 438.095,223.258 441.5,221.5C 442.029,218.743 443.029,216.243 444.5,214C 471.994,195.086 499.661,176.419 527.5,158C 530.482,157.502 533.482,157.335 536.5,157.5C 536.665,160.518 536.498,163.518 536,166.5C 532.167,171.667 528.333,176.833 524.5,182C 505.715,195.783 487.215,209.95 469,224.5C 468.667,226.5 468.333,228.5 468,230.5C 465.104,233.454 463.771,237.121 464,241.5C 449.666,248.013 436.333,256.346 424,266.5C 422.601,269.363 421.601,272.363 421,275.5C 405.732,285.221 389.898,294.054 373.5,302C 367.757,306.621 361.924,311.121 356,315.5C 355.821,318.553 355.321,321.553 354.5,324.5C 353.264,325.246 351.93,325.579 350.5,325.5C 349.801,331.208 346.468,333.541 340.5,332.5C 340.714,334.144 340.38,335.644 339.5,337C 344.18,341.872 346.18,347.706 345.5,354.5C 342.02,372.07 338.853,389.737 336,407.5C 335.583,416.891 335.916,426.224 337,435.5C 336.667,436.5 336.333,437.5 336,438.5C 334.197,439.313 332.697,440.48 331.5,442C 334.188,449.877 337.021,457.711 340,465.5C 342.249,481.572 335.416,487.405 319.5,483C 317.608,482.027 315.608,481.36 313.5,481C 311.065,475.296 308.231,469.796 305,464.5C 302.933,461.93 300.433,459.93 297.5,458.5C 296.341,454.878 296.175,451.211 297,447.5C 298.715,443.14 299.882,438.64 300.5,434C 298.23,425.34 297.896,416.506 299.5,407.5C 299.333,406.5 299.167,405.5 299,404.5C 291.416,407.7 287.916,405.2 288.5,397C 289.947,387.046 291.947,377.213 294.5,367.5C 294.167,366.5 293.5,365.833 292.5,365.5C 290.406,367.596 288.073,369.429 285.5,371C 284.552,371.483 283.552,371.649 282.5,371.5C 282.5,372.5 282.5,373.5 282.5,374.5C 276.026,377.91 270.026,382.077 264.5,387C 262.196,391.774 260.029,396.608 258,401.5C 257.645,407.608 256.645,413.608 255,419.5C 252.48,425.865 249.98,432.198 247.5,438.5C 240.185,439.415 232.852,439.582 225.5,439C 220.78,436.08 217.613,431.913 216,426.5C 214.702,421.606 213.202,416.773 211.5,412C 209.733,410.174 207.566,409.007 205,408.5C 204.333,405.5 204.333,402.5 205,399.5C 209.084,398.339 212.75,396.339 216,393.5C 217.167,381.166 217.833,368.832 218,356.5C 216.967,351.433 214.634,347.1 211,343.5C 206.167,338 201.333,332.5 196.5,327C 194.481,326.55 192.648,325.717 191,324.5C 187.013,313.624 186.68,302.624 190,291.5C 194.348,276.437 198.848,261.437 203.5,246.5C 202.738,242.889 202.238,239.222 202,235.5C 200.054,234.006 199.221,232.006 199.5,229.5C 200.252,225.325 201.585,221.325 203.5,217.5C 201.83,213.386 202.163,209.553 204.5,206C 203.39,203.263 203.223,200.429 204,197.5C 205.862,194.606 207.028,191.44 207.5,188C 206.436,179.186 206.269,170.353 207,161.5C 207.5,159.667 208.667,158.5 210.5,158C 216.231,157.567 221.898,156.734 227.5,155.5C 228.712,152.698 230.379,150.198 232.5,148C 235.482,147.502 238.482,147.335 241.5,147.5C 242.658,142.748 242.158,138.081 240,133.5C 239.333,130.167 239.333,126.833 240,123.5C 243,121.167 246,118.833 249,116.5C 249.259,111.785 250.593,107.452 253,103.5C 256.078,101.045 259.244,98.7113 262.5,96.5C 256.837,93.3389 254.503,88.5055 255.5,82C 254.518,75.4652 256.852,70.6318 262.5,67.5 Z"/></g>
<g><path style="opacity:1" fill="#028a0f" d="M 266.5,72.5 C 276.676,74.153 282.343,80.153 283.5,90.5C 283.43,91.7716 283.097,92.9383 282.5,94C 279.167,95.1667 275.833,96.3333 272.5,97.5C 268.579,94.2738 265.079,90.6072 262,86.5C 259.793,80.5921 261.293,75.9254 266.5,72.5 Z"/></g>
<g><path style="opacity:1" fill="#fec90d" d="M 282.5,108.5 C 283.265,109.66 284.265,110.66 285.5,111.5C 286.086,111.291 286.586,110.957 287,110.5C 286.805,112.126 286.805,113.793 287,115.5C 291.886,119.502 294.719,124.502 295.5,130.5C 295.333,132.5 295.167,134.5 295,136.5C 294.311,137.357 293.478,138.023 292.5,138.5C 287.886,136.206 283.886,133.206 280.5,129.5C 281.18,125.084 282.18,120.751 283.5,116.5C 282.352,114.851 281.019,113.351 279.5,112C 280.448,111.517 281.448,111.351 282.5,111.5C 282.5,110.5 282.5,109.5 282.5,108.5 Z"/></g>
<g><path style="opacity:1" fill="#028a0f" d="M 254.5,135.5 C 254.216,137.415 254.549,139.081 255.5,140.5C 255.5,143.5 255.5,146.5 255.5,149.5C 253.784,149.629 252.117,149.962 250.5,150.5C 250.143,145.92 249.976,141.253 250,136.5C 249.814,138.9 249.314,141.234 248.5,143.5C 248.167,142.333 247.833,141.167 247.5,140C 248.781,135.254 249.615,130.421 250,125.5C 252,124.167 254,124.167 256,125.5C 255.765,128.117 254.932,130.617 253.5,133C 253.528,134.07 253.861,134.903 254.5,135.5 Z"/></g>
<g><path style="opacity:1" fill="#028a0f" d="M 247.5,125.5 C 248.742,128.74 248.576,132.074 247,135.5C 246.014,133.222 245.18,130.889 244.5,128.5C 245.34,127.265 246.34,126.265 247.5,125.5 Z"/></g>
<g><path style="opacity:1" fill="#028a0f" d="M 299.5,135.5 C 298.662,135.158 298.328,134.492 298.5,133.5C 297.445,130.927 297.278,128.261 298,125.5C 298.934,128.136 299.768,130.803 300.5,133.5C 300.457,134.416 300.124,135.083 299.5,135.5 Z"/></g>
<g><path style="opacity:1" fill="#028a0f" d="M 259.5,127.5 C 259.833,128.167 260.167,128.833 260.5,129.5C 259.18,130.942 257.514,131.608 255.5,131.5C 256.402,129.659 257.736,128.326 259.5,127.5 Z"/></g>
<g><path style="opacity:1" fill="#272727" d="M 283.5,139.5 C 282.833,139.833 282.167,140.167 281.5,140.5C 280.972,141.721 280.305,142.887 279.5,144C 279.833,144.167 280.167,144.333 280.5,144.5C 283.5,143.167 286.5,143.167 289.5,144.5C 292.644,143.427 295.644,142.093 298.5,140.5C 301.084,141.048 302.084,142.715 301.5,145.5C 304.85,145.335 308.183,145.502 311.5,146C 311.167,146.333 310.833,146.667 310.5,147C 301.833,149.171 293.5,152.171 285.5,156C 278.471,157.507 271.471,159.174 264.5,161C 261.633,161.801 258.966,161.634 256.5,160.5C 257.429,159.685 258.429,158.852 259.5,158C 257.798,155.765 256.798,153.265 256.5,150.5C 256.813,146.958 256.479,143.625 255.5,140.5C 254.549,139.081 254.216,137.415 254.5,135.5C 254.232,133.901 254.566,132.568 255.5,131.5C 257.514,131.608 259.18,130.942 260.5,129.5C 260.167,128.833 259.833,128.167 259.5,127.5C 257.934,124.259 255.267,122.759 251.5,123C 252.333,122.167 253.167,121.333 254,120.5C 254.259,115.785 255.593,111.452 258,107.5C 261.833,105 265.667,102.5 269.5,100C 274.639,99.4308 279.639,98.2641 284.5,96.5C 286.766,96.9308 288.266,98.2642 289,100.5C 290.249,107.849 292.249,114.849 295,121.5C 293.207,118.705 291.04,116.205 288.5,114C 289.591,111.936 289.758,109.769 289,107.5C 286.111,107.674 283.278,107.007 280.5,105.5C 280.5,106.833 280.5,108.167 280.5,109.5C 278.654,109.222 277.32,109.889 276.5,111.5C 278.488,113.309 279.822,115.476 280.5,118C 279.283,122.792 278.783,127.625 279,132.5C 282.253,134.543 285.42,136.71 288.5,139C 286.866,139.494 285.199,139.66 283.5,139.5 Z"/></g>
<g><path style="opacity:1" fill="#028a0f" d="M 260.5,129.5 C 263.215,130.048 265.215,131.548 266.5,134C 266.266,135.732 265.266,136.566 263.5,136.5C 261.962,136.547 260.962,135.88 260.5,134.5C 259.527,134.013 258.527,133.513 257.5,133C 259.426,132.578 260.426,131.411 260.5,129.5 Z"/></g>
<g><path style="opacity:1" fill="#000000" d="M 260.5,134.5 C 260.783,133.711 261.283,133.044 262,132.5C 262.528,133.816 262.028,134.483 260.5,134.5 Z"/></g>
<g><path style="opacity:1" fill="#028a0f" d="M 270.5,135.5 C 269.154,138.174 267.154,139.174 264.5,138.5C 266.535,137.403 267.868,135.737 268.5,133.5C 269.522,133.855 270.189,134.522 270.5,135.5 Z"/></g>
<g><path style="opacity:1" fill="#028a0f" d="M 298.5,133.5 C 298.328,134.492 298.662,135.158 299.5,135.5C 300.734,137.398 300.401,139.065 298.5,140.5C 295.644,142.093 292.644,143.427 289.5,144.5C 286.5,143.167 283.5,143.167 280.5,144.5C 280.167,144.333 279.833,144.167 279.5,144C 280.305,142.887 280.972,141.721 281.5,140.5C 282.167,140.167 282.833,139.833 283.5,139.5C 287.311,140.645 291.311,140.812 295.5,140C 296.926,137.955 297.926,135.788 298.5,133.5 Z"/></g>
<g><path style="opacity:1" fill="#028a0f" d="M 270.5,135.5 C 271.71,135.932 272.71,136.599 273.5,137.5C 272.609,138.261 271.942,139.261 271.5,140.5C 270.045,141.745 268.711,141.578 267.5,140C 269.863,139.411 270.863,137.911 270.5,135.5 Z"/></g>
<g><path style="opacity:1" fill="#028a0f" d="M 273.5,137.5 C 274.675,137.281 275.675,137.614 276.5,138.5C 275.82,139.86 275.153,141.193 274.5,142.5C 273.624,142.631 272.957,142.298 272.5,141.5C 273.246,140.264 273.579,138.93 273.5,137.5 Z"/></g>
<g><path style="opacity:1" fill="#028a0f" d="M 281.5,140.5 C 280.078,140.75 279.078,141.583 278.5,143C 276.934,143.765 275.601,143.598 274.5,142.5C 276.257,141.708 277.591,140.375 278.5,138.5C 279.739,138.942 280.739,139.609 281.5,140.5 Z"/></g>
<g><path style="opacity:1" fill="#028a0f" d="M 250.5,150.5 C 250.217,151.289 249.717,151.956 249,152.5C 245.349,149.982 245.016,147.316 248,144.5C 248.566,146.723 249.4,148.723 250.5,150.5 Z"/></g>
<g><path style="opacity:1" fill="#028a0f" d="M 256.5,150.5 C 256.798,153.265 257.798,155.765 259.5,158C 258.429,158.852 257.429,159.685 256.5,160.5C 254.833,160.5 253.167,160.5 251.5,160.5C 250.791,159.596 249.791,159.263 248.5,159.5C 247.659,157.621 247.325,155.621 247.5,153.5C 250.366,152.241 253.366,151.241 256.5,150.5 Z"/></g>
<g><path style="opacity:1" fill="#f7763e" d="M 296.5,158.5 C 295.041,158.433 293.708,158.766 292.5,159.5C 291.048,158.698 289.382,158.198 287.5,158C 292.895,155.146 298.562,152.979 304.5,151.5C 304.649,152.552 304.483,153.552 304,154.5C 302.951,153.483 301.784,153.316 300.5,154C 298.365,154.876 297.031,156.376 296.5,158.5 Z"/></g>
<g><path style="opacity:1" fill="#fefffe" d="M 236.5,152.5 C 239.325,152.081 241.491,153.081 243,155.5C 243.498,158.817 243.665,162.15 243.5,165.5C 238.867,167.384 235.034,166.384 232,162.5C 233.159,159.124 234.659,155.79 236.5,152.5 Z"/></g>
<g><path style="opacity:1" fill="#f2a482" d="M 302.5,176.5 C 301.041,176.433 299.708,176.766 298.5,177.5C 297.5,177.833 296.833,178.5 296.5,179.5C 293.894,180.85 293.894,182.35 296.5,184C 298.5,184.667 300.5,184.667 302.5,184C 303.056,183.617 303.389,183.117 303.5,182.5C 306.421,185.888 306.088,188.888 302.5,191.5C 295.872,192.424 289.206,192.757 282.5,192.5C 279.047,191.857 275.881,190.524 273,188.5C 272.235,188.57 271.735,188.903 271.5,189.5C 267.142,187.644 263.475,184.81 260.5,181C 262.506,181.15 264.506,181.65 266.5,182.5C 267.167,183.833 267.833,183.833 268.5,182.5C 270.446,181.965 271.446,180.632 271.5,178.5C 274.728,179.414 278.061,179.747 281.5,179.5C 281.649,178.448 281.483,177.448 281,176.5C 278.743,174.954 276.576,173.288 274.5,171.5C 273.607,168.916 273.274,166.249 273.5,163.5C 275.415,163.784 277.081,163.451 278.5,162.5C 279.93,162.421 281.264,162.754 282.5,163.5C 283.333,162.5 284.167,161.5 285,160.5C 286.114,164.456 286.947,164.456 287.5,160.5C 289.216,160.371 290.883,160.038 292.5,159.5C 293.708,158.766 295.041,158.433 296.5,158.5C 297.117,158.611 297.617,158.944 298,159.5C 299.347,155.625 300.514,155.625 301.5,159.5C 302.167,158.167 302.833,156.833 303.5,155.5C 304.187,157.274 305.02,158.941 306,160.5C 305.913,165.473 305.579,170.473 305,175.5C 304.329,176.252 303.496,176.586 302.5,176.5 Z"/></g>
<g><path style="opacity:1" fill="#4e4e4e" d="M 248.5,159.5 C 249.791,159.263 250.791,159.596 251.5,160.5C 252.209,161.404 253.209,161.737 254.5,161.5C 255.055,167.154 255.555,172.82 256,178.5C 257.615,180.011 257.615,181.344 256,182.5C 255.503,185.146 255.336,187.813 255.5,190.5C 251.574,190.047 248.408,191.38 246,194.5C 245.833,194 245.667,193.5 245.5,193C 246.723,189.606 247.39,186.106 247.5,182.5C 245.691,173.915 245.191,165.249 246,156.5C 246.236,158.119 247.069,159.119 248.5,159.5 Z"/></g>
<g><path style="opacity:1" fill="#4e4f4e" d="M 306.5,156.5 C 308.41,157.975 309.576,159.975 310,162.5C 310.167,165.167 310.333,167.833 310.5,170.5C 310.778,176.107 309.778,181.44 307.5,186.5C 306.149,184.556 305.482,182.389 305.5,180C 306.837,172.153 307.171,164.319 306.5,156.5 Z"/></g>
<g><path style="opacity:1" fill="#f7763e" d="M 278.5,162.5 C 277.081,163.451 275.415,163.784 273.5,163.5C 273.414,162.504 273.748,161.671 274.5,161C 277.126,160.005 279.793,159.672 282.5,160C 280.934,160.608 279.6,161.442 278.5,162.5 Z"/></g>
<g><path style="opacity:1" fill="#000000" d="M 297.5,161.5 C 297.56,160.957 297.893,160.624 298.5,160.5C 300.333,162.833 302.167,165.167 304,167.5C 304.72,169.112 304.554,170.612 303.5,172C 299.967,172.903 296.633,172.57 293.5,171C 296.856,171.515 300.189,171.015 303.5,169.5C 301.059,167.074 299.059,164.407 297.5,161.5 Z"/></g>
<g><path style="opacity:1" fill="#4e4f4e" d="M 237.5,187.5 C 235.59,188.975 234.424,190.975 234,193.5C 228.562,198.741 223.728,198.075 219.5,191.5C 218.997,184.127 218.164,176.794 217,169.5C 216.027,167.36 214.527,165.693 212.5,164.5C 213.025,163.808 213.692,163.308 214.5,163C 218.514,162.61 222.514,162.11 226.5,161.5C 236.242,167.645 239.908,176.312 237.5,187.5 Z"/></g>
<g><path style="opacity:1" fill="#623e28" d="M 270.5,161.5 C 272.227,164.738 273.227,168.405 273.5,172.5C 275.833,174.333 278.167,176.167 280.5,178C 278.167,178.667 275.833,178.667 273.5,178C 269.018,174.522 265.684,170.188 263.5,165C 261.064,165.053 258.731,164.887 256.5,164.5C 261.388,163.893 266.054,162.893 270.5,161.5 Z"/></g>
<g><path style="opacity:1" fill="#adadad" d="M 527.5,164.5 C 528.239,164.369 528.906,164.536 529.5,165C 526.257,168.821 523.257,172.821 520.5,177C 499.697,191.724 479.697,207.39 460.5,224C 461.672,224.419 462.672,225.085 463.5,226C 461.415,227.041 459.748,228.541 458.5,230.5C 456.305,231.769 454.139,231.769 452,230.5C 450.667,228.5 449.333,226.5 448,224.5C 447.257,222.559 447.424,220.726 448.5,219C 475.248,201.304 501.581,183.138 527.5,164.5 Z"/></g>
<g><path style="opacity:1" fill="#e79b7b" d="M 271.5,178.5 C 270.026,179.436 269.026,180.77 268.5,182.5C 267.833,183.833 267.167,183.833 266.5,182.5C 263.196,180.027 260.362,177.027 258,173.5C 256.315,168.731 257.815,166.231 262.5,166C 264.556,170.883 267.556,175.05 271.5,178.5 Z"/></g>
<g><path style="opacity:1" fill="#4e4f4e" d="M 211.5,167.5 C 212.496,167.414 213.329,167.748 214,168.5C 214.973,170.392 215.64,172.392 216,174.5C 217.044,184.153 217.377,193.82 217,203.5C 216.586,203.957 216.086,204.291 215.5,204.5C 212.698,199.645 212.031,194.478 213.5,189C 211.942,181.918 211.276,174.751 211.5,167.5 Z"/></g>
<g><path style="opacity:1" fill="#fefffe" d="M 236.5,169.5 C 238.56,168.189 240.726,168.189 243,169.5C 246.149,177.857 246.149,186.19 243,194.5C 241.95,197.24 240.117,198.74 237.5,199C 240.112,191.386 240.946,183.553 240,175.5C 239.576,172.975 238.41,170.975 236.5,169.5 Z"/></g>
<g><path style="opacity:1" fill="#000000" d="M 263.5,172.5 C 264.885,173.574 266.051,174.907 267,176.5C 267.667,177.167 267.667,177.833 267,178.5C 265.053,176.937 263.886,174.937 263.5,172.5 Z"/></g>
<g><path style="opacity:1" fill="#fefffe" d="M 302.5,176.5 C 302.611,177.117 302.944,177.617 303.5,178C 301.613,178.78 299.946,178.613 298.5,177.5C 299.708,176.766 301.041,176.433 302.5,176.5 Z"/></g>
<g><path style="opacity:1" fill="#000000" d="M 271.5,178.5 C 271.446,180.632 270.446,181.965 268.5,182.5C 269.026,180.77 270.026,179.436 271.5,178.5 Z"/></g>
<g><path style="opacity:1" fill="#520e0b" d="M 296.5,179.5 C 299.247,179.187 301.914,179.52 304.5,180.5C 304.137,181.183 303.804,181.85 303.5,182.5C 303.389,183.117 303.056,183.617 302.5,184C 300.5,184.667 298.5,184.667 296.5,184C 293.894,182.35 293.894,180.85 296.5,179.5 Z"/></g>
<g><path style="opacity:1" fill="#fefffe" d="M 259.5,200.5 C 261.975,203.241 264.975,205.241 268.5,206.5C 269.568,207.434 270.901,207.768 272.5,207.5C 272.784,205.585 272.451,203.919 271.5,202.5C 268.418,195.895 263.918,190.228 258,185.5C 257.409,184.517 257.743,183.85 259,183.5C 263.394,186.95 267.894,190.283 272.5,193.5C 274.631,199.024 276.298,204.691 277.5,210.5C 272.248,211.079 267.248,209.912 262.5,207C 261.36,205.027 260.027,203.193 258.5,201.5C 258.624,200.893 258.957,200.56 259.5,200.5 Z"/></g>
<g><path style="opacity:1" fill="#2c2d2c" d="M 237.5,187.5 C 237.611,188.117 237.944,188.617 238.5,189C 237.249,191.925 236.249,194.925 235.5,198C 230.291,199.759 225.124,201.592 220,203.5C 219.501,199.514 219.334,195.514 219.5,191.5C 223.728,198.075 228.562,198.741 234,193.5C 234.424,190.975 235.59,188.975 237.5,187.5 Z"/></g>
<g><path style="opacity:1" fill="#3138ba" d="M 271.5,202.5 C 271.5,203.833 271.5,205.167 271.5,206.5C 270.5,206.5 269.5,206.5 268.5,206.5C 264.975,205.241 261.975,203.241 259.5,200.5C 254.907,196.812 254.407,192.479 258,187.5C 262.985,192.195 267.485,197.195 271.5,202.5 Z"/></g>
<g><path style="opacity:1" fill="#f7763e" d="M 282.5,192.5 C 286.312,193.324 290.312,193.824 294.5,194C 288.804,194.257 283.137,194.757 277.5,195.5C 275.493,193.467 273.493,191.467 271.5,189.5C 271.735,188.903 272.235,188.57 273,188.5C 275.881,190.524 279.047,191.857 282.5,192.5 Z"/></g>
<g><path style="opacity:1" fill="#910c11" d="M 259.5,206.5 C 259.167,206.5 258.833,206.5 258.5,206.5C 255.02,203.215 253.186,199.215 253,194.5C 254.994,198.643 257.161,202.643 259.5,206.5 Z"/></g>
<g><path style="opacity:1" fill="#353184" d="M 297.5,199.5 C 295.252,203.254 292.419,206.588 289,209.5C 287.413,206.817 288.247,204.817 291.5,203.5C 292.906,203.027 293.573,202.027 293.5,200.5C 294.962,199.542 296.295,198.376 297.5,197C 296.833,196.667 296.167,196.333 295.5,196C 301.22,193.977 301.887,195.143 297.5,199.5 Z"/></g>
<g><path style="opacity:1" fill="#fefffe" d="M 306.5,199.5 C 306.167,198.5 305.5,197.833 304.5,197.5C 303.602,196.842 302.602,196.176 301.5,195.5C 304.086,194.79 306.086,195.79 307.5,198.5C 307.376,199.107 307.043,199.44 306.5,199.5 Z"/></g>
<g><path style="opacity:1" fill="#860014" d="M 274.5,234.5 C 273.833,235.833 272.833,236.833 271.5,237.5C 261.358,228.16 253.191,217.16 247,204.5C 246.182,201.773 246.348,199.106 247.5,196.5C 248.609,195.41 249.609,195.41 250.5,196.5C 256.969,209.935 265.302,222.102 275.5,233C 274.944,233.383 274.611,233.883 274.5,234.5 Z"/></g>
<g><path style="opacity:1" fill="#121647" d="M 279.5,196.5 C 283.514,196.334 287.514,196.501 291.5,197C 288.047,202.121 284.214,206.954 280,211.5C 278.896,207.145 277.729,202.812 276.5,198.5C 277.602,197.824 278.602,197.158 279.5,196.5 Z"/></g>
<g><path style="opacity:1" fill="#2f33a5" d="M 304.5,197.5 C 304.5,198.833 305.167,199.5 306.5,199.5C 308.18,201.726 307.847,203.393 305.5,204.5C 304.026,203.564 303.026,202.23 302.5,200.5C 302.285,198.821 302.952,197.821 304.5,197.5 Z"/></g>
<g><path style="opacity:1" fill="#000000" d="M 304.5,197.5 C 305.5,197.833 306.167,198.5 306.5,199.5C 305.167,199.5 304.5,198.833 304.5,197.5 Z"/></g>
<g><path style="opacity:1" fill="#fefffe" d="M 309.5,197.5 C 311.746,198.455 314.079,199.122 316.5,199.5C 317.701,205.389 319.034,211.222 320.5,217C 320.022,224.878 319.189,232.711 318,240.5C 316.951,242.107 315.451,242.773 313.5,242.5C 313.175,236.279 311.842,230.446 309.5,225C 310.766,215.83 310.766,206.663 309.5,197.5 Z"/></g>
<g><path style="opacity:1" fill="#fefffe" d="M 243.5,198.5 C 244.314,200.631 244.814,202.964 245,205.5C 247.034,209.52 249.034,213.52 251,217.5C 252.237,227.388 251.404,237.055 248.5,246.5C 246.257,247.474 243.924,247.808 241.5,247.5C 241.666,238.827 241.5,230.16 241,221.5C 238.361,215.42 236.861,209.087 236.5,202.5C 239.614,202.445 241.948,201.112 243.5,198.5 Z"/></g>
<g><path style="opacity:1" fill="#fefffe" d="M 293.5,200.5 C 292.833,200.833 292.167,201.167 291.5,201.5C 292.032,198.54 292.699,198.207 293.5,200.5 Z"/></g>
<g><path style="opacity:1" fill="#fefffe" d="M 297.5,199.5 C 298.376,199.369 299.043,199.702 299.5,200.5C 296.69,205.144 293.023,208.977 288.5,212C 286.5,212.667 284.5,212.667 282.5,212C 284.926,207.963 287.926,204.463 291.5,201.5C 291.5,202.167 291.5,202.833 291.5,203.5C 288.247,204.817 287.413,206.817 289,209.5C 292.419,206.588 295.252,203.254 297.5,199.5 Z"/></g>
<g><path style="opacity:1" fill="#fefffe" d="M 330.5,237.5 C 330.5,237.833 330.5,238.167 330.5,238.5C 328.973,238.427 327.973,239.094 327.5,240.5C 325.973,240.427 324.973,241.094 324.5,242.5C 323.624,242.631 322.957,242.298 322.5,241.5C 324.123,227.58 324.957,213.58 325,199.5C 326,200.5 327,201.5 328,202.5C 327.85,214.543 328.684,226.21 330.5,237.5 Z"/></g>
<g><path style="opacity:1" fill="#2c2d2c" d="M 233.5,200.5 C 234.239,200.369 234.906,200.536 235.5,201C 232.577,203.045 229.743,205.212 227,207.5C 226.517,208.448 226.351,209.448 226.5,210.5C 222.424,210.68 218.591,211.68 215,213.5C 214.694,211.049 215.194,208.716 216.5,206.5C 222.416,204.863 228.083,202.863 233.5,200.5 Z"/></g>
<g><path style="opacity:1" fill="#000000" d="M 293.5,200.5 C 293.573,202.027 292.906,203.027 291.5,203.5C 291.5,202.833 291.5,202.167 291.5,201.5C 292.167,201.167 292.833,200.833 293.5,200.5 Z"/></g>
<g><path style="opacity:1" fill="#e8e8e8" d="M 302.5,200.5 C 303.026,202.23 304.026,203.564 305.5,204.5C 306.209,205.404 307.209,205.737 308.5,205.5C 308.737,206.791 308.404,207.791 307.5,208.5C 305.706,207.767 304.039,206.767 302.5,205.5C 301.662,205.158 301.328,204.492 301.5,203.5C 301.586,202.504 301.252,201.671 300.5,201C 301.094,200.536 301.761,200.369 302.5,200.5 Z"/></g>
<g><path style="opacity:1" fill="#000000" d="M 271.5,202.5 C 272.451,203.919 272.784,205.585 272.5,207.5C 270.901,207.768 269.568,207.434 268.5,206.5C 269.5,206.5 270.5,206.5 271.5,206.5C 271.5,205.167 271.5,203.833 271.5,202.5 Z"/></g>
<g><path style="opacity:1" fill="#ec1c23" d="M 301.5,203.5 C 301.328,204.492 301.662,205.158 302.5,205.5C 300.611,209.202 298.944,213.035 297.5,217C 292.833,217.333 288.167,217.667 283.5,218C 282.069,218.465 280.903,219.299 280,220.5C 279.503,218.19 279.337,215.857 279.5,213.5C 282.817,214.221 286.151,214.388 289.5,214C 293.713,210.612 297.713,207.112 301.5,203.5 Z"/></g>
<g><path style="opacity:1" fill="#910c11" d="M 319.5,203.5 C 320.5,203.5 321.5,203.5 322.5,203.5C 322.666,212.506 322.5,221.506 322,230.5C 322.012,221.357 321.178,212.357 319.5,203.5 Z"/></g>
<g><path style="opacity:1" fill="#fefffe" d="M 233.5,206.5 C 234.077,205.227 234.743,205.227 235.5,206.5C 235.03,207.463 234.363,207.463 233.5,206.5 Z"/></g>
<g><path style="opacity:1" fill="#ec1c23" d="M 258.5,206.5 C 258.833,206.5 259.167,206.5 259.5,206.5C 261.8,209.324 264.8,211.157 268.5,212C 271.793,212.826 275.126,213.326 278.5,213.5C 278.649,214.552 278.483,215.552 278,216.5C 273.535,215.496 269.035,215.329 264.5,216C 261.854,213.198 259.854,210.032 258.5,206.5 Z"/></g>
<g><path style="opacity:1" fill="#fefffe" d="M 339.5,211.5 C 338.526,212.635 337.359,213.635 336,214.5C 334.629,212.959 333.129,211.625 331.5,210.5C 329.962,206.213 330.629,205.713 333.5,209C 338.566,210.661 338.566,209.995 333.5,207C 336.705,206.686 338.705,208.186 339.5,211.5 Z"/></g>
<g><path style="opacity:1" fill="#323bc8" d="M 235.5,212.5 C 234.5,212.833 233.833,213.5 233.5,214.5C 231.833,214.5 230.167,214.5 228.5,214.5C 228.244,212.208 228.577,210.041 229.5,208C 233.348,207.013 235.348,208.513 235.5,212.5 Z"/></g>
<g><path style="opacity:1" fill="#fefffe" d="M 307.5,208.5 C 308.31,217.495 307.81,226.495 306,235.5C 300.731,242.396 295.731,249.396 291,256.5C 288.9,252.401 286.067,248.901 282.5,246C 290.513,234.471 297.347,222.304 303,209.5C 304.356,208.62 305.856,208.286 307.5,208.5 Z"/></g>
<g><path style="opacity:1" fill="#2d2e94" d="M 331.5,210.5 C 333.129,211.625 334.629,212.959 336,214.5C 337.359,213.635 338.526,212.635 339.5,211.5C 340.239,211.369 340.906,211.536 341.5,212C 340.243,215.291 338.91,218.458 337.5,221.5C 337.167,221.5 336.833,221.5 336.5,221.5C 335.925,219.589 334.925,217.922 333.5,216.5C 332.791,215.596 331.791,215.263 330.5,215.5C 330.216,213.585 330.549,211.919 331.5,210.5 Z"/></g>
<g><path style="opacity:1" fill="#fefffe" d="M 224.5,212.5 C 233.164,222.816 237.497,234.816 237.5,248.5C 237.299,250.973 236.632,253.306 235.5,255.5C 224.524,246.364 215.191,235.864 207.5,224C 208.047,223.075 208.713,222.242 209.5,221.5C 215.081,230.816 221.748,239.316 229.5,247C 231.217,248.559 233.217,249.392 235.5,249.5C 235.477,244.126 234.977,238.793 234,233.5C 231.405,226.474 227.905,219.974 223.5,214C 224.056,213.617 224.389,213.117 224.5,212.5 Z"/></g>
<g><path style="opacity:1" fill="#000000" d="M 235.5,212.5 C 235.5,213.833 234.833,214.5 233.5,214.5C 233.833,213.5 234.5,212.833 235.5,212.5 Z"/></g>
<g><path style="opacity:1" fill="#fefffe" d="M 235.5,212.5 C 237.085,213.002 237.585,214.002 237,215.5C 234.314,218.462 231.814,218.629 229.5,216C 231.058,215.79 232.391,215.29 233.5,214.5C 234.833,214.5 235.5,213.833 235.5,212.5 Z"/></g>
<g><path style="opacity:1" fill="#fefffe" d="M 220.5,215.5 C 218.847,215.66 217.514,216.326 216.5,217.5C 214.621,217.607 214.288,217.107 215.5,216C 217.167,215.167 218.833,214.333 220.5,213.5C 221.463,213.97 221.463,214.637 220.5,215.5 Z"/></g>
<g><path style="opacity:1" fill="#2f32a3" d="M 220.5,215.5 C 222.698,215.409 223.031,216.075 221.5,217.5C 220.055,219.063 218.389,220.396 216.5,221.5C 215.243,222.623 215.576,223.289 217.5,223.5C 217.735,224.097 218.235,224.43 219,224.5C 222.855,222.126 226.188,222.459 229,225.5C 230.684,229.716 231.851,234.049 232.5,238.5C 231.209,238.263 230.209,238.596 229.5,239.5C 229.672,240.492 229.338,241.158 228.5,241.5C 227.883,241.611 227.383,241.944 227,242.5C 221.475,235.295 216.308,227.795 211.5,220C 213.175,219.015 214.842,218.181 216.5,217.5C 217.514,216.326 218.847,215.66 220.5,215.5 Z"/></g>
<g><path style="opacity:1" fill="#e6e6e6" d="M 344.5,219.5 C 344.5,220.167 344.5,220.833 344.5,221.5C 344.662,223.527 344.495,225.527 344,227.5C 343.667,226.833 343.333,226.167 343,225.5C 342.316,226.784 342.483,227.951 343.5,229C 342.956,229.717 342.289,230.217 341.5,230.5C 341.496,234.25 340.496,234.917 338.5,232.5C 338.854,235.494 337.854,236.494 335.5,235.5C 335.854,238.494 334.854,239.494 332.5,238.5C 332.591,236.302 331.925,235.969 330.5,237.5C 332.158,234.206 334.324,231.206 337,228.5C 339.219,224.729 340.885,220.729 342,216.5C 342.667,215.167 343.333,215.167 344,216.5C 344.483,217.448 344.649,218.448 344.5,219.5 Z"/></g>
<g><path style="opacity:1" fill="#ec1c23" d="M 237.5,216.5 C 238.314,218.631 238.814,220.964 239,223.5C 239.667,230.833 239.667,238.167 239,245.5C 239.361,236.103 236.861,227.603 231.5,220C 233.879,219.284 235.879,218.117 237.5,216.5 Z"/></g>
<g><path style="opacity:1" fill="#fefffe" d="M 268.5,216.5 C 271.187,216.336 273.854,216.503 276.5,217C 278.359,220.681 277.192,222.848 273,223.5C 271.274,223.054 269.774,222.221 268.5,221C 269,220.833 269.5,220.667 270,220.5C 271.578,221.547 273.078,221.547 274.5,220.5C 272.234,219.686 269.9,219.186 267.5,219C 267.167,218.667 266.833,218.333 266.5,218C 267.416,217.722 268.082,217.222 268.5,216.5 Z"/></g>
<g><path style="opacity:1" fill="#fefffe" d="M 333.5,216.5 C 334.925,217.922 335.925,219.589 336.5,221.5C 335.167,221.5 333.833,221.5 332.5,221.5C 331.909,220.849 331.243,220.182 330.5,219.5C 334.265,219.705 334.265,218.872 330.5,217C 331.448,216.517 332.448,216.351 333.5,216.5 Z"/></g>
<g><path style="opacity:1" fill="#fefffe" d="M 221.5,217.5 C 222.239,217.369 222.906,217.536 223.5,218C 222.449,219.385 221.116,220.385 219.5,221C 221.367,221.711 222.867,221.211 224,219.5C 224.5,220 225,220.5 225.5,221C 222.92,222.144 220.253,222.978 217.5,223.5C 217.167,222.833 216.833,222.167 216.5,221.5C 218.389,220.396 220.055,219.063 221.5,217.5 Z"/></g>
<g><path style="opacity:1" fill="#fefffe" d="M 283.5,222.5 C 280.961,221.093 281.294,219.927 284.5,219C 288.152,218.501 291.818,218.335 295.5,218.5C 295.408,223.24 293.575,224.24 290,221.5C 287.901,222.287 285.734,222.62 283.5,222.5 Z"/></g>
<g><path style="opacity:1" fill="#fefffe" d="M 344.5,219.5 C 347.187,221.394 347.187,222.061 344.5,221.5C 344.5,220.833 344.5,220.167 344.5,219.5 Z"/></g>
<g><path style="opacity:1" fill="#000000" d="M 216.5,221.5 C 216.833,222.167 217.167,222.833 217.5,223.5C 215.576,223.289 215.243,222.623 216.5,221.5 Z"/></g>
<g><path style="opacity:1" fill="#fefffe" d="M 253.5,221.5 C 255.797,223.294 257.963,225.294 260,227.5C 264.5,233.833 269,240.167 273.5,246.5C 271.517,248.984 269.35,251.317 267,253.5C 262.667,248.5 258.333,243.5 254,238.5C 253.501,232.843 253.334,227.176 253.5,221.5 Z"/></g>
<g><path style="opacity:1" fill="#3037b6" d="M 332.5,221.5 C 333.833,221.5 335.167,221.5 336.5,221.5C 336.833,221.5 337.167,221.5 337.5,221.5C 336.364,225.771 334.198,229.437 331,232.5C 330.833,230.667 330.667,228.833 330.5,227C 330.547,224.705 331.213,222.871 332.5,221.5 Z"/></g>
<g><path style="opacity:1" fill="#ec1c23" d="M 276.5,228.5 C 275.833,228.5 275.5,228.833 275.5,229.5C 274.404,227.897 273.07,226.397 271.5,225C 273.888,224.697 276.055,223.863 278,222.5C 278.743,224.874 278.243,226.874 276.5,228.5 Z"/></g>
<g><path style="opacity:1" fill="#ec1c23" d="M 283.5,222.5 C 285.56,223.811 287.726,223.811 290,222.5C 290.5,223.667 291.333,224.5 292.5,225C 291.113,226.683 289.447,227.85 287.5,228.5C 279.875,228.719 278.875,231.053 284.5,235.5C 286.896,236.926 286.563,238.26 283.5,239.5C 282.108,238.395 280.941,237.061 280,235.5C 279.501,231.179 279.334,226.846 279.5,222.5C 280.833,222.5 282.167,222.5 283.5,222.5 Z"/></g>
<g><path style="opacity:1" fill="#fefffe" d="M 211.5,235.5 C 209.537,234.04 207.704,232.373 206,230.5C 205.301,228.926 205.635,227.593 207,226.5C 208.467,229.266 210.3,231.766 212.5,234C 211.944,234.383 211.611,234.883 211.5,235.5 Z"/></g>
<g><path style="opacity:1" fill="#000000" d="M 341.5,230.5 C 340.152,229.473 339.652,228.14 340,226.5C 341.188,227.563 341.688,228.897 341.5,230.5 Z"/></g>
<g><path style="opacity:1" fill="#c2c3c2" d="M 388.5,266.5 C 405.596,254.775 422.93,243.275 440.5,232C 442.421,226.616 445.255,225.782 449,229.5C 449.436,235.241 447.269,236.574 442.5,233.5C 424.465,244.554 406.465,255.554 388.5,266.5 Z"/></g>
<g><path style="opacity:1" fill="#fefffe" d="M 227.5,229.5 C 228.461,231.265 228.795,233.265 228.5,235.5C 221.144,234.579 220.144,231.912 225.5,227.5C 226.522,227.855 227.189,228.522 227.5,229.5 Z"/></g>
<g><path style="opacity:1" fill="#e4e4e4" d="M 276.5,228.5 C 277.649,228.791 278.316,229.624 278.5,231C 278.333,231.833 278.167,232.667 278,233.5C 277.338,232.016 276.504,230.683 275.5,229.5C 275.5,228.833 275.833,228.5 276.5,228.5 Z"/></g>
<g><path style="opacity:1" fill="#fefffe" d="M 287.5,228.5 C 288.552,228.351 289.552,228.517 290.5,229C 289.221,230.646 287.555,231.813 285.5,232.5C 288.229,234.367 287.896,235.367 284.5,235.5C 278.875,231.053 279.875,228.719 287.5,228.5 Z"/></g>
<g><path style="opacity:1" fill="#000000" d="M 227.5,229.5 C 227.052,231.465 226.052,231.798 224.5,230.5C 225.325,229.614 226.325,229.281 227.5,229.5 Z"/></g>
<g><path style="opacity:1" fill="#000000" d="M 338.5,232.5 C 336.354,232.304 336.188,231.304 338,229.5C 338.483,230.448 338.649,231.448 338.5,232.5 Z"/></g>
<g><path style="opacity:1" fill="#ec1c23" d="M 308.5,232.5 C 309.765,233.514 310.431,235.014 310.5,237C 312.652,246.849 308.652,250.849 298.5,249C 301.788,244.923 304.955,240.756 308,236.5C 308.49,235.207 308.657,233.873 308.5,232.5 Z"/></g>
<g><path style="opacity:1" fill="#000000" d="M 335.5,235.5 C 332.999,235.489 332.832,234.822 335,233.5C 335.464,234.094 335.631,234.761 335.5,235.5 Z"/></g>
<g><path style="opacity:1" fill="#b57755" d="M 453.5,236.5 C 453.158,237.338 452.492,237.672 451.5,237.5C 449.973,237.427 448.973,238.094 448.5,239.5C 446.973,239.427 445.973,240.094 445.5,241.5C 443.973,241.427 442.973,242.094 442.5,243.5C 440.326,243.75 438.659,244.75 437.5,246.5C 435.973,246.427 434.973,247.094 434.5,248.5C 432.973,248.427 431.973,249.094 431.5,250.5C 425.024,255.908 418.024,260.575 410.5,264.5C 409.127,264.343 407.793,264.51 406.5,265C 405.944,267.237 404.944,269.237 403.5,271C 378.808,286.86 354.808,303.694 331.5,321.5C 330.194,322.912 329.36,324.579 329,326.5C 326.31,324.973 324.143,322.973 322.5,320.5C 322.761,316.956 321.095,315.122 317.5,315C 358.331,288.75 399.331,262.75 440.5,237C 443.167,237 445.833,237 448.5,237C 449.509,234.828 451.176,233.662 453.5,233.5C 453.5,234.5 453.5,235.5 453.5,236.5 Z"/></g>
<g><path style="opacity:1" fill="#c2c3c2" d="M 450.5,239.5 C 450.833,238.833 451.167,238.167 451.5,237.5C 452.492,237.672 453.158,237.338 453.5,236.5C 455.012,234.683 457.012,233.683 459.5,233.5C 459.714,235.144 459.38,236.644 458.5,238C 455.793,238.395 453.127,238.895 450.5,239.5 Z"/></g>
<g><path style="opacity:1" fill="#fec90d" d="M 274.5,234.5 C 278.557,236.049 280.557,238.716 280.5,242.5C 279.188,240.521 277.521,238.855 275.5,237.5C 274.145,238.188 273.145,239.188 272.5,240.5C 271.596,239.791 271.263,238.791 271.5,237.5C 272.833,236.833 273.833,235.833 274.5,234.5 Z"/></g>
<g><path style="opacity:1" fill="#ec1c23" d="M 220.5,252.5 C 217.029,252.899 216.696,254.399 219.5,257C 222.654,258.081 225.321,259.914 227.5,262.5C 229.045,263.452 230.712,263.785 232.5,263.5C 232.657,262.127 232.49,260.793 232,259.5C 228.961,258.397 226.127,256.897 223.5,255C 224.094,254.536 224.761,254.369 225.5,254.5C 226.514,255.674 227.847,256.34 229.5,256.5C 232.028,257.166 234.694,257.832 237.5,258.5C 232.295,269.312 228.629,280.646 226.5,292.5C 225.662,292.842 225.328,293.508 225.5,294.5C 224.206,296.68 224.539,298.68 226.5,300.5C 226.03,306.136 226.53,311.803 228,317.5C 230.112,321.278 232.612,324.778 235.5,328C 232.792,329.069 230.125,330.236 227.5,331.5C 224.912,335.676 222.079,339.676 219,343.5C 218.283,342.956 217.783,342.289 217.5,341.5C 216.005,337.327 213.338,333.994 209.5,331.5C 208.565,328.887 208.398,326.221 209,323.5C 211.074,321.548 213.241,319.715 215.5,318C 211.003,318.91 206.669,320.41 202.5,322.5C 201.167,322.167 199.833,321.833 198.5,321.5C 198.561,318.27 200.228,316.437 203.5,316C 200.473,314.487 197.473,312.987 194.5,311.5C 194.414,309.323 193.747,307.323 192.5,305.5C 193.246,304.264 193.579,302.93 193.5,301.5C 195.636,300.597 197.636,299.431 199.5,298C 197.846,297.392 196.179,296.892 194.5,296.5C 195.167,294.833 195.833,293.167 196.5,291.5C 199.262,292.38 201.929,293.546 204.5,295C 207.176,295.74 209.842,296.073 212.5,296C 207.464,293.932 202.464,291.765 197.5,289.5C 198.259,284.57 199.592,279.903 201.5,275.5C 201.338,277.527 201.505,279.527 202,281.5C 205.646,286.66 210.479,289.993 216.5,291.5C 217.5,291.167 218.167,290.5 218.5,289.5C 215.837,287.008 213.004,284.674 210,282.5C 206.792,277.143 205.792,271.476 207,265.5C 205.236,267.389 203.736,269.389 202.5,271.5C 203.606,264.675 205.439,258.008 208,251.5C 208.263,246.149 208.263,240.816 208,235.5C 212.176,241.196 216.343,246.863 220.5,252.5 Z"/></g>
<g><path style="opacity:1" fill="#fefffe" d="M 211.5,235.5 C 213.5,235.5 214.5,236.5 214.5,238.5C 211.805,238.437 210.805,237.437 211.5,235.5 Z"/></g>
<g><path style="opacity:1" fill="#000000" d="M 332.5,238.5 C 331.833,238.5 331.167,238.5 330.5,238.5C 330.5,238.167 330.5,237.833 330.5,237.5C 331.925,235.969 332.591,236.302 332.5,238.5 Z"/></g>
<g><path style="opacity:1" fill="#ec1b23" d="M 341.5,240.5 C 335.791,243.685 331.458,248.185 328.5,254C 328.667,254.5 328.833,255 329,255.5C 332.047,251.225 336.214,248.892 341.5,248.5C 342.674,249.514 343.34,250.847 343.5,252.5C 339.988,254.668 337.655,257.668 336.5,261.5C 338.965,261.233 341.299,260.566 343.5,259.5C 344.584,269.168 346.917,278.501 350.5,287.5C 348.429,289.185 346.429,290.852 344.5,292.5C 339.23,294.803 334.23,297.636 329.5,301C 326.881,300.917 324.214,300.75 321.5,300.5C 322.833,292.5 322.833,284.5 321.5,276.5C 324.868,275.898 328.201,275.064 331.5,274C 335.276,271.755 335.276,269.921 331.5,268.5C 328.772,269.018 326.272,270.018 324,271.5C 322.234,270.767 320.401,270.433 318.5,270.5C 317.957,269.258 317.623,267.925 317.5,266.5C 319.049,262.137 320.049,257.637 320.5,253C 319.708,248.843 319.542,244.677 320,240.5C 320.497,242.81 320.663,245.143 320.5,247.5C 324.131,247.84 327.464,247.006 330.5,245C 334,242.167 337.5,239.333 341,236.5C 341.49,237.793 341.657,239.127 341.5,240.5 Z"/></g>
<g><path style="opacity:1" fill="#000000" d="M 451.5,237.5 C 451.167,238.167 450.833,238.833 450.5,239.5C 449.833,239.5 449.167,239.5 448.5,239.5C 448.973,238.094 449.973,237.427 451.5,237.5 Z"/></g>
<g><path style="opacity:1" fill="#fefffe" d="M 214.5,238.5 C 215.338,238.842 215.672,239.508 215.5,240.5C 213.302,240.591 212.969,239.925 214.5,238.5 Z"/></g>
<g><path style="opacity:1" fill="#700a12" d="M 280.5,242.5 C 280.428,244.311 279.595,245.644 278,246.5C 275.483,245.138 273.65,243.138 272.5,240.5C 273.145,239.188 274.145,238.188 275.5,237.5C 277.521,238.855 279.188,240.521 280.5,242.5 Z"/></g>
<g><path style="opacity:1" fill="#fefffe" d="M 330.5,238.5 C 331.167,238.5 331.833,238.5 332.5,238.5C 332.539,240.359 331.706,241.692 330,242.5C 329.421,241.072 329.588,239.738 330.5,238.5 Z"/></g>
<g><path style="opacity:1" fill="#fefffe" d="M 229.5,239.5 C 233.13,240.062 233.797,241.395 231.5,243.5C 229.821,243.715 228.821,243.048 228.5,241.5C 229.338,241.158 229.672,240.492 229.5,239.5 Z"/></g>
<g><path style="opacity:1" fill="#000000" d="M 448.5,239.5 C 448.027,240.906 447.027,241.573 445.5,241.5C 445.973,240.094 446.973,239.427 448.5,239.5 Z"/></g>
<g><path style="opacity:1" fill="#c2c3c2" d="M 448.5,239.5 C 449.167,239.5 449.833,239.5 450.5,239.5C 441.913,246.138 432.913,252.305 423.5,258C 420.514,261.814 416.847,264.647 412.5,266.5C 411.287,266.253 410.62,265.586 410.5,264.5C 418.024,260.575 425.024,255.908 431.5,250.5C 433.027,250.573 434.027,249.906 434.5,248.5C 436.027,248.573 437.027,247.906 437.5,246.5C 439.674,246.25 441.341,245.25 442.5,243.5C 444.027,243.573 445.027,242.906 445.5,241.5C 447.027,241.573 448.027,240.906 448.5,239.5 Z"/></g>
<g><path style="opacity:1" fill="#ec1c23" d="M 252.5,240.5 C 254.782,243.122 257.115,245.788 259.5,248.5C 256.216,249.657 252.882,249.824 249.5,249C 251.336,246.507 252.336,243.674 252.5,240.5 Z"/></g>
<g><path style="opacity:1" fill="#fefffe" d="M 327.5,240.5 C 328.797,241.849 328.63,243.182 327,244.5C 326.421,243.072 326.588,241.738 327.5,240.5 Z"/></g>
<g><path style="opacity:1" fill="#910c11" d="M 341.5,240.5 C 341.5,243.167 341.5,245.833 341.5,248.5C 336.214,248.892 332.047,251.225 329,255.5C 328.833,255 328.667,254.5 328.5,254C 331.458,248.185 335.791,243.685 341.5,240.5 Z"/></g>
<g><path style="opacity:1" fill="#f3f3f3" d="M 215.5,240.5 C 219.039,241.324 220.372,243.324 219.5,246.5C 217.178,245.198 215.845,243.198 215.5,240.5 Z"/></g>
<g><path style="opacity:1" fill="#000000" d="M 445.5,241.5 C 445.027,242.906 444.027,243.573 442.5,243.5C 442.973,242.094 443.973,241.427 445.5,241.5 Z"/></g>
<g><path style="opacity:1" fill="#fefffe" d="M 324.5,242.5 C 325.404,243.209 325.737,244.209 325.5,245.5C 321.995,245.306 321.662,244.306 324.5,242.5 Z"/></g>
<g><path style="opacity:1" fill="#323bc8" d="M 231.5,243.5 C 233.225,243.843 233.725,244.843 233,246.5C 230.842,245.95 230.342,244.95 231.5,243.5 Z"/></g>
<g><path style="opacity:1" fill="#fec90d" d="M 313.5,243.5 C 318.021,243.326 318.355,243.993 314.5,245.5C 313.702,245.043 313.369,244.376 313.5,243.5 Z"/></g>
<g><path style="opacity:1" fill="#000000" d="M 442.5,243.5 C 441.341,245.25 439.674,246.25 437.5,246.5C 438.659,244.75 440.326,243.75 442.5,243.5 Z"/></g>
<g><path style="opacity:1" fill="#fefffe" d="M 224.5,248.5 C 223.508,248.328 222.842,248.662 222.5,249.5C 220.5,249.5 219.5,248.5 219.5,246.5C 221.822,245.103 223.489,245.77 224.5,248.5 Z"/></g>
<g><path style="opacity:1" fill="#000000" d="M 437.5,246.5 C 437.027,247.906 436.027,248.573 434.5,248.5C 434.973,247.094 435.973,246.427 437.5,246.5 Z"/></g>
<g><path style="opacity:1" fill="#fefffe" d="M 241.5,248.5 C 243.604,248.201 245.604,248.534 247.5,249.5C 246.5,249.833 245.5,250.167 244.5,250.5C 242.97,250.36 241.97,249.693 241.5,248.5 Z"/></g>
<g><path style="opacity:1" fill="#fec90d" d="M 275.5,248.5 C 278.32,248.248 280.986,248.748 283.5,250C 295.56,261.721 293.393,269.555 277,273.5C 270.776,271.607 266.943,267.44 265.5,261C 267.535,255.798 270.869,251.631 275.5,248.5 Z"/></g>
<g><path style="opacity:1" fill="#fefffe" d="M 314.5,248.5 C 319.838,249.603 319.672,250.603 314,251.5C 313.5,251.167 313,250.833 312.5,250.5C 313.243,249.818 313.909,249.151 314.5,248.5 Z"/></g>
<g><path style="opacity:1" fill="#000000" d="M 434.5,248.5 C 434.027,249.906 433.027,250.573 431.5,250.5C 431.973,249.094 432.973,248.427 434.5,248.5 Z"/></g>
<g><path style="opacity:1" fill="#fefffe" d="M 308.5,250.5 C 310.981,251.696 310.981,253.196 308.5,255C 304.142,255.788 299.809,256.622 295.5,257.5C 294.777,255.836 295.11,254.169 296.5,252.5C 300.647,251.833 304.647,251.166 308.5,250.5 Z"/></g>
<g><path style="opacity:1" fill="#fefffe" d="M 241.5,251.5 C 247.534,250.607 249.534,252.94 247.5,258.5C 240.375,259.503 238.375,257.17 241.5,251.5 Z"/></g>
<g><path style="opacity:1" fill="#fefffe" d="M 249.5,252.5 C 253.646,251.353 257.98,251.186 262.5,252C 265.877,253.649 266.21,255.649 263.5,258C 259.129,258.629 254.796,258.463 250.5,257.5C 250.784,255.585 250.451,253.919 249.5,252.5 Z"/></g>
<g><path style="opacity:1" fill="#920e12" d="M 220.5,252.5 C 221.609,252.557 222.609,252.89 223.5,253.5C 224.492,253.328 225.158,253.662 225.5,254.5C 224.761,254.369 224.094,254.536 223.5,255C 226.127,256.897 228.961,258.397 232,259.5C 232.49,260.793 232.657,262.127 232.5,263.5C 230.712,263.785 229.045,263.452 227.5,262.5C 225.321,259.914 222.654,258.081 219.5,257C 216.696,254.399 217.029,252.899 220.5,252.5 Z"/></g>
<g><path style="opacity:1" fill="#910c11" d="M 343.5,252.5 C 343.5,254.833 343.5,257.167 343.5,259.5C 341.299,260.566 338.965,261.233 336.5,261.5C 337.655,257.668 339.988,254.668 343.5,252.5 Z"/></g>
<g><path style="opacity:1" fill="#fefffe" d="M 315.5,253.5 C 316.5,253.5 317.5,253.5 318.5,253.5C 318.217,257.97 316.717,261.97 314,265.5C 311.63,261.024 312.13,257.024 315.5,253.5 Z"/></g>
<g><path style="opacity:1" fill="#fefffe" d="M 229.5,256.5 C 229.5,256.167 229.5,255.833 229.5,255.5C 230.648,254.105 231.648,254.272 232.5,256C 231.552,256.483 230.552,256.649 229.5,256.5 Z"/></g>
<g><path style="opacity:1" fill="#910c11" d="M 213.5,256.5 C 214.473,256.987 215.473,257.487 216.5,258C 219.981,262.315 223.647,266.482 227.5,270.5C 225.813,271.568 224.146,271.401 222.5,270C 221.667,267.833 220.167,266.333 218,265.5C 215.94,262.714 214.44,259.714 213.5,256.5 Z"/></g>
<g><path style="opacity:1" fill="#ec1c23" d="M 309.5,256.5 C 311.843,265.716 311.676,275.049 309,284.5C 301.471,278.981 296.304,271.814 293.5,263C 293.667,261.833 293.833,260.667 294,259.5C 294.333,259.833 294.667,260.167 295,260.5C 299.847,258.936 304.681,257.603 309.5,256.5 Z"/></g>
<g><path style="opacity:1" fill="#910c11" d="M 331.5,258.5 C 332.5,258.5 333.5,258.5 334.5,258.5C 334.287,262.58 332.12,264.58 328,264.5C 326.5,264.167 325,263.833 323.5,263.5C 326.231,261.808 328.898,260.142 331.5,258.5 Z"/></g>
<g><path style="opacity:1" fill="#fefffe" d="M 239.5,259.5 C 240.922,259.709 242.255,260.209 243.5,261C 236.773,268.803 235.44,268.303 239.5,259.5 Z"/></g>
<g><path style="opacity:1" fill="#ec1c23" d="M 245.5,276.5 C 239.861,277.872 237.194,275.539 237.5,269.5C 241.566,266.943 245.233,263.777 248.5,260C 253.456,260.251 258.456,260.418 263.5,260.5C 262.909,263.614 261.242,266.114 258.5,268C 254.793,271.85 250.46,274.683 245.5,276.5 Z"/></g>
<g><path style="opacity:1" fill="#930c12" d="M 201.5,275.5 C 201.433,274.041 201.766,272.708 202.5,271.5C 203.736,269.389 205.236,267.389 207,265.5C 205.792,271.476 206.792,277.143 210,282.5C 213.004,284.674 215.837,287.008 218.5,289.5C 218.167,290.5 217.5,291.167 216.5,291.5C 210.479,289.993 205.646,286.66 202,281.5C 201.505,279.527 201.338,277.527 201.5,275.5 Z"/></g>
<g><path style="opacity:1" fill="#f8f8f8" d="M 263.5,265.5 C 266.101,268.604 268.934,271.604 272,274.5C 272.667,275.167 272.667,275.833 272,276.5C 262.821,285.841 252.321,293.341 240.5,299C 239.365,299.749 238.365,299.583 237.5,298.5C 235.962,294.593 234.296,290.76 232.5,287C 234.917,285.374 237.417,283.874 240,282.5C 240.333,283.5 240.667,284.5 241,285.5C 241.273,283.671 242.107,282.171 243.5,281C 251.21,277.117 257.877,271.95 263.5,265.5 Z"/></g>
<g><path style="opacity:1" fill="#c2c3c2" d="M 388.5,266.5 C 385.35,269.579 381.683,271.913 377.5,273.5C 380.65,270.421 384.317,268.087 388.5,266.5 Z"/></g>
<g><path style="opacity:1" fill="#fec90d" d="M 407.5,266.5 C 410.189,268.11 413.189,268.943 416.5,269C 413.518,269.498 410.518,269.665 407.5,269.5C 407.5,268.5 407.5,267.5 407.5,266.5 Z"/></g>
<g><path style="opacity:1" fill="#fefffe" d="M 291.5,267.5 C 296.408,274.913 302.241,281.579 309,287.5C 309.667,293.167 309.667,298.833 309,304.5C 299.581,295.138 290.748,285.305 282.5,275C 285.94,272.958 288.94,270.458 291.5,267.5 Z"/></g>
<g><path style="opacity:1" fill="#910c11" d="M 237.5,269.5 C 237.194,275.539 239.861,277.872 245.5,276.5C 241.222,279.645 236.555,282.312 231.5,284.5C 231.972,279.249 233.139,273.916 235,268.5C 235.671,269.252 236.504,269.586 237.5,269.5 Z"/></g>
<g><path style="opacity:1" fill="#910c11" d="M 321.5,276.5 C 319.75,274.941 318.75,272.941 318.5,270.5C 320.401,270.433 322.234,270.767 324,271.5C 326.272,270.018 328.772,269.018 331.5,268.5C 335.276,269.921 335.276,271.755 331.5,274C 328.201,275.064 324.868,275.898 321.5,276.5 Z"/></g>
<g><path style="opacity:1" fill="#fefffe" d="M 379.5,289.5 C 387.946,286.048 396.28,281.548 404.5,276C 405.833,275 405.833,274 404.5,273C 405.167,272.333 405.833,271.667 406.5,271C 409.833,270.333 413.167,270.333 416.5,271C 405.075,278.465 393.242,285.298 381,291.5C 380.722,290.584 380.222,289.918 379.5,289.5 Z"/></g>
<g><path style="opacity:1" fill="#c2c3c2" d="M 377.5,273.5 C 354.018,290.08 329.685,305.414 304.5,319.5C 317.833,310.5 331.167,301.5 344.5,292.5C 355.337,285.914 366.337,279.581 377.5,273.5 Z"/></g>
<g><path style="opacity:1" fill="#ec1c23" d="M 275.5,282.5 C 273.094,277.352 274.761,275.018 280.5,275.5C 280.472,277.582 281.139,279.416 282.5,281C 279.964,281.186 277.631,281.686 275.5,282.5 Z"/></g>
<g><path style="opacity:1" fill="#2c2d2c" d="M 312.5,276.5 C 314.467,276.261 316.301,276.594 318,277.5C 320.983,284.356 321.316,291.356 319,298.5C 317.635,300.86 315.635,302.527 313,303.5C 311.907,299.784 311.407,295.95 311.5,292C 311.711,286.818 312.045,281.652 312.5,276.5 Z"/></g>
<g><path style="opacity:1" fill="#ec1c23" d="M 270.5,281.5 C 272.283,277.94 273.283,277.94 273.5,281.5C 272.5,281.5 271.5,281.5 270.5,281.5 Z"/></g>
<g><path style="opacity:1" fill="#870014" d="M 284.5,280.5 C 291.738,290.575 300.238,299.575 310,307.5C 310.945,307.095 311.612,306.428 312,305.5C 313.505,307.298 313.672,309.132 312.5,311C 307.003,311.665 302.503,309.832 299,305.5C 294.143,297.112 289.31,288.778 284.5,280.5 Z"/></g>
<g><path style="opacity:1" fill="#fefffe" d="M 270.5,281.5 C 273.338,283.306 273.005,284.306 269.5,284.5C 266.951,283.169 267.284,282.169 270.5,281.5 Z"/></g>
<g><path style="opacity:1" fill="#910c11" d="M 220.5,283.5 C 223.574,282.492 225.574,283.825 226.5,287.5C 226.167,287.833 225.833,288.167 225.5,288.5C 224.145,286.479 222.479,284.812 220.5,283.5 Z"/></g>
<g><path style="opacity:1" fill="#fefffe" d="M 275.5,282.5 C 278.187,282.336 280.854,282.503 283.5,283C 279.86,284.134 280.193,285.134 284.5,286C 283.584,286.278 282.918,286.778 282.5,287.5C 281.833,287.167 281.167,286.833 280.5,286.5C 278.597,286.204 276.93,285.537 275.5,284.5C 275.5,283.833 275.5,283.167 275.5,282.5 Z"/></g>
<g><path style="opacity:1" fill="#ec1c23" d="M 269.5,284.5 C 270.568,285.434 271.901,285.768 273.5,285.5C 273.5,287.833 273.5,290.167 273.5,292.5C 272.292,293.234 270.959,293.567 269.5,293.5C 269.158,292.662 268.492,292.328 267.5,292.5C 269.386,291.935 271.053,290.935 272.5,289.5C 272.291,288.914 271.957,288.414 271.5,288C 269.527,287.505 267.527,287.338 265.5,287.5C 264.402,286.603 264.402,285.77 265.5,285C 266.793,284.51 268.127,284.343 269.5,284.5 Z"/></g>
<g><path style="opacity:1" fill="#ec1c23" d="M 275.5,284.5 C 276.93,285.537 278.597,286.204 280.5,286.5C 279.167,287.5 277.833,288.5 276.5,289.5C 275.209,290.542 275.209,291.708 276.5,293C 279.419,293.433 282.086,292.933 284.5,291.5C 289.565,291.472 290.231,292.472 286.5,294.5C 282.183,294.083 278.183,294.75 274.5,296.5C 273.566,295.432 273.232,294.099 273.5,292.5C 274.167,289.833 274.833,287.167 275.5,284.5 Z"/></g>
<g><path style="opacity:1" fill="#000000" d="M 280.5,286.5 C 281.167,286.833 281.833,287.167 282.5,287.5C 280.786,288.738 278.786,289.405 276.5,289.5C 277.833,288.5 279.167,287.5 280.5,286.5 Z"/></g>
<g><path style="opacity:1" fill="#fefffe" d="M 230.5,301.5 C 232.552,300.947 232.885,299.947 231.5,298.5C 231.34,296.847 230.674,295.514 229.5,294.5C 229.337,292.143 229.503,289.81 230,287.5C 232.424,292.016 234.59,296.683 236.5,301.5C 234.417,302.959 232.25,304.292 230,305.5C 229.421,304.072 229.588,302.738 230.5,301.5 Z"/></g>
<g><path style="opacity:1" fill="#fefffe" d="M 265.5,287.5 C 267.527,287.338 269.527,287.505 271.5,288C 271.957,288.414 272.291,288.914 272.5,289.5C 271.053,290.935 269.386,291.935 267.5,292.5C 266.209,292.737 265.209,292.404 264.5,291.5C 258.05,290.177 258.383,288.844 265.5,287.5 Z"/></g>
<g><path style="opacity:1" fill="#fefffe" d="M 282.5,287.5 C 287.849,287.507 288.516,288.84 284.5,291.5C 282.086,292.933 279.419,293.433 276.5,293C 275.209,291.708 275.209,290.542 276.5,289.5C 278.786,289.405 280.786,288.738 282.5,287.5 Z"/></g>
<g><path style="opacity:1" fill="#910c11" d="M 334.5,287.5 C 337.85,287.335 341.183,287.502 344.5,288C 337.652,289.788 331.319,292.621 325.5,296.5C 323.862,295.295 323.529,293.962 324.5,292.5C 327.727,290.436 331.06,288.77 334.5,287.5 Z"/></g>
<g><path style="opacity:1" fill="#910c11" d="M 197.5,289.5 C 202.464,291.765 207.464,293.932 212.5,296C 209.842,296.073 207.176,295.74 204.5,295C 201.929,293.546 199.262,292.38 196.5,291.5C 196.328,290.508 196.662,289.842 197.5,289.5 Z"/></g>
<g><path style="opacity:1" fill="#fefffe" d="M 379.5,289.5 C 379.5,290.5 379.5,291.5 379.5,292.5C 375.94,292.283 375.94,291.283 379.5,289.5 Z"/></g>
<g><path style="opacity:1" fill="#fefffe" d="M 264.5,291.5 C 265.209,292.404 266.209,292.737 267.5,292.5C 268.492,292.328 269.158,292.662 269.5,293.5C 270.806,294.467 271.473,295.801 271.5,297.5C 267.019,298.648 262.352,298.815 257.5,298C 256.142,297.066 254.808,296.232 253.5,295.5C 256.413,292.635 260.079,291.301 264.5,291.5 Z"/></g>
<g><path style="opacity:1" fill="#c4c4c4" d="M 226.5,292.5 C 227.778,292.782 228.778,293.449 229.5,294.5C 230.674,295.514 231.34,296.847 231.5,298.5C 231.443,299.609 231.11,300.609 230.5,301.5C 229.209,301.737 228.209,301.404 227.5,300.5C 228.598,299.399 228.765,298.066 228,296.5C 227.583,295.244 226.75,294.577 225.5,294.5C 225.328,293.508 225.662,292.842 226.5,292.5 Z"/></g>
<g><path style="opacity:1" fill="#000000" d="M 273.5,292.5 C 273.232,294.099 273.566,295.432 274.5,296.5C 274.5,296.833 274.5,297.167 274.5,297.5C 273.521,300.625 273.187,303.958 273.5,307.5C 275.099,307.768 276.432,307.434 277.5,306.5C 282.07,307.441 286.737,307.774 291.5,307.5C 274.167,308.833 256.833,308.833 239.5,307.5C 246.022,307.823 252.355,307.49 258.5,306.5C 262.5,307.833 266.5,307.833 270.5,306.5C 270.56,307.043 270.893,307.376 271.5,307.5C 272.773,306.743 272.773,306.077 271.5,305.5C 271.5,305.167 271.5,304.833 271.5,304.5C 272.833,302.167 272.833,299.833 271.5,297.5C 271.473,295.801 270.806,294.467 269.5,293.5C 270.959,293.567 272.292,293.234 273.5,292.5 Z"/></g>
<g><path style="opacity:1" fill="#000000" d="M 258.5,293.5 C 261.473,294.084 264.473,294.751 267.5,295.5C 267.333,295.833 267.167,296.167 267,296.5C 263.746,296.162 260.912,295.162 258.5,293.5 Z"/></g>
<g><path style="opacity:1" fill="#000000" d="M 225.5,294.5 C 226.75,294.577 227.583,295.244 228,296.5C 228.765,298.066 228.598,299.399 227.5,300.5C 227.167,300.5 226.833,300.5 226.5,300.5C 224.539,298.68 224.206,296.68 225.5,294.5 Z"/></g>
<g><path style="opacity:1" fill="#ec1c23" d="M 253.5,295.5 C 254.808,296.232 256.142,297.066 257.5,298C 262.352,298.815 267.019,298.648 271.5,297.5C 272.833,299.833 272.833,302.167 271.5,304.5C 265.964,299.684 259.964,299.184 253.5,303C 254.789,304.802 256.456,305.969 258.5,306.5C 252.355,307.49 246.022,307.823 239.5,307.5C 237.708,306.691 235.708,306.191 233.5,306C 239.751,302.292 245.917,298.459 252,294.5C 252.383,295.056 252.883,295.389 253.5,295.5 Z"/></g>
<g><path style="opacity:1" fill="#fefffe" d="M 286.5,294.5 C 288.483,294.157 289.817,294.824 290.5,296.5C 289.942,297.79 288.942,298.623 287.5,299C 284.812,299.392 282.145,299.892 279.5,300.5C 277.555,299.872 275.888,298.872 274.5,297.5C 274.5,297.167 274.5,296.833 274.5,296.5C 278.183,294.75 282.183,294.083 286.5,294.5 Z"/></g>
<g><path style="opacity:1" fill="#910c11" d="M 194.5,296.5 C 196.179,296.892 197.846,297.392 199.5,298C 197.636,299.431 195.636,300.597 193.5,301.5C 194.038,299.883 194.371,298.216 194.5,296.5 Z"/></g>
<g><path style="opacity:1" fill="#ec1c23" d="M 290.5,296.5 C 291.837,297.315 292.837,298.482 293.5,300C 292.906,300.464 292.239,300.631 291.5,300.5C 291.44,299.957 291.107,299.624 290.5,299.5C 286.882,301.809 282.882,302.976 278.5,303C 275.347,303.884 275.014,305.05 277.5,306.5C 276.432,307.434 275.099,307.768 273.5,307.5C 273.187,303.958 273.521,300.625 274.5,297.5C 275.888,298.872 277.555,299.872 279.5,300.5C 282.145,299.892 284.812,299.392 287.5,299C 288.942,298.623 289.942,297.79 290.5,296.5 Z"/></g>
<g><path style="opacity:1" fill="#000000" d="M 231.5,298.5 C 232.885,299.947 232.552,300.947 230.5,301.5C 231.11,300.609 231.443,299.609 231.5,298.5 Z"/></g>
<g><path style="opacity:1" fill="#910c11" d="M 208.5,299.5 C 211.247,299.187 213.914,299.52 216.5,300.5C 213.737,304.248 210.737,304.415 207.5,301C 208.056,300.617 208.389,300.117 208.5,299.5 Z"/></g>
<g><path style="opacity:1" fill="#fefffe" d="M 291.5,300.5 C 292.23,301.712 293.23,302.712 294.5,303.5C 292.712,304.283 291.712,305.616 291.5,307.5C 286.737,307.774 282.07,307.441 277.5,306.5C 275.014,305.05 275.347,303.884 278.5,303C 282.882,302.976 286.882,301.809 290.5,299.5C 291.107,299.624 291.44,299.957 291.5,300.5 Z"/></g>
<g><path style="opacity:1" fill="#fefffe" d="M 271.5,304.5 C 271.5,304.833 271.5,305.167 271.5,305.5C 271.5,306.167 271.167,306.5 270.5,306.5C 266.5,307.833 262.5,307.833 258.5,306.5C 256.456,305.969 254.789,304.802 253.5,303C 259.964,299.184 265.964,299.684 271.5,304.5 Z"/></g>
<g><path style="opacity:1" fill="#fefffe" d="M 361.5,301.5 C 363.975,301.747 363.975,302.413 361.5,303.5C 360.537,303.03 360.537,302.363 361.5,301.5 Z"/></g>
<g><path style="opacity:1" fill="#000000" d="M 289.5,302.5 C 291.735,303.248 291.402,304.081 288.5,305C 285.923,306.25 283.257,306.584 280.5,306C 283.865,305.495 286.865,304.328 289.5,302.5 Z"/></g>
<g><path style="opacity:1" fill="#f9a884" d="M 319.5,302.5 C 321.288,302.215 322.955,302.548 324.5,303.5C 321.754,305.623 318.921,307.623 316,309.5C 315.202,307.741 315.369,306.074 316.5,304.5C 317.739,304.058 318.739,303.391 319.5,302.5 Z"/></g>
<g><path style="opacity:1" fill="#000000" d="M 260.5,305.5 C 263.178,304.091 265.844,304.257 268.5,306C 265.779,306.602 263.113,306.435 260.5,305.5 Z"/></g>
<g><path style="opacity:1" fill="#fefffe" d="M 295.5,304.5 C 296.043,304.56 296.376,304.893 296.5,305.5C 295.635,306.583 294.635,306.749 293.5,306C 294.416,305.722 295.082,305.222 295.5,304.5 Z"/></g>
<g><path style="opacity:1" fill="#fefffe" d="M 357.5,304.5 C 359.975,304.747 359.975,305.413 357.5,306.5C 356.537,306.03 356.537,305.363 357.5,304.5 Z"/></g>
<g><path style="opacity:1" fill="#ec1c23" d="M 271.5,305.5 C 272.773,306.077 272.773,306.743 271.5,307.5C 270.893,307.376 270.56,307.043 270.5,306.5C 271.167,306.5 271.5,306.167 271.5,305.5 Z"/></g>
<g><path style="opacity:1" fill="#fefffe" d="M 239.5,307.5 C 256.833,308.833 274.167,308.833 291.5,307.5C 293.735,307.205 295.735,307.539 297.5,308.5C 294.627,308.802 291.961,309.469 289.5,310.5C 284.637,310.181 279.97,310.514 275.5,311.5C 260.479,311.138 245.479,310.471 230.5,309.5C 230.082,308.778 229.416,308.278 228.5,308C 232.152,307.501 235.818,307.335 239.5,307.5 Z"/></g>
<g><path style="opacity:1" fill="#474747" d="M 297.5,308.5 C 300.613,311.365 304.279,313.198 308.5,314C 297.765,320.025 287.432,326.525 277.5,333.5C 276.033,334.292 274.7,334.292 273.5,333.5C 273.808,332.692 274.308,332.025 275,331.5C 275.637,323.595 275.471,321.928 274.5,326.5C 272.278,326.178 270.444,326.845 269,328.5C 268.728,331.254 268.228,333.921 267.5,336.5C 266.778,336.918 266.278,337.584 266,338.5C 264.731,337.095 264.231,335.429 264.5,333.5C 262.143,333.337 259.81,333.503 257.5,334C 256.874,334.75 256.374,335.584 256,336.5C 250.313,331.572 243.813,328.072 236.5,326C 232.124,321.749 229.457,316.582 228.5,310.5C 228.957,309.702 229.624,309.369 230.5,309.5C 245.479,310.471 260.479,311.138 275.5,311.5C 280.235,312.325 284.902,311.992 289.5,310.5C 291.961,309.469 294.627,308.802 297.5,308.5 Z"/></g>
<g><path style="opacity:1" fill="#000000" d="M 275.5,311.5 C 279.97,310.514 284.637,310.181 289.5,310.5C 284.902,311.992 280.235,312.325 275.5,311.5 Z"/></g>
<g><path style="opacity:1" fill="#910c11" d="M 194.5,311.5 C 197.473,312.987 200.473,314.487 203.5,316C 200.228,316.437 198.561,318.27 198.5,321.5C 195.083,319.164 193.749,315.831 194.5,311.5 Z"/></g>
<g><path style="opacity:1" fill="#000000" d="M 236.5,313.5 C 236.56,312.957 236.893,312.624 237.5,312.5C 240.788,314.428 244.121,316.261 247.5,318C 243.534,317.396 239.867,315.896 236.5,313.5 Z"/></g>
<g><path style="opacity:1" fill="#fefffe" d="M 347.5,312.5 C 348.043,312.56 348.376,312.893 348.5,313.5C 343.179,317.489 338.179,321.822 333.5,326.5C 332.692,326.192 332.025,325.692 331.5,325C 337.02,320.97 342.353,316.803 347.5,312.5 Z"/></g>
<g><path style="opacity:1" fill="#000000" d="M 293.5,315.5 C 295.549,315.706 295.883,316.539 294.5,318C 288.096,321.735 282.263,326.235 277,331.5C 277.472,327.982 279.306,325.149 282.5,323C 286.345,320.637 290.011,318.137 293.5,315.5 Z"/></g>
<g><path style="opacity:1" fill="#f9a884" d="M 322.5,320.5 C 323.629,324.342 326.129,327.009 330,328.5C 333.47,327.371 334.804,328.705 334,332.5C 328.167,336.333 322.333,340.167 316.5,344C 314.803,344.384 313.137,344.218 311.5,343.5C 309.913,340.732 308.08,338.065 306,335.5C 304.929,331.796 304.762,328.129 305.5,324.5C 306.325,323.614 307.325,323.281 308.5,323.5C 307.123,330.877 308.956,337.21 314,342.5C 313.673,339.458 312.34,336.791 310,334.5C 309.8,330.247 309.3,326.08 308.5,322C 309.253,320.513 310.086,320.346 311,321.5C 310.965,328.739 313.632,334.739 319,339.5C 316.561,335.956 314.561,331.956 313,327.5C 312.097,323.967 312.43,320.633 314,317.5C 314.643,325.114 318.143,331.114 324.5,335.5C 324.833,335.333 325.167,335.167 325.5,335C 322.296,332.131 319.463,328.965 317,325.5C 316.223,322.571 316.39,319.737 317.5,317C 318.635,316.251 319.635,316.417 320.5,317.5C 320.942,318.739 321.609,319.739 322.5,320.5 Z"/></g>
<g><path style="opacity:1" fill="#910c11" d="M 347.5,316.5 C 349.104,317.287 349.771,318.62 349.5,320.5C 345.421,320.466 344.754,319.133 347.5,316.5 Z"/></g>
<g><path style="opacity:1" fill="#910c11" d="M 209.5,331.5 C 206.027,329.363 203.694,326.363 202.5,322.5C 206.669,320.41 211.003,318.91 215.5,318C 213.241,319.715 211.074,321.548 209,323.5C 208.398,326.221 208.565,328.887 209.5,331.5 Z"/></g>
<g><path style="opacity:1" fill="#c2c3c2" d="M 304.5,319.5 C 297.177,324.637 289.677,329.637 282,334.5C 281.517,333.552 281.351,332.552 281.5,331.5C 289.282,327.775 296.948,323.775 304.5,319.5 Z"/></g>
<g><path style="opacity:1" fill="#000000" d="M 239.5,320.5 C 242.505,320.215 245.505,320.715 248.5,322C 245.722,323.392 242.722,323.892 239.5,323.5C 239.5,322.5 239.5,321.5 239.5,320.5 Z"/></g>
<g><path style="opacity:1" fill="#323bc8" d="M 342.5,320.5 C 344.908,321.315 345.741,322.981 345,325.5C 342.36,327.524 339.527,327.857 336.5,326.5C 338.827,324.839 340.827,322.839 342.5,320.5 Z"/></g>
<g><path style="opacity:1" fill="#000000" d="M 277.5,333.5 C 276.365,335.213 274.698,335.88 272.5,335.5C 272.694,332.67 273.361,330.004 274.5,327.5C 272.61,327.297 271.11,327.963 270,329.5C 270.03,332.361 269.197,334.695 267.5,336.5C 268.228,333.921 268.728,331.254 269,328.5C 270.444,326.845 272.278,326.178 274.5,326.5C 275.471,321.928 275.637,323.595 275,331.5C 274.308,332.025 273.808,332.692 273.5,333.5C 274.7,334.292 276.033,334.292 277.5,333.5 Z"/></g>
<g><path style="opacity:1" fill="#b57755" d="M 304.5,336.5 C 304.5,337.833 303.833,338.5 302.5,338.5C 300.973,338.427 299.973,339.094 299.5,340.5C 297.251,341.08 295.585,342.413 294.5,344.5C 290.873,347.798 286.873,350.465 282.5,352.5C 281.078,352.709 279.745,353.209 278.5,354C 277.279,356.034 275.945,357.867 274.5,359.5C 273.71,360.609 273.21,361.942 273,363.5C 268.821,360.654 265.321,357.154 262.5,353C 262.63,351.941 263.13,351.108 264,350.5C 263.951,354.987 265.784,356.321 269.5,354.5C 269.5,353.167 270.167,352.5 271.5,352.5C 273.027,352.573 274.027,351.906 274.5,350.5C 277.792,348.542 280.792,346.209 283.5,343.5C 285.819,343.008 287.819,342.008 289.5,340.5C 291.567,340.468 292.9,339.468 293.5,337.5C 293.253,336.287 292.586,335.62 291.5,335.5C 291.44,334.957 291.107,334.624 290.5,334.5C 287.971,335.96 285.304,336.46 282.5,336C 289.798,332.35 296.798,328.184 303.5,323.5C 303.651,327.559 303.984,331.892 304.5,336.5 Z"/></g>
<g><path style="opacity:1" fill="#c2c3c2" d="M 277.5,333.5 C 278.496,333.586 279.329,333.252 280,332.5C 280.138,335.469 281.638,337.135 284.5,337.5C 286.978,337.228 289.311,336.562 291.5,335.5C 291.804,336.15 292.137,336.817 292.5,337.5C 291.23,338.288 290.23,339.288 289.5,340.5C 286.911,340.461 284.911,341.461 283.5,343.5C 279.637,344.694 276.637,347.027 274.5,350.5C 272.973,350.427 271.973,351.094 271.5,352.5C 270.167,352.5 269.5,353.167 269.5,354.5C 265.782,354.633 264.782,353.133 266.5,350C 266.561,348.289 265.894,346.956 264.5,346C 262.285,345.83 260.285,345.163 258.5,344C 261.265,341.034 260.932,338.367 257.5,336C 259.25,334.681 261.25,334.181 263.5,334.5C 262.756,337.95 264.09,339.616 267.5,339.5C 267.5,338.5 267.5,337.5 267.5,336.5C 269.197,334.695 270.03,332.361 270,329.5C 271.11,327.963 272.61,327.297 274.5,327.5C 273.361,330.004 272.694,332.67 272.5,335.5C 274.698,335.88 276.365,335.213 277.5,333.5 Z"/></g>
<g><path style="opacity:1" fill="#fefffe" d="M 241.5,332.5 C 240.041,332.567 238.708,332.234 237.5,331.5C 238.908,329.14 240.241,329.474 241.5,332.5 Z"/></g>
<g><path style="opacity:1" fill="#fefffe" d="M 237.5,331.5 C 236.817,333.176 235.483,333.843 233.5,333.5C 232.462,331.892 233.129,330.892 235.5,330.5C 236.183,330.863 236.85,331.196 237.5,331.5 Z"/></g>
<g><path style="opacity:1" fill="#910c11" d="M 209.5,331.5 C 213.338,333.994 216.005,337.327 217.5,341.5C 214.46,338.461 211.794,335.127 209.5,331.5 Z"/></g>
<g><path style="opacity:1" fill="#000000" d="M 237.5,331.5 C 238.708,332.234 240.041,332.567 241.5,332.5C 241.5,333.5 241.5,334.5 241.5,335.5C 240.167,332.833 238.833,332.833 237.5,335.5C 237.167,335.5 236.833,335.5 236.5,335.5C 235.5,334.833 234.5,334.167 233.5,333.5C 235.483,333.843 236.817,333.176 237.5,331.5 Z"/></g>
<g><path style="opacity:1" fill="#3035ac" d="M 231.5,359.5 C 231.108,357.821 230.608,356.154 230,354.5C 227.546,352.559 225.713,350.225 224.5,347.5C 223.914,344.134 224.914,343.8 227.5,346.5C 229.212,350.308 232.212,352.308 236.5,352.5C 236.523,347.875 234.523,344.542 230.5,342.5C 229.624,342.631 228.957,342.298 228.5,341.5C 230.188,340.479 231.521,339.145 232.5,337.5C 233.167,337.5 233.833,337.5 234.5,337.5C 236.819,340.651 239.653,343.318 243,345.5C 244.882,345.312 246.048,344.312 246.5,342.5C 245.231,339.895 243.564,337.562 241.5,335.5C 241.5,334.5 241.5,333.5 241.5,332.5C 243.135,331.185 244.801,331.185 246.5,332.5C 250.676,335.088 254.676,337.921 258.5,341C 252.302,347.532 245.802,353.699 239,359.5C 237.133,361.808 236.133,364.475 236,367.5C 233.205,365.707 230.705,363.54 228.5,361C 229.737,360.768 230.737,360.268 231.5,359.5 Z"/></g>
<g><path style="opacity:1" fill="#fefffe" d="M 233.5,333.5 C 234.5,334.167 235.5,334.833 236.5,335.5C 234.62,335.229 233.287,335.896 232.5,337.5C 230.833,338.167 229.167,338.833 227.5,339.5C 227.082,338.778 226.416,338.278 225.5,338C 227.008,333.92 229.675,332.42 233.5,333.5 Z"/></g>
<g><path style="opacity:1" fill="#fefffe" d="M 241.5,335.5 C 243.564,337.562 245.231,339.895 246.5,342.5C 246.048,344.312 244.882,345.312 243,345.5C 239.653,343.318 236.819,340.651 234.5,337.5C 235.167,336.833 235.833,336.167 236.5,335.5C 236.833,335.5 237.167,335.5 237.5,335.5C 238.833,332.833 240.167,332.833 241.5,335.5 Z"/></g>
<g><path style="opacity:1" fill="#000000" d="M 236.5,335.5 C 235.833,336.167 235.167,336.833 234.5,337.5C 233.833,337.5 233.167,337.5 232.5,337.5C 233.287,335.896 234.62,335.229 236.5,335.5 Z"/></g>
<g><path style="opacity:1" fill="#000000" d="M 237.5,335.5 C 239.797,336.835 241.797,338.668 243.5,341C 241.583,340.973 239.916,340.139 238.5,338.5C 237.614,337.675 237.281,336.675 237.5,335.5 Z"/></g>
<g><path style="opacity:1" fill="#000000" d="M 291.5,335.5 C 292.586,335.62 293.253,336.287 293.5,337.5C 292.9,339.468 291.567,340.468 289.5,340.5C 290.23,339.288 291.23,338.288 292.5,337.5C 292.137,336.817 291.804,336.15 291.5,335.5 Z"/></g>
<g><path style="opacity:1" fill="#fefffe" d="M 304.5,336.5 C 305.782,337.708 305.782,339.042 304.5,340.5C 299.355,343.811 295.022,347.978 291.5,353C 292.167,353.667 292.833,353.667 293.5,353C 296.743,347.734 301.076,344.068 306.5,342C 303.882,344.106 301.882,346.606 300.5,349.5C 283.838,361.647 281.838,359.98 294.5,344.5C 296.749,343.92 298.415,342.587 299.5,340.5C 301.027,340.573 302.027,339.906 302.5,338.5C 303.833,338.5 304.5,337.833 304.5,336.5 Z"/></g>
<g><path style="opacity:1" fill="#7e7f7e" d="M 302.5,363.5 C 309.161,358.879 310.161,353.212 305.5,346.5C 306.51,342.365 308.51,341.365 311.5,343.5C 313.301,348.475 316.134,352.808 320,356.5C 319.492,352.978 317.992,349.812 315.5,347C 320.435,344.394 325.102,341.394 329.5,338C 330.5,337.333 331.5,337.333 332.5,338C 337.174,342.514 339.84,348.014 340.5,354.5C 333.236,380.738 329.902,407.404 330.5,434.5C 322.03,438.761 314.196,437.761 307,431.5C 307.047,422.999 307.547,414.499 308.5,406C 308.167,404.5 307.833,403 307.5,401.5C 306.621,405.154 305.787,408.821 305,412.5C 305.033,399.311 304.866,386.144 304.5,373C 304.858,370.968 305.692,369.134 307,367.5C 310,365.167 313,362.833 316,360.5C 316.483,359.552 316.649,358.552 316.5,357.5C 312.39,360.549 307.723,362.549 302.5,363.5 Z"/></g>
<g><path style="opacity:1" fill="#000000" d="M 276.5,338.5 C 277.043,338.56 277.376,338.893 277.5,339.5C 276.24,340.382 275.074,341.382 274,342.5C 273.814,344.9 273.314,347.234 272.5,349.5C 271.541,346.706 269.875,343.873 267.5,341C 270.201,341.031 271.701,342.531 272,345.5C 272.145,342.207 273.645,339.874 276.5,338.5 Z"/></g>
<g><path style="opacity:1" fill="#000000" d="M 302.5,338.5 C 302.027,339.906 301.027,340.573 299.5,340.5C 299.973,339.094 300.973,338.427 302.5,338.5 Z"/></g>
<g><path style="opacity:1" fill="#fefffe" d="M 227.5,339.5 C 227.5,340.5 227.5,341.5 227.5,342.5C 226.5,342.5 225.5,342.5 224.5,342.5C 223.506,340.146 224.506,339.146 227.5,339.5 Z"/></g>
<g><path style="opacity:1" fill="#000000" d="M 289.5,340.5 C 287.819,342.008 285.819,343.008 283.5,343.5C 284.911,341.461 286.911,340.461 289.5,340.5 Z"/></g>
<g><path style="opacity:1" fill="#000000" d="M 299.5,340.5 C 298.415,342.587 296.749,343.92 294.5,344.5C 295.585,342.413 297.251,341.08 299.5,340.5 Z"/></g>
<g><path style="opacity:1" fill="#fefffe" d="M 224.5,342.5 C 223.833,343.833 222.833,344.833 221.5,345.5C 221.5,343.5 222.5,342.5 224.5,342.5 Z"/></g>
<g><path style="opacity:1" fill="#fefffe" d="M 230.5,342.5 C 234.523,344.542 236.523,347.875 236.5,352.5C 232.212,352.308 229.212,350.308 227.5,346.5C 227.369,345.761 227.536,345.094 228,344.5C 236.683,352.744 237.516,352.077 230.5,342.5 Z"/></g>
<g><path style="opacity:1" fill="#000000" d="M 283.5,343.5 C 280.792,346.209 277.792,348.542 274.5,350.5C 276.637,347.027 279.637,344.694 283.5,343.5 Z"/></g>
<g><path style="opacity:1" fill="#fefffe" d="M 221.5,345.5 C 221.217,346.289 220.717,346.956 220,347.5C 219.472,346.184 219.972,345.517 221.5,345.5 Z"/></g>
<g><path style="opacity:1" fill="#f9a884" d="M 256.5,345.5 C 258.764,346.219 261.097,346.552 263.5,346.5C 261.914,349.271 261.414,352.271 262,355.5C 266.626,360.306 271.626,364.639 277,368.5C 277.483,369.448 277.649,370.448 277.5,371.5C 271.653,372.16 267.487,369.827 265,364.5C 265.597,368.778 268.097,371.611 272.5,373C 271.034,373.635 269.7,374.469 268.5,375.5C 264.914,374.081 262.081,371.748 260,368.5C 260.93,371.954 263.097,374.621 266.5,376.5C 265.564,377.974 264.23,378.974 262.5,379.5C 261.088,378.194 259.421,377.36 257.5,377C 254.635,370.901 254.135,371.067 256,377.5C 257.845,378.05 259.345,379.05 260.5,380.5C 260.192,381.308 259.692,381.975 259,382.5C 254.344,381.839 250.344,379.839 247,376.5C 244.503,372.306 241.67,368.472 238.5,365C 239.624,362.589 241.124,360.422 243,358.5C 248.003,354.664 252.503,350.33 256.5,345.5 Z"/></g>
<g><path style="opacity:1" fill="#4e4f4e" d="M 305.5,346.5 C 310.161,353.212 309.161,358.879 302.5,363.5C 298.891,361.696 295.224,359.862 291.5,358C 295,355.666 298,352.832 300.5,349.5C 301.922,348.075 303.589,347.075 305.5,346.5 Z"/></g>
<g><path style="opacity:1" fill="#fefffe" d="M 224.5,347.5 C 225.713,350.225 227.546,352.559 230,354.5C 230.608,356.154 231.108,357.821 231.5,359.5C 228.141,359.302 226.308,357.635 226,354.5C 227,355.5 228,356.5 229,357.5C 229.163,355.613 228.329,354.113 226.5,353C 225.175,353.148 224.008,352.982 223,352.5C 222.598,351.128 222.098,349.795 221.5,348.5C 222.325,347.614 223.325,347.281 224.5,347.5 Z"/></g>
<g><path style="opacity:1" fill="#000000" d="M 274.5,350.5 C 274.027,351.906 273.027,352.573 271.5,352.5C 271.973,351.094 272.973,350.427 274.5,350.5 Z"/></g>
<g><path style="opacity:1" fill="#fec90d" d="M 282.5,352.5 C 283.873,352.343 285.207,352.51 286.5,353C 285.57,354.194 284.903,355.527 284.5,357C 286.003,358.921 286.669,361.088 286.5,363.5C 283.587,364.558 280.754,365.891 278,367.5C 277.333,366.5 277.333,365.5 278,364.5C 281.15,361.893 281.317,359.06 278.5,356C 280.093,355.051 281.426,353.885 282.5,352.5 Z"/></g>
<g><path style="opacity:1" fill="#fec90d" d="M 274.5,359.5 C 275.117,359.389 275.617,359.056 276,358.5C 276.465,359.931 277.299,361.097 278.5,362C 276.314,363.398 274.981,362.564 274.5,359.5 Z"/></g>
<g><path style="opacity:1" fill="#7e7f7e" d="M 223.5,359.5 C 227.332,363.164 231.332,366.664 235.5,370C 230.748,372.748 226.581,376.248 223,380.5C 222.501,373.486 222.668,366.486 223.5,359.5 Z"/></g>
<g><path style="opacity:1" fill="#b87a56" d="M 240.5,370.5 C 243.302,373.476 245.969,376.642 248.5,380C 252.035,381.706 255.702,383.04 259.5,384C 255.558,392.854 251.058,401.354 246,409.5C 244.237,409.025 242.57,408.358 241,407.5C 235.324,400.139 230.157,392.473 225.5,384.5C 226.897,381.594 228.897,379.094 231.5,377C 234.921,375.301 237.921,373.135 240.5,370.5 Z"/></g>
<g><path style="opacity:1" fill="#7e7f7e" d="M 221.5,386.5 C 227.251,394.765 233.251,402.932 239.5,411C 242,411.5 244.5,412 247,412.5C 248.89,412.215 250.223,411.215 251,409.5C 249.482,417.544 246.649,425.211 242.5,432.5C 236.085,435.802 230.252,435.135 225,430.5C 221.205,424.6 218.871,418.267 218,411.5C 219.357,415.746 221.19,419.746 223.5,423.5C 223.833,423 224.167,422.5 224.5,422C 223.162,418.65 221.829,415.316 220.5,412C 221.483,403.585 221.817,395.085 221.5,386.5 Z"/></g>
<g><path style="opacity:1" fill="#fec90d" d="M 295.5,386.5 C 296.586,386.62 297.253,387.287 297.5,388.5C 296.808,391.936 295.808,395.27 294.5,398.5C 294.167,397.833 293.833,397.167 293.5,396.5C 294.488,393.218 295.154,389.885 295.5,386.5 Z"/></g>
<g><path style="opacity:1" fill="#2c2d2c" d="M 306.5,435.5 C 311.872,439.676 317.872,441.01 324.5,439.5C 326.102,442.338 326.602,445.338 326,448.5C 318.153,452.902 310.653,452.402 303.5,447C 305.007,443.31 306.007,439.476 306.5,435.5 Z"/></g>
</svg>
