<?xml version="1.0" encoding="UTF-8"?>
<!DOCTYPE svg PUBLIC "-//W3C//DTD SVG 1.1//EN" "http://www.w3.org/Graphics/SVG/1.1/DTD/svg11.dtd">
<svg xmlns="http://www.w3.org/2000/svg" version="1.1" width="440px" height="495px" style="shape-rendering:geometricPrecision; text-rendering:geometricPrecision; image-rendering:optimizeQuality; fill-rule:evenodd; clip-rule:evenodd" xmlns:xlink="http://www.w3.org/1999/xlink">
<g><path style="opacity:1" fill="#fefffe" d="M 276.5,74.5 C 294.093,70.2605 300.927,76.9272 297,94.5C 294.872,97.6301 292.372,100.463 289.5,103C 293.23,105.023 297.063,106.856 301,108.5C 301.923,114.5 301.423,120.334 299.5,126C 304.916,124.496 310.583,124.163 316.5,125C 317.38,126.356 317.714,127.856 317.5,129.5C 321.846,129.334 326.179,129.501 330.5,130C 337.663,137.279 340.663,146.113 339.5,156.5C 340.646,157.145 341.646,157.978 342.5,159C 355.807,159.991 368.141,163.991 379.5,171C 382.215,182.949 380.381,194.116 374,204.5C 367.483,211.874 362.817,220.207 360,229.5C 358.253,234.522 355.42,238.688 351.5,242C 353.041,243.579 354.208,245.413 355,247.5C 356.178,252.543 357.511,257.543 359,262.5C 359.667,267.833 359.667,273.167 359,278.5C 354.868,285.416 348.701,288.583 340.5,288C 338.996,289.491 338.163,291.324 338,293.5C 336.964,301.794 336.464,310.128 336.5,318.5C 336.519,330.558 337.186,342.558 338.5,354.5C 338.44,360.024 338.106,365.524 337.5,371C 339.826,379.305 341.159,387.805 341.5,396.5C 342.086,396.709 342.586,397.043 343,397.5C 343.667,402.5 343.667,407.5 343,412.5C 335.34,421.83 325.506,424.997 313.5,422C 311.192,419.64 309.692,416.806 309,413.5C 308.667,409.167 308.333,404.833 308,400.5C 307.092,398.561 305.592,397.561 303.5,397.5C 303.183,388.582 303.516,379.749 304.5,371C 303.626,365.9 302.959,360.734 302.5,355.5C 297.821,355.666 293.155,355.499 288.5,355C 288,354.5 287.5,354 287,353.5C 285.369,346.547 284.036,339.547 283,332.5C 281.436,337.652 278.436,341.652 274,344.5C 273.551,356.133 271.551,367.467 268,378.5C 267.667,385.5 267.333,392.5 267,399.5C 266.586,399.957 266.086,400.291 265.5,400.5C 264.672,405.132 264.172,409.798 264,414.5C 262.498,417.018 260.998,419.518 259.5,422C 243.754,422.837 228.088,422.17 212.5,420C 206.719,417.106 204.386,412.439 205.5,406C 205.833,403.5 206.167,401 206.5,398.5C 212.383,397.478 218.05,395.645 223.5,393C 225.377,390.749 226.877,388.249 228,385.5C 232.071,364.376 234.404,343.043 235,321.5C 241.297,313.749 246.463,305.249 250.5,296C 246.544,293.038 243.711,289.204 242,284.5C 241.269,276.798 241.436,269.131 242.5,261.5C 236.158,261.666 229.825,261.5 223.5,261C 219.22,259.053 215.887,256.053 213.5,252C 210.392,249.894 207.059,248.228 203.5,247C 202.232,243.851 199.898,241.851 196.5,241C 175.624,231.45 154.291,223.117 132.5,216C 129.249,214.814 127.082,212.648 126,209.5C 115.098,203.795 103.598,199.962 91.5,198C 89.0143,194.515 86.181,191.348 83,188.5C 64.9536,184.262 47.4536,178.429 30.5,171C 28.3762,169.878 26.5429,168.378 25,166.5C 24.5012,162.514 24.3345,158.514 24.5,154.5C 30.1764,154.334 35.8431,154.501 41.5,155C 60.4642,160.158 79.4642,165.158 98.5,170C 100.964,172.252 103.631,174.252 106.5,176C 146.683,190.984 186.017,206.484 224.5,222.5C 228.93,223.42 233.263,224.754 237.5,226.5C 239.029,226.471 240.196,225.804 241,224.5C 241.169,218.509 241.003,212.509 240.5,206.5C 241.864,195.218 242.698,183.885 243,172.5C 244.61,168.388 247.444,165.388 251.5,163.5C 251.192,162.692 250.692,162.025 250,161.5C 249.825,157.789 249.325,154.122 248.5,150.5C 247.522,150.023 246.689,149.357 246,148.5C 245.824,145.118 245.324,141.785 244.5,138.5C 240.112,137.094 238.445,134.094 239.5,129.5C 238.677,122.66 241.677,119.993 248.5,121.5C 247.916,118.017 248.749,115.017 251,112.5C 253.037,105.325 254.704,97.9919 256,90.5C 256.833,89.6667 257.667,88.8333 258.5,88C 262.486,87.5012 266.486,87.3345 270.5,87.5C 271.692,82.783 273.692,78.4496 276.5,74.5 Z"/></g>
<g><path style="opacity:1" fill="#000001" d="M 279.5,77.5 C 291.1,75.2674 295.933,79.9341 294,91.5C 290.5,95.6667 287,99.8333 283.5,104C 287.925,107.255 292.758,109.755 298,111.5C 298.142,117.61 297.308,123.61 295.5,129.5C 300.5,128.5 302.5,130.5 301.5,135.5C 302.5,135.5 303.5,135.5 304.5,135.5C 303.405,127.704 306.572,125.37 314,128.5C 314.192,130.577 314.692,132.577 315.5,134.5C 319.336,132.687 323.336,132.187 327.5,133C 334.663,140.279 337.663,149.113 336.5,159.5C 337.646,160.145 338.646,160.978 339.5,162C 353.077,162.97 365.577,167.137 377,174.5C 378.035,181.355 377.368,188.022 375,194.5C 369.667,202.5 364.333,210.5 359,218.5C 357.801,224.904 355.468,230.904 352,236.5C 349.734,237.956 347.234,238.79 344.5,239C 343.594,240.699 343.261,242.533 343.5,244.5C 346.044,244.104 348.211,244.771 350,246.5C 354.072,255.78 356.072,265.447 356,275.5C 354.285,277.759 352.452,279.926 350.5,282C 345.503,283.239 340.67,284.739 336,286.5C 335.055,290.114 334.388,293.781 334,297.5C 333.769,305.195 333.269,312.862 332.5,320.5C 333.344,331.857 334.344,343.19 335.5,354.5C 335.333,360.011 335,365.511 334.5,371C 335.81,376.582 336.81,382.249 337.5,388C 337.167,389.833 336.833,391.667 336.5,393.5C 335.155,394.347 334.155,395.513 333.5,397C 335.649,398.164 337.815,399.33 340,400.5C 340.667,403.5 340.667,406.5 340,409.5C 334.187,417.485 326.354,420.651 316.5,419C 314.192,416.64 312.692,413.806 312,410.5C 311.667,406.167 311.333,401.833 311,397.5C 310.092,395.561 308.592,394.561 306.5,394.5C 306.285,386.64 306.618,378.807 307.5,371C 306.546,359.686 304.713,348.52 302,337.5C 301.667,341.833 301.333,346.167 301,350.5C 298.159,352.504 294.993,353.004 291.5,352C 290.299,351.097 289.465,349.931 289,348.5C 287.76,339.53 286.76,330.53 286,321.5C 281.875,326.301 278.542,331.635 276,337.5C 274.622,339.213 272.955,340.547 271,341.5C 270.297,355.682 267.797,369.515 263.5,383C 264.579,387.458 264.746,391.958 264,396.5C 263,397.167 262,397.833 261,398.5C 262.825,406.13 261.325,412.964 256.5,419C 249.5,419.667 242.5,419.667 235.5,419C 234.5,418.5 233.5,418 232.5,417.5C 224.878,419.565 217.878,418.399 211.5,414C 208.472,410.277 207.806,406.111 209.5,401.5C 215.383,400.478 221.05,398.645 226.5,396C 228.377,393.749 229.877,391.249 231,388.5C 235.071,367.376 237.404,346.043 238,324.5C 245.168,315.669 250.668,305.836 254.5,295C 251.699,292.526 249.199,289.693 247,286.5C 244.586,280.388 243.919,274.054 245,267.5C 249.181,262.541 248.181,259.207 242,257.5C 231.175,261.127 222.675,258.294 216.5,249C 213.392,246.894 210.059,245.228 206.5,244C 205.232,240.851 202.898,238.851 199.5,238C 178.624,228.45 157.291,220.117 135.5,213C 132.249,211.814 130.082,209.648 129,206.5C 118.098,200.795 106.598,196.962 94.5,195C 92.0143,191.515 89.181,188.348 86,185.5C 67.9536,181.262 50.4536,175.429 33.5,168C 28.7168,166.058 26.7168,162.558 27.5,157.5C 31.1817,157.335 34.8484,157.501 38.5,158C 57.4642,163.158 76.4642,168.158 95.5,173C 97.9645,175.252 100.631,177.252 103.5,179C 143.683,193.984 183.017,209.484 221.5,225.5C 227.662,226.909 233.662,228.909 239.5,231.5C 241.149,230.352 242.649,229.019 244,227.5C 244.566,220.489 244.4,213.489 243.5,206.5C 244.964,196.227 245.797,185.894 246,175.5C 247.077,172.087 249.244,169.587 252.5,168C 254.677,166.798 257.011,166.298 259.5,166.5C 259.5,164.833 259.5,163.167 259.5,161.5C 252.786,160.828 250.786,157.328 253.5,151C 252.648,148.638 251.148,146.805 249,145.5C 247.925,141.933 248.758,138.933 251.5,136.5C 248.266,135.959 245.433,134.626 243,132.5C 241.673,125.663 244.507,122.996 251.5,124.5C 250.916,121.017 251.749,118.017 254,115.5C 256.037,108.325 257.704,100.992 259,93.5C 263.261,89.5773 267.594,89.5773 272,93.5C 273.711,87.7478 276.211,82.4145 279.5,77.5 Z"/></g>
<g><path style="opacity:1" fill="#edeeed" d="M 282.5,81.5 C 286.925,80.7566 289.592,82.5899 290.5,87C 288.102,91.4045 284.935,95.2378 281,98.5C 280.185,100.623 279.185,102.623 278,104.5C 276.536,103.541 275.703,102.208 275.5,100.5C 276.455,93.6318 278.789,87.2985 282.5,81.5 Z"/></g>
<g><path style="opacity:1" fill="#fe7f26" d="M 273.5,104.5 C 275.411,105.075 277.078,106.075 278.5,107.5C 278.804,108.15 279.137,108.817 279.5,109.5C 278.476,110.852 277.476,112.185 276.5,113.5C 275.833,113.5 275.5,113.833 275.5,114.5C 269.76,112.203 269.093,108.87 273.5,104.5 Z"/></g>
<g><path style="opacity:1" fill="#1f1f2e" d="M 276.5,113.5 C 277.476,112.185 278.476,110.852 279.5,109.5C 279.137,108.817 278.804,108.15 278.5,107.5C 278.56,106.957 278.893,106.624 279.5,106.5C 283.553,110.864 288.553,113.697 294.5,115C 292.368,121.321 290.868,127.821 290,134.5C 289.692,135.308 289.192,135.975 288.5,136.5C 285.323,135.563 282.657,133.896 280.5,131.5C 279.591,125.363 278.257,119.363 276.5,113.5 Z"/></g>
<g><path style="opacity:1" fill="#000000" d="M 273.5,107.5 C 276.861,108.203 277.194,109.537 274.5,111.5C 272.358,110.563 272.024,109.23 273.5,107.5 Z"/></g>
<g><path style="opacity:1" fill="#13121c" d="M 273.5,104.5 C 269.093,108.87 269.76,112.203 275.5,114.5C 276.165,119.157 276.831,123.823 277.5,128.5C 277.449,130.1 277.116,131.6 276.5,133C 271.581,131.733 266.414,130.9 261,130.5C 257.173,131.239 253.34,131.406 249.5,131C 248.833,130.333 248.167,129.667 247.5,129C 249.833,128.667 252.167,128.333 254.5,128C 255.823,127.184 256.489,126.017 256.5,124.5C 256.5,123.833 256.833,123.5 257.5,123.5C 258.492,123.672 259.158,123.338 259.5,122.5C 259.5,121.833 259.833,121.5 260.5,121.5C 261.5,121.167 262.167,120.5 262.5,119.5C 263.512,117.9 263.012,116.566 261,115.5C 260.617,116.056 260.117,116.389 259.5,116.5C 258.876,116.083 258.543,115.416 258.5,114.5C 260.356,110.07 261.522,105.403 262,100.5C 262.648,94.4404 264.982,93.4404 269,97.5C 270.026,100.239 271.526,102.572 273.5,104.5 Z"/></g>
<g><path style="opacity:1" fill="#edeeed" d="M 265.5,109.5 C 267.099,110.799 267.599,112.465 267,114.5C 264.676,113.225 264.176,111.558 265.5,109.5 Z"/></g>
<g><path style="opacity:1" fill="#edeeed" d="M 267.5,107.5 C 269.344,108.204 269.844,109.537 269,111.5C 267.812,110.437 267.312,109.103 267.5,107.5 Z"/></g>
<g><path style="opacity:1" fill="#edeeed" d="M 262.5,112.5 C 264.728,113.322 265.395,114.655 264.5,116.5C 262.889,115.68 262.222,114.346 262.5,112.5 Z"/></g>
<g><path style="opacity:1" fill="#edeeed" d="M 262.5,119.5 C 260.856,119.19 259.856,118.19 259.5,116.5C 260.117,116.389 260.617,116.056 261,115.5C 263.012,116.566 263.512,117.9 262.5,119.5 Z"/></g>
<g><path style="opacity:1" fill="#edeeed" d="M 257.5,123.5 C 256.833,123.5 256.5,123.833 256.5,124.5C 254.076,122.772 253.91,120.772 256,118.5C 256.608,120.154 257.108,121.821 257.5,123.5 Z"/></g>
<g><path style="opacity:1" fill="#edeeed" d="M 260.5,121.5 C 259.833,121.5 259.5,121.833 259.5,122.5C 257.912,121.365 257.579,120.031 258.5,118.5C 259.425,119.357 260.092,120.357 260.5,121.5 Z"/></g>
<g><path style="opacity:1" fill="#eef0e0" d="M 308.5,130.5 C 309.496,130.414 310.329,130.748 311,131.5C 311.652,138.139 313.985,144.139 318,149.5C 318.499,153.486 318.666,157.486 318.5,161.5C 316.801,161.66 315.134,161.494 313.5,161C 314.674,156.19 314.508,151.357 313,146.5C 308.229,141.991 306.729,136.658 308.5,130.5 Z"/></g>
<g><path style="opacity:1" fill="#9a5c32" d="M 259.5,133.5 C 258.833,133.5 258.167,133.5 257.5,133.5C 256.127,133.657 254.793,133.49 253.5,133C 255.218,132.654 256.885,132.154 258.5,131.5C 259.298,131.957 259.631,132.624 259.5,133.5 Z"/></g>
<g><path style="opacity:1" fill="#e58208" d="M 264.5,143.5 C 263.833,143.5 263.167,143.5 262.5,143.5C 262.209,140.963 262.042,138.296 262,135.5C 261.617,134.944 261.117,134.611 260.5,134.5C 260.5,133.5 260.5,132.5 260.5,131.5C 263.216,131.678 265.883,132.178 268.5,133C 267.549,136.057 267.216,139.223 267.5,142.5C 266.209,142.263 265.209,142.596 264.5,143.5 Z"/></g>
<g><path style="opacity:1" fill="#fec096" d="M 270.5,132.5 C 274.775,134.316 275.608,137.316 273,141.5C 269.685,144.607 268.185,143.774 268.5,139C 268.338,136.498 269.005,134.331 270.5,132.5 Z"/></g>
<g><path style="opacity:1" fill="#eef0e0" d="M 278.5,132.5 C 279.496,132.414 280.329,132.748 281,133.5C 281.176,136.882 281.676,140.215 282.5,143.5C 284.499,145.493 285.999,147.827 287,150.5C 287.588,155.528 287.422,160.528 286.5,165.5C 285.022,165.762 283.689,165.429 282.5,164.5C 285.232,156.042 283.232,149.042 276.5,143.5C 277.168,139.803 277.835,136.137 278.5,132.5 Z"/></g>
<g><path style="opacity:1" fill="#eef0e0" d="M 295.5,132.5 C 296.496,132.414 297.329,132.748 298,133.5C 298.333,135.833 298.667,138.167 299,140.5C 301.403,142.305 303.07,144.638 304,147.5C 304.432,152.846 304.266,158.18 303.5,163.5C 299.252,164.1 298.085,162.767 300,159.5C 300.667,155.833 300.667,152.167 300,148.5C 298.333,146.167 296.667,143.833 295,141.5C 294.264,138.408 294.431,135.408 295.5,132.5 Z"/></g>
<g><path style="opacity:1" fill="#fefffe" d="M 257.5,133.5 C 258.167,133.5 258.833,133.5 259.5,133.5C 259.5,133.833 259.5,134.167 259.5,134.5C 258.713,136.104 257.38,136.771 255.5,136.5C 256.167,135.5 256.833,134.5 257.5,133.5 Z"/></g>
<g><path style="opacity:1" fill="#e58208" d="M 275.5,134.5 C 276.742,137.74 276.576,141.074 275,144.5C 274.5,144 274,143.5 273.5,143C 275.179,140.435 275.846,137.602 275.5,134.5 Z"/></g>
<g><path style="opacity:1" fill="#e8ad86" d="M 259.5,134.5 C 259.833,134.5 260.167,134.5 260.5,134.5C 261.117,134.611 261.617,134.944 262,135.5C 262.042,138.296 262.209,140.963 262.5,143.5C 261.409,148.531 261.409,153.531 262.5,158.5C 256.029,158.891 254.362,156.391 257.5,151C 255.37,148.274 255.703,145.608 258.5,143C 256.893,142.885 255.393,143.385 254,144.5C 252.72,144.387 251.887,143.72 251.5,142.5C 253.278,140.736 254.611,138.736 255.5,136.5C 257.38,136.771 258.713,136.104 259.5,134.5 Z"/></g>
<g><path style="opacity:1" fill="#000000" d="M 270.5,135.5 C 272.898,136.882 273.065,138.549 271,140.5C 270.506,138.866 270.34,137.199 270.5,135.5 Z"/></g>
<g><path style="opacity:1" fill="#e58208" d="M 282.5,135.5 C 285.151,136.49 287.817,137.49 290.5,138.5C 287.478,138.928 284.978,140.261 283,142.5C 282.503,140.19 282.337,137.857 282.5,135.5 Z"/></g>
<g><path style="opacity:1" fill="#6a6b9c" d="M 322.5,136.5 C 324.017,136.511 325.184,137.177 326,138.5C 331.071,144.91 332.904,152.244 331.5,160.5C 327.481,160.646 323.481,160.979 319.5,161.5C 320.947,153.018 318.947,145.518 313.5,139C 316.63,139.131 319.63,138.297 322.5,136.5 Z"/></g>
<g><path style="opacity:1" fill="#6a6b9c" d="M 304.5,138.5 C 312.27,144.564 314.937,152.564 312.5,162.5C 309.833,162.5 307.167,162.5 304.5,162.5C 305.442,157.195 305.609,151.861 305,146.5C 304.086,144.336 302.919,142.336 301.5,140.5C 302.602,139.824 303.602,139.158 304.5,138.5 Z"/></g>
<g><path style="opacity:1" fill="#6a6b9c" d="M 286.5,140.5 C 288.527,140.338 290.527,140.505 292.5,141C 294.667,143.833 296.833,146.667 299,149.5C 299.778,154.331 299.278,158.997 297.5,163.5C 294.148,164.553 290.815,164.553 287.5,163.5C 289.541,156.312 288.541,149.645 284.5,143.5C 285.193,142.482 285.859,141.482 286.5,140.5 Z"/></g>
<g><path style="opacity:1" fill="#6a6b9c" d="M 264.5,143.5 C 269.737,144.235 272.904,147.235 274,152.5C 274.667,155.833 274.667,159.167 274,162.5C 273.313,164.555 272.146,166.221 270.5,167.5C 269.081,166.995 268.415,165.995 268.5,164.5C 262.326,158.462 260.993,151.462 264.5,143.5 Z"/></g>
<g><path style="opacity:1" fill="#6a6b9c" d="M 271.5,145.5 C 275.809,144.416 278.976,146.082 281,150.5C 282.767,155.773 282.934,161.106 281.5,166.5C 278.653,166.782 275.987,166.782 273.5,166.5C 275.485,161.689 275.985,156.689 275,151.5C 274.576,148.975 273.41,146.975 271.5,145.5 Z"/></g>
<g><path style="opacity:1" fill="#000000" d="M 268.5,164.5 C 272.559,159.02 271.892,154.02 266.5,149.5C 265.713,150.242 265.047,151.075 264.5,152C 265.67,154.185 266.836,156.351 268,158.5C 268.556,156.405 269.056,156.238 269.5,158C 268.746,161.088 267.58,161.254 266,158.5C 265.305,156.278 264.472,154.111 263.5,152C 264.342,148.827 266.175,147.994 269,149.5C 272.502,153.833 273.168,158.5 271,163.5C 270.329,164.252 269.496,164.586 268.5,164.5 Z"/></g>
<g><path style="opacity:1" fill="#eef0e0" d="M 262.5,158.5 C 264.142,161.102 265.808,163.769 267.5,166.5C 265.562,167.534 264.228,166.868 263.5,164.5C 262.844,162.547 262.511,160.547 262.5,158.5 Z"/></g>
<g><path style="opacity:1" fill="#7d7d7d" d="M 30.5,161.5 C 30.9169,160.876 31.5836,160.543 32.5,160.5C 52.1284,165.824 71.7951,170.99 91.5,176C 93.4928,176.647 95.1594,178.313 96.5,181C 99.2019,182.34 101.869,183.673 104.5,185C 103.102,187.985 100.936,190.152 98,191.5C 95.5,188.333 93,185.167 90.5,182C 69.8075,177.047 49.8075,170.214 30.5,161.5 Z"/></g>
<g><path style="opacity:1" fill="#9a5c32" d="M 325.5,162.5 C 329.516,161.9 333.016,162.9 336,165.5C 337.245,171.174 337.411,176.841 336.5,182.5C 334.271,183.577 331.937,184.244 329.5,184.5C 330.145,179.685 328.312,178.019 324,179.5C 323.506,181.134 323.34,182.801 323.5,184.5C 320.753,184.813 318.086,184.48 315.5,183.5C 312.563,177.126 309.229,170.959 305.5,165C 312.34,164.368 319.007,163.535 325.5,162.5 Z"/></g>
<g><path style="opacity:1" fill="#9a5c32" d="M 295.5,165.5 C 298.292,165.452 300.125,166.785 301,169.5C 304.637,174.764 307.137,180.43 308.5,186.5C 305.413,186.543 302.413,186.71 299.5,187C 298.133,184.699 297.466,182.199 297.5,179.5C 295.856,179.286 294.356,179.62 293,180.5C 292.231,183.099 292.398,185.599 293.5,188C 290.854,188.497 288.187,188.664 285.5,188.5C 285.666,183.821 285.499,179.155 285,174.5C 284.767,172.22 283.934,170.22 282.5,168.5C 286.943,167.4 291.276,166.4 295.5,165.5 Z"/></g>
<g><path style="opacity:1" fill="#eef0e0" d="M 300.5,165.5 C 302.144,165.286 303.644,165.62 305,166.5C 307.421,170.34 309.588,174.34 311.5,178.5C 310.167,179.833 308.833,179.833 307.5,178.5C 304.887,174.272 302.554,169.939 300.5,165.5 Z"/></g>
<g><path style="opacity:1" fill="#5b74ff" d="M 338.5,167.5 C 350.34,168.583 361.34,172.25 371.5,178.5C 372.634,182.637 372.134,186.637 370,190.5C 364.248,199.672 358.248,208.672 352,217.5C 350.77,216.725 350.437,215.725 351,214.5C 357.847,206.644 363.513,197.977 368,188.5C 368.821,185.446 368.655,182.446 367.5,179.5C 358.901,177.437 350.235,175.604 341.5,174C 338.855,172.713 337.855,170.547 338.5,167.5 Z"/></g>
<g><path style="opacity:1" fill="#eef0e0" d="M 264.5,168.5 C 266.833,168.5 269.167,168.5 271.5,168.5C 271.477,170.927 270.977,173.26 270,175.5C 267.181,173.331 264.014,171.831 260.5,171C 262.066,170.392 263.4,169.558 264.5,168.5 Z"/></g>
<g><path style="opacity:1" fill="#9a5c32" d="M 276.5,168.5 C 279.325,168.081 281.491,169.081 283,171.5C 284.289,177.088 284.789,182.755 284.5,188.5C 280.865,187.886 277.198,187.552 273.5,187.5C 272.33,181.488 272.33,175.488 273.5,169.5C 274.791,169.737 275.791,169.404 276.5,168.5 Z"/></g>
<g><path style="opacity:1" fill="#5b74ff" d="M 237.5,252.5 C 236.71,251.599 235.71,250.932 234.5,250.5C 236.5,249.833 238.5,249.167 240.5,248.5C 241.833,247.167 241.833,245.833 240.5,244.5C 237.375,243.521 234.042,243.187 230.5,243.5C 230.5,242.5 230.5,241.5 230.5,240.5C 231.5,238.833 232.833,237.5 234.5,236.5C 235.15,236.196 235.817,235.863 236.5,235.5C 239.649,238.106 242.816,238.106 246,235.5C 248.668,236.67 251.002,238.337 253,240.5C 252.107,237.564 250.274,235.064 247.5,233C 249.881,231.491 250.881,229.325 250.5,226.5C 248.04,214.211 248.374,202.044 251.5,190C 248.87,182.591 250.704,176.758 257,172.5C 259.737,173.56 262.57,174.394 265.5,175C 268.883,176.38 270.716,178.88 271,182.5C 273.003,194.702 274.836,206.702 276.5,218.5C 272.911,217.125 269.744,215.125 267,212.5C 266.47,206.419 265.47,200.419 264,194.5C 261.824,211.589 262.324,228.589 265.5,245.5C 257.022,251.953 247.689,254.286 237.5,252.5 Z"/></g>
<g><path style="opacity:1" fill="#5b74ff" d="M 350.5,199.5 C 350.21,193.678 350.877,188.012 352.5,182.5C 352.103,181.475 351.437,181.308 350.5,182C 349.031,185.969 346.364,188.802 342.5,190.5C 339.766,185.525 338.933,180.192 340,174.5C 348.411,176.608 356.911,178.442 365.5,180C 366.658,181.009 367.325,182.342 367.5,184C 365.704,191.426 362.204,197.926 357,203.5C 354.931,201.915 352.764,200.581 350.5,199.5 Z"/></g>
<g><path style="opacity:1" fill="#eef0e0" d="M 325.5,179.5 C 326.75,179.577 327.583,180.244 328,181.5C 328.913,185.362 328.58,189.028 327,192.5C 324.345,188.435 323.845,184.102 325.5,179.5 Z"/></g>
<g><path style="opacity:1" fill="#eef0e0" d="M 294.5,180.5 C 297.925,184.488 298.925,189.155 297.5,194.5C 294.388,190.193 293.388,185.527 294.5,180.5 Z"/></g>
<g><path style="opacity:1" fill="#eef0e0" d="M 309.5,180.5 C 310.822,180.33 311.989,180.663 313,181.5C 315.068,186.346 316.568,191.346 317.5,196.5C 315.833,196.5 314.167,196.5 312.5,196.5C 311.495,191.157 310.495,185.824 309.5,180.5 Z"/></g>
<g><path style="opacity:1" fill="#0d30ff" d="M 352.5,182.5 C 350.877,188.012 350.21,193.678 350.5,199.5C 352.004,201.836 354.004,203.669 356.5,205C 355.956,205.717 355.289,206.217 354.5,206.5C 352.871,205.375 351.371,204.041 350,202.5C 348.628,203.91 347.795,205.577 347.5,207.5C 350.619,209.687 351.119,212.354 349,215.5C 348.311,214.643 347.478,213.977 346.5,213.5C 345.228,208.55 344.728,203.55 345,198.5C 345.988,195.576 346.654,192.576 347,189.5C 348.853,187.097 350.686,184.764 352.5,182.5 Z"/></g>
<g><path style="opacity:1" fill="#000000" d="M 98.5,183.5 C 101.923,184.407 102.09,186.074 99,188.5C 96.3798,187.434 96.2131,185.767 98.5,183.5 Z"/></g>
<g><path style="opacity:1" fill="#9a5c32" d="M 336.5,183.5 C 341.176,193.887 343.509,204.887 343.5,216.5C 336.237,217.085 329.07,218.085 322,219.5C 321.45,208.754 319.617,198.254 316.5,188C 316.645,187.228 316.978,186.561 317.5,186C 319.473,185.505 321.473,185.338 323.5,185.5C 322.893,189.07 324.06,191.737 327,193.5C 327.772,193.355 328.439,193.022 329,192.5C 329.497,190.19 329.663,187.857 329.5,185.5C 332.152,185.59 334.485,184.924 336.5,183.5 Z"/></g>
<g><path style="opacity:1" fill="#7e7f7e" d="M 211.5,227.5 C 176.399,213.462 141.066,199.796 105.5,186.5C 105.369,185.761 105.536,185.094 106,184.5C 142.071,198.858 178.238,213.025 214.5,227C 213.552,227.483 212.552,227.649 211.5,227.5 Z"/></g>
<g><path style="opacity:1" fill="#352217" d="M 105.5,186.5 C 141.066,199.796 176.399,213.462 211.5,227.5C 212.209,228.404 213.209,228.737 214.5,228.5C 214.5,229.5 214.5,230.5 214.5,231.5C 214.946,234.01 214.28,236.01 212.5,237.5C 186.951,225.892 161.284,214.559 135.5,203.5C 124.571,199.127 113.571,194.627 102.5,190C 103.636,188.855 104.636,187.688 105.5,186.5 Z"/></g>
<g><path style="opacity:1" fill="#9a5c32" d="M 302.5,187.5 C 305.394,187.042 307.894,187.709 310,189.5C 312.634,199.692 314.134,210.025 314.5,220.5C 307.525,221.331 300.525,221.998 293.5,222.5C 293.663,220.143 293.497,217.81 293,215.5C 290.594,206.786 288.094,198.119 285.5,189.5C 288.187,189.336 290.854,189.503 293.5,190C 294.26,191.441 294.926,192.941 295.5,194.5C 296.689,195.429 298.022,195.762 299.5,195.5C 299.5,193.167 299.5,190.833 299.5,188.5C 300.791,188.737 301.791,188.404 302.5,187.5 Z"/></g>
<g><path style="opacity:1" fill="#9a5c32" d="M 274.5,188.5 C 277.833,188.833 281.167,189.167 284.5,189.5C 287.466,199.568 290.132,209.735 292.5,220C 292.441,221.436 292.108,222.769 291.5,224C 288.5,225.167 285.5,226.333 282.5,227.5C 281.194,226.088 280.36,224.421 280,222.5C 277.625,211.248 275.791,199.914 274.5,188.5 Z"/></g>
<g><path style="opacity:1" fill="#eef0e0" d="M 312.5,198.5 C 314.265,197.539 316.265,197.205 318.5,197.5C 320.138,205.762 320.638,214.095 320,222.5C 318.591,225.95 316.091,227.45 312.5,227C 315.007,223.652 316.007,219.819 315.5,215.5C 315.579,209.517 314.579,203.85 312.5,198.5 Z"/></g>
<g><path style="opacity:1" fill="#5b74ff" d="M 263.5,202.5 C 264.787,203.871 265.453,205.705 265.5,208C 266.227,219.984 267.894,231.817 270.5,243.5C 267.907,245.071 266.907,247.404 267.5,250.5C 262.648,250.505 258.648,252.338 255.5,256C 252.947,256.851 250.614,256.518 248.5,255C 254.482,252.928 260.316,250.428 266,247.5C 264.142,232.604 263.308,217.604 263.5,202.5 Z"/></g>
<g><path style="opacity:1" fill="#5b74ff" d="M 354.5,206.5 C 354.315,208.196 353.481,209.529 352,210.5C 350.871,208.859 349.371,207.859 347.5,207.5C 347.795,205.577 348.628,203.91 350,202.5C 351.371,204.041 352.871,205.375 354.5,206.5 Z"/></g>
<g><path style="opacity:1" fill="#eeffe0" d="M 135.5,203.5 C 161.284,214.559 186.951,225.892 212.5,237.5C 211.833,237.5 211.5,237.833 211.5,238.5C 187.837,227.002 163.504,217.168 138.5,209C 136.525,208.022 134.858,206.689 133.5,205C 133.836,203.97 134.503,203.47 135.5,203.5 Z"/></g>
<g><path style="opacity:1" fill="#eef0e0" d="M 345.5,214.5 C 348.843,216.184 351.51,218.517 353.5,221.5C 352.073,226.705 349.406,231.038 345.5,234.5C 344.692,234.192 344.025,233.692 343.5,233C 346.085,229.235 347.085,225.235 346.5,221C 345.5,220.667 344.5,220.333 343.5,220C 344.861,218.416 345.528,216.582 345.5,214.5 Z"/></g>
<g><path style="opacity:1" fill="#eef0e0" d="M 268.5,216.5 C 271.14,217.82 273.807,219.153 276.5,220.5C 277.583,221.365 277.749,222.365 277,223.5C 274.579,222.039 272.079,220.706 269.5,219.5C 268.614,218.675 268.281,217.675 268.5,216.5 Z"/></g>
<g><path style="opacity:1" fill="#5e381e" d="M 338.5,217.5 C 339.978,217.238 341.311,217.571 342.5,218.5C 341.376,219.914 340.376,221.414 339.5,223C 332.836,224.445 326.169,225.445 319.5,226C 320.474,223.713 321.807,221.713 323.5,220C 328.706,219.563 333.706,218.73 338.5,217.5 Z"/></g>
<g><path style="opacity:1" fill="#0d30ff" d="M 270.5,222.5 C 270.135,225.746 271.135,228.412 273.5,230.5C 271.816,231.854 271.316,233.521 272,235.5C 273.558,237.359 275.391,238.859 277.5,240C 276.552,240.483 275.552,240.649 274.5,240.5C 273.178,240.33 272.011,240.663 271,241.5C 269.772,234.965 268.606,228.465 267.5,222C 268.577,221.53 269.577,221.697 270.5,222.5 Z"/></g>
<g><path style="opacity:1" fill="#5e381e" d="M 312.5,221.5 C 313.239,221.369 313.906,221.536 314.5,222C 313.167,224.667 311.167,226.667 308.5,228C 300.49,229.169 292.49,229.336 284.5,228.5C 293.338,223.957 302.671,221.624 312.5,221.5 Z"/></g>
<g><path style="opacity:1" fill="#5b74ff" d="M 270.5,222.5 C 280.499,225.382 283.332,231.716 279,241.5C 276.407,248.218 274.907,247.885 274.5,240.5C 275.552,240.649 276.552,240.483 277.5,240C 275.391,238.859 273.558,237.359 272,235.5C 271.316,233.521 271.816,231.854 273.5,230.5C 271.135,228.412 270.135,225.746 270.5,222.5 Z"/></g>
<g><path style="opacity:1" fill="#1f202f" d="M 341.5,222.5 C 342.978,222.238 344.311,222.571 345.5,223.5C 337.579,239.387 336.246,255.887 341.5,273C 340.464,274.901 339.298,276.735 338,278.5C 335.824,265.465 333.491,252.465 331,239.5C 330.026,235.579 328.859,231.746 327.5,228C 331.737,226.681 336.071,225.681 340.5,225C 341.252,224.329 341.586,223.496 341.5,222.5 Z"/></g>
<g><path style="opacity:1" fill="#fcbe95" d="M 219.5,230.5 C 220.625,232.129 221.959,233.629 223.5,235C 222,236.5 220.5,238 219,239.5C 218.845,241.856 218.845,244.189 219,246.5C 215.609,244.268 212.109,242.268 208.5,240.5C 209.602,239.824 210.602,239.158 211.5,238.5C 211.5,237.833 211.833,237.5 212.5,237.5C 214.28,236.01 214.946,234.01 214.5,231.5C 215.468,229.393 215.802,227.059 215.5,224.5C 216.5,224.5 217.5,224.5 218.5,224.5C 218.205,226.735 218.539,228.735 219.5,230.5 Z"/></g>
<g><path style="opacity:1" fill="#eef0e0" d="M 323.5,227.5 C 324.376,227.369 325.043,227.702 325.5,228.5C 328.112,234.604 329.278,240.937 329,247.5C 324.863,241.396 320.363,235.563 315.5,230C 318.166,228.939 320.833,228.106 323.5,227.5 Z"/></g>
<g><path style="opacity:1" fill="#7e7f7e" d="M 219.5,230.5 C 223.933,230.238 228.266,231.404 232.5,234C 228.162,233.17 223.828,232.003 219.5,230.5 Z"/></g>
<g><path style="opacity:1" fill="#eef0e0" d="M 282.5,229.5 C 285.106,231.039 286.439,233.372 286.5,236.5C 286.172,243.154 283.672,248.82 279,253.5C 274.017,251.054 272.017,247.054 273,241.5C 273.333,241.833 273.667,242.167 274,242.5C 274.17,244.715 274.837,246.715 276,248.5C 280.459,242.956 282.626,236.623 282.5,229.5 Z"/></g>
<g><path style="opacity:1" fill="#546ae7" d="M 319.5,241.5 C 318.65,244.261 319.65,244.928 322.5,243.5C 331.367,252.275 335.367,262.942 334.5,275.5C 331.091,280.013 326.924,280.68 322,277.5C 319.19,266.666 317.357,255.666 316.5,244.5C 314.833,244.5 313.167,244.5 311.5,244.5C 311.196,254.01 310.53,263.343 309.5,272.5C 308.527,274.948 308.194,277.615 308.5,280.5C 306.833,280.5 305.167,280.5 303.5,280.5C 301.585,280.784 299.919,280.451 298.5,279.5C 297.791,278.596 296.791,278.263 295.5,278.5C 293.951,268.656 294.784,258.989 298,249.5C 298.2,247.68 299.034,246.347 300.5,245.5C 301.985,246.935 303.318,246.768 304.5,245C 303.318,243.232 301.985,243.065 300.5,244.5C 299.957,244.44 299.624,244.107 299.5,243.5C 300.833,239.5 302.167,235.5 303.5,231.5C 306.996,229.993 310.496,229.66 314,230.5C 316,233.167 318,235.833 320,238.5C 320.47,239.577 320.303,240.577 319.5,241.5 Z"/></g>
<g><path style="opacity:1" fill="#a48d20" d="M 297.5,230.5 C 298.873,230.343 300.207,230.51 301.5,231C 296.854,243.084 293.854,255.584 292.5,268.5C 293.198,277.956 294.365,287.29 296,296.5C 292.165,298.54 287.998,299.707 283.5,300C 275.481,300.61 267.481,300.443 259.5,299.5C 259.833,297.5 260.167,295.5 260.5,293.5C 277.553,290.933 285.72,280.933 285,263.5C 289.897,252.626 294.063,241.626 297.5,230.5 Z"/></g>
<g><path style="opacity:1" fill="#700a12" d="M 281.5,266.5 C 280.035,279.474 273.035,287.474 260.5,290.5C 255.914,289.985 255.581,288.985 259.5,287.5C 268.255,283.745 274.255,277.412 277.5,268.5C 278.552,264.348 279.386,260.015 280,255.5C 286.197,248.728 288.697,240.728 287.5,231.5C 289.604,231.201 291.604,231.534 293.5,232.5C 290.87,244.393 286.87,255.726 281.5,266.5 Z"/></g>
<g><path style="opacity:1" fill="#dedfd1" d="M 234.5,236.5 C 232.833,237.5 231.5,238.833 230.5,240.5C 229.566,241.568 229.232,242.901 229.5,244.5C 220.404,245.62 218.737,242.953 224.5,236.5C 227.98,235.194 231.313,235.194 234.5,236.5 Z"/></g>
<g><path style="opacity:1" fill="#fec90d" d="M 319.5,241.5 C 321.027,241.427 322.027,242.094 322.5,243.5C 319.65,244.928 318.65,244.261 319.5,241.5 Z"/></g>
<g><path style="opacity:1" fill="#fec90d" d="M 300.5,245.5 C 300.5,245.167 300.5,244.833 300.5,244.5C 301.985,243.065 303.318,243.232 304.5,245C 303.318,246.768 301.985,246.935 300.5,245.5 Z"/></g>
<g><path style="opacity:1" fill="#4b5bc6" d="M 234.5,245.5 C 234.5,246.167 234.5,246.833 234.5,247.5C 233.295,249.138 231.962,249.471 230.5,248.5C 230.5,247.833 230.5,247.167 230.5,246.5C 230.62,245.414 231.287,244.747 232.5,244.5C 233.416,244.543 234.083,244.876 234.5,245.5 Z"/></g>
<g><path style="opacity:1" fill="#434fa8" d="M 240.5,244.5 C 241.833,245.833 241.833,247.167 240.5,248.5C 239.209,248.737 238.209,248.404 237.5,247.5C 237.5,246.833 237.5,246.167 237.5,245.5C 238.209,244.596 239.209,244.263 240.5,244.5 Z"/></g>
<g><path style="opacity:1" fill="#ec1c23" d="M 334.5,275.5 C 335.942,277.817 335.608,279.984 333.5,282C 328.934,283.309 324.267,283.809 319.5,283.5C 318.03,278.781 316.697,274.114 315.5,269.5C 315.332,261.483 314.832,253.483 314,245.5C 313.5,257.495 313.333,269.495 313.5,281.5C 312.599,282.29 311.932,283.29 311.5,284.5C 306.42,284.75 301.42,284.25 296.5,283C 295.663,281.989 295.33,280.822 295.5,279.5C 296.5,279.5 297.5,279.5 298.5,279.5C 299.919,280.451 301.585,280.784 303.5,280.5C 305.265,281.461 307.265,281.795 309.5,281.5C 309.5,278.5 309.5,275.5 309.5,272.5C 310.53,263.343 311.196,254.01 311.5,244.5C 313.167,244.5 314.833,244.5 316.5,244.5C 317.357,255.666 319.19,266.666 322,277.5C 326.924,280.68 331.091,280.013 334.5,275.5 Z"/></g>
<g><path style="opacity:1" fill="#4959c0" d="M 228.5,246.5 C 228.5,247.167 228.5,247.833 228.5,248.5C 227.167,249.833 225.833,249.833 224.5,248.5C 224.5,247.833 224.5,247.167 224.5,246.5C 225.833,245.167 227.167,245.167 228.5,246.5 Z"/></g>
<g><path style="opacity:1" fill="#fec90d" d="M 234.5,245.5 C 235.5,245.5 236.5,245.5 237.5,245.5C 237.5,246.167 237.5,246.833 237.5,247.5C 236.5,247.5 235.5,247.5 234.5,247.5C 234.5,246.833 234.5,246.167 234.5,245.5 Z"/></g>
<g><path style="opacity:1" fill="#7e7f7e" d="M 269.5,245.5 C 272.084,246.048 273.084,247.715 272.5,250.5C 271.167,250.5 269.833,250.5 268.5,250.5C 268.366,248.708 268.699,247.042 269.5,245.5 Z"/></g>
<g><path style="opacity:1" fill="#000000" d="M 315.5,269.5 C 314.833,273.5 314.167,277.5 313.5,281.5C 313.333,269.495 313.5,257.495 314,245.5C 314.832,253.483 315.332,261.483 315.5,269.5 Z"/></g>
<g><path style="opacity:1" fill="#fec90d" d="M 224.5,246.5 C 224.5,247.167 224.5,247.833 224.5,248.5C 221.833,247.833 221.833,247.167 224.5,246.5 Z"/></g>
<g><path style="opacity:1" fill="#fec90d" d="M 228.5,246.5 C 229.167,246.5 229.833,246.5 230.5,246.5C 230.5,247.167 230.5,247.833 230.5,248.5C 229.833,248.5 229.167,248.5 228.5,248.5C 228.5,247.833 228.5,247.167 228.5,246.5 Z"/></g>
<g><path style="opacity:1" fill="#1f202f" d="M 342.5,248.5 C 345.595,248.626 347.428,250.293 348,253.5C 349.344,259.21 350.844,264.877 352.5,270.5C 351.514,274.147 349.181,275.314 345.5,274C 344.151,273.228 343.318,272.061 343,270.5C 342.492,264.436 341.659,258.436 340.5,252.5C 341.18,251.14 341.847,249.807 342.5,248.5 Z"/></g>
<g><path style="opacity:1" fill="#dbdcce" d="M 234.5,250.5 C 235.71,250.932 236.71,251.599 237.5,252.5C 236.666,253.748 235.333,254.415 233.5,254.5C 230.063,254.448 227.063,253.281 224.5,251C 227.817,250.502 231.15,250.335 234.5,250.5 Z"/></g>
<g><path style="opacity:1" fill="#00a1e8" d="M 277.5,268.5 C 274.255,277.412 268.255,283.745 259.5,287.5C 257.326,287.92 255.326,287.92 253.5,287.5C 264.653,284.855 272.153,278.188 276,267.5C 277.515,260.672 275.348,255.505 269.5,252C 273.22,251.777 276.053,253.277 278,256.5C 277.842,260.459 277.675,264.459 277.5,268.5 Z"/></g>
<g><path style="opacity:1" fill="#00a1e8" d="M 264.5,252.5 C 274.23,254.317 277.397,259.984 274,269.5C 270.716,277.053 265.216,282.22 257.5,285C 252.452,285.97 249.618,283.803 249,278.5C 248.289,266.245 253.456,257.578 264.5,252.5 Z"/></g>
<g><path style="opacity:1" fill="#00a1e8" d="M 281.5,266.5 C 282.044,281.475 274.711,289.975 259.5,292C 260.056,291.617 260.389,291.117 260.5,290.5C 273.035,287.474 280.035,279.474 281.5,266.5 Z"/></g>
<g><path style="opacity:1" fill="#454567" d="M 315.5,269.5 C 316.697,274.114 318.03,278.781 319.5,283.5C 319.389,284.117 319.056,284.617 318.5,285C 313.646,285.937 308.98,287.437 304.5,289.5C 301.183,292.806 298.349,296.472 296,300.5C 296.745,298.301 297.579,295.967 298.5,293.5C 298.019,290.917 297.352,288.417 296.5,286C 299.124,285.96 301.791,286.127 304.5,286.5C 307.205,286.684 309.538,286.017 311.5,284.5C 311.932,283.29 312.599,282.29 313.5,281.5C 314.167,277.5 314.833,273.5 315.5,269.5 Z"/></g>
<g><path style="opacity:1" fill="#000000" d="M 309.5,272.5 C 309.5,275.5 309.5,278.5 309.5,281.5C 307.265,281.795 305.265,281.461 303.5,280.5C 305.167,280.5 306.833,280.5 308.5,280.5C 308.194,277.615 308.527,274.948 309.5,272.5 Z"/></g>
<g><path style="opacity:1" fill="#4e4f77" d="M 325.5,285.5 C 322.252,291.264 318.752,296.931 315,302.5C 312.198,309.074 309.698,315.741 307.5,322.5C 306.778,322.082 306.278,321.416 306,320.5C 304.265,312.172 302.932,303.839 302,295.5C 303.873,293.291 306.04,291.458 308.5,290C 314.225,288.589 319.892,287.089 325.5,285.5 Z"/></g>
<g><path style="opacity:1" fill="#686899" d="M 325.5,285.5 C 327.199,285.34 328.866,285.506 330.5,286C 328.884,297.388 327.884,308.888 327.5,320.5C 327.586,323.042 327.92,325.542 328.5,328C 328.355,328.772 328.022,329.439 327.5,330C 322.231,331.106 316.897,331.773 311.5,332C 316.047,333.545 320.713,333.879 325.5,333C 326,332.5 326.5,332 327,331.5C 330.538,347.664 331.538,363.998 330,380.5C 331.063,382.916 331.896,385.416 332.5,388C 331.663,389.587 330.33,390.42 328.5,390.5C 325.217,391.327 321.884,391.66 318.5,391.5C 318.055,379.602 316.222,367.936 313,356.5C 312.617,355.944 312.117,355.611 311.5,355.5C 309.46,347.762 307.793,339.929 306.5,332C 307.367,328.895 307.701,325.728 307.5,322.5C 309.698,315.741 312.198,309.074 315,302.5C 318.752,296.931 322.252,291.264 325.5,285.5 Z"/></g>
<g><path style="opacity:1" fill="#1f202f" d="M 290.5,300.5 C 292.124,300.36 293.29,301.027 294,302.5C 294.758,310.2 295.591,317.866 296.5,325.5C 294.892,326.318 293.225,326.985 291.5,327.5C 290.29,319.695 289.29,311.861 288.5,304C 288.862,302.566 289.528,301.399 290.5,300.5 Z"/></g>
<g><path style="opacity:1" fill="#6a6b9c" d="M 256.5,323.5 C 253.448,326.576 250.614,329.91 248,333.5C 247.425,351.503 246.759,369.503 246,387.5C 245.105,389.804 244.271,392.138 243.5,394.5C 240.9,392.717 238.566,390.717 236.5,388.5C 237.824,383.536 238.991,378.536 240,373.5C 241.693,358.554 242.693,343.554 243,328.5C 249.425,320.66 254.592,311.994 258.5,302.5C 262.554,301.504 266.554,301.838 270.5,303.5C 264.336,309.176 259.67,315.842 256.5,323.5 Z"/></g>
<g><path style="opacity:1" fill="#4e4e76" d="M 275.5,324.5 C 274.883,324.389 274.383,324.056 274,323.5C 269.527,327.539 264.694,331.039 259.5,334C 257.934,334.765 256.601,334.598 255.5,333.5C 262.064,329.934 268.064,325.601 273.5,320.5C 275.656,318.198 277.323,315.531 278.5,312.5C 277.277,311.386 275.944,311.219 274.5,312C 271.399,313.966 268.232,315.8 265,317.5C 263.282,316.969 263.115,316.302 264.5,315.5C 267.969,312.928 271.636,310.594 275.5,308.5C 276.76,306.647 276.76,304.814 275.5,303C 278.89,302.754 282.223,302.254 285.5,301.5C 286.38,304.111 287.046,306.778 287.5,309.5C 283.476,314.519 279.476,319.519 275.5,324.5 Z"/></g>
<g><path style="opacity:1" fill="#6a6b9c" d="M 264.5,315.5 C 263.115,316.302 263.282,316.969 265,317.5C 268.232,315.8 271.399,313.966 274.5,312C 275.944,311.219 277.277,311.386 278.5,312.5C 277.323,315.531 275.656,318.198 273.5,320.5C 272.078,320.709 270.745,321.209 269.5,322C 264.579,325.613 259.912,329.446 255.5,333.5C 256.601,334.598 257.934,334.765 259.5,334C 264.694,331.039 269.527,327.539 274,323.5C 274.383,324.056 274.883,324.389 275.5,324.5C 273.785,329.945 270.618,334.279 266,337.5C 265.336,351.149 263.003,364.482 259,377.5C 258.291,381.868 258.458,386.201 259.5,390.5C 258.191,392.733 256.191,394.067 253.5,394.5C 251.151,391.136 249.318,387.47 248,383.5C 247.873,367.166 248.207,350.833 249,334.5C 252.015,331.122 254.515,327.456 256.5,323.5C 260.921,316.36 266.088,309.693 272,303.5C 273.768,302.869 274.935,303.702 275.5,306C 272.462,308.696 269.129,311.03 265.5,313C 264.748,313.671 264.414,314.504 264.5,315.5 Z"/></g>
<g><path style="opacity:1" fill="#000000" d="M 273.5,320.5 C 268.064,325.601 262.064,329.934 255.5,333.5C 259.912,329.446 264.579,325.613 269.5,322C 270.745,321.209 272.078,320.709 273.5,320.5 Z"/></g>
<g><path style="opacity:1" fill="#fec90d" d="M 293.5,327.5 C 294.5,327.5 295.5,327.5 296.5,327.5C 297.001,334.171 297.168,340.837 297,347.5C 294.91,348.791 293.576,348.124 293,345.5C 292.228,341.702 291.728,337.869 291.5,334C 291.658,331.551 292.325,329.384 293.5,327.5 Z"/></g>
<g><path style="opacity:1" fill="#000000" d="M 251.5,339.5 C 255.24,340.719 258.907,342.219 262.5,344C 257.883,344.524 254.216,343.024 251.5,339.5 Z"/></g>
<g><path style="opacity:1" fill="#000000" d="M 249.5,343.5 C 253.845,345.007 257.845,347.173 261.5,350C 255.944,350.593 251.944,348.426 249.5,343.5 Z"/></g>
<g><path style="opacity:1" fill="#4e4f77" d="M 311.5,355.5 C 312.117,355.611 312.617,355.944 313,356.5C 316.222,367.936 318.055,379.602 318.5,391.5C 316.409,391.682 314.409,391.348 312.5,390.5C 312.652,378.848 312.319,367.181 311.5,355.5 Z"/></g>
<g><path style="opacity:1" fill="#24222e" d="M 241.5,400.5 C 239.353,398.53 237.02,396.697 234.5,395C 237.608,392.247 240.108,393.08 242,397.5C 243,396.167 244,396.167 245,397.5C 245.878,394.743 246.878,392.076 248,389.5C 248.862,391.087 249.529,392.754 250,394.5C 251.11,396.037 252.61,396.703 254.5,396.5C 254.5,397.5 254.5,398.5 254.5,399.5C 250.202,400.2 245.869,400.533 241.5,400.5 Z"/></g>
<g><path style="opacity:1" fill="#1f1f2e" d="M 330.5,404.5 C 329.35,406.267 330.017,407.433 332.5,408C 328.491,410.702 324.158,411.535 319.5,410.5C 318.416,409.335 317.583,408.002 317,406.5C 317.051,402.246 316.884,398.08 316.5,394C 320.421,393.797 324.255,393.297 328,392.5C 328.651,394.235 328.485,395.902 327.5,397.5C 328.32,399.974 329.32,402.307 330.5,404.5 Z"/></g>
<g><path style="opacity:1" fill="#1f1f2d" d="M 241.5,400.5 C 241.5,400.833 241.5,401.167 241.5,401.5C 241.5,402.167 241.5,402.833 241.5,403.5C 241.735,404.097 242.235,404.43 243,404.5C 246.607,401.746 250.774,400.413 255.5,400.5C 255.737,403.212 255.737,405.712 255.5,408C 251.748,409.117 247.915,409.95 244,410.5C 243.235,410.43 242.735,410.097 242.5,409.5C 241.5,406.833 240.5,406.833 239.5,409.5C 235.291,410.614 230.958,410.447 226.5,409C 224.545,408.047 222.878,406.713 221.5,405C 224.382,403.48 227.382,402.147 230.5,401C 232.049,399.786 233.215,398.286 234,396.5C 236.158,398.494 238.658,399.828 241.5,400.5 Z"/></g>
<g><path style="opacity:1" fill="#fec90d" d="M 241.5,401.5 C 244.167,402.167 244.167,402.833 241.5,403.5C 241.5,402.833 241.5,402.167 241.5,401.5 Z"/></g>
<g><path style="opacity:1" fill="#fec90d" d="M 330.5,404.5 C 332.028,404.517 332.528,405.184 332,406.5C 331.283,405.956 330.783,405.289 330.5,404.5 Z"/></g>
<g><path style="opacity:1" fill="#fec90d" d="M 242.5,409.5 C 241.5,409.5 240.5,409.5 239.5,409.5C 240.5,406.833 241.5,406.833 242.5,409.5 Z"/></g>
</svg>
