<?xml version="1.0" encoding="UTF-8"?>
<!DOCTYPE svg PUBLIC "-//W3C//DTD SVG 1.1//EN" "http://www.w3.org/Graphics/SVG/1.1/DTD/svg11.dtd">
<svg xmlns="http://www.w3.org/2000/svg" version="1.1" width="243px" height="264px" style="shape-rendering:geometricPrecision; text-rendering:geometricPrecision; image-rendering:optimizeQuality; fill-rule:evenodd; clip-rule:evenodd" xmlns:xlink="http://www.w3.org/1999/xlink">
<g><path style="opacity:1" fill="#fefffe" d="M 107.5,16.5 C 110.85,16.335 114.183,16.5017 117.5,17C 118.684,18.1803 119.351,19.6803 119.5,21.5C 116.204,32.6965 115.704,44.0299 118,55.5C 123.4,56.8824 125.4,60.2157 124,65.5C 122.786,67.0488 121.286,68.2155 119.5,69C 121.717,73.7012 120.383,76.5345 115.5,77.5C 115.62,79.7345 115.287,81.9011 114.5,84C 115.604,85.8204 117.104,87.3204 119,88.5C 120.67,94.5162 122.337,100.516 124,106.5C 137.956,99.4332 152.456,93.9332 167.5,90C 184.138,81.1806 201.138,73.1806 218.5,66C 222.152,65.5014 225.818,65.3347 229.5,65.5C 229.665,68.5184 229.498,71.5184 229,74.5C 212.593,83.9556 195.759,92.789 178.5,101C 177.167,103.333 175.833,105.667 174.5,108C 170.954,109.174 167.287,109.84 163.5,110C 155.288,114.273 146.955,118.273 138.5,122C 136.5,124 134.5,126 132.5,128C 126.563,129.318 120.73,130.818 115,132.5C 114.689,134.556 114.189,136.556 113.5,138.5C 116.421,140.089 119.421,141.589 122.5,143C 124.062,147.991 126.895,152.157 131,155.5C 131.667,161.5 131.667,167.5 131,173.5C 129.953,175.762 128.787,177.929 127.5,180C 131.979,190.082 133.479,200.582 132,211.5C 131.434,215.965 129.767,219.965 127,223.5C 126.788,228.81 125.955,233.977 124.5,239C 127.063,241.53 129.897,243.697 133,245.5C 135.052,257.103 130.219,261.269 118.5,258C 112.642,255.712 106.642,254.046 100.5,253C 98.9095,251.954 97.4095,250.787 96,249.5C 95.3333,245.5 95.3333,241.5 96,237.5C 98.1578,228.247 99.9911,218.914 101.5,209.5C 98.6755,209.919 96.5088,208.919 95,206.5C 94.3333,200.5 93.6667,194.5 93,188.5C 90.3167,185.984 87.8167,183.317 85.5,180.5C 75.6589,192.495 69.1589,206.162 66,221.5C 64,224.833 62,228.167 60,231.5C 59.2508,235.251 58.2508,238.918 57,242.5C 53.4921,246.341 49.6588,249.841 45.5,253C 39.5851,254.527 33.5851,254.861 27.5,254C 23.7663,245.733 25.2663,238.566 32,232.5C 38.2807,211.711 43.7807,190.711 48.5,169.5C 48.3333,168.833 48.1667,168.167 48,167.5C 42.4084,171.43 36.5751,174.93 30.5,178C 26.8333,178.667 23.1667,178.667 19.5,178C 13.9359,171.093 12.1026,163.259 14,154.5C 19.4835,151.503 25.3169,149.503 31.5,148.5C 30.6607,140.463 29.494,132.463 28,124.5C 27.3333,118.5 27.3333,112.5 28,106.5C 38.13,97.7701 48.7966,89.7701 60,82.5C 60.2932,78.0018 61.4599,73.8351 63.5,70C 68.7926,69.023 74.1259,68.523 79.5,68.5C 80.1279,56.7303 81.6279,45.0637 84,33.5C 91.3845,32.0777 98.8845,31.2444 106.5,31C 104.926,25.9451 105.259,21.1118 107.5,16.5 Z M 58.5,118.5 C 59.2663,120.684 59.9329,123.018 60.5,125.5C 59.3317,129.227 58.165,132.893 57,136.5C 56.7471,131.961 56.2471,127.461 55.5,123C 56.3146,121.357 57.3146,119.857 58.5,118.5 Z"/></g>
<g><path style="opacity:1" fill="#020202" d="M 109.5,18.5 C 111.527,18.3379 113.527,18.5045 115.5,19C 116.516,19.5194 117.182,20.3527 117.5,21.5C 115.053,28.1102 113.72,34.7769 113.5,41.5C 114.368,46.8085 115.202,52.1418 116,57.5C 124.665,61.763 124.165,65.263 114.5,68C 116.227,69.3894 117.561,71.0561 118.5,73C 117.615,75.1566 115.948,75.9899 113.5,75.5C 112.81,79.4896 112.643,83.4896 113,87.5C 114.512,88.2567 115.846,89.2567 117,90.5C 118.647,95.7538 119.98,101.087 121,106.5C 121.667,107.833 122.667,108.833 124,109.5C 138.619,102.101 153.786,96.2682 169.5,92C 184.377,84.3946 199.377,77.0613 214.5,70C 218.632,68.1003 222.966,67.267 227.5,67.5C 227.896,70.0444 227.229,72.2111 225.5,74C 209.354,82.5735 193.021,90.9068 176.5,99C 175.167,101.333 173.833,103.667 172.5,106C 168.954,107.174 165.287,107.84 161.5,108C 153.288,112.273 144.955,116.273 136.5,120C 134.5,122 132.5,124 130.5,126C 124.563,127.318 118.73,128.818 113,130.5C 111.715,134.172 111.548,137.839 112.5,141.5C 119.11,142.369 122.943,146.036 124,152.5C 125.667,154.167 127.333,155.833 129,157.5C 129.667,162.167 129.667,166.833 129,171.5C 127.939,174.562 126.106,177.062 123.5,179C 129.91,190.135 131.743,201.969 129,214.5C 127.92,216.996 126.586,219.33 125,221.5C 124.319,228.215 123.652,234.881 123,241.5C 125.488,243.743 128.154,245.743 131,247.5C 132.46,253.379 130.127,256.379 124,256.5C 116.868,254.455 109.701,252.621 102.5,251C 97.7762,248.565 96.2762,244.731 98,239.5C 100.064,232.668 101.397,225.668 102,218.5C 102.499,213.988 104.333,210.155 107.5,207C 106.5,203.667 105.5,203.667 104.5,207C 101.364,208.041 98.8637,207.207 97,204.5C 96.3333,198.5 95.6667,192.5 95,186.5C 91.2435,183.414 88.2435,179.748 86,175.5C 74.4905,187.997 67.1572,202.664 64,219.5C 62,222.833 60,226.167 58,229.5C 57.2508,233.251 56.2508,236.918 55,240.5C 51.4921,244.341 47.6588,247.841 43.5,251C 38.9241,252.476 34.2574,252.81 29.5,252C 27.6067,249.083 27.1067,245.916 28,242.5C 30,239.833 32,237.167 34,234.5C 41.6135,209.746 47.9468,184.746 53,159.5C 45.5765,166.127 37.4098,171.627 28.5,176C 23.0044,177.89 19.5044,176.057 18,170.5C 15.7298,166.07 15.0631,161.403 16,156.5C 21.5526,153.651 27.3859,151.484 33.5,150C 34.0585,149.275 34.3918,148.442 34.5,147.5C 31.2497,134.673 29.7497,121.673 30,108.5C 40.13,99.7701 50.7966,91.7701 62,84.5C 62.2932,80.0018 63.4599,75.8351 65.5,72C 70.7926,71.023 76.1259,70.523 81.5,70.5C 82.1279,58.7303 83.6279,47.0637 86,35.5C 93.4007,33.4779 100.901,33.1446 108.5,34.5C 108.332,30.9899 107.999,27.4899 107.5,24C 107.698,21.8794 108.364,20.0461 109.5,18.5 Z M 58.5,118.5 C 57.3146,119.857 56.3146,121.357 55.5,123C 56.2471,127.461 56.7471,131.961 57,136.5C 58.165,132.893 59.3317,129.227 60.5,125.5C 59.9329,123.018 59.2663,120.684 58.5,118.5 Z"/></g>
<g><path style="opacity:1" fill="#fefffe" d="M 112.5,34.5 C 111.833,34.5 111.167,34.5 110.5,34.5C 110.002,29.8478 109.669,25.1811 109.5,20.5C 111.5,20.5 113.5,20.5 115.5,20.5C 114.5,25.1667 113.5,29.8333 112.5,34.5 Z"/></g>
<g><path style="opacity:1" fill="#fb550d" d="M 110.5,34.5 C 111.167,34.5 111.833,34.5 112.5,34.5C 112.678,35.6948 113.011,36.8615 113.5,38C 113.252,39.7491 112.252,40.5824 110.5,40.5C 109.094,40.0269 108.427,39.0269 108.5,37.5C 108.427,35.9731 109.094,34.9731 110.5,34.5 Z"/></g>
<g><path style="opacity:1" fill="#1d1e1d" d="M 108.5,37.5 C 108.427,39.0269 109.094,40.0269 110.5,40.5C 110.5,40.8333 110.5,41.1667 110.5,41.5C 105.484,45.5116 103.151,50.8449 103.5,57.5C 106.167,57.5 108.833,57.5 111.5,57.5C 114.072,58.7241 116.405,60.3908 118.5,62.5C 117.451,64.1123 115.951,65.1123 114,65.5C 104.266,63.1758 94.4322,62.8425 84.5,64.5C 85.725,55.4836 87.0583,46.4836 88.5,37.5C 95.1796,36.2756 101.846,36.2756 108.5,37.5 Z"/></g>
<g><path style="opacity:1" fill="#7e7f7e" d="M 110.5,41.5 C 111.888,46.7257 112.221,52.059 111.5,57.5C 108.833,57.5 106.167,57.5 103.5,57.5C 103.151,50.8449 105.484,45.5116 110.5,41.5 Z"/></g>
<g><path style="opacity:1" fill="#b84a00" d="M 104.5,65.5 C 104.307,69.0128 104.974,72.3462 106.5,75.5C 105.976,78.3962 104.476,79.0628 102,77.5C 100.908,74.9556 100.241,72.2889 100,69.5C 99.2917,68.6195 98.4584,67.9528 97.5,67.5C 92.5904,67.5764 91.2571,69.9098 93.5,74.5C 92.145,77.5177 89.8116,78.851 86.5,78.5C 85.7569,74.423 85.7569,70.423 86.5,66.5C 92.4638,65.6932 98.4638,65.3599 104.5,65.5 Z"/></g>
<g><path style="opacity:1" fill="#fec096" d="M 104.5,65.5 C 106.099,65.2322 107.432,65.5655 108.5,66.5C 109.635,68.2132 111.302,68.8799 113.5,68.5C 114.625,70.1288 115.959,71.6288 117.5,73C 116.095,74.2692 114.429,74.7692 112.5,74.5C 112.5,76.1667 112.5,77.8333 112.5,79.5C 111.127,79.3433 109.793,79.51 108.5,80C 112.063,82.2316 112.23,84.3982 109,86.5C 105.887,84.8453 102.72,83.6786 99.5,83C 101.833,84.5 104.167,86 106.5,87.5C 106,87.8333 105.5,88.1667 105,88.5C 100.91,86.8031 96.7429,85.3031 92.5,84C 90.2368,82.383 88.2368,80.5497 86.5,78.5C 89.8116,78.851 92.145,77.5177 93.5,74.5C 94.601,75.7997 95.9343,76.2997 97.5,76C 95.7727,74.6106 94.4394,72.9439 93.5,71C 94.0069,68.6587 95.1735,68.1587 97,69.5C 97.4643,68.9056 97.631,68.2389 97.5,67.5C 98.4584,67.9528 99.2917,68.6195 100,69.5C 100.241,72.2889 100.908,74.9556 102,77.5C 104.476,79.0628 105.976,78.3962 106.5,75.5C 104.974,72.3462 104.307,69.0128 104.5,65.5 Z"/></g>
<g><path style="opacity:1" fill="#b84a00" d="M 108.5,66.5 C 110.698,66.1201 112.365,66.7868 113.5,68.5C 111.302,68.8799 109.635,68.2132 108.5,66.5 Z"/></g>
<g><path style="opacity:1" fill="#000000" d="M 97.5,67.5 C 97.631,68.2389 97.4643,68.9056 97,69.5C 95.1735,68.1587 94.0069,68.6587 93.5,71C 94.4394,72.9439 95.7727,74.6106 97.5,76C 95.9343,76.2997 94.601,75.7997 93.5,74.5C 91.2571,69.9098 92.5904,67.5764 97.5,67.5 Z"/></g>
<g><path style="opacity:1" fill="#7e7f7e" d="M 222.5,69.5 C 225.999,69.259 226.332,70.0924 223.5,72C 206.075,81.046 188.409,89.546 170.5,97.5C 170.281,96.325 170.614,95.325 171.5,94.5C 188.517,85.9542 205.517,77.6208 222.5,69.5 Z"/></g>
<g><path style="opacity:1" fill="#fefffe" d="M 76.5,74.5 C 78.1852,75.1837 79.1852,76.517 79.5,78.5C 78.675,79.3857 77.675,79.719 76.5,79.5C 76.5,77.8333 76.5,76.1667 76.5,74.5 Z"/></g>
<g><path style="opacity:1" fill="#c4c5c4" d="M 80.5,74.5 C 81.8333,74.5 83.1667,74.5 84.5,74.5C 82.8984,79.4693 81.5651,79.4693 80.5,74.5 Z"/></g>
<g><path style="opacity:1" fill="#c4c5c4" d="M 68.5,75.5 C 70.5,75.5 72.5,75.5 74.5,75.5C 74.6602,77.1992 74.4935,78.8659 74,80.5C 66.3656,86.3437 64.5322,84.677 68.5,75.5 Z"/></g>
<g><path style="opacity:1" fill="#fb550d" d="M 83.5,79.5 C 86.2105,81.9446 89.0438,84.2779 92,86.5C 92.3301,89.866 91.9967,93.1994 91,96.5C 87.0188,91.6844 82.8521,87.0178 78.5,82.5C 80.1446,81.3037 81.8113,80.3037 83.5,79.5 Z"/></g>
<g><path style="opacity:1" fill="#632b1c" d="M 75.5,82.5 C 86.542,93.0423 96.7087,104.376 106,116.5C 106.749,117.635 106.583,118.635 105.5,119.5C 96.5303,108.031 86.697,97.3639 76,87.5C 75.5065,85.8659 75.3398,84.1992 75.5,82.5 Z"/></g>
<g><path style="opacity:1" fill="#fefffe" d="M 72.5,83.5 C 73.1471,84.2739 73.4805,85.2739 73.5,86.5C 72.6009,93.8243 71.7675,101.158 71,108.5C 69.4443,113.28 67.1109,117.613 64,121.5C 63.8333,120.5 63.6667,119.5 63.5,118.5C 65.83,114.835 67.33,110.835 68,106.5C 68.6285,99.9721 69.4618,93.4721 70.5,87C 70.8618,85.5657 71.5285,84.3991 72.5,83.5 Z"/></g>
<g><path style="opacity:1" fill="#3f47cc" d="M 53.5,114.5 C 52.0384,113.542 50.7051,112.376 49.5,111C 47.5,110.333 45.5,110.333 43.5,111C 46.3695,112.596 49.0361,114.43 51.5,116.5C 51.2254,120.564 50.2254,124.23 48.5,127.5C 45.8127,127.336 43.146,127.503 40.5,128C 39.5842,128.278 38.9175,128.778 38.5,129.5C 36.9731,129.427 35.9731,130.094 35.5,131.5C 35.1667,131.5 34.8333,131.5 34.5,131.5C 34.2197,124.816 34.053,118.15 34,111.5C 44.5209,101.812 56.0209,93.4786 68.5,86.5C 68.8333,86.8333 69.1667,87.1667 69.5,87.5C 68.2671,93.0907 67.4338,98.7574 67,104.5C 66.6047,108.019 65.6047,111.352 64,114.5C 63.6667,112.5 63.3333,110.5 63,108.5C 60.2161,111.119 57.0494,113.119 53.5,114.5 Z"/></g>
<g><path style="opacity:1" fill="#fefffe" d="M 74.5,89.5 C 79.6381,95.7272 84.8048,102.061 90,108.5C 90.2927,111.869 88.7927,113.702 85.5,114C 82.0349,109.533 78.2016,105.367 74,101.5C 73.3064,97.446 73.4731,93.446 74.5,89.5 Z"/></g>
<g><path style="opacity:1" fill="#3f47cc" d="M 76.5,89.5 C 81.9843,95.0916 87.4843,100.758 93,106.5C 93.5628,107.725 93.2295,108.725 92,109.5C 86.5943,102.939 81.4276,96.2721 76.5,89.5 Z"/></g>
<g><path style="opacity:1" fill="#fb550d" d="M 100.5,89.5 C 101.833,89.5 103.167,89.5 104.5,89.5C 104.649,90.552 104.483,91.552 104,92.5C 93.3376,101.003 92.1709,100.003 100.5,89.5 Z"/></g>
<g><path style="opacity:1" fill="#3f47cc" d="M 105.5,89.5 C 108.076,89.7218 108.91,91.0551 108,93.5C 105.036,97.4658 101.703,101.133 98,104.5C 96.8333,103.333 95.6667,102.167 94.5,101C 98.4402,99.1135 101.94,96.6135 105,93.5C 105.49,92.2068 105.657,90.8734 105.5,89.5 Z"/></g>
<g><path style="opacity:1" fill="#fefffe" d="M 110.5,90.5 C 114.175,97.9847 115.009,105.985 113,114.5C 110.671,112.187 109.504,109.353 109.5,106C 111.399,100.894 111.732,95.7275 110.5,90.5 Z"/></g>
<g><path style="opacity:1" fill="#3f47cc" d="M 113.5,91.5 C 116.129,97.1344 117.962,103.134 119,109.5C 119.833,110.333 120.667,111.167 121.5,112C 119.351,113.164 117.185,114.33 115,115.5C 114.76,112.343 114.927,109.176 115.5,106C 114.589,101.194 113.923,96.3606 113.5,91.5 Z"/></g>
<g><path style="opacity:1" fill="#fefffe" d="M 109.5,93.5 C 110.613,94.9464 110.78,96.6131 110,98.5C 107.333,101.833 104.667,105.167 102,108.5C 100.978,107.646 100.145,106.646 99.5,105.5C 103.233,101.773 106.566,97.7728 109.5,93.5 Z"/></g>
<g><path style="opacity:1" fill="#fec90d" d="M 161.5,102.5 C 160.334,100.834 160.334,99.1673 161.5,97.5C 164.166,96.2622 166.832,96.2622 169.5,97.5C 170.636,104.595 167.969,106.261 161.5,102.5 Z"/></g>
<g><path style="opacity:1" fill="#7e7f7e" d="M 157.5,101.5 C 149.192,104.656 141.192,108.323 133.5,112.5C 131.767,111.992 131.434,111.159 132.5,110C 141.407,106.296 150.24,102.462 159,98.5C 159.239,99.788 158.739,100.788 157.5,101.5 Z"/></g>
<g><path style="opacity:1" fill="#392419" d="M 157.5,101.5 C 158.833,101.833 160.167,102.167 161.5,102.5C 161.047,103.458 160.381,104.292 159.5,105C 151.373,109.398 143.04,113.232 134.5,116.5C 134.567,115.041 134.234,113.708 133.5,112.5C 141.192,108.323 149.192,104.656 157.5,101.5 Z"/></g>
<g><path style="opacity:1" fill="#3f47cc" d="M 72.5,102.5 C 77.1857,106.186 81.1857,110.52 84.5,115.5C 79.1321,121.849 72.4654,126.183 64.5,128.5C 64.3379,126.473 64.5045,124.473 65,122.5C 70.0289,116.777 72.5289,110.11 72.5,102.5 Z"/></g>
<g><path style="opacity:1" fill="#3f47cc" d="M 107.5,102.5 C 107.972,107.677 109.305,112.677 111.5,117.5C 110.448,117.649 109.448,117.483 108.5,117C 106.954,114.743 105.288,112.576 103.5,110.5C 105.297,108.045 106.63,105.378 107.5,102.5 Z"/></g>
<g><path style="opacity:1" fill="#fefffe" d="M 93.5,109.5 C 95.5441,110.031 97.2107,111.198 98.5,113C 88.0111,121.416 76.6778,128.583 64.5,134.5C 63.5291,133.038 63.8624,131.705 65.5,130.5C 76.333,125.426 85.6663,118.426 93.5,109.5 Z"/></g>
<g><path style="opacity:1" fill="#1d226b" d="M 53.5,114.5 C 53.1667,115.5 52.5,116.167 51.5,116.5C 49.0361,114.43 46.3695,112.596 43.5,111C 45.5,110.333 47.5,110.333 49.5,111C 50.7051,112.376 52.0384,113.542 53.5,114.5 Z"/></g>
<g><path style="opacity:1" fill="#fec90d" d="M 127.5,111.5 C 129.544,112.031 131.211,113.198 132.5,115C 131.975,115.692 131.308,116.192 130.5,116.5C 128.954,115.316 127.287,114.316 125.5,113.5C 126.243,112.818 126.909,112.151 127.5,111.5 Z"/></g>
<g><path style="opacity:1" fill="#fefffe" d="M 60.5,114.5 C 61.4016,117.983 62.0682,121.65 62.5,125.5C 61.3576,129.429 60.5243,133.429 60,137.5C 58.4157,138.861 56.5824,139.528 54.5,139.5C 54.3047,132.811 54.1381,126.144 54,119.5C 55.9651,117.45 58.1318,115.783 60.5,114.5 Z M 58.5,118.5 C 57.3146,119.857 56.3146,121.357 55.5,123C 56.2471,127.461 56.7471,131.961 57,136.5C 58.165,132.893 59.3317,129.227 60.5,125.5C 59.9329,123.018 59.2663,120.684 58.5,118.5 Z"/></g>
<g><path style="opacity:1" fill="#3f47cc" d="M 99.5,114.5 C 101.416,115.665 102.249,117.332 102,119.5C 100.628,118.09 99.795,116.423 99.5,114.5 Z"/></g>
<g><path style="opacity:1" fill="#7e7f7e" d="M 113.5,118.5 C 115.488,116.325 117.821,115.659 120.5,116.5C 118.293,117.635 115.96,118.301 113.5,118.5 Z"/></g>
<g><path style="opacity:1" fill="#fec096" d="M 125.5,116.5 C 125.56,115.957 125.893,115.624 126.5,115.5C 129.5,116.758 130.5,118.758 129.5,121.5C 128.113,119.79 126.779,118.123 125.5,116.5 Z"/></g>
<g><path style="opacity:1" fill="#fefffe" d="M 95.5,116.5 C 97.8863,117.373 99.8863,118.873 101.5,121C 98.9504,122.442 96.2837,123.608 93.5,124.5C 92.354,123.855 91.354,123.022 90.5,122C 92.3734,120.296 94.0401,118.463 95.5,116.5 Z"/></g>
<g><path style="opacity:1" fill="#fec096" d="M 121.5,116.5 C 124.659,116.917 126.659,118.75 127.5,122C 127.167,122.5 126.833,123 126.5,123.5C 123.651,121.988 121.984,119.655 121.5,116.5 Z"/></g>
<g><path style="opacity:1" fill="#7e7f7e" d="M 113.5,118.5 C 113.473,120.199 112.806,121.533 111.5,122.5C 105.875,124.316 100.541,126.649 95.5,129.5C 93.8967,129.688 92.5634,129.188 91.5,128C 98.7125,124.561 106.046,121.394 113.5,118.5 Z"/></g>
<g><path style="opacity:1" fill="#fec096" d="M 117.5,118.5 C 118.552,118.351 119.552,118.517 120.5,119C 121.257,120.512 122.257,121.846 123.5,123C 122.725,124.23 121.725,124.563 120.5,124C 118.84,122.512 117.84,120.679 117.5,118.5 Z"/></g>
<g><path style="opacity:1" fill="#fec096" d="M 115.5,124.5 C 115.672,123.508 115.338,122.842 114.5,122.5C 114.281,121.325 114.614,120.325 115.5,119.5C 116.624,120.914 117.624,122.414 118.5,124C 117.648,125.728 116.648,125.895 115.5,124.5 Z"/></g>
<g><path style="opacity:1" fill="#3f47cc" d="M 87.5,122.5 C 90.0317,122.829 91.0317,123.995 90.5,126C 83.2986,128.857 76.2986,132.191 69.5,136C 68.5,136.667 67.5,136.667 66.5,136C 73.6745,131.637 80.6745,127.137 87.5,122.5 Z"/></g>
<g><path style="opacity:1" fill="#3a2519" d="M 111.5,122.5 C 112.5,122.5 113.5,122.5 114.5,122.5C 115.338,122.842 115.672,123.508 115.5,124.5C 109.741,128.388 103.574,131.721 97,134.5C 94.3894,133.5 93.8894,131.833 95.5,129.5C 100.541,126.649 105.875,124.316 111.5,122.5 Z"/></g>
<g><path style="opacity:1" fill="#fb550d" d="M 48.5,127.5 C 47.0464,130.4 48.0464,131.733 51.5,131.5C 51.5,133.167 51.5,134.833 51.5,136.5C 46.0939,136.532 40.9273,137.532 36,139.5C 35.433,136.832 34.933,134.166 34.5,131.5C 34.8333,131.5 35.1667,131.5 35.5,131.5C 37.1276,134.148 38.7943,134.148 40.5,131.5C 40.1445,130.478 39.4778,129.811 38.5,129.5C 38.9175,128.778 39.5842,128.278 40.5,128C 43.146,127.503 45.8127,127.336 48.5,127.5 Z"/></g>
<g><path style="opacity:1" fill="#fec90d" d="M 88.5,128.5 C 92.5191,130.759 92.0191,132.092 87,132.5C 86.5,132.167 86,131.833 85.5,131.5C 86.3398,130.265 87.3398,129.265 88.5,128.5 Z"/></g>
<g><path style="opacity:1" fill="#3f47cc" d="M 109.5,129.5 C 110.124,129.917 110.457,130.584 110.5,131.5C 109.861,134.475 109.361,137.475 109,140.5C 106.875,141.851 105.708,141.185 105.5,138.5C 105.79,134.954 107.124,131.954 109.5,129.5 Z"/></g>
<g><path style="opacity:1" fill="#3a3a3a" d="M 38.5,129.5 C 39.4778,129.811 40.1445,130.478 40.5,131.5C 38.7943,134.148 37.1276,134.148 35.5,131.5C 35.9731,130.094 36.9731,129.427 38.5,129.5 Z"/></g>
<g><path style="opacity:1" fill="#7c7c7c" d="M 82.5,135.5 C 76.3858,136.631 71.5525,139.631 68,144.5C 66.6976,145.085 65.531,145.751 64.5,146.5C 62.901,146.232 61.5676,146.566 60.5,147.5C 60.0269,148.906 59.0269,149.573 57.5,149.5C 55.9724,148.198 54.9724,146.531 54.5,144.5C 63.6849,140.199 73.0182,135.865 82.5,131.5C 84.9341,133.147 84.9341,134.48 82.5,135.5 Z"/></g>
<g><path style="opacity:1" fill="#fec90d" d="M 89.5,132.5 C 91.5901,132.45 92.9234,133.45 93.5,135.5C 90.2652,139.516 87.9319,139.183 86.5,134.5C 87.6016,133.824 88.6016,133.158 89.5,132.5 Z"/></g>
<g><path style="opacity:1" fill="#fefffe" d="M 104.5,132.5 C 103.587,145.186 98.5872,156.352 89.5,166C 86.0821,167.695 82.5821,169.195 79,170.5C 76.0053,169.724 73.172,168.557 70.5,167C 68.5394,164.037 66.206,161.371 63.5,159C 64.0253,158.308 64.6919,157.808 65.5,157.5C 73.8497,168.733 83.0164,169.4 93,159.5C 97.4052,150.696 101.239,141.696 104.5,132.5 Z"/></g>
<g><path style="opacity:1" fill="#3f47cc" d="M 99.5,142.5 C 95.9682,142.69 92.6348,142.023 89.5,140.5C 93.4081,138.546 97.4081,136.546 101.5,134.5C 101.933,137.247 101.266,139.913 99.5,142.5 Z"/></g>
<g><path style="opacity:1" fill="#3b2519" d="M 82.5,135.5 C 84.5638,135.762 85.8971,136.929 86.5,139C 80.3825,143.143 73.8825,146.643 67,149.5C 65.6898,148.87 64.8565,147.87 64.5,146.5C 65.531,145.751 66.6976,145.085 68,144.5C 71.5525,139.631 76.3858,136.631 82.5,135.5 Z"/></g>
<g><path style="opacity:1" fill="#fec096" d="M 52.5,143.5 C 51.5416,143.953 50.7083,144.619 50,145.5C 49.6667,148.833 49.3333,152.167 49,155.5C 48.0071,151.558 47.3404,147.558 47,143.5C 46.8199,147.924 46.6532,152.257 46.5,156.5C 44.9073,152.701 44.074,148.701 44,144.5C 43.7339,148.974 43.5672,153.307 43.5,157.5C 42.0227,153.767 41.1894,149.767 41,145.5C 40.2829,149.045 40.4496,152.545 41.5,156C 41.3333,156.5 41.1667,157 41,157.5C 38.2832,152.538 37.2832,147.205 38,141.5C 38.5,141 39,140.5 39.5,140C 43.4908,139.358 47.4908,138.858 51.5,138.5C 51.6287,140.216 51.962,141.883 52.5,143.5 Z"/></g>
<g><path style="opacity:1" fill="#fb550d" d="M 89.5,140.5 C 92.6348,142.023 95.9682,142.69 99.5,142.5C 94.9574,142.877 90.2907,143.21 85.5,143.5C 84.3044,143.154 84.3044,142.654 85.5,142C 86.745,141.209 88.0783,140.709 89.5,140.5 Z"/></g>
<g><path style="opacity:1" fill="#cea38a" d="M 105.5,143.5 C 105.897,142.475 106.563,142.308 107.5,143C 112.011,145.754 116.344,148.754 120.5,152C 119.534,153.678 118.201,154.345 116.5,154C 113.017,150.351 109.35,146.851 105.5,143.5 Z"/></g>
<g><path style="opacity:1" fill="#c4c5c4" d="M 87.5,143.5 C 89.1439,143.286 90.6439,143.62 92,144.5C 92.8302,156.482 93.3302,156.482 93.5,144.5C 95.1992,144.34 96.8659,144.506 98.5,145C 96.274,150.787 93.274,156.12 89.5,161C 78.9676,167.933 71.3009,165.6 66.5,154C 66.8333,153.167 67.1667,152.333 67.5,151.5C 71.5,149.5 75.5,147.5 79.5,145.5C 80.8333,149.167 80.8333,152.833 79.5,156.5C 76.6626,151.15 75.996,151.483 77.5,157.5C 78.8333,157.5 80.1667,157.5 81.5,157.5C 81.5,153.167 81.5,148.833 81.5,144.5C 83.7354,144.795 85.7354,144.461 87.5,143.5 Z"/></g>
<g><path style="opacity:1" fill="#cea38a" d="M 104.5,144.5 C 107.666,146.834 110.333,149.667 112.5,153C 114.706,155.346 117.206,155.846 120,154.5C 127.118,159.793 128.284,166.126 123.5,173.5C 122.167,174.833 120.833,174.833 119.5,173.5C 117.476,171.31 115.643,168.977 114,166.5C 111.678,158.668 108.512,151.335 104.5,144.5 Z"/></g>
<g><path style="opacity:1" fill="#fec90d" d="M 60.5,147.5 C 61.5,147.5 62.5,147.5 63.5,147.5C 64.523,150.393 64.523,153.226 63.5,156C 58.7897,157.121 56.123,155.288 55.5,150.5C 56.4916,150.672 57.1583,150.338 57.5,149.5C 59.0269,149.573 60.0269,148.906 60.5,147.5 Z"/></g>
<g><path style="opacity:1" fill="#c4c5c4" d="M 102.5,148.5 C 103.812,149.145 104.812,150.145 105.5,151.5C 97.4482,158.633 96.4482,157.633 102.5,148.5 Z"/></g>
<g><path style="opacity:1" fill="#3a2519" d="M 52.5,143.5 C 53.1667,143.833 53.8333,144.167 54.5,144.5C 54.9724,146.531 55.9724,148.198 57.5,149.5C 57.1583,150.338 56.4916,150.672 55.5,150.5C 49.7825,160.491 41.4492,166.157 30.5,167.5C 29.4732,168.848 28.1398,169.348 26.5,169C 24.5854,166.6 22.9188,164.1 21.5,161.5C 21.281,160.325 21.6143,159.325 22.5,158.5C 27.4299,157.061 32.2632,155.394 37,153.5C 37.7065,155.081 38.5399,156.581 39.5,158C 41.0657,158.765 42.3991,158.598 43.5,157.5C 43.5672,153.307 43.7339,148.974 44,144.5C 44.074,148.701 44.9073,152.701 46.5,156.5C 46.6532,152.257 46.8199,147.924 47,143.5C 47.3404,147.558 48.0071,151.558 49,155.5C 49.3333,152.167 49.6667,148.833 50,145.5C 50.7083,144.619 51.5416,143.953 52.5,143.5 Z"/></g>
<g><path style="opacity:1" fill="#c4c5c4" d="M 125.5,206.5 C 120.906,207.815 116.239,208.815 111.5,209.5C 111.957,207.253 112.957,205.253 114.5,203.5C 113.009,202.756 111.509,202.09 110,201.5C 106.992,191.797 101.326,184.13 93,178.5C 92.5357,177.906 92.369,177.239 92.5,176.5C 95.6266,179.147 99.1266,181.147 103,182.5C 105.185,182.079 107.351,181.579 109.5,181C 109.957,180.586 110.291,180.086 110.5,179.5C 107.215,178.676 103.882,178.176 100.5,178C 97.7449,176.047 94.7449,174.88 91.5,174.5C 90.7721,172.265 89.4388,170.432 87.5,169C 92.0501,166.117 95.5501,162.284 98,157.5C 98.3333,157.833 98.6667,158.167 99,158.5C 101.414,156.709 103.914,155.043 106.5,153.5C 108.635,158.035 110.469,162.701 112,167.5C 114,170.167 116,172.833 118,175.5C 121.629,184.389 124.462,193.556 126.5,203C 126.352,204.256 126.018,205.423 125.5,206.5 Z"/></g>
<g><path style="opacity:1" fill="#000000" d="M 111.5,156.5 C 111.56,155.957 111.893,155.624 112.5,155.5C 115.157,158.147 117.323,161.147 119,164.5C 120.214,166.049 121.714,167.215 123.5,168C 122.5,168.667 121.5,168.667 120.5,168C 117.36,164.188 114.36,160.355 111.5,156.5 Z"/></g>
<g><path style="opacity:1" fill="#000000" d="M 105.5,157.5 C 107.379,157.393 107.712,157.893 106.5,159C 102.742,160.834 99.0753,162.5 95.5,164C 98.4905,161.152 101.824,158.985 105.5,157.5 Z"/></g>
<g><path style="opacity:1" fill="#c4c5c4" d="M 61.5,211.5 C 55.2601,212.191 49.5935,214.357 44.5,218C 50.426,219.255 55.7593,218.088 60.5,214.5C 58.6124,218.606 56.4458,222.606 54,226.5C 53.1239,230.7 52.2905,234.867 51.5,239C 45.255,242.721 40.9217,241.054 38.5,234C 46.4812,209.242 52.8145,184.075 57.5,158.5C 58.8734,158.343 60.2068,158.51 61.5,159C 64.5,163.333 68.1667,167 72.5,170C 76.5017,171.452 80.5017,171.786 84.5,171C 72.3308,181.827 64.6641,195.327 61.5,211.5 Z"/></g>
<g><path style="opacity:1" fill="#fec90d" d="M 21.5,161.5 C 22.9188,164.1 24.5854,166.6 26.5,169C 28.1398,169.348 29.4732,168.848 30.5,167.5C 31.552,167.351 32.552,167.517 33.5,168C 30.2993,170.267 26.9659,171.934 23.5,173C 21.6382,169.081 19.9715,165.081 18.5,161C 19.7195,159.205 20.7195,159.372 21.5,161.5 Z"/></g>
<g><path style="opacity:1" fill="#575857" d="M 91.5,174.5 C 94.7449,174.88 97.7449,176.047 100.5,178C 103.882,178.176 107.215,178.676 110.5,179.5C 110.291,180.086 109.957,180.586 109.5,181C 107.351,181.579 105.185,182.079 103,182.5C 99.1266,181.147 95.6266,179.147 92.5,176.5C 92.1667,175.833 91.8333,175.167 91.5,174.5 Z"/></g>
<g><path style="opacity:1" fill="#fec90d" d="M 99.5,198.5 C 100.5,198.5 101.5,198.5 102.5,198.5C 102.662,200.527 102.495,202.527 102,204.5C 99.9614,203.022 99.1281,201.022 99.5,198.5 Z"/></g>
<g><path style="opacity:1" fill="#535353" d="M 125.5,206.5 C 125.784,208.415 125.451,210.081 124.5,211.5C 122.003,212.743 119.336,213.41 116.5,213.5C 114.117,213.639 112.117,212.972 110.5,211.5C 110.328,210.508 110.662,209.842 111.5,209.5C 116.239,208.815 120.906,207.815 125.5,206.5 Z"/></g>
<g><path style="opacity:1" fill="#575857" d="M 61.5,211.5 C 61.4431,212.609 61.1098,213.609 60.5,214.5C 55.7593,218.088 50.426,219.255 44.5,218C 49.5935,214.357 55.2601,212.191 61.5,211.5 Z"/></g>
<g><path style="opacity:1" fill="#c4c5c4" d="M 110.5,211.5 C 112.117,212.972 114.117,213.639 116.5,213.5C 119.336,213.41 122.003,212.743 124.5,211.5C 123.872,214.09 122.705,216.423 121,218.5C 120.565,223.184 120.065,227.851 119.5,232.5C 115.836,232 112.836,233.167 110.5,236C 113.146,236.497 115.813,236.664 118.5,236.5C 118.5,237.5 118.5,238.5 118.5,239.5C 112.523,239.929 108.023,237.596 105,232.5C 105.006,227.457 105.672,222.457 107,217.5C 107.424,214.975 108.59,212.975 110.5,211.5 Z"/></g>
</svg>
