<?xml version="1.0" encoding="UTF-8"?>
<!DOCTYPE svg PUBLIC "-//W3C//DTD SVG 1.1//EN" "http://www.w3.org/Graphics/SVG/1.1/DTD/svg11.dtd">
<svg xmlns="http://www.w3.org/2000/svg" version="1.1" width="243px" height="264px" style="shape-rendering:geometricPrecision; text-rendering:geometricPrecision; image-rendering:optimizeQuality; fill-rule:evenodd; clip-rule:evenodd" xmlns:xlink="http://www.w3.org/1999/xlink">
<g><path style="opacity:1" fill="#fefefe" d="M 75.5,9.5 C 79.9671,9.13256 84.3004,9.63256 88.5,11C 90.9094,15.2193 92.7427,19.7193 94,24.5C 98.4132,23.3676 102.913,23.2009 107.5,24C 109.969,26.4411 111.802,29.2744 113,32.5C 113.692,40.0967 115.192,47.4301 117.5,54.5C 120.099,54.5494 122.266,55.5494 124,57.5C 124.667,60.8333 124.667,64.1667 124,67.5C 123.311,68.3567 122.478,69.0233 121.5,69.5C 120.956,72.7139 119.956,75.7139 118.5,78.5C 120.77,80.6025 122.437,83.1025 123.5,86C 120.194,92.7466 120.36,99.58 124,106.5C 137.956,99.4332 152.456,93.9332 167.5,90C 184.138,81.1806 201.138,73.1806 218.5,66C 222.152,65.5014 225.818,65.3347 229.5,65.5C 229.665,68.5184 229.498,71.5184 229,74.5C 212.593,83.9556 195.759,92.789 178.5,101C 177.167,103.333 175.833,105.667 174.5,108C 170.954,109.174 167.287,109.84 163.5,110C 155.288,114.273 146.955,118.273 138.5,122C 136.5,124 134.5,126 132.5,128C 126.563,129.318 120.73,130.818 115,132.5C 114.689,134.556 114.189,136.556 113.5,138.5C 116.421,140.089 119.421,141.589 122.5,143C 124.062,147.991 126.895,152.157 131,155.5C 131.667,161.5 131.667,167.5 131,173.5C 129.953,175.762 128.787,177.929 127.5,180C 131.979,190.082 133.479,200.582 132,211.5C 131.434,215.965 129.767,219.965 127,223.5C 126.788,228.81 125.955,233.977 124.5,239C 127.063,241.53 129.897,243.697 133,245.5C 135.052,257.103 130.219,261.269 118.5,258C 112.642,255.712 106.642,254.046 100.5,253C 98.9095,251.954 97.4095,250.787 96,249.5C 95.3333,245.5 95.3333,241.5 96,237.5C 98.1578,228.247 99.9911,218.914 101.5,209.5C 98.6755,209.919 96.5088,208.919 95,206.5C 94.3333,200.5 93.6667,194.5 93,188.5C 90.3167,185.984 87.8167,183.317 85.5,180.5C 75.6589,192.495 69.1589,206.162 66,221.5C 64,224.833 62,228.167 60,231.5C 59.2508,235.251 58.2508,238.918 57,242.5C 53.4921,246.341 49.6588,249.841 45.5,253C 39.5851,254.527 33.5851,254.861 27.5,254C 23.7663,245.733 25.2663,238.566 32,232.5C 38.2807,211.711 43.7807,190.711 48.5,169.5C 48.3333,168.833 48.1667,168.167 48,167.5C 42.4084,171.43 36.5751,174.93 30.5,178C 26.8333,178.667 23.1667,178.667 19.5,178C 13.9359,171.093 12.1026,163.259 14,154.5C 19.4835,151.503 25.3169,149.503 31.5,148.5C 30.6607,140.463 29.494,132.463 28,124.5C 27.3333,118.5 27.3333,112.5 28,106.5C 37.549,98.6165 47.3823,91.1165 57.5,84C 54.8333,80.3333 54.8333,76.6667 57.5,73C 62.7882,72.0746 67.9549,70.5746 73,68.5C 75.4075,69.5357 77.7409,69.5357 80,68.5C 78.3781,60.9822 77.2115,53.3155 76.5,45.5C 76.6667,42.8333 76.8333,40.1667 77,37.5C 77.3742,36.5838 77.8742,35.7504 78.5,35C 76.3002,32.7664 74.4669,30.2664 73,27.5C 72.3333,22.1667 72.3333,16.8333 73,11.5C 73.9947,10.9341 74.828,10.2674 75.5,9.5 Z"/></g>
<g><path style="opacity:1" fill="#000000" d="M 77.5,11.5 C 81.5164,10.8999 85.0164,11.8999 88,14.5C 89.6731,19.1765 91.3398,23.8432 93,28.5C 101.599,22.9285 107.599,24.9285 111,34.5C 111.692,42.0967 113.192,49.4301 115.5,56.5C 122.574,57.4821 124.24,60.9821 120.5,67C 118.833,67.3333 117.167,67.6667 115.5,68C 117.124,69.1171 118.124,70.6171 118.5,72.5C 117.214,74.6255 116.381,76.9589 116,79.5C 114.933,80.1905 113.766,80.6905 112.5,81C 114.5,81.3333 116.5,81.6667 118.5,82C 119.126,82.7504 119.626,83.5838 120,84.5C 118.925,88.7172 118.592,93.0505 119,97.5C 119.794,100.471 120.461,103.471 121,106.5C 121.667,107.833 122.667,108.833 124,109.5C 138.619,102.101 153.786,96.2682 169.5,92C 184.377,84.3946 199.377,77.0613 214.5,70C 218.632,68.1003 222.966,67.267 227.5,67.5C 227.896,70.0444 227.229,72.2111 225.5,74C 209.354,82.5735 193.021,90.9068 176.5,99C 175.167,101.333 173.833,103.667 172.5,106C 168.954,107.174 165.287,107.84 161.5,108C 153.288,112.273 144.955,116.273 136.5,120C 134.5,122 132.5,124 130.5,126C 124.563,127.318 118.73,128.818 113,130.5C 111.715,134.172 111.548,137.839 112.5,141.5C 119.11,142.369 122.943,146.036 124,152.5C 125.667,154.167 127.333,155.833 129,157.5C 129.667,162.167 129.667,166.833 129,171.5C 127.939,174.562 126.106,177.062 123.5,179C 129.91,190.135 131.743,201.969 129,214.5C 127.92,216.996 126.586,219.33 125,221.5C 124.319,228.215 123.652,234.881 123,241.5C 125.488,243.743 128.154,245.743 131,247.5C 131.729,255.09 128.229,257.923 120.5,256C 114.642,253.712 108.642,252.046 102.5,251C 97.7762,248.565 96.2762,244.731 98,239.5C 100.064,232.668 101.397,225.668 102,218.5C 102.499,213.988 104.333,210.155 107.5,207C 106.5,203.667 105.5,203.667 104.5,207C 101.364,208.041 98.8637,207.207 97,204.5C 96.3333,198.5 95.6667,192.5 95,186.5C 91.2435,183.414 88.2435,179.748 86,175.5C 74.4905,187.997 67.1572,202.664 64,219.5C 62,222.833 60,226.167 58,229.5C 57.2508,233.251 56.2508,236.918 55,240.5C 51.4921,244.341 47.6588,247.841 43.5,251C 38.9241,252.476 34.2574,252.81 29.5,252C 27.6067,249.083 27.1067,245.916 28,242.5C 30,239.833 32,237.167 34,234.5C 41.6135,209.746 47.9468,184.746 53,159.5C 44.8909,167.295 35.5576,172.961 25,176.5C 21.1799,176.353 18.8465,174.353 18,170.5C 15.7298,166.07 15.0631,161.403 16,156.5C 21.8211,153.711 27.8211,151.378 34,149.5C 33.0024,140.508 31.669,131.508 30,122.5C 29.3333,117.833 29.3333,113.167 30,108.5C 39.3076,100.681 48.9742,93.3477 59,86.5C 59.0533,83.798 58.5533,81.1314 57.5,78.5C 58.3947,74.8079 60.5613,73.8079 64,75.5C 66.4982,72.2569 69.8315,70.5902 74,70.5C 79.1231,72.6912 81.6231,71.0245 81.5,65.5C 81.1176,60.7545 80.2843,56.0879 79,51.5C 77.9896,46.4423 78.4896,41.6089 80.5,37C 81.5,36.6667 82.5,36.3333 83.5,36C 79.9084,33.079 77.0751,29.579 75,25.5C 74.3333,21.5 74.3333,17.5 75,13.5C 75.9947,12.9341 76.828,12.2674 77.5,11.5 Z"/></g>
<g><path style="opacity:1" fill="#9b0000" d="M 79.5,14.5 C 81.5824,14.472 83.4157,15.1387 85,16.5C 87.2436,22.642 89.4103,28.8086 91.5,35C 90.9915,36.1685 90.1581,37.0019 89,37.5C 84.952,33.1203 81.2853,28.4537 78,23.5C 77.0935,20.1562 77.5935,17.1562 79.5,14.5 Z"/></g>
<g><path style="opacity:1" fill="#3b3c3b" d="M 98.5,28.5 C 99.675,28.281 100.675,28.6143 101.5,29.5C 95.7599,34.8799 93.2599,41.5465 94,49.5C 91.3254,53.021 90.4921,56.8543 91.5,61C 93.3839,61.2163 95.0506,61.883 96.5,63C 92.5092,63.6417 88.5092,64.1417 84.5,64.5C 83.4615,56.8224 82.6281,49.1557 82,41.5C 85.3065,39.9678 88.8065,38.8011 92.5,38C 94.4125,34.7346 96.4125,31.5679 98.5,28.5 Z"/></g>
<g><path style="opacity:1" fill="#1d1d1d" d="M 107.5,35.5 C 106.308,36.5659 106.641,37.3992 108.5,38C 107.919,38.8926 107.585,39.8926 107.5,41C 108.033,43.2261 108.7,45.3927 109.5,47.5C 109.421,48.9305 109.754,50.2638 110.5,51.5C 109.311,52.4287 107.978,52.762 106.5,52.5C 105.29,52.0679 104.29,51.4013 103.5,50.5C 102.365,48.7868 100.698,48.1201 98.5,48.5C 98.2679,42.6941 99.7679,37.3608 103,32.5C 105.552,31.5128 107.052,32.5128 107.5,35.5 Z"/></g>
<g><path style="opacity:1" fill="#fec90d" d="M 107.5,35.5 C 109.288,38.3018 110.288,41.4684 110.5,45C 110.472,46.0698 110.139,46.9032 109.5,47.5C 108.7,45.3927 108.033,43.2261 107.5,41C 107.585,39.8926 107.919,38.8926 108.5,38C 106.641,37.3992 106.308,36.5659 107.5,35.5 Z"/></g>
<g><path style="opacity:1" fill="#9b0000" d="M 103.5,50.5 C 104.29,51.4013 105.29,52.0679 106.5,52.5C 108.292,53.3091 110.292,53.8091 112.5,54C 109.208,54.9357 106.208,54.4357 103.5,52.5C 102.707,53.3554 103.04,54.1887 104.5,55C 107.5,55.3333 110.5,55.6667 113.5,56C 111.618,56.1981 109.952,56.6981 108.5,57.5C 107.127,57.6567 105.793,57.49 104.5,57C 103.295,55.6244 101.962,54.4577 100.5,53.5C 98.788,51.2358 97.4547,51.7358 96.5,55C 97.8182,56.9896 99.1515,58.9896 100.5,61C 99.9747,61.6924 99.3081,62.1924 98.5,62.5C 96.3001,60.7471 95.1334,58.4138 95,55.5C 94.7837,57.3839 94.117,59.0506 93,60.5C 92.3076,59.9747 91.8076,59.3081 91.5,58.5C 92.6574,51.2682 96.6574,48.6015 103.5,50.5 Z"/></g>
<g><path style="opacity:1" fill="#1c1c1c" d="M 100.5,53.5 C 101.962,54.4577 103.295,55.6244 104.5,57C 105.793,57.49 107.127,57.6567 108.5,57.5C 111.47,58.5492 114.47,59.7159 117.5,61C 118.833,62 118.833,63 117.5,64C 115.966,64.923 114.299,65.423 112.5,65.5C 108.571,64.3576 104.571,63.5243 100.5,63C 101.826,59.7974 101.159,56.964 98.5,54.5C 98.9569,53.7025 99.6236,53.3691 100.5,53.5 Z"/></g>
<g><path style="opacity:1" fill="#9a5c32" d="M 104.5,65.5 C 104.314,69.795 105.314,73.795 107.5,77.5C 106.365,81.0387 104.532,81.372 102,78.5C 101.012,75.5755 100.346,72.5755 100,69.5C 99.2917,68.6195 98.4584,67.9528 97.5,67.5C 92.5904,67.5764 91.2571,69.9098 93.5,74.5C 92.145,77.5177 89.8116,78.851 86.5,78.5C 85.7569,74.423 85.7569,70.423 86.5,66.5C 92.4638,65.6932 98.4638,65.3599 104.5,65.5 Z"/></g>
<g><path style="opacity:1" fill="#fec096" d="M 104.5,65.5 C 106.099,65.2322 107.432,65.5655 108.5,66.5C 109.635,68.2132 111.302,68.8799 113.5,68.5C 114.476,69.8149 115.476,71.1482 116.5,72.5C 114.816,73.1497 113.483,74.1497 112.5,75.5C 111.026,76.4363 110.026,77.7697 109.5,79.5C 109.703,81.0443 110.37,82.3777 111.5,83.5C 111.135,84.9019 110.301,85.9019 109,86.5C 105.416,84.7807 101.916,83.2807 98.5,82C 100.83,84.1672 103.497,85.8338 106.5,87C 102.953,86.9138 99.9527,88.0805 97.5,90.5C 94.546,85.8779 90.8793,81.8779 86.5,78.5C 89.8116,78.851 92.145,77.5177 93.5,74.5C 94.601,75.7997 95.9343,76.2997 97.5,76C 95.7727,74.6106 94.4394,72.9439 93.5,71C 94.0069,68.6587 95.1735,68.1587 97,69.5C 97.4643,68.9056 97.631,68.2389 97.5,67.5C 98.4584,67.9528 99.2917,68.6195 100,69.5C 100.346,72.5755 101.012,75.5755 102,78.5C 104.532,81.372 106.365,81.0387 107.5,77.5C 105.314,73.795 104.314,69.795 104.5,65.5 Z"/></g>
<g><path style="opacity:1" fill="#b84a00" d="M 108.5,66.5 C 110.698,66.1201 112.365,66.7868 113.5,68.5C 111.302,68.8799 109.635,68.2132 108.5,66.5 Z"/></g>
<g><path style="opacity:1" fill="#000000" d="M 97.5,67.5 C 97.631,68.2389 97.4643,68.9056 97,69.5C 95.1735,68.1587 94.0069,68.6587 93.5,71C 94.4394,72.9439 95.7727,74.6106 97.5,76C 95.9343,76.2997 94.601,75.7997 93.5,74.5C 91.2571,69.9098 92.5904,67.5764 97.5,67.5 Z"/></g>
<g><path style="opacity:1" fill="#7e7f7e" d="M 222.5,69.5 C 225.999,69.259 226.332,70.0924 223.5,72C 206.075,81.046 188.409,89.546 170.5,97.5C 170.281,96.325 170.614,95.325 171.5,94.5C 188.517,85.9542 205.517,77.6208 222.5,69.5 Z"/></g>
<g><path style="opacity:1" fill="#6681b8" d="M 70.5,73.5 C 73.488,73.1547 74.8213,74.488 74.5,77.5C 74.3269,80.6784 72.6603,82.6784 69.5,83.5C 68.0089,82.6519 67.3422,81.3186 67.5,79.5C 67.6284,77.0452 68.6284,75.0452 70.5,73.5 Z"/></g>
<g><path style="opacity:1" fill="#6681b8" d="M 81.5,73.5 C 82.5,73.5 83.5,73.5 84.5,73.5C 84.7254,75.7159 83.8921,77.3826 82,78.5C 80.4807,76.8608 80.314,75.1942 81.5,73.5 Z"/></g>
<g><path style="opacity:1" fill="#fefffe" d="M 76.5,74.5 C 78.1852,75.1837 79.1852,76.517 79.5,78.5C 78.675,79.3857 77.675,79.719 76.5,79.5C 76.5,77.8333 76.5,76.1667 76.5,74.5 Z"/></g>
<g><path style="opacity:1" fill="#fefffe" d="M 61.5,76.5 C 61.1667,77.5 60.5,78.1667 59.5,78.5C 59.369,77.7611 59.5357,77.0944 60,76.5C 60.69,75.2617 61.19,75.2617 61.5,76.5 Z"/></g>
<g><path style="opacity:1" fill="#9a5c32" d="M 112.5,75.5 C 113.5,75.5 114.5,75.5 115.5,75.5C 115.241,79.0681 113.241,80.4015 109.5,79.5C 110.026,77.7697 111.026,76.4363 112.5,75.5 Z"/></g>
<g><path style="opacity:1" fill="#377cd0" d="M 61.5,76.5 C 63.7488,77.0798 65.4154,78.4131 66.5,80.5C 64.6675,81.2485 63.0009,82.2485 61.5,83.5C 60.5592,81.9505 59.8925,80.2838 59.5,78.5C 60.5,78.1667 61.1667,77.5 61.5,76.5 Z"/></g>
<g><path style="opacity:1" fill="#fefffe" d="M 83.5,79.5 C 86.2105,81.9446 89.0438,84.2779 92,86.5C 92.3301,89.866 91.9967,93.1994 91,96.5C 87.0188,91.6844 82.8521,87.0178 78.5,82.5C 80.1446,81.3037 81.8113,80.3037 83.5,79.5 Z"/></g>
<g><path style="opacity:1" fill="#fffffe" d="M 66.5,80.5 C 67.0427,83.0384 68.0427,85.3718 69.5,87.5C 67.4352,87.5172 65.4352,87.8505 63.5,88.5C 63.6716,87.5084 63.3382,86.8417 62.5,86.5C 62.4431,85.391 62.1098,84.391 61.5,83.5C 63.0009,82.2485 64.6675,81.2485 66.5,80.5 Z"/></g>
<g><path style="opacity:1" fill="#632b1c" d="M 75.5,82.5 C 86.542,93.0423 96.7087,104.376 106,116.5C 106.749,117.635 106.583,118.635 105.5,119.5C 96.5303,108.031 86.697,97.3639 76,87.5C 75.5065,85.8659 75.3398,84.1992 75.5,82.5 Z"/></g>
<g><path style="opacity:1" fill="#fefffe" d="M 72.5,83.5 C 73.1471,84.2739 73.4805,85.2739 73.5,86.5C 72.6009,93.8243 71.7675,101.158 71,108.5C 69.4443,113.28 67.1109,117.613 64,121.5C 63.8333,120.5 63.6667,119.5 63.5,118.5C 65.83,114.835 67.33,110.835 68,106.5C 68.6285,99.9721 69.4618,93.4721 70.5,87C 70.8618,85.5657 71.5285,84.3991 72.5,83.5 Z"/></g>
<g><path style="opacity:1" fill="#fefffe" d="M 117.5,87.5 C 115.784,87.3713 114.117,87.038 112.5,86.5C 115.102,82.3026 116.768,82.6359 117.5,87.5 Z"/></g>
<g><path style="opacity:1" fill="#3774c2" d="M 62.5,86.5 C 63.3382,86.8417 63.6716,87.5084 63.5,88.5C 63.4326,89.9587 63.7659,91.2921 64.5,92.5C 64.6287,94.2161 64.962,95.8828 65.5,97.5C 65.5,98.8333 65.5,100.167 65.5,101.5C 65.5,102.833 65.5,104.167 65.5,105.5C 66.4305,108.603 65.9305,111.603 64,114.5C 63.6667,112.5 63.3333,110.5 63,108.5C 58.8211,111.257 54.8211,114.257 51,117.5C 50.2938,121.887 50.4604,126.22 51.5,130.5C 43.689,126.299 40.689,128.632 42.5,137.5C 41.0413,137.567 39.7079,137.234 38.5,136.5C 37.4758,133.339 37.3092,130.006 38,126.5C 40.9415,125.941 43.7748,125.107 46.5,124C 44.0454,122.46 41.3787,122.126 38.5,123C 37.0577,123.377 36.0577,124.21 35.5,125.5C 35.6621,127.527 35.4955,129.527 35,131.5C 34.2214,124.833 33.8881,118.166 34,111.5C 39.924,105.572 46.424,100.406 53.5,96C 56.7322,92.9377 59.7322,89.771 62.5,86.5 Z"/></g>
<g><path style="opacity:1" fill="#377cd0" d="M 112.5,86.5 C 114.117,87.038 115.784,87.3713 117.5,87.5C 116.89,88.391 116.557,89.391 116.5,90.5C 115.167,90.1667 113.833,89.8333 112.5,89.5C 112.5,88.5 112.5,87.5 112.5,86.5 Z"/></g>
<g><path style="opacity:1" fill="#377cd0" d="M 69.5,87.5 C 68.6993,89.0418 68.366,90.7085 68.5,92.5C 67.1667,92.5 65.8333,92.5 64.5,92.5C 63.7659,91.2921 63.4326,89.9587 63.5,88.5C 65.4352,87.8505 67.4352,87.5172 69.5,87.5 Z"/></g>
<g><path style="opacity:1" fill="#fefffe" d="M 101.5,88.5 C 105.439,88.1776 106.272,89.511 104,92.5C 101.179,95.4895 98.0125,97.1561 94.5,97.5C 96.4752,94.1951 98.8085,91.1951 101.5,88.5 Z"/></g>
<g><path style="opacity:1" fill="#fefefe" d="M 74.5,89.5 C 79.6381,95.7272 84.8048,102.061 90,108.5C 90.2927,111.869 88.7927,113.702 85.5,114C 82.0349,109.533 78.2016,105.367 74,101.5C 73.3064,97.446 73.4731,93.446 74.5,89.5 Z"/></g>
<g><path style="opacity:1" fill="#377cd0" d="M 76.5,89.5 C 81.9843,95.0916 87.4843,100.758 93,106.5C 93.5628,107.725 93.2295,108.725 92,109.5C 86.5943,102.939 81.4276,96.2721 76.5,89.5 Z"/></g>
<g><path style="opacity:1" fill="#377cd0" d="M 109.5,91.5 C 106.154,96.1366 102.321,100.47 98,104.5C 96.8333,103.333 95.6667,102.167 94.5,101C 100.247,98.7526 104.58,94.9193 107.5,89.5C 108.522,89.8555 109.189,90.5222 109.5,91.5 Z"/></g>
<g><path style="opacity:1" fill="#e3e8f7" d="M 112.5,89.5 C 113.833,89.8333 115.167,90.1667 116.5,90.5C 115.8,95.3554 114.467,96.0221 112.5,92.5C 112.5,91.5 112.5,90.5 112.5,89.5 Z"/></g>
<g><path style="opacity:1" fill="#eeeeee" d="M 111.5,92.5 C 111.737,93.791 111.404,94.791 110.5,95.5C 108.2,100.076 105.367,104.41 102,108.5C 100.978,107.646 100.145,106.646 99.5,105.5C 104.82,102.173 108.153,97.506 109.5,91.5C 110.925,89.9689 111.591,90.3023 111.5,92.5 Z"/></g>
<g><path style="opacity:1" fill="#fefffe" d="M 64.5,92.5 C 65.8333,92.5 67.1667,92.5 68.5,92.5C 68.634,94.2915 68.3007,95.9582 67.5,97.5C 66.8333,97.5 66.1667,97.5 65.5,97.5C 64.962,95.8828 64.6287,94.2161 64.5,92.5 Z"/></g>
<g><path style="opacity:1" fill="#fefffe" d="M 111.5,92.5 C 111.833,92.5 112.167,92.5 112.5,92.5C 112.269,96.992 112.936,101.325 114.5,105.5C 114,108.5 113.5,111.5 113,114.5C 112.333,113.833 111.667,113.167 111,112.5C 110.501,106.843 110.334,101.176 110.5,95.5C 111.404,94.791 111.737,93.791 111.5,92.5 Z"/></g>
<g><path style="opacity:1" fill="#377cd0" d="M 114.5,96.5 C 116.927,100.387 118.427,104.721 119,109.5C 119.833,110.333 120.667,111.167 121.5,112C 119.351,113.164 117.185,114.33 115,115.5C 114.76,112.343 114.927,109.176 115.5,106C 115.589,103.287 114.922,100.787 113.5,98.5C 113.863,97.8165 114.196,97.1499 114.5,96.5 Z"/></g>
<g><path style="opacity:1" fill="#fec90d" d="M 161.5,102.5 C 160.334,100.834 160.334,99.1673 161.5,97.5C 164.166,96.2622 166.832,96.2622 169.5,97.5C 170.636,104.595 167.969,106.261 161.5,102.5 Z"/></g>
<g><path style="opacity:1" fill="#377cd0" d="M 65.5,97.5 C 66.1667,97.5 66.8333,97.5 67.5,97.5C 67.5,98.8333 67.5,100.167 67.5,101.5C 66.8333,101.5 66.1667,101.5 65.5,101.5C 65.5,100.167 65.5,98.8333 65.5,97.5 Z"/></g>
<g><path style="opacity:1" fill="#7e7f7e" d="M 157.5,101.5 C 149.192,104.656 141.192,108.323 133.5,112.5C 131.767,111.992 131.434,111.159 132.5,110C 141.407,106.296 150.24,102.462 159,98.5C 159.239,99.788 158.739,100.788 157.5,101.5 Z"/></g>
<g><path style="opacity:1" fill="#fefffe" d="M 65.5,101.5 C 66.1667,101.5 66.8333,101.5 67.5,101.5C 67.8432,103.483 67.1765,104.817 65.5,105.5C 65.5,104.167 65.5,102.833 65.5,101.5 Z"/></g>
<g><path style="opacity:1" fill="#392419" d="M 157.5,101.5 C 158.833,101.833 160.167,102.167 161.5,102.5C 161.047,103.458 160.381,104.292 159.5,105C 151.373,109.398 143.04,113.232 134.5,116.5C 134.567,115.041 134.234,113.708 133.5,112.5C 141.192,108.323 149.192,104.656 157.5,101.5 Z"/></g>
<g><path style="opacity:1" fill="#377cd0" d="M 72.5,102.5 C 77.1857,106.186 81.1857,110.52 84.5,115.5C 79.1321,121.849 72.4654,126.183 64.5,128.5C 64.3379,126.473 64.5045,124.473 65,122.5C 70.0289,116.777 72.5289,110.11 72.5,102.5 Z"/></g>
<g><path style="opacity:1" fill="#377cd0" d="M 107.5,102.5 C 108.323,105.977 108.823,109.644 109,113.5C 111.326,114.713 111.659,116.046 110,117.5C 107.392,115.65 105.225,113.316 103.5,110.5C 105.297,108.045 106.63,105.378 107.5,102.5 Z"/></g>
<g><path style="opacity:1" fill="#fefffe" d="M 94.5,109.5 C 95.9616,110.458 97.2949,111.624 98.5,113C 88.0111,121.416 76.6778,128.583 64.5,134.5C 63.5291,133.038 63.8624,131.705 65.5,130.5C 76.4725,125.192 86.1391,118.192 94.5,109.5 Z"/></g>
<g><path style="opacity:1" fill="#fec90d" d="M 127.5,111.5 C 129.544,112.031 131.211,113.198 132.5,115C 131.975,115.692 131.308,116.192 130.5,116.5C 128.954,115.316 127.287,114.316 125.5,113.5C 126.243,112.818 126.909,112.151 127.5,111.5 Z"/></g>
<g><path style="opacity:1" fill="#377cd0" d="M 99.5,114.5 C 101.416,115.665 102.249,117.332 102,119.5C 100.628,118.09 99.795,116.423 99.5,114.5 Z"/></g>
<g><path style="opacity:1" fill="#fffffe" d="M 58.5,115.5 C 60.3379,119.293 61.6712,123.46 62.5,128C 61.3144,130.748 60.3144,133.581 59.5,136.5C 58.086,137.624 56.586,138.624 55,139.5C 54.3064,132.826 53.9731,126.159 54,119.5C 55.3968,117.93 56.8968,116.596 58.5,115.5 Z"/></g>
<g><path style="opacity:1" fill="#7e7f7e" d="M 113.5,118.5 C 115.488,116.325 117.821,115.659 120.5,116.5C 118.293,117.635 115.96,118.301 113.5,118.5 Z"/></g>
<g><path style="opacity:1" fill="#fec096" d="M 125.5,116.5 C 125.56,115.957 125.893,115.624 126.5,115.5C 129.5,116.758 130.5,118.758 129.5,121.5C 128.113,119.79 126.779,118.123 125.5,116.5 Z"/></g>
<g><path style="opacity:1" fill="#fefffe" d="M 95.5,116.5 C 97.8863,117.373 99.8863,118.873 101.5,121C 98.9504,122.442 96.2837,123.608 93.5,124.5C 92.354,123.855 91.354,123.022 90.5,122C 92.3734,120.296 94.0401,118.463 95.5,116.5 Z"/></g>
<g><path style="opacity:1" fill="#fec096" d="M 121.5,116.5 C 124.659,116.917 126.659,118.75 127.5,122C 127.167,122.5 126.833,123 126.5,123.5C 123.651,121.988 121.984,119.655 121.5,116.5 Z"/></g>
<g><path style="opacity:0" fill="#fe00f2" d="M 57.5,118.5 C 58.2323,121.627 59.2323,124.794 60.5,128C 59.7152,131.029 58.5485,133.862 57,136.5C 56.7199,131.803 56.2199,127.137 55.5,122.5C 55.7517,120.927 56.4183,119.594 57.5,118.5 Z"/></g>
<g><path style="opacity:1" fill="#7e7f7e" d="M 113.5,118.5 C 113.473,120.199 112.806,121.533 111.5,122.5C 105.875,124.316 100.541,126.649 95.5,129.5C 93.8967,129.688 92.5634,129.188 91.5,128C 98.7125,124.561 106.046,121.394 113.5,118.5 Z"/></g>
<g><path style="opacity:1" fill="#fec096" d="M 117.5,118.5 C 118.552,118.351 119.552,118.517 120.5,119C 121.257,120.512 122.257,121.846 123.5,123C 122.725,124.23 121.725,124.563 120.5,124C 118.84,122.512 117.84,120.679 117.5,118.5 Z"/></g>
<g><path style="opacity:1" fill="#fec096" d="M 115.5,124.5 C 115.672,123.508 115.338,122.842 114.5,122.5C 114.281,121.325 114.614,120.325 115.5,119.5C 116.624,120.914 117.624,122.414 118.5,124C 117.648,125.728 116.648,125.895 115.5,124.5 Z"/></g>
<g><path style="opacity:1" fill="#fefffe" d="M 38.5,136.5 C 38.6068,138.379 38.1068,138.712 37,137.5C 36.8238,133.312 36.3238,129.312 35.5,125.5C 36.0577,124.21 37.0577,123.377 38.5,123C 41.3787,122.126 44.0454,122.46 46.5,124C 43.7748,125.107 40.9415,125.941 38,126.5C 37.3092,130.006 37.4758,133.339 38.5,136.5 Z"/></g>
<g><path style="opacity:1" fill="#377cd0" d="M 87.5,122.5 C 90.0317,122.829 91.0317,123.995 90.5,126C 83.2986,128.857 76.2986,132.191 69.5,136C 68.5,136.667 67.5,136.667 66.5,136C 73.6745,131.637 80.6745,127.137 87.5,122.5 Z"/></g>
<g><path style="opacity:1" fill="#3a2519" d="M 111.5,122.5 C 112.5,122.5 113.5,122.5 114.5,122.5C 115.338,122.842 115.672,123.508 115.5,124.5C 109.741,128.388 103.574,131.721 97,134.5C 94.3894,133.5 93.8894,131.833 95.5,129.5C 100.541,126.649 105.875,124.316 111.5,122.5 Z"/></g>
<g><path style="opacity:1" fill="#fefffe" d="M 51.5,130.5 C 51.5,132.5 51.5,134.5 51.5,136.5C 48.4552,136.508 45.4552,136.841 42.5,137.5C 40.689,128.632 43.689,126.299 51.5,130.5 Z"/></g>
<g><path style="opacity:1" fill="#fec90d" d="M 88.5,128.5 C 92.5191,130.759 92.0191,132.092 87,132.5C 86.5,132.167 86,131.833 85.5,131.5C 86.3398,130.265 87.3398,129.265 88.5,128.5 Z"/></g>
<g><path style="opacity:1" fill="#377cd0" d="M 109.5,129.5 C 110.124,129.917 110.457,130.584 110.5,131.5C 109.861,134.475 109.361,137.475 109,140.5C 106.875,141.851 105.708,141.185 105.5,138.5C 105.79,134.954 107.124,131.954 109.5,129.5 Z"/></g>
<g><path style="opacity:1" fill="#7c7c7c" d="M 82.5,135.5 C 76.3858,136.631 71.5525,139.631 68,144.5C 66.6976,145.085 65.531,145.751 64.5,146.5C 62.901,146.232 61.5676,146.566 60.5,147.5C 60.0269,148.906 59.0269,149.573 57.5,149.5C 55.9724,148.198 54.9724,146.531 54.5,144.5C 63.6849,140.199 73.0182,135.865 82.5,131.5C 84.9341,133.147 84.9341,134.48 82.5,135.5 Z"/></g>
<g><path style="opacity:1" fill="#fec90d" d="M 89.5,132.5 C 91.5901,132.45 92.9234,133.45 93.5,135.5C 90.2652,139.516 87.9319,139.183 86.5,134.5C 87.6016,133.824 88.6016,133.158 89.5,132.5 Z"/></g>
<g><path style="opacity:1" fill="#fffeff" d="M 104.5,132.5 C 103.587,145.186 98.5872,156.352 89.5,166C 86.0821,167.695 82.5821,169.195 79,170.5C 76.0053,169.724 73.172,168.557 70.5,167C 68.5394,164.037 66.206,161.371 63.5,159C 64.0253,158.308 64.6919,157.808 65.5,157.5C 73.8497,168.733 83.0164,169.4 93,159.5C 97.4052,150.696 101.239,141.696 104.5,132.5 Z"/></g>
<g><path style="opacity:1" fill="#3576c6" d="M 93.5,141.5 C 92.5084,141.672 91.8417,141.338 91.5,140.5C 94.4379,138.023 97.7712,136.023 101.5,134.5C 102.472,140.364 99.8057,142.698 93.5,141.5 Z"/></g>
<g><path style="opacity:1" fill="#3b2519" d="M 82.5,135.5 C 84.5638,135.762 85.8971,136.929 86.5,139C 80.3825,143.143 73.8825,146.643 67,149.5C 65.6898,148.87 64.8565,147.87 64.5,146.5C 65.531,145.751 66.6976,145.085 68,144.5C 71.5525,139.631 76.3858,136.631 82.5,135.5 Z"/></g>
<g><path style="opacity:1" fill="#fec096" d="M 52.5,143.5 C 51.5416,143.953 50.7083,144.619 50,145.5C 49.6667,148.833 49.3333,152.167 49,155.5C 48.0071,151.558 47.3404,147.558 47,143.5C 46.4657,147.859 46.6324,152.192 47.5,156.5C 46.0689,156.119 45.2355,155.119 45,153.5C 44.6667,150.5 44.3333,147.5 44,144.5C 43.7339,148.974 43.5672,153.307 43.5,157.5C 42.0227,153.767 41.1894,149.767 41,145.5C 40.2829,149.045 40.4496,152.545 41.5,156C 41.3333,156.5 41.1667,157 41,157.5C 38.2832,152.538 37.2832,147.205 38,141.5C 38.5,141 39,140.5 39.5,140C 43.4908,139.358 47.4908,138.858 51.5,138.5C 51.6287,140.216 51.962,141.883 52.5,143.5 Z"/></g>
<g><path style="opacity:1" fill="#fefffe" d="M 91.5,140.5 C 91.8417,141.338 92.5084,141.672 93.5,141.5C 95.2922,142.309 97.2922,142.809 99.5,143C 97.1902,143.497 94.8568,143.663 92.5,143.5C 90.5,140.833 88.5,140.833 86.5,143.5C 84.6214,143.607 84.2881,143.107 85.5,142C 87.3453,140.872 89.3453,140.372 91.5,140.5 Z"/></g>
<g><path style="opacity:1" fill="#647fb5" d="M 92.5,143.5 C 92.335,146.85 92.5017,150.183 93,153.5C 93.498,150.518 93.6646,147.518 93.5,144.5C 95.1992,144.34 96.8659,144.506 98.5,145C 96.274,150.787 93.274,156.12 89.5,161C 78.9676,167.933 71.3009,165.6 66.5,154C 66.8333,153.167 67.1667,152.333 67.5,151.5C 71.5,149.5 75.5,147.5 79.5,145.5C 80.8333,149.167 80.8333,152.833 79.5,156.5C 76.6626,151.15 75.996,151.483 77.5,157.5C 78.8333,157.5 80.1667,157.5 81.5,157.5C 81.5,153.167 81.5,148.833 81.5,144.5C 83.4147,144.784 85.0813,144.451 86.5,143.5C 88.5,140.833 90.5,140.833 92.5,143.5 Z"/></g>
<g><path style="opacity:1" fill="#cea38a" d="M 105.5,143.5 C 105.897,142.475 106.563,142.308 107.5,143C 112.011,145.754 116.344,148.754 120.5,152C 119.534,153.678 118.201,154.345 116.5,154C 113.017,150.351 109.35,146.851 105.5,143.5 Z"/></g>
<g><path style="opacity:1" fill="#000000" d="M 52.5,143.5 C 50.7217,147.565 50.0551,151.899 50.5,156.5C 49.5,156.5 48.5,156.5 47.5,156.5C 46.6324,152.192 46.4657,147.859 47,143.5C 47.3404,147.558 48.0071,151.558 49,155.5C 49.3333,152.167 49.6667,148.833 50,145.5C 50.7083,144.619 51.5416,143.953 52.5,143.5 Z"/></g>
<g><path style="opacity:1" fill="#3c261a" d="M 52.5,143.5 C 53.1667,143.833 53.8333,144.167 54.5,144.5C 54.9724,146.531 55.9724,148.198 57.5,149.5C 57.1583,150.338 56.4916,150.672 55.5,150.5C 54.6153,153.06 52.9486,155.06 50.5,156.5C 50.0551,151.899 50.7217,147.565 52.5,143.5 Z"/></g>
<g><path style="opacity:1" fill="#cea38a" d="M 104.5,144.5 C 107.666,146.834 110.333,149.667 112.5,153C 114.706,155.346 117.206,155.846 120,154.5C 127.118,159.793 128.284,166.126 123.5,173.5C 122.167,174.833 120.833,174.833 119.5,173.5C 117.476,171.31 115.643,168.977 114,166.5C 111.678,158.668 108.512,151.335 104.5,144.5 Z"/></g>
<g><path style="opacity:1" fill="#fec90d" d="M 60.5,147.5 C 61.5,147.5 62.5,147.5 63.5,147.5C 64.523,150.393 64.523,153.226 63.5,156C 58.7897,157.121 56.123,155.288 55.5,150.5C 56.4916,150.672 57.1583,150.338 57.5,149.5C 59.0269,149.573 60.0269,148.906 60.5,147.5 Z"/></g>
<g><path style="opacity:1" fill="#6681b8" d="M 102.5,148.5 C 103.812,149.145 104.812,150.145 105.5,151.5C 97.4482,158.633 96.4482,157.633 102.5,148.5 Z"/></g>
<g><path style="opacity:1" fill="#3e271a" d="M 47.5,156.5 C 48.5,156.5 49.5,156.5 50.5,156.5C 47.4797,160.851 43.4797,164.017 38.5,166C 35.8106,166.795 33.144,167.295 30.5,167.5C 29.4732,168.848 28.1398,169.348 26.5,169C 24.5854,166.6 22.9188,164.1 21.5,161.5C 21.281,160.325 21.6143,159.325 22.5,158.5C 27.4299,157.061 32.2632,155.394 37,153.5C 37.7065,155.081 38.5399,156.581 39.5,158C 41.0657,158.765 42.3991,158.598 43.5,157.5C 43.5672,153.307 43.7339,148.974 44,144.5C 44.3333,147.5 44.6667,150.5 45,153.5C 45.2355,155.119 46.0689,156.119 47.5,156.5 Z"/></g>
<g><path style="opacity:1" fill="#647fb5" d="M 92.5,176.5 C 95.6266,179.147 99.1266,181.147 103,182.5C 105.185,182.079 107.351,181.579 109.5,181C 109.957,180.586 110.291,180.086 110.5,179.5C 107.215,178.676 103.882,178.176 100.5,178C 97.7449,176.047 94.7449,174.88 91.5,174.5C 90.7721,172.265 89.4388,170.432 87.5,169C 92.0501,166.117 95.5501,162.284 98,157.5C 98.3333,157.833 98.6667,158.167 99,158.5C 101.414,156.709 103.914,155.043 106.5,153.5C 108.635,158.035 110.469,162.701 112,167.5C 114,170.167 116,172.833 118,175.5C 121.732,184.531 124.565,193.865 126.5,203.5C 126.431,205.709 125.764,207.709 124.5,209.5C 121.41,210.731 118.243,211.731 115,212.5C 113.274,212.054 111.774,211.221 110.5,210C 112.325,208.534 112.825,206.701 112,204.5C 108.745,198.992 105.745,193.325 103,187.5C 99.2191,183.891 95.7191,180.224 92.5,176.5 Z"/></g>
<g><path style="opacity:1" fill="#000000" d="M 111.5,156.5 C 111.56,155.957 111.893,155.624 112.5,155.5C 115.157,158.147 117.323,161.147 119,164.5C 120.214,166.049 121.714,167.215 123.5,168C 122.5,168.667 121.5,168.667 120.5,168C 117.36,164.188 114.36,160.355 111.5,156.5 Z"/></g>
<g><path style="opacity:1" fill="#000000" d="M 105.5,157.5 C 107.379,157.393 107.712,157.893 106.5,159C 102.742,160.834 99.0753,162.5 95.5,164C 98.4905,161.152 101.824,158.985 105.5,157.5 Z"/></g>
<g><path style="opacity:1" fill="#647fb6" d="M 57.5,158.5 C 58.8734,158.343 60.2068,158.51 61.5,159C 64.5,163.333 68.1667,167 72.5,170C 76.5017,171.452 80.5017,171.786 84.5,171C 71.8861,182.384 64.0527,196.55 61,213.5C 54.7893,216.647 49.6227,215.48 45.5,210C 50.2106,192.991 54.2106,175.825 57.5,158.5 Z"/></g>
<g><path style="opacity:1" fill="#fec90d" d="M 21.5,161.5 C 22.9188,164.1 24.5854,166.6 26.5,169C 28.1398,169.348 29.4732,168.848 30.5,167.5C 31.552,167.351 32.552,167.517 33.5,168C 30.2993,170.267 26.9659,171.934 23.5,173C 21.6382,169.081 19.9715,165.081 18.5,161C 19.7195,159.205 20.7195,159.372 21.5,161.5 Z"/></g>
<g><path style="opacity:1" fill="#384e78" d="M 91.5,174.5 C 94.7449,174.88 97.7449,176.047 100.5,178C 103.882,178.176 107.215,178.676 110.5,179.5C 110.291,180.086 109.957,180.586 109.5,181C 107.351,181.579 105.185,182.079 103,182.5C 99.1266,181.147 95.6266,179.147 92.5,176.5C 92.1667,175.833 91.8333,175.167 91.5,174.5 Z"/></g>
<g><path style="opacity:1" fill="#fec90d" d="M 99.5,198.5 C 100.5,198.5 101.5,198.5 102.5,198.5C 102.662,200.527 102.495,202.527 102,204.5C 99.9614,203.022 99.1281,201.022 99.5,198.5 Z"/></g>
<g><path style="opacity:1" fill="#1d1d1d" d="M 123.5,211.5 C 124.043,211.56 124.376,211.893 124.5,212.5C 123.533,214.63 122.366,216.63 121,218.5C 120.53,226.288 119.364,233.955 117.5,241.5C 120.254,245.141 123.754,247.808 128,249.5C 128.112,252.056 126.779,253.39 124,253.5C 119.844,252.339 116.011,250.505 112.5,248C 101.004,248.032 98.671,243.532 105.5,234.5C 104.978,233.393 104.645,232.226 104.5,231C 105.269,225.443 106.269,219.943 107.5,214.5C 113.184,214.739 118.518,213.739 123.5,211.5 Z"/></g>
<g><path style="opacity:1" fill="#1d1e1d" d="M 44.5,214.5 C 49.128,216.971 54.128,218.138 59.5,218C 54.3358,223.802 51.8358,230.635 52,238.5C 50.3523,239.717 48.519,240.55 46.5,241C 43.7536,245.126 39.9203,247.626 35,248.5C 33.3925,248.231 32.2259,247.397 31.5,246C 32.5427,242.087 34.7093,238.92 38,236.5C 39.8754,229.044 42.0421,221.711 44.5,214.5 Z"/></g>
</svg>
