<?xml version="1.0" encoding="UTF-8"?>
<!DOCTYPE svg PUBLIC "-//W3C//DTD SVG 1.1//EN" "http://www.w3.org/Graphics/SVG/1.1/DTD/svg11.dtd">
<svg xmlns="http://www.w3.org/2000/svg" version="1.1" width="495px" height="495px" style="shape-rendering:geometricPrecision; text-rendering:geometricPrecision; image-rendering:optimizeQuality; fill-rule:evenodd; clip-rule:evenodd" xmlns:xlink="http://www.w3.org/1999/xlink">
<g><path style="opacity:1" fill="#fefefe" d="M 230.5,65.5 C 233.518,65.3354 236.518,65.502 239.5,66C 242,67.8333 244.5,69.6667 247,71.5C 248.669,77.8974 250.335,84.2308 252,90.5C 253.009,96.3908 252.509,102.057 250.5,107.5C 251.375,111.787 251.708,116.121 251.5,120.5C 261.058,120.401 264.725,125.068 262.5,134.5C 260.146,134.838 257.813,135.338 255.5,136C 256.602,138.401 256.769,140.901 256,143.5C 254.054,146.139 253.054,149.139 253,152.5C 250.943,153.978 249.61,155.978 249,158.5C 245.606,159.456 242.106,159.789 238.5,159.5C 238.5,161.167 238.5,162.833 238.5,164.5C 244.365,164.382 250.031,164.882 255.5,166C 299.117,141.64 342.117,116.64 384.5,91C 401.167,82.6667 417.833,74.3333 434.5,66C 437.817,65.5017 441.15,65.335 444.5,65.5C 444.743,68.8826 444.076,72.0492 442.5,75C 414.976,93.7325 387.643,112.399 360.5,131C 359.833,132.667 359.167,134.333 358.5,136C 339.46,146.361 320.794,157.528 302.5,169.5C 302.002,172.593 301.002,175.426 299.5,178C 295.162,179.942 290.829,181.775 286.5,183.5C 286.051,187.083 284.718,190.25 282.5,193C 276.44,195.212 270.273,197.045 264,198.5C 255.899,202.947 250.232,209.613 247,218.5C 241.879,221.953 237.046,225.786 232.5,230C 227.202,233.211 221.535,235.377 215.5,236.5C 214.738,237.628 214.071,238.795 213.5,240C 211.567,240.251 209.734,240.751 208,241.5C 207.759,244.289 207.092,246.956 206,249.5C 203.594,251.983 201.427,254.65 199.5,257.5C 209.177,270.174 217.343,283.84 224,298.5C 226.333,301.833 228.667,305.167 231,308.5C 231.667,313.167 231.667,317.833 231,322.5C 227.756,342.763 226.756,363.096 228,383.5C 232.351,388.503 237.851,390.67 244.5,390C 245.931,390.465 247.097,391.299 248,392.5C 248.781,397.554 248.614,402.554 247.5,407.5C 232.371,411.048 217.038,412.214 201.5,411C 197.737,410.08 194.237,408.58 191,406.5C 189.341,397.817 187.508,389.317 185.5,381C 185.582,377.002 186.416,373.169 188,369.5C 188.608,355.466 189.274,341.466 190,327.5C 184.327,319.667 178.494,312.001 172.5,304.5C 168.493,310.512 164.993,316.845 162,323.5C 156.791,327.375 153.124,332.375 151,338.5C 146.117,343.596 142.783,349.596 141,356.5C 139.773,362.862 138.44,369.195 137,375.5C 135.926,376.618 134.76,377.618 133.5,378.5C 136.853,379.798 140.02,381.465 143,383.5C 144.457,387.741 144.791,392.074 144,396.5C 137.592,400.354 130.592,402.354 123,402.5C 112.059,401.575 101.559,398.909 91.5,394.5C 90.3368,388.863 90.1701,383.196 91,377.5C 94.4511,374.044 97.1178,370.044 99,365.5C 101.078,355.112 103.411,344.778 106,334.5C 110.666,325.831 115.832,317.498 121.5,309.5C 120.311,308.571 118.978,308.238 117.5,308.5C 117.334,303.821 117.501,299.155 118,294.5C 124.866,285.933 131.366,277.1 137.5,268C 134.333,266.167 131.833,263.667 130,260.5C 129.532,248.899 132.532,238.232 139,228.5C 143.5,223.333 148,218.167 152.5,213C 147.674,211.183 143.674,208.183 140.5,204C 139.234,203.691 138.067,203.191 137,202.5C 134.762,196.985 135.095,191.651 138,186.5C 145.542,175.252 152.709,163.752 159.5,152C 150.712,149.26 147.546,143.427 150,134.5C 152.798,129.737 155.964,125.237 159.5,121C 163.167,120.333 166.833,120.333 170.5,121C 173.918,122.695 177.418,124.195 181,125.5C 183.864,124.98 186.031,123.48 187.5,121C 198.051,118.55 203.885,122.717 205,133.5C 205.953,131.545 207.287,129.878 209,128.5C 209.266,117.824 209.266,107.158 209,96.5C 211.234,94.3002 213.734,92.4669 216.5,91C 221.028,90.5276 225.361,89.5276 229.5,88C 225.217,80.2811 225.551,72.7811 230.5,65.5 Z"/></g>
<g><path style="opacity:1" fill="#000000" d="M 232.5,67.5 C 236.614,67.7492 240.28,69.2492 243.5,72C 245.235,74.1922 246.402,76.6922 247,79.5C 247.735,85.6705 248.901,91.6705 250.5,97.5C 250.312,100.982 249.645,104.315 248.5,107.5C 249.255,112.474 249.589,117.474 249.5,122.5C 257.078,121.75 260.745,125.083 260.5,132.5C 257.101,133.016 253.768,133.85 250.5,135C 252.227,136.389 253.561,138.056 254.5,140C 252.229,143.093 251.062,146.593 251,150.5C 248.943,151.978 247.61,153.978 247,156.5C 243.551,157.61 240.051,157.61 236.5,156.5C 236.98,159.685 236.314,162.519 234.5,165C 236.09,166.046 237.59,167.213 239,168.5C 240.299,167.02 241.966,166.354 244,166.5C 247.898,167.775 251.898,168.775 256,169.5C 293.418,147.54 330.918,125.707 368.5,104C 372.159,101.046 375.826,98.0463 379.5,95C 398.838,86.832 417.838,77.832 436.5,68C 442.332,66.6563 443.666,68.323 440.5,73C 412.976,91.7325 385.643,110.399 358.5,129C 357.833,130.667 357.167,132.333 356.5,134C 337.46,144.361 318.794,155.528 300.5,167.5C 299.686,169.766 299.186,172.1 299,174.5C 294.475,177.506 289.641,179.84 284.5,181.5C 284.051,185.083 282.718,188.25 280.5,191C 274.44,193.212 268.273,195.045 262,196.5C 253.899,200.947 248.232,207.613 245,216.5C 239.879,219.953 235.046,223.786 230.5,228C 225.202,231.211 219.535,233.377 213.5,234.5C 212.738,235.628 212.071,236.795 211.5,238C 209.567,238.251 207.734,238.751 206,239.5C 205.006,246.181 201.839,251.681 196.5,256C 199.138,261.987 202.638,267.487 207,272.5C 213.828,285.494 221.162,298.161 229,310.5C 227.919,326.157 226.586,341.823 225,357.5C 224.86,366.222 224.694,374.888 224.5,383.5C 229.113,389.307 235.113,392.14 242.5,392C 243.931,392.465 245.097,393.299 246,394.5C 246.76,398.225 246.593,401.892 245.5,405.5C 231.697,408.829 217.697,409.996 203.5,409C 199.737,408.08 196.237,406.58 193,404.5C 189.947,398.712 189.78,392.879 192.5,387C 189.001,386.439 187.334,384.439 187.5,381C 188.178,377.805 189.012,374.638 190,371.5C 190.318,356.318 191.485,341.318 193.5,326.5C 191.851,325.352 190.351,324.019 189,322.5C 184.105,314.27 178.438,306.604 172,299.5C 167.492,306.513 163.492,313.847 160,321.5C 154.791,325.375 151.124,330.375 149,336.5C 144.117,341.596 140.783,347.596 139,354.5C 137.773,360.862 136.44,367.195 135,373.5C 133.068,375.038 130.901,376.205 128.5,377C 130.019,378.351 131.352,379.851 132.5,381.5C 140.494,382.325 143.661,386.659 142,394.5C 131.784,400.857 120.951,402.024 109.5,398C 104.071,396.452 98.7375,394.619 93.5,392.5C 92.3391,388.205 92.1725,383.871 93,379.5C 96.4511,376.044 99.1178,372.044 101,367.5C 103.078,357.112 105.411,346.778 108,336.5C 114.302,326.033 120.802,315.7 127.5,305.5C 127.333,305.167 127.167,304.833 127,304.5C 124.772,306.113 122.272,306.78 119.5,306.5C 119.335,303.15 119.502,299.817 120,296.5C 127.289,286.755 134.456,276.922 141.5,267C 130.632,261.387 128.465,253.221 135,242.5C 136.473,238.221 138.473,234.221 141,230.5C 145.93,224.314 151.097,218.314 156.5,212.5C 154.584,210.683 152.251,209.516 149.5,209C 146.721,205.545 143.388,202.879 139.5,201C 136.746,196.748 136.913,192.581 140,188.5C 147.958,176.084 155.792,163.584 163.5,151C 159.581,149.46 156.081,147.293 153,144.5C 151.578,141.97 151.245,139.303 152,136.5C 154.798,131.737 157.964,127.237 161.5,123C 163.833,122.333 166.167,122.333 168.5,123C 173.879,126.791 179.712,127.958 186,126.5C 191.788,120.707 196.788,121.374 201,128.5C 203.342,134.551 204.676,140.885 205,147.5C 206.353,146.315 207.52,144.981 208.5,143.5C 206.236,137.47 207.569,132.47 212.5,128.5C 212.377,118.429 211.877,108.429 211,98.5C 213.234,96.3002 215.734,94.4669 218.5,93C 223.876,92.2152 229.209,91.2152 234.5,90C 227.568,82.9946 226.901,75.4946 232.5,67.5 Z"/></g>
<g><path style="opacity:1" fill="#3C7862" d="M 234.5,70.5 C 237.057,72.0324 239.557,73.6991 242,75.5C 243.86,80.6874 245.026,86.0207 245.5,91.5C 243.774,91.8146 242.107,91.9813 240.5,92C 235.953,87.9019 232.953,82.9019 231.5,77C 232.906,75.022 233.906,72.8553 234.5,70.5 Z"/></g>
<g><path style="opacity:1" fill="#E0E1E0" d="M 385.5,100.5 C 385.33,99.1779 385.663,98.0113 386.5,97C 402.01,89.245 417.343,81.5784 432.5,74C 419.833,82.6667 407.167,91.3333 394.5,100C 392.02,100.96 389.52,101.793 387,102.5C 386.722,101.584 386.222,100.918 385.5,100.5 Z"/></g>
<g><path style="opacity:1" fill="#393939" d="M 242.5,133.5 C 242.167,134.5 241.5,135.167 240.5,135.5C 238.833,134.167 237.167,134.167 235.5,135.5C 234.5,135.5 233.5,135.5 232.5,135.5C 228.167,134.833 223.833,134.167 219.5,133.5C 218.791,132.596 217.791,132.263 216.5,132.5C 216.497,128.476 216.164,124.476 215.5,120.5C 215.481,117.761 216.148,115.261 217.5,113C 216.247,109.167 215.414,105.334 215,101.5C 217.08,99.8767 219.246,98.3767 221.5,97C 229.304,95.5602 237.137,94.3936 245,93.5C 246.947,94.0439 247.78,95.3772 247.5,97.5C 247.187,99.9807 246.187,102.147 244.5,104C 246.056,111.054 247.056,118.054 247.5,125C 247.167,125.333 246.833,125.667 246.5,126C 250.579,126.073 253.912,127.573 256.5,130.5C 251.799,131.891 247.132,132.891 242.5,133.5 Z"/></g>
<g><path style="opacity:1" fill="#E0E1E0" d="M 385.5,100.5 C 384.847,104.009 383.847,103.676 382.5,99.5C 382.833,99.1667 383.167,98.8333 383.5,98.5C 384.182,99.2427 384.849,99.9094 385.5,100.5 Z"/></g>
<g><path style="opacity:1" fill="#E0E1E0" d="M 379.5,100.5 C 380.933,101.833 382.267,103.333 383.5,105C 381.432,104.983 379.766,103.983 378.5,102C 379.056,101.617 379.389,101.117 379.5,100.5 Z"/></g>
<g><path style="opacity:1" fill="#E0E1E0" d="M 309.5,146.5 C 307.326,146.75 305.659,147.75 304.5,149.5C 302.326,149.75 300.659,150.75 299.5,152.5C 297.973,152.427 296.973,153.094 296.5,154.5C 294.847,154.66 293.514,155.326 292.5,156.5C 291.833,156.5 291.5,156.167 291.5,155.5C 319.603,137.941 347.936,120.608 376.5,103.5C 377.696,103.846 377.696,104.346 376.5,105C 353.767,118.357 331.434,132.191 309.5,146.5 Z"/></g>
<g><path style="opacity:1" fill="#fec90d" d="M 378.5,105.5 C 381.188,107.225 380.855,108.558 377.5,109.5C 376.692,109.192 376.025,108.692 375.5,108C 376.942,107.623 377.942,106.79 378.5,105.5 Z"/></g>
<g><path style="opacity:1" fill="#D19572" d="M 295.5,160.5 C 294.026,159.564 293.026,158.23 292.5,156.5C 293.514,155.326 294.847,154.66 296.5,154.5C 298.027,154.573 299.027,153.906 299.5,152.5C 301.674,152.25 303.341,151.25 304.5,149.5C 306.674,149.25 308.341,148.25 309.5,146.5C 330.799,134.222 352.132,121.889 373.5,109.5C 374.308,109.808 374.975,110.308 375.5,111C 349.95,129.276 323.284,145.776 295.5,160.5 Z"/></g>
<g><path style="opacity:1" fill="#fefffe" d="M 197.5,135.5 C 196.64,133.386 194.973,132.22 192.5,132C 189.167,131.667 185.833,131.333 182.5,131C 187.041,131.049 190.541,129.216 193,125.5C 197.097,127.998 198.597,131.332 197.5,135.5 Z"/></g>
<g><path style="opacity:1" fill="#3B3C3B" d="M 164.5,126.5 C 168.97,128.38 173.303,130.546 177.5,133C 170.087,135.987 166.92,141.487 168,149.5C 164.056,146.448 160.223,143.281 156.5,140C 158.794,135.241 161.46,130.741 164.5,126.5 Z"/></g>
<g><path style="opacity:1" fill="#fefffe" d="M 296.5,163.5 C 315.187,152.067 334.02,140.733 353,129.5C 353.617,130.449 353.451,131.282 352.5,132C 345.492,135.835 338.826,140.169 332.5,145C 329.05,146.03 325.717,147.363 322.5,149C 314.182,154.491 305.515,159.324 296.5,163.5 Z"/></g>
<g><path style="opacity:1" fill="#9A9A9A" d="M 197.5,135.5 C 199.79,137.964 201.124,140.964 201.5,144.5C 200.166,148.167 198.832,151.834 197.5,155.5C 195.937,156.945 194.604,158.611 193.5,160.5C 191.738,160.357 190.071,160.691 188.5,161.5C 182.5,157.5 176.5,153.5 170.5,149.5C 168.605,140.524 172.272,135.024 181.5,133C 187.175,131.932 192.508,132.765 197.5,135.5 Z"/></g>
<g><path style="opacity:1" fill="#E3B83B" d="M 219.5,133.5 C 223.833,134.167 228.167,134.833 232.5,135.5C 230.973,135.427 229.973,136.094 229.5,137.5C 228.532,139.607 228.198,141.941 228.5,144.5C 227.197,146.142 225.864,147.809 224.5,149.5C 220.749,147.293 216.749,145.626 212.5,144.5C 209.642,137.377 211.975,133.711 219.5,133.5 Z"/></g>
<g><path style="opacity:1" fill="#FABA9A" d="M 242.5,133.5 C 246.582,134.383 249.916,136.549 252.5,140C 249.813,142.251 248.813,144.918 249.5,148C 247.343,149.612 246.009,151.778 245.5,154.5C 241.766,155.357 238.099,155.024 234.5,153.5C 233.21,150.524 231.877,147.524 230.5,144.5C 229.631,142.283 229.298,139.95 229.5,137.5C 229.973,136.094 230.973,135.427 232.5,135.5C 233.5,135.5 234.5,135.5 235.5,135.5C 236.391,136.261 237.058,137.261 237.5,138.5C 235.743,141.88 236.41,144.546 239.5,146.5C 239.403,142.767 239.736,139.101 240.5,135.5C 241.5,135.167 242.167,134.5 242.5,133.5 Z"/></g>
<g><path style="opacity:1" fill="#FFCF3A" d="M 235.5,135.5 C 237.167,134.167 238.833,134.167 240.5,135.5C 239.736,139.101 239.403,142.767 239.5,146.5C 236.41,144.546 235.743,141.88 237.5,138.5C 237.058,137.261 236.391,136.261 235.5,135.5 Z"/></g>
<g><path style="opacity:1" fill="#000000" d="M 173.5,145.5 C 176.706,136.113 182.706,133.947 191.5,139C 199.322,141.788 200.489,146.288 195,152.5C 195.667,149.833 196.333,147.167 197,144.5C 192.896,140.739 188.063,138.405 182.5,137.5C 178.861,139.474 175.861,142.14 173.5,145.5 Z"/></g>
<g><path style="opacity:1" fill="#000000" d="M 233.5,136.5 C 233.424,139.012 233.591,141.679 234,144.5C 232.188,141.954 232.022,139.288 233.5,136.5 Z"/></g>
<g><path style="opacity:1" fill="#000000" d="M 229.5,137.5 C 229.298,139.95 229.631,142.283 230.5,144.5C 229.833,144.5 229.167,144.5 228.5,144.5C 228.198,141.941 228.532,139.607 229.5,137.5 Z"/></g>
<g><path style="opacity:1" fill="#000000" d="M 180.5,140.5 C 182.655,140.372 184.655,140.872 186.5,142C 182.619,140.606 179.953,141.94 178.5,146C 180.272,147.487 182.272,147.82 184.5,147C 182.068,145.913 182.402,145.413 185.5,145.5C 185.5,146.5 185.5,147.5 185.5,148.5C 177.141,149.713 175.475,147.046 180.5,140.5 Z"/></g>
<g><path style="opacity:1" fill="#000000" d="M 190.5,144.5 C 192.188,147.684 191.521,150.35 188.5,152.5C 187.92,151.426 188.42,150.426 190,149.5C 190.494,147.866 190.66,146.199 190.5,144.5 Z"/></g>
<g><path style="opacity:1" fill="#DB8057" d="M 228.5,144.5 C 229.167,144.5 229.833,144.5 230.5,144.5C 231.877,147.524 233.21,150.524 234.5,153.5C 233.928,154.973 233.095,156.307 232,157.5C 229.961,155.126 227.628,153.126 225,151.5C 224.536,150.906 224.369,150.239 224.5,149.5C 225.864,147.809 227.197,146.142 228.5,144.5 Z"/></g>
<g><path style="opacity:1" fill="#000000" d="M 173.5,145.5 C 176.266,148.083 179.266,150.583 182.5,153C 181.5,153.667 180.5,153.667 179.5,153C 177.924,150.923 175.924,149.423 173.5,148.5C 172.224,147.386 172.224,146.386 173.5,145.5 Z"/></g>
<g><path style="opacity:1" fill="#fefffe" d="M 223.5,169.5 C 224.496,169.586 225.329,169.252 226,168.5C 226.707,166.919 227.54,165.419 228.5,164C 223.913,157.576 218.246,152.409 211.5,148.5C 211.47,147.503 211.97,146.836 213,146.5C 219.827,149.657 225.827,153.99 231,159.5C 231.784,165.056 229.784,169.389 225,172.5C 224.487,171.473 223.987,170.473 223.5,169.5 Z"/></g>
<g><path style="opacity:1" fill="#000000" d="M 309.5,146.5 C 308.341,148.25 306.674,149.25 304.5,149.5C 305.659,147.75 307.326,146.75 309.5,146.5 Z"/></g>
<g><path style="opacity:1" fill="#3B6A59" d="M 211.5,148.5 C 218.246,152.409 223.913,157.576 228.5,164C 227.54,165.419 226.707,166.919 226,168.5C 225.329,169.252 224.496,169.586 223.5,169.5C 221.726,168.63 220.393,167.297 219.5,165.5C 216.887,159.887 212.887,155.554 207.5,152.5C 208.833,151.167 210.167,149.833 211.5,148.5 Z"/></g>
<g><path style="opacity:1" fill="#000000" d="M 304.5,149.5 C 303.341,151.25 301.674,152.25 299.5,152.5C 300.659,150.75 302.326,149.75 304.5,149.5 Z"/></g>
<g><path style="opacity:1" fill="#393939" d="M 168.5,150.5 C 174.936,155.227 181.603,159.727 188.5,164C 180.746,179.672 172.08,194.839 162.5,209.5C 153.247,208.73 147.081,204.063 144,195.5C 142.428,199.525 141.261,199.358 140.5,195C 148,182.833 155.5,170.667 163,158.5C 163.333,159.167 163.667,159.833 164,160.5C 165.541,158.523 166.041,156.523 165.5,154.5C 166.172,152.84 167.172,151.507 168.5,150.5 Z"/></g>
<g><path style="opacity:1" fill="#000000" d="M 299.5,152.5 C 299.027,153.906 298.027,154.573 296.5,154.5C 296.973,153.094 297.973,152.427 299.5,152.5 Z"/></g>
<g><path style="opacity:1" fill="#000000" d="M 191.5,153.5 C 193.842,153.775 193.842,154.608 191.5,156C 189.598,157.301 187.598,157.968 185.5,158C 187.747,156.723 189.747,155.223 191.5,153.5 Z"/></g>
<g><path style="opacity:1" fill="#C83A40" d="M 206.5,154.5 C 207.492,154.328 208.158,154.662 208.5,155.5C 207.129,156.787 205.295,157.453 203,157.5C 200.705,157.453 198.871,156.787 197.5,155.5C 200.222,153.227 203.222,152.893 206.5,154.5 Z"/></g>
<g><path style="opacity:1" fill="#000000" d="M 197.5,155.5 C 198.871,156.787 200.705,157.453 203,157.5C 205.295,157.453 207.129,156.787 208.5,155.5C 209.267,156.172 209.934,157.005 210.5,158C 204.595,157.985 198.928,158.818 193.5,160.5C 194.604,158.611 195.937,156.945 197.5,155.5 Z"/></g>
<g><path style="opacity:1" fill="#FABA9A" d="M 291.5,155.5 C 291.5,156.167 291.833,156.5 292.5,156.5C 293.026,158.23 294.026,159.564 295.5,160.5C 295.263,161.791 295.596,162.791 296.5,163.5C 295.88,166.34 295.213,169.174 294.5,172C 289.891,174.144 285.224,175.977 280.5,177.5C 279.692,177.192 279.025,176.692 278.5,176C 280.329,175.727 281.829,174.893 283,173.5C 283.728,170.77 283.562,168.103 282.5,165.5C 283.025,164.808 283.692,164.308 284.5,164C 283.244,163.583 282.577,162.75 282.5,161.5C 284.606,160.434 286.106,158.767 287,156.5C 287.333,156.833 287.667,157.167 288,157.5C 288.816,156.177 289.983,155.511 291.5,155.5 Z"/></g>
<g><path style="opacity:1" fill="#352622" d="M 194.5,165.5 C 194.158,164.662 193.492,164.328 192.5,164.5C 194.148,163.073 196.148,162.24 198.5,162C 203.418,161.805 208.251,161.305 213,160.5C 213.167,160.833 213.333,161.167 213.5,161.5C 208.868,162.328 204.202,162.828 199.5,163C 197.922,164.094 196.255,164.928 194.5,165.5 Z"/></g>
<g><path style="opacity:1" fill="#f5f5f5" d="M 207.5,152.5 C 212.887,155.554 216.887,159.887 219.5,165.5C 219.196,166.15 218.863,166.817 218.5,167.5C 220.414,169.202 221.914,171.202 223,173.5C 223.903,177.033 223.57,180.367 222,183.5C 220.533,180.734 218.7,178.234 216.5,176C 217.842,173.985 218.342,171.818 218,169.5C 217.261,171.221 216.427,172.887 215.5,174.5C 214.099,173.479 212.765,172.479 211.5,171.5C 209.265,171.795 207.265,171.461 205.5,170.5C 204.142,171.626 202.808,171.626 201.5,170.5C 202.648,168.851 203.981,167.351 205.5,166C 202.54,166.606 200.373,168.439 199,171.5C 195.684,169.931 192.851,170.598 190.5,173.5C 189.702,173.043 189.369,172.376 189.5,171.5C 190.419,168.911 192.086,166.911 194.5,165.5C 196.255,164.928 197.922,164.094 199.5,163C 204.202,162.828 208.868,162.328 213.5,161.5C 213.333,161.167 213.167,160.833 213,160.5C 208.251,161.305 203.418,161.805 198.5,162C 196.148,162.24 194.148,163.073 192.5,164.5C 190.952,164.179 190.285,163.179 190.5,161.5C 191.791,161.737 192.791,161.404 193.5,160.5C 198.928,158.818 204.595,157.985 210.5,158C 209.934,157.005 209.267,156.172 208.5,155.5C 208.158,154.662 207.492,154.328 206.5,154.5C 206.328,153.508 206.662,152.842 207.5,152.5 Z"/></g>
<g><path style="opacity:1" fill="#FF3A42" d="M 192.5,164.5 C 193.492,164.328 194.158,164.662 194.5,165.5C 192.086,166.911 190.419,168.911 189.5,171.5C 188.14,173.046 187.14,174.88 186.5,177C 187.687,179.724 188.353,182.557 188.5,185.5C 186.747,187.223 184.747,188.723 182.5,190C 192.541,190.731 192.875,192.731 183.5,196C 186.482,196.498 189.482,196.665 192.5,196.5C 194.22,197.751 194.553,199.251 193.5,201C 187.452,201.252 181.452,201.752 175.5,202.5C 176.043,200.657 175.376,198.99 173.5,197.5C 175.31,195.377 176.643,193.043 177.5,190.5C 178.122,189.373 178.955,188.373 180,187.5C 181.578,178.338 185.745,170.671 192.5,164.5 Z"/></g>
<g><path style="opacity:1" fill="#000000" d="M 205.5,170.5 C 206.031,168.456 207.198,166.789 209,165.5C 208.923,167.772 207.757,169.438 205.5,170.5 Z"/></g>
<g><path style="opacity:1" fill="#C28A6C" d="M 245.5,187.5 C 247.226,187.815 248.893,187.981 250.5,188C 255.731,183.26 261.064,178.76 266.5,174.5C 269.895,170.631 274.062,167.631 279,165.5C 281.201,166.962 281.867,168.962 281,171.5C 272.447,177.198 263.947,183.032 255.5,189C 250.371,191.674 246.037,190.84 242.5,186.5C 242.808,185.692 243.308,185.025 244,184.5C 244.232,185.737 244.732,186.737 245.5,187.5 Z"/></g>
<g><path style="opacity:1" fill="#000000" d="M 211.5,171.5 C 212.142,168.847 213.808,167.681 216.5,168C 214.804,169.176 213.138,170.343 211.5,171.5 Z"/></g>
<g><path style="opacity:1" fill="#D13A41" d="M 252.5,175.5 C 250.173,175.753 248.173,175.086 246.5,173.5C 243.852,175.206 243.852,176.872 246.5,178.5C 245.561,181.241 243.727,183.241 241,184.5C 239.951,183.483 238.784,183.316 237.5,184C 236.167,185.667 234.833,187.333 233.5,189C 229.759,188.796 226.092,188.796 222.5,189C 222.167,188.667 221.833,188.333 221.5,188C 224.936,184.243 226.436,179.743 226,174.5C 227.858,171.588 230.358,170.088 233.5,170C 235.193,172.512 237.526,174.012 240.5,174.5C 242.353,173.811 243.519,172.478 244,170.5C 246.166,172.121 248.666,172.955 251.5,173C 252.252,173.671 252.586,174.504 252.5,175.5 Z"/></g>
<g><path style="opacity:1" fill="#fefffe" d="M 161.5,171.5 C 161.735,170.903 162.235,170.57 163,170.5C 166.221,171.528 169.388,172.694 172.5,174C 174.607,175.264 175.607,177.097 175.5,179.5C 173.801,179.66 172.134,179.494 170.5,179C 167.469,176.492 164.469,173.992 161.5,171.5 Z"/></g>
<g><path style="opacity:1" fill="#FF3A41" d="M 225.5,204.5 C 231.628,208.21 233.628,213.543 231.5,220.5C 225.09,225.286 217.923,228.619 210,230.5C 209.768,229.263 209.268,228.263 208.5,227.5C 207.818,222.107 206.818,216.773 205.5,211.5C 200.775,199.717 195.775,188.051 190.5,176.5C 192.162,175.015 193.995,173.682 196,172.5C 199.372,174.618 202.872,174.951 206.5,173.5C 212.154,174.305 216.321,177.305 219,182.5C 219.803,189.536 220.803,196.536 222,203.5C 223.011,204.337 224.178,204.67 225.5,204.5 Z"/></g>
<g><path style="opacity:1" fill="#D2D2D2" d="M 282.5,161.5 C 274.899,164.635 267.899,168.801 261.5,174C 263.134,174.494 264.801,174.66 266.5,174.5C 261.064,178.76 255.731,183.26 250.5,188C 248.893,187.981 247.226,187.815 245.5,187.5C 245.351,186.448 245.517,185.448 246,184.5C 251.757,183.068 251.924,181.068 246.5,178.5C 243.852,176.872 243.852,175.206 246.5,173.5C 248.173,175.086 250.173,175.753 252.5,175.5C 254.306,172.662 255.306,172.995 255.5,176.5C 260.041,176.669 260.374,176.002 256.5,174.5C 265.073,169.63 273.573,164.63 282,159.5C 282.464,160.094 282.631,160.761 282.5,161.5 Z"/></g>
<g><path style="opacity:1" fill="#D03E3C" d="M 190.5,176.5 C 195.775,188.051 200.775,199.717 205.5,211.5C 206.818,216.773 207.818,222.107 208.5,227.5C 208.728,229.355 208.061,230.188 206.5,230C 204.959,228.421 203.792,226.587 203,224.5C 200.081,209.412 195.748,194.745 190,180.5C 189.235,178.934 189.402,177.601 190.5,176.5 Z"/></g>
<g><path style="opacity:1" fill="#408269" d="M 275.5,176.5 C 279.317,177.533 280.317,179.867 278.5,183.5C 277.167,184.167 275.833,184.833 274.5,185.5C 273.059,184.135 271.726,182.635 270.5,181C 272.618,179.951 274.284,178.451 275.5,176.5 Z"/></g>
<g><path style="opacity:1" fill="#D33A42" d="M 208.5,178.5 C 213.093,177.418 216.093,179.085 217.5,183.5C 217.192,184.308 216.692,184.975 216,185.5C 214.027,184.36 212.193,183.027 210.5,181.5C 205.64,184.611 200.64,184.944 195.5,182.5C 196.025,181.808 196.692,181.308 197.5,181C 200.833,180.667 204.167,180.333 207.5,180C 208.056,179.617 208.389,179.117 208.5,178.5 Z"/></g>
<g><path style="opacity:1" fill="#fefffe" d="M 265.5,183.5 C 266.239,183.369 266.906,183.536 267.5,184C 265.509,187.036 262.842,188.703 259.5,189C 261.996,187.669 263.996,185.836 265.5,183.5 Z"/></g>
<g><path style="opacity:1" fill="#D13A41" d="M 269.5,183.5 C 270.596,185.103 271.93,186.603 273.5,188C 268.999,190.063 264.333,191.063 259.5,191C 264.151,190.182 267.485,187.682 269.5,183.5 Z"/></g>
<g><path style="opacity:1" fill="#D13A41" d="M 188.5,185.5 C 190.997,188.65 192.33,192.317 192.5,196.5C 189.482,196.665 186.482,196.498 183.5,196C 192.875,192.731 192.541,190.731 182.5,190C 184.747,188.723 186.747,187.223 188.5,185.5 Z"/></g>
<g><path style="opacity:1" fill="#FABA9A" d="M 238.5,185.5 C 240.309,188.139 242.642,190.306 245.5,192C 248.95,192.175 252.283,192.342 255.5,192.5C 254.167,193.5 252.833,194.5 251.5,195.5C 250.269,196.651 250.269,197.817 251.5,199C 248.727,201.383 246.561,204.217 245,207.5C 244.404,201.737 241.238,198.404 235.5,197.5C 235.167,196.5 234.833,195.5 234.5,194.5C 235.03,191.11 236.363,188.11 238.5,185.5 Z"/></g>
<g><path style="opacity:1" fill="#E0E1E0" d="M 257.5,189.5 C 257.805,191.566 258.139,193.733 258.5,196C 256.236,199.465 253.903,199.798 251.5,197C 255.05,195.732 257.05,193.232 257.5,189.5 Z"/></g>
<g><path style="opacity:1" fill="#D13A41" d="M 177.5,190.5 C 176.643,193.043 175.31,195.377 173.5,197.5C 175.376,198.99 176.043,200.657 175.5,202.5C 173.22,202.746 171.22,202.746 169.5,202.5C 171.264,197.821 173.931,193.821 177.5,190.5 Z"/></g>
<g><path style="opacity:1" fill="#fefffe" d="M 225.5,191.5 C 226.756,191.461 227.756,191.961 228.5,193C 227.034,193.635 225.7,194.469 224.5,195.5C 224.167,195 223.833,194.5 223.5,194C 224.056,192.989 224.722,192.156 225.5,191.5 Z"/></g>
<g><path style="opacity:1" fill="#B57C5C" d="M 229.5,195.5 C 230.675,195.281 231.675,195.614 232.5,196.5C 230.926,197.631 229.259,197.798 227.5,197C 228.416,196.722 229.082,196.222 229.5,195.5 Z"/></g>
<g><path style="opacity:1" fill="#D13A41" d="M 205.5,211.5 C 208.775,206.887 212.442,202.554 216.5,198.5C 217.631,200.074 217.798,201.741 217,203.5C 215.36,208.151 212.36,211.484 208,213.5C 206.989,212.944 206.156,212.278 205.5,211.5 Z"/></g>
<g><path style="opacity:1" fill="#3C6D5B" d="M 231.5,200.5 C 232.403,202.62 233.737,202.954 235.5,201.5C 237.196,199.871 238.196,200.204 238.5,202.5C 236.771,203.236 235.771,204.57 235.5,206.5C 235.5,207.5 235.5,208.5 235.5,209.5C 236.791,209.737 237.791,209.404 238.5,208.5C 238.5,207.833 238.833,207.5 239.5,207.5C 240.75,207.423 241.583,206.756 242,205.5C 242.273,207.101 242.773,208.601 243.5,210C 240.809,210.156 238.476,210.989 236.5,212.5C 235.414,207.401 232.414,203.734 227.5,201.5C 228.574,199.466 229.907,199.133 231.5,200.5 Z"/></g>
<g><path style="opacity:1" fill="#fefffe" d="M 235.5,201.5 C 233.737,202.954 232.403,202.62 231.5,200.5C 233.456,198.825 234.789,199.158 235.5,201.5 Z"/></g>
<g><path style="opacity:1" fill="#fefffe" d="M 194.5,202.5 C 197.532,205.225 196.865,206.725 192.5,207C 184.643,207.247 176.81,207.747 169,208.5C 168.167,208.167 167.333,207.833 166.5,207.5C 167.714,205.931 169.381,205.098 171.5,205C 179.312,204.123 186.979,203.289 194.5,202.5 Z"/></g>
<g><path style="opacity:1" fill="#fefffe" d="M 238.5,202.5 C 240.847,203.607 241.18,205.274 239.5,207.5C 238.833,207.5 238.5,207.833 238.5,208.5C 237.761,208.631 237.094,208.464 236.5,208C 240.47,204.322 240.137,203.822 235.5,206.5C 235.771,204.57 236.771,203.236 238.5,202.5 Z"/></g>
<g><path style="opacity:1" fill="#D13A41" d="M 231.5,220.5 C 233.628,213.543 231.628,208.21 225.5,204.5C 227.971,203.964 230.138,204.964 232,207.5C 232.835,211.179 233.668,214.845 234.5,218.5C 233.995,219.919 232.995,220.585 231.5,220.5 Z"/></g>
<g><path style="opacity:1" fill="#000000" d="M 238.5,208.5 C 237.791,209.404 236.791,209.737 235.5,209.5C 235.5,208.5 235.5,207.5 235.5,206.5C 240.137,203.822 240.47,204.322 236.5,208C 237.094,208.464 237.761,208.631 238.5,208.5 Z"/></g>
<g><path style="opacity:1" fill="#D13A41" d="M 223.5,206.5 C 224.693,206.97 225.36,207.97 225.5,209.5C 225.065,213.037 223.565,216.037 221,218.5C 221.092,214.379 221.925,210.379 223.5,206.5 Z"/></g>
<g><path style="opacity:1" fill="#FF3A41" d="M 197.5,211.5 C 193.416,214.141 189.082,216.307 184.5,218C 189.281,217.909 193.948,217.076 198.5,215.5C 198.5,216.167 198.5,216.833 198.5,217.5C 192.68,220.911 186.68,224.078 180.5,227C 178.536,228.451 177.203,230.284 176.5,232.5C 176.095,233.55 175.429,233.55 174.5,232.5C 173.566,229.733 172.9,226.9 172.5,224C 173.291,219.175 173.957,214.342 174.5,209.5C 182.201,209.691 189.868,209.358 197.5,208.5C 197.5,209.5 197.5,210.5 197.5,211.5 Z"/></g>
<g><path style="opacity:1" fill="#FF3A41" d="M 162.5,210.5 C 163.043,210.56 163.376,210.893 163.5,211.5C 161.562,215.314 160.229,219.314 159.5,223.5C 155.336,223.143 152.169,224.81 150,228.5C 146.748,233.334 143.748,238.334 141,243.5C 139.75,246.077 139.416,248.743 140,251.5C 141.013,255.294 143.18,258.794 146.5,262C 145.344,263.615 144.011,263.615 142.5,262C 139.728,260.14 137.395,257.806 135.5,255C 139.746,239.676 147.913,226.842 160,216.5C 160.573,214.359 161.406,212.359 162.5,210.5 Z"/></g>
<g><path style="opacity:1" fill="#fefffe" d="M 165.5,210.5 C 167.924,210.192 170.257,210.526 172.5,211.5C 171.06,217.881 170.393,224.214 170.5,230.5C 167.327,228.413 163.994,226.579 160.5,225C 162.596,220.309 164.263,215.475 165.5,210.5 Z"/></g>
<g><path style="opacity:1" fill="#D13A41" d="M 197.5,211.5 C 198.434,212.568 198.768,213.901 198.5,215.5C 193.948,217.076 189.281,217.909 184.5,218C 189.082,216.307 193.416,214.141 197.5,211.5 Z"/></g>
<g><path style="opacity:1" fill="#fefffe" d="M 236.5,212.5 C 238.5,212.167 240.5,211.833 242.5,211.5C 242.719,212.675 242.386,213.675 241.5,214.5C 240.402,213.385 239.235,213.385 238,214.5C 236.97,214.164 236.47,213.497 236.5,212.5 Z"/></g>
<g><path style="opacity:1" fill="#D13A41" d="M 198.5,217.5 C 199.573,218.251 199.74,219.251 199,220.5C 192.277,225.945 184.777,229.945 176.5,232.5C 177.203,230.284 178.536,228.451 180.5,227C 186.68,224.078 192.68,220.911 198.5,217.5 Z"/></g>
<g><path style="opacity:1" fill="#fefffe" d="M 199.5,222.5 C 200.269,224.667 201.269,226.834 202.5,229C 197.877,232.796 192.877,235.962 187.5,238.5C 184.721,237.611 182.055,236.444 179.5,235C 186.736,231.559 193.402,227.393 199.5,222.5 Z"/></g>
<g><path style="opacity:1" fill="#3B3C3B" d="M 155.5,227.5 C 157.527,227.338 159.527,227.505 161.5,228C 170.893,233.028 180.226,238.028 189.5,243C 185.417,250.998 181.75,259.164 178.5,267.5C 177.833,267.833 177.167,268.167 176.5,268.5C 170.55,264.692 164.217,261.692 157.5,259.5C 156.872,257.742 155.872,256.242 154.5,255C 150.156,253.59 146.156,251.59 142.5,249C 145.952,241.256 150.285,234.09 155.5,227.5 Z"/></g>
<g><path style="opacity:1" fill="#D13A41" d="M 202.5,231.5 C 204.589,231.857 206.589,232.523 208.5,233.5C 205.711,232.967 203.377,234.134 201.5,237C 197.421,237.27 193.754,238.27 190.5,240C 194.742,237.39 198.742,234.557 202.5,231.5 Z"/></g>
<g><path style="opacity:1" fill="#919291" d="M 181.5,302.5 C 184.899,304.388 187.899,306.888 190.5,310C 194.78,311.967 198.78,314.3 202.5,317C 205.014,318.252 207.68,318.752 210.5,318.5C 210.318,320.591 210.652,322.591 211.5,324.5C 207.141,325.67 203.141,327.503 199.5,330C 204.44,330.473 208.94,329.307 213,326.5C 213.446,323.667 212.946,321.001 211.5,318.5C 213.92,318.708 216.253,318.374 218.5,317.5C 219.833,315.833 219.833,314.167 218.5,312.5C 214.269,310.994 209.936,309.994 205.5,309.5C 198.294,295.78 189.294,283.28 178.5,272C 179.579,271.044 180.745,270.211 182,269.5C 185.449,259.935 189.449,250.601 194,241.5C 195.337,240.235 196.837,239.735 198.5,240C 196.833,243 195.167,246 193.5,249C 195.709,249.957 195.543,251.124 193,252.5C 192.39,256.236 192.723,259.903 194,263.5C 197.385,267.217 200.385,271.217 203,275.5C 210.263,289.032 217.763,302.366 225.5,315.5C 222.09,336.422 220.756,357.422 221.5,378.5C 219.5,380.327 217.333,381.994 215,383.5C 212.371,383.072 210.038,382.072 208,380.5C 207.333,373.5 207.333,366.5 208,359.5C 210.939,350.661 212.106,341.661 211.5,332.5C 208.23,345.679 206.063,359.013 205,372.5C 203.422,375.657 202.422,378.991 202,382.5C 198.297,383.912 194.797,383.412 191.5,381C 192.863,379.055 193.697,376.888 194,374.5C 193.721,360.95 195.221,347.616 198.5,334.5C 198.379,333.106 198.046,331.772 197.5,330.5C 199.117,328.368 199.617,326.035 199,323.5C 195.822,322.33 193.322,320.33 191.5,317.5C 195.572,317.419 199.406,318.753 203,321.5C 203.167,321.167 203.333,320.833 203.5,320.5C 199,317.415 194.333,314.582 189.5,312C 186.246,309.253 183.58,306.086 181.5,302.5 Z"/></g>
<g><path style="opacity:1" fill="#fefffe" d="M 144.5,256.5 C 148.743,255.446 152.077,256.946 154.5,261C 153.07,262.44 151.403,262.774 149.5,262C 147.7,260.188 146.033,258.355 144.5,256.5 Z"/></g>
<g><path style="opacity:1" fill="#919291" d="M 203.5,309.5 C 197.044,308.071 191.044,305.571 185.5,302C 183.934,301.235 182.601,301.402 181.5,302.5C 177.507,298.201 173.84,294.201 170.5,290.5C 174.994,293.914 179.66,297.081 184.5,300C 187.953,302.24 191.619,303.573 195.5,304C 185.916,298.292 176.416,292.459 167,286.5C 161.833,279.5 156.667,272.5 151.5,265.5C 154.338,263.898 157.338,263.398 160.5,264C 166.914,266.62 172.747,270.12 178,274.5C 187.878,285.204 196.378,296.871 203.5,309.5 Z"/></g>
<g><path style="opacity:1" fill="#8E8E8E" d="M 164.5,290.5 C 155.545,300.617 145.212,309.117 133.5,316C 137.537,316.607 141.537,316.44 145.5,315.5C 143.08,319.662 141.247,323.996 140,328.5C 142.029,324.42 144.529,320.754 147.5,317.5C 147.972,319.531 148.972,321.198 150.5,322.5C 147.377,330.073 143.21,337.073 138,343.5C 134.709,352.245 132.375,361.245 131,370.5C 128.699,371.867 126.199,372.534 123.5,372.5C 123.665,368.818 123.499,365.152 123,361.5C 122.197,364.244 121.197,366.911 120,369.5C 118.806,370.43 117.473,371.097 116,371.5C 113.379,369.773 110.545,368.44 107.5,367.5C 107.491,358.027 108.991,348.694 112,339.5C 118.75,328.331 125.75,317.331 133,306.5C 134.176,299.094 136.509,292.094 140,285.5C 140.333,282.5 140.667,279.5 141,276.5C 143.885,272.717 146.218,268.717 148,264.5C 152.95,271.784 158.283,278.784 164,285.5C 164.494,287.134 164.66,288.801 164.5,290.5 Z"/></g>
<g><path style="opacity:1" fill="#6C6C6C" d="M 160.5,273.5 C 160.56,272.957 160.893,272.624 161.5,272.5C 166.638,275.805 171.638,279.305 176.5,283C 178.608,283.36 180.608,284.027 182.5,285C 183.786,288.153 185.786,290.819 188.5,293C 184.835,292.016 181.168,290.683 177.5,289C 172.263,283.378 166.596,278.211 160.5,273.5 Z"/></g>
<g><path style="opacity:1" fill="#000000" d="M 153.5,280.5 C 154.525,280.897 154.692,281.563 154,282.5C 151.833,284.667 149.667,286.833 147.5,289C 146.241,289.982 144.908,290.315 143.5,290C 147.334,287.332 150.667,284.165 153.5,280.5 Z"/></g>
<g><path style="opacity:1" fill="#fec90d" d="M 130.5,290.5 C 132.085,291.002 132.585,292.002 132,293.5C 129,296.833 126,300.167 123,303.5C 122.333,302.5 122.333,301.5 123,300.5C 125.752,297.316 128.252,293.982 130.5,290.5 Z"/></g>
<g><path style="opacity:1" fill="#727272" d="M 164.5,290.5 C 166.544,291.031 168.211,292.198 169.5,294C 164.365,301.765 159.865,309.932 156,318.5C 154.568,320.439 152.735,321.772 150.5,322.5C 148.972,321.198 147.972,319.531 147.5,317.5C 149.728,313.043 151.895,308.71 154,304.5C 151.147,308.235 148.313,311.902 145.5,315.5C 141.537,316.44 137.537,316.607 133.5,316C 145.212,309.117 155.545,300.617 164.5,290.5 Z"/></g>
<g><path style="opacity:1" fill="#727372" d="M 181.5,302.5 C 182.601,301.402 183.934,301.235 185.5,302C 191.044,305.571 197.044,308.071 203.5,309.5C 204.167,309.5 204.833,309.5 205.5,309.5C 209.936,309.994 214.269,310.994 218.5,312.5C 219.833,314.167 219.833,315.833 218.5,317.5C 216.253,318.374 213.92,318.708 211.5,318.5C 211.167,318.5 210.833,318.5 210.5,318.5C 207.68,318.752 205.014,318.252 202.5,317C 198.78,314.3 194.78,311.967 190.5,310C 187.899,306.888 184.899,304.388 181.5,302.5 Z"/></g>
<g><path style="opacity:1" fill="#000000" d="M 147.5,317.5 C 144.529,320.754 142.029,324.42 140,328.5C 141.247,323.996 143.08,319.662 145.5,315.5C 148.313,311.902 151.147,308.235 154,304.5C 151.895,308.71 149.728,313.043 147.5,317.5 Z"/></g>
<g><path style="opacity:1" fill="#000000" d="M 210.5,318.5 C 210.833,318.5 211.167,318.5 211.5,318.5C 212.946,321.001 213.446,323.667 213,326.5C 208.94,329.307 204.44,330.473 199.5,330C 203.141,327.503 207.141,325.67 211.5,324.5C 210.652,322.591 210.318,320.591 210.5,318.5 Z"/></g>
<g><path style="opacity:1" fill="#3A3A3A" d="M 105.5,368.5 C 109.569,369.369 113.235,371.036 116.5,373.5C 119.104,372.731 120.938,371.064 122,368.5C 122.333,371.833 122.667,375.167 123,378.5C 123.5,379 124,379.5 124.5,380C 121.307,379.578 118.14,379.745 115,380.5C 112.501,379.917 110.501,378.584 109,376.5C 108.333,377.167 108.333,377.833 109,378.5C 110.635,379.726 112.135,381.059 113.5,382.5C 111.836,386.036 109.169,387.536 105.5,387C 102.343,386.258 99.6768,384.758 97.5,382.5C 101.202,378.43 103.869,373.763 105.5,368.5 Z"/></g>
<g><path style="opacity:1" fill="#3B3C3B" d="M 217.5,385.5 C 220.789,387.616 223.956,389.949 227,392.5C 227.684,393.784 227.517,394.951 226.5,396C 216.656,398.981 206.656,400.148 196.5,399.5C 194.25,395.001 194.75,390.668 198,386.5C 199.829,388.156 201.163,390.156 202,392.5C 202.684,391.216 202.517,390.049 201.5,389C 206.183,387.838 211.183,387.172 216.5,387C 214.124,389.68 211.124,391.013 207.5,391C 206.549,391.718 206.383,392.551 207,393.5C 209.624,391.965 212.457,390.798 215.5,390C 217.037,388.89 217.703,387.39 217.5,385.5 Z"/></g>
</svg>
