<?xml version="1.0" encoding="UTF-8"?>
<!DOCTYPE svg PUBLIC "-//W3C//DTD SVG 1.1//EN" "http://www.w3.org/Graphics/SVG/1.1/DTD/svg11.dtd">
<svg xmlns="http://www.w3.org/2000/svg" version="1.1" width="418px" height="436px" style="shape-rendering:geometricPrecision; text-rendering:geometricPrecision; image-rendering:optimizeQuality; fill-rule:evenodd; clip-rule:evenodd" xmlns:xlink="http://www.w3.org/1999/xlink">
<g><path style="opacity:1" fill="#fefffe" d="M 304.5,15.5 C 309.844,15.334 315.177,15.5006 320.5,16C 323.783,17.5605 326.617,19.7272 329,22.5C 329.667,27.5 329.667,32.5 329,37.5C 327.173,42.4901 325.34,47.4901 323.5,52.5C 327.696,54.5293 330.696,57.6959 332.5,62C 335.796,62.4574 338.963,63.2907 342,64.5C 343.431,79.075 342.264,93.4083 338.5,107.5C 341.516,111.207 342.849,115.54 342.5,120.5C 346.163,120.952 349.83,121.452 353.5,122C 355.957,125.158 358.79,127.991 362,130.5C 365.297,141.491 365.297,152.491 362,163.5C 355.958,169.873 350.292,176.54 345,183.5C 344.125,194.217 344.459,204.884 346,215.5C 350.593,217.494 355.426,218.994 360.5,220C 361.893,221.171 362.727,222.671 363,224.5C 362.948,238.877 361.948,253.21 360,267.5C 359.5,268 359,268.5 358.5,269C 352.843,269.499 347.176,269.666 341.5,269.5C 341.666,276.841 341.5,284.174 341,291.5C 338.258,302.633 335.758,313.8 333.5,325C 334.769,343.252 334.103,361.418 331.5,379.5C 333.193,380.228 334.693,381.228 336,382.5C 336.667,387.5 336.667,392.5 336,397.5C 331.722,401.235 327.555,405.068 323.5,409C 314.086,409.792 304.753,409.292 295.5,407.5C 293.61,398.437 292.61,389.27 292.5,380C 292.926,361.213 294.26,342.546 296.5,324C 295.492,314.905 294.659,305.738 294,296.5C 292,299.167 290,301.833 288,304.5C 286.217,310.067 283.883,315.401 281,320.5C 280.718,338.856 278.052,356.856 273,374.5C 272.922,381.274 272.255,387.941 271,394.5C 264.916,395.642 258.749,395.809 252.5,395C 244.19,393.226 235.857,391.559 227.5,390C 223.025,388.845 218.858,387.012 215,384.5C 213.494,377.567 213.161,370.567 214,363.5C 221.344,361.571 228.511,359.238 235.5,356.5C 236.052,326.572 241.052,297.406 250.5,269C 248.032,266.858 245.865,264.358 244,261.5C 243.216,256.113 243.382,250.78 244.5,245.5C 239.856,242.69 236.023,239.023 233,234.5C 230.5,218.336 235,204.502 246.5,193C 244.5,192.667 242.5,192.333 240.5,192C 238.333,189.167 236.167,186.333 234,183.5C 229.487,169.785 224.821,156.118 220,142.5C 214.106,140.606 210.272,136.772 208.5,131C 196.825,129.727 185.158,128.393 173.5,127C 171.817,124.986 169.817,123.32 167.5,122C 124.33,116.624 81.33,110.124 38.5,102.5C 32.3118,99.5341 29.9785,94.5341 31.5,87.5C 63.138,89.4848 94.8047,90.9848 126.5,92C 170.754,97.8852 214.921,104.052 259,110.5C 259.333,107.833 259.667,105.167 260,102.5C 260.5,102 261,101.5 261.5,101C 266.823,100.501 272.156,100.334 277.5,100.5C 277.5,97.1667 277.5,93.8333 277.5,90.5C 280.127,89.9084 282.794,89.5751 285.5,89.5C 285.335,86.1501 285.502,82.8168 286,79.5C 291.79,71.1381 294.124,61.8048 293,51.5C 294.699,50.5939 296.533,50.2606 298.5,50.5C 298.446,40.4738 298.946,30.4738 300,20.5C 301.707,18.9625 303.207,17.2959 304.5,15.5 Z M 254.5,139.5 C 257.073,139.148 259.406,139.648 261.5,141C 258.029,144.81 255.696,144.31 254.5,139.5 Z"/></g>
<g><path style="opacity:1" fill="#000000" d="M 307.5,18.5 C 315.126,17.0658 321.292,19.3992 326,25.5C 326.667,28.5 326.667,31.5 326,34.5C 324.34,39.1568 322.673,43.8235 321,48.5C 320.182,51.2272 320.348,53.8938 321.5,56.5C 325.364,58.1978 328.031,61.0311 329.5,65C 332.796,65.4574 335.963,66.2907 339,67.5C 339.233,74.6535 339.233,81.6535 339,88.5C 337.205,94.7298 335.872,101.063 335,107.5C 333.989,108.337 332.822,108.67 331.5,108.5C 331.5,109.5 331.5,110.5 331.5,111.5C 333.827,111.665 335.993,112.331 338,113.5C 339.043,116.757 339.543,120.09 339.5,123.5C 343.163,123.952 346.83,124.452 350.5,125C 352.957,128.158 355.79,130.991 359,133.5C 362.279,142.491 362.279,151.491 359,160.5C 352.958,166.873 347.292,173.54 342,180.5C 341.103,193.215 341.436,205.882 343,218.5C 347.593,220.494 352.426,221.994 357.5,223C 358.893,224.171 359.727,225.671 360,227.5C 359.499,239.844 358.499,252.178 357,264.5C 356.5,265 356,265.5 355.5,266C 349.843,266.499 344.176,266.666 338.5,266.5C 338.666,273.841 338.5,281.174 338,288.5C 335.98,297.913 333.647,307.246 331,316.5C 331.713,338.876 330.88,361.21 328.5,383.5C 330.39,383.297 331.89,383.963 333,385.5C 333.667,388.5 333.667,391.5 333,394.5C 328.833,397.333 325.333,400.833 322.5,405C 319.961,406.047 317.295,406.547 314.5,406.5C 309.119,406.112 303.786,405.445 298.5,404.5C 297.095,396.382 296.095,388.215 295.5,380C 296.134,361.282 297.468,342.615 299.5,324C 298.588,311.143 297.421,298.31 296,285.5C 292.724,291.108 289.057,296.442 285,301.5C 283.217,307.067 280.883,312.401 278,317.5C 277.593,337.778 274.426,357.611 268.5,377C 269.98,381.925 269.814,386.759 268,391.5C 253.822,391.635 239.822,389.635 226,385.5C 223.194,384.43 220.527,383.097 218,381.5C 216.582,376.572 216.249,371.572 217,366.5C 224.344,364.571 231.511,362.238 238.5,359.5C 239.049,326.921 245.049,295.421 256.5,265C 252.035,264.687 248.868,262.521 247,258.5C 246.436,252.743 246.936,247.076 248.5,241.5C 235.148,236.247 231.648,226.914 238,213.5C 241.384,206.787 245.55,200.62 250.5,195C 255.051,193.785 259.718,193.119 264.5,193C 266.017,191.315 267.684,189.815 269.5,188.5C 268.066,186.78 267.233,184.78 267,182.5C 252.025,194.357 241.025,191.69 234,174.5C 231.129,162.556 227.463,150.89 223,139.5C 217.106,137.606 213.272,133.772 211.5,128C 199.825,126.727 188.158,125.393 176.5,124C 174.116,121.142 171.116,119.309 167.5,118.5C 126.026,113.299 84.6928,107.132 43.5,100C 38.1627,98.835 35.1627,95.6683 34.5,90.5C 56.9026,91.5054 79.2359,93.172 101.5,95.5C 108.783,94.3682 116.117,94.2015 123.5,95C 169.811,101.414 216.144,107.58 262.5,113.5C 261.994,109.993 262.66,106.826 264.5,104C 271.844,103.548 279.177,103.715 286.5,104.5C 286.33,103.178 286.663,102.011 287.5,101C 282.242,101.066 279.908,98.5663 280.5,93.5C 283.702,93.2295 286.702,92.3962 289.5,91C 288.39,88.2628 288.223,85.4294 289,82.5C 294.79,74.1381 297.124,64.8048 296,54.5C 298.041,53.5769 300.208,53.2436 302.5,53.5C 301.398,43.5093 301.565,33.5093 303,23.5C 304.707,21.9625 306.207,20.2959 307.5,18.5 Z M 254.5,139.5 C 255.696,144.31 258.029,144.81 261.5,141C 259.406,139.648 257.073,139.148 254.5,139.5 Z"/></g>
<g><path style="opacity:1" fill="#fbfbf9" d="M 316.5,45.5 C 312.681,45.586 309.015,44.9193 305.5,43.5C 306.055,37.8465 306.555,32.1798 307,26.5C 310.847,21.4814 315.014,21.3147 319.5,26C 320.899,27.0616 321.899,28.395 322.5,30C 320.867,35.412 318.867,40.5786 316.5,45.5 Z"/></g>
<g><path style="opacity:1" fill="#ec1c23" d="M 305.5,43.5 C 309.015,44.9193 312.681,45.586 316.5,45.5C 316.666,51.1764 316.499,56.8431 316,62.5C 314.89,64.0368 313.39,64.7035 311.5,64.5C 311.167,63.5 310.5,62.8333 309.5,62.5C 307.432,56.4584 306.098,50.1251 305.5,43.5 Z"/></g>
<g><path style="opacity:1" fill="#fefffe" d="M 300.5,74.5 C 300.5,75.5 300.5,76.5 300.5,77.5C 295.893,77.6272 295.226,75.9605 298.5,72.5C 299.182,73.2427 299.849,73.9094 300.5,74.5 Z"/></g>
<g><path style="opacity:1" fill="#2b2b2b" d="M 309.5,62.5 C 310.5,62.8333 311.167,63.5 311.5,64.5C 311.335,67.5184 311.502,70.5184 312,73.5C 312.497,70.854 312.664,68.1873 312.5,65.5C 316.472,66.1082 320.472,66.6082 324.5,67C 327.709,69.3502 331.376,70.5169 335.5,70.5C 336.216,75.4316 334.883,79.5983 331.5,83C 335.431,83.403 336.431,85.2363 334.5,88.5C 330.869,88.1604 327.536,88.9937 324.5,91C 326.898,92.3563 329.398,93.5229 332,94.5C 332.667,96.1667 332.667,97.8333 332,99.5C 331.439,100.022 330.772,100.355 330,100.5C 326.296,99.3957 322.796,97.8957 319.5,96C 316.5,95.3333 313.5,95.3333 310.5,96C 313.167,96.3333 315.833,96.6667 318.5,97C 322.474,99.6021 326.807,101.102 331.5,101.5C 331.649,102.552 331.483,103.552 331,104.5C 325.297,102.616 319.463,101.116 313.5,100C 304.139,99.1887 294.805,98.1887 285.5,97C 288.571,96.8534 291.404,96.0201 294,94.5C 294.748,92.1599 294.248,90.1599 292.5,88.5C 293.234,87.2921 293.567,85.9587 293.5,84.5C 294.222,84.9175 294.722,85.5842 295,86.5C 295.383,85.944 295.883,85.6107 296.5,85.5C 297.906,85.0269 298.573,84.0269 298.5,82.5C 298.328,81.5084 298.662,80.8417 299.5,80.5C 300.316,78.8564 301.65,77.6897 303.5,77C 302.309,76.3021 301.309,75.4687 300.5,74.5C 300.244,70.1382 300.077,65.8049 300,61.5C 300.915,62.3279 301.581,63.3279 302,64.5C 304.135,62.7215 306.635,62.0548 309.5,62.5 Z"/></g>
<g><path style="opacity:1" fill="#fefffe" d="M 299.5,80.5 C 298.662,80.8417 298.328,81.5084 298.5,82.5C 296.9,83.512 295.566,83.012 294.5,81C 296.208,78.0883 297.874,77.9216 299.5,80.5 Z"/></g>
<g><path style="opacity:1" fill="#fefffe" d="M 296.5,85.5 C 295.883,85.6107 295.383,85.944 295,86.5C 294.722,85.5842 294.222,84.9175 293.5,84.5C 292.537,83.6365 292.537,82.9698 293.5,82.5C 294.855,83.1882 295.855,84.1882 296.5,85.5 Z"/></g>
<g><path style="opacity:1" fill="#fefffe" d="M 293.5,84.5 C 293.567,85.9587 293.234,87.2921 292.5,88.5C 291.876,88.0831 291.543,87.4164 291.5,86.5C 291.747,85.2867 292.414,84.62 293.5,84.5 Z"/></g>
<g><path style="opacity:1" fill="#c2c3c2" d="M 113.5,103.5 C 114.5,104.167 115.5,104.833 116.5,105.5C 115.833,105.5 115.5,105.833 115.5,106.5C 90.9759,103.018 66.3092,99.1846 41.5,95C 61.493,96.1661 81.493,97.6661 101.5,99.5C 105.145,98.8838 108.812,98.5505 112.5,98.5C 112.216,100.415 112.549,102.081 113.5,103.5 Z"/></g>
<g><path style="opacity:1" fill="#c2c3c2" d="M 117.5,101.5 C 116.533,102.806 115.199,103.473 113.5,103.5C 113.5,101.833 113.5,100.167 113.5,98.5C 114.833,98.5 116.167,98.5 117.5,98.5C 117.5,99.5 117.5,100.5 117.5,101.5 Z"/></g>
<g><path style="opacity:1" fill="#c2c3c2" d="M 264.5,120.5 C 262.052,119.527 259.385,119.194 256.5,119.5C 212.053,112.86 167.387,106.86 122.5,101.5C 121.282,100.839 119.949,100.172 118.5,99.5C 170.016,105.762 221.683,112.428 273.5,119.5C 270.572,120.484 267.572,120.817 264.5,120.5 Z"/></g>
<g><path style="opacity:1" fill="#fefffe" d="M 294.5,99.5 C 294.5,101.5 293.5,102.5 291.5,102.5C 291.856,100.81 292.856,99.8102 294.5,99.5 Z"/></g>
<g><path style="opacity:1" fill="#9a5c0a" d="M 303.5,106.5 C 302.071,100.425 300.071,100.092 297.5,105.5C 296.778,105.918 296.278,106.584 296,107.5C 295.506,105.866 295.34,104.199 295.5,102.5C 296.404,101.791 296.737,100.791 296.5,99.5C 307.308,100.301 317.975,101.968 328.5,104.5C 329.107,108.07 327.94,110.737 325,112.5C 318.75,110.783 312.417,109.45 306,108.5C 304.624,108.316 303.791,107.649 303.5,106.5 Z"/></g>
<g><path style="opacity:1" fill="#000000" d="M 117.5,101.5 C 117.768,103.099 117.434,104.432 116.5,105.5C 115.5,104.833 114.5,104.167 113.5,103.5C 115.199,103.473 116.533,102.806 117.5,101.5 Z"/></g>
<g><path style="opacity:1" fill="#946248" d="M 117.5,101.5 C 119.167,101.5 120.833,101.5 122.5,101.5C 167.387,106.86 212.053,112.86 256.5,119.5C 256.833,120.167 257.167,120.833 257.5,121.5C 257.33,122.822 257.663,123.989 258.5,125C 263.284,127.032 268.284,127.866 273.5,127.5C 274.552,127.351 275.552,127.517 276.5,128C 273.893,130.105 270.893,130.938 267.5,130.5C 253.257,128.462 239.257,125.796 225.5,122.5C 224.054,121.387 222.387,121.22 220.5,122C 221.244,123.039 222.244,123.539 223.5,123.5C 225.738,125.116 228.071,126.449 230.5,127.5C 230.5,128.167 230.833,128.5 231.5,128.5C 229.562,130.163 227.228,130.829 224.5,130.5C 221.167,127.833 218.167,124.833 215.5,121.5C 214.01,119.72 212.01,119.054 209.5,119.5C 200.621,119.139 191.954,118.139 183.5,116.5C 182.432,115.566 181.099,115.232 179.5,115.5C 178.457,111.486 175.791,109.82 171.5,110.5C 171.5,111.833 171.5,113.167 171.5,114.5C 152.606,112.468 133.94,109.801 115.5,106.5C 115.5,105.833 115.833,105.5 116.5,105.5C 117.434,104.432 117.768,103.099 117.5,101.5 Z"/></g>
<g><path style="opacity:1" fill="#f9a985" d="M 303.5,106.5 C 301.21,108.033 300.544,107.7 301.5,105.5C 301.192,104.692 300.692,104.025 300,103.5C 299.781,104.938 299.281,106.271 298.5,107.5C 297.702,107.043 297.369,106.376 297.5,105.5C 300.071,100.092 302.071,100.425 303.5,106.5 Z"/></g>
<g><path style="opacity:1" fill="#faa079" d="M 294.5,99.5 C 295.404,100.209 295.737,101.209 295.5,102.5C 294.837,104.042 294.17,105.709 293.5,107.5C 292.749,106.624 292.249,105.624 292,104.5C 291.465,106.271 290.631,106.604 289.5,105.5C 289.942,104.261 290.609,103.261 291.5,102.5C 293.5,102.5 294.5,101.5 294.5,99.5 Z"/></g>
<g><path style="opacity:1" fill="#c2c3c2" d="M 265.5,107.5 C 268.572,107.183 271.572,107.516 274.5,108.5C 272.52,111.21 272.186,114.043 273.5,117C 271.167,117.667 268.833,117.667 266.5,117C 266.957,116.586 267.291,116.086 267.5,115.5C 265.771,113.149 265.104,110.482 265.5,107.5 Z"/></g>
<g><path style="opacity:1" fill="#767676" d="M 283.5,110.5 C 283.037,113.482 282.704,116.482 282.5,119.5C 282.817,122.572 282.484,125.572 281.5,128.5C 279.247,127.747 277.413,126.414 276,124.5C 275.718,120.961 275.218,117.461 274.5,114C 274.909,110.643 276.743,108.81 280,108.5C 281.681,108.608 282.848,109.275 283.5,110.5 Z"/></g>
<g><path style="opacity:1" fill="#eeefe1" d="M 290.5,109.5 C 289.094,109.973 288.427,110.973 288.5,112.5C 287.673,117.985 287.173,123.652 287,129.5C 285.989,128.663 284.822,128.33 283.5,128.5C 283.81,125.287 283.477,122.287 282.5,119.5C 282.704,116.482 283.037,113.482 283.5,110.5C 285.66,108.436 287.993,108.102 290.5,109.5 Z"/></g>
<g><path style="opacity:1" fill="#777777" d="M 290.5,109.5 C 294.371,109.185 298.038,109.518 301.5,110.5C 300.358,114.071 299.691,117.738 299.5,121.5C 299.5,124.833 299.5,128.167 299.5,131.5C 295.833,130.833 292.167,130.167 288.5,129.5C 288.5,123.833 288.5,118.167 288.5,112.5C 288.427,110.973 289.094,109.973 290.5,109.5 Z"/></g>
<g><path style="opacity:1" fill="#eeefe1" d="M 301.5,110.5 C 303.781,110.077 305.448,110.744 306.5,112.5C 305.517,116.298 305.183,120.298 305.5,124.5C 304.527,126.948 304.194,129.615 304.5,132.5C 303.178,132.67 302.011,132.337 301,131.5C 300.821,127.975 300.321,124.641 299.5,121.5C 299.691,117.738 300.358,114.071 301.5,110.5 Z"/></g>
<g><path style="opacity:1" fill="#fec90d" d="M 178.5,117.5 C 174.303,117.806 172.303,115.806 172.5,111.5C 176.324,111.735 178.324,113.735 178.5,117.5 Z"/></g>
<g><path style="opacity:1" fill="#717171" d="M 318.5,113.5 C 317.6,118.772 317.267,124.105 317.5,129.5C 317.5,131.167 317.5,132.833 317.5,134.5C 313.5,133.833 309.5,133.167 305.5,132.5C 305.5,129.833 305.5,127.167 305.5,124.5C 305.183,120.298 305.517,116.298 306.5,112.5C 310.676,111.311 314.676,111.644 318.5,113.5 Z"/></g>
<g><path style="opacity:1" fill="#eeefe1" d="M 318.5,113.5 C 319.833,113.5 321.167,113.5 322.5,113.5C 322.5,114.833 322.5,116.167 322.5,117.5C 320.713,120.409 320.379,123.409 321.5,126.5C 321.665,129.518 321.498,132.518 321,135.5C 319.224,133.789 318.058,131.789 317.5,129.5C 317.267,124.105 317.6,118.772 318.5,113.5 Z"/></g>
<g><path style="opacity:1" fill="#747474" d="M 321.5,126.5 C 320.379,123.409 320.713,120.409 322.5,117.5C 323.404,116.791 323.737,115.791 323.5,114.5C 325.927,114.523 328.26,115.023 330.5,116C 325.479,122.184 324.479,128.85 327.5,136C 325.893,135.981 324.226,135.815 322.5,135.5C 322.81,132.287 322.477,129.287 321.5,126.5 Z"/></g>
<g><path style="opacity:1" fill="#dbdcc2" d="M 183.5,116.5 C 191.954,118.139 200.621,119.139 209.5,119.5C 210.568,120.434 211.901,120.768 213.5,120.5C 213.5,121.5 213.5,122.5 213.5,123.5C 201.054,122.808 188.721,121.308 176.5,119C 177.416,118.722 178.082,118.222 178.5,117.5C 180.042,116.699 181.708,116.366 183.5,116.5 Z"/></g>
<g><path style="opacity:1" fill="#7e7f7e" d="M 332.5,116.5 C 337.027,123.281 336.194,129.614 330,135.5C 328.344,133.854 327.511,131.854 327.5,129.5C 328.337,124.829 330.004,120.496 332.5,116.5 Z"/></g>
<g><path style="opacity:1" fill="#000000" d="M 256.5,119.5 C 259.385,119.194 262.052,119.527 264.5,120.5C 262.05,120.298 259.717,120.631 257.5,121.5C 257.167,120.833 256.833,120.167 256.5,119.5 Z"/></g>
<g><path style="opacity:1" fill="#c2c3c2" d="M 264.5,120.5 C 267.287,121.477 270.287,121.81 273.5,121.5C 273.935,123.703 273.935,125.703 273.5,127.5C 268.284,127.866 263.284,127.032 258.5,125C 257.663,123.989 257.33,122.822 257.5,121.5C 259.717,120.631 262.05,120.298 264.5,120.5 Z"/></g>
<g><path style="opacity:1" fill="#ef8355" d="M 215.5,121.5 C 216.833,126.167 219.833,129.167 224.5,130.5C 227.228,130.829 229.562,130.163 231.5,128.5C 234.948,128.854 237.948,130.187 240.5,132.5C 239.398,133.176 238.398,133.842 237.5,134.5C 237.5,134.833 237.5,135.167 237.5,135.5C 235.833,135.5 234.167,135.5 232.5,135.5C 231.209,135.263 230.209,135.596 229.5,136.5C 220.832,136.525 215.832,132.358 214.5,124C 214.528,122.93 214.861,122.097 215.5,121.5 Z"/></g>
<g><path style="opacity:1" fill="#000000" d="M 215.5,121.5 C 218.167,124.833 221.167,127.833 224.5,130.5C 219.833,129.167 216.833,126.167 215.5,121.5 Z"/></g>
<g><path style="opacity:1" fill="#000000" d="M 225.5,122.5 C 224.508,122.328 223.842,122.662 223.5,123.5C 222.244,123.539 221.244,123.039 220.5,122C 222.387,121.22 224.054,121.387 225.5,122.5 Z"/></g>
<g><path style="opacity:1" fill="#dbdcc2" d="M 223.5,123.5 C 223.842,122.662 224.508,122.328 225.5,122.5C 239.257,125.796 253.257,128.462 267.5,130.5C 268.952,131.302 270.618,131.802 272.5,132C 271.57,132.991 270.404,133.491 269,133.5C 256.292,130.688 243.459,128.688 230.5,127.5C 228.071,126.449 225.738,125.116 223.5,123.5 Z"/></g>
<g><path style="opacity:1" fill="#fefffe" d="M 337.5,127.5 C 339.6,127.477 341.433,128.144 343,129.5C 346.42,127.698 348.587,128.698 349.5,132.5C 345.254,137.614 341.088,137.614 337,132.5C 336.616,130.803 336.782,129.137 337.5,127.5 Z"/></g>
<g><path style="opacity:1" fill="#eeefe1" d="M 282.5,130.5 C 283.675,130.281 284.675,130.614 285.5,131.5C 283.065,137.943 282.065,144.609 282.5,151.5C 281.5,151.5 280.5,151.5 279.5,151.5C 279.845,144.387 280.845,137.387 282.5,130.5 Z"/></g>
<g><path style="opacity:1" fill="#2c2c2c" d="M 277.5,152.5 C 276.445,155.073 276.278,157.739 277,160.5C 279.574,161.92 281.407,161.253 282.5,158.5C 283.732,149.876 285.399,141.21 287.5,132.5C 288,132.167 288.5,131.833 289,131.5C 297.039,133.625 305.206,134.958 313.5,135.5C 312.659,142.465 312.326,149.465 312.5,156.5C 310.458,159.184 310.125,162.184 311.5,165.5C 313.554,165.635 315.221,164.968 316.5,163.5C 317.889,154.97 319.223,146.304 320.5,137.5C 323.216,137.678 325.883,138.178 328.5,139C 326.212,147.475 324.878,156.142 324.5,165C 325.499,172.484 325.666,179.984 325,187.5C 321.483,189.931 317.65,191.097 313.5,191C 314.821,186.27 315.821,181.436 316.5,176.5C 316.253,175.287 315.586,174.62 314.5,174.5C 314.5,174.167 314.5,173.833 314.5,173.5C 315.219,171.236 315.552,168.903 315.5,166.5C 313.856,166.286 312.356,166.62 311,167.5C 310.82,169.488 310.986,171.488 311.5,173.5C 309.387,178.614 307.887,183.947 307,189.5C 298.088,189.824 289.254,188.658 280.5,186C 279.585,182.412 279.585,178.745 280.5,175C 280.431,173.014 279.765,171.514 278.5,170.5C 278.5,170.167 278.5,169.833 278.5,169.5C 279.566,167.299 280.233,164.965 280.5,162.5C 279.167,162.5 277.833,162.5 276.5,162.5C 276.737,163.791 276.404,164.791 275.5,165.5C 274.413,171.653 273.58,177.986 273,184.5C 272.667,184.167 272.333,183.833 272,183.5C 271.638,168.492 271.971,153.492 273,138.5C 272.793,133.887 274.793,130.887 279,129.5C 279.5,130 280,130.5 280.5,131C 278.592,137.996 277.592,145.163 277.5,152.5 Z"/></g>
<g><path style="opacity:1" fill="#eeefe1" d="M 334.5,133.5 C 339.923,135.266 340.256,137.1 335.5,139C 332.567,141.264 330.4,144.098 329,147.5C 328.774,142.008 330.608,137.341 334.5,133.5 Z"/></g>
<g><path style="opacity:1" fill="#fef200" d="M 241.5,135.5 C 242.189,134.226 243.023,134.226 244,135.5C 244.735,137.871 245.568,140.205 246.5,142.5C 246.167,142.833 245.833,143.167 245.5,143.5C 244.818,142.757 244.151,142.091 243.5,141.5C 243.946,138.99 243.28,136.99 241.5,135.5 Z"/></g>
<g><path style="opacity:1" fill="#fefffe" d="M 248.5,135.5 C 249.097,134.861 249.93,134.528 251,134.5C 256.77,135.944 262.603,137.11 268.5,138C 266.833,140.333 265.167,142.667 263.5,145C 260.671,146.247 258.005,147.747 255.5,149.5C 252.573,145.109 250.24,140.442 248.5,135.5 Z M 254.5,139.5 C 255.696,144.31 258.029,144.81 261.5,141C 259.406,139.648 257.073,139.148 254.5,139.5 Z"/></g>
<g><path style="opacity:1" fill="#ec1c23" d="M 350.5,134.5 C 354.189,137.515 356.189,141.515 356.5,146.5C 356.057,151.239 354.557,155.572 352,159.5C 346.294,164.604 341.294,170.27 337,176.5C 335.383,170.674 335.05,164.674 336,158.5C 337.614,151.832 339.114,145.165 340.5,138.5C 344.567,138.794 347.9,137.46 350.5,134.5 Z"/></g>
<g><path style="opacity:1" fill="#fef200" d="M 232.5,135.5 C 234.167,135.5 235.833,135.5 237.5,135.5C 237.415,138.649 238.415,141.316 240.5,143.5C 240.5,144.167 240.5,144.833 240.5,145.5C 239.508,145.328 238.842,145.662 238.5,146.5C 237.193,142.64 235.193,138.973 232.5,135.5 Z"/></g>
<g><path style="opacity:1" fill="#fefefe" d="M 232.5,135.5 C 235.193,138.973 237.193,142.64 238.5,146.5C 237.205,147.488 235.872,148.488 234.5,149.5C 231.879,145.885 230.213,141.885 229.5,137.5C 229.5,137.167 229.5,136.833 229.5,136.5C 230.209,135.596 231.209,135.263 232.5,135.5 Z"/></g>
<g><path style="opacity:1" fill="#fefefe" d="M 237.5,134.5 C 238.959,134.433 240.292,134.766 241.5,135.5C 243.28,136.99 243.946,138.99 243.5,141.5C 243.443,142.609 243.11,143.609 242.5,144.5C 241.833,144.167 241.167,143.833 240.5,143.5C 238.415,141.316 237.415,138.649 237.5,135.5C 237.5,135.167 237.5,134.833 237.5,134.5 Z"/></g>
<g><path style="opacity:1" fill="#fef200" d="M 239.5,136.5 C 240.649,136.791 241.316,137.624 241.5,139C 241.333,139.833 241.167,140.667 241,141.5C 240.392,139.846 239.892,138.179 239.5,136.5 Z"/></g>
<g><path style="opacity:1" fill="#eeefe1" d="M 315.5,136.5 C 316.5,136.5 317.5,136.5 318.5,136.5C 317.321,142.793 316.321,149.126 315.5,155.5C 314.345,149.166 314.345,142.832 315.5,136.5 Z"/></g>
<g><path style="opacity:1" fill="#fef200" d="M 229.5,137.5 C 230.213,141.885 231.879,145.885 234.5,149.5C 233.508,149.328 232.842,149.662 232.5,150.5C 230.919,146.752 229.252,142.918 227.5,139C 227.836,137.97 228.503,137.47 229.5,137.5 Z"/></g>
<g><path style="opacity:1" fill="#fef200" d="M 231.5,138.5 C 233.562,139.505 234.396,141.171 234,143.5C 232.628,142.09 231.795,140.423 231.5,138.5 Z"/></g>
<g><path style="opacity:1" fill="#ec1c23" d="M 337.5,139.5 C 338.497,139.47 339.164,139.97 339.5,141C 334.304,153.743 333.304,166.743 336.5,180C 335.286,184.58 332.286,186.746 327.5,186.5C 327.702,179.306 327.369,172.14 326.5,165C 326.957,160.137 327.624,155.303 328.5,150.5C 331.258,146.658 334.258,142.992 337.5,139.5 Z"/></g>
<g><path style="opacity:1" fill="#000000" d="M 240.5,143.5 C 241.167,143.833 241.833,144.167 242.5,144.5C 242.158,145.338 241.492,145.672 240.5,145.5C 240.5,144.833 240.5,144.167 240.5,143.5 Z"/></g>
<g><path style="opacity:1" fill="#fefefe" d="M 242.5,144.5 C 244.199,144.34 245.866,144.506 247.5,145C 246.263,145.232 245.263,145.732 244.5,146.5C 241.406,147.883 238.406,149.55 235.5,151.5C 234.417,151.539 233.417,151.873 232.5,152.5C 231.537,152.03 231.537,151.363 232.5,150.5C 232.842,149.662 233.508,149.328 234.5,149.5C 235.872,148.488 237.205,147.488 238.5,146.5C 238.842,145.662 239.508,145.328 240.5,145.5C 241.492,145.672 242.158,145.338 242.5,144.5 Z"/></g>
<g><path style="opacity:1" fill="#ec1c23" d="M 268.5,165.5 C 260.321,169.68 252.988,175.013 246.5,181.5C 243.082,178.561 240.582,174.894 239,170.5C 237.422,165.022 235.922,159.522 234.5,154C 234.743,153.098 235.077,152.265 235.5,151.5C 238.406,149.55 241.406,147.883 244.5,146.5C 245.822,146.33 246.989,146.663 248,147.5C 249.3,150.295 250.8,152.961 252.5,155.5C 250.862,158.304 249.029,160.971 247,163.5C 246.312,164.332 246.479,164.998 247.5,165.5C 250.991,161.84 254.324,158.006 257.5,154C 262.553,151.902 266.72,148.735 270,144.5C 270.89,151.648 270.39,158.648 268.5,165.5 Z"/></g>
<g><path style="opacity:1" fill="#eeefe1" d="M 277.5,152.5 C 279.167,152.5 280.833,152.5 282.5,152.5C 282.5,154.5 282.5,156.5 282.5,158.5C 281.407,161.253 279.574,161.92 277,160.5C 276.278,157.739 276.445,155.073 277.5,152.5 Z"/></g>
<g><path style="opacity:1" fill="#eeefe1" d="M 312.5,156.5 C 313.833,156.5 315.167,156.5 316.5,156.5C 316.5,158.833 316.5,161.167 316.5,163.5C 315.221,164.968 313.554,165.635 311.5,165.5C 310.125,162.184 310.458,159.184 312.5,156.5 Z"/></g>
<g><path style="opacity:1" fill="#eeefe1" d="M 278.5,169.5 C 276.088,169.306 275.088,167.973 275.5,165.5C 276.404,164.791 276.737,163.791 276.5,162.5C 277.833,162.5 279.167,162.5 280.5,162.5C 280.233,164.965 279.566,167.299 278.5,169.5 Z"/></g>
<g><path style="opacity:1" fill="#a31415" d="M 268.5,165.5 C 269.803,168.355 269.803,171.355 268.5,174.5C 262.501,178.75 256.001,182.083 249,184.5C 247.251,184.252 246.418,183.252 246.5,181.5C 252.988,175.013 260.321,169.68 268.5,165.5 Z"/></g>
<g><path style="opacity:1" fill="#eeefe1" d="M 314.5,173.5 C 313.5,173.5 312.5,173.5 311.5,173.5C 310.986,171.488 310.82,169.488 311,167.5C 312.356,166.62 313.856,166.286 315.5,166.5C 315.552,168.903 315.219,171.236 314.5,173.5 Z"/></g>
<g><path style="opacity:1" fill="#eeefe1" d="M 278.5,170.5 C 278.571,175.6 277.904,180.6 276.5,185.5C 275.345,182.554 275.179,179.554 276,176.5C 276.002,173.949 276.836,171.949 278.5,170.5 Z"/></g>
<g><path style="opacity:1" fill="#eeefe1" d="M 314.5,174.5 C 313.808,179.511 312.974,184.511 312,189.5C 311.275,191.158 310.108,191.658 308.5,191C 309.737,186.554 310.903,182.054 312,177.5C 312.236,175.881 313.069,174.881 314.5,174.5 Z"/></g>
<g><path style="opacity:1" fill="#eeefe1" d="M 335.5,185.5 C 336.776,186.386 336.776,187.386 335.5,188.5C 331.454,192.091 326.788,193.257 321.5,192C 326.204,189.652 330.871,187.486 335.5,185.5 Z"/></g>
<g><path style="opacity:1" fill="#5a3130" d="M 277.5,187.5 C 278.573,188.251 278.74,189.251 278,190.5C 275.147,193.052 272.647,195.885 270.5,199C 268.333,199.5 267.5,198.667 268,196.5C 271.667,193.999 274.834,190.999 277.5,187.5 Z"/></g>
<g><path style="opacity:1" fill="#ba0f16" d="M 280.5,188.5 C 285.3,189.351 289.966,190.518 294.5,192C 289.333,195.167 284.167,198.333 279,201.5C 279.244,197.206 279.744,192.873 280.5,188.5 Z"/></g>
<g><path style="opacity:1" fill="#ec1c23" d="M 335.5,190.5 C 335.978,200.924 336.978,211.424 338.5,222C 338.167,222.5 337.833,223 337.5,223.5C 335.541,222.252 334.041,220.585 333,218.5C 329.215,210.429 325.049,202.595 320.5,195C 323.833,194.667 327.167,194.333 330.5,194C 332.584,193.303 334.251,192.136 335.5,190.5 Z"/></g>
<g><path style="opacity:1" fill="#5a3130" d="M 297.5,192.5 C 298.239,192.369 298.906,192.536 299.5,193C 294.833,197 290.167,201 285.5,205C 280.674,207.246 276.008,209.746 271.5,212.5C 270.5,212 269.5,211.5 268.5,211C 277.892,204.31 287.559,198.143 297.5,192.5 Z"/></g>
<g><path style="opacity:1" fill="#736635" d="M 302.5,192.5 C 304.346,192.222 305.68,192.889 306.5,194.5C 303.252,200.664 299.752,206.664 296,212.5C 295.167,211.667 294.333,210.833 293.5,210C 296,206.833 298.5,203.667 301,200.5C 302.252,197.986 302.752,195.32 302.5,192.5 Z"/></g>
<g><path style="opacity:1" fill="#eeefe1" d="M 316.5,192.5 C 322.346,203.019 328.346,213.519 334.5,224C 331.629,226.215 329.463,229.049 328,232.5C 321.62,220.238 315.12,208.071 308.5,196C 308.645,195.228 308.978,194.561 309.5,194C 312.036,193.814 314.369,193.314 316.5,192.5 Z"/></g>
<g><path style="opacity:1" fill="#eeefe1" d="M 300.5,194.5 C 301.573,195.251 301.74,196.251 301,197.5C 298.385,201.783 295.385,205.783 292,209.5C 290.915,208.707 289.748,208.04 288.5,207.5C 287.479,206.998 287.312,206.332 288,205.5C 292.36,201.968 296.527,198.301 300.5,194.5 Z"/></g>
<g><path style="opacity:1" fill="#00a1e8" d="M 255.5,197.5 C 260.915,196.65 263.582,198.983 263.5,204.5C 260.912,216.752 253.912,225.419 242.5,230.5C 240.728,229.73 239.728,228.397 239.5,226.5C 241.494,214.833 246.827,205.166 255.5,197.5 Z"/></g>
<g><path style="opacity:1" fill="#00a1e8" d="M 263.5,198.5 C 266.603,200.423 269.603,202.59 272.5,205C 270.093,207.285 267.593,209.451 265,211.5C 261.755,220.535 256.255,227.702 248.5,233C 246.125,235.153 244.125,234.82 242.5,232C 257.803,225.87 264.803,214.703 263.5,198.5 Z"/></g>
<g><path style="opacity:1" fill="#9f1515" d="M 313.5,210.5 C 310.499,215.263 307.499,214.93 304.5,209.5C 302.851,210.648 301.351,211.981 300,213.5C 299.601,213.272 299.435,212.938 299.5,212.5C 301.72,207.728 304.22,203.062 307,198.5C 309.827,202.155 311.993,206.155 313.5,210.5 Z"/></g>
<g><path style="opacity:1" fill="#716435" d="M 284.5,207.5 C 288.435,209.29 291.768,211.79 294.5,215C 291.865,219.771 289.365,224.604 287,229.5C 283.328,232.342 279.828,235.342 276.5,238.5C 273.469,236.984 270.469,235.484 267.5,234C 269.377,231.749 270.877,229.249 272,226.5C 272.848,221.736 274.015,217.069 275.5,212.5C 278.724,211.059 281.724,209.392 284.5,207.5 Z"/></g>
<g><path style="opacity:1" fill="#fefefe" d="M 313.5,210.5 C 315.008,212.181 316.008,214.181 316.5,216.5C 317.72,228.147 318.72,239.814 319.5,251.5C 319.785,253.288 319.452,254.955 318.5,256.5C 317.831,254.369 317.165,252.369 316.5,250.5C 315.286,240.321 314.12,229.987 313,219.5C 309.877,215.566 306.71,215.566 303.5,219.5C 301.833,218.5 300.5,217.167 299.5,215.5C 298.817,215.863 298.15,216.196 297.5,216.5C 296.527,214.708 297.194,213.375 299.5,212.5C 299.435,212.938 299.601,213.272 300,213.5C 301.351,211.981 302.851,210.648 304.5,209.5C 307.499,214.93 310.499,215.263 313.5,210.5 Z"/></g>
<g><path style="opacity:1" fill="#5a3130" d="M 266.5,212.5 C 268.103,212.312 269.437,212.812 270.5,214C 266.988,223.037 261.321,230.37 253.5,236C 251.414,237.827 249.414,237.827 247.5,236C 256.92,230.738 263.254,222.905 266.5,212.5 Z"/></g>
<g><path style="opacity:1" fill="#4f150f" d="M 303.5,211.5 C 307.095,212.905 307.262,214.572 304,216.5C 303.167,215.667 302.333,214.833 301.5,214C 302.381,213.292 303.047,212.458 303.5,211.5 Z"/></g>
<g><path style="opacity:1" fill="#ec1c23" d="M 316.5,250.5 C 316.5,252.5 316.5,254.5 316.5,256.5C 308.486,256.432 300.486,256.099 292.5,255.5C 292.5,248.833 292.5,242.167 292.5,235.5C 293.644,231.036 294.31,226.37 294.5,221.5C 295.233,219.706 296.233,218.039 297.5,216.5C 298.15,216.196 298.817,215.863 299.5,215.5C 300.5,217.167 301.833,218.5 303.5,219.5C 306.71,215.566 309.877,215.566 313,219.5C 314.12,229.987 315.286,240.321 316.5,250.5 Z"/></g>
<g><path style="opacity:1" fill="#ec1c23" d="M 316.5,216.5 C 320.26,221.684 323.26,227.35 325.5,233.5C 323.4,235.498 321.4,237.665 319.5,240C 320.244,241.039 321.244,241.539 322.5,241.5C 324.265,242.461 326.265,242.795 328.5,242.5C 328.824,246.555 328.491,250.555 327.5,254.5C 325.291,255.106 323.124,255.773 321,256.5C 320.802,254.618 320.302,252.952 319.5,251.5C 318.72,239.814 317.72,228.147 316.5,216.5 Z"/></g>
<g><path style="opacity:1" fill="#00a1e8" d="M 270.5,217.5 C 271.276,222.401 270.109,227.068 267,231.5C 265.122,233.043 263.622,234.876 262.5,237C 259.923,238.25 257.257,238.584 254.5,238C 262.302,233.038 267.636,226.205 270.5,217.5 Z"/></g>
<g><path style="opacity:1" fill="#fefefe" d="M 294.5,221.5 C 294.31,226.37 293.644,231.036 292.5,235.5C 291.833,241.679 291.167,248.012 290.5,254.5C 289.513,251.232 289.18,247.898 289.5,244.5C 289.182,239.968 289.515,235.634 290.5,231.5C 291.371,227.979 292.205,224.312 293,220.5C 294.107,219.288 294.607,219.621 294.5,221.5 Z"/></g>
<g><path style="opacity:1" fill="#2c2d2c" d="M 335.5,224.5 C 341.82,225.074 347.986,226.407 354,228.5C 354.958,231.075 355.458,233.741 355.5,236.5C 355.104,244.264 354.104,251.931 352.5,259.5C 350.189,258.786 348.022,257.786 346,256.5C 345.998,251.528 346.165,246.528 346.5,241.5C 346.564,237.081 346.064,232.748 345,228.5C 341.356,226.979 337.523,226.145 333.5,226C 334.416,225.722 335.082,225.222 335.5,224.5 Z"/></g>
<g><path style="opacity:1" fill="#ec1c23" d="M 290.5,231.5 C 289.515,235.634 289.182,239.968 289.5,244.5C 288.523,247.287 288.19,250.287 288.5,253.5C 286.516,253.617 284.85,252.95 283.5,251.5C 285.513,243.778 287.68,236.111 290,228.5C 290.483,229.448 290.649,230.448 290.5,231.5 Z"/></g>
<g><path style="opacity:1" fill="#2c2d2c" d="M 332.5,228.5 C 336.215,228.423 339.881,228.756 343.5,229.5C 344.376,232.799 344.543,236.132 344,239.5C 340.117,236.235 335.617,234.568 330.5,234.5C 330.604,232.297 331.27,230.297 332.5,228.5 Z"/></g>
<g><path style="opacity:1" fill="#fec90d" d="M 276.5,231.5 C 278.76,232.238 278.927,233.238 277,234.5C 275.272,233.648 275.105,232.648 276.5,231.5 Z"/></g>
<g><path style="opacity:1" fill="#736635" d="M 285.5,231.5 C 284.536,239.726 282.702,248.059 280,256.5C 278.691,258.976 276.858,260.976 274.5,262.5C 268.252,261.159 261.919,260.325 255.5,260C 252.75,258.915 251.083,256.915 250.5,254C 251.582,249.506 252.582,245.006 253.5,240.5C 258.914,241.366 263.248,239.7 266.5,235.5C 270.322,237.595 274.322,238.762 278.5,239C 281.011,236.656 283.344,234.156 285.5,231.5 Z"/></g>
<g><path style="opacity:1" fill="#971614" d="M 325.5,233.5 C 327.982,235.503 328.982,238.169 328.5,241.5C 326.5,241.5 324.5,241.5 322.5,241.5C 321.244,241.539 320.244,241.039 319.5,240C 321.4,237.665 323.4,235.498 325.5,233.5 Z"/></g>
<g><path style="opacity:1" fill="#2c2d2c" d="M 330.5,235.5 C 335.366,235.799 339.699,237.466 343.5,240.5C 344.437,245.812 344.437,251.146 343.5,256.5C 339.167,256.5 334.833,256.5 330.5,256.5C 330.5,249.5 330.5,242.5 330.5,235.5 Z"/></g>
<g><path style="opacity:1" fill="#7e7f7e" d="M 282.5,254.5 C 290.006,256.688 297.673,258.188 305.5,259C 302.77,265.644 298.937,271.477 294,276.5C 288.689,285.306 283.189,293.973 277.5,302.5C 274.5,301.167 271.5,301.167 268.5,302.5C 268.167,301.167 267.833,299.833 267.5,298.5C 268.339,286.76 269.672,275.094 271.5,263.5C 273.098,264.485 274.765,264.651 276.5,264C 279.665,261.49 281.665,258.324 282.5,254.5 Z"/></g>
<g><path style="opacity:1" fill="#535353" d="M 326.5,258.5 C 320.456,262.352 313.789,264.686 306.5,265.5C 305.957,265.44 305.624,265.107 305.5,264.5C 306.167,262.833 306.833,261.167 307.5,259.5C 313.164,258.745 318.831,258.078 324.5,257.5C 325.416,257.543 326.083,257.876 326.5,258.5 Z"/></g>
<g><path style="opacity:1" fill="#7e7e7e" d="M 306.5,265.5 C 313.789,264.686 320.456,262.352 326.5,258.5C 328.698,257.933 331.031,257.933 333.5,258.5C 333.666,267.173 333.5,275.84 333,284.5C 330.98,293.913 328.647,303.246 326,312.5C 326.974,336.939 325.641,361.272 322,385.5C 315.208,388.075 308.375,388.075 301.5,385.5C 301.064,366.453 302.064,347.453 304.5,328.5C 308.318,328.584 311.985,329.084 315.5,330C 312.271,327.384 308.604,325.884 304.5,325.5C 303.81,311.814 302.81,298.147 301.5,284.5C 301.551,282.9 301.884,281.4 302.5,280C 300.99,278.649 299.99,276.982 299.5,275C 300.787,272.929 301.953,270.762 303,268.5C 303.06,273.39 304.06,278.057 306,282.5C 305.431,278.916 304.931,275.25 304.5,271.5C 304.676,269.215 305.343,267.215 306.5,265.5 Z"/></g>
<g><path style="opacity:1" fill="#2c2d2c" d="M 264.5,262.5 C 265.708,263.234 267.041,263.567 268.5,263.5C 267.445,275.828 266.445,288.161 265.5,300.5C 264.167,300.5 262.833,300.5 261.5,300.5C 262.5,287.833 263.5,275.167 264.5,262.5 Z"/></g>
<g><path style="opacity:1" fill="#7e7f7e" d="M 261.5,265.5 C 262.097,265.735 262.43,266.235 262.5,267C 261.081,282.523 259.415,298.023 257.5,313.5C 255.247,312.747 253.413,311.414 252,309.5C 251.833,309.833 251.667,310.167 251.5,310.5C 253.277,312.893 255.61,314.56 258.5,315.5C 258.192,316.308 257.692,316.975 257,317.5C 254.708,316.21 252.708,314.543 251,312.5C 251.471,315.483 253.304,317.483 256.5,318.5C 256.85,321.862 258.184,324.695 260.5,327C 263.877,324.628 267.877,323.461 272.5,323.5C 271.253,339.737 268.586,355.737 264.5,371.5C 259.195,372.442 253.861,372.609 248.5,372C 245.204,369.075 243.537,365.408 243.5,361C 244.529,348.154 245.695,335.321 247,322.5C 251.054,303.284 255.887,284.284 261.5,265.5 Z"/></g>
<g><path style="opacity:1" fill="#fec90d" d="M 261.5,301.5 C 262.833,301.5 264.167,301.5 265.5,301.5C 265.1,309.693 263.933,317.693 262,325.5C 260.141,324.355 259.307,322.688 259.5,320.5C 260.222,314.164 260.889,307.831 261.5,301.5 Z"/></g>
<g><path style="opacity:1" fill="#696a69" d="M 270.5,302.5 C 273.157,302.162 275.49,302.829 277.5,304.5C 274.334,307.277 271.334,307.111 268.5,304C 269.416,303.722 270.082,303.222 270.5,302.5 Z"/></g>
<g><path style="opacity:1" fill="#7e7f7e" d="M 267.5,305.5 C 270.532,307.236 273.532,307.903 276.5,307.5C 275.041,309.583 273.708,311.75 272.5,314C 270.655,315.128 268.655,315.628 266.5,315.5C 266.253,312.061 266.586,308.728 267.5,305.5 Z"/></g>
<g><path style="opacity:1" fill="#000000" d="M 305.5,310.5 C 311.044,310.519 316.71,310.352 322.5,310C 320.2,311.109 317.7,311.609 315,311.5C 311.8,311.344 308.633,311.011 305.5,310.5 Z"/></g>
<g><path style="opacity:1" fill="#7e7f7e" d="M 271.5,315.5 C 272.461,317.265 272.795,319.265 272.5,321.5C 270.167,321.5 267.833,321.5 265.5,321.5C 265.421,320.07 265.754,318.736 266.5,317.5C 268.291,316.83 269.958,316.163 271.5,315.5 Z"/></g>
<g><path style="opacity:1" fill="#343434" d="M 244.5,379.5 C 244.5,379.167 244.5,378.833 244.5,378.5C 243.895,376.519 242.895,376.185 241.5,377.5C 237.09,375.585 233.423,372.752 230.5,369C 233.457,366.688 236.791,365.188 240.5,364.5C 244.624,374.343 251.791,377.343 262,373.5C 262.822,376.117 263.322,378.784 263.5,381.5C 256.985,381.979 250.652,381.312 244.5,379.5 Z"/></g>
<g><path style="opacity:1" fill="#1d1d1d" d="M 241.5,378.5 C 242.5,379.833 243.5,379.833 244.5,378.5C 244.5,378.833 244.5,379.167 244.5,379.5C 245.058,380.79 246.058,381.623 247.5,382C 252.833,382.333 258.167,382.667 263.5,383C 264.677,385.158 264.01,386.658 261.5,387.5C 250.395,385.427 239.395,382.927 228.5,380C 223.62,378.748 221.286,375.582 221.5,370.5C 224.176,369.992 226.843,369.825 229.5,370C 232.605,374.056 236.605,376.89 241.5,378.5 Z"/></g>
<g><path style="opacity:1" fill="#fec90d" d="M 244.5,378.5 C 243.5,379.833 242.5,379.833 241.5,378.5C 241.5,378.167 241.5,377.833 241.5,377.5C 242.895,376.185 243.895,376.519 244.5,378.5 Z"/></g>
<g><path style="opacity:1" fill="#343534" d="M 322.5,387.5 C 324.646,387.696 324.812,388.696 323,390.5C 316.88,395.239 310.047,396.905 302.5,395.5C 302.756,393.208 302.423,391.041 301.5,389C 305.146,388.886 308.812,389.053 312.5,389.5C 316.117,389.602 319.45,388.935 322.5,387.5 Z"/></g>
</svg>
