<?xml version="1.0" encoding="UTF-8"?>
<!DOCTYPE svg PUBLIC "-//W3C//DTD SVG 1.1//EN" "http://www.w3.org/Graphics/SVG/1.1/DTD/svg11.dtd">
<svg xmlns="http://www.w3.org/2000/svg" version="1.1" width="388px" height="324px" style="shape-rendering:geometricPrecision; text-rendering:geometricPrecision; image-rendering:optimizeQuality; fill-rule:evenodd; clip-rule:evenodd" xmlns:xlink="http://www.w3.org/1999/xlink">
<g><path style="opacity:1" fill="#fefffe" d="M 112.5,25.5 C 118.509,25.3338 124.509,25.5005 130.5,26C 131.5,26.5 132.5,27 133.5,27.5C 135.511,33.8071 134.511,39.4738 130.5,44.5C 131.865,45.941 133.365,47.2744 135,48.5C 136.047,53.7551 135.547,58.7551 133.5,63.5C 135.624,64.1494 137.624,64.9827 139.5,66C 215.856,66.3544 292.19,66.3544 368.5,66C 369.872,66.4017 371.205,66.9017 372.5,67.5C 375.213,76.9651 371.546,81.1318 361.5,80C 342.468,81.2053 323.468,82.7053 304.5,84.5C 303.96,85.7481 303.293,86.9148 302.5,88C 294.5,88.6667 286.5,89.3333 278.5,90C 277.167,90.6667 276.167,91.6667 275.5,93C 272.833,93.3333 270.167,93.6667 267.5,94C 243.499,94.0701 219.499,94.0701 195.5,94C 193.507,95.9986 191.173,97.4986 188.5,98.5C 187.499,102.347 185.832,105.847 183.5,109C 177.998,112.585 172.331,115.919 166.5,119C 155.512,123.001 145.012,122.168 135,116.5C 135.215,121.095 135.549,125.761 136,130.5C 137.333,131.833 138.667,133.167 140,134.5C 141.625,143.791 142.958,153.125 144,162.5C 151.415,175.665 159.081,188.665 167,201.5C 172.9,217.968 179.9,233.968 188,249.5C 188.206,252.623 188.873,255.623 190,258.5C 192.333,260.833 194.667,263.167 197,265.5C 197.667,271.5 197.667,277.5 197,283.5C 193.847,285.502 190.347,286.668 186.5,287C 168.75,290.665 156.25,284.498 149,268.5C 144.307,255.793 139.641,243.126 135,230.5C 133.488,229.743 132.154,228.743 131,227.5C 129.713,223.63 128.047,219.964 126,216.5C 120.333,209.833 114.667,203.167 109,196.5C 106.799,200.24 105.132,204.24 104,208.5C 101.456,219.558 98.7896,230.558 96,241.5C 93.3863,243.056 92.0529,245.39 92,248.5C 90.813,256.143 89.813,263.809 89,271.5C 88.4427,273.615 87.6094,275.615 86.5,277.5C 87.6103,282.111 87.7769,286.778 87,291.5C 85.4422,293.359 83.6089,294.859 81.5,296C 73.5,296.667 65.5,296.667 57.5,296C 55.6217,294.457 54.1217,292.624 53,290.5C 52.3245,282.804 51.4911,275.138 50.5,267.5C 51.1549,256.819 51.9882,246.153 53,235.5C 55.8519,219.74 59.0185,204.074 62.5,188.5C 59.9556,188.896 57.7889,188.229 56,186.5C 55.5014,182.848 55.3347,179.182 55.5,175.5C 51.7846,175.804 48.2846,175.137 45,173.5C 42.6379,163.627 43.3046,153.96 47,144.5C 50.966,139.533 55.2993,134.866 60,130.5C 59.4588,120.195 58.9588,109.861 58.5,99.5C 58.2182,91.7005 59.0515,84.0339 61,76.5C 62.1217,74.3762 63.6217,72.5429 65.5,71C 70.4543,68.4334 75.621,66.6001 81,65.5C 82.4759,60.6379 80.6426,58.4712 75.5,59C 74.6667,58.1667 73.8333,57.3333 73,56.5C 72.3333,51.5 72.3333,46.5 73,41.5C 82.2126,37.1439 91.3793,32.6439 100.5,28C 104.665,27.2946 108.665,26.4613 112.5,25.5 Z"/></g>
<g><path style="opacity:1" fill="#010000" d="M 114.5,27.5 C 120.358,26.9875 126.025,27.6542 131.5,29.5C 132.652,32.1062 132.818,34.7728 132,37.5C 130.152,40.0107 128.319,42.5107 126.5,45C 128.356,47.1812 130.523,49.0146 133,50.5C 133.626,56.0241 133.126,61.3574 131.5,66.5C 134.652,65.9586 137.152,66.9586 139,69.5C 214.789,68.3779 290.622,67.8779 366.5,68C 372.818,70.303 373.152,73.303 367.5,77C 347.71,79.0347 327.877,80.5347 308,81.5C 304.24,81.1083 301.74,82.6083 300.5,86C 292.5,86.6667 284.5,87.3333 276.5,88C 275.167,88.6667 274.167,89.6667 273.5,91C 270.833,91.3333 268.167,91.6667 265.5,92C 241.654,91.9379 217.654,91.9379 193.5,92C 191.507,93.9986 189.173,95.4986 186.5,96.5C 185.499,100.347 183.832,103.847 181.5,107C 175.998,110.585 170.331,113.919 164.5,117C 158.985,119.057 153.318,119.724 147.5,119C 142.444,117.422 137.611,115.255 133,112.5C 132.667,112.833 132.333,113.167 132,113.5C 132.938,119.732 133.604,126.065 134,132.5C 135.333,133.833 136.667,135.167 138,136.5C 139.625,145.791 140.958,155.125 142,164.5C 149.415,177.665 157.081,190.665 165,203.5C 170.9,219.968 177.9,235.968 186,251.5C 186.206,254.623 186.873,257.623 188,260.5C 195.802,266.514 197.635,274.014 193.5,283C 184.167,286.333 174.833,286.333 165.5,283C 158.828,279.028 153.995,273.528 151,266.5C 146.307,253.793 141.641,241.126 137,228.5C 135.488,227.743 134.154,226.743 133,225.5C 131.713,221.63 130.047,217.964 128,214.5C 121.706,206.538 115.04,198.871 108,191.5C 105.741,196.357 103.741,201.357 102,206.5C 99.4562,217.558 96.7896,228.558 94,239.5C 91.3863,241.056 90.0529,243.39 90,246.5C 88.813,254.143 87.813,261.809 87,269.5C 86.2269,272.211 85.0602,274.711 83.5,277C 87.2869,284.088 85.9535,289.754 79.5,294C 72.8333,294.667 66.1667,294.667 59.5,294C 57.6217,292.457 56.1217,290.624 55,288.5C 54.5557,281.443 53.7224,274.443 52.5,267.5C 54.1957,240.528 58.5291,214.028 65.5,188C 62.8778,187.077 60.3778,185.911 58,184.5C 57.5014,180.848 57.3347,177.182 57.5,173.5C 53.7846,173.804 50.2846,173.137 47,171.5C 44.74,162.952 45.4067,154.619 49,146.5C 52.966,141.533 57.2993,136.866 62,132.5C 62.0237,121.49 61.5237,110.49 60.5,99.5C 60.2551,92.3643 61.0884,85.3643 63,78.5C 67.7959,72.016 74.2959,68.516 82.5,68C 84.9663,64.9938 85.1329,61.8272 83,58.5C 79.8308,58.1368 77.1641,56.8034 75,54.5C 74.3333,50.8333 74.3333,47.1667 75,43.5C 84.2126,39.1439 93.3793,34.6439 102.5,30C 106.665,29.2946 110.665,28.4613 114.5,27.5 Z"/></g>
<g><path style="opacity:1" fill="#d0270b" d="M 121.5,41.5 C 112.817,47.8391 103.15,52.0058 92.5,54C 94.8333,54.6667 97.1667,54.6667 99.5,54C 107.235,51.6294 114.568,48.4628 121.5,44.5C 120.883,46.2292 119.883,47.7292 118.5,49C 110.696,55.154 101.863,58.654 92,59.5C 91.228,59.3552 90.5613,59.0219 90,58.5C 89.1291,53.196 85.9625,51.0293 80.5,52C 79.1667,50.3333 79.1667,48.6667 80.5,47C 89.9973,43.244 98.664,39.244 106.5,35C 112.346,32.8821 118.346,32.2155 124.5,33C 125.308,33.3076 125.975,33.8076 126.5,34.5C 124.039,36.2898 122.373,38.6232 121.5,41.5 Z"/></g>
<g><path style="opacity:1" fill="#aa1f13" d="M 121.5,41.5 C 121.5,42.5 121.5,43.5 121.5,44.5C 114.568,48.4628 107.235,51.6294 99.5,54C 97.1667,54.6667 94.8333,54.6667 92.5,54C 103.15,52.0058 112.817,47.8391 121.5,41.5 Z"/></g>
<g><path style="opacity:1" fill="#fed609" d="M 119.5,49.5 C 122.076,49.7218 122.91,51.0551 122,53.5C 120.062,56.1059 117.562,57.9392 114.5,59C 106.7,62.0639 98.7002,63.2306 90.5,62.5C 95.0519,61.0103 99.7186,59.8437 104.5,59C 110.188,56.7911 115.188,53.6245 119.5,49.5 Z"/></g>
<g><path style="opacity:1" fill="#976448" d="M 109.5,64.5 C 109.5,65.5 109.5,66.5 109.5,67.5C 111.509,70.3649 113.842,73.0316 116.5,75.5C 112.833,76.8333 109.167,76.8333 105.5,75.5C 105.5,74.1667 105.5,72.8333 105.5,71.5C 105.158,70.6618 104.492,70.3284 103.5,70.5C 103.5,69.1667 103.5,67.8333 103.5,66.5C 101.585,66.2155 99.9187,66.5489 98.5,67.5C 97.8333,70.1667 97.1667,72.8333 96.5,75.5C 93.5677,74.2003 91.2344,72.2003 89.5,69.5C 89.5,68.1667 89.5,66.8333 89.5,65.5C 96.239,65.8444 102.739,64.8444 109,62.5C 109.464,63.0944 109.631,63.7611 109.5,64.5 Z"/></g>
<g><path style="opacity:1" fill="#eeab39" d="M 125.5,62.5 C 125.316,65.1731 124.149,65.8398 122,64.5C 118.199,66.6964 114.033,67.6964 109.5,67.5C 109.5,66.5 109.5,65.5 109.5,64.5C 114.799,63.7834 120.133,63.1167 125.5,62.5 Z"/></g>
<g><path style="opacity:1" fill="#000000" d="M 98.5,67.5 C 99.9187,66.5489 101.585,66.2155 103.5,66.5C 103.5,67.8333 103.5,69.1667 103.5,70.5C 100.592,69.8407 100.258,69.0074 102.5,68C 101.207,67.51 99.8734,67.3433 98.5,67.5 Z"/></g>
<g><path style="opacity:1" fill="#e2c98b" d="M 125.5,72.5 C 123.766,76.5379 120.766,77.5379 116.5,75.5C 113.842,73.0316 111.509,70.3649 109.5,67.5C 114.033,67.6964 118.199,66.6964 122,64.5C 124.149,65.8398 125.316,65.1731 125.5,62.5C 126.735,61.9507 127.735,62.6173 128.5,64.5C 126.453,66.0152 124.119,66.8485 121.5,67C 124.417,67.6622 125.75,69.4955 125.5,72.5 Z"/></g>
<g><path style="opacity:1" fill="#b6b6b6" d="M 89.5,69.5 C 91.2344,72.2003 93.5677,74.2003 96.5,75.5C 97.1667,75.5 97.5,75.8333 97.5,76.5C 96.6522,77.625 95.6522,77.625 94.5,76.5C 91.8908,75.5569 89.8908,73.8903 88.5,71.5C 87.5876,70.2618 87.4209,68.9285 88,67.5C 88.2784,68.4158 88.7784,69.0825 89.5,69.5 Z"/></g>
<g><path style="opacity:1" fill="#c8a162" d="M 98.5,67.5 C 99.8734,67.3433 101.207,67.51 102.5,68C 100.258,69.0074 100.592,69.8407 103.5,70.5C 103.082,71.2216 102.416,71.7216 101.5,72C 103.077,73.93 104.41,73.7633 105.5,71.5C 105.5,72.8333 105.5,74.1667 105.5,75.5C 103.078,77.6502 100.411,77.9835 97.5,76.5C 97.5,75.8333 97.1667,75.5 96.5,75.5C 97.1667,72.8333 97.8333,70.1667 98.5,67.5 Z"/></g>
<g><path style="opacity:1" fill="#000000" d="M 103.5,70.5 C 104.492,70.3284 105.158,70.6618 105.5,71.5C 104.41,73.7633 103.077,73.93 101.5,72C 102.416,71.7216 103.082,71.2216 103.5,70.5 Z"/></g>
<g><path style="opacity:1" fill="#fed609" d="M 88.5,71.5 C 89.8908,73.8903 91.8908,75.5569 94.5,76.5C 93.0813,77.4511 91.4147,77.7845 89.5,77.5C 88.4884,76.1283 87.4884,74.795 86.5,73.5C 86.8333,72.5 87.5,71.8333 88.5,71.5 Z"/></g>
<g><path style="opacity:1" fill="#fefffe" d="M 130.5,74.5 C 129.733,73.828 129.066,72.9947 128.5,72C 133.539,71.4782 134.205,72.3115 130.5,74.5 Z"/></g>
<g><path style="opacity:1" fill="#aa1f13" d="M 125.5,72.5 C 127.332,73.1405 127.665,74.1405 126.5,75.5C 125.614,74.675 125.281,73.675 125.5,72.5 Z"/></g>
<g><path style="opacity:1" fill="#7e7f7e" d="M 337.5,72.5 C 346.506,72.3336 355.506,72.5002 364.5,73C 343.159,74.2969 321.825,75.2969 300.5,76C 302.384,75.7837 304.051,75.117 305.5,74C 316.341,73.8304 327.008,73.3304 337.5,72.5 Z"/></g>
<g><path style="opacity:1" fill="#841d12" d="M 86.5,73.5 C 87.4884,74.795 88.4884,76.1283 89.5,77.5C 89.44,78.0431 89.1067,78.3764 88.5,78.5C 86.5487,76.3776 84.2154,74.8776 81.5,74C 83.1341,73.5065 84.8008,73.3398 86.5,73.5 Z"/></g>
<g><path style="opacity:1" fill="#7e7f7e" d="M 184.5,74.5 C 222.664,73.3355 260.998,73.1688 299.5,74C 272.648,75.4924 245.648,76.3258 218.5,76.5C 206.907,76.3226 195.573,75.6559 184.5,74.5 Z"/></g>
<g><path style="opacity:1" fill="#f4d995" d="M 130.5,74.5 C 132.698,74.1201 134.365,74.7868 135.5,76.5C 133.727,77.3143 133.227,78.6476 134,80.5C 136.111,84.4464 139.278,87.113 143.5,88.5C 144.833,89.8333 144.833,91.1667 143.5,92.5C 141.518,95.1367 138.852,96.47 135.5,96.5C 132.721,96.7214 130.054,96.388 127.5,95.5C 125.464,94.3738 124.13,92.7071 123.5,90.5C 123.5,89.1667 122.833,88.5 121.5,88.5C 121.737,87.209 121.404,86.209 120.5,85.5C 120.5,85.1667 120.5,84.8333 120.5,84.5C 120.5,83.1667 120.5,81.8333 120.5,80.5C 121.167,80.5 121.5,80.1667 121.5,79.5C 124.887,78.3846 127.887,76.7179 130.5,74.5 Z"/></g>
<g><path style="opacity:1" fill="#fee39b" d="M 181.5,74.5 C 183.371,74.8588 184.871,75.8588 186,77.5C 186.278,81.1939 186.278,84.8606 186,88.5C 187.102,84.5841 187.769,80.5841 188,76.5C 188.414,76.0426 188.914,75.7093 189.5,75.5C 190.661,79.7953 190.828,84.1287 190,88.5C 189.5,89 189,89.5 188.5,90C 182.461,91.6732 176.461,93.5065 170.5,95.5C 167.813,95.1592 165.813,93.8258 164.5,91.5C 169.714,88.7751 172.214,84.4417 172,78.5C 173.011,77.6634 174.178,77.33 175.5,77.5C 175.405,81.2246 175.238,84.8913 175,88.5C 176.367,84.3004 176.867,79.9671 176.5,75.5C 177.5,75.5 178.5,75.5 179.5,75.5C 180.551,79.8259 180.718,84.1592 180,88.5C 181.462,83.7897 181.962,79.123 181.5,74.5 Z"/></g>
<g><path style="opacity:1" fill="#fefffe" d="M 75.5,75.5 C 80.1977,75.0595 83.8644,76.7262 86.5,80.5C 82.2624,82.481 77.9291,84.3143 73.5,86C 67.8803,87.3855 66.3803,85.5522 69,80.5C 70.9651,78.4497 73.1318,76.783 75.5,75.5 Z"/></g>
<g><path style="opacity:1" fill="#6a422d" d="M 135.5,76.5 C 138.276,76.0889 138.943,76.9223 137.5,79C 138.101,80.605 139.101,81.9384 140.5,83C 147.044,85.807 153.71,86.1403 160.5,84C 162.155,82.5557 162.822,80.7224 162.5,78.5C 164.833,78.5 167.167,78.5 169.5,78.5C 169.5,80.5 169.5,82.5 169.5,84.5C 160.699,85.4429 152.032,86.7762 143.5,88.5C 139.278,87.113 136.111,84.4464 134,80.5C 133.227,78.6476 133.727,77.3143 135.5,76.5 Z"/></g>
<g><path style="opacity:1" fill="#717171" d="M 143.5,73.5 C 145.167,73.5 146.833,73.5 148.5,73.5C 148.34,75.1992 148.506,76.8659 149,78.5C 149.75,77.8742 150.584,77.3742 151.5,77C 150.027,76.2904 149.36,75.1238 149.5,73.5C 159.741,73.5371 170.075,73.7037 180.5,74C 173.313,75.9243 165.98,76.9243 158.5,77C 159.062,78.5653 159.562,80.3986 160,82.5C 153.708,84.0175 147.542,83.5175 141.5,81C 140.833,80.3333 140.167,79.6667 139.5,79C 141.464,77.549 142.797,75.7157 143.5,73.5 Z"/></g>
<g><path style="opacity:1" fill="#774a31" d="M 246.5,77.5 C 263.513,77.1672 280.513,77.5005 297.5,78.5C 297.167,79.1667 296.833,79.8333 296.5,80.5C 284.537,81.997 272.537,83.1637 260.5,84C 237.836,84.5 215.169,84.6666 192.5,84.5C 192.5,82.5 192.5,80.5 192.5,78.5C 210.674,78.8301 228.674,78.4968 246.5,77.5 Z"/></g>
<g><path style="opacity:1" fill="#774931" d="M 121.5,79.5 C 121.5,80.1667 121.167,80.5 120.5,80.5C 111.984,82.4469 103.484,84.4469 95,86.5C 92.9261,84.5479 90.7594,82.7146 88.5,81C 96.5548,79.5304 104.721,78.697 113,78.5C 116.021,78.5022 118.854,78.8356 121.5,79.5 Z"/></g>
<g><path style="opacity:1" fill="#fed609" d="M 117.5,84.5 C 114.572,84.5651 111.905,85.2318 109.5,86.5C 108.167,86.5 106.833,86.5 105.5,86.5C 109.887,84.4033 114.554,83.2366 119.5,83C 118.584,83.2784 117.918,83.7784 117.5,84.5 Z"/></g>
<g><path style="opacity:1" fill="#e52708" d="M 94.5,88.5 C 97.0546,91.9223 96.0546,94.4223 91.5,96C 92.3333,96.8333 93.1667,97.6667 94,98.5C 96.305,95.3595 98.805,92.3595 101.5,89.5C 103.708,90.8936 105.208,92.8936 106,95.5C 107.175,100.184 107.341,104.85 106.5,109.5C 100.203,112.741 93.5363,114.741 86.5,115.5C 84.1105,113.391 81.2772,111.724 78,110.5C 77.2873,107.525 78.1207,105.025 80.5,103C 78.9555,101.631 77.2888,101.798 75.5,103.5C 74.5435,105.075 73.8769,106.742 73.5,108.5C 71.1097,107.109 69.4431,105.109 68.5,102.5C 72.5754,100.137 76.242,97.3034 79.5,94C 75.766,93.86 72.0993,94.36 68.5,95.5C 68.3433,94.1266 68.51,92.7932 69,91.5C 70.5185,90.8366 71.6851,89.8366 72.5,88.5C 77.169,86.4549 82.0024,84.7882 87,83.5C 88.6255,84.2887 90.1255,85.2887 91.5,86.5C 86.6424,89.5483 84.4758,93.8817 85,99.5C 86.3333,96.8333 87.6667,94.1667 89,91.5C 90.2635,89.393 92.0968,88.393 94.5,88.5 Z"/></g>
<g><path style="opacity:1" fill="#898989" d="M 117.5,84.5 C 118.5,84.5 119.5,84.5 120.5,84.5C 120.5,84.8333 120.5,85.1667 120.5,85.5C 117.203,87.6013 113.537,88.9347 109.5,89.5C 108.391,89.4431 107.391,89.1098 106.5,88.5C 107.5,87.8333 108.5,87.1667 109.5,86.5C 111.905,85.2318 114.572,84.5651 117.5,84.5 Z"/></g>
<g><path style="opacity:1" fill="#fed609" d="M 120.5,85.5 C 121.404,86.209 121.737,87.209 121.5,88.5C 117.098,88.9264 113.098,90.2597 109.5,92.5C 108.375,91.6522 108.375,90.6522 109.5,89.5C 113.537,88.9347 117.203,87.6013 120.5,85.5 Z"/></g>
<g><path style="opacity:1" fill="#fefffe" d="M 261.5,85.5 C 264.85,85.335 268.183,85.5017 271.5,86C 266.587,86.3015 261.754,87.1348 257,88.5C 255.833,88.1667 254.667,87.8333 253.5,87.5C 256.306,86.8324 258.972,86.1657 261.5,85.5 Z"/></g>
<g><path style="opacity:1" fill="#fefffe" d="M 105.5,86.5 C 105.328,87.4916 105.662,88.1583 106.5,88.5C 107.462,92.3948 108.796,96.0615 110.5,99.5C 110.665,102.518 110.498,105.518 110,108.5C 109.528,100.935 107.361,93.9349 103.5,87.5C 103.957,86.7025 104.624,86.3691 105.5,86.5 Z"/></g>
<g><path style="opacity:1" fill="#000000" d="M 105.5,86.5 C 106.833,86.5 108.167,86.5 109.5,86.5C 108.5,87.1667 107.5,87.8333 106.5,88.5C 105.662,88.1583 105.328,87.4916 105.5,86.5 Z"/></g>
<g><path style="opacity:1" fill="#fefffe" d="M 162.5,86.5 C 164.527,86.3379 166.527,86.5045 168.5,87C 168.167,87.3333 167.833,87.6667 167.5,88C 161.833,88.6667 156.167,88.6667 150.5,88C 154.688,87.8238 158.688,87.3238 162.5,86.5 Z"/></g>
<g><path style="opacity:1" fill="#fefffe" d="M 193.5,87.5 C 210.338,86.173 227.338,86.173 244.5,87.5C 227.547,87.6451 210.547,87.6451 193.5,87.5 Z"/></g>
<g><path style="opacity:1" fill="#aa1f13" d="M 72.5,88.5 C 71.6851,89.8366 70.5185,90.8366 69,91.5C 68.51,92.7932 68.3433,94.1266 68.5,95.5C 72.0993,94.36 75.766,93.86 79.5,94C 76.242,97.3034 72.5754,100.137 68.5,102.5C 66.0412,101.126 65.0412,98.9595 65.5,96C 65.6368,93.102 66.1368,90.2686 67,87.5C 68.6995,88.4061 70.5328,88.7394 72.5,88.5 Z"/></g>
<g><path style="opacity:1" fill="#aa1f13" d="M 101.5,89.5 C 98.805,92.3595 96.305,95.3595 94,98.5C 93.1667,97.6667 92.3333,96.8333 91.5,96C 96.0546,94.4223 97.0546,91.9223 94.5,88.5C 95.9672,88.1062 97.4672,87.7728 99,87.5C 100.376,87.6842 101.209,88.3509 101.5,89.5 Z"/></g>
<g><path style="opacity:1" fill="#000000" d="M 106.5,88.5 C 107.391,89.1098 108.391,89.4431 109.5,89.5C 108.375,90.6522 108.375,91.6522 109.5,92.5C 109.5,93.5 109.5,94.5 109.5,95.5C 110.5,95.5 111.5,95.5 112.5,95.5C 111.194,96.4674 110.527,97.8007 110.5,99.5C 108.796,96.0615 107.462,92.3948 106.5,88.5 Z"/></g>
<g><path style="opacity:1" fill="#838383" d="M 121.5,88.5 C 122.833,88.5 123.5,89.1667 123.5,90.5C 122.833,91.1667 122.167,91.8333 121.5,92.5C 118.854,94.2525 115.854,95.2525 112.5,95.5C 111.5,95.5 110.5,95.5 109.5,95.5C 109.5,94.5 109.5,93.5 109.5,92.5C 113.098,90.2597 117.098,88.9264 121.5,88.5 Z"/></g>
<g><path style="opacity:1" fill="#8d8d8d" d="M 158.5,91.5 C 158.335,94.5184 158.502,97.5184 159,100.5C 161.441,103.454 164.275,105.787 167.5,107.5C 167.027,108.906 166.027,109.573 164.5,109.5C 160.251,107.912 156.918,105.245 154.5,101.5C 154.19,98.2869 154.523,95.2869 155.5,92.5C 156.151,91.9094 156.818,91.2427 157.5,90.5C 158.107,90.6236 158.44,90.9569 158.5,91.5 Z"/></g>
<g><path style="opacity:1" fill="#fed609" d="M 167.5,107.5 C 164.275,105.787 161.441,103.454 159,100.5C 158.502,97.5184 158.335,94.5184 158.5,91.5C 159.708,90.7659 161.041,90.4326 162.5,90.5C 163.921,96.2178 167.588,98.3845 173.5,97C 181.175,93.131 182.509,94.7977 177.5,102C 174.273,104.112 170.94,105.945 167.5,107.5 Z"/></g>
<g><path style="opacity:1" fill="#a61f13" d="M 155.5,92.5 C 154.523,95.2869 154.19,98.2869 154.5,101.5C 153.824,103.859 152.991,106.192 152,108.5C 150.989,109.337 149.822,109.67 148.5,109.5C 147.9,106.001 147.234,102.501 146.5,99C 146.613,96.6013 147.613,94.7679 149.5,93.5C 151.138,92.8411 152.805,92.1744 154.5,91.5C 155.107,91.6236 155.44,91.9569 155.5,92.5 Z"/></g>
<g><path style="opacity:1" fill="#fed609" d="M 121.5,92.5 C 122.497,92.4701 123.164,92.9701 123.5,94C 122.944,95.0111 122.278,95.8444 121.5,96.5C 117.835,96.5018 114.835,97.8352 112.5,100.5C 111.833,100.167 111.167,99.8333 110.5,99.5C 110.527,97.8007 111.194,96.4674 112.5,95.5C 115.854,95.2525 118.854,94.2525 121.5,92.5 Z"/></g>
<g><path style="opacity:1" fill="#e32709" d="M 143.5,92.5 C 145.735,92.2053 147.735,92.5386 149.5,93.5C 147.613,94.7679 146.613,96.6013 146.5,99C 147.234,102.501 147.9,106.001 148.5,109.5C 149.822,109.67 150.989,109.337 152,108.5C 152.991,106.192 153.824,103.859 154.5,101.5C 156.918,105.245 160.251,107.912 164.5,109.5C 159.192,113.499 153.525,114.499 147.5,112.5C 144.892,107.505 143.392,102.172 143,96.5C 141.563,100.972 141.063,105.639 141.5,110.5C 138.194,108.511 134.861,106.511 131.5,104.5C 130.526,102.257 130.192,99.924 130.5,97.5C 132.415,97.7845 134.081,97.4511 135.5,96.5C 138.852,96.47 141.518,95.1367 143.5,92.5 Z"/></g>
<g><path style="opacity:1" fill="#a61f13" d="M 127.5,95.5 C 127.666,100.179 127.499,104.845 127,109.5C 126.721,112.457 125.887,115.123 124.5,117.5C 123.833,117.5 123.5,117.167 123.5,116.5C 123.804,115.85 124.137,115.183 124.5,114.5C 123.123,112.435 121.79,110.435 120.5,108.5C 121.531,107.751 122.698,107.085 124,106.5C 124.499,102.848 124.665,99.1817 124.5,95.5C 125.5,95.5 126.5,95.5 127.5,95.5 Z"/></g>
<g><path style="opacity:1" fill="#8b8b8b" d="M 121.5,96.5 C 122.434,97.5676 122.768,98.901 122.5,100.5C 121.209,100.263 120.209,100.596 119.5,101.5C 117.78,102.864 115.78,103.864 113.5,104.5C 112.893,104.376 112.56,104.043 112.5,103.5C 112.5,102.5 112.5,101.5 112.5,100.5C 114.835,97.8352 117.835,96.5018 121.5,96.5 Z"/></g>
<g><path style="opacity:1" fill="#aa1f13" d="M 147.5,112.5 C 145.579,111.637 143.579,110.971 141.5,110.5C 141.063,105.639 141.563,100.972 143,96.5C 143.392,102.172 144.892,107.505 147.5,112.5 Z"/></g>
<g><path style="opacity:1" fill="#aa1f13" d="M 86.5,115.5 C 82.5942,115.106 78.9276,113.94 75.5,112C 74.1772,111.184 73.5106,110.017 73.5,108.5C 73.8769,106.742 74.5435,105.075 75.5,103.5C 77.2888,101.798 78.9555,101.631 80.5,103C 78.1207,105.025 77.2873,107.525 78,110.5C 81.2772,111.724 84.1105,113.391 86.5,115.5 Z"/></g>
<g><path style="opacity:1" fill="#fed609" d="M 119.5,101.5 C 122.925,101.367 123.258,102.033 120.5,103.5C 117.843,103.935 115.509,104.935 113.5,106.5C 111.618,105.779 111.285,104.779 112.5,103.5C 112.56,104.043 112.893,104.376 113.5,104.5C 115.78,103.864 117.78,102.864 119.5,101.5 Z"/></g>
<g><path style="opacity:1" fill="#e62807" d="M 82.5,117.5 C 77.7728,120.897 74.1061,125.231 71.5,130.5C 70.8783,131.627 70.045,132.627 69,133.5C 67.7146,123.488 66.7146,113.488 66,103.5C 68.8333,107 71.6667,110.5 74.5,114C 77.1579,115.478 79.8245,116.645 82.5,117.5 Z"/></g>
<g><path style="opacity:1" fill="#a7a7a7" d="M 120.5,103.5 C 122.705,103.846 122.872,104.513 121,105.5C 119,106.167 117,106.833 115,107.5C 114.235,107.43 113.735,107.097 113.5,106.5C 115.509,104.935 117.843,103.935 120.5,103.5 Z"/></g>
<g><path style="opacity:1" fill="#757575" d="M 120.5,108.5 C 121.79,110.435 123.123,112.435 124.5,114.5C 124.137,115.183 123.804,115.85 123.5,116.5C 121.529,114.192 119.529,111.858 117.5,109.5C 118.209,108.596 119.209,108.263 120.5,108.5 Z"/></g>
<g><path style="opacity:1" fill="#fec90d" d="M 112.5,109.5 C 113.799,111.153 113.466,112.653 111.5,114C 109.799,114.345 108.466,113.678 107.5,112C 109.175,111.015 110.842,110.181 112.5,109.5 Z"/></g>
<g><path style="opacity:1" fill="#fefffe" d="M 117.5,109.5 C 119.529,111.858 121.529,114.192 123.5,116.5C 123.5,117.167 123.833,117.5 124.5,117.5C 126.243,119.924 127.576,122.591 128.5,125.5C 123.715,121.709 119.381,116.876 115.5,111C 115.836,109.97 116.503,109.47 117.5,109.5 Z"/></g>
<g><path style="opacity:1" fill="#fefffe" d="M 104.5,112.5 C 105.627,113.122 106.627,113.955 107.5,115C 97.635,124.869 86.635,133.203 74.5,140C 71.6238,142.175 69.1238,144.675 67,147.5C 66.1698,141.653 68.0031,136.82 72.5,133C 82.4915,124.854 93.1582,118.021 104.5,112.5 Z"/></g>
<g><path style="opacity:1" fill="#fefffe" d="M 113.5,114.5 C 115.716,115.203 117.549,116.536 119,118.5C 121.333,121.5 123.667,124.5 126,127.5C 126.667,128.167 126.667,128.833 126,129.5C 121.599,124.607 117.432,119.607 113.5,114.5 Z"/></g>
<g><path style="opacity:1" fill="#fefffe" d="M 108.5,116.5 C 109.766,117.09 111.099,117.59 112.5,118C 110.537,118.844 109.204,118.344 108.5,116.5 Z"/></g>
<g><path style="opacity:1" fill="#aa1f13" d="M 82.5,117.5 C 84.8568,117.337 87.1902,117.503 89.5,118C 83.3261,122.022 77.3261,126.189 71.5,130.5C 74.1061,125.231 77.7728,120.897 82.5,117.5 Z"/></g>
<g><path style="opacity:1" fill="#b8b8b8" d="M 111.5,120.5 C 111.158,121.338 110.492,121.672 109.5,121.5C 108.115,120.698 108.282,120.031 110,119.5C 110.765,119.57 111.265,119.903 111.5,120.5 Z"/></g>
<g><path style="opacity:1" fill="#e4e4e4" d="M 111.5,120.5 C 112.873,120.343 114.207,120.51 115.5,121C 114.833,121.333 114.167,121.667 113.5,122C 114.833,122.333 116.167,122.667 117.5,123C 115.942,123.21 114.609,123.71 113.5,124.5C 112.167,124.5 110.833,124.5 109.5,124.5C 109.5,123.5 109.5,122.5 109.5,121.5C 110.492,121.672 111.158,121.338 111.5,120.5 Z"/></g>
<g><path style="opacity:1" fill="#fefffe" d="M 105.5,124.5 C 101.107,124.543 100.774,124.043 104.5,123C 103.304,122.346 103.304,121.846 104.5,121.5C 105.386,122.325 105.719,123.325 105.5,124.5 Z"/></g>
<g><path style="opacity:1" fill="#fefffe" d="M 105.5,124.5 C 106.833,125.5 106.833,126.5 105.5,127.5C 103.369,126.686 101.036,126.186 98.5,126C 101.036,125.814 103.369,125.314 105.5,124.5 Z"/></g>
<g><path style="opacity:1" fill="#adadad" d="M 109.5,124.5 C 111.438,126.163 113.772,126.829 116.5,126.5C 117.609,127.29 118.942,127.79 120.5,128C 119.207,128.49 117.873,128.657 116.5,128.5C 114.097,128.552 111.764,128.219 109.5,127.5C 108.167,126.5 108.167,125.5 109.5,124.5 Z"/></g>
<g><path style="opacity:1" fill="#000000" d="M 109.5,124.5 C 110.833,124.5 112.167,124.5 113.5,124.5C 114.5,125.167 115.5,125.833 116.5,126.5C 113.772,126.829 111.438,126.163 109.5,124.5 Z"/></g>
<g><path style="opacity:1" fill="#fefffe" d="M 105.5,127.5 C 105.5,128.5 105.5,129.5 105.5,130.5C 101.486,130.666 97.4862,130.499 93.5,130C 96.8333,129.667 100.167,129.333 103.5,129C 101.167,128.667 98.8333,128.333 96.5,128C 99.4816,127.502 102.482,127.335 105.5,127.5 Z"/></g>
<g><path style="opacity:1" fill="#fefffe" d="M 109.5,127.5 C 111.764,128.219 114.097,128.552 116.5,128.5C 114.393,129.468 112.059,129.802 109.5,129.5C 109.5,128.833 109.5,128.167 109.5,127.5 Z"/></g>
<g><path style="opacity:1" fill="#b8b8b8" d="M 109.5,129.5 C 110.5,130.167 111.5,130.833 112.5,131.5C 111.791,132.404 110.791,132.737 109.5,132.5C 108.167,131.5 108.167,130.5 109.5,129.5 Z"/></g>
<g><path style="opacity:1" fill="#aa1f13" d="M 105.5,130.5 C 106.043,130.56 106.376,130.893 106.5,131.5C 103.358,132.167 100.358,132.834 97.5,133.5C 94.8127,133.664 92.146,133.497 89.5,133C 90.1667,132.667 90.8333,132.333 91.5,132C 96.3514,131.826 101.018,131.326 105.5,130.5 Z"/></g>
<g><path style="opacity:1" fill="#fefffe" d="M 116.5,131.5 C 117.274,130.853 118.274,130.52 119.5,130.5C 121.03,130.64 122.03,131.307 122.5,132.5C 120.5,132.167 118.5,131.833 116.5,131.5 Z"/></g>
<g><path style="opacity:1" fill="#e12709" d="M 123.5,138.5 C 124.573,137.749 124.74,136.749 124,135.5C 123.023,134.226 122.189,134.226 121.5,135.5C 120.209,135.263 119.209,135.596 118.5,136.5C 115.572,136.565 112.905,137.232 110.5,138.5C 108.448,137.947 108.115,136.947 109.5,135.5C 109.917,136.124 110.584,136.457 111.5,136.5C 115.413,135.532 119.08,134.199 122.5,132.5C 123.222,132.082 123.722,131.416 124,130.5C 125.163,132.285 125.83,134.285 126,136.5C 130.933,137.089 133.266,139.756 133,144.5C 132.727,142.671 131.893,141.171 130.5,140C 127.964,139.814 125.631,139.314 123.5,138.5 Z"/></g>
<g><path style="opacity:1" fill="#777777" d="M 112.5,131.5 C 113.833,131.5 115.167,131.5 116.5,131.5C 118.5,131.833 120.5,132.167 122.5,132.5C 119.08,134.199 115.413,135.532 111.5,136.5C 110.584,136.457 109.917,136.124 109.5,135.5C 109.5,134.5 109.5,133.5 109.5,132.5C 110.791,132.737 111.791,132.404 112.5,131.5 Z"/></g>
<g><path style="opacity:1" fill="#9c9c9c" d="M 97.5,133.5 C 100.5,133.5 103.5,133.5 106.5,133.5C 106.5,134.5 106.5,135.5 106.5,136.5C 103.5,136.5 100.5,136.5 97.5,136.5C 94.8127,136.664 92.146,136.497 89.5,136C 92.3647,135.817 95.0314,135.317 97.5,134.5C 97.5,134.167 97.5,133.833 97.5,133.5 Z"/></g>
<g><path style="opacity:1" fill="#fefffe" d="M 97.5,134.5 C 95.0314,135.317 92.3647,135.817 89.5,136C 92.146,136.497 94.8127,136.664 97.5,136.5C 94.3752,137.479 91.0419,137.813 87.5,137.5C 87.5,136.5 87.5,135.5 87.5,134.5C 90.8333,134.5 94.1667,134.5 97.5,134.5 Z"/></g>
<g><path style="opacity:1" fill="#e62807" d="M 87.5,137.5 C 90.8333,138.167 94.1667,138.833 97.5,139.5C 93.9581,139.187 90.6248,139.521 87.5,140.5C 86.1667,141.5 86.1667,142.5 87.5,143.5C 89.631,144.314 91.9644,144.814 94.5,145C 85.3095,146.308 76.3095,147.975 67.5,150C 72.2687,144.23 77.9354,139.564 84.5,136C 85.788,135.761 86.788,136.261 87.5,137.5 Z"/></g>
<g><path style="opacity:1" fill="#000000" d="M 118.5,136.5 C 119.209,135.596 120.209,135.263 121.5,135.5C 123.031,136.925 122.698,137.591 120.5,137.5C 120.158,136.662 119.492,136.328 118.5,136.5 Z"/></g>
<g><path style="opacity:1" fill="#858585" d="M 123.5,138.5 C 121.958,139.301 120.292,139.634 118.5,139.5C 117.448,139.649 116.448,139.483 115.5,139C 117.154,138.392 118.821,137.892 120.5,137.5C 122.698,137.591 123.031,136.925 121.5,135.5C 122.189,134.226 123.023,134.226 124,135.5C 124.74,136.749 124.573,137.749 123.5,138.5 Z"/></g>
<g><path style="opacity:1" fill="#a6a6a6" d="M 118.5,136.5 C 119.492,136.328 120.158,136.662 120.5,137.5C 118.821,137.892 117.154,138.392 115.5,139C 116.448,139.483 117.448,139.649 118.5,139.5C 117.5,140.167 116.5,140.833 115.5,141.5C 114.209,141.263 113.209,141.596 112.5,142.5C 111.167,142.5 109.833,142.5 108.5,142.5C 108.527,140.801 109.194,139.467 110.5,138.5C 112.905,137.232 115.572,136.565 118.5,136.5 Z"/></g>
<g><path style="opacity:1" fill="#1d1e1d" d="M 64.5,138.5 C 64.3746,142.869 64.708,147.369 65.5,152C 63.1546,156.542 61.6546,161.375 61,166.5C 60.1612,167.624 58.9945,168.291 57.5,168.5C 55.4878,168.16 53.4878,167.827 51.5,167.5C 50.5086,162.424 51.0086,157.424 53,152.5C 56.2898,147.378 60.1231,142.711 64.5,138.5 Z"/></g>
<g><path style="opacity:1" fill="#7f7f7f" d="M 87.5,140.5 C 90.6248,139.521 93.9581,139.187 97.5,139.5C 100.5,139.5 103.5,139.5 106.5,139.5C 106.5,140.5 106.5,141.5 106.5,142.5C 103.5,142.5 100.5,142.5 97.5,142.5C 86.8539,142.329 86.8539,141.829 97.5,141C 94.1832,140.502 90.8499,140.335 87.5,140.5 Z"/></g>
<g><path style="opacity:1" fill="#e0e0e0" d="M 87.5,140.5 C 90.8499,140.335 94.1832,140.502 97.5,141C 86.8539,141.829 86.8539,142.329 97.5,142.5C 94.3752,143.479 91.0419,143.813 87.5,143.5C 86.1667,142.5 86.1667,141.5 87.5,140.5 Z"/></g>
<g><path style="opacity:1" fill="#821d12" d="M 115.5,141.5 C 118.598,141.413 118.932,141.913 116.5,143C 114.934,143.765 113.601,143.598 112.5,142.5C 113.209,141.596 114.209,141.263 115.5,141.5 Z"/></g>
<g><path style="opacity:1" fill="#fefffe" d="M 132.5,147.5 C 130.967,145.645 129.3,143.812 127.5,142C 130.596,142.27 132.263,144.103 132.5,147.5 Z"/></g>
<g><path style="opacity:1" fill="#4d4d4c" d="M 114.5,187.5 C 113.588,186.262 113.421,184.928 114,183.5C 125.308,189.079 136.808,193.912 148.5,198C 135.833,190.333 123.167,182.667 110.5,175C 117.576,170.594 124.076,165.428 130,159.5C 130.667,158.833 130.667,158.167 130,157.5C 124.714,161.894 118.881,165.394 112.5,168C 105.745,168.444 99.078,168.111 92.5,167C 96.182,171.341 100.849,173.841 106.5,174.5C 102.779,186.162 98.9461,197.829 95,209.5C 93.1505,218.223 91.3172,226.889 89.5,235.5C 88.5,235.5 87.5,235.5 86.5,235.5C 84.4895,245.406 82.9895,255.406 82,265.5C 81.1923,270.641 78.1923,273.308 73,273.5C 68.1082,272.492 63.2749,271.325 58.5,270C 57.9415,269.275 57.6082,268.442 57.5,267.5C 58.4601,258.854 59.2935,250.187 60,241.5C 61.8237,233.216 63.3237,224.882 64.5,216.5C 66.513,218.497 68.8463,220.164 71.5,221.5C 71.8333,221.167 72.1667,220.833 72.5,220.5C 74.125,211.836 76.4583,203.336 79.5,195C 78.4585,192.277 76.9585,189.777 75,187.5C 73.6703,186.418 72.1703,185.751 70.5,185.5C 69.6038,176.725 70.4371,168.058 73,159.5C 76.387,155.554 80.5537,152.72 85.5,151C 92.1917,149.562 98.8583,148.062 105.5,146.5C 106.776,151.682 107.443,151.682 107.5,146.5C 112.167,145.833 116.833,145.167 121.5,144.5C 121.34,146.199 121.506,147.866 122,149.5C 122.183,142.998 124.516,141.998 129,146.5C 135.431,166.362 144.764,184.696 157,201.5C 160.784,208.851 163.784,216.518 166,224.5C 171.576,235.151 176.743,245.985 181.5,257C 180.132,258.873 178.466,260.54 176.5,262C 170.821,265.06 164.821,267.226 158.5,268.5C 152.699,253.907 147.199,239.241 142,224.5C 137.906,221.984 135.573,218.317 135,213.5C 127.928,205.024 121.095,196.357 114.5,187.5 Z"/></g>
<g><path style="opacity:1" fill="#fefffe" d="M 132.5,147.5 C 133.649,147.791 134.316,148.624 134.5,150C 134.333,150.833 134.167,151.667 134,152.5C 132.991,150.975 132.491,149.308 132.5,147.5 Z"/></g>
<g><path style="opacity:1" fill="#fefffe" d="M 82.5,148.5 C 84.3786,148.393 84.7119,148.893 83.5,150C 78.2591,151.239 74.0925,154.072 71,158.5C 69.0693,165.708 67.9026,173.042 67.5,180.5C 65.8333,180.5 64.1667,180.5 62.5,180.5C 61.8952,171.526 63.2285,162.859 66.5,154.5C 67.5,153.667 68.5,152.833 69.5,152C 73.9191,150.648 78.2524,149.481 82.5,148.5 Z"/></g>
<g><path style="opacity:1" fill="#3b3c36" d="M 114.5,187.5 C 114.565,187.938 114.399,188.272 114,188.5C 112.333,186.5 110.667,184.5 109,182.5C 109.374,180.231 109.374,177.898 109,175.5C 108.329,174.748 107.496,174.414 106.5,174.5C 100.849,173.841 96.182,171.341 92.5,167C 99.078,168.111 105.745,168.444 112.5,168C 118.881,165.394 124.714,161.894 130,157.5C 130.667,158.167 130.667,158.833 130,159.5C 124.076,165.428 117.576,170.594 110.5,175C 123.167,182.667 135.833,190.333 148.5,198C 136.808,193.912 125.308,189.079 114,183.5C 113.421,184.928 113.588,186.262 114.5,187.5 Z"/></g>
<g><path style="opacity:1" fill="#3b3c36" d="M 70.5,185.5 C 72.1703,185.751 73.6703,186.418 75,187.5C 76.9585,189.777 78.4585,192.277 79.5,195C 76.4583,203.336 74.125,211.836 72.5,220.5C 72.1667,220.833 71.8333,221.167 71.5,221.5C 68.8463,220.164 66.513,218.497 64.5,216.5C 68.1588,206.513 70.1588,196.18 70.5,185.5 Z"/></g>
<g><path style="opacity:1" fill="#272827" d="M 179.5,261.5 C 182.891,264.385 186.224,267.552 189.5,271C 188.449,272.385 187.116,273.385 185.5,274C 178.167,274.667 170.833,274.667 163.5,274C 161.963,272.89 161.297,271.39 161.5,269.5C 168.542,268.94 174.542,266.273 179.5,261.5 Z"/></g>
<g><path style="opacity:1" fill="#272827" d="M 59.5,273.5 C 63.8636,273.906 68.1969,274.572 72.5,275.5C 74.5122,275.16 76.5122,274.827 78.5,274.5C 78.1089,278.921 75.6089,280.587 71,279.5C 67.2543,279.675 63.7543,278.842 60.5,277C 59.6634,275.989 59.33,274.822 59.5,273.5 Z"/></g>
</svg>
