<?xml version="1.0" encoding="UTF-8"?>
<!DOCTYPE svg PUBLIC "-//W3C//DTD SVG 1.1//EN" "http://www.w3.org/Graphics/SVG/1.1/DTD/svg11.dtd">
<svg xmlns="http://www.w3.org/2000/svg" version="1.1" width="594px" height="648px" style="shape-rendering:geometricPrecision; text-rendering:geometricPrecision; image-rendering:optimizeQuality; fill-rule:evenodd; clip-rule:evenodd" xmlns:xlink="http://www.w3.org/1999/xlink">
<g><path style="opacity:1" fill="#fefffe" d="M 222.5,20.5 C 226.182,20.3347 229.848,20.5014 233.5,21C 234.5,22 235.5,23 236.5,24C 240.5,25.3333 244.5,26.6667 248.5,28C 251.896,29.71 253.396,32.5433 253,36.5C 253.75,35.8742 254.584,35.3742 255.5,35C 262.414,34.1888 269.248,34.3555 276,35.5C 276.921,42.475 277.588,49.475 278,56.5C 279.333,57.1667 280.667,57.8333 282,58.5C 282.667,63.5 282.667,68.5 282,73.5C 281.311,74.3567 280.478,75.0233 279.5,75.5C 278.509,79.4454 278.176,83.4454 278.5,87.5C 282.505,87.5565 286.005,88.8899 289,91.5C 289.667,97.1667 289.667,102.833 289,108.5C 287.556,110.155 285.722,110.822 283.5,110.5C 283.5,113.5 283.5,116.5 283.5,119.5C 282.167,119.5 280.833,119.5 279.5,119.5C 279.322,122.322 278.655,124.989 277.5,127.5C 277.833,128.5 278.167,129.5 278.5,130.5C 280.382,131.093 282.215,131.76 284,132.5C 290.333,141.5 296.667,150.5 303,159.5C 304.786,164.952 307.786,169.618 312,173.5C 313.602,165.295 316.602,157.628 321,150.5C 324.866,147.665 328.366,144.498 331.5,141C 326.1,134.097 324.1,126.264 325.5,117.5C 332.189,117.695 338.856,117.862 345.5,118C 349.196,113.642 353.53,109.975 358.5,107C 367.833,106.333 377.167,106.333 386.5,107C 388.081,107.707 389.581,108.54 391,109.5C 391.772,113.89 391.606,118.223 390.5,122.5C 405.811,125.956 421.311,126.956 437,125.5C 447.569,125.859 458.069,126.693 468.5,128C 472.895,130.473 475.062,134.306 475,139.5C 479.974,143.464 482.808,148.464 483.5,154.5C 484.472,159.101 482.972,162.434 479,164.5C 478.828,169.202 478.328,173.868 477.5,178.5C 472.894,181.402 467.894,183.235 462.5,184C 453,192.833 443.5,201.667 434,210.5C 429.503,226.16 422.837,240.826 414,254.5C 409.167,259.333 404.333,264.167 399.5,269C 400.382,279.771 401.215,290.605 402,301.5C 408.241,314.321 415.241,326.654 423,338.5C 424.384,347.464 424.717,356.464 424,365.5C 421.935,368.96 420.435,372.626 419.5,376.5C 423.937,400.391 427.77,424.391 431,448.5C 434.181,454.527 436.514,460.86 438,467.5C 440.245,479.13 442.245,490.797 444,502.5C 450.18,514.197 455.847,526.197 461,538.5C 462.333,541.167 464.333,543.167 467,544.5C 469.316,550.772 473.316,555.772 479,559.5C 479.667,563.167 479.667,566.833 479,570.5C 478.5,571.667 477.667,572.5 476.5,573C 467.994,573.395 459.494,573.895 451,574.5C 444.737,575.602 440.57,573.268 438.5,567.5C 437.086,566.376 435.586,565.376 434,564.5C 433.207,560.577 433.374,556.744 434.5,553C 433.257,551.846 432.257,550.512 431.5,549C 426.937,548.298 423.77,545.798 422,541.5C 419.406,530.386 416.406,519.386 413,508.5C 410.861,502.888 408.194,497.554 405,492.5C 399.5,498.667 394,504.833 388.5,511C 378.083,512.795 367.583,513.629 357,513.5C 345.801,513.257 334.634,512.59 323.5,511.5C 323.335,507.818 323.501,504.152 324,500.5C 329.167,491.333 336.333,484.167 345.5,479C 346.743,477.846 347.743,476.512 348.5,475C 354.5,474.333 360.5,474.333 366.5,475C 367.333,475.833 368.167,476.667 369,477.5C 377.055,474.111 383.222,468.611 387.5,461C 384.87,457.368 381.87,454.035 378.5,451C 362.849,439.338 345.849,430.005 327.5,423C 326.214,420.978 325.214,418.811 324.5,416.5C 307.857,415.235 291.19,414.402 274.5,414C 269.891,413.534 265.391,412.7 261,411.5C 260.55,413.519 259.717,415.352 258.5,417C 246.233,419.624 235.233,417.124 225.5,409.5C 214.116,419.716 203.616,430.716 194,442.5C 194.112,448.854 194.779,455.187 196,461.5C 205.028,468.098 214.861,473.265 225.5,477C 230.628,482.747 234.628,489.247 237.5,496.5C 239.781,497.277 241.948,498.277 244,499.5C 244.333,502.167 244.667,504.833 245,507.5C 250.322,517.244 251.822,527.578 249.5,538.5C 235.98,543.66 223.313,542.16 211.5,534C 209.393,532.736 208.393,530.903 208.5,528.5C 202.606,529.892 198.94,527.726 197.5,522C 194.623,520.873 191.623,520.206 188.5,520C 187.333,518.833 186.167,517.667 185,516.5C 180.689,507.229 176.189,498.062 171.5,489C 160.266,483.364 148.599,478.697 136.5,475C 128.881,468.987 126.381,461.153 129,451.5C 138.109,438.634 142.442,424.301 142,408.5C 135.719,399.218 129.052,390.218 122,381.5C 110.622,364.863 106.622,346.529 110,326.5C 103.889,336.604 100.722,347.604 100.5,359.5C 89.5188,361.74 78.5188,361.907 67.5,360C 66.4147,357.828 65.0814,355.828 63.5,354C 59.0806,351.373 54.5806,348.873 50,346.5C 49.9209,342.642 49.2542,338.976 48,335.5C 47.3333,330.5 47.3333,325.5 48,320.5C 52.2741,315.438 57.1074,310.938 62.5,307C 56.2282,304.738 51.0615,300.905 47,295.5C 46.1735,291.459 46.3401,287.459 47.5,283.5C 61.4716,279.602 75.4716,279.602 89.5,283.5C 103.454,278.961 117.62,278.294 132,281.5C 133.167,281.333 134.333,281.167 135.5,281C 136.676,278.314 138.343,275.981 140.5,274C 145.475,273.668 150.308,273.501 155,273.5C 154.182,266.821 156.348,261.488 161.5,257.5C 161.958,253.352 163.458,249.685 166,246.5C 168.672,245.133 171.505,244.133 174.5,243.5C 167.62,236.722 161.453,229.389 156,221.5C 154.032,212.486 154.032,203.486 156,194.5C 163.947,182.886 172.281,171.552 181,160.5C 183.667,155.167 186.333,149.833 189,144.5C 190.826,142.926 192.993,142.093 195.5,142C 201.061,136.553 207.727,133.22 215.5,132C 217.506,127.993 218.673,123.827 219,119.5C 216.928,116.545 215.595,113.212 215,109.5C 212.43,108.991 210.097,107.991 208,106.5C 207.521,97.2833 206.687,88.1166 205.5,79C 205.667,75.8333 205.833,72.6667 206,69.5C 209.682,65.9848 213.182,62.3181 216.5,58.5C 214.718,54.5914 212.218,51.258 209,48.5C 208.178,41.3581 208.845,34.3581 211,27.5C 213.381,26.565 215.881,26.2317 218.5,26.5C 217.933,23.0886 219.266,21.0886 222.5,20.5 Z M 411.5,191.5 C 413.379,191.393 413.712,191.893 412.5,193C 405.917,197.543 399.083,201.71 392,205.5C 391.833,205.167 391.667,204.833 391.5,204.5C 395.255,202.912 398.255,200.412 400.5,197C 404.259,195.121 407.925,193.287 411.5,191.5 Z"/></g>
<g><path style="opacity:1" fill="#000000" d="M 224.5,22.5 C 228.596,21.7153 231.93,22.882 234.5,26C 238.5,27.3333 242.5,28.6667 246.5,30C 250.051,31.6771 251.384,34.5104 250.5,38.5C 255.362,37.1306 260.362,36.4639 265.5,36.5C 268.421,36.5235 271.254,36.8568 274,37.5C 274.921,44.475 275.588,51.475 276,58.5C 279.939,59.374 281.439,61.874 280.5,66C 281.008,69.2276 280.008,71.7276 277.5,73.5C 276.505,78.7921 276.172,84.1254 276.5,89.5C 287.18,90.3025 290.68,95.9692 287,106.5C 284.834,108.121 282.334,108.955 279.5,109C 281.179,111.565 281.846,114.398 281.5,117.5C 280.167,117.5 278.833,117.5 277.5,117.5C 276.368,120.679 275.701,124.012 275.5,127.5C 284.182,138.109 292.682,149.443 301,161.5C 303.996,168.155 307.996,174.155 313,179.5C 314.554,169.839 317.887,160.839 323,152.5C 324.938,149.894 327.438,148.061 330.5,147C 331.956,145.255 333.289,143.422 334.5,141.5C 329.352,135.055 327.018,127.722 327.5,119.5C 332.776,119.327 337.943,119.994 343,121.5C 345.245,120.863 347.412,120.03 349.5,119C 352.217,114.616 355.884,111.282 360.5,109C 368.5,108.333 376.5,108.333 384.5,109C 386.081,109.707 387.581,110.54 389,111.5C 389.651,116.293 389.151,120.96 387.5,125.5C 401.179,126.89 414.846,128.223 428.5,129.5C 431.125,128.031 433.958,127.365 437,127.5C 445.902,128.616 454.735,129.116 463.5,129C 470.038,130.545 473.205,134.711 473,141.5C 475.711,144.042 478.211,146.709 480.5,149.5C 481.657,152.784 481.824,156.118 481,159.5C 479.846,160.743 478.512,161.743 477,162.5C 476.828,167.202 476.328,171.868 475.5,176.5C 470.894,179.402 465.894,181.235 460.5,182C 451,190.833 441.5,199.667 432,208.5C 427.503,224.16 420.837,238.826 412,252.5C 406.372,257.451 401.538,262.951 397.5,269C 398.317,280.494 399.15,291.994 400,303.5C 406.241,316.321 413.241,328.654 421,340.5C 422.309,348.131 422.642,355.797 422,363.5C 419.89,367.386 418.057,371.386 416.5,375.5C 417.565,379.862 418.732,384.195 420,388.5C 422.908,409.187 425.908,429.854 429,450.5C 432.181,456.527 434.514,462.86 436,469.5C 438.245,481.13 440.245,492.797 442,504.5C 448.18,516.197 453.847,528.197 459,540.5C 460.333,543.167 462.333,545.167 465,546.5C 467.316,552.772 471.316,557.772 477,561.5C 477.667,563.833 477.667,566.167 477,568.5C 476.5,569.667 475.667,570.5 474.5,571C 466.654,571.325 458.821,571.825 451,572.5C 445.423,573.155 441.923,570.822 440.5,565.5C 435.047,562.571 434.047,558.404 437.5,553C 436.167,551 434.833,549 433.5,547C 428.937,546.298 425.77,543.798 424,539.5C 420.564,520.735 414.231,503.068 405,486.5C 399.589,494.582 393.422,502.082 386.5,509C 376.744,510.675 366.91,511.508 357,511.5C 346.48,511.068 335.98,510.401 325.5,509.5C 325.211,506.351 325.711,503.351 327,500.5C 332.214,492.285 339.048,485.785 347.5,481C 348.743,479.846 349.743,478.512 350.5,477C 355.167,476.333 359.833,476.333 364.5,477C 366.041,478.579 367.208,480.413 368,482.5C 373.667,478.167 379.333,473.833 385,469.5C 386.709,466.582 388.542,463.748 390.5,461C 387.92,456.416 384.587,452.416 380.5,449C 364.849,437.338 347.849,428.005 329.5,421C 328.214,418.978 327.214,416.811 326.5,414.5C 309.857,413.235 293.19,412.402 276.5,412C 270.506,411.056 264.506,410.223 258.5,409.5C 258.528,411.582 257.861,413.416 256.5,415C 251.5,415.667 246.5,415.667 241.5,415C 235.624,412.479 230.124,409.312 225,405.5C 213.268,416.563 202.268,428.229 192,440.5C 191.675,448.23 192.342,455.897 194,463.5C 203.028,470.098 212.861,475.265 223.5,479C 228.628,484.747 232.628,491.247 235.5,498.5C 237.781,499.277 239.948,500.277 242,501.5C 242.333,504.167 242.667,506.833 243,509.5C 248.171,517.893 249.671,526.893 247.5,536.5C 235.279,541.557 223.946,540.057 213.5,532C 211.393,530.736 210.393,528.903 210.5,526.5C 204.606,527.892 200.94,525.726 199.5,520C 196.623,518.873 193.623,518.206 190.5,518C 189.333,516.833 188.167,515.667 187,514.5C 182.689,505.229 178.189,496.062 173.5,487C 162.266,481.364 150.599,476.697 138.5,473C 131.49,468.311 128.99,461.811 131,453.5C 140.633,439.354 144.966,423.687 144,406.5C 137.719,397.218 131.052,388.218 124,379.5C 110.443,359.716 107.943,338.55 116.5,316C 115.352,314.274 114.185,314.441 113,316.5C 103.511,328.464 98.6776,342.131 98.5,357.5C 88.8512,359.666 79.1845,359.833 69.5,358C 68.4147,355.828 67.0814,353.828 65.5,352C 61.0806,349.373 56.5806,346.873 52,344.5C 51.231,341.901 51.3977,339.401 52.5,337C 47.7563,329.182 48.7563,322.182 55.5,316C 59.653,312.425 63.9863,309.091 68.5,306C 64.6148,305.261 60.9481,303.927 57.5,302C 54.6667,299.167 51.8333,296.333 49,293.5C 48.1816,290.773 48.3483,288.106 49.5,285.5C 55.1427,283.476 60.976,282.476 67,282.5C 74.5612,283.01 82.0612,284.01 89.5,285.5C 97.039,283.364 104.706,282.031 112.5,281.5C 120.559,282.235 128.559,283.068 136.5,284C 138.257,281.154 140.257,278.488 142.5,276C 147.179,275.836 151.845,275.836 156.5,276C 156.864,270.916 158.197,266.083 160.5,261.5C 161.328,260.585 162.328,259.919 163.5,259.5C 163.958,255.352 165.458,251.685 168,248.5C 171.951,247.261 175.785,245.761 179.5,244C 171.928,237.099 165.095,229.599 159,221.5C 156.595,214.362 155.928,207.029 157,199.5C 157.806,196.554 159.139,193.888 161,191.5C 172.961,177.86 182.961,162.86 191,146.5C 192.826,144.926 194.993,144.093 197.5,144C 203.061,138.553 209.727,135.22 217.5,134C 219.225,129.217 221.225,124.551 223.5,120C 219.4,116.89 217.233,112.723 217,107.5C 214.43,106.991 212.097,105.991 210,104.5C 209.337,101.131 209.504,97.7975 210.5,94.5C 207.704,87.0746 206.871,79.408 208,71.5C 212.188,67.3116 216.355,63.1449 220.5,59C 217.7,54.5362 214.533,50.3695 211,46.5C 210.585,40.7294 211.252,35.0627 213,29.5C 215.381,28.565 217.881,28.2317 220.5,28.5C 219.933,25.0886 221.266,23.0886 224.5,22.5 Z M 411.5,191.5 C 407.925,193.287 404.259,195.121 400.5,197C 398.255,200.412 395.255,202.912 391.5,204.5C 391.667,204.833 391.833,205.167 392,205.5C 399.083,201.71 405.917,197.543 412.5,193C 413.712,191.893 413.379,191.393 411.5,191.5 Z"/></g>
<g><path style="opacity:1" fill="#c7c8c7" d="M 225.5,29.5 C 226.251,28.4265 227.251,28.2599 228.5,29C 230.043,31.9483 232.21,32.7816 235,31.5C 236.5,33 238,34.5 239.5,36C 241.313,35.9536 242.979,36.1203 244.5,36.5C 244.071,39.2571 244.738,41.9238 246.5,44.5C 241.126,49.3626 235.293,53.6959 229,57.5C 226.566,55.9928 224.566,53.9928 223,51.5C 220.128,47.8175 217.962,43.8175 216.5,39.5C 218.144,39.7135 219.644,39.3802 221,38.5C 221.456,37.2559 220.956,36.4226 219.5,36C 220,35.5 220.5,35 221,34.5C 225.623,36.6777 227.623,35.3444 227,30.5C 226.617,29.944 226.117,29.6107 225.5,29.5 Z"/></g>
<g><path style="opacity:1" fill="#1c1c1c" d="M 219.5,74.5 C 221.28,75.7547 223.113,75.7547 225,74.5C 226.95,74.2926 228.116,73.2926 228.5,71.5C 229.167,71.1667 229.833,70.8333 230.5,70.5C 232.684,71.1081 234.684,70.4414 236.5,68.5C 238.727,67.5994 239.727,65.9328 239.5,63.5C 240.268,64.2625 240.768,65.2625 241,66.5C 246.783,63.0763 249.45,58.0763 249,51.5C 248.329,50.7476 247.496,50.4142 246.5,50.5C 244.621,50.6068 244.288,50.1068 245.5,49C 248.56,48.8487 250.893,47.5153 252.5,45C 257.931,42.6139 263.597,41.4472 269.5,41.5C 269.663,43.8568 269.497,46.1902 269,48.5C 266.86,49.7282 265.193,51.3949 264,53.5C 262.627,59.9954 260.794,66.3288 258.5,72.5C 255.736,73.7612 253.403,75.5946 251.5,78C 248.215,78.7589 245.215,80.0922 242.5,82C 238.446,81.0044 234.446,81.3377 230.5,83C 226.928,85.6258 226.595,88.6258 229.5,92C 225.525,94.5759 221.192,96.0759 216.5,96.5C 215.322,90.6393 213.988,84.806 212.5,79C 213.042,75.434 214.876,72.6006 218,70.5C 218.21,72.0581 218.71,73.3915 219.5,74.5 Z"/></g>
<g><path style="opacity:1" fill="#ec1c23" d="M 246.5,50.5 C 247.496,50.4142 248.329,50.7476 249,51.5C 249.45,58.0763 246.783,63.0763 241,66.5C 240.768,65.2625 240.268,64.2625 239.5,63.5C 236.875,61.1312 237.208,58.9646 240.5,57C 240.272,56.6012 239.938,56.4346 239.5,56.5C 241.575,54.2812 243.909,52.2812 246.5,50.5 Z"/></g>
<g><path style="opacity:1" fill="#c2c3c2" d="M 266.5,52.5 C 267.239,52.369 267.906,52.5357 268.5,53C 257.101,107.995 244.934,162.828 232,217.5C 229.455,216.478 226.955,215.312 224.5,214C 238.801,160.26 252.801,106.427 266.5,52.5 Z"/></g>
<g><path style="opacity:1" fill="#c1c1c1" d="M 239.5,56.5 C 239.938,56.4346 240.272,56.6012 240.5,57C 237.208,58.9646 236.875,61.1312 239.5,63.5C 239.727,65.9328 238.727,67.5994 236.5,68.5C 236.414,67.5041 236.748,66.6708 237.5,66C 236.251,65.2599 235.251,65.4265 234.5,66.5C 233.5,68.1667 232.167,69.5 230.5,70.5C 229.833,70.8333 229.167,71.1667 228.5,71.5C 227.527,69.7084 228.194,68.375 230.5,67.5C 231.776,66.6136 231.776,65.6136 230.5,64.5C 229.893,64.6236 229.56,64.9569 229.5,65.5C 229.5,66.1667 229.167,66.5 228.5,66.5C 227.475,66.1034 227.308,65.4368 228,64.5C 229.409,63.2189 230.909,62.2189 232.5,61.5C 232.5,60.8333 232.833,60.5 233.5,60.5C 235.504,59.3272 237.004,57.6605 238,55.5C 238.383,56.056 238.883,56.3893 239.5,56.5 Z"/></g>
<g><path style="opacity:1" fill="#ec1c23" d="M 233.5,60.5 C 232.833,60.5 232.5,60.8333 232.5,61.5C 230.025,61.2533 230.025,60.5866 232.5,59.5C 233.107,59.6236 233.44,59.9569 233.5,60.5 Z"/></g>
<g><path style="opacity:1" fill="#ec1c23" d="M 228.5,66.5 C 229.167,66.5 229.5,66.1667 229.5,65.5C 230.338,65.8417 230.672,66.5084 230.5,67.5C 228.194,68.375 227.527,69.7084 228.5,71.5C 228.116,73.2926 226.95,74.2926 225,74.5C 223.113,75.7547 221.28,75.7547 219.5,74.5C 219.427,69.7345 221.594,66.4012 226,64.5C 226.249,65.624 226.749,66.624 227.5,67.5C 228.107,67.3764 228.44,67.0431 228.5,66.5 Z"/></g>
<g><path style="opacity:1" fill="#000000" d="M 229.5,65.5 C 229.56,64.9569 229.893,64.6236 230.5,64.5C 231.776,65.6136 231.776,66.6136 230.5,67.5C 230.672,66.5084 230.338,65.8417 229.5,65.5 Z"/></g>
<g><path style="opacity:1" fill="#000000" d="M 234.5,66.5 C 235.251,65.4265 236.251,65.2599 237.5,66C 236.748,66.6708 236.414,67.5041 236.5,68.5C 235.833,67.8333 235.167,67.1667 234.5,66.5 Z"/></g>
<g><path style="opacity:1" fill="#fec90d" d="M 274.5,65.5 C 275.525,65.8966 275.692,66.5632 275,67.5C 272.356,69.31 269.856,71.31 267.5,73.5C 266.167,72.5 266.167,71.5 267.5,70.5C 269.724,68.566 272.058,66.8994 274.5,65.5 Z"/></g>
<g><path style="opacity:1" fill="#ec1c23" d="M 234.5,66.5 C 235.167,67.1667 235.833,67.8333 236.5,68.5C 234.684,70.4414 232.684,71.1081 230.5,70.5C 232.167,69.5 233.5,68.1667 234.5,66.5 Z"/></g>
<g><path style="opacity:1" fill="#fec90d" d="M 256.5,75.5 C 257.376,75.3691 258.043,75.7025 258.5,76.5C 258,77.5 257.5,78.5 257,79.5C 253.559,81.276 250.392,83.4426 247.5,86C 252.299,85.7923 254.132,87.9589 253,92.5C 251.414,93.376 249.914,94.376 248.5,95.5C 250.075,99.1267 249.408,102.293 246.5,105C 247.623,106.044 248.956,106.71 250.5,107C 249.106,111.072 247.94,115.238 247,119.5C 243.23,111.46 239.063,103.627 234.5,96C 229.651,97.4 224.818,99.2333 220,101.5C 218.601,100.773 217.101,100.273 215.5,100C 221.421,98.4283 227.087,96.095 232.5,93C 227.834,87.8204 229,84.6537 236,83.5C 238.478,84.3319 240.978,84.4986 243.5,84C 246.215,82.0922 249.215,80.7589 252.5,80C 254.041,78.6288 255.375,77.1288 256.5,75.5 Z"/></g>
<g><path style="opacity:1" fill="#1d1e1d" d="M 234.5,84.5 C 238.899,85.2776 240.899,87.9443 240.5,92.5C 237.455,92.6582 234.621,91.9915 232,90.5C 231.458,87.9175 232.292,85.9175 234.5,84.5 Z"/></g>
<g><path style="opacity:1" fill="#141414" d="M 244.5,87.5 C 247.798,87.0162 250.464,88.0162 252.5,90.5C 248.706,94.3862 245.039,94.3862 241.5,90.5C 242.34,89.265 243.34,88.265 244.5,87.5 Z"/></g>
<g><path style="opacity:1" fill="#060606" d="M 241.5,95.5 C 246.709,94.7052 248.709,96.7052 247.5,101.5C 246.277,102.614 244.944,102.781 243.5,102C 241.984,100.103 241.317,97.9363 241.5,95.5 Z"/></g>
<g><path style="opacity:1" fill="#1d1e1d" d="M 232.5,97.5 C 236.455,103.237 239.788,109.404 242.5,116C 238.445,116.232 234.445,116.732 230.5,117.5C 228.183,115.684 226.016,113.684 224,111.5C 223.668,108.494 222.834,105.66 221.5,103C 225.613,101.812 229.28,99.9786 232.5,97.5 Z"/></g>
<g><path style="opacity:1" fill="#e0cea9" d="M 273.5,114.5 C 273.421,115.93 273.754,117.264 274.5,118.5C 273.5,119.333 272.5,120.167 271.5,121C 271.924,123.949 272.091,127.116 272,130.5C 268.182,133.22 264.849,132.553 262,128.5C 260.294,124.921 258.461,121.421 256.5,118C 257.406,116.301 257.739,114.467 257.5,112.5C 262.8,110.106 268.467,108.439 274.5,107.5C 275.959,109.583 277.292,111.75 278.5,114C 276.866,114.494 275.199,114.66 273.5,114.5 Z"/></g>
<g><path style="opacity:1" fill="#000000" d="M 273.5,114.5 C 271.891,114.906 270.557,114.906 269.5,114.5C 270.958,113.218 272.292,113.218 273.5,114.5 Z"/></g>
<g><path style="opacity:1" fill="#c0c0c0" d="M 364.5,113.5 C 370.621,113.09 376.621,113.59 382.5,115C 383.022,115.561 383.355,116.228 383.5,117C 382.244,118.845 381.244,120.845 380.5,123C 382.029,124.582 382.529,126.415 382,128.5C 381.667,127.833 381.333,127.167 381,126.5C 377.653,126.667 374.153,127.333 370.5,128.5C 367.432,126.543 364.099,126.043 360.5,127C 359.299,127.903 358.465,129.069 358,130.5C 354.925,128.229 351.425,127.063 347.5,127C 349.377,125.815 351.377,124.815 353.5,124C 356.404,119.593 360.071,116.093 364.5,113.5 Z"/></g>
<g><path style="opacity:1" fill="#9b3f03" d="M 238.5,120.5 C 239.349,122.51 238.682,124.177 236.5,125.5C 234.094,126.35 231.76,125.85 229.5,124C 228.483,122.951 228.316,121.784 229,120.5C 232.329,118.108 235.496,118.108 238.5,120.5 Z"/></g>
<g><path style="opacity:1" fill="#000000" d="M 373.5,119.5 C 374.251,118.427 375.251,118.26 376.5,119C 375.648,120.728 374.648,120.895 373.5,119.5 Z"/></g>
<g><path style="opacity:1" fill="#e8cd95" d="M 236.5,125.5 C 238.682,124.177 239.349,122.51 238.5,120.5C 241.127,117.841 243.627,118.174 246,121.5C 245.814,124.911 244.981,128.244 243.5,131.5C 240.995,129.747 238.329,128.247 235.5,127C 236.056,126.617 236.389,126.117 236.5,125.5 Z"/></g>
<g><path style="opacity:1" fill="#fec90d" d="M 255.5,122.5 C 257.474,124.428 258.974,126.761 260,129.5C 261.684,131.351 263.517,133.018 265.5,134.5C 261.089,135.888 257.589,134.555 255,130.5C 254.825,127.843 254.992,125.176 255.5,122.5 Z"/></g>
<g><path style="opacity:1" fill="#000000" d="M 372.5,123.5 C 373.251,122.427 374.251,122.26 375.5,123C 374.648,124.728 373.648,124.895 372.5,123.5 Z"/></g>
<g><path style="opacity:1" fill="#3f47cc" d="M 227.5,125.5 C 232.965,128.066 238.298,130.899 243.5,134C 242.106,138.072 240.94,142.238 240,146.5C 234.908,142.245 229.408,138.578 223.5,135.5C 224.849,132.141 226.182,128.808 227.5,125.5 Z"/></g>
<g><path style="opacity:1" fill="#c7c8c7" d="M 333.5,125.5 C 340.035,128.724 347.035,130.891 354.5,132C 355.333,132.833 356.167,133.667 357,134.5C 357.451,139.239 357.785,143.905 358,148.5C 353.673,144.453 348.507,142.286 342.5,142C 338.841,136.846 335.841,131.346 333.5,125.5 Z"/></g>
<g><path style="opacity:1" fill="#870014" d="M 362.5,129.5 C 364.429,129.231 366.095,129.731 367.5,131C 365.183,138.37 364.85,145.87 366.5,153.5C 386.508,153.453 406.508,153.786 426.5,154.5C 426.5,155.833 426.5,157.167 426.5,158.5C 407.754,158.241 389.087,159.241 370.5,161.5C 391.125,163.234 411.792,164.234 432.5,164.5C 432.5,165.833 432.5,167.167 432.5,168.5C 413.99,167.728 395.49,166.728 377,165.5C 375.167,165.833 373.333,166.167 371.5,166.5C 375.736,177.147 382.07,186.314 390.5,194C 388.835,195.84 386.835,196.507 384.5,196C 375.19,187.038 367.857,176.705 362.5,165C 353.09,161.463 344.423,156.629 336.5,150.5C 339.569,144.443 344.235,142.943 350.5,146C 353.52,148.001 356.52,149.668 359.5,151C 359.658,145.262 359.824,139.429 360,133.5C 360.662,132.016 361.496,130.683 362.5,129.5 Z"/></g>
<g><path style="opacity:1" fill="#fefefe" d="M 463.5,148.5 C 464.5,148.5 465.5,148.5 466.5,148.5C 469.044,148.104 471.211,148.771 473,150.5C 473.785,152.286 474.951,153.786 476.5,155C 475.672,155.915 474.672,156.581 473.5,157C 468.971,157.679 464.471,157.513 460,156.5C 457.237,156.918 454.57,157.584 452,158.5C 451.79,156.942 451.29,155.609 450.5,154.5C 449.833,154.5 449.5,154.167 449.5,153.5C 422.677,152.155 395.677,151.488 368.5,151.5C 367.004,145.131 367.171,138.798 369,132.5C 371.369,131.449 373.869,130.782 376.5,130.5C 380.02,131.673 383.52,131.673 387,130.5C 388.5,131 390,131.5 391.5,132C 388.051,137.491 386.385,143.324 386.5,149.5C 387.934,147.78 388.767,145.78 389,143.5C 389.388,144.428 390.055,145.095 391,145.5C 395.167,144 398,141.167 399.5,137C 398.513,134.679 396.846,133.013 394.5,132C 405.788,132.687 417.121,133.521 428.5,134.5C 431.521,134.583 434.355,133.916 437,132.5C 440.265,134.735 443.765,135.069 447.5,133.5C 449.5,134 451.5,134.5 453.5,135C 454.282,137.74 454.782,140.574 455,143.5C 456.487,144.253 456.654,145.086 455.5,146C 458.022,147.341 460.689,148.174 463.5,148.5 Z"/></g>
<g><path style="opacity:1" fill="#3c43bd" d="M 260.5,142.5 C 259.136,144.191 257.803,145.858 256.5,147.5C 252.644,143.048 251.811,138.048 254,132.5C 256.252,135.029 258.752,137.196 261.5,139C 261.011,140.138 260.678,141.305 260.5,142.5 Z"/></g>
<g><path style="opacity:1" fill="#fefffe" d="M 392.5,133.5 C 393.473,133.987 394.473,134.487 395.5,135C 393.843,135.725 392.843,135.225 392.5,133.5 Z"/></g>
<g><path style="opacity:1" fill="#fec90d" d="M 267.5,134.5 C 270.388,136.916 273.721,138.583 277.5,139.5C 277.167,139.833 276.833,140.167 276.5,140.5C 272.222,139.453 267.888,138.62 263.5,138C 265.91,137.943 267.244,136.776 267.5,134.5 Z"/></g>
<g><path style="opacity:1" fill="#ebebeb" d="M 457.5,140.5 C 458.608,134.194 461.441,133.194 466,137.5C 468.579,141.472 467.579,144.139 463,145.5C 460.219,145.105 458.053,143.772 456.5,141.5C 456.624,140.893 456.957,140.56 457.5,140.5 Z"/></g>
<g><path style="opacity:1" fill="#000000" d="M 459.5,138.5 C 460.002,136.915 461.002,136.415 462.5,137C 461.756,138.039 460.756,138.539 459.5,138.5 Z"/></g>
<g><path style="opacity:1" fill="#870014" d="M 221.5,138.5 C 228.173,140.334 234.006,143.667 239,148.5C 239.601,149.965 239.101,150.965 237.5,151.5C 234.5,149.667 231.5,147.833 228.5,146C 225.261,144.264 222.927,141.764 221.5,138.5 Z"/></g>
<g><path style="opacity:1" fill="#000000" d="M 459.5,138.5 C 460.609,139.29 461.942,139.79 463.5,140C 461.782,140.346 460.115,140.846 458.5,141.5C 457.893,141.376 457.56,141.043 457.5,140.5C 458.167,139.833 458.833,139.167 459.5,138.5 Z"/></g>
<g><path style="opacity:1" fill="#323389" d="M 218.5,141.5 C 214.7,143.57 211.034,145.903 207.5,148.5C 206.105,149.815 205.105,149.481 204.5,147.5C 204.5,146.833 204.833,146.5 205.5,146.5C 209.539,143.284 213.872,141.617 218.5,141.5 Z"/></g>
<g><path style="opacity:1" fill="#fefffe" d="M 263.5,140.5 C 267.717,140.589 271.717,141.423 275.5,143C 273.833,151.506 271.166,159.673 267.5,167.5C 264.36,165.527 261.36,163.36 258.5,161C 261.605,154.546 263.272,147.713 263.5,140.5 Z"/></g>
<g><path style="opacity:1" fill="#fec90d" d="M 218.5,141.5 C 219.239,141.369 219.906,141.536 220.5,142C 216.674,145.915 212.341,148.082 207.5,148.5C 211.034,145.903 214.7,143.57 218.5,141.5 Z"/></g>
<g><path style="opacity:1" fill="#fec90d" d="M 260.5,142.5 C 260.835,148.206 259.669,153.872 257,159.5C 255.45,158.409 254.283,157.076 253.5,155.5C 253.34,153.801 253.506,152.134 254,150.5C 254.308,151.308 254.808,151.975 255.5,152.5C 255.973,150.753 256.307,149.086 256.5,147.5C 257.803,145.858 259.136,144.191 260.5,142.5 Z"/></g>
<g><path style="opacity:1" fill="#ec1c23" d="M 305.5,180.5 C 297.738,183.2 290.071,183.033 282.5,180C 289.202,177.877 293.202,173.711 294.5,167.5C 290.441,171.565 286.107,175.232 281.5,178.5C 281.559,172.089 280.892,165.756 279.5,159.5C 278.396,163.981 278.396,168.481 279.5,173C 279.119,176.886 278.452,180.719 277.5,184.5C 274.192,180.053 271.525,175.219 269.5,170C 272.896,160.896 275.896,151.729 278.5,142.5C 283.16,147.998 287.66,153.665 292,159.5C 295.867,166.984 300.367,173.984 305.5,180.5 Z"/></g>
<g><path style="opacity:1" fill="#3f47cc" d="M 250.5,150.5 C 249.957,150.44 249.624,150.107 249.5,149.5C 251.281,141.694 252.615,141.694 253.5,149.5C 252.209,149.263 251.209,149.596 250.5,150.5 Z"/></g>
<g><path style="opacity:1" fill="#fec90d" d="M 205.5,146.5 C 204.833,146.5 204.5,146.833 204.5,147.5C 202.895,148.969 202.395,148.635 203,146.5C 204.392,144.158 205.225,144.158 205.5,146.5 Z"/></g>
<g><path style="opacity:1" fill="#fefffe" d="M 220.5,144.5 C 222.308,144.491 223.975,144.991 225.5,146C 228.82,148.994 232.487,151.494 236.5,153.5C 237.452,155.045 237.785,156.712 237.5,158.5C 236.448,158.649 235.448,158.483 234.5,158C 230.258,153.923 225.591,150.423 220.5,147.5C 219.438,146.575 219.438,145.575 220.5,144.5 Z"/></g>
<g><path style="opacity:1" fill="#fefffe" d="M 466.5,148.5 C 465.5,148.5 464.5,148.5 463.5,148.5C 465.111,145.837 467.111,145.337 469.5,147C 468.263,147.232 467.263,147.732 466.5,148.5 Z"/></g>
<g><path style="opacity:1" fill="#e81c23" d="M 207.5,197.5 C 209.397,194.053 211.563,190.72 214,187.5C 215.902,182.787 217.568,178.12 219,173.5C 214.026,181.299 208.192,188.299 201.5,194.5C 195.369,197.133 191.036,201.633 188.5,208C 190.251,210.828 192.251,213.495 194.5,216C 190.374,217.166 186.208,218.333 182,219.5C 181.67,225.521 181.67,231.521 182,237.5C 175.26,231.43 169.26,224.763 164,217.5C 161.265,211.961 160.932,206.294 163,200.5C 170.947,188.886 179.281,177.552 188,166.5C 190.706,160.922 193.539,155.422 196.5,150C 199.961,149.126 202.961,149.96 205.5,152.5C 208.673,151.79 211.673,150.623 214.5,149C 215.833,148.333 217.167,148.333 218.5,149C 224.252,152.252 229.585,156.085 234.5,160.5C 234.464,168.335 232.964,176.001 230,183.5C 222.724,188.553 215.224,193.22 207.5,197.5 Z"/></g>
<g><path style="opacity:1" fill="#fec90d" d="M 250.5,150.5 C 252.028,151.802 253.028,153.469 253.5,155.5C 253.44,156.043 253.107,156.376 252.5,156.5C 249.884,154.969 249.217,152.969 250.5,150.5 Z"/></g>
<g><path style="opacity:1" fill="#fec90d" d="M 428.5,153.5 C 430.167,153.5 431.833,153.5 433.5,153.5C 434.508,158.667 432.675,160.334 428,158.5C 427.36,156.735 427.527,155.068 428.5,153.5 Z"/></g>
<g><path style="opacity:1" fill="#fec90d" d="M 449.5,153.5 C 449.5,154.167 449.833,154.5 450.5,154.5C 451.092,157.631 450.092,159.964 447.5,161.5C 446.791,160.596 445.791,160.263 444.5,160.5C 444.338,158.473 444.505,156.473 445,154.5C 446.356,153.62 447.856,153.286 449.5,153.5 Z"/></g>
<g><path style="opacity:1" fill="#fdfdfd" d="M 336.5,154.5 C 344.199,159.016 352.199,163.016 360.5,166.5C 362.897,169.717 364.064,173.383 364,177.5C 364.333,176.167 364.667,174.833 365,173.5C 368.279,181.443 373.112,188.277 379.5,194C 377.099,194.805 377.266,195.638 380,196.5C 381.566,195.939 382.899,196.606 384,198.5C 383.19,206.103 382.357,213.77 381.5,221.5C 365.526,227.227 349.026,229.894 332,229.5C 326.479,229.354 320.979,229.021 315.5,228.5C 316.848,213.053 319.014,197.72 322,182.5C 326.079,172.673 330.912,163.34 336.5,154.5 Z"/></g>
<g><path style="opacity:1" fill="#870014" d="M 434.5,154.5 C 437.916,153.894 440.582,154.894 442.5,157.5C 439.914,158.48 437.247,158.813 434.5,158.5C 434.5,157.167 434.5,155.833 434.5,154.5 Z"/></g>
<g><path style="opacity:1" fill="#3c0f0c" d="M 429.5,154.5 C 432.861,155.203 433.194,156.537 430.5,158.5C 428.358,157.563 428.024,156.23 429.5,154.5 Z"/></g>
<g><path style="opacity:1" fill="#770713" d="M 264.5,168.5 C 263.89,169.391 263.557,170.391 263.5,171.5C 263.167,171.5 262.833,171.5 262.5,171.5C 260.114,170.627 258.114,169.127 256.5,167C 257.056,166.617 257.389,166.117 257.5,165.5C 256.625,163.194 255.292,162.527 253.5,163.5C 253.44,164.043 253.107,164.376 252.5,164.5C 251.018,162.517 249.351,160.684 247.5,159C 248.047,158.075 248.713,157.242 249.5,156.5C 255.121,159.794 260.121,163.794 264.5,168.5 Z"/></g>
<g><path style="opacity:1" fill="#fefffe" d="M 459.5,159.5 C 461.496,158.312 462.329,158.979 462,161.5C 461.292,160.619 460.458,159.953 459.5,159.5 Z"/></g>
<g><path style="opacity:1" fill="#c4c4c4" d="M 332.5,152.5 C 333.552,152.351 334.552,152.517 335.5,153C 331.874,157.784 328.541,163.284 325.5,169.5C 322.908,172.449 321.741,172.116 322,168.5C 323.003,165.301 324.837,162.801 327.5,161C 326.465,159.493 326.632,157.993 328,156.5C 329.397,154.93 330.897,153.596 332.5,152.5 Z"/></g>
<g><path style="opacity:1" fill="#fefffe" d="M 463.5,159.5 C 466.797,159.329 467.131,159.995 464.5,161.5C 463.702,161.043 463.369,160.376 463.5,159.5 Z"/></g>
<g><path style="opacity:1" fill="#fefffe" d="M 400.5,161.5 C 411.007,160.177 421.674,160.177 432.5,161.5C 421.851,162.247 411.184,162.247 400.5,161.5 Z"/></g>
<g><path style="opacity:1" fill="#870014" d="M 434.5,160.5 C 436.833,160.5 439.167,160.5 441.5,160.5C 441.821,167.647 440.988,174.647 439,181.5C 430.803,190.031 422.303,198.198 413.5,206C 404.818,211.342 395.818,216.175 386.5,220.5C 385.167,219.5 385.167,218.5 386.5,217.5C 398.69,212.826 409.857,206.492 420,198.5C 426.002,189.495 430.669,179.829 434,169.5C 434.498,166.518 434.665,163.518 434.5,160.5 Z"/></g>
<g><path style="opacity:1" fill="#6e0b12" d="M 444.5,160.5 C 445.791,160.263 446.791,160.596 447.5,161.5C 447.5,162.167 447.5,162.833 447.5,163.5C 446.587,165.086 446.587,166.586 447.5,168C 451.042,169.275 454.375,170.775 457.5,172.5C 457.649,173.552 457.483,174.552 457,175.5C 453.635,173.889 450.135,173.055 446.5,173C 445.884,175.179 444.717,177.012 443,178.5C 443.088,172.393 443.588,166.393 444.5,160.5 Z"/></g>
<g><path style="opacity:1" fill="#f9f9f9" d="M 266.5,183.5 C 266.573,185.027 265.906,186.027 264.5,186.5C 258.946,180.443 253.112,174.443 247,168.5C 246.192,166.421 246.359,164.421 247.5,162.5C 254.981,168.148 261.648,174.648 267.5,182C 266.944,182.383 266.611,182.883 266.5,183.5 Z"/></g>
<g><path style="opacity:1" fill="#fec90d" d="M 253.5,163.5 C 255.292,162.527 256.625,163.194 257.5,165.5C 255.938,165.267 254.605,164.6 253.5,163.5 Z"/></g>
<g><path style="opacity:1" fill="#d5d6d5" d="M 447.5,163.5 C 450.062,166.223 453.062,168.389 456.5,170C 460.027,170.808 463.36,170.641 466.5,169.5C 468.429,169.231 470.095,169.731 471.5,171C 467.879,173.644 463.879,175.477 459.5,176.5C 458.828,175.051 458.161,173.718 457.5,172.5C 454.375,170.775 451.042,169.275 447.5,168C 446.587,166.586 446.587,165.086 447.5,163.5 Z"/></g>
<g><path style="opacity:1" fill="#fefffe" d="M 467.5,166.5 C 469.337,166.639 469.67,167.306 468.5,168.5C 467.702,168.043 467.369,167.376 467.5,166.5 Z"/></g>
<g><path style="opacity:1" fill="#c81019" d="M 305.5,180.5 C 306.167,180.5 306.5,180.833 306.5,181.5C 301.828,183.016 297.161,184.849 292.5,187C 289.48,189.619 287.48,192.786 286.5,196.5C 284.845,192.654 282.512,189.154 279.5,186C 280.123,183.393 280.79,180.893 281.5,178.5C 286.107,175.232 290.441,171.565 294.5,167.5C 293.202,173.711 289.202,177.877 282.5,180C 290.071,183.033 297.738,183.2 305.5,180.5 Z"/></g>
<g><path style="opacity:1" fill="#fefffe" d="M 374.5,168.5 C 393.339,168.499 412.339,169.332 431.5,171C 430.833,172 430.167,173 429.5,174C 420.953,178.283 412.286,181.949 403.5,185C 405.616,183.829 406.282,182.329 405.5,180.5C 401.366,185.126 396.199,187.793 390,188.5C 387.849,188.357 386.182,187.357 385,185.5C 381.475,179.769 377.975,174.103 374.5,168.5 Z"/></g>
<g><path style="opacity:1" fill="#fefffe" d="M 466.5,169.5 C 463.999,169.489 463.832,168.822 466,167.5C 466.464,168.094 466.631,168.761 466.5,169.5 Z"/></g>
<g><path style="opacity:1" fill="#fec90d" d="M 264.5,168.5 C 265.715,169.779 265.382,170.779 263.5,171.5C 263.557,170.391 263.89,169.391 264.5,168.5 Z"/></g>
<g><path style="opacity:1" fill="#fec90d" d="M 262.5,171.5 C 262.833,171.5 263.167,171.5 263.5,171.5C 264.664,174.578 266.164,174.912 268,172.5C 268.464,173.094 268.631,173.761 268.5,174.5C 267.5,174.833 266.833,175.5 266.5,176.5C 263.41,175.791 262.077,174.124 262.5,171.5 Z"/></g>
<g><path style="opacity:1" fill="#fefffe" d="M 246.5,172.5 C 247.239,172.369 247.906,172.536 248.5,173C 247.126,175.583 245.626,178.083 244,180.5C 243.333,179.167 243.333,177.833 244,176.5C 245.085,175.264 245.918,173.931 246.5,172.5 Z"/></g>
<g><path style="opacity:1" fill="#c7c8c7" d="M 321.5,172.5 C 323.657,173.053 323.49,174.053 321,175.5C 320.53,174.423 320.697,173.423 321.5,172.5 Z"/></g>
<g><path style="opacity:1" fill="#c81019" d="M 207.5,197.5 C 203.733,201.487 201.733,200.487 201.5,194.5C 208.192,188.299 214.026,181.299 219,173.5C 217.568,178.12 215.902,182.787 214,187.5C 211.563,190.72 209.397,194.053 207.5,197.5 Z"/></g>
<g><path style="opacity:1" fill="#fefffe" d="M 249.5,174.5 C 252.999,177.166 255.999,180.333 258.5,184C 252.862,196.129 245.862,207.296 237.5,217.5C 236.119,217 235.453,216 235.5,214.5C 237.27,206.486 239.103,198.486 241,190.5C 244.113,185.271 246.947,179.938 249.5,174.5 Z"/></g>
<g><path style="opacity:1" fill="#810314" d="M 268.5,174.5 C 271.57,179.306 274.07,184.306 276,189.5C 272.204,185.551 269.037,181.217 266.5,176.5C 266.833,175.5 267.5,174.833 268.5,174.5 Z"/></g>
<g><path style="opacity:1" fill="#c7c8c7" d="M 319.5,176.5 C 320.497,176.47 321.164,176.97 321.5,178C 318.596,185.063 317.93,184.563 319.5,176.5 Z"/></g>
<g><path style="opacity:1" fill="#fec90d" d="M 446.5,179.5 C 443.93,180.484 443.93,181.651 446.5,183C 447.998,183.585 448.998,183.085 449.5,181.5C 451.105,180.031 451.605,180.365 451,182.5C 447.811,186.514 445.311,186.014 443.5,181C 443.977,178.754 444.977,178.254 446.5,179.5 Z"/></g>
<g><path style="opacity:1" fill="#8a8a8a" d="M 446.5,179.5 C 447.71,179.932 448.71,180.599 449.5,181.5C 448.998,183.085 447.998,183.585 446.5,183C 443.93,181.651 443.93,180.484 446.5,179.5 Z"/></g>
<g><path style="opacity:1" fill="#ec1c23" d="M 306.5,181.5 C 309.318,183.581 309.985,186.248 308.5,189.5C 303.322,188.436 298.322,188.77 293.5,190.5C 291.969,193.385 289.969,196.052 287.5,198.5C 286.702,198.043 286.369,197.376 286.5,196.5C 287.48,192.786 289.48,189.619 292.5,187C 297.161,184.849 301.828,183.016 306.5,181.5 Z"/></g>
<g><path style="opacity:1" fill="#fec90d" d="M 266.5,183.5 C 269.007,183.632 269.674,184.632 268.5,186.5C 267.549,187.919 267.216,189.585 267.5,191.5C 265.75,190.341 264.75,188.674 264.5,186.5C 265.906,186.027 266.573,185.027 266.5,183.5 Z"/></g>
<g><path style="opacity:1" fill="#870014" d="M 441.5,183.5 C 442.962,184.458 444.295,185.624 445.5,187C 433.509,200.67 419.509,211.67 403.5,220C 393.887,224.152 384.22,228.152 374.5,232C 356.37,235.98 338.037,237.646 319.5,237C 309.321,235.077 300.321,230.744 292.5,224C 293.126,223.25 293.626,222.416 294,221.5C 301.145,227.321 309.312,230.821 318.5,232C 356.116,236.098 390.116,227.098 420.5,205C 427.703,197.965 434.703,190.798 441.5,183.5 Z"/></g>
<g><path style="opacity:1" fill="#be9618" d="M 262.5,193.5 C 264.768,199.906 266.435,206.573 267.5,213.5C 267.586,214.496 267.252,215.329 266.5,216C 264.455,216.49 262.455,216.323 260.5,215.5C 259.167,210.167 257.833,204.833 256.5,199.5C 256.411,194.524 257.577,189.857 260,185.5C 260.279,188.457 261.113,191.123 262.5,193.5 Z"/></g>
<g><path style="opacity:1" fill="#fefffe" d="M 417.5,185.5 C 418.552,185.351 419.552,185.517 420.5,186C 418.5,189 416.5,192 414.5,195C 406.814,200.831 398.481,205.665 389.5,209.5C 388.509,206.756 388.843,204.089 390.5,201.5C 393.916,200.25 396.583,198.083 398.5,195C 405.069,192.102 411.402,188.935 417.5,185.5 Z M 411.5,191.5 C 407.925,193.287 404.259,195.121 400.5,197C 398.255,200.412 395.255,202.912 391.5,204.5C 391.667,204.833 391.833,205.167 392,205.5C 399.083,201.71 405.917,197.543 412.5,193C 413.712,191.893 413.379,191.393 411.5,191.5 Z"/></g>
<g><path style="opacity:1" fill="#fefffe" d="M 228.5,186.5 C 229.043,186.56 229.376,186.893 229.5,187.5C 228.335,191.494 227.168,195.494 226,199.5C 220.415,203.377 214.582,206.877 208.5,210C 207.167,210.667 205.833,210.667 204.5,210C 202.887,207.772 202.22,205.272 202.5,202.5C 211.799,198.184 220.466,192.851 228.5,186.5 Z"/></g>
<g><path style="opacity:1" fill="#a3a3a3" d="M 268.5,186.5 C 270.256,187.552 270.923,189.219 270.5,191.5C 269.652,192.625 268.652,192.625 267.5,191.5C 267.216,189.585 267.549,187.919 268.5,186.5 Z"/></g>
<g><path style="opacity:1" fill="#c7c8c7" d="M 316.5,193.5 C 315.957,193.44 315.624,193.107 315.5,192.5C 316.035,190.339 316.868,188.339 318,186.5C 318.609,189.065 318.109,191.399 316.5,193.5 Z"/></g>
<g><path style="opacity:1" fill="#e8b713" d="M 270.5,201.5 C 270.579,202.93 270.246,204.264 269.5,205.5C 269.97,206.463 270.637,206.463 271.5,205.5C 271.565,208.428 272.232,211.095 273.5,213.5C 272.739,214.391 271.739,215.058 270.5,215.5C 269.735,214.388 268.735,213.721 267.5,213.5C 266.435,206.573 264.768,199.906 262.5,193.5C 262.343,192.127 262.51,190.793 263,189.5C 264.867,191.808 265.867,194.475 266,197.5C 266.333,196.833 266.667,196.167 267,195.5C 268.459,197.432 269.625,199.432 270.5,201.5 Z"/></g>
<g><path style="opacity:1" fill="#efdeb8" d="M 293.5,190.5 C 294.5,190.5 295.5,190.5 296.5,190.5C 296.5,191.5 296.5,192.5 296.5,193.5C 296.5,192.5 296.5,191.5 296.5,190.5C 295.5,190.5 294.5,190.5 293.5,190.5 Z"/></g>
<g><path style="opacity:1" fill="#343a76" d="M 310.5,197.5 C 309.317,196.496 307.984,195.662 306.5,195C 303.305,194.819 300.305,194.319 297.5,193.5C 299.032,191.544 301.199,190.544 304,190.5C 307.626,190.432 310.459,191.765 312.5,194.5C 312.058,195.739 311.391,196.739 310.5,197.5 Z"/></g>
<g><path style="opacity:1" fill="#e3b314" d="M 275.5,195.5 C 274.599,196.29 273.932,197.29 273.5,198.5C 270.81,196.807 268.81,194.473 267.5,191.5C 268.652,192.625 269.652,192.625 270.5,191.5C 271.29,190.391 271.79,189.058 272,187.5C 273.308,189.641 274.808,191.641 276.5,193.5C 276.137,194.183 275.804,194.85 275.5,195.5 Z"/></g>
<g><path style="opacity:1" fill="#efdeb8" d="M 296.5,193.5 C 296.833,193.5 297.167,193.5 297.5,193.5C 300.305,194.319 303.305,194.819 306.5,195C 307.984,195.662 309.317,196.496 310.5,197.5C 311.263,204.698 308.929,210.864 303.5,216C 298.563,217.369 294.396,216.203 291,212.5C 290.333,211.167 290.333,209.833 291,208.5C 294.714,211.294 298.881,212.46 303.5,212C 299.91,210.47 296.243,209.136 292.5,208C 291.62,206.644 291.286,205.144 291.5,203.5C 309.818,209.169 310.151,208.169 292.5,200.5C 292.369,199.761 292.536,199.094 293,198.5C 297.819,200.741 302.653,202.075 307.5,202.5C 302.829,199.72 297.829,197.72 292.5,196.5C 293.59,195.143 294.924,194.143 296.5,193.5 Z"/></g>
<g><path style="opacity:1" fill="#c7c8c7" d="M 316.5,193.5 C 317.368,196.455 317.035,199.455 315.5,202.5C 314.04,199.373 314.373,196.373 316.5,193.5 Z"/></g>
<g><path style="opacity:1" fill="#e2e2e2" d="M 275.5,195.5 C 276.117,195.611 276.617,195.944 277,196.5C 277.667,199.5 277.667,202.5 277,205.5C 275.121,203.473 273.954,201.14 273.5,198.5C 273.932,197.29 274.599,196.29 275.5,195.5 Z"/></g>
<g><path style="opacity:1" fill="#e41d23" d="M 256.5,199.5 C 257.833,204.833 259.167,210.167 260.5,215.5C 260.119,216.931 259.119,217.764 257.5,218C 252.133,219.061 246.8,220.227 241.5,221.5C 241.167,220.833 240.833,220.167 240.5,219.5C 245.099,211.724 249.933,204.057 255,196.5C 255.232,197.737 255.732,198.737 256.5,199.5 Z"/></g>
<g><path style="opacity:1" fill="#3f4896" d="M 292.5,196.5 C 291.314,197.961 291.314,199.295 292.5,200.5C 292.443,201.609 292.11,202.609 291.5,203.5C 290.71,204.609 290.21,205.942 290,207.5C 289.333,204.833 289.333,202.167 290,199.5C 290.236,197.881 291.069,196.881 292.5,196.5 Z"/></g>
<g><path style="opacity:1" fill="#000000" d="M 292.5,196.5 C 297.829,197.72 302.829,199.72 307.5,202.5C 302.653,202.075 297.819,200.741 293,198.5C 292.536,199.094 292.369,199.761 292.5,200.5C 291.314,199.295 291.314,197.961 292.5,196.5 Z"/></g>
<g><path style="opacity:1" fill="#a61717" d="M 270.5,201.5 C 270.56,200.957 270.893,200.624 271.5,200.5C 272.828,203.824 274.661,206.824 277,209.5C 277.778,213.049 276.611,214.382 273.5,213.5C 272.232,211.095 271.565,208.428 271.5,205.5C 271.768,203.901 271.434,202.568 270.5,201.5 Z"/></g>
<g><path style="opacity:1" fill="#000000" d="M 292.5,200.5 C 310.151,208.169 309.818,209.169 291.5,203.5C 292.11,202.609 292.443,201.609 292.5,200.5 Z"/></g>
<g><path style="opacity:1" fill="#000000" d="M 270.5,201.5 C 271.434,202.568 271.768,203.901 271.5,205.5C 270.637,206.463 269.97,206.463 269.5,205.5C 270.246,204.264 270.579,202.93 270.5,201.5 Z"/></g>
<g><path style="opacity:1" fill="#c81019" d="M 224.5,202.5 C 225.037,205.089 224.537,207.756 223,210.5C 221.59,209.213 220.09,208.046 218.5,207C 220.747,205.723 222.747,204.223 224.5,202.5 Z"/></g>
<g><path style="opacity:1" fill="#c7c8c7" d="M 315.5,202.5 C 316.097,202.735 316.43,203.235 316.5,204C 314.505,217.357 313.671,217.523 314,204.5C 314.717,203.956 315.217,203.289 315.5,202.5 Z"/></g>
<g><path style="opacity:1" fill="#fefffe" d="M 282.5,203.5 C 283.496,203.414 284.329,203.748 285,204.5C 284.996,209.358 286.163,213.858 288.5,218C 287.815,220.795 287.315,223.628 287,226.5C 286.624,223.025 285.291,220.025 283,217.5C 282.501,212.845 282.334,208.179 282.5,203.5 Z"/></g>
<g><path style="opacity:1" fill="#c81019" d="M 211.5,218.5 C 210.869,216.552 209.869,214.719 208.5,213C 211.418,211.291 214.252,209.458 217,207.5C 215.38,210.479 214.546,213.812 214.5,217.5C 213.209,217.263 212.209,217.596 211.5,218.5 Z"/></g>
<g><path style="opacity:1" fill="#fec90d" d="M 217.5,210.5 C 220.73,210.561 222.563,212.228 223,215.5C 224.419,216.46 225.919,217.293 227.5,218C 230.942,219.214 234.275,219.88 237.5,220C 241.421,229.791 240.588,239.291 235,248.5C 231.829,251.682 228.162,254.016 224,255.5C 222.338,255.612 221.171,254.946 220.5,253.5C 224.441,252.302 227.941,250.302 231,247.5C 234.56,241.262 235.893,234.596 235,227.5C 229.861,224.013 224.361,221.18 218.5,219C 216.195,216.406 215.862,213.573 217.5,210.5 Z"/></g>
<g><path style="opacity:1" fill="#870014" d="M 423.5,211.5 C 424.043,211.56 424.376,211.893 424.5,212.5C 421.114,220.941 416.947,228.941 412,236.5C 398.95,251.747 383.784,264.247 366.5,274C 345.116,278.755 326.283,273.922 310,259.5C 309.846,256.475 308.346,254.809 305.5,254.5C 305.057,257.812 304.724,261.145 304.5,264.5C 305.156,270.593 305.989,276.593 307,282.5C 305,281.167 303,279.833 301,278.5C 299.587,269.526 298.42,260.526 297.5,251.5C 300.49,246.518 302.656,241.185 304,235.5C 306.73,241.293 309.73,246.96 313,252.5C 334.53,273.961 358.03,276.128 383.5,259C 391.309,251.523 398.809,243.689 406,235.5C 408.599,229.865 411.099,224.198 413.5,218.5C 417.25,216.637 420.583,214.303 423.5,211.5 Z"/></g>
<g><path style="opacity:1" fill="#c7c8c7" d="M 313.5,215.5 C 314.895,217.847 314.728,220.181 313,222.5C 312.297,220.071 312.463,217.738 313.5,215.5 Z"/></g>
<g><path style="opacity:1" fill="#fec90d" d="M 272.5,216.5 C 273.873,216.343 275.207,216.51 276.5,217C 264.821,219.602 253.154,221.936 241.5,224C 251.788,221.045 262.122,218.545 272.5,216.5 Z"/></g>
<g><path style="opacity:1" fill="#e1e1e1" d="M 194.5,218.5 C 196.663,219.362 198.663,219.696 200.5,219.5C 196.625,220.759 192.791,222.092 189,223.5C 188.667,230.167 188.333,236.833 188,243.5C 187,242.5 186,241.5 185,240.5C 184.169,233.854 183.669,227.187 183.5,220.5C 185.979,219.928 188.313,219.928 190.5,220.5C 192.171,220.332 193.504,219.665 194.5,218.5 Z"/></g>
<g><path style="opacity:1" fill="#efdeb8" d="M 211.5,218.5 C 214.045,218.151 216.045,218.984 217.5,221C 214.833,221.667 214.833,222.333 217.5,223C 222.964,223.23 227.964,224.896 232.5,228C 226.055,228.858 219.722,229.858 213.5,231C 220.261,231.319 226.928,231.485 233.5,231.5C 232.221,233.146 230.555,234.313 228.5,235C 207.31,236.926 207.31,237.592 228.5,237C 232.364,234.661 233.364,235.661 231.5,240C 225.42,240.739 219.42,241.739 213.5,243C 218.533,243.728 223.533,243.561 228.5,242.5C 230.833,242.833 231.167,243.833 229.5,245.5C 218.234,249.246 208.234,247.079 199.5,239C 202.879,234.41 206.379,229.91 210,225.5C 210.44,223.134 210.94,220.801 211.5,218.5 Z"/></g>
<g><path style="opacity:1" fill="#fefffe" d="M 307.5,218.5 C 308.782,219.708 308.782,221.042 307.5,222.5C 305.206,221.375 305.206,220.041 307.5,218.5 Z"/></g>
<g><path style="opacity:1" fill="#fec90d" d="M 271.5,219.5 C 273.199,219.34 274.866,219.506 276.5,220C 265.931,222.871 255.265,224.871 244.5,226C 253.658,224.037 262.658,221.87 271.5,219.5 Z"/></g>
<g><path style="opacity:1" fill="#3f47cc" d="M 201.5,221.5 C 203.609,222.391 205.609,223.558 207.5,225C 203.878,229.745 200.378,234.578 197,239.5C 195.927,243.084 195.26,246.75 195,250.5C 193.667,249.167 192.333,247.833 191,246.5C 190.5,239.174 190.334,231.841 190.5,224.5C 194.397,223.945 198.063,222.945 201.5,221.5 Z"/></g>
<g><path style="opacity:1" fill="#fec90d" d="M 271.5,222.5 C 272.675,222.281 273.675,222.614 274.5,223.5C 277.892,228.724 276.559,230.39 270.5,228.5C 269.027,226.139 269.361,224.139 271.5,222.5 Z"/></g>
<g><path style="opacity:1" fill="#fefffe" d="M 276.5,223.5 C 277.251,222.427 278.251,222.26 279.5,223C 280.26,224.441 280.926,225.941 281.5,227.5C 280.5,228.833 279.5,228.833 278.5,227.5C 278.006,225.974 277.339,224.641 276.5,223.5 Z"/></g>
<g><path style="opacity:1" fill="#fefffe" d="M 265.5,224.5 C 267.085,225.474 268.085,226.974 268.5,229C 259.808,230.393 251.141,231.893 242.5,233.5C 242.5,231.833 242.5,230.167 242.5,228.5C 250.349,227.471 258.016,226.137 265.5,224.5 Z"/></g>
<g><path style="opacity:1" fill="#fefffe" d="M 400.5,227.5 C 401.376,227.369 402.043,227.702 402.5,228.5C 400.056,233.046 396.889,237.046 393,240.5C 392.394,237.57 391.56,234.737 390.5,232C 394.042,230.725 397.375,229.225 400.5,227.5 Z"/></g>
<g><path style="opacity:1" fill="#fec90d" d="M 274.5,232.5 C 269.563,233.261 264.897,234.595 260.5,236.5C 255.338,237.124 250.171,237.791 245,238.5C 243.833,238.167 242.667,237.833 241.5,237.5C 242.912,236.194 244.579,235.36 246.5,235C 255.896,232.652 265.23,231.818 274.5,232.5 Z"/></g>
<g><path style="opacity:1" fill="#949494" d="M 274.5,232.5 C 277.91,232.778 280.91,233.945 283.5,236C 273.859,241.799 269.192,250.299 269.5,261.5C 269.355,283.013 273.688,303.513 282.5,323C 281.896,325.584 281.063,328.084 280,330.5C 270.643,345.212 260.309,359.212 249,372.5C 244.686,370.264 240.519,367.93 236.5,365.5C 240.586,358.997 244.419,352.33 248,345.5C 249.315,348.492 251.315,350.825 254,352.5C 257.021,351.253 259.521,349.42 261.5,347C 259.882,343.767 258.549,340.434 257.5,337C 260.131,330.902 262.631,324.735 265,318.5C 266.39,306.838 265.056,295.505 261,284.5C 256.419,274.504 252.252,264.337 248.5,254C 252.337,248.007 256.337,242.174 260.5,236.5C 264.897,234.595 269.563,233.261 274.5,232.5 Z"/></g>
<g><path style="opacity:1" fill="#b87a56" d="M 291.5,232.5 C 296.394,231.829 299.727,233.663 301.5,238C 299.451,242.425 297.451,246.758 295.5,251C 296.47,260.51 297.47,270.01 298.5,279.5C 289.612,280.003 281.778,283.003 275,288.5C 272.423,277.387 271.423,266.054 272,254.5C 272.759,251.215 274.092,248.215 276,245.5C 281.065,240.926 286.231,236.593 291.5,232.5 Z"/></g>
<g><path style="opacity:1" fill="#fefffe" d="M 382.5,232.5 C 384.335,233.122 385.502,234.456 386,236.5C 386.887,240.325 387.721,244.158 388.5,248C 386.671,249.995 384.671,251.828 382.5,253.5C 379.895,246.472 379.895,239.472 382.5,232.5 Z"/></g>
<g><path style="opacity:1" fill="#b7b7b7" d="M 374.5,260.5 C 373.012,254.364 371.845,248.031 371,241.5C 370.31,239.65 369.144,238.316 367.5,237.5C 370.855,236.449 374.355,235.449 378,234.5C 378.5,234.833 379,235.167 379.5,235.5C 378.224,242.538 378.557,249.538 380.5,256.5C 379.207,258.819 377.207,260.152 374.5,260.5 Z"/></g>
<g><path style="opacity:1" fill="#fefffe" d="M 367.5,237.5 C 369.144,238.316 370.31,239.65 371,241.5C 371.845,248.031 373.012,254.364 374.5,260.5C 362.531,268.85 349.531,270.683 335.5,266C 326.486,261.667 318.819,255.667 312.5,248C 313.444,245.281 313.777,242.448 313.5,239.5C 318.807,240.055 324.14,240.388 329.5,240.5C 342.203,239.896 354.87,238.896 367.5,237.5 Z"/></g>
<g><path style="opacity:1" fill="#fec90d" d="M 248.5,243.5 C 249.833,240.227 252.167,238.727 255.5,239C 253.266,240.75 250.932,242.25 248.5,243.5 Z"/></g>
<g><path style="opacity:1" fill="#c7c8c7" d="M 308.5,238.5 C 309.5,238.5 310.5,238.5 311.5,238.5C 311.634,246.175 310.634,246.175 308.5,238.5 Z"/></g>
<g><path style="opacity:1" fill="#ec1c23" d="M 240.5,239.5 C 242.857,239.337 245.19,239.503 247.5,240C 244.751,241.123 242.251,242.623 240,244.5C 240.019,242.893 240.185,241.226 240.5,239.5 Z"/></g>
<g><path style="opacity:1" fill="#3f4896" d="M 198.5,241.5 C 202.345,243.923 206.345,246.09 210.5,248C 207.137,250.789 203.304,252.622 199,253.5C 197.266,249.543 197.099,245.543 198.5,241.5 Z"/></g>
<g><path style="opacity:1" fill="#ecba12" d="M 248.5,243.5 C 239.862,249.972 232.362,257.639 226,266.5C 224.972,264.156 224.306,261.823 224,259.5C 227.197,257.333 230.03,254.833 232.5,252C 233.449,251.383 234.282,251.549 235,252.5C 237.004,249.156 239.337,246.823 242,245.5C 242.333,245.833 242.667,246.167 243,246.5C 244.206,243.699 246.039,242.699 248.5,243.5 Z"/></g>
<g><path style="opacity:1" fill="#373ba4" d="M 250.5,244.5 C 251.095,247.321 249.929,249.654 247,251.5C 246.333,253.167 246.333,254.833 247,256.5C 251.862,268.087 256.529,279.754 261,291.5C 265.702,306.31 264.035,320.31 256,333.5C 254.745,330.072 253.245,326.738 251.5,323.5C 252.019,320.399 252.853,317.399 254,314.5C 254.667,311.833 254.667,309.167 254,306.5C 249.184,289.703 243.017,273.536 235.5,258C 240.573,253.483 245.573,248.983 250.5,244.5 Z"/></g>
<g><path style="opacity:1" fill="#870014" d="M 408.5,244.5 C 409.525,244.897 409.692,245.563 409,246.5C 404.333,251.167 399.667,255.833 395,260.5C 394.333,259.833 394.333,259.167 395,258.5C 399.703,253.965 404.203,249.298 408.5,244.5 Z"/></g>
<g><path style="opacity:1" fill="#ec1c23" d="M 186.5,247.5 C 189.857,250.855 193.524,253.855 197.5,256.5C 197,257.5 196.5,258.5 196,259.5C 192.586,254.748 188.086,251.581 182.5,250C 184.066,249.392 185.4,248.558 186.5,247.5 Z"/></g>
<g><path style="opacity:1" fill="#990c12" d="M 205.5,281.5 C 200.736,281.769 196.403,283.102 192.5,285.5C 191.957,285.44 191.624,285.107 191.5,284.5C 195.023,277.858 194.856,271.191 191,264.5C 188.167,261.667 185.333,258.833 182.5,256C 177.563,254.631 173.396,255.797 170,259.5C 169.833,259.167 169.667,258.833 169.5,258.5C 171.234,256.766 172.568,254.766 173.5,252.5C 178.697,251.696 183.697,252.53 188.5,255C 193.874,262.081 200.874,266.081 209.5,267C 210.573,268.313 211.24,269.813 211.5,271.5C 210.414,274.42 209.748,277.42 209.5,280.5C 207.901,280.232 206.568,280.566 205.5,281.5 Z"/></g>
<g><path style="opacity:1" fill="#fec90d" d="M 202.5,255.5 C 199.808,256.591 199.142,258.257 200.5,260.5C 202.631,261.314 204.964,261.814 207.5,262C 207.957,262.414 208.291,262.914 208.5,263.5C 201.81,265.593 198.643,263.259 199,256.5C 200.041,254.689 201.207,254.355 202.5,255.5 Z"/></g>
<g><path style="opacity:1" fill="#931816" d="M 200.5,260.5 C 199.142,258.257 199.808,256.591 202.5,255.5C 203.117,255.389 203.617,255.056 204,254.5C 205.559,256.217 206.392,258.217 206.5,260.5C 204.5,260.5 202.5,260.5 200.5,260.5 Z"/></g>
<g><path style="opacity:1" fill="#ec1c23" d="M 175.5,257.5 C 177.527,257.338 179.527,257.505 181.5,258C 184,260.5 186.5,263 189,265.5C 192.918,271.973 192.918,278.306 189,284.5C 189.405,280.879 189.405,277.213 189,273.5C 185.639,266.48 180.139,261.98 172.5,260C 173.571,259.148 174.571,258.315 175.5,257.5 Z"/></g>
<g><path style="opacity:1" fill="#c2c3c2" d="M 248.5,324.5 C 239.441,306.714 230.608,288.714 222,270.5C 221.508,266.369 220.841,262.369 220,258.5C 229.995,280.33 239.495,302.33 248.5,324.5 Z"/></g>
<g><path style="opacity:1" fill="#fefffe" d="M 376.5,276.5 C 376.784,286.05 377.784,295.384 379.5,304.5C 379.343,305.873 379.51,307.207 380,308.5C 380.333,308.167 380.667,307.833 381,307.5C 381.333,294.5 381.667,281.5 382,268.5C 385,266.167 388,263.833 391,261.5C 392.735,281.478 394.735,301.478 397,321.5C 397.667,326.5 397.667,331.5 397,336.5C 385.021,325.517 372.188,315.684 358.5,307C 342.833,299.281 326.833,292.448 310.5,286.5C 309.496,280.815 308.329,275.148 307,269.5C 304.802,259.313 306.635,257.813 312.5,265C 320.682,270.424 329.348,274.758 338.5,278C 348.54,278.795 358.54,278.462 368.5,277C 370.754,275.623 372.92,274.123 375,272.5C 375.21,274.058 375.71,275.391 376.5,276.5 Z"/></g>
<g><path style="opacity:1" fill="#a2a2a2" d="M 212.5,248.5 C 213.482,249.141 214.482,249.807 215.5,250.5C 217.432,249.48 219.432,249.313 221.5,250C 217.403,251.324 216.736,253.49 219.5,256.5C 219.315,261.021 218.981,265.521 218.5,270C 216.741,270.798 215.074,270.631 213.5,269.5C 211.26,264.274 208.926,259.107 206.5,254C 208.996,252.669 210.996,250.836 212.5,248.5 Z"/></g>
<g><path style="opacity:1" fill="#3f47cc" d="M 231.5,262.5 C 232.464,265.074 233.964,267.408 236,269.5C 236.333,273.5 236.667,277.5 237,281.5C 243.933,293.684 248.266,306.684 250,320.5C 242.363,303.392 234.863,286.225 227.5,269C 228.713,266.738 230.046,264.571 231.5,262.5 Z"/></g>
<g><path style="opacity:1" fill="#fec90d" d="M 241.5,262.5 C 242.5,262.5 243.5,262.5 244.5,262.5C 244.5,263.5 244.5,264.5 244.5,265.5C 243.5,265.5 242.5,265.5 241.5,265.5C 241.5,264.5 241.5,263.5 241.5,262.5 Z"/></g>
<g><path style="opacity:1" fill="#ec1c23" d="M 168.5,263.5 C 172.059,263.408 175.392,264.241 178.5,266C 181.031,269.191 183.531,272.358 186,275.5C 186.826,281.517 184.659,286.184 179.5,289.5C 170.373,286.708 164.707,280.708 162.5,271.5C 163.561,268.009 165.561,265.342 168.5,263.5 Z"/></g>
<g><path style="opacity:1" fill="#fec90d" d="M 243.5,268.5 C 244.5,268.5 245.5,268.5 246.5,268.5C 246.5,269.5 246.5,270.5 246.5,271.5C 245.5,271.5 244.5,271.5 243.5,271.5C 243.5,270.5 243.5,269.5 243.5,268.5 Z"/></g>
<g><path style="opacity:1" fill="#9e9e9e" d="M 379.5,304.5 C 377.784,295.384 376.784,286.05 376.5,276.5C 375.789,273.136 376.956,270.803 380,269.5C 380.826,281.341 380.659,293.007 379.5,304.5 Z"/></g>
<g><path style="opacity:1" fill="#959695" d="M 238.5,270.5 C 243.659,282.467 248.159,294.8 252,307.5C 252.667,309.5 252.667,311.5 252,313.5C 248.669,301.848 244.335,290.514 239,279.5C 238.502,276.518 238.335,273.518 238.5,270.5 Z"/></g>
<g><path style="opacity:1" fill="#b87a56" d="M 219.5,271.5 C 230.597,293.529 241.597,315.695 252.5,338C 250.391,339.141 248.558,340.641 247,342.5C 236.201,319.256 225.701,295.922 215.5,272.5C 217.099,272.768 218.432,272.434 219.5,271.5 Z"/></g>
<g><path style="opacity:1" fill="#870014" d="M 212.5,274.5 C 217.403,282.393 221.237,290.727 224,299.5C 221.257,297.212 218.423,295.045 215.5,293C 209.93,287.641 208.93,281.474 212.5,274.5 Z"/></g>
<g><path style="opacity:1" fill="#fec90d" d="M 247.5,274.5 C 248.5,274.5 249.5,274.5 250.5,274.5C 250.5,275.5 250.5,276.5 250.5,277.5C 249.5,277.5 248.5,277.5 247.5,277.5C 247.5,276.5 247.5,275.5 247.5,274.5 Z"/></g>
<g><path style="opacity:1" fill="#fec90d" d="M 249.5,280.5 C 250.5,280.5 251.5,280.5 252.5,280.5C 252.5,281.5 252.5,282.5 252.5,283.5C 251.5,283.5 250.5,283.5 249.5,283.5C 249.5,282.5 249.5,281.5 249.5,280.5 Z"/></g>
<g><path style="opacity:1" fill="#870014" d="M 145.5,281.5 C 147.675,281.682 149.675,282.349 151.5,283.5C 153.761,282.352 156.095,281.852 158.5,282C 144.839,287.332 133.839,295.998 125.5,308C 121.608,307.713 120.775,305.879 123,302.5C 129.888,297.396 136.555,292.063 143,286.5C 143.847,284.807 144.68,283.14 145.5,281.5 Z"/></g>
<g><path style="opacity:1" fill="#585858" d="M 205.5,281.5 C 206.167,281.5 206.5,281.833 206.5,282.5C 203.711,287.123 200.045,290.956 195.5,294C 191.081,294.725 187.081,293.892 183.5,291.5C 186.362,289.24 189.362,287.24 192.5,285.5C 196.403,283.102 200.736,281.769 205.5,281.5 Z"/></g>
<g><path style="opacity:1" fill="#929292" d="M 212.5,333.5 C 198.668,333.367 185.335,331.034 172.5,326.5C 171.722,325.844 171.056,325.011 170.5,324C 172.529,314.58 175.362,305.413 179,296.5C 179.656,294.014 181.156,292.347 183.5,291.5C 187.081,293.892 191.081,294.725 195.5,294C 200.045,290.956 203.711,287.123 206.5,282.5C 207.117,282.389 207.617,282.056 208,281.5C 208.154,285.098 209.154,288.431 211,291.5C 215.408,295.743 220.241,299.409 225.5,302.5C 226.553,303.438 227.22,304.605 227.5,306C 224.129,314.82 223.129,323.82 224.5,333C 220.514,333.499 216.514,333.666 212.5,333.5 Z"/></g>
<g><path style="opacity:1" fill="#870014" d="M 296.5,281.5 C 297.5,281.5 298.5,281.5 299.5,281.5C 299.714,283.144 299.38,284.644 298.5,286C 294.847,286.773 291.347,287.94 288,289.5C 287.505,287.527 287.338,285.527 287.5,283.5C 290.727,283.324 293.727,282.657 296.5,281.5 Z"/></g>
<g><path style="opacity:1" fill="#870014" d="M 301.5,281.5 C 303.98,282.912 306.313,284.578 308.5,286.5C 309.326,287.451 309.492,288.451 309,289.5C 306.899,288.076 304.733,286.742 302.5,285.5C 301.754,284.264 301.421,282.93 301.5,281.5 Z"/></g>
<g><path style="opacity:1" fill="#fdfdfd" d="M 188.5,432.5 C 187.155,430.303 185.989,427.97 185,425.5C 178.562,432.604 172.895,440.27 168,448.5C 164.707,450.896 161.207,452.896 157.5,454.5C 155.813,454.24 154.313,453.573 153,452.5C 151.915,453.293 150.748,453.96 149.5,454.5C 148.113,449.267 148.779,444.267 151.5,439.5C 150.042,438.218 148.708,438.218 147.5,439.5C 146.624,439.631 145.957,439.298 145.5,438.5C 148.265,427.315 149.765,415.982 150,404.5C 141.579,391.992 132.913,379.658 124,367.5C 113.742,349.035 114.076,330.702 125,312.5C 129.564,304.881 135.397,298.381 142.5,293C 149.009,289.245 155.676,285.745 162.5,282.5C 167.157,286.983 172.49,290.483 178.5,293C 174.142,302.074 170.975,311.574 169,321.5C 166.672,334.125 165.005,346.792 164,359.5C 176.195,364.843 188.695,367.843 201.5,368.5C 208.861,369.113 216.194,369.947 223.5,371C 221.919,372.828 220.585,374.828 219.5,377C 218.451,377.492 217.451,377.326 216.5,376.5C 215.306,379.32 215.306,382.153 216.5,385C 215.115,386.597 214.449,388.43 214.5,390.5C 210.551,390.693 210.551,391.193 214.5,392C 215.958,394.46 217.791,396.627 220,398.5C 220.667,399.5 220.667,400.5 220,401.5C 209.557,412.111 199.057,422.444 188.5,432.5 Z"/></g>
<g><path style="opacity:1" fill="#fec90d" d="M 280.5,291.5 C 280.201,289.396 280.534,287.396 281.5,285.5C 281.906,286.557 281.906,287.891 281.5,289.5C 282.822,289.67 283.989,289.337 285,288.5C 285.085,286.915 285.251,285.582 285.5,284.5C 287.431,289.25 285.764,291.583 280.5,291.5 Z"/></g>
<g><path style="opacity:1" fill="#fefffe" d="M 130.5,293.5 C 129.345,291.175 127.345,290.008 124.5,290C 115.18,287.559 106.18,288.393 97.5,292.5C 98.1667,292.833 98.8333,293.167 99.5,293.5C 107.36,290.385 115.36,289.885 123.5,292C 108.048,290.928 94.5484,295.428 83,305.5C 82.1004,304.23 80.9337,303.23 79.5,302.5C 81.6499,299.849 83.9832,297.349 86.5,295C 90.1122,293.861 93.4456,292.194 96.5,290C 109.179,285.663 121.846,285.83 134.5,290.5C 133.533,291.984 132.2,292.984 130.5,293.5 Z"/></g>
<g><path style="opacity:1" fill="#fec90d" d="M 251.5,286.5 C 252.5,286.5 253.5,286.5 254.5,286.5C 254.5,287.5 254.5,288.5 254.5,289.5C 253.5,289.5 252.5,289.5 251.5,289.5C 251.5,288.5 251.5,287.5 251.5,286.5 Z"/></g>
<g><path style="opacity:1" fill="#fefffe" d="M 63.5,287.5 C 72.5184,288.447 81.5184,289.614 90.5,291C 88.7536,291.471 87.087,292.138 85.5,293C 82.3226,295.678 79.3226,298.512 76.5,301.5C 67.3681,301.101 60.0348,297.267 54.5,290C 57.6282,289.159 60.6282,288.325 63.5,287.5 Z"/></g>
<g><path style="opacity:1" fill="#b47755" d="M 299.5,287.5 C 302.27,293.482 304.27,299.816 305.5,306.5C 302.482,306.335 299.482,306.502 296.5,307C 299.833,307.333 303.167,307.667 306.5,308C 300.332,313.084 293.332,316.584 285.5,318.5C 283.971,318.471 282.804,317.804 282,316.5C 280.333,311.5 278.667,306.5 277,301.5C 276.219,300.056 276.386,298.723 277.5,297.5C 284.289,292.8 291.623,289.467 299.5,287.5 Z"/></g>
<g><path style="opacity:1" fill="#870014" d="M 280.5,291.5 C 279.337,294.238 277.503,295.238 275,294.5C 274.583,291.716 275.75,289.716 278.5,288.5C 279.176,289.602 279.842,290.602 280.5,291.5 Z"/></g>
<g><path style="opacity:1" fill="#870014" d="M 303.5,289.5 C 305.963,289.781 308.13,290.781 310,292.5C 312.146,299.086 313.98,305.753 315.5,312.5C 311.441,312.566 307.441,312.733 303.5,313C 305.744,311.578 307.41,309.744 308.5,307.5C 306.826,301.482 305.16,295.482 303.5,289.5 Z"/></g>
<g><path style="opacity:1" fill="#870014" d="M 312.5,290.5 C 335.198,298.182 356.198,309.015 375.5,323C 382.982,329.572 390.649,335.905 398.5,342C 397.565,345.458 397.398,348.958 398,352.5C 394.635,346.129 390.135,340.629 384.5,336C 371.526,324.17 356.86,314.837 340.5,308C 331.668,303.671 322.668,299.837 313.5,296.5C 313.167,294.5 312.833,292.5 312.5,290.5 Z"/></g>
<g><path style="opacity:1" fill="#fefffe" d="M 130.5,293.5 C 126.988,298.095 122.322,300.929 116.5,302C 97.8067,314.024 81.6401,328.858 68,346.5C 64.5838,344.208 61.0838,342.041 57.5,340C 65.1667,329.667 72.8333,319.333 80.5,309C 87.9247,303.621 95.9247,299.287 104.5,296C 111.997,295.331 119.33,294.164 126.5,292.5C 127.736,293.246 129.07,293.579 130.5,293.5 Z"/></g>
<g><path style="opacity:1" fill="#fec90d" d="M 252.5,292.5 C 253.5,292.5 254.5,292.5 255.5,292.5C 255.5,293.5 255.5,294.5 255.5,295.5C 254.5,295.5 253.5,295.5 252.5,295.5C 252.5,294.5 252.5,293.5 252.5,292.5 Z"/></g>
<g><path style="opacity:1" fill="#000000" d="M 114.5,295.5 C 115.978,295.238 117.311,295.571 118.5,296.5C 113.664,298.46 108.664,299.96 103.5,301C 99.8878,302.139 96.5544,303.806 93.5,306C 86.8014,312.364 80.4681,319.031 74.5,326C 73.6683,326.688 73.0016,326.521 72.5,325.5C 78.6158,317.882 85.2825,310.715 92.5,304C 99.4484,299.94 106.782,297.107 114.5,295.5 Z"/></g>
<g><path style="opacity:1" fill="#fec90d" d="M 255.5,299.5 C 256.5,299.5 257.5,299.5 258.5,299.5C 258.5,300.5 258.5,301.5 258.5,302.5C 257.5,302.5 256.5,302.5 255.5,302.5C 255.5,301.5 255.5,300.5 255.5,299.5 Z"/></g>
<g><path style="opacity:1" fill="#f8f8f8" d="M 406.5,446.5 C 407.038,448.117 407.371,449.784 407.5,451.5C 404.23,451.302 402.23,452.802 401.5,456C 399.276,456.04 397.276,456.206 395.5,456.5C 392.443,451.934 388.776,447.767 384.5,444C 368.696,432.43 351.696,422.93 333.5,415.5C 331.216,408.93 328.382,402.597 325,396.5C 320.268,389.427 315.935,382.094 312,374.5C 311.005,370.855 310.172,367.188 309.5,363.5C 310.5,363.5 311.5,363.5 312.5,363.5C 310.179,351.062 308.179,338.562 306.5,326C 308.317,323.068 310.984,321.068 314.5,320C 316.584,318.499 317.917,316.499 318.5,314C 317.359,309.579 316.026,305.246 314.5,301C 335.828,308.665 355.828,318.998 374.5,332C 383.085,338.583 390.252,346.416 396,355.5C 396.691,364.301 395.025,372.635 391,380.5C 388.333,384.5 385.667,388.5 383,392.5C 381.456,390.532 380.289,388.365 379.5,386C 382.525,380.118 385.692,374.285 389,368.5C 389.828,364.129 389.661,359.795 388.5,355.5C 389.236,365.315 385.903,373.315 378.5,379.5C 376.147,383.423 375.98,387.423 378,391.5C 386.274,404.772 394.941,417.772 404,430.5C 407.5,434 411,437.5 414.5,441C 411.518,441.498 408.518,441.665 405.5,441.5C 405.216,443.415 405.549,445.081 406.5,446.5 Z"/></g>
<g><path style="opacity:1" fill="#fefffe" d="M 118.5,304.5 C 121.258,309.24 119.924,310.407 114.5,308C 116.093,307.051 117.426,305.885 118.5,304.5 Z"/></g>
<g><path style="opacity:1" fill="#fec90d" d="M 256.5,305.5 C 257.5,305.5 258.5,305.5 259.5,305.5C 259.5,306.5 259.5,307.5 259.5,308.5C 258.5,308.5 257.5,308.5 256.5,308.5C 256.5,307.5 256.5,306.5 256.5,305.5 Z"/></g>
<g><path style="opacity:1" fill="#fefffe" d="M 74.5,308.5 C 75.525,308.897 75.6917,309.563 75,310.5C 69.3333,318.167 63.6667,325.833 58,333.5C 54.6094,331.016 53.9428,328.016 56,324.5C 62.0639,318.928 68.2306,313.595 74.5,308.5 Z"/></g>
<g><path style="opacity:1" fill="#870014" d="M 228.5,308.5 C 233.061,317.963 237.394,327.63 241.5,337.5C 239.105,343.291 235.938,348.624 232,353.5C 229.363,349.928 227.697,345.928 227,341.5C 226.5,336.5 226,331.5 225.5,326.5C 226.244,320.447 227.244,314.447 228.5,308.5 Z"/></g>
<g><path style="opacity:1" fill="#fec90d" d="M 256.5,311.5 C 257.5,311.5 258.5,311.5 259.5,311.5C 259.5,312.5 259.5,313.5 259.5,314.5C 258.5,314.5 257.5,314.5 256.5,314.5C 256.5,313.5 256.5,312.5 256.5,311.5 Z"/></g>
<g><path style="opacity:1" fill="#fefffe" d="M 104.5,314.5 C 105.239,314.369 105.906,314.536 106.5,315C 98.4132,325.59 94.0799,337.59 93.5,351C 92.0558,353.034 90.0558,353.868 87.5,353.5C 89.1265,338.595 94.7932,325.595 104.5,314.5 Z"/></g>
<g><path style="opacity:1" fill="#870014" d="M 307.5,314.5 C 310.397,314.125 313.063,314.625 315.5,316C 308.677,321.381 301.01,324.381 292.5,325C 290.754,324.529 289.087,323.862 287.5,323C 293.889,319.3 300.556,316.466 307.5,314.5 Z"/></g>
<g><path style="opacity:1" fill="#fec90d" d="M 255.5,317.5 C 256.5,317.5 257.5,317.5 258.5,317.5C 258.5,318.5 258.5,319.5 258.5,320.5C 257.5,320.5 256.5,320.5 255.5,320.5C 255.5,319.5 255.5,318.5 255.5,317.5 Z"/></g>
<g><path style="opacity:1" fill="#870014" d="M 399.5,317.5 C 400.222,317.918 400.722,318.584 401,319.5C 401.44,324.673 401.94,329.839 402.5,335C 402.577,337.051 402.077,338.884 401,340.5C 400.732,332.8 400.232,325.133 399.5,317.5 Z"/></g>
<g><path style="opacity:1" fill="#870014" d="M 284.5,322.5 C 285.872,323.888 286.872,325.555 287.5,327.5C 286.4,336.776 284.233,345.776 281,354.5C 278.266,358.391 275.766,362.391 273.5,366.5C 276.358,377.55 280.858,387.883 287,397.5C 290.175,401.008 293.675,404.175 297.5,407C 288.795,409.395 281.628,407.228 276,400.5C 273.705,397.203 271.038,394.203 268,391.5C 265.265,383.72 262.765,375.887 260.5,368C 267.367,359.434 272.533,349.934 276,339.5C 280.839,334.83 283.673,329.163 284.5,322.5 Z"/></g>
<g><path style="opacity:1" fill="#fec90d" d="M 254.5,323.5 C 255.5,323.5 256.5,323.5 257.5,323.5C 257.5,324.5 257.5,325.5 257.5,326.5C 256.5,326.5 255.5,326.5 254.5,326.5C 254.5,325.5 254.5,324.5 254.5,323.5 Z"/></g>
<g><path style="opacity:1" fill="#c2c3c2" d="M 248.5,324.5 C 251.167,328.164 253,332.164 254,336.5C 251.344,332.856 249.511,328.856 248.5,324.5 Z"/></g>
<g><path style="opacity:1" fill="#8a8a8a" d="M 297.5,332.5 C 295.393,333.468 293.059,333.802 290.5,333.5C 289.503,333.53 288.836,333.03 288.5,332C 288.938,330.08 289.605,328.246 290.5,326.5C 295.35,328.165 299.85,327.498 304,324.5C 304.311,326.556 304.811,328.556 305.5,330.5C 302.694,331.168 300.028,331.834 297.5,332.5 Z"/></g>
<g><path style="opacity:1" fill="#3f47cc" d="M 172.5,326.5 C 185.335,331.034 198.668,333.367 212.5,333.5C 216.298,334.483 220.298,334.817 224.5,334.5C 224.5,336.5 224.5,338.5 224.5,340.5C 223.167,340.5 221.833,340.5 220.5,340.5C 204.21,338.397 187.877,335.73 171.5,332.5C 168.862,330.067 169.195,328.067 172.5,326.5 Z"/></g>
<g><path style="opacity:1" fill="#fefffe" d="M 404.5,326.5 C 407.978,331.434 411.478,336.434 415,341.5C 416.655,347.405 417.322,353.405 417,359.5C 411.97,370.899 404.97,380.899 396,389.5C 398.6,382.944 401.266,376.277 404,369.5C 404.333,364.5 404.667,359.5 405,354.5C 406.443,352.072 407.276,349.405 407.5,346.5C 406.236,339.85 405.236,333.184 404.5,326.5 Z"/></g>
<g><path style="opacity:1" fill="#fefffe" d="M 89.5,327.5 C 90.0431,327.56 90.3764,327.893 90.5,328.5C 85.3905,334.885 81.7239,342.051 79.5,350C 79.9739,351.608 80.6406,351.774 81.5,350.5C 83.0505,346.339 84.8838,342.339 87,338.5C 86.1856,343.443 85.1856,348.443 84,353.5C 80.4132,354.768 76.9132,354.434 73.5,352.5C 72.7469,350.247 71.4136,348.413 69.5,347C 76.6709,340.996 83.3375,334.496 89.5,327.5 Z"/></g>
<g><path style="opacity:1" fill="#6a6a6a" d="M 171.5,332.5 C 187.877,335.73 204.21,338.397 220.5,340.5C 224.275,340.616 225.942,342.616 225.5,346.5C 206.789,346.396 188.455,343.396 170.5,337.5C 167.996,335.458 168.33,333.792 171.5,332.5 Z"/></g>
<g><path style="opacity:1" fill="#3f47cc" d="M 297.5,332.5 C 300.167,332.5 302.833,332.5 305.5,332.5C 305.5,334.167 305.5,335.833 305.5,337.5C 304.167,337.5 302.833,337.5 301.5,337.5C 301.083,336.876 300.416,336.543 299.5,336.5C 295.608,337.136 291.942,338.136 288.5,339.5C 287.352,337.085 288.018,335.085 290.5,333.5C 293.059,333.802 295.393,333.468 297.5,332.5 Z"/></g>
<g><path style="opacity:1" fill="#3f47cc" d="M 170.5,337.5 C 188.455,343.396 206.789,346.396 225.5,346.5C 226.339,347.641 227.006,348.974 227.5,350.5C 224.914,351.48 222.247,351.813 219.5,351.5C 203.305,349.514 186.971,347.514 170.5,345.5C 169.791,344.596 168.791,344.263 167.5,344.5C 167.464,341.539 168.464,339.206 170.5,337.5 Z"/></g>
<g><path style="opacity:1" fill="#727272" d="M 301.5,337.5 C 302.919,338.451 304.585,338.784 306.5,338.5C 306.5,339.5 306.5,340.5 306.5,341.5C 302.958,341.187 299.625,341.521 296.5,342.5C 293.781,343.913 290.781,344.58 287.5,344.5C 286.957,344.44 286.624,344.107 286.5,343.5C 287.18,342.14 287.847,340.807 288.5,339.5C 291.942,338.136 295.608,337.136 299.5,336.5C 300.416,336.543 301.083,336.876 301.5,337.5 Z"/></g>
<g><path style="opacity:1" fill="#c2c3c2" d="M 254.5,338.5 C 256.266,341.188 257.933,344.021 259.5,347C 257.413,347.792 255.579,348.959 254,350.5C 252.303,348.301 250.803,345.968 249.5,343.5C 251.394,342.055 253.06,340.388 254.5,338.5 Z"/></g>
<g><path style="opacity:1" fill="#35389a" d="M 240.5,354.5 C 240.737,353.209 240.404,352.209 239.5,351.5C 238.833,351.5 238.167,351.5 237.5,351.5C 237.5,351.167 237.5,350.833 237.5,350.5C 238.492,350.672 239.158,350.338 239.5,349.5C 242.682,348.86 243.015,347.86 240.5,346.5C 239.475,346.103 239.308,345.437 240,344.5C 242.74,340.897 244.573,341.064 245.5,345C 243.962,348.335 242.295,351.501 240.5,354.5 Z"/></g>
<g><path style="opacity:1" fill="#3f47cc" d="M 296.5,342.5 C 299.898,342.18 303.232,342.513 306.5,343.5C 307.246,344.736 307.579,346.07 307.5,347.5C 302.968,347.182 298.634,347.515 294.5,348.5C 292.585,348.216 290.919,348.549 289.5,349.5C 288.022,349.762 286.689,349.429 285.5,348.5C 286.18,347.14 286.847,345.807 287.5,344.5C 290.781,344.58 293.781,343.913 296.5,342.5 Z"/></g>
<g><path style="opacity:1" fill="#fec90d" d="M 400.5,342.5 C 403.352,342.352 405.019,343.686 405.5,346.5C 403.171,355.852 401.171,355.686 399.5,346C 399.648,344.744 399.982,343.577 400.5,342.5 Z"/></g>
<g><path style="opacity:1" fill="#898989" d="M 170.5,345.5 C 186.971,347.514 203.305,349.514 219.5,351.5C 222.305,352.319 225.305,352.819 228.5,353C 230.978,354.938 231.145,357.105 229,359.5C 227.701,360.98 226.034,361.646 224,361.5C 204.669,360.429 185.502,358.095 166.5,354.5C 166.508,351.455 166.841,348.455 167.5,345.5C 168.5,345.5 169.5,345.5 170.5,345.5 Z"/></g>
<g><path style="opacity:1" fill="#fec90d" d="M 240.5,346.5 C 243.015,347.86 242.682,348.86 239.5,349.5C 239.557,348.391 239.89,347.391 240.5,346.5 Z"/></g>
<g><path style="opacity:1" fill="#3f47cc" d="M 239.5,349.5 C 239.158,350.338 238.492,350.672 237.5,350.5C 237.409,348.302 238.075,347.969 239.5,349.5 Z"/></g>
<g><path style="opacity:1" fill="#939393" d="M 294.5,348.5 C 298.846,348.334 303.179,348.501 307.5,349C 308.218,351.461 308.885,353.961 309.5,356.5C 298.797,358.811 288.13,360.978 277.5,363C 280.373,359.423 282.873,355.589 285,351.5C 286.622,350.901 288.122,350.234 289.5,349.5C 290.919,348.549 292.585,348.216 294.5,348.5 Z"/></g>
<g><path style="opacity:1" fill="#36399d" d="M 237.5,350.5 C 237.5,350.833 237.5,351.167 237.5,351.5C 237.167,352.833 236.833,354.167 236.5,355.5C 235.833,356.167 235.167,356.833 234.5,357.5C 233.167,360.167 233.833,360.833 236.5,359.5C 236.833,359.5 237.167,359.5 237.5,359.5C 233.12,367.245 228.453,374.912 223.5,382.5C 222.478,382.145 221.811,381.478 221.5,380.5C 222.167,379.5 222.833,378.5 223.5,377.5C 222.499,376.211 222.666,374.878 224,373.5C 225.292,374.791 226.458,374.791 227.5,373.5C 228.234,372.292 228.567,370.959 228.5,369.5C 227.185,368.105 227.519,367.105 229.5,366.5C 232.682,365.86 233.015,364.86 230.5,363.5C 229.957,363.44 229.624,363.107 229.5,362.5C 230.806,361.088 231.64,359.421 232,357.5C 233.576,354.814 235.409,352.48 237.5,350.5 Z"/></g>
<g><path style="opacity:1" fill="#fec90d" d="M 237.5,351.5 C 238.167,351.5 238.833,351.5 239.5,351.5C 239.912,353.973 238.912,355.306 236.5,355.5C 236.833,354.167 237.167,352.833 237.5,351.5 Z"/></g>
<g><path style="opacity:1" fill="#7e7f7e" d="M 266.5,353.5 C 267.043,353.56 267.376,353.893 267.5,354.5C 262.889,359.618 262.556,359.285 266.5,353.5 Z"/></g>
<g><path style="opacity:1" fill="#282661" d="M 239.5,351.5 C 240.404,352.209 240.737,353.209 240.5,354.5C 239.89,356.434 238.89,358.101 237.5,359.5C 237.167,359.5 236.833,359.5 236.5,359.5C 236.5,358.167 235.833,357.5 234.5,357.5C 235.167,356.833 235.833,356.167 236.5,355.5C 238.912,355.306 239.912,353.973 239.5,351.5 Z"/></g>
<g><path style="opacity:1" fill="#870014" d="M 399.5,354.5 C 400.117,354.611 400.617,354.944 401,355.5C 400.952,370.64 395.952,383.973 386,395.5C 390.454,387.925 394.454,379.925 398,371.5C 399.029,365.877 399.529,360.21 399.5,354.5 Z"/></g>
<g><path style="opacity:1" fill="#959695" d="M 165.5,356.5 C 186.004,360.251 206.67,362.751 227.5,364C 226.801,366.909 224.967,368.409 222,368.5C 203.362,367.933 185.195,364.767 167.5,359C 166.244,358.583 165.577,357.75 165.5,356.5 Z"/></g>
<g><path style="opacity:1" fill="#fec90d" d="M 234.5,357.5 C 235.833,357.5 236.5,358.167 236.5,359.5C 233.833,360.833 233.167,360.167 234.5,357.5 Z"/></g>
<g><path style="opacity:1" fill="#959695" d="M 306.5,359.5 C 308.103,359.312 309.437,359.812 310.5,361C 299.219,365.625 287.553,367.458 275.5,366.5C 285.806,363.508 296.139,361.175 306.5,359.5 Z"/></g>
<g><path style="opacity:1" fill="#7e7f7e" d="M 260.5,361.5 C 261.525,361.897 261.692,362.563 261,363.5C 258,367.833 255,372.167 252,376.5C 251.25,375.874 250.416,375.374 249.5,375C 253.379,370.626 257.046,366.126 260.5,361.5 Z"/></g>
<g><path style="opacity:1" fill="#fec90d" d="M 230.5,363.5 C 233.015,364.86 232.682,365.86 229.5,366.5C 229.557,365.391 229.89,364.391 230.5,363.5 Z"/></g>
<g><path style="opacity:1" fill="#fefffe" d="M 319.5,395.5 C 315.203,396.655 311.203,398.321 307.5,400.5C 306.078,400.709 304.745,401.209 303.5,402C 306.039,402.796 308.372,402.629 310.5,401.5C 314.425,401.57 318.091,400.903 321.5,399.5C 325.186,401.161 327.186,404.161 327.5,408.5C 318.781,408.797 310.114,408.297 301.5,407C 296.748,404.252 292.581,400.752 289,396.5C 284.032,388.23 279.865,379.563 276.5,370.5C 286.7,369.442 296.7,367.442 306.5,364.5C 309.292,375.085 313.959,384.751 320.5,393.5C 320.137,394.183 319.804,394.85 319.5,395.5 Z"/></g>
<g><path style="opacity:1" fill="#876414" d="M 234.5,368.5 C 239.013,369.84 243.347,371.673 247.5,374C 241.331,377.584 235.331,381.417 229.5,385.5C 228.205,384.902 226.872,384.402 225.5,384C 228.638,378.888 231.638,373.721 234.5,368.5 Z"/></g>
<g><path style="opacity:1" fill="#fec90d" d="M 228.5,369.5 C 228.567,370.959 228.234,372.292 227.5,373.5C 225.14,372.092 225.474,370.759 228.5,369.5 Z"/></g>
<g><path style="opacity:1" fill="#fefffe" d="M 258.5,370.5 C 260.98,377.714 263.48,385.047 266,392.5C 270.534,396.699 274.701,401.199 278.5,406C 272.494,405.779 266.494,405.112 260.5,404C 250.979,401.458 247.979,395.624 251.5,386.5C 256.641,383.241 258.307,378.741 256.5,373C 257.381,372.292 258.047,371.458 258.5,370.5 Z"/></g>
<g><path style="opacity:1" fill="#7e7f7e" d="M 254.5,375.5 C 255.634,380.601 253.467,383.935 248,385.5C 246.566,385.07 245.399,384.236 244.5,383C 247.208,381.931 249.875,380.764 252.5,379.5C 253.705,378.423 254.372,377.09 254.5,375.5 Z"/></g>
<g><path style="opacity:1" fill="#000000" d="M 204.5,377.5 C 205.67,379.65 206.67,381.984 207.5,384.5C 207.167,384.833 206.833,385.167 206.5,385.5C 205.205,382.988 204.539,380.321 204.5,377.5 Z"/></g>
<g><path style="opacity:1" fill="#fec90d" d="M 223.5,377.5 C 222.833,378.5 222.167,379.5 221.5,380.5C 220.282,378.668 220.949,377.668 223.5,377.5 Z"/></g>
<g><path style="opacity:1" fill="#7e7f7e" d="M 245.5,377.5 C 247.199,377.34 248.866,377.506 250.5,378C 240.721,382.438 232.721,389.105 226.5,398C 225.275,398.563 224.275,398.23 223.5,397C 226.595,392.815 229.928,388.815 233.5,385C 237.732,382.725 241.732,380.225 245.5,377.5 Z"/></g>
<g><path style="opacity:1" fill="#fefffe" d="M 410.5,378.5 C 413.207,384.807 415.041,391.474 416,398.5C 418.329,413.129 419.996,427.796 421,442.5C 408.11,430.19 397.277,416.357 388.5,401C 396.684,394.316 404.018,386.816 410.5,378.5 Z"/></g>
<g><path style="opacity:1" fill="#876414" d="M 241.5,384.5 C 243.805,385.787 246.138,387.12 248.5,388.5C 244.96,390.972 241.293,391.139 237.5,389C 239.041,387.629 240.375,386.129 241.5,384.5 Z"/></g>
<g><path style="opacity:1" fill="#000000" d="M 208.5,387.5 C 209.289,387.783 209.956,388.283 210.5,389C 209.184,389.528 208.517,389.028 208.5,387.5 Z"/></g>
<g><path style="opacity:1" fill="#787878" d="M 319.5,395.5 C 323.031,396.225 323.698,397.558 321.5,399.5C 318.091,400.903 314.425,401.57 310.5,401.5C 309.209,401.737 308.209,401.404 307.5,400.5C 311.203,398.321 315.203,396.655 319.5,395.5 Z"/></g>
<g><path style="opacity:1" fill="#000000" d="M 307.5,400.5 C 308.209,401.404 309.209,401.737 310.5,401.5C 308.372,402.629 306.039,402.796 303.5,402C 304.745,401.209 306.078,400.709 307.5,400.5 Z"/></g>
<g><path style="opacity:1" fill="#1c1c1c" d="M 188.5,432.5 C 186.94,436.45 185.94,440.616 185.5,445C 186.556,451.502 187.556,458.002 188.5,464.5C 187.5,464.5 186.5,464.5 185.5,464.5C 181.165,464.262 176.831,463.929 172.5,463.5C 169.514,463.289 166.847,463.956 164.5,465.5C 163.679,468.641 163.179,471.975 163,475.5C 156.337,472.611 149.503,470.111 142.5,468C 139.172,465.514 136.839,462.348 135.5,458.5C 139.415,452.93 142.415,446.93 144.5,440.5C 145.791,440.737 146.791,440.404 147.5,439.5C 148.708,438.218 150.042,438.218 151.5,439.5C 148.779,444.267 148.113,449.267 149.5,454.5C 150.748,453.96 151.915,453.293 153,452.5C 154.313,453.573 155.813,454.24 157.5,454.5C 161.207,452.896 164.707,450.896 168,448.5C 172.895,440.27 178.562,432.604 185,425.5C 185.989,427.97 187.155,430.303 188.5,432.5 Z"/></g>
<g><path style="opacity:1" fill="#1c1c1c" d="M 395.5,488.5 C 394.624,488.631 393.957,488.298 393.5,487.5C 394.648,485.851 395.981,484.351 397.5,483C 395.866,482.506 394.199,482.34 392.5,482.5C 391.111,477.933 392.111,473.933 395.5,470.5C 396.573,469.749 396.74,468.749 396,467.5C 392.975,468.791 392.641,468.124 395,465.5C 395.498,462.518 395.665,459.518 395.5,456.5C 397.276,456.206 399.276,456.04 401.5,456C 402.23,452.802 404.23,451.302 407.5,451.5C 407.371,449.784 407.038,448.117 406.5,446.5C 406.5,445.167 406.5,443.833 406.5,442.5C 409.85,442.335 413.183,442.502 416.5,443C 418.833,445.333 421.167,447.667 423.5,450C 421.271,462.81 414.605,472.477 403.5,479C 400.365,481.698 398.365,484.698 397.5,488C 396.906,488.464 396.239,488.631 395.5,488.5 Z"/></g>
<g><path style="opacity:1" fill="#1b1b1b" d="M 433.5,492.5 C 432.778,492.082 432.278,491.416 432,490.5C 431.667,490.833 431.333,491.167 431,491.5C 431.512,495.388 431.346,499.221 430.5,503C 429.551,503.617 428.718,503.451 428,502.5C 427,500.167 426,497.833 425,495.5C 423.779,496.774 422.946,498.274 422.5,500C 425.424,510.195 428.424,520.362 431.5,530.5C 430.833,531.833 430.167,531.833 429.5,530.5C 428.628,528.55 427.961,526.55 427.5,524.5C 423.405,509.096 417.072,494.263 408.5,480C 416.527,474.795 422.193,467.628 425.5,458.5C 428.397,463.071 430.23,468.071 431,473.5C 432.006,479.369 433.173,485.203 434.5,491C 434.43,491.765 434.097,492.265 433.5,492.5 Z"/></g>
<g><path style="opacity:1" fill="#c2c2c2" d="M 185.5,464.5 C 195.321,473.256 206.655,479.756 219.5,484C 224.215,489.923 228.049,496.423 231,503.5C 239.367,505.466 239.534,507.966 231.5,511C 226.948,512.673 222.281,513.84 217.5,514.5C 217.167,514 216.833,513.5 216.5,513C 218.435,508.191 218.435,503.524 216.5,499C 213.43,496.73 210.763,497.064 208.5,500C 207.5,500.667 206.5,500.667 205.5,500C 193.716,489.44 180.382,481.44 165.5,476C 164.075,474.286 164.408,472.953 166.5,472C 164.75,470.246 164.083,468.079 164.5,465.5C 166.847,463.956 169.514,463.289 172.5,463.5C 176.831,463.929 181.165,464.262 185.5,464.5 Z"/></g>
<g><path style="opacity:1" fill="#c7c8c7" d="M 395.5,470.5 C 392.111,473.933 391.111,477.933 392.5,482.5C 394.199,482.34 395.866,482.506 397.5,483C 395.981,484.351 394.648,485.851 393.5,487.5C 393.957,488.298 394.624,488.631 395.5,488.5C 391.378,493.794 387.044,498.96 382.5,504C 372.576,505.705 362.576,506.539 352.5,506.5C 352.416,499.963 353.749,493.796 356.5,488C 358.167,487.167 359.833,486.333 361.5,485.5C 363.106,487.512 364.273,489.845 365,492.5C 366.049,493.517 367.216,493.684 368.5,493C 372.58,486.256 378.247,481.256 385.5,478C 388.194,475.306 390.86,472.64 393.5,470C 394.437,469.308 395.103,469.475 395.5,470.5 Z"/></g>
<g><path style="opacity:1" fill="#442b1c" d="M 354.5,481.5 C 362.108,481.259 362.108,482.426 354.5,485C 352.959,486.579 351.792,488.413 351,490.5C 350.493,495.889 349.66,501.223 348.5,506.5C 343.234,505.343 337.901,504.509 332.5,504C 337.216,496.284 343.55,490.284 351.5,486C 353.141,484.871 354.141,483.371 354.5,481.5 Z"/></g>
<g><path style="opacity:1" fill="#c3c3c3" d="M 183.5,490.5 C 186.518,491.353 188.351,493.353 189,496.5C 189.423,495.044 190.256,494.544 191.5,495C 195.548,498.716 199.882,502.05 204.5,505C 207.466,505.895 210.133,505.395 212.5,503.5C 212.833,503.833 213.167,504.167 213.5,504.5C 211.731,510.03 210.731,515.53 210.5,521C 208.633,521.711 207.133,521.211 206,519.5C 206.664,516.646 206.498,513.812 205.5,511C 202.791,511.511 200.124,512.345 197.5,513.5C 195.088,513.594 193.255,512.594 192,510.5C 188.339,504.178 185.505,497.512 183.5,490.5 Z"/></g>
<g><path style="opacity:1" fill="#c7c8c7" d="M 433.5,492.5 C 434.76,499.965 436.594,507.298 439,514.5C 444.946,523.992 449.946,533.992 454,544.5C 455.644,547.311 457.81,549.644 460.5,551.5C 454.925,554.534 449.092,557.201 443,559.5C 442.5,559 442,558.5 441.5,558C 444.167,549.673 441.501,544.006 433.5,541C 428.795,536.276 426.795,530.776 427.5,524.5C 427.961,526.55 428.628,528.55 429.5,530.5C 430.167,531.833 430.833,531.833 431.5,530.5C 428.424,520.362 425.424,510.195 422.5,500C 422.946,498.274 423.779,496.774 425,495.5C 426,497.833 427,500.167 428,502.5C 428.718,503.451 429.551,503.617 430.5,503C 431.346,499.221 431.512,495.388 431,491.5C 431.333,491.167 431.667,490.833 432,490.5C 432.278,491.416 432.778,492.082 433.5,492.5 Z"/></g>
<g><path style="opacity:1" fill="#442b1c" d="M 235.5,512.5 C 236.496,512.414 237.329,512.748 238,513.5C 241.813,519.246 243.313,525.413 242.5,532C 237.67,534.86 232.67,535.194 227.5,533C 224.167,531 220.833,529 217.5,527C 215.691,524.151 214.691,520.985 214.5,517.5C 222.042,517.577 229.042,515.91 235.5,512.5 Z"/></g>
<g><path style="opacity:1" fill="#442b1c" d="M 461.5,555.5 C 464.306,559.137 467.639,562.304 471.5,565C 471.167,565.333 470.833,565.667 470.5,566C 463.919,566.187 457.419,566.687 451,567.5C 448.177,566.671 446.343,564.838 445.5,562C 451.036,560.057 456.369,557.89 461.5,555.5 Z"/></g>
</svg>
