<?xml version="1.0" encoding="UTF-8"?>
<!DOCTYPE svg PUBLIC "-//W3C//DTD SVG 1.1//EN" "http://www.w3.org/Graphics/SVG/1.1/DTD/svg11.dtd">
<svg xmlns="http://www.w3.org/2000/svg" version="1.1" width="351px" height="324px" style="shape-rendering:geometricPrecision; text-rendering:geometricPrecision; image-rendering:optimizeQuality; fill-rule:evenodd; clip-rule:evenodd" xmlns:xlink="http://www.w3.org/1999/xlink">
<g><path style="opacity:1" fill="#fefffe" d="M 254.5,16.5 C 263.173,16.3336 271.84,16.5002 280.5,17C 288.365,21.7642 296.698,25.7642 305.5,29C 306.333,29.8333 307.167,30.6667 308,31.5C 308.667,35.8333 308.667,40.1667 308,44.5C 305.667,46.1667 303.333,47.8333 301,49.5C 300.023,51.74 299.523,54.0733 299.5,56.5C 305.549,57.6045 311.549,59.1045 317.5,61C 319.739,64.7325 321.906,68.5658 324,72.5C 325.131,82.7641 325.631,93.0974 325.5,103.5C 325.261,114.86 325.095,126.193 325,137.5C 329.058,138.901 333.058,140.568 337,142.5C 340.03,151.937 341.03,161.603 340,171.5C 337.419,174.789 334.086,176.789 330,177.5C 329.667,180.833 329.333,184.167 329,187.5C 326.307,189.573 323.807,191.74 321.5,194C 323.066,196.912 323.899,200.079 324,203.5C 325.42,218.526 327.087,233.526 329,248.5C 329.375,258.846 329.041,269.179 328,279.5C 326.681,281.487 324.848,282.654 322.5,283C 314.5,283.667 306.5,283.667 298.5,283C 296.671,282.727 295.171,281.893 294,280.5C 293.348,274.979 293.514,269.479 294.5,264C 294.252,258.912 293.086,254.079 291,249.5C 290.399,243.16 289.733,236.826 289,230.5C 287.054,227.861 286.054,224.861 286,221.5C 282.814,217.448 281.647,212.782 282.5,207.5C 280.549,207.227 279.049,207.893 278,209.5C 276.642,215.6 274.975,221.6 273,227.5C 269.27,228.46 265.437,228.793 261.5,228.5C 261.66,226.801 261.494,225.134 261,223.5C 249.858,238.121 242.192,254.454 238,272.5C 236.934,274.099 235.434,275.099 233.5,275.5C 233.015,279.304 231.348,282.471 228.5,285C 216.892,286.579 205.225,286.912 193.5,286C 186.743,284.521 180.243,282.354 174,279.5C 171.58,265.501 177.413,259.334 191.5,261C 193.37,259.634 195.37,258.467 197.5,257.5C 205.09,236.566 212.59,215.566 220,194.5C 228.761,183.316 237.761,172.316 247,161.5C 248.458,153.869 250.291,146.369 252.5,139C 251.527,133.593 251.193,128.093 251.5,122.5C 242.5,123.735 233.5,123.568 224.5,122C 220.033,118.535 215.867,114.702 212,110.5C 209.106,104.938 205.439,99.9384 201,95.5C 200.827,91.4592 200.327,87.4592 199.5,83.5C 197.664,82.081 195.664,80.9143 193.5,80C 178.662,79.4571 163.829,79.6237 149,80.5C 138.492,80.1662 127.992,79.6662 117.5,79C 115.393,77.7365 114.393,75.9032 114.5,73.5C 106.795,73.0787 99.1285,72.2453 91.5,71C 89.3549,68.782 86.6883,67.4486 83.5,67C 65.4148,65.5226 47.4148,63.356 29.5,60.5C 22.1652,59.2131 19.8318,55.0464 22.5,48C 47.8278,46.523 73.1612,46.8563 98.5,49C 99.5,50 100.5,51 101.5,52C 149.5,52.3333 197.5,52.6667 245.5,53C 247.519,53.4497 249.352,54.283 251,55.5C 251.233,53.2199 252.066,51.2199 253.5,49.5C 252.15,48.0499 250.484,47.3832 248.5,47.5C 248.5,44.1667 248.5,40.8333 248.5,37.5C 254.781,37.1309 255.614,35.1309 251,31.5C 250.333,27.1667 250.333,22.8333 251,18.5C 252.302,17.9152 253.469,17.2485 254.5,16.5 Z"/></g>
<g><path style="opacity:1" fill="#000000" d="M 256.5,18.5 C 265.235,18.1241 273.902,18.6241 282.5,20C 288.857,24.7935 295.857,28.4602 303.5,31C 306.428,34.2572 307.262,38.0906 306,42.5C 303.667,44.1667 301.333,45.8333 299,47.5C 297.763,51.0601 297.263,54.7267 297.5,58.5C 303.549,59.6045 309.549,61.1045 315.5,63C 317.739,66.7325 319.906,70.5658 322,74.5C 323.128,84.0964 323.628,93.7631 323.5,103.5C 323.205,115.515 323.038,127.515 323,139.5C 327.058,140.901 331.058,142.568 335,144.5C 337.684,152.623 338.684,160.956 338,169.5C 334.984,173.092 331.151,175.258 326.5,176C 329.415,183.129 327.248,187.963 320,190.5C 317.759,193.525 318.093,196.192 321,198.5C 323.166,217.832 325.333,237.165 327.5,256.5C 326.934,263.495 326.434,270.495 326,277.5C 325.167,278.333 324.333,279.167 323.5,280C 315.913,281.563 308.246,281.896 300.5,281C 298.671,280.727 297.171,279.893 296,278.5C 295.574,273.66 295.74,268.827 296.5,264C 296.44,258.228 295.273,252.728 293,247.5C 292.399,241.16 291.733,234.826 291,228.5C 289.054,225.861 288.054,222.861 288,219.5C 284.814,215.448 283.647,210.782 284.5,205.5C 281.753,205.187 279.086,205.52 276.5,206.5C 274.821,212.884 272.988,219.217 271,225.5C 268.619,226.435 266.119,226.768 263.5,226.5C 263.665,222.818 263.499,219.152 263,215.5C 250.026,231.782 241.026,250.115 236,270.5C 234.934,272.099 233.434,273.099 231.5,273.5C 231.015,277.304 229.348,280.471 226.5,283C 209.031,286.431 192.198,284.598 176,277.5C 174.786,272.657 175.953,268.49 179.5,265C 184.051,263.785 188.718,263.119 193.5,263C 195.37,261.634 197.37,260.467 199.5,259.5C 207.09,238.566 214.59,217.566 222,196.5C 230.761,185.316 239.761,174.316 249,163.5C 250.707,155.3 252.54,147.133 254.5,139C 253.606,132.869 253.273,126.702 253.5,120.5C 244.482,121.878 235.482,121.711 226.5,120C 222.033,116.535 217.867,112.702 214,108.5C 211.106,102.938 207.439,97.9384 203,93.5C 202.498,89.7589 202.498,86.0922 203,82.5C 200.749,80.6227 198.249,79.1227 195.5,78C 179.994,77.3859 164.494,77.5525 149,78.5C 139.162,78.0923 129.329,77.5923 119.5,77C 117.393,75.7365 116.393,73.9032 116.5,71.5C 108.795,71.0787 101.129,70.2453 93.5,69C 91.3549,66.782 88.6883,65.4486 85.5,65C 67.4148,63.5226 49.4148,61.356 31.5,58.5C 29.0915,57.6718 26.7582,56.6718 24.5,55.5C 23.2404,53.6471 23.2404,51.8138 24.5,50C 26.5,49.6667 28.5,49.3333 30.5,49C 52.5208,48.7626 74.5208,49.4293 96.5,51C 97.5,52 98.5,53 99.5,54C 147.5,54.3333 195.5,54.6667 243.5,55C 246.758,56.4665 250.092,57.6332 253.5,58.5C 253.576,54.5673 254.909,51.0673 257.5,48C 255.431,46.4766 253.097,45.6432 250.5,45.5C 250.5,43.5 250.5,41.5 250.5,39.5C 259.974,38.2301 260.807,34.8968 253,29.5C 252.333,26.5 252.333,23.5 253,20.5C 254.302,19.9152 255.469,19.2485 256.5,18.5 Z"/></g>
<g><path style="opacity:1" fill="#e12709" d="M 260.5,23.5 C 266.577,23.1959 272.577,23.6959 278.5,25C 285.946,29.706 293.613,34.0394 301.5,38C 299.167,39.5 296.833,41 294.5,42.5C 285.839,37.5006 276.505,34.6673 266.5,34C 263.554,31.0541 260.554,28.0541 257.5,25C 258.737,24.7679 259.737,24.2679 260.5,23.5 Z"/></g>
<g><path style="opacity:1" fill="#fed609" d="M 263.5,34.5 C 273.759,35.3146 283.425,38.148 292.5,43C 293.93,44.8803 293.596,46.3803 291.5,47.5C 282.271,43.0902 272.604,40.0902 262.5,38.5C 263.246,37.2638 263.579,35.9305 263.5,34.5 Z"/></g>
<g><path style="opacity:1" fill="#8d5e44" d="M 277.5,46.5 C 276.549,47.9187 276.216,49.5853 276.5,51.5C 275.929,53.36 275.929,55.0267 276.5,56.5C 275.49,59.3301 273.823,61.8301 271.5,64C 267,64.8333 265.167,63 266,58.5C 269.231,55.1182 270.731,51.1182 270.5,46.5C 269.41,45.1429 268.076,44.1429 266.5,43.5C 265.048,42.6981 263.382,42.1981 261.5,42C 267.738,41.3904 273.738,42.3904 279.5,45C 278.584,45.2784 277.918,45.7784 277.5,46.5 Z"/></g>
<g><path style="opacity:1" fill="#f2b14b" d="M 266.5,43.5 C 268.076,44.1429 269.41,45.1429 270.5,46.5C 267.715,48.0951 264.715,49.0951 261.5,49.5C 261.5,47.5 261.5,45.5 261.5,43.5C 263.167,43.5 264.833,43.5 266.5,43.5 Z"/></g>
<g><path style="opacity:1" fill="#000000" d="M 263.5,45.5 C 266.001,45.5109 266.168,46.1776 264,47.5C 263.536,46.9056 263.369,46.2389 263.5,45.5 Z"/></g>
<g><path style="opacity:1" fill="#fade99" d="M 270.5,46.5 C 270.731,51.1182 269.231,55.1182 266,58.5C 265.167,63 267,64.8333 271.5,64C 273.823,61.8301 275.49,59.3301 276.5,56.5C 277.167,56.5 277.833,56.5 278.5,56.5C 279.167,56.8333 279.833,57.1667 280.5,57.5C 280.229,59.3797 280.896,60.713 282.5,61.5C 277.25,63.2268 272.917,66.3935 269.5,71C 267.527,71.4955 265.527,71.6621 263.5,71.5C 262.766,70.2921 262.433,68.9587 262.5,67.5C 263.705,66.3281 263.705,64.9948 262.5,63.5C 263.025,62.8076 263.692,62.3076 264.5,62C 260.517,61.77 259.851,60.4366 262.5,58C 260.423,57.8078 258.423,57.3078 256.5,56.5C 257.943,53.9235 259.61,51.5901 261.5,49.5C 264.715,49.0951 267.715,48.0951 270.5,46.5 Z"/></g>
<g><path style="opacity:1" fill="#000000" d="M 277.5,46.5 C 277.904,47.7564 278.571,48.9231 279.5,50C 279.106,52.2803 278.106,52.7803 276.5,51.5C 276.216,49.5853 276.549,47.9187 277.5,46.5 Z"/></g>
<g><path style="opacity:1" fill="#fee39b" d="M 277.5,46.5 C 280.5,46.1667 281.833,47.5 281.5,50.5C 280.566,51.5676 280.232,52.901 280.5,54.5C 279.5,54.8333 278.833,55.5 278.5,56.5C 277.833,56.5 277.167,56.5 276.5,56.5C 275.929,55.0267 275.929,53.36 276.5,51.5C 278.106,52.7803 279.106,52.2803 279.5,50C 278.571,48.9231 277.904,47.7564 277.5,46.5 Z"/></g>
<g><path style="opacity:1" fill="#ae7352" d="M 282.5,61.5 C 280.896,60.713 280.229,59.3797 280.5,57.5C 280.5,56.5 280.5,55.5 280.5,54.5C 280.232,52.901 280.566,51.5676 281.5,50.5C 282.161,49.2825 282.828,47.9492 283.5,46.5C 286.125,47.7639 288.792,48.9305 291.5,50C 292.456,53.3936 292.789,56.8936 292.5,60.5C 289.572,60.8516 286.738,61.5183 284,62.5C 283.617,61.944 283.117,61.6107 282.5,61.5 Z"/></g>
<g><path style="opacity:1" fill="#7e7f7e" d="M 28.5,53.5 C 30.9779,52.8359 33.6445,52.5025 36.5,52.5C 53.8125,53.9049 71.1458,54.9049 88.5,55.5C 88.5,56.8333 88.5,58.1667 88.5,59.5C 68.43,57.9907 48.43,55.9907 28.5,53.5 Z"/></g>
<g><path style="opacity:1" fill="#000000" d="M 280.5,54.5 C 280.5,55.5 280.5,56.5 280.5,57.5C 279.833,57.1667 279.167,56.8333 278.5,56.5C 278.833,55.5 279.5,54.8333 280.5,54.5 Z"/></g>
<g><path style="opacity:1" fill="#7e7f7e" d="M 89.5,55.5 C 92.0842,55.5688 94.0842,56.7355 95.5,59C 93.7505,60.3186 91.7505,60.8186 89.5,60.5C 89.5,58.8333 89.5,57.1667 89.5,55.5 Z"/></g>
<g><path style="opacity:1" fill="#7e7f7e" d="M 97.5,59.5 C 130.015,58.3504 162.681,58.6838 195.5,60.5C 191.5,60.8333 187.5,61.1667 183.5,61.5C 154.836,60.6734 126.169,60.0067 97.5,59.5 Z"/></g>
<g><path style="opacity:1" fill="#fee39b" d="M 201.5,64.5 C 205.849,67.3411 210.516,69.6745 215.5,71.5C 216.23,72.7124 217.23,73.7124 218.5,74.5C 215.506,75.6625 212.84,77.3291 210.5,79.5C 207.167,77.5 203.833,75.5 200.5,73.5C 200.405,71.7855 200.072,70.1188 199.5,68.5C 198.974,66.7697 197.974,65.4363 196.5,64.5C 196.181,62.2495 196.681,60.2495 198,58.5C 198.876,60.7582 200.043,62.7582 201.5,64.5 Z"/></g>
<g><path style="opacity:1" fill="#7e7f7e" d="M 200.5,59.5 C 212.838,59.3335 225.171,59.5001 237.5,60C 231.331,61.1493 224.998,61.6493 218.5,61.5C 212.128,61.496 206.128,60.8293 200.5,59.5 Z"/></g>
<g><path style="opacity:1" fill="#71462f" d="M 247.5,64.5 C 247.281,65.675 247.614,66.675 248.5,67.5C 249.622,66.3698 250.956,65.7031 252.5,65.5C 255.983,66.0101 259.316,66.6768 262.5,67.5C 262.433,68.9587 262.766,70.2921 263.5,71.5C 264.568,72.4345 265.901,72.7678 267.5,72.5C 267.33,73.8221 267.663,74.9887 268.5,76C 266.152,76.1102 264.652,77.2769 264,79.5C 259.292,73.9967 255.292,74.3301 252,80.5C 251.809,78.2922 251.309,76.2922 250.5,74.5C 249.833,74.8333 249.167,75.1667 248.5,75.5C 248.167,75.5 247.833,75.5 247.5,75.5C 246.5,75.5 245.5,75.5 244.5,75.5C 244.167,75.5 243.833,75.5 243.5,75.5C 242.791,74.596 241.791,74.2627 240.5,74.5C 239.737,73.7321 238.737,73.2321 237.5,73C 230.194,72.0578 222.86,71.5578 215.5,71.5C 210.516,69.6745 205.849,67.3411 201.5,64.5C 213.326,63.6693 225.326,63.1693 237.5,63C 241.183,59.9673 244.516,60.4673 247.5,64.5 Z"/></g>
<g><path style="opacity:1" fill="#774931" d="M 196.5,64.5 C 197.974,65.4363 198.974,66.7697 199.5,68.5C 196.854,69.1644 194.021,69.4978 191,69.5C 168.629,68.9067 146.296,67.9067 124,66.5C 123,66.8333 122,67.1667 121,67.5C 113.145,66.289 105.311,64.9556 97.5,63.5C 97.2907,62.914 96.9574,62.414 96.5,62C 129.914,61.8613 163.247,62.6947 196.5,64.5 Z"/></g>
<g><path style="opacity:1" fill="#fee39b" d="M 252.5,65.5 C 250.956,65.7031 249.622,66.3698 248.5,67.5C 247.614,66.675 247.281,65.675 247.5,64.5C 249.707,63.2607 252.041,62.7607 254.5,63C 253.619,63.7083 252.953,64.5416 252.5,65.5 Z"/></g>
<g><path style="opacity:1" fill="#b5b5b5" d="M 285.5,65.5 C 280.151,66.822 275.484,69.4887 271.5,73.5C 269.895,74.9687 269.395,74.6354 270,72.5C 276.369,65.4579 284.203,62.4579 293.5,63.5C 290.694,64.1676 288.028,64.8343 285.5,65.5 Z"/></g>
<g><path style="opacity:1" fill="#fed609" d="M 293.5,71.5 C 289.84,71.1588 286.507,71.8255 283.5,73.5C 279.277,73.7719 275.277,73.7719 271.5,73.5C 275.484,69.4887 280.151,66.822 285.5,65.5C 289.059,65.7155 292.559,65.3822 296,64.5C 298.034,65.9442 298.868,67.9442 298.5,70.5C 296.585,70.2155 294.919,70.5489 293.5,71.5 Z"/></g>
<g><path style="opacity:1" fill="#fefffe" d="M 309.5,67.5 C 308.07,67.4208 306.736,67.7542 305.5,68.5C 300.539,67.621 300.372,66.621 305,65.5C 306.876,65.5247 308.376,66.1914 309.5,67.5 Z"/></g>
<g><path style="opacity:1" fill="#fefffe" d="M 309.5,67.5 C 312.001,67.8256 313.168,69.1589 313,71.5C 311.624,70.2949 310.458,68.9616 309.5,67.5 Z"/></g>
<g><path style="opacity:1" fill="#fefffe" d="M 122.5,68.5 C 147.792,69.8883 173.125,71.055 198.5,72C 181.992,72.2859 165.492,72.7859 149,73.5C 140.503,72.9446 132.003,72.4446 123.5,72C 121.627,71.0471 121.294,69.8804 122.5,68.5 Z"/></g>
<g><path style="opacity:1" fill="#6b0c12" d="M 306.5,73.5 C 308.006,76.356 308.672,79.5226 308.5,83C 307.893,91.2493 306.726,99.416 305,107.5C 298.666,123.49 291.833,139.157 284.5,154.5C 283.442,155.6 282.608,156.934 282,158.5C 280.955,157.627 280.122,156.627 279.5,155.5C 279.328,154.508 279.662,153.842 280.5,153.5C 288.166,136.82 295.333,119.82 302,102.5C 304.267,93.6194 304.934,84.6194 304,75.5C 303.837,73.324 303.004,71.4907 301.5,70C 302.167,69.3333 302.833,69.3333 303.5,70C 304.163,71.5185 305.163,72.6851 306.5,73.5 Z"/></g>
<g><path style="opacity:1" fill="#fefffe" d="M 284.5,154.5 C 291.833,139.157 298.666,123.49 305,107.5C 306.726,99.416 307.893,91.2493 308.5,83C 308.672,79.5226 308.006,76.356 306.5,73.5C 306.312,71.8967 306.812,70.5634 308,69.5C 313.838,73.981 316.338,79.981 315.5,87.5C 314.408,97.5359 311.908,107.203 308,116.5C 301.755,129.323 295.255,141.99 288.5,154.5C 287.042,155.782 285.708,155.782 284.5,154.5 Z"/></g>
<g><path style="opacity:1" fill="#b2b2b2" d="M 293.5,71.5 C 295.857,71.3367 298.19,71.5034 300.5,72C 294.71,73.5188 289.044,74.0188 283.5,73.5C 286.507,71.8255 289.84,71.1588 293.5,71.5 Z"/></g>
<g><path style="opacity:1" fill="#fefffe" d="M 220.5,74.5 C 221.274,73.8529 222.274,73.5195 223.5,73.5C 227.864,73.9697 232.198,74.6364 236.5,75.5C 231.143,76.0989 225.81,75.7656 220.5,74.5 Z"/></g>
<g><path style="opacity:1" fill="#fee39b" d="M 240.5,74.5 C 240.782,78.5878 240.115,79.0878 238.5,76C 238.836,74.9701 239.503,74.4701 240.5,74.5 Z"/></g>
<g><path style="opacity:1" fill="#fee39b" d="M 250.5,74.5 C 250.875,77.3965 250.375,80.0632 249,82.5C 248.503,80.1902 248.337,77.8568 248.5,75.5C 249.167,75.1667 249.833,74.8333 250.5,74.5 Z"/></g>
<g><path style="opacity:1" fill="#fefffe" d="M 273.5,78.5 C 273.5,78.1667 273.5,77.8333 273.5,77.5C 275.516,74.8562 278.183,74.0228 281.5,75C 278.929,76.4538 276.262,77.6205 273.5,78.5 Z"/></g>
<g><path style="opacity:1" fill="#e62807" d="M 297.5,74.5 C 299.451,74.2267 300.951,74.8934 302,76.5C 302.774,83.2236 302.441,89.8903 301,96.5C 295.874,89.0399 289.707,82.5399 282.5,77C 287.661,76.2677 292.661,75.4344 297.5,74.5 Z"/></g>
<g><path style="opacity:1" fill="#fee39b" d="M 243.5,75.5 C 243.762,76.9778 243.429,78.3112 242.5,79.5C 242.167,78.8333 241.833,78.1667 241.5,77.5C 241.747,76.2867 242.414,75.62 243.5,75.5 Z"/></g>
<g><path style="opacity:1" fill="#fee39b" d="M 244.5,75.5 C 245.5,75.5 246.5,75.5 247.5,75.5C 247.799,77.604 247.466,79.604 246.5,81.5C 244.717,79.9775 244.051,77.9775 244.5,75.5 Z"/></g>
<g><path style="opacity:1" fill="#fed609" d="M 273.5,77.5 C 271.62,77.2291 270.287,77.8958 269.5,79.5C 268.448,79.6495 267.448,79.4828 266.5,79C 267.833,78 269.167,77 270.5,76C 271.998,75.4153 272.998,75.9153 273.5,77.5 Z"/></g>
<g><path style="opacity:1" fill="#fed609" d="M 222.5,78.5 C 223.117,80.2292 224.117,81.7292 225.5,83C 225.167,83.1667 224.833,83.3333 224.5,83.5C 222.599,81.9937 220.932,80.3271 219.5,78.5C 219.369,77.6236 219.702,76.9569 220.5,76.5C 221.182,77.2427 221.849,77.9094 222.5,78.5 Z"/></g>
<g><path style="opacity:1" fill="#fefffe" d="M 256.5,77.5 C 261.675,78.488 263.842,81.488 263,86.5C 258.754,89.5145 255.254,88.6811 252.5,84C 254.058,81.9481 255.392,79.7815 256.5,77.5 Z"/></g>
<g><path style="opacity:1" fill="#9b9b9b" d="M 273.5,77.5 C 273.5,77.8333 273.5,78.1667 273.5,78.5C 272.295,80.1376 270.962,80.4709 269.5,79.5C 270.287,77.8958 271.62,77.2291 273.5,77.5 Z"/></g>
<g><path style="opacity:1" fill="#fefffe" d="M 278.5,78.5 C 280.308,78.4914 281.975,78.9914 283.5,80C 289.742,85.5714 295.242,91.738 300,98.5C 300.288,101.472 299.455,104.139 297.5,106.5C 292.764,99.5886 287.43,93.0886 281.5,87C 278.661,85.0797 275.661,83.4131 272.5,82C 274.727,81.059 276.727,79.8923 278.5,78.5 Z"/></g>
<g><path style="opacity:1" fill="#e62807" d="M 318.5,111.5 C 316.074,114.013 314.408,117.013 313.5,120.5C 312.275,119.063 311.275,117.396 310.5,115.5C 315.483,103.601 317.649,91.268 317,78.5C 318.431,89.4225 318.931,100.422 318.5,111.5 Z"/></g>
<g><path style="opacity:1" fill="#fed609" d="M 215.5,79.5 C 216.543,82.0562 218.21,84.2228 220.5,86C 217.307,85.9957 214.974,84.4957 213.5,81.5C 213.5,80.1667 214.167,79.5 215.5,79.5 Z"/></g>
<g><path style="opacity:1" fill="#fefffe" d="M 233.5,81.5 C 233.56,80.9569 233.893,80.6236 234.5,80.5C 237.533,82.7964 240.867,84.6297 244.5,86C 242.635,87.3014 240.635,87.6347 238.5,87C 237.167,84.8094 235.5,82.976 233.5,81.5 Z"/></g>
<g><path style="opacity:1" fill="#8a8a8a" d="M 219.5,78.5 C 220.932,80.3271 222.599,81.9937 224.5,83.5C 224.833,83.3333 225.167,83.1667 225.5,83C 224.117,81.7292 223.117,80.2292 222.5,78.5C 222.897,77.475 223.563,77.3083 224.5,78C 226.085,80.0693 227.419,82.236 228.5,84.5C 226.058,86.2258 223.391,87.7258 220.5,89C 218.361,91.4784 216.361,93.9784 214.5,96.5C 211.844,94.4016 209.511,91.9016 207.5,89C 208.044,88.2828 208.711,87.7828 209.5,87.5C 210.962,88.4577 212.295,89.6244 213.5,91C 214.332,91.6877 214.998,91.521 215.5,90.5C 213.81,88.4807 212.144,86.4807 210.5,84.5C 210.5,82.5 211.5,81.5 213.5,81.5C 214.974,84.4957 217.307,85.9957 220.5,86C 218.21,84.2228 216.543,82.0562 215.5,79.5C 216.403,77.3796 217.737,77.0462 219.5,78.5 Z"/></g>
<g><path style="opacity:1" fill="#e62807" d="M 265.5,81.5 C 279.998,86.6632 290.331,96.3298 296.5,110.5C 291.625,122.623 286.459,134.623 281,146.5C 280.101,148.327 278.767,149.66 277,150.5C 271.618,148.116 267.951,144.116 266,138.5C 264.908,133.187 263.908,127.853 263,122.5C 258.909,120.975 258.409,118.642 261.5,115.5C 266.282,117.745 269.448,116.412 271,111.5C 271.865,102.961 270.198,94.9605 266,87.5C 265.505,85.5273 265.338,83.5273 265.5,81.5 Z"/></g>
<g><path style="opacity:1" fill="#fed609" d="M 210.5,84.5 C 212.144,86.4807 213.81,88.4807 215.5,90.5C 214.998,91.521 214.332,91.6877 213.5,91C 212.295,89.6244 210.962,88.4577 209.5,87.5C 208.185,86.1054 208.519,85.1054 210.5,84.5 Z"/></g>
<g><path style="opacity:1" fill="#e02708" d="M 228.5,84.5 C 230.361,87.0216 232.361,89.5216 234.5,92C 234.167,92.3333 233.833,92.6667 233.5,93C 234.448,93.4828 235.448,93.6495 236.5,93.5C 236.351,94.552 236.517,95.552 237,96.5C 240.565,94.3022 244.399,92.4689 248.5,91C 250.049,89.786 251.215,88.286 252,86.5C 255.431,90.8941 259.431,91.5608 264,88.5C 268.904,96.4104 270.071,104.744 267.5,113.5C 265.833,114.666 264.166,114.666 262.5,113.5C 258.133,108.978 252.8,105.978 246.5,104.5C 244.813,104.76 243.313,105.427 242,106.5C 240.643,109.898 238.81,112.898 236.5,115.5C 234.473,115.662 232.473,115.495 230.5,115C 223.521,110.192 218.187,104.025 214.5,96.5C 216.361,93.9784 218.361,91.4784 220.5,89C 223.391,87.7258 226.058,86.2258 228.5,84.5 Z"/></g>
<g><path style="opacity:1" fill="#aa1f13" d="M 262.5,113.5 C 260.801,113.38 259.135,113.046 257.5,112.5C 250.666,115.286 243.666,116.286 236.5,115.5C 238.81,112.898 240.643,109.898 242,106.5C 243.313,105.427 244.813,104.76 246.5,104.5C 252.8,105.978 258.133,108.978 262.5,113.5 Z"/></g>
<g><path style="opacity:1" fill="#aa1f13" d="M 318.5,111.5 C 318.757,117.898 318.257,124.231 317,130.5C 315.925,127.106 314.758,123.772 313.5,120.5C 314.408,117.013 316.074,114.013 318.5,111.5 Z"/></g>
<g><path style="opacity:1" fill="#fefffe" d="M 308.5,119.5 C 311.908,122.637 314.075,126.637 315,131.5C 316.167,136.167 317.333,140.833 318.5,145.5C 318.167,146.167 317.833,146.833 317.5,147.5C 313.934,139.641 310.267,131.808 306.5,124C 307.582,122.67 308.249,121.17 308.5,119.5 Z"/></g>
<g><path style="opacity:1" fill="#5c0e10" d="M 260.5,127.5 C 261.418,135.484 263.752,143.151 267.5,150.5C 266.789,152.842 265.456,153.175 263.5,151.5C 261.733,149.208 260.733,146.542 260.5,143.5C 259.997,138.485 259.33,133.485 258.5,128.5C 258.667,126.833 258.833,125.167 259,123.5C 259.21,125.058 259.71,126.391 260.5,127.5 Z"/></g>
<g><path style="opacity:1" fill="#fefffe" d="M 267.5,150.5 C 263.752,143.151 261.418,135.484 260.5,127.5C 260.343,126.127 260.51,124.793 261,123.5C 261.752,131.176 263.752,138.509 267,145.5C 269.016,147.684 271.183,149.684 273.5,151.5C 271.194,152.771 269.194,152.438 267.5,150.5 Z"/></g>
<g><path style="opacity:1" fill="#e62807" d="M 304.5,127.5 C 305.376,127.369 306.043,127.702 306.5,128.5C 308.199,131.768 309.365,135.101 310,138.5C 308.649,136.981 307.149,135.648 305.5,134.5C 304.522,134.977 303.689,135.643 303,136.5C 302.626,135.584 302.126,134.75 301.5,134C 302.914,132.007 303.914,129.84 304.5,127.5 Z"/></g>
<g><path style="opacity:1" fill="#eee4af" d="M 299.5,137.5 C 300.097,137.735 300.43,138.235 300.5,139C 298.371,143.975 296.871,149.141 296,154.5C 294.144,156.406 291.977,157.24 289.5,157C 292.987,150.525 296.32,144.025 299.5,137.5 Z"/></g>
<g><path style="opacity:1" fill="#fefffe" d="M 308.5,142.5 C 307.833,141.167 306.833,140.167 305.5,139.5C 304.031,137.895 304.365,137.395 306.5,138C 307.687,139.019 308.687,140.186 309.5,141.5C 309.376,142.107 309.043,142.44 308.5,142.5 Z"/></g>
<g><path style="opacity:1" fill="#981e13" d="M 305.5,139.5 C 306.833,140.167 307.833,141.167 308.5,142.5C 306.571,145.135 303.905,145.968 300.5,145C 302.402,143.27 304.069,141.437 305.5,139.5 Z"/></g>
<g><path style="opacity:1" fill="#e3d9a8" d="M 260.5,143.5 C 260.733,146.542 261.733,149.208 263.5,151.5C 261.6,154.249 259.433,156.916 257,159.5C 255.543,163.741 255.209,168.074 256,172.5C 257.7,175.52 259.366,178.52 261,181.5C 261.333,180.833 261.667,180.167 262,179.5C 268.803,186.506 275.803,186.506 283,179.5C 286.98,172.738 287.48,165.738 284.5,158.5C 287.928,159.679 291.595,159.679 295.5,158.5C 295.714,160.144 295.38,161.644 294.5,163C 295.76,165.213 296.426,167.713 296.5,170.5C 296.025,177.169 295.525,183.835 295,190.5C 294.553,195.941 291.72,199.108 286.5,200C 277.833,200.667 269.167,200.667 260.5,200C 254.194,197.178 251.194,192.178 251.5,185C 253.732,176.992 254.898,168.825 255,160.5C 256.279,154.541 258.113,148.874 260.5,143.5 Z"/></g>
<g><path style="opacity:1" fill="#e42708" d="M 308.5,187.5 C 308.882,179.113 308.882,170.779 308.5,162.5C 307.178,162.33 306.011,162.663 305,163.5C 304.667,158.833 304.333,154.167 304,149.5C 303.5,156.158 303.334,162.825 303.5,169.5C 302.672,175.653 302.172,181.987 302,188.5C 300.89,190.037 299.39,190.703 297.5,190.5C 298.48,179.99 298.48,169.49 297.5,159C 298.25,155.17 298.917,151.337 299.5,147.5C 304.138,147.528 308.638,146.861 313,145.5C 313.333,145.833 313.667,146.167 314,146.5C 313.956,148.279 313.289,149.945 312,151.5C 311.333,158.833 311.333,166.167 312,173.5C 314.685,173.827 317.518,173.827 320.5,173.5C 320.779,176.118 321.446,178.618 322.5,181C 318.574,184.759 313.907,186.925 308.5,187.5 Z"/></g>
<g><path style="opacity:1" fill="#fefffe" d="M 280.5,153.5 C 279.662,153.842 279.328,154.508 279.5,155.5C 272.693,153.482 272.859,152.149 280,151.5C 280.464,152.094 280.631,152.761 280.5,153.5 Z"/></g>
<g><path style="opacity:1" fill="#1094d3" d="M 265.5,156.5 C 269.383,156.109 273.05,156.776 276.5,158.5C 279.003,157.45 280.503,158.45 281,161.5C 282.425,169.816 279.258,175.65 271.5,179C 265.136,179.605 260.47,177.105 257.5,171.5C 257.329,164.834 259.996,159.834 265.5,156.5 Z"/></g>
<g><path style="opacity:1" fill="#00a1e8" d="M 283.5,162.5 C 286.082,171.506 283.082,178.006 274.5,182C 272.833,182.667 271.167,182.667 269.5,182C 279.442,179.232 284.109,172.732 283.5,162.5 Z"/></g>
<g><path style="opacity:1" fill="#951e13" d="M 308.5,187.5 C 306.958,188.301 305.292,188.634 303.5,188.5C 303.5,182.167 303.5,175.833 303.5,169.5C 303.334,162.825 303.5,156.158 304,149.5C 304.333,154.167 304.667,158.833 305,163.5C 306.011,162.663 307.178,162.33 308.5,162.5C 308.882,170.779 308.882,179.113 308.5,187.5 Z"/></g>
<g><path style="opacity:1" fill="#4c4c4c" d="M 251.5,169.5 C 252.097,169.735 252.43,170.235 252.5,171C 249.422,178.359 248.922,185.859 251,193.5C 253.411,199.469 257.911,202.636 264.5,203C 257.93,212.217 251.43,221.384 245,230.5C 238.626,242.623 233.626,255.29 230,268.5C 227.936,269.591 225.769,269.758 223.5,269C 218.008,266.421 212.675,263.588 207.5,260.5C 206.369,258.926 206.202,257.259 207,255.5C 213.941,236.011 221.274,216.678 229,197.5C 236.757,188.288 244.257,178.955 251.5,169.5 Z"/></g>
<g><path style="opacity:1" fill="#4a4a49" d="M 312.5,199.5 C 309.707,203.632 306.04,206.632 301.5,208.5C 297.644,208.145 293.644,207.978 289.5,208C 291.974,202.886 294.308,197.719 296.5,192.5C 301.987,190.974 307.654,189.974 313.5,189.5C 313.747,192.939 313.414,196.272 312.5,199.5 Z"/></g>
<g><path style="opacity:1" fill="#33332f" d="M 312.5,199.5 C 313.962,200.458 315.295,201.624 316.5,203C 315.733,204.47 315.067,205.97 314.5,207.5C 312.853,209.326 310.853,210.66 308.5,211.5C 302.132,211.83 295.798,211.496 289.5,210.5C 293.647,209.833 297.647,209.166 301.5,208.5C 306.04,206.632 309.707,203.632 312.5,199.5 Z"/></g>
<g><path style="opacity:1" fill="#4b4b4a" d="M 314.5,207.5 C 315.458,207.953 316.292,208.619 317,209.5C 318.67,226.191 320.503,242.858 322.5,259.5C 315.509,260.582 308.509,261.582 301.5,262.5C 298.796,250.037 296.962,237.37 296,224.5C 294.348,220.892 292.848,217.226 291.5,213.5C 297.319,212.833 302.986,212.167 308.5,211.5C 310.853,210.66 312.853,209.326 314.5,207.5 Z"/></g>
<g><path style="opacity:1" fill="#c2c3c2" d="M 209.5,266.5 C 210.713,267.497 210.546,268.497 209,269.5C 208.53,268.423 208.697,267.423 209.5,266.5 Z"/></g>
<g><path style="opacity:1" fill="#c2c3c2" d="M 205.5,270.5 C 207.085,271.002 207.585,272.002 207,273.5C 205.961,272.756 205.461,271.756 205.5,270.5 Z"/></g>
</svg>
