<?xml version="1.0" encoding="UTF-8"?>
<!DOCTYPE svg PUBLIC "-//W3C//DTD SVG 1.1//EN" "http://www.w3.org/Graphics/SVG/1.1/DTD/svg11.dtd">
<svg xmlns="http://www.w3.org/2000/svg" version="1.1" width="525px" height="539px" style="shape-rendering:geometricPrecision; text-rendering:geometricPrecision; image-rendering:optimizeQuality; fill-rule:evenodd; clip-rule:evenodd" xmlns:xlink="http://www.w3.org/1999/xlink">
<g><path style="opacity:1" fill="#fefffe" d="M 191.5,51.5 C 204.588,47.5673 212.588,52.0673 215.5,65C 219.5,65.3333 223.5,65.6667 227.5,66C 228,66.5 228.5,67 229,67.5C 229.588,74.1874 231.254,80.5208 234,86.5C 234.351,91.1976 234.851,95.8642 235.5,100.5C 238.5,100.5 241.5,100.5 244.5,100.5C 244.666,105.179 244.499,109.845 244,114.5C 242.846,115.743 241.512,116.743 240,117.5C 239.667,121.167 239.333,124.833 239,128.5C 236.219,128.895 234.053,130.228 232.5,132.5C 234.684,135.807 235.017,139.307 233.5,143C 235.57,143.948 237.07,145.448 238,147.5C 238.667,150.833 239.333,154.167 240,157.5C 240.333,171.833 240.667,186.167 241,200.5C 243.497,206.33 247.83,209.997 254,211.5C 283.276,199.644 312.776,187.144 342.5,174C 378.288,158.134 415.288,145.8 453.5,137C 459.22,136.212 464.886,136.379 470.5,137.5C 472.338,142.913 471.338,147.58 467.5,151.5C 446.558,160.981 425.058,168.981 403,175.5C 402.837,177.676 402.004,179.509 400.5,181C 396.833,181.333 393.167,181.667 389.5,182C 381.326,185.668 372.993,188.835 364.5,191.5C 364.663,195.255 362.997,197.755 359.5,199C 334.593,209.022 309.926,219.522 285.5,230.5C 285.822,232.722 285.155,234.556 283.5,236C 276.696,239.12 269.696,241.787 262.5,244C 258.167,244.333 253.833,244.667 249.5,245C 247.099,247.062 244.433,248.729 241.5,250C 240.863,255.249 238.696,259.749 235,263.5C 234.783,268.553 234.283,273.553 233.5,278.5C 237.747,286.662 242.247,294.662 247,302.5C 247.567,314.839 248.234,327.172 249,339.5C 251.163,351.149 253.163,362.816 255,374.5C 255.785,376.286 256.951,377.786 258.5,379C 264.116,381.897 269.949,384.064 276,385.5C 276.667,391.167 276.667,396.833 276,402.5C 274.764,404.538 272.931,405.705 270.5,406C 261.5,406.667 252.5,406.667 243.5,406C 236.135,403.114 228.468,401.78 220.5,402C 219.113,399.955 217.946,397.788 217,395.5C 216.667,390.833 216.333,386.167 216,381.5C 215.333,380.833 214.667,380.167 214,379.5C 212.639,360.719 210.306,342.052 207,323.5C 206.586,323.043 206.086,322.709 205.5,322.5C 201.093,324.536 196.426,325.036 191.5,324C 191,323.5 190.5,323 190,322.5C 189.974,312.673 189.308,303.006 188,293.5C 186.012,300.105 184.012,306.771 182,313.5C 180.349,328.222 178.182,342.889 175.5,357.5C 176.481,365.152 176.647,372.819 176,380.5C 175,381.167 174,381.833 173,382.5C 172.667,387.167 172.333,391.833 172,396.5C 170.263,400.649 169.263,404.983 169,409.5C 166.612,412.634 163.446,414.467 159.5,415C 153.833,415.667 148.167,415.667 142.5,415C 140.101,414.269 137.935,413.102 136,411.5C 134.008,401.019 135.841,391.352 141.5,382.5C 139.987,379.368 139.32,376.034 139.5,372.5C 139.879,366.303 140.545,360.136 141.5,354C 140.016,338.429 140.516,322.929 143,307.5C 143.5,296.172 143.667,284.838 143.5,273.5C 141.146,273.162 138.813,272.662 136.5,272C 131.494,267.474 127.327,262.307 124,256.5C 123.173,247.065 123.84,237.731 126,228.5C 126.707,226.919 127.54,225.419 128.5,224C 119.031,209.187 109.531,194.354 100,179.5C 96.6623,170.45 95.6623,161.117 97,151.5C 99.5641,149.273 102.397,147.439 105.5,146C 117.21,142.893 128.876,139.727 140.5,136.5C 141.331,129.858 141.831,123.191 142,116.5C 143.056,109.219 147.223,106.219 154.5,107.5C 157.223,107.551 159.89,107.884 162.5,108.5C 163.934,106.78 164.767,104.78 165,102.5C 165.75,101.874 166.584,101.374 167.5,101C 171.833,100.333 176.167,100.333 180.5,101C 181.333,101.833 182.167,102.667 183,103.5C 181.496,98.0837 181.163,92.417 182,86.5C 186.273,84.5213 190.44,82.3546 194.5,80C 192,77.5 189.5,75 187,72.5C 186.333,66.8333 186.333,61.1667 187,55.5C 188.667,54.2668 190.167,52.9335 191.5,51.5 Z"/></g>
<g><path style="opacity:1" fill="#010102" d="M 194.5,54.5 C 199.194,53.8955 203.528,54.7289 207.5,57C 210.473,61.3847 212.306,66.218 213,71.5C 217.145,68.0214 221.478,67.6881 226,70.5C 226.588,77.1874 228.254,83.5208 231,89.5C 231.784,92.7603 231.617,95.9269 230.5,99C 232.037,100.11 232.703,101.61 232.5,103.5C 235.5,103.5 238.5,103.5 241.5,103.5C 241.664,106.187 241.497,108.854 241,111.5C 238.5,113.333 236,115.167 233.5,117C 238.14,122.047 237.306,125.547 231,127.5C 230.727,129.329 229.893,130.829 228.5,132C 230.325,133.466 230.825,135.299 230,137.5C 227.704,139.057 225.538,140.724 223.5,142.5C 226.962,144.065 230.295,145.898 233.5,148C 235.293,151.949 236.46,156.115 237,160.5C 237.796,173.526 237.63,186.526 236.5,199.5C 241.299,213.155 250.299,217.155 263.5,211.5C 290.536,201.045 317.869,189.545 345.5,177C 381.288,161.134 418.288,148.8 456.5,140C 460.225,139.24 463.892,139.407 467.5,140.5C 468.833,142.167 468.833,143.833 467.5,145.5C 463.855,148.452 459.855,150.952 455.5,153C 437.323,160.503 418.823,167.003 400,172.5C 399.837,174.676 399.004,176.509 397.5,178C 393.833,178.333 390.167,178.667 386.5,179C 378.326,182.668 369.993,185.835 361.5,188.5C 361.663,192.255 359.997,194.755 356.5,196C 331.593,206.022 306.926,216.522 282.5,227.5C 282.822,229.722 282.155,231.556 280.5,233C 275.635,234.619 270.968,236.619 266.5,239C 262.419,240.292 258.253,241.125 254,241.5C 251.906,241.464 249.906,241.131 248,240.5C 244.943,243.223 241.61,245.556 238,247.5C 237.489,253.838 234.655,258.838 229.5,262.5C 232.408,267.746 232.075,272.746 228.5,277.5C 232.906,287.316 238.072,296.65 244,305.5C 244.567,317.839 245.234,330.172 246,342.5C 248.163,354.149 250.163,365.816 252,377.5C 252.785,379.286 253.951,380.786 255.5,382C 261.116,384.897 266.949,387.064 273,388.5C 273.667,392.167 273.667,395.833 273,399.5C 271.764,401.538 269.931,402.705 267.5,403C 260.5,403.667 253.5,403.667 246.5,403C 239.135,400.114 231.468,398.78 223.5,399C 219.546,393.417 218.546,387.251 220.5,380.5C 219.52,379.019 218.353,377.685 217,376.5C 215.639,357.719 213.306,339.052 210,320.5C 207.513,318.191 205.513,315.524 204,312.5C 203.725,320.827 200.058,323.16 193,319.5C 192.229,311.47 192.396,303.47 193.5,295.5C 191.521,290.877 189.021,286.544 186,282.5C 180.409,308.214 175.576,334.048 171.5,360C 173.348,365.68 173.848,371.513 173,377.5C 171.082,378.542 169.249,379.708 167.5,381C 168.71,383.677 169.377,386.51 169.5,389.5C 167.865,395.045 166.698,400.711 166,406.5C 159.135,412.527 151.302,414.027 142.5,411C 141.421,410.044 140.255,409.211 139,408.5C 138.333,404.833 138.333,401.167 139,397.5C 140.765,392.141 142.931,386.974 145.5,382C 143.773,379.05 142.773,375.884 142.5,372.5C 143.372,366.355 144.039,360.188 144.5,354C 142.808,336.499 143.808,319.165 147.5,302C 146.535,291.54 146.201,281.04 146.5,270.5C 144.146,270.162 141.813,269.662 139.5,269C 125.206,257.694 122.372,243.861 131,227.5C 132.873,225.291 135.04,223.458 137.5,222C 134.062,222.135 131.228,220.968 129,218.5C 121.822,205.32 113.822,192.653 105,180.5C 100.196,172.426 98.5293,163.759 100,154.5C 102.564,152.273 105.397,150.439 108.5,149C 117.979,145.904 127.645,143.571 137.5,142C 139.949,141.275 142.283,140.275 144.5,139C 144.497,132.619 144.664,126.119 145,119.5C 145.58,113.613 148.747,110.613 154.5,110.5C 158.534,111.04 162.534,111.707 166.5,112.5C 166.368,104.889 170.035,102.056 177.5,104C 180.186,106.546 181.186,109.713 180.5,113.5C 181.675,113.719 182.675,113.386 183.5,112.5C 184.467,109.566 185.8,106.9 187.5,104.5C 187.353,101.89 186.519,99.5563 185,97.5C 184.333,94.8333 184.333,92.1667 185,89.5C 189.869,87.2645 194.702,84.9312 199.5,82.5C 197.716,77.2071 194.549,72.8738 190,69.5C 189.333,65.8333 189.333,62.1667 190,58.5C 191.667,57.2668 193.167,55.9335 194.5,54.5 Z"/></g>
<g><path style="opacity:1" fill="#edeeed" d="M 197.5,58.5 C 202.584,58.7414 205.751,61.4081 207,66.5C 207.972,70.8064 208.806,75.1397 209.5,79.5C 208.531,82.1535 206.864,82.8202 204.5,81.5C 202.782,75.2772 199.282,70.2772 194,66.5C 193.333,64.8333 193.333,63.1667 194,61.5C 195.518,60.8366 196.685,59.8366 197.5,58.5 Z"/></g>
<g><path style="opacity:1" fill="#1f202f" d="M 208.5,89.5 C 203.957,90.2925 199.624,91.7925 195.5,94C 193.098,94.8141 190.765,94.6474 188.5,93.5C 195.681,89.7434 203.014,86.2434 210.5,83C 211.126,82.2496 211.626,81.4162 212,80.5C 212.301,84.1012 211.134,87.1012 208.5,89.5 Z"/></g>
<g><path style="opacity:1" fill="#fec90d" d="M 225.5,99.5 C 224.701,96.5701 224.368,93.5701 224.5,90.5C 225.222,90.0825 225.722,89.4158 226,88.5C 229.411,92.5186 229.244,96.1853 225.5,99.5 Z"/></g>
<g><path style="opacity:1" fill="#edeeed" d="M 208.5,90.5 C 208.5,90.1667 208.5,89.8333 208.5,89.5C 209.609,89.5569 210.609,89.8902 211.5,90.5C 212.935,91.9848 212.768,93.3181 211,94.5C 210.066,93.1416 209.232,91.8083 208.5,90.5 Z"/></g>
<g><path style="opacity:1" fill="#1f1e2d" d="M 206.5,94.5 C 206.59,97.1522 205.924,99.4855 204.5,101.5C 200.569,103.433 196.902,105.767 193.5,108.5C 192.883,108.389 192.383,108.056 192,107.5C 191.608,103.472 191.108,99.4724 190.5,95.5C 196.062,95.14 201.228,93.4734 206,90.5C 206.49,91.7932 206.657,93.1266 206.5,94.5 Z"/></g>
<g><path style="opacity:1" fill="#edeeed" d="M 208.5,90.5 C 208.013,95.6905 208.013,100.69 208.5,105.5C 207.821,107.814 206.488,108.147 204.5,106.5C 203.948,104.997 203.948,103.331 204.5,101.5C 205.924,99.4855 206.59,97.1522 206.5,94.5C 207.167,93.1667 207.833,91.8333 208.5,90.5 Z"/></g>
<g><path style="opacity:1" fill="#11111a" d="M 224.5,90.5 C 224.368,93.5701 224.701,96.5701 225.5,99.5C 226.167,100.167 226.833,100.833 227.5,101.5C 226.5,101.5 225.5,101.5 224.5,101.5C 222.799,102.211 221.799,103.545 221.5,105.5C 223.803,106.231 226.136,106.564 228.5,106.5C 228.081,107.672 227.415,108.672 226.5,109.5C 223.461,110.569 220.461,111.735 217.5,113C 222.245,113.086 226.245,111.419 229.5,108C 232.554,107.179 235.554,107.345 238.5,108.5C 235.525,111.323 232.192,113.656 228.5,115.5C 225.615,115.194 222.948,115.527 220.5,116.5C 219.209,116.263 218.209,116.596 217.5,117.5C 216.833,118.833 216.167,120.167 215.5,121.5C 215.5,120.167 215.5,118.833 215.5,117.5C 213.833,117.5 212.167,117.5 210.5,117.5C 209.624,117.631 208.957,117.298 208.5,116.5C 209.793,112.701 209.793,109.034 208.5,105.5C 208.013,100.69 208.013,95.6905 208.5,90.5C 209.232,91.8083 210.066,93.1416 211,94.5C 212.768,93.3181 212.935,91.9848 211.5,90.5C 212.637,86.5828 213.47,82.5828 214,78.5C 215.364,75.6367 217.53,73.6367 220.5,72.5C 221.086,72.7093 221.586,73.0426 222,73.5C 222.998,79.155 223.832,84.8217 224.5,90.5 Z"/></g>
<g><path style="opacity:1" fill="#edeeed" d="M 213.5,93.5 C 216.085,94.4654 216.585,95.7988 215,97.5C 212.5,96.8424 212,95.5091 213.5,93.5 Z"/></g>
<g><path style="opacity:1" fill="#edeeed" d="M 217.5,96.5 C 219.104,97.287 219.771,98.6203 219.5,100.5C 215.334,100.392 214.667,99.0587 217.5,96.5 Z"/></g>
<g><path style="opacity:1" fill="#edeeed" d="M 220.5,99.5 C 221.434,100.568 221.768,101.901 221.5,103.5C 220.325,103.719 219.325,103.386 218.5,102.5C 219.612,101.735 220.279,100.735 220.5,99.5 Z"/></g>
<g><path style="opacity:1" fill="#edeeed" d="M 224.5,101.5 C 224.33,102.822 224.663,103.989 225.5,105C 224.207,105.49 222.873,105.657 221.5,105.5C 221.799,103.545 222.799,102.211 224.5,101.5 Z"/></g>
<g><path style="opacity:1" fill="#edeeed" d="M 227.5,101.5 C 229.625,102.368 229.791,103.368 228,104.5C 224.963,103.68 224.796,102.68 227.5,101.5 Z"/></g>
<g><path style="opacity:1" fill="#edeeed" d="M 193.5,108.5 C 196.81,108.539 199.476,107.206 201.5,104.5C 201.833,104.833 202.167,105.167 202.5,105.5C 200.949,107.884 199.615,110.384 198.5,113C 199.577,115.564 198.744,116.064 196,114.5C 195.062,112.512 194.228,110.512 193.5,108.5 Z"/></g>
<g><path style="opacity:1" fill="#eef0e0" d="M 173.5,107.5 C 177.836,111.332 177.169,114.165 171.5,116C 178.596,121.921 179.763,128.754 175,136.5C 173.867,138.211 172.367,138.711 170.5,138C 172.719,134.845 174.052,131.345 174.5,127.5C 173.592,123.188 172.259,119.021 170.5,115C 170.678,112.071 171.678,109.571 173.5,107.5 Z"/></g>
<g><path style="opacity:1" fill="#edeeed" d="M 202.5,107.5 C 204.435,108.15 206.435,108.483 208.5,108.5C 208.852,111.073 208.352,113.406 207,115.5C 204.553,114.594 202.053,113.761 199.5,113C 200.758,111.259 201.758,109.426 202.5,107.5 Z"/></g>
<g><path style="opacity:1" fill="#eef0e0" d="M 188.5,111.5 C 190.969,112.607 191.969,114.607 191.5,117.5C 189.712,117.785 188.045,117.452 186.5,116.5C 187.95,115.15 188.617,113.484 188.5,111.5 Z"/></g>
<g><path style="opacity:1" fill="#6a6b9c" d="M 153.5,114.5 C 157.004,115.455 159.171,117.789 160,121.5C 161.037,127.394 160.371,133.061 158,138.5C 153.828,140.939 150.995,139.605 149.5,134.5C 149.662,128.845 151.495,123.845 155,119.5C 157.477,122.724 158.143,126.39 157,130.5C 154.92,137.075 153.42,136.742 152.5,129.5C 153.489,124.306 154.656,124.306 156,129.5C 157.238,126.074 156.071,124.408 152.5,124.5C 151.485,128.469 151.485,132.469 152.5,136.5C 153.978,136.762 155.311,136.429 156.5,135.5C 158.41,130.658 158.91,125.658 158,120.5C 154.841,117.659 152.508,118.326 151,122.5C 149.964,125.753 149.297,129.086 149,132.5C 147.44,125.606 148.94,119.606 153.5,114.5 Z"/></g>
<g><path style="opacity:1" fill="#6a6b9c" d="M 159.5,116.5 C 159.917,115.876 160.584,115.543 161.5,115.5C 164.07,116.617 166.737,117.45 169.5,118C 174.937,124.932 174.604,131.598 168.5,138C 166.109,138.287 163.776,138.787 161.5,139.5C 161.167,139.167 160.833,138.833 160.5,138.5C 162.466,132.651 162.966,126.651 162,120.5C 161.392,118.934 160.558,117.6 159.5,116.5 Z"/></g>
<g><path style="opacity:1" fill="#984f2d" d="M 228.5,115.5 C 228.557,116.609 228.89,117.609 229.5,118.5C 227.843,119.575 226.009,120.242 224,120.5C 221.718,119.71 219.552,118.71 217.5,117.5C 218.209,116.596 219.209,116.263 220.5,116.5C 222.948,115.527 225.615,115.194 228.5,115.5 Z"/></g>
<g><path style="opacity:1" fill="#f8f8f8" d="M 220.5,116.5 C 221.5,116.5 222.5,116.5 223.5,116.5C 223.557,117.609 223.89,118.609 224.5,119.5C 222.596,119.262 221.262,118.262 220.5,116.5 Z"/></g>
<g><path style="opacity:1" fill="#000000" d="M 223.5,116.5 C 228.478,116.147 228.812,117.147 224.5,119.5C 223.89,118.609 223.557,117.609 223.5,116.5 Z"/></g>
<g><path style="opacity:1" fill="#6a6b9c" d="M 176.5,117.5 C 184.649,115.605 188.316,118.772 187.5,127C 187.196,130.511 186.863,134.011 186.5,137.5C 182.869,138.412 179.203,138.579 175.5,138C 177.615,134.989 178.949,131.655 179.5,128C 178.596,124.455 177.596,120.955 176.5,117.5 Z"/></g>
<g><path style="opacity:1" fill="#e58208" d="M 210.5,117.5 C 212.167,117.5 213.833,117.5 215.5,117.5C 215.5,118.833 215.5,120.167 215.5,121.5C 214.903,121.735 214.57,122.235 214.5,123C 215.5,124.667 216.5,126.333 217.5,128C 216.902,129.301 215.902,130.135 214.5,130.5C 212.474,127.103 210.474,123.77 208.5,120.5C 208.389,119.883 208.056,119.383 207.5,119C 208.737,118.768 209.737,118.268 210.5,117.5 Z"/></g>
<g><path style="opacity:1" fill="#e1a884" d="M 217.5,117.5 C 219.552,118.71 221.718,119.71 224,120.5C 226.009,120.242 227.843,119.575 229.5,118.5C 234.752,121.258 234.585,123.258 229,124.5C 228.768,127.738 227.268,130.238 224.5,132C 225.579,132.956 226.745,133.789 228,134.5C 228.617,135.449 228.451,136.282 227.5,137C 225.305,138.373 222.971,138.706 220.5,138C 217.5,136.5 214.5,135 211.5,133.5C 210.304,133.846 210.304,134.346 211.5,135C 218.795,138.402 217.795,139.735 208.5,139C 206.146,138.153 203.812,137.32 201.5,136.5C 200.194,135.533 199.527,134.199 199.5,132.5C 200.512,131.128 201.512,129.795 202.5,128.5C 204.557,128.043 204.557,127.043 202.5,125.5C 201.322,123.662 201.655,121.995 203.5,120.5C 205.167,120.5 206.833,120.5 208.5,120.5C 210.474,123.77 212.474,127.103 214.5,130.5C 215.902,130.135 216.902,129.301 217.5,128C 216.5,126.333 215.5,124.667 214.5,123C 214.57,122.235 214.903,121.735 215.5,121.5C 216.167,120.167 216.833,118.833 217.5,117.5 Z"/></g>
<g><path style="opacity:1" fill="#eef0e0" d="M 187.5,118.5 C 188.5,118.5 189.5,118.5 190.5,118.5C 190.632,121.889 190.799,125.223 191,128.5C 188.787,125.628 187.62,122.295 187.5,118.5 Z"/></g>
<g><path style="opacity:1" fill="#e58208" d="M 203.5,120.5 C 201.655,121.995 201.322,123.662 202.5,125.5C 202.5,126.5 202.5,127.5 202.5,128.5C 201.512,129.795 200.512,131.128 199.5,132.5C 198.778,132.918 198.278,133.584 198,134.5C 196.333,133.167 194.667,131.833 193,130.5C 192.111,126.848 191.778,123.182 192,119.5C 192.414,119.043 192.914,118.709 193.5,118.5C 196.971,119.097 200.305,119.764 203.5,120.5 Z"/></g>
<g><path style="opacity:1" fill="#000000" d="M 206.5,123.5 C 208.185,124.184 209.185,125.517 209.5,127.5C 207.678,128.429 206.345,127.762 205.5,125.5C 205.863,124.817 206.196,124.15 206.5,123.5 Z"/></g>
<g><path style="opacity:1" fill="#000000" d="M 202.5,125.5 C 204.557,127.043 204.557,128.043 202.5,128.5C 202.5,127.5 202.5,126.5 202.5,125.5 Z"/></g>
<g><path style="opacity:1" fill="#eef0e0" d="M 201.5,136.5 C 201.068,141.998 201.735,147.331 203.5,152.5C 198.926,152.485 194.76,150.818 191,147.5C 188.676,141.583 188.343,135.583 190,129.5C 193.184,133.004 197.018,135.337 201.5,136.5 Z"/></g>
<g><path style="opacity:1" fill="#5b74ff" d="M 163.5,139.5 C 167.846,139.334 172.179,139.501 176.5,140C 176.957,140.414 177.291,140.914 177.5,141.5C 173.489,142.227 169.489,142.893 165.5,143.5C 163.204,142.632 162.537,141.298 163.5,139.5 Z"/></g>
<g><path style="opacity:1" fill="#870014" d="M 198.5,169.5 C 200.043,174.024 202.377,178.024 205.5,181.5C 209.776,189.466 214.11,197.466 218.5,205.5C 217.833,206.833 217.167,206.833 216.5,205.5C 203.96,183.585 191.293,161.751 178.5,140C 179.449,139.383 180.282,139.549 181,140.5C 186.356,150.562 192.19,160.229 198.5,169.5 Z"/></g>
<g><path style="opacity:1" fill="#5b74ff" d="M 202.5,159.5 C 201.521,162.625 201.187,165.958 201.5,169.5C 200.5,170.833 199.5,170.833 198.5,169.5C 194.866,161.568 190.7,153.901 186,146.5C 185.186,144.098 185.353,141.765 186.5,139.5C 187.817,142.432 188.984,145.432 190,148.5C 193.254,151.535 197.087,153.535 201.5,154.5C 202.452,156.045 202.785,157.712 202.5,159.5 Z"/></g>
<g><path style="opacity:1" fill="#eef0e0" d="M 216.5,139.5 C 217.552,139.351 218.552,139.517 219.5,140C 217.542,142.748 215.709,145.582 214,148.5C 211.382,150.722 208.549,152.222 205.5,153C 210.231,149.374 213.898,144.874 216.5,139.5 Z"/></g>
<g><path style="opacity:1" fill="#5a72fb" d="M 133.5,170.5 C 129.189,166.534 124.523,163.367 119.5,161C 120.126,161.75 120.626,162.584 121,163.5C 124.338,166.008 127.505,168.675 130.5,171.5C 124.971,171.667 120.138,169.667 116,165.5C 116.948,168.801 119.115,171.301 122.5,173C 125.726,174.199 129.059,174.699 132.5,174.5C 132.338,176.527 132.505,178.527 133,180.5C 135.62,184.904 138.12,189.404 140.5,194C 138.345,196.577 135.679,198.411 132.5,199.5C 130.299,198.129 128.299,196.462 126.5,194.5C 124.742,195.446 123.075,195.446 121.5,194.5C 114.428,185.024 108.928,174.691 105,163.5C 104.333,161.833 104.333,160.167 105,158.5C 107.251,156.623 109.751,155.123 112.5,154C 127.876,150.461 143.043,146.294 158,141.5C 159.167,141.667 160.333,141.833 161.5,142C 163.548,143.681 165.715,145.181 168,146.5C 171.512,162.321 165.178,170.654 149,171.5C 143.71,170.6 138.543,170.266 133.5,170.5 Z"/></g>
<g><path style="opacity:1" fill="#7e7f7e" d="M 396.5,168.5 C 396.5,166.167 396.5,163.833 396.5,161.5C 419.087,154.689 441.753,148.522 464.5,143C 442.537,153.377 419.87,161.877 396.5,168.5 Z"/></g>
<g><path style="opacity:1" fill="#eef0e0" d="M 171.5,186.5 C 167.198,190.326 162.865,194.159 158.5,198C 155.773,198.818 153.106,198.652 150.5,197.5C 152.939,194.104 156.272,191.938 160.5,191C 168.583,183.83 172.249,174.83 171.5,164C 171.592,159.05 170.925,154.216 169.5,149.5C 169.09,146.745 170.256,145.412 173,145.5C 174.326,145.755 175.326,146.422 176,147.5C 177.542,156.104 177.876,164.77 177,173.5C 175.688,178.116 173.855,182.449 171.5,186.5 Z"/></g>
<g><path style="opacity:1" fill="#eef0e0" d="M 176.5,146.5 C 177.708,145.218 179.042,145.218 180.5,146.5C 192.833,167.833 205.167,189.167 217.5,210.5C 216.27,213.523 215.103,216.523 214,219.5C 202.512,199.334 190.845,179.334 179,159.5C 178.667,155.833 178.333,152.167 178,148.5C 177.722,147.584 177.222,146.918 176.5,146.5 Z"/></g>
<g><path style="opacity:1" fill="#eef0e0" d="M 205.5,181.5 C 205.123,179.742 204.456,178.075 203.5,176.5C 209.613,167.606 214.113,157.939 217,147.5C 219.8,153.507 220.8,159.84 220,166.5C 215.754,171.991 211.754,177.658 208,183.5C 207.292,182.619 206.458,181.953 205.5,181.5 Z"/></g>
<g><path style="opacity:1" fill="#000000" d="M 446.5,147.5 C 448.379,147.393 448.712,147.893 447.5,149C 431.265,154.968 414.932,160.301 398.5,165C 414.637,159.235 430.637,153.402 446.5,147.5 Z"/></g>
<g><path style="opacity:1" fill="#eef0e0" d="M 220.5,148.5 C 222.512,149.228 224.512,150.062 226.5,151C 227.482,164.375 225.982,177.542 222,190.5C 223.096,176.445 222.596,162.445 220.5,148.5 Z"/></g>
<g><path style="opacity:1" fill="#5b74ff" d="M 204.5,166.5 C 205.473,164.052 205.806,161.385 205.5,158.5C 206.434,157.432 206.768,156.099 206.5,154.5C 208.582,154.528 210.416,153.861 212,152.5C 211.096,158.655 208.763,164.322 205,169.5C 204.517,168.552 204.351,167.552 204.5,166.5 Z"/></g>
<g><path style="opacity:1" fill="#5a73ff" d="M 232.5,206.5 C 228.211,206.796 225.211,208.796 223.5,212.5C 222.537,213.363 222.537,214.03 223.5,214.5C 226.445,212.444 229.612,210.777 233,209.5C 235.796,213.134 239.296,215.801 243.5,217.5C 241.107,219.89 239.107,222.557 237.5,225.5C 234.145,226.846 230.812,228.18 227.5,229.5C 226.793,227.219 225.793,225.052 224.5,223C 221.979,222.671 221.312,223.504 222.5,225.5C 222.657,226.873 222.49,228.207 222,229.5C 219.555,228.023 217.388,226.19 215.5,224C 218.578,209.874 222.411,195.707 227,181.5C 227.858,172.477 228.858,163.477 230,154.5C 232.906,169.434 233.239,184.434 231,199.5C 228.417,200.874 225.917,202.374 223.5,204C 226.188,203.993 228.688,203.16 231,201.5C 231.352,203.247 231.852,204.914 232.5,206.5 Z"/></g>
<g><path style="opacity:1" fill="#9f9f96" d="M 205.5,158.5 C 205.806,161.385 205.473,164.052 204.5,166.5C 203.776,169.083 202.943,171.749 202,174.5C 201.506,172.866 201.34,171.199 201.5,169.5C 201.187,165.958 201.521,162.625 202.5,159.5C 203.161,158.282 203.828,156.949 204.5,155.5C 205.386,156.325 205.719,157.325 205.5,158.5 Z"/></g>
<g><path style="opacity:1" fill="#0d30ff" d="M 133.5,170.5 C 132.766,171.708 132.433,173.041 132.5,174.5C 129.059,174.699 125.726,174.199 122.5,173C 119.115,171.301 116.948,168.801 116,165.5C 120.138,169.667 124.971,171.667 130.5,171.5C 127.505,168.675 124.338,166.008 121,163.5C 120.626,162.584 120.126,161.75 119.5,161C 124.523,163.367 129.189,166.534 133.5,170.5 Z"/></g>
<g><path style="opacity:1" fill="#0d30ff" d="M 169.5,165.5 C 166.976,169.106 163.643,171.772 159.5,173.5C 163.129,170.018 166.296,166.018 169,161.5C 169.49,162.793 169.657,164.127 169.5,165.5 Z"/></g>
<g><path style="opacity:1" fill="#5b74ff" d="M 166.5,212.5 C 161.194,211.861 158.194,208.861 157.5,203.5C 157.709,202.078 158.209,200.745 159,199.5C 162.81,195.6 166.81,191.934 171,188.5C 171.464,187.906 171.631,187.239 171.5,186.5C 174.661,183.525 176.828,179.858 178,175.5C 178.333,171.167 178.667,166.833 179,162.5C 183.5,170.333 188,178.167 192.5,186C 184.328,195.338 175.661,204.172 166.5,212.5 Z"/></g>
<g><path style="opacity:1" fill="#5b74ff" d="M 169.5,165.5 C 169.401,174.7 166.234,182.7 160,189.5C 159.501,184.177 159.334,178.844 159.5,173.5C 163.643,171.772 166.976,169.106 169.5,165.5 Z"/></g>
<g><path style="opacity:1" fill="#7b7b7b" d="M 396.5,168.5 C 395.911,170.352 395.244,172.185 394.5,174C 392.575,173.865 390.575,173.698 388.5,173.5C 387.71,172.391 387.21,171.058 387,169.5C 385.989,168.663 384.822,168.33 383.5,168.5C 347.65,183.264 311.984,198.264 276.5,213.5C 274.666,214.494 272.999,214.494 271.5,213.5C 312.489,196.089 353.656,179.089 395,162.5C 395.191,164.708 395.691,166.708 396.5,168.5 Z"/></g>
<g><path style="opacity:1" fill="#fec90d" d="M 383.5,168.5 C 384.822,168.33 385.989,168.663 387,169.5C 387.21,171.058 387.71,172.391 388.5,173.5C 387.432,174.434 386.099,174.768 384.5,174.5C 384.737,173.209 384.404,172.209 383.5,171.5C 383.5,170.5 383.5,169.5 383.5,168.5 Z"/></g>
<g><path style="opacity:1" fill="#352217" d="M 383.5,168.5 C 383.5,169.5 383.5,170.5 383.5,171.5C 383.762,172.978 383.429,174.311 382.5,175.5C 374.62,178.903 366.62,181.903 358.5,184.5C 357.5,184.5 356.5,184.5 355.5,184.5C 355.5,186.167 355.5,187.833 355.5,189.5C 354.849,188.909 354.182,188.243 353.5,187.5C 329.272,198.448 304.939,209.115 280.5,219.5C 278.318,218.7 276.651,217.2 275.5,215C 276.056,214.617 276.389,214.117 276.5,213.5C 311.984,198.264 347.65,183.264 383.5,168.5 Z"/></g>
<g><path style="opacity:1" fill="#5b74ff" d="M 219.5,170.5 C 220.024,178.533 220.357,186.7 220.5,195C 220.041,197.355 219.208,199.521 218,201.5C 215.21,196.083 212.043,190.916 208.5,186C 212.386,180.954 216.053,175.787 219.5,170.5 Z"/></g>
<g><path style="opacity:1" fill="#5e381e" d="M 154.5,172.5 C 155.5,172.5 156.5,172.5 157.5,172.5C 157.5,178.833 157.5,185.167 157.5,191.5C 156.07,191.421 154.736,191.754 153.5,192.5C 153.167,192 152.833,191.5 152.5,191C 153.925,184.919 154.591,178.752 154.5,172.5 Z"/></g>
<g><path style="opacity:1" fill="#9a5c32" d="M 146.5,173.5 C 148.833,173.5 151.167,173.5 153.5,173.5C 153.465,181.419 152.131,189.086 149.5,196.5C 148.311,197.429 146.978,197.762 145.5,197.5C 145.833,189.5 146.167,181.5 146.5,173.5 Z"/></g>
<g><path style="opacity:1" fill="#fefffe" d="M 139.5,174.5 C 140.496,174.414 141.329,174.748 142,175.5C 142.79,178.634 142.457,181.634 141,184.5C 140.151,181.439 138.651,178.772 136.5,176.5C 137.602,175.824 138.602,175.158 139.5,174.5 Z"/></g>
<g><path style="opacity:1" fill="#fec90d" d="M 358.5,184.5 C 358.5,186.167 358.5,187.833 358.5,189.5C 357.5,189.5 356.5,189.5 355.5,189.5C 355.5,187.833 355.5,186.167 355.5,184.5C 356.5,184.5 357.5,184.5 358.5,184.5 Z"/></g>
<g><path style="opacity:1" fill="#eef0e0" d="M 160.5,233.5 C 160.802,230.941 160.468,228.607 159.5,226.5C 159.238,225.022 159.571,223.689 160.5,222.5C 171.821,211.011 182.988,199.345 194,187.5C 194.848,190.698 196.348,193.531 198.5,196C 186.706,210.13 174.539,223.963 162,237.5C 161.79,235.942 161.29,234.609 160.5,233.5 Z"/></g>
<g><path style="opacity:1" fill="#eeffe0" d="M 355.5,189.5 C 355.423,190.75 354.756,191.583 353.5,192C 329.127,201.625 305.127,212.125 281.5,223.5C 280.571,222.311 280.238,220.978 280.5,219.5C 304.939,209.115 329.272,198.448 353.5,187.5C 354.182,188.243 354.849,188.909 355.5,189.5 Z"/></g>
<g><path style="opacity:1" fill="#0d30ff" d="M 175.5,193.5 C 176.239,193.369 176.906,193.536 177.5,194C 174.814,200.325 170.148,203.658 163.5,204C 168.286,201.38 172.286,197.88 175.5,193.5 Z"/></g>
<g><path style="opacity:1" fill="#5266de" d="M 126.5,200.5 C 126.821,202.048 127.821,202.715 129.5,202.5C 130.117,202.389 130.617,202.056 131,201.5C 131.309,202.766 131.809,203.933 132.5,205C 131.263,205.232 130.263,205.732 129.5,206.5C 129.5,207.167 129.5,207.833 129.5,208.5C 129.167,208.5 128.833,208.5 128.5,208.5C 127.169,205.873 125.336,203.54 123,201.5C 121.991,199.975 121.491,198.308 121.5,196.5C 123.262,196.643 124.929,196.309 126.5,195.5C 128.984,197.369 128.984,199.036 126.5,200.5 Z"/></g>
<g><path style="opacity:1" fill="#eef0e0" d="M 141.5,196.5 C 146.055,200.87 147.555,206.203 146,212.5C 144.054,214.994 141.721,215.661 139,214.5C 137.034,210.374 134.868,206.374 132.5,202.5C 135.728,200.728 138.728,198.728 141.5,196.5 Z"/></g>
<g><path style="opacity:1" fill="#1d1d2b" d="M 151.5,202.5 C 152.605,203.6 153.938,204.267 155.5,204.5C 157.142,210.044 158.142,215.71 158.5,221.5C 158.216,223.415 158.549,225.081 159.5,226.5C 160.468,228.607 160.802,230.941 160.5,233.5C 160.5,238.5 160.5,243.5 160.5,248.5C 159.909,253.442 158.409,258.108 156,262.5C 154.871,264.141 153.371,265.141 151.5,265.5C 148.663,266.895 145.996,266.562 143.5,264.5C 144.956,257.629 147.289,251.129 150.5,245C 152.81,244.503 155.143,244.337 157.5,244.5C 157.666,238.158 157.5,231.825 157,225.5C 154.72,221.553 152.053,217.887 149,214.5C 148.617,215.056 148.117,215.389 147.5,215.5C 147.562,210.08 147.395,204.747 147,199.5C 148.271,200.883 149.771,201.883 151.5,202.5 Z"/></g>
<g><path style="opacity:1" fill="#a2a299" d="M 198.5,205.5 C 197.539,207.265 197.205,209.265 197.5,211.5C 196.539,213.265 196.205,215.265 196.5,217.5C 196.384,220.86 196.051,224.193 195.5,227.5C 198.5,228.833 201.5,228.833 204.5,227.5C 206.599,226.388 208.933,225.721 211.5,225.5C 213.993,225.131 214.66,225.797 213.5,227.5C 210.848,227.41 208.515,228.076 206.5,229.5C 203.941,229.198 201.607,229.532 199.5,230.5C 193.833,230.5 188.167,230.5 182.5,230.5C 180.393,229.532 178.059,229.198 175.5,229.5C 172.902,228.528 172.902,227.528 175.5,226.5C 180.797,227.275 186.13,227.608 191.5,227.5C 192.421,219.965 193.754,212.631 195.5,205.5C 196.322,203.611 197.155,201.611 198,199.5C 198.495,201.473 198.662,203.473 198.5,205.5 Z"/></g>
<g><path style="opacity:1" fill="#5267e0" d="M 211.5,225.5 C 208.933,225.721 206.599,226.388 204.5,227.5C 202.585,227.784 200.919,227.451 199.5,226.5C 200.935,225.015 200.768,223.682 199,222.5C 197.232,223.682 197.065,225.015 198.5,226.5C 197.791,227.404 196.791,227.737 195.5,227.5C 196.051,224.193 196.384,220.86 196.5,217.5C 197.167,217.833 197.833,218.167 198.5,218.5C 201.476,219.227 201.976,218.227 200,215.5C 199.617,216.056 199.117,216.389 198.5,216.5C 197.549,215.081 197.216,213.415 197.5,211.5C 198.167,211.5 198.833,211.5 199.5,211.5C 201.106,212.78 202.106,212.28 202.5,210C 202.106,207.72 201.106,207.22 199.5,208.5C 198.596,207.791 198.263,206.791 198.5,205.5C 199.309,203.708 199.809,201.708 200,199.5C 204.895,207.457 209.395,215.624 213.5,224C 212.584,224.278 211.918,224.778 211.5,225.5 Z"/></g>
<g><path style="opacity:1" fill="#fec90d" d="M 126.5,200.5 C 128.179,200.285 129.179,200.952 129.5,202.5C 127.821,202.715 126.821,202.048 126.5,200.5 Z"/></g>
<g><path style="opacity:1" fill="#eeeeee" d="M 156.5,203.5 C 156.5,204.167 156.167,204.5 155.5,204.5C 153.938,204.267 152.605,203.6 151.5,202.5C 152.552,200.744 154.219,200.077 156.5,200.5C 156.5,201.5 156.5,202.5 156.5,203.5 Z"/></g>
<g><path style="opacity:1" fill="#0d30ff" d="M 156.5,203.5 C 156.833,203.5 157.167,203.5 157.5,203.5C 158.194,208.861 161.194,211.861 166.5,212.5C 164.57,216.1 161.903,219.1 158.5,221.5C 158.142,215.71 157.142,210.044 155.5,204.5C 156.167,204.5 156.5,204.167 156.5,203.5 Z"/></g>
<g><path style="opacity:1" fill="#5b74ff" d="M 195.5,205.5 C 193.754,212.631 192.421,219.965 191.5,227.5C 186.13,227.608 180.797,227.275 175.5,226.5C 182.165,219 188.665,211.333 195,203.5C 195.464,204.094 195.631,204.761 195.5,205.5 Z"/></g>
<g><path style="opacity:1" fill="#000000" d="M 198.5,205.5 C 198.263,206.791 198.596,207.791 199.5,208.5C 199.5,209.5 199.5,210.5 199.5,211.5C 198.833,211.5 198.167,211.5 197.5,211.5C 197.205,209.265 197.539,207.265 198.5,205.5 Z"/></g>
<g><path style="opacity:1" fill="#fec90d" d="M 129.5,206.5 C 131.179,206.285 132.179,206.952 132.5,208.5C 131.5,208.5 130.5,208.5 129.5,208.5C 129.5,207.833 129.5,207.167 129.5,206.5 Z"/></g>
<g><path style="opacity:1" fill="#0d30ff" d="M 232.5,206.5 C 233.885,207.302 233.718,207.969 232,208.5C 229.054,209.725 226.22,211.058 223.5,212.5C 225.211,208.796 228.211,206.796 232.5,206.5 Z"/></g>
<g><path style="opacity:1" fill="#fefffe" d="M 199.5,211.5 C 199.5,210.5 199.5,209.5 199.5,208.5C 201.106,207.22 202.106,207.72 202.5,210C 202.106,212.28 201.106,212.78 199.5,211.5 Z"/></g>
<g><path style="opacity:1" fill="#4f61d3" d="M 128.5,208.5 C 128.833,208.5 129.167,208.5 129.5,208.5C 130.5,208.5 131.5,208.5 132.5,208.5C 135.884,209.244 136.218,210.577 133.5,212.5C 133.821,214.048 134.821,214.715 136.5,214.5C 140.418,217.458 139.751,218.625 134.5,218C 131.853,215.199 129.853,212.032 128.5,208.5 Z"/></g>
<g><path style="opacity:1" fill="#fefffe" d="M 271.5,213.5 C 270.167,213.5 268.833,213.5 267.5,213.5C 267.5,212.5 267.5,211.5 267.5,210.5C 268.833,210.5 270.167,210.5 271.5,210.5C 271.5,211.5 271.5,212.5 271.5,213.5 Z"/></g>
<g><path style="opacity:1" fill="#000000" d="M 197.5,211.5 C 197.216,213.415 197.549,215.081 198.5,216.5C 198.5,217.167 198.5,217.833 198.5,218.5C 197.833,218.167 197.167,217.833 196.5,217.5C 196.205,215.265 196.539,213.265 197.5,211.5 Z"/></g>
<g><path style="opacity:1" fill="#fec90d" d="M 133.5,212.5 C 135.179,212.285 136.179,212.952 136.5,214.5C 134.821,214.715 133.821,214.048 133.5,212.5 Z"/></g>
<g><path style="opacity:1" fill="#7e7f7e" d="M 257.5,221.5 C 250.094,223.707 243.094,226.707 236.5,230.5C 234.863,231.218 233.197,231.384 231.5,231C 241.715,226.147 252.048,221.481 262.5,217C 265.089,215.686 267.756,215.019 270.5,215C 265.844,216.706 261.51,218.873 257.5,221.5 Z"/></g>
<g><path style="opacity:1" fill="#f7ba92" d="M 147.5,215.5 C 151.419,222.756 152.752,230.423 151.5,238.5C 151.167,238.833 150.833,239.167 150.5,239.5C 149.614,238.675 149.281,237.675 149.5,236.5C 150.93,234.545 150.597,232.879 148.5,231.5C 147.749,230.427 146.749,230.26 145.5,231C 144.092,233.519 142.758,236.019 141.5,238.5C 141.642,234.85 140.975,231.35 139.5,228C 140.204,224.872 140.704,221.706 141,218.5C 142.993,217.086 145.16,216.086 147.5,215.5 Z"/></g>
<g><path style="opacity:1" fill="#fefffe" d="M 198.5,218.5 C 198.5,217.833 198.5,217.167 198.5,216.5C 199.117,216.389 199.617,216.056 200,215.5C 201.976,218.227 201.476,219.227 198.5,218.5 Z"/></g>
<g><path style="opacity:1" fill="#fec096" d="M 272.5,215.5 C 278.444,218.311 280.611,222.978 279,229.5C 278.586,229.957 278.086,230.291 277.5,230.5C 276.682,227.893 276.182,225.226 276,222.5C 273.762,220.691 272.595,218.358 272.5,215.5 Z"/></g>
<g><path style="opacity:1" fill="#fec096" d="M 270.5,217.5 C 272.822,220.322 274.489,223.489 275.5,227C 275.729,230.603 274.062,232.436 270.5,232.5C 270.104,228.625 269.438,224.792 268.5,221C 268.978,219.697 269.645,218.531 270.5,217.5 Z"/></g>
<g><path style="opacity:1" fill="#eef0e0" d="M 244.5,218.5 C 247.518,218.335 250.518,218.502 253.5,219C 248.787,220.902 244.12,222.568 239.5,224C 241.373,222.296 243.04,220.463 244.5,218.5 Z"/></g>
<g><path style="opacity:1" fill="#fec096" d="M 264.5,219.5 C 265.5,219.5 266.5,219.5 267.5,219.5C 268.275,224.484 268.942,229.484 269.5,234.5C 268.167,234.5 266.833,234.5 265.5,234.5C 265.891,230.617 265.224,226.95 263.5,223.5C 264.246,222.264 264.579,220.93 264.5,219.5 Z"/></g>
<g><path style="opacity:1" fill="#41281b" d="M 257.5,221.5 C 258.492,221.328 259.158,221.662 259.5,222.5C 259.557,225.882 259.223,229.215 258.5,232.5C 258.631,231.624 258.298,230.957 257.5,230.5C 248.541,233.981 239.875,237.981 231.5,242.5C 226.292,242.937 221.625,244.77 217.5,248C 202.98,260.687 188.314,273.187 173.5,285.5C 169.115,280.45 165.115,275.116 161.5,269.5C 161.977,268.522 162.643,267.689 163.5,267C 170.198,263.651 176.864,260.318 183.5,257C 187.108,255.339 190.775,255.005 194.5,256C 199.667,251.5 204.833,247 210,242.5C 211.305,245.306 213.472,246.14 216.5,245C 224.065,242.003 231.731,239.003 239.5,236C 240.517,234.951 240.684,233.784 240,232.5C 238.698,231.915 237.531,231.249 236.5,230.5C 243.094,226.707 250.094,223.707 257.5,221.5 Z"/></g>
<g><path style="opacity:1" fill="#fefffe" d="M 199.5,226.5 C 199.167,226.5 198.833,226.5 198.5,226.5C 197.065,225.015 197.232,223.682 199,222.5C 200.768,223.682 200.935,225.015 199.5,226.5 Z"/></g>
<g><path style="opacity:1" fill="#e9b08a" d="M 259.5,222.5 C 260.5,222.5 261.5,222.5 262.5,222.5C 264.112,226.994 264.778,231.661 264.5,236.5C 260.908,236.714 257.408,237.381 254,238.5C 252.319,238.392 251.152,237.725 250.5,236.5C 252.849,234.659 255.515,233.326 258.5,232.5C 259.223,229.215 259.557,225.882 259.5,222.5 Z"/></g>
<g><path style="opacity:1" fill="#656565" d="M 227.5,229.5 C 228.348,231.093 229.681,232.26 231.5,233C 228.991,236.358 226.658,236.191 224.5,232.5C 223.832,230.031 223.165,227.698 222.5,225.5C 221.312,223.504 221.979,222.671 224.5,223C 225.793,225.052 226.793,227.219 227.5,229.5 Z"/></g>
<g><path style="opacity:1" fill="#000000" d="M 198.5,226.5 C 198.833,226.5 199.167,226.5 199.5,226.5C 200.919,227.451 202.585,227.784 204.5,227.5C 201.5,228.833 198.5,228.833 195.5,227.5C 196.791,227.737 197.791,227.404 198.5,226.5 Z"/></g>
<g><path style="opacity:1" fill="#7e7f7e" d="M 213.5,227.5 C 216.489,228.298 219.155,229.798 221.5,232C 220.833,232.667 220.167,233.333 219.5,234C 221.848,236.354 222.514,239.021 221.5,242C 218.748,242.212 216.248,243.045 214,244.5C 212.5,244.333 211.667,243.5 211.5,242C 213.203,240.63 214.536,238.964 215.5,237C 214.392,234.888 212.892,233.054 211,231.5C 210.517,230.552 210.351,229.552 210.5,228.5C 211.791,228.737 212.791,228.404 213.5,227.5 Z"/></g>
<g><path style="opacity:1" fill="#6a6b9c" d="M 175.5,229.5 C 175.5,229.833 175.5,230.167 175.5,230.5C 174.514,234.97 174.181,239.637 174.5,244.5C 176.144,244.714 177.644,244.38 179,243.5C 180.372,239.103 181.538,234.769 182.5,230.5C 185.287,231.477 188.287,231.81 191.5,231.5C 191.666,237.509 191.499,243.509 191,249.5C 187.866,253.345 183.699,255.511 178.5,256C 173.458,259.521 168.125,262.521 162.5,265C 160.876,266.117 159.876,267.617 159.5,269.5C 163.215,276.057 167.549,282.224 172.5,288C 173.167,288.667 173.833,288.667 174.5,288C 175.685,286.647 177.019,285.48 178.5,284.5C 178.833,285 179.167,285.5 179.5,286C 177.538,294.219 175.372,302.385 173,310.5C 172.223,313.429 172.39,316.263 173.5,319C 172.009,321.621 171.342,324.455 171.5,327.5C 167.562,321.494 162.229,319.994 155.5,323C 153.6,325.335 151.6,327.502 149.5,329.5C 149.717,326.565 150.383,323.731 151.5,321C 151.23,319.486 150.897,317.986 150.5,316.5C 151.493,311.714 152.16,306.88 152.5,302C 151.636,291.184 151.303,280.351 151.5,269.5C 156.437,270.254 159.103,267.921 159.5,262.5C 165.262,263.283 166.429,261.617 163,257.5C 162.51,256.207 162.343,254.873 162.5,253.5C 166.604,253.534 170.604,254.201 174.5,255.5C 178.144,255.286 178.477,254.119 175.5,252C 172.124,250.497 168.791,248.997 165.5,247.5C 166.5,246.167 167.5,244.833 168.5,243.5C 168.023,242.522 167.357,241.689 166.5,241C 167.833,240 169.167,239 170.5,238C 169.733,236.53 169.067,235.03 168.5,233.5C 169.445,230.013 171.778,228.68 175.5,229.5 Z"/></g>
<g><path style="opacity:1" fill="#000000" d="M 175.5,229.5 C 178.059,229.198 180.393,229.532 182.5,230.5C 181.538,234.769 180.372,239.103 179,243.5C 177.644,244.38 176.144,244.714 174.5,244.5C 174.181,239.637 174.514,234.97 175.5,230.5C 175.5,230.167 175.5,229.833 175.5,229.5 Z"/></g>
<g><path style="opacity:1" fill="#6a6b9c" d="M 206.5,229.5 C 207.777,230.694 208.444,232.36 208.5,234.5C 208.333,236.167 208.167,237.833 208,239.5C 205.874,236.352 205.374,233.019 206.5,229.5 Z"/></g>
<g><path style="opacity:1" fill="#6a6b9c" d="M 175.5,230.5 C 177.167,230.5 178.833,230.5 180.5,230.5C 180.326,233.874 179.826,237.207 179,240.5C 178.632,241.91 177.799,242.91 176.5,243.5C 175.508,239.217 175.174,234.884 175.5,230.5 Z"/></g>
<g><path style="opacity:1" fill="#6a6b9c" d="M 199.5,230.5 C 201.167,230.5 202.833,230.5 204.5,230.5C 204.416,234.503 205.416,238.169 207.5,241.5C 202.761,245.95 197.928,250.284 193,254.5C 190.349,253.568 190.015,252.235 192,250.5C 192.5,244.175 192.666,237.842 192.5,231.5C 195.059,231.802 197.393,231.468 199.5,230.5 Z"/></g>
<g><path style="opacity:1" fill="#eeffe0" d="M 258.5,232.5 C 255.515,233.326 252.849,234.659 250.5,236.5C 248.692,236.491 247.025,236.991 245.5,238C 241.827,242.336 237.16,244.169 231.5,243.5C 231.5,243.167 231.5,242.833 231.5,242.5C 239.875,237.981 248.541,233.981 257.5,230.5C 258.298,230.957 258.631,231.624 258.5,232.5 Z"/></g>
<g><path style="opacity:1" fill="#1e1e2c" d="M 148.5,231.5 C 146.983,231.511 145.816,232.177 145,233.5C 143.593,236.501 143.426,239.501 144.5,242.5C 145.685,243.857 146.685,245.357 147.5,247C 145.587,252.821 143.754,258.655 142,264.5C 137.163,259.839 133.33,254.506 130.5,248.5C 131.287,243.827 132.12,239.16 133,234.5C 133.419,233.328 134.085,232.328 135,231.5C 136.666,234.331 138.832,236.664 141.5,238.5C 142.758,236.019 144.092,233.519 145.5,231C 146.749,230.26 147.749,230.427 148.5,231.5 Z"/></g>
<g><path style="opacity:1" fill="#9a5c32" d="M 148.5,231.5 C 146.434,235.004 145.1,238.671 144.5,242.5C 143.426,239.501 143.593,236.501 145,233.5C 145.816,232.177 146.983,231.511 148.5,231.5 Z"/></g>
<g><path style="opacity:1" fill="#6a6b9c" d="M 209.5,232.5 C 211.296,233.793 212.963,235.293 214.5,237C 212.91,238.046 211.41,239.213 210,240.5C 209.503,237.854 209.336,235.187 209.5,232.5 Z"/></g>
<g><path style="opacity:1" fill="#7e7f7e" d="M 233.5,232.5 C 235.199,232.34 236.866,232.506 238.5,233C 239.833,233.667 239.833,234.333 238.5,235C 233.934,237.632 229.101,239.465 224,240.5C 223.358,238.238 222.525,236.071 221.5,234C 222,233.833 222.5,233.667 223,233.5C 226.936,237.575 230.436,237.242 233.5,232.5 Z"/></g>
<g><path style="opacity:1" fill="#9a5c32" d="M 149.5,236.5 C 148.819,238.158 147.985,239.825 147,241.5C 146.448,238.581 147.115,235.914 149,233.5C 149.483,234.448 149.649,235.448 149.5,236.5 Z"/></g>
<g><path style="opacity:1" fill="#4e4f77" d="M 168.5,233.5 C 169.067,235.03 169.733,236.53 170.5,238C 169.167,239 167.833,240 166.5,241C 167.357,241.689 168.023,242.522 168.5,243.5C 167.5,244.833 166.5,246.167 165.5,247.5C 168.791,248.997 172.124,250.497 175.5,252C 178.477,254.119 178.144,255.286 174.5,255.5C 170.604,254.201 166.604,253.534 162.5,253.5C 162.343,254.873 162.51,256.207 163,257.5C 166.429,261.617 165.262,263.283 159.5,262.5C 159.103,267.921 156.437,270.254 151.5,269.5C 151.5,268.167 151.5,266.833 151.5,265.5C 153.371,265.141 154.871,264.141 156,262.5C 158.409,258.108 159.909,253.442 160.5,248.5C 161.166,245.642 161.833,242.642 162.5,239.5C 164.882,237.785 166.882,235.785 168.5,233.5 Z"/></g>
<g><path style="opacity:1" fill="#00a1e8" d="M 228.5,243.5 C 230.551,248.324 229.384,252.324 225,255.5C 225.963,251.574 227.13,247.574 228.5,243.5 Z"/></g>
<g><path style="opacity:1" fill="#870014" d="M 231.5,243.5 C 232.391,244.261 233.058,245.261 233.5,246.5C 232.936,248.819 232.436,251.153 232,253.5C 230.737,255.797 228.903,256.63 226.5,256C 227.667,254.833 228.833,253.667 230,252.5C 230.181,249.305 230.681,246.305 231.5,243.5 Z"/></g>
<g><path style="opacity:1" fill="#fec90d" d="M 224.5,245.5 C 225.239,245.369 225.906,245.536 226.5,246C 225.329,252.602 221.329,255.269 214.5,254C 217.754,253.75 220.754,252.75 223.5,251C 224.406,249.301 224.739,247.467 224.5,245.5 Z"/></g>
<g><path style="opacity:1" fill="#a48d20" d="M 221.5,246.5 C 223.97,247.36 224.137,248.694 222,250.5C 220.666,249.122 220.499,247.789 221.5,246.5 Z"/></g>
<g><path style="opacity:1" fill="#a48d20" d="M 221.5,254.5 C 223.116,259.437 225.116,264.437 227.5,269.5C 227.215,271.569 226.048,272.902 224,273.5C 219.027,268.551 216.527,262.551 216.5,255.5C 218.415,255.784 220.081,255.451 221.5,254.5 Z"/></g>
<g><path style="opacity:1" fill="#696999" d="M 203.5,292.5 C 202.241,288.975 200.241,285.975 197.5,283.5C 195.929,279.714 194.429,276.047 193,272.5C 194.5,271 196,269.5 197.5,268C 201.5,267.667 205.5,267.333 209.5,267C 206.5,266.667 203.5,266.333 200.5,266C 204.245,261.065 208.911,257.565 214.5,255.5C 214.13,262.188 216.297,267.855 221,272.5C 225.121,285.741 231.121,298.075 239,309.5C 239.567,321.839 240.234,334.172 241,346.5C 241.818,355.252 243.652,363.752 246.5,372C 240.377,376.03 235.21,375.196 231,369.5C 230.667,364.167 230.333,358.833 230,353.5C 227.38,341.741 225.546,329.908 224.5,318C 225.984,316.426 227.651,315.093 229.5,314C 227.322,313.835 225.489,314.668 224,316.5C 222.729,313.567 221.062,310.901 219,308.5C 214.047,302.899 208.881,297.566 203.5,292.5 Z"/></g>
<g><path style="opacity:1" fill="#000000" d="M 197.5,270.5 C 197.735,269.903 198.235,269.57 199,269.5C 202.752,270.045 206.252,271.212 209.5,273C 205.566,272.246 201.566,271.412 197.5,270.5 Z"/></g>
<g><path style="opacity:1" fill="#6a6b9c" d="M 197.5,283.5 C 198.759,287.025 200.759,290.025 203.5,292.5C 208.722,299.9 214.555,306.9 221,313.5C 223.131,317.413 221.797,319.413 217,319.5C 206.579,305.887 197.079,291.553 188.5,276.5C 189.145,275.354 189.978,274.354 191,273.5C 192.942,277.069 195.108,280.402 197.5,283.5 Z"/></g>
<g><path style="opacity:1" fill="#000000" d="M 200.5,275.5 C 201.721,274.535 203.054,274.702 204.5,276C 207.551,278.694 210.051,281.527 212,284.5C 208.291,281.285 204.458,278.285 200.5,275.5 Z"/></g>
<g><path style="opacity:1" fill="#000000" d="M 197.5,283.5 C 200.241,285.975 202.241,288.975 203.5,292.5C 200.759,290.025 198.759,287.025 197.5,283.5 Z"/></g>
<g><path style="opacity:1" fill="#fec90d" d="M 196.5,301.5 C 197.708,302.234 199.041,302.567 200.5,302.5C 200.565,307.463 199.565,312.129 197.5,316.5C 196.506,311.544 196.173,306.544 196.5,301.5 Z"/></g>
<g><path style="opacity:1" fill="#69699a" d="M 222.5,318.5 C 223.117,318.611 223.617,318.944 224,319.5C 225.931,333.804 227.764,348.137 229.5,362.5C 230.267,367.596 228.934,371.929 225.5,375.5C 224.186,374.687 223.019,373.687 222,372.5C 221.122,354.995 218.956,337.661 215.5,320.5C 218.152,320.59 220.485,319.924 222.5,318.5 Z"/></g>
<g><path style="opacity:1" fill="#4e4f77" d="M 171.5,327.5 C 168.997,338.186 167.33,349.02 166.5,360C 170.763,376.729 164.93,381.563 149,374.5C 149.369,359.466 149.536,344.466 149.5,329.5C 151.6,327.502 153.6,325.335 155.5,323C 162.229,319.994 167.562,321.494 171.5,327.5 Z"/></g>
<g><path style="opacity:1" fill="#1f202f" d="M 229.5,371.5 C 231.682,372.3 233.349,373.8 234.5,376C 237.833,376.333 241.167,376.667 244.5,377C 246.087,381.849 249.087,385.516 253.5,388C 249.148,390.913 244.314,392.079 239,391.5C 234.265,391.793 229.765,390.96 225.5,389C 224.978,388.439 224.645,387.772 224.5,387C 225.331,381.489 226.998,376.323 229.5,371.5 Z"/></g>
<g><path style="opacity:1" fill="#1f202f" d="M 150.5,378.5 C 154.452,379.272 158.452,379.605 162.5,379.5C 162.344,382.066 162.678,384.566 163.5,387C 163.095,387.945 162.428,388.612 161.5,389C 157.375,389.854 153.375,389.52 149.5,388C 150.451,384.943 150.784,381.777 150.5,378.5 Z"/></g>
<g><path style="opacity:1" fill="#1f202f" d="M 149.5,389.5 C 154.001,392.125 158.501,392.125 163,389.5C 163.592,395.248 160.925,398.248 155,398.5C 151.672,397.92 148.839,396.42 146.5,394C 147.386,392.385 148.386,390.885 149.5,389.5 Z"/></g>
</svg>
