<?xml version="1.0" encoding="UTF-8"?>
<!DOCTYPE svg PUBLIC "-//W3C//DTD SVG 1.1//EN" "http://www.w3.org/Graphics/SVG/1.1/DTD/svg11.dtd">
<svg xmlns="http://www.w3.org/2000/svg" version="1.1" width="296px" height="344px" style="shape-rendering:geometricPrecision; text-rendering:geometricPrecision; image-rendering:optimizeQuality; fill-rule:evenodd; clip-rule:evenodd" xmlns:xlink="http://www.w3.org/1999/xlink">
<g><path style="opacity:1" fill="#fefefe" d="M 114.5,65.5 C 119.849,64.4614 124.349,65.7947 128,69.5C 128.821,75.6476 128.321,81.6476 126.5,87.5C 135.879,87.2244 145.212,87.7244 154.5,89C 158.23,89.7288 160.73,91.8955 162,95.5C 163.003,104.188 161.003,112.188 156,119.5C 151.623,129.412 154.456,136.412 164.5,140.5C 166.957,138.775 169.623,138.275 172.5,139C 173.126,139.75 173.626,140.584 174,141.5C 174.518,145.575 174.518,149.575 174,153.5C 182.934,160.093 191.6,167.093 200,174.5C 201.134,181.9 201.634,189.4 201.5,197C 201.333,203.833 201.167,210.667 201,217.5C 200.626,218.416 200.126,219.25 199.5,220C 204.645,222.383 209.978,224.383 215.5,226C 218.876,228.065 220.209,231.065 219.5,235C 218.275,254.791 209.275,259.124 192.5,248C 188.333,244.5 184.167,241 180,237.5C 184.961,261.979 189.294,286.646 193,311.5C 195.706,313.871 198.039,316.537 200,319.5C 200.667,323.167 200.667,326.833 200,330.5C 199.5,331 199,331.5 198.5,332C 190.913,333.563 183.246,333.896 175.5,333C 173.361,329.527 170.527,326.694 167,324.5C 166.222,321.816 164.889,319.483 163,317.5C 162.816,293.612 155.483,272.279 141,253.5C 138.708,254.79 136.708,256.457 135,258.5C 134.667,266.833 134.333,275.167 134,283.5C 130.606,284.456 127.106,284.789 123.5,284.5C 125.199,299.008 125.699,313.674 125,328.5C 122.958,330.604 120.458,331.771 117.5,332C 111.167,332.667 104.833,332.667 98.5,332C 97.6667,331.167 96.8333,330.333 96,329.5C 94.8569,324.163 95.5235,319.163 98,314.5C 98.0384,302.16 97.5384,289.826 96.5,277.5C 96.6965,270.124 97.3631,262.791 98.5,255.5C 98.3333,253.833 98.1667,252.167 98,250.5C 96.2866,249.122 94.9533,247.455 94,245.5C 92.0989,237.249 93.7656,229.916 99,223.5C 99.2895,221.048 99.9562,218.715 101,216.5C 104.265,214.117 107.765,212.117 111.5,210.5C 112.167,208.833 112.833,207.167 113.5,205.5C 107.839,204.637 102.172,203.803 96.5,203C 94.2097,200.921 92.5431,198.421 91.5,195.5C 81.976,190.23 71.976,186.397 61.5,184C 60.2567,182.846 59.2567,181.512 58.5,180C 54.1745,180.011 51.1745,178.011 49.5,174C 37.2891,167.728 24.9558,161.728 12.5,156C 6.08677,151.447 3.75344,145.28 5.5,137.5C 10.1785,137.334 14.8452,137.501 19.5,138C 45.3809,150.107 71.3809,161.941 97.5,173.5C 98.5238,165.942 102.19,160.108 108.5,156C 105.572,152.743 104.738,148.909 106,144.5C 107.298,143.44 108.465,142.274 109.5,141C 108.991,139.831 108.158,138.998 107,138.5C 106.333,135.167 106.333,131.833 107,128.5C 109.222,126.615 111.056,124.449 112.5,122C 111.548,115.709 110.381,109.543 109,103.5C 108.015,98.3105 108.515,93.3105 110.5,88.5C 108.032,82.9948 107.866,77.3282 110,71.5C 110.979,69.0324 112.479,67.0324 114.5,65.5 Z M 171.5,186.5 C 173.319,189.851 174.985,193.351 176.5,197C 175.528,199.111 174.695,201.278 174,203.5C 172.944,200.264 171.444,197.264 169.5,194.5C 170.762,191.978 171.429,189.311 171.5,186.5 Z"/></g>
<g><path style="opacity:1" fill="#000000" d="M 117.5,68.5 C 123.619,69.1193 126.119,72.4526 125,78.5C 123.897,82.1779 122.73,85.8445 121.5,89.5C 131.516,90.2034 141.516,91.0367 151.5,92C 157.395,93.6229 159.895,97.4563 159,103.5C 157.274,107.953 155.274,112.286 153,116.5C 152.156,121.271 150.99,125.938 149.5,130.5C 151.494,132.816 152.494,135.482 152.5,138.5C 157.364,139.015 161.531,141.015 165,144.5C 168.572,138.936 171.405,139.27 173.5,145.5C 171.518,149.048 171.184,152.714 172.5,156.5C 180.519,163.687 188.686,170.687 197,177.5C 198.128,183.897 198.628,190.397 198.5,197C 198.494,205.949 197.994,214.782 197,223.5C 202.074,225.525 207.241,227.359 212.5,229C 214.677,230.497 216.01,232.497 216.5,235C 215.232,239.57 213.732,244.07 212,248.5C 210.562,249.718 208.895,250.385 207,250.5C 202.844,249.339 199.011,247.505 195.5,245C 189.093,239.381 182.593,233.881 176,228.5C 175.727,230.101 175.227,231.601 174.5,233C 180.583,258.582 185.583,284.415 189.5,310.5C 189.43,311.772 189.097,312.938 188.5,314C 192.933,316.555 195.933,320.221 197.5,325C 197.561,326.711 196.894,328.044 195.5,329C 189.535,330.736 183.535,330.903 177.5,329.5C 175.86,326.027 173.36,323.36 170,321.5C 169.222,318.816 167.889,316.483 166,314.5C 165.706,289.952 158.039,267.952 143,248.5C 138.689,249.822 135.023,252.155 132,255.5C 131.667,263.833 131.333,272.167 131,280.5C 127.022,282.201 123.855,281.201 121.5,277.5C 120.808,278.025 120.308,278.692 120,279.5C 119.789,289.168 120.622,298.668 122.5,308C 122.349,313.77 122.182,319.603 122,325.5C 117.881,328.532 113.214,329.865 108,329.5C 97.5435,328.596 95.7101,323.929 102.5,315.5C 101.409,302.984 100.409,290.318 99.5,277.5C 100.407,268.486 101.407,259.486 102.5,250.5C 100.897,247.72 99.0634,245.054 97,242.5C 95.7762,236.277 97.4429,230.944 102,226.5C 102.29,224.048 102.956,221.715 104,219.5C 107.265,217.117 110.765,215.117 114.5,213.5C 116.303,209.929 117.47,206.262 118,202.5C 111.879,201.696 105.713,200.862 99.5,200C 97.2097,197.921 95.5431,195.421 94.5,192.5C 84.976,187.23 74.976,183.397 64.5,181C 63.2567,179.846 62.2567,178.512 61.5,177C 57.1745,177.011 54.1745,175.011 52.5,171C 40.2891,164.728 27.9558,158.728 15.5,153C 11.1764,149.845 8.8431,145.678 8.5,140.5C 11.1873,140.336 13.854,140.503 16.5,141C 42.0477,152.941 67.7143,164.607 93.5,176C 95.7538,177.15 98.0871,177.484 100.5,177C 102.206,173.012 103.373,168.846 104,164.5C 105.629,161.374 107.795,158.707 110.5,156.5C 107.854,153.628 107.021,150.295 108,146.5C 111.605,144.473 114.438,141.64 116.5,138C 114.715,136.837 112.715,136.17 110.5,136C 109.818,131.834 111.318,128.334 115,125.5C 114.975,115.965 113.808,106.631 111.5,97.5C 112.463,94.5713 113.13,91.5713 113.5,88.5C 110.103,80.8785 111.437,74.2118 117.5,68.5 Z M 171.5,186.5 C 171.429,189.311 170.762,191.978 169.5,194.5C 171.444,197.264 172.944,200.264 174,203.5C 174.695,201.278 175.528,199.111 176.5,197C 174.985,193.351 173.319,189.851 171.5,186.5 Z"/></g>
<g><path style="opacity:1" fill="#fe0003" d="M 120.5,80.5 C 118.833,80.5 117.167,80.5 115.5,80.5C 114.484,76.6256 115.65,73.2922 119,70.5C 123.07,73.2573 123.57,76.5906 120.5,80.5 Z"/></g>
<g><path style="opacity:1" fill="#fefffe" d="M 115.5,80.5 C 117.167,80.5 118.833,80.5 120.5,80.5C 118.236,96.3593 116.569,96.3593 115.5,80.5 Z"/></g>
<g><path style="opacity:1" fill="#1e1e1d" d="M 116.5,94.5 C 127.106,94.0698 137.773,94.5698 148.5,96C 151.259,96.559 153.259,98.059 154.5,100.5C 154.167,101.5 153.5,102.167 152.5,102.5C 146.374,100.243 140.04,98.9097 133.5,98.5C 127.518,99.4751 121.518,99.6417 115.5,99C 114.419,97.2894 114.752,95.7894 116.5,94.5 Z"/></g>
<g><path style="opacity:1" fill="#3c3c3c" d="M 146.5,130.5 C 144.385,128.109 141.719,126.776 138.5,126.5C 132.021,125.509 125.354,125.176 118.5,125.5C 118.5,124.167 118.5,122.833 118.5,121.5C 121.172,119.609 122.172,116.942 121.5,113.5C 120.167,113.5 118.833,113.5 117.5,113.5C 117.5,111.833 117.5,110.167 117.5,108.5C 118.65,109.85 119.317,109.684 119.5,108C 118.87,106.69 117.87,105.856 116.5,105.5C 116.714,103.856 116.38,102.356 115.5,101C 128.567,98.1243 141.234,99.291 153.5,104.5C 153.833,104.833 154.167,105.167 154.5,105.5C 150.197,113.406 147.53,121.74 146.5,130.5 Z"/></g>
<g><path style="opacity:1" fill="#fec90d" d="M 116.5,105.5 C 117.87,105.856 118.87,106.69 119.5,108C 119.317,109.684 118.65,109.85 117.5,108.5C 116.596,107.791 116.263,106.791 116.5,105.5 Z"/></g>
<g><path style="opacity:1" fill="#fec90d" d="M 117.5,113.5 C 118.833,113.5 120.167,113.5 121.5,113.5C 122.172,116.942 121.172,119.609 118.5,121.5C 118.167,118.833 117.833,116.167 117.5,113.5 Z"/></g>
<g><path style="opacity:1" fill="#1a1a1a" d="M 138.5,126.5 C 141.719,126.776 144.385,128.109 146.5,130.5C 147.782,132.464 149.115,134.464 150.5,136.5C 150.167,136.833 149.833,137.167 149.5,137.5C 148.15,136.05 146.484,135.383 144.5,135.5C 140.184,134.173 135.851,132.84 131.5,131.5C 128.551,132.302 125.551,132.636 122.5,132.5C 122.649,133.552 122.483,134.552 122,135.5C 120.989,134.663 119.822,134.33 118.5,134.5C 111.676,135.476 110.343,133.643 114.5,129C 115.833,128.333 117.167,127.667 118.5,127C 125.158,126.5 131.825,126.334 138.5,126.5 Z"/></g>
<g><path style="opacity:1" fill="#a66c4b" d="M 144.5,135.5 C 145.091,136.151 145.757,136.818 146.5,137.5C 146.291,138.086 145.957,138.586 145.5,139C 139.984,139.173 134.651,139.673 129.5,140.5C 128.209,140.737 127.209,140.404 126.5,139.5C 127.301,137.958 127.634,136.292 127.5,134.5C 126.5,134.5 125.5,134.5 124.5,134.5C 123.691,136.028 123.024,137.694 122.5,139.5C 122.103,140.525 121.437,140.692 120.5,140C 119.915,138.698 119.249,137.531 118.5,136.5C 117.494,136.062 117.494,135.396 118.5,134.5C 119.822,134.33 120.989,134.663 122,135.5C 122.483,134.552 122.649,133.552 122.5,132.5C 125.551,132.636 128.551,132.302 131.5,131.5C 135.851,132.84 140.184,134.173 144.5,135.5 Z"/></g>
<g><path style="opacity:1" fill="#000000" d="M 124.5,134.5 C 124.923,136.781 124.256,138.448 122.5,139.5C 123.024,137.694 123.691,136.028 124.5,134.5 Z"/></g>
<g><path style="opacity:1" fill="#fec096" d="M 124.5,134.5 C 125.5,134.5 126.5,134.5 127.5,134.5C 127.634,136.292 127.301,137.958 126.5,139.5C 122.978,141.426 119.312,143.093 115.5,144.5C 115.167,144.167 114.833,143.833 114.5,143.5C 116.11,141.275 117.443,138.941 118.5,136.5C 119.249,137.531 119.915,138.698 120.5,140C 121.437,140.692 122.103,140.525 122.5,139.5C 124.256,138.448 124.923,136.781 124.5,134.5 Z"/></g>
<g><path style="opacity:1" fill="#6581b8" d="M 129.5,140.5 C 135.167,140.5 140.833,140.5 146.5,140.5C 146.5,143.5 146.5,146.5 146.5,149.5C 139.86,150.346 133.193,151.013 126.5,151.5C 126.5,148.167 126.5,144.833 126.5,141.5C 127.791,141.737 128.791,141.404 129.5,140.5 Z"/></g>
<g><path style="opacity:1" fill="#6681b8" d="M 151.5,140.5 C 158.437,140.95 162.771,144.45 164.5,151C 162.809,155.414 161.476,155.414 160.5,151C 157.607,149.851 154.607,149.351 151.5,149.5C 151.5,146.5 151.5,143.5 151.5,140.5 Z"/></g>
<g><path style="opacity:1" fill="#fefffe" d="M 124.5,141.5 C 125.479,144.625 125.813,147.958 125.5,151.5C 124.5,151.5 123.5,151.5 122.5,151.5C 122.06,147.821 122.727,144.488 124.5,141.5 Z"/></g>
<g><path style="opacity:1" fill="#fefffe" d="M 147.5,141.5 C 148.5,141.5 149.5,141.5 150.5,141.5C 150.5,144.167 150.5,146.833 150.5,149.5C 149.5,149.5 148.5,149.5 147.5,149.5C 147.5,146.833 147.5,144.167 147.5,141.5 Z"/></g>
<g><path style="opacity:1" fill="#fefffe" d="M 170.5,147.5 C 169.713,145.896 168.38,145.229 166.5,145.5C 168.138,140.51 170.138,140.343 172.5,145C 171.934,145.995 171.267,146.828 170.5,147.5 Z"/></g>
<g><path style="opacity:1" fill="#7e7f7e" d="M 10.5,143.5 C 11.2506,142.427 12.2506,142.26 13.5,143C 28.6203,149.727 43.6203,156.727 58.5,164C 57.0937,166.449 55.0937,167.449 52.5,167C 40.7419,160.787 28.7419,155.121 16.5,150C 14.2659,147.937 12.2659,145.771 10.5,143.5 Z"/></g>
<g><path style="opacity:1" fill="#6681b8" d="M 120.5,143.5 C 121.803,146.355 121.803,149.355 120.5,152.5C 119.833,152.833 119.167,153.167 118.5,153.5C 116.202,151.481 114.536,148.981 113.5,146C 116.104,145.61 118.438,144.776 120.5,143.5 Z"/></g>
<g><path style="opacity:1" fill="#4d8bd6" d="M 166.5,145.5 C 168.38,145.229 169.713,145.896 170.5,147.5C 170.5,148.5 170.5,149.5 170.5,150.5C 168.716,150.107 167.05,149.441 165.5,148.5C 165.263,147.209 165.596,146.209 166.5,145.5 Z"/></g>
<g><path style="opacity:1" fill="#fefffe" d="M 113.5,149.5 C 112.833,150.833 111.833,151.833 110.5,152.5C 107.661,150.131 107.994,148.131 111.5,146.5C 112.919,147.005 113.585,148.005 113.5,149.5 Z"/></g>
<g><path style="opacity:1" fill="#fefffe" d="M 165.5,148.5 C 167.05,149.441 168.716,150.107 170.5,150.5C 170.167,151.833 169.833,153.167 169.5,154.5C 168.167,153.833 166.833,153.167 165.5,152.5C 165.5,151.167 165.5,149.833 165.5,148.5 Z"/></g>
<g><path style="opacity:1" fill="#4d8bd6" d="M 113.5,149.5 C 114.309,151.028 114.976,152.694 115.5,154.5C 114.167,154.833 112.833,155.167 111.5,155.5C 111.443,154.391 111.11,153.391 110.5,152.5C 111.833,151.833 112.833,150.833 113.5,149.5 Z"/></g>
<g><path style="opacity:1" fill="#91585b" d="M 151.5,162.5 C 150.391,162.557 149.391,162.89 148.5,163.5C 146.007,164.774 143.341,165.44 140.5,165.5C 139.292,164.766 137.959,164.433 136.5,164.5C 133.535,165.734 130.535,165.734 127.5,164.5C 126.391,164.557 125.391,164.89 124.5,165.5C 119.922,164.118 118.422,161.118 120,156.5C 120.5,155.333 121.333,154.5 122.5,154C 134.828,152.256 147.162,151.756 159.5,152.5C 160.068,155.588 160.068,158.588 159.5,161.5C 156.957,163.478 154.29,163.811 151.5,162.5 Z"/></g>
<g><path style="opacity:1" fill="#4d8bd6" d="M 165.5,152.5 C 166.833,153.167 168.167,153.833 169.5,154.5C 169.167,155.833 168.833,157.167 168.5,158.5C 167.167,157.833 165.833,157.167 164.5,156.5C 164.433,155.041 164.766,153.708 165.5,152.5 Z"/></g>
<g><path style="opacity:1" fill="#fefffe" d="M 115.5,154.5 C 116.301,156.042 116.634,157.708 116.5,159.5C 114.983,159.511 113.816,160.177 113,161.5C 112.722,160.584 112.222,159.918 111.5,159.5C 111.5,158.167 111.5,156.833 111.5,155.5C 112.833,155.167 114.167,154.833 115.5,154.5 Z"/></g>
<g><path style="opacity:1" fill="#fefffe" d="M 164.5,156.5 C 165.833,157.167 167.167,157.833 168.5,158.5C 168.5,159.5 168.5,160.5 168.5,161.5C 166.302,161.88 164.635,161.213 163.5,159.5C 164.11,158.609 164.443,157.609 164.5,156.5 Z"/></g>
<g><path style="opacity:1" fill="#4985cf" d="M 163.5,167.5 C 166.154,165.428 165.82,163.761 162.5,162.5C 162.263,161.209 162.596,160.209 163.5,159.5C 164.635,161.213 166.302,161.88 168.5,161.5C 169.268,160.737 169.768,159.737 170,158.5C 177.704,165.873 185.704,172.873 194,179.5C 195.765,187.083 195.931,194.749 194.5,202.5C 190.168,205.051 186.001,204.718 182,201.5C 181.942,196.481 181.108,191.648 179.5,187C 181.5,186.667 183.5,186.333 185.5,186C 183.376,184.418 181.21,184.251 179,185.5C 176.344,182.678 173.344,180.345 170,178.5C 168.233,179.34 166.899,180.673 166,182.5C 165,181.833 164,181.167 163,180.5C 162.232,176.08 162.398,171.747 163.5,167.5 Z"/></g>
<g><path style="opacity:1" fill="#4b88d1" d="M 111.5,159.5 C 112.222,159.918 112.722,160.584 113,161.5C 113.816,160.177 114.983,159.511 116.5,159.5C 116.5,160.833 116.5,162.167 116.5,163.5C 114.255,164.292 113.922,165.625 115.5,167.5C 116.634,170.37 117.3,173.37 117.5,176.5C 118.619,185.706 114.619,190.706 105.5,191.5C 103.117,191.363 100.783,191.029 98.5,190.5C 97.1968,187.645 97.1968,184.645 98.5,181.5C 100.614,180.966 102.448,179.966 104,178.5C 105.126,174.251 105.792,169.918 106,165.5C 107.331,163.004 109.164,161.004 111.5,159.5 Z"/></g>
<g><path style="opacity:1" fill="#fefffe" d="M 151.5,162.5 C 151.232,164.099 151.566,165.432 152.5,166.5C 153.877,169.636 153.544,172.636 151.5,175.5C 150.479,174.099 149.479,172.765 148.5,171.5C 148.5,168.833 148.5,166.167 148.5,163.5C 149.391,162.89 150.391,162.557 151.5,162.5 Z"/></g>
<g><path style="opacity:1" fill="#503033" d="M 137.5,184.5 C 143.685,183.712 150.018,183.045 156.5,182.5C 156.976,178.007 157.642,173.673 158.5,169.5C 159.314,167.369 159.814,165.036 160,162.5C 160.167,166 160.333,169.5 160.5,173C 160.655,178.485 159.989,183.819 158.5,189C 147.225,190.576 135.892,190.909 124.5,190C 123.257,188.846 122.257,187.512 121.5,186C 127.016,185.827 132.349,185.327 137.5,184.5 Z"/></g>
<g><path style="opacity:1" fill="#fefffe" d="M 162.5,162.5 C 165.82,163.761 166.154,165.428 163.5,167.5C 162.549,166.081 162.216,164.415 162.5,162.5 Z"/></g>
<g><path style="opacity:1" fill="#fefffe" d="M 116.5,163.5 C 116.768,165.099 116.434,166.432 115.5,167.5C 113.922,165.625 114.255,164.292 116.5,163.5 Z"/></g>
<g><path style="opacity:1" fill="#000000" d="M 148.5,163.5 C 148.5,166.167 148.5,168.833 148.5,171.5C 147.835,169.631 147.169,167.631 146.5,165.5C 144.929,166.309 143.262,166.643 141.5,166.5C 141.5,167.5 141.5,168.5 141.5,169.5C 140.566,168.432 140.232,167.099 140.5,165.5C 143.341,165.44 146.007,164.774 148.5,163.5 Z"/></g>
<g><path style="opacity:1" fill="#8b5458" d="M 158.5,169.5 C 157.642,173.673 156.976,178.007 156.5,182.5C 150.018,183.045 143.685,183.712 137.5,184.5C 131.833,184.5 126.167,184.5 120.5,184.5C 119.878,177.836 119.712,171.169 120,164.5C 121,165.167 122,165.833 123,166.5C 123.181,169.695 123.681,172.695 124.5,175.5C 125.151,176.091 125.818,176.757 126.5,177.5C 127.182,176.757 127.849,176.091 128.5,175.5C 129.477,172.713 129.81,169.713 129.5,166.5C 131.5,166.5 133.5,166.5 135.5,166.5C 135.205,168.735 135.539,170.735 136.5,172.5C 139.98,176.447 141.647,175.447 141.5,169.5C 141.5,168.5 141.5,167.5 141.5,166.5C 143.262,166.643 144.929,166.309 146.5,165.5C 147.169,167.631 147.835,169.631 148.5,171.5C 149.479,172.765 150.479,174.099 151.5,175.5C 153.544,172.636 153.877,169.636 152.5,166.5C 153.841,164.88 155.674,163.88 158,163.5C 158.495,165.473 158.662,167.473 158.5,169.5 Z"/></g>
<g><path style="opacity:1" fill="#fec80d" d="M 69.5,171.5 C 68.8347,173.698 68.1681,176.031 67.5,178.5C 66.1552,177.653 65.1552,176.487 64.5,175C 56.382,173.637 55.0487,170.137 60.5,164.5C 63.8191,166.632 66.8191,168.965 69.5,171.5 Z"/></g>
<g><path style="opacity:1" fill="#fefffe" d="M 127.5,164.5 C 128.423,168.064 128.756,171.731 128.5,175.5C 127.849,176.091 127.182,176.757 126.5,177.5C 125.818,176.757 125.151,176.091 124.5,175.5C 124.5,172.167 124.5,168.833 124.5,165.5C 125.391,164.89 126.391,164.557 127.5,164.5 Z"/></g>
<g><path style="opacity:1" fill="#000000" d="M 127.5,164.5 C 130.535,165.734 133.535,165.734 136.5,164.5C 136.5,167.167 136.5,169.833 136.5,172.5C 135.539,170.735 135.205,168.735 135.5,166.5C 133.5,166.5 131.5,166.5 129.5,166.5C 129.81,169.713 129.477,172.713 128.5,175.5C 128.756,171.731 128.423,168.064 127.5,164.5 Z"/></g>
<g><path style="opacity:1" fill="#fefffe" d="M 136.5,164.5 C 137.959,164.433 139.292,164.766 140.5,165.5C 140.232,167.099 140.566,168.432 141.5,169.5C 141.647,175.447 139.98,176.447 136.5,172.5C 136.5,169.833 136.5,167.167 136.5,164.5 Z"/></g>
<g><path style="opacity:1" fill="#7e7f7e" d="M 94.5,183.5 C 86.7972,179.655 78.7972,176.321 70.5,173.5C 70.1667,172.833 69.8333,172.167 69.5,171.5C 70.1499,171.196 70.8165,170.863 71.5,170.5C 80.161,173.834 88.4944,177.667 96.5,182C 96.1639,183.03 95.4972,183.53 94.5,183.5 Z"/></g>
<g><path style="opacity:1" fill="#392419" d="M 70.5,173.5 C 78.7972,176.321 86.7972,179.655 94.5,183.5C 96.2432,185.126 96.7432,187.126 96,189.5C 87.555,184.745 78.7216,181.078 69.5,178.5C 69.2155,176.585 69.5489,174.919 70.5,173.5 Z"/></g>
<g><path style="opacity:1" fill="#24599b" d="M 117.5,176.5 C 118.828,181.637 119.328,186.97 119,192.5C 116.926,194.452 114.759,196.285 112.5,198C 108.818,198.222 105.152,197.889 101.5,197C 99.5494,195.266 98.5494,193.099 98.5,190.5C 100.783,191.029 103.117,191.363 105.5,191.5C 114.619,190.706 118.619,185.706 117.5,176.5 Z"/></g>
<g><path style="opacity:1" fill="#fefffe" d="M 162.5,183.5 C 165.902,184.558 166.402,186.558 164,189.5C 161.521,187.912 161.021,185.912 162.5,183.5 Z"/></g>
<g><path style="opacity:1" fill="#fefffe" d="M 169.5,183.5 C 174.186,184.687 177.019,187.687 178,192.5C 177.001,199.15 176.667,205.817 177,212.5C 175.374,209.872 173.374,207.539 171,205.5C 170.743,200.986 168.91,197.319 165.5,194.5C 167.632,191.104 168.965,187.437 169.5,183.5 Z M 171.5,186.5 C 171.429,189.311 170.762,191.978 169.5,194.5C 171.444,197.264 172.944,200.264 174,203.5C 174.695,201.278 175.528,199.111 176.5,197C 174.985,193.351 173.319,189.851 171.5,186.5 Z"/></g>
<g><path style="opacity:1" fill="#4c8bd6" d="M 160.5,189.5 C 161.117,189.611 161.617,189.944 162,190.5C 162.226,193.095 162.726,195.595 163.5,198C 160.249,201.922 156.416,205.088 152,207.5C 147.593,202.803 147.426,197.97 151.5,193C 154.167,192.333 156.833,191.667 159.5,191C 160.056,190.617 160.389,190.117 160.5,189.5 Z"/></g>
<g><path style="opacity:1" fill="#fefffe" d="M 130.5,193.5 C 135.316,192.35 140.316,192.184 145.5,193C 143.927,196.778 142.427,200.611 141,204.5C 137.998,200.332 134.498,196.665 130.5,193.5 Z"/></g>
<g><path style="opacity:1" fill="#5a271a" d="M 144.5,212.5 C 142.726,218.432 140.56,224.432 138,230.5C 134.126,233.675 129.959,234.175 125.5,232C 126.056,231.617 126.389,231.117 126.5,230.5C 128.741,229.379 131.075,228.213 133.5,227C 135.364,224.312 137.364,221.812 139.5,219.5C 140.79,218.942 141.623,217.942 142,216.5C 141.805,208.492 143.305,200.825 146.5,193.5C 147.5,192.167 148.5,192.167 149.5,193.5C 146.73,199.581 145.064,205.914 144.5,212.5 Z"/></g>
<g><path style="opacity:1" fill="#4682cc" d="M 120.5,189.5 C 122.262,191.7 124.596,192.867 127.5,193C 129.684,195.016 131.684,197.183 133.5,199.5C 129.996,204.03 125.663,207.697 120.5,210.5C 120.167,210.333 119.833,210.167 119.5,210C 121.505,206.984 122.505,203.651 122.5,200C 121.975,196.459 121.308,192.959 120.5,189.5 Z"/></g>
<g><path style="opacity:1" fill="#fefeff" d="M 166.5,207.5 C 164.937,208.945 163.604,210.611 162.5,212.5C 161.735,212.923 160.902,213.257 160,213.5C 155.206,212.547 150.373,211.88 145.5,211.5C 145.144,208.436 145.977,205.769 148,203.5C 149.769,209.198 152.936,210.031 157.5,206C 159.667,203.833 161.833,201.667 164,199.5C 167.315,201.435 168.149,204.101 166.5,207.5 Z"/></g>
<g><path style="opacity:1" fill="#fefffe" d="M 134.5,200.5 C 138.12,203.31 138.286,206.31 135,209.5C 133.414,208.624 131.914,207.624 130.5,206.5C 131.467,204.21 132.8,202.21 134.5,200.5 Z"/></g>
<g><path style="opacity:1" fill="#fefffe" d="M 180.5,203.5 C 185.2,206.761 190.034,207.095 195,204.5C 195.667,207.167 195.667,209.833 195,212.5C 189.056,214.553 184.056,213.22 180,208.5C 179.36,206.735 179.527,205.068 180.5,203.5 Z"/></g>
<g><path style="opacity:1" fill="#99d9e9" d="M 139.5,219.5 C 137.364,221.812 135.364,224.312 133.5,227C 131.075,228.213 128.741,229.379 126.5,230.5C 115.652,228.97 112.985,223.47 118.5,214C 122.342,212.332 125.509,209.832 128,206.5C 130.638,209.317 133.638,211.65 137,213.5C 138.122,215.407 138.955,217.407 139.5,219.5 Z"/></g>
<g><path style="opacity:1" fill="#4d8bd6" d="M 138.5,207.5 C 139.496,207.414 140.329,207.748 141,208.5C 141.667,210.833 141.667,213.167 141,215.5C 139.859,213.391 138.359,211.558 136.5,210C 137.381,209.292 138.047,208.458 138.5,207.5 Z"/></g>
<g><path style="opacity:1" fill="#dd4a20" d="M 166.5,207.5 C 168.934,208.099 170.601,209.599 171.5,212C 169.742,219.731 168.408,227.565 167.5,235.5C 166.599,236.29 165.932,237.29 165.5,238.5C 163.566,239.11 161.899,240.11 160.5,241.5C 158.632,242.263 156.965,243.263 155.5,244.5C 153.62,244.229 152.287,244.896 151.5,246.5C 149.973,246.427 148.973,247.094 148.5,248.5C 147.026,246.863 145.192,245.863 143,245.5C 139.129,246.269 135.462,247.602 132,249.5C 125.925,248.784 120.425,246.784 115.5,243.5C 115.037,240.67 114.371,238.003 113.5,235.5C 113.18,232.102 113.513,228.768 114.5,225.5C 115.797,228.631 117.964,230.964 121,232.5C 121.953,235.432 122.453,238.432 122.5,241.5C 127.784,241.324 132.784,240.324 137.5,238.5C 139.104,237.713 139.771,236.38 139.5,234.5C 140.302,233.048 140.802,231.382 141,229.5C 142.791,232.35 143.958,235.35 144.5,238.5C 148.371,239.558 152.037,238.891 155.5,236.5C 158.96,235.125 162.46,233.791 166,232.5C 166.53,226.796 166.197,221.129 165,215.5C 163.955,214.627 163.122,213.627 162.5,212.5C 163.604,210.611 164.937,208.945 166.5,207.5 Z"/></g>
<g><path style="opacity:1" fill="#1e1e1d" d="M 144.5,212.5 C 150.391,213.989 156.391,215.156 162.5,216C 164.026,221.044 164.526,226.211 164,231.5C 157.53,232.724 151.03,232.557 144.5,231C 143.773,228.876 143.106,226.709 142.5,224.5C 144.145,220.675 144.812,216.675 144.5,212.5 Z"/></g>
<g><path style="opacity:1" fill="#41281b" d="M 178.5,216.5 C 183.139,219.155 187.806,221.821 192.5,224.5C 197.497,227.677 202.997,230.01 209,231.5C 210.03,231.836 210.53,232.503 210.5,233.5C 208.437,237.717 207.104,242.05 206.5,246.5C 203.243,245.538 200.243,244.038 197.5,242C 190.833,236.333 184.167,230.667 177.5,225C 176.216,224.316 175.049,224.483 174,225.5C 173.34,222.322 172.507,219.322 171.5,216.5C 171.461,215.244 171.961,214.244 173,213.5C 174.741,214.758 176.574,215.758 178.5,216.5 Z"/></g>
<g><path style="opacity:1" fill="#fec096" d="M 192.5,224.5 C 187.806,221.821 183.139,219.155 178.5,216.5C 178.787,214.879 179.787,213.879 181.5,213.5C 185.325,215.145 189.325,215.812 193.5,215.5C 193.632,218.57 193.299,221.57 192.5,224.5 Z"/></g>
<g><path style="opacity:1" fill="#6580b7" d="M 171.5,216.5 C 172.545,222.012 172.545,227.512 171.5,233C 177.08,258.734 182.08,284.567 186.5,310.5C 186.145,311.522 185.478,312.189 184.5,312.5C 180.31,309.773 176.31,310.106 172.5,313.5C 168.204,313.071 167.204,310.904 169.5,307C 168.115,293.624 164.781,280.791 159.5,268.5C 155.812,261.786 152.145,255.119 148.5,248.5C 150.027,248.573 151.027,247.906 151.5,246.5C 153.153,246.34 154.486,245.674 155.5,244.5C 158.034,244.741 159.7,243.741 160.5,241.5C 162.933,241.727 164.599,240.727 165.5,238.5C 165.932,237.29 166.599,236.29 167.5,235.5C 168.222,235.082 168.722,234.416 169,233.5C 169.71,227.669 170.543,222.002 171.5,216.5 Z"/></g>
<g><path style="opacity:1" fill="#cea38a" d="M 111.5,218.5 C 112.586,218.62 113.253,219.287 113.5,220.5C 111.845,222.754 109.678,224.421 107,225.5C 106.5,225.167 106,224.833 105.5,224.5C 107.103,222.046 109.103,220.046 111.5,218.5 Z"/></g>
<g><path style="opacity:1" fill="#c79d86" d="M 113.5,235.5 C 114.371,238.003 115.037,240.67 115.5,243.5C 115.586,244.496 115.252,245.329 114.5,246C 105.532,248.657 100.699,245.49 100,236.5C 102.027,230.642 105.86,226.642 111.5,224.5C 112.167,228.313 112.834,231.979 113.5,235.5 Z"/></g>
<g><path style="opacity:1" fill="#4983c9" d="M 139.5,234.5 C 139.771,236.38 139.104,237.713 137.5,238.5C 132.716,238.57 128.049,239.237 123.5,240.5C 123.162,237.989 123.162,235.655 123.5,233.5C 128.806,236.302 133.973,235.968 139,232.5C 139.464,233.094 139.631,233.761 139.5,234.5 Z"/></g>
<g><path style="opacity:1" fill="#406da6" d="M 155.5,236.5 C 152.037,238.891 148.371,239.558 144.5,238.5C 144.5,236.833 144.5,235.167 144.5,233.5C 147.193,233.572 149.86,233.905 152.5,234.5C 154.03,234.64 155.03,235.307 155.5,236.5 Z"/></g>
<g><path style="opacity:1" fill="#fec90d" d="M 210.5,233.5 C 211.756,233.461 212.756,233.961 213.5,235C 211.927,238.778 210.427,242.611 209,246.5C 208.023,247.774 207.189,247.774 206.5,246.5C 207.104,242.05 208.437,237.717 210.5,233.5 Z"/></g>
<g><path style="opacity:1" fill="#000000" d="M 165.5,238.5 C 164.599,240.727 162.933,241.727 160.5,241.5C 161.899,240.11 163.566,239.11 165.5,238.5 Z"/></g>
<g><path style="opacity:1" fill="#000000" d="M 160.5,241.5 C 159.7,243.741 158.034,244.741 155.5,244.5C 156.965,243.263 158.632,242.263 160.5,241.5 Z"/></g>
<g><path style="opacity:1" fill="#000000" d="M 155.5,244.5 C 154.486,245.674 153.153,246.34 151.5,246.5C 152.287,244.896 153.62,244.229 155.5,244.5 Z"/></g>
<g><path style="opacity:1" fill="#6581b8" d="M 122.5,255.5 C 122.806,258.385 122.473,261.052 121.5,263.5C 117.113,267.362 112.113,270.195 106.5,272C 110.426,273.027 114.093,274.527 117.5,276.5C 116.914,278.243 116.581,280.076 116.5,282C 117.183,290.154 117.683,298.32 118,306.5C 119.824,307.749 119.657,308.915 117.5,310C 115.866,310.494 114.199,310.66 112.5,310.5C 112.44,309.957 112.107,309.624 111.5,309.5C 109.22,310.136 107.22,311.136 105.5,312.5C 104.467,301.106 103.467,289.44 102.5,277.5C 103.801,267.859 104.801,258.192 105.5,248.5C 110.399,248.711 115.066,248.211 119.5,247C 120.996,249.714 121.996,252.547 122.5,255.5 Z"/></g>
<g><path style="opacity:1" fill="#000000" d="M 151.5,246.5 C 151.027,247.906 150.027,248.573 148.5,248.5C 148.973,247.094 149.973,246.427 151.5,246.5 Z"/></g>
<g><path style="opacity:1" fill="#3a3a3a" d="M 127.5,269.5 C 126.508,269.672 125.842,269.338 125.5,268.5C 123.964,264.283 122.964,259.95 122.5,255.5C 122.192,253.076 122.526,250.743 123.5,248.5C 126.228,249.145 128.895,249.979 131.5,251C 130.667,251.833 129.833,252.667 129,253.5C 128.827,259.016 128.327,264.349 127.5,269.5 Z"/></g>
<g><path style="opacity:1" fill="#384e78" d="M 121.5,263.5 C 121.239,268.225 119.905,272.559 117.5,276.5C 114.093,274.527 110.426,273.027 106.5,272C 112.113,270.195 117.113,267.362 121.5,263.5 Z"/></g>
<g><path style="opacity:1" fill="#2b3956" d="M 159.5,268.5 C 159.369,267.624 159.702,266.957 160.5,266.5C 165.561,269.588 169.894,268.755 173.5,264C 174.5,263.333 175.5,263.333 176.5,264C 174.65,267.362 172.317,270.362 169.5,273C 168.167,273.667 166.833,273.667 165.5,273C 163.34,271.668 161.34,270.168 159.5,268.5 Z"/></g>
<g><path style="opacity:1" fill="#fec90d" d="M 125.5,268.5 C 125.842,269.338 126.508,269.672 127.5,269.5C 128.569,272.408 128.736,275.408 128,278.5C 124.542,275.759 123.708,272.425 125.5,268.5 Z"/></g>
<g><path style="opacity:1" fill="#1d1d1d" d="M 112.5,310.5 C 113.952,311.302 115.618,311.802 117.5,312C 122.69,322.284 119.523,327.117 108,326.5C 105.648,326.695 103.648,326.028 102,324.5C 102.493,321.863 103.827,319.53 106,317.5C 106.64,315.735 106.473,314.068 105.5,312.5C 107.22,311.136 109.22,310.136 111.5,309.5C 112.107,309.624 112.44,309.957 112.5,310.5 Z"/></g>
<g><path style="opacity:1" fill="#1c1c1c" d="M 184.5,312.5 C 184.351,313.552 184.517,314.552 185,315.5C 188.833,318 192,321.167 194.5,325C 191.832,326.874 188.832,327.707 185.5,327.5C 182.989,327.712 180.822,327.045 179,325.5C 176.843,322.344 174.343,319.511 171.5,317C 172.337,315.989 172.67,314.822 172.5,313.5C 176.31,310.106 180.31,309.773 184.5,312.5 Z"/></g>
</svg>
