<?xml version="1.0" encoding="UTF-8"?>
<!DOCTYPE svg PUBLIC "-//W3C//DTD SVG 1.1//EN" "http://www.w3.org/Graphics/SVG/1.1/DTD/svg11.dtd">
<svg xmlns="http://www.w3.org/2000/svg" version="1.1" width="640px" height="752px" style="shape-rendering:geometricPrecision; text-rendering:geometricPrecision; image-rendering:optimizeQuality; fill-rule:evenodd; clip-rule:evenodd" xmlns:xlink="http://www.w3.org/1999/xlink">
<g><path style="opacity:1" fill="#fefefe" d="M -0.5,244.5 C -0.5,240.167 -0.5,235.833 -0.5,231.5C 38.4836,223.544 77.8169,218.377 117.5,216C 121.796,217.815 125.796,220.148 129.5,223C 183.853,223.961 238.187,225.461 292.5,227.5C 292.394,223.203 294.061,219.87 297.5,217.5C 298.165,209.671 302.332,206.671 310,208.5C 318.29,206.795 322.29,210.128 322,218.5C 323.905,220.424 325.072,222.757 325.5,225.5C 329.343,226.446 333.176,227.446 337,228.5C 338.784,227.667 338.784,226.667 337,225.5C 336.501,220.845 336.334,216.179 336.5,211.5C 333.482,211.665 330.482,211.498 327.5,211C 327,210.5 326.5,210 326,209.5C 325.333,204.5 325.333,199.5 326,194.5C 327,193.5 328,192.5 329,191.5C 331.039,178.121 329.039,165.454 323,153.5C 322.519,149.469 321.853,145.469 321,141.5C 317.711,135.918 314.711,130.252 312,124.5C 310,121.833 308,119.167 306,116.5C 303.459,101.316 304.125,86.3157 308,71.5C 313.541,66.6389 320.041,65.1389 327.5,67C 334.79,73.9004 337.79,82.4004 336.5,92.5C 336.365,98.8624 335.865,105.196 335,111.5C 334.626,112.416 334.126,113.25 333.5,114C 358.484,115.39 383.484,115.557 408.5,114.5C 408.666,123.173 408.5,131.84 408,140.5C 406.883,141.949 406.216,143.616 406,145.5C 405.043,158.586 405.71,171.586 408,184.5C 408.667,185.833 409.333,187.167 410,188.5C 410.5,198.161 410.666,207.828 410.5,217.5C 412.39,217.297 413.89,217.963 415,219.5C 416.161,224.416 416.827,229.416 417,234.5C 419.878,235.689 422.712,237.022 425.5,238.5C 432.051,245.552 438.051,253.052 443.5,261C 453.481,259.916 462.481,262.249 470.5,268C 473.631,272.133 477.131,275.966 481,279.5C 482.947,285.068 484.614,290.734 486,296.5C 487.403,311.811 487.737,327.144 487,342.5C 485.066,349.637 482.732,356.637 480,363.5C 478.207,366.295 476.04,368.795 473.5,371C 467.283,372.84 460.95,374.173 454.5,375C 451.782,376.072 449.115,377.238 446.5,378.5C 451.772,379.897 457.105,381.063 462.5,382C 466.846,384.148 469.679,387.648 471,392.5C 473.248,409.77 473.915,427.103 473,444.5C 472.5,445 472,445.5 471.5,446C 460.683,445.724 450.016,446.058 439.5,447C 438.794,451.579 437.627,456.079 436,460.5C 434.894,516.546 437.727,572.379 444.5,628C 442.497,636.171 441.33,644.671 441,653.5C 438.795,656.04 436.295,658.207 433.5,660C 419.527,661.174 405.693,660.341 392,657.5C 390.189,658.078 388.355,658.578 386.5,659C 386.454,663.428 384.621,666.928 381,669.5C 380.506,671.134 380.34,672.801 380.5,674.5C 365.308,678.572 349.975,682.072 334.5,685C 322.833,685.667 311.167,685.667 299.5,685C 297.185,683.891 295.685,682.057 295,679.5C 294.333,674.167 294.333,668.833 295,663.5C 302.865,660.151 310.365,656.151 317.5,651.5C 318.318,648.893 318.818,646.226 319,643.5C 321.667,640.833 324.333,638.167 327,635.5C 329.833,574.842 332.333,514.175 334.5,453.5C 333.247,436.107 331.58,418.774 329.5,401.5C 329.321,391.883 331.488,382.883 336,374.5C 336.5,366.507 336.666,358.507 336.5,350.5C 331.204,349.685 326.537,347.519 322.5,344C 314.667,336.833 306.833,329.667 299,322.5C 294.167,327.333 289.333,332.167 284.5,337C 281.785,338.908 278.785,340.241 275.5,341C 261.566,342.353 247.899,341.019 234.5,337C 224.742,329.031 217.242,319.197 212,307.5C 206.7,291.298 201.866,274.964 197.5,258.5C 195.333,258.167 193.167,257.833 191,257.5C 167.194,259.902 143.361,260.069 119.5,258C 118.684,254.731 117.684,251.564 116.5,248.5C 77.4659,247.705 38.4659,246.372 -0.5,244.5 Z M 233.5,257.5 C 236.167,257.5 238.833,257.5 241.5,257.5C 241.545,261.346 242.378,265.013 244,268.5C 247.167,271.667 250.333,274.833 253.5,278C 257.577,279.787 261.41,281.954 265,284.5C 265.333,287.167 265.667,289.833 266,292.5C 268.291,294.825 270.624,297.158 273,299.5C 271.487,305.476 268.153,310.476 263,314.5C 250.45,309.774 242.783,300.774 240,287.5C 237.639,277.528 235.472,267.528 233.5,257.5 Z"/></g>
<g><path style="opacity:1" fill="#000000" d="M 344.5,232.5 C 343.005,227.918 341.672,223.251 340.5,218.5C 341.33,214.851 341.996,211.185 342.5,207.5C 338.818,207.665 335.152,207.499 331.5,207C 329.522,204.503 329.022,201.669 330,198.5C 332.111,196.898 333.611,194.898 334.5,192.5C 333.726,184.195 333.226,175.861 333,167.5C 332.187,161.062 330.187,155.062 327,149.5C 326.519,145.469 325.853,141.469 325,137.5C 321.711,131.918 318.711,126.252 316,120.5C 314,117.833 312,115.167 310,112.5C 307.51,99.9695 308.176,87.6362 312,75.5C 317.414,68.9233 322.747,68.9233 328,75.5C 332.854,85.7362 333.854,96.4028 331,107.5C 329.691,111.099 328.191,114.599 326.5,118C 339.56,118.097 352.56,118.93 365.5,120.5C 378.436,118.799 391.436,118.132 404.5,118.5C 405.139,126.429 404.306,134.096 402,141.5C 400.544,157.223 401.211,172.889 404,188.5C 404.667,189.833 405.333,191.167 406,192.5C 406.693,202.189 406.527,211.856 405.5,221.5C 407.722,221.178 409.556,221.845 411,223.5C 412.161,228.416 412.827,233.416 413,238.5C 415.878,239.689 418.712,241.022 421.5,242.5C 428.051,249.552 434.051,257.052 439.5,265C 449.481,263.916 458.481,266.249 466.5,272C 469.631,276.133 473.131,279.966 477,283.5C 477.604,287.46 478.938,291.46 481,295.5C 483.184,309.757 483.85,324.09 483,338.5C 480.929,346.381 478.262,354.048 475,361.5C 473.167,363.333 471.333,365.167 469.5,367C 459.258,368.561 449.258,371.061 439.5,374.5C 439.415,377.747 440.415,380.581 442.5,383C 447.853,383.908 453.187,384.908 458.5,386C 462.846,388.148 465.679,391.648 467,396.5C 469.108,411.103 469.775,425.77 469,440.5C 463.761,443.238 458.595,442.905 453.5,439.5C 450.644,441.914 447.31,442.914 443.5,442.5C 441.5,442.333 439.5,442.167 437.5,442C 437,441.5 436.5,441 436,440.5C 435.035,445.923 433.701,451.256 432,456.5C 431.278,474.037 430.778,491.537 430.5,509C 432.614,537.421 434.447,565.921 436,594.5C 437.313,605.692 438.813,616.859 440.5,628C 440.333,629.5 440.167,631 440,632.5C 438.391,633.147 436.891,633.98 435.5,635C 439.856,643.991 437.856,650.991 429.5,656C 417.087,657.272 404.92,656.105 393,652.5C 389.502,653.333 386.002,654.166 382.5,655C 382.454,659.428 380.621,662.928 377,665.5C 376.506,667.134 376.34,668.801 376.5,670.5C 357.012,676.165 337.178,679.831 317,681.5C 311.725,681.616 306.558,681.116 301.5,680C 298.541,675.987 297.874,671.653 299.5,667C 307.275,663.947 314.608,660.113 321.5,655.5C 322.318,652.893 322.818,650.226 323,647.5C 326.349,644.318 329.516,640.985 332.5,637.5C 331.872,634.22 331.539,630.887 331.5,627.5C 334.259,569.516 336.593,511.516 338.5,453.5C 337.578,436.078 335.912,418.745 333.5,401.5C 333.965,393.301 336.132,385.634 340,378.5C 341.505,367.865 341.672,357.198 340.5,346.5C 335.204,345.685 330.537,343.519 326.5,340C 317.333,331.5 308.167,323 299,314.5C 292.833,320.667 286.667,326.833 280.5,333C 273.742,337.167 266.409,338.5 258.5,337C 251.71,336.303 245.044,334.969 238.5,333C 228.742,325.031 221.242,315.197 216,303.5C 210.7,287.298 205.866,270.964 201.5,254.5C 196.859,253.654 192.192,252.987 187.5,252.5C 177.802,254.775 167.969,255.775 158,255.5C 146.494,255.15 134.994,254.65 123.5,254C 122.684,250.731 121.684,247.564 120.5,244.5C 81.4659,243.705 42.4659,242.372 3.5,240.5C 3.5,238.833 3.5,237.167 3.5,235.5C 38.4344,228.819 73.6011,223.485 109,219.5C 115.39,220.073 120.89,222.573 125.5,227C 182.514,228.088 239.514,229.588 296.5,231.5C 296.394,227.203 298.061,223.87 301.5,221.5C 302.257,213.248 306.59,210.415 314.5,213C 317.027,215.574 318.194,218.74 318,222.5C 319.905,224.424 321.072,226.757 321.5,229.5C 328.965,231.972 336.632,232.972 344.5,232.5 Z M 233.5,257.5 C 235.472,267.528 237.639,277.528 240,287.5C 242.783,300.774 250.45,309.774 263,314.5C 268.153,310.476 271.487,305.476 273,299.5C 270.624,297.158 268.291,294.825 266,292.5C 265.667,289.833 265.333,287.167 265,284.5C 261.41,281.954 257.577,279.787 253.5,278C 250.333,274.833 247.167,271.667 244,268.5C 242.378,265.013 241.545,261.346 241.5,257.5C 238.833,257.5 236.167,257.5 233.5,257.5 Z"/></g>
<g><path style="opacity:1" fill="#72cce1" d="M 328.5,99.5 C 322.833,99.5 317.167,99.5 311.5,99.5C 311.981,92.7621 312.981,86.0955 314.5,79.5C 318.237,74.2289 322.07,74.2289 326,79.5C 326.803,82.2442 327.803,84.9109 329,87.5C 329.357,91.5104 329.19,95.5104 328.5,99.5 Z"/></g>
<g><path style="opacity:1" fill="#fef200" d="M 311.5,99.5 C 317.167,99.5 322.833,99.5 328.5,99.5C 328.973,107.888 325.807,114.221 319,118.5C 317.893,118.415 316.893,118.081 316,117.5C 313.114,111.857 311.614,105.857 311.5,99.5 Z"/></g>
<g><path style="opacity:1" fill="#1e1e23" d="M 322.5,124.5 C 332.992,123.341 343.659,123.175 354.5,124C 356.869,124.314 359.036,125.148 361,126.5C 373.735,124.343 386.568,123.343 399.5,123.5C 399.5,126.5 399.5,129.5 399.5,132.5C 385.785,132.915 372.118,133.915 358.5,135.5C 348.247,133.474 337.913,131.974 327.5,131C 325.97,128.648 324.303,126.481 322.5,124.5 Z"/></g>
<g><path style="opacity:1" fill="#3a3a41" d="M 338.5,175.5 C 342.445,174.272 345.612,171.939 348,168.5C 349.978,164.712 351.811,160.879 353.5,157C 349.029,158.245 345.029,160.579 341.5,164C 340.072,164.579 338.738,164.412 337.5,163.5C 334.614,154.182 331.948,144.849 329.5,135.5C 330.333,135.167 331.167,134.833 332,134.5C 340.168,135.467 348.335,136.467 356.5,137.5C 370.145,136.148 383.812,135.148 397.5,134.5C 395.244,148.436 394.911,162.436 396.5,176.5C 382.156,176.637 367.823,177.137 353.5,178C 348.585,178.305 344.085,179.805 340,182.5C 339.023,180.26 338.523,177.927 338.5,175.5 Z"/></g>
<g><path style="opacity:1" fill="#cccdcc" d="M 338.5,175.5 C 338.495,171.466 338.162,167.466 337.5,163.5C 338.738,164.412 340.072,164.579 341.5,164C 345.029,160.579 349.029,158.245 353.5,157C 351.811,160.879 349.978,164.712 348,168.5C 345.612,171.939 342.445,174.272 338.5,175.5 Z"/></g>
<g><path style="opacity:1" fill="#1f1e24" d="M 375.5,178.5 C 379.97,178.03 380.47,179.03 377,181.5C 376.843,183.995 376.676,186.328 376.5,188.5C 364.145,188.076 351.811,188.743 339.5,190.5C 339.643,188.738 339.309,187.071 338.5,185.5C 341.264,184.035 344.097,182.701 347,181.5C 356.593,180.075 366.093,179.075 375.5,178.5 Z"/></g>
<g><path style="opacity:1" fill="#790713" d="M 392.5,214.5 C 392.5,214.167 392.5,213.833 392.5,213.5C 396.477,208.64 397.31,203.307 395,197.5C 390.528,194.808 387.028,195.808 384.5,200.5C 383.903,200.265 383.57,199.765 383.5,199C 384.975,195.65 385.642,192.15 385.5,188.5C 389.185,188.105 392.852,187.938 396.5,188C 401.279,195.484 402.779,203.65 401,212.5C 400.703,215.914 400.036,219.247 399,222.5C 397.513,219.141 395.346,216.475 392.5,214.5 Z"/></g>
<g><path style="opacity:1" fill="#1f1d24" d="M 378.5,188.5 C 380.042,189.301 381.708,189.634 383.5,189.5C 381.511,202.922 379.011,216.256 376,229.5C 375.138,231.087 374.471,232.754 374,234.5C 370.613,237.887 367.279,241.221 364,244.5C 363.075,243.953 362.242,243.287 361.5,242.5C 365.1,238.3 367.933,233.633 370,228.5C 372.834,215.164 375.667,201.831 378.5,188.5 Z"/></g>
<g><path style="opacity:1" fill="#1e1e23" d="M 355.5,190.5 C 361.523,190.669 367.523,191.169 373.5,192C 362.795,198.235 351.295,202.068 339,203.5C 336.949,203.577 335.116,203.077 333.5,202C 336.598,199.572 338.931,196.572 340.5,193C 345.625,192.075 350.625,191.241 355.5,190.5 Z"/></g>
<g><path style="opacity:1" fill="#8b5243" d="M 373.5,201.5 C 367.362,206.636 360.362,209.97 352.5,211.5C 350.506,210.511 348.506,209.511 346.5,208.5C 346.489,206.983 345.823,205.816 344.5,205C 346.433,204.749 348.266,204.249 350,203.5C 351.11,205.037 352.61,205.703 354.5,205.5C 357.179,205.475 358.512,204.142 358.5,201.5C 364.172,199.247 369.672,196.581 375,193.5C 374.959,196.206 374.459,198.872 373.5,201.5 Z"/></g>
<g><path style="opacity:1" fill="#c3957f" d="M 392.5,213.5 C 391.5,213.833 390.833,214.5 390.5,215.5C 389.5,215.5 388.5,215.5 387.5,215.5C 387.5,218.833 387.5,222.167 387.5,225.5C 385.4,228.104 383.067,230.604 380.5,233C 380.728,233.399 381.062,233.565 381.5,233.5C 379.821,235.175 377.821,236.008 375.5,236C 376.796,233.239 377.963,230.405 379,227.5C 380.625,218.403 382.459,209.403 384.5,200.5C 387.028,195.808 390.528,194.808 395,197.5C 397.31,203.307 396.477,208.64 392.5,213.5 Z"/></g>
<g><path style="opacity:1" fill="#fefffe" d="M 358.5,201.5 C 358.512,204.142 357.179,205.475 354.5,205.5C 354.586,204.504 354.252,203.671 353.5,203C 355.154,202.392 356.821,201.892 358.5,201.5 Z"/></g>
<g><path style="opacity:1" fill="#c49881" d="M 373.5,201.5 C 371.437,210.098 369.604,218.764 368,227.5C 365.845,233.143 362.679,238.143 358.5,242.5C 353.46,240.102 351.46,236.102 352.5,230.5C 355.059,230.802 357.393,230.468 359.5,229.5C 362.139,227.162 361.806,224.995 358.5,223C 355.475,222.867 352.808,221.867 350.5,220C 351.167,219.667 351.833,219.333 352.5,219C 349.788,218.174 347.455,218.674 345.5,220.5C 344.522,220.189 343.855,219.522 343.5,218.5C 344.506,215.137 345.506,211.804 346.5,208.5C 348.506,209.511 350.506,210.511 352.5,211.5C 360.362,209.97 367.362,206.636 373.5,201.5 Z"/></g>
<g><path style="opacity:1" fill="#804b3f" d="M 392.5,213.5 C 392.5,213.833 392.5,214.167 392.5,214.5C 393.816,218.631 395.816,222.464 398.5,226C 393.312,229.594 387.646,232.094 381.5,233.5C 381.062,233.565 380.728,233.399 380.5,233C 383.067,230.604 385.4,228.104 387.5,225.5C 388.011,222.037 389.011,218.704 390.5,215.5C 390.833,214.5 391.5,213.833 392.5,213.5 Z"/></g>
<g><path style="opacity:1" fill="#000000" d="M 390.5,215.5 C 389.011,218.704 388.011,222.037 387.5,225.5C 387.5,222.167 387.5,218.833 387.5,215.5C 388.5,215.5 389.5,215.5 390.5,215.5 Z"/></g>
<g><path style="opacity:1" fill="#700a12" d="M 359.5,229.5 C 355.039,229.223 350.706,229.056 346.5,229C 345.228,226.956 345.561,225.122 347.5,223.5C 346.807,222.482 346.141,221.482 345.5,220.5C 347.455,218.674 349.788,218.174 352.5,219C 351.833,219.333 351.167,219.667 350.5,220C 352.808,221.867 355.475,222.867 358.5,223C 361.806,224.995 362.139,227.162 359.5,229.5 Z"/></g>
<g><path style="opacity:1" fill="#c2c3c2" d="M 107.5,223.5 C 113.699,225.182 119.366,228.015 124.5,232C 132.167,232.333 139.833,232.667 147.5,233C 148.293,234.085 148.96,235.252 149.5,236.5C 148.408,239.094 146.741,241.261 144.5,243C 140.177,244.809 135.677,245.976 131,246.5C 129.248,245.042 127.415,243.709 125.5,242.5C 126.582,242.251 127.915,242.085 129.5,242C 131.916,238.974 131.083,236.807 127,235.5C 125.739,235.759 124.739,236.426 124,237.5C 120.857,235.828 118.357,236.494 116.5,239.5C 114.333,239.833 112.167,240.167 110,240.5C 77.8492,239.149 45.6825,238.316 13.5,238C 44.8796,232.543 76.2129,227.709 107.5,223.5 Z"/></g>
<g><path style="opacity:1" fill="#f42b13" d="M 402.5,226.5 C 405.388,226.22 406.888,227.553 407,230.5C 407.307,235.357 407.807,240.19 408.5,245C 408.197,247.724 407.364,250.224 406,252.5C 399.641,250.678 393.141,250.178 386.5,251C 380.086,253.62 374.253,257.12 369,261.5C 363.548,255.855 363.048,249.689 367.5,243C 374.755,238.876 382.422,235.543 390.5,233C 394.753,231.045 398.753,228.878 402.5,226.5 Z"/></g>
<g><path style="opacity:1" fill="#bfbfbf" d="M 309.5,217.5 C 310.458,217.953 311.292,218.619 312,219.5C 312.333,221.833 312.667,224.167 313,226.5C 314.827,228.302 315.994,230.468 316.5,233C 315.833,233.333 315.167,233.667 314.5,234C 317.038,235.631 319.705,236.964 322.5,238C 265.465,238.893 208.465,237.893 151.5,235C 151.043,234.586 150.709,234.086 150.5,233.5C 153.333,233.167 156.167,232.833 159,232.5C 206.168,233.976 253.335,235.143 300.5,236C 302.569,235.676 302.902,234.842 301.5,233.5C 301.627,229.631 303.46,226.964 307,225.5C 307.272,222.618 308.106,219.951 309.5,217.5 Z"/></g>
<g><path style="opacity:1" fill="#fefffe" d="M 344.5,232.5 C 346.167,232.5 347.833,232.5 349.5,232.5C 349.182,236.794 350.015,240.794 352,244.5C 354.587,246.196 357.421,247.196 360.5,247.5C 360.66,249.199 360.494,250.866 360,252.5C 351.254,249.671 346.921,243.671 347,234.5C 346.005,233.934 345.172,233.267 344.5,232.5 Z"/></g>
<g><path style="opacity:1" fill="#552b25" d="M 335.5,242.5 C 336.427,246.636 338.427,247.302 341.5,244.5C 343.707,246.446 345.707,248.612 347.5,251C 353.78,254.387 359.947,257.887 366,261.5C 365.676,268.828 362.843,269.995 357.5,265C 355.26,264.023 352.927,263.523 350.5,263.5C 350.768,261.901 350.434,260.568 349.5,259.5C 346.167,259.167 342.833,258.833 339.5,258.5C 339.649,259.552 339.483,260.552 339,261.5C 338.506,259.866 338.34,258.199 338.5,256.5C 333.075,255.252 327.575,255.586 322,257.5C 317.8,256.828 313.633,255.994 309.5,255C 307.884,254.385 306.551,253.385 305.5,252C 297.391,251.406 289.391,251.906 281.5,253.5C 279.37,251.873 277.37,250.04 275.5,248C 273.975,246.991 272.308,246.491 270.5,246.5C 269.566,247.568 269.232,248.901 269.5,250.5C 242.195,248.977 214.862,247.977 187.5,247.5C 167.597,250.975 147.597,251.475 127.5,249C 132.896,248.277 138.229,247.277 143.5,246C 147.167,244.333 149.833,241.667 151.5,238C 209.472,239.802 267.472,240.636 325.5,240.5C 325.67,239.178 325.337,238.011 324.5,237C 325,236.833 325.5,236.667 326,236.5C 328.705,237.939 331.538,238.939 334.5,239.5C 334.263,240.791 334.596,241.791 335.5,242.5 Z"/></g>
<g><path style="opacity:1" fill="#ca9d85" d="M 341.5,244.5 C 338.427,247.302 336.427,246.636 335.5,242.5C 334.848,237.673 336.848,235.84 341.5,237C 342.308,237.308 342.975,237.808 343.5,238.5C 342.628,240.45 341.961,242.45 341.5,244.5 Z"/></g>
<g><path style="opacity:1" fill="#202225" d="M 411.5,243.5 C 423.222,248.388 431.889,256.554 437.5,268C 436.257,269.154 435.257,270.488 434.5,272C 433.833,272.667 433.167,272.667 432.5,272C 428.755,265.253 423.422,260.253 416.5,257C 414.333,254.833 412.167,252.667 410,250.5C 410.011,248.115 410.511,245.782 411.5,243.5 Z"/></g>
<g><path style="opacity:1" fill="#ca9d85" d="M 270.5,246.5 C 272.308,246.491 273.975,246.991 275.5,248C 277.37,250.04 279.37,251.873 281.5,253.5C 283.646,258.297 286.646,262.463 290.5,266C 286.333,270.167 282.167,274.333 278,278.5C 272.908,274.702 267.408,271.535 261.5,269C 258.667,266.167 255.833,263.333 253,260.5C 251.698,257.625 250.865,254.625 250.5,251.5C 252.5,251.5 254.5,251.5 256.5,251.5C 257.996,256.654 260.663,261.154 264.5,265C 268.089,265.207 271.589,265.707 275,266.5C 276.586,265.624 278.086,264.624 279.5,263.5C 277.883,259.477 275.216,255.811 271.5,252.5C 270.85,250.565 270.517,248.565 270.5,246.5 Z"/></g>
<g><path style="opacity:1" fill="#27282c" d="M 207.5,251.5 C 213.167,251.5 218.833,251.5 224.5,251.5C 224.154,254.885 223.488,258.218 222.5,261.5C 225.142,274.875 227.975,288.209 231,301.5C 231.333,300.5 231.667,299.5 232,298.5C 237.815,317.654 250.649,326.154 270.5,324C 277.673,317.148 283.507,309.315 288,300.5C 291.295,302.297 294.128,304.63 296.5,307.5C 290.015,314.486 283.348,321.319 276.5,328C 268.529,333.687 260.362,333.854 252,328.5C 247.275,328.825 242.775,327.658 238.5,325C 231.105,317.599 225.271,309.099 221,299.5C 215.561,283.742 211.061,267.742 207.5,251.5 Z"/></g>
<g><path style="opacity:1" fill="#864f41" d="M 256.5,251.5 C 261.463,252.254 266.463,252.587 271.5,252.5C 275.216,255.811 277.883,259.477 279.5,263.5C 278.086,264.624 276.586,265.624 275,266.5C 271.589,265.707 268.089,265.207 264.5,265C 260.663,261.154 257.996,256.654 256.5,251.5 Z"/></g>
<g><path style="opacity:1" fill="#1e1f22" d="M 414.5,296.5 C 408.588,285.074 401.254,274.574 392.5,265C 386.808,263.143 381.141,263.143 375.5,265C 370.043,268.625 365.043,272.791 360.5,277.5C 359.475,277.103 359.308,276.437 360,275.5C 363.833,271 367.667,266.5 371.5,262C 377.518,257.32 384.185,254.32 391.5,253C 403.62,260.944 412.62,271.444 418.5,284.5C 419.5,285.333 420.5,286.167 421.5,287C 420.234,287.309 419.067,287.809 418,288.5C 416.522,291.158 415.355,293.825 414.5,296.5 Z"/></g>
<g><path style="opacity:1" fill="#403f4b" d="M 395.5,253.5 C 395.735,252.903 396.235,252.57 397,252.5C 400.152,253.22 403.319,253.887 406.5,254.5C 407.647,254.182 408.481,253.516 409,252.5C 413.819,257.562 419.153,261.895 425,265.5C 427.36,268.36 429.527,271.36 431.5,274.5C 428.667,278.167 425.833,281.833 423,285.5C 419.589,281.276 416.922,276.609 415,271.5C 408.93,264.926 402.43,258.926 395.5,253.5 Z"/></g>
<g><path style="opacity:1" fill="#fefffe" d="M 229.5,253.5 C 234.833,253.5 240.167,253.5 245.5,253.5C 245.545,257.346 246.378,261.013 248,264.5C 251.167,267.667 254.333,270.833 257.5,274C 261.577,275.787 265.41,277.954 269,280.5C 269.333,283.167 269.667,285.833 270,288.5C 273.508,292.341 277.341,295.841 281.5,299C 277.654,306.515 272.654,313.182 266.5,319C 254.985,318.825 246.485,313.658 241,303.5C 234.3,287.501 230.467,270.835 229.5,253.5 Z M 233.5,257.5 C 235.472,267.528 237.639,277.528 240,287.5C 242.783,300.774 250.45,309.774 263,314.5C 268.153,310.476 271.487,305.476 273,299.5C 270.624,297.158 268.291,294.825 266,292.5C 265.667,289.833 265.333,287.167 265,284.5C 261.41,281.954 257.577,279.787 253.5,278C 250.333,274.833 247.167,271.667 244,268.5C 242.378,265.013 241.545,261.346 241.5,257.5C 238.833,257.5 236.167,257.5 233.5,257.5 Z"/></g>
<g><path style="opacity:1" fill="#27292d" d="M 307.5,256.5 C 312.411,257.877 317.411,259.043 322.5,260C 320.661,263.25 318.328,266.083 315.5,268.5C 312.467,266.302 309.3,264.302 306,262.5C 305.591,260.305 306.091,258.305 307.5,256.5 Z"/></g>
<g><path style="opacity:1" fill="#493904" d="M 330.5,260.5 C 329.902,263.821 328.235,264.821 325.5,263.5C 323.256,262.388 323.256,260.888 325.5,259C 327.101,258.727 328.601,258.227 330,257.5C 330.483,258.448 330.649,259.448 330.5,260.5 Z"/></g>
<g><path style="opacity:1" fill="#e9b600" d="M 334.5,259.5 C 333.585,262.086 331.918,264.086 329.5,265.5C 326.438,267.121 323.772,266.621 321.5,264C 322.793,263.51 324.127,263.343 325.5,263.5C 328.235,264.821 329.902,263.821 330.5,260.5C 331.404,259.791 331.737,258.791 331.5,257.5C 333.179,257.285 334.179,257.952 334.5,259.5 Z"/></g>
<g><path style="opacity:1" fill="#ac8672" d="M 338.5,256.5 C 338.34,258.199 338.506,259.866 339,261.5C 339.483,260.552 339.649,259.552 339.5,258.5C 342.833,258.833 346.167,259.167 349.5,259.5C 349.5,261.167 349.5,262.833 349.5,264.5C 346.874,266.823 344.207,269.157 341.5,271.5C 336.962,270.564 332.962,268.564 329.5,265.5C 331.918,264.086 333.585,262.086 334.5,259.5C 335.404,258.791 335.737,257.791 335.5,256.5C 336.5,256.5 337.5,256.5 338.5,256.5 Z"/></g>
<g><path style="opacity:1" fill="#403f4b" d="M 296.5,260.5 C 302.154,263.08 307.654,266.08 313,269.5C 313.243,274.942 314.077,280.275 315.5,285.5C 306.412,288.476 297.578,292.143 289,296.5C 283.577,293.081 278.744,288.915 274.5,284C 283.104,277.233 290.438,269.4 296.5,260.5 Z"/></g>
<g><path style="opacity:1" fill="#403e4c" d="M 414.5,296.5 C 412.953,315.871 411.786,335.204 411,354.5C 397.754,348.132 385.254,340.632 373.5,332C 382.66,327.728 391.493,322.894 400,317.5C 402.401,312.768 403.068,307.768 402,302.5C 396.018,283.426 383.518,276.926 364.5,283C 361.804,283.765 359.304,284.932 357,286.5C 357.463,283.286 358.63,280.286 360.5,277.5C 365.043,272.791 370.043,268.625 375.5,265C 381.141,263.143 386.808,263.143 392.5,265C 401.254,274.574 408.588,285.074 414.5,296.5 Z"/></g>
<g><path style="opacity:1" fill="#3d3b48" d="M 349.5,264.5 C 354.165,265.444 358.165,267.61 361.5,271C 359.457,272.708 357.79,274.708 356.5,277C 353.558,278.124 350.558,278.458 347.5,278C 345.167,276.333 342.833,274.667 340.5,273C 341.056,272.617 341.389,272.117 341.5,271.5C 344.207,269.157 346.874,266.823 349.5,264.5 Z"/></g>
<g><path style="opacity:1" fill="#1f2023" d="M 441.5,267.5 C 454.978,267.237 465.311,272.737 472.5,284C 470.799,284.345 469.466,283.678 468.5,282C 465.5,281.333 462.5,281.333 459.5,282C 460.891,283.02 462.391,283.853 464,284.5C 465.494,283.253 466.994,283.253 468.5,284.5C 476.236,295.346 479.069,307.346 477,320.5C 477.333,319.5 477.667,318.5 478,317.5C 479.155,331.554 476.488,344.888 470,357.5C 468.316,359.351 466.483,361.018 464.5,362.5C 463.914,362.291 463.414,361.957 463,361.5C 459.063,364.568 454.729,365.235 450,363.5C 447.655,365.924 444.822,367.091 441.5,367C 447.77,361.062 451.937,353.895 454,345.5C 455.515,332.871 455.848,320.205 455,307.5C 453.107,300.858 449.607,295.358 444.5,291C 438.011,289.037 431.344,288.037 424.5,288C 431.826,286.617 438.493,283.784 444.5,279.5C 444,279.167 443.5,278.833 443,278.5C 437.921,281.415 432.587,283.749 427,285.5C 426.833,285.167 426.667,284.833 426.5,284.5C 427.861,282.972 429.028,281.305 430,279.5C 430.317,281.301 430.984,281.634 432,280.5C 434.257,275.423 437.424,271.09 441.5,267.5 Z"/></g>
<g><path style="opacity:1" fill="#fefffe" d="M 323.5,271.5 C 323.56,270.957 323.893,270.624 324.5,270.5C 331.176,274.17 337.509,278.336 343.5,283C 350.741,282.951 351.407,284.951 345.5,289C 344.833,289.667 344.167,289.667 343.5,289C 336.962,282.958 330.295,277.125 323.5,271.5 Z"/></g>
<g><path style="opacity:1" fill="#3c3c43" d="M 315.5,272.5 C 317.934,273.771 319.434,275.771 320,278.5C 321.393,283.095 321.726,287.761 321,292.5C 312.636,296.621 303.969,299.955 295,302.5C 294.07,300.448 292.57,298.948 290.5,298C 299.123,293.905 307.957,290.405 317,287.5C 316.578,282.536 316.078,277.536 315.5,272.5 Z"/></g>
<g><path style="opacity:1" fill="#403e4c" d="M 322.5,279.5 C 329.559,286.06 337.059,292.06 345,297.5C 354.437,288.453 365.77,283.453 379,282.5C 383.795,283.541 388.128,285.541 392,288.5C 394.921,293.341 397.588,298.341 400,303.5C 401.879,310.101 400.046,315.268 394.5,319C 387.414,322.14 380.414,325.474 373.5,329C 365.77,334.902 357.437,339.735 348.5,343.5C 338.448,340.641 329.781,335.475 322.5,328C 314.446,319.946 306.446,311.946 298.5,304C 307.128,301.461 315.295,297.961 323,293.5C 323.717,288.78 323.55,284.114 322.5,279.5 Z"/></g>
<g><path style="opacity:1" fill="#202225" d="M 419.5,290.5 C 427.685,289.95 435.685,290.784 443.5,293C 448.045,297.244 451.211,302.411 453,308.5C 454.077,321.94 453.41,335.273 451,348.5C 447.084,357.686 441.25,365.352 433.5,371.5C 427.457,370.572 421.791,368.572 416.5,365.5C 414.262,359.205 412.928,352.705 412.5,346C 414.064,332.206 415.231,318.372 416,304.5C 416.236,299.555 417.403,294.888 419.5,290.5 Z"/></g>
<g><path style="opacity:1" fill="#202225" d="M 370.5,333.5 C 383.126,342.154 396.459,349.821 410.5,356.5C 411.949,358.611 412.949,360.944 413.5,363.5C 393.995,363.067 374.995,359.4 356.5,352.5C 354.422,350.61 353.089,348.276 352.5,345.5C 358.813,341.833 364.813,337.833 370.5,333.5 Z"/></g>
<g><path style="opacity:1" fill="#870014" d="M 348.5,362.5 C 348.344,366.764 349.011,370.764 350.5,374.5C 350.082,377.439 348.582,379.772 346,381.5C 346.686,371.335 346.52,361.168 345.5,351C 345.833,349.167 346.167,347.333 346.5,345.5C 347.167,351.319 347.833,356.986 348.5,362.5 Z"/></g>
<g><path style="opacity:1" fill="#1f2024" d="M 350.5,374.5 C 349.011,370.764 348.344,366.764 348.5,362.5C 348.171,356.794 348.505,351.128 349.5,345.5C 350.761,347.453 351.927,349.453 353,351.5C 353.06,356.39 354.06,361.057 356,365.5C 357.11,367.037 358.61,367.703 360.5,367.5C 360.617,369.484 359.95,371.15 358.5,372.5C 356.082,373.457 353.916,374.791 352,376.5C 351.722,375.584 351.222,374.918 350.5,374.5 Z"/></g>
<g><path style="opacity:1" fill="#403f4b" d="M 355.5,354.5 C 367.741,359.227 380.407,362.394 393.5,364C 392.782,365.987 391.782,367.821 390.5,369.5C 379.967,367.193 369.301,365.693 358.5,365C 356.481,361.794 355.481,358.294 355.5,354.5 Z"/></g>
<g><path style="opacity:1" fill="#870014" d="M 395.5,364.5 C 396.693,364.97 397.36,365.97 397.5,367.5C 396.4,377.154 396.4,386.821 397.5,396.5C 398.062,414.222 390.728,427.388 375.5,436C 370.833,436.667 366.167,436.667 361.5,436C 367.163,435.918 372.496,434.584 377.5,432C 382.746,427.425 387.246,422.258 391,416.5C 394.33,406.309 393.497,396.475 388.5,387C 390.757,379.47 393.09,371.97 395.5,364.5 Z"/></g>
<g><path style="opacity:1" fill="#403f4b" d="M 399.5,364.5 C 404.499,365.266 409.499,366.1 414.5,367C 416.332,367.748 417.999,368.748 419.5,370C 416.845,371.441 414.012,372.274 411,372.5C 407.143,371.895 403.31,371.228 399.5,370.5C 399.5,368.5 399.5,366.5 399.5,364.5 Z"/></g>
<g><path style="opacity:1" fill="#99d9e9" d="M 371.5,371.5 C 371.842,372.338 372.508,372.672 373.5,372.5C 373.083,373.124 372.416,373.457 371.5,373.5C 367.862,372.818 364.195,372.318 360.5,372C 361.38,370.644 361.714,369.144 361.5,367.5C 364.518,367.704 367.518,368.037 370.5,368.5C 370.263,369.791 370.596,370.791 371.5,371.5 Z"/></g>
<g><path style="opacity:1" fill="#1e1f22" d="M 387.5,379.5 C 384.43,376.969 381.096,374.969 377.5,373.5C 376.432,372.566 375.099,372.232 373.5,372.5C 372.508,372.672 371.842,372.338 371.5,371.5C 371.5,370.5 371.5,369.5 371.5,368.5C 377.612,368.852 383.612,369.852 389.5,371.5C 389.833,372 390.167,372.5 390.5,373C 390.162,375.609 389.162,377.776 387.5,379.5 Z"/></g>
<g><path style="opacity:1" fill="#202125" d="M 421.5,370.5 C 424.719,371.638 428.053,372.471 431.5,373C 432.428,373.388 433.095,374.055 433.5,375C 433.804,380.218 435.47,384.885 438.5,389C 437.714,390.752 437.88,392.586 439,394.5C 439.667,398.167 439.667,401.833 439,405.5C 438.667,403.5 438.333,401.5 438,399.5C 437.764,401.764 437.264,403.931 436.5,406C 428.534,410.545 420.034,413.712 411,415.5C 406.151,414.76 401.317,413.926 396.5,413C 398.216,406.155 399.216,399.155 399.5,392C 398.763,385.519 398.43,379.019 398.5,372.5C 405.147,374.63 411.814,374.797 418.5,373C 419.942,372.623 420.942,371.79 421.5,370.5 Z"/></g>
<g><path style="opacity:1" fill="#99d9e9" d="M 377.5,373.5 C 381.096,374.969 384.43,376.969 387.5,379.5C 388.935,380.985 388.768,382.318 387,383.5C 383.642,379.241 379.475,376.074 374.5,374C 375.448,373.517 376.448,373.351 377.5,373.5 Z"/></g>
<g><path style="opacity:1" fill="#82b7c5" d="M 343.5,419.5 C 343.833,419.5 344.167,419.5 344.5,419.5C 357.538,434.295 370.205,433.962 382.5,418.5C 383.5,418.167 384.167,417.5 384.5,416.5C 384.802,413.627 385.469,410.961 386.5,408.5C 387.158,407.207 387.492,405.707 387.5,404C 387.592,401.179 386.926,398.679 385.5,396.5C 383.871,394.142 382.705,391.476 382,388.5C 380.45,387.409 379.283,386.076 378.5,384.5C 378.217,383.711 377.717,383.044 377,382.5C 372.399,383.142 367.899,383.809 363.5,384.5C 358.901,384.8 354.401,384.467 350,383.5C 349.283,384.044 348.783,384.711 348.5,385.5C 347.206,386.29 346.039,387.29 345,388.5C 344.058,391.374 342.891,394.04 341.5,396.5C 340.532,398.607 340.198,400.941 340.5,403.5C 339.414,403.38 338.747,402.713 338.5,401.5C 340.384,389.109 347.05,380.276 358.5,375C 379.444,374.103 390.444,384.27 391.5,405.5C 389.093,419.073 381.426,428.24 368.5,433C 356.258,435.568 347.925,431.068 343.5,419.5 Z"/></g>
<g><path style="opacity:1" fill="#000000" d="M 378.5,384.5 C 373.5,384.5 368.5,384.5 363.5,384.5C 367.899,383.809 372.399,383.142 377,382.5C 377.717,383.044 378.217,383.711 378.5,384.5 Z"/></g>
<g><path style="opacity:1" fill="#000000" d="M 363.5,384.5 C 358.695,385.487 353.695,385.821 348.5,385.5C 348.783,384.711 349.283,384.044 350,383.5C 354.401,384.467 358.901,384.8 363.5,384.5 Z"/></g>
<g><path style="opacity:1" fill="#97d6e6" d="M 363.5,384.5 C 368.5,384.5 373.5,384.5 378.5,384.5C 379.283,386.076 380.45,387.409 382,388.5C 382.705,391.476 383.871,394.142 385.5,396.5C 385.5,397.5 385.5,398.5 385.5,399.5C 378.313,399.175 371.313,399.509 364.5,400.5C 356.833,400.5 349.167,400.5 341.5,400.5C 341.5,399.167 341.5,397.833 341.5,396.5C 342.891,394.04 344.058,391.374 345,388.5C 346.039,387.29 347.206,386.29 348.5,385.5C 353.695,385.821 358.695,385.487 363.5,384.5 Z"/></g>
<g><path style="opacity:1" fill="#202125" d="M 440.5,388.5 C 442.993,388.329 444.826,389.329 446,391.5C 446.519,390.484 447.353,389.818 448.5,389.5C 455.813,389.737 460.313,393.404 462,400.5C 463.791,412.447 464.458,424.447 464,436.5C 463.667,436.833 463.333,437.167 463,437.5C 457.636,434.012 452.136,433.678 446.5,436.5C 445.679,433.553 445.179,430.553 445,427.5C 444.502,430.817 444.335,434.15 444.5,437.5C 441.07,435.427 437.403,433.76 433.5,432.5C 434.192,424.858 434.692,417.192 435,409.5C 436.912,408.308 438.912,407.308 441,406.5C 441.575,400.478 441.409,394.478 440.5,388.5 Z"/></g>
<g><path style="opacity:1" fill="#000000" d="M 341.5,396.5 C 341.5,397.833 341.5,399.167 341.5,400.5C 349.167,400.5 356.833,400.5 364.5,400.5C 356.414,400.898 348.414,401.898 340.5,403.5C 340.198,400.941 340.532,398.607 341.5,396.5 Z"/></g>
<g><path style="opacity:1" fill="#000000" d="M 385.5,396.5 C 386.926,398.679 387.592,401.179 387.5,404C 387.492,405.707 387.158,407.207 386.5,408.5C 386.5,405.833 386.5,403.167 386.5,400.5C 379.167,400.5 371.833,400.5 364.5,400.5C 371.313,399.509 378.313,399.175 385.5,399.5C 385.5,398.5 385.5,397.5 385.5,396.5 Z"/></g>
<g><path style="opacity:1" fill="#96d5e6" d="M 364.5,400.5 C 371.833,400.5 379.167,400.5 386.5,400.5C 386.5,403.167 386.5,405.833 386.5,408.5C 385.469,410.961 384.802,413.627 384.5,416.5C 377.978,416.177 371.645,416.51 365.5,417.5C 358.245,417.813 351.079,417.48 344,416.5C 343.517,417.448 343.351,418.448 343.5,419.5C 340.28,414.615 339.28,409.281 340.5,403.5C 348.414,401.898 356.414,400.898 364.5,400.5 Z"/></g>
<g><path style="opacity:1" fill="#202225" d="M 431.5,410.5 C 432.933,420.961 432.266,431.461 429.5,442C 429.245,443.326 428.578,444.326 427.5,445C 405.154,451.917 382.487,453.251 359.5,449C 354.971,447.486 350.805,445.319 347,442.5C 346.333,438.167 346.333,433.833 347,429.5C 355.151,437.983 364.984,440.816 376.5,438C 385.977,433.191 392.643,425.858 396.5,416C 409.013,419.128 420.68,417.295 431.5,410.5 Z"/></g>
<g><path style="opacity:1" fill="#000000" d="M 365.5,417.5 C 358.5,418.167 351.5,418.833 344.5,419.5C 344.167,419.5 343.833,419.5 343.5,419.5C 343.351,418.448 343.517,417.448 344,416.5C 351.079,417.48 358.245,417.813 365.5,417.5 Z"/></g>
<g><path style="opacity:1" fill="#000000" d="M 365.5,417.5 C 371.645,416.51 377.978,416.177 384.5,416.5C 384.167,417.5 383.5,418.167 382.5,418.5C 377.025,417.511 371.358,417.178 365.5,417.5 Z"/></g>
<g><path style="opacity:1" fill="#99d9e9" d="M 365.5,417.5 C 371.358,417.178 377.025,417.511 382.5,418.5C 370.205,433.962 357.538,434.295 344.5,419.5C 351.5,418.833 358.5,418.167 365.5,417.5 Z"/></g>
<g><path style="opacity:1" fill="#52525e" d="M 369.5,454.5 C 367.922,489.815 366.755,525.148 366,560.5C 364.587,583.993 363.087,607.326 361.5,630.5C 360.532,632.607 360.198,634.941 360.5,637.5C 354.459,637.747 348.459,637.414 342.5,636.5C 338.064,635.073 336.064,632.073 336.5,627.5C 339.472,569.528 341.806,511.528 343.5,453.5C 343.315,444.464 342.648,435.464 341.5,426.5C 341.506,421.427 342.339,421.427 344,426.5C 344.333,432.167 344.667,437.833 345,443.5C 348.081,446.293 351.581,448.46 355.5,450C 360.587,450.957 365.254,452.457 369.5,454.5 Z"/></g>
<g><path style="opacity:1" fill="#555661" d="M 424.5,447.5 C 425.978,447.238 427.311,447.571 428.5,448.5C 426.991,458.27 425.658,468.103 424.5,478C 426.762,488.246 427.095,498.58 425.5,509C 427.483,538.82 429.316,568.654 431,598.5C 431.947,608.462 433.447,618.295 435.5,628C 432.367,628.96 429.2,629.793 426,630.5C 414.334,629.167 402.834,627 391.5,624C 390.5,623.5 389.5,623 388.5,622.5C 388.167,619.667 387.833,616.833 387.5,614C 388.44,599.437 389.94,584.937 392,570.5C 392.668,553.146 393.668,535.812 395,518.5C 397.989,500.602 400.322,482.602 402,464.5C 403.709,461.582 405.542,458.748 407.5,456C 412.685,451.927 418.352,449.093 424.5,447.5 Z"/></g>
<g><path style="opacity:1" fill="#52525d" d="M 366.5,630.5 C 368.725,575.672 371.058,521.005 373.5,466.5C 374.166,461.983 374.833,457.317 375.5,452.5C 378.175,472.76 380.342,493.094 382,513.5C 383.46,516.21 385.46,516.876 388,515.5C 387.091,494.856 386.257,474.19 385.5,453.5C 393.574,453.43 401.574,452.93 409.5,452C 405.042,454.74 401.875,458.573 400,463.5C 398.322,481.602 395.989,499.602 393,517.5C 391.868,546.606 389.535,575.606 386,604.5C 385.04,614.601 385.54,624.601 387.5,634.5C 386.271,635.281 384.938,635.781 383.5,636C 377.843,636.499 372.176,636.666 366.5,636.5C 366.5,634.5 366.5,632.5 366.5,630.5 Z"/></g>
<g><path style="opacity:1" fill="#f42b13" d="M 373.5,466.5 C 371.058,521.005 368.725,575.672 366.5,630.5C 365.539,632.265 365.205,634.265 365.5,636.5C 364.178,636.33 363.011,636.663 362,637.5C 361.503,635.19 361.337,632.857 361.5,630.5C 363.087,607.326 364.587,583.993 366,560.5C 366.755,525.148 367.922,489.815 369.5,454.5C 370.467,453.194 371.801,452.527 373.5,452.5C 373.5,457.167 373.5,461.833 373.5,466.5 Z"/></g>
<g><path style="opacity:1" fill="#212226" d="M 378.5,453.5 C 380.167,453.5 381.833,453.5 383.5,453.5C 383.962,468.841 384.628,484.174 385.5,499.5C 385.603,502.037 385.103,504.371 384,506.5C 381.777,488.879 379.944,471.213 378.5,453.5 Z"/></g>
<g><path style="opacity:1" fill="#e9b600" d="M 385.5,507.5 C 386.629,509.628 386.796,511.961 386,514.5C 382.879,512.326 382.712,509.993 385.5,507.5 Z"/></g>
<g><path style="opacity:1" fill="#414651" d="M 397.5,628.5 C 407.921,629.703 418.254,631.369 428.5,633.5C 430.136,636.911 431.469,640.411 432.5,644C 414.474,648.832 397.141,647.165 380.5,639C 383.432,638.047 386.432,637.547 389.5,637.5C 389.281,636.325 389.614,635.325 390.5,634.5C 393.464,633.192 395.797,631.192 397.5,628.5 Z"/></g>
<g><path style="opacity:1" fill="#40444f" d="M 366.5,640.5 C 367.708,641.234 369.041,641.567 370.5,641.5C 371.404,640.791 371.737,639.791 371.5,638.5C 373.167,638.5 374.833,638.5 376.5,638.5C 376.844,642.228 377.51,645.895 378.5,649.5C 377.675,650.386 376.675,650.719 375.5,650.5C 377.054,657.304 374.387,661.637 367.5,663.5C 353.69,666.375 340.69,664.375 328.5,657.5C 327.359,655.579 327.192,653.579 328,651.5C 332.386,646.611 337.22,642.278 342.5,638.5C 349.833,639.833 357.167,639.833 364.5,638.5C 365.182,639.243 365.849,639.909 366.5,640.5 Z"/></g>
<g><path style="opacity:1" fill="#c2c3c2" d="M 370.5,641.5 C 369.041,641.567 367.708,641.234 366.5,640.5C 367.183,638.824 368.517,638.157 370.5,638.5C 370.5,639.5 370.5,640.5 370.5,641.5 Z"/></g>
<g><path style="opacity:1" fill="#c2c3c2" d="M 368.5,646.5 C 369.5,646.5 370.5,646.5 371.5,646.5C 371.426,650.541 370.093,651.208 367.5,648.5C 367.863,647.817 368.196,647.15 368.5,646.5 Z"/></g>
<g><path style="opacity:1" fill="#c2c3c2" d="M 369.5,654.5 C 372.861,655.203 373.194,656.537 370.5,658.5C 368.358,657.563 368.024,656.23 369.5,654.5 Z"/></g>
</svg>
