<?xml version="1.0" encoding="UTF-8"?>
<!DOCTYPE svg PUBLIC "-//W3C//DTD SVG 1.1//EN" "http://www.w3.org/Graphics/SVG/1.1/DTD/svg11.dtd">
<svg xmlns="http://www.w3.org/2000/svg" version="1.1" width="490px" height="500px" style="shape-rendering:geometricPrecision; text-rendering:geometricPrecision; image-rendering:optimizeQuality; fill-rule:evenodd; clip-rule:evenodd" xmlns:xlink="http://www.w3.org/1999/xlink">
<g><path style="opacity:1" fill="#fefffe" d="M 270.5,33.5 C 275.179,33.3342 279.845,33.5008 284.5,34C 286.848,34.3459 288.681,35.5125 290,37.5C 291.27,45.3967 291.937,53.3967 292,61.5C 293.385,62.5505 294.385,63.8839 295,65.5C 296.012,74.2153 297.345,82.8819 299,91.5C 302.797,98.4167 304.464,97.7501 304,89.5C 305.167,88.3333 306.333,87.1667 307.5,86C 313.5,85.3333 319.5,85.3333 325.5,86C 326.5,87 327.5,88 328.5,89C 338.812,90.6556 349.145,92.3222 359.5,94C 370.341,105.916 372.341,119.082 365.5,133.5C 371.416,143.331 376.249,153.664 380,164.5C 380.819,175.077 380.652,185.577 379.5,196C 385.594,204.065 388.261,213.232 387.5,223.5C 387.476,226.421 387.143,229.254 386.5,232C 381.798,232.172 377.132,232.672 372.5,233.5C 373.624,239.448 373.79,245.448 373,251.5C 371.719,254.942 369.553,257.608 366.5,259.5C 367.084,267.266 368.25,274.933 370,282.5C 371.574,283.984 372.907,285.651 374,287.5C 378.063,295.93 381.729,304.596 385,313.5C 386.277,333.752 388.11,353.919 390.5,374C 390.67,377.864 390.003,381.531 388.5,385C 386.913,385.862 385.246,386.529 383.5,387C 376.833,387.667 370.167,387.667 363.5,387C 356.014,383.338 348.18,380.838 340,379.5C 339.333,374.5 339.333,369.5 340,364.5C 340.374,363.584 340.874,362.75 341.5,362C 344.284,361.108 346.95,359.942 349.5,358.5C 351.279,349.191 350.279,340.191 346.5,331.5C 342.379,331.512 339.879,329.512 339,325.5C 337.022,319.589 335.355,313.589 334,307.5C 331.27,304.696 329.27,301.362 328,297.5C 324.3,301.535 320.3,305.202 316,308.5C 314.814,314.069 312.481,319.069 309,323.5C 309.998,337.444 310.665,351.444 311,365.5C 311.438,368.376 312.438,371.043 314,373.5C 314.158,384.502 313.825,395.502 313,406.5C 304.417,412.359 294.917,415.859 284.5,417C 276.833,417.667 269.167,417.667 261.5,417C 256.902,417.307 253.069,415.807 250,412.5C 249.333,406.5 249.333,400.5 250,394.5C 252.737,393.44 255.57,392.606 258.5,392C 260.713,389.726 263.379,388.226 266.5,387.5C 269.371,365.908 267.871,344.574 262,323.5C 261.333,317.167 261.333,310.833 262,304.5C 264.812,298.21 268.145,292.21 272,286.5C 274.082,279.922 276.748,273.589 280,267.5C 284.561,261.268 288.728,254.768 292.5,248C 289.121,244.588 287.621,240.422 288,235.5C 286.333,233.5 284.667,231.5 283,229.5C 280.946,222.992 277.946,216.992 274,211.5C 266.476,218.714 257.642,220.547 247.5,217C 245.004,215.92 242.67,214.586 240.5,213C 233.5,206 226.5,199 219.5,192C 217.833,191.667 216.167,191.333 214.5,191C 211.01,188.089 207.344,185.422 203.5,183C 202.313,179.738 200.646,176.738 198.5,174C 193.499,173.942 188.665,173.109 184,171.5C 175.768,177.516 166.601,179.683 156.5,178C 155.646,176.978 154.646,176.145 153.5,175.5C 149.141,177.03 145.141,179.197 141.5,182C 135.584,183.408 130.25,182.408 125.5,179C 120.5,178.333 115.5,178.333 110.5,179C 100.5,181.667 90.5,184.333 80.5,187C 70.4728,187.231 60.4728,186.731 50.5,185.5C 50.3347,181.818 50.5014,178.152 51,174.5C 55.6823,170.661 60.6823,167.328 66,164.5C 79.5,160.667 93,156.833 106.5,153C 111.167,152.667 115.833,152.333 120.5,152C 154.142,142.673 187.809,133.507 221.5,124.5C 221.422,121.223 222.756,118.723 225.5,117C 232.856,116.557 240.189,116.89 247.5,118C 249.848,118.346 251.681,119.513 253,121.5C 253.624,119.536 253.124,117.869 251.5,116.5C 248.296,115.796 245.129,115.13 242,114.5C 240.742,109.649 241.576,105.315 244.5,101.5C 243.512,93.0901 242.012,84.7568 240,76.5C 236.045,65.1101 239.878,58.6101 251.5,57C 255.486,56.5012 259.486,56.3345 263.5,56.5C 263.13,50.0749 263.63,43.7416 265,37.5C 266.812,36.0229 268.645,34.6896 270.5,33.5 Z M 250.5,162.5 C 256.206,163.348 256.706,165.348 252,168.5C 249.913,167.206 247.746,166.039 245.5,165C 247.315,164.243 248.981,163.41 250.5,162.5 Z"/></g>
<g><path style="opacity:1" fill="#000000" d="M 273.5,36.5 C 279.801,35.3137 284.634,37.3137 288,42.5C 288.333,49.8333 288.667,57.1667 289,64.5C 290.385,65.5505 291.385,66.8839 292,68.5C 293.012,77.2153 294.345,85.8819 296,94.5C 296.953,96.4552 298.287,98.1218 300,99.5C 300.497,102.146 300.664,104.813 300.5,107.5C 301.822,107.33 302.989,107.663 304,108.5C 306.013,103.435 307.013,98.1019 307,92.5C 308.167,91.3333 309.333,90.1667 310.5,89C 314.5,88.3333 318.5,88.3333 322.5,89C 323.5,90 324.5,91 325.5,92C 335.812,93.6556 346.145,95.3222 356.5,97C 364.086,104.666 367.253,113.833 366,124.5C 364.752,127.579 362.919,130.246 360.5,132.5C 365.903,142.73 371.07,153.064 376,163.5C 377.557,173.106 377.891,182.772 377,192.5C 376.293,194.081 375.46,195.581 374.5,197C 382.901,206.113 385.901,216.78 383.5,229C 379.465,229.697 375.465,229.53 371.5,228.5C 369.792,228.703 368.459,229.536 367.5,231C 370.247,236.528 371.08,242.361 370,248.5C 367.981,252.331 365.481,255.664 362.5,258.5C 363.873,267.535 365.373,276.535 367,285.5C 368.574,286.984 369.907,288.651 371,290.5C 375.063,298.93 378.729,307.596 382,316.5C 382.42,330.319 383.92,343.986 386.5,357.5C 386.679,360.131 386.013,362.465 384.5,364.5C 388.039,370.173 388.372,376.007 385.5,382C 375.854,385.787 366.521,385.121 357.5,380C 352.568,379.097 347.735,377.93 343,376.5C 342.163,372.705 342.496,369.039 344,365.5C 346.878,364.311 349.712,362.978 352.5,361.5C 354.439,350.202 353.439,339.202 349.5,328.5C 345.379,328.512 342.879,326.512 342,322.5C 340.022,316.589 338.355,310.589 337,304.5C 336.075,303.953 335.242,303.287 334.5,302.5C 332.756,298.092 330.922,293.758 329,289.5C 324.333,295.5 319,300.833 313,305.5C 311.814,311.069 309.481,316.069 306,320.5C 305.663,323.861 305.163,327.194 304.5,330.5C 305.641,333.755 306.474,337.089 307,340.5C 307.333,349.833 307.667,359.167 308,368.5C 309.468,372.429 310.635,376.429 311.5,380.5C 312.016,383.815 310.683,385.982 307.5,387C 308.211,388.255 309.044,389.421 310,390.5C 310.667,394.833 310.667,399.167 310,403.5C 293.833,413.612 276.333,416.779 257.5,413C 255.714,412.215 254.214,411.049 253,409.5C 252.333,405.5 252.333,401.5 253,397.5C 255.737,396.44 258.57,395.606 261.5,395C 266.156,392.62 270.489,389.787 274.5,386.5C 273.24,385.618 272.074,384.618 271,383.5C 272.306,362.195 270.306,341.195 265,320.5C 264.333,316.167 264.333,311.833 265,307.5C 267.812,301.21 271.145,295.21 275,289.5C 278.253,278.324 283.586,268.324 291,259.5C 293.11,255.614 294.943,251.614 296.5,247.5C 295.233,245.056 293.733,242.723 292,240.5C 291.667,237.833 291.333,235.167 291,232.5C 289.333,230.5 287.667,228.5 286,226.5C 283.372,218.578 279.705,211.244 275,204.5C 270.926,208.119 266.759,211.619 262.5,215C 255.464,215.991 249.131,214.324 243.5,210C 236.5,203 229.5,196 222.5,189C 220.833,188.667 219.167,188.333 217.5,188C 214.01,185.089 210.344,182.422 206.5,180C 205.313,176.738 203.646,173.738 201.5,171C 197.833,170.667 194.167,170.333 190.5,170C 188.656,168.818 186.823,167.651 185,166.5C 180.261,169.12 175.427,171.62 170.5,174C 164.898,176.775 160.065,175.942 156,171.5C 152.853,172.278 149.687,173.111 146.5,174C 143.148,176.533 139.481,178.366 135.5,179.5C 132.299,178.323 129.299,176.656 126.5,174.5C 120.217,175.294 113.884,175.794 107.5,176C 96.3865,179.07 85.2198,181.903 74,184.5C 67.1837,183.602 60.3504,182.935 53.5,182.5C 52.9586,179.348 53.9586,176.848 56.5,175C 60.4519,172.129 64.6186,169.629 69,167.5C 82.5,163.667 96,159.833 109.5,156C 114.167,155.667 118.833,155.333 123.5,155C 157.196,146.036 190.696,136.536 224,126.5C 224.598,123.692 225.765,121.192 227.5,119C 233.507,118.8 239.507,119.133 245.5,120C 247.618,120.26 249.284,121.26 250.5,123C 252.134,123.494 253.801,123.66 255.5,123.5C 256.391,114.684 252.391,111.35 243.5,113.5C 242.431,108.457 244.097,104.623 248.5,102C 248,101.5 247.5,101 247,100.5C 245.938,88.7428 244.604,77.0761 243,65.5C 246.182,62.4044 250.016,60.5711 254.5,60C 259.202,59.8283 263.868,59.3283 268.5,58.5C 266.01,52.5971 265.843,46.5971 268,40.5C 269.812,39.0229 271.645,37.6896 273.5,36.5 Z M 250.5,162.5 C 248.981,163.41 247.315,164.243 245.5,165C 247.746,166.039 249.913,167.206 252,168.5C 256.706,165.348 256.206,163.348 250.5,162.5 Z"/></g>
<g><path style="opacity:1" fill="#f4f4f4" d="M 276.5,40.5 C 280.063,40.6252 282.563,42.2919 284,45.5C 284.667,49.1667 284.667,52.8333 284,56.5C 280.69,54.3374 277.19,54.0041 273.5,55.5C 270.086,51.992 269.586,47.992 272,43.5C 273.652,42.6006 275.152,41.6006 276.5,40.5 Z"/></g>
<g><path style="opacity:1" fill="#bc151c" d="M 275.5,55.5 C 278.39,55.278 281.057,55.9447 283.5,57.5C 283.876,60.3733 283.876,63.3733 283.5,66.5C 279.965,68.453 277.132,67.7863 275,64.5C 274.713,62.1093 274.213,59.7759 273.5,57.5C 274.243,56.8182 274.909,56.1515 275.5,55.5 Z"/></g>
<g><path style="opacity:1" fill="#2c2c2c" d="M 277.5,73.5 C 277.068,74.7095 276.401,75.7095 275.5,76.5C 270.069,68.4095 262.569,65.7428 253,68.5C 250.739,68.4391 248.739,69.1057 247,70.5C 246.333,69.8333 246.333,69.1667 247,68.5C 254.164,63.9152 261.998,62.4152 270.5,64C 273.926,66.3489 276.26,69.5156 277.5,73.5 Z"/></g>
<g><path style="opacity:1" fill="#2a2a2a" d="M 280.5,78.5 C 281.268,77.7375 281.768,76.7375 282,75.5C 283.545,76.8213 284.711,76.4879 285.5,74.5C 284.597,72.3796 283.263,72.0462 281.5,73.5C 277.422,70.0003 278.255,68.0003 284,67.5C 285.605,68.1007 286.938,69.1007 288,70.5C 288.663,73.8692 288.496,77.2025 287.5,80.5C 288.98,85.4185 289.98,90.4185 290.5,95.5C 288.409,95.3184 286.409,95.6518 284.5,96.5C 282.956,90.5374 281.623,84.5374 280.5,78.5 Z"/></g>
<g><path style="opacity:1" fill="#272727" d="M 274.5,78.5 C 271.976,88.5889 265.976,95.5889 256.5,99.5C 254.583,99.2462 253.249,98.2462 252.5,96.5C 250.668,91.0174 249.668,85.3507 249.5,79.5C 250.985,81.1621 252.318,82.9954 253.5,85C 252.541,87.1199 252.374,89.2865 253,91.5C 254.667,93.1667 256.333,94.8333 258,96.5C 259.889,93.8884 261.389,91.0551 262.5,88C 260.925,84.7578 258.425,82.5912 255,81.5C 254.508,80.451 254.674,79.451 255.5,78.5C 254.5,77.5 253.5,76.5 252.5,75.5C 251.452,76.548 250.452,77.548 249.5,78.5C 247.956,76.1576 247.622,73.6576 248.5,71C 259.586,65.7764 268.253,68.2764 274.5,78.5 Z"/></g>
<g><path style="opacity:1" fill="#fefffe" d="M 277.5,73.5 C 279.727,74.4006 280.727,76.0672 280.5,78.5C 279.326,79.5137 278.66,80.847 278.5,82.5C 275.469,86.8871 272.803,91.5537 270.5,96.5C 269.5,96.8333 268.833,97.5 268.5,98.5C 266.973,98.427 265.973,99.0937 265.5,100.5C 263.102,100.259 261.102,100.926 259.5,102.5C 255.099,102.469 251.765,100.635 249.5,97C 250.176,95.3167 251.176,95.1501 252.5,96.5C 253.249,98.2462 254.583,99.2462 256.5,99.5C 265.976,95.5889 271.976,88.5889 274.5,78.5C 275.338,78.1583 275.672,77.4916 275.5,76.5C 276.401,75.7095 277.068,74.7095 277.5,73.5 Z"/></g>
<g><path style="opacity:1" fill="#fec90d" d="M 249.5,79.5 C 249.5,79.1667 249.5,78.8333 249.5,78.5C 250.452,77.548 251.452,76.548 252.5,75.5C 253.5,76.5 254.5,77.5 255.5,78.5C 254.674,79.451 254.508,80.451 255,81.5C 258.425,82.5912 260.925,84.7578 262.5,88C 261.389,91.0551 259.889,93.8884 258,96.5C 256.333,94.8333 254.667,93.1667 253,91.5C 252.374,89.2865 252.541,87.1199 253.5,85C 252.318,82.9954 250.985,81.1621 249.5,79.5 Z"/></g>
<g><path style="opacity:1" fill="#262626" d="M 278.5,82.5 C 281.204,86.6304 282.538,91.297 282.5,96.5C 281.5,96.5 280.5,96.5 279.5,96.5C 278.147,83.282 277.48,83.282 277.5,96.5C 275.028,97.7665 272.694,97.7665 270.5,96.5C 272.803,91.5537 275.469,86.8871 278.5,82.5 Z"/></g>
<g><path style="opacity:1" fill="#fefffe" d="M 314.5,93.5 C 321.098,94.2014 323.098,97.368 320.5,103C 318.323,104.202 315.989,104.702 313.5,104.5C 313.679,102.046 313.013,99.8792 311.5,98C 312.315,96.3566 313.315,94.8566 314.5,93.5 Z"/></g>
<g><path style="opacity:1" fill="#2b2b2b" d="M 265.5,100.5 C 265.973,99.0937 266.973,98.427 268.5,98.5C 275.218,98.3462 281.884,97.6795 288.5,96.5C 289.91,96.8678 290.91,97.7011 291.5,99C 282.269,101.154 272.936,102.154 263.5,102C 264.416,101.722 265.082,101.222 265.5,100.5 Z"/></g>
<g><path style="opacity:1" fill="#4e4f4e" d="M 324.5,101.5 C 322.242,101.225 321.908,100.225 323.5,98.5C 329.524,96.8361 335.191,97.6695 340.5,101C 339.975,101.692 339.308,102.192 338.5,102.5C 333.935,98.842 329.269,98.5087 324.5,101.5 Z"/></g>
<g><path style="opacity:1" fill="#faa885" d="M 291.5,101.5 C 291.328,102.492 291.662,103.158 292.5,103.5C 293.154,107.858 292.154,111.691 289.5,115C 289.57,115.765 289.903,116.265 290.5,116.5C 290.5,117.167 290.833,117.5 291.5,117.5C 285.604,123.088 280.27,129.254 275.5,136C 272.854,136.497 270.187,136.664 267.5,136.5C 266.272,134.99 266.272,133.49 267.5,132C 266.956,131.283 266.289,130.783 265.5,130.5C 265.082,129.778 264.416,129.278 263.5,129C 266.167,128.667 268.833,128.333 271.5,128C 268.728,127.474 266.062,126.641 263.5,125.5C 264.648,123.851 265.981,122.351 267.5,121C 264.995,122.877 261.995,123.71 258.5,123.5C 258.665,120.482 258.498,117.482 258,114.5C 256.455,112.771 256.955,111.438 259.5,110.5C 266.842,117.084 271.842,115.75 274.5,106.5C 275.117,106.389 275.617,106.056 276,105.5C 276.444,108.611 277.777,111.277 280,113.5C 280.497,115.81 280.663,118.143 280.5,120.5C 283.48,120.359 285.48,118.859 286.5,116C 285.606,112.224 285.272,108.39 285.5,104.5C 286.338,104.158 286.672,103.492 286.5,102.5C 287.935,100.599 289.602,100.266 291.5,101.5 Z"/></g>
<g><path style="opacity:1" fill="#5d3a27" d="M 291.5,117.5 C 290.833,117.5 290.5,117.167 290.5,116.5C 290.685,114.804 291.519,113.471 293,112.5C 293.805,109.304 293.638,106.304 292.5,103.5C 291.662,103.158 291.328,102.492 291.5,101.5C 292.793,100.355 293.959,100.689 295,102.5C 295.927,106.013 296.761,109.513 297.5,113C 295.649,114.752 293.649,116.252 291.5,117.5 Z"/></g>
<g><path style="opacity:1" fill="#fefffe" d="M 334.5,104.5 C 333.508,102.974 332.008,102.307 330,102.5C 327.363,102.657 324.863,103.323 322.5,104.5C 322.167,104.333 321.833,104.167 321.5,104C 322.571,103.148 323.571,102.315 324.5,101.5C 328.988,99.8648 332.988,100.532 336.5,103.5C 336.043,104.298 335.376,104.631 334.5,104.5 Z"/></g>
<g><path style="opacity:1" fill="#fefffe" d="M 355.5,106.5 C 353.765,104.765 351.765,103.432 349.5,102.5C 346.325,104.091 342.991,105.091 339.5,105.5C 339.082,104.778 338.416,104.278 337.5,104C 341.22,102.987 344.886,101.82 348.5,100.5C 352.107,101.112 354.44,103.112 355.5,106.5 Z"/></g>
<g><path style="opacity:1" fill="#603c28" d="M 286.5,102.5 C 286.672,103.492 286.338,104.158 285.5,104.5C 284.179,108.233 284.179,112.066 285.5,116C 284.333,117.167 283.167,118.333 282,119.5C 281.667,117.167 281.333,114.833 281,112.5C 279.596,110.606 278.43,108.606 277.5,106.5C 279.416,102.17 282.416,100.836 286.5,102.5 Z"/></g>
<g><path style="opacity:1" fill="#2c2d2c" d="M 259.5,102.5 C 265.825,103.544 272.158,103.711 278.5,103C 273.531,105.934 268.198,107.767 262.5,108.5C 262.265,107.903 261.765,107.57 261,107.5C 256.838,110.166 252.338,110.999 247.5,110C 251.137,106.694 255.137,104.194 259.5,102.5 Z"/></g>
<g><path style="opacity:1" fill="#000000" d="M 288.5,103.5 C 289.289,103.783 289.956,104.283 290.5,105C 289.289,106.113 289.289,107.28 290.5,108.5C 289.919,110.724 288.586,111.557 286.5,111C 287.357,110.311 288.023,109.478 288.5,108.5C 287.185,106.801 287.185,105.135 288.5,103.5 Z"/></g>
<g><path style="opacity:1" fill="#000000" d="M 292.5,103.5 C 293.638,106.304 293.805,109.304 293,112.5C 291.519,113.471 290.685,114.804 290.5,116.5C 289.903,116.265 289.57,115.765 289.5,115C 292.154,111.691 293.154,107.858 292.5,103.5 Z"/></g>
<g><path style="opacity:1" fill="#4e4f4e" d="M 334.5,104.5 C 332.557,106.639 331.89,108.972 332.5,111.5C 329.279,108.821 325.779,108.155 322,109.5C 321.365,108.034 320.531,106.7 319.5,105.5C 322.811,105.483 326.311,104.816 330,103.5C 331.533,103.773 333.033,104.106 334.5,104.5 Z"/></g>
<g><path style="opacity:1" fill="#4e4e4e" d="M 355.5,106.5 C 357.997,110.16 359.997,114.16 361.5,118.5C 358.241,128.474 351.575,133.141 341.5,132.5C 341.048,126.007 339.381,120.007 336.5,114.5C 331.725,109.21 332.725,106.21 339.5,105.5C 342.991,105.091 346.325,104.091 349.5,102.5C 351.765,103.432 353.765,104.765 355.5,106.5 Z"/></g>
<g><path style="opacity:1" fill="#f7763e" d="M 274.5,106.5 C 271.842,115.75 266.842,117.084 259.5,110.5C 259.973,109.094 260.973,108.427 262.5,108.5C 264.224,109.769 265.891,111.102 267.5,112.5C 269.404,112.262 270.738,111.262 271.5,109.5C 271.389,108.883 271.056,108.383 270.5,108C 271.901,107.59 273.234,107.09 274.5,106.5 Z"/></g>
<g><path style="opacity:1" fill="#fefffe" d="M 312.5,117.5 C 309.76,115.1 308.927,112.1 310,108.5C 313.333,105.833 316.667,105.833 320,108.5C 320.498,111.482 320.665,114.482 320.5,117.5C 317.691,117.957 315.024,117.957 312.5,117.5 Z"/></g>
<g><path style="opacity:1" fill="#fefffe" d="M 271.5,109.5 C 270.738,111.262 269.404,112.262 267.5,112.5C 267.5,111.5 267.5,110.5 267.5,109.5C 268.833,109.5 270.167,109.5 271.5,109.5 Z"/></g>
<g><path style="opacity:1" fill="#fefffe" d="M 336.5,114.5 C 336.631,115.239 336.464,115.906 336,116.5C 331.823,113.111 327.323,111.778 322.5,112.5C 321.957,112.44 321.624,112.107 321.5,111.5C 322.438,110.447 323.605,109.78 325,109.5C 328.796,111.316 332.63,112.983 336.5,114.5 Z"/></g>
<g><path style="opacity:1" fill="#4e4f4e" d="M 322.5,112.5 C 328.542,113.438 333.709,116.105 338,120.5C 338.681,122.529 339.014,124.529 339,126.5C 335.833,123.333 332.667,120.167 329.5,117C 326.854,116.503 324.187,116.336 321.5,116.5C 321.433,115.041 321.766,113.708 322.5,112.5 Z"/></g>
<g><path style="opacity:1" fill="#fefffe" d="M 300.5,117.5 C 290.837,121.991 283.17,128.824 277.5,138C 279.87,139.902 282.536,140.569 285.5,140C 290.566,136.478 295.566,132.978 300.5,129.5C 301.376,129.369 302.043,129.702 302.5,130.5C 301.352,132.149 300.019,133.649 298.5,135C 293.286,136.274 288.619,138.607 284.5,142C 276.243,144.026 274.076,141.526 278,134.5C 283.689,125.978 290.856,118.978 299.5,113.5C 301.642,114.437 301.976,115.77 300.5,117.5 Z"/></g>
<g><path style="opacity:1" fill="#4e4f4e" d="M 312.5,117.5 C 310.923,119.584 309.09,121.584 307,123.5C 306.333,122.5 306.333,121.5 307,120.5C 308.385,119.449 309.385,118.116 310,116.5C 310.671,117.252 311.504,117.586 312.5,117.5 Z"/></g>
<g><path style="opacity:1" fill="#2f32a3" d="M 300.5,117.5 C 303.303,120.204 304.137,123.537 303,127.5C 302.005,128.066 301.172,128.733 300.5,129.5C 295.566,132.978 290.566,136.478 285.5,140C 282.536,140.569 279.87,139.902 277.5,138C 283.17,128.824 290.837,121.991 300.5,117.5 Z"/></g>
<g><path style="opacity:1" fill="#4e4f4e" d="M 313.5,140.5 C 318.966,143.087 324.633,142.921 330.5,140C 333.97,136.663 334.47,132.83 332,128.5C 326.568,122.858 320.401,122.024 313.5,126C 311.951,127.214 310.785,128.714 310,130.5C 306.845,142.34 311.345,147.84 323.5,147C 319.807,149.628 315.807,150.128 311.5,148.5C 309.535,145.366 307.369,142.366 305,139.5C 304.87,123.979 312.704,117.145 328.5,119C 342.717,130.096 341.551,139.262 325,146.5C 312.277,147.12 307.944,141.453 312,129.5C 318.094,123.146 324.261,122.979 330.5,129C 334.011,135.536 332.011,139.536 324.5,141C 320.745,141.755 317.078,141.589 313.5,140.5 Z"/></g>
<g><path style="opacity:1" fill="#c2c3c2" d="M 232.5,130.5 C 231.167,130.5 229.833,130.5 228.5,130.5C 228.337,127.314 229.337,124.647 231.5,122.5C 236.334,124.647 236.667,127.314 232.5,130.5 Z"/></g>
<g><path style="opacity:1" fill="#c2c3c2" d="M 238.5,123.5 C 240.927,123.523 243.26,124.023 245.5,125C 246.337,126.011 246.67,127.178 246.5,128.5C 243.545,129.159 240.545,129.492 237.5,129.5C 237.517,127.435 237.85,125.435 238.5,123.5 Z"/></g>
<g><path style="opacity:1" fill="#f9a884" d="M 255.5,138.5 C 254.025,136.993 252.691,135.327 251.5,133.5C 251.151,127.854 252.651,127.187 256,131.5C 256.703,133.929 256.537,136.262 255.5,138.5 Z"/></g>
<g><path style="opacity:1" fill="#c2c3c2" d="M 232.5,130.5 C 235.898,130.18 239.232,130.513 242.5,131.5C 209.004,141.606 175.338,151.44 141.5,161C 138.5,163.167 135.5,165.333 132.5,167.5C 131.783,162.951 129.116,160.784 124.5,161C 160.715,151.088 196.715,140.922 232.5,130.5 Z"/></g>
<g><path style="opacity:1" fill="#9d1114" d="M 265.5,130.5 C 266.289,130.783 266.956,131.283 267.5,132C 266.272,133.49 266.272,134.99 267.5,136.5C 269.607,137.468 271.941,137.802 274.5,137.5C 274.5,138.833 274.5,140.167 274.5,141.5C 268.833,140.167 263.167,138.833 257.5,137.5C 257.5,135.833 257.5,134.167 257.5,132.5C 260.451,132.713 263.118,132.046 265.5,130.5 Z"/></g>
<g><path style="opacity:1" fill="#000000" d="M 313.5,140.5 C 311.174,133.318 313.84,130.151 321.5,131C 323.444,133.153 323.944,135.653 323,138.5C 321.301,139.406 319.467,139.739 317.5,139.5C 317.622,135.162 317.955,134.828 318.5,138.5C 322.919,137.677 323.586,135.51 320.5,132C 314.851,131.83 312.518,134.663 313.5,140.5 Z"/></g>
<g><path style="opacity:1" fill="#a97052" d="M 251.5,133.5 C 252.691,135.327 254.025,136.993 255.5,138.5C 257.167,139.167 258.833,139.833 260.5,140.5C 262.744,142.584 264.411,145.084 265.5,148C 263.68,150.652 261.68,153.152 259.5,155.5C 257.614,154.639 255.78,153.639 254,152.5C 252.67,153.582 251.17,154.249 249.5,154.5C 248.5,154.167 247.833,153.5 247.5,152.5C 246.464,150.609 246.464,148.776 247.5,147C 246.906,146.536 246.239,146.369 245.5,146.5C 245.414,145.504 245.748,144.671 246.5,144C 245.906,143.536 245.239,143.369 244.5,143.5C 242.142,143.253 240.142,143.919 238.5,145.5C 235.984,145.755 233.65,146.589 231.5,148C 223.035,148.327 214.702,149.494 206.5,151.5C 204.566,150.89 202.899,149.89 201.5,148.5C 200.737,147.732 199.737,147.232 198.5,147C 210.364,143.787 222.031,140.12 233.5,136C 235.387,135.22 237.054,135.387 238.5,136.5C 236.32,137.102 234.654,138.435 233.5,140.5C 234.5,140.833 235.5,141.167 236.5,141.5C 239.633,140.139 242.967,139.306 246.5,139C 247.337,137.989 247.67,136.822 247.5,135.5C 246.737,134.732 245.737,134.232 244.5,134C 246.81,133.503 249.143,133.337 251.5,133.5 Z"/></g>
<g><path style="opacity:1" fill="#a80e14" d="M 301.5,133.5 C 302.404,134.209 302.737,135.209 302.5,136.5C 301.448,136.649 300.448,136.483 299.5,136C 300.381,135.292 301.047,134.458 301.5,133.5 Z"/></g>
<g><path style="opacity:1" fill="#fefffe" d="M 350.5,134.5 C 351.708,133.218 353.042,133.218 354.5,134.5C 359.078,143.99 363.911,153.324 369,162.5C 370.43,165.353 371.263,168.353 371.5,171.5C 365.259,158.679 358.259,146.346 350.5,134.5 Z"/></g>
<g><path style="opacity:1" fill="#242424" d="M 350.5,134.5 C 358.259,146.346 365.259,158.679 371.5,171.5C 372.586,176.68 372.586,182.013 371.5,187.5C 364.503,174.84 358.003,161.84 352,148.5C 349.739,144.304 347.239,140.304 344.5,136.5C 345.99,134.72 347.99,134.054 350.5,134.5 Z"/></g>
<g><path style="opacity:1" fill="#fec90d" d="M 247.5,135.5 C 247.67,136.822 247.337,137.989 246.5,139C 242.967,139.306 239.633,140.139 236.5,141.5C 235.5,141.167 234.5,140.833 233.5,140.5C 234.654,138.435 236.32,137.102 238.5,136.5C 241.455,135.841 244.455,135.508 247.5,135.5 Z"/></g>
<g><path style="opacity:1" fill="#fefffe" d="M 344.5,136.5 C 347.239,140.304 349.739,144.304 352,148.5C 358.003,161.84 364.503,174.84 371.5,187.5C 371.869,189.993 371.203,190.66 369.5,189.5C 362.359,172.384 354.026,155.884 344.5,140C 343.255,139.209 341.922,138.709 340.5,138.5C 340.5,137.5 340.5,136.5 340.5,135.5C 341.959,135.433 343.292,135.766 344.5,136.5 Z"/></g>
<g><path style="opacity:1" fill="#fefffe" d="M 297.5,137.5 C 301.466,138.615 304.466,141.115 306.5,145C 303.131,144.117 299.631,143.284 296,142.5C 290.789,143.508 285.623,144.341 280.5,145C 286.351,142.58 292.017,140.08 297.5,137.5 Z"/></g>
<g><path style="opacity:1" fill="#252525" d="M 340.5,138.5 C 341.922,138.709 343.255,139.209 344.5,140C 354.026,155.884 362.359,172.384 369.5,189.5C 370.38,191.389 370.38,193.389 369.5,195.5C 368.325,195.719 367.325,195.386 366.5,194.5C 359.274,177.715 351.774,161.048 344,144.5C 342.2,142.683 340.034,141.516 337.5,141C 338.373,139.955 339.373,139.122 340.5,138.5 Z"/></g>
<g><path style="opacity:1" fill="#000000" d="M 248.5,141.5 C 248.735,140.903 249.235,140.57 250,140.5C 252.505,142.672 255.005,144.839 257.5,147C 257,147.167 256.5,147.333 256,147.5C 253.602,145.257 251.102,143.257 248.5,141.5 Z"/></g>
<g><path style="opacity:1" fill="#774a31" d="M 260.5,140.5 C 265.747,141.978 271.08,143.145 276.5,144C 276.957,144.414 277.291,144.914 277.5,145.5C 275.462,147.276 273.296,148.943 271,150.5C 269.622,154.388 268.622,158.388 268,162.5C 264.977,160.302 262.144,157.969 259.5,155.5C 261.68,153.152 263.68,150.652 265.5,148C 264.411,145.084 262.744,142.584 260.5,140.5 Z"/></g>
<g><path style="opacity:1" fill="#fac50f" d="M 244.5,143.5 C 244.263,144.791 244.596,145.791 245.5,146.5C 245.5,148.167 245.5,149.833 245.5,151.5C 244.022,151.238 242.689,151.571 241.5,152.5C 241.624,153.107 241.957,153.44 242.5,153.5C 242.833,154.5 243.5,155.167 244.5,155.5C 243.432,156.434 242.099,156.768 240.5,156.5C 239.974,154.77 238.974,153.436 237.5,152.5C 238.429,151.685 239.429,150.852 240.5,150C 240,149.5 239.5,149 239,148.5C 237.951,149.517 236.784,149.684 235.5,149C 237.063,148.241 238.063,147.074 238.5,145.5C 240.142,143.919 242.142,143.253 244.5,143.5 Z"/></g>
<g><path style="opacity:1" fill="#000000" d="M 244.5,143.5 C 245.239,143.369 245.906,143.536 246.5,144C 245.748,144.671 245.414,145.504 245.5,146.5C 244.596,145.791 244.263,144.791 244.5,143.5 Z"/></g>
<g><path style="opacity:1" fill="#f6f6f6" d="M 308.5,171.5 C 307.994,173.105 307.327,173.439 306.5,172.5C 306.849,168.946 306.849,165.613 306.5,162.5C 306.51,158.497 304.843,155.497 301.5,153.5C 301.167,152.5 300.5,151.833 299.5,151.5C 298.564,150.026 297.23,149.026 295.5,148.5C 294.081,147.549 292.415,147.216 290.5,147.5C 290.082,146.778 289.416,146.278 288.5,146C 292.053,145.402 295.386,146.069 298.5,148C 306.98,153.779 310.313,161.612 308.5,171.5 Z"/></g>
<g><path style="opacity:1" fill="#ec1c23" d="M 306.5,148.5 C 310.099,153.362 312.933,158.695 315,164.5C 317.333,167.5 319.667,170.5 322,173.5C 323.716,178.339 322.216,181.506 317.5,183C 320.272,183.526 322.938,184.359 325.5,185.5C 323.578,187.687 321.912,190.02 320.5,192.5C 310.325,193.377 300.658,191.211 291.5,186C 296.741,181.584 301.741,177.084 306.5,172.5C 307.327,173.439 307.994,173.105 308.5,171.5C 309.15,171.196 309.817,170.863 310.5,170.5C 311.655,167.554 311.821,164.554 311,161.5C 308.508,155.353 304.674,150.186 299.5,146C 302.113,145.927 304.446,146.761 306.5,148.5 Z"/></g>
<g><path style="opacity:1" fill="#000000" d="M 245.5,146.5 C 246.239,146.369 246.906,146.536 247.5,147C 246.464,148.776 246.464,150.609 247.5,152.5C 245.585,152.216 243.919,152.549 242.5,153.5C 241.957,153.44 241.624,153.107 241.5,152.5C 242.689,151.571 244.022,151.238 245.5,151.5C 245.5,149.833 245.5,148.167 245.5,146.5 Z"/></g>
<g><path style="opacity:1" fill="#b57755" d="M 196.5,148.5 C 197.075,150.411 198.075,152.078 199.5,153.5C 199.167,153.5 198.833,153.5 198.5,153.5C 188.169,156.333 178.002,159.666 168,163.5C 166.323,159.949 163.49,158.616 159.5,159.5C 159.5,160.833 159.5,162.167 159.5,163.5C 152.467,165.008 145.467,166.675 138.5,168.5C 137.692,168.192 137.025,167.692 136.5,167C 138.5,165.667 140.5,164.333 142.5,163C 160.655,157.54 178.655,152.707 196.5,148.5 Z"/></g>
<g><path style="opacity:1" fill="#fefffe" d="M 279.5,150.5 C 278.599,151.29 277.932,152.29 277.5,153.5C 276.833,153.167 276.167,152.833 275.5,152.5C 275.351,151.448 275.517,150.448 276,149.5C 277.558,150.345 278.558,149.679 279,147.5C 279.483,148.448 279.649,149.448 279.5,150.5 Z"/></g>
<g><path style="opacity:1" fill="#3037b5" d="M 282.5,150.5 C 283.167,150.5 283.5,150.833 283.5,151.5C 283.083,152.124 282.416,152.457 281.5,152.5C 280.287,152.253 279.62,151.586 279.5,150.5C 280.268,149.737 280.768,148.737 281,147.5C 281.232,148.737 281.732,149.737 282.5,150.5 Z"/></g>
<g><path style="opacity:1" fill="#fefffe" d="M 287.5,150.5 C 286.833,150.5 286.5,150.833 286.5,151.5C 285.5,151.5 284.5,151.5 283.5,151.5C 283.5,150.833 283.167,150.5 282.5,150.5C 282.351,149.448 282.517,148.448 283,147.5C 284.333,151.5 285.667,151.5 287,147.5C 287.483,148.448 287.649,149.448 287.5,150.5 Z"/></g>
<g><path style="opacity:1" fill="#3035af" d="M 290.5,147.5 C 290.232,149.099 290.566,150.432 291.5,151.5C 292.338,151.842 292.672,152.508 292.5,153.5C 291.791,154.404 290.791,154.737 289.5,154.5C 288.791,153.596 287.791,153.263 286.5,153.5C 286.5,152.833 286.5,152.167 286.5,151.5C 286.5,150.833 286.833,150.5 287.5,150.5C 288.1,149.1 289.1,148.1 290.5,147.5 Z"/></g>
<g><path style="opacity:1" fill="#000000" d="M 290.5,147.5 C 292.415,147.216 294.081,147.549 295.5,148.5C 294.259,150.931 293.092,150.931 292,148.5C 291.517,149.448 291.351,150.448 291.5,151.5C 290.566,150.432 290.232,149.099 290.5,147.5 Z"/></g>
<g><path style="opacity:1" fill="#e89c7c" d="M 196.5,148.5 C 198.167,148.5 199.833,148.5 201.5,148.5C 202.899,149.89 204.566,150.89 206.5,151.5C 207.899,152.89 209.566,153.89 211.5,154.5C 214.745,156.294 217.079,158.961 218.5,162.5C 218.5,163.167 218.5,163.833 218.5,164.5C 217.115,166.883 215.115,168.55 212.5,169.5C 211.833,169.5 211.5,169.833 211.5,170.5C 208.642,170.405 206.309,169.238 204.5,167C 200.833,166.667 197.167,166.333 193.5,166C 191.249,165.252 189.916,163.752 189.5,161.5C 190.842,160.207 192.509,159.374 194.5,159C 197.833,158.667 201.167,158.333 204.5,158C 202.382,156.951 200.716,155.451 199.5,153.5C 198.075,152.078 197.075,150.411 196.5,148.5 Z"/></g>
<g><path style="opacity:1" fill="#fefffe" d="M 295.5,148.5 C 295.5,149.5 295.5,150.5 295.5,151.5C 294.662,151.842 294.328,152.508 294.5,153.5C 293.833,153.5 293.167,153.5 292.5,153.5C 292.672,152.508 292.338,151.842 291.5,151.5C 291.351,150.448 291.517,149.448 292,148.5C 293.092,150.931 294.259,150.931 295.5,148.5 Z"/></g>
<g><path style="opacity:1" fill="#000000" d="M 295.5,148.5 C 297.23,149.026 298.564,150.026 299.5,151.5C 298.566,152.568 298.232,153.901 298.5,155.5C 297.698,154.048 297.198,152.382 297,150.5C 296.617,151.056 296.117,151.389 295.5,151.5C 295.5,150.5 295.5,149.5 295.5,148.5 Z"/></g>
<g><path style="opacity:1" fill="#a80e14" d="M 306.5,148.5 C 310.65,150.165 314.483,152.498 318,155.5C 320.905,167.474 326.071,178.307 333.5,188C 329.56,190.591 325.227,192.091 320.5,192.5C 321.912,190.02 323.578,187.687 325.5,185.5C 322.938,184.359 320.272,183.526 317.5,183C 322.216,181.506 323.716,178.339 322,173.5C 319.667,170.5 317.333,167.5 315,164.5C 312.933,158.695 310.099,153.362 306.5,148.5 Z"/></g>
<g><path style="opacity:1" fill="#dbdcee" d="M 211.5,154.5 C 211.62,153.414 212.287,152.747 213.5,152.5C 220.462,150.914 227.462,150.081 234.5,150C 226.909,151.818 219.242,153.318 211.5,154.5 Z"/></g>
<g><path style="opacity:1" fill="#3138ba" d="M 275.5,152.5 C 275.5,153.167 275.5,153.833 275.5,154.5C 275.5,155.167 275.167,155.5 274.5,155.5C 273.508,155.328 272.842,155.662 272.5,156.5C 271.371,154.334 271.871,152.334 274,150.5C 274.278,151.416 274.778,152.082 275.5,152.5 Z"/></g>
<g><path style="opacity:1" fill="#2b2b88" d="M 298.5,155.5 C 300.368,156.674 301.368,156.007 301.5,153.5C 304.843,155.497 306.51,158.497 306.5,162.5C 306.672,163.492 306.338,164.158 305.5,164.5C 305.167,164.5 304.833,164.5 304.5,164.5C 303.833,163.833 303.167,163.167 302.5,162.5C 302.167,161.5 301.5,160.833 300.5,160.5C 299.5,160.167 298.833,159.5 298.5,158.5C 297.71,157.599 296.71,156.932 295.5,156.5C 294.508,156.672 293.842,156.338 293.5,155.5C 293.833,154.833 294.167,154.167 294.5,153.5C 294.328,152.508 294.662,151.842 295.5,151.5C 296.117,151.389 296.617,151.056 297,150.5C 297.198,152.382 297.698,154.048 298.5,155.5 Z"/></g>
<g><path style="opacity:1" fill="#fefffe" d="M 299.5,151.5 C 299.131,153.993 299.797,154.66 301.5,153.5C 301.368,156.007 300.368,156.674 298.5,155.5C 298.232,153.901 298.566,152.568 299.5,151.5 Z"/></g>
<g><path style="opacity:1" fill="#000000" d="M 299.5,151.5 C 300.5,151.833 301.167,152.5 301.5,153.5C 299.797,154.66 299.131,153.993 299.5,151.5 Z"/></g>
<g><path style="opacity:1" fill="#c0c0d0" d="M 237.5,152.5 C 238.974,153.436 239.974,154.77 240.5,156.5C 236.932,157.494 233.599,156.661 230.5,154C 232.594,152.648 234.927,152.148 237.5,152.5 Z"/></g>
<g><path style="opacity:1" fill="#c0c0d1" d="M 247.5,152.5 C 247.833,153.5 248.5,154.167 249.5,154.5C 248.081,155.451 246.415,155.784 244.5,155.5C 243.5,155.167 242.833,154.5 242.5,153.5C 243.919,152.549 245.585,152.216 247.5,152.5 Z"/></g>
<g><path style="opacity:1" fill="#dbdcee" d="M 198.5,153.5 C 198.833,153.5 199.167,153.5 199.5,153.5C 200.716,155.451 202.382,156.951 204.5,158C 201.167,158.333 197.833,158.667 194.5,159C 192.509,159.374 190.842,160.207 189.5,161.5C 187.143,161.337 184.81,161.503 182.5,162C 177.659,164.921 172.659,167.588 167.5,170C 166.251,170.74 165.251,170.573 164.5,169.5C 165.302,168.048 165.802,166.382 166,164.5C 166.561,165.022 167.228,165.355 168,165.5C 177.5,162.333 187,159.167 196.5,156C 197.756,155.583 198.423,154.75 198.5,153.5 Z"/></g>
<g><path style="opacity:1" fill="#fefffe" d="M 277.5,153.5 C 278.693,153.97 279.36,154.97 279.5,156.5C 279.167,157.5 278.833,158.5 278.5,159.5C 277.534,157.604 277.201,155.604 277.5,153.5 Z"/></g>
<g><path style="opacity:1" fill="#fefffe" d="M 280.5,153.5 C 281.5,153.5 282.5,153.5 283.5,153.5C 283.5,155.833 283.5,158.167 283.5,160.5C 282.5,160.5 281.5,160.5 280.5,160.5C 280.5,158.167 280.5,155.833 280.5,153.5 Z"/></g>
<g><path style="opacity:1" fill="#fefffe" d="M 286.5,153.5 C 287.569,156.408 287.736,159.408 287,162.5C 285.431,161.286 284.598,159.619 284.5,157.5C 284.585,155.667 285.252,154.334 286.5,153.5 Z"/></g>
<g><path style="opacity:1" fill="#fefffe" d="M 275.5,154.5 C 276.874,156.517 276.707,158.517 275,160.5C 274.506,158.866 274.34,157.199 274.5,155.5C 275.167,155.5 275.5,155.167 275.5,154.5 Z"/></g>
<g><path style="opacity:1" fill="#fefffe" d="M 289.5,154.5 C 291.951,157.253 292.118,160.253 290,163.5C 288.246,160.508 288.079,157.508 289.5,154.5 Z"/></g>
<g><path style="opacity:1" fill="#1d2274" d="M 220.5,167.5 C 219.699,165.958 219.366,164.292 219.5,162.5C 219.16,160.321 218.16,158.488 216.5,157C 217.025,156.308 217.692,155.808 218.5,155.5C 222.417,159.208 223.084,163.208 220.5,167.5 Z"/></g>
<g><path style="opacity:1" fill="#fefffe" d="M 293.5,155.5 C 293.842,156.338 294.508,156.672 295.5,156.5C 294.772,159.079 294.272,161.746 294,164.5C 292.246,161.508 292.079,158.508 293.5,155.5 Z"/></g>
<g><path style="opacity:1" fill="#2e309a" d="M 227.5,166.5 C 229.819,166.992 231.819,167.992 233.5,169.5C 233.011,170.995 232.345,172.329 231.5,173.5C 229.202,171.539 226.535,170.539 223.5,170.5C 223.343,171.873 223.51,173.207 224,174.5C 225.376,175.705 226.542,177.038 227.5,178.5C 227.672,179.492 227.338,180.158 226.5,180.5C 225.5,180.167 224.833,179.5 224.5,178.5C 223.486,177.326 222.153,176.66 220.5,176.5C 220.5,176.167 220.5,175.833 220.5,175.5C 219.432,174.566 218.099,174.232 216.5,174.5C 222.883,169.853 224.716,163.853 222,156.5C 223.918,157.542 225.751,158.708 227.5,160C 226.376,160.839 225.709,162.006 225.5,163.5C 225.64,165.03 226.307,166.03 227.5,166.5 Z"/></g>
<g><path style="opacity:1" fill="#fefffe" d="M 272.5,156.5 C 273.844,158.185 273.677,159.852 272,161.5C 271.36,159.735 271.527,158.068 272.5,156.5 Z"/></g>
<g><path style="opacity:1" fill="#fefffe" d="M 252.5,157.5 C 255.982,159.748 259.316,162.248 262.5,165C 258.972,167.533 255.806,170.366 253,173.5C 246.615,171.233 241.448,167.399 237.5,162C 243.103,161.737 248.103,160.237 252.5,157.5 Z M 250.5,162.5 C 248.981,163.41 247.315,164.243 245.5,165C 247.746,166.039 249.913,167.206 252,168.5C 256.706,165.348 256.206,163.348 250.5,162.5 Z"/></g>
<g><path style="opacity:1" fill="#fefffe" d="M 298.5,158.5 C 298.833,159.5 299.5,160.167 300.5,160.5C 296.897,168.55 295.23,167.884 295.5,158.5C 296.5,158.5 297.5,158.5 298.5,158.5 Z"/></g>
<g><path style="opacity:1" fill="#c2c3c2" d="M 113.5,160.5 C 114.239,160.369 114.906,160.536 115.5,161C 112.9,163.984 111.9,167.484 112.5,171.5C 99.6577,173.376 86.991,176.21 74.5,180C 69.4107,180.826 64.4107,180.492 59.5,179C 61.5,177.667 63.5,176.333 65.5,175C 81.7029,170.429 97.7029,165.595 113.5,160.5 Z"/></g>
<g><path style="opacity:1" fill="#c2c3c2" d="M 122.5,166.5 C 122.5,168.167 122.5,169.833 122.5,171.5C 119.5,171.5 116.5,171.5 113.5,171.5C 112.742,163.761 116.075,160.261 123.5,161C 121.447,162.678 121.113,164.511 122.5,166.5 Z"/></g>
<g><path style="opacity:1" fill="#ec1c23" d="M 247.5,204.5 C 244.765,195.799 240.098,188.466 233.5,182.5C 235.307,178.886 237.14,175.22 239,171.5C 245.095,174.602 250.929,178.102 256.5,182C 259.762,184.592 262.262,187.759 264,191.5C 262.876,186.665 260.376,182.498 256.5,179C 258.326,174.675 261.326,171.508 265.5,169.5C 269.514,169.334 273.514,169.501 277.5,170C 279.747,171.309 282.08,171.975 284.5,172C 279.916,169.101 274.916,167.268 269.5,166.5C 271.096,162.936 273.93,160.936 278,160.5C 287.268,162.177 295.435,166.01 302.5,172C 296.017,179.905 288.684,186.905 280.5,193C 278.608,193.973 276.608,194.64 274.5,195C 270.833,200 266.5,204.333 261.5,208C 256.043,210.111 251.377,208.944 247.5,204.5 Z"/></g>
<g><path style="opacity:1" fill="#fec90d" d="M 164.5,169.5 C 163.778,169.918 163.278,170.584 163,171.5C 161.667,170.167 160.333,168.833 159,167.5C 159.152,165.481 159.652,163.481 160.5,161.5C 162.429,161.231 164.095,161.731 165.5,163C 164.577,165.041 164.244,167.208 164.5,169.5 Z"/></g>
<g><path style="opacity:1" fill="#fefffe" d="M 224.5,178.5 C 224.833,179.5 225.5,180.167 226.5,180.5C 227.302,181.885 227.969,181.718 228.5,180C 228.43,179.235 228.097,178.735 227.5,178.5C 226.542,177.038 225.376,175.705 224,174.5C 223.51,173.207 223.343,171.873 223.5,170.5C 226.535,170.539 229.202,171.539 231.5,173.5C 231.783,174.289 232.283,174.956 233,175.5C 233.346,173.782 233.846,172.115 234.5,170.5C 234.376,169.893 234.043,169.56 233.5,169.5C 231.819,167.992 229.819,166.992 227.5,166.5C 226.699,164.958 226.366,163.292 226.5,161.5C 230.983,162.921 234.65,165.587 237.5,169.5C 235.667,175.536 232.167,180.203 227,183.5C 225.5,182 224,180.5 222.5,179C 223.094,178.536 223.761,178.369 224.5,178.5 Z"/></g>
<g><path style="opacity:1" fill="#c2c3c2" d="M 130.5,169.5 C 129.07,169.421 127.736,169.754 126.5,170.5C 124.784,169.451 123.451,168.118 122.5,166.5C 123.399,163.548 125.399,162.381 128.5,163C 130.229,164.789 130.896,166.956 130.5,169.5 Z"/></g>
<g><path style="opacity:1" fill="#f7763e" d="M 218.5,162.5 C 218.833,162.5 219.167,162.5 219.5,162.5C 219.366,164.292 219.699,165.958 220.5,167.5C 219.422,170.908 217.089,172.908 213.5,173.5C 213.167,172.5 212.5,171.833 211.5,171.5C 211.5,171.167 211.5,170.833 211.5,170.5C 211.5,169.833 211.833,169.5 212.5,169.5C 216.071,170.299 218.071,168.632 218.5,164.5C 218.5,163.833 218.5,163.167 218.5,162.5 Z"/></g>
<g><path style="opacity:1" fill="#fefffe" d="M 302.5,162.5 C 303.167,163.167 303.833,163.833 304.5,164.5C 302.896,165.287 302.229,166.62 302.5,168.5C 301.5,168.5 300.5,168.5 299.5,168.5C 299.386,165.784 300.386,163.784 302.5,162.5 Z"/></g>
<g><path style="opacity:1" fill="#000000" d="M 125.5,164.5 C 128.861,165.203 129.194,166.537 126.5,168.5C 124.358,167.563 124.024,166.23 125.5,164.5 Z"/></g>
<g><path style="opacity:1" fill="#000000" d="M 218.5,164.5 C 218.071,168.632 216.071,170.299 212.5,169.5C 215.115,168.55 217.115,166.883 218.5,164.5 Z"/></g>
<g><path style="opacity:1" fill="#fefffe" d="M 304.5,164.5 C 304.833,164.5 305.167,164.5 305.5,164.5C 305.808,166.924 305.474,169.257 304.5,171.5C 303.692,171.192 303.025,170.692 302.5,170C 303.464,168.275 304.131,166.441 304.5,164.5 Z"/></g>
<g><path style="opacity:1" fill="#c2c3c2" d="M 153.5,165.5 C 154.978,165.238 156.311,165.571 157.5,166.5C 152.864,167.773 148.197,168.94 143.5,170C 142.069,170.465 140.903,171.299 140,172.5C 139.316,171.216 139.483,170.049 140.5,169C 145.077,168.275 149.41,167.108 153.5,165.5 Z"/></g>
<g><path style="opacity:1" fill="#a80e14" d="M 269.5,166.5 C 274.916,167.268 279.916,169.101 284.5,172C 282.08,171.975 279.747,171.309 277.5,170C 273.514,169.501 269.514,169.334 265.5,169.5C 266.262,167.738 267.596,166.738 269.5,166.5 Z"/></g>
<g><path style="opacity:1" fill="#292929" d="M 334.5,143.5 C 337.272,143.22 339.772,143.887 342,145.5C 350.312,163.289 358.479,181.122 366.5,199C 359.707,205.091 352.707,207.591 345.5,206.5C 339.174,193.845 332.341,181.511 325,169.5C 323.265,164.129 321.432,158.796 319.5,153.5C 320.313,152.186 321.313,151.019 322.5,150C 326.722,148.059 330.722,145.892 334.5,143.5 Z"/></g>
<g><path style="opacity:1" fill="#c2c3c2" d="M 130.5,169.5 C 132.939,168.947 135.273,168.947 137.5,169.5C 139.079,173.424 137.745,175.257 133.5,175C 131.323,173.814 130.323,171.981 130.5,169.5 Z"/></g>
<g><path style="opacity:1" fill="#000000" d="M 233.5,169.5 C 234.043,169.56 234.376,169.893 234.5,170.5C 233.846,172.115 233.346,173.782 233,175.5C 232.283,174.956 231.783,174.289 231.5,173.5C 232.345,172.329 233.011,170.995 233.5,169.5 Z"/></g>
<g><path style="opacity:1" fill="#fec90d" d="M 333.5,169.5 C 337.908,169.062 339.575,171.062 338.5,175.5C 334.615,177.557 332.281,176.391 331.5,172C 332.056,170.989 332.722,170.156 333.5,169.5 Z"/></g>
<g><path style="opacity:1" fill="#1d2274" d="M 211.5,171.5 C 212.5,171.833 213.167,172.5 213.5,173.5C 211.32,175.009 209.653,174.509 208.5,172C 209.448,171.517 210.448,171.351 211.5,171.5 Z"/></g>
<g><path style="opacity:1" fill="#000000" d="M 225.5,171.5 C 227.63,173.127 229.63,174.96 231.5,177C 228.474,176.481 226.474,174.648 225.5,171.5 Z"/></g>
<g><path style="opacity:1" fill="#000000" d="M 334.5,171.5 C 335.995,171.415 336.995,172.081 337.5,173.5C 335.604,174.639 334.604,173.973 334.5,171.5 Z"/></g>
<g><path style="opacity:1" fill="#3037b4" d="M 216.5,174.5 C 216.232,176.099 216.566,177.432 217.5,178.5C 218.906,178.973 219.573,179.973 219.5,181.5C 219.103,182.525 218.437,182.692 217.5,182C 214.833,180 212.167,178 209.5,176C 211.813,175.338 214.146,174.838 216.5,174.5 Z"/></g>
<g><path style="opacity:1" fill="#000000" d="M 216.5,174.5 C 218.099,174.232 219.432,174.566 220.5,175.5C 219.5,175.5 218.5,175.5 217.5,175.5C 217.5,176.5 217.5,177.5 217.5,178.5C 216.566,177.432 216.232,176.099 216.5,174.5 Z"/></g>
<g><path style="opacity:1" fill="#fefffe" d="M 220.5,175.5 C 220.5,175.833 220.5,176.167 220.5,176.5C 219.761,176.369 219.094,176.536 218.5,177C 220.833,179.333 223.167,181.667 225.5,184C 223.833,184.667 222.167,184.667 220.5,184C 221.566,182.841 221.233,182.008 219.5,181.5C 219.573,179.973 218.906,178.973 217.5,178.5C 217.5,177.5 217.5,176.5 217.5,175.5C 218.5,175.5 219.5,175.5 220.5,175.5 Z"/></g>
<g><path style="opacity:1" fill="#000000" d="M 227.5,178.5 C 228.097,178.735 228.43,179.235 228.5,180C 227.969,181.718 227.302,181.885 226.5,180.5C 227.338,180.158 227.672,179.492 227.5,178.5 Z"/></g>
<g><path style="opacity:1" fill="#a80e14" d="M 233.5,182.5 C 240.098,188.466 244.765,195.799 247.5,204.5C 241.202,198.703 235.035,192.703 229,186.5C 229.525,184.426 231.025,183.093 233.5,182.5 Z"/></g>
<g><path style="opacity:1" fill="#fefffe" d="M 288.5,188.5 C 297.941,192.318 307.775,194.651 318,195.5C 323.666,194.833 328.999,193.166 334,190.5C 334.5,191 335,191.5 335.5,192C 319.176,199.79 303.176,199.123 287.5,190C 288.056,189.617 288.389,189.117 288.5,188.5 Z"/></g>
<g><path style="opacity:1" fill="#ec1c23" d="M 321.5,199.5 C 322.289,199.783 322.956,200.283 323.5,201C 320.703,202.233 318.037,203.733 315.5,205.5C 317.583,206.959 319.75,208.292 322,209.5C 322.64,211.265 322.473,212.932 321.5,214.5C 318.916,215.048 317.916,216.715 318.5,219.5C 312.048,216.273 305.381,213.607 298.5,211.5C 293.364,205.522 288.364,199.355 283.5,193C 283.833,192.667 284.167,192.333 284.5,192C 291.651,194.493 298.984,196.826 306.5,199C 311.489,199.499 316.489,199.666 321.5,199.5 Z"/></g>
<g><path style="opacity:1" fill="#713a15" d="M 280.5,194.5 C 291.31,204.242 299.31,216.076 304.5,230C 303.069,230.465 301.903,231.299 301,232.5C 298.945,226.058 296.612,219.725 294,213.5C 289.2,207.698 284.033,202.198 278.5,197C 279.381,196.292 280.047,195.458 280.5,194.5 Z"/></g>
<g><path style="opacity:1" fill="#fefffe" d="M 334.5,194.5 C 335.496,194.414 336.329,194.748 337,195.5C 338.112,202.168 338.778,208.835 339,215.5C 335.68,214.832 332.513,213.665 329.5,212C 331.341,206.105 333.007,200.272 334.5,194.5 Z"/></g>
<g><path style="opacity:1" fill="#a80e14" d="M 321.5,214.5 C 322.473,212.932 322.64,211.265 322,209.5C 319.75,208.292 317.583,206.959 315.5,205.5C 318.037,203.733 320.703,202.233 323.5,201C 322.956,200.283 322.289,199.783 321.5,199.5C 323.871,198.009 326.538,197.009 329.5,196.5C 329.833,197.667 330.167,198.833 330.5,200C 329.411,205.935 327.911,211.768 326,217.5C 325.411,215.137 323.911,214.137 321.5,214.5 Z"/></g>
<g><path style="opacity:1" fill="#2c2d2c" d="M 372.5,218.5 C 374.126,212.024 372.459,206.357 367.5,201.5C 367.808,200.692 368.308,200.025 369,199.5C 375.495,206.159 378.995,214.159 379.5,223.5C 379.167,223.833 378.833,224.167 378.5,224.5C 375.5,223.333 372.5,222.167 369.5,221C 370.942,220.623 371.942,219.79 372.5,218.5 Z"/></g>
<g><path style="opacity:1" fill="#eeefee" d="M 280.5,202.5 C 288.387,208.515 293.554,216.182 296,225.5C 293.667,223.167 291.333,220.833 289,218.5C 287.183,212.545 284.349,207.212 280.5,202.5 Z"/></g>
<g><path style="opacity:1" fill="#fefffe" d="M 340.5,202.5 C 341.976,204.769 343.476,207.102 345,209.5C 346.113,216.2 346.779,222.867 347,229.5C 345.667,228.167 344.333,226.833 343,225.5C 341.69,217.88 340.857,210.214 340.5,202.5 Z"/></g>
<g><path style="opacity:1" fill="#2c2d2c" d="M 364.5,206.5 C 362.286,206.291 360.619,207.124 359.5,209C 360.89,214.193 363.224,218.86 366.5,223C 366,223.5 365.5,224 365,224.5C 360.702,219.58 358.369,213.913 358,207.5C 366.017,200.694 370.851,202.86 372.5,214C 372.333,214.5 372.167,215 372,215.5C 370.167,212.5 368.333,209.5 366.5,206.5C 365.743,205.227 365.077,205.227 364.5,206.5 Z"/></g>
<g><path style="opacity:1" fill="#2c2d2c" d="M 364.5,206.5 C 367.154,210.463 369.82,214.463 372.5,218.5C 370.321,218.84 368.488,219.84 367,221.5C 364.27,217.654 362.103,213.487 360.5,209C 362.066,208.392 363.4,207.558 364.5,206.5 Z"/></g>
<g><path style="opacity:1" fill="#ec1c23" d="M 363.5,245.5 C 360.645,235.455 355.979,226.455 349.5,218.5C 348.7,216.393 348.033,214.226 347.5,212C 347.833,211.167 348.167,210.333 348.5,209.5C 355.594,219.853 361.26,231.02 365.5,243C 365.361,244.301 364.695,245.134 363.5,245.5 Z"/></g>
<g><path style="opacity:1" fill="#a80e14" d="M 298.5,211.5 C 305.381,213.607 312.048,216.273 318.5,219.5C 319.598,220.397 319.598,221.23 318.5,222C 316.635,223.301 314.635,223.635 312.5,223C 306.394,220.798 301.727,216.965 298.5,211.5 Z"/></g>
<g><path style="opacity:1" fill="#fec90d" d="M 329.5,213.5 C 332.894,214.71 336.228,216.044 339.5,217.5C 339.167,217.833 338.833,218.167 338.5,218.5C 335.93,217.366 333.264,216.532 330.5,216C 329.748,215.329 329.414,214.496 329.5,213.5 Z"/></g>
<g><path style="opacity:1" fill="#c2c3c2" d="M 320.5,215.5 C 323.5,215.167 324.833,216.5 324.5,219.5C 320.213,221.213 318.88,219.88 320.5,215.5 Z"/></g>
<g><path style="opacity:1" fill="#fefffe" d="M 328.5,216.5 C 332.164,217.554 335.831,218.721 339.5,220C 340.554,221.388 340.72,222.888 340,224.5C 336.341,222.613 332.508,221.113 328.5,220C 327.829,219.014 327.829,217.847 328.5,216.5 Z"/></g>
<g><path style="opacity:1" fill="#8e8e8e" d="M 349.5,218.5 C 355.979,226.455 360.645,235.455 363.5,245.5C 363.771,247.38 363.104,248.713 361.5,249.5C 360.388,247.401 359.721,245.067 359.5,242.5C 359.405,240.214 358.738,238.214 357.5,236.5C 354.474,232.795 351.808,228.795 349.5,224.5C 348.427,222.347 348.427,220.347 349.5,218.5 Z"/></g>
<g><path style="opacity:1" fill="#eeefee" d="M 302.5,219.5 C 306.114,221.307 309.78,223.14 313.5,225C 310.998,226.337 308.998,228.171 307.5,230.5C 305.254,227.096 303.588,223.429 302.5,219.5 Z"/></g>
<g><path style="opacity:1" fill="#02a0e5" d="M 322.5,221.5 C 325.568,221.547 328.568,222.047 331.5,223C 347.64,227.447 353.14,237.614 348,253.5C 341.301,264.095 331.801,267.928 319.5,265C 311.238,259.929 306.404,252.762 305,243.5C 307,238.833 309,234.167 311,229.5C 314.464,226.195 318.297,223.528 322.5,221.5 Z"/></g>
<g><path style="opacity:1" fill="#ec1c23" d="M 349.5,224.5 C 351.808,228.795 354.474,232.795 357.5,236.5C 357.631,237.239 357.464,237.906 357,238.5C 352.278,235.301 349.445,230.967 348.5,225.5C 348.624,224.893 348.957,224.56 349.5,224.5 Z"/></g>
<g><path style="opacity:1" fill="#000000" d="M 337.5,230.5 C 332.096,227.585 326.429,226.918 320.5,228.5C 320.918,227.778 321.584,227.278 322.5,227C 325.833,226.333 329.167,226.333 332.5,227C 334.584,227.697 336.251,228.864 337.5,230.5 Z"/></g>
<g><path style="opacity:1" fill="#939493" d="M 304.5,264.5 C 298.071,275.555 291.904,286.889 286,298.5C 281.754,303.991 277.754,309.658 274,315.5C 272.595,314.269 271.429,312.936 270.5,311.5C 277.359,299.776 283.193,287.443 288,274.5C 293.126,268.03 297.459,261.03 301,253.5C 302.577,247.06 301.244,241.393 297,236.5C 296.333,233.833 296.333,231.167 297,228.5C 298.781,233.846 300.947,239.013 303.5,244C 302.958,246.549 302.624,249.049 302.5,251.5C 303.493,255.791 304.16,260.124 304.5,264.5 Z"/></g>
<g><path style="opacity:1" fill="#000000" d="M 320.5,228.5 C 319.473,229.848 318.14,230.348 316.5,230C 317.563,228.812 318.897,228.312 320.5,228.5 Z"/></g>
<g><path style="opacity:1" fill="#000000" d="M 337.5,230.5 C 338.376,230.369 339.043,230.702 339.5,231.5C 330.897,233.174 322.23,233.674 313.5,233C 314,232.5 314.5,232 315,231.5C 322.636,232.625 330.136,232.292 337.5,230.5 Z"/></g>
<g><path style="opacity:1" fill="#fec90d" d="M 303.5,231.5 C 304.978,231.238 306.311,231.571 307.5,232.5C 306.667,234.167 305.833,235.833 305,237.5C 302.96,235.719 302.46,233.719 303.5,231.5 Z"/></g>
<g><path style="opacity:1" fill="#fefffe" d="M 349.5,233.5 C 352.297,235.795 354.964,238.295 357.5,241C 356.299,241.903 355.465,243.069 355,244.5C 352.116,241.399 350.283,237.732 349.5,233.5 Z"/></g>
<g><path style="opacity:1" fill="#000000" d="M 342.5,236.5 C 347.17,248.253 343.503,256.42 331.5,261C 322.307,262.784 315.473,259.617 311,251.5C 309.566,247.594 309.233,243.594 310,239.5C 310.497,241.81 310.663,244.143 310.5,246.5C 321.5,245.833 332.5,245.167 343.5,244.5C 344.492,240.43 342.992,238.43 339,238.5C 329.846,239.577 320.68,240.077 311.5,240C 322.019,239.161 332.352,237.994 342.5,236.5 Z"/></g>
<g><path style="opacity:1" fill="#ec1c23" d="M 359.5,242.5 C 359.721,245.067 360.388,247.401 361.5,249.5C 360.828,250.267 359.995,250.934 359,251.5C 354.594,247.809 354.76,244.809 359.5,242.5 Z"/></g>
<g><path style="opacity:1" fill="#736635" d="M 351.5,243.5 C 355.62,248.92 357.953,255.087 358.5,262C 357.079,268.392 353.079,272.059 346.5,273C 335.077,274.481 323.91,276.981 313,280.5C 308.32,272.115 305.987,263.115 306,253.5C 314.782,268.414 326.615,271.58 341.5,263C 348.244,258.13 351.577,251.63 351.5,243.5 Z"/></g>
<g><path style="opacity:1" fill="#00a1e8" d="M 336.5,245.5 C 338.924,245.192 341.257,245.526 343.5,246.5C 342.926,248.059 342.26,249.559 341.5,251C 332.158,252.502 322.825,253.002 313.5,252.5C 312.833,251.167 312.167,249.833 311.5,248.5C 319.933,247.15 328.266,246.15 336.5,245.5 Z"/></g>
<g><path style="opacity:1" fill="#00a1e8" d="M 335.5,252.5 C 340.933,251.813 341.599,252.979 337.5,256C 329.913,260.867 322.58,260.534 315.5,255C 322.308,254.117 328.975,253.283 335.5,252.5 Z"/></g>
<g><path style="opacity:1" fill="#7e7f7e" d="M 304.5,264.5 C 305.776,269.762 307.442,274.928 309.5,280C 301.624,292.916 293.124,305.416 284,317.5C 284.367,324.975 285.201,332.308 286.5,339.5C 288.358,354.456 289.691,369.456 290.5,384.5C 284.857,384.88 280.024,383.214 276,379.5C 277.348,357.492 275.181,335.826 269.5,314.5C 269.685,313.416 270.018,312.416 270.5,311.5C 271.429,312.936 272.595,314.269 274,315.5C 277.754,309.658 281.754,303.991 286,298.5C 291.904,286.889 298.071,275.555 304.5,264.5 Z"/></g>
<g><path style="opacity:1" fill="#808080" d="M 361.5,344.5 C 362.612,333.548 360.112,323.548 354,314.5C 353.034,308.87 352.367,303.204 352,297.5C 351.46,293.115 350.293,288.949 348.5,285C 350.167,284.667 351.833,284.333 353.5,284C 350.949,281.9 348.283,280.067 345.5,278.5C 345.196,277.85 344.863,277.183 344.5,276.5C 348.78,275.264 352.78,273.431 356.5,271C 357.701,270.097 358.535,268.931 359,267.5C 359.703,270.713 359.536,273.879 358.5,277C 360.765,280.848 361.932,285.015 362,289.5C 363.574,290.984 364.907,292.651 366,294.5C 370.063,302.93 373.729,311.596 377,320.5C 377.711,330.164 378.378,339.83 379,349.5C 383.716,358.731 380.883,363.064 370.5,362.5C 367.434,362.596 364.934,361.596 363,359.5C 362.826,354.316 362.326,349.316 361.5,344.5 Z"/></g>
<g><path style="opacity:1" fill="#2c2d2c" d="M 340.5,275.5 C 341.931,275.881 342.764,276.881 343,278.5C 344.373,285.697 345.873,292.864 347.5,300C 346.225,302.071 344.391,303.571 342,304.5C 339.516,295.23 337.349,285.896 335.5,276.5C 337.415,276.784 339.081,276.451 340.5,275.5 Z"/></g>
<g><path style="opacity:1" fill="#7e7f7e" d="M 286.5,339.5 C 286.58,332.548 285.914,325.715 284.5,319C 293.389,307.11 301.889,294.943 310,282.5C 316.024,281.462 322.19,280.296 328.5,279C 323.086,287.749 316.253,295.249 308,301.5C 306.669,307.82 304.002,313.487 300,318.5C 299.695,320.557 299.695,322.557 300,324.5C 295.974,324.534 291.807,324.701 287.5,325C 290.72,326.352 294.053,327.186 297.5,327.5C 297.627,329.915 297.793,332.249 298,334.5C 295.459,331.478 292.293,329.978 288.5,330C 291.548,333.144 295.215,335.144 299.5,336C 300.191,337.067 300.691,338.234 301,339.5C 302.213,350.451 302.88,361.451 303,372.5C 303.743,375.265 304.41,377.931 305,380.5C 302.791,381.92 300.791,383.587 299,385.5C 297.558,381.489 295.558,377.822 293,374.5C 289.968,362.848 287.801,351.181 286.5,339.5 Z"/></g>
<g><path style="opacity:1" fill="#4e4f4e" d="M 331.5,278.5 C 332.75,278.577 333.583,279.244 334,280.5C 335.213,283.768 335.546,287.101 335,290.5C 333.21,286.673 332.044,282.673 331.5,278.5 Z"/></g>
<g><path style="opacity:1" fill="#3e3e3e" d="M 345.5,278.5 C 348.283,280.067 350.949,281.9 353.5,284C 351.833,284.333 350.167,284.667 348.5,285C 350.293,288.949 351.46,293.115 352,297.5C 352.367,303.204 353.034,308.87 354,314.5C 360.112,323.548 362.612,333.548 361.5,344.5C 361.666,349.511 361.499,354.511 361,359.5C 360.333,358.833 359.667,358.167 359,357.5C 360.038,343.538 357.705,330.205 352,317.5C 350.283,304.415 348.116,291.415 345.5,278.5 Z"/></g>
<g><path style="opacity:1" fill="#fec90d" d="M 347.5,303.5 C 348.735,308.988 349.735,314.655 350.5,320.5C 350.547,322 349.881,323 348.5,323.5C 345.624,318.71 343.624,313.543 342.5,308C 343.761,306.038 345.428,304.538 347.5,303.5 Z"/></g>
<g><path style="opacity:1" fill="#2c2d2c" d="M 377.5,363.5 C 378.712,367.096 380.379,370.596 382.5,374C 378.379,379.751 373.045,380.918 366.5,377.5C 364.569,375.196 362.236,373.362 359.5,372C 358.128,370.758 357.128,369.258 356.5,367.5C 358.657,366.21 360.99,365.376 363.5,365C 368.351,364.826 373.018,364.326 377.5,363.5 Z"/></g>
<g><path style="opacity:1" fill="#2b2b2b" d="M 292.5,377.5 C 294.076,380.352 295.576,383.352 297,386.5C 298.333,387.833 299.667,387.833 301,386.5C 302.802,390.428 304.302,394.428 305.5,398.5C 300.433,398.689 295.766,400.189 291.5,403C 285.083,403.87 278.749,403.536 272.5,402C 270.545,401.047 268.878,399.713 267.5,398C 274.597,396.564 279.597,392.564 282.5,386C 285.428,386.456 288.428,386.456 291.5,386C 292.444,383.281 292.777,380.448 292.5,377.5 Z"/></g>
<g><path style="opacity:1" fill="#fec90d" d="M 291.5,390.5 C 293.465,390.948 293.798,391.948 292.5,393.5C 291.614,392.675 291.281,391.675 291.5,390.5 Z"/></g>
<g><path style="opacity:1" fill="#fec90d" d="M 290.5,397.5 C 291.675,397.281 292.675,397.614 293.5,398.5C 291.948,399.798 290.948,399.465 290.5,397.5 Z"/></g>
</svg>
