<?xml version="1.0" encoding="UTF-8"?>
<!DOCTYPE svg PUBLIC "-//W3C//DTD SVG 1.1//EN" "http://www.w3.org/Graphics/SVG/1.1/DTD/svg11.dtd">
<svg xmlns="http://www.w3.org/2000/svg" version="1.1" width="391px" height="539px" style="shape-rendering:geometricPrecision; text-rendering:geometricPrecision; image-rendering:optimizeQuality; fill-rule:evenodd; clip-rule:evenodd" xmlns:xlink="http://www.w3.org/1999/xlink">
<g><path style="opacity:1" fill="#fefffe" d="M 362.5,34.5 C 366.833,34.5 371.167,34.5 375.5,34.5C 375.666,39.8437 375.499,45.1771 375,50.5C 363.333,67.1667 351.667,83.8333 340,100.5C 339.667,105.167 339.333,109.833 339,114.5C 328.571,126.305 319.571,139.305 312,153.5C 308.298,163.867 302.298,172.867 294,180.5C 292.142,185.695 288.808,189.695 284,192.5C 278,200.5 272,208.5 266,216.5C 265.503,218.81 265.337,221.143 265.5,223.5C 287.766,226.303 297.266,238.97 294,261.5C 292.482,267.357 288.648,270.524 282.5,271C 276.833,271.667 271.167,271.667 265.5,271C 252.74,265.069 247.24,269.236 249,283.5C 250.385,284.551 251.385,285.884 252,287.5C 252.167,291 252.333,294.5 252.5,298C 251.803,305.874 250.97,313.707 250,321.5C 257.302,335.401 262.635,350.068 266,365.5C 266.487,385.04 265.987,404.54 264.5,424C 266.729,431.057 267.062,438.224 265.5,445.5C 270.128,450.299 274.628,455.299 279,460.5C 279.667,465.833 279.667,471.167 279,476.5C 261.672,481.913 245.172,480.08 229.5,471C 225.414,464.719 224.414,457.885 226.5,450.5C 223.046,447.496 221.713,443.662 222.5,439C 222.353,433.609 223.353,428.442 225.5,423.5C 224.686,411.212 224.186,398.879 224,386.5C 220.798,380.623 216.798,375.289 212,370.5C 210.289,368.044 208.956,365.377 208,362.5C 204.55,375.394 201.217,388.394 198,401.5C 194.102,409.733 189.769,417.733 185,425.5C 184.356,429.221 183.523,432.887 182.5,436.5C 184.647,442.711 184.98,449.045 183.5,455.5C 181.31,457.524 178.977,459.357 176.5,461C 168.421,461.901 160.421,461.568 152.5,460C 150.333,457.833 148.167,455.667 146,453.5C 144.977,432.455 146.977,411.788 152,391.5C 153.667,388.833 155.333,386.167 157,383.5C 157.201,369.808 157.701,356.141 158.5,342.5C 156.673,340.5 155.006,338.333 153.5,336C 151.5,335.667 149.5,335.333 147.5,335C 146.5,333.333 145.5,331.667 144.5,330C 136.951,327.608 133.618,322.441 134.5,314.5C 134.571,307.74 135.404,301.073 137,294.5C 137.653,291.193 139.319,288.527 142,286.5C 141.707,280.993 143.04,275.993 146,271.5C 146.333,264.167 146.667,256.833 147,249.5C 150.38,237.601 153.38,225.601 156,213.5C 156.419,212.328 157.085,211.328 158,210.5C 158.333,206.167 158.667,201.833 159,197.5C 161.538,192.381 165.705,190.048 171.5,190.5C 172.23,188.659 172.897,186.825 173.5,185C 178.167,184.333 182.833,184.333 187.5,185C 188.893,186.171 189.727,187.671 190,189.5C 191.163,187.715 191.83,185.715 192,183.5C 193.067,182.809 194.234,182.309 195.5,182C 193.959,180.421 192.792,178.587 192,176.5C 191.333,171.5 191.333,166.5 192,161.5C 192.374,160.584 192.874,159.75 193.5,159C 206.406,152.626 220.072,149.459 234.5,149.5C 233.945,139.028 234.778,128.695 237,118.5C 238.5,117 240,115.5 241.5,114C 246.833,113.333 252.167,113.333 257.5,114C 258.416,114.374 259.25,114.874 260,115.5C 260.667,123.167 260.667,130.833 260,138.5C 259.299,143.268 257.799,147.768 255.5,152C 257.522,156.929 258.022,162.095 257,167.5C 254.384,173.291 253.05,179.291 253,185.5C 271.284,160.882 289.95,136.548 309,112.5C 312.122,105.444 314.456,98.1105 316,90.5C 331.747,71.987 347.247,53.3204 362.5,34.5 Z"/></g>
<g><path style="opacity:1" fill="#000000" d="M 365.5,37.5 C 367.833,37.5 370.167,37.5 372.5,37.5C 372.854,41.6372 372.354,45.6372 371,49.5C 358.5,67.1667 346,84.8333 333.5,102.5C 337.64,106.536 337.473,110.203 333,113.5C 327.52,122.016 321.52,130.349 315,138.5C 313.548,142.737 311.548,146.737 309,150.5C 305.298,160.867 299.298,169.867 291,177.5C 289.142,182.695 285.808,186.695 281,189.5C 274.372,198.596 267.872,207.763 261.5,217C 262.367,220.105 262.701,223.272 262.5,226.5C 279.536,227.534 289.202,236.534 291.5,253.5C 292.04,262.124 288.04,266.958 279.5,268C 270.041,268.08 260.874,266.247 252,262.5C 250.245,264.987 248.245,267.32 246,269.5C 245.333,275.167 245.333,280.833 246,286.5C 248.964,289.701 250.13,293.535 249.5,298C 248.666,305.667 247,313.167 244.5,320.5C 247.84,325.175 250.673,330.175 253,335.5C 256.536,346.44 259.869,357.44 263,368.5C 263.273,387.016 262.773,405.516 261.5,424C 263.261,429.7 263.761,435.534 263,441.5C 261.833,442.667 260.667,443.833 259.5,445C 264.943,451.115 270.443,457.282 276,463.5C 276.667,466.833 276.667,470.167 276,473.5C 260.643,478.679 246.143,476.845 232.5,468C 227.201,461.535 227.201,455.035 232.5,448.5C 230.203,447.102 228.037,445.436 226,443.5C 225.833,442 225.667,440.5 225.5,439C 226.577,433.857 227.577,428.691 228.5,423.5C 227.741,410.181 227.241,396.848 227,383.5C 226.529,381.754 225.862,380.087 225,378.5C 216.634,371.092 210.801,362.092 207.5,351.5C 205.883,354.28 204.716,357.28 204,360.5C 201.383,373.252 198.383,385.919 195,398.5C 191.102,406.733 186.769,414.733 182,422.5C 181.618,427.467 180.118,431.967 177.5,436C 184.09,444.99 182.757,452.324 173.5,458C 163.58,460.66 155.414,458.16 149,450.5C 148.262,431.463 150.262,412.796 155,394.5C 159.71,388.738 161.877,382.071 161.5,374.5C 159.961,362.933 160.295,351.433 162.5,340C 160.198,338.023 158.198,335.69 156.5,333C 154.5,332.667 152.5,332.333 150.5,332C 149.5,330.333 148.5,328.667 147.5,327C 138.546,323.984 135.38,317.817 138,308.5C 138.617,303.747 139.617,299.08 141,294.5C 141.953,292.545 143.287,290.878 145,289.5C 145.333,286.167 145.667,282.833 146,279.5C 148.073,276.27 149.906,272.937 151.5,269.5C 149.491,264.057 148.991,258.391 150,252.5C 153.38,240.601 156.38,228.601 159,216.5C 159.81,214.694 160.976,213.194 162.5,212C 158.894,200.685 162.894,194.519 174.5,193.5C 175.23,191.659 175.897,189.825 176.5,188C 179.167,187.333 181.833,187.333 184.5,188C 186.037,189.11 186.703,190.61 186.5,192.5C 188.857,192.663 191.19,192.497 193.5,192C 194.167,190 194.833,188 195.5,186C 197.9,185.814 200.234,185.314 202.5,184.5C 199.805,180.97 197.305,177.304 195,173.5C 194.044,169.428 194.544,165.595 196.5,162C 209.406,155.626 223.072,152.459 237.5,152.5C 236.945,142.028 237.778,131.695 240,121.5C 244.795,116.049 250.461,115.049 257,118.5C 259.099,131.341 256.599,143.174 249.5,154C 252.759,155.25 254.425,157.583 254.5,161C 252.187,168.585 250.187,176.251 248.5,184C 248.574,187.533 249.907,190.367 252.5,192.5C 272.333,166.833 292.167,141.167 312,115.5C 315.122,108.444 317.456,101.11 319,93.5C 334.747,74.987 350.247,56.3204 365.5,37.5 Z"/></g>
<g><path style="opacity:1" fill="#7d7d7d" d="M 323.5,116.5 C 322.71,115.599 321.71,114.932 320.5,114.5C 319.34,113.735 318.34,112.735 317.5,111.5C 321.133,108.141 322.3,104.141 321,99.5C 337.379,80.1234 353.379,60.4567 369,40.5C 369.418,42.788 368.751,44.788 367,46.5C 354,64.8333 341,83.1667 328,101.5C 327.731,104.28 328.898,106.446 331.5,108C 330.437,109.188 329.103,109.688 327.5,109.5C 329.252,113.443 327.919,115.776 323.5,116.5 Z"/></g>
<g><path style="opacity:1" fill="#edeeed" d="M 247.5,120.5 C 249.262,120.357 250.929,120.691 252.5,121.5C 253.837,127.959 253.337,134.292 251,140.5C 248.588,145.659 245.921,150.659 243,155.5C 240.829,145.08 241.162,134.747 244,124.5C 245.376,123.295 246.542,121.962 247.5,120.5 Z"/></g>
<g><path style="opacity:1" fill="#fec90d" d="M 300.5,149.5 C 301.385,151.27 300.552,152.27 298,152.5C 296.923,151.571 295.756,150.904 294.5,150.5C 294.415,149.005 295.081,148.005 296.5,147.5C 297.622,148.63 298.956,149.297 300.5,149.5 Z"/></g>
<g><path style="opacity:1" fill="#41291b" d="M 320.5,114.5 C 321.71,114.932 322.71,115.599 323.5,116.5C 323.611,117.117 323.944,117.617 324.5,118C 315.221,127.734 308.388,138.901 304,151.5C 303.184,150.177 302.017,149.511 300.5,149.5C 298.956,149.297 297.622,148.63 296.5,147.5C 295.081,148.005 294.415,149.005 294.5,150.5C 295.54,152.719 295.04,154.719 293,156.5C 278.055,176.084 262.888,195.417 247.5,214.5C 246.5,214.167 245.833,213.5 245.5,212.5C 245.389,211.883 245.056,211.383 244.5,211C 268.788,179.59 292.954,148.09 317,116.5C 317.816,115.177 318.983,114.511 320.5,114.5 Z"/></g>
<g><path style="opacity:1" fill="#ebdeca" d="M 286.5,175.5 C 284.938,175.267 283.605,174.6 282.5,173.5C 287.37,166.94 292.37,160.44 297.5,154C 299.754,152.85 302.087,152.516 304.5,153C 299.046,160.952 293.046,168.452 286.5,175.5 Z"/></g>
<g><path style="opacity:1" fill="#fe7f26" d="M 244.5,162.5 C 241.57,166.058 238.236,166.391 234.5,163.5C 234.5,161.833 234.5,160.167 234.5,158.5C 237.407,154.646 240.574,154.646 244,158.5C 244.49,159.793 244.657,161.127 244.5,162.5 Z"/></g>
<g><path style="opacity:1" fill="#11111a" d="M 234.5,158.5 C 234.5,160.167 234.5,161.833 234.5,163.5C 222.104,162.972 210.771,165.972 200.5,172.5C 197.54,168.546 198.54,165.713 203.5,164C 213.495,159.114 223.828,157.28 234.5,158.5 Z"/></g>
<g><path style="opacity:1" fill="#1e1e2c" d="M 245.5,169.5 C 242.675,169.919 240.509,168.919 239,166.5C 237.022,168.739 234.522,170.072 231.5,170.5C 236.12,171.493 240.786,171.827 245.5,171.5C 246.043,171.56 246.376,171.893 246.5,172.5C 241.208,173.495 235.875,173.828 230.5,173.5C 229.46,184.13 234.127,188.463 244.5,186.5C 244.5,187.5 244.5,188.5 244.5,189.5C 232.769,188.143 221.102,188.309 209.5,190C 207.622,186.326 206.122,182.493 205,178.5C 202.873,176.886 201.373,174.886 200.5,172.5C 210.771,165.972 222.104,162.972 234.5,163.5C 238.236,166.391 241.57,166.058 244.5,162.5C 245.434,161.432 245.768,160.099 245.5,158.5C 251.825,159.671 252.158,161.837 246.5,165C 247.167,165.333 247.833,165.667 248.5,166C 247.773,167.399 247.273,168.899 247,170.5C 246.617,169.944 246.117,169.611 245.5,169.5 Z"/></g>
<g><path style="opacity:1" fill="#fec90d" d="M 245.5,169.5 C 245.5,170.167 245.5,170.833 245.5,171.5C 240.786,171.827 236.12,171.493 231.5,170.5C 234.522,170.072 237.022,168.739 239,166.5C 240.509,168.919 242.675,169.919 245.5,169.5 Z"/></g>
<g><path style="opacity:1" fill="#fec90d" d="M 282.5,173.5 C 283.605,174.6 284.938,175.267 286.5,175.5C 286.672,176.492 286.338,177.158 285.5,177.5C 284.395,176.4 283.062,175.733 281.5,175.5C 281.328,174.508 281.662,173.842 282.5,173.5 Z"/></g>
<g><path style="opacity:1" fill="#fec90d" d="M 231.5,174.5 C 236.167,174.5 240.833,174.5 245.5,174.5C 245.11,177.839 244.61,181.173 244,184.5C 235.408,187.096 231.242,183.763 231.5,174.5 Z"/></g>
<g><path style="opacity:1" fill="#785e00" d="M 233.5,175.5 C 235.117,177.121 236.284,179.121 237,181.5C 238.333,177.5 239.667,177.5 241,181.5C 241.815,179.377 242.815,177.377 244,175.5C 243.832,178.672 242.832,181.672 241,184.5C 240.333,183.167 239.667,181.833 239,180.5C 238.333,181.833 237.667,183.167 237,184.5C 235.336,181.673 234.17,178.673 233.5,175.5 Z"/></g>
<g><path style="opacity:1" fill="#ebdeca" d="M 281.5,175.5 C 283.062,175.733 284.395,176.4 285.5,177.5C 285.262,179.404 284.262,180.738 282.5,181.5C 281.395,180.4 280.062,179.733 278.5,179.5C 279.026,177.77 280.026,176.436 281.5,175.5 Z"/></g>
<g><path style="opacity:1" fill="#fec90d" d="M 278.5,179.5 C 280.062,179.733 281.395,180.4 282.5,181.5C 282.5,182.833 281.833,183.5 280.5,183.5C 279.694,182.272 278.694,181.272 277.5,180.5C 277.5,179.833 277.833,179.5 278.5,179.5 Z"/></g>
<g><path style="opacity:1" fill="#ebdeca" d="M 277.5,180.5 C 278.694,181.272 279.694,182.272 280.5,183.5C 273.197,192.313 266.031,201.313 259,210.5C 257.354,212.609 256.188,214.943 255.5,217.5C 253.708,217.634 252.042,217.301 250.5,216.5C 258.738,203.929 267.738,191.929 277.5,180.5 Z"/></g>
<g><path style="opacity:1" fill="#eef0e0" d="M 197.5,188.5 C 199.199,188.34 200.866,188.506 202.5,189C 203.929,193.067 202.596,194.234 198.5,192.5C 197.754,191.264 197.421,189.93 197.5,188.5 Z"/></g>
<g><path style="opacity:1" fill="#13141e" d="M 219.5,189.5 C 228.195,189.327 236.862,189.66 245.5,190.5C 245.744,193.263 247.077,195.429 249.5,197C 242.454,197.383 235.454,196.883 228.5,195.5C 221.659,195.951 214.992,196.784 208.5,198C 209.167,196 209.833,194 210.5,192C 213.678,191.34 216.678,190.507 219.5,189.5 Z"/></g>
<g><path style="opacity:1" fill="#eef0e0" d="M 181.5,195.5 C 180.5,195.5 179.5,195.5 178.5,195.5C 178.5,193.833 178.5,192.167 178.5,190.5C 183.484,190.144 184.484,191.811 181.5,195.5 Z"/></g>
<g><path style="opacity:1" fill="#eef0e0" d="M 181.5,195.5 C 186.699,195.522 190.532,197.856 193,202.5C 196.744,208.986 196.244,214.986 191.5,220.5C 191.167,220.167 190.833,219.833 190.5,219.5C 194.578,208.725 191.578,200.725 181.5,195.5 Z"/></g>
<g><path style="opacity:1" fill="#686897" d="M 203.5,212.5 C 203.598,214.553 202.931,216.22 201.5,217.5C 199.433,219.512 197.1,219.846 194.5,218.5C 197.086,212.814 196.919,207.147 194,201.5C 193.052,199.43 191.552,197.93 189.5,197C 192.372,196.685 195.205,196.185 198,195.5C 199.605,196.101 200.938,197.101 202,198.5C 203.379,203.036 203.879,207.703 203.5,212.5 Z"/></g>
<g><path style="opacity:1" fill="#eef0e0" d="M 201.5,217.5 C 202.931,216.22 203.598,214.553 203.5,212.5C 204.647,208.354 204.814,204.02 204,199.5C 203.535,198.069 202.701,196.903 201.5,196C 205.798,195.82 207.465,197.987 206.5,202.5C 206.441,208.216 205.108,213.549 202.5,218.5C 201.893,218.376 201.56,218.043 201.5,217.5 Z"/></g>
<g><path style="opacity:1" fill="#6a6b9c" d="M 178.5,196.5 C 190.604,200.808 193.938,208.808 188.5,220.5C 185.628,223.146 182.295,223.979 178.5,223C 183.192,217.307 184.692,210.807 183,203.5C 181.167,201.667 179.333,199.833 177.5,198C 178.056,197.617 178.389,197.117 178.5,196.5 Z"/></g>
<g><path style="opacity:1" fill="#8f5028" d="M 238.5,199.5 C 236.79,201.2 234.79,202.533 232.5,203.5C 230.045,201.703 227.378,200.37 224.5,199.5C 224.5,198.5 224.5,197.5 224.5,196.5C 228.202,196.421 231.868,196.754 235.5,197.5C 237.03,197.64 238.03,198.307 238.5,199.5 Z"/></g>
<g><path style="opacity:1" fill="#4f2103" d="M 223.5,199.5 C 223.838,201.854 224.338,204.187 225,206.5C 230.134,210.658 229.634,213.158 223.5,214C 222.667,213.167 221.833,212.333 221,211.5C 220.2,208.133 219.034,204.966 217.5,202C 211.741,200.861 210.074,203.028 212.5,208.5C 212.631,209.239 212.464,209.906 212,210.5C 209.755,208.988 208.255,206.988 207.5,204.5C 207.39,202.626 208.056,201.126 209.5,200C 214.344,197.065 219.011,196.899 223.5,199.5 Z"/></g>
<g><path style="opacity:1" fill="#6a6b9c" d="M 178.5,214.5 C 176.777,216.253 175.277,218.253 174,220.5C 173.064,217.232 171.064,214.899 168,213.5C 164.254,208.122 164.754,203.289 169.5,199C 171.833,198.333 174.167,198.333 176.5,199C 184.356,206.697 184.356,214.53 176.5,222.5C 176.167,222 175.833,221.5 175.5,221C 176.906,219.022 177.906,216.855 178.5,214.5 Z"/></g>
<g><path style="opacity:1" fill="#fefffe" d="M 231.5,198.5 C 232.167,199.5 232.833,200.5 233.5,201.5C 231.319,201.716 229.653,200.883 228.5,199C 229.448,198.517 230.448,198.351 231.5,198.5 Z"/></g>
<g><path style="opacity:1" fill="#000000" d="M 231.5,198.5 C 232.978,198.238 234.311,198.571 235.5,199.5C 235.145,200.522 234.478,201.189 233.5,201.5C 232.833,200.5 232.167,199.5 231.5,198.5 Z"/></g>
<g><path style="opacity:1" fill="#f7ba92" d="M 223.5,199.5 C 223.833,199.5 224.167,199.5 224.5,199.5C 227.378,200.37 230.045,201.703 232.5,203.5C 234.79,202.533 236.79,201.2 238.5,199.5C 239.709,202.721 241.376,205.721 243.5,208.5C 241.901,210.729 239.901,211.062 237.5,209.5C 236.537,209.97 236.537,210.637 237.5,211.5C 233.979,213.431 233.313,215.764 235.5,218.5C 235.262,220.645 234.262,222.312 232.5,223.5C 227.739,221.706 223.573,219.04 220,215.5C 219.536,216.094 219.369,216.761 219.5,217.5C 217.537,216.04 215.704,214.373 214,212.5C 215.008,210.634 214.508,209.301 212.5,208.5C 210.074,203.028 211.741,200.861 217.5,202C 219.034,204.966 220.2,208.133 221,211.5C 221.833,212.333 222.667,213.167 223.5,214C 229.634,213.158 230.134,210.658 225,206.5C 224.338,204.187 223.838,201.854 223.5,199.5 Z"/></g>
<g><path style="opacity:1" fill="#000000" d="M 178.5,214.5 C 180.59,208.845 178.924,204.679 173.5,202C 171.633,201.289 170.133,201.789 169,203.5C 168.672,206.207 169.005,208.874 170,211.5C 172.659,214.223 174.825,213.89 176.5,210.5C 176.22,214.225 174.22,215.392 170.5,214C 167.291,209.791 166.958,205.457 169.5,201C 179.183,201.218 182.183,205.718 178.5,214.5 Z"/></g>
<g><path style="opacity:1" fill="#ebb18c" d="M 239.5,198.5 C 241.017,198.511 242.184,199.177 243,200.5C 243.333,199.833 243.667,199.167 244,198.5C 245.124,201.442 245.458,204.442 245,207.5C 242.517,204.861 240.684,201.861 239.5,198.5 Z"/></g>
<g><path style="opacity:1" fill="#000000" d="M 234.5,203.5 C 235.239,203.369 235.906,203.536 236.5,204C 234.141,208.549 231.641,213.049 229,217.5C 230.52,212.781 232.353,208.114 234.5,203.5 Z"/></g>
<g><path style="opacity:1" fill="#000000" d="M 176.5,210.5 C 175.837,207.577 174.17,206.91 171.5,208.5C 174.131,210.005 173.797,210.671 170.5,210.5C 170.5,209.167 170.5,207.833 170.5,206.5C 172.527,206.338 174.527,206.505 176.5,207C 177.791,208.292 177.791,209.458 176.5,210.5 Z"/></g>
<g><path style="opacity:1" fill="#eef0e0" d="M 207.5,209.5 C 212.798,214.297 217.965,219.297 223,224.5C 223.824,227.882 223.657,231.216 222.5,234.5C 216.3,231.467 210.8,227.467 206,222.5C 206.16,218.163 206.66,213.83 207.5,209.5 Z"/></g>
<g><path style="opacity:1" fill="#682a00" d="M 237.5,211.5 C 238.873,211.343 240.207,211.51 241.5,212C 240.002,214.664 238.002,216.83 235.5,218.5C 233.313,215.764 233.979,213.431 237.5,211.5 Z"/></g>
<g><path style="opacity:1" fill="#dfa885" d="M 245.5,212.5 C 245.833,213.5 246.5,214.167 247.5,214.5C 248.29,215.401 249.29,216.068 250.5,216.5C 252.042,217.301 253.708,217.634 255.5,217.5C 257.411,217.574 258.578,218.574 259,220.5C 258.722,224.139 258.722,227.806 259,231.5C 261.039,233.874 263.372,235.874 266,237.5C 266.483,238.448 266.649,239.448 266.5,240.5C 265.5,243.5 263.5,245.5 260.5,246.5C 256.158,244.672 252.491,241.839 249.5,238C 248.552,237.517 247.552,237.351 246.5,237.5C 245.101,236.11 243.434,235.11 241.5,234.5C 240.205,233.512 238.872,232.512 237.5,231.5C 236.92,229.251 235.587,227.585 233.5,226.5C 237.034,221.431 241.034,216.764 245.5,212.5 Z"/></g>
<g><path style="opacity:1" fill="#b87a56" d="M 166.5,217.5 C 167.978,217.238 169.311,217.571 170.5,218.5C 172.133,222.633 175.133,225.133 179.5,226C 176.983,228.349 174.65,230.849 172.5,233.5C 169.017,234.207 165.517,234.873 162,235.5C 161.5,235.167 161,234.833 160.5,234.5C 161.664,229.844 162.831,225.177 164,220.5C 164.698,219.309 165.531,218.309 166.5,217.5 Z"/></g>
<g><path style="opacity:1" fill="#9a5c32" d="M 219.5,217.5 C 222.351,219.505 225.351,221.338 228.5,223C 227.167,223.667 225.833,223.667 224.5,223C 221.921,221.924 220.254,220.091 219.5,217.5 Z"/></g>
<g><path style="opacity:1" fill="#5b74ff" d="M 203.5,225.5 C 203.167,224.5 202.5,223.833 201.5,223.5C 197.912,221.797 198.578,220.797 203.5,220.5C 203.393,222.903 204.393,224.736 206.5,226C 210.967,230.4 215.967,234.066 221.5,237C 220.213,238.41 219.046,239.91 218,241.5C 213.667,237.833 209.333,234.167 205,230.5C 204.802,228.618 204.302,226.952 203.5,225.5 Z"/></g>
<g><path style="opacity:1" fill="#eef0e0" d="M 193.5,224.5 C 191.901,224.232 190.568,224.566 189.5,225.5C 188.127,225.657 186.793,225.49 185.5,225C 187.336,223.581 189.336,222.414 191.5,221.5C 192.919,222.005 193.585,223.005 193.5,224.5 Z"/></g>
<g><path style="opacity:1" fill="#870014" d="M 196.5,223.5 C 194.663,223.361 194.33,222.694 195.5,221.5C 196.298,221.957 196.631,222.624 196.5,223.5 Z"/></g>
<g><path style="opacity:1" fill="#c7c7bb" d="M 196.5,223.5 C 198.167,223.5 199.833,223.5 201.5,223.5C 202.5,223.833 203.167,224.5 203.5,225.5C 203.5,226.833 203.5,228.167 203.5,229.5C 200.848,229.41 198.515,230.076 196.5,231.5C 195.791,232.404 194.791,232.737 193.5,232.5C 192.508,232.328 191.842,232.662 191.5,233.5C 190.136,235.191 188.803,236.858 187.5,238.5C 186.624,238.631 185.957,238.298 185.5,237.5C 186.982,235.517 188.649,233.684 190.5,232C 194.37,230.713 198.036,229.047 201.5,227C 200.646,225.978 199.646,225.145 198.5,224.5C 190.278,225.854 183.778,229.854 179,236.5C 178.5,236 178,235.5 177.5,235C 181.024,231.091 185.024,227.924 189.5,225.5C 190.568,224.566 191.901,224.232 193.5,224.5C 194.791,224.737 195.791,224.404 196.5,223.5 Z"/></g>
<g><path style="opacity:1" fill="#5b74ff" d="M 195.5,226.5 C 196.873,226.343 198.207,226.51 199.5,227C 192.597,228.364 187.097,231.864 183,237.5C 181.655,235.557 182.155,233.724 184.5,232C 187.99,229.588 191.657,227.755 195.5,226.5 Z"/></g>
<g><path style="opacity:1" fill="#42291c" d="M 233.5,226.5 C 235.587,227.585 236.92,229.251 237.5,231.5C 232.924,238.25 227.758,244.583 222,250.5C 221.605,248.821 221.772,247.155 222.5,245.5C 222.471,243.971 221.804,242.804 220.5,242C 224.495,236.485 228.828,231.318 233.5,226.5 Z"/></g>
<g><path style="opacity:1" fill="#5b74ff" d="M 180.5,227.5 C 181.239,227.369 181.906,227.536 182.5,228C 179.973,230.886 177.306,233.219 174.5,235C 176.334,232.337 178.334,229.837 180.5,227.5 Z"/></g>
<g><path style="opacity:1" fill="#babd92" d="M 266.5,231.5 C 267.338,231.842 267.672,232.508 267.5,233.5C 267.649,234.552 267.483,235.552 267,236.5C 264.205,234.707 261.705,232.54 259.5,230C 262.198,229.185 264.532,229.685 266.5,231.5 Z"/></g>
<g><path style="opacity:1" fill="#6c0b12" d="M 213.5,243.5 C 211.167,241.833 209.167,239.833 207.5,237.5C 207.167,236.5 206.5,235.833 205.5,235.5C 203.246,234.876 201.579,233.543 200.5,231.5C 201.251,230.427 202.251,230.26 203.5,231C 208.007,234.676 212.341,238.51 216.5,242.5C 215.867,244.519 214.867,244.853 213.5,243.5 Z"/></g>
<g><path style="opacity:1" fill="#eef0e0" d="M 196.5,231.5 C 198.156,237.747 197.156,238.081 193.5,232.5C 194.791,232.737 195.791,232.404 196.5,231.5 Z"/></g>
<g><path style="opacity:1" fill="#eef0e0" d="M 200.5,231.5 C 201.579,233.543 203.246,234.876 205.5,235.5C 205.397,238.219 205.731,240.885 206.5,243.5C 204.894,250.702 202.728,257.702 200,264.5C 197.263,265.61 194.429,265.777 191.5,265C 200.768,256.565 203.101,246.398 198.5,234.5C 198.64,232.97 199.307,231.97 200.5,231.5 Z"/></g>
<g><path style="opacity:1" fill="#5b74ff" d="M 191.5,233.5 C 200.282,239.947 201.782,247.947 196,257.5C 194.167,259.333 192.333,261.167 190.5,263C 189.517,263.591 188.85,263.257 188.5,262C 190.066,254.036 189.733,246.203 187.5,238.5C 188.803,236.858 190.136,235.191 191.5,233.5 Z"/></g>
<g><path style="opacity:1" fill="#ebdeca" d="M 241.5,234.5 C 241.611,235.117 241.944,235.617 242.5,236C 238.167,242.333 233.833,248.667 229.5,255C 228.552,255.483 227.552,255.649 226.5,255.5C 225.602,254.842 224.602,254.176 223.5,253.5C 228.689,247.478 233.689,241.312 238.5,235C 239.448,234.517 240.448,234.351 241.5,234.5 Z"/></g>
<g><path style="opacity:1" fill="#e5e6d8" d="M 269.5,234.5 C 272.37,235.433 274.704,237.1 276.5,239.5C 274.71,250.463 268.377,254.963 257.5,253C 250.583,249.203 251.25,247.536 259.5,248C 260.056,247.617 260.389,247.117 260.5,246.5C 263.5,245.5 265.5,243.5 266.5,240.5C 267.797,238.629 268.797,236.629 269.5,234.5 Z"/></g>
<g><path style="opacity:1" fill="#b87a56" d="M 165.5,235.5 C 167.527,235.338 169.527,235.505 171.5,236C 170.039,241.659 168.206,247.159 166,252.5C 162.501,256.672 159.834,261.338 158,266.5C 154.885,263.818 153.885,260.484 155,256.5C 157.136,250.291 158.802,243.958 160,237.5C 161.948,236.891 163.782,236.224 165.5,235.5 Z"/></g>
<g><path style="opacity:1" fill="#5b74ff" d="M 180.5,272.5 C 177.941,272.198 175.607,272.532 173.5,273.5C 172.167,275.167 172.167,276.833 173.5,278.5C 174.919,279.451 176.585,279.784 178.5,279.5C 178.232,281.099 178.566,282.432 179.5,283.5C 179.707,286.241 180.707,288.574 182.5,290.5C 175.077,291.32 167.577,292.32 160,293.5C 155.043,292.614 151.877,289.78 150.5,285C 156.523,274.591 162.356,264.091 168,253.5C 170.206,248.159 172.039,242.659 173.5,237C 177.225,237.011 180.892,237.677 184.5,239C 186.049,240.214 187.215,241.714 188,243.5C 188.582,250.852 188.415,258.185 187.5,265.5C 182.913,265.576 178.913,267.076 175.5,270C 176.5,270.667 177.5,270.667 178.5,270C 179.466,268.322 180.799,267.655 182.5,268C 180.963,269.11 180.297,270.61 180.5,272.5 Z"/></g>
<g><path style="opacity:1" fill="#000000" d="M 262.5,236.5 C 263.969,239.102 263.302,241.269 260.5,243C 259.167,243.667 257.833,243.667 256.5,243C 260.099,242.236 262.099,240.07 262.5,236.5 Z"/></g>
<g><path style="opacity:1" fill="#eef0e0" d="M 207.5,237.5 C 209.167,239.833 211.167,241.833 213.5,243.5C 213.66,245.199 213.494,246.866 213,248.5C 211.604,246.473 209.938,246.14 208,247.5C 207.685,244.628 207.185,241.795 206.5,239C 206.57,238.235 206.903,237.735 207.5,237.5 Z"/></g>
<g><path style="opacity:1" fill="#eef0e0" d="M 246.5,237.5 C 246.596,244.151 246.93,250.818 247.5,257.5C 244.808,267.037 242.474,267.371 240.5,258.5C 242.139,252.412 243.473,246.245 244.5,240C 244.684,238.624 245.351,237.791 246.5,237.5 Z"/></g>
<g><path style="opacity:1" fill="#5a73fd" d="M 276.5,239.5 C 274.704,237.1 272.37,235.433 269.5,234.5C 269.158,233.662 268.492,233.328 267.5,233.5C 267.672,232.508 267.338,231.842 266.5,231.5C 266.517,229.972 267.184,229.472 268.5,230C 274.291,232.98 279.457,236.813 284,241.5C 285.475,245.398 286.642,249.398 287.5,253.5C 286.628,256.212 285.128,258.545 283,260.5C 278.145,259.324 273.978,256.991 270.5,253.5C 273.747,249.341 276.747,245.008 279.5,240.5C 278.606,240.483 277.606,240.149 276.5,239.5 Z"/></g>
<g><path style="opacity:1" fill="#c8cc9c" d="M 248.5,239.5 C 251.335,242.165 254.335,244.665 257.5,247C 251.086,248.702 248.086,246.202 248.5,239.5 Z"/></g>
<g><path style="opacity:1" fill="#e5e7eb" d="M 230.5,263.5 C 229.489,261.598 229.322,259.598 230,257.5C 234.246,252.009 238.246,246.342 242,240.5C 241.809,250.138 237.976,257.804 230.5,263.5 Z"/></g>
<g><path style="opacity:1" fill="#7d7d7d" d="M 209.5,251.5 C 208.833,251.5 208.5,251.167 208.5,250.5C 209.466,246.828 210.966,246.828 213,250.5C 214.039,246.45 216.539,244.283 220.5,244C 220.997,249.854 218.83,254.687 214,258.5C 213.484,255.453 211.984,253.12 209.5,251.5 Z"/></g>
<g><path style="opacity:1" fill="#0d30ff" d="M 172.5,247.5 C 177.089,248.58 180.756,251.08 183.5,255C 182.975,255.692 182.308,256.192 181.5,256.5C 176.806,255.024 173.806,252.024 172.5,247.5 Z"/></g>
<g><path style="opacity:1" fill="#5b74ff" d="M 208.5,250.5 C 208.5,251.167 208.833,251.5 209.5,251.5C 207.492,255.772 204.992,259.772 202,263.5C 203.313,258.504 204.979,253.504 207,248.5C 207.278,249.416 207.778,250.082 208.5,250.5 Z"/></g>
<g><path style="opacity:1" fill="#0d30ff" d="M 248.5,248.5 C 253.397,252.89 258.73,256.723 264.5,260C 259.294,259.713 254.294,258.38 249.5,256C 248.565,253.619 248.232,251.119 248.5,248.5 Z"/></g>
<g><path style="opacity:1" fill="#3f271b" d="M 221.5,257.5 C 221.737,258.791 221.404,259.791 220.5,260.5C 217.482,260.665 214.482,260.498 211.5,260C 216.47,259.263 219.637,256.429 221,251.5C 221.495,253.473 221.662,255.473 221.5,257.5 Z"/></g>
<g><path style="opacity:1" fill="#0d30ff" d="M 267.5,253.5 C 271.418,257.294 276.084,259.794 281.5,261C 278.868,261.449 276.368,262.283 274,263.5C 272.441,262.971 270.941,262.304 269.5,261.5C 266.891,258.856 263.891,256.689 260.5,255C 263.036,254.814 265.369,254.314 267.5,253.5 Z"/></g>
<g><path style="opacity:1" fill="#7d7d7d" d="M 226.5,255.5 C 229.316,259.592 229.149,263.592 226,267.5C 223.619,268.435 221.119,268.768 218.5,268.5C 218.517,266.435 218.85,264.435 219.5,262.5C 220.338,262.158 220.672,261.492 220.5,260.5C 221.404,259.791 221.737,258.791 221.5,257.5C 222.779,256.032 224.446,255.365 226.5,255.5 Z"/></g>
<g><path style="opacity:1" fill="#f0b48e" d="M 219.5,262.5 C 213.876,263.523 208.542,265.357 203.5,268C 208.155,268.499 212.821,268.666 217.5,268.5C 217.5,269.5 217.5,270.5 217.5,271.5C 218.141,272.482 218.807,273.482 219.5,274.5C 218.807,275.518 218.141,276.518 217.5,277.5C 217.5,278.5 217.5,279.5 217.5,280.5C 214.941,280.198 212.607,280.532 210.5,281.5C 208.265,281.205 206.265,281.539 204.5,282.5C 203.167,282.5 201.833,282.5 200.5,282.5C 198.735,281.539 196.735,281.205 194.5,281.5C 194.334,277.486 194.501,273.486 195,269.5C 197.583,267.302 200.416,265.469 203.5,264C 204.5,262.333 205.5,260.667 206.5,259C 208.074,258.301 209.407,258.635 210.5,260C 208.999,261.252 207.332,262.252 205.5,263C 206,263.167 206.5,263.333 207,263.5C 211.171,261.421 215.337,261.088 219.5,262.5 Z"/></g>
<g><path style="opacity:1" fill="#0d30ff" d="M 240.5,280.5 C 238.582,275.657 235.916,271.323 232.5,267.5C 233.809,264.222 235.642,261.222 238,258.5C 238.133,261.525 239.133,264.192 241,266.5C 241.815,271.352 241.648,276.019 240.5,280.5 Z"/></g>
<g><path style="opacity:1" fill="#580f10" d="M 230.5,263.5 C 230.66,265.153 231.326,266.486 232.5,267.5C 235.916,271.323 238.582,275.657 240.5,280.5C 240.539,281.583 240.873,282.583 241.5,283.5C 240.575,284.562 239.575,284.562 238.5,283.5C 234.414,278.335 231.08,272.668 228.5,266.5C 228.427,264.973 229.094,263.973 230.5,263.5 Z"/></g>
<g><path style="opacity:1" fill="#fefffe" d="M 188.5,271.5 C 186.143,271.663 183.81,271.497 181.5,271C 185.268,266.793 189.934,265.46 195.5,267C 193.673,269.418 191.34,270.918 188.5,271.5 Z"/></g>
<g><path style="opacity:1" fill="#e5e7eb" d="M 228.5,266.5 C 231.08,272.668 234.414,278.335 238.5,283.5C 237.496,284.683 236.662,286.016 236,287.5C 232.298,280.792 227.465,274.959 221.5,270C 224.637,270.108 226.97,268.941 228.5,266.5 Z"/></g>
<g><path style="opacity:1" fill="#e5e7eb" d="M 217.5,277.5 C 218.141,276.518 218.807,275.518 219.5,274.5C 218.807,273.482 218.141,272.482 217.5,271.5C 218.222,271.082 218.722,270.416 219,269.5C 220.122,271.624 221.622,273.457 223.5,275C 221.831,277.356 219.831,278.189 217.5,277.5 Z"/></g>
<g><path style="opacity:1" fill="#5063d8" d="M 188.5,271.5 C 189.167,272.5 189.833,273.5 190.5,274.5C 191.167,274.5 191.833,274.5 192.5,274.5C 193.404,275.209 193.737,276.209 193.5,277.5C 190.287,277.19 187.287,277.523 184.5,278.5C 180.833,278.5 177.167,278.5 173.5,278.5C 172.167,276.833 172.167,275.167 173.5,273.5C 174.167,274.5 174.833,275.5 175.5,276.5C 176.167,276.5 176.833,276.5 177.5,276.5C 178.341,275.074 179.341,273.74 180.5,272.5C 181.9,273.1 182.9,274.1 183.5,275.5C 184.167,275.5 184.833,275.5 185.5,275.5C 186.341,274.074 187.341,272.74 188.5,271.5 Z"/></g>
<g><path style="opacity:1" fill="#fec90d" d="M 192.5,274.5 C 191.833,274.5 191.167,274.5 190.5,274.5C 191.167,270.5 191.833,270.5 192.5,274.5 Z"/></g>
<g><path style="opacity:1" fill="#000000" d="M 173.5,273.5 C 175.607,272.532 177.941,272.198 180.5,272.5C 179.341,273.74 178.341,275.074 177.5,276.5C 176.833,272.5 176.167,272.5 175.5,276.5C 174.833,275.5 174.167,274.5 173.5,273.5 Z"/></g>
<g><path style="opacity:1" fill="#fec90d" d="M 185.5,275.5 C 184.833,275.5 184.167,275.5 183.5,275.5C 184.167,271.5 184.833,271.5 185.5,275.5 Z"/></g>
<g><path style="opacity:1" fill="#fec90d" d="M 177.5,276.5 C 176.833,276.5 176.167,276.5 175.5,276.5C 176.167,272.5 176.833,272.5 177.5,276.5 Z"/></g>
<g><path style="opacity:1" fill="#576ff3" d="M 227.5,299.5 C 225.585,299.216 223.919,299.549 222.5,300.5C 219.752,300.598 219.086,299.598 220.5,297.5C 221.833,296.5 221.833,295.5 220.5,294.5C 219.89,293.609 219.557,292.609 219.5,291.5C 220.492,291.672 221.158,291.338 221.5,290.5C 222.833,289.5 222.833,288.5 221.5,287.5C 220.167,286.167 220.167,284.833 221.5,283.5C 222.833,282.5 222.833,281.5 221.5,280.5C 222.458,279.038 223.624,277.705 225,276.5C 228.909,280.647 232.076,285.314 234.5,290.5C 232.297,292.295 231.131,294.629 231,297.5C 229.698,298.085 228.531,298.751 227.5,299.5 Z"/></g>
<g><path style="opacity:1" fill="#000000" d="M 173.5,278.5 C 177.167,278.5 180.833,278.5 184.5,278.5C 183.081,279.451 181.415,279.784 179.5,279.5C 179.5,280.833 179.5,282.167 179.5,283.5C 178.566,282.432 178.232,281.099 178.5,279.5C 176.585,279.784 174.919,279.451 173.5,278.5 Z"/></g>
<g><path style="opacity:1" fill="#e4e5d7" d="M 184.5,278.5 C 187.5,278.5 190.5,278.5 193.5,278.5C 193.912,282.654 194.912,286.654 196.5,290.5C 191.709,290.792 187.042,290.792 182.5,290.5C 180.707,288.574 179.707,286.241 179.5,283.5C 179.5,282.167 179.5,280.833 179.5,279.5C 181.415,279.784 183.081,279.451 184.5,278.5 Z"/></g>
<g><path style="opacity:1" fill="#fefffe" d="M 221.5,280.5 C 222.833,281.5 222.833,282.5 221.5,283.5C 220.833,283.167 220.167,282.833 219.5,282.5C 219.833,281.5 220.5,280.833 221.5,280.5 Z"/></g>
<g><path style="opacity:1" fill="#e5e7eb" d="M 210.5,281.5 C 212.199,281.34 213.866,281.506 215.5,282C 213.759,283.62 211.925,285.12 210,286.5C 209.36,284.735 209.527,283.068 210.5,281.5 Z"/></g>
<g><path style="opacity:1" fill="#c8cc9c" d="M 200.5,282.5 C 199.449,290.951 197.783,291.284 195.5,283.5C 197.045,282.548 198.712,282.215 200.5,282.5 Z"/></g>
<g><path style="opacity:1" fill="#40281b" d="M 204.5,282.5 C 205.5,282.5 206.5,282.5 207.5,282.5C 207.733,287.034 206.9,291.368 205,295.5C 202.328,302.178 199.161,308.511 195.5,314.5C 184.316,309.721 182.649,302.721 190.5,293.5C 197.402,293.571 201.069,290.238 201.5,283.5C 202.791,283.737 203.791,283.404 204.5,282.5 Z"/></g>
<g><path style="opacity:1" fill="#000000" d="M 219.5,282.5 C 220.167,282.833 220.833,283.167 221.5,283.5C 220.167,284.833 220.167,286.167 221.5,287.5C 220.833,287.833 220.167,288.167 219.5,288.5C 219.5,286.5 219.5,284.5 219.5,282.5 Z"/></g>
<g><path style="opacity:1" fill="#5b74ff" d="M 217.5,290.5 C 216.518,293.962 216.185,297.629 216.5,301.5C 212.486,301.666 208.486,301.499 204.5,301C 206.58,297.763 208.08,294.263 209,290.5C 211.479,287.931 214.146,285.598 217,283.5C 217.497,285.81 217.663,288.143 217.5,290.5 Z"/></g>
<g><path style="opacity:1" fill="#00a1e8" d="M 241.5,309.5 C 242.154,306.506 242.821,303.506 243.5,300.5C 242.973,295.918 241.639,291.585 239.5,287.5C 239.833,286.833 240.167,286.167 240.5,285.5C 242.138,288.304 243.971,290.971 246,293.5C 246.635,298.947 246.135,304.28 244.5,309.5C 243.5,309.5 242.5,309.5 241.5,309.5 Z"/></g>
<g><path style="opacity:1" fill="#00a1e8" d="M 237.5,286.5 C 238.941,290.068 240.441,293.734 242,297.5C 242.851,300.053 242.518,302.386 241,304.5C 238.451,301.235 236.284,297.735 234.5,294C 235.651,291.535 236.651,289.035 237.5,286.5 Z"/></g>
<g><path style="opacity:1" fill="#fefffe" d="M 221.5,287.5 C 222.833,288.5 222.833,289.5 221.5,290.5C 220.833,290.167 220.167,289.833 219.5,289.5C 219.5,289.167 219.5,288.833 219.5,288.5C 220.167,288.167 220.833,287.833 221.5,287.5 Z"/></g>
<g><path style="opacity:1" fill="#e5e7eb" d="M 219.5,289.5 C 219.5,290.167 219.5,290.833 219.5,291.5C 218.566,292.568 218.232,293.901 218.5,295.5C 217.549,294.081 217.216,292.415 217.5,290.5C 218.167,290.167 218.833,289.833 219.5,289.5 Z"/></g>
<g><path style="opacity:1" fill="#000000" d="M 219.5,289.5 C 220.167,289.833 220.833,290.167 221.5,290.5C 221.158,291.338 220.492,291.672 219.5,291.5C 219.5,290.833 219.5,290.167 219.5,289.5 Z"/></g>
<g><path style="opacity:1" fill="#000000" d="M 217.5,290.5 C 217.216,292.415 217.549,294.081 218.5,295.5C 218.5,295.833 218.5,296.167 218.5,296.5C 217.833,298.167 217.167,299.833 216.5,301.5C 216.185,297.629 216.518,293.962 217.5,290.5 Z"/></g>
<g><path style="opacity:1" fill="#000000" d="M 219.5,291.5 C 219.557,292.609 219.89,293.609 220.5,294.5C 219.833,294.833 219.167,295.167 218.5,295.5C 218.232,293.901 218.566,292.568 219.5,291.5 Z"/></g>
<g><path style="opacity:1" fill="#13131d" d="M 183.5,309.5 C 183.12,315.328 181.953,320.994 180,326.5C 179.292,327.381 178.458,328.047 177.5,328.5C 174.428,328.817 171.428,328.484 168.5,327.5C 171.086,326.52 173.753,326.187 176.5,326.5C 177.624,321.547 178.624,316.547 179.5,311.5C 179.695,309.275 178.861,307.609 177,306.5C 173.29,308.544 170.624,311.544 169,315.5C 167.349,322.057 166.349,328.724 166,335.5C 163.167,334 161,331.833 159.5,329C 157.423,328.808 155.423,328.308 153.5,327.5C 152.191,323.693 149.524,321.526 145.5,321C 143.703,319.406 142.703,317.406 142.5,315C 143.292,309.415 144.458,303.915 146,298.5C 147.346,295.821 149.346,293.821 152,292.5C 161.008,295.921 169.842,299.754 178.5,304C 180.766,305.426 182.432,307.26 183.5,309.5 Z"/></g>
<g><path style="opacity:1" fill="#e5e7eb" d="M 185.5,292.5 C 186.675,292.281 187.675,292.614 188.5,293.5C 185.75,296.742 183.75,300.409 182.5,304.5C 180.507,302.501 178.173,301.001 175.5,300C 178.756,297.223 182.089,294.723 185.5,292.5 Z"/></g>
<g><path style="opacity:1" fill="#0d30ff" d="M 170.5,293.5 C 180.983,292.324 181.817,293.991 173,298.5C 170.167,297.333 167.333,296.167 164.5,295C 166.708,294.809 168.708,294.309 170.5,293.5 Z"/></g>
<g><path style="opacity:1" fill="#fefffe" d="M 220.5,294.5 C 221.833,295.5 221.833,296.5 220.5,297.5C 219.833,297.167 219.167,296.833 218.5,296.5C 218.5,296.167 218.5,295.833 218.5,295.5C 219.167,295.167 219.833,294.833 220.5,294.5 Z"/></g>
<g><path style="opacity:1" fill="#a48d20" d="M 241.5,309.5 C 243.935,311.541 244.102,313.874 242,316.5C 241.333,317.833 240.667,317.833 240,316.5C 237.551,310.437 234.718,304.603 231.5,299C 232.227,297.601 232.727,296.101 233,294.5C 235.893,299.637 238.727,304.637 241.5,309.5 Z"/></g>
<g><path style="opacity:1" fill="#cbccd1" d="M 218.5,296.5 C 218.5,298.167 218.5,299.833 218.5,301.5C 220.099,301.768 221.432,301.434 222.5,300.5C 223.919,299.549 225.585,299.216 227.5,299.5C 230.925,299.367 231.258,300.033 228.5,301.5C 225.572,301.565 222.905,302.232 220.5,303.5C 214.824,303.666 209.157,303.499 203.5,303C 208.019,302.825 212.353,302.325 216.5,301.5C 217.167,299.833 217.833,298.167 218.5,296.5 Z"/></g>
<g><path style="opacity:1" fill="#000000" d="M 218.5,296.5 C 219.167,296.833 219.833,297.167 220.5,297.5C 219.086,299.598 219.752,300.598 222.5,300.5C 221.432,301.434 220.099,301.768 218.5,301.5C 218.5,299.833 218.5,298.167 218.5,296.5 Z"/></g>
<g><path style="opacity:1" fill="#69699a" d="M 228.5,301.5 C 229.978,301.238 231.311,301.571 232.5,302.5C 234.116,307.733 236.283,312.733 239,317.5C 239.333,320.167 239.667,322.833 240,325.5C 243.172,329.841 245.839,334.508 248,339.5C 251.536,350.44 254.869,361.44 258,372.5C 257.988,389.669 257.488,406.836 256.5,424C 256.311,428.176 256.978,432.176 258.5,436C 256.651,440.195 253.484,442.362 249,442.5C 243.909,442.65 239.576,440.984 236,437.5C 235.882,416.478 236.215,395.478 237,374.5C 231.241,368.738 224.908,363.738 218,359.5C 216.373,356.643 215.207,353.643 214.5,350.5C 222.507,356.174 231.173,360.84 240.5,364.5C 240.833,364.167 241.167,363.833 241.5,363.5C 233.006,358.412 225.006,352.579 217.5,346C 219.101,345.727 220.601,345.227 222,344.5C 226.894,347.352 232.061,349.185 237.5,350C 231.566,347.543 225.733,344.709 220,341.5C 219.833,341.167 219.667,340.833 219.5,340.5C 222.785,339.676 226.118,339.176 229.5,339C 225.167,338.667 220.833,338.333 216.5,338C 215.953,337.075 215.287,336.242 214.5,335.5C 213.549,336.326 212.549,336.492 211.5,336C 216.96,328.206 223.46,321.373 231,315.5C 231.667,314.833 231.667,314.167 231,313.5C 224.374,318.457 218.04,323.791 212,329.5C 209.275,334.055 206.775,338.722 204.5,343.5C 202.39,347.648 200.557,351.981 199,356.5C 196.493,368.195 193.826,379.862 191,391.5C 189.391,395.71 187.558,399.71 185.5,403.5C 175.353,405.405 165.687,408.738 156.5,413.5C 157.042,405.046 159.875,397.379 165,390.5C 166.784,380.192 166.951,369.859 165.5,359.5C 166.647,349.514 167.647,339.514 168.5,329.5C 171.713,329.81 174.713,329.477 177.5,328.5C 178.458,328.047 179.292,327.381 180,326.5C 181.953,320.994 183.12,315.328 183.5,309.5C 187.933,312.084 192.266,314.918 196.5,318C 201.188,319.325 203.688,317.491 204,312.5C 204.497,309.854 204.664,307.187 204.5,304.5C 207.5,304.5 210.5,304.5 213.5,304.5C 212.746,309.9 211.913,315.234 211,320.5C 213.313,315.4 214.48,310.067 214.5,304.5C 216.735,304.795 218.735,304.461 220.5,303.5C 222.905,302.232 225.572,301.565 228.5,301.5 Z"/></g>
<g><path style="opacity:1" fill="#6a6b9c" d="M 202.5,305.5 C 203.775,309.22 203.275,312.887 201,316.5C 199.817,317.731 198.651,317.731 197.5,316.5C 199.984,313.199 201.651,309.533 202.5,305.5 Z"/></g>
<g><path style="opacity:1" fill="#000000" d="M 228.5,306.5 C 229.525,306.897 229.692,307.563 229,308.5C 222.301,314.864 215.968,321.531 210,328.5C 205.727,336.712 201.727,345.045 198,353.5C 200.517,344.453 204.183,335.786 209,327.5C 215.338,320.329 221.838,313.329 228.5,306.5 Z"/></g>
<g><path style="opacity:1" fill="#1f202f" d="M 176.5,308.5 C 177.88,308.962 178.547,309.962 178.5,311.5C 177.491,316.186 176.491,320.853 175.5,325.5C 173.5,325.5 171.5,325.5 169.5,325.5C 169.366,318.773 171.7,313.106 176.5,308.5 Z"/></g>
<g><path style="opacity:1" fill="#4e4f77" d="M 214.5,350.5 C 212.587,345.582 209.254,343.248 204.5,343.5C 206.775,338.722 209.275,334.055 212,329.5C 218.04,323.791 224.374,318.457 231,313.5C 231.667,314.167 231.667,314.833 231,315.5C 223.46,321.373 216.96,328.206 211.5,336C 212.549,336.492 213.549,336.326 214.5,335.5C 215.287,336.242 215.953,337.075 216.5,338C 220.833,338.333 225.167,338.667 229.5,339C 226.118,339.176 222.785,339.676 219.5,340.5C 219.667,340.833 219.833,341.167 220,341.5C 225.733,344.709 231.566,347.543 237.5,350C 232.061,349.185 226.894,347.352 222,344.5C 220.601,345.227 219.101,345.727 217.5,346C 225.006,352.579 233.006,358.412 241.5,363.5C 241.167,363.833 240.833,364.167 240.5,364.5C 231.173,360.84 222.507,356.174 214.5,350.5 Z"/></g>
<g><path style="opacity:1" fill="#6a6a9b" d="M 219.5,362.5 C 225.412,366.238 230.912,370.571 236,375.5C 235.036,395.125 234.369,414.792 234,434.5C 233.902,436.619 233.069,438.286 231.5,439.5C 231.167,439.333 230.833,439.167 230.5,439C 232.84,434.123 233.84,428.956 233.5,423.5C 232.815,408.841 232.315,394.174 232,379.5C 231.529,377.754 230.862,376.087 230,374.5C 225.896,370.905 222.396,366.905 219.5,362.5 Z"/></g>
<g><path style="opacity:1" fill="#4e4f77" d="M 246.5,394.5 C 247.656,402.721 247.323,411.054 245.5,419.5C 246.449,424.806 247.115,430.139 247.5,435.5C 240.278,436.576 236.945,433.576 237.5,426.5C 237.821,420.755 238.654,415.088 240,409.5C 242.179,404.479 244.346,399.479 246.5,394.5 Z"/></g>
<g><path style="opacity:1" fill="#4e4f77" d="M 185.5,403.5 C 182.691,408.445 179.857,413.445 177,418.5C 176.43,423.911 174.93,428.911 172.5,433.5C 170.473,433.662 168.473,433.495 166.5,433C 162.299,429.964 158.633,426.464 155.5,422.5C 156.407,419.579 156.74,416.579 156.5,413.5C 165.687,408.738 175.353,405.405 185.5,403.5 Z"/></g>
<g><path style="opacity:1" fill="#2d2d43" d="M 160.5,440.5 C 158.873,438.37 157.04,436.37 155,434.5C 154.333,431.5 154.333,428.5 155,425.5C 158.5,428.333 162,431.167 165.5,434C 172.295,433.492 173.629,435.492 169.5,440C 166.518,440.498 163.518,440.665 160.5,440.5 Z"/></g>
<g><path style="opacity:1" fill="#31324b" d="M 160.5,440.5 C 163.64,441.641 166.973,441.808 170.5,441C 171.126,440.25 171.626,439.416 172,438.5C 174.387,441.564 173.887,444.064 170.5,446C 161.083,449.196 155.916,446.03 155,436.5C 156.451,438.464 158.284,439.797 160.5,440.5 Z"/></g>
<g><path style="opacity:1" fill="#31324b" d="M 264.5,463.5 C 262.354,463.878 260.187,464.212 258,464.5C 250.875,463.307 243.709,462.474 236.5,462C 236,461.5 235.5,461 235,460.5C 236.357,456.044 237.523,451.377 238.5,446.5C 238.11,443.107 236.11,441.274 232.5,441C 233.333,440.167 234.167,439.333 235,438.5C 236.214,440.049 237.714,441.215 239.5,442C 244.085,443.225 248.752,443.725 253.5,443.5C 255.124,450.63 258.957,456.297 265,460.5C 265.47,461.577 265.303,462.577 264.5,463.5 Z"/></g>
<g><path style="opacity:1" fill="#1f202f" d="M 153.5,440.5 C 155.268,442.508 156.934,444.674 158.5,447C 162.833,447.667 167.167,447.667 171.5,447C 174.438,443.376 175.604,443.876 175,448.5C 167.426,455.471 160.426,454.804 154,446.5C 153.505,444.527 153.338,442.527 153.5,440.5 Z"/></g>
<g><path style="opacity:1" fill="#1f202f" d="M 264.5,463.5 C 265.496,463.586 266.329,463.252 267,462.5C 268.743,464.321 270.243,466.321 271.5,468.5C 267.446,469.914 263.28,470.914 259,471.5C 251.882,469.682 245.048,467.182 238.5,464C 245.026,463.835 251.526,464.335 258,465.5C 260.544,465.664 262.71,464.997 264.5,463.5 Z"/></g>
</svg>
