<?xml version="1.0" encoding="UTF-8"?>
<!DOCTYPE svg PUBLIC "-//W3C//DTD SVG 1.1//EN" "http://www.w3.org/Graphics/SVG/1.1/DTD/svg11.dtd">
<svg xmlns="http://www.w3.org/2000/svg" version="1.1" width="386px" height="400px" style="shape-rendering:geometricPrecision; text-rendering:geometricPrecision; image-rendering:optimizeQuality; fill-rule:evenodd; clip-rule:evenodd" xmlns:xlink="http://www.w3.org/1999/xlink">
<g><path style="opacity:1" fill="#fefffe" d="M 191.5,13.5 C 197.842,13.3338 204.175,13.5005 210.5,14C 211.641,17.3571 213.141,20.5237 215,23.5C 216.079,26.0627 216.579,28.7294 216.5,31.5C 225.651,32.1167 234.651,33.6167 243.5,36C 244.641,41.7504 244.807,47.5837 244,53.5C 243.167,55.1667 242.333,56.8333 241.5,58.5C 245.122,59.3253 248.789,59.8253 252.5,60C 254.155,61.4443 254.822,63.2776 254.5,65.5C 271.249,63.9187 278.583,71.5854 276.5,88.5C 276.646,93.8194 275.979,98.9861 274.5,104C 281.525,115.699 289.359,126.866 298,137.5C 299.275,139.717 300.275,142.051 301,144.5C 301.98,153.943 301.48,163.277 299.5,172.5C 303.517,181.038 305.517,190.038 305.5,199.5C 308.079,200.706 310.579,202.039 313,203.5C 313.667,211.833 313.667,220.167 313,228.5C 312.028,230.305 310.861,231.972 309.5,233.5C 319.382,239.695 329.215,246.028 339,252.5C 339.799,257.087 339.632,261.587 338.5,266C 329.459,266.765 320.459,266.431 311.5,265C 307.616,264.059 303.949,262.559 300.5,260.5C 300.167,261.333 299.833,262.167 299.5,263C 306.559,278.063 311.059,293.896 313,310.5C 314.104,319.221 315.271,327.887 316.5,336.5C 316.15,342.845 315.65,349.178 315,355.5C 310.468,357.18 305.968,359.013 301.5,361C 290.506,361.748 279.673,360.914 269,358.5C 268.333,353.5 268.333,348.5 269,343.5C 271.879,340.957 274.379,338.123 276.5,335C 272.884,320.376 268.718,305.876 264,291.5C 256.538,275.107 249.872,258.44 244,241.5C 238.886,245.963 233.719,250.296 228.5,254.5C 231.828,260.156 234.328,266.156 236,272.5C 239.952,287.68 244.285,302.68 249,317.5C 249.667,322.5 249.667,327.5 249,332.5C 238.762,335.858 228.595,339.691 218.5,344C 211.253,344.812 204.086,344.646 197,343.5C 195.43,337.947 195.097,332.281 196,326.5C 199.833,324 203,320.833 205.5,317C 204.584,316.626 203.75,316.126 203,315.5C 202.667,311.5 202.333,307.5 202,303.5C 197.049,291.267 192.383,278.933 188,266.5C 185.607,257.307 184.94,247.974 186,238.5C 190.414,226.071 196.247,214.404 203.5,203.5C 202.626,201.253 202.292,198.92 202.5,196.5C 191.725,197.411 183.725,193.078 178.5,183.5C 168.819,181.893 160.485,177.726 153.5,171C 135.272,164.816 117.272,158.483 99.5,152C 97.981,150.649 96.6477,149.149 95.5,147.5C 82.9528,142.149 70.6194,136.316 58.5,130C 52.3883,126.221 46.5549,122.055 41,117.5C 40.5012,113.514 40.3345,109.514 40.5,105.5C 54.5407,105.741 68.2074,108.241 81.5,113C 94.6913,118.765 107.691,124.765 120.5,131C 138.935,138.872 157.935,145.705 177.5,151.5C 177.333,140.828 177.5,130.161 178,119.5C 179,117.167 180,114.833 181,112.5C 183.167,111 185.333,109.5 187.5,108C 186.521,101.256 186.188,94.4222 186.5,87.5C 184.856,87.7135 183.356,87.3802 182,86.5C 181.333,81.8333 181.333,77.1667 182,72.5C 183.351,70.981 184.851,69.6477 186.5,68.5C 187.273,66.187 187.94,63.8537 188.5,61.5C 187.051,54.3294 185.717,47.1627 184.5,40C 184.667,37.5 184.833,35 185,32.5C 185.667,31.8333 186.333,31.1667 187,30.5C 187.333,26.1667 187.667,21.8333 188,17.5C 188.69,15.6498 189.856,14.3164 191.5,13.5 Z"/></g>
<g><path style="opacity:1" fill="#000000" d="M 194.5,16.5 C 198.846,16.3343 203.179,16.501 207.5,17C 208.641,20.3571 210.141,23.5237 212,26.5C 213.079,29.0627 213.579,31.7294 213.5,34.5C 222.651,35.1167 231.651,36.6167 240.5,39C 241.626,42.7436 241.793,46.577 241,50.5C 237.214,56.71 235.214,63.3767 235,70.5C 235.923,67.8778 237.089,65.3778 238.5,63C 242.167,62.3333 245.833,62.3333 249.5,63C 251.155,64.4443 251.822,66.2776 251.5,68.5C 266.77,66.4363 274.103,73.1029 273.5,88.5C 273.425,92.5553 272.925,96.5553 272,100.5C 271.167,101.333 270.333,102.167 269.5,103C 276.13,115.301 283.964,126.801 293,137.5C 298.212,145.4 299.879,154.067 298,163.5C 297.543,166.796 296.709,169.963 295.5,173C 299.61,180.324 301.443,188.157 301,196.5C 299.509,198.004 297.676,198.837 295.5,199C 300.412,201.372 305.245,203.872 310,206.5C 310.667,212.833 310.667,219.167 310,225.5C 308.328,228.967 305.828,231.3 302.5,232.5C 302.561,234.592 303.561,236.092 305.5,237C 315.331,242.414 324.998,248.081 334.5,254C 336.703,256.76 337.036,259.76 335.5,263C 319.953,265.156 306.12,261.323 294,251.5C 295.236,257.024 296.236,262.691 297,268.5C 302.823,279.121 306.49,290.454 308,302.5C 310.163,313.823 311.996,325.156 313.5,336.5C 312.97,341.83 312.47,347.164 312,352.5C 306.125,355.403 299.959,357.403 293.5,358.5C 286.278,357.545 279.112,356.545 272,355.5C 270.027,349.214 271.861,344.547 277.5,341.5C 278.498,339.51 279.498,337.51 280.5,335.5C 276.511,319.697 272.011,304.03 267,288.5C 259.016,270.883 252.016,252.883 246,234.5C 240.287,239.937 234.12,244.77 227.5,249C 225.643,250.182 224.643,251.849 224.5,254C 227.741,260.986 230.575,268.153 233,275.5C 236.952,290.68 241.285,305.68 246,320.5C 246.667,323.5 246.667,326.5 246,329.5C 235.762,332.858 225.595,336.691 215.5,341C 210.5,341.667 205.5,341.667 200.5,341C 198.544,337.405 198.044,333.572 199,329.5C 205.003,325.829 209.169,320.662 211.5,314C 209.567,313.749 207.734,313.249 206,312.5C 205.667,308.5 205.333,304.5 205,300.5C 197.776,283.662 192.276,266.329 188.5,248.5C 191.491,234.178 196.991,220.845 205,208.5C 206.5,207 208,205.5 209.5,204C 206.13,201.303 204.796,197.803 205.5,193.5C 194.725,194.411 186.725,190.078 181.5,180.5C 171.819,178.893 163.485,174.726 156.5,168C 138.272,161.816 120.272,155.483 102.5,149C 100.981,147.649 99.6477,146.149 98.5,144.5C 80.6194,137.227 63.6194,128.394 47.5,118C 44.038,115.761 42.7046,112.594 43.5,108.5C 55.4403,109.567 67.107,112.067 78.5,116C 91.6913,121.765 104.691,127.765 117.5,134C 122.087,133.796 125.754,135.462 128.5,139C 145.836,144.778 163.002,150.945 180,157.5C 180.333,145.833 180.667,134.167 181,122.5C 182.748,116.02 186.915,111.853 193.5,110C 191.959,108.421 190.792,106.587 190,104.5C 189.333,98.8333 189.333,93.1667 190,87.5C 190.374,86.5838 190.874,85.7504 191.5,85C 189.5,84.6667 187.5,84.3333 185.5,84C 183.267,78.6491 184.601,74.4824 189.5,71.5C 191.847,64.244 192.014,56.9106 190,49.5C 186.193,42.7962 186.693,36.6296 191.5,31C 190.545,27.5286 190.378,24.0286 191,20.5C 191.69,18.6498 192.856,17.3164 194.5,16.5 Z"/></g>
<g><path style="opacity:1" fill="#fef200" d="M 198.5,21.5 C 206.444,22.6554 206.444,24.3221 198.5,26.5C 195.839,24.8277 195.839,23.1611 198.5,21.5 Z"/></g>
<g><path style="opacity:1" fill="#fef200" d="M 200.5,26.5 C 202.736,27.3891 204.736,28.7224 206.5,30.5C 208.222,36.5683 205.888,38.735 199.5,37C 195.786,33.2135 196.119,29.7135 200.5,26.5 Z"/></g>
<g><path style="opacity:1" fill="#222840" d="M 195.5,39.5 C 195.917,38.8761 196.584,38.5427 197.5,38.5C 208.989,39.0193 220.323,40.5193 231.5,43C 219.164,45.5577 207.164,44.3911 195.5,39.5 Z"/></g>
<g><path style="opacity:1" fill="#1a1e2f" d="M 193.5,40.5 C 199.007,42.4606 204.674,43.9606 210.5,45C 219.262,45.368 227.929,45.5347 236.5,45.5C 235.471,48.9298 233.138,50.2632 229.5,49.5C 218.339,49.1418 207.339,47.6418 196.5,45C 194.624,44.0816 193.624,42.5816 193.5,40.5 Z"/></g>
<g><path style="opacity:1" fill="#232942" d="M 200.5,71.5 C 201.833,69.5 201.833,67.5 200.5,65.5C 199.817,63.8235 198.483,63.1568 196.5,63.5C 195.968,57.8477 195.635,52.181 195.5,46.5C 208.105,48.5726 220.772,50.2393 233.5,51.5C 231.131,56.8167 229.464,62.3167 228.5,68C 222.065,69.9627 215.399,70.9627 208.5,71C 212.152,71.4986 215.818,71.6653 219.5,71.5C 219.178,73.7224 219.845,75.5557 221.5,77C 218.391,77.644 215.557,78.8107 213,80.5C 212.516,75.0142 209.683,73.1808 204.5,75C 203.874,75.7504 203.374,76.5838 203,77.5C 202.062,75.5115 201.228,73.5115 200.5,71.5 Z"/></g>
<g><path style="opacity:1" fill="#e2b214" d="M 200.5,65.5 C 201.833,67.5 201.833,69.5 200.5,71.5C 199.262,72.4124 197.928,72.5791 196.5,72C 197.167,71.6667 197.833,71.3333 198.5,71C 197.027,70.2904 196.36,69.1238 196.5,67.5C 200.311,67.4042 200.311,66.7376 196.5,65.5C 197.808,64.3744 199.142,64.3744 200.5,65.5 Z"/></g>
<g><path style="opacity:1" fill="#a9a200" d="M 242.5,67.5 C 247.218,68.3189 247.552,69.9855 243.5,72.5C 241.296,71.218 240.962,69.5514 242.5,67.5 Z"/></g>
<g><path style="opacity:1" fill="#a9a200" d="M 223.5,70.5 C 226.022,70.1281 228.022,70.9614 229.5,73C 226.941,77.2607 224.275,77.4274 221.5,73.5C 222.193,72.4822 222.859,71.4822 223.5,70.5 Z"/></g>
<g><path style="opacity:1" fill="#a9a200" d="M 245.5,73.5 C 245.56,72.9569 245.893,72.6236 246.5,72.5C 252.566,79.4864 255.566,87.4864 255.5,96.5C 253.517,92.3873 252.017,88.054 251,83.5C 249.392,79.9439 247.559,76.6106 245.5,73.5 Z"/></g>
<g><path style="opacity:1" fill="#fec90d" d="M 197.5,73.5 C 199.973,73.9473 200.14,74.9473 198,76.5C 197.517,75.552 197.351,74.552 197.5,73.5 Z"/></g>
<g><path style="opacity:1" fill="#7e7f7e" d="M 250.5,74.5 C 261.823,71.8632 267.823,76.5299 268.5,88.5C 268.308,91.9982 267.308,95.1648 265.5,98C 263.182,98.3423 261.015,97.8423 259,96.5C 257.333,90.5 255.667,84.5 254,78.5C 253.051,76.9069 251.885,75.5736 250.5,74.5 Z"/></g>
<g><path style="opacity:1" fill="#7e7f7e" d="M 239.5,74.5 C 241.288,74.2148 242.955,74.5481 244.5,75.5C 248.232,82.094 250.899,89.094 252.5,96.5C 249.256,98.0265 245.923,99.3598 242.5,100.5C 241.24,92.283 238.24,84.783 233.5,78C 235.223,76.2509 237.223,75.0842 239.5,74.5 Z"/></g>
<g><path style="opacity:1" fill="#a9a200" d="M 205.5,76.5 C 209.151,76.1617 210.817,77.8284 210.5,81.5C 208.5,81.8333 206.5,82.1667 204.5,82.5C 204.517,80.4352 204.85,78.4352 205.5,76.5 Z"/></g>
<g><path style="opacity:1" fill="#a9a200" d="M 227.5,76.5 C 231.858,79.3797 235.025,83.3797 237,88.5C 237.887,92.3251 238.721,96.1584 239.5,100C 238.991,101.169 238.158,102.002 237,102.5C 237.028,92.7248 233.528,84.5581 226.5,78C 227.056,77.6174 227.389,77.1174 227.5,76.5 Z"/></g>
<g><path style="opacity:1" fill="#fec90d" d="M 198.5,77.5 C 200.973,77.9473 201.14,78.9473 199,80.5C 198.517,79.552 198.351,78.552 198.5,77.5 Z"/></g>
<g><path style="opacity:1" fill="#7e7f7e" d="M 223.5,78.5 C 231.342,84.4564 235.009,92.4564 234.5,102.5C 230.126,103.344 225.793,104.344 221.5,105.5C 222.039,97.0397 219.706,89.5397 214.5,83C 214.645,82.228 214.978,81.5613 215.5,81C 218.379,80.454 221.046,79.6206 223.5,78.5 Z"/></g>
<g><path style="opacity:1" fill="#fec90d" d="M 199.5,81.5 C 201.76,82.2376 201.927,83.2376 200,84.5C 199.517,83.552 199.351,82.552 199.5,81.5 Z"/></g>
<g><path style="opacity:1" fill="#a9a200" d="M 208.5,82.5 C 213.116,84.635 216.283,88.3017 218,93.5C 218.453,96.8404 218.953,100.174 219.5,103.5C 219.523,105.067 219.023,106.4 218,107.5C 217.427,103.152 216.76,98.819 216,94.5C 213.249,90.598 210.749,86.598 208.5,82.5 Z"/></g>
<g><path style="opacity:1" fill="#7e7f7e" d="M 202.5,110.5 C 205.202,102.012 203.202,94.8452 196.5,89C 198.796,86.6006 201.629,85.1006 205,84.5C 214.039,90.7031 216.872,98.8697 213.5,109C 209.94,110.237 206.273,110.737 202.5,110.5 Z"/></g>
<g><path style="opacity:1" fill="#7e7f7e" d="M 195.5,90.5 C 198.795,93.0658 201.128,96.3992 202.5,100.5C 201.948,102.333 201.115,104 200,105.5C 196.517,103.059 195.517,100.059 197,96.5C 198.044,97.6226 198.71,98.9559 199,100.5C 200.174,96.3385 198.841,95.0052 195,96.5C 194.322,94.4024 194.489,92.4024 195.5,90.5 Z"/></g>
<g><path style="opacity:1" fill="#b87a56" d="M 253.5,98.5 C 256.545,98.3418 259.379,99.0085 262,100.5C 263.726,104.953 265.726,109.286 268,113.5C 268.451,116.869 266.951,118.369 263.5,118C 262.409,114.575 260.242,112.075 257,110.5C 252.898,113.291 252.398,116.791 255.5,121C 253.424,122.693 251.091,123.36 248.5,123C 246.696,117.92 244.696,112.92 242.5,108C 243.448,107.517 244.448,107.351 245.5,107.5C 245.5,106.167 245.5,104.833 245.5,103.5C 244.448,103.649 243.448,103.483 242.5,103C 246.307,101.572 249.974,100.072 253.5,98.5 Z"/></g>
<g><path style="opacity:1" fill="#d4ca00" d="M 234.5,103.5 C 238.064,103.151 241.398,103.817 244.5,105.5C 241.039,106.135 237.705,107.135 234.5,108.5C 232.07,106.963 232.07,105.296 234.5,103.5 Z"/></g>
<g><path style="opacity:1" fill="#7e7f7e" d="M 201.5,105.5 C 202.522,106.892 202.189,108.225 200.5,109.5C 199.713,108.758 199.047,107.925 198.5,107C 199.737,106.768 200.737,106.268 201.5,105.5 Z"/></g>
<g><path style="opacity:1" fill="#b87a56" d="M 235.5,126.5 C 233.856,126.286 232.356,126.62 231,127.5C 229.861,124.417 228.528,121.417 227,118.5C 223.474,117.168 221.641,118.501 221.5,122.5C 221.669,124.839 222.336,127.006 223.5,129C 221.623,129.576 219.789,129.409 218,128.5C 214.938,125.385 212.104,122.051 209.5,118.5C 206.257,117.985 203.424,116.652 201,114.5C 200.156,112.537 200.656,111.204 202.5,110.5C 203.514,111.765 205.014,112.431 207,112.5C 208.5,112.333 210,112.167 211.5,112C 218.019,109.327 224.686,107.16 231.5,105.5C 231.701,109.35 233.534,110.35 237,108.5C 238.735,113.871 240.568,119.204 242.5,124.5C 240.031,125.168 237.698,125.835 235.5,126.5 Z"/></g>
<g><path style="opacity:1" fill="#d4ca00" d="M 238.5,108.5 C 238.56,107.957 238.893,107.624 239.5,107.5C 242.878,113.795 245.378,120.462 247,127.5C 248.29,135.985 249.456,144.485 250.5,153C 250.612,154.662 249.946,155.829 248.5,156.5C 247.443,146.483 246.277,136.483 245,126.5C 243.496,120.145 241.329,114.145 238.5,108.5 Z"/></g>
<g><path style="opacity:1" fill="#c2c3c2" d="M 46.5,112.5 C 65.6492,115.612 83.9825,122.112 101.5,132C 99.7868,133.925 98.4535,136.092 97.5,138.5C 79.6862,131.094 62.6862,122.428 46.5,112.5 Z"/></g>
<g><path style="opacity:1" fill="#d4ca00" d="M 256.5,112.5 C 259.097,113.932 260.763,116.099 261.5,119C 260.421,119.956 259.255,120.789 258,121.5C 255.708,118.696 255.208,115.696 256.5,112.5 Z"/></g>
<g><path style="opacity:1" fill="#a9a200" d="M 235.5,126.5 C 238.397,126.125 241.063,126.625 243.5,128C 236.846,129.217 230.346,131.05 224,133.5C 216.578,132.749 211.411,128.916 208.5,122C 204.31,121.076 200.976,118.91 198.5,115.5C 199.574,114.92 200.574,115.42 201.5,117C 203.778,117.986 206.111,118.82 208.5,119.5C 211.055,123.807 214.388,127.307 218.5,130C 224.749,131.183 230.416,130.017 235.5,126.5 Z"/></g>
<g><path style="opacity:1" fill="#1d831a" d="M 195.5,115.5 C 197.475,118.306 199.975,120.639 203,122.5C 203.566,134.844 206.899,146.177 213,156.5C 209.973,154.878 206.806,153.545 203.5,152.5C 199.583,141.349 195.583,130.182 191.5,119C 192.686,117.588 194.019,116.421 195.5,115.5 Z"/></g>
<g><path style="opacity:1" fill="#a9a200" d="M 268.5,117.5 C 269.776,118.386 269.776,119.386 268.5,120.5C 262.168,124.489 255.501,126.156 248.5,125.5C 255.628,123.731 262.295,121.064 268.5,117.5 Z"/></g>
<g><path style="opacity:1" fill="#1d831a" d="M 188.5,119.5 C 189.586,119.62 190.253,120.287 190.5,121.5C 193.987,131.78 197.32,142.114 200.5,152.5C 198.943,155.273 199.443,157.607 202,159.5C 202.333,162.833 202.667,166.167 203,169.5C 204.973,172.64 207.14,175.64 209.5,178.5C 206.956,180.392 206.956,182.225 209.5,184C 203.792,189.85 198.126,189.85 192.5,184C 189.131,181.635 186.964,178.468 186,174.5C 185.333,158.5 185.333,142.5 186,126.5C 187.136,124.257 187.97,121.924 188.5,119.5 Z"/></g>
<g><path style="opacity:1" fill="#d4ca00" d="M 224.5,119.5 C 226.33,121.826 227.663,124.493 228.5,127.5C 227.758,128.287 226.925,128.953 226,129.5C 223.862,126.304 223.362,122.971 224.5,119.5 Z"/></g>
<g><path style="opacity:1" fill="#1d831a" d="M 292.5,156.5 C 289.992,146.651 284.659,138.651 276.5,132.5C 275.541,129.248 274.041,126.248 272,123.5C 271.333,122.5 271.333,121.5 272,120.5C 278.475,128.104 284.475,136.104 290,144.5C 292.656,148.257 293.49,152.257 292.5,156.5 Z"/></g>
<g><path style="opacity:1" fill="#b87a56" d="M 263.5,125.5 C 265,123.821 266.833,122.488 269,121.5C 274.095,129.131 275.761,137.464 274,146.5C 272.833,149 271,150.833 268.5,152C 263.166,153.233 257.833,154.4 252.5,155.5C 251.83,146.967 250.83,138.467 249.5,130C 249.585,128.893 249.919,127.893 250.5,127C 252.81,126.503 255.143,126.337 257.5,126.5C 257.754,130.939 258.588,135.272 260,139.5C 261.416,142.195 263.416,142.861 266,141.5C 267.705,136.653 267.538,131.82 265.5,127C 265.164,125.97 264.497,125.47 263.5,125.5 Z"/></g>
<g><path style="opacity:1" fill="#955e3e" d="M 206.5,122.5 C 207.79,123.058 208.623,124.058 209,125.5C 210.666,133.164 212.332,140.831 214,148.5C 216.055,153.888 219.555,158.054 224.5,161C 222.069,161.252 219.735,160.752 217.5,159.5C 212.594,151.014 208.76,142.014 206,132.5C 205.253,129.076 205.42,125.743 206.5,122.5 Z"/></g>
<g><path style="opacity:1" fill="#d4ca00" d="M 263.5,125.5 C 263.844,129.053 264.511,132.553 265.5,136C 265,137.5 264.5,139 264,140.5C 263.333,139.833 262.667,139.167 262,138.5C 260.956,134.27 259.789,130.103 258.5,126C 260.134,125.506 261.801,125.34 263.5,125.5 Z"/></g>
<g><path style="opacity:1" fill="#b87a56" d="M 210.5,128.5 C 214.207,132.586 218.874,134.586 224.5,134.5C 225.624,140.245 227.957,145.412 231.5,150C 234.906,151.24 236.573,150.073 236.5,146.5C 235.162,141.488 233.828,136.488 232.5,131.5C 236.002,130.083 239.669,129.416 243.5,129.5C 244.662,138.451 245.329,147.451 245.5,156.5C 239.062,157.321 232.728,158.654 226.5,160.5C 221.081,157.58 217.247,153.247 215,147.5C 213.942,141.04 212.442,134.707 210.5,128.5 Z"/></g>
<g><path style="opacity:1" fill="#114e0f" d="M 276.5,132.5 C 284.659,138.651 289.992,146.651 292.5,156.5C 292.884,161.128 292.05,165.461 290,169.5C 287.326,167.129 284.159,165.963 280.5,166C 282.47,159.328 282.97,152.495 282,145.5C 277.077,142.508 275.244,138.175 276.5,132.5 Z"/></g>
<g><path style="opacity:1" fill="#c2c3c2" d="M 101.5,133.5 C 103.665,133.116 105.332,133.783 106.5,135.5C 105.586,137.664 104.419,139.664 103,141.5C 98.8695,139.592 98.3695,136.925 101.5,133.5 Z"/></g>
<g><path style="opacity:1" fill="#d4ca00" d="M 226.5,133.5 C 228.451,133.227 229.951,133.893 231,135.5C 232.268,139.136 233.434,142.803 234.5,146.5C 233.637,148.872 232.471,148.872 231,146.5C 229.193,142.244 227.693,137.911 226.5,133.5 Z"/></g>
<g><path style="opacity:1" fill="#c2c3c2" d="M 107.5,135.5 C 109.977,135.051 111.977,135.717 113.5,137.5C 111.963,140.602 109.963,143.268 107.5,145.5C 105.734,145.566 104.734,144.732 104.5,143C 105.651,140.535 106.651,138.035 107.5,135.5 Z"/></g>
<g><path style="opacity:1" fill="#000000" d="M 192.5,135.5 C 193.331,149.994 193.831,164.661 194,179.5C 197.81,182.804 202.31,184.304 207.5,184C 201.355,185.588 196.189,184.088 192,179.5C 191.185,164.759 191.351,150.092 192.5,135.5 Z"/></g>
<g><path style="opacity:1" fill="#c2c3c2" d="M 119.5,147.5 C 119.631,148.376 119.298,149.043 118.5,149.5C 109.773,147.99 108.606,144.324 115,138.5C 116.458,139.747 117.958,139.747 119.5,138.5C 120.308,138.808 120.975,139.308 121.5,140C 119.22,142.297 118.554,144.797 119.5,147.5 Z"/></g>
<g><path style="opacity:1" fill="#c2c3c2" d="M 161.5,157.5 C 148.039,152.625 134.706,147.458 121.5,142C 134.491,146.165 147.491,150.665 160.5,155.5C 161.298,155.957 161.631,156.624 161.5,157.5 Z"/></g>
<g><path style="opacity:1" fill="#1d831a" d="M 276.5,142.5 C 280.907,144.81 282.574,148.477 281.5,153.5C 281.472,157.236 280.972,160.903 280,164.5C 278.164,166.604 275.998,166.938 273.5,165.5C 274.812,160.636 274.812,155.803 273.5,151C 275.93,148.695 276.93,145.862 276.5,142.5 Z"/></g>
<g><path style="opacity:1" fill="#73552b" d="M 160.5,161.5 C 159.844,162.278 159.011,162.944 158,163.5C 146.167,159.333 134.333,155.167 122.5,151C 121.186,150.015 120.186,148.848 119.5,147.5C 119.415,146.005 120.081,145.005 121.5,144.5C 133.461,149.098 145.461,153.598 157.5,158C 159.426,158.422 160.426,159.589 160.5,161.5 Z"/></g>
<g><path style="opacity:1" fill="#d4ca00" d="M 268.5,153.5 C 270.842,153.775 270.842,154.608 268.5,156C 267.365,156.749 266.365,156.583 265.5,155.5C 266.602,154.824 267.602,154.158 268.5,153.5 Z"/></g>
<g><path style="opacity:1" fill="#fef200" d="M 201.5,154.5 C 206.812,155.43 211.479,157.597 215.5,161C 209.142,162.102 204.475,159.935 201.5,154.5 Z"/></g>
<g><path style="opacity:1" fill="#114e0f" d="M 260.5,155.5 C 262.484,155.383 264.15,156.05 265.5,157.5C 266.531,160.7 268.198,163.533 270.5,166C 269.167,166.667 267.833,166.667 266.5,166C 263.5,163 260.5,160 257.5,157C 258.737,156.768 259.737,156.268 260.5,155.5 Z"/></g>
<g><path style="opacity:1" fill="#c2c3c2" d="M 160.5,161.5 C 161.434,160.432 161.768,159.099 161.5,157.5C 162.708,156.766 164.041,156.433 165.5,156.5C 164.491,159.049 163.658,161.715 163,164.5C 162.333,165.833 161.667,165.833 161,164.5C 160.517,163.552 160.351,162.552 160.5,161.5 Z"/></g>
<g><path style="opacity:1" fill="#c2c3c2" d="M 167.5,157.5 C 173.136,159.322 178.469,161.655 183.5,164.5C 183.167,164.833 182.833,165.167 182.5,165.5C 177.5,163.667 172.5,161.833 167.5,160C 166.402,159.23 166.402,158.397 167.5,157.5 Z"/></g>
<g><path style="opacity:1" fill="#e2d600" d="M 250.5,157.5 C 252.199,157.34 253.866,157.506 255.5,158C 258.167,160.667 260.833,163.333 263.5,166C 259.911,166.207 256.411,166.707 253,167.5C 250.618,164.573 248.118,161.739 245.5,159C 247.382,158.802 249.048,158.302 250.5,157.5 Z"/></g>
<g><path style="opacity:1" fill="#124410" d="M 236.5,181.5 C 234.882,178.829 234.215,175.829 234.5,172.5C 234.833,172.5 235.167,172.5 235.5,172.5C 236.461,170.735 236.795,168.735 236.5,166.5C 235.209,166.263 234.209,166.596 233.5,167.5C 228.728,169.278 223.728,170.611 218.5,171.5C 214.709,168.882 211.043,166.049 207.5,163C 212.818,163.062 218.151,163.229 223.5,163.5C 229.664,161.401 235.997,160.067 242.5,159.5C 241.567,166.532 240.4,173.532 239,180.5C 238.329,181.252 237.496,181.586 236.5,181.5 Z"/></g>
<g><path style="opacity:1" fill="#73552b" d="M 164.5,161.5 C 170.677,162.92 176.677,164.92 182.5,167.5C 183.833,169.167 183.833,170.833 182.5,172.5C 177.174,169.447 171.507,167.28 165.5,166C 164.62,164.644 164.286,163.144 164.5,161.5 Z"/></g>
<g><path style="opacity:1" fill="#fef200" d="M 250.5,169.5 C 246.867,166.489 245.2,167.489 245.5,172.5C 245.541,176.795 247.041,180.462 250,183.5C 250.692,182.975 251.192,182.308 251.5,181.5C 250.652,179.591 250.318,177.591 250.5,175.5C 252.058,178.292 253.391,181.292 254.5,184.5C 253.917,186.002 253.084,187.335 252,188.5C 248.625,184.956 245.125,181.623 241.5,178.5C 242.451,172.797 243.617,167.131 245,161.5C 247.1,164.051 248.933,166.717 250.5,169.5 Z"/></g>
<g><path style="opacity:1" fill="#fef200" d="M 236.5,162.5 C 237.675,162.281 238.675,162.614 239.5,163.5C 237.948,164.798 236.948,164.465 236.5,162.5 Z"/></g>
<g><path style="opacity:1" fill="#fef200" d="M 207.5,165.5 C 214.382,171.88 221.716,177.714 229.5,183C 232.085,186.837 231.751,187.171 228.5,184C 226.888,183.28 225.388,183.446 224,184.5C 218.92,180.413 213.587,176.746 208,173.5C 207.503,170.854 207.336,168.187 207.5,165.5 Z"/></g>
<g><path style="opacity:1" fill="#a9a200" d="M 163.5,166.5 C 170.883,168.795 177.883,171.962 184.5,176C 179.815,175.11 175.148,173.776 170.5,172C 167.664,170.609 165.331,168.776 163.5,166.5 Z"/></g>
<g><path style="opacity:1" fill="#000000" d="M 233.5,167.5 C 234.209,166.596 235.209,166.263 236.5,166.5C 236.795,168.735 236.461,170.735 235.5,172.5C 235.923,170.219 235.256,168.552 233.5,167.5 Z"/></g>
<g><path style="opacity:1" fill="#fef200" d="M 233.5,167.5 C 235.256,168.552 235.923,170.219 235.5,172.5C 235.167,172.5 234.833,172.5 234.5,172.5C 234.5,171.5 234.5,170.5 234.5,169.5C 231.848,169.41 229.515,170.076 227.5,171.5C 224.933,171.721 222.599,172.388 220.5,173.5C 219.5,173.167 218.833,172.5 218.5,171.5C 223.728,170.611 228.728,169.278 233.5,167.5 Z"/></g>
<g><path style="opacity:1" fill="#d4ca00" d="M 250.5,169.5 C 250.5,171.5 250.5,173.5 250.5,175.5C 250.318,177.591 250.652,179.591 251.5,181.5C 251.192,182.308 250.692,182.975 250,183.5C 247.041,180.462 245.541,176.795 245.5,172.5C 245.2,167.489 246.867,166.489 250.5,169.5 Z"/></g>
<g><path style="opacity:1" fill="#21263e" d="M 253.5,168.5 C 264.782,168.176 276.115,168.676 287.5,170C 291.457,177.409 294.123,185.243 295.5,193.5C 286.06,193.945 276.726,193.445 267.5,192C 265.062,185.363 262.229,178.863 259,172.5C 257.388,169.763 255.222,168.93 252.5,170C 253.056,169.617 253.389,169.117 253.5,168.5 Z"/></g>
<g><path style="opacity:1" fill="#000000" d="M 234.5,172.5 C 233.532,174.607 233.198,176.941 233.5,179.5C 232.549,178.081 232.216,176.415 232.5,174.5C 231.209,174.737 230.209,174.404 229.5,173.5C 228.833,172.833 228.167,172.167 227.5,171.5C 229.515,170.076 231.848,169.41 234.5,169.5C 234.5,170.5 234.5,171.5 234.5,172.5 Z"/></g>
<g><path style="opacity:1" fill="#1d751a" d="M 227.5,171.5 C 228.167,172.167 228.833,172.833 229.5,173.5C 230.209,174.404 231.209,174.737 232.5,174.5C 232.216,176.415 232.549,178.081 233.5,179.5C 233.719,180.675 233.386,181.675 232.5,182.5C 228.432,179.479 224.432,176.479 220.5,173.5C 222.599,172.388 224.933,171.721 227.5,171.5 Z"/></g>
<g><path style="opacity:1" fill="#fef200" d="M 229.5,173.5 C 229.948,171.535 230.948,171.202 232.5,172.5C 231.675,173.386 230.675,173.719 229.5,173.5 Z"/></g>
<g><path style="opacity:1" fill="#1a1e2f" d="M 254.5,171.5 C 259.401,177.301 262.734,183.968 264.5,191.5C 262.533,191.739 260.699,191.406 259,190.5C 256.931,184.794 254.765,179.128 252.5,173.5C 253.243,172.818 253.909,172.151 254.5,171.5 Z"/></g>
<g><path style="opacity:1" fill="#fef200" d="M 234.5,172.5 C 234.215,175.829 234.882,178.829 236.5,181.5C 236.44,182.043 236.107,182.376 235.5,182.5C 234.824,181.398 234.158,180.398 233.5,179.5C 233.198,176.941 233.532,174.607 234.5,172.5 Z"/></g>
<g><path style="opacity:1" fill="#fec90d" d="M 212.5,179.5 C 213.239,179.369 213.906,179.536 214.5,180C 211.949,185.092 211.949,190.092 214.5,195C 218.293,196.052 220.293,194.552 220.5,190.5C 222.316,189.185 223.983,187.685 225.5,186C 227.076,185.612 228.409,186.112 229.5,187.5C 227.573,190.35 225.406,193.017 223,195.5C 221.589,197.65 220.755,199.984 220.5,202.5C 209.461,200.588 206.461,194.422 211.5,184C 209.984,182.037 210.317,180.537 212.5,179.5 Z"/></g>
<g><path style="opacity:1" fill="#7e7f7e" d="M 215.5,181.5 C 217.932,182.75 220.266,184.25 222.5,186C 221.333,187.167 220.167,188.333 219,189.5C 215.507,187.598 214.34,184.931 215.5,181.5 Z"/></g>
<g><path style="opacity:1" fill="#fef200" d="M 246.5,186.5 C 241.286,187.947 240.619,190.28 244.5,193.5C 246.611,192.395 247.945,190.729 248.5,188.5C 249.812,189.145 250.812,190.145 251.5,191.5C 250.162,193.337 248.662,195.003 247,196.5C 242.51,194.016 238.01,191.516 233.5,189C 232.269,187.817 232.269,186.651 233.5,185.5C 236.055,184.24 238.555,182.906 241,181.5C 242.812,183.3 244.645,184.967 246.5,186.5 Z"/></g>
<g><path style="opacity:1" fill="#a9a200" d="M 246.5,186.5 C 247.5,186.833 248.167,187.5 248.5,188.5C 247.945,190.729 246.611,192.395 244.5,193.5C 240.619,190.28 241.286,187.947 246.5,186.5 Z"/></g>
<g><path style="opacity:1" fill="#114e0f" d="M 254.5,187.5 C 256.066,189.956 257.733,192.456 259.5,195C 265.104,198.09 271.104,199.757 277.5,200C 274.894,202.658 271.894,204.324 268.5,205C 263.94,200.806 259.106,196.972 254,193.5C 253.51,191.455 253.677,189.455 254.5,187.5 Z"/></g>
<g><path style="opacity:1" fill="#fef200" d="M 230.5,189.5 C 235.929,192.413 241.263,195.58 246.5,199C 244.524,202.453 242.691,205.953 241,209.5C 239.167,207.667 237.333,205.833 235.5,204C 233.888,203.28 232.388,203.446 231,204.5C 229.579,201.991 227.912,199.657 226,197.5C 227.141,194.802 228.641,192.135 230.5,189.5 Z"/></g>
<g><path style="opacity:1" fill="#000000" d="M 233.5,193.5 C 234.239,193.369 234.906,193.536 235.5,194C 234.299,194.903 233.465,196.069 233,197.5C 232.163,199.007 230.996,199.507 229.5,199C 231.439,197.568 232.772,195.735 233.5,193.5 Z"/></g>
<g><path style="opacity:1" fill="#222840" d="M 251.5,194.5 C 263.269,203.101 274.269,212.601 284.5,223C 288.5,226.333 292.5,229.667 296.5,233C 296,233.5 295.5,234 295,234.5C 279.158,223.332 263.991,211.332 249.5,198.5C 250.18,197.14 250.847,195.807 251.5,194.5 Z"/></g>
<g><path style="opacity:1" fill="#000000" d="M 235.5,195.5 C 236.239,195.369 236.906,195.536 237.5,196C 236.213,197.41 235.046,198.91 234,200.5C 233.878,198.718 234.378,197.052 235.5,195.5 Z"/></g>
<g><path style="opacity:1" fill="#000000" d="M 239.5,196.5 C 240.043,196.56 240.376,196.893 240.5,197.5C 235.886,203.949 235.552,203.616 239.5,196.5 Z"/></g>
<g><path style="opacity:1" fill="#a9a200" d="M 226.5,200.5 C 222.539,202.213 221.872,201.546 224.5,198.5C 225.522,198.855 226.189,199.522 226.5,200.5 Z"/></g>
<g><path style="opacity:1" fill="#fef200" d="M 279.5,199.5 C 282.061,201.371 284.561,203.371 287,205.5C 287.667,206.167 287.667,206.833 287,207.5C 284.961,205.126 282.628,203.126 280,201.5C 277.214,204.35 274.047,206.184 270.5,207C 273.69,204.636 276.69,202.136 279.5,199.5 Z"/></g>
<g><path style="opacity:1" fill="#a9a200" d="M 226.5,200.5 C 227.364,201.688 228.364,202.855 229.5,204C 227,204.375 224.667,205.208 222.5,206.5C 222.094,205.443 222.094,204.109 222.5,202.5C 224.38,202.771 225.713,202.104 226.5,200.5 Z"/></g>
<g><path style="opacity:1" fill="#222840" d="M 247.5,200.5 C 269.889,219.383 293.556,236.55 318.5,252C 317.95,253.845 316.95,255.345 315.5,256.5C 310.674,254.254 306.008,251.754 301.5,249C 281.878,236.039 262.878,222.372 244.5,208C 245.651,205.535 246.651,203.035 247.5,200.5 Z"/></g>
<g><path style="opacity:1" fill="#1d831a" d="M 279.5,203.5 C 285.989,206.065 286.323,208.065 280.5,209.5C 278.5,209 276.5,208.5 274.5,208C 276.24,206.483 277.906,204.983 279.5,203.5 Z"/></g>
<g><path style="opacity:1" fill="#1d831a" d="M 200.5,233.5 C 198.647,234.614 198.147,233.948 199,231.5C 203.15,222.362 208.483,214.029 215,206.5C 216.11,204.963 217.61,204.297 219.5,204.5C 219.649,205.552 219.483,206.552 219,207.5C 210.607,214.704 204.441,223.37 200.5,233.5 Z"/></g>
<g><path style="opacity:1" fill="#a9a200" d="M 231.5,209.5 C 228.332,210.985 225.666,210.485 223.5,208C 227.238,204.183 229.904,204.683 231.5,209.5 Z"/></g>
<g><path style="opacity:1" fill="#114e0f" d="M 245.5,225.5 C 241.167,226.167 236.833,226.833 232.5,227.5C 232.33,226.178 232.663,225.011 233.5,224C 237.332,222.375 241.332,221.375 245.5,221C 244.09,219.628 242.423,218.795 240.5,218.5C 240.657,217.127 240.49,215.793 240,214.5C 236.237,212.195 234.071,209.195 233.5,205.5C 235.65,207.149 237.65,208.982 239.5,211C 240.784,211.684 241.951,211.517 243,210.5C 246.59,213.045 250.09,215.712 253.5,218.5C 250.788,220.885 248.122,223.218 245.5,225.5 Z"/></g>
<g><path style="opacity:1" fill="#513b1f" d="M 282.5,200.5 C 282.56,199.957 282.893,199.624 283.5,199.5C 290.078,202.706 296.578,206.039 303,209.5C 302.493,214.608 301.159,219.941 299,225.5C 293.921,221.71 288.755,218.044 283.5,214.5C 283.069,213.707 282.735,212.873 282.5,212C 283.786,210.351 285.453,209.185 287.5,208.5C 288.262,207.372 288.929,206.205 289.5,205C 287.283,203.277 284.95,201.777 282.5,200.5 Z"/></g>
<g><path style="opacity:1" fill="#fef200" d="M 208.5,289.5 C 208.598,287.447 207.931,285.78 206.5,284.5C 205.925,281.088 204.592,278.088 202.5,275.5C 198.795,266.919 195.795,258.086 193.5,249C 195.959,243.914 198.292,238.747 200.5,233.5C 205.608,224.208 212.108,215.874 220,208.5C 220.692,209.025 221.192,209.692 221.5,210.5C 211.856,221.117 203.689,232.784 197,245.5C 196.371,250.328 197.038,254.995 199,259.5C 205.892,275.618 213.059,291.618 220.5,307.5C 219.824,309.354 218.824,309.687 217.5,308.5C 214.725,301.955 211.725,295.621 208.5,289.5 Z"/></g>
<g><path style="opacity:1" fill="#a9a200" d="M 231.5,209.5 C 232.289,209.783 232.956,210.283 233.5,211C 231.471,211.681 229.471,212.014 227.5,212C 228.858,211.066 230.192,210.232 231.5,209.5 Z"/></g>
<g><path style="opacity:1" fill="#114e0f" d="M 274.5,210.5 C 274.735,209.903 275.235,209.57 276,209.5C 280.323,209.478 281.99,211.478 281,215.5C 279.074,213.461 276.907,211.794 274.5,210.5 Z"/></g>
<g><path style="opacity:1" fill="#1d831a" d="M 240.5,218.5 C 242.423,218.795 244.09,219.628 245.5,221C 241.332,221.375 237.332,222.375 233.5,224C 232.663,225.011 232.33,226.178 232.5,227.5C 236.833,226.833 241.167,226.167 245.5,225.5C 245.106,227.71 243.773,229.043 241.5,229.5C 236.295,230.074 231.295,231.407 226.5,233.5C 225.949,235.413 225.782,237.413 226,239.5C 223.369,241.124 220.536,242.291 217.5,243C 218.305,244.113 218.972,245.279 219.5,246.5C 219.5,247.167 219.167,247.5 218.5,247.5C 214.856,247.859 211.523,249.025 208.5,251C 205.183,251.498 201.85,251.665 198.5,251.5C 198.714,249.856 198.38,248.356 197.5,247C 198.636,245.855 199.636,244.688 200.5,243.5C 205.074,243.086 209.574,242.419 214,241.5C 214.617,240.551 214.451,239.718 213.5,239C 210.183,238.502 206.85,238.335 203.5,238.5C 208.465,228.756 214.799,219.922 222.5,212C 223.449,211.383 224.282,211.549 225,212.5C 226.709,223.344 231.876,225.344 240.5,218.5 Z"/></g>
<g><path style="opacity:1" fill="#fec90d" d="M 304.5,211.5 C 305.641,214.64 305.808,217.973 305,221.5C 304.385,223.116 303.385,224.449 302,225.5C 302.284,220.802 303.117,216.135 304.5,211.5 Z"/></g>
<g><path style="opacity:1" fill="#a9a200" d="M 230.5,212.5 C 233.81,212.461 236.476,213.794 238.5,216.5C 236.07,218.556 233.403,219.723 230.5,220C 229.624,218.414 228.624,216.914 227.5,215.5C 228.34,214.265 229.34,213.265 230.5,212.5 Z"/></g>
<g><path style="opacity:1" fill="#114e0f" d="M 284.5,240.5 C 276.541,244.523 268.541,244.356 260.5,240C 258.287,236.286 255.287,233.452 251.5,231.5C 249.797,226.478 251.464,222.812 256.5,220.5C 265.9,227.188 275.234,233.855 284.5,240.5 Z"/></g>
<g><path style="opacity:1" fill="#114e0f" d="M 241.5,229.5 C 234.743,235.925 227.41,241.592 219.5,246.5C 218.972,245.279 218.305,244.113 217.5,243C 220.536,242.291 223.369,241.124 226,239.5C 225.782,237.413 225.949,235.413 226.5,233.5C 231.295,231.407 236.295,230.074 241.5,229.5 Z"/></g>
<g><path style="opacity:1" fill="#1d831a" d="M 251.5,231.5 C 255.287,233.452 258.287,236.286 260.5,240C 268.541,244.356 276.541,244.523 284.5,240.5C 286.262,241.262 287.262,242.596 287.5,244.5C 283.521,249.978 278.188,251.811 271.5,250C 268.101,248.148 264.768,247.315 261.5,247.5C 262.313,248.814 263.313,249.981 264.5,251C 269.698,253.762 274.698,256.762 279.5,260C 282.607,259.46 285.607,258.293 288.5,256.5C 289.832,265.648 292.666,274.315 297,282.5C 299.307,289.394 301.14,296.394 302.5,303.5C 296.229,305.41 289.896,305.744 283.5,304.5C 280.568,296.044 277.235,287.711 273.5,279.5C 278.704,281.254 284.038,281.754 289.5,281C 290.38,279.644 290.714,278.144 290.5,276.5C 282.9,277.183 275.9,275.516 269.5,271.5C 266.492,266.67 263.325,262.004 260,257.5C 257.06,248.847 254.227,240.18 251.5,231.5 Z"/></g>
<g><path style="opacity:1" fill="#114e0f" d="M 203.5,238.5 C 206.85,238.335 210.183,238.502 213.5,239C 214.451,239.718 214.617,240.551 214,241.5C 209.574,242.419 205.074,243.086 200.5,243.5C 200.75,241.326 201.75,239.659 203.5,238.5 Z"/></g>
<g><path style="opacity:1" fill="#114e0f" d="M 287.5,244.5 C 288.162,248.466 288.495,252.466 288.5,256.5C 285.607,258.293 282.607,259.46 279.5,260C 274.698,256.762 269.698,253.762 264.5,251C 263.313,249.981 262.313,248.814 261.5,247.5C 264.768,247.315 268.101,248.148 271.5,250C 278.188,251.811 283.521,249.978 287.5,244.5 Z"/></g>
<g><path style="opacity:1" fill="#114e0f" d="M 218.5,247.5 C 217.167,249.5 217.167,251.5 218.5,253.5C 212.215,255.849 205.881,255.849 199.5,253.5C 199.167,252.833 198.833,252.167 198.5,251.5C 201.85,251.665 205.183,251.498 208.5,251C 211.523,249.025 214.856,247.859 218.5,247.5 Z"/></g>
<g><path style="opacity:1" fill="#fec90d" d="M 319.5,252.5 C 323.771,253.636 327.437,255.802 330.5,259C 326.789,259.439 323.122,259.106 319.5,258C 318.862,256.293 318.862,254.46 319.5,252.5 Z"/></g>
<g><path style="opacity:1" fill="#1d831a" d="M 199.5,253.5 C 205.881,255.849 212.215,255.849 218.5,253.5C 219.451,254.919 219.784,256.585 219.5,258.5C 213.703,261.118 207.703,261.785 201.5,260.5C 200.388,258.401 199.721,256.067 199.5,253.5 Z"/></g>
<g><path style="opacity:1" fill="#114e0f" d="M 219.5,258.5 C 220.167,260.5 220.833,262.5 221.5,264.5C 215.442,263.096 209.775,264.096 204.5,267.5C 203.264,265.351 202.264,263.018 201.5,260.5C 207.703,261.785 213.703,261.118 219.5,258.5 Z"/></g>
<g><path style="opacity:1" fill="#1d831a" d="M 221.5,264.5 C 225.414,270.574 227.748,277.241 228.5,284.5C 224.109,288.282 219.442,288.449 214.5,285C 213.295,283.624 211.962,282.458 210.5,281.5C 207.952,277.07 205.952,272.403 204.5,267.5C 209.775,264.096 215.442,263.096 221.5,264.5 Z"/></g>
<g><path style="opacity:1" fill="#114e0f" d="M 269.5,271.5 C 275.9,275.516 282.9,277.183 290.5,276.5C 290.714,278.144 290.38,279.644 289.5,281C 284.038,281.754 278.704,281.254 273.5,279.5C 271.642,277.117 270.308,274.45 269.5,271.5 Z"/></g>
<g><path style="opacity:1" fill="#1d711a" d="M 202.5,275.5 C 204.592,278.088 205.925,281.088 206.5,284.5C 206.402,286.553 207.069,288.22 208.5,289.5C 210.259,295.691 212.592,301.691 215.5,307.5C 213.955,308.452 212.288,308.785 210.5,308.5C 211.263,305.859 211.43,303.192 211,300.5C 207.805,293.247 204.805,285.914 202,278.5C 201.26,277.251 201.427,276.251 202.5,275.5 Z"/></g>
<g><path style="opacity:1" fill="#1d831a" d="M 268.5,276.5 C 270.474,278.428 271.974,280.761 273,283.5C 279.064,298.858 284.23,314.525 288.5,330.5C 287.349,331.731 286.183,331.731 285,330.5C 281.041,311.99 275.541,293.99 268.5,276.5 Z"/></g>
<g><path style="opacity:1" fill="#114e0f" d="M 210.5,281.5 C 211.962,282.458 213.295,283.624 214.5,285C 219.442,288.449 224.109,288.282 228.5,284.5C 229.87,286.25 230.87,288.25 231.5,290.5C 226.365,292.753 221.032,293.086 215.5,291.5C 213.326,288.485 211.659,285.151 210.5,281.5 Z"/></g>
<g><path style="opacity:1" fill="#000000" d="M 206.5,284.5 C 207.931,285.78 208.598,287.447 208.5,289.5C 207.069,288.22 206.402,286.553 206.5,284.5 Z"/></g>
<g><path style="opacity:1" fill="#1d831a" d="M 231.5,290.5 C 231.5,292.167 231.5,293.833 231.5,295.5C 227.241,298.462 222.575,299.129 217.5,297.5C 216.262,295.786 215.595,293.786 215.5,291.5C 221.032,293.086 226.365,292.753 231.5,290.5 Z"/></g>
<g><path style="opacity:1" fill="#114e0f" d="M 231.5,295.5 C 232.738,297.214 233.405,299.214 233.5,301.5C 229.018,301.034 225.018,302.034 221.5,304.5C 219.929,302.365 218.596,300.032 217.5,297.5C 222.575,299.129 227.241,298.462 231.5,295.5 Z"/></g>
<g><path style="opacity:1" fill="#1d831a" d="M 233.5,301.5 C 234.782,302.708 234.782,304.042 233.5,305.5C 229.622,307.009 225.622,308.009 221.5,308.5C 221.5,307.167 221.5,305.833 221.5,304.5C 225.018,302.034 229.018,301.034 233.5,301.5 Z"/></g>
<g><path style="opacity:1" fill="#114e0f" d="M 302.5,303.5 C 302.5,304.833 302.5,306.167 302.5,307.5C 296.774,311.425 290.774,312.092 284.5,309.5C 283.962,307.883 283.629,306.216 283.5,304.5C 289.896,305.744 296.229,305.41 302.5,303.5 Z"/></g>
<g><path style="opacity:1" fill="#1d831a" d="M 302.5,307.5 C 303.859,310.194 304.192,312.861 303.5,315.5C 301.304,316.763 298.97,317.763 296.5,318.5C 293.346,316.974 290.013,316.307 286.5,316.5C 285.985,314.106 285.319,311.772 284.5,309.5C 290.774,312.092 296.774,311.425 302.5,307.5 Z"/></g>
<g><path style="opacity:1" fill="#20263c" d="M 230.5,308.5 C 232.144,308.286 233.644,308.62 235,309.5C 236.64,311.579 237.806,313.912 238.5,316.5C 233.156,320.174 227.49,323.34 221.5,326C 218.446,326.821 215.446,326.655 212.5,325.5C 214.84,320.798 217.173,316.131 219.5,311.5C 223.317,310.611 226.984,309.611 230.5,308.5 Z"/></g>
<g><path style="opacity:1" fill="#fec90d" d="M 221.5,312.5 C 223.337,312.639 223.67,313.306 222.5,314.5C 221.702,314.043 221.369,313.376 221.5,312.5 Z"/></g>
<g><path style="opacity:1" fill="#114e0f" d="M 303.5,315.5 C 304.338,315.842 304.672,316.508 304.5,317.5C 302.089,319.86 299.089,320.86 295.5,320.5C 292.591,320.615 289.925,319.949 287.5,318.5C 287.167,317.833 286.833,317.167 286.5,316.5C 290.013,316.307 293.346,316.974 296.5,318.5C 298.97,317.763 301.304,316.763 303.5,315.5 Z"/></g>
<g><path style="opacity:1" fill="#1b7b19" d="M 304.5,317.5 C 305.637,320.32 306.137,323.32 306,326.5C 301.873,328.431 297.54,329.764 293,330.5C 291.674,330.245 290.674,329.578 290,328.5C 289.057,325.176 288.224,321.843 287.5,318.5C 289.925,319.949 292.591,320.615 295.5,320.5C 299.089,320.86 302.089,319.86 304.5,317.5 Z"/></g>
<g><path style="opacity:1" fill="#fec90d" d="M 224.5,318.5 C 226.76,319.238 226.927,320.238 225,321.5C 223.272,320.648 223.105,319.648 224.5,318.5 Z"/></g>
<g><path style="opacity:1" fill="#1a1e2f" d="M 237.5,319.5 C 238.376,319.369 239.043,319.702 239.5,320.5C 240.074,322.059 240.74,323.559 241.5,325C 231.361,328.06 221.361,331.727 211.5,336C 208.331,336.997 205.664,336.33 203.5,334C 208.725,329.026 215.058,327.026 222.5,328C 227.887,325.646 232.887,322.812 237.5,319.5 Z"/></g>
<g><path style="opacity:1" fill="#222840" d="M 303.5,329.5 C 305.731,331.076 307.397,333.243 308.5,336C 301.51,337.662 295.176,340.662 289.5,345C 287.559,345.743 285.726,345.576 284,344.5C 284.519,341.271 286.019,338.438 288.5,336C 288.355,335.228 288.022,334.561 287.5,334C 293.098,333.024 298.432,331.524 303.5,329.5 Z"/></g>
<g><path style="opacity:1" fill="#1a1e2f" d="M 303.5,339.5 C 304.5,339.5 305.5,339.5 306.5,339.5C 307.321,342.554 307.321,345.554 306.5,348.5C 302.066,349.883 297.732,351.55 293.5,353.5C 287.927,352.142 282.26,351.309 276.5,351C 278.641,349.85 280.474,348.35 282,346.5C 284.787,347.517 287.62,347.684 290.5,347C 294.928,344.459 299.262,341.959 303.5,339.5 Z"/></g>
</svg>
