<?xml version="1.0" encoding="UTF-8"?>
<!DOCTYPE svg PUBLIC "-//W3C//DTD SVG 1.1//EN" "http://www.w3.org/Graphics/SVG/1.1/DTD/svg11.dtd">
<svg xmlns="http://www.w3.org/2000/svg" version="1.1" width="387px" height="400px" style="shape-rendering:geometricPrecision; text-rendering:geometricPrecision; image-rendering:optimizeQuality; fill-rule:evenodd; clip-rule:evenodd" xmlns:xlink="http://www.w3.org/1999/xlink">
<g><path style="opacity:1" fill="#fefffe" d="M 154.5,21.5 C 161.175,21.3337 167.842,21.5004 174.5,22C 175.667,23.1667 176.833,24.3333 178,25.5C 178.543,39.7138 178.043,53.8805 176.5,68C 177.27,69.7748 178.437,71.2748 180,72.5C 180.497,74.8098 180.663,77.1432 180.5,79.5C 190.165,78.8748 199.831,78.7082 209.5,79C 212.667,80.8333 215.167,83.3333 217,86.5C 218.139,92.4361 218.805,98.4361 219,104.5C 219.5,104 220,103.5 220.5,103C 225.5,102.333 230.5,102.333 235.5,103C 237.607,104.264 238.607,106.097 238.5,108.5C 243.076,108.568 246.576,110.568 249,114.5C 253.88,122.445 255.88,131.112 255,140.5C 262.278,148.47 265.445,157.97 264.5,169C 264.184,175.172 263.851,181.339 263.5,187.5C 268.855,186.345 273.022,188.012 276,192.5C 280.048,196.88 283.715,201.546 287,206.5C 287.333,210.5 287.667,214.5 288,218.5C 294.302,223.801 300.302,229.468 306,235.5C 306.192,237.577 306.692,239.577 307.5,241.5C 313.147,245.979 318.647,250.646 324,255.5C 324.667,259.5 324.667,263.5 324,267.5C 319.921,268.629 315.755,268.796 311.5,268C 299.095,259.598 287.262,250.431 276,240.5C 274.833,241.667 273.667,242.833 272.5,244C 274.104,257.017 277.604,269.517 283,281.5C 295.041,290.54 305.374,301.207 314,313.5C 316.735,315.816 319.568,317.982 322.5,320C 324.397,323.619 326.897,326.785 330,329.5C 330.667,334.5 330.667,339.5 330,344.5C 327.93,346.787 325.43,348.453 322.5,349.5C 319.357,353.811 316.023,357.978 312.5,362C 305.715,364.446 298.715,365.113 291.5,364C 290.234,363.691 289.067,363.191 288,362.5C 287.097,356.831 287.597,351.331 289.5,346C 287.5,345.667 285.5,345.333 283.5,345C 280.036,339.238 276.203,333.738 272,328.5C 264.629,321.46 256.962,314.794 249,308.5C 242.973,298.108 238.306,287.108 235,275.5C 231.995,279.506 229.495,283.84 227.5,288.5C 228.772,295.131 229.939,301.798 231,308.5C 231.351,320.84 231.851,333.173 232.5,345.5C 232.739,350.379 231.906,355.045 230,359.5C 226.826,361.993 223.159,362.993 219,362.5C 206.082,361.654 193.248,360.154 180.5,358C 177.588,356.627 174.754,355.127 172,353.5C 171.104,348.051 171.437,342.718 173,337.5C 177.08,336.7 181.247,336.2 185.5,336C 187.746,334.961 189.913,333.794 192,332.5C 193.294,316.849 191.627,301.515 187,286.5C 186.333,281.833 186.333,277.167 187,272.5C 193.787,259.755 200.954,247.255 208.5,235C 207.5,233.333 206.5,231.667 205.5,230C 200.82,229.663 197.487,227.329 195.5,223C 191.558,223.063 188.558,221.397 186.5,218C 180.672,216.057 175.005,213.724 169.5,211C 167.549,209.266 166.549,207.099 166.5,204.5C 163.675,204.919 161.509,203.919 160,201.5C 158.254,198.166 157.087,194.666 156.5,191C 145.835,184.679 136.002,177.179 127,168.5C 126.934,165.724 125.768,163.558 123.5,162C 110.667,151.167 97.8333,140.333 85,129.5C 84.3333,127.5 83.6667,125.5 83,123.5C 70.6957,112.196 58.6957,100.53 47,88.5C 46.5014,84.8484 46.3347,81.1817 46.5,77.5C 50.5138,77.3345 54.5138,77.5012 58.5,78C 71.8729,88.0022 85.2063,98.0022 98.5,108C 101.923,110.972 104.923,114.305 107.5,118C 111.59,118.256 113.923,120.422 114.5,124.5C 122.941,130.771 130.941,137.605 138.5,145C 140.723,147.223 143.389,148.556 146.5,149C 157.998,159.903 170.665,169.07 184.5,176.5C 186.788,168.699 185.454,161.699 180.5,155.5C 173.524,155.184 170.524,151.517 171.5,144.5C 170.448,144.649 169.448,144.483 168.5,144C 164.495,139.705 163.495,134.705 165.5,129C 163.866,128.506 162.199,128.34 160.5,128.5C 159.167,110.067 157.667,91.7341 156,73.5C 152.2,60.0321 149.7,46.3654 148.5,32.5C 147.225,26.6942 149.225,23.0275 154.5,21.5 Z"/></g>
<g><path style="opacity:1" fill="#000000" d="M 156.5,23.5 C 161.844,23.334 167.177,23.5006 172.5,24C 173.667,25.1667 174.833,26.3333 176,27.5C 175.979,32.243 176.146,36.9097 176.5,41.5C 174.827,51.3851 174.327,61.3851 175,71.5C 178.118,74.0704 179.285,77.4037 178.5,81.5C 188.177,81.1949 197.844,81.0282 207.5,81C 213.714,84.7213 216.714,90.2213 216.5,97.5C 215.53,104.819 215.363,112.152 216,119.5C 216.837,117.156 218.171,115.156 220,113.5C 220.011,110.341 220.845,107.507 222.5,105C 226.167,104.333 229.833,104.333 233.5,105C 235.607,106.264 236.607,108.097 236.5,110.5C 241.076,110.568 244.576,112.568 247,116.5C 252.289,123.66 253.789,131.493 251.5,140C 254.699,143.566 257.533,147.4 260,151.5C 263.37,164.18 263.203,176.68 259.5,189C 265.456,188.218 270.289,190.051 274,194.5C 278.048,198.88 281.715,203.546 285,208.5C 285.76,212.225 285.593,215.892 284.5,219.5C 291.451,224.948 297.951,230.948 304,237.5C 304.192,239.577 304.692,241.577 305.5,243.5C 311.147,247.979 316.647,252.646 322,257.5C 324.5,265.667 321.667,268.5 313.5,266C 300.426,256.929 287.926,247.096 276,236.5C 273.833,238.667 271.667,240.833 269.5,243C 271.703,251.373 273.537,259.873 275,268.5C 276.723,273.613 278.723,278.613 281,283.5C 293.041,292.54 303.374,303.207 312,315.5C 314.735,317.816 317.568,319.982 320.5,322C 322.397,325.619 324.897,328.785 328,331.5C 330.667,339.451 328.167,344.784 320.5,347.5C 317.357,351.811 314.023,355.978 310.5,360C 303.709,363.081 296.876,363.248 290,360.5C 289.68,354.772 290.18,349.105 291.5,343.5C 289.473,343.662 287.473,343.495 285.5,343C 282.036,337.238 278.203,331.738 274,326.5C 266.629,319.46 258.962,312.794 251,306.5C 244.362,295.218 239.362,283.218 236,270.5C 231.017,275.646 227.517,281.646 225.5,288.5C 229.277,304.563 230.277,320.73 228.5,337C 231.143,343.833 230.976,350.666 228,357.5C 225.521,359.917 222.521,360.917 219,360.5C 206.766,359.466 194.6,357.966 182.5,356C 179.588,354.627 176.754,353.127 174,351.5C 173.022,347.1 173.522,342.933 175.5,339C 182.202,339.437 188.369,337.937 194,334.5C 195.635,317.566 193.968,300.9 189,284.5C 188.333,281.167 188.333,277.833 189,274.5C 196.121,261.089 203.621,247.923 211.5,235C 210.206,232.913 209.039,230.746 208,228.5C 203.145,227.989 199.645,225.489 197.5,221C 193.558,221.063 190.558,219.397 188.5,216C 182.672,214.057 177.005,211.724 171.5,209C 169.549,207.266 168.549,205.099 168.5,202.5C 165.675,202.919 163.509,201.919 162,199.5C 160.254,196.166 159.087,192.666 158.5,189C 147.835,182.679 138.002,175.179 129,166.5C 128.934,163.724 127.768,161.558 125.5,160C 112.667,149.167 99.8333,138.333 87,127.5C 86.3333,125.5 85.6667,123.5 85,121.5C 72.6957,110.196 60.6957,98.5298 49,86.5C 48.5034,84.1902 48.3367,81.8568 48.5,79.5C 51.1873,79.3359 53.854,79.5026 56.5,80C 64.3752,85.0983 72.0418,90.4317 79.5,96C 86.1305,102.31 93.1305,108.143 100.5,113.5C 102.159,117.663 105.159,120.163 109.5,121C 110.866,122.6 111.866,124.433 112.5,126.5C 120.941,132.771 128.941,139.605 136.5,147C 144.679,151.828 152.346,157.495 159.5,164C 165.683,168.859 172.35,172.859 179.5,176C 182.463,177.961 185.129,180.294 187.5,183C 188.167,183.667 188.833,183.667 189.5,183C 187.838,175.654 187.005,168.154 187,160.5C 185.303,158.301 183.803,155.968 182.5,153.5C 175.524,153.184 172.524,149.517 173.5,142.5C 172.448,142.649 171.448,142.483 170.5,142C 169.842,140.095 168.675,138.595 167,137.5C 166.425,133.624 166.925,129.958 168.5,126.5C 166.5,126.5 164.5,126.5 162.5,126.5C 161.83,111.797 160.497,97.13 158.5,82.5C 158.636,80.1355 158.97,77.8021 159.5,75.5C 154.887,61.4839 151.887,47.1505 150.5,32.5C 149.835,27.4493 151.835,24.4493 156.5,23.5 Z"/></g>
<g><path style="opacity:1" fill="#FF3840" d="M 167.5,75.5 C 165.737,73.1148 164.237,70.4481 163,67.5C 160.679,55.6718 158.179,44.0051 155.5,32.5C 157.642,29.5291 160.642,28.1958 164.5,28.5C 170.254,28.556 171.587,30.8893 168.5,35.5C 170.442,40.6244 171.109,45.791 170.5,51C 169.758,56.1116 169.092,61.2783 168.5,66.5C 170.144,69.8495 169.81,72.8495 167.5,75.5 Z"/></g>
<g><path style="opacity:1" fill="#FF3840" d="M 167.5,75.5 C 174.366,77.4409 175.366,81.1076 170.5,86.5C 169.508,86.3284 168.842,86.6618 168.5,87.5C 166.521,86.1879 164.855,84.5212 163.5,82.5C 164.861,80.1495 166.194,77.8162 167.5,75.5 Z"/></g>
<g><path style="opacity:1" fill="#FB3B40" d="M 199.5,119.5 C 193.426,110.561 190.426,100.561 190.5,89.5C 190.5,88.5 190.5,87.5 190.5,86.5C 194.876,86.3627 199.209,86.196 203.5,86C 206.333,87.5 208.5,89.6667 210,92.5C 211.18,102.425 208.847,111.425 203,119.5C 201.855,120.684 200.688,120.684 199.5,119.5 Z"/></g>
<g><path style="opacity:1" fill="#404040" d="M 170.5,86.5 C 171.693,86.9704 172.36,87.9704 172.5,89.5C 173.087,94.7864 174.087,99.9531 175.5,105C 173.167,106.167 170.833,107.333 168.5,108.5C 164.687,101.487 164.687,94.4873 168.5,87.5C 168.842,86.6618 169.508,86.3284 170.5,86.5 Z"/></g>
<g><path style="opacity:1" fill="#FB3B40" d="M 188.5,93.5 C 189.681,102.223 192.348,110.556 196.5,118.5C 196.719,119.675 196.386,120.675 195.5,121.5C 180.616,114.756 173.616,103.089 174.5,86.5C 178.833,86.5 183.167,86.5 187.5,86.5C 187.198,89.0593 187.532,91.3926 188.5,93.5 Z"/></g>
<g><path style="opacity:1" fill="#fec90d" d="M 190.5,89.5 C 190.426,100.561 193.426,110.561 199.5,119.5C 199.5,120.167 199.5,120.833 199.5,121.5C 198.1,120.9 197.1,119.9 196.5,118.5C 192.348,110.556 189.681,102.223 188.5,93.5C 188.337,91.1432 188.503,88.8098 189,86.5C 189.232,87.7375 189.732,88.7375 190.5,89.5 Z"/></g>
<g><path style="opacity:1" fill="#CE2C33" d="M 175.5,108.5 C 172.515,109.326 169.849,110.659 167.5,112.5C 165.653,112.766 164.986,112.432 165.5,111.5C 168.273,110.03 171.106,108.697 174,107.5C 174.765,107.57 175.265,107.903 175.5,108.5 Z"/></g>
<g><path style="opacity:1" fill="#8A342F" d="M 175.5,108.5 C 176.833,108.5 177.5,109.167 177.5,110.5C 174.992,112.924 171.992,114.59 168.5,115.5C 166.204,115.196 165.871,114.196 167.5,112.5C 169.849,110.659 172.515,109.326 175.5,108.5 Z"/></g>
<g><path style="opacity:1" fill="#F4D954" d="M 226.5,109.5 C 228.39,109.297 229.89,109.963 231,111.5C 231.36,113.421 232.194,115.088 233.5,116.5C 231.41,119.009 229.577,118.675 228,115.5C 227.187,113.564 226.687,111.564 226.5,109.5 Z"/></g>
<g><path style="opacity:1" fill="#CE2C33" d="M 177.5,110.5 C 178.774,111.189 178.774,112.023 177.5,113C 174.5,114.5 171.5,116 168.5,117.5C 167.537,117.03 167.537,116.363 168.5,115.5C 171.992,114.59 174.992,112.924 177.5,110.5 Z"/></g>
<g><path style="opacity:1" fill="#CE2C33" d="M 211.5,114.5 C 210.737,113.732 209.737,113.232 208.5,113C 209.944,112.219 211.277,112.386 212.5,113.5C 212.376,114.107 212.043,114.44 211.5,114.5 Z"/></g>
<g><path style="opacity:1" fill="#404140" d="M 178.5,114.5 C 184.5,117.5 190.5,120.5 196.5,123.5C 196.5,124.5 196.5,125.5 196.5,126.5C 187.575,127.535 179.075,126.202 171,122.5C 167.055,123.622 166.555,122.622 169.5,119.5C 172.724,118.059 175.724,116.392 178.5,114.5 Z"/></g>
<g><path style="opacity:1" fill="#CE2C33" d="M 211.5,114.5 C 212.66,116.203 211.993,116.869 209.5,116.5C 209.082,115.778 208.416,115.278 207.5,115C 208.793,114.51 210.127,114.343 211.5,114.5 Z"/></g>
<g><path style="opacity:1" fill="#CE2C33" d="M 209.5,116.5 C 210.263,117.268 211.263,117.768 212.5,118C 210.365,118.635 208.365,118.301 206.5,117C 207.448,116.517 208.448,116.351 209.5,116.5 Z"/></g>
<g><path style="opacity:1" fill="#868686" d="M 224.5,117.5 C 226.749,118.231 228.916,119.231 231,120.5C 235.113,117.654 238.946,117.987 242.5,121.5C 244.586,125.17 246.253,129.004 247.5,133C 247.259,134.984 246.592,136.817 245.5,138.5C 244.726,139.711 243.893,139.711 243,138.5C 242.517,139.448 242.351,140.448 242.5,141.5C 238.193,142.498 233.86,142.998 229.5,143C 224.173,139.664 221.34,134.83 221,128.5C 219.982,129.706 219.482,129.373 219.5,127.5C 220.65,123.866 222.317,120.533 224.5,117.5 Z"/></g>
<g><path style="opacity:1" fill="#fec90d" d="M 199.5,121.5 C 200.675,121.281 201.675,121.614 202.5,122.5C 201.277,123.614 199.944,123.781 198.5,123C 199.056,122.617 199.389,122.117 199.5,121.5 Z"/></g>
<g><path style="opacity:1" fill="#D7D7D7" d="M 107.5,132.5 C 106.833,132.5 106.5,132.833 106.5,133.5C 105.85,133.804 105.183,134.137 104.5,134.5C 97.3539,129.861 91.8539,123.861 88,116.5C 76.2158,106.35 64.7158,95.85 53.5,85C 54.1667,84.3333 54.8333,84.3333 55.5,85C 67.3472,93.758 79.0138,102.758 90.5,112C 91.8333,112.667 91.8333,113.333 90.5,114C 93.9263,113.873 96.2596,115.707 97.5,119.5C 99.9388,122.113 102.772,124.113 106,125.5C 106.662,127.813 107.162,130.146 107.5,132.5 Z"/></g>
<g><path style="opacity:1" fill="#fefffe" d="M 213.5,123.5 C 214.641,126.64 214.808,129.973 214,133.5C 213.365,132.034 212.531,130.7 211.5,129.5C 213.086,127.827 213.753,125.827 213.5,123.5 Z"/></g>
<g><path style="opacity:1" fill="#FFD730" d="M 198.5,124.5 C 200.288,124.215 201.955,124.548 203.5,125.5C 204.5,127.5 205.5,129.5 206.5,131.5C 204.522,135.007 201.855,135.84 198.5,134C 197.216,131.215 197.216,128.049 198.5,124.5 Z"/></g>
<g><path style="opacity:1" fill="#FFE2B2" d="M 177.5,140.5 C 178.473,140.013 179.473,139.513 180.5,139C 178,137.833 176.167,136 175,133.5C 174.28,135.056 173.113,136.056 171.5,136.5C 170.909,135.849 170.243,135.182 169.5,134.5C 170.905,131.787 172.405,129.121 174,126.5C 174.691,128.891 175.691,128.891 177,126.5C 178.067,127.191 179.234,127.691 180.5,128C 181.857,135.189 181.524,142.356 179.5,149.5C 176.735,146.968 176.068,143.968 177.5,140.5 Z"/></g>
<g><path style="opacity:1" fill="#EFC9A0" d="M 195.5,134.5 C 194.625,136.806 193.292,137.473 191.5,136.5C 190.032,134.389 190.365,132.556 192.5,131C 190.099,130.195 190.266,129.362 193,128.5C 193.667,129.833 194.333,129.833 195,128.5C 195.495,130.473 195.662,132.473 195.5,134.5 Z"/></g>
<g><path style="opacity:1" fill="#fec90d" d="M 186.5,132.5 C 185.602,131.842 184.602,131.176 183.5,130.5C 185.365,129.334 187.032,129.667 188.5,131.5C 188.043,132.298 187.376,132.631 186.5,132.5 Z"/></g>
<g><path style="opacity:1" fill="#8A614B" d="M 106.5,133.5 C 106.5,132.833 106.833,132.5 107.5,132.5C 108.117,132.389 108.617,132.056 109,131.5C 117.5,138.667 126,145.833 134.5,153C 138.634,155.551 138.467,157.717 134,159.5C 125.26,151.881 116.426,144.381 107.5,137C 106.663,135.989 106.33,134.822 106.5,133.5 Z"/></g>
<g><path style="opacity:1" fill="#fec90d" d="M 186.5,132.5 C 189.167,133.833 189.167,135.167 186.5,136.5C 185.791,135.596 184.791,135.263 183.5,135.5C 183.5,134.5 183.5,133.5 183.5,132.5C 184.5,132.5 185.5,132.5 186.5,132.5 Z"/></g>
<g><path style="opacity:1" fill="#FDA644" d="M 195.5,134.5 C 197.138,135.657 198.804,136.824 200.5,138C 197.278,140.888 193.778,143.388 190,145.5C 189.863,142.32 190.363,139.32 191.5,136.5C 193.292,137.473 194.625,136.806 195.5,134.5 Z"/></g>
<g><path style="opacity:1" fill="#fec90d" d="M 206.5,135.5 C 201.743,141.917 195.743,146.917 188.5,150.5C 188.414,149.504 188.748,148.671 189.5,148C 195.871,144.635 201.371,140.135 206,134.5C 206.399,134.728 206.565,135.062 206.5,135.5 Z"/></g>
<g><path style="opacity:1" fill="#754D39" d="M 177.5,140.5 C 173.759,141.401 171.759,140.068 171.5,136.5C 173.113,136.056 174.28,135.056 175,133.5C 176.167,136 178,137.833 180.5,139C 179.473,139.513 178.473,140.013 177.5,140.5 Z"/></g>
<g><path style="opacity:1" fill="#404140" d="M 206.5,135.5 C 208.764,137.097 210.764,139.097 212.5,141.5C 212.023,142.478 211.357,143.311 210.5,144C 207.05,145.03 203.717,146.363 200.5,148C 198.333,151.5 195.5,154.333 192,156.5C 190.579,154.595 189.412,152.595 188.5,150.5C 195.743,146.917 201.743,141.917 206.5,135.5 Z"/></g>
<g><path style="opacity:1" fill="#f3bf11" d="M 186.5,136.5 C 189.22,139.284 188.886,141.617 185.5,143.5C 182.713,141.795 183.046,140.628 186.5,140C 185.552,139.517 184.552,139.351 183.5,139.5C 183.5,138.5 183.5,137.5 183.5,136.5C 184.5,136.5 185.5,136.5 186.5,136.5 Z"/></g>
<g><path style="opacity:1" fill="#F4D954" d="M 214.5,141.5 C 218.119,142.18 221.786,142.68 225.5,143C 226.968,145.728 227.801,148.561 228,151.5C 222.241,145.612 216.074,145.112 209.5,150C 206.833,150.667 204.167,150.667 201.5,150C 204.717,148.363 208.05,147.03 211.5,146C 213.141,144.871 214.141,143.371 214.5,141.5 Z"/></g>
<g><path style="opacity:1" fill="#BE886A" d="M 252.5,154.5 C 247.838,151.479 242.838,149.813 237.5,149.5C 235.052,148.527 232.385,148.194 229.5,148.5C 229.5,147.5 229.5,146.5 229.5,145.5C 234.532,145.366 239.365,144.366 244,142.5C 247.698,145.699 250.865,149.365 253.5,153.5C 253.376,154.107 253.043,154.44 252.5,154.5 Z"/></g>
<g><path style="opacity:1" fill="#fec90d" d="M 185.5,143.5 C 186.984,144.473 187.484,145.807 187,147.5C 186.617,146.944 186.117,146.611 185.5,146.5C 184.602,145.842 183.602,145.176 182.5,144.5C 183.325,143.614 184.325,143.281 185.5,143.5 Z"/></g>
<g><path style="opacity:1" fill="#fec90d" d="M 185.5,146.5 C 185.052,148.465 184.052,148.798 182.5,147.5C 183.325,146.614 184.325,146.281 185.5,146.5 Z"/></g>
<g><path style="opacity:1" fill="#F4D954" d="M 216.5,148.5 C 223.313,149.381 227.98,152.881 230.5,159C 224.316,156.505 217.983,153.838 211.5,151C 213.315,150.243 214.981,149.41 216.5,148.5 Z"/></g>
<g><path style="opacity:1" fill="#F4D954" d="M 237.5,149.5 C 242.838,149.813 247.838,151.479 252.5,154.5C 253.66,155.265 254.66,156.265 255.5,157.5C 255.043,158.298 254.376,158.631 253.5,158.5C 251.017,155.259 247.684,153.592 243.5,153.5C 239.366,152.515 235.032,152.182 230.5,152.5C 230.5,151.5 230.5,150.5 230.5,149.5C 232.833,149.5 235.167,149.5 237.5,149.5 Z"/></g>
<g><path style="opacity:1" fill="#FF3840" d="M 220.5,170.5 C 220.747,167.495 219.747,164.995 217.5,163C 210.479,155.892 203.312,155.725 196,162.5C 194.711,165.351 194.211,168.351 194.5,171.5C 195.342,176.161 195.842,180.828 196,185.5C 192.288,176.381 191.621,167.047 194,157.5C 204.275,149.827 213.275,151.16 221,161.5C 222.551,164.868 223.717,168.368 224.5,172C 222.079,177.835 220.746,177.335 220.5,170.5 Z"/></g>
<g><path style="opacity:1" fill="#D29472" d="M 243.5,153.5 C 247.684,153.592 251.017,155.259 253.5,158.5C 254.172,159.267 255.005,159.934 256,160.5C 257.439,168.129 257.439,175.795 256,183.5C 255.302,184.691 254.469,185.691 253.5,186.5C 252.22,187.931 250.553,188.598 248.5,188.5C 247.041,188.567 245.708,188.234 244.5,187.5C 244.657,186.127 244.49,184.793 244,183.5C 238.425,174.025 234.258,164.025 231.5,153.5C 235.5,153.5 239.5,153.5 243.5,153.5 Z"/></g>
<g><path style="opacity:1" fill="#E0E1E0" d="M 139.5,155.5 C 141.503,156.753 141.503,158.419 139.5,160.5C 138.086,161.624 136.586,162.624 135,163.5C 134.5,163 134,162.5 133.5,162C 137.128,161.21 139.128,159.043 139.5,155.5 Z"/></g>
<g><path style="opacity:1" fill="#CE2C33" d="M 220.5,170.5 C 218.114,166.603 215.114,163.103 211.5,160C 201.903,158.105 196.236,161.939 194.5,171.5C 194.211,168.351 194.711,165.351 196,162.5C 203.312,155.725 210.479,155.892 217.5,163C 219.747,164.995 220.747,167.495 220.5,170.5 Z"/></g>
<g><path style="opacity:1" fill="#74A294" d="M 220.5,158.5 C 221.251,157.427 222.251,157.26 223.5,158C 226.078,160.207 228.911,162.04 232,163.5C 234.894,170.288 238.06,176.955 241.5,183.5C 234.847,183.303 228.18,183.97 221.5,185.5C 220.554,183.925 220.554,182.258 221.5,180.5C 227.293,175.337 228.126,169.337 224,162.5C 223.34,160.676 222.173,159.343 220.5,158.5 Z"/></g>
<g><path style="opacity:1" fill="#865F4A" d="M 168.5,180.5 C 170.829,182.996 170.996,185.663 169,188.5C 167.519,187.529 166.685,186.196 166.5,184.5C 156.809,178.332 147.476,171.498 138.5,164C 140.815,162.891 142.315,161.057 143,158.5C 149.882,164.383 157.048,169.883 164.5,175C 166.469,176.5 167.802,178.333 168.5,180.5 Z"/></g>
<g><path style="opacity:1" fill="#73A093" d="M 181.5,197.5 C 182.262,195.738 183.596,194.738 185.5,194.5C 187.831,193.811 189.831,194.644 191.5,197C 193.256,197.202 194.922,197.702 196.5,198.5C 197.026,200.23 198.026,201.564 199.5,202.5C 199.833,202.167 200.167,201.833 200.5,201.5C 198.87,198.724 198.203,195.724 198.5,192.5C 199.376,192.631 200.043,192.298 200.5,191.5C 201.362,188.401 202.695,185.567 204.5,183C 206.713,182.374 208.88,182.541 211,183.5C 213.502,182.499 214.002,180.833 212.5,178.5C 210.278,177.222 207.944,176.222 205.5,175.5C 203.173,176.823 200.84,178.157 198.5,179.5C 195.07,172.746 196.403,166.912 202.5,162C 210.088,160.877 215.255,164.043 218,171.5C 219.168,186.007 216.834,200.007 211,213.5C 209.278,215.444 207.111,216.444 204.5,216.5C 199.507,216.681 195.507,214.848 192.5,211C 188.901,209.691 185.401,208.191 182,206.5C 181.502,203.518 181.335,200.518 181.5,197.5 Z"/></g>
<g><path style="opacity:1" fill="#F4D954" d="M 135.5,166.5 C 136.251,165.427 137.251,165.26 138.5,166C 145.833,172 153.167,178 160.5,184C 159.833,184.667 159.167,184.667 158.5,184C 151.241,177.567 143.574,171.734 135.5,166.5 Z"/></g>
<g><path style="opacity:1" fill="#657A78" d="M 198.5,192.5 C 198.34,188.378 198.34,184.044 198.5,179.5C 200.84,178.157 203.173,176.823 205.5,175.5C 207.944,176.222 210.278,177.222 212.5,178.5C 214.002,180.833 213.502,182.499 211,183.5C 208.88,182.541 206.713,182.374 204.5,183C 202.695,185.567 201.362,188.401 200.5,191.5C 200.043,192.298 199.376,192.631 198.5,192.5 Z"/></g>
<g><path style="opacity:1" fill="#FFE2B2" d="M 172.5,181.5 C 173.846,183.537 175.18,185.537 176.5,187.5C 174.072,190.697 171.905,194.03 170,197.5C 167.407,196.339 165.741,194.339 165,191.5C 164.764,189.236 164.264,187.069 163.5,185C 164.448,184.517 165.448,184.351 166.5,184.5C 166.685,186.196 167.519,187.529 169,188.5C 170.996,185.663 170.829,182.996 168.5,180.5C 168.821,178.952 169.821,178.285 171.5,178.5C 171.263,179.791 171.596,180.791 172.5,181.5 Z"/></g>
<g><path style="opacity:1" fill="#7C5946" d="M 176.5,187.5 C 175.18,185.537 173.846,183.537 172.5,181.5C 173.251,180.427 174.251,180.26 175.5,181C 179.5,184.333 183.5,187.667 187.5,191C 184.13,189.338 180.463,188.171 176.5,187.5 Z"/></g>
<g><path style="opacity:1" fill="#F4D954" d="M 244.5,187.5 C 236.531,190.992 228.198,191.825 219.5,190C 220.376,188.415 221.709,187.415 223.5,187C 230.599,184.861 237.599,185.027 244.5,187.5 Z"/></g>
<g><path style="opacity:1" fill="#DEC551" d="M 253.5,186.5 C 255.379,186.393 255.712,186.893 254.5,188C 252.975,189.009 251.308,189.509 249.5,189.5C 249.46,192.425 250.293,195.091 252,197.5C 258.475,204.064 265.142,210.398 272,216.5C 273.715,219.556 273.548,222.556 271.5,225.5C 268.381,223.949 265.048,222.949 261.5,222.5C 261.414,221.504 261.748,220.671 262.5,220C 261.906,219.536 261.239,219.369 260.5,219.5C 259.167,217.167 259.167,214.833 260.5,212.5C 263.167,211.5 263.167,210.5 260.5,209.5C 259.29,209.068 258.29,208.401 257.5,207.5C 257.167,206.833 256.833,206.167 256.5,205.5C 255.22,202.507 252.886,199.84 249.5,197.5C 248.492,195.456 247.492,193.456 246.5,191.5C 246.782,190.222 247.449,189.222 248.5,188.5C 250.553,188.598 252.22,187.931 253.5,186.5 Z"/></g>
<g><path style="opacity:1" fill="#6D978B" d="M 246.5,191.5 C 247.492,193.456 248.492,195.456 249.5,197.5C 248.85,197.196 248.183,196.863 247.5,196.5C 245.814,197.857 244.148,199.19 242.5,200.5C 234.611,198.758 226.945,196.425 219.5,193.5C 227.895,193.731 236.228,192.731 244.5,190.5C 245.183,190.863 245.85,191.196 246.5,191.5 Z"/></g>
<g><path style="opacity:1" fill="#fec90d" d="M 185.5,194.5 C 183.596,194.738 182.262,195.738 181.5,197.5C 180.681,200.305 180.181,203.305 180,206.5C 178.047,200.339 179.714,195.672 185,192.5C 185.464,193.094 185.631,193.761 185.5,194.5 Z"/></g>
<g><path style="opacity:1" fill="#3F3F3F" d="M 262.5,194.5 C 263.552,194.351 264.552,194.517 265.5,195C 267.458,197.748 269.291,200.582 271,203.5C 271.414,203.043 271.914,202.709 272.5,202.5C 275.411,205.99 278.078,209.656 280.5,213.5C 278.971,215.188 277.137,216.521 275,217.5C 271,210.833 265.667,205.5 259,201.5C 258.535,200.069 257.701,198.903 256.5,198C 258.432,196.541 260.432,195.375 262.5,194.5 Z"/></g>
<g><path style="opacity:1" fill="#F4D954" d="M 218.5,196.5 C 227.238,198.685 235.905,201.185 244.5,204C 245.347,206.718 246.347,209.384 247.5,212C 237.417,210.362 227.75,207.195 218.5,202.5C 218.08,200.674 218.08,198.674 218.5,196.5 Z"/></g>
<g><path style="opacity:1" fill="#fec90d" d="M 249.5,197.5 C 249.671,200.797 249.005,201.131 247.5,198.5C 246.478,198.855 245.811,199.522 245.5,200.5C 244.348,201.625 243.348,201.625 242.5,200.5C 244.148,199.19 245.814,197.857 247.5,196.5C 248.183,196.863 248.85,197.196 249.5,197.5 Z"/></g>
<g><path style="opacity:1" fill="#4F5B5A" d="M 249.5,197.5 C 252.886,199.84 255.22,202.507 256.5,205.5C 252.22,204.759 248.554,203.093 245.5,200.5C 245.811,199.522 246.478,198.855 247.5,198.5C 249.005,201.131 249.671,200.797 249.5,197.5 Z"/></g>
<g><path style="opacity:1" fill="#586767" d="M 237.5,213.5 C 229.855,213.788 222.522,212.788 215.5,210.5C 215.051,208.023 215.717,206.023 217.5,204.5C 225.387,208.629 233.721,211.463 242.5,213C 240.866,213.494 239.199,213.66 237.5,213.5 Z"/></g>
<g><path style="opacity:1" fill="#f2c118" d="M 255.5,210.5 C 254.766,211.878 254.099,213.378 253.5,215C 254.094,215.464 254.761,215.631 255.5,215.5C 255.5,216.833 255.5,218.167 255.5,219.5C 254.504,219.586 253.671,219.252 253,218.5C 250.408,214.44 248.575,210.106 247.5,205.5C 249.937,205.756 252.271,206.423 254.5,207.5C 255.386,208.325 255.719,209.325 255.5,210.5 Z"/></g>
<g><path style="opacity:1" fill="#000000" d="M 251.5,208.5 C 252.239,208.369 252.906,208.536 253.5,209C 252.119,215.02 251.453,214.853 251.5,208.5 Z"/></g>
<g><path style="opacity:1" fill="#000000" d="M 260.5,209.5 C 263.167,210.5 263.167,211.5 260.5,212.5C 260.5,211.5 260.5,210.5 260.5,209.5 Z"/></g>
<g><path style="opacity:1" fill="#fec90d" d="M 215.5,210.5 C 222.522,212.788 229.855,213.788 237.5,213.5C 240.641,214.321 243.975,214.821 247.5,215C 248.756,215.417 249.423,216.25 249.5,217.5C 237.718,216.569 226.051,214.902 214.5,212.5C 214.328,211.508 214.662,210.842 215.5,210.5 Z"/></g>
<g><path style="opacity:1" fill="#000000" d="M 255.5,210.5 C 255.5,212.167 255.5,213.833 255.5,215.5C 254.761,215.631 254.094,215.464 253.5,215C 254.099,213.378 254.766,211.878 255.5,210.5 Z"/></g>
<g><path style="opacity:1" fill="#536160" d="M 214.5,212.5 C 226.051,214.902 237.718,216.569 249.5,217.5C 250.933,219.519 252.267,221.686 253.5,224C 255.134,224.494 256.801,224.66 258.5,224.5C 261.686,227.61 264.686,230.943 267.5,234.5C 267.539,235.756 267.039,236.756 266,237.5C 259.859,229.033 252.026,222.866 242.5,219C 237.524,218.253 232.524,217.753 227.5,217.5C 223.8,217.343 220.3,218.009 217,219.5C 216.464,217.131 215.297,215.131 213.5,213.5C 213.624,212.893 213.957,212.56 214.5,212.5 Z"/></g>
<g><path style="opacity:1" fill="#000000" d="M 264.5,214.5 C 266.76,215.238 266.927,216.238 265,217.5C 264.517,216.552 264.351,215.552 264.5,214.5 Z"/></g>
<g><path style="opacity:1" fill="#825C48" d="M 212.5,222.5 C 212.473,220.801 211.806,219.467 210.5,218.5C 210.967,215.174 212.134,214.841 214,217.5C 215.766,222.198 217.933,226.698 220.5,231C 219.531,232.758 218.364,233.258 217,232.5C 215.214,229.264 213.714,225.93 212.5,222.5 Z"/></g>
<g><path style="opacity:1" fill="#FDA644" d="M 210.5,218.5 C 211.806,219.467 212.473,220.801 212.5,222.5C 209.092,223.172 206.425,222.172 204.5,219.5C 206.554,218.135 208.554,217.801 210.5,218.5 Z"/></g>
<g><path style="opacity:1" fill="#fec90d" d="M 227.5,220.5 C 228.942,223.22 230.275,226.054 231.5,229C 231.333,230.5 230.5,231.333 229,231.5C 225.244,229.248 222.411,226.248 220.5,222.5C 220.461,221.244 220.961,220.244 222,219.5C 222.793,223.295 224.793,226.295 228,228.5C 228.667,227.5 228.667,226.5 228,225.5C 225.136,223.522 224.469,221.189 226,218.5C 226.278,219.416 226.778,220.082 227.5,220.5 Z"/></g>
<g><path style="opacity:1" fill="#6D978B" d="M 242.5,222.5 C 248.976,245.727 255.476,269.061 262,292.5C 275.062,305.729 288.228,318.729 301.5,331.5C 301.489,333.017 300.823,334.184 299.5,335C 296.417,336.098 293.251,336.932 290,337.5C 286.359,332.519 282.692,327.519 279,322.5C 271.629,315.46 263.962,308.794 256,302.5C 253.412,298.326 251.079,293.993 249,289.5C 244.38,275.635 239.38,261.969 234,248.5C 227.311,242.455 222.644,235.121 220,226.5C 219.009,224.553 218.675,222.553 219,220.5C 219.278,221.416 219.778,222.082 220.5,222.5C 222.411,226.248 225.244,229.248 229,231.5C 230.5,231.333 231.333,230.5 231.5,229C 230.275,226.054 228.942,223.22 227.5,220.5C 227.62,219.414 228.287,218.747 229.5,218.5C 234.253,218.887 238.587,220.22 242.5,222.5 Z"/></g>
<g><path style="opacity:1" fill="#000000" d="M 260.5,219.5 C 261.239,219.369 261.906,219.536 262.5,220C 261.748,220.671 261.414,221.504 261.5,222.5C 260.761,222.631 260.094,222.464 259.5,222C 260.252,221.329 260.586,220.496 260.5,219.5 Z"/></g>
<g><path style="opacity:1" fill="#fec90d" d="M 242.5,222.5 C 243.721,221.535 245.054,221.702 246.5,223C 247.099,224.622 247.766,226.122 248.5,227.5C 253.153,245.777 257.653,264.111 262,282.5C 262.725,284.949 263.725,287.283 265,289.5C 277.776,303.295 291.276,316.295 305.5,328.5C 305.306,330.912 303.973,331.912 301.5,331.5C 288.228,318.729 275.062,305.729 262,292.5C 255.476,269.061 248.976,245.727 242.5,222.5 Z"/></g>
<g><path style="opacity:1" fill="#3E3E3E" d="M 271.5,225.5 C 272.5,225.5 273.5,225.5 274.5,225.5C 274.354,223.058 275.187,222.391 277,223.5C 277.333,222.833 277.667,222.167 278,221.5C 284.816,227.593 291.483,233.927 298,240.5C 298,241.833 298,243.167 298,244.5C 302.333,248.167 306.667,251.833 311,255.5C 311.688,256.332 311.521,256.998 310.5,257.5C 297.869,246.067 284.869,235.401 271.5,225.5 Z"/></g>
<g><path style="opacity:1" fill="#6C968A" d="M 305.5,328.5 C 291.276,316.295 277.776,303.295 265,289.5C 263.725,287.283 262.725,284.949 262,282.5C 257.653,264.111 253.153,245.777 248.5,227.5C 248.272,225.645 248.939,224.812 250.5,225C 255.667,228.833 260.167,233.333 264,238.5C 265.637,254.664 269.304,270.33 275,285.5C 282.724,293.379 290.724,301.046 299,308.5C 302.547,313.62 306.547,318.286 311,322.5C 311.667,323.5 311.667,324.5 311,325.5C 309.259,326.758 307.426,327.758 305.5,328.5 Z"/></g>
<g><path style="opacity:1" fill="#FE3B40" d="M 257.5,207.5 C 258.29,208.401 259.29,209.068 260.5,209.5C 260.5,210.5 260.5,211.5 260.5,212.5C 259.167,214.833 259.167,217.167 260.5,219.5C 260.586,220.496 260.252,221.329 259.5,222C 260.094,222.464 260.761,222.631 261.5,222.5C 264.49,224.978 267.657,227.312 271,229.5C 271.64,232.368 270.473,234.035 267.5,234.5C 264.686,230.943 261.686,227.61 258.5,224.5C 257.469,223.751 256.302,223.085 255,222.5C 254.53,221.423 254.697,220.423 255.5,219.5C 255.5,218.167 255.5,216.833 255.5,215.5C 255.5,213.833 255.5,212.167 255.5,210.5C 256.167,209.5 256.833,208.5 257.5,207.5 Z"/></g>
<g><path style="opacity:1" fill="#74A294" d="M 225.5,243.5 C 224.17,244.832 222.503,245.665 220.5,246C 222.9,246.186 225.234,246.686 227.5,247.5C 225.109,248.982 222.776,250.649 220.5,252.5C 224.603,253.677 228.603,253.344 232.5,251.5C 232.5,251.833 232.5,252.167 232.5,252.5C 231.36,253.801 230.027,254.968 228.5,256C 219.738,257.711 213.072,262.378 208.5,270C 215.575,266.977 222.242,262.977 228.5,258C 229.877,256.759 231.21,256.592 232.5,257.5C 225.51,264.322 218.343,270.989 211,277.5C 210.138,279.087 209.471,280.754 209,282.5C 208.122,298.365 208.622,314.032 210.5,329.5C 210.5,331.833 210.5,334.167 210.5,336.5C 205.823,336.328 202.156,334.328 199.5,330.5C 200.709,313.167 198.709,296.167 193.5,279.5C 201.133,265.372 208.966,251.372 217,237.5C 218.333,236.167 219.667,234.833 221,233.5C 222.254,237.004 223.754,240.337 225.5,243.5 Z"/></g>
<g><path style="opacity:1" fill="#657A78" d="M 225.5,243.5 C 228.916,245.248 231.25,247.914 232.5,251.5C 228.603,253.344 224.603,253.677 220.5,252.5C 222.776,250.649 225.109,248.982 227.5,247.5C 225.234,246.686 222.9,246.186 220.5,246C 222.503,245.665 224.17,244.832 225.5,243.5 Z"/></g>
<g><path style="opacity:1" fill="#617372" d="M 232.5,252.5 C 233.672,255.813 234.505,259.147 235,262.5C 229.113,267.944 224.446,274.277 221,281.5C 220.333,286.167 220.333,290.833 221,295.5C 224.345,309.702 225.178,324.036 223.5,338.5C 219.5,338.167 215.5,337.833 211.5,337.5C 211.806,334.615 211.473,331.948 210.5,329.5C 208.622,314.032 208.122,298.365 209,282.5C 209.471,280.754 210.138,279.087 211,277.5C 218.343,270.989 225.51,264.322 232.5,257.5C 231.21,256.592 229.877,256.759 228.5,258C 222.242,262.977 215.575,266.977 208.5,270C 213.072,262.378 219.738,257.711 228.5,256C 230.027,254.968 231.36,253.801 232.5,252.5 Z"/></g>
<g><path style="opacity:1" fill="#fec90d" d="M 312.5,256.5 C 314.509,258.169 316.509,259.836 318.5,261.5C 318.167,261.833 317.833,262.167 317.5,262.5C 314.467,261.518 312.8,259.518 312.5,256.5 Z"/></g>
<g><path style="opacity:1" fill="#3F3F3F" d="M 308.5,332.5 C 310.833,333.5 311.5,332.833 310.5,330.5C 310.389,329.883 310.056,329.383 309.5,329C 314.34,324.481 317.507,325.648 319,332.5C 319.75,333.126 320.584,333.626 321.5,334C 319.931,337.572 317.598,340.572 314.5,343C 308.732,345.699 302.898,348.199 297,350.5C 297.105,346.538 297.439,342.538 298,338.5C 301,336.167 304,333.833 307,331.5C 307.383,332.056 307.883,332.389 308.5,332.5 Z"/></g>
<g><path style="opacity:1" fill="#fec90d" d="M 310.5,330.5 C 311.5,332.833 310.833,333.5 308.5,332.5C 308.833,331.5 309.5,330.833 310.5,330.5 Z"/></g>
<g><path style="opacity:1" fill="#fec90d" d="M 314.5,335.5 C 316.337,335.639 316.67,336.306 315.5,337.5C 314.702,337.043 314.369,336.376 314.5,335.5 Z"/></g>
<g><path style="opacity:1" fill="#404140" d="M 201.5,336.5 C 208.612,338.876 215.945,340.376 223.5,341C 226.595,344.949 225.928,347.949 221.5,350C 210.532,353.189 201.199,350.522 193.5,342C 196.756,340.884 199.422,339.051 201.5,336.5 Z"/></g>
</svg>
