<?xml version="1.0" encoding="UTF-8"?>
<!DOCTYPE svg PUBLIC "-//W3C//DTD SVG 1.1//EN" "http://www.w3.org/Graphics/SVG/1.1/DTD/svg11.dtd">
<svg xmlns="http://www.w3.org/2000/svg" version="1.1" width="480px" height="400px" style="shape-rendering:geometricPrecision; text-rendering:geometricPrecision; image-rendering:optimizeQuality; fill-rule:evenodd; clip-rule:evenodd" xmlns:xlink="http://www.w3.org/1999/xlink">
<g><path style="opacity:1" fill="#fefffe" d="M 333.5,15.5 C 337.514,15.3345 341.514,15.5012 345.5,16C 348.283,18.2635 351.45,19.7635 355,20.5C 355.263,25.0172 356.263,29.3505 358,33.5C 358.796,37.7548 358.629,41.9215 357.5,46C 360.944,49.1108 363.111,52.9441 364,57.5C 364.967,74.2113 366.134,90.878 367.5,107.5C 370.187,107.336 372.854,107.503 375.5,108C 378.89,110.11 382.557,111.777 386.5,113C 394.672,120.157 396.839,128.99 393,139.5C 391.333,141.167 389.667,142.833 388,144.5C 387.894,159.206 387.227,173.873 386,188.5C 383.667,193.5 381.333,198.5 379,203.5C 377.786,205.049 376.286,206.215 374.5,207C 375.191,208.067 375.691,209.234 376,210.5C 376.667,220.167 376.667,229.833 376,239.5C 374.989,240.337 373.822,240.67 372.5,240.5C 372.5,243.5 372.5,246.5 372.5,249.5C 369.833,249.5 367.167,249.5 364.5,249.5C 364.896,252.044 364.229,254.211 362.5,256C 358.179,256.499 353.846,256.666 349.5,256.5C 348.915,261.773 347.915,266.94 346.5,272C 348.121,274.166 348.955,276.666 349,279.5C 350.667,281.167 352.333,282.833 354,284.5C 360.743,296.31 366.077,308.644 370,321.5C 371.667,323.833 373.333,326.167 375,328.5C 375.638,335.208 375.305,341.874 374,348.5C 373.5,349 373,349.5 372.5,350C 360.145,350.054 347.812,349.388 335.5,348C 331.841,348.037 328.674,346.871 326,344.5C 325.333,340.167 325.333,335.833 326,331.5C 327.491,329.996 329.324,329.163 331.5,329C 328.232,321.63 324.565,314.463 320.5,307.5C 319.803,311.377 319.136,315.21 318.5,319C 319.647,326.754 319.814,334.587 319,342.5C 317.211,344.229 315.044,344.896 312.5,344.5C 313.509,349.796 313.676,355.129 313,360.5C 298.264,370.303 282.097,374.803 264.5,374C 262.899,373.727 261.399,373.227 260,372.5C 259.333,367.833 259.333,363.167 260,358.5C 264.39,355.564 268.223,352.064 271.5,348C 274.661,346.587 277.661,344.92 280.5,343C 278.9,333.358 279.733,323.858 283,314.5C 283.858,302.82 284.858,291.153 286,279.5C 289.136,265.452 292.97,251.619 297.5,238C 295.445,227.297 294.945,216.464 296,205.5C 299.187,194.076 300.353,182.41 299.5,170.5C 291.186,171.338 283.519,169.505 276.5,165C 269.167,159.667 261.833,154.333 254.5,149C 251.62,145.822 249.62,142.156 248.5,138C 243.061,137.115 238.728,134.448 235.5,130C 205.864,126.912 176.198,124.245 146.5,122C 136.879,119.107 126.879,117.44 116.5,117C 114.209,113.281 110.876,111.615 106.5,112C 84.3434,110.366 62.3434,107.866 40.5,104.5C 39.8722,94.7627 44.5389,91.0961 54.5,93.5C 122.455,98.008 190.455,102.341 258.5,106.5C 258.261,104.533 258.594,102.699 259.5,101C 263.833,100.333 268.167,100.333 272.5,101C 273.167,102.333 273.833,103.667 274.5,105C 279.167,105.333 283.833,105.667 288.5,106C 289.423,108.041 289.756,110.208 289.5,112.5C 295.842,112.666 302.175,112.5 308.5,112C 307.584,111.626 306.75,111.126 306,110.5C 305.502,107.183 305.335,103.85 305.5,100.5C 301.646,100.159 298.146,98.8256 295,96.5C 291.72,75.8259 297.554,58.3259 312.5,44C 315.622,42.3554 318.788,40.8554 322,39.5C 322.303,35.106 322.97,30.7727 324,26.5C 327.75,23.2562 330.917,19.5895 333.5,15.5 Z M 354.5,110.5 C 356.646,110.696 356.812,111.696 355,113.5C 354.517,112.552 354.351,111.552 354.5,110.5 Z"/></g>
<g><path style="opacity:1" fill="#000000" d="M 335.5,17.5 C 338.187,17.3359 340.854,17.5026 343.5,18C 346.283,20.2635 349.45,21.7635 353,22.5C 354.159,28.1569 355.325,33.8235 356.5,39.5C 354.31,45.0598 355.477,49.7265 360,53.5C 360.973,55.3921 361.64,57.3921 362,59.5C 363.089,75.5477 364.089,91.5477 365,107.5C 360.667,108.833 356.333,108.833 352,107.5C 352.001,110.827 352.501,114.16 353.5,117.5C 356.385,114.946 359.385,112.446 362.5,110C 366.167,109.333 369.833,109.333 373.5,110C 376.89,112.11 380.557,113.777 384.5,115C 392.517,120.733 394.684,128.233 391,137.5C 388.65,139.683 386.483,142.016 384.5,144.5C 385.905,158.497 385.739,172.497 384,186.5C 381.667,191.5 379.333,196.5 377,201.5C 375.048,203.894 372.548,205.394 369.5,206C 372.094,207.339 373.594,209.506 374,212.5C 374.667,220.833 374.667,229.167 374,237.5C 372.989,238.337 371.822,238.67 370.5,238.5C 370.5,241.5 370.5,244.5 370.5,247.5C 367.833,247.5 365.167,247.5 362.5,247.5C 362.896,250.044 362.229,252.211 360.5,254C 357.167,254.667 353.833,254.667 350.5,254C 349.667,253.167 348.833,252.333 348,251.5C 347.019,258.366 345.853,265.199 344.5,272C 345.005,277.872 347.505,282.705 352,286.5C 356.667,295.833 361.333,305.167 366,314.5C 366.152,320.802 368.485,326.136 373,330.5C 373.478,335.868 373.145,341.201 372,346.5C 370.352,348.028 368.352,348.695 366,348.5C 356.508,347.584 347.008,346.751 337.5,346C 328.652,346.152 325.486,341.986 328,333.5C 331.306,331.968 334.806,330.801 338.5,330C 336.552,329.017 334.718,327.85 333,326.5C 328.606,316.711 323.939,307.045 319,297.5C 318.166,304.67 317.333,311.837 316.5,319C 317.577,326.141 317.744,333.307 317,340.5C 314.757,341.971 312.257,342.971 309.5,343.5C 311.209,348.38 311.709,353.38 311,358.5C 297.463,367.458 282.63,371.958 266.5,372C 264.899,371.727 263.399,371.227 262,370.5C 261.333,367.167 261.333,363.833 262,360.5C 266.39,357.564 270.223,354.064 273.5,350C 277.898,348.476 281.565,345.976 284.5,342.5C 281.992,340.728 280.992,338.228 281.5,335C 284.903,317.339 287.07,299.506 288,281.5C 291.165,266.667 295.332,252.167 300.5,238C 298.019,232.142 297.019,225.975 297.5,219.5C 296.982,211.567 298.149,203.9 301,196.5C 301.5,187.173 301.666,177.839 301.5,168.5C 293.186,169.338 285.519,167.505 278.5,163C 271.167,157.667 263.833,152.333 256.5,147C 253.62,143.822 251.62,140.156 250.5,136C 245.061,135.115 240.728,132.448 237.5,128C 207.864,124.912 178.198,122.245 148.5,120C 138.879,117.107 128.879,115.44 118.5,115C 116.209,111.281 112.876,109.615 108.5,110C 86.3434,108.366 64.3434,105.866 42.5,102.5C 42.2148,100.712 42.5481,99.0453 43.5,97.5C 46.9709,95.9663 50.6375,95.2996 54.5,95.5C 123.155,99.9437 191.822,104.61 260.5,109.5C 260.338,107.473 260.505,105.473 261,103.5C 264.073,102.383 267.24,102.216 270.5,103C 271.218,104.987 272.218,106.821 273.5,108.5C 277.777,107.394 282.11,107.228 286.5,108C 287.071,110.611 287.904,113.111 289,115.5C 296.443,114.849 303.943,114.182 311.5,113.5C 311.709,112.914 312.043,112.414 312.5,112C 306.748,108.819 306.081,104.819 310.5,100C 305.597,99.1312 301.097,97.2979 297,94.5C 294.526,75.2501 300.359,59.0834 314.5,46C 317.622,44.3554 320.788,42.8554 324,41.5C 324.303,37.106 324.97,32.7727 326,28.5C 329.75,25.2562 332.917,21.5895 335.5,17.5 Z M 354.5,110.5 C 354.351,111.552 354.517,112.552 355,113.5C 356.812,111.696 356.646,110.696 354.5,110.5 Z"/></g>
<g><path style="opacity:1" fill="#5bab5b" d="M 338.5,23.5 C 341.382,24.8113 344.382,25.9779 347.5,27C 346.426,27.7387 345.759,28.7387 345.5,30C 346.638,32.1374 348.138,33.9707 350,35.5C 350.495,37.4727 350.662,39.4727 350.5,41.5C 347.565,41.7167 344.731,42.3834 342,43.5C 338.173,42.3644 334.339,42.3644 330.5,43.5C 329.17,39.7969 329.336,36.1303 331,32.5C 334.088,29.9186 336.588,26.9186 338.5,23.5 Z"/></g>
<g><path style="opacity:1" fill="#66ba66" d="M 356.5,63.5 C 354.248,60.0676 351.748,56.7342 349,53.5C 346.882,58.0941 344.048,62.0941 340.5,65.5C 339.508,65.6716 338.842,65.3382 338.5,64.5C 338.5,64.1667 338.5,63.8333 338.5,63.5C 341.285,59.5421 344.285,55.7088 347.5,52C 345.322,49.7719 342.655,48.6053 339.5,48.5C 335.5,47.1667 331.5,47.1667 327.5,48.5C 326.448,48.3505 325.448,48.5172 324.5,49C 318.074,55.3683 312.241,62.2016 307,69.5C 305.69,73.0704 304.857,76.737 304.5,80.5C 303.834,83.6893 303.167,87.0227 302.5,90.5C 301.532,74.9153 306.866,61.7486 318.5,51C 333.123,40.8758 345.29,43.0424 355,57.5C 356.128,59.3453 356.628,61.3453 356.5,63.5 Z"/></g>
<g><path style="opacity:1" fill="#000000" d="M 327.5,48.5 C 331.5,47.1667 335.5,47.1667 339.5,48.5C 336.167,48.5 332.833,48.5 329.5,48.5C 329.5,51.1667 329.5,53.8333 329.5,56.5C 328.833,53.8333 328.167,51.1667 327.5,48.5 Z"/></g>
<g><path style="opacity:1" fill="#68bd67" d="M 327.5,48.5 C 328.167,51.1667 328.833,53.8333 329.5,56.5C 329.663,58.8568 329.497,61.1902 329,63.5C 328.79,61.9419 328.29,60.6085 327.5,59.5C 326.911,55.7332 326.911,52.0665 327.5,48.5 Z"/></g>
<g><path style="opacity:1" fill="#737c66" d="M 339.5,48.5 C 342.655,48.6053 345.322,49.7719 347.5,52C 344.285,55.7088 341.285,59.5421 338.5,63.5C 335.833,63.5 333.167,63.5 330.5,63.5C 330.802,60.9407 330.468,58.6074 329.5,56.5C 329.5,53.8333 329.5,51.1667 329.5,48.5C 332.833,48.5 336.167,48.5 339.5,48.5 Z"/></g>
<g><path style="opacity:1" fill="#727b65" d="M 327.5,48.5 C 326.911,52.0665 326.911,55.7332 327.5,59.5C 327.768,61.099 327.434,62.4324 326.5,63.5C 325.844,62.7222 325.011,62.0556 324,61.5C 323.5,61.8333 323,62.1667 322.5,62.5C 323.432,64.7954 324.265,67.1287 325,69.5C 326.812,71.3003 328.645,72.9669 330.5,74.5C 330.5,75.8333 330.5,77.1667 330.5,78.5C 327.482,81.7857 328.148,84.1191 332.5,85.5C 336.032,84.8417 337.032,83.0083 335.5,80C 333.634,81.0084 332.301,80.5084 331.5,78.5C 331.5,77.5 331.5,76.5 331.5,75.5C 333.124,75.3601 334.29,76.0267 335,77.5C 335.953,75.4078 337.286,75.0745 339,76.5C 339.464,75.9056 339.631,75.2389 339.5,74.5C 344.374,72.2989 347.374,68.6322 348.5,63.5C 346.641,63.4609 345.308,64.2942 344.5,66C 342.934,66.765 341.601,66.5983 340.5,65.5C 344.048,62.0941 346.882,58.0941 349,53.5C 351.748,56.7342 354.248,60.0676 356.5,63.5C 356.54,68.1925 356.873,72.8592 357.5,77.5C 357.5,79.5 357.5,81.5 357.5,83.5C 357.306,89.1198 356.306,94.4531 354.5,99.5C 348.474,99.0512 342.474,98.3845 336.5,97.5C 327.952,94.6877 319.286,91.8544 310.5,89C 308.905,86.8981 306.905,85.3981 304.5,84.5C 304.5,83.1667 304.5,81.8333 304.5,80.5C 304.857,76.737 305.69,73.0704 307,69.5C 312.241,62.2016 318.074,55.3683 324.5,49C 325.448,48.5172 326.448,48.3505 327.5,48.5 Z"/></g>
<g><path style="opacity:1" fill="#000000" d="M 329.5,56.5 C 330.468,58.6074 330.802,60.9407 330.5,63.5C 333.167,63.5 335.833,63.5 338.5,63.5C 338.5,63.8333 338.5,64.1667 338.5,64.5C 334.298,64.8168 330.298,64.4834 326.5,63.5C 327.434,62.4324 327.768,61.099 327.5,59.5C 328.29,60.6085 328.79,61.9419 329,63.5C 329.497,61.1902 329.663,58.8568 329.5,56.5 Z"/></g>
<g><path style="opacity:1" fill="#dae8dd" d="M 326.5,63.5 C 330.298,64.4834 334.298,64.8168 338.5,64.5C 338.842,65.3382 339.508,65.6716 340.5,65.5C 341.601,66.5983 342.934,66.765 344.5,66C 345.308,64.2942 346.641,63.4609 348.5,63.5C 347.374,68.6322 344.374,72.2989 339.5,74.5C 336.5,74.5 333.5,74.5 330.5,74.5C 328.645,72.9669 326.812,71.3003 325,69.5C 324.265,67.1287 323.432,64.7954 322.5,62.5C 323,62.1667 323.5,61.8333 324,61.5C 325.011,62.0556 325.844,62.7222 326.5,63.5 Z"/></g>
<g><path style="opacity:1" fill="#68bd67" d="M 356.5,63.5 C 358.163,68.1202 358.497,72.7869 357.5,77.5C 356.873,72.8592 356.54,68.1925 356.5,63.5 Z"/></g>
<g><path style="opacity:1" fill="#1e261c" d="M 331.5,66.5 C 330.549,67.9187 330.216,69.5853 330.5,71.5C 323.7,67.4731 324.033,65.8064 331.5,66.5 Z"/></g>
<g><path style="opacity:1" fill="#808b71" d="M 331.5,66.5 C 333.265,67.4614 335.265,67.7947 337.5,67.5C 337.5,68.5 337.5,69.5 337.5,70.5C 335.283,71.3686 332.95,71.702 330.5,71.5C 330.216,69.5853 330.549,67.9187 331.5,66.5 Z"/></g>
<g><path style="opacity:1" fill="#000000" d="M 331.5,66.5 C 333.857,66.3367 336.19,66.5034 338.5,67C 342.617,67.5492 343.284,69.2159 340.5,72C 336.973,72.8075 333.64,72.6408 330.5,71.5C 332.95,71.702 335.283,71.3686 337.5,70.5C 337.5,69.5 337.5,68.5 337.5,67.5C 335.265,67.7947 333.265,67.4614 331.5,66.5 Z"/></g>
<g><path style="opacity:1" fill="#68bd67" d="M 337.5,70.5 C 338.151,69.9094 338.818,69.2427 339.5,68.5C 340.687,69.8244 340.354,70.8244 338.5,71.5C 337.893,71.3764 337.56,71.0431 337.5,70.5 Z"/></g>
<g><path style="opacity:1" fill="#000000" d="M 330.5,74.5 C 333.5,74.5 336.5,74.5 339.5,74.5C 339.631,75.2389 339.464,75.9056 339,76.5C 337.286,75.0745 335.953,75.4078 335,77.5C 334.29,76.0267 333.124,75.3601 331.5,75.5C 331.5,76.5 331.5,77.5 331.5,78.5C 331.167,78.5 330.833,78.5 330.5,78.5C 330.5,77.1667 330.5,75.8333 330.5,74.5 Z"/></g>
<g><path style="opacity:1" fill="#dae8dd" d="M 330.5,78.5 C 330.833,78.5 331.167,78.5 331.5,78.5C 332.301,80.5084 333.634,81.0084 335.5,80C 337.032,83.0083 336.032,84.8417 332.5,85.5C 328.148,84.1191 327.482,81.7857 330.5,78.5 Z"/></g>
<g><path style="opacity:1" fill="#68bd67" d="M 357.5,83.5 C 358.281,90.0191 358.948,96.6858 359.5,103.5C 356.984,103.245 354.65,102.411 352.5,101C 353.416,100.722 354.082,100.222 354.5,99.5C 356.306,94.4531 357.306,89.1198 357.5,83.5 Z"/></g>
<g><path style="opacity:1" fill="#2c4137" d="M 304.5,84.5 C 306.905,85.3981 308.905,86.8981 310.5,89C 319.286,91.8544 327.952,94.6877 336.5,97.5C 329.885,96.3519 323.385,94.6852 317,92.5C 315.416,92.9884 314.249,93.9884 313.5,95.5C 310.719,94.0932 307.886,92.7599 305,91.5C 304.503,89.1902 304.337,86.8568 304.5,84.5 Z"/></g>
<g><path style="opacity:1" fill="#dc7731" d="M 322.5,99.5 C 322.167,99.5 321.833,99.5 321.5,99.5C 319.565,100.15 317.565,100.483 315.5,100.5C 316.815,98.8653 316.815,97.1986 315.5,95.5C 317.466,94.628 319.466,94.7947 321.5,96C 322.337,97.0113 322.67,98.1779 322.5,99.5 Z"/></g>
<g><path style="opacity:1" fill="#000000" d="M 317.5,96.5 C 320.001,96.5109 320.168,97.1776 318,98.5C 317.536,97.9056 317.369,97.2389 317.5,96.5 Z"/></g>
<g><path style="opacity:1" fill="#492d13" d="M 326.5,100.5 C 326.721,103.279 326.388,105.946 325.5,108.5C 325.784,110.415 325.451,112.081 324.5,113.5C 323.71,114.609 323.21,115.942 323,117.5C 322.329,118.252 321.496,118.586 320.5,118.5C 319.876,118.083 319.543,117.416 319.5,116.5C 320.729,110.897 321.396,105.23 321.5,99.5C 321.833,99.5 322.167,99.5 322.5,99.5C 324.507,95.4849 325.84,95.8182 326.5,100.5 Z"/></g>
<g><path style="opacity:1" fill="#c09460" d="M 334.5,101.5 C 334.634,103.292 334.301,104.958 333.5,106.5C 331.579,110.703 328.912,111.369 325.5,108.5C 326.388,105.946 326.721,103.279 326.5,100.5C 327.158,99.6016 327.824,98.6016 328.5,97.5C 331.225,97.937 333.225,99.2704 334.5,101.5 Z"/></g>
<g><path style="opacity:1" fill="#c2c3c2" d="M 118.5,105.5 C 95.5117,104.603 72.5117,102.77 49.5,100C 70.8478,100.334 92.1811,101.334 113.5,103C 115.491,103.374 117.158,104.207 118.5,105.5 Z"/></g>
<g><path style="opacity:1" fill="#ebb573" d="M 321.5,99.5 C 321.396,105.23 320.729,110.897 319.5,116.5C 319.543,117.416 319.876,118.083 320.5,118.5C 320.44,119.043 320.107,119.376 319.5,119.5C 318.15,118.05 316.484,117.383 314.5,117.5C 314.993,115.194 315.326,112.861 315.5,110.5C 316.794,111.29 317.961,112.29 319,113.5C 319.972,110.706 319.139,108.706 316.5,107.5C 316.631,106.761 316.464,106.094 316,105.5C 314.186,106.76 312.353,106.76 310.5,105.5C 311.855,103.479 313.521,101.812 315.5,100.5C 317.565,100.483 319.565,100.15 321.5,99.5 Z"/></g>
<g><path style="opacity:1" fill="#9e3f01" d="M 338.5,110.5 C 336.738,109.738 335.738,108.404 335.5,106.5C 335.784,104.585 335.451,102.919 334.5,101.5C 334.369,100.761 334.536,100.094 335,99.5C 338.782,100.739 342.615,101.905 346.5,103C 347.367,105.316 346.701,107.316 344.5,109C 342.496,110.562 340.496,111.062 338.5,110.5 Z"/></g>
<g><path style="opacity:1" fill="#000000" d="M 334.5,101.5 C 335.451,102.919 335.784,104.585 335.5,106.5C 334.833,106.5 334.167,106.5 333.5,106.5C 334.301,104.958 334.634,103.292 334.5,101.5 Z"/></g>
<g><path style="opacity:1" fill="#000000" d="M 328.5,103.5 C 330.973,103.947 331.14,104.947 329,106.5C 328.517,105.552 328.351,104.552 328.5,103.5 Z"/></g>
<g><path style="opacity:1" fill="#b6b6b6" d="M 118.5,105.5 C 122.348,105.689 126.015,105.689 129.5,105.5C 133.481,106.506 133.481,107.506 129.5,108.5C 130.376,109.251 131.376,109.751 132.5,110C 129.063,109.793 125.73,109.793 122.5,110C 120.959,108.629 119.625,107.129 118.5,105.5 Z"/></g>
<g><path style="opacity:1" fill="#c2c3c2" d="M 264.5,105.5 C 267.694,105.176 268.694,106.342 267.5,109C 268.627,110.753 269.627,112.587 270.5,114.5C 265.978,116.314 264.978,115.481 267.5,112C 266.324,110.326 264.99,108.826 263.5,107.5C 263.863,106.817 264.196,106.15 264.5,105.5 Z"/></g>
<g><path style="opacity:1" fill="#fec90d" d="M 133.5,106.5 C 134.5,106.5 135.5,106.5 136.5,106.5C 136.5,108.167 136.5,109.833 136.5,111.5C 135.5,111.5 134.5,111.5 133.5,111.5C 133.5,109.833 133.5,108.167 133.5,106.5 Z"/></g>
<g><path style="opacity:1" fill="#c2c3c2" d="M 138.5,106.5 C 180.58,108.768 222.58,111.934 264.5,116C 225.009,113.81 185.509,111.31 146,108.5C 143.071,108.475 140.571,107.809 138.5,106.5 Z"/></g>
<g><path style="opacity:1" fill="#d66d20" d="M 333.5,106.5 C 334.167,106.5 334.833,106.5 335.5,106.5C 335.738,108.404 336.738,109.738 338.5,110.5C 334.343,113.449 329.677,115.449 324.5,116.5C 324.5,115.5 324.5,114.5 324.5,113.5C 325.451,112.081 325.784,110.415 325.5,108.5C 328.912,111.369 331.579,110.703 333.5,106.5 Z"/></g>
<g><path style="opacity:1" fill="#a54200" d="M 316.5,107.5 C 319.139,108.706 319.972,110.706 319,113.5C 317.961,112.29 316.794,111.29 315.5,110.5C 311.188,108.147 311.522,107.147 316.5,107.5 Z"/></g>
<g><path style="opacity:1" fill="#6b432d" d="M 236.5,117.5 C 236.527,119.199 237.194,120.533 238.5,121.5C 238.083,122.124 237.416,122.457 236.5,122.5C 208.533,119.609 180.533,117.109 152.5,115C 147.42,114.026 142.42,112.693 137.5,111C 170.718,111.915 203.718,114.081 236.5,117.5 Z"/></g>
<g><path style="opacity:1" fill="#b7b7b7" d="M 278.5,110.5 C 283.587,110.284 284.587,112.118 281.5,116C 279.167,116.667 276.833,116.667 274.5,116C 276.102,114.358 277.435,112.525 278.5,110.5 Z"/></g>
<g><path style="opacity:1" fill="#fefffe" d="M 342.5,114.5 C 336.95,115.796 331.617,117.463 326.5,119.5C 324.621,119.607 324.288,119.107 325.5,118C 331.899,116.423 338.065,114.256 344,111.5C 344.5,112 345,112.5 345.5,113C 344.263,113.232 343.263,113.732 342.5,114.5 Z"/></g>
<g><path style="opacity:1" fill="#61b061" d="M 342.5,114.5 C 344.167,114.5 345.833,114.5 347.5,114.5C 347.178,119.444 347.178,124.277 347.5,129C 345.926,129.699 344.593,129.365 343.5,128C 337.115,127.207 330.782,127.374 324.5,128.5C 321.378,124.422 322.044,121.422 326.5,119.5C 331.617,117.463 336.95,115.796 342.5,114.5 Z"/></g>
<g><path style="opacity:1" fill="#5e3b28" d="M 288.5,122.5 C 288.47,123.497 288.97,124.164 290,124.5C 291.667,123.833 293.333,123.167 295,122.5C 296.887,123.755 298.72,123.755 300.5,122.5C 307.406,124.353 314.406,126.02 321.5,127.5C 321.649,128.552 321.483,129.552 321,130.5C 316.737,132.928 312.903,135.928 309.5,139.5C 305.152,139.183 302.152,137.183 300.5,133.5C 298.833,133.5 297.167,133.5 295.5,133.5C 295.646,131.058 294.813,130.391 293,131.5C 292.009,128.419 290.176,127.752 287.5,129.5C 286.5,129.5 285.5,129.5 284.5,129.5C 283.5,129.167 282.833,128.5 282.5,127.5C 280.369,126.686 278.036,126.186 275.5,126C 274.833,125.333 274.167,124.667 273.5,124C 275.134,123.506 276.801,123.34 278.5,123.5C 279.043,123.44 279.376,123.107 279.5,122.5C 277.833,122.167 276.167,121.833 274.5,121.5C 271.298,120.859 268.298,120.859 265.5,121.5C 264.486,122.674 263.153,123.34 261.5,123.5C 255.323,122.018 248.99,120.852 242.5,120C 240.934,119.392 239.6,118.558 238.5,117.5C 248.634,117.918 258.968,117.918 269.5,117.5C 273.829,118.037 278.162,118.537 282.5,119C 284.432,120.459 286.432,121.625 288.5,122.5 Z"/></g>
<g><path style="opacity:1" fill="#ebb573" d="M 236.5,117.5 C 237.167,117.5 237.833,117.5 238.5,117.5C 239.6,118.558 240.934,119.392 242.5,120C 248.99,120.852 255.323,122.018 261.5,123.5C 258.452,125.923 256.118,128.923 254.5,132.5C 251.461,131.431 248.461,130.265 245.5,129C 242.933,126.604 240.6,124.104 238.5,121.5C 237.194,120.533 236.527,119.199 236.5,117.5 Z"/></g>
<g><path style="opacity:1" fill="#ebb573" d="M 300.5,122.5 C 298.72,123.755 296.887,123.755 295,122.5C 293.333,123.167 291.667,123.833 290,124.5C 288.97,124.164 288.47,123.497 288.5,122.5C 292.63,118.649 296.63,118.649 300.5,122.5 Z"/></g>
<g><path style="opacity:1" fill="#7cc459" d="M 303.5,119.5 C 307.542,119.523 311.208,120.689 314.5,123C 310.631,122.159 306.631,121.492 302.5,121C 303.056,120.617 303.389,120.117 303.5,119.5 Z"/></g>
<g><path style="opacity:1" fill="#fec90d" d="M 265.5,121.5 C 268.298,120.859 271.298,120.859 274.5,121.5C 276.167,121.833 277.833,122.167 279.5,122.5C 279.376,123.107 279.043,123.44 278.5,123.5C 274.146,124.013 269.812,123.347 265.5,121.5 Z"/></g>
<g><path style="opacity:1" fill="#808871" d="M 366.5,114.5 C 370.936,116.624 375.603,118.457 380.5,120C 383.612,122.439 385.945,125.439 387.5,129C 381.276,143 370.276,148 354.5,144C 349.279,142.384 346.279,138.884 345.5,133.5C 346.76,132.618 347.926,131.618 349,130.5C 352.889,140.02 359.723,142.853 369.5,139C 373.665,134.535 373.332,130.535 368.5,127C 365.129,126.256 361.963,126.756 359,128.5C 358.167,132.836 360,134.836 364.5,134.5C 364.719,133.325 364.386,132.325 363.5,131.5C 362.727,134.256 361.393,133.922 359.5,130.5C 364.66,125.958 368.66,126.791 371.5,133C 370.165,137.687 366.998,139.853 362,139.5C 355.741,139.239 351.908,136.073 350.5,130C 352.961,127.703 355.294,125.203 357.5,122.5C 360.443,121.756 363.443,121.256 366.5,121C 364.833,120.667 363.167,120.333 361.5,120C 363.201,118.161 364.868,116.327 366.5,114.5 Z"/></g>
<g><path style="opacity:1" fill="#7cc459" d="M 264.5,124.5 C 267.073,124.148 269.406,124.648 271.5,126C 265.896,129.603 261.729,134.437 259,140.5C 256.385,133.508 258.218,128.174 264.5,124.5 Z"/></g>
<g><path style="opacity:1" fill="#848b74" d="M 279.5,132.5 C 280.167,132.5 280.5,132.833 280.5,133.5C 284.868,141.439 291.702,145.105 301,144.5C 307.472,143.648 313.972,143.314 320.5,143.5C 320.393,141.097 321.393,139.264 323.5,138C 326.211,136.78 329.044,135.947 332,135.5C 336.934,137.594 341.767,139.927 346.5,142.5C 347.951,145.81 348.618,149.31 348.5,153C 347.304,162.575 345.971,172.075 344.5,181.5C 339.703,177.861 335.703,173.361 332.5,168C 343.091,163.789 346.924,156.289 344,145.5C 343.333,144.833 342.667,144.167 342,143.5C 345.551,158.967 339.217,166.301 323,165.5C 313.484,164.873 303.984,164.04 294.5,163C 290.281,161.891 286.281,160.225 282.5,158C 275.167,152.667 267.833,147.333 260.5,142C 263.386,136.06 267.553,131.227 273,127.5C 274.529,128.729 275.696,130.229 276.5,132C 277.448,132.483 278.448,132.649 279.5,132.5 Z"/></g>
<g><path style="opacity:1" fill="#8b6b1d" d="M 282.5,127.5 C 282.833,128.5 283.5,129.167 284.5,129.5C 283.5,131.167 282.167,132.5 280.5,133.5C 280.5,132.833 280.167,132.5 279.5,132.5C 277.891,131.102 277.058,129.435 277,127.5C 278.626,127.854 280.459,127.854 282.5,127.5 Z"/></g>
<g><path style="opacity:1" fill="#b6b289" d="M 326.5,129.5 C 331.844,129.334 337.177,129.501 342.5,130C 344.504,132.841 345.004,136.007 344,139.5C 334.708,131.302 325.875,131.802 317.5,141C 315.5,141.667 313.5,141.667 311.5,141C 316.208,136.662 321.208,132.828 326.5,129.5 Z"/></g>
<g><path style="opacity:1" fill="#e3ae70" d="M 300.5,133.5 C 299.685,135.302 298.185,136.302 296,136.5C 293.526,134.287 290.693,132.954 287.5,132.5C 287.5,131.5 287.5,130.5 287.5,129.5C 290.176,127.752 292.009,128.419 293,131.5C 294.813,130.391 295.646,131.058 295.5,133.5C 297.167,133.5 298.833,133.5 300.5,133.5 Z"/></g>
<g><path style="opacity:1" fill="#494d3f" d="M 346.5,142.5 C 349.54,143.68 352.206,145.347 354.5,147.5C 352.103,149.456 352.103,151.29 354.5,153C 353.572,153.388 352.905,154.055 352.5,155C 353.614,162.129 353.781,169.296 353,176.5C 352.594,179.742 351.761,182.742 350.5,185.5C 349.883,185.611 349.383,185.944 349,186.5C 347.242,184.917 345.742,183.25 344.5,181.5C 345.971,172.075 347.304,162.575 348.5,153C 348.618,149.31 347.951,145.81 346.5,142.5 Z"/></g>
<g><path style="opacity:1" fill="#4a8e7e" d="M 371.5,194.5 C 373.092,190.068 374.259,185.402 375,180.5C 375.824,171.324 375.657,162.324 374.5,153.5C 374.187,150.753 374.52,148.086 375.5,145.5C 376.167,145.167 376.833,144.833 377.5,144.5C 378.806,145.912 379.64,147.579 380,149.5C 380.667,158.5 380.667,167.5 380,176.5C 379.654,179.576 378.988,182.576 378,185.5C 375.452,189.263 373.452,193.263 372,197.5C 371.517,196.552 371.351,195.552 371.5,194.5 Z"/></g>
<g><path style="opacity:1" fill="#59684f" d="M 374.5,153.5 C 375.657,162.324 375.824,171.324 375,180.5C 374.259,185.402 373.092,190.068 371.5,194.5C 368.405,195.119 368.071,196.119 370.5,197.5C 369.45,199.873 367.617,200.873 365,200.5C 360.049,198.273 354.882,196.606 349.5,195.5C 349.5,194.5 349.5,193.5 349.5,192.5C 353.838,192.378 354.172,192.045 350.5,191.5C 350.5,189.5 350.5,187.5 350.5,185.5C 351.761,182.742 352.594,179.742 353,176.5C 353.781,169.296 353.614,162.129 352.5,155C 352.905,154.055 353.572,153.388 354.5,153C 352.103,151.29 352.103,149.456 354.5,147.5C 360.446,147.596 366.446,147.263 372.5,146.5C 373.938,148.998 373.604,151.164 371.5,153C 372.448,153.483 373.448,153.649 374.5,153.5 Z"/></g>
<g><path style="opacity:1" fill="#424d42" d="M 333.5,211.5 C 326.124,209.6 319.124,206.934 312.5,203.5C 310.932,191.236 309.599,178.903 308.5,166.5C 309.5,166.5 310.5,166.5 311.5,166.5C 315.325,182.819 322.825,197.152 334,209.5C 334.692,210.437 334.525,211.103 333.5,211.5 Z"/></g>
<g><path style="opacity:1" fill="#858e75" d="M 321.5,171.5 C 325.554,176.221 329.887,180.554 334.5,184.5C 335.688,185.364 336.855,186.364 338,187.5C 338.333,187.167 338.667,186.833 339,186.5C 343.002,188.348 346.169,191.015 348.5,194.5C 345.649,200.358 341.982,205.692 337.5,210.5C 331.395,203.39 326.061,195.724 321.5,187.5C 324.069,188.396 326.069,190.062 327.5,192.5C 328.645,191.224 328.645,189.891 327.5,188.5C 324.749,184.743 321.415,181.743 317.5,179.5C 316.469,175.573 315.135,171.739 313.5,168C 317.221,166.957 319.887,168.123 321.5,171.5 Z"/></g>
<g><path style="opacity:1" fill="#b6b289" d="M 335.5,183.5 C 335.5,182.833 335.167,182.5 334.5,182.5C 331.404,176.236 326.737,171.402 320.5,168C 323.5,167.333 326.5,167.333 329.5,168C 335.599,176.052 342.266,183.552 349.5,190.5C 347.418,190.272 345.418,189.105 343.5,187C 340.929,185.546 338.262,184.38 335.5,183.5 Z"/></g>
<g><path style="opacity:1" fill="#808871" d="M 316.5,243.5 C 310.029,264.488 306.363,285.821 305.5,307.5C 304.506,317.653 304.172,327.986 304.5,338.5C 299.101,338.691 293.767,338.191 288.5,337C 287.572,336.612 286.905,335.945 286.5,335C 287.587,330.151 288.754,325.317 290,320.5C 290.858,308.82 291.858,297.153 293,285.5C 296.225,270.932 300.225,256.599 305,242.5C 304.974,234.736 304.141,227.069 302.5,219.5C 302.667,216.833 302.833,214.167 303,211.5C 304.407,205.784 305.907,200.117 307.5,194.5C 306.475,186.851 306.308,179.185 307,171.5C 308.96,193.785 309.96,216.119 310,238.5C 311.563,241.023 313.73,242.69 316.5,243.5 Z"/></g>
<g><path style="opacity:1" fill="#545949" d="M 321.5,171.5 C 326.744,174.076 331.077,177.743 334.5,182.5C 335.167,182.5 335.5,182.833 335.5,183.5C 335.5,184.167 335.167,184.5 334.5,184.5C 329.887,180.554 325.554,176.221 321.5,171.5 Z"/></g>
<g><path style="opacity:1" fill="#565c4a" d="M 317.5,179.5 C 321.415,181.743 324.749,184.743 327.5,188.5C 328.645,189.891 328.645,191.224 327.5,192.5C 326.069,190.062 324.069,188.396 321.5,187.5C 320.167,184.833 318.833,182.167 317.5,179.5 Z"/></g>
<g><path style="opacity:1" fill="#414d41" d="M 345.5,214.5 C 343.265,214.795 341.265,214.461 339.5,213.5C 341.904,208.372 345.071,203.705 349,199.5C 349.499,204.489 349.666,209.489 349.5,214.5C 348.167,214.5 346.833,214.5 345.5,214.5 Z"/></g>
<g><path style="opacity:1" fill="#e8ddab" d="M 312.5,203.5 C 319.124,206.934 326.124,209.6 333.5,211.5C 335.214,212.738 337.214,213.405 339.5,213.5C 341.265,214.461 343.265,214.795 345.5,214.5C 346.609,215.29 347.942,215.79 349.5,216C 348.801,219.8 348.135,223.633 347.5,227.5C 348.121,231.319 347.788,235.152 346.5,239C 344.441,240.498 343.108,242.498 342.5,245C 341.127,245.875 339.627,246.375 338,246.5C 331.06,245.057 324.227,243.223 317.5,241C 315.069,240.705 313.236,239.538 312,237.5C 311.571,226.085 311.738,214.751 312.5,203.5 Z"/></g>
<g><path style="opacity:1" fill="#202020" d="M 354.5,207.5 C 359.022,208.712 363.355,210.379 367.5,212.5C 368.098,213.795 368.598,215.128 369,216.5C 369.499,222.157 369.666,227.824 369.5,233.5C 367.856,233.286 366.356,233.62 365,234.5C 364.667,233.167 364.333,231.833 364,230.5C 361.379,230.704 358.545,230.704 355.5,230.5C 355.332,213.179 354.832,213.179 354,230.5C 352.989,229.663 351.822,229.33 350.5,229.5C 350.668,222.49 351.001,215.49 351.5,208.5C 352.791,208.737 353.791,208.404 354.5,207.5 Z"/></g>
<g><path style="opacity:1" fill="#000000" d="M 320.5,231.5 C 319.25,231.577 318.417,232.244 318,233.5C 317.517,232.552 317.351,231.552 317.5,230.5C 318.791,230.263 319.791,230.596 320.5,231.5 Z"/></g>
<g><path style="opacity:1" fill="#000000" d="M 320.5,231.5 C 324.838,231.622 325.172,231.955 321.5,232.5C 320.955,236.172 320.622,235.838 320.5,231.5 Z"/></g>
<g><path style="opacity:1" fill="#000000" d="M 338.5,240.5 C 337.833,235.167 337.167,235.167 336.5,240.5C 335.549,239.081 335.216,237.415 335.5,235.5C 338.187,235.336 340.854,235.503 343.5,236C 342.207,236.49 340.873,236.657 339.5,236.5C 339.768,238.099 339.434,239.432 338.5,240.5 Z"/></g>
<g><path style="opacity:1" fill="#eee4af" d="M 338.5,240.5 C 337.833,240.5 337.167,240.5 336.5,240.5C 337.167,235.167 337.833,235.167 338.5,240.5 Z"/></g>
<g><path style="opacity:1" fill="#fec90d" d="M 351.5,237.5 C 353.619,238.986 355.119,240.986 356,243.5C 356.273,245.101 356.773,246.601 357.5,248C 356.975,248.692 356.308,249.192 355.5,249.5C 352.45,247.451 350.117,244.784 348.5,241.5C 349.524,240.148 350.524,238.815 351.5,237.5 Z"/></g>
<g><path style="opacity:1" fill="#68bd67" d="M 316.5,243.5 C 318.698,243.12 320.365,243.787 321.5,245.5C 313.111,262.401 309.111,280.401 309.5,299.5C 308.833,312.006 308.167,324.673 307.5,337.5C 306.914,337.709 306.414,338.043 306,338.5C 305.5,328.172 305.334,317.839 305.5,307.5C 306.363,285.821 310.029,264.488 316.5,243.5 Z"/></g>
<g><path style="opacity:1" fill="#787f6a" d="M 309.5,299.5 C 309.111,280.401 313.111,262.401 321.5,245.5C 322.117,245.389 322.617,245.056 323,244.5C 326.524,245.757 330.024,247.09 333.5,248.5C 327.333,260.167 321.167,271.833 315,283.5C 312.308,301.097 311.308,318.764 312,336.5C 311.586,336.957 311.086,337.291 310.5,337.5C 309.501,324.851 309.168,312.184 309.5,299.5 Z"/></g>
<g><path style="opacity:1" fill="#818972" d="M 343.5,323.5 C 341.372,317.91 338.705,312.577 335.5,307.5C 335.833,306.833 336.167,306.167 336.5,305.5C 334.921,302.006 333.087,298.673 331,295.5C 330.667,296.167 330.333,296.833 330,297.5C 327.454,292.408 324.954,287.408 322.5,282.5C 322.421,279.729 322.921,277.063 324,274.5C 328.078,266.009 332.412,257.676 337,249.5C 338.667,248.833 340.333,248.167 342,247.5C 341.439,257.629 340.106,267.629 338,277.5C 340.982,279.196 342.316,281.863 342,285.5C 343.667,287.167 345.333,288.833 347,290.5C 351.636,299.605 356.136,308.772 360.5,318C 360.355,318.772 360.022,319.439 359.5,320C 355.563,321.644 351.73,323.477 348,325.5C 347.374,323.009 346.541,323.009 345.5,325.5C 344.818,324.757 344.151,324.091 343.5,323.5 Z"/></g>
<g><path style="opacity:1" fill="#404439" d="M 322.5,282.5 C 324.954,287.408 327.454,292.408 330,297.5C 330.333,296.833 330.667,296.167 331,295.5C 333.087,298.673 334.921,302.006 336.5,305.5C 336.167,306.167 335.833,306.833 335.5,307.5C 338.705,312.577 341.372,317.91 343.5,323.5C 343.631,324.239 343.464,324.906 343,325.5C 341.595,324.269 340.429,322.936 339.5,321.5C 335.087,313.005 330.42,304.672 325.5,296.5C 323.556,292.277 321.889,287.944 320.5,283.5C 320.343,282.127 320.51,280.793 321,279.5C 321.232,280.737 321.732,281.737 322.5,282.5 Z"/></g>
<g><path style="opacity:1" fill="#858e75" d="M 320.5,283.5 C 321.889,287.944 323.556,292.277 325.5,296.5C 322.69,293.336 320.69,289.669 319.5,285.5C 319.543,284.584 319.876,283.917 320.5,283.5 Z"/></g>
<g><path style="opacity:1" fill="#858e75" d="M 325.5,296.5 C 330.42,304.672 335.087,313.005 339.5,321.5C 339.607,323.379 339.107,323.712 338,322.5C 333.118,314.135 328.951,305.469 325.5,296.5 Z"/></g>
<g><path style="opacity:1" fill="#222322" d="M 358.5,322.5 C 359.496,322.414 360.329,322.748 361,323.5C 363.127,327.589 365.627,331.423 368.5,335C 367.663,336.011 367.33,337.178 367.5,338.5C 361.194,339.591 354.861,340.591 348.5,341.5C 344.837,341.34 342.171,339.673 340.5,336.5C 343.353,335.809 345.853,334.476 348,332.5C 348.495,330.527 348.662,328.527 348.5,326.5C 352.137,325.737 355.47,324.403 358.5,322.5 Z"/></g>
<g><path style="opacity:1" fill="#212121" d="M 299.5,342.5 C 300.167,342.5 300.833,342.5 301.5,342.5C 302.151,341.909 302.818,341.243 303.5,340.5C 304.298,345.08 305.298,349.58 306.5,354C 304.267,355.829 301.933,356.329 299.5,355.5C 298.167,355.5 297.5,356.167 297.5,357.5C 296.144,359.27 294.311,360.603 292,361.5C 287.1,359.531 282.267,357.365 277.5,355C 281.931,353.371 285.764,350.871 289,347.5C 289.497,344.854 289.664,342.187 289.5,339.5C 293.191,339.658 296.524,340.658 299.5,342.5 Z"/></g>
<g><path style="opacity:1" fill="#fec90d" d="M 301.5,342.5 C 300.833,342.5 300.167,342.5 299.5,342.5C 300.167,339.833 300.833,339.833 301.5,342.5 Z"/></g>
<g><path style="opacity:1" fill="#fec90d" d="M 298.5,346.5 C 300.337,346.639 300.67,347.306 299.5,348.5C 298.702,348.043 298.369,347.376 298.5,346.5 Z"/></g>
<g><path style="opacity:1" fill="#fec90d" d="M 299.5,355.5 C 299.5,356.833 298.833,357.5 297.5,357.5C 297.5,356.167 298.167,355.5 299.5,355.5 Z"/></g>
</svg>
