<?xml version="1.0" encoding="UTF-8"?>
<!DOCTYPE svg PUBLIC "-//W3C//DTD SVG 1.1//EN" "http://www.w3.org/Graphics/SVG/1.1/DTD/svg11.dtd">
<svg xmlns="http://www.w3.org/2000/svg" version="1.1" width="243px" height="299px" style="shape-rendering:geometricPrecision; text-rendering:geometricPrecision; image-rendering:optimizeQuality; fill-rule:evenodd; clip-rule:evenodd" xmlns:xlink="http://www.w3.org/1999/xlink">
<g><path style="opacity:1" fill="#fefffe" d="M 129.5,110.5 C 128.12,113.274 126.454,115.94 124.5,118.5C 126.244,120.241 127.577,122.241 128.5,124.5C 129.996,129.815 131.496,135.148 133,140.5C 146.956,133.433 161.456,127.933 176.5,124C 193.138,115.181 210.138,107.181 227.5,100C 231.152,99.5014 234.818,99.3347 238.5,99.5C 238.665,102.518 238.498,105.518 238,108.5C 221.593,117.956 204.759,126.789 187.5,135C 186.167,137.333 184.833,139.667 183.5,142C 179.954,143.174 176.287,143.84 172.5,144C 164.288,148.273 155.955,152.273 147.5,156C 145.5,158 143.5,160 141.5,162C 135.563,163.318 129.73,164.818 124,166.5C 123.689,168.556 123.189,170.556 122.5,172.5C 125.421,174.089 128.421,175.589 131.5,177C 133.062,181.991 135.895,186.157 140,189.5C 140.667,195.5 140.667,201.5 140,207.5C 138.953,209.762 137.787,211.929 136.5,214C 140.979,224.082 142.479,234.582 141,245.5C 140.434,249.965 138.767,253.965 136,257.5C 135.788,262.81 134.955,267.977 133.5,273C 136.063,275.53 138.897,277.697 142,279.5C 144.052,291.103 139.219,295.269 127.5,292C 121.642,289.712 115.642,288.046 109.5,287C 107.91,285.954 106.41,284.787 105,283.5C 104.333,279.5 104.333,275.5 105,271.5C 107.158,262.247 108.991,252.914 110.5,243.5C 107.675,243.919 105.509,242.919 104,240.5C 103.333,234.5 102.667,228.5 102,222.5C 99.3167,219.984 96.8167,217.317 94.5,214.5C 84.6589,226.495 78.1589,240.162 75,255.5C 73,258.833 71,262.167 69,265.5C 68.2508,269.251 67.2508,272.918 66,276.5C 62.4921,280.341 58.6588,283.841 54.5,287C 48.5851,288.527 42.5851,288.861 36.5,288C 32.7663,279.733 34.2663,272.566 41,266.5C 47.2807,245.711 52.7807,224.711 57.5,203.5C 57.3333,202.833 57.1667,202.167 57,201.5C 51.4084,205.43 45.5751,208.93 39.5,212C 35.8333,212.667 32.1667,212.667 28.5,212C 22.9359,205.093 21.1026,197.259 23,188.5C 28.4835,185.503 34.3169,183.503 40.5,182.5C 39.6607,174.463 38.494,166.463 37,158.5C 36.3333,152.5 36.3333,146.5 37,140.5C 47.7201,131.558 58.8868,123.225 70.5,115.5C 71.2,111.959 71.8666,108.459 72.5,105C 76.5101,104.499 80.5101,103.999 84.5,103.5C 84.3398,101.801 84.5065,100.134 85,98.5C 86.9202,95.1618 88.4202,91.6618 89.5,88C 87.4222,81.6755 84.9222,75.5088 82,69.5C 80.4893,62.6824 82.9893,58.1824 89.5,56C 99.1213,54.7142 108.788,54.2142 118.5,54.5C 118.111,51.054 117.278,47.7206 116,44.5C 114.178,36.3332 117.344,32.4998 125.5,33C 131.672,38.8723 133.006,45.7057 129.5,53.5C 130.463,56.4287 131.13,59.4287 131.5,62.5C 129.192,72.3032 128.025,82.3032 128,92.5C 130.954,93.7818 132.787,95.9484 133.5,99C 133.576,101.756 132.243,102.923 129.5,102.5C 129.5,105.167 129.5,107.833 129.5,110.5 Z M 66.5,153.5 C 69.1203,158.376 69.1203,163.376 66.5,168.5C 65.7348,164.675 65.0681,160.842 64.5,157C 64.9783,155.697 65.645,154.531 66.5,153.5 Z"/></g>
<g><path style="opacity:1" fill="#010101" d="M 127.5,96.5 C 131.109,97.1822 131.775,98.6822 129.5,101C 127.833,101.333 126.167,101.667 124.5,102C 126.124,103.117 127.124,104.617 127.5,106.5C 126.214,108.626 125.381,110.959 125,113.5C 123.933,114.191 122.766,114.691 121.5,115C 122.767,116.796 122.767,118.629 121.5,120.5C 122.865,121.941 124.365,123.274 126,124.5C 127.647,129.754 128.98,135.087 130,140.5C 130.667,141.833 131.667,142.833 133,143.5C 147.619,136.101 162.786,130.268 178.5,126C 193.377,118.395 208.377,111.061 223.5,104C 227.632,102.1 231.966,101.267 236.5,101.5C 236.896,104.044 236.229,106.211 234.5,108C 218.354,116.574 202.021,124.907 185.5,133C 184.167,135.333 182.833,137.667 181.5,140C 177.954,141.174 174.287,141.84 170.5,142C 162.288,146.273 153.955,150.273 145.5,154C 143.5,156 141.5,158 139.5,160C 133.563,161.318 127.73,162.818 122,164.5C 120.715,168.172 120.548,171.839 121.5,175.5C 128.11,176.369 131.943,180.036 133,186.5C 134.667,188.167 136.333,189.833 138,191.5C 138.667,196.167 138.667,200.833 138,205.5C 136.939,208.562 135.106,211.062 132.5,213C 138.91,224.135 140.743,235.969 138,248.5C 136.92,250.996 135.586,253.33 134,255.5C 133.319,262.215 132.652,268.881 132,275.5C 134.488,277.743 137.154,279.743 140,281.5C 141.46,287.379 139.127,290.379 133,290.5C 125.868,288.455 118.701,286.621 111.5,285C 106.776,282.565 105.276,278.731 107,273.5C 109.064,266.668 110.397,259.668 111,252.5C 111.499,247.988 113.333,244.155 116.5,241C 115.5,237.667 114.5,237.667 113.5,241C 110.364,242.041 107.864,241.207 106,238.5C 105.333,232.5 104.667,226.5 104,220.5C 100.243,217.414 97.2435,213.748 95,209.5C 83.4905,221.997 76.1572,236.664 73,253.5C 71,256.833 69,260.167 67,263.5C 66.2508,267.251 65.2508,270.918 64,274.5C 60.4921,278.341 56.6588,281.841 52.5,285C 47.9241,286.476 43.2574,286.81 38.5,286C 36.6067,283.083 36.1067,279.916 37,276.5C 39,273.833 41,271.167 43,268.5C 50.6135,243.746 56.9468,218.746 62,193.5C 54.5765,200.127 46.4098,205.627 37.5,210C 32.0044,211.89 28.5044,210.057 27,204.5C 24.7298,200.07 24.0631,195.403 25,190.5C 30.5526,187.651 36.3859,185.484 42.5,184C 43.0585,183.275 43.3918,182.442 43.5,181.5C 40.2497,168.673 38.7497,155.673 39,142.5C 49.7201,133.558 60.8868,125.225 72.5,117.5C 73.2,113.959 73.8666,110.459 74.5,107C 80.1354,106.096 85.802,105.596 91.5,105.5C 91.6198,102.795 90.6198,102.128 88.5,103.5C 87.5,103.167 86.8333,102.5 86.5,101.5C 91.4871,95.1016 92.6537,88.1016 90,80.5C 87.4217,75.8441 85.2551,71.0108 83.5,66C 86.0698,59.206 91.0698,56.206 98.5,57C 106.159,56.5003 113.826,56.3336 121.5,56.5C 120.127,50.4681 118.96,44.4681 118,38.5C 119.422,36.3619 121.255,35.1953 123.5,35C 129.509,40.1989 130.843,46.3655 127.5,53.5C 127.449,56.6723 128.116,59.6723 129.5,62.5C 127.391,72.1728 125.725,82.0062 124.5,92C 125.315,93.6434 126.315,95.1434 127.5,96.5 Z M 66.5,153.5 C 65.645,154.531 64.9783,155.697 64.5,157C 65.0681,160.842 65.7348,164.675 66.5,168.5C 69.1203,163.376 69.1203,158.376 66.5,153.5 Z"/></g>
<g><path style="opacity:1" fill="#fefffe" d="M 121.5,37.5 C 122.822,37.33 123.989,37.6634 125,38.5C 125.642,40.7619 126.475,42.9285 127.5,45C 126.103,49.0297 125.103,53.1964 124.5,57.5C 121.917,50.949 120.917,44.2823 121.5,37.5 Z"/></g>
<g><path style="opacity:1" fill="#1d1e1d" d="M 123.5,60.5 C 122.167,61.8333 122.167,63.1667 123.5,64.5C 111.897,62.5341 100.563,63.5341 89.5,67.5C 88.5,67.1667 87.8333,66.5 87.5,65.5C 88.7409,63.059 90.7409,61.559 93.5,61C 103.489,59.3149 113.489,59.1482 123.5,60.5 Z"/></g>
<g><path style="opacity:1" fill="#fe7f26" d="M 125.5,65.5 C 125.167,65.5 124.833,65.5 124.5,65.5C 124.5,64.8333 124.167,64.5 123.5,64.5C 122.167,63.1667 122.167,61.8333 123.5,60.5C 127.585,60.3497 128.252,62.0164 125.5,65.5 Z"/></g>
<g><path style="opacity:1" fill="#3b3c3b" d="M 124.5,65.5 C 124.833,65.5 125.167,65.5 125.5,65.5C 125.926,66.5279 125.926,67.8612 125.5,69.5C 122.478,69.804 119.478,70.304 116.5,71C 115.149,73.125 115.815,74.2917 118.5,74.5C 120.453,73.8444 122.453,73.5111 124.5,73.5C 124.5,74.5 124.5,75.5 124.5,76.5C 121.933,77.475 119.267,78.1417 116.5,78.5C 116.707,83.2836 119.04,86.2836 123.5,87.5C 123.5,88.5 123.5,89.5 123.5,90.5C 113.438,90.3467 103.438,91.0134 93.5,92.5C 93.7482,84.5745 91.7482,77.2412 87.5,70.5C 93.9599,66.7999 100.96,64.7999 108.5,64.5C 113.8,65.3436 119.134,65.6769 124.5,65.5 Z"/></g>
<g><path style="opacity:1" fill="#fec90d" d="M 125.5,69.5 C 125.768,71.099 125.434,72.4324 124.5,73.5C 122.453,73.5111 120.453,73.8444 118.5,74.5C 115.815,74.2917 115.149,73.125 116.5,71C 119.478,70.304 122.478,69.804 125.5,69.5 Z"/></g>
<g><path style="opacity:1" fill="#fec90d" d="M 124.5,76.5 C 124.276,80.1788 123.942,83.8455 123.5,87.5C 119.04,86.2836 116.707,83.2836 116.5,78.5C 119.267,78.1417 121.933,77.475 124.5,76.5 Z"/></g>
<g><path style="opacity:1" fill="#1d1e1d" d="M 127.5,96.5 C 126.102,98.5328 124.102,99.5328 121.5,99.5C 111.213,96.5662 101.046,96.8996 91,100.5C 90.5,100.167 90,99.8333 89.5,99.5C 90.373,97.5866 91.373,95.7533 92.5,94C 102.42,92.1779 112.42,91.3446 122.5,91.5C 122.5,94.8333 124.167,96.5 127.5,96.5 Z"/></g>
<g><path style="opacity:1" fill="#682a00" d="M 113.5,99.5 C 113.314,103.795 114.314,107.795 116.5,111.5C 115.365,115.039 113.532,115.372 111,112.5C 110.012,109.576 109.346,106.576 109,103.5C 108.292,102.619 107.458,101.953 106.5,101.5C 101.59,101.576 100.257,103.91 102.5,108.5C 101.145,111.518 98.8116,112.851 95.5,112.5C 94.4849,108.469 94.4849,104.469 95.5,100.5C 101.464,99.6932 107.464,99.3599 113.5,99.5 Z"/></g>
<g><path style="opacity:1" fill="#fec096" d="M 113.5,99.5 C 114.5,99.5 115.5,99.5 116.5,99.5C 117.665,102.59 119.998,103.924 123.5,103.5C 124.141,104.482 124.807,105.482 125.5,106.5C 123.816,107.15 122.483,108.15 121.5,109.5C 119.738,110.262 118.738,111.596 118.5,113.5C 120.109,114.898 120.942,116.565 121,118.5C 120.261,119.574 119.261,120.241 118,120.5C 115.305,118.886 112.472,118.052 109.5,118C 111.002,118.583 112.335,119.416 113.5,120.5C 106.277,120.753 100.277,118.086 95.5,112.5C 98.8116,112.851 101.145,111.518 102.5,108.5C 103.601,109.8 104.934,110.3 106.5,110C 104.773,108.611 103.439,106.944 102.5,105C 103.007,102.659 104.174,102.159 106,103.5C 106.464,102.906 106.631,102.239 106.5,101.5C 107.458,101.953 108.292,102.619 109,103.5C 109.346,106.576 110.012,109.576 111,112.5C 113.532,115.372 115.365,115.039 116.5,111.5C 114.314,107.795 113.314,103.795 113.5,99.5 Z"/></g>
<g><path style="opacity:1" fill="#9a5c32" d="M 116.5,99.5 C 118.414,100.185 120.414,100.685 122.5,101C 123.252,101.671 123.586,102.504 123.5,103.5C 119.998,103.924 117.665,102.59 116.5,99.5 Z"/></g>
<g><path style="opacity:1" fill="#000000" d="M 106.5,101.5 C 106.631,102.239 106.464,102.906 106,103.5C 104.174,102.159 103.007,102.659 102.5,105C 103.439,106.944 104.773,108.611 106.5,110C 104.934,110.3 103.601,109.8 102.5,108.5C 100.257,103.91 101.59,101.576 106.5,101.5 Z"/></g>
<g><path style="opacity:1" fill="#7e7f7e" d="M 231.5,103.5 C 234.999,103.259 235.332,104.092 232.5,106C 215.075,115.046 197.409,123.546 179.5,131.5C 179.281,130.325 179.614,129.325 180.5,128.5C 197.517,119.954 214.517,111.621 231.5,103.5 Z"/></g>
<g><path style="opacity:1" fill="#6681b8" d="M 91.5,107.5 C 94.2791,109.302 94.1125,110.969 91,112.5C 88.9193,110.443 89.086,108.777 91.5,107.5 Z"/></g>
<g><path style="opacity:1" fill="#fefffe" d="M 85.5,108.5 C 87.1852,109.184 88.1852,110.517 88.5,112.5C 87.675,113.386 86.675,113.719 85.5,113.5C 85.5,111.833 85.5,110.167 85.5,108.5 Z"/></g>
<g><path style="opacity:1" fill="#6681b8" d="M 77.5,109.5 C 79.5,109.5 81.5,109.5 83.5,109.5C 83.6602,111.199 83.4935,112.866 83,114.5C 75.3656,120.344 73.5322,118.677 77.5,109.5 Z"/></g>
<g><path style="opacity:1" fill="#682a00" d="M 121.5,109.5 C 123.686,109.511 124.519,110.511 124,112.5C 122.301,113.406 120.467,113.739 118.5,113.5C 118.738,111.596 119.738,110.262 121.5,109.5 Z"/></g>
<g><path style="opacity:0" fill="#000000" d="M 129.5,110.5 C 129.819,115.363 129.486,120.03 128.5,124.5C 127.577,122.241 126.244,120.241 124.5,118.5C 126.454,115.94 128.12,113.274 129.5,110.5 Z"/></g>
<g><path style="opacity:1" fill="#fefffe" d="M 92.5,113.5 C 95.2105,115.945 98.0438,118.278 101,120.5C 101.33,123.866 100.997,127.199 100,130.5C 96.0188,125.684 91.8521,121.018 87.5,116.5C 89.1446,115.304 90.8113,114.304 92.5,113.5 Z"/></g>
<g><path style="opacity:1" fill="#632b1c" d="M 84.5,116.5 C 95.542,127.042 105.709,138.376 115,150.5C 115.749,151.635 115.583,152.635 114.5,153.5C 105.53,142.031 95.697,131.364 85,121.5C 84.5065,119.866 84.3398,118.199 84.5,116.5 Z"/></g>
<g><path style="opacity:1" fill="#fefffe" d="M 81.5,117.5 C 82.1471,118.274 82.4805,119.274 82.5,120.5C 81.6009,127.824 80.7675,135.158 80,142.5C 78.4443,147.28 76.1109,151.613 73,155.5C 72.8333,154.5 72.6667,153.5 72.5,152.5C 74.83,148.835 76.33,144.835 77,140.5C 77.6285,133.972 78.4618,127.472 79.5,121C 79.8618,119.566 80.5285,118.399 81.5,117.5 Z"/></g>
<g><path style="opacity:1" fill="#4c86cf" d="M 60.5,164.5 C 52.689,160.299 49.689,162.632 51.5,171.5C 50.0413,171.567 48.7079,171.234 47.5,170.5C 46.4758,167.339 46.3092,164.006 47,160.5C 49.9415,159.941 52.7748,159.107 55.5,158C 53.0454,156.46 50.3787,156.126 47.5,157C 46.0577,157.377 45.0577,158.21 44.5,159.5C 44.6621,161.527 44.4955,163.527 44,165.5C 43.2214,158.833 42.8881,152.166 43,145.5C 53.5209,135.812 65.0209,127.479 77.5,120.5C 77.4078,129.125 76.2412,137.792 74,146.5C 73.6667,147.167 73.3333,147.833 73,148.5C 72.6667,146.5 72.3333,144.5 72,142.5C 67.8211,145.257 63.8211,148.257 60,151.5C 59.2938,155.887 59.4604,160.22 60.5,164.5 Z"/></g>
<g><path style="opacity:1" fill="#4d8bd6" d="M 114.5,122.5 C 116.121,122.787 117.121,123.787 117.5,125.5C 114.948,130.557 111.448,134.89 107,138.5C 105.833,137.333 104.667,136.167 103.5,135C 107.44,133.114 110.94,130.614 114,127.5C 114.494,125.866 114.66,124.199 114.5,122.5 Z"/></g>
<g><path style="opacity:1" fill="#fefffe" d="M 83.5,123.5 C 88.6381,129.727 93.8048,136.061 99,142.5C 99.2927,145.869 97.7927,147.702 94.5,148C 91.0349,143.533 87.2016,139.367 83,135.5C 82.3064,131.446 82.4731,127.446 83.5,123.5 Z"/></g>
<g><path style="opacity:1" fill="#4d8bd6" d="M 85.5,123.5 C 90.9843,129.092 96.4843,134.758 102,140.5C 102.563,141.725 102.23,142.725 101,143.5C 95.5943,136.939 90.4276,130.272 85.5,123.5 Z"/></g>
<g><path style="opacity:1" fill="#fefffe" d="M 109.5,123.5 C 110.833,123.5 112.167,123.5 113.5,123.5C 113.649,124.552 113.483,125.552 113,126.5C 102.338,135.003 101.171,134.003 109.5,123.5 Z"/></g>
<g><path style="opacity:1" fill="#4d8bd6" d="M 121.5,126.5 C 122.302,125.115 122.969,125.282 123.5,127C 125.504,132.35 127.004,137.85 128,143.5C 128.833,144.333 129.667,145.167 130.5,146C 128.351,147.164 126.185,148.33 124,149.5C 123.76,146.343 123.927,143.176 124.5,140C 123.447,135.404 122.447,130.904 121.5,126.5 Z"/></g>
<g><path style="opacity:1" fill="#fefffe" d="M 121.5,126.5 C 121.269,130.992 121.936,135.325 123.5,139.5C 123,142.5 122.5,145.5 122,148.5C 121.333,147.833 120.667,147.167 120,146.5C 119.833,143.667 119.667,140.833 119.5,138C 119.286,133.867 119.952,130.034 121.5,126.5 Z"/></g>
<g><path style="opacity:1" fill="#fefffe" d="M 117.5,129.5 C 118.573,130.251 118.74,131.251 118,132.5C 116.056,136.11 113.723,139.443 111,142.5C 109.978,141.646 109.145,140.646 108.5,139.5C 112.234,136.769 115.234,133.436 117.5,129.5 Z"/></g>
<g><path style="opacity:1" fill="#fec90d" d="M 170.5,136.5 C 169.334,134.834 169.334,133.167 170.5,131.5C 173.166,130.262 175.832,130.262 178.5,131.5C 179.636,138.595 176.969,140.261 170.5,136.5 Z"/></g>
<g><path style="opacity:1" fill="#7e7f7e" d="M 166.5,135.5 C 158.192,138.656 150.192,142.323 142.5,146.5C 140.767,145.992 140.434,145.159 141.5,144C 150.407,140.296 159.24,136.462 168,132.5C 168.239,133.788 167.739,134.788 166.5,135.5 Z"/></g>
<g><path style="opacity:1" fill="#392419" d="M 166.5,135.5 C 167.833,135.833 169.167,136.167 170.5,136.5C 170.047,137.458 169.381,138.292 168.5,139C 160.373,143.398 152.04,147.232 143.5,150.5C 143.567,149.041 143.234,147.708 142.5,146.5C 150.192,142.323 158.192,138.656 166.5,135.5 Z"/></g>
<g><path style="opacity:1" fill="#4d8bd6" d="M 81.5,136.5 C 86.1857,140.186 90.1857,144.52 93.5,149.5C 88.1321,155.849 81.4654,160.183 73.5,162.5C 73.3379,160.473 73.5045,158.473 74,156.5C 79.0289,150.777 81.5289,144.11 81.5,136.5 Z"/></g>
<g><path style="opacity:1" fill="#4d8bd6" d="M 116.5,136.5 C 117.323,139.977 117.823,143.644 118,147.5C 120.326,148.713 120.659,150.046 119,151.5C 116.392,149.65 114.225,147.316 112.5,144.5C 114.297,142.045 115.63,139.378 116.5,136.5 Z"/></g>
<g><path style="opacity:1" fill="#fefffe" d="M 103.5,143.5 C 104.962,144.458 106.295,145.624 107.5,147C 97.0111,155.416 85.6778,162.583 73.5,168.5C 72.5291,167.038 72.8624,165.705 74.5,164.5C 85.4725,159.192 95.1391,152.192 103.5,143.5 Z"/></g>
<g><path style="opacity:1" fill="#fec90d" d="M 136.5,145.5 C 138.544,146.031 140.211,147.198 141.5,149C 140.975,149.692 140.308,150.192 139.5,150.5C 137.954,149.316 136.287,148.316 134.5,147.5C 135.243,146.818 135.909,146.151 136.5,145.5 Z"/></g>
<g><path style="opacity:1" fill="#4d8bd6" d="M 108.5,148.5 C 110.416,149.665 111.249,151.332 111,153.5C 109.628,152.09 108.795,150.423 108.5,148.5 Z"/></g>
<g><path style="opacity:1" fill="#fefffe" d="M 67.5,149.5 C 69.3379,153.293 70.6712,157.46 71.5,162C 70.3144,164.748 69.3144,167.581 68.5,170.5C 67.086,171.624 65.586,172.624 64,173.5C 63.3064,166.826 62.9731,160.159 63,153.5C 64.3968,151.93 65.8968,150.596 67.5,149.5 Z M 66.5,153.5 C 65.645,154.531 64.9783,155.697 64.5,157C 65.0681,160.842 65.7348,164.675 66.5,168.5C 69.1203,163.376 69.1203,158.376 66.5,153.5 Z"/></g>
<g><path style="opacity:1" fill="#7e7f7e" d="M 122.5,152.5 C 124.488,150.325 126.821,149.659 129.5,150.5C 127.293,151.635 124.96,152.301 122.5,152.5 Z"/></g>
<g><path style="opacity:1" fill="#fec096" d="M 134.5,150.5 C 134.56,149.957 134.893,149.624 135.5,149.5C 138.5,150.758 139.5,152.758 138.5,155.5C 137.113,153.79 135.779,152.123 134.5,150.5 Z"/></g>
<g><path style="opacity:1" fill="#fefffe" d="M 104.5,150.5 C 106.886,151.373 108.886,152.873 110.5,155C 107.95,156.442 105.284,157.608 102.5,158.5C 101.354,157.855 100.354,157.022 99.5,156C 101.373,154.296 103.04,152.463 104.5,150.5 Z"/></g>
<g><path style="opacity:1" fill="#fec096" d="M 130.5,150.5 C 133.659,150.917 135.659,152.75 136.5,156C 136.167,156.5 135.833,157 135.5,157.5C 132.651,155.988 130.984,153.655 130.5,150.5 Z"/></g>
<g><path style="opacity:1" fill="#7e7f7e" d="M 122.5,152.5 C 122.473,154.199 121.806,155.533 120.5,156.5C 114.875,158.316 109.541,160.649 104.5,163.5C 102.897,163.688 101.563,163.188 100.5,162C 107.712,158.561 115.046,155.394 122.5,152.5 Z"/></g>
<g><path style="opacity:1" fill="#fec096" d="M 126.5,152.5 C 127.552,152.351 128.552,152.517 129.5,153C 130.257,154.512 131.257,155.846 132.5,157C 131.725,158.23 130.725,158.563 129.5,158C 127.84,156.512 126.84,154.679 126.5,152.5 Z"/></g>
<g><path style="opacity:1" fill="#fec096" d="M 124.5,158.5 C 124.672,157.508 124.338,156.842 123.5,156.5C 123.281,155.325 123.614,154.325 124.5,153.5C 125.624,154.914 126.624,156.414 127.5,158C 126.648,159.728 125.648,159.895 124.5,158.5 Z"/></g>
<g><path style="opacity:1" fill="#fefffe" d="M 47.5,170.5 C 47.6068,172.379 47.1068,172.712 46,171.5C 45.8238,167.312 45.3238,163.312 44.5,159.5C 45.0577,158.21 46.0577,157.377 47.5,157C 50.3787,156.126 53.0454,156.46 55.5,158C 52.7748,159.107 49.9415,159.941 47,160.5C 46.3092,164.006 46.4758,167.339 47.5,170.5 Z"/></g>
<g><path style="opacity:1" fill="#4d8bd6" d="M 96.5,156.5 C 99.0317,156.829 100.032,157.995 99.5,160C 92.2986,162.857 85.2986,166.191 78.5,170C 77.5,170.667 76.5,170.667 75.5,170C 82.6745,165.637 89.6745,161.137 96.5,156.5 Z"/></g>
<g><path style="opacity:1" fill="#3a2519" d="M 120.5,156.5 C 121.5,156.5 122.5,156.5 123.5,156.5C 124.338,156.842 124.672,157.508 124.5,158.5C 118.741,162.388 112.574,165.721 106,168.5C 103.389,167.5 102.889,165.833 104.5,163.5C 109.541,160.649 114.875,158.316 120.5,156.5 Z"/></g>
<g><path style="opacity:1" fill="#fefffe" d="M 60.5,164.5 C 60.5,166.5 60.5,168.5 60.5,170.5C 57.4552,170.508 54.4552,170.841 51.5,171.5C 49.689,162.632 52.689,160.299 60.5,164.5 Z"/></g>
<g><path style="opacity:1" fill="#fec90d" d="M 97.5,162.5 C 101.519,164.759 101.019,166.092 96,166.5C 95.5,166.167 95,165.833 94.5,165.5C 95.3398,164.265 96.3398,163.265 97.5,162.5 Z"/></g>
<g><path style="opacity:1" fill="#4d8bd6" d="M 118.5,163.5 C 119.124,163.917 119.457,164.584 119.5,165.5C 118.861,168.475 118.361,171.475 118,174.5C 115.875,175.851 114.708,175.185 114.5,172.5C 114.79,168.954 116.124,165.954 118.5,163.5 Z"/></g>
<g><path style="opacity:1" fill="#7c7c7c" d="M 91.5,169.5 C 85.3858,170.631 80.5525,173.631 77,178.5C 75.6976,179.085 74.531,179.751 73.5,180.5C 71.901,180.232 70.5676,180.566 69.5,181.5C 69.0269,182.906 68.0269,183.573 66.5,183.5C 64.9724,182.198 63.9724,180.531 63.5,178.5C 72.6849,174.199 82.0182,169.865 91.5,165.5C 93.9341,167.147 93.9341,168.48 91.5,169.5 Z"/></g>
<g><path style="opacity:1" fill="#fec90d" d="M 98.5,166.5 C 100.59,166.45 101.923,167.45 102.5,169.5C 99.2652,173.516 96.9319,173.183 95.5,168.5C 96.6016,167.824 97.6016,167.158 98.5,166.5 Z"/></g>
<g><path style="opacity:1" fill="#fefffe" d="M 113.5,166.5 C 112.587,179.186 107.587,190.352 98.5,200C 95.0821,201.695 91.5821,203.195 88,204.5C 85.0053,203.724 82.172,202.557 79.5,201C 77.5394,198.037 75.206,195.371 72.5,193C 73.0253,192.308 73.6919,191.808 74.5,191.5C 82.8497,202.733 92.0164,203.4 102,193.5C 106.405,184.696 110.239,175.696 113.5,166.5 Z"/></g>
<g><path style="opacity:1" fill="#4a84cb" d="M 102.5,175.5 C 101.508,175.672 100.842,175.338 100.5,174.5C 103.438,172.023 106.771,170.023 110.5,168.5C 111.472,174.364 108.806,176.698 102.5,175.5 Z"/></g>
<g><path style="opacity:1" fill="#3b2519" d="M 91.5,169.5 C 93.5638,169.762 94.8971,170.929 95.5,173C 89.3825,177.143 82.8825,180.643 76,183.5C 74.6898,182.87 73.8565,181.87 73.5,180.5C 74.531,179.751 75.6976,179.085 77,178.5C 80.5525,173.631 85.3858,170.631 91.5,169.5 Z"/></g>
<g><path style="opacity:1" fill="#fec096" d="M 61.5,177.5 C 60.5416,177.953 59.7083,178.619 59,179.5C 58.6667,182.833 58.3333,186.167 58,189.5C 57.0071,185.558 56.3404,181.558 56,177.5C 55.4657,181.859 55.6324,186.192 56.5,190.5C 55.0689,190.119 54.2355,189.119 54,187.5C 53.6667,184.5 53.3333,181.5 53,178.5C 52.7339,182.974 52.5672,187.307 52.5,191.5C 51.0227,187.767 50.1894,183.767 50,179.5C 49.2829,183.045 49.4496,186.545 50.5,190C 50.3333,190.5 50.1667,191 50,191.5C 47.2832,186.538 46.2832,181.205 47,175.5C 47.5,175 48,174.5 48.5,174C 52.4908,173.358 56.4908,172.858 60.5,172.5C 60.6287,174.216 60.962,175.883 61.5,177.5 Z"/></g>
<g><path style="opacity:1" fill="#fefffe" d="M 100.5,174.5 C 100.842,175.338 101.508,175.672 102.5,175.5C 104.292,176.309 106.292,176.809 108.5,177C 106.19,177.497 103.857,177.663 101.5,177.5C 99.5,174.833 97.5,174.833 95.5,177.5C 93.6214,177.607 93.2881,177.107 94.5,176C 96.3453,174.872 98.3453,174.372 100.5,174.5 Z"/></g>
<g><path style="opacity:1" fill="#647fb5" d="M 101.5,177.5 C 101.335,180.85 101.502,184.183 102,187.5C 102.498,184.518 102.665,181.518 102.5,178.5C 104.199,178.34 105.866,178.506 107.5,179C 105.274,184.787 102.274,190.12 98.5,195C 87.9676,201.933 80.3009,199.6 75.5,188C 75.8333,187.167 76.1667,186.333 76.5,185.5C 80.5,183.5 84.5,181.5 88.5,179.5C 89.8333,183.167 89.8333,186.833 88.5,190.5C 85.6626,185.15 84.996,185.483 86.5,191.5C 87.8333,191.5 89.1667,191.5 90.5,191.5C 90.5,187.167 90.5,182.833 90.5,178.5C 92.4147,178.784 94.0813,178.451 95.5,177.5C 97.5,174.833 99.5,174.833 101.5,177.5 Z"/></g>
<g><path style="opacity:1" fill="#cea38a" d="M 114.5,177.5 C 114.897,176.475 115.563,176.308 116.5,177C 121.011,179.754 125.344,182.754 129.5,186C 128.534,187.678 127.201,188.345 125.5,188C 122.017,184.351 118.35,180.851 114.5,177.5 Z"/></g>
<g><path style="opacity:1" fill="#000000" d="M 61.5,177.5 C 59.7217,181.565 59.0551,185.899 59.5,190.5C 58.5,190.5 57.5,190.5 56.5,190.5C 55.6324,186.192 55.4657,181.859 56,177.5C 56.3404,181.558 57.0071,185.558 58,189.5C 58.3333,186.167 58.6667,182.833 59,179.5C 59.7083,178.619 60.5416,177.953 61.5,177.5 Z"/></g>
<g><path style="opacity:1" fill="#3c261a" d="M 61.5,177.5 C 62.1667,177.833 62.8333,178.167 63.5,178.5C 63.9724,180.531 64.9724,182.198 66.5,183.5C 66.1583,184.338 65.4916,184.672 64.5,184.5C 63.6153,187.06 61.9486,189.06 59.5,190.5C 59.0551,185.899 59.7217,181.565 61.5,177.5 Z"/></g>
<g><path style="opacity:1" fill="#cea38a" d="M 113.5,178.5 C 116.666,180.834 119.333,183.667 121.5,187C 123.706,189.346 126.206,189.846 129,188.5C 136.118,193.793 137.284,200.126 132.5,207.5C 131.167,208.833 129.833,208.833 128.5,207.5C 126.476,205.31 124.643,202.977 123,200.5C 120.678,192.668 117.512,185.335 113.5,178.5 Z"/></g>
<g><path style="opacity:1" fill="#fec90d" d="M 69.5,181.5 C 70.5,181.5 71.5,181.5 72.5,181.5C 73.523,184.393 73.523,187.226 72.5,190C 67.7897,191.121 65.123,189.288 64.5,184.5C 65.4916,184.672 66.1583,184.338 66.5,183.5C 68.0269,183.573 69.0269,182.906 69.5,181.5 Z"/></g>
<g><path style="opacity:1" fill="#6681b8" d="M 111.5,182.5 C 112.812,183.145 113.812,184.145 114.5,185.5C 106.448,192.633 105.448,191.633 111.5,182.5 Z"/></g>
<g><path style="opacity:1" fill="#3e271a" d="M 56.5,190.5 C 57.5,190.5 58.5,190.5 59.5,190.5C 56.4797,194.851 52.4797,198.017 47.5,200C 44.8106,200.795 42.144,201.295 39.5,201.5C 38.4732,202.848 37.1398,203.348 35.5,203C 33.5854,200.6 31.9188,198.1 30.5,195.5C 30.281,194.325 30.6143,193.325 31.5,192.5C 36.4299,191.061 41.2632,189.394 46,187.5C 46.7065,189.081 47.5399,190.581 48.5,192C 50.0657,192.765 51.3991,192.598 52.5,191.5C 52.5672,187.307 52.7339,182.974 53,178.5C 53.3333,181.5 53.6667,184.5 54,187.5C 54.2355,189.119 55.0689,190.119 56.5,190.5 Z"/></g>
<g><path style="opacity:1" fill="#6580b7" d="M 134.5,240.5 C 129.906,241.815 125.239,242.815 120.5,243.5C 121.473,241.932 121.64,240.265 121,238.5C 117.745,232.992 114.745,227.325 112,221.5C 108.219,217.891 104.719,214.224 101.5,210.5C 104.627,213.147 108.127,215.147 112,216.5C 114.185,216.079 116.351,215.579 118.5,215C 118.957,214.586 119.291,214.086 119.5,213.5C 116.215,212.676 112.882,212.176 109.5,212C 106.745,210.047 103.745,208.88 100.5,208.5C 99.7721,206.265 98.4388,204.432 96.5,203C 101.05,200.117 104.55,196.284 107,191.5C 107.333,191.833 107.667,192.167 108,192.5C 110.414,190.709 112.914,189.043 115.5,187.5C 117.635,192.035 119.469,196.701 121,201.5C 123,204.167 125,206.833 127,209.5C 130.259,217.611 132.925,225.944 135,234.5C 135.789,236.712 135.622,238.712 134.5,240.5 Z"/></g>
<g><path style="opacity:1" fill="#000000" d="M 120.5,190.5 C 120.56,189.957 120.893,189.624 121.5,189.5C 124.157,192.147 126.323,195.147 128,198.5C 129.214,200.049 130.714,201.215 132.5,202C 131.5,202.667 130.5,202.667 129.5,202C 126.36,198.188 123.36,194.355 120.5,190.5 Z"/></g>
<g><path style="opacity:1" fill="#000000" d="M 114.5,191.5 C 116.379,191.393 116.712,191.893 115.5,193C 111.742,194.834 108.075,196.5 104.5,198C 107.491,195.152 110.824,192.985 114.5,191.5 Z"/></g>
<g><path style="opacity:1" fill="#6681b8" d="M 70.5,245.5 C 64.2601,246.191 58.5935,248.357 53.5,252C 59.426,253.255 64.7593,252.088 69.5,248.5C 67.6124,252.606 65.4458,256.606 63,260.5C 62.1239,264.7 61.2905,268.867 60.5,273C 54.255,276.721 49.9217,275.054 47.5,268C 55.4812,243.242 61.8145,218.075 66.5,192.5C 67.8734,192.343 69.2068,192.51 70.5,193C 73.5,197.333 77.1667,201 81.5,204C 85.5017,205.452 89.5017,205.786 93.5,205C 81.3308,215.827 73.6641,229.327 70.5,245.5 Z"/></g>
<g><path style="opacity:1" fill="#fec90d" d="M 30.5,195.5 C 31.9188,198.1 33.5854,200.6 35.5,203C 37.1398,203.348 38.4732,202.848 39.5,201.5C 40.552,201.351 41.552,201.517 42.5,202C 39.2993,204.267 35.9659,205.934 32.5,207C 30.6382,203.081 28.9715,199.081 27.5,195C 28.7195,193.205 29.7195,193.372 30.5,195.5 Z"/></g>
<g><path style="opacity:1" fill="#384e78" d="M 100.5,208.5 C 103.745,208.88 106.745,210.047 109.5,212C 112.882,212.176 116.215,212.676 119.5,213.5C 119.291,214.086 118.957,214.586 118.5,215C 116.351,215.579 114.185,216.079 112,216.5C 108.127,215.147 104.627,213.147 101.5,210.5C 101.167,209.833 100.833,209.167 100.5,208.5 Z"/></g>
<g><path style="opacity:1" fill="#fec90d" d="M 108.5,232.5 C 109.5,232.5 110.5,232.5 111.5,232.5C 111.662,234.527 111.495,236.527 111,238.5C 108.961,237.022 108.128,235.022 108.5,232.5 Z"/></g>
<g><path style="opacity:1" fill="#354971" d="M 134.5,240.5 C 134.784,242.415 134.451,244.081 133.5,245.5C 131.003,246.743 128.336,247.41 125.5,247.5C 123.117,247.639 121.117,246.972 119.5,245.5C 119.328,244.508 119.662,243.842 120.5,243.5C 125.239,242.815 129.906,241.815 134.5,240.5 Z"/></g>
<g><path style="opacity:1" fill="#384e78" d="M 70.5,245.5 C 70.4431,246.609 70.1098,247.609 69.5,248.5C 64.7593,252.088 59.426,253.255 53.5,252C 58.5935,248.357 64.2601,246.191 70.5,245.5 Z"/></g>
<g><path style="opacity:1" fill="#627cb2" d="M 119.5,245.5 C 121.117,246.972 123.117,247.639 125.5,247.5C 128.336,247.41 131.003,246.743 133.5,245.5C 132.872,248.09 131.705,250.423 130,252.5C 129.399,259.538 128.566,266.538 127.5,273.5C 121.523,273.929 117.023,271.596 114,266.5C 114.006,261.457 114.672,256.457 116,251.5C 116.424,248.975 117.59,246.975 119.5,245.5 Z"/></g>
<g><path style="opacity:1" fill="#1d1e1d" d="M 112.5,270.5 C 116.64,273.566 121.307,275.566 126.5,276.5C 129.021,279.854 132.021,282.688 135.5,285C 134.584,285.374 133.75,285.874 133,286.5C 127.067,283.856 120.901,282.022 114.5,281C 112.939,280.059 111.605,278.892 110.5,277.5C 111.325,275.199 111.992,272.865 112.5,270.5 Z"/></g>
</svg>
