<?xml version="1.0" encoding="UTF-8"?>
<!DOCTYPE svg PUBLIC "-//W3C//DTD SVG 1.1//EN" "http://www.w3.org/Graphics/SVG/1.1/DTD/svg11.dtd">
<svg xmlns="http://www.w3.org/2000/svg" version="1.1" width="330px" height="400px" style="shape-rendering:geometricPrecision; text-rendering:geometricPrecision; image-rendering:optimizeQuality; fill-rule:evenodd; clip-rule:evenodd" xmlns:xlink="http://www.w3.org/1999/xlink">
<g><path style="opacity:1" fill="#fefffe" d="M 151.5,18.5 C 157.176,18.3339 162.843,18.5006 168.5,19C 170.333,19.5 171.5,20.6667 172,22.5C 173.149,29.7658 172.316,36.7658 169.5,43.5C 171.234,49.405 171.734,55.405 171,61.5C 169.974,64.6928 167.808,66.0262 164.5,65.5C 164.548,72.8442 164.882,80.1775 165.5,87.5C 165.496,91.7221 164.996,95.7221 164,99.5C 171.406,103.353 178.74,107.353 186,111.5C 190.893,125.954 196.893,139.954 204,153.5C 204.806,158.704 206.139,163.704 208,168.5C 208.667,174.833 208.667,181.167 208,187.5C 207.13,188.108 206.63,188.941 206.5,190C 208.197,193.894 210.03,197.727 212,201.5C 212.667,205.167 212.667,208.833 212,212.5C 211.535,213.931 210.701,215.097 209.5,216C 204.246,217.271 198.913,217.771 193.5,217.5C 194.153,224.123 191.32,228.123 185,229.5C 184.801,237.216 184.301,244.882 183.5,252.5C 184.394,276.464 185.227,300.464 186,324.5C 195.347,329.606 198.18,337.272 194.5,347.5C 193.624,348.251 192.624,348.751 191.5,349C 185.5,349.667 179.5,349.667 173.5,349C 167.915,345.625 162.415,342.125 157,338.5C 154.789,334.455 153.456,330.122 153,325.5C 151.419,312.862 150.252,300.195 149.5,287.5C 144.849,287.321 140.349,287.321 136,287.5C 133.47,297.679 132.137,308.013 132,318.5C 131,319.5 130,320.5 129,321.5C 128.667,324.5 128.333,327.5 128,330.5C 124.5,332.667 121.667,335.5 119.5,339C 115.675,341.057 111.508,341.89 107,341.5C 103.833,341.333 100.667,341.167 97.5,341C 96.6919,340.692 96.0253,340.192 95.5,339.5C 94.3791,333.886 94.2124,328.22 95,322.5C 96.2899,320.208 97.9565,318.208 100,316.5C 104.077,279.264 106.911,241.931 108.5,204.5C 102.885,201.788 97.3854,198.788 92,195.5C 91.0852,189.056 91.4185,182.723 93,176.5C 95.2428,175.029 97.7428,174.029 100.5,173.5C 102.619,169.95 104.119,166.283 105,162.5C 103.442,164.359 101.609,165.859 99.5,167C 94.1667,167.667 88.8333,167.667 83.5,167C 80.0071,163.858 77.8404,160.025 77,155.5C 76,154.833 75,154.167 74,153.5C 73.6736,143.782 74.3403,134.115 76,124.5C 77.1811,120.637 79.0144,117.137 81.5,114C 86.5,113.333 91.5,113.333 96.5,114C 97,114.5 97.5,115 98,115.5C 98.6852,110.76 100.519,106.593 103.5,103C 110.708,102.821 117.708,101.821 124.5,100C 122.694,92.1297 120.36,84.6297 117.5,77.5C 117.188,74.1245 118.022,71.1245 120,68.5C 120.333,63.5 120.667,58.5 121,53.5C 122.214,46.2295 123.547,38.8962 125,31.5C 132.747,30.5183 140.58,30.185 148.5,30.5C 148.03,26.095 149.03,22.095 151.5,18.5 Z M 143.5,246.5 C 144.532,248.434 145.198,250.6 145.5,253C 144.42,256.662 142.92,260.162 141,263.5C 141.37,257.807 142.203,252.14 143.5,246.5 Z"/></g>
<g><path style="opacity:1" fill="#000000" d="M 153.5,20.5 C 157.846,20.3343 162.179,20.501 166.5,21C 168.333,21.5 169.5,22.6667 170,24.5C 170.667,27.8333 170.667,31.1667 170,34.5C 168.576,37.3441 167.743,40.3441 167.5,43.5C 168.728,48.7931 169.228,54.1264 169,59.5C 167.974,62.6928 165.808,64.0262 162.5,63.5C 162.718,68.2115 162.385,72.8781 161.5,77.5C 162.932,80.6619 163.599,83.9953 163.5,87.5C 162.167,92.0357 161.667,96.7024 162,101.5C 169.406,105.353 176.74,109.353 184,113.5C 188.893,127.954 194.893,141.954 202,155.5C 202.806,160.704 204.139,165.704 206,170.5C 206.63,178.344 206.296,186.01 205,193.5C 207.542,197.746 209.376,202.246 210.5,207C 210.592,209.814 209.592,212.147 207.5,214C 202.905,215.393 198.239,215.726 193.5,215C 192.874,214.25 192.374,213.416 192,212.5C 191.488,216.573 190.655,220.573 189.5,224.5C 187.358,225.601 185.192,226.601 183,227.5C 182.146,242.23 181.646,256.897 181.5,271.5C 182.641,289.787 183.474,308.121 184,326.5C 187.297,328.795 190.297,331.462 193,334.5C 193.76,338.225 193.593,341.892 192.5,345.5C 191.624,346.251 190.624,346.751 189.5,347C 184.833,347.667 180.167,347.667 175.5,347C 170.5,344 165.5,341 160.5,338C 156.457,331.49 154.29,324.324 154,316.5C 153.207,305.475 152.207,294.475 151,283.5C 149.475,284.72 147.641,285.387 145.5,285.5C 139.86,286.509 137.527,284.176 138.5,278.5C 138.667,276.5 138.833,274.5 139,272.5C 142.696,266.44 145.863,260.107 148.5,253.5C 146.555,247.275 145.055,240.941 144,234.5C 139.461,254.732 135.461,275.066 132,295.5C 130.936,302.458 130.269,309.458 130,316.5C 129,317.5 128,318.5 127,319.5C 126.667,322.5 126.333,325.5 126,328.5C 122.278,332.099 118.444,335.599 114.5,339C 109.5,339.667 104.5,339.667 99.5,339C 98.3333,338.5 97.5,337.667 97,336.5C 95.0733,329.364 96.74,323.364 102,318.5C 106.642,279.398 109.142,240.232 109.5,201C 103.828,199.413 98.6613,196.913 94,193.5C 93.3333,189.167 93.3333,184.833 94,180.5C 94.4652,179.069 95.2986,177.903 96.5,177C 98.5767,176.808 100.577,176.308 102.5,175.5C 106.349,168.809 109.349,161.809 111.5,154.5C 111.333,153.167 111.167,151.833 111,150.5C 107.062,155.893 102.562,160.726 97.5,165C 93.5,165.667 89.5,165.667 85.5,165C 82.0071,161.858 79.8404,158.025 79,153.5C 76.0746,152.368 74.9079,150.201 75.5,147C 76.6054,140.201 77.4387,133.368 78,126.5C 79.1811,122.637 81.0144,119.137 83.5,116C 87.1667,115.333 90.8333,115.333 94.5,116C 95.7433,117.154 96.7433,118.488 97.5,120C 98.448,120.483 99.448,120.649 100.5,120.5C 100.079,114.598 101.745,109.432 105.5,105C 112.668,104.657 119.668,103.823 126.5,102.5C 124.967,95.8943 123.634,89.2276 122.5,82.5C 118.77,78.8295 118.603,74.8295 122,70.5C 123.446,59.2867 124.78,47.9534 126,36.5C 126.309,35.2341 126.809,34.0674 127.5,33C 134.883,32.2015 142.217,32.3682 149.5,33.5C 149.949,28.8467 151.282,24.5134 153.5,20.5 Z M 143.5,246.5 C 142.203,252.14 141.37,257.807 141,263.5C 142.92,260.162 144.42,256.662 145.5,253C 145.198,250.6 144.532,248.434 143.5,246.5 Z"/></g>
<g><path style="opacity:1" fill="#cfcfcf" d="M 158.5,25.5 C 162.176,24.9201 164.176,26.4201 164.5,30C 162.233,38.0462 161.9,46.2129 163.5,54.5C 163.658,56.3186 162.991,57.6519 161.5,58.5C 160.669,52.1928 160.169,45.8594 160,39.5C 155.326,35.1047 154.826,30.438 158.5,25.5 Z"/></g>
<g><path style="opacity:1" fill="#262626" d="M 156.5,57.5 C 149.494,63.1695 141.494,66.3362 132.5,67C 130.934,66.3918 129.6,65.5585 128.5,64.5C 127.334,62.834 127.334,61.1673 128.5,59.5C 130.123,61.7913 131.957,63.7913 134,65.5C 137.047,63.6154 139.547,61.2821 141.5,58.5C 140.96,55.3382 139.96,52.3382 138.5,49.5C 139.543,44.0573 137.376,42.3906 132,44.5C 131.759,47.2889 131.092,49.9556 130,52.5C 129.979,47.4733 130.479,42.4733 131.5,37.5C 140.337,37.1881 149.004,38.1881 157.5,40.5C 159.126,46.4098 158.792,52.0764 156.5,57.5 Z"/></g>
<g><path style="opacity:1" fill="#fcc60e" d="M 138.5,53.5 C 139.306,54.9972 139.972,56.6639 140.5,58.5C 138.209,60.2878 136.043,62.2878 134,64.5C 132.303,62.301 130.803,59.9676 129.5,57.5C 130.306,54.5544 131.639,51.8877 133.5,49.5C 131.902,47.1304 132.402,45.4638 135,44.5C 138.794,45.587 139.294,47.4203 136.5,50C 137.823,50.8159 138.489,51.9826 138.5,53.5 Z"/></g>
<g><path style="opacity:1" fill="#000000" d="M 134.5,45.5 C 137.137,47.1538 136.803,47.6538 133.5,47C 134.056,46.6174 134.389,46.1174 134.5,45.5 Z"/></g>
<g><path style="opacity:1" fill="#000000" d="M 138.5,53.5 C 139.034,57.4783 137.534,60.4783 134,62.5C 134.59,60.1857 135.757,58.0191 137.5,56C 134.539,52.067 134.872,51.2336 138.5,53.5 Z"/></g>
<g><path style="opacity:1" fill="#fec90d" d="M 156.5,57.5 C 157.376,57.3691 158.043,57.7025 158.5,58.5C 157.826,60.1955 157.159,61.8621 156.5,63.5C 151.301,65.9304 145.968,68.0971 140.5,70C 137.183,70.4983 133.85,70.665 130.5,70.5C 129.469,69.7515 128.302,69.0848 127,68.5C 126.156,66.5372 126.656,65.2039 128.5,64.5C 129.6,65.5585 130.934,66.3918 132.5,67C 141.494,66.3362 149.494,63.1695 156.5,57.5 Z"/></g>
<g><path style="opacity:1" fill="#232323" d="M 156.5,63.5 C 157.293,68.3273 157.293,73.3273 156.5,78.5C 154.738,78.6427 153.071,78.3094 151.5,77.5C 150.478,77.8555 149.811,78.5222 149.5,79.5C 141.493,79.6664 133.493,79.4997 125.5,79C 124.359,78.2588 124.359,77.4255 125.5,76.5C 129.122,75.6747 132.789,75.1747 136.5,75C 133.518,74.502 130.518,74.3354 127.5,74.5C 127.5,73.1667 127.5,71.8333 127.5,70.5C 128.5,70.5 129.5,70.5 130.5,70.5C 133.85,70.665 137.183,70.4983 140.5,70C 145.968,68.0971 151.301,65.9304 156.5,63.5 Z"/></g>
<g><path style="opacity:1" fill="#402a1d" d="M 149.5,79.5 C 151.924,79.1924 154.257,79.5258 156.5,80.5C 156.137,81.1835 155.804,81.8501 155.5,82.5C 154.987,85.6138 154.154,88.6138 153,91.5C 151.648,87.9218 150.481,84.2551 149.5,80.5C 149.5,80.1667 149.5,79.8333 149.5,79.5 Z"/></g>
<g><path style="opacity:1" fill="#ee9b78" d="M 149.5,80.5 C 150.481,84.2551 151.648,87.9218 153,91.5C 154.154,88.6138 154.987,85.6138 155.5,82.5C 159.254,83.8276 160.421,86.4942 159,90.5C 157.333,91.7332 155.833,93.0665 154.5,94.5C 151.853,96.8109 149.186,99.1442 146.5,101.5C 145.596,102.209 145.263,103.209 145.5,104.5C 143.208,104.756 141.041,104.423 139,103.5C 137.556,105.155 135.722,105.822 133.5,105.5C 132.542,104.038 131.376,102.705 130,101.5C 128.551,95.8496 127.551,90.183 127,84.5C 130.737,80.5191 134.404,80.5191 138,84.5C 141.401,82.1836 145.235,80.8503 149.5,80.5 Z"/></g>
<g><path style="opacity:1" fill="#f7763e" d="M 143.5,83.5 C 144.239,83.369 144.906,83.5357 145.5,84C 142.693,86.7298 141.86,89.8965 143,93.5C 139.715,89.8273 139.882,86.4939 143.5,83.5 Z"/></g>
<g><path style="opacity:1" fill="#000000" d="M 155.5,86.5 C 157.465,86.9483 157.798,87.9483 156.5,89.5C 155.614,88.675 155.281,87.675 155.5,86.5 Z"/></g>
<g><path style="opacity:1" fill="#000000" d="M 129.5,88.5 C 130.404,89.209 130.737,90.209 130.5,91.5C 134.172,92.0447 133.838,92.3781 129.5,92.5C 129.5,91.1667 129.5,89.8333 129.5,88.5 Z"/></g>
<g><path style="opacity:1" fill="#a2a2a2" d="M 154.5,94.5 C 155.338,94.8417 155.672,95.5084 155.5,96.5C 153.431,99.5725 150.764,101.906 147.5,103.5C 146.662,103.158 146.328,102.492 146.5,101.5C 149.186,99.1442 151.853,96.8109 154.5,94.5 Z"/></g>
<g><path style="opacity:1" fill="#430f09" d="M 131.5,95.5 C 138.087,95.1857 139.42,97.3524 135.5,102C 130.791,102.082 129.458,99.9154 131.5,95.5 Z"/></g>
<g><path style="opacity:1" fill="#bf1f1f" d="M 155.5,96.5 C 156.843,98.6834 156.51,100.683 154.5,102.5C 153.017,104.484 151.351,106.317 149.5,108C 149.613,109.28 150.28,110.113 151.5,110.5C 153.529,109.156 155.529,107.823 157.5,106.5C 158.525,106.897 158.692,107.563 158,108.5C 153.966,111.022 150.299,114.022 147,117.5C 147.124,112.864 147.29,108.198 147.5,103.5C 150.764,101.906 153.431,99.5725 155.5,96.5 Z"/></g>
<g><path style="opacity:1" fill="#deaf15" d="M 154.5,102.5 C 155.535,103.791 156.535,105.124 157.5,106.5C 155.529,107.823 153.529,109.156 151.5,110.5C 150.28,110.113 149.613,109.28 149.5,108C 151.351,106.317 153.017,104.484 154.5,102.5 Z"/></g>
<g><path style="opacity:1" fill="#ec1c23" d="M 133.5,105.5 C 135.388,109.56 137.888,113.226 141,116.5C 141.774,118.403 141.44,120.07 140,121.5C 136.5,117.167 133,112.833 129.5,108.5C 130.852,107.476 132.185,106.476 133.5,105.5 Z"/></g>
<g><path style="opacity:1" fill="#1e236f" d="M 138.5,105.5 C 140.833,105.5 143.167,105.5 145.5,105.5C 145.235,109.853 144.735,114.187 144,118.5C 141.886,114.444 139.386,110.611 136.5,107C 137.416,106.722 138.082,106.222 138.5,105.5 Z"/></g>
<g><path style="opacity:1" fill="#be9618" d="M 125.5,109.5 C 124.22,110.931 122.553,111.598 120.5,111.5C 119.35,109.733 120.017,108.567 122.5,108C 123.833,107.333 125.167,107.333 126.5,108C 125.944,108.383 125.611,108.883 125.5,109.5 Z"/></g>
<g><path style="opacity:1" fill="#810314" d="M 154.5,122.5 C 153.5,122.167 152.833,121.5 152.5,120.5C 154.749,116.402 157.249,112.402 160,108.5C 160.5,109 161,109.5 161.5,110C 159.266,114.31 156.932,118.476 154.5,122.5 Z"/></g>
<g><path style="opacity:1" fill="#fec90d" d="M 109.5,109.5 C 112.829,109.264 115.829,110.097 118.5,112C 117.207,112.49 115.873,112.657 114.5,112.5C 114.664,115.187 114.497,117.854 114,120.5C 113.333,115.167 112.667,115.167 112,120.5C 111.667,119.167 111.333,117.833 111,116.5C 109.623,120.265 108.623,119.932 108,115.5C 107.667,116.833 107.333,118.167 107,119.5C 106.416,116.743 106.75,114.077 108,111.5C 109.599,113.036 111.433,113.536 113.5,113C 111.456,112.502 110.122,111.335 109.5,109.5 Z"/></g>
<g><path style="opacity:1" fill="#fec90d" d="M 125.5,109.5 C 127.027,109.427 128.027,110.094 128.5,111.5C 126.611,112.604 124.945,113.937 123.5,115.5C 121.738,114.738 120.738,113.404 120.5,111.5C 122.553,111.598 124.22,110.931 125.5,109.5 Z"/></g>
<g><path style="opacity:1" fill="#2122b5" d="M 174.5,117.5 C 174.233,123.838 173.9,130.171 173.5,136.5C 174.507,141.966 173.174,146.633 169.5,150.5C 170.601,152.642 171.601,154.808 172.5,157C 172,157.5 171.5,158 171,158.5C 167.167,153.333 163.333,148.167 159.5,143C 160.416,142.722 161.082,142.222 161.5,141.5C 161.5,140.167 160.833,139.5 159.5,139.5C 158.778,139.918 158.278,140.584 158,141.5C 156.167,139 154.333,136.5 152.5,134C 153.38,132.644 153.714,131.144 153.5,129.5C 155.781,129.923 157.448,129.256 158.5,127.5C 159.167,127.833 159.833,128.167 160.5,128.5C 163.167,127.833 163.167,127.167 160.5,126.5C 159.833,126.167 159.167,125.833 158.5,125.5C 158.5,124.833 158.167,124.5 157.5,124.5C 157.461,121.911 158.461,119.911 160.5,118.5C 161.833,118.5 162.5,117.833 162.5,116.5C 161.422,114.262 161.922,112.262 164,110.5C 167.124,111.741 170.291,112.908 173.5,114C 174.337,115.011 174.67,116.178 174.5,117.5 Z"/></g>
<g><path style="opacity:1" fill="#e9e9e9" d="M 128.5,111.5 C 131.165,113.64 133.498,116.14 135.5,119C 133.527,119.495 131.527,119.662 129.5,119.5C 129.649,120.552 129.483,121.552 129,122.5C 126.57,120.578 124.737,118.245 123.5,115.5C 124.945,113.937 126.611,112.604 128.5,111.5 Z"/></g>
<g><path style="opacity:1" fill="#1e236f" d="M 118.5,114.5 C 117.359,117.64 117.192,120.973 118,124.5C 119.631,129.759 121.797,134.759 124.5,139.5C 124.19,144.814 121.524,148.147 116.5,149.5C 116.664,146.813 116.497,144.146 116,141.5C 113.586,140.144 111.419,140.478 109.5,142.5C 111.226,139.272 112.726,135.939 114,132.5C 114.659,129.112 114.492,125.779 113.5,122.5C 114.496,122.586 115.329,122.252 116,121.5C 116.182,118.774 116.682,116.107 117.5,113.5C 118.107,113.624 118.44,113.957 118.5,114.5 Z"/></g>
<g><path style="opacity:1" fill="#2022bd" d="M 118.5,114.5 C 121.574,118.078 124.907,121.578 128.5,125C 127.333,125.5 126.5,126.333 126,127.5C 124.033,133.517 125.866,137.517 131.5,139.5C 132.167,142.167 132.833,142.167 133.5,139.5C 133.389,138.883 133.056,138.383 132.5,138C 133.737,137.768 134.737,137.268 135.5,136.5C 136.338,136.158 136.672,135.492 136.5,134.5C 138.114,136.456 139.781,138.456 141.5,140.5C 139.441,145.995 136.441,150.662 132.5,154.5C 132.5,155.167 132.5,155.833 132.5,156.5C 132.528,158.582 131.861,160.416 130.5,162C 120.2,164.029 115.533,159.862 116.5,149.5C 121.524,148.147 124.19,144.814 124.5,139.5C 121.797,134.759 119.631,129.759 118,124.5C 117.192,120.973 117.359,117.64 118.5,114.5 Z"/></g>
<g><path style="opacity:1" fill="#1e23c8" d="M 150.5,118.5 C 150.461,117.244 150.961,116.244 152,115.5C 152.585,116.998 152.085,117.998 150.5,118.5 Z"/></g>
<g><path style="opacity:1" fill="#1e23c8" d="M 195.5,157.5 C 191.873,156.518 188.207,156.351 184.5,157C 185.602,154.599 185.769,152.099 185,149.5C 182,145.167 179,140.833 176,136.5C 175.31,135.262 174.81,135.262 174.5,136.5C 174.167,136.5 173.833,136.5 173.5,136.5C 173.9,130.171 174.233,123.838 174.5,117.5C 175.85,114.894 177.35,114.894 179,117.5C 183.678,131.187 189.178,144.521 195.5,157.5 Z"/></g>
<g><path style="opacity:1" fill="#fec90d" d="M 162.5,116.5 C 162.5,117.833 161.833,118.5 160.5,118.5C 160.5,117.167 161.167,116.5 162.5,116.5 Z"/></g>
<g><path style="opacity:1" fill="#bb1f1e" d="M 150.5,118.5 C 150.833,119.5 151.5,120.167 152.5,120.5C 152.833,121.5 153.5,122.167 154.5,122.5C 154.973,123.906 155.973,124.573 157.5,124.5C 158.167,124.5 158.5,124.833 158.5,125.5C 158.5,126.167 158.5,126.833 158.5,127.5C 156.694,128.024 155.028,128.691 153.5,129.5C 151.167,129.5 148.833,129.5 146.5,129.5C 144.5,128.167 142.833,126.5 141.5,124.5C 141.328,123.508 141.662,122.842 142.5,122.5C 144.389,123.604 146.055,124.937 147.5,126.5C 149.265,127.461 151.265,127.795 153.5,127.5C 153.737,126.209 153.404,125.209 152.5,124.5C 150.833,123.5 149.5,122.167 148.5,120.5C 148.5,119.167 149.167,118.5 150.5,118.5 Z"/></g>
<g><path style="opacity:1" fill="#f8f8f8" d="M 87.5,120.5 C 87.9699,123.825 86.9699,126.992 84.5,130C 85.3317,130.688 85.9984,130.521 86.5,129.5C 87.8378,126.824 89.1711,124.158 90.5,121.5C 91.2868,122.242 91.9535,123.075 92.5,124C 90.3391,126.149 89.1724,128.649 89,131.5C 90.4482,128.545 92.6149,126.545 95.5,125.5C 95.4935,128.518 94.4935,131.184 92.5,133.5C 92.8457,134.696 93.3457,134.696 94,133.5C 95.3333,131.5 96.6667,129.5 98,127.5C 98.8699,128.108 99.3699,128.941 99.5,130C 98.249,135.028 96.249,139.694 93.5,144C 91.6354,145.301 89.6354,145.635 87.5,145C 85.7449,141.285 84.0782,137.618 82.5,134C 83.191,129.122 84.8576,124.622 87.5,120.5 Z"/></g>
<g><path style="opacity:1" fill="#fec90d" d="M 138.5,123.5 C 138.677,125.307 138.344,127.307 137.5,129.5C 133.502,127.857 131.169,124.857 130.5,120.5C 133.831,120.018 136.497,121.018 138.5,123.5 Z"/></g>
<g><path style="opacity:1" fill="#fec90d" d="M 148.5,120.5 C 149.5,122.167 150.833,123.5 152.5,124.5C 151.448,126.256 149.781,126.923 147.5,126.5C 146.055,124.937 144.389,123.604 142.5,122.5C 142.56,121.957 142.893,121.624 143.5,121.5C 145.702,123.268 148.035,124.435 150.5,125C 149.016,123.426 147.349,122.093 145.5,121C 146.448,120.517 147.448,120.351 148.5,120.5 Z"/></g>
<g><path style="opacity:1" fill="#1e23c8" d="M 113.5,122.5 C 114.492,125.779 114.659,129.112 114,132.5C 112.726,135.939 111.226,139.272 109.5,142.5C 107.856,143.316 106.69,144.65 106,146.5C 105.634,142.768 103.968,139.768 101,137.5C 101.032,139.598 101.699,141.598 103,143.5C 102.976,150.587 99.8089,156.087 93.5,160C 92.1667,160.667 90.8333,160.667 89.5,160C 88.7433,158.488 87.7433,157.154 86.5,156C 94.3089,155.201 98.1422,151.035 98,143.5C 97.5,143 97,142.5 96.5,142C 99.4443,135.383 102.611,128.883 106,122.5C 108.394,121.864 110.894,121.864 113.5,122.5 Z"/></g>
<g><path style="opacity:1" fill="#fec90d" d="M 160.5,121.5 C 162.337,121.639 162.67,122.306 161.5,123.5C 160.702,123.043 160.369,122.376 160.5,121.5 Z"/></g>
<g><path style="opacity:1" fill="#eaeaea" d="M 138.5,123.5 C 139.609,123.557 140.609,123.89 141.5,124.5C 142.833,126.5 144.5,128.167 146.5,129.5C 145.908,132.691 144.741,135.691 143,138.5C 140.715,136.093 138.549,133.593 136.5,131C 137.056,130.617 137.389,130.117 137.5,129.5C 138.344,127.307 138.677,125.307 138.5,123.5 Z"/></g>
<g><path style="opacity:1" fill="#000000" d="M 152.5,124.5 C 153.404,125.209 153.737,126.209 153.5,127.5C 151.265,127.795 149.265,127.461 147.5,126.5C 149.781,126.923 151.448,126.256 152.5,124.5 Z"/></g>
<g><path style="opacity:1" fill="#000000" d="M 158.5,125.5 C 159.167,125.833 159.833,126.167 160.5,126.5C 160.5,127.167 160.5,127.833 160.5,128.5C 159.833,128.167 159.167,127.833 158.5,127.5C 158.5,126.833 158.5,126.167 158.5,125.5 Z"/></g>
<g><path style="opacity:1" fill="#bd1f1f" d="M 129.5,129.5 C 129.5,130.833 130.167,131.5 131.5,131.5C 132.167,132.167 132.833,132.833 133.5,133.5C 132.167,133.5 131.5,134.167 131.5,135.5C 130.024,137.761 128.524,137.428 127,134.5C 126.105,131.534 126.605,128.867 128.5,126.5C 130.519,127.133 130.853,128.133 129.5,129.5 Z"/></g>
<g><path style="opacity:1" fill="#fec90d" d="M 160.5,126.5 C 163.167,127.167 163.167,127.833 160.5,128.5C 160.5,127.833 160.5,127.167 160.5,126.5 Z"/></g>
<g><path style="opacity:1" fill="#000000" d="M 158.5,127.5 C 157.448,129.256 155.781,129.923 153.5,129.5C 155.028,128.691 156.694,128.024 158.5,127.5 Z"/></g>
<g><path style="opacity:1" fill="#fec90d" d="M 129.5,129.5 C 130.833,129.5 131.5,130.167 131.5,131.5C 131.5,130.167 130.833,129.5 129.5,129.5 Z"/></g>
<g><path style="opacity:1" fill="#b1201d" d="M 136.5,134.5 C 136.672,135.492 136.338,136.158 135.5,136.5C 134.508,136.672 133.842,136.338 133.5,135.5C 133.5,134.833 133.5,134.167 133.5,133.5C 132.833,132.833 132.167,132.167 131.5,131.5C 133.712,130.953 135.379,131.953 136.5,134.5 Z"/></g>
<g><path style="opacity:1" fill="#850114" d="M 142.5,147.5 C 141.833,147.5 141.5,147.167 141.5,146.5C 144.372,141.421 146.705,136.087 148.5,130.5C 149.675,130.281 150.675,130.614 151.5,131.5C 148.979,137.22 145.979,142.553 142.5,147.5 Z"/></g>
<g><path style="opacity:1" fill="#fec90d" d="M 159.5,132.5 C 161.337,132.639 161.67,133.306 160.5,134.5C 159.702,134.043 159.369,133.376 159.5,132.5 Z"/></g>
<g><path style="opacity:1" fill="#fec90d" d="M 133.5,133.5 C 133.5,134.167 133.5,134.833 133.5,135.5C 132.833,135.5 132.167,135.5 131.5,135.5C 131.5,134.167 132.167,133.5 133.5,133.5 Z"/></g>
<g><path style="opacity:1" fill="#1e236f" d="M 195.5,157.5 C 195.833,158.167 196.167,158.833 196.5,159.5C 193.977,160.384 191.31,161.218 188.5,162C 187.619,162.708 186.953,163.542 186.5,164.5C 182.19,158.563 178.357,152.23 175,145.5C 174.502,142.518 174.335,139.518 174.5,136.5C 174.81,135.262 175.31,135.262 176,136.5C 179,140.833 182,145.167 185,149.5C 185.769,152.099 185.602,154.599 184.5,157C 188.207,156.351 191.873,156.518 195.5,157.5 Z"/></g>
<g><path style="opacity:1" fill="#fefffe" d="M 151.5,136.5 C 157.303,143.816 162.97,151.316 168.5,159C 166.317,160.694 163.984,160.861 161.5,159.5C 157.289,153.577 152.955,147.744 148.5,142C 149.639,140.22 150.639,138.386 151.5,136.5 Z"/></g>
<g><path style="opacity:1" fill="#fec90d" d="M 131.5,139.5 C 132.167,139.5 132.833,139.5 133.5,139.5C 132.833,142.167 132.167,142.167 131.5,139.5 Z"/></g>
<g><path style="opacity:1" fill="#fec90d" d="M 159.5,139.5 C 160.833,139.5 161.5,140.167 161.5,141.5C 160.167,141.5 159.5,140.833 159.5,139.5 Z"/></g>
<g><path style="opacity:1" fill="#ec1c23" d="M 81.5,142.5 C 82.9335,143.833 84.2668,145.333 85.5,147C 88.1667,147.667 90.8333,147.667 93.5,147C 94.6667,146.5 95.5,145.667 96,144.5C 95.4099,151.23 91.5765,154.23 84.5,153.5C 84.6998,150.196 83.3664,147.696 80.5,146C 80.9891,144.862 81.3225,143.695 81.5,142.5 Z"/></g>
<g><path style="opacity:1" fill="#fec90d" d="M 131.5,144.5 C 133.337,144.639 133.67,145.306 132.5,146.5C 131.702,146.043 131.369,145.376 131.5,144.5 Z"/></g>
<g><path style="opacity:1" fill="#2122b6" d="M 157.5,159.5 C 157.5,160.167 157.5,160.833 157.5,161.5C 151.413,163.788 145.08,164.454 138.5,163.5C 141.516,157.469 144.516,151.469 147.5,145.5C 151.822,149.483 155.155,154.15 157.5,159.5 Z"/></g>
<g><path style="opacity:1" fill="#fec90d" d="M 141.5,146.5 C 141.5,147.167 141.833,147.5 142.5,147.5C 142.737,148.791 142.404,149.791 141.5,150.5C 141.5,149.833 141.167,149.5 140.5,149.5C 140.263,148.209 140.596,147.209 141.5,146.5 Z"/></g>
<g><path style="opacity:1" fill="#fec90d" d="M 131.5,149.5 C 133.337,149.639 133.67,150.306 132.5,151.5C 131.702,151.043 131.369,150.376 131.5,149.5 Z"/></g>
<g><path style="opacity:1" fill="#6c0b12" d="M 140.5,149.5 C 141.167,149.5 141.5,149.833 141.5,150.5C 141.737,151.791 141.404,152.791 140.5,153.5C 139.833,153.5 139.5,153.167 139.5,152.5C 138.185,151.105 138.519,150.105 140.5,149.5 Z"/></g>
<g><path style="opacity:1" fill="#272827" d="M 175.5,151.5 C 180.313,159.119 184.647,167.119 188.5,175.5C 187.917,177.002 187.084,178.335 186,179.5C 181.931,171.461 177.931,163.461 174,155.5C 173.516,153.807 174.016,152.473 175.5,151.5 Z"/></g>
<g><path style="opacity:1" fill="#fec90d" d="M 139.5,152.5 C 139.5,153.167 139.833,153.5 140.5,153.5C 140.5,154.833 139.833,155.5 138.5,155.5C 138.5,154.833 138.167,154.5 137.5,154.5C 137.5,153.167 138.167,152.5 139.5,152.5 Z"/></g>
<g><path style="opacity:1" fill="#fec90d" d="M 132.5,154.5 C 134.933,154.786 134.933,155.452 132.5,156.5C 132.5,155.833 132.5,155.167 132.5,154.5 Z"/></g>
<g><path style="opacity:1" fill="#870014" d="M 137.5,154.5 C 138.167,154.5 138.5,154.833 138.5,155.5C 138.611,156.117 138.944,156.617 139.5,157C 134.644,167.213 129.644,177.379 124.5,187.5C 118.308,189.898 115.808,194.232 117,200.5C 115.954,198.91 114.787,197.41 113.5,196C 110.006,194.783 106.673,193.283 103.5,191.5C 102.711,187.898 104.045,185.065 107.5,183C 103.368,184.008 101.202,186.841 101,191.5C 98.3016,189.089 97.9683,186.423 100,183.5C 102.097,182.009 104.43,181.009 107,180.5C 109,176.5 111,172.5 113,168.5C 113.374,169.416 113.874,170.25 114.5,171C 112.121,174.256 110.121,177.756 108.5,181.5C 111.84,185.598 116.007,187.265 121,186.5C 126.259,175.647 131.759,164.98 137.5,154.5 Z"/></g>
<g><path style="opacity:1" fill="#fec90d" d="M 157.5,159.5 C 160.167,160.167 160.167,160.833 157.5,161.5C 157.5,160.833 157.5,160.167 157.5,159.5 Z"/></g>
<g><path style="opacity:1" fill="#1e23c8" d="M 196.5,159.5 C 198.076,162.228 198.576,165.228 198,168.5C 196.562,167.282 194.895,166.615 193,166.5C 190.863,167.077 188.696,167.41 186.5,167.5C 186.5,166.5 186.5,165.5 186.5,164.5C 186.953,163.542 187.619,162.708 188.5,162C 191.31,161.218 193.977,160.384 196.5,159.5 Z"/></g>
<g><path style="opacity:1" fill="#ec1c23" d="M 116.5,161.5 C 120.456,163.876 124.789,165.043 129.5,165C 127.366,169.444 124.866,173.611 122,177.5C 120.395,176.899 119.062,175.899 118,174.5C 116.735,171.539 115.569,168.539 114.5,165.5C 115.18,164.14 115.847,162.807 116.5,161.5 Z"/></g>
<g><path style="opacity:1" fill="#ea1b23" d="M 171.5,165.5 C 170.417,165.461 169.417,165.127 168.5,164.5C 162.958,166.442 157.291,167.942 151.5,169C 155.362,168.626 159.195,168.793 163,169.5C 166.004,168.877 168.838,167.877 171.5,166.5C 174.741,168.729 175.075,171.563 172.5,175C 164.493,178.944 155.993,180.444 147,179.5C 141.833,179.167 136.667,178.833 131.5,178.5C 133.738,174.697 135.404,170.697 136.5,166.5C 148.333,166 159.999,164.334 171.5,161.5C 171.5,162.833 171.5,164.167 171.5,165.5 Z"/></g>
<g><path style="opacity:1" fill="#910c11" d="M 171.5,165.5 C 171.5,165.833 171.5,166.167 171.5,166.5C 168.838,167.877 166.004,168.877 163,169.5C 159.195,168.793 155.362,168.626 151.5,169C 157.291,167.942 162.958,166.442 168.5,164.5C 169.417,165.127 170.417,165.461 171.5,165.5 Z"/></g>
<g><path style="opacity:1" fill="#910c11" d="M 181.5,181.5 C 177.982,179.139 175.982,175.805 175.5,171.5C 175.5,170.5 175.5,169.5 175.5,168.5C 176.675,168.281 177.675,168.614 178.5,169.5C 180.167,172.833 181.833,176.167 183.5,179.5C 183.145,180.522 182.478,181.189 181.5,181.5 Z"/></g>
<g><path style="opacity:1" fill="#ec1c23" d="M 191.5,168.5 C 194.201,170.731 193.701,172.398 190,173.5C 189.5,172.5 189,171.5 188.5,170.5C 189.602,169.824 190.602,169.158 191.5,168.5 Z"/></g>
<g><path style="opacity:1" fill="#cc1f20" d="M 199.5,173.5 C 199.5,174.167 199.5,174.833 199.5,175.5C 199.167,175.5 198.833,175.5 198.5,175.5C 198.167,175.5 197.833,175.5 197.5,175.5C 197.573,173.973 196.906,172.973 195.5,172.5C 194.105,171.352 194.272,170.352 196,169.5C 197.376,170.705 198.542,172.038 199.5,173.5 Z"/></g>
<g><path style="opacity:1" fill="#910c11" d="M 157.5,170.5 C 159.379,170.393 159.712,170.893 158.5,172C 153.875,173.162 149.208,173.496 144.5,173C 149.047,172.571 153.381,171.738 157.5,170.5 Z"/></g>
<g><path style="opacity:1" fill="#f0f0f0" d="M 195.5,172.5 C 196.906,172.973 197.573,173.973 197.5,175.5C 194.056,179.583 189.723,182.583 184.5,184.5C 183.692,184.192 183.025,183.692 182.5,183C 187.268,182.066 190.268,179.232 191.5,174.5C 192.577,173.295 193.91,172.628 195.5,172.5 Z"/></g>
<g><path style="opacity:1" fill="#fec90d" d="M 199.5,173.5 C 201.933,174.548 201.933,175.214 199.5,175.5C 199.5,174.833 199.5,174.167 199.5,173.5 Z"/></g>
<g><path style="opacity:1" fill="#910c11" d="M 155.5,175.5 C 157.379,175.393 157.712,175.893 156.5,177C 150.548,178.33 144.548,178.663 138.5,178C 144.4,177.79 150.066,176.956 155.5,175.5 Z"/></g>
<g><path style="opacity:1" fill="#ec1c23" d="M 198.5,175.5 C 198.833,175.5 199.167,175.5 199.5,175.5C 200.303,176.423 200.47,177.423 200,178.5C 198.961,177.756 198.461,176.756 198.5,175.5 Z"/></g>
<g><path style="opacity:1" fill="#7e7fb1" d="M 117.5,177.5 C 122.295,179.368 122.629,182.035 118.5,185.5C 117.098,185.135 116.098,184.301 115.5,183C 116.077,181.1 116.744,179.267 117.5,177.5 Z"/></g>
<g><path style="opacity:1" fill="#7d7daf" d="M 123.5,299.5 C 122.957,299.44 122.624,299.107 122.5,298.5C 124.415,296.929 125.415,294.929 125.5,292.5C 119.067,292.376 114.067,289.709 110.5,284.5C 111.706,274.204 112.539,263.871 113,253.5C 113.561,254.022 114.228,254.355 115,254.5C 130.023,247.35 129.523,246.35 113.5,251.5C 113.635,235.13 114.468,218.797 116,202.5C 118.579,204.347 121.412,204.847 124.5,204C 127.333,201.167 130.167,198.333 133,195.5C 134.379,190.964 134.879,186.297 134.5,181.5C 139.833,181.5 145.167,181.5 150.5,181.5C 150.833,212.167 151.167,212.167 151.5,181.5C 154.167,181.5 156.833,181.5 159.5,181.5C 159.335,184.85 159.502,188.183 160,191.5C 160.583,193.002 161.416,194.335 162.5,195.5C 161.4,191.125 161.4,186.458 162.5,181.5C 165.956,180.845 169.123,179.511 172,177.5C 171.107,188.11 170.274,198.776 169.5,209.5C 161.234,211.354 152.734,213.354 144,215.5C 137.107,214.795 130.44,213.128 124,210.5C 123.5,210.833 123,211.167 122.5,211.5C 127.841,214.672 133.508,217.172 139.5,219C 136.882,221.739 134.382,224.573 132,227.5C 131.333,228.167 131.333,228.833 132,229.5C 134.667,226.833 137.333,224.167 140,221.5C 140.045,225.25 138.545,228.416 135.5,231C 136.711,231.787 137.711,232.454 138.5,233C 133.885,254.421 129.719,275.921 126,297.5C 125.005,298.066 124.172,298.733 123.5,299.5 Z"/></g>
<g><path style="opacity:1" fill="#fefffe" d="M 196.5,178.5 C 197.995,178.415 198.995,179.081 199.5,180.5C 195.776,184.279 191.276,186.613 186,187.5C 184.941,187.37 184.108,186.87 183.5,186C 188.486,184.511 192.819,182.011 196.5,178.5 Z"/></g>
<g><path style="opacity:1" fill="#7e7fb1" d="M 129.5,181.5 C 130.833,181.5 132.167,181.5 133.5,181.5C 133.665,185.182 133.499,188.848 133,192.5C 132.581,193.672 131.915,194.672 131,195.5C 130.883,192.089 129.383,189.589 126.5,188C 127.914,186.007 128.914,183.84 129.5,181.5 Z"/></g>
<g><path style="opacity:1" fill="#fefffe" d="M 198.5,182.5 C 199.097,182.735 199.43,183.235 199.5,184C 196.074,189.112 191.407,190.946 185.5,189.5C 189.215,188.153 192.882,186.653 196.5,185C 197.381,184.292 198.047,183.458 198.5,182.5 Z"/></g>
<g><path style="opacity:1" fill="#fefffe" d="M 198.5,186.5 C 199.043,186.56 199.376,186.893 199.5,187.5C 196.951,192.275 193.117,194.275 188,193.5C 187.409,192.517 187.743,191.85 189,191.5C 193.149,191.465 196.316,189.798 198.5,186.5 Z"/></g>
<g><path style="opacity:1" fill="#870014" d="M 123.5,190.5 C 127.968,190.748 129.468,193.082 128,197.5C 125.981,200.712 123.147,202.378 119.5,202.5C 117.456,197.299 118.789,193.299 123.5,190.5 Z"/></g>
<g><path style="opacity:1" fill="#910c11" d="M 183.5,190.5 C 186.206,191.639 187.373,193.639 187,196.5C 184.735,195.084 183.569,193.084 183.5,190.5 Z"/></g>
<g><path style="opacity:1" fill="#272827" d="M 197.5,193.5 C 199.892,197.278 202.059,201.278 204,205.5C 204.684,206.784 204.517,207.951 203.5,209C 201.782,209.346 200.115,209.846 198.5,210.5C 195.346,205.859 193.012,200.859 191.5,195.5C 193.786,195.405 195.786,194.738 197.5,193.5 Z"/></g>
<g><path style="opacity:1" fill="#f03c23" d="M 175.5,171.5 C 175.982,175.805 177.982,179.139 181.5,181.5C 181.756,183.937 182.423,186.271 183.5,188.5C 182.978,189.607 182.645,190.774 182.5,192C 184.144,197.286 184.977,202.786 185,208.5C 187.895,212.219 188.228,216.219 186,220.5C 180.894,223.931 175.394,224.931 169.5,223.5C 171.738,207.637 173.071,191.804 173.5,176C 174.099,174.378 174.766,172.878 175.5,171.5 Z"/></g>
<g><path style="opacity:1" fill="#000000" d="M 152.5,209.5 C 136.082,210.064 133.749,210.064 145.5,209.5C 145.538,202.959 146.204,202.959 147.5,209.5C 148.192,208.975 148.692,208.308 149,207.5C 149.71,208.973 150.876,209.64 152.5,209.5 Z"/></g>
<g><path style="opacity:1" fill="#000000" d="M 152.5,209.5 C 154.516,207.773 156.849,206.939 159.5,207C 157.431,208.523 155.097,209.357 152.5,209.5 Z"/></g>
<g><path style="opacity:1" fill="#7e7eb0" d="M 177.5,297.5 C 171.19,299.169 165.19,298.502 159.5,295.5C 160.244,292.557 160.744,289.557 161,286.5C 164.058,286.237 167.225,286.07 170.5,286C 171.833,285 171.833,284 170.5,283C 172.061,282.059 173.395,280.892 174.5,279.5C 168.96,278.794 163.626,277.461 158.5,275.5C 158.968,271.064 157.968,267.064 155.5,263.5C 156.552,263.351 157.552,263.517 158.5,264C 161.223,266.72 163.557,269.72 165.5,273C 171.732,275.163 172.066,274.163 166.5,270C 167.451,269.282 167.617,268.449 167,267.5C 162.974,264.302 159.141,260.968 155.5,257.5C 155.678,256.305 156.011,255.138 156.5,254C 155.094,252.022 154.094,249.855 153.5,247.5C 155.129,248.625 156.629,249.959 158,251.5C 159.724,249.231 159.724,246.897 158,244.5C 155.267,241.938 152.767,239.271 150.5,236.5C 149.833,234.167 149.167,231.833 148.5,229.5C 150.474,231.428 151.974,233.761 153,236.5C 155.391,239.597 158.224,241.763 161.5,243C 159.667,241.167 157.833,239.333 156,237.5C 155.589,233.309 153.589,229.642 150,226.5C 149.187,224.564 148.687,222.564 148.5,220.5C 150.807,220.77 152.974,222.103 155,224.5C 155.667,223.833 155.667,223.167 155,222.5C 153.647,221.315 152.48,219.981 151.5,218.5C 156.825,216.172 162.158,213.838 167.5,211.5C 168.341,216.134 168.341,220.801 167.5,225.5C 170.833,225.833 174.167,226.167 177.5,226.5C 177.313,250.178 177.313,273.844 177.5,297.5 Z"/></g>
<g><path style="opacity:1" fill="#7e7fb1" d="M 155.5,213.5 C 158.598,213.413 158.932,213.913 156.5,215C 150.52,217.116 144.52,217.449 138.5,216C 144.387,216.463 150.054,215.629 155.5,213.5 Z"/></g>
<g><path style="opacity:1" fill="#7e7fb1" d="M 141.5,218.5 C 143.322,219.325 144.989,219.658 146.5,219.5C 145.667,219.833 144.833,220.167 144,220.5C 142.624,220.316 141.791,219.649 141.5,218.5 Z"/></g>
<g><path style="opacity:1" fill="#575793" d="M 148.5,220.5 C 148.687,222.564 149.187,224.564 150,226.5C 153.589,229.642 155.589,233.309 156,237.5C 157.833,239.333 159.667,241.167 161.5,243C 158.224,241.763 155.391,239.597 153,236.5C 151.974,233.761 150.474,231.428 148.5,229.5C 147.319,226.362 147.319,223.362 148.5,220.5 Z"/></g>
<g><path style="opacity:1" fill="#575793" d="M 150.5,236.5 C 152.767,239.271 155.267,241.938 158,244.5C 159.724,246.897 159.724,249.231 158,251.5C 156.629,249.959 155.129,248.625 153.5,247.5C 151.12,244.238 150.12,240.571 150.5,236.5 Z"/></g>
<g><path style="opacity:1" fill="#575793" d="M 155.5,257.5 C 159.141,260.968 162.974,264.302 167,267.5C 167.617,268.449 167.451,269.282 166.5,270C 172.066,274.163 171.732,275.163 165.5,273C 163.557,269.72 161.223,266.72 158.5,264C 157.552,263.517 156.552,263.351 155.5,263.5C 155.5,261.5 155.5,259.5 155.5,257.5 Z"/></g>
<g><path style="opacity:1" fill="#575793" d="M 158.5,275.5 C 163.626,277.461 168.96,278.794 174.5,279.5C 173.395,280.892 172.061,282.059 170.5,283C 171.833,284 171.833,285 170.5,286C 167.225,286.07 164.058,286.237 161,286.5C 160.744,289.557 160.244,292.557 159.5,295.5C 165.19,298.502 171.19,299.169 177.5,297.5C 177.5,299.167 177.5,300.833 177.5,302.5C 170.611,309.831 164.944,308.831 160.5,299.5C 159.675,298.614 158.675,298.281 157.5,298.5C 157.465,293.317 157.132,288.15 156.5,283C 156.3,280.134 156.967,277.634 158.5,275.5 Z"/></g>
<g><path style="opacity:1" fill="#5c5c96" d="M 110.5,284.5 C 114.067,289.709 119.067,292.376 125.5,292.5C 125.415,294.929 124.415,296.929 122.5,298.5C 122.624,299.107 122.957,299.44 123.5,299.5C 124.19,303.49 124.357,307.49 124,311.5C 121.598,317.092 117.431,318.925 111.5,317C 107.239,316.088 106.406,313.921 109,310.5C 109.796,306.245 109.629,302.079 108.5,298C 109,297.5 109.5,297 110,296.5C 110.499,292.514 110.666,288.514 110.5,284.5 Z"/></g>
<g><path style="opacity:1" fill="#7e7fb1" d="M 157.5,298.5 C 158.675,298.281 159.675,298.614 160.5,299.5C 164.944,308.831 170.611,309.831 177.5,302.5C 178.423,306.064 178.756,309.731 178.5,313.5C 175.081,315.412 172.081,317.912 169.5,321C 167.833,321.667 166.167,321.667 164.5,321C 163.307,319.905 161.973,319.072 160.5,318.5C 159.023,311.94 158.023,305.273 157.5,298.5 Z"/></g>
<g><path style="opacity:1" fill="#5c5b96" d="M 178.5,313.5 C 178.793,317.437 178.46,321.27 177.5,325C 172.186,325.708 167.02,326.875 162,328.5C 160.957,325.243 160.457,321.91 160.5,318.5C 161.973,319.072 163.307,319.905 164.5,321C 166.167,321.667 167.833,321.667 169.5,321C 172.081,317.912 175.081,315.412 178.5,313.5 Z"/></g>
<g><path style="opacity:1" fill="#272827" d="M 109.5,318.5 C 113.334,319.8 117.168,319.8 121,318.5C 121.808,320.579 121.641,322.579 120.5,324.5C 117.644,326.522 115.311,329.022 113.5,332C 109.796,335.089 105.963,335.256 102,332.5C 101.333,331.167 101.333,329.833 102,328.5C 104.717,325.29 107.217,321.956 109.5,318.5 Z"/></g>
<g><path style="opacity:1" fill="#272827" d="M 173.5,327.5 C 175.167,327.5 176.833,327.5 178.5,327.5C 178.351,328.552 178.517,329.552 179,330.5C 182.647,332.979 185.813,335.979 188.5,339.5C 184.454,343.293 180.121,343.46 175.5,340C 172.003,337.417 168.336,335.084 164.5,333C 163.663,331.989 163.33,330.822 163.5,329.5C 167.011,329.101 170.344,328.434 173.5,327.5 Z"/></g>
</svg>
