<?xml version="1.0" encoding="UTF-8"?>
<!DOCTYPE svg PUBLIC "-//W3C//DTD SVG 1.1//EN" "http://www.w3.org/Graphics/SVG/1.1/DTD/svg11.dtd">
<svg xmlns="http://www.w3.org/2000/svg" version="1.1" width="430px" height="400px" style="shape-rendering:geometricPrecision; text-rendering:geometricPrecision; image-rendering:optimizeQuality; fill-rule:evenodd; clip-rule:evenodd" xmlns:xlink="http://www.w3.org/1999/xlink">
<g><path style="opacity:1" fill="#fefffe" d="M 197.5,11.5 C 202.844,11.334 208.177,11.5006 213.5,12C 216.057,12.6853 217.891,14.1853 219,16.5C 219.475,24.8552 219.142,33.1886 218,41.5C 217.581,42.6721 216.915,43.6721 216,44.5C 214.848,52.1421 214.514,59.8088 215,67.5C 217.628,69.1255 219.961,71.1255 222,73.5C 222.667,78.5 222.667,83.5 222,88.5C 219.519,90.3137 216.685,90.9804 213.5,90.5C 214.687,95.4059 213.02,98.7392 208.5,100.5C 206.409,103.945 206.242,107.611 208,111.5C 209.385,112.551 210.385,113.884 211,115.5C 211.466,128.517 211.466,141.517 211,154.5C 212.774,157.715 214.274,161.048 215.5,164.5C 218.785,165.324 222.118,165.824 225.5,166C 226,166.5 226.5,167 227,167.5C 237.909,163.628 249.075,160.794 260.5,159C 275.167,155 289.833,151 304.5,147C 306.5,146.333 307.833,145 308.5,143C 319.01,140.573 329.676,138.907 340.5,138C 362.675,130.719 385.008,124.052 407.5,118C 411.755,117.204 415.921,117.371 420,118.5C 420.667,122.833 420.667,127.167 420,131.5C 416.809,134.031 413.642,136.531 410.5,139C 384.773,150.233 358.773,160.233 332.5,169C 311.675,173.206 291.008,178.04 270.5,183.5C 270.548,186.292 269.215,188.125 266.5,189C 252.868,192.491 239.201,195.825 225.5,199C 223.167,200.667 220.833,202.333 218.5,204C 209.295,203.967 200.295,205.3 191.5,208C 194,211.167 196.5,214.333 199,217.5C 203.633,226.445 208.633,235.112 214,243.5C 214.667,250.167 214.667,256.833 214,263.5C 207.787,275.258 202.121,287.258 197,299.5C 195.014,305.317 194.014,311.317 194,317.5C 193.167,318.333 192.333,319.167 191.5,320C 194.667,324.5 198.5,328.333 203,331.5C 203.667,336.5 203.667,341.5 203,346.5C 202.535,347.931 201.701,349.097 200.5,350C 182.821,354.48 168.154,349.813 156.5,336C 142.435,335.914 137.602,329.08 142,315.5C 143.946,312.861 144.946,309.861 145,306.5C 146.29,304.208 147.957,302.208 150,300.5C 153.313,290.53 156.646,280.53 160,270.5C 162.707,265.584 165.541,260.751 168.5,256C 161.383,251.217 154.55,246.051 148,240.5C 141.563,252.706 136.23,265.373 132,278.5C 128.588,285.658 124.922,292.658 121,299.5C 118.897,307.04 116.23,314.373 113,321.5C 111.894,325.122 111.561,328.789 112,332.5C 116.312,336.481 120.312,340.814 124,345.5C 124.667,350.167 124.667,354.833 124,359.5C 110.302,362.509 96.8025,361.675 83.5,357C 81.0413,352.163 77.0413,350.163 71.5,351C 67.0995,348.195 65.4328,344.195 66.5,339C 68.1124,329.6 69.279,320.1 70,310.5C 70.7485,308.668 71.7485,307.001 73,305.5C 74.7577,297.538 76.4244,289.538 78,281.5C 81,276.5 84,271.5 87,266.5C 87.5618,261.917 88.8952,257.583 91,253.5C 91.6667,249.833 91.6667,246.167 91,242.5C 90.2825,241.549 89.4491,241.383 88.5,242C 75.1599,253.933 59.6599,259.1 42,257.5C 41.3333,252.5 41.3333,247.5 42,242.5C 42.7845,240.714 43.9512,239.214 45.5,238C 54.4935,233.505 63.1601,228.505 71.5,223C 76.2568,213.894 82.9235,206.227 91.5,200C 88.5738,199.782 85.7405,199.282 83,198.5C 82.1137,186.085 85.9471,175.251 94.5,166C 93.8742,165.25 93.3742,164.416 93,163.5C 92.3333,158.5 92.3333,153.5 93,148.5C 95.5573,143.277 98.8906,138.61 103,134.5C 103.714,125.376 105.047,116.376 107,107.5C 110.766,100.034 111.599,92.2003 109.5,84C 107.756,74.1952 111.423,67.5286 120.5,64C 124.418,62.8436 128.418,62.3436 132.5,62.5C 132.104,59.9556 132.771,57.7889 134.5,56C 142.358,55.2487 150.025,55.582 157.5,57C 154.453,49.7644 153.786,42.2644 155.5,34.5C 167.191,30.7343 179.191,28.7343 191.5,28.5C 193.313,24.1082 194.479,19.4415 195,14.5C 196.045,13.6266 196.878,12.6266 197.5,11.5 Z"/></g>
<g><path style="opacity:1" fill="#000001" d="M 200.5,14.5 C 203.85,14.335 207.183,14.5017 210.5,15C 213.057,15.6853 214.891,17.1853 216,19.5C 216.152,25.8363 215.819,32.1697 215,38.5C 214.581,39.6721 213.915,40.6721 213,41.5C 212.185,50.8621 211.352,60.1955 210.5,69.5C 213.609,71.475 216.443,73.8084 219,76.5C 221.842,84.8098 219.008,88.4765 210.5,87.5C 210.663,89.8568 210.497,92.1902 210,94.5C 205.563,96.3783 203.396,99.7116 203.5,104.5C 203.316,109.79 204.816,114.456 208,118.5C 208.802,130.909 208.302,143.243 206.5,155.5C 209.027,159.221 211.027,163.221 212.5,167.5C 215.785,168.324 219.118,168.824 222.5,169C 223.09,170.299 224.09,171.132 225.5,171.5C 238.061,167.693 250.728,164.526 263.5,162C 278.167,158 292.833,154 307.5,150C 309.5,149.333 310.833,148 311.5,146C 320.737,144.051 330.071,142.717 339.5,142C 363.987,134.114 388.654,126.948 413.5,120.5C 414.772,120.57 415.938,120.903 417,121.5C 417.667,123.833 417.667,126.167 417,128.5C 414.697,130.393 412.53,132.393 410.5,134.5C 383.893,146.526 356.893,157.026 329.5,166C 308.675,170.206 288.008,175.04 267.5,180.5C 267.548,183.292 266.215,185.125 263.5,186C 249.868,189.491 236.201,192.825 222.5,196C 220.167,197.667 217.833,199.333 215.5,201C 204.94,201.223 194.607,202.889 184.5,206C 194.937,218.44 203.77,231.94 211,246.5C 211.667,251.167 211.667,255.833 211,260.5C 204.787,272.258 199.121,284.258 194,296.5C 192.014,302.317 191.014,308.317 191,314.5C 189.4,315.866 187.567,316.866 185.5,317.5C 188.705,324.54 193.539,330.207 200,334.5C 201.193,339.152 200.36,343.319 197.5,347C 182.154,349.663 169.488,344.996 159.5,333C 153.735,333.517 148.901,331.683 145,327.5C 144.333,324.5 144.333,321.5 145,318.5C 146.946,315.861 147.946,312.861 148,309.5C 149.29,307.208 150.957,305.208 153,303.5C 156.313,293.53 159.646,283.53 163,273.5C 166.53,267.942 169.363,262.109 171.5,256C 171.167,254.833 170.833,253.667 170.5,252.5C 162.24,247.075 154.406,241.075 147,234.5C 139.643,247.55 133.643,261.217 129,275.5C 125.588,282.658 121.922,289.658 118,296.5C 115.897,304.04 113.23,311.373 110,318.5C 109.129,323.512 108.296,328.512 107.5,333.5C 111.429,337.932 115.596,342.265 120,346.5C 121.483,349.702 121.817,353.036 121,356.5C 109.31,359.168 97.8096,358.334 86.5,354C 84.0413,349.163 80.0413,347.163 74.5,348C 71.0586,345.913 69.3919,342.913 69.5,339C 71.359,330.632 72.5256,322.132 73,313.5C 73.7485,311.668 74.7485,310.001 76,308.5C 77.7577,300.538 79.4244,292.538 81,284.5C 89.4021,272.517 94.0688,259.183 95,244.5C 95.7065,242.919 96.5399,241.419 97.5,240C 93.7951,239.96 91.6284,238.127 91,234.5C 79.4362,245.866 65.6029,252.866 49.5,255.5C 47.9002,255.449 46.4002,255.116 45,254.5C 43.5739,249.243 44.7406,244.743 48.5,241C 57.4935,236.505 66.1601,231.505 74.5,226C 76.0738,224.174 76.9071,222.007 77,219.5C 84.197,211.969 91.697,204.802 99.5,198C 98.4214,197.044 97.2547,196.211 96,195.5C 92.9269,196.617 89.7603,196.784 86.5,196C 85.8922,194.769 85.5589,193.436 85.5,192C 88.1265,182.913 92.4598,174.746 98.5,167.5C 95.8831,162.45 95.0498,157.117 96,151.5C 98.5573,146.277 101.891,141.61 106,137.5C 106.714,128.376 108.047,119.376 110,110.5C 111.267,106.131 113.433,102.297 116.5,99C 114.129,96.3255 112.963,93.1589 113,89.5C 110.683,72.5359 118.183,64.5359 135.5,65.5C 135.104,62.9556 135.771,60.7889 137.5,59C 141.167,58.3333 144.833,58.3333 148.5,59C 149.333,59.8333 150.167,60.6667 151,61.5C 154.73,60.5399 158.563,60.2065 162.5,60.5C 161.285,56.0999 159.785,51.7666 158,47.5C 157.176,44.1177 157.343,40.7844 158.5,37.5C 170.191,33.7343 182.191,31.7343 194.5,31.5C 196.313,27.1082 197.479,22.4415 198,17.5C 199.045,16.6266 199.878,15.6266 200.5,14.5 Z"/></g>
<g><path style="opacity:1" fill="#fef200" d="M 204.5,18.5 C 207.885,19.3422 210.551,21.1755 212.5,24C 210.413,24.7922 208.579,25.9588 207,27.5C 205.061,25.8063 203.228,23.973 201.5,22C 202.71,20.9609 203.71,19.7942 204.5,18.5 Z"/></g>
<g><path style="opacity:1" fill="#fef200" d="M 203.5,27.5 C 211.343,29.4896 212.343,33.1563 206.5,38.5C 204.417,37.0413 202.25,35.7079 200,34.5C 199.176,31.1604 200.343,28.827 203.5,27.5 Z"/></g>
<g><path style="opacity:1" fill="#343d61" d="M 191.5,36.5 C 194.978,36.1842 198.312,36.6842 201.5,38C 189.779,41.7305 177.779,43.0639 165.5,42C 167.49,40.2494 169.823,39.2494 172.5,39C 179.014,38.4199 185.347,37.5866 191.5,36.5 Z"/></g>
<g><path style="opacity:1" fill="#222840" d="M 200.5,40.5 C 202.048,40.8212 202.715,41.8212 202.5,43.5C 191.253,45.6823 179.919,47.3489 168.5,48.5C 164.823,48.8005 163.157,47.1339 163.5,43.5C 176.167,45.2671 188.5,44.2671 200.5,40.5 Z"/></g>
<g><path style="opacity:1" fill="#fe7f26" d="M 205.5,40.5 C 206.5,40.5 207.5,40.5 208.5,40.5C 208.664,43.1873 208.497,45.854 208,48.5C 205.106,49.6148 203.939,48.4481 204.5,45C 204.605,43.4085 204.939,41.9085 205.5,40.5 Z"/></g>
<g><path style="opacity:1" fill="#343d61" d="M 202.5,46.5 C 198.067,51.1663 193.733,55.9996 189.5,61C 186.377,64.0199 182.71,65.0199 178.5,64C 174.939,60.9274 171.272,58.0941 167.5,55.5C 167.131,53.5588 166.464,51.7255 165.5,50C 177.333,49.2168 188.999,47.3835 200.5,44.5C 201.713,44.7472 202.38,45.4138 202.5,46.5 Z"/></g>
<g><path style="opacity:1" fill="#222840" d="M 202.5,46.5 C 202.477,48.5996 203.144,50.4329 204.5,52C 203.167,55 201.833,58 200.5,61C 201.777,64.3879 203.444,67.5546 205.5,70.5C 203.747,72.6999 201.414,73.8666 198.5,74C 193.167,74.6667 187.833,74.6667 182.5,74C 183.671,69.4631 181.838,66.6298 177,65.5C 173.929,65.7378 172.429,67.4044 172.5,70.5C 173.571,73.3419 174.738,76.0085 176,78.5C 173.993,77.3313 171.827,76.6646 169.5,76.5C 169.505,73.4682 169.838,70.4682 170.5,67.5C 169.495,63.4877 168.495,59.4877 167.5,55.5C 171.272,58.0941 174.939,60.9274 178.5,64C 182.71,65.0199 186.377,64.0199 189.5,61C 193.733,55.9996 198.067,51.1663 202.5,46.5 Z"/></g>
<g><path style="opacity:1" fill="#fec90d" d="M 205.5,53.5 C 206.648,57.9811 206.815,62.6478 206,67.5C 204.623,65.2462 203.123,63.0795 201.5,61C 203.495,58.8428 204.828,56.3428 205.5,53.5 Z"/></g>
<g><path style="opacity:1" fill="#a9a200" d="M 141.5,63.5 C 144.921,63.2384 145.921,64.5717 144.5,67.5C 143.311,68.4287 141.978,68.762 140.5,68.5C 140.366,66.7085 140.699,65.0418 141.5,63.5 Z"/></g>
<g><path style="opacity:1" fill="#a9a200" d="M 155.5,65.5 C 156.833,65.5 158.167,65.5 159.5,65.5C 159.523,67.5996 158.856,69.4329 157.5,71C 163.027,77.9824 164.527,85.8157 162,94.5C 161.28,96.2552 160.113,97.0885 158.5,97C 161.932,91.158 162.432,84.9914 160,78.5C 158.939,75.4384 157.106,72.9384 154.5,71C 155.074,69.0807 155.407,67.2474 155.5,65.5 Z"/></g>
<g><path style="opacity:1" fill="#fec90d" d="M 175.5,67.5 C 178.99,67.1506 181.323,68.6506 182.5,72C 178.688,76.9015 175.688,76.4015 173.5,70.5C 174.193,69.4822 174.859,68.4822 175.5,67.5 Z"/></g>
<g><path style="opacity:1" fill="#7e7f7e" d="M 131.5,71.5 C 133.628,70.3709 135.961,70.2042 138.5,71C 148.693,78.8838 149.026,87.2171 139.5,96C 137.167,96.6667 134.833,96.6667 132.5,96C 136.424,93.6571 138.424,90.1571 138.5,85.5C 138.795,79.4234 136.462,74.7567 131.5,71.5 Z"/></g>
<g><path style="opacity:1" fill="#a9a200" d="M 141.5,71.5 C 142.386,70.2241 143.386,70.2241 144.5,71.5C 149.775,77.6724 150.941,84.6724 148,92.5C 146.578,94.6381 144.745,95.8047 142.5,96C 150.715,87.2872 150.382,79.1205 141.5,71.5 Z"/></g>
<g><path style="opacity:1" fill="#7e7f7e" d="M 127.5,71.5 C 134.552,74.9365 137.385,80.6032 136,88.5C 133.65,92.7702 130.15,95.7702 125.5,97.5C 121.978,96.1554 119.811,93.822 119,90.5C 120.74,92.9535 122.907,94.4535 125.5,95C 116.009,88.2908 116.343,82.1241 126.5,76.5C 131.739,80.021 132.405,84.1877 128.5,89C 124.945,90.1225 122.945,88.7892 122.5,85C 123.875,81.9309 125.541,81.7642 127.5,84.5C 124.869,86.0046 125.203,86.6713 128.5,86.5C 128.917,81.9315 126.917,80.4315 122.5,82C 120.735,90.2367 123.568,92.4033 131,88.5C 133.045,84.2134 132.545,80.2134 129.5,76.5C 125.089,75.1117 121.589,76.445 119,80.5C 118.735,78.8374 119.235,77.3374 120.5,76C 122.898,74.4758 125.231,72.9758 127.5,71.5 Z"/></g>
<g><path style="opacity:1" fill="#7e7f7e" d="M 147.5,72.5 C 152.727,71.4681 156.227,73.8014 158,79.5C 159.87,84.6396 159.703,89.6396 157.5,94.5C 154.677,97.9697 151.343,98.4697 147.5,96C 150.813,92.7265 152.147,88.7265 151.5,84C 152.205,79.3437 150.871,75.5104 147.5,72.5 Z"/></g>
<g><path style="opacity:1" fill="#7e7f7e" d="M 162.5,74.5 C 163.935,73.9035 165.602,73.9035 167.5,74.5C 167.33,75.8221 167.663,76.9887 168.5,78C 166.604,80.7347 165.938,83.5681 166.5,86.5C 165.375,82.3057 164.042,78.3057 162.5,74.5 Z"/></g>
<g><path style="opacity:1" fill="#222840" d="M 203.5,74.5 C 207.756,75.5719 211.422,77.7386 214.5,81C 203.873,83.0673 193.539,81.734 183.5,77C 190.425,76.9934 197.092,76.1601 203.5,74.5 Z"/></g>
<g><path style="opacity:1" fill="#fec90d" d="M 180.5,76.5 C 181.376,76.3691 182.043,76.7025 182.5,77.5C 181.277,78.6139 179.944,78.7805 178.5,78C 179.416,77.7216 180.082,77.2216 180.5,76.5 Z"/></g>
<g><path style="opacity:1" fill="#670c12" d="M 174.5,80.5 C 173.828,81.2674 172.995,81.9341 172,82.5C 171.667,84.8333 171.333,87.1667 171,89.5C 170.583,88.244 169.75,87.5774 168.5,87.5C 166.494,83.8629 167.16,80.8629 170.5,78.5C 172.026,78.9943 173.359,79.661 174.5,80.5 Z"/></g>
<g><path style="opacity:1" fill="#fec90d" d="M 178.5,79.5 C 179.978,79.238 181.311,79.5713 182.5,80.5C 181.833,80.8333 181.167,81.1667 180.5,81.5C 179.287,81.2528 178.62,80.5862 178.5,79.5 Z"/></g>
<g><path style="opacity:1" fill="#bb846e" d="M 174.5,80.5 C 175.496,80.4142 176.329,80.7476 177,81.5C 178.925,89.1981 180.758,96.5314 182.5,103.5C 175.577,100.875 170.577,96.2088 167.5,89.5C 167.833,88.8333 168.167,88.1667 168.5,87.5C 169.75,87.5774 170.583,88.244 171,89.5C 171.333,87.1667 171.667,84.8333 172,82.5C 172.995,81.9341 173.828,81.2674 174.5,80.5 Z"/></g>
<g><path style="opacity:1" fill="#fec90d" d="M 184.5,83.5 C 182.79,85.9513 180.79,85.9513 178.5,83.5C 180.516,82.3058 182.516,82.3058 184.5,83.5 Z"/></g>
<g><path style="opacity:1" fill="#fefffe" d="M 191.5,82.5 C 193.989,82.2407 195.656,83.2407 196.5,85.5C 194.067,85.7271 192.401,84.7271 191.5,82.5 Z"/></g>
<g><path style="opacity:1" fill="#000000" d="M 174.5,83.5 C 175.239,83.369 175.906,83.5357 176.5,84C 175.5,85 174.5,86 173.5,87C 175.007,87.8373 175.507,89.0039 175,90.5C 171.879,88.3262 171.712,85.9928 174.5,83.5 Z"/></g>
<g><path style="opacity:1" fill="#dc967d" d="M 191.5,82.5 C 192.401,84.7271 194.067,85.7271 196.5,85.5C 198.017,85.4894 199.184,84.8228 200,83.5C 203.179,85.3458 205.679,87.8458 207.5,91C 207.266,92.7324 206.266,93.5658 204.5,93.5C 197.832,90.4745 197.166,91.1412 202.5,95.5C 201.66,96.735 200.66,97.735 199.5,98.5C 195.604,100.759 195.604,102.759 199.5,104.5C 200.598,105.397 200.598,106.23 199.5,107C 195.55,108.133 192.883,106.799 191.5,103C 193.546,99.4005 195.379,95.9005 197,92.5C 194.256,94.9837 192.256,97.9837 191,101.5C 187.645,95.7996 185.478,89.7996 184.5,83.5C 184.343,82.1266 184.51,80.7932 185,79.5C 187.052,80.7929 189.219,81.7929 191.5,82.5 Z"/></g>
<g><path style="opacity:1" fill="#fec90d" d="M 179.5,86.5 C 181.167,86.5 182.833,86.5 184.5,86.5C 184.5,87.5 184.5,88.5 184.5,89.5C 181.715,90.0838 180.048,89.0838 179.5,86.5 Z"/></g>
<g><path style="opacity:1" fill="#fef200" d="M 167.5,89.5 C 170.577,96.2088 175.577,100.875 182.5,103.5C 183.636,108.985 183.636,114.319 182.5,119.5C 182.217,118.711 181.717,118.044 181,117.5C 180.823,113.644 180.323,109.977 179.5,106.5C 174.206,102.873 169.539,98.54 165.5,93.5C 165.157,91.5168 165.824,90.1834 167.5,89.5 Z"/></g>
<g><path style="opacity:1" fill="#fec90d" d="M 180.5,92.5 C 181.919,91.5489 183.585,91.2155 185.5,91.5C 185.421,92.9305 185.754,94.2638 186.5,95.5C 183.147,97.1399 181.147,96.1399 180.5,92.5 Z"/></g>
<g><path style="opacity:1" fill="#2e3554" d="M 165.5,93.5 C 169.539,98.54 174.206,102.873 179.5,106.5C 179.66,108.199 179.494,109.866 179,111.5C 178.727,109.671 177.893,108.171 176.5,107C 174.209,104.66 171.542,103.327 168.5,103C 172.188,106.688 175.855,110.355 179.5,114C 179.15,115.257 178.483,115.591 177.5,115C 171.922,110.093 167.089,104.593 163,98.5C 163.097,96.5415 163.93,94.8748 165.5,93.5 Z"/></g>
<g><path style="opacity:1" fill="#8d593c" d="M 147.5,101.5 C 145.858,102.803 144.191,104.136 142.5,105.5C 139.808,106.009 137.308,107.009 135,108.5C 135.374,106.231 135.374,103.898 135,101.5C 134.097,100.299 132.931,99.4652 131.5,99C 137.833,98.3333 144.167,98.3333 150.5,99C 150.833,99.3333 151.167,99.6667 151.5,100C 149.942,100.21 148.609,100.71 147.5,101.5 Z"/></g>
<g><path style="opacity:1" fill="#fec90d" d="M 182.5,99.5 C 185.157,97.9872 187.49,98.4872 189.5,101C 186.829,101.833 184.496,101.333 182.5,99.5 Z"/></g>
<g><path style="opacity:1" fill="#4a0f0a" d="M 199.5,98.5 C 199.5,100.5 199.5,102.5 199.5,104.5C 195.604,102.759 195.604,100.759 199.5,98.5 Z"/></g>
<g><path style="opacity:1" fill="#b87a56" d="M 123.5,99.5 C 126.625,99.8647 129.625,100.698 132.5,102C 133.772,104.044 133.439,105.878 131.5,107.5C 126.108,109.03 121.108,111.363 116.5,114.5C 115.417,113.635 115.251,112.635 116,111.5C 117.933,107.083 120.433,103.083 123.5,99.5 Z"/></g>
<g><path style="opacity:1" fill="#fef200" d="M 158.5,100.5 C 160.672,99.5785 162.339,100.412 163.5,103C 163,103.5 162.5,104 162,104.5C 161.051,102.907 159.885,101.574 158.5,100.5 Z"/></g>
<g><path style="opacity:1" fill="#fef200" d="M 136.5,147.5 C 137.167,145.833 137.833,144.167 138.5,142.5C 147.593,140.249 153.76,134.582 157,125.5C 157.667,120.167 157.667,114.833 157,109.5C 156.521,106.376 155.354,103.543 153.5,101C 154.5,100.333 155.5,100.333 156.5,101C 157.977,103.445 159.81,105.612 162,107.5C 163.319,116.787 162.319,125.787 159,134.5C 152.886,141.09 145.386,145.423 136.5,147.5 Z"/></g>
<g><path style="opacity:1" fill="#fef200" d="M 147.5,101.5 C 148.873,101.343 150.207,101.51 151.5,102C 149.999,103.252 148.332,104.252 146.5,105C 148.737,108.258 151.237,108.758 154,106.5C 154.47,107.577 154.303,108.577 153.5,109.5C 152.29,109.932 151.29,110.599 150.5,111.5C 148.117,109.642 145.45,108.308 142.5,107.5C 142.5,106.833 142.5,106.167 142.5,105.5C 144.191,104.136 145.858,102.803 147.5,101.5 Z"/></g>
<g><path style="opacity:1" fill="#fec90d" d="M 185.5,103.5 C 187.977,103.051 189.977,103.717 191.5,105.5C 189.926,106.631 188.259,106.798 186.5,106C 185.748,105.329 185.414,104.496 185.5,103.5 Z"/></g>
<g><path style="opacity:1" fill="#114e0f" d="M 182.5,119.5 C 182.66,121.199 182.494,122.866 182,124.5C 176.403,117.849 170.237,111.682 163.5,106C 168.924,108.068 173.257,111.734 176.5,117C 178.407,118.122 180.407,118.955 182.5,119.5 Z"/></g>
<g><path style="opacity:1" fill="#1d801a" d="M 142.5,107.5 C 145.45,108.308 148.117,109.642 150.5,111.5C 150.5,111.833 150.5,112.167 150.5,112.5C 151.723,115.274 153.223,117.941 155,120.5C 154.055,126.83 151.222,132.33 146.5,137C 144.323,138.202 141.989,138.702 139.5,138.5C 133.851,128.533 132.184,129.199 134.5,140.5C 132.95,143.242 131.117,145.909 129,148.5C 127.729,149.883 126.229,150.883 124.5,151.5C 121.533,149.503 118.533,147.503 115.5,145.5C 117.792,143.563 120.292,141.896 123,140.5C 123.287,138.109 123.787,135.776 124.5,133.5C 123.277,132.386 121.944,132.219 120.5,133C 114.665,137.467 110.498,142.967 108,149.5C 113.125,150.558 118.292,151.558 123.5,152.5C 122.854,154.156 122.187,155.823 121.5,157.5C 123.9,164.92 126.233,172.42 128.5,180C 127.944,181.011 127.278,181.844 126.5,182.5C 121.991,183.998 117.324,185.332 112.5,186.5C 111.503,186.53 110.836,186.03 110.5,185C 107.468,175.195 104.135,165.528 100.5,156C 108.927,142.752 118.26,130.252 128.5,118.5C 132.166,121.997 135.999,125.331 140,128.5C 141.701,125.751 141.367,123.084 139,120.5C 137.087,117.72 134.587,116.053 131.5,115.5C 131.859,113.629 132.859,112.129 134.5,111C 137.076,109.544 139.742,108.377 142.5,107.5 Z"/></g>
<g><path style="opacity:1" fill="#b87a56" d="M 130.5,109.5 C 131.239,109.369 131.906,109.536 132.5,110C 124.826,117.86 117.993,126.36 112,135.5C 112.046,128.716 113.879,122.383 117.5,116.5C 121.767,113.869 126.101,111.536 130.5,109.5 Z"/></g>
<g><path style="opacity:1" fill="#8f880b" d="M 153.5,109.5 C 154.117,109.611 154.617,109.944 155,110.5C 155.667,112.5 155.667,114.5 155,116.5C 154.252,114.249 152.752,112.916 150.5,112.5C 150.5,112.167 150.5,111.833 150.5,111.5C 151.29,110.599 152.29,109.932 153.5,109.5 Z"/></g>
<g><path style="opacity:1" fill="#a9a200" d="M 194.5,114.5 C 192.623,113.341 192.123,111.674 193,109.5C 193.608,111.154 194.108,112.821 194.5,114.5 Z"/></g>
<g><path style="opacity:1" fill="#f5e800" d="M 164.5,110.5 C 171.503,115.171 177.169,121.171 181.5,128.5C 179.613,130.04 177.78,131.707 176,133.5C 173,129.167 169.333,125.5 165,122.5C 164.501,118.514 164.334,114.514 164.5,110.5 Z"/></g>
<g><path style="opacity:1" fill="#fef200" d="M 194.5,114.5 C 196.469,117.074 197.469,120.074 197.5,123.5C 196.614,128.814 195.947,134.147 195.5,139.5C 194.508,141.456 193.508,143.456 192.5,145.5C 191.853,144.726 191.52,143.726 191.5,142.5C 192.4,136.213 193.734,130.047 195.5,124C 195.099,120.833 194.766,117.666 194.5,114.5 Z"/></g>
<g><path style="opacity:1" fill="#2ec928" d="M 131.5,115.5 C 134.587,116.053 137.087,117.72 139,120.5C 141.367,123.084 141.701,125.751 140,128.5C 135.999,125.331 132.166,121.997 128.5,118.5C 129.167,117.167 130.167,116.167 131.5,115.5 Z"/></g>
<g><path style="opacity:1" fill="#fef200" d="M 191.5,115.5 C 195.152,124.047 193.485,131.547 186.5,138C 178.186,145.496 168.853,151.496 158.5,156C 148.205,159.932 137.872,163.765 127.5,167.5C 124.809,164.105 125.142,161.271 128.5,159C 140.95,153.942 153.283,148.609 165.5,143C 172.624,139.02 179.124,134.186 185,128.5C 187.18,124.14 189.347,119.807 191.5,115.5 Z"/></g>
<g><path style="opacity:1" fill="#1d7f1b" d="M 201.5,173.5 C 199.981,174.41 198.315,175.243 196.5,176C 195.601,177.652 194.601,179.152 193.5,180.5C 192.326,179.486 191.66,178.153 191.5,176.5C 192.403,173.609 192.736,170.609 192.5,167.5C 195.558,165.868 198.891,164.701 202.5,164C 199.045,161.947 195.712,162.113 192.5,164.5C 192.677,160.766 192.344,157.099 191.5,153.5C 191.279,150.721 191.612,148.054 192.5,145.5C 193.508,143.456 194.508,141.456 195.5,139.5C 197.067,138.319 197.901,136.653 198,134.5C 198.93,129.201 199.597,123.867 200,118.5C 201.385,119.551 202.385,120.884 203,122.5C 203.442,133.532 202.942,144.532 201.5,155.5C 201.667,157.167 201.833,158.833 202,160.5C 204.345,163.856 206.178,167.523 207.5,171.5C 205.369,172.169 203.369,172.835 201.5,173.5 Z"/></g>
<g><path style="opacity:1" fill="#b4b4b4" d="M 357.5,148.5 C 352.156,149.891 346.823,151.391 341.5,153C 337.179,153.499 332.846,153.666 328.5,153.5C 328.493,147.829 331.159,146.163 336.5,148.5C 360.811,141.674 384.978,134.341 409,126.5C 410.368,125.297 411.868,124.297 413.5,123.5C 414.754,125.259 414.421,126.759 412.5,128C 390.062,137.886 367.395,147.219 344.5,156C 340.868,156.991 337.201,157.825 333.5,158.5C 331.714,158.304 330.381,157.471 329.5,156C 339.695,156.287 349.028,153.787 357.5,148.5 Z"/></g>
<g><path style="opacity:1" fill="#1d831a" d="M 164.5,125.5 C 167.975,127.412 170.808,130.078 173,133.5C 173.617,134.449 173.451,135.282 172.5,136C 158.807,143.763 144.64,150.596 130,156.5C 129.506,154.866 129.34,153.199 129.5,151.5C 142.054,149.974 152.554,144.641 161,135.5C 162.077,132.101 163.244,128.767 164.5,125.5 Z"/></g>
<g><path style="opacity:1" fill="#2ec928" d="M 139.5,138.5 C 138.22,139.931 136.553,140.598 134.5,140.5C 132.184,129.199 133.851,128.533 139.5,138.5 Z"/></g>
<g><path style="opacity:1" fill="#000000" d="M 396.5,131.5 C 400.339,131.612 400.339,132.279 396.5,133.5C 395.537,133.03 395.537,132.363 396.5,131.5 Z"/></g>
<g><path style="opacity:1" fill="#2ec928" d="M 124.5,151.5 C 124.5,152.167 124.167,152.5 123.5,152.5C 118.292,151.558 113.125,150.558 108,149.5C 110.498,142.967 114.665,137.467 120.5,133C 121.944,132.219 123.277,132.386 124.5,133.5C 123.787,135.776 123.287,138.109 123,140.5C 120.292,141.896 117.792,143.563 115.5,145.5C 118.533,147.503 121.533,149.503 124.5,151.5 Z"/></g>
<g><path style="opacity:1" fill="#fef200" d="M 187.5,139.5 C 190.32,145.154 190.153,150.821 187,156.5C 187.379,151.578 185.879,147.412 182.5,144C 184.063,142.264 185.73,140.764 187.5,139.5 Z"/></g>
<g><path style="opacity:1" fill="#a9a200" d="M 138.5,142.5 C 137.833,144.167 137.167,145.833 136.5,147.5C 135.122,148.234 133.622,148.901 132,149.5C 131.833,149.167 131.667,148.833 131.5,148.5C 133.3,145.687 135.633,143.687 138.5,142.5 Z"/></g>
<g><path style="opacity:1" fill="#a9a200" d="M 182.5,149.5 C 180.396,156.478 178.063,163.478 175.5,170.5C 174.986,171.625 174.653,172.791 174.5,174C 170.975,174.179 167.641,174.679 164.5,175.5C 156.866,174.912 149.533,176.079 142.5,179C 148.702,181.844 155.202,183.678 162,184.5C 164.511,184.16 166.678,183.16 168.5,181.5C 167.824,184.339 165.991,186.005 163,186.5C 160.566,185.678 158.066,185.344 155.5,185.5C 154.081,184.549 152.415,184.216 150.5,184.5C 145.512,182.178 140.179,180.845 134.5,180.5C 132.781,179.978 131.448,178.978 130.5,177.5C 132.786,177.405 134.786,176.738 136.5,175.5C 143.942,174.294 151.276,173.294 158.5,172.5C 163.619,173.103 168.285,172.436 172.5,170.5C 174.008,168.819 175.008,166.819 175.5,164.5C 176.931,163.22 177.598,161.553 177.5,159.5C 179.118,156.829 179.785,153.829 179.5,150.5C 180.302,149.048 180.802,147.382 181,145.5C 182.188,146.563 182.688,147.897 182.5,149.5 Z"/></g>
<g><path style="opacity:1" fill="#1d7a1a" d="M 179.5,150.5 C 179.785,153.829 179.118,156.829 177.5,159.5C 168.321,158.186 159.654,160.019 151.5,165C 158.029,163.896 164.696,162.729 171.5,161.5C 173.982,161.11 175.315,162.11 175.5,164.5C 168.536,166.044 161.536,167.544 154.5,169C 159.183,169.566 163.85,169.399 168.5,168.5C 170.333,168.585 171.666,169.252 172.5,170.5C 167.731,171.117 163.064,171.784 158.5,172.5C 151.276,173.294 143.942,174.294 136.5,175.5C 133.255,173.676 132.255,171.009 133.5,167.5C 149.822,162.898 164.989,155.898 179,146.5C 179.49,147.793 179.657,149.127 179.5,150.5 Z"/></g>
<g><path style="opacity:1" fill="#000000" d="M 357.5,148.5 C 358.799,146.901 360.465,146.401 362.5,147C 360.975,148.009 359.308,148.509 357.5,148.5 Z"/></g>
<g><path style="opacity:1" fill="#123a0f" d="M 182.5,149.5 C 183.777,150.694 184.444,152.36 184.5,154.5C 183.216,160.085 181.05,165.418 178,170.5C 177.023,171.774 176.189,171.774 175.5,170.5C 178.063,163.478 180.396,156.478 182.5,149.5 Z"/></g>
<g><path style="opacity:1" fill="#c2c3c2" d="M 325.5,149.5 C 330.693,158.048 328.026,162.381 317.5,162.5C 318.186,158.713 317.186,155.546 314.5,153C 315.814,150.415 317.814,149.915 320.5,151.5C 322.557,151.564 324.223,150.898 325.5,149.5 Z"/></g>
<g><path style="opacity:1" fill="#2ec928" d="M 105.5,154.5 C 110.865,152.822 115.532,154.155 119.5,158.5C 119.167,158.833 118.833,159.167 118.5,159.5C 114.468,156.981 110.135,155.315 105.5,154.5 Z"/></g>
<g><path style="opacity:1" fill="#114e0f" d="M 191.5,153.5 C 192.344,157.099 192.677,160.766 192.5,164.5C 190.887,165.838 190.387,167.505 191,169.5C 191.278,168.584 191.778,167.918 192.5,167.5C 192.736,170.609 192.403,173.609 191.5,176.5C 190.778,176.082 190.278,175.416 190,174.5C 188.803,168.871 188.47,163.204 189,157.5C 189.608,155.934 190.442,154.6 191.5,153.5 Z"/></g>
<g><path style="opacity:1" fill="#c2c3c2" d="M 311.5,154.5 C 314.083,155.092 314.083,155.758 311.5,156.5C 294.63,161.468 277.63,165.634 260.5,169C 277.631,164.229 294.631,159.396 311.5,154.5 Z"/></g>
<g><path style="opacity:1" fill="#73552b" d="M 314.5,157.5 C 315.461,159.265 315.795,161.265 315.5,163.5C 301.006,166.04 286.673,169.373 272.5,173.5C 270.761,172.6 268.928,171.933 267,171.5C 265.159,172.125 263.326,172.292 261.5,172C 279.183,166.997 296.85,162.164 314.5,157.5 Z"/></g>
<g><path style="opacity:1" fill="#114810" d="M 177.5,159.5 C 177.598,161.553 176.931,163.22 175.5,164.5C 175.315,162.11 173.982,161.11 171.5,161.5C 164.696,162.729 158.029,163.896 151.5,165C 159.654,160.019 168.321,158.186 177.5,159.5 Z"/></g>
<g><path style="opacity:1" fill="#2ec928" d="M 109.5,159.5 C 113.993,160.577 117.66,162.911 120.5,166.5C 115.19,167 111.524,164.667 109.5,159.5 Z"/></g>
<g><path style="opacity:1" fill="#000000" d="M 192.5,167.5 C 191.778,167.918 191.278,168.584 191,169.5C 190.387,167.505 190.887,165.838 192.5,164.5C 195.712,162.113 199.045,161.947 202.5,164C 198.891,164.701 195.558,165.868 192.5,167.5 Z"/></g>
<g><path style="opacity:1" fill="#123c0f" d="M 175.5,164.5 C 175.008,166.819 174.008,168.819 172.5,170.5C 171.666,169.252 170.333,168.585 168.5,168.5C 163.85,169.399 159.183,169.566 154.5,169C 161.536,167.544 168.536,166.044 175.5,164.5 Z"/></g>
<g><path style="opacity:1" fill="#124410" d="M 133.5,167.5 C 132.255,171.009 133.255,173.676 136.5,175.5C 134.786,176.738 132.786,177.405 130.5,177.5C 129.33,175.35 128.33,173.016 127.5,170.5C 129.32,169.117 131.32,168.117 133.5,167.5 Z"/></g>
<g><path style="opacity:1" fill="#c2c3c2" d="M 255.5,169.5 C 255.897,168.475 256.563,168.308 257.5,169C 258.13,170.892 259.13,172.559 260.5,174C 263.2,174.253 265.867,174.253 268.5,174C 264.838,174.902 262.338,177.069 261,180.5C 259.648,176.462 257.814,172.795 255.5,169.5 Z"/></g>
<g><path style="opacity:1" fill="#c2c3c2" d="M 251.5,169.5 C 252.756,169.461 253.756,169.961 254.5,171C 235.825,175.67 217.158,180.004 198.5,184C 216.297,179.228 233.963,174.395 251.5,169.5 Z"/></g>
<g><path style="opacity:1" fill="#000000" d="M 172.5,170.5 C 168.285,172.436 163.619,173.103 158.5,172.5C 163.064,171.784 167.731,171.117 172.5,170.5 Z"/></g>
<g><path style="opacity:1" fill="#fefffe" d="M 183.5,172.5 C 184.266,174.684 184.933,177.018 185.5,179.5C 183.892,180.318 182.225,180.985 180.5,181.5C 179.386,180.277 179.219,178.944 180,177.5C 181.802,176.211 182.969,174.544 183.5,172.5 Z"/></g>
<g><path style="opacity:1" fill="#a9a200" d="M 201.5,173.5 C 203.099,173.232 204.432,173.566 205.5,174.5C 201.254,174.78 198.254,176.78 196.5,180.5C 195.849,181.091 195.182,181.757 194.5,182.5C 193.702,182.043 193.369,181.376 193.5,180.5C 194.601,179.152 195.601,177.652 196.5,176C 198.315,175.243 199.981,174.41 201.5,173.5 Z"/></g>
<g><path style="opacity:1" fill="#df9d82" d="M 205.5,178.5 C 206.71,178.068 207.71,177.401 208.5,176.5C 209.265,176.923 210.098,177.257 211,177.5C 213.289,176.381 215.455,175.047 217.5,173.5C 218.731,174.651 218.731,175.817 217.5,177C 214.167,177.833 210.833,178.667 207.5,179.5C 206.584,179.457 205.917,179.124 205.5,178.5 Z"/></g>
<g><path style="opacity:1" fill="#604726" d="M 255.5,178.5 C 242.442,182.347 229.442,186.347 216.5,190.5C 214.707,188.574 213.707,186.241 213.5,183.5C 226.632,179.884 239.966,176.55 253.5,173.5C 255.569,173.785 256.902,174.952 257.5,177C 256.584,177.278 255.918,177.778 255.5,178.5 Z"/></g>
<g><path style="opacity:1" fill="#292f49" d="M 205.5,174.5 C 207.179,174.285 208.179,174.952 208.5,176.5C 207.71,177.401 206.71,178.068 205.5,178.5C 202.923,180.201 200.089,181.534 197,182.5C 196.536,181.906 196.369,181.239 196.5,180.5C 198.254,176.78 201.254,174.78 205.5,174.5 Z"/></g>
<g><path style="opacity:1" fill="#12380f" d="M 164.5,175.5 C 166.415,175.216 168.081,175.549 169.5,176.5C 168.699,178.042 168.366,179.708 168.5,181.5C 166.678,183.16 164.511,184.16 162,184.5C 155.202,183.678 148.702,181.844 142.5,179C 149.533,176.079 156.866,174.912 164.5,175.5 Z"/></g>
<g><path style="opacity:1" fill="#a9a200" d="M 171.5,177.5 C 170.07,179.455 170.403,181.121 172.5,182.5C 172.5,183.833 171.833,184.5 170.5,184.5C 170.068,183.29 169.401,182.29 168.5,181.5C 168.366,179.708 168.699,178.042 169.5,176.5C 170.925,174.969 171.591,175.302 171.5,177.5 Z"/></g>
<g><path style="opacity:1" fill="#123d0f" d="M 172.5,182.5 C 170.403,181.121 170.07,179.455 171.5,177.5C 172.222,177.082 172.722,176.416 173,175.5C 175.125,178.174 174.958,180.507 172.5,182.5 Z"/></g>
<g><path style="opacity:1" fill="#222840" d="M 105.5,178.5 C 106.67,180.65 107.67,182.984 108.5,185.5C 107.079,188.009 105.412,190.343 103.5,192.5C 101.503,192.014 100.169,190.847 99.5,189C 101.739,185.604 103.739,182.104 105.5,178.5 Z"/></g>
<g><path style="opacity:1" fill="#c1c7ae" d="M 255.5,178.5 C 257.359,178.461 258.692,179.294 259.5,181C 245.734,185.441 231.734,188.941 217.5,191.5C 217.5,190.833 217.167,190.5 216.5,190.5C 229.442,186.347 242.442,182.347 255.5,178.5 Z"/></g>
<g><path style="opacity:1" fill="#124410" d="M 134.5,180.5 C 140.179,180.845 145.512,182.178 150.5,184.5C 149.222,184.782 148.222,185.449 147.5,186.5C 145.209,187.897 143.042,189.564 141,191.5C 140.28,193.112 140.446,194.612 141.5,196C 140.437,197.188 139.103,197.688 137.5,197.5C 136.833,197.5 136.5,197.167 136.5,196.5C 136.539,195.417 136.873,194.417 137.5,193.5C 135.5,189.5 133.5,185.5 131.5,181.5C 132.325,180.614 133.325,180.281 134.5,180.5 Z"/></g>
<g><path style="opacity:1" fill="#a9a200" d="M 126.5,182.5 C 128.103,182.312 129.437,182.812 130.5,184C 127.964,184.186 125.631,184.686 123.5,185.5C 119.863,186.263 116.53,187.597 113.5,189.5C 111.204,189.196 110.871,188.196 112.5,186.5C 117.324,185.332 121.991,183.998 126.5,182.5 Z"/></g>
<g><path style="opacity:1" fill="#12380f" d="M 168.5,181.5 C 169.401,182.29 170.068,183.29 170.5,184.5C 171.091,185.151 171.757,185.818 172.5,186.5C 166.534,189.166 160.534,190.499 154.5,190.5C 156.599,189.185 156.933,187.518 155.5,185.5C 158.066,185.344 160.566,185.678 163,186.5C 165.991,186.005 167.824,184.339 168.5,181.5 Z"/></g>
<g><path style="opacity:1" fill="#b9826d" d="M 213.5,183.5 C 213.707,186.241 214.707,188.574 216.5,190.5C 217.167,190.5 217.5,190.833 217.5,191.5C 215.061,193.41 212.727,195.077 210.5,196.5C 209.824,195.398 209.158,194.398 208.5,193.5C 207.566,192.432 207.232,191.099 207.5,189.5C 207.231,187.571 207.731,185.905 209,184.5C 209.333,185.167 209.667,185.833 210,186.5C 210.422,184.574 211.589,183.574 213.5,183.5 Z"/></g>
<g><path style="opacity:1" fill="#c2c3c2" d="M 189.5,184.5 C 190.552,184.351 191.552,184.517 192.5,185C 181.001,188.791 169.335,191.791 157.5,194C 168.142,190.511 178.809,187.345 189.5,184.5 Z"/></g>
<g><path style="opacity:1" fill="#c2c3c2" d="M 195.5,184.5 C 196.117,184.611 196.617,184.944 197,185.5C 197.837,187.821 198.17,190.155 198,192.5C 196.269,190.138 195.435,187.471 195.5,184.5 Z"/></g>
<g><path style="opacity:1" fill="#323a5c" d="M 123.5,185.5 C 126.247,185.187 128.914,185.52 131.5,186.5C 132.637,188.607 133.637,190.773 134.5,193C 128.806,196.266 122.973,199.433 117,202.5C 114.433,198.336 113.266,194.002 113.5,189.5C 116.53,187.597 119.863,186.263 123.5,185.5 Z"/></g>
<g><path style="opacity:1" fill="#c2c3c2" d="M 155.5,185.5 C 156.933,187.518 156.599,189.185 154.5,190.5C 153.761,190.631 153.094,190.464 152.5,190C 153.781,188.591 154.781,187.091 155.5,185.5 Z"/></g>
<g><path style="opacity:1" fill="#df9d82" d="M 207.5,189.5 C 207.232,191.099 207.566,192.432 208.5,193.5C 208.5,194.5 208.5,195.5 208.5,196.5C 207.167,196.5 205.833,196.5 204.5,196.5C 204.795,194.265 204.461,192.265 203.5,190.5C 204.355,184.568 205.689,184.234 207.5,189.5 Z"/></g>
<g><path style="opacity:1" fill="#df9d82" d="M 203.5,190.5 C 203.799,192.604 203.466,194.604 202.5,196.5C 199.522,193.67 198.856,190.337 200.5,186.5C 201.859,187.624 202.859,188.958 203.5,190.5 Z"/></g>
<g><path style="opacity:1" fill="#70542d" d="M 153.5,207.5 C 149.561,206.208 147.895,207.875 148.5,212.5C 147.167,212.5 145.833,212.5 144.5,212.5C 144.649,211.448 144.483,210.448 144,209.5C 143.667,209.833 143.333,210.167 143,210.5C 142.722,209.584 142.222,208.918 141.5,208.5C 139.926,206.898 139.259,204.898 139.5,202.5C 139.45,200.41 140.45,199.077 142.5,198.5C 143.134,200.567 144.134,202.4 145.5,204C 147.809,204.006 149.975,204.172 152,204.5C 153.775,203.73 155.275,202.563 156.5,201C 158.167,200.667 159.833,200.333 161.5,200C 162.833,198.667 162.833,197.333 161.5,196C 172.05,193.238 182.55,190.405 193,187.5C 193.837,189.351 194.671,191.184 195.5,193C 183.511,196.664 171.511,200.331 159.5,204C 157.308,204.926 155.308,206.093 153.5,207.5 Z"/></g>
<g><path style="opacity:1" fill="#bcbcbc" d="M 150.5,184.5 C 150.185,186.226 150.019,187.893 150,189.5C 152.919,193.089 156.419,195.922 160.5,198C 156.768,197.812 153.934,199.312 152,202.5C 150.213,201.657 148.38,201.49 146.5,202C 146.081,198.725 144.747,195.891 142.5,193.5C 143.415,191.02 144.915,190.353 147,191.5C 147.494,189.866 147.66,188.199 147.5,186.5C 148.222,185.449 149.222,184.782 150.5,184.5 Z"/></g>
<g><path style="opacity:1" fill="#222840" d="M 109.5,194.5 C 111.609,195.052 112.442,196.386 112,198.5C 107.651,202.682 103.485,207.015 99.5,211.5C 97.3785,213.115 95.0451,213.615 92.5,213C 99.4215,207.915 105.088,201.748 109.5,194.5 Z"/></g>
<g><path style="opacity:1" fill="#c1c7ae" d="M 196.5,194.5 C 198.103,194.312 199.437,194.812 200.5,196C 192.023,198.953 183.356,201.286 174.5,203C 170.448,206.872 165.781,208.039 160.5,206.5C 172.604,202.482 184.604,198.482 196.5,194.5 Z"/></g>
<g><path style="opacity:1" fill="#c38973" d="M 136.5,196.5 C 136.5,197.167 136.833,197.5 137.5,197.5C 137.796,199.403 138.463,201.07 139.5,202.5C 139.259,204.898 139.926,206.898 141.5,208.5C 141.878,210.921 142.545,213.254 143.5,215.5C 141.66,217.669 139.326,219.002 136.5,219.5C 135.178,219.67 134.011,219.337 133,218.5C 132.536,219.094 132.369,219.761 132.5,220.5C 131.041,220.567 129.708,220.234 128.5,219.5C 128.573,217.973 127.906,216.973 126.5,216.5C 125.331,213.489 123.664,210.822 121.5,208.5C 120.481,206.46 120.481,204.46 121.5,202.5C 126.194,199.65 131.194,197.65 136.5,196.5 Z"/></g>
<g><path style="opacity:1" fill="#114e0f" d="M 112.5,200.5 C 113.837,201.315 114.837,202.482 115.5,204C 117.085,204.085 118.418,204.251 119.5,204.5C 116.142,206.786 112.476,207.953 108.5,208C 109.026,205.037 110.359,202.537 112.5,200.5 Z"/></g>
<g><path style="opacity:1" fill="#114d10" d="M 178.5,209.5 C 175.834,209.933 173.168,210.433 170.5,211C 169.075,212.714 169.408,214.047 171.5,215C 175.152,215.499 178.818,215.665 182.5,215.5C 183.5,215.833 184.167,216.5 184.5,217.5C 183.306,218.777 181.64,219.444 179.5,219.5C 173.514,218.59 167.514,218.424 161.5,219C 159.408,219.953 159.075,221.286 160.5,223C 167.249,223.916 173.916,225.25 180.5,227C 176.164,226.946 171.83,226.446 167.5,225.5C 165.793,225.728 164.126,226.062 162.5,226.5C 161.399,225.2 160.066,224.7 158.5,225C 159.789,226.802 161.456,227.969 163.5,228.5C 164.167,229.5 164.833,230.5 165.5,231.5C 162.679,231.539 160.012,232.205 157.5,233.5C 161.023,236.183 165.023,238.017 169.5,239C 168.473,239.513 167.473,240.013 166.5,240.5C 163.411,239.261 160.411,237.761 157.5,236C 154.406,232.283 151.073,228.783 147.5,225.5C 151.451,220.104 155.784,215.104 160.5,210.5C 165.831,210.232 170.665,208.566 175,205.5C 176.376,206.705 177.542,208.038 178.5,209.5 Z"/></g>
<g><path style="opacity:1" fill="#72532b" d="M 121.5,208.5 C 123.664,210.822 125.331,213.489 126.5,216.5C 118.173,224.001 108.84,230.001 98.5,234.5C 94.9126,229.154 92.2459,223.321 90.5,217C 100.25,214.139 109.917,210.972 119.5,207.5C 120.183,207.863 120.85,208.196 121.5,208.5 Z"/></g>
<g><path style="opacity:1" fill="#12390f" d="M 153.5,207.5 C 153.5,207.833 153.5,208.167 153.5,208.5C 153.34,210.153 152.674,211.486 151.5,212.5C 150.5,212.5 149.5,212.5 148.5,212.5C 147.895,207.875 149.561,206.208 153.5,207.5 Z"/></g>
<g><path style="opacity:1" fill="#fec90d" d="M 144.5,215.5 C 146.508,213.917 148.841,212.917 151.5,212.5C 152.674,211.486 153.34,210.153 153.5,208.5C 154.93,208.579 156.264,208.246 157.5,207.5C 157.951,212.579 155.451,215.579 150,216.5C 148.234,215.767 146.401,215.433 144.5,215.5 Z"/></g>
<g><path style="opacity:1" fill="#040404" d="M 141.5,208.5 C 142.222,208.918 142.722,209.584 143,210.5C 143.333,210.167 143.667,209.833 144,209.5C 144.483,210.448 144.649,211.448 144.5,212.5C 145.833,212.5 147.167,212.5 148.5,212.5C 149.5,212.5 150.5,212.5 151.5,212.5C 148.841,212.917 146.508,213.917 144.5,215.5C 144.167,215.5 143.833,215.5 143.5,215.5C 142.545,213.254 141.878,210.921 141.5,208.5 Z"/></g>
<g><path style="opacity:1" fill="#1d831a" d="M 178.5,209.5 C 180.326,211.147 181.66,213.147 182.5,215.5C 178.818,215.665 175.152,215.499 171.5,215C 169.408,214.047 169.075,212.714 170.5,211C 173.168,210.433 175.834,209.933 178.5,209.5 Z"/></g>
<g><path style="opacity:1" fill="#1d831a" d="M 143.5,215.5 C 143.833,215.5 144.167,215.5 144.5,215.5C 145.574,217.284 147.24,218.451 149.5,219C 147.441,221.634 145.275,224.134 143,226.5C 139.997,233.84 136.497,240.84 132.5,247.5C 127.851,249.161 123.184,250.828 118.5,252.5C 120.813,265.88 115.813,275.213 103.5,280.5C 106.379,273.072 109.546,265.738 113,258.5C 115.037,250.671 117.203,243.005 119.5,235.5C 127.423,232.406 134.423,227.906 140.5,222C 134.032,224.722 127.365,227.222 120.5,229.5C 120.263,228.209 120.596,227.209 121.5,226.5C 125.393,224.724 129.06,222.724 132.5,220.5C 134.099,220.768 135.432,220.434 136.5,219.5C 139.326,219.002 141.66,217.669 143.5,215.5 Z"/></g>
<g><path style="opacity:1" fill="#1d821a" d="M 184.5,217.5 C 186.193,218.475 187.693,219.808 189,221.5C 193.499,229.836 198.499,237.836 204,245.5C 205.336,248.009 206.17,250.676 206.5,253.5C 200.678,266.479 194.845,279.479 189,292.5C 186.454,298.2 185.621,304.033 186.5,310C 183.34,311.244 180.007,312.078 176.5,312.5C 174.578,312.199 172.912,311.533 171.5,310.5C 178.157,309.346 182.49,305.512 184.5,299C 184.333,298.167 184.167,297.333 184,296.5C 180.021,299.238 175.855,301.571 171.5,303.5C 177.215,287.069 183.215,270.735 189.5,254.5C 189.333,253.5 189.167,252.5 189,251.5C 183.167,245.667 177.333,239.833 171.5,234C 170.833,233.333 170.167,233.333 169.5,234C 176.211,240.376 182.545,247.043 188.5,254C 183.959,266.243 179.292,278.41 174.5,290.5C 169.665,292.753 165.331,295.753 161.5,299.5C 161.833,299.833 162.167,300.167 162.5,300.5C 165.234,298.629 168.234,297.629 171.5,297.5C 170.107,301.51 168.607,305.51 167,309.5C 164.602,308.144 162.102,306.977 159.5,306C 158.919,305.107 158.585,304.107 158.5,303C 162.619,294.915 165.786,286.415 168,277.5C 172.97,269.567 176.804,261.234 179.5,252.5C 179.392,251.558 179.059,250.725 178.5,250C 173.982,247.296 169.982,244.129 166.5,240.5C 167.473,240.013 168.473,239.513 169.5,239C 165.023,238.017 161.023,236.183 157.5,233.5C 160.012,232.205 162.679,231.539 165.5,231.5C 166.423,232.303 167.423,232.47 168.5,232C 167.211,230.198 165.544,229.031 163.5,228.5C 163.167,227.833 162.833,227.167 162.5,226.5C 164.126,226.062 165.793,225.728 167.5,225.5C 171.83,226.446 176.164,226.946 180.5,227C 173.916,225.25 167.249,223.916 160.5,223C 159.075,221.286 159.408,219.953 161.5,219C 167.514,218.424 173.514,218.59 179.5,219.5C 181.64,219.444 183.306,218.777 184.5,217.5 Z"/></g>
<g><path style="opacity:1" fill="#000000" d="M 136.5,219.5 C 135.432,220.434 134.099,220.768 132.5,220.5C 132.369,219.761 132.536,219.094 133,218.5C 134.011,219.337 135.178,219.67 136.5,219.5 Z"/></g>
<g><path style="opacity:1" fill="#fec90d" d="M 85.5,219.5 C 86.2891,219.783 86.9558,220.283 87.5,221C 86.0937,223.449 84.0937,224.449 81.5,224C 83.0414,222.629 84.3747,221.129 85.5,219.5 Z"/></g>
<g><path style="opacity:1" fill="#124710" d="M 128.5,219.5 C 129.708,220.234 131.041,220.567 132.5,220.5C 129.06,222.724 125.393,224.724 121.5,226.5C 122.13,222.537 124.463,220.204 128.5,219.5 Z"/></g>
<g><path style="opacity:1" fill="#114e0f" d="M 119.5,235.5 C 119.325,233.379 119.659,231.379 120.5,229.5C 127.365,227.222 134.032,224.722 140.5,222C 134.423,227.906 127.423,232.406 119.5,235.5 Z"/></g>
<g><path style="opacity:1" fill="#222840" d="M 89.5,222.5 C 90.2485,223.531 90.9152,224.698 91.5,226C 82.8888,233.277 73.7221,239.777 64,245.5C 62.8333,244.333 61.6667,243.167 60.5,242C 70.8896,236.42 80.5563,229.92 89.5,222.5 Z"/></g>
<g><path style="opacity:1" fill="#000000" d="M 162.5,226.5 C 162.833,227.167 163.167,227.833 163.5,228.5C 161.456,227.969 159.789,226.802 158.5,225C 160.066,224.7 161.399,225.2 162.5,226.5 Z"/></g>
<g><path style="opacity:1" fill="#fef200" d="M 117.5,225.5 C 118.124,225.917 118.457,226.584 118.5,227.5C 115.006,248.82 107.84,268.82 97,287.5C 92.6001,300.033 88.6001,312.7 85,325.5C 84.0754,324.953 83.2421,324.287 82.5,323.5C 88.2068,301.211 96.3734,279.878 107,259.5C 110.208,247.982 113.708,236.648 117.5,225.5 Z"/></g>
<g><path style="opacity:1" fill="#000000" d="M 163.5,228.5 C 165.544,229.031 167.211,230.198 168.5,232C 167.423,232.47 166.423,232.303 165.5,231.5C 164.833,230.5 164.167,229.5 163.5,228.5 Z"/></g>
<g><path style="opacity:1" fill="#1d831a" d="M 110.5,230.5 C 111.497,230.47 112.164,230.97 112.5,232C 108.332,251.17 101.498,269.337 92,286.5C 87.9817,298.555 83.9817,310.555 80,322.5C 76.992,319.073 77.3254,315.74 81,312.5C 82.7943,305.616 84.1276,298.616 85,291.5C 87.8119,285.21 91.1452,279.21 95,273.5C 95.4484,268.358 97.1151,263.692 100,259.5C 100.434,256.821 100.268,254.154 99.5,251.5C 101.617,246.369 103.117,241.035 104,235.5C 106.326,233.934 108.492,232.268 110.5,230.5 Z"/></g>
<g><path style="opacity:1" fill="#114e0f" d="M 136.5,231.5 C 138.842,231.775 138.842,232.608 136.5,234C 131.667,236.833 126.833,239.667 122,242.5C 121.542,239.904 122.375,237.737 124.5,236C 128.571,234.37 132.571,232.87 136.5,231.5 Z"/></g>
<g><path style="opacity:1" fill="#fec90d" d="M 57.5,241.5 C 58.9314,243.437 60.5981,245.27 62.5,247C 58.8017,248.266 55.135,249.266 51.5,250C 50.4464,248.612 50.2797,247.112 51,245.5C 53.3143,244.267 55.4809,242.933 57.5,241.5 Z"/></g>
<g><path style="opacity:1" fill="#2ec928" d="M 132.5,247.5 C 129.287,258.141 125.287,268.474 120.5,278.5C 114.209,280.042 108.209,282.376 102.5,285.5C 101.893,285.376 101.56,285.043 101.5,284.5C 101.66,282.847 102.326,281.514 103.5,280.5C 115.813,275.213 120.813,265.88 118.5,252.5C 123.184,250.828 127.851,249.161 132.5,247.5 Z"/></g>
<g><path style="opacity:1" fill="#1d831a" d="M 120.5,278.5 C 114.416,288.909 109.582,299.909 106,311.5C 104.358,316.708 103.358,322.041 103,327.5C 101.915,328.293 100.748,328.96 99.5,329.5C 96.148,328.774 92.8147,327.941 89.5,327C 88.4844,326.481 87.8178,325.647 87.5,324.5C 91.2099,310.698 95.8766,297.364 101.5,284.5C 101.56,285.043 101.893,285.376 102.5,285.5C 108.209,282.376 114.209,280.042 120.5,278.5 Z"/></g>
<g><path style="opacity:1" fill="#114e0f" d="M 174.5,290.5 C 173.305,292.751 172.305,295.085 171.5,297.5C 168.234,297.629 165.234,298.629 162.5,300.5C 162.167,300.167 161.833,299.833 161.5,299.5C 165.331,295.753 169.665,292.753 174.5,290.5 Z"/></g>
<g><path style="opacity:1" fill="#114e0f" d="M 171.5,310.5 C 170.448,310.649 169.448,310.483 168.5,310C 169.422,307.706 170.422,305.539 171.5,303.5C 175.855,301.571 180.021,299.238 184,296.5C 184.167,297.333 184.333,298.167 184.5,299C 182.49,305.512 178.157,309.346 171.5,310.5 Z"/></g>
<g><path style="opacity:1" fill="#222840" d="M 157.5,307.5 C 162.474,309.652 167.474,311.819 172.5,314C 169.307,316.917 166.474,320.084 164,323.5C 160.09,321.918 156.424,319.918 153,317.5C 152.333,316.167 152.333,314.833 153,313.5C 154.332,311.34 155.832,309.34 157.5,307.5 Z"/></g>
<g><path style="opacity:1" fill="#222840" d="M 174.5,314.5 C 176.017,314.511 177.184,315.177 178,316.5C 179.579,319.994 181.413,323.327 183.5,326.5C 177.694,327.853 172.027,327.353 166.5,325C 168.616,321.055 171.282,317.555 174.5,314.5 Z"/></g>
<g><path style="opacity:1" fill="#131624" d="M 151.5,319.5 C 161.581,326.915 172.915,330.415 185.5,330C 188.535,333.37 191.868,336.37 195.5,339C 194.833,340 194.167,341 193.5,342C 181.325,342.249 171.325,337.582 163.5,328C 158.043,328.41 153.376,326.744 149.5,323C 150.305,321.887 150.972,320.721 151.5,319.5 Z"/></g>
<g><path style="opacity:1" fill="#1f2439" d="M 79.5,326.5 C 79.8212,328.048 80.8212,328.715 82.5,328.5C 85.2227,327.773 87.8894,328.273 90.5,330C 87.9627,332.906 85.796,336.073 84,339.5C 83.0975,338.299 81.9308,337.465 80.5,337C 81.056,336.617 81.3893,336.117 81.5,335.5C 81.1788,333.952 80.1788,333.285 78.5,333.5C 76.1248,330.683 76.2915,327.683 79,324.5C 79.4643,325.094 79.631,325.761 79.5,326.5 Z"/></g>
<g><path style="opacity:1" fill="#fec90d" d="M 79.5,326.5 C 81.1788,326.285 82.1788,326.952 82.5,328.5C 80.8212,328.715 79.8212,328.048 79.5,326.5 Z"/></g>
<g><path style="opacity:1" fill="#222840" d="M 92.5,330.5 C 94.5914,330.318 96.5914,330.652 98.5,331.5C 100.64,334.807 102.974,337.974 105.5,341C 99.136,345.401 92.8027,345.234 86.5,340.5C 88.1295,336.887 90.1295,333.554 92.5,330.5 Z"/></g>
<g><path style="opacity:1" fill="#fec90d" d="M 78.5,333.5 C 80.1788,333.285 81.1788,333.952 81.5,335.5C 79.8212,335.715 78.8212,335.048 78.5,333.5 Z"/></g>
<g><path style="opacity:1" fill="#131624" d="M 86.5,344.5 C 86.56,343.957 86.8933,343.624 87.5,343.5C 93.8333,347.5 100.167,347.5 106.5,343.5C 110.12,345.453 113.12,348.119 115.5,351.5C 113.535,352.292 111.535,352.959 109.5,353.5C 103.008,352.641 96.6749,351.141 90.5,349C 89.6719,347.008 88.3386,345.508 86.5,344.5 Z"/></g>
</svg>
