<?xml version="1.0" encoding="UTF-8"?>
<!DOCTYPE svg PUBLIC "-//W3C//DTD SVG 1.1//EN" "http://www.w3.org/Graphics/SVG/1.1/DTD/svg11.dtd">
<svg xmlns="http://www.w3.org/2000/svg" version="1.1" width="614px" height="600px" style="shape-rendering:geometricPrecision; text-rendering:geometricPrecision; image-rendering:optimizeQuality; fill-rule:evenodd; clip-rule:evenodd" xmlns:xlink="http://www.w3.org/1999/xlink">
<g><path style="opacity:1" fill="#fefffe" d="M 258.5,63.5 C 265.175,63.3337 271.842,63.5004 278.5,64C 286.105,65.9384 290.605,70.7718 292,78.5C 292.179,81.5535 292.679,84.5535 293.5,87.5C 295.527,88.6933 297.027,90.36 298,92.5C 299.037,101.567 302.037,109.901 307,117.5C 308.811,121.988 309.811,126.654 310,131.5C 314.56,132.673 318.893,134.339 323,136.5C 323.667,141.167 323.667,145.833 323,150.5C 322,151.5 321,152.5 320,153.5C 319.822,165.076 319.322,176.576 318.5,188C 323.577,190.095 328.91,191.095 334.5,191C 355.421,201.873 361.087,218.206 351.5,240C 351.901,250.838 353.901,261.338 357.5,271.5C 381.366,255.803 405.366,240.303 429.5,225C 431.429,221.758 434.095,219.258 437.5,217.5C 438.029,214.743 439.029,212.243 440.5,210C 467.994,191.086 495.661,172.419 523.5,154C 529.157,153.501 534.824,153.334 540.5,153.5C 540.666,159.176 540.499,164.843 540,170.5C 536.667,175.167 533.333,179.833 530,184.5C 510.715,198.784 491.715,213.451 473,228.5C 472.667,230.5 472.333,232.5 472,234.5C 469.104,237.454 467.771,241.121 468,245.5C 453.666,252.013 440.333,260.346 428,270.5C 426.601,273.363 425.601,276.363 425,279.5C 409.732,289.221 393.898,298.054 377.5,306C 371.757,310.621 365.924,315.121 360,319.5C 359.667,322.167 359.333,324.833 359,327.5C 357.89,329.037 356.39,329.703 354.5,329.5C 354.325,334.452 351.658,336.952 346.5,337C 347.717,338.648 348.55,340.481 349,342.5C 349.667,350.5 349.667,358.5 349,366.5C 344.813,382.453 341.646,398.62 339.5,415C 341.308,423.087 341.808,431.254 341,439.5C 340.626,441.867 339.459,443.7 337.5,445C 341.485,453.448 343.818,462.281 344.5,471.5C 345.863,478.021 343.863,483.187 338.5,487C 331.167,487.667 323.833,487.667 316.5,487C 314.051,486.275 311.717,485.275 309.5,484C 307.065,478.296 304.231,472.796 301,467.5C 298.333,465.5 295.667,463.5 293,461.5C 291.771,452.919 292.605,444.586 295.5,436.5C 293.004,426.572 292.838,416.572 295,406.5C 295.667,395.5 295.667,384.5 295,373.5C 294.439,372.978 293.772,372.645 293,372.5C 291.14,374.201 288.973,375.201 286.5,375.5C 286.5,376.5 286.5,377.5 286.5,378.5C 280.026,381.91 274.026,386.077 268.5,391C 266.196,395.774 264.029,400.608 262,405.5C 261.645,411.608 260.645,417.608 259,423.5C 256.48,429.865 253.98,436.198 251.5,442.5C 241.519,443.499 231.519,443.666 221.5,443C 219.391,441.859 217.558,440.359 216,438.5C 212.225,430.728 209.059,422.728 206.5,414.5C 204.618,413.907 202.785,413.24 201,412.5C 200.333,406.833 200.333,401.167 201,395.5C 205.193,394.283 209.026,392.283 212.5,389.5C 214.809,377.847 214.976,366.18 213,354.5C 206.293,347.462 199.96,340.128 194,332.5C 191.796,330.983 189.462,329.65 187,328.5C 183.344,316.361 182.678,304.028 185,291.5C 189.968,275.293 194.468,258.959 198.5,242.5C 198.693,240.312 197.859,238.645 196,237.5C 195.833,234.833 195.667,232.167 195.5,229.5C 197.895,217.701 199.395,205.701 200,193.5C 201.044,192.377 201.71,191.044 202,189.5C 202.333,178.833 202.667,168.167 203,157.5C 203.5,155.667 204.667,154.5 206.5,154C 212.231,153.567 217.898,152.734 223.5,151.5C 225.071,149.118 225.904,146.451 226,143.5C 229.039,140.897 232.539,139.231 236.5,138.5C 235.374,132.218 235.207,125.885 236,119.5C 239,117.167 242,114.833 245,112.5C 244.666,105.252 247.499,99.7521 253.5,96C 252.874,95.2496 252.374,94.4162 252,93.5C 251.333,85.8333 251.333,78.1667 252,70.5C 253.694,67.6424 255.861,65.309 258.5,63.5 Z"/></g>
<g><path style="opacity:1" fill="#000000" d="M 262.5,67.5 C 280.26,65.5919 289.26,73.5919 289.5,91.5C 291.527,92.6933 293.027,94.36 294,96.5C 295.037,105.567 298.037,113.901 303,121.5C 304.811,125.988 305.811,130.654 306,135.5C 310.56,136.673 314.893,138.339 319,140.5C 319.667,142.5 319.667,144.5 319,146.5C 317.104,148.53 314.937,150.197 312.5,151.5C 313.609,153.385 314.443,155.385 315,157.5C 315.997,168.426 315.497,179.26 313.5,190C 314.52,192.026 316.187,193.359 318.5,194C 324.659,193.639 330.326,194.972 335.5,198C 341.333,201.167 345.833,205.667 349,211.5C 350.722,214.611 351.555,217.944 351.5,221.5C 350.423,227.657 348.756,233.657 346.5,239.5C 347.804,253.021 350.138,266.355 353.5,279.5C 357.381,278.226 361.048,276.393 364.5,274C 387.329,258.751 410.329,243.751 433.5,229C 435.429,225.758 438.095,223.258 441.5,221.5C 442.029,218.743 443.029,216.243 444.5,214C 471.994,195.086 499.661,176.419 527.5,158C 530.482,157.502 533.482,157.335 536.5,157.5C 536.665,160.518 536.498,163.518 536,166.5C 532.167,171.667 528.333,176.833 524.5,182C 505.715,195.783 487.215,209.95 469,224.5C 468.667,226.5 468.333,228.5 468,230.5C 465.104,233.454 463.771,237.121 464,241.5C 449.666,248.013 436.333,256.346 424,266.5C 422.601,269.363 421.601,272.363 421,275.5C 405.732,285.221 389.898,294.054 373.5,302C 367.757,306.621 361.924,311.121 356,315.5C 355.667,318.167 355.333,320.833 355,323.5C 353.89,325.037 352.39,325.703 350.5,325.5C 349.801,331.208 346.468,333.541 340.5,332.5C 340.714,334.144 340.38,335.644 339.5,337C 344.18,341.872 346.18,347.706 345.5,354.5C 342.02,372.07 338.853,389.737 336,407.5C 335.583,416.891 335.916,426.224 337,435.5C 336.667,436.5 336.333,437.5 336,438.5C 333.947,439.267 332.447,440.6 331.5,442.5C 335.111,451.999 338.111,461.666 340.5,471.5C 340.758,476.484 338.758,480.317 334.5,483C 327.129,484.31 320.129,483.31 313.5,480C 311.065,474.296 308.231,468.796 305,463.5C 302.333,461.5 299.667,459.5 297,457.5C 296.333,454.167 296.333,450.833 297,447.5C 298.556,443.442 299.723,439.275 300.5,435C 298.178,430.85 297.178,426.35 297.5,421.5C 299.832,404.201 300.332,386.868 299,369.5C 297.397,367.344 295.23,366.01 292.5,365.5C 290.406,367.596 288.073,369.429 285.5,371C 284.552,371.483 283.552,371.649 282.5,371.5C 282.5,372.5 282.5,373.5 282.5,374.5C 276.026,377.91 270.026,382.077 264.5,387C 262.196,391.774 260.029,396.608 258,401.5C 257.645,407.608 256.645,413.608 255,419.5C 252.48,425.865 249.98,432.198 247.5,438.5C 240.185,439.415 232.852,439.582 225.5,439C 220.78,436.08 217.613,431.913 216,426.5C 214.702,421.606 213.202,416.773 211.5,412C 209.733,410.174 207.566,409.007 205,408.5C 204.333,405.5 204.333,402.5 205,399.5C 209.193,398.283 213.026,396.283 216.5,393.5C 218.198,381.542 219.031,369.542 219,357.5C 218.178,355.212 217.511,352.878 217,350.5C 210.293,343.462 203.96,336.128 198,328.5C 195.796,326.983 193.462,325.65 191,324.5C 187.013,313.624 186.68,302.624 190,291.5C 194.348,276.437 198.848,261.437 203.5,246.5C 202.738,242.889 202.238,239.222 202,235.5C 200.054,234.006 199.221,232.006 199.5,229.5C 200.252,225.325 201.585,221.325 203.5,217.5C 201.83,213.386 202.163,209.553 204.5,206C 203.39,203.263 203.223,200.429 204,197.5C 205.862,194.606 207.028,191.44 207.5,188C 206.436,179.186 206.269,170.353 207,161.5C 207.5,159.667 208.667,158.5 210.5,158C 216.231,157.567 221.898,156.734 227.5,155.5C 228.78,152.289 230.114,149.122 231.5,146C 235.359,144.579 239.025,142.912 242.5,141C 239.86,135.447 239.027,129.614 240,123.5C 243,121.167 246,118.833 249,116.5C 249.259,111.785 250.593,107.452 253,103.5C 256.078,101.045 259.244,98.7113 262.5,96.5C 256.837,93.3389 254.503,88.5055 255.5,82C 254.518,75.4652 256.852,70.6318 262.5,67.5 Z"/></g>
<g><path style="opacity:1" fill="#12a40a" d="M 266.5,73.5 C 269.748,72.459 272.748,73.1257 275.5,75.5C 274.167,75.5 272.833,75.5 271.5,75.5C 271.649,76.552 271.483,77.552 271,78.5C 269.933,76.3083 268.433,74.6417 266.5,73.5 Z"/></g>
<g><path style="opacity:1" fill="#12a40a" d="M 266.5,73.5 C 266.367,76.5879 267.7,78.5879 270.5,79.5C 272.443,78.3108 274.443,77.3108 276.5,76.5C 277.492,76.3284 278.158,76.6618 278.5,77.5C 277.624,77.3691 276.957,77.7025 276.5,78.5C 277.689,79.4287 279.022,79.762 280.5,79.5C 280.5,79.8333 280.5,80.1667 280.5,80.5C 282.956,84.7378 283.956,89.4045 283.5,94.5C 279.709,95.031 276.043,96.031 272.5,97.5C 270.721,96.6064 269.388,95.273 268.5,93.5C 271.976,94.3376 272.476,93.0043 270,89.5C 268.293,90.1383 266.46,90.1383 264.5,89.5C 260.296,85.9387 259.463,81.6054 262,76.5C 263.129,74.8588 264.629,73.8588 266.5,73.5 Z"/></g>
<g><path style="opacity:1" fill="#0a5804" d="M 266.5,73.5 C 268.433,74.6417 269.933,76.3083 271,78.5C 271.483,77.552 271.649,76.552 271.5,75.5C 272.833,75.5 274.167,75.5 275.5,75.5C 276.167,75.5 276.5,75.8333 276.5,76.5C 274.443,77.3108 272.443,78.3108 270.5,79.5C 267.7,78.5879 266.367,76.5879 266.5,73.5 Z"/></g>
<g><path style="opacity:1" fill="#0a5804" d="M 264.5,75.5 C 266.013,78.1569 265.513,80.4902 263,82.5C 262.391,79.9348 262.891,77.6015 264.5,75.5 Z"/></g>
<g><path style="opacity:1" fill="#0a5804" d="M 278.5,77.5 C 279.5,77.8333 280.167,78.5 280.5,79.5C 279.022,79.762 277.689,79.4287 276.5,78.5C 276.957,77.7025 277.624,77.3691 278.5,77.5 Z"/></g>
<g><path style="opacity:1" fill="#0a5804" d="M 268.5,80.5 C 269.404,81.209 269.737,82.209 269.5,83.5C 265.995,83.3059 265.662,82.3059 268.5,80.5 Z"/></g>
<g><path style="opacity:1" fill="#0a5804" d="M 280.5,80.5 C 278.59,83.6167 276.256,83.95 273.5,81.5C 275.694,81.642 278.027,81.3086 280.5,80.5 Z"/></g>
<g><path style="opacity:1" fill="#0a5804" d="M 268.5,86.5 C 271.355,85.1968 274.355,85.1968 277.5,86.5C 276.086,87.4655 275.253,88.4655 275,89.5C 272.965,88.2108 270.799,87.2108 268.5,86.5 Z"/></g>
<g><path style="opacity:1" fill="#0a5804" d="M 264.5,89.5 C 266.46,90.1383 268.293,90.1383 270,89.5C 272.476,93.0043 271.976,94.3376 268.5,93.5C 266.833,92.5 265.5,91.1667 264.5,89.5 Z"/></g>
<g><path style="opacity:1" fill="#0a5804" d="M 276.5,90.5 C 278.355,90.272 279.188,90.9387 279,92.5C 276.192,93.8596 275.359,93.1929 276.5,90.5 Z"/></g>
<g><path style="opacity:1" fill="#202020" d="M 294.5,139.5 C 295.403,141.62 296.737,141.954 298.5,140.5C 303.541,140.165 308.541,140.998 313.5,143C 314.833,143.667 314.833,144.333 313.5,145C 303.088,148.804 292.755,152.804 282.5,157C 275.376,158.74 268.21,160.24 261,161.5C 259.5,161.333 258,161.167 256.5,161C 257.416,160.722 258.082,160.222 258.5,159.5C 258.611,158.883 258.944,158.383 259.5,158C 257.798,155.765 256.798,153.265 256.5,150.5C 256.813,146.958 256.479,143.625 255.5,140.5C 254.549,139.081 254.216,137.415 254.5,135.5C 254.232,133.901 254.566,132.568 255.5,131.5C 257.514,131.608 259.18,130.942 260.5,129.5C 260.167,128.833 259.833,128.167 259.5,127.5C 257.934,124.259 255.267,122.759 251.5,123C 252.333,122.167 253.167,121.333 254,120.5C 254.203,115.504 255.703,111.004 258.5,107C 262.5,104.333 266.5,101.667 270.5,99C 274.701,97.9842 278.868,96.8176 283,95.5C 286.086,96.2527 288.252,98.086 289.5,101C 283.285,101.216 277.285,102.216 271.5,104C 277.394,103.186 283.394,102.686 289.5,102.5C 289.338,104.527 289.505,106.527 290,108.5C 295.632,117.367 297.632,127.034 296,137.5C 295.283,138.044 294.783,138.711 294.5,139.5 Z"/></g>
<g><path style="opacity:1" fill="#fec90d" d="M 277.5,113.5 C 280.428,114.198 283.428,114.364 286.5,114C 285.643,114.689 284.977,115.522 284.5,116.5C 291.256,118.433 294.256,122.933 293.5,130C 293.705,137.57 290.372,139.57 283.5,136C 281.093,133.715 278.593,131.549 276,129.5C 273.575,126.118 274.075,123.285 277.5,121C 275.754,120.529 274.087,119.862 272.5,119C 275.079,117.924 276.746,116.091 277.5,113.5 Z"/></g>
<g><path style="opacity:1" fill="#f3f3f3" d="M 254.5,135.5 C 254.216,137.415 254.549,139.081 255.5,140.5C 255.5,143.5 255.5,146.5 255.5,149.5C 253.833,149.5 252.167,149.5 250.5,149.5C 250.224,145.261 250.057,140.928 250,136.5C 249.814,138.9 249.314,141.234 248.5,143.5C 248.167,142.333 247.833,141.167 247.5,140C 248.781,135.254 249.615,130.421 250,125.5C 252,124.167 254,124.167 256,125.5C 255.765,128.117 254.932,130.617 253.5,133C 253.528,134.07 253.861,134.903 254.5,135.5 Z"/></g>
<g><path style="opacity:1" fill="#d8d8d8" d="M 299.5,135.5 C 298.662,135.158 298.328,134.492 298.5,133.5C 297.445,130.927 297.278,128.261 298,125.5C 298.934,128.136 299.768,130.803 300.5,133.5C 300.457,134.416 300.124,135.083 299.5,135.5 Z"/></g>
<g><path style="opacity:1" fill="#fefffe" d="M 259.5,127.5 C 259.833,128.167 260.167,128.833 260.5,129.5C 259.18,130.942 257.514,131.608 255.5,131.5C 256.402,129.659 257.736,128.326 259.5,127.5 Z"/></g>
<g><path style="opacity:1" fill="#fefffe" d="M 260.5,129.5 C 263.215,130.048 265.215,131.548 266.5,134C 266.266,135.732 265.266,136.566 263.5,136.5C 261.962,136.547 260.962,135.88 260.5,134.5C 259.527,134.013 258.527,133.513 257.5,133C 259.426,132.578 260.426,131.411 260.5,129.5 Z"/></g>
<g><path style="opacity:1" fill="#000000" d="M 260.5,134.5 C 260.783,133.711 261.283,133.044 262,132.5C 262.528,133.816 262.028,134.483 260.5,134.5 Z"/></g>
<g><path style="opacity:1" fill="#fefffe" d="M 270.5,135.5 C 269.154,138.174 267.154,139.174 264.5,138.5C 266.535,137.403 267.868,135.737 268.5,133.5C 269.522,133.855 270.189,134.522 270.5,135.5 Z"/></g>
<g><path style="opacity:1" fill="#fefffe" d="M 298.5,133.5 C 298.328,134.492 298.662,135.158 299.5,135.5C 300.734,137.398 300.401,139.065 298.5,140.5C 296.737,141.954 295.403,141.62 294.5,139.5C 295.496,139.586 296.329,139.252 297,138.5C 297.198,136.618 297.698,134.952 298.5,133.5 Z"/></g>
<g><path style="opacity:1" fill="#fefffe" d="M 270.5,135.5 C 271.71,135.932 272.71,136.599 273.5,137.5C 272.609,138.261 271.942,139.261 271.5,140.5C 270.045,141.745 268.711,141.578 267.5,140C 269.863,139.411 270.863,137.911 270.5,135.5 Z"/></g>
<g><path style="opacity:1" fill="#fefffe" d="M 273.5,137.5 C 277.014,138.702 276.847,140.368 273,142.5C 273.019,140.893 273.185,139.226 273.5,137.5 Z"/></g>
<g><path style="opacity:1" fill="#fefffe" d="M 281.5,140.5 C 280.078,140.75 279.078,141.583 278.5,143C 277.167,143.667 275.833,143.667 274.5,143C 276.176,141.823 277.509,140.323 278.5,138.5C 279.739,138.942 280.739,139.609 281.5,140.5 Z"/></g>
<g><path style="opacity:1" fill="#fefffe" d="M 281.5,140.5 C 284.457,139.483 285.457,140.483 284.5,143.5C 279.615,145.386 278.615,144.386 281.5,140.5 Z"/></g>
<g><path style="opacity:1" fill="#fefffe" d="M 286.5,140.5 C 289.647,141.755 289.98,143.421 287.5,145.5C 286.692,145.192 286.025,144.692 285.5,144C 286.337,142.989 286.67,141.822 286.5,140.5 Z"/></g>
<g><path style="opacity:1" fill="#fefffe" d="M 289.5,141.5 C 291.185,140.156 292.852,140.323 294.5,142C 292.604,144.01 290.937,143.843 289.5,141.5 Z"/></g>
<g><path style="opacity:1" fill="#fefffe" d="M 247.5,144.5 C 248.578,146.539 249.578,148.706 250.5,151C 247.841,152.622 245.841,151.789 244.5,148.5C 245.524,147.148 246.524,145.815 247.5,144.5 Z"/></g>
<g><path style="opacity:1" fill="#dcdddc" d="M 239.5,148.5 C 242.935,148.809 245.268,150.642 246.5,154C 245.66,155.171 244.827,156.338 244,157.5C 243.424,154.876 242.09,154.209 240,155.5C 237.91,159.121 238.077,162.621 240.5,166C 235.921,167.577 232.921,166.077 231.5,161.5C 233.821,158.606 234.988,155.273 235,151.5C 236.652,150.601 238.152,149.601 239.5,148.5 Z"/></g>
<g><path style="opacity:1" fill="#fefffe" d="M 256.5,150.5 C 256.798,153.265 257.798,155.765 259.5,158C 258.944,158.383 258.611,158.883 258.5,159.5C 257.503,159.53 256.836,159.03 256.5,158C 255.922,156.189 255.422,154.355 255,152.5C 254.438,154.866 254.604,157.199 255.5,159.5C 255.167,160.167 254.833,160.833 254.5,161.5C 253.692,159.577 253.192,157.577 253,155.5C 252.802,157.382 252.302,159.048 251.5,160.5C 250.852,158.914 250.352,157.247 250,155.5C 249.79,157.058 249.29,158.391 248.5,159.5C 247.659,157.621 247.325,155.621 247.5,153.5C 250.318,152.03 253.318,151.03 256.5,150.5 Z"/></g>
<g><path style="opacity:1" fill="#f7763e" d="M 304.5,154.5 C 302.348,156.778 299.681,158.112 296.5,158.5C 295.766,157.292 295.433,155.959 295.5,154.5C 297.653,155.573 299.653,155.573 301.5,154.5C 303.377,153.429 304.044,152.095 303.5,150.5C 304.429,151.689 304.762,153.022 304.5,154.5 Z"/></g>
<g><path style="opacity:1" fill="#fefffe" d="M 301.5,154.5 C 299.653,155.573 297.653,155.573 295.5,154.5C 296.622,153.053 298.122,152.053 300,151.5C 300.232,152.737 300.732,153.737 301.5,154.5 Z"/></g>
<g><path style="opacity:1" fill="#4e4f4e" d="M 305.5,189.5 C 306.321,180.964 307.321,172.298 308.5,163.5C 307.319,159.507 306.486,155.507 306,151.5C 312.824,163.813 313.324,176.479 307.5,189.5C 306.743,190.773 306.077,190.773 305.5,189.5 Z"/></g>
<g><path style="opacity:1" fill="#f7763e" d="M 294.5,158.5 C 293.653,160.844 291.986,162.344 289.5,163C 284.337,163.817 279.337,163.317 274.5,161.5C 276.905,160.232 279.572,159.565 282.5,159.5C 284.495,161.711 286.828,162.044 289.5,160.5C 291.582,159.415 291.916,157.915 290.5,156C 291.766,155.691 292.933,155.191 294,154.5C 294.49,155.793 294.657,157.127 294.5,158.5 Z"/></g>
<g><path style="opacity:1" fill="#f9a884" d="M 304.5,154.5 C 305.779,157.395 306.779,160.395 307.5,163.5C 305.921,172.095 305.254,180.762 305.5,189.5C 304.662,189.842 304.328,190.508 304.5,191.5C 302.901,191.232 301.568,191.566 300.5,192.5C 299.508,192.328 298.842,192.662 298.5,193.5C 296.901,193.232 295.568,193.566 294.5,194.5C 289.821,194.666 285.155,194.499 280.5,194C 278.922,192.906 277.255,192.072 275.5,191.5C 277.12,193.984 279.453,195.484 282.5,196C 280.553,196.991 278.553,197.325 276.5,197C 270.959,191.291 265.292,185.791 259.5,180.5C 262.217,180.001 264.551,178.835 266.5,177C 264.742,177.344 262.909,177.844 261,178.5C 258.808,178.137 256.974,177.137 255.5,175.5C 255.672,174.508 255.338,173.842 254.5,173.5C 251.857,170.66 251.024,167.327 252,163.5C 255.071,162.041 257.904,162.374 260.5,164.5C 263.635,169.868 267.635,174.701 272.5,179C 275.706,179.89 278.706,179.557 281.5,178C 278.986,175.585 276.319,173.419 273.5,171.5C 273.187,167.958 273.521,164.625 274.5,161.5C 279.337,163.317 284.337,163.817 289.5,163C 291.986,162.344 293.653,160.844 294.5,158.5C 297.493,161.501 300.159,164.835 302.5,168.5C 299.868,171.106 296.868,171.939 293.5,171C 297.583,173.283 300.916,172.449 303.5,168.5C 301.955,164.62 299.621,161.287 296.5,158.5C 299.681,158.112 302.348,156.778 304.5,154.5 Z"/></g>
<g><path style="opacity:1" fill="#c9cac9" d="M 240.5,156.5 C 243.555,158.816 244.221,161.816 242.5,165.5C 240.73,162.807 240.063,159.807 240.5,156.5 Z"/></g>
<g><path style="opacity:1" fill="#fefffe" d="M 289.5,160.5 C 286.828,162.044 284.495,161.711 282.5,159.5C 285.596,156.988 287.929,157.321 289.5,160.5 Z"/></g>
<g><path style="opacity:1" fill="#4b4b4b" d="M 237.5,187.5 C 235.544,190.539 233.21,193.372 230.5,196C 225.626,197.224 221.959,195.724 219.5,191.5C 218.997,184.127 218.164,176.794 217,169.5C 216.027,167.36 214.527,165.693 212.5,164.5C 213.025,163.808 213.692,163.308 214.5,163C 218.514,162.61 222.514,162.11 226.5,161.5C 236.242,167.645 239.908,176.312 237.5,187.5 Z"/></g>
<g><path style="opacity:1" fill="#503222" d="M 273.5,171.5 C 276.319,173.419 278.986,175.585 281.5,178C 278.706,179.557 275.706,179.89 272.5,179C 267.635,174.701 263.635,169.868 260.5,164.5C 264.07,163.615 267.737,162.615 271.5,161.5C 272.167,164.977 272.834,168.311 273.5,171.5 Z"/></g>
<g><path style="opacity:1" fill="#000000" d="M 254.5,163.5 C 256.57,163.583 256.903,164.583 255.5,166.5C 256.421,168.967 257.255,171.301 258,173.5C 254.757,170.721 253.59,167.387 254.5,163.5 Z"/></g>
<g><path style="opacity:1" fill="#c2c3c2" d="M 527.5,164.5 C 528.239,164.369 528.906,164.536 529.5,165C 526.074,169.848 522.408,174.515 518.5,179C 495.428,195.081 473.261,212.248 452,230.5C 450.667,228.5 449.333,226.5 448,224.5C 447.257,222.559 447.424,220.726 448.5,219C 475.248,201.304 501.581,183.138 527.5,164.5 Z"/></g>
<g><path style="opacity:1" fill="#4e4f4e" d="M 211.5,167.5 C 212.496,167.414 213.329,167.748 214,168.5C 214.973,170.392 215.64,172.392 216,174.5C 217.044,184.153 217.377,193.82 217,203.5C 216.586,203.957 216.086,204.291 215.5,204.5C 212.698,199.645 212.031,194.478 213.5,189C 211.942,181.918 211.276,174.751 211.5,167.5 Z"/></g>
<g><path style="opacity:1" fill="#000000" d="M 291.5,167.5 C 292.043,167.56 292.376,167.893 292.5,168.5C 289.187,173.948 286.354,179.614 284,185.5C 285.215,179.036 287.715,173.036 291.5,167.5 Z"/></g>
<g><path style="opacity:1" fill="#dcdddc" d="M 236.5,169.5 C 238.56,168.189 240.726,168.189 243,169.5C 246.149,177.857 246.149,186.19 243,194.5C 241.95,197.24 240.117,198.74 237.5,199C 240.112,191.386 240.946,183.553 240,175.5C 239.576,172.975 238.41,170.975 236.5,169.5 Z"/></g>
<g><path style="opacity:1" fill="#000000" d="M 259.5,168.5 C 261.121,168.787 262.121,169.787 262.5,171.5C 261.675,172.386 260.675,172.719 259.5,172.5C 259.5,171.167 259.5,169.833 259.5,168.5 Z"/></g>
<g><path style="opacity:1" fill="#444444" d="M 251.5,160.5 C 250.508,163.779 250.341,167.112 251,170.5C 251.422,172.426 252.589,173.426 254.5,173.5C 255.338,173.842 255.672,174.508 255.5,175.5C 256.048,177.394 257.048,179.06 258.5,180.5C 255.857,183.266 254.857,186.599 255.5,190.5C 252.121,190.853 249.121,192.187 246.5,194.5C 246.167,194 245.833,193.5 245.5,193C 247.98,183.949 247.646,174.949 244.5,166C 245.093,162.849 245.593,159.682 246,156.5C 246.236,158.119 247.069,159.119 248.5,159.5C 249.29,158.391 249.79,157.058 250,155.5C 250.352,157.247 250.852,158.914 251.5,160.5 Z"/></g>
<g><path style="opacity:1" fill="#000000" d="M 517.5,175.5 C 518.774,176.189 518.774,177.023 517.5,178C 495.894,191.942 474.561,206.275 453.5,221C 452.241,221.982 450.908,222.315 449.5,222C 472.345,206.637 495.011,191.137 517.5,175.5 Z"/></g>
<g><path style="opacity:1" fill="#000000" d="M 300.5,178.5 C 302.103,178.312 303.437,178.812 304.5,180C 299.648,180.412 295.481,182.246 292,185.5C 291.837,183.613 292.671,182.113 294.5,181C 296.611,180.155 298.611,179.322 300.5,178.5 Z"/></g>
<g><path style="opacity:1" fill="#fefffe" d="M 261.5,202.5 C 264.174,204.319 267.007,205.986 270,207.5C 271.732,207.266 272.566,206.266 272.5,204.5C 269.286,197.422 264.619,191.422 258.5,186.5C 257.065,185.015 257.232,183.682 259,182.5C 264.301,186.8 269.301,191.466 274,196.5C 275.169,201.177 276.336,205.844 277.5,210.5C 271.966,211.153 266.799,209.819 262,206.5C 260.702,205.054 260.535,203.721 261.5,202.5 Z"/></g>
<g><path style="opacity:1" fill="#000000" d="M 275.5,191.5 C 271.896,190.412 270.063,188.079 270,184.5C 271.666,186.996 273.5,189.329 275.5,191.5 Z"/></g>
<g><path style="opacity:1" fill="#2f33a6" d="M 258.5,186.5 C 264.619,191.422 269.286,197.422 272.5,204.5C 272.566,206.266 271.732,207.266 270,207.5C 267.007,205.986 264.174,204.319 261.5,202.5C 257.693,201.023 255.36,198.19 254.5,194C 255.615,191.28 256.949,188.78 258.5,186.5 Z"/></g>
<g><path style="opacity:1" fill="#2c2d2c" d="M 237.5,187.5 C 237.406,191.136 236.739,194.636 235.5,198C 230.291,199.759 225.124,201.592 220,203.5C 219.501,199.514 219.334,195.514 219.5,191.5C 221.959,195.724 225.626,197.224 230.5,196C 233.21,193.372 235.544,190.539 237.5,187.5 Z"/></g>
<g><path style="opacity:1" fill="#000000" d="M 299.5,188.5 C 300.209,187.596 301.209,187.263 302.5,187.5C 302.649,188.552 302.483,189.552 302,190.5C 301.583,189.244 300.75,188.577 299.5,188.5 Z"/></g>
<g><path style="opacity:1" fill="#000000" d="M 300.5,192.5 C 301.568,191.566 302.901,191.232 304.5,191.5C 304.768,193.099 304.434,194.432 303.5,195.5C 303.5,194.5 303.5,193.5 303.5,192.5C 302.5,192.5 301.5,192.5 300.5,192.5 Z"/></g>
<g><path style="opacity:1" fill="#fefffe" d="M 304.5,191.5 C 305.613,192.946 305.78,194.613 305,196.5C 300.167,202.667 294.667,208.167 288.5,213C 286.272,213.82 284.272,213.487 282.5,212C 284.314,209.521 285.981,207.021 287.5,204.5C 287.5,205.5 287.5,206.5 287.5,207.5C 286.218,208.708 286.218,210.042 287.5,211.5C 288.107,211.376 288.44,211.043 288.5,210.5C 293.833,205.833 298.833,200.833 303.5,195.5C 304.434,194.432 304.768,193.099 304.5,191.5 Z"/></g>
<g><path style="opacity:1" fill="#ec1c23" d="M 252.5,192.5 C 254.077,198.687 257.077,204.187 261.5,209C 266.812,211.829 272.479,213.329 278.5,213.5C 278.657,214.873 278.49,216.207 278,217.5C 277.5,217 277,216.5 276.5,216C 272.205,215.088 267.872,214.421 263.5,214C 258.641,207.817 254.641,201.15 251.5,194C 252.056,193.617 252.389,193.117 252.5,192.5 Z"/></g>
<g><path style="opacity:1" fill="#2c2d8f" d="M 300.5,192.5 C 301.5,192.5 302.5,192.5 303.5,192.5C 303.5,193.5 303.5,194.5 303.5,195.5C 298.833,200.833 293.833,205.833 288.5,210.5C 287.596,209.791 287.263,208.791 287.5,207.5C 287.5,206.5 287.5,205.5 287.5,204.5C 290.5,201.833 293.5,199.167 296.5,196.5C 297.401,195.71 298.068,194.71 298.5,193.5C 298.842,192.662 299.508,192.328 300.5,192.5 Z"/></g>
<g><path style="opacity:1" fill="#000000" d="M 294.5,194.5 C 295.568,193.566 296.901,193.232 298.5,193.5C 298.068,194.71 297.401,195.71 296.5,196.5C 296.5,195.167 295.833,194.5 294.5,194.5 Z"/></g>
<g><path style="opacity:1" fill="#fefffe" d="M 294.5,194.5 C 295.833,194.5 296.5,195.167 296.5,196.5C 293.5,199.167 290.5,201.833 287.5,204.5C 289.808,201.185 292.141,197.851 294.5,194.5 Z"/></g>
<g><path style="opacity:1" fill="#7b0012" d="M 274.5,234.5 C 273.833,235.833 272.833,236.833 271.5,237.5C 261.358,228.16 253.191,217.16 247,204.5C 246.182,201.773 246.348,199.106 247.5,196.5C 248.609,195.41 249.609,195.41 250.5,196.5C 256.969,209.935 265.302,222.102 275.5,233C 274.944,233.383 274.611,233.883 274.5,234.5 Z"/></g>
<g><path style="opacity:1" fill="#2c2d2c" d="M 283.5,196.5 C 285.857,196.337 288.19,196.503 290.5,197C 286.609,201.893 283.109,207.06 280,212.5C 279.082,207.902 277.916,203.402 276.5,199C 279.104,198.61 281.438,197.776 283.5,196.5 Z"/></g>
<g><path style="opacity:1" fill="#fefffe" d="M 309.5,196.5 C 311.473,197.487 313.473,198.487 315.5,199.5C 316.695,203.614 318.195,207.614 320,211.5C 320.263,222.582 319.43,233.582 317.5,244.5C 316.07,244.421 314.736,244.754 313.5,245.5C 311.016,229.37 309.683,213.036 309.5,196.5 Z"/></g>
<g><path style="opacity:1" fill="#fefffe" d="M 243.5,197.5 C 244.317,199.969 244.817,202.635 245,205.5C 247.034,209.52 249.034,213.52 251,217.5C 252.237,227.388 251.404,237.055 248.5,246.5C 246.257,247.474 243.924,247.808 241.5,247.5C 241.666,238.827 241.5,230.16 241,221.5C 239.095,216.452 237.595,211.285 236.5,206C 236.833,204.833 237.167,203.667 237.5,202.5C 240.129,201.533 242.129,199.867 243.5,197.5 Z"/></g>
<g><path style="opacity:1" fill="#fefffe" d="M 306.5,199.5 C 307.309,201.292 307.809,203.292 308,205.5C 308.667,214.167 308.667,222.833 308,231.5C 302.27,239.877 296.604,248.211 291,256.5C 288.9,252.401 286.067,248.901 282.5,246C 293.053,231.726 301.053,216.226 306.5,199.5 Z"/></g>
<g><path style="opacity:1" fill="#fefffe" d="M 323.5,199.5 C 324.5,199.5 325.5,199.5 326.5,199.5C 326.667,213.171 326.5,226.837 326,240.5C 325.995,243.229 324.829,245.229 322.5,246.5C 321.762,242.871 321.929,239.204 323,235.5C 323.5,223.505 323.667,211.505 323.5,199.5 Z"/></g>
<g><path style="opacity:1" fill="#323bc8" d="M 337.5,206.5 C 334.251,204.972 330.918,203.639 327.5,202.5C 327.351,201.448 327.517,200.448 328,199.5C 330.463,201.797 333.297,203.463 336.5,204.5C 337.298,204.957 337.631,205.624 337.5,206.5 Z"/></g>
<g><path style="opacity:1" fill="#222322" d="M 234.5,200.5 C 235.525,200.897 235.692,201.563 235,202.5C 231.259,204.238 228.092,206.738 225.5,210C 221.841,210.794 218.341,211.961 215,213.5C 214.694,211.049 215.194,208.716 216.5,206.5C 222.671,204.665 228.671,202.665 234.5,200.5 Z"/></g>
<g><path style="opacity:1" fill="#ec1c23" d="M 303.5,200.5 C 304.097,200.735 304.43,201.235 304.5,202C 304,203.5 303.5,205 303,206.5C 300.574,208.853 299.074,211.686 298.5,215C 293.431,215.309 288.598,216.476 284,218.5C 283.316,219.784 283.483,220.951 284.5,222C 287.833,222.333 291.167,222.667 294.5,223C 293.167,223.667 292.167,224.667 291.5,226C 288.494,226.332 285.66,227.166 283,228.5C 282.316,229.784 282.483,230.951 283.5,232C 285.167,232.333 286.833,232.667 288.5,233C 287.415,235.172 286.081,237.172 284.5,239C 283.833,239.667 283.167,239.667 282.5,239C 281.789,237.745 280.956,236.579 280,235.5C 279.5,228.508 279.334,221.508 279.5,214.5C 282.817,215.221 286.151,215.388 289.5,215C 295.064,210.938 299.731,206.104 303.5,200.5 Z"/></g>
<g><path style="opacity:1" fill="#fefffe" d="M 327.5,202.5 C 330.918,203.639 334.251,204.972 337.5,206.5C 337.158,207.338 336.492,207.672 335.5,207.5C 334.22,206.069 332.553,205.402 330.5,205.5C 329.1,204.9 328.1,203.9 327.5,202.5 Z"/></g>
<g><path style="opacity:1" fill="#910c11" d="M 320.5,242.5 C 320.167,242.5 319.833,242.5 319.5,242.5C 322.064,229.447 322.064,216.447 319.5,203.5C 320.5,203.5 321.5,203.5 322.5,203.5C 322.992,216.598 322.326,229.598 320.5,242.5 Z"/></g>
<g><path style="opacity:1" fill="#323bc8" d="M 233.5,205.5 C 234.725,206.152 235.392,207.319 235.5,209C 235.191,213.332 232.857,214.999 228.5,214C 227.253,212.542 227.253,211.042 228.5,209.5C 230.21,208.113 231.877,206.779 233.5,205.5 Z"/></g>
<g><path style="opacity:1" fill="#292779" d="M 330.5,205.5 C 332.553,205.402 334.22,206.069 335.5,207.5C 337.291,208.391 339.124,209.391 341,210.5C 341.74,211.749 341.573,212.749 340.5,213.5C 336.927,211.216 333.26,209.216 329.5,207.5C 326.742,206.033 327.075,205.367 330.5,205.5 Z"/></g>
<g><path style="opacity:1" fill="#000000" d="M 287.5,207.5 C 287.263,208.791 287.596,209.791 288.5,210.5C 288.44,211.043 288.107,211.376 287.5,211.5C 286.218,210.042 286.218,208.708 287.5,207.5 Z"/></g>
<g><path style="opacity:1" fill="#fefffe" d="M 327.5,208.5 C 327.842,207.662 328.508,207.328 329.5,207.5C 333.26,209.216 336.927,211.216 340.5,213.5C 341.598,214.397 341.598,215.23 340.5,216C 339.207,216.49 337.873,216.657 336.5,216.5C 334.351,215.264 332.018,214.264 329.5,213.5C 328.833,212.833 328.167,212.167 327.5,211.5C 331.478,213.004 335.478,214.17 339.5,215C 335.92,212.044 331.92,209.877 327.5,208.5 Z"/></g>
<g><path style="opacity:1" fill="#323bc8" d="M 327.5,208.5 C 331.92,209.877 335.92,212.044 339.5,215C 335.478,214.17 331.478,213.004 327.5,211.5C 327.5,210.5 327.5,209.5 327.5,208.5 Z"/></g>
<g><path style="opacity:1" fill="#323bc8" d="M 220.5,213.5 C 218.351,214.736 216.018,215.736 213.5,216.5C 215.089,214.694 217.089,213.361 219.5,212.5C 220.107,212.624 220.44,212.957 220.5,213.5 Z"/></g>
<g><path style="opacity:1" fill="#fefffe" d="M 217.5,238.5 C 214.387,233.547 211.054,228.714 207.5,224C 208.047,223.075 208.713,222.242 209.5,221.5C 215.564,230.454 222.23,238.954 229.5,247C 231.345,248.128 233.345,248.628 235.5,248.5C 235.864,236.246 232.031,225.58 224,216.5C 223.301,214.926 223.635,213.593 225,212.5C 233.241,223.056 237.408,235.056 237.5,248.5C 237.274,250.189 236.941,251.855 236.5,253.5C 236.267,254.932 235.6,255.432 234.5,255C 228.911,249.242 223.245,243.742 217.5,238.5 Z"/></g>
<g><path style="opacity:1" fill="#fefffe" d="M 220.5,213.5 C 221.043,213.56 221.376,213.893 221.5,214.5C 219.172,215.824 216.839,217.157 214.5,218.5C 213.702,218.043 213.369,217.376 213.5,216.5C 216.018,215.736 218.351,214.736 220.5,213.5 Z"/></g>
<g><path style="opacity:1" fill="#fefffe" d="M 235.5,213.5 C 237.927,214.279 237.927,215.446 235.5,217C 232.901,219.044 230.901,218.711 229.5,216C 231.852,215.76 233.852,214.927 235.5,213.5 Z"/></g>
<g><path style="opacity:1" fill="#2d2e93" d="M 329.5,213.5 C 332.018,214.264 334.351,215.264 336.5,216.5C 337.609,217.29 338.942,217.79 340.5,218C 339.809,219.067 339.309,220.234 339,221.5C 338.617,220.944 338.117,220.611 337.5,220.5C 335.694,219.976 334.028,219.309 332.5,218.5C 331.081,217.549 329.415,217.216 327.5,217.5C 327.157,215.517 327.824,214.183 329.5,213.5 Z"/></g>
<g><path style="opacity:1" fill="#fefffe" d="M 342.5,214.5 C 343.695,214.866 344.361,215.699 344.5,217C 341.313,226.212 335.813,233.712 328,239.5C 330.815,235.985 333.815,232.318 337,228.5C 339.526,224.086 341.359,219.42 342.5,214.5 Z"/></g>
<g><path style="opacity:1" fill="#fefffe" d="M 268.5,220.5 C 270.854,220.162 273.187,219.662 275.5,219C 272.607,217.851 269.607,217.351 266.5,217.5C 263.8,216.058 264.134,215.392 267.5,215.5C 271.694,215.595 275.361,216.928 278.5,219.5C 276.808,220.969 274.808,221.635 272.5,221.5C 270.955,221.489 269.622,221.156 268.5,220.5 Z"/></g>
<g><path style="opacity:1" fill="#323bc8" d="M 219.5,216.5 C 220.552,216.351 221.552,216.517 222.5,217C 218.942,218.892 216.442,221.725 215,225.5C 209.806,220.723 210.306,218.556 216.5,219C 217.942,218.623 218.942,217.79 219.5,216.5 Z"/></g>
<g><path style="opacity:1" fill="#ec1c23" d="M 226.5,292.5 C 225.662,292.842 225.328,293.508 225.5,294.5C 224.206,296.68 224.539,298.68 226.5,300.5C 226.03,306.136 226.53,311.803 228,317.5C 230.112,321.278 232.612,324.778 235.5,328C 227.695,330.471 222.529,335.638 220,343.5C 219.617,342.944 219.117,342.611 218.5,342.5C 218.203,338.674 216.37,335.674 213,333.5C 210.541,330.93 209.541,327.93 210,324.5C 213.297,322.205 216.297,319.538 219,316.5C 219.667,315.833 219.667,315.167 219,314.5C 214.411,315.85 210.244,317.85 206.5,320.5C 204.45,320.961 202.45,321.628 200.5,322.5C 199.817,322.137 199.15,321.804 198.5,321.5C 198.561,318.27 200.228,316.437 203.5,316C 200.473,314.487 197.473,312.987 194.5,311.5C 194.414,309.323 193.747,307.323 192.5,305.5C 193.246,304.264 193.579,302.93 193.5,301.5C 195.636,300.597 197.636,299.431 199.5,298C 197.846,297.392 196.179,296.892 194.5,296.5C 195.024,294.694 195.691,293.028 196.5,291.5C 200.505,295.245 205.338,297.245 211,297.5C 212.971,297.532 214.471,296.698 215.5,295C 209.362,293.122 203.362,290.955 197.5,288.5C 200.28,275.99 203.78,263.657 208,251.5C 208.263,246.149 208.263,240.816 208,235.5C 212.176,241.196 216.343,246.863 220.5,252.5C 217.024,251.662 216.524,252.996 219,256.5C 221.268,258.188 223.435,260.021 225.5,262C 227.579,262.808 229.579,262.641 231.5,261.5C 230.807,260.482 230.141,259.482 229.5,258.5C 232.206,258.425 234.873,258.092 237.5,257.5C 239.499,244.459 237.499,232.126 231.5,220.5C 233.733,219.258 235.899,217.924 238,216.5C 241.214,230.478 241.214,244.478 238,258.5C 236.667,260.5 235.333,262.5 234,264.5C 231.177,273.793 228.677,283.126 226.5,292.5 Z"/></g>
<g><path style="opacity:1" fill="#fefffe" d="M 296.5,217.5 C 285.684,219.337 285.35,220.337 295.5,220.5C 294.036,221.16 292.369,221.493 290.5,221.5C 288.288,221.588 286.288,221.088 284.5,220C 286.911,218.417 289.578,217.417 292.5,217C 294.743,216.203 296.077,216.37 296.5,217.5 Z"/></g>
<g><path style="opacity:1" fill="#910c11" d="M 266.5,217.5 C 269.607,217.351 272.607,217.851 275.5,219C 273.187,219.662 270.854,220.162 268.5,220.5C 267.094,220.027 266.427,219.027 266.5,217.5 Z"/></g>
<g><path style="opacity:1" fill="#910c11" d="M 296.5,217.5 C 296.737,218.791 296.404,219.791 295.5,220.5C 285.35,220.337 285.684,219.337 296.5,217.5 Z"/></g>
<g><path style="opacity:1" fill="#fefffe" d="M 223.5,218.5 C 222.19,220.148 220.857,221.814 219.5,223.5C 221.733,224.016 223.4,223.016 224.5,220.5C 225.954,221.52 226.287,222.687 225.5,224C 222.626,225.919 219.626,226.419 216.5,225.5C 217.877,222.123 220.21,219.789 223.5,218.5 Z"/></g>
<g><path style="opacity:1" fill="#323bc8" d="M 223.5,218.5 C 224.338,218.842 224.672,219.508 224.5,220.5C 223.4,223.016 221.733,224.016 219.5,223.5C 220.857,221.814 222.19,220.148 223.5,218.5 Z"/></g>
<g><path style="opacity:1" fill="#fefffe" d="M 327.5,219.5 C 328.919,218.549 330.585,218.216 332.5,218.5C 334.028,219.309 335.694,219.976 337.5,220.5C 338.363,221.94 338.363,223.274 337.5,224.5C 335.604,225.466 333.604,225.799 331.5,225.5C 330.791,224.596 329.791,224.263 328.5,224.5C 328.167,223.833 327.833,223.167 327.5,222.5C 330.426,223.461 333.426,224.127 336.5,224.5C 336.67,223.178 336.337,222.011 335.5,221C 332.883,220.178 330.216,219.678 327.5,219.5 Z"/></g>
<g><path style="opacity:1" fill="#fefffe" d="M 345.5,218.5 C 346.598,219.601 346.765,220.934 346,222.5C 344.666,221.122 344.499,219.789 345.5,218.5 Z"/></g>
<g><path style="opacity:1" fill="#323bc8" d="M 327.5,219.5 C 330.216,219.678 332.883,220.178 335.5,221C 336.337,222.011 336.67,223.178 336.5,224.5C 333.426,224.127 330.426,223.461 327.5,222.5C 327.5,221.5 327.5,220.5 327.5,219.5 Z"/></g>
<g><path style="opacity:1" fill="#fefffe" d="M 253.5,221.5 C 255.797,223.294 257.963,225.294 260,227.5C 264.5,233.833 269,240.167 273.5,246.5C 271.517,248.984 269.35,251.317 267,253.5C 262.667,248.5 258.333,243.5 254,238.5C 253.501,232.843 253.334,227.176 253.5,221.5 Z"/></g>
<g><path style="opacity:1" fill="#ec1c23" d="M 277.5,221.5 C 278.629,223.628 278.796,225.961 278,228.5C 268.706,225.407 268.54,223.073 277.5,221.5 Z"/></g>
<g><path style="opacity:1" fill="#323bc8" d="M 226.5,224.5 C 230.429,225.846 230.095,226.68 225.5,227C 223.263,229.03 221.763,231.53 221,234.5C 219.623,232.246 218.123,230.08 216.5,228C 220.245,227.698 223.578,226.531 226.5,224.5 Z"/></g>
<g><path style="opacity:1" fill="#2f33a6" d="M 328.5,224.5 C 329.791,224.263 330.791,224.596 331.5,225.5C 332.952,226.302 334.618,226.802 336.5,227C 335.529,228.481 334.196,229.315 332.5,229.5C 331.833,229.5 331.5,229.167 331.5,228.5C 330.432,227.566 329.099,227.232 327.5,227.5C 327.263,226.209 327.596,225.209 328.5,224.5 Z"/></g>
<g><path style="opacity:1" fill="#c2c3c2" d="M 461.5,224.5 C 462.289,224.783 462.956,225.283 463.5,226C 461.415,227.041 459.748,228.541 458.5,230.5C 456.926,231.631 455.259,231.798 453.5,231C 456.355,228.969 459.022,226.803 461.5,224.5 Z"/></g>
<g><path style="opacity:1" fill="#fefffe" d="M 341.5,225.5 C 343.147,227.186 343.314,228.853 342,230.5C 341.506,228.866 341.34,227.199 341.5,225.5 Z"/></g>
<g><path style="opacity:1" fill="#fefffe" d="M 206.5,226.5 C 210.894,230.252 210.227,231.252 204.5,229.5C 205.193,228.482 205.859,227.482 206.5,226.5 Z"/></g>
<g><path style="opacity:1" fill="#c2c3c2" d="M 435.5,239.5 C 432.296,240.383 429.629,242.05 427.5,244.5C 379.055,274.228 330.722,304.228 282.5,334.5C 281.614,333.675 281.281,332.675 281.5,331.5C 338.056,298.587 393.056,263.754 446.5,227C 450.067,229.747 450.067,232.58 446.5,235.5C 445.167,234.833 443.833,234.167 442.5,233.5C 440.122,235.552 437.789,237.552 435.5,239.5 Z"/></g>
<g><path style="opacity:1" fill="#fefffe" d="M 229.5,228.5 C 226.984,229.6 225.984,231.267 226.5,233.5C 227.852,232.476 229.185,231.476 230.5,230.5C 231.706,231.88 231.373,233.047 229.5,234C 221.228,236.393 220.228,234.393 226.5,228C 227.749,227.26 228.749,227.427 229.5,228.5 Z"/></g>
<g><path style="opacity:1" fill="#fefffe" d="M 290.5,228.5 C 289.078,228.709 287.745,229.209 286.5,230C 287.448,230.483 288.448,230.649 289.5,230.5C 287.483,231.874 285.483,231.707 283.5,230C 285.744,228.062 288.077,227.562 290.5,228.5 Z"/></g>
<g><path style="opacity:1" fill="#323bc8" d="M 229.5,228.5 C 230.338,228.842 230.672,229.508 230.5,230.5C 229.185,231.476 227.852,232.476 226.5,233.5C 225.984,231.267 226.984,229.6 229.5,228.5 Z"/></g>
<g><path style="opacity:1" fill="#fefffe" d="M 274.5,229.5 C 275.793,228.355 276.959,228.689 278,230.5C 278.667,231.5 278.667,232.5 278,233.5C 277.34,231.676 276.173,230.343 274.5,229.5 Z"/></g>
<g><path style="opacity:1" fill="#910c11" d="M 290.5,228.5 C 290.167,229.167 289.833,229.833 289.5,230.5C 288.448,230.649 287.448,230.483 286.5,230C 287.745,229.209 289.078,228.709 290.5,228.5 Z"/></g>
<g><path style="opacity:1" fill="#fefffe" d="M 327.5,229.5 C 328.568,228.566 329.901,228.232 331.5,228.5C 331.5,229.167 331.833,229.5 332.5,229.5C 332.586,230.496 332.252,231.329 331.5,232C 329.934,232.765 328.601,232.598 327.5,231.5C 331.5,230.833 331.5,230.167 327.5,229.5 Z"/></g>
<g><path style="opacity:1" fill="#323bc8" d="M 327.5,229.5 C 331.5,230.167 331.5,230.833 327.5,231.5C 327.5,230.833 327.5,230.167 327.5,229.5 Z"/></g>
<g><path style="opacity:1" fill="#fefffe" d="M 339.5,229.5 C 341.603,231.018 341.77,232.685 340,234.5C 338.964,232.701 338.797,231.034 339.5,229.5 Z"/></g>
<g><path style="opacity:1" fill="#fefffe" d="M 206.5,232.5 C 209.122,230.992 211.455,231.492 213.5,234C 212.5,234.5 211.5,235 210.5,235.5C 209.148,234.476 207.815,233.476 206.5,232.5 Z"/></g>
<g><path style="opacity:1" fill="#910c11" d="M 309.5,232.5 C 310.611,236.664 311.111,240.997 311,245.5C 307.604,249.203 303.437,250.369 298.5,249C 302.807,243.872 306.473,238.372 309.5,232.5 Z"/></g>
<g><path style="opacity:1" fill="#fefffe" d="M 337.5,232.5 C 338.797,233.849 338.63,235.182 337,236.5C 336.421,235.072 336.588,233.738 337.5,232.5 Z"/></g>
<g><path style="opacity:1" fill="#323bc8" d="M 231.5,233.5 C 232.478,233.811 233.145,234.478 233.5,235.5C 229.422,236.077 227.256,238.41 227,242.5C 225.315,240.983 223.815,239.316 222.5,237.5C 224.423,236.692 226.423,236.192 228.5,236C 229.942,235.623 230.942,234.79 231.5,233.5 Z"/></g>
<g><path style="opacity:1" fill="#323bc8" d="M 327.5,233.5 C 331.133,233.443 331.3,234.443 328,236.5C 327.517,235.552 327.351,234.552 327.5,233.5 Z"/></g>
<g><path style="opacity:1" fill="#b87a56" d="M 427.5,244.5 C 430.704,243.617 433.371,241.95 435.5,239.5C 437.963,238.767 440.297,237.767 442.5,236.5C 444.473,237.331 446.473,237.498 448.5,237C 449.509,234.828 451.176,233.662 453.5,233.5C 454.052,235.331 454.052,236.997 453.5,238.5C 443.904,245.591 433.904,252.091 423.5,258C 420.614,261.422 417.447,264.255 414,266.5C 411.433,265.861 408.933,265.361 406.5,265C 405.944,267.237 404.944,269.237 403.5,271C 377.286,287.844 352.119,306.01 328,325.5C 324.867,323.249 322.701,320.249 321.5,316.5C 319.865,315.319 318.198,315.319 316.5,316.5C 315.304,316.154 315.304,315.654 316.5,315C 353.903,291.975 390.903,268.475 427.5,244.5 Z"/></g>
<g><path style="opacity:1" fill="#c2c3c2" d="M 456.5,233.5 C 457.5,233.5 458.5,233.5 459.5,233.5C 460.244,236.95 458.91,238.616 455.5,238.5C 455.366,236.708 455.699,235.042 456.5,233.5 Z"/></g>
<g><path style="opacity:1" fill="#fec90d" d="M 274.5,234.5 C 278.557,236.049 280.557,238.716 280.5,242.5C 279.188,240.521 277.521,238.855 275.5,237.5C 274.145,238.188 273.145,239.188 272.5,240.5C 271.596,239.791 271.263,238.791 271.5,237.5C 272.833,236.833 273.833,235.833 274.5,234.5 Z"/></g>
<g><path style="opacity:1" fill="#fefffe" d="M 212.5,235.5 C 213.756,235.461 214.756,235.961 215.5,237C 213.833,239 212.167,239 210.5,237C 211.416,236.722 212.082,236.222 212.5,235.5 Z"/></g>
<g><path style="opacity:1" fill="#fefffe" d="M 334.5,235.5 C 335.797,236.849 335.63,238.182 334,239.5C 333.421,238.072 333.588,236.738 334.5,235.5 Z"/></g>
<g><path style="opacity:1" fill="#ec1c23" d="M 341.5,240.5 C 335.791,243.685 331.458,248.185 328.5,254C 328.667,254.5 328.833,255 329,255.5C 332.047,251.225 336.214,248.892 341.5,248.5C 342.674,249.514 343.34,250.847 343.5,252.5C 340.854,254.479 338.521,256.812 336.5,259.5C 336.833,260.5 337.5,261.167 338.5,261.5C 340.075,260.544 341.742,259.877 343.5,259.5C 344.758,267.621 346.591,275.621 349,283.5C 349.465,284.931 350.299,286.097 351.5,287C 350.756,288.039 349.756,288.539 348.5,288.5C 347.791,287.596 346.791,287.263 345.5,287.5C 337.505,285.466 330.005,286.8 323,291.5C 322.499,286.492 321.999,281.492 321.5,276.5C 324.868,275.898 328.201,275.064 331.5,274C 335.276,271.755 335.276,269.921 331.5,268.5C 328.772,269.018 326.272,270.018 324,271.5C 322.234,270.767 320.401,270.433 318.5,270.5C 317.933,268.97 317.267,267.47 316.5,266C 320.599,258.614 321.599,250.78 319.5,242.5C 319.833,242.5 320.167,242.5 320.5,242.5C 320.5,244.167 320.5,245.833 320.5,247.5C 328.362,245.668 335.029,241.668 340.5,235.5C 341.452,237.045 341.785,238.712 341.5,240.5 Z"/></g>
<g><path style="opacity:1" fill="#fefffe" d="M 232.5,238.5 C 231.522,238.811 230.855,239.478 230.5,240.5C 231.425,241.562 232.425,241.562 233.5,240.5C 232.994,243.734 231.328,244.401 228.5,242.5C 228.484,239.168 229.817,237.834 232.5,238.5 Z"/></g>
<g><path style="opacity:1" fill="#fefffe" d="M 217.5,238.5 C 216.796,240.344 215.463,240.844 213.5,240C 214.745,239.209 216.078,238.709 217.5,238.5 Z"/></g>
<g><path style="opacity:1" fill="#323bc8" d="M 232.5,238.5 C 233.338,238.842 233.672,239.508 233.5,240.5C 232.425,241.562 231.425,241.562 230.5,240.5C 230.855,239.478 231.522,238.811 232.5,238.5 Z"/></g>
<g><path style="opacity:1" fill="#670911" d="M 280.5,242.5 C 280.428,244.311 279.595,245.644 278,246.5C 275.483,245.138 273.65,243.138 272.5,240.5C 273.145,239.188 274.145,238.188 275.5,237.5C 277.521,238.855 279.188,240.521 280.5,242.5 Z"/></g>
<g><path style="opacity:1" fill="#fefffe" d="M 331.5,238.5 C 332.71,240.176 332.21,241.51 330,242.5C 329.516,240.807 330.016,239.473 331.5,238.5 Z"/></g>
<g><path style="opacity:1" fill="#000000" d="M 435.5,239.5 C 433.371,241.95 430.704,243.617 427.5,244.5C 429.629,242.05 432.296,240.383 435.5,239.5 Z"/></g>
<g><path style="opacity:1" fill="#910c11" d="M 252.5,240.5 C 254.782,243.122 257.115,245.788 259.5,248.5C 256.216,249.657 252.882,249.824 249.5,249C 251.336,246.507 252.336,243.674 252.5,240.5 Z"/></g>
<g><path style="opacity:1" fill="#fefffe" d="M 327.5,240.5 C 328.797,241.849 328.63,243.182 327,244.5C 326.421,243.072 326.588,241.738 327.5,240.5 Z"/></g>
<g><path style="opacity:1" fill="#910c11" d="M 341.5,240.5 C 341.5,243.167 341.5,245.833 341.5,248.5C 336.214,248.892 332.047,251.225 329,255.5C 328.833,255 328.667,254.5 328.5,254C 331.458,248.185 335.791,243.685 341.5,240.5 Z"/></g>
<g><path style="opacity:1" fill="#fefffe" d="M 216.5,244.5 C 218.185,243.156 219.852,243.323 221.5,245C 219.735,245.64 218.068,245.473 216.5,244.5 Z"/></g>
<g><path style="opacity:1" fill="#323bc8" d="M 228.5,244.5 C 230.208,244.377 232.041,244.044 234,243.5C 234.781,244.944 234.614,246.277 233.5,247.5C 231.971,246.237 230.305,245.237 228.5,244.5 Z"/></g>
<g><path style="opacity:1" fill="#fec90d" d="M 315.5,245.5 C 317.379,245.393 317.712,245.893 316.5,247C 315.167,247.667 313.833,247.667 312.5,247C 313.737,246.768 314.737,246.268 315.5,245.5 Z"/></g>
<g><path style="opacity:1" fill="#fefffe" d="M 219.5,246.5 C 224.756,246.922 225.256,247.922 221,249.5C 219.961,248.756 219.461,247.756 219.5,246.5 Z"/></g>
<g><path style="opacity:1" fill="#fefffe" d="M 317.5,247.5 C 318.404,248.209 318.737,249.209 318.5,250.5C 316.738,250.357 315.071,250.691 313.5,251.5C 312.614,250.675 312.281,249.675 312.5,248.5C 314.415,248.784 316.081,248.451 317.5,247.5 Z"/></g>
<g><path style="opacity:1" fill="#fec90d" d="M 241.5,248.5 C 243.604,248.201 245.604,248.534 247.5,249.5C 246.5,249.833 245.5,250.167 244.5,250.5C 242.97,250.36 241.97,249.693 241.5,248.5 Z"/></g>
<g><path style="opacity:1" fill="#fec90d" d="M 267.5,265.5 C 267.573,263.973 266.906,262.973 265.5,262.5C 266.641,256.506 269.974,252.006 275.5,249C 279.793,247.798 283.293,248.965 286,252.5C 287.459,256.224 289.293,259.724 291.5,263C 287.833,270.501 281.833,273.834 273.5,273C 270.847,270.866 268.847,268.366 267.5,265.5 Z"/></g>
<g><path style="opacity:1" fill="#fefffe" d="M 222.5,249.5 C 226.588,249.218 227.088,249.885 224,251.5C 222.97,251.164 222.47,250.497 222.5,249.5 Z"/></g>
<g><path style="opacity:1" fill="#910c11" d="M 220.5,252.5 C 223.055,255.27 226.055,257.27 229.5,258.5C 230.141,259.482 230.807,260.482 231.5,261.5C 229.579,262.641 227.579,262.808 225.5,262C 223.435,260.021 221.268,258.188 219,256.5C 216.524,252.996 217.024,251.662 220.5,252.5 Z"/></g>
<g><path style="opacity:1" fill="#fefffe" d="M 226.5,251.5 C 228.273,252.314 228.773,253.648 228,255.5C 226.581,254.54 225.081,253.707 223.5,253C 224.737,252.768 225.737,252.268 226.5,251.5 Z"/></g>
<g><path style="opacity:1" fill="#fefffe" d="M 247.5,257.5 C 245.139,257.326 242.806,256.993 240.5,256.5C 240.535,251.622 242.868,250.289 247.5,252.5C 248.535,254.128 248.535,255.795 247.5,257.5 Z"/></g>
<g><path style="opacity:1" fill="#fefffe" d="M 249.5,252.5 C 253.646,251.353 257.98,251.186 262.5,252C 265.877,253.649 266.21,255.649 263.5,258C 259.129,258.629 254.796,258.463 250.5,257.5C 250.784,255.585 250.451,253.919 249.5,252.5 Z"/></g>
<g><path style="opacity:1" fill="#fec90d" d="M 315.5,251.5 C 317.347,251.234 318.014,251.568 317.5,252.5C 315.902,253.485 314.235,253.651 312.5,253C 313.737,252.768 314.737,252.268 315.5,251.5 Z"/></g>
<g><path style="opacity:1" fill="#910c11" d="M 343.5,252.5 C 343.5,254.833 343.5,257.167 343.5,259.5C 341.742,259.877 340.075,260.544 338.5,261.5C 337.5,261.167 336.833,260.5 336.5,259.5C 338.521,256.812 340.854,254.479 343.5,252.5 Z"/></g>
<g><path style="opacity:1" fill="#fefffe" d="M 229.5,253.5 C 233.06,255.283 233.06,256.283 229.5,256.5C 229.5,255.5 229.5,254.5 229.5,253.5 Z"/></g>
<g><path style="opacity:1" fill="#f0f0f0" d="M 304.5,259.5 C 304.796,261.403 305.463,263.07 306.5,264.5C 305.715,268.596 306.882,271.93 310,274.5C 309.991,282.5 309.324,282.5 308,274.5C 307.808,276.577 307.308,278.577 306.5,280.5C 305.376,275.279 304.542,275.279 304,280.5C 303.667,280.167 303.333,279.833 303,279.5C 303.291,276.705 303.791,273.871 304.5,271C 304.486,269.615 304.152,268.449 303.5,267.5C 303.509,265.692 303.009,264.025 302,262.5C 300.532,265.696 299.365,269.029 298.5,272.5C 297.733,273.172 297.066,274.005 296.5,275C 300,279.833 304.167,284 309,287.5C 309.667,293.167 309.667,298.833 309,304.5C 301.214,297.72 294.547,290.053 289,281.5C 288.005,282.066 287.172,282.733 286.5,283.5C 284.958,284.301 283.292,284.634 281.5,284.5C 279.039,283.469 276.373,282.802 273.5,282.5C 273.158,281.662 272.492,281.328 271.5,281.5C 271.027,280.094 270.027,279.427 268.5,279.5C 266.085,276.66 264.752,273.327 264.5,269.5C 264.483,267.435 264.15,265.435 263.5,263.5C 264.167,263.167 264.833,262.833 265.5,262.5C 266.906,262.973 267.573,263.973 267.5,265.5C 267.814,268.947 268.648,272.28 270,275.5C 270.669,272.972 271.502,272.972 272.5,275.5C 271.361,277.396 272.027,278.396 274.5,278.5C 275.209,279.404 276.209,279.737 277.5,279.5C 279.137,280.38 280.97,281.046 283,281.5C 284.63,280.287 286.464,279.454 288.5,279C 285.977,278.482 283.977,277.148 282.5,275C 285.939,272.861 289.106,270.361 292,267.5C 293.439,269.275 294.439,271.275 295,273.5C 296.888,269.004 298.055,264.337 298.5,259.5C 299.613,258.054 299.78,256.387 299,254.5C 294.628,258.631 293.795,257.964 296.5,252.5C 300.847,251.778 305.18,251.112 309.5,250.5C 310.754,252.259 310.421,253.759 308.5,255C 306.567,255.251 304.734,255.751 303,256.5C 302.415,257.998 302.915,258.998 304.5,259.5 Z"/></g>
<g><path style="opacity:1" fill="#fefffe" d="M 317.5,253.5 C 318.248,257.811 317.082,261.811 314,265.5C 312.336,261.87 312.17,258.203 313.5,254.5C 315.099,254.768 316.432,254.434 317.5,253.5 Z"/></g>
<g><path style="opacity:1" fill="#890e11" d="M 306.5,264.5 C 305.463,263.07 304.796,261.403 304.5,259.5C 306.408,257.976 308.575,256.643 311,255.5C 311.735,260.838 312.068,266.172 312,271.5C 310.413,272.727 309.079,272.394 308,270.5C 307.809,268.292 307.309,266.292 306.5,264.5 Z"/></g>
<g><path style="opacity:1" fill="#910c11" d="M 213.5,256.5 C 214.473,256.987 215.473,257.487 216.5,258C 219.981,262.315 223.647,266.482 227.5,270.5C 225.813,271.568 224.146,271.401 222.5,270C 221.667,267.833 220.167,266.333 218,265.5C 215.94,262.714 214.44,259.714 213.5,256.5 Z"/></g>
<g><path style="opacity:1" fill="#fec90d" d="M 240.5,256.5 C 242.806,256.993 245.139,257.326 247.5,257.5C 246.903,258.139 246.07,258.472 245,258.5C 242.527,258.375 241.027,257.709 240.5,256.5 Z"/></g>
<g><path style="opacity:1" fill="#910c11" d="M 298.5,259.5 C 297.462,262.429 296.296,265.429 295,268.5C 293.711,265.649 293.211,262.649 293.5,259.5C 295.398,258.904 297.065,258.904 298.5,259.5 Z"/></g>
<g><path style="opacity:1" fill="#910c11" d="M 331.5,258.5 C 335.089,259.372 335.423,261.039 332.5,263.5C 329.423,264.799 326.423,264.632 323.5,263C 326.391,261.726 329.058,260.226 331.5,258.5 Z"/></g>
<g><path style="opacity:1" fill="#fefffe" d="M 239.5,259.5 C 240.922,259.709 242.255,260.209 243.5,261C 236.773,268.803 235.44,268.303 239.5,259.5 Z"/></g>
<g><path style="opacity:1" fill="#ec1c23" d="M 263.5,263.5 C 259.344,266.757 255.344,270.257 251.5,274C 249.593,275.122 247.593,275.955 245.5,276.5C 238.917,278.848 236.25,276.514 237.5,269.5C 241.615,266.887 245.282,263.721 248.5,260C 253.456,260.251 258.456,260.418 263.5,260.5C 263.5,261.5 263.5,262.5 263.5,263.5 Z"/></g>
<g><path style="opacity:1" fill="#910c11" d="M 206.5,264.5 C 206.064,269.048 206.564,273.715 208,278.5C 210.193,282.938 213.527,286.272 218,288.5C 218.601,289.965 218.101,290.965 216.5,291.5C 210.479,289.993 205.646,286.66 202,281.5C 201.349,275.283 202.849,269.616 206.5,264.5 Z"/></g>
<g><path style="opacity:1" fill="#69130f" d="M 303.5,267.5 C 303.938,270.893 303.105,273.893 301,276.5C 299.519,275.529 298.685,274.196 298.5,272.5C 299.365,269.029 300.532,265.696 302,262.5C 303.009,264.025 303.509,265.692 303.5,267.5 Z"/></g>
<g><path style="opacity:1" fill="#910c11" d="M 209.5,266.5 C 209.897,265.475 210.563,265.308 211.5,266C 214.528,268.26 216.362,271.094 217,274.5C 215,271.334 212.5,268.668 209.5,266.5 Z"/></g>
<g><path style="opacity:1" fill="#fec90d" d="M 407.5,265.5 C 410.919,267.007 414.585,268.007 418.5,268.5C 414.555,269.491 410.555,269.824 406.5,269.5C 406.433,268.041 406.766,266.708 407.5,265.5 Z"/></g>
<g><path style="opacity:1" fill="#fcfbfb" d="M 264.5,269.5 C 264.752,273.327 266.085,276.66 268.5,279.5C 259.929,287.883 250.095,294.55 239,299.5C 236.464,295.597 234.297,291.43 232.5,287C 243.754,281.789 253.921,274.956 263,266.5C 263.232,267.737 263.732,268.737 264.5,269.5 Z"/></g>
<g><path style="opacity:1" fill="#910c11" d="M 237.5,269.5 C 236.25,276.514 238.917,278.848 245.5,276.5C 241.004,280.081 236.004,282.581 230.5,284C 232.072,278.884 233.572,273.718 235,268.5C 235.671,269.252 236.504,269.586 237.5,269.5 Z"/></g>
<g><path style="opacity:1" fill="#910c11" d="M 321.5,276.5 C 319.755,274.967 318.755,272.967 318.5,270.5C 320.401,270.433 322.234,270.767 324,271.5C 326.272,270.018 328.772,269.018 331.5,268.5C 335.276,269.921 335.276,271.755 331.5,274C 328.201,275.064 324.868,275.898 321.5,276.5 Z"/></g>
<g><path style="opacity:1" fill="#fefffe" d="M 406.5,270.5 C 409.85,270.335 413.183,270.502 416.5,271C 402.126,279.853 387.46,288.187 372.5,296C 359.38,305.291 346.714,315.124 334.5,325.5C 332.833,326.833 331.167,326.833 329.5,325.5C 348.027,311.806 366.694,298.306 385.5,285C 387.126,285.195 388.793,285.195 390.5,285C 394.666,282.083 398.999,279.416 403.5,277C 405.022,275.084 406.022,272.917 406.5,270.5 Z"/></g>
<g><path style="opacity:1" fill="#ead9ce" d="M 402.5,272.5 C 405.07,273.484 405.07,274.651 402.5,276C 397.747,278.458 393.247,281.292 389,284.5C 388.493,283.004 388.993,281.837 390.5,281C 394.742,278.39 398.742,275.557 402.5,272.5 Z"/></g>
<g><path style="opacity:1" fill="#910c11" d="M 277.5,277.5 C 276.609,278.11 275.609,278.443 274.5,278.5C 275.14,275.318 276.14,274.985 277.5,277.5 Z"/></g>
<g><path style="opacity:1" fill="#910c11" d="M 277.5,279.5 C 277.5,278.833 277.5,278.167 277.5,277.5C 278.151,276.909 278.818,276.243 279.5,275.5C 282.819,278.82 282.152,280.154 277.5,279.5 Z"/></g>
<g><path style="opacity:1" fill="#000000" d="M 277.5,277.5 C 277.5,278.167 277.5,278.833 277.5,279.5C 276.209,279.737 275.209,279.404 274.5,278.5C 275.609,278.443 276.609,278.11 277.5,277.5 Z"/></g>
<g><path style="opacity:1" fill="#222322" d="M 312.5,279.5 C 318.771,278.671 321.438,281.505 320.5,288C 320.163,291.523 319.663,295.023 319,298.5C 317.635,300.86 315.635,302.527 313,303.5C 311.22,295.63 311.053,287.63 312.5,279.5 Z"/></g>
<g><path style="opacity:1" fill="#870f11" d="M 271.5,281.5 C 272.492,281.328 273.158,281.662 273.5,282.5C 274.278,283.156 274.944,283.989 275.5,285C 275.167,285.5 274.833,286 274.5,286.5C 271.93,285.366 269.264,284.532 266.5,284C 267.91,282.628 269.577,281.795 271.5,281.5 Z"/></g>
<g><path style="opacity:1" fill="#fefffe" d="M 306.5,282.5 C 307.209,281.596 308.209,281.263 309.5,281.5C 309.649,282.552 309.483,283.552 309,284.5C 308.292,283.619 307.458,282.953 306.5,282.5 Z"/></g>
<g><path style="opacity:1" fill="#910c11" d="M 220.5,283.5 C 223.574,282.492 225.574,283.825 226.5,287.5C 226.167,287.833 225.833,288.167 225.5,288.5C 224.145,286.479 222.479,284.812 220.5,283.5 Z"/></g>
<g><path style="opacity:1" fill="#efe6e5" d="M 286.5,283.5 C 288.017,283.511 289.184,284.177 290,285.5C 295.259,294.093 301.926,301.427 310,307.5C 310.945,307.095 311.612,306.428 312,305.5C 313.505,307.298 313.672,309.132 312.5,311C 307.003,311.665 302.503,309.832 299,305.5C 294.177,298.518 290.011,291.184 286.5,283.5 Z"/></g>
<g><path style="opacity:1" fill="#910c11" d="M 281.5,284.5 C 282.658,285.95 282.158,286.95 280,287.5C 279.517,288.448 279.351,289.448 279.5,290.5C 282.572,290.183 285.572,290.516 288.5,291.5C 288.833,292.167 289.167,292.833 289.5,293.5C 286.358,295.119 283.024,296.119 279.5,296.5C 279.5,297.5 279.5,298.5 279.5,299.5C 284.162,299.962 288.829,300.462 293.5,301C 294.167,301.667 294.833,302.333 295.5,303C 292.5,303.333 289.5,303.667 286.5,304C 283.236,305.47 279.903,306.637 276.5,307.5C 276.5,299.833 276.5,292.167 276.5,284.5C 278.167,284.5 279.833,284.5 281.5,284.5 Z"/></g>
<g><path style="opacity:1" fill="#efe6e5" d="M 264.5,286.5 C 267.88,285.333 271.213,285.833 274.5,288C 269.924,289.476 265.257,289.81 260.5,289C 261.094,288.536 261.761,288.369 262.5,288.5C 265.187,288.664 267.854,288.497 270.5,288C 268.655,286.872 266.655,286.372 264.5,286.5 Z"/></g>
<g><path style="opacity:1" fill="#910c11" d="M 264.5,286.5 C 266.655,286.372 268.655,286.872 270.5,288C 267.854,288.497 265.187,288.664 262.5,288.5C 262.833,287.5 263.5,286.833 264.5,286.5 Z"/></g>
<g><path style="opacity:1" fill="#efe6e5" d="M 283.5,286.5 C 284.025,287.728 285.358,288.562 287.5,289C 285.167,289.667 282.833,289.667 280.5,289C 281.571,288.148 282.571,287.315 283.5,286.5 Z"/></g>
<g><path style="opacity:1" fill="#fefffe" d="M 230.5,301.5 C 232.552,300.947 232.885,299.947 231.5,298.5C 231.34,296.847 230.674,295.514 229.5,294.5C 229.337,292.143 229.503,289.81 230,287.5C 232.424,292.016 234.59,296.683 236.5,301.5C 234.417,302.959 232.25,304.292 230,305.5C 229.421,304.072 229.588,302.738 230.5,301.5 Z"/></g>
<g><path style="opacity:1" fill="#910c11" d="M 345.5,287.5 C 346.791,287.263 347.791,287.596 348.5,288.5C 339.94,289.904 332.273,293.238 325.5,298.5C 324.358,297.174 323.024,296.174 321.5,295.5C 322.282,293.549 323.616,292.049 325.5,291C 331.844,288.074 338.511,286.907 345.5,287.5 Z"/></g>
<g><path style="opacity:1" fill="#930c12" d="M 197.5,288.5 C 203.362,290.955 209.362,293.122 215.5,295C 214.471,296.698 212.971,297.532 211,297.5C 205.338,297.245 200.505,295.245 196.5,291.5C 196.263,290.209 196.596,289.209 197.5,288.5 Z"/></g>
<g><path style="opacity:1" fill="#ec1c23" d="M 348.5,288.5 C 342.574,293.14 336.241,297.307 329.5,301C 326.881,300.917 324.214,300.75 321.5,300.5C 321.5,298.833 321.5,297.167 321.5,295.5C 323.024,296.174 324.358,297.174 325.5,298.5C 332.273,293.238 339.94,289.904 348.5,288.5 Z"/></g>
<g><path style="opacity:1" fill="#910c11" d="M 250.5,296.5 C 252.927,294.442 255.593,292.609 258.5,291C 264.199,290.688 269.866,290.188 275.5,289.5C 275.808,291.924 275.474,294.257 274.5,296.5C 266.514,293.927 258.514,293.927 250.5,296.5 Z"/></g>
<g><path style="opacity:1" fill="#c4c4c4" d="M 226.5,292.5 C 227.778,292.782 228.778,293.449 229.5,294.5C 230.674,295.514 231.34,296.847 231.5,298.5C 231.443,299.609 231.11,300.609 230.5,301.5C 229.209,301.737 228.209,301.404 227.5,300.5C 228.598,299.399 228.765,298.066 228,296.5C 227.583,295.244 226.75,294.577 225.5,294.5C 225.328,293.508 225.662,292.842 226.5,292.5 Z"/></g>
<g><path style="opacity:1" fill="#737373" d="M 225.5,294.5 C 226.75,294.577 227.583,295.244 228,296.5C 228.765,298.066 228.598,299.399 227.5,300.5C 227.167,300.5 226.833,300.5 226.5,300.5C 224.539,298.68 224.206,296.68 225.5,294.5 Z"/></g>
<g><path style="opacity:1" fill="#efe6e5" d="M 257.5,295.5 C 263.402,294.962 269.068,295.795 274.5,298C 266.808,299.966 259.141,299.966 251.5,298C 253.723,297.434 255.723,296.6 257.5,295.5 Z"/></g>
<g><path style="opacity:1" fill="#efe6e5" d="M 290.5,296.5 C 289.078,296.709 287.745,297.209 286.5,298C 288.473,298.495 290.473,298.662 292.5,298.5C 288.628,299.56 284.628,299.393 280.5,298C 283.311,297.089 286.144,296.256 289,295.5C 289.765,295.57 290.265,295.903 290.5,296.5 Z"/></g>
<g><path style="opacity:1" fill="#910c11" d="M 194.5,296.5 C 196.179,296.892 197.846,297.392 199.5,298C 197.636,299.431 195.636,300.597 193.5,301.5C 194.038,299.883 194.371,298.216 194.5,296.5 Z"/></g>
<g><path style="opacity:1" fill="#910c11" d="M 250.5,296.5 C 250.36,298.124 251.027,299.29 252.5,300C 260.202,300.731 267.869,300.564 275.5,299.5C 275.5,301.5 275.5,303.5 275.5,305.5C 268.32,303.538 260.986,303.038 253.5,304C 252.643,304.689 251.977,305.522 251.5,306.5C 247.555,307.491 243.555,307.824 239.5,307.5C 237.708,306.691 235.708,306.191 233.5,306C 238.898,302.302 244.565,299.136 250.5,296.5 Z"/></g>
<g><path style="opacity:1" fill="#910c11" d="M 258.5,296.5 C 262.637,296.146 266.637,296.646 270.5,298C 265.5,298.667 260.5,298.667 255.5,298C 256.737,297.768 257.737,297.268 258.5,296.5 Z"/></g>
<g><path style="opacity:1" fill="#910c11" d="M 290.5,296.5 C 291.5,296.833 292.167,297.5 292.5,298.5C 290.473,298.662 288.473,298.495 286.5,298C 287.745,297.209 289.078,296.709 290.5,296.5 Z"/></g>
<g><path style="opacity:1" fill="#000000" d="M 231.5,298.5 C 232.885,299.947 232.552,300.947 230.5,301.5C 231.11,300.609 231.443,299.609 231.5,298.5 Z"/></g>
<g><path style="opacity:1" fill="#910c11" d="M 208.5,299.5 C 211.247,299.187 213.914,299.52 216.5,300.5C 213.737,304.248 210.737,304.415 207.5,301C 208.056,300.617 208.389,300.117 208.5,299.5 Z"/></g>
<g><path style="opacity:1" fill="#f9a884" d="M 319.5,302.5 C 321.288,302.215 322.955,302.548 324.5,303.5C 321.754,305.623 318.921,307.623 316,309.5C 315.202,307.741 315.369,306.074 316.5,304.5C 317.739,304.058 318.739,303.391 319.5,302.5 Z"/></g>
<g><path style="opacity:1" fill="#e4beb9" d="M 254.5,304.5 C 261.391,303.901 268.058,304.735 274.5,307C 267.167,307.667 259.833,307.667 252.5,307C 253.381,306.292 254.047,305.458 254.5,304.5 Z"/></g>
<g><path style="opacity:1" fill="#efe6e5" d="M 291.5,307.5 C 278.559,307.656 278.726,306.656 292,304.5C 293.5,304.667 295,304.833 296.5,305C 293.833,305.333 291.167,305.667 288.5,306C 289.737,306.232 290.737,306.732 291.5,307.5 Z"/></g>
<g><path style="opacity:1" fill="#fefffe" d="M 239.5,307.5 C 256.833,308.833 274.167,308.833 291.5,307.5C 293.735,307.205 295.735,307.539 297.5,308.5C 294.627,308.802 291.961,309.469 289.5,310.5C 284.637,310.181 279.97,310.514 275.5,311.5C 260.479,311.138 245.479,310.471 230.5,309.5C 230.082,308.778 229.416,308.278 228.5,308C 232.152,307.501 235.818,307.335 239.5,307.5 Z"/></g>
<g><path style="opacity:1" fill="#474747" d="M 297.5,308.5 C 300.613,311.365 304.279,313.198 308.5,314C 297.765,320.025 287.432,326.525 277.5,333.5C 276.033,334.292 274.7,334.292 273.5,333.5C 273.808,332.692 274.308,332.025 275,331.5C 275.637,323.595 275.471,321.928 274.5,326.5C 272.278,326.178 270.444,326.845 269,328.5C 268.728,331.254 268.228,333.921 267.5,336.5C 266.778,336.918 266.278,337.584 266,338.5C 264.731,337.095 264.231,335.429 264.5,333.5C 262.143,333.337 259.81,333.503 257.5,334C 256.874,334.75 256.374,335.584 256,336.5C 250.313,331.572 243.813,328.072 236.5,326C 232.124,321.749 229.457,316.582 228.5,310.5C 228.957,309.702 229.624,309.369 230.5,309.5C 245.479,310.471 260.479,311.138 275.5,311.5C 280.235,312.325 284.902,311.992 289.5,310.5C 291.961,309.469 294.627,308.802 297.5,308.5 Z"/></g>
<g><path style="opacity:1" fill="#000000" d="M 275.5,311.5 C 279.97,310.514 284.637,310.181 289.5,310.5C 284.902,311.992 280.235,312.325 275.5,311.5 Z"/></g>
<g><path style="opacity:1" fill="#910c11" d="M 194.5,311.5 C 197.473,312.987 200.473,314.487 203.5,316C 200.228,316.437 198.561,318.27 198.5,321.5C 195.083,319.164 193.749,315.831 194.5,311.5 Z"/></g>
<g><path style="opacity:1" fill="#000000" d="M 236.5,313.5 C 236.56,312.957 236.893,312.624 237.5,312.5C 240.788,314.428 244.121,316.261 247.5,318C 243.534,317.396 239.867,315.896 236.5,313.5 Z"/></g>
<g><path style="opacity:1" fill="#910c11" d="M 218.5,342.5 C 212.492,336.874 207.159,330.541 202.5,323.5C 204.184,322.85 205.517,321.85 206.5,320.5C 210.244,317.85 214.411,315.85 219,314.5C 219.667,315.167 219.667,315.833 219,316.5C 216.297,319.538 213.297,322.205 210,324.5C 209.541,327.93 210.541,330.93 213,333.5C 216.37,335.674 218.203,338.674 218.5,342.5 Z"/></g>
<g><path style="opacity:1" fill="#000000" d="M 293.5,315.5 C 295.549,315.706 295.883,316.539 294.5,318C 288.096,321.735 282.263,326.235 277,331.5C 277.472,327.982 279.306,325.149 282.5,323C 286.345,320.637 290.011,318.137 293.5,315.5 Z"/></g>
<g><path style="opacity:1" fill="#f9a884" d="M 311.5,343.5 C 309.913,340.732 308.08,338.065 306,335.5C 305.393,331.463 305.56,327.463 306.5,323.5C 308.268,327.044 309.102,331.044 309,335.5C 310.667,337.833 312.333,340.167 314,342.5C 313.673,339.458 312.34,336.791 310,334.5C 309.8,330.247 309.3,326.08 308.5,322C 309.253,320.513 310.086,320.346 311,321.5C 310.965,328.739 313.632,334.739 319,339.5C 316.561,335.956 314.561,331.956 313,327.5C 312.097,323.967 312.43,320.633 314,317.5C 315.081,321.092 316.081,324.759 317,328.5C 319.391,331.597 322.224,333.763 325.5,335C 322.296,332.131 319.463,328.965 317,325.5C 316.182,322.773 316.348,320.106 317.5,317.5C 318.167,317.167 318.833,316.833 319.5,316.5C 320.887,319.492 322.554,322.325 324.5,325C 327.204,326.846 330.204,328.013 333.5,328.5C 334.848,330.611 334.515,332.445 332.5,334C 327.167,337.333 321.833,340.667 316.5,344C 314.803,344.384 313.137,344.218 311.5,343.5 Z"/></g>
<g><path style="opacity:1" fill="#fefffe" d="M 347.5,316.5 C 349.104,317.287 349.771,318.62 349.5,320.5C 345.421,320.466 344.754,319.133 347.5,316.5 Z"/></g>
<g><path style="opacity:1" fill="#000000" d="M 239.5,320.5 C 242.505,320.215 245.505,320.715 248.5,322C 245.722,323.392 242.722,323.892 239.5,323.5C 239.5,322.5 239.5,321.5 239.5,320.5 Z"/></g>
<g><path style="opacity:1" fill="#323bc8" d="M 342.5,320.5 C 344.908,321.315 345.741,322.981 345,325.5C 342.36,327.524 339.527,327.857 336.5,326.5C 338.827,324.839 340.827,322.839 342.5,320.5 Z"/></g>
<g><path style="opacity:1" fill="#000000" d="M 277.5,333.5 C 276.365,335.213 274.698,335.88 272.5,335.5C 272.694,332.67 273.361,330.004 274.5,327.5C 272.61,327.297 271.11,327.963 270,329.5C 270.03,332.361 269.197,334.695 267.5,336.5C 268.228,333.921 268.728,331.254 269,328.5C 270.444,326.845 272.278,326.178 274.5,326.5C 275.471,321.928 275.637,323.595 275,331.5C 274.308,332.025 273.808,332.692 273.5,333.5C 274.7,334.292 276.033,334.292 277.5,333.5 Z"/></g>
<g><path style="opacity:1" fill="#b77956" d="M 306.5,323.5 C 305.778,323.918 305.278,324.584 305,325.5C 304.501,329.152 304.335,332.818 304.5,336.5C 298.581,340.083 293.248,344.416 288.5,349.5C 286.406,350.518 284.406,351.518 282.5,352.5C 281.078,352.709 279.745,353.209 278.5,354C 277.695,355.972 276.361,357.472 274.5,358.5C 273.846,360.115 273.346,361.782 273,363.5C 269.368,360.87 266.035,357.87 263,354.5C 262.251,353.365 262.417,352.365 263.5,351.5C 264.401,355.2 266.401,356.2 269.5,354.5C 269.5,353.167 270.167,352.5 271.5,352.5C 273.027,352.573 274.027,351.906 274.5,350.5C 277.792,348.542 280.792,346.209 283.5,343.5C 285.819,343.008 287.819,342.008 289.5,340.5C 291.567,340.468 292.9,339.468 293.5,337.5C 293.253,336.287 292.586,335.62 291.5,335.5C 291.44,334.957 291.107,334.624 290.5,334.5C 287.971,335.96 285.304,336.46 282.5,336C 290.41,331.762 298.076,327.095 305.5,322C 307.635,321.395 307.969,321.895 306.5,323.5 Z"/></g>
<g><path style="opacity:1" fill="#c2c3c2" d="M 277.5,333.5 C 278.496,333.586 279.329,333.252 280,332.5C 280.138,335.469 281.638,337.135 284.5,337.5C 286.978,337.228 289.311,336.562 291.5,335.5C 291.804,336.15 292.137,336.817 292.5,337.5C 291.23,338.288 290.23,339.288 289.5,340.5C 286.911,340.461 284.911,341.461 283.5,343.5C 279.637,344.694 276.637,347.027 274.5,350.5C 272.973,350.427 271.973,351.094 271.5,352.5C 270.167,352.5 269.5,353.167 269.5,354.5C 265.782,354.633 264.782,353.133 266.5,350C 266.561,348.289 265.894,346.956 264.5,346C 262.285,345.83 260.285,345.163 258.5,344C 261.265,341.034 260.932,338.367 257.5,336C 259.25,334.681 261.25,334.181 263.5,334.5C 262.756,337.95 264.09,339.616 267.5,339.5C 267.5,338.5 267.5,337.5 267.5,336.5C 269.197,334.695 270.03,332.361 270,329.5C 271.11,327.963 272.61,327.297 274.5,327.5C 273.361,330.004 272.694,332.67 272.5,335.5C 274.698,335.88 276.365,335.213 277.5,333.5 Z"/></g>
<g><path style="opacity:1" fill="#fefffe" d="M 237.5,330.5 C 238.892,329.478 240.225,329.811 241.5,331.5C 241,331.833 240.5,332.167 240,332.5C 238.989,331.944 238.156,331.278 237.5,330.5 Z"/></g>
<g><path style="opacity:1" fill="#fefffe" d="M 234.5,330.5 C 235.756,330.461 236.756,330.961 237.5,332C 235.833,334 234.167,334 232.5,332C 233.416,331.722 234.082,331.222 234.5,330.5 Z"/></g>
<g><path style="opacity:1" fill="#313ac3" d="M 230.5,354.5 C 227.833,352.5 225.5,350.167 223.5,347.5C 223.461,346.244 223.961,345.244 225,344.5C 226.331,346.996 228.164,348.996 230.5,350.5C 231.167,350.5 231.5,350.833 231.5,351.5C 232.99,353.28 234.99,353.946 237.5,353.5C 237.663,351.143 237.497,348.81 237,346.5C 233.93,344.553 231.43,342.053 229.5,339C 230.667,337.833 231.833,336.667 233,335.5C 234.384,339.758 236.884,343.258 240.5,346C 246.327,347.502 248.494,345.336 247,339.5C 245.167,337.667 243.333,335.833 241.5,334C 241.998,332.842 242.831,332.009 244,331.5C 249.093,334.258 253.927,337.425 258.5,341C 252.302,347.532 245.802,353.699 239,359.5C 237.133,361.808 236.133,364.475 236,367.5C 233.205,365.707 230.705,363.54 228.5,361C 229.793,360.51 231.127,360.343 232.5,360.5C 232.741,358.102 232.074,356.102 230.5,354.5 Z"/></g>
<g><path style="opacity:1" fill="#fefffe" d="M 229.5,332.5 C 230.756,332.461 231.756,332.961 232.5,334C 226.636,340.167 225.636,339.667 229.5,332.5 Z"/></g>
<g><path style="opacity:1" fill="#fefffe" d="M 237.5,333.5 C 241.442,335.442 244.442,338.442 246.5,342.5C 245.622,344.939 243.955,345.772 241.5,345C 237.764,342.341 235.431,338.841 234.5,334.5C 235.791,334.737 236.791,334.404 237.5,333.5 Z"/></g>
<g><path style="opacity:1" fill="#000000" d="M 237.5,335.5 C 239.797,336.835 241.797,338.668 243.5,341C 241.583,340.973 239.916,340.139 238.5,338.5C 237.614,337.675 237.281,336.675 237.5,335.5 Z"/></g>
<g><path style="opacity:1" fill="#000000" d="M 291.5,335.5 C 292.586,335.62 293.253,336.287 293.5,337.5C 292.9,339.468 291.567,340.468 289.5,340.5C 290.23,339.288 291.23,338.288 292.5,337.5C 292.137,336.817 291.804,336.15 291.5,335.5 Z"/></g>
<g><path style="opacity:1" fill="#fefffe" d="M 304.5,336.5 C 305.782,337.708 305.782,339.042 304.5,340.5C 299.355,343.811 295.022,347.978 291.5,353C 292.167,353.667 292.833,353.667 293.5,353C 296.743,347.734 301.076,344.068 306.5,342C 303.882,344.106 301.882,346.606 300.5,349.5C 297.397,351.423 294.397,353.59 291.5,356C 289.553,356.991 287.553,357.325 285.5,357C 287.009,354.494 288.509,351.994 290,349.5C 295.074,345.25 299.907,340.917 304.5,336.5 Z"/></g>
<g><path style="opacity:1" fill="#7e7f7e" d="M 329.5,434.5 C 327.496,431.34 326.329,427.673 326,423.5C 323.425,406.739 321.092,390.072 319,373.5C 317.499,371.416 315.499,370.083 313,369.5C 310.348,371.32 307.848,373.32 305.5,375.5C 304.33,371.362 305.664,367.862 309.5,365C 313.456,363.882 315.789,361.382 316.5,357.5C 315.448,357.351 314.448,357.517 313.5,358C 310.642,361.598 306.976,363.265 302.5,363C 307.732,360.367 309.565,356.201 308,350.5C 304.46,347.106 304.794,344.106 309,341.5C 309.708,342.381 310.542,343.047 311.5,343.5C 313.301,348.475 316.134,352.808 320,356.5C 319.492,352.978 317.992,349.812 315.5,347C 320.677,343.818 325.844,340.651 331,337.5C 338.087,342.681 341.087,349.681 340,358.5C 332.909,382.035 330.076,406.035 331.5,430.5C 331.415,432.333 330.748,433.666 329.5,434.5 Z"/></g>
<g><path style="opacity:1" fill="#fefffe" d="M 224.5,341.5 C 223.597,338.903 224.264,338.403 226.5,340C 225.956,340.717 225.289,341.217 224.5,341.5 Z"/></g>
<g><path style="opacity:1" fill="#000000" d="M 276.5,338.5 C 277.043,338.56 277.376,338.893 277.5,339.5C 276.24,340.382 275.074,341.382 274,342.5C 273.814,344.9 273.314,347.234 272.5,349.5C 271.541,346.706 269.875,343.873 267.5,341C 270.201,341.031 271.701,342.531 272,345.5C 272.145,342.207 273.645,339.874 276.5,338.5 Z"/></g>
<g><path style="opacity:1" fill="#fefffe" d="M 231.5,351.5 C 231.5,350.833 231.167,350.5 230.5,350.5C 229.081,347.9 227.415,345.4 225.5,343C 226.354,341.978 227.354,341.145 228.5,340.5C 230.673,343.172 233.173,345.506 236,347.5C 236.494,349.134 236.66,350.801 236.5,352.5C 234.784,352.371 233.117,352.038 231.5,351.5 Z"/></g>
<g><path style="opacity:1" fill="#000000" d="M 289.5,340.5 C 287.819,342.008 285.819,343.008 283.5,343.5C 284.911,341.461 286.911,340.461 289.5,340.5 Z"/></g>
<g><path style="opacity:1" fill="#fefffe" d="M 224.5,341.5 C 224.26,344.293 223.26,344.793 221.5,343C 222.244,341.961 223.244,341.461 224.5,341.5 Z"/></g>
<g><path style="opacity:1" fill="#000000" d="M 227.5,342.5 C 230.79,344.316 233.456,346.816 235.5,350C 231.798,348.804 229.131,346.304 227.5,342.5 Z"/></g>
<g><path style="opacity:1" fill="#000000" d="M 283.5,343.5 C 280.792,346.209 277.792,348.542 274.5,350.5C 276.637,347.027 279.637,344.694 283.5,343.5 Z"/></g>
<g><path style="opacity:1" fill="#fefffe" d="M 221.5,347.5 C 219.24,346.762 219.073,345.762 221,344.5C 222.728,345.352 222.895,346.352 221.5,347.5 Z"/></g>
<g><path style="opacity:1" fill="#f9a884" d="M 256.5,345.5 C 258.801,346.06 261.134,346.56 263.5,347C 266.194,349.552 265.527,350.719 261.5,350.5C 261.34,352.199 261.506,353.866 262,355.5C 265.695,360.729 270.528,364.062 276.5,365.5C 276.833,367.5 277.167,369.5 277.5,371.5C 276.127,371.343 274.793,371.51 273.5,372C 268.667,375.5 263.833,379 259,382.5C 254.344,381.839 250.344,379.839 247,376.5C 244.503,372.306 241.67,368.472 238.5,365C 239.624,362.589 241.124,360.422 243,358.5C 248.003,354.664 252.503,350.33 256.5,345.5 Z"/></g>
<g><path style="opacity:1" fill="#4e4f4e" d="M 300.5,349.5 C 301.794,348.71 302.961,347.71 304,346.5C 309.297,353.015 308.297,358.348 301,362.5C 297.788,361.145 294.622,359.645 291.5,358C 295,355.666 298,352.832 300.5,349.5 Z"/></g>
<g><path style="opacity:1" fill="#fefffe" d="M 221.5,347.5 C 222.167,347.5 222.833,347.5 223.5,347.5C 225.5,350.167 227.833,352.5 230.5,354.5C 230.421,355.93 230.754,357.264 231.5,358.5C 230.635,359.583 229.635,359.749 228.5,359C 226.333,356.833 224.167,354.667 222,352.5C 221.506,350.866 221.34,349.199 221.5,347.5 Z"/></g>
<g><path style="opacity:1" fill="#000000" d="M 222.5,349.5 C 225.719,351.528 227.886,354.195 229,357.5C 226.218,355.229 224.051,352.563 222.5,349.5 Z"/></g>
<g><path style="opacity:1" fill="#000000" d="M 274.5,350.5 C 274.027,351.906 273.027,352.573 271.5,352.5C 271.973,351.094 272.973,350.427 274.5,350.5 Z"/></g>
<g><path style="opacity:1" fill="#fec90d" d="M 282.5,352.5 C 283.873,352.343 285.207,352.51 286.5,353C 285.57,354.194 284.903,355.527 284.5,357C 286.003,358.921 286.669,361.088 286.5,363.5C 283.587,364.558 280.754,365.891 278,367.5C 277.333,366.5 277.333,365.5 278,364.5C 281.15,361.893 281.317,359.06 278.5,356C 280.093,355.051 281.426,353.885 282.5,352.5 Z"/></g>
<g><path style="opacity:1" fill="#fefffe" d="M 275.5,358.5 C 276.364,359.688 277.364,360.855 278.5,362C 278,362.5 277.5,363 277,363.5C 276.5,362.333 275.667,361.5 274.5,361C 275.252,360.329 275.586,359.496 275.5,358.5 Z"/></g>
<g><path style="opacity:1" fill="#7e7f7e" d="M 223.5,359.5 C 227.332,363.164 231.332,366.664 235.5,370C 230.748,372.748 226.581,376.248 223,380.5C 222.501,373.486 222.668,366.486 223.5,359.5 Z"/></g>
<g><path style="opacity:1" fill="#6c6d6c" d="M 329.5,434.5 C 318.651,439.239 309.818,436.572 303,426.5C 304.008,409.534 304.841,392.534 305.5,375.5C 307.848,373.32 310.348,371.32 313,369.5C 315.499,370.083 317.499,371.416 319,373.5C 321.092,390.072 323.425,406.739 326,423.5C 326.329,427.673 327.496,431.34 329.5,434.5 Z"/></g>
<g><path style="opacity:1" fill="#b87a56" d="M 240.5,370.5 C 243.302,373.476 245.969,376.642 248.5,380C 252.035,381.706 255.702,383.04 259.5,384C 255.337,392.482 251.17,400.982 247,409.5C 245,408.833 243,408.167 241,407.5C 235.324,400.139 230.157,392.473 225.5,384.5C 226.897,381.594 228.897,379.094 231.5,377C 234.921,375.301 237.921,373.135 240.5,370.5 Z"/></g>
<g><path style="opacity:1" fill="#7e7f7e" d="M 221.5,386.5 C 227.251,394.765 233.251,402.932 239.5,411C 242.801,411.997 246.134,412.33 249.5,412C 251.274,408.985 251.774,409.485 251,413.5C 248.652,420.042 245.818,426.376 242.5,432.5C 231.65,437.16 224.484,433.826 221,422.5C 218.754,418.082 217.254,413.416 216.5,408.5C 216.466,405.567 217.299,402.9 219,400.5C 219.624,405.061 219.29,408.728 218,411.5C 219.744,415.577 221.577,419.577 223.5,423.5C 223.833,423 224.167,422.5 224.5,422C 223.162,418.65 221.829,415.316 220.5,412C 221.483,403.585 221.817,395.085 221.5,386.5 Z"/></g>
<g><path style="opacity:1" fill="#282828" d="M 306.5,435.5 C 311.872,439.676 317.872,441.01 324.5,439.5C 327.363,450.422 331.03,461.089 335.5,471.5C 331.562,479.331 325.895,480.665 318.5,475.5C 316.137,469.906 313.304,464.573 310,459.5C 307.075,457.286 304.241,454.953 301.5,452.5C 303.56,447.324 305.226,441.657 306.5,435.5 Z"/></g>
</svg>
