<?xml version="1.0" encoding="UTF-8"?>
<!DOCTYPE svg PUBLIC "-//W3C//DTD SVG 1.1//EN" "http://www.w3.org/Graphics/SVG/1.1/DTD/svg11.dtd">
<svg xmlns="http://www.w3.org/2000/svg" version="1.1" width="278px" height="344px" style="shape-rendering:geometricPrecision; text-rendering:geometricPrecision; image-rendering:optimizeQuality; fill-rule:evenodd; clip-rule:evenodd" xmlns:xlink="http://www.w3.org/1999/xlink">
<g><path style="opacity:1" fill="#fefffe" d="M 144.5,75.5 C 148.182,75.3347 151.848,75.5014 155.5,76C 156,76.5 156.5,77 157,77.5C 157.667,82.5 157.667,87.5 157,92.5C 153.975,96.0239 151.142,99.6906 148.5,103.5C 149.815,105.316 151.315,106.983 153,108.5C 153.167,110.667 153.333,112.833 153.5,115C 152.617,122.583 151.283,130.083 149.5,137.5C 155.244,137.081 160.578,138.248 165.5,141C 167.345,143.851 168.511,147.018 169,150.5C 178.29,159.635 187.956,168.302 198,176.5C 199.13,183.232 199.63,190.065 199.5,197C 199.54,205.627 199.04,214.127 198,222.5C 203.074,224.525 208.241,226.359 213.5,228C 217.212,230.602 218.378,234.102 217,238.5C 215.878,242.493 214.378,246.326 212.5,250C 210.801,250.958 208.967,251.458 207,251.5C 202.422,250.628 198.255,248.795 194.5,246C 188.98,240.979 183.314,236.146 177.5,231.5C 177.167,232.5 176.833,233.5 176.5,234.5C 182.297,260.653 187.131,286.986 191,313.5C 194.664,316.682 197.164,320.516 198.5,325C 198.646,327.034 197.98,328.701 196.5,330C 189.866,331.748 183.2,331.915 176.5,330.5C 174.86,327.027 172.36,324.36 169,322.5C 168.222,319.816 166.889,317.483 165,315.5C 164.9,291.203 157.234,269.537 142,250.5C 138.329,251.502 135.329,253.502 133,256.5C 132.667,264.833 132.333,273.167 132,281.5C 128.379,282.913 124.879,282.58 121.5,280.5C 121.167,281 120.833,281.5 120.5,282C 120.935,290.821 121.935,299.488 123.5,308C 123.428,314.022 123.261,320.189 123,326.5C 118.564,329.693 113.564,331.027 108,330.5C 104.082,331.041 100.749,330.041 98,327.5C 99.0442,320.985 99.8776,314.319 100.5,307.5C 99.8844,297.497 99.2177,287.497 98.5,277.5C 99.2222,268.449 100.222,259.449 101.5,250.5C 93.7,242.416 93.5334,234.083 101,225.5C 101.29,223.048 101.956,220.715 103,218.5C 106.265,216.117 109.765,214.117 113.5,212.5C 114.432,209.47 115.765,206.637 117.5,204C 111.305,202.727 104.972,201.727 98.5,201C 96.2097,198.921 94.5431,196.421 93.5,193.5C 83.976,188.23 73.976,184.397 63.5,182C 62.2567,180.846 61.2567,179.512 60.5,178C 56.1745,178.011 53.1745,176.011 51.5,172C 39.2891,165.728 26.9558,159.728 14.5,154C 9.57691,150.323 7.24358,145.49 7.5,139.5C 10.8499,139.335 14.1832,139.502 17.5,140C 44.2629,152.715 71.2629,164.882 98.5,176.5C 100.775,172.47 102.608,168.136 104,163.5C 105.626,160.872 107.626,158.539 110,156.5C 110.367,150.796 111.034,145.13 112,139.5C 112.5,139 113,138.5 113.5,138C 108.817,137.601 107.317,135.101 109,130.5C 111.911,127.01 114.578,123.344 117,119.5C 117.493,111.042 119.993,103.209 124.5,96C 127.959,94.2945 131.459,94.1278 135,95.5C 137.319,88.3479 140.486,81.6813 144.5,75.5 Z"/></g>
<g><path style="opacity:1" fill="#060606" d="M 193.5,224.5 C 193.167,224.5 192.833,224.5 192.5,224.5C 193.299,221.57 193.632,218.57 193.5,215.5C 189.325,215.812 185.325,215.145 181.5,213.5C 179.787,213.879 178.787,214.879 178.5,216.5C 177.508,216.672 176.842,216.338 176.5,215.5C 177.479,214.235 178.479,212.901 179.5,211.5C 178.104,210.148 177.437,208.481 177.5,206.5C 182.067,195.667 179.567,187.001 170,180.5C 168.263,185.212 166.43,189.878 164.5,194.5C 167.688,201.405 171.354,208.072 175.5,214.5C 173.128,212.852 171.794,213.519 171.5,216.5C 172.374,219.535 173.374,222.535 174.5,225.5C 174.656,228.066 174.322,230.566 173.5,233C 179.333,258.667 184.333,284.5 188.5,310.5C 188.471,312.029 187.804,313.196 186.5,314C 201.213,326.019 198.88,331.019 179.5,329C 177.361,325.527 174.527,322.694 171,320.5C 169.965,317.204 168.465,314.204 166.5,311.5C 166.842,300.217 165.008,289.217 161,278.5C 156.728,266.929 150.728,256.595 143,247.5C 138.228,248.551 134.228,250.885 131,254.5C 130.667,262.833 130.333,271.167 130,279.5C 124.744,280.598 122.077,278.265 122,272.5C 121.439,274.725 120.439,276.725 119,278.5C 119.099,287.484 119.432,296.484 120,305.5C 122.015,307.478 121.848,309.312 119.5,311C 121.414,315.304 121.914,319.804 121,324.5C 118.958,326.604 116.458,327.771 113.5,328C 109.833,328.667 106.167,328.667 102.5,328C 100.876,326.883 99.8757,325.383 99.5,323.5C 100.651,320.535 102.318,317.869 104.5,315.5C 102.239,313.11 101.906,310.443 103.5,307.5C 99.666,288.496 99.666,269.496 103.5,250.5C 101.096,246.745 99.0955,242.745 97.5,238.5C 100.278,232.611 102.778,226.611 105,220.5C 108.265,218.117 111.765,216.117 115.5,214.5C 117.167,210.5 118.833,206.5 120.5,202.5C 117.331,199.819 113.831,199.152 110,200.5C 102.526,201.585 97.6929,198.585 95.5,191.5C 85.976,186.23 75.976,182.397 65.5,180C 63.8544,176.196 61.1878,174.53 57.5,175C 56.1667,173.333 54.8333,171.667 53.5,170C 41.2891,163.728 28.9558,157.728 16.5,152C 12.7639,149.341 10.4306,145.841 9.5,141.5C 11.5273,141.338 13.5273,141.505 15.5,142C 42.8368,154.919 70.3368,167.419 98,179.5C 99.3333,178.833 100.667,178.167 102,177.5C 103.066,169.364 106.733,162.698 113,157.5C 112.631,154.21 112.631,150.877 113,147.5C 113.75,146.874 114.584,146.374 115.5,146C 112.808,143.368 113.141,141.034 116.5,139C 115.663,137.989 115.33,136.822 115.5,135.5C 113.335,135.884 111.668,135.217 110.5,133.5C 113.667,129.167 116.833,124.833 120,120.5C 119.706,112.683 121.706,105.35 126,98.5C 130.003,95.4987 133.336,96.1653 136,100.5C 138.275,93.674 140.942,87.0073 144,80.5C 147.39,76.9676 151.057,76.6342 155,79.5C 155.667,83.1667 155.667,86.8333 155,90.5C 151.118,94.7139 147.618,99.2139 144.5,104C 148.574,106.706 150.908,110.373 151.5,115C 150.407,122.63 148.741,130.13 146.5,137.5C 146.709,138.086 147.043,138.586 147.5,139C 153.218,139.074 158.552,140.407 163.5,143C 165.345,145.851 166.511,149.018 167,152.5C 176.29,161.635 185.956,170.302 196,178.5C 197.623,190.07 197.957,201.736 197,213.5C 196.239,217.395 195.072,221.062 193.5,224.5 Z"/></g>
<g><path style="opacity:1" fill="#fefffe" d="M 147.5,79.5 C 149.467,79.2606 151.301,79.5939 153,80.5C 153.667,83.5 153.667,86.5 153,89.5C 148.592,94.0728 144.759,99.0728 141.5,104.5C 140.205,103.902 138.872,103.402 137.5,103C 139.965,94.7636 143.298,86.9302 147.5,79.5 Z"/></g>
<g><path style="opacity:1" fill="#fec90d" d="M 124.5,104.5 C 125.695,104.866 126.361,105.699 126.5,107C 125.472,110.221 124.306,113.388 123,116.5C 122.13,115.892 121.63,115.059 121.5,114C 122.816,110.902 123.816,107.735 124.5,104.5 Z"/></g>
<g><path style="opacity:1" fill="#fef200" d="M 141.5,106.5 C 141.747,108.858 141.081,110.858 139.5,112.5C 135,112.836 133.167,110.836 134,106.5C 136.494,103.914 138.994,103.914 141.5,106.5 Z"/></g>
<g><path style="opacity:1" fill="#393939" d="M 144.5,135.5 C 141.603,134.871 138.936,133.871 136.5,132.5C 136.389,131.883 136.056,131.383 135.5,131C 137.593,124.986 138.926,118.82 139.5,112.5C 141.081,110.858 141.747,108.858 141.5,106.5C 141.897,105.475 142.563,105.308 143.5,106C 146.784,108.259 148.784,111.259 149.5,115C 148.387,122.093 146.72,128.927 144.5,135.5 Z"/></g>
<g><path style="opacity:1" fill="#454010" d="M 135.5,106.5 C 138.166,106.066 139.333,107.066 139,109.5C 135.403,111.066 134.237,110.066 135.5,106.5 Z"/></g>
<g><path style="opacity:1" fill="#fefffe" d="M 131.5,110.5 C 132.478,110.811 133.145,111.478 133.5,112.5C 129.504,118.668 124.504,123.501 118.5,127C 118.167,126.667 117.833,126.333 117.5,126C 122.744,121.261 127.41,116.095 131.5,110.5 Z"/></g>
<g><path style="opacity:1" fill="#9c6547" d="M 136.5,132.5 C 138.936,133.871 141.603,134.871 144.5,135.5C 144.5,136.833 144.5,138.167 144.5,139.5C 139.737,139.774 135.07,139.441 130.5,138.5C 129.603,137.402 128.77,137.402 128,138.5C 127.51,137.207 127.343,135.873 127.5,134.5C 126.5,134.5 125.5,134.5 124.5,134.5C 124.923,137.288 123.923,139.288 121.5,140.5C 120.141,139.376 119.141,138.042 118.5,136.5C 117.62,135.469 118.12,134.802 120,134.5C 122.078,135.943 122.911,135.276 122.5,132.5C 127.222,131.806 131.888,131.806 136.5,132.5 Z"/></g>
<g><path style="opacity:1" fill="#fabc94" d="M 130.5,138.5 C 130.167,139.167 129.833,139.833 129.5,140.5C 128.178,140.67 127.011,140.337 126,139.5C 125.005,140.066 124.172,140.733 123.5,141.5C 121.847,141.66 120.514,142.326 119.5,143.5C 115.03,143.97 114.53,142.97 118,140.5C 118.49,139.207 118.657,137.873 118.5,136.5C 119.141,138.042 120.141,139.376 121.5,140.5C 123.923,139.288 124.923,137.288 124.5,134.5C 125.5,134.5 126.5,134.5 127.5,134.5C 127.343,135.873 127.51,137.207 128,138.5C 128.77,137.402 129.603,137.402 130.5,138.5 Z"/></g>
<g><path style="opacity:1" fill="#6681b8" d="M 129.5,140.5 C 135.167,140.5 140.833,140.5 146.5,140.5C 146.5,143.5 146.5,146.5 146.5,149.5C 139.86,150.346 133.193,151.013 126.5,151.5C 126.5,148.167 126.5,144.833 126.5,141.5C 127.791,141.737 128.791,141.404 129.5,140.5 Z"/></g>
<g><path style="opacity:1" fill="#fefffe" d="M 123.5,141.5 C 125.402,144.337 126.069,147.671 125.5,151.5C 124.5,151.5 123.5,151.5 122.5,151.5C 122.253,148.061 122.586,144.728 123.5,141.5 Z"/></g>
<g><path style="opacity:1" fill="#fefffe" d="M 147.5,141.5 C 148.5,141.5 149.5,141.5 150.5,141.5C 150.5,144.167 150.5,146.833 150.5,149.5C 149.5,149.5 148.5,149.5 147.5,149.5C 147.5,146.833 147.5,144.167 147.5,141.5 Z"/></g>
<g><path style="opacity:1" fill="#6681b8" d="M 151.5,141.5 C 158.618,141.145 162.952,144.312 164.5,151C 162.809,155.414 161.476,155.414 160.5,151C 157.607,149.851 154.607,149.351 151.5,149.5C 151.5,146.833 151.5,144.167 151.5,141.5 Z"/></g>
<g><path style="opacity:1" fill="#7e7f7e" d="M 10.5,143.5 C 11.2506,142.427 12.2506,142.26 13.5,143C 28.6203,149.727 43.6203,156.727 58.5,164C 57.0937,166.449 55.0937,167.449 52.5,167C 40.7419,160.787 28.7419,155.121 16.5,150C 14.2659,147.937 12.2659,145.771 10.5,143.5 Z"/></g>
<g><path style="opacity:1" fill="#6681b8" d="M 119.5,143.5 C 120.765,144.514 121.431,146.014 121.5,148C 120.616,151.491 118.949,154.658 116.5,157.5C 115.448,155.458 114.781,153.292 114.5,151C 116.342,148.65 118.009,146.15 119.5,143.5 Z"/></g>
<g><path style="opacity:1" fill="#91585b" d="M 151.5,162.5 C 150.391,162.557 149.391,162.89 148.5,163.5C 146.007,164.774 143.341,165.44 140.5,165.5C 139.292,164.766 137.959,164.433 136.5,164.5C 133.535,165.734 130.535,165.734 127.5,164.5C 126.391,164.557 125.391,164.89 124.5,165.5C 119.922,164.118 118.422,161.118 120,156.5C 120.5,155.333 121.333,154.5 122.5,154C 134.828,152.256 147.162,151.756 159.5,152.5C 160.068,155.588 160.068,158.588 159.5,161.5C 156.957,163.478 154.29,163.811 151.5,162.5 Z"/></g>
<g><path style="opacity:1" fill="#4987d1" d="M 164.5,153.5 C 173.645,162.983 183.478,171.649 194,179.5C 195.765,187.083 195.931,194.749 194.5,202.5C 190.168,205.051 186.001,204.718 182,201.5C 181.942,196.481 181.108,191.648 179.5,187C 181.5,186.667 183.5,186.333 185.5,186C 183.376,184.418 181.21,184.251 179,185.5C 176.344,182.678 173.344,180.345 170,178.5C 168.233,179.34 166.899,180.673 166,182.5C 165,181.833 164,181.167 163,180.5C 162.817,172.255 162.317,164.088 161.5,156C 162.942,155.623 163.942,154.79 164.5,153.5 Z"/></g>
<g><path style="opacity:1" fill="#4d8bd6" d="M 117.5,176.5 C 118.619,185.706 114.619,190.706 105.5,191.5C 103.117,191.363 100.783,191.029 98.5,190.5C 97.1968,187.645 97.1968,184.645 98.5,181.5C 100.614,180.966 102.448,179.966 104,178.5C 105.021,170.623 108.521,164.123 114.5,159C 115.448,158.517 116.448,158.351 117.5,158.5C 117.5,164.5 117.5,170.5 117.5,176.5 Z"/></g>
<g><path style="opacity:1" fill="#fefffe" d="M 151.5,162.5 C 151.232,164.099 151.566,165.432 152.5,166.5C 153.877,169.636 153.544,172.636 151.5,175.5C 150.479,174.099 149.479,172.765 148.5,171.5C 148.5,168.833 148.5,166.167 148.5,163.5C 149.391,162.89 150.391,162.557 151.5,162.5 Z"/></g>
<g><path style="opacity:1" fill="#503033" d="M 137.5,184.5 C 143.685,183.712 150.018,183.045 156.5,182.5C 156.976,178.007 157.642,173.673 158.5,169.5C 159.314,167.369 159.814,165.036 160,162.5C 160.167,166 160.333,169.5 160.5,173C 160.655,178.485 159.989,183.819 158.5,189C 147.225,190.576 135.892,190.909 124.5,190C 123.257,188.846 122.257,187.512 121.5,186C 127.016,185.827 132.349,185.327 137.5,184.5 Z"/></g>
<g><path style="opacity:1" fill="#000000" d="M 148.5,163.5 C 148.5,166.167 148.5,168.833 148.5,171.5C 147.835,169.631 147.169,167.631 146.5,165.5C 144.929,166.309 143.262,166.643 141.5,166.5C 141.5,167.5 141.5,168.5 141.5,169.5C 140.566,168.432 140.232,167.099 140.5,165.5C 143.341,165.44 146.007,164.774 148.5,163.5 Z"/></g>
<g><path style="opacity:1" fill="#8b5458" d="M 158.5,169.5 C 157.642,173.673 156.976,178.007 156.5,182.5C 150.018,183.045 143.685,183.712 137.5,184.5C 131.833,184.5 126.167,184.5 120.5,184.5C 119.878,177.836 119.712,171.169 120,164.5C 121,165.167 122,165.833 123,166.5C 123.181,169.695 123.681,172.695 124.5,175.5C 125.151,176.091 125.818,176.757 126.5,177.5C 127.182,176.757 127.849,176.091 128.5,175.5C 129.477,172.713 129.81,169.713 129.5,166.5C 131.5,166.5 133.5,166.5 135.5,166.5C 135.205,168.735 135.539,170.735 136.5,172.5C 139.98,176.447 141.647,175.447 141.5,169.5C 141.5,168.5 141.5,167.5 141.5,166.5C 143.262,166.643 144.929,166.309 146.5,165.5C 147.169,167.631 147.835,169.631 148.5,171.5C 149.479,172.765 150.479,174.099 151.5,175.5C 153.544,172.636 153.877,169.636 152.5,166.5C 153.841,164.88 155.674,163.88 158,163.5C 158.495,165.473 158.662,167.473 158.5,169.5 Z"/></g>
<g><path style="opacity:1" fill="#fec90d" d="M 69.5,171.5 C 68.8347,173.698 68.1681,176.031 67.5,178.5C 66.1552,177.653 65.1552,176.487 64.5,175C 56.382,173.637 55.0487,170.137 60.5,164.5C 63.8191,166.632 66.8191,168.965 69.5,171.5 Z"/></g>
<g><path style="opacity:1" fill="#fefffe" d="M 127.5,164.5 C 128.423,168.064 128.756,171.731 128.5,175.5C 127.849,176.091 127.182,176.757 126.5,177.5C 125.818,176.757 125.151,176.091 124.5,175.5C 124.5,172.167 124.5,168.833 124.5,165.5C 125.391,164.89 126.391,164.557 127.5,164.5 Z"/></g>
<g><path style="opacity:1" fill="#000000" d="M 127.5,164.5 C 130.535,165.734 133.535,165.734 136.5,164.5C 136.5,167.167 136.5,169.833 136.5,172.5C 135.539,170.735 135.205,168.735 135.5,166.5C 133.5,166.5 131.5,166.5 129.5,166.5C 129.81,169.713 129.477,172.713 128.5,175.5C 128.756,171.731 128.423,168.064 127.5,164.5 Z"/></g>
<g><path style="opacity:1" fill="#fefffe" d="M 136.5,164.5 C 137.959,164.433 139.292,164.766 140.5,165.5C 140.232,167.099 140.566,168.432 141.5,169.5C 141.647,175.447 139.98,176.447 136.5,172.5C 136.5,169.833 136.5,167.167 136.5,164.5 Z"/></g>
<g><path style="opacity:1" fill="#7e7f7e" d="M 94.5,183.5 C 86.7972,179.655 78.7972,176.321 70.5,173.5C 70.1667,172.833 69.8333,172.167 69.5,171.5C 70.1499,171.196 70.8165,170.863 71.5,170.5C 80.161,173.834 88.4944,177.667 96.5,182C 96.1639,183.03 95.4972,183.53 94.5,183.5 Z"/></g>
<g><path style="opacity:1" fill="#392419" d="M 70.5,173.5 C 78.7972,176.321 86.7972,179.655 94.5,183.5C 96.2432,185.126 96.7432,187.126 96,189.5C 87.555,184.745 78.7216,181.078 69.5,178.5C 69.2155,176.585 69.5489,174.919 70.5,173.5 Z"/></g>
<g><path style="opacity:1" fill="#24599b" d="M 117.5,176.5 C 118.828,181.637 119.328,186.97 119,192.5C 116.926,194.452 114.759,196.285 112.5,198C 108.818,198.222 105.152,197.889 101.5,197C 99.5494,195.266 98.5494,193.099 98.5,190.5C 100.783,191.029 103.117,191.363 105.5,191.5C 114.619,190.706 118.619,185.706 117.5,176.5 Z"/></g>
<g><path style="opacity:1" fill="#fefffe" d="M 176.5,215.5 C 176.5,214.833 176.167,214.5 175.5,214.5C 171.354,208.072 167.688,201.405 164.5,194.5C 166.43,189.878 168.263,185.212 170,180.5C 179.567,187.001 182.067,195.667 177.5,206.5C 177.437,208.481 178.104,210.148 179.5,211.5C 178.479,212.901 177.479,214.235 176.5,215.5 Z"/></g>
<g><path style="opacity:1" fill="#fefffe" d="M 162.5,183.5 C 165.902,184.558 166.402,186.558 164,189.5C 161.521,187.912 161.021,185.912 162.5,183.5 Z"/></g>
<g><path style="opacity:0" fill="#6681b8" d="M 170.5,185.5 C 174.257,186.767 176.424,189.434 177,193.5C 176.993,198.213 176.327,202.88 175,207.5C 172.212,205.588 170.879,202.921 171,199.5C 169.936,197.731 168.769,196.064 167.5,194.5C 168.704,191.556 169.704,188.556 170.5,185.5 Z"/></g>
<g><path style="opacity:1" fill="#4d8bd6" d="M 160.5,189.5 C 161.117,189.611 161.617,189.944 162,190.5C 162.226,193.095 162.726,195.595 163.5,198C 160.249,201.922 156.416,205.088 152,207.5C 147.593,202.803 147.426,197.97 151.5,193C 154.167,192.333 156.833,191.667 159.5,191C 160.056,190.617 160.389,190.117 160.5,189.5 Z"/></g>
<g><path style="opacity:1" fill="#fefffe" d="M 130.5,193.5 C 135.316,192.35 140.316,192.184 145.5,193C 143.927,196.778 142.427,200.611 141,204.5C 137.998,200.332 134.498,196.665 130.5,193.5 Z"/></g>
<g><path style="opacity:1" fill="#5a271a" d="M 144.5,212.5 C 142.726,218.432 140.56,224.432 138,230.5C 134.126,233.675 129.959,234.175 125.5,232C 126.056,231.617 126.389,231.117 126.5,230.5C 128.741,229.379 131.075,228.213 133.5,227C 135.364,224.312 137.364,221.812 139.5,219.5C 140.79,218.942 141.623,217.942 142,216.5C 141.805,208.492 143.305,200.825 146.5,193.5C 147.5,192.167 148.5,192.167 149.5,193.5C 146.73,199.581 145.064,205.914 144.5,212.5 Z"/></g>
<g><path style="opacity:1" fill="#4682cc" d="M 120.5,189.5 C 122.262,191.7 124.596,192.867 127.5,193C 129.684,195.016 131.684,197.183 133.5,199.5C 129.996,204.03 125.663,207.697 120.5,210.5C 120.167,210.333 119.833,210.167 119.5,210C 121.505,206.984 122.505,203.651 122.5,200C 121.975,196.459 121.308,192.959 120.5,189.5 Z"/></g>
<g><path style="opacity:1" fill="#fefffe" d="M 166.5,207.5 C 164.937,208.945 163.604,210.611 162.5,212.5C 161.735,212.923 160.902,213.257 160,213.5C 155.206,212.547 150.373,211.88 145.5,211.5C 145.144,208.436 145.977,205.769 148,203.5C 149.769,209.198 152.936,210.031 157.5,206C 159.667,203.833 161.833,201.667 164,199.5C 167.315,201.435 168.149,204.101 166.5,207.5 Z"/></g>
<g><path style="opacity:1" fill="#fefffe" d="M 134.5,200.5 C 138.12,203.31 138.286,206.31 135,209.5C 133.414,208.624 131.914,207.624 130.5,206.5C 131.467,204.21 132.8,202.21 134.5,200.5 Z"/></g>
<g><path style="opacity:1" fill="#fefffe" d="M 180.5,203.5 C 185.2,206.761 190.034,207.095 195,204.5C 195.667,207.167 195.667,209.833 195,212.5C 189.056,214.553 184.056,213.22 180,208.5C 179.36,206.735 179.527,205.068 180.5,203.5 Z"/></g>
<g><path style="opacity:1" fill="#99d9e9" d="M 139.5,219.5 C 137.364,221.812 135.364,224.312 133.5,227C 131.075,228.213 128.741,229.379 126.5,230.5C 115.652,228.97 112.985,223.47 118.5,214C 122.342,212.332 125.509,209.832 128,206.5C 130.638,209.317 133.638,211.65 137,213.5C 138.122,215.407 138.955,217.407 139.5,219.5 Z"/></g>
<g><path style="opacity:1" fill="#4d8bd6" d="M 138.5,207.5 C 139.496,207.414 140.329,207.748 141,208.5C 141.667,210.833 141.667,213.167 141,215.5C 139.859,213.391 138.359,211.558 136.5,210C 137.381,209.292 138.047,208.458 138.5,207.5 Z"/></g>
<g><path style="opacity:1" fill="#dd4a20" d="M 166.5,207.5 C 168.934,208.099 170.601,209.599 171.5,212C 169.742,219.731 168.408,227.565 167.5,235.5C 161.691,240.573 155.357,244.907 148.5,248.5C 147.026,246.863 145.192,245.863 143,245.5C 139.129,246.269 135.462,247.602 132,249.5C 125.925,248.784 120.425,246.784 115.5,243.5C 115.037,240.67 114.371,238.003 113.5,235.5C 113.18,232.102 113.513,228.768 114.5,225.5C 115.797,228.631 117.964,230.964 121,232.5C 121.953,235.432 122.453,238.432 122.5,241.5C 127.784,241.324 132.784,240.324 137.5,238.5C 139.104,237.713 139.771,236.38 139.5,234.5C 140.302,233.048 140.802,231.382 141,229.5C 142.791,232.35 143.958,235.35 144.5,238.5C 148.371,239.558 152.037,238.891 155.5,236.5C 158.96,235.125 162.46,233.791 166,232.5C 166.53,226.796 166.197,221.129 165,215.5C 163.955,214.627 163.122,213.627 162.5,212.5C 163.604,210.611 164.937,208.945 166.5,207.5 Z"/></g>
<g><path style="opacity:1" fill="#1d1e1d" d="M 144.5,212.5 C 150.391,213.989 156.391,215.156 162.5,216C 164.026,221.044 164.526,226.211 164,231.5C 157.53,232.724 151.03,232.557 144.5,231C 143.773,228.876 143.106,226.709 142.5,224.5C 144.145,220.675 144.812,216.675 144.5,212.5 Z"/></g>
<g><path style="opacity:1" fill="#41281b" d="M 175.5,214.5 C 176.167,214.5 176.5,214.833 176.5,215.5C 176.842,216.338 177.508,216.672 178.5,216.5C 183.139,219.155 187.806,221.821 192.5,224.5C 192.833,224.5 193.167,224.5 193.5,224.5C 193.369,225.376 193.702,226.043 194.5,226.5C 199.296,228.265 204.129,229.932 209,231.5C 210.03,231.836 210.53,232.503 210.5,233.5C 208.437,237.717 207.104,242.05 206.5,246.5C 203.243,245.538 200.243,244.038 197.5,242C 190.833,236.333 184.167,230.667 177.5,225C 176.251,224.26 175.251,224.427 174.5,225.5C 173.374,222.535 172.374,219.535 171.5,216.5C 171.794,213.519 173.128,212.852 175.5,214.5 Z"/></g>
<g><path style="opacity:1" fill="#fec096" d="M 192.5,224.5 C 187.806,221.821 183.139,219.155 178.5,216.5C 178.787,214.879 179.787,213.879 181.5,213.5C 185.325,215.145 189.325,215.812 193.5,215.5C 193.632,218.57 193.299,221.57 192.5,224.5 Z"/></g>
<g><path style="opacity:1" fill="#647eb4" d="M 171.5,216.5 C 172.545,222.012 172.545,227.512 171.5,233C 177.08,258.734 182.08,284.567 186.5,310.5C 186.192,311.308 185.692,311.975 185,312.5C 180.226,309.959 175.559,310.292 171,313.5C 170.228,313.355 169.561,313.022 169,312.5C 169.021,297.237 165.854,282.57 159.5,268.5C 155.812,261.786 152.145,255.119 148.5,248.5C 155.357,244.907 161.691,240.573 167.5,235.5C 168.222,235.082 168.722,234.416 169,233.5C 169.71,227.669 170.543,222.002 171.5,216.5 Z"/></g>
<g><path style="opacity:1" fill="#cea38a" d="M 111.5,218.5 C 112.586,218.62 113.253,219.287 113.5,220.5C 111.845,222.754 109.678,224.421 107,225.5C 106.5,225.167 106,224.833 105.5,224.5C 107.103,222.046 109.103,220.046 111.5,218.5 Z"/></g>
<g><path style="opacity:1" fill="#c79d86" d="M 113.5,235.5 C 114.371,238.003 115.037,240.67 115.5,243.5C 115.586,244.496 115.252,245.329 114.5,246C 105.532,248.657 100.699,245.49 100,236.5C 102.027,230.642 105.86,226.642 111.5,224.5C 112.167,228.313 112.834,231.979 113.5,235.5 Z"/></g>
<g><path style="opacity:1" fill="#000000" d="M 174.5,225.5 C 175.251,224.427 176.251,224.26 177.5,225C 184.167,230.667 190.833,236.333 197.5,242C 200.243,244.038 203.243,245.538 206.5,246.5C 207.189,247.774 208.023,247.774 209,246.5C 210.427,242.611 211.927,238.778 213.5,235C 212.756,233.961 211.756,233.461 210.5,233.5C 210.53,232.503 210.03,231.836 209,231.5C 204.129,229.932 199.296,228.265 194.5,226.5C 193.702,226.043 193.369,225.376 193.5,224.5C 199.572,226.023 205.572,227.857 211.5,230C 212.667,231.167 213.833,232.333 215,233.5C 214.365,238.526 212.865,243.359 210.5,248C 209.391,248.638 208.225,249.138 207,249.5C 203.279,248.057 199.779,246.223 196.5,244C 189.001,237.998 181.668,231.832 174.5,225.5 Z"/></g>
<g><path style="opacity:1" fill="#4983c9" d="M 139.5,234.5 C 139.771,236.38 139.104,237.713 137.5,238.5C 132.716,238.57 128.049,239.237 123.5,240.5C 123.162,237.989 123.162,235.655 123.5,233.5C 128.806,236.302 133.973,235.968 139,232.5C 139.464,233.094 139.631,233.761 139.5,234.5 Z"/></g>
<g><path style="opacity:1" fill="#406da6" d="M 155.5,236.5 C 152.037,238.891 148.371,239.558 144.5,238.5C 144.5,236.833 144.5,235.167 144.5,233.5C 147.193,233.572 149.86,233.905 152.5,234.5C 154.03,234.64 155.03,235.307 155.5,236.5 Z"/></g>
<g><path style="opacity:1" fill="#fec90d" d="M 210.5,233.5 C 211.756,233.461 212.756,233.961 213.5,235C 211.927,238.778 210.427,242.611 209,246.5C 208.023,247.774 207.189,247.774 206.5,246.5C 207.104,242.05 208.437,237.717 210.5,233.5 Z"/></g>
<g><path style="opacity:1" fill="#6681b8" d="M 122.5,255.5 C 122.806,258.385 122.473,261.052 121.5,263.5C 117.113,267.362 112.113,270.195 106.5,272C 110.426,273.027 114.093,274.527 117.5,276.5C 116.914,278.243 116.581,280.076 116.5,282C 117.183,290.154 117.683,298.32 118,306.5C 119.824,307.749 119.657,308.915 117.5,310C 113.003,308.813 108.836,309.646 105,312.5C 104.457,300.928 103.623,289.261 102.5,277.5C 103.801,267.859 104.801,258.192 105.5,248.5C 110.399,248.711 115.066,248.211 119.5,247C 120.996,249.714 121.996,252.547 122.5,255.5 Z"/></g>
<g><path style="opacity:1" fill="#3a3a3a" d="M 127.5,269.5 C 126.508,269.672 125.842,269.338 125.5,268.5C 123.964,264.283 122.964,259.95 122.5,255.5C 122.192,253.076 122.526,250.743 123.5,248.5C 126.228,249.145 128.895,249.979 131.5,251C 130.667,251.833 129.833,252.667 129,253.5C 128.827,259.016 128.327,264.349 127.5,269.5 Z"/></g>
<g><path style="opacity:1" fill="#384e78" d="M 121.5,263.5 C 121.239,268.225 119.905,272.559 117.5,276.5C 114.093,274.527 110.426,273.027 106.5,272C 112.113,270.195 117.113,267.362 121.5,263.5 Z"/></g>
<g><path style="opacity:1" fill="#2b3956" d="M 159.5,268.5 C 159.369,267.624 159.702,266.957 160.5,266.5C 165.561,269.588 169.894,268.755 173.5,264C 174.5,263.333 175.5,263.333 176.5,264C 174.65,267.362 172.317,270.362 169.5,273C 168.167,273.667 166.833,273.667 165.5,273C 163.34,271.668 161.34,270.168 159.5,268.5 Z"/></g>
<g><path style="opacity:1" fill="#fec90d" d="M 125.5,268.5 C 125.842,269.338 126.508,269.672 127.5,269.5C 128.569,272.408 128.736,275.408 128,278.5C 124.542,275.759 123.708,272.425 125.5,268.5 Z"/></g>
</svg>
