<?xml version="1.0" encoding="UTF-8"?>
<!DOCTYPE svg PUBLIC "-//W3C//DTD SVG 1.1//EN" "http://www.w3.org/Graphics/SVG/1.1/DTD/svg11.dtd">
<svg xmlns="http://www.w3.org/2000/svg" version="1.1" width="604px" height="564px" style="shape-rendering:geometricPrecision; text-rendering:geometricPrecision; image-rendering:optimizeQuality; fill-rule:evenodd; clip-rule:evenodd" xmlns:xlink="http://www.w3.org/1999/xlink">
<g><path style="opacity:1" fill="#fefffe" d="M 121.5,66.5 C 126.52,65.873 131.187,66.7063 135.5,69C 144.038,77.8691 152.204,87.0357 160,96.5C 167.364,104.198 175.03,111.531 183,118.5C 183.333,120.5 183.667,122.5 184,124.5C 187.204,127.786 189.871,131.452 192,135.5C 218.333,165.167 244.667,194.833 271,224.5C 271.333,222.167 271.667,219.833 272,217.5C 279.216,212.088 281.383,205.088 278.5,196.5C 276.089,196.863 274.589,195.863 274,193.5C 273.667,189.5 273.333,185.5 273,181.5C 267.213,174.373 262.213,166.707 258,158.5C 257.333,153.5 257.333,148.5 258,143.5C 258.707,141.919 259.54,140.419 260.5,139C 268.2,137.666 275.533,138.666 282.5,142C 284.041,143.579 285.208,145.413 286,147.5C 287.592,156.59 289.425,165.59 291.5,174.5C 307.475,173.742 322.308,177.409 336,185.5C 336.667,190.167 336.667,194.833 336,199.5C 331.675,203.507 328.509,208.34 326.5,214C 328.523,216.175 329.857,218.675 330.5,221.5C 332.824,221.338 334.491,220.172 335.5,218C 336.793,217.51 338.127,217.343 339.5,217.5C 340.161,213.046 342.828,211.379 347.5,212.5C 349.5,212.667 351.5,212.833 353.5,213C 356.457,215.996 360.123,217.662 364.5,218C 366.487,219.319 367.654,221.152 368,223.5C 369.015,227.44 369.515,231.44 369.5,235.5C 372.617,235.642 375.117,236.976 377,239.5C 381.923,249.014 386.59,258.68 391,268.5C 391.667,278.833 391.667,289.167 391,299.5C 388.801,302.693 386.301,305.526 383.5,308C 384.667,310.833 385.833,313.667 387,316.5C 388.211,328.816 388.545,341.149 388,353.5C 386.667,354.833 385.333,356.167 384,357.5C 383.941,362.348 383.274,367.015 382,371.5C 381.392,377.874 381.725,384.207 383,390.5C 384.743,392.321 386.243,394.321 387.5,396.5C 395.864,400.031 401.698,406.031 405,414.5C 410.497,418.986 414.831,424.32 418,430.5C 420.943,432.375 424.11,433.875 427.5,435C 433.314,441.68 435.148,449.513 433,458.5C 428.647,461.494 425.98,465.494 425,470.5C 422.203,474.299 419.036,477.799 415.5,481C 406.447,482.865 397.447,482.865 388.5,481C 388,480.5 387.5,480 387,479.5C 385.485,472.715 386.652,466.548 390.5,461C 388.109,460.713 385.776,460.213 383.5,459.5C 371.497,444.664 358.33,430.998 344,418.5C 341.491,409.466 338.824,400.466 336,391.5C 331.047,396.771 326.547,402.271 322.5,408C 323.633,424.819 324.133,441.653 324,458.5C 322.745,459.211 321.579,460.044 320.5,461C 321.191,462.067 321.691,463.234 322,464.5C 322.667,469.833 322.667,475.167 322,480.5C 319.734,481.956 317.234,482.79 314.5,483C 301.234,485.118 287.9,485.785 274.5,485C 259.855,482.454 255.022,473.954 260,459.5C 263.267,457.899 266.767,457.066 270.5,457C 272.833,455.833 275.167,454.667 277.5,453.5C 278.707,446.89 279.374,440.224 279.5,433.5C 278.737,421.795 277.57,410.128 276,398.5C 275.333,392.833 275.333,387.167 276,381.5C 288.121,365.711 300.621,350.211 313.5,335C 311.47,331.411 310.137,327.578 309.5,323.5C 305.154,323.666 300.821,323.499 296.5,323C 294.166,316.65 291.832,310.316 289.5,304C 281.908,302.765 274.241,301.765 266.5,301C 257.772,291.053 250.938,279.886 246,267.5C 245.667,261.167 245.333,254.833 245,248.5C 243.171,246.844 241.837,244.844 241,242.5C 240.794,239.377 240.127,236.377 239,233.5C 232.333,225.5 225.667,217.5 219,209.5C 210.545,201.045 201.878,192.378 193,183.5C 192.374,179.015 190.708,175.015 188,171.5C 181.428,164.018 175.095,156.351 169,148.5C 167.333,147.5 165.667,146.5 164,145.5C 163.824,142.118 163.324,138.785 162.5,135.5C 149.149,117.471 135.316,99.804 121,82.5C 120.219,77.0833 120.385,71.7499 121.5,66.5 Z"/></g>
<g><path style="opacity:1" fill="#000001" d="M 124.5,69.5 C 127.564,69.1437 130.231,69.9771 132.5,72C 141.038,80.8691 149.204,90.0357 157,99.5C 164.364,107.198 172.03,114.531 180,121.5C 180.333,123.5 180.667,125.5 181,127.5C 185.305,133.145 189.638,138.812 194,144.5C 225.037,178.536 255.704,212.869 286,247.5C 286.734,242.209 284.734,238.209 280,235.5C 279.056,232.653 279.556,230.153 281.5,228C 275.354,228.857 273.187,226.357 275,220.5C 283.834,213.173 286.001,204.173 281.5,193.5C 279.089,193.863 277.589,192.863 277,190.5C 276.259,187.438 276.425,184.438 277.5,181.5C 271.251,173.341 265.751,164.674 261,155.5C 259.875,150.601 260.709,146.101 263.5,142C 269.226,140.896 274.56,141.896 279.5,145C 281.041,146.579 282.208,148.413 283,150.5C 284.592,159.59 286.425,168.59 288.5,177.5C 304.475,176.742 319.308,180.409 333,188.5C 333.667,191.167 333.667,193.833 333,196.5C 328.076,201.862 324.242,208.029 321.5,215C 322.944,217.449 324.778,219.615 327,221.5C 327.43,224.192 327.263,226.859 326.5,229.5C 328.911,229.137 330.411,230.137 331,232.5C 331.333,230.167 331.667,227.833 332,225.5C 334.775,224.864 336.941,223.364 338.5,221C 339.793,220.51 341.127,220.343 342.5,220.5C 342.489,217.178 344.155,215.511 347.5,215.5C 351.592,218.373 356.258,220.206 361.5,221C 363.487,222.319 364.654,224.152 365,226.5C 366.015,230.44 366.515,234.44 366.5,238.5C 369.617,238.642 372.117,239.976 374,242.5C 378.923,252.014 383.59,261.68 388,271.5C 388.667,279.833 388.667,288.167 388,296.5C 385.708,300.788 382.208,303.622 377.5,305C 382.431,312.425 384.431,320.425 383.5,329C 385.429,336.018 385.929,343.185 385,350.5C 383.667,351.833 382.333,353.167 381,354.5C 380.941,359.348 380.274,364.015 379,368.5C 378.786,373.885 378.286,379.219 377.5,384.5C 379.111,387.22 379.944,390.22 380,393.5C 381.743,395.321 383.243,397.321 384.5,399.5C 392.864,403.031 398.698,409.031 402,417.5C 407.497,421.986 411.831,427.32 415,433.5C 417.943,435.375 421.11,436.875 424.5,438C 432.976,446.736 432.476,454.902 423,462.5C 419.858,474.31 412.192,479.977 400,479.5C 391.863,480.697 388.529,477.364 390,469.5C 392.995,466.013 394.828,462.013 395.5,457.5C 392.421,457.74 389.421,457.407 386.5,456.5C 374.497,441.664 361.33,427.998 347,415.5C 344.583,405.153 341.25,395.153 337,385.5C 331.224,391.363 325.224,397.029 319,402.5C 319.655,409.951 320.155,417.451 320.5,425C 320.42,429.359 320.086,433.692 319.5,438C 321.263,443.731 321.763,449.564 321,455.5C 318.82,456.346 317.32,457.846 316.5,460C 319.141,465.582 319.975,471.416 319,477.5C 316.734,478.956 314.234,479.79 311.5,480C 302.857,481.09 294.19,481.923 285.5,482.5C 276.773,483.092 269.273,480.426 263,474.5C 262.204,470.245 262.371,466.079 263.5,462C 266.711,460.847 270.044,460.18 273.5,460C 276.833,458.333 280.167,456.667 283.5,455C 281.993,453.527 281.326,451.693 281.5,449.5C 282.055,444.183 282.388,438.849 282.5,433.5C 281.146,417.155 279.979,400.822 279,384.5C 290.244,369.252 302.244,354.586 315,340.5C 316.513,337.976 317.18,335.309 317,332.5C 314.737,327.876 312.57,323.209 310.5,318.5C 306.784,320.612 302.951,320.945 299,319.5C 297.08,313.207 294.913,307.04 292.5,301C 284.908,299.765 277.241,298.765 269.5,298C 260.772,288.053 253.938,276.886 249,264.5C 247.568,258.852 248.735,254.018 252.5,250C 245.973,245.111 242.473,238.611 242,230.5C 235.333,222.5 228.667,214.5 222,206.5C 213.545,198.045 204.878,189.378 196,180.5C 195.374,176.015 193.708,172.015 191,168.5C 184.428,161.018 178.095,153.351 172,145.5C 170.333,144.5 168.667,143.5 167,142.5C 166.824,139.118 166.324,135.785 165.5,132.5C 152.149,114.471 138.316,96.804 124,79.5C 123.253,76.0764 123.42,72.7431 124.5,69.5 Z"/></g>
<g><path style="opacity:1" fill="#7c7c7c" d="M 126.5,72.5 C 142.468,90.3032 158.634,107.97 175,125.5C 175.333,125.167 175.667,124.833 176,124.5C 176.743,126.441 176.576,128.274 175.5,130C 183.187,133.904 182.854,137.404 174.5,140.5C 173.062,140.281 171.729,139.781 170.5,139C 172.004,135.519 171.337,132.519 168.5,130C 158.189,113.948 146.022,98.1148 132,82.5C 129.865,79.2325 128.031,75.8992 126.5,72.5 Z"/></g>
<g><path style="opacity:1" fill="#7d7d7d" d="M 290.5,263.5 C 281.21,252.372 271.71,241.372 262,230.5C 260.549,228.536 258.716,227.203 256.5,226.5C 255.655,225.329 254.989,223.995 254.5,222.5C 229.862,195.526 205.195,168.526 180.5,141.5C 179.488,139.9 179.988,138.566 182,137.5C 215.795,176.297 249.962,214.797 284.5,253C 286.851,252.86 289.184,252.36 291.5,251.5C 291.185,253.226 291.019,254.893 291,256.5C 293.28,257.086 295.447,257.92 297.5,259C 295.138,260.511 292.805,262.011 290.5,263.5 Z"/></g>
<g><path style="opacity:1" fill="#382318" d="M 180.5,141.5 C 205.195,168.526 229.862,195.526 254.5,222.5C 253.5,222.5 252.5,222.5 251.5,222.5C 252.202,225.578 253.202,228.578 254.5,231.5C 254.333,232.167 254.167,232.833 254,233.5C 253.31,234.738 252.81,234.738 252.5,233.5C 252.34,231.847 251.674,230.514 250.5,229.5C 240.459,218.107 229.959,207.107 219,196.5C 218.667,195.167 218.333,193.833 218,192.5C 211.925,186.93 206.425,180.93 201.5,174.5C 201.795,172.265 201.461,170.265 200.5,168.5C 199.833,168.5 199.167,168.5 198.5,168.5C 197.504,168.586 196.671,168.252 196,167.5C 189.667,159.833 183.333,152.167 177,144.5C 176.667,142.066 177.834,141.066 180.5,141.5 Z"/></g>
<g><path style="opacity:1" fill="#edeeed" d="M 266.5,145.5 C 272.295,145.804 276.462,148.471 279,153.5C 281.012,162.994 282.512,172.328 283.5,181.5C 276.719,172.22 270.553,162.554 265,152.5C 264.865,150.078 265.365,147.745 266.5,145.5 Z"/></g>
<g><path style="opacity:1" fill="#fec90d" d="M 198.5,168.5 C 199.167,168.5 199.833,168.5 200.5,168.5C 199.833,175.167 199.167,175.167 198.5,168.5 Z"/></g>
<g><path style="opacity:1" fill="#e5e7eb" d="M 201.5,174.5 C 206.425,180.93 211.925,186.93 218,192.5C 218.333,193.833 218.667,195.167 219,196.5C 229.959,207.107 240.459,218.107 250.5,229.5C 249.749,230.573 248.749,230.74 247.5,230C 231.797,210.971 215.463,192.638 198.5,175C 199.448,174.517 200.448,174.351 201.5,174.5 Z"/></g>
<g><path style="opacity:1" fill="#fe7f26" d="M 283.5,189.5 C 280.964,190.671 279.631,189.671 279.5,186.5C 280.865,181.514 282.532,181.347 284.5,186C 284.011,187.138 283.678,188.305 283.5,189.5 Z"/></g>
<g><path style="opacity:1" fill="#1f1f2d" d="M 288.5,208.5 C 291.433,206.309 293.1,203.309 293.5,199.5C 291.031,198.683 288.365,198.183 285.5,198C 288.695,197.819 291.695,197.319 294.5,196.5C 294.804,195.85 295.137,195.183 295.5,194.5C 291.668,193.904 288.001,192.904 284.5,191.5C 283.662,191.158 283.328,190.492 283.5,189.5C 288.506,188.944 293.506,188.277 298.5,187.5C 308.733,189.058 318.733,191.558 328.5,195C 324.819,201.02 321.319,207.187 318,213.5C 315.07,211.745 311.903,210.578 308.5,210C 301.802,209.243 295.136,209.409 288.5,210.5C 287.833,210.333 287.167,210.167 286.5,210C 287.416,209.722 288.082,209.222 288.5,208.5 Z"/></g>
<g><path style="opacity:1" fill="#fec90d" d="M 284.5,191.5 C 288.001,192.904 291.668,193.904 295.5,194.5C 295.137,195.183 294.804,195.85 294.5,196.5C 291.428,196.817 288.428,196.484 285.5,195.5C 284.754,194.264 284.421,192.93 284.5,191.5 Z"/></g>
<g><path style="opacity:1" fill="#fec90d" d="M 290.5,199.5 C 290.509,201.308 290.009,202.975 289,204.5C 288.623,203.058 287.79,202.058 286.5,201.5C 285.957,201.44 285.624,201.107 285.5,200.5C 287.045,199.548 288.712,199.215 290.5,199.5 Z"/></g>
<g><path style="opacity:1" fill="#785e00" d="M 290.5,199.5 C 290.833,199.5 291.167,199.5 291.5,199.5C 291.736,202.226 290.903,204.559 289,206.5C 288.148,205.429 287.315,204.429 286.5,203.5C 286.5,202.833 286.5,202.167 286.5,201.5C 287.79,202.058 288.623,203.058 289,204.5C 290.009,202.975 290.509,201.308 290.5,199.5 Z"/></g>
<g><path style="opacity:1" fill="#fec90d" d="M 291.5,199.5 C 292.167,199.5 292.833,199.5 293.5,199.5C 293.1,203.309 291.433,206.309 288.5,208.5C 286.744,207.448 286.077,205.781 286.5,203.5C 287.315,204.429 288.148,205.429 289,206.5C 290.903,204.559 291.736,202.226 291.5,199.5 Z"/></g>
<g><path style="opacity:1" fill="#12121b" d="M 322.5,224.5 C 318.674,221.876 314.674,220.876 310.5,221.5C 309.167,221.5 307.833,221.5 306.5,221.5C 306.213,219.879 305.213,218.879 303.5,218.5C 301.925,219.456 300.258,220.123 298.5,220.5C 297.209,220.263 296.209,220.596 295.5,221.5C 292.119,221.46 288.786,221.793 285.5,222.5C 283.213,222.724 281.047,223.391 279,224.5C 278.5,224.167 278,223.833 277.5,223.5C 280.94,220.393 283.607,216.727 285.5,212.5C 296.429,209.35 307.096,210.016 317.5,214.5C 318.834,218.344 321.168,221.511 324.5,224C 323.906,224.464 323.239,224.631 322.5,224.5 Z"/></g>
<g><path style="opacity:1" fill="#5e2a09" d="M 306.5,221.5 C 305.722,222.156 305.056,222.989 304.5,224C 304.833,224.5 305.167,225 305.5,225.5C 309.923,222.738 311.423,224.071 310,229.5C 307.138,231.07 304.305,232.737 301.5,234.5C 300.416,233.335 299.583,232.002 299,230.5C 298.502,227.183 298.335,223.85 298.5,220.5C 300.258,220.123 301.925,219.456 303.5,218.5C 305.213,218.879 306.213,219.879 306.5,221.5 Z"/></g>
<g><path style="opacity:1" fill="#eef0e0" d="M 347.5,223.5 C 344.839,221.839 344.839,220.172 347.5,218.5C 350.148,220.206 350.148,221.872 347.5,223.5 Z"/></g>
<g><path style="opacity:1" fill="#f9bc94" d="M 298.5,220.5 C 298.335,223.85 298.502,227.183 299,230.5C 299.583,232.002 300.416,233.335 301.5,234.5C 304.305,232.737 307.138,231.07 310,229.5C 311.423,224.071 309.923,222.738 305.5,225.5C 305.167,225 304.833,224.5 304.5,224C 305.056,222.989 305.722,222.156 306.5,221.5C 307.833,221.5 309.167,221.5 310.5,221.5C 313.147,223.933 313.814,226.767 312.5,230C 315.032,231.765 317.699,233.265 320.5,234.5C 314.845,238.637 309.012,242.637 303,246.5C 302.308,245.975 301.808,245.308 301.5,244.5C 302.865,243.059 304.365,241.726 306,240.5C 306.667,239.167 306.667,237.833 306,236.5C 305.727,238.329 304.893,239.829 303.5,241C 301.368,243.455 298.701,245.121 295.5,246C 290.101,247.437 288.435,245.604 290.5,240.5C 293.059,243.333 294.392,242.666 294.5,238.5C 295.239,238.631 295.906,238.464 296.5,238C 293.526,234.872 291.193,231.372 289.5,227.5C 292.478,226.522 294.478,224.522 295.5,221.5C 296.209,220.596 297.209,220.263 298.5,220.5 Z"/></g>
<g><path style="opacity:1" fill="#5a2502" d="M 322.5,224.5 C 323.329,227.469 323.495,230.469 323,233.5C 322.329,234.252 321.496,234.586 320.5,234.5C 317.699,233.265 315.032,231.765 312.5,230C 313.814,226.767 313.147,223.933 310.5,221.5C 314.674,220.876 318.674,221.876 322.5,224.5 Z"/></g>
<g><path style="opacity:1" fill="#8e4f27" d="M 295.5,221.5 C 294.478,224.522 292.478,226.522 289.5,227.5C 289.167,227.5 288.833,227.5 288.5,227.5C 288.5,227.167 288.5,226.833 288.5,226.5C 291.217,225.322 291.55,224.322 289.5,223.5C 287.901,223.768 286.568,223.434 285.5,222.5C 288.786,221.793 292.119,221.46 295.5,221.5 Z"/></g>
<g><path style="opacity:1" fill="#fec096" d="M 254.5,222.5 C 254.989,223.995 255.655,225.329 256.5,226.5C 259.712,232.837 262.712,239.171 265.5,245.5C 265.804,246.15 266.137,246.817 266.5,247.5C 263.625,248.081 260.958,249.081 258.5,250.5C 256.237,246.733 253.404,243.399 250,240.5C 248.092,237.794 247.259,234.794 247.5,231.5C 249.514,231.392 251.18,232.058 252.5,233.5C 252.81,234.738 253.31,234.738 254,233.5C 254.167,232.833 254.333,232.167 254.5,231.5C 253.202,228.578 252.202,225.578 251.5,222.5C 252.5,222.5 253.5,222.5 254.5,222.5 Z"/></g>
<g><path style="opacity:1" fill="#fefffe" d="M 289.5,223.5 C 291.55,224.322 291.217,225.322 288.5,226.5C 288.062,226.565 287.728,226.399 287.5,226C 288.381,225.292 289.047,224.458 289.5,223.5 Z"/></g>
<g><path style="opacity:1" fill="#eef0e0" d="M 344.5,226.5 C 343.292,227.234 341.959,227.567 340.5,227.5C 339,225.491 339.5,224.158 342,223.5C 343.749,223.748 344.582,224.748 344.5,226.5 Z"/></g>
<g><path style="opacity:1" fill="#4e4e70" d="M 347.5,223.5 C 349.964,223.824 352.631,223.991 355.5,224C 357.329,224.273 358.829,225.107 360,226.5C 362.938,231.321 363.271,235.988 361,240.5C 360.667,239.833 360.333,239.167 360,238.5C 360.046,240.313 359.88,241.979 359.5,243.5C 358.474,239.815 357.14,236.315 355.5,233C 349.643,229.973 343.643,229.807 337.5,232.5C 336.584,232.457 335.917,232.124 335.5,231.5C 336.9,230.9 337.9,229.9 338.5,228.5C 338.842,227.662 339.508,227.328 340.5,227.5C 341.959,227.567 343.292,227.234 344.5,226.5C 345.1,225.1 346.1,224.1 347.5,223.5 Z"/></g>
<g><path style="opacity:1" fill="#fec096" d="M 288.5,227.5 C 289.718,231.604 291.718,235.271 294.5,238.5C 292.918,237.124 291.085,236.124 289,235.5C 288.235,235.57 287.735,235.903 287.5,236.5C 286.711,236.217 286.044,235.717 285.5,235C 286.672,234.581 287.672,233.915 288.5,233C 286.473,233.498 284.473,233.331 282.5,232.5C 283.931,230.062 285.931,228.396 288.5,227.5 Z"/></g>
<g><path style="opacity:1" fill="#000000" d="M 288.5,227.5 C 288.833,227.5 289.167,227.5 289.5,227.5C 291.193,231.372 293.526,234.872 296.5,238C 295.906,238.464 295.239,238.631 294.5,238.5C 291.718,235.271 289.718,231.604 288.5,227.5 Z"/></g>
<g><path style="opacity:1" fill="#eef0e0" d="M 338.5,228.5 C 337.9,229.9 336.9,230.9 335.5,231.5C 334.566,230.432 334.232,229.099 334.5,227.5C 335.959,227.433 337.292,227.766 338.5,228.5 Z"/></g>
<g><path style="opacity:1" fill="#392419" d="M 256.5,226.5 C 258.716,227.203 260.549,228.536 262,230.5C 271.71,241.372 281.21,252.372 290.5,263.5C 291.29,264.794 292.29,265.961 293.5,267C 289.341,268.892 285.341,268.726 281.5,266.5C 277.797,258.015 272.463,251.015 265.5,245.5C 262.712,239.171 259.712,232.837 256.5,226.5 Z"/></g>
<g><path style="opacity:1" fill="#6a6b9c" d="M 345.5,231.5 C 355.428,232.439 359.095,237.773 356.5,247.5C 352.917,250.21 349.083,252.543 345,254.5C 339.875,252.86 336.042,249.693 333.5,245C 337.217,237.822 342.884,235.655 350.5,238.5C 352.722,243.619 351.056,246.619 345.5,247.5C 338.945,245.259 338.945,242.926 345.5,240.5C 346.5,240.833 347.167,241.5 347.5,242.5C 342.343,243.987 342.676,244.653 348.5,244.5C 348.394,239.369 346.061,238.203 341.5,241C 338.828,243.679 339.162,246.012 342.5,248C 346.18,249.027 349.347,248.194 352,245.5C 352.987,242.303 352.487,239.47 350.5,237C 342.85,234.696 337.017,236.862 333,243.5C 332.5,243 332,242.5 331.5,242C 333.291,239.586 334.957,237.086 336.5,234.5C 339.662,233.635 342.662,232.635 345.5,231.5 Z"/></g>
<g><path style="opacity:1" fill="#eef0e0" d="M 324.5,233.5 C 325.675,233.281 326.675,233.614 327.5,234.5C 328.96,237.029 329.46,239.696 329,242.5C 322.739,245.712 316.905,249.545 311.5,254C 308.313,255.901 305.813,255.067 304,251.5C 303.405,250.101 303.572,248.768 304.5,247.5C 311.233,242.811 317.9,238.144 324.5,233.5 Z"/></g>
<g><path style="opacity:1" fill="#682a00" d="M 294.5,238.5 C 294.392,242.666 293.059,243.333 290.5,240.5C 288.738,239.738 287.738,238.404 287.5,236.5C 287.735,235.903 288.235,235.57 289,235.5C 291.085,236.124 292.918,237.124 294.5,238.5 Z"/></g>
<g><path style="opacity:1" fill="#5b74ff" d="M 329.5,244.5 C 331.053,247.017 332.053,249.85 332.5,253C 332.167,253.5 331.833,254 331.5,254.5C 327.596,253.024 323.596,251.857 319.5,251C 322.728,248.56 326.061,246.394 329.5,244.5 Z"/></g>
<g><path style="opacity:1" fill="#fefffe" d="M 297.5,248.5 C 298.5,248.5 299.5,248.5 300.5,248.5C 300.378,251.77 300.878,254.77 302,257.5C 301.667,257.833 301.333,258.167 301,258.5C 299.974,255.307 297.808,253.974 294.5,254.5C 294.5,252.833 294.5,251.167 294.5,249.5C 295.791,249.737 296.791,249.404 297.5,248.5 Z"/></g>
<g><path style="opacity:1" fill="#6a6b9c" d="M 333.5,250.5 C 333.56,249.957 333.893,249.624 334.5,249.5C 336.865,252.35 339.865,254.184 343.5,255C 338.648,256.402 335.314,254.902 333.5,250.5 Z"/></g>
<g><path style="opacity:1" fill="#eef0e0" d="M 266.5,258.5 C 264.376,256.941 262.709,254.941 261.5,252.5C 261.97,251.307 262.97,250.64 264.5,250.5C 269.667,251.623 272.834,254.623 274,259.5C 271.643,257.354 269.143,257.021 266.5,258.5 Z"/></g>
<g><path style="opacity:1" fill="#b87a56" d="M 355.5,250.5 C 360.78,253.35 364.447,257.683 366.5,263.5C 366.291,264.086 365.957,264.586 365.5,265C 359.645,266.422 353.812,267.922 348,269.5C 344.749,267.095 342.583,263.928 341.5,260C 346.059,256.563 350.726,253.396 355.5,250.5 Z"/></g>
<g><path style="opacity:1" fill="#5662b2" d="M 261.5,252.5 C 262.709,254.941 264.376,256.941 266.5,258.5C 265.995,260.75 266.662,262.917 268.5,265C 267.167,266.333 265.833,267.667 264.5,269C 262.934,269.765 261.601,269.598 260.5,268.5C 261.167,267.833 261.833,267.167 262.5,266.5C 262.179,264.952 261.179,264.285 259.5,264.5C 258.375,263.652 258.375,262.652 259.5,261.5C 259.5,260.833 259.5,260.167 259.5,259.5C 258.432,258.566 257.099,258.232 255.5,258.5C 256.167,257.833 256.833,257.167 257.5,256.5C 257.5,255.833 257.5,255.167 257.5,254.5C 257.389,253.883 257.056,253.383 256.5,253C 258.134,252.506 259.801,252.34 261.5,252.5 Z"/></g>
<g><path style="opacity:1" fill="#e5e7eb" d="M 314.5,253.5 C 321.79,253.572 328.79,255.072 335.5,258C 337.754,258.624 339.421,259.957 340.5,262C 330.763,259.394 320.763,257.727 310.5,257C 312.324,256.34 313.657,255.173 314.5,253.5 Z"/></g>
<g><path style="opacity:1" fill="#fec90d" d="M 257.5,254.5 C 257.5,255.167 257.5,255.833 257.5,256.5C 256.5,256.5 255.5,256.5 254.5,256.5C 254.821,254.952 255.821,254.285 257.5,254.5 Z"/></g>
<g><path style="opacity:1" fill="#eef0e0" d="M 254.5,256.5 C 254.328,257.492 254.662,258.158 255.5,258.5C 255.328,259.492 255.662,260.158 256.5,260.5C 257.795,262.372 257.628,264.038 256,265.5C 255.163,263.162 254.33,260.828 253.5,258.5C 253.543,257.584 253.876,256.917 254.5,256.5 Z"/></g>
<g><path style="opacity:1" fill="#000000" d="M 254.5,256.5 C 255.5,256.5 256.5,256.5 257.5,256.5C 256.833,257.167 256.167,257.833 255.5,258.5C 254.662,258.158 254.328,257.492 254.5,256.5 Z"/></g>
<g><path style="opacity:1" fill="#000000" d="M 255.5,258.5 C 257.099,258.232 258.432,258.566 259.5,259.5C 258.209,259.263 257.209,259.596 256.5,260.5C 255.662,260.158 255.328,259.492 255.5,258.5 Z"/></g>
<g><path style="opacity:1" fill="#5b74ff" d="M 266.5,258.5 C 269.829,258.264 272.829,259.097 275.5,261C 277.16,262.488 278.16,264.321 278.5,266.5C 273.086,267.737 270.586,271.07 271,276.5C 272.417,272.248 275.25,269.581 279.5,268.5C 281.586,269.609 283.92,270.276 286.5,270.5C 290.54,269.859 294.54,269.025 298.5,268C 300.93,265.182 303.597,262.516 306.5,260C 314.589,259.491 322.589,260.158 330.5,262C 334.683,264.996 337.683,268.996 339.5,274C 334.04,277.433 328.04,279.6 321.5,280.5C 318.394,278.732 315.061,277.232 311.5,276C 309.295,273.46 306.795,271.293 304,269.5C 304.088,272.642 305.588,275.142 308.5,277C 312.259,278.985 316.259,280.152 320.5,280.5C 314.127,283.434 307.46,285.767 300.5,287.5C 296.331,285.846 292.831,283.179 290,279.5C 289.685,280.908 290.018,282.241 291,283.5C 292.707,285.037 294.207,286.704 295.5,288.5C 291.975,289.21 288.642,290.21 285.5,291.5C 281.121,292.08 276.788,292.58 272.5,293C 266.916,284.501 261.583,275.834 256.5,267C 257.352,265.272 258.352,265.105 259.5,266.5C 259.328,267.492 259.662,268.158 260.5,268.5C 261.601,269.598 262.934,269.765 264.5,269C 265.833,267.667 267.167,266.333 268.5,265C 266.662,262.917 265.995,260.75 266.5,258.5 Z"/></g>
<g><path style="opacity:1" fill="#fec90d" d="M 256.5,260.5 C 257.209,259.596 258.209,259.263 259.5,259.5C 259.5,260.167 259.5,260.833 259.5,261.5C 258.391,261.443 257.391,261.11 256.5,260.5 Z"/></g>
<g><path style="opacity:1" fill="#b87b5a" d="M 379.5,293.5 C 376.828,285.655 373.661,277.989 370,270.5C 369.313,268.432 369.48,266.432 370.5,264.5C 369.753,264.264 368.92,263.93 368,263.5C 367.138,261.913 366.471,260.246 366,258.5C 363.486,255.322 360.986,252.156 358.5,249C 360.234,246.999 362.067,245.166 364,243.5C 365.982,243.99 367.649,244.99 369,246.5C 374.462,255.091 379.129,264.091 383,273.5C 383.667,279.833 383.667,286.167 383,292.5C 382.073,295.706 380.907,296.039 379.5,293.5 Z"/></g>
<g><path style="opacity:1" fill="#fec90d" d="M 259.5,264.5 C 261.179,264.285 262.179,264.952 262.5,266.5C 261.5,266.5 260.5,266.5 259.5,266.5C 259.5,265.833 259.5,265.167 259.5,264.5 Z"/></g>
<g><path style="opacity:1" fill="#5b74ff" d="M 337.5,264.5 C 341.532,265.694 344.532,268.194 346.5,272C 344.365,272.635 342.365,272.301 340.5,271C 339.588,268.749 338.588,266.583 337.5,264.5 Z"/></g>
<g><path style="opacity:1" fill="#000000" d="M 259.5,266.5 C 260.5,266.5 261.5,266.5 262.5,266.5C 261.833,267.167 261.167,267.833 260.5,268.5C 259.662,268.158 259.328,267.492 259.5,266.5 Z"/></g>
<g><path style="opacity:1" fill="#0d30ff" d="M 278.5,266.5 C 279.338,266.842 279.672,267.508 279.5,268.5C 275.25,269.581 272.417,272.248 271,276.5C 270.586,271.07 273.086,267.737 278.5,266.5 Z"/></g>
<g><path style="opacity:1" fill="#b87a56" d="M 379.5,293.5 C 379.762,294.978 379.429,296.311 378.5,297.5C 375.274,298.606 372.607,300.439 370.5,303C 367.847,304.552 365.181,304.385 362.5,302.5C 358.853,294.732 355.686,286.732 353,278.5C 351.5,276.167 350,273.833 348.5,271.5C 355.039,269.326 361.706,267.659 368.5,266.5C 368.34,268.199 368.506,269.866 369,271.5C 372.239,279.1 375.739,286.433 379.5,293.5 Z"/></g>
<g><path style="opacity:1" fill="#0d30ff" d="M 321.5,280.5 C 321.167,280.5 320.833,280.5 320.5,280.5C 316.259,280.152 312.259,278.985 308.5,277C 305.588,275.142 304.088,272.642 304,269.5C 306.795,271.293 309.295,273.46 311.5,276C 315.061,277.232 318.394,278.732 321.5,280.5 Z"/></g>
<g><path style="opacity:1" fill="#5b74ff" d="M 350.5,279.5 C 349.522,279.811 348.855,280.478 348.5,281.5C 350.559,284.949 352.059,288.616 353,292.5C 353.671,293.252 354.504,293.586 355.5,293.5C 356.401,294.29 357.068,295.29 357.5,296.5C 347.511,297.579 337.511,297.579 327.5,296.5C 325.897,296.688 324.563,296.188 323.5,295C 328.84,295.267 333.506,293.767 337.5,290.5C 340.625,290.135 343.625,289.302 346.5,288C 344.527,287.505 342.527,287.338 340.5,287.5C 341.851,285.608 342.518,283.442 342.5,281C 342.083,278.502 341.749,276.002 341.5,273.5C 346.673,272.35 349.673,274.35 350.5,279.5 Z"/></g>
<g><path style="opacity:1" fill="#5b74ff" d="M 336.5,287.5 C 331.828,286.997 327.161,286.831 322.5,287C 326.378,288.47 330.378,289.303 334.5,289.5C 333.653,290.966 332.32,291.8 330.5,292C 312.886,294.869 295.219,295.536 277.5,294C 280.379,293.454 283.046,292.621 285.5,291.5C 303.794,288.135 321.627,283.135 339,276.5C 341.408,280.966 340.575,284.633 336.5,287.5 Z"/></g>
<g><path style="opacity:1" fill="#0d30ff" d="M 300.5,287.5 C 298.784,287.629 297.117,287.962 295.5,288.5C 294.207,286.704 292.707,285.037 291,283.5C 290.018,282.241 289.685,280.908 290,279.5C 292.831,283.179 296.331,285.846 300.5,287.5 Z"/></g>
<g><path style="opacity:1" fill="#0d30ff" d="M 350.5,279.5 C 352.687,283.895 354.354,288.562 355.5,293.5C 354.504,293.586 353.671,293.252 353,292.5C 352.059,288.616 350.559,284.949 348.5,281.5C 348.855,280.478 349.522,279.811 350.5,279.5 Z"/></g>
<g><path style="opacity:1" fill="#0d30ff" d="M 336.5,287.5 C 336.167,288.5 335.5,289.167 334.5,289.5C 330.378,289.303 326.378,288.47 322.5,287C 327.161,286.831 331.828,286.997 336.5,287.5 Z"/></g>
<g><path style="opacity:1" fill="#0d30ff" d="M 340.5,287.5 C 342.527,287.338 344.527,287.505 346.5,288C 343.625,289.302 340.625,290.135 337.5,290.5C 338.167,289.167 339.167,288.167 340.5,287.5 Z"/></g>
<g><path style="opacity:1" fill="#e5e7eb" d="M 314.5,296.5 C 316.288,295.378 318.288,295.211 320.5,296C 323.492,298.11 326.825,299.443 330.5,300C 340.327,300.026 349.994,300.692 359.5,302C 343.702,306.464 328.702,304.631 314.5,296.5 Z"/></g>
<g><path style="opacity:1" fill="#442b1c" d="M 297.5,297.5 C 301.019,296.192 304.685,296.192 308.5,297.5C 309.339,302.05 311.006,306.217 313.5,310C 310.281,311.955 306.947,313.288 303.5,314C 301.929,308.236 299.929,302.736 297.5,297.5 Z"/></g>
<g><path style="opacity:1" fill="#5b74ff" d="M 347.5,325.5 C 341.675,322.755 336.008,319.755 330.5,316.5C 323.17,310.186 316.837,303.52 311.5,296.5C 324.861,305.466 339.361,308.133 355,304.5C 355.049,312.443 352.549,319.443 347.5,325.5 Z"/></g>
<g><path style="opacity:1" fill="#0d30ff" d="M 327.5,296.5 C 337.511,297.579 347.511,297.579 357.5,296.5C 353.555,297.825 349.222,298.492 344.5,298.5C 340.167,298.333 335.833,298.167 331.5,298C 329.942,297.79 328.609,297.29 327.5,296.5 Z"/></g>
<g><path style="opacity:1" fill="#870014" d="M 312.5,302.5 C 317.798,307.297 322.965,312.297 328,317.5C 331.277,325.055 334.277,332.722 337,340.5C 338.022,341.354 338.855,342.354 339.5,343.5C 338.167,345.167 338.167,346.833 339.5,348.5C 339.192,349.308 338.692,349.975 338,350.5C 333.479,341.13 329.812,331.463 327,321.5C 323.034,316.533 318.701,311.866 314,307.5C 312.991,305.975 312.491,304.308 312.5,302.5 Z"/></g>
<g><path style="opacity:1" fill="#e5e7eb" d="M 357.5,304.5 C 358.833,304.5 360.167,304.5 361.5,304.5C 361.666,309.844 361.499,315.177 361,320.5C 360.439,323.29 359.106,325.623 357,327.5C 355.062,325.022 352.895,324.855 350.5,327C 349.833,328.667 349.167,330.333 348.5,332C 344.129,332.828 339.795,332.661 335.5,331.5C 333.982,328.164 332.815,324.831 332,321.5C 336.084,324.126 340.25,326.626 344.5,329C 345.5,329.667 346.5,329.667 347.5,329C 353.997,322.167 357.33,314 357.5,304.5 Z"/></g>
<g><path style="opacity:1" fill="#870014" d="M 362.5,304.5 C 364.627,305.398 365.794,307.064 366,309.5C 366.981,316.371 368.148,323.204 369.5,330C 368.99,331.826 368.156,331.993 367,330.5C 364.017,322.085 362.517,313.419 362.5,304.5 Z"/></g>
<g><path style="opacity:1" fill="#0d30ff" d="M 328.5,310.5 C 335.355,310.377 342.355,310.21 349.5,310C 342.538,313.053 335.538,313.22 328.5,310.5 Z"/></g>
<g><path style="opacity:1" fill="#5b74ff" d="M 379.5,346.5 C 377.887,344.539 376.887,342.206 376.5,339.5C 377.833,338.5 377.833,337.5 376.5,336.5C 375.122,335.766 373.622,335.099 372,334.5C 370.338,326.534 369.338,318.534 369,310.5C 372.499,314.672 375.166,319.338 377,324.5C 377.839,331.847 378.672,339.18 379.5,346.5 Z"/></g>
<g><path style="opacity:1" fill="#e5e7eb" d="M 316.5,313.5 C 322.187,317.277 325.52,322.277 326.5,328.5C 321.394,324.603 318.06,319.603 316.5,313.5 Z"/></g>
<g><path style="opacity:1" fill="#0d30ff" d="M 330.5,316.5 C 336.008,319.755 341.675,322.755 347.5,325.5C 347.217,326.289 346.717,326.956 346,327.5C 340.151,324.671 334.984,321.004 330.5,316.5 Z"/></g>
<g><path style="opacity:1" fill="#5b74ff" d="M 362.5,322.5 C 363.343,324.487 364.01,326.654 364.5,329C 364.167,329.5 363.833,330 363.5,330.5C 361.885,329.846 360.218,329.346 358.5,329C 360.734,327.362 362.067,325.195 362.5,322.5 Z"/></g>
<g><path style="opacity:1" fill="#5b74ff" d="M 323.5,330.5 C 322.833,330.5 322.167,330.5 321.5,330.5C 319.826,328.376 318.993,326.042 319,323.5C 321.02,325.551 322.52,327.884 323.5,330.5 Z"/></g>
<g><path style="opacity:1" fill="#7e7f7e" d="M 353.5,327.5 C 354.267,328.172 354.934,329.005 355.5,330C 351.257,332.112 350.591,331.279 353.5,327.5 Z"/></g>
<g><path style="opacity:1" fill="#ec1c23" d="M 379.5,346.5 C 380.158,345.207 380.492,343.707 380.5,342C 379.579,337.505 379.079,333.005 379,328.5C 382.105,334.659 383.105,340.992 382,347.5C 378.831,351.764 377.997,351.431 379.5,346.5 Z"/></g>
<g><path style="opacity:1" fill="#fefffe" d="M 321.5,330.5 C 322.167,330.5 322.833,330.5 323.5,330.5C 324.713,331.497 324.546,332.497 323,333.5C 321.961,332.756 321.461,331.756 321.5,330.5 Z"/></g>
<g><path style="opacity:1" fill="#00a1e8" d="M 356.5,331.5 C 358.288,331.215 359.955,331.548 361.5,332.5C 360.324,334.677 358.49,336.011 356,336.5C 353.919,334.443 354.086,332.777 356.5,331.5 Z"/></g>
<g><path style="opacity:1" fill="#00a1e8" d="M 362.5,336.5 C 361.471,334.847 361.971,333.514 364,332.5C 364.5,332.833 365,333.167 365.5,333.5C 365.121,335.213 364.121,336.213 362.5,336.5 Z"/></g>
<g><path style="opacity:1" fill="#686797" d="M 324.5,333.5 C 326.83,336.827 328.663,340.493 330,344.5C 331.333,353.824 332.666,363.157 334,372.5C 334.635,373.966 335.469,375.3 336.5,376.5C 334.105,379.861 331.105,382.528 327.5,384.5C 324.362,391.474 319.196,396.141 312,398.5C 313.318,407.255 314.485,416.088 315.5,425C 315.396,429.584 314.729,434.084 313.5,438.5C 314.396,442.355 315.396,446.189 316.5,450C 313.237,453.421 309.237,455.088 304.5,455C 302.235,451.17 301.068,447.003 301,442.5C 300.501,446.821 300.334,451.154 300.5,455.5C 295.66,455.777 291.66,454.111 288.5,450.5C 288.274,430.201 286.608,410.034 283.5,390C 294.514,373.978 306.68,358.811 320,344.5C 321.417,340.735 322.917,337.069 324.5,333.5 Z"/></g>
<g><path style="opacity:1" fill="#00a1e8" d="M 349.5,338.5 C 348.517,337.15 347.184,336.15 345.5,335.5C 348.861,333.028 351.861,333.195 354.5,336C 353.347,337.883 351.681,338.716 349.5,338.5 Z"/></g>
<g><path style="opacity:1" fill="#a48d20" d="M 336.5,335.5 C 338.288,334.378 340.288,334.211 342.5,335C 341.283,336.648 340.45,338.481 340,340.5C 338.374,339.045 337.208,337.378 336.5,335.5 Z"/></g>
<g><path style="opacity:1" fill="#00a1e8" d="M 349.5,338.5 C 348.412,340.583 347.412,342.749 346.5,345C 344.893,344.981 343.226,344.815 341.5,344.5C 341.826,341.689 342.659,339.022 344,336.5C 345.725,337.464 347.559,338.131 349.5,338.5 Z"/></g>
<g><path style="opacity:1" fill="#039fe4" d="M 362.5,336.5 C 362.735,337.097 363.235,337.43 364,337.5C 365.394,336.387 366.561,335.053 367.5,333.5C 368.308,333.808 368.975,334.308 369.5,335C 368.87,336.892 367.87,338.559 366.5,340C 360.262,342.637 353.929,344.637 347.5,346C 350.471,339.821 355.471,336.654 362.5,336.5 Z"/></g>
<g><path style="opacity:1" fill="#00a1e8" d="M 370.5,340.5 C 369.218,339.292 369.218,337.958 370.5,336.5C 371.292,337.7 371.292,339.033 370.5,340.5 Z"/></g>
<g><path style="opacity:1" fill="#afb0b4" d="M 376.5,336.5 C 377.833,337.5 377.833,338.5 376.5,339.5C 375.833,339.5 375.167,339.5 374.5,339.5C 374.5,338.833 374.167,338.5 373.5,338.5C 373.821,336.952 374.821,336.285 376.5,336.5 Z"/></g>
<g><path style="opacity:1" fill="#0c98d9" d="M 373.5,338.5 C 374.167,338.5 374.5,338.833 374.5,339.5C 375.261,342.811 373.928,343.811 370.5,342.5C 370.5,341.833 370.5,341.167 370.5,340.5C 371.5,339.833 372.5,339.167 373.5,338.5 Z"/></g>
<g><path style="opacity:1" fill="#00a1e8" d="M 370.5,342.5 C 370.423,343.75 369.756,344.583 368.5,345C 361.828,347.168 355.161,349.334 348.5,351.5C 347.571,350.311 347.238,348.978 347.5,347.5C 354.576,345.864 361.409,343.53 368,340.5C 368.708,341.381 369.542,342.047 370.5,342.5 Z"/></g>
<g><path style="opacity:1" fill="#00a1e8" d="M 374.5,343.5 C 377.684,346.698 377.017,348.031 372.5,347.5C 372.527,345.801 373.194,344.467 374.5,343.5 Z"/></g>
<g><path style="opacity:1" fill="#00a1e8" d="M 340.5,345.5 C 342.5,345.833 344.5,346.167 346.5,346.5C 346.5,348.167 346.5,349.833 346.5,351.5C 342.871,351.205 340.871,349.205 340.5,345.5 Z"/></g>
<g><path style="opacity:1" fill="#02a0e5" d="M 369.5,345.5 C 371.308,346.918 371.975,348.918 371.5,351.5C 365.091,353.201 358.758,355.201 352.5,357.5C 350.18,356.238 348.346,356.905 347,359.5C 345.121,357.473 343.954,355.14 343.5,352.5C 345.451,352.227 346.951,352.893 348,354.5C 348.5,353.333 349.333,352.5 350.5,352C 357.1,350.276 363.433,348.11 369.5,345.5 Z"/></g>
<g><path style="opacity:1" fill="#00a1e8" d="M 372.5,348.5 C 373.978,348.238 375.311,348.571 376.5,349.5C 375.833,349.833 375.167,350.167 374.5,350.5C 373.287,350.253 372.62,349.586 372.5,348.5 Z"/></g>
<g><path style="opacity:1" fill="#00a1e8" d="M 372.5,351.5 C 374.847,353.03 375.014,355.03 373,357.5C 372.25,356.874 371.416,356.374 370.5,356C 371.267,354.53 371.933,353.03 372.5,351.5 Z"/></g>
<g><path style="opacity:1" fill="#9c8520" d="M 326.5,332.5 C 327.189,331.226 328.023,331.226 329,332.5C 331.605,340.313 334.605,347.98 338,355.5C 339.491,357.004 341.324,357.837 343.5,358C 344.453,359.955 345.787,361.622 347.5,363C 345.833,363.667 344.167,363.667 342.5,363C 343.821,361.455 343.488,360.289 341.5,359.5C 339.512,360.289 339.179,361.455 340.5,363C 339.833,363.333 339.167,363.667 338.5,364C 346.137,364.324 353.637,365.491 361,367.5C 366.767,366.533 371.601,363.866 375.5,359.5C 376.631,361.074 376.798,362.741 376,364.5C 373.696,366.068 371.196,367.235 368.5,368C 358.492,370.67 348.492,373.003 338.5,375C 337.299,374.097 336.465,372.931 336,371.5C 334.456,364.673 333.956,357.84 334.5,351C 331.937,344.716 329.27,338.549 326.5,332.5 Z"/></g>
<g><path style="opacity:1" fill="#00a1e8" d="M 368.5,357.5 C 364.811,359.674 360.811,360.674 356.5,360.5C 355.737,359.732 354.737,359.232 353.5,359C 359.071,356.963 364.571,354.796 370,352.5C 369.866,354.189 369.366,355.856 368.5,357.5 Z"/></g>
<g><path style="opacity:1" fill="#a48d20" d="M 375.5,354.5 C 376.598,355.601 376.765,356.934 376,358.5C 374.489,357.436 374.323,356.103 375.5,354.5 Z"/></g>
<g><path style="opacity:1" fill="#00a1e8" d="M 368.5,357.5 C 370.103,357.312 371.437,357.812 372.5,359C 368.972,363.74 367.638,363.24 368.5,357.5 Z"/></g>
<g><path style="opacity:1" fill="#00a1e8" d="M 349.5,358.5 C 353.33,359.141 353.996,360.807 351.5,363.5C 348.807,362.468 348.14,360.802 349.5,358.5 Z"/></g>
<g><path style="opacity:1" fill="#00a1e8" d="M 365.5,359.5 C 368.151,361.461 367.984,363.128 365,364.5C 362.919,362.443 363.086,360.777 365.5,359.5 Z"/></g>
<g><path style="opacity:1" fill="#00a1e8" d="M 356.5,360.5 C 357.234,361.708 357.567,363.041 357.5,364.5C 352.625,364.259 352.292,362.926 356.5,360.5 Z"/></g>
<g><path style="opacity:1" fill="#000000" d="M 326.5,366.5 C 327.835,364.315 329.501,362.815 331.5,362C 330.589,364.415 328.922,365.915 326.5,366.5 Z"/></g>
<g><path style="opacity:1" fill="#00a1e8" d="M 358.5,361.5 C 360.958,361.227 362.625,362.227 363.5,364.5C 361.955,365.452 360.288,365.785 358.5,365.5C 358.5,364.167 358.5,362.833 358.5,361.5 Z"/></g>
<g><path style="opacity:1" fill="#000000" d="M 326.5,366.5 C 317.126,374.843 307.792,383.176 298.5,391.5C 299.619,388.112 301.619,385.279 304.5,383C 311.446,376.874 318.779,371.374 326.5,366.5 Z"/></g>
<g><path style="opacity:1" fill="#4e4f77" d="M 361.5,388.5 C 358.878,390.644 355.878,391.977 352.5,392.5C 351.173,386.917 350.173,381.25 349.5,375.5C 351.523,374.145 353.523,373.812 355.5,374.5C 356.982,379.455 358.982,384.122 361.5,388.5 Z"/></g>
<g><path style="opacity:1" fill="#686898" d="M 383.5,431.5 C 374.531,424.561 365.698,417.228 357,409.5C 354.014,404.279 352.514,398.612 352.5,392.5C 355.878,391.977 358.878,390.644 361.5,388.5C 364.107,394.702 365.774,394.702 366.5,388.5C 365.594,383.065 364.26,377.731 362.5,372.5C 365.609,370.612 368.943,369.279 372.5,368.5C 373.534,373.812 373.534,379.146 372.5,384.5C 372.321,387.131 372.987,389.465 374.5,391.5C 372.876,392.869 372.376,394.536 373,396.5C 376.092,398.577 378.592,401.244 380.5,404.5C 388.532,407.699 394.032,413.365 397,421.5C 400.667,425.167 404.333,428.833 408,432.5C 408.982,433.759 409.315,435.092 409,436.5C 405.667,439.833 402.333,443.167 399,446.5C 394.635,441.655 390.135,436.821 385.5,432C 384.906,431.536 384.239,431.369 383.5,431.5 Z"/></g>
<g><path style="opacity:1" fill="#fec90d" d="M 360.5,378.5 C 361.5,378.5 362.5,378.5 363.5,378.5C 367.141,395.318 365.475,395.818 358.5,380C 359.416,379.722 360.082,379.222 360.5,378.5 Z"/></g>
<g><path style="opacity:1" fill="#000000" d="M 298.5,391.5 C 297.029,394.062 296.362,396.896 296.5,400C 297.499,420.665 297.166,420.665 295.5,400C 295.667,397.833 295.833,395.667 296,393.5C 296.708,392.619 297.542,391.953 298.5,391.5 Z"/></g>
<g><path style="opacity:1" fill="#656595" d="M 383.5,431.5 C 387.852,436.351 392.352,441.018 397,445.5C 396.707,449.003 394.874,451.669 391.5,453.5C 389.003,449.843 386.503,446.176 384,442.5C 375.802,434.637 367.969,426.47 360.5,418C 357.667,415.833 354.833,413.667 352,411.5C 349.491,402.466 346.824,393.466 344,384.5C 342.961,382.254 341.794,380.087 340.5,378C 342.778,377.014 345.111,376.18 347.5,375.5C 349.632,385 351.466,394.667 353,404.5C 353.561,406.725 354.561,408.725 356,410.5C 364.387,418.6 373.554,425.6 383.5,431.5 Z"/></g>
<g><path style="opacity:1" fill="#31324b" d="M 409.5,438.5 C 413.812,439.934 417.812,441.934 421.5,444.5C 416.768,448.81 413.602,454.143 412,460.5C 410.38,462.241 408.88,464.075 407.5,466C 404.773,466.818 402.106,466.652 399.5,465.5C 399.924,460.153 400.924,454.986 402.5,450C 402.265,449.127 401.931,448.293 401.5,447.5C 404.189,444.48 406.856,441.48 409.5,438.5 Z"/></g>
<g><path style="opacity:1" fill="#1f202f" d="M 420.5,447.5 C 422.912,447.244 424.579,448.244 425.5,450.5C 423.5,453.167 421.167,455.5 418.5,457.5C 416.28,467.556 410.114,473.223 400,474.5C 395.552,474.27 394.719,472.603 397.5,469.5C 401.122,468.675 404.789,468.175 408.5,468C 413.709,461.87 417.709,455.037 420.5,447.5 Z"/></g>
<g><path style="opacity:1" fill="#2f2e46" d="M 299.5,458.5 C 300.5,461.167 301.5,461.167 302.5,458.5C 304.556,457.784 306.723,457.117 309,456.5C 310.398,460.86 311.898,465.193 313.5,469.5C 310.701,471.214 307.701,472.547 304.5,473.5C 303.893,473.376 303.56,473.043 303.5,472.5C 302.833,468.5 302.167,468.5 301.5,472.5C 293.503,472.765 286.503,469.932 280.5,464C 284.766,461.619 288.932,459.119 293,456.5C 295.346,456.99 297.513,457.657 299.5,458.5 Z"/></g>
<g><path style="opacity:1" fill="#fefffe" d="M 302.5,458.5 C 301.5,461.167 300.5,461.167 299.5,458.5C 300.5,457.167 301.5,457.167 302.5,458.5 Z"/></g>
<g><path style="opacity:1" fill="#1f202f" d="M 277.5,464.5 C 283.728,471.415 291.562,474.749 301,474.5C 304.856,474.074 308.689,473.907 312.5,474C 303.544,475.429 294.544,476.596 285.5,477.5C 280.172,477.085 275.172,475.585 270.5,473C 267.21,470.892 266.877,468.559 269.5,466C 272.365,465.817 275.031,465.317 277.5,464.5 Z"/></g>
<g><path style="opacity:1" fill="#fefffe" d="M 300.5,464.5 C 301.675,464.281 302.675,464.614 303.5,465.5C 301.948,466.798 300.948,466.465 300.5,464.5 Z"/></g>
<g><path style="opacity:1" fill="#fefffe" d="M 303.5,472.5 C 302.833,472.5 302.167,472.5 301.5,472.5C 302.167,468.5 302.833,468.5 303.5,472.5 Z"/></g>
</svg>
