<?xml version="1.0" encoding="UTF-8"?>
<!DOCTYPE svg PUBLIC "-//W3C//DTD SVG 1.1//EN" "http://www.w3.org/Graphics/SVG/1.1/DTD/svg11.dtd">
<svg xmlns="http://www.w3.org/2000/svg" version="1.1" width="278px" height="344px" style="shape-rendering:geometricPrecision; text-rendering:geometricPrecision; image-rendering:optimizeQuality; fill-rule:evenodd; clip-rule:evenodd" xmlns:xlink="http://www.w3.org/1999/xlink">
<g><path style="opacity:1" fill="#fefefe" d="M 144.5,75.5 C 148.182,75.3347 151.848,75.5014 155.5,76C 156,76.5 156.5,77 157,77.5C 157.667,82.5 157.667,87.5 157,92.5C 153.975,96.0239 151.142,99.6906 148.5,103.5C 149.815,105.316 151.315,106.983 153,108.5C 153.167,110.667 153.333,112.833 153.5,115C 152.617,122.583 151.283,130.083 149.5,137.5C 154.841,137.121 159.841,138.121 164.5,140.5C 171.086,138.078 174.419,140.411 174.5,147.5C 173.988,150.186 173.821,152.853 174,155.5C 180.207,161.375 186.707,166.875 193.5,172C 195.709,173.873 197.542,176.04 199,178.5C 199.87,193.291 199.537,207.958 198,222.5C 203.074,224.525 208.241,226.359 213.5,228C 217.212,230.602 218.378,234.102 217,238.5C 215.878,242.493 214.378,246.326 212.5,250C 210.801,250.958 208.967,251.458 207,251.5C 202.422,250.628 198.255,248.795 194.5,246C 188.98,240.979 183.314,236.146 177.5,231.5C 177.167,232.5 176.833,233.5 176.5,234.5C 179.666,250.499 182.833,266.499 186,282.5C 187.745,292.42 188.745,302.42 189,312.5C 195.193,316.235 198.193,321.568 198,328.5C 196.829,329.893 195.329,330.727 193.5,331C 188.167,331.667 182.833,331.667 177.5,331C 175.361,327.527 172.527,324.694 169,322.5C 166.164,299.181 158.998,277.181 147.5,256.5C 145.435,254.698 143.602,252.698 142,250.5C 138.329,251.502 135.329,253.502 133,256.5C 132.667,264.833 132.333,273.167 132,281.5C 128.379,282.913 124.879,282.58 121.5,280.5C 121.167,281 120.833,281.5 120.5,282C 121.398,296.867 122.231,311.7 123,326.5C 118.564,329.693 113.564,331.027 108,330.5C 99.4155,331.583 96.0821,327.916 98,319.5C 99.3076,317.359 100.808,315.359 102.5,313.5C 97.8789,292.564 97.5455,271.564 101.5,250.5C 93.7,242.416 93.5334,234.083 101,225.5C 101.29,223.048 101.956,220.715 103,218.5C 106.265,216.117 109.765,214.117 113.5,212.5C 114.432,209.47 115.765,206.637 117.5,204C 111.305,202.727 104.972,201.727 98.5,201C 96.2097,198.921 94.5431,196.421 93.5,193.5C 80.5,187.333 67.5,181.167 54.5,175C 50.7333,170.633 50.5667,166.133 54,161.5C 54.956,160.106 56.2894,159.439 58,159.5C 71.763,165.475 85.5963,170.975 99.5,176C 100.914,170.755 102.914,165.755 105.5,161C 100.461,153.655 102.127,148.489 110.5,145.5C 111.029,142.743 112.029,140.243 113.5,138C 108.817,137.601 107.317,135.101 109,130.5C 111.911,127.01 114.578,123.344 117,119.5C 117.493,111.042 119.993,103.209 124.5,96C 127.959,94.2945 131.459,94.1278 135,95.5C 137.319,88.3479 140.486,81.6813 144.5,75.5 Z M 170.5,185.5 C 174.257,186.767 176.424,189.434 177,193.5C 176.993,198.213 176.327,202.88 175,207.5C 172.212,205.588 170.879,202.921 171,199.5C 169.936,197.731 168.769,196.064 167.5,194.5C 168.704,191.556 169.704,188.556 170.5,185.5 Z"/></g>
<g><path style="opacity:1" fill="#010100" d="M 193.5,224.5 C 193.167,224.5 192.833,224.5 192.5,224.5C 193.299,221.57 193.632,218.57 193.5,215.5C 189.325,215.812 185.325,215.145 181.5,213.5C 179.787,213.879 178.787,214.879 178.5,216.5C 177.508,216.672 176.842,216.338 176.5,215.5C 177.479,214.235 178.479,212.901 179.5,211.5C 178.104,210.148 177.437,208.481 177.5,206.5C 182.067,195.667 179.567,187.001 170,180.5C 168.263,185.212 166.43,189.878 164.5,194.5C 167.688,201.405 171.354,208.072 175.5,214.5C 173.128,212.852 171.794,213.519 171.5,216.5C 172.374,219.535 173.374,222.535 174.5,225.5C 174.656,228.066 174.322,230.566 173.5,233C 178.566,254.662 182.732,276.495 186,298.5C 186.709,302.868 186.542,307.201 185.5,311.5C 189.098,315.274 192.598,319.274 196,323.5C 196.442,326.74 194.942,328.573 191.5,329C 187.5,329.667 183.5,329.667 179.5,329C 177.361,325.527 174.527,322.694 171,320.5C 168.164,297.181 160.998,275.181 149.5,254.5C 147.32,252.106 145.153,249.773 143,247.5C 138.228,248.551 134.228,250.885 131,254.5C 130.667,262.833 130.333,271.167 130,279.5C 124.744,280.598 122.077,278.265 122,272.5C 121.439,274.725 120.439,276.725 119,278.5C 119.674,289.012 119.508,299.512 118.5,310C 125.449,322.289 121.949,328.456 108,328.5C 102.407,329.231 99.7401,326.898 100,321.5C 101.833,319 103.667,316.5 105.5,314C 103.476,309.402 102.309,304.569 102,299.5C 101.583,292.161 101.083,284.827 100.5,277.5C 101.56,268.506 102.56,259.506 103.5,250.5C 101.096,246.745 99.0955,242.745 97.5,238.5C 100.278,232.611 102.778,226.611 105,220.5C 108.265,218.117 111.765,216.117 115.5,214.5C 117.167,210.5 118.833,206.5 120.5,202.5C 117.331,199.819 113.831,199.152 110,200.5C 102.526,201.585 97.6929,198.585 95.5,191.5C 82.953,185.393 70.2863,179.56 57.5,174C 55.5715,170.744 55.0715,167.244 56,163.5C 56.7247,162.941 57.5581,162.608 58.5,162.5C 71.7349,168.035 84.9016,173.701 98,179.5C 99.0674,178.809 100.234,178.309 101.5,178C 102.827,171.677 105.494,166.011 109.5,161C 106.208,158.588 105.041,155.421 106,151.5C 108.796,149.114 111.963,147.281 115.5,146C 112.808,143.368 113.141,141.034 116.5,139C 115.663,137.989 115.33,136.822 115.5,135.5C 113.901,135.768 112.568,135.434 111.5,134.5C 113.467,134.739 115.301,134.406 117,133.5C 117.464,134.094 117.631,134.761 117.5,135.5C 117.5,136.167 117.833,136.5 118.5,136.5C 118.919,139.325 117.919,141.491 115.5,143C 116.793,143.49 118.127,143.657 119.5,143.5C 120.514,142.326 121.847,141.66 123.5,141.5C 124.172,140.733 125.005,140.066 126,139.5C 127.011,140.337 128.178,140.67 129.5,140.5C 129.833,139.833 130.167,139.167 130.5,138.5C 135.07,139.441 139.737,139.774 144.5,139.5C 144.5,138.167 144.5,136.833 144.5,135.5C 147.334,127.827 148.834,119.827 149,111.5C 147.167,109.667 145.333,107.833 143.5,106C 142.563,105.308 141.897,105.475 141.5,106.5C 139.858,104.919 137.858,104.253 135.5,104.5C 131.467,96.3566 128.467,96.6899 126.5,105.5C 125.603,104.402 124.77,104.402 124,105.5C 123.67,108.489 122.836,111.322 121.5,114C 121.639,115.301 122.305,116.134 123.5,116.5C 123.328,117.492 123.662,118.158 124.5,118.5C 122.372,121.13 120.039,123.63 117.5,126C 118.682,127.768 120.015,127.935 121.5,126.5C 120.159,128.12 118.326,129.12 116,129.5C 115.617,128.944 115.117,128.611 114.5,128.5C 115.582,125.341 117.416,122.674 120,120.5C 119.706,112.683 121.706,105.35 126,98.5C 130.003,95.4987 133.336,96.1653 136,100.5C 138.275,93.674 140.942,87.0073 144,80.5C 147.39,76.9676 151.057,76.6342 155,79.5C 155.667,83.1667 155.667,86.8333 155,90.5C 151.118,94.7139 147.618,99.2139 144.5,104C 148.574,106.706 150.908,110.373 151.5,115C 150.407,122.63 148.741,130.13 146.5,137.5C 146.709,138.086 147.043,138.586 147.5,139C 154.073,138.837 159.906,140.67 165,144.5C 168.965,140.53 171.465,141.53 172.5,147.5C 171.504,150.797 171.337,154.131 172,157.5C 179.704,164.873 187.704,171.873 196,178.5C 197.623,190.07 197.957,201.736 197,213.5C 196.239,217.395 195.072,221.062 193.5,224.5 Z M 170.5,185.5 C 169.704,188.556 168.704,191.556 167.5,194.5C 168.769,196.064 169.936,197.731 171,199.5C 170.879,202.921 172.212,205.588 175,207.5C 176.327,202.88 176.993,198.213 177,193.5C 176.424,189.434 174.257,186.767 170.5,185.5 Z"/></g>
<g><path style="opacity:1" fill="#ec1c23" d="M 150.5,92.5 C 150.586,91.5041 150.252,90.6708 149.5,90C 147.308,89.074 145.308,87.9073 143.5,86.5C 144.488,81.3248 147.488,79.1581 152.5,80C 153.617,83.0731 153.784,86.2397 153,89.5C 152.623,90.9423 151.79,91.9423 150.5,92.5 Z"/></g>
<g><path style="opacity:1" fill="#319b4e" d="M 143.5,86.5 C 145.308,87.9073 147.308,89.074 149.5,90C 150.252,90.6708 150.586,91.5041 150.5,92.5C 147.022,96.1124 144.022,100.112 141.5,104.5C 140.205,103.902 138.872,103.402 137.5,103C 139.597,97.5424 141.597,92.0424 143.5,86.5 Z"/></g>
<g><path style="opacity:1" fill="#fec90d" d="M 126.5,105.5 C 125.699,109.235 124.699,112.901 123.5,116.5C 122.305,116.134 121.639,115.301 121.5,114C 122.836,111.322 123.67,108.489 124,105.5C 124.77,104.402 125.603,104.402 126.5,105.5 Z"/></g>
<g><path style="opacity:1" fill="#b81f1e" d="M 135.5,104.5 C 137.858,104.253 139.858,104.919 141.5,106.5C 141.747,108.858 141.081,110.858 139.5,112.5C 133.418,112.154 132.084,109.487 135.5,104.5 Z"/></g>
<g><path style="opacity:1" fill="#393939" d="M 144.5,135.5 C 141.603,134.871 138.936,133.871 136.5,132.5C 136.389,131.883 136.056,131.383 135.5,131C 137.593,124.986 138.926,118.82 139.5,112.5C 141.081,110.858 141.747,108.858 141.5,106.5C 141.897,105.475 142.563,105.308 143.5,106C 145.333,107.833 147.167,109.667 149,111.5C 148.834,119.827 147.334,127.827 144.5,135.5 Z"/></g>
<g><path style="opacity:1" fill="#fec90d" d="M 135.5,107.5 C 136.675,107.281 137.675,107.614 138.5,108.5C 136.948,109.798 135.948,109.465 135.5,107.5 Z"/></g>
<g><path style="opacity:1" fill="#ec1c23" d="M 121.5,126.5 C 120.015,127.935 118.682,127.768 117.5,126C 120.039,123.63 122.372,121.13 124.5,118.5C 126.767,115.729 129.267,113.062 132,110.5C 132.692,111.025 133.192,111.692 133.5,112.5C 129.852,117.481 125.852,122.147 121.5,126.5 Z"/></g>
<g><path style="opacity:1" fill="#171717" d="M 135.5,104.5 C 132.084,109.487 133.418,112.154 139.5,112.5C 138.926,118.82 137.593,124.986 135.5,131C 136.056,131.383 136.389,131.883 136.5,132.5C 131.888,131.806 127.222,131.806 122.5,132.5C 122.649,133.552 122.483,134.552 122,135.5C 120.51,134.272 119.01,134.272 117.5,135.5C 117.631,134.761 117.464,134.094 117,133.5C 115.301,134.406 113.467,134.739 111.5,134.5C 110.957,134.44 110.624,134.107 110.5,133.5C 111.612,131.581 112.946,129.914 114.5,128.5C 115.117,128.611 115.617,128.944 116,129.5C 118.326,129.12 120.159,128.12 121.5,126.5C 125.852,122.147 129.852,117.481 133.5,112.5C 133.192,111.692 132.692,111.025 132,110.5C 129.267,113.062 126.767,115.729 124.5,118.5C 123.662,118.158 123.328,117.492 123.5,116.5C 124.699,112.901 125.699,109.235 126.5,105.5C 128.467,96.6899 131.467,96.3566 135.5,104.5 Z"/></g>
<g><path style="opacity:1" fill="#aa6e4c" d="M 136.5,132.5 C 138.936,133.871 141.603,134.871 144.5,135.5C 144.5,136.833 144.5,138.167 144.5,139.5C 139.737,139.774 135.07,139.441 130.5,138.5C 129.833,138.5 129.5,138.167 129.5,137.5C 129.068,136.29 128.401,135.29 127.5,134.5C 126.5,134.5 125.5,134.5 124.5,134.5C 123.691,136.028 123.024,137.694 122.5,139.5C 122.103,140.525 121.437,140.692 120.5,140C 119.915,138.698 119.249,137.531 118.5,136.5C 117.833,136.5 117.5,136.167 117.5,135.5C 119.01,134.272 120.51,134.272 122,135.5C 122.483,134.552 122.649,133.552 122.5,132.5C 127.222,131.806 131.888,131.806 136.5,132.5 Z"/></g>
<g><path style="opacity:1" fill="#000000" d="M 124.5,134.5 C 124.923,136.781 124.256,138.448 122.5,139.5C 123.024,137.694 123.691,136.028 124.5,134.5 Z"/></g>
<g><path style="opacity:1" fill="#fabc94" d="M 124.5,134.5 C 125.5,134.5 126.5,134.5 127.5,134.5C 127.343,135.873 127.51,137.207 128,138.5C 128.383,137.944 128.883,137.611 129.5,137.5C 129.5,138.167 129.833,138.5 130.5,138.5C 130.167,139.167 129.833,139.833 129.5,140.5C 128.178,140.67 127.011,140.337 126,139.5C 125.005,140.066 124.172,140.733 123.5,141.5C 121.847,141.66 120.514,142.326 119.5,143.5C 118.127,143.657 116.793,143.49 115.5,143C 117.919,141.491 118.919,139.325 118.5,136.5C 119.249,137.531 119.915,138.698 120.5,140C 121.437,140.692 122.103,140.525 122.5,139.5C 124.256,138.448 124.923,136.781 124.5,134.5 Z"/></g>
<g><path style="opacity:1" fill="#000000" d="M 127.5,134.5 C 128.401,135.29 129.068,136.29 129.5,137.5C 128.883,137.611 128.383,137.944 128,138.5C 127.51,137.207 127.343,135.873 127.5,134.5 Z"/></g>
<g><path style="opacity:1" fill="#6681b8" d="M 129.5,140.5 C 135.167,140.5 140.833,140.5 146.5,140.5C 146.5,143.5 146.5,146.5 146.5,149.5C 139.86,150.346 133.193,151.013 126.5,151.5C 126.5,148.167 126.5,144.833 126.5,141.5C 127.791,141.737 128.791,141.404 129.5,140.5 Z"/></g>
<g><path style="opacity:1" fill="#fefffe" d="M 123.5,141.5 C 125.402,144.337 126.069,147.671 125.5,151.5C 124.5,151.5 123.5,151.5 122.5,151.5C 122.253,148.061 122.586,144.728 123.5,141.5 Z"/></g>
<g><path style="opacity:1" fill="#fefffe" d="M 147.5,141.5 C 148.5,141.5 149.5,141.5 150.5,141.5C 150.5,144.167 150.5,146.833 150.5,149.5C 149.5,149.5 148.5,149.5 147.5,149.5C 147.5,146.833 147.5,144.167 147.5,141.5 Z"/></g>
<g><path style="opacity:1" fill="#6681b8" d="M 162.5,152.5 C 159.274,150.123 155.607,149.123 151.5,149.5C 151.5,146.833 151.5,144.167 151.5,141.5C 155.504,141.73 159.171,142.897 162.5,145C 163.45,147.432 163.45,149.932 162.5,152.5 Z"/></g>
<g><path style="opacity:1" fill="#6681b8" d="M 119.5,143.5 C 120.765,144.514 121.431,146.014 121.5,148C 122.112,151.551 120.778,154.051 117.5,155.5C 116.723,153.219 115.723,151.052 114.5,149C 117.056,147.945 118.723,146.112 119.5,143.5 Z"/></g>
<g><path style="opacity:1" fill="#eaeb31" d="M 170.5,146.5 C 168.5,146.833 166.5,147.167 164.5,147.5C 165.479,145.855 166.812,144.521 168.5,143.5C 169.919,144.005 170.585,145.005 170.5,146.5 Z"/></g>
<g><path style="opacity:1" fill="#4d9d13" d="M 170.5,146.5 C 171.625,147.348 171.625,148.348 170.5,149.5C 168.5,149.5 166.5,149.5 164.5,149.5C 164.5,148.833 164.5,148.167 164.5,147.5C 166.5,147.167 168.5,146.833 170.5,146.5 Z"/></g>
<g><path style="opacity:1" fill="#eaeb31" d="M 112.5,149.5 C 110.525,151.137 108.525,152.804 106.5,154.5C 107.288,151.379 109.288,149.712 112.5,149.5 Z"/></g>
<g><path style="opacity:1" fill="#4d9d13" d="M 112.5,149.5 C 113.906,149.973 114.573,150.973 114.5,152.5C 111.288,152.712 109.288,154.379 108.5,157.5C 107.599,156.71 106.932,155.71 106.5,154.5C 108.525,152.804 110.525,151.137 112.5,149.5 Z"/></g>
<g><path style="opacity:1" fill="#eaeb31" d="M 164.5,149.5 C 166.5,149.5 168.5,149.5 170.5,149.5C 169.89,150.391 169.557,151.391 169.5,152.5C 167.5,152.5 165.5,152.5 163.5,152.5C 163.557,151.391 163.89,150.391 164.5,149.5 Z"/></g>
<g><path style="opacity:1" fill="#91585b" d="M 151.5,162.5 C 150.391,162.557 149.391,162.89 148.5,163.5C 146.007,164.774 143.341,165.44 140.5,165.5C 139.292,164.766 137.959,164.433 136.5,164.5C 133.535,165.734 130.535,165.734 127.5,164.5C 126.391,164.557 125.391,164.89 124.5,165.5C 119.922,164.118 118.422,161.118 120,156.5C 120.5,155.333 121.333,154.5 122.5,154C 134.828,152.256 147.162,151.756 159.5,152.5C 160.068,155.588 160.068,158.588 159.5,161.5C 156.957,163.478 154.29,163.811 151.5,162.5 Z"/></g>
<g><path style="opacity:1" fill="#ebea32" d="M 114.5,152.5 C 115.338,152.842 115.672,153.508 115.5,154.5C 112.708,154.622 110.708,155.956 109.5,158.5C 108.833,158.5 108.5,158.167 108.5,157.5C 109.288,154.379 111.288,152.712 114.5,152.5 Z"/></g>
<g><path style="opacity:1" fill="#4d9d13" d="M 162.5,152.5 C 162.833,152.5 163.167,152.5 163.5,152.5C 165.5,152.5 167.5,152.5 169.5,152.5C 169.5,153.167 169.5,153.833 169.5,154.5C 166.545,155.159 163.545,155.492 160.5,155.5C 161.167,154.5 161.833,153.5 162.5,152.5 Z"/></g>
<g><path style="opacity:1" fill="#4d9d13" d="M 115.5,154.5 C 115.5,155.167 115.5,155.833 115.5,156.5C 113.668,157.248 112.001,158.248 110.5,159.5C 109.833,159.5 109.5,159.167 109.5,158.5C 110.708,155.956 112.708,154.622 115.5,154.5 Z"/></g>
<g><path style="opacity:1" fill="#eaeb31" d="M 169.5,154.5 C 169.443,155.609 169.11,156.609 168.5,157.5C 166.194,157.993 163.861,158.326 161.5,158.5C 161.443,157.391 161.11,156.391 160.5,155.5C 163.545,155.492 166.545,155.159 169.5,154.5 Z"/></g>
<g><path style="opacity:1" fill="#eaeb31" d="M 115.5,156.5 C 116.5,156.833 117.167,157.5 117.5,158.5C 115.053,158.615 113.053,159.615 111.5,161.5C 110.662,161.158 110.328,160.492 110.5,159.5C 112.001,158.248 113.668,157.248 115.5,156.5 Z"/></g>
<g><path style="opacity:1" fill="#4d9d13" d="M 168.5,157.5 C 168.5,158.167 168.5,158.833 168.5,159.5C 166.236,160.219 163.903,160.552 161.5,160.5C 161.5,159.833 161.5,159.167 161.5,158.5C 163.861,158.326 166.194,157.993 168.5,157.5 Z"/></g>
<g><path style="opacity:1" fill="#4d9d13" d="M 117.5,158.5 C 117.5,159.5 117.5,160.5 117.5,161.5C 116.5,162.167 115.5,162.833 114.5,163.5C 113.29,163.068 112.29,162.401 111.5,161.5C 113.053,159.615 115.053,158.615 117.5,158.5 Z"/></g>
<g><path style="opacity:1" fill="#4b9a13" d="M 169.5,158.5 C 177.5,165.664 185.667,172.664 194,179.5C 195.765,187.083 195.931,194.749 194.5,202.5C 190.168,205.051 186.001,204.718 182,201.5C 181.942,196.481 181.108,191.648 179.5,187C 181.5,186.667 183.5,186.333 185.5,186C 183.376,184.418 181.21,184.251 179,185.5C 176.344,182.678 173.344,180.345 170,178.5C 168.233,179.34 166.899,180.673 166,182.5C 165,181.833 164,181.167 163,180.5C 161.296,173.936 162.963,168.603 168,164.5C 169.128,162.655 169.628,160.655 169.5,158.5 Z"/></g>
<g><path style="opacity:1" fill="#eaeb31" d="M 117.5,161.5 C 117.762,162.978 117.429,164.311 116.5,165.5C 115.478,165.145 114.811,164.478 114.5,163.5C 115.5,162.833 116.5,162.167 117.5,161.5 Z"/></g>
<g><path style="opacity:1" fill="#fefffe" d="M 151.5,162.5 C 151.232,164.099 151.566,165.432 152.5,166.5C 153.877,169.636 153.544,172.636 151.5,175.5C 150.479,174.099 149.479,172.765 148.5,171.5C 148.5,168.833 148.5,166.167 148.5,163.5C 149.391,162.89 150.391,162.557 151.5,162.5 Z"/></g>
<g><path style="opacity:1" fill="#503033" d="M 137.5,184.5 C 143.685,183.712 150.018,183.045 156.5,182.5C 156.976,178.007 157.642,173.673 158.5,169.5C 159.314,167.369 159.814,165.036 160,162.5C 160.167,166 160.333,169.5 160.5,173C 160.655,178.485 159.989,183.819 158.5,189C 147.225,190.576 135.892,190.909 124.5,190C 123.257,188.846 122.257,187.512 121.5,186C 127.016,185.827 132.349,185.327 137.5,184.5 Z"/></g>
<g><path style="opacity:1" fill="#eaeb31" d="M 168.5,159.5 C 167.695,162.817 165.861,165.483 163,167.5C 162.56,165.134 162.06,162.801 161.5,160.5C 163.903,160.552 166.236,160.219 168.5,159.5 Z"/></g>
<g><path style="opacity:1" fill="#4d9c13" d="M 117.5,176.5 C 118.619,185.706 114.619,190.706 105.5,191.5C 103.117,191.363 100.783,191.029 98.5,190.5C 97.1968,187.645 97.1968,184.645 98.5,181.5C 100.614,180.966 102.448,179.966 104,178.5C 104.958,173.455 106.791,168.788 109.5,164.5C 110,164.167 110.5,163.833 111,163.5C 112.86,165.201 115.027,166.201 117.5,166.5C 117.5,169.833 117.5,173.167 117.5,176.5 Z"/></g>
<g><path style="opacity:1" fill="#000000" d="M 148.5,163.5 C 148.5,166.167 148.5,168.833 148.5,171.5C 147.835,169.631 147.169,167.631 146.5,165.5C 144.929,166.309 143.262,166.643 141.5,166.5C 141.5,167.5 141.5,168.5 141.5,169.5C 140.566,168.432 140.232,167.099 140.5,165.5C 143.341,165.44 146.007,164.774 148.5,163.5 Z"/></g>
<g><path style="opacity:1" fill="#8b5458" d="M 158.5,169.5 C 157.642,173.673 156.976,178.007 156.5,182.5C 150.018,183.045 143.685,183.712 137.5,184.5C 131.833,184.5 126.167,184.5 120.5,184.5C 119.878,177.836 119.712,171.169 120,164.5C 121,165.167 122,165.833 123,166.5C 123.181,169.695 123.681,172.695 124.5,175.5C 125.151,176.091 125.818,176.757 126.5,177.5C 127.182,176.757 127.849,176.091 128.5,175.5C 129.477,172.713 129.81,169.713 129.5,166.5C 131.5,166.5 133.5,166.5 135.5,166.5C 135.205,168.735 135.539,170.735 136.5,172.5C 139.98,176.447 141.647,175.447 141.5,169.5C 141.5,168.5 141.5,167.5 141.5,166.5C 143.262,166.643 144.929,166.309 146.5,165.5C 147.169,167.631 147.835,169.631 148.5,171.5C 149.479,172.765 150.479,174.099 151.5,175.5C 153.544,172.636 153.877,169.636 152.5,166.5C 153.841,164.88 155.674,163.88 158,163.5C 158.495,165.473 158.662,167.473 158.5,169.5 Z"/></g>
<g><path style="opacity:1" fill="#7e7f7e" d="M 57.5,164.5 C 60.6802,164.176 61.8469,165.51 61,168.5C 59.3905,167.853 57.8905,167.02 56.5,166C 57.056,165.617 57.3893,165.117 57.5,164.5 Z"/></g>
<g><path style="opacity:1" fill="#fefffe" d="M 127.5,164.5 C 128.423,168.064 128.756,171.731 128.5,175.5C 127.849,176.091 127.182,176.757 126.5,177.5C 125.818,176.757 125.151,176.091 124.5,175.5C 124.5,172.167 124.5,168.833 124.5,165.5C 125.391,164.89 126.391,164.557 127.5,164.5 Z"/></g>
<g><path style="opacity:1" fill="#000000" d="M 127.5,164.5 C 130.535,165.734 133.535,165.734 136.5,164.5C 136.5,167.167 136.5,169.833 136.5,172.5C 135.539,170.735 135.205,168.735 135.5,166.5C 133.5,166.5 131.5,166.5 129.5,166.5C 129.81,169.713 129.477,172.713 128.5,175.5C 128.756,171.731 128.423,168.064 127.5,164.5 Z"/></g>
<g><path style="opacity:1" fill="#fefffe" d="M 136.5,164.5 C 137.959,164.433 139.292,164.766 140.5,165.5C 140.232,167.099 140.566,168.432 141.5,169.5C 141.647,175.447 139.98,176.447 136.5,172.5C 136.5,169.833 136.5,167.167 136.5,164.5 Z"/></g>
<g><path style="opacity:1" fill="#fec90d" d="M 69.5,171.5 C 68.6981,172.952 68.1981,174.618 68,176.5C 65.8627,175.521 64.0294,174.188 62.5,172.5C 63.7759,166.595 66.1092,166.261 69.5,171.5 Z"/></g>
<g><path style="opacity:1" fill="#7e7f7e" d="M 94.5,183.5 C 86.7972,179.655 78.7972,176.321 70.5,173.5C 70.1667,172.833 69.8333,172.167 69.5,171.5C 70.1499,171.196 70.8165,170.863 71.5,170.5C 80.161,173.834 88.4944,177.667 96.5,182C 96.1639,183.03 95.4972,183.53 94.5,183.5 Z"/></g>
<g><path style="opacity:1" fill="#392419" d="M 70.5,173.5 C 78.7972,176.321 86.7972,179.655 94.5,183.5C 96.2432,185.126 96.7432,187.126 96,189.5C 87.6455,185.214 79.1455,181.214 70.5,177.5C 69.218,176.042 69.218,174.708 70.5,173.5 Z"/></g>
<g><path style="opacity:1" fill="#3f8011" d="M 117.5,176.5 C 118.828,181.637 119.328,186.97 119,192.5C 116.926,194.452 114.759,196.285 112.5,198C 108.818,198.222 105.152,197.889 101.5,197C 99.5494,195.266 98.5494,193.099 98.5,190.5C 100.783,191.029 103.117,191.363 105.5,191.5C 114.619,190.706 118.619,185.706 117.5,176.5 Z"/></g>
<g><path style="opacity:1" fill="#fefffe" d="M 176.5,215.5 C 176.5,214.833 176.167,214.5 175.5,214.5C 171.354,208.072 167.688,201.405 164.5,194.5C 166.43,189.878 168.263,185.212 170,180.5C 179.567,187.001 182.067,195.667 177.5,206.5C 177.437,208.481 178.104,210.148 179.5,211.5C 178.479,212.901 177.479,214.235 176.5,215.5 Z M 170.5,185.5 C 169.704,188.556 168.704,191.556 167.5,194.5C 168.769,196.064 169.936,197.731 171,199.5C 170.879,202.921 172.212,205.588 175,207.5C 176.327,202.88 176.993,198.213 177,193.5C 176.424,189.434 174.257,186.767 170.5,185.5 Z"/></g>
<g><path style="opacity:1" fill="#4c9d13" d="M 160.5,189.5 C 161.117,189.611 161.617,189.944 162,190.5C 162.226,193.095 162.726,195.595 163.5,198C 160.249,201.922 156.416,205.088 152,207.5C 147.593,202.803 147.426,197.97 151.5,193C 154.167,192.333 156.833,191.667 159.5,191C 160.056,190.617 160.389,190.117 160.5,189.5 Z"/></g>
<g><path style="opacity:1" fill="#3c3c3c" d="M 130.5,193.5 C 135.316,192.35 140.316,192.184 145.5,193C 143.927,196.778 142.427,200.611 141,204.5C 137.998,200.332 134.498,196.665 130.5,193.5 Z"/></g>
<g><path style="opacity:1" fill="#5a271a" d="M 144.5,212.5 C 142.726,218.432 140.56,224.432 138,230.5C 134.126,233.675 129.959,234.175 125.5,232C 126.056,231.617 126.389,231.117 126.5,230.5C 128.741,229.379 131.075,228.213 133.5,227C 135.364,224.312 137.364,221.812 139.5,219.5C 140.79,218.942 141.623,217.942 142,216.5C 141.805,208.492 143.305,200.825 146.5,193.5C 147.5,192.167 148.5,192.167 149.5,193.5C 146.73,199.581 145.064,205.914 144.5,212.5 Z"/></g>
<g><path style="opacity:1" fill="#4a9813" d="M 120.5,189.5 C 122.262,191.7 124.596,192.867 127.5,193C 129.684,195.016 131.684,197.183 133.5,199.5C 129.996,204.03 125.663,207.697 120.5,210.5C 120.167,210.333 119.833,210.167 119.5,210C 121.505,206.984 122.505,203.651 122.5,200C 121.975,196.459 121.308,192.959 120.5,189.5 Z"/></g>
<g><path style="opacity:1" fill="#3a3a3a" d="M 166.5,207.5 C 165.876,209.754 164.543,211.421 162.5,212.5C 161.735,212.923 160.902,213.257 160,213.5C 155.206,212.547 150.373,211.88 145.5,211.5C 145.144,208.436 145.977,205.769 148,203.5C 149.769,209.198 152.936,210.031 157.5,206C 159.667,203.833 161.833,201.667 164,199.5C 167.315,201.435 168.149,204.101 166.5,207.5 Z"/></g>
<g><path style="opacity:1" fill="#3b3c3b" d="M 134.5,200.5 C 138.12,203.31 138.286,206.31 135,209.5C 133.414,208.624 131.914,207.624 130.5,206.5C 131.467,204.21 132.8,202.21 134.5,200.5 Z"/></g>
<g><path style="opacity:1" fill="#eaeb31" d="M 180.5,203.5 C 185.2,206.761 190.034,207.095 195,204.5C 195.667,207.167 195.667,209.833 195,212.5C 189.056,214.553 184.056,213.22 180,208.5C 179.36,206.735 179.527,205.068 180.5,203.5 Z"/></g>
<g><path style="opacity:1" fill="#99d9e9" d="M 139.5,219.5 C 137.364,221.812 135.364,224.312 133.5,227C 131.075,228.213 128.741,229.379 126.5,230.5C 115.652,228.97 112.985,223.47 118.5,214C 122.342,212.332 125.509,209.832 128,206.5C 130.638,209.317 133.638,211.65 137,213.5C 138.122,215.407 138.955,217.407 139.5,219.5 Z"/></g>
<g><path style="opacity:1" fill="#4d9d13" d="M 138.5,207.5 C 139.496,207.414 140.329,207.748 141,208.5C 141.667,210.833 141.667,213.167 141,215.5C 139.859,213.391 138.359,211.558 136.5,210C 137.381,209.292 138.047,208.458 138.5,207.5 Z"/></g>
<g><path style="opacity:1" fill="#eaea31" d="M 166.5,207.5 C 168.934,208.099 170.601,209.599 171.5,212C 169.742,219.731 168.408,227.565 167.5,235.5C 161.691,240.573 155.357,244.907 148.5,248.5C 147.026,246.863 145.192,245.863 143,245.5C 139.129,246.269 135.462,247.602 132,249.5C 125.925,248.784 120.425,246.784 115.5,243.5C 115.037,240.67 114.371,238.003 113.5,235.5C 113.18,232.102 113.513,228.768 114.5,225.5C 115.797,228.631 117.964,230.964 121,232.5C 121.953,235.432 122.453,238.432 122.5,241.5C 127.784,241.324 132.784,240.324 137.5,238.5C 139.104,237.713 139.771,236.38 139.5,234.5C 140.302,233.048 140.802,231.382 141,229.5C 142.791,232.35 143.958,235.35 144.5,238.5C 148.371,239.558 152.037,238.891 155.5,236.5C 158.96,235.125 162.46,233.791 166,232.5C 166.53,226.796 166.197,221.129 165,215.5C 163.955,214.627 163.122,213.627 162.5,212.5C 164.543,211.421 165.876,209.754 166.5,207.5 Z"/></g>
<g><path style="opacity:1" fill="#1e1e1e" d="M 144.5,212.5 C 150.391,213.989 156.391,215.156 162.5,216C 164.026,221.044 164.526,226.211 164,231.5C 157.53,232.724 151.03,232.557 144.5,231C 143.773,228.876 143.106,226.709 142.5,224.5C 144.145,220.675 144.812,216.675 144.5,212.5 Z"/></g>
<g><path style="opacity:1" fill="#41281b" d="M 175.5,214.5 C 176.167,214.5 176.5,214.833 176.5,215.5C 176.842,216.338 177.508,216.672 178.5,216.5C 183.139,219.155 187.806,221.821 192.5,224.5C 192.833,224.5 193.167,224.5 193.5,224.5C 193.369,225.376 193.702,226.043 194.5,226.5C 199.296,228.265 204.129,229.932 209,231.5C 210.03,231.836 210.53,232.503 210.5,233.5C 208.437,237.717 207.104,242.05 206.5,246.5C 203.243,245.538 200.243,244.038 197.5,242C 190.833,236.333 184.167,230.667 177.5,225C 176.251,224.26 175.251,224.427 174.5,225.5C 173.374,222.535 172.374,219.535 171.5,216.5C 171.794,213.519 173.128,212.852 175.5,214.5 Z"/></g>
<g><path style="opacity:1" fill="#fec096" d="M 192.5,224.5 C 187.806,221.821 183.139,219.155 178.5,216.5C 178.787,214.879 179.787,213.879 181.5,213.5C 185.325,215.145 189.325,215.812 193.5,215.5C 193.632,218.57 193.299,221.57 192.5,224.5 Z"/></g>
<g><path style="opacity:1" fill="#7b7d7a" d="M 171.5,216.5 C 172.545,222.012 172.545,227.512 171.5,233C 175.728,252.41 179.395,271.91 182.5,291.5C 177.337,291.08 172.504,292.08 168,294.5C 165.858,285.576 163.025,276.909 159.5,268.5C 155.812,261.786 152.145,255.119 148.5,248.5C 155.357,244.907 161.691,240.573 167.5,235.5C 168.222,235.082 168.722,234.416 169,233.5C 169.71,227.669 170.543,222.002 171.5,216.5 Z"/></g>
<g><path style="opacity:1" fill="#cfa28b" d="M 111.5,218.5 C 112.586,218.62 113.253,219.287 113.5,220.5C 111.845,222.754 109.678,224.421 107,225.5C 106.5,225.167 106,224.833 105.5,224.5C 107.103,222.046 109.103,220.046 111.5,218.5 Z"/></g>
<g><path style="opacity:1" fill="#c79d86" d="M 113.5,235.5 C 114.371,238.003 115.037,240.67 115.5,243.5C 115.586,244.496 115.252,245.329 114.5,246C 105.532,248.657 100.699,245.49 100,236.5C 102.027,230.642 105.86,226.642 111.5,224.5C 112.167,228.313 112.834,231.979 113.5,235.5 Z"/></g>
<g><path style="opacity:1" fill="#000000" d="M 174.5,225.5 C 175.251,224.427 176.251,224.26 177.5,225C 184.167,230.667 190.833,236.333 197.5,242C 200.243,244.038 203.243,245.538 206.5,246.5C 207.189,247.774 208.023,247.774 209,246.5C 210.427,242.611 211.927,238.778 213.5,235C 212.756,233.961 211.756,233.461 210.5,233.5C 210.53,232.503 210.03,231.836 209,231.5C 204.129,229.932 199.296,228.265 194.5,226.5C 193.702,226.043 193.369,225.376 193.5,224.5C 199.572,226.023 205.572,227.857 211.5,230C 212.667,231.167 213.833,232.333 215,233.5C 214.365,238.526 212.865,243.359 210.5,248C 209.391,248.638 208.225,249.138 207,249.5C 203.279,248.057 199.779,246.223 196.5,244C 189.001,237.998 181.668,231.832 174.5,225.5 Z"/></g>
<g><path style="opacity:1" fill="#499415" d="M 139.5,234.5 C 139.771,236.38 139.104,237.713 137.5,238.5C 132.716,238.57 128.049,239.237 123.5,240.5C 123.162,237.989 123.162,235.655 123.5,233.5C 128.806,236.302 133.973,235.968 139,232.5C 139.464,233.094 139.631,233.761 139.5,234.5 Z"/></g>
<g><path style="opacity:1" fill="#3f7b16" d="M 155.5,236.5 C 152.037,238.891 148.371,239.558 144.5,238.5C 144.5,236.833 144.5,235.167 144.5,233.5C 147.193,233.572 149.86,233.905 152.5,234.5C 154.03,234.64 155.03,235.307 155.5,236.5 Z"/></g>
<g><path style="opacity:1" fill="#fec90d" d="M 210.5,233.5 C 211.756,233.461 212.756,233.961 213.5,235C 211.927,238.778 210.427,242.611 209,246.5C 208.023,247.774 207.189,247.774 206.5,246.5C 207.104,242.05 208.437,237.717 210.5,233.5 Z"/></g>
<g><path style="opacity:1" fill="#7e817d" d="M 122.5,255.5 C 122.806,258.385 122.473,261.052 121.5,263.5C 117.113,267.362 112.113,270.195 106.5,272C 110.426,273.027 114.093,274.527 117.5,276.5C 116.305,280.787 116.305,285.12 117.5,289.5C 112.833,290.833 108.167,290.833 103.5,289.5C 103.356,285.489 103.023,281.489 102.5,277.5C 103.801,267.859 104.801,258.192 105.5,248.5C 110.399,248.711 115.066,248.211 119.5,247C 120.996,249.714 121.996,252.547 122.5,255.5 Z"/></g>
<g><path style="opacity:1" fill="#3a3a3a" d="M 127.5,269.5 C 126.508,269.672 125.842,269.338 125.5,268.5C 123.964,264.283 122.964,259.95 122.5,255.5C 122.192,253.076 122.526,250.743 123.5,248.5C 126.228,249.145 128.895,249.979 131.5,251C 130.667,251.833 129.833,252.667 129,253.5C 128.827,259.016 128.327,264.349 127.5,269.5 Z"/></g>
<g><path style="opacity:1" fill="#575a57" d="M 121.5,263.5 C 121.239,268.225 119.905,272.559 117.5,276.5C 114.093,274.527 110.426,273.027 106.5,272C 112.113,270.195 117.113,267.362 121.5,263.5 Z"/></g>
<g><path style="opacity:1" fill="#404140" d="M 159.5,268.5 C 159.369,267.624 159.702,266.957 160.5,266.5C 165.561,269.588 169.894,268.755 173.5,264C 174.5,263.333 175.5,263.333 176.5,264C 174.65,267.362 172.317,270.362 169.5,273C 168.167,273.667 166.833,273.667 165.5,273C 163.34,271.668 161.34,270.168 159.5,268.5 Z"/></g>
<g><path style="opacity:1" fill="#fec90d" d="M 125.5,268.5 C 125.842,269.338 126.508,269.672 127.5,269.5C 128.569,272.408 128.736,275.408 128,278.5C 124.542,275.759 123.708,272.425 125.5,268.5 Z"/></g>
<g><path style="opacity:1" fill="#1e1d1e" d="M 103.5,291.5 C 108.157,292.741 112.823,292.741 117.5,291.5C 117.747,297.541 117.414,303.541 116.5,309.5C 123.425,323.427 119.092,328.927 103.5,326C 102.643,325.311 101.977,324.478 101.5,323.5C 102.757,321.321 104.257,319.321 106,317.5C 106.519,308.674 105.686,300.008 103.5,291.5 Z"/></g>
<g><path style="opacity:1" fill="#1e1d1e" d="M 174.5,293.5 C 177.5,293.5 180.5,293.5 183.5,293.5C 184.609,300.5 184.775,307.5 184,314.5C 188.167,317.333 191.667,320.833 194.5,325C 190.142,327.372 185.476,328.038 180.5,327C 177.842,323.343 174.842,320.009 171.5,317C 173.254,309.656 172.254,302.656 168.5,296C 170.723,295.434 172.723,294.6 174.5,293.5 Z"/></g>
</svg>
