<?xml version="1.0" encoding="UTF-8"?>
<!DOCTYPE svg PUBLIC "-//W3C//DTD SVG 1.1//EN" "http://www.w3.org/Graphics/SVG/1.1/DTD/svg11.dtd">
<svg xmlns="http://www.w3.org/2000/svg" version="1.1" width="403px" height="400px" style="shape-rendering:geometricPrecision; text-rendering:geometricPrecision; image-rendering:optimizeQuality; fill-rule:evenodd; clip-rule:evenodd" xmlns:xlink="http://www.w3.org/1999/xlink">
<g><path style="opacity:1" fill="#fefffe" d="M 180.5,6.5 C 185.43,6.19749 190.263,6.53082 195,7.5C 195.204,17.3907 195.204,27.3907 195,37.5C 201.548,45.0495 206.881,53.3828 211,62.5C 212.513,71.4469 212.846,80.4469 212,89.5C 209.256,92.1248 206.089,94.1248 202.5,95.5C 201.614,96.325 201.281,97.325 201.5,98.5C 208.542,96.9036 212.542,99.5703 213.5,106.5C 217.068,106.759 218.401,108.759 217.5,112.5C 256.336,111.38 295.17,110.046 334,108.5C 351.252,108.687 368.419,109.854 385.5,112C 386.617,115.073 386.784,118.24 386,121.5C 384.933,122.191 383.766,122.691 382.5,123C 367.806,123.39 353.139,124.223 338.5,125.5C 338.023,126.478 337.357,127.311 336.5,128C 328.464,128.277 320.464,128.943 312.5,130C 311.672,130.915 310.672,131.581 309.5,132C 290.446,132.372 271.446,133.539 252.5,135.5C 252.666,141.842 252.5,148.175 252,154.5C 250.833,155.667 249.667,156.833 248.5,158C 240.855,159.744 233.188,159.91 225.5,158.5C 224.737,161.141 224.57,163.808 225,166.5C 228.195,173.753 231.195,181.086 234,188.5C 245.018,193.875 249.685,202.542 248,214.5C 247,215.167 246,215.833 245,216.5C 244.667,220.833 244.333,225.167 244,229.5C 242.933,230.191 241.766,230.691 240.5,231C 246.599,241.701 251.766,252.868 256,264.5C 259.62,283.6 263.62,302.6 268,321.5C 268.774,323.939 270.274,325.773 272.5,327C 279.414,330.707 286.248,334.54 293,338.5C 293.667,342.167 293.667,345.833 293,349.5C 290.374,352.231 287.207,354.064 283.5,355C 275.785,355.762 268.119,355.429 260.5,354C 255.223,352.13 249.89,350.463 244.5,349C 242.714,348.215 241.214,347.049 240,345.5C 238.621,340.964 238.121,336.297 238.5,331.5C 234.87,331.235 231.703,329.902 229,327.5C 227.487,315.853 226.153,304.187 225,292.5C 223.36,288.608 222.027,284.608 221,280.5C 213.79,273.959 208.124,266.293 204,257.5C 197.853,277.081 191.853,296.748 186,316.5C 184.196,321.58 182.196,326.58 180,331.5C 178.004,331.996 176.337,332.996 175,334.5C 175.198,353.175 166.031,360.675 147.5,357C 145.391,355.859 143.558,354.359 142,352.5C 141.333,345.5 141.333,338.5 142,331.5C 146.872,323.263 149.205,314.263 149,304.5C 149.966,297.618 152.299,291.285 156,285.5C 158.346,277.804 159.846,269.971 160.5,262C 160.167,259.167 159.833,256.333 159.5,253.5C 153.012,252.514 148.845,248.847 147,242.5C 146.503,240.19 146.337,237.857 146.5,235.5C 143.675,235.919 141.509,234.919 140,232.5C 139.333,223.167 139.333,213.833 140,204.5C 143.051,201.088 146.884,199.088 151.5,198.5C 152.474,196.257 152.808,193.924 152.5,191.5C 148.077,191.256 145.244,188.922 144,184.5C 142.202,179.311 141.369,173.978 141.5,168.5C 121.73,168.207 114.896,158.54 121,139.5C 122.618,133.368 126.451,130.035 132.5,129.5C 130.686,122.609 131.186,115.942 134,109.5C 134.833,108.667 135.667,107.833 136.5,107C 139.833,106.667 143.167,106.333 146.5,106C 146,105.5 145.5,105 145,104.5C 144.333,100.833 144.333,97.1667 145,93.5C 148.498,91.4458 152.165,89.7791 156,88.5C 156.333,78.1667 156.667,67.8333 157,57.5C 157.5,57 158,56.5 158.5,56C 174.597,56.9388 176.764,51.7721 165,40.5C 164.333,32.5 164.333,24.5 165,16.5C 168.536,10.4905 173.703,7.1572 180.5,6.5 Z"/></g>
<g><path style="opacity:1" fill="#010101" d="M 182.5,8.5 C 186.106,8.21083 189.606,8.54416 193,9.5C 192.693,15.1894 192.86,20.856 193.5,26.5C 193.155,30.2383 192.488,33.905 191.5,37.5C 197.25,44.4176 202.417,51.7509 207,59.5C 210.282,68.5499 211.282,77.8832 210,87.5C 207.256,90.1248 204.089,92.1248 200.5,93.5C 199.526,95.7427 199.192,98.076 199.5,100.5C 206.542,98.9036 210.542,101.57 211.5,108.5C 215.068,108.759 216.401,110.759 215.5,114.5C 255.009,113.49 294.509,112.157 334,110.5C 350.583,110.754 367.083,111.92 383.5,114C 385.439,117.689 384.439,120.023 380.5,121C 365.806,121.39 351.139,122.223 336.5,123.5C 336.023,124.478 335.357,125.311 334.5,126C 326.464,126.277 318.464,126.943 310.5,128C 309.672,128.915 308.672,129.581 307.5,130C 288.05,130.112 268.716,131.612 249.5,134.5C 250.624,140.448 250.79,146.448 250,152.5C 246.2,156.275 241.534,157.941 236,157.5C 231.84,157.024 227.673,156.691 223.5,156.5C 223.318,158.675 222.651,160.675 221.5,162.5C 224.76,171.112 227.927,179.778 231,188.5C 235.107,191.915 239.107,195.581 243,199.5C 246.186,203.298 247.186,207.632 246,212.5C 245,213.167 244,213.833 243,214.5C 242.667,218.833 242.333,223.167 242,227.5C 240.266,228.249 238.433,228.749 236.5,229C 243.289,241.023 249.122,253.523 254,266.5C 257.62,285.6 261.62,304.6 266,323.5C 266.774,325.939 268.274,327.773 270.5,329C 277.414,332.707 284.248,336.54 291,340.5C 291.667,342.833 291.667,345.167 291,347.5C 284.515,353.114 277.015,354.948 268.5,353C 261,351.582 253.667,349.582 246.5,347C 242.047,344.929 240.047,341.429 240.5,336.5C 240.54,334.571 240.873,332.738 241.5,331C 237.804,329.545 234.304,327.712 231,325.5C 229.487,313.853 228.153,302.187 227,290.5C 225.36,286.608 224.027,282.608 223,278.5C 215.2,270.898 208.867,262.231 204,252.5C 201.806,255.554 200.139,258.888 199,262.5C 193.609,285.339 186.609,307.672 178,329.5C 176.004,329.996 174.337,330.996 173,332.5C 173.906,349.263 166.073,356.763 149.5,355C 147.391,353.859 145.558,352.359 144,350.5C 142.054,341.033 143.721,332.366 149,324.5C 149.535,318.485 150.201,312.485 151,306.5C 155.122,295.354 158.789,284.02 162,272.5C 162.831,265.476 162.664,258.476 161.5,251.5C 155.012,250.514 150.845,246.847 149,240.5C 148.503,238.19 148.337,235.857 148.5,233.5C 145.675,233.919 143.509,232.919 142,230.5C 141.333,222.5 141.333,214.5 142,206.5C 145.051,203.088 148.884,201.088 153.5,200.5C 154.489,196.893 154.823,193.226 154.5,189.5C 151.675,189.919 149.509,188.919 148,186.5C 145.075,179.802 143.242,172.802 142.5,165.5C 133.628,167.317 126.795,164.317 122,156.5C 120.076,146.94 122.576,138.774 129.5,132C 131.833,131.667 134.167,131.333 136.5,131C 131.827,123.074 132.493,115.741 138.5,109C 142.152,108.501 145.818,108.335 149.5,108.5C 149.872,105.978 149.039,103.978 147,102.5C 146.333,100.167 146.333,97.8333 147,95.5C 150.498,93.4458 154.165,91.7791 158,90.5C 158.333,80.1667 158.667,69.8333 159,59.5C 159.5,59 160,58.5 160.5,58C 165.574,57.5743 170.574,56.741 175.5,55.5C 175.339,48.4213 172.505,42.7546 167,38.5C 166.333,31.8333 166.333,25.1667 167,18.5C 170.536,12.4905 175.703,9.1572 182.5,8.5 Z"/></g>
<g><path style="opacity:1" fill="#7ACA7A" d="M 183.5,38.5 C 183.158,39.3382 182.492,39.6716 181.5,39.5C 180.508,39.3284 179.842,39.6618 179.5,40.5C 177.251,39.9202 175.585,38.5869 174.5,36.5C 180.867,38.6297 183.034,36.6297 181,30.5C 179.902,35.8403 177.735,36.5069 174.5,32.5C 173.614,33.325 173.281,34.325 173.5,35.5C 172.305,35.1344 171.639,34.301 171.5,33C 172.018,29.1446 172.351,25.3112 172.5,21.5C 176.111,16.68 180.944,14.0133 187,13.5C 186.728,18.4547 186.894,23.6214 187.5,29C 186.6,32.3053 185.267,35.472 183.5,38.5 Z"/></g>
<g><path style="opacity:1" fill="#539553" d="M 174.5,36.5 C 173.833,36.5 173.5,36.1667 173.5,35.5C 173.281,34.325 173.614,33.325 174.5,32.5C 177.735,36.5069 179.902,35.8403 181,30.5C 183.034,36.6297 180.867,38.6297 174.5,36.5 Z"/></g>
<g><path style="opacity:1" fill="#86DB85" d="M 183.5,38.5 C 190.911,46.7596 197.411,55.7596 203,65.5C 205.118,71.3461 205.785,77.3461 205,83.5C 204.399,85.3588 203.566,85.6921 202.5,84.5C 204.427,81.8632 204.927,78.8632 204,75.5C 200.194,66.5545 195.861,57.8878 191,49.5C 187.629,46.2975 184.462,42.9641 181.5,39.5C 182.492,39.6716 183.158,39.3382 183.5,38.5 Z"/></g>
<g><path style="opacity:1" fill="#858D7A" d="M 181.5,39.5 C 184.462,42.9641 187.629,46.2975 191,49.5C 195.861,57.8878 200.194,66.5545 204,75.5C 204.927,78.8632 204.427,81.8632 202.5,84.5C 200.426,85.5139 198.426,86.5139 196.5,87.5C 185.513,92.7103 173.846,95.7103 161.5,96.5C 160.448,96.6495 159.448,96.4828 158.5,96C 161.069,95.1016 163.402,93.935 165.5,92.5C 174.735,89.8545 184.068,87.1878 193.5,84.5C 194.583,84.5394 195.583,84.8728 196.5,85.5C 196.833,85 197.167,84.5 197.5,84C 195,77.1667 192.5,70.3333 190,63.5C 188.516,59.5123 185.683,57.8456 181.5,58.5C 180.742,53.6309 179.742,48.7976 178.5,44C 178.648,42.7441 178.982,41.5774 179.5,40.5C 179.842,39.6618 180.508,39.3284 181.5,39.5 Z"/></g>
<g><path style="opacity:1" fill="#97A189" d="M 189.5,75.5 C 181.76,78.1016 173.76,80.1016 165.5,81.5C 164.184,78.9134 163.517,75.9134 163.5,72.5C 163.521,69.2478 163.854,66.0811 164.5,63C 171.511,61.961 178.511,61.2944 185.5,61C 187.971,64.899 189.971,69.0656 191.5,73.5C 190.757,74.1818 190.091,74.8485 189.5,75.5 Z"/></g>
<g><path style="opacity:1" fill="#86DB85" d="M 189.5,75.5 C 190.5,75.5 191.5,75.5 192.5,75.5C 192.724,77.7867 193.391,79.9534 194.5,82C 194.257,82.9021 193.923,83.7354 193.5,84.5C 184.068,87.1878 174.735,89.8545 165.5,92.5C 164.223,91.3064 163.556,89.6397 163.5,87.5C 163.676,85.2147 164.343,83.2147 165.5,81.5C 173.76,80.1016 181.76,78.1016 189.5,75.5 Z"/></g>
<g><path style="opacity:1" fill="#86DB85" d="M 196.5,87.5 C 197.773,88.0768 197.773,88.7435 196.5,89.5C 193.741,90.8793 191.075,92.2126 188.5,93.5C 187.209,93.2627 186.209,93.596 185.5,94.5C 182.215,94.9281 179.215,95.9281 176.5,97.5C 174.901,97.2322 173.568,97.5655 172.5,98.5C 166.631,99.2282 160.797,100.228 155,101.5C 152.435,101.157 151.601,99.99 152.5,98C 155.695,97.8195 158.695,97.3195 161.5,96.5C 173.846,95.7103 185.513,92.7103 196.5,87.5 Z"/></g>
<g><path style="opacity:1" fill="#E68846" d="M 196.5,96.5 C 194.539,98.3122 192.206,99.3122 189.5,99.5C 187.606,95.7737 187.273,96.107 188.5,100.5C 183.537,101.254 178.537,101.587 173.5,101.5C 173.167,101.5 172.833,101.5 172.5,101.5C 172.5,100.5 172.5,99.5 172.5,98.5C 173.568,97.5655 174.901,97.2322 176.5,97.5C 178.144,97.7135 179.644,97.3802 181,96.5C 182.081,98.7671 183.581,98.9338 185.5,97C 184.833,96.6667 184.167,96.3333 183.5,96C 184.416,95.7216 185.082,95.2216 185.5,94.5C 186.209,93.596 187.209,93.2627 188.5,93.5C 190.384,93.7118 191.717,94.7118 192.5,96.5C 193.711,95.7261 193.711,94.8928 192.5,94C 195.309,91.9436 196.642,92.7769 196.5,96.5 Z"/></g>
<g><path style="opacity:1" fill="#000000" d="M 185.5,94.5 C 185.082,95.2216 184.416,95.7216 183.5,96C 184.167,96.3333 184.833,96.6667 185.5,97C 183.581,98.9338 182.081,98.7671 181,96.5C 179.644,97.3802 178.144,97.7135 176.5,97.5C 179.215,95.9281 182.215,94.9281 185.5,94.5 Z"/></g>
<g><path style="opacity:1" fill="#000000" d="M 189.5,99.5 C 190.6,100.605 191.267,101.938 191.5,103.5C 191.179,105.048 190.179,105.715 188.5,105.5C 189.091,104.849 189.757,104.182 190.5,103.5C 189.807,102.482 189.141,101.482 188.5,100.5C 187.273,96.107 187.606,95.7737 189.5,99.5 Z"/></g>
<g><path style="opacity:1" fill="#FFD391" d="M 196.5,96.5 C 197.053,101.482 197.387,106.482 197.5,111.5C 196.016,113.074 194.349,114.407 192.5,115.5C 187.595,114.555 182.595,114.221 177.5,114.5C 175.088,110.524 173.755,106.191 173.5,101.5C 178.537,101.587 183.537,101.254 188.5,100.5C 189.141,101.482 189.807,102.482 190.5,103.5C 189.757,104.182 189.091,104.849 188.5,105.5C 186.343,103.475 184.009,103.641 181.5,106C 178.467,107.737 177.967,109.903 180,112.5C 180.816,111.177 181.983,110.511 183.5,110.5C 185.801,109.94 188.134,109.44 190.5,109C 188.866,108.506 187.199,108.34 185.5,108.5C 188.985,106.946 192.152,107.613 195,110.5C 196.937,106.877 195.77,104.543 191.5,103.5C 191.267,101.938 190.6,100.605 189.5,99.5C 192.206,99.3122 194.539,98.3122 196.5,96.5 Z"/></g>
<g><path style="opacity:1" fill="#614731" d="M 172.5,101.5 C 172.833,101.5 173.167,101.5 173.5,101.5C 173.755,106.191 175.088,110.524 177.5,114.5C 177.158,115.338 176.492,115.672 175.5,115.5C 174.094,115.027 173.427,114.027 173.5,112.5C 173.573,110.973 172.906,109.973 171.5,109.5C 171.784,107.585 171.451,105.919 170.5,104.5C 169.596,103.791 169.263,102.791 169.5,101.5C 169.369,100.624 169.702,99.9569 170.5,99.5C 171.182,100.243 171.849,100.909 172.5,101.5 Z"/></g>
<g><path style="opacity:1" fill="#FFD391" d="M 169.5,101.5 C 169.263,102.791 169.596,103.791 170.5,104.5C 170.719,105.675 170.386,106.675 169.5,107.5C 167.787,106.122 166.453,104.455 165.5,102.5C 166.437,100.358 167.77,100.024 169.5,101.5 Z"/></g>
<g><path style="opacity:1" fill="#BC5D1F" d="M 188.5,105.5 C 190.179,105.715 191.179,105.048 191.5,103.5C 195.77,104.543 196.937,106.877 195,110.5C 192.152,107.613 188.985,106.946 185.5,108.5C 184.5,108.833 183.833,109.5 183.5,110.5C 181.983,110.511 180.816,111.177 180,112.5C 177.967,109.903 178.467,107.737 181.5,106C 184.009,103.641 186.343,103.475 188.5,105.5 Z"/></g>
<g><path style="opacity:1" fill="#9FA691" d="M 194.5,116.5 C 193.508,116.672 192.842,116.338 192.5,115.5C 194.349,114.407 196.016,113.074 197.5,111.5C 198.461,109.735 198.795,107.735 198.5,105.5C 203.576,105.073 206.409,107.407 207,112.5C 208.011,113.337 209.178,113.67 210.5,113.5C 210.657,114.873 210.49,116.207 210,117.5C 207.694,115.112 204.861,114.112 201.5,114.5C 198.795,114.316 196.462,114.983 194.5,116.5 Z"/></g>
<g><path style="opacity:1" fill="#7D8E72" d="M 155.5,107.5 C 157.472,108.451 159.472,109.451 161.5,110.5C 163.967,114.745 165.801,119.078 167,123.5C 164.888,119.722 162.388,116.222 159.5,113C 157.564,112.187 155.564,111.687 153.5,111.5C 153.527,109.801 154.194,108.467 155.5,107.5 Z"/></g>
<g><path style="opacity:1" fill="#A3AC93" d="M 171.5,109.5 C 170.878,110.627 170.045,111.627 169,112.5C 168.845,114.856 168.845,117.189 169,119.5C 166.913,116.327 165.079,112.994 163.5,109.5C 166.199,108.271 168.865,108.271 171.5,109.5 Z"/></g>
<g><path style="opacity:1" fill="#000000" d="M 185.5,108.5 C 187.199,108.34 188.866,108.506 190.5,109C 188.134,109.44 185.801,109.94 183.5,110.5C 183.833,109.5 184.5,108.833 185.5,108.5 Z"/></g>
<g><path style="opacity:1" fill="#fefffe" d="M 173.5,112.5 C 173.427,114.027 174.094,115.027 175.5,115.5C 176.568,116.434 177.901,116.768 179.5,116.5C 181.833,117.167 184.167,117.833 186.5,118.5C 181.36,119.197 176.693,118.197 172.5,115.5C 172.263,114.209 172.596,113.209 173.5,112.5 Z"/></g>
<g><path style="opacity:1" fill="#A3AC93" d="M 145.5,115.5 C 144.127,115.657 142.793,115.49 141.5,115C 143.124,112.981 144.457,113.148 145.5,115.5 Z"/></g>
<g><path style="opacity:1" fill="#A3AC93" d="M 148.5,114.5 C 151.74,113.258 155.074,113.424 158.5,115C 159.574,115.739 160.241,116.739 160.5,118C 158.79,119.611 156.957,121.111 155,122.5C 154.934,117.998 152.768,115.332 148.5,114.5 Z"/></g>
<g><path style="opacity:1" fill="#6CA86C" d="M 172.5,115.5 C 176.693,118.197 181.36,119.197 186.5,118.5C 186.5,118.833 186.5,119.167 186.5,119.5C 186.5,119.833 186.5,120.167 186.5,120.5C 184.819,122.008 182.819,123.008 180.5,123.5C 177.426,123.127 174.426,122.461 171.5,121.5C 170.992,118.824 170.825,116.157 171,113.5C 171.278,114.416 171.778,115.082 172.5,115.5 Z"/></g>
<g><path style="opacity:1" fill="#494039" d="M 177.5,114.5 C 182.595,114.221 187.595,114.555 192.5,115.5C 192.842,116.338 193.508,116.672 194.5,116.5C 194.158,117.338 193.492,117.672 192.5,117.5C 188.215,116.705 183.881,116.372 179.5,116.5C 177.901,116.768 176.568,116.434 175.5,115.5C 176.492,115.672 177.158,115.338 177.5,114.5 Z"/></g>
<g><path style="opacity:1" fill="#DFDFDF" d="M 327.5,114.5 C 344.848,114.966 362.181,115.799 379.5,117C 367.497,117.423 355.497,117.923 343.5,118.5C 339.916,118.482 336.416,118.148 333,117.5C 331.266,118.249 329.433,118.749 327.5,119C 332.534,119.317 332.701,120.484 328,122.5C 326.739,122.241 325.739,121.574 325,120.5C 321.792,123.487 319.959,122.82 319.5,118.5C 321.981,118.677 323.814,117.677 325,115.5C 326.007,117.742 326.841,117.408 327.5,114.5 Z"/></g>
<g><path style="opacity:1" fill="#A3AC93" d="M 145.5,115.5 C 152.642,117.087 154.142,120.754 150,126.5C 146.447,129.477 144.28,128.643 143.5,124C 143.826,121.516 144.826,119.349 146.5,117.5C 146.137,116.817 145.804,116.15 145.5,115.5 Z"/></g>
<g><path style="opacity:1" fill="#000000" d="M 179.5,116.5 C 183.881,116.372 188.215,116.705 192.5,117.5C 190.735,118.461 188.735,118.795 186.5,118.5C 184.167,117.833 181.833,117.167 179.5,116.5 Z"/></g>
<g><path style="opacity:1" fill="#86DB85" d="M 194.5,116.5 C 196.048,116.821 196.715,117.821 196.5,119.5C 193.167,119.5 189.833,119.5 186.5,119.5C 186.5,119.167 186.5,118.833 186.5,118.5C 188.735,118.795 190.735,118.461 192.5,117.5C 193.492,117.672 194.158,117.338 194.5,116.5 Z"/></g>
<g><path style="opacity:1" fill="#A3AC93" d="M 199.5,120.5 C 198.766,119.292 198.433,117.959 198.5,116.5C 207.471,116.459 207.804,117.792 199.5,120.5 Z"/></g>
<g><path style="opacity:1" fill="#E0E1E0" d="M 304.5,118.5 C 280.322,118.505 256.322,119.172 232.5,120.5C 225.956,120.603 219.623,120.603 213.5,120.5C 247.323,118.448 281.323,117.282 315.5,117C 311.644,117.177 307.977,117.677 304.5,118.5 Z"/></g>
<g><path style="opacity:1" fill="#fec90d" d="M 316.5,116.5 C 317.649,116.791 318.316,117.624 318.5,119C 318.167,119.833 317.833,120.667 317.5,121.5C 316.548,119.955 316.215,118.288 316.5,116.5 Z"/></g>
<g><path style="opacity:1" fill="#A3AC93" d="M 139.5,117.5 C 141.199,117.34 142.866,117.506 144.5,118C 143.044,120.266 142.21,122.766 142,125.5C 140.864,122.904 140.031,120.237 139.5,117.5 Z"/></g>
<g><path style="opacity:1" fill="#7A5846" d="M 304.5,118.5 C 308.167,118.5 311.833,118.5 315.5,118.5C 315.64,120.124 314.973,121.29 313.5,122C 306.321,122.171 299.321,122.671 292.5,123.5C 271.342,125.674 250.009,126.674 228.5,126.5C 226.132,122.251 224.632,122.584 224,127.5C 223.51,126.207 223.343,124.873 223.5,123.5C 226.203,121.89 229.203,120.89 232.5,120.5C 256.322,119.172 280.322,118.505 304.5,118.5 Z"/></g>
<g><path style="opacity:1" fill="#000000" d="M 146.5,120.5 C 149.063,121.998 149.063,123.665 146.5,125.5C 145.334,123.833 145.334,122.166 146.5,120.5 Z"/></g>
<g><path style="opacity:1" fill="#7D8E72" d="M 161.5,120.5 C 162.837,121.315 163.837,122.482 164.5,124C 160.286,126.024 156.119,128.191 152,130.5C 153.846,126.148 157.013,122.814 161.5,120.5 Z"/></g>
<g><path style="opacity:1" fill="#F7C589" d="M 186.5,120.5 C 190.833,120.5 195.167,120.5 199.5,120.5C 197.167,121.167 194.833,121.833 192.5,122.5C 191.427,123.251 191.26,124.251 192,125.5C 194,126.833 196,128.167 198,129.5C 198.483,130.448 198.649,131.448 198.5,132.5C 197.326,133.514 196.66,134.847 196.5,136.5C 195.127,136.343 193.793,136.51 192.5,137C 194.619,137.342 194.953,138.175 193.5,139.5C 192.06,140.363 190.726,140.363 189.5,139.5C 188.537,139.97 188.537,140.637 189.5,141.5C 186.594,141.043 183.928,140.043 181.5,138.5C 179.322,134.656 176.988,130.823 174.5,127C 176.727,126.059 178.727,124.892 180.5,123.5C 182.819,123.008 184.819,122.008 186.5,120.5 Z"/></g>
<g><path style="opacity:1" fill="#D8AD7B" d="M 223.5,123.5 C 223.343,124.873 223.51,126.207 224,127.5C 224.632,122.584 226.132,122.251 228.5,126.5C 228.328,127.492 228.662,128.158 229.5,128.5C 230.833,129.167 231.833,130.167 232.5,131.5C 233.551,132.222 234.218,133.222 234.5,134.5C 232.07,139.764 228.07,141.597 222.5,140C 221.944,139.617 221.611,139.117 221.5,138.5C 221.631,137.761 221.464,137.094 221,136.5C 220.329,137.252 219.496,137.586 218.5,137.5C 217.89,135.566 216.89,133.899 215.5,132.5C 214.808,129.103 214.808,125.77 215.5,122.5C 216.298,124.078 216.798,125.744 217,127.5C 217.908,120.517 218.908,120.183 220,126.5C 220.202,124.744 220.702,123.078 221.5,121.5C 222.182,122.243 222.849,122.909 223.5,123.5 Z"/></g>
<g><path style="opacity:1" fill="#634A3D" d="M 192.5,122.5 C 195.385,122.194 198.052,122.527 200.5,123.5C 200.67,124.822 200.337,125.989 199.5,127C 203.268,128.209 206.268,127.209 208.5,124C 209.793,123.51 211.127,123.343 212.5,123.5C 213.434,124.568 213.768,125.901 213.5,127.5C 211.901,127.232 210.568,127.566 209.5,128.5C 209.5,128.833 209.5,129.167 209.5,129.5C 205.498,129.678 201.831,130.678 198.5,132.5C 198.649,131.448 198.483,130.448 198,129.5C 196,128.167 194,126.833 192,125.5C 191.26,124.251 191.427,123.251 192.5,122.5 Z"/></g>
<g><path style="opacity:1" fill="#D2D2D2" d="M 213.5,120.5 C 213.443,121.609 213.11,122.609 212.5,123.5C 211.127,123.343 209.793,123.51 208.5,124C 206.268,127.209 203.268,128.209 199.5,127C 200.337,125.989 200.67,124.822 200.5,123.5C 203.517,122.575 206.35,121.242 209,119.5C 210.533,119.773 212.033,120.106 213.5,120.5 Z"/></g>
<g><path style="opacity:1" fill="#86DB85" d="M 169.5,123.5 C 174.989,129.13 177.656,135.797 177.5,143.5C 175.5,144.5 173.5,145.5 171.5,146.5C 169.062,142.558 166.062,139.058 162.5,136C 163.833,133 163.833,130 162.5,127C 165.281,126.478 167.615,125.311 169.5,123.5 Z"/></g>
<g><path style="opacity:1" fill="#fefffe" d="M 292.5,123.5 C 296.846,123.334 301.179,123.501 305.5,124C 301,125.945 296.667,125.778 292.5,123.5 Z"/></g>
<g><path style="opacity:1" fill="#fefffe" d="M 229.5,128.5 C 237.656,127.343 245.99,127.177 254.5,128C 249.643,128.307 244.81,128.807 240,129.5C 238.774,129.355 237.607,129.022 236.5,128.5C 235.358,129.826 234.024,130.826 232.5,131.5C 231.833,130.167 230.833,129.167 229.5,128.5 Z"/></g>
<g><path style="opacity:1" fill="#A3AC93" d="M 142.5,128.5 C 144.505,129.039 146.505,129.705 148.5,130.5C 145.736,132.803 143.736,132.136 142.5,128.5 Z"/></g>
<g><path style="opacity:1" fill="#969D87" d="M 159.5,128.5 C 160.693,128.97 161.36,129.97 161.5,131.5C 159.6,134.962 160.267,137.796 163.5,140C 162.833,140.333 162.167,140.667 161.5,141C 163.087,141.862 164.754,142.529 166.5,143C 164.122,143.974 164.456,144.641 167.5,145C 168.167,146 168.833,147 169.5,148C 162.413,151.961 155.246,155.794 148,159.5C 147.275,158.941 146.442,158.608 145.5,158.5C 142.278,159.969 138.944,160.469 135.5,160C 133.321,159.558 132.655,158.558 133.5,157C 132.551,156.383 131.718,156.549 131,157.5C 128.987,155.468 127.487,153.134 126.5,150.5C 127.653,145.361 129.986,140.861 133.5,137C 142.875,136.041 151.542,133.208 159.5,128.5 Z"/></g>
<g><path style="opacity:1" fill="#fefffe" d="M 209.5,129.5 C 209.5,129.167 209.5,128.833 209.5,128.5C 211.288,128.215 212.955,128.548 214.5,129.5C 212.905,130.434 211.239,130.434 209.5,129.5 Z"/></g>
<g><path style="opacity:1" fill="#fefffe" d="M 209.5,129.5 C 207.32,132.161 204.486,133.828 201,134.5C 199.624,134.316 198.791,133.649 198.5,132.5C 201.831,130.678 205.498,129.678 209.5,129.5 Z"/></g>
<g><path style="opacity:1" fill="#86DB85" d="M 221.5,138.5 C 221.611,139.117 221.944,139.617 222.5,140C 228.07,141.597 232.07,139.764 234.5,134.5C 235.1,131.375 236.267,131.042 238,133.5C 238.755,136.303 238.422,138.97 237,141.5C 231.054,146.634 225.721,146.301 221,140.5C 220.308,139.563 220.475,138.897 221.5,138.5 Z"/></g>
<g><path style="opacity:1" fill="#A3AC93" d="M 244.5,144.5 C 243.564,143.026 242.23,142.026 240.5,141.5C 240.784,138.223 240.451,135.057 239.5,132C 240.167,131.333 240.833,131.333 241.5,132C 244.543,135.905 245.543,140.071 244.5,144.5 Z"/></g>
<g><path style="opacity:1" fill="#727669" d="M 215.5,132.5 C 216.89,133.899 217.89,135.566 218.5,137.5C 218.12,142.203 219.12,146.536 221.5,150.5C 219.384,152.572 217.384,154.738 215.5,157C 216.517,158.049 216.684,159.216 216,160.5C 215.209,159.255 214.709,157.922 214.5,156.5C 214.5,155.833 214.5,155.167 214.5,154.5C 214.5,153.833 214.5,153.167 214.5,152.5C 217.797,152.671 218.131,152.005 215.5,150.5C 213.234,149.686 210.9,149.186 208.5,149C 210.382,148.802 212.048,148.302 213.5,147.5C 213.5,146.833 213.5,146.167 213.5,145.5C 211.631,144.835 209.631,144.169 207.5,143.5C 208.254,140.223 208.754,136.89 209,133.5C 211.041,132.577 213.208,132.244 215.5,132.5 Z"/></g>
<g><path style="opacity:1" fill="#A51E32" d="M 204.5,135.5 C 205.693,135.97 206.36,136.97 206.5,138.5C 205.817,142.199 204.317,145.532 202,148.5C 194.465,177.508 188.465,206.842 184,236.5C 182.438,241.39 179.438,245.057 175,247.5C 174.5,247.333 174,247.167 173.5,247C 175.96,245.542 178.127,243.709 180,241.5C 180.703,237.231 182.036,233.231 184,229.5C 186.72,209.459 189.72,189.459 193,169.5C 195.97,157.757 199.803,146.423 204.5,135.5 Z"/></g>
<g><path style="opacity:1" fill="#5B665B" d="M 196.5,136.5 C 197.962,137.458 199.295,138.624 200.5,140C 197.835,148.536 195.502,148.37 193.5,139.5C 194.953,138.175 194.619,137.342 192.5,137C 193.793,136.51 195.127,136.343 196.5,136.5 Z"/></g>
<g><path style="opacity:1" fill="#737869" d="M 240.5,141.5 C 242.23,142.026 243.564,143.026 244.5,144.5C 245.706,146.437 245.373,148.104 243.5,149.5C 241.091,148.299 239.091,146.633 237.5,144.5C 238.5,143.5 239.5,142.5 240.5,141.5 Z"/></g>
<g><path style="opacity:1" fill="#A3AC93" d="M 237.5,144.5 C 239.091,146.633 241.091,148.299 243.5,149.5C 238.009,153.163 232.342,153.163 226.5,149.5C 223.689,146.645 224.189,145.979 228,147.5C 231.154,146.393 234.32,145.393 237.5,144.5 Z"/></g>
<g><path style="opacity:1" fill="#FAFBFA" d="M 213.5,145.5 C 213.5,146.167 213.5,146.833 213.5,147.5C 204.365,146.37 204.365,145.703 213.5,145.5 Z"/></g>
<g><path style="opacity:1" fill="#717667" d="M 181.5,138.5 C 183.928,140.043 186.594,141.043 189.5,141.5C 191.134,142.207 192.468,143.373 193.5,145C 189.312,145.176 185.312,145.676 181.5,146.5C 181.5,147.167 181.5,147.833 181.5,148.5C 184.305,149.319 187.305,149.819 190.5,150C 189.956,150.717 189.289,151.217 188.5,151.5C 185.612,150.99 183.279,151.656 181.5,153.5C 182.609,154.29 183.942,154.79 185.5,155C 184.234,155.309 183.067,155.809 182,156.5C 176.374,163.794 170.374,170.794 164,177.5C 163.506,175.866 163.34,174.199 163.5,172.5C 164.903,165.243 168.903,159.743 175.5,156C 174.975,155.308 174.308,154.808 173.5,154.5C 169.952,155.97 166.285,156.97 162.5,157.5C 162.452,154.708 163.785,152.875 166.5,152C 169.994,150.421 173.327,148.587 176.5,146.5C 177.192,147.025 177.692,147.692 178,148.5C 178.5,147.333 179.333,146.5 180.5,146C 180.167,145.667 179.833,145.333 179.5,145C 180.117,142.723 180.784,140.556 181.5,138.5 Z"/></g>
<g><path style="opacity:1" fill="#FAFBFA" d="M 181.5,146.5 C 197.304,146.698 197.304,147.364 181.5,148.5C 181.5,147.833 181.5,147.167 181.5,146.5 Z"/></g>
<g><path style="opacity:1" fill="#676B5F" d="M 151.5,145.5 C 153.58,146.044 155.58,146.878 157.5,148C 154.5,149.167 151.5,150.333 148.5,151.5C 147.069,151.023 145.736,150.357 144.5,149.5C 146.904,148.157 149.238,146.823 151.5,145.5 Z"/></g>
<g><path style="opacity:1" fill="#D4D0A7" d="M 194.5,148.5 C 195.497,148.47 196.164,148.97 196.5,150C 194.925,154.464 193.425,158.964 192,163.5C 181.15,171.842 172.317,181.842 165.5,193.5C 164.11,188.416 164.277,183.416 166,178.5C 174.664,167.67 184.164,157.67 194.5,148.5 Z"/></g>
<g><path style="opacity:1" fill="#555E55" d="M 226.5,194.5 C 225.325,194.719 224.325,194.386 223.5,193.5C 218.698,178.233 212.031,163.9 203.5,150.5C 203.833,149.5 204.5,148.833 205.5,148.5C 215.572,162.362 222.572,177.696 226.5,194.5 Z"/></g>
<g><path style="opacity:1" fill="#FAFBFA" d="M 214.5,152.5 C 213.022,152.762 211.689,152.429 210.5,151.5C 211.167,151.167 211.833,150.833 212.5,150.5C 213.713,150.747 214.38,151.414 214.5,152.5 Z"/></g>
<g><path style="opacity:1" fill="#FAFBFA" d="M 188.5,151.5 C 188.389,152.117 188.056,152.617 187.5,153C 185.527,153.495 183.527,153.662 181.5,153.5C 183.279,151.656 185.612,150.99 188.5,151.5 Z"/></g>
<g><path style="opacity:1" fill="#A3AC93" d="M 163.5,172.5 C 163.387,167.482 163.053,162.482 162.5,157.5C 166.285,156.97 169.952,155.97 173.5,154.5C 174.308,154.808 174.975,155.308 175.5,156C 168.903,159.743 164.903,165.243 163.5,172.5 Z"/></g>
<g><path style="opacity:1" fill="#FAFBFA" d="M 214.5,154.5 C 214.5,155.167 214.5,155.833 214.5,156.5C 212.067,155.452 212.067,154.786 214.5,154.5 Z"/></g>
<g><path style="opacity:1" fill="#A51E32" d="M 159.5,155.5 C 161.425,173.998 163.092,192.665 164.5,211.5C 164.167,212.167 163.833,212.833 163.5,213.5C 162.664,206.322 161.33,199.322 159.5,192.5C 160.376,180.177 160.376,167.844 159.5,155.5 Z"/></g>
<g><path style="opacity:1" fill="#7D8E72" d="M 155.5,157.5 C 156.809,159.571 157.475,162.071 157.5,165C 158.083,171.49 158.416,177.99 158.5,184.5C 156.278,184.822 154.444,184.155 153,182.5C 149.595,175.881 148.261,168.881 149,161.5C 151.314,160.267 153.481,158.933 155.5,157.5 Z"/></g>
<g><path style="opacity:1" fill="#969A8C" d="M 207.5,164.5 C 206.167,165.167 204.833,165.833 203.5,166.5C 203.389,167.117 203.056,167.617 202.5,168C 204.387,168.78 206.054,168.613 207.5,167.5C 208.978,167.238 210.311,167.571 211.5,168.5C 210.051,169.172 208.718,169.839 207.5,170.5C 206.432,171.434 205.099,171.768 203.5,171.5C 200.203,171.329 199.869,171.995 202.5,173.5C 201.675,174.386 200.675,174.719 199.5,174.5C 196.887,173.905 196.887,173.071 199.5,172C 198.663,170.989 198.33,169.822 198.5,168.5C 199.552,168.649 200.552,168.483 201.5,168C 200.529,166.796 199.529,166.296 198.5,166.5C 199.025,165.808 199.692,165.308 200.5,165C 199.542,163.853 199.875,162.853 201.5,162C 200.542,160.853 200.875,159.853 202.5,159C 201.739,153.767 202.739,153.434 205.5,158C 204.833,158.333 204.167,158.667 203.5,159C 207.807,159.866 208.14,160.866 204.5,162C 205.833,162.333 207.167,162.667 208.5,163C 207.944,163.383 207.611,163.883 207.5,164.5 Z"/></g>
<g><path style="opacity:1" fill="#FAFBFA" d="M 207.5,164.5 C 211.418,165.525 211.418,166.525 207.5,167.5C 206.041,167.567 204.708,167.234 203.5,166.5C 204.833,165.833 206.167,165.167 207.5,164.5 Z"/></g>
<g><path style="opacity:1" fill="#FAFBFA" d="M 189.5,168.5 C 189.783,167.711 190.283,167.044 191,166.5C 191.528,167.816 191.028,168.483 189.5,168.5 Z"/></g>
<g><path style="opacity:1" fill="#000000" d="M 203.5,166.5 C 204.708,167.234 206.041,167.567 207.5,167.5C 206.054,168.613 204.387,168.78 202.5,168C 203.056,167.617 203.389,167.117 203.5,166.5 Z"/></g>
<g><path style="opacity:1" fill="#A3AC93" d="M 189.5,168.5 C 190.234,169.708 190.567,171.041 190.5,172.5C 188.585,172.216 186.919,172.549 185.5,173.5C 184.475,173.103 184.308,172.437 185,171.5C 186.271,170.117 187.771,169.117 189.5,168.5 Z"/></g>
<g><path style="opacity:1" fill="#FAFBFA" d="M 207.5,170.5 C 209.75,170.181 211.75,170.681 213.5,172C 212.584,172.278 211.918,172.778 211.5,173.5C 209.738,173.357 208.071,173.691 206.5,174.5C 204.787,174.121 203.787,173.121 203.5,171.5C 205.099,171.768 206.432,171.434 207.5,170.5 Z"/></g>
<g><path style="opacity:1" fill="#FAFBFA" d="M 183.5,175.5 C 180.999,175.489 180.832,174.822 183,173.5C 183.464,174.094 183.631,174.761 183.5,175.5 Z"/></g>
<g><path style="opacity:1" fill="#606459" d="M 203.5,171.5 C 203.787,173.121 204.787,174.121 206.5,174.5C 208.071,173.691 209.738,173.357 211.5,173.5C 212.5,173.5 213.5,173.5 214.5,173.5C 214.5,174.5 214.5,175.5 214.5,176.5C 214.167,176.5 213.833,176.5 213.5,176.5C 210.478,176.804 207.478,177.304 204.5,178C 205.416,178.278 206.082,178.778 206.5,179.5C 204.857,179.52 203.524,178.853 202.5,177.5C 201.818,178.243 201.151,178.909 200.5,179.5C 200.5,178.833 200.5,178.167 200.5,177.5C 199.737,176.732 198.737,176.232 197.5,176C 198.416,175.722 199.082,175.222 199.5,174.5C 200.675,174.719 201.675,174.386 202.5,173.5C 199.869,171.995 200.203,171.329 203.5,171.5 Z"/></g>
<g><path style="opacity:1" fill="#A1A794" d="M 185.5,173.5 C 186.833,173.5 188.167,173.5 189.5,173.5C 189.5,174.5 189.5,175.5 189.5,176.5C 184.206,176.682 184.206,177.182 189.5,178C 187.833,178.333 186.167,178.667 184.5,179C 189.833,180 189.833,181 184.5,182C 188.852,182.419 189.185,183.086 185.5,184C 189.378,184.949 189.378,186.115 185.5,187.5C 188.028,188.816 188.028,189.983 185.5,191C 186.308,191.308 186.975,191.808 187.5,192.5C 186.607,195.084 186.274,197.751 186.5,200.5C 182.629,200.185 178.962,200.518 175.5,201.5C 172.167,201.5 168.833,201.5 165.5,201.5C 165.201,199.396 165.534,197.396 166.5,195.5C 170.901,189.712 175.067,183.712 179,177.5C 180.622,176.901 182.122,176.234 183.5,175.5C 184.5,175.167 185.167,174.5 185.5,173.5 Z"/></g>
<g><path style="opacity:1" fill="#FAFBFA" d="M 213.5,176.5 C 211.964,179.092 209.631,180.092 206.5,179.5C 206.082,178.778 205.416,178.278 204.5,178C 207.478,177.304 210.478,176.804 213.5,176.5 Z"/></g>
<g><path style="opacity:1" fill="#8A907E" d="M 213.5,176.5 C 213.833,176.5 214.167,176.5 214.5,176.5C 217.537,182.755 220.204,189.255 222.5,196C 221.552,196.483 220.552,196.649 219.5,196.5C 218.85,196.196 218.183,195.863 217.5,195.5C 212.963,197.134 208.296,198.134 203.5,198.5C 200.941,198.198 198.607,198.532 196.5,199.5C 195.022,199.762 193.689,199.429 192.5,198.5C 193.009,195.538 194.009,192.871 195.5,190.5C 197.565,190.483 199.565,190.15 201.5,189.5C 202.151,188.909 202.818,188.243 203.5,187.5C 204.182,188.243 204.849,188.909 205.5,189.5C 209.188,189.219 212.855,188.719 216.5,188C 215.944,187.617 215.611,187.117 215.5,186.5C 213.833,185.833 212.167,185.167 210.5,184.5C 211.609,183.71 212.942,183.21 214.5,183C 213.667,182.833 212.833,182.667 212,182.5C 209.592,183.536 207.259,183.536 205,182.5C 204.536,183.094 204.369,183.761 204.5,184.5C 203.167,184.5 201.833,184.5 200.5,184.5C 200.5,183.167 199.833,182.5 198.5,182.5C 197.624,182.631 196.957,182.298 196.5,181.5C 197.949,180.828 199.282,180.161 200.5,179.5C 201.151,178.909 201.818,178.243 202.5,177.5C 203.524,178.853 204.857,179.52 206.5,179.5C 209.631,180.092 211.964,179.092 213.5,176.5 Z"/></g>
<g><path style="opacity:1" fill="#FAFBFA" d="M 200.5,177.5 C 200.5,178.167 200.5,178.833 200.5,179.5C 195.167,178.833 195.167,178.167 200.5,177.5 Z"/></g>
<g><path style="opacity:1" fill="#FAFBFA" d="M 198.5,182.5 C 199.833,182.5 200.5,183.167 200.5,184.5C 199.508,184.328 198.842,184.662 198.5,185.5C 197.325,185.719 196.325,185.386 195.5,184.5C 196.602,183.824 197.602,183.158 198.5,182.5 Z"/></g>
<g><path style="opacity:1" fill="#FAFBFA" d="M 210.5,184.5 C 208.5,184.5 206.5,184.5 204.5,184.5C 204.369,183.761 204.536,183.094 205,182.5C 207.259,183.536 209.592,183.536 212,182.5C 212.833,182.667 213.667,182.833 214.5,183C 212.942,183.21 211.609,183.71 210.5,184.5 Z"/></g>
<g><path style="opacity:1" fill="#5C6056" d="M 200.5,184.5 C 201.833,184.5 203.167,184.5 204.5,184.5C 206.5,184.5 208.5,184.5 210.5,184.5C 212.167,185.167 213.833,185.833 215.5,186.5C 212.781,186.397 210.115,186.731 207.5,187.5C 206.287,187.747 205.62,188.414 205.5,189.5C 204.849,188.909 204.182,188.243 203.5,187.5C 202.818,188.243 202.151,188.909 201.5,189.5C 201.672,188.508 201.338,187.842 200.5,187.5C 198.801,187.66 197.134,187.494 195.5,187C 196.737,186.768 197.737,186.268 198.5,185.5C 198.842,184.662 199.508,184.328 200.5,184.5 Z"/></g>
<g><path style="opacity:1" fill="#FAFBFA" d="M 215.5,186.5 C 215.611,187.117 215.944,187.617 216.5,188C 212.855,188.719 209.188,189.219 205.5,189.5C 205.62,188.414 206.287,187.747 207.5,187.5C 210.115,186.731 212.781,186.397 215.5,186.5 Z"/></g>
<g><path style="opacity:1" fill="#FAFBFA" d="M 200.5,187.5 C 201.338,187.842 201.672,188.508 201.5,189.5C 199.565,190.15 197.565,190.483 195.5,190.5C 195.389,189.883 195.056,189.383 194.5,189C 196.708,188.809 198.708,188.309 200.5,187.5 Z"/></g>
<g><path style="opacity:1" fill="#626E62" d="M 226.5,194.5 C 232.428,197.426 237.094,201.759 240.5,207.5C 239.462,209.628 238.129,210.628 236.5,210.5C 237.439,214.765 237.772,219.098 237.5,223.5C 235.123,223.784 232.956,223.784 231,223.5C 227.629,215.26 224.129,207.093 220.5,199C 223.212,198.361 225.212,196.861 226.5,194.5 Z"/></g>
<g><path style="opacity:1" fill="#A3AC93" d="M 219.5,196.5 C 219.077,197.265 218.743,198.098 218.5,199C 220.346,203.037 221.68,207.204 222.5,211.5C 219.284,212.938 215.951,214.105 212.5,215C 216.565,217.881 220.565,218.047 224.5,215.5C 226.585,217.684 227.585,220.351 227.5,223.5C 222.376,226.79 218.042,230.957 214.5,236C 219.994,234.247 224.994,231.414 229.5,227.5C 237.053,241.312 243.553,255.645 249,270.5C 251.88,287.4 255.713,304.066 260.5,320.5C 259.636,322.197 258.303,323.363 256.5,324C 253.522,324.696 250.522,325.196 247.5,325.5C 247.737,324.209 247.404,323.209 246.5,322.5C 244.377,308.387 241.044,294.554 236.5,281C 238.839,278.539 238.506,276.206 235.5,274C 229.861,271.693 225.195,268.193 221.5,263.5C 224.79,262.756 227.79,263.589 230.5,266C 231.833,266.667 233.167,266.667 234.5,266C 232.266,265.031 230.266,263.698 228.5,262C 230.5,261 232.5,260 234.5,259C 228.874,257.177 223.207,255.51 217.5,254C 213.471,252.478 211.137,249.645 210.5,245.5C 215.554,246.71 220.554,247.876 225.5,249C 222.036,246.953 218.37,245.287 214.5,244C 213.5,243 212.5,242 211.5,241C 215.841,240.907 220.174,240.907 224.5,241C 219.447,238.657 214.114,237.49 208.5,237.5C 208.81,234.287 208.477,231.287 207.5,228.5C 207.011,219.576 205.678,210.909 203.5,202.5C 203.5,201.167 203.5,199.833 203.5,198.5C 208.296,198.134 212.963,197.134 217.5,195.5C 218.183,195.863 218.85,196.196 219.5,196.5 Z"/></g>
<g><path style="opacity:1" fill="#000000" d="M 196.5,199.5 C 198.607,198.532 200.941,198.198 203.5,198.5C 203.5,199.833 203.5,201.167 203.5,202.5C 202.596,201.791 202.263,200.791 202.5,199.5C 200.5,199.5 198.5,199.5 196.5,199.5 Z"/></g>
<g><path style="opacity:1" fill="#A1A991" d="M 196.5,199.5 C 198.5,199.5 200.5,199.5 202.5,199.5C 202.263,200.791 202.596,201.791 203.5,202.5C 205.678,210.909 207.011,219.576 207.5,228.5C 207.731,232.993 207.064,237.326 205.5,241.5C 204.833,241.5 204.167,241.5 203.5,241.5C 203.103,240.475 202.437,240.308 201.5,241C 195.581,247.644 190.248,254.811 185.5,262.5C 185.667,262.833 185.833,263.167 186,263.5C 189.365,259.307 192.865,255.307 196.5,251.5C 191.997,265.859 187.664,280.193 183.5,294.5C 173.041,298.772 166.708,295.439 164.5,284.5C 167.03,278.771 168.363,272.771 168.5,266.5C 173.616,263.226 178.616,259.726 183.5,256C 181.861,252.698 181.194,249.198 181.5,245.5C 183.975,242.215 185.642,238.548 186.5,234.5C 191.843,235.779 197.176,235.613 202.5,234C 197.22,232.905 191.887,232.405 186.5,232.5C 188.711,221.904 190.711,211.237 192.5,200.5C 194.099,200.768 195.432,200.434 196.5,199.5 Z"/></g>
<g><path style="opacity:1" fill="#747A68" d="M 175.5,201.5 C 178.833,201.5 182.167,201.5 185.5,201.5C 185.401,207.3 184.567,212.967 183,218.5C 182.955,215.666 182.121,213.166 180.5,211C 176.032,212.018 171.365,212.518 166.5,212.5C 165.949,209.193 165.616,205.86 165.5,202.5C 169.042,202.813 172.375,202.479 175.5,201.5 Z"/></g>
<g><path style="opacity:1" fill="#3E3E3E" d="M 156.5,205.5 C 157.833,205.5 159.167,205.5 160.5,205.5C 160.665,208.518 160.498,211.518 160,214.5C 155.283,218.272 151.783,222.939 149.5,228.5C 148.466,222.464 147.632,216.464 147,210.5C 149.793,207.97 152.96,206.303 156.5,205.5 Z"/></g>
<g><path style="opacity:1" fill="#747A68" d="M 222.5,211.5 C 224.104,212.287 224.771,213.62 224.5,215.5C 220.565,218.047 216.565,217.881 212.5,215C 215.951,214.105 219.284,212.938 222.5,211.5 Z"/></g>
<g><path style="opacity:1" fill="#862A30" d="M 179.5,215.5 C 178.209,215.737 177.209,215.404 176.5,214.5C 177.794,211.86 179.127,211.86 180.5,214.5C 180.376,215.107 180.043,215.44 179.5,215.5 Z"/></g>
<g><path style="opacity:1" fill="#E0E1E0" d="M 174.5,215.5 C 174.842,214.662 175.508,214.328 176.5,214.5C 177.209,215.404 178.209,215.737 179.5,215.5C 179.611,216.117 179.944,216.617 180.5,217C 179.207,217.49 177.873,217.657 176.5,217.5C 176.167,216.5 175.5,215.833 174.5,215.5 Z"/></g>
<g><path style="opacity:1" fill="#00a1e8" d="M 176.5,218.5 C 179.325,218.081 181.491,219.081 183,221.5C 183.138,224.621 182.471,227.621 181,230.5C 180.333,226.17 178.833,222.17 176.5,218.5 Z"/></g>
<g><path style="opacity:1" fill="#2DB2F2" d="M 174.5,215.5 C 175.5,215.833 176.167,216.5 176.5,217.5C 176.5,217.833 176.5,218.167 176.5,218.5C 175.761,218.369 175.094,218.536 174.5,219C 179.228,226.507 180.061,234.34 177,242.5C 174.165,243.916 171.498,245.583 169,247.5C 165.577,246.269 162.077,245.269 158.5,244.5C 157.143,242.501 157.81,241.335 160.5,241C 158.324,240.837 156.491,240.004 155,238.5C 154.502,235.183 154.335,231.85 154.5,228.5C 155.961,226.324 156.294,223.991 155.5,221.5C 157.891,217.807 161.224,215.974 165.5,216C 163.405,216.556 163.238,217.056 165,217.5C 167.464,216.839 169.964,216.339 172.5,216C 169.258,215.717 168.924,214.883 171.5,213.5C 172.518,214.193 173.518,214.859 174.5,215.5 Z"/></g>
<g><path style="opacity:1" fill="#000000" d="M 159.5,219.5 C 159.56,218.957 159.893,218.624 160.5,218.5C 161.795,219.098 163.128,219.598 164.5,220C 162.735,220.64 161.068,220.473 159.5,219.5 Z"/></g>
<g><path style="opacity:1" fill="#000000" d="M 173.5,220.5 C 174.043,220.56 174.376,220.893 174.5,221.5C 173.277,222.614 171.944,222.781 170.5,222C 171.737,221.768 172.737,221.268 173.5,220.5 Z"/></g>
<g><path style="opacity:1" fill="#747A68" d="M 227.5,223.5 C 229.104,224.287 229.771,225.62 229.5,227.5C 224.994,231.414 219.994,234.247 214.5,236C 218.042,230.957 222.376,226.79 227.5,223.5 Z"/></g>
<g><path style="opacity:1" fill="#00a1e8" d="M 154.5,228.5 C 153.677,231.977 153.177,235.644 153,239.5C 152.174,234.411 152.508,229.411 154,224.5C 154.49,225.793 154.657,227.127 154.5,228.5 Z"/></g>
<g><path style="opacity:1" fill="#000000" d="M 175.5,225.5 C 176.828,230.49 176.828,233.49 175.5,234.5C 171.5,234.167 171.5,233.833 175.5,233.5C 175.5,230.833 175.5,228.167 175.5,225.5 Z"/></g>
<g><path style="opacity:1" fill="#747A68" d="M 186.5,232.5 C 191.887,232.405 197.22,232.905 202.5,234C 197.176,235.613 191.843,235.779 186.5,234.5C 186.5,233.833 186.5,233.167 186.5,232.5 Z"/></g>
<g><path style="opacity:1" fill="#696D5F" d="M 207.5,228.5 C 208.477,231.287 208.81,234.287 208.5,237.5C 214.114,237.49 219.447,238.657 224.5,241C 220.174,240.907 215.841,240.907 211.5,241C 212.5,242 213.5,243 214.5,244C 218.37,245.287 222.036,246.953 225.5,249C 220.554,247.876 215.554,246.71 210.5,245.5C 211.137,249.645 213.471,252.478 217.5,254C 223.207,255.51 228.874,257.177 234.5,259C 232.5,260 230.5,261 228.5,262C 230.266,263.698 232.266,265.031 234.5,266C 233.167,266.667 231.833,266.667 230.5,266C 227.79,263.589 224.79,262.756 221.5,263.5C 225.195,268.193 229.861,271.693 235.5,274C 238.506,276.206 238.839,278.539 236.5,281C 241.044,294.554 244.377,308.387 246.5,322.5C 245.807,326.278 244.64,326.278 243,322.5C 242.667,323.167 242.333,323.833 242,324.5C 239.912,323.692 237.912,322.692 236,321.5C 234.487,309.853 233.153,298.187 232,286.5C 230.36,282.608 229.027,278.608 228,274.5C 218.512,264.858 211.012,253.858 205.5,241.5C 207.064,237.326 207.731,232.993 207.5,228.5 Z"/></g>
<g><path style="opacity:1" fill="#747A68" d="M 198.5,239.5 C 199.239,239.369 199.906,239.536 200.5,240C 196.275,243.446 191.609,245.779 186.5,247C 190.093,243.711 194.093,241.211 198.5,239.5 Z"/></g>
<g><path style="opacity:1" fill="#747A68" d="M 203.5,241.5 C 200.663,244.518 198.329,247.851 196.5,251.5C 192.865,255.307 189.365,259.307 186,263.5C 185.833,263.167 185.667,262.833 185.5,262.5C 190.248,254.811 195.581,247.644 201.5,241C 202.437,240.308 203.103,240.475 203.5,241.5 Z"/></g>
<g><path style="opacity:1" fill="#000000" d="M 166.5,243.5 C 167.946,242.387 169.613,242.22 171.5,243C 171,243.5 170.5,244 170,244.5C 168.989,243.663 167.822,243.33 166.5,243.5 Z"/></g>
<g><path style="opacity:1" fill="#00a1e8" d="M 158.5,244.5 C 159.368,246.892 158.701,247.059 156.5,245C 157.094,244.536 157.761,244.369 158.5,244.5 Z"/></g>
<g><path style="opacity:1" fill="#747A68" d="M 181.5,245.5 C 181.194,249.198 181.861,252.698 183.5,256C 178.616,259.726 173.616,263.226 168.5,266.5C 167.511,261.025 167.178,255.358 167.5,249.5C 172.999,250.509 177.665,249.175 181.5,245.5 Z"/></g>
<g><path style="opacity:1" fill="#747A68" d="M 164.5,284.5 C 166.708,295.439 173.041,298.772 183.5,294.5C 181.172,304.817 177.839,314.817 173.5,324.5C 170.87,325.381 168.203,326.048 165.5,326.5C 166.575,319.851 168.409,313.518 171,307.5C 165.422,309.853 160.255,312.853 155.5,316.5C 155.992,307.524 158.492,299.19 163,291.5C 163.662,289.187 164.162,286.854 164.5,284.5 Z"/></g>
<g><path style="opacity:1" fill="#A3AC93" d="M 165.5,326.5 C 162.07,325.286 158.736,323.786 155.5,322C 154.248,320.172 154.248,318.339 155.5,316.5C 160.255,312.853 165.422,309.853 171,307.5C 168.409,313.518 166.575,319.851 165.5,326.5 Z"/></g>
<g><path style="opacity:1" fill="#404140" d="M 155.5,324.5 C 159.122,326.978 163.122,328.311 167.5,328.5C 167.665,332.182 167.499,335.848 167,339.5C 162.596,342.329 157.762,343.163 152.5,342C 150.354,341.521 149.354,340.188 149.5,338C 150.171,334.158 152.004,330.992 155,328.5C 155.49,327.207 155.657,325.873 155.5,324.5 Z"/></g>
<g><path style="opacity:1" fill="#404140" d="M 257.5,325.5 C 258.675,325.281 259.675,325.614 260.5,326.5C 261.373,328.413 262.373,330.247 263.5,332C 266.833,334 270.167,336 273.5,338C 266.4,342.683 258.733,344.017 250.5,342C 247.967,340.967 246.301,339.133 245.5,336.5C 246.407,333.579 246.74,330.579 246.5,327.5C 250.425,327.57 254.091,326.903 257.5,325.5 Z"/></g>
</svg>
