<?xml version="1.0" encoding="UTF-8"?>
<!DOCTYPE svg PUBLIC "-//W3C//DTD SVG 1.1//EN" "http://www.w3.org/Graphics/SVG/1.1/DTD/svg11.dtd">
<svg xmlns="http://www.w3.org/2000/svg" version="1.1" width="456px" height="456px" style="shape-rendering:geometricPrecision; text-rendering:geometricPrecision; image-rendering:optimizeQuality; fill-rule:evenodd; clip-rule:evenodd" xmlns:xlink="http://www.w3.org/1999/xlink">
<g><path style="opacity:1" fill="#fefffe" d="M 117.5,42.5 C 123.176,42.3339 128.843,42.5006 134.5,43C 135.833,43.6667 137.167,44.3333 138.5,45C 140.072,50.1157 141.572,55.2824 143,60.5C 147.319,60.5008 150.319,62.5008 152,66.5C 153.528,71.9484 155.361,77.2817 157.5,82.5C 162.801,84.0613 168.134,85.5613 173.5,87C 174.423,89.0408 174.756,91.2075 174.5,93.5C 177.85,93.335 181.183,93.5017 184.5,94C 186.604,96.0424 187.771,98.5424 188,101.5C 188.499,106.823 188.666,112.156 188.5,117.5C 244.011,115.869 299.511,113.869 355,111.5C 358.95,111.407 362.784,111.907 366.5,113C 390.167,113.333 413.833,113.667 437.5,114C 438.626,117.744 438.793,121.577 438,125.5C 434.987,126.856 431.987,128.19 429,129.5C 409.848,131.153 390.681,132.653 371.5,134C 366.431,134.704 361.431,135.704 356.5,137C 355.833,137.667 355.167,138.333 354.5,139C 348.289,139.962 342.289,139.462 336.5,137.5C 327.699,137.84 319.032,139.007 310.5,141C 309.833,141.667 309.167,142.333 308.5,143C 290.112,143.232 271.779,143.066 253.5,142.5C 252.951,149.05 249.284,152.716 242.5,153.5C 241.695,157.141 240.195,160.474 238,163.5C 233.29,170.421 228.456,177.254 223.5,184C 217.251,185.536 210.917,185.87 204.5,185C 197.5,181.5 190.5,178 183.5,174.5C 181.861,175.916 181.027,177.583 181,179.5C 183.735,181.732 185.902,184.399 187.5,187.5C 191.141,187.795 193.975,189.461 196,192.5C 199.066,200.363 201.732,208.363 204,216.5C 204.667,222.167 204.667,227.833 204,233.5C 202.5,235 201,236.5 199.5,238C 195.514,238.499 191.514,238.666 187.5,238.5C 187.328,242.534 186.828,246.534 186,250.5C 184.667,253.167 182.667,255.167 180,256.5C 179.069,289.396 178.236,322.229 177.5,355C 181.474,358.967 184.641,363.467 187,368.5C 187.667,373.5 187.667,378.5 187,383.5C 185.269,385.617 183.102,387.117 180.5,388C 175.167,388.667 169.833,388.667 164.5,388C 160.5,385.667 156.5,383.333 152.5,381C 150.273,378.436 148.439,375.603 147,372.5C 146.315,364.006 144.815,355.839 142.5,348C 141.745,332.694 141.745,317.361 142.5,302C 140.572,286.689 137.738,271.523 134,256.5C 129.001,263.16 124.501,270.16 120.5,277.5C 128.029,293.909 132.362,311.075 133.5,329C 135.309,338.069 131.643,342.735 122.5,343C 110.253,345.208 97.9194,345.875 85.5,345C 83.5,344 81.5,343 79.5,342C 78.363,336.918 78.1963,331.751 79,326.5C 82.6458,324.969 86.4791,323.803 90.5,323C 91.9797,321.701 92.6464,320.034 92.5,318C 86.8961,305.953 81.3961,293.786 76,281.5C 75.3333,276.167 75.3333,270.833 76,265.5C 84.4221,249.656 92.5888,233.656 100.5,217.5C 97.4074,217.002 94.5741,216.002 92,214.5C 91.5002,204.506 91.3335,194.506 91.5,184.5C 86.0873,184.771 80.7539,184.271 75.5,183C 74.6667,182.167 73.8333,181.333 73,180.5C 67.7805,163.342 72.1138,149.342 86,138.5C 86.5492,129.776 91.0492,124.109 99.5,121.5C 100.134,111.47 100.967,101.47 102,91.5C 102.667,90.8333 103.333,90.1667 104,89.5C 104.333,86.8333 104.667,84.1667 105,81.5C 108.316,77.2539 112.483,74.0872 117.5,72C 112.193,63.8464 111.026,55.0131 114,45.5C 115.145,44.3636 116.312,43.3636 117.5,42.5 Z"/></g>
<g><path style="opacity:1" fill="#000000" d="M 120.5,45.5 C 125.777,44.9312 130.777,45.7645 135.5,48C 137.072,53.1157 138.572,58.2824 140,63.5C 144.319,63.5008 147.319,65.5008 149,69.5C 150.528,74.9484 152.361,80.2817 154.5,85.5C 159.801,87.0613 165.134,88.5613 170.5,90C 171.423,92.0408 171.756,94.2075 171.5,96.5C 174.85,96.335 178.183,96.5017 181.5,97C 183.604,99.0424 184.771,101.542 185,104.5C 185.804,109.751 185.637,114.918 184.5,120C 241.355,119.106 298.189,117.273 355,114.5C 357.96,114.443 360.793,114.943 363.5,116C 387.167,116.333 410.833,116.667 434.5,117C 435.576,118.726 435.743,120.559 435,122.5C 431.987,123.856 428.987,125.19 426,126.5C 406.848,128.153 387.681,129.653 368.5,131C 361.218,132.203 354.218,134.037 347.5,136.5C 344.042,135.121 340.376,134.454 336.5,134.5C 326.688,134.716 317.022,135.882 307.5,138C 306.833,138.667 306.167,139.333 305.5,140C 301.667,140.167 297.833,140.333 294,140.5C 279.492,140.078 264.992,139.744 250.5,139.5C 249.951,146.05 246.284,149.716 239.5,150.5C 238.695,154.141 237.195,157.474 235,160.5C 230.29,167.421 225.456,174.254 220.5,181C 216.259,182.457 211.926,182.791 207.5,182C 198.955,177.561 190.289,173.394 181.5,169.5C 180.195,172.638 178.029,174.971 175,176.5C 174.333,177.5 174.333,178.5 175,179.5C 178.727,182.724 181.894,186.391 184.5,190.5C 188.141,190.795 190.975,192.461 193,195.5C 196.066,203.363 198.732,211.363 201,219.5C 202.987,232.345 197.487,237.678 184.5,235.5C 184.328,239.534 183.828,243.534 183,247.5C 181.667,250.167 179.667,252.167 177,253.5C 175.908,286.157 175.241,318.823 175,351.5C 173.368,353.707 173.368,356.04 175,358.5C 178.81,362.304 181.81,366.637 184,371.5C 186.273,378.247 184.106,382.747 177.5,385C 174.167,385.667 170.833,385.667 167.5,385C 163.5,382.667 159.5,380.333 155.5,378C 149.992,370.866 147.492,362.699 148,353.5C 146.092,352.182 145.258,350.348 145.5,348C 145.755,345.233 146.422,342.567 147.5,340C 144.57,325.613 143.736,311.113 145,296.5C 142.792,280.117 139.792,263.783 136,247.5C 128.48,256.85 121.98,266.85 116.5,277.5C 123.729,294.012 128.395,311.178 130.5,329C 130.536,331.63 130.036,334.13 129,336.5C 124.504,338.837 119.671,340.337 114.5,341C 105.861,342.248 97.1943,342.582 88.5,342C 81.8373,340.334 79.6706,336.167 82,329.5C 85.6458,327.969 89.4791,326.803 93.5,326C 95.2148,325.223 96.2148,323.89 96.5,322C 95.8773,318.519 95.3773,315.019 95,311.5C 88.8657,300.898 83.5323,289.898 79,278.5C 78.3333,275.167 78.3333,271.833 79,268.5C 88.5656,250.535 97.7323,232.369 106.5,214C 103.167,213.667 99.8333,213.333 96.5,213C 96,212.5 95.5,212 95,211.5C 94.3333,202.833 94.3333,194.167 95,185.5C 95.3095,184.234 95.8095,183.067 96.5,182C 90.4361,181.805 84.4361,181.139 78.5,180C 76.2324,178.442 75.0657,176.276 75,173.5C 73.5435,165.906 74.8768,158.906 79,152.5C 81.4029,150.695 83.0695,148.362 84,145.5C 85.6667,144.167 87.3333,142.833 89,141.5C 90.1998,131.627 95.6998,125.46 105.5,123C 103.04,113.612 102.873,104.112 105,94.5C 105.667,93.8333 106.333,93.1667 107,92.5C 107.333,89.8333 107.667,87.1667 108,84.5C 110.802,81.3343 113.969,78.501 117.5,76C 119.949,75.2754 122.283,74.2754 124.5,73C 116.061,66.6292 113.561,58.4625 117,48.5C 118.145,47.3636 119.312,46.3636 120.5,45.5 Z"/></g>
<g><path style="opacity:1" fill="#f4f4f4" d="M 123.5,49.5 C 126.39,49.278 129.057,49.9447 131.5,51.5C 133.328,55.1046 133.994,58.7713 133.5,62.5C 130.221,64.2808 126.888,64.9475 123.5,64.5C 118.284,59.2843 118.284,54.2843 123.5,49.5 Z"/></g>
<g><path style="opacity:1" fill="#bc141c" d="M 133.5,63.5 C 135.27,64.8559 136.603,66.6892 137.5,69C 135.759,70.6196 133.925,72.1196 132,73.5C 129.833,71.3333 127.667,69.1667 125.5,67C 128.309,65.9066 130.976,64.7399 133.5,63.5 Z"/></g>
<g><path style="opacity:1" fill="#262626" d="M 144.5,85.5 C 143.566,84.4324 143.232,83.099 143.5,81.5C 139.651,81.0193 137.651,82.686 137.5,86.5C 139.346,86.2222 140.68,86.8888 141.5,88.5C 139.711,91.6547 138.878,94.9881 139,98.5C 142.005,100.002 145.171,101.002 148.5,101.5C 146.149,103.203 143.482,103.703 140.5,103C 133.921,101.755 127.921,99.2553 122.5,95.5C 122.189,94.5222 121.522,93.8555 120.5,93.5C 119.828,94.9492 119.161,96.2825 118.5,97.5C 117.686,99.631 117.186,101.964 117,104.5C 114.742,99.8198 112.909,94.9865 111.5,90C 112.312,85.8502 114.646,82.8502 118.5,81C 121.719,79.0455 125.053,77.7121 128.5,77C 124.352,79.4977 120.185,81.9977 116,84.5C 115.21,87.634 115.543,90.634 117,93.5C 116.747,90.867 116.747,88.2004 117,85.5C 125.546,80.9481 133.546,75.6148 141,69.5C 142.23,70.2752 142.563,71.2752 142,72.5C 140.167,75.6667 137.667,78.1667 134.5,80C 135.908,80.3152 137.241,79.9819 138.5,79C 139.826,76.8416 141.493,75.0082 143.5,73.5C 145.227,77.0151 146.561,80.6818 147.5,84.5C 146.675,85.3857 145.675,85.719 144.5,85.5 Z"/></g>
<g><path style="opacity:1" fill="#fec90d" d="M 144.5,85.5 C 148.493,87.1296 150.827,90.1296 151.5,94.5C 150.659,96.8121 149.659,99.1454 148.5,101.5C 145.171,101.002 142.005,100.002 139,98.5C 138.878,94.9881 139.711,91.6547 141.5,88.5C 140.68,86.8888 139.346,86.2222 137.5,86.5C 137.651,82.686 139.651,81.0193 143.5,81.5C 143.232,83.099 143.566,84.4324 144.5,85.5 Z"/></g>
<g><path style="opacity:1" fill="#fefffe" d="M 122.5,95.5 C 121.596,96.209 121.263,97.209 121.5,98.5C 120.835,100.698 120.168,103.031 119.5,105.5C 118.52,102.914 118.187,100.247 118.5,97.5C 119.161,96.2825 119.828,94.9492 120.5,93.5C 121.522,93.8555 122.189,94.5222 122.5,95.5 Z"/></g>
<g><path style="opacity:1" fill="#ececec" d="M 151.5,94.5 C 153.256,95.5521 153.923,97.2188 153.5,99.5C 151.21,103.158 148.21,106.158 144.5,108.5C 142.236,107.781 139.903,107.448 137.5,107.5C 132.921,106.254 128.588,104.254 124.5,101.5C 124.167,101.667 123.833,101.833 123.5,102C 124.587,104.567 125.587,107.067 126.5,109.5C 126.5,110.5 126.5,111.5 126.5,112.5C 125.041,112.567 123.708,112.234 122.5,111.5C 121.662,111.158 121.328,110.492 121.5,109.5C 121.695,105.622 121.695,101.956 121.5,98.5C 121.263,97.209 121.596,96.209 122.5,95.5C 127.921,99.2553 133.921,101.755 140.5,103C 143.482,103.703 146.149,103.203 148.5,101.5C 149.659,99.1454 150.659,96.8121 151.5,94.5 Z"/></g>
<g><path style="opacity:1" fill="#2a2a2a" d="M 144.5,108.5 C 148.21,106.158 151.21,103.158 153.5,99.5C 154.158,98.6016 154.824,97.6016 155.5,96.5C 162.358,97.1391 163.858,100.139 160,105.5C 151.317,113.764 141.15,116.597 129.5,114C 134.995,113.227 139.995,111.394 144.5,108.5 Z"/></g>
<g><path style="opacity:1" fill="#474747" d="M 116.5,108.5 C 115.566,110.239 115.566,111.905 116.5,113.5C 117.971,112.619 118.804,111.286 119,109.5C 119.312,112.309 120.812,113.976 123.5,114.5C 123.167,115.5 122.5,116.167 121.5,116.5C 120.566,117.568 120.232,118.901 120.5,120.5C 117.518,120.104 114.851,120.771 112.5,122.5C 109.563,118.686 108.229,114.353 108.5,109.5C 108.616,105.78 109.116,102.113 110,98.5C 110.667,97.1667 111.333,97.1667 112,98.5C 113.24,101.978 114.74,105.311 116.5,108.5 Z"/></g>
<g><path style="opacity:1" fill="#fefffe" d="M 165.5,102.5 C 163.871,104.858 162.705,107.524 162,110.5C 161.823,114.356 161.323,118.023 160.5,121.5C 160.5,120.833 160.167,120.5 159.5,120.5C 159.011,119.005 158.345,117.671 157.5,116.5C 157.337,114.143 157.503,111.81 158,109.5C 161.058,107.043 163.392,104.043 165,100.5C 165.464,101.094 165.631,101.761 165.5,102.5 Z"/></g>
<g><path style="opacity:1" fill="#464646" d="M 168.5,121.5 C 168.5,122.167 168.167,122.5 167.5,122.5C 165.621,123.341 163.621,123.675 161.5,123.5C 160.662,123.158 160.328,122.492 160.5,121.5C 161.323,118.023 161.823,114.356 162,110.5C 162.705,107.524 163.871,104.858 165.5,102.5C 168.451,102.766 171.451,102.099 174.5,100.5C 174.833,100.833 175.167,101.167 175.5,101.5C 171.942,107.726 169.609,114.393 168.5,121.5 Z"/></g>
<g><path style="opacity:1" fill="#4e4f4e" d="M 171.5,121.5 C 171.696,114.028 174.03,107.362 178.5,101.5C 180.501,104.666 181.501,108.166 181.5,112C 181.069,115.886 180.403,119.72 179.5,123.5C 176.467,123.868 173.8,123.202 171.5,121.5 Z"/></g>
<g><path style="opacity:1" fill="#242424" d="M 137.5,107.5 C 138.609,108.29 139.942,108.79 141.5,109C 137.104,111.299 132.438,112.466 127.5,112.5C 127.737,111.209 127.404,110.209 126.5,109.5C 125.587,107.067 124.587,104.567 123.5,102C 123.833,101.833 124.167,101.667 124.5,101.5C 128.588,104.254 132.921,106.254 137.5,107.5 Z"/></g>
<g><path style="opacity:1" fill="#fefffe" d="M 121.5,109.5 C 121.328,110.492 121.662,111.158 122.5,111.5C 122.557,112.609 122.89,113.609 123.5,114.5C 120.812,113.976 119.312,112.309 119,109.5C 118.804,111.286 117.971,112.619 116.5,113.5C 115.566,111.905 115.566,110.239 116.5,108.5C 117.467,107.194 118.801,106.527 120.5,106.5C 120.263,107.791 120.596,108.791 121.5,109.5 Z"/></g>
<g><path style="opacity:1" fill="#fefffe" d="M 153.5,114.5 C 152.833,114.5 152.167,114.5 151.5,114.5C 151.5,114.167 151.5,113.833 151.5,113.5C 152.623,112.243 153.289,112.576 153.5,114.5 Z"/></g>
<g><path style="opacity:1" fill="#fa9b72" d="M 157.5,116.5 C 157.5,117.833 157.5,119.167 157.5,120.5C 155.167,118.833 153.167,116.833 151.5,114.5C 152.167,114.5 152.833,114.5 153.5,114.5C 154.458,114.047 155.292,113.381 156,112.5C 156.21,114.058 156.71,115.391 157.5,116.5 Z"/></g>
<g><path style="opacity:1" fill="#f8a581" d="M 151.5,113.5 C 151.5,113.833 151.5,114.167 151.5,114.5C 150.957,114.56 150.624,114.893 150.5,115.5C 151.815,117.316 153.315,118.983 155,120.5C 155.49,121.793 155.657,123.127 155.5,124.5C 148.503,124.495 142.503,126.828 137.5,131.5C 132.5,128.833 127.5,126.167 122.5,123.5C 121.833,123.5 121.5,123.167 121.5,122.5C 121.5,120.5 121.5,118.5 121.5,116.5C 122.5,116.167 123.167,115.5 123.5,114.5C 124.497,114.47 125.164,114.97 125.5,116C 122.63,119.382 122.963,121.216 126.5,121.5C 128.533,126.341 131.866,127.508 136.5,125C 134.266,123.362 132.933,121.195 132.5,118.5C 132.833,118.5 133.167,118.5 133.5,118.5C 137.916,120.727 142.583,121.061 147.5,119.5C 146.962,121.117 146.629,122.784 146.5,124.5C 149.598,124.587 149.932,124.087 147.5,123C 149.418,120.891 149.751,118.725 148.5,116.5C 148.5,115.5 148.5,114.5 148.5,113.5C 149.5,113.5 150.5,113.5 151.5,113.5 Z"/></g>
<g><path style="opacity:1" fill="#4b3021" d="M 132.5,118.5 C 132.933,121.195 134.266,123.362 136.5,125C 131.866,127.508 128.533,126.341 126.5,121.5C 126.337,119.143 126.503,116.81 127,114.5C 129.311,115.397 131.144,116.73 132.5,118.5 Z"/></g>
<g><path style="opacity:1" fill="#fefffe" d="M 141.5,116.5 C 143.455,115.07 145.121,115.403 146.5,117.5C 144.708,117.634 143.042,117.301 141.5,116.5 Z"/></g>
<g><path style="opacity:1" fill="#bb5b32" d="M 141.5,116.5 C 143.042,117.301 144.708,117.634 146.5,117.5C 147.167,117.167 147.833,116.833 148.5,116.5C 148.737,117.791 148.404,118.791 147.5,119.5C 142.583,121.061 137.916,120.727 133.5,118.5C 133.611,117.883 133.944,117.383 134.5,117C 136.81,116.503 139.143,116.337 141.5,116.5 Z"/></g>
<g><path style="opacity:1" fill="#000000" d="M 148.5,116.5 C 149.751,118.725 149.418,120.891 147.5,123C 149.932,124.087 149.598,124.587 146.5,124.5C 146.629,122.784 146.962,121.117 147.5,119.5C 148.404,118.791 148.737,117.791 148.5,116.5 Z"/></g>
<g><path style="opacity:1" fill="#000000" d="M 157.5,116.5 C 158.345,117.671 159.011,119.005 159.5,120.5C 158.833,120.5 158.167,120.5 157.5,120.5C 157.5,119.167 157.5,117.833 157.5,116.5 Z"/></g>
<g><path style="opacity:1" fill="#c2c3c2" d="M 351.5,118.5 C 354.649,118.211 357.649,118.711 360.5,120C 384.513,120.533 408.513,120.533 432.5,120C 428.339,121.737 424.005,122.737 419.5,123C 396.628,124.566 373.962,126.4 351.5,128.5C 351.5,125.167 351.5,121.833 351.5,118.5 Z"/></g>
<g><path style="opacity:1" fill="#c2c3c2" d="M 171.5,126.5 C 227.08,123.622 282.747,121.288 338.5,119.5C 342.167,119.833 345.833,120.167 349.5,120.5C 293.015,123.117 236.515,125.45 180,127.5C 176.979,127.498 174.146,127.164 171.5,126.5 Z"/></g>
<g><path style="opacity:1" fill="#fefffe" d="M 121.5,122.5 C 121.5,123.167 121.833,123.5 122.5,123.5C 122.167,124.167 121.833,124.833 121.5,125.5C 120.852,126.979 120.519,128.479 120.5,130C 119.034,130.635 117.7,131.469 116.5,132.5C 115.702,132.043 115.369,131.376 115.5,130.5C 119.279,128.989 119.945,126.822 117.5,124C 114.664,124.085 112.331,125.251 110.5,127.5C 109.761,127.631 109.094,127.464 108.5,127C 112.195,123.026 116.529,121.526 121.5,122.5 Z"/></g>
<g><path style="opacity:1" fill="#b07454" d="M 304.5,133.5 C 303.839,132.282 303.172,130.949 302.5,129.5C 301.817,129.863 301.15,130.196 300.5,130.5C 298.048,131.065 295.715,131.732 293.5,132.5C 279.816,131.923 266.15,131.923 252.5,132.5C 249.887,132.357 247.553,131.69 245.5,130.5C 244.833,130.833 244.167,131.167 243.5,131.5C 242.596,132.209 242.263,133.209 242.5,134.5C 241.448,134.351 240.448,134.517 239.5,135C 241.119,135.236 242.119,136.069 242.5,137.5C 242.672,138.492 242.338,139.158 241.5,139.5C 240.833,138.5 240.167,137.5 239.5,136.5C 237.974,134.55 236.974,132.217 236.5,129.5C 235.817,129.863 235.15,130.196 234.5,130.5C 234.167,130.5 233.833,130.5 233.5,130.5C 232.391,130.557 231.391,130.89 230.5,131.5C 230.167,131.5 229.833,131.5 229.5,131.5C 228.504,131.414 227.671,131.748 227,132.5C 226.79,134.058 226.29,135.391 225.5,136.5C 208.658,136.83 191.992,136.497 175.5,135.5C 177.631,134.686 179.964,134.186 182.5,134C 180.109,132.965 177.776,132.798 175.5,133.5C 174.145,132.812 173.145,131.812 172.5,130.5C 225.995,127.752 279.662,125.419 333.5,123.5C 333.5,125.833 333.5,128.167 333.5,130.5C 323.741,130.88 314.074,131.88 304.5,133.5 Z"/></g>
<g><path style="opacity:1" fill="#fec90d" d="M 335.5,123.5 C 336.5,123.5 337.5,123.5 338.5,123.5C 338.5,125.833 338.5,128.167 338.5,130.5C 337.5,130.5 336.5,130.5 335.5,130.5C 335.5,128.167 335.5,125.833 335.5,123.5 Z"/></g>
<g><path style="opacity:1" fill="#c2c3c2" d="M 340.5,123.5 C 343.5,123.5 346.5,123.5 349.5,123.5C 349.777,126.448 349.444,129.281 348.5,132C 346.098,130.954 343.432,130.454 340.5,130.5C 340.5,128.167 340.5,125.833 340.5,123.5 Z"/></g>
<g><path style="opacity:1" fill="#29287b" d="M 115.5,130.5 C 114.833,130.5 114.167,130.5 113.5,130.5C 111.973,130.573 110.973,129.906 110.5,128.5C 110.5,128.167 110.5,127.833 110.5,127.5C 112.331,125.251 114.664,124.085 117.5,124C 119.945,126.822 119.279,128.989 115.5,130.5 Z"/></g>
<g><path style="opacity:1" fill="#bb5b32" d="M 122.5,123.5 C 127.5,126.167 132.5,128.833 137.5,131.5C 135.643,133.845 133.31,134.178 130.5,132.5C 127.786,129.785 124.786,127.451 121.5,125.5C 121.833,124.833 122.167,124.167 122.5,123.5 Z"/></g>
<g><path style="opacity:1" fill="#fefffe" d="M 121.5,125.5 C 124.786,127.451 127.786,129.785 130.5,132.5C 129.652,133.625 128.652,133.625 127.5,132.5C 126.833,131.167 125.833,130.167 124.5,129.5C 122.771,128.764 121.771,127.43 121.5,125.5 Z"/></g>
<g><path style="opacity:1" fill="#a5a5a5" d="M 157.5,120.5 C 158.167,120.5 158.833,120.5 159.5,120.5C 160.167,120.5 160.5,120.833 160.5,121.5C 160.328,122.492 160.662,123.158 161.5,123.5C 161.337,125.857 161.503,128.19 162,130.5C 163.356,129.62 164.856,129.286 166.5,129.5C 166.34,131.199 166.506,132.866 167,134.5C 167.499,130.514 167.666,126.514 167.5,122.5C 168.167,122.5 168.5,122.167 168.5,121.5C 169.5,121.5 170.5,121.5 171.5,121.5C 171.5,123.167 171.5,124.833 171.5,126.5C 170.529,127.962 170.862,129.295 172.5,130.5C 173.145,131.812 174.145,132.812 175.5,133.5C 177.776,132.798 180.109,132.965 182.5,134C 179.964,134.186 177.631,134.686 175.5,135.5C 173.374,136.048 171.374,136.715 169.5,137.5C 166.317,138.382 163.317,139.715 160.5,141.5C 160.218,140.222 159.551,139.222 158.5,138.5C 157.469,137.751 156.302,137.085 155,136.5C 154.164,131.98 155.331,128.147 158.5,125C 156.218,123.916 155.884,122.416 157.5,120.5 Z"/></g>
<g><path style="opacity:1" fill="#000000" d="M 167.5,122.5 C 167.666,126.514 167.499,130.514 167,134.5C 166.506,132.866 166.34,131.199 166.5,129.5C 164.856,129.286 163.356,129.62 162,130.5C 161.503,128.19 161.337,125.857 161.5,123.5C 163.621,123.675 165.621,123.341 167.5,122.5 Z"/></g>
<g><path style="opacity:1" fill="#fefffe" d="M 162.5,125.5 C 163.978,125.238 165.311,125.571 166.5,126.5C 165.833,126.833 165.167,127.167 164.5,127.5C 163.287,127.253 162.62,126.586 162.5,125.5 Z"/></g>
<g><path style="opacity:1" fill="#ed9f7e" d="M 152.5,130.5 C 149.553,127.624 147.553,128.291 146.5,132.5C 147.15,135.004 148.817,136.337 151.5,136.5C 153.515,137.924 155.848,138.59 158.5,138.5C 159.551,139.222 160.218,140.222 160.5,141.5C 160.167,142.167 159.833,142.833 159.5,143.5C 154.452,140.505 153.785,141.005 157.5,145C 157.272,145.399 156.938,145.565 156.5,145.5C 155.508,145.328 154.842,145.662 154.5,146.5C 153.089,148.539 151.089,149.539 148.5,149.5C 144.818,149.665 141.152,149.499 137.5,149C 136.175,146.015 134.842,143.015 133.5,140C 136.482,135.367 140.149,131.367 144.5,128C 147.406,126.682 150.406,126.348 153.5,127C 154.985,128.756 154.652,129.923 152.5,130.5 Z"/></g>
<g><path style="opacity:1" fill="#fefffe" d="M 107.5,129.5 C 107.631,130.239 107.464,130.906 107,131.5C 105.698,132.085 104.531,132.751 103.5,133.5C 102.391,133.443 101.391,133.11 100.5,132.5C 100.965,129.527 102.632,128.36 105.5,129C 104.672,129.915 103.672,130.581 102.5,131C 104.495,131.613 106.162,131.113 107.5,129.5 Z"/></g>
<g><path style="opacity:1" fill="#fefffe" d="M 107.5,129.5 C 108.209,128.596 109.209,128.263 110.5,128.5C 110.973,129.906 111.973,130.573 113.5,130.5C 113.511,132.017 114.177,133.184 115.5,134C 113.923,135.93 112.59,135.763 111.5,133.5C 110.5,131.833 109.167,130.5 107.5,129.5 Z"/></g>
<g><path style="opacity:1" fill="#000000" d="M 107.5,129.5 C 109.167,130.5 110.5,131.833 111.5,133.5C 110.206,134.29 109.039,135.29 108,136.5C 107.493,135.004 107.993,133.837 109.5,133C 109.167,132.833 108.833,132.667 108.5,132.5C 107.265,133.34 106.265,134.34 105.5,135.5C 105.5,134.167 104.833,133.5 103.5,133.5C 104.531,132.751 105.698,132.085 107,131.5C 107.464,130.906 107.631,130.239 107.5,129.5 Z"/></g>
<g><path style="opacity:1" fill="#2f33a7" d="M 124.5,129.5 C 125.833,130.167 126.833,131.167 127.5,132.5C 126.122,133.234 124.622,133.901 123,134.5C 122.722,133.584 122.222,132.918 121.5,132.5C 121.856,130.81 122.856,129.81 124.5,129.5 Z"/></g>
<g><path style="opacity:1" fill="#81563f" d="M 152.5,130.5 C 154.179,133.012 153.845,135.012 151.5,136.5C 148.817,136.337 147.15,135.004 146.5,132.5C 147.553,128.291 149.553,127.624 152.5,130.5 Z"/></g>
<g><path style="opacity:1" fill="#efa17f" d="M 239.5,136.5 C 239.338,138.527 239.505,140.527 240,142.5C 240.513,141.473 241.013,140.473 241.5,139.5C 242.338,139.158 242.672,138.492 242.5,137.5C 243.461,135.735 243.795,133.735 243.5,131.5C 244.167,131.167 244.833,130.833 245.5,130.5C 246.112,134.163 246.279,137.83 246,141.5C 242.947,144.081 239.447,145.915 235.5,147C 234.778,148.751 233.778,150.251 232.5,151.5C 227.672,154.47 223.339,153.803 219.5,149.5C 219.336,146.813 219.503,144.146 220,141.5C 221.31,140.103 222.81,139.103 224.5,138.5C 225.338,138.158 225.672,137.492 225.5,136.5C 226.29,135.391 226.79,134.058 227,132.5C 227.671,131.748 228.504,131.414 229.5,131.5C 231.164,146.161 231.498,146.161 230.5,131.5C 231.391,130.89 232.391,130.557 233.5,130.5C 233.392,134.247 233.892,137.914 235,141.5C 235.062,137.852 234.895,134.185 234.5,130.5C 235.15,130.196 235.817,129.863 236.5,129.5C 236.974,132.217 237.974,134.55 239.5,136.5 Z"/></g>
<g><path style="opacity:1" fill="#fec90d" d="M 304.5,133.5 C 303.655,135.762 302.322,136.429 300.5,135.5C 300.5,133.833 300.5,132.167 300.5,130.5C 301.15,130.196 301.817,129.863 302.5,129.5C 303.172,130.949 303.839,132.282 304.5,133.5 Z"/></g>
<g><path style="opacity:1" fill="#2f32a2" d="M 100.5,132.5 C 101.053,134.552 102.053,134.885 103.5,133.5C 104.833,133.5 105.5,134.167 105.5,135.5C 105.557,136.609 105.89,137.609 106.5,138.5C 106.5,139.833 105.833,140.5 104.5,140.5C 101.996,139.416 99.6626,138.083 97.5,136.5C 96.7375,135.732 95.7375,135.232 94.5,135C 96,133.5 97.5,132 99,130.5C 99.2784,131.416 99.7784,132.082 100.5,132.5 Z"/></g>
<g><path style="opacity:1" fill="#000000" d="M 233.5,130.5 C 233.833,130.5 234.167,130.5 234.5,130.5C 234.895,134.185 235.062,137.852 235,141.5C 233.892,137.914 233.392,134.247 233.5,130.5 Z"/></g>
<g><path style="opacity:1" fill="#000000" d="M 300.5,130.5 C 300.5,132.167 300.5,133.833 300.5,135.5C 299.596,134.791 299.263,133.791 299.5,132.5C 297.5,132.5 295.5,132.5 293.5,132.5C 295.715,131.732 298.048,131.065 300.5,130.5 Z"/></g>
<g><path style="opacity:1" fill="#fefffe" d="M 121.5,132.5 C 121.209,133.649 120.376,134.316 119,134.5C 118.167,134.333 117.333,134.167 116.5,134C 117.931,133.535 119.097,132.701 120,131.5C 120.383,132.056 120.883,132.389 121.5,132.5 Z"/></g>
<g><path style="opacity:1" fill="#000000" d="M 229.5,131.5 C 229.833,131.5 230.167,131.5 230.5,131.5C 231.498,146.161 231.164,146.161 229.5,131.5 Z"/></g>
<g><path style="opacity:1" fill="#000000" d="M 243.5,131.5 C 243.795,133.735 243.461,135.735 242.5,137.5C 242.119,136.069 241.119,135.236 239.5,135C 240.448,134.517 241.448,134.351 242.5,134.5C 242.263,133.209 242.596,132.209 243.5,131.5 Z"/></g>
<g><path style="opacity:1" fill="#000000" d="M 100.5,132.5 C 101.391,133.11 102.391,133.443 103.5,133.5C 102.053,134.885 101.053,134.552 100.5,132.5 Z"/></g>
<g><path style="opacity:1" fill="#fefffe" d="M 111.5,133.5 C 110.833,136.167 109.167,137.833 106.5,138.5C 105.89,137.609 105.557,136.609 105.5,135.5C 106.265,134.34 107.265,133.34 108.5,132.5C 108.833,132.667 109.167,132.833 109.5,133C 107.993,133.837 107.493,135.004 108,136.5C 109.039,135.29 110.206,134.29 111.5,133.5 Z"/></g>
<g><path style="opacity:1" fill="#fec90d" d="M 259.5,133.5 C 262.976,132.357 266.642,132.19 270.5,133C 269.845,134.487 268.845,135.653 267.5,136.5C 264.524,136.067 261.857,135.067 259.5,133.5 Z"/></g>
<g><path style="opacity:1" fill="#fefffe" d="M 293.5,132.5 C 295.5,132.5 297.5,132.5 299.5,132.5C 299.263,133.791 299.596,134.791 300.5,135.5C 298.19,136.164 295.69,136.497 293,136.5C 285.5,136 278,135.5 270.5,135C 278.18,133.866 285.846,133.033 293.5,132.5 Z"/></g>
<g><path style="opacity:1" fill="#fefffe" d="M 246.5,134.5 C 248.304,133.838 250.304,133.505 252.5,133.5C 255.037,133.397 257.371,133.897 259.5,135C 255.08,135.768 250.747,135.602 246.5,134.5 Z"/></g>
<g><path style="opacity:1" fill="#b87a56" d="M 124.5,135.5 C 127.85,135.335 131.183,135.502 134.5,136C 133.667,136.833 132.833,137.667 132,138.5C 130.087,136.813 127.92,136.313 125.5,137C 119.787,139.181 114.787,142.348 110.5,146.5C 109.446,146.68 108.446,147.013 107.5,147.5C 106.455,143.226 107.789,139.726 111.5,137C 116.019,136.825 120.353,136.325 124.5,135.5 Z"/></g>
<g><path style="opacity:1" fill="#fefffe" d="M 97.5,136.5 C 99.6626,138.083 101.996,139.416 104.5,140.5C 105.412,141.738 105.579,143.072 105,144.5C 104.333,141.833 103.667,141.833 103,144.5C 102.641,141.456 101.974,141.122 101,143.5C 100.641,140.456 99.9745,140.122 99,142.5C 98.6667,141.167 98.3333,139.833 98,138.5C 97.0255,140.878 96.3589,140.544 96,137.5C 95.7508,138.624 95.2508,139.624 94.5,140.5C 92.5121,139.711 92.1787,138.545 93.5,137C 94.7932,136.51 96.1266,136.343 97.5,136.5 Z"/></g>
<g><path style="opacity:1" fill="#000000" d="M 239.5,136.5 C 240.167,137.5 240.833,138.5 241.5,139.5C 241.013,140.473 240.513,141.473 240,142.5C 239.505,140.527 239.338,138.527 239.5,136.5 Z"/></g>
<g><path style="opacity:1" fill="#fec90d" d="M 169.5,137.5 C 170.586,137.62 171.253,138.287 171.5,139.5C 168.364,143.434 164.364,144.767 159.5,143.5C 159.833,142.833 160.167,142.167 160.5,141.5C 163.317,139.715 166.317,138.382 169.5,137.5 Z"/></g>
<g><path style="opacity:1" fill="#fefffe" d="M 224.5,138.5 C 207.096,138.014 189.762,138.68 172.5,140.5C 172.5,139.5 172.5,138.5 172.5,137.5C 190.008,137.17 207.341,137.503 224.5,138.5 Z"/></g>
<g><path style="opacity:1" fill="#2d2f96" d="M 133.5,159.5 C 133.209,158.351 132.376,157.684 131,157.5C 129.93,157.528 129.097,157.861 128.5,158.5C 128.5,159.167 128.167,159.5 127.5,159.5C 126.833,159.167 126.167,158.833 125.5,158.5C 126.448,157.022 127.781,156.022 129.5,155.5C 130.66,154.735 131.66,153.735 132.5,152.5C 131.995,151.081 130.995,150.415 129.5,150.5C 128.209,150.737 127.209,150.404 126.5,149.5C 128.722,148.464 129.888,146.797 130,144.5C 129.586,144.043 129.086,143.709 128.5,143.5C 126.402,143.957 124.736,144.957 123.5,146.5C 122.833,146.5 122.167,146.5 121.5,146.5C 120.833,146.5 120.5,146.167 120.5,145.5C 120.5,145.167 120.5,144.833 120.5,144.5C 121.795,143.512 123.128,142.512 124.5,141.5C 125.712,140.77 126.712,139.77 127.5,138.5C 134.802,144.064 136.802,151.064 133.5,159.5 Z"/></g>
<g><path style="opacity:1" fill="#fefffe" d="M 124.5,141.5 C 123.128,142.512 121.795,143.512 120.5,144.5C 119.711,144.217 119.044,143.717 118.5,143C 120.167,142.167 121.833,141.333 123.5,140.5C 124.107,140.624 124.44,140.957 124.5,141.5 Z"/></g>
<g><path style="opacity:1" fill="#eb1b23" d="M 212.5,157.5 C 216.28,162.213 220.946,163.547 226.5,161.5C 224.822,166.972 221.822,172.139 217.5,177C 215.863,177.601 214.197,178.101 212.5,178.5C 201.732,173.366 190.898,168.366 180,163.5C 178.233,164.34 176.899,165.673 176,167.5C 174.887,166.695 173.721,166.028 172.5,165.5C 176.152,161.861 178.485,157.528 179.5,152.5C 182.444,148.252 185.611,144.252 189,140.5C 195.703,143.869 201.869,148.035 207.5,153C 202.85,155.471 200.683,159.304 201,164.5C 202.573,159.429 205.74,155.762 210.5,153.5C 211.172,154.949 211.839,156.282 212.5,157.5 Z"/></g>
<g><path style="opacity:1" fill="#ec1c23" d="M 116.5,146.5 C 118.929,147.855 120.262,149.522 120.5,151.5C 121.11,152.391 121.443,153.391 121.5,154.5C 120.903,154.735 120.57,155.235 120.5,156C 121.167,157 121.833,158 122.5,159C 121.308,161.055 121.308,163.055 122.5,165C 116.923,166.954 111.256,168.621 105.5,170C 100.109,175.02 93.7753,177.02 86.5,176C 81.4904,175.483 79.1571,172.649 79.5,167.5C 80,165.5 80.5,163.5 81,161.5C 85.5,155.167 90,148.833 94.5,142.5C 98.2808,142.9 101.614,144.734 104.5,148C 95.4575,150.065 89.2908,155.232 86,163.5C 88.4626,160.035 91.2959,156.869 94.5,154C 101.816,151.178 109.149,148.678 116.5,146.5 Z"/></g>
<g><path style="opacity:1" fill="#fefffe" d="M 159.5,143.5 C 160.048,146.084 161.715,147.084 164.5,146.5C 164.139,152.593 164.639,158.593 166,164.5C 169.055,166.519 172.222,168.352 175.5,170C 170.72,171.062 166.554,169.562 163,165.5C 160.142,159.023 157.975,152.356 156.5,145.5C 156.938,145.565 157.272,145.399 157.5,145C 153.785,141.005 154.452,140.505 159.5,143.5 Z"/></g>
<g><path style="opacity:1" fill="#2d2f97" d="M 174.5,142.5 C 173.154,144.537 171.82,146.537 170.5,148.5C 169.833,148.5 169.167,148.5 168.5,148.5C 168.222,143.705 170.222,141.705 174.5,142.5 Z"/></g>
<g><path style="opacity:1" fill="#fefffe" d="M 177.5,143.5 C 174.188,148.113 171.354,153.113 169,158.5C 168.586,158.043 168.086,157.709 167.5,157.5C 166.34,153.541 166.173,149.541 167,145.5C 167.232,146.737 167.732,147.737 168.5,148.5C 168.584,153.64 169.25,153.64 170.5,148.5C 171.82,146.537 173.154,144.537 174.5,142.5C 175.496,142.586 176.329,142.252 177,141.5C 177.464,142.094 177.631,142.761 177.5,143.5 Z"/></g>
<g><path style="opacity:1" fill="#fefffe" d="M 177.5,143.5 C 179.496,141.667 181.829,141.167 184.5,142C 180.327,147.668 175.993,153.168 171.5,158.5C 171.167,158.333 170.833,158.167 170.5,158C 173.245,153.343 175.579,148.51 177.5,143.5 Z"/></g>
<g><path style="opacity:1" fill="#fefffe" d="M 202.5,143.5 C 205.976,142.357 209.642,142.19 213.5,143C 212.333,144.833 211.167,146.667 210,148.5C 207.872,146.192 205.372,144.526 202.5,143.5 Z"/></g>
<g><path style="opacity:1" fill="#fefffe" d="M 126.5,149.5 C 125.448,149.649 124.448,149.483 123.5,149C 129.907,146.159 129.907,145.326 123.5,146.5C 124.736,144.957 126.402,143.957 128.5,143.5C 129.086,143.709 129.586,144.043 130,144.5C 129.888,146.797 128.722,148.464 126.5,149.5 Z"/></g>
<g><path style="opacity:1" fill="#3036b0" d="M 219.5,149.5 C 223.339,153.803 227.672,154.47 232.5,151.5C 233.239,151.369 233.906,151.536 234.5,152C 232.934,154.326 231.268,156.492 229.5,158.5C 227.095,158.866 224.762,159.533 222.5,160.5C 219.284,159.6 216.618,157.933 214.5,155.5C 214.338,153.473 214.505,151.473 215,149.5C 216.252,147.999 217.252,146.332 218,144.5C 218.198,146.382 218.698,148.048 219.5,149.5 Z"/></g>
<g><path style="opacity:1" fill="#fefffe" d="M 120.5,145.5 C 120.5,146.167 120.833,146.5 121.5,146.5C 121.389,147.117 121.056,147.617 120.5,148C 121.756,148.417 122.423,149.25 122.5,150.5C 121.833,150.833 121.167,151.167 120.5,151.5C 120.262,149.522 118.929,147.855 116.5,146.5C 114.343,145.947 114.51,144.947 117,143.5C 117.816,144.823 118.983,145.489 120.5,145.5 Z"/></g>
<g><path style="opacity:1" fill="#0d0d0d" d="M 126.5,149.5 C 127.209,150.404 128.209,150.737 129.5,150.5C 127.833,151.167 126.167,151.833 124.5,152.5C 123.833,151.833 123.167,151.167 122.5,150.5C 122.423,149.25 121.756,148.417 120.5,148C 121.056,147.617 121.389,147.117 121.5,146.5C 122.167,146.5 122.833,146.5 123.5,146.5C 129.907,145.326 129.907,146.159 123.5,149C 124.448,149.483 125.448,149.649 126.5,149.5 Z"/></g>
<g><path style="opacity:1" fill="#fefffe" d="M 154.5,146.5 C 155.825,152.69 153.991,158.024 149,162.5C 147.257,160.679 145.757,158.679 144.5,156.5C 146.11,154.275 147.443,151.941 148.5,149.5C 151.089,149.539 153.089,148.539 154.5,146.5 Z"/></g>
<g><path style="opacity:1" fill="#000000" d="M 168.5,148.5 C 169.167,148.5 169.833,148.5 170.5,148.5C 169.25,153.64 168.584,153.64 168.5,148.5 Z"/></g>
<g><path style="opacity:1" fill="#fefffe" d="M 122.5,150.5 C 123.167,151.167 123.833,151.833 124.5,152.5C 124.44,153.043 124.107,153.376 123.5,153.5C 122.614,152.675 122.281,151.675 122.5,150.5 Z"/></g>
<g><path style="opacity:1" fill="#fefffe" d="M 129.5,150.5 C 130.995,150.415 131.995,151.081 132.5,152.5C 131.66,153.735 130.66,154.735 129.5,155.5C 128.127,155.657 126.793,155.49 125.5,155C 127.044,154.71 128.377,154.044 129.5,153C 127.773,153.526 126.106,153.359 124.5,152.5C 126.167,151.833 127.833,151.167 129.5,150.5 Z"/></g>
<g><path style="opacity:1" fill="#713a15" d="M 137.5,150.5 C 141.137,155.658 144.637,160.991 148,166.5C 148.884,168.641 148.384,170.307 146.5,171.5C 143.176,168.006 140.009,164.339 137,160.5C 136.828,157.174 136.995,153.841 137.5,150.5 Z"/></g>
<g><path style="opacity:1" fill="#a80e14" d="M 140.5,151.5 C 146.539,149.578 147.372,150.578 143,154.5C 142.148,153.429 141.315,152.429 140.5,151.5 Z"/></g>
<g><path style="opacity:1" fill="#a80e14" d="M 179.5,152.5 C 178.485,157.528 176.152,161.861 172.5,165.5C 168.666,165.172 166.833,163.172 167,159.5C 169.064,160.591 171.231,160.758 173.5,160C 175.364,157.312 177.364,154.812 179.5,152.5 Z"/></g>
<g><path style="opacity:1" fill="#fefffe" d="M 214.5,155.5 C 216.618,157.933 219.284,159.6 222.5,160.5C 224.762,159.533 227.095,158.866 229.5,158.5C 228.694,159.728 227.694,160.728 226.5,161.5C 220.946,163.547 216.28,162.213 212.5,157.5C 212.34,155.801 212.506,154.134 213,152.5C 213.232,153.737 213.732,154.737 214.5,155.5 Z"/></g>
<g><path style="opacity:1" fill="#fefffe" d="M 121.5,154.5 C 122.675,154.281 123.675,154.614 124.5,155.5C 122.948,156.798 121.948,156.465 121.5,154.5 Z"/></g>
<g><path style="opacity:1" fill="#a80e14" d="M 162.5,168.5 C 160.035,168.767 157.701,169.434 155.5,170.5C 156.333,168.248 156.333,166.081 155.5,164C 153.345,163.884 151.345,164.217 149.5,165C 152.762,162.408 155.262,159.241 157,155.5C 157.749,160.327 159.582,164.66 162.5,168.5 Z"/></g>
<g><path style="opacity:1" fill="#fefffe" d="M 125.5,158.5 C 125.631,159.376 125.298,160.043 124.5,160.5C 123.127,158.192 123.46,157.525 125.5,158.5 Z"/></g>
<g><path style="opacity:1" fill="#000000" d="M 128.5,158.5 C 129.097,157.861 129.93,157.528 131,157.5C 132.376,157.684 133.209,158.351 133.5,159.5C 131.958,158.699 130.292,158.366 128.5,158.5 Z"/></g>
<g><path style="opacity:1" fill="#fefffe" d="M 128.5,158.5 C 130.292,158.366 131.958,158.699 133.5,159.5C 131.492,161.268 129.326,162.934 127,164.5C 126.36,162.735 126.527,161.068 127.5,159.5C 128.167,159.5 128.5,159.167 128.5,158.5 Z"/></g>
<g><path style="opacity:1" fill="#fefffe" d="M 122.5,161.5 C 123.675,161.281 124.675,161.614 125.5,162.5C 123.948,163.798 122.948,163.465 122.5,161.5 Z"/></g>
<g><path style="opacity:1" fill="#fec90d" d="M 134.5,161.5 C 138.301,165.473 141.968,169.64 145.5,174C 142.417,174.786 140.251,176.619 139,179.5C 136.554,177.041 134.054,174.708 131.5,172.5C 132.767,170.12 132.434,167.954 130.5,166C 131.344,163.993 132.677,162.493 134.5,161.5 Z"/></g>
<g><path style="opacity:1" fill="#fefffe" d="M 153.5,164.5 C 155.76,165.238 155.927,166.238 154,167.5C 152.272,166.648 152.105,165.648 153.5,164.5 Z"/></g>
<g><path style="opacity:1" fill="#a80e14" d="M 123.5,166.5 C 125.199,166.34 126.866,166.506 128.5,167C 123.354,172.477 117.854,177.644 112,182.5C 111.073,178.987 110.239,175.487 109.5,172C 114.114,169.855 118.781,168.021 123.5,166.5 Z"/></g>
<g><path style="opacity:1" fill="#fefffe" d="M 150.5,167.5 C 151.239,167.369 151.906,167.536 152.5,168C 150.159,173.688 146.826,178.688 142.5,183C 134.03,184.526 129.863,181.026 130,172.5C 132.561,175.621 135.561,178.288 139,180.5C 141.099,177.78 143.765,175.78 147,174.5C 148.705,172.423 149.872,170.09 150.5,167.5 Z"/></g>
<g><path style="opacity:1" fill="#fefffe" d="M 128.5,168.5 C 131.674,168.952 132.007,169.952 129.5,171.5C 127.481,170.867 127.147,169.867 128.5,168.5 Z"/></g>
<g><path style="opacity:1" fill="#fefffe" d="M 153.5,168.5 C 154.788,170.035 154.788,171.701 153.5,173.5C 152.692,173.192 152.025,172.692 151.5,172C 152.305,170.887 152.972,169.721 153.5,168.5 Z"/></g>
<g><path style="opacity:1" fill="#ec1c23" d="M 162.5,168.5 C 165.342,170.087 168.008,171.92 170.5,174C 169.724,180.463 169.224,186.963 169,193.5C 164.442,188.283 159.942,183.116 155.5,178C 156.45,175.568 156.45,173.068 155.5,170.5C 157.701,169.434 160.035,168.767 162.5,168.5 Z"/></g>
<g><path style="opacity:1" fill="#fefffe" d="M 126.5,172.5 C 127.649,172.791 128.316,173.624 128.5,175C 129.125,176.841 129.292,178.674 129,180.5C 124.147,186.679 117.98,191.012 110.5,193.5C 109.488,191.163 109.655,188.83 111,186.5C 116.362,181.968 121.528,177.301 126.5,172.5 Z"/></g>
<g><path style="opacity:1" fill="#fefffe" d="M 150.5,173.5 C 152.971,176.373 152.471,179.04 149,181.5C 148.626,180.584 148.126,179.75 147.5,179C 149.16,177.512 150.16,175.679 150.5,173.5 Z"/></g>
<g><path style="opacity:1" fill="#fefffe" d="M 152.5,175.5 C 153.386,174.224 154.386,174.224 155.5,175.5C 154.575,176.562 153.575,176.562 152.5,175.5 Z"/></g>
<g><path style="opacity:1" fill="#fefffe" d="M 104.5,177.5 C 105.773,178.077 105.773,178.743 104.5,179.5C 103.537,179.03 103.537,178.363 104.5,177.5 Z"/></g>
<g><path style="opacity:1" fill="#fefffe" d="M 153.5,177.5 C 155.346,179.03 156.346,181.03 156.5,183.5C 154.143,183.663 151.81,183.497 149.5,183C 151.439,181.568 152.772,179.735 153.5,177.5 Z"/></g>
<g><path style="opacity:1" fill="#fefffe" d="M 146.5,180.5 C 148.103,183.562 150.77,185.062 154.5,185C 157.984,189.451 161.817,193.618 166,197.5C 167.559,199.217 168.392,201.217 168.5,203.5C 158.237,199.851 149.904,193.518 143.5,184.5C 144.524,183.148 145.524,181.815 146.5,180.5 Z"/></g>
<g><path style="opacity:1" fill="#741511" d="M 136.5,187.5 C 136.5,188.167 136.5,188.833 136.5,189.5C 137.609,190.29 138.942,190.79 140.5,191C 141.774,191.977 141.774,192.811 140.5,193.5C 136.673,193.44 136.006,194.607 138.5,197C 140.473,197.495 142.473,197.662 144.5,197.5C 146.67,198.838 148.336,200.672 149.5,203C 147.934,203.765 146.601,203.598 145.5,202.5C 143.012,200.612 140.012,199.945 136.5,200.5C 136.167,200.5 135.833,200.5 135.5,200.5C 134.833,200.5 134.167,200.5 133.5,200.5C 132.039,201.686 130.705,201.686 129.5,200.5C 129.611,199.883 129.944,199.383 130.5,199C 127.828,198.166 125.161,197.332 122.5,196.5C 121.702,196.957 121.369,197.624 121.5,198.5C 120.065,199.096 118.398,199.096 116.5,198.5C 114.77,197.974 113.436,196.974 112.5,195.5C 115.021,193.981 117.521,192.314 120,190.5C 120.278,191.416 120.778,192.082 121.5,192.5C 124.215,194.123 127.215,194.79 130.5,194.5C 131.715,193.221 131.382,192.221 129.5,191.5C 127.302,191.88 125.635,191.213 124.5,189.5C 124.328,188.508 124.662,187.842 125.5,187.5C 127.042,188.301 128.708,188.634 130.5,188.5C 130.5,187.5 130.5,186.5 130.5,185.5C 130.082,184.778 129.416,184.278 128.5,184C 129.333,183.167 130.167,182.333 131,181.5C 132.925,183.213 135.092,184.547 137.5,185.5C 137.137,186.183 136.804,186.85 136.5,187.5 Z"/></g>
<g><path style="opacity:1" fill="#713a15" d="M 157.5,182.5 C 163.781,190.946 171.281,198.28 180,204.5C 183.894,213.289 188.061,221.955 192.5,230.5C 190.604,231.466 188.604,231.799 186.5,231.5C 184.656,222.478 181.156,214.145 176,206.5C 170.01,199.874 164.01,193.208 158,186.5C 157.51,185.207 157.343,183.873 157.5,182.5 Z"/></g>
<g><path style="opacity:1" fill="#2c2d2c" d="M 103.5,183.5 C 105.167,183.5 106.833,183.5 108.5,183.5C 108.428,186.193 108.095,188.86 107.5,191.5C 109.137,195.449 110.803,199.449 112.5,203.5C 111.652,205.409 111.318,207.409 111.5,209.5C 109.533,209.739 107.699,209.406 106,208.5C 105.444,201.157 104.777,193.823 104,186.5C 103.25,185.874 102.416,185.374 101.5,185C 102.416,184.722 103.082,184.222 103.5,183.5 Z"/></g>
<g><path style="opacity:1" fill="#713a15" d="M 171.5,183.5 C 174.999,186.166 177.999,189.333 180.5,193C 176.835,193.387 174.002,191.887 172,188.5C 171.506,186.866 171.34,185.199 171.5,183.5 Z"/></g>
<g><path style="opacity:1" fill="#736635" d="M 138.5,185.5 C 139.386,184.224 140.386,184.224 141.5,185.5C 146.391,192.779 152.725,198.446 160.5,202.5C 165.308,210.485 169.474,218.819 173,227.5C 174.645,229.662 176.812,230.995 179.5,231.5C 180.344,235.48 180.177,239.48 179,243.5C 178.103,246.53 176.603,247.364 174.5,246C 173.839,243.536 173.339,241.036 173,238.5C 163.965,219.062 152.465,201.395 138.5,185.5 Z"/></g>
<g><path style="opacity:1" fill="#fefffe" d="M 130.5,185.5 C 130.5,186.5 130.5,187.5 130.5,188.5C 128.708,188.634 127.042,188.301 125.5,187.5C 126.635,185.787 128.302,185.12 130.5,185.5 Z"/></g>
<g><path style="opacity:1" fill="#2c2d2c" d="M 99.5,186.5 C 100.822,186.33 101.989,186.663 103,187.5C 104.171,194.179 104.337,200.846 103.5,207.5C 102.18,209.27 100.68,209.603 99,208.5C 98.2365,201.118 98.4032,193.784 99.5,186.5 Z"/></g>
<g><path style="opacity:1" fill="#fefffe" d="M 133.5,187.5 C 135.337,187.639 135.67,188.306 134.5,189.5C 133.702,189.043 133.369,188.376 133.5,187.5 Z"/></g>
<g><path style="opacity:1" fill="#fefffe" d="M 136.5,187.5 C 140.289,188.596 140.289,189.263 136.5,189.5C 136.5,188.833 136.5,188.167 136.5,187.5 Z"/></g>
<g><path style="opacity:1" fill="#fefffe" d="M 124.5,189.5 C 125.635,191.213 127.302,191.88 129.5,191.5C 128.391,192.29 127.058,192.79 125.5,193C 127.382,193.198 129.048,193.698 130.5,194.5C 127.215,194.79 124.215,194.123 121.5,192.5C 121.5,190.5 122.5,189.5 124.5,189.5 Z"/></g>
<g><path style="opacity:1" fill="#000000" d="M 129.5,191.5 C 131.382,192.221 131.715,193.221 130.5,194.5C 129.048,193.698 127.382,193.198 125.5,193C 127.058,192.79 128.391,192.29 129.5,191.5 Z"/></g>
<g><path style="opacity:1" fill="#fefffe" d="M 140.5,193.5 C 141.263,194.268 142.263,194.768 143.5,195C 144.252,195.671 144.586,196.504 144.5,197.5C 142.473,197.662 140.473,197.495 138.5,197C 136.006,194.607 136.673,193.44 140.5,193.5 Z"/></g>
<g><path style="opacity:1" fill="#fefffe" d="M 133.5,194.5 C 135.337,194.639 135.67,195.306 134.5,196.5C 133.702,196.043 133.369,195.376 133.5,194.5 Z"/></g>
<g><path style="opacity:1" fill="#7e7f7e" d="M 182.5,196.5 C 181.417,196.539 180.417,196.873 179.5,197.5C 178.614,196.675 178.281,195.675 178.5,194.5C 180.483,194.157 181.817,194.824 182.5,196.5 Z"/></g>
<g><path style="opacity:1" fill="#fefffe" d="M 112.5,195.5 C 113.436,196.974 114.77,197.974 116.5,198.5C 117.842,199.793 119.509,200.626 121.5,201C 126.594,201.524 131.594,202.524 136.5,204C 141.5,204.333 146.5,204.667 151.5,205C 141.425,205.777 131.425,205.277 121.5,203.5C 121.158,202.662 120.492,202.328 119.5,202.5C 118.486,201.326 117.153,200.66 115.5,200.5C 114.312,199.636 113.145,198.636 112,197.5C 111.308,196.563 111.475,195.897 112.5,195.5 Z"/></g>
<g><path style="opacity:1" fill="#00a1e8" d="M 186.5,196.5 C 182.854,197.462 181.687,199.795 183,203.5C 186.31,212.263 190.476,220.596 195.5,228.5C 195.167,228.833 194.833,229.167 194.5,229.5C 188.963,221.092 184.463,212.092 181,202.5C 173.658,199.229 173.825,197.729 181.5,198C 182.056,197.617 182.389,197.117 182.5,196.5C 183.961,195.314 185.295,195.314 186.5,196.5 Z"/></g>
<g><path style="opacity:1" fill="#fefffe" d="M 129.5,200.5 C 126.467,200.868 123.8,200.202 121.5,198.5C 121.369,197.624 121.702,196.957 122.5,196.5C 125.161,197.332 127.828,198.166 130.5,199C 129.944,199.383 129.611,199.883 129.5,200.5 Z"/></g>
<g><path style="opacity:1" fill="#00a1e8" d="M 186.5,196.5 C 187.458,196.953 188.292,197.619 189,198.5C 192.066,206.363 194.732,214.363 197,222.5C 198.179,227.902 197.179,228.568 194,224.5C 190.659,217.132 187.326,209.799 184,202.5C 183.333,201.5 183.333,200.5 184,199.5C 185.045,198.627 185.878,197.627 186.5,196.5 Z"/></g>
<g><path style="opacity:1" fill="#7d7d7d" d="M 115.5,200.5 C 117.153,200.66 118.486,201.326 119.5,202.5C 119.335,206.182 119.501,209.848 120,213.5C 120.615,215.116 121.615,216.449 123,217.5C 124.424,213.703 124.924,209.703 124.5,205.5C 127.86,205.616 131.193,205.949 134.5,206.5C 134.166,213.507 133.666,220.507 133,227.5C 128.807,226.438 125.141,224.438 122,221.5C 121.493,222.996 121.993,224.163 123.5,225C 126.461,226.265 129.461,227.431 132.5,228.5C 133.659,232.122 133.825,235.789 133,239.5C 120.032,250.454 109.698,263.454 102,278.5C 101.503,281.146 101.336,283.813 101.5,286.5C 98.1943,285.18 95.1943,283.347 92.5,281C 90.5643,280.187 88.5643,279.687 86.5,279.5C 85.1359,277.78 84.1359,275.78 83.5,273.5C 94.1333,253.9 103.967,233.9 113,213.5C 113.337,210.139 113.837,206.806 114.5,203.5C 113.097,201.583 113.43,200.583 115.5,200.5 Z"/></g>
<g><path style="opacity:1" fill="#fefffe" d="M 133.5,200.5 C 134.167,200.5 134.833,200.5 135.5,200.5C 134.833,203.167 134.167,203.167 133.5,200.5 Z"/></g>
<g><path style="opacity:1" fill="#fefffe" d="M 136.5,200.5 C 140.012,199.945 143.012,200.612 145.5,202.5C 142.927,203.555 140.261,203.722 137.5,203C 136.748,202.329 136.414,201.496 136.5,200.5 Z"/></g>
<g><path style="opacity:1" fill="#7e7f7e" d="M 121.5,203.5 C 123.481,207.183 123.981,211.183 123,215.5C 120.408,211.668 119.908,207.668 121.5,203.5 Z"/></g>
<g><path style="opacity:1" fill="#675b31" d="M 173.5,212.5 C 176.403,217.977 179.07,223.643 181.5,229.5C 178.609,230.247 176.109,229.247 174,226.5C 171.876,222.703 170.209,218.703 169,214.5C 166.64,211.64 164.473,208.64 162.5,205.5C 165.309,205.611 168.309,205.444 171.5,205C 172.123,207.607 172.79,210.107 173.5,212.5 Z"/></g>
<g><path style="opacity:1" fill="#7e7f7e" d="M 141.5,243.5 C 140.197,241.858 138.864,240.191 137.5,238.5C 136.5,238.5 135.5,238.5 134.5,238.5C 134.5,235.5 134.5,232.5 134.5,229.5C 137.32,229.752 139.986,229.252 142.5,228C 139.94,228.438 137.44,228.271 135,227.5C 134.772,220.501 134.939,213.501 135.5,206.5C 138.167,206.5 140.833,206.5 143.5,206.5C 143.146,210.637 143.646,214.637 145,218.5C 147.466,219.788 149.966,219.788 152.5,218.5C 153.321,215.553 153.821,212.553 154,209.5C 162.577,220.988 168.744,233.654 172.5,247.5C 170.926,280.798 170.093,314.131 170,347.5C 168.433,350.534 165.933,351.867 162.5,351.5C 153.673,351.996 150.34,348.163 152.5,340C 151.547,331.829 150.547,323.662 149.5,315.5C 151.384,309.222 152.051,302.888 151.5,296.5C 151.402,294.063 150.402,292.063 148.5,290.5C 149.022,289.393 149.355,288.226 149.5,287C 146.993,272.455 144.326,257.955 141.5,243.5 Z"/></g>
<g><path style="opacity:1" fill="#7e7f7e" d="M 144.5,206.5 C 147.167,206.5 149.833,206.5 152.5,206.5C 152.823,210.226 152.489,213.893 151.5,217.5C 148.527,219.218 146.36,218.551 145,215.5C 144.502,212.518 144.335,209.518 144.5,206.5 Z"/></g>
<g><path style="opacity:1" fill="#00a1e8" d="M 181.5,229.5 C 179.07,223.643 176.403,217.977 173.5,212.5C 173.338,210.473 173.505,208.473 174,206.5C 179.192,213.749 182.192,221.749 183,230.5C 182.617,229.944 182.117,229.611 181.5,229.5 Z"/></g>
<g><path style="opacity:1" fill="#000000" d="M 115.5,219.5 C 119.351,224.514 124.017,228.681 129.5,232C 127.711,232.52 126.044,232.187 124.5,231C 120.497,227.845 117.497,224.012 115.5,219.5 Z"/></g>
<g><path style="opacity:1" fill="#000000" d="M 142.5,234.5 C 144.923,231.31 147.923,229.144 151.5,228C 148.794,230.676 145.794,232.842 142.5,234.5 Z"/></g>
<g><path style="opacity:1" fill="#000000" d="M 142.5,234.5 C 141.421,236.543 139.754,237.876 137.5,238.5C 138.539,236.469 140.205,235.136 142.5,234.5 Z"/></g>
<g><path style="opacity:1" fill="#4e4f4e" d="M 123.5,241.5 C 124.239,241.369 124.906,241.536 125.5,242C 119.762,248.408 113.429,254.075 106.5,259C 105.207,259.49 103.873,259.657 102.5,259.5C 103.091,256.386 104.758,253.886 107.5,252C 112.727,248.228 118.061,244.728 123.5,241.5 Z"/></g>
<g><path style="opacity:1" fill="#000000" d="M 141.5,243.5 C 141.369,242.761 141.536,242.094 142,241.5C 145.3,244.75 147.634,248.417 149,252.5C 146.636,249.31 144.136,246.31 141.5,243.5 Z"/></g>
<g><path style="opacity:1" fill="#4d4d4d" d="M 86.5,279.5 C 88.5643,279.687 90.5643,280.187 92.5,281C 95.1943,283.347 98.1943,285.18 101.5,286.5C 107.36,270.068 116.86,255.735 130,243.5C 124.839,251.382 119.505,259.382 114,267.5C 112.032,270.737 110.865,274.237 110.5,278C 115.521,290.563 119.855,303.397 123.5,316.5C 123,317.5 122.5,318.5 122,319.5C 121,317.167 119.333,315.5 117,314.5C 115.444,309.72 113.111,305.387 110,301.5C 111.419,305.031 112.919,308.697 114.5,312.5C 113.27,315.524 113.27,318.524 114.5,321.5C 110.478,322.28 106.478,321.946 102.5,320.5C 101.098,316.289 100.264,311.956 100,307.5C 94.6816,298.531 90.1816,289.197 86.5,279.5 Z"/></g>
<g><path style="opacity:1" fill="#2c2d2c" d="M 115.5,316.5 C 119.621,319.284 122.621,322.951 124.5,327.5C 122.396,332.927 118.396,335.593 112.5,335.5C 107.233,335.322 102.566,333.656 98.5,330.5C 101.273,328.039 104.107,325.705 107,323.5C 114.906,326.66 117.74,324.326 115.5,316.5 Z"/></g>
<g><path style="opacity:1" fill="#2a2a2a" d="M 155.5,352.5 C 159.499,353.035 163.499,353.701 167.5,354.5C 168.251,360.411 170.918,365.244 175.5,369C 174.107,370.363 172.441,371.196 170.5,371.5C 165.286,370.429 160.286,368.762 155.5,366.5C 153.395,361.723 153.395,357.056 155.5,352.5 Z"/></g>
</svg>
