<?xml version="1.0" encoding="UTF-8"?>
<!DOCTYPE svg PUBLIC "-//W3C//DTD SVG 1.1//EN" "http://www.w3.org/Graphics/SVG/1.1/DTD/svg11.dtd">
<svg xmlns="http://www.w3.org/2000/svg" version="1.1" width="197px" height="495px" style="shape-rendering:geometricPrecision; text-rendering:geometricPrecision; image-rendering:optimizeQuality; fill-rule:evenodd; clip-rule:evenodd" xmlns:xlink="http://www.w3.org/1999/xlink">
<g><path style="opacity:1" fill="#fefffe" d="M 34.5,13.5 C 39.5111,13.3341 44.5111,13.5007 49.5,14C 65.8688,68.6359 81.7022,123.469 97,178.5C 98.5069,179.535 100.007,179.368 101.5,178C 102.257,176.488 103.257,175.154 104.5,174C 108.5,173.333 112.5,173.333 116.5,174C 123,179.833 129.5,185.667 136,191.5C 138.333,195.167 140.667,198.833 143,202.5C 143.831,210.188 143.665,217.855 142.5,225.5C 141.167,226.167 139.833,226.833 138.5,227.5C 136.659,233.711 135.492,240.045 135,246.5C 133.758,247.872 132.258,248.872 130.5,249.5C 130.167,250.667 129.833,251.833 129.5,253C 130.239,262.483 130.739,271.983 131,281.5C 134.5,286.333 138,291.167 141.5,296C 145.222,294.057 149.388,293.224 154,293.5C 158.549,292.691 162.215,294.024 165,297.5C 165.667,302.167 165.667,306.833 165,311.5C 161.115,315.574 156.615,318.574 151.5,320.5C 151.657,321.873 151.49,323.207 151,324.5C 148.093,327.705 144.593,330.038 140.5,331.5C 149.332,362.161 158.165,392.828 167,423.5C 168.418,428.428 168.751,433.428 168,438.5C 162.554,439.806 157.054,439.806 151.5,438.5C 145.186,417.242 139.186,395.909 133.5,374.5C 132.167,374.5 130.833,374.5 129.5,374.5C 131.327,382.402 131.827,390.402 131,398.5C 126.021,410.582 122.521,423.082 120.5,436C 121.115,438.515 122.115,440.848 123.5,443C 127.099,444.309 130.599,445.809 134,447.5C 135.748,452.299 135.915,457.132 134.5,462C 119.793,464.142 105.126,463.808 90.5,461C 89.0692,460.535 87.9025,459.701 87,458.5C 86.7547,456.337 85.7547,454.67 84,453.5C 82.3705,445.845 83.7038,438.845 88,432.5C 88.0521,420.275 89.3854,408.275 92,396.5C 87.1943,400.11 83.861,404.777 82,410.5C 77.0945,415.983 72.4278,421.649 68,427.5C 67.1484,431.927 65.9818,436.261 64.5,440.5C 66.4359,447.036 66.9359,453.703 66,460.5C 65.2496,461.126 64.4162,461.626 63.5,462C 55.6403,463.088 47.9737,462.421 40.5,460C 38.9512,458.786 37.7845,457.286 37,455.5C 34.7948,444.935 34.1281,434.268 35,423.5C 38.4528,416.334 40.7861,408.667 42,400.5C 43.5843,396.325 45.9177,392.659 49,389.5C 51.112,379.263 51.7787,368.929 51,358.5C 47.2974,355.133 43.964,351.466 41,347.5C 38.7067,337.312 38.04,326.979 39,316.5C 40.3485,312.467 42.6819,309.134 46,306.5C 45.9363,300.283 46.9363,294.283 49,288.5C 59.5676,280.943 66.5676,270.943 70,258.5C 75.1064,255.028 79.9397,251.194 84.5,247C 86.4357,246.187 88.4357,245.687 90.5,245.5C 90.5,242.5 90.5,239.5 90.5,236.5C 89.448,236.649 88.448,236.483 87.5,236C 85.3002,233.766 83.4669,231.266 82,228.5C 79.0189,216.854 78.8522,205.187 81.5,193.5C 66.1014,138.804 50.6014,84.1375 35,29.5C 33.3443,24.1569 33.1777,18.8235 34.5,13.5 Z"/></g>
<g><path style="opacity:1" fill="#020202" d="M 36.5,15.5 C 40.1817,15.3347 43.8484,15.5014 47.5,16C 64.0575,71.6777 80.2242,127.511 96,183.5C 100.511,182.335 104.011,179.835 106.5,176C 109.167,175.333 111.833,175.333 114.5,176C 121,181.833 127.5,187.667 134,193.5C 136.333,197.167 138.667,200.833 141,204.5C 141.153,210.063 141.32,215.563 141.5,221C 140.146,223.86 137.813,225.526 134.5,226C 135.108,227.231 135.441,228.564 135.5,230C 134.109,234.736 133.275,239.569 133,244.5C 131.758,245.872 130.258,246.872 128.5,247.5C 127.919,250.375 126.919,253.042 125.5,255.5C 126.145,256.646 126.978,257.646 128,258.5C 128.529,266.539 128.529,274.539 128,282.5C 133.075,288.313 137.408,294.646 141,301.5C 145.929,295.882 152.095,294.049 159.5,296C 163.367,299.66 164.534,304.16 163,309.5C 159.115,313.574 154.615,316.574 149.5,318.5C 148.316,325.005 144.316,328.339 137.5,328.5C 146.507,360.859 155.674,393.192 165,425.5C 169.302,437.24 165.468,440.907 153.5,436.5C 146.901,413.868 140.401,391.201 134,368.5C 132.682,371.941 130.182,373.275 126.5,372.5C 127.013,376.553 127.846,380.553 129,384.5C 129.667,388.5 129.667,392.5 129,396.5C 123.704,409.182 120.204,422.349 118.5,436C 118.726,439.012 119.559,441.845 121,444.5C 124.667,446.167 128.333,447.833 132,449.5C 133.706,452.959 133.872,456.459 132.5,460C 119.124,462.11 105.791,461.776 92.5,459C 91.0692,458.535 89.9025,457.701 89,456.5C 88.7547,454.337 87.7547,452.67 86,451.5C 84.5321,445.14 85.8654,439.474 90,434.5C 89.9098,420.455 92.0765,406.788 96.5,393.5C 95.9017,392.205 95.4017,390.872 95,389.5C 88.4758,394.684 83.4758,401.017 80,408.5C 75.0945,413.983 70.4278,419.649 66,425.5C 64.896,430.521 63.7294,435.521 62.5,440.5C 64.2337,446.404 64.7337,452.404 64,458.5C 63.2496,459.126 62.4162,459.626 61.5,460C 54.9643,461.011 48.631,460.344 42.5,458C 40.9512,456.786 39.7845,455.286 39,453.5C 36.9178,444.267 36.2511,434.934 37,425.5C 40.4528,418.334 42.7861,410.667 44,402.5C 45.5843,398.325 47.9177,394.659 51,391.5C 52.6733,380.717 53.84,369.884 54.5,359C 50.68,354.511 46.8467,350.011 43,345.5C 42.8404,341.713 42.1737,338.046 41,334.5C 38.4834,324.386 40.8167,315.72 48,308.5C 47.9363,302.283 48.9363,296.283 51,290.5C 61.5676,282.943 68.5676,272.943 72,260.5C 78.3895,254.432 85.5562,249.598 93.5,246C 91.9332,242.108 92.2666,238.442 94.5,235C 89.2532,234.428 85.7532,231.595 84,226.5C 80.669,215.665 80.8357,204.998 84.5,194.5C 67.7754,136.434 51.4421,78.2672 35.5,20C 35.6052,18.4085 35.9386,16.9085 36.5,15.5 Z"/></g>
<g><path style="opacity:1" fill="#b87a56" d="M 115.5,266.5 C 115.62,269.48 116.287,272.313 117.5,275C 115.919,275.707 114.419,276.54 113,277.5C 88.7176,191.647 64.2176,105.814 39.5,20C 41.7489,19.1368 43.5822,19.6368 45,21.5C 68.0361,103.426 91.5361,185.092 115.5,266.5 Z"/></g>
<g><path style="opacity:1" fill="#e0e1e0" d="M 108.5,180.5 C 114.144,183.011 113.811,183.845 107.5,183C 108.252,182.329 108.586,181.496 108.5,180.5 Z"/></g>
<g><path style="opacity:1" fill="#1d1e1d" d="M 105.5,185.5 C 110.08,185.113 114.414,185.947 118.5,188C 126.637,193.619 132.637,200.952 136.5,210C 136.097,212.641 135.097,214.974 133.5,217C 132.056,217.781 130.723,217.614 129.5,216.5C 129.808,215.692 130.308,215.025 131,214.5C 134.11,215.673 134.277,215.173 131.5,213C 133.878,212.026 133.544,211.359 130.5,211C 131.167,210.667 131.833,210.333 132.5,210C 130.687,210.046 129.021,209.88 127.5,209.5C 129.475,208.725 130.309,207.391 130,205.5C 123.735,209.623 123.235,209.123 128.5,204C 126.244,204.615 123.911,204.948 121.5,205C 123.833,204 125.5,202.333 126.5,200C 124.5,200.333 122.5,200.667 120.5,201C 124.611,197.492 124.444,196.992 120,199.5C 119.837,197.613 120.671,196.113 122.5,195C 120.544,195.222 118.71,196.055 117,197.5C 116.805,195.793 116.805,194.126 117,192.5C 116.02,194.059 115.187,195.726 114.5,197.5C 113.667,195.5 112.833,193.5 112,191.5C 110.959,199.879 109.626,200.212 108,192.5C 107.319,194.895 106.485,197.228 105.5,199.5C 104.692,197.577 104.192,195.577 104,193.5C 103.08,196.101 102.413,198.768 102,201.5C 100.139,199.112 98.8061,196.446 98,193.5C 97.6667,194.5 97.3333,195.5 97,196.5C 96.7266,194.899 96.2266,193.399 95.5,192C 98.4905,189.152 101.824,186.985 105.5,185.5 Z"/></g>
<g><path style="opacity:1" fill="#49130e" d="M 117.5,208.5 C 116.306,209.272 115.306,210.272 114.5,211.5C 113.508,211.328 112.842,211.662 112.5,212.5C 110.847,212.66 109.514,213.326 108.5,214.5C 107.508,214.328 106.842,214.662 106.5,215.5C 105.833,215.5 105.167,215.5 104.5,215.5C 103.624,215.631 102.957,215.298 102.5,214.5C 99.5053,209.963 100.505,206.463 105.5,204C 110.169,200.376 114.336,200.876 118,205.5C 118.47,206.577 118.303,207.577 117.5,208.5 Z"/></g>
<g><path style="opacity:1" fill="#00a1e8" d="M 117.5,208.5 C 117.833,208.5 118.167,208.5 118.5,208.5C 118.167,213.167 117.833,217.833 117.5,222.5C 115.816,223.527 114.149,224.527 112.5,225.5C 113.445,220.886 114.112,216.219 114.5,211.5C 115.306,210.272 116.306,209.272 117.5,208.5 Z"/></g>
<g><path style="opacity:1" fill="#fef200" d="M 118.5,208.5 C 119.5,208.833 120.167,209.5 120.5,210.5C 120.276,214.179 119.942,217.846 119.5,221.5C 118.833,221.833 118.167,222.167 117.5,222.5C 117.833,217.833 118.167,213.167 118.5,208.5 Z"/></g>
<g><path style="opacity:1" fill="#00a1e8" d="M 120.5,210.5 C 122.515,212.676 124.182,215.176 125.5,218C 123.612,219.394 121.612,220.56 119.5,221.5C 119.942,217.846 120.276,214.179 120.5,210.5 Z"/></g>
<g><path style="opacity:1" fill="#fef200" d="M 114.5,211.5 C 114.112,216.219 113.445,220.886 112.5,225.5C 111.833,225.833 111.167,226.167 110.5,226.5C 111.074,221.817 111.74,217.15 112.5,212.5C 112.842,211.662 113.508,211.328 114.5,211.5 Z"/></g>
<g><path style="opacity:1" fill="#00a1e8" d="M 112.5,212.5 C 111.74,217.15 111.074,221.817 110.5,226.5C 109.391,226.557 108.391,226.89 107.5,227.5C 108.08,223.19 108.414,218.857 108.5,214.5C 109.514,213.326 110.847,212.66 112.5,212.5 Z"/></g>
<g><path style="opacity:1" fill="#fef200" d="M 108.5,214.5 C 108.414,218.857 108.08,223.19 107.5,227.5C 105.952,227.179 105.285,226.179 105.5,224.5C 106.159,221.545 106.492,218.545 106.5,215.5C 106.842,214.662 107.508,214.328 108.5,214.5 Z"/></g>
<g><path style="opacity:1" fill="#00a1e8" d="M 104.5,215.5 C 105.167,215.5 105.833,215.5 106.5,215.5C 106.492,218.545 106.159,221.545 105.5,224.5C 104.587,222.067 103.587,219.567 102.5,217C 103.416,216.722 104.082,216.222 104.5,215.5 Z"/></g>
<g><path style="opacity:1" fill="#4f140e" d="M 121.5,224.5 C 120.448,224.649 119.448,224.483 118.5,224C 122.749,221.341 127.416,219.841 132.5,219.5C 134,219.453 135,220.119 135.5,221.5C 130.799,222.891 126.132,223.891 121.5,224.5 Z"/></g>
<g><path style="opacity:1" fill="#e3a971" d="M 121.5,224.5 C 123.492,224.328 125.158,224.995 126.5,226.5C 127.167,225.833 127.833,225.167 128.5,224.5C 129.833,226.167 131.167,227.833 132.5,229.5C 129.562,233.175 128.895,237.175 130.5,241.5C 129.564,242.974 128.23,243.974 126.5,244.5C 121.863,238.895 118.53,232.562 116.5,225.5C 118.415,225.784 120.081,225.451 121.5,224.5 Z"/></g>
<g><path style="opacity:1" fill="#870014" d="M 112.5,227.5 C 113.675,227.281 114.675,227.614 115.5,228.5C 118.119,234.24 121.119,239.74 124.5,245C 124,245.5 123.5,246 123,246.5C 118.461,240.756 114.961,234.422 112.5,227.5 Z"/></g>
<g><path style="opacity:1" fill="#eb9c62" d="M 117.5,244.5 C 115.365,242.929 113.032,241.596 110.5,240.5C 109.571,238.434 108.571,236.267 107.5,234C 108.196,232.107 109.03,230.274 110,228.5C 112.744,233.582 115.577,238.582 118.5,243.5C 118.376,244.107 118.043,244.44 117.5,244.5 Z"/></g>
<g><path style="opacity:1" fill="#000000" d="M 109.5,232.5 C 111.225,232.843 111.725,233.843 111,235.5C 109.961,234.756 109.461,233.756 109.5,232.5 Z"/></g>
<g><path style="opacity:1" fill="#fec90d" d="M 99.5,241.5 C 99.5,240.833 99.1667,240.5 98.5,240.5C 98.7467,238.025 99.4134,238.025 100.5,240.5C 100.376,241.107 100.043,241.44 99.5,241.5 Z"/></g>
<g><path style="opacity:1" fill="#d41e21" d="M 98.5,240.5 C 99.1667,240.5 99.5,240.833 99.5,241.5C 100.74,242.973 101.74,244.64 102.5,246.5C 102.376,247.107 102.043,247.44 101.5,247.5C 100.833,247.5 100.5,247.167 100.5,246.5C 98.1577,244.683 96.991,242.35 97,239.5C 97.3826,240.056 97.8826,240.389 98.5,240.5 Z"/></g>
<g><path style="opacity:1" fill="#2b2e5e" d="M 110.5,240.5 C 113.032,241.596 115.365,242.929 117.5,244.5C 119.814,246.477 122.147,248.477 124.5,250.5C 122.554,253.307 121.054,256.307 120,259.5C 119.536,258.906 119.369,258.239 119.5,257.5C 120.008,254.824 120.175,252.157 120,249.5C 117.521,247.686 115.021,246.019 112.5,244.5C 111.828,243.733 110.995,243.066 110,242.5C 109.308,241.563 109.475,240.897 110.5,240.5 Z"/></g>
<g><path style="opacity:1" fill="#a8201c" d="M 112.5,244.5 C 115.021,246.019 117.521,247.686 120,249.5C 120.175,252.157 120.008,254.824 119.5,257.5C 118.732,258.263 118.232,259.263 118,260.5C 117.51,259.207 117.343,257.873 117.5,256.5C 117.357,254.738 117.691,253.071 118.5,251.5C 116.79,250.113 115.123,248.779 113.5,247.5C 112.571,246.685 111.571,245.852 110.5,245C 111.094,244.536 111.761,244.369 112.5,244.5 Z"/></g>
<g><path style="opacity:1" fill="#fec90d" d="M 100.5,246.5 C 100.5,247.167 100.833,247.5 101.5,247.5C 102.476,248.815 103.476,250.148 104.5,251.5C 104.333,251.833 104.167,252.167 104,252.5C 103.292,251.619 102.458,250.953 101.5,250.5C 101.5,249.833 101.167,249.5 100.5,249.5C 100.047,248.542 99.3805,247.708 98.5,247C 99.0944,246.536 99.7611,246.369 100.5,246.5 Z"/></g>
<g><path style="opacity:1" fill="#fec90d" d="M 113.5,247.5 C 115.123,248.779 116.79,250.113 118.5,251.5C 117.691,253.071 117.357,254.738 117.5,256.5C 115.121,260.464 114.455,260.131 115.5,255.5C 116.93,253.545 116.597,251.879 114.5,250.5C 113.571,249.685 112.571,248.852 111.5,248C 112.094,247.536 112.761,247.369 113.5,247.5 Z"/></g>
<g><path style="opacity:1" fill="#373f85" d="M 100.5,249.5 C 101.167,249.5 101.5,249.833 101.5,250.5C 100.5,251.167 99.5,251.833 98.5,252.5C 97.7611,252.631 97.0944,252.464 96.5,252C 97.4709,250.519 98.8042,249.685 100.5,249.5 Z"/></g>
<g><path style="opacity:1" fill="#aa201d" d="M 114.5,250.5 C 116.597,251.879 116.93,253.545 115.5,255.5C 113.815,254.816 112.815,253.483 112.5,251.5C 112.957,250.702 113.624,250.369 114.5,250.5 Z"/></g>
<g><path style="opacity:1" fill="#f3bf11" d="M 98.5,252.5 C 101.567,252.121 102.567,253.121 101.5,255.5C 100.5,255.833 99.8333,256.5 99.5,257.5C 97.6208,258.341 95.6208,258.675 93.5,258.5C 93.3894,256.352 94.056,256.019 95.5,257.5C 96.7003,256.469 98.0337,255.635 99.5,255C 97.3808,254.658 97.0474,253.825 98.5,252.5 Z"/></g>
<g><path style="opacity:1" fill="#fec90d" d="M 90.5,253.5 C 97.1356,253.275 97.6356,253.942 92,255.5C 89.6405,255.676 89.1405,255.009 90.5,253.5 Z"/></g>
<g><path style="opacity:1" fill="#292d5b" d="M 101.5,255.5 C 104.89,255.961 105.89,257.627 104.5,260.5C 103.626,258.31 101.959,257.31 99.5,257.5C 99.8333,256.5 100.5,255.833 101.5,255.5 Z"/></g>
<g><path style="opacity:1" fill="#3c4696" d="M 93.5,258.5 C 93.44,259.043 93.1067,259.376 92.5,259.5C 90.7801,258.066 88.7801,257.233 86.5,257C 89.1982,256.185 91.5315,256.685 93.5,258.5 Z"/></g>
<g><path style="opacity:1" fill="#fec90d" d="M 99.5,257.5 C 101.959,257.31 103.626,258.31 104.5,260.5C 104.737,261.791 104.404,262.791 103.5,263.5C 102.419,261.866 101.085,260.533 99.5,259.5C 99.5,258.833 99.5,258.167 99.5,257.5 Z"/></g>
<g><path style="opacity:1" fill="#3b44c6" d="M 89.5,289.5 C 88.4489,290.222 87.7822,291.222 87.5,292.5C 86.1148,293.947 86.4482,294.947 88.5,295.5C 90.0764,296.143 91.4097,297.143 92.5,298.5C 92.33,299.822 92.6634,300.989 93.5,302C 85.7122,305.207 77.7122,307.707 69.5,309.5C 63.0848,309.581 59.9181,306.581 60,300.5C 62.2397,296.024 63.9064,291.357 65,286.5C 71.0029,279.676 75.5029,272.009 78.5,263.5C 86.4032,257.308 92.5699,258.641 97,267.5C 98.2012,279.639 92.7012,286.473 80.5,288C 83.6946,288.181 86.6946,288.681 89.5,289.5 Z"/></g>
<g><path style="opacity:1" fill="#3c4696" d="M 99.5,259.5 C 100.694,261.484 100.694,263.484 99.5,265.5C 97.9596,263.613 96.2929,261.78 94.5,260C 96.1341,259.506 97.8008,259.34 99.5,259.5 Z"/></g>
<g><path style="opacity:1" fill="#fefffe" d="M 122.5,260.5 C 123.117,260.611 123.617,260.944 124,261.5C 124.667,266.167 124.667,270.833 124,275.5C 123.728,270.451 123.228,265.451 122.5,260.5 Z"/></g>
<g><path style="opacity:1" fill="#fec90d" d="M 120.5,264.5 C 120.167,264.5 119.833,264.5 119.5,264.5C 118.537,263.637 118.537,262.97 119.5,262.5C 120.298,262.957 120.631,263.624 120.5,264.5 Z"/></g>
<g><path style="opacity:1" fill="#fec90d" d="M 103.5,263.5 C 103.5,264.167 103.5,264.833 103.5,265.5C 100.833,264.833 100.833,264.167 103.5,263.5 Z"/></g>
<g><path style="opacity:1" fill="#fec90d" d="M 105.5,265.5 C 105.783,264.711 106.283,264.044 107,263.5C 107.528,264.816 107.028,265.483 105.5,265.5 Z"/></g>
<g><path style="opacity:1" fill="#2e35a1" d="M 115.5,266.5 C 116.514,265.326 117.847,264.66 119.5,264.5C 119.833,264.5 120.167,264.5 120.5,264.5C 121.117,264.389 121.617,264.056 122,263.5C 122.499,267.152 122.665,270.818 122.5,274.5C 121.167,274.5 119.833,274.5 118.5,274.5C 118.229,272.179 118.896,270.179 120.5,268.5C 118.978,267.438 117.312,266.771 115.5,266.5 Z"/></g>
<g><path style="opacity:1" fill="#353c80" d="M 103.5,265.5 C 104.167,265.5 104.833,265.5 105.5,265.5C 108.091,266.991 109.091,269.325 108.5,272.5C 108.5,273.167 108.167,273.5 107.5,273.5C 106.833,273.167 106.167,272.833 105.5,272.5C 105.167,271.833 104.833,271.167 104.5,270.5C 104.5,269.167 103.833,268.5 102.5,268.5C 101.577,269.303 100.577,269.47 99.5,269C 100.731,267.595 102.064,266.429 103.5,265.5 Z"/></g>
<g><path style="opacity:1" fill="#fec90d" d="M 102.5,268.5 C 103.833,268.5 104.5,269.167 104.5,270.5C 103.167,270.5 102.5,269.833 102.5,268.5 Z"/></g>
<g><path style="opacity:1" fill="#fec90d" d="M 101.5,272.5 C 99.663,272.361 99.3296,271.694 100.5,270.5C 101.298,270.957 101.631,271.624 101.5,272.5 Z"/></g>
<g><path style="opacity:1" fill="#3f47cc" d="M 101.5,272.5 C 102.043,272.56 102.376,272.893 102.5,273.5C 101.757,274.182 101.091,274.849 100.5,275.5C 99.9569,275.44 99.6236,275.107 99.5,274.5C 100.243,273.818 100.909,273.151 101.5,272.5 Z"/></g>
<g><path style="opacity:1" fill="#fec90d" d="M 105.5,272.5 C 105.5,273.167 105.5,273.833 105.5,274.5C 102.833,273.833 102.833,273.167 105.5,272.5 Z"/></g>
<g><path style="opacity:1" fill="#fec90d" d="M 108.5,272.5 C 109.043,272.56 109.376,272.893 109.5,273.5C 108.743,274.773 108.077,274.773 107.5,273.5C 108.167,273.5 108.5,273.167 108.5,272.5 Z"/></g>
<g><path style="opacity:1" fill="#36399e" d="M 105.5,274.5 C 107.086,275.148 108.753,275.648 110.5,276C 109.584,276.278 108.918,276.778 108.5,277.5C 106.781,278.022 105.448,279.022 104.5,280.5C 105.463,281.363 105.463,282.03 104.5,282.5C 103.672,281.585 102.672,280.919 101.5,280.5C 99.7296,282.157 97.7296,282.99 95.5,283C 97.7676,281.442 98.9343,279.276 99,276.5C 99.3826,277.056 99.8826,277.389 100.5,277.5C 101.167,277.5 101.833,277.5 102.5,277.5C 103.5,276.5 104.5,275.5 105.5,274.5 Z"/></g>
<g><path style="opacity:1" fill="#fec90d" d="M 100.5,275.5 C 101.833,275.5 102.5,276.167 102.5,277.5C 101.833,277.5 101.167,277.5 100.5,277.5C 100.5,276.833 100.5,276.167 100.5,275.5 Z"/></g>
<g><path style="opacity:1" fill="#f19358" d="M 115.5,293.5 C 114.167,289.5 112.833,285.5 111.5,281.5C 114.179,279.399 117.012,277.399 120,275.5C 120.5,276 121,276.5 121.5,277C 113.484,281.996 113.817,282.496 122.5,278.5C 122.833,278.833 123.167,279.167 123.5,279.5C 121.167,281 118.833,282.5 116.5,284C 119.269,284.21 121.769,283.377 124,281.5C 124.749,282.635 124.583,283.635 123.5,284.5C 121.483,285.174 119.817,286.341 118.5,288C 120.678,288.165 122.511,287.332 124,285.5C 122.769,289.558 119.935,292.225 115.5,293.5 Z"/></g>
<g><path style="opacity:1" fill="#fec90d" d="M 108.5,277.5 C 110.337,277.639 110.67,278.306 109.5,279.5C 107.929,280.309 106.262,280.643 104.5,280.5C 105.448,279.022 106.781,278.022 108.5,277.5 Z"/></g>
<g><path style="opacity:1" fill="#f19358" d="M 111.5,281.5 C 112.833,285.5 114.167,289.5 115.5,293.5C 108.194,296.264 104.528,293.764 104.5,286C 106.181,283.492 108.514,281.992 111.5,281.5 Z"/></g>
<g><path style="opacity:1" fill="#d51e21" d="M 98.5,298.5 C 96.7341,296.229 94.7341,294.063 92.5,292C 94.4687,290.5 95.802,288.667 96.5,286.5C 98.0902,284.576 99.9235,284.243 102,285.5C 103.231,290.157 104.398,294.824 105.5,299.5C 104.232,301.047 102.565,302.047 100.5,302.5C 99.8281,301.051 99.1614,299.718 98.5,298.5 Z"/></g>
<g><path style="opacity:1" fill="#fec90d" d="M 96.5,286.5 C 95.802,288.667 94.4687,290.5 92.5,292C 94.7341,294.063 96.7341,296.229 98.5,298.5C 98.6567,299.873 98.49,301.207 98,302.5C 97.7679,301.263 97.2679,300.263 96.5,299.5C 95.1177,296.606 93.1177,294.106 90.5,292C 91.3805,291.292 92.0472,290.458 92.5,289.5C 93.2485,288.469 93.9152,287.302 94.5,286C 95.4368,285.308 96.1034,285.475 96.5,286.5 Z"/></g>
<g><path style="opacity:1" fill="#ab201d" d="M 92.5,289.5 C 92.0472,290.458 91.3805,291.292 90.5,292C 93.1177,294.106 95.1177,296.606 96.5,299.5C 96.719,300.675 96.3857,301.675 95.5,302.5C 94.4793,301.099 93.4793,299.765 92.5,298.5C 91.4097,297.143 90.0764,296.143 88.5,295.5C 87.8902,294.609 87.5569,293.609 87.5,292.5C 87.7822,291.222 88.4489,290.222 89.5,289.5C 90.3149,288.571 91.1482,287.571 92,286.5C 92.4828,287.448 92.6495,288.448 92.5,289.5 Z"/></g>
<g><path style="opacity:1" fill="#870014" d="M 61.5,288.5 C 62.0431,288.56 62.3764,288.893 62.5,289.5C 59.1777,296.3 56.3444,303.3 54,310.5C 52.0339,301.563 54.5339,294.23 61.5,288.5 Z"/></g>
<g><path style="opacity:1" fill="#2f37a8" d="M 129.5,295.5 C 129.158,296.338 128.492,296.672 127.5,296.5C 124.332,294.822 123.832,292.489 126,289.5C 127.394,291.388 128.56,293.388 129.5,295.5 Z"/></g>
<g><path style="opacity:1" fill="#000000" d="M 87.5,292.5 C 87.5569,293.609 87.8902,294.609 88.5,295.5C 86.4482,294.947 86.1148,293.947 87.5,292.5 Z"/></g>
<g><path style="opacity:1" fill="#b87a56" d="M 121.5,292.5 C 135.236,339.218 148.902,386.052 162.5,433C 160.559,433.743 158.726,433.576 157,432.5C 144.167,387.167 131.333,341.833 118.5,296.5C 118.787,294.557 119.787,293.223 121.5,292.5 Z"/></g>
<g><path style="opacity:1" fill="#f3f3f3" d="M 115.5,299.5 C 114.18,300.942 112.514,301.608 110.5,301.5C 109.833,301.5 109.5,301.167 109.5,300.5C 109.5,300.167 109.5,299.833 109.5,299.5C 110.167,299.5 110.5,299.167 110.5,298.5C 112.068,297.131 113.901,296.131 116,295.5C 116.579,296.928 116.412,298.262 115.5,299.5 Z"/></g>
<g><path style="opacity:1" fill="#c21f1f" d="M 129.5,295.5 C 130.625,296.348 130.625,297.348 129.5,298.5C 129.158,299.338 128.492,299.672 127.5,299.5C 126.375,298.652 126.375,297.652 127.5,296.5C 128.492,296.672 129.158,296.338 129.5,295.5 Z"/></g>
<g><path style="opacity:1" fill="#7b0613" d="M 110.5,298.5 C 110.5,299.167 110.167,299.5 109.5,299.5C 108.078,299.25 107.078,298.417 106.5,297C 108.463,296.156 109.796,296.656 110.5,298.5 Z"/></g>
<g><path style="opacity:1" fill="#fec90d" d="M 129.5,298.5 C 131.993,298.131 132.66,298.797 131.5,300.5C 130.29,300.932 129.29,301.599 128.5,302.5C 126.519,301.895 126.185,300.895 127.5,299.5C 128.492,299.672 129.158,299.338 129.5,298.5 Z"/></g>
<g><path style="opacity:1" fill="#2a2e5d" d="M 115.5,299.5 C 116.497,299.47 117.164,299.97 117.5,301C 116.139,302.927 115.306,305.094 115,307.5C 113.301,308.406 111.467,308.739 109.5,308.5C 109.167,308.5 108.833,308.5 108.5,308.5C 108.833,307.833 109.167,307.167 109.5,306.5C 110.833,306.5 112.167,306.5 113.5,306.5C 113.69,304.041 112.69,302.374 110.5,301.5C 112.514,301.608 114.18,300.942 115.5,299.5 Z"/></g>
<g><path style="opacity:1" fill="#c2c3c2" d="M 151.5,299.5 C 156.835,299.005 159.335,301.338 159,306.5C 155.667,310.5 152.333,310.5 149,306.5C 148.333,305.167 148.333,303.833 149,302.5C 150.045,301.627 150.878,300.627 151.5,299.5 Z"/></g>
<g><path style="opacity:1" fill="#fec90d" d="M 109.5,300.5 C 109.5,301.167 109.833,301.5 110.5,301.5C 112.69,302.374 113.69,304.041 113.5,306.5C 112.167,306.5 110.833,306.5 109.5,306.5C 108.833,305.167 107.833,304.167 106.5,303.5C 106.856,301.81 107.856,300.81 109.5,300.5 Z"/></g>
<g><path style="opacity:1" fill="#da1e22" d="M 131.5,300.5 C 133.982,301.663 135.316,303.663 135.5,306.5C 133.142,306.253 131.142,306.919 129.5,308.5C 128.172,306.556 127.839,304.556 128.5,302.5C 129.29,301.599 130.29,300.932 131.5,300.5 Z"/></g>
<g><path style="opacity:1" fill="#384088" d="M 81.5,313.5 C 78.5718,313.435 75.9052,312.768 73.5,311.5C 73.6107,310.883 73.944,310.383 74.5,310C 82.7992,307.508 91.1326,305.508 99.5,304C 94.9994,306.416 90.6661,309.083 86.5,312C 84.9751,313.009 83.3084,313.509 81.5,313.5 Z"/></g>
<g><path style="opacity:1" fill="#acacac" d="M 106.5,303.5 C 107.833,304.167 108.833,305.167 109.5,306.5C 109.167,307.167 108.833,307.833 108.5,308.5C 108.672,309.492 108.338,310.158 107.5,310.5C 106.198,309.643 104.865,309.143 103.5,309C 103.043,309.414 102.709,309.914 102.5,310.5C 103.243,311.182 103.909,311.849 104.5,312.5C 103.833,312.5 103.5,312.833 103.5,313.5C 102.5,313.5 101.5,313.5 100.5,313.5C 100.11,308.617 102.11,305.283 106.5,303.5 Z"/></g>
<g><path style="opacity:1" fill="#805035" d="M 143.5,313.5 C 142.833,312.5 142.167,311.5 141.5,310.5C 142.109,308.057 143.609,306.39 146,305.5C 147.167,308 149,309.833 151.5,311C 149.231,313.023 146.564,313.856 143.5,313.5 Z"/></g>
<g><path style="opacity:1" fill="#af9823" d="M 57.5,306.5 C 60.962,308.193 60.962,309.193 57.5,309.5C 57.5,308.5 57.5,307.5 57.5,306.5 Z"/></g>
<g><path style="opacity:1" fill="#830214" d="M 72.5,330.5 C 71.8333,329.833 71.1667,329.167 70.5,328.5C 70.2627,327.209 70.596,326.209 71.5,325.5C 72.552,325.649 73.552,325.483 74.5,325C 81.9668,316.96 90.6335,310.96 100.5,307C 90.123,313.54 80.7896,321.373 72.5,330.5 Z"/></g>
<g><path style="opacity:1" fill="#7c1b1f" d="M 135.5,306.5 C 135.5,307.167 135.5,307.833 135.5,308.5C 134.791,309.404 133.791,309.737 132.5,309.5C 131.209,309.737 130.209,309.404 129.5,308.5C 131.142,306.919 133.142,306.253 135.5,306.5 Z"/></g>
<g><path style="opacity:1" fill="#141414" d="M 107.5,310.5 C 107.5,310.833 107.5,311.167 107.5,311.5C 106.391,311.557 105.391,311.89 104.5,312.5C 103.909,311.849 103.243,311.182 102.5,310.5C 102.709,309.914 103.043,309.414 103.5,309C 104.865,309.143 106.198,309.643 107.5,310.5 Z"/></g>
<g><path style="opacity:1" fill="#fec90d" d="M 108.5,308.5 C 108.833,308.5 109.167,308.5 109.5,308.5C 110.609,309.29 111.942,309.79 113.5,310C 111.75,311.319 109.75,311.819 107.5,311.5C 107.5,311.167 107.5,310.833 107.5,310.5C 108.338,310.158 108.672,309.492 108.5,308.5 Z"/></g>
<g><path style="opacity:1" fill="#f19358" d="M 135.5,308.5 C 136.5,308.833 137.167,309.5 137.5,310.5C 133.944,312.087 132.778,314.754 134,318.5C 137.258,321.346 140.092,321.013 142.5,317.5C 143.239,317.369 143.906,317.536 144.5,318C 141.631,321.604 137.965,323.27 133.5,323C 132.167,319 130.833,315 129.5,311C 130.737,310.768 131.737,310.268 132.5,309.5C 133.791,309.737 134.791,309.404 135.5,308.5 Z"/></g>
<g><path style="opacity:1" fill="#148eca" d="M 64.5,311.5 C 67.9415,313.612 70.2748,316.612 71.5,320.5C 71.5,322.167 71.5,323.833 71.5,325.5C 70.596,326.209 70.2627,327.209 70.5,328.5C 68.2419,337.244 62.5752,341.078 53.5,340C 55.8333,339.667 58.1667,339.333 60.5,339C 51.0989,340.098 46.0989,335.931 45.5,326.5C 45.4208,323.342 46.4208,320.675 48.5,318.5C 51.7418,311.527 57.0751,309.193 64.5,311.5 Z"/></g>
<g><path style="opacity:1" fill="#af9823" d="M 64.5,311.5 C 67.2516,311.238 70.2516,311.238 73.5,311.5C 75.9052,312.768 78.5718,313.435 81.5,313.5C 81.6107,314.117 81.944,314.617 82.5,315C 79.0507,317.482 75.884,320.315 73,323.5C 72.7679,322.263 72.2679,321.263 71.5,320.5C 70.2748,316.612 67.9415,313.612 64.5,311.5 Z"/></g>
<g><path style="opacity:1" fill="#636363" d="M 137.5,310.5 C 138.833,310.5 140.167,310.5 141.5,310.5C 142.167,311.5 142.833,312.5 143.5,313.5C 144.826,315.195 144.493,316.528 142.5,317.5C 140.092,321.013 137.258,321.346 134,318.5C 132.778,314.754 133.944,312.087 137.5,310.5 Z"/></g>
<g><path style="opacity:1" fill="#3a4491" d="M 107.5,311.5 C 108.568,312.434 109.901,312.768 111.5,312.5C 111.67,313.822 111.337,314.989 110.5,316C 107.773,316.818 105.106,316.652 102.5,315.5C 102.863,314.817 103.196,314.15 103.5,313.5C 103.5,312.833 103.833,312.5 104.5,312.5C 105.391,311.89 106.391,311.557 107.5,311.5 Z"/></g>
<g><path style="opacity:1" fill="#fefffe" d="M 100.5,313.5 C 95.2627,320.243 89.4294,326.577 83,332.5C 82.7216,331.584 82.2216,330.918 81.5,330.5C 81.5,329.833 81.5,329.167 81.5,328.5C 86.5933,324.912 91.26,320.745 95.5,316C 97.1932,315.153 98.8599,314.32 100.5,313.5 Z"/></g>
<g><path style="opacity:1" fill="#fefffe" d="M 117.5,314.5 C 118.289,314.783 118.956,315.283 119.5,316C 118.113,318.045 116.946,320.212 116,322.5C 115.955,319.78 116.455,317.114 117.5,314.5 Z"/></g>
<g><path style="opacity:1" fill="#cccccc" d="M 103.5,322.5 C 102.833,321.167 102.167,321.167 101.5,322.5C 99.8008,322.66 98.1341,322.494 96.5,322C 98.036,320.04 99.8693,318.54 102,317.5C 103.326,317.755 104.326,318.422 105,319.5C 106.493,317.44 108.326,317.107 110.5,318.5C 109.754,319.736 109.421,321.07 109.5,322.5C 107.5,322.5 105.5,322.5 103.5,322.5 Z"/></g>
<g><path style="opacity:1" fill="#000000" d="M 66.5,320.5 C 67.8299,323.44 67.6633,326.44 66,329.5C 66.1519,326.553 66.3185,323.553 66.5,320.5 Z"/></g>
<g><path style="opacity:1" fill="#a2a2a2" d="M 119.5,345.5 C 117.521,343.832 115.188,343.166 112.5,343.5C 112.25,340.786 112.083,338.119 112,335.5C 115.703,330.632 119.203,325.632 122.5,320.5C 123.499,323.161 124.499,325.828 125.5,328.5C 122.473,329.361 119.806,330.861 117.5,333C 116.903,334.062 116.57,335.228 116.5,336.5C 118.279,339.13 119.279,342.13 119.5,345.5 Z"/></g>
<g><path style="opacity:1" fill="#000000" d="M 48.5,321.5 C 48.3253,323.621 48.6586,325.621 49.5,327.5C 48.7321,328.263 48.2321,329.263 48,330.5C 47.1955,327.304 47.3622,324.304 48.5,321.5 Z"/></g>
<g><path style="opacity:1" fill="#1f6792" d="M 48.5,318.5 C 52.6772,324.129 58.0105,328.629 64.5,332C 61.7456,335.879 58.0789,337.212 53.5,336C 54.8333,335.667 56.1667,335.333 57.5,335C 54.5685,332.715 51.9018,330.215 49.5,327.5C 48.6586,325.621 48.3253,323.621 48.5,321.5C 48.5,320.5 48.5,319.5 48.5,318.5 Z"/></g>
<g><path style="opacity:1" fill="#343b7c" d="M 103.5,322.5 C 105.369,323.165 107.369,323.831 109.5,324.5C 108.788,327.212 107.121,328.879 104.5,329.5C 103.883,329.611 103.383,329.944 103,330.5C 100.477,328.173 97.6433,326.507 94.5,325.5C 94.3505,324.448 94.5172,323.448 95,322.5C 97.2735,323.811 99.4402,323.811 101.5,322.5C 102.167,321.167 102.833,321.167 103.5,322.5 Z"/></g>
<g><path style="opacity:1" fill="#fec90d" d="M 94.5,325.5 C 97.6433,326.507 100.477,328.173 103,330.5C 103.383,329.944 103.883,329.611 104.5,329.5C 104.5,330.5 104.5,331.5 104.5,332.5C 101.252,330.045 97.5854,328.378 93.5,327.5C 91.9689,326.075 92.3023,325.409 94.5,325.5 Z"/></g>
<g><path style="opacity:1" fill="#4d4d4d" d="M 93.5,327.5 C 97.5854,328.378 101.252,330.045 104.5,332.5C 105.496,332.414 106.329,332.748 107,333.5C 107.561,335.725 108.561,337.725 110,339.5C 113.358,350.901 116.692,362.234 120,373.5C 115.826,361.485 110.826,349.819 105,338.5C 103.594,334.353 101.428,333.686 98.5,336.5C 94.4804,339.358 91.3138,343.025 89,347.5C 85.1112,361.13 81.9445,374.797 79.5,388.5C 78.537,393.877 77.037,399.211 75,404.5C 69.5593,411.089 64.3926,417.755 59.5,424.5C 55.9506,423.119 52.7839,421.119 50,418.5C 49.3162,419.784 49.4829,420.951 50.5,422C 49.0024,422.585 48.0024,422.085 47.5,420.5C 49.995,411.799 54.8283,404.465 62,398.5C 62.3892,386.608 63.5558,374.941 65.5,363.5C 66.29,362.391 66.79,361.058 67,359.5C 70.844,361.238 74.1773,360.571 77,357.5C 80.0656,349.637 82.7322,341.637 85,333.5C 87.2072,330.436 90.0406,328.436 93.5,327.5 Z"/></g>
<g><path style="opacity:1" fill="#a58f23" d="M 81.5,328.5 C 81.5,329.167 81.5,329.833 81.5,330.5C 80.2912,337.335 78.4578,344.002 76,350.5C 73.595,351.274 71.095,351.774 68.5,352C 70.8333,352.333 73.1667,352.667 75.5,353C 74.7433,354.512 73.7433,355.846 72.5,357C 67.6766,356.507 63.0099,355.174 58.5,353C 54.4648,349.3 50.7981,345.3 47.5,341C 51.9117,342.459 56.5784,342.792 61.5,342C 65.2762,340.053 68.6096,337.553 71.5,334.5C 71.6845,337.173 72.8511,337.84 75,336.5C 75.6667,335.833 75.6667,335.167 75,334.5C 74.0053,333.934 73.172,333.267 72.5,332.5C 79.577,326.929 86.2437,320.762 92.5,314C 94.8595,312.642 97.1928,311.642 99.5,311C 92.3132,315.688 86.3132,321.521 81.5,328.5 Z"/></g>
<g><path style="opacity:1" fill="#6c6038" d="M 72.5,330.5 C 72.5,331.167 72.5,331.833 72.5,332.5C 73.172,333.267 74.0053,333.934 75,334.5C 75.6667,335.167 75.6667,335.833 75,336.5C 72.8511,337.84 71.6845,337.173 71.5,334.5C 69.8249,332.544 70.1582,331.211 72.5,330.5 Z"/></g>
<g><path style="opacity:1" fill="#c2c3c2" d="M 126.5,335.5 C 127.093,338.732 126.093,341.732 123.5,344.5C 123.167,343.833 122.833,343.167 122.5,342.5C 124.6,340.636 125.933,338.303 126.5,335.5 Z"/></g>
<g><path style="opacity:1" fill="#6e0411" d="M 98.5,336.5 C 101.227,337.367 103.227,339.201 104.5,342C 101.703,345.799 98.5364,349.299 95,352.5C 88.6174,365.979 83.6174,379.979 80,394.5C 79.5045,392.527 79.3379,390.527 79.5,388.5C 81.9445,374.797 85.1112,361.13 89,347.5C 91.3138,343.025 94.4804,339.358 98.5,336.5 Z"/></g>
<g><path style="opacity:1" fill="#fefffe" d="M 119.5,345.5 C 120.309,343.708 120.809,341.708 121,339.5C 121.667,345.5 122.333,351.5 123,357.5C 125.112,361.278 127.612,364.778 130.5,368C 129.975,368.692 129.308,369.192 128.5,369.5C 122.761,362.556 119.761,354.556 119.5,345.5 Z"/></g>
<g><path style="opacity:1" fill="#870014" d="M 99.5,353.5 C 98.7611,353.631 98.0944,353.464 97.5,353C 100.016,350.317 102.683,347.817 105.5,345.5C 106.287,346.242 106.953,347.075 107.5,348C 104.941,350.103 102.274,351.936 99.5,353.5 Z"/></g>
<g><path style="opacity:1" fill="#fefffe" d="M 126.5,346.5 C 127.966,347.347 128.8,348.68 129,350.5C 130.652,355.099 131.652,359.765 132,364.5C 129.752,361.672 127.752,358.672 126,355.5C 125.264,352.408 125.431,349.408 126.5,346.5 Z"/></g>
<g><path style="opacity:1" fill="#830014" d="M 98.5,381.5 C 100.311,382.822 102.311,383.322 104.5,383C 102.758,381.058 100.758,379.391 98.5,378C 99.8333,377.667 101.167,377.333 102.5,377C 101.072,374.815 99.4049,372.815 97.5,371C 100.801,371.824 103.801,373.49 106.5,376C 108.165,376.788 109.831,377.122 111.5,377C 106.687,372.43 101.687,368.097 96.5,364C 99.8969,364.994 103.23,364.66 106.5,363C 103.568,361.855 100.568,361.022 97.5,360.5C 97.3505,359.448 97.5172,358.448 98,357.5C 99.5185,356.837 100.685,355.837 101.5,354.5C 103.754,353.585 105.754,352.252 107.5,350.5C 108.086,350.709 108.586,351.043 109,351.5C 113.862,363.087 118.529,374.754 123,386.5C 123.667,388.5 123.667,390.5 123,392.5C 119.245,402.93 116.412,413.597 114.5,424.5C 106.5,424.833 106.5,425.167 114.5,425.5C 114.049,430.361 113.049,435.027 111.5,439.5C 108.881,439.768 106.381,439.435 104,438.5C 103.833,438.833 103.667,439.167 103.5,439.5C 106.447,440.321 109.447,440.821 112.5,441C 113.022,441.561 113.355,442.228 113.5,443C 106.495,448.551 99.1616,448.885 91.5,444C 92.6226,442.956 93.9559,442.29 95.5,442C 93.3143,441.396 93.1476,440.23 95,438.5C 95.001,425.134 97.001,411.801 101,398.5C 102.347,392.402 101.18,386.902 97.5,382C 97.7284,381.601 98.0618,381.435 98.5,381.5 Z"/></g>
<g><path style="opacity:1" fill="#590b0f" d="M 99.5,353.5 C 100.492,353.328 101.158,353.662 101.5,354.5C 100.685,355.837 99.5185,356.837 98,357.5C 97.5172,358.448 97.3505,359.448 97.5,360.5C 100.568,361.022 103.568,361.855 106.5,363C 103.23,364.66 99.8969,364.994 96.5,364C 101.687,368.097 106.687,372.43 111.5,377C 109.831,377.122 108.165,376.788 106.5,376C 103.801,373.49 100.801,371.824 97.5,371C 99.4049,372.815 101.072,374.815 102.5,377C 101.167,377.333 99.8333,377.667 98.5,378C 100.758,379.391 102.758,381.058 104.5,383C 102.311,383.322 100.311,382.822 98.5,381.5C 96.4931,380.481 95.1598,378.815 94.5,376.5C 95.0253,375.808 95.6919,375.308 96.5,375C 93.4415,373.401 91.4415,370.901 90.5,367.5C 92.0449,361.706 95.0449,357.039 99.5,353.5 Z"/></g>
<g><path style="opacity:1" fill="#383838" d="M 61.5,362.5 C 61.2186,372.544 60.3853,382.544 59,392.5C 56.637,396.345 54.137,400.011 51.5,403.5C 50.4265,402.749 50.2599,401.749 51,400.5C 52.6078,397.228 54.6078,394.228 57,391.5C 57.9115,381.338 58.7448,371.171 59.5,361C 59.8333,359.833 60.1667,358.667 60.5,357.5C 61.4519,359.045 61.7852,360.712 61.5,362.5 Z"/></g>
<g><path style="opacity:1" fill="#ec1c23" d="M 65.5,363.5 C 63.5558,374.941 62.3892,386.608 62,398.5C 54.8283,404.465 49.995,411.799 47.5,420.5C 46.3694,414.3 47.7027,408.633 51.5,403.5C 54.137,400.011 56.637,396.345 59,392.5C 60.3853,382.544 61.2186,372.544 61.5,362.5C 63.5515,357.171 64.8848,357.505 65.5,363.5 Z"/></g>
<g><path style="opacity:1" fill="#c2c3c2" d="M 92.5,379.5 C 93.8478,380.527 94.3478,381.86 94,383.5C 90.3333,387.167 86.6667,390.833 83,394.5C 82.3653,392.365 82.6986,390.365 84,388.5C 87.0379,385.631 89.8712,382.631 92.5,379.5 Z"/></g>
<g><path style="opacity:1" fill="#7f0314" d="M 59.5,424.5 C 59.335,429.162 58.1684,433.829 56,438.5C 54.8061,439.43 53.4728,440.097 52,440.5C 48.5172,438.758 45.1839,436.758 42,434.5C 41.7776,430.818 42.111,427.152 43,423.5C 43.9184,421.624 45.4184,420.624 47.5,420.5C 48.0024,422.085 49.0024,422.585 50.5,422C 49.4829,420.951 49.3162,419.784 50,418.5C 52.7839,421.119 55.9506,423.119 59.5,424.5 Z"/></g>
<g><path style="opacity:1" fill="#760011" d="M 100.5,448.5 C 101.693,448.97 102.36,449.97 102.5,451.5C 102.167,452.5 101.833,453.5 101.5,454.5C 100.534,452.604 100.201,450.604 100.5,448.5 Z"/></g>
</svg>
