<?xml version="1.0" encoding="UTF-8"?>
<!DOCTYPE svg PUBLIC "-//W3C//DTD SVG 1.1//EN" "http://www.w3.org/Graphics/SVG/1.1/DTD/svg11.dtd">
<svg xmlns="http://www.w3.org/2000/svg" version="1.1" width="562px" height="516px" style="shape-rendering:geometricPrecision; text-rendering:geometricPrecision; image-rendering:optimizeQuality; fill-rule:evenodd; clip-rule:evenodd" xmlns:xlink="http://www.w3.org/1999/xlink">
<g><path style="opacity:1" fill="#fefefe" d="M 128.5,28.5 C 137.559,28.1541 146.559,28.6541 155.5,30C 157.286,30.7845 158.786,31.9512 160,33.5C 160.667,50.8333 160.667,68.1667 160,85.5C 159.689,87.556 159.189,89.556 158.5,91.5C 159.289,97.1152 159.789,102.782 160,108.5C 161,109.5 162,110.5 163,111.5C 163.667,116.5 163.667,121.5 163,126.5C 160.016,129.1 156.516,130.1 152.5,129.5C 152.797,133.767 152.464,137.934 151.5,142C 154.229,146.015 155.229,150.515 154.5,155.5C 160.92,156.034 167.253,157.201 173.5,159C 176.369,162.204 179.535,165.037 183,167.5C 183.514,174.872 183.514,182.206 183,189.5C 185.959,192.098 187.293,195.432 187,199.5C 189.333,203.5 191.667,207.5 194,211.5C 194.101,227.899 194.935,244.233 196.5,260.5C 239.467,262.771 282.467,264.771 325.5,266.5C 336.524,266.213 347.524,265.546 358.5,264.5C 358.977,263.522 359.643,262.689 360.5,262C 395.196,261.985 429.862,262.818 464.5,264.5C 467.243,276.926 462.243,283.426 449.5,284C 428.845,285.016 408.179,285.682 387.5,286C 383.746,288.859 380.079,291.692 376.5,294.5C 370.193,295.664 363.859,295.831 357.5,295C 356.167,294 354.833,293 353.5,292C 326.828,290.87 300.162,290.203 273.5,290C 271.129,292.674 269.963,295.841 270,299.5C 255.21,321.627 236.044,338.793 212.5,351C 205.138,354.005 197.471,355.505 189.5,355.5C 189.056,362.99 188.723,370.49 188.5,378C 188.698,386.322 189.698,394.322 191.5,402C 191.479,409.644 190.479,417.144 188.5,424.5C 192.363,433.022 198.029,440.022 205.5,445.5C 206.928,452.917 206.761,460.251 205,467.5C 203.5,469 202,470.5 200.5,472C 186.87,474.364 174.203,472.03 162.5,465C 157.667,461.5 152.833,458 148,454.5C 146.395,446.341 146.229,438.174 147.5,430C 145.977,428.146 144.144,426.646 142,425.5C 140.705,416.195 140.372,406.862 141,397.5C 141.692,396.975 142.192,396.308 142.5,395.5C 141.533,389.359 140.033,383.359 138,377.5C 137.667,369.167 137.333,360.833 137,352.5C 135.667,349.833 134.333,347.167 133,344.5C 130.224,360.443 126.724,376.276 122.5,392C 123.91,402.851 123.743,413.684 122,424.5C 119.866,426.484 117.366,427.818 114.5,428.5C 114.167,429.167 113.833,429.833 113.5,430.5C 114.091,432.266 114.924,433.933 116,435.5C 116.667,444.167 116.667,452.833 116,461.5C 114.786,463.049 113.286,464.215 111.5,465C 104.5,465.667 97.5,465.667 90.5,465C 86.9421,463.108 84.4421,460.275 83,456.5C 80.375,441.581 78.375,426.581 77,411.5C 75.7349,403.215 76.5683,395.215 79.5,387.5C 78.877,381.695 78.5436,375.862 78.5,370C 79.7563,350.024 81.0896,330.024 82.5,310C 81.4873,307.976 80.154,306.143 78.5,304.5C 74.2207,305.274 69.8874,305.774 65.5,306C 51.7344,313.286 37.2344,315.452 22,312.5C 20.4605,297.87 20.1272,283.203 21,268.5C 31.7198,266.87 42.5531,266.203 53.5,266.5C 53.6602,264.801 53.4935,263.134 53,261.5C 41.5452,249.802 36.8785,235.802 39,219.5C 43.0986,207.876 47.5986,196.376 52.5,185C 47.9999,172.031 51.9999,162.864 64.5,157.5C 65.1919,151.47 66.0253,145.47 67,139.5C 67.9025,138.299 69.0692,137.465 70.5,137C 74.1454,136.281 77.8121,135.781 81.5,135.5C 79.6661,126.337 83.3327,122.337 92.5,123.5C 92.1925,106.776 93.0259,90.1094 95,73.5C 98.1471,71.169 101.647,69.5023 105.5,68.5C 110.124,62.4583 116.291,59.4583 124,59.5C 123.421,50.5532 123.421,41.5532 124,32.5C 125.397,30.9297 126.897,29.5964 128.5,28.5 Z M 195.5,287.5 C 211.84,287.554 228.174,287.887 244.5,288.5C 244.245,291.016 243.411,293.35 242,295.5C 229.374,307.799 215.874,318.965 201.5,329C 197.207,330.931 192.874,332.764 188.5,334.5C 186.854,333.221 185.687,331.555 185,329.5C 182.238,319.616 179.405,309.782 176.5,300C 181.5,299.667 186.5,299.333 191.5,299C 194.966,295.96 196.3,292.126 195.5,287.5 Z"/></g>
<g><path style="opacity:1" fill="#010000" d="M 132.5,32.5 C 138.898,32.2427 145.231,32.7427 151.5,34C 153.286,34.7845 154.786,35.9512 156,37.5C 156.225,50.2037 156.392,62.8704 156.5,75.5C 156.143,81.2833 155.143,86.9499 153.5,92.5C 154.934,95.6076 155.6,98.9409 155.5,102.5C 155.36,105.043 154.694,107.377 153.5,109.5C 155.149,111.65 156.982,113.65 159,115.5C 160.458,119.781 159.292,122.947 155.5,125C 152.854,125.497 150.187,125.664 147.5,125.5C 148.331,129.476 148.497,133.476 148,137.5C 145.73,139.315 145.064,141.648 146,144.5C 150.096,148.609 151.596,153.609 150.5,159.5C 156.92,160.034 163.253,161.201 169.5,163C 172.369,166.204 175.535,169.037 179,171.5C 179.852,176.477 179.352,181.31 177.5,186C 177.597,190.185 179.097,193.685 182,196.5C 182.333,198.833 182.667,201.167 183,203.5C 185.333,207.5 187.667,211.5 190,215.5C 190.775,226.023 190.608,236.523 189.5,247C 191.973,252.515 192.973,258.348 192.5,264.5C 236.796,266.892 281.129,268.892 325.5,270.5C 337.862,270.34 350.196,269.673 362.5,268.5C 362.977,267.522 363.643,266.689 364.5,266C 396.525,266.157 428.525,266.99 460.5,268.5C 460.165,274.673 456.831,278.173 450.5,279C 428.227,280.935 405.893,281.935 383.5,282C 379.746,284.859 376.079,287.692 372.5,290.5C 366.94,292.38 361.94,291.547 357.5,288C 328.17,286.754 298.837,286.087 269.5,286C 267.129,288.674 265.963,291.841 266,295.5C 251.21,317.627 232.044,334.793 208.5,347C 201.138,350.005 193.471,351.505 185.5,351.5C 184.338,366.166 184.338,380.832 185.5,395.5C 186.086,395.709 186.586,396.043 187,396.5C 187.951,406.026 186.451,415.026 182.5,423.5C 185.924,434.371 192.258,443.037 201.5,449.5C 204.051,456.92 202.384,463.087 196.5,468C 187.75,469.153 179.416,467.819 171.5,464C 164.739,459.87 158.239,455.37 152,450.5C 151.453,446.84 150.953,443.173 150.5,439.5C 151.06,434.256 152.394,429.256 154.5,424.5C 151.138,424.93 148.305,423.93 146,421.5C 145.5,416.5 145,411.5 144.5,406.5C 147.207,395.349 146.374,384.349 142,373.5C 141.667,365.167 141.333,356.833 141,348.5C 138.119,341.74 134.452,335.407 130,329.5C 128.47,339.133 127.136,348.8 126,358.5C 122.537,370.352 119.704,382.352 117.5,394.5C 119.942,403.017 120.109,411.683 118,420.5C 115.866,422.484 113.366,423.818 110.5,424.5C 108.857,429.803 109.357,434.803 112,439.5C 117.589,456.552 111.756,463.718 94.5,461C 92.3911,459.859 90.5578,458.359 89,456.5C 87.1728,450.513 85.5061,444.513 84,438.5C 83.2165,435.24 83.3832,432.073 84.5,429C 82.0991,420.463 80.7658,411.63 80.5,402.5C 81.7982,397.566 82.7982,392.566 83.5,387.5C 82.5077,377.845 82.3411,368.179 83,358.5C 84.0782,340.28 85.5782,322.113 87.5,304C 84.5529,303.888 83.2196,302.388 83.5,299.5C 76.246,300.772 68.9127,301.605 61.5,302C 55.3206,304.727 48.9872,307.06 42.5,309C 36.9162,309.806 31.4162,309.639 26,308.5C 24.4956,296.539 24.1623,284.539 25,272.5C 35.7198,270.87 46.5531,270.203 57.5,270.5C 57.6657,266.154 57.499,261.821 57,257.5C 50.2316,250.385 45.5649,242.052 43,232.5C 42.3333,229.5 42.3333,226.5 43,223.5C 47.2328,209.97 52.7328,196.97 59.5,184.5C 55.9111,181.229 54.7444,177.229 56,172.5C 59.0777,167.589 63.2443,163.922 68.5,161.5C 69.1919,155.47 70.0253,149.47 71,143.5C 71.9025,142.299 73.0692,141.465 74.5,141C 78.1454,140.281 81.8121,139.781 85.5,139.5C 84.0053,129.331 88.3387,125.331 98.5,127.5C 97.1036,121.63 96.4369,115.63 96.5,109.5C 97.1347,98.8192 97.968,88.1526 99,77.5C 102.147,75.169 105.647,73.5023 109.5,72.5C 111.356,69.8103 113.689,67.6437 116.5,66C 121.136,64.9334 125.802,64.1001 130.5,63.5C 127.804,54.7128 126.97,45.7128 128,36.5C 129.397,34.9297 130.897,33.5964 132.5,32.5 Z M 195.5,287.5 C 196.3,292.126 194.966,295.96 191.5,299C 186.5,299.333 181.5,299.667 176.5,300C 179.405,309.782 182.238,319.616 185,329.5C 185.687,331.555 186.854,333.221 188.5,334.5C 192.874,332.764 197.207,330.931 201.5,329C 215.874,318.965 229.374,307.799 242,295.5C 243.411,293.35 244.245,291.016 244.5,288.5C 228.174,287.887 211.84,287.554 195.5,287.5 Z"/></g>
<g><path style="opacity:1" fill="#f5f5f5" d="M 134.5,36.5 C 139.887,36.4054 145.22,36.9054 150.5,38C 151.87,39.4413 152.87,41.108 153.5,43C 152.69,48.7512 152.19,54.5845 152,60.5C 151.923,63.6652 150.59,65.9985 148,67.5C 144.208,66.5625 140.375,65.8958 136.5,65.5C 135.369,61.4409 134.036,57.4409 132.5,53.5C 131.601,48.8501 131.434,44.1834 132,39.5C 133.045,38.6266 133.878,37.6266 134.5,36.5 Z"/></g>
<g><path style="opacity:1" fill="#1d1d1d" d="M 115.5,88.5 C 114.188,89.1451 113.188,90.1451 112.5,91.5C 113.612,93.4192 114.946,95.0858 116.5,96.5C 117.82,98.8171 119.486,100.817 121.5,102.5C 122.139,99.7068 121.139,97.3735 118.5,95.5C 118.443,94.391 118.11,93.391 117.5,92.5C 118.377,77.1255 126.377,70.9589 141.5,74C 144.417,75.5275 147.417,76.8608 150.5,78C 149.69,83.7512 149.19,89.5845 149,95.5C 147.481,97.1392 147.314,98.8058 148.5,100.5C 148.5,101.167 148.5,101.833 148.5,102.5C 146.462,103.856 146.128,105.523 147.5,107.5C 146.883,107.389 146.383,107.056 146,106.5C 143.828,107.509 142.662,109.176 142.5,111.5C 144.3,112.605 145.467,111.939 146,109.5C 146.383,110.056 146.883,110.389 147.5,110.5C 150.257,113.122 152.924,115.955 155.5,119C 154.672,119.915 153.672,120.581 152.5,121C 135.419,120.917 118.419,119.584 101.5,117C 100.226,116.023 100.226,115.189 101.5,114.5C 102.75,114.423 103.583,113.756 104,112.5C 104.84,115.464 105.84,115.797 107,113.5C 107.423,114.956 108.256,115.456 109.5,115C 108.418,113.67 107.751,112.17 107.5,110.5C 108.931,110.119 109.764,109.119 110,107.5C 110.535,109.271 111.369,109.604 112.5,108.5C 112.058,107.261 111.391,106.261 110.5,105.5C 110.923,104.735 111.257,103.902 111.5,103C 110.067,98.2429 109.567,93.4096 110,88.5C 111.545,89.8213 112.711,89.4879 113.5,87.5C 111.576,84.3205 109.41,83.9872 107,86.5C 105.433,94.1675 103.933,101.834 102.5,109.5C 103.5,109.5 104.5,109.5 105.5,109.5C 104.074,110.341 102.74,111.341 101.5,112.5C 100.84,111.036 100.507,109.369 100.5,107.5C 101.333,99.1667 102.167,90.8333 103,82.5C 105.758,80.357 108.924,79.1903 112.5,79C 118.159,70.2077 126.325,66.3744 137,67.5C 141.267,67.9689 145.433,68.8022 149.5,70C 150.591,72.0639 150.758,74.2305 150,76.5C 140.304,69.9015 130.637,69.9015 121,76.5C 118.563,80.307 116.729,84.307 115.5,88.5 Z"/></g>
<g><path style="opacity:1" fill="#fec80e" d="M 135.5,82.5 C 137.851,84.0696 140.518,84.9029 143.5,85C 142.5,86 141.5,87 140.5,88C 143.705,89.4153 145.372,91.9153 145.5,95.5C 144.836,100.177 142.669,103.843 139,106.5C 133.437,104.415 129.937,100.415 128.5,94.5C 129.098,93.2054 129.598,91.8721 130,90.5C 131.609,89.8534 133.109,89.02 134.5,88C 133.167,87 131.833,86 130.5,85C 132.653,84.9005 134.319,84.0672 135.5,82.5 Z"/></g>
<g><path style="opacity:1" fill="#fefffe" d="M 110.5,105.5 C 108.711,100.593 107.878,95.2599 108,89.5C 107.5,95.8246 107.334,102.158 107.5,108.5C 106.508,108.328 105.842,108.662 105.5,109.5C 104.5,109.5 103.5,109.5 102.5,109.5C 103.933,101.834 105.433,94.1675 107,86.5C 109.41,83.9872 111.576,84.3205 113.5,87.5C 112.711,89.4879 111.545,89.8213 110,88.5C 109.567,93.4096 110.067,98.2429 111.5,103C 111.257,103.902 110.923,104.735 110.5,105.5 Z"/></g>
<g><path style="opacity:1" fill="#000000" d="M 110.5,105.5 C 109.5,106.5 108.5,107.5 107.5,108.5C 107.334,102.158 107.5,95.8246 108,89.5C 107.878,95.2599 108.711,100.593 110.5,105.5 Z"/></g>
<g><path style="opacity:1" fill="#f7f7f7" d="M 115.5,88.5 C 116.171,89.8471 116.171,91.0138 115.5,92C 116.094,92.4643 116.761,92.631 117.5,92.5C 118.11,93.391 118.443,94.391 118.5,95.5C 117.508,95.3284 116.842,95.6618 116.5,96.5C 114.946,95.0858 113.612,93.4192 112.5,91.5C 113.188,90.1451 114.188,89.1451 115.5,88.5 Z"/></g>
<g><path style="opacity:1" fill="#d5d5d5" d="M 118.5,95.5 C 121.139,97.3735 122.139,99.7068 121.5,102.5C 119.486,100.817 117.82,98.8171 116.5,96.5C 116.842,95.6618 117.508,95.3284 118.5,95.5 Z"/></g>
<g><path style="opacity:1" fill="#dedede" d="M 149.5,104.5 C 148.662,104.158 148.328,103.492 148.5,102.5C 148.5,101.833 148.5,101.167 148.5,100.5C 149.239,100.631 149.906,100.464 150.5,100C 149.304,99.3457 149.304,98.8457 150.5,98.5C 151.5,98.8333 152.167,99.5 152.5,100.5C 152.12,102.021 151.954,103.687 152,105.5C 151.667,105.833 151.333,106.167 151,106.5C 150.722,105.584 150.222,104.918 149.5,104.5 Z"/></g>
<g><path style="opacity:1" fill="#fefffe" d="M 124.5,104.5 C 122.821,104.715 121.821,104.048 121.5,102.5C 123.368,101.326 124.368,101.993 124.5,104.5 Z"/></g>
<g><path style="opacity:1" fill="#fefffe" d="M 148.5,102.5 C 148.328,103.492 148.662,104.158 149.5,104.5C 149.715,106.179 149.048,107.179 147.5,107.5C 146.128,105.523 146.462,103.856 148.5,102.5 Z"/></g>
<g><path style="opacity:1" fill="#fefffe" d="M 110.5,105.5 C 111.391,106.261 112.058,107.261 112.5,108.5C 111.369,109.604 110.535,109.271 110,107.5C 109.764,109.119 108.931,110.119 107.5,110.5C 107.5,109.833 107.5,109.167 107.5,108.5C 108.5,107.5 109.5,106.5 110.5,105.5 Z"/></g>
<g><path style="opacity:1" fill="#f5f5f5" d="M 124.5,104.5 C 127.335,105.069 129.001,106.736 129.5,109.5C 127.567,109.271 125.9,108.438 124.5,107C 123.402,106.23 123.402,105.397 124.5,104.5 Z"/></g>
<g><path style="opacity:1" fill="#fefffe" d="M 132.5,110.5 C 130.804,112.129 129.804,111.796 129.5,109.5C 130.969,106.9 131.969,107.233 132.5,110.5 Z"/></g>
<g><path style="opacity:1" fill="#000000" d="M 105.5,109.5 C 105.842,108.662 106.508,108.328 107.5,108.5C 107.5,109.167 107.5,109.833 107.5,110.5C 106.833,110.167 106.167,109.833 105.5,109.5 Z"/></g>
<g><path style="opacity:1" fill="#f4f4f4" d="M 147.5,107.5 C 147.5,108.5 147.5,109.5 147.5,110.5C 146.883,110.389 146.383,110.056 146,109.5C 145.467,111.939 144.3,112.605 142.5,111.5C 142.662,109.176 143.828,107.509 146,106.5C 146.383,107.056 146.883,107.389 147.5,107.5 Z"/></g>
<g><path style="opacity:1" fill="#fefffe" d="M 105.5,109.5 C 106.167,109.833 106.833,110.167 107.5,110.5C 107.751,112.17 108.418,113.67 109.5,115C 108.256,115.456 107.423,114.956 107,113.5C 105.84,115.797 104.84,115.464 104,112.5C 103.583,113.756 102.75,114.423 101.5,114.5C 101.5,113.833 101.5,113.167 101.5,112.5C 102.74,111.341 104.074,110.341 105.5,109.5 Z"/></g>
<g><path style="opacity:1" fill="#fefffe" d="M 132.5,110.5 C 133.708,109.766 135.041,109.433 136.5,109.5C 136.5,110.5 136.5,111.5 136.5,112.5C 134.517,112.843 133.183,112.176 132.5,110.5 Z"/></g>
<g><path style="opacity:1" fill="#fefffe" d="M 142.5,111.5 C 142.631,112.376 142.298,113.043 141.5,113.5C 140.386,112.277 140.219,110.944 141,109.5C 141.278,110.416 141.778,111.082 142.5,111.5 Z"/></g>
<g><path style="opacity:1" fill="#fefffe" d="M 137.5,110.5 C 139.465,110.948 139.798,111.948 138.5,113.5C 137.614,112.675 137.281,111.675 137.5,110.5 Z"/></g>
<g><path style="opacity:1" fill="#4f3222" d="M 119.5,122.5 C 119.652,126.262 120.319,129.928 121.5,133.5C 119.423,136.119 117.257,136.119 115,133.5C 113.315,129.593 111.815,125.593 110.5,121.5C 107.427,124.666 106.76,128.333 108.5,132.5C 108.664,135.187 108.497,137.854 108,140.5C 102.291,134.61 101.124,127.944 104.5,120.5C 108.122,119.341 111.789,119.175 115.5,120C 117.437,120.122 118.77,120.955 119.5,122.5 Z"/></g>
<g><path style="opacity:1" fill="#f5a482" d="M 124.5,121.5 C 128.811,126.381 134.145,128.048 140.5,126.5C 142.829,128.837 144.329,131.504 145,134.5C 144.439,135.022 143.772,135.355 143,135.5C 139.814,134.607 136.648,134.107 133.5,134C 136.018,135.149 138.684,135.982 141.5,136.5C 142.452,138.045 142.785,139.712 142.5,141.5C 138.775,141.405 135.109,141.238 131.5,141C 135.026,142.337 138.692,142.837 142.5,142.5C 142.122,144.921 141.455,147.254 140.5,149.5C 139.662,149.842 139.328,150.508 139.5,151.5C 136.482,151.665 133.482,151.498 130.5,151C 127.672,148.752 124.672,146.752 121.5,145C 119.288,144.211 117.288,144.378 115.5,145.5C 115.5,145.833 115.5,146.167 115.5,146.5C 109.662,144.133 107.996,139.966 110.5,134C 109.956,133.283 109.289,132.783 108.5,132.5C 106.76,128.333 107.427,124.666 110.5,121.5C 111.815,125.593 113.315,129.593 115,133.5C 117.257,136.119 119.423,136.119 121.5,133.5C 120.319,129.928 119.652,126.262 119.5,122.5C 120.151,121.909 120.818,121.243 121.5,120.5C 122.417,121.127 123.417,121.461 124.5,121.5 Z"/></g>
<g><path style="opacity:1" fill="#a13304" d="M 124.5,121.5 C 126.833,121.5 129.167,121.5 131.5,121.5C 130.871,124.217 132.204,125.55 135.5,125.5C 135.833,125.5 136.167,125.5 136.5,125.5C 138.027,125.573 139.027,124.906 139.5,123.5C 140.404,124.209 140.737,125.209 140.5,126.5C 134.145,128.048 128.811,126.381 124.5,121.5 Z"/></g>
<g><path style="opacity:1" fill="#fefffe" d="M 131.5,121.5 C 133.5,122.167 134.833,123.5 135.5,125.5C 132.204,125.55 130.871,124.217 131.5,121.5 Z"/></g>
<g><path style="opacity:1" fill="#fefffe" d="M 139.5,123.5 C 139.027,124.906 138.027,125.573 136.5,125.5C 136.973,124.094 137.973,123.427 139.5,123.5 Z"/></g>
<g><path style="opacity:1" fill="#000000" d="M 108.5,125.5 C 109.801,127.018 110.634,128.684 111,130.5C 109.108,129.383 108.275,127.716 108.5,125.5 Z"/></g>
<g><path style="opacity:1" fill="#cd5b2a" d="M 141.5,123.5 C 143.926,124.353 144.76,126.019 144,128.5C 142.117,127.347 141.284,125.681 141.5,123.5 Z"/></g>
<g><path style="opacity:1" fill="#eff0ef" d="M 91.5,131.5 C 94.5719,131.183 97.5719,131.516 100.5,132.5C 101.449,135.795 101.449,139.128 100.5,142.5C 97.9321,141.55 95.4321,141.55 93,142.5C 89.0151,139.263 88.5151,135.597 91.5,131.5 Z"/></g>
<g><path style="opacity:1" fill="#fefffe" d="M 103.5,137.5 C 106.268,140.771 109.268,143.938 112.5,147C 116.538,147.899 120.205,149.566 123.5,152C 116.008,151.594 109.342,148.927 103.5,144C 102.395,141.88 102.395,139.713 103.5,137.5 Z"/></g>
<g><path style="opacity:1" fill="#eff0ef" d="M 93.5,144.5 C 96.3084,142.833 98.475,143.5 100,146.5C 100.499,151.155 100.666,155.821 100.5,160.5C 98.8333,160.5 97.1667,160.5 95.5,160.5C 95.6657,156.154 95.499,151.821 95,147.5C 94.7679,146.263 94.2679,145.263 93.5,144.5 Z"/></g>
<g><path style="opacity:1" fill="#434343" d="M 80.5,161.5 C 81.5,162.167 82.5,162.833 83.5,163.5C 81.1667,163.5 78.8333,163.5 76.5,163.5C 74.0292,158.39 73.8626,153.057 76,147.5C 77.3236,146.12 78.6569,145.786 80,146.5C 83.6598,144.787 87.4932,144.287 91.5,145C 94.6478,151.315 94.1478,157.149 90,162.5C 88.2111,160.771 86.0444,160.104 83.5,160.5C 83.6495,159.448 83.4828,158.448 83,157.5C 82.5204,159.133 81.6871,160.466 80.5,161.5 Z"/></g>
<g><path style="opacity:1" fill="#323bc8" d="M 103.5,145.5 C 109.061,149.945 115.394,152.778 122.5,154C 124.519,157.242 125.352,160.742 125,164.5C 119.276,161.388 113.443,158.388 107.5,155.5C 105.579,152.404 104.246,149.07 103.5,145.5 Z"/></g>
<g><path style="opacity:1" fill="#f87c47" d="M 115.5,146.5 C 115.5,146.167 115.5,145.833 115.5,145.5C 120.879,146.025 125.546,148.192 129.5,152C 131.473,152.495 133.473,152.662 135.5,152.5C 135.99,154.948 135.157,156.615 133,157.5C 129.721,155.114 126.554,152.614 123.5,150C 120.924,148.544 118.258,147.377 115.5,146.5 Z"/></g>
<g><path style="opacity:1" fill="#3a3a3a" d="M 140.5,149.5 C 145.919,152.564 146.919,156.897 143.5,162.5C 142.914,162.709 142.414,163.043 142,163.5C 139.734,162.044 137.234,161.21 134.5,161C 135.991,158.379 136.658,155.545 136.5,152.5C 137.791,152.737 138.791,152.404 139.5,151.5C 139.328,150.508 139.662,149.842 140.5,149.5 Z"/></g>
<g><path style="opacity:1" fill="#000000" d="M 133.5,153.5 C 134.713,154.497 134.546,155.497 133,156.5C 132.53,155.423 132.697,154.423 133.5,153.5 Z"/></g>
<g><path style="opacity:1" fill="#6f452d" d="M 105.5,157.5 C 118.858,161.929 130.358,169.262 140,179.5C 142.051,184.214 144.885,188.381 148.5,192C 147.646,193.022 146.646,193.855 145.5,194.5C 143.358,189.715 140.358,185.549 136.5,182C 130.833,177.667 125.167,173.333 119.5,169C 113.601,165.546 107.267,163.546 100.5,163C 102.3,161.188 103.967,159.355 105.5,157.5 Z"/></g>
<g><path style="opacity:1" fill="#3138bb" d="M 80.5,161.5 C 84.8492,160.577 88.1825,161.91 90.5,165.5C 89.459,175.584 87.959,185.584 86,195.5C 84.9261,192.5 84.0928,189.5 83.5,186.5C 83.4606,185.417 83.1272,184.417 82.5,183.5C 80.1455,181.812 78.1455,179.812 76.5,177.5C 78.1667,176.833 79.8333,176.167 81.5,175.5C 82.8993,174.11 84.5659,173.11 86.5,172.5C 87.1239,172.083 87.4573,171.416 87.5,170.5C 87.2528,169.287 86.5862,168.62 85.5,168.5C 84.5,167.833 83.5,167.167 82.5,166.5C 84.5518,165.947 84.8852,164.947 83.5,163.5C 82.5,162.833 81.5,162.167 80.5,161.5 Z"/></g>
<g><path style="opacity:1" fill="#fefffe" d="M 92.5,162.5 C 94.5,162.5 96.5,162.5 98.5,162.5C 98.6231,169.529 98.2897,176.529 97.5,183.5C 95.1667,183.5 92.8333,183.5 90.5,183.5C 91.1008,176.493 91.7674,169.493 92.5,162.5 Z"/></g>
<g><path style="opacity:1" fill="#fefffe" d="M 76.5,163.5 C 78.8333,163.5 81.1667,163.5 83.5,163.5C 83.4431,164.609 83.1098,165.609 82.5,166.5C 80.5659,167.11 78.8993,168.11 77.5,169.5C 75.396,169.799 73.396,169.466 71.5,168.5C 73.0063,166.599 74.6729,164.932 76.5,163.5 Z"/></g>
<g><path style="opacity:1" fill="#000000" d="M 83.5,163.5 C 84.8852,164.947 84.5518,165.947 82.5,166.5C 83.1098,165.609 83.4431,164.609 83.5,163.5 Z"/></g>
<g><path style="opacity:1" fill="#910c11" d="M 133.5,163.5 C 134.873,163.343 136.207,163.51 137.5,164C 136.33,166.185 135.164,168.351 134,170.5C 133.167,169.667 132.333,168.833 131.5,168C 132.582,166.67 133.249,165.17 133.5,163.5 Z"/></g>
<g><path style="opacity:1" fill="#323bc8" d="M 78.5,164.5 C 80.8418,164.775 80.8418,165.608 78.5,167C 76.9556,168.187 75.2889,168.52 73.5,168C 75.2331,166.811 76.8998,165.644 78.5,164.5 Z"/></g>
<g><path style="opacity:1" fill="#f0f0f0" d="M 100.5,164.5 C 103.568,164.547 106.568,165.047 109.5,166C 116.508,169.835 123.174,174.169 129.5,179C 126.5,181.5 123.5,184 120.5,186.5C 114.644,180.33 108.144,174.997 101,170.5C 100.505,168.527 100.338,166.527 100.5,164.5 Z"/></g>
<g><path style="opacity:1" fill="#eff0ef" d="M 139.5,164.5 C 143.287,166.452 146.287,169.286 148.5,173C 147.04,176.089 145.207,178.922 143,181.5C 140.606,178.615 138.439,175.615 136.5,172.5C 137.114,169.655 138.114,166.988 139.5,164.5 Z"/></g>
<g><path style="opacity:1" fill="#eff0ef" d="M 144.5,165.5 C 147.024,164.2 149.691,164.2 152.5,165.5C 156.6,171.538 158.6,178.205 158.5,185.5C 157.167,185.5 155.833,185.5 154.5,185.5C 154.327,177.154 150.994,170.487 144.5,165.5 Z"/></g>
<g><path style="opacity:1" fill="#3036b2" d="M 169.5,172.5 C 169.167,172.5 168.833,172.5 168.5,172.5C 167.167,171.833 166.167,170.833 165.5,169.5C 162.695,168.681 159.695,168.181 156.5,168C 155.289,167.107 155.289,166.274 156.5,165.5C 159.808,166.395 163.141,167.229 166.5,168C 168.141,169.129 169.141,170.629 169.5,172.5 Z"/></g>
<g><path style="opacity:1" fill="#282672" d="M 82.5,166.5 C 83.5,167.167 84.5,167.833 85.5,168.5C 83.6203,168.229 82.287,168.896 81.5,170.5C 78.6655,171.069 76.9988,172.736 76.5,175.5C 78.1667,175.5 79.8333,175.5 81.5,175.5C 79.8333,176.167 78.1667,176.833 76.5,177.5C 73.2085,175.542 70.2085,173.209 67.5,170.5C 69.1927,167.038 70.1927,167.038 70.5,170.5C 73.0593,170.802 75.3926,170.468 77.5,169.5C 78.8993,168.11 80.5659,167.11 82.5,166.5 Z"/></g>
<g><path style="opacity:1" fill="#fefffe" d="M 85.5,168.5 C 86.2341,169.708 86.5674,171.041 86.5,172.5C 84.5659,173.11 82.8993,174.11 81.5,175.5C 79.8333,175.5 78.1667,175.5 76.5,175.5C 76.9988,172.736 78.6655,171.069 81.5,170.5C 82.287,168.896 83.6203,168.229 85.5,168.5 Z"/></g>
<g><path style="opacity:1" fill="#000000" d="M 85.5,168.5 C 86.5862,168.62 87.2528,169.287 87.5,170.5C 87.4573,171.416 87.1239,172.083 86.5,172.5C 86.5674,171.041 86.2341,169.708 85.5,168.5 Z"/></g>
<g><path style="opacity:1" fill="#323bc8" d="M 81.5,170.5 C 82.7666,169.913 83.7666,169.913 84.5,170.5C 82.7711,172.451 80.7711,173.618 78.5,174C 79.7101,172.961 80.7101,171.794 81.5,170.5 Z"/></g>
<g><path style="opacity:1" fill="#fefffe" d="M 165.5,169.5 C 166.167,170.833 167.167,171.833 168.5,172.5C 167.5,173.833 166.5,175.167 165.5,176.5C 163.589,175.925 161.922,174.925 160.5,173.5C 159.34,172.735 158.34,171.735 157.5,170.5C 160.086,169.52 162.753,169.187 165.5,169.5 Z"/></g>
<g><path style="opacity:1" fill="#d0d0d0" d="M 67.5,170.5 C 70.2085,173.209 73.2085,175.542 76.5,177.5C 78.1455,179.812 80.1455,181.812 82.5,183.5C 83.1272,184.417 83.4606,185.417 83.5,186.5C 83.1583,187.338 82.4916,187.672 81.5,187.5C 80.0119,184.814 79.3453,185.147 79.5,188.5C 77.4017,189.914 76.4017,189.248 76.5,186.5C 75.7784,186.918 75.2784,187.584 75,188.5C 73.5002,186.531 71.6669,185.198 69.5,184.5C 69.6596,182.847 70.3263,181.514 71.5,180.5C 73.9327,180.214 73.9327,179.548 71.5,178.5C 70.4523,176.067 69.7856,176.067 69.5,178.5C 69.3404,180.153 68.6737,181.486 67.5,182.5C 64.6948,180.553 62.6948,178.387 61.5,176C 62.3281,174.008 63.6614,172.508 65.5,171.5C 65.8417,170.662 66.5084,170.328 67.5,170.5 Z"/></g>
<g><path style="opacity:1" fill="#323bc8" d="M 160.5,171.5 C 162.42,170.06 164.087,170.393 165.5,172.5C 165.167,172.833 164.833,173.167 164.5,173.5C 163.378,172.37 162.044,171.703 160.5,171.5 Z"/></g>
<g><path style="opacity:1" fill="#000000" d="M 65.5,171.5 C 66.2891,171.783 66.9558,172.283 67.5,173C 66.184,173.528 65.5173,173.028 65.5,171.5 Z"/></g>
<g><path style="opacity:1" fill="#000000" d="M 168.5,172.5 C 168.833,172.5 169.167,172.5 169.5,172.5C 168.89,174.434 167.89,176.101 166.5,177.5C 166.5,176.833 166.167,176.5 165.5,176.5C 166.5,175.167 167.5,173.833 168.5,172.5 Z"/></g>
<g><path style="opacity:1" fill="#d3d3d3" d="M 169.5,172.5 C 171.762,173.345 172.429,174.678 171.5,176.5C 170.243,177.623 170.576,178.289 172.5,178.5C 172.912,180.973 171.912,182.306 169.5,182.5C 171.734,184.481 171.9,186.815 170,189.5C 169.667,189.167 169.333,188.833 169,188.5C 168.667,189.5 168.333,190.5 168,191.5C 167.667,191.167 167.333,190.833 167,190.5C 166.612,192.715 165.612,194.048 164,194.5C 163.148,193.429 162.315,192.429 161.5,191.5C 161.5,190.833 161.5,190.167 161.5,189.5C 163.156,185.542 164.823,181.542 166.5,177.5C 167.89,176.101 168.89,174.434 169.5,172.5 Z"/></g>
<g><path style="opacity:1" fill="#ec1c23" d="M 100.5,173.5 C 104.88,175.7 108.88,178.533 112.5,182C 108.27,183.29 103.936,183.79 99.5,183.5C 100.051,180.193 100.384,176.86 100.5,173.5 Z"/></g>
<g><path style="opacity:1" fill="#2d2e92" d="M 160.5,173.5 C 161.922,174.925 163.589,175.925 165.5,176.5C 166.167,176.5 166.5,176.833 166.5,177.5C 164.823,181.542 163.156,185.542 161.5,189.5C 160.587,185.516 159.921,181.349 159.5,177C 159.514,175.615 159.848,174.449 160.5,173.5 Z"/></g>
<g><path style="opacity:1" fill="#ec1c23" d="M 149.5,175.5 C 150.867,178.268 151.867,181.268 152.5,184.5C 149.682,185.88 147.015,185.713 144.5,184C 146.052,181.057 147.719,178.223 149.5,175.5 Z"/></g>
<g><path style="opacity:1" fill="#eff0ef" d="M 172.5,178.5 C 172.167,177.833 171.833,177.167 171.5,176.5C 174.906,175.31 175.239,175.977 172.5,178.5 Z"/></g>
<g><path style="opacity:1" fill="#000000" d="M 71.5,178.5 C 70.8333,178.5 70.1667,178.5 69.5,178.5C 69.7856,176.067 70.4523,176.067 71.5,178.5 Z"/></g>
<g><path style="opacity:1" fill="#000000" d="M 171.5,176.5 C 171.833,177.167 172.167,177.833 172.5,178.5C 170.576,178.289 170.243,177.623 171.5,176.5 Z"/></g>
<g><path style="opacity:1" fill="#fefffe" d="M 69.5,178.5 C 70.1667,178.5 70.8333,178.5 71.5,178.5C 71.5,179.167 71.5,179.833 71.5,180.5C 70.3263,181.514 69.6596,182.847 69.5,184.5C 68.1667,184.5 67.5,183.833 67.5,182.5C 68.6737,181.486 69.3404,180.153 69.5,178.5 Z"/></g>
<g><path style="opacity:1" fill="#000000" d="M 71.5,178.5 C 73.9327,179.548 73.9327,180.214 71.5,180.5C 71.5,179.833 71.5,179.167 71.5,178.5 Z"/></g>
<g><path style="opacity:1" fill="#000000" d="M 169.5,182.5 C 167.354,182.304 167.188,181.304 169,179.5C 169.483,180.448 169.649,181.448 169.5,182.5 Z"/></g>
<g><path style="opacity:1" fill="#fec90d" d="M 130.5,180.5 C 136.874,183.209 141.207,187.876 143.5,194.5C 141.167,197.5 138.5,200.167 135.5,202.5C 130.021,198.855 125.354,194.355 121.5,189C 124.574,186.151 127.574,183.317 130.5,180.5 Z"/></g>
<g><path style="opacity:1" fill="#000000" d="M 76.5,186.5 C 76.0941,184.891 76.0941,183.557 76.5,182.5C 78.7388,183.666 78.7388,184.999 76.5,186.5 Z"/></g>
<g><path style="opacity:1" fill="#fefffe" d="M 110.5,184.5 C 114.478,183.966 117.478,185.466 119.5,189C 116.568,189.953 113.568,190.453 110.5,190.5C 110.5,188.5 110.5,186.5 110.5,184.5 Z"/></g>
<g><path style="opacity:1" fill="#000000" d="M 165.5,184.5 C 166.629,186.666 166.129,188.666 164,190.5C 164.15,188.494 164.65,186.494 165.5,184.5 Z"/></g>
<g><path style="opacity:1" fill="#000000" d="M 81.5,187.5 C 80.8333,187.833 80.1667,188.167 79.5,188.5C 79.3453,185.147 80.0119,184.814 81.5,187.5 Z"/></g>
<g><path style="opacity:1" fill="#fefffe" d="M 89.5,185.5 C 95.8333,185.5 102.167,185.5 108.5,185.5C 108.5,187.167 108.5,188.833 108.5,190.5C 102.298,190.273 96.1315,190.606 90,191.5C 89.1667,191.167 88.3333,190.833 87.5,190.5C 88.4565,188.925 89.1231,187.258 89.5,185.5 Z"/></g>
<g><path style="opacity:1" fill="#ec1c23" d="M 69.5,187.5 C 69.4464,195.645 72.7798,202.145 79.5,207C 76.3024,215.369 70.3024,220.202 61.5,221.5C 60.0222,221.238 58.6888,221.571 57.5,222.5C 67.9816,223.898 75.315,229.398 79.5,239C 71.6882,240.825 65.5215,244.991 61,251.5C 54.3103,244.957 49.8103,237.124 47.5,228C 51.9291,216.057 56.7624,204.223 62,192.5C 63.1667,190.833 64.3333,189.167 65.5,187.5C 66.8084,186.374 68.1417,186.374 69.5,187.5 Z"/></g>
<g><path style="opacity:1" fill="#910c11" d="M 69.5,187.5 C 74.638,190.237 79.638,193.237 84.5,196.5C 85.5274,200.505 85.3607,204.505 84,208.5C 81.4557,213.182 79.9557,218.182 79.5,223.5C 77.4654,224.597 76.1321,226.263 75.5,228.5C 71.2878,225.06 66.6212,222.727 61.5,221.5C 70.3024,220.202 76.3024,215.369 79.5,207C 72.7798,202.145 69.4464,195.645 69.5,187.5 Z"/></g>
<g><path style="opacity:1" fill="#fefffe" d="M 81.5,187.5 C 81.5,188.5 81.5,189.5 81.5,190.5C 79.7973,191.66 79.1307,190.993 79.5,188.5C 80.1667,188.167 80.8333,187.833 81.5,187.5 Z"/></g>
<g><path style="opacity:1" fill="#fefffe" d="M 147.5,187.5 C 151.226,187.177 154.893,187.511 158.5,188.5C 155.286,189.977 151.953,190.477 148.5,190C 147.748,189.329 147.414,188.496 147.5,187.5 Z"/></g>
<g><path style="opacity:1" fill="#fefffe" d="M 81.5,190.5 C 82.2216,190.082 82.7216,189.416 83,188.5C 83.6667,190.167 83.6667,191.833 83,193.5C 81.9614,192.756 81.4614,191.756 81.5,190.5 Z"/></g>
<g><path style="opacity:1" fill="#ec1c23" d="M 181.5,214.5 C 183.136,215.749 184.303,217.416 185,219.5C 185.744,229.203 185.411,238.87 184,248.5C 177.329,244.394 170.829,244.727 164.5,249.5C 163.914,249.291 163.414,248.957 163,248.5C 162.503,246.19 162.337,243.857 162.5,241.5C 164.546,234.277 169.213,229.444 176.5,227C 173.662,224.88 170.996,225.047 168.5,227.5C 167.522,227.023 166.689,226.357 166,225.5C 165.654,215.45 164.821,205.45 163.5,195.5C 166.713,194.134 169.546,192.134 172,189.5C 172.488,194.175 174.321,198.175 177.5,201.5C 176.515,203.098 176.349,204.765 177,206.5C 179.157,208.817 180.657,211.484 181.5,214.5 Z"/></g>
<g><path style="opacity:1" fill="#eff0ef" d="M 161.5,191.5 C 161.5,192.5 161.5,193.5 161.5,194.5C 160.698,195.952 160.198,197.618 160,199.5C 158.833,197.167 157.667,194.833 156.5,192.5C 158.169,191.027 159.836,190.694 161.5,191.5 Z"/></g>
<g><path style="opacity:1" fill="#ec1c23" d="M 114.5,198.5 C 112.293,197.13 110.626,197.797 109.5,200.5C 109.624,201.107 109.957,201.44 110.5,201.5C 110.611,202.117 110.944,202.617 111.5,203C 102.637,213.218 95.1371,224.385 89,236.5C 88.8097,232.924 87.643,229.758 85.5,227C 93.5754,216.941 97.5754,205.441 97.5,192.5C 105.212,192.523 112.879,192.356 120.5,192C 118.6,194.335 116.6,196.502 114.5,198.5 Z"/></g>
<g><path style="opacity:1" fill="#eff0ef" d="M 93.5,192.5 C 94.7251,193.152 95.3917,194.319 95.5,196C 95.0541,199.175 94.5541,202.342 94,205.5C 91.5446,212.617 88.2112,219.284 84,225.5C 81.8611,219.942 82.5277,214.609 86,209.5C 86.9979,204.18 87.8313,198.847 88.5,193.5C 90.4147,193.784 92.0813,193.451 93.5,192.5 Z"/></g>
<g><path style="opacity:1" fill="#910c11" d="M 151.5,192.5 C 152.978,192.238 154.311,192.571 155.5,193.5C 157,196.5 158.5,199.5 160,202.5C 160.007,205.479 159.673,208.479 159,211.5C 156.487,205.145 153.987,198.812 151.5,192.5 Z"/></g>
<g><path style="opacity:1" fill="#eff0ef" d="M 121.5,193.5 C 124.584,196.079 127.584,198.913 130.5,202C 117.536,217.462 105.536,233.629 94.5,250.5C 90.3842,247.89 88.8842,244.223 90,239.5C 98.377,222.639 108.877,207.305 121.5,193.5 Z"/></g>
<g><path style="opacity:1" fill="#fec90d" d="M 148.5,193.5 C 149.239,193.369 149.906,193.536 150.5,194C 149.333,195.167 148.167,196.333 147,197.5C 146.7,195.934 147.2,194.601 148.5,193.5 Z"/></g>
<g><path style="opacity:1" fill="#910c11" d="M 161.5,194.5 C 162.167,194.833 162.833,195.167 163.5,195.5C 164.821,205.45 165.654,215.45 166,225.5C 166.689,226.357 167.522,227.023 168.5,227.5C 170.996,225.047 173.662,224.88 176.5,227C 169.213,229.444 164.546,234.277 162.5,241.5C 161.03,238.114 160.363,234.447 160.5,230.5C 160.392,218.507 160.726,206.507 161.5,194.5 Z"/></g>
<g><path style="opacity:1" fill="#6f452d" d="M 150.5,195.5 C 155.236,203.54 158.069,212.207 159,221.5C 155.289,215.044 151.956,208.377 149,201.5C 148.252,199.16 148.752,197.16 150.5,195.5 Z"/></g>
<g><path style="opacity:1" fill="#f0f0f0" d="M 144.5,196.5 C 148.97,205.439 153.47,214.439 158,223.5C 158.273,230.634 158.94,237.634 160,244.5C 157.489,238.149 154.822,231.815 152,225.5C 147.217,218.383 142.051,211.55 136.5,205C 139.371,202.297 142.038,199.464 144.5,196.5 Z"/></g>
<g><path style="opacity:1" fill="#989898" d="M 114.5,198.5 C 113.738,200.262 112.404,201.262 110.5,201.5C 109.957,201.44 109.624,201.107 109.5,200.5C 110.626,197.797 112.293,197.13 114.5,198.5 Z"/></g>
<g><path style="opacity:1" fill="#000000" d="M 173.5,201.5 C 174.841,206.791 173.174,211.124 168.5,214.5C 168.167,214.333 167.833,214.167 167.5,214C 170.976,210.548 172.976,206.382 173.5,201.5 Z"/></g>
<g><path style="opacity:1" fill="#910c11" d="M 132.5,203.5 C 134.332,204.14 134.665,205.14 133.5,206.5C 132.614,205.675 132.281,204.675 132.5,203.5 Z"/></g>
<g><path style="opacity:1" fill="#fefffe" d="M 128.5,210.5 C 126.158,210.225 126.158,209.392 128.5,208C 129.635,207.251 130.635,207.417 131.5,208.5C 130.398,209.176 129.398,209.842 128.5,210.5 Z"/></g>
<g><path style="opacity:1" fill="#fefffe" d="M 134.5,210.5 C 133.909,209.849 133.243,209.182 132.5,208.5C 134.63,207.223 136.296,207.723 137.5,210C 136.552,210.483 135.552,210.649 134.5,210.5 Z"/></g>
<g><path style="opacity:1" fill="#ec1c23" d="M 128.5,210.5 C 129.5,210.5 130.5,210.5 131.5,210.5C 131.5,212.833 131.5,215.167 131.5,217.5C 130.5,217.5 129.5,217.5 128.5,217.5C 128.158,216.662 127.492,216.328 126.5,216.5C 125.391,215.71 124.058,215.21 122.5,215C 124.141,212.837 126.141,211.337 128.5,210.5 Z"/></g>
<g><path style="opacity:1" fill="#ec1c23" d="M 134.5,210.5 C 136.789,211.058 138.789,212.224 140.5,214C 138.942,214.21 137.609,214.71 136.5,215.5C 135.833,215.5 135.5,215.833 135.5,216.5C 134.5,216.5 133.5,216.5 132.5,216.5C 132.025,213.918 132.692,211.918 134.5,210.5 Z"/></g>
<g><path style="opacity:1" fill="#000000" d="M 181.5,214.5 C 177.9,217.103 174.066,219.436 170,221.5C 169.383,220.551 169.549,219.718 170.5,219C 174.229,217.463 177.895,215.963 181.5,214.5 Z"/></g>
<g><path style="opacity:1" fill="#c5c5c5" d="M 136.5,215.5 C 138.527,215.338 140.527,215.505 142.5,216C 143.337,217.011 143.67,218.178 143.5,219.5C 141.007,221.584 138.34,221.917 135.5,220.5C 134.602,219.842 133.602,219.176 132.5,218.5C 133.602,217.824 134.602,217.158 135.5,216.5C 135.5,215.833 135.833,215.5 136.5,215.5 Z"/></g>
<g><path style="opacity:1" fill="#910c11" d="M 121.5,216.5 C 122.609,217.29 123.942,217.79 125.5,218C 123.482,218.505 121.482,219.005 119.5,219.5C 119.932,218.29 120.599,217.29 121.5,216.5 Z"/></g>
<g><path style="opacity:1" fill="#c8c8c8" d="M 121.5,216.5 C 123.167,216.5 124.833,216.5 126.5,216.5C 127.492,216.328 128.158,216.662 128.5,217.5C 129.263,218.268 130.263,218.768 131.5,219C 128.305,219.181 125.305,219.681 122.5,220.5C 121.167,221.833 119.833,221.833 118.5,220.5C 118.5,219.833 118.833,219.5 119.5,219.5C 121.482,219.005 123.482,218.505 125.5,218C 123.942,217.79 122.609,217.29 121.5,216.5 Z"/></g>
<g><path style="opacity:1" fill="#910c11" d="M 137.5,216.5 C 142.796,217.688 142.796,218.522 137.5,219C 136.402,218.23 136.402,217.397 137.5,216.5 Z"/></g>
<g><path style="opacity:1" fill="#ec1c23" d="M 143.5,219.5 C 144.496,219.414 145.329,219.748 146,220.5C 151.414,227.662 154.914,235.662 156.5,244.5C 156.322,247.216 155.822,249.883 155,252.5C 154.184,253.823 153.017,254.489 151.5,254.5C 145.355,253.51 139.022,253.177 132.5,253.5C 132.5,251.5 132.5,249.5 132.5,247.5C 133.5,247.5 134.5,247.5 135.5,247.5C 139.113,249.784 143.113,250.618 147.5,250C 151.148,247.503 150.815,245.169 146.5,243C 143.633,242.199 140.966,242.366 138.5,243.5C 136.5,243.5 134.5,243.5 132.5,243.5C 132.5,241.833 132.5,240.167 132.5,238.5C 133.833,238.5 135.167,238.5 136.5,238.5C 138.948,239.529 141.614,240.196 144.5,240.5C 146.688,240.693 148.355,239.859 149.5,238C 145.62,233.517 140.953,232.35 135.5,234.5C 134.5,234.5 133.5,234.5 132.5,234.5C 132.5,232.833 132.5,231.167 132.5,229.5C 133.5,229.5 134.5,229.5 135.5,229.5C 135.918,230.222 136.584,230.722 137.5,231C 140.5,231.667 143.5,231.667 146.5,231C 149.216,226.8 147.882,224.3 142.5,223.5C 140.283,223.878 138.283,224.545 136.5,225.5C 135.167,225.5 133.833,225.5 132.5,225.5C 132.5,223.833 132.5,222.167 132.5,220.5C 133.5,220.5 134.5,220.5 135.5,220.5C 138.34,221.917 141.007,221.584 143.5,219.5 Z"/></g>
<g><path style="opacity:1" fill="#ec1c23" d="M 118.5,220.5 C 119.833,221.833 121.167,221.833 122.5,220.5C 125.5,220.5 128.5,220.5 131.5,220.5C 131.5,222.167 131.5,223.833 131.5,225.5C 130.167,225.5 128.833,225.5 127.5,225.5C 126.081,224.549 124.415,224.216 122.5,224.5C 120.708,223.691 118.708,223.191 116.5,223C 117.066,222.005 117.733,221.172 118.5,220.5 Z"/></g>
<g><path style="opacity:1" fill="#c1c1c1" d="M 122.5,224.5 C 124.415,224.216 126.081,224.549 127.5,225.5C 128.718,226.161 130.051,226.828 131.5,227.5C 129.031,228.168 126.698,228.835 124.5,229.5C 123.378,230.156 122.045,230.489 120.5,230.5C 118.117,230.639 116.117,229.972 114.5,228.5C 114.33,227.178 114.663,226.011 115.5,225C 117.81,224.503 120.143,224.337 122.5,224.5 Z"/></g>
<g><path style="opacity:1" fill="#a0a0a0" d="M 135.5,229.5 C 134.602,228.842 133.602,228.176 132.5,227.5C 133.949,226.828 135.282,226.161 136.5,225.5C 138.283,224.545 140.283,223.878 142.5,223.5C 147.882,224.3 149.216,226.8 146.5,231C 143.5,231.667 140.5,231.667 137.5,231C 136.584,230.722 135.918,230.222 135.5,229.5 Z"/></g>
<g><path style="opacity:1" fill="#910c11" d="M 116.5,227.5 C 119.64,226.359 122.973,226.192 126.5,227C 123.18,228.507 119.847,228.673 116.5,227.5 Z"/></g>
<g><path style="opacity:1" fill="#910c11" d="M 139.5,226.5 C 142.073,226.148 144.406,226.648 146.5,228C 143.537,229.85 140.537,229.85 137.5,228C 138.416,227.722 139.082,227.222 139.5,226.5 Z"/></g>
<g><path style="opacity:1" fill="#ec1c23" d="M 114.5,228.5 C 116.117,229.972 118.117,230.639 120.5,230.5C 122.045,230.489 123.378,230.156 124.5,229.5C 126.833,229.5 129.167,229.5 131.5,229.5C 131.5,231.167 131.5,232.833 131.5,234.5C 130.5,234.5 129.5,234.5 128.5,234.5C 123.684,233.35 118.684,233.184 113.5,234C 110.936,236.276 111.27,238.276 114.5,240C 120.19,240.758 125.523,239.924 130.5,237.5C 131.461,239.265 131.795,241.265 131.5,243.5C 129.167,243.5 126.833,243.5 124.5,243.5C 120.618,242.021 116.784,242.355 113,244.5C 113.371,247.857 115.371,249.524 119,249.5C 122.062,249.259 124.895,248.592 127.5,247.5C 128.833,247.5 130.167,247.5 131.5,247.5C 131.5,249.5 131.5,251.5 131.5,253.5C 128.315,253.98 125.481,253.314 123,251.5C 122.5,252 122,252.5 121.5,253C 116.981,253.175 112.647,253.675 108.5,254.5C 105.759,254.707 103.426,255.707 101.5,257.5C 99.5212,256.188 97.8545,254.521 96.5,252.5C 101.47,244.365 106.636,236.365 112,228.5C 112.77,227.402 113.603,227.402 114.5,228.5 Z"/></g>
<g><path style="opacity:1" fill="#fefffe" d="M 80.5,228.5 C 83.971,230.306 85.3043,232.973 84.5,236.5C 81.4476,234.401 80.1143,231.734 80.5,228.5 Z"/></g>
<g><path style="opacity:1" fill="#9e9e9e" d="M 128.5,234.5 C 129.263,235.268 130.263,235.768 131.5,236C 130.944,236.383 130.611,236.883 130.5,237.5C 125.523,239.924 120.19,240.758 114.5,240C 111.27,238.276 110.936,236.276 113.5,234C 118.684,233.184 123.684,233.35 128.5,234.5 Z"/></g>
<g><path style="opacity:1" fill="#9e9e9e" d="M 136.5,238.5 C 135.282,237.839 133.949,237.172 132.5,236.5C 133.602,235.824 134.602,235.158 135.5,234.5C 140.953,232.35 145.62,233.517 149.5,238C 148.355,239.859 146.688,240.693 144.5,240.5C 141.614,240.196 138.948,239.529 136.5,238.5 Z"/></g>
<g><path style="opacity:1" fill="#910c11" d="M 115.5,236.5 C 118.64,235.359 121.973,235.192 125.5,236C 122.264,237.724 118.93,237.89 115.5,236.5 Z"/></g>
<g><path style="opacity:1" fill="#910c11" d="M 138.5,236.5 C 141.445,234.937 144.112,235.437 146.5,238C 143.668,238.326 141.001,237.826 138.5,236.5 Z"/></g>
<g><path style="opacity:1" fill="#3036b3" d="M 83.5,241.5 C 83.6716,242.492 83.3382,243.158 82.5,243.5C 81.8999,244.9 80.8999,245.9 79.5,246.5C 77.901,246.768 76.5676,246.434 75.5,245.5C 75.44,244.957 75.1067,244.624 74.5,244.5C 73.5258,246.743 73.1924,249.076 73.5,251.5C 74.5,251.5 75.5,251.5 76.5,251.5C 77.4916,251.328 78.1583,251.662 78.5,252.5C 78.8417,253.338 79.5084,253.672 80.5,253.5C 78.3805,255.4 76.0472,257.066 73.5,258.5C 73.1667,258.5 72.8333,258.5 72.5,258.5C 72.1667,256.5 71.8333,254.5 71.5,252.5C 69.3926,251.532 67.0593,251.198 64.5,251.5C 64.2322,253.099 64.5655,254.432 65.5,255.5C 65.5674,256.959 65.2341,258.292 64.5,259.5C 63.5,259.5 62.5,259.5 61.5,259.5C 62.2375,251.253 66.5708,245.753 74.5,243C 77,242.167 79.5,241.333 82,240.5C 82.7648,240.57 83.2648,240.903 83.5,241.5 Z"/></g>
<g><path style="opacity:1" fill="#fefffe" d="M 83.5,241.5 C 84.5,241.833 85.1667,242.5 85.5,243.5C 82.7704,244.991 82.937,246.325 86,247.5C 86.4643,246.906 86.631,246.239 86.5,245.5C 87.1239,245.917 87.4573,246.584 87.5,247.5C 87.2528,248.713 86.5862,249.38 85.5,249.5C 85.0269,248.094 84.0269,247.427 82.5,247.5C 82.5,246.167 82.5,244.833 82.5,243.5C 83.3382,243.158 83.6716,242.492 83.5,241.5 Z"/></g>
<g><path style="opacity:1" fill="#000000" d="M 82.5,243.5 C 82.5,244.833 82.5,246.167 82.5,247.5C 81.8333,248.833 81.1667,250.167 80.5,251.5C 80.634,249.708 80.3007,248.042 79.5,246.5C 80.8999,245.9 81.8999,244.9 82.5,243.5 Z"/></g>
<g><path style="opacity:1" fill="#323bc8" d="M 85.5,243.5 C 85.8333,244.167 86.1667,244.833 86.5,245.5C 86.631,246.239 86.4643,246.906 86,247.5C 82.937,246.325 82.7704,244.991 85.5,243.5 Z"/></g>
<g><path style="opacity:1" fill="#a6a6a6" d="M 124.5,243.5 C 126.698,244.165 129.031,244.832 131.5,245.5C 130.051,246.172 128.718,246.839 127.5,247.5C 124.895,248.592 122.062,249.259 119,249.5C 115.371,249.524 113.371,247.857 113,244.5C 116.784,242.355 120.618,242.021 124.5,243.5 Z"/></g>
<g><path style="opacity:1" fill="#a3a3a3" d="M 135.5,247.5 C 134.602,246.842 133.602,246.176 132.5,245.5C 134.631,244.831 136.631,244.165 138.5,243.5C 140.966,242.366 143.633,242.199 146.5,243C 150.815,245.169 151.148,247.503 147.5,250C 143.113,250.618 139.113,249.784 135.5,247.5 Z"/></g>
<g><path style="opacity:1" fill="#000000" d="M 75.5,245.5 C 74.1566,247.683 74.49,249.683 76.5,251.5C 75.5,251.5 74.5,251.5 73.5,251.5C 73.1924,249.076 73.5258,246.743 74.5,244.5C 75.1067,244.624 75.44,244.957 75.5,245.5 Z"/></g>
<g><path style="opacity:1" fill="#910c11" d="M 116.5,245.5 C 119.405,244.299 122.405,244.466 125.5,246C 122.445,246.634 119.445,246.468 116.5,245.5 Z"/></g>
<g><path style="opacity:1" fill="#910c11" d="M 142.5,244.5 C 146.541,244.574 147.208,245.907 144.5,248.5C 142.333,247.208 140,246.375 137.5,246C 139.382,245.802 141.048,245.302 142.5,244.5 Z"/></g>
<g><path style="opacity:1" fill="#830f11" d="M 156.5,244.5 C 158.148,246.429 159.815,248.429 161.5,250.5C 160.652,252.409 160.318,254.409 160.5,256.5C 159.5,256.5 158.5,256.5 157.5,256.5C 155.214,256.405 153.214,255.738 151.5,254.5C 153.017,254.489 154.184,253.823 155,252.5C 155.822,249.883 156.322,247.216 156.5,244.5 Z"/></g>
<g><path style="opacity:1" fill="#fefffe" d="M 75.5,245.5 C 76.5676,246.434 77.901,246.768 79.5,246.5C 80.3007,248.042 80.634,249.708 80.5,251.5C 79.8333,251.833 79.1667,252.167 78.5,252.5C 78.1583,251.662 77.4916,251.328 76.5,251.5C 74.49,249.683 74.1566,247.683 75.5,245.5 Z"/></g>
<g><path style="opacity:1" fill="#323bc8" d="M 75.5,247.5 C 78.462,247.117 79.462,248.117 78.5,250.5C 76.7869,250.121 75.7869,249.121 75.5,247.5 Z"/></g>
<g><path style="opacity:1" fill="#3138b8" d="M 82.5,247.5 C 84.0269,247.427 85.0269,248.094 85.5,249.5C 86.209,250.404 87.209,250.737 88.5,250.5C 88.3505,249.448 88.5172,248.448 89,247.5C 90.0458,249.09 91.2125,250.59 92.5,252C 88.4724,252.392 84.4724,252.892 80.5,253.5C 80.5,252.833 80.5,252.167 80.5,251.5C 81.1667,250.167 81.8333,248.833 82.5,247.5 Z"/></g>
<g><path style="opacity:1" fill="#fefffe" d="M 177.5,249.5 C 177.932,250.71 178.599,251.71 179.5,252.5C 179.167,253.167 178.833,253.833 178.5,254.5C 177.542,254.953 176.708,255.619 176,256.5C 173.749,254.623 171.249,253.123 168.5,252C 169.571,251.148 170.571,250.315 171.5,249.5C 173.761,247.286 175.761,247.286 177.5,249.5 Z"/></g>
<g><path style="opacity:1" fill="#3035ac" d="M 171.5,249.5 C 170.571,250.315 169.571,251.148 168.5,252C 171.249,253.123 173.749,254.623 176,256.5C 176.708,255.619 177.542,254.953 178.5,254.5C 179.167,255.167 179.833,255.833 180.5,256.5C 181.833,257.5 183.167,258.5 184.5,259.5C 184.833,260.167 185.167,260.833 185.5,261.5C 185.5,261.833 185.5,262.167 185.5,262.5C 177.885,258.595 170.218,258.595 162.5,262.5C 162.167,262 161.833,261.5 161.5,261C 162.185,258.205 162.685,255.372 163,252.5C 165.525,249.785 168.358,248.785 171.5,249.5 Z"/></g>
<g><path style="opacity:1" fill="#2f33a4" d="M 183.5,252.5 C 182.167,252.5 180.833,252.5 179.5,252.5C 178.599,251.71 177.932,250.71 177.5,249.5C 177.56,248.957 177.893,248.624 178.5,248.5C 179.795,249.098 181.128,249.598 182.5,250C 183.252,250.671 183.586,251.504 183.5,252.5 Z"/></g>
<g><path style="opacity:1" fill="#000000" d="M 174.5,249.5 C 178.095,250.905 178.262,252.572 175,254.5C 174.167,253.667 173.333,252.833 172.5,252C 173.381,251.292 174.047,250.458 174.5,249.5 Z"/></g>
<g><path style="opacity:1" fill="#000000" d="M 71.5,252.5 C 69.5,252.5 67.5,252.5 65.5,252.5C 65.5,253.5 65.5,254.5 65.5,255.5C 64.5655,254.432 64.2322,253.099 64.5,251.5C 67.0593,251.198 69.3926,251.532 71.5,252.5 Z"/></g>
<g><path style="opacity:1" fill="#000000" d="M 80.5,251.5 C 80.5,252.167 80.5,252.833 80.5,253.5C 79.5084,253.672 78.8417,253.338 78.5,252.5C 79.1667,252.167 79.8333,251.833 80.5,251.5 Z"/></g>
<g><path style="opacity:1" fill="#fefffe" d="M 71.5,252.5 C 71.8333,254.5 72.1667,256.5 72.5,258.5C 70.5,258.5 68.5,258.5 66.5,258.5C 66.7373,257.209 66.404,256.209 65.5,255.5C 65.5,254.5 65.5,253.5 65.5,252.5C 67.5,252.5 69.5,252.5 71.5,252.5 Z"/></g>
<g><path style="opacity:1" fill="#000000" d="M 179.5,252.5 C 180.833,252.5 182.167,252.5 183.5,252.5C 182.791,253.404 181.791,253.737 180.5,253.5C 180.5,254.5 180.5,255.5 180.5,256.5C 179.833,255.833 179.167,255.167 178.5,254.5C 178.833,253.833 179.167,253.167 179.5,252.5 Z"/></g>
<g><path style="opacity:1" fill="#fefffe" d="M 183.5,252.5 C 186.91,252.384 188.244,254.05 187.5,257.5C 186.732,256.737 186.232,255.737 186,254.5C 185.25,255.126 184.416,255.626 183.5,256C 184.337,257.011 184.67,258.178 184.5,259.5C 183.167,258.5 181.833,257.5 180.5,256.5C 180.5,255.5 180.5,254.5 180.5,253.5C 181.791,253.737 182.791,253.404 183.5,252.5 Z"/></g>
<g><path style="opacity:1" fill="#323bc8" d="M 67.5,253.5 C 72.1555,255.965 72.1555,257.298 67.5,257.5C 67.5,256.167 67.5,254.833 67.5,253.5 Z"/></g>
<g><path style="opacity:1" fill="#1f257a" d="M 90.5,257.5 C 85.0671,254.803 80.5671,256.136 77,261.5C 76.4209,262.928 76.5876,264.262 77.5,265.5C 80.0469,268.188 79.8802,270.522 77,272.5C 71.914,268.893 71.2473,264.559 75,259.5C 80.4903,254.227 86.9903,252.394 94.5,254C 95.8333,255.333 97.1667,256.667 98.5,258C 97.6667,258.833 96.8333,259.667 96,260.5C 94.2591,259.242 92.4258,258.242 90.5,257.5 Z"/></g>
<g><path style="opacity:1" fill="#c2c3c2" d="M 126.5,259.5 C 127.795,260.488 129.128,261.488 130.5,262.5C 130.278,265.076 128.945,265.91 126.5,265C 124.667,263.167 122.833,261.333 121,259.5C 120.805,258.181 120.972,256.847 121.5,255.5C 122.222,255.082 122.722,254.416 123,253.5C 123.739,255.889 124.905,257.889 126.5,259.5 Z"/></g>
<g><path style="opacity:1" fill="#d5d5d5" d="M 108.5,254.5 C 113.032,254.182 117.366,254.515 121.5,255.5C 117.063,256.113 112.73,256.78 108.5,257.5C 106.214,257.595 104.214,258.262 102.5,259.5C 100.302,259.591 99.9689,258.925 101.5,257.5C 103.426,255.707 105.759,254.707 108.5,254.5 Z"/></g>
<g><path style="opacity:1" fill="#fefffe" d="M 151.5,254.5 C 153.214,255.738 155.214,256.405 157.5,256.5C 161.419,257.985 161.086,258.985 156.5,259.5C 154.898,257.926 152.898,257.259 150.5,257.5C 142.324,256.833 133.99,256.167 125.5,255.5C 134.141,254.502 142.808,254.169 151.5,254.5 Z"/></g>
<g><path style="opacity:1" fill="#000000" d="M 187.5,257.5 C 186.71,258.401 185.71,259.068 184.5,259.5C 184.67,258.178 184.337,257.011 183.5,256C 184.416,255.626 185.25,255.126 186,254.5C 186.232,255.737 186.732,256.737 187.5,257.5 Z"/></g>
<g><path style="opacity:1" fill="#000000" d="M 65.5,255.5 C 66.404,256.209 66.7373,257.209 66.5,258.5C 68.5,258.5 70.5,258.5 72.5,258.5C 71.0813,259.451 69.4147,259.784 67.5,259.5C 67.5,260.5 67.5,261.5 67.5,262.5C 66.8999,261.1 65.8999,260.1 64.5,259.5C 65.2341,258.292 65.5674,256.959 65.5,255.5 Z"/></g>
<g><path style="opacity:1" fill="#f9a884" d="M 90.5,257.5 C 92.2666,259.89 94.5999,261.557 97.5,262.5C 101.167,265.5 104.5,268.833 107.5,272.5C 107.75,274.674 108.75,276.341 110.5,277.5C 110.443,278.609 110.11,279.609 109.5,280.5C 108.5,280.5 107.5,280.5 106.5,280.5C 103.227,277.051 100.061,273.384 97,269.5C 99.212,273.908 101.712,278.241 104.5,282.5C 104.5,283.5 104.5,284.5 104.5,285.5C 103.5,285.5 102.5,285.5 101.5,285.5C 98.2125,280.214 94.5458,275.214 90.5,270.5C 90.1667,270.667 89.8333,270.833 89.5,271C 93.2233,275.63 96.5567,280.464 99.5,285.5C 98.8333,285.5 98.5,285.833 98.5,286.5C 97.1266,286.657 95.7932,286.49 94.5,286C 91.212,281.923 88.0453,277.756 85,273.5C 87.1056,279.016 90.2723,284.016 94.5,288.5C 93.1667,288.5 91.8333,288.5 90.5,288.5C 89.5637,287.026 88.2303,286.026 86.5,285.5C 85.0698,281.646 83.4031,277.979 81.5,274.5C 81.162,272.146 80.662,269.813 80,267.5C 79.5831,266.244 78.7498,265.577 77.5,265.5C 76.5876,264.262 76.4209,262.928 77,261.5C 80.5671,256.136 85.0671,254.803 90.5,257.5 Z"/></g>
<g><path style="opacity:1" fill="#717171" d="M 108.5,257.5 C 112.182,257.335 115.848,257.501 119.5,258C 118.944,258.383 118.611,258.883 118.5,259.5C 117.859,260.482 117.193,261.482 116.5,262.5C 117.246,263.736 117.579,265.07 117.5,266.5C 116.5,266.5 115.5,266.5 114.5,266.5C 112.5,266.833 110.5,267.167 108.5,267.5C 108.016,264.049 108.016,260.716 108.5,257.5 Z"/></g>
<g><path style="opacity:1" fill="#707070" d="M 130.5,262.5 C 129.128,261.488 127.795,260.488 126.5,259.5C 126.389,258.883 126.056,258.383 125.5,258C 128.146,257.503 130.813,257.336 133.5,257.5C 133.808,259.924 133.474,262.257 132.5,264.5C 131.818,263.757 131.151,263.091 130.5,262.5 Z"/></g>
<g><path style="opacity:1" fill="#7e7f7e" d="M 150.5,257.5 C 150.918,258.222 151.584,258.722 152.5,259C 150.771,260.789 150.104,262.956 150.5,265.5C 145.213,264.658 139.88,264.324 134.5,264.5C 134.5,262.167 134.5,259.833 134.5,257.5C 139.833,257.5 145.167,257.5 150.5,257.5 Z"/></g>
<g><path style="opacity:1" fill="#fefffe" d="M 187.5,257.5 C 188.625,258.348 188.625,259.348 187.5,260.5C 186.833,260.833 186.167,261.167 185.5,261.5C 185.167,260.833 184.833,260.167 184.5,259.5C 185.71,259.068 186.71,258.401 187.5,257.5 Z"/></g>
<g><path style="opacity:1" fill="#3138ba" d="M 72.5,258.5 C 72.8333,258.5 73.1667,258.5 73.5,258.5C 72.9886,261.028 72.3219,263.528 71.5,266C 71.6148,267.895 72.2815,269.562 73.5,271C 72.8333,271.667 72.1667,271.667 71.5,271C 70.035,269.226 68.7017,267.392 67.5,265.5C 67.5,264.5 67.5,263.5 67.5,262.5C 67.5,261.5 67.5,260.5 67.5,259.5C 69.4147,259.784 71.0813,259.451 72.5,258.5 Z"/></g>
<g><path style="opacity:1" fill="#353535" d="M 108.5,257.5 C 108.016,260.716 108.016,264.049 108.5,267.5C 110.5,267.167 112.5,266.833 114.5,266.5C 113.699,268.042 113.366,269.708 113.5,271.5C 112.21,269.86 110.543,269.36 108.5,270C 107.748,270.671 107.414,271.504 107.5,272.5C 104.5,268.833 101.167,265.5 97.5,262.5C 99.2608,261.687 100.928,260.687 102.5,259.5C 104.214,258.262 106.214,257.595 108.5,257.5 Z"/></g>
<g><path style="opacity:1" fill="#474747" d="M 150.5,257.5 C 152.898,257.259 154.898,257.926 156.5,259.5C 157.209,260.404 158.209,260.737 159.5,260.5C 159.5,262.167 159.5,263.833 159.5,265.5C 156.5,265.5 153.5,265.5 150.5,265.5C 150.104,262.956 150.771,260.789 152.5,259C 151.584,258.722 150.918,258.222 150.5,257.5 Z"/></g>
<g><path style="opacity:1" fill="#fefffe" d="M 64.5,259.5 C 65.8999,260.1 66.8999,261.1 67.5,262.5C 67.5,263.5 67.5,264.5 67.5,265.5C 66.8333,265.5 66.5,265.167 66.5,264.5C 66.1436,262.81 65.1436,261.81 63.5,261.5C 63.8333,260.833 64.1667,260.167 64.5,259.5 Z"/></g>
<g><path style="opacity:1" fill="#c2c3c2" d="M 118.5,259.5 C 121.297,261.795 123.964,264.295 126.5,267C 125.975,267.692 125.308,268.192 124.5,268.5C 117.75,263.12 117.25,263.453 123,269.5C 123.49,270.793 123.657,272.127 123.5,273.5C 122.883,273.611 122.383,273.944 122,274.5C 119.14,273.577 116.307,272.577 113.5,271.5C 113.366,269.708 113.699,268.042 114.5,266.5C 115.5,266.5 116.5,266.5 117.5,266.5C 117.579,265.07 117.246,263.736 116.5,262.5C 117.193,261.482 117.859,260.482 118.5,259.5 Z"/></g>
<g><path style="opacity:1" fill="#1f2579" d="M 185.5,262.5 C 185.5,262.167 185.5,261.833 185.5,261.5C 186.167,261.167 186.833,260.833 187.5,260.5C 187.954,262.259 187.954,264.259 187.5,266.5C 178.797,266.645 170.13,266.145 161.5,265C 169.854,258.927 178.02,259.093 186,265.5C 186.47,264.423 186.303,263.423 185.5,262.5 Z"/></g>
<g><path style="opacity:1" fill="#323bc8" d="M 63.5,261.5 C 65.1436,261.81 66.1436,262.81 66.5,264.5C 64.8564,264.19 63.8564,263.19 63.5,261.5 Z"/></g>
<g><path style="opacity:1" fill="#c2c3c2" d="M 131.5,272.5 C 129.321,273.059 127.154,273.726 125,274.5C 124.235,274.43 123.735,274.097 123.5,273.5C 125.009,270.107 127.509,267.441 131,265.5C 131.121,267.727 131.954,269.56 133.5,271C 132.584,271.278 131.918,271.778 131.5,272.5 Z"/></g>
<g><path style="opacity:1" fill="#c2c2c2" d="M 147.5,270.5 C 142.695,269.513 137.695,269.179 132.5,269.5C 132.5,268.5 132.5,267.5 132.5,266.5C 190.501,268.899 248.501,271.399 306.5,274C 325.506,274.526 344.506,274.359 363.5,273.5C 364.112,276.881 362.946,279.214 360,280.5C 358.765,278.437 356.931,277.437 354.5,277.5C 350.688,278.048 346.855,278.381 343,278.5C 277.849,275.385 212.682,272.718 147.5,270.5 Z"/></g>
<g><path style="opacity:1" fill="#000000" d="M 106.5,280.5 C 105.167,280.5 104.5,281.167 104.5,282.5C 101.712,278.241 99.212,273.908 97,269.5C 100.061,273.384 103.227,277.051 106.5,280.5 Z"/></g>
<g><path style="opacity:1" fill="#6a422c" d="M 113.5,271.5 C 116.307,272.577 119.14,273.577 122,274.5C 122.383,273.944 122.883,273.611 123.5,273.5C 123.735,274.097 124.235,274.43 125,274.5C 127.154,273.726 129.321,273.059 131.5,272.5C 136.596,270.738 141.93,270.071 147.5,270.5C 185.015,272.437 222.682,274.437 260.5,276.5C 258.851,278.65 257.018,280.65 255,282.5C 254.25,281.874 253.416,281.374 252.5,281C 231.184,279.782 209.851,279.282 188.5,279.5C 188.737,278.209 188.404,277.209 187.5,276.5C 186.329,275.655 184.995,274.989 183.5,274.5C 182.167,274.5 180.833,274.5 179.5,274.5C 178.833,274.5 178.167,274.5 177.5,274.5C 176.167,274.5 174.833,274.5 173.5,274.5C 173.167,274.5 172.833,274.5 172.5,274.5C 170.225,275.111 168.559,276.445 167.5,278.5C 158.833,278.5 150.167,278.5 141.5,278.5C 137.5,278.5 133.5,278.5 129.5,278.5C 123.077,278.791 116.744,278.458 110.5,277.5C 108.75,276.341 107.75,274.674 107.5,272.5C 107.414,271.504 107.748,270.671 108.5,270C 110.543,269.36 112.21,269.86 113.5,271.5 Z"/></g>
<g><path style="opacity:1" fill="#c2c2c2" d="M 367.5,269.5 C 396.841,270.25 426.174,271.25 455.5,272.5C 450.955,274.304 446.288,275.804 441.5,277C 420.507,277.895 399.507,278.561 378.5,279C 368.246,286.908 364.079,284.408 366,271.5C 366.717,270.956 367.217,270.289 367.5,269.5 Z"/></g>
<g><path style="opacity:1" fill="#000000" d="M 101.5,285.5 C 100.833,285.5 100.167,285.5 99.5,285.5C 96.5567,280.464 93.2233,275.63 89.5,271C 89.8333,270.833 90.1667,270.667 90.5,270.5C 94.5458,275.214 98.2125,280.214 101.5,285.5 Z"/></g>
<g><path style="opacity:1" fill="#000000" d="M 367.5,273.5 C 391.682,272.887 416.015,273.387 440.5,275C 416.168,274.833 391.834,274.333 367.5,273.5 Z"/></g>
<g><path style="opacity:1" fill="#6e442d" d="M 81.5,274.5 C 83.4031,277.979 85.0698,281.646 86.5,285.5C 86.3893,286.117 86.056,286.617 85.5,287C 69.7254,292.388 54.0587,298.055 38.5,304C 35.854,304.497 33.1873,304.664 30.5,304.5C 29.7233,295.188 29.39,285.854 29.5,276.5C 44.3882,276.117 59.2215,275.117 74,273.5C 76.5727,274.094 79.0727,274.427 81.5,274.5 Z"/></g>
<g><path style="opacity:1" fill="#000000" d="M 98.5,286.5 C 97.3285,287.345 95.9952,288.011 94.5,288.5C 90.2723,284.016 87.1056,279.016 85,273.5C 88.0453,277.756 91.212,281.923 94.5,286C 95.7932,286.49 97.1266,286.657 98.5,286.5 Z"/></g>
<g><path style="opacity:1" fill="#f9a884" d="M 172.5,274.5 C 171.123,279.386 170.289,284.386 170,289.5C 166.39,286.522 165.557,282.855 167.5,278.5C 168.559,276.445 170.225,275.111 172.5,274.5 Z"/></g>
<g><path style="opacity:1" fill="#f9a884" d="M 173.5,274.5 C 174.833,274.5 176.167,274.5 177.5,274.5C 176.355,279.793 175.355,285.127 174.5,290.5C 172.488,289.548 171.488,287.881 171.5,285.5C 172.171,281.824 172.838,278.157 173.5,274.5 Z"/></g>
<g><path style="opacity:1" fill="#f9a884" d="M 179.5,274.5 C 180.833,274.5 182.167,274.5 183.5,274.5C 181.932,280.343 181.098,286.343 181,292.5C 177.417,292.082 175.917,290.082 176.5,286.5C 176.88,282.312 177.88,278.312 179.5,274.5 Z"/></g>
<g><path style="opacity:1" fill="#fec80d" d="M 262.5,275.5 C 263.901,275.971 265.234,276.638 266.5,277.5C 266.387,283.746 263.387,287.746 257.5,289.5C 255.554,287.956 255.054,285.956 256,283.5C 258.758,281.249 260.925,278.582 262.5,275.5 Z"/></g>
<g><path style="opacity:1" fill="#f9a884" d="M 187.5,276.5 C 187.284,280.059 187.618,283.559 188.5,287C 187.887,290.45 185.887,292.284 182.5,292.5C 182.392,287.13 182.725,281.797 183.5,276.5C 184.833,276.5 186.167,276.5 187.5,276.5 Z"/></g>
<g><path style="opacity:1" fill="#6f452d" d="M 268.5,276.5 C 293.507,277.25 318.507,278.25 343.5,279.5C 347.372,279.449 351.205,279.115 355,278.5C 356.331,279.996 357.831,281.329 359.5,282.5C 355.667,282.833 351.833,283.167 348,283.5C 321.144,283 294.31,282 267.5,280.5C 268.246,279.264 268.579,277.93 268.5,276.5 Z"/></g>
<g><path style="opacity:1" fill="#000000" d="M 110.5,277.5 C 116.744,278.458 123.077,278.791 129.5,278.5C 130.412,279.738 130.579,281.072 130,282.5C 127.873,284.114 126.373,286.114 125.5,288.5C 124.539,286.735 124.205,284.735 124.5,282.5C 125.222,282.918 125.722,283.584 126,284.5C 127.167,283.333 128.333,282.167 129.5,281C 129.167,280.667 128.833,280.333 128.5,280C 124.848,279.501 121.182,279.335 117.5,279.5C 117.408,286.008 116.742,286.008 115.5,279.5C 114.167,279.5 112.833,279.5 111.5,279.5C 111.5,280.5 111.5,281.5 111.5,282.5C 110.833,281.833 110.167,281.167 109.5,280.5C 110.11,279.609 110.443,278.609 110.5,277.5 Z"/></g>
<g><path style="opacity:1" fill="#c2c3c2" d="M 129.5,278.5 C 133.5,278.5 137.5,278.5 141.5,278.5C 139.371,279.203 137.371,280.203 135.5,281.5C 134.596,282.209 134.263,283.209 134.5,284.5C 130.871,284.482 127.871,285.816 125.5,288.5C 126.373,286.114 127.873,284.114 130,282.5C 130.579,281.072 130.412,279.738 129.5,278.5 Z"/></g>
<g><path style="opacity:1" fill="#4b4b4b" d="M 124.5,282.5 C 123.833,283.167 123.167,283.833 122.5,284.5C 120.323,284.586 118.323,285.253 116.5,286.5C 114.814,285.143 113.148,283.81 111.5,282.5C 111.5,281.5 111.5,280.5 111.5,279.5C 112.833,279.5 114.167,279.5 115.5,279.5C 116.742,286.008 117.408,286.008 117.5,279.5C 121.182,279.335 124.848,279.501 128.5,280C 128.833,280.333 129.167,280.667 129.5,281C 128.333,282.167 127.167,283.333 126,284.5C 125.722,283.584 125.222,282.918 124.5,282.5 Z"/></g>
<g><path style="opacity:1" fill="#b8b8b8" d="M 106.5,280.5 C 107.5,280.5 108.5,280.5 109.5,280.5C 110.167,281.167 110.833,281.833 111.5,282.5C 113.273,287.737 116.44,288.737 121,285.5C 121.483,286.448 121.649,287.448 121.5,288.5C 118.531,289.329 115.531,289.495 112.5,289C 109.669,286.999 107.003,284.833 104.5,282.5C 104.5,281.167 105.167,280.5 106.5,280.5 Z"/></g>
<g><path style="opacity:1" fill="#7e7f7e" d="M 147.5,280.5 C 148.468,283.445 148.634,286.445 148,289.5C 144.68,294.647 140.847,299.314 136.5,303.5C 136.797,296.08 136.464,288.746 135.5,281.5C 139.452,280.728 143.452,280.395 147.5,280.5 Z"/></g>
<g><path style="opacity:1" fill="#4e4f4e" d="M 147.5,280.5 C 153.5,280.5 159.5,280.5 165.5,280.5C 165.5,283.167 165.5,285.833 165.5,288.5C 162.392,293.053 160.059,298.053 158.5,303.5C 163.113,309.662 165.78,316.662 166.5,324.5C 166.167,325.5 165.833,326.5 165.5,327.5C 162.973,322.806 159.306,319.306 154.5,317C 151.697,316.245 149.03,316.578 146.5,318C 149.205,320.505 150.205,323.339 149.5,326.5C 147.145,322.145 143.812,318.812 139.5,316.5C 137.977,312.404 136.977,308.071 136.5,303.5C 140.847,299.314 144.68,294.647 148,289.5C 148.634,286.445 148.468,283.445 147.5,280.5 Z"/></g>
<g><path style="opacity:1" fill="#c2c2c2" d="M 362.5,280.5 C 364.463,281.96 366.296,283.627 368,285.5C 368.617,286.449 368.451,287.282 367.5,288C 365.497,287.581 363.497,286.747 361.5,285.5C 360.316,283.533 360.649,281.866 362.5,280.5 Z"/></g>
<g><path style="opacity:1" fill="#000000" d="M 111.5,282.5 C 113.148,283.81 114.814,285.143 116.5,286.5C 118.323,285.253 120.323,284.586 122.5,284.5C 122.768,286.099 122.434,287.432 121.5,288.5C 121.649,287.448 121.483,286.448 121,285.5C 116.44,288.737 113.273,287.737 111.5,282.5 Z"/></g>
<g><path style="opacity:1" fill="#fec90d" d="M 124.5,282.5 C 124.205,284.735 124.539,286.735 125.5,288.5C 125.5,289.833 125.5,291.167 125.5,292.5C 124.5,292.5 123.5,292.5 122.5,292.5C 121.766,291.292 121.433,289.959 121.5,288.5C 122.434,287.432 122.768,286.099 122.5,284.5C 123.167,283.833 123.833,283.167 124.5,282.5 Z"/></g>
<g><path style="opacity:1" fill="#fefffe" d="M 191.5,283.5 C 204.504,283.333 217.504,283.5 230.5,284C 237.336,284.039 244.003,284.706 250.5,286C 249.181,290.533 247.681,295.033 246,299.5C 233.374,311.799 219.874,322.965 205.5,333C 199.094,336.191 192.427,338.691 185.5,340.5C 182.279,336.725 180.112,332.391 179,327.5C 175.84,315.865 173.173,304.198 171,292.5C 176.219,295.081 181.719,295.914 187.5,295C 190.966,291.96 192.3,288.126 191.5,283.5 Z M 195.5,287.5 C 196.3,292.126 194.966,295.96 191.5,299C 186.5,299.333 181.5,299.667 176.5,300C 179.405,309.782 182.238,319.616 185,329.5C 185.687,331.555 186.854,333.221 188.5,334.5C 192.874,332.764 197.207,330.931 201.5,329C 215.874,318.965 229.374,307.799 242,295.5C 243.411,293.35 244.245,291.016 244.5,288.5C 228.174,287.887 211.84,287.554 195.5,287.5 Z"/></g>
<g><path style="opacity:1" fill="#4c4c4c" d="M 104.5,282.5 C 107.003,284.833 109.669,286.999 112.5,289C 115.531,289.495 118.531,289.329 121.5,288.5C 121.433,289.959 121.766,291.292 122.5,292.5C 122.5,293.5 122.5,294.5 122.5,295.5C 120.504,293.667 118.171,293.167 115.5,294C 110.733,296.365 105.9,298.531 101,300.5C 100.333,303.167 100.333,305.833 101,308.5C 106.139,309.953 107.806,313.287 106,318.5C 105.71,320.952 105.044,323.285 104,325.5C 100.04,327.468 96.7068,330.135 94,333.5C 94.3333,338.5 94.6667,343.5 95,348.5C 93.975,350.687 92.475,352.354 90.5,353.5C 89.7765,331.872 91.1099,310.205 94.5,288.5C 95.9952,288.011 97.3285,287.345 98.5,286.5C 98.5,285.833 98.8333,285.5 99.5,285.5C 100.167,285.5 100.833,285.5 101.5,285.5C 102.5,285.5 103.5,285.5 104.5,285.5C 104.5,284.5 104.5,283.5 104.5,282.5 Z"/></g>
<g><path style="opacity:1" fill="#fefffe" d="M 131.5,304.5 C 132.532,299.659 132.532,294.659 131.5,289.5C 130.167,289.5 128.833,289.5 127.5,289.5C 129.052,286.888 131.386,285.555 134.5,285.5C 134.5,292.167 134.5,298.833 134.5,305.5C 133.209,305.737 132.209,305.404 131.5,304.5 Z"/></g>
<g><path style="opacity:1" fill="#d6d7d6" d="M 90.5,288.5 C 91.4715,289.399 92.1382,290.566 92.5,292C 91.9233,294.137 91.59,296.304 91.5,298.5C 90.5,298.5 89.5,298.5 88.5,298.5C 88.5567,296.116 88.2234,293.782 87.5,291.5C 87.8684,289.825 88.8684,288.825 90.5,288.5 Z"/></g>
<g><path style="opacity:1" fill="#7e7f7e" d="M 165.5,288.5 C 165.124,295.322 165.957,301.988 168,308.5C 170.156,316.124 172.156,323.79 174,331.5C 175.029,335.889 176.862,339.889 179.5,343.5C 156.96,347.941 143.627,338.941 139.5,316.5C 143.812,318.812 147.145,322.145 149.5,326.5C 150.205,323.339 149.205,320.505 146.5,318C 149.03,316.578 151.697,316.245 154.5,317C 159.306,319.306 162.973,322.806 165.5,327.5C 165.833,326.5 166.167,325.5 166.5,324.5C 165.78,316.662 163.113,309.662 158.5,303.5C 160.059,298.053 162.392,293.053 165.5,288.5 Z"/></g>
<g><path style="opacity:1" fill="#fefffe" d="M 127.5,289.5 C 127.194,292.385 127.527,295.052 128.5,297.5C 129.957,299.628 130.957,301.962 131.5,304.5C 130.957,304.56 130.624,304.893 130.5,305.5C 131.991,306.244 133.491,306.91 135,307.5C 136.141,320.616 141.308,331.782 150.5,341C 160.645,345.648 171.312,347.315 182.5,346C 193.552,343.762 203.885,339.762 213.5,334C 229.636,321.527 244.803,308.027 259,293.5C 259.483,292.552 259.649,291.552 259.5,290.5C 260.675,290.281 261.675,290.614 262.5,291.5C 247.199,315.64 226.533,333.473 200.5,345C 185.907,347.923 171.24,348.256 156.5,346C 150.142,343.157 144.475,339.323 139.5,334.5C 135.864,328.894 133.03,322.894 131,316.5C 129.454,308.984 127.288,301.65 124.5,294.5C 124.863,293.817 125.196,293.15 125.5,292.5C 126.167,291.5 126.833,290.5 127.5,289.5 Z"/></g>
<g><path style="opacity:1" fill="#000000" d="M 127.5,289.5 C 128.833,289.5 130.167,289.5 131.5,289.5C 132.532,294.659 132.532,299.659 131.5,304.5C 130.957,301.962 129.957,299.628 128.5,297.5C 127.527,295.052 127.194,292.385 127.5,289.5 Z"/></g>
<g><path style="opacity:1" fill="#fec90d" d="M 254.5,289.5 C 255.901,289.971 257.234,290.638 258.5,291.5C 253.015,298.422 251.681,297.756 254.5,289.5 Z"/></g>
<g><path style="opacity:1" fill="#4e4f4e" d="M 128.5,297.5 C 128.888,288.267 129.888,288.267 131.5,297.5C 131.333,298.167 131.167,298.833 131,299.5C 130.292,298.619 129.458,297.953 128.5,297.5 Z"/></g>
<g><path style="opacity:1" fill="#7e7e7e" d="M 122.5,295.5 C 124.692,301.409 126.692,307.409 128.5,313.5C 127.758,314.287 126.925,314.953 126,315.5C 124.187,328.483 122.52,341.483 121,354.5C 116.876,368.621 113.709,382.955 111.5,397.5C 111.39,399.374 112.056,400.874 113.5,402C 105.616,408.796 97.2831,409.296 88.5,403.5C 86.0886,401.681 85.922,399.681 88,397.5C 88.1667,394.167 88.3333,390.833 88.5,387.5C 87.7775,379.169 87.6109,370.836 88,362.5C 89.903,359.829 90.7363,356.829 90.5,353.5C 92.475,352.354 93.975,350.687 95,348.5C 94.6667,343.5 94.3333,338.5 94,333.5C 96.7068,330.135 100.04,327.468 104,325.5C 105.044,323.285 105.71,320.952 106,318.5C 107.806,313.287 106.139,309.953 101,308.5C 100.333,305.833 100.333,303.167 101,300.5C 105.9,298.531 110.733,296.365 115.5,294C 118.171,293.167 120.504,293.667 122.5,295.5 Z"/></g>
<g><path style="opacity:1" fill="#7c7c7c" d="M 144.5,341.5 C 148.345,343.923 152.345,346.09 156.5,348C 164.447,349.275 172.447,349.775 180.5,349.5C 179.607,366.481 179.273,383.481 179.5,400.5C 170.206,401.792 160.872,402.792 151.5,403.5C 152.177,391.057 150.511,378.89 146.5,367C 146.879,364.908 147.546,362.908 148.5,361C 146.549,356.495 146.215,351.995 147.5,347.5C 146.441,345.466 145.441,343.466 144.5,341.5 Z"/></g>
<g><path style="opacity:1" fill="#7e7f7e" d="M 180.5,400.5 C 181.497,400.47 182.164,400.97 182.5,402C 181.775,406.758 180.775,411.424 179.5,416C 171.099,419.725 162.433,420.725 153.5,419C 152.5,418.167 151.5,417.333 150.5,416.5C 151.389,412.496 151.389,408.662 150.5,405C 159.5,404 168.5,403 177.5,402C 178.737,401.768 179.737,401.268 180.5,400.5 Z"/></g>
<g><path style="opacity:1" fill="#7e7f7e" d="M 85.5,402.5 C 92.3018,407.859 99.9684,409.359 108.5,407C 110.305,406.028 111.972,404.861 113.5,403.5C 114.585,407.846 114.418,412.179 113,416.5C 108.136,418.842 102.969,420.176 97.5,420.5C 93.293,420.246 89.793,418.579 87,415.5C 86.5812,413.32 86.7479,411.154 87.5,409C 86.5819,406.914 85.9153,404.747 85.5,402.5 Z"/></g>
<g><path style="opacity:1" fill="#222322" d="M 158.5,422.5 C 163.367,421.533 165.534,423.533 165,428.5C 166.41,429.787 167.91,430.954 169.5,432C 168.207,432.49 166.873,432.657 165.5,432.5C 164.923,435.55 166.09,437.55 169,438.5C 169.639,444.109 172.139,448.776 176.5,452.5C 172.34,452.466 168.173,452.8 164,453.5C 154.573,447.933 152.573,440.267 158,430.5C 158.497,427.854 158.664,425.187 158.5,422.5 Z"/></g>
<g><path style="opacity:1" fill="#222322" d="M 176.5,423.5 C 180.159,432.458 185.159,440.792 191.5,448.5C 190.968,450.741 189.635,452.241 187.5,453C 184.183,453.498 180.85,453.665 177.5,453.5C 177.649,452.448 177.483,451.448 177,450.5C 172.753,447.342 170.753,443.342 171,438.5C 169.365,437.274 167.865,435.941 166.5,434.5C 167.689,433.571 169.022,433.238 170.5,433.5C 170.548,430.708 169.215,428.875 166.5,428C 170.27,427.278 173.603,425.778 176.5,423.5 Z"/></g>
<g><path style="opacity:1" fill="#222322" d="M 101.5,424.5 C 102.833,424.5 104.167,424.5 105.5,424.5C 105.334,429.511 105.501,434.511 106,439.5C 106.956,440.579 107.789,441.745 108.5,443C 107.833,443.167 107.167,443.333 106.5,443.5C 101.107,442.654 95.774,442.321 90.5,442.5C 89.9335,439.474 88.9335,436.641 87.5,434C 89.1109,431.79 89.7776,429.29 89.5,426.5C 93.7905,426.802 97.7905,426.136 101.5,424.5 Z"/></g>
<g><path style="opacity:1" fill="#272827" d="M 95.5,444.5 C 104.055,442.82 108.221,446.153 108,454.5C 99.5655,459.783 93.7321,457.617 90.5,448C 90.6448,447.228 90.9781,446.561 91.5,446C 93.0581,445.79 94.3915,445.29 95.5,444.5 Z"/></g>
<g><path style="opacity:1" fill="#272827" d="M 192.5,450.5 C 198.459,451.758 199.959,455.092 197,460.5C 195.833,461.667 194.667,462.833 193.5,464C 183.318,464.606 174.318,461.606 166.5,455C 173.803,455.467 181.137,455.467 188.5,455C 190.751,454.252 192.084,452.752 192.5,450.5 Z"/></g>
</svg>
