<?xml version="1.0" encoding="UTF-8"?>
<!DOCTYPE svg PUBLIC "-//W3C//DTD SVG 1.1//EN" "http://www.w3.org/Graphics/SVG/1.1/DTD/svg11.dtd">
<svg xmlns="http://www.w3.org/2000/svg" version="1.1" width="378px" height="431px" style="shape-rendering:geometricPrecision; text-rendering:geometricPrecision; image-rendering:optimizeQuality; fill-rule:evenodd; clip-rule:evenodd" xmlns:xlink="http://www.w3.org/1999/xlink">
<g><path style="opacity:1" fill="#fefffe" d="M 171.5,22.5 C 180.028,21.8851 188.361,22.7185 196.5,25C 198.049,26.214 199.215,27.714 200,29.5C 200.514,39.3657 199.181,49.0324 196,58.5C 194.589,67.4525 193.756,76.4525 193.5,85.5C 201.842,86.1675 210.176,87.0009 218.5,88C 219.393,94.0973 220.06,100.264 220.5,106.5C 224.846,106.334 229.179,106.501 233.5,107C 235.155,108.444 235.822,110.278 235.5,112.5C 240.196,112.671 244.863,113.171 249.5,114C 252,115.167 253.833,117 255,119.5C 255.968,129.51 256.968,139.51 258,149.5C 261.339,156.516 263.672,163.85 265,171.5C 269.474,175.794 273.474,180.461 277,185.5C 277.333,192.5 277.667,199.5 278,206.5C 280.917,210.666 283.584,214.999 286,219.5C 286.705,230.693 287.538,241.86 288.5,253C 290.188,255.019 292.188,256.686 294.5,258C 304.344,262.675 314.178,267.175 324,271.5C 324.667,276.167 324.667,280.833 324,285.5C 306.381,289.478 289.881,286.478 274.5,276.5C 273.524,279.497 273.69,282.497 275,285.5C 279.5,288.667 284,291.833 288.5,295C 293.065,301.955 298.232,308.455 304,314.5C 306.087,315.794 308.254,316.961 310.5,318C 312.303,321.103 314.47,323.937 317,326.5C 317.667,332.167 317.667,337.833 317,343.5C 316,344.5 315,345.5 314,346.5C 313.333,352.5 312.667,358.5 312,364.5C 305.932,375.27 296.932,378.603 285,374.5C 282.968,371.188 282.135,367.521 282.5,363.5C 282.423,358.703 283.09,354.036 284.5,349.5C 282.473,349.662 280.473,349.495 278.5,349C 275.893,345.636 273.393,342.136 271,338.5C 262.145,331.068 253.479,323.402 245,315.5C 238.747,305.992 234.414,295.659 232,284.5C 228.997,287.991 227.164,291.991 226.5,296.5C 228.624,302.098 230.79,307.765 233,313.5C 236.036,325.423 238.703,337.423 241,349.5C 241.667,357.167 241.667,364.833 241,372.5C 239.786,374.049 238.286,375.215 236.5,376C 225.151,376.473 213.817,376.14 202.5,375C 197.839,374.818 193.339,373.985 189,372.5C 188.333,367.5 188.333,362.5 189,357.5C 190.558,355.232 192.724,354.066 195.5,354C 196.728,351.86 198.395,350.193 200.5,349C 196.054,339.658 193.22,329.824 192,319.5C 185.342,305.468 183.675,290.801 187,275.5C 189.461,263.62 192.628,251.953 196.5,240.5C 192.486,240.666 188.486,240.499 184.5,240C 180.2,236.702 176.2,233.035 172.5,229C 166.126,226.238 159.459,224.905 152.5,225C 147.637,222.934 142.637,221.268 137.5,220C 135.545,219.047 133.878,217.713 132.5,216C 95.2562,204.919 58.5896,192.252 22.5,178C 20.0607,177.226 18.2273,175.726 17,173.5C 16.501,169.179 16.3343,164.846 16.5,160.5C 41.7558,161.384 66.0891,166.551 89.5,176C 115.727,183.64 142.061,190.806 168.5,197.5C 166.426,185.245 165.593,172.911 166,160.5C 168.273,157.196 171.439,155.696 175.5,156C 171.915,149.995 170.248,143.495 170.5,136.5C 168.533,136.739 166.699,136.406 165,135.5C 164.038,129.289 164.538,123.289 166.5,117.5C 165.408,107.521 165.242,97.5208 166,87.5C 166.667,86.8333 167.333,86.1667 168,85.5C 168.541,81.3382 169.041,77.1716 169.5,73C 167.531,57.8824 166.698,42.7157 167,27.5C 168.707,25.9625 170.207,24.2959 171.5,22.5 Z"/></g>
<g><path style="opacity:1" fill="#000000" d="M 174.5,25.5 C 181.042,24.9887 187.376,25.8221 193.5,28C 197.203,31.396 198.369,35.5626 197,40.5C 193.61,52.5813 191.11,64.9146 189.5,77.5C 190.246,81.1317 190.579,84.7983 190.5,88.5C 198.842,89.1675 207.176,90.0009 215.5,91C 216.721,94.4465 216.721,97.9465 215.5,101.5C 218.039,105.392 218.039,109.225 215.5,113C 216.893,114.171 217.727,115.671 218,117.5C 218.045,114.666 218.879,112.166 220.5,110C 223.833,109.333 227.167,109.333 230.5,110C 232.155,111.444 232.822,113.278 232.5,115.5C 247.259,113.1 254.259,119.267 253.5,134C 253.693,137.243 253.027,140.243 251.5,143C 255.989,153.15 259.489,163.65 262,174.5C 266.474,178.794 270.474,183.461 274,188.5C 274.966,194.651 274.466,200.651 272.5,206.5C 276.249,211.662 279.749,216.996 283,222.5C 283.667,225.5 283.667,228.5 283,231.5C 279.589,232.293 276.089,232.793 272.5,233C 276.281,234.78 280.281,235.947 284.5,236.5C 284.648,241.201 284.315,245.868 283.5,250.5C 284.005,253.018 285.005,255.351 286.5,257.5C 296.981,263.74 307.981,268.907 319.5,273C 322.167,276.667 322.167,280.333 319.5,284C 300.689,285.285 283.856,280.119 269,268.5C 269.667,275.161 270.667,281.827 272,288.5C 276.5,291.667 281,294.833 285.5,298C 290.065,304.955 295.232,311.455 301,317.5C 303.087,318.794 305.254,319.961 307.5,321C 309.303,324.103 311.47,326.937 314,329.5C 314.667,333.167 314.667,336.833 314,340.5C 313,341.5 312,342.5 311,343.5C 310.333,349.5 309.667,355.5 309,361.5C 304.962,370.436 298.129,373.936 288.5,372C 287.789,370.745 286.956,369.579 286,368.5C 285.952,361.138 286.452,353.805 287.5,346.5C 285.473,346.662 283.473,346.495 281.5,346C 278.893,342.636 276.393,339.136 274,335.5C 265.145,328.068 256.479,320.402 248,312.5C 240.848,300.716 235.848,288.05 233,274.5C 229.113,280.439 225.613,286.606 222.5,293C 222.47,299.463 224.303,305.296 228,310.5C 234.07,329.762 237.404,349.429 238,369.5C 235.131,372.886 231.464,374.219 227,373.5C 215.416,373.039 203.916,371.873 192.5,370C 190.698,365.517 191.365,361.517 194.5,358C 195.833,357.667 197.167,357.333 198.5,357C 199.833,354.333 201.833,352.333 204.5,351C 200.126,339.871 196.959,328.371 195,316.5C 187.44,301.322 186.44,285.656 192,269.5C 195.037,259.068 198.037,248.735 201,238.5C 200.333,237.833 199.667,237.167 199,236.5C 195.256,237.626 191.423,237.793 187.5,237C 183.2,233.702 179.2,230.035 175.5,226C 169.126,223.238 162.459,221.905 155.5,222C 150.637,219.934 145.637,218.268 140.5,217C 138.545,216.047 136.878,214.713 135.5,213C 98.2562,201.919 61.5896,189.252 25.5,175C 20.2711,172.919 18.2711,169.086 19.5,163.5C 42.665,165.166 64.9983,170.332 86.5,179C 115.104,187.151 143.771,194.984 172.5,202.5C 170.561,189.55 169.394,176.55 169,163.5C 171.969,160.046 175.802,158.546 180.5,159C 180.957,158.586 181.291,158.086 181.5,157.5C 176.066,150.432 173.399,142.432 173.5,133.5C 169.077,134.575 167.077,132.908 167.5,128.5C 167.667,127.167 167.833,125.833 168,124.5C 169.353,123.315 170.52,121.981 171.5,120.5C 170.03,117.692 169.197,114.692 169,111.5C 169.119,106.369 168.952,101.369 168.5,96.5C 168.132,93.3645 168.966,90.6978 171,88.5C 171.146,84.4454 171.98,80.6121 173.5,77C 171.255,61.5645 170.089,46.0645 170,30.5C 171.707,28.9625 173.207,27.2959 174.5,25.5 Z"/></g>
<g><path style="opacity:1" fill="#fefd93" d="M 191.5,44.5 C 189.61,44.2965 188.11,44.9632 187,46.5C 184.199,45.2054 181.366,45.2054 178.5,46.5C 177.378,45.3698 176.044,44.7031 174.5,44.5C 172.509,29.0245 178.342,25.3578 192,33.5C 192.5,34.5 193,35.5 193.5,36.5C 190.338,38.4814 189.671,41.1481 191.5,44.5 Z"/></g>
<g><path style="opacity:1" fill="#3f7167" d="M 174.5,44.5 C 176.044,44.7031 177.378,45.3698 178.5,46.5C 181.366,45.2054 184.199,45.2054 187,46.5C 188.11,44.9632 189.61,44.2965 191.5,44.5C 188.848,55.6952 186.681,67.0286 185,78.5C 184.667,79.1667 184.333,79.8333 184,80.5C 182.301,79.5939 180.467,79.2606 178.5,79.5C 176.448,67.9272 175.114,56.2605 174.5,44.5 Z"/></g>
<g><path style="opacity:1" fill="#3f7167" d="M 179.5,80.5 C 185.346,80.8237 187.346,83.657 185.5,89C 182.24,89.7835 179.073,89.6168 176,88.5C 174.78,84.7069 175.947,82.0402 179.5,80.5 Z"/></g>
<g><path style="opacity:1" fill="#131327" d="M 212.5,95.5 C 212.167,95.5 211.833,95.5 211.5,95.5C 199.386,96.8237 187.386,96.157 175.5,93.5C 174.893,93.6236 174.56,93.9569 174.5,94.5C 174.5,95.1667 174.167,95.5 173.5,95.5C 172.226,94.8106 172.226,93.9772 173.5,93C 175.837,91.6592 178.337,90.8259 181,90.5C 190.844,93.209 200.844,94.209 211,93.5C 211.75,94.1258 212.584,94.6258 213.5,95C 213.272,95.3988 212.938,95.5654 212.5,95.5 Z"/></g>
<g><path style="opacity:1" fill="#faf865" d="M 174.5,94.5 C 177.038,96.3224 177.038,98.3224 174.5,100.5C 174.624,101.107 174.957,101.44 175.5,101.5C 174.729,104.454 174.062,107.454 173.5,110.5C 172.12,110.038 171.453,109.038 171.5,107.5C 171.939,105.896 172.606,104.396 173.5,103C 170.912,100.441 170.912,97.9414 173.5,95.5C 174.167,95.5 174.5,95.1667 174.5,94.5 Z"/></g>
<g><path style="opacity:1" fill="#202544" d="M 211.5,95.5 C 211.833,95.5 212.167,95.5 212.5,95.5C 212.461,96.5832 212.127,97.5832 211.5,98.5C 201.274,102.18 190.94,102.347 180.5,99C 179.5,98 178.5,97 177.5,96C 184.456,96.329 191.456,96.829 198.5,97.5C 203.055,97.3747 207.389,96.708 211.5,95.5 Z"/></g>
<g><path style="opacity:1" fill="#faf865" d="M 176.5,102.5 C 176.5,101.833 176.167,101.5 175.5,101.5C 176.438,98.9546 177.771,98.4546 179.5,100C 178.627,101.045 177.627,101.878 176.5,102.5 Z"/></g>
<g><path style="opacity:1" fill="#141428" d="M 180.5,101.5 C 180.917,100.876 181.584,100.543 182.5,100.5C 191.869,103.076 201.202,103.076 210.5,100.5C 210.198,106.802 206.864,110.136 200.5,110.5C 193.292,108.56 186.625,105.56 180.5,101.5 Z"/></g>
<g><path style="opacity:1" fill="#faf865" d="M 180.5,101.5 C 183.402,103.605 183.068,104.938 179.5,105.5C 179.5,104.833 179.167,104.5 178.5,104.5C 178.427,102.973 179.094,101.973 180.5,101.5 Z"/></g>
<g><path style="opacity:1" fill="#131325" d="M 175.5,101.5 C 176.167,101.5 176.5,101.833 176.5,102.5C 176.833,103.5 177.5,104.167 178.5,104.5C 179.167,104.5 179.5,104.833 179.5,105.5C 179.833,106.5 180.5,107.167 181.5,107.5C 182.5,107.833 183.167,108.5 183.5,109.5C 183.833,110.5 184.5,111.167 185.5,111.5C 186.167,111.5 186.5,111.833 186.5,112.5C 186.973,113.906 187.973,114.573 189.5,114.5C 190.167,114.5 190.5,114.833 190.5,115.5C 191.209,116.404 192.209,116.737 193.5,116.5C 194.263,117.268 195.263,117.768 196.5,118C 192.491,119.121 191.491,121.621 193.5,125.5C 191.417,126.959 189.25,128.292 187,129.5C 186.722,128.584 186.222,127.918 185.5,127.5C 184.833,127.5 184.5,127.167 184.5,126.5C 183.791,125.596 182.791,125.263 181.5,125.5C 181.889,122.7 182.389,120.033 183,117.5C 180.633,114.068 177.966,113.735 175,116.5C 173.872,114.655 173.372,112.655 173.5,110.5C 174.062,107.454 174.729,104.454 175.5,101.5 Z"/></g>
<g><path style="opacity:1" fill="#faf865" d="M 183.5,109.5 C 183.167,108.5 182.5,107.833 181.5,107.5C 182.905,103.905 184.572,103.738 186.5,107C 185.627,108.045 184.627,108.878 183.5,109.5 Z"/></g>
<g><path style="opacity:1" fill="#faf865" d="M 210.5,106.5 C 211.743,105.263 212.743,105.596 213.5,107.5C 213.167,107.833 212.833,108.167 212.5,108.5C 211.818,107.757 211.151,107.091 210.5,106.5 Z"/></g>
<g><path style="opacity:1" fill="#faf865" d="M 186.5,112.5 C 186.5,111.833 186.167,111.5 185.5,111.5C 186.116,107.994 187.783,107.161 190.5,109C 189.295,110.376 187.962,111.542 186.5,112.5 Z"/></g>
<g><path style="opacity:1" fill="#faf865" d="M 209.5,107.5 C 211.81,109.145 211.977,111.145 210,113.5C 208.759,111.452 208.592,109.452 209.5,107.5 Z"/></g>
<g><path style="opacity:1" fill="#faf865" d="M 190.5,115.5 C 190.5,114.833 190.167,114.5 189.5,114.5C 188.683,112.692 189.35,111.192 191.5,110C 192.5,109.333 193.5,109.333 194.5,110C 193.303,112.015 191.97,113.849 190.5,115.5 Z"/></g>
<g><path style="opacity:1" fill="#faf865" d="M 193.5,116.5 C 193.389,115.883 193.056,115.383 192.5,115C 196.593,108.652 197.926,109.152 196.5,116.5C 195.5,116.5 194.5,116.5 193.5,116.5 Z"/></g>
<g><path style="opacity:1" fill="#faf865" d="M 203.5,110.5 C 205.223,112.78 205.889,115.447 205.5,118.5C 204.5,118.5 203.5,118.5 202.5,118.5C 202.279,115.721 202.612,113.054 203.5,110.5 Z"/></g>
<g><path style="opacity:1" fill="#d8d559" d="M 209.5,115.5 C 209.158,116.338 208.492,116.672 207.5,116.5C 206.776,114.782 206.109,112.948 205.5,111C 205.833,110.833 206.167,110.667 206.5,110.5C 208.051,111.8 209.051,113.467 209.5,115.5 Z"/></g>
<g><path style="opacity:1" fill="#faf865" d="M 198.5,111.5 C 199.5,111.5 200.5,111.5 201.5,111.5C 201.5,113.5 201.5,115.5 201.5,117.5C 200.167,117.5 198.833,117.5 197.5,117.5C 197.833,115.5 198.167,113.5 198.5,111.5 Z"/></g>
<g><path style="opacity:1" fill="#e3df04" d="M 223.5,113.5 C 224.873,113.343 226.207,113.51 227.5,114C 228.451,114.718 228.617,115.551 228,116.5C 224.054,118.36 222.554,117.36 223.5,113.5 Z"/></g>
<g><path style="opacity:1" fill="#e3df04" d="M 209.5,115.5 C 214.858,118.293 214.524,120.126 208.5,121C 206.964,119.532 206.63,118.032 207.5,116.5C 208.492,116.672 209.158,116.338 209.5,115.5 Z"/></g>
<g><path style="opacity:1" fill="#fec90d" d="M 177.5,116.5 C 182.41,117.877 182.577,119.544 178,121.5C 174.927,120.252 174.76,118.585 177.5,116.5 Z"/></g>
<g><path style="opacity:1" fill="#4a4f63" d="M 229.5,120.5 C 230.794,121.29 231.961,122.29 233,123.5C 234.108,127.086 234.608,130.753 234.5,134.5C 234.762,135.978 234.429,137.311 233.5,138.5C 231.068,139.715 228.734,140.049 226.5,139.5C 224.996,133.336 222.329,127.67 218.5,122.5C 221.81,118.819 225.477,118.152 229.5,120.5 Z"/></g>
<g><path style="opacity:1" fill="#e3df04" d="M 229.5,120.5 C 231.05,119.28 232.716,119.28 234.5,120.5C 236.964,124.241 238.631,128.241 239.5,132.5C 239.5,134.5 239.5,136.5 239.5,138.5C 238.167,138.5 236.833,138.5 235.5,138.5C 235.768,136.901 235.434,135.568 234.5,134.5C 234.608,130.753 234.108,127.086 233,123.5C 231.961,122.29 230.794,121.29 229.5,120.5 Z"/></g>
<g><path style="opacity:1" fill="#50566c" d="M 239.5,132.5 C 238.631,128.241 236.964,124.241 234.5,120.5C 244.772,118.587 249.772,123.087 249.5,134C 248.933,139.277 246.266,140.943 241.5,139C 240.883,136.723 240.216,134.556 239.5,132.5 Z"/></g>
<g><path style="opacity:1" fill="#e3df04" d="M 198.5,124.5 C 195.5,124.833 194.167,123.5 194.5,120.5C 197.5,120.167 198.833,121.5 198.5,124.5 Z"/></g>
<g><path style="opacity:1" fill="#e3df04" d="M 211.5,122.5 C 213.726,121.244 216.059,121.244 218.5,122.5C 222.329,127.67 224.996,133.336 226.5,139.5C 226.5,140.833 226.5,142.167 226.5,143.5C 225.5,143.5 224.5,143.5 223.5,143.5C 223.784,141.585 223.451,139.919 222.5,138.5C 222.266,130.67 218.599,125.336 211.5,122.5 Z"/></g>
<g><path style="opacity:1" fill="#4d5267" d="M 211.5,122.5 C 218.599,125.336 222.266,130.67 222.5,138.5C 222.719,139.675 222.386,140.675 221.5,141.5C 217.944,142.74 214.444,144.073 211,145.5C 210.823,141.644 210.323,137.977 209.5,134.5C 207.899,131.876 206.232,129.21 204.5,126.5C 206.566,124.801 208.9,123.468 211.5,122.5 Z"/></g>
<g><path style="opacity:1" fill="#fec90d" d="M 177.5,123.5 C 178.5,123.5 179.5,123.5 180.5,123.5C 180.193,126.962 179.193,126.962 177.5,123.5 Z"/></g>
<g><path style="opacity:1" fill="#e3df04" d="M 198.5,124.5 C 200.421,125.363 202.421,126.029 204.5,126.5C 206.232,129.21 207.899,131.876 209.5,134.5C 209.824,138.555 209.491,142.555 208.5,146.5C 207.832,144.031 207.165,141.698 206.5,139.5C 206.592,135.941 205.759,132.608 204,129.5C 202.103,127.984 199.936,127.317 197.5,127.5C 197.389,126.883 197.056,126.383 196.5,126C 197.416,125.722 198.082,125.222 198.5,124.5 Z"/></g>
<g><path style="opacity:1" fill="#fec90d" d="M 177.5,126.5 C 179.926,127.353 180.76,129.019 180,131.5C 178.108,130.383 177.275,128.716 177.5,126.5 Z"/></g>
<g><path style="opacity:1" fill="#eaaba0" d="M 184.5,126.5 C 184.5,127.167 184.833,127.5 185.5,127.5C 182.141,138.456 180.808,138.122 181.5,126.5C 182.5,126.5 183.5,126.5 184.5,126.5 Z"/></g>
<g><path style="opacity:1" fill="#4f556a" d="M 197.5,127.5 C 199.936,127.317 202.103,127.984 204,129.5C 205.759,132.608 206.592,135.941 206.5,139.5C 206.5,142.167 206.5,144.833 206.5,147.5C 202.756,148.721 199.09,149.887 195.5,151C 199.301,145.642 199.468,140.142 196,134.5C 194.255,133.044 192.422,131.711 190.5,130.5C 192.487,128.673 194.821,127.673 197.5,127.5 Z"/></g>
<g><path style="opacity:1" fill="#fec90d" d="M 177.5,131.5 C 179.667,132.646 181,134.479 181.5,137C 180.451,137.492 179.451,137.326 178.5,136.5C 177.548,134.955 177.215,133.288 177.5,131.5 Z"/></g>
<g><path style="opacity:1" fill="#555c73" d="M 186.5,131.5 C 188.14,132.32 189.807,133.153 191.5,134C 185.563,137.367 184.897,141.7 189.5,147C 191.112,147.72 192.612,147.554 194,146.5C 194.662,144.187 195.162,141.854 195.5,139.5C 193.833,139.5 192.167,139.5 190.5,139.5C 190.275,143.056 191.108,143.39 193,140.5C 193.5,140.667 194,140.833 194.5,141C 192.878,148.06 190.711,148.227 188,141.5C 187.974,138.16 189.64,135.827 193,134.5C 197.302,139.131 197.636,144.131 194,149.5C 193,150.167 192,150.833 191,151.5C 184.259,145.78 182.759,139.113 186.5,131.5 Z"/></g>
<g><path style="opacity:1" fill="#fec90d" d="M 177.5,137.5 C 180.574,137.959 182.074,139.626 182,142.5C 179.328,141.839 177.828,140.172 177.5,137.5 Z"/></g>
<g><path style="opacity:1" fill="#b47755" d="M 248.5,156.5 C 248.5,157.5 248.5,158.5 248.5,159.5C 247.596,158.791 247.263,157.791 247.5,156.5C 248.026,150.781 245.692,148.781 240.5,150.5C 239.77,153.712 239.77,156.712 240.5,159.5C 240.158,160.338 239.492,160.672 238.5,160.5C 235.733,156.483 233.066,152.316 230.5,148C 232.318,144.613 231.318,142.613 227.5,142C 233.681,139.729 239.681,140.063 245.5,143C 248.1,146.034 249.767,149.534 250.5,153.5C 250.058,154.739 249.391,155.739 248.5,156.5 Z"/></g>
<g><path style="opacity:1" fill="#fec90d" d="M 179.5,142.5 C 180.708,143.234 182.041,143.567 183.5,143.5C 185.108,147.955 183.941,148.621 180,145.5C 179.517,144.552 179.351,143.552 179.5,142.5 Z"/></g>
<g><path style="opacity:1" fill="#e3df04" d="M 227.5,143.5 C 229.973,143.604 230.639,144.604 229.5,146.5C 227.167,147.167 224.833,147.833 222.5,148.5C 220.646,147.824 220.313,146.824 221.5,145.5C 223.657,144.95 225.657,144.283 227.5,143.5 Z"/></g>
<g><path style="opacity:1" fill="#b67855" d="M 229.5,162.5 C 228.081,163.451 226.415,163.784 224.5,163.5C 221.081,162.565 219.247,160.232 219,156.5C 215.869,154.834 214.369,155.834 214.5,159.5C 214.84,161.512 215.173,163.512 215.5,165.5C 212.213,164.736 209.546,162.903 207.5,160C 204.051,157.941 200.384,156.441 196.5,155.5C 196.865,154.098 197.699,153.098 199,152.5C 205.684,149.829 212.35,147.162 219,144.5C 219.333,145.833 219.667,147.167 220,148.5C 222.237,149.056 224.237,150.056 226,151.5C 227.118,154.855 228.618,158.022 230.5,161C 229.944,161.383 229.611,161.883 229.5,162.5 Z"/></g>
<g><path style="opacity:1" fill="#fec90d" d="M 186.5,152.5 C 184.622,151.792 182.955,150.626 181.5,149C 184.596,148.073 186.93,149.073 188.5,152C 187.906,152.464 187.239,152.631 186.5,152.5 Z"/></g>
<g><path style="opacity:1" fill="#e3df04" d="M 225.5,149.5 C 226.884,148.199 228.384,148.199 230,149.5C 239.369,163.382 241.869,178.049 237.5,193.5C 236.808,192.975 236.308,192.308 236,191.5C 235.761,181.014 234.428,170.681 232,160.5C 229.913,156.678 227.747,153.011 225.5,149.5 Z"/></g>
<g><path style="opacity:1" fill="#000000" d="M 247.5,156.5 C 246.609,154.709 245.609,152.876 244.5,151C 242.414,150.443 241.081,151.276 240.5,153.5C 241.513,155.527 242.513,157.527 243.5,159.5C 242.5,159.5 241.5,159.5 240.5,159.5C 239.77,156.712 239.77,153.712 240.5,150.5C 245.692,148.781 248.026,150.781 247.5,156.5 Z"/></g>
<g><path style="opacity:1" fill="#e3df04" d="M 247.5,156.5 C 247.263,157.791 247.596,158.791 248.5,159.5C 249.674,164.53 251.008,169.53 252.5,174.5C 252,174.833 251.5,175.167 251,175.5C 248.207,172.829 246.874,169.496 247,165.5C 246.059,163.273 244.892,161.273 243.5,159.5C 242.513,157.527 241.513,155.527 240.5,153.5C 241.081,151.276 242.414,150.443 244.5,151C 245.609,152.876 246.609,154.709 247.5,156.5 Z"/></g>
<g><path style="opacity:1" fill="#faf865" d="M 186.5,152.5 C 188.694,153.766 191.028,153.766 193.5,152.5C 194.308,152.808 194.975,153.308 195.5,154C 191.638,154.913 187.972,154.58 184.5,153C 185.094,152.536 185.761,152.369 186.5,152.5 Z"/></g>
<g><path style="opacity:1" fill="#e3df04" d="M 192.5,156.5 C 193.891,161.222 195.225,166.056 196.5,171C 196.167,171.167 195.833,171.333 195.5,171.5C 193.048,168.941 190.048,167.441 186.5,167C 185.313,165.981 184.313,164.814 183.5,163.5C 186.255,160.732 189.255,158.399 192.5,156.5 Z"/></g>
<g><path style="opacity:1" fill="#e3df04" d="M 216.5,156.5 C 221.572,164.364 224.905,173.031 226.5,182.5C 224.61,182.703 223.11,182.037 222,180.5C 219.169,173.834 217.003,166.834 215.5,159.5C 215.685,158.416 216.018,157.416 216.5,156.5 Z"/></g>
<g><path style="opacity:1" fill="#e3df04" d="M 248.5,156.5 C 251.494,156.146 252.494,157.146 251.5,159.5C 250.5,159.5 249.5,159.5 248.5,159.5C 248.5,158.5 248.5,157.5 248.5,156.5 Z"/></g>
<g><path style="opacity:1" fill="#e3df04" d="M 195.5,157.5 C 202.064,157.949 207.397,160.783 211.5,166C 213.256,166.202 214.922,166.702 216.5,167.5C 214.235,168.647 211.902,168.814 209.5,168C 206.958,162.81 202.792,159.977 197,159.5C 195.97,159.164 195.47,158.497 195.5,157.5 Z"/></g>
<g><path style="opacity:1" fill="#e3df04" d="M 240.5,159.5 C 241.5,159.5 242.5,159.5 243.5,159.5C 243.5,160.5 243.5,161.5 243.5,162.5C 242.508,162.328 241.842,162.662 241.5,163.5C 240.5,163.5 239.5,163.5 238.5,163.5C 238.5,162.5 238.5,161.5 238.5,160.5C 239.492,160.672 240.158,160.338 240.5,159.5 Z"/></g>
<g><path style="opacity:1" fill="#000000" d="M 243.5,159.5 C 244.892,161.273 246.059,163.273 247,165.5C 246.874,169.496 248.207,172.829 251,175.5C 251.5,175.167 252,174.833 252.5,174.5C 251.008,169.53 249.674,164.53 248.5,159.5C 249.5,159.5 250.5,159.5 251.5,159.5C 251.082,160.222 250.416,160.722 249.5,161C 251.535,165.971 252.868,171.138 253.5,176.5C 251.712,176.785 250.045,176.452 248.5,175.5C 247.358,170.86 245.691,166.527 243.5,162.5C 243.5,161.5 243.5,160.5 243.5,159.5 Z"/></g>
<g><path style="opacity:1" fill="#b77956" d="M 251.5,159.5 C 260.007,169.848 259.34,179.681 249.5,189C 246.854,189.497 244.187,189.664 241.5,189.5C 241.457,181.946 240.79,174.446 239.5,167C 239.862,165.566 240.528,164.399 241.5,163.5C 241.842,162.662 242.508,162.328 243.5,162.5C 245.691,166.527 247.358,170.86 248.5,175.5C 250.045,176.452 251.712,176.785 253.5,176.5C 252.868,171.138 251.535,165.971 249.5,161C 250.416,160.722 251.082,160.222 251.5,159.5 Z"/></g>
<g><path style="opacity:1" fill="#8a573a" d="M 209.5,171.5 C 212.596,177.784 214.93,184.45 216.5,191.5C 216.547,193.038 215.88,194.038 214.5,194.5C 211.993,195.523 209.827,194.856 208,192.5C 203.038,182.274 198.871,171.774 195.5,161C 202.579,161.241 207.245,164.741 209.5,171.5 Z"/></g>
<g><path style="opacity:1" fill="#e3df04" d="M 229.5,162.5 C 231.796,162.804 232.129,163.804 230.5,165.5C 228.585,165.216 226.919,165.549 225.5,166.5C 222.233,165.969 221.9,164.969 224.5,163.5C 226.415,163.784 228.081,163.451 229.5,162.5 Z"/></g>
<g><path style="opacity:1" fill="#faf865" d="M 175.5,163.5 C 183.835,165.44 188.502,170.773 189.5,179.5C 189.101,181.197 188.601,182.863 188,184.5C 183.956,178.789 178.956,174.122 173,170.5C 172.333,169.167 172.333,167.833 173,166.5C 174.045,165.627 174.878,164.627 175.5,163.5 Z"/></g>
<g><path style="opacity:1" fill="#b67856" d="M 230.5,165.5 C 232.067,166.681 232.901,168.347 233,170.5C 234.28,177.836 234.446,185.17 233.5,192.5C 227.184,195.046 220.851,195.713 214.5,194.5C 215.88,194.038 216.547,193.038 216.5,191.5C 214.93,184.45 212.596,177.784 209.5,171.5C 210.152,170.275 211.319,169.608 213,169.5C 214.167,169.667 215.333,169.833 216.5,170C 217.116,172.179 218.283,174.012 220,175.5C 219.306,181.303 221.806,183.97 227.5,183.5C 227.495,177.951 226.162,172.784 223.5,168C 224.416,167.722 225.082,167.222 225.5,166.5C 226.919,165.549 228.585,165.216 230.5,165.5 Z"/></g>
<g><path style="opacity:1" fill="#c2c3c2" d="M 22.5,167.5 C 41.7034,169.983 60.7034,174.483 79.5,181C 76.3584,182.45 74.6917,184.95 74.5,188.5C 56.7839,182.266 39.4506,175.266 22.5,167.5 Z"/></g>
<g><path style="opacity:1" fill="#1d831a" d="M 188.5,170.5 C 188.897,169.475 189.563,169.308 190.5,170C 193.312,171.977 195.978,174.144 198.5,176.5C 200.727,181.782 203.06,186.949 205.5,192C 201.184,194.412 196.517,195.579 191.5,195.5C 191.38,192.52 190.713,189.687 189.5,187C 192.367,181.219 192.034,175.719 188.5,170.5 Z"/></g>
<g><path style="opacity:1" fill="#1d831a" d="M 183.5,182.5 C 185.744,188.278 187.244,194.278 188,200.5C 191.091,204.368 193.591,208.535 195.5,213C 191.855,213.144 189.521,214.977 188.5,218.5C 190,220.833 191.5,223.167 193,225.5C 193.671,224.748 194.504,224.414 195.5,224.5C 196.823,226.471 198.156,228.471 199.5,230.5C 196.154,232.362 192.821,232.529 189.5,231C 186.667,228.167 183.833,225.333 181,222.5C 179.222,217.722 179.055,212.888 180.5,208C 177.273,197.082 175.44,185.915 175,174.5C 178.333,176.667 181.166,179.334 183.5,182.5 Z"/></g>
<g><path style="opacity:1" fill="#1d831a" d="M 261.5,204.5 C 260.671,200.875 259.838,197.208 259,193.5C 257.648,191.251 255.815,189.584 253.5,188.5C 255.575,185.354 257.408,182.021 259,178.5C 262.904,182.648 266.571,186.981 270,191.5C 271.033,196.894 270.033,201.894 267,206.5C 265.556,204.845 263.722,204.178 261.5,204.5 Z"/></g>
<g><path style="opacity:1" fill="#c2c3c2" d="M 80.5,181.5 C 79.6541,183.845 79.6541,186.512 80.5,189.5C 79.4425,189.906 78.1092,189.906 76.5,189.5C 75.7741,185.693 77.1074,183.026 80.5,181.5 Z"/></g>
<g><path style="opacity:1" fill="#114e0f" d="M 183.5,182.5 C 185.836,184.004 187.669,186.004 189,188.5C 189.681,194.944 192.015,200.611 196,205.5C 201.656,209.068 207.156,212.734 212.5,216.5C 212.333,216.833 212.167,217.167 212,217.5C 207.954,214.381 203.454,212.881 198.5,213C 196.54,216.473 195.54,220.306 195.5,224.5C 194.504,224.414 193.671,224.748 193,225.5C 191.5,223.167 190,220.833 188.5,218.5C 189.521,214.977 191.855,213.144 195.5,213C 193.591,208.535 191.091,204.368 188,200.5C 187.244,194.278 185.744,188.278 183.5,182.5 Z"/></g>
<g><path style="opacity:1" fill="#c2c3c2" d="M 82.5,183.5 C 83.552,183.351 84.552,183.517 85.5,184C 83.8787,186.166 83.0454,188.666 83,191.5C 80.423,188.798 80.2564,186.131 82.5,183.5 Z"/></g>
<g><path style="opacity:1" fill="#fec90d" d="M 86.5,184.5 C 87.2389,184.369 87.9056,184.536 88.5,185C 86.8158,187.786 87.4825,189.62 90.5,190.5C 92.7707,189.561 94.7707,188.228 96.5,186.5C 97.1667,186.667 97.8333,186.833 98.5,187C 95.8807,189.121 93.8807,191.621 92.5,194.5C 89.9433,193.593 87.4433,192.593 85,191.5C 84.1668,188.829 84.6668,186.496 86.5,184.5 Z"/></g>
<g><path style="opacity:1" fill="#c2c3c2" d="M 89.5,186.5 C 90.7082,185.218 92.0416,185.218 93.5,186.5C 92.1916,187.626 90.8583,187.626 89.5,186.5 Z"/></g>
<g><path style="opacity:1" fill="#c2c3c2" d="M 136.5,200.5 C 124.477,196.409 112.144,193.076 99.5,190.5C 98.1474,189.133 98.4807,188.133 100.5,187.5C 113.306,191.048 125.972,194.881 138.5,199C 137.956,199.717 137.289,200.217 136.5,200.5 Z"/></g>
<g><path style="opacity:1" fill="#114e0f" d="M 253.5,188.5 C 255.815,189.584 257.648,191.251 259,193.5C 259.838,197.208 260.671,200.875 261.5,204.5C 257.445,204.824 253.445,204.491 249.5,203.5C 250.212,200.352 250.879,197.186 251.5,194C 251.241,192.739 250.574,191.739 249.5,191C 250.984,190.338 252.317,189.504 253.5,188.5 Z"/></g>
<g><path style="opacity:1" fill="#2ec928" d="M 264.5,189.5 C 267.776,190.122 269.109,192.122 268.5,195.5C 264.932,195.241 263.599,193.241 264.5,189.5 Z"/></g>
<g><path style="opacity:1" fill="#654a27" d="M 99.5,190.5 C 112.144,193.076 124.477,196.409 136.5,200.5C 136.007,202.806 135.674,205.139 135.5,207.5C 122.107,203.702 108.774,199.702 95.5,195.5C 94.7564,192.05 96.0897,190.384 99.5,190.5 Z"/></g>
<g><path style="opacity:1" fill="#fefffe" d="M 244.5,192.5 C 246.609,193.052 247.442,194.386 247,196.5C 245.519,195.529 244.685,194.196 244.5,192.5 Z"/></g>
<g><path style="opacity:1" fill="#114e0f" d="M 240.5,193.5 C 241.773,196.978 243.773,200.145 246.5,203C 245.833,203.667 245.167,203.667 244.5,203C 242.126,200.961 240.126,198.628 238.5,196C 239.381,195.292 240.047,194.458 240.5,193.5 Z"/></g>
<g><path style="opacity:1" fill="#e3df04" d="M 203.5,194.5 C 206.745,194.88 209.745,196.047 212.5,198C 209.833,200 207.167,202 204.5,204C 199.156,205.162 195.156,203.329 192.5,198.5C 192.709,197.914 193.043,197.414 193.5,197C 197.09,196.689 200.423,195.856 203.5,194.5 Z"/></g>
<g><path style="opacity:1" fill="#e3df04" d="M 233.5,194.5 C 236.616,196.787 239.283,199.62 241.5,203C 240.315,204.353 238.981,205.52 237.5,206.5C 234.711,203.209 231.711,200.042 228.5,197C 230.175,196.015 231.842,195.181 233.5,194.5 Z"/></g>
<g><path style="opacity:1" fill="#1d741a" d="M 225.5,216.5 C 224.609,215.89 223.609,215.557 222.5,215.5C 221.539,213.735 221.205,211.735 221.5,209.5C 222.139,208.903 222.472,208.07 222.5,207C 222.613,205.301 221.947,204.134 220.5,203.5C 216.016,205.243 211.683,207.243 207.5,209.5C 206.883,209.611 206.383,209.944 206,210.5C 203.417,209.126 200.917,207.626 198.5,206C 205.017,205.907 210.351,203.407 214.5,198.5C 217.309,197.2 219.976,197.2 222.5,198.5C 223.167,201.167 223.833,201.167 224.5,198.5C 224.369,197.624 224.702,196.957 225.5,196.5C 226.84,197.688 227.507,199.188 227.5,201C 226.262,205.526 226.262,210.026 227.5,214.5C 227.145,215.522 226.478,216.189 225.5,216.5 Z"/></g>
<g><path style="opacity:1" fill="#fec90d" d="M 139.5,198.5 C 140.478,198.811 141.145,199.478 141.5,200.5C 140.184,203.384 139.184,206.384 138.5,209.5C 137.119,209 136.453,208 136.5,206.5C 137.122,203.626 138.122,200.96 139.5,198.5 Z"/></g>
<g><path style="opacity:1" fill="#fec90d" d="M 222.5,198.5 C 223.167,198.5 223.833,198.5 224.5,198.5C 223.833,201.167 223.167,201.167 222.5,198.5 Z"/></g>
<g><path style="opacity:1" fill="#c2c3c2" d="M 144.5,203.5 C 143.909,202.849 143.243,202.182 142.5,201.5C 144.074,200.369 145.741,200.202 147.5,201C 146.922,202.417 145.922,203.25 144.5,203.5 Z"/></g>
<g><path style="opacity:1" fill="#fec90d" d="M 146.5,212.5 C 145.765,209.129 146.265,205.795 148,202.5C 149.011,201.663 150.178,201.33 151.5,201.5C 150.037,205.414 148.371,209.081 146.5,212.5 Z"/></g>
<g><path style="opacity:1" fill="#e3df04" d="M 229.5,201.5 C 235.939,206.267 238.606,212.6 237.5,220.5C 234.618,218.564 231.951,216.398 229.5,214C 228.291,209.837 228.291,205.671 229.5,201.5 Z"/></g>
<g><path style="opacity:1" fill="#c2c3c2" d="M 175.5,211.5 C 168.817,208.742 161.817,206.742 154.5,205.5C 152.372,204.719 152.205,203.719 154,202.5C 162.173,204.919 170.339,207.419 178.5,210C 177.756,211.039 176.756,211.539 175.5,211.5 Z"/></g>
<g><path style="opacity:1" fill="#6a4e29" d="M 144.5,203.5 C 145.459,206.33 145.126,208.996 143.5,211.5C 142.209,211.737 141.209,211.404 140.5,210.5C 140.338,208.473 140.505,206.473 141,204.5C 142.011,203.663 143.178,203.33 144.5,203.5 Z"/></g>
<g><path style="opacity:1" fill="#e3df04" d="M 220.5,203.5 C 221.15,205.435 221.483,207.435 221.5,209.5C 220.527,211.948 220.194,214.615 220.5,217.5C 219.5,217.5 218.5,217.5 217.5,217.5C 217.5,217.167 217.5,216.833 217.5,216.5C 218.468,214.393 218.802,212.059 218.5,209.5C 219.774,208.811 219.774,207.977 218.5,207C 217.251,206.26 216.251,206.427 215.5,207.5C 213.809,208.864 212.142,210.197 210.5,211.5C 208.821,211.715 207.821,211.048 207.5,209.5C 211.683,207.243 216.016,205.243 220.5,203.5 Z"/></g>
<g><path style="opacity:1" fill="#000000" d="M 220.5,203.5 C 221.947,204.134 222.613,205.301 222.5,207C 222.472,208.07 222.139,208.903 221.5,209.5C 221.483,207.435 221.15,205.435 220.5,203.5 Z"/></g>
<g><path style="opacity:1" fill="#1c203c" d="M 242.5,204.5 C 244.84,205.086 247.007,206.086 249,207.5C 252,212.167 255,216.833 258,221.5C 261.884,227.448 261.217,228.448 256,224.5C 253.047,218.233 249.381,212.566 245,207.5C 247.465,212.879 250.632,218.712 254.5,225C 253.576,226.489 252.576,226.656 251.5,225.5C 248.081,220.332 244.915,214.998 242,209.5C 241.333,210.5 241.333,211.5 242,212.5C 244.635,217.298 247.468,221.965 250.5,226.5C 250.154,227.696 249.654,227.696 249,226.5C 245.119,221.237 241.619,215.737 238.5,210C 239.65,208.019 240.984,206.186 242.5,204.5 Z"/></g>
<g><path style="opacity:1" fill="#654a27" d="M 154.5,205.5 C 161.817,206.742 168.817,208.742 175.5,211.5C 177.086,214.202 178.086,217.202 178.5,220.5C 178,220.833 177.5,221.167 177,221.5C 172.286,219.65 167.453,218.316 162.5,217.5C 157.835,216.943 153.502,215.61 149.5,213.5C 149.298,211.011 149.798,208.677 151,206.5C 152.011,205.663 153.178,205.33 154.5,205.5 Z"/></g>
<g><path style="opacity:1" fill="#1e223e" d="M 268.5,210.5 C 267.732,211.263 267.232,212.263 267,213.5C 265.451,210.997 263.784,210.997 262,213.5C 261.085,212.672 260.419,211.672 260,210.5C 260.644,216.31 263.811,217.977 269.5,215.5C 270.496,215.414 271.329,215.748 272,216.5C 274.167,220.167 276.333,223.833 278.5,227.5C 272.935,227.721 267.268,227.721 261.5,227.5C 258.769,220.207 255.102,213.373 250.5,207C 255.5,206.333 260.5,206.333 265.5,207C 266.71,208.039 267.71,209.206 268.5,210.5 Z"/></g>
<g><path style="opacity:1" fill="#9a7a19" d="M 218.5,209.5 C 217.5,209.5 216.5,209.5 215.5,209.5C 215.5,208.833 215.5,208.167 215.5,207.5C 216.251,206.427 217.251,206.26 218.5,207C 219.774,207.977 219.774,208.811 218.5,209.5 Z"/></g>
<g><path style="opacity:1" fill="#1d6d19" d="M 215.5,207.5 C 215.5,208.167 215.5,208.833 215.5,209.5C 217.148,211.456 217.815,213.789 217.5,216.5C 214.531,215.534 212.198,213.867 210.5,211.5C 212.142,210.197 213.809,208.864 215.5,207.5 Z"/></g>
<g><path style="opacity:1" fill="#000000" d="M 215.5,209.5 C 216.5,209.5 217.5,209.5 218.5,209.5C 218.802,212.059 218.468,214.393 217.5,216.5C 217.815,213.789 217.148,211.456 215.5,209.5 Z"/></g>
<g><path style="opacity:1" fill="#000000" d="M 221.5,209.5 C 221.205,211.735 221.539,213.735 222.5,215.5C 222.167,216.5 221.5,217.167 220.5,217.5C 220.194,214.615 220.527,211.948 221.5,209.5 Z"/></g>
<g><path style="opacity:1" fill="#959e75" d="M 140.5,210.5 C 141.209,211.404 142.209,211.737 143.5,211.5C 144.209,212.404 145.209,212.737 146.5,212.5C 147.209,213.404 148.209,213.737 149.5,213.5C 153.502,215.61 157.835,216.943 162.5,217.5C 163.263,218.268 164.263,218.768 165.5,219C 162.833,219.667 160.167,219.667 157.5,219C 152.637,216.934 147.637,215.268 142.5,214C 140.884,213.385 139.551,212.385 138.5,211C 139.094,210.536 139.761,210.369 140.5,210.5 Z"/></g>
<g><path style="opacity:1" fill="#fec90d" d="M 268.5,210.5 C 269.29,211.794 270.29,212.961 271.5,214C 270.584,214.278 269.918,214.778 269.5,215.5C 263.811,217.977 260.644,216.31 260,210.5C 260.419,211.672 261.085,212.672 262,213.5C 263.784,210.997 265.451,210.997 267,213.5C 267.232,212.263 267.732,211.263 268.5,210.5 Z"/></g>
<g><path style="opacity:1" fill="#fec90d" d="M 199.5,213.5 C 203.362,214.428 207.029,215.928 210.5,218C 209.809,219.067 209.309,220.234 209,221.5C 207.5,220 206,218.5 204.5,217C 201.775,216.197 200.109,217.197 199.5,220C 199.988,222.977 201.322,225.477 203.5,227.5C 202.855,228.646 202.022,229.646 201,230.5C 199.368,228.067 197.868,225.567 196.5,223C 196.828,219.509 197.828,216.342 199.5,213.5 Z"/></g>
<g><path style="opacity:1" fill="#000000" d="M 263.5,213.5 C 265.337,213.639 265.67,214.306 264.5,215.5C 263.702,215.043 263.369,214.376 263.5,213.5 Z"/></g>
<g><path style="opacity:1" fill="#fec90d" d="M 222.5,215.5 C 223.609,215.557 224.609,215.89 225.5,216.5C 220.874,221.134 216.541,226.134 212.5,231.5C 211.325,231.719 210.325,231.386 209.5,230.5C 210.857,228.814 212.19,227.148 213.5,225.5C 214.338,225.158 214.672,224.492 214.5,223.5C 216.167,222.5 217.5,221.167 218.5,219.5C 219.5,219.167 220.167,218.5 220.5,217.5C 221.5,217.167 222.167,216.5 222.5,215.5 Z"/></g>
<g><path style="opacity:1" fill="#114e0f" d="M 201.5,217.5 C 207.056,219.13 208.222,222.13 205,226.5C 201.709,224.105 200.542,221.105 201.5,217.5 Z"/></g>
<g><path style="opacity:1" fill="#2daf27" d="M 217.5,217.5 C 217.833,218.167 218.167,218.833 218.5,219.5C 217.5,221.167 216.167,222.5 214.5,223.5C 209.898,222.177 209.564,220.343 213.5,218C 214.793,217.51 216.127,217.343 217.5,217.5 Z"/></g>
<g><path style="opacity:1" fill="#000000" d="M 217.5,217.5 C 218.5,217.5 219.5,217.5 220.5,217.5C 220.167,218.5 219.5,219.167 218.5,219.5C 218.167,218.833 217.833,218.167 217.5,217.5 Z"/></g>
<g><path style="opacity:1" fill="#e3df04" d="M 227.5,217.5 C 231.217,218.527 234.55,220.361 237.5,223C 236.624,224.586 235.624,226.086 234.5,227.5C 231.36,225.527 228.36,223.36 225.5,221C 226.823,220.184 227.489,219.017 227.5,217.5 Z"/></g>
<g><path style="opacity:1" fill="#114910" d="M 258.5,232.5 C 258.573,234.027 257.906,235.027 256.5,235.5C 250.923,232.457 245.757,228.79 241,224.5C 240.333,222.5 240.333,220.5 241,218.5C 243.112,222.278 245.612,225.778 248.5,229C 251.776,230.692 255.109,231.859 258.5,232.5 Z"/></g>
<g><path style="opacity:1" fill="#2dbf28" d="M 213.5,225.5 C 212.19,227.148 210.857,228.814 209.5,230.5C 210.325,231.386 211.325,231.719 212.5,231.5C 218.013,233.684 222.679,237.017 226.5,241.5C 225.195,244.638 223.029,246.971 220,248.5C 217.597,244.365 215.763,240.032 214.5,235.5C 209.725,236.805 205.392,235.805 201.5,232.5C 204.213,229.16 206.88,225.826 209.5,222.5C 210.901,223.521 212.235,224.521 213.5,225.5 Z"/></g>
<g><path style="opacity:1" fill="#e3df04" d="M 221.5,222.5 C 222.675,222.281 223.675,222.614 224.5,223.5C 222.573,226.35 220.406,229.017 218,231.5C 217.5,231 217,230.5 216.5,230C 218.415,227.6 220.081,225.1 221.5,222.5 Z"/></g>
<g><path style="opacity:1" fill="#e3df04" d="M 225.5,224.5 C 228.836,225.332 231.503,227.166 233.5,230C 231.8,233.232 229.966,236.399 228,239.5C 225.515,236.686 222.681,234.186 219.5,232C 222.094,229.914 224.094,227.414 225.5,224.5 Z"/></g>
<g><path style="opacity:1" fill="#202544" d="M 238.5,225.5 C 252.814,235.981 266.98,246.648 281,257.5C 281.667,258.167 281.667,258.833 281,259.5C 266.086,249.625 250.919,240.125 235.5,231C 236.639,229.22 237.639,227.386 238.5,225.5 Z"/></g>
<g><path style="opacity:1" fill="#e3df04" d="M 262.5,232.5 C 261.026,233.436 260.026,234.77 259.5,236.5C 258.105,237.815 257.105,237.481 256.5,235.5C 257.906,235.027 258.573,234.027 258.5,232.5C 259.961,231.314 261.295,231.314 262.5,232.5 Z"/></g>
<g><path style="opacity:1" fill="#1d731a" d="M 262.5,232.5 C 263.415,235.086 265.082,237.086 267.5,238.5C 267.5,238.833 267.5,239.167 267.5,239.5C 265.143,239.663 262.81,239.497 260.5,239C 259.748,238.329 259.414,237.496 259.5,236.5C 260.026,234.77 261.026,233.436 262.5,232.5 Z"/></g>
<g><path style="opacity:1" fill="#202544" d="M 233.5,233.5 C 253.498,244.64 273.165,256.473 292.5,269C 291.107,270.171 290.273,271.671 290,273.5C 269.918,262.546 250.418,250.713 231.5,238C 232.582,236.67 233.249,235.17 233.5,233.5 Z"/></g>
<g><path style="opacity:1" fill="#e3df04" d="M 214.5,243.5 C 209.145,255.052 204.645,267.052 201,279.5C 198.007,283.051 196.84,287.218 197.5,292C 198.45,301.846 201.616,311.013 207,319.5C 210.768,329.137 213.935,338.97 216.5,349C 215.968,351.02 214.635,351.853 212.5,351.5C 212.656,347.418 212.156,343.418 211,339.5C 206.299,326.602 201.466,313.769 196.5,301C 195.13,294.801 195.297,288.635 197,282.5C 201.742,268.106 206.576,253.772 211.5,239.5C 212.268,238.737 212.768,237.737 213,236.5C 213.977,238.74 214.477,241.073 214.5,243.5 Z"/></g>
<g><path style="opacity:1" fill="#1d831a" d="M 211.5,239.5 C 203.046,257.635 197.213,276.635 194,296.5C 193.333,292.5 193.333,288.5 194,284.5C 197.933,268.536 202.766,252.869 208.5,237.5C 210.179,237.285 211.179,237.952 211.5,239.5 Z"/></g>
<g><path style="opacity:1" fill="#73542b" d="M 267.5,239.5 C 267.5,239.167 267.5,238.833 267.5,238.5C 267.735,237.903 268.235,237.57 269,237.5C 272.145,238.411 275.312,239.245 278.5,240C 279.022,240.561 279.355,241.228 279.5,242C 278.667,245.498 277.834,248.998 277,252.5C 272.454,248.286 267.621,244.453 262.5,241C 264.382,240.802 266.048,240.302 267.5,239.5 Z"/></g>
<g><path style="opacity:1" fill="#1d831a" d="M 227.5,269.5 C 225.05,270.777 222.717,272.277 220.5,274C 213.961,282.04 206.628,289.206 198.5,295.5C 198.5,294.167 198.5,292.833 198.5,291.5C 205.399,287.101 210.732,281.268 214.5,274C 214.333,273.5 214.167,273 214,272.5C 208.965,277.703 203.798,282.703 198.5,287.5C 204.404,273.13 209.737,258.463 214.5,243.5C 216.541,245.197 218.374,247.197 220,249.5C 224.305,247.15 227.972,244.15 231,240.5C 236.405,243.453 241.572,246.787 246.5,250.5C 241.2,257.8 234.867,264.133 227.5,269.5 Z"/></g>
<g><path style="opacity:1" fill="#114e0f" d="M 239.5,265.5 C 238.833,265.833 238.167,266.167 237.5,266.5C 236.475,266.103 236.308,265.437 237,264.5C 241.368,260.467 245.368,256.134 249,251.5C 250.23,252.275 250.563,253.275 250,254.5C 245.6,257.398 242.1,261.065 239.5,265.5 Z"/></g>
<g><path style="opacity:1" fill="#1d831a" d="M 264.5,287.5 C 260.91,288.628 257.577,290.295 254.5,292.5C 254.167,292.167 253.833,291.833 253.5,291.5C 254.747,289.677 255.414,287.677 255.5,285.5C 252.487,285.107 249.82,285.774 247.5,287.5C 246.034,286.653 245.2,285.32 245,283.5C 243.578,277.645 242.078,271.812 240.5,266C 243.677,261.323 247.677,257.49 252.5,254.5C 256.067,255.907 259.234,257.907 262,260.5C 262.741,267.426 263.908,274.259 265.5,281C 264.713,283.099 264.38,285.266 264.5,287.5 Z"/></g>
<g><path style="opacity:1" fill="#1d831a" d="M 239.5,265.5 C 241.369,278.608 245.536,290.941 252,302.5C 263.167,312.333 274.333,322.167 285.5,332C 284.671,333.816 283.837,335.649 283,337.5C 279.917,332.412 276.083,327.912 271.5,324C 265.041,319.21 258.874,314.043 253,308.5C 245.167,295.504 240.001,281.504 237.5,266.5C 238.167,266.167 238.833,265.833 239.5,265.5 Z"/></g>
<g><path style="opacity:1" fill="#115110" d="M 227.5,269.5 C 223.468,277.895 219.135,286.228 214.5,294.5C 215.48,295.981 216.647,297.315 218,298.5C 218.692,299.437 218.525,300.103 217.5,300.5C 211.643,298.194 205.643,297.861 199.5,299.5C 198.566,298.432 198.232,297.099 198.5,295.5C 206.628,289.206 213.961,282.04 220.5,274C 222.717,272.277 225.05,270.777 227.5,269.5 Z"/></g>
<g><path style="opacity:1" fill="#fec90d" d="M 294.5,269.5 C 300.599,272.049 306.599,274.882 312.5,278C 311.975,278.692 311.308,279.192 310.5,279.5C 304.721,278.472 299.055,276.972 293.5,275C 292.243,272.924 292.576,271.09 294.5,269.5 Z"/></g>
<g><path style="opacity:1" fill="#114e0f" d="M 198.5,291.5 C 198.5,290.167 198.5,288.833 198.5,287.5C 203.798,282.703 208.965,277.703 214,272.5C 214.167,273 214.333,273.5 214.5,274C 210.732,281.268 205.399,287.101 198.5,291.5 Z"/></g>
<g><path style="opacity:1" fill="#fec90d" d="M 313.5,277.5 C 316.674,277.952 317.007,278.952 314.5,280.5C 313.614,279.675 313.281,278.675 313.5,277.5 Z"/></g>
<g><path style="opacity:1" fill="#114e0f" d="M 264.5,287.5 C 265.953,288.849 266.953,290.515 267.5,292.5C 266.833,292.5 266.167,292.5 265.5,292.5C 260.424,294.053 256.257,297.053 253,301.5C 250.306,297.121 248.473,292.454 247.5,287.5C 249.82,285.774 252.487,285.107 255.5,285.5C 255.414,287.677 254.747,289.677 253.5,291.5C 253.833,291.833 254.167,292.167 254.5,292.5C 257.577,290.295 260.91,288.628 264.5,287.5 Z"/></g>
<g><path style="opacity:1" fill="#1d831a" d="M 265.5,292.5 C 266.167,292.5 266.833,292.5 267.5,292.5C 271.92,296.223 276.586,299.723 281.5,303C 285.211,309.403 289.878,315.07 295.5,320C 291.021,321.979 287.688,325.146 285.5,329.5C 275.186,321.021 265.02,312.354 255,303.5C 257.21,298.786 260.71,295.119 265.5,292.5 Z"/></g>
<g><path style="opacity:1" fill="#1d831a" d="M 217.5,300.5 C 217.34,302.199 217.506,303.866 218,305.5C 221.137,310.108 223.47,315.108 225,320.5C 227.413,329.649 229.579,338.816 231.5,348C 227.709,349.018 223.875,349.851 220,350.5C 218.523,349.556 217.523,348.223 217,346.5C 212.641,330.252 206.807,314.585 199.5,299.5C 205.643,297.861 211.643,298.194 217.5,300.5 Z"/></g>
<g><path style="opacity:1" fill="#1d831a" d="M 199.5,314.5 C 203.255,322.902 206.755,331.568 210,340.5C 211.124,343.442 211.458,346.442 211,349.5C 206.282,338.178 202.448,326.511 199.5,314.5 Z"/></g>
<g><path style="opacity:1" fill="#21273e" d="M 289.5,340.5 C 288.326,339.486 287.66,338.153 287.5,336.5C 286.477,329.227 289.477,324.56 296.5,322.5C 299.079,323.706 301.579,325.039 304,326.5C 304.667,327.167 304.667,327.833 304,328.5C 298.439,331.062 294.606,335.228 292.5,341C 291.423,341.47 290.423,341.303 289.5,340.5 Z"/></g>
<g><path style="opacity:1" fill="#131624" d="M 304.5,329.5 C 306.683,330.85 308.35,332.684 309.5,335C 307.617,337.378 305.95,339.878 304.5,342.5C 307.552,353.914 303.885,362.248 293.5,367.5C 292.5,366.167 291.5,364.833 290.5,363.5C 292.16,356.976 292.993,350.309 293,343.5C 294.901,337.112 298.734,332.445 304.5,329.5 Z"/></g>
<g><path style="opacity:1" fill="#114e0f" d="M 287.5,336.5 C 287.66,338.153 288.326,339.486 289.5,340.5C 287.956,341.914 286.289,342.247 284.5,341.5C 284.784,339.241 285.784,337.574 287.5,336.5 Z"/></g>
<g><path style="opacity:1" fill="#222840" d="M 229.5,350.5 C 231.447,352.216 232.781,354.383 233.5,357C 224.325,363.807 214.992,364.14 205.5,358C 207.5,356.667 209.5,355.333 211.5,354C 217.657,352.922 223.657,351.755 229.5,350.5 Z"/></g>
<g><path style="opacity:1" fill="#131624" d="M 204.5,360.5 C 213.774,365.791 223.107,365.791 232.5,360.5C 234.163,365.363 232.329,368.03 227,368.5C 216.768,367.863 206.601,366.696 196.5,365C 199.062,363.207 201.728,361.707 204.5,360.5 Z"/></g>
</svg>
