<?xml version="1.0" encoding="UTF-8"?>
<!DOCTYPE svg PUBLIC "-//W3C//DTD SVG 1.1//EN" "http://www.w3.org/Graphics/SVG/1.1/DTD/svg11.dtd">
<svg xmlns="http://www.w3.org/2000/svg" version="1.1" width="233px" height="495px" style="shape-rendering:geometricPrecision; text-rendering:geometricPrecision; image-rendering:optimizeQuality; fill-rule:evenodd; clip-rule:evenodd" xmlns:xlink="http://www.w3.org/1999/xlink">
<g><path style="opacity:1" fill="#fefffe" d="M 146.5,19.5 C 151.88,19.3243 157.213,19.6576 162.5,20.5C 162.666,24.8461 162.499,29.1794 162,33.5C 144.563,85.8084 127.563,138.142 111,190.5C 114.509,182.909 120.342,180.409 128.5,183C 134.167,188.319 136.001,194.819 134,202.5C 131.333,206.5 128.667,210.5 126,214.5C 125.801,221.885 125.135,229.218 124,236.5C 123.053,240.796 120.553,243.463 116.5,244.5C 116.784,247.777 116.451,250.943 115.5,254C 120.453,254.995 125.453,255.662 130.5,256C 131.833,256.667 133.167,257.333 134.5,258C 139.376,268.54 146.709,276.873 156.5,283C 160.846,286.867 164.346,291.367 167,296.5C 167.839,301.921 167.506,307.254 166,312.5C 162.201,317.301 158.034,321.801 153.5,326C 155.317,327.8 156.484,329.966 157,332.5C 157.333,337.833 157.667,343.167 158,348.5C 161.248,354.664 164.748,360.664 168.5,366.5C 172.106,368.603 175.273,371.269 178,374.5C 178.848,381.899 178.515,389.233 177,396.5C 175.556,398.155 173.722,398.822 171.5,398.5C 171.351,399.552 171.517,400.552 172,401.5C 177.364,408.191 182.697,414.858 188,421.5C 190.333,422.833 192.667,424.167 195,425.5C 195.667,430.5 195.667,435.5 195,440.5C 192.174,442.34 189.007,443.006 185.5,442.5C 185.046,445.14 183.879,447.473 182,449.5C 179.333,451.5 176.667,453.5 174,455.5C 171.807,463.026 166.974,467.86 159.5,470C 154.113,470.784 148.78,470.618 143.5,469.5C 142.738,470.628 142.071,471.795 141.5,473C 130.608,479.302 118.942,482.302 106.5,482C 102.682,482.177 99.8491,480.677 98,477.5C 97.3333,473.167 97.3333,468.833 98,464.5C 101.297,462.205 104.297,459.538 107,456.5C 107.875,455.127 108.375,453.627 108.5,452C 104.863,437.755 100.029,423.922 94,410.5C 93.3333,405.167 93.3333,399.833 94,394.5C 98.584,385.927 99.9173,376.927 98,367.5C 95.417,364.003 93.0836,360.336 91,356.5C 90.502,353.518 90.3354,350.518 90.5,347.5C 89.325,347.719 88.325,347.386 87.5,346.5C 85.3336,342.515 83.0002,338.681 80.5,335C 74.904,333.025 69.404,330.858 64,328.5C 51.469,365.76 39.1356,403.093 27,440.5C 21.6667,441.833 16.3333,441.833 11,440.5C 10.3333,436.833 10.3333,433.167 11,429.5C 24.6411,386.91 38.4745,344.41 52.5,302C 50.9025,294.395 51.4025,286.895 54,279.5C 55.894,276.156 58.7273,274.822 62.5,275.5C 64.9569,266.127 67.6236,256.793 70.5,247.5C 69.673,244.217 69.3396,240.884 69.5,237.5C 67.5,237.5 65.5,237.5 63.5,237.5C 61.4711,220.418 66.1378,205.585 77.5,193C 81.4401,190.409 85.7735,188.909 90.5,188.5C 109.167,132.167 127.833,75.8333 146.5,19.5 Z M 140.5,441.5 C 144.149,442.313 146.482,444.48 147.5,448C 144.643,452.731 142.476,452.564 141,447.5C 140.505,445.527 140.338,443.527 140.5,441.5 Z"/></g>
<g><path style="opacity:1" fill="#030204" d="M 148.5,21.5 C 152.548,21.3946 156.548,21.7279 160.5,22.5C 160.665,25.5184 160.498,28.5184 160,31.5C 142.599,84.5367 125.099,137.537 107.5,190.5C 108.549,192.112 110.049,193.112 112,193.5C 113.848,190.155 116.348,187.322 119.5,185C 121.833,184.333 124.167,184.333 126.5,185C 132.401,189.728 133.901,195.561 131,202.5C 124.109,210.078 121.442,219.078 123,229.5C 122.707,234.39 120.874,238.557 117.5,242C 115.744,242.202 114.078,242.702 112.5,243.5C 113.896,244.852 114.563,246.519 114.5,248.5C 113.196,251.013 112.196,253.68 111.5,256.5C 118.749,256.488 125.749,257.655 132.5,260C 137.376,270.54 144.709,278.873 154.5,285C 158.846,288.867 162.346,293.367 165,298.5C 165.937,303.403 165.27,308.07 163,312.5C 158.801,317.034 154.301,321.201 149.5,325C 152.164,327.669 153.998,330.836 155,334.5C 155.333,339.833 155.667,345.167 156,350.5C 159.248,356.664 162.748,362.664 166.5,368.5C 170.106,370.603 173.273,373.269 176,376.5C 176.804,382.569 176.471,388.569 175,394.5C 172.149,396.345 168.982,397.511 165.5,398C 172.704,406.265 179.538,414.765 186,423.5C 188.333,424.833 190.667,426.167 193,427.5C 193.667,431.167 193.667,434.833 193,438.5C 190.174,440.34 187.007,441.006 183.5,440.5C 183.046,443.14 181.879,445.473 180,447.5C 177.333,449.5 174.667,451.5 172,453.5C 166.784,465.692 157.617,470.359 144.5,467.5C 143.353,467.182 142.519,466.516 142,465.5C 141.163,467.351 140.329,469.184 139.5,471C 129.798,476.459 119.465,479.459 108.5,480C 100.3,479.128 97.4663,474.628 100,466.5C 103.297,464.205 106.297,461.538 109,458.5C 110.789,453.22 110.789,447.886 109,442.5C 105.256,430.932 100.922,419.599 96,408.5C 94.7522,401.785 95.7522,395.452 99,389.5C 101.768,381.591 102.102,373.591 100,365.5C 97.417,362.003 95.0836,358.336 93,354.5C 92.502,351.518 92.3354,348.518 92.5,345.5C 91.325,345.719 90.325,345.386 89.5,344.5C 87.3336,340.515 85.0002,336.681 82.5,333C 77.1667,331 71.8333,329 66.5,327C 65.2283,325.693 64.2283,324.193 63.5,322.5C 50.3733,361.047 37.54,399.713 25,438.5C 21,439.833 17,439.833 13,438.5C 12.3333,436.167 12.3333,433.833 13,431.5C 26.9745,387.91 41.1411,344.41 55.5,301C 55,300.5 54.5,300 54,299.5C 52.1007,291.268 53.934,284.101 59.5,278C 61.1341,277.506 62.8008,277.34 64.5,277.5C 67.3313,266.507 70.6646,255.673 74.5,245C 70.9154,242.472 70.582,239.472 73.5,236C 70.854,235.503 68.1873,235.336 65.5,235.5C 64.1236,219.806 68.7903,206.306 79.5,195C 83.4401,192.409 87.7735,190.909 92.5,190.5C 111.167,134.167 129.833,77.8333 148.5,21.5 Z M 140.5,441.5 C 140.338,443.527 140.505,445.527 141,447.5C 142.476,452.564 144.643,452.731 147.5,448C 146.482,444.48 144.149,442.313 140.5,441.5 Z"/></g>
<g><path style="opacity:1" fill="#b87a56" d="M 152.5,25.5 C 154.09,25.6282 155.423,26.2949 156.5,27.5C 138.285,82.9771 119.785,138.31 101,193.5C 99.4905,192.91 97.9905,192.244 96.5,191.5C 115.372,136.217 134.039,80.8841 152.5,25.5 Z"/></g>
<g><path style="opacity:1" fill="#e0e1e0" d="M 122.5,189.5 C 124.636,191.812 126.636,194.312 128.5,197C 122.903,205.925 116.57,214.259 109.5,222C 107.975,223.009 106.308,223.509 104.5,223.5C 108.955,211.251 114.955,199.918 122.5,189.5 Z"/></g>
<g><path style="opacity:1" fill="#1d1e1d" d="M 92.5,195.5 C 99.7686,195.318 106.435,197.151 112.5,201C 110.873,203.754 109.373,206.588 108,209.5C 107.667,208.833 107.333,208.167 107,207.5C 106.581,208.672 105.915,209.672 105,210.5C 104.667,207.833 104.333,205.167 104,202.5C 102.983,204.376 102.149,206.376 101.5,208.5C 100.851,206.376 100.017,204.376 99,202.5C 98.0797,205.101 97.413,207.768 97,210.5C 95.8338,207.497 94.1672,204.83 92,202.5C 92.5321,205.114 92.8654,207.78 93,210.5C 90.3333,208.5 87.6667,206.5 85,204.5C 85.4456,206.883 86.6123,209.05 88.5,211C 86.0392,210.592 83.7058,209.926 81.5,209C 83.8706,211.706 86.5372,214.039 89.5,216C 86.189,215.785 82.8557,215.785 79.5,216C 82.2019,217.34 84.8685,218.673 87.5,220C 85.3382,221.645 84.0049,223.812 83.5,226.5C 77.9884,228.823 73.9884,227.323 71.5,222C 73.7826,213.721 77.7826,206.387 83.5,200C 86.4375,198.199 89.4375,196.699 92.5,195.5 Z"/></g>
<g><path style="opacity:1" fill="#4f140e" d="M 96.5,213.5 C 99.1194,213.232 101.619,213.565 104,214.5C 103.508,217.85 102.675,221.183 101.5,224.5C 104.758,225.462 107.925,225.795 111,225.5C 111.52,227.289 111.187,228.956 110,230.5C 103.418,226.793 96.9177,222.959 90.5,219C 91.7711,216.223 93.7711,214.389 96.5,213.5 Z"/></g>
<g><path style="opacity:1" fill="#fef200" d="M 90.5,221.5 C 90.5,223.167 90.5,224.833 90.5,226.5C 87.9521,224.704 87.9521,223.038 90.5,221.5 Z"/></g>
<g><path style="opacity:1" fill="#00a1e8" d="M 90.5,221.5 C 92.2303,222.026 93.5637,223.026 94.5,224.5C 94.5,225.833 94.5,227.167 94.5,228.5C 93.1667,227.833 91.8333,227.167 90.5,226.5C 90.5,224.833 90.5,223.167 90.5,221.5 Z"/></g>
<g><path style="opacity:1" fill="#fef200" d="M 94.5,224.5 C 95.4916,224.328 96.1583,224.662 96.5,225.5C 96.5,226.833 96.5,228.167 96.5,229.5C 95.8333,229.167 95.1667,228.833 94.5,228.5C 94.5,227.167 94.5,225.833 94.5,224.5 Z"/></g>
<g><path style="opacity:1" fill="#00a1e8" d="M 96.5,225.5 C 97.8333,226.167 99.1667,226.833 100.5,227.5C 100.5,228.5 100.5,229.5 100.5,230.5C 99.0413,230.567 97.7079,230.234 96.5,229.5C 96.5,228.167 96.5,226.833 96.5,225.5 Z"/></g>
<g><path style="opacity:1" fill="#fef200" d="M 100.5,227.5 C 101.167,227.833 101.833,228.167 102.5,228.5C 102.5,229.833 102.5,231.167 102.5,232.5C 101.833,231.833 101.167,231.167 100.5,230.5C 100.5,229.5 100.5,228.5 100.5,227.5 Z"/></g>
<g><path style="opacity:1" fill="#00a1e8" d="M 102.5,228.5 C 103.71,228.932 104.71,229.599 105.5,230.5C 105.5,233.5 105.5,236.5 105.5,239.5C 103.166,237.824 102.166,235.491 102.5,232.5C 102.5,231.167 102.5,229.833 102.5,228.5 Z"/></g>
<g><path style="opacity:1" fill="#42120d" d="M 93.5,234.5 C 93.3404,236.153 92.6737,237.486 91.5,238.5C 91.5,237.5 91.5,236.5 91.5,235.5C 88.6275,235.198 85.9608,234.531 83.5,233.5C 79.3528,232.675 75.0195,232.175 70.5,232C 78.7239,228.089 86.3906,228.922 93.5,234.5 Z"/></g>
<g><path style="opacity:1" fill="#fef200" d="M 105.5,230.5 C 106.167,230.833 106.833,231.167 107.5,231.5C 107.5,234.833 107.5,238.167 107.5,241.5C 106.167,241.5 105.5,240.833 105.5,239.5C 105.5,236.5 105.5,233.5 105.5,230.5 Z"/></g>
<g><path style="opacity:1" fill="#00a1e8" d="M 107.5,231.5 C 108.87,231.856 109.87,232.69 110.5,234C 110.018,236.819 109.018,239.319 107.5,241.5C 107.5,238.167 107.5,234.833 107.5,231.5 Z"/></g>
<g><path style="opacity:1" fill="#6d0b12" d="M 99.5,237.5 C 96.985,242.543 93.985,247.21 90.5,251.5C 89.1455,253.521 87.4788,255.188 85.5,256.5C 84.6236,256.631 83.9569,256.298 83.5,255.5C 84.1272,254.583 84.4606,253.583 84.5,252.5C 86.3255,247.516 88.6589,242.849 91.5,238.5C 92.6737,237.486 93.3404,236.153 93.5,234.5C 95.4835,234.617 97.1502,233.95 98.5,232.5C 100.704,233.782 101.038,235.449 99.5,237.5 Z"/></g>
<g><path style="opacity:1" fill="#e8af75" d="M 83.5,233.5 C 85.9608,234.531 88.6275,235.198 91.5,235.5C 91.5,236.5 91.5,237.5 91.5,238.5C 88.6589,242.849 86.3255,247.516 84.5,252.5C 82.283,253.369 79.9496,253.702 77.5,253.5C 78.3331,251.248 78.3331,249.081 77.5,247C 81.449,246.193 81.449,245.693 77.5,245.5C 77.33,244.178 77.6634,243.011 78.5,242C 77.062,241.781 75.7287,241.281 74.5,240.5C 75.5,239.167 76.5,237.833 77.5,236.5C 76.1207,235.137 76.2874,234.137 78,233.5C 78.9503,234.022 79.7836,234.689 80.5,235.5C 81.5178,234.807 82.5178,234.141 83.5,233.5 Z"/></g>
<g><path style="opacity:1" fill="#ca9663" d="M 99.5,237.5 C 100.496,237.414 101.329,237.748 102,238.5C 102.497,240.81 102.663,243.143 102.5,245.5C 99.053,247.397 95.7196,249.563 92.5,252C 91.5632,252.692 90.8966,252.525 90.5,251.5C 93.985,247.21 96.985,242.543 99.5,237.5 Z"/></g>
<g><path style="opacity:1" fill="#3f3f66" d="M 104.5,247.5 C 100.426,252.376 95.4264,256.043 89.5,258.5C 89.0617,260.638 88.8951,262.972 89,265.5C 87.5,263.167 86,260.833 84.5,258.5C 84.8627,257.817 85.1961,257.15 85.5,256.5C 87.4788,255.188 89.1455,253.521 90.5,251.5C 90.8966,252.525 91.5632,252.692 92.5,252C 95.7196,249.563 99.053,247.397 102.5,245.5C 105.441,242.871 106.107,243.538 104.5,247.5 Z"/></g>
<g><path style="opacity:1" fill="#90281d" d="M 108.5,248.5 C 103.217,253.482 97.217,257.482 90.5,260.5C 89.6618,260.158 89.3284,259.492 89.5,258.5C 95.4264,256.043 100.426,252.376 104.5,247.5C 105.931,247.119 106.764,246.119 107,244.5C 108.167,245.667 109.333,246.833 110.5,248C 109.906,248.464 109.239,248.631 108.5,248.5 Z"/></g>
<g><path style="opacity:1" fill="#fec90d" d="M 108.5,248.5 C 107.833,249.5 107.167,250.5 106.5,251.5C 102.308,255.087 97.975,258.42 93.5,261.5C 92.2031,263.693 92.2031,266.027 93.5,268.5C 94.1067,268.376 94.44,268.043 94.5,267.5C 95.391,266.89 96.391,266.557 97.5,266.5C 96.2073,268.296 94.7073,269.963 93,271.5C 91.6631,268.009 90.8297,264.342 90.5,260.5C 97.217,257.482 103.217,253.482 108.5,248.5 Z"/></g>
<g><path style="opacity:1" fill="#b83b1e" d="M 106.5,251.5 C 108.128,253.703 108.795,256.036 108.5,258.5C 104.952,261.43 101.285,264.097 97.5,266.5C 96.391,266.557 95.391,266.89 94.5,267.5C 93.5386,265.735 93.2053,263.735 93.5,261.5C 97.975,258.42 102.308,255.087 106.5,251.5 Z"/></g>
<g><path style="opacity:1" fill="#b87a56" d="M 77.5,253.5 C 78.6085,254.29 79.9419,254.79 81.5,255C 77.9436,264.336 74.7769,273.836 72,283.5C 70.4443,282.48 69.2776,281.147 68.5,279.5C 70.751,270.408 73.751,261.741 77.5,253.5 Z"/></g>
<g><path style="opacity:1" fill="#ec1c23" d="M 81.5,258.5 C 83.7519,261.932 86.2519,265.266 89,268.5C 89.6877,269.332 89.521,269.998 88.5,270.5C 85.2696,266.957 82.9363,262.957 81.5,258.5 Z"/></g>
<g><path style="opacity:1" fill="#cfa316" d="M 112.5,260.5 C 115.516,260.841 118.182,262.007 120.5,264C 119.421,264.956 118.255,265.789 117,266.5C 115.58,264.578 113.747,263.245 111.5,262.5C 111.863,261.817 112.196,261.15 112.5,260.5 Z"/></g>
<g><path style="opacity:1" fill="#000000" d="M 93.5,261.5 C 93.2053,263.735 93.5386,265.735 94.5,267.5C 94.44,268.043 94.1067,268.376 93.5,268.5C 92.2031,266.027 92.2031,263.693 93.5,261.5 Z"/></g>
<g><path style="opacity:1" fill="#870014" d="M 107.5,261.5 C 108.525,261.897 108.692,262.563 108,263.5C 100.524,270.637 94.191,278.637 89,287.5C 89.9966,282.193 91.9966,277.193 95,272.5C 99.3602,268.968 103.527,265.301 107.5,261.5 Z"/></g>
<g><path style="opacity:1" fill="#fefffe" d="M 107.5,274.5 C 106.833,274.5 106.5,274.833 106.5,275.5C 99.0589,282.111 92.8922,289.778 88,298.5C 88.8181,292.839 90.8181,287.506 94,282.5C 99.3333,276.5 104.667,270.5 110,264.5C 111.845,265.05 113.345,266.05 114.5,267.5C 111.812,269.521 109.479,271.854 107.5,274.5 Z"/></g>
<g><path style="opacity:1" fill="#3e47cb" d="M 115.5,289.5 C 115.5,289.167 115.5,288.833 115.5,288.5C 115.334,282.824 115.501,277.157 116,271.5C 116.956,270.421 117.789,269.255 118.5,268C 121.618,266.628 124.784,265.462 128,264.5C 132.845,275.367 140.345,283.867 150.5,290C 154.318,293.973 157.651,298.306 160.5,303C 159.671,304.816 158.837,306.649 158,308.5C 152.968,313.867 147.635,318.867 142,323.5C 139.925,320.166 139.091,316.499 139.5,312.5C 136.278,312.892 133.278,312.392 130.5,311C 131.833,309.667 133.167,308.333 134.5,307C 138.891,305.819 143.224,304.486 147.5,303C 143.806,302.722 140.139,302.722 136.5,303C 129.348,298.671 122.348,294.171 115.5,289.5 Z"/></g>
<g><path style="opacity:1" fill="#313bb9" d="M 81.5,270.5 C 81.1667,270.5 80.8333,270.5 80.5,270.5C 80.7721,266.186 82.1055,265.686 84.5,269C 83.2625,269.232 82.2625,269.732 81.5,270.5 Z"/></g>
<g><path style="opacity:1" fill="#3c4696" d="M 80.5,270.5 C 80.4341,278.524 79.9341,286.524 79,294.5C 77.1879,293.023 75.3545,291.69 73.5,290.5C 74.7495,289.222 76.2495,288.222 78,287.5C 78.4431,281.633 79.2764,275.966 80.5,270.5 Z"/></g>
<g><path style="opacity:1" fill="#fec90d" d="M 81.5,270.5 C 85.059,270.408 88.3924,271.241 91.5,273C 87.7896,273.406 84.4562,272.572 81.5,270.5 Z"/></g>
<g><path style="opacity:1" fill="#fec90d" d="M 81.5,274.5 C 84.2529,275.022 86.9196,275.856 89.5,277C 87.4731,277.498 85.4731,277.331 83.5,276.5C 82.2867,276.253 81.62,275.586 81.5,274.5 Z"/></g>
<g><path style="opacity:1" fill="#2f36a4" d="M 107.5,274.5 C 109.099,274.232 110.432,274.566 111.5,275.5C 109.716,276.72 108.05,276.72 106.5,275.5C 106.5,274.833 106.833,274.5 107.5,274.5 Z"/></g>
<g><path style="opacity:1" fill="#fec90d" d="M 111.5,277.5 C 111.5,276.833 111.5,276.167 111.5,275.5C 112.95,274.342 113.95,274.842 114.5,277C 113.552,277.483 112.552,277.649 111.5,277.5 Z"/></g>
<g><path style="opacity:1" fill="#fec90d" d="M 106.5,277.5 C 107.376,277.369 108.043,277.702 108.5,278.5C 104.75,281.303 104.084,280.97 106.5,277.5 Z"/></g>
<g><path style="opacity:1" fill="#fec90d" d="M 111.5,277.5 C 112.209,278.404 113.209,278.737 114.5,278.5C 114.762,279.978 114.429,281.311 113.5,282.5C 112.5,280.833 111.167,279.5 109.5,278.5C 109.957,277.702 110.624,277.369 111.5,277.5 Z"/></g>
<g><path style="opacity:1" fill="#fec90d" d="M 81.5,279.5 C 84.0588,279.39 86.3921,280.056 88.5,281.5C 85.5056,282.833 83.1723,282.166 81.5,279.5 Z"/></g>
<g><path style="opacity:1" fill="#ebb679" d="M 73.5,290.5 C 72.6554,289.329 71.9887,287.995 71.5,286.5C 72.9348,285.21 73.9348,283.544 74.5,281.5C 74.8333,282.167 75.1667,282.833 75.5,283.5C 74.5331,285.762 73.8664,288.095 73.5,290.5 Z"/></g>
<g><path style="opacity:1" fill="#fec90d" d="M 102.5,281.5 C 104.288,281.215 105.955,281.548 107.5,282.5C 105.579,283.641 103.579,283.808 101.5,283C 102.056,282.617 102.389,282.117 102.5,281.5 Z"/></g>
<g><path style="opacity:1" fill="#fec90d" d="M 111.5,283.5 C 110.325,283.719 109.325,283.386 108.5,282.5C 110.052,281.202 111.052,281.535 111.5,283.5 Z"/></g>
<g><path style="opacity:1" fill="#ebb679" d="M 71.5,286.5 C 68.4815,286.841 65.8149,285.675 63.5,283C 66.4631,283.457 69.1298,284.623 71.5,286.5 Z"/></g>
<g><path style="opacity:1" fill="#fec90d" d="M 111.5,283.5 C 112.5,283.5 113.5,283.5 114.5,283.5C 113.941,288.639 112.941,288.639 111.5,283.5 Z"/></g>
<g><path style="opacity:1" fill="#ebb679" d="M 61.5,284.5 C 64.7777,285.809 67.7777,287.642 70.5,290C 67.3128,290.108 64.3128,289.275 61.5,287.5C 60.4376,286.575 60.4376,285.575 61.5,284.5 Z"/></g>
<g><path style="opacity:1" fill="#fec90d" d="M 80.5,284.5 C 82.8273,284.247 84.8273,284.914 86.5,286.5C 86,286.833 85.5,287.167 85,287.5C 82.8155,287.302 81.3155,286.302 80.5,284.5 Z"/></g>
<g><path style="opacity:1" fill="#fec90d" d="M 98.5,286.5 C 101.572,286.183 104.572,286.516 107.5,287.5C 104.216,288.657 100.882,288.824 97.5,288C 98.056,287.617 98.3893,287.117 98.5,286.5 Z"/></g>
<g><path style="opacity:1" fill="#fec90d" d="M 108.5,286.5 C 110.337,286.639 110.67,287.306 109.5,288.5C 108.702,288.043 108.369,287.376 108.5,286.5 Z"/></g>
<g><path style="opacity:1" fill="#ebb679" d="M 59.5,288.5 C 62.1456,289.487 64.8122,290.487 67.5,291.5C 68.6139,292.723 68.7805,294.056 68,295.5C 65.5794,294.039 63.0794,292.706 60.5,291.5C 59.6143,290.675 59.281,289.675 59.5,288.5 Z"/></g>
<g><path style="opacity:1" fill="#fec90d" d="M 115.5,288.5 C 115.5,288.833 115.5,289.167 115.5,289.5C 115.5,290.167 115.5,290.833 115.5,291.5C 113.517,291.157 112.183,291.824 111.5,293.5C 106.125,293.828 100.792,293.495 95.5,292.5C 102.403,292.043 109.07,290.709 115.5,288.5 Z"/></g>
<g><path style="opacity:1" fill="#fec90d" d="M 80.5,290.5 C 82.2637,289.288 83.9303,289.621 85.5,291.5C 83.8084,292.201 82.1417,291.867 80.5,290.5 Z"/></g>
<g><path style="opacity:1" fill="#000000" d="M 115.5,291.5 C 114.713,293.104 113.38,293.771 111.5,293.5C 112.183,291.824 113.517,291.157 115.5,291.5 Z"/></g>
<g><path style="opacity:1" fill="#303ab3" d="M 115.5,291.5 C 121.471,295.824 127.471,300.157 133.5,304.5C 129.471,308.606 125.305,312.606 121,316.5C 120.768,315.263 120.268,314.263 119.5,313.5C 119.167,312.833 118.833,312.167 118.5,311.5C 118.5,310.5 118.5,309.5 118.5,308.5C 118.5,307.833 118.5,307.167 118.5,306.5C 119.573,305.749 119.74,304.749 119,303.5C 118.005,302.934 117.172,302.267 116.5,301.5C 116.5,300.5 116.5,299.5 116.5,298.5C 116.669,293.959 116.002,293.626 114.5,297.5C 111.869,296.276 109.035,295.609 106,295.5C 103.31,295.503 100.81,295.836 98.5,296.5C 96.901,296.768 95.5676,296.434 94.5,295.5C 100.268,294.874 105.934,294.207 111.5,293.5C 113.38,293.771 114.713,293.104 115.5,291.5 Z"/></g>
<g><path style="opacity:1" fill="#ebb679" d="M 58.5,292.5 C 61.9302,293.714 65.2635,295.214 68.5,297C 65.7929,297.328 63.1262,296.995 60.5,296C 59.0267,295.29 58.3601,294.124 58.5,292.5 Z"/></g>
<g><path style="opacity:1" fill="#ebb679" d="M 70.5,292.5 C 71.9953,292.415 72.9953,293.081 73.5,294.5C 72.5801,298.294 70.9135,301.627 68.5,304.5C 65.9409,302.543 66.2742,300.877 69.5,299.5C 70.4742,297.257 70.8076,294.924 70.5,292.5 Z"/></g>
<g><path style="opacity:1" fill="#fec90d" d="M 80.5,296.5 C 80.8821,293.224 82.2155,293.224 84.5,296.5C 83.4425,296.906 82.1092,296.906 80.5,296.5 Z"/></g>
<g><path style="opacity:1" fill="#fefffe" d="M 94.5,295.5 C 93.596,296.209 93.2627,297.209 93.5,298.5C 92.017,300.094 90.517,301.76 89,303.5C 89.5537,299.726 91.2203,296.392 94,293.5C 94.4643,294.094 94.631,294.761 94.5,295.5 Z"/></g>
<g><path style="opacity:1" fill="#951c23" d="M 75.5,294.5 C 76.6946,294.866 77.3613,295.699 77.5,297C 76.6429,301.221 74.6429,304.721 71.5,307.5C 71.9513,303.129 73.2846,298.795 75.5,294.5 Z"/></g>
<g><path style="opacity:1" fill="#000000" d="M 94.5,295.5 C 95.5676,296.434 96.901,296.768 98.5,296.5C 96.9724,297.309 95.3057,297.976 93.5,298.5C 93.2627,297.209 93.596,296.209 94.5,295.5 Z"/></g>
<g><path style="opacity:1" fill="#3c4696" d="M 80.5,296.5 C 81.2613,297.391 82.2613,298.058 83.5,298.5C 84.4892,302.107 84.8226,305.774 84.5,309.5C 81.059,309.699 77.7256,309.199 74.5,308C 77.1776,304.426 79.1776,300.593 80.5,296.5 Z"/></g>
<g><path style="opacity:1" fill="#fec90d" d="M 98.5,296.5 C 101.898,296.18 105.232,296.513 108.5,297.5C 107.757,298.182 107.091,298.849 106.5,299.5C 101.968,299.818 97.6344,299.485 93.5,298.5C 95.3057,297.976 96.9724,297.309 98.5,296.5 Z"/></g>
<g><path style="opacity:1" fill="#fec90d" d="M 109.5,296.5 C 111.337,296.639 111.67,297.306 110.5,298.5C 109.702,298.043 109.369,297.376 109.5,296.5 Z"/></g>
<g><path style="opacity:1" fill="#fec90d" d="M 116.5,298.5 C 116.5,299.5 116.5,300.5 116.5,301.5C 114.654,301.778 113.32,301.111 112.5,299.5C 113.689,298.571 115.022,298.238 116.5,298.5 Z"/></g>
<g><path style="opacity:1" fill="#b87a56" d="M 60.5,299.5 C 62.1789,299.892 63.8455,300.392 65.5,301C 50.3326,345.669 35.666,390.502 21.5,435.5C 19.8008,435.66 18.1341,435.494 16.5,435C 31.4657,389.936 46.1324,344.769 60.5,299.5 Z"/></g>
<g><path style="opacity:1" fill="#313bb9" d="M 106.5,299.5 C 107.873,299.343 109.207,299.51 110.5,300C 109.263,300.232 108.263,300.732 107.5,301.5C 102.489,301.666 97.4889,301.499 92.5,301C 97.3514,300.826 102.018,300.326 106.5,299.5 Z"/></g>
<g><path style="opacity:1" fill="#fec90d" d="M 107.5,301.5 C 109.048,301.821 109.715,302.821 109.5,304.5C 103.158,304.666 96.8246,304.5 90.5,304C 96.1752,302.879 101.842,302.045 107.5,301.5 Z"/></g>
<g><path style="opacity:1" fill="#fec90d" d="M 110.5,301.5 C 112.465,301.948 112.798,302.948 111.5,304.5C 110.614,303.675 110.281,302.675 110.5,301.5 Z"/></g>
<g><path style="opacity:1" fill="#fec90d" d="M 118.5,306.5 C 116.516,306.617 114.85,305.95 113.5,304.5C 116.17,302.91 117.837,303.577 118.5,306.5 Z"/></g>
<g><path style="opacity:1" fill="#af9823" d="M 86.5,304.5 C 88.3117,304.771 89.9783,305.438 91.5,306.5C 90.233,308.371 90.233,310.204 91.5,312C 88.9974,313.784 88.9974,315.451 91.5,317C 89.1122,317.865 87.6122,317.032 87,314.5C 86.5017,311.183 86.335,307.85 86.5,304.5 Z"/></g>
<g><path style="opacity:1" fill="#fec90d" d="M 111.5,306.5 C 113.337,306.639 113.67,307.306 112.5,308.5C 111.702,308.043 111.369,307.376 111.5,306.5 Z"/></g>
<g><path style="opacity:1" fill="#fec90d" d="M 92.5,307.5 C 95.8606,308.203 96.1939,309.537 93.5,311.5C 91.3576,310.563 91.0243,309.23 92.5,307.5 Z"/></g>
<g><path style="opacity:1" fill="#fec90d" d="M 96.5,307.5 C 101.214,307.173 105.88,307.507 110.5,308.5C 108.167,308.833 105.833,309.167 103.5,309.5C 100.731,309.471 98.3972,308.805 96.5,307.5 Z"/></g>
<g><path style="opacity:1" fill="#fec90d" d="M 118.5,308.5 C 118.5,309.5 118.5,310.5 118.5,311.5C 117.5,311.5 116.5,311.5 115.5,311.5C 115.5,310.5 115.5,309.5 115.5,308.5C 116.5,308.5 117.5,308.5 118.5,308.5 Z"/></g>
<g><path style="opacity:1" fill="#fec90d" d="M 112.5,311.5 C 114.337,311.639 114.67,312.306 113.5,313.5C 112.702,313.043 112.369,312.376 112.5,311.5 Z"/></g>
<g><path style="opacity:1" fill="#c2c3c2" d="M 72.5,312.5 C 80.0966,315.906 80.2632,319.572 73,323.5C 67.5074,319.919 67.3408,316.252 72.5,312.5 Z"/></g>
<g><path style="opacity:1" fill="#fec90d" d="M 96.5,313.5 C 101.348,312.186 106.348,312.186 111.5,313.5C 108.694,314.168 106.028,314.834 103.5,315.5C 100.789,315.815 98.4559,315.148 96.5,313.5 Z"/></g>
<g><path style="opacity:1" fill="#fec90d" d="M 96.5,313.5 C 96.4431,314.609 96.1098,315.609 95.5,316.5C 93.6536,316.778 92.3202,316.111 91.5,314.5C 93.0453,313.548 94.712,313.215 96.5,313.5 Z"/></g>
<g><path style="opacity:1" fill="#000000" d="M 96.5,313.5 C 98.4559,315.148 100.789,315.815 103.5,315.5C 101.052,316.473 98.3854,316.806 95.5,316.5C 96.1098,315.609 96.4431,314.609 96.5,313.5 Z"/></g>
<g><path style="opacity:1" fill="#fec90d" d="M 127.5,313.5 C 130.445,314.466 133.112,315.8 135.5,317.5C 135.327,320.853 136.661,323.853 139.5,326.5C 140.598,327.397 140.598,328.23 139.5,329C 137.695,329.972 136.028,331.139 134.5,332.5C 133.893,332.376 133.56,332.043 133.5,331.5C 135.352,330.48 136.685,328.98 137.5,327C 136.273,324.702 134.94,322.535 133.5,320.5C 133.5,319.167 133.5,317.833 133.5,316.5C 132.167,316.5 130.833,316.5 129.5,316.5C 128.791,315.596 127.791,315.263 126.5,315.5C 126.328,314.508 126.662,313.842 127.5,313.5 Z"/></g>
<g><path style="opacity:1" fill="#000000" d="M 127.5,313.5 C 128.833,313.5 130.167,313.5 131.5,313.5C 132.919,314.451 134.585,314.784 136.5,314.5C 136.737,315.791 136.404,316.791 135.5,317.5C 133.112,315.8 130.445,314.466 127.5,313.5 Z"/></g>
<g><path style="opacity:1" fill="#b6201e" d="M 131.5,313.5 C 133.833,313.5 136.167,313.5 138.5,313.5C 138.284,317.487 138.951,321.32 140.5,325C 140.43,325.765 140.097,326.265 139.5,326.5C 136.661,323.853 135.327,320.853 135.5,317.5C 136.404,316.791 136.737,315.791 136.5,314.5C 134.585,314.784 132.919,314.451 131.5,313.5 Z"/></g>
<g><path style="opacity:1" fill="#303670" d="M 103.5,315.5 C 106.713,315.19 109.713,315.523 112.5,316.5C 110.052,317.473 107.385,317.806 104.5,317.5C 101.287,317.81 98.2869,317.477 95.5,316.5C 98.3854,316.806 101.052,316.473 103.5,315.5 Z"/></g>
<g><path style="opacity:1" fill="#fbc60e" d="M 119.5,313.5 C 119.5,314.5 119.5,315.5 119.5,316.5C 116.86,316.954 114.527,318.121 112.5,320C 107.481,320.335 102.481,320.835 97.5,321.5C 95.7139,321.304 94.3805,320.471 93.5,319C 97.3563,318.823 101.023,318.323 104.5,317.5C 107.385,317.806 110.052,317.473 112.5,316.5C 114.41,314.716 116.744,313.716 119.5,313.5 Z"/></g>
<g><path style="opacity:1" fill="#d21e21" d="M 126.5,315.5 C 127.791,315.263 128.791,315.596 129.5,316.5C 130.209,317.404 131.209,317.737 132.5,317.5C 132.263,318.791 132.596,319.791 133.5,320.5C 134.94,322.535 136.273,324.702 137.5,327C 136.685,328.98 135.352,330.48 133.5,331.5C 129.188,327.854 125.188,323.854 121.5,319.5C 122.605,317.389 124.271,316.055 126.5,315.5 Z"/></g>
<g><path style="opacity:1" fill="#000000" d="M 129.5,316.5 C 130.833,316.5 132.167,316.5 133.5,316.5C 133.5,317.833 133.5,319.167 133.5,320.5C 132.596,319.791 132.263,318.791 132.5,317.5C 131.209,317.737 130.209,317.404 129.5,316.5 Z"/></g>
<g><path style="opacity:1" fill="#835236" d="M 81.5,317.5 C 84.508,318.42 87.3413,319.754 90,321.5C 90.9269,324.647 89.9269,326.981 87,328.5C 84.0212,327.453 81.1879,326.119 78.5,324.5C 80.3274,322.513 81.3274,320.179 81.5,317.5 Z"/></g>
<g><path style="opacity:1" fill="#525252" d="M 110.5,322.5 C 110.5,323.167 110.167,323.5 109.5,323.5C 108.732,324.263 108.232,325.263 108,326.5C 103.972,324.936 99.805,323.77 95.5,323C 100.632,321.583 105.632,321.416 110.5,322.5 Z"/></g>
<g><path style="opacity:1" fill="#ebb679" d="M 101.5,334.5 C 104.109,333.557 106.109,331.89 107.5,329.5C 110.348,328.83 111.848,327.163 112,324.5C 110.092,327.332 109.259,326.999 109.5,323.5C 110.167,323.5 110.5,323.167 110.5,322.5C 113.579,322.74 116.579,322.407 119.5,321.5C 122.651,324.15 125.651,326.984 128.5,330C 124.238,333.717 120.072,337.55 116,341.5C 115.5,341 115,340.5 114.5,340C 116.5,338 118.5,336 120.5,334C 117.394,335.065 114.727,337.065 112.5,340C 111.5,340.667 110.5,340.667 109.5,340C 112.922,337.281 115.422,334.114 117,330.5C 113.667,333.833 110.333,337.167 107,340.5C 106.833,340 106.667,339.5 106.5,339C 108.95,335.547 111.783,332.38 115,329.5C 115.667,328.833 115.667,328.167 115,327.5C 111.833,330.667 108.667,333.833 105.5,337C 103.588,337.279 102.254,336.446 101.5,334.5 Z"/></g>
<g><path style="opacity:1" fill="#767676" d="M 107.5,329.5 C 106.109,331.89 104.109,333.557 101.5,334.5C 98.1652,333.168 95.1652,331.335 92.5,329C 92.8777,327.365 93.5444,325.865 94.5,324.5C 98.4651,325.766 102.465,326.933 106.5,328C 107.056,328.383 107.389,328.883 107.5,329.5 Z"/></g>
<g><path style="opacity:1" fill="#414141" d="M 149.5,346.5 C 146.653,341.465 144.32,336.131 142.5,330.5C 142.343,329.127 142.51,327.793 143,326.5C 147.385,330.937 149.885,336.27 150.5,342.5C 150.489,344.045 150.156,345.378 149.5,346.5 Z"/></g>
<g><path style="opacity:1" fill="#fefffe" d="M 142.5,330.5 C 144.32,336.131 146.653,341.465 149.5,346.5C 152.366,360.537 159.533,371.87 171,380.5C 171.638,384.17 171.138,387.67 169.5,391C 166.45,391.679 163.45,392.512 160.5,393.5C 159.614,392.675 159.281,391.675 159.5,390.5C 166.602,391.341 169.435,388.341 168,381.5C 158.167,371.441 150.667,360.108 145.5,347.5C 144.924,342.191 143.591,337.191 141.5,332.5C 141.328,331.508 141.662,330.842 142.5,330.5 Z"/></g>
<g><path style="opacity:1" fill="#af9823" d="M 88.5,332.5 C 94.5029,331.433 96.6696,334.1 95,340.5C 93.5325,337.213 91.3659,334.546 88.5,332.5 Z"/></g>
<g><path style="opacity:1" fill="#484848" d="M 141.5,332.5 C 143.591,337.191 144.924,342.191 145.5,347.5C 144.859,350.497 143.525,353.163 141.5,355.5C 141.529,357.029 142.196,358.196 143.5,359C 142.234,359.309 141.067,359.809 140,360.5C 137.633,356.001 138.467,352.168 142.5,349C 140.606,347.921 140.273,346.587 141.5,345C 140.906,344.536 140.239,344.369 139.5,344.5C 139.441,341.31 139.107,338.143 138.5,335C 138.437,332.123 139.437,331.289 141.5,332.5 Z"/></g>
<g><path style="opacity:1" fill="#545554" d="M 119.5,346.5 C 119.338,344.473 119.505,342.473 120,340.5C 122.854,338.402 125.521,336.069 128,333.5C 127.968,335.598 127.301,337.598 126,339.5C 123.6,341.729 121.433,344.063 119.5,346.5 Z"/></g>
<g><path style="opacity:1" fill="#535353" d="M 121.5,353.5 C 120.662,353.158 120.328,352.492 120.5,351.5C 121.527,346.948 124.027,343.282 128,340.5C 129.08,338.004 130.414,335.67 132,333.5C 134.629,335.72 134.963,338.386 133,341.5C 130.337,346.662 126.504,350.662 121.5,353.5 Z"/></g>
<g><path style="opacity:1" fill="#545454" d="M 109.5,346.5 C 109.5,347.167 109.167,347.5 108.5,347.5C 107.671,355.323 107.171,363.323 107,371.5C 106.113,367.675 105.279,363.842 104.5,360C 97.9776,352.82 95.4776,344.32 97,334.5C 99.9403,336.883 102.774,339.383 105.5,342C 107.473,342.495 109.473,342.662 111.5,342.5C 111.473,344.199 110.806,345.533 109.5,346.5 Z"/></g>
<g><path style="opacity:1" fill="#545554" d="M 139.5,344.5 C 137.563,345.931 135.73,347.598 134,349.5C 133.25,348.874 132.416,348.374 131.5,348C 133.782,345.603 135.116,342.769 135.5,339.5C 136.5,339.5 137.5,339.5 138.5,339.5C 138.216,341.415 138.549,343.081 139.5,344.5 Z"/></g>
<g><path style="opacity:1" fill="#760011" d="M 109.5,346.5 C 110.376,346.369 111.043,346.702 111.5,347.5C 110.239,351.061 109.406,354.728 109,358.5C 108.501,354.848 108.335,351.182 108.5,347.5C 109.167,347.5 109.5,347.167 109.5,346.5 Z"/></g>
<g><path style="opacity:1" fill="#505050" d="M 123.5,362.5 C 124.465,366.746 124.798,370.913 124.5,375C 122.395,376.335 121.729,378.002 122.5,380C 120.963,381.707 119.296,383.207 117.5,384.5C 116.403,391.079 115.069,397.912 113.5,405C 117.293,414.759 120.96,424.593 124.5,434.5C 122.709,435.17 121.042,435.837 119.5,436.5C 117.167,436.5 114.833,436.5 112.5,436.5C 109.495,424.819 105.495,413.485 100.5,402.5C 103.471,394.937 105.971,387.27 108,379.5C 109.261,368.665 111.261,357.998 114,347.5C 115.695,353.584 118.861,358.584 123.5,362.5 Z"/></g>
<g><path style="opacity:1" fill="#474747" d="M 127.5,383.5 C 128.393,377.575 128.726,371.575 128.5,365.5C 129.315,364.571 130.148,363.571 131,362.5C 132.844,365.533 133.844,368.866 134,372.5C 136.018,374.522 136.852,377.022 136.5,380C 136.333,381.833 136.167,383.667 136,385.5C 130.702,392.915 127.535,401.082 126.5,410C 128.489,414.621 130.489,419.288 132.5,424C 131.751,425.734 131.251,427.567 131,429.5C 129.099,420.956 125.932,412.956 121.5,405.5C 121.818,404.353 122.484,403.519 123.5,403C 122.978,402.439 122.645,401.772 122.5,401C 123.586,394.957 125.252,389.124 127.5,383.5 Z"/></g>
<g><path style="opacity:1" fill="#fefffe" d="M 146.5,364.5 C 150.71,370.89 155.544,376.89 161,382.5C 161.617,383.449 161.451,384.282 160.5,385C 159.056,385.781 157.723,385.614 156.5,384.5C 153.333,379.5 150.167,374.5 147,369.5C 146.506,367.866 146.34,366.199 146.5,364.5 Z"/></g>
<g><path style="opacity:1" fill="#bebebe" d="M 119.5,346.5 C 119.216,348.415 119.549,350.081 120.5,351.5C 120.328,352.492 120.662,353.158 121.5,353.5C 123.391,356.172 126.058,357.172 129.5,356.5C 130.14,351.423 131.807,350.757 134.5,354.5C 136.554,357.941 138.054,361.607 139,365.5C 139.423,364.044 140.256,363.544 141.5,364C 140.833,365.667 140.167,367.333 139.5,369C 146.446,378.381 152.78,388.215 158.5,398.5C 169.121,411.092 179.121,422.926 188.5,434C 186.831,434.122 185.165,433.788 183.5,433C 170.841,419.086 159.341,404.919 149,390.5C 143.558,379.943 137.892,369.609 132,359.5C 130.981,360.687 129.814,361.687 128.5,362.5C 123.854,360.771 120.354,357.771 118,353.5C 116.6,350.26 115.433,346.927 114.5,343.5C 115.822,343.67 116.989,343.337 118,342.5C 118.21,344.058 118.71,345.391 119.5,346.5 Z"/></g>
<g><path style="opacity:1" fill="#d5d5d5" d="M 123.5,362.5 C 125.674,362.75 127.341,363.75 128.5,365.5C 128.726,371.575 128.393,377.575 127.5,383.5C 125.777,385.253 124.277,387.253 123,389.5C 122.667,388.833 122.333,388.167 122,387.5C 119.472,388.519 117.972,387.519 117.5,384.5C 119.296,383.207 120.963,381.707 122.5,380C 121.729,378.002 122.395,376.335 124.5,375C 124.798,370.913 124.465,366.746 123.5,362.5 Z"/></g>
<g><path style="opacity:1" fill="#800314" d="M 135.5,389.5 C 137.271,392.154 138.605,395.154 139.5,398.5C 141.667,399.948 144,401.115 146.5,402C 153.638,411.478 160.638,420.478 167.5,429C 170.008,429.115 172.008,430.115 173.5,432C 171.043,435.961 168.376,439.794 165.5,443.5C 162.322,445.586 158.988,445.92 155.5,444.5C 154.283,441.343 152.783,438.343 151,435.5C 149.927,436.28 148.76,436.113 147.5,435C 143.047,431.465 138.547,427.299 134,422.5C 133.127,419.382 131.961,416.382 130.5,413.5C 136.807,412.669 143.141,412.169 149.5,412C 142.919,411.813 136.419,411.313 130,410.5C 129.333,407.5 129.333,404.5 130,401.5C 132.119,397.598 133.952,393.598 135.5,389.5 Z"/></g>
<g><path style="opacity:1" fill="#ec1c23" d="M 119.5,390.5 C 120.87,390.856 121.87,391.69 122.5,393C 121.01,397.778 120.176,402.611 120,407.5C 128.295,424.688 133.128,442.688 134.5,461.5C 133.311,462.429 131.978,462.762 130.5,462.5C 129.421,452.445 127.921,442.445 126,432.5C 122.915,423.165 119.415,413.999 115.5,405C 116.143,399.942 117.476,395.108 119.5,390.5 Z"/></g>
<g><path style="opacity:1" fill="#fefffe" d="M 142.5,390.5 C 143.848,391.527 144.348,392.86 144,394.5C 142.812,393.437 142.312,392.103 142.5,390.5 Z"/></g>
<g><path style="opacity:1" fill="#fefffe" d="M 137.5,434.5 C 140.555,437.718 144.055,440.384 148,442.5C 149.25,445.077 149.584,447.743 149,450.5C 146.194,452.395 143.86,454.728 142,457.5C 138.956,450.156 137.456,442.489 137.5,434.5 Z M 140.5,441.5 C 140.338,443.527 140.505,445.527 141,447.5C 142.476,452.564 144.643,452.731 147.5,448C 146.482,444.48 144.149,442.313 140.5,441.5 Z"/></g>
<g><path style="opacity:1" fill="#870014" d="M 119.5,436.5 C 122.045,436.151 124.045,436.984 125.5,439C 121.309,439.922 117.309,439.588 113.5,438C 115.708,437.809 117.708,437.309 119.5,436.5 Z"/></g>
<g><path style="opacity:1" fill="#c2c3c2" d="M 175.5,436.5 C 176.525,436.897 176.692,437.563 176,438.5C 174.887,440.329 173.387,441.163 171.5,441C 173.041,439.629 174.375,438.129 175.5,436.5 Z"/></g>
<g><path style="opacity:1" fill="#840114" d="M 114.5,440.5 C 118.167,440.5 121.833,440.5 125.5,440.5C 126.407,447.516 127.407,454.516 128.5,461.5C 124.389,461.478 120.389,460.811 116.5,459.5C 115.119,456.682 116.119,455.182 119.5,455C 117.117,454.935 116.45,454.102 117.5,452.5C 115.991,448.622 114.991,444.622 114.5,440.5 Z"/></g>
</svg>
