<?xml version="1.0" encoding="UTF-8"?>
<!DOCTYPE svg PUBLIC "-//W3C//DTD SVG 1.1//EN" "http://www.w3.org/Graphics/SVG/1.1/DTD/svg11.dtd">
<svg xmlns="http://www.w3.org/2000/svg" version="1.1" width="322px" height="424px" style="shape-rendering:geometricPrecision; text-rendering:geometricPrecision; image-rendering:optimizeQuality; fill-rule:evenodd; clip-rule:evenodd" xmlns:xlink="http://www.w3.org/1999/xlink">
<g><path style="opacity:1" fill="#fefffe" d="M 110.5,34.5 C 115.511,34.3341 120.511,34.5007 125.5,35C 126.333,35.8333 127.167,36.6667 128,37.5C 129.764,42.4646 132.098,47.1313 135,51.5C 135.5,58.1583 135.666,64.825 135.5,71.5C 140.023,71.345 143.189,73.345 145,77.5C 145.374,83.0055 145.541,88.3388 145.5,93.5C 150.799,91.5212 155.466,92.3545 159.5,96C 162.5,96.3333 165.5,96.6667 168.5,97C 170.887,97.9761 172.054,99.8094 172,102.5C 176.08,101.7 180.247,101.2 184.5,101C 185.817,98.0388 188.151,96.8722 191.5,97.5C 195.588,98.7394 199.755,99.7394 204,100.5C 236.478,98.2291 268.978,96.7291 301.5,96C 302.639,101.416 302.806,106.916 302,112.5C 296.178,115.331 290.011,116.998 283.5,117.5C 279.661,127.136 274.828,136.136 269,144.5C 267.2,146.317 265.034,147.484 262.5,148C 252.637,158.265 240.637,164.265 226.5,166C 216.5,166.333 206.5,166.667 196.5,167C 193.167,171.667 189.167,175.667 184.5,179C 179.5,179.667 174.5,179.667 169.5,179C 160.997,173.916 152.664,168.583 144.5,163C 143.668,162.312 143.002,162.479 142.5,163.5C 146.746,168.32 150.246,173.653 153,179.5C 154.119,195.837 153.286,212.004 150.5,228C 158.326,243.154 165.493,258.654 172,274.5C 172.127,292.555 173.127,310.555 175,328.5C 178.001,334.426 179.335,340.76 179,347.5C 185.041,353.532 191.707,358.866 199,363.5C 200.534,367.711 200.867,372.044 200,376.5C 196.763,378.58 193.263,380.08 189.5,381C 175.755,381.904 162.088,381.237 148.5,379C 137.351,374.202 133.684,366.035 137.5,354.5C 134.207,351.574 132.874,347.908 133.5,343.5C 133.538,339.39 134.204,335.39 135.5,331.5C 134.157,325.796 132.657,320.13 131,314.5C 130.333,313.833 129.667,313.167 129,312.5C 129.062,302.951 128.062,293.617 126,284.5C 116.948,273.115 108.281,261.449 100,249.5C 99.8871,251.974 98.8871,253.974 97,255.5C 96.6667,258.5 96.3333,261.5 96,264.5C 95.3333,265.167 94.6667,265.833 94,266.5C 89.7507,293.236 87.9173,320.236 88.5,347.5C 87.5,347.5 86.5,347.5 85.5,347.5C 84.4256,355.402 83.2589,363.402 82,371.5C 80.5,375.667 77.6667,378.5 73.5,380C 61.807,380.746 50.1403,380.58 38.5,379.5C 38.3343,375.154 38.501,370.821 39,366.5C 41.0523,363.794 43.7189,361.794 47,360.5C 48.9427,358.01 50.1093,355.177 50.5,352C 48.9525,347.72 48.2858,343.22 48.5,338.5C 49.205,317.839 49.705,297.173 50,276.5C 50.8342,264.106 52.0008,251.773 53.5,239.5C 52.1667,232.5 52.1667,225.5 53.5,218.5C 46.8955,218.37 40.2289,218.204 33.5,218C 32.3651,213.252 32.1985,208.419 33,203.5C 35.0624,192.195 36.7291,180.862 38,169.5C 42.4274,163.235 47.9274,158.235 54.5,154.5C 53.9954,151.483 52.4954,149.149 50,147.5C 48.0385,138.173 48.0385,128.839 50,119.5C 50.9147,118.672 51.5814,117.672 52,116.5C 52.089,112.972 52.7556,109.638 54,106.5C 54.4998,99.9915 54.3331,93.4915 53.5,87C 53.1357,82.5832 54.1357,78.5832 56.5,75C 61.1667,74.6667 65.8333,74.3333 70.5,74C 70.7821,67.5601 74.1154,65.0601 80.5,66.5C 80.0796,59.7163 80.5796,53.0496 82,46.5C 89.2314,40.2069 97.7314,37.2069 107.5,37.5C 108.34,36.265 109.34,35.265 110.5,34.5 Z M 141.5,96.5 C 142.451,97.9187 142.784,99.5853 142.5,101.5C 141.5,101.5 140.5,101.5 139.5,101.5C 139.392,99.4862 140.058,97.8195 141.5,96.5 Z M 246.5,118.5 C 249.518,118.335 252.518,118.502 255.5,119C 253.248,120.087 251.915,121.921 251.5,124.5C 248.352,125.721 246.518,128.054 246,131.5C 243.982,133.35 242.149,135.35 240.5,137.5C 231.724,141.305 222.891,144.971 214,148.5C 213.5,148.167 213,147.833 212.5,147.5C 216.094,142.555 218.428,137.055 219.5,131C 227.138,128.853 233.804,125.186 239.5,120C 242.036,119.814 244.369,119.314 246.5,118.5 Z M 175.5,125.5 C 177.5,125.5 179.5,125.5 181.5,125.5C 180.315,129.692 177.649,132.692 173.5,134.5C 170.32,132.662 168.32,129.995 167.5,126.5C 170.385,126.806 173.052,126.473 175.5,125.5 Z"/></g>
<g><path style="opacity:1" fill="#010101" d="M 112.5,36.5 C 116.182,36.3347 119.848,36.5014 123.5,37C 124.333,37.8333 125.167,38.6667 126,39.5C 127.764,44.4646 130.098,49.1313 133,53.5C 132.172,60.1689 132.339,66.8356 133.5,73.5C 142.477,75.094 145.644,80.4274 143,89.5C 140.059,93.0854 138.059,97.0854 137,101.5C 136.25,102.126 135.416,102.626 134.5,103C 137.758,103.212 140.924,103.712 144,104.5C 143.407,96.7578 146.907,93.5912 154.5,95C 155.5,96 156.5,97 157.5,98C 161.287,98.1596 164.954,98.8263 168.5,100C 169.38,101.356 169.714,102.856 169.5,104.5C 175.154,103.945 180.82,103.445 186.5,103C 189.348,98.751 192.681,98.4176 196.5,102C 228.514,101.129 260.514,99.629 292.5,97.5C 295.089,97.5272 297.589,97.8606 300,98.5C 300.667,102.5 300.667,106.5 300,110.5C 294.178,113.331 288.011,114.998 281.5,115.5C 277.661,125.136 272.828,134.136 267,142.5C 265.2,144.317 263.034,145.484 260.5,146C 250.637,156.265 238.637,162.265 224.5,164C 214.786,164.807 205.119,164.641 195.5,163.5C 192.022,168.812 187.688,173.312 182.5,177C 178.044,177.867 173.711,177.534 169.5,176C 160.244,169.739 150.744,163.905 141,158.5C 139.452,163.528 140.785,167.528 145,170.5C 146.746,174.327 148.746,177.993 151,181.5C 151.667,190.5 151.667,199.5 151,208.5C 149.619,215.792 148.952,223.125 149,230.5C 156.531,245.564 163.531,260.898 170,276.5C 170.127,294.555 171.127,312.555 173,330.5C 176.456,335.603 177.289,341.103 175.5,347C 180.154,351.654 184.821,356.321 189.5,361C 192.249,362.123 194.749,363.623 197,365.5C 198.457,368.366 198.79,371.366 198,374.5C 194.763,376.58 191.263,378.08 187.5,379C 177.137,379.681 166.804,379.348 156.5,378C 141.401,375.433 136.068,366.933 140.5,352.5C 137.024,350.551 135.357,347.551 135.5,343.5C 137.189,337.938 137.689,332.272 137,326.5C 135.667,321.833 134.333,317.167 133,312.5C 132.333,311.833 131.667,311.167 131,310.5C 131.062,300.951 130.062,291.617 128,282.5C 118.334,270.485 109.167,258.152 100.5,245.5C 98.3806,247.929 96.5473,250.595 95,253.5C 94.6667,256.5 94.3333,259.5 94,262.5C 93.3333,263.167 92.6667,263.833 92,264.5C 91.6667,268.5 91.3333,272.5 91,276.5C 88.81,278.395 88.31,280.895 89.5,284C 86.6694,304.443 85.6694,324.943 86.5,345.5C 85.5,345.5 84.5,345.5 83.5,345.5C 82.4256,353.402 81.2589,361.402 80,369.5C 78.5,373.667 75.6667,376.5 71.5,378C 61.1398,378.733 50.8065,378.567 40.5,377.5C 38.6974,369.764 41.5307,364.764 49,362.5C 51.359,359.423 52.5256,355.923 52.5,352C 51.0677,347.702 50.4011,343.202 50.5,338.5C 51.2306,318.508 51.7306,298.508 52,278.5C 53.7334,270.021 54.2334,261.521 53.5,253C 53.8425,248.454 54.5092,243.954 55.5,239.5C 53.6071,231.539 54.2738,223.872 57.5,216.5C 54.1637,215.76 50.8304,215.094 47.5,214.5C 43.7709,216.508 39.7709,217.008 35.5,216C 34.8729,214.262 34.5396,212.429 34.5,210.5C 35.7973,202.868 36.964,195.201 38,187.5C 38.6449,186.354 39.4783,185.354 40.5,184.5C 39.3945,180.223 39.2278,175.89 40,171.5C 44.0981,165.401 49.4315,160.734 56,157.5C 57.0471,152.641 55.7138,148.641 52,145.5C 50.0503,137.506 50.0503,129.506 52,121.5C 53.6556,115.789 55.4889,110.122 57.5,104.5C 56.2455,97.2039 55.7455,89.8706 56,82.5C 56.1629,80.324 56.9963,78.4907 58.5,77C 63.1667,76.6667 67.8333,76.3333 72.5,76C 73.287,68.7274 77.1203,66.5608 84,69.5C 83.0158,65.8539 82.5158,62.0206 82.5,58C 82.0065,53.841 83.0065,50.1744 85.5,47C 92.6085,41.9361 100.609,39.4361 109.5,39.5C 110.34,38.265 111.34,37.265 112.5,36.5 Z M 141.5,96.5 C 140.058,97.8195 139.392,99.4862 139.5,101.5C 140.5,101.5 141.5,101.5 142.5,101.5C 142.784,99.5853 142.451,97.9187 141.5,96.5 Z M 246.5,118.5 C 244.369,119.314 242.036,119.814 239.5,120C 233.804,125.186 227.138,128.853 219.5,131C 218.428,137.055 216.094,142.555 212.5,147.5C 213,147.833 213.5,148.167 214,148.5C 222.891,144.971 231.724,141.305 240.5,137.5C 242.149,135.35 243.982,133.35 246,131.5C 246.518,128.054 248.352,125.721 251.5,124.5C 251.915,121.921 253.248,120.087 255.5,119C 252.518,118.502 249.518,118.335 246.5,118.5 Z M 175.5,125.5 C 173.052,126.473 170.385,126.806 167.5,126.5C 168.32,129.995 170.32,132.662 173.5,134.5C 177.649,132.692 180.315,129.692 181.5,125.5C 179.5,125.5 177.5,125.5 175.5,125.5 Z"/></g>
<g><path style="opacity:1" fill="#386a3c" d="M 115.5,41.5 C 117.722,41.178 119.556,41.8446 121,43.5C 122.784,47.0121 124.284,50.6787 125.5,54.5C 123.396,57.9237 120.896,58.5904 118,56.5C 116.27,52.7387 114.77,48.9053 113.5,45C 114.305,43.8873 114.972,42.7206 115.5,41.5 Z"/></g>
<g><path style="opacity:1" fill="#525e63" d="M 107.5,45.5 C 103.974,47.0716 100.307,48.5716 96.5,50C 93.9133,51.5251 93.0799,53.6917 94,56.5C 96.2497,60.6682 98.7497,64.6682 101.5,68.5C 96.2143,69.3588 91.881,67.6921 88.5,63.5C 86.9093,59.476 87.2427,55.6427 89.5,52C 94.5929,47.4105 100.593,45.2438 107.5,45.5 Z"/></g>
<g><path style="opacity:1" fill="#282423" d="M 107.5,45.5 C 108.978,45.238 110.311,45.5713 111.5,46.5C 112.639,50.8978 114.305,55.0644 116.5,59C 120.155,61.3346 123.321,60.8346 126,57.5C 126.5,58.5 127,59.5 127.5,60.5C 126.652,62.4086 126.318,64.4086 126.5,66.5C 125.862,68.46 125.862,70.2933 126.5,72C 123.967,73.0333 122.301,74.8666 121.5,77.5C 123.523,76.2086 125.523,76.2086 127.5,77.5C 128.497,77.4701 129.164,77.9701 129.5,79C 128.885,81.5146 127.885,83.848 126.5,86C 120.627,89.4363 114.627,92.603 108.5,95.5C 114.364,94.7637 120.031,92.7637 125.5,89.5C 127.641,91.1217 129.308,93.1217 130.5,95.5C 125.989,96.8213 121.322,97.8213 116.5,98.5C 115.5,98.5 114.5,98.5 113.5,98.5C 110.14,98.3841 106.807,98.0508 103.5,97.5C 103.5,97.1667 103.5,96.8333 103.5,96.5C 102.942,95.2101 101.942,94.3768 100.5,94C 97.1388,93.9464 94.1388,92.9464 91.5,91C 94.3647,90.8171 97.0314,90.3171 99.5,89.5C 106.476,83.9523 112.809,77.619 118.5,70.5C 118.333,70.1667 118.167,69.8333 118,69.5C 111.898,75.4469 105.398,80.7802 98.5,85.5C 95.8333,85.5 93.1667,85.5 90.5,85.5C 89.8379,81.5341 89.5045,77.5341 89.5,73.5C 95.0995,75.8442 100.766,76.0108 106.5,74C 100.454,73.3085 94.7869,71.4751 89.5,68.5C 88.962,66.8828 88.6287,65.2161 88.5,63.5C 91.881,67.6921 96.2143,69.3588 101.5,68.5C 98.7497,64.6682 96.2497,60.6682 94,56.5C 93.0799,53.6917 93.9133,51.5251 96.5,50C 100.307,48.5716 103.974,47.0716 107.5,45.5 Z"/></g>
<g><path style="opacity:1" fill="#c2c3c2" d="M 126.5,66.5 C 127.88,66.9623 128.547,67.9623 128.5,69.5C 127.731,72.1147 127.397,74.7814 127.5,77.5C 125.523,76.2086 123.523,76.2086 121.5,77.5C 122.301,74.8666 123.967,73.0333 126.5,72C 125.862,70.2933 125.862,68.46 126.5,66.5 Z"/></g>
<g><path style="opacity:1" fill="#525e63" d="M 89.5,68.5 C 94.7869,71.4751 100.454,73.3085 106.5,74C 100.766,76.0108 95.0995,75.8442 89.5,73.5C 89.5,71.8333 89.5,70.1667 89.5,68.5 Z"/></g>
<g><path style="opacity:1" fill="#3c7240" d="M 99.5,89.5 C 96.5,89.5 93.5,89.5 90.5,89.5C 90.5,88.5 90.5,87.5 90.5,86.5C 93.3854,86.8064 96.0521,86.4731 98.5,85.5C 105.398,80.7802 111.898,75.4469 118,69.5C 118.167,69.8333 118.333,70.1667 118.5,70.5C 112.809,77.619 106.476,83.9523 99.5,89.5 Z"/></g>
<g><path style="opacity:1" fill="#525e63" d="M 84.5,77.5 C 85.209,76.596 86.209,76.2627 87.5,76.5C 88.8879,85.1862 88.7213,93.8528 87,102.5C 86.3493,93.9963 85.516,85.6629 84.5,77.5 Z"/></g>
<g><path style="opacity:1" fill="#76868d" d="M 74.5,83.5 C 75.904,90.5584 75.7373,97.5584 74,104.5C 71.9373,106.734 69.7706,108.734 67.5,110.5C 65.326,110.92 63.326,110.92 61.5,110.5C 62.6113,109.389 63.278,108.055 63.5,106.5C 61.6214,98.1788 60.9547,89.8455 61.5,81.5C 66.1014,81.0551 70.4347,81.7217 74.5,83.5 Z"/></g>
<g><path style="opacity:1" fill="#525e63" d="M 74.5,83.5 C 76.0174,83.5106 77.1841,84.1772 78,85.5C 79.0315,92.1506 79.8648,98.8173 80.5,105.5C 77.2084,105.12 74.8751,106.453 73.5,109.5C 71.604,110.466 69.604,110.799 67.5,110.5C 69.7706,108.734 71.9373,106.734 74,104.5C 75.7373,97.5584 75.904,90.5584 74.5,83.5 Z"/></g>
<g><path style="opacity:1" fill="#572f1b" d="M 97.5,95.5 C 95.0156,97.5452 94.0156,100.212 94.5,103.5C 94.1667,103.5 93.8333,103.5 93.5,103.5C 93.2671,101.938 92.6005,100.605 91.5,99.5C 88.9783,97.6469 88.9783,95.6469 91.5,93.5C 93.1727,95.0863 95.1727,95.7529 97.5,95.5 Z"/></g>
<g><path style="opacity:1" fill="#e0b78c" d="M 97.5,95.5 C 99.5648,95.5172 101.565,95.8505 103.5,96.5C 103.5,96.8333 103.5,97.1667 103.5,97.5C 103.366,99.2915 103.699,100.958 104.5,102.5C 104.261,104.467 104.594,106.301 105.5,108C 109.805,109.923 114.138,109.923 118.5,108C 119.059,107.275 119.392,106.442 119.5,105.5C 118.023,103.361 117.023,101.028 116.5,98.5C 121.322,97.8213 125.989,96.8213 130.5,95.5C 132.384,95.7118 133.717,96.7118 134.5,98.5C 132.577,99.3078 130.577,99.8078 128.5,100C 129.448,100.483 130.448,100.649 131.5,100.5C 131.548,103.292 130.215,105.125 127.5,106C 128.956,106.423 129.456,107.256 129,108.5C 125.288,112.493 121.121,113.493 116.5,111.5C 112.869,112.515 109.202,112.681 105.5,112C 104.257,110.846 103.257,109.512 102.5,108C 101.423,107.53 100.423,107.697 99.5,108.5C 97.5,107.167 95.8333,105.5 94.5,103.5C 94.0156,100.212 95.0156,97.5452 97.5,95.5 Z"/></g>
<g><path style="opacity:1" fill="#61341e" d="M 103.5,97.5 C 106.807,98.0508 110.14,98.3841 113.5,98.5C 113.343,99.8734 113.51,101.207 114,102.5C 115.845,103.05 117.345,104.05 118.5,105.5C 115.707,108.138 112.374,108.972 108.5,108C 107.968,105.537 106.634,103.703 104.5,102.5C 103.699,100.958 103.366,99.2915 103.5,97.5 Z"/></g>
<g><path style="opacity:1" fill="#df8826" d="M 113.5,98.5 C 114.5,98.5 115.5,98.5 116.5,98.5C 117.023,101.028 118.023,103.361 119.5,105.5C 119.392,106.442 119.059,107.275 118.5,108C 114.138,109.923 109.805,109.923 105.5,108C 104.594,106.301 104.261,104.467 104.5,102.5C 106.634,103.703 107.968,105.537 108.5,108C 112.374,108.972 115.707,108.138 118.5,105.5C 117.345,104.05 115.845,103.05 114,102.5C 113.51,101.207 113.343,99.8734 113.5,98.5 Z"/></g>
<g><path style="opacity:1" fill="#fefffe" d="M 91.5,99.5 C 92.6005,100.605 93.2671,101.938 93.5,103.5C 91.1939,102.625 90.5272,101.292 91.5,99.5 Z"/></g>
<g><path style="opacity:1" fill="#000000" d="M 100.5,99.5 C 101.867,101.093 101.534,102.426 99.5,103.5C 99.1667,103 98.8333,102.5 98.5,102C 99.0556,100.989 99.7222,100.156 100.5,99.5 Z"/></g>
<g><path style="opacity:1" fill="#b2b2b2" d="M 155.5,105.5 C 154.062,108.083 154.396,110.417 156.5,112.5C 156.5,113.833 157.167,114.5 158.5,114.5C 159.167,114.5 159.5,114.833 159.5,115.5C 158.116,116.801 156.616,116.801 155,115.5C 153.698,116.085 152.531,116.751 151.5,117.5C 149.262,118.537 146.929,118.703 144.5,118C 143.62,116.644 143.286,115.144 143.5,113.5C 145.138,112.841 146.805,112.174 148.5,111.5C 149.281,112.729 149.781,114.062 150,115.5C 150.652,110.715 150.152,106.049 148.5,101.5C 149.348,99.7172 150.681,99.2172 152.5,100C 153.833,101.333 155.167,102.667 156.5,104C 155.944,104.383 155.611,104.883 155.5,105.5 Z"/></g>
<g><path style="opacity:1" fill="#bfbfbf" d="M 267.5,105.5 C 253.645,105.477 239.978,106.144 226.5,107.5C 219.313,107.175 212.313,107.509 205.5,108.5C 191.452,108.503 177.452,109.169 163.5,110.5C 162.005,110.011 160.671,109.345 159.5,108.5C 161.152,100.683 163.485,100.516 166.5,108C 209.845,106.14 253.178,104.14 296.5,102C 296.957,102.414 297.291,102.914 297.5,103.5C 287.341,104.167 277.341,104.833 267.5,105.5 Z"/></g>
<g><path style="opacity:1" fill="#c2c3c2" d="M 190.5,102.5 C 196.059,105.043 195.726,105.877 189.5,105C 190.252,104.329 190.586,103.496 190.5,102.5 Z"/></g>
<g><path style="opacity:1" fill="#fefffe" d="M 93.5,103.5 C 93.8333,103.5 94.1667,103.5 94.5,103.5C 95.8333,105.5 97.5,107.167 99.5,108.5C 100.681,111.025 102.014,113.525 103.5,116C 102.833,116.667 102.167,116.667 101.5,116C 98.9368,111.692 96.2701,107.525 93.5,103.5 Z"/></g>
<g><path style="opacity:1" fill="#000000" d="M 123.5,103.5 C 126.001,103.511 126.168,104.178 124,105.5C 123.536,104.906 123.369,104.239 123.5,103.5 Z"/></g>
<g><path style="opacity:1" fill="#870014" d="M 85.5,105.5 C 88.9988,108.166 91.9988,111.333 94.5,115C 93.0563,115.781 91.723,115.614 90.5,114.5C 89.0278,111.195 86.6945,108.695 83.5,107C 84.4158,106.722 85.0825,106.222 85.5,105.5 Z"/></g>
<g><path style="opacity:1" fill="#f3c011" d="M 155.5,105.5 C 156.5,105.5 157.5,105.5 158.5,105.5C 158.263,106.791 158.596,107.791 159.5,108.5C 160.671,109.345 162.005,110.011 163.5,110.5C 164.209,111.404 165.209,111.737 166.5,111.5C 168.493,112.472 168.826,113.805 167.5,115.5C 164.833,116.833 162.167,116.833 159.5,115.5C 159.5,114.833 159.167,114.5 158.5,114.5C 159.609,113.71 160.942,113.21 162.5,113C 160.527,112.505 158.527,112.338 156.5,112.5C 154.396,110.417 154.062,108.083 155.5,105.5 Z"/></g>
<g><path style="opacity:1" fill="#6f4334" d="M 267.5,105.5 C 271.827,105.016 275.827,105.682 279.5,107.5C 283.702,107.183 287.702,107.517 291.5,108.5C 278.5,109.167 265.5,109.833 252.5,110.5C 244.133,110.705 235.8,110.371 227.5,109.5C 227.167,108.833 226.833,108.167 226.5,107.5C 239.978,106.144 253.645,105.477 267.5,105.5 Z"/></g>
<g><path style="opacity:1" fill="#c2c3c2" d="M 291.5,108.5 C 287.702,107.517 283.702,107.183 279.5,107.5C 282.087,106.184 285.087,105.517 288.5,105.5C 291.5,105.667 294.5,105.833 297.5,106C 295.842,107.663 293.842,108.496 291.5,108.5 Z"/></g>
<g><path style="opacity:1" fill="#76868d" d="M 77.5,107.5 C 78.8734,107.343 80.2068,107.51 81.5,108C 84.1127,110.123 86.446,112.456 88.5,115C 85.5774,115.207 83.7441,116.707 83,119.5C 79.2344,117.814 76.7344,114.981 75.5,111C 75.9783,109.697 76.645,108.531 77.5,107.5 Z"/></g>
<g><path style="opacity:1" fill="#000000" d="M 205.5,108.5 C 212.313,107.509 219.313,107.175 226.5,107.5C 226.833,108.167 227.167,108.833 227.5,109.5C 226.167,109.5 224.833,109.5 223.5,109.5C 217.69,108.51 211.69,108.177 205.5,108.5 Z"/></g>
<g><path style="opacity:1" fill="#7d4b39" d="M 205.5,108.5 C 211.69,108.177 217.69,108.51 223.5,109.5C 222.994,111.105 222.327,111.439 221.5,110.5C 218.573,109.448 216.239,110.448 214.5,113.5C 211.893,114.318 209.226,114.818 206.5,115C 205.5,116 204.5,117 203.5,118C 191.155,118.697 178.822,119.53 166.5,120.5C 163.556,120.276 160.723,119.61 158,118.5C 156.93,118.528 156.097,118.861 155.5,119.5C 154.432,120.434 153.099,120.768 151.5,120.5C 150.849,121.091 150.182,121.757 149.5,122.5C 144.342,120.617 139.342,118.45 134.5,116C 137.356,113.707 140.356,112.873 143.5,113.5C 143.286,115.144 143.62,116.644 144.5,118C 146.929,118.703 149.262,118.537 151.5,117.5C 159.019,117.825 166.352,117.492 173.5,116.5C 173.5,115.167 173.5,113.833 173.5,112.5C 171.393,111.532 169.059,111.198 166.5,111.5C 165.209,111.737 164.209,111.404 163.5,110.5C 177.452,109.169 191.452,108.503 205.5,108.5 Z"/></g>
<g><path style="opacity:1" fill="#efc494" d="M 140.5,125.5 C 136.02,123.598 131.354,122.265 126.5,121.5C 125.5,121.667 124.5,121.833 123.5,122C 122.601,123.652 121.601,125.152 120.5,126.5C 120.358,123.383 119.024,120.883 116.5,119C 121.245,115.63 126.245,112.797 131.5,110.5C 132.167,110.667 132.833,110.833 133.5,111C 130.141,113.034 129.808,115.368 132.5,118C 138.167,120.333 143.833,122.667 149.5,125C 146.482,124.337 143.482,124.504 140.5,125.5 Z"/></g>
<g><path style="opacity:1" fill="#cba67f" d="M 223.5,109.5 C 224.833,109.5 226.167,109.5 227.5,109.5C 227.66,111.153 228.326,112.486 229.5,113.5C 229.707,116.745 228.207,118.745 225,119.5C 224.667,118.5 224.333,117.5 224,116.5C 223.781,117.938 223.281,119.271 222.5,120.5C 221.313,121.653 220.313,121.653 219.5,120.5C 220.833,118.167 220.833,115.833 219.5,113.5C 219.285,111.821 219.952,110.821 221.5,110.5C 222.327,111.439 222.994,111.105 223.5,109.5 Z"/></g>
<g><path style="opacity:1" fill="#c2c3c2" d="M 252.5,110.5 C 260.528,110.169 268.528,110.502 276.5,111.5C 275.332,113.217 273.665,113.884 271.5,113.5C 268.26,112.153 264.76,111.486 261,111.5C 253.486,112.049 245.986,112.715 238.5,113.5C 236.933,113.523 235.6,113.023 234.5,112C 240.681,111.828 246.681,111.328 252.5,110.5 Z"/></g>
<g><path style="opacity:1" fill="#000000" d="M 166.5,111.5 C 169.059,111.198 171.393,111.532 173.5,112.5C 172.167,112.5 170.833,112.5 169.5,112.5C 169.715,114.179 169.048,115.179 167.5,115.5C 168.826,113.805 168.493,112.472 166.5,111.5 Z"/></g>
<g><path style="opacity:1" fill="#efc494" d="M 229.5,113.5 C 230.867,111.115 232.201,111.448 233.5,114.5C 233.167,115.5 232.5,116.167 231.5,116.5C 230.824,115.398 230.158,114.398 229.5,113.5 Z"/></g>
<g><path style="opacity:1" fill="#76868d" d="M 64.5,112.5 C 72.7964,110.505 76.7964,113.505 76.5,121.5C 72.2324,117.798 67.2324,115.965 61.5,116C 62.365,114.641 63.365,113.474 64.5,112.5 Z"/></g>
<g><path style="opacity:1" fill="#000000" d="M 156.5,112.5 C 158.527,112.338 160.527,112.505 162.5,113C 160.942,113.21 159.609,113.71 158.5,114.5C 157.167,114.5 156.5,113.833 156.5,112.5 Z"/></g>
<g><path style="opacity:1" fill="#c2c3c2" d="M 173.5,112.5 C 173.5,113.833 173.5,115.167 173.5,116.5C 171.265,116.795 169.265,116.461 167.5,115.5C 169.048,115.179 169.715,114.179 169.5,112.5C 170.833,112.5 172.167,112.5 173.5,112.5 Z"/></g>
<g><path style="opacity:1" fill="#e2b98c" d="M 219.5,113.5 C 220.833,115.833 220.833,118.167 219.5,120.5C 217.3,122.64 214.633,124.14 211.5,125C 207.887,133.313 203.554,133.646 198.5,126C 202.59,119.049 208.59,115.883 216.5,116.5C 216.121,113.433 217.121,112.433 219.5,113.5 Z"/></g>
<g><path style="opacity:1" fill="#000000" d="M 159.5,115.5 C 162.167,116.833 164.833,116.833 167.5,115.5C 169.265,116.461 171.265,116.795 173.5,116.5C 166.352,117.492 159.019,117.825 151.5,117.5C 152.531,116.751 153.698,116.085 155,115.5C 156.616,116.801 158.116,116.801 159.5,115.5 Z"/></g>
<g><path style="opacity:1" fill="#fefffe" d="M 258.5,115.5 C 259.552,115.351 260.552,115.517 261.5,116C 260.333,119.167 258.167,121.333 255,122.5C 254.742,125.686 253.075,127.686 250,128.5C 248.507,132.831 246.007,136.497 242.5,139.5C 234.207,143.098 225.874,146.598 217.5,150C 213.572,151.325 209.572,151.658 205.5,151C 212.379,145.243 216.379,137.91 217.5,129C 225.138,126.853 231.804,123.186 237.5,118C 244.649,117.163 251.649,116.33 258.5,115.5 Z M 246.5,118.5 C 244.369,119.314 242.036,119.814 239.5,120C 233.804,125.186 227.138,128.853 219.5,131C 218.428,137.055 216.094,142.555 212.5,147.5C 213,147.833 213.5,148.167 214,148.5C 222.891,144.971 231.724,141.305 240.5,137.5C 242.149,135.35 243.982,133.35 246,131.5C 246.518,128.054 248.352,125.721 251.5,124.5C 251.915,121.921 253.248,120.087 255.5,119C 252.518,118.502 249.518,118.335 246.5,118.5 Z"/></g>
<g><path style="opacity:1" fill="#fec90d" d="M 86.5,117.5 C 87.6484,121.981 87.8151,126.648 87,131.5C 85.2295,126.87 85.0628,122.203 86.5,117.5 Z"/></g>
<g><path style="opacity:1" fill="#8e5540" d="M 88.5,117.5 C 94.2102,117.471 99.8769,117.971 105.5,119C 100.029,122.239 94.6956,125.739 89.5,129.5C 88.5091,125.555 88.1758,121.555 88.5,117.5 Z"/></g>
<g><path style="opacity:1" fill="#66a351" d="M 103.5,124.5 C 105.805,127.407 107.138,130.741 107.5,134.5C 107.67,135.822 107.337,136.989 106.5,138C 98.5377,144.294 90.871,150.96 83.5,158C 79.7006,160.775 75.7006,161.942 71.5,161.5C 68.1184,158.433 64.9517,155.099 62,151.5C 61.3104,146.741 59.477,142.574 56.5,139C 55.1376,132.339 56.3042,126.173 60,120.5C 64.1172,118.03 68.2839,118.197 72.5,121C 74.2415,122.62 76.0748,124.12 78,125.5C 77.1826,133.662 80.6826,136.162 88.5,133C 93.0298,129.638 97.6965,126.471 102.5,123.5C 103.107,123.624 103.44,123.957 103.5,124.5 Z"/></g>
<g><path style="opacity:1" fill="#2b2826" d="M 112.5,119.5 C 118.212,122.827 120.045,127.827 118,134.5C 116.045,135.453 114.378,136.787 113,138.5C 111.579,134.677 110.579,130.677 110,126.5C 108.833,125.333 107.667,124.167 106.5,123C 108.727,122.059 110.727,120.892 112.5,119.5 Z"/></g>
<g><path style="opacity:1" fill="#c2c3c2" d="M 155.5,119.5 C 156.833,119.5 158.167,119.5 159.5,119.5C 159.5,120.5 159.5,121.5 159.5,122.5C 157.833,122.5 156.167,122.5 154.5,122.5C 154.657,123.873 154.49,125.207 154,126.5C 152.878,124.593 152.045,122.593 151.5,120.5C 153.099,120.768 154.432,120.434 155.5,119.5 Z"/></g>
<g><path style="opacity:1" fill="#2b2826" d="M 197.5,120.5 C 198.239,120.369 198.906,120.536 199.5,121C 195.47,124.957 195.803,128.623 200.5,132C 203.807,133.537 207.14,133.87 210.5,133C 208.818,137.352 206.318,141.186 203,144.5C 195.91,143.244 191.076,139.244 188.5,132.5C 191.509,128.47 194.509,124.47 197.5,120.5 Z"/></g>
<g><path style="opacity:1" fill="#df8826" d="M 140.5,125.5 C 139.766,126.708 139.433,128.041 139.5,129.5C 136.164,130.603 132.83,131.77 129.5,133C 126.518,133.498 123.518,133.665 120.5,133.5C 120.5,131.167 120.5,128.833 120.5,126.5C 121.601,125.152 122.601,123.652 123.5,122C 124.5,121.833 125.5,121.667 126.5,121.5C 131.354,122.265 136.02,123.598 140.5,125.5 Z"/></g>
<g><path style="opacity:1" fill="#2b2726" d="M 271.5,113.5 C 272.609,114.29 273.942,114.79 275.5,115C 273.606,120.123 270.939,124.79 267.5,129C 267.833,129.333 268.167,129.667 268.5,130C 266.792,132.043 264.792,133.71 262.5,135C 263.214,136.343 262.88,137.676 261.5,139C 256.674,140.817 252.674,143.817 249.5,148C 231.309,159.199 211.642,162.532 190.5,158C 178.35,155.013 168.184,148.846 160,139.5C 157.173,134.523 155.673,129.189 155.5,123.5C 156.5,123.5 157.5,123.5 158.5,123.5C 158.749,129.678 160.749,135.178 164.5,140C 179.995,152.386 197.662,157.719 217.5,156C 227.715,152.56 237.715,148.56 247.5,144C 250.76,140.575 253.426,136.741 255.5,132.5C 256.736,131.754 258.07,131.421 259.5,131.5C 258.887,127.488 260.554,125.488 264.5,125.5C 266.088,121.654 267.088,117.654 267.5,113.5C 268.833,113.5 270.167,113.5 271.5,113.5 Z M 175.5,125.5 C 173.052,126.473 170.385,126.806 167.5,126.5C 168.32,129.995 170.32,132.662 173.5,134.5C 177.649,132.692 180.315,129.692 181.5,125.5C 179.5,125.5 177.5,125.5 175.5,125.5 Z"/></g>
<g><path style="opacity:1" fill="#fefffe" d="M 173.5,123.5 C 177.846,123.334 182.179,123.501 186.5,124C 183.75,130.419 179.25,135.252 173,138.5C 167.845,135.192 165.012,130.525 164.5,124.5C 167.713,124.81 170.713,124.477 173.5,123.5 Z M 175.5,125.5 C 173.052,126.473 170.385,126.806 167.5,126.5C 168.32,129.995 170.32,132.662 173.5,134.5C 177.649,132.692 180.315,129.692 181.5,125.5C 179.5,125.5 177.5,125.5 175.5,125.5 Z"/></g>
<g><path style="opacity:1" fill="#fefffe" d="M 103.5,124.5 C 106.148,124.738 107.982,126.072 109,128.5C 110.184,132.449 110.518,136.449 110,140.5C 109.722,139.584 109.222,138.918 108.5,138.5C 108.768,136.901 108.434,135.568 107.5,134.5C 107.138,130.741 105.805,127.407 103.5,124.5 Z"/></g>
<g><path style="opacity:1" fill="#fec90d" d="M 151.5,129.5 C 149.241,132.689 146.241,133.356 142.5,131.5C 140.985,129.082 141.651,127.415 144.5,126.5C 147.238,126.887 149.572,127.887 151.5,129.5 Z"/></g>
<g><path style="opacity:1" fill="#396c3d" d="M 151.5,129.5 C 153.408,133.356 155.241,137.356 157,141.5C 160.5,145 164,148.5 167.5,152C 174.364,155.311 181.364,158.478 188.5,161.5C 185.795,166.373 181.961,170.039 177,172.5C 167.266,167.049 157.766,161.216 148.5,155C 146.323,153.798 143.989,153.298 141.5,153.5C 140.833,146.167 140.167,138.833 139.5,131.5C 140.5,131.5 141.5,131.5 142.5,131.5C 146.241,133.356 149.241,132.689 151.5,129.5 Z"/></g>
<g><path style="opacity:1" fill="#3f7043" d="M 128.5,141.5 C 126.545,140.553 126.211,139.219 127.5,137.5C 129.167,136.167 130.833,134.833 132.5,133.5C 133.72,134.711 134.887,134.711 136,133.5C 141.345,143.552 138.845,146.218 128.5,141.5 Z"/></g>
<g><path style="opacity:1" fill="#fefffe" d="M 199.5,147.5 C 193.073,146.621 188.407,143.288 185.5,137.5C 185.811,136.522 186.478,135.855 187.5,135.5C 190.307,141.473 194.974,144.973 201.5,146C 200.956,146.717 200.289,147.217 199.5,147.5 Z"/></g>
<g><path style="opacity:1" fill="#3a6f3f" d="M 107.5,134.5 C 108.434,135.568 108.768,136.901 108.5,138.5C 108.657,139.873 108.49,141.207 108,142.5C 103.64,146.032 99.4732,149.699 95.5,153.5C 90.8662,157.156 85.8662,160.322 80.5,163C 77.1769,163.932 74.1769,163.432 71.5,161.5C 75.7006,161.942 79.7006,160.775 83.5,158C 90.871,150.96 98.5377,144.294 106.5,138C 107.337,136.989 107.67,135.822 107.5,134.5 Z"/></g>
<g><path style="opacity:1" fill="#356439" d="M 185.5,137.5 C 188.407,143.288 193.073,146.621 199.5,147.5C 198.48,149.352 196.98,150.685 195,151.5C 188.172,150.006 182.005,147.173 176.5,143C 179.829,141.671 182.829,139.837 185.5,137.5 Z"/></g>
<g><path style="opacity:1" fill="#870014" d="M 112.5,140.5 C 113.559,142.07 113.059,143.403 111,144.5C 110.7,142.934 111.2,141.601 112.5,140.5 Z"/></g>
<g><path style="opacity:1" fill="#c2c3c2" d="M 128.5,141.5 C 128.361,143.337 127.694,143.67 126.5,142.5C 126.957,141.702 127.624,141.369 128.5,141.5 Z"/></g>
<g><path style="opacity:1" fill="#fec90d" d="M 118.5,149.5 C 111.666,148.84 110.999,146.507 116.5,142.5C 119.503,144.178 120.169,146.511 118.5,149.5 Z"/></g>
<g><path style="opacity:1" fill="#3c7240" d="M 108.5,144.5 C 109.525,144.897 109.692,145.563 109,146.5C 105.368,149.13 102.035,152.13 99,155.5C 98.3333,154.833 98.3333,154.167 99,153.5C 102.062,150.268 105.229,147.268 108.5,144.5 Z"/></g>
<g><path style="opacity:1" fill="#3c0f0c" d="M 115.5,144.5 C 118.861,145.203 119.194,146.537 116.5,148.5C 114.358,147.563 114.024,146.23 115.5,144.5 Z"/></g>
<g><path style="opacity:1" fill="#2b2826" d="M 122.5,145.5 C 127.833,145.5 133.167,145.5 138.5,145.5C 138.421,146.93 138.754,148.264 139.5,149.5C 133.526,150.206 127.526,150.04 121.5,149C 121.043,148.586 120.709,148.086 120.5,147.5C 121.243,146.818 121.909,146.151 122.5,145.5 Z"/></g>
<g><path style="opacity:1" fill="#800314" d="M 118.5,149.5 C 123.728,153.706 128.895,158.04 134,162.5C 135.25,165.077 135.584,167.743 135,170.5C 133.533,167.213 131.366,164.546 128.5,162.5C 126.833,161.5 125.5,160.167 124.5,158.5C 122.252,155.084 119.252,152.584 115.5,151C 116.737,150.768 117.737,150.268 118.5,149.5 Z"/></g>
<g><path style="opacity:1" fill="#3c7240" d="M 124.5,152.5 C 125.274,151.853 126.274,151.52 127.5,151.5C 130.5,152 133.5,152.5 136.5,153C 135.745,155.175 134.912,157.341 134,159.5C 130.956,156.949 127.789,154.616 124.5,152.5 Z"/></g>
<g><path style="opacity:1" fill="#c2c3c2" d="M 95.5,153.5 C 97.337,153.639 97.6704,154.306 96.5,155.5C 95.7025,155.043 95.3691,154.376 95.5,153.5 Z"/></g>
<g><path style="opacity:1" fill="#a4a4a4" d="M 120.5,158.5 C 119.5,160.167 118.167,161.5 116.5,162.5C 112.663,159.661 112.83,156.661 117,153.5C 118.802,154.789 119.969,156.456 120.5,158.5 Z"/></g>
<g><path style="opacity:1" fill="#2b2826" d="M 111.5,154.5 C 112.525,154.897 112.692,155.563 112,156.5C 103.304,165.531 94.3036,174.197 85,182.5C 83.9326,181.809 82.7659,181.309 81.5,181C 92.8813,173.789 102.881,164.955 111.5,154.5 Z"/></g>
<g><path style="opacity:1" fill="#3c7240" d="M 63.5,156.5 C 64.4286,157.936 65.5952,159.269 67,160.5C 67.6877,161.332 67.521,161.998 66.5,162.5C 64.4469,161.061 63.4469,159.061 63.5,156.5 Z"/></g>
<g><path style="opacity:1" fill="#3c7240" d="M 94.5,156.5 C 95.552,156.351 96.552,156.517 97.5,157C 95.9573,160 93.9573,160.666 91.5,159C 92.5707,158.148 93.5707,157.315 94.5,156.5 Z"/></g>
<g><path style="opacity:1" fill="#2d5530" d="M 104.5,156.5 C 105.525,156.897 105.692,157.563 105,158.5C 94.7251,169.127 83.0585,177.794 70,184.5C 68.5806,183.54 67.0806,182.707 65.5,182C 69.7272,180.855 74.0606,179.855 78.5,179C 87.9497,172.382 96.6164,164.882 104.5,156.5 Z"/></g>
<g><path style="opacity:1" fill="#fec90d" d="M 120.5,158.5 C 121.833,158.5 123.167,158.5 124.5,158.5C 125.5,160.167 126.833,161.5 128.5,162.5C 128.5,163.5 128.5,164.5 128.5,165.5C 126.091,166.701 124.091,168.367 122.5,170.5C 119.313,168.656 117.313,165.989 116.5,162.5C 118.167,161.5 119.5,160.167 120.5,158.5 Z"/></g>
<g><path style="opacity:1" fill="#870014" d="M 61.5,160.5 C 63.0672,161.681 63.9005,163.347 64,165.5C 64.4993,170.489 64.6659,175.489 64.5,180.5C 60.1654,180.083 55.8321,179.583 51.5,179C 54.354,175.208 54.0206,171.875 50.5,169C 54.2355,166.147 57.9021,163.313 61.5,160.5 Z"/></g>
<g><path style="opacity:1" fill="#63a050" d="M 88.5,160.5 C 89.9538,161.52 90.2871,162.687 89.5,164C 82.6542,168.926 75.3209,173.092 67.5,176.5C 66.1667,172.5 66.1667,168.5 67.5,164.5C 69.3432,163.061 71.0099,163.228 72.5,165C 78.797,166.555 84.1303,165.055 88.5,160.5 Z"/></g>
<g><path style="opacity:1" fill="#66a551" d="M 119.5,173.5 C 118.475,173.897 118.308,174.563 119,175.5C 119.977,176.774 120.811,176.774 121.5,175.5C 122.117,175.389 122.617,175.056 123,174.5C 126.338,177.008 129.505,179.675 132.5,182.5C 130.343,183.79 128.01,184.624 125.5,185C 118.508,185.5 111.508,185.666 104.5,185.5C 104.334,179.158 104.5,172.825 105,166.5C 107,164.5 109,162.5 111,160.5C 113.412,164.916 116.578,168.749 120.5,172C 119.944,172.383 119.611,172.883 119.5,173.5 Z"/></g>
<g><path style="opacity:1" fill="#5e5e5e" d="M 121.5,159.5 C 123.196,159.685 124.529,160.519 125.5,162C 124,163.5 122.5,165 121,166.5C 119.978,165.646 119.145,164.646 118.5,163.5C 119.524,162.148 120.524,160.815 121.5,159.5 Z"/></g>
<g><path style="opacity:1" fill="#aaaaaa" d="M 128.5,165.5 C 131.135,168.079 133.301,171.079 135,174.5C 135.635,176.635 135.301,178.635 134,180.5C 129.974,177.302 126.141,173.968 122.5,170.5C 124.091,168.367 126.091,166.701 128.5,165.5 Z"/></g>
<g><path style="opacity:1" fill="#4f4f4f" d="M 107.5,165.5 C 111.095,166.905 111.262,168.572 108,170.5C 107.167,169.667 106.333,168.833 105.5,168C 106.381,167.292 107.047,166.458 107.5,165.5 Z"/></g>
<g><path style="opacity:1" fill="#66a551" d="M 96.5,186.5 C 95.8333,185.5 95.1667,184.5 94.5,183.5C 93.8333,182.167 93.1667,182.167 92.5,183.5C 91.1136,185.593 89.4469,185.426 87.5,183C 88.6853,181.647 90.0186,180.48 91.5,179.5C 94.6018,180.893 95.6018,180.06 94.5,177C 97.3333,174.167 100.167,171.333 103,168.5C 103.499,174.157 103.666,179.824 103.5,185.5C 100.941,185.198 98.6074,185.532 96.5,186.5 Z"/></g>
<g><path style="opacity:1" fill="#fec90d" d="M 48.5,171.5 C 49.9778,171.238 51.3112,171.571 52.5,172.5C 51.4314,175.539 50.2647,178.539 49,181.5C 46.175,183.006 44.3416,182.173 43.5,179C 44.5892,176.084 46.2558,173.584 48.5,171.5 Z"/></g>
<g><path style="opacity:1" fill="#870014" d="M 136.5,173.5 C 137.793,172.355 138.959,172.689 140,174.5C 141.455,177.912 143.288,181.079 145.5,184C 144.552,184.483 143.552,184.649 142.5,184.5C 142.649,185.552 142.483,186.552 142,187.5C 140.939,184.438 139.106,181.938 136.5,180C 137.811,177.726 137.811,175.56 136.5,173.5 Z"/></g>
<g><path style="opacity:1" fill="#555555" d="M 106.5,172.5 C 109.166,172.066 110.333,173.066 110,175.5C 106.403,177.066 105.237,176.066 106.5,172.5 Z"/></g>
<g><path style="opacity:1" fill="#707070" d="M 119.5,173.5 C 120.833,173.5 121.5,174.167 121.5,175.5C 120.811,176.774 119.977,176.774 119,175.5C 118.308,174.563 118.475,173.897 119.5,173.5 Z"/></g>
<g><path style="opacity:1" fill="#555555" d="M 106.5,178.5 C 109.166,178.066 110.333,179.066 110,181.5C 106.403,183.066 105.237,182.066 106.5,178.5 Z"/></g>
<g><path style="opacity:1" fill="#4f4f4f" d="M 119.5,178.5 C 122.861,179.203 123.194,180.537 120.5,182.5C 118.358,181.563 118.024,180.23 119.5,178.5 Z"/></g>
<g><path style="opacity:1" fill="#004664" d="M 134.5,182.5 C 136.017,182.511 137.184,183.177 138,184.5C 138.833,187 139.667,189.5 140.5,192C 138.8,195.232 136.966,198.399 135,201.5C 133.171,195.202 133.004,188.869 134.5,182.5 Z"/></g>
<g><path style="opacity:1" fill="#282524" d="M 78.5,183.5 C 83.5397,184.015 88.2064,185.682 92.5,188.5C 91.4478,190.11 91.4478,191.777 92.5,193.5C 90.0389,202.933 84.5389,205.266 76,200.5C 74.8676,196.812 74.5343,192.812 75,188.5C 75.2572,186.093 76.4238,184.427 78.5,183.5 Z"/></g>
<g><path style="opacity:1" fill="#989898" d="M 94.5,183.5 C 93.8333,187.5 93.1667,187.5 92.5,183.5C 93.1667,182.167 93.8333,182.167 94.5,183.5 Z"/></g>
<g><path style="opacity:1" fill="#2b2826" d="M 65.5,185.5 C 68.1656,185.933 70.8323,186.433 73.5,187C 72.8747,189.8 72.208,192.634 71.5,195.5C 68.9439,196.051 66.6106,197.051 64.5,198.5C 64.1667,198.167 63.8333,197.833 63.5,197.5C 64.3296,193.531 64.9963,189.531 65.5,185.5 Z"/></g>
<g><path style="opacity:1" fill="#2b2826" d="M 130.5,185.5 C 131.376,185.369 132.043,185.702 132.5,186.5C 131.894,188.709 131.227,190.876 130.5,193C 125.675,194.895 120.675,195.728 115.5,195.5C 115.5,192.833 115.5,190.167 115.5,187.5C 120.783,187.904 125.783,187.238 130.5,185.5 Z"/></g>
<g><path style="opacity:1" fill="#fec90d" d="M 143.5,185.5 C 144.5,185.5 145.5,185.5 146.5,185.5C 145.5,190.833 144.5,190.833 143.5,185.5 Z"/></g>
<g><path style="opacity:1" fill="#fec90d" d="M 96.5,186.5 C 97.7773,187.694 98.4439,189.36 98.5,191.5C 98.1667,193.167 97.8333,194.833 97.5,196.5C 96.513,193.232 96.1796,189.898 96.5,186.5 Z"/></g>
<g><path style="opacity:1" fill="#fec90d" d="M 114.5,196.5 C 113.235,195.486 112.569,193.986 112.5,192C 112.423,189.949 112.923,188.116 114,186.5C 114.498,189.817 114.665,193.15 114.5,196.5 Z"/></g>
<g><path style="opacity:1" fill="#292625" d="M 43.5,188.5 C 47.3664,188.954 50.8664,190.288 54,192.5C 54.3553,198.23 53.8553,203.897 52.5,209.5C 50.4176,209.528 48.5843,208.861 47,207.5C 44.9806,210.712 42.1473,212.378 38.5,212.5C 39.8626,205.221 41.0293,197.887 42,190.5C 42.7172,189.956 43.2172,189.289 43.5,188.5 Z"/></g>
<g><path style="opacity:1" fill="#fec90d" d="M 101.5,189.5 C 103.842,189.775 103.842,190.608 101.5,192C 102,192.5 102.5,193 103,193.5C 104.745,192.044 106.578,190.711 108.5,189.5C 112.659,192.322 112.326,193.822 107.5,194C 109.271,193.465 109.604,192.631 108.5,191.5C 106.25,193.798 103.584,194.631 100.5,194C 99.4186,192.289 99.752,190.789 101.5,189.5 Z"/></g>
<g><path style="opacity:1" fill="#fec90d" d="M 141.5,209.5 C 144.448,204.065 145.114,198.399 143.5,192.5C 143.369,191.624 143.702,190.957 144.5,190.5C 147.196,197.219 147.029,203.885 144,210.5C 142.539,211.883 141.706,211.549 141.5,209.5 Z"/></g>
<g><path style="opacity:1" fill="#8c6c0a" d="M 143.5,192.5 C 145.114,198.399 144.448,204.065 141.5,209.5C 138.329,210.741 136.329,209.574 135.5,206C 137.808,201.205 140.475,196.705 143.5,192.5 Z"/></g>
<g><path style="opacity:1" fill="#c2c3c2" d="M 81.5,194.5 C 83.337,194.639 83.6704,195.306 82.5,196.5C 81.7025,196.043 81.3691,195.376 81.5,194.5 Z"/></g>
<g><path style="opacity:1" fill="#66a551" d="M 119.5,200.5 C 120.833,199.833 120.833,199.167 119.5,198.5C 122.855,197.449 126.355,196.449 130,195.5C 132.157,196.385 132.99,198.052 132.5,200.5C 127.917,200.667 123.584,200.667 119.5,200.5 Z"/></g>
<g><path style="opacity:1" fill="#6aa355" d="M 114.5,196.5 C 115.71,196.932 116.71,197.599 117.5,198.5C 116.167,199.167 116.167,199.833 117.5,200.5C 117.389,201.117 117.056,201.617 116.5,202C 108.276,204.369 100.276,203.869 92.5,200.5C 92.9619,198.709 94.1285,197.709 96,197.5C 99.2586,198.466 102.259,199.8 105,201.5C 106,198.833 107,198.833 108,201.5C 110.54,200.232 112.706,198.566 114.5,196.5 Z"/></g>
<g><path style="opacity:1" fill="#66a551" d="M 72.5,197.5 C 73.2485,198.531 73.9152,199.698 74.5,201C 70.4561,202.175 66.7894,204.008 63.5,206.5C 62.1667,205.167 62.1667,203.833 63.5,202.5C 66.3313,200.291 69.3313,198.624 72.5,197.5 Z"/></g>
<g><path style="opacity:1" fill="#707070" d="M 117.5,198.5 C 118.167,198.5 118.833,198.5 119.5,198.5C 120.833,199.167 120.833,199.833 119.5,200.5C 118.833,200.5 118.167,200.5 117.5,200.5C 116.167,199.833 116.167,199.167 117.5,198.5 Z"/></g>
<g><path style="opacity:1" fill="#add5cf" d="M 103.5,216.5 C 102.343,219.273 101.676,222.273 101.5,225.5C 100.59,227.019 99.7568,228.685 99,230.5C 96.4112,228.789 93.9112,226.955 91.5,225C 90.2411,224.018 88.9078,223.685 87.5,224C 90.3351,228.001 93.6684,231.501 97.5,234.5C 97.4484,237.346 96.4484,239.68 94.5,241.5C 91.1983,238.026 88.0316,234.359 85,230.5C 86.6816,235.526 89.1816,240.192 92.5,244.5C 90.3998,247.793 89.0664,251.46 88.5,255.5C 86.093,251.69 83.9263,247.69 82,243.5C 83.1541,248.844 84.6541,254.177 86.5,259.5C 85.8506,263.787 85.6839,268.12 86,272.5C 82.0361,275.912 81.5361,279.745 84.5,284C 83.3789,290.079 82.5456,296.246 82,302.5C 81.3431,315.271 80.8431,327.938 80.5,340.5C 73.7816,344.311 66.4483,345.478 58.5,344C 57.9747,343.308 57.3081,342.808 56.5,342.5C 56.3818,324.553 56.3818,306.553 56.5,288.5C 64.1991,294.589 72.1991,294.923 80.5,289.5C 72.6786,285.273 64.6786,284.606 56.5,287.5C 58.7625,278.877 60.0958,270.21 60.5,261.5C 60.3494,258.547 59.6827,255.714 58.5,253C 60.5471,246.026 60.8804,239.026 59.5,232C 61.7352,224.74 62.9018,217.24 63,209.5C 66.6838,206.607 70.6838,204.274 75,202.5C 77.5541,203.776 80.2208,204.776 83,205.5C 85.9555,204.626 88.9555,203.959 92,203.5C 95.7845,204.485 99.6179,205.151 103.5,205.5C 103.5,209.167 103.5,212.833 103.5,216.5 Z"/></g>
<g><path style="opacity:1" fill="#add7d0" d="M 136.5,305.5 C 140.537,304.796 142.87,302.463 143.5,298.5C 142.325,298.719 141.325,298.386 140.5,297.5C 145.248,294.921 149.581,291.755 153.5,288C 145.861,287.561 139.861,290.395 135.5,296.5C 135.783,290.321 134.95,284.321 133,278.5C 122.931,266.029 113.598,253.029 105,239.5C 102.834,238.269 100.667,237.269 98.5,236.5C 107.764,233.587 116.097,228.92 123.5,222.5C 116.335,223.213 109.335,225.213 102.5,228.5C 101.614,227.675 101.281,226.675 101.5,225.5C 109.089,222.037 116.423,218.037 123.5,213.5C 123,213.167 122.5,212.833 122,212.5C 119.901,213.287 117.734,213.62 115.5,213.5C 116.391,210.373 116.725,207.373 116.5,204.5C 122.039,202.875 127.705,202.208 133.5,202.5C 133.889,207.504 134.389,212.504 135,217.5C 146.332,237.832 156.332,258.832 165,280.5C 165.127,298.555 166.127,316.555 168,334.5C 169.039,336.746 170.206,338.913 171.5,341C 162.797,350.793 155.964,349.626 151,337.5C 150.65,324.466 149.817,311.466 148.5,298.5C 148.559,314.827 148.226,331.16 147.5,347.5C 145.418,347.528 143.584,346.861 142,345.5C 144.027,331.571 142.194,318.238 136.5,305.5 Z"/></g>
<g><path style="opacity:1" fill="#000000" d="M 91.5,204.5 C 97.5158,210.454 96.5158,215.12 88.5,218.5C 87.479,217.998 87.3123,217.332 88,216.5C 94.0994,214.157 94.9328,210.657 90.5,206C 91.056,205.617 91.3893,205.117 91.5,204.5 Z"/></g>
<g><path style="opacity:1" fill="#add7d0" d="M 115.5,213.5 C 112.039,214.866 108.373,215.866 104.5,216.5C 104.5,212.833 104.5,209.167 104.5,205.5C 107.448,205.777 110.281,205.444 113,204.5C 114.502,206.795 114.668,209.128 113.5,211.5C 113.747,212.713 114.414,213.38 115.5,213.5 Z"/></g>
<g><path style="opacity:1" fill="#000000" d="M 78.5,211.5 C 79.4734,211.987 80.4734,212.487 81.5,213C 79.8425,213.725 78.8425,213.225 78.5,211.5 Z"/></g>
<g><path style="opacity:1" fill="#e1ce71" d="M 136.5,211.5 C 144.407,212.816 146.574,217.149 143,224.5C 140.274,220.381 138.107,216.048 136.5,211.5 Z"/></g>
<g><path style="opacity:1" fill="#5d8584" d="M 101.5,225.5 C 101.676,222.273 102.343,219.273 103.5,216.5C 103.833,216.5 104.167,216.5 104.5,216.5C 108.373,215.866 112.039,214.866 115.5,213.5C 117.734,213.62 119.901,213.287 122,212.5C 122.5,212.833 123,213.167 123.5,213.5C 116.423,218.037 109.089,222.037 101.5,225.5 Z"/></g>
<g><path style="opacity:1" fill="#608989" d="M 98.5,236.5 C 98.6716,235.508 98.3382,234.842 97.5,234.5C 93.6684,231.501 90.3351,228.001 87.5,224C 88.9078,223.685 90.2411,224.018 91.5,225C 93.9112,226.955 96.4112,228.789 99,230.5C 99.7568,228.685 100.59,227.019 101.5,225.5C 101.281,226.675 101.614,227.675 102.5,228.5C 109.335,225.213 116.335,223.213 123.5,222.5C 116.097,228.92 107.764,233.587 98.5,236.5 Z"/></g>
<g><path style="opacity:1" fill="#669290" d="M 94.5,241.5 C 93.8333,242.5 93.1667,243.5 92.5,244.5C 89.1816,240.192 86.6816,235.526 85,230.5C 88.0316,234.359 91.1983,238.026 94.5,241.5 Z"/></g>
<g><path style="opacity:1" fill="#669290" d="M 88.5,255.5 C 90.0024,257.829 89.3357,259.163 86.5,259.5C 84.6541,254.177 83.1541,248.844 82,243.5C 83.9263,247.69 86.093,251.69 88.5,255.5 Z"/></g>
<g><path style="opacity:1" fill="#669290" d="M 56.5,288.5 C 56.5,288.167 56.5,287.833 56.5,287.5C 64.6786,284.606 72.6786,285.273 80.5,289.5C 72.1991,294.923 64.1991,294.589 56.5,288.5 Z"/></g>
<g><path style="opacity:1" fill="#669290" d="M 136.5,305.5 C 135.523,302.713 135.19,299.713 135.5,296.5C 139.861,290.395 145.861,287.561 153.5,288C 149.581,291.755 145.248,294.921 140.5,297.5C 141.325,298.386 142.325,298.719 143.5,298.5C 142.87,302.463 140.537,304.796 136.5,305.5 Z"/></g>
<g><path style="opacity:1" fill="#000000" d="M 57.5,295.5 C 65.6873,295.452 73.0206,297.786 79.5,302.5C 77.5704,305.153 74.9037,306.486 71.5,306.5C 68.108,306.111 64.7746,305.444 61.5,304.5C 66.5594,304.265 71.5594,303.765 76.5,303C 70.1255,300.061 63.7921,297.561 57.5,295.5 Z"/></g>
<g><path style="opacity:1" fill="#525e63" d="M 58.5,346.5 C 64.8682,346.17 71.2015,346.504 77.5,347.5C 77.9312,348.293 78.2645,349.127 78.5,350C 76.4396,355.132 75.1062,360.465 74.5,366C 68.4051,366.624 62.4051,366.124 56.5,364.5C 56.9089,361.009 57.9089,357.675 59.5,354.5C 59.0609,352.896 58.3943,351.396 57.5,350C 57.9891,348.862 58.3225,347.695 58.5,346.5 Z"/></g>
<g><path style="opacity:1" fill="#515c62" d="M 149.5,340.5 C 151.106,345.014 154.106,348.348 158.5,350.5C 162.087,348.732 165.753,348.399 169.5,349.5C 172.333,354.166 176,357.999 180.5,361C 177.707,363.607 174.374,365.273 170.5,366C 162.5,366.667 154.5,366.667 146.5,366C 143.115,363.636 142.615,360.803 145,357.5C 148.882,359.441 152.882,361.108 157,362.5C 161.133,361.542 164.299,359.208 166.5,355.5C 166.167,355.167 165.833,354.833 165.5,354.5C 158.977,357.143 152.311,357.81 145.5,356.5C 145.5,355.5 145.5,354.5 145.5,353.5C 147.199,353.66 148.866,353.494 150.5,353C 147.151,352.911 146.651,351.744 149,349.5C 149.498,346.518 149.665,343.518 149.5,340.5 Z"/></g>
</svg>
