<?xml version="1.0" encoding="UTF-8"?>
<!DOCTYPE svg PUBLIC "-//W3C//DTD SVG 1.1//EN" "http://www.w3.org/Graphics/SVG/1.1/DTD/svg11.dtd">
<svg xmlns="http://www.w3.org/2000/svg" version="1.1" width="278px" height="344px" style="shape-rendering:geometricPrecision; text-rendering:geometricPrecision; image-rendering:optimizeQuality; fill-rule:evenodd; clip-rule:evenodd" xmlns:xlink="http://www.w3.org/1999/xlink">
<g><path style="opacity:1" fill="#fefefe" d="M 116.5,66.5 C 124.641,66.4805 127.808,70.4805 126,78.5C 124.722,81.7206 123.889,85.054 123.5,88.5C 134.2,88.3045 144.867,88.8045 155.5,90C 159.292,92.0527 160.458,95.2194 159,99.5C 156.988,107.882 154.821,116.215 152.5,124.5C 153.974,128.731 154.974,133.064 155.5,137.5C 158.785,137.736 161.785,138.736 164.5,140.5C 168.727,138.499 171.893,139.499 174,143.5C 174.326,147.53 174.326,151.53 174,155.5C 181.704,162.873 189.704,169.873 198,176.5C 199.13,183.232 199.63,190.065 199.5,197C 199.54,205.627 199.04,214.127 198,222.5C 203.074,224.525 208.241,226.359 213.5,228C 217.212,230.602 218.378,234.102 217,238.5C 215.878,242.493 214.378,246.326 212.5,250C 210.801,250.958 208.967,251.458 207,251.5C 202.422,250.628 198.255,248.795 194.5,246C 188.98,240.979 183.314,236.146 177.5,231.5C 177.167,232.5 176.833,233.5 176.5,234.5C 182.297,260.653 187.131,286.986 191,313.5C 196.223,317.324 198.556,322.324 198,328.5C 196.829,329.893 195.329,330.727 193.5,331C 188.167,331.667 182.833,331.667 177.5,331C 175.361,327.527 172.527,324.694 169,322.5C 168.222,319.816 166.889,317.483 165,315.5C 164.9,291.203 157.234,269.537 142,250.5C 138.329,251.502 135.329,253.502 133,256.5C 132.667,264.833 132.333,273.167 132,281.5C 128.379,282.913 124.879,282.58 121.5,280.5C 121.167,281 120.833,281.5 120.5,282C 120.935,290.821 121.935,299.488 123.5,308C 123.428,314.022 123.261,320.189 123,326.5C 118.564,329.693 113.564,331.027 108,330.5C 104.082,331.041 100.749,330.041 98,327.5C 99.0442,320.985 99.8776,314.319 100.5,307.5C 99.8844,297.497 99.2177,287.497 98.5,277.5C 99.2222,268.449 100.222,259.449 101.5,250.5C 93.7,242.416 93.5334,234.083 101,225.5C 101.29,223.048 101.956,220.715 103,218.5C 106.265,216.117 109.765,214.117 113.5,212.5C 114.432,209.47 115.765,206.637 117.5,204C 111.305,202.727 104.972,201.727 98.5,201C 96.2097,198.921 94.5431,196.421 93.5,193.5C 80.5,187.333 67.5,181.167 54.5,175C 50.7333,170.633 50.5667,166.133 54,161.5C 54.956,160.106 56.2894,159.439 58,159.5C 71.5269,165.066 85.0269,170.732 98.5,176.5C 99.086,176.291 99.586,175.957 100,175.5C 101.152,170.04 102.985,164.874 105.5,160C 100.461,152.655 102.127,147.489 110.5,144.5C 113.189,140.689 112.689,137.689 109,135.5C 108.333,133.833 108.333,132.167 109,130.5C 110.667,129.167 112.333,127.833 114,126.5C 113.975,116.303 112.808,106.303 110.5,96.5C 110.724,93.5561 111.39,90.7227 112.5,88C 109.009,79.8948 110.343,72.7281 116.5,66.5 Z"/></g>
<g><path style="opacity:1" fill="#010000" d="M 193.5,224.5 C 193.167,224.5 192.833,224.5 192.5,224.5C 193.299,221.57 193.632,218.57 193.5,215.5C 189.325,215.812 185.325,215.145 181.5,213.5C 179.787,213.879 178.787,214.879 178.5,216.5C 177.508,216.672 176.842,216.338 176.5,215.5C 177.479,214.235 178.479,212.901 179.5,211.5C 178.104,210.148 177.437,208.481 177.5,206.5C 182.067,195.667 179.567,187.001 170,180.5C 168.263,185.212 166.43,189.878 164.5,194.5C 167.688,201.405 171.354,208.072 175.5,214.5C 173.128,212.852 171.794,213.519 171.5,216.5C 172.374,219.535 173.374,222.535 174.5,225.5C 174.656,228.066 174.322,230.566 173.5,233C 179.333,258.667 184.333,284.5 188.5,310.5C 188.471,312.029 187.804,313.196 186.5,314C 201.213,326.019 198.88,331.019 179.5,329C 177.361,325.527 174.527,322.694 171,320.5C 169.965,317.204 168.465,314.204 166.5,311.5C 166.842,300.217 165.008,289.217 161,278.5C 156.728,266.929 150.728,256.595 143,247.5C 138.228,248.551 134.228,250.885 131,254.5C 130.667,262.833 130.333,271.167 130,279.5C 124.744,280.598 122.077,278.265 122,272.5C 121.439,274.725 120.439,276.725 119,278.5C 119.099,287.484 119.432,296.484 120,305.5C 122.015,307.478 121.848,309.312 119.5,311C 125.3,323.197 121.467,329.03 108,328.5C 102.407,329.231 99.7401,326.898 100,321.5C 101.308,319.359 102.808,317.359 104.5,315.5C 102.239,313.11 101.906,310.443 103.5,307.5C 99.666,288.496 99.666,269.496 103.5,250.5C 101.096,246.745 99.0955,242.745 97.5,238.5C 100.278,232.611 102.778,226.611 105,220.5C 108.265,218.117 111.765,216.117 115.5,214.5C 117.167,210.5 118.833,206.5 120.5,202.5C 117.331,199.819 113.831,199.152 110,200.5C 102.526,201.585 97.6929,198.585 95.5,191.5C 82.953,185.393 70.2863,179.56 57.5,174C 55.3524,170.488 55.019,166.821 56.5,163C 70.6213,167.466 84.4546,172.966 98,179.5C 99.3333,178.833 100.667,178.167 102,177.5C 102.926,170.923 105.426,165.089 109.5,160C 106.208,157.588 105.041,154.421 106,150.5C 108.796,148.114 111.963,146.281 115.5,145C 114.584,144.722 113.918,144.222 113.5,143.5C 112.957,143.44 112.624,143.107 112.5,142.5C 113.959,140.417 115.292,138.25 116.5,136C 114.026,135.887 112.026,134.887 110.5,133C 113.513,131.321 115.846,128.987 117.5,126C 116.275,116.006 114.609,106.173 112.5,96.5C 115.142,90.9409 115.142,85.4409 112.5,80C 112.951,75.4282 114.951,71.7616 118.5,69C 120.745,69.1953 122.578,70.3619 124,72.5C 123.04,78.4681 121.873,84.4681 120.5,90.5C 131.533,90.2913 142.533,90.7913 153.5,92C 154.931,92.4652 156.097,93.2986 157,94.5C 155.379,104.818 152.879,114.985 149.5,125C 151.669,128.843 152.669,133.009 152.5,137.5C 150.897,137.312 149.563,137.812 148.5,139C 154.728,138.967 160.228,140.8 165,144.5C 168.965,140.53 171.465,141.53 172.5,147.5C 171.504,150.797 171.337,154.131 172,157.5C 178.207,163.375 184.707,168.875 191.5,174C 193.709,175.873 195.542,178.04 197,180.5C 197.667,191.5 197.667,202.5 197,213.5C 196.239,217.395 195.072,221.062 193.5,224.5 Z"/></g>
<g><path style="opacity:1" fill="#f44336" d="M 121.5,77.5 C 119.5,77.1667 117.5,76.8333 115.5,76.5C 115.666,72.4711 117.499,71.1378 121,72.5C 121.494,74.1341 121.66,75.8008 121.5,77.5 Z"/></g>
<g><path style="opacity:1" fill="#1c8e25" d="M 115.5,76.5 C 117.5,76.8333 119.5,77.1667 121.5,77.5C 120.173,82.1379 118.84,86.8046 117.5,91.5C 116.97,87.4709 115.97,83.6376 114.5,80C 114.989,78.8615 115.322,77.6948 115.5,76.5 Z"/></g>
<g><path style="opacity:1" fill="#fe7f26" d="M 118.5,94.5 C 119.833,95.8333 119.833,97.1667 118.5,98.5C 117.833,98.5 117.5,98.8333 117.5,99.5C 117.167,99.5 116.833,99.5 116.5,99.5C 113.748,96.0164 114.415,94.3497 118.5,94.5 Z"/></g>
<g><path style="opacity:1" fill="#1e1d1d" d="M 118.5,98.5 C 119.833,97.1667 119.833,95.8333 118.5,94.5C 130.938,93.0803 143.271,93.5803 155.5,96C 154.62,97.3561 154.286,98.8561 154.5,100.5C 142.611,97.6799 130.611,97.0132 118.5,98.5 Z"/></g>
<g><path style="opacity:1" fill="#3c3c3c" d="M 118.5,121.5 C 122.96,120.284 125.293,117.284 125.5,112.5C 122.733,112.142 120.067,111.475 117.5,110.5C 117.5,109.5 117.5,108.5 117.5,107.5C 119.547,107.511 121.547,107.844 123.5,108.5C 126.185,108.292 126.851,107.125 125.5,105C 122.522,104.304 119.522,103.804 116.5,103.5C 116.074,101.861 116.074,100.528 116.5,99.5C 116.833,99.5 117.167,99.5 117.5,99.5C 122.866,99.6769 128.2,99.3436 133.5,98.5C 140.18,99.5018 146.846,100.502 153.5,101.5C 152.008,109.979 149.674,118.146 146.5,126C 137.245,124.936 127.912,124.436 118.5,124.5C 118.5,123.5 118.5,122.5 118.5,121.5 Z"/></g>
<g><path style="opacity:1" fill="#fec90d" d="M 116.5,103.5 C 119.522,103.804 122.522,104.304 125.5,105C 126.851,107.125 126.185,108.292 123.5,108.5C 121.547,107.844 119.547,107.511 117.5,107.5C 116.566,106.432 116.232,105.099 116.5,103.5 Z"/></g>
<g><path style="opacity:1" fill="#fec90e" d="M 117.5,110.5 C 120.067,111.475 122.733,112.142 125.5,112.5C 125.293,117.284 122.96,120.284 118.5,121.5C 118.058,117.846 117.724,114.179 117.5,110.5 Z"/></g>
<g><path style="opacity:1" fill="#1d1e1e" d="M 119.5,125.5 C 129.55,125.508 139.55,126.174 149.5,127.5C 149.873,130.574 150.539,133.574 151.5,136.5C 149.01,134.88 146.344,133.38 143.5,132C 133.753,131.477 124.086,131.81 114.5,133C 117.242,131.114 118.909,128.614 119.5,125.5 Z"/></g>
<g><path style="opacity:1" fill="#9b5c32" d="M 125.5,133.5 C 124.056,136.89 121.39,138.223 117.5,137.5C 117.369,136.624 117.702,135.957 118.5,135.5C 120.863,134.83 123.196,134.163 125.5,133.5 Z"/></g>
<g><path style="opacity:1" fill="#fec096" d="M 125.5,133.5 C 126.5,133.5 127.5,133.5 128.5,133.5C 128.833,135.5 129.167,137.5 129.5,139.5C 124.397,141.362 119.064,142.695 113.5,143.5C 114.846,141.463 116.18,139.463 117.5,137.5C 121.39,138.223 124.056,136.89 125.5,133.5 Z"/></g>
<g><path style="opacity:1" fill="#692901" d="M 128.5,133.5 C 133.179,133.334 137.845,133.501 142.5,134C 148.065,137.719 147.399,139.553 140.5,139.5C 140.923,136.757 139.756,135.424 137,135.5C 134.817,135.522 133.317,136.522 132.5,138.5C 132.5,138.833 132.5,139.167 132.5,139.5C 131.5,139.5 130.5,139.5 129.5,139.5C 129.167,137.5 128.833,135.5 128.5,133.5 Z"/></g>
<g><path style="opacity:1" fill="#fec096" d="M 132.5,139.5 C 132.5,139.167 132.5,138.833 132.5,138.5C 134.094,138.08 135.594,137.414 137,136.5C 138.28,136.613 139.113,137.28 139.5,138.5C 137.257,139.474 134.924,139.808 132.5,139.5 Z"/></g>
<g><path style="opacity:1" fill="#7f817e" d="M 130.5,140.5 C 135.833,140.5 141.167,140.5 146.5,140.5C 146.5,143.5 146.5,146.5 146.5,149.5C 139.86,150.346 133.193,151.013 126.5,151.5C 126.5,148.167 126.5,144.833 126.5,141.5C 128.099,141.768 129.432,141.434 130.5,140.5 Z"/></g>
<g><path style="opacity:1" fill="#fefffe" d="M 124.5,141.5 C 125.479,144.625 125.813,147.958 125.5,151.5C 124.5,151.5 123.5,151.5 122.5,151.5C 122.06,147.821 122.727,144.488 124.5,141.5 Z"/></g>
<g><path style="opacity:1" fill="#fefffe" d="M 147.5,141.5 C 148.5,141.5 149.5,141.5 150.5,141.5C 150.5,144.167 150.5,146.833 150.5,149.5C 149.5,149.5 148.5,149.5 147.5,149.5C 147.5,146.833 147.5,144.167 147.5,141.5 Z"/></g>
<g><path style="opacity:1" fill="#7f817e" d="M 151.5,141.5 C 154.166,141.933 156.832,142.433 159.5,143C 163.87,144.978 164.536,147.811 161.5,151.5C 158.34,149.973 155.007,149.307 151.5,149.5C 151.5,146.833 151.5,144.167 151.5,141.5 Z"/></g>
<g><path style="opacity:1" fill="#7e817d" d="M 120.5,143.5 C 121.803,146.355 121.803,149.355 120.5,152.5C 119.5,153.167 118.5,153.833 117.5,154.5C 116.723,152.219 115.723,150.052 114.5,148C 116.684,146.637 118.684,145.137 120.5,143.5 Z"/></g>
<g><path style="opacity:1" fill="#f44336" d="M 170.5,146.5 C 168.5,146.833 166.5,147.167 164.5,147.5C 165.479,145.855 166.812,144.521 168.5,143.5C 169.919,144.005 170.585,145.005 170.5,146.5 Z"/></g>
<g><path style="opacity:1" fill="#4d9d13" d="M 170.5,146.5 C 171.625,147.348 171.625,148.348 170.5,149.5C 168.5,149.5 166.5,149.5 164.5,149.5C 164.5,148.833 164.5,148.167 164.5,147.5C 166.5,147.167 168.5,146.833 170.5,146.5 Z"/></g>
<g><path style="opacity:1" fill="#f44336" d="M 112.5,148.5 C 110.525,150.137 108.525,151.804 106.5,153.5C 107.288,150.379 109.288,148.712 112.5,148.5 Z"/></g>
<g><path style="opacity:1" fill="#4d9d13" d="M 112.5,148.5 C 113.906,148.973 114.573,149.973 114.5,151.5C 111.288,151.712 109.288,153.379 108.5,156.5C 107.599,155.71 106.932,154.71 106.5,153.5C 108.525,151.804 110.525,150.137 112.5,148.5 Z"/></g>
<g><path style="opacity:1" fill="#f44336" d="M 164.5,149.5 C 166.5,149.5 168.5,149.5 170.5,149.5C 169.89,150.391 169.557,151.391 169.5,152.5C 167.5,152.5 165.5,152.5 163.5,152.5C 163.557,151.391 163.89,150.391 164.5,149.5 Z"/></g>
<g><path style="opacity:1" fill="#f44336" d="M 114.5,151.5 C 115.338,151.842 115.672,152.508 115.5,153.5C 112.708,153.622 110.708,154.956 109.5,157.5C 108.833,157.5 108.5,157.167 108.5,156.5C 109.288,153.379 111.288,151.712 114.5,151.5 Z"/></g>
<g><path style="opacity:1" fill="#91585b" d="M 151.5,162.5 C 150.391,162.557 149.391,162.89 148.5,163.5C 146.007,164.774 143.341,165.44 140.5,165.5C 139.292,164.766 137.959,164.433 136.5,164.5C 133.535,165.734 130.535,165.734 127.5,164.5C 126.391,164.557 125.391,164.89 124.5,165.5C 119.922,164.118 118.422,161.118 120,156.5C 120.5,155.333 121.333,154.5 122.5,154C 134.828,152.256 147.162,151.756 159.5,152.5C 160.068,155.588 160.068,158.588 159.5,161.5C 156.957,163.478 154.29,163.811 151.5,162.5 Z"/></g>
<g><path style="opacity:1" fill="#4d9d13" d="M 163.5,152.5 C 165.5,152.5 167.5,152.5 169.5,152.5C 169.5,153.167 169.5,153.833 169.5,154.5C 166.873,155.092 164.206,155.425 161.5,155.5C 161.427,153.973 162.094,152.973 163.5,152.5 Z"/></g>
<g><path style="opacity:1" fill="#4d9d13" d="M 115.5,153.5 C 115.5,154.167 115.5,154.833 115.5,155.5C 113.668,156.248 112.001,157.248 110.5,158.5C 109.833,158.5 109.5,158.167 109.5,157.5C 110.708,154.956 112.708,153.622 115.5,153.5 Z"/></g>
<g><path style="opacity:1" fill="#f44336" d="M 169.5,154.5 C 169.443,155.609 169.11,156.609 168.5,157.5C 166.194,157.993 163.861,158.326 161.5,158.5C 161.5,157.5 161.5,156.5 161.5,155.5C 164.206,155.425 166.873,155.092 169.5,154.5 Z"/></g>
<g><path style="opacity:1" fill="#f44336" d="M 115.5,155.5 C 116.5,155.833 117.167,156.5 117.5,157.5C 115.053,157.615 113.053,158.615 111.5,160.5C 110.662,160.158 110.328,159.492 110.5,158.5C 112.001,157.248 113.668,156.248 115.5,155.5 Z"/></g>
<g><path style="opacity:1" fill="#4d9d13" d="M 117.5,157.5 C 117.5,158.5 117.5,159.5 117.5,160.5C 116.5,161.167 115.5,161.833 114.5,162.5C 113.29,162.068 112.29,161.401 111.5,160.5C 113.053,158.615 115.053,157.615 117.5,157.5 Z"/></g>
<g><path style="opacity:1" fill="#4d9d13" d="M 168.5,157.5 C 168.5,158.167 168.5,158.833 168.5,159.5C 166.236,160.219 163.903,160.552 161.5,160.5C 161.5,159.833 161.5,159.167 161.5,158.5C 163.861,158.326 166.194,157.993 168.5,157.5 Z"/></g>
<g><path style="opacity:1" fill="#4b9a13" d="M 169.5,158.5 C 177.5,165.664 185.667,172.664 194,179.5C 195.765,187.083 195.931,194.749 194.5,202.5C 190.168,205.051 186.001,204.718 182,201.5C 181.942,196.481 181.108,191.648 179.5,187C 181.5,186.667 183.5,186.333 185.5,186C 183.376,184.418 181.21,184.251 179,185.5C 176.344,182.678 173.344,180.345 170,178.5C 168.233,179.34 166.899,180.673 166,182.5C 165,181.833 164,181.167 163,180.5C 161.296,173.936 162.963,168.603 168,164.5C 169.128,162.655 169.628,160.655 169.5,158.5 Z"/></g>
<g><path style="opacity:1" fill="#f44336" d="M 117.5,160.5 C 117.762,161.978 117.429,163.311 116.5,164.5C 115.478,164.145 114.811,163.478 114.5,162.5C 115.5,161.833 116.5,161.167 117.5,160.5 Z"/></g>
<g><path style="opacity:1" fill="#4c9d14" d="M 117.5,176.5 C 118.619,185.706 114.619,190.706 105.5,191.5C 103.117,191.363 100.783,191.029 98.5,190.5C 97.1968,187.645 97.1968,184.645 98.5,181.5C 100.614,180.966 102.448,179.966 104,178.5C 105.151,173.209 106.985,168.209 109.5,163.5C 110,163.167 110.5,162.833 111,162.5C 112.86,164.201 115.027,165.201 117.5,165.5C 117.5,169.167 117.5,172.833 117.5,176.5 Z"/></g>
<g><path style="opacity:1" fill="#fffeff" d="M 151.5,162.5 C 151.232,164.099 151.566,165.432 152.5,166.5C 153.877,169.636 153.544,172.636 151.5,175.5C 150.479,174.099 149.479,172.765 148.5,171.5C 148.5,168.833 148.5,166.167 148.5,163.5C 149.391,162.89 150.391,162.557 151.5,162.5 Z"/></g>
<g><path style="opacity:1" fill="#f44336" d="M 168.5,159.5 C 167.695,162.817 165.861,165.483 163,167.5C 162.56,165.134 162.06,162.801 161.5,160.5C 163.903,160.552 166.236,160.219 168.5,159.5 Z"/></g>
<g><path style="opacity:1" fill="#000000" d="M 148.5,163.5 C 148.5,166.167 148.5,168.833 148.5,171.5C 147.835,169.631 147.169,167.631 146.5,165.5C 144.929,166.309 143.262,166.643 141.5,166.5C 141.5,167.5 141.5,168.5 141.5,169.5C 140.566,168.432 140.232,167.099 140.5,165.5C 143.341,165.44 146.007,164.774 148.5,163.5 Z"/></g>
<g><path style="opacity:1" fill="#8b5458" d="M 158.5,169.5 C 157.642,173.673 156.976,178.007 156.5,182.5C 150.018,183.045 143.685,183.712 137.5,184.5C 131.833,184.5 126.167,184.5 120.5,184.5C 119.878,177.836 119.712,171.169 120,164.5C 121,165.167 122,165.833 123,166.5C 123.181,169.695 123.681,172.695 124.5,175.5C 125.151,176.091 125.818,176.757 126.5,177.5C 127.182,176.757 127.849,176.091 128.5,175.5C 129.477,172.713 129.81,169.713 129.5,166.5C 131.5,166.5 133.5,166.5 135.5,166.5C 135.205,168.735 135.539,170.735 136.5,172.5C 139.98,176.447 141.647,175.447 141.5,169.5C 141.5,168.5 141.5,167.5 141.5,166.5C 143.262,166.643 144.929,166.309 146.5,165.5C 147.169,167.631 147.835,169.631 148.5,171.5C 149.479,172.765 150.479,174.099 151.5,175.5C 153.544,172.636 153.877,169.636 152.5,166.5C 153.841,164.88 155.674,163.88 158,163.5C 158.495,165.473 158.662,167.473 158.5,169.5 Z"/></g>
<g><path style="opacity:1" fill="#503033" d="M 137.5,184.5 C 143.685,183.712 150.018,183.045 156.5,182.5C 156.976,178.007 157.642,173.673 158.5,169.5C 159.314,167.369 159.814,165.036 160,162.5C 160.167,166 160.333,169.5 160.5,173C 160.655,178.485 159.989,183.819 158.5,189C 147.225,190.576 135.892,190.909 124.5,190C 123.257,188.846 122.257,187.512 121.5,186C 127.016,185.827 132.349,185.327 137.5,184.5 Z"/></g>
<g><path style="opacity:1" fill="#7e7f7e" d="M 57.5,164.5 C 60.6802,164.176 61.8469,165.51 61,168.5C 59.3905,167.853 57.8905,167.02 56.5,166C 57.056,165.617 57.3893,165.117 57.5,164.5 Z"/></g>
<g><path style="opacity:1" fill="#fefffe" d="M 127.5,164.5 C 128.423,168.064 128.756,171.731 128.5,175.5C 127.849,176.091 127.182,176.757 126.5,177.5C 125.818,176.757 125.151,176.091 124.5,175.5C 124.5,172.167 124.5,168.833 124.5,165.5C 125.391,164.89 126.391,164.557 127.5,164.5 Z"/></g>
<g><path style="opacity:1" fill="#000000" d="M 127.5,164.5 C 130.535,165.734 133.535,165.734 136.5,164.5C 136.5,167.167 136.5,169.833 136.5,172.5C 135.539,170.735 135.205,168.735 135.5,166.5C 133.5,166.5 131.5,166.5 129.5,166.5C 129.81,169.713 129.477,172.713 128.5,175.5C 128.756,171.731 128.423,168.064 127.5,164.5 Z"/></g>
<g><path style="opacity:1" fill="#fefffe" d="M 136.5,164.5 C 137.959,164.433 139.292,164.766 140.5,165.5C 140.232,167.099 140.566,168.432 141.5,169.5C 141.647,175.447 139.98,176.447 136.5,172.5C 136.5,169.833 136.5,167.167 136.5,164.5 Z"/></g>
<g><path style="opacity:1" fill="#fec90d" d="M 69.5,171.5 C 68.6981,172.952 68.1981,174.618 68,176.5C 65.8627,175.521 64.0294,174.188 62.5,172.5C 63.7759,166.595 66.1092,166.261 69.5,171.5 Z"/></g>
<g><path style="opacity:1" fill="#7e7f7e" d="M 94.5,183.5 C 86.7972,179.655 78.7972,176.321 70.5,173.5C 70.1667,172.833 69.8333,172.167 69.5,171.5C 70.1499,171.196 70.8165,170.863 71.5,170.5C 80.161,173.834 88.4944,177.667 96.5,182C 96.1639,183.03 95.4972,183.53 94.5,183.5 Z"/></g>
<g><path style="opacity:1" fill="#392419" d="M 70.5,173.5 C 78.7972,176.321 86.7972,179.655 94.5,183.5C 96.2432,185.126 96.7432,187.126 96,189.5C 87.6455,185.214 79.1455,181.214 70.5,177.5C 69.218,176.042 69.218,174.708 70.5,173.5 Z"/></g>
<g><path style="opacity:1" fill="#408011" d="M 117.5,176.5 C 118.828,181.637 119.328,186.97 119,192.5C 116.926,194.452 114.759,196.285 112.5,198C 108.818,198.222 105.152,197.889 101.5,197C 99.5494,195.266 98.5494,193.099 98.5,190.5C 100.783,191.029 103.117,191.363 105.5,191.5C 114.619,190.706 118.619,185.706 117.5,176.5 Z"/></g>
<g><path style="opacity:1" fill="#fffeff" d="M 176.5,215.5 C 176.5,214.833 176.167,214.5 175.5,214.5C 171.354,208.072 167.688,201.405 164.5,194.5C 166.43,189.878 168.263,185.212 170,180.5C 179.567,187.001 182.067,195.667 177.5,206.5C 177.437,208.481 178.104,210.148 179.5,211.5C 178.479,212.901 177.479,214.235 176.5,215.5 Z M 170.5,185.5 C 169.704,188.556 168.704,191.556 167.5,194.5C 168.769,196.064 169.936,197.731 171,199.5C 170.879,202.921 172.212,205.588 175,207.5C 176.327,202.88 176.993,198.213 177,193.5C 176.424,189.434 174.257,186.767 170.5,185.5 Z"/></g>
<g><path style="opacity:1" fill="#4d9d13" d="M 160.5,189.5 C 161.117,189.611 161.617,189.944 162,190.5C 162.226,193.095 162.726,195.595 163.5,198C 160.249,201.922 156.416,205.088 152,207.5C 147.593,202.803 147.426,197.97 151.5,193C 154.167,192.333 156.833,191.667 159.5,191C 160.056,190.617 160.389,190.117 160.5,189.5 Z"/></g>
<g><path style="opacity:1" fill="#3c3b3c" d="M 130.5,193.5 C 135.316,192.35 140.316,192.184 145.5,193C 143.927,196.778 142.427,200.611 141,204.5C 137.998,200.332 134.498,196.665 130.5,193.5 Z"/></g>
<g><path style="opacity:1" fill="#5a271b" d="M 144.5,212.5 C 142.726,218.432 140.56,224.432 138,230.5C 134.126,233.675 129.959,234.175 125.5,232C 126.056,231.617 126.389,231.117 126.5,230.5C 128.741,229.379 131.075,228.213 133.5,227C 135.364,224.312 137.364,221.812 139.5,219.5C 140.79,218.942 141.623,217.942 142,216.5C 141.805,208.492 143.305,200.825 146.5,193.5C 147.5,192.167 148.5,192.167 149.5,193.5C 146.73,199.581 145.064,205.914 144.5,212.5 Z"/></g>
<g><path style="opacity:1" fill="#4a9813" d="M 120.5,189.5 C 122.262,191.7 124.596,192.867 127.5,193C 129.684,195.016 131.684,197.183 133.5,199.5C 129.996,204.03 125.663,207.697 120.5,210.5C 120.167,210.333 119.833,210.167 119.5,210C 121.505,206.984 122.505,203.651 122.5,200C 121.975,196.459 121.308,192.959 120.5,189.5 Z"/></g>
<g><path style="opacity:1" fill="#3a3a3a" d="M 166.5,207.5 C 165.876,209.754 164.543,211.421 162.5,212.5C 161.735,212.923 160.902,213.257 160,213.5C 155.206,212.547 150.373,211.88 145.5,211.5C 145.144,208.436 145.977,205.769 148,203.5C 149.769,209.198 152.936,210.031 157.5,206C 159.667,203.833 161.833,201.667 164,199.5C 167.315,201.435 168.149,204.101 166.5,207.5 Z"/></g>
<g><path style="opacity:1" fill="#3b3c3b" d="M 134.5,200.5 C 138.12,203.31 138.286,206.31 135,209.5C 133.414,208.624 131.914,207.624 130.5,206.5C 131.467,204.21 132.8,202.21 134.5,200.5 Z"/></g>
<g><path style="opacity:1" fill="#f44336" d="M 180.5,203.5 C 185.2,206.761 190.034,207.095 195,204.5C 195.667,207.167 195.667,209.833 195,212.5C 189.056,214.553 184.056,213.22 180,208.5C 179.36,206.735 179.527,205.068 180.5,203.5 Z"/></g>
<g><path style="opacity:1" fill="#99d9e9" d="M 139.5,219.5 C 137.364,221.812 135.364,224.312 133.5,227C 131.075,228.213 128.741,229.379 126.5,230.5C 115.652,228.97 112.985,223.47 118.5,214C 122.342,212.332 125.509,209.832 128,206.5C 130.638,209.317 133.638,211.65 137,213.5C 138.122,215.407 138.955,217.407 139.5,219.5 Z"/></g>
<g><path style="opacity:1" fill="#4d9c14" d="M 138.5,207.5 C 139.496,207.414 140.329,207.748 141,208.5C 141.667,210.833 141.667,213.167 141,215.5C 139.859,213.391 138.359,211.558 136.5,210C 137.381,209.292 138.047,208.458 138.5,207.5 Z"/></g>
<g><path style="opacity:1" fill="#f44336" d="M 166.5,207.5 C 168.934,208.099 170.601,209.599 171.5,212C 169.742,219.731 168.408,227.565 167.5,235.5C 161.691,240.573 155.357,244.907 148.5,248.5C 147.026,246.863 145.192,245.863 143,245.5C 139.129,246.269 135.462,247.602 132,249.5C 125.925,248.784 120.425,246.784 115.5,243.5C 115.037,240.67 114.371,238.003 113.5,235.5C 113.18,232.102 113.513,228.768 114.5,225.5C 115.797,228.631 117.964,230.964 121,232.5C 121.953,235.432 122.453,238.432 122.5,241.5C 127.784,241.324 132.784,240.324 137.5,238.5C 139.104,237.713 139.771,236.38 139.5,234.5C 140.302,233.048 140.802,231.382 141,229.5C 142.791,232.35 143.958,235.35 144.5,238.5C 148.371,239.558 152.037,238.891 155.5,236.5C 158.96,235.125 162.46,233.791 166,232.5C 166.53,226.796 166.197,221.129 165,215.5C 163.955,214.627 163.122,213.627 162.5,212.5C 164.543,211.421 165.876,209.754 166.5,207.5 Z"/></g>
<g><path style="opacity:1" fill="#1d1e1d" d="M 144.5,212.5 C 150.391,213.989 156.391,215.156 162.5,216C 164.026,221.044 164.526,226.211 164,231.5C 157.53,232.724 151.03,232.557 144.5,231C 143.773,228.876 143.106,226.709 142.5,224.5C 144.145,220.675 144.812,216.675 144.5,212.5 Z"/></g>
<g><path style="opacity:1" fill="#41281b" d="M 175.5,214.5 C 176.167,214.5 176.5,214.833 176.5,215.5C 176.842,216.338 177.508,216.672 178.5,216.5C 183.139,219.155 187.806,221.821 192.5,224.5C 192.833,224.5 193.167,224.5 193.5,224.5C 193.369,225.376 193.702,226.043 194.5,226.5C 199.296,228.265 204.129,229.932 209,231.5C 210.03,231.836 210.53,232.503 210.5,233.5C 208.437,237.717 207.104,242.05 206.5,246.5C 203.243,245.538 200.243,244.038 197.5,242C 190.833,236.333 184.167,230.667 177.5,225C 176.251,224.26 175.251,224.427 174.5,225.5C 173.374,222.535 172.374,219.535 171.5,216.5C 171.794,213.519 173.128,212.852 175.5,214.5 Z"/></g>
<g><path style="opacity:1" fill="#ffc096" d="M 192.5,224.5 C 187.806,221.821 183.139,219.155 178.5,216.5C 178.787,214.879 179.787,213.879 181.5,213.5C 185.325,215.145 189.325,215.812 193.5,215.5C 193.632,218.57 193.299,221.57 192.5,224.5 Z"/></g>
<g><path style="opacity:1" fill="#7c7e7b" d="M 171.5,216.5 C 172.545,222.012 172.545,227.512 171.5,233C 177.08,258.734 182.08,284.567 186.5,310.5C 186.145,311.522 185.478,312.189 184.5,312.5C 180.31,309.773 176.31,310.106 172.5,313.5C 168.204,313.071 167.204,310.904 169.5,307C 168.115,293.624 164.781,280.791 159.5,268.5C 155.812,261.786 152.145,255.119 148.5,248.5C 155.357,244.907 161.691,240.573 167.5,235.5C 168.222,235.082 168.722,234.416 169,233.5C 169.71,227.669 170.543,222.002 171.5,216.5 Z"/></g>
<g><path style="opacity:1" fill="#cea38a" d="M 111.5,218.5 C 112.586,218.62 113.253,219.287 113.5,220.5C 111.845,222.754 109.678,224.421 107,225.5C 106.5,225.167 106,224.833 105.5,224.5C 107.103,222.046 109.103,220.046 111.5,218.5 Z"/></g>
<g><path style="opacity:1" fill="#c79d86" d="M 113.5,235.5 C 114.371,238.003 115.037,240.67 115.5,243.5C 115.586,244.496 115.252,245.329 114.5,246C 105.532,248.657 100.699,245.49 100,236.5C 102.027,230.642 105.86,226.642 111.5,224.5C 112.167,228.313 112.834,231.979 113.5,235.5 Z"/></g>
<g><path style="opacity:1" fill="#000000" d="M 174.5,225.5 C 175.251,224.427 176.251,224.26 177.5,225C 184.167,230.667 190.833,236.333 197.5,242C 200.243,244.038 203.243,245.538 206.5,246.5C 207.189,247.774 208.023,247.774 209,246.5C 210.427,242.611 211.927,238.778 213.5,235C 212.756,233.961 211.756,233.461 210.5,233.5C 210.53,232.503 210.03,231.836 209,231.5C 204.129,229.932 199.296,228.265 194.5,226.5C 193.702,226.043 193.369,225.376 193.5,224.5C 199.572,226.023 205.572,227.857 211.5,230C 212.667,231.167 213.833,232.333 215,233.5C 214.365,238.526 212.865,243.359 210.5,248C 209.391,248.638 208.225,249.138 207,249.5C 203.279,248.057 199.779,246.223 196.5,244C 189.001,237.998 181.668,231.832 174.5,225.5 Z"/></g>
<g><path style="opacity:1" fill="#499415" d="M 139.5,234.5 C 139.771,236.38 139.104,237.713 137.5,238.5C 132.716,238.57 128.049,239.237 123.5,240.5C 123.162,237.989 123.162,235.655 123.5,233.5C 128.806,236.302 133.973,235.968 139,232.5C 139.464,233.094 139.631,233.761 139.5,234.5 Z"/></g>
<g><path style="opacity:1" fill="#3f7b16" d="M 155.5,236.5 C 152.037,238.891 148.371,239.558 144.5,238.5C 144.5,236.833 144.5,235.167 144.5,233.5C 147.193,233.572 149.86,233.905 152.5,234.5C 154.03,234.64 155.03,235.307 155.5,236.5 Z"/></g>
<g><path style="opacity:1" fill="#fec90d" d="M 210.5,233.5 C 211.756,233.461 212.756,233.961 213.5,235C 211.927,238.778 210.427,242.611 209,246.5C 208.023,247.774 207.189,247.774 206.5,246.5C 207.104,242.05 208.437,237.717 210.5,233.5 Z"/></g>
<g><path style="opacity:1" fill="#7e817d" d="M 122.5,255.5 C 122.806,258.385 122.473,261.052 121.5,263.5C 117.113,267.362 112.113,270.195 106.5,272C 110.426,273.027 114.093,274.527 117.5,276.5C 116.914,278.243 116.581,280.076 116.5,282C 117.183,290.154 117.683,298.32 118,306.5C 119.824,307.749 119.657,308.915 117.5,310C 115.866,310.494 114.199,310.66 112.5,310.5C 112.44,309.957 112.107,309.624 111.5,309.5C 109.22,310.136 107.22,311.136 105.5,312.5C 104.467,301.106 103.467,289.44 102.5,277.5C 103.801,267.859 104.801,258.192 105.5,248.5C 110.399,248.711 115.066,248.211 119.5,247C 120.996,249.714 121.996,252.547 122.5,255.5 Z"/></g>
<g><path style="opacity:1" fill="#3a3a3b" d="M 127.5,269.5 C 126.508,269.672 125.842,269.338 125.5,268.5C 123.964,264.283 122.964,259.95 122.5,255.5C 122.192,253.076 122.526,250.743 123.5,248.5C 126.228,249.145 128.895,249.979 131.5,251C 130.667,251.833 129.833,252.667 129,253.5C 128.827,259.016 128.327,264.349 127.5,269.5 Z"/></g>
<g><path style="opacity:1" fill="#585a58" d="M 121.5,263.5 C 121.239,268.225 119.905,272.559 117.5,276.5C 114.093,274.527 110.426,273.027 106.5,272C 112.113,270.195 117.113,267.362 121.5,263.5 Z"/></g>
<g><path style="opacity:1" fill="#404140" d="M 159.5,268.5 C 159.369,267.624 159.702,266.957 160.5,266.5C 165.561,269.588 169.894,268.755 173.5,264C 174.5,263.333 175.5,263.333 176.5,264C 174.65,267.362 172.317,270.362 169.5,273C 168.167,273.667 166.833,273.667 165.5,273C 163.34,271.668 161.34,270.168 159.5,268.5 Z"/></g>
<g><path style="opacity:1" fill="#fec90d" d="M 125.5,268.5 C 125.842,269.338 126.508,269.672 127.5,269.5C 128.569,272.408 128.736,275.408 128,278.5C 124.542,275.759 123.708,272.425 125.5,268.5 Z"/></g>
<g><path style="opacity:1" fill="#1d1d1d" d="M 112.5,310.5 C 113.952,311.302 115.618,311.802 117.5,312C 122.69,322.284 119.523,327.117 108,326.5C 105.648,326.695 103.648,326.028 102,324.5C 102.493,321.863 103.827,319.53 106,317.5C 106.64,315.735 106.473,314.068 105.5,312.5C 107.22,311.136 109.22,310.136 111.5,309.5C 112.107,309.624 112.44,309.957 112.5,310.5 Z"/></g>
<g><path style="opacity:1" fill="#1c1c1c" d="M 184.5,312.5 C 184.351,313.552 184.517,314.552 185,315.5C 188.833,318 192,321.167 194.5,325C 191.832,326.874 188.832,327.707 185.5,327.5C 182.989,327.712 180.822,327.045 179,325.5C 176.843,322.344 174.343,319.511 171.5,317C 172.337,315.989 172.67,314.822 172.5,313.5C 176.31,310.106 180.31,309.773 184.5,312.5 Z"/></g>
</svg>
