<?xml version="1.0" encoding="UTF-8"?>
<!DOCTYPE svg PUBLIC "-//W3C//DTD SVG 1.1//EN" "http://www.w3.org/Graphics/SVG/1.1/DTD/svg11.dtd">
<svg xmlns="http://www.w3.org/2000/svg" version="1.1" width="601px" height="600px" style="shape-rendering:geometricPrecision; text-rendering:geometricPrecision; image-rendering:optimizeQuality; fill-rule:evenodd; clip-rule:evenodd" xmlns:xlink="http://www.w3.org/1999/xlink">
<g><path style="opacity:1" fill="#fefefe" d="M 511.5,69.5 C 515.5,69.5 519.5,69.5 523.5,69.5C 523.666,74.1785 523.499,78.8452 523,83.5C 505.185,98.7382 487.185,113.738 469,128.5C 470.459,132.912 470.792,137.578 470,142.5C 468.878,144.624 467.378,146.457 465.5,148C 452.169,155.586 440.002,164.753 429,175.5C 429.304,179.561 427.804,182.727 424.5,185C 413.02,190.74 403.02,198.406 394.5,208C 392.285,209.044 389.952,209.71 387.5,210C 372.973,220.694 358.306,231.194 343.5,241.5C 342.548,243.045 342.215,244.712 342.5,246.5C 344.39,246.297 345.89,246.963 347,248.5C 351.333,254.167 355.667,259.833 360,265.5C 360.667,273.5 360.667,281.5 360,289.5C 357.833,291.333 355.667,293.167 353.5,295C 338.637,299.259 326.97,295.259 318.5,283C 315.264,280.132 311.764,277.632 308,275.5C 308.361,278.924 309.361,282.258 311,285.5C 321.744,294.376 326.244,305.876 324.5,320C 324.333,323.167 324.167,326.333 324,329.5C 321.119,333.019 317.619,335.686 313.5,337.5C 311.593,343.741 307.593,348.075 301.5,350.5C 301.167,351.5 300.833,352.5 300.5,353.5C 303.985,369.987 305.151,386.654 304,403.5C 301.712,415.403 299.712,427.403 298,439.5C 296.949,448.469 296.282,457.469 296,466.5C 294.933,467.191 293.766,467.691 292.5,468C 294.879,471.931 297.379,475.764 300,479.5C 301.512,480.257 302.846,481.257 304,482.5C 304.676,487.871 304.509,493.204 303.5,498.5C 294.201,499.585 284.868,499.752 275.5,499C 271.641,495.823 267.641,492.823 263.5,490C 259.758,486.525 258.091,482.192 258.5,477C 258.431,473.264 259.431,469.931 261.5,467C 260.109,465.98 258.609,465.147 257,464.5C 255.592,458.584 256.592,453.25 260,448.5C 261.73,435.9 262.73,423.234 263,410.5C 263.777,405.867 264.944,401.367 266.5,397C 264.654,394.976 263.321,392.643 262.5,390C 260.526,383.655 259.359,377.155 259,370.5C 256.619,366.032 254.619,361.365 253,356.5C 250.945,358.555 249.279,360.888 248,363.5C 244.342,372.469 240.675,381.469 237,390.5C 232.274,409.909 228.941,429.576 227,449.5C 225.89,451.037 224.39,451.703 222.5,451.5C 222.855,457.341 222.188,463.008 220.5,468.5C 215.399,470.55 210.399,472.883 205.5,475.5C 196.163,477.967 186.996,477.967 178,475.5C 177.333,470.5 177.333,465.5 178,460.5C 184.398,456.373 188.898,450.706 191.5,443.5C 192.887,422.291 195.72,401.291 200,380.5C 204.684,369.351 207.018,357.685 207,345.5C 208.822,338.897 210.322,332.231 211.5,325.5C 205.902,322.969 199.902,321.302 193.5,320.5C 190.731,315.885 189.897,310.885 191,305.5C 192.348,301.967 193.848,298.467 195.5,295C 190.09,293.257 186.256,289.757 184,284.5C 182.43,275.937 183.764,267.937 188,260.5C 200.259,245.902 212.925,231.568 226,217.5C 225.55,214.487 224.717,211.487 223.5,208.5C 221.857,199.227 222.19,190.06 224.5,181C 225.022,180.05 225.689,179.216 226.5,178.5C 231.456,177.506 236.456,177.173 241.5,177.5C 243.343,171.015 247.676,168.682 254.5,170.5C 254.845,161.247 255.011,151.914 255,142.5C 259.251,135.416 264.417,129.083 270.5,123.5C 277.65,120.33 285.15,118.33 293,117.5C 296.496,118.619 299.829,120.285 303,122.5C 304.037,128.692 305.704,134.692 308,140.5C 308.813,145.815 309.479,151.148 310,156.5C 312.8,157.128 315.467,158.128 318,159.5C 318.772,163.89 318.606,168.223 317.5,172.5C 316.088,173.806 314.421,174.64 312.5,175C 313.127,176.738 313.46,178.571 313.5,180.5C 311.983,186.647 311.15,192.981 311,199.5C 309.934,202.563 307.767,204.063 304.5,204C 312.942,210.558 322.275,214.892 332.5,217C 371.047,188.566 409.38,159.899 447.5,131C 448.3,126.92 448.8,122.753 449,118.5C 470.02,102.303 490.853,85.9696 511.5,69.5 Z"/></g>
<g><path style="opacity:1" fill="#010101" d="M 262.5,136.5 C 263.167,136.5 263.5,136.167 263.5,135.5C 266.829,129.479 271.829,125.312 278.5,123C 283.167,121.833 287.833,120.667 292.5,119.5C 295.213,121.277 298.047,122.944 301,124.5C 304.758,135.198 307.091,146.198 308,157.5C 310.28,159.037 312.78,160.203 315.5,161C 316.799,164.135 316.799,167.301 315.5,170.5C 313.167,171.833 310.833,173.167 308.5,174.5C 310.402,176.063 311.402,178.063 311.5,180.5C 309.881,185.96 309.048,191.627 309,197.5C 308.535,198.931 307.701,200.097 306.5,201C 304.19,201.497 301.857,201.663 299.5,201.5C 299.5,202.833 299.5,204.167 299.5,205.5C 309.824,211.543 320.491,216.709 331.5,221C 370.868,191.656 410.201,162.323 449.5,133C 450.3,128.92 450.8,124.753 451,120.5C 471.833,104.333 492.667,88.1667 513.5,72C 516.146,71.5026 518.813,71.3359 521.5,71.5C 521.665,74.8499 521.498,78.1832 521,81.5C 502.667,96.8333 484.333,112.167 466,127.5C 466.413,130.746 467.246,133.912 468.5,137C 468.405,140.855 466.738,143.855 463.5,146C 450.169,153.586 438.002,162.753 427,173.5C 427.304,177.561 425.804,180.727 422.5,183C 411.02,188.74 401.02,196.406 392.5,206C 390.285,207.044 387.952,207.71 385.5,208C 369.657,219.088 353.99,230.422 338.5,242C 340.016,243.897 340.683,246.064 340.5,248.5C 342.39,248.297 343.89,248.963 345,250.5C 349.333,256.167 353.667,261.833 358,267.5C 358.667,274.167 358.667,280.833 358,287.5C 355.833,289.333 353.667,291.167 351.5,293C 345.167,293.667 338.833,293.667 332.5,293C 326.609,287.863 320.943,282.53 315.5,277C 311.928,275.431 308.928,273.098 306.5,270C 305.551,269.383 304.718,269.549 304,270.5C 303.333,272.5 303.333,274.5 304,276.5C 306.047,279.964 307.713,283.63 309,287.5C 314.908,291.753 318.908,297.42 321,304.5C 322.309,312.131 322.642,319.797 322,327.5C 319.119,331.019 315.619,333.686 311.5,335.5C 309.593,341.741 305.593,346.075 299.5,348.5C 299.167,350.167 298.833,351.833 298.5,353.5C 301.653,369.343 302.82,385.343 302,401.5C 299.712,413.403 297.712,425.403 296,437.5C 294.949,446.469 294.282,455.469 294,464.5C 292.989,465.337 291.822,465.67 290.5,465.5C 290.339,468.528 291.006,471.361 292.5,474C 295.668,477.577 298.834,481.077 302,484.5C 302.607,488.537 302.44,492.537 301.5,496.5C 293.535,497.569 285.535,497.736 277.5,497C 273.641,493.823 269.641,490.823 265.5,488C 262.316,485.05 260.649,481.383 260.5,477C 261.079,472.915 262.413,469.081 264.5,465.5C 262.821,464.218 260.987,463.218 259,462.5C 258.833,461.167 258.667,459.833 258.5,458.5C 259.99,454.181 261.49,449.848 263,445.5C 263.899,434.514 264.566,423.514 265,412.5C 266.166,407.334 267.333,402.168 268.5,397C 263.61,388.193 261.11,378.693 261,368.5C 258.204,362.61 255.704,356.61 253.5,350.5C 251.025,354.096 248.525,357.762 246,361.5C 242.508,369.969 239.008,378.469 235.5,387C 230.438,406.871 226.938,427.038 225,447.5C 223.89,449.037 222.39,449.703 220.5,449.5C 220.855,455.341 220.188,461.008 218.5,466.5C 213.399,468.55 208.399,470.883 203.5,473.5C 195.904,475.537 188.237,475.871 180.5,474.5C 179.4,470.558 179.233,466.558 180,462.5C 186.398,458.373 190.898,452.706 193.5,445.5C 194.887,424.291 197.72,403.291 202,382.5C 203.673,377.823 205.34,373.157 207,368.5C 208.208,353.011 210.375,337.677 213.5,322.5C 211.143,322.663 208.81,322.497 206.5,322C 205.845,320.513 204.845,319.347 203.5,318.5C 199.208,320.37 195.875,319.37 193.5,315.5C 192.969,307.638 194.969,300.304 199.5,293.5C 193.801,292.636 189.635,289.636 187,284.5C 185.466,280.289 185.133,275.956 186,271.5C 187.591,268.648 188.924,265.648 190,262.5C 203.967,247.021 217.467,231.021 230.5,214.5C 228.677,213.509 227.177,212.176 226,210.5C 223.98,201.25 224.146,192.083 226.5,183C 227.022,182.05 227.689,181.216 228.5,180.5C 233.456,179.506 238.456,179.173 243.5,179.5C 245.343,173.015 249.676,170.682 256.5,172.5C 257.555,163.506 257.721,154.506 257,145.5C 258.763,142.398 260.596,139.398 262.5,136.5 Z"/></g>
<g><path style="opacity:1" fill="#c2c3c2" d="M 516.5,75.5 C 517.043,75.56 517.376,75.8933 517.5,76.5C 516.687,77.8139 515.687,78.9805 514.5,80C 496.375,94.4565 478.541,109.29 461,124.5C 460.502,127.817 460.335,131.15 460.5,134.5C 458.5,134.5 456.5,134.5 454.5,134.5C 454.335,131.15 454.502,127.817 455,124.5C 455.785,122.714 456.951,121.214 458.5,120C 475.167,107.667 491.833,95.3333 508.5,83C 511.062,80.267 513.729,77.767 516.5,75.5 Z"/></g>
<g><path style="opacity:1" fill="#454343" d="M 287.5,124.5 C 292.266,123.551 296.1,124.884 299,128.5C 303.142,138.779 305.475,149.446 306,160.5C 300.84,165.222 294.673,167.388 287.5,167C 283.598,168.02 279.932,169.52 276.5,171.5C 276.167,170.167 275.833,168.833 275.5,167.5C 277.504,153.479 279.504,139.479 281.5,125.5C 283.735,125.795 285.735,125.461 287.5,124.5 Z"/></g>
<g><path style="opacity:1" fill="#444242" d="M 277.5,127.5 C 278.641,130.64 278.808,133.973 278,137.5C 275.313,149.016 273.646,160.683 273,172.5C 269.648,173.834 266.315,175.167 263,176.5C 255.226,156.618 260.06,140.285 277.5,127.5 Z"/></g>
<g><path style="opacity:1" fill="#c2c3c2" d="M 454.5,136.5 C 457.187,136.336 459.854,136.503 462.5,137C 460.33,139.396 457.997,141.73 455.5,144C 452.741,144.977 450.741,144.144 449.5,141.5C 451.215,139.785 452.881,138.119 454.5,136.5 Z"/></g>
<g><path style="opacity:1" fill="#c0c0c0" d="M 448.5,145.5 C 429.467,159.016 410.8,173.016 392.5,187.5C 389.883,188.786 387.55,190.453 385.5,192.5C 383.46,194.177 381.46,195.844 379.5,197.5C 360.731,210.422 342.064,223.589 323.5,237C 321.292,237.191 319.292,237.691 317.5,238.5C 316.599,239.29 315.932,240.29 315.5,241.5C 305.572,248.088 295.905,255.088 286.5,262.5C 285.496,261.317 284.662,259.984 284,258.5C 281.834,259.731 279.667,260.731 277.5,261.5C 275.167,261.5 272.833,261.5 270.5,261.5C 270.366,259.708 270.699,258.042 271.5,256.5C 272.538,254.481 273.872,254.147 275.5,255.5C 282.115,258.891 284.115,256.891 281.5,249.5C 285.412,250.001 289.412,250.001 293.5,249.5C 292.697,250.423 292.53,251.423 293,252.5C 309.223,241.995 325.39,231.495 341.5,221C 375.404,196.111 409.071,170.778 442.5,145C 443.966,144.365 445.3,143.531 446.5,142.5C 447.919,143.005 448.585,144.005 448.5,145.5 Z"/></g>
<g><path style="opacity:1" fill="#855840" d="M 448.5,145.5 C 449.043,145.56 449.376,145.893 449.5,146.5C 442.72,153.611 435.053,159.611 426.5,164.5C 424.23,167.621 421.563,170.287 418.5,172.5C 409.716,179.399 400.716,186.065 391.5,192.5C 388.139,193.684 385.139,195.517 382.5,198C 381.316,199.145 381.316,200.312 382.5,201.5C 365.115,214.216 347.448,226.549 329.5,238.5C 327.801,238.66 326.134,238.494 324.5,238C 341.325,225.754 358.325,213.754 375.5,202C 377.041,200.629 378.375,199.129 379.5,197.5C 382.732,197.228 384.732,195.562 385.5,192.5C 388.643,192.031 390.977,190.364 392.5,187.5C 410.8,173.016 429.467,159.016 448.5,145.5 Z"/></g>
<g><path style="opacity:1" fill="#fcfcfc" d="M 418.5,172.5 C 419.376,172.369 420.043,172.702 420.5,173.5C 419.5,174.333 418.5,175.167 417.5,176C 418.833,176.667 418.833,177.333 417.5,178C 410.084,183.888 402.418,189.555 394.5,195C 393.552,195.483 392.552,195.649 391.5,195.5C 390.833,195.5 390.5,195.167 390.5,194.5C 390.833,193.833 391.167,193.167 391.5,192.5C 400.716,186.065 409.716,179.399 418.5,172.5 Z"/></g>
<g><path style="opacity:1" fill="#5d3b28" d="M 281.5,175.5 C 279.752,177.16 279.252,179.16 280,181.5C 281.423,183.345 282.59,185.345 283.5,187.5C 288.833,189.5 288.833,191.5 283.5,193.5C 281.851,192.352 280.351,191.019 279,189.5C 277.595,185.783 276.095,182.117 274.5,178.5C 272.929,177.691 271.262,177.357 269.5,177.5C 269.152,181.085 269.819,184.418 271.5,187.5C 271.5,189.5 271.5,191.5 271.5,193.5C 270.167,193.5 268.833,193.5 267.5,193.5C 266.237,187.764 266.404,182.098 268,176.5C 271.594,175.673 275.261,175.007 279,174.5C 280.07,174.528 280.903,174.861 281.5,175.5 Z"/></g>
<g><path style="opacity:1" fill="#ec9c79" d="M 271.5,187.5 C 269.819,184.418 269.152,181.085 269.5,177.5C 271.262,177.357 272.929,177.691 274.5,178.5C 276.095,182.117 277.595,185.783 279,189.5C 280.351,191.019 281.851,192.352 283.5,193.5C 288.833,191.5 288.833,189.5 283.5,187.5C 282.59,185.345 281.423,183.345 280,181.5C 279.252,179.16 279.752,177.16 281.5,175.5C 285.246,172.662 289.246,171.995 293.5,173.5C 290.96,175.666 291.627,176.666 295.5,176.5C 296.309,175.531 297.309,174.698 298.5,174C 298.043,173.586 297.709,173.086 297.5,172.5C 299.743,171.526 302.076,171.192 304.5,171.5C 305.138,173.46 305.138,175.293 304.5,177C 307.412,177.845 308.412,179.512 307.5,182C 300.53,182.669 300.196,183.169 306.5,183.5C 306.5,184.5 306.5,185.5 306.5,186.5C 303.235,186.299 300.569,187.466 298.5,190C 300.706,192.346 303.206,192.846 306,191.5C 306.409,194.358 305.409,196.691 303,198.5C 302.667,197.833 302.333,197.167 302,196.5C 300.174,198.074 298.007,198.907 295.5,199C 294.432,201.705 292.432,203.205 289.5,203.5C 283.093,201.212 277.593,197.545 273,192.5C 272.316,191.216 272.483,190.049 273.5,189C 272.956,188.283 272.289,187.783 271.5,187.5 Z"/></g>
<g><path style="opacity:1" fill="#fefffe" d="M 293.5,173.5 C 294.401,174.29 295.068,175.29 295.5,176.5C 291.627,176.666 290.96,175.666 293.5,173.5 Z"/></g>
<g><path style="opacity:1" fill="#fefffe" d="M 252.5,177.5 C 253.117,177.611 253.617,177.944 254,178.5C 254.726,187.504 255.059,196.504 255,205.5C 254.586,205.957 254.086,206.291 253.5,206.5C 250.4,198.428 249.233,190.095 250,181.5C 250.48,179.867 251.313,178.534 252.5,177.5 Z"/></g>
<g><path style="opacity:1" fill="#000000" d="M 272.5,183.5 C 273.189,182.226 274.023,182.226 275,183.5C 275.667,184.5 275.667,185.5 275,186.5C 274.623,185.058 273.79,184.058 272.5,183.5 Z"/></g>
<g><path style="opacity:1" fill="#7e7f7e" d="M 256.5,183.5 C 257.873,183.343 259.207,183.51 260.5,184C 261.505,185.507 262.838,186.673 264.5,187.5C 265.115,190.039 265.782,192.539 266.5,195C 264.274,196.92 261.941,198.753 259.5,200.5C 259.167,200.333 258.833,200.167 258.5,200C 259.833,198 261.167,196 262.5,194C 262,193.5 261.5,193 261,192.5C 259.89,194.037 258.39,194.703 256.5,194.5C 256.5,190.833 256.5,187.167 256.5,183.5 Z"/></g>
<g><path style="opacity:1" fill="#7e7f7e" d="M 236.5,184.5 C 240.212,185.306 243.879,186.306 247.5,187.5C 248.335,193.837 248.835,200.17 249,206.5C 246.225,207.939 243.725,209.772 241.5,212C 239.833,212.667 238.167,212.667 236.5,212C 235.377,210.956 234.044,210.29 232.5,210C 234.39,208.109 235.89,205.942 237,203.5C 237.653,197.138 237.487,190.805 236.5,184.5 Z"/></g>
<g><path style="opacity:1" fill="#000000" d="M 392.5,187.5 C 390.977,190.364 388.643,192.031 385.5,192.5C 387.55,190.453 389.883,188.786 392.5,187.5 Z"/></g>
<g><path style="opacity:1" fill="#7e7f7e" d="M 231.5,189.5 C 232.638,192.304 232.805,195.304 232,198.5C 231.056,197.737 230.556,196.737 230.5,195.5C 231.156,193.547 231.489,191.547 231.5,189.5 Z"/></g>
<g><path style="opacity:1" fill="#7e7f7e" d="M 233.5,189.5 C 234.794,191.048 235.461,193.048 235.5,195.5C 235.812,198.876 234.978,201.876 233,204.5C 232.056,203.737 231.556,202.737 231.5,201.5C 233.196,197.683 233.863,193.683 233.5,189.5 Z"/></g>
<g><path style="opacity:1" fill="#000000" d="M 385.5,192.5 C 384.732,195.562 382.732,197.228 379.5,197.5C 381.46,195.844 383.46,194.177 385.5,192.5 Z"/></g>
<g><path style="opacity:1" fill="#fec90d" d="M 388.5,195.5 C 388.842,194.662 389.508,194.328 390.5,194.5C 390.5,195.167 390.833,195.5 391.5,195.5C 391.5,196.833 390.833,197.5 389.5,197.5C 389.672,196.508 389.338,195.842 388.5,195.5 Z"/></g>
<g><path style="opacity:1" fill="#fef200" d="M 269.5,195.5 C 272.469,198.642 275.302,201.975 278,205.5C 278.282,209.039 278.782,212.539 279.5,216C 279.167,216.5 278.833,217 278.5,217.5C 274.214,215.834 270.214,213.834 266.5,211.5C 266.334,207.154 266.501,202.821 267,198.5C 268.045,197.627 268.878,196.627 269.5,195.5 Z"/></g>
<g><path style="opacity:1" fill="#c6c6c6" d="M 388.5,195.5 C 389.338,195.842 389.672,196.508 389.5,197.5C 390.494,199.854 389.494,200.854 386.5,200.5C 385.662,200.158 385.328,199.492 385.5,198.5C 386.167,197.167 387.167,196.167 388.5,195.5 Z"/></g>
<g><path style="opacity:1" fill="#181d5c" d="M 276.5,198.5 C 281.006,200.25 285.006,202.75 288.5,206C 287.115,210.051 285.282,213.884 283,217.5C 282.248,213.148 281.415,208.815 280.5,204.5C 278.663,202.824 277.33,200.824 276.5,198.5 Z"/></g>
<g><path style="opacity:1" fill="#fec90d" d="M 385.5,198.5 C 385.328,199.492 385.662,200.158 386.5,200.5C 386.361,202.337 385.694,202.67 384.5,201.5C 382.908,199.775 383.242,198.775 385.5,198.5 Z"/></g>
<g><path style="opacity:1" fill="#fefffe" d="M 382.5,201.5 C 383.774,202.189 383.774,203.023 382.5,204C 365.323,215.848 348.156,227.682 331,239.5C 330.235,239.43 329.735,239.097 329.5,238.5C 347.448,226.549 365.115,214.216 382.5,201.5 Z"/></g>
<g><path style="opacity:1" fill="#f5f5f5" d="M 258.5,206.5 C 260.265,205.539 262.265,205.205 264.5,205.5C 264.5,207.5 264.5,209.5 264.5,211.5C 262.088,211.244 260.421,212.244 259.5,214.5C 258.289,213.726 258.289,212.893 259.5,212C 258.376,211.751 257.376,211.251 256.5,210.5C 257.612,209.735 258.279,208.735 258.5,207.5C 260.124,207.36 261.29,208.027 262,209.5C 262.483,208.552 262.649,207.552 262.5,206.5C 261.167,206.5 259.833,206.5 258.5,206.5 Z"/></g>
<g><path style="opacity:1" fill="#fef200" d="M 293.5,205.5 C 294.586,205.62 295.253,206.287 295.5,207.5C 295.842,213.654 293.009,217.321 287,218.5C 288.035,214.55 289.202,210.55 290.5,206.5C 291.791,206.737 292.791,206.404 293.5,205.5 Z"/></g>
<g><path style="opacity:1" fill="#000000" d="M 258.5,207.5 C 258.5,207.167 258.5,206.833 258.5,206.5C 259.833,206.5 261.167,206.5 262.5,206.5C 262.649,207.552 262.483,208.552 262,209.5C 261.29,208.027 260.124,207.36 258.5,207.5 Z"/></g>
<g><path style="opacity:1" fill="#fefffe" d="M 251.5,209.5 C 252.496,209.414 253.329,209.748 254,210.5C 254.831,214.172 256.665,217.172 259.5,219.5C 256.76,230.032 254.594,240.699 253,251.5C 248.911,256.262 244.244,260.262 239,263.5C 240.716,260.712 243.382,257.712 247,254.5C 248.08,252.004 249.414,249.67 251,247.5C 251.5,234.838 251.667,222.171 251.5,209.5 Z"/></g>
<g><path style="opacity:1" fill="#fefffe" d="M 296.5,210.5 C 299.346,210.809 300.846,212.475 301,215.5C 301.667,221.833 301.667,228.167 301,234.5C 297.299,239.198 293.299,243.531 289,247.5C 285.846,246.346 283.68,244.18 282.5,241C 291.522,232.743 296.188,222.577 296.5,210.5 Z"/></g>
<g><path style="opacity:1" fill="#fefffe" d="M 247.5,215.5 C 246.167,215.5 244.833,215.5 243.5,215.5C 244.47,214.371 245.636,213.371 247,212.5C 248.683,213.176 248.85,214.176 247.5,215.5 Z"/></g>
<g><path style="opacity:1" fill="#ec1c23" d="M 290.5,223.5 C 288.393,222.532 286.059,222.198 283.5,222.5C 278.319,221.833 272.985,221.167 267.5,220.5C 265.588,218.343 263.921,216.009 262.5,213.5C 263,213.167 263.5,212.833 264,212.5C 268.634,213.809 272.801,215.976 276.5,219C 282.32,219.95 287.987,219.45 293.5,217.5C 294.393,220.312 293.393,222.312 290.5,223.5 Z"/></g>
<g><path style="opacity:1" fill="#d8d8d8" d="M 243.5,215.5 C 244.833,215.5 246.167,215.5 247.5,215.5C 248.043,215.56 248.376,215.893 248.5,216.5C 247.398,217.176 246.398,217.842 245.5,218.5C 244.265,218.721 243.265,219.388 242.5,220.5C 241.914,220.291 241.414,219.957 241,219.5C 238.177,224.395 234.843,224.729 231,220.5C 230.409,219.517 230.743,218.85 232,218.5C 234.728,218.236 237.061,217.236 239,215.5C 240.618,215.598 242.118,215.598 243.5,215.5 Z"/></g>
<g><path style="opacity:1" fill="#870014" d="M 259.5,215.5 C 260.675,215.281 261.675,215.614 262.5,216.5C 268.416,223.342 273.583,230.675 278,238.5C 278.722,240.661 278.055,242.328 276,243.5C 269.661,234.635 264.161,225.302 259.5,215.5 Z"/></g>
<g><path style="opacity:1" fill="#fefffe" d="M 303.5,215.5 C 307.348,215.681 309.015,217.681 308.5,221.5C 307.93,227.872 307.096,234.205 306,240.5C 305.586,240.957 305.086,241.291 304.5,241.5C 303.502,232.859 303.169,224.192 303.5,215.5 Z"/></g>
<g><path style="opacity:1" fill="#fefffe" d="M 309.5,218.5 C 313.488,220.163 317.488,221.83 321.5,223.5C 320.624,224.251 319.624,224.751 318.5,225C 320.433,225.783 321.933,225.283 323,223.5C 323.49,224.793 323.657,226.127 323.5,227.5C 316.68,227.654 312.013,224.654 309.5,218.5 Z"/></g>
<g><path style="opacity:1" fill="#e5e5e5" d="M 283.5,222.5 C 286.059,222.198 288.393,222.532 290.5,223.5C 290.5,224.5 290.5,225.5 290.5,226.5C 286.833,226.5 283.167,226.5 279.5,226.5C 277.031,225.683 274.365,225.183 271.5,225C 270.833,224.333 270.167,223.667 269.5,223C 274.155,222.501 278.821,222.334 283.5,222.5 Z"/></g>
<g><path style="opacity:1" fill="#ec1c23" d="M 309.5,222.5 C 311.296,223.793 312.963,225.293 314.5,227C 318.891,229.358 322.725,228.858 326,225.5C 326.167,226 326.333,226.5 326.5,227C 324.423,229.549 322.089,231.882 319.5,234C 315.841,234.794 312.341,235.961 309,237.5C 308.412,232.472 308.578,227.472 309.5,222.5 Z"/></g>
<g><path style="opacity:1" fill="#fefffe" d="M 260.5,223.5 C 261.983,225.094 263.483,226.76 265,228.5C 267.313,233.793 270.146,238.793 273.5,243.5C 271.554,246.359 269.054,247.359 266,246.5C 262.592,241.851 260.426,236.685 259.5,231C 259.917,228.502 260.251,226.002 260.5,223.5 Z"/></g>
<g><path style="opacity:1" fill="#e81c23" d="M 245.5,218.5 C 246.833,218.5 248.167,218.5 249.5,218.5C 250.139,228.227 249.472,237.56 247.5,246.5C 245.642,242.473 244.975,238.14 245.5,233.5C 244.5,233.5 243.5,233.5 242.5,233.5C 238.321,230.59 237.655,231.257 240.5,235.5C 239.603,236.598 238.77,236.598 238,235.5C 235.926,241.95 234.926,248.617 235,255.5C 233.657,258.862 231.824,261.862 229.5,264.5C 224.746,264.182 220.413,263.016 216.5,261C 218.158,262.624 219.825,264.291 221.5,266C 223.631,266.543 225.631,267.376 227.5,268.5C 223.37,274.985 222.37,281.985 224.5,289.5C 220.121,289.292 215.787,289.625 211.5,290.5C 206.208,288.506 200.874,286.506 195.5,284.5C 193.958,282.121 192.625,279.621 191.5,277C 193.404,274.28 195.404,271.78 197.5,269.5C 196.518,270.141 195.518,270.807 194.5,271.5C 193.417,270.635 193.251,269.635 194,268.5C 199.667,262.167 205.333,255.833 211,249.5C 215.663,241.855 220.663,234.521 226,227.5C 227.709,225.825 229.376,224.158 231,222.5C 233.841,224.504 237.007,225.004 240.5,224C 243.079,222.924 244.746,221.091 245.5,218.5 Z"/></g>
<g><path style="opacity:1" fill="#ec1c23" d="M 279.5,226.5 C 282.977,227.323 286.644,227.823 290.5,228C 289.023,229.812 287.69,231.645 286.5,233.5C 285.432,232.566 284.099,232.232 282.5,232.5C 280.369,231.686 278.036,231.186 275.5,231C 274.257,229.846 273.257,228.512 272.5,227C 274.81,226.503 277.143,226.337 279.5,226.5 Z"/></g>
<g><path style="opacity:1" fill="#000000" d="M 242.5,233.5 C 242.869,235.993 242.203,236.66 240.5,235.5C 237.655,231.257 238.321,230.59 242.5,233.5 Z"/></g>
<g><path style="opacity:1" fill="#cbcbcb" d="M 282.5,232.5 C 284.099,232.232 285.432,232.566 286.5,233.5C 283.645,234.803 280.645,234.803 277.5,233.5C 279.045,232.548 280.712,232.215 282.5,232.5 Z"/></g>
<g><path style="opacity:1" fill="#ae1216" d="M 242.5,233.5 C 243.5,233.5 244.5,233.5 245.5,233.5C 244.975,238.14 245.642,242.473 247.5,246.5C 245.912,249.933 244.079,253.267 242,256.5C 239.222,257.612 237.055,259.445 235.5,262C 233.372,262.655 231.372,263.489 229.5,264.5C 231.824,261.862 233.657,258.862 235,255.5C 234.926,248.617 235.926,241.95 238,235.5C 238.77,236.598 239.603,236.598 240.5,235.5C 242.203,236.66 242.869,235.993 242.5,233.5 Z"/></g>
<g><path style="opacity:1" fill="#ba0f16" d="M 257.5,235.5 C 259.338,238.981 261.004,242.647 262.5,246.5C 262.167,246.833 261.833,247.167 261.5,247.5C 259.556,246.811 257.556,246.311 255.5,246C 256.739,242.636 257.406,239.136 257.5,235.5 Z"/></g>
<g><path style="opacity:1" fill="#ec1c23" d="M 278.5,236.5 C 280.288,235.378 282.288,235.211 284.5,236C 282.826,238.882 280.826,239.048 278.5,236.5 Z"/></g>
<g><path style="opacity:1" fill="#000000" d="M 317.5,238.5 C 317.414,239.496 317.748,240.329 318.5,241C 317.552,241.483 316.552,241.649 315.5,241.5C 315.932,240.29 316.599,239.29 317.5,238.5 Z"/></g>
<g><path style="opacity:1" fill="#e19778" d="M 317.5,238.5 C 320.044,238.104 322.211,238.771 324,240.5C 325.388,239.446 326.888,239.28 328.5,240C 330.667,242.167 332.833,244.333 335,246.5C 335.667,248.833 335.667,251.167 335,253.5C 332.674,255.066 330.508,256.732 328.5,258.5C 328.158,259.338 327.492,259.672 326.5,259.5C 324.442,260.933 322.108,261.6 319.5,261.5C 317.757,256.493 315.424,251.826 312.5,247.5C 311.433,245.121 312.433,244.121 315.5,244.5C 315.5,243.5 315.5,242.5 315.5,241.5C 316.552,241.649 317.552,241.483 318.5,241C 317.748,240.329 317.414,239.496 317.5,238.5 Z"/></g>
<g><path style="opacity:1" fill="#ba0f16" d="M 293.5,249.5 C 294.881,245.758 297.048,242.424 300,239.5C 300.667,241.167 300.667,242.833 300,244.5C 297.672,245.999 295.505,247.666 293.5,249.5 Z"/></g>
<g><path style="opacity:1" fill="#fec90d" d="M 281.5,249.5 C 280.25,249.577 279.417,250.244 279,251.5C 278.837,249.324 278.004,247.491 276.5,246C 279.473,242.329 281.807,242.663 283.5,247C 282.244,247.417 281.577,248.25 281.5,249.5 Z"/></g>
<g><path style="opacity:1" fill="#fec90d" d="M 275.5,255.5 C 273.872,254.147 272.538,254.481 271.5,256.5C 270.171,254.941 268.838,253.275 267.5,251.5C 269.789,250.534 271.789,249.201 273.5,247.5C 274.167,247.833 274.833,248.167 275.5,248.5C 276.214,250.811 277.214,252.978 278.5,255C 277.552,255.483 276.552,255.649 275.5,255.5 Z"/></g>
<g><path style="opacity:1" fill="#80563e" d="M 312.5,247.5 C 312.167,248.167 311.833,248.833 311.5,249.5C 304.054,255.73 296.387,261.73 288.5,267.5C 287.209,266.458 287.209,265.292 288.5,264C 295.45,259.385 302.116,254.385 308.5,249C 309.745,248.209 311.078,247.709 312.5,247.5 Z"/></g>
<g><path style="opacity:1" fill="#fefffe" d="M 255.5,249.5 C 258.807,250.051 262.14,250.384 265.5,250.5C 265.807,252.446 265.807,254.113 265.5,255.5C 262.5,254.333 259.5,253.167 256.5,252C 255.748,251.329 255.414,250.496 255.5,249.5 Z"/></g>
<g><path style="opacity:1" fill="#fefffe" d="M 311.5,249.5 C 312.525,249.897 312.692,250.563 312,251.5C 304.644,257.69 297.144,263.69 289.5,269.5C 288.702,269.043 288.369,268.376 288.5,267.5C 296.387,261.73 304.054,255.73 311.5,249.5 Z"/></g>
<g><path style="opacity:1" fill="#ec1c23" d="M 328.5,275.5 C 328.5,276.833 328.5,278.167 328.5,279.5C 320.317,273.802 312.317,267.969 304.5,262C 307.465,258.74 310.631,255.574 314,252.5C 314.896,255.082 316.229,257.416 318,259.5C 318.19,267.159 321.69,272.493 328.5,275.5 Z"/></g>
<g><path style="opacity:1" fill="#fef200" d="M 340.5,256.5 C 339.348,255.375 338.348,255.375 337.5,256.5C 336.307,256.97 335.64,257.97 335.5,259.5C 335.52,260.726 335.853,261.726 336.5,262.5C 337.512,263.872 338.512,265.205 339.5,266.5C 338.166,271.042 336.499,271.375 334.5,267.5C 333.691,264.274 331.691,262.774 328.5,263C 326.944,266.392 327.611,269.225 330.5,271.5C 331.78,273.106 331.28,274.106 329,274.5C 323.438,272.359 320.604,268.359 320.5,262.5C 323.313,262.975 325.313,261.975 326.5,259.5C 327.492,259.672 328.158,259.338 328.5,258.5C 332.471,257.428 335.971,255.428 339,252.5C 339.791,253.745 340.291,255.078 340.5,256.5 Z"/></g>
<g><path style="opacity:1" fill="#ba0f16" d="M 253.5,254.5 C 257.07,255.057 260.403,256.224 263.5,258C 260.833,260.667 258.167,263.333 255.5,266C 251.081,264.862 246.414,264.195 241.5,264C 245.975,261.35 249.975,258.183 253.5,254.5 Z"/></g>
<g><path style="opacity:1" fill="#000000" d="M 337.5,256.5 C 336.659,258.379 336.325,260.379 336.5,262.5C 335.853,261.726 335.52,260.726 335.5,259.5C 335.64,257.97 336.307,256.97 337.5,256.5 Z"/></g>
<g><path style="opacity:1" fill="#a9a9a9" d="M 340.5,256.5 C 341.038,258.117 341.371,259.784 341.5,261.5C 341.631,262.239 341.464,262.906 341,263.5C 340.138,261.913 339.471,260.246 339,258.5C 338.383,261.035 338.883,263.368 340.5,265.5C 340.376,266.107 340.043,266.44 339.5,266.5C 338.512,265.205 337.512,263.872 336.5,262.5C 336.325,260.379 336.659,258.379 337.5,256.5C 338.348,255.375 339.348,255.375 340.5,256.5 Z"/></g>
<g><path style="opacity:1" fill="#fef200" d="M 340.5,256.5 C 343.183,258.041 344.016,260.374 343,263.5C 342.722,262.584 342.222,261.918 341.5,261.5C 341.371,259.784 341.038,258.117 340.5,256.5 Z"/></g>
<g><path style="opacity:1" fill="#fefffe" d="M 268.5,264.5 C 268.265,263.903 267.765,263.57 267,263.5C 264.852,264.73 262.686,265.73 260.5,266.5C 259.761,266.631 259.094,266.464 258.5,266C 261.578,262.474 265.244,259.974 269.5,258.5C 269.795,260.735 269.461,262.735 268.5,264.5 Z"/></g>
<g><path style="opacity:1" fill="#8d5e44" d="M 286.5,262.5 C 286.5,263.833 286.5,265.167 286.5,266.5C 285.127,266.343 283.793,266.51 282.5,267C 278.935,270.396 275.602,273.896 272.5,277.5C 270.436,274.954 268.103,272.621 265.5,270.5C 268.567,267.971 271.567,267.971 274.5,270.5C 275.833,269.5 275.833,268.5 274.5,267.5C 272.974,267.006 271.641,266.339 270.5,265.5C 270.414,264.504 270.748,263.671 271.5,263C 273.708,262.809 275.708,262.309 277.5,261.5C 279.667,260.731 281.834,259.731 284,258.5C 284.662,259.984 285.496,261.317 286.5,262.5 Z"/></g>
<g><path style="opacity:1" fill="#ba0f16" d="M 300.5,262.5 C 301.124,262.917 301.457,263.584 301.5,264.5C 300.214,266.626 299.381,268.959 299,271.5C 298.293,269.919 297.46,268.419 296.5,267C 298.184,265.791 299.517,264.291 300.5,262.5 Z"/></g>
<g><path style="opacity:1" fill="#ec1c23" d="M 345.5,287.5 C 344.313,285.095 342.813,282.761 341,280.5C 339.989,279.663 338.822,279.33 337.5,279.5C 333.83,278.807 332.83,276.807 334.5,273.5C 339.274,270.962 342.941,267.295 345.5,262.5C 352.973,268.182 355.14,275.516 352,284.5C 350.266,286.451 348.099,287.451 345.5,287.5 Z"/></g>
<g><path style="opacity:1" fill="#000000" d="M 197.5,269.5 C 199.893,267.414 202.393,265.414 205,263.5C 205.749,264.635 205.583,265.635 204.5,266.5C 202.261,267.788 199.928,268.788 197.5,269.5 Z"/></g>
<g><path style="opacity:1" fill="#9a9a9a" d="M 334.5,267.5 C 334.631,268.239 334.464,268.906 334,269.5C 329.184,265.486 328.684,265.819 332.5,270.5C 332.043,271.298 331.376,271.631 330.5,271.5C 327.611,269.225 326.944,266.392 328.5,263C 331.691,262.774 333.691,264.274 334.5,267.5 Z"/></g>
<g><path style="opacity:1" fill="#db9475" d="M 268.5,264.5 C 268.842,265.338 269.508,265.672 270.5,265.5C 271.641,266.339 272.974,267.006 274.5,267.5C 275.833,268.5 275.833,269.5 274.5,270.5C 271.567,267.971 268.567,267.971 265.5,270.5C 268.103,272.621 270.436,274.954 272.5,277.5C 272.856,279.19 273.856,280.19 275.5,280.5C 277.085,281.002 277.585,282.002 277,283.5C 275.708,284.791 274.542,284.791 273.5,283.5C 271.159,280.814 269.825,281.481 269.5,285.5C 268.167,285.5 267.5,286.167 267.5,287.5C 266.833,288.833 266.167,288.833 265.5,287.5C 262.464,285.992 259.297,284.659 256,283.5C 253.189,283.703 250.522,284.369 248,285.5C 246.729,275.332 250.896,268.999 260.5,266.5C 262.686,265.73 264.852,264.73 267,263.5C 267.765,263.57 268.265,263.903 268.5,264.5 Z"/></g>
<g><path style="opacity:1" fill="#000000" d="M 211.5,265.5 C 214.187,265.336 216.854,265.503 219.5,266C 213.149,266.22 207.816,268.554 203.5,273C 201.956,274.187 200.289,274.52 198.5,274C 202.152,270.191 206.486,267.358 211.5,265.5 Z"/></g>
<g><path style="opacity:1" fill="#fef200" d="M 233.5,268.5 C 238.985,267.348 244.651,267.182 250.5,268C 246.119,273.69 243.785,280.19 243.5,287.5C 242.095,290.071 240.762,290.071 239.5,287.5C 237.68,285.539 235.68,285.206 233.5,286.5C 232.71,287.609 232.21,288.942 232,290.5C 231.768,289.263 231.268,288.263 230.5,287.5C 229.432,286.566 228.099,286.232 226.5,286.5C 225.709,284.309 225.709,282.309 226.5,280.5C 227.585,282.582 229.085,282.916 231,281.5C 234.735,284.588 237.902,284.088 240.5,280C 238.117,276.189 235.283,275.689 232,278.5C 230.653,276.534 229.153,276.201 227.5,277.5C 226.876,277.083 226.543,276.416 226.5,275.5C 226.747,274.287 227.414,273.62 228.5,273.5C 231.007,273.377 233.674,273.711 236.5,274.5C 239.11,274.353 241.444,273.519 243.5,272C 242.833,271 242.167,270 241.5,269C 238.854,268.503 236.187,268.336 233.5,268.5 Z"/></g>
<g><path style="opacity:1" fill="#9a9a9a" d="M 233.5,268.5 C 236.187,268.336 238.854,268.503 241.5,269C 242.167,270 242.833,271 243.5,272C 241.444,273.519 239.11,274.353 236.5,274.5C 233.674,273.711 231.007,273.377 228.5,273.5C 229.082,272.069 229.915,270.736 231,269.5C 231.671,268.748 232.504,268.414 233.5,268.5 Z"/></g>
<g><path style="opacity:1" fill="#fec90d" d="M 283.5,268.5 C 284.5,268.5 285.5,268.5 286.5,268.5C 286.027,273.143 283.527,276.143 279,277.5C 278.167,277.167 277.333,276.833 276.5,276.5C 278.856,273.814 281.189,271.147 283.5,268.5 Z"/></g>
<g><path style="opacity:1" fill="#870014" d="M 294.5,268.5 C 299.015,279.876 303.849,291.209 309,302.5C 310.652,307.099 311.652,311.765 312,316.5C 304.671,301.855 298.504,286.689 293.5,271C 293.743,270.098 294.077,269.265 294.5,268.5 Z"/></g>
<g><path style="opacity:1" fill="#fefffe" d="M 287.5,273.5 C 288.496,273.414 289.329,273.748 290,274.5C 294.311,281.625 294.645,288.959 291,296.5C 287.964,290.956 285.131,285.289 282.5,279.5C 284.19,277.481 285.856,275.481 287.5,273.5 Z"/></g>
<g><path style="opacity:1" fill="#ba0f16" d="M 328.5,275.5 C 329.833,275.5 331.167,275.5 332.5,275.5C 332.627,279.33 334.294,280.663 337.5,279.5C 338.822,279.33 339.989,279.663 341,280.5C 342.813,282.761 344.313,285.095 345.5,287.5C 337.284,290.042 331.617,287.375 328.5,279.5C 328.5,278.167 328.5,276.833 328.5,275.5 Z"/></g>
<g><path style="opacity:1" fill="#848484" d="M 226.5,280.5 C 226.557,279.391 226.89,278.391 227.5,277.5C 229.153,276.201 230.653,276.534 232,278.5C 235.283,275.689 238.117,276.189 240.5,280C 237.902,284.088 234.735,284.588 231,281.5C 229.085,282.916 227.585,282.582 226.5,280.5 Z"/></g>
<g><path style="opacity:1" fill="#ec1c23" d="M 275.5,280.5 C 277.287,279.183 278.954,279.516 280.5,281.5C 284.372,287.91 287.705,294.577 290.5,301.5C 288.187,302.273 285.854,302.94 283.5,303.5C 273.993,300.624 264.326,299.791 254.5,301C 255.283,298.882 256.616,297.382 258.5,296.5C 259.263,297.268 260.263,297.768 261.5,298C 267.5,298.667 273.5,298.667 279.5,298C 280.833,297 280.833,296 279.5,295C 273.843,294.501 268.176,294.334 262.5,294.5C 259.833,293.167 259.833,291.833 262.5,290.5C 267.985,291.652 273.651,291.818 279.5,291C 280.167,290.667 280.833,290.333 281.5,290C 280.309,289.302 279.309,288.469 278.5,287.5C 275.5,286.833 272.5,286.167 269.5,285.5C 270.833,284.833 272.167,284.167 273.5,283.5C 274.542,284.791 275.708,284.791 277,283.5C 277.585,282.002 277.085,281.002 275.5,280.5 Z"/></g>
<g><path style="opacity:1" fill="#000000" d="M 273.5,283.5 C 272.167,284.167 270.833,284.833 269.5,285.5C 269.825,281.481 271.159,280.814 273.5,283.5 Z"/></g>
<g><path style="opacity:1" fill="#ae7352" d="M 253.5,285.5 C 256.596,284.907 258.929,285.907 260.5,288.5C 259.335,289.584 258.002,290.417 256.5,291C 257.167,291.333 257.833,291.667 258.5,292C 250.629,302.028 242.629,311.861 234.5,321.5C 233.713,320.758 233.047,319.925 232.5,319C 233.517,317.951 233.684,316.784 233,315.5C 232.667,316.167 232.333,316.833 232,317.5C 228.483,314.283 225.316,310.783 222.5,307C 231.218,300.59 239.884,294.09 248.5,287.5C 250.336,286.972 252.003,286.306 253.5,285.5 Z"/></g>
<g><path style="opacity:1" fill="#000000" d="M 269.5,285.5 C 272.5,286.167 275.5,286.833 278.5,287.5C 274.833,287.5 271.167,287.5 267.5,287.5C 267.5,286.167 268.167,285.5 269.5,285.5 Z"/></g>
<g><path style="opacity:1" fill="#bcbcbc" d="M 239.5,287.5 C 238.082,289.308 236.082,289.975 233.5,289.5C 233.5,288.5 233.5,287.5 233.5,286.5C 235.68,285.206 237.68,285.539 239.5,287.5 Z"/></g>
<g><path style="opacity:1" fill="#736635" d="M 295.5,286.5 C 296.458,286.953 297.292,287.619 298,288.5C 299.027,293.921 301.027,298.921 304,303.5C 305.303,308.554 307.136,313.387 309.5,318C 308.833,318.667 308.167,319.333 307.5,320C 308.966,321.552 309.966,323.386 310.5,325.5C 308.283,333.597 303.45,339.597 296,343.5C 294.993,330.951 292.827,318.617 289.5,306.5C 292.662,300.178 294.662,293.511 295.5,286.5 Z"/></g>
<g><path style="opacity:1" fill="#fefffe" d="M 230.5,287.5 C 230.5,288.5 230.5,289.5 230.5,290.5C 229.5,290.5 228.5,290.5 227.5,290.5C 227.5,289.5 227.5,288.5 227.5,287.5C 228.5,287.5 229.5,287.5 230.5,287.5 Z"/></g>
<g><path style="opacity:1" fill="#b5b5b5" d="M 265.5,287.5 C 266.167,288.833 266.833,288.833 267.5,287.5C 271.167,287.5 274.833,287.5 278.5,287.5C 279.309,288.469 280.309,289.302 281.5,290C 280.833,290.333 280.167,290.667 279.5,291C 273.651,291.818 267.985,291.652 262.5,290.5C 262.5,289.5 262.5,288.5 262.5,287.5C 263.5,287.5 264.5,287.5 265.5,287.5 Z"/></g>
<g><path style="opacity:1" fill="#fefffe" d="M 233.5,291.5 C 237.195,290.874 238.029,291.874 236,294.5C 233.371,295.638 230.871,296.971 228.5,298.5C 227.833,298.333 227.167,298.167 226.5,298C 227.406,296.301 227.739,294.467 227.5,292.5C 229.735,292.795 231.735,292.461 233.5,291.5 Z"/></g>
<g><path style="opacity:1" fill="#8d8d8d" d="M 262.5,294.5 C 268.176,294.334 273.843,294.501 279.5,295C 280.833,296 280.833,297 279.5,298C 273.5,298.667 267.5,298.667 261.5,298C 260.263,297.768 259.263,297.268 258.5,296.5C 259.287,294.896 260.62,294.229 262.5,294.5 Z"/></g>
<g><path style="opacity:1" fill="#00a1e8" d="M 308.5,295.5 C 316.082,303.19 318.916,312.524 317,323.5C 316.667,320.833 316.333,318.167 316,315.5C 313.197,308.962 310.697,302.296 308.5,295.5 Z"/></g>
<g><path style="opacity:1" fill="#7c7c7c" d="M 261.5,302.5 C 263.045,303.23 263.878,304.563 264,306.5C 264.49,305.207 264.657,303.873 264.5,302.5C 273.215,302.266 281.048,304.6 288,309.5C 289.835,320.839 291.669,332.173 293.5,343.5C 293.085,345.822 292.751,348.155 292.5,350.5C 296.498,372.119 296.998,393.786 294,415.5C 293.523,421.7 292.189,427.7 290,433.5C 289.067,442.487 288.234,451.487 287.5,460.5C 282.994,462.384 278.327,462.884 273.5,462C 270.412,460.125 267.079,458.792 263.5,458C 265.377,455.749 266.877,453.249 268,450.5C 268.772,433.056 270.606,415.723 273.5,398.5C 273.333,396.5 273.167,394.5 273,392.5C 270.695,387.244 269.028,381.911 268,376.5C 269.96,379.618 271.627,382.951 273,386.5C 274.049,387.517 275.216,387.684 276.5,387C 273.591,382.097 270.591,377.263 267.5,372.5C 266.125,368.922 265.625,365.256 266,361.5C 267.764,364.179 269.431,366.846 271,369.5C 271.889,370.888 272.389,370.722 272.5,369C 271.637,366.773 270.637,364.607 269.5,362.5C 266.471,359.307 263.638,355.974 261,352.5C 260.38,348.949 259.88,345.282 259.5,341.5C 257.488,340.986 255.488,340.82 253.5,341C 250.328,343.006 247.662,345.506 245.5,348.5C 229.356,377.924 220.856,409.591 220,443.5C 214.198,444.187 208.365,444.854 202.5,445.5C 200.835,443.744 199.835,441.577 199.5,439C 201.9,424.571 203.9,410.071 205.5,395.5C 207.822,387.879 209.989,380.212 212,372.5C 214.104,354.661 217.104,336.994 221,319.5C 222.049,318.483 223.216,318.316 224.5,319C 227.271,323.591 231.271,325.258 236.5,324C 241.257,317.154 246.257,310.488 251.5,304C 255.025,303.821 258.359,303.321 261.5,302.5 Z"/></g>
<g><path style="opacity:1" fill="#fec90d" d="M 221.5,309.5 C 224.602,313.104 227.935,316.604 231.5,320C 231,320.5 230.5,321 230,321.5C 227.297,318.462 224.297,315.795 221,313.5C 220.421,312.072 220.588,310.738 221.5,309.5 Z"/></g>
<g><path style="opacity:1" fill="#fec90d" d="M 312.5,320.5 C 310.653,320.766 309.986,320.432 310.5,319.5C 312.098,318.515 313.765,318.349 315.5,319C 314.263,319.232 313.263,319.732 312.5,320.5 Z"/></g>
<g><path style="opacity:1" fill="#870014" d="M 312.5,320.5 C 313.5,320.5 314.5,320.5 315.5,320.5C 315.849,323.045 315.016,325.045 313,326.5C 311.759,324.452 311.592,322.452 312.5,320.5 Z"/></g>
<g><path style="opacity:1" fill="#000000" d="M 262.5,347.5 C 265.195,349.179 267.695,351.179 270,353.5C 270.667,354.167 270.667,354.833 270,355.5C 266.223,353.257 263.723,350.59 262.5,347.5 Z"/></g>
</svg>
