<?xml version="1.0" encoding="UTF-8"?>
<!DOCTYPE svg PUBLIC "-//W3C//DTD SVG 1.1//EN" "http://www.w3.org/Graphics/SVG/1.1/DTD/svg11.dtd">
<svg xmlns="http://www.w3.org/2000/svg" version="1.1" width="278px" height="344px" style="shape-rendering:geometricPrecision; text-rendering:geometricPrecision; image-rendering:optimizeQuality; fill-rule:evenodd; clip-rule:evenodd" xmlns:xlink="http://www.w3.org/1999/xlink">
<g><path style="opacity:1" fill="#fefffe" d="M 111.5,84.5 C 115.24,84.2408 118.906,84.5741 122.5,85.5C 123.8,90.0503 123.8,94.5503 122.5,99C 130.115,99.2444 137.615,100.078 145,101.5C 146.637,113.001 148.804,124.334 151.5,135.5C 157.244,135.081 162.578,136.248 167.5,139C 169.345,141.851 170.511,145.018 171,148.5C 180.29,157.635 189.956,166.302 200,174.5C 201.134,181.9 201.634,189.4 201.5,197C 201.333,203.833 201.167,210.667 201,217.5C 200.626,218.416 200.126,219.25 199.5,220C 204.645,222.383 209.978,224.383 215.5,226C 216.667,227.167 217.833,228.333 219,229.5C 220.119,237.268 218.786,244.601 215,251.5C 208.288,254.436 201.788,253.936 195.5,250C 190.044,246.213 184.877,242.046 180,237.5C 184.961,261.979 189.294,286.646 193,311.5C 195.706,313.871 198.039,316.537 200,319.5C 200.667,323.167 200.667,326.833 200,330.5C 199.5,331 199,331.5 198.5,332C 190.913,333.563 183.246,333.896 175.5,333C 173.361,329.527 170.527,326.694 167,324.5C 166.222,321.816 164.889,319.483 163,317.5C 162.816,293.612 155.483,272.279 141,253.5C 138.708,254.79 136.708,256.457 135,258.5C 134.667,266.833 134.333,275.167 134,283.5C 130.606,284.456 127.106,284.789 123.5,284.5C 125.199,299.008 125.699,313.674 125,328.5C 122.958,330.604 120.458,331.771 117.5,332C 111.167,332.667 104.833,332.667 98.5,332C 97.6667,331.167 96.8333,330.333 96,329.5C 94.8569,324.163 95.5235,319.163 98,314.5C 98.0384,302.16 97.5384,289.826 96.5,277.5C 96.6965,270.124 97.3631,262.791 98.5,255.5C 98.3333,253.833 98.1667,252.167 98,250.5C 96.2866,249.122 94.9533,247.455 94,245.5C 92.0989,237.249 93.7656,229.916 99,223.5C 99.2895,221.048 99.9562,218.715 101,216.5C 104.265,214.117 107.765,212.117 111.5,210.5C 112.167,208.833 112.833,207.167 113.5,205.5C 107.839,204.637 102.172,203.803 96.5,203C 94.2097,200.921 92.5431,198.421 91.5,195.5C 81.976,190.23 71.976,186.397 61.5,184C 60.2567,182.846 59.2567,181.512 58.5,180C 54.1745,180.011 51.1745,178.011 49.5,174C 37.2891,167.728 24.9558,161.728 12.5,156C 6.08677,151.447 3.75344,145.28 5.5,137.5C 10.1785,137.334 14.8452,137.501 19.5,138C 45.3809,150.107 71.3809,161.941 97.5,173.5C 99.1005,164.965 103.267,157.965 110,152.5C 110.238,148.152 109.905,143.819 109,139.5C 106.694,138.863 105.527,137.363 105.5,135C 106.676,131.486 108.509,128.319 111,125.5C 113.374,113.357 112.874,101.357 109.5,89.5C 109.724,87.5453 110.391,85.8787 111.5,84.5 Z M 171.5,189.5 C 174.72,192.313 175.554,195.646 174,199.5C 173.086,197.336 171.919,195.336 170.5,193.5C 171.246,192.264 171.579,190.93 171.5,189.5 Z"/></g>
<g><path style="opacity:1" fill="#000000" d="M 113.5,86.5 C 115.92,86.2924 118.253,86.6258 120.5,87.5C 121.395,92.4741 121.395,97.4741 120.5,102.5C 128.099,101.145 135.599,101.478 143,103.5C 144.637,115.001 146.804,126.334 149.5,137.5C 155.244,137.081 160.578,138.248 165.5,141C 167.345,143.851 168.511,147.018 169,150.5C 178.29,159.635 187.956,168.302 198,176.5C 199.13,183.232 199.63,190.065 199.5,197C 199.54,205.627 199.04,214.127 198,222.5C 203.074,224.525 208.241,226.359 213.5,228C 217.212,230.602 218.378,234.102 217,238.5C 215.878,242.493 214.378,246.326 212.5,250C 210.801,250.958 208.967,251.458 207,251.5C 202.422,250.628 198.255,248.795 194.5,246C 188.98,240.979 183.314,236.146 177.5,231.5C 177.167,232.5 176.833,233.5 176.5,234.5C 182.297,260.653 187.131,286.986 191,313.5C 194.664,316.682 197.164,320.516 198.5,325C 198.646,327.034 197.98,328.701 196.5,330C 189.866,331.748 183.2,331.915 176.5,330.5C 174.86,327.027 172.36,324.36 169,322.5C 168.222,319.816 166.889,317.483 165,315.5C 164.9,291.203 157.234,269.537 142,250.5C 138.329,251.502 135.329,253.502 133,256.5C 132.667,264.833 132.333,273.167 132,281.5C 128.379,282.913 124.879,282.58 121.5,280.5C 121.167,281 120.833,281.5 120.5,282C 120.935,290.821 121.935,299.488 123.5,308C 123.428,314.022 123.261,320.189 123,326.5C 118.564,329.693 113.564,331.027 108,330.5C 104.082,331.041 100.749,330.041 98,327.5C 99.0442,320.985 99.8776,314.319 100.5,307.5C 99.8844,297.497 99.2177,287.497 98.5,277.5C 99.2222,268.449 100.222,259.449 101.5,250.5C 93.7,242.416 93.5334,234.083 101,225.5C 101.29,223.048 101.956,220.715 103,218.5C 106.265,216.117 109.765,214.117 113.5,212.5C 114.432,209.47 115.765,206.637 117.5,204C 111.305,202.727 104.972,201.727 98.5,201C 96.2097,198.921 94.5431,196.421 93.5,193.5C 83.976,188.23 73.976,184.397 63.5,182C 62.2567,180.846 61.2567,179.512 60.5,178C 56.1745,178.011 53.1745,176.011 51.5,172C 39.2891,165.728 26.9558,159.728 14.5,154C 9.57691,150.323 7.24358,145.49 7.5,139.5C 10.8499,139.335 14.1832,139.502 17.5,140C 44.2629,152.715 71.2629,164.882 98.5,176.5C 100.775,172.47 102.608,168.136 104,163.5C 106.295,160.203 108.962,157.203 112,154.5C 111.604,150.543 113.104,147.71 116.5,146C 114.975,144.991 113.308,144.491 111.5,144.5C 111.744,141.737 113.077,139.571 115.5,138C 112.475,137.867 109.808,136.867 107.5,135C 109.333,132.5 111.167,130 113,127.5C 114.181,119.054 115.014,110.72 115.5,102.5C 114.013,98.2188 112.679,93.8854 111.5,89.5C 111.942,88.2613 112.609,87.2613 113.5,86.5 Z M 171.5,189.5 C 171.579,190.93 171.246,192.264 170.5,193.5C 171.919,195.336 173.086,197.336 174,199.5C 175.554,195.646 174.72,192.313 171.5,189.5 Z"/></g>
<g><path style="opacity:1" fill="#fefffe" d="M 118.5,102.5 C 117.833,102.5 117.167,102.5 116.5,102.5C 115.5,97.8333 114.5,93.1667 113.5,88.5C 115.5,88.5 117.5,88.5 119.5,88.5C 119.331,93.1811 118.998,97.8478 118.5,102.5 Z"/></g>
<g><path style="opacity:1" fill="#fb550d" d="M 116.5,102.5 C 117.167,102.5 117.833,102.5 118.5,102.5C 119.906,102.973 120.573,103.973 120.5,105.5C 120.573,107.027 119.906,108.027 118.5,108.5C 117.504,108.586 116.671,108.252 116,107.5C 115.616,105.803 115.782,104.137 116.5,102.5 Z"/></g>
<g><path style="opacity:1" fill="#1d1e1d" d="M 117.5,125.5 C 120.167,125.5 122.833,125.5 125.5,125.5C 125.849,118.845 123.516,113.512 118.5,109.5C 118.5,109.167 118.5,108.833 118.5,108.5C 119.906,108.027 120.573,107.027 120.5,105.5C 127.154,104.276 133.82,104.276 140.5,105.5C 141.942,114.484 143.275,123.484 144.5,132.5C 136.189,131.501 127.856,131.335 119.5,132C 116.578,132.292 114.578,133.792 113.5,136.5C 112.5,136 111.5,135.5 110.5,135C 112.343,131.345 114.676,128.178 117.5,125.5 Z"/></g>
<g><path style="opacity:1" fill="#7e7f7e" d="M 118.5,109.5 C 123.516,113.512 125.849,118.845 125.5,125.5C 122.833,125.5 120.167,125.5 117.5,125.5C 116.779,120.059 117.112,114.726 118.5,109.5 Z"/></g>
<g><path style="opacity:1" fill="#b67550" d="M 128.5,137.5 C 127.947,135.448 126.947,135.115 125.5,136.5C 124.594,137.965 123.261,138.965 121.5,139.5C 120.289,138.726 120.289,137.893 121.5,137C 120.552,136.517 119.552,136.351 118.5,136.5C 118.062,136.565 117.728,136.399 117.5,136C 118.328,135.085 119.328,134.419 120.5,134C 128.293,133.025 135.959,133.525 143.5,135.5C 144.429,136.689 144.762,138.022 144.5,139.5C 139.455,139.391 134.622,139.391 130,139.5C 129.722,138.584 129.222,137.918 128.5,137.5 Z"/></g>
<g><path style="opacity:1" fill="#000000" d="M 125.5,136.5 C 126.947,135.115 127.947,135.448 128.5,137.5C 127.609,136.89 126.609,136.557 125.5,136.5 Z"/></g>
<g><path style="opacity:1" fill="#fec096" d="M 118.5,136.5 C 119.552,136.351 120.552,136.517 121.5,137C 120.289,137.893 120.289,138.726 121.5,139.5C 123.261,138.965 124.594,137.965 125.5,136.5C 126.609,136.557 127.609,136.89 128.5,137.5C 128.586,138.496 128.252,139.329 127.5,140C 125.942,140.21 124.609,140.71 123.5,141.5C 121.847,141.66 120.514,142.326 119.5,143.5C 117.548,144.408 115.548,144.241 113.5,143C 115.79,141.223 117.457,139.056 118.5,136.5 Z"/></g>
<g><path style="opacity:1" fill="#c4c5c4" d="M 129.5,140.5 C 135.167,140.5 140.833,140.5 146.5,140.5C 146.5,143.5 146.5,146.5 146.5,149.5C 139.86,150.346 133.193,151.013 126.5,151.5C 126.5,148.167 126.5,144.833 126.5,141.5C 127.791,141.737 128.791,141.404 129.5,140.5 Z"/></g>
<g><path style="opacity:1" fill="#fefffe" d="M 123.5,141.5 C 125.402,144.337 126.069,147.671 125.5,151.5C 124.5,151.5 123.5,151.5 122.5,151.5C 122.253,148.061 122.586,144.728 123.5,141.5 Z"/></g>
<g><path style="opacity:1" fill="#fefffe" d="M 147.5,141.5 C 148.5,141.5 149.5,141.5 150.5,141.5C 150.5,144.167 150.5,146.833 150.5,149.5C 149.5,149.5 148.5,149.5 147.5,149.5C 147.5,146.833 147.5,144.167 147.5,141.5 Z"/></g>
<g><path style="opacity:1" fill="#c4c5c4" d="M 151.5,141.5 C 158.618,141.145 162.952,144.312 164.5,151C 162.809,155.414 161.476,155.414 160.5,151C 157.607,149.851 154.607,149.351 151.5,149.5C 151.5,146.833 151.5,144.167 151.5,141.5 Z"/></g>
<g><path style="opacity:1" fill="#7e7f7e" d="M 10.5,143.5 C 11.2506,142.427 12.2506,142.26 13.5,143C 28.6203,149.727 43.6203,156.727 58.5,164C 57.0937,166.449 55.0937,167.449 52.5,167C 40.7419,160.787 28.7419,155.121 16.5,150C 14.2659,147.937 12.2659,145.771 10.5,143.5 Z"/></g>
<g><path style="opacity:1" fill="#c3c3c4" d="M 119.5,143.5 C 120.765,144.514 121.431,146.014 121.5,148C 120.616,151.491 118.949,154.658 116.5,157.5C 113.291,152.952 114.125,149.285 119,146.5C 119.483,145.552 119.649,144.552 119.5,143.5 Z"/></g>
<g><path style="opacity:1" fill="#91585b" d="M 151.5,162.5 C 150.391,162.557 149.391,162.89 148.5,163.5C 146.007,164.774 143.341,165.44 140.5,165.5C 139.292,164.766 137.959,164.433 136.5,164.5C 133.535,165.734 130.535,165.734 127.5,164.5C 126.391,164.557 125.391,164.89 124.5,165.5C 119.922,164.118 118.422,161.118 120,156.5C 120.5,155.333 121.333,154.5 122.5,154C 134.828,152.256 147.162,151.756 159.5,152.5C 160.068,155.588 160.068,158.588 159.5,161.5C 156.957,163.478 154.29,163.811 151.5,162.5 Z"/></g>
<g><path style="opacity:1" fill="#3e47ca" d="M 179.5,184.5 C 177.779,178.158 173.446,175.158 166.5,175.5C 166.433,176.959 166.766,178.292 167.5,179.5C 166.898,183.122 165.398,183.455 163,180.5C 162.817,172.255 162.317,164.088 161.5,156C 162.931,155.535 164.097,154.701 165,153.5C 174.893,163.084 184.893,172.417 195,181.5C 195.831,188.524 195.664,195.524 194.5,202.5C 190.168,205.051 186.001,204.718 182,201.5C 181.942,196.481 181.108,191.648 179.5,187C 187.372,186.43 187.372,185.597 179.5,184.5 Z"/></g>
<g><path style="opacity:1" fill="#3f47cc" d="M 117.5,176.5 C 118.619,185.706 114.619,190.706 105.5,191.5C 103.117,191.363 100.783,191.029 98.5,190.5C 97.1968,187.645 97.1968,184.645 98.5,181.5C 100.614,180.966 102.448,179.966 104,178.5C 105.021,170.623 108.521,164.123 114.5,159C 115.448,158.517 116.448,158.351 117.5,158.5C 117.5,164.5 117.5,170.5 117.5,176.5 Z"/></g>
<g><path style="opacity:1" fill="#fefffe" d="M 151.5,162.5 C 151.232,164.099 151.566,165.432 152.5,166.5C 153.877,169.636 153.544,172.636 151.5,175.5C 150.479,174.099 149.479,172.765 148.5,171.5C 148.5,168.833 148.5,166.167 148.5,163.5C 149.391,162.89 150.391,162.557 151.5,162.5 Z"/></g>
<g><path style="opacity:1" fill="#503033" d="M 137.5,184.5 C 143.685,183.712 150.018,183.045 156.5,182.5C 156.976,178.007 157.642,173.673 158.5,169.5C 159.314,167.369 159.814,165.036 160,162.5C 160.167,166 160.333,169.5 160.5,173C 160.655,178.485 159.989,183.819 158.5,189C 147.225,190.576 135.892,190.909 124.5,190C 123.257,188.846 122.257,187.512 121.5,186C 127.016,185.827 132.349,185.327 137.5,184.5 Z"/></g>
<g><path style="opacity:1" fill="#000000" d="M 148.5,163.5 C 148.5,166.167 148.5,168.833 148.5,171.5C 147.835,169.631 147.169,167.631 146.5,165.5C 144.929,166.309 143.262,166.643 141.5,166.5C 141.5,167.5 141.5,168.5 141.5,169.5C 140.566,168.432 140.232,167.099 140.5,165.5C 143.341,165.44 146.007,164.774 148.5,163.5 Z"/></g>
<g><path style="opacity:1" fill="#8b5458" d="M 158.5,169.5 C 157.642,173.673 156.976,178.007 156.5,182.5C 150.018,183.045 143.685,183.712 137.5,184.5C 131.833,184.5 126.167,184.5 120.5,184.5C 119.878,177.836 119.712,171.169 120,164.5C 121,165.167 122,165.833 123,166.5C 123.181,169.695 123.681,172.695 124.5,175.5C 125.151,176.091 125.818,176.757 126.5,177.5C 127.182,176.757 127.849,176.091 128.5,175.5C 129.477,172.713 129.81,169.713 129.5,166.5C 131.5,166.5 133.5,166.5 135.5,166.5C 135.205,168.735 135.539,170.735 136.5,172.5C 139.98,176.447 141.647,175.447 141.5,169.5C 141.5,168.5 141.5,167.5 141.5,166.5C 143.262,166.643 144.929,166.309 146.5,165.5C 147.169,167.631 147.835,169.631 148.5,171.5C 149.479,172.765 150.479,174.099 151.5,175.5C 153.544,172.636 153.877,169.636 152.5,166.5C 153.841,164.88 155.674,163.88 158,163.5C 158.495,165.473 158.662,167.473 158.5,169.5 Z"/></g>
<g><path style="opacity:1" fill="#fec90d" d="M 69.5,171.5 C 68.8347,173.698 68.1681,176.031 67.5,178.5C 66.1552,177.653 65.1552,176.487 64.5,175C 56.382,173.637 55.0487,170.137 60.5,164.5C 63.8191,166.632 66.8191,168.965 69.5,171.5 Z"/></g>
<g><path style="opacity:1" fill="#fefffe" d="M 127.5,164.5 C 128.423,168.064 128.756,171.731 128.5,175.5C 127.849,176.091 127.182,176.757 126.5,177.5C 125.818,176.757 125.151,176.091 124.5,175.5C 124.5,172.167 124.5,168.833 124.5,165.5C 125.391,164.89 126.391,164.557 127.5,164.5 Z"/></g>
<g><path style="opacity:1" fill="#000000" d="M 127.5,164.5 C 130.535,165.734 133.535,165.734 136.5,164.5C 136.5,167.167 136.5,169.833 136.5,172.5C 135.539,170.735 135.205,168.735 135.5,166.5C 133.5,166.5 131.5,166.5 129.5,166.5C 129.81,169.713 129.477,172.713 128.5,175.5C 128.756,171.731 128.423,168.064 127.5,164.5 Z"/></g>
<g><path style="opacity:1" fill="#fefffe" d="M 136.5,164.5 C 137.959,164.433 139.292,164.766 140.5,165.5C 140.232,167.099 140.566,168.432 141.5,169.5C 141.647,175.447 139.98,176.447 136.5,172.5C 136.5,169.833 136.5,167.167 136.5,164.5 Z"/></g>
<g><path style="opacity:1" fill="#7e7f7e" d="M 94.5,183.5 C 86.7972,179.655 78.7972,176.321 70.5,173.5C 70.1667,172.833 69.8333,172.167 69.5,171.5C 70.1499,171.196 70.8165,170.863 71.5,170.5C 80.161,173.834 88.4944,177.667 96.5,182C 96.1639,183.03 95.4972,183.53 94.5,183.5 Z"/></g>
<g><path style="opacity:1" fill="#392419" d="M 70.5,173.5 C 78.7972,176.321 86.7972,179.655 94.5,183.5C 96.2432,185.126 96.7432,187.126 96,189.5C 87.555,184.745 78.7216,181.078 69.5,178.5C 69.2155,176.585 69.5489,174.919 70.5,173.5 Z"/></g>
<g><path style="opacity:1" fill="#1d226b" d="M 179.5,184.5 C 179.565,184.938 179.399,185.272 179,185.5C 176.78,182.979 174.28,180.812 171.5,179C 170.072,178.421 168.738,178.588 167.5,179.5C 166.766,178.292 166.433,176.959 166.5,175.5C 173.446,175.158 177.779,178.158 179.5,184.5 Z"/></g>
<g><path style="opacity:1" fill="#1d226b" d="M 117.5,176.5 C 118.828,181.637 119.328,186.97 119,192.5C 116.926,194.452 114.759,196.285 112.5,198C 108.818,198.222 105.152,197.889 101.5,197C 99.5494,195.266 98.5494,193.099 98.5,190.5C 100.783,191.029 103.117,191.363 105.5,191.5C 114.619,190.706 118.619,185.706 117.5,176.5 Z"/></g>
<g><path style="opacity:1" fill="#fefffe" d="M 162.5,183.5 C 165.902,184.558 166.402,186.558 164,189.5C 161.521,187.912 161.021,185.912 162.5,183.5 Z"/></g>
<g><path style="opacity:1" fill="#fefffe" d="M 170.5,185.5 C 174.257,186.767 176.424,189.434 177,193.5C 176.993,198.213 176.327,202.88 175,207.5C 172.212,205.588 170.879,202.921 171,199.5C 169.936,197.731 168.769,196.064 167.5,194.5C 168.704,191.556 169.704,188.556 170.5,185.5 Z M 171.5,189.5 C 171.579,190.93 171.246,192.264 170.5,193.5C 171.919,195.336 173.086,197.336 174,199.5C 175.554,195.646 174.72,192.313 171.5,189.5 Z"/></g>
<g><path style="opacity:1" fill="#1d226b" d="M 128.5,194.5 C 126.5,195.167 124.5,195.833 122.5,196.5C 120.891,194.399 120.391,192.065 121,189.5C 123.375,191.52 125.875,193.187 128.5,194.5 Z"/></g>
<g><path style="opacity:1" fill="#3f47cc" d="M 160.5,189.5 C 161.117,189.611 161.617,189.944 162,190.5C 162.226,193.095 162.726,195.595 163.5,198C 160.249,201.922 156.416,205.088 152,207.5C 147.593,202.803 147.426,197.97 151.5,193C 154.167,192.333 156.833,191.667 159.5,191C 160.056,190.617 160.389,190.117 160.5,189.5 Z"/></g>
<g><path style="opacity:1" fill="#fefffe" d="M 130.5,193.5 C 135.316,192.35 140.316,192.184 145.5,193C 143.927,196.778 142.427,200.611 141,204.5C 137.998,200.332 134.498,196.665 130.5,193.5 Z"/></g>
<g><path style="opacity:1" fill="#5a271a" d="M 144.5,212.5 C 142.726,218.432 140.56,224.432 138,230.5C 134.126,233.675 129.959,234.175 125.5,232C 126.056,231.617 126.389,231.117 126.5,230.5C 128.741,229.379 131.075,228.213 133.5,227C 135.364,224.312 137.364,221.812 139.5,219.5C 140.79,218.942 141.623,217.942 142,216.5C 141.805,208.492 143.305,200.825 146.5,193.5C 147.5,192.167 148.5,192.167 149.5,193.5C 146.73,199.581 145.064,205.914 144.5,212.5 Z"/></g>
<g><path style="opacity:1" fill="#3f47cc" d="M 128.5,194.5 C 130.479,195.812 132.145,197.479 133.5,199.5C 129.996,204.03 125.663,207.697 120.5,210.5C 120.167,210.333 119.833,210.167 119.5,210C 121.999,205.864 122.999,201.364 122.5,196.5C 124.5,195.833 126.5,195.167 128.5,194.5 Z"/></g>
<g><path style="opacity:1" fill="#fffeff" d="M 166.5,207.5 C 164.937,208.945 163.604,210.611 162.5,212.5C 161.735,212.923 160.902,213.257 160,213.5C 155.206,212.547 150.373,211.88 145.5,211.5C 145.144,208.436 145.977,205.769 148,203.5C 149.769,209.198 152.936,210.031 157.5,206C 159.667,203.833 161.833,201.667 164,199.5C 167.315,201.435 168.149,204.101 166.5,207.5 Z"/></g>
<g><path style="opacity:1" fill="#fefffe" d="M 134.5,200.5 C 138.12,203.31 138.286,206.31 135,209.5C 133.414,208.624 131.914,207.624 130.5,206.5C 131.467,204.21 132.8,202.21 134.5,200.5 Z"/></g>
<g><path style="opacity:1" fill="#fefefe" d="M 180.5,203.5 C 185.2,206.761 190.034,207.095 195,204.5C 195.667,207.167 195.667,209.833 195,212.5C 189.056,214.553 184.056,213.22 180,208.5C 179.36,206.735 179.527,205.068 180.5,203.5 Z"/></g>
<g><path style="opacity:1" fill="#99d9e9" d="M 139.5,219.5 C 137.364,221.812 135.364,224.312 133.5,227C 131.075,228.213 128.741,229.379 126.5,230.5C 115.652,228.97 112.985,223.47 118.5,214C 122.342,212.332 125.509,209.832 128,206.5C 130.638,209.317 133.638,211.65 137,213.5C 138.122,215.407 138.955,217.407 139.5,219.5 Z"/></g>
<g><path style="opacity:1" fill="#3f47cc" d="M 138.5,207.5 C 139.496,207.414 140.329,207.748 141,208.5C 141.667,210.833 141.667,213.167 141,215.5C 139.859,213.391 138.359,211.558 136.5,210C 137.381,209.292 138.047,208.458 138.5,207.5 Z"/></g>
<g><path style="opacity:1" fill="#dd4a20" d="M 166.5,207.5 C 168.934,208.099 170.601,209.599 171.5,212C 169.742,219.731 168.408,227.565 167.5,235.5C 166.599,236.29 165.932,237.29 165.5,238.5C 163.566,239.11 161.899,240.11 160.5,241.5C 158.632,242.263 156.965,243.263 155.5,244.5C 153.62,244.229 152.287,244.896 151.5,246.5C 149.973,246.427 148.973,247.094 148.5,248.5C 147.026,246.863 145.192,245.863 143,245.5C 139.129,246.269 135.462,247.602 132,249.5C 125.925,248.784 120.425,246.784 115.5,243.5C 115.037,240.67 114.371,238.003 113.5,235.5C 113.18,232.102 113.513,228.768 114.5,225.5C 115.797,228.631 117.964,230.964 121,232.5C 121.953,235.432 122.453,238.432 122.5,241.5C 127.784,241.324 132.784,240.324 137.5,238.5C 139.104,237.713 139.771,236.38 139.5,234.5C 140.302,233.048 140.802,231.382 141,229.5C 142.791,232.35 143.958,235.35 144.5,238.5C 148.371,239.558 152.037,238.891 155.5,236.5C 158.96,235.125 162.46,233.791 166,232.5C 166.53,226.796 166.197,221.129 165,215.5C 163.955,214.627 163.122,213.627 162.5,212.5C 163.604,210.611 164.937,208.945 166.5,207.5 Z"/></g>
<g><path style="opacity:1" fill="#1e1e1d" d="M 144.5,212.5 C 150.391,213.989 156.391,215.156 162.5,216C 164.026,221.044 164.526,226.211 164,231.5C 157.53,232.724 151.03,232.557 144.5,231C 143.773,228.876 143.106,226.709 142.5,224.5C 144.145,220.675 144.812,216.675 144.5,212.5 Z"/></g>
<g><path style="opacity:1" fill="#41281b" d="M 178.5,216.5 C 183.139,219.155 187.806,221.821 192.5,224.5C 197.497,227.677 202.997,230.01 209,231.5C 210.03,231.836 210.53,232.503 210.5,233.5C 208.437,237.717 207.104,242.05 206.5,246.5C 203.243,245.538 200.243,244.038 197.5,242C 190.833,236.333 184.167,230.667 177.5,225C 176.216,224.316 175.049,224.483 174,225.5C 173.34,222.322 172.507,219.322 171.5,216.5C 171.461,215.244 171.961,214.244 173,213.5C 174.741,214.758 176.574,215.758 178.5,216.5 Z"/></g>
<g><path style="opacity:1" fill="#ffc096" d="M 192.5,224.5 C 187.806,221.821 183.139,219.155 178.5,216.5C 178.787,214.879 179.787,213.879 181.5,213.5C 185.325,215.145 189.325,215.812 193.5,215.5C 193.632,218.57 193.299,221.57 192.5,224.5 Z"/></g>
<g><path style="opacity:1" fill="#c4c4c4" d="M 171.5,216.5 C 172.545,222.012 172.545,227.512 171.5,233C 177.08,258.734 182.08,284.567 186.5,310.5C 186.145,311.522 185.478,312.189 184.5,312.5C 180.31,309.773 176.31,310.106 172.5,313.5C 168.204,313.071 167.204,310.904 169.5,307C 168.115,293.624 164.781,280.791 159.5,268.5C 155.812,261.786 152.145,255.119 148.5,248.5C 150.027,248.573 151.027,247.906 151.5,246.5C 153.153,246.34 154.486,245.674 155.5,244.5C 158.034,244.741 159.7,243.741 160.5,241.5C 162.933,241.727 164.599,240.727 165.5,238.5C 165.932,237.29 166.599,236.29 167.5,235.5C 168.222,235.082 168.722,234.416 169,233.5C 169.71,227.669 170.543,222.002 171.5,216.5 Z"/></g>
<g><path style="opacity:1" fill="#cea38a" d="M 111.5,218.5 C 112.586,218.62 113.253,219.287 113.5,220.5C 111.845,222.754 109.678,224.421 107,225.5C 106.5,225.167 106,224.833 105.5,224.5C 107.103,222.046 109.103,220.046 111.5,218.5 Z"/></g>
<g><path style="opacity:1" fill="#c79d86" d="M 113.5,235.5 C 114.371,238.003 115.037,240.67 115.5,243.5C 115.586,244.496 115.252,245.329 114.5,246C 105.532,248.657 100.699,245.49 100,236.5C 102.027,230.642 105.86,226.642 111.5,224.5C 112.167,228.313 112.834,231.979 113.5,235.5 Z"/></g>
<g><path style="opacity:1" fill="#3c44c0" d="M 139.5,234.5 C 139.771,236.38 139.104,237.713 137.5,238.5C 132.716,238.57 128.049,239.237 123.5,240.5C 123.162,237.989 123.162,235.655 123.5,233.5C 128.806,236.302 133.973,235.968 139,232.5C 139.464,233.094 139.631,233.761 139.5,234.5 Z"/></g>
<g><path style="opacity:1" fill="#363a9f" d="M 155.5,236.5 C 152.037,238.891 148.371,239.558 144.5,238.5C 144.5,236.833 144.5,235.167 144.5,233.5C 147.193,233.572 149.86,233.905 152.5,234.5C 154.03,234.64 155.03,235.307 155.5,236.5 Z"/></g>
<g><path style="opacity:1" fill="#fec90d" d="M 210.5,233.5 C 211.756,233.461 212.756,233.961 213.5,235C 211.927,238.778 210.427,242.611 209,246.5C 208.023,247.774 207.189,247.774 206.5,246.5C 207.104,242.05 208.437,237.717 210.5,233.5 Z"/></g>
<g><path style="opacity:1" fill="#000000" d="M 165.5,238.5 C 164.599,240.727 162.933,241.727 160.5,241.5C 161.899,240.11 163.566,239.11 165.5,238.5 Z"/></g>
<g><path style="opacity:1" fill="#000000" d="M 160.5,241.5 C 159.7,243.741 158.034,244.741 155.5,244.5C 156.965,243.263 158.632,242.263 160.5,241.5 Z"/></g>
<g><path style="opacity:1" fill="#000000" d="M 155.5,244.5 C 154.486,245.674 153.153,246.34 151.5,246.5C 152.287,244.896 153.62,244.229 155.5,244.5 Z"/></g>
<g><path style="opacity:1" fill="#c4c5c4" d="M 122.5,255.5 C 122.806,258.385 122.473,261.052 121.5,263.5C 117.113,267.362 112.113,270.195 106.5,272C 110.426,273.027 114.093,274.527 117.5,276.5C 116.914,278.243 116.581,280.076 116.5,282C 117.183,290.154 117.683,298.32 118,306.5C 119.824,307.749 119.657,308.915 117.5,310C 115.866,310.494 114.199,310.66 112.5,310.5C 112.44,309.957 112.107,309.624 111.5,309.5C 109.22,310.136 107.22,311.136 105.5,312.5C 104.467,301.106 103.467,289.44 102.5,277.5C 103.801,267.859 104.801,258.192 105.5,248.5C 110.399,248.711 115.066,248.211 119.5,247C 120.996,249.714 121.996,252.547 122.5,255.5 Z"/></g>
<g><path style="opacity:1" fill="#000000" d="M 151.5,246.5 C 151.027,247.906 150.027,248.573 148.5,248.5C 148.973,247.094 149.973,246.427 151.5,246.5 Z"/></g>
<g><path style="opacity:1" fill="#3a3a3a" d="M 127.5,269.5 C 126.508,269.672 125.842,269.338 125.5,268.5C 123.964,264.283 122.964,259.95 122.5,255.5C 122.192,253.076 122.526,250.743 123.5,248.5C 126.228,249.145 128.895,249.979 131.5,251C 130.667,251.833 129.833,252.667 129,253.5C 128.827,259.016 128.327,264.349 127.5,269.5 Z"/></g>
<g><path style="opacity:1" fill="#575857" d="M 121.5,263.5 C 121.239,268.225 119.905,272.559 117.5,276.5C 114.093,274.527 110.426,273.027 106.5,272C 112.113,270.195 117.113,267.362 121.5,263.5 Z"/></g>
<g><path style="opacity:1" fill="#404040" d="M 159.5,268.5 C 159.369,267.624 159.702,266.957 160.5,266.5C 165.561,269.588 169.894,268.755 173.5,264C 174.5,263.333 175.5,263.333 176.5,264C 174.65,267.362 172.317,270.362 169.5,273C 168.167,273.667 166.833,273.667 165.5,273C 163.34,271.668 161.34,270.168 159.5,268.5 Z"/></g>
<g><path style="opacity:1" fill="#fec90d" d="M 125.5,268.5 C 125.842,269.338 126.508,269.672 127.5,269.5C 128.569,272.408 128.736,275.408 128,278.5C 124.542,275.759 123.708,272.425 125.5,268.5 Z"/></g>
<g><path style="opacity:1" fill="#1d1d1d" d="M 112.5,310.5 C 113.952,311.302 115.618,311.802 117.5,312C 122.69,322.284 119.523,327.117 108,326.5C 105.648,326.695 103.648,326.028 102,324.5C 102.493,321.863 103.827,319.53 106,317.5C 106.64,315.735 106.473,314.068 105.5,312.5C 107.22,311.136 109.22,310.136 111.5,309.5C 112.107,309.624 112.44,309.957 112.5,310.5 Z"/></g>
<g><path style="opacity:1" fill="#1c1c1c" d="M 184.5,312.5 C 184.351,313.552 184.517,314.552 185,315.5C 188.833,318 192,321.167 194.5,325C 191.832,326.874 188.832,327.707 185.5,327.5C 182.989,327.712 180.822,327.045 179,325.5C 176.843,322.344 174.343,319.511 171.5,317C 172.337,315.989 172.67,314.822 172.5,313.5C 176.31,310.106 180.31,309.773 184.5,312.5 Z"/></g>
</svg>
