<?xml version="1.0" encoding="UTF-8"?>
<!DOCTYPE svg PUBLIC "-//W3C//DTD SVG 1.1//EN" "http://www.w3.org/Graphics/SVG/1.1/DTD/svg11.dtd">
<svg xmlns="http://www.w3.org/2000/svg" version="1.1" width="417px" height="400px" style="shape-rendering:geometricPrecision; text-rendering:geometricPrecision; image-rendering:optimizeQuality; fill-rule:evenodd; clip-rule:evenodd" xmlns:xlink="http://www.w3.org/1999/xlink">
<g><path style="opacity:1" fill="#fefffe" d="M 205.5,11.5 C 212.881,11.3143 220.214,11.8143 227.5,13C 228.333,13.8333 229.167,14.6667 230,15.5C 230.244,24.8405 229.911,34.1738 229,43.5C 228.73,51.331 227.564,58.9977 225.5,66.5C 226.189,68.444 226.689,70.444 227,72.5C 231.898,74.9585 234.232,78.9585 234,84.5C 234.667,92.5 234.667,100.5 234,108.5C 233.484,111.034 232.317,113.2 230.5,115C 231.467,119.401 231.8,123.901 231.5,128.5C 227.426,128.701 223.426,129.368 219.5,130.5C 220.23,133.109 220.73,135.776 221,138.5C 224.092,139.923 226.092,142.257 227,145.5C 227.17,151.196 227.67,156.862 228.5,162.5C 237.637,156.529 246.637,150.362 255.5,144C 270.48,134.506 285.146,124.506 299.5,114C 300.723,110.777 303.056,109.111 306.5,109C 308.903,106.318 311.403,103.818 314,101.5C 315.752,97.4122 318.585,94.2455 322.5,92C 340.333,81.5847 357.999,70.918 375.5,60C 381.825,59.5005 388.158,59.3338 394.5,59.5C 394.665,62.5184 394.498,65.5184 394,68.5C 374.488,82.5895 355.155,96.9228 336,111.5C 335.782,114.426 335.282,117.26 334.5,120C 314.819,132.84 295.485,146.173 276.5,160C 274.898,161.935 273.731,164.101 273,166.5C 261.933,175.288 250.1,182.954 237.5,189.5C 236.669,195.807 236.169,202.141 236,208.5C 234.651,211.934 232.151,214.101 228.5,215C 223.833,215.667 219.167,215.667 214.5,215C 211.302,214.152 208.469,212.652 206,210.5C 203.667,212.167 201.333,213.833 199,215.5C 199.068,221.367 197.401,226.7 194,231.5C 193.333,240.167 192.667,248.833 192,257.5C 191.265,259.871 190.432,262.205 189.5,264.5C 191.569,269.873 193.736,275.207 196,280.5C 196.319,296.863 195.819,313.196 194.5,329.5C 195.734,335.106 196.567,340.772 197,346.5C 200.703,349.867 204.036,353.534 207,357.5C 207.802,362.419 207.635,367.252 206.5,372C 197.416,375.274 188.082,376.607 178.5,376C 173.387,373.694 168.887,370.528 165,366.5C 164.628,358.343 163.294,350.343 161,342.5C 160.667,336.833 160.333,331.167 160,325.5C 157.816,329.677 155.65,333.843 153.5,338C 154.036,340.24 155.203,342.073 157,343.5C 158.223,349.379 157.389,354.879 154.5,360C 147.943,361.586 141.276,361.92 134.5,361C 131.898,360.117 129.731,358.617 128,356.5C 125.472,352.874 123.805,348.874 123,344.5C 120,342.833 117.667,340.5 116,337.5C 115.333,332.833 115.333,328.167 116,323.5C 122.875,310.636 130.541,298.303 139,286.5C 141.227,281.046 143.727,275.713 146.5,270.5C 145.167,267.833 143.833,265.167 142.5,262.5C 139.553,261.679 136.553,261.179 133.5,261C 131.326,257.996 128.992,255.163 126.5,252.5C 116.713,261.227 105.38,267.061 92.5,270C 87.9132,270.799 83.4132,270.632 79,269.5C 78.3333,265.5 78.3333,261.5 79,257.5C 87.7494,251.875 96.5827,246.375 105.5,241C 107.074,239.174 107.907,237.007 108,234.5C 109.214,232.951 110.714,231.785 112.5,231C 111.207,230.51 109.873,230.343 108.5,230.5C 108.017,219.788 110.683,209.954 116.5,201C 115.458,199.082 114.292,197.249 113,195.5C 112.333,190.167 112.333,184.833 113,179.5C 117.3,174.199 121.966,169.199 127,164.5C 128.584,156.572 130.418,148.739 132.5,141C 130.383,139.269 128.883,137.102 128,134.5C 127.242,128.109 127.576,121.776 129,115.5C 129.273,113.671 130.107,112.171 131.5,111C 135.905,108.628 140.572,107.128 145.5,106.5C 144.959,103.348 145.959,100.848 148.5,99C 155.316,98.8107 161.982,98.6441 168.5,98.5C 168.334,93.1563 168.501,87.8229 169,82.5C 169.309,81.2341 169.809,80.0674 170.5,79C 173.957,77.2565 177.623,76.2565 181.5,76C 183.596,74.2342 185.929,72.9009 188.5,72C 193.155,71.5008 197.821,71.3342 202.5,71.5C 202.292,69.0799 202.626,66.7466 203.5,64.5C 201.238,48.5871 200.071,32.5871 200,16.5C 201.73,14.5981 203.563,12.9314 205.5,11.5 Z"/></g>
<g><path style="opacity:1" fill="#000000" d="M 207.5,13.5 C 213.545,13.4283 219.545,13.9283 225.5,15C 226.333,15.8333 227.167,16.6667 228,17.5C 227.911,29.1783 227.244,40.845 226,52.5C 225.846,57.9255 224.679,63.0922 222.5,68C 224.074,69.8259 224.907,71.9925 225,74.5C 229.898,76.9585 232.232,80.9585 232,86.5C 232.667,93.1667 232.667,99.8333 232,106.5C 231.394,109.548 229.894,112.048 227.5,114C 229.219,117.957 229.886,122.124 229.5,126.5C 225.519,127.021 221.519,127.354 217.5,127.5C 217.895,131.185 218.062,134.852 218,138.5C 217.25,139.126 216.416,139.626 215.5,140C 218.973,140.319 221.806,141.819 224,144.5C 225,152.167 226,159.833 227,167.5C 251.029,152.144 274.529,135.977 297.5,119C 300.5,117.333 302.833,115 304.5,112C 305.833,111.667 307.167,111.333 308.5,111C 310.903,108.318 313.403,105.818 316,103.5C 317.752,99.4122 320.585,96.2455 324.5,94C 342.333,83.5847 359.999,72.918 377.5,62C 382.489,61.5007 387.489,61.3341 392.5,61.5C 392.739,63.4672 392.406,65.3005 391.5,67C 372.066,80.8007 352.9,94.9674 334,109.5C 333.782,112.426 333.282,115.26 332.5,118C 312.819,130.84 293.485,144.173 274.5,158C 272.734,160.096 271.401,162.429 270.5,165C 259.304,173.85 247.304,181.517 234.5,188C 234.492,194.048 234.325,200.215 234,206.5C 229.911,212.948 224.078,215.115 216.5,213C 212.336,212.177 209.169,210.01 207,206.5C 203.492,208.587 200.158,210.92 197,213.5C 197.068,219.367 195.401,224.7 192,229.5C 191.333,238.167 190.667,246.833 190,255.5C 189.22,258.512 188.053,261.345 186.5,264C 188.996,270.15 191.496,276.316 194,282.5C 194.166,298.181 193.666,313.848 192.5,329.5C 193.551,335.804 194.384,342.138 195,348.5C 198.703,351.867 202.036,355.534 205,359.5C 205.789,363.091 205.622,366.591 204.5,370C 196.671,372.627 188.671,373.961 180.5,374C 175.387,371.694 170.887,368.528 167,364.5C 166.628,356.343 165.294,348.343 163,340.5C 162.667,333.167 162.333,325.833 162,318.5C 158.166,323.497 154.833,328.83 152,334.5C 150.802,338.809 151.802,342.476 155,345.5C 156.583,351.15 155.083,355.65 150.5,359C 136.106,362.396 127.606,356.896 125,342.5C 118.017,338.823 115.684,333.156 118,325.5C 124.875,312.636 132.541,300.303 141,288.5C 143.433,282.468 146.266,276.634 149.5,271C 147.978,267.455 146.311,263.955 144.5,260.5C 141.553,259.679 138.553,259.179 135.5,259C 132.614,255.389 130.114,251.556 128,247.5C 117.484,257.844 104.984,264.677 90.5,268C 81.9136,270.907 78.7469,268.073 81,259.5C 89.7494,253.875 98.5827,248.375 107.5,243C 109.074,241.174 109.907,239.007 110,236.5C 113.167,234 116.333,231.5 119.5,229C 116.518,228.502 113.518,228.335 110.5,228.5C 111.197,218.437 114.197,209.103 119.5,200.5C 114.782,195.018 113.282,188.685 115,181.5C 119.3,176.199 123.966,171.199 129,166.5C 130.664,157.506 132.831,148.672 135.5,140C 129.264,133.588 127.764,126.088 131,117.5C 131.273,115.671 132.107,114.171 133.5,113C 137.905,110.628 142.572,109.128 147.5,108.5C 146.959,105.348 147.959,102.848 150.5,101C 153.833,100.333 157.167,100.333 160.5,101C 161.772,102.307 162.772,103.807 163.5,105.5C 163.878,101.15 166.211,99.4832 170.5,100.5C 171.017,96.3575 171.017,92.3575 170.5,88.5C 170.481,85.7943 171.148,83.2943 172.5,81C 175.957,79.2565 179.623,78.2565 183.5,78C 185.596,76.2342 187.929,74.9009 190.5,74C 195.155,73.5008 199.821,73.3342 204.5,73.5C 203.923,69.9202 204.923,66.9202 207.5,64.5C 206.855,63.354 206.022,62.354 205,61.5C 203.382,47.1864 202.382,32.8531 202,18.5C 203.73,16.5981 205.563,14.9314 207.5,13.5 Z"/></g>
<g><path style="opacity:1" fill="#e11921" d="M 214.5,69.5 C 212.883,66.49 212.05,63.1567 212,59.5C 211.333,58.8333 210.667,58.1667 210,57.5C 209.322,52.1427 209.489,46.8093 210.5,41.5C 208.866,35.705 208.032,29.705 208,23.5C 207.5,23 207,22.5 206.5,22C 210.993,18.2392 215.993,17.5726 221.5,20C 222.167,20.6667 222.833,21.3333 223.5,22C 222.439,23.8491 221.773,25.8491 221.5,28C 221.18,34.3068 221.18,40.6401 221.5,47C 220.149,52.4586 218.982,57.9586 218,63.5C 217.261,65.8888 216.095,67.8888 214.5,69.5 Z"/></g>
<g><path style="opacity:1" fill="#c1c1c1" d="M 381.5,65.5 C 385.29,65.0077 385.956,65.841 383.5,68C 365.225,79.9427 347.225,92.276 329.5,105C 328.386,106.57 327.053,107.903 325.5,109C 327.18,109.347 328.18,110.347 328.5,112C 326.647,114.185 324.48,116.018 322,117.5C 320.167,115.667 318.333,113.833 316.5,112C 317.667,110.167 319.167,108.667 321,107.5C 322.31,105.868 322.81,104.201 322.5,102.5C 342.399,90.392 362.066,78.0587 381.5,65.5 Z"/></g>
<g><path style="opacity:1" fill="#e71a22" d="M 214.5,69.5 C 220.705,72.9933 221.039,76.9933 215.5,81.5C 209.767,79.0036 208.434,75.1702 211.5,70C 212.448,69.5172 213.448,69.3505 214.5,69.5 Z"/></g>
<g><path style="opacity:1" fill="#ec1c23" d="M 194.5,78.5 C 199.196,78.6706 203.863,79.1706 208.5,80C 206.844,81.8294 204.844,83.1628 202.5,84C 197.411,84.8257 192.411,84.4924 187.5,83C 189.76,81.2117 192.093,79.7117 194.5,78.5 Z"/></g>
<g><path style="opacity:1" fill="#ec1c23" d="M 223.5,84.5 C 221.784,84.3713 220.117,84.038 218.5,83.5C 220.537,79.7706 222.87,79.604 225.5,83C 224.584,83.2784 223.918,83.7784 223.5,84.5 Z"/></g>
<g><path style="opacity:1" fill="#222222" d="M 218.5,83.5 C 220.117,84.038 221.784,84.3713 223.5,84.5C 224.5,84.5 225.5,84.5 226.5,84.5C 227.173,91.967 225.506,98.8003 221.5,105C 214.082,106.422 206.749,105.755 199.5,103C 195.167,100 190.833,97 186.5,94C 184.457,92.292 182.79,90.292 181.5,88C 179.613,87.8374 178.113,88.6707 177,90.5C 175.969,87.144 177.136,85.144 180.5,84.5C 188.09,86.2326 195.757,86.7326 203.5,86C 206.249,84.8773 208.749,83.3773 211,81.5C 213.228,83.1134 215.728,83.78 218.5,83.5 Z"/></g>
<g><path style="opacity:1" fill="#a71015" d="M 212.5,112.5 C 198.07,110.955 187.07,103.788 179.5,91C 185.777,95.3495 192.11,100.016 198.5,105C 205.661,107.404 212.994,108.404 220.5,108C 224.521,106.132 226.687,102.965 227,98.5C 227.9,103.537 226.067,107.037 221.5,109C 222.833,110 222.833,111 221.5,112C 218.518,112.498 215.518,112.665 212.5,112.5 Z"/></g>
<g><path style="opacity:1" fill="#b00e15" d="M 177.5,92.5 C 178.289,92.7828 178.956,93.2828 179.5,94C 178.972,97.0179 177.972,99.8512 176.5,102.5C 175.518,99.074 175.851,95.7406 177.5,92.5 Z"/></g>
<g><path style="opacity:1" fill="#262322" d="M 214.5,124.5 C 213.26,125.659 211.926,126.659 210.5,127.5C 209.801,125.444 208.801,123.444 207.5,121.5C 205.885,122.154 204.218,122.654 202.5,123C 203.517,124.049 203.684,125.216 203,126.5C 201.509,124.996 199.676,124.163 197.5,124C 198.381,123.292 199.047,122.458 199.5,121.5C 192.686,121.061 185.686,121.061 178.5,121.5C 178.85,113.443 179.684,105.443 181,97.5C 191.868,110.081 204.868,117.081 220,118.5C 217.96,120.37 216.127,122.37 214.5,124.5 Z"/></g>
<g><path style="opacity:1" fill="#d6bb36" d="M 158.5,113.5 C 158.66,115.153 159.326,116.486 160.5,117.5C 160.829,123.206 160.495,128.872 159.5,134.5C 158.833,129.015 158.167,123.681 157.5,118.5C 156.92,116.251 155.587,114.585 153.5,113.5C 154.968,111.389 154.635,109.556 152.5,108C 153.629,105.832 155.129,105.332 157,106.5C 157.186,109.036 157.686,111.369 158.5,113.5 Z"/></g>
<g><path style="opacity:1" fill="#d6bb36" d="M 171.5,110.5 C 170.833,110.5 170.5,110.833 170.5,111.5C 170.167,111.5 169.833,111.5 169.5,111.5C 169.201,109.396 169.534,107.396 170.5,105.5C 171.452,107.045 171.785,108.712 171.5,110.5 Z"/></g>
<g><path style="opacity:1" fill="#000000" d="M 206.5,110.5 C 211.044,109.344 215.711,109.511 220.5,111C 215.853,111.005 211.186,110.838 206.5,110.5 Z"/></g>
<g><path style="opacity:1" fill="#7b7b7b" d="M 169.5,111.5 C 169.5,116.833 169.5,122.167 169.5,127.5C 169.5,128.167 169.167,128.5 168.5,128.5C 167.463,129.93 166.796,131.597 166.5,133.5C 164.833,133.5 163.167,133.5 161.5,133.5C 161.821,127.974 161.488,122.64 160.5,117.5C 159.326,116.486 158.66,115.153 158.5,113.5C 158.5,112.5 158.5,111.5 158.5,110.5C 162.119,111.244 165.785,111.577 169.5,111.5 Z"/></g>
<g><path style="opacity:1" fill="#a71015" d="M 170.5,111.5 C 170.5,110.833 170.833,110.5 171.5,110.5C 175.388,101.208 177.388,101.541 177.5,111.5C 173.551,111.693 173.551,112.193 177.5,113C 176.62,114.356 176.286,115.856 176.5,117.5C 174.5,117.5 172.5,117.5 170.5,117.5C 170.5,115.5 170.5,113.5 170.5,111.5 Z"/></g>
<g><path style="opacity:1" fill="#b00e15" d="M 212.5,112.5 C 214.969,113.317 217.635,113.817 220.5,114C 219.271,114.781 217.938,115.281 216.5,115.5C 213.245,114.359 209.911,113.526 206.5,113C 208.473,112.505 210.473,112.338 212.5,112.5 Z"/></g>
<g><path style="opacity:1" fill="#787878" d="M 153.5,113.5 C 155.587,114.585 156.92,116.251 157.5,118.5C 157.829,124.206 157.495,129.872 156.5,135.5C 151.711,137.632 146.711,138.465 141.5,138C 142.737,137.768 143.737,137.268 144.5,136.5C 148.807,135.336 150.474,132.502 149.5,128C 149.167,126.167 148.833,124.333 148.5,122.5C 146.146,120.812 144.146,118.812 142.5,116.5C 145.686,114.126 149.353,113.126 153.5,113.5 Z"/></g>
<g><path style="opacity:1" fill="#bfbfbf" d="M 304.5,127.5 C 304.44,126.957 304.107,126.624 303.5,126.5C 302.186,127.313 301.019,128.313 300,129.5C 299.833,129 299.667,128.5 299.5,128C 301.708,125.622 304.042,123.456 306.5,121.5C 307.234,120.122 307.901,118.622 308.5,117C 311.371,116.869 313.705,115.703 315.5,113.5C 317.5,114.833 319.167,116.5 320.5,118.5C 317.4,122.051 313.734,123.885 309.5,124C 309.833,124.333 310.167,124.667 310.5,125C 308.714,125.785 307.214,126.951 306,128.5C 305.617,127.944 305.117,127.611 304.5,127.5 Z"/></g>
<g><path style="opacity:1" fill="#fec90d" d="M 222.5,115.5 C 224.267,117.792 225.267,120.458 225.5,123.5C 218.697,125.56 217.53,124.226 222,119.5C 222.49,118.207 222.657,116.873 222.5,115.5 Z"/></g>
<g><path style="opacity:1" fill="#5a5a5a" d="M 142.5,116.5 C 144.146,118.812 146.146,120.812 148.5,122.5C 148.833,124.333 149.167,126.167 149.5,128C 150.474,132.502 148.807,135.336 144.5,136.5C 138.834,135.222 136.001,131.555 136,125.5C 135.667,126.5 135.333,127.5 135,128.5C 134.799,125.485 135.132,122.485 136,119.5C 137.734,117.549 139.901,116.549 142.5,116.5 Z"/></g>
<g><path style="opacity:1" fill="#b00e15" d="M 168.5,128.5 C 169.167,128.5 169.5,128.167 169.5,127.5C 171.743,129.638 174.076,129.804 176.5,128C 174.567,127.749 172.734,127.249 171,126.5C 170.503,123.854 170.336,121.187 170.5,118.5C 172.5,118.5 174.5,118.5 176.5,118.5C 176.936,122.911 176.936,127.244 176.5,131.5C 172.656,133.918 169.99,132.918 168.5,128.5 Z"/></g>
<g><path style="opacity:1" fill="#603c29" d="M 306.5,121.5 C 304.042,123.456 301.708,125.622 299.5,128C 299.667,128.5 299.833,129 300,129.5C 301.019,128.313 302.186,127.313 303.5,126.5C 304.107,126.624 304.44,126.957 304.5,127.5C 304.586,128.496 304.252,129.329 303.5,130C 290.772,137.741 278.938,146.575 268,156.5C 267.329,155.748 266.496,155.414 265.5,155.5C 265.062,155.565 264.728,155.399 264.5,155C 274.146,147.886 273.813,147.053 263.5,152.5C 262.893,152.376 262.56,152.043 262.5,151.5C 276.943,141.433 291.276,131.1 305.5,120.5C 306.107,120.624 306.44,120.957 306.5,121.5 Z"/></g>
<g><path style="opacity:1" fill="#e28c30" d="M 199.5,121.5 C 199.047,122.458 198.381,123.292 197.5,124C 199.676,124.163 201.509,124.996 203,126.5C 203.684,125.216 203.517,124.049 202.5,123C 204.218,122.654 205.885,122.154 207.5,121.5C 208.801,123.444 209.801,125.444 210.5,127.5C 208.359,128.163 206.025,128.497 203.5,128.5C 199.859,128.685 196.526,128.019 193.5,126.5C 194.288,123.379 196.288,121.712 199.5,121.5 Z"/></g>
<g><path style="opacity:1" fill="#c9a57e" d="M 185.5,126.5 C 184.62,128.389 184.62,130.389 185.5,132.5C 185.5,133.167 185.167,133.5 184.5,133.5C 184.167,132.833 183.833,132.167 183.5,131.5C 183.068,130.29 182.401,129.29 181.5,128.5C 181.672,127.508 181.338,126.842 180.5,126.5C 180.176,123.32 181.51,122.153 184.5,123C 183.713,124.313 184.046,125.48 185.5,126.5 Z"/></g>
<g><path style="opacity:1" fill="#fec90d" d="M 191.5,130.5 C 190.081,131.451 188.415,131.784 186.5,131.5C 186.784,129.585 186.451,127.919 185.5,126.5C 185.5,125.167 185.5,123.833 185.5,122.5C 187.592,122.561 189.092,123.561 190,125.5C 190.198,127.382 190.698,129.048 191.5,130.5 Z"/></g>
<g><path style="opacity:1" fill="#6f6f6f" d="M 180.5,126.5 C 181.338,126.842 181.672,127.508 181.5,128.5C 180.878,129.627 180.045,130.627 179,131.5C 178.333,128.833 178.333,126.167 179,123.5C 179.232,124.737 179.732,125.737 180.5,126.5 Z"/></g>
<g><path style="opacity:1" fill="#000000" d="M 185.5,126.5 C 186.451,127.919 186.784,129.585 186.5,131.5C 188.415,131.784 190.081,131.451 191.5,130.5C 192.338,130.842 192.672,131.508 192.5,132.5C 190.833,132.5 189.167,132.5 187.5,132.5C 187.5,133.5 187.5,134.5 187.5,135.5C 186.833,134.5 186.167,133.5 185.5,132.5C 184.62,130.389 184.62,128.389 185.5,126.5 Z"/></g>
<g><path style="opacity:1" fill="#d7b086" d="M 193.5,126.5 C 196.526,128.019 199.859,128.685 203.5,128.5C 206.025,128.497 208.359,128.163 210.5,127.5C 211.537,128.93 212.204,130.597 212.5,132.5C 212.5,133.167 212.5,133.833 212.5,134.5C 210.532,135.819 208.532,135.819 206.5,134.5C 204.326,135.863 202.159,136.197 200,135.5C 198.455,137.229 198.955,138.562 201.5,139.5C 204.17,142.919 207.17,143.252 210.5,140.5C 209.545,142.746 208.878,145.079 208.5,147.5C 207.833,147.5 207.5,147.833 207.5,148.5C 207.158,149.338 206.492,149.672 205.5,149.5C 204.5,149.5 203.5,149.5 202.5,149.5C 201.205,148.512 199.872,147.512 198.5,146.5C 197.833,146.5 197.5,146.167 197.5,145.5C 197.068,144.29 196.401,143.29 195.5,142.5C 195.737,141.209 195.404,140.209 194.5,139.5C 194.737,138.209 194.404,137.209 193.5,136.5C 193.768,134.901 193.434,133.568 192.5,132.5C 192.672,131.508 192.338,130.842 191.5,130.5C 191.229,128.62 191.896,127.287 193.5,126.5 Z"/></g>
<g><path style="opacity:1" fill="#ecaf71" d="M 214.5,124.5 C 214.663,126.857 214.497,129.19 214,131.5C 213.617,132.056 213.117,132.389 212.5,132.5C 212.204,130.597 211.537,128.93 210.5,127.5C 211.926,126.659 213.26,125.659 214.5,124.5 Z"/></g>
<g><path style="opacity:1" fill="#fbc50f" d="M 183.5,131.5 C 183.833,132.167 184.167,132.833 184.5,133.5C 184.112,137.554 185.779,140.887 189.5,143.5C 189.842,144.338 190.508,144.672 191.5,144.5C 191.369,145.239 191.536,145.906 192,146.5C 193.699,145.594 195.533,145.261 197.5,145.5C 197.5,146.167 197.833,146.5 198.5,146.5C 197.048,147.302 195.382,147.802 193.5,148C 194.059,150.941 194.893,153.775 196,156.5C 198.4,154.271 200.567,151.937 202.5,149.5C 201.24,154.76 197.906,157.427 192.5,157.5C 192.665,154.482 192.498,151.482 192,148.5C 188.221,145.231 185.054,141.564 182.5,137.5C 182.205,135.265 182.539,133.265 183.5,131.5 Z"/></g>
<g><path style="opacity:1" fill="#b00e15" d="M 177.5,137.5 C 174.167,137.5 170.833,137.5 167.5,137.5C 167.5,136.833 167.167,136.5 166.5,136.5C 166.5,135.5 166.5,134.5 166.5,133.5C 168.692,132.631 170.859,132.965 173,134.5C 174.473,134.097 175.806,133.43 177,132.5C 177.494,134.134 177.66,135.801 177.5,137.5 Z"/></g>
<g><path style="opacity:1" fill="#232525" d="M 182.5,137.5 C 185.054,141.564 188.221,145.231 192,148.5C 192.498,151.482 192.665,154.482 192.5,157.5C 194.167,158.167 195.833,158.833 197.5,159.5C 197.557,160.609 197.89,161.609 198.5,162.5C 198.539,163.756 198.039,164.756 197,165.5C 191.333,157.167 184.333,150.167 176,144.5C 175.187,142.564 174.687,140.564 174.5,138.5C 175.791,138.737 176.791,138.404 177.5,137.5C 178.451,136.081 178.784,134.415 178.5,132.5C 179.5,132.5 180.5,132.5 181.5,132.5C 181.216,134.415 181.549,136.081 182.5,137.5 Z"/></g>
<g><path style="opacity:1" fill="#995e20" d="M 185.5,132.5 C 186.167,133.5 186.833,134.5 187.5,135.5C 187.328,136.492 187.662,137.158 188.5,137.5C 188.66,139.153 189.326,140.486 190.5,141.5C 190.672,142.492 190.338,143.158 189.5,143.5C 185.779,140.887 184.112,137.554 184.5,133.5C 185.167,133.5 185.5,133.167 185.5,132.5 Z"/></g>
<g><path style="opacity:1" fill="#fec90d" d="M 192.5,132.5 C 192.5,133.5 192.5,134.5 192.5,135.5C 190.833,135.5 189.167,135.5 187.5,135.5C 187.5,134.5 187.5,133.5 187.5,132.5C 189.167,132.5 190.833,132.5 192.5,132.5 Z"/></g>
<g><path style="opacity:1" fill="#000000" d="M 192.5,132.5 C 193.434,133.568 193.768,134.901 193.5,136.5C 191.585,136.216 189.919,136.549 188.5,137.5C 187.662,137.158 187.328,136.492 187.5,135.5C 189.167,135.5 190.833,135.5 192.5,135.5C 192.5,134.5 192.5,133.5 192.5,132.5 Z"/></g>
<g><path style="opacity:1" fill="#562f1b" d="M 212.5,134.5 C 214.103,134.312 215.437,134.812 216.5,136C 214.34,137.332 212.34,138.832 210.5,140.5C 207.713,139.523 204.713,139.19 201.5,139.5C 198.955,138.562 198.455,137.229 200,135.5C 202.159,136.197 204.326,135.863 206.5,134.5C 208.532,135.819 210.532,135.819 212.5,134.5 Z"/></g>
<g><path style="opacity:1" fill="#804f36" d="M 166.5,136.5 C 167.167,136.5 167.5,136.833 167.5,137.5C 167.5,137.833 167.5,138.167 167.5,138.5C 167.5,139.167 167.167,139.5 166.5,139.5C 164.297,139.604 162.297,140.27 160.5,141.5C 158.901,141.768 157.568,141.434 156.5,140.5C 156.082,139.778 155.416,139.278 154.5,139C 158.257,136.344 162.257,135.51 166.5,136.5 Z"/></g>
<g><path style="opacity:1" fill="#fec90d" d="M 188.5,137.5 C 189.919,136.549 191.585,136.216 193.5,136.5C 192.393,138.847 190.726,139.18 188.5,137.5 Z"/></g>
<g><path style="opacity:1" fill="#000000" d="M 193.5,136.5 C 194.404,137.209 194.737,138.209 194.5,139.5C 192.517,139.157 191.183,139.824 190.5,141.5C 189.326,140.486 188.66,139.153 188.5,137.5C 190.726,139.18 192.393,138.847 193.5,136.5 Z"/></g>
<g><path style="opacity:1" fill="#d0b535" d="M 167.5,138.5 C 169.167,138.5 170.833,138.5 172.5,138.5C 174.296,148.762 174.796,159.096 174,169.5C 170.547,174.621 166.714,179.454 162.5,184C 159.378,185.645 156.212,187.145 153,188.5C 152.097,187.299 150.931,186.465 149.5,186C 156.795,182.39 163.295,177.557 169,171.5C 171.478,166.347 171.978,161.014 170.5,155.5C 170.253,154.287 169.586,153.62 168.5,153.5C 167.388,151.401 166.721,149.067 166.5,146.5C 167.067,144.302 167.067,141.969 166.5,139.5C 167.167,139.5 167.5,139.167 167.5,138.5 Z"/></g>
<g><path style="opacity:1" fill="#b87a56" d="M 148.5,139.5 C 149.239,139.369 149.906,139.536 150.5,140C 146.858,142.756 146.525,145.923 149.5,149.5C 144.815,154.351 140.315,159.351 136,164.5C 136.489,156.564 138.322,148.897 141.5,141.5C 143.969,140.832 146.302,140.165 148.5,139.5 Z"/></g>
<g><path style="opacity:1" fill="#fec90d" d="M 194.5,139.5 C 193.817,141.176 192.483,141.843 190.5,141.5C 191.183,139.824 192.517,139.157 194.5,139.5 Z"/></g>
<g><path style="opacity:1" fill="#000000" d="M 194.5,139.5 C 195.404,140.209 195.737,141.209 195.5,142.5C 193.517,142.157 192.183,142.824 191.5,144.5C 190.508,144.672 189.842,144.338 189.5,143.5C 190.338,143.158 190.672,142.492 190.5,141.5C 192.483,141.843 193.817,141.176 194.5,139.5 Z"/></g>
<g><path style="opacity:1" fill="#000000" d="M 201.5,139.5 C 204.713,139.19 207.713,139.523 210.5,140.5C 207.17,143.252 204.17,142.919 201.5,139.5 Z"/></g>
<g><path style="opacity:1" fill="#ec1c23" d="M 156.5,140.5 C 157.568,141.434 158.901,141.768 160.5,141.5C 162.46,143.156 164.46,144.823 166.5,146.5C 166.721,149.067 167.388,151.401 168.5,153.5C 171.081,162.538 168.748,169.872 161.5,175.5C 165.371,165.87 164.371,156.703 158.5,148C 155.937,146.921 153.271,146.421 150.5,146.5C 149.88,142.445 151.88,140.445 156.5,140.5 Z"/></g>
<g><path style="opacity:1" fill="#232b2b" d="M 166.5,139.5 C 167.067,141.969 167.067,144.302 166.5,146.5C 164.46,144.823 162.46,143.156 160.5,141.5C 162.297,140.27 164.297,139.604 166.5,139.5 Z"/></g>
<g><path style="opacity:1" fill="#fec90d" d="M 195.5,142.5 C 194.817,144.176 193.483,144.843 191.5,144.5C 192.183,142.824 193.517,142.157 195.5,142.5 Z"/></g>
<g><path style="opacity:1" fill="#000000" d="M 195.5,142.5 C 196.401,143.29 197.068,144.29 197.5,145.5C 195.533,145.261 193.699,145.594 192,146.5C 191.536,145.906 191.369,145.239 191.5,144.5C 193.483,144.843 194.817,144.176 195.5,142.5 Z"/></g>
<g><path style="opacity:1" fill="#881513" d="M 214.5,144.5 C 215.797,150.599 214.797,156.265 211.5,161.5C 211.665,158.482 211.498,155.482 211,152.5C 210.34,150.676 209.173,149.343 207.5,148.5C 207.5,147.833 207.833,147.5 208.5,147.5C 210.191,145.988 212.191,144.988 214.5,144.5 Z"/></g>
<g><path style="opacity:1" fill="#ec1c23" d="M 214.5,144.5 C 218.04,146.39 220.04,149.39 220.5,153.5C 219.831,156.852 219.164,160.185 218.5,163.5C 216.163,165.666 213.663,167.666 211,169.5C 210.536,168.906 210.369,168.239 210.5,167.5C 211.461,165.735 211.795,163.735 211.5,161.5C 214.797,156.265 215.797,150.599 214.5,144.5 Z"/></g>
<g><path style="opacity:1" fill="#b00e15" d="M 150.5,146.5 C 153.271,146.421 155.937,146.921 158.5,148C 164.371,156.703 165.371,165.87 161.5,175.5C 161.473,170.382 161.306,165.048 161,159.5C 158.654,154.011 155.154,149.678 150.5,146.5 Z"/></g>
<g><path style="opacity:1" fill="#d6bb36" d="M 175.5,147.5 C 183.479,152.145 189.812,158.479 194.5,166.5C 193.347,169.152 191.513,171.152 189,172.5C 185.24,167.317 181.24,162.317 177,157.5C 176.661,154.12 176.161,150.787 175.5,147.5 Z"/></g>
<g><path style="opacity:1" fill="#bfa633" d="M 207.5,148.5 C 209.173,149.343 210.34,150.676 211,152.5C 211.498,155.482 211.665,158.482 211.5,161.5C 211.795,163.735 211.461,165.735 210.5,167.5C 210.167,167.5 209.833,167.5 209.5,167.5C 209.167,166.833 208.833,166.167 208.5,165.5C 209.613,164.054 209.78,162.387 209,160.5C 208.698,156.755 207.531,153.422 205.5,150.5C 205.5,150.167 205.5,149.833 205.5,149.5C 206.492,149.672 207.158,149.338 207.5,148.5 Z"/></g>
<g><path style="opacity:1" fill="#bdbdbd" d="M 265.5,155.5 C 266.473,157.068 266.64,158.735 266,160.5C 265.617,159.944 265.117,159.611 264.5,159.5C 263.833,159.5 263.5,159.167 263.5,158.5C 263.573,156.973 262.906,155.973 261.5,155.5C 261.167,154.5 260.5,153.833 259.5,153.5C 259.973,152.094 260.973,151.427 262.5,151.5C 262.56,152.043 262.893,152.376 263.5,152.5C 273.813,147.053 274.146,147.886 264.5,155C 264.728,155.399 265.062,155.565 265.5,155.5 Z"/></g>
<g><path style="opacity:1" fill="#568476" d="M 158.5,171.5 C 157.064,167.928 155.564,164.261 154,160.5C 152.074,158.461 149.907,156.794 147.5,155.5C 148.812,153.521 150.479,151.855 152.5,150.5C 158.974,156.391 160.974,163.391 158.5,171.5 Z"/></g>
<g><path style="opacity:1" fill="#282218" d="M 198.5,146.5 C 199.872,147.512 201.205,148.512 202.5,149.5C 200.567,151.937 198.4,154.271 196,156.5C 194.893,153.775 194.059,150.941 193.5,148C 195.382,147.802 197.048,147.302 198.5,146.5 Z"/></g>
<g><path style="opacity:1" fill="#d1b636" d="M 205.5,150.5 C 207.531,153.422 208.698,156.755 209,160.5C 209.78,162.387 209.613,164.054 208.5,165.5C 201.968,177.196 192.635,186.029 180.5,192C 171.133,197.103 161.3,200.936 151,203.5C 148.81,201.612 146.977,199.445 145.5,197C 162.597,191.45 178.597,183.783 193.5,174C 197.755,168.908 201.422,163.408 204.5,157.5C 204.512,155.588 204.179,153.588 203.5,151.5C 203.957,150.702 204.624,150.369 205.5,150.5 Z"/></g>
<g><path style="opacity:1" fill="#68412c" d="M 259.5,153.5 C 260.5,153.833 261.167,154.5 261.5,155.5C 260.797,157.716 259.464,159.549 257.5,161C 245.479,170.531 232.813,179.031 219.5,186.5C 218.167,185.833 217.167,184.833 216.5,183.5C 219.362,182.753 221.362,181.086 222.5,178.5C 234.555,169.783 246.888,161.449 259.5,153.5 Z"/></g>
<g><path style="opacity:1" fill="#475c5a" d="M 147.5,155.5 C 149.907,156.794 152.074,158.461 154,160.5C 155.564,164.261 157.064,167.928 158.5,171.5C 159.785,177.537 157.451,181.204 151.5,182.5C 151.509,180.692 151.009,179.025 150,177.5C 146.603,174.217 142.77,171.551 138.5,169.5C 138.887,168.28 139.72,167.613 141,167.5C 145.022,170.348 149.189,173.015 153.5,175.5C 154.086,175.291 154.586,174.957 155,174.5C 154.983,166.966 151.483,161.633 144.5,158.5C 145.167,157.167 146.167,156.167 147.5,155.5 Z"/></g>
<g><path style="opacity:1" fill="#000000" d="M 261.5,155.5 C 262.906,155.973 263.573,156.973 263.5,158.5C 251.245,169.301 237.912,178.634 223.5,186.5C 222.702,186.957 222.369,187.624 222.5,188.5C 220.973,188.573 219.973,187.906 219.5,186.5C 232.813,179.031 245.479,170.531 257.5,161C 259.464,159.549 260.797,157.716 261.5,155.5 Z"/></g>
<g><path style="opacity:1" fill="#558376" d="M 144.5,158.5 C 151.483,161.633 154.983,166.966 155,174.5C 154.586,174.957 154.086,175.291 153.5,175.5C 149.189,173.015 145.022,170.348 141,167.5C 139.72,167.613 138.887,168.28 138.5,169.5C 142.77,171.551 146.603,174.217 150,177.5C 151.009,179.025 151.509,180.692 151.5,182.5C 146.743,184.045 142.409,186.379 138.5,189.5C 136.265,188.248 133.931,187.748 131.5,188C 139.407,191.739 145.073,197.572 148.5,205.5C 147.564,206.974 146.23,207.974 144.5,208.5C 139.14,203.972 133.64,199.639 128,195.5C 127.5,196 127,196.5 126.5,197C 131.766,201.759 136.433,206.925 140.5,212.5C 140.167,213.5 139.5,214.167 138.5,214.5C 133.926,208.387 129.092,202.387 124,196.5C 122.482,193.464 120.982,190.464 119.5,187.5C 120.091,185.734 120.924,184.067 122,182.5C 130.135,174.873 137.635,166.873 144.5,158.5 Z"/></g>
<g><path style="opacity:1" fill="#d6bb36" d="M 263.5,158.5 C 263.5,159.167 263.833,159.5 264.5,159.5C 264.489,161.017 263.823,162.184 262.5,163C 249.585,172.283 236.252,180.783 222.5,188.5C 222.369,187.624 222.702,186.957 223.5,186.5C 237.912,178.634 251.245,169.301 263.5,158.5 Z"/></g>
<g><path style="opacity:1" fill="#fec90d" d="M 197.5,159.5 C 199.552,160.053 199.885,161.053 198.5,162.5C 197.89,161.609 197.557,160.609 197.5,159.5 Z"/></g>
<g><path style="opacity:1" fill="#537d72" d="M 176.5,160.5 C 179.981,164.763 183.481,169.097 187,173.5C 187.667,174.167 187.667,174.833 187,175.5C 176.296,182.616 164.796,187.783 152.5,191C 156.245,189.63 159.912,187.963 163.5,186C 168.046,181.123 172.213,175.956 176,170.5C 176.498,167.183 176.665,163.85 176.5,160.5 Z"/></g>
<g><path style="opacity:1" fill="#415352" d="M 218.5,163.5 C 219.649,163.791 220.316,164.624 220.5,166C 221.426,169.139 221.592,172.306 221,175.5C 217.254,178.29 213.421,180.957 209.5,183.5C 208.692,181.577 208.192,179.577 208,177.5C 207.667,178.5 207.333,179.5 207,180.5C 205.954,178.91 204.787,177.41 203.5,176C 205.752,173.264 207.752,170.431 209.5,167.5C 209.833,167.5 210.167,167.5 210.5,167.5C 210.369,168.239 210.536,168.906 211,169.5C 213.663,167.666 216.163,165.666 218.5,163.5 Z"/></g>
<g><path style="opacity:1" fill="#d6bb36" d="M 201.5,178.5 C 207.725,181.639 207.892,184.973 202,188.5C 201.086,186.336 199.919,184.336 198.5,182.5C 199.524,181.148 200.524,179.815 201.5,178.5 Z"/></g>
<g><path style="opacity:1" fill="#c2c3c2" d="M 222.5,178.5 C 221.362,181.086 219.362,182.753 216.5,183.5C 217.268,180.438 219.268,178.772 222.5,178.5 Z"/></g>
<g><path style="opacity:1" fill="#cea981" d="M 216.5,183.5 C 217.167,184.833 218.167,185.833 219.5,186.5C 219.973,187.906 220.973,188.573 222.5,188.5C 223.167,189.833 224.167,190.833 225.5,191.5C 226.234,192.708 226.567,194.041 226.5,195.5C 223.713,198.621 220.38,200.955 216.5,202.5C 215.833,202.333 215.167,202.167 214.5,202C 211.969,198.642 209.302,195.476 206.5,192.5C 207.759,191.021 208.759,189.354 209.5,187.5C 211.589,185.746 213.922,184.413 216.5,183.5 Z"/></g>
<g><path style="opacity:1" fill="#653f2b" d="M 209.5,187.5 C 208.759,189.354 207.759,191.021 206.5,192.5C 199.915,199.989 191.915,205.823 182.5,210C 181.31,215.356 177.976,218.522 172.5,219.5C 171.167,218.833 170.167,217.833 169.5,216.5C 169.414,215.504 169.748,214.671 170.5,214C 172.058,213.79 173.391,213.29 174.5,212.5C 177.52,209.484 180.854,206.817 184.5,204.5C 186.566,200.597 189.566,197.43 193.5,195C 199.329,192.589 204.662,189.422 209.5,185.5C 210.463,185.97 210.463,186.637 209.5,187.5 Z"/></g>
<g><path style="opacity:1" fill="#475b5a" d="M 195.5,184.5 C 198.153,185.142 199.319,186.808 199,189.5C 193.345,192.138 188.011,196.138 183,201.5C 180.657,200.873 178.49,199.873 176.5,198.5C 174.907,200.66 173.24,200.827 171.5,199C 178.926,195.232 186.092,191.066 193,186.5C 193.333,187.5 193.667,188.5 194,189.5C 194.352,187.753 194.852,186.086 195.5,184.5 Z"/></g>
<g><path style="opacity:1" fill="#517b6f" d="M 226.5,195.5 C 226.567,194.041 226.234,192.708 225.5,191.5C 225.706,189.451 226.539,189.117 228,190.5C 229.73,195.224 229.73,199.89 228,204.5C 223.514,209.193 218.681,209.526 213.5,205.5C 213.667,205.167 213.833,204.833 214,204.5C 217.55,207.083 221.05,206.917 224.5,204C 226.691,201.409 227.358,198.575 226.5,195.5 Z"/></g>
<g><path style="opacity:1" fill="#445655" d="M 144.5,208.5 C 143.5,210.167 142.167,211.5 140.5,212.5C 136.433,206.925 131.766,201.759 126.5,197C 127,196.5 127.5,196 128,195.5C 133.64,199.639 139.14,203.972 144.5,208.5 Z"/></g>
<g><path style="opacity:1" fill="#d6bb36" d="M 197.5,204.5 C 200.476,201.698 203.642,199.031 207,196.5C 207.617,197.449 207.451,198.282 206.5,199C 203.778,201.358 200.778,203.191 197.5,204.5 Z"/></g>
<g><path style="opacity:1" fill="#475c5a" d="M 164.5,209.5 C 159.581,210.628 155.915,209.128 153.5,205C 159.009,203.664 164.343,201.83 169.5,199.5C 168.64,201.874 168.64,204.541 169.5,207.5C 167.709,208.17 166.042,208.837 164.5,209.5 Z"/></g>
<g><path style="opacity:1" fill="#bababa" d="M 184.5,204.5 C 180.854,206.817 177.52,209.484 174.5,212.5C 173.719,209.673 172.386,207.007 170.5,204.5C 171.32,202.889 172.654,202.222 174.5,202.5C 174.64,204.124 173.973,205.29 172.5,206C 174.833,206.667 177.167,206.667 179.5,206C 178.207,205.51 176.873,205.343 175.5,205.5C 175.238,204.022 175.571,202.689 176.5,201.5C 179.034,202.776 181.534,203.11 184,202.5C 184.464,203.094 184.631,203.761 184.5,204.5 Z"/></g>
<g><path style="opacity:1" fill="#cfb435" d="M 197.5,204.5 C 193.78,208.544 189.447,211.877 184.5,214.5C 183.614,213.675 183.281,212.675 183.5,211.5C 188.434,209.699 193.101,207.366 197.5,204.5 Z"/></g>
<g><path style="opacity:1" fill="#fec90d" d="M 148.5,205.5 C 150.993,205.131 151.66,205.797 150.5,207.5C 145.896,209.105 142.562,212.105 140.5,216.5C 139.167,216.5 138.5,215.833 138.5,214.5C 139.5,214.167 140.167,213.5 140.5,212.5C 142.167,211.5 143.5,210.167 144.5,208.5C 146.23,207.974 147.564,206.974 148.5,205.5 Z"/></g>
<g><path style="opacity:1" fill="#202020" d="M 125.5,204.5 C 129.036,205.639 131.369,208.139 132.5,212C 130.453,216.306 129.12,220.806 128.5,225.5C 125.495,225.747 122.995,224.747 121,222.5C 119.737,224.797 117.903,225.63 115.5,225C 117.463,220.237 119.296,215.403 121,210.5C 122.277,208.253 123.777,206.253 125.5,204.5 Z"/></g>
<g><path style="opacity:1" fill="#212121" d="M 150.5,207.5 C 153.268,209.087 155.935,210.92 158.5,213C 155.286,217.882 151.119,221.715 146,224.5C 144.383,222.237 142.55,220.237 140.5,218.5C 140.5,218.167 140.5,217.833 140.5,217.5C 140.5,217.167 140.5,216.833 140.5,216.5C 142.562,212.105 145.896,209.105 150.5,207.5 Z"/></g>
<g><path style="opacity:1" fill="#fec90d" d="M 164.5,209.5 C 166.857,209.337 169.19,209.503 171.5,210C 167.551,211.184 163.551,211.518 159.5,211C 161.382,210.802 163.048,210.302 164.5,209.5 Z"/></g>
<g><path style="opacity:1" fill="#3c4d4c" d="M 137.5,217.5 C 135.882,219.316 133.882,220.649 131.5,221.5C 130.957,221.44 130.624,221.107 130.5,220.5C 131.961,217.618 133.127,214.618 134,211.5C 135.442,213.391 136.609,215.391 137.5,217.5 Z"/></g>
<g><path style="opacity:1" fill="#e1b88c" d="M 169.5,216.5 C 170.167,217.833 171.167,218.833 172.5,219.5C 173.234,220.708 173.567,222.041 173.5,223.5C 170.281,225.418 167.948,228.084 166.5,231.5C 165.167,231.5 163.833,231.5 162.5,231.5C 161.07,230.463 159.403,229.796 157.5,229.5C 156.71,228.599 155.71,227.932 154.5,227.5C 153.426,226.115 152.093,224.949 150.5,224C 154.044,220.946 157.377,217.613 160.5,214C 163.716,213.903 166.716,214.736 169.5,216.5 Z"/></g>
<g><path style="opacity:1" fill="#558175" d="M 176.5,237.5 C 180.565,236.596 183.065,234.263 184,230.5C 182.144,232.406 179.977,233.24 177.5,233C 179.829,230.174 181.496,227.008 182.5,223.5C 184.641,221.463 185.974,218.963 186.5,216C 188.081,215.293 189.581,214.46 191,213.5C 190.866,217.797 189.533,221.797 187,225.5C 186.333,234.167 185.667,242.833 185,251.5C 184.381,254.032 183.381,256.365 182,258.5C 180.713,254.63 179.047,250.964 177,247.5C 176.502,244.183 176.335,240.85 176.5,237.5 Z"/></g>
<g><path style="opacity:1" fill="#c2c3c2" d="M 181.5,216.5 C 183.981,217.696 183.981,219.196 181.5,221C 179.55,222.496 177.55,222.663 175.5,221.5C 177.941,220.291 179.941,218.624 181.5,216.5 Z"/></g>
<g><path style="opacity:1" fill="#fed609" d="M 137.5,217.5 C 138.5,217.5 139.5,217.5 140.5,217.5C 140.5,217.833 140.5,218.167 140.5,218.5C 137.366,219.901 134.366,221.568 131.5,223.5C 130.537,223.03 130.537,222.363 131.5,221.5C 133.882,220.649 135.882,219.316 137.5,217.5 Z"/></g>
<g><path style="opacity:1" fill="#475c5a" d="M 143.5,228.5 C 143.657,229.873 143.49,231.207 143,232.5C 140.305,234.694 137.472,236.694 134.5,238.5C 132.719,233.972 132.219,229.305 133,224.5C 135.316,223.504 137.65,222.504 140,221.5C 141.832,223.548 142.999,225.881 143.5,228.5 Z"/></g>
<g><path style="opacity:1" fill="#3f504f" d="M 173.5,223.5 C 176.465,224.734 179.465,224.734 182.5,223.5C 181.496,227.008 179.829,230.174 177.5,233C 179.977,233.24 182.144,232.406 184,230.5C 183.065,234.263 180.565,236.596 176.5,237.5C 175.603,238.681 175.103,240.681 175,243.5C 173,240.167 171,236.833 169,233.5C 168.329,232.748 167.496,232.414 166.5,232.5C 166.5,232.167 166.5,231.833 166.5,231.5C 167.948,228.084 170.281,225.418 173.5,223.5 Z"/></g>
<g><path style="opacity:1" fill="#fec90d" d="M 143.5,228.5 C 143.259,225.001 144.092,224.668 146,227.5C 146.699,229.074 146.365,230.407 145,231.5C 144.768,230.263 144.268,229.263 143.5,228.5 Z"/></g>
<g><path style="opacity:1" fill="#68412c" d="M 154.5,227.5 C 155.71,227.932 156.71,228.599 157.5,229.5C 153.979,231.102 150.979,233.435 148.5,236.5C 143.526,239.039 138.526,241.373 133.5,243.5C 139.841,237.517 146.841,232.184 154.5,227.5 Z"/></g>
<g><path style="opacity:1" fill="#9d6241" d="M 157.5,229.5 C 159.403,229.796 161.07,230.463 162.5,231.5C 162.167,232.5 161.5,233.167 160.5,233.5C 157.68,233.248 155.014,233.748 152.5,235C 147.996,240.336 143.329,245.503 138.5,250.5C 135.732,249.049 134.065,246.716 133.5,243.5C 138.526,241.373 143.526,239.039 148.5,236.5C 150.979,233.435 153.979,231.102 157.5,229.5 Z"/></g>
<g><path style="opacity:1" fill="#212121" d="M 98.5,259.5 C 98.1667,258.833 97.8333,258.167 97.5,257.5C 102.755,253.195 108.422,249.361 114.5,246C 117.27,243.833 117.77,241.666 116,239.5C 121.306,236.19 125.973,232.19 130,227.5C 130.783,229.433 130.283,230.933 128.5,232C 131.264,233.561 131.931,235.727 130.5,238.5C 120.357,246.312 109.69,253.312 98.5,259.5 Z"/></g>
<g><path style="opacity:1" fill="#475c5a" d="M 166.5,232.5 C 168.066,236.728 170.066,240.728 172.5,244.5C 168.95,242.712 165.283,241.545 161.5,241C 164.333,243.833 167.167,246.667 170,249.5C 170.667,250.167 170.667,250.833 170,251.5C 164.603,249.218 159.436,246.552 154.5,243.5C 157.936,239.057 161.936,235.391 166.5,232.5 Z"/></g>
<g><path style="opacity:1" fill="#6c442d" d="M 160.5,233.5 C 153.948,240.215 147.615,247.048 141.5,254C 139.066,254.333 138.066,253.166 138.5,250.5C 143.329,245.503 147.996,240.336 152.5,235C 155.014,233.748 157.68,233.248 160.5,233.5 Z"/></g>
<g><path style="opacity:1" fill="#527e72" d="M 172.5,244.5 C 174.892,248.278 177.059,252.278 179,256.5C 182.298,268.06 185.798,279.56 189.5,291C 188.744,303.826 188.077,316.659 187.5,329.5C 187.443,334.476 188.11,339.309 189.5,344C 184.68,345.921 179.68,347.421 174.5,348.5C 173.501,335.183 173.167,321.85 173.5,308.5C 173.666,301.825 173.5,295.158 173,288.5C 166.171,274.176 159.338,259.842 152.5,245.5C 152.833,244.5 153.5,243.833 154.5,243.5C 159.436,246.552 164.603,249.218 170,251.5C 170.667,250.833 170.667,250.167 170,249.5C 167.167,246.667 164.333,243.833 161.5,241C 165.283,241.545 168.95,242.712 172.5,244.5 Z"/></g>
<g><path style="opacity:1" fill="#fec90d" d="M 152.5,245.5 C 159.338,259.842 166.171,274.176 173,288.5C 173.5,295.158 173.666,301.825 173.5,308.5C 172.669,321.66 172.169,334.994 172,348.5C 171.667,348.833 171.333,349.167 171,349.5C 170.828,343.319 170.328,337.319 169.5,331.5C 169.667,316.163 169.5,300.83 169,285.5C 163.234,272.959 156.734,260.959 149.5,249.5C 149.738,247.596 150.738,246.262 152.5,245.5 Z"/></g>
<g><path style="opacity:1" fill="#416158" d="M 149.5,249.5 C 156.734,260.959 163.234,272.959 169,285.5C 169.5,300.83 169.667,316.163 169.5,331.5C 169.665,334.518 169.498,337.518 169,340.5C 168.667,339.167 168.333,337.833 168,336.5C 168.076,320.75 167.076,305.083 165,289.5C 163.253,282.007 159.92,275.34 155,269.5C 153.217,263.933 150.883,258.599 148,253.5C 147.227,251.648 147.727,250.314 149.5,249.5 Z"/></g>
<g><path style="opacity:1" fill="#fec90d" d="M 97.5,257.5 C 97.8333,258.167 98.1667,258.833 98.5,259.5C 94.3802,261.372 90.0469,262.539 85.5,263C 89.3716,260.898 93.3716,259.064 97.5,257.5 Z"/></g>
<g><path style="opacity:1" fill="#527e72" d="M 154.5,273.5 C 155.837,274.315 156.837,275.482 157.5,277C 156.383,280.073 156.216,283.24 157,286.5C 157.204,276.293 158.87,276.293 162,286.5C 163.276,292.493 164.443,298.493 165.5,304.5C 157.288,312.573 150.788,321.907 146,332.5C 145.261,333.574 144.261,334.241 143,334.5C 136.895,331.869 131.395,328.369 126.5,324C 132.192,312.98 138.692,302.48 146,292.5C 148.845,286.145 151.679,279.812 154.5,273.5 Z"/></g>
<g><path style="opacity:1" fill="#222322" d="M 124.5,326.5 C 130.572,331.057 137.239,334.557 144.5,337C 145.669,339.007 146.335,341.173 146.5,343.5C 136.123,344.395 128.29,340.395 123,331.5C 122.878,329.718 123.378,328.052 124.5,326.5 Z"/></g>
<g><path style="opacity:1" fill="#222322" d="M 180.5,348.5 C 182.604,348.201 184.604,348.534 186.5,349.5C 187.748,351.459 189.415,352.959 191.5,354C 185.658,356.423 179.824,358.923 174,361.5C 171.67,358.541 171.004,355.207 172,351.5C 174.949,350.563 177.783,349.563 180.5,348.5 Z"/></g>
</svg>
