<?xml version="1.0" encoding="UTF-8"?>
<!DOCTYPE svg PUBLIC "-//W3C//DTD SVG 1.1//EN" "http://www.w3.org/Graphics/SVG/1.1/DTD/svg11.dtd">
<svg xmlns="http://www.w3.org/2000/svg" version="1.1" width="456px" height="431px" style="shape-rendering:geometricPrecision; text-rendering:geometricPrecision; image-rendering:optimizeQuality; fill-rule:evenodd; clip-rule:evenodd" xmlns:xlink="http://www.w3.org/1999/xlink">
<g><path style="opacity:1" fill="#fefffe" d="M 212.5,17.5 C 218.842,17.3338 225.175,17.5005 231.5,18C 234.937,19.1049 237.437,21.2716 239,24.5C 238.9,33.3637 239.067,42.1971 239.5,51C 239.108,60.7814 238.108,70.4481 236.5,80C 238.34,82.8263 239.006,85.9929 238.5,89.5C 239.833,89.5 241.167,89.5 242.5,89.5C 241.399,108.169 241.233,126.835 242,145.5C 240.211,147.229 238.044,147.896 235.5,147.5C 235.5,152.167 235.5,156.833 235.5,161.5C 241.378,160.509 244.878,162.843 246,168.5C 246.667,174.5 246.667,180.5 246,186.5C 243.92,191.97 242.587,197.637 242,203.5C 241.232,210.18 240.399,216.847 239.5,223.5C 239.833,224.167 240.167,224.833 240.5,225.5C 263.225,221.789 285.892,217.622 308.5,213C 310.75,212.389 312.417,211.056 313.5,209C 340.423,204.591 367.423,200.257 394.5,196C 403.827,195.5 413.161,195.334 422.5,195.5C 422.666,199.846 422.499,204.179 422,208.5C 418.622,211.677 414.956,214.343 411,216.5C 391.957,222.386 372.79,227.886 353.5,233C 352.167,233.667 351.167,234.667 350.5,236C 327.554,238.733 304.554,242.399 281.5,247C 278.951,247.751 277.284,249.418 276.5,252C 262.173,254.143 247.84,256.476 233.5,259C 227.824,261.351 222.157,263.684 216.5,266C 221.665,285.158 224.165,304.658 224,324.5C 219.478,340.588 214.644,356.588 209.5,372.5C 212.811,377.645 216.978,381.978 222,385.5C 222.667,391.167 222.667,396.833 222,402.5C 220.745,403.211 219.579,404.044 218.5,405C 208.833,405.667 199.167,405.667 189.5,405C 187.051,404.275 184.717,403.275 182.5,402C 177.76,396.9 172.594,392.4 167,388.5C 166.333,382.167 166.333,375.833 167,369.5C 170.315,355.292 173.315,340.958 176,326.5C 178.094,322.992 179.594,319.325 180.5,315.5C 179.858,311.21 178.358,307.21 176,303.5C 172.651,313.867 168.317,323.867 163,333.5C 157.434,339.038 150.934,343.205 143.5,346C 133.574,354.405 129.74,365.238 132,378.5C 131.097,379.701 129.931,380.535 128.5,381C 121.833,381.667 115.167,381.667 108.5,381C 104.961,379.093 102.461,376.26 101,372.5C 100.207,356.167 99.8734,339.834 100,323.5C 101.935,318.563 105.435,315.397 110.5,314C 114.981,306.679 121.315,301.846 129.5,299.5C 130.2,295.959 130.867,292.459 131.5,289C 126.25,288.807 121.083,288.307 116,287.5C 107.636,289.432 99.1361,289.932 90.5,289C 89.5838,288.626 88.7504,288.126 88,287.5C 87.3333,282.167 87.3333,276.833 88,271.5C 95.0941,268.371 102.261,265.371 109.5,262.5C 110.2,258.959 110.867,255.459 111.5,252C 115.776,250.514 120.109,249.181 124.5,248C 122.236,247.764 120.069,247.264 118,246.5C 116.426,237.814 117.592,229.648 121.5,222C 119.498,214.294 118.998,206.461 120,198.5C 125.244,190.586 131.244,183.252 138,176.5C 140.589,169.005 142.256,161.338 143,153.5C 143.915,152.672 144.581,151.672 145,150.5C 145.333,142.5 145.667,134.5 146,126.5C 146.668,122.501 148.835,119.668 152.5,118C 157.489,117.501 162.489,117.334 167.5,117.5C 167.22,114.728 167.887,112.228 169.5,110C 173.421,109.797 177.255,109.297 181,108.5C 181.193,103.25 181.693,98.083 182.5,93C 190.822,91.3593 199.155,89.8593 207.5,88.5C 208.488,85.5755 209.154,82.5755 209.5,79.5C 206.762,66.7027 203.929,54.036 201,41.5C 200.333,35.8333 200.333,30.1667 201,24.5C 202.934,21.312 205.768,19.812 209.5,20C 210.571,19.1482 211.571,18.3149 212.5,17.5 Z"/></g>
<g><path style="opacity:1" fill="#000000" d="M 216.5,21.5 C 221.777,20.9312 226.777,21.7645 231.5,24C 233.049,25.214 234.215,26.714 235,28.5C 234.297,35.9963 234.464,43.4963 235.5,51C 235.054,60.6344 233.721,70.1344 231.5,79.5C 231.221,82.0063 232.054,84.0063 234,85.5C 234.497,88.146 234.664,90.8127 234.5,93.5C 235.833,93.5 237.167,93.5 238.5,93.5C 238.703,99.7637 238.037,105.93 236.5,112C 238.353,118.16 237.686,123.993 234.5,129.5C 235.76,130.382 236.926,131.382 238,132.5C 240.611,139.926 238.111,143.926 230.5,144.5C 230.858,149.9 231.025,155.234 231,160.5C 229.644,161.38 228.144,161.714 226.5,161.5C 226.33,162.822 226.663,163.989 227.5,165C 240.605,163.781 245.438,169.614 242,182.5C 241.138,184.087 240.471,185.754 240,187.5C 237.301,201.83 235.801,216.163 235.5,230.5C 261.288,226.792 286.954,222.292 312.5,217C 314.75,216.389 316.417,215.056 317.5,213C 320.713,212.297 323.879,212.464 327,213.5C 331.232,211.201 335.732,209.701 340.5,209C 359.866,206.217 379.199,203.217 398.5,200C 405.158,199.5 411.825,199.334 418.5,199.5C 418.66,201.199 418.494,202.866 418,204.5C 414.622,207.677 410.956,210.343 407,212.5C 387.957,218.386 368.79,223.886 349.5,229C 348.167,229.667 347.167,230.667 346.5,232C 342.577,232.793 338.744,232.626 335,231.5C 334.535,232.931 333.701,234.097 332.5,235C 312.755,235.917 293.422,239.084 274.5,244.5C 273.96,245.748 273.293,246.915 272.5,248C 255.709,250.162 239.042,253.162 222.5,257C 219.342,260.58 215.342,262.413 210.5,262.5C 215.943,281.488 219.109,300.821 220,320.5C 214.755,338.647 209.588,356.814 204.5,375C 207.942,380.777 212.442,385.61 218,389.5C 218.667,392.5 218.667,395.5 218,398.5C 216.745,399.211 215.579,400.044 214.5,401C 206.421,401.901 198.421,401.568 190.5,400C 186.407,398.075 183.074,395.242 180.5,391.5C 176.582,390.067 173.415,387.734 171,384.5C 170.405,377.036 171.072,369.702 173,362.5C 175.96,351.99 178.294,341.324 180,330.5C 181.08,328.004 182.414,325.67 184,323.5C 184.333,320.167 184.667,316.833 185,313.5C 185.5,313 186,312.5 186.5,312C 182.461,304.087 178.294,296.254 174,288.5C 171.375,303.043 166.375,316.71 159,329.5C 153.434,335.038 146.934,339.205 139.5,342C 134.746,346.876 130.746,352.209 127.5,358C 133.275,373.323 128.275,379.657 112.5,377C 108.961,375.093 106.461,372.26 105,368.5C 104.316,361.149 104.482,353.815 105.5,346.5C 103.224,339.196 103.057,331.863 105,324.5C 107.394,321.09 110.561,318.923 114.5,318C 118.981,310.679 125.315,305.846 133.5,303.5C 134.908,295.507 135.741,287.507 136,279.5C 130.438,284.714 124.271,285.714 117.5,282.5C 109.985,284.864 102.318,285.698 94.5,285C 93.5838,284.626 92.7504,284.126 92,283.5C 91.3333,280.833 91.3333,278.167 92,275.5C 99.6485,271.927 107.482,268.761 115.5,266C 114.167,262.667 114.167,259.333 115.5,256C 122.032,254.287 128.365,252.121 134.5,249.5C 134.007,246.522 132.507,244.189 130,242.5C 127.333,243.833 124.667,243.833 122,242.5C 121.333,239.167 121.333,235.833 122,232.5C 123.833,229.5 125.667,226.5 127.5,223.5C 121.724,213.344 122.224,203.678 129,194.5C 132.966,189.533 137.299,184.866 142,180.5C 144.589,173.005 146.256,165.338 147,157.5C 149.029,154.971 150.862,152.304 152.5,149.5C 150.03,146.115 149.03,142.282 149.5,138C 148.565,131.111 150.898,125.778 156.5,122C 161.489,121.501 166.489,121.334 171.5,121.5C 171.22,118.728 171.887,116.228 173.5,114C 177.091,113.211 180.591,113.378 184,114.5C 185.257,112.487 186.091,110.321 186.5,108C 185.319,104.275 185.319,100.608 186.5,97C 194.822,95.3593 203.155,93.8593 211.5,92.5C 213.373,85.9476 213.873,79.2809 213,72.5C 210.1,59.2319 207.266,46.0652 204.5,33C 204.796,27.3706 207.796,24.3706 213.5,24C 214.571,23.1482 215.571,22.3149 216.5,21.5 Z"/></g>
<g><path style="opacity:1" fill="#fefd93" d="M 229.5,44.5 C 228.048,43.2869 226.714,43.6203 225.5,45.5C 224.605,43.6932 223.272,42.3599 221.5,41.5C 218.741,43.784 215.741,45.784 212.5,47.5C 212.302,41.9886 211.135,36.6553 209,31.5C 209.833,30.6667 210.667,29.8333 211.5,29C 215.174,28.3182 218.674,27.1515 222,25.5C 225.072,26.0362 227.739,27.3696 230,29.5C 230.816,34.6842 230.65,39.6842 229.5,44.5 Z"/></g>
<g><path style="opacity:1" fill="#3f7167" d="M 229.5,44.5 C 228.013,47.212 228.679,49.3787 231.5,51C 230.427,52.3129 229.76,53.8129 229.5,55.5C 230.362,60.8192 230.362,65.9859 229.5,71C 226.374,73.0465 225.707,75.7132 227.5,79C 227.204,80.8882 226.704,82.7216 226,84.5C 223.667,81.8333 221.333,81.8333 219,84.5C 217.498,82.2051 217.332,79.8718 218.5,77.5C 216.179,67.5518 214.179,57.5518 212.5,47.5C 215.741,45.784 218.741,43.784 221.5,41.5C 223.272,42.3599 224.605,43.6932 225.5,45.5C 226.714,43.6203 228.048,43.2869 229.5,44.5 Z"/></g>
<g><path style="opacity:1" fill="#3f7167" d="M 221.5,83.5 C 224.689,84.5128 227.523,86.1795 230,88.5C 230.14,90.2555 229.64,91.9222 228.5,93.5C 224.955,94.7914 221.455,94.7914 218,93.5C 217.5,92.5 217,91.5 216.5,90.5C 217.453,87.57 219.12,85.2367 221.5,83.5 Z"/></g>
<g><path style="opacity:1" fill="#1f2442" d="M 197.5,104.5 C 196.026,103.564 195.026,102.23 194.5,100.5C 204.207,97.8067 214.207,96.64 224.5,97C 220.911,98.6742 219.245,101.507 219.5,105.5C 212.146,105.521 204.813,105.187 197.5,104.5 Z"/></g>
<g><path style="opacity:1" fill="#c7453c" d="M 225.5,97.5 C 229.495,96.8837 231.495,98.5503 231.5,102.5C 229.147,111.331 225.481,111.831 220.5,104C 221.283,101.062 222.95,98.8955 225.5,97.5 Z"/></g>
<g><path style="opacity:1" fill="#faf865" d="M 189.5,100.5 C 190.5,100.5 191.5,100.5 192.5,100.5C 192.029,106.996 191.029,106.996 189.5,100.5 Z"/></g>
<g><path style="opacity:1" fill="#faf865" d="M 194.5,100.5 C 195.026,102.23 196.026,103.564 197.5,104.5C 198.429,106.322 197.762,107.655 195.5,108.5C 195.167,107.5 194.5,106.833 193.5,106.5C 193.205,104.265 193.539,102.265 194.5,100.5 Z"/></g>
<g><path style="opacity:1" fill="#faf865" d="M 193.5,106.5 C 193.5,108.167 193.5,109.833 193.5,111.5C 192.5,111.5 191.5,111.5 190.5,111.5C 188.67,108.162 189.67,106.496 193.5,106.5 Z"/></g>
<g><path style="opacity:1" fill="#121020" d="M 227.5,112.5 C 225.708,112.366 224.042,112.699 222.5,113.5C 221.883,113.611 221.383,113.944 221,114.5C 219.599,112.808 217.766,112.141 215.5,112.5C 215.781,114.963 216.781,117.13 218.5,119C 217.181,119.195 215.847,119.028 214.5,118.5C 213.833,118.5 213.167,118.5 212.5,118.5C 211.971,120.583 210.971,122.417 209.5,124C 210.416,124.278 211.082,124.778 211.5,125.5C 211.842,126.338 212.508,126.672 213.5,126.5C 214.78,127.931 216.447,128.598 218.5,128.5C 222.021,129.166 225.687,129.833 229.5,130.5C 231.611,132.585 233.611,134.752 235.5,137C 235.241,138.261 234.574,139.261 233.5,140C 231.273,140.121 229.44,140.954 228,142.5C 226.246,140.75 224.079,140.083 221.5,140.5C 221.112,141.815 219.778,142.815 217.5,143.5C 216.402,142.603 216.402,141.77 217.5,141C 216.207,140.51 214.873,140.343 213.5,140.5C 211.579,139.637 209.579,138.971 207.5,138.5C 207.167,138.5 206.833,138.5 206.5,138.5C 205.312,137.636 204.145,136.636 203,135.5C 203.201,138.777 203.368,142.111 203.5,145.5C 201.659,146.402 200.326,147.736 199.5,149.5C 198.532,147.393 198.198,145.059 198.5,142.5C 198.167,142.5 197.833,142.5 197.5,142.5C 197.784,140.585 197.451,138.919 196.5,137.5C 196.5,135.833 196.5,134.167 196.5,132.5C 200.976,132.178 202.476,129.844 201,125.5C 199.211,123.771 197.044,123.104 194.5,123.5C 192.31,122.252 191.977,120.586 193.5,118.5C 193.5,116.5 193.5,114.5 193.5,112.5C 192.209,112.737 191.209,112.404 190.5,111.5C 191.5,111.5 192.5,111.5 193.5,111.5C 193.5,109.833 193.5,108.167 193.5,106.5C 194.5,106.833 195.167,107.5 195.5,108.5C 195.328,109.492 195.662,110.158 196.5,110.5C 197.167,110.5 197.5,110.833 197.5,111.5C 197.328,112.492 197.662,113.158 198.5,113.5C 201.033,114.854 202.7,114.02 203.5,111C 202.944,110.617 202.611,110.117 202.5,109.5C 201.71,108.206 200.71,107.039 199.5,106C 206.774,106.657 214.108,107.324 221.5,108C 223.597,109.61 225.93,110.777 228.5,111.5C 228.376,112.107 228.043,112.44 227.5,112.5 Z"/></g>
<g><path style="opacity:1" fill="#faf865" d="M 197.5,111.5 C 197.5,110.833 197.167,110.5 196.5,110.5C 197.637,107.572 198.97,107.238 200.5,109.5C 199.995,110.919 198.995,111.585 197.5,111.5 Z"/></g>
<g><path style="opacity:1" fill="#faf865" d="M 202.5,109.5 C 202.611,110.117 202.944,110.617 203.5,111C 202.7,114.02 201.033,114.854 198.5,113.5C 200.167,112.5 201.5,111.167 202.5,109.5 Z"/></g>
<g><path style="opacity:1" fill="#fec90d" d="M 227.5,120.5 C 224.881,120.768 222.381,120.435 220,119.5C 219.208,117.413 218.041,115.579 216.5,114C 217.635,113.251 218.635,113.417 219.5,114.5C 220.807,119.515 221.807,119.181 222.5,113.5C 224.042,112.699 225.708,112.366 227.5,112.5C 227.987,113.473 228.487,114.473 229,115.5C 228.874,110.316 230.041,109.65 232.5,113.5C 230.578,115.687 228.912,118.02 227.5,120.5 Z"/></g>
<g><path style="opacity:1" fill="#faf865" d="M 190.5,111.5 C 191.209,112.404 192.209,112.737 193.5,112.5C 193.5,114.5 193.5,116.5 193.5,118.5C 187.386,117.808 186.386,115.475 190.5,111.5 Z"/></g>
<g><path style="opacity:1" fill="#faf865" d="M 206.5,113.5 C 204.738,114.262 203.738,115.596 203.5,117.5C 201.972,117.483 201.472,116.816 202,115.5C 202.779,114.272 203.779,113.272 205,112.5C 205.765,112.57 206.265,112.903 206.5,113.5 Z"/></g>
<g><path style="opacity:1" fill="#000000" d="M 206.5,113.5 C 206.262,115.404 205.262,116.738 203.5,117.5C 203.738,115.596 204.738,114.262 206.5,113.5 Z"/></g>
<g><path style="opacity:1" fill="#faf865" d="M 206.5,113.5 C 208.085,114.002 208.585,115.002 208,116.5C 206.981,117.687 205.814,118.687 204.5,119.5C 203.702,119.043 203.369,118.376 203.5,117.5C 205.262,116.738 206.262,115.404 206.5,113.5 Z"/></g>
<g><path style="opacity:1" fill="#000000" d="M 224.5,114.5 C 228.089,115.372 228.423,117.039 225.5,119.5C 223.296,118.218 222.962,116.551 224.5,114.5 Z"/></g>
<g><path style="opacity:1" fill="#faf865" d="M 212.5,118.5 C 211,119.588 209.667,120.921 208.5,122.5C 207.5,122.167 206.833,121.5 206.5,120.5C 207.5,118.833 208.833,117.5 210.5,116.5C 211.522,116.855 212.189,117.522 212.5,118.5 Z"/></g>
<g><path style="opacity:1" fill="#e3df04" d="M 176.5,117.5 C 183.484,118.27 183.984,120.27 178,123.5C 175.41,121.995 174.91,119.995 176.5,117.5 Z"/></g>
<g><path style="opacity:1" fill="#faf865" d="M 232.5,123.5 C 232.302,121.425 232.135,119.425 232,117.5C 233.707,119.483 233.874,121.483 232.5,123.5 Z"/></g>
<g><path style="opacity:1" fill="#faf865" d="M 212.5,118.5 C 213.167,118.5 213.833,118.5 214.5,118.5C 214.977,121.241 213.977,123.574 211.5,125.5C 211.082,124.778 210.416,124.278 209.5,124C 210.971,122.417 211.971,120.583 212.5,118.5 Z"/></g>
<g><path style="opacity:1" fill="#faf865" d="M 232.5,123.5 C 232.573,125.027 231.906,126.027 230.5,126.5C 230.149,124.131 229.982,121.797 230,119.5C 230.934,120.858 231.768,122.192 232.5,123.5 Z"/></g>
<g><path style="opacity:1" fill="#faf865" d="M 213.5,126.5 C 214.242,124.574 215.242,122.741 216.5,121C 217.5,120.333 218.5,120.333 219.5,121C 218.26,123.744 216.26,125.577 213.5,126.5 Z"/></g>
<g><path style="opacity:1" fill="#faf865" d="M 227.5,120.5 C 228.5,122.5 229.5,124.5 230.5,126.5C 230.217,127.289 229.717,127.956 229,128.5C 226.884,126.004 226.384,123.337 227.5,120.5 Z"/></g>
<g><path style="opacity:1" fill="#faf865" d="M 218.5,128.5 C 218.082,127.778 217.416,127.278 216.5,127C 218.359,125.442 219.859,123.609 221,121.5C 221.497,123.81 221.663,126.143 221.5,128.5C 220.5,128.5 219.5,128.5 218.5,128.5 Z"/></g>
<g><path style="opacity:1" fill="#faf865" d="M 222.5,121.5 C 223.496,121.414 224.329,121.748 225,122.5C 225.45,124.519 226.283,126.352 227.5,128C 225.866,128.494 224.199,128.66 222.5,128.5C 222.5,126.167 222.5,123.833 222.5,121.5 Z"/></g>
<g><path style="opacity:1" fill="#fec90d" d="M 194.5,123.5 C 197.044,123.104 199.211,123.771 201,125.5C 202.476,129.844 200.976,132.178 196.5,132.5C 195.71,131.599 194.71,130.932 193.5,130.5C 193.298,128.05 193.631,125.717 194.5,123.5 Z"/></g>
<g><path style="opacity:1" fill="#e3df04" d="M 175.5,124.5 C 176.5,124.5 177.5,124.5 178.5,124.5C 179.901,128.376 180.901,132.376 181.5,136.5C 181.154,140.063 180.487,143.563 179.5,147C 178.629,148.769 177.296,149.436 175.5,149C 177.719,145.845 179.052,142.345 179.5,138.5C 178.766,133.635 177.433,128.969 175.5,124.5 Z"/></g>
<g><path style="opacity:1" fill="#52586e" d="M 193.5,130.5 C 194.71,130.932 195.71,131.599 196.5,132.5C 196.5,134.167 196.5,135.833 196.5,137.5C 194.018,139.503 193.018,142.169 193.5,145.5C 192.113,149.848 189.113,151.348 184.5,150C 183.09,149.632 182.09,148.799 181.5,147.5C 184.495,140.124 184.162,132.957 180.5,126C 181.263,125.056 182.263,124.556 183.5,124.5C 186.42,125.586 189.42,126.252 192.5,126.5C 192.232,128.099 192.566,129.432 193.5,130.5 Z"/></g>
<g><path style="opacity:1" fill="#555c73" d="M 164.5,126.5 C 167.355,125.197 170.355,125.197 173.5,126.5C 175.432,130.295 176.765,134.295 177.5,138.5C 176.149,142.526 174.815,146.526 173.5,150.5C 170.15,150.665 166.817,150.498 163.5,150C 168.032,143.894 169.532,137.061 168,129.5C 167.578,127.574 166.411,126.574 164.5,126.5 Z"/></g>
<g><path style="opacity:1" fill="#000000" d="M 196.5,125.5 C 198.852,126.543 199.019,127.876 197,129.5C 195.232,128.318 195.065,126.985 196.5,125.5 Z"/></g>
<g><path style="opacity:1" fill="#555c73" d="M 158.5,126.5 C 164.112,126.611 166.778,129.444 166.5,135C 166.68,140.824 164.68,145.657 160.5,149.5C 151.579,143.576 151.245,137.243 159.5,130.5C 163.452,135.191 163.286,139.857 159,144.5C 156.234,142.453 155.901,140.12 158,137.5C 158.915,138.328 159.581,139.328 160,140.5C 160.833,137.333 159.667,136.167 156.5,137C 155.409,139.064 155.242,141.231 156,143.5C 158,146.167 160,146.167 162,143.5C 163.923,139.138 163.923,134.805 162,130.5C 160.612,129.446 159.112,129.28 157.5,130C 156.696,131.771 155.529,133.271 154,134.5C 154.196,131.108 155.696,128.441 158.5,126.5 Z"/></g>
<g><path style="opacity:1" fill="#fec90d" d="M 197.5,133.5 C 202.833,134.5 202.833,135.5 197.5,136.5C 197.5,135.5 197.5,134.5 197.5,133.5 Z"/></g>
<g><path style="opacity:1" fill="#870014" d="M 206.5,138.5 C 205.681,140.772 205.015,143.106 204.5,145.5C 204.167,145.5 203.833,145.5 203.5,145.5C 203.368,142.111 203.201,138.777 203,135.5C 204.145,136.636 205.312,137.636 206.5,138.5 Z"/></g>
<g><path style="opacity:1" fill="#da9f95" d="M 196.5,137.5 C 197.451,138.919 197.784,140.585 197.5,142.5C 197.833,142.5 198.167,142.5 198.5,142.5C 198.198,145.059 198.532,147.393 199.5,149.5C 199.768,151.099 199.434,152.432 198.5,153.5C 197.25,151.846 195.916,150.179 194.5,148.5C 194.737,147.209 194.404,146.209 193.5,145.5C 193.018,142.169 194.018,139.503 196.5,137.5 Z"/></g>
<g><path style="opacity:1" fill="#fec90d" d="M 198.5,142.5 C 198.5,140.833 198.5,139.167 198.5,137.5C 203.748,139.093 203.748,140.76 198.5,142.5 Z"/></g>
<g><path style="opacity:1" fill="#e6a79e" d="M 206.5,138.5 C 206.833,138.5 207.167,138.5 207.5,138.5C 207.872,142.043 209.872,144.21 213.5,145C 216.592,145.736 219.592,145.569 222.5,144.5C 224.113,147.132 225.78,149.798 227.5,152.5C 226.758,153.287 225.925,153.953 225,154.5C 222.557,153.407 220.057,152.407 217.5,151.5C 216.537,151.97 216.537,152.637 217.5,153.5C 209.542,155.797 209.542,158.13 217.5,160.5C 219.246,158.146 221.579,157.146 224.5,157.5C 223.906,161.407 221.906,164.074 218.5,165.5C 216.379,165.675 214.379,165.341 212.5,164.5C 210.833,163.5 209.5,162.167 208.5,160.5C 208.672,159.508 208.338,158.842 207.5,158.5C 206.833,158.5 206.5,158.167 206.5,157.5C 206.125,155.302 205.458,153.302 204.5,151.5C 204.5,149.5 204.5,147.5 204.5,145.5C 205.015,143.106 205.681,140.772 206.5,138.5 Z"/></g>
<g><path style="opacity:1" fill="#d36836" d="M 207.5,138.5 C 209.579,138.971 211.579,139.637 213.5,140.5C 214.262,142.262 215.596,143.262 217.5,143.5C 219.778,142.815 221.112,141.815 221.5,140.5C 222.234,141.708 222.567,143.041 222.5,144.5C 219.592,145.569 216.592,145.736 213.5,145C 209.872,144.21 207.872,142.043 207.5,138.5 Z"/></g>
<g><path style="opacity:1" fill="#fefffe" d="M 213.5,140.5 C 214.873,140.343 216.207,140.51 217.5,141C 216.402,141.77 216.402,142.603 217.5,143.5C 215.596,143.262 214.262,142.262 213.5,140.5 Z"/></g>
<g><path style="opacity:1" fill="#000000" d="M 197.5,142.5 C 196.374,144.5 196.207,146.5 197,148.5C 194.858,146.121 195.024,144.121 197.5,142.5 Z"/></g>
<g><path style="opacity:1" fill="#fec90d" d="M 201.5,142.5 C 202.559,144.07 202.059,145.403 200,146.5C 199.516,144.807 200.016,143.473 201.5,142.5 Z"/></g>
<g><path style="opacity:1" fill="#fec90d" d="M 203.5,145.5 C 203.799,149.065 202.465,150.398 199.5,149.5C 200.326,147.736 201.659,146.402 203.5,145.5 Z"/></g>
<g><path style="opacity:1" fill="#e99f8b" d="M 223.5,141.5 C 226.609,143.718 228.109,146.718 228,150.5C 227.047,148.545 225.713,146.878 224,145.5C 223.51,144.207 223.343,142.873 223.5,141.5 Z"/></g>
<g><path style="opacity:1" fill="#864221" d="M 194.5,148.5 C 195.916,150.179 197.25,151.846 198.5,153.5C 200.268,155.508 201.934,157.674 203.5,160C 202.906,160.464 202.239,160.631 201.5,160.5C 198.484,157.48 195.817,154.146 193.5,150.5C 193.328,149.508 193.662,148.842 194.5,148.5 Z"/></g>
<g><path style="opacity:1" fill="#8f5a3c" d="M 190.5,153.5 C 188.265,153.205 186.265,153.539 184.5,154.5C 183.486,155.674 182.153,156.34 180.5,156.5C 177.779,156.963 175.112,157.629 172.5,158.5C 171.082,156.692 169.082,156.025 166.5,156.5C 166.67,155.178 166.337,154.011 165.5,153C 170.44,152.748 175.273,151.914 180,150.5C 183.531,151.822 187.031,152.822 190.5,153.5 Z"/></g>
<g><path style="opacity:1" fill="#faf865" d="M 193.5,150.5 C 195.817,154.146 198.484,157.48 201.5,160.5C 202.172,161.267 203.005,161.934 204,162.5C 205.486,165.85 206.653,169.184 207.5,172.5C 207.649,173.552 207.483,174.552 207,175.5C 205.25,173.743 204.084,171.743 203.5,169.5C 203.628,167.345 203.128,165.345 202,163.5C 198.221,160.231 195.054,156.564 192.5,152.5C 192.328,151.508 192.662,150.842 193.5,150.5 Z"/></g>
<g><path style="opacity:1" fill="#b87a56" d="M 158.5,151.5 C 165.224,152.124 166.558,154.791 162.5,159.5C 159.286,160.044 156.286,161.044 153.5,162.5C 153.167,162.167 152.833,161.833 152.5,161.5C 154.523,158.111 156.523,154.778 158.5,151.5 Z"/></g>
<g><path style="opacity:1" fill="#2c3351" d="M 192.5,152.5 C 195.054,156.564 198.221,160.231 202,163.5C 203.128,165.345 203.628,167.345 203.5,169.5C 203.631,170.239 203.464,170.906 203,171.5C 199.117,167.95 194.951,164.783 190.5,162C 191.814,159.395 191.814,156.895 190.5,154.5C 190.5,154.167 190.5,153.833 190.5,153.5C 191.167,153.167 191.833,152.833 192.5,152.5 Z"/></g>
<g><path style="opacity:1" fill="#870014" d="M 217.5,153.5 C 220.067,153.855 222.567,154.521 225,155.5C 227.811,154.307 228.811,155.307 228,158.5C 226.989,157.663 225.822,157.33 224.5,157.5C 221.579,157.146 219.246,158.146 217.5,160.5C 209.542,158.13 209.542,155.797 217.5,153.5 Z"/></g>
<g><path style="opacity:1" fill="#e3df04" d="M 184.5,154.5 C 186.423,158.029 187.089,162.029 186.5,166.5C 185.674,170.982 185.174,175.649 185,180.5C 182.839,185.492 180.172,190.159 177,194.5C 172.528,197.653 167.694,200.153 162.5,202C 160.597,202.774 158.93,202.44 157.5,201C 163.612,197.221 169.445,193.055 175,188.5C 179.115,178.261 180.948,167.594 180.5,156.5C 182.153,156.34 183.486,155.674 184.5,154.5 Z"/></g>
<g><path style="opacity:1" fill="#faf865" d="M 190.5,154.5 C 190.662,156.527 190.495,158.527 190,160.5C 189.107,161.711 188.274,161.711 187.5,160.5C 189.922,158.714 189.922,157.048 187.5,155.5C 188.325,154.614 189.325,154.281 190.5,154.5 Z"/></g>
<g><path style="opacity:1" fill="#fec90d" d="M 206.5,157.5 C 206.5,158.167 206.833,158.5 207.5,158.5C 205.756,161.1 204.423,160.934 203.5,158C 204.352,156.272 205.352,156.105 206.5,157.5 Z"/></g>
<g><path style="opacity:1" fill="#faf865" d="M 172.5,158.5 C 173.045,160.593 173.878,162.593 175,164.5C 175.067,171.085 175.234,177.585 175.5,184C 174.219,186.403 172.386,188.237 170,189.5C 170.917,184.475 170.584,179.475 169,174.5C 163.812,170.475 162.479,165.475 165,159.5C 170.621,163.223 173.287,168.556 173,175.5C 174.383,168.481 172.216,162.981 166.5,159C 168.473,158.505 170.473,158.338 172.5,158.5 Z"/></g>
<g><path style="opacity:1" fill="#fec90d" d="M 208.5,160.5 C 209.5,162.167 210.833,163.5 212.5,164.5C 212.44,165.043 212.107,165.376 211.5,165.5C 209.37,164.533 207.37,163.366 205.5,162C 206.244,160.961 207.244,160.461 208.5,160.5 Z"/></g>
<g><path style="opacity:1" fill="#b87a56" d="M 156.5,162.5 C 158.527,162.338 160.527,162.505 162.5,163C 161.773,164.399 161.273,165.899 161,167.5C 156.333,170.833 152.333,174.833 149,179.5C 149.861,173.111 152.361,167.445 156.5,162.5 Z"/></g>
<g><path style="opacity:1" fill="#e3df04" d="M 186.5,166.5 C 187.161,165.282 187.828,163.949 188.5,162.5C 194.62,169.909 200.62,177.409 206.5,185C 204.612,187.19 202.445,189.023 200,190.5C 196.045,184.877 191.712,179.543 187,174.5C 186.503,171.854 186.336,169.187 186.5,166.5 Z"/></g>
<g><path style="opacity:1" fill="#faf865" d="M 177.5,163.5 C 179.934,164.354 179.767,165.354 177,166.5C 176.53,165.423 176.697,164.423 177.5,163.5 Z"/></g>
<g><path style="opacity:1" fill="#141620" d="M 203.5,145.5 C 203.833,145.5 204.167,145.5 204.5,145.5C 204.5,147.5 204.5,149.5 204.5,151.5C 205.458,153.302 206.125,155.302 206.5,157.5C 205.352,156.105 204.352,156.272 203.5,158C 204.423,160.934 205.756,161.1 207.5,158.5C 208.338,158.842 208.672,159.508 208.5,160.5C 207.244,160.461 206.244,160.961 205.5,162C 207.37,163.366 209.37,164.533 211.5,165.5C 212.107,165.376 212.44,165.043 212.5,164.5C 214.379,165.341 216.379,165.675 218.5,165.5C 215.909,168.758 212.909,171.758 209.5,174.5C 208.833,173.833 208.167,173.167 207.5,172.5C 206.653,169.184 205.486,165.85 204,162.5C 203.005,161.934 202.172,161.267 201.5,160.5C 202.239,160.631 202.906,160.464 203.5,160C 201.934,157.674 200.268,155.508 198.5,153.5C 199.434,152.432 199.768,151.099 199.5,149.5C 202.465,150.398 203.799,149.065 203.5,145.5 Z"/></g>
<g><path style="opacity:1" fill="#fec90d" d="M 204.5,151.5 C 204.203,157.492 202.87,157.825 200.5,152.5C 201.728,150.824 203.061,150.491 204.5,151.5 Z"/></g>
<g><path style="opacity:1" fill="#ebe860" d="M 218.5,165.5 C 219.5,165.833 220.167,166.5 220.5,167.5C 220.672,168.492 220.338,169.158 219.5,169.5C 217.142,171.529 214.808,173.529 212.5,175.5C 211.209,175.737 210.209,175.404 209.5,174.5C 212.909,171.758 215.909,168.758 218.5,165.5 Z"/></g>
<g><path style="opacity:1" fill="#1d831a" d="M 206.5,176.5 C 207.15,178.435 207.483,180.435 207.5,182.5C 202.845,177.84 198.512,172.84 194.5,167.5C 194.667,167.167 194.833,166.833 195,166.5C 198.429,170.439 202.263,173.772 206.5,176.5 Z"/></g>
<g><path style="opacity:1" fill="#e3df04" d="M 220.5,167.5 C 223.824,171.075 225.49,175.408 225.5,180.5C 224.91,185.491 224.41,190.491 224,195.5C 223.584,197.55 222.417,198.884 220.5,199.5C 221.305,194.699 221.972,189.866 222.5,185C 221.946,179.729 220.946,174.562 219.5,169.5C 220.338,169.158 220.672,168.492 220.5,167.5 Z"/></g>
<g><path style="opacity:1" fill="#1d831a" d="M 151.5,203.5 C 149.402,202.065 147.069,200.898 144.5,200C 142.304,198.301 140.304,196.467 138.5,194.5C 142.789,189.039 147.289,183.706 152,178.5C 155.035,175.13 158.368,172.13 162,169.5C 168.651,176.061 170.151,183.727 166.5,192.5C 161.201,195.805 156.201,199.472 151.5,203.5 Z"/></g>
<g><path style="opacity:1" fill="#faf865" d="M 232.5,170.5 C 235.408,171.159 235.742,171.993 233.5,173C 234.448,173.483 235.448,173.649 236.5,173.5C 236.649,174.552 236.483,175.552 236,176.5C 235.282,175.549 234.449,175.383 233.5,176C 234.623,177.044 235.956,177.71 237.5,178C 236.567,180.848 235.067,181.014 233,178.5C 232.833,178.833 232.667,179.167 232.5,179.5C 235.429,180.649 235.929,182.315 234,184.5C 233.189,183.04 232.355,182.707 231.5,183.5C 232.09,184.799 233.09,185.632 234.5,186C 232.233,189.72 229.4,192.887 226,195.5C 227.991,187.207 230.157,178.874 232.5,170.5 Z"/></g>
<g><path style="opacity:1" fill="#e3df04" d="M 217.5,172.5 C 218.966,173.347 219.8,174.68 220,176.5C 220.74,179.176 221.073,181.842 221,184.5C 212.35,192.82 202.85,199.986 192.5,206C 179.14,211.564 165.64,216.731 152,221.5C 151.192,219.421 151.359,217.421 152.5,215.5C 168.911,207.756 185.245,199.923 201.5,192C 208.941,187.075 214.274,180.575 217.5,172.5 Z"/></g>
<g><path style="opacity:1" fill="#1d831a" d="M 212.5,175.5 C 213.239,175.369 213.906,175.536 214.5,176C 212.7,177.812 211.033,179.645 209.5,181.5C 209.5,179.833 209.5,178.167 209.5,176.5C 210.791,176.737 211.791,176.404 212.5,175.5 Z"/></g>
<g><path style="opacity:1" fill="#e3df04" d="M 206.5,176.5 C 207.5,176.5 208.5,176.5 209.5,176.5C 209.5,178.167 209.5,179.833 209.5,181.5C 208.994,183.105 208.327,183.439 207.5,182.5C 207.483,180.435 207.15,178.435 206.5,176.5 Z"/></g>
<g><path style="opacity:1" fill="#1d831a" d="M 189.5,195.5 C 185.681,195.605 182.014,196.438 178.5,198C 173.479,200.179 168.479,202.346 163.5,204.5C 169.337,201.082 175.004,197.416 180.5,193.5C 184.025,188.775 186.191,183.442 187,177.5C 190.743,181.988 194.243,186.654 197.5,191.5C 195.393,193.887 192.727,195.22 189.5,195.5 Z"/></g>
<g><path style="opacity:1" fill="#2ec928" d="M 159.5,181.5 C 160.239,181.369 160.906,181.536 161.5,182C 157.927,187.407 153.26,191.574 147.5,194.5C 146.692,194.192 146.025,193.692 145.5,193C 147.417,190.502 149.084,187.835 150.5,185C 154.06,185.563 157.06,184.397 159.5,181.5 Z"/></g>
<g><path style="opacity:1" fill="#114e0f" d="M 180.5,193.5 C 182.963,191.539 185.297,189.372 187.5,187C 190.943,187.25 191.276,188.584 188.5,191C 186.167,192.167 183.833,193.333 181.5,194.5C 180.893,194.376 180.56,194.043 180.5,193.5 Z"/></g>
<g><path style="opacity:1" fill="#1d831a" d="M 220.5,199.5 C 220.662,201.527 220.495,203.527 220,205.5C 218.441,201.381 216.607,197.381 214.5,193.5C 216.167,191.167 218.167,189.167 220.5,187.5C 220.236,191.423 220.236,195.423 220.5,199.5 Z"/></g>
<g><path style="opacity:1" fill="#1c801a" d="M 214.5,234.5 C 213.5,234.5 212.5,234.5 211.5,234.5C 211.5,234.167 211.5,233.833 211.5,233.5C 211.704,231.315 212.37,229.315 213.5,227.5C 217.438,219.705 222.438,212.539 228.5,206C 225.587,205.952 222.921,206.785 220.5,208.5C 221.105,205.873 221.605,203.207 222,200.5C 226.086,197.624 229.753,194.291 233,190.5C 232.49,202.594 230.99,214.594 228.5,226.5C 226.358,224.793 224.025,223.959 221.5,224C 224.418,225.709 227.252,227.542 230,229.5C 230.49,230.793 230.657,232.127 230.5,233.5C 225.115,234.68 219.782,235.013 214.5,234.5 Z"/></g>
<g><path style="opacity:1" fill="#114e0f" d="M 138.5,194.5 C 140.304,196.467 142.304,198.301 144.5,200C 147.069,200.898 149.402,202.065 151.5,203.5C 151.167,204.5 150.5,205.167 149.5,205.5C 145.458,201.81 140.791,199.143 135.5,197.5C 136.167,196.167 137.167,195.167 138.5,194.5 Z"/></g>
<g><path style="opacity:1" fill="#e3df04" d="M 212.5,194.5 C 215.467,198.937 217.8,203.77 219.5,209C 218.556,211.722 217.223,214.222 215.5,216.5C 213.601,210.467 210.934,204.8 207.5,199.5C 209.394,198.055 211.06,196.388 212.5,194.5 Z"/></g>
<g><path style="opacity:1" fill="#114e0f" d="M 189.5,195.5 C 181.02,199.671 172.354,203.671 163.5,207.5C 162.913,206.767 162.913,205.767 163.5,204.5C 168.479,202.346 173.479,200.179 178.5,198C 182.014,196.438 185.681,195.605 189.5,195.5 Z"/></g>
<g><path style="opacity:1" fill="#1c7e1a" d="M 135.5,197.5 C 140.791,199.143 145.458,201.81 149.5,205.5C 146.779,208.602 147.112,211.435 150.5,214C 149.944,214.383 149.611,214.883 149.5,215.5C 143.428,215.067 137.761,213.567 132.5,211C 136.731,216.781 142.397,219.948 149.5,220.5C 149.833,222.5 150.167,224.5 150.5,226.5C 143.842,225.175 137.842,222.509 132.5,218.5C 130.901,215.216 129.567,211.716 128.5,208C 130.231,204.021 132.564,200.521 135.5,197.5 Z"/></g>
<g><path style="opacity:1" fill="#e3df04" d="M 206.5,202.5 C 206.5,203.833 206.5,205.167 206.5,206.5C 205.205,210.267 204.539,214.267 204.5,218.5C 203.539,220.265 203.205,222.265 203.5,224.5C 202.388,226.599 201.721,228.933 201.5,231.5C 204.57,231.368 207.57,231.701 210.5,232.5C 210.5,233.167 210.833,233.5 211.5,233.5C 211.5,233.833 211.5,234.167 211.5,234.5C 207.977,232.913 204.31,232.413 200.5,233C 199.281,235.278 197.948,237.445 196.5,239.5C 195.833,239.5 195.167,239.5 194.5,239.5C 196.312,237.539 197.312,235.206 197.5,232.5C 186.842,231.683 176.175,231.516 165.5,232C 172.183,236.506 179.517,239.339 187.5,240.5C 186.432,241.434 185.099,241.768 183.5,241.5C 175.807,239.486 168.807,236.152 162.5,231.5C 162.611,230.883 162.944,230.383 163.5,230C 165.667,229.833 167.833,229.667 170,229.5C 179.817,230.311 189.651,230.644 199.5,230.5C 199.5,229.167 199.5,227.833 199.5,226.5C 200.461,224.735 200.795,222.735 200.5,220.5C 201.897,214.361 202.897,208.027 203.5,201.5C 204.895,200.185 205.895,200.519 206.5,202.5 Z"/></g>
<g><path style="opacity:1" fill="#1d831a" d="M 203.5,201.5 C 202.897,208.027 201.897,214.361 200.5,220.5C 190.455,219.962 180.455,218.962 170.5,217.5C 174.01,215.656 177.677,213.989 181.5,212.5C 181.918,213.222 182.584,213.722 183.5,214C 189.188,215.099 194.855,215.266 200.5,214.5C 196.252,213.532 192.252,212.199 188.5,210.5C 193.719,207.965 198.719,204.965 203.5,201.5 Z"/></g>
<g><path style="opacity:1" fill="#246b19" d="M 206.5,202.5 C 207.885,203.574 209.051,204.907 210,206.5C 211.976,210.827 212.476,215.16 211.5,219.5C 210.662,219.842 210.328,220.508 210.5,221.5C 209.191,222.624 208.525,224.124 208.5,226C 209.033,228.226 209.7,230.393 210.5,232.5C 207.57,231.701 204.57,231.368 201.5,231.5C 201.721,228.933 202.388,226.599 203.5,224.5C 203.205,222.265 203.539,220.265 204.5,218.5C 204.539,214.267 205.205,210.267 206.5,206.5C 206.5,205.167 206.5,203.833 206.5,202.5 Z"/></g>
<g><path style="opacity:1" fill="#c2c3c2" d="M 410.5,205.5 C 389.214,208.86 367.881,213.36 346.5,219C 340.862,219.642 336.862,222.475 334.5,227.5C 333.167,223.5 333.167,219.5 334.5,215.5C 335.795,214.902 337.128,214.402 338.5,214C 363.792,209.673 389.125,206.006 414.5,203C 413.529,204.481 412.196,205.315 410.5,205.5 Z"/></g>
<g><path style="opacity:1" fill="#fefffe" d="M 155.5,205.5 C 156.873,205.343 158.207,205.51 159.5,206C 157.333,207.5 155.167,209 153,210.5C 153.058,208.565 153.891,206.898 155.5,205.5 Z"/></g>
<g><path style="opacity:1" fill="#114c10" d="M 213.5,227.5 C 213.317,225.012 212.317,223.012 210.5,221.5C 210.328,220.508 210.662,219.842 211.5,219.5C 212.222,219.082 212.722,218.416 213,217.5C 214.333,218.833 215.667,218.833 217,217.5C 219.05,214.852 220.216,211.852 220.5,208.5C 222.921,206.785 225.587,205.952 228.5,206C 222.438,212.539 217.438,219.705 213.5,227.5 Z"/></g>
<g><path style="opacity:1" fill="#c2c3c2" d="M 410.5,205.5 C 392.81,212.67 374.476,218.17 355.5,222C 350.143,223.221 345.31,225.387 341,228.5C 335.707,227.887 335.207,226.054 339.5,223C 342.089,221.803 344.756,220.803 347.5,220C 368.457,214.843 389.457,210.009 410.5,205.5 Z"/></g>
<g><path style="opacity:1" fill="#fec90d" d="M 206.5,206.5 C 208.76,207.238 208.927,208.238 207,209.5C 206.517,208.552 206.351,207.552 206.5,206.5 Z"/></g>
<g><path style="opacity:1" fill="#114e0f" d="M 149.5,215.5 C 149.5,217.167 149.5,218.833 149.5,220.5C 142.397,219.948 136.731,216.781 132.5,211C 137.761,213.567 143.428,215.067 149.5,215.5 Z"/></g>
<g><path style="opacity:1" fill="#114e0f" d="M 188.5,210.5 C 192.252,212.199 196.252,213.532 200.5,214.5C 194.855,215.266 189.188,215.099 183.5,214C 182.584,213.722 181.918,213.222 181.5,212.5C 183.833,211.833 186.167,211.167 188.5,210.5 Z"/></g>
<g><path style="opacity:1" fill="#fec90d" d="M 322.5,221.5 C 324.455,222.93 326.121,222.597 327.5,220.5C 328.265,219.34 329.265,218.34 330.5,217.5C 332.215,221.209 331.382,224.209 328,226.5C 327.506,228.134 327.34,229.801 327.5,231.5C 324.223,231.216 321.057,231.549 318,232.5C 318.989,227.646 319.655,222.646 320,217.5C 320.333,217.167 320.667,216.833 321,216.5C 321.198,218.382 321.698,220.048 322.5,221.5 Z"/></g>
<g><path style="opacity:1" fill="#114e0f" d="M 170.5,217.5 C 180.455,218.962 190.455,219.962 200.5,220.5C 194.479,220.425 188.479,220.758 182.5,221.5C 176.585,221.136 170.919,220.136 165.5,218.5C 167.117,217.962 168.784,217.629 170.5,217.5 Z"/></g>
<g><path style="opacity:1" fill="#8e8e8e" d="M 327.5,220.5 C 326.121,222.597 324.455,222.93 322.5,221.5C 322.343,220.127 322.51,218.793 323,217.5C 324.409,218.781 325.909,219.781 327.5,220.5 Z"/></g>
<g><path style="opacity:1" fill="#114810" d="M 132.5,218.5 C 137.842,222.509 143.842,225.175 150.5,226.5C 150.433,227.959 150.766,229.292 151.5,230.5C 149.401,231.612 147.067,232.279 144.5,232.5C 140.262,229.935 136.596,226.602 133.5,222.5C 133.167,221.167 132.833,219.833 132.5,218.5 Z"/></g>
<g><path style="opacity:1" fill="#1d831a" d="M 165.5,218.5 C 170.919,220.136 176.585,221.136 182.5,221.5C 188.479,220.758 194.479,220.425 200.5,220.5C 200.795,222.735 200.461,224.735 199.5,226.5C 199.5,227.833 199.5,229.167 199.5,230.5C 189.651,230.644 179.817,230.311 170,229.5C 167.833,229.667 165.667,229.833 163.5,230C 162.944,230.383 162.611,230.883 162.5,231.5C 160.748,228.328 158.748,225.328 156.5,222.5C 159.453,221.254 162.453,219.921 165.5,218.5 Z"/></g>
<g><path style="opacity:1" fill="#fec90d" d="M 204.5,218.5 C 206.337,218.639 206.67,219.306 205.5,220.5C 204.702,220.043 204.369,219.376 204.5,218.5 Z"/></g>
<g><path style="opacity:1" fill="#c2c3c2" d="M 313.5,220.5 C 317.893,220.457 318.226,220.957 314.5,222C 298.551,225.325 282.551,227.991 266.5,230C 282.344,227.031 298.011,223.864 313.5,220.5 Z"/></g>
<g><path style="opacity:1" fill="#000000" d="M 210.5,221.5 C 212.317,223.012 213.317,225.012 213.5,227.5C 212.37,229.315 211.704,231.315 211.5,233.5C 210.833,233.5 210.5,233.167 210.5,232.5C 209.7,230.393 209.033,228.226 208.5,226C 208.525,224.124 209.191,222.624 210.5,221.5 Z"/></g>
<g><path style="opacity:1" fill="#1d761a" d="M 133.5,222.5 C 136.596,226.602 140.262,229.935 144.5,232.5C 142.819,234.008 140.819,235.008 138.5,235.5C 137.25,235.423 136.417,234.756 136,233.5C 134.85,229.888 134.017,226.222 133.5,222.5 Z"/></g>
<g><path style="opacity:1" fill="#114910" d="M 156.5,222.5 C 158.748,225.328 160.748,228.328 162.5,231.5C 168.807,236.152 175.807,239.486 183.5,241.5C 180.465,242.374 177.465,243.374 174.5,244.5C 173.472,244.926 172.139,244.926 170.5,244.5C 170.737,245.791 170.404,246.791 169.5,247.5C 168.566,246.432 168.232,245.099 168.5,243.5C 168.229,239.87 166.562,238.87 163.5,240.5C 162.833,242.167 162.167,243.833 161.5,245.5C 160.833,245.5 160.5,245.167 160.5,244.5C 159.805,241.085 158.138,238.418 155.5,236.5C 154.409,233.056 153.409,229.556 152.5,226C 152.424,223.244 153.757,222.077 156.5,222.5 Z"/></g>
<g><path style="opacity:1" fill="#73552b" d="M 315.5,223.5 C 316.497,223.47 317.164,223.97 317.5,225C 317.168,227.887 315.835,230.054 313.5,231.5C 297.835,234.633 282.169,237.633 266.5,240.5C 266.5,237.833 266.5,235.167 266.5,232.5C 283.054,230.021 299.387,227.021 315.5,223.5 Z"/></g>
<g><path style="opacity:1" fill="#114e0f" d="M 199.5,226.5 C 193.229,227.279 186.896,227.113 180.5,226C 183.88,224.916 187.38,224.416 191,224.5C 194.252,224.519 197.085,225.186 199.5,226.5 Z"/></g>
<g><path style="opacity:1" fill="#fec90d" d="M 203.5,224.5 C 205.337,224.639 205.67,225.306 204.5,226.5C 203.702,226.043 203.369,225.376 203.5,224.5 Z"/></g>
<g><path style="opacity:1" fill="#fefffe" d="M 331.5,225.5 C 332.043,225.56 332.376,225.893 332.5,226.5C 329.27,231.513 328.937,231.179 331.5,225.5 Z"/></g>
<g><path style="opacity:1" fill="#151928" d="M 136.5,240.5 C 136.44,241.043 136.107,241.376 135.5,241.5C 132.859,236.536 129.692,235.87 126,239.5C 126.58,234.663 128.58,230.33 132,226.5C 132.693,231.523 134.193,236.189 136.5,240.5 Z"/></g>
<g><path style="opacity:1" fill="#000000" d="M 218.5,227.5 C 222.586,227.185 226.253,228.685 229.5,232C 225.953,230.571 222.286,229.071 218.5,227.5 Z"/></g>
<g><path style="opacity:1" fill="#faf865" d="M 151.5,230.5 C 153.109,231.665 153.443,232.999 152.5,234.5C 146.655,234.596 141.655,236.596 137.5,240.5C 137.167,240.5 136.833,240.5 136.5,240.5C 136.365,238.446 137.032,236.779 138.5,235.5C 140.819,235.008 142.819,234.008 144.5,232.5C 147.067,232.279 149.401,231.612 151.5,230.5 Z"/></g>
<g><path style="opacity:1" fill="#c2c3c2" d="M 260.5,230.5 C 262.379,230.393 262.712,230.893 261.5,232C 258.125,232.632 257.791,232.132 260.5,230.5 Z"/></g>
<g><path style="opacity:1" fill="#fec90d" d="M 263.5,230.5 C 264.777,231.694 265.444,233.36 265.5,235.5C 265.167,237.167 264.833,238.833 264.5,240.5C 263.513,237.232 263.18,233.898 263.5,230.5 Z"/></g>
<g><path style="opacity:1" fill="#114e0f" d="M 194.5,239.5 C 192.236,240.219 189.903,240.552 187.5,240.5C 179.517,239.339 172.183,236.506 165.5,232C 176.175,231.516 186.842,231.683 197.5,232.5C 197.312,235.206 196.312,237.539 194.5,239.5 Z"/></g>
<g><path style="opacity:1" fill="#fec90d" d="M 254.5,231.5 C 255.5,231.5 256.5,231.5 257.5,231.5C 257.5,235.167 257.5,238.833 257.5,242.5C 256.5,242.5 255.5,242.5 254.5,242.5C 254.5,238.833 254.5,235.167 254.5,231.5 Z"/></g>
<g><path style="opacity:1" fill="#114b10" d="M 211.5,234.5 C 211.167,235.5 210.5,236.167 209.5,236.5C 205.07,237.119 200.737,238.119 196.5,239.5C 197.948,237.445 199.281,235.278 200.5,233C 204.31,232.413 207.977,232.913 211.5,234.5 Z"/></g>
<g><path style="opacity:1" fill="#bfbfbf" d="M 213.5,237.5 C 213.5,236.833 213.833,236.5 214.5,236.5C 215.577,237.018 216.744,237.352 218,237.5C 229.854,235.789 241.687,234.289 253.5,233C 241.533,235.36 229.533,237.527 217.5,239.5C 215.667,239.415 214.334,238.748 213.5,237.5 Z"/></g>
<g><path style="opacity:1" fill="#73552b" d="M 260.5,233.5 C 261.725,234.152 262.392,235.319 262.5,237C 263.068,240.263 261.734,241.763 258.5,241.5C 258.132,238.467 258.798,235.8 260.5,233.5 Z"/></g>
<g><path style="opacity:1" fill="#303859" d="M 152.5,234.5 C 153.778,234.782 154.778,235.449 155.5,236.5C 155.586,238.677 156.253,240.677 157.5,242.5C 151.158,244.085 145.658,247.085 141,251.5C 140.395,247.631 139.229,243.965 137.5,240.5C 141.655,236.596 146.655,234.596 152.5,234.5 Z"/></g>
<g><path style="opacity:1" fill="#fec90d" d="M 211.5,234.5 C 212.5,234.5 213.5,234.5 214.5,234.5C 214.5,235.167 214.5,235.833 214.5,236.5C 213.833,236.5 213.5,236.833 213.5,237.5C 211.466,239.655 211.133,241.988 212.5,244.5C 212.328,245.492 212.662,246.158 213.5,246.5C 213.87,250.186 212.537,251.186 209.5,249.5C 208.949,246.193 208.616,242.86 208.5,239.5C 209.404,238.791 209.737,237.791 209.5,236.5C 210.5,236.167 211.167,235.5 211.5,234.5 Z"/></g>
<g><path style="opacity:1" fill="#73542b" d="M 213.5,246.5 C 212.662,246.158 212.328,245.492 212.5,244.5C 212.5,243.5 212.5,242.5 212.5,241.5C 226.271,240.26 239.938,238.26 253.5,235.5C 253.958,238.394 253.291,240.894 251.5,243C 239.192,245.385 226.859,247.551 214.5,249.5C 214.737,248.209 214.404,247.209 213.5,246.5 Z"/></g>
<g><path style="opacity:1" fill="#000000" d="M 209.5,236.5 C 209.737,237.791 209.404,238.791 208.5,239.5C 198.502,240.865 188.335,242.865 178,245.5C 176.862,245.011 175.695,244.678 174.5,244.5C 177.465,243.374 180.465,242.374 183.5,241.5C 185.099,241.768 186.432,241.434 187.5,240.5C 189.903,240.552 192.236,240.219 194.5,239.5C 195.167,239.5 195.833,239.5 196.5,239.5C 200.737,238.119 205.07,237.119 209.5,236.5 Z"/></g>
<g><path style="opacity:1" fill="#c1c1c1" d="M 208.5,239.5 C 207.691,240.469 206.691,241.302 205.5,242C 196.227,242.616 187.227,244.449 178.5,247.5C 176.065,245.721 175.065,246.387 175.5,249.5C 173.5,249.5 171.5,249.5 169.5,249.5C 169.5,248.833 169.5,248.167 169.5,247.5C 170.404,246.791 170.737,245.791 170.5,244.5C 172.139,244.926 173.472,244.926 174.5,244.5C 175.695,244.678 176.862,245.011 178,245.5C 188.335,242.865 198.502,240.865 208.5,239.5 Z"/></g>
<g><path style="opacity:1" fill="#c2c3c2" d="M 168.5,243.5 C 167.521,246.625 167.187,249.958 167.5,253.5C 166.209,253.263 165.209,253.596 164.5,254.5C 163.624,254.631 162.957,254.298 162.5,253.5C 163.383,252.452 164.05,251.285 164.5,250C 163.633,246.895 163.299,243.728 163.5,240.5C 166.562,238.87 168.229,239.87 168.5,243.5 Z"/></g>
<g><path style="opacity:1" fill="#000000" d="M 208.5,239.5 C 208.616,242.86 208.949,246.193 209.5,249.5C 208.069,248.22 207.402,246.553 207.5,244.5C 206.5,244.5 205.5,244.5 204.5,244.5C 204.462,251.041 203.796,251.041 202.5,244.5C 201.686,246.766 201.186,249.1 201,251.5C 200.998,248.949 200.164,246.949 198.5,245.5C 198.083,244.876 197.416,244.543 196.5,244.5C 189.611,246.81 182.611,248.476 175.5,249.5C 175.065,246.387 176.065,245.721 178.5,247.5C 187.227,244.449 196.227,242.616 205.5,242C 206.691,241.302 207.691,240.469 208.5,239.5 Z"/></g>
<g><path style="opacity:1" fill="#949c75" d="M 210.5,254.5 C 210.5,254.167 210.5,253.833 210.5,253.5C 228.579,249.553 246.746,245.553 265,241.5C 266.509,242.09 268.009,242.756 269.5,243.5C 252.766,246.154 236.099,249.321 219.5,253C 216.854,256.548 213.521,257.714 209.5,256.5C 209.863,255.817 210.196,255.15 210.5,254.5 Z"/></g>
<g><path style="opacity:1" fill="#000000" d="M 168.5,243.5 C 168.232,245.099 168.566,246.432 169.5,247.5C 169.5,248.167 169.5,248.833 169.5,249.5C 168.549,250.919 168.216,252.585 168.5,254.5C 167.167,254.5 165.833,254.5 164.5,254.5C 165.209,253.596 166.209,253.263 167.5,253.5C 167.187,249.958 167.521,246.625 168.5,243.5 Z"/></g>
<g><path style="opacity:1" fill="#eaaa9f" d="M 160.5,244.5 C 160.5,245.167 160.833,245.5 161.5,245.5C 162.872,247.35 162.372,248.683 160,249.5C 159.199,252.367 159.366,255.034 160.5,257.5C 160.351,258.552 160.517,259.552 161,260.5C 161.893,259.289 162.726,259.289 163.5,260.5C 163.12,262.021 162.954,263.687 163,265.5C 160.639,262.779 158.139,260.612 155.5,259C 157.334,261.663 159.334,264.163 161.5,266.5C 157.147,265.654 153.814,263.321 151.5,259.5C 151.865,262.764 153.865,265.264 157.5,267C 153.441,266.985 150.274,265.152 148,261.5C 148.606,264.46 150.439,266.627 153.5,268C 151.735,268.64 150.068,268.473 148.5,267.5C 146.335,264.426 145.002,261.093 144.5,257.5C 144.232,254.881 144.565,252.381 145.5,250C 150.132,247.011 155.132,245.178 160.5,244.5 Z"/></g>
<g><path style="opacity:1" fill="#553f22" d="M 163.5,240.5 C 163.299,243.728 163.633,246.895 164.5,250C 164.05,251.285 163.383,252.452 162.5,253.5C 162.957,254.298 163.624,254.631 164.5,254.5C 165.833,254.5 167.167,254.5 168.5,254.5C 168.216,252.585 168.549,250.919 169.5,249.5C 171.5,249.5 173.5,249.5 175.5,249.5C 182.611,248.476 189.611,246.81 196.5,244.5C 197.416,244.543 198.083,244.876 198.5,245.5C 198.663,247.857 198.497,250.19 198,252.5C 196.849,244.526 196.016,244.526 195.5,252.5C 186.996,254.807 178.329,256.474 169.5,257.5C 168.209,257.263 167.209,257.596 166.5,258.5C 164.379,258.675 162.379,258.341 160.5,257.5C 159.366,255.034 159.199,252.367 160,249.5C 162.372,248.683 162.872,247.35 161.5,245.5C 162.167,243.833 162.833,242.167 163.5,240.5 Z"/></g>
<g><path style="opacity:1" fill="#d49b92" d="M 209.5,249.5 C 209.792,250.874 210.125,252.207 210.5,253.5C 210.5,253.833 210.5,254.167 210.5,254.5C 208.817,255.661 206.984,256.661 205,257.5C 202.991,257.005 200.824,257.005 198.5,257.5C 197.233,255.961 196.233,254.294 195.5,252.5C 196.016,244.526 196.849,244.526 198,252.5C 198.497,250.19 198.663,247.857 198.5,245.5C 200.164,246.949 200.998,248.949 201,251.5C 201.186,249.1 201.686,246.766 202.5,244.5C 203.796,251.041 204.462,251.041 204.5,244.5C 205.5,244.5 206.5,244.5 207.5,244.5C 207.402,246.553 208.069,248.22 209.5,249.5 Z"/></g>
<g><path style="opacity:1" fill="#70522b" d="M 144.5,257.5 C 145.002,261.093 146.335,264.426 148.5,267.5C 141.02,268.738 134.353,271.905 128.5,277C 126.956,278.187 125.289,278.52 123.5,278C 130.5,273.667 137.5,269.333 144.5,265C 137.539,267.65 130.872,271.15 124.5,275.5C 123.914,275.291 123.414,274.957 123,274.5C 122.218,269.869 121.051,265.369 119.5,261C 126.155,259.002 132.822,257.002 139.5,255C 140.667,253.833 141.833,252.667 143,251.5C 143.191,253.708 143.691,255.708 144.5,257.5 Z"/></g>
<g><path style="opacity:1" fill="#959e75" d="M 195.5,252.5 C 195.5,253.833 195.5,255.167 195.5,256.5C 189.67,257.444 183.837,258.444 178,259.5C 175.322,257.916 172.989,258.249 171,260.5C 169.961,259.756 169.461,258.756 169.5,257.5C 178.329,256.474 186.996,254.807 195.5,252.5 Z"/></g>
<g><path style="opacity:1" fill="#000000" d="M 195.5,252.5 C 196.233,254.294 197.233,255.961 198.5,257.5C 194.985,258.919 191.319,259.586 187.5,259.5C 186.984,262.899 186.15,266.232 185,269.5C 184.163,271.007 182.996,271.507 181.5,271C 183.352,267.761 184.352,264.261 184.5,260.5C 182.345,260.372 180.345,260.872 178.5,262C 173.987,268.275 168.32,269.775 161.5,266.5C 159.334,264.163 157.334,261.663 155.5,259C 158.139,260.612 160.639,262.779 163,265.5C 162.954,263.687 163.12,262.021 163.5,260.5C 162.726,259.289 161.893,259.289 161,260.5C 160.517,259.552 160.351,258.552 160.5,257.5C 162.379,258.341 164.379,258.675 166.5,258.5C 167.209,257.596 168.209,257.263 169.5,257.5C 169.461,258.756 169.961,259.756 171,260.5C 172.989,258.249 175.322,257.916 178,259.5C 183.837,258.444 189.67,257.444 195.5,256.5C 195.5,255.167 195.5,253.833 195.5,252.5 Z"/></g>
<g><path style="opacity:1" fill="#114e0f" d="M 198.5,257.5 C 198.5,257.833 198.5,258.167 198.5,258.5C 198.859,260.371 199.859,261.871 201.5,263C 199.398,264.733 199.065,266.733 200.5,269C 196.991,271.358 193.324,273.358 189.5,275C 190.833,275.667 192.167,276.333 193.5,277C 194.833,277.667 194.833,278.333 193.5,279C 190.833,279 188.167,279 185.5,279C 188.643,283.444 192.143,287.611 196,291.5C 196.667,292.167 196.667,292.833 196,293.5C 190.543,288.863 184.709,284.863 178.5,281.5C 174.672,275.881 171.672,276.214 169.5,282.5C 167.255,283.635 164.922,284.135 162.5,284C 165.167,281.333 167.833,278.667 170.5,276C 174.063,275.16 177.397,273.826 180.5,272C 179.672,271.085 178.672,270.419 177.5,270C 162.548,266.125 151.881,270.958 145.5,284.5C 146.213,279.646 147.546,274.98 149.5,270.5C 153.71,269.456 157.71,268.123 161.5,266.5C 168.32,269.775 173.987,268.275 178.5,262C 180.345,260.872 182.345,260.372 184.5,260.5C 184.352,264.261 183.352,267.761 181.5,271C 182.996,271.507 184.163,271.007 185,269.5C 186.15,266.232 186.984,262.899 187.5,259.5C 191.319,259.586 194.985,258.919 198.5,257.5 Z"/></g>
<g><path style="opacity:1" fill="#c2c3c2" d="M 166.5,258.5 C 167.922,258.75 168.922,259.583 169.5,261C 168.906,261.464 168.239,261.631 167.5,261.5C 167.167,260.833 166.833,260.167 166.5,259.5C 166.5,259.167 166.5,258.833 166.5,258.5 Z"/></g>
<g><path style="opacity:1" fill="#1d831a" d="M 198.5,258.5 C 200.167,258.5 201.833,258.5 203.5,258.5C 208.773,275.797 212.44,293.463 214.5,311.5C 213.115,310.426 211.949,309.093 211,307.5C 210.259,300.463 209.259,293.463 208,286.5C 206.788,282.655 204.621,281.821 201.5,284C 203.461,287.421 205.294,290.921 207,294.5C 207.248,299.563 207.915,304.563 209,309.5C 210,311.833 211.667,313.5 214,314.5C 214.464,313.906 214.631,313.239 214.5,312.5C 215.598,313.601 215.765,314.934 215,316.5C 213.53,321.243 211.864,325.909 210,330.5C 206.621,344.92 202.954,359.253 199,373.5C 193.055,374.407 187.555,373.074 182.5,369.5C 184.194,362.722 186.194,356.056 188.5,349.5C 192.133,347.557 195.799,345.557 199.5,343.5C 201.998,341.538 202.998,339.205 202.5,336.5C 197.98,338.591 193.647,340.925 189.5,343.5C 188.85,341.565 188.517,339.565 188.5,337.5C 193.568,333.941 198.234,329.774 202.5,325C 197.262,327.374 191.929,329.874 186.5,332.5C 187.34,329.324 189.007,326.658 191.5,324.5C 195.469,322.849 199.135,320.682 202.5,318C 198.637,316.216 194.637,316.049 190.5,317.5C 191.476,316.185 192.476,314.852 193.5,313.5C 188.108,302.979 183.108,292.313 178.5,281.5C 184.709,284.863 190.543,288.863 196,293.5C 196.667,292.833 196.667,292.167 196,291.5C 192.143,287.611 188.643,283.444 185.5,279C 188.167,279 190.833,279 193.5,279C 194.833,278.333 194.833,277.667 193.5,277C 192.167,276.333 190.833,275.667 189.5,275C 193.324,273.358 196.991,271.358 200.5,269C 199.065,266.733 199.398,264.733 201.5,263C 199.859,261.871 198.859,260.371 198.5,258.5 Z"/></g>
<g><path style="opacity:1" fill="#114e0f" d="M 166.5,259.5 C 166.833,260.167 167.167,260.833 167.5,261.5C 166.791,262.404 165.791,262.737 164.5,262.5C 164.285,260.821 164.952,259.821 166.5,259.5 Z"/></g>
<g><path style="opacity:1" fill="#fec90d" d="M 173.5,259.5 C 176.786,260.696 176.786,262.529 173.5,265C 170.335,267.13 167.335,266.963 164.5,264.5C 168.259,264.048 171.259,262.381 173.5,259.5 Z"/></g>
<g><path style="opacity:1" fill="#1d831a" d="M 169.5,282.5 C 168.962,284.117 168.629,285.784 168.5,287.5C 164.252,290.004 162.085,293.671 162,298.5C 163.113,297.695 164.279,297.028 165.5,296.5C 165.567,297.959 165.234,299.292 164.5,300.5C 161.462,302.888 159.129,305.888 157.5,309.5C 158.625,311.794 159.959,311.794 161.5,309.5C 159.285,314.932 156.785,320.265 154,325.5C 152.871,327.141 151.371,328.141 149.5,328.5C 143.507,327.331 137.507,326.497 131.5,326C 135.394,328.446 139.394,330.612 143.5,332.5C 140.696,334.405 137.696,336.071 134.5,337.5C 122.789,330.951 121.122,332.618 129.5,342.5C 128.609,344.609 127.442,346.609 126,348.5C 120.243,346.548 116.41,342.714 114.5,337C 122.687,329.224 131.687,322.391 141.5,316.5C 143.163,305.876 144.497,295.209 145.5,284.5C 151.881,270.958 162.548,266.125 177.5,270C 178.672,270.419 179.672,271.085 180.5,272C 177.397,273.826 174.063,275.16 170.5,276C 167.833,278.667 165.167,281.333 162.5,284C 164.922,284.135 167.255,283.635 169.5,282.5 Z"/></g>
<g><path style="opacity:1" fill="#e3df04" d="M 145.5,270.5 C 146.376,270.369 147.043,270.702 147.5,271.5C 143.839,285.957 141.339,300.624 140,315.5C 131.027,321.639 122.194,327.973 113.5,334.5C 112.289,333.726 112.289,332.893 113.5,332C 121.244,326.045 129.077,320.212 137,314.5C 139.309,302.311 141.309,289.978 143,277.5C 143.847,275.146 144.68,272.812 145.5,270.5 Z"/></g>
<g><path style="opacity:1" fill="#fec90d" d="M 116.5,271.5 C 117.5,271.5 118.5,271.5 119.5,271.5C 119.714,273.144 119.38,274.644 118.5,276C 92.7019,282.916 92.0352,281.416 116.5,271.5 Z"/></g>
<g><path style="opacity:1" fill="#2ec928" d="M 214.5,311.5 C 214.5,311.833 214.5,312.167 214.5,312.5C 214.631,313.239 214.464,313.906 214,314.5C 211.667,313.5 210,311.833 209,309.5C 207.915,304.563 207.248,299.563 207,294.5C 205.294,290.921 203.461,287.421 201.5,284C 204.621,281.821 206.788,282.655 208,286.5C 209.259,293.463 210.259,300.463 211,307.5C 211.949,309.093 213.115,310.426 214.5,311.5 Z"/></g>
<g><path style="opacity:1" fill="#114e0f" d="M 168.5,287.5 C 167.698,290.574 166.698,293.574 165.5,296.5C 164.279,297.028 163.113,297.695 162,298.5C 162.085,293.671 164.252,290.004 168.5,287.5 Z"/></g>
<g><path style="opacity:1" fill="#114e0f" d="M 188.5,292.5 C 191.549,297.388 195.216,301.888 199.5,306C 197.064,306.436 195.064,305.603 193.5,303.5C 192.826,301.483 191.659,299.817 190,298.5C 189.187,296.564 188.687,294.564 188.5,292.5 Z"/></g>
<g><path style="opacity:1" fill="#114e0f" d="M 164.5,300.5 C 164.259,303.815 163.259,306.815 161.5,309.5C 159.959,311.794 158.625,311.794 157.5,309.5C 159.129,305.888 161.462,302.888 164.5,300.5 Z"/></g>
<g><path style="opacity:1" fill="#1d831a" d="M 133.5,309.5 C 134.5,309.5 135.5,309.5 136.5,309.5C 136.762,310.978 136.429,312.311 135.5,313.5C 127.217,319.115 119.217,325.115 111.5,331.5C 109.899,330.965 109.399,329.965 110,328.5C 112.076,325.412 114.909,323.579 118.5,323C 122.474,317.184 127.474,312.684 133.5,309.5 Z"/></g>
<g><path style="opacity:1" fill="#2ec928" d="M 194.5,309.5 C 197.598,310.216 200.264,311.716 202.5,314C 199.983,314.257 197.65,313.59 195.5,312C 194.748,311.329 194.414,310.496 194.5,309.5 Z"/></g>
<g><path style="opacity:1" fill="#114e0f" d="M 191.5,324.5 C 191.007,322.194 190.674,319.861 190.5,317.5C 194.637,316.049 198.637,316.216 202.5,318C 199.135,320.682 195.469,322.849 191.5,324.5 Z"/></g>
<g><path style="opacity:1" fill="#114e0f" d="M 188.5,337.5 C 188.167,337.5 187.833,337.5 187.5,337.5C 186.5,338.167 185.5,338.833 184.5,339.5C 184.166,336.812 184.832,334.479 186.5,332.5C 191.929,329.874 197.262,327.374 202.5,325C 198.234,329.774 193.568,333.941 188.5,337.5 Z"/></g>
<g><path style="opacity:1" fill="#114e0f" d="M 149.5,328.5 C 148.198,330.822 146.198,332.155 143.5,332.5C 139.394,330.612 135.394,328.446 131.5,326C 137.507,326.497 143.507,327.331 149.5,328.5 Z"/></g>
<g><path style="opacity:1" fill="#222840" d="M 108.5,332.5 C 111.225,336.268 113.725,340.268 116,344.5C 118.333,346.167 120.667,347.833 123,349.5C 123.334,351.847 123.167,354.181 122.5,356.5C 120.801,356.66 119.134,356.494 117.5,356C 114.979,353.78 112.812,351.28 111,348.5C 110.756,343.049 109.923,337.716 108.5,332.5 Z"/></g>
<g><path style="opacity:1" fill="#114e0f" d="M 134.5,337.5 C 133.167,339.5 131.5,341.167 129.5,342.5C 121.122,332.618 122.789,330.951 134.5,337.5 Z"/></g>
<g><path style="opacity:1" fill="#114e0f" d="M 188.5,349.5 C 189.15,347.565 189.483,345.565 189.5,343.5C 193.647,340.925 197.98,338.591 202.5,336.5C 202.998,339.205 201.998,341.538 199.5,343.5C 195.799,345.557 192.133,347.557 188.5,349.5 Z"/></g>
<g><path style="opacity:1" fill="#1b7e1a" d="M 187.5,337.5 C 187.443,339.884 187.777,342.218 188.5,344.5C 185.853,352.747 183.353,361.08 181,369.5C 179.701,368.91 178.868,367.91 178.5,366.5C 180.353,357.426 182.353,348.426 184.5,339.5C 185.5,338.833 186.5,338.167 187.5,337.5 Z"/></g>
<g><path style="opacity:1" fill="#131624" d="M 110.5,351.5 C 113.041,356.382 117.041,358.715 122.5,358.5C 123.331,362.476 123.497,366.476 123,370.5C 120.293,372.886 117.46,373.052 114.5,371C 109.477,365.354 108.144,358.854 110.5,351.5 Z"/></g>
<g><path style="opacity:1" fill="#222840" d="M 178.5,370.5 C 184.453,373.818 190.786,376.151 197.5,377.5C 199.041,379.204 200.375,381.037 201.5,383C 191.17,387.613 183.337,384.78 178,374.5C 177.421,373.072 177.588,371.738 178.5,370.5 Z"/></g>
<g><path style="opacity:1" fill="#131624" d="M 202.5,385.5 C 206.468,387.832 210.134,390.665 213.5,394C 205.765,397.459 198.099,397.126 190.5,393C 183.568,386.406 185.068,384.573 195,387.5C 197.866,387.7 200.366,387.033 202.5,385.5 Z"/></g>
</svg>
