<?xml version="1.0" encoding="UTF-8"?>
<!DOCTYPE svg PUBLIC "-//W3C//DTD SVG 1.1//EN" "http://www.w3.org/Graphics/SVG/1.1/DTD/svg11.dtd">
<svg xmlns="http://www.w3.org/2000/svg" version="1.1" width="430px" height="400px" style="shape-rendering:geometricPrecision; text-rendering:geometricPrecision; image-rendering:optimizeQuality; fill-rule:evenodd; clip-rule:evenodd" xmlns:xlink="http://www.w3.org/1999/xlink">
<g><path style="opacity:1" fill="#fefffe" d="M 239.5,25.5 C 246.508,25.3337 253.508,25.5004 260.5,26C 263,28.5 265.5,31 268,33.5C 269.064,37.7478 269.564,42.0811 269.5,46.5C 268.103,57.4258 267.27,68.4258 267,79.5C 266.727,81.1012 266.227,82.6012 265.5,84C 269.62,85.3136 273.62,86.8136 277.5,88.5C 288.499,87.2587 299.499,87.2587 310.5,88.5C 312.149,90.6499 313.982,92.6499 316,94.5C 318.012,99.1731 320.012,103.84 322,108.5C 322.79,114.552 322.624,120.552 321.5,126.5C 329.706,141.243 336.539,156.577 342,172.5C 342.499,177.823 342.666,183.156 342.5,188.5C 341.167,188.5 339.833,188.5 338.5,188.5C 338.543,193.083 336.543,196.417 332.5,198.5C 333.64,207.785 333.806,217.119 333,226.5C 330.78,236.027 329.78,245.694 330,255.5C 338.376,253.674 346.876,253.174 355.5,254C 357.377,256.251 358.877,258.751 360,261.5C 360.333,266.5 360.667,271.5 361,276.5C 361.133,279.525 362.133,282.192 364,284.5C 369.846,310.322 359.679,320.822 333.5,316C 332.62,314.644 332.286,313.144 332.5,311.5C 320.829,311.333 309.162,311.5 297.5,312C 283.353,315.339 269.019,316.339 254.5,315C 254,314.5 253.5,314 253,313.5C 253.306,315.823 253.972,318.156 255,320.5C 255.667,326.167 255.667,331.833 255,337.5C 234.691,351.867 212.191,357.034 187.5,353C 186.667,352.167 185.833,351.333 185,350.5C 184.091,344.388 184.424,338.388 186,332.5C 193.076,331.095 198.909,327.595 203.5,322C 202.584,321.626 201.75,321.126 201,320.5C 197.727,299.075 192.727,278.075 186,257.5C 185.172,253.534 184.672,249.534 184.5,245.5C 178.919,246.21 174.919,244.044 172.5,239C 162.139,238.567 153.306,234.734 146,227.5C 145.197,224.756 144.197,222.089 143,219.5C 128.953,209.218 114.12,200.052 98.5,192C 95.8899,189.005 94.5565,185.505 94.5,181.5C 93.448,181.649 92.448,181.483 91.5,181C 86.1667,176.667 80.8333,172.333 75.5,168C 73.5,167.667 71.5,167.333 69.5,167C 68.8333,164.333 68.1667,161.667 67.5,159C 64.3768,157.14 61.0434,155.807 57.5,155C 47.3333,145.5 37.1667,136 27,126.5C 21.017,117.733 18.8504,108.066 20.5,97.5C 25.8437,97.334 31.1771,97.5006 36.5,98C 54.7753,113.6 73.7753,127.934 93.5,141C 117.342,157.421 141.009,174.087 164.5,191C 168.167,191.333 171.833,191.667 175.5,192C 179.466,194.964 183.133,198.297 186.5,202C 193.177,202.453 199.844,202.953 206.5,203.5C 210.605,193.347 213.605,182.847 215.5,172C 213.491,168.337 211.658,164.503 210,160.5C 209.333,152.833 209.333,145.167 210,137.5C 211.626,135.083 213.126,132.583 214.5,130C 212.17,125.857 210.837,121.357 210.5,116.5C 209.5,116.5 208.5,116.5 207.5,116.5C 207.5,111.5 207.5,106.5 207.5,101.5C 201.053,101.551 198.386,98.3841 199.5,92C 198.142,86.6679 200.142,83.5012 205.5,82.5C 208.776,71.0725 210.609,59.4059 211,47.5C 212.339,44.9057 214.506,43.4057 217.5,43C 223.491,42.5005 229.491,42.3338 235.5,42.5C 234.682,36.2403 236.015,30.5736 239.5,25.5 Z M 250.5,311.5 C 249.206,310.71 248.039,309.71 247,308.5C 246.667,302.5 246.333,296.5 246,290.5C 243.607,288.381 242.274,285.715 242,282.5C 241.501,278.848 241.335,275.182 241.5,271.5C 243.5,271.5 245.5,271.5 247.5,271.5C 247.984,284.896 248.984,298.229 250.5,311.5 Z"/></g>
<g><path style="opacity:1" fill="#010101" d="M 243.5,29.5 C 247.846,29.3343 252.179,29.501 256.5,30C 260.119,32.9436 262.953,36.4436 265,40.5C 264.17,52.1003 263.503,63.7669 263,75.5C 261.843,79.7823 261.01,84.1157 260.5,88.5C 264.539,87.6597 267.539,88.993 269.5,92.5C 270.5,92.8333 271.5,93.1667 272.5,93.5C 283.796,91.5809 295.13,91.2476 306.5,92.5C 308.149,94.6499 309.982,96.6499 312,98.5C 312.721,102.342 314.387,105.676 317,108.5C 318.363,112.761 318.696,117.095 318,121.5C 316.833,122.667 315.667,123.833 314.5,125C 323.832,141.496 331.665,158.662 338,176.5C 338.497,179.146 338.664,181.813 338.5,184.5C 337.167,184.5 335.833,184.5 334.5,184.5C 334.747,187.505 333.747,190.005 331.5,192C 327.451,194.002 323.451,196.002 319.5,198C 323.164,199.002 326.331,200.836 329,203.5C 329.667,209.833 329.667,216.167 329,222.5C 326.827,236.061 325.16,249.728 324,263.5C 321.181,265.669 318.014,267.169 314.5,268C 316.167,268.667 317.833,268.667 319.5,268C 323.046,266.483 326.712,265.15 330.5,264C 331.833,262.333 333.167,260.667 334.5,259C 340.141,257.928 345.807,257.595 351.5,258C 353.377,260.251 354.877,262.751 356,265.5C 356.333,270.5 356.667,275.5 357,280.5C 357.133,283.525 358.133,286.192 360,288.5C 363.165,306.338 355.665,314.171 337.5,312C 336.167,308.333 336.167,304.667 337.5,301C 335.667,299.167 333.833,297.333 332,295.5C 330.768,299.498 329.602,303.498 328.5,307.5C 316.829,307.333 305.162,307.5 293.5,308C 282.03,311.213 270.363,312.213 258.5,311C 256.622,309.457 255.122,307.624 254,305.5C 252.871,292.516 252.038,279.516 251.5,266.5C 246.851,267.065 242.184,267.565 237.5,268C 236.892,269.231 236.559,270.564 236.5,272C 237.12,276.82 237.62,281.653 238,286.5C 238.274,289.715 239.607,292.381 242,294.5C 242.806,300.084 242.639,305.584 241.5,311C 256.15,323.956 254.817,334.289 237.5,342C 222.853,349.108 207.52,351.442 191.5,349C 188.098,345.281 187.598,341.114 190,336.5C 194.224,334.74 198.391,332.906 202.5,331C 205.833,327.667 209.167,324.333 212.5,321C 210.244,319.132 207.744,317.632 205,316.5C 201.727,295.075 196.727,274.075 190,253.5C 189.172,249.534 188.672,245.534 188.5,241.5C 182.919,242.21 178.919,240.044 176.5,235C 166.139,234.567 157.306,230.734 150,223.5C 149.197,220.756 148.197,218.089 147,215.5C 132.953,205.218 118.12,196.052 102.5,188C 99.8899,185.005 98.5565,181.505 98.5,177.5C 97.448,177.649 96.448,177.483 95.5,177C 90.1667,172.667 84.8333,168.333 79.5,164C 77.5,163.667 75.5,163.333 73.5,163C 72.8333,160.333 72.1667,157.667 71.5,155C 68.3768,153.14 65.0434,151.807 61.5,151C 51.3333,141.5 41.1667,132 31,122.5C 26.4906,116.167 24.324,109.167 24.5,101.5C 27.1873,101.336 29.854,101.503 32.5,102C 50.7753,117.6 69.7753,131.934 89.5,145C 113.342,161.421 137.009,178.087 160.5,195C 164.167,195.333 167.833,195.667 171.5,196C 175.466,198.964 179.133,202.297 182.5,206C 191.056,206.385 199.556,207.218 208,208.5C 208.772,208.355 209.439,208.022 210,207.5C 216.544,194.216 219.544,180.216 219,165.5C 211.508,154.378 211.675,143.378 219.5,132.5C 220.665,131.416 221.998,130.583 223.5,130C 217.186,126.009 214.186,120.175 214.5,112.5C 213.5,112.5 212.5,112.5 211.5,112.5C 211.678,109.678 212.345,107.011 213.5,104.5C 212.818,102.159 212.151,99.8257 211.5,97.5C 205.144,97.6634 202.811,94.83 204.5,89C 207.21,87.9848 209.543,86.4848 211.5,84.5C 210.978,83.3926 210.645,82.2259 210.5,81C 213.304,71.3758 214.804,61.5425 215,51.5C 216.339,48.9057 218.506,47.4057 221.5,47C 227.957,46.6441 234.29,46.4774 240.5,46.5C 238.669,40.2943 239.669,34.6277 243.5,29.5 Z M 250.5,311.5 C 248.984,298.229 247.984,284.896 247.5,271.5C 245.5,271.5 243.5,271.5 241.5,271.5C 241.335,275.182 241.501,278.848 242,282.5C 242.274,285.715 243.607,288.381 246,290.5C 246.333,296.5 246.667,302.5 247,308.5C 248.039,309.71 249.206,310.71 250.5,311.5 Z"/></g>
<g><path style="opacity:1" fill="#0a5804" d="M 252.5,36.5 C 252.53,37.4972 252.03,38.1639 251,38.5C 249.31,37.8505 247.477,37.8505 245.5,38.5C 247.217,34.4714 249.55,33.8048 252.5,36.5 Z"/></g>
<g><path style="opacity:1" fill="#109209" d="M 252.5,36.5 C 256.28,38.9464 258.947,42.2798 260.5,46.5C 258.841,53.3858 258.174,60.3858 258.5,67.5C 252.502,64.5169 249.836,59.5169 250.5,52.5C 252.746,51.7904 255.08,51.2904 257.5,51C 254.474,49.8175 251.474,48.6508 248.5,47.5C 246.747,44.8539 245.747,41.8539 245.5,38.5C 247.477,37.8505 249.31,37.8505 251,38.5C 252.03,38.1639 252.53,37.4972 252.5,36.5 Z"/></g>
<g><path style="opacity:1" fill="#0a5804" d="M 248.5,47.5 C 251.474,48.6508 254.474,49.8175 257.5,51C 255.08,51.2904 252.746,51.7904 250.5,52.5C 249.559,50.9505 248.893,49.2838 248.5,47.5 Z"/></g>
<g><path style="opacity:1" fill="#fec90d" d="M 224.5,58.5 C 225.158,59.3984 225.824,60.3984 226.5,61.5C 227.396,60.4937 228.062,60.4937 228.5,61.5C 227.807,62.5178 227.141,63.5178 226.5,64.5C 225.522,64.811 224.855,65.4777 224.5,66.5C 226.898,69.5712 228.898,72.9046 230.5,76.5C 227.873,81.7449 224.039,83.0782 219,80.5C 218.5,79 218,77.5 217.5,76C 219.5,72.3333 221.5,68.6667 223.5,65C 223.05,63.7147 222.383,62.548 221.5,61.5C 222.77,60.7124 223.77,59.7124 224.5,58.5 Z"/></g>
<g><path style="opacity:1" fill="#109209" d="M 251.5,65.5 C 252.434,66.5676 252.768,67.901 252.5,69.5C 251.448,69.6495 250.448,69.4828 249.5,69C 250.823,68.1841 251.489,67.0174 251.5,65.5 Z"/></g>
<g><path style="opacity:1" fill="#292929" d="M 251.5,65.5 C 251.489,67.0174 250.823,68.1841 249.5,69C 250.448,69.4828 251.448,69.6495 252.5,69.5C 254.446,68.8012 256.446,69.1345 258.5,70.5C 255.867,78.963 254.534,87.6297 254.5,96.5C 252.143,96.6633 249.81,96.4966 247.5,96C 241.783,93.3136 235.95,90.8136 230,88.5C 229.5,88.6667 229,88.8333 228.5,89C 232.5,90.6667 236.5,92.3333 240.5,94C 229.5,94.6667 218.5,94.6667 207.5,94C 204.833,92.6667 204.833,91.3333 207.5,90C 211.188,88.4873 214.855,86.9873 218.5,85.5C 220.055,86.6327 221.889,87.2994 224,87.5C 227.677,87.0285 231.177,86.3618 234.5,85.5C 234.715,83.8212 234.048,82.8212 232.5,82.5C 231.448,82.6495 230.448,82.4828 229.5,82C 231.152,80.53 232.152,78.6967 232.5,76.5C 230.886,72.2442 228.886,68.2442 226.5,64.5C 227.141,63.5178 227.807,62.5178 228.5,61.5C 228.062,60.4937 227.396,60.4937 226.5,61.5C 225.824,60.3984 225.158,59.3984 224.5,58.5C 222.287,58.848 220.287,59.6813 218.5,61C 220.032,61.6995 221.032,62.8662 221.5,64.5C 217.979,69.2292 216.146,74.5626 216,80.5C 214.842,80.0019 214.009,79.1685 213.5,78C 215.134,70.8307 216.634,63.664 218,56.5C 220.438,51.772 224.438,49.4387 230,49.5C 240.803,50.1572 247.97,55.4905 251.5,65.5 Z"/></g>
<g><path style="opacity:1" fill="#109209" d="M 248.5,70.5 C 251.548,70.494 252.048,71.494 250,73.5C 248.961,72.7562 248.461,71.7562 248.5,70.5 Z"/></g>
<g><path style="opacity:1" fill="#109209" d="M 246.5,72.5 C 249.428,73.637 249.762,74.9704 247.5,76.5C 245.358,75.5629 245.024,74.2296 246.5,72.5 Z"/></g>
<g><path style="opacity:1" fill="#109209" d="M 243.5,75.5 C 246.81,76.8712 246.977,78.2045 244,79.5C 242.232,78.3181 242.065,76.9848 243.5,75.5 Z"/></g>
<g><path style="opacity:1" fill="#109209" d="M 239.5,78.5 C 243.075,79.2068 243.242,80.2068 240,81.5C 238.317,80.8235 238.15,79.8235 239.5,78.5 Z"/></g>
<g><path style="opacity:1" fill="#109209" d="M 212.5,80.5 C 214.225,80.8425 214.725,81.8425 214,83.5C 212.961,82.7562 212.461,81.7562 212.5,80.5 Z"/></g>
<g><path style="opacity:1" fill="#109209" d="M 235.5,81.5 C 239.051,82.1855 239.217,83.1855 236,84.5C 235.517,83.552 235.351,82.552 235.5,81.5 Z"/></g>
<g><path style="opacity:1" fill="#109209" d="M 218.5,85.5 C 217.438,84.4246 217.438,83.4246 218.5,82.5C 219.776,83.6136 219.776,84.6136 218.5,85.5 Z"/></g>
<g><path style="opacity:1" fill="#109209" d="M 232.5,82.5 C 234.048,82.8212 234.715,83.8212 234.5,85.5C 231.752,85.5983 231.086,84.5983 232.5,82.5 Z"/></g>
<g><path style="opacity:1" fill="#109209" d="M 222.5,83.5 C 223.5,83.5 224.5,83.5 225.5,83.5C 225.5,84.5 225.5,85.5 225.5,86.5C 224.5,86.5 223.5,86.5 222.5,86.5C 222.5,85.5 222.5,84.5 222.5,83.5 Z"/></g>
<g><path style="opacity:1" fill="#109209" d="M 228.5,83.5 C 230.337,83.6395 230.67,84.3061 229.5,85.5C 228.702,85.0431 228.369,84.3764 228.5,83.5 Z"/></g>
<g><path style="opacity:1" fill="#d6d7d6" d="M 262.5,103.5 C 256.93,100.449 256.597,97.1155 261.5,93.5C 266.19,96.5225 266.524,99.8558 262.5,103.5 Z"/></g>
<g><path style="opacity:1" fill="#fefffe" d="M 218.5,96.5 C 218.5,98.5 217.5,99.5 215.5,99.5C 216.598,98.603 216.598,97.7697 215.5,97C 216.448,96.5172 217.448,96.3505 218.5,96.5 Z"/></g>
<g><path style="opacity:1" fill="#f0a17f" d="M 222.5,99.5 C 226.785,101.167 230.452,100.167 233.5,96.5C 235.167,96.5 236.833,96.5 238.5,96.5C 238.263,97.791 238.596,98.791 239.5,99.5C 239.38,101.734 239.713,103.901 240.5,106C 239.43,107.709 238.097,109.209 236.5,110.5C 239.176,113.021 242.01,113.021 245,110.5C 245.944,106.232 247.444,102.232 249.5,98.5C 250.833,98.5 252.167,98.5 253.5,98.5C 253.993,100.806 254.326,103.139 254.5,105.5C 251.997,107.833 249.331,109.999 246.5,112C 248.644,112.792 249.977,114.292 250.5,116.5C 248.37,119.737 245.37,121.737 241.5,122.5C 240.778,122.082 240.278,121.416 240,120.5C 239.59,121.901 239.09,123.234 238.5,124.5C 236.786,125.738 234.786,126.405 232.5,126.5C 226.838,128.845 222.004,127.845 218,123.5C 217.333,122.5 217.333,121.5 218,120.5C 220.166,118.879 222.666,118.045 225.5,118C 222.331,117.022 219.497,117.522 217,119.5C 216.338,117.187 215.838,114.854 215.5,112.5C 218.119,112.768 220.619,112.435 223,111.5C 223.667,110.833 223.667,110.167 223,109.5C 219.77,111.691 216.27,112.024 212.5,110.5C 217.011,106.814 220.011,102.147 221.5,96.5C 221.517,97.3937 221.851,98.3937 222.5,99.5 Z"/></g>
<g><path style="opacity:1" fill="#f7763e" d="M 228.5,96.5 C 230.167,96.5 231.833,96.5 233.5,96.5C 230.452,100.167 226.785,101.167 222.5,99.5C 223.167,99.5 223.833,99.5 224.5,99.5C 226.973,99.9118 228.306,98.9118 228.5,96.5 Z"/></g>
<g><path style="opacity:1" fill="#fefffe" d="M 228.5,96.5 C 228.306,98.9118 226.973,99.9118 224.5,99.5C 225.598,98.603 225.598,97.7697 224.5,97C 225.793,96.51 227.127,96.3433 228.5,96.5 Z"/></g>
<g><path style="opacity:1" fill="#4a2f20" d="M 249.5,98.5 C 247.444,102.232 245.944,106.232 245,110.5C 242.01,113.021 239.176,113.021 236.5,110.5C 238.097,109.209 239.43,107.709 240.5,106C 239.713,103.901 239.38,101.734 239.5,99.5C 239.5,98.5 239.5,97.5 239.5,96.5C 243.16,96.1588 246.493,96.8255 249.5,98.5 Z"/></g>
<g><path style="opacity:1" fill="#000000" d="M 261.5,97.5 C 261.56,96.9569 261.893,96.6236 262.5,96.5C 263.429,97.6888 263.762,99.0222 263.5,100.5C 260.203,100.671 259.869,100.005 262.5,98.5C 262.376,97.8933 262.043,97.56 261.5,97.5 Z"/></g>
<g><path style="opacity:1" fill="#2d2d2d" d="M 289.5,107.5 C 288.833,107.5 288.5,107.167 288.5,106.5C 286.577,104.712 285.911,102.712 286.5,100.5C 287.313,99.1861 288.313,98.0195 289.5,97C 296.723,94.8951 302.556,96.7285 307,102.5C 307.721,106.342 309.387,109.676 312,112.5C 312.273,114.101 312.773,115.601 313.5,117C 312.333,118.167 311.167,119.333 310,120.5C 308.998,116.836 307.164,113.669 304.5,111C 300.563,109.356 296.73,107.523 293,105.5C 292.29,106.973 291.124,107.64 289.5,107.5 Z"/></g>
<g><path style="opacity:1" fill="#c7c7c7" d="M 283.5,106.5 C 282.486,107.674 281.153,108.34 279.5,108.5C 277.983,108.489 276.816,107.823 276,106.5C 275.505,104.527 275.338,102.527 275.5,100.5C 276.885,99.3862 278.385,98.3862 280,97.5C 283.974,99.5764 285.14,102.576 283.5,106.5 Z"/></g>
<g><path style="opacity:1" fill="#fa9a71" d="M 218.5,96.5 C 219.161,99.9012 217.995,102.901 215,105.5C 214.211,103.288 214.378,101.288 215.5,99.5C 217.5,99.5 218.5,98.5 218.5,96.5 Z"/></g>
<g><path style="opacity:1" fill="#000000" d="M 279.5,100.5 C 282.956,101.536 283.29,103.203 280.5,105.5C 278.296,104.218 277.962,102.551 279.5,100.5 Z"/></g>
<g><path style="opacity:1" fill="#000000" d="M 250.5,101.5 C 251.94,103.42 251.607,105.087 249.5,106.5C 248.316,104.533 248.649,102.866 250.5,101.5 Z"/></g>
<g><path style="opacity:1" fill="#d6d7d6" d="M 260.5,105.5 C 258.75,106.659 257.75,108.326 257.5,110.5C 256.778,110.918 256.278,111.584 256,112.5C 255.51,111.207 255.343,109.873 255.5,108.5C 256.375,106.432 257.541,104.432 259,102.5C 259.513,103.527 260.013,104.527 260.5,105.5 Z"/></g>
<g><path style="opacity:1" fill="#454545" d="M 275.5,100.5 C 275.338,102.527 275.505,104.527 276,106.5C 276.816,107.823 277.983,108.489 279.5,108.5C 277.193,109.977 275.36,111.977 274,114.5C 273.501,118.152 273.335,121.818 273.5,125.5C 273.44,126.043 273.107,126.376 272.5,126.5C 269.914,124.957 267.414,123.291 265,121.5C 262.615,123.539 260.448,123.539 258.5,121.5C 257.511,117.893 257.177,114.226 257.5,110.5C 257.75,108.326 258.75,106.659 260.5,105.5C 261.5,105.167 262.167,104.5 262.5,103.5C 265.297,103.033 266.631,101.367 266.5,98.5C 269.727,98.6761 272.727,99.3428 275.5,100.5 Z"/></g>
<g><path style="opacity:1" fill="#432b1e" d="M 254.5,105.5 C 255.404,106.209 255.737,107.209 255.5,108.5C 254.767,110.294 253.767,111.961 252.5,113.5C 252.068,114.71 251.401,115.71 250.5,116.5C 249.977,114.292 248.644,112.792 246.5,112C 249.331,109.999 251.997,107.833 254.5,105.5 Z"/></g>
<g><path style="opacity:1" fill="#d6d7d6" d="M 283.5,106.5 C 285.167,106.5 286.833,106.5 288.5,106.5C 288.5,107.167 288.833,107.5 289.5,107.5C 289.5,107.833 289.5,108.167 289.5,108.5C 283.76,108.694 279.76,111.361 277.5,116.5C 276.675,120.647 276.175,124.981 276,129.5C 275.066,128.142 274.232,126.808 273.5,125.5C 273.335,121.818 273.501,118.152 274,114.5C 275.36,111.977 277.193,109.977 279.5,108.5C 281.153,108.34 282.486,107.674 283.5,106.5 Z"/></g>
<g><path style="opacity:1" fill="#424242" d="M 289.5,108.5 C 293.737,108.969 297.737,110.136 301.5,112C 299.167,112.333 296.833,112.667 294.5,113C 307.587,113.267 311.254,119.267 305.5,131C 300.747,133.458 296.247,136.292 292,139.5C 288.614,139.288 285.114,138.455 281.5,137C 280.213,135.59 279.046,134.09 278,132.5C 277.835,127.015 277.669,121.682 277.5,116.5C 279.76,111.361 283.76,108.694 289.5,108.5 Z"/></g>
<g><path style="opacity:1" fill="#c2c3c2" d="M 32.5,110.5 C 47.0541,122.551 62.0541,134.051 77.5,145C 76.2748,146.563 74.7748,147.73 73,148.5C 70.7522,147.045 68.2522,146.212 65.5,146C 55.6667,136.833 45.8333,127.667 36,118.5C 34.5462,115.929 33.3795,113.262 32.5,110.5 Z"/></g>
<g><path style="opacity:1" fill="#fefffe" d="M 252.5,113.5 C 253.5,113.5 254.5,113.5 255.5,113.5C 255.608,115.514 254.942,117.18 253.5,118.5C 247.149,123.508 240.149,127.175 232.5,129.5C 231.252,130.334 230.585,131.667 230.5,133.5C 230.833,134.833 231.167,136.167 231.5,137.5C 232.107,137.376 232.44,137.043 232.5,136.5C 235.397,135.871 238.064,134.871 240.5,133.5C 241.338,133.842 241.672,134.508 241.5,135.5C 232.05,143.248 227.55,140.915 228,128.5C 229.622,127.901 231.122,127.234 232.5,126.5C 234.786,126.405 236.786,125.738 238.5,124.5C 240.027,124.573 241.027,123.906 241.5,122.5C 245.37,121.737 248.37,119.737 250.5,116.5C 251.401,115.71 252.068,114.71 252.5,113.5 Z"/></g>
<g><path style="opacity:1" fill="#2d2f95" d="M 253.5,118.5 C 255.847,119.607 256.18,121.274 254.5,123.5C 252.14,125.853 249.473,127.853 246.5,129.5C 245.29,129.932 244.29,130.599 243.5,131.5C 243.5,132.167 243.167,132.5 242.5,132.5C 241.508,132.328 240.842,132.662 240.5,133.5C 238.064,134.871 235.397,135.871 232.5,136.5C 231.244,134.274 231.244,131.941 232.5,129.5C 240.149,127.175 247.149,123.508 253.5,118.5 Z"/></g>
<g><path style="opacity:1" fill="#000000" d="M 241.5,122.5 C 241.027,123.906 240.027,124.573 238.5,124.5C 239.09,123.234 239.59,121.901 240,120.5C 240.278,121.416 240.778,122.082 241.5,122.5 Z"/></g>
<g><path style="opacity:1" fill="#fefffe" d="M 254.5,123.5 C 257.166,123.066 258.333,124.066 258,126.5C 255.643,129.091 252.809,130.758 249.5,131.5C 248.5,130.833 247.5,130.167 246.5,129.5C 249.473,127.853 252.14,125.853 254.5,123.5 Z"/></g>
<g><path style="opacity:1" fill="#910c11" d="M 257.5,132.5 C 256.761,132.631 256.094,132.464 255.5,132C 258.401,127.735 261.734,127.401 265.5,131C 262.635,131.183 259.969,131.683 257.5,132.5 Z"/></g>
<g><path style="opacity:1" fill="#000000" d="M 232.5,129.5 C 231.244,131.941 231.244,134.274 232.5,136.5C 232.44,137.043 232.107,137.376 231.5,137.5C 231.167,136.167 230.833,134.833 230.5,133.5C 230.585,131.667 231.252,130.334 232.5,129.5 Z"/></g>
<g><path style="opacity:1" fill="#000000" d="M 246.5,129.5 C 247.5,130.167 248.5,130.833 249.5,131.5C 247.5,131.5 245.5,131.5 243.5,131.5C 244.29,130.599 245.29,129.932 246.5,129.5 Z"/></g>
<g><path style="opacity:1" fill="#2b2b2b" d="M 307.5,162.5 C 312,162.836 313.833,160.836 313,156.5C 310.506,153.914 308.006,153.914 305.5,156.5C 304.883,156.611 304.383,156.944 304,157.5C 301.61,151.201 298.11,145.701 293.5,141C 299.085,137.625 304.585,134.125 310,130.5C 314.588,138.676 318.922,147.009 323,155.5C 326.273,163.95 324.106,170.617 316.5,175.5C 310.654,172.723 307.654,168.39 307.5,162.5 Z"/></g>
<g><path style="opacity:1" fill="#eeeeee" d="M 243.5,131.5 C 245.5,131.5 247.5,131.5 249.5,131.5C 250.972,133.134 252.638,134.634 254.5,136C 251.639,134.826 248.639,134.159 245.5,134C 243.808,135.401 243.141,137.234 243.5,139.5C 243.167,139.5 242.833,139.5 242.5,139.5C 241.662,139.158 241.328,138.492 241.5,137.5C 241.5,136.833 241.5,136.167 241.5,135.5C 242.404,134.791 242.737,133.791 242.5,132.5C 243.167,132.5 243.5,132.167 243.5,131.5 Z"/></g>
<g><path style="opacity:1" fill="#000000" d="M 240.5,133.5 C 240.842,132.662 241.508,132.328 242.5,132.5C 242.737,133.791 242.404,134.791 241.5,135.5C 241.672,134.508 241.338,133.842 240.5,133.5 Z"/></g>
<g><path style="opacity:1" fill="#323bc8" d="M 244.5,139.5 C 245.169,134.168 247.502,133.335 251.5,137C 249.855,140.169 247.521,141.003 244.5,139.5 Z"/></g>
<g><path style="opacity:1" fill="#fcfcfc" d="M 257.5,132.5 C 261.182,132.335 264.848,132.501 268.5,133C 265.167,133.333 261.833,133.667 258.5,134C 262.833,134.333 267.167,134.667 271.5,135C 273.792,136.29 275.792,137.957 277.5,140C 269.312,137.858 261.312,138.358 253.5,141.5C 251.596,141.738 250.262,142.738 249.5,144.5C 248.503,144.53 247.836,144.03 247.5,143C 250.006,139.495 253.339,137.162 257.5,136C 255.069,134.908 255.069,133.741 257.5,132.5 Z"/></g>
<g><path style="opacity:1" fill="#fefffe" d="M 222.5,156.5 C 221.352,151.483 221.352,146.483 222.5,141.5C 223.41,139.981 224.243,138.315 225,136.5C 225.654,135.304 226.154,135.304 226.5,136.5C 225.208,138.667 224.375,141 224,143.5C 223.616,149.194 223.616,154.86 224,160.5C 223.79,158.942 223.29,157.609 222.5,156.5 Z"/></g>
<g><path style="opacity:1" fill="#ec1c23" d="M 241.5,137.5 C 241.328,138.492 241.662,139.158 242.5,139.5C 241.946,143.055 239.946,145.388 236.5,146.5C 235.486,145.326 234.153,144.66 232.5,144.5C 231.909,143.849 231.243,143.182 230.5,142.5C 234.57,141.63 238.237,139.963 241.5,137.5 Z"/></g>
<g><path style="opacity:1" fill="#fefffe" d="M 227.5,138.5 C 228.33,146.99 228.83,155.657 229,164.5C 231.342,172.184 235.009,179.184 240,185.5C 240.738,188.212 240.071,190.545 238,192.5C 233.576,183.315 229.409,173.982 225.5,164.5C 226.241,160.058 226.241,155.558 225.5,151C 225.483,146.704 226.149,142.537 227.5,138.5 Z"/></g>
<g><path style="opacity:1" fill="#b0b0b0" d="M 222.5,141.5 C 221.352,146.483 221.352,151.483 222.5,156.5C 222.649,157.552 222.483,158.552 222,159.5C 217.411,152.765 217.411,146.098 222,139.5C 222.464,140.094 222.631,140.761 222.5,141.5 Z"/></g>
<g><path style="opacity:1" fill="#fefffe" d="M 243.5,139.5 C 243.833,139.5 244.167,139.5 244.5,139.5C 245.141,140.482 245.807,141.482 246.5,142.5C 244.117,143.462 243.117,142.462 243.5,139.5 Z"/></g>
<g><path style="opacity:1" fill="#fefffe" d="M 277.5,145.5 C 277.082,144.778 276.416,144.278 275.5,144C 270.446,143.219 265.446,143.386 260.5,144.5C 259.713,143.758 259.047,142.925 258.5,142C 265.192,140.321 271.859,140.321 278.5,142C 284.03,145.942 283.697,147.109 277.5,145.5 Z"/></g>
<g><path style="opacity:1" fill="#000000" d="M 69.5,141.5 C 70.525,141.897 70.6917,142.563 70,143.5C 69.1627,145.007 67.9961,145.507 66.5,145C 67.7101,143.961 68.7101,142.794 69.5,141.5 Z"/></g>
<g><path style="opacity:1" fill="#2f33a5" d="M 253.5,141.5 C 256.358,145.222 255.192,147.222 250,147.5C 249.517,146.552 249.351,145.552 249.5,144.5C 250.262,142.738 251.596,141.738 253.5,141.5 Z"/></g>
<g><path style="opacity:1" fill="#fefffe" d="M 255.5,141.5 C 258.087,142.307 258.587,143.641 257,145.5C 256.209,144.255 255.709,142.922 255.5,141.5 Z"/></g>
<g><path style="opacity:1" fill="#fefffe" d="M 232.5,144.5 C 234.153,144.66 235.486,145.326 236.5,146.5C 236.5,148.5 235.5,149.5 233.5,149.5C 232.508,149.672 231.842,149.338 231.5,148.5C 229.825,146.544 230.158,145.211 232.5,144.5 Z"/></g>
<g><path style="opacity:1" fill="#fefffe" d="M 242.5,144.5 C 243.675,144.281 244.675,144.614 245.5,145.5C 240.025,154.113 236.525,163.446 235,173.5C 234.085,172.672 233.419,171.672 233,170.5C 232.333,166.5 232.333,162.5 233,158.5C 235.435,153.285 238.601,148.618 242.5,144.5 Z"/></g>
<g><path style="opacity:1" fill="#ec1c23" d="M 277.5,145.5 C 279.598,146.935 281.931,148.102 284.5,149C 289.889,156.337 293.223,164.503 294.5,173.5C 290.987,175.422 287.321,177.088 283.5,178.5C 286.171,173.146 287.004,167.48 286,161.5C 282.539,154.712 277.706,149.212 271.5,145C 273.488,144.82 275.488,144.986 277.5,145.5 Z"/></g>
<g><path style="opacity:1" fill="#c2c3c2" d="M 83.5,153.5 C 80.4074,152.896 77.7407,151.396 75.5,149C 78.9894,144.68 82.3227,145.013 85.5,150C 84.1772,150.816 83.5106,151.983 83.5,153.5 Z"/></g>
<g><path style="opacity:1" fill="#fefffe" d="M 248.5,151.5 C 248.489,149.983 247.823,148.816 246.5,148C 247.874,144.59 248.541,144.757 248.5,148.5C 252.06,148.717 252.06,149.717 248.5,151.5 Z"/></g>
<g><path style="opacity:1" fill="#fbfbfb" d="M 274.5,151.5 C 273.486,150.326 272.153,149.66 270.5,149.5C 266.5,148.167 262.5,148.167 258.5,149.5C 256.973,149.427 255.973,150.094 255.5,151.5C 253.973,151.427 252.973,152.094 252.5,153.5C 251.711,153.783 251.044,154.283 250.5,155C 251.337,156.011 251.67,157.178 251.5,158.5C 250.662,158.842 250.328,159.508 250.5,160.5C 249.503,160.53 248.836,160.03 248.5,159C 250.841,149.61 257.175,145.277 267.5,146C 269.949,146.725 272.283,147.725 274.5,149C 275.774,149.977 275.774,150.811 274.5,151.5 Z"/></g>
<g><path style="opacity:1" fill="#ec1c23" d="M 231.5,148.5 C 231.842,149.338 232.508,149.672 233.5,149.5C 235.129,151.196 234.796,152.196 232.5,152.5C 231.722,151.844 231.056,151.011 230.5,150C 230.57,149.235 230.903,148.735 231.5,148.5 Z"/></g>
<g><path style="opacity:1" fill="#000000" d="M 258.5,149.5 C 262.5,148.167 266.5,148.167 270.5,149.5C 269.776,151.218 269.109,153.052 268.5,155C 264.834,156.271 262.334,155.104 261,151.5C 259.28,158.475 256.446,159.142 252.5,153.5C 252.973,152.094 253.973,151.427 255.5,151.5C 254.243,153.368 254.576,155.035 256.5,156.5C 257.919,155.995 258.585,154.995 258.5,153.5C 259.833,152.167 259.833,150.833 258.5,149.5 Z"/></g>
<g><path style="opacity:1" fill="#2c2d2c" d="M 295.5,148.5 C 297.223,150.253 298.723,152.253 300,154.5C 302.404,162.478 306.238,169.645 311.5,176C 314.03,177.422 316.697,177.755 319.5,177C 321.333,175.167 323.167,173.333 325,171.5C 332.862,183.778 329.696,190.112 315.5,190.5C 307.234,177.299 300.567,163.299 295.5,148.5 Z"/></g>
<g><path style="opacity:1" fill="#fefffe" d="M 245.5,152.5 C 243.183,159.164 242.016,166.164 242,173.5C 240.685,165.173 241.685,157.173 245,149.5C 245.483,150.448 245.649,151.448 245.5,152.5 Z"/></g>
<g><path style="opacity:1" fill="#000000" d="M 258.5,149.5 C 257.167,150.833 257.167,152.167 258.5,153.5C 257.222,153.218 256.222,152.551 255.5,151.5C 255.973,150.094 256.973,149.427 258.5,149.5 Z"/></g>
<g><path style="opacity:1" fill="#fefffe" d="M 258.5,149.5 C 259.833,150.833 259.833,152.167 258.5,153.5C 257.167,152.167 257.167,150.833 258.5,149.5 Z"/></g>
<g><path style="opacity:1" fill="#fefffe" d="M 261.5,150.5 C 262.209,149.596 263.209,149.263 264.5,149.5C 265.004,153.335 266.004,153.335 267.5,149.5C 269.265,153.014 268.265,154.514 264.5,154C 263.364,152.855 262.364,151.688 261.5,150.5 Z"/></g>
<g><path style="opacity:1" fill="#3036b0" d="M 270.5,149.5 C 272.153,149.66 273.486,150.326 274.5,151.5C 273.624,151.369 272.957,151.702 272.5,152.5C 273.193,153.518 273.859,154.518 274.5,155.5C 262.978,155.942 252.978,159.776 244.5,167C 245.51,163.737 247.51,161.57 250.5,160.5C 250.328,159.508 250.662,158.842 251.5,158.5C 252.451,157.081 252.784,155.415 252.5,153.5C 256.446,159.142 259.28,158.475 261,151.5C 262.334,155.104 264.834,156.271 268.5,155C 269.109,153.052 269.776,151.218 270.5,149.5 Z"/></g>
<g><path style="opacity:1" fill="#c2c3c2" d="M 92.5,155.5 C 91.6993,157.042 91.366,158.708 91.5,160.5C 90.8333,160.5 90.5,160.833 90.5,161.5C 89.5041,161.586 88.6708,161.252 88,160.5C 86.9879,157.798 85.4879,155.465 83.5,153.5C 87.411,149.609 90.411,150.276 92.5,155.5 Z"/></g>
<g><path style="opacity:1" fill="#910c11" d="M 248.5,151.5 C 248.315,153.196 247.481,154.529 246,155.5C 245.517,154.552 245.351,153.552 245.5,152.5C 246.222,152.082 246.722,151.416 247,150.5C 247.383,151.056 247.883,151.389 248.5,151.5 Z"/></g>
<g><path style="opacity:1" fill="#fefffe" d="M 255.5,151.5 C 256.222,152.551 257.222,153.218 258.5,153.5C 258.585,154.995 257.919,155.995 256.5,156.5C 254.576,155.035 254.243,153.368 255.5,151.5 Z"/></g>
<g><path style="opacity:1" fill="#fefffe" d="M 274.5,151.5 C 275.429,152.315 276.429,153.148 277.5,154C 276.944,154.383 276.611,154.883 276.5,155.5C 275.833,155.5 275.167,155.5 274.5,155.5C 273.859,154.518 273.193,153.518 272.5,152.5C 272.957,151.702 273.624,151.369 274.5,151.5 Z"/></g>
<g><path style="opacity:1" fill="#fefffe" d="M 232.5,152.5 C 233.895,153.648 233.728,154.648 232,155.5C 229.86,153.947 230.027,152.947 232.5,152.5 Z"/></g>
<g><path style="opacity:1" fill="#c2c3c2" d="M 137.5,185.5 C 136.833,185.5 136.167,185.5 135.5,185.5C 135.027,184.094 134.027,183.427 132.5,183.5C 120.113,174.45 107.446,165.783 94.5,157.5C 94.1667,156.5 93.5,155.833 92.5,155.5C 92.369,154.761 92.5357,154.094 93,153.5C 107.989,164.066 122.822,174.732 137.5,185.5 Z"/></g>
<g><path style="opacity:1" fill="#000000" d="M 252.5,153.5 C 252.784,155.415 252.451,157.081 251.5,158.5C 251.67,157.178 251.337,156.011 250.5,155C 251.044,154.283 251.711,153.783 252.5,153.5 Z"/></g>
<g><path style="opacity:1" fill="#c2c3c2" d="M 79.5,154.5 C 83.6197,155.117 85.7863,157.45 86,161.5C 83.8602,159.513 81.3602,158.18 78.5,157.5C 79.1272,156.583 79.4606,155.583 79.5,154.5 Z"/></g>
<g><path style="opacity:1" fill="#fec90d" d="M 307.5,162.5 C 305.919,160.858 305.253,158.858 305.5,156.5C 308.006,153.914 310.506,153.914 313,156.5C 313.833,160.836 312,162.836 307.5,162.5 Z"/></g>
<g><path style="opacity:1" fill="#000000" d="M 92.5,155.5 C 93.5,155.833 94.1667,156.5 94.5,157.5C 93.1001,158.1 92.1001,159.1 91.5,160.5C 91.366,158.708 91.6993,157.042 92.5,155.5 Z"/></g>
<g><path style="opacity:1" fill="#323bc8" d="M 276.5,155.5 C 278.355,155.272 279.188,155.939 279,157.5C 278.005,156.934 277.172,156.267 276.5,155.5 Z"/></g>
<g><path style="opacity:1" fill="#000000" d="M 308.5,156.5 C 311.861,157.203 312.194,158.537 309.5,160.5C 307.358,159.563 307.024,158.23 308.5,156.5 Z"/></g>
<g><path style="opacity:1" fill="#aa7050" d="M 94.5,157.5 C 107.446,165.783 120.113,174.45 132.5,183.5C 132.973,184.906 133.973,185.573 135.5,185.5C 135.973,186.906 136.973,187.573 138.5,187.5C 147.938,195.418 158.105,202.418 169,208.5C 169.707,211.761 168.707,214.428 166,216.5C 149.108,203.17 131.942,190.504 114.5,178.5C 114.784,176.585 114.451,174.919 113.5,173.5C 112.883,173.389 112.383,173.056 112,172.5C 110.811,174.233 109.644,175.9 108.5,177.5C 107.1,176.9 106.1,175.9 105.5,174.5C 104.833,174.5 104.5,174.167 104.5,173.5C 98.8461,170.817 93.5128,167.317 88.5,163C 89.4158,162.722 90.0825,162.222 90.5,161.5C 90.5,160.833 90.8333,160.5 91.5,160.5C 92.1001,159.1 93.1001,158.1 94.5,157.5 Z"/></g>
<g><path style="opacity:1" fill="#f7f7f7" d="M 283.5,172.5 C 283.662,170.473 283.495,168.473 283,166.5C 282.667,167.167 282.333,167.833 282,168.5C 281,166.833 280,165.167 279,163.5C 278,167.5 277,167.5 276,163.5C 274.623,167.265 273.623,166.932 273,162.5C 272.377,166.932 271.377,167.265 270,163.5C 269.517,164.448 269.351,165.448 269.5,166.5C 268.5,166.5 267.5,166.5 266.5,166.5C 266.649,165.448 266.483,164.448 266,163.5C 265.377,167.932 264.377,168.265 263,164.5C 262,168.5 261,168.5 260,164.5C 258.483,170.147 256.817,170.481 255,165.5C 254.328,171.229 253.328,171.563 252,166.5C 252.225,169.825 250.892,172.158 248,173.5C 247.768,172.263 247.268,171.263 246.5,170.5C 247.588,166.91 249.921,164.41 253.5,163C 261.043,158.932 269.043,157.599 277.5,159C 279.667,160.5 281.833,162 284,163.5C 284.805,166.696 284.638,169.696 283.5,172.5 Z"/></g>
<g><path style="opacity:1" fill="#910c11" d="M 238.5,163.5 C 239.638,166.304 239.805,169.304 239,172.5C 237.241,169.65 237.074,166.65 238.5,163.5 Z"/></g>
<g><path style="opacity:1" fill="#ec1c23" d="M 233.5,190.5 C 229.954,190.559 226.621,191.392 223.5,193C 226.617,194.973 229.784,196.807 233,198.5C 232.981,200.107 232.815,201.774 232.5,203.5C 231.409,206.428 229.409,208.594 226.5,210C 222.554,211.324 218.554,211.991 214.5,212C 221.682,198.428 225.182,183.928 225,168.5C 228.131,175.754 230.964,183.087 233.5,190.5 Z"/></g>
<g><path style="opacity:1" fill="#ec1c23" d="M 274.5,168.5 C 275.855,171.855 278.189,174.189 281.5,175.5C 276.434,183.241 271.768,191.241 267.5,199.5C 263.046,200.626 259.379,202.959 256.5,206.5C 255.508,206.328 254.842,206.662 254.5,207.5C 251.956,209.484 249.289,210.151 246.5,209.5C 245.448,209.351 244.448,209.517 243.5,210C 244.745,210.791 246.078,211.291 247.5,211.5C 249.22,212.864 251.22,213.864 253.5,214.5C 254.15,216.184 255.15,217.517 256.5,218.5C 254.779,222.273 252.779,225.939 250.5,229.5C 249.311,230.429 247.978,230.762 246.5,230.5C 245.158,229.207 243.491,228.374 241.5,228C 232.124,227.816 222.791,227.15 213.5,226C 210.664,225.079 207.998,223.912 205.5,222.5C 205.183,219.428 205.516,216.428 206.5,213.5C 215.153,215.195 223.486,214.195 231.5,210.5C 235.262,215.598 239.928,219.598 245.5,222.5C 245.833,222 246.167,221.5 246.5,221C 242.837,215.492 238.17,211.326 232.5,208.5C 237.155,202.856 240.488,196.523 242.5,189.5C 246.384,190.793 250.384,191.459 254.5,191.5C 254.67,190.178 254.337,189.011 253.5,188C 249.848,187.501 246.182,187.335 242.5,187.5C 243.234,186.292 243.567,184.959 243.5,183.5C 247.544,183.844 251.544,184.51 255.5,185.5C 260.3,184.542 264.966,183.209 269.5,181.5C 263.862,180.67 258.196,180.17 252.5,180C 249.896,179.61 247.562,178.776 245.5,177.5C 254.155,171.505 263.822,168.505 274.5,168.5 Z"/></g>
<g><path style="opacity:1" fill="#910c11" d="M 274.5,168.5 C 277.896,168.884 280.896,170.218 283.5,172.5C 282.833,173.5 282.167,174.5 281.5,175.5C 278.189,174.189 275.855,171.855 274.5,168.5 Z"/></g>
<g><path style="opacity:1" fill="#fefffe" d="M 246.5,170.5 C 246.762,171.978 246.429,173.311 245.5,174.5C 244.579,172.969 244.912,171.635 246.5,170.5 Z"/></g>
<g><path style="opacity:1" fill="#fec90d" d="M 113.5,173.5 C 113.634,175.292 113.301,176.958 112.5,178.5C 110.901,178.768 109.568,178.434 108.5,177.5C 109.644,175.9 110.811,174.233 112,172.5C 112.383,173.056 112.883,173.389 113.5,173.5 Z"/></g>
<g><path style="opacity:1" fill="#fec90d" d="M 104.5,173.5 C 104.5,174.167 104.833,174.5 105.5,174.5C 105.657,175.873 105.49,177.207 105,178.5C 103.954,176.91 102.787,175.41 101.5,174C 102.448,173.517 103.448,173.351 104.5,173.5 Z"/></g>
<g><path style="opacity:1" fill="#000000" d="M 113.5,173.5 C 114.451,174.919 114.784,176.585 114.5,178.5C 113.833,178.5 113.167,178.5 112.5,178.5C 113.301,176.958 113.634,175.292 113.5,173.5 Z"/></g>
<g><path style="opacity:1" fill="#fefffe" d="M 239.5,179.5 C 238.571,178.685 237.571,177.852 236.5,177C 237.191,175.933 237.691,174.766 238,173.5C 239.011,174.337 240.178,174.67 241.5,174.5C 241.923,176.781 241.256,178.448 239.5,179.5 Z"/></g>
<g><path style="opacity:1" fill="#910c11" d="M 294.5,173.5 C 295.341,175.379 295.675,177.379 295.5,179.5C 292.903,179.643 290.569,180.477 288.5,182C 285.961,182.796 283.628,182.629 281.5,181.5C 281.427,179.973 282.094,178.973 283.5,178.5C 287.321,177.088 290.987,175.422 294.5,173.5 Z"/></g>
<g><path style="opacity:1" fill="#870014" d="M 297.5,174.5 C 303.559,184.944 309.392,195.611 315,206.5C 315.667,209.833 315.667,213.167 315,216.5C 314,215.833 313,215.167 312,214.5C 307.333,203.167 302.667,191.833 298,180.5C 297.505,178.527 297.338,176.527 297.5,174.5 Z"/></g>
<g><path style="opacity:1" fill="#910c11" d="M 245.5,177.5 C 247.562,178.776 249.896,179.61 252.5,180C 258.196,180.17 263.862,180.67 269.5,181.5C 264.966,183.209 260.3,184.542 255.5,185.5C 251.544,184.51 247.544,183.844 243.5,183.5C 243.025,180.918 243.692,178.918 245.5,177.5 Z"/></g>
<g><path style="opacity:1" fill="#fefffe" d="M 112.5,178.5 C 113.167,178.5 113.833,178.5 114.5,178.5C 118.778,183.773 123.778,188.439 129.5,192.5C 129.113,193.72 128.28,194.387 127,194.5C 120.016,190.507 113.016,186.507 106,182.5C 105.301,180.926 105.635,179.593 107,178.5C 108.943,179.807 110.777,179.807 112.5,178.5 Z"/></g>
<g><path style="opacity:1" fill="#910c11" d="M 239.5,179.5 C 240.984,180.473 241.484,181.807 241,183.5C 238.941,182.403 238.441,181.07 239.5,179.5 Z"/></g>
<g><path style="opacity:1" fill="#ec1c23" d="M 295.5,179.5 C 296.809,184.689 294.809,187.522 289.5,188C 285.167,188.667 280.833,188.667 276.5,188C 278.066,185.674 279.732,183.508 281.5,181.5C 283.628,182.629 285.961,182.796 288.5,182C 290.569,180.477 292.903,179.643 295.5,179.5 Z"/></g>
<g><path style="opacity:1" fill="#000000" d="M 112.5,181.5 C 114.612,182.44 116.612,183.606 118.5,185C 120.329,186.113 121.163,187.613 121,189.5C 117.62,187.283 114.787,184.616 112.5,181.5 Z"/></g>
<g><path style="opacity:1" fill="#000000" d="M 132.5,183.5 C 134.027,183.427 135.027,184.094 135.5,185.5C 133.973,185.573 132.973,184.906 132.5,183.5 Z"/></g>
<g><path style="opacity:1" fill="#000000" d="M 135.5,185.5 C 136.167,185.5 136.833,185.5 137.5,185.5C 137.833,186.167 138.167,186.833 138.5,187.5C 136.973,187.573 135.973,186.906 135.5,185.5 Z"/></g>
<g><path style="opacity:1" fill="#c2c3c2" d="M 137.5,185.5 C 148.582,191.761 159.249,198.594 169.5,206C 166.725,205.626 164.058,204.626 161.5,203C 154.207,197.194 146.54,192.028 138.5,187.5C 138.167,186.833 137.833,186.167 137.5,185.5 Z"/></g>
<g><path style="opacity:1" fill="#910c11" d="M 242.5,187.5 C 246.182,187.335 249.848,187.501 253.5,188C 254.337,189.011 254.67,190.178 254.5,191.5C 250.384,191.459 246.384,190.793 242.5,189.5C 242.5,188.833 242.5,188.167 242.5,187.5 Z"/></g>
<g><path style="opacity:1" fill="#fefffe" d="M 293.5,189.5 C 294.172,188.733 295.005,188.066 296,187.5C 296.188,189.061 295.355,189.728 293.5,189.5 Z"/></g>
<g><path style="opacity:1" fill="#eeeeee" d="M 300.5,194.5 C 299.833,194.5 299.5,194.167 299.5,193.5C 299.082,192.778 298.416,192.278 297.5,192C 298.191,190.933 298.691,189.766 299,188.5C 299.837,190.351 300.671,192.184 301.5,194C 301.272,194.399 300.938,194.565 300.5,194.5 Z"/></g>
<g><path style="opacity:1" fill="#fefffe" d="M 293.5,189.5 C 292.158,190.793 290.491,191.626 288.5,192C 283.475,193.092 278.475,193.258 273.5,192.5C 273.709,191.914 274.043,191.414 274.5,191C 280.867,190.707 287.2,190.207 293.5,189.5 Z"/></g>
<g><path style="opacity:1" fill="#910c11" d="M 233.5,190.5 C 238.739,195.099 238.405,199.432 232.5,203.5C 232.815,201.774 232.981,200.107 233,198.5C 229.784,196.807 226.617,194.973 223.5,193C 226.621,191.392 229.954,190.559 233.5,190.5 Z"/></g>
<g><path style="opacity:1" fill="#ec1c23" d="M 268.5,201.5 C 272.45,203.594 276.45,203.761 280.5,202C 280.957,201.586 281.291,201.086 281.5,200.5C 278.179,199.67 274.846,199.003 271.5,198.5C 271.5,197.5 271.5,196.5 271.5,195.5C 277.535,195.463 283.535,194.963 289.5,194C 291.519,193.55 293.352,192.717 295,191.5C 295.638,198.208 295.305,204.874 294,211.5C 293.882,206.457 291.382,204.623 286.5,206C 285.056,207.126 284.39,208.626 284.5,210.5C 284.904,212.224 285.071,213.891 285,215.5C 278.912,212.206 272.745,209.039 266.5,206C 267.582,204.67 268.249,203.17 268.5,201.5 Z"/></g>
<g><path style="opacity:1" fill="#fec90d" d="M 130.5,193.5 C 135.498,193.604 136.331,195.271 133,198.5C 131.926,197.382 130.76,196.382 129.5,195.5C 129.863,194.817 130.196,194.15 130.5,193.5 Z"/></g>
<g><path style="opacity:1" fill="#fec90d" d="M 299.5,193.5 C 299.5,194.167 299.833,194.5 300.5,194.5C 301.122,195.627 301.955,196.627 303,197.5C 303.765,199.066 303.598,200.399 302.5,201.5C 301.833,200.167 300.833,199.167 299.5,198.5C 298.609,197.739 297.942,196.739 297.5,195.5C 297.747,194.287 298.414,193.62 299.5,193.5 Z"/></g>
<g><path style="opacity:1" fill="#fefffe" d="M 135.5,197.5 C 144.547,203.034 153.214,209.201 161.5,216C 159.169,217.751 156.836,217.585 154.5,215.5C 153.289,213.578 151.956,211.745 150.5,210C 144.973,206.293 139.973,202.126 135.5,197.5 Z"/></g>
<g><path style="opacity:1" fill="#910c11" d="M 271.5,198.5 C 274.846,199.003 278.179,199.67 281.5,200.5C 281.291,201.086 280.957,201.586 280.5,202C 276.45,203.761 272.45,203.594 268.5,201.5C 269.167,200.167 270.167,199.167 271.5,198.5 Z"/></g>
<g><path style="opacity:1" fill="#c8c8c8" d="M 299.5,198.5 C 300.833,199.167 301.833,200.167 302.5,201.5C 303.72,203.284 303.72,204.95 302.5,206.5C 301.005,206.011 299.671,205.345 298.5,204.5C 296.821,201.988 297.155,199.988 299.5,198.5 Z"/></g>
<g><path style="opacity:1" fill="#8e0d11" d="M 267.5,199.5 C 264.165,206.134 260.498,212.468 256.5,218.5C 255.15,217.517 254.15,216.184 253.5,214.5C 251.22,213.864 249.22,212.864 247.5,211.5C 247.167,210.833 246.833,210.167 246.5,209.5C 249.289,210.151 251.956,209.484 254.5,207.5C 256.49,207.993 256.49,209.16 254.5,211C 256.323,211.132 257.323,210.132 257.5,208C 257.43,207.235 257.097,206.735 256.5,206.5C 259.379,202.959 263.046,200.626 267.5,199.5 Z"/></g>
<g><path style="opacity:1" fill="#f9a884" d="M 181.5,220.5 C 176.833,225.07 171.166,226.737 164.5,225.5C 160.491,224.479 157.157,222.313 154.5,219C 169.509,220.862 174.509,215.028 169.5,201.5C 173.123,205.625 176.957,209.625 181,213.5C 181.497,215.81 181.663,218.143 181.5,220.5 Z"/></g>
<g><path style="opacity:1" fill="#fec90d" d="M 298.5,204.5 C 299.671,205.345 301.005,206.011 302.5,206.5C 304.002,208.829 303.336,210.163 300.5,210.5C 300.179,208.952 299.179,208.285 297.5,208.5C 296.046,206.737 296.38,205.403 298.5,204.5 Z"/></g>
<g><path style="opacity:1" fill="#2c2d2c" d="M 317.5,204.5 C 319.861,205.435 322.028,206.768 324,208.5C 324.405,214.193 324.072,219.859 323,225.5C 321.985,222.79 320.485,220.457 318.5,218.5C 317.507,213.88 317.173,209.214 317.5,204.5 Z"/></g>
<g><path style="opacity:1" fill="#fefffe" d="M 305.5,205.5 C 306.864,207.22 307.864,209.22 308.5,211.5C 307.167,212.833 305.833,212.833 304.5,211.5C 305.348,209.591 305.682,207.591 305.5,205.5 Z"/></g>
<g><path style="opacity:1" fill="#000000" d="M 254.5,207.5 C 254.842,206.662 255.508,206.328 256.5,206.5C 257.097,206.735 257.43,207.235 257.5,208C 257.323,210.132 256.323,211.132 254.5,211C 256.49,209.16 256.49,207.993 254.5,207.5 Z"/></g>
<g><path style="opacity:1" fill="#7e7f7e" d="M 288.5,207.5 C 289.376,207.369 290.043,207.702 290.5,208.5C 293.034,211.523 292.701,213.856 289.5,215.5C 286.539,213.014 286.205,210.347 288.5,207.5 Z"/></g>
<g><path style="opacity:1" fill="#910c11" d="M 232.5,208.5 C 238.17,211.326 242.837,215.492 246.5,221C 246.167,221.5 245.833,222 245.5,222.5C 239.928,219.598 235.262,215.598 231.5,210.5C 231.328,209.508 231.662,208.842 232.5,208.5 Z"/></g>
<g><path style="opacity:1" fill="#fefffe" d="M 265.5,208.5 C 271.757,210.962 277.757,213.962 283.5,217.5C 281.476,219.69 279.643,222.023 278,224.5C 275.07,222.745 271.903,221.578 268.5,221C 265.93,218.933 263.93,216.433 262.5,213.5C 263.26,211.64 264.26,209.973 265.5,208.5 Z"/></g>
<g><path style="opacity:1" fill="#fefffe" d="M 297.5,208.5 C 298.29,209.401 299.29,210.068 300.5,210.5C 300.918,211.222 301.584,211.722 302.5,212C 300.512,212.18 298.512,212.014 296.5,211.5C 296.263,210.209 296.596,209.209 297.5,208.5 Z"/></g>
<g><path style="opacity:1" fill="#000000" d="M 297.5,208.5 C 299.179,208.285 300.179,208.952 300.5,210.5C 299.29,210.068 298.29,209.401 297.5,208.5 Z"/></g>
<g><path style="opacity:1" fill="#000000" d="M 246.5,209.5 C 246.833,210.167 247.167,210.833 247.5,211.5C 246.078,211.291 244.745,210.791 243.5,210C 244.448,209.517 245.448,209.351 246.5,209.5 Z"/></g>
<g><path style="opacity:1" fill="#fefffe" d="M 187.5,212.5 C 188.946,211.387 190.613,211.22 192.5,212C 191.007,213.156 191.174,213.99 193,214.5C 194.285,214.05 195.452,213.383 196.5,212.5C 197.607,214.769 196.774,216.102 194,216.5C 191.429,215.75 189.262,214.417 187.5,212.5 Z"/></g>
<g><path style="opacity:1" fill="#313bc6" d="M 199.5,214.5 C 199.5,216.167 199.5,217.833 199.5,219.5C 195.089,219.021 190.922,219.688 187,221.5C 186.376,223.464 186.876,225.131 188.5,226.5C 191.309,227.8 193.976,227.8 196.5,226.5C 196.5,225.833 196.833,225.5 197.5,225.5C 199.048,225.821 199.715,226.821 199.5,228.5C 197.473,228.338 195.473,228.505 193.5,229C 192.944,229.383 192.611,229.883 192.5,230.5C 190.976,231.174 189.642,232.174 188.5,233.5C 187.3,232.469 185.966,231.635 184.5,231C 185.059,230.275 185.392,229.442 185.5,228.5C 183.846,223.94 183.346,219.274 184,214.5C 184.667,213.833 185.333,213.167 186,212.5C 190.026,218.081 194.526,218.748 199.5,214.5 Z"/></g>
<g><path style="opacity:1" fill="#ebebeb" d="M 198.5,221.5 C 200.05,219.7 201.05,217.533 201.5,215C 200.906,214.536 200.239,214.369 199.5,214.5C 199.389,213.883 199.056,213.383 198.5,213C 200.112,212.28 201.612,212.446 203,213.5C 203.19,219.416 203.69,225.249 204.5,231C 203.216,231.684 202.049,231.517 201,230.5C 200.257,228.559 200.424,226.726 201.5,225C 200.552,224.517 199.552,224.351 198.5,224.5C 198.5,223.5 198.5,222.5 198.5,221.5 Z"/></g>
<g><path style="opacity:1" fill="#00a1e8" d="M 294.5,213.5 C 295.978,213.238 297.311,213.571 298.5,214.5C 297.833,214.833 297.167,215.167 296.5,215.5C 295.287,215.253 294.62,214.586 294.5,213.5 Z"/></g>
<g><path style="opacity:1" fill="#000000" d="M 199.5,214.5 C 200.239,214.369 200.906,214.536 201.5,215C 201.05,217.533 200.05,219.7 198.5,221.5C 194.659,219.939 190.992,220.439 187.5,223C 189.733,225.907 192.733,227.074 196.5,226.5C 193.976,227.8 191.309,227.8 188.5,226.5C 186.876,225.131 186.376,223.464 187,221.5C 190.922,219.688 195.089,219.021 199.5,219.5C 199.5,217.833 199.5,216.167 199.5,214.5 Z"/></g>
<g><path style="opacity:1" fill="#910c11" d="M 220.5,215.5 C 223.098,218.029 224.598,221.029 225,224.5C 222.429,222.024 220.929,219.024 220.5,215.5 Z"/></g>
<g><path style="opacity:1" fill="#910c11" d="M 229.5,217.5 C 229.897,216.475 230.563,216.308 231.5,217C 233.833,219.333 236.167,221.667 238.5,224C 237.833,224.667 237.167,224.667 236.5,224C 234.297,221.628 231.963,219.461 229.5,217.5 Z"/></g>
<g><path style="opacity:1" fill="#870014" d="M 260.5,216.5 C 263.084,218.578 265.584,220.912 268,223.5C 275.833,233.333 283.667,243.167 291.5,253C 295.815,255.549 300.481,256.882 305.5,257C 297.863,258.232 291.196,256.232 285.5,251C 275.992,240.805 267.326,229.972 259.5,218.5C 259.863,217.817 260.196,217.15 260.5,216.5 Z"/></g>
<g><path style="opacity:1" fill="#00a1e8" d="M 286.5,217.5 C 288.199,217.34 289.866,217.506 291.5,218C 285.26,222.98 282.093,229.48 282,237.5C 278.891,235.614 277.891,232.947 279,229.5C 280.76,224.967 283.26,220.967 286.5,217.5 Z"/></g>
<g><path style="opacity:1" fill="#069de1" d="M 317.5,227.5 C 317.263,228.791 317.596,229.791 318.5,230.5C 318.577,234.215 318.244,237.881 317.5,241.5C 316.733,242.172 316.066,243.005 315.5,244C 318.906,244.603 319.239,245.769 316.5,247.5C 315.152,245.539 313.819,245.372 312.5,247C 315.612,247.851 315.946,249.017 313.5,250.5C 312.914,250.291 312.414,249.957 312,249.5C 310.881,253.36 309.381,253.86 307.5,251C 309.595,250.444 309.762,249.944 308,249.5C 305.23,250.348 302.397,250.681 299.5,250.5C 298.749,249.427 297.749,249.26 296.5,250C 297.604,251.131 297.271,251.965 295.5,252.5C 294.5,252 293.5,251.5 292.5,251C 293.833,249.16 293.666,248.66 292,249.5C 288.668,247.557 288.834,246.39 292.5,246C 292,245.5 291.5,245 291,244.5C 288.546,246.013 286.879,245.346 286,242.5C 285.251,241.365 285.417,240.365 286.5,239.5C 287.192,240.025 287.692,240.692 288,241.5C 287.923,237.868 287.59,234.201 287,230.5C 286.111,231.888 285.611,231.722 285.5,230C 286.196,228.107 287.03,226.274 288,224.5C 288.333,225.5 288.667,226.5 289,227.5C 290.646,225.945 290.979,224.279 290,222.5C 291.612,219.763 293.778,218.93 296.5,220C 295.098,218.658 295.431,217.824 297.5,217.5C 301.994,217.934 306.327,218.934 310.5,220.5C 312.017,219.089 313.351,219.256 314.5,221C 312.071,221.451 311.904,222.285 314,223.5C 315.297,222.216 316.464,222.383 317.5,224C 314.982,225.14 314.982,226.306 317.5,227.5 Z"/></g>
<g><path style="opacity:1" fill="#f7763e" d="M 181.5,220.5 C 181.779,223.118 182.446,225.618 183.5,228C 176.71,230.255 170.376,229.422 164.5,225.5C 171.166,226.737 176.833,225.07 181.5,220.5 Z"/></g>
<g><path style="opacity:1" fill="#fefffe" d="M 198.5,221.5 C 197.566,222.568 197.232,223.901 197.5,225.5C 196.833,225.5 196.5,225.833 196.5,226.5C 192.733,227.074 189.733,225.907 187.5,223C 190.992,220.439 194.659,219.939 198.5,221.5 Z"/></g>
<g><path style="opacity:1" fill="#b00e15" d="M 257.5,221.5 C 259.25,222.742 260.917,224.242 262.5,226C 260.098,226.814 257.765,226.647 255.5,225.5C 256.18,224.14 256.847,222.807 257.5,221.5 Z"/></g>
<g><path style="opacity:1" fill="#000000" d="M 191.5,223.5 C 192.708,222.218 194.042,222.218 195.5,223.5C 194.192,224.626 192.858,224.626 191.5,223.5 Z"/></g>
<g><path style="opacity:1" fill="#b00e15" d="M 205.5,222.5 C 207.998,223.912 210.664,225.079 213.5,226C 222.791,227.15 232.124,227.816 241.5,228C 243.491,228.374 245.158,229.207 246.5,230.5C 240.865,232.897 234.865,233.897 228.5,233.5C 220.978,233.644 213.645,232.644 206.5,230.5C 205.607,227.916 205.274,225.249 205.5,222.5 Z"/></g>
<g><path style="opacity:1" fill="#736635" d="M 270.5,224.5 C 272.97,224.027 275.304,224.861 277.5,227C 276.809,228.067 276.309,229.234 276,230.5C 274.669,228.004 272.836,226.004 270.5,224.5 Z"/></g>
<g><path style="opacity:1" fill="#00a1e8" d="M 317.5,227.5 C 317.369,226.624 317.702,225.957 318.5,225.5C 319.873,227.808 319.54,228.475 317.5,227.5 Z"/></g>
<g><path style="opacity:1" fill="#7c7c7c" d="M 254.5,227.5 C 261.45,231.024 265.784,236.691 267.5,244.5C 251.391,247.527 235.391,251.193 219.5,255.5C 218.859,262.874 220.025,269.874 223,276.5C 223.556,288.513 223.89,300.513 224,312.5C 219.563,315.041 215.063,315.041 210.5,312.5C 206.158,288.968 200.492,265.801 193.5,243C 195.779,238.658 199.445,236.825 204.5,237.5C 211.675,240.464 219.009,240.964 226.5,239C 228.584,238.303 230.251,237.136 231.5,235.5C 238.32,235.296 244.987,234.129 251.5,232C 252.399,230.348 253.399,228.848 254.5,227.5 Z"/></g>
<g><path style="opacity:1" fill="#4e4f4e" d="M 254.5,227.5 C 257.518,227.335 260.518,227.502 263.5,228C 264.977,230.445 266.81,232.612 269,234.5C 269.256,237.557 269.756,240.557 270.5,243.5C 269.675,244.386 268.675,244.719 267.5,244.5C 265.784,236.691 261.45,231.024 254.5,227.5 Z"/></g>
<g><path style="opacity:1" fill="#fefffe" d="M 192.5,230.5 C 194.856,229.425 197.189,229.425 199.5,230.5C 200.681,232.198 200.681,233.865 199.5,235.5C 196.146,237.113 193.146,236.78 190.5,234.5C 191.18,233.14 191.847,231.807 192.5,230.5 Z"/></g>
<g><path style="opacity:1" fill="#00a1e8" d="M 318.5,230.5 C 318.56,229.957 318.893,229.624 319.5,229.5C 321.959,232.77 321.625,233.103 318.5,230.5 Z"/></g>
<g><path style="opacity:1" fill="#fefffe" d="M 182.5,232.5 C 184.95,233.777 187.283,235.277 189.5,237C 188.5,237.667 187.5,237.667 186.5,237C 184.365,236.124 183.031,234.624 182.5,232.5 Z"/></g>
<g><path style="opacity:1" fill="#000000" d="M 195.5,232.5 C 196.675,232.281 197.675,232.614 198.5,233.5C 196.862,234.958 195.195,235.292 193.5,234.5C 194.243,233.818 194.909,233.151 195.5,232.5 Z"/></g>
<g><path style="opacity:1" fill="#fefffe" d="M 201.5,232.5 C 204.674,232.952 205.007,233.952 202.5,235.5C 201.614,234.675 201.281,233.675 201.5,232.5 Z"/></g>
<g><path style="opacity:1" fill="#00a1e8" d="M 284.5,232.5 C 285.693,232.97 286.36,233.97 286.5,235.5C 286.167,236.5 285.833,237.5 285.5,238.5C 284.534,236.604 284.201,234.604 284.5,232.5 Z"/></g>
<g><path style="opacity:1" fill="#4e4f4e" d="M 231.5,235.5 C 230.251,237.136 228.584,238.303 226.5,239C 219.009,240.964 211.675,240.464 204.5,237.5C 205.479,235.855 206.812,234.521 208.5,233.5C 216.069,235.065 223.736,235.731 231.5,235.5 Z"/></g>
<g><path style="opacity:1" fill="#00a1e8" d="M 319.5,233.5 C 320.586,233.62 321.253,234.287 321.5,235.5C 321.167,236.167 320.833,236.833 320.5,237.5C 319.571,236.311 319.238,234.978 319.5,233.5 Z"/></g>
<g><path style="opacity:1" fill="#736635" d="M 271.5,238.5 C 277.49,247.655 285.49,254.488 295.5,259C 306.675,261.287 314.842,257.454 320,247.5C 320.144,251.504 319.811,255.504 319,259.5C 313.544,263.304 307.544,265.637 301,266.5C 300,266.167 299,265.833 298,265.5C 292.905,267.317 287.738,268.484 282.5,269C 279.945,267.445 278.112,265.278 277,262.5C 274.592,254.626 272.759,246.626 271.5,238.5 Z"/></g>
<g><path style="opacity:1" fill="#00a1e8" d="M 317.5,241.5 C 318.648,240.105 319.648,240.272 320.5,242C 318.947,244.14 317.947,243.973 317.5,241.5 Z"/></g>
<g><path style="opacity:1" fill="#4e4f4e" d="M 253.5,261.5 C 254.562,260.425 254.562,259.425 253.5,258.5C 250.263,257.048 246.93,255.881 243.5,255C 242.748,254.329 242.414,253.496 242.5,252.5C 249.335,254.281 256.168,255.948 263,257.5C 262.41,255.186 261.243,253.019 259.5,251C 259.833,250.5 260.167,250 260.5,249.5C 262.167,250.833 263.833,252.167 265.5,253.5C 267.553,252.061 268.553,250.061 268.5,247.5C 269.189,246.226 270.023,246.226 271,247.5C 271.9,251.834 272.734,256.168 273.5,260.5C 266.826,260.713 260.159,261.046 253.5,261.5 Z"/></g>
<g><path style="opacity:1" fill="#7e7f7e" d="M 268.5,247.5 C 268.553,250.061 267.553,252.061 265.5,253.5C 263.833,252.167 262.167,250.833 260.5,249.5C 260.167,250 259.833,250.5 259.5,251C 261.243,253.019 262.41,255.186 263,257.5C 256.168,255.948 249.335,254.281 242.5,252.5C 250.919,250.205 259.586,248.538 268.5,247.5 Z"/></g>
<g><path style="opacity:1" fill="#00a1e8" d="M 299.5,250.5 C 300.209,251.404 301.209,251.737 302.5,251.5C 302.5,252.5 302.5,253.5 302.5,254.5C 298.086,254.61 297.086,253.276 299.5,250.5 Z"/></g>
<g><path style="opacity:1" fill="#00a1e8" d="M 303.5,251.5 C 308.833,252.5 308.833,253.5 303.5,254.5C 303.5,253.5 303.5,252.5 303.5,251.5 Z"/></g>
<g><path style="opacity:1" fill="#7e7f7e" d="M 242.5,252.5 C 242.414,253.496 242.748,254.329 243.5,255C 246.93,255.881 250.263,257.048 253.5,258.5C 254.562,259.425 254.562,260.425 253.5,261.5C 252.833,261.5 252.167,261.5 251.5,261.5C 243.018,259.442 234.351,257.775 225.5,256.5C 225.918,255.778 226.584,255.278 227.5,255C 232.513,254.164 237.513,253.331 242.5,252.5 Z"/></g>
<g><path style="opacity:1" fill="#4e4f4e" d="M 223.5,257.5 C 223.842,256.662 224.508,256.328 225.5,256.5C 234.351,257.775 243.018,259.442 251.5,261.5C 244.992,261.868 238.658,262.535 232.5,263.5C 229.013,262.255 226.013,260.255 223.5,257.5 Z"/></g>
<g><path style="opacity:1" fill="#7e7f7e" d="M 223.5,257.5 C 226.013,260.255 229.013,262.255 232.5,263.5C 231.03,265.159 230.363,267.159 230.5,269.5C 231.723,276.453 232.556,283.453 233,290.5C 234.37,294.649 235.87,298.649 237.5,302.5C 238.101,306.037 236.768,307.871 233.5,308C 230.811,302.937 228.311,297.771 226,292.5C 225.667,286.833 225.333,281.167 225,275.5C 222.827,271.315 221.66,266.815 221.5,262C 221.569,260.014 222.235,258.514 223.5,257.5 Z"/></g>
<g><path style="opacity:1" fill="#000000" d="M 208.5,264.5 C 209.251,263.427 210.251,263.26 211.5,264C 213.871,266.706 216.537,269.039 219.5,271C 214.996,270.345 211.329,268.178 208.5,264.5 Z"/></g>
<g><path style="opacity:1" fill="#7e7f7e" d="M 264.5,263.5 C 268.226,263.177 271.893,263.511 275.5,264.5C 275.709,265.086 276.043,265.586 276.5,266C 273.852,270.41 272.352,275.243 272,280.5C 271.19,287.082 271.357,293.582 272.5,300C 274.199,300.958 276.033,301.458 278,301.5C 287.223,296.435 297.057,294.435 307.5,295.5C 308.752,297.735 309.252,300.069 309,302.5C 297.721,301.678 286.554,302.845 275.5,306C 271.167,306.667 266.833,306.667 262.5,306C 260.951,304.786 259.785,303.286 259,301.5C 257.945,289.177 257.112,276.844 256.5,264.5C 259.385,264.806 262.052,264.473 264.5,263.5 Z"/></g>
<g><path style="opacity:1" fill="#2c2d2c" d="M 337.5,264.5 C 340.051,266.578 341.884,269.244 343,272.5C 348.212,281.328 349.545,290.662 347,300.5C 345.89,302.037 344.39,302.703 342.5,302.5C 342.985,297.458 340.985,293.624 336.5,291C 334.634,290.015 332.634,289.515 330.5,289.5C 327.814,290.012 325.147,290.179 322.5,290C 327.506,288.164 330.506,284.664 331.5,279.5C 330.935,276.492 329.935,273.659 328.5,271C 329.766,270.691 330.933,270.191 332,269.5C 332.914,273.142 333.748,276.808 334.5,280.5C 334.833,280 335.167,279.5 335.5,279C 334.886,276.146 334.219,273.313 333.5,270.5C 335.278,268.736 336.611,266.736 337.5,264.5 Z"/></g>
<g><path style="opacity:1" fill="#787878" d="M 276.5,268.5 C 279.318,269.97 282.318,270.97 285.5,271.5C 285.22,274.272 285.887,276.772 287.5,279C 292.519,279.498 297.519,279.332 302.5,278.5C 303.424,282.941 304.758,287.275 306.5,291.5C 298.737,292.805 291.071,294.472 283.5,296.5C 283.167,296.333 282.833,296.167 282.5,296C 283.945,294.29 284.778,292.456 285,290.5C 283.023,293.312 280.856,295.978 278.5,298.5C 277.635,299.583 276.635,299.749 275.5,299C 274.224,296.276 273.558,293.276 273.5,290C 273.688,282.707 274.688,275.541 276.5,268.5 Z"/></g>
<g><path style="opacity:1" fill="#000000" d="M 210.5,269.5 C 214.168,274.987 217.502,280.82 220.5,287C 219.668,287.688 219.002,287.521 218.5,286.5C 216.582,282.996 214.416,279.663 212,276.5C 210.798,274.323 210.298,271.989 210.5,269.5 Z"/></g>
<g><path style="opacity:1" fill="#fefffe" d="M 294.5,271.5 C 295.675,271.281 296.675,271.614 297.5,272.5C 296.092,273.243 294.759,274.077 293.5,275C 291.926,275.699 290.593,275.365 289.5,274C 291.175,273.015 292.842,272.181 294.5,271.5 Z"/></g>
<g><path style="opacity:1" fill="#7e7f7e" d="M 322.5,272.5 C 330.974,282.395 328.641,288.062 315.5,289.5C 315.071,284.851 314.071,280.351 312.5,276C 315.98,274.897 319.313,273.731 322.5,272.5 Z"/></g>
<g><path style="opacity:1" fill="#000000" d="M 285.5,282.5 C 286.239,282.369 286.906,282.536 287.5,283C 283.298,286.867 279.465,291.033 276,295.5C 275.333,294.833 275.333,294.167 276,293.5C 279.002,289.666 282.169,286 285.5,282.5 Z"/></g>
<g><path style="opacity:1" fill="#fec90d" d="M 310.5,286.5 C 311.5,286.5 312.5,286.5 313.5,286.5C 314.026,290.936 315.026,295.269 316.5,299.5C 315.715,302.153 314.215,302.82 312,301.5C 310.599,297.129 309.099,292.796 307.5,288.5C 308.602,287.824 309.602,287.158 310.5,286.5 Z"/></g>
<g><path style="opacity:1" fill="#7e7f7e" d="M 316.5,291.5 C 319.787,292.161 323.12,292.661 326.5,293C 325.813,295.919 324.813,298.752 323.5,301.5C 321.579,302.641 319.579,302.808 317.5,302C 318.059,301.275 318.392,300.442 318.5,299.5C 317.829,296.815 317.162,294.148 316.5,291.5 Z"/></g>
<g><path style="opacity:1" fill="#2a2a2a" d="M 225.5,297.5 C 227.621,301.741 229.787,306.075 232,310.5C 235.613,314.113 239.279,317.779 243,321.5C 244.59,323.65 245.257,325.983 245,328.5C 235.569,334.303 225.403,337.969 214.5,339.5C 210.995,339.599 207.662,338.932 204.5,337.5C 209.152,333.349 213.652,329.015 218,324.5C 218.711,322.101 218.544,319.768 217.5,317.5C 220.734,316.959 223.567,315.626 226,313.5C 226.529,308.146 226.362,302.813 225.5,297.5 Z"/></g>
<g><path style="opacity:1" fill="#fec90d" d="M 228.5,314.5 C 229.5,314.5 230.5,314.5 231.5,314.5C 231.5,315.5 231.5,316.5 231.5,317.5C 230.5,317.5 229.5,317.5 228.5,317.5C 228.5,316.5 228.5,315.5 228.5,314.5 Z"/></g>
<g><path style="opacity:1" fill="#fec90d" d="M 230.5,321.5 C 231.5,321.5 232.5,321.5 233.5,321.5C 233.5,322.5 233.5,323.5 233.5,324.5C 232.5,324.5 231.5,324.5 230.5,324.5C 230.5,323.5 230.5,322.5 230.5,321.5 Z"/></g>
<g><path style="opacity:1" fill="#fec90d" d="M 232.5,328.5 C 233.5,328.5 234.5,328.5 235.5,328.5C 235.5,329.5 235.5,330.5 235.5,331.5C 234.5,331.5 233.5,331.5 232.5,331.5C 232.5,330.5 232.5,329.5 232.5,328.5 Z"/></g>
</svg>
