<?xml version="1.0" encoding="UTF-8"?>
<!DOCTYPE svg PUBLIC "-//W3C//DTD SVG 1.1//EN" "http://www.w3.org/Graphics/SVG/1.1/DTD/svg11.dtd">
<svg xmlns="http://www.w3.org/2000/svg" version="1.1" width="293px" height="419px" style="shape-rendering:geometricPrecision; text-rendering:geometricPrecision; image-rendering:optimizeQuality; fill-rule:evenodd; clip-rule:evenodd" xmlns:xlink="http://www.w3.org/1999/xlink">
<g><path style="opacity:1" fill="#fefffe" d="M 93.5,22.5 C 98.9586,22.1033 104.292,22.6033 109.5,24C 110.13,27.1292 110.796,30.2959 111.5,33.5C 120.037,30.258 128.703,29.758 137.5,32C 141.515,39.694 145.349,47.5273 149,55.5C 151.577,57.6548 153.411,60.3215 154.5,63.5C 157.899,65.3122 161.566,65.9789 165.5,65.5C 165.33,64.1779 165.663,63.0113 166.5,62C 170.833,61.3333 175.167,61.3333 179.5,62C 181.019,63.3513 182.352,64.8513 183.5,66.5C 191.53,66.6229 198.697,68.9563 205,73.5C 208.238,81.2095 210.238,89.2095 211,97.5C 216.647,101.793 219.981,107.46 221,114.5C 221.811,121.414 221.645,128.248 220.5,135C 222.778,139.876 224.111,145.042 224.5,150.5C 225.971,151.381 226.804,152.714 227,154.5C 227.667,158.833 227.667,163.167 227,167.5C 226.044,168.579 225.211,169.745 224.5,171C 230.398,180.319 232.731,190.319 231.5,201C 226.068,203.205 220.402,204.038 214.5,203.5C 214.665,206.85 214.498,210.183 214,213.5C 211.694,214.137 210.527,215.637 210.5,218C 212.092,229.395 214.592,240.561 218,251.5C 218.837,253.844 220.171,255.844 222,257.5C 224.372,265.307 226.372,273.307 228,281.5C 228.05,295.237 228.883,308.903 230.5,322.5C 230.6,326.059 229.934,329.392 228.5,332.5C 230.393,339.387 230.893,346.387 230,353.5C 228.209,354.912 227.042,356.745 226.5,359C 215.482,359.508 204.482,359.175 193.5,358C 189.916,355.959 186.416,353.792 183,351.5C 179.727,340.977 183.227,333.977 193.5,330.5C 194.487,327.232 194.82,323.898 194.5,320.5C 190.818,320.665 187.152,320.499 183.5,320C 182.213,318.59 181.046,317.09 180,315.5C 175.852,301.888 171.019,288.555 165.5,275.5C 163.028,280.447 161.362,285.614 160.5,291C 161.248,301.101 161.415,311.268 161,321.5C 164.209,327.114 165.209,333.114 164,339.5C 162.385,340.656 162.385,341.989 164,343.5C 164.167,346.333 164.333,349.167 164.5,352C 163.979,358.197 163.312,364.364 162.5,370.5C 153.324,371.877 144.324,374.044 135.5,377C 126.268,378.118 117.268,377.118 108.5,374C 106.667,373.5 105.5,372.333 105,370.5C 104.333,366.167 104.333,361.833 105,357.5C 109.167,354.667 113.333,351.833 117.5,349C 119.378,347.457 120.878,345.624 122,343.5C 124.343,320.945 123.01,298.612 118,276.5C 117.333,272.5 117.333,268.5 118,264.5C 123.898,247.311 131.065,230.644 139.5,214.5C 133.069,213.238 128.569,209.572 126,203.5C 125.333,197.167 125.333,190.833 126,184.5C 127.039,182.254 128.206,180.087 129.5,178C 128.953,177.075 128.287,176.242 127.5,175.5C 126.019,176.48 124.685,177.647 123.5,179C 117.167,179.667 110.833,179.667 104.5,179C 99.9852,174.318 95.3185,169.818 90.5,165.5C 76.1431,170.116 62.1431,169.283 48.5,163C 44.2641,159.09 39.7641,155.59 35,152.5C 31.579,147.588 28.9123,142.254 27,136.5C 22.9173,133.927 20.7506,130.261 20.5,125.5C 16.959,124.8 13.459,124.133 10,123.5C 8.6392,117.593 8.1392,111.593 8.5,105.5C 29.4881,103.959 50.4881,102.459 71.5,101C 76.5258,98.7419 81.8591,97.9086 87.5,98.5C 87.0951,92.7385 89.7618,90.2385 95.5,91C 96.3333,90.1667 97.1667,89.3333 98,88.5C 98.3333,84.5 98.6667,80.5 99,76.5C 99.956,75.4214 100.789,74.2547 101.5,73C 100.44,70.2633 99.6063,67.43 99,64.5C 95.3068,63.4736 92.9735,61.1402 92,57.5C 90.6508,48.1991 90.3174,38.8658 91,29.5C 91.3793,26.9699 92.2126,24.6365 93.5,22.5 Z M 49.5,125.5 C 55.2774,129.385 61.6108,132.218 68.5,134C 68.9193,140.114 71.586,145.114 76.5,149C 69.0804,149.042 62.9137,146.209 58,140.5C 56.7401,136.923 55.0734,133.589 53,130.5C 51.5905,129.213 50.0905,128.046 48.5,127C 49.056,126.617 49.3893,126.117 49.5,125.5 Z"/></g>
<g><path style="opacity:1" fill="#010101" d="M 95.5,24.5 C 99.6372,24.1463 103.637,24.6463 107.5,26C 108.456,29.3936 108.789,32.8936 108.5,36.5C 112.844,35.4422 117.177,34.2755 121.5,33C 126.287,32.1215 130.953,32.4548 135.5,34C 139.515,41.694 143.349,49.5273 147,57.5C 149.922,61.4223 152.756,65.4223 155.5,69.5C 159.162,67.2683 162.995,66.935 167,68.5C 166.866,64.3024 168.866,62.6357 173,63.5C 176.92,63.2421 179.753,64.9088 181.5,68.5C 189.53,68.6229 196.697,70.9563 203,75.5C 204.667,80.5 206.333,85.5 208,90.5C 208.777,93.4294 208.61,96.2628 207.5,99C 214.205,102.901 218.038,108.734 219,116.5C 219.667,121.833 219.667,127.167 219,132.5C 218.308,133.025 217.808,133.692 217.5,134.5C 218.764,137.125 219.931,139.792 221,142.5C 221.382,149.11 222.882,155.277 225.5,161C 225.157,164.694 223.823,168.027 221.5,171C 226.773,179.482 229.607,188.648 230,198.5C 226.984,200.505 223.651,201.505 220,201.5C 217.143,201.032 214.309,200.866 211.5,201C 212.622,204.409 212.789,207.909 212,211.5C 209.453,212.473 207.953,214.307 207.5,217C 209.744,229.29 212.577,241.457 216,253.5C 216.837,255.844 218.171,257.844 220,259.5C 222.372,267.307 224.372,275.307 226,283.5C 226.007,296.577 226.84,309.577 228.5,322.5C 227.355,325.685 226.688,329.018 226.5,332.5C 228.173,338.736 228.673,345.069 228,351.5C 226.209,352.912 225.042,354.745 224.5,357C 214.82,357.377 205.153,357.044 195.5,356C 191.916,353.959 188.416,351.792 185,349.5C 183.925,345.142 184.592,341.142 187,337.5C 190.265,335.117 193.765,333.117 197.5,331.5C 196.711,325.885 196.211,320.218 196,314.5C 190.833,320.092 186.167,319.759 182,313.5C 178.362,303.619 175.029,293.619 172,283.5C 170.199,277.902 167.866,272.569 165,267.5C 162.402,275.284 160.235,283.118 158.5,291C 159.027,301.813 159.193,312.646 159,323.5C 160.606,326.872 161.772,330.372 162.5,334C 162.424,336.738 161.424,339.072 159.5,341C 161.911,344.232 162.911,347.899 162.5,352C 161.38,357.423 160.713,362.923 160.5,368.5C 149.607,370.599 138.773,372.932 128,375.5C 122.064,374.891 116.23,373.725 110.5,372C 108.667,371.5 107.5,370.333 107,368.5C 106.333,365.5 106.333,362.5 107,359.5C 111.167,356.667 115.333,353.833 119.5,351C 122.498,348.671 124.498,345.671 125.5,342C 125.374,331.544 125.207,321.044 125,310.5C 123.653,295.731 121.986,281.064 120,266.5C 126.597,247.805 134.431,229.638 143.5,212C 135.928,212.1 130.761,208.6 128,201.5C 126.272,192.848 127.772,184.848 132.5,177.5C 130.637,175.107 129.304,172.44 128.5,169.5C 123.194,177.266 115.861,179.766 106.5,177C 101.333,171.833 96.1667,166.667 91,161.5C 77.5153,168.212 64.0153,168.045 50.5,161C 46.2641,157.09 41.7641,153.59 37,150.5C 33.579,145.588 30.9123,140.254 29,134.5C 24.9173,131.927 22.7506,128.261 22.5,123.5C 18.959,122.8 15.459,122.133 12,121.5C 10.6908,116.934 10.1908,112.267 10.5,107.5C 31.4881,105.959 52.4881,104.459 73.5,103C 78.5258,100.742 83.8591,99.9086 89.5,100.5C 89.0951,94.7385 91.7618,92.2385 97.5,93C 101.297,88.1313 105.797,87.298 111,90.5C 111.497,93.146 111.664,95.8127 111.5,98.5C 118.778,98.2948 119.278,96.6282 113,93.5C 112.505,91.5273 112.338,89.5273 112.5,87.5C 108.617,87.8909 104.95,87.2242 101.5,85.5C 99.4316,80.4228 100.765,76.5895 105.5,74C 103.02,70.6053 101.52,66.772 101,62.5C 97.3068,61.4736 94.9735,59.1402 94,55.5C 92.7352,47.5311 92.4019,39.5311 93,31.5C 93.3793,28.9699 94.2126,26.6365 95.5,24.5 Z M 49.5,125.5 C 49.3893,126.117 49.056,126.617 48.5,127C 50.0905,128.046 51.5905,129.213 53,130.5C 55.0734,133.589 56.7401,136.923 58,140.5C 62.9137,146.209 69.0804,149.042 76.5,149C 71.586,145.114 68.9193,140.114 68.5,134C 61.6108,132.218 55.2774,129.385 49.5,125.5 Z"/></g>
<g><path style="opacity:1" fill="#5A905E" d="M 99.5,29.5 C 100.583,29.5394 101.583,29.8728 102.5,30.5C 103.233,34.1739 103.899,37.8406 104.5,41.5C 100.182,46.3194 97.8482,45.4861 97.5,39C 97.9339,35.7668 98.6006,32.6002 99.5,29.5 Z"/></g>
<g><path style="opacity:1" fill="#6C777C" d="M 125.5,37.5 C 127.936,37.317 130.103,37.9837 132,39.5C 132.448,41.4089 131.615,42.5756 129.5,43C 131.134,43.4935 132.801,43.6602 134.5,43.5C 135.798,47.5504 136.965,51.5504 138,55.5C 127.515,51.0051 116.681,47.5051 105.5,45C 112.16,42.173 118.827,39.673 125.5,37.5 Z"/></g>
<g><path style="opacity:1" fill="#5A905E" d="M 112.5,50.5 C 112.917,49.8761 113.584,49.5427 114.5,49.5C 119.198,50.8992 123.864,52.3992 128.5,54C 126.833,54.6667 125.167,54.6667 123.5,54C 119.835,52.7222 116.168,51.5555 112.5,50.5 Z"/></g>
<g><path style="opacity:1" fill="#707C81" d="M 105.5,50.5 C 117.378,54.5719 129.378,58.0719 141.5,61C 143.741,62.7391 145.408,64.9058 146.5,67.5C 135.412,69.7503 124.412,72.417 113.5,75.5C 107.872,67.9495 105.205,59.6162 105.5,50.5 Z"/></g>
<g><path style="opacity:1" fill="#F2CAA0" d="M 145.5,70.5 C 146.955,74.3185 146.622,77.9852 144.5,81.5C 142.36,83.7005 140.86,86.3672 140,89.5C 136.601,92.7289 133.435,96.0622 130.5,99.5C 129.064,101.319 127.397,101.652 125.5,100.5C 123.036,97.7229 121.036,94.7229 119.5,91.5C 118.022,91.762 116.689,91.4287 115.5,90.5C 116.95,89.1502 117.617,87.4835 117.5,85.5C 119.647,82.7308 122.314,80.3975 125.5,78.5C 126.63,77.3777 127.297,76.0443 127.5,74.5C 129.144,74.2865 130.644,74.6198 132,75.5C 132.748,79.5094 134.248,83.1761 136.5,86.5C 139.805,84.5741 140.471,81.9075 138.5,78.5C 138.772,76.0222 139.438,73.6889 140.5,71.5C 142.117,70.962 143.784,70.6287 145.5,70.5 Z"/></g>
<g><path style="opacity:1" fill="#7C513B" d="M 145.5,70.5 C 146.978,70.238 148.311,70.5713 149.5,71.5C 151.267,74.9745 152.933,78.4745 154.5,82C 152.114,83.1932 149.78,84.3599 147.5,85.5C 146.5,84.1667 145.5,82.8333 144.5,81.5C 146.622,77.9852 146.955,74.3185 145.5,70.5 Z"/></g>
<g><path style="opacity:1" fill="#82543B" d="M 140.5,71.5 C 139.438,73.6889 138.772,76.0222 138.5,78.5C 140.471,81.9075 139.805,84.5741 136.5,86.5C 134.248,83.1761 132.748,79.5094 132,75.5C 130.644,74.6198 129.144,74.2865 127.5,74.5C 131.575,72.8816 135.908,71.8816 140.5,71.5 Z"/></g>
<g><path style="opacity:1" fill="#000000" d="M 142.5,74.5 C 144.898,75.8823 145.065,77.549 143,79.5C 141.964,77.701 141.797,76.0343 142.5,74.5 Z"/></g>
<g><path style="opacity:1" fill="#707C81" d="M 177.5,92.5 C 177.909,86.9883 175.909,82.655 171.5,79.5C 172.242,76.8619 174.075,75.5286 177,75.5C 180.255,77.0983 183.255,76.765 186,74.5C 187.811,75.0779 189.645,75.5779 191.5,76C 187.345,76.7175 183.512,78.2175 180,80.5C 178.008,86.213 178.175,91.8797 180.5,97.5C 180.167,98.1667 179.833,98.8333 179.5,99.5C 178.832,97.0312 178.165,94.6979 177.5,92.5 Z"/></g>
<g><path style="opacity:1" fill="#C6843E" d="M 127.5,74.5 C 127.297,76.0443 126.63,77.3777 125.5,78.5C 122.314,80.3975 119.647,82.7308 117.5,85.5C 113.771,83.4635 113.604,81.1301 117,78.5C 117.333,79.1667 117.667,79.8333 118,80.5C 118.741,79.3595 119.575,79.3595 120.5,80.5C 121.031,77.0424 123.364,75.0424 127.5,74.5 Z"/></g>
<g><path style="opacity:1" fill="#454140" d="M 171.5,79.5 C 175.909,82.655 177.909,86.9883 177.5,92.5C 177.5,95.1667 177.5,97.8333 177.5,100.5C 176.448,100.649 175.448,100.483 174.5,100C 175.944,98.874 176.61,97.374 176.5,95.5C 174.782,86.0988 169.448,81.0988 160.5,80.5C 157.979,77.1993 158.313,74.1993 161.5,71.5C 164.418,73.0084 165.084,75.1751 163.5,78C 166.254,78.2724 168.921,78.7724 171.5,79.5 Z"/></g>
<g><path style="opacity:1" fill="#DD9342" d="M 144.5,81.5 C 145.5,82.8333 146.5,84.1667 147.5,85.5C 147.69,87.9589 146.69,89.6255 144.5,90.5C 140.817,94.1803 136.817,97.5136 132.5,100.5C 131.508,100.672 130.842,100.338 130.5,99.5C 133.435,96.0622 136.601,92.7289 140,89.5C 140.86,86.3672 142.36,83.7005 144.5,81.5 Z"/></g>
<g><path style="opacity:1" fill="#616A6E" d="M 157.5,82.5 C 166.576,82.2194 172.242,86.5528 174.5,95.5C 173.781,97.7277 172.448,99.561 170.5,101C 166.162,102.836 161.828,104.67 157.5,106.5C 155.432,106.033 153.432,105.366 151.5,104.5C 148.439,99.0212 147.939,93.3545 150,87.5C 152.273,85.3718 154.773,83.7051 157.5,82.5 Z"/></g>
<g><path style="opacity:1" fill="#6B757A" d="M 188.5,77.5 C 195.608,75.6211 199.275,78.2877 199.5,85.5C 197.801,85.3398 196.134,85.5065 194.5,86C 200.712,86.1149 203.045,89.1149 201.5,95C 199.167,96.1667 196.833,97.3333 194.5,98.5C 193.833,97.8333 193.167,97.1667 192.5,96.5C 190.591,97.3482 188.591,97.6816 186.5,97.5C 185.986,95.4884 185.82,93.4884 186,91.5C 187.833,90.3333 189.667,89.1667 191.5,88C 189.265,86.643 186.931,86.8096 184.5,88.5C 183.692,88.1924 183.025,87.6924 182.5,87C 185.167,85.6667 187.833,84.3333 190.5,83C 178.085,84.3105 177.419,82.4771 188.5,77.5 Z"/></g>
<g><path style="opacity:1" fill="#fefffe" d="M 144.5,90.5 C 146.549,90.7058 146.883,91.5391 145.5,93C 140.714,96.1179 136.214,99.6179 132,103.5C 131.53,102.423 131.697,101.423 132.5,100.5C 136.817,97.5136 140.817,94.1803 144.5,90.5 Z"/></g>
<g><path style="opacity:1" fill="#E0E1E0" d="M 101.5,99.5 C 104.109,93.2965 105.776,93.2965 106.5,99.5C 104.833,99.5 103.167,99.5 101.5,99.5 Z"/></g>
<g><path style="opacity:1" fill="#CBCBCB" d="M 101.5,99.5 C 102.919,100.451 104.585,100.784 106.5,100.5C 106.5,101.5 106.5,102.5 106.5,103.5C 105.5,103.5 104.5,103.5 103.5,103.5C 101.833,103.5 100.167,103.5 98.5,103.5C 97.0222,103.762 95.6888,103.429 94.5,102.5C 95.2458,101.264 95.5792,99.9305 95.5,98.5C 97.5648,98.5172 99.5648,98.8505 101.5,99.5 Z"/></g>
<g><path style="opacity:1" fill="#707C81" d="M 205.5,152.5 C 205.244,154.776 203.91,155.943 201.5,156C 197.848,156.499 194.182,156.665 190.5,156.5C 188.653,147.451 186.486,138.451 184,129.5C 181.716,120.477 178.549,111.81 174.5,103.5C 177.044,102.574 179.544,101.574 182,100.5C 183.255,102.594 185.088,103.594 187.5,103.5C 191.62,102.524 195.453,100.858 199,98.5C 195.221,102.279 191.221,106.279 187,110.5C 185.496,114.039 185.163,117.705 186,121.5C 188.953,128.784 193.119,135.284 198.5,141C 200.351,141.837 202.184,142.671 204,143.5C 204.181,146.695 204.681,149.695 205.5,152.5 Z"/></g>
<g><path style="opacity:1" fill="#FFE2B2" d="M 121.5,110.5 C 120.5,110.5 119.5,110.5 118.5,110.5C 118.5,108.5 118.5,106.5 118.5,104.5C 117.127,104.657 115.793,104.49 114.5,104C 120.91,101.234 123.243,103.4 121.5,110.5 Z"/></g>
<g><path style="opacity:1" fill="#828A73" d="M 203.5,106.5 C 207.262,113.435 210.262,120.769 212.5,128.5C 212.405,130.786 211.738,132.786 210.5,134.5C 206.663,124.328 202.996,113.995 199.5,103.5C 199.56,102.957 199.893,102.624 200.5,102.5C 201.521,103.901 202.521,105.235 203.5,106.5 Z"/></g>
<g><path style="opacity:1" fill="#E0E1E0" d="M 98.5,103.5 C 100.167,103.5 101.833,103.5 103.5,103.5C 105.663,104.469 107.996,105.302 110.5,106C 107.964,106.186 105.631,106.686 103.5,107.5C 99.6286,107.185 95.9619,107.518 92.5,108.5C 86.9494,108.527 81.6161,109.194 76.5,110.5C 73.2869,110.19 70.2869,110.523 67.5,111.5C 61.9738,111.179 56.6405,111.512 51.5,112.5C 41.3059,112.513 31.3059,113.18 21.5,114.5C 19.076,114.808 16.7427,114.474 14.5,113.5C 35.4246,110.963 56.4246,109.129 77.5,108C 79.5364,107.546 81.3697,106.713 83,105.5C 88.6159,107.07 93.7826,106.403 98.5,103.5 Z"/></g>
<g><path style="opacity:1" fill="#474342" d="M 173.5,130.5 C 168.199,133.321 167.199,137.321 170.5,142.5C 173.034,143.777 175.534,143.777 178,142.5C 178.167,142.833 178.333,143.167 178.5,143.5C 176.955,144.452 175.288,144.785 173.5,144.5C 173.67,149.701 174.67,154.701 176.5,159.5C 178.32,158.117 180.32,157.117 182.5,156.5C 188.146,156.151 188.813,157.651 184.5,161C 181.228,162.723 177.894,163.223 174.5,162.5C 174,161.5 173.5,160.5 173,159.5C 168.494,144.138 163.994,128.804 159.5,113.5C 159.531,108.789 161.864,105.955 166.5,105C 169.331,103.083 171.831,103.583 174,106.5C 176.803,113.744 179.303,121.077 181.5,128.5C 178.694,129.168 176.028,129.834 173.5,130.5 Z"/></g>
<g><path style="opacity:1" fill="#F6FFE6" d="M 199.5,103.5 C 202.996,113.995 206.663,124.328 210.5,134.5C 210.063,136.074 209.063,137.241 207.5,138C 205.579,138.36 203.912,139.194 202.5,140.5C 201.5,140 200.5,139.5 199.5,139C 193.657,132.645 189.657,125.311 187.5,117C 187.542,115.033 188.042,113.199 189,111.5C 191.858,107.786 195.358,105.12 199.5,103.5 Z"/></g>
<g><path style="opacity:1" fill="#956555" d="M 125.5,115.5 C 124.518,114.859 123.518,114.193 122.5,113.5C 120.15,114.861 117.816,116.194 115.5,117.5C 109.485,115.925 103.319,114.925 97,114.5C 92.2084,115.717 87.375,116.217 82.5,116C 80.5253,113.908 78.5253,112.075 76.5,110.5C 81.6161,109.194 86.9494,108.527 92.5,108.5C 94.1667,108.5 95.8333,108.5 97.5,108.5C 97.2322,110.099 97.5655,111.432 98.5,112.5C 103.227,111.671 107.893,111.338 112.5,111.5C 112.567,110.041 112.234,108.708 111.5,107.5C 113.102,105.926 115.102,105.259 117.5,105.5C 117.216,107.415 117.549,109.081 118.5,110.5C 119.5,110.5 120.5,110.5 121.5,110.5C 122.309,108.708 122.809,106.708 123,104.5C 125.091,107.063 126.258,110.063 126.5,113.5C 126.457,114.416 126.124,115.083 125.5,115.5 Z"/></g>
<g><path style="opacity:1" fill="#FFFFFF" d="M 137.5,104.5 C 139.185,105.184 140.185,106.517 140.5,108.5C 136.597,110.368 132.764,112.368 129,114.5C 128.178,111.883 127.678,109.216 127.5,106.5C 131.122,106.678 134.456,106.011 137.5,104.5 Z"/></g>
<g><path style="opacity:1" fill="#F6FFE6" d="M 212.5,128.5 C 210.262,120.769 207.262,113.435 203.5,106.5C 203.517,104.972 204.184,104.472 205.5,105C 212.923,111.729 215.256,119.562 212.5,128.5 Z"/></g>
<g><path style="opacity:1" fill="#000000" d="M 92.5,108.5 C 95.9619,107.518 99.6286,107.185 103.5,107.5C 102.081,108.451 100.415,108.784 98.5,108.5C 98.5,109.833 98.5,111.167 98.5,112.5C 97.5655,111.432 97.2322,110.099 97.5,108.5C 95.8333,108.5 94.1667,108.5 92.5,108.5 Z"/></g>
<g><path style="opacity:1" fill="#fec90d" d="M 103.5,107.5 C 106.167,107.5 108.833,107.5 111.5,107.5C 112.234,108.708 112.567,110.041 112.5,111.5C 107.893,111.338 103.227,111.671 98.5,112.5C 98.5,111.167 98.5,109.833 98.5,108.5C 100.415,108.784 102.081,108.451 103.5,107.5 Z"/></g>
<g><path style="opacity:1" fill="#FFE2B2" d="M 67.5,111.5 C 71.1299,112.641 74.7965,113.808 78.5,115C 81.3327,118.328 83.666,121.995 85.5,126C 83.0988,131.607 80.0988,132.274 76.5,128C 70.672,126.057 65.0053,123.724 59.5,121C 63.1341,120.844 66.4674,119.844 69.5,118C 67.4148,116.959 65.7481,115.459 64.5,113.5C 65.6016,112.824 66.6016,112.158 67.5,111.5 Z"/></g>
<g><path style="opacity:1" fill="#81BC6D" d="M 148.5,144.5 C 154.119,145.708 159.785,146.208 165.5,146C 160.522,144.34 155.522,142.84 150.5,141.5C 150.5,140.833 150.5,140.167 150.5,139.5C 163.509,136.856 163.509,135.189 150.5,134.5C 150.766,130.395 150.266,126.395 149,122.5C 148.86,125.981 149.027,129.481 149.5,133C 149.536,135.63 149.036,138.13 148,140.5C 142.875,147.293 137.375,153.793 131.5,160C 130.216,160.684 129.049,160.517 128,159.5C 124.619,163.759 121.119,167.926 117.5,172C 115.167,172.667 112.833,172.667 110.5,172C 104.333,165.833 98.1667,159.667 92,153.5C 91.7817,151.232 90.9484,149.232 89.5,147.5C 90.1667,146.5 90.8333,145.5 91.5,144.5C 94.4552,143.841 97.4552,143.508 100.5,143.5C 101.309,141.708 101.809,139.708 102,137.5C 109.73,146.054 115.73,145.054 120,134.5C 124.92,129.163 128.42,122.996 130.5,116C 135.931,112.076 141.931,110.409 148.5,111C 151.981,111.905 154.981,113.571 157.5,116C 162.021,128.583 165.688,141.417 168.5,154.5C 159.711,155.137 151.711,152.97 144.5,148C 145.705,146.624 147.038,145.458 148.5,144.5 Z"/></g>
<g><path style="opacity:1" fill="#996856" d="M 51.5,112.5 C 55.1667,112.5 58.8333,112.5 62.5,112.5C 62.2965,114.39 62.9632,115.89 64.5,117C 48.157,117.338 31.8236,117.838 15.5,118.5C 15.5,117.5 15.5,116.5 15.5,115.5C 17.7354,115.795 19.7354,115.461 21.5,114.5C 31.3059,113.18 41.3059,112.513 51.5,112.5 Z"/></g>
<g><path style="opacity:1" fill="#FFDFA7" d="M 125.5,115.5 C 123.216,119.611 119.716,121.944 115,122.5C 113.342,122.325 112.009,121.658 111,120.5C 110.667,120.833 110.333,121.167 110,121.5C 109.833,119 111,117.833 113.5,118C 112.304,118.654 112.304,119.154 113.5,119.5C 114.522,119.145 115.189,118.478 115.5,117.5C 117.816,116.194 120.15,114.861 122.5,113.5C 123.518,114.193 124.518,114.859 125.5,115.5 Z"/></g>
<g><path style="opacity:1" fill="#707C81" d="M 100.5,117.5 C 102.833,117.5 105.167,117.5 107.5,117.5C 107.247,123.675 106.08,129.675 104,135.5C 102.748,133.999 101.748,132.332 101,130.5C 100.501,126.179 100.334,121.846 100.5,117.5 Z"/></g>
<g><path style="opacity:1" fill="#494644" d="M 124.5,117.5 C 125.497,117.47 126.164,117.97 126.5,119C 125.291,123.418 123.291,127.418 120.5,131C 116.658,130.995 113.158,129.828 110,127.5C 109.423,124.54 110.423,123.874 113,125.5C 118.573,125.145 122.406,122.479 124.5,117.5 Z"/></g>
<g><path style="opacity:1" fill="#fefffe" d="M 47.5,123.5 C 49.5273,123.338 51.5273,123.505 53.5,124C 58.5009,128 64.1676,130.666 70.5,132C 71.2744,134.405 71.7744,136.905 72,139.5C 74.8333,143 77.6667,146.5 80.5,150C 71.0202,152.848 62.8536,150.348 56,142.5C 54.7401,138.923 53.0734,135.589 51,132.5C 48.086,131.252 46.2527,129.086 45.5,126C 46.0556,124.989 46.7222,124.156 47.5,123.5 Z M 49.5,125.5 C 49.3893,126.117 49.056,126.617 48.5,127C 50.0905,128.046 51.5905,129.213 53,130.5C 55.0734,133.589 56.7401,136.923 58,140.5C 62.9137,146.209 69.0804,149.042 76.5,149C 71.586,145.114 68.9193,140.114 68.5,134C 61.6108,132.218 55.2774,129.385 49.5,125.5 Z"/></g>
<g><path style="opacity:1" fill="#6E777C" d="M 98.5,140.5 C 95.7823,141.104 93.449,142.437 91.5,144.5C 90.1667,144.833 88.8333,145.167 87.5,145.5C 86.0689,144.918 84.7356,144.085 83.5,143C 83.8333,142.667 84.1667,142.333 84.5,142C 83.3333,141.5 82.5,140.667 82,139.5C 81.0862,140.654 80.2529,140.487 79.5,139C 80.1667,138.667 80.8333,138.333 81.5,138C 80.3333,137.5 79.5,136.667 79,135.5C 78.0862,136.654 77.2529,136.487 76.5,135C 79.0062,133.701 81.6728,132.701 84.5,132C 85.8078,129.205 87.4745,126.705 89.5,124.5C 91.8062,127.473 94.4728,130.14 97.5,132.5C 98.48,135.086 98.8134,137.753 98.5,140.5 Z"/></g>
<g><path style="opacity:1" fill="#6C767C" d="M 41.5,135.5 C 41.1667,136.5 40.5,137.167 39.5,137.5C 38.5,137.5 37.5,137.5 36.5,137.5C 36.026,133.719 34.3593,130.552 31.5,128C 32.8333,127.667 34.1667,127.333 35.5,127C 32.9973,126.871 30.9973,125.871 29.5,124C 30.1667,123.667 30.8333,123.333 31.5,123C 30.376,122.751 29.376,122.251 28.5,121.5C 31.5063,120.252 34.5063,120.252 37.5,121.5C 38.7388,123.007 38.4054,124.174 36.5,125C 38.3333,125.5 39.5,126.667 40,128.5C 40.4497,130.519 41.283,132.352 42.5,134C 41.944,134.383 41.6107,134.883 41.5,135.5 Z"/></g>
<g><path style="opacity:1" fill="#fefffe" d="M 100.5,143.5 C 97.4552,143.508 94.4552,143.841 91.5,144.5C 93.449,142.437 95.7823,141.104 98.5,140.5C 99.3195,137.695 99.8195,134.695 100,131.5C 100.499,135.486 100.666,139.486 100.5,143.5 Z"/></g>
<g><path style="opacity:1" fill="#5A905E" d="M 150.5,134.5 C 163.509,135.189 163.509,136.856 150.5,139.5C 150.5,137.833 150.5,136.167 150.5,134.5 Z"/></g>
<g><path style="opacity:1" fill="#6F7A80" d="M 173.5,130.5 C 175.833,130.5 178.167,130.5 180.5,130.5C 180.687,132.564 181.187,134.564 182,136.5C 182.333,135.833 182.667,135.167 183,134.5C 184.942,141.49 186.776,148.49 188.5,155.5C 186.265,155.205 184.265,155.539 182.5,156.5C 180.32,157.117 178.32,158.117 176.5,159.5C 174.67,154.701 173.67,149.701 173.5,144.5C 175.288,144.785 176.955,144.452 178.5,143.5C 178.333,143.167 178.167,142.833 178,142.5C 175.534,143.777 173.034,143.777 170.5,142.5C 167.199,137.321 168.199,133.321 173.5,130.5 Z"/></g>
<g><path style="opacity:1" fill="#fec90d" d="M 41.5,135.5 C 45.5,134.833 47.1667,136.5 46.5,140.5C 44.1815,140.992 42.1815,141.992 40.5,143.5C 39.5207,142.235 38.5207,140.901 37.5,139.5C 38.2427,138.818 38.9094,138.151 39.5,137.5C 40.5,137.167 41.1667,136.5 41.5,135.5 Z"/></g>
<g><path style="opacity:1" fill="#6F7A80" d="M 205.5,152.5 C 205.336,149.813 205.503,147.146 206,144.5C 206.333,146.5 206.667,148.5 207,150.5C 207.333,147.167 207.667,143.833 208,140.5C 209.154,139.257 210.488,138.257 212,137.5C 214.35,141.359 215.517,145.359 215.5,149.5C 212.706,151.262 209.872,152.928 207,154.5C 206.722,153.584 206.222,152.918 205.5,152.5 Z"/></g>
<g><path style="opacity:1" fill="#626B6F" d="M 46.5,140.5 C 50.0703,141.256 50.7369,142.589 48.5,144.5C 48.1667,145.5 47.5,146.167 46.5,146.5C 43.246,148.207 41.246,147.207 40.5,143.5C 42.1815,141.992 44.1815,140.992 46.5,140.5 Z"/></g>
<g><path style="opacity:1" fill="#5A905E" d="M 150.5,141.5 C 155.522,142.84 160.522,144.34 165.5,146C 159.785,146.208 154.119,145.708 148.5,144.5C 148.427,142.973 149.094,141.973 150.5,141.5 Z"/></g>
<g><path style="opacity:1" fill="#fec90d" d="M 48.5,144.5 C 49.8333,144.5 50.5,145.167 50.5,146.5C 49.2905,146.932 48.2905,147.599 47.5,148.5C 45.3023,148.591 44.9689,147.925 46.5,146.5C 47.5,146.167 48.1667,145.5 48.5,144.5 Z"/></g>
<g><path style="opacity:1" fill="#fefffe" d="M 91.5,144.5 C 90.8333,145.5 90.1667,146.5 89.5,147.5C 87.0065,147.869 86.3398,147.203 87.5,145.5C 88.8333,145.167 90.1667,144.833 91.5,144.5 Z"/></g>
<g><path style="opacity:1" fill="#6F7A80" d="M 50.5,146.5 C 59.3205,155.829 69.9871,158.995 82.5,156C 84.6238,154.878 86.4571,153.378 88,151.5C 89.3654,152.593 89.6987,153.926 89,155.5C 77.692,163.319 66.192,163.486 54.5,156C 51.2608,154.264 48.9274,151.764 47.5,148.5C 48.2905,147.599 49.2905,146.932 50.5,146.5 Z"/></g>
<g><path style="opacity:1" fill="#707C81" d="M 142.5,150.5 C 151.391,154.888 160.724,157.388 170.5,158C 159.809,159.353 149.476,158.02 139.5,154C 140.71,152.961 141.71,151.794 142.5,150.5 Z"/></g>
<g><path style="opacity:1" fill="#fec90d" d="M 214.5,155.5 C 221.626,156.705 222.959,160.205 218.5,166C 212.657,167.359 210.157,165.192 211,159.5C 212.376,158.295 213.542,156.962 214.5,155.5 Z"/></g>
<g><path style="opacity:1" fill="#7EB76B" d="M 168.5,160.5 C 167.04,162.463 165.373,164.296 163.5,166C 166.61,167.524 169.944,168.358 173.5,168.5C 169.332,171.219 164.665,172.552 159.5,172.5C 155.459,172.327 151.459,171.827 147.5,171C 146.177,170.184 145.511,169.017 145.5,167.5C 147.924,167.808 150.257,167.474 152.5,166.5C 148.516,163.728 144.182,161.728 139.5,160.5C 137.623,159.171 137.456,157.838 139,156.5C 148.561,159.837 158.394,161.171 168.5,160.5 Z"/></g>
<g><path style="opacity:1" fill="#494644" d="M 205.5,156.5 C 206.239,156.369 206.906,156.536 207.5,157C 201.468,162.199 194.468,163.866 186.5,162C 187.5,161 188.5,160 189.5,159C 193.833,158.667 198.167,158.333 202.5,158C 203.737,157.768 204.737,157.268 205.5,156.5 Z"/></g>
<g><path style="opacity:1" fill="#A51E32" d="M 134.5,159.5 C 142.541,169.391 150.874,179.225 159.5,189C 162.706,191.034 166.04,192.867 169.5,194.5C 170.086,194.291 170.586,193.957 171,193.5C 172.116,197.288 171.45,200.622 169,203.5C 168.667,202.5 168.333,201.5 168,200.5C 153.217,190.551 141.383,177.885 132.5,162.5C 133.193,161.482 133.859,160.482 134.5,159.5 Z"/></g>
<g><path style="opacity:1" fill="#5A905E" d="M 139.5,160.5 C 144.182,161.728 148.516,163.728 152.5,166.5C 150.257,167.474 147.924,167.808 145.5,167.5C 142.8,165.766 140.8,163.432 139.5,160.5 Z"/></g>
<g><path style="opacity:1" fill="#5A905E" d="M 168.5,160.5 C 171.109,160.83 172.776,162.33 173.5,165C 178.174,166.469 182.841,166.969 187.5,166.5C 182.98,168.114 178.314,168.78 173.5,168.5C 169.944,168.358 166.61,167.524 163.5,166C 165.373,164.296 167.04,162.463 168.5,160.5 Z"/></g>
<g><path style="opacity:1" fill="#A51E32" d="M 191.5,164.5 C 192.5,164.5 193.5,164.5 194.5,164.5C 196.635,170.11 198.468,175.776 200,181.5C 196.171,179.538 192.837,176.871 190,173.5C 189.094,170.156 189.594,167.156 191.5,164.5 Z"/></g>
<g><path style="opacity:1" fill="#494644" d="M 183.5,169.5 C 184.833,169.5 186.167,169.5 187.5,169.5C 186.959,172.652 187.959,175.152 190.5,177C 186.695,178.079 183.362,177.412 180.5,175C 174.25,173.25 172.083,175.416 174,181.5C 169.213,185.903 163.713,186.736 157.5,184C 154.974,180.974 152.64,177.807 150.5,174.5C 150.833,174.167 151.167,173.833 151.5,173.5C 156.446,174.614 161.446,174.781 166.5,174C 172.031,171.461 177.698,169.961 183.5,169.5 Z"/></g>
<g><path style="opacity:1" fill="#484443" d="M 198.5,171.5 C 203.987,170.867 209.654,170.867 215.5,171.5C 218.873,178.603 221.873,185.936 224.5,193.5C 223.345,194.95 221.845,195.95 220,196.5C 216.678,193.883 213.345,193.55 210,195.5C 209.228,195.355 208.561,195.022 208,194.5C 207.144,190.456 205.478,186.789 203,183.5C 202.461,180.471 201.794,177.471 201,174.5C 200.623,173.058 199.79,172.058 198.5,171.5 Z"/></g>
<g><path style="opacity:1" fill="#F6FFE6" d="M 175.5,177.5 C 177.757,176.114 179.424,176.781 180.5,179.5C 176.823,183.02 173.657,187.02 171,191.5C 171.221,187.567 172.888,184.233 176,181.5C 176.765,179.934 176.598,178.601 175.5,177.5 Z"/></g>
<g><path style="opacity:1" fill="#9CD0DE" d="M 190.5,214.5 C 188.517,214.843 187.183,214.176 186.5,212.5C 187.404,211.791 187.737,210.791 187.5,209.5C 190.385,209.806 193.052,209.473 195.5,208.5C 197.072,207.313 198.739,206.313 200.5,205.5C 202.213,204.365 202.88,202.698 202.5,200.5C 203.532,192.778 200.532,187.278 193.5,184C 186.24,181.302 181.24,183.469 178.5,190.5C 177.223,191.694 176.556,193.36 176.5,195.5C 176.507,197.369 176.84,199.036 177.5,200.5C 177.443,201.609 177.11,202.609 176.5,203.5C 175.5,203.5 174.5,203.5 173.5,203.5C 171.509,193.346 174.842,185.513 183.5,180C 195.79,178.615 203.456,183.949 206.5,196C 205.707,200.231 204.541,204.398 203,208.5C 200.945,210.555 198.612,212.221 196,213.5C 195.667,213.167 195.333,212.833 195,212.5C 193.378,213.099 191.878,213.766 190.5,214.5 Z"/></g>
<g><path style="opacity:1" fill="#fec90d" d="M 137.5,181.5 C 139.903,181.393 141.736,182.393 143,184.5C 146.228,189.936 148.562,195.602 150,201.5C 145.569,207.84 140.569,208.174 135,202.5C 132.195,198.909 131.195,194.909 132,190.5C 133.662,187.351 135.495,184.351 137.5,181.5 Z"/></g>
<g><path style="opacity:1" fill="#B5F4FF" d="M 202.5,200.5 C 201.463,201.93 200.796,203.597 200.5,205.5C 198.739,206.313 197.072,207.313 195.5,208.5C 191.833,208.5 188.167,208.5 184.5,208.5C 182.957,206.443 181.957,206.443 181.5,208.5C 181.672,209.492 181.338,210.158 180.5,210.5C 177.215,208.964 175.881,206.631 176.5,203.5C 178.552,202.947 178.885,201.947 177.5,200.5C 177.342,197.098 177.676,193.764 178.5,190.5C 181.24,183.469 186.24,181.302 193.5,184C 200.532,187.278 203.532,192.778 202.5,200.5 Z"/></g>
<g><path style="opacity:1" fill="#5A905E" d="M 146.5,185.5 C 150.332,189.164 154.332,192.664 158.5,196C 156.413,196.792 154.579,197.959 153,199.5C 150.548,194.932 148.382,190.265 146.5,185.5 Z"/></g>
<g><path style="opacity:1" fill="#000000" d="M 138.5,186.5 C 139.376,186.369 140.043,186.702 140.5,187.5C 142.412,191.66 144.579,195.66 147,199.5C 147.684,200.784 147.517,201.951 146.5,203C 136.533,203.977 133.033,199.477 136,189.5C 137.045,188.627 137.878,187.627 138.5,186.5 Z"/></g>
<g><path style="opacity:1" fill="#FFEC8F" d="M 160.5,187.5 C 163.355,186.197 166.355,186.197 169.5,187.5C 168.902,188.795 168.402,190.128 168,191.5C 165.842,189.506 163.342,188.172 160.5,187.5 Z"/></g>
<g><path style="opacity:1" fill="#000000" d="M 178.5,190.5 C 177.676,193.764 177.342,197.098 177.5,200.5C 176.84,199.036 176.507,197.369 176.5,195.5C 176.556,193.36 177.223,191.694 178.5,190.5 Z"/></g>
<g><path style="opacity:1" fill="#FFEC8F" d="M 162.5,199.5 C 165.836,200.523 167.336,202.856 167,206.5C 175.517,218.234 186.35,221.4 199.5,216C 200.116,213.821 201.283,211.988 203,210.5C 202.981,214.151 202.481,217.818 201.5,221.5C 191.175,223.666 180.842,225.499 170.5,227C 168.929,221.291 166.762,215.791 164,210.5C 163.58,206.809 163.08,203.142 162.5,199.5 Z"/></g>
<g><path style="opacity:1" fill="#000000" d="M 177.5,200.5 C 178.885,201.947 178.552,202.947 176.5,203.5C 177.11,202.609 177.443,201.609 177.5,200.5 Z"/></g>
<g><path style="opacity:1" fill="#000000" d="M 202.5,200.5 C 202.88,202.698 202.213,204.365 200.5,205.5C 200.796,203.597 201.463,201.93 202.5,200.5 Z"/></g>
<g><path style="opacity:1" fill="#fec90d" d="M 153.5,201.5 C 155.099,202.799 155.599,204.465 155,206.5C 153.316,208.351 151.483,210.018 149.5,211.5C 148.359,209.579 148.192,207.579 149,205.5C 150.397,203.93 151.897,202.596 153.5,201.5 Z"/></g>
<g><path style="opacity:1" fill="#CBF5EE" d="M 158.5,201.5 C 159.75,201.577 160.583,202.244 161,203.5C 163.033,211.542 165.033,219.542 167,227.5C 164.248,219.497 161.082,211.664 157.5,204C 157.743,203.098 158.077,202.265 158.5,201.5 Z"/></g>
<g><path style="opacity:1" fill="#A51E32" d="M 190.5,214.5 C 192.527,214.338 194.527,214.505 196.5,215C 185.61,218.482 176.61,215.482 169.5,206C 170.275,204.77 171.275,204.437 172.5,205C 176.668,212.247 182.668,215.413 190.5,214.5 Z"/></g>
<g><path style="opacity:1" fill="#5A905E" d="M 206.5,204.5 C 209.279,206.302 209.112,207.969 206,209.5C 205.616,207.803 205.782,206.137 206.5,204.5 Z"/></g>
<g><path style="opacity:1" fill="#000000" d="M 184.5,208.5 C 183.5,208.5 182.5,208.5 181.5,208.5C 181.957,206.443 182.957,206.443 184.5,208.5 Z"/></g>
<g><path style="opacity:1" fill="#B7F7FF" d="M 181.5,208.5 C 182.5,208.5 183.5,208.5 184.5,208.5C 185.806,209.467 186.473,210.801 186.5,212.5C 184.214,212.405 182.214,211.738 180.5,210.5C 181.338,210.158 181.672,209.492 181.5,208.5 Z"/></g>
<g><path style="opacity:1" fill="#000000" d="M 184.5,208.5 C 188.167,208.5 191.833,208.5 195.5,208.5C 193.052,209.473 190.385,209.806 187.5,209.5C 187.737,210.791 187.404,211.791 186.5,212.5C 186.473,210.801 185.806,209.467 184.5,208.5 Z"/></g>
<g><path style="opacity:1" fill="#CBF5EE" d="M 157.5,235.5 C 152.108,245.282 146.941,255.282 142,265.5C 140.888,270.282 140.055,275.115 139.5,280C 142.458,295.257 145.125,310.424 147.5,325.5C 148.031,334.633 143.697,338.633 134.5,337.5C 133.228,337.43 132.062,337.097 131,336.5C 131.121,314.332 129.288,292.332 125.5,270.5C 126.046,266.314 127.213,262.314 129,258.5C 135.41,244.016 142.076,229.682 149,215.5C 152.145,222.113 154.978,228.78 157.5,235.5 Z"/></g>
<g><path style="opacity:1" fill="#707C81" d="M 162.5,222.5 C 166.133,232.238 169.3,242.238 172,252.5C 176.892,263.842 181.392,275.342 185.5,287C 184.303,288.52 182.803,289.687 181,290.5C 173.065,269.528 165.232,248.528 157.5,227.5C 158.882,225.451 160.548,223.785 162.5,222.5 Z"/></g>
<g><path style="opacity:1" fill="#C7EFE9" d="M 203.5,324.5 C 205.07,316.53 204.403,308.864 201.5,301.5C 200.833,297.833 200.167,294.167 199.5,290.5C 199.405,288.214 198.738,286.214 197.5,284.5C 196.566,283.432 196.232,282.099 196.5,280.5C 195.246,277.907 193.58,275.573 191.5,273.5C 195.263,272.299 198.93,270.799 202.5,269C 203.022,268.439 203.355,267.772 203.5,267C 198.471,263.376 192.804,261.209 186.5,260.5C 185.5,258.5 184.5,256.5 183.5,254.5C 187.175,255.057 190.841,255.724 194.5,256.5C 196.872,255.637 196.872,254.471 194.5,253C 190.423,250.295 186.09,248.128 181.5,246.5C 180.833,245.167 180.167,243.833 179.5,242.5C 183.947,243.427 188.281,244.76 192.5,246.5C 193.167,246.167 193.833,245.833 194.5,245.5C 189.891,242.03 184.891,239.363 179.5,237.5C 181.882,234.452 184.548,231.785 187.5,229.5C 190.305,231.793 193.471,233.459 197,234.5C 197.5,234.167 198,233.833 198.5,233.5C 197.576,230.591 196.243,227.924 194.5,225.5C 197.137,224.836 199.803,224.169 202.5,223.5C 204.9,231.664 206.734,239.997 208,248.5C 209.17,254.359 211.67,259.526 215.5,264C 214.978,264.561 214.645,265.228 214.5,266C 217.861,272.753 220.027,279.92 221,287.5C 221.442,299.531 221.775,311.531 222,323.5C 221.5,324 221,324.5 220.5,325C 215.714,325.216 211.047,326.05 206.5,327.5C 204.484,327.484 203.484,326.484 203.5,324.5 Z"/></g>
<g><path style="opacity:1" fill="#84B0AE" d="M 194.5,225.5 C 196.243,227.924 197.576,230.591 198.5,233.5C 198,233.833 197.5,234.167 197,234.5C 193.471,233.459 190.305,231.793 187.5,229.5C 188.445,226.013 190.778,224.68 194.5,225.5 Z"/></g>
<g><path style="opacity:1" fill="#A7D1CE" d="M 179.5,227.5 C 181.199,227.34 182.866,227.506 184.5,228C 181.5,231.667 178.5,235.333 175.5,239C 174.128,239.402 172.795,239.902 171.5,240.5C 170.093,237.279 169.093,233.945 168.5,230.5C 172.397,229.945 176.063,228.945 179.5,227.5 Z"/></g>
<g><path style="opacity:1" fill="#B8DCD7" d="M 157.5,235.5 C 158.87,237.25 159.87,239.25 160.5,241.5C 159.504,241.414 158.671,241.748 158,242.5C 156.5,245.5 155,248.5 153.5,251.5C 153.833,251.833 154.167,252.167 154.5,252.5C 156.823,250.935 159.156,249.768 161.5,249C 156.313,254.686 151.313,260.519 146.5,266.5C 146.667,266.833 146.833,267.167 147,267.5C 152.706,262.29 158.539,257.29 164.5,252.5C 165.658,253.95 165.158,254.95 163,255.5C 162.153,257.193 161.32,258.86 160.5,260.5C 155.702,264.797 151.035,269.297 146.5,274C 150.339,273.086 154.006,271.586 157.5,269.5C 157.145,273.65 155.812,277.317 153.5,280.5C 149.924,279.187 146.258,278.687 142.5,279C 145.642,281.904 149.309,283.738 153.5,284.5C 152.391,285.29 151.058,285.79 149.5,286C 150.416,286.374 151.25,286.874 152,287.5C 152.539,290.529 153.206,293.529 154,296.5C 153.53,306.812 153.53,317.145 154,327.5C 154.557,329.615 155.391,331.615 156.5,333.5C 155.965,335.101 154.965,335.601 153.5,335C 150.773,332.145 148.773,328.978 147.5,325.5C 145.125,310.424 142.458,295.257 139.5,280C 140.055,275.115 140.888,270.282 142,265.5C 146.941,255.282 152.108,245.282 157.5,235.5 Z"/></g>
<g><path style="opacity:1" fill="#84B0AE" d="M 179.5,237.5 C 184.891,239.363 189.891,242.03 194.5,245.5C 193.833,245.833 193.167,246.167 192.5,246.5C 188.281,244.76 183.947,243.427 179.5,242.5C 179.047,241.542 178.381,240.708 177.5,240C 178.381,239.292 179.047,238.458 179.5,237.5 Z"/></g>
<g><path style="opacity:1" fill="#84B0AE" d="M 181.5,246.5 C 186.09,248.128 190.423,250.295 194.5,253C 196.872,254.471 196.872,255.637 194.5,256.5C 190.841,255.724 187.175,255.057 183.5,254.5C 182.25,251.994 181.584,249.327 181.5,246.5 Z"/></g>
<g><path style="opacity:1" fill="#84B0AF" d="M 160.5,241.5 C 162.109,245.054 163.442,248.721 164.5,252.5C 158.539,257.29 152.706,262.29 147,267.5C 146.833,267.167 146.667,266.833 146.5,266.5C 151.313,260.519 156.313,254.686 161.5,249C 159.156,249.768 156.823,250.935 154.5,252.5C 154.167,252.167 153.833,251.833 153.5,251.5C 155,248.5 156.5,245.5 158,242.5C 158.671,241.748 159.504,241.414 160.5,241.5 Z"/></g>
<g><path style="opacity:1" fill="#85B1B0" d="M 160.5,260.5 C 159.735,263.67 158.735,266.67 157.5,269.5C 154.006,271.586 150.339,273.086 146.5,274C 151.035,269.297 155.702,264.797 160.5,260.5 Z"/></g>
<g><path style="opacity:1" fill="#84B0AE" d="M 186.5,260.5 C 192.804,261.209 198.471,263.376 203.5,267C 203.355,267.772 203.022,268.439 202.5,269C 198.93,270.799 195.263,272.299 191.5,273.5C 188.86,269.586 187.193,265.252 186.5,260.5 Z"/></g>
<g><path style="opacity:1" fill="#84B0AE" d="M 153.5,280.5 C 153.5,281.833 153.5,283.167 153.5,284.5C 149.309,283.738 145.642,281.904 142.5,279C 146.258,278.687 149.924,279.187 153.5,280.5 Z"/></g>
<g><path style="opacity:1" fill="#CBF5EE" d="M 196.5,280.5 C 196.232,282.099 196.566,283.432 197.5,284.5C 197.587,287.598 197.087,287.932 196,285.5C 195.22,283.613 195.387,281.946 196.5,280.5 Z"/></g>
<g><path style="opacity:1" fill="#fec90d" d="M 184.5,290.5 C 185.75,290.577 186.583,291.244 187,292.5C 188.601,297.804 190.101,303.138 191.5,308.5C 191.297,310.208 190.464,311.541 189,312.5C 185.544,306.75 183.044,300.584 181.5,294C 182.071,292.401 183.071,291.234 184.5,290.5 Z"/></g>
<g><path style="opacity:1" fill="#CBF5EE" d="M 199.5,290.5 C 200.167,294.167 200.833,297.833 201.5,301.5C 199.109,298.037 198.442,294.371 199.5,290.5 Z"/></g>
<g><path style="opacity:1" fill="#CBF5EE" d="M 201.5,301.5 C 204.403,308.864 205.07,316.53 203.5,324.5C 202.778,324.918 202.278,325.584 202,326.5C 201.5,318.173 201.334,309.84 201.5,301.5 Z"/></g>
<g><path style="opacity:1" fill="#707A80" d="M 148.5,333.5 C 151.852,335.458 153.352,338.458 153,342.5C 154.973,345.464 156.473,348.631 157.5,352C 156.325,355.337 154.159,356.171 151,354.5C 150,357.167 149,357.167 148,354.5C 147.517,355.448 147.351,356.448 147.5,357.5C 142.464,357.412 137.464,356.912 132.5,356C 130.221,355.527 128.221,354.527 126.5,353C 129.042,348.749 131.709,344.582 134.5,340.5C 137.687,339.135 141.02,338.301 144.5,338C 146.644,337.208 147.977,335.708 148.5,333.5 Z"/></g>
<g><path style="opacity:1" fill="#6E797F" d="M 218.5,327.5 C 220.225,327.843 220.725,328.843 220,330.5C 211.155,333.954 211.655,336.121 221.5,337C 217.551,337.807 217.551,338.307 221.5,338.5C 221.855,341.067 222.521,343.567 223.5,346C 212.673,350.55 203.006,348.55 194.5,340C 197.948,338.073 201.615,336.739 205.5,336C 204.065,333.733 204.398,331.733 206.5,330C 208.899,329.289 211.232,329.456 213.5,330.5C 215.396,329.725 217.063,328.725 218.5,327.5 Z"/></g>
</svg>
