<?xml version="1.0" encoding="UTF-8"?>
<!DOCTYPE svg PUBLIC "-//W3C//DTD SVG 1.1//EN" "http://www.w3.org/Graphics/SVG/1.1/DTD/svg11.dtd">
<svg xmlns="http://www.w3.org/2000/svg" version="1.1" width="243px" height="264px" style="shape-rendering:geometricPrecision; text-rendering:geometricPrecision; image-rendering:optimizeQuality; fill-rule:evenodd; clip-rule:evenodd" xmlns:xlink="http://www.w3.org/1999/xlink">
<g><path style="opacity:1" fill="#fefefe" d="M 108.5,-0.5 C 112.167,-0.5 115.833,-0.5 119.5,-0.5C 122.902,5.9147 123.235,12.4147 120.5,19C 121.61,21.7227 122.276,24.5561 122.5,27.5C 120.192,37.3032 119.025,47.3032 119,57.5C 121.954,58.7818 123.787,60.9484 124.5,64C 124.505,66.1628 123.505,67.6628 121.5,68.5C 120.904,72.3435 119.904,76.0101 118.5,79.5C 123.869,85.2764 124.869,91.7764 121.5,99C 122.104,101.584 122.937,104.084 124,106.5C 135.877,101.479 147.71,96.3128 159.5,91C 170.549,88.5578 174.049,92.7245 170,103.5C 168.878,105.624 167.378,107.457 165.5,109C 156.622,113.606 147.622,117.939 138.5,122C 136.5,124 134.5,126 132.5,128C 126.832,129.427 121.165,130.76 115.5,132C 114.773,134.124 114.106,136.291 113.5,138.5C 116.421,140.089 119.421,141.589 122.5,143C 124.062,147.991 126.895,152.157 131,155.5C 131.667,161.5 131.667,167.5 131,173.5C 129.953,175.762 128.787,177.929 127.5,180C 131.979,190.082 133.479,200.582 132,211.5C 131.434,215.965 129.767,219.965 127,223.5C 126.788,228.81 125.955,233.977 124.5,239C 127.063,241.53 129.897,243.697 133,245.5C 135.052,257.103 130.219,261.269 118.5,258C 112.642,255.712 106.642,254.046 100.5,253C 98.9095,251.954 97.4095,250.787 96,249.5C 95.3333,245.5 95.3333,241.5 96,237.5C 98.1578,228.247 99.9911,218.914 101.5,209.5C 98.6755,209.919 96.5088,208.919 95,206.5C 94.3333,200.5 93.6667,194.5 93,188.5C 90.3167,185.984 87.8167,183.317 85.5,180.5C 75.6589,192.495 69.1589,206.162 66,221.5C 64,224.833 62,228.167 60,231.5C 59.2508,235.251 58.2508,238.918 57,242.5C 53.4921,246.341 49.6588,249.841 45.5,253C 39.5851,254.527 33.5851,254.861 27.5,254C 23.7663,245.733 25.2663,238.566 32,232.5C 38.2807,211.711 43.7807,190.711 48.5,169.5C 48.3333,168.833 48.1667,168.167 48,167.5C 42.4084,171.43 36.5751,174.93 30.5,178C 26.8333,178.667 23.1667,178.667 19.5,178C 13.9359,171.093 12.1026,163.259 14,154.5C 19.4835,151.503 25.3169,149.503 31.5,148.5C 30.6607,140.463 29.494,132.463 28,124.5C 27.3333,118.5 27.3333,112.5 28,106.5C 36.6381,99.0167 45.6381,92.0167 55,85.5C 56.596,79.5918 59.4294,74.4252 63.5,70C 68.1561,69.3345 72.8228,68.8345 77.5,68.5C 78.0255,64.064 79.0255,59.7307 80.5,55.5C 77.0485,45.0374 74.8818,34.3707 74,23.5C 74.9025,22.2986 76.0692,21.4652 77.5,21C 88.1334,19.8045 98.8001,19.3045 109.5,19.5C 108.753,14.7645 107.753,10.0978 106.5,5.5C 106.363,3.15949 107.03,1.15949 108.5,-0.5 Z M 57.5,119.5 C 60.1203,124.376 60.1203,129.376 57.5,134.5C 56.7348,130.675 56.0681,126.842 55.5,123C 55.9783,121.697 56.645,120.531 57.5,119.5 Z"/></g>
<g><path style="opacity:1" fill="#010101" d="M 111.5,1.5 C 117.089,1.58571 119.756,4.58571 119.5,10.5C 117.851,16.3142 118.185,21.9809 120.5,27.5C 118.391,37.1728 116.725,47.0062 115.5,57C 117.154,59.9875 119.487,62.3208 122.5,64C 120.641,65.9814 118.308,66.9814 115.5,67C 117.152,68.47 118.152,70.3033 118.5,72.5C 117.214,74.6255 116.381,76.9589 116,79.5C 115.25,80.1258 114.416,80.6258 113.5,81C 121.755,84.4093 123.755,90.076 119.5,98C 119.849,101.244 120.515,104.41 121.5,107.5C 122.242,108.287 123.075,108.953 124,109.5C 136.483,104.004 148.983,98.504 161.5,93C 166.541,91.1908 168.875,92.8575 168.5,98C 168.608,101.913 166.941,104.913 163.5,107C 154.622,111.606 145.622,115.939 136.5,120C 134.5,122 132.5,124 130.5,126C 124.563,127.318 118.73,128.818 113,130.5C 111.715,134.172 111.548,137.839 112.5,141.5C 119.11,142.369 122.943,146.036 124,152.5C 125.667,154.167 127.333,155.833 129,157.5C 129.667,162.167 129.667,166.833 129,171.5C 127.939,174.562 126.106,177.062 123.5,179C 129.91,190.135 131.743,201.969 129,214.5C 127.92,216.996 126.586,219.33 125,221.5C 124.319,228.215 123.652,234.881 123,241.5C 125.488,243.743 128.154,245.743 131,247.5C 131.729,255.09 128.229,257.923 120.5,256C 114.642,253.712 108.642,252.046 102.5,251C 97.7762,248.565 96.2762,244.731 98,239.5C 100.064,232.668 101.397,225.668 102,218.5C 102.499,213.988 104.333,210.155 107.5,207C 106.5,203.667 105.5,203.667 104.5,207C 101.364,208.041 98.8637,207.207 97,204.5C 96.3333,198.5 95.6667,192.5 95,186.5C 91.2435,183.414 88.2435,179.748 86,175.5C 74.4905,187.997 67.1572,202.664 64,219.5C 62,222.833 60,226.167 58,229.5C 57.2508,233.251 56.2508,236.918 55,240.5C 51.4921,244.341 47.6588,247.841 43.5,251C 38.9241,252.476 34.2574,252.81 29.5,252C 27.6067,249.083 27.1067,245.916 28,242.5C 30,239.833 32,237.167 34,234.5C 41.6135,209.746 47.9468,184.746 53,159.5C 44.8909,167.295 35.5576,172.961 25,176.5C 22.9658,176.646 21.2991,175.98 20,174.5C 15.8796,168.806 14.7129,162.639 16.5,156C 22.2632,153.603 28.0965,151.436 34,149.5C 33.0024,140.508 31.669,131.508 30,122.5C 29.3333,117.833 29.3333,113.167 30,108.5C 38.7169,100.894 47.8835,93.8938 57.5,87.5C 58.3184,84.8929 58.8184,82.2263 59,79.5C 61.5402,77.2953 63.7068,74.7953 65.5,72C 71.5955,71.3617 77.5955,70.3617 83.5,69C 82.062,68.7811 80.7287,68.2811 79.5,67.5C 80.4566,63.4916 81.7899,59.6582 83.5,56C 80.1209,45.9846 77.6209,35.8179 76,25.5C 76.9025,24.2986 78.0692,23.4652 79.5,23C 90.4668,21.7913 101.467,21.2913 112.5,21.5C 111.376,16.5466 110.376,11.5466 109.5,6.5C 109.437,4.48607 110.103,2.81941 111.5,1.5 Z M 57.5,119.5 C 56.645,120.531 55.9783,121.697 55.5,123C 56.0681,126.842 56.7348,130.675 57.5,134.5C 60.1203,129.376 60.1203,124.376 57.5,119.5 Z"/></g>
<g><path style="opacity:1" fill="#eaeb31" d="M 117.5,10.5 C 115.708,10.634 114.042,10.3007 112.5,9.5C 111.378,7.71159 111.211,5.71159 112,3.5C 113.333,2.16667 114.667,2.16667 116,3.5C 116.977,5.73999 117.477,8.07332 117.5,10.5 Z"/></g>
<g><path style="opacity:1" fill="#1c8e25" d="M 112.5,9.5 C 114.042,10.3007 115.708,10.634 117.5,10.5C 116.126,26.0786 114.46,25.7452 112.5,9.5 Z"/></g>
<g><path style="opacity:1" fill="#1e1d1d" d="M 114.5,25.5 C 113.167,26.8333 113.167,28.1667 114.5,29.5C 102.389,28.0132 90.3894,28.6799 78.5,31.5C 78.7135,29.8561 78.3802,28.3561 77.5,27C 89.729,24.5803 102.062,24.0803 114.5,25.5 Z"/></g>
<g><path style="opacity:1" fill="#fe7f26" d="M 116.5,30.5 C 116.167,30.5 115.833,30.5 115.5,30.5C 115.5,29.8333 115.167,29.5 114.5,29.5C 113.167,28.1667 113.167,26.8333 114.5,25.5C 118.585,25.3497 119.252,27.0164 116.5,30.5 Z"/></g>
<g><path style="opacity:1" fill="#3c3c3c" d="M 115.5,30.5 C 115.833,30.5 116.167,30.5 116.5,30.5C 116.926,31.5279 116.926,32.8612 116.5,34.5C 113.478,34.804 110.478,35.304 107.5,36C 106.149,38.125 106.815,39.2917 109.5,39.5C 111.453,38.8444 113.453,38.5111 115.5,38.5C 115.5,39.5 115.5,40.5 115.5,41.5C 112.933,42.475 110.267,43.1417 107.5,43.5C 107.707,48.2836 110.04,51.2836 114.5,52.5C 114.5,53.5 114.5,54.5 114.5,55.5C 105.088,55.4362 95.7549,55.9362 86.5,57C 83.3258,49.146 80.9924,40.9793 79.5,32.5C 86.1535,31.5018 92.8202,30.5018 99.5,29.5C 104.8,30.3436 110.134,30.6769 115.5,30.5 Z"/></g>
<g><path style="opacity:1" fill="#fec90d" d="M 116.5,34.5 C 116.768,36.099 116.434,37.4324 115.5,38.5C 113.453,38.5111 111.453,38.8444 109.5,39.5C 106.815,39.2917 106.149,38.125 107.5,36C 110.478,35.304 113.478,34.804 116.5,34.5 Z"/></g>
<g><path style="opacity:1" fill="#fec90e" d="M 115.5,41.5 C 115.276,45.1788 114.942,48.8455 114.5,52.5C 110.04,51.2836 107.707,48.2836 107.5,43.5C 110.267,43.1417 112.933,42.475 115.5,41.5 Z"/></g>
<g><path style="opacity:1" fill="#1d1e1e" d="M 98.5,56.5 C 103.5,56.5 108.5,56.5 113.5,56.5C 114.091,59.6136 115.758,62.1136 118.5,64C 114.406,64.7673 110.406,64.434 106.5,63C 100.833,62.3333 95.1667,62.3333 89.5,63C 86.9664,63.5163 84.7998,64.683 83,66.5C 82.8253,63.8428 82.9919,61.1761 83.5,58.5C 88.7312,58.5557 93.7312,57.889 98.5,56.5 Z"/></g>
<g><path style="opacity:1" fill="#692a01" d="M 104.5,64.5 C 104.118,69.161 105.118,73.4943 107.5,77.5C 106.365,81.0387 104.532,81.372 102,78.5C 100.964,75.2473 100.297,71.914 100,68.5C 99.2917,67.6195 98.4584,66.9528 97.5,66.5C 95.8561,66.2865 94.3561,66.6198 93,67.5C 92.2967,69.9291 92.4634,72.2625 93.5,74.5C 92.145,77.5177 89.8116,78.851 86.5,78.5C 85.6453,74.1235 85.6453,69.7902 86.5,65.5C 92.4638,64.6932 98.4638,64.3599 104.5,64.5 Z"/></g>
<g><path style="opacity:1" fill="#ffc096" d="M 104.5,64.5 C 105.5,64.5 106.5,64.5 107.5,64.5C 108.665,67.5902 110.998,68.9236 114.5,68.5C 114.703,70.0443 115.37,71.3777 116.5,72.5C 114.816,73.1497 113.483,74.1497 112.5,75.5C 110.738,76.2623 109.738,77.5956 109.5,79.5C 109.712,81.3841 110.712,82.7174 112.5,83.5C 111.485,84.6815 110.319,85.6815 109,86.5C 105.416,84.7807 101.916,83.2807 98.5,82C 100.993,84.0803 103.659,85.9136 106.5,87.5C 106,87.8333 105.5,88.1667 105,88.5C 100.91,86.8031 96.7429,85.3031 92.5,84C 90.2368,82.383 88.2368,80.5497 86.5,78.5C 89.8116,78.851 92.145,77.5177 93.5,74.5C 94.601,75.7997 95.9343,76.2997 97.5,76C 94.4203,74.2894 93.2536,71.7894 94,68.5C 95,67.1667 96,67.1667 97,68.5C 97.4643,67.9056 97.631,67.2389 97.5,66.5C 98.4584,66.9528 99.2917,67.6195 100,68.5C 100.297,71.914 100.964,75.2473 102,78.5C 104.532,81.372 106.365,81.0387 107.5,77.5C 105.118,73.4943 104.118,69.161 104.5,64.5 Z"/></g>
<g><path style="opacity:1" fill="#9b5c32" d="M 107.5,64.5 C 109.414,65.1847 111.414,65.6847 113.5,66C 114.252,66.6708 114.586,67.5041 114.5,68.5C 110.998,68.9236 108.665,67.5902 107.5,64.5 Z"/></g>
<g><path style="opacity:1" fill="#000000" d="M 97.5,66.5 C 97.631,67.2389 97.4643,67.9056 97,68.5C 96,67.1667 95,67.1667 94,68.5C 93.2536,71.7894 94.4203,74.2894 97.5,76C 95.9343,76.2997 94.601,75.7997 93.5,74.5C 92.4634,72.2625 92.2967,69.9291 93,67.5C 94.3561,66.6198 95.8561,66.2865 97.5,66.5 Z"/></g>
<g><path style="opacity:1" fill="#fefffe" d="M 76.5,74.5 C 78.1852,75.1837 79.1852,76.517 79.5,78.5C 78.675,79.3857 77.675,79.719 76.5,79.5C 76.5,77.8333 76.5,76.1667 76.5,74.5 Z"/></g>
<g><path style="opacity:1" fill="#7e817d" d="M 68.5,75.5 C 70.5,75.5 72.5,75.5 74.5,75.5C 75.2189,80.1234 73.2189,82.79 68.5,83.5C 67.2706,80.8013 67.2706,78.1346 68.5,75.5 Z"/></g>
<g><path style="opacity:1" fill="#692901" d="M 112.5,75.5 C 114.686,75.5106 115.519,76.5106 115,78.5C 113.301,79.4061 111.467,79.7394 109.5,79.5C 109.738,77.5956 110.738,76.2623 112.5,75.5 Z"/></g>
<g><path style="opacity:1" fill="#eaeb31" d="M 66.5,82.5 C 64.5,82.5 62.5,82.5 60.5,82.5C 60.7007,78.65 62.5341,77.65 66,79.5C 66.4828,80.448 66.6495,81.448 66.5,82.5 Z"/></g>
<g><path style="opacity:1" fill="#eaeb31" d="M 83.5,79.5 C 86.2105,81.9446 89.0438,84.2779 92,86.5C 92.3301,89.866 91.9967,93.1994 91,96.5C 87.0188,91.6844 82.8521,87.0178 78.5,82.5C 80.1446,81.3037 81.8113,80.3037 83.5,79.5 Z"/></g>
<g><path style="opacity:1" fill="#4d9d13" d="M 60.5,82.5 C 62.5,82.5 64.5,82.5 66.5,82.5C 66.8333,83.8333 67.1667,85.1667 67.5,86.5C 65.1667,86.5 62.8333,86.5 60.5,86.5C 60.5,85.1667 60.5,83.8333 60.5,82.5 Z"/></g>
<g><path style="opacity:1" fill="#642b1c" d="M 75.5,82.5 C 86.542,93.0423 96.7087,104.376 106,116.5C 106.749,117.635 106.583,118.635 105.5,119.5C 96.5303,108.031 86.697,97.3639 76,87.5C 75.5065,85.8659 75.3398,84.1992 75.5,82.5 Z"/></g>
<g><path style="opacity:1" fill="#3b3c3b" d="M 64.5,114.5 C 65.9663,113.653 66.7996,112.32 67,110.5C 67.9719,103.865 68.6386,97.1987 69,90.5C 69.7953,87.8387 71.1286,85.5054 73,83.5C 72.9429,91.8525 72.2763,100.186 71,108.5C 69.4443,113.28 67.1109,117.613 64,121.5C 63.2967,119.071 63.4634,116.738 64.5,114.5 Z"/></g>
<g><path style="opacity:1" fill="#cada2b" d="M 118.5,87.5 C 116.716,87.8925 115.05,88.5592 113.5,89.5C 113.191,83.5308 114.857,82.8641 118.5,87.5 Z"/></g>
<g><path style="opacity:1" fill="#eaeb31" d="M 60.5,86.5 C 62.8333,86.5 65.1667,86.5 67.5,86.5C 67.5,87.5 67.5,88.5 67.5,89.5C 65.5,89.5 63.5,89.5 61.5,89.5C 60.8902,88.609 60.5569,87.609 60.5,86.5 Z"/></g>
<g><path style="opacity:1" fill="#4d9d13" d="M 118.5,87.5 C 119.404,88.209 119.737,89.209 119.5,90.5C 117.95,91.4408 116.284,92.1075 114.5,92.5C 114.167,92.5 113.833,92.5 113.5,92.5C 113.5,91.5 113.5,90.5 113.5,89.5C 115.05,88.5592 116.716,87.8925 118.5,87.5 Z"/></g>
<g><path style="opacity:1" fill="#4d9d13" d="M 61.5,89.5 C 63.5,89.5 65.5,89.5 67.5,89.5C 67.5,90.5 67.5,91.5 67.5,92.5C 65.8333,92.5 64.1667,92.5 62.5,92.5C 61.596,91.791 61.2627,90.791 61.5,89.5 Z"/></g>
<g><path style="opacity:1" fill="#3c3c3b" d="M 74.5,89.5 C 79.6381,95.7272 84.8048,102.061 90,108.5C 90.2927,111.869 88.7927,113.702 85.5,114C 82.0349,109.533 78.2016,105.367 74,101.5C 73.2375,97.4126 73.4042,93.4126 74.5,89.5 Z"/></g>
<g><path style="opacity:1" fill="#eaeb31" d="M 100.5,89.5 C 101.833,89.5 103.167,89.5 104.5,89.5C 104.649,90.552 104.483,91.552 104,92.5C 93.3376,101.003 92.1709,100.003 100.5,89.5 Z"/></g>
<g><path style="opacity:1" fill="#4d9d14" d="M 105.5,89.5 C 106.995,89.4148 107.995,90.0815 108.5,91.5C 105.948,96.5566 102.448,100.89 98,104.5C 96.8333,103.333 95.6667,102.167 94.5,101C 98.4402,99.1135 101.94,96.6135 105,93.5C 105.49,92.2068 105.657,90.8734 105.5,89.5 Z"/></g>
<g><path style="opacity:1" fill="#4c9b13" d="M 51.5,130.5 C 43.689,126.299 40.689,128.632 42.5,137.5C 41.5,137.5 40.5,137.5 39.5,137.5C 39.5,137.167 39.5,136.833 39.5,136.5C 40.625,135.652 40.625,134.652 39.5,133.5C 39.5,133.167 39.5,132.833 39.5,132.5C 40.625,131.652 40.625,130.652 39.5,129.5C 39.5,129.167 39.5,128.833 39.5,128.5C 40.625,127.652 40.625,126.652 39.5,125.5C 42.0728,125.852 44.4062,125.352 46.5,124C 44.0454,122.46 41.3787,122.126 38.5,123C 37.0577,123.377 36.0577,124.21 35.5,125.5C 35.6621,127.527 35.4955,129.527 35,131.5C 34.2214,124.833 33.8881,118.166 34,111.5C 41.963,104.024 50.2963,97.0243 59,90.5C 62.4715,95.9831 63.8048,101.983 63,108.5C 59.1789,111.743 55.1789,114.743 51,117.5C 50.2938,121.887 50.4604,126.22 51.5,130.5 Z"/></g>
<g><path style="opacity:1" fill="#eaeb31" d="M 119.5,90.5 C 119.267,92.0618 118.6,93.3951 117.5,94.5C 116.391,94.5569 115.391,94.8902 114.5,95.5C 114.5,94.5 114.5,93.5 114.5,92.5C 116.284,92.1075 117.95,91.4408 119.5,90.5 Z"/></g>
<g><path style="opacity:1" fill="#eaeb31" d="M 62.5,92.5 C 64.1667,92.5 65.8333,92.5 67.5,92.5C 67.5,93.5 67.5,94.5 67.5,95.5C 66.1667,95.5 64.8333,95.5 63.5,95.5C 62.8902,94.609 62.5569,93.609 62.5,92.5 Z"/></g>
<g><path style="opacity:1" fill="#3b3c3b" d="M 113.5,92.5 C 114.568,99.8847 114.402,107.218 113,114.5C 112.333,113.833 111.667,113.167 111,112.5C 110.17,106.804 110.337,101.137 111.5,95.5C 112.176,94.3984 112.842,93.3984 113.5,92.5 Z"/></g>
<g><path style="opacity:1" fill="#4d9d13" d="M 63.5,95.5 C 64.8333,95.5 66.1667,95.5 67.5,95.5C 67.5,96.5 67.5,97.5 67.5,98.5C 66.1667,98.5 64.8333,98.5 63.5,98.5C 63.5,97.5 63.5,96.5 63.5,95.5 Z"/></g>
<g><path style="opacity:1" fill="#3c3c3c" d="M 108.5,95.5 C 109.573,96.2506 109.74,97.2506 109,98.5C 107.056,102.11 104.723,105.443 102,108.5C 100.978,107.646 100.145,106.646 99.5,105.5C 103.234,102.769 106.234,99.4356 108.5,95.5 Z"/></g>
<g><path style="opacity:1" fill="#4c9b14" d="M 117.5,94.5 C 117.214,99.4545 118.047,104.454 120,109.5C 120.833,110.333 121.667,111.167 122.5,112C 119.898,112.977 117.398,114.144 115,115.5C 115.721,108.626 115.554,101.959 114.5,95.5C 115.391,94.8902 116.391,94.5569 117.5,94.5 Z"/></g>
<g><path style="opacity:1" fill="#fec90d" d="M 157.5,101.5 C 153.991,100.847 154.324,99.8472 158.5,98.5C 158.833,98.8333 159.167,99.1667 159.5,99.5C 158.757,100.182 158.091,100.849 157.5,101.5 Z"/></g>
<g><path style="opacity:1" fill="#554138" d="M 162.5,95.5 C 165.718,95.6509 166.051,96.4842 163.5,98C 166.084,100.134 165.75,101.968 162.5,103.5C 160.299,101.944 160.299,100.777 162.5,100C 160.018,98.5394 160.018,97.0394 162.5,95.5 Z"/></g>
<g><path style="opacity:1" fill="#9dc322" d="M 63.5,98.5 C 64.8333,98.5 66.1667,98.5 67.5,98.5C 67.4403,101.341 66.7736,104.007 65.5,106.5C 64.6295,103.997 63.9628,101.33 63.5,98.5 Z"/></g>
<g><path style="opacity:1" fill="#4d9c13" d="M 76.5,89.5 C 81.9843,95.0916 87.4843,100.758 93,106.5C 93.5628,107.725 93.2295,108.725 92,109.5C 86.5943,102.939 81.4276,96.2721 76.5,89.5 Z"/></g>
<g><path style="opacity:1" fill="#7e7f7e" d="M 153.5,103.5 C 146.528,105.989 139.861,108.989 133.5,112.5C 131.767,111.992 131.434,111.159 132.5,110C 139.282,107.442 145.949,104.609 152.5,101.5C 153.298,101.957 153.631,102.624 153.5,103.5 Z"/></g>
<g><path style="opacity:1" fill="#fec90d" d="M 157.5,101.5 C 161.414,103.109 161.247,104.775 157,106.5C 156.691,105.234 156.191,104.067 155.5,103C 156.416,102.722 157.082,102.222 157.5,101.5 Z"/></g>
<g><path style="opacity:1" fill="#4c9d13" d="M 72.5,102.5 C 77.1857,106.186 81.1857,110.52 84.5,115.5C 79.1321,121.849 72.4654,126.183 64.5,128.5C 64.3379,126.473 64.5045,124.473 65,122.5C 70.0289,116.777 72.5289,110.11 72.5,102.5 Z"/></g>
<g><path style="opacity:1" fill="#4d9d14" d="M 107.5,102.5 C 108.323,105.977 108.823,109.644 109,113.5C 111.326,114.713 111.659,116.046 110,117.5C 107.392,115.65 105.225,113.316 103.5,110.5C 105.297,108.045 106.63,105.378 107.5,102.5 Z"/></g>
<g><path style="opacity:1" fill="#392419" d="M 153.5,103.5 C 155.476,104.427 155.809,105.76 154.5,107.5C 148.038,111.066 141.371,114.066 134.5,116.5C 134.567,115.041 134.234,113.708 133.5,112.5C 139.861,108.989 146.528,105.989 153.5,103.5 Z"/></g>
<g><path style="opacity:1" fill="#408012" d="M 65.5,106.5 C 66.0967,106.735 66.4301,107.235 66.5,108C 65.7259,110.154 65.0592,112.321 64.5,114.5C 63.233,111.783 63.5663,109.117 65.5,106.5 Z"/></g>
<g><path style="opacity:1" fill="#3c3c3c" d="M 94.5,109.5 C 95.9616,110.458 97.2949,111.624 98.5,113C 88.0111,121.416 76.6778,128.583 64.5,134.5C 63.5291,133.038 63.8624,131.705 65.5,130.5C 76.4725,125.192 86.1391,118.192 94.5,109.5 Z"/></g>
<g><path style="opacity:1" fill="#fec90d" d="M 127.5,111.5 C 129.544,112.031 131.211,113.198 132.5,115C 131.975,115.692 131.308,116.192 130.5,116.5C 128.954,115.316 127.287,114.316 125.5,113.5C 126.243,112.818 126.909,112.151 127.5,111.5 Z"/></g>
<g><path style="opacity:1" fill="#4d9d13" d="M 99.5,114.5 C 101.416,115.665 102.249,117.332 102,119.5C 100.628,118.09 99.795,116.423 99.5,114.5 Z"/></g>
<g><path style="opacity:1" fill="#fefffe" d="M 58.5,115.5 C 60.3379,119.293 61.6712,123.46 62.5,128C 61.3144,130.748 60.3144,133.581 59.5,136.5C 58.086,137.624 56.586,138.624 55,139.5C 54.3064,132.826 53.9731,126.159 54,119.5C 55.3968,117.93 56.8968,116.596 58.5,115.5 Z M 57.5,119.5 C 56.645,120.531 55.9783,121.697 55.5,123C 56.0681,126.842 56.7348,130.675 57.5,134.5C 60.1203,129.376 60.1203,124.376 57.5,119.5 Z"/></g>
<g><path style="opacity:1" fill="#7e7f7e" d="M 113.5,118.5 C 115.488,116.325 117.821,115.659 120.5,116.5C 118.293,117.635 115.96,118.301 113.5,118.5 Z"/></g>
<g><path style="opacity:1" fill="#fec096" d="M 125.5,116.5 C 125.56,115.957 125.893,115.624 126.5,115.5C 129.5,116.758 130.5,118.758 129.5,121.5C 128.113,119.79 126.779,118.123 125.5,116.5 Z"/></g>
<g><path style="opacity:1" fill="#3b3c3b" d="M 95.5,116.5 C 97.8863,117.373 99.8863,118.873 101.5,121C 98.9504,122.442 96.2837,123.608 93.5,124.5C 92.354,123.855 91.354,123.022 90.5,122C 92.3734,120.296 94.0401,118.463 95.5,116.5 Z"/></g>
<g><path style="opacity:1" fill="#fec096" d="M 121.5,116.5 C 124.659,116.917 126.659,118.75 127.5,122C 127.167,122.5 126.833,123 126.5,123.5C 123.651,121.988 121.984,119.655 121.5,116.5 Z"/></g>
<g><path style="opacity:1" fill="#7e7f7e" d="M 113.5,118.5 C 113.473,120.199 112.806,121.533 111.5,122.5C 105.875,124.316 100.541,126.649 95.5,129.5C 93.8967,129.688 92.5634,129.188 91.5,128C 98.7125,124.561 106.046,121.394 113.5,118.5 Z"/></g>
<g><path style="opacity:1" fill="#ffc096" d="M 117.5,118.5 C 118.552,118.351 119.552,118.517 120.5,119C 121.257,120.512 122.257,121.846 123.5,123C 122.725,124.23 121.725,124.563 120.5,124C 118.84,122.512 117.84,120.679 117.5,118.5 Z"/></g>
<g><path style="opacity:1" fill="#fec096" d="M 115.5,124.5 C 115.672,123.508 115.338,122.842 114.5,122.5C 114.281,121.325 114.614,120.325 115.5,119.5C 116.624,120.914 117.624,122.414 118.5,124C 117.648,125.728 116.648,125.895 115.5,124.5 Z"/></g>
<g><path style="opacity:1" fill="#eaeb31" d="M 39.5,125.5 C 37.0155,126.74 37.0155,127.74 39.5,128.5C 39.5,128.833 39.5,129.167 39.5,129.5C 37.0155,130.74 37.0155,131.74 39.5,132.5C 39.5,132.833 39.5,133.167 39.5,133.5C 37.0155,134.74 37.0155,135.74 39.5,136.5C 39.5,136.833 39.5,137.167 39.5,137.5C 38.603,138.598 37.7697,138.598 37,137.5C 36.8238,133.312 36.3238,129.312 35.5,125.5C 36.0577,124.21 37.0577,123.377 38.5,123C 41.3787,122.126 44.0454,122.46 46.5,124C 44.4062,125.352 42.0728,125.852 39.5,125.5 Z"/></g>
<g><path style="opacity:1" fill="#4d9d14" d="M 87.5,122.5 C 90.0317,122.829 91.0317,123.995 90.5,126C 83.2986,128.857 76.2986,132.191 69.5,136C 68.5,136.667 67.5,136.667 66.5,136C 73.6745,131.637 80.6745,127.137 87.5,122.5 Z"/></g>
<g><path style="opacity:1" fill="#3a2519" d="M 111.5,122.5 C 112.5,122.5 113.5,122.5 114.5,122.5C 115.338,122.842 115.672,123.508 115.5,124.5C 109.741,128.388 103.574,131.721 97,134.5C 94.3894,133.5 93.8894,131.833 95.5,129.5C 100.541,126.649 105.875,124.316 111.5,122.5 Z"/></g>
<g><path style="opacity:1" fill="#fefffe" d="M 39.5,125.5 C 40.625,126.652 40.625,127.652 39.5,128.5C 37.0155,127.74 37.0155,126.74 39.5,125.5 Z"/></g>
<g><path style="opacity:1" fill="#eaeb31" d="M 51.5,130.5 C 51.5,132.5 51.5,134.5 51.5,136.5C 48.4552,136.508 45.4552,136.841 42.5,137.5C 40.689,128.632 43.689,126.299 51.5,130.5 Z"/></g>
<g><path style="opacity:1" fill="#fec90d" d="M 88.5,128.5 C 92.5191,130.759 92.0191,132.092 87,132.5C 86.5,132.167 86,131.833 85.5,131.5C 86.3398,130.265 87.3398,129.265 88.5,128.5 Z"/></g>
<g><path style="opacity:1" fill="#fefffe" d="M 39.5,129.5 C 40.625,130.652 40.625,131.652 39.5,132.5C 37.0155,131.74 37.0155,130.74 39.5,129.5 Z"/></g>
<g><path style="opacity:1" fill="#4d9c14" d="M 109.5,129.5 C 110.124,129.917 110.457,130.584 110.5,131.5C 109.861,134.475 109.361,137.475 109,140.5C 106.875,141.851 105.708,141.185 105.5,138.5C 105.79,134.954 107.124,131.954 109.5,129.5 Z"/></g>
<g><path style="opacity:1" fill="#7c7c7c" d="M 82.5,135.5 C 76.3858,136.631 71.5525,139.631 68,144.5C 66.6976,145.085 65.531,145.751 64.5,146.5C 62.901,146.232 61.5676,146.566 60.5,147.5C 60.0269,148.906 59.0269,149.573 57.5,149.5C 55.9724,148.198 54.9724,146.531 54.5,144.5C 63.6849,140.199 73.0182,135.865 82.5,131.5C 84.9341,133.147 84.9341,134.48 82.5,135.5 Z"/></g>
<g><path style="opacity:1" fill="#fec90d" d="M 89.5,132.5 C 91.5901,132.45 92.9234,133.45 93.5,135.5C 90.2652,139.516 87.9319,139.183 86.5,134.5C 87.6016,133.824 88.6016,133.158 89.5,132.5 Z"/></g>
<g><path style="opacity:1" fill="#fefefe" d="M 104.5,132.5 C 103.587,145.186 98.5872,156.352 89.5,166C 86.0821,167.695 82.5821,169.195 79,170.5C 76.0053,169.724 73.172,168.557 70.5,167C 68.5394,164.037 66.206,161.371 63.5,159C 64.0253,158.308 64.6919,157.808 65.5,157.5C 73.8497,168.733 83.0164,169.4 93,159.5C 97.4052,150.696 101.239,141.696 104.5,132.5 Z"/></g>
<g><path style="opacity:1" fill="#fefffe" d="M 39.5,133.5 C 40.625,134.652 40.625,135.652 39.5,136.5C 37.0155,135.74 37.0155,134.74 39.5,133.5 Z"/></g>
<g><path style="opacity:1" fill="#4a9514" d="M 93.5,141.5 C 92.5084,141.672 91.8417,141.338 91.5,140.5C 94.4379,138.023 97.7712,136.023 101.5,134.5C 102.472,140.364 99.8057,142.698 93.5,141.5 Z"/></g>
<g><path style="opacity:1" fill="#3b2519" d="M 82.5,135.5 C 84.5638,135.762 85.8971,136.929 86.5,139C 80.3825,143.143 73.8825,146.643 67,149.5C 65.6898,148.87 64.8565,147.87 64.5,146.5C 65.531,145.751 66.6976,145.085 68,144.5C 71.5525,139.631 76.3858,136.631 82.5,135.5 Z"/></g>
<g><path style="opacity:1" fill="#fec097" d="M 52.5,143.5 C 51.5416,143.953 50.7083,144.619 50,145.5C 49.6667,148.833 49.3333,152.167 49,155.5C 48.0071,151.558 47.3404,147.558 47,143.5C 46.4657,147.859 46.6324,152.192 47.5,156.5C 46.0689,156.119 45.2355,155.119 45,153.5C 44.6667,150.5 44.3333,147.5 44,144.5C 43.7339,148.974 43.5672,153.307 43.5,157.5C 42.0227,153.767 41.1894,149.767 41,145.5C 40.2829,149.045 40.4496,152.545 41.5,156C 41.3333,156.5 41.1667,157 41,157.5C 38.2832,152.538 37.2832,147.205 38,141.5C 38.5,141 39,140.5 39.5,140C 43.4908,139.358 47.4908,138.858 51.5,138.5C 51.6287,140.216 51.962,141.883 52.5,143.5 Z"/></g>
<g><path style="opacity:1" fill="#eaeb31" d="M 91.5,140.5 C 91.8417,141.338 92.5084,141.672 93.5,141.5C 95.2922,142.309 97.2922,142.809 99.5,143C 97.1902,143.497 94.8568,143.663 92.5,143.5C 90.5,140.833 88.5,140.833 86.5,143.5C 84.6214,143.607 84.2881,143.107 85.5,142C 87.3453,140.872 89.3453,140.372 91.5,140.5 Z"/></g>
<g><path style="opacity:1" fill="#7d7f7c" d="M 92.5,143.5 C 92.335,146.85 92.5017,150.183 93,153.5C 93.498,150.518 93.6646,147.518 93.5,144.5C 95.1992,144.34 96.8659,144.506 98.5,145C 96.274,150.787 93.274,156.12 89.5,161C 78.9676,167.933 71.3009,165.6 66.5,154C 66.8333,153.167 67.1667,152.333 67.5,151.5C 71.5,149.5 75.5,147.5 79.5,145.5C 80.8333,149.167 80.8333,152.833 79.5,156.5C 76.6626,151.15 75.996,151.483 77.5,157.5C 78.8333,157.5 80.1667,157.5 81.5,157.5C 81.5,153.167 81.5,148.833 81.5,144.5C 83.4147,144.784 85.0813,144.451 86.5,143.5C 88.5,140.833 90.5,140.833 92.5,143.5 Z"/></g>
<g><path style="opacity:1" fill="#000000" d="M 52.5,143.5 C 50.7217,147.565 50.0551,151.899 50.5,156.5C 49.5,156.5 48.5,156.5 47.5,156.5C 46.6324,152.192 46.4657,147.859 47,143.5C 47.3404,147.558 48.0071,151.558 49,155.5C 49.3333,152.167 49.6667,148.833 50,145.5C 50.7083,144.619 51.5416,143.953 52.5,143.5 Z"/></g>
<g><path style="opacity:1" fill="#3c261a" d="M 52.5,143.5 C 53.1667,143.833 53.8333,144.167 54.5,144.5C 54.9724,146.531 55.9724,148.198 57.5,149.5C 57.1583,150.338 56.4916,150.672 55.5,150.5C 54.6153,153.06 52.9486,155.06 50.5,156.5C 50.0551,151.899 50.7217,147.565 52.5,143.5 Z"/></g>
<g><path style="opacity:1" fill="#cfa28b" d="M 105.5,143.5 C 105.897,142.475 106.563,142.308 107.5,143C 112.011,145.754 116.344,148.754 120.5,152C 119.534,153.678 118.201,154.345 116.5,154C 113.017,150.351 109.35,146.851 105.5,143.5 Z"/></g>
<g><path style="opacity:1" fill="#fec90d" d="M 60.5,147.5 C 61.5,147.5 62.5,147.5 63.5,147.5C 64.523,150.393 64.523,153.226 63.5,156C 58.7897,157.121 56.123,155.288 55.5,150.5C 56.4916,150.672 57.1583,150.338 57.5,149.5C 59.0269,149.573 60.0269,148.906 60.5,147.5 Z"/></g>
<g><path style="opacity:1" fill="#cfa28a" d="M 104.5,144.5 C 107.666,146.834 110.333,149.667 112.5,153C 114.706,155.346 117.206,155.846 120,154.5C 127.118,159.793 128.284,166.126 123.5,173.5C 122.167,174.833 120.833,174.833 119.5,173.5C 117.476,171.31 115.643,168.977 114,166.5C 111.678,158.668 108.512,151.335 104.5,144.5 Z"/></g>
<g><path style="opacity:1" fill="#7f807d" d="M 102.5,148.5 C 103.812,149.145 104.812,150.145 105.5,151.5C 97.4482,158.633 96.4482,157.633 102.5,148.5 Z"/></g>
<g><path style="opacity:1" fill="#3e271a" d="M 47.5,156.5 C 48.5,156.5 49.5,156.5 50.5,156.5C 47.4797,160.851 43.4797,164.017 38.5,166C 35.8106,166.795 33.144,167.295 30.5,167.5C 29.4732,168.848 28.1398,169.348 26.5,169C 24.5854,166.6 22.9188,164.1 21.5,161.5C 21.281,160.325 21.6143,159.325 22.5,158.5C 27.4299,157.061 32.2632,155.394 37,153.5C 37.7065,155.081 38.5399,156.581 39.5,158C 41.0657,158.765 42.3991,158.598 43.5,157.5C 43.5672,153.307 43.7339,148.974 44,144.5C 44.3333,147.5 44.6667,150.5 45,153.5C 45.2355,155.119 46.0689,156.119 47.5,156.5 Z"/></g>
<g><path style="opacity:1" fill="#7e807d" d="M 125.5,206.5 C 120.906,207.815 116.239,208.815 111.5,209.5C 112.473,207.932 112.64,206.265 112,204.5C 108.745,198.992 105.745,193.325 103,187.5C 99.2191,183.891 95.7191,180.224 92.5,176.5C 95.6266,179.147 99.1266,181.147 103,182.5C 105.185,182.079 107.351,181.579 109.5,181C 109.957,180.586 110.291,180.086 110.5,179.5C 107.215,178.676 103.882,178.176 100.5,178C 97.7449,176.047 94.7449,174.88 91.5,174.5C 90.7721,172.265 89.4388,170.432 87.5,169C 92.0501,166.117 95.5501,162.284 98,157.5C 98.3333,157.833 98.6667,158.167 99,158.5C 101.414,156.709 103.914,155.043 106.5,153.5C 108.635,158.035 110.469,162.701 112,167.5C 114,170.167 116,172.833 118,175.5C 121.259,183.611 123.925,191.944 126,200.5C 126.789,202.712 126.622,204.712 125.5,206.5 Z"/></g>
<g><path style="opacity:1" fill="#000000" d="M 111.5,156.5 C 111.56,155.957 111.893,155.624 112.5,155.5C 115.157,158.147 117.323,161.147 119,164.5C 120.214,166.049 121.714,167.215 123.5,168C 122.5,168.667 121.5,168.667 120.5,168C 117.36,164.188 114.36,160.355 111.5,156.5 Z"/></g>
<g><path style="opacity:1" fill="#000000" d="M 105.5,157.5 C 107.379,157.393 107.712,157.893 106.5,159C 102.742,160.834 99.0753,162.5 95.5,164C 98.4905,161.152 101.824,158.985 105.5,157.5 Z"/></g>
<g><path style="opacity:1" fill="#7e817e" d="M 61.5,211.5 C 55.2601,212.191 49.5935,214.357 44.5,218C 50.426,219.255 55.7593,218.088 60.5,214.5C 58.6124,218.606 56.4458,222.606 54,226.5C 53.1239,230.7 52.2905,234.867 51.5,239C 45.255,242.721 40.9217,241.054 38.5,234C 46.4812,209.242 52.8145,184.075 57.5,158.5C 58.8734,158.343 60.2068,158.51 61.5,159C 64.5,163.333 68.1667,167 72.5,170C 76.5017,171.452 80.5017,171.786 84.5,171C 72.3308,181.827 64.6641,195.327 61.5,211.5 Z"/></g>
<g><path style="opacity:1" fill="#fec90d" d="M 21.5,161.5 C 22.9188,164.1 24.5854,166.6 26.5,169C 28.1398,169.348 29.4732,168.848 30.5,167.5C 31.552,167.351 32.552,167.517 33.5,168C 30.2993,170.267 26.9659,171.934 23.5,173C 21.6382,169.081 19.9715,165.081 18.5,161C 19.7195,159.205 20.7195,159.372 21.5,161.5 Z"/></g>
<g><path style="opacity:1" fill="#585a58" d="M 91.5,174.5 C 94.7449,174.88 97.7449,176.047 100.5,178C 103.882,178.176 107.215,178.676 110.5,179.5C 110.291,180.086 109.957,180.586 109.5,181C 107.351,181.579 105.185,182.079 103,182.5C 99.1266,181.147 95.6266,179.147 92.5,176.5C 92.1667,175.833 91.8333,175.167 91.5,174.5 Z"/></g>
<g><path style="opacity:1" fill="#ffc80d" d="M 99.5,198.5 C 100.5,198.5 101.5,198.5 102.5,198.5C 102.662,200.527 102.495,202.527 102,204.5C 99.9614,203.022 99.1281,201.022 99.5,198.5 Z"/></g>
<g><path style="opacity:1" fill="#535453" d="M 125.5,206.5 C 125.784,208.415 125.451,210.081 124.5,211.5C 122.003,212.743 119.336,213.41 116.5,213.5C 114.117,213.639 112.117,212.972 110.5,211.5C 110.328,210.508 110.662,209.842 111.5,209.5C 116.239,208.815 120.906,207.815 125.5,206.5 Z"/></g>
<g><path style="opacity:1" fill="#575a57" d="M 61.5,211.5 C 61.4431,212.609 61.1098,213.609 60.5,214.5C 55.7593,218.088 50.426,219.255 44.5,218C 49.5935,214.357 55.2601,212.191 61.5,211.5 Z"/></g>
<g><path style="opacity:1" fill="#7b7d7a" d="M 110.5,211.5 C 112.117,212.972 114.117,213.639 116.5,213.5C 119.336,213.41 122.003,212.743 124.5,211.5C 123.872,214.09 122.705,216.423 121,218.5C 120.399,225.538 119.566,232.538 118.5,239.5C 112.523,239.929 108.023,237.596 105,232.5C 105.006,227.457 105.672,222.457 107,217.5C 107.424,214.975 108.59,212.975 110.5,211.5 Z"/></g>
<g><path style="opacity:1" fill="#1e1d1e" d="M 103.5,236.5 C 107.64,239.566 112.307,241.566 117.5,242.5C 120.021,245.854 123.021,248.688 126.5,251C 125.584,251.374 124.75,251.874 124,252.5C 118.067,249.856 111.901,248.022 105.5,247C 103.939,246.059 102.605,244.892 101.5,243.5C 102.325,241.199 102.992,238.865 103.5,236.5 Z"/></g>
</svg>
