<?xml version="1.0" encoding="UTF-8"?>
<!DOCTYPE svg PUBLIC "-//W3C//DTD SVG 1.1//EN" "http://www.w3.org/Graphics/SVG/1.1/DTD/svg11.dtd">
<svg xmlns="http://www.w3.org/2000/svg" version="1.1" width="750px" height="504px" style="shape-rendering:geometricPrecision; text-rendering:geometricPrecision; image-rendering:optimizeQuality; fill-rule:evenodd; clip-rule:evenodd" xmlns:xlink="http://www.w3.org/1999/xlink">
<g><path style="opacity:1" fill="#fefffe" d="M 298.5,35.5 C 307.714,34.6985 316.548,36.0318 325,39.5C 327.196,48.0185 328.029,56.6852 327.5,65.5C 330.32,65.2475 332.986,65.7475 335.5,67C 337.667,69.1667 339.833,71.3333 342,73.5C 347.792,87.5436 352.792,101.877 357,116.5C 363.278,118.958 368.611,122.625 373,127.5C 376.355,136.886 377.355,146.552 376,156.5C 374.622,161.208 371.788,164.708 367.5,167C 370.024,168.883 371.358,171.383 371.5,174.5C 477.851,179.304 584.184,184.471 690.5,190C 691.333,190.833 692.167,191.667 693,192.5C 693.667,198.167 693.667,203.833 693,209.5C 689.349,213.205 684.849,214.539 679.5,213.5C 679.945,216.365 679.278,218.865 677.5,221C 664.17,221.73 650.837,222.397 637.5,223C 633.022,224.072 629.355,226.405 626.5,230C 598.06,231.099 569.726,230.433 541.5,228C 540.663,226.989 540.33,225.822 540.5,224.5C 511.625,224.126 482.792,223.126 454,221.5C 448.714,224.559 443.214,227.226 437.5,229.5C 437.345,238.314 433.679,245.148 426.5,250C 417.397,253.116 408.73,257.116 400.5,262C 393.563,263.173 386.563,263.84 379.5,264C 394.168,267.995 402.334,277.495 404,292.5C 405.457,310.897 404.291,329.063 400.5,347C 401.189,351.733 402.689,356.233 405,360.5C 405.667,365.833 405.667,371.167 405,376.5C 404.097,377.701 402.931,378.535 401.5,379C 404.529,379.539 407.529,380.206 410.5,381C 411.167,382.333 411.833,383.667 412.5,385C 419.288,387.029 425.955,389.362 432.5,392C 434.487,393.319 435.654,395.152 436,397.5C 436.667,403.833 436.667,410.167 436,416.5C 423.967,424.142 410.801,427.142 396.5,425.5C 370.594,427.476 348.094,419.81 329,402.5C 328.256,395.307 328.423,388.141 329.5,381C 328.387,377.6 327.72,374.1 327.5,370.5C 329.014,360.461 330.514,350.461 332,340.5C 330.493,339.465 328.993,339.632 327.5,341C 316.833,341.667 306.167,341.667 295.5,341C 291.255,339.623 287.088,338.123 283,336.5C 280.549,349.018 277.383,361.352 273.5,373.5C 275.45,385.762 275.95,398.096 275,410.5C 272.037,421.265 266.87,430.765 259.5,439C 257.725,440.439 255.725,441.439 253.5,442C 236.007,443.501 219.34,440.501 203.5,433C 201.04,431.542 198.873,429.709 197,427.5C 193.483,419.126 188.483,411.793 182,405.5C 181.613,388.789 182.28,372.122 184,355.5C 186.463,352.504 189.297,349.838 192.5,347.5C 193.632,343.574 194.299,339.574 194.5,335.5C 188.491,335.666 182.491,335.499 176.5,335C 175.234,334.691 174.067,334.191 173,333.5C 170.914,325.796 171.08,318.129 173.5,310.5C 166.059,309.565 159.559,306.565 154,301.5C 153.667,299.167 153.333,296.833 153,294.5C 152,293.833 151,293.167 150,292.5C 149.325,276.509 154.325,262.509 165,250.5C 173.5,243.333 182,236.167 190.5,229C 192.76,227.311 195.26,226.144 198,225.5C 202.954,206.632 210.621,188.966 221,172.5C 224.667,168.833 228.333,165.167 232,161.5C 232.333,159.5 232.667,157.5 233,155.5C 236.49,153.009 239.657,150.175 242.5,147C 249.5,146.333 256.5,146.333 263.5,147C 267.274,150.02 271.107,150.187 275,147.5C 274.4,139.344 272.733,131.344 270,123.5C 269.333,114.833 269.333,106.167 270,97.5C 270.249,94.8232 271.249,92.4899 273,90.5C 275.795,88.7068 278.295,86.5402 280.5,84C 285.96,81.5474 291.627,79.5474 297.5,78C 293.511,69.5359 290.844,60.7026 289.5,51.5C 289.167,44.1933 292.167,38.86 298.5,35.5 Z M 366.5,261.5 C 352.831,260.87 339.165,260.204 325.5,259.5C 325.838,257.146 326.338,254.813 327,252.5C 331.248,250.257 334.914,247.257 338,243.5C 348.324,248.4 357.824,254.4 366.5,261.5 Z"/></g>
<g><path style="opacity:1" fill="#000000" d="M 302.5,39.5 C 308.989,39.4973 315.156,40.8306 321,43.5C 323.67,52.0416 324.17,60.7083 322.5,69.5C 325.649,69.2114 328.649,69.7114 331.5,71C 333.667,73.1667 335.833,75.3333 338,77.5C 343.792,91.5436 348.792,105.877 353,120.5C 359.278,122.958 364.611,126.625 369,131.5C 373.513,140.582 373.513,149.582 369,158.5C 365.642,161.358 362.142,164.025 358.5,166.5C 363.097,169.413 366.097,173.413 367.5,178.5C 473.851,183.304 580.184,188.471 686.5,194C 690.728,199.284 690.395,204.284 685.5,209C 682.183,209.498 678.85,209.665 675.5,209.5C 675.945,212.365 675.278,214.865 673.5,217C 660.17,217.73 646.837,218.397 633.5,219C 629.022,220.072 625.355,222.405 622.5,226C 596.725,227.065 571.058,226.399 545.5,224C 544.663,222.989 544.33,221.822 544.5,220.5C 523.502,220 502.502,219.5 481.5,219C 471.08,218.891 460.747,218.058 450.5,216.5C 445.277,220.279 439.61,223.279 433.5,225.5C 433.25,232.762 430.583,238.929 425.5,244C 416.36,247.38 407.694,251.714 399.5,257C 390.993,259.413 382.326,260.08 373.5,259C 361.746,250.368 349.246,242.868 336,236.5C 332.62,241.547 328.286,245.547 323,248.5C 322.094,252.884 320.594,257.051 318.5,261C 318.645,261.772 318.978,262.439 319.5,263C 338.255,263.782 356.921,265.449 375.5,268C 390.168,271.995 398.334,281.495 400,296.5C 401.247,313.5 400.08,330.333 396.5,347C 397.047,354.465 398.714,361.632 401.5,368.5C 401.333,369.833 401.167,371.167 401,372.5C 397.717,374.553 394.55,376.72 391.5,379C 391.82,380.653 392.82,381.653 394.5,382C 398.465,383.126 402.465,384.126 406.5,385C 407.167,386.333 407.833,387.667 408.5,389C 415.288,391.029 421.955,393.362 428.5,396C 430.487,397.319 431.654,399.152 432,401.5C 432.667,405.167 432.667,408.833 432,412.5C 425.471,416.844 418.305,419.677 410.5,421C 382.915,425.462 358.249,419.129 336.5,402C 335.333,400.833 334.167,399.667 333,398.5C 332.445,391.435 332.945,384.435 334.5,377.5C 332.758,375.594 331.758,373.26 331.5,370.5C 332.84,363.471 334.34,356.471 336,349.5C 336.626,343.805 336.459,338.138 335.5,332.5C 317.277,339.658 299.277,338.991 281.5,330.5C 280.522,330.977 279.689,331.643 279,332.5C 275.911,346.434 272.411,360.267 268.5,374C 276.157,396.997 271.824,417.33 255.5,435C 251.973,437.675 247.973,438.841 243.5,438.5C 230.897,437.516 218.897,434.35 207.5,429C 205.04,427.542 202.873,425.709 201,423.5C 197.483,415.126 192.483,407.793 186,401.5C 186.86,387.599 187.527,373.599 188,359.5C 190.463,356.504 193.297,353.838 196.5,351.5C 198.182,344.272 198.849,336.938 198.5,329.5C 194.218,330.423 189.884,331.089 185.5,331.5C 176.554,331.65 173.387,327.317 176,318.5C 177.308,314.24 178.808,310.074 180.5,306C 171.655,306.658 164.155,303.825 158,297.5C 157.667,295.167 157.333,292.833 157,290.5C 153.703,288.821 152.703,286.154 154,282.5C 156.921,271.989 161.921,262.655 169,254.5C 177.5,247.333 186,240.167 194.5,233C 196.76,231.311 199.26,230.144 202,229.5C 206.954,210.632 214.621,192.966 225,176.5C 228.667,172.833 232.333,169.167 236,165.5C 236.333,163.5 236.667,161.5 237,159.5C 240.49,157.009 243.657,154.175 246.5,151C 250.833,150.333 255.167,150.333 259.5,151C 260.672,151.419 261.672,152.085 262.5,153C 267.452,153.388 272.285,154.221 277,155.5C 277.11,153.152 278.277,151.652 280.5,151C 279.205,148.199 279.205,145.366 280.5,142.5C 278.234,134.868 276.067,127.201 274,119.5C 273.333,113.5 273.333,107.5 274,101.5C 274.249,98.8232 275.249,96.4899 277,94.5C 284.385,86.6766 293.552,82.5099 304.5,82C 300.412,71.9898 296.745,61.8231 293.5,51.5C 293.577,49.701 294.077,48.0344 295,46.5C 296.742,43.2543 299.242,40.921 302.5,39.5 Z"/></g>
<g><path style="opacity:1" fill="#22b14b" d="M 304.5,42.5 C 308.917,43.1168 313.25,44.1168 317.5,45.5C 319.206,49.4895 320.206,53.6561 320.5,58C 320.095,66.9439 318.928,75.7772 317,84.5C 314.282,85.0126 311.449,85.0126 308.5,84.5C 304.904,73.3823 300.904,62.3823 296.5,51.5C 298.5,47.7804 301.166,44.7804 304.5,42.5 Z"/></g>
<g><path style="opacity:1" fill="#2f302f" d="M 312.5,108.5 C 309.243,109.462 306.243,110.962 303.5,113C 300.697,113.755 298.03,113.422 295.5,112C 306.252,108.566 315.419,102.733 323,94.5C 327.483,88.4898 327.649,82.3231 323.5,76C 324,75.5 324.5,75 325,74.5C 329.547,76.4838 331.714,79.9838 331.5,85C 331.575,90.3331 329.575,94.6664 325.5,98C 321.268,101.743 316.935,105.243 312.5,108.5 Z"/></g>
<g><path style="opacity:1" fill="#2f2f2f" d="M 302.5,91.5 C 299.312,91.6178 296.312,92.4511 293.5,94C 291,96.5 288.5,99 286,101.5C 283.626,105.894 282.959,110.56 284,115.5C 284.383,116.056 284.883,116.389 285.5,116.5C 288.091,118.281 290.425,120.281 292.5,122.5C 292.158,123.338 291.492,123.672 290.5,123.5C 288.932,124.473 287.265,124.64 285.5,124C 277.531,116.49 276.364,107.99 282,98.5C 285.167,96 288.333,93.5 291.5,91C 295.5,90 299.5,89 303.5,88C 308.919,87.5204 314.252,88.0204 319.5,89.5C 320.329,85.514 321.163,81.514 322,77.5C 325.389,82.564 325.222,87.3973 321.5,92C 317.656,91.0771 313.656,90.5771 309.5,90.5C 306.975,90.5034 304.641,90.8367 302.5,91.5 Z"/></g>
<g><path style="opacity:1" fill="#2f2f2f" d="M 340.5,107.5 C 339.12,106.294 337.953,106.627 337,108.5C 334.5,106.667 332,104.833 329.5,103C 327.833,102.333 326.167,102.333 324.5,103C 323.172,111.065 322.339,119.231 322,127.5C 321.176,123.335 319.009,122.502 315.5,125C 312.38,127.408 311.047,130.574 311.5,134.5C 310.167,134.5 308.833,134.5 307.5,134.5C 303.562,131.902 299.895,128.902 296.5,125.5C 295.833,124.167 295.167,122.833 294.5,121.5C 294.187,118.753 294.52,116.086 295.5,113.5C 298.438,114.575 301.438,114.741 304.5,114C 307.407,112.391 310.073,110.558 312.5,108.5C 319.001,105.179 324.834,100.846 330,95.5C 332.176,90.2748 332.843,84.9415 332,79.5C 336.952,88.1899 339.786,97.5233 340.5,107.5 Z"/></g>
<g><path style="opacity:1" fill="#181818" d="M 302.5,91.5 C 308.732,90.9386 314.732,91.772 320.5,94C 313.104,102.036 304.104,107.536 293.5,110.5C 292.679,113.447 292.179,116.447 292,119.5C 290.007,118.086 287.84,117.086 285.5,116.5C 284.883,116.389 284.383,116.056 284,115.5C 282.959,110.56 283.626,105.894 286,101.5C 288.5,99 291,96.5 293.5,94C 296.312,92.4511 299.312,91.6178 302.5,91.5 Z"/></g>
<g><path style="opacity:1" fill="#22b14b" d="M 335.5,142.5 C 322.462,146.411 310.962,143.744 301,134.5C 298.962,131.757 297.462,128.757 296.5,125.5C 299.895,128.902 303.562,131.902 307.5,134.5C 334.173,145.179 345.173,136.179 340.5,107.5C 341.309,105.708 341.809,103.708 342,101.5C 342.189,110.739 343.022,119.906 344.5,129C 342.828,134.547 339.828,139.047 335.5,142.5 Z"/></g>
<g><path style="opacity:1" fill="#000000" d="M 340.5,107.5 C 345.173,136.179 334.173,145.179 307.5,134.5C 308.833,134.5 310.167,134.5 311.5,134.5C 311.047,130.574 312.38,127.408 315.5,125C 319.009,122.502 321.176,123.335 322,127.5C 322.339,119.231 323.172,111.065 324.5,103C 326.167,102.333 327.833,102.333 329.5,103C 332,104.833 334.5,106.667 337,108.5C 337.953,106.627 339.12,106.294 340.5,107.5 Z"/></g>
<g><path style="opacity:1" fill="#cbccba" d="M 325.5,103.5 C 330.274,104.93 334.274,107.597 337.5,111.5C 333.992,110.791 330.825,108.791 328,105.5C 327.667,105.833 327.333,106.167 327,106.5C 326.243,113.511 325.409,120.511 324.5,127.5C 323.405,119.414 323.738,111.414 325.5,103.5 Z"/></g>
<g><path style="opacity:1" fill="#2f302f" d="M 327.5,107.5 C 330.69,109.594 333.69,111.928 336.5,114.5C 336.361,121.296 333.028,125.296 326.5,126.5C 326.653,120.155 326.986,113.822 327.5,107.5 Z"/></g>
<g><path style="opacity:1" fill="#cbccba" d="M 338.5,108.5 C 341.921,117.28 341.088,125.613 336,133.5C 328.539,139.213 320.705,139.713 312.5,135C 317.243,135.13 319.909,132.964 320.5,128.5C 326.107,128.895 330.941,127.228 335,123.5C 336.684,118.616 337.851,113.616 338.5,108.5 Z"/></g>
<g><path style="opacity:1" fill="#22b14b" d="M 294.5,121.5 C 295.167,122.833 295.833,124.167 296.5,125.5C 295.275,126.152 294.608,127.319 294.5,129C 296.207,139.36 298.207,149.527 300.5,159.5C 300.198,162.059 300.532,164.393 301.5,166.5C 302.11,167.391 302.443,168.391 302.5,169.5C 298.167,169.5 293.833,169.5 289.5,169.5C 289.294,165.102 289.627,160.768 290.5,156.5C 292.498,146.54 292.832,136.54 291.5,126.5C 291.443,125.391 291.11,124.391 290.5,123.5C 291.492,123.672 292.158,123.338 292.5,122.5C 293.167,122.167 293.833,121.833 294.5,121.5 Z"/></g>
<g><path style="opacity:1" fill="#171717" d="M 291.5,126.5 C 292.832,136.54 292.498,146.54 290.5,156.5C 287.908,154.173 285.908,151.339 284.5,148C 285.794,140.131 284.794,132.465 281.5,125C 281.667,124.5 281.833,124 282,123.5C 284.546,126.186 287.713,127.186 291.5,126.5 Z"/></g>
<g><path style="opacity:1" fill="#2f302f" d="M 309.5,160.5 C 315.306,160.732 320.639,159.232 325.5,156C 336.586,147.666 344.086,136.833 348,123.5C 354.385,126.184 360.051,129.851 365,134.5C 371.319,148.035 367.486,157.535 353.5,163C 343.988,165.448 334.321,166.115 324.5,165C 317.673,164.963 311.006,163.963 304.5,162C 306.382,161.802 308.048,161.302 309.5,160.5 Z"/></g>
<g><path style="opacity:1" fill="#cbccba" d="M 318.5,124.5 C 319.478,124.811 320.145,125.478 320.5,126.5C 319.913,131.224 317.246,133.557 312.5,133.5C 312.932,129.41 314.932,126.41 318.5,124.5 Z"/></g>
<g><path style="opacity:1" fill="#2a2a2a" d="M 296.5,125.5 C 297.462,128.757 298.962,131.757 301,134.5C 310.962,143.744 322.462,146.411 335.5,142.5C 336.525,142.897 336.692,143.563 336,144.5C 331.867,147.631 328.034,151.131 324.5,155C 319.701,157.762 314.701,159.596 309.5,160.5C 307.08,160.292 304.747,160.626 302.5,161.5C 301.818,160.757 301.151,160.091 300.5,159.5C 298.207,149.527 296.207,139.36 294.5,129C 294.608,127.319 295.275,126.152 296.5,125.5 Z"/></g>
<g><path style="opacity:1" fill="#6f4029" d="M 289.5,169.5 C 293.1,171.759 296.433,174.426 299.5,177.5C 299.5,177.833 299.5,178.167 299.5,178.5C 287.637,179.157 282.304,173.491 283.5,161.5C 283.125,158.603 283.625,155.937 285,153.5C 286,155.167 287,156.833 288,158.5C 288.177,162.356 288.677,166.023 289.5,169.5 Z"/></g>
<g><path style="opacity:1" fill="#5a3130" d="M 250.5,155.5 C 252.989,155.298 255.323,155.798 257.5,157C 266.142,164.468 273.475,172.968 279.5,182.5C 277.167,183.833 274.833,183.833 272.5,182.5C 266.996,171.15 258.329,163.65 246.5,160C 247.699,158.306 249.032,156.806 250.5,155.5 Z"/></g>
<g><path style="opacity:1" fill="#eeefe1" d="M 283.5,161.5 C 282.304,173.491 287.637,179.157 299.5,178.5C 297.833,179.167 296.167,179.833 294.5,180.5C 289.673,182.572 285.84,181.238 283,176.5C 281.101,172.379 280.268,168.046 280.5,163.5C 280.678,160.784 281.178,158.117 282,155.5C 282.191,157.708 282.691,159.708 283.5,161.5 Z"/></g>
<g><path style="opacity:1" fill="#ec1c23" d="M 262.5,159.5 C 266.453,158.761 270.453,159.261 274.5,161C 273.044,163.266 272.21,165.766 272,168.5C 268.964,165.296 265.797,162.296 262.5,159.5 Z"/></g>
<g><path style="opacity:1" fill="#fef200" d="M 280.5,163.5 C 280.268,168.046 281.101,172.379 283,176.5C 285.84,181.238 289.673,182.572 294.5,180.5C 296.167,180.5 297.833,180.5 299.5,180.5C 299.5,181.833 299.5,183.167 299.5,184.5C 293.518,184.76 287.685,184.094 282,182.5C 279.552,178.385 276.719,174.552 273.5,171C 273.542,166.527 275.376,163.027 279,160.5C 279.232,161.737 279.732,162.737 280.5,163.5 Z"/></g>
<g><path style="opacity:1" fill="#eeefe1" d="M 243.5,162.5 C 248.914,161.634 253.248,163.3 256.5,167.5C 254.513,169.501 252.18,170.335 249.5,170C 247.102,168.644 244.602,167.477 242,166.5C 241.516,164.807 242.016,163.473 243.5,162.5 Z"/></g>
<g><path style="opacity:1" fill="#7e492e" d="M 319.5,174.5 C 321.143,176.973 323.31,178.973 326,180.5C 326.877,182.674 326.377,184.341 324.5,185.5C 322.598,186.511 320.598,186.678 318.5,186C 317.897,183.929 316.564,182.762 314.5,182.5C 313.524,181.185 312.524,179.852 311.5,178.5C 313.596,172.097 311.429,169.764 305,171.5C 303.699,171.361 302.866,170.695 302.5,169.5C 302.443,168.391 302.11,167.391 301.5,166.5C 301.351,165.448 301.517,164.448 302,163.5C 307.26,165.688 312.76,166.688 318.5,166.5C 318.194,169.385 318.527,172.052 319.5,174.5 Z"/></g>
<g><path style="opacity:1" fill="#cb6a3c" d="M 334.5,167.5 C 335.635,169.213 337.302,169.88 339.5,169.5C 342.899,167.567 346.565,166.734 350.5,167C 349.584,167.278 348.918,167.778 348.5,168.5C 344.839,170.718 340.839,171.718 336.5,171.5C 330.742,170.977 325.075,169.977 319.5,168.5C 319.62,167.414 320.287,166.747 321.5,166.5C 325.787,167.375 330.121,167.708 334.5,167.5 Z"/></g>
<g><path style="opacity:1" fill="#fefffe" d="M 334.5,167.5 C 336.698,167.12 338.365,167.787 339.5,169.5C 337.302,169.88 335.635,169.213 334.5,167.5 Z"/></g>
<g><path style="opacity:1" fill="#cbcbcb" d="M 258.5,170.5 C 257.5,172.167 256.167,173.5 254.5,174.5C 251.941,174.802 249.607,174.468 247.5,173.5C 247.842,172.662 248.508,172.328 249.5,172.5C 252.508,171.58 255.341,170.246 258,168.5C 258.464,169.094 258.631,169.761 258.5,170.5 Z"/></g>
<g><path style="opacity:1" fill="#db9b7c" d="M 319.5,168.5 C 325.075,169.977 330.742,170.977 336.5,171.5C 340.839,171.718 344.839,170.718 348.5,168.5C 350.642,170.765 352.309,173.432 353.5,176.5C 351.754,177.395 349.92,178.062 348,178.5C 345.217,177.266 342.384,176.266 339.5,175.5C 340.574,177.216 342.241,178.216 344.5,178.5C 345.452,180.045 345.785,181.712 345.5,183.5C 342.093,184.358 338.76,185.525 335.5,187C 338.343,186.743 341.01,186.91 343.5,187.5C 343.158,188.338 342.492,188.672 341.5,188.5C 340.85,188.804 340.183,189.137 339.5,189.5C 334.905,188.345 330.238,187.512 325.5,187C 324.944,186.617 324.611,186.117 324.5,185.5C 326.377,184.341 326.877,182.674 326,180.5C 323.31,178.973 321.143,176.973 319.5,174.5C 319.5,172.5 319.5,170.5 319.5,168.5 Z"/></g>
<g><path style="opacity:1" fill="#fef200" d="M 260.5,173.5 C 259.29,173.932 258.29,174.599 257.5,175.5C 256.209,175.737 255.209,175.404 254.5,174.5C 256.167,173.5 257.5,172.167 258.5,170.5C 260.1,169.488 261.434,169.988 262.5,172C 261.584,172.278 260.918,172.778 260.5,173.5 Z"/></g>
<g><path style="opacity:1" fill="#000000" d="M 289.5,169.5 C 293.833,169.5 298.167,169.5 302.5,169.5C 302.866,170.695 303.699,171.361 305,171.5C 311.429,169.764 313.596,172.097 311.5,178.5C 312.524,179.852 313.524,181.185 314.5,182.5C 312.248,182.084 310.748,180.751 310,178.5C 309.107,179.081 308.107,179.415 307,179.5C 304.528,178.678 302.028,178.011 299.5,177.5C 296.433,174.426 293.1,171.759 289.5,169.5 Z"/></g>
<g><path style="opacity:1" fill="#eeefe1" d="M 351.5,170.5 C 351.56,169.957 351.893,169.624 352.5,169.5C 357.063,171.395 360.73,174.395 363.5,178.5C 361.761,178.594 359.761,178.761 357.5,179C 355.241,180.715 353.074,182.548 351,184.5C 349.605,182.86 348.105,181.36 346.5,180C 349.117,179.178 351.784,178.678 354.5,178.5C 354.585,175.351 353.585,172.684 351.5,170.5 Z"/></g>
<g><path style="opacity:1" fill="#dc9c7c" d="M 294.5,171.5 C 299.181,170.862 303.848,170.862 308.5,171.5C 312.719,174.694 312.219,177.027 307,178.5C 302.126,177.316 297.959,174.982 294.5,171.5 Z"/></g>
<g><path style="opacity:1" fill="#bcbcbc" d="M 260.5,173.5 C 261.833,173.5 263.167,173.5 264.5,173.5C 264.5,174.5 264.5,175.5 264.5,176.5C 264.167,177.5 263.5,178.167 262.5,178.5C 261.355,177.207 261.689,176.041 263.5,175C 261.893,174.885 260.393,175.385 259,176.5C 258.235,176.43 257.735,176.097 257.5,175.5C 258.29,174.599 259.29,173.932 260.5,173.5 Z"/></g>
<g><path style="opacity:1" fill="#000000" d="M 339.5,175.5 C 336.25,177.243 333.416,179.577 331,182.5C 331.195,180.255 332.362,178.422 334.5,177C 336.305,176.028 337.972,174.861 339.5,173.5C 340.463,173.97 340.463,174.637 339.5,175.5 Z"/></g>
<g><path style="opacity:1" fill="#fef200" d="M 262.5,178.5 C 263.5,178.167 264.167,177.5 264.5,176.5C 265.117,176.389 265.617,176.056 266,175.5C 267.123,178.249 268.623,180.749 270.5,183C 269.5,183.667 268.5,183.667 267.5,183C 266.555,180.554 264.889,179.054 262.5,178.5 Z"/></g>
<g><path style="opacity:1" fill="#eeefe1" d="M 245.5,176.5 C 252.015,176.296 258.015,177.962 263.5,181.5C 266.248,184.661 267.581,188.327 267.5,192.5C 259.079,192.049 251.079,193.549 243.5,197C 231.083,199.919 227.583,195.752 233,184.5C 236.33,180.425 240.496,177.758 245.5,176.5 Z"/></g>
<g><path style="opacity:1" fill="#cb6a3c" d="M 299.5,178.5 C 299.5,178.167 299.5,177.833 299.5,177.5C 302.028,178.011 304.528,178.678 307,179.5C 308.107,179.415 309.107,179.081 310,178.5C 310.748,180.751 312.248,182.084 314.5,182.5C 314.953,183.458 315.619,184.292 316.5,185C 311.172,185.169 305.838,185.002 300.5,184.5C 300.795,182.265 300.461,180.265 299.5,178.5 Z"/></g>
<g><path style="opacity:1" fill="#dc9c7c" d="M 358.5,180.5 C 360.346,180.222 361.68,180.889 362.5,182.5C 358.102,188.519 356.269,195.185 357,202.5C 360.78,206.972 365.613,209.139 371.5,209C 373.211,210.133 373.711,211.633 373,213.5C 360.192,217.036 347.526,221.036 335,225.5C 334.667,220.5 334.333,215.5 334,210.5C 332.207,207.705 330.04,205.205 327.5,203C 338.295,196.024 348.628,188.524 358.5,180.5 Z"/></g>
<g><path style="opacity:1" fill="#fef200" d="M 341.5,188.5 C 342.492,188.672 343.158,188.338 343.5,187.5C 345.104,186.713 345.771,185.38 345.5,183.5C 347.1,182.488 348.434,182.988 349.5,185C 347.651,186.093 345.984,187.426 344.5,189C 343.251,189.74 342.251,189.573 341.5,188.5 Z"/></g>
<g><path style="opacity:1" fill="#b77856" d="M 377.5,185.5 C 375.816,187.13 375.149,188.797 375.5,190.5C 370.986,190.443 367.32,192.11 364.5,195.5C 364.855,196.522 365.522,197.189 366.5,197.5C 367.343,199.173 368.676,200.34 370.5,201C 383.824,202.512 397.158,202.679 410.5,201.5C 412.106,198.243 411.106,196.076 407.5,195C 411.129,195.11 414.796,195.276 418.5,195.5C 418.665,199.182 418.499,202.848 418,206.5C 416.806,207.43 415.473,208.097 414,208.5C 401.035,206.635 388.035,206.302 375,207.5C 368.785,207.672 363.452,205.672 359,201.5C 358.764,194.945 360.597,188.945 364.5,183.5C 371.154,182.663 377.821,182.829 384.5,184C 381.964,184.186 379.631,184.686 377.5,185.5 Z"/></g>
<g><path style="opacity:1" fill="#000000" d="M 345.5,183.5 C 345.771,185.38 345.104,186.713 343.5,187.5C 341.01,186.91 338.343,186.743 335.5,187C 338.76,185.525 342.093,184.358 345.5,183.5 Z"/></g>
<g><path style="opacity:1" fill="#c2c2c2" d="M 423.5,193.5 C 413.035,193.025 402.369,192.192 391.5,191C 388.528,189.859 386.861,187.692 386.5,184.5C 482.143,188.015 577.81,192.181 673.5,197C 676.095,197.226 678.595,197.726 681,198.5C 684.084,195.858 685.917,196.691 686.5,201C 686.272,204.261 684.772,205.428 682,204.5C 674.947,205.846 667.781,206.512 660.5,206.5C 587.854,202.316 515.187,198.649 442.5,195.5C 442.662,193.473 442.495,191.473 442,189.5C 440.333,186.833 438.667,186.833 437,189.5C 436.506,191.134 436.34,192.801 436.5,194.5C 435.5,194.5 434.5,194.5 433.5,194.5C 433.985,189.841 432.152,188.508 428,190.5C 427.51,191.793 427.343,193.127 427.5,194.5C 426.041,194.567 424.708,194.234 423.5,193.5 Z"/></g>
<g><path style="opacity:1" fill="#b87a56" d="M 268.5,186.5 C 292.585,185.142 316.585,186.975 340.5,192C 335.5,195.167 330.5,198.333 325.5,201.5C 323.641,199.808 321.641,198.308 319.5,197C 317.833,196.333 316.167,196.333 314.5,197C 304.467,201.433 294.633,206.267 285,211.5C 280.667,207.167 276.333,202.833 272,198.5C 270.509,194.469 269.343,190.469 268.5,186.5 Z"/></g>
<g><path style="opacity:1" fill="#d9997b" d="M 441.5,205.5 C 440.395,208.845 438.395,211.678 435.5,214C 438.464,213.228 440.798,211.395 442.5,208.5C 444.834,206.824 445.834,204.491 445.5,201.5C 448.766,195.949 450.432,196.616 450.5,203.5C 450.166,208.977 447.833,213.477 443.5,217C 435.472,221.207 426.972,224.041 418,225.5C 412.768,224.651 408.102,222.651 404,219.5C 403.493,220.996 403.993,222.163 405.5,223C 415.959,225.756 415.626,227.59 404.5,228.5C 399.178,226.185 396.178,222.185 395.5,216.5C 395.5,215.167 395.5,213.833 395.5,212.5C 403.809,213.682 411.475,212.182 418.5,208C 419.303,203.586 419.803,199.086 420,194.5C 421.011,193.663 422.178,193.33 423.5,193.5C 423.666,198.844 423.499,204.177 423,209.5C 419.829,212.751 420.163,213.085 424,210.5C 424.791,209.255 425.291,207.922 425.5,206.5C 427.074,204.898 427.741,202.898 427.5,200.5C 428.319,197.695 428.819,194.695 429,191.5C 429.718,190.549 430.551,190.383 431.5,191C 432.467,195.401 432.8,199.901 432.5,204.5C 431.596,205.209 431.263,206.209 431.5,207.5C 429.93,208.875 429.097,210.541 429,212.5C 430.518,211.837 431.685,210.837 432.5,209.5C 435.925,206.313 437.259,202.313 436.5,197.5C 437.314,195.369 437.814,193.036 438,190.5C 438.535,188.729 439.369,188.396 440.5,189.5C 441.451,194.77 441.785,200.103 441.5,205.5 Z"/></g>
<g><path style="opacity:1" fill="#000000" d="M 375.5,190.5 C 372.976,191.74 370.309,192.907 367.5,194C 366.663,195.011 366.33,196.178 366.5,197.5C 365.522,197.189 364.855,196.522 364.5,195.5C 367.32,192.11 370.986,190.443 375.5,190.5 Z"/></g>
<g><path style="opacity:1" fill="#c2c2c2" d="M 377.5,185.5 C 379.857,185.337 382.19,185.503 384.5,186C 385.212,188.881 386.878,191.048 389.5,192.5C 391.252,195.833 390.252,197.499 386.5,197.5C 390.328,199.361 391.995,198.027 391.5,193.5C 398.786,192.401 405.12,194.235 410.5,199C 410.043,199.414 409.709,199.914 409.5,200.5C 396.825,201.653 384.159,201.487 371.5,200C 369.922,198.906 368.255,198.072 366.5,197.5C 366.33,196.178 366.663,195.011 367.5,194C 370.309,192.907 372.976,191.74 375.5,190.5C 375.149,188.797 375.816,187.13 377.5,185.5 Z"/></g>
<g><path style="opacity:1" fill="#000000" d="M 386.5,197.5 C 383.556,195.689 380.556,193.856 377.5,192C 381.342,192.262 384.342,194.096 386.5,197.5 Z"/></g>
<g><path style="opacity:1" fill="#926146" d="M 427.5,200.5 C 427.741,202.898 427.074,204.898 425.5,206.5C 424.521,203.375 424.187,200.042 424.5,196.5C 425.5,196.5 426.5,196.5 427.5,196.5C 427.5,197.833 427.5,199.167 427.5,200.5 Z"/></g>
<g><path style="opacity:1" fill="#764f39" d="M 436.5,197.5 C 437.259,202.313 435.925,206.313 432.5,209.5C 431.662,209.158 431.328,208.492 431.5,207.5C 431.263,206.209 431.596,205.209 432.5,204.5C 433.473,202.052 433.806,199.385 433.5,196.5C 434.791,196.263 435.791,196.596 436.5,197.5 Z"/></g>
<g><path style="opacity:1" fill="#ec1c23" d="M 249.5,172.5 C 248.508,172.328 247.842,172.662 247.5,173.5C 238.837,175.011 232.67,179.678 229,187.5C 226.44,196.103 229.607,200.103 238.5,199.5C 242.917,199.793 246.917,198.626 250.5,196C 256.471,194.869 262.471,194.536 268.5,195C 269.888,195.889 269.722,196.389 268,196.5C 266.856,196.089 265.689,195.756 264.5,195.5C 258.223,197.486 251.89,199.32 245.5,201C 243.5,202.333 241.5,203.667 239.5,205C 246.761,201.757 254.428,199.257 262.5,197.5C 265.324,197.83 267.991,198.664 270.5,200C 274.682,204.015 278.682,208.182 282.5,212.5C 278.194,216.14 274.194,220.14 270.5,224.5C 271.002,225.521 271.668,225.688 272.5,225C 277.167,221 281.833,217 286.5,213C 288.044,211.813 289.711,211.48 291.5,212C 303.511,218.517 308.844,228.684 307.5,242.5C 307.846,245.43 306.846,247.763 304.5,249.5C 296.167,254 287.833,258.5 279.5,263C 277.5,263.667 275.5,263.667 273.5,263C 263.399,254.231 252.732,246.231 241.5,239C 239.372,235.87 236.872,233.037 234,230.5C 232.326,225.188 231.659,219.854 232,214.5C 231.077,216.034 230.577,217.701 230.5,219.5C 231.333,223.499 232.166,227.499 233,231.5C 235.385,234.379 237.552,237.379 239.5,240.5C 228.298,242.984 216.965,244.65 205.5,245.5C 208.181,223.128 215.681,202.462 228,183.5C 232.133,178.366 236.633,173.532 241.5,169C 244.714,168.905 247.381,170.072 249.5,172.5 Z"/></g>
<g><path style="opacity:1" fill="#916045" d="M 445.5,201.5 C 445.834,204.491 444.834,206.824 442.5,208.5C 441.596,207.791 441.263,206.791 441.5,205.5C 442.473,203.052 442.806,200.385 442.5,197.5C 443.5,197.5 444.5,197.5 445.5,197.5C 445.5,198.833 445.5,200.167 445.5,201.5 Z"/></g>
<g><path style="opacity:1" fill="#b87a56" d="M 450.5,203.5 C 451.461,201.735 451.795,199.735 451.5,197.5C 524.169,201.222 596.836,205.056 669.5,209C 670.833,210 670.833,211 669.5,212C 656.51,213.033 643.51,213.366 630.5,213C 627.925,212.042 625.259,211.542 622.5,211.5C 618.833,212.167 615.167,212.833 611.5,213.5C 557.86,211.059 504.193,209.393 450.5,208.5C 450.5,206.833 450.5,205.167 450.5,203.5 Z"/></g>
<g><path style="opacity:1" fill="#fef200" d="M 330.5,234.5 C 329.686,232.727 328.352,232.227 326.5,233C 323.079,234.699 320.079,236.865 317.5,239.5C 316.5,239.833 315.833,240.5 315.5,241.5C 314.833,241.5 314.167,241.5 313.5,241.5C 312.962,239.883 312.629,238.216 312.5,236.5C 313.492,236.672 314.158,236.338 314.5,235.5C 315.492,235.672 316.158,235.338 316.5,234.5C 317.492,234.672 318.158,234.338 318.5,233.5C 322.887,232.539 326.721,230.539 330,227.5C 331.893,224.761 331.893,222.095 330,219.5C 324.002,222.583 317.835,225.25 311.5,227.5C 311.5,226.167 311.5,224.833 311.5,223.5C 312.791,223.737 313.791,223.404 314.5,222.5C 319.871,221.214 324.704,218.88 329,215.5C 330.048,211.52 328.715,208.52 325,206.5C 318.809,211.013 311.976,214.013 304.5,215.5C 303.047,211.774 300.381,209.441 296.5,208.5C 302.935,204.533 309.769,201.2 317,198.5C 318.225,198.862 319.391,199.362 320.5,200C 324.709,203.509 328.543,207.342 332,211.5C 332.667,218.833 332.667,226.167 332,233.5C 331.617,234.056 331.117,234.389 330.5,234.5 Z"/></g>
<g><path style="opacity:1" fill="#000000" d="M 682.5,198.5 C 684.377,199.659 684.877,201.326 684,203.5C 682.731,202.095 682.231,200.429 682.5,198.5 Z"/></g>
<g><path style="opacity:1" fill="#000000" d="M 441.5,205.5 C 441.263,206.791 441.596,207.791 442.5,208.5C 440.798,211.395 438.464,213.228 435.5,214C 438.395,211.678 440.395,208.845 441.5,205.5 Z"/></g>
<g><path style="opacity:1" fill="#000000" d="M 236.5,206.5 C 237.713,207.497 237.546,208.497 236,209.5C 235.53,208.423 235.697,207.423 236.5,206.5 Z"/></g>
<g><path style="opacity:1" fill="#fefefe" d="M 314.5,222.5 C 314.046,220.741 314.046,218.741 314.5,216.5C 312.5,216.5 310.5,216.5 308.5,216.5C 306.901,216.768 305.568,216.434 304.5,215.5C 311.976,214.013 318.809,211.013 325,206.5C 328.715,208.52 330.048,211.52 329,215.5C 324.704,218.88 319.871,221.214 314.5,222.5 Z"/></g>
<g><path style="opacity:1" fill="#000000" d="M 431.5,207.5 C 431.328,208.492 431.662,209.158 432.5,209.5C 431.685,210.837 430.518,211.837 429,212.5C 429.097,210.541 429.93,208.875 431.5,207.5 Z"/></g>
<g><path style="opacity:1" fill="#fefefe" d="M 296.5,208.5 C 300.381,209.441 303.047,211.774 304.5,215.5C 305.568,216.434 306.901,216.768 308.5,216.5C 307.489,218.402 307.322,220.402 308,222.5C 309.683,223.887 310.85,225.553 311.5,227.5C 317.835,225.25 324.002,222.583 330,219.5C 331.893,222.095 331.893,224.761 330,227.5C 326.721,230.539 322.887,232.539 318.5,233.5C 317.906,230.09 315.906,228.924 312.5,230C 311.395,232.12 311.395,234.287 312.5,236.5C 312.629,238.216 312.962,239.883 313.5,241.5C 313.638,245.286 314.305,245.286 315.5,241.5C 316.833,241.5 317.5,240.833 317.5,239.5C 320.079,236.865 323.079,234.699 326.5,233C 328.352,232.227 329.686,232.727 330.5,234.5C 328.181,238.984 324.681,242.317 320,244.5C 318.913,242.068 318.413,242.402 318.5,245.5C 314.756,246.721 311.09,247.887 307.5,249C 309.045,247.178 309.712,245.011 309.5,242.5C 309.153,234.89 307.653,227.556 305,220.5C 301.296,216.405 297.129,212.905 292.5,210C 293.745,209.209 295.078,208.709 296.5,208.5 Z"/></g>
<g><path style="opacity:1" fill="#ae1c23" d="M 386.5,210.5 C 381.368,217.306 381.201,224.306 386,231.5C 391.5,237.183 397.667,241.849 404.5,245.5C 401.44,249.213 397.44,251.713 392.5,253C 387.572,254.418 382.572,254.751 377.5,254C 371.679,243.418 370.679,232.418 374.5,221C 374.167,220.5 373.833,220 373.5,219.5C 371.091,223.461 369.758,227.794 369.5,232.5C 370.454,238.545 371.287,244.545 372,250.5C 360.705,241.602 348.205,234.935 334.5,230.5C 334.561,227.95 335.894,226.45 338.5,226C 350.133,222.509 361.8,219.175 373.5,216C 375.229,214.211 375.896,212.044 375.5,209.5C 377.808,209.086 380.142,208.753 382.5,208.5C 384.333,208.585 385.666,209.252 386.5,210.5 Z"/></g>
<g><path style="opacity:1" fill="#d0d0b8" d="M 389.5,212.5 C 389.5,213.167 389.167,213.5 388.5,213.5C 387.89,212.609 387.557,211.609 387.5,210.5C 388.514,209.235 390.014,208.569 392,208.5C 398.822,209.145 405.655,209.645 412.5,210C 404.759,211.1 397.092,211.934 389.5,212.5 Z"/></g>
<g><path style="opacity:1" fill="#fefefe" d="M 386.5,210.5 C 386.833,210.5 387.167,210.5 387.5,210.5C 387.557,211.609 387.89,212.609 388.5,213.5C 386.809,216.645 386.309,219.979 387,223.5C 389.127,227.589 391.627,231.423 394.5,235C 399.052,237.443 403.718,239.61 408.5,241.5C 412.518,240.492 416.518,239.492 420.5,238.5C 421.552,238.351 422.552,238.517 423.5,239C 417.774,243.519 411.44,245.686 404.5,245.5C 397.667,241.849 391.5,237.183 386,231.5C 381.201,224.306 381.368,217.306 386.5,210.5 Z"/></g>
<g><path style="opacity:1" fill="#dbdcc2" d="M 566.5,217.5 C 527.645,215.547 488.645,213.547 449.5,211.5C 501.507,211.469 553.507,212.635 605.5,215C 609.358,215.079 613.024,215.746 616.5,217C 599.837,217.5 583.17,217.667 566.5,217.5 Z"/></g>
<g><path style="opacity:1" fill="#fef200" d="M 389.5,212.5 C 391.167,212.5 392.833,212.5 394.5,212.5C 394.232,214.099 394.566,215.432 395.5,216.5C 396.178,222.185 399.178,226.185 404.5,228.5C 406.579,230.873 409.246,232.206 412.5,232.5C 415.985,234.054 419.152,233.387 422,230.5C 423.009,228.975 423.509,227.308 423.5,225.5C 425.262,225.643 426.929,225.309 428.5,224.5C 430.403,232.05 427.736,236.716 420.5,238.5C 416.518,239.492 412.518,240.492 408.5,241.5C 403.718,239.61 399.052,237.443 394.5,235C 391.627,231.423 389.127,227.589 387,223.5C 386.309,219.979 386.809,216.645 388.5,213.5C 389.167,213.5 389.5,213.167 389.5,212.5 Z"/></g>
<g><path style="opacity:1" fill="#fec90d" d="M 618.5,213.5 C 621.978,213.184 625.312,213.684 628.5,215C 625.982,218.869 622.649,219.536 618.5,217C 617.316,215.855 617.316,214.688 618.5,213.5 Z"/></g>
<g><path style="opacity:1" fill="#000000" d="M 308.5,216.5 C 310.5,216.5 312.5,216.5 314.5,216.5C 314.046,218.741 314.046,220.741 314.5,222.5C 313.791,223.404 312.791,223.737 311.5,223.5C 311.5,224.833 311.5,226.167 311.5,227.5C 310.85,225.553 309.683,223.887 308,222.5C 307.322,220.402 307.489,218.402 308.5,216.5 Z"/></g>
<g><path style="opacity:1" fill="#fefffe" d="M 309.5,217.5 C 310.978,217.238 312.311,217.571 313.5,218.5C 312.754,219.736 312.421,221.07 312.5,222.5C 308.716,222.475 307.716,220.808 309.5,217.5 Z"/></g>
<g><path style="opacity:1" fill="#dadac1" d="M 566.5,217.5 C 571.233,218.19 576.066,218.856 581,219.5C 593.771,218.179 606.604,218.179 619.5,219.5C 619.291,220.086 618.957,220.586 618.5,221C 595.221,221.846 572.221,221.013 549.5,218.5C 555.128,217.505 560.794,217.171 566.5,217.5 Z"/></g>
<g><path style="opacity:1" fill="#d1c800" d="M 412.5,232.5 C 411.4,231.442 410.066,230.608 408.5,230C 413.016,227.978 417.683,226.978 422.5,227C 420.23,230.771 416.896,232.604 412.5,232.5 Z"/></g>
<g><path style="opacity:1" fill="#000000" d="M 318.5,233.5 C 318.158,234.338 317.492,234.672 316.5,234.5C 316.426,230.459 315.093,229.792 312.5,232.5C 312.942,233.739 313.609,234.739 314.5,235.5C 314.158,236.338 313.492,236.672 312.5,236.5C 311.395,234.287 311.395,232.12 312.5,230C 315.906,228.924 317.906,230.09 318.5,233.5 Z"/></g>
<g><path style="opacity:1" fill="#dfdfdf" d="M 316.5,234.5 C 316.158,235.338 315.492,235.672 314.5,235.5C 313.609,234.739 312.942,233.739 312.5,232.5C 315.093,229.792 316.426,230.459 316.5,234.5 Z"/></g>
<g><path style="opacity:1" fill="#2f302f" d="M 163.5,283.5 C 162.206,284.29 161.039,285.29 160,286.5C 159.308,285.975 158.808,285.308 158.5,284.5C 160.781,276.814 164.114,269.647 168.5,263C 170.821,262.163 173.155,261.83 175.5,262C 179.6,264.467 183.434,267.301 187,270.5C 187.667,269.833 187.667,269.167 187,268.5C 184.167,266.333 181.333,264.167 178.5,262C 175.707,260.602 173.04,260.102 170.5,260.5C 180.679,249.981 192.013,240.981 204.5,233.5C 204.849,238.069 204.349,242.736 203,247.5C 199.243,250.586 196.243,254.252 194,258.5C 192.748,266.179 191.415,273.846 190,281.5C 188.185,285.796 185.852,289.796 183,293.5C 182.833,293 182.667,292.5 182.5,292C 183.976,287.431 184.976,282.765 185.5,278C 185.371,276.019 184.704,274.353 183.5,273C 179.121,271.178 174.787,271.178 170.5,273C 167.526,276.128 165.193,279.628 163.5,283.5 Z"/></g>
<g><path style="opacity:1" fill="#000000" d="M 317.5,239.5 C 317.5,240.833 316.833,241.5 315.5,241.5C 315.833,240.5 316.5,239.833 317.5,239.5 Z"/></g>
<g><path style="opacity:1" fill="#b31c23" d="M 239.5,240.5 C 240.973,241.072 242.307,241.905 243.5,243C 239.721,244.625 235.721,245.625 231.5,246C 224.66,246.412 217.827,246.912 211,247.5C 208.705,247.453 206.871,246.787 205.5,245.5C 216.965,244.65 228.298,242.984 239.5,240.5 Z"/></g>
<g><path style="opacity:1" fill="#000000" d="M 313.5,241.5 C 314.167,241.5 314.833,241.5 315.5,241.5C 314.305,245.286 313.638,245.286 313.5,241.5 Z"/></g>
<g><path style="opacity:1" fill="#eeefe1" d="M 243.5,245.5 C 245.199,245.34 246.866,245.506 248.5,246C 252.5,249 256.5,252 260.5,255C 252.47,259.476 243.803,261.81 234.5,262C 221.163,263.059 207.829,263.726 194.5,264C 195.725,258.222 198.725,253.556 203.5,250C 213.164,249.289 222.83,248.622 232.5,248C 236.392,247.581 240.058,246.748 243.5,245.5 Z"/></g>
<g><path style="opacity:1" fill="#5a3130" d="M 316.5,247.5 C 317.376,247.369 318.043,247.702 318.5,248.5C 317.948,250.333 317.115,252 316,253.5C 313.909,251.17 314.075,249.17 316.5,247.5 Z"/></g>
<g><path style="opacity:1" fill="#eeefe1" d="M 310.5,250.5 C 313.246,250.928 314.913,252.594 315.5,255.5C 314.167,257.5 312.833,259.5 311.5,261.5C 309.006,258.174 306.006,255.34 302.5,253C 305.251,252.057 307.917,251.224 310.5,250.5 Z"/></g>
<g><path style="opacity:1" fill="#eeefe1" d="M 301.5,258.5 C 297.639,259.849 293.973,261.682 290.5,264C 288.26,264.977 285.927,265.477 283.5,265.5C 283.414,264.504 283.748,263.671 284.5,263C 289.952,259.607 295.619,256.774 301.5,254.5C 301.5,255.833 301.5,257.167 301.5,258.5 Z"/></g>
<g><path style="opacity:1" fill="#7f1c1c" d="M 303.5,268.5 C 299.889,270.644 296.222,272.81 292.5,275C 287.709,276.235 283.042,277.735 278.5,279.5C 277.209,280.542 277.209,281.708 278.5,283C 274.594,285.388 273.594,284.554 275.5,280.5C 276.404,279.791 276.737,278.791 276.5,277.5C 278.818,275.815 279.818,273.481 279.5,270.5C 280.691,268.673 282.025,267.007 283.5,265.5C 285.927,265.477 288.26,264.977 290.5,264C 293.973,261.682 297.639,259.849 301.5,258.5C 302.212,257.261 303.212,256.761 304.5,257C 306.5,259.333 308.5,261.667 310.5,264C 309.136,267.609 306.803,269.109 303.5,268.5 Z"/></g>
<g><path style="opacity:1" fill="#fefffe" d="M 267.5,264.5 C 263.761,262.898 259.761,261.898 255.5,261.5C 257.318,259.42 259.651,258.086 262.5,257.5C 265.615,259.439 268.615,261.606 271.5,264C 270.207,264.49 268.873,264.657 267.5,264.5 Z"/></g>
<g><path style="opacity:1" fill="#721b1a" d="M 255.5,261.5 C 259.761,261.898 263.761,262.898 267.5,264.5C 271.65,264.315 275.984,264.648 280.5,265.5C 280.5,266.5 280.5,267.5 280.5,268.5C 278.167,268.5 275.833,268.5 273.5,268.5C 265.528,266.856 257.528,265.19 249.5,263.5C 249.5,263.167 249.5,262.833 249.5,262.5C 251.265,261.539 253.265,261.205 255.5,261.5 Z"/></g>
<g><path style="opacity:1" fill="#ec1c23" d="M 249.5,262.5 C 249.5,262.833 249.5,263.167 249.5,263.5C 247.833,266.308 248.5,268.475 251.5,270C 259.84,272.567 268.173,273.401 276.5,272.5C 278.379,272.393 278.712,272.893 277.5,274C 271.175,274.5 264.842,274.666 258.5,274.5C 254.914,273.456 251.248,272.623 247.5,272C 245.473,273.396 245.14,275.062 246.5,277C 249.063,278.079 251.729,278.579 254.5,278.5C 261.5,279.167 268.5,279.833 275.5,280.5C 274.833,281.167 274.167,281.833 273.5,282.5C 273.389,281.883 273.056,281.383 272.5,281C 267.66,280.574 262.827,280.74 258,281.5C 253.61,281.425 249.443,280.425 245.5,278.5C 244.584,278.543 243.917,278.876 243.5,279.5C 242.596,280.209 242.263,281.209 242.5,282.5C 215.882,277.313 200.382,287.98 196,314.5C 194.107,317.618 192.774,320.951 192,324.5C 187.599,327.499 183.766,326.999 180.5,323C 182.727,317.653 184.56,312.153 186,306.5C 186.807,302.814 186.307,299.314 184.5,296C 191.27,287.46 194.603,277.626 194.5,266.5C 212.877,265.697 231.211,264.364 249.5,262.5 Z"/></g>
<g><path style="opacity:1" fill="#eeefe1" d="M 287.5,273.5 C 285.585,273.784 283.919,273.451 282.5,272.5C 288.589,268.122 295.255,264.789 302.5,262.5C 302.719,263.675 302.386,264.675 301.5,265.5C 296.445,267.688 291.778,270.355 287.5,273.5 Z"/></g>
<g><path style="opacity:1" fill="#fefefe" d="M 249.5,263.5 C 257.528,265.19 265.528,266.856 273.5,268.5C 275.5,269.167 277.5,269.833 279.5,270.5C 278.29,270.932 277.29,271.599 276.5,272.5C 268.173,273.401 259.84,272.567 251.5,270C 248.5,268.475 247.833,266.308 249.5,263.5 Z"/></g>
<g><path style="opacity:1" fill="#737373" d="M 349.5,325.5 C 352.458,322.94 354.958,319.94 357,316.5C 357.688,315.668 357.521,315.002 356.5,314.5C 351.974,319.708 346.641,323.708 340.5,326.5C 333.093,326.125 326.093,327.958 319.5,332C 311.983,333.073 304.65,332.406 297.5,330C 302.16,329.354 306.16,327.521 309.5,324.5C 314.12,321.184 319.12,318.351 324.5,316C 328.587,312.584 331.92,308.584 334.5,304C 321.506,309.568 308.839,316.235 296.5,324C 294.553,324.991 292.553,325.325 290.5,325C 299.346,316.82 307.513,307.986 315,298.5C 316.114,294.84 315.28,294.007 312.5,296C 309.667,298.833 306.833,301.667 304,304.5C 302.392,307.772 300.392,310.772 298,313.5C 299.724,309.111 300.557,304.444 300.5,299.5C 300.614,296.636 300.114,293.97 299,291.5C 295.728,301.375 291.394,310.708 286,319.5C 283.981,317.318 281.481,316.318 278.5,316.5C 269.125,317.339 259.792,318.505 250.5,320C 249.833,320.667 249.167,321.333 248.5,322C 257.367,323.186 266.034,325.02 274.5,327.5C 271.732,340.646 268.232,353.646 264,366.5C 264.34,378.524 265.007,390.524 266,402.5C 263.073,414.208 257.239,424.041 248.5,432C 246.863,432.601 245.197,433.101 243.5,433.5C 235.428,431.982 227.428,430.149 219.5,428C 214.41,426.042 209.91,423.208 206,419.5C 196.042,405.719 192.709,390.386 196,373.5C 196.222,367.947 197.389,362.614 199.5,357.5C 200.583,371.578 202.249,385.578 204.5,399.5C 205.5,399.5 206.5,399.5 207.5,399.5C 205.139,383.747 203.472,367.914 202.5,352C 203.008,335.796 203.842,319.629 205,303.5C 208.201,292.941 215.201,287.941 226,288.5C 232.827,289.027 239.66,289.361 246.5,289.5C 247.017,298.828 247.517,308.161 248,317.5C 250.009,314.531 250.842,311.198 250.5,307.5C 250.481,302.74 249.815,298.074 248.5,293.5C 248.608,292.558 248.941,291.725 249.5,291C 265.025,289.261 280.025,285.428 294.5,279.5C 298.384,281.226 300.884,284.226 302,288.5C 301.333,285.167 300.667,281.833 300,278.5C 302.973,274.194 306.639,270.527 311,267.5C 311.667,266.167 312.333,264.833 313,263.5C 313.273,265.329 314.107,266.829 315.5,268C 329.836,268.963 344.17,269.963 358.5,271C 371.565,271.015 382.398,275.848 391,285.5C 395.123,296.482 396.457,307.815 395,319.5C 393.662,328.693 392.162,337.86 390.5,347C 391.172,354.884 393.172,362.384 396.5,369.5C 377.918,381.505 358.585,382.672 338.5,373C 337.833,372.333 337.167,371.667 336.5,371C 340.734,358.894 342.568,346.394 342,333.5C 344.705,330.964 347.205,328.297 349.5,325.5 Z"/></g>
<g><path style="opacity:1" fill="#eeefe1" d="M 303.5,268.5 C 303.703,270.39 303.037,271.89 301.5,273C 294.768,276.698 287.768,279.865 280.5,282.5C 279.081,281.995 278.415,280.995 278.5,279.5C 283.042,277.735 287.709,276.235 292.5,275C 296.222,272.81 299.889,270.644 303.5,268.5 Z"/></g>
<g><path style="opacity:1" fill="#000000" d="M 279.5,270.5 C 279.818,273.481 278.818,275.815 276.5,277.5C 270.735,275.853 264.735,274.853 258.5,274.5C 264.842,274.666 271.175,274.5 277.5,274C 278.712,272.893 278.379,272.393 276.5,272.5C 277.29,271.599 278.29,270.932 279.5,270.5 Z"/></g>
<g><path style="opacity:1" fill="#191a19" d="M 163.5,283.5 C 166.489,279.703 169.822,276.203 173.5,273C 176.951,272.527 180.285,273.027 183.5,274.5C 184.647,276.765 184.814,279.098 184,281.5C 182.524,286.406 181.524,291.406 181,296.5C 179.645,300.761 176.812,302.261 172.5,301C 168.916,298.959 165.416,296.792 162,294.5C 161.116,290.567 161.616,286.901 163.5,283.5 Z"/></g>
<g><path style="opacity:1" fill="#fefefe" d="M 258.5,274.5 C 264.735,274.853 270.735,275.853 276.5,277.5C 269.254,278.464 261.92,278.797 254.5,278.5C 251.729,278.579 249.063,278.079 246.5,277C 245.14,275.062 245.473,273.396 247.5,272C 251.248,272.623 254.914,273.456 258.5,274.5 Z"/></g>
<g><path style="opacity:1" fill="#000000" d="M 282.5,272.5 C 283.919,273.451 285.585,273.784 287.5,273.5C 285.636,274.793 283.636,274.793 281.5,273.5C 281.624,272.893 281.957,272.56 282.5,272.5 Z"/></g>
<g><path style="opacity:1" fill="#000000" d="M 276.5,277.5 C 276.737,278.791 276.404,279.791 275.5,280.5C 268.5,279.833 261.5,279.167 254.5,278.5C 261.92,278.797 269.254,278.464 276.5,277.5 Z"/></g>
<g><path style="opacity:1" fill="#fefefe" d="M 273.5,282.5 C 273.53,283.497 273.03,284.164 272,284.5C 268.848,285.22 265.681,285.887 262.5,286.5C 256.171,285.406 249.838,284.406 243.5,283.5C 243.5,282.167 243.5,280.833 243.5,279.5C 243.917,278.876 244.584,278.543 245.5,278.5C 249.443,280.425 253.61,281.425 258,281.5C 262.827,280.74 267.66,280.574 272.5,281C 273.056,281.383 273.389,281.883 273.5,282.5 Z"/></g>
<g><path style="opacity:1" fill="#eeefe1" d="M 218.5,283.5 C 232.259,283.554 245.926,284.72 259.5,287C 248.326,287.569 237.16,287.403 226,286.5C 214.329,285.808 206.662,291.142 203,302.5C 202.057,307.809 201.224,313.142 200.5,318.5C 198.81,321.024 196.643,323.024 194,324.5C 196.752,317.163 198.752,309.497 200,301.5C 202.955,297.756 205.789,293.922 208.5,290C 211.728,287.56 215.061,285.394 218.5,283.5 Z"/></g>
<g><path style="opacity:1" fill="#2c2c2c" d="M 309.5,324.5 C 304.969,326.469 300.303,328.135 295.5,329.5C 290.978,327.547 286.311,326.213 281.5,325.5C 278.795,325.316 276.462,325.983 274.5,327.5C 266.034,325.02 257.367,323.186 248.5,322C 249.167,321.333 249.833,320.667 250.5,320C 259.792,318.505 269.125,317.339 278.5,316.5C 281.481,316.318 283.981,317.318 286,319.5C 291.394,310.708 295.728,301.375 299,291.5C 300.114,293.97 300.614,296.636 300.5,299.5C 300.557,304.444 299.724,309.111 298,313.5C 300.392,310.772 302.392,307.772 304,304.5C 306.833,301.667 309.667,298.833 312.5,296C 315.28,294.007 316.114,294.84 315,298.5C 307.513,307.986 299.346,316.82 290.5,325C 292.553,325.325 294.553,324.991 296.5,324C 308.839,316.235 321.506,309.568 334.5,304C 331.92,308.584 328.587,312.584 324.5,316C 319.12,318.351 314.12,321.184 309.5,324.5 Z"/></g>
<g><path style="opacity:1" fill="#272727" d="M 386.5,305.5 C 387.598,306.601 387.765,307.934 387,309.5C 383.547,314.621 379.714,319.454 375.5,324C 370.833,326.333 366.167,328.667 361.5,331C 360.5,331.667 359.5,331.667 358.5,331C 367.73,322.265 377.063,313.765 386.5,305.5 Z"/></g>
<g><path style="opacity:1" fill="#000000" d="M 381.5,324.5 C 382.795,320.577 384.628,316.91 387,313.5C 386.248,317.67 384.415,321.337 381.5,324.5 Z"/></g>
<g><path style="opacity:1" fill="#2e2e2e" d="M 349.5,325.5 C 346.269,327.22 343.436,329.553 341,332.5C 340.505,330.527 340.338,328.527 340.5,326.5C 346.641,323.708 351.974,319.708 356.5,314.5C 357.521,315.002 357.688,315.668 357,316.5C 354.958,319.94 352.458,322.94 349.5,325.5 Z"/></g>
<g><path style="opacity:1" fill="#000000" d="M 387.5,319.5 C 389.49,333.029 385.49,344.862 375.5,355C 374.833,355.667 374.167,355.667 373.5,355C 382.217,347.067 386.717,337.234 387,325.5C 386,327.5 385,329.5 384,331.5C 375.937,340.616 366.771,348.45 356.5,355C 355.167,355.667 353.833,355.667 352.5,355C 356.739,353.098 360.739,350.765 364.5,348C 371.003,342.461 377.17,336.627 383,330.5C 385.066,327.039 386.566,323.373 387.5,319.5 Z"/></g>
<g><path style="opacity:1" fill="#000000" d="M 381.5,324.5 C 379.283,329.742 375.95,334.242 371.5,338C 366.187,342.65 360.354,346.483 354,349.5C 353.312,348.668 353.479,348.002 354.5,347.5C 365.329,341.928 374.329,334.261 381.5,324.5 Z"/></g>
<g><path style="opacity:1" fill="#2f2f2f" d="M 265.5,333.5 C 268.022,333.128 270.022,333.961 271.5,336C 262.682,342.884 252.682,346.718 241.5,347.5C 238.546,347.709 235.879,347.042 233.5,345.5C 241.175,342.174 249.175,339.674 257.5,338C 260.391,336.726 263.058,335.226 265.5,333.5 Z"/></g>
<g><path style="opacity:1" fill="#000000" d="M 267.5,346.5 C 267.367,350.927 265.367,354.76 261.5,358C 256.977,361.252 252.31,363.918 247.5,366C 251.659,362.753 255.992,359.753 260.5,357C 263.712,354.073 266.045,350.573 267.5,346.5 Z"/></g>
<g><path style="opacity:1" fill="#000000" d="M 367.5,359.5 C 369.379,359.393 369.712,359.893 368.5,361C 361.024,365.594 360.69,365.094 367.5,359.5 Z"/></g>
<g><path style="opacity:1" fill="#2f302f" d="M 340.5,376.5 C 354.048,381.397 367.882,382.397 382,379.5C 384.933,381.838 387.766,384.338 390.5,387C 394.414,388.283 398.414,389.116 402.5,389.5C 402.719,390.675 402.386,391.675 401.5,392.5C 396.5,395 391.5,397.5 386.5,400C 380.257,401.535 373.923,402.368 367.5,402.5C 367.632,405.889 367.799,409.223 368,412.5C 366.416,411.139 364.582,410.472 362.5,410.5C 362.784,407.223 362.451,404.057 361.5,401C 355.138,400.145 348.804,399.145 342.5,398C 340.714,397.215 339.214,396.049 338,394.5C 338.173,388.451 339.007,382.451 340.5,376.5 Z"/></g>
<g><path style="opacity:1" fill="#191a19" d="M 403.5,393.5 C 410.537,395.844 417.537,398.344 424.5,401C 426.848,403.354 427.514,406.021 426.5,409C 413.976,415.838 400.643,418.171 386.5,416C 381.049,415.756 375.716,414.923 370.5,413.5C 370.296,410.482 369.963,407.482 369.5,404.5C 382.196,404.807 393.529,401.141 403.5,393.5 Z"/></g>
</svg>
