<?xml version="1.0" encoding="UTF-8"?>
<!DOCTYPE svg PUBLIC "-//W3C//DTD SVG 1.1//EN" "http://www.w3.org/Graphics/SVG/1.1/DTD/svg11.dtd">
<svg xmlns="http://www.w3.org/2000/svg" version="1.1" width="430px" height="432px" style="shape-rendering:geometricPrecision; text-rendering:geometricPrecision; image-rendering:optimizeQuality; fill-rule:evenodd; clip-rule:evenodd" xmlns:xlink="http://www.w3.org/1999/xlink">
<g><path style="opacity:1" fill="#fefffe" d="M 194.5,38.5 C 199.179,38.3342 203.845,38.5008 208.5,39C 210.908,40.115 212.908,41.7816 214.5,44C 216.608,44.3599 218.608,45.0266 220.5,46C 224.913,50.2998 228.746,55.1332 232,60.5C 232.333,65.5 232.667,70.5 233,75.5C 235.667,78.1667 238.333,80.8333 241,83.5C 242.258,88.3514 241.424,92.6847 238.5,96.5C 239.145,97.646 239.978,98.646 241,99.5C 241.667,103.5 241.667,107.5 241,111.5C 239.667,112.167 238.333,112.833 237,113.5C 236.667,116.833 236.333,120.167 236,123.5C 234.842,123.998 234.009,124.831 233.5,126C 235.41,133.771 234.41,141.104 230.5,148C 231.269,152.887 232.269,157.72 233.5,162.5C 234.333,162.833 235.167,163.167 236,163.5C 260.18,162.315 284.347,160.815 308.5,159C 310.809,156.513 313.476,154.513 316.5,153C 343.826,151.83 371.159,151.497 398.5,152C 401.095,152.226 403.595,152.726 406,153.5C 406.167,155 406.333,156.5 406.5,158C 406.371,159.981 405.704,161.647 404.5,163C 395.531,164.051 386.531,164.718 377.5,165C 375.715,166.163 373.715,166.83 371.5,167C 358.029,167.649 344.696,169.315 331.5,172C 326.718,174.453 321.718,176.453 316.5,178C 307.833,179.667 299.167,181.333 290.5,183C 288.25,183.611 286.583,184.944 285.5,187C 274.846,187.833 264.18,188.333 253.5,188.5C 253.649,189.552 253.483,190.552 253,191.5C 248.675,194.864 244.508,198.364 240.5,202C 229.326,204.355 219.326,202.022 210.5,195C 208.866,194.506 207.199,194.34 205.5,194.5C 205.158,208.04 198.491,216.54 185.5,220C 183.343,221.981 181.676,224.314 180.5,227C 185.963,234.754 190.797,242.921 195,251.5C 195.839,256.921 195.506,262.254 194,267.5C 190.748,272.334 187.748,277.334 185,282.5C 184.667,285.5 184.333,288.5 184,291.5C 182.139,293.888 180.806,296.554 180,299.5C 178.725,306.149 177.558,312.816 176.5,319.5C 176.365,321.808 177.031,323.808 178.5,325.5C 181.86,328.194 184.86,331.194 187.5,334.5C 189.5,335.167 191.5,335.833 193.5,336.5C 194.662,341.131 194.828,345.798 194,350.5C 192.437,353.728 189.937,355.895 186.5,357C 170.572,359.25 155.572,356.583 141.5,349C 140.663,347.989 140.33,346.822 140.5,345.5C 126.975,347.305 113.475,347.639 100,346.5C 98.6705,340.548 98.3372,334.548 99,328.5C 101.667,324.5 104.333,320.5 107,316.5C 109.442,304.849 111.775,293.182 114,281.5C 116.179,275.832 119.346,270.832 123.5,266.5C 123.291,265.914 122.957,265.414 122.5,265C 116.109,264.098 110.775,261.264 106.5,256.5C 100.903,255.404 97.403,252.07 96,246.5C 95.3333,241.833 95.3333,237.167 96,232.5C 100.222,225.072 103.556,217.405 106,209.5C 101.245,212.128 96.4118,214.628 91.5,217C 87.1794,217.499 82.8461,217.666 78.5,217.5C 77.0669,209.834 75.5669,202.167 74,194.5C 73.1717,189.798 73.3384,185.131 74.5,180.5C 82.4236,179.148 90.4236,178.314 98.5,178C 100.216,173.232 102.216,168.566 104.5,164C 103.287,160.934 102.453,157.767 102,154.5C 101.333,143.167 101.333,131.833 102,120.5C 102.903,119.299 104.069,118.465 105.5,118C 113.863,118.245 121.863,116.745 129.5,113.5C 131.274,110.285 132.774,106.952 134,103.5C 135.644,100.689 137.81,98.356 140.5,96.5C 140.609,89.9942 142.942,84.4942 147.5,80C 149.025,78.9914 150.692,78.4914 152.5,78.5C 152.971,74.4975 154.971,71.3308 158.5,69C 164.436,67.8613 170.436,67.1946 176.5,67C 178.81,60.8587 182.477,55.6921 187.5,51.5C 188.046,46.0669 190.379,41.7335 194.5,38.5 Z M 143.5,310.5 C 144.647,314.646 144.814,318.98 144,323.5C 142.59,322.213 141.09,321.046 139.5,320C 141.533,317.104 142.866,313.937 143.5,310.5 Z"/></g>
<g><path style="opacity:1" fill="#060607" d="M 196.5,40.5 C 203.07,39.1629 208.404,40.9962 212.5,46C 214.608,46.3599 216.608,47.0266 218.5,48C 222.913,52.2998 226.746,57.1332 230,62.5C 230.333,67.5 230.667,72.5 231,77.5C 233.667,80.1667 236.333,82.8333 239,85.5C 239.667,87.5 239.667,89.5 239,91.5C 235.667,94.8333 235.667,98.1667 239,101.5C 239.667,104.167 239.667,106.833 239,109.5C 237.108,110.13 235.441,111.13 234,112.5C 234.456,115.428 234.456,118.428 234,121.5C 232.414,122.376 230.914,123.376 229.5,124.5C 231.365,127.225 232.365,130.225 232.5,133.5C 231.655,138.527 230.321,143.36 228.5,148C 229.084,153.59 230.084,159.09 231.5,164.5C 233,164.833 234.5,165.167 236,165.5C 260.857,164.385 285.691,162.885 310.5,161C 312.809,158.513 315.476,156.513 318.5,155C 337.331,154.424 356.165,153.924 375,153.5C 384.789,153.283 394.456,153.95 404,155.5C 404.863,157.749 404.363,159.582 402.5,161C 393.531,162.051 384.531,162.718 375.5,163C 373.715,164.163 371.715,164.83 369.5,165C 356.029,165.649 342.696,167.315 329.5,170C 324.718,172.453 319.718,174.453 314.5,176C 305.833,177.667 297.167,179.333 288.5,181C 286.25,181.611 284.583,182.944 283.5,185C 272.846,185.833 262.18,186.333 251.5,186.5C 251.649,187.552 251.483,188.552 251,189.5C 246.675,192.864 242.508,196.364 238.5,200C 228.705,201.719 220.039,199.385 212.5,193C 209.518,192.502 206.518,192.335 203.5,192.5C 203.158,206.04 196.491,214.54 183.5,218C 181.004,220.656 179.004,223.656 177.5,227C 184.442,236.553 189.776,246.886 193.5,258C 193.435,260.591 192.935,263.091 192,265.5C 188.748,270.334 185.748,275.334 183,280.5C 182.667,283.5 182.333,286.5 182,289.5C 180.139,291.888 178.806,294.554 178,297.5C 176.627,305.362 175.127,313.196 173.5,321C 174.024,323.413 175.024,325.58 176.5,327.5C 179.86,330.194 182.86,333.194 185.5,336.5C 187.5,337.167 189.5,337.833 191.5,338.5C 194.466,346.338 192.132,351.838 184.5,355C 169.915,356.87 156.249,354.204 143.5,347C 142.91,345.491 142.244,343.991 141.5,342.5C 128.379,345.045 115.212,345.712 102,344.5C 100.838,339.875 100.504,335.208 101,330.5C 103.667,326.5 106.333,322.5 109,318.5C 111.442,306.849 113.775,295.182 116,283.5C 118.817,276.698 122.984,270.865 128.5,266C 125.06,263.132 121.06,261.465 116.5,261C 112.055,257.536 107.388,254.536 102.5,252C 97.9117,246.995 96.4117,241.162 98,234.5C 102.886,225.741 106.886,216.741 110,207.5C 109.333,206.833 108.667,206.167 108,205.5C 101.912,208.794 95.7449,211.961 89.5,215C 86.5184,215.498 83.5184,215.665 80.5,215.5C 79.0669,207.834 77.5669,200.167 76,192.5C 75.1764,189.118 75.343,185.784 76.5,182.5C 84.4236,181.148 92.4236,180.314 100.5,180C 102.295,174.744 104.628,169.744 107.5,165C 105.926,160.944 104.759,156.778 104,152.5C 103.333,142.5 103.333,132.5 104,122.5C 104.903,121.299 106.069,120.465 107.5,120C 115.863,120.245 123.863,118.745 131.5,115.5C 133.274,112.285 134.774,108.952 136,105.5C 137.644,102.689 139.81,100.356 142.5,98.5C 142.609,91.9942 144.942,86.4942 149.5,82C 151.025,80.9914 152.692,80.4914 154.5,80.5C 156.311,72.7102 161.311,69.0435 169.5,69.5C 172.54,69.4169 175.373,70.0836 178,71.5C 179.636,64.0434 183.469,58.0434 189.5,53.5C 190.046,48.0669 192.379,43.7335 196.5,40.5 Z M 143.5,310.5 C 142.866,313.937 141.533,317.104 139.5,320C 141.09,321.046 142.59,322.213 144,323.5C 144.814,318.98 144.647,314.646 143.5,310.5 Z"/></g>
<g><path style="opacity:1" fill="#efefef" d="M 200.5,45.5 C 203.412,45.7888 205.412,47.2888 206.5,50C 203.14,52.0641 199.474,53.2308 195.5,53.5C 196.34,50.3243 198.007,47.6576 200.5,45.5 Z"/></g>
<g><path style="opacity:1" fill="#7e7f7e" d="M 204.5,65.5 C 206.045,66.2297 206.878,67.563 207,69.5C 207.308,68.6919 207.808,68.0253 208.5,67.5C 209.833,71.5 211.167,71.5 212.5,67.5C 213.614,68.723 213.781,70.0563 213,71.5C 210.401,71.3671 207.734,71.3671 205,71.5C 204.505,69.5273 204.338,67.5273 204.5,65.5 Z"/></g>
<g><path style="opacity:1" fill="#7e7f7e" d="M 217.5,78.5 C 218.451,79.9187 218.784,81.5853 218.5,83.5C 216.335,83.8841 214.668,83.2174 213.5,81.5C 215.231,78.7612 216.397,79.0945 217,82.5C 217.49,81.2068 217.657,79.8734 217.5,78.5 Z"/></g>
<g><path style="opacity:1" fill="#f2f2f2" d="M 174.5,79.5 C 182.144,80.8473 182.478,83.5139 175.5,87.5C 174.401,85.6477 173.401,83.8144 172.5,82C 173.056,80.9889 173.722,80.1556 174.5,79.5 Z"/></g>
<g><path style="opacity:1" fill="#54a360" d="M 229.5,87.5 C 228.849,86.9094 228.182,86.2427 227.5,85.5C 225.801,86.8146 224.135,86.8146 222.5,85.5C 223.072,82.7564 224.738,81.9231 227.5,83C 228.833,84.3333 230.167,85.6667 231.5,87C 230.906,87.4643 230.239,87.631 229.5,87.5 Z"/></g>
<g><path style="opacity:1" fill="#71739a" d="M 162.5,84.5 C 163.251,83.4265 164.251,83.2599 165.5,84C 174.291,88.3072 177.124,95.1406 174,104.5C 171.512,106.743 168.846,108.743 166,110.5C 164.933,109.809 163.766,109.309 162.5,109C 168.93,102.738 170.097,95.5711 166,87.5C 164.961,86.2899 163.794,85.2899 162.5,84.5 Z"/></g>
<g><path style="opacity:1" fill="#ec1c23" d="M 222.5,85.5 C 224.135,86.8146 225.801,86.8146 227.5,85.5C 228.182,86.2427 228.849,86.9094 229.5,87.5C 228.738,89.2624 227.404,90.2624 225.5,90.5C 224.642,87.705 222.642,87.0383 219.5,88.5C 219.5,86.5 220.5,85.5 222.5,85.5 Z"/></g>
<g><path style="opacity:1" fill="#fefffe" d="M 225.5,90.5 C 223.999,91.7515 222.332,92.7515 220.5,93.5C 220.567,92.0413 220.234,90.7079 219.5,89.5C 219.5,89.1667 219.5,88.8333 219.5,88.5C 222.642,87.0383 224.642,87.705 225.5,90.5 Z"/></g>
<g><path style="opacity:1" fill="#5f5f7f" d="M 154.5,84.5 C 160.798,84.2933 164.631,87.2933 166,93.5C 166.916,99.086 165.249,103.753 161,107.5C 159.913,105.068 159.413,105.402 159.5,108.5C 151.219,107.892 147.219,103.559 147.5,95.5C 148.128,93.7419 149.128,92.2419 150.5,91C 150.043,90.586 149.709,90.086 149.5,89.5C 150.882,87.4514 152.548,85.7847 154.5,84.5 Z"/></g>
<g><path style="opacity:1" fill="#fefffe" d="M 178.5,92.5 C 178.769,96.9315 178.436,101.265 177.5,105.5C 176.624,105.631 175.957,105.298 175.5,104.5C 176.739,102.689 177.406,100.689 177.5,98.5C 176.668,95.5182 176.501,92.5182 177,89.5C 177.232,90.7375 177.732,91.7375 178.5,92.5 Z"/></g>
<g><path style="opacity:1" fill="#ec1c23" d="M 219.5,89.5 C 220.234,90.7079 220.567,92.0413 220.5,93.5C 218.958,94.3007 217.292,94.634 215.5,94.5C 215.167,93.8333 214.833,93.1667 214.5,92.5C 215.605,90.7769 217.272,89.7769 219.5,89.5 Z"/></g>
<g><path style="opacity:1" fill="#e75c00" d="M 230.5,94.5 C 225.634,96.4004 220.801,98.4004 216,100.5C 214.517,103.702 214.183,107.036 215,110.5C 217.172,111.509 218.338,113.176 218.5,115.5C 211.181,114.998 208.014,110.998 209,103.5C 204.809,99.3747 202.309,100.375 201.5,106.5C 201.556,109.111 202.556,111.278 204.5,113C 202.97,114.12 201.303,114.954 199.5,115.5C 198.299,113.091 196.633,111.091 194.5,109.5C 194.5,107.167 194.5,104.833 194.5,102.5C 195.552,101.47 196.886,100.803 198.5,100.5C 210.367,100.115 221.367,96.782 231.5,90.5C 231.833,90.8333 232.167,91.1667 232.5,91.5C 231.807,92.5178 231.141,93.5178 230.5,94.5 Z"/></g>
<g><path style="opacity:1" fill="#50516d" d="M 194.5,102.5 C 194.5,104.833 194.5,107.167 194.5,109.5C 193.833,108.833 193.167,108.167 192.5,107.5C 190.253,107.915 188.086,108.582 186,109.5C 182.948,108.289 179.781,107.455 176.5,107C 177.056,106.617 177.389,106.117 177.5,105.5C 178.436,101.265 178.769,96.9315 178.5,92.5C 178.446,89.033 179.946,86.3663 183,84.5C 183.27,87.3617 184.104,90.0284 185.5,92.5C 188.804,93.8464 191.804,95.513 194.5,97.5C 194.5,99.1667 194.5,100.833 194.5,102.5 Z"/></g>
<g><path style="opacity:1" fill="#fefffe" d="M 214.5,92.5 C 214.833,93.1667 215.167,93.8333 215.5,94.5C 214.486,95.6737 213.153,96.3404 211.5,96.5C 211.167,95.8333 210.833,95.1667 210.5,94.5C 211.287,92.8958 212.62,92.2291 214.5,92.5 Z"/></g>
<g><path style="opacity:1" fill="#deeddf" d="M 204.5,95.5 C 204.5,96.1667 204.5,96.8333 204.5,97.5C 203.5,97.5 202.5,97.5 201.5,97.5C 201.5,96.1667 200.833,95.5 199.5,95.5C 200.172,94.7326 201.005,94.0659 202,93.5C 202.708,94.3805 203.542,95.0472 204.5,95.5 Z"/></g>
<g><path style="opacity:1" fill="#ec1c23" d="M 210.5,94.5 C 210.833,95.1667 211.167,95.8333 211.5,96.5C 209.283,97.3686 206.95,97.702 204.5,97.5C 204.5,96.8333 204.5,96.1667 204.5,95.5C 205.15,95.8039 205.817,96.1373 206.5,96.5C 207.622,95.3698 208.956,94.7031 210.5,94.5 Z"/></g>
<g><path style="opacity:1" fill="#ec1c23" d="M 199.5,95.5 C 200.833,95.5 201.5,96.1667 201.5,97.5C 199.712,98.6225 197.712,98.7891 195.5,98C 196.693,96.9054 198.027,96.072 199.5,95.5 Z"/></g>
<g><path style="opacity:1" fill="#dfcda8" d="M 220.5,124.5 C 219.739,123.609 218.739,122.942 217.5,122.5C 212.905,124.52 209.239,123.52 206.5,119.5C 204.929,118.691 203.262,118.357 201.5,118.5C 200.094,118.027 199.427,117.027 199.5,115.5C 201.303,114.954 202.97,114.12 204.5,113C 202.556,111.278 201.556,109.111 201.5,106.5C 202.309,100.375 204.809,99.3747 209,103.5C 208.014,110.998 211.181,114.998 218.5,115.5C 218.338,113.176 217.172,111.509 215,110.5C 214.183,107.036 214.517,103.702 216,100.5C 220.801,98.4004 225.634,96.4004 230.5,94.5C 234.081,93.7088 234.414,94.8755 231.5,98C 228.367,97.9539 225.7,98.9539 223.5,101C 226.191,101.049 228.858,101.049 231.5,101C 237.065,105.335 236.065,107.335 228.5,107C 229.833,107.333 231.167,107.667 232.5,108C 230.649,109.684 228.982,111.517 227.5,113.5C 228.5,114.833 229.5,116.167 230.5,117.5C 228.005,119.164 226.005,121.33 224.5,124C 223.207,124.49 221.873,124.657 220.5,124.5 Z"/></g>
<g><path style="opacity:1" fill="#393a39" d="M 144.5,102.5 C 146.909,104.367 149.242,106.534 151.5,109C 153.392,109.973 155.392,110.64 157.5,111C 155.833,112 154.167,113 152.5,114C 147.384,114.696 142.384,115.863 137.5,117.5C 138.058,111.895 140.391,106.895 144.5,102.5 Z"/></g>
<g><path style="opacity:1" fill="#b4b4b4" d="M 192.5,107.5 C 193.167,108.167 193.833,108.833 194.5,109.5C 196.633,111.091 198.299,113.091 199.5,115.5C 199.427,117.027 200.094,118.027 201.5,118.5C 203.931,124.825 203.098,130.825 199,136.5C 198.722,135.584 198.222,134.918 197.5,134.5C 195.735,130.631 194.235,126.631 193,122.5C 192.292,121.619 191.458,120.953 190.5,120.5C 189.363,117.771 188.03,115.104 186.5,112.5C 186.97,111.537 187.637,111.537 188.5,112.5C 192.913,116.976 196.079,122.309 198,128.5C 199.518,126.386 199.851,124.053 199,121.5C 196.579,117.929 194.413,114.262 192.5,110.5C 192.5,109.5 192.5,108.5 192.5,107.5 Z"/></g>
<g><path style="opacity:1" fill="#ececec" d="M 179.5,118.5 C 176.992,116.076 173.992,114.41 170.5,113.5C 169.5,113.5 168.5,113.5 167.5,113.5C 167.651,110.282 168.484,109.949 170,112.5C 170.49,111.207 170.657,109.873 170.5,108.5C 178.139,107.814 181.139,111.147 179.5,118.5 Z"/></g>
<g><path style="opacity:1" fill="#fef200" d="M 192.5,110.5 C 194.413,114.262 196.579,117.929 199,121.5C 199.851,124.053 199.518,126.386 198,128.5C 196.079,122.309 192.913,116.976 188.5,112.5C 189.345,110.238 190.678,109.571 192.5,110.5 Z"/></g>
<g><path style="opacity:1" fill="#e31a21" d="M 173.5,123.5 C 174.183,125.176 175.517,125.843 177.5,125.5C 178.603,129.485 177.27,132.651 173.5,135C 159.304,140.808 144.637,142.641 129.5,140.5C 130.013,146.358 129.346,152.025 127.5,157.5C 122.688,159.271 117.854,160.937 113,162.5C 108.772,150.852 107.438,138.852 109,126.5C 109.5,125.333 110.333,124.5 111.5,124C 115.5,123.667 119.5,123.333 123.5,123C 133.43,120.351 143.43,118.017 153.5,116C 162.685,108.51 168.185,110.677 170,122.5C 171.011,123.337 172.178,123.67 173.5,123.5 Z"/></g>
<g><path style="opacity:1" fill="#d5d5d5" d="M 181.5,111.5 C 184.276,113.033 186.11,115.366 187,118.5C 187.667,121.833 187.667,125.167 187,128.5C 183.907,135.023 180.573,141.356 177,147.5C 175.833,146.333 174.667,145.167 173.5,144C 176.755,138.324 179.588,132.491 182,126.5C 182.726,121.448 182.559,116.448 181.5,111.5 Z"/></g>
<g><path style="opacity:1" fill="#ababab" d="M 170.5,113.5 C 173.992,114.41 176.992,116.076 179.5,118.5C 180.323,120.455 180.49,122.455 180,124.5C 179.329,125.252 178.496,125.586 177.5,125.5C 175.517,125.843 174.183,125.176 173.5,123.5C 173.607,121.621 173.107,121.288 172,122.5C 169.833,121 170,119.833 172.5,119C 169.456,118.641 169.122,117.974 171.5,117C 168.046,116.372 167.713,115.205 170.5,113.5 Z"/></g>
<g><path style="opacity:1" fill="#931013" d="M 190.5,120.5 C 191.458,120.953 192.292,121.619 193,122.5C 194.235,126.631 195.735,130.631 197.5,134.5C 197.443,135.609 197.11,136.609 196.5,137.5C 197.5,139.5 198.5,141.5 199.5,143.5C 202.028,144.166 204.694,144.832 207.5,145.5C 204.703,149.637 201.036,152.637 196.5,154.5C 195.558,154.392 194.725,154.059 194,153.5C 191.57,142.424 190.403,131.424 190.5,120.5 Z"/></g>
<g><path style="opacity:1" fill="#e3e4e3" d="M 220.5,124.5 C 225.34,142.029 219.673,155.529 203.5,165C 202.251,165.74 201.251,165.573 200.5,164.5C 201.167,164.5 201.5,164.167 201.5,163.5C 203.392,162.298 205.226,160.965 207,159.5C 209.587,155.239 212.587,151.239 216,147.5C 216.87,140.185 217.537,132.852 218,125.5C 218.671,124.748 219.504,124.414 220.5,124.5 Z"/></g>
<g><path style="opacity:1" fill="#e3e4e3" d="M 213.5,127.5 C 215.549,127.706 215.883,128.539 214.5,130C 211.833,132 209.167,134 206.5,136C 205.241,136.982 203.908,137.315 202.5,137C 206.612,134.288 210.278,131.122 213.5,127.5 Z"/></g>
<g><path style="opacity:1" fill="#e3e4e3" d="M 188.5,129.5 C 189.984,138.013 191.318,146.679 192.5,155.5C 191.07,155.421 189.736,155.754 188.5,156.5C 186.66,150.971 185.327,145.304 184.5,139.5C 185.283,135.936 186.616,132.603 188.5,129.5 Z"/></g>
<g><path style="opacity:1" fill="#e3e4e3" d="M 213.5,131.5 C 216.466,141.684 213.466,150.184 204.5,157C 201.617,159.845 198.951,159.845 196.5,157C 201.252,154.252 205.419,150.752 209,146.5C 210.293,141.331 211.793,136.331 213.5,131.5 Z"/></g>
<g><path style="opacity:1" fill="#eff0ef" d="M 224.5,134.5 C 226.085,135.002 226.585,136.002 226,137.5C 224.961,136.756 224.461,135.756 224.5,134.5 Z"/></g>
<g><path style="opacity:1" fill="#c00f18" d="M 174.5,135.5 C 175.043,135.56 175.376,135.893 175.5,136.5C 173.805,141.026 171.138,144.859 167.5,148C 161.472,148.83 155.472,148.664 149.5,147.5C 150.309,145.929 150.643,144.262 150.5,142.5C 155.17,141.779 159.837,140.946 164.5,140C 168.23,139.089 171.563,137.589 174.5,135.5 Z"/></g>
<g><path style="opacity:1" fill="#e3e4e3" d="M 196.5,137.5 C 200.481,138.021 204.481,138.354 208.5,138.5C 208.579,139.93 208.246,141.264 207.5,142.5C 204.914,143.48 202.247,143.813 199.5,143.5C 198.5,141.5 197.5,139.5 196.5,137.5 Z"/></g>
<g><path style="opacity:1" fill="#000000" d="M 200.5,139.5 C 202.195,140.011 203.861,140.678 205.5,141.5C 202.83,143.09 201.163,142.423 200.5,139.5 Z"/></g>
<g><path style="opacity:1" fill="#a10d13" d="M 182.5,140.5 C 183.943,144.615 184.943,148.948 185.5,153.5C 182.415,153.458 180.081,152.125 178.5,149.5C 180.122,146.592 181.456,143.592 182.5,140.5 Z"/></g>
<g><path style="opacity:1" fill="#c5111a" d="M 222.5,145.5 C 223.852,153.317 224.852,161.317 225.5,169.5C 220.492,170.592 215.492,170.592 210.5,169.5C 209.872,167.742 208.872,166.242 207.5,165C 215.005,160.341 220.005,153.841 222.5,145.5 Z"/></g>
<g><path style="opacity:1" fill="#e3e4e3" d="M 171.5,147.5 C 173.196,147.685 174.529,148.519 175.5,150C 174,151.5 172.5,153 171,154.5C 169.978,153.646 169.145,152.646 168.5,151.5C 169.524,150.148 170.524,148.815 171.5,147.5 Z"/></g>
<g><path style="opacity:1" fill="#e3e4e3" d="M 152.5,149.5 C 157.537,149.413 162.537,149.746 167.5,150.5C 167.67,151.822 167.337,152.989 166.5,154C 159.144,154.831 151.811,154.665 144.5,153.5C 144.977,152.522 145.643,151.689 146.5,151C 148.708,150.809 150.708,150.309 152.5,149.5 Z"/></g>
<g><path style="opacity:1" fill="#d5d5d5" d="M 176.5,151.5 C 177.801,152.64 178.968,153.973 180,155.5C 182.573,154.017 184.74,154.517 186.5,157C 184.884,157.615 183.551,158.615 182.5,160C 181.5,160.667 180.5,160.667 179.5,160C 178.333,158.5 177.167,157 176,155.5C 175.086,156.654 174.253,156.487 173.5,155C 174.71,153.961 175.71,152.794 176.5,151.5 Z"/></g>
<g><path style="opacity:1" fill="#e21820" d="M 155.5,172.5 C 154.161,169.299 152.494,168.965 150.5,171.5C 151.5,173.167 152.833,174.5 154.5,175.5C 154.167,175.833 153.833,176.167 153.5,176.5C 152.167,175.5 150.833,174.5 149.5,173.5C 146.905,175.433 144.572,175.433 142.5,173.5C 142.977,172.522 143.643,171.689 144.5,171C 144.272,170.601 143.938,170.435 143.5,170.5C 142.909,169.849 142.243,169.182 141.5,168.5C 144.052,166.631 146.552,164.631 149,162.5C 148.782,160.413 148.949,158.413 149.5,156.5C 161.205,153.593 171.871,155.593 181.5,162.5C 180.076,164.718 178.076,166.218 175.5,167C 168.903,169.149 162.236,170.982 155.5,172.5 Z"/></g>
<g><path style="opacity:1" fill="#313131" d="M 139.5,170.5 C 139.259,172.886 139.925,174.886 141.5,176.5C 139.983,176.511 138.816,177.177 138,178.5C 137.814,181.036 137.314,183.369 136.5,185.5C 136.5,183.167 136.5,180.833 136.5,178.5C 134.901,178.768 133.568,178.434 132.5,177.5C 135.189,170.456 138.689,163.79 143,157.5C 145.503,156.45 147.003,157.45 147.5,160.5C 145.313,162.85 142.813,164.85 140,166.5C 139.51,167.793 139.343,169.127 139.5,170.5 Z"/></g>
<g><path style="opacity:1" fill="#7e7f7e" d="M 191.5,157.5 C 194.09,158.128 196.423,159.295 198.5,161C 196.383,162.731 194.883,164.898 194,167.5C 192.806,168.43 191.473,169.097 190,169.5C 181.321,164.65 181.821,160.65 191.5,157.5 Z"/></g>
<g><path style="opacity:1" fill="#7e7f7e" d="M 358.5,157.5 C 370.171,157.333 381.838,157.5 393.5,158C 392.833,158.333 392.167,158.667 391.5,159C 369.252,160.328 347.085,162.494 325,165.5C 322.4,165.082 320.233,163.916 318.5,162C 319.551,160.615 320.884,159.615 322.5,159C 334.674,158.831 346.674,158.331 358.5,157.5 Z"/></g>
<g><path style="opacity:1" fill="#fef200" d="M 130.5,163.5 C 128.974,164.492 128.307,165.992 128.5,168C 128.514,169.385 128.848,170.551 129.5,171.5C 129.918,172.222 130.584,172.722 131.5,173C 125.181,177.131 118.515,178.464 111.5,177C 112.416,176.722 113.082,176.222 113.5,175.5C 114.634,173.034 114.801,170.367 114,167.5C 113.617,166.944 113.117,166.611 112.5,166.5C 112.389,165.883 112.056,165.383 111.5,165C 116.793,163.886 121.96,162.386 127,160.5C 128.908,160.715 130.074,161.715 130.5,163.5 Z"/></g>
<g><path style="opacity:1" fill="#921113" d="M 201.5,163.5 C 201.5,164.167 201.167,164.5 200.5,164.5C 198.115,163.133 198.448,161.799 201.5,160.5C 202.087,161.233 202.087,162.233 201.5,163.5 Z"/></g>
<g><path style="opacity:1" fill="#7e7f7e" d="M 316.5,162.5 C 318.522,164.456 320.855,165.956 323.5,167C 321.317,168.694 318.984,168.861 316.5,167.5C 315.185,165.801 315.185,164.135 316.5,162.5 Z"/></g>
<g><path style="opacity:1" fill="#b0b0b0" d="M 130.5,163.5 C 131.156,164.622 131.489,165.955 131.5,167.5C 131.415,169.333 130.748,170.666 129.5,171.5C 128.848,170.551 128.514,169.385 128.5,168C 128.307,165.992 128.974,164.492 130.5,163.5 Z"/></g>
<g><path style="opacity:1" fill="#8b8b8b" d="M 123.5,163.5 C 124.496,163.414 125.329,163.748 126,164.5C 126.667,167.5 126.667,170.5 126,173.5C 122.341,175.02 120.841,173.687 121.5,169.5C 121.363,167.159 122.03,165.159 123.5,163.5 Z"/></g>
<g><path style="opacity:1" fill="#8b8b8b" d="M 116.5,164.5 C 118.017,164.511 119.184,165.177 120,166.5C 120.667,169.167 120.667,171.833 120,174.5C 118.667,175.833 117.333,175.833 116,174.5C 115.253,171.076 115.42,167.743 116.5,164.5 Z"/></g>
<g><path style="opacity:1" fill="#e3e4e3" d="M 180.5,165.5 C 182.296,166.793 183.963,168.293 185.5,170C 184.833,170.667 184.167,171.333 183.5,172C 176.483,172.602 169.483,172.935 162.5,173C 168.758,170.974 174.758,168.474 180.5,165.5 Z"/></g>
<g><path style="opacity:1" fill="#e3e4e3" d="M 197.5,165.5 C 198.922,165.709 200.255,166.209 201.5,167C 200.299,167.903 199.465,169.069 199,170.5C 196.676,169.225 196.176,167.558 197.5,165.5 Z"/></g>
<g><path style="opacity:1" fill="#b1b1b1" d="M 112.5,166.5 C 113.117,166.611 113.617,166.944 114,167.5C 114.801,170.367 114.634,173.034 113.5,175.5C 112.235,174.486 111.569,172.986 111.5,171C 111.508,169.293 111.842,167.793 112.5,166.5 Z"/></g>
<g><path style="opacity:1" fill="#4d4d4d" d="M 302.5,167.5 C 286.701,169.483 270.701,170.817 254.5,171.5C 252.396,171.799 250.396,171.466 248.5,170.5C 264.316,169.001 280.149,167.668 296,166.5C 298.361,166.504 300.527,166.837 302.5,167.5 Z"/></g>
<g><path style="opacity:1" fill="#fefffe" d="M 204.5,167.5 C 206.196,167.685 207.529,168.519 208.5,170C 206.5,170.667 204.5,170.667 202.5,170C 203.381,169.292 204.047,168.458 204.5,167.5 Z"/></g>
<g><path style="opacity:1" fill="#b87a56" d="M 302.5,167.5 C 304.5,167.5 306.5,167.5 308.5,167.5C 308.5,168.833 308.5,170.167 308.5,171.5C 300.358,172.517 292.358,174.184 284.5,176.5C 283.071,175.065 281.405,174.065 279.5,173.5C 278,173.453 277,174.119 276.5,175.5C 267.823,176.602 259.157,177.602 250.5,178.5C 249.77,176.659 249.103,174.825 248.5,173C 250.708,172.809 252.708,172.309 254.5,171.5C 270.701,170.817 286.701,169.483 302.5,167.5 Z"/></g>
<g><path style="opacity:1" fill="#edd8ac" d="M 230.5,177.5 C 231.114,174.692 232.281,172.025 234,169.5C 234.832,185.486 235.332,185.486 235.5,169.5C 236.833,169.5 238.167,169.5 239.5,169.5C 239.833,184.167 240.167,184.167 240.5,169.5C 241.5,169.5 242.5,169.5 243.5,169.5C 243.335,172.518 243.502,175.518 244,178.5C 244.333,175.167 244.667,171.833 245,168.5C 247.513,174.489 248.013,180.656 246.5,187C 240.842,190.793 234.842,191.793 228.5,190C 227.643,189.311 226.977,188.478 226.5,187.5C 229.34,184.837 230.674,181.504 230.5,177.5 Z"/></g>
<g><path style="opacity:1" fill="#e3e4e3" d="M 193.5,169.5 C 194.043,169.56 194.376,169.893 194.5,170.5C 193.635,171.583 192.635,171.749 191.5,171C 192.416,170.722 193.082,170.222 193.5,169.5 Z"/></g>
<g><path style="opacity:1" fill="#5b5b5b" d="M 155.5,172.5 C 156.631,175.333 158.798,176.666 162,176.5C 184.824,174.797 207.658,173.63 230.5,173C 227.635,173.183 224.969,173.683 222.5,174.5C 205.703,176.536 188.703,177.869 171.5,178.5C 167.637,178.462 163.804,178.795 160,179.5C 157.966,179.646 156.299,178.98 155,177.5C 154.383,178.449 154.549,179.282 155.5,180C 157.167,180.333 158.833,180.667 160.5,181C 154.858,185.167 148.858,186.001 142.5,183.5C 141.522,183.189 140.855,182.522 140.5,181.5C 141.309,179.929 141.643,178.262 141.5,176.5C 139.925,174.886 139.259,172.886 139.5,170.5C 140.833,170.5 142.167,170.5 143.5,170.5C 143.938,170.435 144.272,170.601 144.5,171C 143.643,171.689 142.977,172.522 142.5,173.5C 144.572,175.433 146.905,175.433 149.5,173.5C 150.833,174.5 152.167,175.5 153.5,176.5C 153.833,176.167 154.167,175.833 154.5,175.5C 152.833,174.5 151.5,173.167 150.5,171.5C 152.494,168.965 154.161,169.299 155.5,172.5 Z"/></g>
<g><path style="opacity:1" fill="#b77856" d="M 222.5,174.5 C 225.167,174.5 227.833,174.5 230.5,174.5C 230.5,175.5 230.5,176.5 230.5,177.5C 223.827,180.404 216.827,182.237 209.5,183C 192.87,184.776 176.204,186.109 159.5,187C 155.468,187.773 151.468,188.606 147.5,189.5C 147.103,188.475 146.437,188.308 145.5,189C 144.816,192.922 142.482,194.422 138.5,193.5C 137.5,192.5 136.5,191.5 135.5,190.5C 134.322,188.662 134.655,186.995 136.5,185.5C 137.314,183.369 137.814,181.036 138,178.5C 138.816,177.177 139.983,176.511 141.5,176.5C 141.643,178.262 141.309,179.929 140.5,181.5C 140.855,182.522 141.522,183.189 142.5,183.5C 142.953,184.458 143.619,185.292 144.5,186C 147.5,186.667 150.5,186.667 153.5,186C 159.483,183.112 165.483,180.612 171.5,178.5C 188.703,177.869 205.703,176.536 222.5,174.5 Z"/></g>
<g><path style="opacity:1" fill="#e8d6b3" d="M 132.5,177.5 C 133.568,178.434 134.901,178.768 136.5,178.5C 136.5,180.833 136.5,183.167 136.5,185.5C 134.655,186.995 134.322,188.662 135.5,190.5C 135.662,192.527 135.495,194.527 135,196.5C 133.284,197.552 132.284,196.886 132,194.5C 131.593,198.33 130.26,198.997 128,196.5C 126.749,199.816 125.082,200.15 123,197.5C 122.612,198.428 121.945,199.095 121,199.5C 118.773,198.883 117.273,197.549 116.5,195.5C 115.416,192.996 114.083,190.663 112.5,188.5C 112.5,185.833 112.5,183.167 112.5,180.5C 119.131,180.437 125.297,178.771 131,175.5C 131.278,176.416 131.778,177.082 132.5,177.5 Z"/></g>
<g><path style="opacity:1" fill="#fec90d" d="M 278.5,175.5 C 280.337,175.639 280.67,176.306 279.5,177.5C 278.702,177.043 278.369,176.376 278.5,175.5 Z"/></g>
<g><path style="opacity:1" fill="#000000" d="M 171.5,178.5 C 165.483,180.612 159.483,183.112 153.5,186C 150.5,186.667 147.5,186.667 144.5,186C 143.619,185.292 142.953,184.458 142.5,183.5C 148.858,186.001 154.858,185.167 160.5,181C 158.833,180.667 157.167,180.333 155.5,180C 154.549,179.282 154.383,178.449 155,177.5C 156.299,178.98 157.966,179.646 160,179.5C 163.804,178.795 167.637,178.462 171.5,178.5 Z"/></g>
<g><path style="opacity:1" fill="#fefffe" d="M 265.5,178.5 C 270.297,178.121 274.964,178.621 279.5,180C 269.507,180.917 259.507,181.25 249.5,181C 254.936,179.989 260.27,179.156 265.5,178.5 Z"/></g>
<g><path style="opacity:1" fill="#fefffe" d="M 224.5,181.5 C 225.873,181.343 227.207,181.51 228.5,182C 221.684,184.43 214.684,186.097 207.5,187C 188.481,188.591 169.481,189.925 150.5,191C 153.471,190.206 156.471,189.539 159.5,189C 176.539,188.146 193.539,186.813 210.5,185C 215.465,184.513 220.132,183.346 224.5,181.5 Z"/></g>
<g><path style="opacity:1" fill="#af7352" d="M 112.5,188.5 C 114.083,190.663 115.416,192.996 116.5,195.5C 116.5,196.5 116.5,197.5 116.5,198.5C 106.508,199.406 97.341,202.74 89,208.5C 88.6174,207.944 88.1174,207.611 87.5,207.5C 85.4205,201.442 84.0872,195.109 83.5,188.5C 84.1522,187.275 85.3189,186.608 87,186.5C 95.1569,185.667 103.324,185.001 111.5,184.5C 111.232,186.099 111.566,187.432 112.5,188.5 Z"/></g>
<g><path style="opacity:1" fill="#fec90d" d="M 83.5,188.5 C 84.0872,195.109 85.4205,201.442 87.5,207.5C 87.2942,209.549 86.4609,209.883 85,208.5C 83.7488,201.574 82.2488,194.741 80.5,188C 81.7195,186.205 82.7195,186.372 83.5,188.5 Z"/></g>
<g><path style="opacity:1" fill="#fef200" d="M 220.5,187.5 C 221.833,187.5 223.167,187.5 224.5,187.5C 224.297,189.39 224.963,190.89 226.5,192C 229.377,193.127 232.377,193.794 235.5,194C 230.625,195.461 225.958,194.628 221.5,191.5C 220.571,190.311 220.238,188.978 220.5,187.5 Z"/></g>
<g><path style="opacity:1" fill="#5a625b" d="M 147.5,189.5 C 148.301,191.042 148.634,192.708 148.5,194.5C 147.174,196.195 147.507,197.528 149.5,198.5C 148.957,198.56 148.624,198.893 148.5,199.5C 151.094,203.026 153.427,206.692 155.5,210.5C 155.443,211.609 155.11,212.609 154.5,213.5C 153.833,212.833 153.167,212.167 152.5,211.5C 152.291,210.078 151.791,208.745 151,207.5C 150.623,208.942 149.79,209.942 148.5,210.5C 148.461,209.417 148.127,208.417 147.5,207.5C 148.811,206.742 149.311,205.742 149,204.5C 148.586,204.957 148.086,205.291 147.5,205.5C 146.041,203.417 144.708,201.25 143.5,199C 141.613,198.22 139.946,198.387 138.5,199.5C 137.833,198.833 137.167,198.167 136.5,197.5C 136.157,195.517 136.824,194.183 138.5,193.5C 142.482,194.422 144.816,192.922 145.5,189C 146.437,188.308 147.103,188.475 147.5,189.5 Z"/></g>
<g><path style="opacity:1" fill="#0e6189" d="M 193.5,193.5 C 193.382,196.688 192.549,199.688 191,202.5C 188.585,205.014 186.419,207.681 184.5,210.5C 183.5,210.5 182.5,210.5 181.5,210.5C 182.158,204.206 183.825,198.206 186.5,192.5C 187.667,192.167 188.833,191.833 190,191.5C 191.681,191.608 192.848,192.275 193.5,193.5 Z"/></g>
<g><path style="opacity:1" fill="#870014" d="M 184.5,210.5 C 186.419,207.681 188.585,205.014 191,202.5C 192.549,199.688 193.382,196.688 193.5,193.5C 195.161,190.839 196.828,190.839 198.5,193.5C 197.028,200.136 193.695,205.636 188.5,210C 187.207,210.49 185.873,210.657 184.5,210.5 Z"/></g>
<g><path style="opacity:1" fill="#142a92" d="M 175.5,192.5 C 173.793,193.873 172.46,195.539 171.5,197.5C 170.298,196.595 168.964,196.595 167.5,197.5C 168.234,196.292 168.567,194.959 168.5,193.5C 169.15,193.804 169.817,194.137 170.5,194.5C 171.85,193.05 173.516,192.383 175.5,192.5 Z"/></g>
<g><path style="opacity:1" fill="#457f53" d="M 168.5,193.5 C 168.567,194.959 168.234,196.292 167.5,197.5C 166.213,196.232 165.213,196.565 164.5,198.5C 163.148,197.476 161.815,196.476 160.5,195.5C 160.369,194.624 160.702,193.957 161.5,193.5C 163.655,193.838 165.989,193.838 168.5,193.5 Z"/></g>
<g><path style="opacity:1" fill="#6f9181" d="M 175.5,192.5 C 178.062,193.18 180.729,193.347 183.5,193C 180.237,193.537 179.57,195.204 181.5,198C 180.459,203.163 179.459,208.33 178.5,213.5C 175.829,216.837 173.663,220.504 172,224.5C 171.79,222.942 171.29,221.609 170.5,220.5C 170.283,215.77 170.617,211.103 171.5,206.5C 172.038,204.883 172.371,203.216 172.5,201.5C 174.94,198.922 174.606,197.588 171.5,197.5C 172.46,195.539 173.793,193.873 175.5,192.5 Z"/></g>
<g><path style="opacity:1" fill="#257968" d="M 148.5,194.5 C 150.074,194.937 151.241,195.937 152,197.5C 152.617,196.551 152.451,195.718 151.5,195C 152.577,194.53 153.577,194.697 154.5,195.5C 154.369,196.239 154.536,196.906 155,197.5C 156,196.167 157,196.167 158,197.5C 158.483,196.552 158.649,195.552 158.5,194.5C 159.338,194.842 159.672,195.508 159.5,196.5C 161.229,197.236 162.229,198.57 162.5,200.5C 161.213,199.232 160.213,199.565 159.5,201.5C 158.833,200.5 158.167,199.5 157.5,198.5C 155.308,199.27 153.974,200.27 153.5,201.5C 151.77,200.974 150.436,199.974 149.5,198.5C 147.507,197.528 147.174,196.195 148.5,194.5 Z"/></g>
<g><path style="opacity:1" fill="#142a92" d="M 158.5,194.5 C 158.649,195.552 158.483,196.552 158,197.5C 157,196.167 156,196.167 155,197.5C 154.536,196.906 154.369,196.239 154.5,195.5C 155.833,195.167 157.167,194.833 158.5,194.5 Z"/></g>
<g><path style="opacity:1" fill="#41855d" d="M 171.5,197.5 C 171.611,198.117 171.944,198.617 172.5,199C 171,200.5 169.5,202 168,203.5C 167.044,202.421 166.211,201.255 165.5,200C 166.756,199.583 167.423,198.75 167.5,197.5C 168.964,196.595 170.298,196.595 171.5,197.5 Z"/></g>
<g><path style="opacity:1" fill="#d1f31a" d="M 136.5,197.5 C 136.5,200.5 136.5,203.5 136.5,206.5C 135.812,215.198 134.812,223.865 133.5,232.5C 132.631,230.283 132.298,227.95 132.5,225.5C 133.479,222.375 133.813,219.042 133.5,215.5C 134.482,212.038 134.815,208.371 134.5,204.5C 135.461,202.735 135.795,200.735 135.5,198.5C 135.5,197.833 135.833,197.5 136.5,197.5 Z"/></g>
<g><path style="opacity:1" fill="#142a92" d="M 136.5,197.5 C 137.167,198.167 137.833,198.833 138.5,199.5C 139.167,199.5 139.5,199.833 139.5,200.5C 137.94,202.156 136.94,204.156 136.5,206.5C 136.5,203.5 136.5,200.5 136.5,197.5 Z"/></g>
<g><path style="opacity:1" fill="#2c7774" d="M 133.5,198.5 C 133.5,199.5 133.5,200.5 133.5,201.5C 131.882,204.171 131.215,207.171 131.5,210.5C 130.348,211.625 129.348,211.625 128.5,210.5C 128.565,207.572 129.232,204.905 130.5,202.5C 131.022,200.781 132.022,199.448 133.5,198.5 Z"/></g>
<g><path style="opacity:1" fill="#423e7e" d="M 133.5,198.5 C 134.167,198.5 134.833,198.5 135.5,198.5C 135.795,200.735 135.461,202.735 134.5,204.5C 133.596,203.791 133.263,202.791 133.5,201.5C 133.5,200.5 133.5,199.5 133.5,198.5 Z"/></g>
<g><path style="opacity:1" fill="#d1f31a" d="M 149.5,198.5 C 150.436,199.974 151.77,200.974 153.5,201.5C 153.66,203.153 154.326,204.486 155.5,205.5C 156.475,207.795 157.808,209.795 159.5,211.5C 159.932,212.71 160.599,213.71 161.5,214.5C 162.669,217.511 164.336,220.178 166.5,222.5C 166.833,223.833 167.167,225.167 167.5,226.5C 165.97,225.789 164.637,224.789 163.5,223.5C 163.672,222.508 163.338,221.842 162.5,221.5C 162.068,220.29 161.401,219.29 160.5,218.5C 159.974,216.77 158.974,215.436 157.5,214.5C 157.34,212.847 156.674,211.514 155.5,210.5C 153.427,206.692 151.094,203.026 148.5,199.5C 148.624,198.893 148.957,198.56 149.5,198.5 Z"/></g>
<g><path style="opacity:1" fill="#192476" d="M 160.5,195.5 C 161.815,196.476 163.148,197.476 164.5,198.5C 165.213,196.565 166.213,196.232 167.5,197.5C 167.423,198.75 166.756,199.583 165.5,200C 166.211,201.255 167.044,202.421 168,203.5C 169.5,202 171,200.5 172.5,199C 171.944,198.617 171.611,198.117 171.5,197.5C 174.606,197.588 174.94,198.922 172.5,201.5C 170.413,202.585 169.08,204.251 168.5,206.5C 166.861,204.194 164.861,202.194 162.5,200.5C 162.229,198.57 161.229,197.236 159.5,196.5C 160.167,196.5 160.5,196.167 160.5,195.5 Z"/></g>
<g><path style="opacity:1" fill="#178e69" d="M 130.5,202.5 C 129.232,204.905 128.565,207.572 128.5,210.5C 126.952,210.179 126.285,209.179 126.5,207.5C 127.451,206.081 127.784,204.415 127.5,202.5C 128.158,201.602 128.824,200.602 129.5,199.5C 130.386,200.325 130.719,201.325 130.5,202.5 Z"/></g>
<g><path style="opacity:1" fill="#142a92" d="M 141.5,199.5 C 141.401,202.237 141.735,204.904 142.5,207.5C 141.883,207.611 141.383,207.944 141,208.5C 140.71,206.08 140.21,203.746 139.5,201.5C 140.167,200.833 140.833,200.167 141.5,199.5 Z"/></g>
<g><path style="opacity:1" fill="#7aa216" d="M 141.5,199.5 C 142.531,201.961 143.198,204.627 143.5,207.5C 143.167,207.5 142.833,207.5 142.5,207.5C 141.735,204.904 141.401,202.237 141.5,199.5 Z"/></g>
<g><path style="opacity:1" fill="#142a92" d="M 127.5,202.5 C 127.784,204.415 127.451,206.081 126.5,207.5C 126.149,205.131 125.982,202.797 126,200.5C 126.278,201.416 126.778,202.082 127.5,202.5 Z"/></g>
<g><path style="opacity:1" fill="#20322b" d="M 139.5,200.5 C 139.5,200.833 139.5,201.167 139.5,201.5C 140.21,203.746 140.71,206.08 141,208.5C 141.383,207.944 141.883,207.611 142.5,207.5C 142.833,207.5 143.167,207.5 143.5,207.5C 143.5,208.833 143.5,210.167 143.5,211.5C 143.41,214.152 144.076,216.485 145.5,218.5C 146.738,220.214 147.405,222.214 147.5,224.5C 147.67,225.822 147.337,226.989 146.5,228C 147.756,228.417 148.423,229.25 148.5,230.5C 148.5,231.167 148.167,231.5 147.5,231.5C 145.973,231.427 144.973,232.094 144.5,233.5C 142.216,234.029 140.216,235.029 138.5,236.5C 138.5,237.833 138.5,239.167 138.5,240.5C 139.833,240.5 141.167,240.5 142.5,240.5C 137.093,242.326 137.426,243.326 143.5,243.5C 142.048,244.302 140.382,244.802 138.5,245C 137.748,245.671 137.414,246.504 137.5,247.5C 138.833,248.167 140.167,248.833 141.5,249.5C 140.596,250.209 140.263,251.209 140.5,252.5C 135.167,252.833 135.167,253.167 140.5,253.5C 140.5,254.5 140.5,255.5 140.5,256.5C 136.5,256.833 136.5,257.167 140.5,257.5C 140.5,258.833 140.5,260.167 140.5,261.5C 139.609,260.89 138.609,260.557 137.5,260.5C 137.158,259.662 136.492,259.328 135.5,259.5C 135.5,255.833 135.5,252.167 135.5,248.5C 135.5,248.167 135.5,247.833 135.5,247.5C 136.244,243.881 136.577,240.215 136.5,236.5C 134.208,236.244 132.041,236.577 130,237.5C 129.502,240.482 129.335,243.482 129.5,246.5C 128.5,246.5 127.5,246.5 126.5,246.5C 126.5,246.167 126.5,245.833 126.5,245.5C 127.625,244.652 127.625,243.652 126.5,242.5C 127.625,241.652 127.625,240.652 126.5,239.5C 127.345,238.329 128.011,236.995 128.5,235.5C 128.938,235.565 129.272,235.399 129.5,235C 128.058,234.623 127.058,233.79 126.5,232.5C 127.552,232.649 128.552,232.483 129.5,232C 128.027,231.29 127.36,230.124 127.5,228.5C 128.239,228.631 128.906,228.464 129.5,228C 128.62,226.644 128.286,225.144 128.5,223.5C 130.745,222.708 131.078,221.375 129.5,219.5C 129.216,217.585 129.549,215.919 130.5,214.5C 131.434,213.432 131.768,212.099 131.5,210.5C 132.302,209.048 132.802,207.382 133,205.5C 133.159,208.999 133.325,212.333 133.5,215.5C 132.219,218.788 131.885,222.121 132.5,225.5C 131.732,227.715 131.065,230.048 130.5,232.5C 130.5,233.5 130.5,234.5 130.5,235.5C 133.082,235.975 135.082,235.308 136.5,233.5C 136.403,224.65 136.403,215.65 136.5,206.5C 136.94,204.156 137.94,202.156 139.5,200.5 Z"/></g>
<g><path style="opacity:1" fill="#142a92" d="M 133.5,201.5 C 133.263,202.791 133.596,203.791 134.5,204.5C 134.815,208.371 134.482,212.038 133.5,215.5C 133.325,212.333 133.159,208.999 133,205.5C 132.802,207.382 132.302,209.048 131.5,210.5C 131.215,207.171 131.882,204.171 133.5,201.5 Z"/></g>
<g><path style="opacity:1" fill="#d1f31a" d="M 172.5,201.5 C 172.371,203.216 172.038,204.883 171.5,206.5C 170.5,207.833 169.5,207.833 168.5,206.5C 169.08,204.251 170.413,202.585 172.5,201.5 Z"/></g>
<g><path style="opacity:1" fill="#178e69" d="M 120.5,202.5 C 121.239,202.369 121.906,202.536 122.5,203C 120.951,204.214 119.785,205.714 119,207.5C 118.387,205.505 118.887,203.838 120.5,202.5 Z"/></g>
<g><path style="opacity:1" fill="#2d4875" d="M 162.5,200.5 C 162.945,203.225 164.278,205.392 166.5,207C 166.108,208.011 165.441,208.511 164.5,208.5C 165.535,210.128 165.535,211.795 164.5,213.5C 163.833,212.833 163.167,212.167 162.5,211.5C 160.925,208.418 158.758,205.751 156,203.5C 155.536,204.094 155.369,204.761 155.5,205.5C 154.326,204.486 153.66,203.153 153.5,201.5C 153.974,200.27 155.308,199.27 157.5,198.5C 158.167,199.5 158.833,200.5 159.5,201.5C 160.213,199.565 161.213,199.232 162.5,200.5 Z"/></g>
<g><path style="opacity:1" fill="#657840" d="M 162.5,211.5 C 161.5,211.5 160.5,211.5 159.5,211.5C 157.808,209.795 156.475,207.795 155.5,205.5C 155.369,204.761 155.536,204.094 156,203.5C 158.758,205.751 160.925,208.418 162.5,211.5 Z"/></g>
<g><path style="opacity:1" fill="#142a92" d="M 136.5,206.5 C 136.403,215.65 136.403,224.65 136.5,233.5C 135.209,233.737 134.209,233.404 133.5,232.5C 134.812,223.865 135.812,215.198 136.5,206.5 Z"/></g>
<g><path style="opacity:1" fill="#4c4289" d="M 126.5,207.5 C 126.285,209.179 126.952,210.179 128.5,210.5C 129.348,211.625 130.348,211.625 131.5,210.5C 131.768,212.099 131.434,213.432 130.5,214.5C 130.631,213.624 130.298,212.957 129.5,212.5C 128.818,213.243 128.151,213.909 127.5,214.5C 127.649,213.448 127.483,212.448 127,211.5C 125.981,213.502 125.148,215.502 124.5,217.5C 124.66,215.801 124.494,214.134 124,212.5C 123.79,214.058 123.29,215.391 122.5,216.5C 121.566,215.432 121.232,214.099 121.5,212.5C 121.672,211.508 121.338,210.842 120.5,210.5C 121.159,207.592 121.993,207.258 123,209.5C 123.974,207.122 124.641,207.456 125,210.5C 125.232,209.263 125.732,208.263 126.5,207.5 Z"/></g>
<g><path style="opacity:1" fill="#142a92" d="M 152.5,211.5 C 151.126,211.208 149.793,210.875 148.5,210.5C 149.79,209.942 150.623,208.942 151,207.5C 151.791,208.745 152.291,210.078 152.5,211.5 Z"/></g>
<g><path style="opacity:1" fill="#2a6f6c" d="M 162.5,200.5 C 164.861,202.194 166.861,204.194 168.5,206.5C 168.645,209.689 168.645,212.855 168.5,216C 169.099,217.622 169.766,219.122 170.5,220.5C 170.672,221.492 170.338,222.158 169.5,222.5C 168.684,220.856 167.35,219.69 165.5,219C 166.332,217.091 165.999,215.258 164.5,213.5C 165.535,211.795 165.535,210.128 164.5,208.5C 165.441,208.511 166.108,208.011 166.5,207C 164.278,205.392 162.945,203.225 162.5,200.5 Z"/></g>
<g><path style="opacity:1" fill="#198362" d="M 120.5,210.5 C 121.338,210.842 121.672,211.508 121.5,212.5C 120.868,214.743 119.534,216.409 117.5,217.5C 118.264,214.982 119.264,212.649 120.5,210.5 Z"/></g>
<g><path style="opacity:1" fill="#b4d719" d="M 143.5,207.5 C 144.268,208.263 144.768,209.263 145,210.5C 145.654,209.304 146.154,209.304 146.5,210.5C 145.754,211.736 145.421,213.07 145.5,214.5C 144.833,213.5 144.167,212.5 143.5,211.5C 143.5,210.167 143.5,208.833 143.5,207.5 Z"/></g>
<g><path style="opacity:1" fill="#142a92" d="M 155.5,210.5 C 156.674,211.514 157.34,212.847 157.5,214.5C 156.609,213.89 155.609,213.557 154.5,213.5C 155.11,212.609 155.443,211.609 155.5,210.5 Z"/></g>
<g><path style="opacity:1" fill="#2c7774" d="M 127.5,214.5 C 127.784,216.415 127.451,218.081 126.5,219.5C 125.167,219.5 124.5,218.833 124.5,217.5C 125.148,215.502 125.981,213.502 127,211.5C 127.483,212.448 127.649,213.448 127.5,214.5 Z"/></g>
<g><path style="opacity:1" fill="#142a92" d="M 143.5,211.5 C 144.167,212.5 144.833,213.5 145.5,214.5C 145.5,215.833 145.5,217.167 145.5,218.5C 144.076,216.485 143.41,214.152 143.5,211.5 Z"/></g>
<g><path style="opacity:1" fill="#172885" d="M 152.5,211.5 C 153.167,212.167 153.833,212.833 154.5,213.5C 155.038,215.117 155.371,216.784 155.5,218.5C 154.609,217.739 153.942,216.739 153.5,215.5C 152.675,214.614 151.675,214.281 150.5,214.5C 150.062,214.565 149.728,214.399 149.5,214C 151.119,213.764 152.119,212.931 152.5,211.5 Z"/></g>
<g><path style="opacity:1" fill="#142a92" d="M 159.5,211.5 C 160.5,211.5 161.5,211.5 162.5,211.5C 161.89,212.391 161.557,213.391 161.5,214.5C 160.599,213.71 159.932,212.71 159.5,211.5 Z"/></g>
<g><path style="opacity:1" fill="#667840" d="M 162.5,211.5 C 163.167,212.167 163.833,212.833 164.5,213.5C 165.999,215.258 166.332,217.091 165.5,219C 167.35,219.69 168.684,220.856 169.5,222.5C 169.5,222.833 169.5,223.167 169.5,223.5C 168.391,223.443 167.391,223.11 166.5,222.5C 164.336,220.178 162.669,217.511 161.5,214.5C 161.557,213.391 161.89,212.391 162.5,211.5 Z"/></g>
<g><path style="opacity:1" fill="#30338f" d="M 121.5,212.5 C 121.232,214.099 121.566,215.432 122.5,216.5C 122.367,219.925 123.033,220.258 124.5,217.5C 124.5,218.833 125.167,219.5 126.5,219.5C 127.348,220.625 128.348,220.625 129.5,219.5C 131.078,221.375 130.745,222.708 128.5,223.5C 128.631,222.624 128.298,221.957 127.5,221.5C 126.818,222.243 126.151,222.909 125.5,223.5C 125.633,220.075 124.967,219.742 123.5,222.5C 123.591,220.302 122.925,219.969 121.5,221.5C 121.591,219.302 120.925,218.969 119.5,220.5C 118.833,219.5 118.167,218.5 117.5,217.5C 119.534,216.409 120.868,214.743 121.5,212.5 Z"/></g>
<g><path style="opacity:1" fill="#679114" d="M 124.5,217.5 C 123.033,220.258 122.367,219.925 122.5,216.5C 123.29,215.391 123.79,214.058 124,212.5C 124.494,214.134 124.66,215.801 124.5,217.5 Z"/></g>
<g><path style="opacity:1" fill="#178e69" d="M 130.5,214.5 C 129.549,215.919 129.216,217.585 129.5,219.5C 128.348,220.625 127.348,220.625 126.5,219.5C 127.451,218.081 127.784,216.415 127.5,214.5C 128.151,213.909 128.818,213.243 129.5,212.5C 130.298,212.957 130.631,213.624 130.5,214.5 Z"/></g>
<g><path style="opacity:1" fill="#678233" d="M 154.5,213.5 C 155.609,213.557 156.609,213.89 157.5,214.5C 158.974,215.436 159.974,216.77 160.5,218.5C 159.817,220.176 158.483,220.843 156.5,220.5C 156.672,219.508 156.338,218.842 155.5,218.5C 155.371,216.784 155.038,215.117 154.5,213.5 Z"/></g>
<g><path style="opacity:1" fill="#110d20" d="M 168.5,206.5 C 169.5,207.833 170.5,207.833 171.5,206.5C 170.617,211.103 170.283,215.77 170.5,220.5C 169.766,219.122 169.099,217.622 168.5,216C 168.645,212.855 168.645,209.689 168.5,206.5 Z"/></g>
<g><path style="opacity:1" fill="#142a92" d="M 141.5,231.5 C 141.611,230.883 141.944,230.383 142.5,230C 141.251,229.26 140.251,229.427 139.5,230.5C 138.957,230.44 138.624,230.107 138.5,229.5C 142.361,228.402 142.361,227.569 138.5,227C 142.5,226 142.5,225 138.5,224C 141.167,222.667 141.167,221.333 138.5,220C 141.167,219.333 141.167,218.667 138.5,218C 139.833,217 139.833,216 138.5,215C 140.896,214.134 141.563,214.634 140.5,216.5C 141.025,217.192 141.692,217.692 142.5,218C 141.535,221.217 141.535,224.55 142.5,228C 145.064,229.736 144.731,230.902 141.5,231.5 Z"/></g>
<g><path style="opacity:1" fill="#22866d" d="M 150.5,214.5 C 151.675,214.281 152.675,214.614 153.5,215.5C 153.942,216.739 154.609,217.739 155.5,218.5C 156.338,218.842 156.672,219.508 156.5,220.5C 155.833,221.167 155.167,221.833 154.5,222.5C 152.657,220.147 151.323,217.48 150.5,214.5 Z"/></g>
<g><path style="opacity:1" fill="#142a92" d="M 133.5,215.5 C 133.813,219.042 133.479,222.375 132.5,225.5C 131.885,222.121 132.219,218.788 133.5,215.5 Z"/></g>
<g><path style="opacity:1" fill="#677e38" d="M 148.5,220.5 C 147.596,219.791 147.263,218.791 147.5,217.5C 147.369,216.624 147.702,215.957 148.5,215.5C 149.277,217.781 150.277,219.948 151.5,222C 150.212,222.239 149.212,221.739 148.5,220.5 Z"/></g>
<g><path style="opacity:1" fill="#142a92" d="M 160.5,218.5 C 161.401,219.29 162.068,220.29 162.5,221.5C 160.585,221.216 158.919,221.549 157.5,222.5C 156.5,222.5 155.5,222.5 154.5,222.5C 155.167,221.833 155.833,221.167 156.5,220.5C 158.483,220.843 159.817,220.176 160.5,218.5 Z"/></g>
<g><path style="opacity:1" fill="#d1f31a" d="M 121.5,221.5 C 120.662,221.842 120.328,222.508 120.5,223.5C 119.596,222.791 119.263,221.791 119.5,220.5C 120.925,218.969 121.591,219.302 121.5,221.5 Z"/></g>
<g><path style="opacity:1" fill="#677f37" d="M 123.5,222.5 C 122.842,223.398 122.176,224.398 121.5,225.5C 120.702,225.043 120.369,224.376 120.5,223.5C 120.328,222.508 120.662,221.842 121.5,221.5C 122.925,219.969 123.591,220.302 123.5,222.5 Z"/></g>
<g><path style="opacity:1" fill="#c2e41a" d="M 145.5,214.5 C 146.167,215.5 146.833,216.5 147.5,217.5C 147.263,218.791 147.596,219.791 148.5,220.5C 148.5,221.833 148.5,223.167 148.5,224.5C 148.167,224.5 147.833,224.5 147.5,224.5C 147.405,222.214 146.738,220.214 145.5,218.5C 145.5,217.167 145.5,215.833 145.5,214.5 Z"/></g>
<g><path style="opacity:1" fill="#1a7b5c" d="M 125.5,223.5 C 124.732,224.263 124.232,225.263 124,226.5C 123.51,225.207 123.343,223.873 123.5,222.5C 124.967,219.742 125.633,220.075 125.5,223.5 Z"/></g>
<g><path style="opacity:1" fill="#198060" d="M 128.5,223.5 C 127.842,224.398 127.176,225.398 126.5,226.5C 125.614,225.675 125.281,224.675 125.5,223.5C 126.151,222.909 126.818,222.243 127.5,221.5C 128.298,221.957 128.631,222.624 128.5,223.5 Z"/></g>
<g><path style="opacity:1" fill="#67852d" d="M 157.5,222.5 C 158.919,221.549 160.585,221.216 162.5,221.5C 163.338,221.842 163.672,222.508 163.5,223.5C 162.833,224.167 162.167,224.833 161.5,225.5C 159.97,224.789 158.637,223.789 157.5,222.5 Z"/></g>
<g><path style="opacity:1" fill="#383785" d="M 166.5,222.5 C 167.391,223.11 168.391,223.443 169.5,223.5C 169.938,223.435 170.272,223.601 170.5,224C 169.833,224.333 169.167,224.667 168.5,225C 169.942,225.377 170.942,226.21 171.5,227.5C 170.833,227.5 170.167,227.5 169.5,227.5C 168.508,227.672 167.842,227.338 167.5,226.5C 167.167,225.167 166.833,223.833 166.5,222.5 Z"/></g>
<g><path style="opacity:1" fill="#679114" d="M 151.5,227.5 C 151.167,227.5 150.833,227.5 150.5,227.5C 150.67,226.178 150.337,225.011 149.5,224C 150.448,223.517 151.448,223.351 152.5,223.5C 152.567,224.959 152.234,226.292 151.5,227.5 Z"/></g>
<g><path style="opacity:1" fill="#142a92" d="M 163.5,223.5 C 164.637,224.789 165.97,225.789 167.5,226.5C 167.842,227.338 168.508,227.672 169.5,227.5C 168.791,228.404 167.791,228.737 166.5,228.5C 165.791,227.596 164.791,227.263 163.5,227.5C 164.66,225.797 163.993,225.131 161.5,225.5C 162.167,224.833 162.833,224.167 163.5,223.5 Z"/></g>
<g><path style="opacity:1" fill="#142a92" d="M 147.5,224.5 C 147.833,224.5 148.167,224.5 148.5,224.5C 148.491,226.308 148.991,227.975 150,229.5C 150.464,228.906 150.631,228.239 150.5,227.5C 150.833,227.5 151.167,227.5 151.5,227.5C 152.167,228.167 152.833,228.833 153.5,229.5C 151.883,230.038 150.216,230.371 148.5,230.5C 148.423,229.25 147.756,228.417 146.5,228C 147.337,226.989 147.67,225.822 147.5,224.5 Z"/></g>
<g><path style="opacity:1" fill="#162888" d="M 157.5,222.5 C 158.637,223.789 159.97,224.789 161.5,225.5C 160.432,226.434 159.099,226.768 157.5,226.5C 157.5,225.167 157.5,223.833 157.5,222.5 Z"/></g>
<g><path style="opacity:1" fill="#142a92" d="M 132.5,225.5 C 132.298,227.95 132.631,230.283 133.5,232.5C 132.5,232.5 131.5,232.5 130.5,232.5C 131.065,230.048 131.732,227.715 132.5,225.5 Z"/></g>
<g><path style="opacity:1" fill="#679114" d="M 161.5,225.5 C 163.993,225.131 164.66,225.797 163.5,227.5C 161.585,227.216 159.919,227.549 158.5,228.5C 155.075,228.633 154.742,227.967 157.5,226.5C 159.099,226.768 160.432,226.434 161.5,225.5 Z"/></g>
<g><path style="opacity:1" fill="#d1f31a" d="M 169.5,227.5 C 170.167,227.5 170.833,227.5 171.5,227.5C 172.553,230.607 173.886,233.607 175.5,236.5C 174.508,236.328 173.842,236.662 173.5,237.5C 172.5,237.833 171.833,238.5 171.5,239.5C 170.041,239.567 168.708,239.234 167.5,238.5C 166.174,234.843 164.174,234.51 161.5,237.5C 159.302,237.591 158.969,236.925 160.5,235.5C 162.196,235.315 163.529,234.481 164.5,233C 164.272,232.601 163.938,232.435 163.5,232.5C 163.557,231.391 163.89,230.391 164.5,229.5C 165.492,229.672 166.158,229.338 166.5,228.5C 167.791,228.737 168.791,228.404 169.5,227.5 Z"/></g>
<g><path style="opacity:1" fill="#d1f31a" d="M 107.5,228.5 C 108.376,228.369 109.043,228.702 109.5,229.5C 108.236,232.125 107.069,234.792 106,237.5C 105.308,236.975 104.808,236.308 104.5,235.5C 105.788,233.261 106.788,230.928 107.5,228.5 Z"/></g>
<g><path style="opacity:1" fill="#178e69" d="M 139.5,230.5 C 140.251,229.427 141.251,229.26 142.5,230C 141.944,230.383 141.611,230.883 141.5,231.5C 140.833,231.167 140.167,230.833 139.5,230.5 Z"/></g>
<g><path style="opacity:1" fill="#67862c" d="M 153.5,229.5 C 154.401,230.29 155.068,231.29 155.5,232.5C 154.209,232.263 153.209,232.596 152.5,233.5C 151.791,234.404 150.791,234.737 149.5,234.5C 147.952,234.179 147.285,233.179 147.5,231.5C 148.167,231.5 148.5,231.167 148.5,230.5C 150.216,230.371 151.883,230.038 153.5,229.5 Z"/></g>
<g><path style="opacity:1" fill="#142a92" d="M 164.5,229.5 C 163.89,230.391 163.557,231.391 163.5,232.5C 160.666,230.351 160.999,229.351 164.5,229.5 Z"/></g>
<g><path style="opacity:1" fill="#679114" d="M 111.5,230.5 C 113.312,230.771 114.978,231.438 116.5,232.5C 115.652,234.409 115.318,236.409 115.5,238.5C 113.471,240.458 111.137,240.458 108.5,238.5C 109.108,235.673 110.108,233.007 111.5,230.5 Z"/></g>
<g><path style="opacity:1" fill="#636f4b" d="M 163.5,227.5 C 164.791,227.263 165.791,227.596 166.5,228.5C 166.158,229.338 165.492,229.672 164.5,229.5C 160.999,229.351 160.666,230.351 163.5,232.5C 163.938,232.435 164.272,232.601 164.5,233C 163.529,234.481 162.196,235.315 160.5,235.5C 158.948,233.965 157.615,232.131 156.5,230C 157.416,229.722 158.082,229.222 158.5,228.5C 159.919,227.549 161.585,227.216 163.5,227.5 Z"/></g>
<g><path style="opacity:1" fill="#679114" d="M 130.5,232.5 C 131.5,232.5 132.5,232.5 133.5,232.5C 134.209,233.404 135.209,233.737 136.5,233.5C 135.082,235.308 133.082,235.975 130.5,235.5C 130.5,234.5 130.5,233.5 130.5,232.5 Z"/></g>
<g><path style="opacity:1" fill="#142a92" d="M 152.5,233.5 C 153.209,232.596 154.209,232.263 155.5,232.5C 154.699,234.042 154.366,235.708 154.5,237.5C 153.833,236.167 153.167,234.833 152.5,233.5 Z"/></g>
<g><path style="opacity:1" fill="#679114" d="M 155.5,232.5 C 156.234,233.878 156.901,235.378 157.5,237C 156.648,238.728 155.648,238.895 154.5,237.5C 154.366,235.708 154.699,234.042 155.5,232.5 Z"/></g>
<g><path style="opacity:1" fill="#678134" d="M 128.5,235.5 C 128.011,236.995 127.345,238.329 126.5,239.5C 124.847,239.34 123.514,238.674 122.5,237.5C 121.588,236.262 121.421,234.928 122,233.5C 124.007,234.669 126.173,235.335 128.5,235.5 Z"/></g>
<g><path style="opacity:1" fill="#142a92" d="M 144.5,233.5 C 144.082,234.222 143.416,234.722 142.5,235C 143.737,235.232 144.737,235.732 145.5,236.5C 143.167,236.5 140.833,236.5 138.5,236.5C 140.216,235.029 142.216,234.029 144.5,233.5 Z"/></g>
<g><path style="opacity:1" fill="#d1f31a" d="M 152.5,233.5 C 153.167,234.833 153.833,236.167 154.5,237.5C 154.427,239.027 155.094,240.027 156.5,240.5C 156.5,241.833 156.5,243.167 156.5,244.5C 155.167,245.5 155.167,246.5 156.5,247.5C 156.565,250.428 157.232,253.095 158.5,255.5C 158.631,256.376 158.298,257.043 157.5,257.5C 156.818,256.757 156.151,256.091 155.5,255.5C 155.795,253.265 155.461,251.265 154.5,249.5C 154.923,247.219 154.256,245.552 152.5,244.5C 151.652,242.907 150.319,241.74 148.5,241C 150.684,239.102 151.017,236.936 149.5,234.5C 150.791,234.737 151.791,234.404 152.5,233.5 Z"/></g>
<g><path style="opacity:1" fill="#d1f31a" d="M 135.5,247.5 C 134.5,247.5 133.5,247.5 132.5,247.5C 131.791,246.596 130.791,246.263 129.5,246.5C 129.335,243.482 129.502,240.482 130,237.5C 132.041,236.577 134.208,236.244 136.5,236.5C 136.577,240.215 136.244,243.881 135.5,247.5 Z"/></g>
<g><path style="opacity:1" fill="#679114" d="M 138.5,236.5 C 140.833,236.5 143.167,236.5 145.5,236.5C 145.804,237.15 146.137,237.817 146.5,238.5C 145.051,239.172 143.718,239.839 142.5,240.5C 141.167,240.5 139.833,240.5 138.5,240.5C 138.5,239.167 138.5,237.833 138.5,236.5 Z"/></g>
<g><path style="opacity:1" fill="#667a3d" d="M 167.5,238.5 C 167.5,239.167 167.5,239.833 167.5,240.5C 165.901,240.232 164.568,240.566 163.5,241.5C 160.664,241.163 159.998,239.829 161.5,237.5C 164.174,234.51 166.174,234.843 167.5,238.5 Z"/></g>
<g><path style="opacity:1" fill="#688d1f" d="M 175.5,236.5 C 178.906,240.3 181.573,244.633 183.5,249.5C 183.043,250.298 182.376,250.631 181.5,250.5C 181.5,249.833 181.167,249.5 180.5,249.5C 180.573,247.973 179.906,246.973 178.5,246.5C 176.823,244.46 175.156,242.46 173.5,240.5C 173.5,239.5 173.5,238.5 173.5,237.5C 173.842,236.662 174.508,236.328 175.5,236.5 Z"/></g>
<g><path style="opacity:1" fill="#d1f31a" d="M 122.5,237.5 C 123.514,238.674 124.847,239.34 126.5,239.5C 127.625,240.652 127.625,241.652 126.5,242.5C 125.486,241.326 124.153,240.66 122.5,240.5C 121.909,239.849 121.243,239.182 120.5,238.5C 120.957,237.702 121.624,237.369 122.5,237.5 Z"/></g>
<g><path style="opacity:1" fill="#142a92" d="M 173.5,237.5 C 173.5,238.5 173.5,239.5 173.5,240.5C 172.833,240.167 172.167,239.833 171.5,239.5C 171.833,238.5 172.5,237.833 173.5,237.5 Z"/></g>
<g><path style="opacity:1" fill="#293287" d="M 119.5,220.5 C 119.263,221.791 119.596,222.791 120.5,223.5C 120.369,224.376 120.702,225.043 121.5,225.5C 122.176,224.398 122.842,223.398 123.5,222.5C 123.343,223.873 123.51,225.207 124,226.5C 124.232,225.263 124.732,224.263 125.5,223.5C 125.281,224.675 125.614,225.675 126.5,226.5C 127.176,225.398 127.842,224.398 128.5,223.5C 128.286,225.144 128.62,226.644 129.5,228C 128.906,228.464 128.239,228.631 127.5,228.5C 127.36,230.124 128.027,231.29 129.5,232C 128.552,232.483 127.552,232.649 126.5,232.5C 127.058,233.79 128.058,234.623 129.5,235C 129.272,235.399 128.938,235.565 128.5,235.5C 126.173,235.335 124.007,234.669 122,233.5C 121.421,234.928 121.588,236.262 122.5,237.5C 121.624,237.369 120.957,237.702 120.5,238.5C 121.243,239.182 121.909,239.849 122.5,240.5C 120.535,240.948 120.202,241.948 121.5,243.5C 123.195,244.174 124.862,244.841 126.5,245.5C 126.5,245.833 126.5,246.167 126.5,246.5C 125.209,247.542 125.209,248.708 126.5,250C 124.342,251.312 124.009,252.978 125.5,255C 124.333,255.5 123.5,256.333 123,257.5C 122.59,256.099 122.09,254.766 121.5,253.5C 120.033,256.258 119.367,255.925 119.5,252.5C 118.25,252.577 117.417,253.244 117,254.5C 116.283,253.956 115.783,253.289 115.5,252.5C 116.005,249.159 116.172,245.826 116,242.5C 114.85,245.418 114.017,248.418 113.5,251.5C 112.558,251.004 111.891,249.67 111.5,247.5C 108.161,246.89 107.828,245.723 110.5,244C 109.99,242.174 109.156,242.007 108,243.5C 107.626,242.584 107.126,241.75 106.5,241C 108.178,240.516 108.844,239.683 108.5,238.5C 111.137,240.458 113.471,240.458 115.5,238.5C 115.318,236.409 115.652,234.409 116.5,232.5C 114.978,231.438 113.312,230.771 111.5,230.5C 113.001,228.261 114.334,228.261 115.5,230.5C 118.416,227.863 118.083,225.697 114.5,224C 115.676,222.086 116.676,222.252 117.5,224.5C 118.172,223.051 118.839,221.718 119.5,220.5 Z"/></g>
<g><path style="opacity:1" fill="#d1f31a" d="M 115.5,238.5 C 116.306,237.003 116.972,235.336 117.5,233.5C 119.107,232.3 120.107,232.8 120.5,235C 119.873,237.135 119.373,239.302 119,241.5C 116.679,242.361 115.513,241.361 115.5,238.5 Z"/></g>
<g><path style="opacity:1" fill="#178e69" d="M 126.5,232.5 C 125.425,233.562 124.425,233.562 123.5,232.5C 124.614,231.224 125.614,231.224 126.5,232.5 Z"/></g>
<g><path style="opacity:1" fill="#679114" d="M 120.5,229.5 C 120.611,230.117 120.944,230.617 121.5,231C 120.056,231.781 118.723,231.614 117.5,230.5C 118.325,229.614 119.325,229.281 120.5,229.5 Z"/></g>
<g><path style="opacity:1" fill="#1a7b5c" d="M 127.5,228.5 C 125.694,231.338 124.694,231.005 124.5,227.5C 125.791,227.263 126.791,227.596 127.5,228.5 Z"/></g>
<g><path style="opacity:1" fill="#679114" d="M 120.5,229.5 C 120.272,227.645 120.939,226.812 122.5,227C 121.934,227.995 121.267,228.828 120.5,229.5 Z"/></g>
<g><path style="opacity:1" fill="#142a92" d="M 167.5,238.5 C 168.708,239.234 170.041,239.567 171.5,239.5C 170.766,240.708 170.433,242.041 170.5,243.5C 169.9,242.1 168.9,241.1 167.5,240.5C 167.5,239.833 167.5,239.167 167.5,238.5 Z"/></g>
<g><path style="opacity:1" fill="#678036" d="M 122.5,240.5 C 124.153,240.66 125.486,241.326 126.5,242.5C 127.625,243.652 127.625,244.652 126.5,245.5C 124.862,244.841 123.195,244.174 121.5,243.5C 120.202,241.948 120.535,240.948 122.5,240.5 Z"/></g>
<g><path style="opacity:1" fill="#d1f31a" d="M 142.5,240.5 C 147.275,240.67 147.608,241.67 143.5,243.5C 137.426,243.326 137.093,242.326 142.5,240.5 Z"/></g>
<g><path style="opacity:1" fill="#142a92" d="M 163.5,241.5 C 164.568,240.566 165.901,240.232 167.5,240.5C 166.449,241.222 165.782,242.222 165.5,243.5C 164.833,242.833 164.167,242.167 163.5,241.5 Z"/></g>
<g><path style="opacity:1" fill="#178e69" d="M 167.5,240.5 C 168.9,241.1 169.9,242.1 170.5,243.5C 169.5,244.167 168.5,244.833 167.5,245.5C 166.833,244.833 166.167,244.167 165.5,243.5C 165.782,242.222 166.449,241.222 167.5,240.5 Z"/></g>
<g><path style="opacity:1" fill="#d1f31a" d="M 115.5,252.5 C 114.833,252.167 114.167,251.833 113.5,251.5C 114.017,248.418 114.85,245.418 116,242.5C 116.172,245.826 116.005,249.159 115.5,252.5 Z"/></g>
<g><path style="opacity:1" fill="#198160" d="M 163.5,241.5 C 164.167,242.167 164.833,242.833 165.5,243.5C 165.5,244.5 165.5,245.5 165.5,246.5C 162.497,245.83 161.83,244.163 163.5,241.5 Z"/></g>
<g><path style="opacity:1" fill="#178e69" d="M 111.5,247.5 C 111.343,246.127 111.51,244.793 112,243.5C 114.019,245.124 113.852,246.457 111.5,247.5 Z"/></g>
<g><path style="opacity:1" fill="#679114" d="M 143.5,243.5 C 144.833,243.5 146.167,243.5 147.5,243.5C 147.5,244.833 147.5,246.167 147.5,247.5C 144.167,247.5 140.833,247.5 137.5,247.5C 137.414,246.504 137.748,245.671 138.5,245C 140.382,244.802 142.048,244.302 143.5,243.5 Z"/></g>
<g><path style="opacity:1" fill="#679114" d="M 152.5,244.5 C 153.66,246.203 152.993,246.869 150.5,246.5C 149.224,245.614 149.224,244.614 150.5,243.5C 151.183,243.863 151.85,244.196 152.5,244.5 Z"/></g>
<g><path style="opacity:1" fill="#142a92" d="M 165.5,243.5 C 166.167,244.167 166.833,244.833 167.5,245.5C 167.591,247.698 166.925,248.031 165.5,246.5C 165.5,245.5 165.5,244.5 165.5,243.5 Z"/></g>
<g><path style="opacity:1" fill="#306b79" d="M 171.5,239.5 C 172.167,239.833 172.833,240.167 173.5,240.5C 175.156,242.46 176.823,244.46 178.5,246.5C 176.287,247.773 173.954,248.773 171.5,249.5C 169.62,249.229 168.287,249.896 167.5,251.5C 164.869,250.575 164.202,248.909 165.5,246.5C 166.925,248.031 167.591,247.698 167.5,245.5C 168.5,244.833 169.5,244.167 170.5,243.5C 170.433,242.041 170.766,240.708 171.5,239.5 Z"/></g>
<g><path style="opacity:1" fill="#178e69" d="M 120.5,247.5 C 119.438,246.425 119.438,245.425 120.5,244.5C 121.776,245.614 121.776,246.614 120.5,247.5 Z"/></g>
<g><path style="opacity:1" fill="#142a92" d="M 152.5,244.5 C 154.256,245.552 154.923,247.219 154.5,249.5C 153.533,248.194 152.199,247.527 150.5,247.5C 150.5,247.167 150.5,246.833 150.5,246.5C 152.993,246.869 153.66,246.203 152.5,244.5 Z"/></g>
<g><path style="opacity:1" fill="#142a92" d="M 156.5,244.5 C 156.918,245.222 157.584,245.722 158.5,246C 157.584,246.278 156.918,246.778 156.5,247.5C 155.167,246.5 155.167,245.5 156.5,244.5 Z"/></g>
<g><path style="opacity:1" fill="#678035" d="M 158.5,255.5 C 157.232,253.095 156.565,250.428 156.5,247.5C 156.918,246.778 157.584,246.278 158.5,246C 157.584,245.722 156.918,245.222 156.5,244.5C 156.5,243.167 156.5,241.833 156.5,240.5C 156.783,239.711 157.283,239.044 158,238.5C 160.466,244.424 162.632,250.424 164.5,256.5C 162.379,256.675 160.379,256.341 158.5,255.5 Z"/></g>
<g><path style="opacity:1" fill="#178e69" d="M 122.5,248.5 C 122.281,247.325 122.614,246.325 123.5,245.5C 124.798,247.052 124.465,248.052 122.5,248.5 Z"/></g>
<g><path style="opacity:1" fill="#142a92" d="M 126.5,246.5 C 127.5,246.5 128.5,246.5 129.5,246.5C 130.791,246.263 131.791,246.596 132.5,247.5C 131.833,249.5 131.167,251.5 130.5,253.5C 130.975,250.918 130.308,248.918 128.5,247.5C 127.508,247.672 126.842,247.338 126.5,246.5 Z"/></g>
<g><path style="opacity:1" fill="#142a92" d="M 178.5,246.5 C 179.906,246.973 180.573,247.973 180.5,249.5C 179.094,249.027 178.427,248.027 178.5,246.5 Z"/></g>
<g><path style="opacity:1" fill="#178e69" d="M 120.5,247.5 C 120.784,249.415 120.451,251.081 119.5,252.5C 117.82,250.274 118.153,248.607 120.5,247.5 Z"/></g>
<g><path style="opacity:1" fill="#679114" d="M 128.5,247.5 C 130.308,248.918 130.975,250.918 130.5,253.5C 129.698,254.952 129.198,256.618 129,258.5C 128.667,258.167 128.333,257.833 128,257.5C 128.201,254.223 128.368,250.889 128.5,247.5 Z"/></g>
<g><path style="opacity:1" fill="#d1f31a" d="M 132.5,247.5 C 133.369,249.717 133.702,252.05 133.5,254.5C 132.539,256.265 132.205,258.265 132.5,260.5C 130.656,258.721 129.99,256.388 130.5,253.5C 131.167,251.5 131.833,249.5 132.5,247.5 Z"/></g>
<g><path style="opacity:1" fill="#142a92" d="M 132.5,247.5 C 133.5,247.5 134.5,247.5 135.5,247.5C 135.5,247.833 135.5,248.167 135.5,248.5C 134.833,250.5 134.167,252.5 133.5,254.5C 133.702,252.05 133.369,249.717 132.5,247.5 Z"/></g>
<g><path style="opacity:1" fill="#142a92" d="M 137.5,247.5 C 140.833,247.5 144.167,247.5 147.5,247.5C 147.5,247.833 147.5,248.167 147.5,248.5C 146.876,248.917 146.543,249.584 146.5,250.5C 146.747,251.713 147.414,252.38 148.5,252.5C 149.167,252.5 149.5,252.833 149.5,253.5C 148.5,253.5 147.5,253.5 146.5,253.5C 146.5,254.833 146.5,256.167 146.5,257.5C 147.5,257.5 148.5,257.5 149.5,257.5C 150.167,257.5 150.5,257.833 150.5,258.5C 149.167,258.5 147.833,258.5 146.5,258.5C 146.5,259.5 146.5,260.5 146.5,261.5C 146.167,262.833 145.833,262.833 145.5,261.5C 145.567,260.041 145.234,258.708 144.5,257.5C 143.5,257.5 142.5,257.5 141.5,257.5C 141.5,259.167 141.5,260.833 141.5,262.5C 140.833,262.5 140.5,262.167 140.5,261.5C 140.5,260.167 140.5,258.833 140.5,257.5C 136.5,257.167 136.5,256.833 140.5,256.5C 140.5,255.5 140.5,254.5 140.5,253.5C 135.167,253.167 135.167,252.833 140.5,252.5C 140.263,251.209 140.596,250.209 141.5,249.5C 140.167,248.833 138.833,248.167 137.5,247.5 Z"/></g>
<g><path style="opacity:1" fill="#67842f" d="M 150.5,247.5 C 152.199,247.527 153.533,248.194 154.5,249.5C 155.461,251.265 155.795,253.265 155.5,255.5C 155.735,258.812 154.735,259.645 152.5,258C 151.274,254.598 150.607,251.098 150.5,247.5 Z"/></g>
<g><path style="opacity:1" fill="#178e69" d="M 122.5,248.5 C 124.18,250.726 123.847,252.393 121.5,253.5C 121.216,251.585 121.549,249.919 122.5,248.5 Z"/></g>
<g><path style="opacity:1" fill="#679114" d="M 135.5,248.5 C 135.5,252.167 135.5,255.833 135.5,259.5C 133.744,258.448 133.077,256.781 133.5,254.5C 134.167,252.5 134.833,250.5 135.5,248.5 Z"/></g>
<g><path style="opacity:1" fill="#178e69" d="M 141.5,249.5 C 142.708,248.766 144.041,248.433 145.5,248.5C 145.5,249.833 145.5,251.167 145.5,252.5C 144.167,252.5 142.833,252.5 141.5,252.5C 141.5,251.5 141.5,250.5 141.5,249.5 Z"/></g>
<g><path style="opacity:1" fill="#178e69" d="M 147.5,248.5 C 148.434,249.568 148.768,250.901 148.5,252.5C 147.414,252.38 146.747,251.713 146.5,250.5C 146.543,249.584 146.876,248.917 147.5,248.5 Z"/></g>
<g><path style="opacity:1" fill="#142a92" d="M 171.5,249.5 C 170.486,250.674 169.153,251.34 167.5,251.5C 168.287,249.896 169.62,249.229 171.5,249.5 Z"/></g>
<g><path style="opacity:1" fill="#25826f" d="M 178.5,246.5 C 178.427,248.027 179.094,249.027 180.5,249.5C 181.167,249.5 181.5,249.833 181.5,250.5C 180.003,251.306 178.336,251.972 176.5,252.5C 175.914,252.291 175.414,251.957 175,251.5C 172.85,256.92 170.016,257.587 166.5,253.5C 166.863,252.817 167.196,252.15 167.5,251.5C 169.153,251.34 170.486,250.674 171.5,249.5C 173.954,248.773 176.287,247.773 178.5,246.5 Z"/></g>
<g><path style="opacity:1" fill="#178e69" d="M 144.5,257.5 C 143.791,256.596 142.791,256.263 141.5,256.5C 141.5,255.5 141.5,254.5 141.5,253.5C 142.833,253.5 144.167,253.5 145.5,253.5C 145.768,255.099 145.434,256.432 144.5,257.5 Z"/></g>
<g><path style="opacity:1" fill="#178e69" d="M 149.5,253.5 C 149.5,254.833 149.5,256.167 149.5,257.5C 148.5,257.5 147.5,257.5 146.5,257.5C 146.5,256.167 146.5,254.833 146.5,253.5C 147.5,253.5 148.5,253.5 149.5,253.5 Z"/></g>
<g><path style="opacity:1" fill="#e8d6b0" d="M 172.5,282.5 C 170.435,282.483 168.435,282.15 166.5,281.5C 163.016,281.323 160.016,280.323 157.5,278.5C 158.239,278.631 158.906,278.464 159.5,278C 158.643,277.311 157.977,276.478 157.5,275.5C 159.971,271.925 161.971,268.092 163.5,264C 163.05,262.715 162.383,261.548 161.5,260.5C 165.459,259.673 169.459,259.173 173.5,259C 176.875,255.64 180.875,253.974 185.5,254C 187.124,255.117 188.124,256.617 188.5,258.5C 184.838,264.347 181.338,270.347 178,276.5C 177.505,278.473 177.338,280.473 177.5,282.5C 175.833,282.5 174.167,282.5 172.5,282.5 Z"/></g>
<g><path style="opacity:1" fill="#142a92" d="M 133.5,254.5 C 133.077,256.781 133.744,258.448 135.5,259.5C 136.492,259.328 137.158,259.662 137.5,260.5C 135.833,260.5 134.167,260.5 132.5,260.5C 132.205,258.265 132.539,256.265 133.5,254.5 Z"/></g>
<g><path style="opacity:1" fill="#178e69" d="M 144.5,257.5 C 145.234,258.708 145.567,260.041 145.5,261.5C 144.167,261.833 142.833,262.167 141.5,262.5C 141.5,260.833 141.5,259.167 141.5,257.5C 142.5,257.5 143.5,257.5 144.5,257.5 Z"/></g>
<g><path style="opacity:1" fill="#178e69" d="M 150.5,258.5 C 150.5,259.5 150.5,260.5 150.5,261.5C 149.167,261.5 147.833,261.5 146.5,261.5C 146.5,260.5 146.5,259.5 146.5,258.5C 147.833,258.5 149.167,258.5 150.5,258.5 Z"/></g>
<g><path style="opacity:1" fill="#e6d1a4" d="M 142.5,288.5 C 141.167,288.5 139.833,288.5 138.5,288.5C 137.694,287.272 136.694,286.272 135.5,285.5C 135.027,284.094 134.027,283.427 132.5,283.5C 131.095,281.621 129.428,281.288 127.5,282.5C 126.614,281.675 126.281,280.675 126.5,279.5C 129.439,274.036 133.439,269.202 138.5,265C 145.193,265.247 151.526,264.08 157.5,261.5C 158.652,264.106 158.818,266.773 158,269.5C 153.51,274.814 150.343,280.814 148.5,287.5C 146.604,288.466 144.604,288.799 142.5,288.5 Z"/></g>
<g><path style="opacity:1" fill="#fefffe" d="M 166.5,281.5 C 168.435,282.15 170.435,282.483 172.5,282.5C 173.568,283.434 174.901,283.768 176.5,283.5C 172.926,284.774 169.259,284.607 165.5,283C 166.056,282.617 166.389,282.117 166.5,281.5 Z"/></g>
<g><path style="opacity:1" fill="#000000" d="M 132.5,284.5 C 132.5,284.167 132.5,283.833 132.5,283.5C 134.027,283.427 135.027,284.094 135.5,285.5C 134.833,285.5 134.167,285.5 133.5,285.5C 133.5,284.833 133.167,284.5 132.5,284.5 Z"/></g>
<g><path style="opacity:1" fill="#fefffe" d="M 132.5,284.5 C 133.167,284.5 133.5,284.833 133.5,285.5C 133.631,286.376 133.298,287.043 132.5,287.5C 131.224,286.386 131.224,285.386 132.5,284.5 Z"/></g>
<g><path style="opacity:1" fill="#fefffe" d="M 121.5,286.5 C 121.953,287.458 122.619,288.292 123.5,289C 122.473,289.513 121.473,290.013 120.5,290.5C 120.232,288.901 120.566,287.568 121.5,286.5 Z"/></g>
<g><path style="opacity:1" fill="#fefffe" d="M 152.5,286.5 C 154.55,287.322 154.217,288.322 151.5,289.5C 151.557,288.391 151.89,287.391 152.5,286.5 Z"/></g>
<g><path style="opacity:1" fill="#e21922" d="M 157.5,278.5 C 160.016,280.323 163.016,281.323 166.5,281.5C 166.389,282.117 166.056,282.617 165.5,283C 169.259,284.607 172.926,284.774 176.5,283.5C 177.097,283.735 177.43,284.235 177.5,285C 174.414,289.118 172.414,293.618 171.5,298.5C 169.833,299.5 168.5,300.833 167.5,302.5C 163.342,302.668 159.342,302.002 155.5,300.5C 154.378,299.053 152.878,298.053 151,297.5C 150.398,294.779 150.565,292.113 151.5,289.5C 154.217,288.322 154.55,287.322 152.5,286.5C 153.06,284.199 153.56,281.866 154,279.5C 155.041,277.689 156.207,277.355 157.5,278.5 Z"/></g>
<g><path style="opacity:1" fill="#fefffe" d="M 138.5,288.5 C 139.833,288.5 141.167,288.5 142.5,288.5C 143.263,289.268 144.263,289.768 145.5,290C 144.944,290.383 144.611,290.883 144.5,291.5C 141.607,291.969 139.607,290.969 138.5,288.5 Z"/></g>
<g><path style="opacity:1" fill="#fefffe" d="M 161.5,288.5 C 170.549,291.563 170.715,294.896 162,298.5C 159.328,297.882 157.494,296.216 156.5,293.5C 158.006,291.599 159.673,289.932 161.5,288.5 Z"/></g>
<g><path style="opacity:1" fill="#e21822" d="M 126.5,279.5 C 126.281,280.675 126.614,281.675 127.5,282.5C 129.428,281.288 131.095,281.621 132.5,283.5C 132.5,283.833 132.5,284.167 132.5,284.5C 131.224,285.386 131.224,286.386 132.5,287.5C 133.298,287.043 133.631,286.376 133.5,285.5C 134.167,285.5 134.833,285.5 135.5,285.5C 136.694,286.272 137.694,287.272 138.5,288.5C 139.607,290.969 141.607,291.969 144.5,291.5C 143.89,292.391 143.557,293.391 143.5,294.5C 141.833,294.5 140.167,294.5 138.5,294.5C 138.232,296.099 138.566,297.432 139.5,298.5C 139.34,300.153 138.674,301.486 137.5,302.5C 137.539,301.244 137.039,300.244 136,299.5C 134.293,301.037 132.793,302.704 131.5,304.5C 129.167,304.5 126.833,304.5 124.5,304.5C 124.5,304.167 124.5,303.833 124.5,303.5C 124.663,301.143 124.497,298.81 124,296.5C 122.629,298.041 121.129,299.375 119.5,300.5C 119.062,300.565 118.728,300.399 118.5,300C 119.432,296.915 120.099,293.748 120.5,290.5C 121.473,290.013 122.473,289.513 123.5,289C 122.619,288.292 121.953,287.458 121.5,286.5C 122.533,283.562 124.033,280.895 126,278.5C 126.399,278.728 126.565,279.062 126.5,279.5 Z"/></g>
<g><path style="opacity:1" fill="#fefffe" d="M 128.5,292.5 C 130.199,292.34 131.866,292.506 133.5,293C 134.022,293.561 134.355,294.228 134.5,295C 132.869,296.926 131.035,298.76 129,300.5C 128.503,297.854 128.336,295.187 128.5,292.5 Z"/></g>
<g><path style="opacity:1" fill="#fefffe" d="M 143.5,294.5 C 142.5,296.167 141.167,297.5 139.5,298.5C 138.566,297.432 138.232,296.099 138.5,294.5C 140.167,294.5 141.833,294.5 143.5,294.5 Z"/></g>
<g><path style="opacity:1" fill="#fefffe" d="M 124.5,303.5 C 122.833,302.833 121.167,302.167 119.5,301.5C 119.5,301.167 119.5,300.833 119.5,300.5C 121.129,299.375 122.629,298.041 124,296.5C 124.497,298.81 124.663,301.143 124.5,303.5 Z"/></g>
<g><path style="opacity:1" fill="#fefffe" d="M 171.5,298.5 C 171.473,300.199 170.806,301.533 169.5,302.5C 168.833,302.5 168.167,302.5 167.5,302.5C 168.5,300.833 169.833,299.5 171.5,298.5 Z"/></g>
<g><path style="opacity:1" fill="#fefffe" d="M 137.5,302.5 C 136.082,304.308 134.082,304.975 131.5,304.5C 132.793,302.704 134.293,301.037 136,299.5C 137.039,300.244 137.539,301.244 137.5,302.5 Z"/></g>
<g><path style="opacity:1" fill="#fefffe" d="M 145.5,301.5 C 147.6,309.34 147.767,317.34 146,325.5C 145.692,326.308 145.192,326.975 144.5,327.5C 141.793,325.157 139.126,322.823 136.5,320.5C 139.705,314.193 142.705,307.86 145.5,301.5 Z M 143.5,310.5 C 142.866,313.937 141.533,317.104 139.5,320C 141.09,321.046 142.59,322.213 144,323.5C 144.814,318.98 144.647,314.646 143.5,310.5 Z"/></g>
<g><path style="opacity:1" fill="#383838" d="M 155.5,300.5 C 159.342,302.002 163.342,302.668 167.5,302.5C 168.167,302.5 168.833,302.5 169.5,302.5C 170.376,302.369 171.043,302.702 171.5,303.5C 170.177,308.437 169.177,313.437 168.5,318.5C 161.833,318.833 161.833,319.167 168.5,319.5C 168.301,322.941 168.801,326.274 170,329.5C 173.113,332.613 176.279,335.779 179.5,339C 177.624,341.896 174.957,343.062 171.5,342.5C 163.597,341.998 155.763,341.331 148,340.5C 149.314,335.608 150.814,330.608 152.5,325.5C 151.515,323.902 151.349,322.235 152,320.5C 152.654,321.696 153.154,321.696 153.5,320.5C 153.5,317.167 153.5,313.833 153.5,310.5C 152.833,309.5 152.167,308.5 151.5,307.5C 152.407,305.744 152.407,303.911 151.5,302C 151.833,301.167 152.167,300.333 152.5,299.5C 153.417,300.127 154.417,300.461 155.5,300.5 Z"/></g>
<g><path style="opacity:1" fill="#373737" d="M 119.5,301.5 C 121.167,302.167 122.833,302.833 124.5,303.5C 124.5,303.833 124.5,304.167 124.5,304.5C 128.353,305.166 132.353,305.833 136.5,306.5C 133.792,311.077 131.792,315.91 130.5,321C 130.667,322.167 130.833,323.333 131,324.5C 134.229,327.013 137.062,329.846 139.5,333C 139.095,333.945 138.428,334.612 137.5,335C 127.687,337.908 117.853,338.074 108,335.5C 106.457,334.423 106.457,333.089 108,331.5C 110.531,328.309 113.031,325.142 115.5,322C 114.919,321.107 114.585,320.107 114.5,319C 115.904,313.549 117.071,308.049 118,302.5C 118.383,301.944 118.883,301.611 119.5,301.5 Z"/></g>
</svg>
