<?xml version="1.0" encoding="UTF-8"?>
<!DOCTYPE svg PUBLIC "-//W3C//DTD SVG 1.1//EN" "http://www.w3.org/Graphics/SVG/1.1/DTD/svg11.dtd">
<svg xmlns="http://www.w3.org/2000/svg" version="1.1" width="531px" height="613px" style="shape-rendering:geometricPrecision; text-rendering:geometricPrecision; image-rendering:optimizeQuality; fill-rule:evenodd; clip-rule:evenodd" xmlns:xlink="http://www.w3.org/1999/xlink">
<g><path style="opacity:1" fill="#fefffe" d="M 363.5,60.5 C 370.543,60.2803 377.543,60.6136 384.5,61.5C 385.843,67.207 387.343,72.8737 389,78.5C 389.979,84.9884 389.479,91.3217 387.5,97.5C 387.818,98.6473 388.484,99.4806 389.5,100C 394.19,100.503 398.857,101.17 403.5,102C 406.118,104.292 407.951,107.126 409,110.5C 409.5,121.828 409.667,133.162 409.5,144.5C 417.893,144.17 426.227,144.67 434.5,146C 437.268,147.762 438.768,150.262 439,153.5C 444.497,154.66 447.497,157.993 448,163.5C 451.393,165.227 453.726,167.894 455,171.5C 455.956,194.169 456.956,216.835 458,239.5C 465.955,253.811 467.622,268.811 463,284.5C 456.725,290.783 449.892,296.283 442.5,301C 444.713,303.081 447.38,304.415 450.5,305C 454.167,305.333 457.833,305.667 461.5,306C 462.333,306.833 463.167,307.667 464,308.5C 464.667,314.5 464.667,320.5 464,326.5C 462.084,335.071 460.751,343.738 460,352.5C 444.426,353.335 428.926,354.335 413.5,355.5C 414.895,371.461 415.729,387.461 416,403.5C 418.854,421.028 420.02,438.694 419.5,456.5C 420.822,456.33 421.989,456.663 423,457.5C 423.167,460.167 423.333,462.833 423.5,465.5C 420.71,484.541 419.543,503.541 420,522.5C 418.94,530.982 414.107,533.982 405.5,531.5C 389.216,532.353 375.383,527.019 364,515.5C 363.333,510.5 363.333,505.5 364,500.5C 369.41,498.521 374.577,496.021 379.5,493C 376.198,491.875 373.031,490.375 370,488.5C 368.48,478.484 368.314,468.484 369.5,458.5C 367.946,450.601 367.113,442.601 367,434.5C 363.832,427.003 361.999,419.17 361.5,411C 361.167,410.5 360.833,410 360.5,409.5C 359.601,414.821 358.768,420.154 358,425.5C 356.736,427.607 354.903,428.607 352.5,428.5C 351.157,438.224 349.49,447.891 347.5,457.5C 348.643,468.12 348.81,478.786 348,489.5C 347.626,490.416 347.126,491.25 346.5,492C 341.883,491.921 340.716,493.754 343,497.5C 343.667,503.167 343.667,508.833 343,514.5C 341.118,518.988 339.785,523.655 339,528.5C 337.509,530.004 335.676,530.837 333.5,531C 319.345,530.839 305.345,532.172 291.5,535C 284.5,535.667 277.5,535.667 270.5,535C 267.452,534.394 264.952,532.894 263,530.5C 262.085,524.056 262.419,517.723 264,511.5C 269.058,507.977 274.558,505.311 280.5,503.5C 282.63,500.082 285.63,497.582 289.5,496C 291.771,492.124 293.771,488.124 295.5,484C 292.759,473.4 291.926,462.567 293,451.5C 293.414,451.043 293.914,450.709 294.5,450.5C 295.325,446.878 295.825,443.211 296,439.5C 296.761,426.589 296.261,413.755 294.5,401C 294.667,397.167 294.833,393.333 295,389.5C 295.309,388.234 295.809,387.067 296.5,386C 287.571,384.455 278.571,382.788 269.5,381C 254.558,372.615 240.391,363.115 227,352.5C 223.159,346.822 219.826,340.822 217,334.5C 214.333,331.833 211.667,329.167 209,326.5C 207.096,323.077 206.263,319.41 206.5,315.5C 176.47,316.034 146.47,316.867 116.5,318C 115.663,316.989 115.33,315.822 115.5,314.5C 87.2067,315.975 59.2067,313.809 31.5,308C 22.4456,305.756 19.1122,299.923 21.5,290.5C 55.202,289.568 88.8687,287.902 122.5,285.5C 130.943,285.311 139.277,286.145 147.5,288C 193.833,288.667 240.167,288.667 286.5,288C 287.591,284.891 288.591,281.725 289.5,278.5C 290.36,276.728 291.693,275.395 293.5,274.5C 296.469,264.29 298.969,253.956 301,243.5C 303.667,240.167 306.333,236.833 309,233.5C 309.333,230.833 309.667,228.167 310,225.5C 311.667,222.833 313.333,220.167 315,217.5C 315.333,211.5 315.667,205.5 316,199.5C 316.667,198.167 317.333,196.833 318,195.5C 321.115,193.353 323.948,190.853 326.5,188C 332.31,185.93 338.31,184.597 344.5,184C 343.536,179.934 343.203,175.767 343.5,171.5C 341.61,171.703 340.11,171.037 339,169.5C 338.501,165.514 338.334,161.514 338.5,157.5C 336.738,157.643 335.071,157.309 333.5,156.5C 332.338,151.533 332.171,146.533 333,141.5C 335.257,139.954 337.424,138.288 339.5,136.5C 340.281,127.494 341.114,118.494 342,109.5C 344.276,102.038 345.609,94.3712 346,86.5C 346.465,85.0692 347.299,83.9025 348.5,83C 351.817,82.5017 355.15,82.335 358.5,82.5C 358.903,74.8073 360.57,67.474 363.5,60.5 Z M 313.5,329.5 C 310.854,341.277 307.687,352.943 304,364.5C 303.275,365.059 302.442,365.392 301.5,365.5C 280.734,359.229 262.568,348.562 247,333.5C 242.64,327.974 238.474,322.307 234.5,316.5C 237.833,316.167 241.167,315.833 244.5,315.5C 254.218,317.815 264.218,318.982 274.5,319C 275.653,320.883 277.319,321.716 279.5,321.5C 279.716,326.781 282.383,329.947 287.5,331C 296.236,331.673 304.903,331.173 313.5,329.5 Z"/></g>
<g><path style="opacity:1" fill="#000000" d="M 367.5,64.5 C 371.881,64.3718 376.215,64.7051 380.5,65.5C 382.489,72.9456 384.155,80.4456 385.5,88C 385.38,93.0249 384.047,97.6916 381.5,102C 382.328,102.915 383.328,103.581 384.5,104C 389.53,104.448 394.53,105.114 399.5,106C 402.118,108.292 403.951,111.126 405,114.5C 404.758,122.692 404.925,130.858 405.5,139C 405.063,146.198 404.397,153.365 403.5,160.5C 405.167,160.5 406.833,160.5 408.5,160.5C 407.7,155.874 409.034,152.04 412.5,149C 418.558,148.261 424.558,148.594 430.5,150C 433.268,151.762 434.768,154.262 435,157.5C 440.497,158.66 443.497,161.993 444,167.5C 447.393,169.227 449.726,171.894 451,175.5C 451.667,181.167 451.667,186.833 451,192.5C 450.365,193.966 449.531,195.3 448.5,196.5C 451.243,199.653 452.577,203.32 452.5,207.5C 453.552,218.598 453.552,229.764 452.5,241C 459.657,251.464 462.49,262.964 461,275.5C 460.529,277.246 459.862,278.913 459,280.5C 451.303,288.268 442.469,294.434 432.5,299C 435.842,301.043 438.509,303.71 440.5,307C 445.983,308.954 451.649,309.954 457.5,310C 459.949,311.863 460.949,314.363 460.5,317.5C 458.576,327.999 456.909,338.499 455.5,349C 449.294,350.245 443.461,349.412 438,346.5C 437.167,347.333 436.333,348.167 435.5,349C 428.069,351.362 420.403,352.029 412.5,351C 411.299,350.097 410.465,348.931 410,347.5C 409.667,347.833 409.333,348.167 409,348.5C 410.243,376.891 412.243,405.224 415,433.5C 415.804,442.215 415.637,450.882 414.5,459.5C 418.365,459.697 420.032,461.697 419.5,465.5C 418.343,471.453 417.51,477.453 417,483.5C 416.365,484.966 415.531,486.3 414.5,487.5C 417.133,491.367 417.133,495.201 414.5,499C 417.306,507.864 417.139,516.697 414,525.5C 396.264,529.37 380.93,524.704 368,511.5C 367.333,509.167 367.333,506.833 368,504.5C 372.29,502.295 376.79,500.461 381.5,499C 384.653,496.195 386.319,492.695 386.5,488.5C 381.953,488.322 377.786,486.989 374,484.5C 372.941,477.52 372.607,470.52 373,463.5C 373.833,462.667 374.667,461.833 375.5,461C 372.154,453.099 371.154,444.932 372.5,436.5C 371.574,431.979 370.074,427.645 368,423.5C 365.813,409.157 363.48,394.824 361,380.5C 360.185,382.623 359.185,384.623 358,386.5C 356.864,398.192 355.531,409.859 354,421.5C 352.736,423.607 350.903,424.607 348.5,424.5C 346.771,436.371 344.771,448.205 342.5,460C 343.981,462.228 344.648,464.728 344.5,467.5C 343.984,473.465 343.818,479.465 344,485.5C 341.973,488.239 339.14,489.572 335.5,489.5C 336.398,495.122 337.731,500.622 339.5,506C 337.903,511.042 336.736,516.209 336,521.5C 335.727,523.329 334.893,524.829 333.5,526C 326.709,527.759 319.876,527.925 313,526.5C 302.486,529.141 291.819,530.808 281,531.5C 268.719,532.241 264.385,526.908 268,515.5C 273.058,511.977 278.558,509.311 284.5,507.5C 286.63,504.082 289.63,501.582 293.5,500C 296.567,494.699 299.234,489.199 301.5,483.5C 300.917,481.998 300.084,480.665 299,479.5C 298.624,473.396 297.791,467.396 296.5,461.5C 296.806,457.085 297.806,452.919 299.5,449C 300.056,438.642 300.723,428.309 301.5,418C 296.923,405.828 297.59,393.994 303.5,382.5C 293.519,380.78 283.519,378.947 273.5,377C 258.558,368.615 244.391,359.115 231,348.5C 227.159,342.822 223.826,336.822 221,330.5C 218.333,327.833 215.667,325.167 213,322.5C 211.096,319.077 210.263,315.41 210.5,311.5C 180.456,311.768 150.456,312.601 120.5,314C 119.663,312.989 119.33,311.822 119.5,310.5C 90.1188,312.135 61.1188,309.635 32.5,303C 30.6297,301.634 28.6297,300.467 26.5,299.5C 25.5481,297.955 25.2148,296.288 25.5,294.5C 57.8763,293.708 90.2096,292.042 122.5,289.5C 129.593,289.595 136.593,290.428 143.5,292C 192.5,292.667 241.5,292.667 290.5,292C 291.591,288.891 292.591,285.725 293.5,282.5C 294.36,280.728 295.693,279.395 297.5,278.5C 300.469,268.29 302.969,257.956 305,247.5C 307.667,244.167 310.333,240.833 313,237.5C 313.286,230.042 316.119,223.708 321.5,218.5C 318.729,212.09 318.895,205.757 322,199.5C 325.5,196.667 329,193.833 332.5,191C 339.836,189.535 347.169,188.202 354.5,187C 354.833,186.667 355.167,186.333 355.5,186C 353.893,184.951 353.227,183.451 353.5,181.5C 351.278,181.822 349.444,181.155 348,179.5C 347.501,175.514 347.334,171.514 347.5,167.5C 343.938,167.436 342.271,165.603 342.5,162C 342.5,158.667 343.833,156 346.5,154C 343.443,153.744 340.443,153.244 337.5,152.5C 336.353,150.235 336.186,147.902 337,145.5C 339.257,143.954 341.424,142.288 343.5,140.5C 344.281,131.494 345.114,122.494 346,113.5C 348.276,106.038 349.609,98.3712 350,90.5C 350.465,89.0692 351.299,87.9025 352.5,87C 355.562,86.2585 358.562,86.4252 361.5,87.5C 362.751,79.5567 364.751,71.8901 367.5,64.5 Z M 313.5,329.5 C 304.903,331.173 296.236,331.673 287.5,331C 282.383,329.947 279.716,326.781 279.5,321.5C 277.319,321.716 275.653,320.883 274.5,319C 264.218,318.982 254.218,317.815 244.5,315.5C 241.167,315.833 237.833,316.167 234.5,316.5C 238.474,322.307 242.64,327.974 247,333.5C 262.568,348.562 280.734,359.229 301.5,365.5C 302.442,365.392 303.275,365.059 304,364.5C 307.687,352.943 310.854,341.277 313.5,329.5 Z"/></g>
<g><path style="opacity:1" fill="#e9e9e9" d="M 375.5,106.5 C 373.896,107.287 373.229,108.62 373.5,110.5C 371.833,111.833 370.167,111.833 368.5,110.5C 368.198,107.627 367.531,104.961 366.5,102.5C 364.281,90.6787 365.614,79.3453 370.5,68.5C 373.487,67.2161 375.987,67.8828 378,70.5C 379.376,76.3854 380.876,82.2188 382.5,88C 380.644,94.4099 378.31,100.577 375.5,106.5 Z"/></g>
<g><path style="opacity:1" fill="#3b3c3b" d="M 356.5,89.5 C 359.259,90.6424 361.926,91.9757 364.5,93.5C 365.681,95.198 365.681,96.8647 364.5,98.5C 361.224,96.4837 357.724,95.1504 354,94.5C 354.058,92.5646 354.891,90.8979 356.5,89.5 Z"/></g>
<g><path style="opacity:1" fill="#3a3a3a" d="M 366.5,102.5 C 367.531,104.961 368.198,107.627 368.5,110.5C 366.471,116.359 362.638,120.692 357,123.5C 356.661,120.12 356.161,116.787 355.5,113.5C 360.866,109.91 360.533,107.577 354.5,106.5C 353.605,103.262 353.605,100.095 354.5,97C 359.4,96.9512 363.4,98.7845 366.5,102.5 Z"/></g>
<g><path style="opacity:1" fill="#fec90d" d="M 355.5,113.5 C 355.354,116.956 355.188,120.622 355,124.5C 353.414,125.376 351.914,126.376 350.5,127.5C 349.808,126.975 349.308,126.308 349,125.5C 348.585,119.729 349.252,114.063 351,108.5C 351.987,104.233 352.821,103.9 353.5,107.5C 355.346,107.222 356.68,107.889 357.5,109.5C 356.37,110.622 355.703,111.956 355.5,113.5 Z"/></g>
<g><path style="opacity:1" fill="#212121" d="M 375.5,106.5 C 382.412,108.398 389.412,109.898 396.5,111C 398.262,113.689 399.596,116.522 400.5,119.5C 399.612,127.16 399.445,134.827 400,142.5C 399.25,143.126 398.416,143.626 397.5,144C 390.174,144.5 382.841,144.666 375.5,144.5C 375.101,136.492 374.935,128.492 375,120.5C 376.236,119.601 377.07,118.434 377.5,117C 375.93,114.941 374.597,112.774 373.5,110.5C 373.229,108.62 373.896,107.287 375.5,106.5 Z"/></g>
<g><path style="opacity:1" fill="#eff0ef" d="M 364.5,119.5 C 365.995,119.415 366.995,120.081 367.5,121.5C 366.872,123.258 365.872,124.758 364.5,126C 359.899,128.969 354.899,130.802 349.5,131.5C 349.5,130.5 349.5,129.5 349.5,128.5C 355.264,126.728 360.264,123.728 364.5,119.5 Z"/></g>
<g><path style="opacity:1" fill="#3b3c3b" d="M 368.5,122.5 C 369.833,122.5 371.167,122.5 372.5,122.5C 373.102,128.211 373.102,133.877 372.5,139.5C 371.15,140.95 369.484,141.617 367.5,141.5C 369.278,136.997 369.778,132.331 369,127.5C 369.121,131.935 367.954,135.935 365.5,139.5C 362.636,140.594 359.969,140.094 357.5,138C 354.854,137.503 352.187,137.336 349.5,137.5C 349.5,135.833 349.5,134.167 349.5,132.5C 354.134,132.52 358.467,131.354 362.5,129C 365.386,127.615 367.386,125.449 368.5,122.5 Z"/></g>
<g><path style="opacity:1" fill="#3b3c3b" d="M 349.5,138.5 C 354.448,138.815 359.114,140.149 363.5,142.5C 366.026,142.204 368.693,142.037 371.5,142C 372,141.5 372.5,141 373,140.5C 373.49,141.793 373.657,143.127 373.5,144.5C 367.824,144.334 362.157,144.501 356.5,145C 352.745,147.795 348.578,149.628 344,150.5C 342.833,150.167 341.667,149.833 340.5,149.5C 343.163,147.008 345.996,144.674 349,142.5C 349.49,141.207 349.657,139.873 349.5,138.5 Z"/></g>
<g><path style="opacity:1" fill="#4f3222" d="M 394.5,163.5 C 396.968,159.338 397.135,155.005 395,150.5C 391.895,148.03 389.062,148.03 386.5,150.5C 385.849,149.909 385.182,149.243 384.5,148.5C 378.633,152.417 377.3,157.417 380.5,163.5C 379.833,164.167 379.167,164.833 378.5,165.5C 375.482,167.4 372.149,168.733 368.5,169.5C 367.403,167.226 366.07,165.059 364.5,163C 365.497,161.404 366.663,159.904 368,158.5C 369.183,154.726 368.349,151.559 365.5,149C 364.251,148.26 363.251,148.427 362.5,149.5C 361.307,151.51 361.307,153.676 362.5,156C 361.212,161.714 358.712,162.547 355,158.5C 354.235,156.934 354.402,155.601 355.5,154.5C 356.473,152.052 356.806,149.385 356.5,146.5C 370.837,146.333 385.171,146.5 399.5,147C 400.718,148.438 401.385,150.105 401.5,152C 400.745,155.518 399.912,159.018 399,162.5C 397.73,164.578 396.23,164.912 394.5,163.5 Z"/></g>
<g><path style="opacity:1" fill="#a43504" d="M 355.5,150.5 C 354.194,152.473 352.527,154.139 350.5,155.5C 350.167,154.833 349.833,154.167 349.5,153.5C 352.332,153.058 353.332,151.725 352.5,149.5C 354.649,146.666 355.649,146.999 355.5,150.5 Z"/></g>
<g><path style="opacity:1" fill="#f3a381" d="M 368.5,169.5 C 368.158,170.338 367.492,170.672 366.5,170.5C 365.25,170.423 364.417,169.756 364,168.5C 363.153,170.193 362.32,171.86 361.5,173.5C 359.5,174.833 357.833,176.5 356.5,178.5C 354.533,178.739 352.699,178.406 351,177.5C 350.252,172.275 350.586,167.275 352,162.5C 349.373,165.207 347.206,165.041 345.5,162C 346.251,159.088 347.918,156.921 350.5,155.5C 352.527,154.139 354.194,152.473 355.5,150.5C 355.5,151.833 355.5,153.167 355.5,154.5C 354.402,155.601 354.235,156.934 355,158.5C 358.712,162.547 361.212,161.714 362.5,156C 361.307,153.676 361.307,151.51 362.5,149.5C 363.251,148.427 364.251,148.26 365.5,149C 368.349,151.559 369.183,154.726 368,158.5C 366.663,159.904 365.497,161.404 364.5,163C 366.07,165.059 367.403,167.226 368.5,169.5 Z"/></g>
<g><path style="opacity:1" fill="#d4d4d4" d="M 386.5,150.5 C 389.251,154.689 388.917,158.689 385.5,162.5C 384.662,162.842 384.328,163.508 384.5,164.5C 383.041,164.567 381.708,164.234 380.5,163.5C 377.3,157.417 378.633,152.417 384.5,148.5C 385.182,149.243 385.849,149.909 386.5,150.5 Z"/></g>
<g><path style="opacity:1" fill="#eff0ef" d="M 394.5,163.5 C 391.267,164.85 388.267,164.517 385.5,162.5C 388.917,158.689 389.251,154.689 386.5,150.5C 389.062,148.03 391.895,148.03 395,150.5C 397.135,155.005 396.968,159.338 394.5,163.5 Z"/></g>
<g><path style="opacity:1" fill="#fefffe" d="M 352.5,149.5 C 353.332,151.725 352.332,153.058 349.5,153.5C 349.799,151.545 350.799,150.211 352.5,149.5 Z"/></g>
<g><path style="opacity:1" fill="#000000" d="M 362.5,149.5 C 367.254,151.328 368.254,154.328 365.5,158.5C 364.895,157.413 365.228,156.246 366.5,155C 365.335,153.008 364.002,151.175 362.5,149.5 Z"/></g>
<g><path style="opacity:1" fill="#eff0ef" d="M 422.5,154.5 C 422.5,155.833 422.5,157.167 422.5,158.5C 420.282,161.387 417.282,162.221 413.5,161C 412.466,153.198 415.466,151.031 422.5,154.5 Z"/></g>
<g><path style="opacity:1" fill="#dcdcdc" d="M 422.5,158.5 C 422.5,157.167 422.5,155.833 422.5,154.5C 427.559,152.861 430.226,154.861 430.5,160.5C 427.302,161.036 424.635,160.369 422.5,158.5 Z"/></g>
<g><path style="opacity:1" fill="#3b3b3b" d="M 440.5,180.5 C 440.5,183.833 440.5,187.167 440.5,190.5C 434.468,190.698 428.468,190.365 422.5,189.5C 418.322,189.956 414.322,190.623 410.5,191.5C 408.5,191.5 406.5,191.5 404.5,191.5C 403.631,189.283 403.298,186.95 403.5,184.5C 406.005,184.98 408.338,185.98 410.5,187.5C 410.833,187.167 411.167,186.833 411.5,186.5C 409.693,184.502 408.026,182.502 406.5,180.5C 406.608,179.558 406.941,178.725 407.5,178C 409.167,177.667 410.833,177.333 412.5,177C 409.968,176.381 407.635,175.381 405.5,174C 408.755,172.909 412.089,171.909 415.5,171C 413.316,169.637 411.316,168.137 409.5,166.5C 415.804,166.169 415.47,165.669 408.5,165C 416.488,163.484 424.488,162.484 432.5,162C 431.833,162.333 431.167,162.667 430.5,163C 433.659,163.011 436.493,163.845 439,165.5C 439.174,170.684 439.674,175.684 440.5,180.5 Z"/></g>
<g><path style="opacity:1" fill="#393939" d="M 380.5,163.5 C 381.708,164.234 383.041,164.567 384.5,164.5C 385.791,164.263 386.791,164.596 387.5,165.5C 387.062,165.435 386.728,165.601 386.5,166C 393.118,172.972 395.118,181.138 392.5,190.5C 388.459,192.455 384.126,193.288 379.5,193C 380.642,186.916 380.809,180.749 380,174.5C 378.824,172.804 377.657,171.138 376.5,169.5C 377.749,167.864 379.416,166.697 381.5,166C 380.552,165.517 379.552,165.351 378.5,165.5C 379.167,164.833 379.833,164.167 380.5,163.5 Z"/></g>
<g><path style="opacity:1" fill="#eff0ef" d="M 378.5,165.5 C 379.552,165.351 380.552,165.517 381.5,166C 379.416,166.697 377.749,167.864 376.5,169.5C 374.901,169.232 373.568,169.566 372.5,170.5C 370.847,170.66 369.514,171.326 368.5,172.5C 366.847,172.66 365.514,173.326 364.5,174.5C 361.268,174.772 359.268,176.438 358.5,179.5C 357.732,180.263 357.232,181.263 357,182.5C 356.51,181.207 356.343,179.873 356.5,178.5C 357.833,176.5 359.5,174.833 361.5,173.5C 363.434,172.89 365.101,171.89 366.5,170.5C 367.492,170.672 368.158,170.338 368.5,169.5C 372.149,168.733 375.482,167.4 378.5,165.5 Z"/></g>
<g><path style="opacity:1" fill="#1f1f1f" d="M 387.5,165.5 C 394.735,165.445 402.068,165.778 409.5,166.5C 411.316,168.137 413.316,169.637 415.5,171C 412.089,171.909 408.755,172.909 405.5,174C 407.635,175.381 409.968,176.381 412.5,177C 410.833,177.333 409.167,177.667 407.5,178C 406.941,178.725 406.608,179.558 406.5,180.5C 408.026,182.502 409.693,184.502 411.5,186.5C 411.167,186.833 410.833,187.167 410.5,187.5C 408.338,185.98 406.005,184.98 403.5,184.5C 403.298,186.95 403.631,189.283 404.5,191.5C 403.739,192.391 402.739,193.058 401.5,193.5C 400.193,185.606 399.527,185.606 399.5,193.5C 396.423,193.821 394.09,192.821 392.5,190.5C 395.118,181.138 393.118,172.972 386.5,166C 386.728,165.601 387.062,165.435 387.5,165.5 Z"/></g>
<g><path style="opacity:1" fill="#000000" d="M 366.5,170.5 C 365.101,171.89 363.434,172.89 361.5,173.5C 362.32,171.86 363.153,170.193 364,168.5C 364.417,169.756 365.25,170.423 366.5,170.5 Z"/></g>
<g><path style="opacity:1" fill="#222222" d="M 372.5,170.5 C 375.292,170.452 377.125,171.785 378,174.5C 378.667,180.167 378.667,185.833 378,191.5C 376.41,197.42 372.91,198.92 367.5,196C 364.839,188.079 365.173,180.246 368.5,172.5C 369.514,171.326 370.847,170.66 372.5,170.5 Z"/></g>
<g><path style="opacity:1" fill="#1e1e1e" d="M 410.5,191.5 C 414.322,190.623 418.322,189.956 422.5,189.5C 428.468,190.365 434.468,190.698 440.5,190.5C 440.5,187.167 440.5,183.833 440.5,180.5C 439.254,169.402 441.421,168.735 447,178.5C 448.759,185.009 447.259,190.509 442.5,195C 430.599,193.859 418.599,193.193 406.5,193C 408.058,192.79 409.391,192.29 410.5,191.5 Z"/></g>
<g><path style="opacity:1" fill="#3036b3" d="M 364.5,174.5 C 365.239,174.369 365.906,174.536 366.5,175C 364.107,179.494 362.94,184.327 363,189.5C 361.667,188.833 360.333,188.167 359,187.5C 358.503,184.854 358.336,182.187 358.5,179.5C 359.268,176.438 361.268,174.772 364.5,174.5 Z"/></g>
<g><path style="opacity:1" fill="#eff0ef" d="M 358.5,191.5 C 361.803,191.702 363.97,193.368 365,196.5C 366.745,197.956 368.578,199.289 370.5,200.5C 369.754,201.736 369.421,203.07 369.5,204.5C 368.448,204.649 367.448,204.483 366.5,204C 365,201.167 362.833,199 360,197.5C 359.187,195.564 358.687,193.564 358.5,191.5 Z"/></g>
<g><path style="opacity:1" fill="#fefffe" d="M 347.5,194.5 C 343.459,194.675 339.459,194.842 335.5,195C 339.304,193.95 343.137,193.116 347,192.5C 347.464,193.094 347.631,193.761 347.5,194.5 Z"/></g>
<g><path style="opacity:1" fill="#2f33a8" d="M 349.5,195.5 C 349.5,196.167 349.167,196.5 348.5,196.5C 347.778,197.551 346.778,198.218 345.5,198.5C 343.447,198.598 341.78,197.931 340.5,196.5C 342.833,195.833 345.167,195.167 347.5,194.5C 350.205,192.419 353.205,192.085 356.5,193.5C 354.031,194.168 351.698,194.835 349.5,195.5 Z"/></g>
<g><path style="opacity:1" fill="#3a3a3a" d="M 402.5,219.5 C 396.356,221.092 390.356,220.758 384.5,218.5C 384.33,213.141 383.83,207.808 383,202.5C 382.31,199.804 380.81,197.637 378.5,196C 384.022,194.434 389.522,194.267 395,195.5C 399.822,202.798 402.322,210.798 402.5,219.5 Z"/></g>
<g><path style="opacity:1" fill="#fefffe" d="M 349.5,195.5 C 352.247,195.187 354.914,195.52 357.5,196.5C 357.863,197.183 358.196,197.85 358.5,198.5C 357.167,199.167 356.167,200.167 355.5,201.5C 353.833,201.5 352.167,201.5 350.5,201.5C 350.158,200.662 349.492,200.328 348.5,200.5C 348.5,199.167 348.5,197.833 348.5,196.5C 349.167,196.5 349.5,196.167 349.5,195.5 Z"/></g>
<g><path style="opacity:1" fill="#eff0ef" d="M 397.5,196.5 C 398.251,195.427 399.251,195.26 400.5,196C 405.238,202.414 408.404,209.581 410,217.5C 410.874,230.209 410.54,242.876 409,255.5C 407.958,261.52 404.958,266.187 400,269.5C 399.5,269.333 399,269.167 398.5,269C 403.242,265.351 405.742,260.518 406,254.5C 407.284,238.671 406.284,223.005 403,207.5C 401.663,203.493 399.83,199.827 397.5,196.5 Z"/></g>
<g><path style="opacity:1" fill="#222322" d="M 429.5,201.5 C 424.882,203.207 420.382,205.207 416,207.5C 414.005,205.253 411.505,204.253 408.5,204.5C 406.844,201.861 405.178,199.195 403.5,196.5C 411.5,195.167 419.5,195.167 427.5,196.5C 428.456,198.075 429.123,199.742 429.5,201.5 Z"/></g>
<g><path style="opacity:1" fill="#eff0ef" d="M 429.5,196.5 C 430.884,195.199 432.384,195.199 434,196.5C 439.821,205.296 442.821,214.963 443,225.5C 444.13,237.036 443.13,248.37 440,259.5C 439.038,262.456 437.372,264.79 435,266.5C 434.5,266.333 434,266.167 433.5,266C 435.936,263.293 437.436,260.127 438,256.5C 441.438,241.75 441.104,227.083 437,212.5C 435.271,206.714 432.771,201.38 429.5,196.5 Z"/></g>
<g><path style="opacity:1" fill="#eaeaea" d="M 340.5,196.5 C 341.78,197.931 343.447,198.598 345.5,198.5C 346.29,199.401 347.29,200.068 348.5,200.5C 349.492,200.328 350.158,200.662 350.5,201.5C 350.833,202.5 351.5,203.167 352.5,203.5C 354.808,205.471 357.142,207.471 359.5,209.5C 359.5,210.833 359.5,212.167 359.5,213.5C 358.069,214.78 357.402,216.447 357.5,218.5C 356.167,218.5 354.833,218.5 353.5,218.5C 353.5,217.5 353.5,216.5 353.5,215.5C 357.29,214.025 357.29,212.358 353.5,210.5C 353.167,209.5 352.5,208.833 351.5,208.5C 350.833,207.167 349.833,206.167 348.5,205.5C 347.486,204.326 346.153,203.66 344.5,203.5C 344.158,202.662 343.492,202.328 342.5,202.5C 341.207,201.842 339.707,201.508 338,201.5C 335.179,201.408 332.679,202.074 330.5,203.5C 327.207,204.32 326.874,205.987 329.5,208.5C 328.969,211.767 327.969,212.1 326.5,209.5C 326.655,206.147 325.988,205.814 324.5,208.5C 323.957,208.44 323.624,208.107 323.5,207.5C 326.867,200.111 332.533,196.444 340.5,196.5 Z"/></g>
<g><path style="opacity:1" fill="#000000" d="M 348.5,196.5 C 348.5,197.833 348.5,199.167 348.5,200.5C 347.29,200.068 346.29,199.401 345.5,198.5C 346.778,198.218 347.778,197.551 348.5,196.5 Z"/></g>
<g><path style="opacity:1" fill="#323bc8" d="M 352.5,196.5 C 357.276,196.671 357.609,197.671 353.5,199.5C 350.207,198.947 349.874,197.947 352.5,196.5 Z"/></g>
<g><path style="opacity:1" fill="#3b3c3b" d="M 436.5,197.5 C 438.125,196.675 439.792,197.008 441.5,198.5C 444.244,200.984 446.244,203.984 447.5,207.5C 446.6,209.932 445.934,212.432 445.5,215C 446.646,218.124 447.646,221.29 448.5,224.5C 448.127,231.023 447.794,237.523 447.5,244C 447.757,249.392 448.424,254.726 449.5,260C 449.241,261.261 448.574,262.261 447.5,263C 444.845,264.115 442.179,264.782 439.5,265C 442.962,258.988 444.795,252.488 445,245.5C 445.885,233.743 445.218,222.076 443,210.5C 441.33,205.827 439.163,201.493 436.5,197.5 Z"/></g>
<g><path style="opacity:1" fill="#222322" d="M 376.5,197.5 C 378.934,198.771 380.434,200.771 381,203.5C 383.761,222.801 384.428,242.134 383,261.5C 380.652,266.085 377.319,267.085 373,264.5C 370.356,243.554 370.023,222.554 372,201.5C 373.492,200.08 374.992,198.746 376.5,197.5 Z"/></g>
<g><path style="opacity:1" fill="#2d2f97" d="M 358.5,198.5 C 360.5,199.833 362.167,201.5 363.5,203.5C 362.559,205.772 361.226,207.772 359.5,209.5C 357.142,207.471 354.808,205.471 352.5,203.5C 353.5,202.833 354.5,202.167 355.5,201.5C 356.167,200.167 357.167,199.167 358.5,198.5 Z"/></g>
<g><path style="opacity:1" fill="#000000" d="M 350.5,201.5 C 352.167,201.5 353.833,201.5 355.5,201.5C 354.5,202.167 353.5,202.833 352.5,203.5C 351.5,203.167 350.833,202.5 350.5,201.5 Z"/></g>
<g><path style="opacity:1" fill="#3b3c3b" d="M 429.5,201.5 C 432.105,205.05 433.939,209.05 435,213.5C 439.666,228.829 439.666,244.163 435,259.5C 434.117,262.102 432.617,264.269 430.5,266C 422.5,266.667 414.5,266.667 406.5,266C 409.933,261.453 411.766,256.286 412,250.5C 412.667,239.167 412.667,227.833 412,216.5C 410.537,212.577 409.37,208.577 408.5,204.5C 411.505,204.253 414.005,205.253 416,207.5C 420.382,205.207 424.882,203.207 429.5,201.5 Z"/></g>
<g><path style="opacity:1" fill="#eff0ef" d="M 333.5,206.5 C 334.161,205.282 334.828,203.949 335.5,202.5C 336.474,204.743 336.808,207.076 336.5,209.5C 335.5,209.5 334.5,209.5 333.5,209.5C 333.5,208.5 333.5,207.5 333.5,206.5 Z"/></g>
<g><path style="opacity:1" fill="#eff0ef" d="M 342.5,202.5 C 342.5,203.833 342.5,205.167 342.5,206.5C 341.596,207.209 341.263,208.209 341.5,209.5C 340.167,209.5 338.833,209.5 337.5,209.5C 337.5,207.167 337.5,204.833 337.5,202.5C 339.167,202.5 340.833,202.5 342.5,202.5 Z"/></g>
<g><path style="opacity:1" fill="#000000" d="M 342.5,202.5 C 343.492,202.328 344.158,202.662 344.5,203.5C 343.833,204.5 343.167,205.5 342.5,206.5C 342.5,205.167 342.5,203.833 342.5,202.5 Z"/></g>
<g><path style="opacity:1" fill="#000000" d="M 330.5,203.5 C 329.699,205.042 329.366,206.708 329.5,208.5C 326.874,205.987 327.207,204.32 330.5,203.5 Z"/></g>
<g><path style="opacity:1" fill="#eff0ef" d="M 330.5,203.5 C 331.5,203.5 332.5,203.5 333.5,203.5C 333.5,204.5 333.5,205.5 333.5,206.5C 332.768,207.808 331.934,209.142 331,210.5C 330.722,209.584 330.222,208.918 329.5,208.5C 329.366,206.708 329.699,205.042 330.5,203.5 Z"/></g>
<g><path style="opacity:1" fill="#eff0ef" d="M 344.5,203.5 C 345.024,205.306 345.691,206.972 346.5,208.5C 346.65,211.926 345.484,212.259 343,209.5C 342.517,208.552 342.351,207.552 342.5,206.5C 343.167,205.5 343.833,204.5 344.5,203.5 Z"/></g>
<g><path style="opacity:1" fill="#000000" d="M 344.5,203.5 C 346.153,203.66 347.486,204.326 348.5,205.5C 346.952,205.821 346.285,206.821 346.5,208.5C 345.691,206.972 345.024,205.306 344.5,203.5 Z"/></g>
<g><path style="opacity:1" fill="#eff0ef" d="M 363.5,203.5 C 364.097,203.735 364.43,204.235 364.5,205C 363.683,206.49 362.85,207.99 362,209.5C 361.23,210.598 360.397,210.598 359.5,209.5C 361.226,207.772 362.559,205.772 363.5,203.5 Z"/></g>
<g><path style="opacity:1" fill="#c2c2c2" d="M 348.5,205.5 C 349.833,206.167 350.833,207.167 351.5,208.5C 351.131,210.993 351.797,211.66 353.5,210.5C 357.29,212.358 357.29,214.025 353.5,215.5C 349.489,214.692 347.156,212.359 346.5,208.5C 346.285,206.821 346.952,205.821 348.5,205.5 Z"/></g>
<g><path style="opacity:1" fill="#910c11" d="M 357.5,218.5 C 358.931,217.22 359.598,215.553 359.5,213.5C 362.287,211.28 364.62,208.614 366.5,205.5C 367.086,205.709 367.586,206.043 368,206.5C 368.638,223.505 368.972,240.505 369,257.5C 362.834,257.292 356.667,256.792 350.5,256C 348.032,254.784 346.032,253.117 344.5,251C 347.072,239.371 351.406,228.537 357.5,218.5 Z"/></g>
<g><path style="opacity:1" fill="#000000" d="M 326.5,209.5 C 325.833,209.167 325.167,208.833 324.5,208.5C 325.988,205.814 326.655,206.147 326.5,209.5 Z"/></g>
<g><path style="opacity:1" fill="#eff0ef" d="M 324.5,208.5 C 325.167,208.833 325.833,209.167 326.5,209.5C 326.769,211.429 326.269,213.095 325,214.5C 323.204,212.598 323.037,210.598 324.5,208.5 Z"/></g>
<g><path style="opacity:1" fill="#000000" d="M 351.5,208.5 C 352.5,208.833 353.167,209.5 353.5,210.5C 351.797,211.66 351.131,210.993 351.5,208.5 Z"/></g>
<g><path style="opacity:1" fill="#ec1c23" d="M 330.5,274.5 C 330.389,273.883 330.056,273.383 329.5,273C 327.667,272.833 325.833,272.667 324,272.5C 320.647,272.585 317.481,273.085 314.5,274C 311.007,268.711 309.341,262.878 309.5,256.5C 310.329,250.472 313.162,245.472 318,241.5C 317.945,234.277 320.612,228.277 326,223.5C 324.552,214.77 328.385,210.437 337.5,210.5C 344.642,210.981 349.975,214.315 353.5,220.5C 351.273,225.954 348.773,231.287 346,236.5C 344.022,248.083 340.356,259.083 335,269.5C 333.024,270.822 331.524,272.488 330.5,274.5 Z"/></g>
<g><path style="opacity:1" fill="#000000" d="M 359.5,213.5 C 359.598,215.553 358.931,217.22 357.5,218.5C 357.402,216.447 358.069,214.78 359.5,213.5 Z"/></g>
<g><path style="opacity:1" fill="#222322" d="M 384.5,218.5 C 390.356,220.758 396.356,221.092 402.5,219.5C 403.404,220.209 403.737,221.209 403.5,222.5C 398.859,223.127 394.193,223.46 389.5,223.5C 389.215,225.288 389.548,226.955 390.5,228.5C 394.792,229.649 398.459,231.815 401.5,235C 397.113,235.226 392.779,235.726 388.5,236.5C 388.167,237.167 387.833,237.833 387.5,238.5C 390.444,243.843 390.11,248.843 386.5,253.5C 386.211,241.755 385.544,230.089 384.5,218.5 Z"/></g>
<g><path style="opacity:1" fill="#3b3c3b" d="M 403.5,222.5 C 404.594,232.799 404.76,243.133 404,253.5C 402.277,267.282 395.11,271.782 382.5,267C 385.027,262.877 386.36,258.377 386.5,253.5C 390.11,248.843 390.444,243.843 387.5,238.5C 387.833,237.833 388.167,237.167 388.5,236.5C 392.779,235.726 397.113,235.226 401.5,235C 398.459,231.815 394.792,229.649 390.5,228.5C 389.548,226.955 389.215,225.288 389.5,223.5C 394.193,223.46 398.859,223.127 403.5,222.5 Z"/></g>
<g><path style="opacity:1" fill="#ec1c23" d="M 432.5,291.5 C 427.799,289.766 425.965,286.432 427,281.5C 429.119,279.258 431.619,278.925 434.5,280.5C 435.737,280.444 436.737,279.944 437.5,279C 433.107,278.304 429.44,276.304 426.5,273C 430.648,271.557 434.648,270.057 438.5,268.5C 441.614,267.044 444.948,265.878 448.5,265C 449.333,264.167 450.167,263.333 451,262.5C 450.892,258.843 450.892,255.177 451,251.5C 454.535,257.758 456.201,264.424 456,271.5C 455.3,275.066 453.467,277.9 450.5,280C 445.135,284.873 439.135,288.706 432.5,291.5 Z"/></g>
<g><path style="opacity:1" fill="#bebfbe" d="M 343.5,254.5 C 350.82,259.286 358.82,260.786 367.5,259C 369.347,261.519 371.014,264.186 372.5,267C 371.183,268.659 369.517,269.826 367.5,270.5C 360.041,266.937 352.707,263.103 345.5,259C 343.963,257.89 343.297,256.39 343.5,254.5 Z"/></g>
<g><path style="opacity:1" fill="#910c11" d="M 309.5,256.5 C 309.341,262.878 311.007,268.711 314.5,274C 317.481,273.085 320.647,272.585 324,272.5C 325.833,272.667 327.667,272.833 329.5,273C 330.056,273.383 330.389,273.883 330.5,274.5C 329.792,278.785 329.292,283.118 329,287.5C 325.155,292.031 322.322,297.031 320.5,302.5C 320.167,303.5 319.5,304.167 318.5,304.5C 313.113,306.317 308.613,304.983 305,300.5C 301.872,296.125 299.706,291.292 298.5,286C 299.563,284.812 300.897,284.312 302.5,284.5C 304.545,274.985 306.879,265.651 309.5,256.5 Z"/></g>
<g><path style="opacity:1" fill="#490609" d="M 342.5,259.5 C 346.479,262.493 350.812,264.993 355.5,267C 354.587,269.333 353.087,271.166 351,272.5C 350.517,273.448 350.351,274.448 350.5,275.5C 345.953,275.678 341.786,277.011 338,279.5C 337.955,276.666 337.121,274.166 335.5,272C 338.226,268.049 340.559,263.882 342.5,259.5 Z"/></g>
<g><path style="opacity:1" fill="#bebfbe" d="M 356.5,268.5 C 360.008,269.504 363.174,271.171 366,273.5C 366.014,275.471 365.681,277.471 365,279.5C 361.68,278.138 359.846,275.638 359.5,272C 358.167,271.667 356.833,271.333 355.5,271C 356.252,270.329 356.586,269.496 356.5,268.5 Z"/></g>
<g><path style="opacity:1" fill="#65462a" d="M 374.5,268.5 C 379.107,269.554 383.773,270.221 388.5,270.5C 389.275,274.814 389.941,279.147 390.5,283.5C 382.768,282.967 375.102,281.967 367.5,280.5C 367.838,278.146 368.338,275.813 369,273.5C 371.191,272.167 373.024,270.5 374.5,268.5 Z"/></g>
<g><path style="opacity:1" fill="#910c11" d="M 404.5,268.5 C 406.167,268.5 407.833,268.5 409.5,268.5C 408.099,272.168 407.432,276.001 407.5,280C 408.051,284.508 408.218,289.008 408,293.5C 400.951,285.833 399.784,277.5 404.5,268.5 Z"/></g>
<g><path style="opacity:1" fill="#910c11" d="M 438.5,268.5 C 434.648,270.057 430.648,271.557 426.5,273C 429.44,276.304 433.107,278.304 437.5,279C 436.737,279.944 435.737,280.444 434.5,280.5C 431.619,278.925 429.119,279.258 427,281.5C 425.965,286.432 427.799,289.766 432.5,291.5C 428.396,293.725 424.396,296.225 420.5,299C 416.94,300.237 413.273,300.737 409.5,300.5C 410.613,292.511 410.613,284.511 409.5,276.5C 414.059,275.462 417.726,272.962 420.5,269C 426.491,268.501 432.491,268.334 438.5,268.5 Z"/></g>
<g><path style="opacity:1" fill="#eff0ef" d="M 395.5,270.5 C 396.708,271.234 398.041,271.567 399.5,271.5C 397.667,281.503 400.5,289.836 408,296.5C 408.494,298.134 408.66,299.801 408.5,301.5C 405.675,301.081 403.509,302.081 402,304.5C 402.449,296.505 399.449,290.172 393,285.5C 392.534,280.891 391.7,276.391 390.5,272C 392.382,271.802 394.048,271.302 395.5,270.5 Z"/></g>
<g><path style="opacity:1" fill="#7e7f7e" d="M 352.5,273.5 C 354.5,273.5 356.5,273.5 358.5,273.5C 358.719,274.675 358.386,275.675 357.5,276.5C 355.241,276.216 353.574,275.216 352.5,273.5 Z"/></g>
<g><path style="opacity:1" fill="#1b7eb3" d="M 347.5,277.5 C 364.579,277.41 373.913,285.91 375.5,303C 372.349,317.653 363.349,325.819 348.5,327.5C 345.741,327.458 343.075,326.958 340.5,326C 325.574,316.57 322.074,304.07 330,288.5C 334.578,282.638 340.411,278.972 347.5,277.5 Z"/></g>
<g><path style="opacity:1" fill="#00a1e8" d="M 364.5,286.5 C 363.726,287.147 362.726,287.48 361.5,287.5C 353.888,286.461 346.554,284.795 339.5,282.5C 348.685,278.915 357.018,280.249 364.5,286.5 Z"/></g>
<g><path style="opacity:1" fill="#000000" d="M 337.5,283.5 C 337.842,282.662 338.508,282.328 339.5,282.5C 346.554,284.795 353.888,286.461 361.5,287.5C 362.726,287.48 363.726,287.147 364.5,286.5C 366.262,287.262 367.262,288.596 367.5,290.5C 357.5,288.167 347.5,285.833 337.5,283.5 Z"/></g>
<g><path style="opacity:1" fill="#7b6d33" d="M 382.5,285.5 C 378.115,289.076 376.448,293.743 377.5,299.5C 376.094,293.483 373.428,287.983 369.5,283C 373.923,283.606 378.256,284.439 382.5,285.5 Z"/></g>
<g><path style="opacity:1" fill="#00a1e8" d="M 337.5,283.5 C 347.5,285.833 357.5,288.167 367.5,290.5C 368.264,293.018 369.264,295.351 370.5,297.5C 370.5,299.167 370.5,300.833 370.5,302.5C 357.803,300.567 345.136,298.4 332.5,296C 330.881,295.764 329.881,294.931 329.5,293.5C 331.756,289.903 334.423,286.569 337.5,283.5 Z"/></g>
<g><path style="opacity:1" fill="#b8a556" d="M 382.5,285.5 C 383.5,285.5 384.5,285.5 385.5,285.5C 387.784,290.727 390.617,295.727 394,300.5C 394.667,299.167 394.667,297.833 394,296.5C 391.607,293.048 389.774,289.381 388.5,285.5C 398.661,290.13 402.661,297.964 400.5,309C 401.331,313.151 401.997,317.317 402.5,321.5C 395.197,322.773 387.863,323.939 380.5,325C 375.98,325.814 371.646,325.647 367.5,324.5C 373.128,319.416 377.128,313.249 379.5,306C 378.891,304.052 378.224,302.218 377.5,300.5C 377.5,300.167 377.5,299.833 377.5,299.5C 376.448,293.743 378.115,289.076 382.5,285.5 Z"/></g>
<g><path style="opacity:1" fill="#7b6d33" d="M 385.5,285.5 C 386.5,285.5 387.5,285.5 388.5,285.5C 389.774,289.381 391.607,293.048 394,296.5C 394.667,297.833 394.667,299.167 394,300.5C 390.617,295.727 387.784,290.727 385.5,285.5 Z"/></g>
<g><path style="opacity:1" fill="#3138ba" d="M 318.5,304.5 C 319.5,304.167 320.167,303.5 320.5,302.5C 321.338,302.842 321.672,303.508 321.5,304.5C 320.326,305.514 319.66,306.847 319.5,308.5C 316.69,311.136 313.69,313.636 310.5,316C 307.442,316.458 304.442,316.124 301.5,315C 302.416,314.722 303.082,314.222 303.5,313.5C 305.067,307.828 303.067,305.494 297.5,306.5C 297.167,306.5 296.833,306.5 296.5,306.5C 296.815,302.629 296.482,298.962 295.5,295.5C 295.421,292.729 295.921,290.063 297,287.5C 297.958,295.121 301.458,301.288 307.5,306C 311.06,307.237 314.727,307.737 318.5,307.5C 318.5,306.5 318.5,305.5 318.5,304.5 Z"/></g>
<g><path style="opacity:1" fill="#7b6d33" d="M 382.5,287.5 C 386.331,290.507 387.998,294.507 387.5,299.5C 387.916,305.091 386.083,309.758 382,313.5C 382.334,307.988 383.168,302.488 384.5,297C 383.517,293.888 382.85,290.722 382.5,287.5 Z"/></g>
<g><path style="opacity:1" fill="#c2c3c2" d="M 116.5,293.5 C 119.187,293.336 121.854,293.503 124.5,294C 122.264,297.876 120.93,302.042 120.5,306.5C 103.14,306.799 85.8071,306.299 68.5,305C 56.2513,303.55 44.2513,301.217 32.5,298C 60.6346,297.879 88.6346,296.379 116.5,293.5 Z"/></g>
<g><path style="opacity:1" fill="#c2c3c2" d="M 125.5,293.5 C 130.485,294.248 135.485,294.915 140.5,295.5C 140.586,299.857 140.92,304.19 141.5,308.5C 135.479,309.003 129.479,309.669 123.5,310.5C 123.523,308.4 122.856,306.567 121.5,305C 122.742,301.106 124.076,297.272 125.5,293.5 Z"/></g>
<g><path style="opacity:1" fill="#000000" d="M 329.5,293.5 C 329.881,294.931 330.881,295.764 332.5,296C 345.136,298.4 357.803,300.567 370.5,302.5C 370.5,300.833 370.5,299.167 370.5,297.5C 371.833,300.5 371.833,303.5 370.5,306.5C 370.119,305.069 369.119,304.236 367.5,304C 354.538,301.51 341.538,299.344 328.5,297.5C 328.232,295.901 328.566,294.568 329.5,293.5 Z"/></g>
<g><path style="opacity:1" fill="#fefffe" d="M 295.5,295.5 C 295.82,298.898 295.487,302.232 294.5,305.5C 294.629,302.936 294.296,300.269 293.5,297.5C 293.855,296.478 294.522,295.811 295.5,295.5 Z"/></g>
<g><path style="opacity:1" fill="#c2c3c2" d="M 142.5,296.5 C 192.171,296.167 241.838,296.5 291.5,297.5C 241.84,298.711 192.174,299.378 142.5,299.5C 142.5,298.5 142.5,297.5 142.5,296.5 Z"/></g>
<g><path style="opacity:1" fill="#00a1e8" d="M 328.5,297.5 C 341.538,299.344 354.538,301.51 367.5,304C 369.119,304.236 370.119,305.069 370.5,306.5C 369.225,309.97 367.558,313.303 365.5,316.5C 353.521,314.371 341.521,312.371 329.5,310.5C 328.8,306.202 328.467,301.869 328.5,297.5 Z"/></g>
<g><path style="opacity:1" fill="#f9a884" d="M 278.5,306.5 C 276.75,305.341 275.75,303.674 275.5,301.5C 280.608,299.667 285.942,299.001 291.5,299.5C 291.5,301.833 291.5,304.167 291.5,306.5C 287.167,306.5 282.833,306.5 278.5,306.5 Z"/></g>
<g><path style="opacity:1" fill="#6e442d" d="M 275.5,301.5 C 275.75,303.674 276.75,305.341 278.5,306.5C 282.982,307.326 287.649,307.826 292.5,308C 289.705,309.408 287.205,311.242 285,313.5C 283.566,313.07 282.399,312.236 281.5,311C 275.833,310.667 270.167,310.333 264.5,310C 263.328,309.581 262.328,308.915 261.5,308C 247.092,307.816 232.759,307.316 218.5,306.5C 217.163,305.685 216.163,304.518 215.5,303C 214.072,302.421 212.738,302.588 211.5,303.5C 210.566,304.568 210.232,305.901 210.5,307.5C 188.166,307.776 165.832,308.11 143.5,308.5C 143.756,306.208 143.423,304.041 142.5,302C 176,301.515 209.5,301.015 243,300.5C 254.005,300.5 264.839,300.833 275.5,301.5 Z"/></g>
<g><path style="opacity:1" fill="#7b6d33" d="M 377.5,300.5 C 378.224,302.218 378.891,304.052 379.5,306C 377.128,313.249 373.128,319.416 367.5,324.5C 366.761,324.631 366.094,324.464 365.5,324C 373.36,318.114 377.36,310.28 377.5,300.5 Z"/></g>
<g><path style="opacity:1" fill="#603b28" d="M 319.5,308.5 C 319.66,306.847 320.326,305.514 321.5,304.5C 322.268,303.737 322.768,302.737 323,301.5C 323.27,304.224 323.77,306.891 324.5,309.5C 323.667,309.833 322.833,310.167 322,310.5C 320.624,310.316 319.791,309.649 319.5,308.5 Z"/></g>
<g><path style="opacity:1" fill="#373737" d="M 418.5,301.5 C 421.947,301.814 425.28,302.648 428.5,304C 430.667,304.833 432.167,306.333 433,308.5C 436.49,320.319 436.323,331.986 432.5,343.5C 427.558,345.143 422.558,346.143 417.5,346.5C 416.914,346.291 416.414,345.957 416,345.5C 416.399,333.847 416.399,322.181 416,310.5C 415.008,307.336 413.175,304.836 410.5,303C 413.365,302.817 416.031,302.317 418.5,301.5 Z"/></g>
<g><path style="opacity:1" fill="#fec90d" d="M 218.5,306.5 C 219.933,308.558 220.6,310.892 220.5,313.5C 218.901,314.562 217.234,314.562 215.5,313.5C 212.742,310.74 211.408,307.407 211.5,303.5C 212.738,302.588 214.072,302.421 215.5,303C 216.163,304.518 217.163,305.685 218.5,306.5 Z"/></g>
<g><path style="opacity:1" fill="#222322" d="M 405.5,303.5 C 410.072,304.237 412.905,306.903 414,311.5C 414.601,321.847 414.434,332.181 413.5,342.5C 410.306,341.242 406.973,340.576 403.5,340.5C 405.021,329.945 404.688,319.445 402.5,309C 403.124,306.915 404.124,305.082 405.5,303.5 Z"/></g>
<g><path style="opacity:1" fill="#fefffe" d="M 303.5,313.5 C 299.406,313.067 297.406,310.734 297.5,306.5C 303.067,305.494 305.067,307.828 303.5,313.5 Z"/></g>
<g><path style="opacity:1" fill="#323bc8" d="M 296.5,306.5 C 296.541,310.243 295.874,310.41 294.5,307C 295.094,306.536 295.761,306.369 296.5,306.5 Z"/></g>
<g><path style="opacity:1" fill="#323bc8" d="M 298.5,307.5 C 299.833,307.5 301.167,307.5 302.5,307.5C 302.02,313.76 300.686,313.76 298.5,307.5 Z"/></g>
<g><path style="opacity:1" fill="#7b6d33" d="M 390.5,307.5 C 397.628,307.706 399.294,310.873 395.5,317C 388.474,316.759 386.807,313.593 390.5,307.5 Z"/></g>
<g><path style="opacity:1" fill="#ededed" d="M 215.5,313.5 C 217.234,314.562 218.901,314.562 220.5,313.5C 221.434,312.432 221.768,311.099 221.5,309.5C 223.911,309.137 225.411,310.137 226,312.5C 225.722,316.139 225.722,319.806 226,323.5C 242.245,347.881 264.412,364.381 292.5,373C 297.914,373.361 303.248,374.194 308.5,375.5C 308.291,376.086 307.957,376.586 307.5,377C 297.048,376.87 286.715,375.537 276.5,373C 264.665,365.917 252.998,358.583 241.5,351C 233.688,344.907 228.188,337.073 225,327.5C 220.552,323.89 217.052,319.557 214.5,314.5C 214.624,313.893 214.957,313.56 215.5,313.5 Z"/></g>
<g><path style="opacity:1" fill="#f9a884" d="M 290.5,309.5 C 291.552,309.351 292.552,309.517 293.5,310C 296.042,315.19 300.208,318.023 306,318.5C 307.257,318.85 307.591,319.517 307,320.5C 303.023,321.607 299.023,322.607 295,323.5C 287.415,320.682 285.915,316.015 290.5,309.5 Z"/></g>
<g><path style="opacity:1" fill="#000000" d="M 329.5,310.5 C 341.521,312.371 353.521,314.371 365.5,316.5C 365.167,317.5 364.5,318.167 363.5,318.5C 353.231,315.743 342.731,313.41 332,311.5C 331.235,311.57 330.735,311.903 330.5,312.5C 329.662,312.158 329.328,311.492 329.5,310.5 Z"/></g>
<g><path style="opacity:1" fill="#fefffe" d="M 230.5,311.5 C 239.839,311.334 249.173,311.5 258.5,312C 259.328,312.915 260.328,313.581 261.5,314C 267.167,314.333 272.833,314.667 278.5,315C 279.653,316.883 281.319,317.716 283.5,317.5C 284.113,324.406 287.946,327.74 295,327.5C 299.861,326.829 304.695,325.995 309.5,325C 311.833,321.333 314.833,318.333 318.5,316C 320.5,315.333 322.5,315.333 324.5,316C 322.599,318.97 321.099,322.136 320,325.5C 316.7,341.059 312.033,356.059 306,370.5C 297.126,369.823 288.626,367.656 280.5,364C 270.162,358.166 260.162,351.833 250.5,345C 242.748,337.252 235.748,328.919 229.5,320C 230.444,317.281 230.777,314.448 230.5,311.5 Z M 313.5,329.5 C 304.903,331.173 296.236,331.673 287.5,331C 282.383,329.947 279.716,326.781 279.5,321.5C 277.319,321.716 275.653,320.883 274.5,319C 264.218,318.982 254.218,317.815 244.5,315.5C 241.167,315.833 237.833,316.167 234.5,316.5C 238.474,322.307 242.64,327.974 247,333.5C 262.568,348.562 280.734,359.229 301.5,365.5C 302.442,365.392 303.275,365.059 304,364.5C 307.687,352.943 310.854,341.277 313.5,329.5 Z"/></g>
<g><path style="opacity:1" fill="#00a1e8" d="M 330.5,312.5 C 330.735,311.903 331.235,311.57 332,311.5C 342.731,313.41 353.231,315.743 363.5,318.5C 350.639,326.519 339.639,324.519 330.5,312.5 Z"/></g>
<g><path style="opacity:1" fill="#6f452d" d="M 436.5,312.5 C 442.048,313.96 447.714,314.794 453.5,315C 454.357,315.689 455.023,316.522 455.5,317.5C 453.002,326.315 451.668,335.315 451.5,344.5C 449.801,344.66 448.134,344.494 446.5,344C 442.827,342.624 439.494,340.79 436.5,338.5C 437.804,329.834 437.804,321.167 436.5,312.5 Z"/></g>
<g><path style="opacity:1" fill="#fec90d" d="M 426.5,313.5 C 428.01,316.684 429.677,319.851 431.5,323C 428.647,324.53 427.98,326.697 429.5,329.5C 428.273,330.59 427.44,331.924 427,333.5C 426.56,331.924 425.727,330.59 424.5,329.5C 425.309,327.929 425.643,326.262 425.5,324.5C 421.839,324.574 421.172,323.574 423.5,321.5C 425.083,319.01 426.083,316.343 426.5,313.5 Z"/></g>
<g><path style="opacity:1" fill="#b8a556" d="M 345.5,329.5 C 346.099,331.934 347.599,333.601 350,334.5C 355.629,333.101 360.795,330.767 365.5,327.5C 377.687,327.759 389.687,326.425 401.5,323.5C 402.914,330.623 402.414,337.623 400,344.5C 397.507,346.336 394.674,347.336 391.5,347.5C 390.641,344.548 388.641,342.715 385.5,342C 377.655,340.366 369.989,341.199 362.5,344.5C 354.131,341.902 345.798,341.568 337.5,343.5C 332.846,340.979 327.846,339.979 322.5,340.5C 323.305,333.273 325.638,326.606 329.5,320.5C 332.601,322.098 335.268,324.265 337.5,327C 340.022,328.341 342.689,329.174 345.5,329.5 Z"/></g>
<g><path style="opacity:1" fill="#7b6d33" d="M 365.5,327.5 C 360.795,330.767 355.629,333.101 350,334.5C 347.599,333.601 346.099,331.934 345.5,329.5C 351.572,330.223 357.072,328.889 362,325.5C 363.302,326.085 364.469,326.751 365.5,327.5 Z"/></g>
<g><path style="opacity:1" fill="#7b6d33" d="M 381.5,333.5 C 387.599,332.042 392.265,334.209 395.5,340C 391.243,337.317 386.576,335.15 381.5,333.5 Z"/></g>
<g><path style="opacity:1" fill="#7b6d33" d="M 391.5,347.5 C 374.139,348.863 356.805,348.363 339.5,346C 338.619,345.292 337.953,344.458 337.5,343.5C 345.798,341.568 354.131,341.902 362.5,344.5C 369.989,341.199 377.655,340.366 385.5,342C 388.641,342.715 390.641,344.548 391.5,347.5 Z"/></g>
<g><path style="opacity:1" fill="#7e7e7e" d="M 321.5,342.5 C 324.518,342.335 327.518,342.502 330.5,343C 331.91,343.368 332.91,344.201 333.5,345.5C 329.841,357.643 325.674,369.643 321,381.5C 316.367,404.585 313.533,427.918 312.5,451.5C 312.835,455.507 313.168,459.507 313.5,463.5C 309.589,463.253 306.256,461.753 303.5,459C 304.998,445.427 305.998,431.76 306.5,418C 306.014,412.237 305.014,406.57 303.5,401C 310.35,381.769 316.35,362.269 321.5,342.5 Z"/></g>
<g><path style="opacity:1" fill="#4c4c4c" d="M 404.5,359.5 C 401.472,364.226 397.972,368.559 394,372.5C 389.28,370.557 384.78,368.224 380.5,365.5C 380.167,365.833 379.833,366.167 379.5,366.5C 380.637,368.607 381.637,370.773 382.5,373C 381.179,375.654 379.179,377.654 376.5,379C 382.982,383.249 383.148,387.749 377,392.5C 376.667,396.5 376.333,400.5 376,404.5C 374.629,406.041 373.129,407.375 371.5,408.5C 369.285,395.208 367.285,381.875 365.5,368.5C 377.685,365.503 387.685,359.003 395.5,349C 399.641,348.69 401.975,346.523 402.5,342.5C 405.336,342.202 405.836,342.869 404,344.5C 403.222,349.584 403.389,354.584 404.5,359.5 Z"/></g>
<g><path style="opacity:1" fill="#7d7d7d" d="M 334.5,345.5 C 338.033,347.955 342.033,349.122 346.5,349C 346.162,373.773 344.995,398.607 343,423.5C 340.402,437.416 338.569,451.416 337.5,465.5C 329.764,465.55 322.097,464.883 314.5,463.5C 313.792,450.85 313.959,438.183 315,425.5C 317.333,411.171 319.667,396.838 322,382.5C 326.88,370.358 331.047,358.025 334.5,345.5 Z"/></g>
<g><path style="opacity:1" fill="#3b3c3b" d="M 349.5,349.5 C 352.167,349.5 354.833,349.5 357.5,349.5C 355.5,368.831 353.5,388.164 351.5,407.5C 349.833,407.5 348.167,407.5 346.5,407.5C 347.344,388.158 348.344,368.824 349.5,349.5 Z"/></g>
<g><path style="opacity:1" fill="#7e7f7e" d="M 359.5,349.5 C 370.169,350.643 380.835,350.809 391.5,350C 383.348,359.746 373.015,365.912 360.5,368.5C 359.917,370.002 359.084,371.335 358,372.5C 357.968,364.815 358.468,357.149 359.5,349.5 Z"/></g>
<g><path style="opacity:1" fill="#7d7d7d" d="M 404.5,359.5 C 405.856,373.808 406.356,388.142 406,402.5C 405.056,403.263 404.556,404.263 404.5,405.5C 407.324,410.808 408.824,416.474 409,422.5C 409.544,430.331 410.044,438.164 410.5,446C 410.573,451.103 409.906,456.103 408.5,461C 408.585,462.107 408.919,463.107 409.5,464C 407.623,465.185 405.623,466.185 403.5,467C 397.167,467.667 390.833,467.667 384.5,467C 380.555,459.33 377.888,451.163 376.5,442.5C 377.592,440.817 378.259,438.984 378.5,437C 377.418,430.92 375.585,425.086 373,419.5C 372.281,415.855 371.781,412.188 371.5,408.5C 373.129,407.375 374.629,406.041 376,404.5C 376.333,400.5 376.667,396.5 377,392.5C 383.148,387.749 382.982,383.249 376.5,379C 379.179,377.654 381.179,375.654 382.5,373C 381.637,370.773 380.637,368.607 379.5,366.5C 379.833,366.167 380.167,365.833 380.5,365.5C 384.78,368.224 389.28,370.557 394,372.5C 397.972,368.559 401.472,364.226 404.5,359.5 Z"/></g>
<g><path style="opacity:1" fill="#fec90d" d="M 346.5,409.5 C 348.167,409.5 349.833,409.5 351.5,409.5C 351.002,412.487 350.502,415.487 350,418.5C 346.549,421.257 345.049,420.257 345.5,415.5C 345.672,413.452 346.005,411.452 346.5,409.5 Z"/></g>
<g><path style="opacity:1" fill="#4e4f4e" d="M 380.5,417.5 C 387.751,417.461 393.751,420.127 398.5,425.5C 390.517,427.173 384.517,424.507 380.5,417.5 Z"/></g>
<g><path style="opacity:1" fill="#7e7f7e" d="M 301.5,459.5 C 304.807,462.716 308.807,464.383 313.5,464.5C 312.655,470.633 311.488,476.633 310,482.5C 307.655,480.486 305.655,478.153 304,475.5C 303.756,470.031 302.922,464.698 301.5,459.5 Z"/></g>
<g><path style="opacity:1" fill="#7e7f7e" d="M 314.5,464.5 C 322.793,465.72 331.127,466.72 339.5,467.5C 336.959,472.063 336.959,476.563 339.5,481C 336.816,483.313 333.649,484.813 330,485.5C 324.456,484.703 318.956,483.703 313.5,482.5C 313.167,481.167 312.833,479.833 312.5,478.5C 313.491,473.873 314.157,469.206 314.5,464.5 Z"/></g>
<g><path style="opacity:1" fill="#7e7f7e" d="M 409.5,465.5 C 410.833,465.5 412.167,465.5 413.5,465.5C 413.211,470.944 412.378,476.277 411,481.5C 406.334,483.013 401.501,483.679 396.5,483.5C 390.137,484.052 384.137,482.886 378.5,480C 379.108,478.769 379.441,477.436 379.5,476C 378.791,473.129 378.291,470.295 378,467.5C 379.965,466.115 381.798,466.282 383.5,468C 390.5,468.667 397.5,468.667 404.5,468C 406.315,467.243 407.981,466.41 409.5,465.5 Z"/></g>
<g><path style="opacity:1" fill="#212121" d="M 313.5,485.5 C 314.5,486.833 315.5,486.833 316.5,485.5C 319.283,494.514 320.117,503.848 319,513.5C 318.165,516.269 316.665,516.935 314.5,515.5C 313.833,512.833 313.167,512.833 312.5,515.5C 303.752,519.144 296.418,517.144 290.5,509.5C 293.472,507.694 296.305,505.694 299,503.5C 301.702,497.205 304.869,491.205 308.5,485.5C 310.167,484.334 311.834,484.334 313.5,485.5 Z"/></g>
<g><path style="opacity:1" fill="#fec90d" d="M 313.5,485.5 C 314.5,484.167 315.5,484.167 316.5,485.5C 315.5,486.833 314.5,486.833 313.5,485.5 Z"/></g>
<g><path style="opacity:1" fill="#222322" d="M 407.5,484.5 C 408.675,484.281 409.675,484.614 410.5,485.5C 409.617,486.548 408.95,487.715 408.5,489C 409.57,490.709 410.903,492.209 412.5,493.5C 411.065,494.929 410.065,496.595 409.5,498.5C 412.927,506.451 413.093,514.451 410,522.5C 407.619,523.435 405.119,523.768 402.5,523.5C 403.98,514.771 403.646,506.104 401.5,497.5C 399.625,496.46 398.292,494.96 397.5,493C 399.152,490.677 400.819,488.344 402.5,486C 404.382,485.802 406.048,485.302 407.5,484.5 Z"/></g>
<g><path style="opacity:1" fill="#222322" d="M 318.5,485.5 C 321.803,486.165 325.137,486.832 328.5,487.5C 329.761,491.061 330.594,494.728 331,498.5C 331.765,501.196 332.932,503.696 334.5,506C 332.612,508.775 331.278,511.775 330.5,515C 326.682,516.944 322.682,517.611 318.5,517C 319.126,516.25 319.626,515.416 320,514.5C 320.862,504.747 320.362,495.081 318.5,485.5 Z"/></g>
<g><path style="opacity:1" fill="#222322" d="M 390.5,485.5 C 393.898,485.18 397.232,485.513 400.5,486.5C 395.259,490.633 395.259,494.633 400.5,498.5C 402.605,506.438 402.938,514.438 401.5,522.5C 389.804,521.152 379.804,516.319 371.5,508C 375.735,506.186 380.068,504.52 384.5,503C 390.11,498.304 392.11,492.471 390.5,485.5 Z"/></g>
<g><path style="opacity:1" fill="#fec90d" d="M 313.5,492.5 C 315.76,493.238 315.927,494.238 314,495.5C 312.272,494.648 312.105,493.648 313.5,492.5 Z"/></g>
<g><path style="opacity:1" fill="#fec90d" d="M 312.5,502.5 C 314.465,502.948 314.798,503.948 313.5,505.5C 312.614,504.675 312.281,503.675 312.5,502.5 Z"/></g>
<g><path style="opacity:1" fill="#222322" d="M 287.5,512.5 C 291.451,515.248 295.784,517.415 300.5,519C 307.527,518.889 314.527,519.056 321.5,519.5C 324.322,519.448 326.989,518.781 329.5,517.5C 330.731,518.651 330.731,519.817 329.5,521C 327.2,521.658 324.867,522.158 322.5,522.5C 317.191,521.489 311.857,521.322 306.5,522C 298.086,523.986 289.586,525.486 281,526.5C 277.263,526.146 274.097,524.646 271.5,522C 272.167,521 272.833,520 273.5,519C 278.227,516.715 282.893,514.548 287.5,512.5 Z"/></g>
<g><path style="opacity:1" fill="#fec90d" d="M 314.5,515.5 C 313.833,515.5 313.167,515.5 312.5,515.5C 313.167,512.833 313.833,512.833 314.5,515.5 Z"/></g>
</svg>
