<?xml version="1.0" encoding="UTF-8"?>
<!DOCTYPE svg PUBLIC "-//W3C//DTD SVG 1.1//EN" "http://www.w3.org/Graphics/SVG/1.1/DTD/svg11.dtd">
<svg xmlns="http://www.w3.org/2000/svg" version="1.1" width="450px" height="458px" style="shape-rendering:geometricPrecision; text-rendering:geometricPrecision; image-rendering:optimizeQuality; fill-rule:evenodd; clip-rule:evenodd" xmlns:xlink="http://www.w3.org/1999/xlink">
<g><path style="opacity:1" fill="#fefffe" d="M 85.5,21.5 C 92.5888,21.1156 99.5888,21.6156 106.5,23C 107.126,23.7504 107.626,24.5838 108,25.5C 109.758,34.0005 109.925,42.5005 108.5,51C 111.057,51.6853 112.891,53.1853 114,55.5C 115.047,67.6659 116.547,79.6659 118.5,91.5C 120.722,91.178 122.556,91.8446 124,93.5C 124.497,95.8098 124.663,98.1432 124.5,100.5C 129.844,100.334 135.177,100.501 140.5,101C 143.741,104.894 145.075,109.394 144.5,114.5C 200.663,111.481 256.83,108.481 313,105.5C 342.493,105.922 371.993,106.089 401.5,106C 406.154,105.473 408.487,107.473 408.5,112C 408.309,114.05 407.642,115.883 406.5,117.5C 403.293,118.97 399.959,120.137 396.5,121C 371.485,122.312 346.485,123.812 321.5,125.5C 321.291,126.086 320.957,126.586 320.5,127C 313.124,127.253 305.791,127.919 298.5,129C 281.11,127.861 263.776,128.527 246.5,131C 243.079,132.475 239.746,134.141 236.5,136C 224.169,136.702 211.835,137.368 199.5,138C 196,143.334 191.167,146.834 185,148.5C 184.667,151.167 184.333,153.833 184,156.5C 179.228,164.941 174.894,173.608 171,182.5C 168.05,187.118 164.716,191.452 161,195.5C 159.681,197.487 157.848,198.654 155.5,199C 161.682,208.228 164.182,218.395 163,229.5C 160.872,232.63 158.372,235.463 155.5,238C 154.552,238.483 153.552,238.649 152.5,238.5C 153.427,244.811 153.594,251.144 153,257.5C 150.5,260 148,262.5 145.5,265C 143.866,265.494 142.199,265.66 140.5,265.5C 150.862,304.867 156.695,344.867 158,385.5C 164.069,391.868 170.736,397.535 178,402.5C 178.667,406.5 178.667,410.5 178,414.5C 177.5,416.333 176.333,417.5 174.5,418C 166.889,419.478 159.222,419.812 151.5,419C 144.668,415.26 137.335,413.593 129.5,414C 126.376,413.521 123.543,412.354 121,410.5C 117.679,384.574 115.013,358.574 113,332.5C 109.842,321.185 105.842,310.185 101,299.5C 99.6097,307.916 98.7764,316.416 98.5,325C 100.186,343.471 101.019,361.971 101,380.5C 100.311,381.357 99.4776,382.023 98.5,382.5C 97.3971,387.18 96.2305,391.847 95,396.5C 91.4662,400.369 87.6328,403.869 83.5,407C 59.421,414.265 52.421,406.598 62.5,384C 60.7954,377.668 59.9621,371.168 60,364.5C 59.2608,354.981 59.4275,345.481 60.5,336C 59.897,310.758 58.5636,285.591 56.5,260.5C 51.0431,260.755 45.7097,260.088 40.5,258.5C 39.2081,256.333 38.3747,254 38,251.5C 37.1445,240.123 37.4778,228.79 39,217.5C 43.4559,213.874 48.2892,210.874 53.5,208.5C 55.2267,199.24 56.56,189.907 57.5,180.5C 55.7193,171.208 50.386,164.708 41.5,161C 39.2389,158.228 37.7389,155.062 37,151.5C 36.3333,145.167 36.3333,138.833 37,132.5C 39.1446,128.697 42.3112,125.864 46.5,124C 53.3262,121.668 60.3262,120.168 67.5,119.5C 66.9705,115.207 67.9705,111.373 70.5,108C 69.552,107.517 68.552,107.351 67.5,107.5C 65.8828,93.0971 66.3828,78.7638 69,64.5C 70.3561,63.6198 71.8561,63.2865 73.5,63.5C 73.4047,56.2615 77.0713,52.5948 84.5,52.5C 82.7522,45.5867 81.4189,38.5867 80.5,31.5C 79.5873,26.7764 81.254,23.4431 85.5,21.5 Z M 148.5,141.5 C 150.288,141.215 151.955,141.548 153.5,142.5C 152.42,144.996 151.086,147.33 149.5,149.5C 147.712,147.424 146.046,145.257 144.5,143C 146.058,142.79 147.391,142.29 148.5,141.5 Z"/></g>
<g><path style="opacity:1" fill="#000000" d="M 88.5,24.5 C 93.8659,24.042 99.0325,24.7086 104,26.5C 107.092,35.7404 107.259,45.0737 104.5,54.5C 107.561,54.4443 109.728,55.7776 111,58.5C 111.684,68.88 113.184,79.0466 115.5,89C 115.561,90.7106 114.894,92.044 113.5,93C 115.392,93.9734 117.392,94.6401 119.5,95C 122.857,100.503 121.19,102.669 114.5,101.5C 114.579,102.93 114.246,104.264 113.5,105.5C 118.23,106.328 122.896,105.828 127.5,104C 134.5,101.589 139,103.756 141,110.5C 141.497,113.146 141.664,115.813 141.5,118.5C 198.642,114.856 255.809,111.522 313,108.5C 341.495,109.076 369.995,109.242 398.5,109C 400.167,109.333 401.833,109.667 403.5,110C 404.428,110.388 405.095,111.055 405.5,112C 404.667,113.5 403.5,114.667 402,115.5C 399.144,116.256 396.311,117.089 393.5,118C 368.817,119.951 344.15,120.784 319.5,120.5C 318.738,121.628 318.071,122.795 317.5,124C 308.282,124.316 299.115,125.149 290,126.5C 286.661,126.577 283.495,125.91 280.5,124.5C 268.163,125.572 255.83,126.738 243.5,128C 240.079,129.475 236.746,131.141 233.5,133C 221.169,133.702 208.835,134.368 196.5,135C 193,140.334 188.167,143.834 182,145.5C 181.667,148.167 181.333,150.833 181,153.5C 175.319,164.198 169.652,174.865 164,185.5C 160.796,188.369 157.963,191.535 155.5,195C 152.833,195.333 150.167,195.667 147.5,196C 155.178,203.525 159.511,212.691 160.5,223.5C 158.111,230.057 153.778,234.89 147.5,238C 149.867,243.291 150.7,248.791 150,254.5C 147.5,257 145,259.5 142.5,262C 140.527,262.495 138.527,262.662 136.5,262.5C 140.776,280.38 144.61,298.38 148,316.5C 151.052,340.486 153.385,364.486 155,388.5C 161.069,394.868 167.736,400.535 175,405.5C 176.57,412.518 173.736,416.018 166.5,416C 160.078,417.301 154.078,416.301 148.5,413C 143.231,411.894 137.897,411.227 132.5,411C 129.376,410.521 126.543,409.354 124,407.5C 123.183,402.855 123.683,398.355 125.5,394C 124.902,392.699 123.902,391.865 122.5,391.5C 119.183,370.961 117.016,350.295 116,329.5C 110.789,313.201 104.789,297.201 98,281.5C 98.1229,296.123 97.2896,310.623 95.5,325C 96.812,342.489 97.6454,359.989 98,377.5C 97.3109,378.357 96.4776,379.023 95.5,379.5C 94.3971,384.18 93.2305,388.847 92,393.5C 88.8333,396.667 85.6667,399.833 82.5,403C 76.6886,405.226 70.6886,405.892 64.5,405C 61.5715,401.743 60.7382,397.909 62,393.5C 64.4989,390.002 66.3323,386.168 67.5,382C 66.9019,380.699 65.9019,379.865 64.5,379.5C 64.1667,376.5 63.8333,373.5 63.5,370.5C 63.5919,344.844 63.0919,319.178 62,293.5C 59.3833,281.931 58.8833,270.264 60.5,258.5C 60.1667,257.5 59.8333,256.5 59.5,255.5C 57.808,256.969 55.808,257.635 53.5,257.5C 50.176,256.068 46.8427,255.401 43.5,255.5C 41.0538,249.778 40.0538,243.778 40.5,237.5C 40.5171,231.787 41.0171,226.12 42,220.5C 46.4559,216.874 51.2892,213.874 56.5,211.5C 58.1667,200.832 59.8334,190.166 61.5,179.5C 60.4225,174.933 58.7558,170.6 56.5,166.5C 51.3106,162.837 46.4773,158.837 42,154.5C 34.827,138.948 39.327,129.115 55.5,125C 60.4742,123.949 65.4742,123.115 70.5,122.5C 71.0378,116.352 72.0378,110.352 73.5,104.5C 72.5,104.5 71.5,104.5 70.5,104.5C 68.9511,92.0942 69.4511,79.7608 72,67.5C 73.3561,66.6198 74.8561,66.2865 76.5,66.5C 76.5555,58.7839 80.5555,55.1172 88.5,55.5C 87.4694,47.3763 85.8028,39.3763 83.5,31.5C 84.0141,28.3227 85.6807,25.9894 88.5,24.5 Z M 148.5,141.5 C 147.391,142.29 146.058,142.79 144.5,143C 146.046,145.257 147.712,147.424 149.5,149.5C 151.086,147.33 152.42,144.996 153.5,142.5C 151.955,141.548 150.288,141.215 148.5,141.5 Z"/></g>
<g><path style="opacity:1" fill="#fbfbf9" d="M 103.5,45.5 C 101.266,45.6199 99.0989,45.2865 97,44.5C 94.9534,45.6094 92.7867,46.2761 90.5,46.5C 89.5782,41.3996 88.2449,36.3996 86.5,31.5C 88.3335,28.5832 91.0002,27.2499 94.5,27.5C 97.0571,27.4423 99.3904,28.1089 101.5,29.5C 103.265,34.6688 103.932,40.0021 103.5,45.5 Z"/></g>
<g><path style="opacity:1" fill="#ec1c23" d="M 103.5,45.5 C 102.424,48.302 101.424,51.1354 100.5,54C 97.905,54.2256 95.405,54.7256 93,55.5C 91.8502,52.5823 91.0169,49.5823 90.5,46.5C 92.7867,46.2761 94.9534,45.6094 97,44.5C 99.0989,45.2865 101.266,45.6199 103.5,45.5 Z"/></g>
<g><path style="opacity:1" fill="#2c2c2c" d="M 79.5,72.5 C 78.5084,72.6716 77.8417,72.3382 77.5,71.5C 78.5036,67.992 80.1703,64.8253 82.5,62C 87.8758,59.7916 93.3758,57.9583 99,56.5C 102.5,57.3339 105.667,58.8339 108.5,61C 101.497,60.6665 94.4969,61.3332 87.5,63C 83.4952,65.1608 80.8286,68.3275 79.5,72.5 Z"/></g>
<g><path style="opacity:1" fill="#262626" d="M 109.5,81.5 C 110.501,88.0001 107.835,90.5001 101.5,89C 95.2663,83.9197 88.933,79.0864 82.5,74.5C 81.5265,69.5723 83.5265,66.0723 88.5,64C 95.1272,62.2359 101.794,61.7359 108.5,62.5C 109.11,68.8154 109.443,75.1487 109.5,81.5 Z"/></g>
<g><path style="opacity:1" fill="#fec90d" d="M 102.5,64.5 C 103.683,65.5045 105.016,66.3378 106.5,67C 102.993,69.7813 102.827,72.6146 106,75.5C 107.143,79.6095 106.477,83.2762 104,86.5C 98.6182,82.1625 98.1182,77.3292 102.5,72C 101.516,70.3435 100.516,68.6768 99.5,67C 100.942,66.6232 101.942,65.7899 102.5,64.5 Z"/></g>
<g><path style="opacity:1" fill="#fcfcfc" d="M 77.5,71.5 C 77.8417,72.3382 78.5084,72.6716 79.5,72.5C 79.9731,73.9063 80.9731,74.573 82.5,74.5C 88.933,79.0864 95.2663,83.9197 101.5,89C 107.835,90.5001 110.501,88.0001 109.5,81.5C 110.268,80.7375 110.768,79.7375 111,78.5C 111.333,78.8333 111.667,79.1667 112,79.5C 112.296,82.7058 112.796,85.8725 113.5,89C 112.239,90.9618 110.572,92.4618 108.5,93.5C 105.059,93.6989 101.726,93.1989 98.5,92C 91.424,87.5942 84.924,82.4276 79,76.5C 77.2539,81.781 77.0873,87.1143 78.5,92.5C 77.1667,92.5 75.8333,92.5 74.5,92.5C 74.6781,89.6781 75.3448,87.0115 76.5,84.5C 76.4805,83.2739 76.1471,82.2739 75.5,81.5C 75.2317,78.8806 75.565,76.3806 76.5,74C 74.5794,72.7592 74.246,71.2592 75.5,69.5C 76.1818,70.2427 76.8485,70.9094 77.5,71.5 Z"/></g>
<g><path style="opacity:1" fill="#222222" d="M 75.5,81.5 C 76.1471,82.2739 76.4805,83.2739 76.5,84.5C 75.3448,87.0115 74.6781,89.6781 74.5,92.5C 75.8333,92.5 77.1667,92.5 78.5,92.5C 77.0873,87.1143 77.2539,81.781 79,76.5C 84.924,82.4276 91.424,87.5942 98.5,92C 101.726,93.1989 105.059,93.6989 108.5,93.5C 110.963,95.9035 113.963,97.5701 117.5,98.5C 114.023,99.1672 110.689,99.8339 107.5,100.5C 106.791,101.404 105.791,101.737 104.5,101.5C 102.833,102.167 101.167,102.833 99.5,103.5C 99.38,102.414 98.7133,101.747 97.5,101.5C 96.5836,101.543 95.9169,101.876 95.5,102.5C 92.6122,101.99 90.2789,102.656 88.5,104.5C 88.5,105.167 88.5,105.833 88.5,106.5C 87.5655,105.432 87.2322,104.099 87.5,102.5C 86.1667,102.5 84.8333,102.5 83.5,102.5C 83.7947,104.735 83.4614,106.735 82.5,108.5C 82.7947,106.265 82.4614,104.265 81.5,102.5C 79.3619,101.192 77.3619,101.525 75.5,103.5C 73.4805,102.462 73.1472,101.128 74.5,99.5C 75.29,98.3915 75.79,97.0581 76,95.5C 76.4189,99.8518 77.0855,100.185 78,96.5C 78.9297,98.9659 79.763,98.7993 80.5,96C 80.3552,95.228 80.0219,94.5613 79.5,94C 77.5273,93.5045 75.5273,93.3379 73.5,93.5C 72.3415,87.9629 72.5082,82.2962 74,76.5C 74.1981,78.3817 74.6981,80.0484 75.5,81.5 Z"/></g>
<g><path style="opacity:1" fill="#fefffe" d="M 73.5,93.5 C 75.5273,93.3379 77.5273,93.5045 79.5,94C 80.0219,94.5613 80.3552,95.228 80.5,96C 79.763,98.7993 78.9297,98.9659 78,96.5C 77.0855,100.185 76.4189,99.8518 76,95.5C 75.79,97.0581 75.29,98.3915 74.5,99.5C 74.0133,98.5266 73.5133,97.5266 73,96.5C 72.3457,97.6956 71.8457,97.6956 71.5,96.5C 72.1925,95.4822 72.8592,94.4822 73.5,93.5 Z"/></g>
<g><path style="opacity:1" fill="#f4a786" d="M 107.5,100.5 C 108.222,100.918 108.722,101.584 109,102.5C 110.249,100.008 111.416,100.175 112.5,103C 111.809,104.067 111.309,105.234 111,106.5C 110.667,105.5 110.333,104.5 110,103.5C 109.217,105.433 109.717,106.933 111.5,108C 108.893,111.15 106.06,111.317 103,108.5C 102.833,108.833 102.667,109.167 102.5,109.5C 104.851,111.229 107.518,111.896 110.5,111.5C 110.5,112.833 110.5,114.167 110.5,115.5C 106.781,115.002 103.447,115.836 100.5,118C 103.642,116.978 106.975,116.478 110.5,116.5C 110.5,117.5 110.5,118.5 110.5,119.5C 110.167,119.5 109.833,119.5 109.5,119.5C 105.353,119.126 101.686,120.126 98.5,122.5C 96.5,122.5 94.5,122.5 92.5,122.5C 90.2341,122.859 88.4007,122.192 87,120.5C 86.5172,121.448 86.3505,122.448 86.5,123.5C 85.8333,123.167 85.1667,122.833 84.5,122.5C 83.8333,122.5 83.5,122.167 83.5,121.5C 82.1667,120.833 80.8333,120.167 79.5,119.5C 86.6258,119.637 86.9592,118.97 80.5,117.5C 81.6016,116.824 82.6016,116.158 83.5,115.5C 84.2216,115.082 84.7216,114.416 85,113.5C 87.7065,116.978 90.7065,117.311 94,114.5C 94.6667,113.833 94.6667,113.167 94,112.5C 91.932,110.604 90.0987,108.604 88.5,106.5C 88.5,105.833 88.5,105.167 88.5,104.5C 93.8198,107.425 98.8198,107.092 103.5,103.5C 104.558,104.6 105.392,105.934 106,107.5C 106.599,105.465 106.099,103.799 104.5,102.5C 104.5,102.167 104.5,101.833 104.5,101.5C 105.791,101.737 106.791,101.404 107.5,100.5 Z"/></g>
<g><path style="opacity:1" fill="#faa580" d="M 81.5,102.5 C 82.4614,104.265 82.7947,106.265 82.5,108.5C 81.9033,108.735 81.5699,109.235 81.5,110C 82.8561,111.567 83.5228,113.4 83.5,115.5C 82.0413,115.567 80.7079,115.234 79.5,114.5C 79.1667,113.5 78.5,112.833 77.5,112.5C 76.0712,109.692 75.4045,106.692 75.5,103.5C 77.3619,101.525 79.3619,101.192 81.5,102.5 Z"/></g>
<g><path style="opacity:1" fill="#fefffe" d="M 99.5,103.5 C 97.901,103.768 96.5676,103.434 95.5,102.5C 95.9169,101.876 96.5836,101.543 97.5,101.5C 98.7133,101.747 99.38,102.414 99.5,103.5 Z"/></g>
<g><path style="opacity:1" fill="#f77135" d="M 104.5,101.5 C 104.5,101.833 104.5,102.167 104.5,102.5C 103.833,102.5 103.5,102.833 103.5,103.5C 98.8198,107.092 93.8198,107.425 88.5,104.5C 90.2789,102.656 92.6122,101.99 95.5,102.5C 96.5676,103.434 97.901,103.768 99.5,103.5C 101.167,102.833 102.833,102.167 104.5,101.5 Z"/></g>
<g><path style="opacity:1" fill="#000000" d="M 81.5,102.5 C 80.1639,104.01 78.9973,105.677 78,107.5C 77.3599,104.632 78.5266,102.965 81.5,102.5 Z"/></g>
<g><path style="opacity:1" fill="#7b4a0e" d="M 88.5,106.5 C 90.0987,108.604 91.932,110.604 94,112.5C 94.6667,113.167 94.6667,113.833 94,114.5C 90.7065,117.311 87.7065,116.978 85,113.5C 84.7216,114.416 84.2216,115.082 83.5,115.5C 83.5228,113.4 82.8561,111.567 81.5,110C 81.5699,109.235 81.9033,108.735 82.5,108.5C 83.4614,106.735 83.7947,104.735 83.5,102.5C 84.8333,102.5 86.1667,102.5 87.5,102.5C 87.2322,104.099 87.5655,105.432 88.5,106.5 Z"/></g>
<g><path style="opacity:1" fill="#000000" d="M 103.5,103.5 C 103.5,102.833 103.833,102.5 104.5,102.5C 106.099,103.799 106.599,105.465 106,107.5C 105.392,105.934 104.558,104.6 103.5,103.5 Z"/></g>
<g><path style="opacity:1" fill="#7b7b7b" d="M 130.5,121.5 C 129.094,121.027 128.427,120.027 128.5,118.5C 128.751,114.751 129.417,111.085 130.5,107.5C 135.552,108.414 137.886,111.581 137.5,117C 136.898,120.922 134.565,122.422 130.5,121.5 Z"/></g>
<g><path style="opacity:1" fill="#757575" d="M 126.5,118.5 C 126.624,121.949 124.957,123.949 121.5,124.5C 120.833,123.833 120.167,123.167 119.5,122.5C 118.432,121.566 117.099,121.232 115.5,121.5C 115.648,117.739 116.648,114.239 118.5,111C 122.145,109.834 125.812,109.167 129.5,109C 128.185,112.081 127.185,115.247 126.5,118.5 Z"/></g>
<g><path style="opacity:1" fill="#eeefe1" d="M 110.5,119.5 C 111.833,116.833 111.833,114.167 110.5,111.5C 112.011,109.559 114.011,109.059 116.5,110C 114.488,113.548 113.488,117.381 113.5,121.5C 111.821,121.715 110.821,121.048 110.5,119.5 Z"/></g>
<g><path style="opacity:1" fill="#000000" d="M 110.5,111.5 C 111.833,114.167 111.833,116.833 110.5,119.5C 110.5,118.5 110.5,117.5 110.5,116.5C 106.975,116.478 103.642,116.978 100.5,118C 103.447,115.836 106.781,115.002 110.5,115.5C 110.5,114.167 110.5,112.833 110.5,111.5 Z"/></g>
<g><path style="opacity:1" fill="#fec90d" d="M 301.5,111.5 C 303.833,111.5 306.167,111.5 308.5,111.5C 307.901,116.919 310.234,120.085 315.5,121C 310.913,121.799 306.413,121.632 302,120.5C 300.433,117.606 300.267,114.606 301.5,111.5 Z"/></g>
<g><path style="opacity:1" fill="#c2c3c2" d="M 310.5,111.5 C 312.5,111.5 314.5,111.5 316.5,111.5C 313.946,119.146 311.946,119.146 310.5,111.5 Z"/></g>
<g><path style="opacity:1" fill="#c2c3c2" d="M 318.5,111.5 C 338.32,112.596 358.153,112.596 378,111.5C 384.935,111.37 391.768,111.87 398.5,113C 392.327,114.932 385.994,115.932 379.5,116C 362.323,116.66 345.157,117.493 328,118.5C 324.311,118.625 321.311,117.292 319,114.5C 318.517,113.552 318.351,112.552 318.5,111.5 Z"/></g>
<g><path style="opacity:1" fill="#797979" d="M 77.5,112.5 C 78.5,112.833 79.1667,113.5 79.5,114.5C 79.5,116.167 79.5,117.833 79.5,119.5C 78.5489,120.919 78.2155,122.585 78.5,124.5C 77.1667,124.5 75.8333,124.5 74.5,124.5C 74.3359,121.813 74.5026,119.146 75,116.5C 75.2004,114.68 76.0337,113.347 77.5,112.5 Z"/></g>
<g><path style="opacity:1" fill="#c2c3c2" d="M 290.5,114.5 C 278.976,114.511 267.642,115.178 256.5,116.5C 250.824,116.666 245.157,116.499 239.5,116C 259.473,114.178 279.473,113.178 299.5,113C 296.305,113.181 293.305,113.681 290.5,114.5 Z"/></g>
<g><path style="opacity:1" fill="#000000" d="M 79.5,114.5 C 80.7079,115.234 82.0413,115.567 83.5,115.5C 82.6016,116.158 81.6016,116.824 80.5,117.5C 86.9592,118.97 86.6258,119.637 79.5,119.5C 79.5,117.833 79.5,116.167 79.5,114.5 Z"/></g>
<g><path style="opacity:1" fill="#a46d4e" d="M 290.5,114.5 C 293.167,114.5 295.833,114.5 298.5,114.5C 298.5,115.833 298.5,117.167 298.5,118.5C 279.328,120.728 259.995,122.395 240.5,123.5C 240.5,121.5 240.5,119.5 240.5,117.5C 246.026,117.821 251.36,117.488 256.5,116.5C 267.642,115.178 278.976,114.511 290.5,114.5 Z"/></g>
<g><path style="opacity:1" fill="#fec90d" d="M 235.5,115.5 C 239.33,118.746 239.497,122.413 236,126.5C 235.501,122.848 235.335,119.182 235.5,115.5 Z"/></g>
<g><path style="opacity:1" fill="#c2c3c2" d="M 222.5,118.5 C 216.31,118.177 210.31,118.51 204.5,119.5C 200.486,119.666 196.486,119.499 192.5,119C 206.128,117.355 219.795,116.688 233.5,117C 229.644,117.177 225.977,117.677 222.5,118.5 Z"/></g>
<g><path style="opacity:1" fill="#c2c3c2" d="M 126.5,118.5 C 127.167,118.5 127.833,118.5 128.5,118.5C 128.427,120.027 129.094,121.027 130.5,121.5C 130.753,123.827 130.086,125.827 128.5,127.5C 129.355,128.293 130.189,127.96 131,126.5C 131.483,125.552 131.649,124.552 131.5,123.5C 133.734,123.62 135.901,123.287 138,122.5C 140.071,123.787 142.238,124.953 144.5,126C 142.449,128.02 140.116,129.52 137.5,130.5C 133.688,129.676 129.688,129.176 125.5,129C 123.356,128.208 122.023,126.708 121.5,124.5C 124.957,123.949 126.624,121.949 126.5,118.5 Z"/></g>
<g><path style="opacity:1" fill="#c2c3c2" d="M 185.5,120.5 C 180.305,120.179 175.305,120.513 170.5,121.5C 164.642,121.178 158.975,121.511 153.5,122.5C 150.223,122.216 147.057,122.549 144,123.5C 143.25,122.874 142.416,122.374 141.5,122C 157.163,120.451 172.83,119.451 188.5,119C 187.263,119.232 186.263,119.732 185.5,120.5 Z"/></g>
<g><path style="opacity:1" fill="#efa180" d="M 193.5,121.5 C 193.263,122.791 193.596,123.791 194.5,124.5C 194.854,128.637 194.354,132.637 193,136.5C 188.38,140.034 183.547,143.201 178.5,146C 176.866,146.494 175.199,146.66 173.5,146.5C 169.8,146.464 167.133,144.797 165.5,141.5C 165.749,138.256 167.416,136.256 170.5,135.5C 171.167,134.833 171.833,134.167 172.5,133.5C 173.404,132.791 173.737,131.791 173.5,130.5C 172.833,129.833 172.167,129.167 171.5,128.5C 173.751,127.135 175.751,127.469 177.5,129.5C 177.335,132.518 177.502,135.518 178,138.5C 180.633,135.424 181.133,132.091 179.5,128.5C 178.375,126.871 177.041,125.371 175.5,124C 182.072,123.579 184.905,126.746 184,133.5C 185,134.833 186,134.833 187,133.5C 188.245,129.235 187.078,125.902 183.5,123.5C 183.5,122.167 184.167,121.5 185.5,121.5C 186.5,123.167 187.833,124.5 189.5,125.5C 190.241,128.413 190.741,131.413 191,134.5C 191.81,130.642 191.643,126.976 190.5,123.5C 190.5,122.833 190.167,122.5 189.5,122.5C 189.238,121.022 189.571,119.689 190.5,118.5C 191.288,119.77 192.288,120.77 193.5,121.5 Z"/></g>
<g><path style="opacity:1" fill="#aa7050" d="M 222.5,118.5 C 226.167,118.5 229.833,118.5 233.5,118.5C 233.663,120.857 233.497,123.19 233,125.5C 231.769,124.892 230.436,124.559 229,124.5C 217.84,125.638 206.674,126.638 195.5,127.5C 195.737,126.209 195.404,125.209 194.5,124.5C 193.596,123.791 193.263,122.791 193.5,121.5C 197.167,120.833 200.833,120.167 204.5,119.5C 210.31,118.51 216.31,118.177 222.5,118.5 Z"/></g>
<g><path style="opacity:1" fill="#f77135" d="M 109.5,119.5 C 109.417,121.57 108.417,121.903 106.5,120.5C 103.978,121.762 101.311,122.429 98.5,122.5C 101.686,120.126 105.353,119.126 109.5,119.5 Z"/></g>
<g><path style="opacity:1" fill="#000000" d="M 92.5,122.5 C 92.5,122.833 92.5,123.167 92.5,123.5C 90.5,123.5 88.5,123.5 86.5,123.5C 86.3505,122.448 86.5172,121.448 87,120.5C 88.4007,122.192 90.2341,122.859 92.5,122.5 Z"/></g>
<g><path style="opacity:1" fill="#000000" d="M 170.5,121.5 C 175.305,120.513 180.305,120.179 185.5,120.5C 185.5,120.833 185.5,121.167 185.5,121.5C 184.167,121.5 183.5,122.167 183.5,123.5C 179.486,121.666 175.153,120.999 170.5,121.5 Z"/></g>
<g><path style="opacity:1" fill="#7b523c" d="M 185.5,120.5 C 187.199,120.527 188.533,121.194 189.5,122.5C 190.167,122.5 190.5,122.833 190.5,123.5C 190.672,124.492 190.338,125.158 189.5,125.5C 187.833,124.5 186.5,123.167 185.5,121.5C 185.5,121.167 185.5,120.833 185.5,120.5 Z"/></g>
<g><path style="opacity:1" fill="#c2c3c2" d="M 286.5,120.5 C 290.884,120.174 295.217,120.508 299.5,121.5C 295.276,123.08 290.942,123.58 286.5,123C 285.402,122.23 285.402,121.397 286.5,120.5 Z"/></g>
<g><path style="opacity:1" fill="#fef200" d="M 83.5,121.5 C 83.5,122.167 83.8333,122.5 84.5,122.5C 84.5,123.167 84.5,123.833 84.5,124.5C 81.1919,126.284 79.5253,125.284 79.5,121.5C 80.8333,121.5 82.1667,121.5 83.5,121.5 Z"/></g>
<g><path style="opacity:1" fill="#f9a985" d="M 119.5,122.5 C 120.167,123.167 120.833,123.833 121.5,124.5C 119.064,124.749 117.064,125.749 115.5,127.5C 118.234,130.532 121.568,132.532 125.5,133.5C 126.9,134.1 127.9,135.1 128.5,136.5C 127.833,136.5 127.5,136.833 127.5,137.5C 125.833,137.5 124.167,137.5 122.5,137.5C 122.158,136.662 121.492,136.328 120.5,136.5C 120.44,135.957 120.107,135.624 119.5,135.5C 118.21,137.792 116.543,139.792 114.5,141.5C 110.628,140.129 107.461,137.795 105,134.5C 104.257,131.18 103.09,128.013 101.5,125C 102.786,123.351 104.453,122.185 106.5,121.5C 110.765,122.439 115.098,122.772 119.5,122.5 Z"/></g>
<g><path style="opacity:1" fill="#946246" d="M 170.5,121.5 C 175.153,120.999 179.486,121.666 183.5,123.5C 187.078,125.902 188.245,129.235 187,133.5C 186,134.833 185,134.833 184,133.5C 184.905,126.746 182.072,123.579 175.5,124C 177.041,125.371 178.375,126.871 179.5,128.5C 179.663,130.857 179.497,133.19 179,135.5C 178.809,133.292 178.309,131.292 177.5,129.5C 175.751,127.469 173.751,127.135 171.5,128.5C 162.578,129.637 153.578,129.804 144.5,129C 146.527,127.604 146.86,125.938 145.5,124C 148.365,123.817 151.031,123.317 153.5,122.5C 158.975,121.511 164.642,121.178 170.5,121.5 Z"/></g>
<g><path style="opacity:1" fill="#000000" d="M 84.5,122.5 C 85.1667,122.833 85.8333,123.167 86.5,123.5C 86.5,123.833 86.5,124.167 86.5,124.5C 85.8333,124.5 85.1667,124.5 84.5,124.5C 84.5,123.833 84.5,123.167 84.5,122.5 Z"/></g>
<g><path style="opacity:1" fill="#fefefe" d="M 92.5,122.5 C 94.5,122.5 96.5,122.5 98.5,122.5C 99.4054,123.964 99.4054,125.298 98.5,126.5C 97.7261,127.147 96.7261,127.48 95.5,127.5C 92.3185,126.727 89.3185,125.727 86.5,124.5C 86.5,124.167 86.5,123.833 86.5,123.5C 88.5,123.5 90.5,123.5 92.5,123.5C 92.5,123.167 92.5,122.833 92.5,122.5 Z"/></g>
<g><path style="opacity:1" fill="#fef200" d="M 92.5,123.5 C 94.1992,123.34 95.8659,123.506 97.5,124C 95.549,126.065 93.8823,125.898 92.5,123.5 Z"/></g>
<g><path style="opacity:1" fill="#000000" d="M 190.5,123.5 C 191.643,126.976 191.81,130.642 191,134.5C 190.741,131.413 190.241,128.413 189.5,125.5C 190.338,125.158 190.672,124.492 190.5,123.5 Z"/></g>
<g><path style="opacity:1" fill="#fef200" d="M 84.5,124.5 C 85.1667,124.5 85.8333,124.5 86.5,124.5C 89.3185,125.727 92.3185,126.727 95.5,127.5C 96.7261,127.48 97.7261,127.147 98.5,126.5C 100.701,126.858 102.035,128.192 102.5,130.5C 102.376,131.107 102.043,131.44 101.5,131.5C 100.866,130.053 99.6991,129.387 98,129.5C 95.1333,129.839 92.6333,130.839 90.5,132.5C 89.391,132.443 88.391,132.11 87.5,131.5C 87.2503,129.326 86.2503,127.659 84.5,126.5C 84.5,125.833 84.5,125.167 84.5,124.5 Z"/></g>
<g><path style="opacity:1" fill="#78503a" d="M 121.5,124.5 C 122.023,126.708 123.356,128.208 125.5,129C 129.688,129.176 133.688,129.676 137.5,130.5C 134.114,133.232 130.114,134.232 125.5,133.5C 121.568,132.532 118.234,130.532 115.5,127.5C 117.064,125.749 119.064,124.749 121.5,124.5 Z"/></g>
<g><path style="opacity:1" fill="#dbdcc2" d="M 226.5,125.5 C 228.429,125.231 230.095,125.731 231.5,127C 222.203,128.398 212.87,128.732 203.5,128C 211.367,127.643 219.033,126.81 226.5,125.5 Z"/></g>
<g><path style="opacity:1" fill="#ea1c23" d="M 84.5,126.5 C 86.2503,127.659 87.2503,129.326 87.5,131.5C 87.756,135.269 87.4227,138.936 86.5,142.5C 85.609,143.11 84.609,143.443 83.5,143.5C 77.3575,142.728 71.5242,141.061 66,138.5C 62.7309,138.923 59.5642,139.756 56.5,141C 53.1667,141.667 49.8333,141.667 46.5,141C 45.2475,139.172 45.2475,137.339 46.5,135.5C 49.7367,132.046 53.7367,129.88 58.5,129C 67.0525,126.996 75.7192,126.163 84.5,126.5 Z"/></g>
<g><path style="opacity:1" fill="#000000" d="M 179.5,128.5 C 181.133,132.091 180.633,135.424 178,138.5C 177.502,135.518 177.335,132.518 177.5,129.5C 178.309,131.292 178.809,133.292 179,135.5C 179.497,133.19 179.663,130.857 179.5,128.5 Z"/></g>
<g><path style="opacity:1" fill="#dbdcc2" d="M 224.5,128.5 C 227.518,128.335 230.518,128.502 233.5,129C 232.833,129.333 232.167,129.667 231.5,130C 219.493,131.168 207.493,131.335 195.5,130.5C 205.325,129.833 214.992,129.167 224.5,128.5 Z"/></g>
<g><path style="opacity:1" fill="#fefefe" d="M 101.5,131.5 C 101.5,132.5 101.5,133.5 101.5,134.5C 101.389,135.117 101.056,135.617 100.5,136C 96.9733,136.808 93.6399,136.641 90.5,135.5C 90.0825,134.778 89.4158,134.278 88.5,134C 89.4158,133.722 90.0825,133.222 90.5,132.5C 92.6333,130.839 95.1333,129.839 98,129.5C 99.6991,129.387 100.866,130.053 101.5,131.5 Z"/></g>
<g><path style="opacity:1" fill="#dbdcc2" d="M 173.5,130.5 C 173.737,131.791 173.404,132.791 172.5,133.5C 162.008,132.67 151.341,132.17 140.5,132C 141,131.5 141.5,131 142,130.5C 152.47,131.801 162.97,131.801 173.5,130.5 Z"/></g>
<g><path style="opacity:1" fill="#000000" d="M 87.5,131.5 C 88.391,132.11 89.391,132.443 90.5,132.5C 90.0825,133.222 89.4158,133.722 88.5,134C 89.4158,134.278 90.0825,134.778 90.5,135.5C 88.6565,137.279 87.9898,139.612 88.5,142.5C 87.8333,142.5 87.1667,142.5 86.5,142.5C 87.4227,138.936 87.756,135.269 87.5,131.5 Z"/></g>
<g><path style="opacity:1" fill="#fef200" d="M 97.5,131.5 C 99.0481,131.821 99.7148,132.821 99.5,134.5C 94.3861,134.651 93.7194,133.651 97.5,131.5 Z"/></g>
<g><path style="opacity:1" fill="#fef200" d="M 102.5,142.5 C 102.116,139.95 100.616,138.617 98,138.5C 95.4541,138.859 93.2874,139.859 91.5,141.5C 90.391,141.557 89.391,141.89 88.5,142.5C 87.9898,139.612 88.6565,137.279 90.5,135.5C 93.6399,136.641 96.9733,136.808 100.5,136C 101.056,135.617 101.389,135.117 101.5,134.5C 102.222,134.082 102.722,133.416 103,132.5C 105.076,136.091 104.909,139.424 102.5,142.5 Z"/></g>
<g><path style="opacity:1" fill="#dbdcc2" d="M 172.5,133.5 C 171.833,134.167 171.167,134.833 170.5,135.5C 158.452,134.813 146.452,135.313 134.5,137C 135.126,136.25 135.626,135.416 136,134.5C 148.086,133.512 160.253,133.178 172.5,133.5 Z"/></g>
<g><path style="opacity:1" fill="#bababa" d="M 127.5,137.5 C 127.5,136.833 127.833,136.5 128.5,136.5C 132.596,133.449 133.763,134.116 132,138.5C 130.312,140.848 128.478,141.015 126.5,139C 127.056,138.617 127.389,138.117 127.5,137.5 Z"/></g>
<g><path style="opacity:1" fill="#ba0f16" d="M 46.5,135.5 C 45.2475,137.339 45.2475,139.172 46.5,141C 49.8333,141.667 53.1667,141.667 56.5,141C 59.5642,139.756 62.7309,138.923 66,138.5C 71.5242,141.061 77.3575,142.728 83.5,143.5C 83.0825,144.222 82.4158,144.722 81.5,145C 69.1625,145.695 56.8292,146.028 44.5,146C 43.3977,143.599 43.231,141.099 44,138.5C 44.2355,136.881 45.0689,135.881 46.5,135.5 Z"/></g>
<g><path style="opacity:1" fill="#b71016" d="M 120.5,136.5 C 121.492,136.328 122.158,136.662 122.5,137.5C 125.976,140.407 129.643,143.074 133.5,145.5C 131.432,146.741 129.265,147.741 127,148.5C 123.81,147.782 120.977,146.449 118.5,144.5C 118.64,142.876 117.973,141.71 116.5,141C 118.193,139.75 119.527,138.25 120.5,136.5 Z"/></g>
<g><path style="opacity:1" fill="#fefffe" d="M 159.5,137.5 C 160.873,137.343 162.207,137.51 163.5,138C 161.919,138.707 160.419,139.54 159,140.5C 157.077,144.088 155.244,147.754 153.5,151.5C 151.614,152.406 149.78,153.406 148,154.5C 144.917,149.412 141.083,144.912 136.5,141C 144.197,139.269 151.864,138.102 159.5,137.5 Z M 148.5,141.5 C 147.391,142.29 146.058,142.79 144.5,143C 146.046,145.257 147.712,147.424 149.5,149.5C 151.086,147.33 152.42,144.996 153.5,142.5C 151.955,141.548 150.288,141.215 148.5,141.5 Z"/></g>
<g><path style="opacity:1" fill="#eeefe1" d="M 106.5,138.5 C 108.522,140.456 110.855,141.956 113.5,143C 108.607,149.562 104.107,156.396 100,163.5C 97.2651,161.268 95.0984,158.601 93.5,155.5C 96.1406,151.193 99.4739,147.527 103.5,144.5C 104.513,142.473 105.513,140.473 106.5,138.5 Z"/></g>
<g><path style="opacity:1" fill="#fefefe" d="M 102.5,142.5 C 101.082,144.308 99.0821,144.975 96.5,144.5C 94.5853,144.784 92.9187,144.451 91.5,143.5C 91.5,142.833 91.5,142.167 91.5,141.5C 93.2874,139.859 95.4541,138.859 98,138.5C 100.616,138.617 102.116,139.95 102.5,142.5 Z"/></g>
<g><path style="opacity:1" fill="#fef200" d="M 96.5,140.5 C 97.5,140.5 98.5,140.5 99.5,140.5C 99.719,141.675 99.3857,142.675 98.5,143.5C 97.2054,142.902 95.8721,142.402 94.5,142C 95.4158,141.722 96.0825,141.222 96.5,140.5 Z"/></g>
<g><path style="opacity:1" fill="#000000" d="M 91.5,141.5 C 91.5,142.167 91.5,142.833 91.5,143.5C 90.209,143.737 89.209,143.404 88.5,142.5C 89.391,141.89 90.391,141.557 91.5,141.5 Z"/></g>
<g><path style="opacity:1" fill="#ba0f16" d="M 86.5,142.5 C 87.1667,142.5 87.8333,142.5 88.5,142.5C 89.209,143.404 90.209,143.737 91.5,143.5C 92.9187,144.451 94.5853,144.784 96.5,144.5C 96.9175,145.222 97.5842,145.722 98.5,146C 97,147.5 95.5,149 94,150.5C 91.295,147.964 88.795,145.297 86.5,142.5 Z"/></g>
<g><path style="opacity:1" fill="#eeefe1" d="M 114.5,142.5 C 115.117,142.611 115.617,142.944 116,143.5C 116.306,148.137 117.14,152.637 118.5,157C 117.552,157.483 116.552,157.649 115.5,157.5C 114.671,152.547 114.337,147.547 114.5,142.5 Z"/></g>
<g><path style="opacity:1" fill="#eb1b23" d="M 118.5,144.5 C 120.977,146.449 123.81,147.782 127,148.5C 129.265,147.741 131.432,146.741 133.5,145.5C 136.334,147.502 138.667,150.002 140.5,153C 138.004,154.08 135.67,155.414 133.5,157C 135.937,156.797 138.271,155.963 140.5,154.5C 146.499,158.524 147.332,163.191 143,168.5C 141.85,170.754 141.516,173.087 142,175.5C 143.993,171.535 145.993,167.535 148,163.5C 149.198,169.291 150.865,174.957 153,180.5C 152.46,172.867 151.96,165.201 151.5,157.5C 152.5,157.5 153.5,157.5 154.5,157.5C 153.962,163.402 154.795,169.068 157,174.5C 157.063,172.04 156.896,169.54 156.5,167C 156.336,164.456 157.003,162.29 158.5,160.5C 161.192,163.181 164.525,164.514 168.5,164.5C 165.283,176.033 158.95,185.366 149.5,192.5C 141.876,186.544 134.876,179.877 128.5,172.5C 128.337,170.143 128.503,167.81 129,165.5C 130.604,164.932 131.27,163.932 131,162.5C 128.498,163.108 126.498,164.441 125,166.5C 123.72,166.387 122.887,165.72 122.5,164.5C 123.929,162.669 124.429,160.669 124,158.5C 122.989,157.663 121.822,157.33 120.5,157.5C 119.319,153.257 118.652,148.924 118.5,144.5 Z"/></g>
<g><path style="opacity:1" fill="#ece006" d="M 165.5,141.5 C 167.133,144.797 169.8,146.464 173.5,146.5C 179.857,147.864 179.857,149.03 173.5,150C 175.167,150.333 176.833,150.667 178.5,151C 176.706,154.088 175.039,157.254 173.5,160.5C 171.604,161.466 169.604,161.799 167.5,161.5C 163.463,160.312 159.796,158.312 156.5,155.5C 157.367,152.092 158.533,148.758 160,145.5C 161.147,143.181 162.981,141.848 165.5,141.5 Z"/></g>
<g><path style="opacity:1" fill="#5a3130" d="M 84.5,145.5 C 87.3943,146.882 89.8943,148.882 92,151.5C 92.5,153.667 91.6667,154.5 89.5,154C 87.1255,151.961 85.1255,149.628 83.5,147C 84.056,146.617 84.3893,146.117 84.5,145.5 Z"/></g>
<g><path style="opacity:1" fill="#ba0f16" d="M 58.5,146.5 C 64.5092,146.334 70.5092,146.501 76.5,147C 67.3301,151.799 57.6635,153.965 47.5,153.5C 46.218,151.821 45.218,149.987 44.5,148C 49.3514,147.826 54.0181,147.326 58.5,146.5 Z"/></g>
<g><path style="opacity:1" fill="#eeefe1" d="M 80.5,147.5 C 82.6,150.104 84.9334,152.604 87.5,155C 84.979,157.22 82.8123,159.72 81,162.5C 78.1702,158.537 76.8369,154.204 77,149.5C 78.3024,148.915 79.469,148.249 80.5,147.5 Z"/></g>
<g><path style="opacity:1" fill="#ec1c23" d="M 111.5,149.5 C 112.266,151.684 112.933,154.018 113.5,156.5C 111.235,157.647 108.902,157.814 106.5,157C 108.301,154.557 109.968,152.057 111.5,149.5 Z"/></g>
<g><path style="opacity:1" fill="#ba0f16" d="M 72.5,150.5 C 74.0481,150.821 74.7148,151.821 74.5,153.5C 72.4727,153.662 70.4727,153.495 68.5,153C 70.0664,152.392 71.3998,151.558 72.5,150.5 Z"/></g>
<g><path style="opacity:1" fill="#b01216" d="M 62.5,155.5 C 62.1583,156.338 61.4916,156.672 60.5,156.5C 59.8365,158.042 59.1698,159.709 58.5,161.5C 50.4012,157.016 51.2346,154.683 61,154.5C 61.7648,154.57 62.2648,154.903 62.5,155.5 Z"/></g>
<g><path style="opacity:1" fill="#eeefe1" d="M 60.5,156.5 C 61.4916,156.672 62.1583,156.338 62.5,155.5C 66.787,154.861 71.1203,155.194 75.5,156.5C 76.1667,157.833 76.8333,159.167 77.5,160.5C 77,160.833 76.5,161.167 76,161.5C 72.0199,160.752 68.0199,160.086 64,159.5C 62.0922,159.285 60.9256,158.285 60.5,156.5 Z"/></g>
<g><path style="opacity:1" fill="#fefefe" d="M 156.5,155.5 C 159.796,158.312 163.463,160.312 167.5,161.5C 168.952,162.302 170.618,162.802 172.5,163C 171.099,163.41 169.766,163.91 168.5,164.5C 164.525,164.514 161.192,163.181 158.5,160.5C 157.205,159.512 155.872,158.512 154.5,157.5C 154.833,156.5 155.5,155.833 156.5,155.5 Z"/></g>
<g><path style="opacity:1" fill="#fec90d" d="M 88.5,156.5 C 92.6663,158.986 96.3329,162.319 99.5,166.5C 97.3779,170.887 94.0445,173.887 89.5,175.5C 86.1714,172.704 83.1714,169.537 80.5,166C 83.7537,163.253 86.4203,160.086 88.5,156.5 Z"/></g>
<g><path style="opacity:1" fill="#ba0f16" d="M 120.5,157.5 C 121.822,157.33 122.989,157.663 124,158.5C 124.429,160.669 123.929,162.669 122.5,164.5C 122.887,165.72 123.72,166.387 125,166.5C 126.498,164.441 128.498,163.108 131,162.5C 131.27,163.932 130.604,164.932 129,165.5C 128.503,167.81 128.337,170.143 128.5,172.5C 122.562,169.342 119.895,164.342 120.5,157.5 Z"/></g>
<g><path style="opacity:1" fill="#000000" d="M 154.5,157.5 C 155.872,158.512 157.205,159.512 158.5,160.5C 157.003,162.29 156.336,164.456 156.5,167C 156.896,169.54 157.063,172.04 157,174.5C 154.795,169.068 153.962,163.402 154.5,157.5 Z"/></g>
<g><path style="opacity:1" fill="#eeefe1" d="M 104.5,159.5 C 108.846,159.334 113.179,159.501 117.5,160C 117.957,160.414 118.291,160.914 118.5,161.5C 113.533,162.662 108.533,162.829 103.5,162C 104.252,161.329 104.586,160.496 104.5,159.5 Z"/></g>
<g><path style="opacity:1" fill="#eeefe1" d="M 61.5,161.5 C 62.8333,161.5 64.1667,161.5 65.5,161.5C 65.0675,169.041 63.4009,169.708 60.5,163.5C 60.8627,162.817 61.1961,162.15 61.5,161.5 Z"/></g>
<g><path style="opacity:1" fill="#ec1c23" d="M 67.5,162.5 C 71.6447,162.33 75.6447,162.997 79.5,164.5C 78.2889,165.72 78.2889,166.887 79.5,168C 74.2952,174.908 69.4618,182.074 65,189.5C 65.4233,184.466 65.2566,179.466 64.5,174.5C 65.5992,170.452 66.5992,166.452 67.5,162.5 Z"/></g>
<g><path style="opacity:1" fill="#ec1c23" d="M 105.5,164.5 C 108.5,164.5 111.5,164.5 114.5,164.5C 115.159,169.287 115.993,173.954 117,178.5C 115.855,175.523 113.688,173.856 110.5,173.5C 108.555,170.607 106.889,167.607 105.5,164.5 Z"/></g>
<g><path style="opacity:1" fill="#eeefe1" d="M 116.5,164.5 C 117.5,164.5 118.5,164.5 119.5,164.5C 120.287,170.149 121.621,175.649 123.5,181C 121.591,181.448 120.424,180.615 120,178.5C 118.26,173.965 117.094,169.298 116.5,164.5 Z"/></g>
<g><path style="opacity:1" fill="#5a3130" d="M 108.5,176.5 C 107.883,176.611 107.383,176.944 107,177.5C 104.833,174.667 102.667,171.833 100.5,169C 101.071,167.795 101.738,166.628 102.5,165.5C 105.307,168.784 107.307,172.451 108.5,176.5 Z"/></g>
<g><path style="opacity:1" fill="#eeefe1" d="M 112.5,200.5 C 105.116,193.45 98.4494,185.783 92.5,177.5C 94.5755,175.281 96.9088,173.281 99.5,171.5C 109.268,181.609 116.602,193.275 121.5,206.5C 121.333,206.833 121.167,207.167 121,207.5C 118.564,204.553 115.731,202.22 112.5,200.5 Z"/></g>
<g><path style="opacity:1" fill="#fec90d" d="M 114.5,178.5 C 115.625,179.348 115.625,180.348 114.5,181.5C 113.508,181.328 112.842,181.662 112.5,182.5C 109.708,181.608 108.375,179.608 108.5,176.5C 109.93,176.579 111.264,176.246 112.5,175.5C 113.919,176.005 114.585,177.005 114.5,178.5 Z"/></g>
<g><path style="opacity:1" fill="#a71315" d="M 89.5,178.5 C 88.4617,180.519 87.1284,180.853 85.5,179.5C 86.7046,177.862 88.0379,177.529 89.5,178.5 Z"/></g>
<g><path style="opacity:1" fill="#4f4225" d="M 92.5,177.5 C 98.4494,185.783 105.116,193.45 112.5,200.5C 115.129,203.631 117.962,206.631 121,209.5C 121.773,211.352 121.273,212.686 119.5,213.5C 113.473,208.14 107.806,202.473 102.5,196.5C 102.167,195.5 101.5,194.833 100.5,194.5C 100.672,193.508 100.338,192.842 99.5,192.5C 99.1667,191.5 98.5,190.833 97.5,190.5C 96.4107,188.883 94.744,188.05 92.5,188C 93.624,187.751 94.624,187.251 95.5,186.5C 94.4699,186.446 93.3033,186.112 92,185.5C 91.3162,184.216 91.4829,183.049 92.5,182C 91.695,180.887 91.0283,179.721 90.5,178.5C 90.8417,177.662 91.5084,177.328 92.5,177.5 Z"/></g>
<g><path style="opacity:1" fill="#000000" d="M 114.5,178.5 C 113.573,180.476 112.24,180.809 110.5,179.5C 111.437,177.358 112.77,177.024 114.5,178.5 Z"/></g>
<g><path style="opacity:1" fill="#fefefe" d="M 85.5,179.5 C 87.1284,180.853 88.4617,180.519 89.5,178.5C 89.8333,178.5 90.1667,178.5 90.5,178.5C 91.0283,179.721 91.695,180.887 92.5,182C 91.4829,183.049 91.3162,184.216 92,185.5C 93.3033,186.112 94.4699,186.446 95.5,186.5C 94.624,187.251 93.624,187.751 92.5,188C 94.744,188.05 96.4107,188.883 97.5,190.5C 96.1418,190.822 94.4752,190.822 92.5,190.5C 92.3433,191.873 92.51,193.207 93,194.5C 94.7889,192.771 96.9556,192.104 99.5,192.5C 100.338,192.842 100.672,193.508 100.5,194.5C 101.5,194.833 102.167,195.5 102.5,196.5C 101.504,197.665 100.171,198.332 98.5,198.5C 96.5466,197.844 94.5466,197.511 92.5,197.5C 91.2072,199.364 91.2072,201.364 92.5,203.5C 93.1067,203.376 93.44,203.043 93.5,202.5C 95.9654,201.583 98.4654,200.583 101,199.5C 108.333,202.167 108.333,204.833 101,207.5C 98.6005,207.198 96.4338,206.532 94.5,205.5C 93.528,204.249 92.8614,204.582 92.5,206.5C 92.5427,207.416 92.8761,208.083 93.5,208.5C 99.8476,209.469 106.181,210.636 112.5,212C 116.748,213.413 119.415,216.246 120.5,220.5C 121.264,223.018 122.264,225.351 123.5,227.5C 123.869,229.993 123.203,230.66 121.5,229.5C 119.608,217.614 112.608,211.947 100.5,212.5C 96.3656,211.515 92.0323,211.182 87.5,211.5C 80.9298,210.107 74.2631,210.274 67.5,212C 65.8588,213.129 64.8588,214.629 64.5,216.5C 63.6753,220.647 63.1753,224.981 63,229.5C 61.9826,224.765 61.816,220.098 62.5,215.5C 61.0572,206.115 62.5572,197.115 67,188.5C 71.2807,181.885 75.9474,175.552 81,169.5C 82.093,171.349 83.4263,173.016 85,174.5C 84.904,176.381 85.0707,178.047 85.5,179.5 Z"/></g>
<g><path style="opacity:1" fill="#593030" d="M 114.5,181.5 C 117.487,184.246 120.153,187.413 122.5,191C 129.5,196.667 136.5,202.333 143.5,208C 142.667,208.833 141.833,209.667 141,210.5C 131.318,202.48 121.984,194.147 113,185.5C 112.517,184.552 112.351,183.552 112.5,182.5C 112.842,181.662 113.508,181.328 114.5,181.5 Z"/></g>
<g><path style="opacity:1" fill="#fefffe" d="M 131.5,181.5 C 134.631,184.129 137.631,186.962 140.5,190C 137.006,190.861 134.673,189.528 133.5,186C 130.428,185.544 127.428,185.544 124.5,186C 124.167,185.667 123.833,185.333 123.5,185C 126.666,184.678 129.333,183.511 131.5,181.5 Z"/></g>
<g><path style="opacity:1" fill="#b71016" d="M 81.5,181.5 C 84.0761,182.056 86.7428,182.223 89.5,182C 91.1179,184.8 90.2845,186.3 87,186.5C 84.2758,186.197 81.7758,185.364 79.5,184C 80.3805,183.292 81.0472,182.458 81.5,181.5 Z"/></g>
<g><path style="opacity:1" fill="#ba0f16" d="M 79.5,186.5 C 82.1267,187.105 84.7934,187.605 87.5,188C 85.1093,188.287 82.7759,188.787 80.5,189.5C 79.6143,188.675 79.281,187.675 79.5,186.5 Z"/></g>
<g><path style="opacity:1" fill="#000000" d="M 78.5,190.5 C 71.8508,195.006 67.1842,201.172 64.5,209C 64.8361,210.03 65.5028,210.53 66.5,210.5C 64.9263,211.984 63.593,213.651 62.5,215.5C 62.2434,210.003 63.7434,205.003 67,200.5C 69.9504,195.882 73.2838,191.548 77,187.5C 78.0386,188.244 78.5386,189.244 78.5,190.5 Z"/></g>
<g><path style="opacity:1" fill="#7e7f7e" d="M 133.5,195.5 C 133.167,195.5 132.833,195.5 132.5,195.5C 130.388,194.56 128.388,193.394 126.5,192C 127.667,190.833 128.833,189.667 130,188.5C 131.262,190.784 132.428,193.118 133.5,195.5 Z"/></g>
<g><path style="opacity:1" fill="#ec1c23" d="M 78.5,190.5 C 81.962,190.94 85.6287,190.94 89.5,190.5C 89.5,191.833 89.5,193.167 89.5,194.5C 86.4196,194.252 83.4196,193.586 80.5,192.5C 75.0743,195.087 75.241,197.42 81,199.5C 83.7236,198.313 86.5569,197.647 89.5,197.5C 89.5,198.833 89.5,200.167 89.5,201.5C 87.8333,201.5 86.1667,201.5 84.5,201.5C 81.3165,199.812 78.6498,200.479 76.5,203.5C 76.9767,204.478 77.6433,205.311 78.5,206C 82.389,205.252 86.389,204.752 90.5,204.5C 90.5,205.833 90.5,207.167 90.5,208.5C 84.8546,207.613 79.188,207.446 73.5,208C 70.8091,208.156 68.4758,208.989 66.5,210.5C 65.5028,210.53 64.8361,210.03 64.5,209C 67.1842,201.172 71.8508,195.006 78.5,190.5 Z"/></g>
<g><path style="opacity:1" fill="#ec1c23" d="M 97.5,190.5 C 98.5,190.833 99.1667,191.5 99.5,192.5C 96.9556,192.104 94.7889,192.771 93,194.5C 92.51,193.207 92.3433,191.873 92.5,190.5C 94.4752,190.822 96.1418,190.822 97.5,190.5 Z"/></g>
<g><path style="opacity:1" fill="#ba0f16" d="M 79.5,194.5 C 81.1789,194.892 82.8455,195.392 84.5,196C 81.7415,198.368 80.0748,197.868 79.5,194.5 Z"/></g>
<g><path style="opacity:1" fill="#ba0f16" d="M 100.5,194.5 C 99.2233,196.914 97.5566,197.081 95.5,195C 97.1341,194.506 98.8008,194.34 100.5,194.5 Z"/></g>
<g><path style="opacity:1" fill="#00a1e8" d="M 132.5,195.5 C 132.833,195.5 133.167,195.5 133.5,195.5C 135.195,196.011 136.861,196.678 138.5,197.5C 139.93,200.433 141.93,202.933 144.5,205C 144.167,205.167 143.833,205.333 143.5,205.5C 139.787,202.116 136.121,198.783 132.5,195.5 Z"/></g>
<g><path style="opacity:1" fill="#00a1e8" d="M 139.5,195.5 C 148.03,202.237 153.197,210.904 155,221.5C 150.566,212.282 145.399,203.615 139.5,195.5 Z"/></g>
<g><path style="opacity:1" fill="#ec1c23" d="M 102.5,196.5 C 107.806,202.473 113.473,208.14 119.5,213.5C 119.989,214.995 120.655,216.329 121.5,217.5C 121.737,218.791 121.404,219.791 120.5,220.5C 119.415,216.246 116.748,213.413 112.5,212C 106.181,210.636 99.8476,209.469 93.5,208.5C 93.2627,207.209 93.596,206.209 94.5,205.5C 96.4338,206.532 98.6005,207.198 101,207.5C 108.333,204.833 108.333,202.167 101,199.5C 98.4654,200.583 95.9654,201.583 93.5,202.5C 92.5489,201.081 92.2155,199.415 92.5,197.5C 94.5466,197.511 96.5466,197.844 98.5,198.5C 100.171,198.332 101.504,197.665 102.5,196.5 Z"/></g>
<g><path style="opacity:1" fill="#000000" d="M 89.5,197.5 C 90.4511,198.919 90.7845,200.585 90.5,202.5C 88.2646,202.795 86.2646,202.461 84.5,201.5C 86.1667,201.5 87.8333,201.5 89.5,201.5C 89.5,200.167 89.5,198.833 89.5,197.5 Z"/></g>
<g><path style="opacity:1" fill="#000000" d="M 92.5,197.5 C 92.2155,199.415 92.5489,201.081 93.5,202.5C 93.44,203.043 93.1067,203.376 92.5,203.5C 91.2072,201.364 91.2072,199.364 92.5,197.5 Z"/></g>
<g><path style="opacity:1" fill="#fefffe" d="M 123.5,200.5 C 125.728,201.322 126.395,202.655 125.5,204.5C 123.889,203.68 123.222,202.346 123.5,200.5 Z"/></g>
<g><path style="opacity:1" fill="#ba0f16" d="M 99.5,201.5 C 101.681,201.284 103.347,202.117 104.5,204C 101.634,205.252 98.6338,205.252 95.5,204C 97.3197,203.8 98.653,202.966 99.5,201.5 Z"/></g>
<g><path style="opacity:1" fill="#ba0f16" d="M 79.5,202.5 C 84.0214,202.326 84.3548,202.993 80.5,204.5C 79.7025,204.043 79.3691,203.376 79.5,202.5 Z"/></g>
<g><path style="opacity:1" fill="#000000" d="M 94.5,205.5 C 93.596,206.209 93.2627,207.209 93.5,208.5C 92.8761,208.083 92.5427,207.416 92.5,206.5C 92.8614,204.582 93.528,204.249 94.5,205.5 Z"/></g>
<g><path style="opacity:1" fill="#00a1e8" d="M 130.5,204.5 C 131.794,205.29 132.961,206.29 134,207.5C 138.765,215.198 142.598,223.365 145.5,232C 144.668,232.688 144.002,232.521 143.5,231.5C 139.925,222.02 135.591,213.02 130.5,204.5 Z"/></g>
<g><path style="opacity:1" fill="#00a1e8" d="M 144.5,206.5 C 148.517,212.016 152.184,217.85 155.5,224C 153.654,227.179 151.154,229.679 148,231.5C 145.004,228.175 143.004,224.175 142,219.5C 140.245,215.99 138.578,212.657 137,209.5C 141.541,213.929 144.041,212.929 144.5,206.5 Z"/></g>
<g><path style="opacity:1" fill="#7e7e7e" d="M 87.5,211.5 C 90.2869,212.477 93.2869,212.81 96.5,212.5C 95.8592,226.356 94.8592,240.19 93.5,254C 93.5417,257.251 93.875,260.417 94.5,263.5C 95.1599,264.964 95.4932,266.631 95.5,268.5C 92.7419,279.801 92.0752,291.301 93.5,303C 93.4907,304.404 92.9907,305.57 92,306.5C 90.9975,328.078 91.8309,349.578 94.5,371C 94.0566,372.825 93.7233,374.658 93.5,376.5C 85.0788,374.909 76.7454,375.243 68.5,377.5C 67.6062,369.019 66.9396,360.519 66.5,352C 66.7793,334.325 67.1126,316.659 67.5,299C 65.7846,290.209 64.4513,281.376 63.5,272.5C 63.5733,266.394 64.4066,260.394 66,254.5C 67.8006,257.163 70.3006,258.997 73.5,260C 79.4332,261.546 85.4332,262.213 91.5,262C 85.2637,260.21 78.9303,258.876 72.5,258C 70.04,256.542 67.8734,254.709 66,252.5C 64.585,240.562 64.085,228.562 64.5,216.5C 64.8588,214.629 65.8588,213.129 67.5,212C 74.2631,210.274 80.9298,210.107 87.5,211.5 Z"/></g>
<g><path style="opacity:1" fill="#7e7e7e" d="M 100.5,212.5 C 112.608,211.947 119.608,217.614 121.5,229.5C 124.892,238.837 128.392,248.171 132,257.5C 132.333,261.833 132.667,266.167 133,270.5C 143.361,308.197 149.194,346.531 150.5,385.5C 144.564,386.085 138.73,387.085 133,388.5C 132.667,388.167 132.333,387.833 132,387.5C 128.944,364.488 125.944,341.488 123,318.5C 120,311.833 117,305.167 114,298.5C 112.595,297.269 111.429,295.936 110.5,294.5C 108.493,286.442 105.16,279.109 100.5,272.5C 100.573,270.973 99.9063,269.973 98.5,269.5C 98.272,267.645 98.9387,266.812 100.5,267C 103.842,270.009 106.842,273.343 109.5,277C 110.5,277.667 111.5,277.667 112.5,277C 109.158,273.991 106.158,270.657 103.5,267C 101.083,265.374 98.5829,263.874 96,262.5C 96.6812,245.857 97.1812,229.19 97.5,212.5C 98.5,212.5 99.5,212.5 100.5,212.5 Z"/></g>
<g><path style="opacity:1" fill="#000000" d="M 70.5,215.5 C 74.1861,223.374 80.5194,227.874 89.5,229C 82.5962,229.135 76.7629,226.635 72,221.5C 70.872,219.655 70.372,217.655 70.5,215.5 Z"/></g>
<g><path style="opacity:1" fill="#726435" d="M 139.5,256.5 C 135.622,246.407 131.455,236.407 127,226.5C 125.643,223.102 123.81,220.102 121.5,217.5C 121.369,216.624 121.702,215.957 122.5,215.5C 123.814,216.313 124.981,217.313 126,218.5C 128.196,223.42 130.196,228.42 132,233.5C 131.35,225.217 128.184,218.05 122.5,212C 122.585,210.893 122.919,209.893 123.5,209C 128.316,205.094 131.483,206.261 133,212.5C 135.599,218.799 138.099,225.133 140.5,231.5C 139.14,235.236 136.807,237.236 133.5,237.5C 133.833,238.5 134.5,239.167 135.5,239.5C 137.817,237.684 139.984,235.684 142,233.5C 143.033,239.297 144.533,244.964 146.5,250.5C 144.741,253.266 142.407,255.266 139.5,256.5 Z"/></g>
<g><path style="opacity:1" fill="#000000" d="M 112.5,218.5 C 113.552,218.351 114.552,218.517 115.5,219C 112.833,221 110.167,223 107.5,225C 104.833,225.667 102.167,225.667 99.5,225C 105.086,225.229 109.419,223.062 112.5,218.5 Z"/></g>
<g><path style="opacity:1" fill="#000000" d="M 65.5,221.5 C 65.8966,220.475 66.5632,220.308 67.5,221C 69.8706,223.706 72.5372,226.039 75.5,228C 74.8333,228.667 74.1667,228.667 73.5,228C 70.6693,225.999 68.0026,223.833 65.5,221.5 Z"/></g>
<g><path style="opacity:1" fill="#2b2b2b" d="M 46.5,240.5 C 46.6653,244.182 46.4986,247.848 46,251.5C 44.883,250.051 44.2163,248.384 44,246.5C 43.3533,238.811 43.52,231.144 44.5,223.5C 47.5983,223.587 47.9316,223.087 45.5,222C 49.4659,218.868 53.7992,216.368 58.5,214.5C 59.7671,219.65 60.4338,224.65 60.5,229.5C 56.0141,231.406 51.3474,232.74 46.5,233.5C 45.6323,227.011 48.299,224.511 54.5,226C 59.0736,229.216 59.407,228.883 55.5,225C 47.4818,222.682 44.1484,225.682 45.5,234C 45.5039,236.361 45.8373,238.527 46.5,240.5 Z"/></g>
<g><path style="opacity:1" fill="#584e2b" d="M 121.5,217.5 C 123.81,220.102 125.643,223.102 127,226.5C 131.455,236.407 135.622,246.407 139.5,256.5C 139.03,257.693 138.03,258.36 136.5,258.5C 135.5,258.167 134.5,257.833 133.5,257.5C 129.046,247.473 125.713,237.473 123.5,227.5C 122.264,225.351 121.264,223.018 120.5,220.5C 121.404,219.791 121.737,218.791 121.5,217.5 Z"/></g>
<g><path style="opacity:1" fill="#fec90d" d="M 135.5,229.5 C 137.76,230.238 137.927,231.238 136,232.5C 134.272,231.648 134.105,230.648 135.5,229.5 Z"/></g>
<g><path style="opacity:1" fill="#2c2c2c" d="M 46.5,240.5 C 46.5,238.5 46.5,236.5 46.5,234.5C 51.0832,234.472 55.2498,233.139 59,230.5C 59.6667,243.833 60.3333,243.833 61,230.5C 63.258,236.309 63.9246,242.309 63,248.5C 60.5523,251.64 57.3856,253.64 53.5,254.5C 51.2723,253.781 49.439,252.448 48,250.5C 47.8213,246.975 47.3213,243.641 46.5,240.5 Z"/></g>
<g><path style="opacity:1" fill="#000000" d="M 78.5,245.5 C 82.2777,247.72 85.9444,250.887 89.5,255C 85.1573,252.839 81.4906,249.672 78.5,245.5 Z"/></g>
<g><path style="opacity:1" fill="#000000" d="M 112.5,249.5 C 113.562,247.243 115.228,246.077 117.5,246C 116.211,247.802 114.544,248.969 112.5,249.5 Z"/></g>
<g><path style="opacity:1" fill="#000000" d="M 112.5,249.5 C 107.959,253.603 102.626,255.77 96.5,256C 101.958,254.103 107.291,251.936 112.5,249.5 Z"/></g>
<g><path style="opacity:1" fill="#000000" d="M 94.5,263.5 C 92.2095,267.17 88.8762,269.67 84.5,271C 82.2462,272.15 79.9129,272.484 77.5,272C 83.7781,270.194 89.4448,267.361 94.5,263.5 Z"/></g>
<g><path style="opacity:1" fill="#686868" d="M 98.5,269.5 C 99.9063,269.973 100.573,270.973 100.5,272.5C 103.649,279.96 106.982,287.294 110.5,294.5C 115.455,304.088 119.621,314.088 123,324.5C 125.224,344.852 127.724,365.185 130.5,385.5C 130.199,388.489 128.532,389.822 125.5,389.5C 125.457,386.133 125.79,382.799 126.5,379.5C 122.581,362.054 120.415,344.388 120,326.5C 113.711,306.282 105.877,286.782 96.5,268C 96.6667,267.167 96.8333,266.333 97,265.5C 97.21,267.058 97.71,268.391 98.5,269.5 Z"/></g>
<g><path style="opacity:1" fill="#000000" d="M 100.5,272.5 C 105.16,279.109 108.493,286.442 110.5,294.5C 106.982,287.294 103.649,279.96 100.5,272.5 Z"/></g>
<g><path style="opacity:1" fill="#343534" d="M 77.5,377.5 C 81.8566,377.586 86.19,377.92 90.5,378.5C 90.477,380.927 89.977,383.26 89,385.5C 85.8756,387.311 82.709,388.978 79.5,390.5C 76.3087,389.825 73.3087,388.658 70.5,387C 72.0774,384.043 71.7441,381.376 69.5,379C 72.3647,378.817 75.0314,378.317 77.5,377.5 Z"/></g>
<g><path style="opacity:1" fill="#1d1e1d" d="M 87.5,387.5 C 88.5735,388.251 88.7401,389.251 88,390.5C 85.1667,393.333 82.3333,396.167 79.5,399C 65.2586,404.106 62.4253,400.606 71,388.5C 76.9179,392.809 82.4179,392.476 87.5,387.5 Z"/></g>
<g><path style="opacity:1" fill="#343534" d="M 151.5,397.5 C 147.429,398.184 143.429,399.184 139.5,400.5C 137.591,399.652 135.591,399.318 133.5,399.5C 132.432,398.566 131.099,398.232 129.5,398.5C 129.5,395.833 129.5,393.167 129.5,390.5C 135.891,389.824 142.225,388.824 148.5,387.5C 149.977,390.14 151.644,392.64 153.5,395C 152.944,396.011 152.278,396.844 151.5,397.5 Z"/></g>
<g><path style="opacity:1" fill="#1c1c1c" d="M 133.5,399.5 C 135.591,399.318 137.591,399.652 139.5,400.5C 143.429,399.184 147.429,398.184 151.5,397.5C 153.226,397.185 154.893,397.019 156.5,397C 161.187,401.024 165.854,405.024 170.5,409C 170.095,409.945 169.428,410.612 168.5,411C 165.845,411.564 163.179,412.064 160.5,412.5C 156.177,411.007 151.844,409.507 147.5,408C 142.103,407.773 136.769,407.106 131.5,406C 128.118,405.278 127.118,403.445 128.5,400.5C 130.045,399.548 131.712,399.215 133.5,399.5 Z"/></g>
</svg>
