<?xml version="1.0" encoding="UTF-8"?>
<!DOCTYPE svg PUBLIC "-//W3C//DTD SVG 1.1//EN" "http://www.w3.org/Graphics/SVG/1.1/DTD/svg11.dtd">
<svg xmlns="http://www.w3.org/2000/svg" version="1.1" width="600px" height="600px" style="shape-rendering:geometricPrecision; text-rendering:geometricPrecision; image-rendering:optimizeQuality; fill-rule:evenodd; clip-rule:evenodd" xmlns:xlink="http://www.w3.org/1999/xlink">
<g><path style="opacity:1" fill="#fefefe" d="M 77.5,68.5 C 84.175,68.3337 90.8417,68.5004 97.5,69C 117,88.5 136.5,108 156,127.5C 156.333,131.5 156.667,135.5 157,139.5C 188.6,171.556 220.767,203.056 253.5,234C 260.854,232.403 265.021,235.237 266,242.5C 269.93,246.219 273.764,250.053 277.5,254C 278.931,254.465 280.097,255.299 281,256.5C 282.46,246.366 287.293,238.199 295.5,232C 293.798,229.765 292.798,227.265 292.5,224.5C 289.15,224.665 285.817,224.498 282.5,224C 281.069,223.535 279.903,222.701 279,221.5C 279.955,213.993 277.288,208.327 271,204.5C 269.662,199.994 270.829,196.327 274.5,193.5C 270.847,192.677 267.68,191.011 265,188.5C 264.056,185.653 264.556,183.153 266.5,181C 270.538,178.738 274.871,177.238 279.5,176.5C 280.257,166.781 281.423,157.114 283,147.5C 284.852,142.977 287.518,138.977 291,135.5C 296.78,134.853 302.613,134.186 308.5,133.5C 309.98,128.245 311.147,122.911 312,117.5C 313.167,115 315,113.167 317.5,112C 333.874,109.372 341.874,116.372 341.5,133C 340.875,140.658 339.542,148.158 337.5,155.5C 343.917,159.152 346.25,164.652 344.5,172C 344.333,175.5 344.167,179 344,182.5C 342.798,187.752 341.631,193.086 340.5,198.5C 343.446,199.655 346.446,199.821 349.5,199C 356.5,197.333 363.5,195.667 370.5,194C 376.833,193.333 383.167,193.333 389.5,194C 391.705,196.54 394.205,198.707 397,200.5C 397.253,203.79 398.253,206.79 400,209.5C 400.811,216.414 400.645,223.248 399.5,230C 403.19,237.398 406.69,244.898 410,252.5C 411.161,253.995 412.327,255.495 413.5,257C 414.974,263.11 417.14,268.943 420,274.5C 420.667,280.833 420.667,287.167 420,293.5C 416.833,294 415,295.833 414.5,299C 411.816,299.778 409.483,301.111 407.5,303C 410.637,303.601 413.637,304.601 416.5,306C 422.535,313.094 428.035,320.594 433,328.5C 433.793,334.885 433.626,341.218 432.5,347.5C 431.315,348.853 429.981,350.02 428.5,351C 424.546,352.154 420.546,352.987 416.5,353.5C 414.159,358.021 412.492,362.855 411.5,368C 413.915,375.99 415.415,384.157 416,392.5C 418.565,397.917 420.565,403.584 422,409.5C 422.667,410.833 423.667,411.833 425,412.5C 426.264,416.636 428.097,420.47 430.5,424C 431.91,429.651 433.744,435.151 436,440.5C 437.153,451.151 438.153,461.818 439,472.5C 439.727,474.953 440.727,477.286 442,479.5C 442.09,489.721 442.257,499.888 442.5,510C 443.74,522.27 438.24,526.77 426,523.5C 421.5,523.333 417,523.167 412.5,523C 410.139,522.803 408.472,521.636 407.5,519.5C 404.074,519.025 400.908,518.025 398,516.5C 397.243,501.149 396.41,485.816 395.5,470.5C 392.889,460.164 389.389,450.164 385,440.5C 384,439.833 383,439.167 382,438.5C 377.24,425.208 371.906,412.208 366,399.5C 360.099,405.645 354.432,411.978 349,418.5C 345.573,425.665 342.073,432.665 338.5,439.5C 339.753,442.993 340.587,446.66 341,450.5C 341.192,467.229 342.192,483.896 344,500.5C 344.414,500.957 344.914,501.291 345.5,501.5C 346.833,508.167 346.833,514.833 345.5,521.5C 343.047,523.612 340.714,525.779 338.5,528C 334.853,528.774 331.186,529.441 327.5,530C 309.491,530.425 291.491,530.092 273.5,529C 265.585,526.672 262.751,521.505 265,513.5C 273.936,504.36 284.603,499.36 297,498.5C 297.667,490.5 297.667,482.5 297,474.5C 294.505,461.213 292.172,447.88 290,434.5C 289.333,426.5 289.333,418.5 290,410.5C 297.46,397.078 304.294,383.245 310.5,369C 309.47,366.44 308.303,363.94 307,361.5C 306.7,354.092 305.867,346.758 304.5,339.5C 300.154,339.666 295.821,339.499 291.5,339C 288.166,335.665 286.166,331.665 285.5,327C 278.167,326.667 270.833,326.333 263.5,326C 260.345,323.011 257.345,319.844 254.5,316.5C 251.761,309.781 248.928,303.114 246,296.5C 245,294.833 243.667,293.5 242,292.5C 241.662,287.453 240.995,282.453 240,277.5C 236.667,274.167 233.333,270.833 230,267.5C 229.667,265.167 229.333,262.833 229,260.5C 218.5,250 208,239.5 197.5,229C 196.167,228.667 194.833,228.333 193.5,228C 185.333,219.833 177.167,211.667 169,203.5C 167.827,199.663 165.827,196.329 163,193.5C 152.602,182.773 142.602,171.773 133,160.5C 131.939,155.896 131.273,151.229 131,146.5C 113.333,126.833 95.6667,107.167 78,87.5C 76.3065,81.1555 76.1398,74.8222 77.5,68.5 Z"/></g>
<g><path style="opacity:1" fill="#010101" d="M 283.5,210.5 C 282.71,209.391 282.21,208.058 282,206.5C 279.655,204.598 277.489,202.598 275.5,200.5C 277.073,197.699 278.906,195.032 281,192.5C 281.49,191.207 281.657,189.873 281.5,188.5C 278.126,188.326 274.793,187.826 271.5,187C 271.043,186.586 270.709,186.086 270.5,185.5C 274.964,183.581 279.464,181.581 284,179.5C 283.964,164.96 287.631,151.626 295,139.5C 299.748,138.365 304.581,138.198 309.5,139C 310.333,139.833 311.167,140.667 312,141.5C 312.988,133.218 314.988,125.218 318,117.5C 323.769,114.471 329.102,115.138 334,119.5C 334.373,123.785 335.206,127.951 336.5,132C 335.572,137.88 334.405,143.714 333,149.5C 332.043,152.022 330.543,154.189 328.5,156C 332.092,158.713 335.592,161.547 339,164.5C 339.667,168.833 339.667,173.167 339,177.5C 337.726,183.058 336.56,188.724 335.5,194.5C 334.963,195.741 334.296,196.908 333.5,198C 334.885,199.597 335.551,201.43 335.5,203.5C 340.565,203.219 345.565,203.552 350.5,204.5C 353.05,203.058 355.716,201.892 358.5,201C 365.875,200.848 373.042,199.681 380,197.5C 381.833,197.667 383.667,197.833 385.5,198C 387.705,200.54 390.205,202.707 393,204.5C 394.306,209.558 395.472,214.558 396.5,219.5C 396.913,223.299 395.913,226.633 393.5,229.5C 401.482,245.613 408.982,261.946 416,278.5C 416.667,282.167 416.667,285.833 416,289.5C 412.833,290 411,291.833 410.5,295C 403.087,299.307 395.421,303.14 387.5,306.5C 388.145,307.646 388.978,308.646 390,309.5C 393.098,307.953 396.431,307.286 400,307.5C 404.406,307.236 408.573,308.069 412.5,310C 418.273,316.381 423.44,323.215 428,330.5C 429.759,334.765 429.926,339.098 428.5,343.5C 427.315,344.853 425.981,346.02 424.5,347C 420.546,348.154 416.546,348.987 412.5,349.5C 410.729,352.962 409.229,356.628 408,360.5C 408.647,378.725 411.981,396.391 418,413.5C 418.667,414.833 419.667,415.833 421,416.5C 422.264,420.636 424.097,424.47 426.5,428C 427.91,433.651 429.744,439.151 432,444.5C 433.153,455.151 434.153,465.818 435,476.5C 438.208,482.098 439.208,488.098 438,494.5C 437.167,496 436,497.167 434.5,498C 439.232,504.711 439.565,511.545 435.5,518.5C 429.193,519.664 422.859,519.831 416.5,519C 414.139,518.803 412.472,517.636 411.5,515.5C 408.074,515.025 404.908,514.025 402,512.5C 400.953,507.245 401.453,502.245 403.5,497.5C 402.855,496.354 402.022,495.354 401,494.5C 400.39,489.149 400.557,483.816 401.5,478.5C 398.882,464.024 394.715,450.024 389,436.5C 388,435.833 387,435.167 386,434.5C 381.921,423.266 377.254,412.266 372,401.5C 371.339,398.054 370.505,394.721 369.5,391.5C 367.217,391.608 365.217,392.441 363.5,394C 351.96,405.014 342.626,417.514 335.5,431.5C 334.724,434.986 334.058,438.486 333.5,442C 335.18,446.017 336.347,450.184 337,454.5C 337.333,463.833 337.667,473.167 338,482.5C 338.816,493.409 340.149,504.076 342,514.5C 339.46,516.705 337.293,519.205 335.5,522C 333.283,523.275 330.949,524.275 328.5,525C 312.102,525.909 295.769,525.242 279.5,523C 277.833,521.833 276.167,520.667 274.5,519.5C 273.386,518.277 273.219,516.944 274,515.5C 281.515,508.712 290.348,504.712 300.5,503.5C 302.318,502.226 303.985,500.726 305.5,499C 304.421,498.044 303.255,497.211 302,496.5C 301.768,484.805 301.102,473.138 300,461.5C 296.042,446.056 294.042,430.389 294,414.5C 295.117,413.051 295.784,411.384 296,409.5C 302.786,395.82 309.952,382.32 317.5,369C 314.961,365.426 312.794,361.593 311,357.5C 310.974,349.643 309.807,341.976 307.5,334.5C 303.558,335.6 299.558,335.767 295.5,335C 291.359,330.357 289.192,324.857 289,318.5C 287.417,320.055 285.584,321.222 283.5,322C 278.167,322.667 272.833,322.667 267.5,322C 263.659,318.492 260.159,314.659 257,310.5C 255.101,304.29 252.768,298.29 250,292.5C 249,290.833 247.667,289.5 246,288.5C 245.662,283.453 244.995,278.453 244,273.5C 240.667,270.167 237.333,266.833 234,263.5C 233.667,261.167 233.333,258.833 233,256.5C 222.5,246 212,235.5 201.5,225C 200.167,224.667 198.833,224.333 197.5,224C 189.333,215.833 181.167,207.667 173,199.5C 171.827,195.663 169.827,192.329 167,189.5C 156.602,178.773 146.602,167.773 137,156.5C 135.452,152.322 135.285,148.156 136.5,144C 118.333,123.833 100.167,103.667 82,83.5C 80.5443,79.9847 80.3777,76.4847 81.5,73C 85.5,72.3333 89.5,72.3333 93.5,73C 113,92.5 132.5,112 152,131.5C 152.333,135.5 152.667,139.5 153,143.5C 184.6,175.556 216.767,207.056 249.5,238C 256.854,236.403 261.021,239.237 262,246.5C 267.119,250.652 271.952,255.152 276.5,260C 278.101,260.273 279.601,260.773 281,261.5C 282.356,260.62 283.856,260.286 285.5,260.5C 285.297,255.275 286.797,250.608 290,246.5C 293.981,241.684 298.148,237.018 302.5,232.5C 301.577,230.076 300.077,228.076 298,226.5C 297.257,224.559 297.424,222.726 298.5,221C 294.167,220.667 289.833,220.333 285.5,220C 284.584,219.626 283.75,219.126 283,218.5C 282.398,215.779 282.565,213.113 283.5,210.5 Z"/></g>
<g><path style="opacity:1" fill="#c2c3c2" d="M 85.5,77.5 C 86.2506,76.4265 87.2506,76.2599 88.5,77C 107.667,96.1667 126.833,115.333 146,134.5C 146.333,138.833 146.667,143.167 147,147.5C 149.869,150.704 153.035,153.537 156.5,156C 154.953,157.849 153.119,159.349 151,160.5C 142.741,155.731 139.408,148.731 141,139.5C 122.717,118.572 104.217,97.9055 85.5,77.5 Z"/></g>
<g><path style="opacity:1" fill="#f2f2f2" d="M 322.5,117.5 C 325.475,117.713 328.142,118.713 330.5,120.5C 332.135,124.673 333.135,129.006 333.5,133.5C 331.562,139.009 330.062,144.676 329,150.5C 327.636,153.363 325.47,155.363 322.5,156.5C 318.532,150.87 316.532,144.537 316.5,137.5C 316.963,132.829 317.463,128.163 318,123.5C 318.599,120.746 320.099,118.746 322.5,117.5 Z"/></g>
<g><path style="opacity:1" fill="#1c1d1c" d="M 296.5,144.5 C 299.988,144.705 303.321,145.539 306.5,147C 308.819,149.803 310.485,152.97 311.5,156.5C 306.749,161.38 301.416,165.546 295.5,169C 294.13,170.441 293.13,172.108 292.5,174C 290.527,174.495 288.527,174.662 286.5,174.5C 286.5,170.833 286.5,167.167 286.5,163.5C 290.273,164.178 293.106,162.844 295,159.5C 295.219,154.418 295.719,149.418 296.5,144.5 Z"/></g>
<g><path style="opacity:1" fill="#fec90d" d="M 290.5,147.5 C 291.58,149.361 292.914,150.027 294.5,149.5C 293.833,150.167 293.167,150.833 292.5,151.5C 294.815,157.196 293.148,160.863 287.5,162.5C 288.349,157.442 289.349,152.442 290.5,147.5 Z"/></g>
<g><path style="opacity:1" fill="#696969" d="M 313.5,165.5 C 312.659,163.621 312.325,161.621 312.5,159.5C 316.533,154.109 319.867,154.609 322.5,161C 322.561,162.711 321.894,164.044 320.5,165C 318.19,165.497 315.857,165.663 313.5,165.5 Z"/></g>
<g><path style="opacity:1" fill="#c3c3c2" d="M 157.5,160.5 C 158.251,159.427 159.251,159.26 160.5,160C 190.667,189.5 220.833,219 251,248.5C 251.667,249.833 251.667,251.167 251,252.5C 220.082,221.078 188.916,190.412 157.5,160.5 Z"/></g>
<g><path style="opacity:1" fill="#fefffe" d="M 312.5,159.5 C 312.325,161.621 312.659,163.621 313.5,165.5C 312.883,165.611 312.383,165.944 312,166.5C 311.15,164.99 310.317,163.49 309.5,162C 309.748,160.251 310.748,159.418 312.5,159.5 Z"/></g>
<g><path style="opacity:1" fill="#b87a56" d="M 153.5,160.5 C 168.611,175.11 183.611,189.944 198.5,205C 201.369,206.748 204.036,208.748 206.5,211C 221.167,225.667 235.833,240.333 250.5,255C 248.714,255.785 247.214,256.951 246,258.5C 245.667,257.167 245.333,255.833 245,254.5C 232.196,242.696 219.696,230.53 207.5,218C 206.167,217.667 204.833,217.333 203.5,217C 195.077,207.906 186.077,199.572 176.5,192C 168.167,182.333 159.833,172.667 151.5,163C 152.381,162.292 153.047,161.458 153.5,160.5 Z"/></g>
<g><path style="opacity:1" fill="#fefffe" d="M 315.5,160.5 C 316.5,160.5 317.5,160.5 318.5,160.5C 318.5,161.5 318.5,162.5 318.5,163.5C 317.5,163.5 316.5,163.5 315.5,163.5C 315.5,162.5 315.5,161.5 315.5,160.5 Z"/></g>
<g><path style="opacity:1" fill="#fefffe" d="M 307.5,162.5 C 308.652,163.834 309.652,165.334 310.5,167C 310.387,168.28 309.72,169.113 308.5,169.5C 305.317,167.36 304.984,165.026 307.5,162.5 Z"/></g>
<g><path style="opacity:1" fill="#fffffe" d="M 302.5,165.5 C 304.483,166.902 306.149,168.736 307.5,171C 306.069,171.465 304.903,172.299 304,173.5C 303.208,171.413 302.041,169.579 300.5,168C 301.381,167.292 302.047,166.458 302.5,165.5 Z"/></g>
<g><path style="opacity:1" fill="#1c1d1c" d="M 321.5,165.5 C 325.935,167.353 330.602,168.353 335.5,168.5C 335.917,175.359 334.417,181.692 331,187.5C 330.505,189.473 330.338,191.473 330.5,193.5C 323.887,193.695 317.887,191.861 312.5,188C 314.049,186.786 315.215,185.286 316,183.5C 317.843,177.449 319.677,171.449 321.5,165.5 Z"/></g>
<g><path style="opacity:1" fill="#fefffe" d="M 298.5,168.5 C 303.852,171.852 303.685,174.852 298,177.5C 296.142,174.238 296.309,171.238 298.5,168.5 Z"/></g>
<g><path style="opacity:1" fill="#fefffe" d="M 294.5,172.5 C 297.019,174.881 297.019,177.214 294.5,179.5C 293.585,178.672 292.919,177.672 292.5,176.5C 293.63,175.378 294.297,174.044 294.5,172.5 Z"/></g>
<g><path style="opacity:1" fill="#fefffe" d="M 287.5,175.5 C 288.833,175.5 290.167,175.5 291.5,175.5C 292.864,179.544 291.364,180.544 287,178.5C 286.53,177.423 286.697,176.423 287.5,175.5 Z"/></g>
<g><path style="opacity:1" fill="#fefffe" d="M 290.5,188.5 C 289.021,192.056 286.688,193.056 283.5,191.5C 285.41,189.716 287.744,188.716 290.5,188.5 Z"/></g>
<g><path style="opacity:1" fill="#f6a481" d="M 290.5,188.5 C 293.63,190.023 296.963,190.689 300.5,190.5C 300.5,193.5 300.5,196.5 300.5,199.5C 299.863,202.646 298.196,205.146 295.5,207C 295.645,207.772 295.978,208.439 296.5,209C 298.167,209.667 299.833,209.667 301.5,209C 304.814,204.005 306.814,198.505 307.5,192.5C 309.353,189.978 311.353,189.978 313.5,192.5C 314.474,194.743 314.808,197.076 314.5,199.5C 313.78,202.06 312.113,203.893 309.5,205C 311.609,205.907 312.942,207.407 313.5,209.5C 312.811,212.353 310.978,214.019 308,214.5C 308,212.5 308,210.5 308,208.5C 307.27,213.155 304.77,216.321 300.5,218C 295.167,218.667 289.833,218.667 284.5,218C 283.62,216.644 283.286,215.144 283.5,213.5C 284.791,213.737 285.791,213.404 286.5,212.5C 286.918,211.778 287.584,211.278 288.5,211C 287.584,210.722 286.918,210.222 286.5,209.5C 285.791,208.596 284.791,208.263 283.5,208.5C 283.5,207.167 283.5,205.833 283.5,204.5C 284.5,204.5 285.5,204.5 286.5,204.5C 286.649,203.448 286.483,202.448 286,201.5C 285.481,202.516 284.647,203.182 283.5,203.5C 281.047,202.773 278.714,201.773 276.5,200.5C 279.298,197.721 281.632,194.721 283.5,191.5C 286.688,193.056 289.021,192.056 290.5,188.5 Z"/></g>
<g><path style="opacity:1" fill="#66402c" d="M 307.5,192.5 C 306.814,198.505 304.814,204.005 301.5,209C 299.833,209.667 298.167,209.667 296.5,209C 295.978,208.439 295.645,207.772 295.5,207C 298.196,205.146 299.863,202.646 300.5,199.5C 301.244,196.64 301.911,193.64 302.5,190.5C 304.045,189.548 305.712,189.215 307.5,189.5C 307.5,190.5 307.5,191.5 307.5,192.5 Z"/></g>
<g><path style="opacity:1" fill="#000000" d="M 310.5,192.5 C 311.837,195.53 311.503,198.53 309.5,201.5C 308.892,198.495 309.226,195.495 310.5,192.5 Z"/></g>
<g><path style="opacity:1" fill="#fefefe" d="M 176.5,194.5 C 176.897,193.475 177.563,193.308 178.5,194C 186.5,202 194.5,210 202.5,218C 203.833,218.333 205.167,218.667 206.5,219C 218.833,231.333 231.167,243.667 243.5,256C 242.833,256.667 242.167,256.667 241.5,256C 228.974,244.23 216.641,232.23 204.5,220C 203.167,219.667 201.833,219.333 200.5,219C 192.27,210.938 184.27,202.772 176.5,194.5 Z"/></g>
<g><path style="opacity:1" fill="#835236" d="M 313.5,209.5 C 312.942,207.407 311.609,205.907 309.5,205C 312.113,203.893 313.78,202.06 314.5,199.5C 315.461,197.735 315.795,195.735 315.5,193.5C 319.612,195.282 323.945,196.616 328.5,197.5C 334.153,206.858 331.486,211.525 320.5,211.5C 317.887,211.357 315.553,210.69 313.5,209.5 Z"/></g>
<g><path style="opacity:1" fill="#fefffe" d="M 377.5,204.5 C 377.56,203.957 377.893,203.624 378.5,203.5C 384.648,208.5 387.815,214.834 388,222.5C 387.974,225.105 386.807,226.271 384.5,226C 386.573,223.121 387.407,219.954 387,216.5C 384.378,212.047 381.211,208.047 377.5,204.5 Z"/></g>
<g><path style="opacity:1" fill="#7e7f7e" d="M 374.5,204.5 C 376.716,205.203 378.549,206.536 380,208.5C 382.259,211.785 384.426,215.118 386.5,218.5C 385.694,221.446 384.361,224.112 382.5,226.5C 376.848,227.37 371.181,228.037 365.5,228.5C 364.654,220.795 361.321,214.295 355.5,209C 361.644,206.347 367.978,204.847 374.5,204.5 Z"/></g>
<g><path style="opacity:1" fill="#7e7f7e" d="M 382.5,205.5 C 382.56,204.957 382.893,204.624 383.5,204.5C 388.676,209.47 391.176,215.47 391,222.5C 390.581,223.672 389.915,224.672 389,225.5C 389.502,221.908 389.502,218.241 389,214.5C 387.278,211.133 385.111,208.133 382.5,205.5 Z"/></g>
<g><path style="opacity:1" fill="#6a6a6a" d="M 358.5,221.5 C 358.784,224.777 358.451,227.943 357.5,231C 361.069,237.102 364.236,243.269 367,249.5C 363.065,244.699 360.065,239.365 358,233.5C 356.938,232.101 355.605,231.101 354,230.5C 347.766,232.697 342.266,236.03 337.5,240.5C 332.83,241.646 330.33,239.646 330,234.5C 329,233.833 328,233.167 327,232.5C 322.347,222.256 324.847,214.422 334.5,209C 339.689,208.015 344.689,208.515 349.5,210.5C 352.747,214.014 355.747,217.68 358.5,221.5 Z"/></g>
<g><path style="opacity:1" fill="#fefffe" d="M 283.5,210.5 C 284.209,209.596 285.209,209.263 286.5,209.5C 286.918,210.222 287.584,210.722 288.5,211C 287.584,211.278 286.918,211.778 286.5,212.5C 285.222,212.218 284.222,211.551 283.5,210.5 Z"/></g>
<g><path style="opacity:1" fill="#fefffe" d="M 358.5,221.5 C 357.257,217.071 354.923,213.238 351.5,210C 353.674,209.819 355.507,210.652 357,212.5C 360.036,217.559 362.202,222.892 363.5,228.5C 362.5,228.5 361.5,228.5 360.5,228.5C 360.662,226.473 360.495,224.473 360,222.5C 359.617,221.944 359.117,221.611 358.5,221.5 Z"/></g>
<g><path style="opacity:1" fill="#fefefe" d="M 323.5,215.5 C 315.997,215.165 309.664,217.665 304.5,223C 305.914,224.993 306.914,227.16 307.5,229.5C 307.294,231.549 306.461,231.883 305,230.5C 303.247,227.995 301.747,225.329 300.5,222.5C 306.614,215.519 314.281,212.352 323.5,213C 325.986,213.705 325.986,214.538 323.5,215.5 Z"/></g>
<g><path style="opacity:1" fill="#fff100" d="M 323.5,215.5 C 322.167,219.167 322.167,222.833 323.5,226.5C 318.427,227.389 313.594,229.056 309,231.5C 308.722,230.584 308.222,229.918 307.5,229.5C 306.914,227.16 305.914,224.993 304.5,223C 309.664,217.665 315.997,215.165 323.5,215.5 Z"/></g>
<g><path style="opacity:1" fill="#fefffe" d="M 319.5,228.5 C 321.167,228.5 322.833,228.5 324.5,228.5C 324.34,230.199 324.506,231.866 325,233.5C 327.064,235.243 327.564,237.243 326.5,239.5C 319.868,238.494 313.201,238.494 306.5,239.5C 306.5,237.5 306.5,235.5 306.5,233.5C 311.368,232.881 315.702,231.215 319.5,228.5 Z"/></g>
<g><path style="opacity:1" fill="#fefffe" d="M 383.5,230.5 C 384.239,230.369 384.906,230.536 385.5,231C 387.046,233.257 388.712,235.424 390.5,237.5C 392.803,244.765 395.637,251.765 399,258.5C 400,259.5 401,260.5 402,261.5C 404.391,267.949 407.058,274.282 410,280.5C 410.667,282.5 410.667,284.5 410,286.5C 406.265,275.141 401.265,264.475 395,254.5C 394.133,249.88 392.133,245.88 389,242.5C 387.63,238.195 385.797,234.195 383.5,230.5 Z"/></g>
<g><path style="opacity:1" fill="#fefffe" d="M 396.5,293.5 C 395.5,293.5 394.5,293.5 393.5,293.5C 392.234,290.699 391.401,287.699 391,284.5C 386.712,276.193 382.378,267.86 378,259.5C 375.869,252.578 373.202,245.911 370,239.5C 367.715,237.093 365.549,234.593 363.5,232C 365.567,231.464 367.401,231.964 369,233.5C 377.817,251.633 386.817,269.633 396,287.5C 396.495,289.473 396.662,291.473 396.5,293.5 Z"/></g>
<g><path style="opacity:1" fill="#fefefe" d="M 300.5,240.5 C 305.514,241.169 310.514,242.003 315.5,243C 321.831,248.851 327.331,255.351 332,262.5C 332.796,266.755 332.629,270.921 331.5,275C 329.833,275.667 328.167,275.667 326.5,275C 320.64,268.483 313.64,263.483 305.5,260C 302.167,259.333 298.833,259.333 295.5,260C 293.959,261.579 292.792,263.413 292,265.5C 288.119,262.777 287.619,259.61 290.5,256C 297.924,253.896 305.258,254.229 312.5,257C 317.271,260.138 321.771,263.638 326,267.5C 326.507,266.004 326.007,264.837 324.5,264C 320.656,261.578 316.99,258.911 313.5,256C 306.626,254.174 299.626,253.008 292.5,252.5C 294.681,248.127 297.347,244.127 300.5,240.5 Z"/></g>
<g><path style="opacity:1" fill="#ec1c23" d="M 299.5,248.5 C 298.508,248.672 297.842,248.338 297.5,247.5C 298.974,244.504 301.307,243.004 304.5,243C 301.944,244.055 300.277,245.888 299.5,248.5 Z"/></g>
<g><path style="opacity:1" fill="#f9a884" d="M 253.5,243.5 C 254.117,243.611 254.617,243.944 255,244.5C 256,250.184 257.5,255.684 259.5,261C 255.148,262.682 251.314,265.182 248,268.5C 243.946,265.947 240.779,262.614 238.5,258.5C 238.833,257.833 239.167,257.167 239.5,256.5C 244.782,262.062 249.282,261.395 253,254.5C 253.499,250.848 253.665,247.182 253.5,243.5 Z"/></g>
<g><path style="opacity:1" fill="#ec1c23" d="M 308.5,244.5 C 309.239,244.369 309.906,244.536 310.5,245C 309.365,248.575 307.365,249.575 304.5,248C 306.324,247.34 307.657,246.173 308.5,244.5 Z"/></g>
<g><path style="opacity:1" fill="#000000" d="M 297.5,247.5 C 297.842,248.338 298.508,248.672 299.5,248.5C 298.614,249.776 297.614,249.776 296.5,248.5C 296.624,247.893 296.957,247.56 297.5,247.5 Z"/></g>
<g><path style="opacity:1" fill="#ec1c23" d="M 315.5,247.5 C 320.226,248.898 320.56,251.231 316.5,254.5C 314.833,253.333 313.167,252.167 311.5,251C 313.093,250.051 314.426,248.885 315.5,247.5 Z"/></g>
<g><path style="opacity:1" fill="#fec90d" d="M 382.5,248.5 C 385.997,247.891 388.663,249.057 390.5,252C 392.839,256.203 393.839,260.703 393.5,265.5C 392.07,265.579 390.736,265.246 389.5,264.5C 387.727,261.94 385.727,259.607 383.5,257.5C 382.593,254.579 382.26,251.579 382.5,248.5 Z"/></g>
<g><path style="opacity:1" fill="#c2c3c2" d="M 259.5,251.5 C 261.66,253.325 263.16,255.659 264,258.5C 264.903,259.701 266.069,260.535 267.5,261C 265.191,261.756 263.191,261.256 261.5,259.5C 260.451,256.92 259.784,254.254 259.5,251.5 Z"/></g>
<g><path style="opacity:1" fill="#ec1c23" d="M 329.5,261.5 C 329.715,263.179 329.048,264.179 327.5,264.5C 326.482,261.317 324.315,259.317 321,258.5C 320.537,256.226 321.37,255.059 323.5,255C 324.998,257.664 326.998,259.83 329.5,261.5 Z"/></g>
<g><path style="opacity:1" fill="#ba0f16" d="M 338.5,254.5 C 344.508,260.06 348.008,267.06 349,275.5C 349.667,276.833 350.667,277.833 352,278.5C 352.409,282.491 353.576,286.157 355.5,289.5C 351.473,288.861 347.473,288.028 343.5,287C 342.167,286 342.167,285 343.5,284C 345.5,283.667 347.5,283.333 349.5,283C 345.131,273.72 341.464,264.22 338.5,254.5 Z"/></g>
<g><path style="opacity:1" fill="#fefffe" d="M 362.5,258.5 C 364.655,258.372 366.655,258.872 368.5,260C 364.167,263 359.833,266 355.5,269C 354.552,269.483 353.552,269.649 352.5,269.5C 352.298,267.011 352.798,264.677 354,262.5C 357.047,261.438 359.88,260.105 362.5,258.5 Z"/></g>
<g><path style="opacity:1" fill="#e61c23" d="M 338.5,254.5 C 341.464,264.22 345.131,273.72 349.5,283C 347.5,283.333 345.5,283.667 343.5,284C 342.167,285 342.167,286 343.5,287C 347.473,288.028 351.473,288.861 355.5,289.5C 355.5,290.5 355.5,291.5 355.5,292.5C 357.359,292.461 358.692,293.294 359.5,295C 346.984,295.408 334.651,294.074 322.5,291C 323.696,290.346 323.696,289.846 322.5,289.5C 319.78,291.111 316.78,291.944 313.5,292C 310.5,293.667 308.167,296 306.5,299C 304.385,299.557 302.385,300.391 300.5,301.5C 298.024,304.232 295.357,306.732 292.5,309C 288.005,310.811 284.005,313.478 280.5,317C 277.5,317.667 274.5,317.667 271.5,317C 261.238,306.969 256.072,295.469 256,282.5C 257.385,281.449 258.385,280.116 259,278.5C 269.455,273.62 274.788,276.953 275,288.5C 275.791,287.255 276.291,285.922 276.5,284.5C 277.492,284.672 278.158,284.338 278.5,283.5C 280.612,282.406 282.779,281.406 285,280.5C 287.826,274.178 291.159,268.178 295,262.5C 296.574,261.152 298.407,260.486 300.5,260.5C 310.979,263.234 319.645,268.734 326.5,277C 327.448,277.483 328.448,277.649 329.5,277.5C 329.5,278.5 329.5,279.5 329.5,280.5C 330.27,278.701 331.603,277.368 333.5,276.5C 334.662,271.533 334.829,266.533 334,261.5C 329.325,253.816 323.492,247.149 316.5,241.5C 322.701,240.776 328.701,241.776 334.5,244.5C 338.09,246.817 339.423,250.151 338.5,254.5 Z"/></g>
<g><path style="opacity:1" fill="#000000" d="M 329.5,261.5 C 330.434,262.568 330.768,263.901 330.5,265.5C 329.209,265.737 328.209,265.404 327.5,264.5C 329.048,264.179 329.715,263.179 329.5,261.5 Z"/></g>
<g><path style="opacity:1" fill="#fef200" d="M 251.5,269.5 C 253.497,266.157 256.497,264.49 260.5,264.5C 264.694,262.612 268.194,263.612 271,267.5C 272.504,270.684 274.004,273.851 275.5,277C 272.666,275.063 269.333,274.23 265.5,274.5C 263.5,274.667 261.5,274.833 259.5,275C 259,275.5 258.5,276 258,276.5C 258.408,271.742 256.241,269.409 251.5,269.5 Z"/></g>
<g><path style="opacity:1" fill="#4d4e4d" d="M 375.5,263.5 C 378.403,266.973 379.903,270.973 380,275.5C 378.202,271.578 376.702,267.578 375.5,263.5 Z"/></g>
<g><path style="opacity:1" fill="#000000" d="M 260.5,264.5 C 266.02,263.868 268.853,266.201 269,271.5C 261.813,273.863 258.98,271.53 260.5,264.5 Z"/></g>
<g><path style="opacity:1" fill="#fefffe" d="M 261.5,265.5 C 264.731,265.559 267.065,267.059 268.5,270C 266.244,271.867 263.91,271.867 261.5,270C 260.272,268.51 260.272,267.01 261.5,265.5 Z"/></g>
<g><path style="opacity:1" fill="#c2c3c2" d="M 273.5,265.5 C 274.978,265.238 276.311,265.571 277.5,266.5C 277.968,268.134 278.968,269.3 280.5,270C 279.271,271.529 277.771,272.696 276,273.5C 274.856,270.92 274.022,268.253 273.5,265.5 Z"/></g>
<g><path style="opacity:1" fill="#c2c3c2" d="M 285.5,266.5 C 286.88,266.962 287.547,267.962 287.5,269.5C 285.551,271.792 284.551,274.459 284.5,277.5C 282.286,277.709 280.619,276.876 279.5,275C 281.705,272.298 283.705,269.464 285.5,266.5 Z"/></g>
<g><path style="opacity:1" fill="#fef200" d="M 251.5,269.5 C 251.337,271.857 251.503,274.19 252,276.5C 253.399,277.227 254.899,277.727 256.5,278C 254.348,280.12 252.848,282.62 252,285.5C 251.333,284.833 250.667,284.167 250,283.5C 249.682,279.805 249.182,276.138 248.5,272.5C 248.868,270.825 249.868,269.825 251.5,269.5 Z"/></g>
<g><path style="opacity:1" fill="#fefffe" d="M 252.5,270.5 C 256.647,271.6 257.313,273.6 254.5,276.5C 252.717,274.977 252.051,272.977 252.5,270.5 Z"/></g>
<g><path style="opacity:1" fill="#000000" d="M 329.5,280.5 C 329.128,283.716 327.794,284.216 325.5,282C 326.901,281.59 328.234,281.09 329.5,280.5 Z"/></g>
<g><path style="opacity:1" fill="#946247" d="M 278.5,283.5 C 278.158,284.338 277.492,284.672 276.5,284.5C 275.596,283.791 275.263,282.791 275.5,281.5C 277.179,281.285 278.179,281.952 278.5,283.5 Z"/></g>
<g><path style="opacity:1" fill="#4d4e4d" d="M 393.5,293.5 C 394.5,293.5 395.5,293.5 396.5,293.5C 394.71,294.997 392.544,295.664 390,295.5C 386.692,294.102 384.359,294.769 383,297.5C 383.245,292.902 383.245,288.235 383,283.5C 383.332,287.347 384.498,290.847 386.5,294C 388.929,294.703 391.262,294.537 393.5,293.5 Z"/></g>
<g><path style="opacity:1" fill="#fefffe" d="M 315.5,293.5 C 330.143,295.298 344.809,296.964 359.5,298.5C 360.09,299.799 361.09,300.632 362.5,301C 346.56,302.139 330.893,300.639 315.5,296.5C 315.5,295.5 315.5,294.5 315.5,293.5 Z"/></g>
<g><path style="opacity:1" fill="#870014" d="M 324.5,366.5 C 320.827,364.201 318.327,360.867 317,356.5C 316.485,346.378 315.152,336.378 313,326.5C 312.333,316.167 312.333,305.833 313,295.5C 313.368,296.91 314.201,297.91 315.5,298.5C 315.989,311.266 317.322,323.933 319.5,336.5C 317.676,342.39 317.176,348.39 318,354.5C 319.994,358.643 322.161,362.643 324.5,366.5 Z"/></g>
<g><path style="opacity:1" fill="#fef200" d="M 308.5,298.5 C 309.629,300.628 309.796,302.961 309,305.5C 307.978,304.646 307.145,303.646 306.5,302.5C 307.63,301.378 308.297,300.044 308.5,298.5 Z"/></g>
<g><path style="opacity:1" fill="#ec1c23" d="M 318.5,299.5 C 329.987,302.216 341.654,303.549 353.5,303.5C 353.174,306.311 352.341,308.978 351,311.5C 350.667,315.833 350.333,320.167 350,324.5C 349.586,324.957 349.086,325.291 348.5,325.5C 345.422,323.87 342.089,323.037 338.5,323C 332.314,317.313 325.981,311.813 319.5,306.5C 318.526,304.257 318.192,301.924 318.5,299.5 Z"/></g>
<g><path style="opacity:1" fill="#b97a56" d="M 302.5,303.5 C 308.243,306.383 310.91,311.05 310.5,317.5C 310.167,320.167 309.833,322.833 309.5,325.5C 306.727,326.97 303.894,328.303 301,329.5C 299.347,329.18 298.347,328.18 298,326.5C 296.812,321.72 295.312,317.053 293.5,312.5C 296.521,309.479 299.521,306.479 302.5,303.5 Z"/></g>
<g><path style="opacity:1" fill="#fefffe" d="M 358.5,305.5 C 357.737,304.732 356.737,304.232 355.5,304C 358.379,303.126 361.045,303.46 363.5,305C 361.866,305.494 360.199,305.66 358.5,305.5 Z"/></g>
<g><path style="opacity:1" fill="#fec90d" d="M 358.5,305.5 C 359.568,306.434 360.901,306.768 362.5,306.5C 362.5,307.833 362.5,309.167 362.5,310.5C 361.5,310.5 360.5,310.5 359.5,310.5C 358.486,309.326 357.153,308.66 355.5,308.5C 355.5,307.5 355.5,306.5 355.5,305.5C 356.5,305.5 357.5,305.5 358.5,305.5 Z"/></g>
<g><path style="opacity:1" fill="#ededed" d="M 382.5,317.5 C 380.712,316.378 378.712,316.211 376.5,317C 374.947,319.362 372.78,320.862 370,321.5C 369.805,320.181 369.972,318.847 370.5,317.5C 370.973,316.094 371.973,315.427 373.5,315.5C 374.477,312.713 374.81,309.713 374.5,306.5C 375.93,306.579 377.264,306.246 378.5,305.5C 379.281,306.729 379.781,308.062 380,309.5C 382.485,310.987 384.652,312.821 386.5,315C 385.307,316.095 383.973,316.928 382.5,317.5 Z"/></g>
<g><path style="opacity:1" fill="#870014" d="M 324.5,366.5 C 327.843,367.224 331.176,368.057 334.5,369C 340.626,369.638 346.626,368.971 352.5,367C 354.333,364.5 356.5,362.333 359,360.5C 359.376,357.99 360.21,355.657 361.5,353.5C 362.012,337.765 363.179,322.098 365,306.5C 367.063,310.496 367.897,314.829 367.5,319.5C 365.921,332.47 364.421,345.47 363,358.5C 359.507,362.993 355.673,367.159 351.5,371C 344.833,371.667 338.167,371.667 331.5,371C 329.276,369.219 326.942,367.719 324.5,366.5 Z"/></g>
<g><path style="opacity:1" fill="#ec1c23" d="M 373.5,315.5 C 371.973,315.427 370.973,316.094 370.5,317.5C 369.842,316.207 369.508,314.707 369.5,313C 369.561,310.358 370.561,308.191 372.5,306.5C 373.484,309.428 373.817,312.428 373.5,315.5 Z"/></g>
<g><path style="opacity:1" fill="#fefffe" d="M 318.5,308.5 C 324.147,313.143 329.814,317.81 335.5,322.5C 336.833,323.5 336.833,324.5 335.5,325.5C 333.189,326.497 330.856,326.997 328.5,327C 326.833,322.162 323.833,318.328 319.5,315.5C 318.526,313.257 318.192,310.924 318.5,308.5 Z"/></g>
<g><path style="opacity:1" fill="#cfcfcf" d="M 355.5,308.5 C 357.153,308.66 358.486,309.326 359.5,310.5C 361.075,312.114 361.741,314.114 361.5,316.5C 360.5,316.5 359.5,316.5 358.5,316.5C 356.597,316.204 354.93,315.537 353.5,314.5C 353.054,311.99 353.72,309.99 355.5,308.5 Z"/></g>
<g><path style="opacity:1" fill="#000000" d="M 376.5,311.5 C 382.982,313.049 382.982,314.049 376.5,314.5C 376.5,313.5 376.5,312.5 376.5,311.5 Z"/></g>
<g><path style="opacity:1" fill="#fec90d" d="M 353.5,314.5 C 354.93,315.537 356.597,316.204 358.5,316.5C 359.209,317.404 360.209,317.737 361.5,317.5C 361.5,318.833 361.5,320.167 361.5,321.5C 357.766,321.982 354.933,320.649 353,317.5C 352.26,316.251 352.427,315.251 353.5,314.5 Z"/></g>
<g><path style="opacity:1" fill="#ec1c23" d="M 318.5,317.5 C 324.387,320.672 326.22,325.338 324,331.5C 323,332.167 322,332.833 321,333.5C 320.002,328.18 319.169,322.847 318.5,317.5 Z"/></g>
<g><path style="opacity:1" fill="#e41c22" d="M 382.5,317.5 C 384.452,320.244 385.952,323.244 387,326.5C 388.333,327.167 389.667,327.833 391,328.5C 391.438,331.376 392.438,334.043 394,336.5C 397.087,339.295 399.92,342.295 402.5,345.5C 403.917,350.158 403.584,354.658 401.5,359C 395.012,361.456 388.345,363.289 381.5,364.5C 381.664,361.813 381.497,359.146 381,356.5C 377.678,347.298 374.511,337.965 371.5,328.5C 371.79,326.956 372.456,325.623 373.5,324.5C 372.975,323.808 372.308,323.308 371.5,323C 372.766,322.691 373.933,322.191 375,321.5C 379.864,331.322 385.364,340.655 391.5,349.5C 392.223,347.836 391.89,346.169 390.5,344.5C 385.558,336.941 380.892,329.274 376.5,321.5C 378.289,319.863 380.289,318.53 382.5,317.5 Z"/></g>
<g><path style="opacity:1" fill="#4d4e4d" d="M 398.5,317.5 C 403.482,323.429 408.482,329.429 413.5,335.5C 416.5,336.167 419.5,336.833 422.5,337.5C 419.893,338.318 417.226,338.818 414.5,339C 407.766,346.466 407.099,345.966 412.5,337.5C 407.394,331.074 402.727,324.407 398.5,317.5 Z"/></g>
<g><path style="opacity:1" fill="#fefffe" d="M 352.5,320.5 C 354.82,322.226 357.487,322.893 360.5,322.5C 360.666,326.514 360.499,330.514 360,334.5C 354.602,331.296 352.102,326.63 352.5,320.5 Z"/></g>
<g><path style="opacity:1" fill="#736635" d="M 368.5,323.5 C 368.755,328.479 370.255,333.146 373,337.5C 374.98,344.111 376.98,350.778 379,357.5C 380.33,363.799 380.996,370.132 381,376.5C 378.715,377.819 376.548,379.319 374.5,381C 361.833,382.145 349.166,383.311 336.5,384.5C 335.167,384.167 333.833,383.833 332.5,383.5C 331.355,380.252 330.521,376.919 330,373.5C 329.075,372.953 328.242,372.287 327.5,371.5C 329.123,370.524 330.457,371.024 331.5,373C 337.833,373.667 344.167,373.667 350.5,373C 355.634,368.867 360.468,364.367 365,359.5C 366.396,347.52 367.563,335.52 368.5,323.5 Z"/></g>
<g><path style="opacity:1" fill="#00a1e8" d="M 335.5,331.5 C 335.5,330.167 335.5,328.833 335.5,327.5C 337.833,327.5 340.167,327.5 342.5,327.5C 342.5,328.833 342.5,330.167 342.5,331.5C 340.167,331.5 337.833,331.5 335.5,331.5 Z"/></g>
<g><path style="opacity:1" fill="#049ee3" d="M 343.5,327.5 C 346.32,327.248 348.986,327.748 351.5,329C 352.976,331.643 354.976,333.81 357.5,335.5C 358.802,338.708 359.469,342.041 359.5,345.5C 358.167,345.5 356.833,345.5 355.5,345.5C 354.813,338.481 351.146,333.814 344.5,331.5C 343.571,330.311 343.238,328.978 343.5,327.5 Z"/></g>
<g><path style="opacity:1" fill="#059de1" d="M 335.5,331.5 C 327.27,334.923 323.27,341.256 323.5,350.5C 322.167,350.5 320.833,350.5 319.5,350.5C 318.882,343.085 321.215,336.918 326.5,332C 328.871,330.121 331.538,328.955 334.5,328.5C 334.263,329.791 334.596,330.791 335.5,331.5 Z"/></g>
<g><path style="opacity:1" fill="#158cc8" d="M 349.5,347.5 C 343.442,349.579 337.109,350.913 330.5,351.5C 329.178,351.67 328.011,351.337 327,350.5C 326.505,348.527 326.338,346.527 326.5,344.5C 330.056,344.725 330.39,343.892 327.5,342C 329.558,338.098 332.891,336.431 337.5,337C 336.167,336.667 334.833,336.333 333.5,336C 339.259,332.512 344.592,333.179 349.5,338C 348.833,338.333 348.167,338.667 347.5,339C 351.851,339.46 353.851,341.96 353.5,346.5C 351.901,346.232 350.568,346.566 349.5,347.5 Z"/></g>
<g><path style="opacity:1" fill="#ededed" d="M 462.5,346.5 C 464.5,346.5 466.5,346.5 468.5,346.5C 468.5,348.167 468.5,349.833 468.5,351.5C 466.5,351.5 464.5,351.5 462.5,351.5C 462.5,349.833 462.5,348.167 462.5,346.5 Z"/></g>
<g><path style="opacity:1" fill="#00a1e8" d="M 349.5,347.5 C 350.833,347.5 352.167,347.5 353.5,347.5C 353.88,352.778 351.546,355.444 346.5,355.5C 342.958,355.187 339.625,355.521 336.5,356.5C 332.831,357.303 330.164,356.136 328.5,353C 329.416,352.722 330.082,352.222 330.5,351.5C 337.109,350.913 343.442,349.579 349.5,347.5 Z"/></g>
<g><path style="opacity:1" fill="#1689c3" d="M 346.5,355.5 C 350.099,355.262 350.433,356.262 347.5,358.5C 342.349,361.307 337.349,361.14 332.5,358C 334.058,357.79 335.391,357.29 336.5,356.5C 339.625,355.521 342.958,355.187 346.5,355.5 Z"/></g>
<g><path style="opacity:1" fill="#049ee3" d="M 323.5,350.5 C 325.816,356.314 329.983,360.314 336,362.5C 336.667,364.167 336.667,365.833 336,367.5C 327.262,365.596 322.096,360.263 320.5,351.5C 321.791,351.737 322.791,351.404 323.5,350.5 Z"/></g>
<g><path style="opacity:1" fill="#049ee2" d="M 355.5,347.5 C 359.796,347.588 360.129,349.421 356.5,353C 354.794,363.112 348.461,367.945 337.5,367.5C 337.5,365.833 337.5,364.167 337.5,362.5C 348.407,363.252 354.407,358.252 355.5,347.5 Z"/></g>
<g><path style="opacity:1" fill="#7e7f7e" d="M 404.5,392.5 C 400.681,392.395 397.014,391.562 393.5,390C 392.511,387.842 390.844,386.675 388.5,386.5C 384.464,380.611 382.464,374.111 382.5,367C 388.454,365.848 394.12,364.015 399.5,361.5C 399.162,364.325 400.162,366.492 402.5,368C 401.919,368.893 401.585,369.893 401.5,371C 402.568,378.168 403.568,385.335 404.5,392.5 Z"/></g>
<g><path style="opacity:1" fill="#7a7a7a" d="M 338.5,412.5 C 336.358,411.402 335.025,412.236 334.5,415C 329.833,419 325.167,423 320.5,427C 321.593,428.365 322.926,428.699 324.5,428C 325.949,426.883 327.616,426.216 329.5,426C 330.163,424.482 331.163,423.315 332.5,422.5C 330.821,425.841 329.154,429.174 327.5,432.5C 327.903,437.02 327.903,441.687 327.5,446.5C 322.811,444.077 317.811,442.744 312.5,442.5C 312.323,444.981 313.323,446.814 315.5,448C 319.399,450.515 323.399,451.348 327.5,450.5C 328.496,450.414 329.329,450.748 330,451.5C 331.142,463.468 331.808,475.468 332,487.5C 332.424,489.976 333.257,492.309 334.5,494.5C 334.081,495.672 333.415,496.672 332.5,497.5C 329.833,498.833 327.167,498.833 324.5,497.5C 323.135,496.059 321.635,494.726 320,493.5C 319.506,491.866 319.34,490.199 319.5,488.5C 318.5,488.5 317.5,488.5 316.5,488.5C 316.167,491.833 315.833,495.167 315.5,498.5C 314.5,498.5 313.5,498.5 312.5,498.5C 311.72,495.899 310.054,493.899 307.5,492.5C 306.707,480.496 305.873,468.496 305,456.5C 302.631,446.593 300.631,436.593 299,426.5C 298.333,423.833 298.333,421.167 299,418.5C 301.877,412.675 304.544,406.675 307,400.5C 307.333,400.833 307.667,401.167 308,401.5C 310.162,396.208 312.329,390.875 314.5,385.5C 315.242,384.713 316.075,384.047 317,383.5C 318.253,378.287 320.92,373.954 325,370.5C 327.923,375.435 329.756,380.768 330.5,386.5C 341.5,385.666 352.5,385.166 363.5,385C 354.96,394.037 346.627,403.204 338.5,412.5 Z"/></g>
<g><path style="opacity:1" fill="#870014" d="M 381.5,378.5 C 389.187,392.706 396.52,407.206 403.5,422C 402,423.5 400.5,425 399,426.5C 391.577,411.987 384.41,397.32 377.5,382.5C 379.188,381.479 380.521,380.145 381.5,378.5 Z"/></g>
<g><path style="opacity:1" fill="#525252" d="M 392.5,418.5 C 390.883,417.962 389.216,417.629 387.5,417.5C 383.781,412.054 381.114,406.054 379.5,399.5C 377.923,397.551 376.423,395.551 375,393.5C 374.884,390.068 373.717,387.068 371.5,384.5C 373.006,383.253 374.506,383.253 376,384.5C 381.786,395.737 387.286,407.071 392.5,418.5 Z"/></g>
<g><path style="opacity:1" fill="#4f4f4f" d="M 388.5,386.5 C 390.844,386.675 392.511,387.842 393.5,390C 397.014,391.562 400.681,392.395 404.5,392.5C 405.473,394.948 405.806,397.615 405.5,400.5C 405.083,401.124 404.416,401.457 403.5,401.5C 400.408,400.692 397.408,399.692 394.5,398.5C 392.322,394.662 390.322,390.662 388.5,386.5 Z"/></g>
<g><path style="opacity:1" fill="#464646" d="M 342.5,389.5 C 343.5,389.5 344.5,389.5 345.5,389.5C 344.472,392.714 342.138,394.548 338.5,395C 334.025,398.804 329.525,402.637 325,406.5C 323.926,405.382 322.76,404.382 321.5,403.5C 323.603,400.586 325.437,397.586 327,394.5C 327.805,399.529 329.305,399.696 331.5,395C 333.715,393.956 336.048,393.29 338.5,393C 340.324,392.34 341.657,391.173 342.5,389.5 Z"/></g>
<g><path style="opacity:1" fill="#4e4f4e" d="M 338.5,398.5 C 340.562,399.505 341.396,401.171 341,403.5C 333.525,409.971 326.025,416.471 318.5,423C 316.48,425.052 314.813,424.885 313.5,422.5C 315.436,418.689 318.436,416.022 322.5,414.5C 325.417,409.681 329.417,406.015 334.5,403.5C 335.612,401.581 336.946,399.914 338.5,398.5 Z"/></g>
<g><path style="opacity:1" fill="#515151" d="M 338.5,412.5 C 337.192,415.486 335.859,418.486 334.5,421.5C 334.043,422.298 333.376,422.631 332.5,422.5C 331.163,423.315 330.163,424.482 329.5,426C 327.616,426.216 325.949,426.883 324.5,428C 322.926,428.699 321.593,428.365 320.5,427C 325.167,423 329.833,419 334.5,415C 335.025,412.236 336.358,411.402 338.5,412.5 Z"/></g>
<g><path style="opacity:1" fill="#7e7e7e" d="M 394.5,398.5 C 397.408,399.692 400.408,400.692 403.5,401.5C 404.416,401.457 405.083,401.124 405.5,400.5C 406.496,400.414 407.329,400.748 408,401.5C 408.872,406.195 409.872,410.861 411,415.5C 414.128,419.611 416.794,423.944 419,428.5C 420.463,433.516 422.297,438.35 424.5,443C 426.545,455.794 428.379,468.628 430,481.5C 430.761,484.053 431.594,486.553 432.5,489C 431.833,490.333 431.167,491.667 430.5,493C 424.449,493.208 418.449,493.708 412.5,494.5C 409.745,492.99 407.412,490.99 405.5,488.5C 406.732,485.7 407.399,482.7 407.5,479.5C 405.718,465.096 402.218,451.096 397,437.5C 392.457,431.416 389.29,424.749 387.5,417.5C 389.216,417.629 390.883,417.962 392.5,418.5C 396.106,426.211 400.106,433.711 404.5,441C 408.581,441.923 410.581,440.256 410.5,436C 405.585,423.334 400.251,410.834 394.5,398.5 Z"/></g>
<g><path style="opacity:1" fill="#fec90d" d="M 404.5,425.5 C 406.808,429.497 408.141,433.83 408.5,438.5C 404.248,437.582 401.582,434.916 400.5,430.5C 401.857,428.814 403.19,427.148 404.5,425.5 Z"/></g>
<g><path style="opacity:1" fill="#4e4f4e" d="M 313.5,434.5 C 317.819,433.799 321.486,434.966 324.5,438C 320.83,441.139 316.997,441.306 313,438.5C 312.421,437.072 312.588,435.738 313.5,434.5 Z"/></g>
<g><path style="opacity:1" fill="#4e4f4e" d="M 327.5,446.5 C 327.5,447.833 327.5,449.167 327.5,450.5C 323.399,451.348 319.399,450.515 315.5,448C 313.323,446.814 312.323,444.981 312.5,442.5C 317.811,442.744 322.811,444.077 327.5,446.5 Z"/></g>
<g><path style="opacity:1" fill="#4e4f4e" d="M 312.5,451.5 C 315.132,453.113 317.798,454.78 320.5,456.5C 321.452,458.045 321.785,459.712 321.5,461.5C 315.017,461.349 312.017,458.016 312.5,451.5 Z"/></g>
<g><path style="opacity:1" fill="#000000" d="M 310.5,478.5 C 311.777,479.694 312.444,481.36 312.5,483.5C 312.167,485.167 311.833,486.833 311.5,488.5C 310.513,485.232 310.18,481.898 310.5,478.5 Z"/></g>
<g><path style="opacity:1" fill="#fec90d" d="M 318.5,498.5 C 321.861,499.203 322.194,500.537 319.5,502.5C 317.358,501.563 317.024,500.23 318.5,498.5 Z"/></g>
<g><path style="opacity:1" fill="#fec90d" d="M 318.5,504.5 C 321.861,505.203 322.194,506.537 319.5,508.5C 317.358,507.563 317.024,506.23 318.5,504.5 Z"/></g>
<g><path style="opacity:1" fill="#fec90d" d="M 317.5,511.5 C 320.861,512.203 321.194,513.537 318.5,515.5C 316.358,514.563 316.024,513.23 317.5,511.5 Z"/></g>
</svg>
