<?xml version="1.0" encoding="UTF-8"?>
<!DOCTYPE svg PUBLIC "-//W3C//DTD SVG 1.1//EN" "http://www.w3.org/Graphics/SVG/1.1/DTD/svg11.dtd">
<svg xmlns="http://www.w3.org/2000/svg" version="1.1" width="495px" height="295px" style="shape-rendering:geometricPrecision; text-rendering:geometricPrecision; image-rendering:optimizeQuality; fill-rule:evenodd; clip-rule:evenodd" xmlns:xlink="http://www.w3.org/1999/xlink">
<g><path style="opacity:1" fill="#fefffe" d="M 297.5,2.5 C 305.174,2.33365 312.841,2.50031 320.5,3C 328.035,5.11282 335.702,7.11282 343.5,9C 345.876,11.6799 348.876,13.0133 352.5,13C 359.493,17.6912 365.493,23.5245 370.5,30.5C 374.774,31.3533 376.941,34.0199 377,38.5C 379,39.1667 380.333,40.5 381,42.5C 381.147,45.5706 381.98,48.4039 383.5,51C 397.5,51.6667 411.5,51.6667 425.5,51C 426.167,50.3333 426.833,49.6667 427.5,49C 432.222,48.2231 436.889,48.3897 441.5,49.5C 448.128,44.8424 455.461,43.3424 463.5,45C 467.619,47.7393 469.786,51.5726 470,56.5C 470.667,62.8333 470.667,69.1667 470,75.5C 469.394,78.7127 468.227,81.7127 466.5,84.5C 458.924,85.8911 451.424,85.5578 444,83.5C 435.517,84.5263 427.017,84.5263 418.5,83.5C 415.5,83.8333 412.5,84.1667 409.5,84.5C 411.235,87.5321 413.902,88.8654 417.5,88.5C 417.621,92.1269 419.455,94.4602 423,95.5C 423.333,96.8333 423.667,98.1667 424,99.5C 426.628,101.126 428.961,103.126 431,105.5C 430.9,111.649 433.566,115.982 439,118.5C 439.333,121.167 439.667,123.833 440,126.5C 440.667,127.167 441.333,127.833 442,128.5C 442.333,132.167 442.667,135.833 443,139.5C 443.419,140.672 444.085,141.672 445,142.5C 445.667,149.833 445.667,157.167 445,164.5C 444.085,165.328 443.419,166.328 443,167.5C 441.868,175.482 440.868,183.482 440,191.5C 432.072,206.46 422.238,220.294 410.5,233C 399.078,243.228 386.078,251.228 371.5,257C 365.047,259.257 358.381,260.59 351.5,261C 311.871,266.906 278.704,255.406 252,226.5C 248.6,221.395 244.934,216.395 241,211.5C 238.887,206.716 237.554,201.716 237,196.5C 236,195.5 235,194.5 234,193.5C 232.844,185.188 232.011,176.854 231.5,168.5C 201.696,177.601 172.696,188.768 144.5,202C 141.167,202.333 137.833,202.667 134.5,203C 132.246,203.624 130.579,204.957 129.5,207C 122.733,207.546 116.399,209.546 110.5,213C 109.929,214.205 109.262,215.372 108.5,216.5C 104.833,218.333 101.167,220.167 97.5,222C 84.1854,223.266 70.8521,223.599 57.5,223C 53.9156,221.708 50.2489,220.708 46.5,220C 41.9767,216.233 37.6434,212.233 33.5,208C 28.1667,207.667 22.8333,207.333 17.5,207C 17,206.5 16.5,206 16,205.5C 15.3333,199.833 15.3333,194.167 16,188.5C 16.8333,187.667 17.6667,186.833 18.5,186C 25.8065,185.131 32.9732,185.631 40,187.5C 43.9751,185.968 48.1418,185.302 52.5,185.5C 59.8265,186.038 67.1599,186.371 74.5,186.5C 75.0913,183.386 76.758,180.886 79.5,179C 84.8333,178.667 90.1667,178.333 95.5,178C 101.833,174.833 108.167,171.667 114.5,168.5C 115.063,166.291 116.396,164.791 118.5,164C 121.167,163.667 123.833,163.333 126.5,163C 135.833,158.667 145.167,154.333 154.5,150C 156.155,148.556 156.822,146.722 156.5,144.5C 163.061,144.224 168.061,141.391 171.5,136C 174.633,136.046 177.3,135.046 179.5,133C 184.167,132.667 188.833,132.333 193.5,132C 198.384,129.78 202.718,126.78 206.5,123C 204.324,122.837 202.491,122.004 201,120.5C 200.333,116.5 200.333,112.5 201,108.5C 201.5,108 202,107.5 202.5,107C 206.089,106.793 209.589,106.293 213,105.5C 214.453,99.3407 212.953,94.1741 208.5,90C 198.083,92.0712 193.083,87.9045 193.5,77.5C 193.126,67.1562 198.126,63.1562 208.5,65.5C 208.343,64.1266 208.51,62.7932 209,61.5C 213.189,56.5478 218.523,53.8812 225,53.5C 225.637,50.6722 227.304,48.6722 230,47.5C 230.803,44.7558 231.803,42.0891 233,39.5C 239.728,32.527 246.561,25.6937 253.5,19C 260.928,16.0846 267.928,12.4179 274.5,8C 281.754,6.2355 289.087,4.90217 296.5,4C 297.056,3.61742 297.389,3.11742 297.5,2.5 Z M 305.5,29.5 C 308.167,29.8333 310.833,30.1667 313.5,30.5C 312.915,34.5912 311.915,38.5912 310.5,42.5C 308.257,43.4742 305.924,43.8076 303.5,43.5C 302.888,39.55 301.888,35.7166 300.5,32C 302.175,31.0147 303.842,30.1814 305.5,29.5 Z M 332.5,36.5 C 335.533,38.016 338.2,40.016 340.5,42.5C 336.897,51.2129 333.564,51.3796 330.5,43C 330.875,40.7114 331.541,38.5447 332.5,36.5 Z M 281.5,37.5 C 282.586,37.62 283.253,38.2867 283.5,39.5C 284.346,43.2162 285.346,46.8829 286.5,50.5C 284.912,53.2571 282.579,54.0904 279.5,53C 276.601,50.7226 273.934,48.2226 271.5,45.5C 274.564,42.4297 277.897,39.7631 281.5,37.5 Z M 391.5,111.5 C 395.743,113.227 398.243,116.227 399,120.5C 392.628,123.619 386.128,126.119 379.5,128C 383.886,122.707 387.886,117.207 391.5,111.5 Z M 408.5,140.5 C 409.5,140.5 410.5,140.5 411.5,140.5C 412.628,145.473 413.628,150.473 414.5,155.5C 401.503,155 388.503,154.5 375.5,154C 386.721,149.767 397.721,145.267 408.5,140.5 Z M 379.5,174.5 C 389.312,174.24 399.312,174.24 409.5,174.5C 408.518,179.47 406.684,184.137 404,188.5C 396.023,183.43 387.856,178.764 379.5,174.5 Z M 268.5,174.5 C 274.004,174.362 279.338,175.195 284.5,177C 279.332,180.419 273.998,183.585 268.5,186.5C 265.98,183.273 264.646,179.607 264.5,175.5C 266.099,175.768 267.432,175.434 268.5,174.5 Z M 365.5,192.5 C 365.897,191.475 366.563,191.308 367.5,192C 374.5,196.833 381.5,201.667 388.5,206.5C 385.516,209.985 382.349,213.318 379,216.5C 374.726,208.276 370.226,200.276 365.5,192.5 Z M 299.5,193.5 C 295.851,200.119 291.685,206.452 287,212.5C 284.5,210 282,207.5 279.5,205C 286.058,200.89 292.725,197.057 299.5,193.5 Z M 343.5,196.5 C 348.392,205.282 353.059,214.282 357.5,223.5C 352.344,226.665 346.678,228.665 340.5,229.5C 341.226,218.454 342.226,207.454 343.5,196.5 Z M 322.5,198.5 C 323.161,200.134 323.494,201.967 323.5,204C 322.75,212.166 322.083,220.332 321.5,228.5C 316.531,227.622 311.865,225.955 307.5,223.5C 312.952,215.394 317.952,207.061 322.5,198.5 Z"/></g>
<g><path style="opacity:1" fill="#000000" d="M 299.5,4.5 C 313.638,4.52276 327.638,6.68943 341.5,11C 343.876,13.6799 346.876,15.0133 350.5,15C 357.493,19.6912 363.493,25.5245 368.5,32.5C 372.774,33.3533 374.941,36.0199 375,40.5C 377,41.1667 378.333,42.5 379,44.5C 379.147,47.5706 379.98,50.4039 381.5,53C 396.833,53.6667 412.167,53.6667 427.5,53C 431.674,49.8537 436.007,49.687 440.5,52.5C 444.619,50.87 448.619,49.0367 452.5,47C 461.575,45.3948 466.742,49.2281 468,58.5C 469.409,66.9199 468.242,74.9199 464.5,82.5C 457.61,83.6903 450.777,83.357 444,81.5C 429.19,81.6574 414.356,81.824 399.5,82C 401.804,82.8952 404.138,83.7285 406.5,84.5C 407.834,88.9452 410.834,90.9452 415.5,90.5C 415.621,94.1269 417.455,96.4602 421,97.5C 421.333,98.8333 421.667,100.167 422,101.5C 424.628,103.126 426.961,105.126 429,107.5C 428.9,113.649 431.566,117.982 437,120.5C 437.333,123.167 437.667,125.833 438,128.5C 440.684,131.983 441.184,135.816 439.5,140C 443.813,143.861 444.48,148.194 441.5,153C 444.205,157.224 444.038,161.391 441,165.5C 439.868,173.482 438.868,181.482 438,189.5C 430.072,204.46 420.238,218.294 408.5,231C 375.307,259.903 337.474,267.403 295,253.5C 279.007,246.797 265.341,237.131 254,224.5C 250.6,219.395 246.934,214.395 243,209.5C 240.887,204.716 239.554,199.716 239,194.5C 235.379,190.815 234.546,186.481 236.5,181.5C 235.855,180.354 235.022,179.354 234,178.5C 233.501,174.514 233.334,170.514 233.5,166.5C 231.533,166.739 229.699,166.406 228,165.5C 206.595,173.858 185.095,182.025 163.5,190C 153.98,196.062 143.646,199.728 132.5,201C 130.246,201.624 128.579,202.957 127.5,205C 120.733,205.546 114.399,207.546 108.5,211C 107.929,212.205 107.262,213.372 106.5,214.5C 102.833,216.333 99.1667,218.167 95.5,220C 83.5173,221.19 71.5173,221.523 59.5,221C 49.241,218.601 40.9077,213.101 34.5,204.5C 20.0776,209.9 14.5776,205.233 18,190.5C 18.8333,189.667 19.6667,188.833 20.5,188C 27.0762,187.355 33.5762,187.855 40,189.5C 44.0424,188.103 48.209,187.437 52.5,187.5C 60.4851,188.225 68.4851,188.558 76.5,188.5C 78.6971,180.894 83.6971,178.394 91.5,181C 92,181.5 92.5,182 93,182.5C 100.755,178.372 108.589,174.372 116.5,170.5C 117.063,168.291 118.396,166.791 120.5,166C 123.167,165.667 125.833,165.333 128.5,165C 137.833,160.667 147.167,156.333 156.5,152C 158.155,150.556 158.822,148.722 158.5,146.5C 165.061,146.224 170.061,143.391 173.5,138C 176.633,138.046 179.3,137.046 181.5,135C 185.225,134.24 188.892,134.407 192.5,135.5C 195.5,134 198.5,132.5 201.5,131C 205.142,127.513 209.142,124.513 213.5,122C 210.471,121.461 207.471,120.794 204.5,120C 201.833,116.333 201.833,112.667 204.5,109C 207.833,108.667 211.167,108.333 214.5,108C 215,107.5 215.5,107 216,106.5C 216.755,99.4555 214.921,93.2888 210.5,88C 197.012,89.1736 192.512,83.3403 197,70.5C 200.937,67.4319 205.271,66.7653 210,68.5C 210.511,63.6451 213.011,60.1451 217.5,58C 220.424,57.0124 223.424,56.3457 226.5,56C 227.239,52.9265 229.072,50.7598 232,49.5C 232.803,46.7558 233.803,44.0891 235,41.5C 241.728,34.527 248.561,27.6937 255.5,21C 262.928,18.0846 269.928,14.4179 276.5,10C 283.754,8.2355 291.087,6.90217 298.5,6C 299.056,5.61742 299.389,5.11742 299.5,4.5 Z M 305.5,29.5 C 303.842,30.1814 302.175,31.0147 300.5,32C 301.888,35.7166 302.888,39.55 303.5,43.5C 305.924,43.8076 308.257,43.4742 310.5,42.5C 311.915,38.5912 312.915,34.5912 313.5,30.5C 310.833,30.1667 308.167,29.8333 305.5,29.5 Z M 332.5,36.5 C 331.541,38.5447 330.875,40.7114 330.5,43C 333.564,51.3796 336.897,51.2129 340.5,42.5C 338.2,40.016 335.533,38.016 332.5,36.5 Z M 281.5,37.5 C 277.897,39.7631 274.564,42.4297 271.5,45.5C 273.934,48.2226 276.601,50.7226 279.5,53C 282.579,54.0904 284.912,53.2571 286.5,50.5C 285.346,46.8829 284.346,43.2162 283.5,39.5C 283.253,38.2867 282.586,37.62 281.5,37.5 Z M 391.5,111.5 C 387.886,117.207 383.886,122.707 379.5,128C 386.128,126.119 392.628,123.619 399,120.5C 398.243,116.227 395.743,113.227 391.5,111.5 Z M 408.5,140.5 C 397.721,145.267 386.721,149.767 375.5,154C 388.503,154.5 401.503,155 414.5,155.5C 413.628,150.473 412.628,145.473 411.5,140.5C 410.5,140.5 409.5,140.5 408.5,140.5 Z M 379.5,174.5 C 387.856,178.764 396.023,183.43 404,188.5C 406.684,184.137 408.518,179.47 409.5,174.5C 399.312,174.24 389.312,174.24 379.5,174.5 Z M 268.5,174.5 C 267.432,175.434 266.099,175.768 264.5,175.5C 264.646,179.607 265.98,183.273 268.5,186.5C 273.998,183.585 279.332,180.419 284.5,177C 279.338,175.195 274.004,174.362 268.5,174.5 Z M 365.5,192.5 C 370.226,200.276 374.726,208.276 379,216.5C 382.349,213.318 385.516,209.985 388.5,206.5C 381.5,201.667 374.5,196.833 367.5,192C 366.563,191.308 365.897,191.475 365.5,192.5 Z M 299.5,193.5 C 292.725,197.057 286.058,200.89 279.5,205C 282,207.5 284.5,210 287,212.5C 291.685,206.452 295.851,200.119 299.5,193.5 Z M 343.5,196.5 C 342.226,207.454 341.226,218.454 340.5,229.5C 346.678,228.665 352.344,226.665 357.5,223.5C 353.059,214.282 348.392,205.282 343.5,196.5 Z M 322.5,198.5 C 317.952,207.061 312.952,215.394 307.5,223.5C 311.865,225.955 316.531,227.622 321.5,228.5C 322.083,220.332 322.75,212.166 323.5,204C 323.494,201.967 323.161,200.134 322.5,198.5 Z"/></g>
<g><path style="opacity:1" fill="#c2c3c2" d="M 360.5,33.5 C 355.776,31.2785 351.776,28.1118 348.5,24C 333.721,14.9832 317.721,11.6498 300.5,14C 278.958,16.6872 260.791,25.8538 246,41.5C 243.696,45.7974 240.696,49.4641 237,52.5C 237.145,55.9233 235.645,57.9233 232.5,58.5C 234.701,53.771 237.201,49.1044 240,44.5C 246.828,38.5273 253.328,32.3607 259.5,26C 262.952,25.1083 265.952,23.4416 268.5,21C 273.001,20.0829 277.001,18.0829 280.5,15C 287.746,13.2367 295.079,11.9033 302.5,11C 303,10.5 303.5,10 304,9.5C 305.574,10.8476 307.407,11.5142 309.5,11.5C 313.946,11.7246 318.446,11.7246 323,11.5C 327.711,13.2469 332.545,14.7469 337.5,16C 342.216,18.4505 346.882,20.9505 351.5,23.5C 355.228,26.2253 358.228,29.5586 360.5,33.5 Z"/></g>
<g><path style="opacity:1" fill="#b7b895" d="M 341.5,23.5 C 337.169,22.4511 335.003,24.1178 335,28.5C 332.573,26.2543 329.906,25.5876 327,26.5C 310.108,20.2859 293.775,21.6192 278,30.5C 278.379,26.8777 276.879,24.711 273.5,24C 291.817,15.3351 310.817,13.3351 330.5,18C 334.507,19.3366 338.173,21.1699 341.5,23.5 Z"/></g>
<g><path style="opacity:1" fill="#b7b895" d="M 341.5,23.5 C 346.089,24.5799 349.756,27.0799 352.5,31C 349.19,30.7712 347.356,32.2712 347,35.5C 345.269,33.3834 343.102,31.8834 340.5,31C 342.715,28.7585 343.048,26.2585 341.5,23.5 Z"/></g>
<g><path style="opacity:1" fill="#b7b895" d="M 269.5,25.5 C 270.302,26.9516 270.802,28.6183 271,30.5C 271.75,31.1258 272.584,31.6258 273.5,32C 271,33.8333 268.5,35.6667 266,37.5C 265.957,33.2693 263.79,31.436 259.5,32C 262.728,29.5603 266.061,27.3936 269.5,25.5 Z"/></g>
<g><path style="opacity:1" fill="#c2c3c2" d="M 337.5,25.5 C 338.5,25.5 339.5,25.5 340.5,25.5C 340.5,26.5 340.5,27.5 340.5,28.5C 339.5,28.5 338.5,28.5 337.5,28.5C 337.5,27.5 337.5,26.5 337.5,25.5 Z"/></g>
<g><path style="opacity:1" fill="#c2c3c2" d="M 272.5,26.5 C 273.5,26.5 274.5,26.5 275.5,26.5C 275.5,27.5 275.5,28.5 275.5,29.5C 274.5,29.5 273.5,29.5 272.5,29.5C 272.5,28.5 272.5,27.5 272.5,26.5 Z"/></g>
<g><path style="opacity:1" fill="#b7b895" d="M 289.5,27.5 C 290.931,27.8807 291.764,28.8807 292,30.5C 293.912,37.9815 295.745,45.4815 297.5,53C 297.167,53.8333 296.833,54.6667 296.5,55.5C 292.984,46.4662 290.651,37.1328 289.5,27.5 Z"/></g>
<g><path style="opacity:1" fill="#fefffe" d="M 303.5,27.5 C 307.857,27.5865 312.19,27.9198 316.5,28.5C 315.785,33.9796 314.452,39.3129 312.5,44.5C 308.893,45.4892 305.226,45.8226 301.5,45.5C 300.554,40.2172 299.221,35.0505 297.5,30C 299.611,29.1553 301.611,28.322 303.5,27.5 Z M 305.5,29.5 C 303.842,30.1814 302.175,31.0147 300.5,32C 301.888,35.7166 302.888,39.55 303.5,43.5C 305.924,43.8076 308.257,43.4742 310.5,42.5C 311.915,38.5912 312.915,34.5912 313.5,30.5C 310.833,30.1667 308.167,29.8333 305.5,29.5 Z"/></g>
<g><path style="opacity:1" fill="#b7b895" d="M 323.5,27.5 C 324.586,27.62 325.253,28.2867 325.5,29.5C 323.623,35.7953 321.956,42.1286 320.5,48.5C 319.448,48.6495 318.448,48.4828 317.5,48C 319.731,41.2446 321.731,34.4113 323.5,27.5 Z"/></g>
<g><path style="opacity:1" fill="#b7b895" d="M 354.5,32.5 C 362.502,38.3421 368.502,45.8421 372.5,55C 369.833,55.6667 367.167,55.6667 364.5,55C 361.3,48.7949 356.967,43.4616 351.5,39C 354.145,37.7135 355.145,35.5468 354.5,32.5 Z"/></g>
<g><path style="opacity:1" fill="#b7b895" d="M 257.5,33.5 C 258.302,34.9516 258.802,36.6183 259,38.5C 260.067,39.1905 261.234,39.6905 262.5,40C 260.457,41.708 258.79,43.708 257.5,46C 252.232,48.1045 248.899,51.9378 247.5,57.5C 244.216,58.657 240.882,58.8236 237.5,58C 238.399,55.8083 239.399,53.6416 240.5,51.5C 245.485,44.849 251.151,38.849 257.5,33.5 Z"/></g>
<g><path style="opacity:1" fill="#fefffe" d="M 330.5,33.5 C 336.062,35.2828 341.062,38.1161 345.5,42C 342.321,46.5124 338.488,50.3457 334,53.5C 332.189,50.3555 329.689,47.8555 326.5,46C 328.064,41.9142 329.397,37.7476 330.5,33.5 Z M 332.5,36.5 C 331.541,38.5447 330.875,40.7114 330.5,43C 333.564,51.3796 336.897,51.2129 340.5,42.5C 338.2,40.016 335.533,38.016 332.5,36.5 Z"/></g>
<g><path style="opacity:1" fill="#c2c3c2" d="M 349.5,33.5 C 350.5,33.5 351.5,33.5 352.5,33.5C 352.5,34.5 352.5,35.5 352.5,36.5C 351.5,36.5 350.5,36.5 349.5,36.5C 349.5,35.5 349.5,34.5 349.5,33.5 Z"/></g>
<g><path style="opacity:1" fill="#c2c3c2" d="M 360.5,33.5 C 362.553,34.5336 364.22,36.0336 365.5,38C 366.448,38.4828 367.448,38.6495 368.5,38.5C 368.687,42.7361 370.687,45.5694 374.5,47C 373.773,48.3988 373.273,49.8988 373,51.5C 371.366,48.52 369.7,45.52 368,42.5C 364.888,39.8991 362.388,36.8991 360.5,33.5 Z"/></g>
<g><path style="opacity:1" fill="#c2c3c2" d="M 260.5,34.5 C 261.5,34.5 262.5,34.5 263.5,34.5C 263.5,35.5 263.5,36.5 263.5,37.5C 262.5,37.5 261.5,37.5 260.5,37.5C 260.5,36.5 260.5,35.5 260.5,34.5 Z"/></g>
<g><path style="opacity:1" fill="#fefffe" d="M 282.5,34.5 C 283.496,34.4142 284.329,34.7476 285,35.5C 286.345,41.2156 287.845,46.8823 289.5,52.5C 286.03,55.3941 282.03,56.2274 277.5,55C 273.534,52.036 269.867,48.7026 266.5,45C 271.489,40.82 276.822,37.32 282.5,34.5 Z M 281.5,37.5 C 277.897,39.7631 274.564,42.4297 271.5,45.5C 273.934,48.2226 276.601,50.7226 279.5,53C 282.579,54.0904 284.912,53.2571 286.5,50.5C 285.346,46.8829 284.346,43.2162 283.5,39.5C 283.253,38.2867 282.586,37.62 281.5,37.5 Z"/></g>
<g><path style="opacity:1" fill="#b7b895" d="M 351.5,44.5 C 353.028,44.5173 353.528,45.184 353,46.5C 350.167,49.3333 347.333,52.1667 344.5,55C 343.833,55.6667 343.167,55.6667 342.5,55C 345.389,51.3756 348.389,47.8756 351.5,44.5 Z"/></g>
<g><path style="opacity:1" fill="#b7b895" d="M 258.5,47.5 C 263.138,50.5035 267.472,54.0035 271.5,58C 270.167,58.6667 268.833,58.6667 267.5,58C 264.167,55 260.833,52 257.5,49C 258.056,48.6174 258.389,48.1174 258.5,47.5 Z"/></g>
<g><path style="opacity:1" fill="#fef049" d="M 301.5,58.5 C 300.833,58.5 300.167,58.5 299.5,58.5C 299.055,55.6354 299.722,53.1354 301.5,51C 309.5,50.3333 317.5,50.3333 325.5,51C 326.687,52.0195 327.687,53.1861 328.5,54.5C 326.731,55.6265 325.397,55.1265 324.5,53C 317.167,52.3333 309.833,52.3333 302.5,53C 301.594,54.6995 301.261,56.5328 301.5,58.5 Z"/></g>
<g><path style="opacity:1" fill="#b7b895" d="M 316.5,53.5 C 318.337,53.6395 318.67,54.3061 317.5,55.5C 316.702,55.0431 316.369,54.3764 316.5,53.5 Z"/></g>
<g><path style="opacity:1" fill="#fef049" d="M 329.5,64.5 C 328.399,63.1516 327.399,61.6516 326.5,60C 319.833,59.3333 313.167,59.3333 306.5,60C 304.61,62.0616 302.61,63.8949 300.5,65.5C 301.143,62.0125 303.143,59.5125 306.5,58C 313.5,57.3333 320.5,57.3333 327.5,58C 329.229,59.7889 329.896,61.9556 329.5,64.5 Z"/></g>
<g><path style="opacity:1" fill="#deb63d" d="M 463.5,67.5 C 455.561,68.8226 447.561,69.4892 439.5,69.5C 439.662,67.4727 439.495,65.4727 439,63.5C 438.535,67.8477 438.035,72.181 437.5,76.5C 435.716,77.7199 434.05,77.7199 432.5,76.5C 435.491,69.0613 436.158,66.7279 434.5,69.5C 415.509,70.9596 396.509,71.293 377.5,70.5C 372.935,70.8478 368.601,70.1811 364.5,68.5C 363.106,68.6207 361.772,68.954 360.5,69.5C 355.735,68.4667 350.902,67.8 346,67.5C 339.103,67.9788 332.27,67.9788 325.5,67.5C 314.507,69.249 303.84,72.249 293.5,76.5C 293.664,73.8127 293.497,71.146 293,68.5C 292.503,70.8098 292.337,73.1432 292.5,75.5C 279.557,76.9853 266.557,77.9853 253.5,78.5C 251.828,74.6015 251.828,78.2681 253.5,89.5C 251.455,92.1325 249.455,92.1325 247.5,89.5C 249.179,78.4189 249.179,74.4189 247.5,77.5C 244.14,77.6159 240.807,77.9492 237.5,78.5C 237.663,76.1432 237.497,73.8098 237,71.5C 236.235,77.8172 235.735,84.1505 235.5,90.5C 234.5,90.5 233.5,90.5 232.5,90.5C 233.075,84.8333 233.242,79.1667 233,73.5C 233.309,78.2623 231.142,81.0956 226.5,82C 225.789,83.2547 224.956,84.4214 224,85.5C 222.171,83.8442 220.837,81.8442 220,79.5C 218.729,78.1175 217.229,77.1175 215.5,76.5C 215.335,73.4816 215.502,70.4816 216,67.5C 218.585,65.2419 221.418,63.4086 224.5,62C 246.464,61.8947 268.464,61.2281 290.5,60C 291,59.5 291.5,59 292,58.5C 294.539,61.0673 297.039,61.0673 299.5,58.5C 300.167,58.5 300.833,58.5 301.5,58.5C 299.455,60.6965 299.122,63.0298 300.5,65.5C 300.735,66.0967 301.235,66.4301 302,66.5C 305.493,62.0145 310.159,60.3479 316,61.5C 319.167,61.6667 322.333,61.8333 325.5,62C 326.337,63.0113 326.67,64.1779 326.5,65.5C 328.415,65.7845 330.081,65.4511 331.5,64.5C 331.5,62.8333 331.5,61.1667 331.5,59.5C 364.744,58.8239 398.077,58.3239 431.5,58C 432.155,56.5134 433.155,55.3467 434.5,54.5C 435.824,56.3184 437.657,57.3184 440,57.5C 445.527,56.3809 450.693,54.3809 455.5,51.5C 457.728,52.2186 459.561,53.552 461,55.5C 462.536,59.3462 463.369,63.3462 463.5,67.5 Z"/></g>
<g><path style="opacity:1" fill="#a47e1e" d="M 329.5,64.5 C 330.167,64.5 330.833,64.5 331.5,64.5C 330.081,65.4511 328.415,65.7845 326.5,65.5C 326.67,64.1779 326.337,63.0113 325.5,62C 322.333,61.8333 319.167,61.6667 316,61.5C 310.159,60.3479 305.493,62.0145 302,66.5C 301.235,66.4301 300.735,66.0967 300.5,65.5C 302.61,63.8949 304.61,62.0616 306.5,60C 313.167,59.3333 319.833,59.3333 326.5,60C 327.399,61.6516 328.399,63.1516 329.5,64.5 Z"/></g>
<g><path style="opacity:1" fill="#a47d1f" d="M 463.5,67.5 C 462.949,71.9383 461.283,75.9383 458.5,79.5C 451.762,76.928 444.762,75.928 437.5,76.5C 438.035,72.181 438.535,67.8477 439,63.5C 439.495,65.4727 439.662,67.4727 439.5,69.5C 447.561,69.4892 455.561,68.8226 463.5,67.5 Z"/></g>
<g><path style="opacity:1" fill="#a47e1e" d="M 432.5,76.5 C 419.147,76.2413 405.814,76.5746 392.5,77.5C 388.126,75.327 383.459,73.6603 378.5,72.5C 378.137,71.8165 377.804,71.1499 377.5,70.5C 396.509,71.293 415.509,70.9596 434.5,69.5C 436.158,66.7279 435.491,69.0613 432.5,76.5 Z"/></g>
<g><path style="opacity:1" fill="#a47e1e" d="M 293.5,76.5 C 290.288,79.9423 286.288,82.109 281.5,83C 280.643,83.6891 279.977,84.5224 279.5,85.5C 270.903,87.5937 262.236,88.927 253.5,89.5C 251.828,78.2681 251.828,74.6015 253.5,78.5C 266.557,77.9853 279.557,76.9853 292.5,75.5C 292.337,73.1432 292.503,70.8098 293,68.5C 293.497,71.146 293.664,73.8127 293.5,76.5 Z"/></g>
<g><path style="opacity:1" fill="#a47e1e" d="M 247.5,89.5 C 243.466,89.5045 239.466,89.8379 235.5,90.5C 235.735,84.1505 236.235,77.8172 237,71.5C 237.497,73.8098 237.663,76.1432 237.5,78.5C 240.807,77.9492 244.14,77.6159 247.5,77.5C 249.179,74.4189 249.179,78.4189 247.5,89.5 Z"/></g>
<g><path style="opacity:1" fill="#c2c3c2" d="M 324.5,70.5 C 341.22,70.2841 357.886,71.1174 374.5,73C 375.167,74 375.833,75 376.5,76C 381.573,75.8701 385.573,77.8701 388.5,82C 392.853,84.3667 397.187,86.7001 401.5,89C 408.667,96.1667 415.833,103.333 423,110.5C 424.242,116.715 427.409,121.549 432.5,125C 431.248,128.917 432.248,132.25 435.5,135C 434.001,139.169 434.334,143.169 436.5,147C 436,148.5 435.5,150 435,151.5C 432.169,129.005 422.336,110.172 405.5,95C 365.442,67.5383 324.442,66.5383 282.5,92C 266.978,102.519 255.478,116.352 248,133.5C 248.65,128.333 250.15,123.333 252.5,118.5C 257.288,113.564 261.454,108.23 265,102.5C 269.625,100.6 273.125,97.4331 275.5,93C 283.695,87.2195 292.361,81.8862 301.5,77C 309.116,74.1644 316.782,71.9977 324.5,70.5 Z M 391.5,111.5 C 387.886,117.207 383.886,122.707 379.5,128C 386.128,126.119 392.628,123.619 399,120.5C 398.243,116.227 395.743,113.227 391.5,111.5 Z"/></g>
<g><path style="opacity:1" fill="#fef049" d="M 204.5,72.5 C 212.111,75.7574 212.278,79.0907 205,82.5C 199.246,79.3579 199.079,76.0245 204.5,72.5 Z"/></g>
<g><path style="opacity:1" fill="#a47e1e" d="M 232.5,90.5 C 227.053,91.1744 222.053,90.0078 217.5,87C 215.441,83.5535 214.775,80.0535 215.5,76.5C 217.229,77.1175 218.729,78.1175 220,79.5C 220.837,81.8442 222.171,83.8442 224,85.5C 224.956,84.4214 225.789,83.2547 226.5,82C 231.142,81.0956 233.309,78.2623 233,73.5C 233.242,79.1667 233.075,84.8333 232.5,90.5 Z"/></g>
<g><path style="opacity:1" fill="#b7b895" d="M 424.5,194.5 C 420.773,203.726 415.607,212.06 409,219.5C 399.783,227.051 390.283,234.218 380.5,241C 343.927,258.608 308.927,255.942 275.5,233C 281.14,233.371 282.807,231.037 280.5,226C 275.731,224.595 273.398,226.428 273.5,231.5C 265.102,223.928 257.936,215.261 252,205.5C 234.138,158.437 245.638,120.604 286.5,92C 327.323,68.5779 366.989,70.2446 405.5,97C 409.023,101.022 412.357,105.189 415.5,109.5C 410.428,109.398 408.595,111.731 410,116.5C 415.037,118.807 417.371,117.14 417,111.5C 427.562,125.845 433.396,142.012 434.5,160C 433.204,168.201 431.704,176.367 430,184.5C 428.914,188.346 427.081,191.68 424.5,194.5 Z M 391.5,111.5 C 387.886,117.207 383.886,122.707 379.5,128C 386.128,126.119 392.628,123.619 399,120.5C 398.243,116.227 395.743,113.227 391.5,111.5 Z M 408.5,140.5 C 397.721,145.267 386.721,149.767 375.5,154C 388.503,154.5 401.503,155 414.5,155.5C 413.628,150.473 412.628,145.473 411.5,140.5C 410.5,140.5 409.5,140.5 408.5,140.5 Z M 379.5,174.5 C 387.856,178.764 396.023,183.43 404,188.5C 406.684,184.137 408.518,179.47 409.5,174.5C 399.312,174.24 389.312,174.24 379.5,174.5 Z M 268.5,174.5 C 267.432,175.434 266.099,175.768 264.5,175.5C 264.646,179.607 265.98,183.273 268.5,186.5C 273.998,183.585 279.332,180.419 284.5,177C 279.338,175.195 274.004,174.362 268.5,174.5 Z M 365.5,192.5 C 370.226,200.276 374.726,208.276 379,216.5C 382.349,213.318 385.516,209.985 388.5,206.5C 381.5,201.667 374.5,196.833 367.5,192C 366.563,191.308 365.897,191.475 365.5,192.5 Z M 299.5,193.5 C 292.725,197.057 286.058,200.89 279.5,205C 282,207.5 284.5,210 287,212.5C 291.685,206.452 295.851,200.119 299.5,193.5 Z M 343.5,196.5 C 342.226,207.454 341.226,218.454 340.5,229.5C 346.678,228.665 352.344,226.665 357.5,223.5C 353.059,214.282 348.392,205.282 343.5,196.5 Z M 322.5,198.5 C 317.952,207.061 312.952,215.394 307.5,223.5C 311.865,225.955 316.531,227.622 321.5,228.5C 322.083,220.332 322.75,212.166 323.5,204C 323.494,201.967 323.161,200.134 322.5,198.5 Z"/></g>
<g><path style="opacity:1" fill="#a47e1e" d="M 211.5,76.5 C 213.337,76.6395 213.67,77.3061 212.5,78.5C 211.702,78.0431 211.369,77.3764 211.5,76.5 Z"/></g>
<g><path style="opacity:1" fill="#000000" d="M 326.5,78.5 C 332.158,77.6794 333.825,79.846 331.5,85C 325.741,86.1387 324.074,83.972 326.5,78.5 Z"/></g>
<g><path style="opacity:1" fill="#c2c3c2" d="M 327.5,80.5 C 328.5,80.5 329.5,80.5 330.5,80.5C 330.5,81.5 330.5,82.5 330.5,83.5C 329.5,83.5 328.5,83.5 327.5,83.5C 327.5,82.5 327.5,81.5 327.5,80.5 Z"/></g>
<g><path style="opacity:1" fill="#000000" d="M 312.5,82.5 C 317.123,81.4082 318.956,83.0748 318,87.5C 312.034,90.7051 310.201,89.0385 312.5,82.5 Z"/></g>
<g><path style="opacity:1" fill="#c2c3c2" d="M 313.5,84.5 C 314.5,84.5 315.5,84.5 316.5,84.5C 316.5,85.5 316.5,86.5 316.5,87.5C 315.5,87.5 314.5,87.5 313.5,87.5C 313.5,86.5 313.5,85.5 313.5,84.5 Z"/></g>
<g><path style="opacity:1" fill="#000000" d="M 331.5,86.5 C 344.228,86.08 356.894,86.58 369.5,88C 380.373,93.2372 390.707,99.2372 400.5,106C 419.053,126.034 425.553,149.534 420,176.5C 416.888,186.057 413.221,195.39 409,204.5C 400.394,214.112 390.894,222.612 380.5,230C 359.437,241.674 337.103,245.007 313.5,240C 303.715,235.941 294.048,231.608 284.5,227C 275.534,218.374 267.701,208.874 261,198.5C 250.194,162.592 258.361,131.758 285.5,106C 296.072,99.5473 307.072,93.8806 318.5,89C 322.965,88.1259 327.298,87.2926 331.5,86.5 Z M 391.5,111.5 C 387.886,117.207 383.886,122.707 379.5,128C 386.128,126.119 392.628,123.619 399,120.5C 398.243,116.227 395.743,113.227 391.5,111.5 Z M 408.5,140.5 C 397.721,145.267 386.721,149.767 375.5,154C 388.503,154.5 401.503,155 414.5,155.5C 413.628,150.473 412.628,145.473 411.5,140.5C 410.5,140.5 409.5,140.5 408.5,140.5 Z M 379.5,174.5 C 387.856,178.764 396.023,183.43 404,188.5C 406.684,184.137 408.518,179.47 409.5,174.5C 399.312,174.24 389.312,174.24 379.5,174.5 Z M 268.5,174.5 C 267.432,175.434 266.099,175.768 264.5,175.5C 264.646,179.607 265.98,183.273 268.5,186.5C 273.998,183.585 279.332,180.419 284.5,177C 279.338,175.195 274.004,174.362 268.5,174.5 Z M 365.5,192.5 C 370.226,200.276 374.726,208.276 379,216.5C 382.349,213.318 385.516,209.985 388.5,206.5C 381.5,201.667 374.5,196.833 367.5,192C 366.563,191.308 365.897,191.475 365.5,192.5 Z M 299.5,193.5 C 292.725,197.057 286.058,200.89 279.5,205C 282,207.5 284.5,210 287,212.5C 291.685,206.452 295.851,200.119 299.5,193.5 Z M 343.5,196.5 C 342.226,207.454 341.226,218.454 340.5,229.5C 346.678,228.665 352.344,226.665 357.5,223.5C 353.059,214.282 348.392,205.282 343.5,196.5 Z M 322.5,198.5 C 317.952,207.061 312.952,215.394 307.5,223.5C 311.865,225.955 316.531,227.622 321.5,228.5C 322.083,220.332 322.75,212.166 323.5,204C 323.494,201.967 323.161,200.134 322.5,198.5 Z"/></g>
<g><path style="opacity:1" fill="#b7b895" d="M 342.5,88.5 C 343.5,88.5 344.5,88.5 345.5,88.5C 344.246,106.866 342.579,125.2 340.5,143.5C 339.5,143.5 338.5,143.5 337.5,143.5C 339.107,125.159 340.773,106.825 342.5,88.5 Z"/></g>
<g><path style="opacity:1" fill="#a47e1e" d="M 328.5,90.5 C 330.288,89.3775 332.288,89.2109 334.5,90C 332.663,93.1019 330.663,93.2686 328.5,90.5 Z"/></g>
<g><path style="opacity:1" fill="#6d6e61" d="M 336.5,89.5 C 337.8,91.223 338.467,93.3897 338.5,96C 338.902,104.142 337.402,104.309 334,96.5C 333.275,95.9415 332.442,95.6082 331.5,95.5C 324.206,97.8751 317.04,100.542 310,103.5C 304.975,99.0115 305.808,95.8448 312.5,94C 316.719,92.4079 321.053,91.2413 325.5,90.5C 327.28,92.4438 329.447,93.7771 332,94.5C 334.401,93.6012 335.901,91.9345 336.5,89.5 Z"/></g>
<g><path style="opacity:1" fill="#6a6a5e" d="M 349.5,89.5 C 357.891,88.6681 365.891,90.0014 373.5,93.5C 374.91,96.976 376.243,100.476 377.5,104C 375.126,106.039 373.126,108.372 371.5,111C 364.363,112.934 357.363,115.268 350.5,118C 349.001,119.797 347.501,121.631 346,123.5C 346.905,112.189 348.071,100.856 349.5,89.5 Z"/></g>
<g><path style="opacity:1" fill="#b7b895" d="M 223.5,93.5 C 228.167,93.5 232.833,93.5 237.5,93.5C 237.337,97.7071 237.671,101.874 238.5,106C 234.549,113.993 229.883,114.493 224.5,107.5C 223.615,102.878 223.282,98.2115 223.5,93.5 Z"/></g>
<g><path style="opacity:1" fill="#fefffe" d="M 242.5,95.5 C 250.874,95.3808 251.54,97.3808 244.5,101.5C 242.914,99.8273 242.247,97.8273 242.5,95.5 Z"/></g>
<g><path style="opacity:1" fill="#b97a56" d="M 330.5,96.5 C 331.496,96.4142 332.329,96.7476 333,97.5C 337.072,102.896 338.406,108.896 337,115.5C 331.968,117.789 326.801,119.789 321.5,121.5C 318.863,117.032 316.03,112.698 313,108.5C 311.991,106.975 311.491,105.308 311.5,103.5C 318.282,102.131 324.615,99.7979 330.5,96.5 Z"/></g>
<g><path style="opacity:1" fill="#000000" d="M 399.5,97.5 C 405.158,96.6794 406.825,98.846 404.5,104C 398.741,105.139 397.074,102.972 399.5,97.5 Z"/></g>
<g><path style="opacity:1" fill="#000000" d="M 229.5,99.5 C 235.158,98.6794 236.825,100.846 234.5,106C 228.741,107.139 227.074,104.972 229.5,99.5 Z"/></g>
<g><path style="opacity:1" fill="#b7b895" d="M 302.5,99.5 C 312.019,114.021 321.686,128.521 331.5,143C 330.365,143.749 329.365,143.583 328.5,142.5C 319.043,129.087 309.71,115.587 300.5,102C 301.381,101.292 302.047,100.458 302.5,99.5 Z"/></g>
<g><path style="opacity:1" fill="#c2c3c2" d="M 400.5,99.5 C 401.5,99.5 402.5,99.5 403.5,99.5C 403.5,100.5 403.5,101.5 403.5,102.5C 402.5,102.5 401.5,102.5 400.5,102.5C 400.5,101.5 400.5,100.5 400.5,99.5 Z"/></g>
<g><path style="opacity:1" fill="#b7b895" d="M 385.5,100.5 C 388.907,100.125 389.407,101.125 387,103.5C 376.548,117.62 365.715,131.453 354.5,145C 352.831,145.122 351.165,144.788 349.5,144C 362.089,129.918 374.089,115.418 385.5,100.5 Z"/></g>
<g><path style="opacity:1" fill="#c2c3c2" d="M 230.5,101.5 C 231.5,101.5 232.5,101.5 233.5,101.5C 233.5,102.5 233.5,103.5 233.5,104.5C 232.5,104.5 231.5,104.5 230.5,104.5C 230.5,103.5 230.5,102.5 230.5,101.5 Z"/></g>
<g><path style="opacity:1" fill="#b87a56" d="M 300.5,108.5 C 304.966,113.407 308.966,118.741 312.5,124.5C 308.825,126.45 304.991,128.117 301,129.5C 298.974,128.48 297.641,126.813 297,124.5C 294.844,120.738 294.177,116.738 295,112.5C 296.812,111.023 298.645,109.69 300.5,108.5 Z"/></g>
<g><path style="opacity:1" fill="#fefffe" d="M 390.5,108.5 C 397.274,110.439 401.441,114.772 403,121.5C 392.667,126.167 382.333,130.833 372,135.5C 371.333,134.833 371.333,134.167 372,133.5C 378.384,125.289 384.551,116.956 390.5,108.5 Z M 391.5,111.5 C 387.886,117.207 383.886,122.707 379.5,128C 386.128,126.119 392.628,123.619 399,120.5C 398.243,116.227 395.743,113.227 391.5,111.5 Z"/></g>
<g><path style="opacity:1" fill="#795f47" d="M 219.5,111.5 C 222.32,111.248 224.986,111.748 227.5,113C 229.694,117.651 228.194,120.151 223,120.5C 217.42,119.168 216.253,116.168 219.5,111.5 Z"/></g>
<g><path style="opacity:1" fill="#796046" d="M 208.5,112.5 C 211.167,112.5 213.833,112.5 216.5,112.5C 216.714,114.144 216.38,115.644 215.5,117C 212.808,117.43 210.141,117.263 207.5,116.5C 207.433,115.041 207.766,113.708 208.5,112.5 Z"/></g>
<g><path style="opacity:1" fill="#c2c3c2" d="M 411.5,112.5 C 412.5,112.5 413.5,112.5 414.5,112.5C 414.5,113.5 414.5,114.5 414.5,115.5C 413.5,115.5 412.5,115.5 411.5,115.5C 411.5,114.5 411.5,113.5 411.5,112.5 Z"/></g>
<g><path style="opacity:1" fill="#5d5d42" d="M 294.5,103.5 C 297.55,102.923 299.55,104.09 300.5,107C 298.351,108.164 296.185,109.33 294,110.5C 293.5,112.5 293,114.5 292.5,116.5C 294.304,121.243 296.304,125.91 298.5,130.5C 298.167,130.833 297.833,131.167 297.5,131.5C 290.5,127.667 283.5,123.833 276.5,120C 282.07,113.925 288.07,108.425 294.5,103.5 Z"/></g>
<g><path style="opacity:1" fill="#796046" d="M 229.5,114.5 C 240.167,115.5 240.167,116.5 229.5,117.5C 229.5,116.5 229.5,115.5 229.5,114.5 Z"/></g>
<g><path style="opacity:1" fill="#5e5f40" d="M 365.5,115.5 C 367.225,115.843 367.725,116.843 367,118.5C 360.91,125.755 354.41,132.421 347.5,138.5C 344.732,136.572 343.898,133.905 345,130.5C 346.113,132.329 347.613,133.163 349.5,133C 354.708,128.027 359.041,122.527 362.5,116.5C 363.791,116.737 364.791,116.404 365.5,115.5 Z"/></g>
<g><path style="opacity:1" fill="#45463b" d="M 334.5,118.5 C 335.765,119.514 336.431,121.014 336.5,123C 336.163,126.523 335.663,130.023 335,133.5C 332.931,132.736 330.764,132.236 328.5,132C 326.5,129 324.5,126 322.5,123C 326.715,121.766 330.715,120.266 334.5,118.5 Z"/></g>
<g><path style="opacity:1" fill="#796046" d="M 225.5,125.5 C 223.738,127.417 221.571,128.75 219,129.5C 217.941,129.37 217.108,128.87 216.5,128C 218.98,126.518 221.147,124.685 223,122.5C 224.31,123.13 225.144,124.13 225.5,125.5 Z"/></g>
<g><path style="opacity:1" fill="#b7b895" d="M 272.5,122.5 C 288.847,130.675 304.847,139.508 320.5,149C 317.761,150.673 315.095,150.339 312.5,148C 299.329,140.247 285.995,132.747 272.5,125.5C 271.438,124.575 271.438,123.575 272.5,122.5 Z"/></g>
<g><path style="opacity:1" fill="#c1c1c1" d="M 268.5,90.5 C 272.195,89.8738 273.029,90.8738 271,93.5C 265.356,97.1474 260.356,101.481 256,106.5C 254.872,110.636 252.538,113.969 249,116.5C 246.663,125.217 243.996,134.217 241,143.5C 239.677,149.107 238.677,154.774 238,160.5C 234.994,152.981 232.494,145.314 230.5,137.5C 228.897,137.688 227.563,137.188 226.5,136C 231.499,134.503 236.165,132.336 240.5,129.5C 236.107,126.637 231.44,124.304 226.5,122.5C 227.5,121.667 228.5,120.833 229.5,120C 232.919,119.479 236.252,118.645 239.5,117.5C 240.9,115.218 240.234,113.718 237.5,113C 240.762,109.405 244.762,107.072 249.5,106C 251.734,102.751 254.734,100.751 258.5,100C 262.334,97.3318 265.667,94.1652 268.5,90.5 Z"/></g>
<g><path style="opacity:1" fill="#796046" d="M 225.5,125.5 C 229.266,125.715 232.6,127.049 235.5,129.5C 230.361,132.215 225.028,134.549 219.5,136.5C 216.226,135.53 213.226,134.03 210.5,132C 212.249,129.409 214.249,128.742 216.5,130C 220.923,131.122 223.923,129.622 225.5,125.5 Z"/></g>
<g><path style="opacity:1" fill="#b7b895" d="M 407.5,125.5 C 409.844,125.675 411.511,126.842 412.5,129C 394.459,136.736 376.459,144.569 358.5,152.5C 357.167,151.833 356.167,150.833 355.5,149.5C 372.893,141.468 390.227,133.468 407.5,125.5 Z"/></g>
<g><path style="opacity:1" fill="#45463b" d="M 312.5,126.5 C 313.496,126.414 314.329,126.748 315,127.5C 316.709,130.418 318.542,133.252 320.5,136C 318,137.167 316.167,139 315,141.5C 308.98,139.087 303.813,135.587 299.5,131C 304.109,130.015 308.443,128.515 312.5,126.5 Z"/></g>
<g><path style="opacity:1" fill="#5e5e40" d="M 271.5,129.5 C 278.766,132.801 285.766,136.634 292.5,141C 281.566,144.884 271.066,149.717 261,155.5C 262.625,146.135 266.125,137.469 271.5,129.5 Z"/></g>
<g><path style="opacity:1" fill="#a9a98b" d="M 126.5,182.5 C 126.082,181.778 125.416,181.278 124.5,181C 131.833,177.333 139.167,173.667 146.5,170C 137.27,172.771 128.27,176.438 119.5,181C 120.833,181.333 122.167,181.667 123.5,182C 115.727,185.053 108.06,188.386 100.5,192C 101.094,192.464 101.761,192.631 102.5,192.5C 99.8402,194.497 96.8402,195.997 93.5,197C 92.6195,197.708 91.9528,198.542 91.5,199.5C 90.6236,199.631 89.9569,199.298 89.5,198.5C 90,197.5 90.5,196.5 91,195.5C 94.6584,192.934 98.1584,190.268 101.5,187.5C 102.922,187.291 104.255,186.791 105.5,186C 106.833,185 106.833,184 105.5,183C 107.081,182.293 108.581,181.46 110,180.5C 110.483,181.448 110.649,182.448 110.5,183.5C 114.056,183.725 114.39,182.892 111.5,181C 112.356,179.405 113.689,178.572 115.5,178.5C 117.061,176.079 118.561,176.079 120,178.5C 123.338,178.049 123.838,177.049 121.5,175.5C 122.246,174.264 122.579,172.93 122.5,171.5C 124.792,171.244 126.959,171.577 129,172.5C 142.046,165.896 154.88,159.23 167.5,152.5C 175.205,149.486 182.872,146.153 190.5,142.5C 197.036,140.565 203.036,137.565 208.5,133.5C 211.339,135.42 214.339,137.087 217.5,138.5C 218.833,139.167 218.833,139.833 217.5,140.5C 191.187,153.157 164.52,164.991 137.5,176C 134.212,178.784 130.545,180.95 126.5,182.5 Z"/></g>
<g><path style="opacity:1" fill="#000000" d="M 253.5,133.5 C 259.158,132.679 260.825,134.846 258.5,140C 252.741,141.139 251.074,138.972 253.5,133.5 Z"/></g>
<g><path style="opacity:1" fill="#45463b" d="M 330.5,135.5 C 332.491,134.212 334.158,134.712 335.5,137C 335.138,138.225 334.638,139.391 334,140.5C 332.97,138.654 331.804,136.987 330.5,135.5 Z"/></g>
<g><path style="opacity:1" fill="#c2c3c2" d="M 254.5,135.5 C 255.5,135.5 256.5,135.5 257.5,135.5C 257.5,136.5 257.5,137.5 257.5,138.5C 256.5,138.5 255.5,138.5 254.5,138.5C 254.5,137.5 254.5,136.5 254.5,135.5 Z"/></g>
<g><path style="opacity:1" fill="#fefffe" d="M 411.5,136.5 C 414.803,142.991 416.469,149.991 416.5,157.5C 398.836,156.982 381.17,156.482 363.5,156C 379.702,149.723 395.702,143.223 411.5,136.5 Z M 408.5,140.5 C 397.721,145.267 386.721,149.767 375.5,154C 388.503,154.5 401.503,155 414.5,155.5C 413.628,150.473 412.628,145.473 411.5,140.5C 410.5,140.5 409.5,140.5 408.5,140.5 Z"/></g>
<g><path style="opacity:1" fill="#c2c3c2" d="M 222.5,137.5 C 225.233,137.948 227.399,139.281 229,141.5C 230.975,147.759 233.141,153.925 235.5,160C 232.067,161.543 229.567,160.377 228,156.5C 225.691,150.568 223.191,144.734 220.5,139C 221.416,138.722 222.082,138.222 222.5,137.5 Z"/></g>
<g><path style="opacity:1" fill="#45463b" d="M 320.5,138.5 C 323.37,139.528 325.37,141.528 326.5,144.5C 325.672,145.415 324.672,146.081 323.5,146.5C 321.999,145.248 320.332,144.248 318.5,143.5C 317.417,142.635 317.251,141.635 318,140.5C 318.995,139.934 319.828,139.267 320.5,138.5 Z"/></g>
<g><path style="opacity:1" fill="#c2c3c2" d="M 190.5,142.5 C 182.872,146.153 175.205,149.486 167.5,152.5C 166.127,152.657 164.793,152.49 163.5,152C 171.601,148.344 179.268,144.177 186.5,139.5C 188.483,139.815 189.816,140.815 190.5,142.5 Z"/></g>
<g><path style="opacity:1" fill="#b0b08f" d="M 222.5,151.5 C 213.078,154.709 203.745,158.209 194.5,162C 195.833,162.667 197.167,162.667 198.5,162C 204.007,159.495 209.673,157.828 215.5,157C 213.167,158.167 210.833,159.333 208.5,160.5C 207.167,161.167 207.167,161.833 208.5,162.5C 214.074,159.878 219.741,157.544 225.5,155.5C 225.557,156.609 225.89,157.609 226.5,158.5C 209.605,163.632 192.938,169.465 176.5,176C 177.793,176.49 179.127,176.657 180.5,176.5C 172.791,179.91 164.958,183.243 157,186.5C 156.722,185.584 156.222,184.918 155.5,184.5C 153.782,182.777 152.449,180.777 151.5,178.5C 151.215,176.712 151.548,175.045 152.5,173.5C 174.984,163.424 197.317,153.09 219.5,142.5C 221.365,145.226 222.365,148.226 222.5,151.5 Z"/></g>
<g><path style="opacity:1" fill="#5e5f40" d="M 288.5,145.5 C 289.552,145.351 290.552,145.517 291.5,146C 287.14,154.779 286.14,154.612 288.5,145.5 Z"/></g>
<g><path style="opacity:1" fill="#b7b895" d="M 330.5,145.5 C 337.284,145.08 343.95,145.58 350.5,147C 355.009,150.846 357.175,155.679 357,161.5C 354.494,149.67 347.327,145.17 335.5,148C 323.367,149.127 317.2,155.627 317,167.5C 315.115,156.272 319.615,148.939 330.5,145.5 Z"/></g>
<g><path style="opacity:1" fill="#fefffe" d="M 297.5,146.5 C 304.444,150.345 304.111,151.179 296.5,149C 297.252,148.329 297.586,147.496 297.5,146.5 Z"/></g>
<g><path style="opacity:1" fill="#000000" d="M 248.5,147.5 C 254.158,146.679 255.825,148.846 253.5,154C 247.741,155.139 246.074,152.972 248.5,147.5 Z"/></g>
<g><path style="opacity:1" fill="#c2c3c2" d="M 242.5,149.5 C 243.097,149.735 243.43,150.235 243.5,151C 242.579,156.124 241.912,161.291 241.5,166.5C 242.36,175.277 243.527,183.944 245,192.5C 243.878,190.376 242.378,188.543 240.5,187C 242.23,181.777 241.563,176.944 238.5,172.5C 240.291,164.956 241.624,157.289 242.5,149.5 Z"/></g>
<g><path style="opacity:1" fill="#c2c3c2" d="M 249.5,149.5 C 250.5,149.5 251.5,149.5 252.5,149.5C 252.5,150.5 252.5,151.5 252.5,152.5C 251.5,152.5 250.5,152.5 249.5,152.5C 249.5,151.5 249.5,150.5 249.5,149.5 Z"/></g>
<g><path style="opacity:1" fill="#5e5f40" d="M 335.5,149.5 C 340.267,149.191 344.934,149.691 349.5,151C 351.638,152.422 352.805,154.255 353,156.5C 341.517,149.727 331.85,151.727 324,162.5C 322.927,166.084 322.26,169.75 322,173.5C 317.352,164.613 319.185,157.447 327.5,152C 330.31,151.218 332.977,150.384 335.5,149.5 Z"/></g>
<g><path style="opacity:1" fill="#5e5f40" d="M 274.5,150.5 C 278.521,152.579 282.855,153.912 287.5,154.5C 288.442,154.392 289.275,154.059 290,153.5C 298.133,156.322 306.133,155.989 314,152.5C 317.097,153.289 317.264,154.456 314.5,156C 296.848,157.358 279.181,158.025 261.5,158C 265.896,155.473 270.229,152.973 274.5,150.5 Z"/></g>
<g><path style="opacity:1" fill="#515145" d="M 222.5,151.5 C 223.974,152.436 224.974,153.77 225.5,155.5C 219.741,157.544 214.074,159.878 208.5,162.5C 207.167,161.833 207.167,161.167 208.5,160.5C 210.833,159.333 213.167,158.167 215.5,157C 209.673,157.828 204.007,159.495 198.5,162C 197.167,162.667 195.833,162.667 194.5,162C 203.745,158.209 213.078,154.709 222.5,151.5 Z"/></g>
<g><path style="opacity:1" fill="#5e5f40" d="M 337.5,154.5 C 350.877,154.045 357.377,160.379 357,173.5C 351.17,185.332 342.336,188.165 330.5,182C 321.057,169.83 323.39,160.664 337.5,154.5 Z"/></g>
<g><path style="opacity:1" fill="#5c5c4d" d="M 226.5,158.5 C 226.631,159.376 226.298,160.043 225.5,160.5C 210.768,166.633 195.768,171.966 180.5,176.5C 179.127,176.657 177.793,176.49 176.5,176C 192.938,169.465 209.605,163.632 226.5,158.5 Z"/></g>
<g><path style="opacity:1" fill="#000000" d="M 337.5,158.5 C 348.473,158.305 353.306,163.639 352,174.5C 344.616,185.156 337.282,185.156 330,174.5C 328.485,167.2 330.985,161.867 337.5,158.5 Z"/></g>
<g><path style="opacity:1" fill="#b7b895" d="M 306.5,159.5 C 309.167,159.5 311.833,159.5 314.5,159.5C 314.5,160.833 314.5,162.167 314.5,163.5C 295.482,165.113 276.482,166.779 257.5,168.5C 257.5,166.833 257.5,165.167 257.5,163.5C 274.007,162.489 290.341,161.156 306.5,159.5 Z"/></g>
<g><path style="opacity:1" fill="#a47e1e" d="M 338.5,160.5 C 348.17,161.321 351.67,166.321 349,175.5C 340.667,183.097 334.833,181.43 331.5,170.5C 332.288,166.052 334.621,162.718 338.5,160.5 Z"/></g>
<g><path style="opacity:1" fill="#b7b895" d="M 359.5,161.5 C 379.503,161.677 399.503,162.01 419.5,162.5C 419.5,164.167 419.5,165.833 419.5,167.5C 399.834,167.063 380.167,166.563 360.5,166C 359.62,164.644 359.286,163.144 359.5,161.5 Z"/></g>
<g><path style="opacity:1" fill="#424238" d="M 152.5,165.5 C 153.552,165.351 154.552,165.517 155.5,166C 153.35,167.59 151.017,168.257 148.5,168C 150.066,167.392 151.4,166.558 152.5,165.5 Z"/></g>
<g><path style="opacity:1" fill="#5e5f40" d="M 299.5,167.5 C 302.85,167.335 306.183,167.502 309.5,168C 302.696,170.906 295.696,171.239 288.5,169C 292.356,168.823 296.023,168.323 299.5,167.5 Z"/></g>
<g><path style="opacity:1" fill="#b7b895" d="M 314.5,169.5 C 316.22,170.751 316.553,172.251 315.5,174C 299.5,183.333 283.5,192.667 267.5,202C 265.813,201.807 264.479,200.807 263.5,199C 280.669,189.303 297.669,179.47 314.5,169.5 Z"/></g>
<g><path style="opacity:1" fill="#fefffe" d="M 371.5,172.5 C 374.314,171.835 377.314,171.502 380.5,171.5C 391.496,172.083 402.496,172.583 413.5,173C 411.363,179.777 408.53,186.277 405,192.5C 394.208,185.209 383.042,178.542 371.5,172.5 Z M 379.5,174.5 C 387.856,178.764 396.023,183.43 404,188.5C 406.684,184.137 408.518,179.47 409.5,174.5C 399.312,174.24 389.312,174.24 379.5,174.5 Z"/></g>
<g><path style="opacity:1" fill="#fefffe" d="M 266.5,172.5 C 275.378,172.258 284.045,173.425 292.5,176C 284.167,180.833 275.833,185.667 267.5,190.5C 264.009,185.525 262.009,180.025 261.5,174C 263.382,173.802 265.048,173.302 266.5,172.5 Z M 268.5,174.5 C 267.432,175.434 266.099,175.768 264.5,175.5C 264.646,179.607 265.98,183.273 268.5,186.5C 273.998,183.585 279.332,180.419 284.5,177C 279.338,175.195 274.004,174.362 268.5,174.5 Z"/></g>
<g><path style="opacity:1" fill="#b7b895" d="M 359.5,172.5 C 372.641,180.574 385.975,188.407 399.5,196C 402.051,197.8 404.385,199.8 406.5,202C 405.44,203.298 404.274,204.465 403,205.5C 388.789,195.306 374.289,185.473 359.5,176C 358.829,175.014 358.829,173.847 359.5,172.5 Z"/></g>
<g><path style="opacity:1" fill="#b7b7b7" d="M 151.5,178.5 C 152.449,180.777 153.782,182.777 155.5,184.5C 155.376,186.582 154.376,188.082 152.5,189C 148.5,190.667 144.5,192.333 140.5,194C 138.402,194.678 136.402,194.511 134.5,193.5C 133.537,190.256 132.204,187.256 130.5,184.5C 136.704,180.813 143.204,177.48 150,174.5C 150.21,176.058 150.71,177.391 151.5,178.5 Z"/></g>
<g><path style="opacity:1" fill="#000000" d="M 423.5,177.5 C 429.158,176.679 430.825,178.846 428.5,184C 422.741,185.139 421.074,182.972 423.5,177.5 Z"/></g>
<g><path style="opacity:1" fill="#000000" d="M 115.5,178.5 C 116.756,178.461 117.756,178.961 118.5,180C 117.002,180.585 116.002,180.085 115.5,178.5 Z"/></g>
<g><path style="opacity:1" fill="#b7b895" d="M 320.5,179.5 C 322.446,180.254 323.279,181.588 323,183.5C 313.167,198.5 303.333,213.5 293.5,228.5C 291.003,228.065 289.837,226.731 290,224.5C 300.388,209.619 310.555,194.619 320.5,179.5 Z"/></g>
<g><path style="opacity:1" fill="#c2c3c2" d="M 424.5,179.5 C 425.5,179.5 426.5,179.5 427.5,179.5C 427.5,180.5 427.5,181.5 427.5,182.5C 426.5,182.5 425.5,182.5 424.5,182.5C 424.5,181.5 424.5,180.5 424.5,179.5 Z"/></g>
<g><path style="opacity:1" fill="#fefffe" d="M 358.5,183.5 C 370.266,190.75 381.932,198.25 393.5,206C 389.5,210 385.5,214 381.5,218C 380.241,218.982 378.908,219.315 377.5,219C 370.908,207.258 364.575,195.425 358.5,183.5 Z M 365.5,192.5 C 370.226,200.276 374.726,208.276 379,216.5C 382.349,213.318 385.516,209.985 388.5,206.5C 381.5,201.667 374.5,196.833 367.5,192C 366.563,191.308 365.897,191.475 365.5,192.5 Z"/></g>
<g><path style="opacity:1" fill="#5d5d4f" d="M 126.5,182.5 C 118.504,185.831 110.504,189.164 102.5,192.5C 101.761,192.631 101.094,192.464 100.5,192C 108.06,188.386 115.727,185.053 123.5,182C 122.167,181.667 120.833,181.333 119.5,181C 128.27,176.438 137.27,172.771 146.5,170C 139.167,173.667 131.833,177.333 124.5,181C 125.416,181.278 126.082,181.778 126.5,182.5 Z"/></g>
<g><path style="opacity:1" fill="#a3a386" d="M 130.5,184.5 C 132.204,187.256 133.537,190.256 134.5,193.5C 129.947,194.78 125.947,197.113 122.5,200.5C 121.554,200.013 120.554,199.68 119.5,199.5C 116.281,200.693 113.114,202.026 110,203.5C 108.287,202.047 106.787,202.214 105.5,204C 105.833,204.333 106.167,204.667 106.5,205C 104.655,206.128 102.655,206.628 100.5,206.5C 100.167,205.833 99.8333,205.167 99.5,204.5C 99.5,203.167 99.5,201.833 99.5,200.5C 98.7375,199.732 97.7375,199.232 96.5,199C 107.665,193.671 118.998,188.837 130.5,184.5 Z"/></g>
<g><path style="opacity:1" fill="#fefffe" d="M 307.5,184.5 C 309.646,184.696 309.812,185.696 308,187.5C 301.087,196.993 294.42,206.659 288,216.5C 283.167,213 279,208.833 275.5,204C 286.397,197.726 297.064,191.226 307.5,184.5 Z M 299.5,193.5 C 292.725,197.057 286.058,200.89 279.5,205C 282,207.5 284.5,210 287,212.5C 291.685,206.452 295.851,200.119 299.5,193.5 Z"/></g>
<g><path style="opacity:1" fill="#b7b895" d="M 350.5,184.5 C 358.97,199.166 367.303,214 375.5,229C 373.854,230.401 372.187,230.568 370.5,229.5C 363.565,215.129 356.231,200.963 348.5,187C 349.381,186.292 350.047,185.458 350.5,184.5 Z"/></g>
<g><path style="opacity:1" fill="#b7b895" d="M 332.5,185.5 C 333.708,186.234 335.041,186.567 336.5,186.5C 335.166,203.508 333.666,220.508 332,237.5C 330.951,239.107 329.451,239.773 327.5,239.5C 329.497,221.535 331.164,203.535 332.5,185.5 Z"/></g>
<g><path style="opacity:1" fill="#262626" d="M 101.5,187.5 C 98.1584,190.268 94.6584,192.934 91,195.5C 90.5,196.5 90,197.5 89.5,198.5C 89.9569,199.298 90.6236,199.631 91.5,199.5C 93.539,200.672 94.8724,202.338 95.5,204.5C 96.8333,204.5 98.1667,204.5 99.5,204.5C 99.8333,205.167 100.167,205.833 100.5,206.5C 101.141,207.482 101.807,208.482 102.5,209.5C 93.9889,215.029 84.6556,217.029 74.5,215.5C 78.2672,214.903 81.9339,213.903 85.5,212.5C 88.2646,212.202 90.7646,211.202 93,209.5C 94.1667,205.333 92.6667,203.833 88.5,205C 83.7563,208.975 78.423,210.475 72.5,209.5C 71.9724,207.664 71.3058,205.997 70.5,204.5C 70.33,203.178 70.6634,202.011 71.5,201C 61.1506,200.832 50.8173,200.332 40.5,199.5C 39.6519,198.009 38.3186,197.342 36.5,197.5C 33.9722,197.763 31.6389,198.596 29.5,200C 22.4571,201.404 20.7904,199.071 24.5,193C 25.5,192.333 26.5,192.333 27.5,193C 22.3196,195.749 22.4862,197.249 28,197.5C 29.3513,195.981 30.8513,194.648 32.5,193.5C 39.0756,193.795 45.4089,195.128 51.5,197.5C 53.6633,197.255 55.33,196.255 56.5,194.5C 64.4793,193.668 72.4793,193.168 80.5,193C 81.5523,189.777 83.5523,187.277 86.5,185.5C 87.901,187.277 89.401,188.944 91,190.5C 93.7751,188.741 96.7751,187.408 100,186.5C 100.765,186.57 101.265,186.903 101.5,187.5 Z"/></g>
<g><path style="opacity:1" fill="#fefffe" d="M 325.5,188.5 C 326.161,190.134 326.494,191.967 326.5,194C 325.417,206.166 324.417,218.332 323.5,230.5C 316.401,230.189 309.734,228.355 303.5,225C 311.233,213.027 318.566,200.86 325.5,188.5 Z M 322.5,198.5 C 317.952,207.061 312.952,215.394 307.5,223.5C 311.865,225.955 316.531,227.622 321.5,228.5C 322.083,220.332 322.75,212.166 323.5,204C 323.494,201.967 323.161,200.134 322.5,198.5 Z"/></g>
<g><path style="opacity:1" fill="#000000" d="M 424.5,194.5 C 419.028,196.926 416.861,195.259 418,189.5C 423.154,187.175 425.321,188.842 424.5,194.5 Z"/></g>
<g><path style="opacity:1" fill="#fefffe" d="M 341.5,189.5 C 342.496,189.414 343.329,189.748 344,190.5C 349.833,202.167 355.667,213.833 361.5,225.5C 354.255,229.138 346.588,231.138 338.5,231.5C 339.279,217.483 340.279,203.483 341.5,189.5 Z M 343.5,196.5 C 342.226,207.454 341.226,218.454 340.5,229.5C 346.678,228.665 352.344,226.665 357.5,223.5C 353.059,214.282 348.392,205.282 343.5,196.5 Z"/></g>
<g><path style="opacity:1" fill="#c2c3c2" d="M 419.5,190.5 C 420.5,190.5 421.5,190.5 422.5,190.5C 422.5,191.5 422.5,192.5 422.5,193.5C 421.5,193.5 420.5,193.5 419.5,193.5C 419.5,192.5 419.5,191.5 419.5,190.5 Z"/></g>
<g><path style="opacity:1" fill="#c2c3c2" d="M 99.5,200.5 C 99.5,201.833 99.5,203.167 99.5,204.5C 98.1667,204.5 96.8333,204.5 95.5,204.5C 95.5,203.167 95.5,201.833 95.5,200.5C 96.8333,200.5 98.1667,200.5 99.5,200.5 Z"/></g>
<g><path style="opacity:1" fill="#c2c3c2" d="M 70.5,204.5 C 70.5,205.833 70.5,207.167 70.5,208.5C 69.0413,208.567 67.7079,208.234 66.5,207.5C 65.0536,206.387 63.3869,206.22 61.5,207C 60.1991,208.616 60.1991,210.116 61.5,211.5C 65.7808,212.727 70.1141,214.06 74.5,215.5C 61.938,217.209 51.2714,213.376 42.5,204C 51.9109,203.195 61.2443,203.362 70.5,204.5 Z"/></g>
<g><path style="opacity:1" fill="#000000" d="M 70.5,204.5 C 71.3058,205.997 71.9724,207.664 72.5,209.5C 78.423,210.475 83.7563,208.975 88.5,205C 92.6667,203.833 94.1667,205.333 93,209.5C 90.7646,211.202 88.2646,212.202 85.5,212.5C 81.9339,213.903 78.2672,214.903 74.5,215.5C 70.1141,214.06 65.7808,212.727 61.5,211.5C 63.1667,211.5 64.8333,211.5 66.5,211.5C 66.5,210.167 66.5,208.833 66.5,207.5C 67.7079,208.234 69.0413,208.567 70.5,208.5C 70.5,207.167 70.5,205.833 70.5,204.5 Z"/></g>
<g><path style="opacity:1" fill="#c2c3c2" d="M 85.5,212.5 C 82.353,212.923 79.1864,213.256 76,213.5C 73.2073,213.695 70.7073,213.029 68.5,211.5C 72.9953,211.52 77.662,211.354 82.5,211C 85.0048,209.247 87.6714,207.747 90.5,206.5C 90.8333,206.833 91.1667,207.167 91.5,207.5C 89.0592,208.709 87.0592,210.376 85.5,212.5 Z"/></g>
<g><path style="opacity:1" fill="#8a8a8a" d="M 66.5,207.5 C 66.5,208.833 66.5,210.167 66.5,211.5C 64.8333,211.5 63.1667,211.5 61.5,211.5C 60.1991,210.116 60.1991,208.616 61.5,207C 63.3869,206.22 65.0536,206.387 66.5,207.5 Z"/></g>
<g><path style="opacity:1" fill="#5e5f40" d="M 400.5,207.5 C 401.239,207.369 401.906,207.536 402.5,208C 396.077,215.425 388.744,221.759 380.5,227C 379.833,227.667 379.167,227.667 378.5,227C 386.325,221.006 393.658,214.506 400.5,207.5 Z"/></g>
<g><path style="opacity:1" fill="#000000" d="M 264.5,213.5 C 270.158,212.679 271.825,214.846 269.5,220C 263.741,221.139 262.074,218.972 264.5,213.5 Z"/></g>
<g><path style="opacity:1" fill="#c2c3c2" d="M 265.5,215.5 C 266.5,215.5 267.5,215.5 268.5,215.5C 268.5,216.5 268.5,217.5 268.5,218.5C 267.5,218.5 266.5,218.5 265.5,218.5C 265.5,217.5 265.5,216.5 265.5,215.5 Z"/></g>
<g><path style="opacity:1" fill="#c2c3c2" d="M 276.5,227.5 C 277.5,227.5 278.5,227.5 279.5,227.5C 279.5,228.5 279.5,229.5 279.5,230.5C 278.5,230.5 277.5,230.5 276.5,230.5C 276.5,229.5 276.5,228.5 276.5,227.5 Z"/></g>
<g><path style="opacity:1" fill="#5e5f40" d="M 296.5,230.5 C 302.888,230.62 309.221,232.12 315.5,235C 318.757,236.043 322.09,236.543 325.5,236.5C 325.5,237.5 325.5,238.5 325.5,239.5C 321.753,239.608 318.086,239.108 314.5,238C 308.364,235.763 302.364,233.263 296.5,230.5 Z"/></g>
<g><path style="opacity:1" fill="#5e5f40" d="M 365.5,230.5 C 367.103,230.312 368.437,230.812 369.5,232C 366.446,234.194 363.112,235.861 359.5,237C 351.581,238.758 343.581,239.925 335.5,240.5C 335.5,239.5 335.5,238.5 335.5,237.5C 346.115,237.345 356.115,235.011 365.5,230.5 Z"/></g>
<g><path style="opacity:1" fill="#000000" d="M 361.5,239.5 C 367.158,238.679 368.825,240.846 366.5,246C 360.741,247.139 359.074,244.972 361.5,239.5 Z"/></g>
<g><path style="opacity:1" fill="#c2c3c2" d="M 362.5,241.5 C 363.5,241.5 364.5,241.5 365.5,241.5C 365.5,242.5 365.5,243.5 365.5,244.5C 364.5,244.5 363.5,244.5 362.5,244.5C 362.5,243.5 362.5,242.5 362.5,241.5 Z"/></g>
<g><path style="opacity:1" fill="#000000" d="M 342.5,243.5 C 348.158,242.679 349.825,244.846 347.5,250C 341.741,251.139 340.074,248.972 342.5,243.5 Z"/></g>
<g><path style="opacity:1" fill="#c2c3c2" d="M 343.5,245.5 C 344.5,245.5 345.5,245.5 346.5,245.5C 346.5,246.5 346.5,247.5 346.5,248.5C 345.5,248.5 344.5,248.5 343.5,248.5C 343.5,247.5 343.5,246.5 343.5,245.5 Z"/></g>
</svg>
