<?xml version="1.0" encoding="UTF-8"?>
<!DOCTYPE svg PUBLIC "-//W3C//DTD SVG 1.1//EN" "http://www.w3.org/Graphics/SVG/1.1/DTD/svg11.dtd">
<svg xmlns="http://www.w3.org/2000/svg" version="1.1" width="495px" height="495px" style="shape-rendering:geometricPrecision; text-rendering:geometricPrecision; image-rendering:optimizeQuality; fill-rule:evenodd; clip-rule:evenodd" xmlns:xlink="http://www.w3.org/1999/xlink">
<g><path style="opacity:1" fill="#fefffe" d="M 313.5,47.5 C 317.846,47.3343 322.179,47.501 326.5,48C 327,48.5 327.5,49 328,49.5C 329.837,57.0807 328.337,63.7474 323.5,69.5C 324.333,71.1667 325.167,72.8333 326,74.5C 326.173,78.5408 326.673,82.5408 327.5,86.5C 332.299,88.4387 336.299,87.4387 339.5,83.5C 340.124,78.4707 340.958,73.4707 342,68.5C 343.699,67.5939 345.533,67.2606 347.5,67.5C 346.769,63.3966 347.769,59.8966 350.5,57C 355.202,56.8283 359.868,56.3283 364.5,55.5C 364.977,54.5224 365.643,53.6891 366.5,53C 381.1,49.2672 386.933,54.7672 384,69.5C 381.679,72.0583 381.346,74.725 383,77.5C 383.667,81.1667 383.667,84.8333 383,88.5C 380.667,90.5 378.333,92.5 376,94.5C 374.826,98.0458 374.16,101.713 374,105.5C 372.211,107.229 370.044,107.896 367.5,107.5C 367.649,108.552 367.483,109.552 367,110.5C 364.532,111.104 362.532,112.438 361,114.5C 360.934,118.233 360.101,121.733 358.5,125C 351.294,126.849 343.961,128.015 336.5,128.5C 333.941,130.952 332.441,133.952 332,137.5C 328.527,140.061 325.527,143.061 323,146.5C 322.333,149.833 322.333,153.167 323,156.5C 377.957,210.798 432.29,264.465 486,317.5C 486.667,322.167 486.667,326.833 486,331.5C 480.918,332.637 475.751,332.804 470.5,332C 454.833,316.333 439.167,300.667 423.5,285C 393.227,279.399 362.894,274.232 332.5,269.5C 342.122,316.547 335.622,361.214 313,403.5C 306.224,413.276 298.39,422.109 289.5,430C 268.536,442.493 247.536,442.493 226.5,430C 212.031,415.555 204.198,398.055 203,377.5C 202.186,364.454 202.353,351.454 203.5,338.5C 196.946,336.194 190.28,334.194 183.5,332.5C 179.118,336.897 174.951,341.563 171,346.5C 145.377,382.913 119.877,419.413 94.5,456C 87.7015,457.146 81.2015,456.313 75,453.5C 72.2682,456.7 70.2682,460.366 69,464.5C 66.2586,467.792 62.7586,469.959 58.5,471C 51.9159,472.141 45.5826,471.474 39.5,469C 38.8095,467.933 38.3095,466.766 38,465.5C 37.3333,459.5 37.3333,453.5 38,447.5C 42.3203,444.011 41.9869,440.677 37,437.5C 32.454,442.377 28.2873,447.544 24.5,453C 19.7013,454.748 14.868,454.915 10,453.5C 9.33333,448.833 9.33333,444.167 10,439.5C 24.1172,420.381 38.6172,401.548 53.5,383C 41.38,367.653 34.5467,350.153 33,330.5C 31.003,304.145 34.3364,278.479 43,253.5C 51.313,233.37 64.4797,217.204 82.5,205C 85.2442,204.197 87.9109,203.197 90.5,202C 120.051,193.741 143.551,201.908 161,226.5C 162.442,229.05 163.608,231.716 164.5,234.5C 165.002,235.521 165.668,235.688 166.5,235C 200.637,189.896 235.137,145.063 270,100.5C 270.333,96.8333 270.667,93.1667 271,89.5C 273.041,88.5769 275.208,88.2436 277.5,88.5C 277.336,85.8127 277.503,83.146 278,80.5C 279.011,79.6634 280.178,79.33 281.5,79.5C 280.896,74.8057 281.729,70.4724 284,66.5C 286.381,65.565 288.881,65.2317 291.5,65.5C 290.994,61.9929 291.66,58.8263 293.5,56C 298.5,55.6667 303.5,55.3333 308.5,55C 310.389,52.6182 312.055,50.1182 313.5,47.5 Z M 305.5,168.5 C 337.249,198.748 368.583,229.581 399.5,261C 374.486,257.199 349.486,252.866 324.5,248C 320.055,238.555 313.221,231.388 304,226.5C 299.296,214.262 294.463,202.095 289.5,190C 294.964,182.893 300.298,175.726 305.5,168.5 Z M 256.5,180.5 C 258.989,180.298 261.323,180.798 263.5,182C 262.845,183.487 261.845,184.653 260.5,185.5C 258.556,184.811 256.556,184.311 254.5,184C 255.823,183.184 256.489,182.017 256.5,180.5 Z M 239.5,203.5 C 241.167,203.5 242.833,203.5 244.5,203.5C 243.767,210.274 240.433,212.274 234.5,209.5C 236.19,207.481 237.856,205.481 239.5,203.5 Z M 274.5,208.5 C 275.75,208.577 276.583,209.244 277,210.5C 278.807,214.756 280.307,219.089 281.5,223.5C 279.833,223.5 278.167,223.5 276.5,223.5C 275.816,219.429 274.816,215.429 273.5,211.5C 274.127,210.583 274.461,209.583 274.5,208.5 Z M 221.5,225.5 C 223.801,226.06 226.134,226.56 228.5,227C 226.279,230.722 223.279,233.556 219.5,235.5C 217.803,235.101 216.137,234.601 214.5,234C 217.423,231.584 219.757,228.75 221.5,225.5 Z M 109.5,228.5 C 110.5,228.5 111.5,228.5 112.5,228.5C 112.665,231.85 112.498,235.183 112,238.5C 110.627,235.588 109.127,232.754 107.5,230C 108.416,229.722 109.082,229.222 109.5,228.5 Z M 88.5,242.5 C 89.5783,244.539 90.5783,246.706 91.5,249C 88.8801,251.862 86.8801,251.195 85.5,247C 86.3146,245.357 87.3146,243.857 88.5,242.5 Z M 202.5,250.5 C 207.485,251.392 207.819,253.226 203.5,256C 201.833,256.667 200.167,256.667 198.5,256C 199.965,254.226 201.298,252.392 202.5,250.5 Z M 71.5,267.5 C 72.2389,267.369 72.9056,267.536 73.5,268C 76.464,271.966 79.7974,275.633 83.5,279C 82.8333,280 82.1667,281 81.5,282C 76.9666,281.241 72.4666,280.074 68,278.5C 68.5451,274.717 69.7117,271.05 71.5,267.5 Z M 304.5,296.5 C 305.117,296.611 305.617,296.944 306,297.5C 306.497,300.146 306.664,302.813 306.5,305.5C 303.624,305.927 300.791,306.594 298,307.5C 297.5,307.167 297,306.833 296.5,306.5C 299.57,303.436 302.237,300.103 304.5,296.5 Z M 63.5,297.5 C 70.5896,299.641 77.5896,301.974 84.5,304.5C 77.1818,308.66 69.5151,311.993 61.5,314.5C 61.7582,308.769 62.4248,303.102 63.5,297.5 Z M 301.5,326.5 C 302.833,326.5 304.167,326.5 305.5,326.5C 304.884,330.863 304.05,335.197 303,339.5C 300,337.5 297,335.5 294,333.5C 293.506,331.866 293.34,330.199 293.5,328.5C 296.428,328.435 299.095,327.768 301.5,326.5 Z M 78.5,330.5 C 79.2389,330.369 79.9056,330.536 80.5,331C 76.6667,335.5 72.8333,340 69,344.5C 67.0811,341.626 66.5811,338.626 67.5,335.5C 71.3528,334.004 75.0195,332.338 78.5,330.5 Z M 288.5,356.5 C 291.052,357.693 293.552,359.027 296,360.5C 296.236,362.3 295.736,363.966 294.5,365.5C 291.748,362.996 289.748,359.996 288.5,356.5 Z M 276.5,381.5 C 278.497,383.513 280.164,385.846 281.5,388.5C 280.833,389.833 279.833,390.833 278.5,391.5C 277.402,388.247 276.736,384.914 276.5,381.5 Z"/></g>
<g><path style="opacity:1" fill="#000000" d="M 315.5,49.5 C 325.509,47.6789 329.009,51.6789 326,61.5C 324.167,64 322.333,66.5 320.5,69C 322.546,72.5912 323.88,76.4246 324.5,80.5C 324.35,83.5938 323.35,86.2605 321.5,88.5C 326.813,89.3619 332.146,89.5285 337.5,89C 339.624,87.1372 341.624,85.1372 343.5,83C 342.183,78.8252 342.349,74.6585 344,70.5C 345.699,69.5939 347.533,69.2606 349.5,69.5C 348.769,65.3966 349.769,61.8966 352.5,59C 357.202,58.8283 361.868,58.3283 366.5,57.5C 368.091,55.0162 370.425,54.0162 373.5,54.5C 377.688,53.8538 380.522,55.5204 382,59.5C 383.22,64.9072 382.053,69.7405 378.5,74C 383.712,81.8917 382.212,88.0583 374,92.5C 372.826,96.0458 372.16,99.7125 372,103.5C 370.211,105.229 368.044,105.896 365.5,105.5C 365.649,106.552 365.483,107.552 365,108.5C 362.532,109.104 360.532,110.438 359,112.5C 358.934,116.233 358.101,119.733 356.5,123C 354.122,123.511 351.788,124.178 349.5,125C 344.465,125.384 339.632,125.551 335,125.5C 332.274,128.286 330.607,131.619 330,135.5C 326,138.167 322.667,141.5 320,145.5C 320.579,149.528 320.579,153.528 320,157.5C 375.29,212.131 429.957,266.131 484,319.5C 484.667,322.833 484.667,326.167 484,329.5C 480.256,330.626 476.423,330.793 472.5,330C 456.833,314.333 441.167,298.667 425.5,283C 394.186,277.392 362.853,271.892 331.5,266.5C 330.5,266.833 329.5,267.167 328.5,267.5C 334.076,286.441 335.909,305.775 334,325.5C 331.326,356.822 321.326,385.489 304,411.5C 283.383,438.282 258.216,443.782 228.5,428C 216.105,415.71 208.605,400.877 206,383.5C 204.206,367.515 204.04,351.515 205.5,335.5C 199.144,334.161 192.811,332.661 186.5,331C 185.54,329.581 184.707,328.081 184,326.5C 152.453,367.914 122.119,410.248 93,453.5C 86.0521,454.863 79.3854,453.863 73,450.5C 70.4097,454.156 68.4097,458.156 67,462.5C 59.31,470.049 50.6433,471.382 41,466.5C 37.4111,457.166 39.2445,449.333 46.5,443C 42.3232,440.141 39.4899,436.308 38,431.5C 32.713,437.909 27.5464,444.409 22.5,451C 12.4254,455.261 8.92537,452.095 12,441.5C 27.0255,421.975 41.8588,402.308 56.5,382.5C 43.7641,366.807 36.5974,348.807 35,328.5C 33.0981,300.813 37.4314,274.146 48,248.5C 52.6667,241.167 57.3333,233.833 62,226.5C 79.1759,204.679 101.343,197.179 128.5,204C 146.424,210.924 158.591,223.424 165,241.5C 201.409,194.347 237.576,147.013 273.5,99.5C 270.626,92.8873 272.626,89.8873 279.5,90.5C 279.336,87.8127 279.503,85.146 280,82.5C 281.734,81.7511 283.567,81.2511 285.5,81C 282.633,76.409 282.966,72.0756 286.5,68C 288.81,67.5034 291.143,67.3367 293.5,67.5C 292.994,63.9929 293.66,60.8263 295.5,58C 300.5,57.6667 305.5,57.3333 310.5,57C 312.389,54.6182 314.055,52.1182 315.5,49.5 Z M 305.5,168.5 C 300.298,175.726 294.964,182.893 289.5,190C 294.463,202.095 299.296,214.262 304,226.5C 313.221,231.388 320.055,238.555 324.5,248C 349.486,252.866 374.486,257.199 399.5,261C 368.583,229.581 337.249,198.748 305.5,168.5 Z M 256.5,180.5 C 256.489,182.017 255.823,183.184 254.5,184C 256.556,184.311 258.556,184.811 260.5,185.5C 261.845,184.653 262.845,183.487 263.5,182C 261.323,180.798 258.989,180.298 256.5,180.5 Z M 239.5,203.5 C 237.856,205.481 236.19,207.481 234.5,209.5C 240.433,212.274 243.767,210.274 244.5,203.5C 242.833,203.5 241.167,203.5 239.5,203.5 Z M 274.5,208.5 C 274.461,209.583 274.127,210.583 273.5,211.5C 274.816,215.429 275.816,219.429 276.5,223.5C 278.167,223.5 279.833,223.5 281.5,223.5C 280.307,219.089 278.807,214.756 277,210.5C 276.583,209.244 275.75,208.577 274.5,208.5 Z M 221.5,225.5 C 219.757,228.75 217.423,231.584 214.5,234C 216.137,234.601 217.803,235.101 219.5,235.5C 223.279,233.556 226.279,230.722 228.5,227C 226.134,226.56 223.801,226.06 221.5,225.5 Z M 109.5,228.5 C 109.082,229.222 108.416,229.722 107.5,230C 109.127,232.754 110.627,235.588 112,238.5C 112.498,235.183 112.665,231.85 112.5,228.5C 111.5,228.5 110.5,228.5 109.5,228.5 Z M 88.5,242.5 C 87.3146,243.857 86.3146,245.357 85.5,247C 86.8801,251.195 88.8801,251.862 91.5,249C 90.5783,246.706 89.5783,244.539 88.5,242.5 Z M 202.5,250.5 C 201.298,252.392 199.965,254.226 198.5,256C 200.167,256.667 201.833,256.667 203.5,256C 207.819,253.226 207.485,251.392 202.5,250.5 Z M 71.5,267.5 C 69.7117,271.05 68.5451,274.717 68,278.5C 72.4666,280.074 76.9666,281.241 81.5,282C 82.1667,281 82.8333,280 83.5,279C 79.7974,275.633 76.464,271.966 73.5,268C 72.9056,267.536 72.2389,267.369 71.5,267.5 Z M 304.5,296.5 C 302.237,300.103 299.57,303.436 296.5,306.5C 297,306.833 297.5,307.167 298,307.5C 300.791,306.594 303.624,305.927 306.5,305.5C 306.664,302.813 306.497,300.146 306,297.5C 305.617,296.944 305.117,296.611 304.5,296.5 Z M 63.5,297.5 C 62.4248,303.102 61.7582,308.769 61.5,314.5C 69.5151,311.993 77.1818,308.66 84.5,304.5C 77.5896,301.974 70.5896,299.641 63.5,297.5 Z M 301.5,326.5 C 299.095,327.768 296.428,328.435 293.5,328.5C 293.34,330.199 293.506,331.866 294,333.5C 297,335.5 300,337.5 303,339.5C 304.05,335.197 304.884,330.863 305.5,326.5C 304.167,326.5 302.833,326.5 301.5,326.5 Z M 78.5,330.5 C 75.0195,332.338 71.3528,334.004 67.5,335.5C 66.5811,338.626 67.0811,341.626 69,344.5C 72.8333,340 76.6667,335.5 80.5,331C 79.9056,330.536 79.2389,330.369 78.5,330.5 Z M 288.5,356.5 C 289.748,359.996 291.748,362.996 294.5,365.5C 295.736,363.966 296.236,362.3 296,360.5C 293.552,359.027 291.052,357.693 288.5,356.5 Z M 276.5,381.5 C 276.736,384.914 277.402,388.247 278.5,391.5C 279.833,390.833 280.833,389.833 281.5,388.5C 280.164,385.846 278.497,383.513 276.5,381.5 Z"/></g>
<g><path style="opacity:1" fill="#cb9d83" d="M 319.5,54.5 C 320.478,54.811 321.145,55.4777 321.5,56.5C 319.862,59.3041 318.029,61.9708 316,64.5C 315.626,63.5838 315.126,62.7504 314.5,62C 316.415,59.6004 318.081,57.1004 319.5,54.5 Z"/></g>
<g><path style="opacity:1" fill="#744830" d="M 372.5,59.5 C 374.844,59.979 376.178,61.479 376.5,64C 375.804,65.8928 374.97,67.7262 374,69.5C 373.235,66.8041 372.068,64.3041 370.5,62C 371.381,61.2917 372.047,60.4584 372.5,59.5 Z"/></g>
<g><path style="opacity:1" fill="#6a6b6a" d="M 298.5,61.5 C 302.846,61.3343 307.179,61.501 311.5,62C 314.884,67.9365 317.884,74.1032 320.5,80.5C 319.833,81.8333 319.167,81.8333 318.5,80.5C 316.762,74.5255 314.096,69.0255 310.5,64C 307.167,63.3333 303.833,63.3333 300.5,64C 300.166,66.0014 300.166,67.8347 300.5,69.5C 297.632,67.3615 296.965,64.6948 298.5,61.5 Z"/></g>
<g><path style="opacity:1" fill="#6a6b6a" d="M 355.5,62.5 C 359.514,62.3345 363.514,62.5012 367.5,63C 368.308,63.3076 368.975,63.8076 369.5,64.5C 365.769,64.4548 361.769,64.6214 357.5,65C 357.067,67.1724 356.734,69.3391 356.5,71.5C 353.694,68.5382 353.361,65.5382 355.5,62.5 Z"/></g>
<g><path style="opacity:1" fill="#744830" d="M 365.5,66.5 C 370.516,70.1629 370.349,73.4962 365,76.5C 363.177,73.1013 363.344,69.7679 365.5,66.5 Z"/></g>
<g><path style="opacity:1" fill="#cb9d83" d="M 308.5,67.5 C 309.922,67.7496 310.922,68.583 311.5,70C 309.697,70.6368 308.364,71.8035 307.5,73.5C 307.167,73 306.833,72.5 306.5,72C 307.414,70.5936 308.08,69.0936 308.5,67.5 Z"/></g>
<g><path style="opacity:1" fill="#6a6b6a" d="M 309.5,84.5 C 307.03,81.1767 304.696,77.6767 302.5,74C 298.833,73.3333 295.167,73.3333 291.5,74C 291.036,76.405 290.869,78.905 291,81.5C 289.961,79.2537 288.794,77.087 287.5,75C 288.357,74.3109 289.023,73.4776 289.5,72.5C 294.131,71.3384 298.798,71.1717 303.5,72C 305.095,75.8581 307.428,79.1914 310.5,82C 309.748,82.6708 309.414,83.5041 309.5,84.5 Z"/></g>
<g><path style="opacity:1" fill="#6a6b6a" d="M 347.5,73.5 C 352.214,73.1734 356.88,73.5067 361.5,74.5C 364.986,79.4236 367.153,84.757 368,90.5C 366.148,87.2895 364.481,83.9561 363,80.5C 359.806,75.4871 355.306,73.6537 349.5,75C 348.729,77.4402 348.562,79.9402 349,82.5C 346.287,79.8638 345.787,76.8638 347.5,73.5 Z"/></g>
<g><path style="opacity:1" fill="#d28641" d="M 297.5,75.5 C 299.716,75.2746 301.383,76.1079 302.5,78C 300.506,80.8274 298.172,83.3274 295.5,85.5C 294.328,85.0814 293.328,84.4147 292.5,83.5C 294.689,81.1133 296.356,78.4466 297.5,75.5 Z"/></g>
<g><path style="opacity:1" fill="#697076" d="M 313.5,84.5 C 294.89,110.051 275.557,135.051 255.5,159.5C 254.577,160.303 253.577,160.47 252.5,160C 253.88,158.075 255.38,156.241 257,154.5C 257.425,151.328 257.091,148.328 256,145.5C 258.015,146.842 260.182,147.342 262.5,147C 269.003,137.783 275.837,128.95 283,120.5C 283.667,118.833 283.667,117.167 283,115.5C 280.599,116.602 278.099,116.769 275.5,116C 277.312,113.14 279.646,110.973 282.5,109.5C 283.832,110.83 284.665,112.497 285,114.5C 285.513,113.473 286.013,112.473 286.5,111.5C 293.869,103.465 300.869,95.1317 307.5,86.5C 308.833,86.5 309.5,85.8333 309.5,84.5C 311.252,84.5824 312.252,83.7491 312.5,82C 311.711,80.3745 310.711,78.8745 309.5,77.5C 310.667,75.8333 311.833,74.1667 313,72.5C 314.167,75.5 315.333,78.5 316.5,81.5C 315.23,82.2876 314.23,83.2876 313.5,84.5 Z"/></g>
<g><path style="opacity:1" fill="#6a6b6a" d="M 373.5,75.5 C 375.227,77.5157 376.061,79.849 376,82.5C 374.477,80.4308 373.643,78.0974 373.5,75.5 Z"/></g>
<g><path style="opacity:1" fill="#d28641" d="M 355.5,77.5 C 357.252,77.4176 358.252,78.2509 358.5,80C 357.464,81.9014 356.298,83.7348 355,85.5C 354.097,84.2986 352.931,83.4652 351.5,83C 352.965,81.2258 354.298,79.3925 355.5,77.5 Z"/></g>
<g><path style="opacity:1" fill="#7d858c" d="M 369.5,75.5 C 370.126,78.0765 371.46,80.7431 373.5,83.5C 372.52,84.9814 371.353,86.3147 370,87.5C 367.983,84.6595 366.816,81.8262 366.5,79C 367.544,77.8261 368.544,76.6594 369.5,75.5 Z"/></g>
<g><path style="opacity:1" fill="#838d93" d="M 305.5,84.5 C 303.177,87.1261 300.843,89.7928 298.5,92.5C 297.751,91.469 297.085,90.3024 296.5,89C 298.674,85.9964 301.008,83.1631 303.5,80.5C 304.705,81.5769 305.372,82.9102 305.5,84.5 Z"/></g>
<g><path style="opacity:1" fill="#838d93" d="M 363.5,87.5 C 361.5,87.5 359.5,87.5 357.5,87.5C 357.656,93.3125 356.989,93.6459 355.5,88.5C 357.333,86.1667 359.167,83.8333 361,81.5C 362.663,83.1579 363.496,85.1579 363.5,87.5 Z"/></g>
<g><path style="opacity:1" fill="#51565a" d="M 305.5,84.5 C 306.5,84.8333 307.167,85.5 307.5,86.5C 300.869,95.1317 293.869,103.465 286.5,111.5C 285.596,110.791 285.263,109.791 285.5,108.5C 288.152,104.518 291.152,100.851 294.5,97.5C 296.587,96.4154 297.92,94.7488 298.5,92.5C 300.843,89.7928 303.177,87.1261 305.5,84.5 Z"/></g>
<g><path style="opacity:1" fill="#838d93" d="M 313.5,84.5 C 316.328,87.891 316.162,91.2244 313,94.5C 306.357,103.31 299.524,111.977 292.5,120.5C 289.698,121.712 287.198,123.379 285,125.5C 284.71,127.952 284.044,130.285 283,132.5C 279.615,136.217 276.615,140.217 274,144.5C 272.556,146.155 270.722,146.822 268.5,146.5C 268.5,147.5 268.5,148.5 268.5,149.5C 277.202,149.951 285.868,150.785 294.5,152C 293.737,152.944 292.737,153.444 291.5,153.5C 283.574,151.981 275.574,151.315 267.5,151.5C 265.854,154.895 266.187,158.061 268.5,161C 266.78,160.29 265.113,159.123 263.5,157.5C 262.571,158.689 262.238,160.022 262.5,161.5C 260.473,161.662 258.473,161.495 256.5,161C 255.944,160.617 255.611,160.117 255.5,159.5C 275.557,135.051 294.89,110.051 313.5,84.5 Z"/></g>
<g><path style="opacity:1" fill="#c2c3c2" d="M 283.5,85.5 C 291.747,83.2668 295.58,86.2668 295,94.5C 294.218,86.6691 290.551,84.6691 284,88.5C 283.517,87.552 283.351,86.552 283.5,85.5 Z"/></g>
<g><path style="opacity:1" fill="#c2c3c2" d="M 347.5,85.5 C 349.288,85.2148 350.955,85.5481 352.5,86.5C 353.407,89.0567 354.407,91.5567 355.5,94C 355,94.5 354.5,95 354,95.5C 353.328,90.4926 350.495,87.9926 345.5,88C 346.381,87.2917 347.047,86.4584 347.5,85.5 Z"/></g>
<g><path style="opacity:1" fill="#838d93" d="M 363.5,87.5 C 365.004,90.6595 366.337,93.9928 367.5,97.5C 367.426,99.7394 366.259,100.739 364,100.5C 363.167,100.333 362.333,100.167 361.5,100C 363.219,96.0431 363.886,91.8764 363.5,87.5 Z"/></g>
<g><path style="opacity:1" fill="#d38541" d="M 288.5,88.5 C 290.196,88.6854 291.529,89.5187 292.5,91C 201.303,209.23 110.47,327.73 20,446.5C 16.614,449.701 15.2806,449.035 16,444.5C 106.666,325.672 197.499,207.006 288.5,88.5 Z"/></g>
<g><path style="opacity:1" fill="#d28641" d="M 345.5,90.5 C 346.833,90.5 348.167,90.5 349.5,90.5C 349.649,91.552 349.483,92.552 349,93.5C 309.011,144.128 269.011,194.794 229,245.5C 227.263,248.533 225.097,249.033 222.5,247C 263.388,194.712 304.388,142.546 345.5,90.5 Z"/></g>
<g><path style="opacity:1" fill="#838d93" d="M 317.5,93.5 C 324.815,94.1363 332.148,94.6363 339.5,95C 337.266,97.9524 334.266,99.1191 330.5,98.5C 325.489,98.1099 320.489,97.6099 315.5,97C 316.305,95.8873 316.972,94.7206 317.5,93.5 Z"/></g>
<g><path style="opacity:1" fill="#838d93" d="M 276.5,95.5 C 277.708,94.218 279.042,94.218 280.5,95.5C 279.375,97.7936 278.041,97.7936 276.5,95.5 Z"/></g>
<g><path style="opacity:1" fill="#838d93" d="M 294.5,97.5 C 291.152,100.851 288.152,104.518 285.5,108.5C 284.609,109.11 283.609,109.443 282.5,109.5C 282.351,108.448 282.517,107.448 283,106.5C 286.385,102.783 289.385,98.7829 292,94.5C 293.045,95.3734 293.878,96.3734 294.5,97.5 Z"/></g>
<g><path style="opacity:1" fill="#c2c3c2" d="M 347.5,97.5 C 352.757,97.6301 357.09,99.6301 360.5,103.5C 360.167,103.833 359.833,104.167 359.5,104.5C 357.205,103.568 354.871,102.735 352.5,102C 350.292,100.953 348.626,99.4525 347.5,97.5 Z"/></g>
<g><path style="opacity:1" fill="#fefffe" d="M 314.5,102.5 C 318.534,102.672 322.534,103.172 326.5,104C 325.789,105.255 324.956,106.421 324,107.5C 320.589,106.707 317.089,106.207 313.5,106C 313.167,105.667 312.833,105.333 312.5,105C 313.381,104.292 314.047,103.458 314.5,102.5 Z"/></g>
<g><path style="opacity:1" fill="#80888f" d="M 345.5,100.5 C 347.708,101.023 349.208,102.356 350,104.5C 352.128,104.073 354.295,104.573 356.5,106C 352.64,108.516 351.64,111.849 353.5,116C 351.078,118.16 348.244,119.66 345,120.5C 344.502,117.518 344.335,114.518 344.5,111.5C 342.143,111.663 339.81,111.497 337.5,111C 340.383,107.624 343.049,104.124 345.5,100.5 Z"/></g>
<g><path style="opacity:1" fill="#000000" d="M 285.5,108.5 C 285.263,109.791 285.596,110.791 286.5,111.5C 286.013,112.473 285.513,113.473 285,114.5C 284.665,112.497 283.832,110.83 282.5,109.5C 283.609,109.443 284.609,109.11 285.5,108.5 Z"/></g>
<g><path style="opacity:1" fill="#838d93" d="M 304.5,110.5 C 311.525,111.069 318.525,111.903 325.5,113C 324.5,114 323.5,115 322.5,116C 315.423,116.66 308.423,116.16 301.5,114.5C 302.524,113.148 303.524,111.815 304.5,110.5 Z"/></g>
<g><path style="opacity:1" fill="#838d93" d="M 336.5,112.5 C 338.833,112.5 341.167,112.5 343.5,112.5C 343.5,115.167 343.5,117.833 343.5,120.5C 339.928,120.062 336.428,119.396 333,118.5C 332.333,117.833 332.333,117.167 333,116.5C 334.376,115.295 335.542,113.962 336.5,112.5 Z"/></g>
<g><path style="opacity:1" fill="#b8b8b8" d="M 306.5,120.5 C 307.552,120.351 308.552,120.517 309.5,121C 310.928,123.185 312.595,125.185 314.5,127C 309.935,134.616 303.268,137.949 294.5,137C 291.562,134.975 289.728,132.142 289,128.5C 287.989,129.337 286.822,129.67 285.5,129.5C 285.641,126.52 287.141,124.52 290,123.5C 290.945,123.905 291.612,124.572 292,125.5C 292.833,124.667 293.667,123.833 294.5,123C 298.609,122.056 302.609,121.222 306.5,120.5 Z"/></g>
<g><path style="opacity:1" fill="#000000" d="M 302.5,124.5 C 310.851,124.708 311.685,127.708 305,133.5C 304.586,133.043 304.086,132.709 303.5,132.5C 299.306,133.132 295.973,133.965 293.5,135C 292.154,132.206 292.654,129.706 295,127.5C 297.48,126.188 299.98,125.188 302.5,124.5 Z"/></g>
<g><path style="opacity:1" fill="#838d93" d="M 325.5,125.5 C 326.043,125.56 326.376,125.893 326.5,126.5C 325.736,131.102 323.236,134.435 319,136.5C 316,140.5 313,144.5 310,148.5C 309.282,149.451 308.449,149.617 307.5,149C 314.099,141.575 320.099,133.742 325.5,125.5 Z"/></g>
<g><path style="opacity:1" fill="#fefffe" d="M 286.5,137.5 C 289.758,140.766 293.758,142.266 298.5,142C 297.654,144.18 296.154,145.68 294,146.5C 289.873,145.761 285.706,145.261 281.5,145C 283.389,142.618 285.055,140.118 286.5,137.5 Z"/></g>
<g><path style="opacity:1" fill="#c2c3c2" d="M 310.5,152.5 C 311.5,152.5 312.5,152.5 313.5,152.5C 312.511,159.145 311.511,159.145 310.5,152.5 Z"/></g>
<g><path style="opacity:1" fill="#fefffe" d="M 274.5,156.5 C 278.2,156.921 281.867,157.588 285.5,158.5C 284.833,159.833 283.833,160.833 282.5,161.5C 279.823,160.926 277.157,160.259 274.5,159.5C 273.209,158.473 273.209,157.473 274.5,156.5 Z"/></g>
<g><path style="opacity:1" fill="#838d93" d="M 301.5,156.5 C 302.239,156.369 302.906,156.536 303.5,157C 279.95,186.882 256.784,217.048 234,247.5C 232.637,249.784 231.137,249.951 229.5,248C 253.333,217.338 277.333,186.838 301.5,156.5 Z"/></g>
<g><path style="opacity:1" fill="#585d60" d="M 262.5,171.5 C 257.817,171.814 253.317,171.148 249,169.5C 244.052,175.758 238.885,181.758 233.5,187.5C 232.599,188.29 231.932,189.29 231.5,190.5C 213.848,212.815 195.848,234.815 177.5,256.5C 176.475,256.103 176.308,255.437 177,254.5C 194.244,231.919 212.244,209.919 231,188.5C 234.934,181.633 239.601,175.3 245,169.5C 245.667,168.5 245.667,167.5 245,166.5C 242.295,165.047 241.461,163.047 242.5,160.5C 246.178,162.588 250.178,163.755 254.5,164C 263.885,164.58 273.218,165.58 282.5,167C 276.366,170.651 269.699,172.151 262.5,171.5 Z"/></g>
<g><path style="opacity:1" fill="#838d93" d="M 312.5,161.5 C 312.897,160.475 313.563,160.308 314.5,161C 369.68,215.347 424.68,269.847 479.5,324.5C 478.635,325.583 477.635,325.749 476.5,325C 421.965,270.299 367.299,215.799 312.5,161.5 Z"/></g>
<g><path style="opacity:1" fill="#fefffe" d="M 305.5,163.5 C 339.299,196.799 372.965,230.299 406.5,264C 378.398,260.205 350.398,255.539 322.5,250C 318.055,240.555 311.221,233.388 302,228.5C 296.686,215.374 291.519,202.208 286.5,189C 293.05,180.623 299.384,172.123 305.5,163.5 Z M 305.5,168.5 C 300.298,175.726 294.964,182.893 289.5,190C 294.463,202.095 299.296,214.262 304,226.5C 313.221,231.388 320.055,238.555 324.5,248C 349.486,252.866 374.486,257.199 399.5,261C 368.583,229.581 337.249,198.748 305.5,168.5 Z"/></g>
<g><path style="opacity:1" fill="#6e7578" d="M 262.5,171.5 C 263.952,172.302 265.618,172.802 267.5,173C 262.167,173 256.833,173 251.5,173C 247.5,178.333 243.5,183.667 239.5,189C 238.5,189.167 237.5,189.333 236.5,189.5C 234.97,189.36 233.97,188.693 233.5,187.5C 238.885,181.758 244.052,175.758 249,169.5C 253.317,171.148 257.817,171.814 262.5,171.5 Z"/></g>
<g><path style="opacity:1" fill="#6e7578" d="M 274.5,173.5 C 275.552,173.351 276.552,173.517 277.5,174C 275.663,177.645 273.663,177.978 271.5,175C 272.737,174.768 273.737,174.268 274.5,173.5 Z"/></g>
<g><path style="opacity:1" fill="#fefffe" d="M 254.5,178.5 C 259.459,178.065 264.126,178.899 268.5,181C 265.784,184.261 262.951,187.428 260,190.5C 259.044,189.421 258.211,188.255 257.5,187C 254.428,186.544 251.428,186.544 248.5,187C 250.888,184.371 252.888,181.538 254.5,178.5 Z M 256.5,180.5 C 256.489,182.017 255.823,183.184 254.5,184C 256.556,184.311 258.556,184.811 260.5,185.5C 261.845,184.653 262.845,183.487 263.5,182C 261.323,180.798 258.989,180.298 256.5,180.5 Z"/></g>
<g><path style="opacity:1" fill="#6a6f73" d="M 231.5,190.5 C 232.404,191.209 232.737,192.209 232.5,193.5C 229.954,194.979 229.954,196.479 232.5,198C 228.881,202.074 225.381,206.241 222,210.5C 220.681,212.487 218.848,213.654 216.5,214C 224.435,216.254 232.435,218.254 240.5,220C 233.339,219.55 226.172,218.716 219,217.5C 217.342,217.325 216.009,216.658 215,215.5C 214.316,216.784 214.483,217.951 215.5,219C 210.622,224.209 206.122,229.709 202,235.5C 200.681,237.487 198.848,238.654 196.5,239C 205.095,240.992 213.761,242.658 222.5,244C 221.57,244.991 220.404,245.491 219,245.5C 211.537,244.004 204.037,243.171 196.5,243C 190.956,251.734 183.956,259.567 175.5,266.5C 172.954,267.979 172.954,269.479 175.5,271C 173.353,274.115 170.853,276.948 168,279.5C 167.824,282.882 167.324,286.215 166.5,289.5C 162.576,292.379 158.743,295.379 155,298.5C 154.333,295.167 154.333,291.833 155,288.5C 157.625,285.406 160.125,282.24 162.5,279C 161.66,277.233 160.327,275.899 158.5,275C 161.5,272 164.5,269 167.5,266C 168.449,265.383 169.282,265.549 170,266.5C 172.849,263.776 174.516,260.776 175,257.5C 176.007,259.742 176.841,259.408 177.5,256.5C 195.848,234.815 213.848,212.815 231.5,190.5 Z"/></g>
<g><path style="opacity:1" fill="#cb9d83" d="M 253.5,190.5 C 256.334,192.649 256.001,193.649 252.5,193.5C 252.5,195.5 252.5,197.5 252.5,199.5C 253.5,199.5 254.5,199.5 255.5,199.5C 255.101,202.971 253.601,203.304 251,200.5C 250.282,196.703 251.116,193.37 253.5,190.5 Z"/></g>
<g><path style="opacity:1" fill="#6e7578" d="M 280.5,191.5 C 286.225,204.033 290.892,216.699 294.5,229.5C 289.212,217.806 284.212,205.973 279.5,194C 280.252,193.329 280.586,192.496 280.5,191.5 Z"/></g>
<g><path style="opacity:1" fill="#6e7578" d="M 232.5,193.5 C 237.89,192.84 243.223,193.507 248.5,195.5C 248,195.833 247.5,196.167 247,196.5C 241.964,195.86 237.131,194.86 232.5,193.5 Z"/></g>
<g><path style="opacity:1" fill="#6e7578" d="M 253.5,194.5 C 262.721,195.61 262.721,196.61 253.5,197.5C 253.5,196.5 253.5,195.5 253.5,194.5 Z"/></g>
<g><path style="opacity:1" fill="#fefffe" d="M 237.5,200.5 C 242.236,200.091 245.902,201.757 248.5,205.5C 246.527,208.64 244.36,211.64 242,214.5C 237.816,213.462 233.65,212.295 229.5,211C 232.407,207.605 235.073,204.105 237.5,200.5 Z M 239.5,203.5 C 237.856,205.481 236.19,207.481 234.5,209.5C 240.433,212.274 243.767,210.274 244.5,203.5C 242.833,203.5 241.167,203.5 239.5,203.5 Z"/></g>
<g><path style="opacity:1" fill="#fefffe" d="M 275.5,202.5 C 279.461,209.6 282.794,217.1 285.5,225C 281.848,225.499 278.182,225.665 274.5,225.5C 273.976,220.22 272.309,215.387 269.5,211C 271.888,208.371 273.888,205.538 275.5,202.5 Z M 274.5,208.5 C 274.461,209.583 274.127,210.583 273.5,211.5C 274.816,215.429 275.816,219.429 276.5,223.5C 278.167,223.5 279.833,223.5 281.5,223.5C 280.307,219.089 278.807,214.756 277,210.5C 276.583,209.244 275.75,208.577 274.5,208.5 Z"/></g>
<g><path style="opacity:1" fill="#28292c" d="M 108.5,209.5 C 101.418,211.119 94.7515,213.952 88.5,218C 75.1367,229.17 65.1367,242.67 58.5,258.5C 57.6618,258.842 57.3284,259.508 57.5,260.5C 53.5111,273.773 50.5111,287.107 48.5,300.5C 47.7784,300.918 47.2784,301.584 47,302.5C 44.4341,301.993 42.2675,300.826 40.5,299C 41.1852,296.205 41.6852,293.372 42,290.5C 42.3826,291.056 42.8826,291.389 43.5,291.5C 46.1667,290.833 46.1667,290.167 43.5,289.5C 44.2524,274.72 48.4191,260.72 56,247.5C 56.2784,248.416 56.7784,249.082 57.5,249.5C 58.8333,249.5 59.5,248.833 59.5,247.5C 59.0825,246.778 58.4158,246.278 57.5,246C 60.6667,240.833 63.8333,235.667 67,230.5C 68.451,228.536 70.2843,227.203 72.5,226.5C 73.8333,226.5 74.5,225.833 74.5,224.5C 75.5434,221.944 77.2101,219.777 79.5,218C 90.9523,208.972 103.952,205.639 118.5,208C 114.975,208.179 111.641,208.679 108.5,209.5 Z"/></g>
<g><path style="opacity:1" fill="#7e8286" d="M 108.5,209.5 C 109.833,209.5 111.167,209.5 112.5,209.5C 112.5,213.167 112.5,216.833 112.5,220.5C 104.983,220.769 98.6496,223.436 93.5,228.5C 84.1874,233.146 77.1874,240.146 72.5,249.5C 72.7373,250.791 72.404,251.791 71.5,252.5C 67.7939,254.905 65.2939,258.238 64,262.5C 61.9847,261.303 60.1513,259.97 58.5,258.5C 65.1367,242.67 75.1367,229.17 88.5,218C 94.7515,213.952 101.418,211.119 108.5,209.5 Z"/></g>
<g><path style="opacity:1" fill="#7e8286" d="M 114.5,209.5 C 122.232,209.355 129.232,211.522 135.5,216C 144.719,220.763 151.719,227.763 156.5,237C 155.892,237.87 155.059,238.37 154,238.5C 151.459,237.993 148.959,237.326 146.5,236.5C 142.827,233.681 139.993,230.681 138,227.5C 137.667,227.833 137.333,228.167 137,228.5C 130.478,223.286 122.978,220.619 114.5,220.5C 114.5,216.833 114.5,213.167 114.5,209.5 Z"/></g>
<g><path style="opacity:1" fill="#cb9d83" d="M 264.5,212.5 C 268.597,217.121 270.263,222.454 269.5,228.5C 267.43,224.16 265.43,219.66 263.5,215C 263.743,214.098 264.077,213.265 264.5,212.5 Z"/></g>
<g><path style="opacity:1" fill="#fefffe" d="M 260.5,222.5 C 261.965,223.406 262.965,224.739 263.5,226.5C 260.863,228.827 257.863,229.993 254.5,230C 257.094,227.914 259.094,225.414 260.5,222.5 Z"/></g>
<g><path style="opacity:1" fill="#949a9d" d="M 119.5,223.5 C 121.117,224.038 122.784,224.371 124.5,224.5C 124.666,228.846 124.499,233.179 124,237.5C 122.287,238.878 120.953,240.545 120,242.5C 119.5,236.175 119.334,229.842 119.5,223.5 Z"/></g>
<g><path style="opacity:1" fill="#fefffe" d="M 219.5,223.5 C 223.917,223.607 228.251,224.274 232.5,225.5C 229.333,229.833 226.167,234.167 223,238.5C 218.577,237.485 214.077,236.652 209.5,236C 213.047,231.959 216.38,227.792 219.5,223.5 Z M 221.5,225.5 C 219.757,228.75 217.423,231.584 214.5,234C 216.137,234.601 217.803,235.101 219.5,235.5C 223.279,233.556 226.279,230.722 228.5,227C 226.134,226.56 223.801,226.06 221.5,225.5 Z"/></g>
<g><path style="opacity:1" fill="#c2c3c2" d="M 74.5,224.5 C 74.5,225.833 73.8333,226.5 72.5,226.5C 72.5,225.167 73.1667,224.5 74.5,224.5 Z"/></g>
<g><path style="opacity:1" fill="#fefffe" d="M 111.5,225.5 C 112.496,225.414 113.329,225.748 114,226.5C 114.956,233.337 114.622,240.004 113,246.5C 110.167,240.833 107.333,235.167 104.5,229.5C 106.482,227.436 108.816,226.103 111.5,225.5 Z M 109.5,228.5 C 109.082,229.222 108.416,229.722 107.5,230C 109.127,232.754 110.627,235.588 112,238.5C 112.498,235.183 112.665,231.85 112.5,228.5C 111.5,228.5 110.5,228.5 109.5,228.5 Z"/></g>
<g><path style="opacity:1" fill="#949a9d" d="M 93.5,228.5 C 94.6879,227.316 95.8545,227.316 97,228.5C 99.7057,234.078 102.539,239.578 105.5,245C 103.751,246.292 101.918,247.458 100,248.5C 97.7211,241.831 95.5544,235.164 93.5,228.5 Z"/></g>
<g><path style="opacity:1" fill="#949a9d" d="M 133.5,230.5 C 134.721,229.535 136.054,229.702 137.5,231C 139.208,233.043 141.208,234.71 143.5,236C 141.765,236.651 140.098,236.485 138.5,235.5C 137.145,233.479 135.479,231.812 133.5,230.5 Z"/></g>
<g><path style="opacity:1" fill="#28292c" d="M 280.5,232.5 C 274.953,234.607 269.62,237.273 264.5,240.5C 262.847,240.66 261.514,241.326 260.5,242.5C 250.524,252.47 242.524,263.804 236.5,276.5C 233.787,276.993 231.454,275.993 229.5,273.5C 236.935,256.572 248.435,243.238 264,233.5C 264.278,234.416 264.778,235.082 265.5,235.5C 266.833,235.5 267.5,234.833 267.5,233.5C 267.611,232.883 267.944,232.383 268.5,232C 272.761,230.637 277.095,230.304 281.5,231C 280.944,231.383 280.611,231.883 280.5,232.5 Z"/></g>
<g><path style="opacity:1" fill="#7b7f82" d="M 264.5,240.5 C 269.62,237.273 274.953,234.607 280.5,232.5C 295.155,230.327 306.488,235.493 314.5,248C 313.305,251.56 311.471,254.726 309,257.5C 300.801,247.661 290.301,243.828 277.5,246C 273.411,248.127 269.577,250.627 266,253.5C 263.967,249.312 263.467,244.979 264.5,240.5 Z"/></g>
<g><path style="opacity:1" fill="#c2c3c2" d="M 267.5,233.5 C 267.5,234.833 266.833,235.5 265.5,235.5C 265.5,234.167 266.167,233.5 267.5,233.5 Z"/></g>
<g><path style="opacity:1" fill="#b06a31" d="M 246.5,239.5 C 245.294,238.12 245.627,236.953 247.5,236C 249.5,235.333 251.5,235.333 253.5,236C 251.691,238.238 249.358,239.405 246.5,239.5 Z"/></g>
<g><path style="opacity:1" fill="#fefffe" d="M 89.5,237.5 C 91.2422,241.544 92.9089,245.711 94.5,250C 92.6487,251.684 90.982,253.517 89.5,255.5C 86.1195,253.12 83.4528,250.12 81.5,246.5C 84.189,243.48 86.8556,240.48 89.5,237.5 Z M 88.5,242.5 C 87.3146,243.857 86.3146,245.357 85.5,247C 86.8801,251.195 88.8801,251.862 91.5,249C 90.5783,246.706 89.5783,244.539 88.5,242.5 Z"/></g>
<g><path style="opacity:1" fill="#949a9d" d="M 127.5,237.5 C 135.83,238.618 144.163,239.785 152.5,241C 148.5,245.667 144.5,250.333 140.5,255C 139.167,255.333 137.833,255.667 136.5,256C 133,259.5 129.5,263 126,266.5C 125.578,269.236 125.578,271.902 126,274.5C 121.167,280.667 116.333,286.833 111.5,293C 103.804,291.828 96.1373,290.162 88.5,288C 101.88,271.377 114.88,254.544 127.5,237.5 Z"/></g>
<g><path style="opacity:1" fill="#b06a31" d="M 246.5,239.5 C 246.611,240.117 246.944,240.617 247.5,241C 244.96,243.205 242.793,245.705 241,248.5C 239.867,250.211 238.367,250.711 236.5,250C 238.333,247.5 240.167,245 242,242.5C 243.129,240.859 244.629,239.859 246.5,239.5 Z"/></g>
<g><path style="opacity:1" fill="#696f72" d="M 156.5,240.5 C 158.22,243.797 160.22,246.964 162.5,250C 158.359,255.776 153.859,261.276 149,266.5C 146.833,263.667 144.667,260.833 142.5,258C 147,252.003 151.667,246.17 156.5,240.5 Z"/></g>
<g><path style="opacity:1" fill="#83888b" d="M 260.5,242.5 C 261.703,246.331 262.703,250.331 263.5,254.5C 259.812,258.854 255.812,262.854 251.5,266.5C 251.631,265.761 251.464,265.094 251,264.5C 246.831,270.166 243.165,276.166 240,282.5C 239.667,281.833 239.333,281.167 239,280.5C 238.401,282.535 238.901,284.201 240.5,285.5C 239.546,291.497 238.046,292.164 236,287.5C 235.571,289.669 236.071,291.669 237.5,293.5C 236.817,296.461 235.984,296.795 235,294.5C 234.141,302.942 232.141,311.276 229,319.5C 228.346,318.304 227.846,318.304 227.5,319.5C 228.053,321.727 228.053,324.061 227.5,326.5C 225.833,326.5 224.167,326.5 222.5,326.5C 222.5,325.5 222.5,324.5 222.5,323.5C 226.167,309.514 230.167,295.514 234.5,281.5C 235.537,280.07 236.204,278.403 236.5,276.5C 242.524,263.804 250.524,252.47 260.5,242.5 Z"/></g>
<g><path style="opacity:1" fill="#c2c3c2" d="M 251.5,244.5 C 253.337,244.639 253.67,245.306 252.5,246.5C 251.702,246.043 251.369,245.376 251.5,244.5 Z"/></g>
<g><path style="opacity:1" fill="#c2c3c2" d="M 59.5,247.5 C 59.5,248.833 58.8333,249.5 57.5,249.5C 57.5,248.167 58.1667,247.5 59.5,247.5 Z"/></g>
<g><path style="opacity:1" fill="#c2c3c2" d="M 106.5,248.5 C 108.67,249.838 110.336,251.672 111.5,254C 109.796,253.028 107.962,251.861 106,250.5C 97.2332,254.231 94.7332,260.398 98.5,269C 97.8742,269.75 97.3742,270.584 97,271.5C 95.9911,267.487 95.3244,263.487 95,259.5C 97.4373,254.226 101.271,250.56 106.5,248.5 Z"/></g>
<g><path style="opacity:1" fill="#fefffe" d="M 200.5,248.5 C 204.509,248.858 208.509,249.358 212.5,250C 209.333,253.833 206.167,257.667 203,261.5C 200.36,259.127 197.193,257.793 193.5,257.5C 196.239,254.767 198.573,251.767 200.5,248.5 Z M 202.5,250.5 C 201.298,252.392 199.965,254.226 198.5,256C 200.167,256.667 201.833,256.667 203.5,256C 207.819,253.226 207.485,251.392 202.5,250.5 Z"/></g>
<g><path style="opacity:1" fill="#949a9d" d="M 72.5,249.5 C 73.552,249.351 74.552,249.517 75.5,250C 81.3333,256.5 87.1667,263 93,269.5C 93.6667,271.833 93.6667,274.167 93,276.5C 86.3097,267.982 79.1431,259.982 71.5,252.5C 72.404,251.791 72.7373,250.791 72.5,249.5 Z"/></g>
<g><path style="opacity:1" fill="#949a9d" d="M 219.5,250.5 C 225.256,251.251 230.922,252.417 236.5,254C 231.621,261.589 227.121,269.422 223,277.5C 219.659,284.868 216.326,292.201 213,299.5C 210.333,302.833 207.667,306.167 205,309.5C 196.927,307.106 188.76,304.94 180.5,303C 179.549,302.282 179.383,301.449 180,300.5C 193.381,283.958 206.547,267.292 219.5,250.5 Z"/></g>
<g><path style="opacity:1" fill="#949a9d" d="M 292.5,250.5 C 294.14,251.32 295.807,252.153 297.5,253C 295.383,254.731 293.883,256.898 293,259.5C 287.051,273.062 281.385,286.729 276,300.5C 274.692,302.641 273.192,304.641 271.5,306.5C 269.885,305.846 268.218,305.346 266.5,305C 274.447,286.601 283.114,268.434 292.5,250.5 Z"/></g>
<g><path style="opacity:1" fill="#fefffe" d="M 279.5,251.5 C 281.429,251.231 283.095,251.731 284.5,253C 282.206,257.088 280.039,261.255 278,265.5C 278.37,260.862 278.87,256.195 279.5,251.5 Z"/></g>
<g><path style="opacity:1" fill="#949a9d" d="M 103.5,252.5 C 108.824,253.307 109.658,255.641 106,259.5C 104.477,257.431 103.643,255.097 103.5,252.5 Z"/></g>
<g><path style="opacity:1" fill="#949a9d" d="M 272.5,252.5 C 273.239,252.369 273.906,252.536 274.5,253C 270.88,269.431 267.38,285.931 264,302.5C 262.722,305.155 260.722,307.155 258,308.5C 261.038,291.48 264.538,274.48 268.5,257.5C 269.823,255.835 271.156,254.168 272.5,252.5 Z"/></g>
<g><path style="opacity:1" fill="#6e7578" d="M 298.5,252.5 C 304.321,257.096 308.987,262.762 312.5,269.5C 310.994,270.747 309.494,270.747 308,269.5C 305.812,263.18 302.645,257.514 298.5,252.5 Z"/></g>
<g><path style="opacity:1" fill="#828689" d="M 314.5,252.5 C 315.496,252.414 316.329,252.748 317,253.5C 328.714,279.421 332.214,306.421 327.5,334.5C 323.179,335.176 321.179,333.342 321.5,329C 325.311,308.192 323.478,288.026 316,268.5C 314.561,265.397 312.727,262.564 310.5,260C 311.614,258.43 312.947,257.097 314.5,256C 313.829,255.014 313.829,253.847 314.5,252.5 Z"/></g>
<g><path style="opacity:1" fill="#838d93" d="M 322.5,257.5 C 323.097,256.861 323.93,256.528 325,256.5C 356.532,261.839 388.032,267.339 419.5,273C 420.5,274 421.5,275 422.5,276C 390.486,271.109 358.486,265.775 326.5,260C 324.867,259.52 323.534,258.687 322.5,257.5 Z"/></g>
<g><path style="opacity:1" fill="#c2c3c2" d="M 137.5,257.5 C 141.957,260.031 145.29,263.698 147.5,268.5C 147.333,268.833 147.167,269.167 147,269.5C 145.333,267.167 143.667,264.833 142,262.5C 141.196,261.196 140.029,260.529 138.5,260.5C 132.506,262.956 129.673,267.289 130,273.5C 132.284,277.382 133.951,281.382 135,285.5C 131.694,280.554 129.194,275.221 127.5,269.5C 130.448,265.215 133.781,261.215 137.5,257.5 Z"/></g>
<g><path style="opacity:1" fill="#b06a31" d="M 263.5,259.5 C 264.097,259.735 264.43,260.235 264.5,261C 263.434,264.094 262.768,267.26 262.5,270.5C 259.753,270.813 257.086,270.48 254.5,269.5C 257.522,266.147 260.522,262.813 263.5,259.5 Z"/></g>
<g><path style="opacity:1" fill="#84888c" d="M 57.5,260.5 C 59.34,262.168 61.34,263.668 63.5,265C 60.3415,271.133 58.8415,277.633 59,284.5C 67.0518,287.127 75.2185,289.46 83.5,291.5C 84.4419,291.392 85.2753,291.059 86,290.5C 86.7065,292.081 87.5399,293.581 88.5,295C 78.7275,293.681 69.2275,291.181 60,287.5C 58.1706,289.156 56.8372,291.156 56,293.5C 54.6159,302.464 54.2826,311.464 55,320.5C 56.6029,323.422 57.7696,326.422 58.5,329.5C 57.7456,336.318 58.7456,342.985 61.5,349.5C 60.2433,351.679 58.7433,353.679 57,355.5C 56.6174,354.944 56.1174,354.611 55.5,354.5C 51.8753,344.676 49.542,334.676 48.5,324.5C 48.5,316.5 48.5,308.5 48.5,300.5C 50.5111,287.107 53.5111,273.773 57.5,260.5 Z"/></g>
<g><path style="opacity:1" fill="#fefffe" d="M 70.5,262.5 C 71.2389,262.369 71.9056,262.536 72.5,263C 77.3543,268.353 82.0209,273.853 86.5,279.5C 85.1667,281.5 83.8333,283.5 82.5,285.5C 76.3461,283.799 70.3461,281.799 64.5,279.5C 66.2355,273.705 68.2355,268.038 70.5,262.5 Z M 71.5,267.5 C 69.7117,271.05 68.5451,274.717 68,278.5C 72.4666,280.074 76.9666,281.241 81.5,282C 82.1667,281 82.8333,280 83.5,279C 79.7974,275.633 76.464,271.966 73.5,268C 72.9056,267.536 72.2389,267.369 71.5,267.5 Z"/></g>
<g><path style="opacity:1" fill="#6b7174" d="M 137.5,262.5 C 139.017,262.511 140.184,263.177 141,264.5C 142.626,266.917 144.126,269.417 145.5,272C 142.667,275.5 139.833,279 137,282.5C 135.231,279.112 133.397,275.279 131.5,271C 132.927,267.743 134.927,264.91 137.5,262.5 Z"/></g>
<g><path style="opacity:1" fill="#949a9d" d="M 163.5,262.5 C 164.525,262.897 164.692,263.563 164,264.5C 162,266.5 160,268.5 158,270.5C 157.333,269.833 157.333,269.167 158,268.5C 160.04,266.63 161.873,264.63 163.5,262.5 Z"/></g>
<g><path style="opacity:1" fill="#c2c3c2" d="M 193.5,262.5 C 197.194,263.033 199.361,265.033 200,268.5C 198.611,266.773 196.944,265.439 195,264.5C 190.801,267.908 187.968,272.242 186.5,277.5C 187.648,279.761 188.148,282.095 188,284.5C 186.833,282.167 185.667,279.833 184.5,277.5C 186.743,272.007 189.743,267.007 193.5,262.5 Z"/></g>
<g><path style="opacity:1" fill="#fefffe" d="M 297.5,263.5 C 299.441,265.199 300.774,267.366 301.5,270C 298.716,273.787 295.549,277.287 292,280.5C 293.507,274.81 295.34,269.143 297.5,263.5 Z"/></g>
<g><path style="opacity:1" fill="#c2c3c2" d="M 236.5,265.5 C 238.337,265.639 238.67,266.306 237.5,267.5C 236.702,267.043 236.369,266.376 236.5,265.5 Z"/></g>
<g><path style="opacity:1" fill="#c2c3c2" d="M 49.5,266.5 C 51.337,266.639 51.6704,267.306 50.5,268.5C 49.7025,268.043 49.3691,267.376 49.5,266.5 Z"/></g>
<g><path style="opacity:1" fill="#6e7578" d="M 175.5,266.5 C 179.247,266.392 182.914,266.892 186.5,268C 186,268.5 185.5,269 185,269.5C 181.633,268.867 178.466,267.867 175.5,266.5 Z"/></g>
<g><path style="opacity:1" fill="#6e7578" d="M 195.5,267.5 C 198.768,271.37 198.101,272.203 193.5,270C 194.381,269.292 195.047,268.458 195.5,267.5 Z"/></g>
<g><path style="opacity:1" fill="#949a9d" d="M 312.5,276.5 C 308.61,278.878 305.11,281.878 302,285.5C 294.667,294.167 287.333,302.833 280,311.5C 278.197,310.687 276.697,309.52 275.5,308C 276.651,306.177 277.818,304.344 279,302.5C 289.014,292.653 298.848,282.653 308.5,272.5C 309.689,271.571 311.022,271.238 312.5,271.5C 312.5,273.167 312.5,274.833 312.5,276.5 Z"/></g>
<g><path style="opacity:1" fill="#6e7578" d="M 318.5,312.5 C 318.5,311.167 318.5,309.833 318.5,308.5C 317.167,308.5 315.833,308.5 314.5,308.5C 313.86,299.129 312.86,289.796 311.5,280.5C 311.846,279.151 312.179,277.817 312.5,276.5C 313.268,275.737 313.768,274.737 314,273.5C 318.59,286.32 320.09,299.32 318.5,312.5 Z"/></g>
<g><path style="opacity:1" fill="#838d93" d="M 432.5,274.5 C 433.209,273.596 434.209,273.263 435.5,273.5C 435.649,274.552 435.483,275.552 435,276.5C 434.292,275.619 433.458,274.953 432.5,274.5 Z"/></g>
<g><path style="opacity:1" fill="#949a9d" d="M 250.5,274.5 C 251.29,275.609 251.79,276.942 252,278.5C 252.64,288.018 253.474,297.518 254.5,307C 254.637,309.556 253.804,311.723 252,313.5C 249.778,303.531 248.278,293.365 247.5,283C 247.801,279.903 248.801,277.07 250.5,274.5 Z"/></g>
<g><path style="opacity:1" fill="#525457" d="M 251.5,266.5 C 247.577,272.678 243.911,279.011 240.5,285.5C 238.901,284.201 238.401,282.535 239,280.5C 239.333,281.167 239.667,281.833 240,282.5C 243.165,276.166 246.831,270.166 251,264.5C 251.464,265.094 251.631,265.761 251.5,266.5 Z"/></g>
<g><path style="opacity:1" fill="#949a9d" d="M 152.5,276.5 C 154.305,277.237 155.971,278.237 157.5,279.5C 156.182,282.65 154.016,284.983 151,286.5C 149.379,286.275 148.212,285.442 147.5,284C 149.295,281.574 150.962,279.074 152.5,276.5 Z"/></g>
<g><path style="opacity:1" fill="#fefffe" d="M 178.5,276.5 C 179.132,279.362 180.132,282.196 181.5,285C 178.442,285.458 175.442,285.124 172.5,284C 175.094,281.914 177.094,279.414 178.5,276.5 Z"/></g>
<g><path style="opacity:1" fill="#292a2e" d="M 234.5,281.5 C 230.167,295.514 226.167,309.514 222.5,323.5C 221.549,324.919 221.216,326.585 221.5,328.5C 218.899,347.514 218.899,366.514 221.5,385.5C 221.38,386.586 220.713,387.253 219.5,387.5C 217.218,386.777 214.884,386.443 212.5,386.5C 209.723,372.978 208.89,359.311 210,345.5C 211.675,332.449 213.675,319.449 216,306.5C 218.327,295.673 222.494,285.673 228.5,276.5C 231.426,277.265 233.426,278.932 234.5,281.5 Z"/></g>
<g><path style="opacity:1" fill="#6e7578" d="M 143.5,287.5 C 145.028,287.517 145.528,288.184 145,289.5C 140.952,293.88 137.285,298.546 134,303.5C 133.163,305.007 131.996,305.507 130.5,305C 135.075,299.271 139.408,293.437 143.5,287.5 Z"/></g>
<g><path style="opacity:1" fill="#c2c3c2" d="M 225.5,287.5 C 227.337,287.639 227.67,288.306 226.5,289.5C 225.702,289.043 225.369,288.376 225.5,287.5 Z"/></g>
<g><path style="opacity:1" fill="#6e7578" d="M 243.5,287.5 C 244.695,287.866 245.361,288.699 245.5,290C 243.284,293.381 241.284,296.881 239.5,300.5C 241.123,303.491 243.457,305.824 246.5,307.5C 247.614,308.723 247.781,310.056 247,311.5C 243.356,308.536 240.522,305.036 238.5,301C 239.755,296.327 241.422,291.827 243.5,287.5 Z"/></g>
<g><path style="opacity:1" fill="#c2c3c2" d="M 43.5,289.5 C 46.1667,290.167 46.1667,290.833 43.5,291.5C 43.5,290.833 43.5,290.167 43.5,289.5 Z"/></g>
<g><path style="opacity:1" fill="#949a9d" d="M 169.5,289.5 C 173.926,289.927 178.26,290.761 182.5,292C 180.654,295.179 178.154,297.679 175,299.5C 170.497,298.333 165.997,297.166 161.5,296C 164.355,293.969 167.022,291.803 169.5,289.5 Z"/></g>
<g><path style="opacity:1" fill="#fefffe" d="M 306.5,289.5 C 307.827,295.187 308.827,301.02 309.5,307C 302.594,309.147 295.594,310.48 288.5,311C 295.111,304.233 301.111,297.067 306.5,289.5 Z M 304.5,296.5 C 302.237,300.103 299.57,303.436 296.5,306.5C 297,306.833 297.5,307.167 298,307.5C 300.791,306.594 303.624,305.927 306.5,305.5C 306.664,302.813 306.497,300.146 306,297.5C 305.617,296.944 305.117,296.611 304.5,296.5 Z"/></g>
<g><path style="opacity:1" fill="#646a6d" d="M 126.5,277.5 C 127.376,277.369 128.043,277.702 128.5,278.5C 130.039,281.746 131.706,284.912 133.5,288C 126.82,296.383 120.153,304.716 113.5,313C 109.088,313.394 104.755,312.894 100.5,311.5C 96.6994,304.537 92.6994,297.703 88.5,291C 96.7274,292.79 105.061,294.29 113.5,295.5C 113.34,297.199 113.506,298.866 114,300.5C 114.333,298.167 114.667,295.833 115,293.5C 119.052,288.288 122.885,282.955 126.5,277.5 Z"/></g>
<g><path style="opacity:1" fill="#808588" d="M 148.5,290.5 C 149.5,290.5 150.5,290.5 151.5,290.5C 150.617,294.872 150.45,299.206 151,303.5C 147.697,309.933 142.864,311.266 136.5,307.5C 137.833,306.5 137.833,305.5 136.5,304.5C 140.552,299.789 144.552,295.122 148.5,290.5 Z"/></g>
<g><path style="opacity:1" fill="#fefffe" d="M 61.5,295.5 C 69.2569,296.856 76.9235,298.689 84.5,301C 86.6044,302.836 86.9377,305.002 85.5,307.5C 77.358,311.268 69.1913,314.934 61,318.5C 59.3139,310.843 59.4805,303.177 61.5,295.5 Z M 63.5,297.5 C 62.4248,303.102 61.7582,308.769 61.5,314.5C 69.5151,311.993 77.1818,308.66 84.5,304.5C 77.5896,301.974 70.5896,299.641 63.5,297.5 Z"/></g>
<g><path style="opacity:1" fill="#6e7578" d="M 159.5,297.5 C 163.71,298.978 168.043,300.144 172.5,301C 173.973,301.71 174.64,302.876 174.5,304.5C 168.294,303.615 162.294,302.115 156.5,300C 157.571,299.148 158.571,298.315 159.5,297.5 Z"/></g>
<g><path style="opacity:1" fill="#949a9d" d="M 90.5,299.5 C 92.1662,301.187 93.4995,303.187 94.5,305.5C 93.675,306.386 92.675,306.719 91.5,306.5C 91.3259,304.139 90.9926,301.806 90.5,299.5 Z"/></g>
<g><path style="opacity:1" fill="#2b2c30" d="M 48.5,324.5 C 49.542,334.676 51.8753,344.676 55.5,354.5C 55.6596,356.153 56.3263,357.486 57.5,358.5C 59.0987,360.604 60.932,362.604 63,364.5C 62.4149,368.024 63.5816,371.024 66.5,373.5C 65.6091,375.609 64.4424,377.609 63,379.5C 46.1912,360.572 38.6912,338.572 40.5,313.5C 43.1667,312.833 43.1667,312.167 40.5,311.5C 39.1968,308.645 39.1968,305.645 40.5,302.5C 42.5,303.167 44.5,303.833 46.5,304.5C 47.1667,311.321 47.8334,317.988 48.5,324.5 Z"/></g>
<g><path style="opacity:1" fill="#676c70" d="M 154.5,302.5 C 160.577,303.686 166.577,305.186 172.5,307C 170.942,310.06 168.609,312.226 165.5,313.5C 160.383,312.759 155.383,311.593 150.5,310C 152.54,307.815 153.874,305.315 154.5,302.5 Z"/></g>
<g><path style="opacity:1" fill="#d28641" d="M 176.5,305.5 C 177.922,305.709 179.255,306.209 180.5,307C 141.286,355.879 102.452,405.046 64,454.5C 62.8904,456.037 61.3904,456.703 59.5,456.5C 59.6079,454.217 60.4412,452.217 62,450.5C 100.381,402.292 138.548,353.958 176.5,305.5 Z"/></g>
<g><path style="opacity:1" fill="#949a9d" d="M 236.5,305.5 C 240.468,309.639 244.301,313.973 248,318.5C 248.688,319.332 248.521,319.998 247.5,320.5C 243.167,318 238.833,315.5 234.5,313C 235.554,310.618 236.221,308.118 236.5,305.5 Z"/></g>
<g><path style="opacity:1" fill="#646a6d" d="M 128.5,307.5 C 129.427,309.576 131.093,310.743 133.5,311C 143.904,312.678 154.238,314.678 164.5,317C 163.158,320.184 160.824,322.017 157.5,322.5C 145.856,320.752 134.19,319.585 122.5,319C 116.366,328.1 109.866,336.933 103,345.5C 103.025,343.08 103.691,340.747 105,338.5C 113.645,327.436 121.478,317.103 128.5,307.5 Z"/></g>
<g><path style="opacity:1" fill="#5f6568" d="M 211.5,306.5 C 212.015,310.937 211.349,315.437 209.5,320C 210.595,322.171 209.928,323.838 207.5,325C 209.917,326.673 209.917,328.506 207.5,330.5C 201.782,328.987 196.116,327.321 190.5,325.5C 186.555,320.276 183.721,314.609 182,308.5C 182.725,307.941 183.558,307.608 184.5,307.5C 192.081,309.646 199.748,311.313 207.5,312.5C 207.351,313.552 207.517,314.552 208,315.5C 208.117,312.037 209.284,309.037 211.5,306.5 Z"/></g>
<g><path style="opacity:1" fill="#949a9d" d="M 58.5,329.5 C 58.5,328.167 58.5,326.833 58.5,325.5C 71.4575,321.181 83.7909,315.515 95.5,308.5C 96.8448,309.347 97.8448,310.513 98.5,312C 85.4665,318.511 72.1331,324.345 58.5,329.5 Z"/></g>
<g><path style="opacity:1" fill="#949a9d" d="M 263.5,308.5 C 268.183,308.507 272.183,310.174 275.5,313.5C 262.807,321.245 259.64,331.911 266,345.5C 267.167,346.667 268.333,347.833 269.5,349C 264.753,349.862 260.92,348.362 258,344.5C 254.22,338.449 251.72,331.949 250.5,325C 252.102,320.962 254.102,317.129 256.5,313.5C 259.077,312.057 261.41,310.39 263.5,308.5 Z"/></g>
<g><path style="opacity:1" fill="#c2c3c2" d="M 218.5,309.5 C 220.465,309.948 220.798,310.948 219.5,312.5C 218.614,311.675 218.281,310.675 218.5,309.5 Z"/></g>
<g><path style="opacity:1" fill="#c2c3c2" d="M 40.5,311.5 C 43.1667,312.167 43.1667,312.833 40.5,313.5C 40.5,312.833 40.5,312.167 40.5,311.5 Z"/></g>
<g><path style="opacity:1" fill="#454a4c" d="M 178.5,311.5 C 179.376,311.369 180.043,311.702 180.5,312.5C 181.706,315.079 183.039,317.579 184.5,320C 184,320.167 183.5,320.333 183,320.5C 181.88,318.925 180.38,317.925 178.5,317.5C 177.136,318.043 175.803,318.21 174.5,318C 176.085,315.931 177.419,313.764 178.5,311.5 Z"/></g>
<g><path style="opacity:1" fill="#949a9d" d="M 318.5,312.5 C 318.119,313.931 317.119,314.764 315.5,315C 306.833,317.167 298.167,319.333 289.5,321.5C 288.09,321.132 287.09,320.299 286.5,319C 296.099,316.312 305.766,313.812 315.5,311.5C 316.584,311.685 317.584,312.018 318.5,312.5 Z"/></g>
<g><path style="opacity:1" fill="#93989b" d="M 72.5,366.5 C 70.1667,364.833 68.1667,362.833 66.5,360.5C 68.6669,359.802 70.5002,358.469 72,356.5C 82.6433,342.193 93.6433,328.193 105,314.5C 107.135,315.127 109.302,315.627 111.5,316C 97.8064,333.698 84.8064,350.532 72.5,366.5 Z"/></g>
<g><path style="opacity:1" fill="#6c7175" d="M 271.5,410.5 C 271.5,409.833 271.833,409.5 272.5,409.5C 275.592,407.592 278.592,405.426 281.5,403C 285.771,398.244 289.771,393.41 293.5,388.5C 294.5,387.5 295.5,386.5 296.5,385.5C 299.866,376.427 303.532,367.427 307.5,358.5C 309.975,357.313 310.975,355.313 310.5,352.5C 310.018,351.584 309.685,350.584 309.5,349.5C 311.447,339.202 313.114,328.868 314.5,318.5C 316.911,318.863 318.411,317.863 319,315.5C 318.659,341.872 311.992,366.539 299,389.5C 291.341,398.501 282.508,406.001 272.5,412C 270.553,412.991 268.553,413.325 266.5,413C 268.175,412.015 269.842,411.181 271.5,410.5 Z"/></g>
<g><path style="opacity:1" fill="#6e7578" d="M 233.5,316.5 C 234.478,316.811 235.145,317.478 235.5,318.5C 233.314,323.561 232.981,328.728 234.5,334C 232.391,335.141 230.558,336.641 229,338.5C 229.226,330.924 230.726,323.591 233.5,316.5 Z"/></g>
<g><path style="opacity:1" fill="#878b8f" d="M 277.5,326.5 C 274.981,330.21 274.981,333.876 277.5,337.5C 279.292,338.309 281.292,338.809 283.5,339C 273.183,349.87 267.183,347.537 265.5,332C 266.196,330.107 267.03,328.274 268,326.5C 268.333,327.833 268.667,329.167 269,330.5C 269.451,325.43 271.618,321.264 275.5,318C 277.167,317.333 278.833,317.333 280.5,318C 282.167,320.333 283.833,322.667 285.5,325C 282.635,325.183 279.969,325.683 277.5,326.5 Z"/></g>
<g><path style="opacity:1" fill="#949a9d" d="M 177.5,319.5 C 179.688,320.536 179.688,322.036 177.5,324C 175.064,324.436 173.064,323.603 171.5,321.5C 173.631,320.831 175.631,320.165 177.5,319.5 Z"/></g>
<g><path style="opacity:1" fill="#6e7578" d="M 238.5,319.5 C 241.149,321.14 243.816,322.807 246.5,324.5C 236.982,334.922 234.315,333.255 238.5,319.5 Z"/></g>
<g><path style="opacity:1" fill="#949a9d" d="M 127.5,323.5 C 103.178,356.128 78.8451,388.795 54.5,421.5C 52.3884,423.162 51.2217,422.828 51,420.5C 76.3312,387.82 101.165,354.82 125.5,321.5C 126.522,321.855 127.189,322.522 127.5,323.5 Z"/></g>
<g><path style="opacity:1" fill="#7a7e81" d="M 54.5,421.5 C 78.8451,388.795 103.178,356.128 127.5,323.5C 129.738,322.463 132.071,322.297 134.5,323C 129.884,328.442 125.884,334.276 122.5,340.5C 120.376,341.149 118.376,341.983 116.5,343C 123.61,345.925 130.943,348.258 138.5,350C 130.467,349.201 122.634,347.367 115,344.5C 113.812,345.563 113.312,346.897 113.5,348.5C 114.675,348.281 115.675,348.614 116.5,349.5C 111.126,356.777 105.626,364.444 100,372.5C 93.1707,373.938 93.0041,375.438 99.5,377C 104.882,377.307 110.215,377.974 115.5,379C 114.91,380.299 113.91,381.132 112.5,381.5C 107.854,380.559 103.187,379.726 98.5,379C 96.2729,378.879 94.4396,378.046 93,376.5C 90.7153,389.278 83.5486,397.945 71.5,402.5C 70.8291,404.507 69.8291,406.34 68.5,408C 69.8932,409.301 70.3932,410.801 70,412.5C 66.8689,416.633 63.3689,420.466 59.5,424C 56.7383,425.077 55.0717,424.244 54.5,421.5 Z"/></g>
<g><path style="opacity:1" fill="#fefffe" d="M 307.5,322.5 C 308.043,322.56 308.376,322.893 308.5,323.5C 307.383,330.202 306.049,336.869 304.5,343.5C 300.334,340.583 296.001,337.916 291.5,335.5C 291.124,332.627 291.124,329.627 291.5,326.5C 297.094,325.768 302.427,324.435 307.5,322.5 Z M 301.5,326.5 C 299.095,327.768 296.428,328.435 293.5,328.5C 293.34,330.199 293.506,331.866 294,333.5C 297,335.5 300,337.5 303,339.5C 304.05,335.197 304.884,330.863 305.5,326.5C 304.167,326.5 302.833,326.5 301.5,326.5 Z"/></g>
<g><path style="opacity:1" fill="#fefffe" d="M 87.5,323.5 C 88.2389,323.369 88.9056,323.536 89.5,324C 82.3066,332.226 75.4732,340.726 69,349.5C 65.7188,344.99 64.0521,339.99 64,334.5C 72.0463,331.105 79.8796,327.438 87.5,323.5 Z M 78.5,330.5 C 75.0195,332.338 71.3528,334.004 67.5,335.5C 66.5811,338.626 67.0811,341.626 69,344.5C 72.8333,340 76.6667,335.5 80.5,331C 79.9056,330.536 79.2389,330.369 78.5,330.5 Z"/></g>
<g><path style="opacity:1" fill="#6e7578" d="M 148.5,324.5 C 151.522,324.804 154.522,325.304 157.5,326C 153,331.833 148.5,337.667 144,343.5C 142.736,345.607 140.903,346.607 138.5,346.5C 137.238,341.717 135.572,337.05 133.5,332.5C 134.861,330.972 136.028,329.305 137,327.5C 137.879,332.136 139.545,336.469 142,340.5C 145.015,335.475 147.182,330.142 148.5,324.5 Z"/></g>
<g><path style="opacity:1" fill="#949a9d" d="M 167.5,327.5 C 169.291,323.656 171.625,323.489 174.5,327C 173.695,328.972 172.361,330.472 170.5,331.5C 169.943,329.668 168.943,328.335 167.5,327.5 Z"/></g>
<g><path style="opacity:1" fill="#c2c3c2" d="M 277.5,326.5 C 280.167,326.5 282.833,326.5 285.5,326.5C 287.918,334.021 285.252,337.687 277.5,337.5C 274.981,333.876 274.981,330.21 277.5,326.5 Z"/></g>
<g><path style="opacity:1" fill="#888d90" d="M 167.5,327.5 C 167.104,330.044 167.771,332.211 169.5,334C 168.531,335.758 167.364,336.258 166,335.5C 165.383,336.449 165.549,337.282 166.5,338C 165.531,339.758 164.364,340.258 163,339.5C 163.257,342.376 162.257,345.043 160,347.5C 158.426,348.984 157.093,350.651 156,352.5C 155.667,351.833 155.333,351.167 155,350.5C 154.667,352.167 154.333,353.833 154,355.5C 153.329,356.252 152.496,356.586 151.5,356.5C 150.259,354.122 150.926,352.289 153.5,351C 152.906,350.536 152.239,350.369 151.5,350.5C 152.919,347.9 154.585,345.4 156.5,343C 155.167,341.16 155.334,340.66 157,341.5C 160.363,336.65 163.863,331.983 167.5,327.5 Z"/></g>
<g><path style="opacity:1" fill="#91969a" d="M 221.5,328.5 C 223.948,328.01 225.615,328.843 226.5,331C 225.932,332.872 225.265,334.705 224.5,336.5C 225.313,348.454 225.813,360.454 226,372.5C 228.059,385.775 233.225,397.609 241.5,408C 240.076,411.389 238.076,414.223 235.5,416.5C 229.817,408.1 225.484,399.1 222.5,389.5C 222.768,387.901 222.434,386.568 221.5,385.5C 218.899,366.514 218.899,347.514 221.5,328.5 Z"/></g>
<g><path style="opacity:1" fill="#949a9d" d="M 247.5,328.5 C 249.117,330.98 249.45,333.646 248.5,336.5C 241.914,340.709 235.414,345.043 229,349.5C 228.333,347.167 228.333,344.833 229,342.5C 235.635,338.354 241.801,333.687 247.5,328.5 Z"/></g>
<g><path style="opacity:1" fill="#c2c3c2" d="M 213.5,334.5 C 215.465,334.948 215.798,335.948 214.5,337.5C 213.614,336.675 213.281,335.675 213.5,334.5 Z"/></g>
<g><path style="opacity:1" fill="#83878a" d="M 320.5,335.5 C 323.617,334.927 325.617,336.094 326.5,339C 322.364,359.44 315.531,378.94 306,397.5C 303.277,400.557 300.944,403.89 299,407.5C 297.316,409.351 295.483,411.018 293.5,412.5C 292.914,412.291 292.414,411.957 292,411.5C 291.132,408.515 290.799,405.515 291,402.5C 298.608,396.572 304.275,389.238 308,380.5C 310.372,372.751 313.038,365.084 316,357.5C 317.951,350.247 319.451,342.914 320.5,335.5 Z"/></g>
<g><path style="opacity:1" fill="#949a9d" d="M 249.5,339.5 C 250.496,339.414 251.329,339.748 252,340.5C 252.667,342.167 252.667,343.833 252,345.5C 246,359.5 240,373.5 234,387.5C 232.735,384.539 231.569,381.539 230.5,378.5C 236.084,365.001 242.417,352.001 249.5,339.5 Z"/></g>
<g><path style="opacity:1" fill="#949a9d" d="M 310.5,352.5 C 310.975,355.313 309.975,357.313 307.5,358.5C 307.719,357.325 307.386,356.325 306.5,355.5C 298.914,351.902 291.58,347.902 284.5,343.5C 285.167,342.167 286.167,341.167 287.5,340.5C 293.299,343.802 298.966,347.302 304.5,351C 306.345,352.128 308.345,352.628 310.5,352.5 Z"/></g>
<g><path style="opacity:1" fill="#949a9d" d="M 254.5,347.5 C 255.16,348.964 255.493,350.631 255.5,352.5C 253.945,370.162 252.445,387.828 251,405.5C 250.42,410.401 248.753,410.735 246,406.5C 246.032,392.487 246.699,378.487 248,364.5C 250.471,358.915 252.638,353.248 254.5,347.5 Z"/></g>
<g><path style="opacity:1" fill="#6e7578" d="M 120.5,350.5 C 121.87,356.198 123.203,362.032 124.5,368C 117.891,372.477 115.224,370.644 116.5,362.5C 115.775,357.73 117.109,353.73 120.5,350.5 Z"/></g>
<g><path style="opacity:1" fill="#949a9d" d="M 272.5,409.5 C 271.833,409.5 271.5,409.833 271.5,410.5C 270.5,410.5 269.5,410.5 268.5,410.5C 265.409,393.88 261.742,377.38 257.5,361C 258.218,357.539 258.718,354.039 259,350.5C 261.071,351.525 263.238,352.358 265.5,353C 264.903,354.062 264.57,355.228 264.5,356.5C 267.494,374.128 270.16,391.795 272.5,409.5 Z"/></g>
<g><path style="opacity:1" fill="#949a9d" d="M 296.5,385.5 C 295.5,386.5 294.5,387.5 293.5,388.5C 284.82,376.996 276.486,365.163 268.5,353C 270.329,352.727 271.829,351.893 273,350.5C 280.696,362.344 288.53,374.01 296.5,385.5 Z"/></g>
<g><path style="opacity:1" fill="#fefffe" d="M 281.5,350.5 C 287.527,352.346 293.194,355.013 298.5,358.5C 298.725,363.025 297.558,367.359 295,371.5C 289.856,364.868 285.356,357.868 281.5,350.5 Z M 288.5,356.5 C 289.748,359.996 291.748,362.996 294.5,365.5C 295.736,363.966 296.236,362.3 296,360.5C 293.552,359.027 291.052,357.693 288.5,356.5 Z"/></g>
<g><path style="opacity:1" fill="#74787a" d="M 66.5,360.5 C 68.1667,362.833 70.1667,364.833 72.5,366.5C 70.845,369.153 68.845,371.486 66.5,373.5C 63.5816,371.024 62.4149,368.024 63,364.5C 60.932,362.604 59.0987,360.604 57.5,358.5C 58.4616,356.014 59.2949,356.014 60,358.5C 60.5,357.333 61.3333,356.5 62.5,356C 60.2985,355.223 60.2985,354.056 62.5,352.5C 64.7021,355.188 66.0354,357.855 66.5,360.5 Z"/></g>
<g><path style="opacity:1" fill="#6e7578" d="M 133.5,353.5 C 134.239,353.369 134.906,353.536 135.5,354C 132.333,357.833 129.167,361.667 126,365.5C 125.333,364.167 125.333,362.833 126,361.5C 128.705,358.964 131.205,356.297 133.5,353.5 Z"/></g>
<g><path style="opacity:1" fill="#fefffe" d="M 233.5,353.5 C 233.895,356.532 233.062,359.532 231,362.5C 229.779,358.718 230.613,355.718 233.5,353.5 Z"/></g>
<g><path style="opacity:1" fill="#fefffe" d="M 272.5,370.5 C 276.691,376.355 281.024,382.188 285.5,388C 282.667,391.5 279.833,395 277,398.5C 275.266,389.194 273.766,379.861 272.5,370.5 Z M 276.5,381.5 C 276.736,384.914 277.402,388.247 278.5,391.5C 279.833,390.833 280.833,389.833 281.5,388.5C 280.164,385.846 278.497,383.513 276.5,381.5 Z"/></g>
<g><path style="opacity:1" fill="#6e7578" d="M 112.5,372.5 C 114.854,372.838 117.187,373.338 119.5,374C 118.874,374.75 118.374,375.584 118,376.5C 116.266,375.751 114.433,375.251 112.5,375C 111.402,374.23 111.402,373.397 112.5,372.5 Z"/></g>
<g><path style="opacity:1" fill="#949a9d" d="M 76.5,376.5 C 77.7892,373.678 79.7892,373.011 82.5,374.5C 81.2055,377.487 79.2055,378.154 76.5,376.5 Z"/></g>
<g><path style="opacity:1" fill="#949a9d" d="M 76.5,376.5 C 77.0577,377.79 78.0577,378.623 79.5,379C 77.8008,382.29 76.1341,382.29 74.5,379C 74.6387,377.699 75.3054,376.866 76.5,376.5 Z"/></g>
<g><path style="opacity:1" fill="#c2c3c2" d="M 214.5,378.5 C 216.337,378.639 216.67,379.306 215.5,380.5C 214.702,380.043 214.369,379.376 214.5,378.5 Z"/></g>
<g><path style="opacity:1" fill="#656b6e" d="M 96.5,382.5 C 101.607,382.685 106.607,383.518 111.5,385C 109.622,386.543 108.122,388.376 107,390.5C 102.308,390.499 97.4749,390.332 92.5,390C 91.5419,388.853 91.8753,387.853 93.5,387C 95.1667,386.667 96.8333,386.333 98.5,386C 95.8101,385.665 95.1435,384.499 96.5,382.5 Z"/></g>
<g><path style="opacity:1" fill="#6d7174" d="M 151.5,350.5 C 152.239,350.369 152.906,350.536 153.5,351C 150.926,352.289 150.259,354.122 151.5,356.5C 151.649,357.552 151.483,358.552 151,359.5C 144.349,369.28 137.849,377.78 131.5,385C 131.833,385.333 132.167,385.667 132.5,386C 125.544,395.412 118.711,404.912 112,414.5C 111.722,413.584 111.222,412.918 110.5,412.5C 109.449,411.778 108.782,410.778 108.5,409.5C 122.26,390.416 135.593,371.083 148.5,351.5C 149.031,348.233 150.031,347.9 151.5,350.5 Z"/></g>
<g><path style="opacity:1" fill="#fefffe" d="M 240.5,386.5 C 241.701,389.405 241.534,392.405 240,395.5C 239.5,394.5 239,393.5 238.5,392.5C 239.747,390.677 240.414,388.677 240.5,386.5 Z"/></g>
<g><path style="opacity:1" fill="#fefffe" d="M 257.5,387.5 C 259.344,393.861 261.011,400.361 262.5,407C 260.75,408.319 258.75,408.819 256.5,408.5C 256.773,401.496 257.106,394.496 257.5,387.5 Z"/></g>
<g><path style="opacity:1" fill="#28282c" d="M 222.5,389.5 C 225.484,399.1 229.817,408.1 235.5,416.5C 236.167,417.833 237.167,418.833 238.5,419.5C 241.621,421.448 244.621,423.615 247.5,426C 261.466,428.974 274.466,426.474 286.5,418.5C 286.938,418.435 287.272,418.601 287.5,419C 267.015,436.561 246.848,436.061 227,417.5C 220.33,408.828 215.83,399.162 213.5,388.5C 216.455,389.159 219.455,389.492 222.5,389.5 Z"/></g>
<g><path style="opacity:1" fill="#c2c3c2" d="M 216.5,394.5 C 217.675,394.281 218.675,394.614 219.5,395.5C 217.948,396.798 216.948,396.465 216.5,394.5 Z"/></g>
<g><path style="opacity:1" fill="#fefffe" d="M 87.5,398.5 C 90.2469,398.187 92.9135,398.52 95.5,399.5C 93.0419,404.27 89.7086,404.77 85.5,401C 86.3805,400.292 87.0472,399.458 87.5,398.5 Z"/></g>
<g><path style="opacity:1" fill="#949a9d" d="M 71.5,404.5 C 78.3351,405.709 85.0018,407.542 91.5,410C 90.737,410.944 89.737,411.444 88.5,411.5C 83.8333,410.333 79.1667,409.167 74.5,408C 72.5743,407.578 71.5743,406.411 71.5,404.5 Z"/></g>
<g><path style="opacity:1" fill="#84898c" d="M 286.5,418.5 C 274.466,426.474 261.466,428.974 247.5,426C 244.621,423.615 241.621,421.448 238.5,419.5C 238.709,418.078 239.209,416.745 240,415.5C 240.333,415.833 240.667,416.167 241,416.5C 241.5,415.333 242.333,414.5 243.5,414C 241.557,412.807 241.724,411.307 244,409.5C 245.319,411.487 247.152,412.654 249.5,413C 255.713,413.928 261.879,415.095 268,416.5C 275.648,414.675 282.314,411.008 288,405.5C 289.084,408.249 289.917,411.082 290.5,414C 289.656,416.007 288.323,417.507 286.5,418.5 Z"/></g>
<g><path style="opacity:1" fill="#000000" d="M 108.5,409.5 C 108.782,410.778 109.449,411.778 110.5,412.5C 108.259,413.3 107.259,414.966 107.5,417.5C 104.65,414.503 104.984,411.837 108.5,409.5 Z"/></g>
<g><path style="opacity:1" fill="#949a9d" d="M 110.5,412.5 C 110.741,415.034 109.741,416.7 107.5,417.5C 107.259,414.966 108.259,413.3 110.5,412.5 Z"/></g>
<g><path style="opacity:1" fill="#fefffe" d="M 75.5,414.5 C 77.9599,414.699 80.2933,415.365 82.5,416.5C 79.8482,420.482 76.8482,424.149 73.5,427.5C 71.6147,426.391 69.6147,425.557 67.5,425C 70.5484,421.71 73.2151,418.21 75.5,414.5 Z"/></g>
<g><path style="opacity:1" fill="#82868a" d="M 148.5,351.5 C 135.593,371.083 122.26,390.416 108.5,409.5C 104.984,411.837 104.65,414.503 107.5,417.5C 108.303,418.423 108.47,419.423 108,420.5C 102.416,429.991 96.0827,438.991 89,447.5C 88.6174,446.944 88.1174,446.611 87.5,446.5C 87.0046,444.518 86.5046,442.518 86,440.5C 85.6924,441.308 85.1924,441.975 84.5,442.5C 82.9246,441.544 81.258,440.877 79.5,440.5C 78.105,439.352 78.2716,438.352 80,437.5C 82,438.833 84,438.833 86,437.5C 97.2774,420.557 108.944,403.89 121,387.5C 128.964,374.567 138.131,362.567 148.5,351.5 Z"/></g>
<g><path style="opacity:1" fill="#949a9d" d="M 68.5,435.5 C 61.5077,432.393 54.1743,430.059 46.5,428.5C 44.9577,427.859 43.6243,426.859 42.5,425.5C 44.4213,424.359 46.4213,424.192 48.5,425C 56.2158,427.513 63.8825,430.179 71.5,433C 72.8333,433.667 72.8333,434.333 71.5,435C 70.552,435.483 69.552,435.649 68.5,435.5 Z"/></g>
<g><path style="opacity:1" fill="#5e6366" d="M 46.5,428.5 C 54.1743,430.059 61.5077,432.393 68.5,435.5C 70.8157,437.172 70.3157,438.505 67,439.5C 64.2745,438.203 61.4412,437.203 58.5,436.5C 57.3279,436.919 56.3279,437.585 55.5,438.5C 48.7451,438.408 44.7451,435.075 43.5,428.5C 44.5,428.5 45.5,428.5 46.5,428.5 Z"/></g>
<g><path style="opacity:1" fill="#b1b3a4" d="M 59.5,439.5 C 62.0163,439.755 64.3496,440.589 66.5,442C 63.8333,445.333 61.1667,448.667 58.5,452C 51.9908,452.186 48.4908,455.352 48,461.5C 48.7247,462.059 49.5581,462.392 50.5,462.5C 54.0295,461.363 57.3628,460.196 60.5,459C 55.868,464.697 50.868,465.364 45.5,461C 44.4494,452.349 48.4494,447.349 57.5,446C 59.229,444.211 59.8957,442.044 59.5,439.5 Z"/></g>
<g><path style="opacity:1" fill="#5b6063" d="M 79.5,440.5 C 81.258,440.877 82.9246,441.544 84.5,442.5C 85.1924,441.975 85.6924,441.308 86,440.5C 86.5046,442.518 87.0046,444.518 87.5,446.5C 87.5299,447.497 87.0299,448.164 86,448.5C 82.0657,447.393 78.2323,446.06 74.5,444.5C 75.6046,442.389 77.2712,441.055 79.5,440.5 Z"/></g>
</svg>
