<?xml version="1.0" encoding="UTF-8"?>
<!DOCTYPE svg PUBLIC "-//W3C//DTD SVG 1.1//EN" "http://www.w3.org/Graphics/SVG/1.1/DTD/svg11.dtd">
<svg xmlns="http://www.w3.org/2000/svg" version="1.1" width="436px" height="438px" style="shape-rendering:geometricPrecision; text-rendering:geometricPrecision; image-rendering:optimizeQuality; fill-rule:evenodd; clip-rule:evenodd" xmlns:xlink="http://www.w3.org/1999/xlink">
<g><path style="opacity:1" fill="#fefffe" d="M 200.5,33.5 C 205.844,33.334 211.177,33.5006 216.5,34C 218.746,35.0395 220.913,36.2062 223,37.5C 223.667,41.5 223.667,45.5 223,49.5C 220.688,54.1538 219.854,59.1538 220.5,64.5C 229.986,64.6612 238.152,67.9946 245,74.5C 245.667,78.8333 245.667,83.1667 245,87.5C 242.83,92.0175 240.663,96.5175 238.5,101C 242.59,101.256 244.923,103.422 245.5,107.5C 245.915,104.921 247.248,103.087 249.5,102C 253.833,101.333 258.167,101.333 262.5,102C 263.669,104.007 264.335,106.173 264.5,108.5C 269.297,108.121 273.964,108.621 278.5,110C 279.894,113.455 281.228,116.955 282.5,120.5C 298.213,119.104 313.88,116.604 329.5,113C 333.747,107.049 339.413,103.382 346.5,102C 368.833,101.883 391.167,102.217 413.5,103C 416.124,106.421 416.124,109.921 413.5,113.5C 393.976,116.502 374.309,118.002 354.5,118C 352.795,121.168 351.962,124.668 352,128.5C 351.097,129.701 349.931,130.535 348.5,131C 326.26,134.181 304.26,138.515 282.5,144C 296.468,151.638 306.635,162.805 313,177.5C 317.109,196.058 309.942,203.224 291.5,199C 288.898,198.023 286.398,196.856 284,195.5C 282.58,197.422 280.747,198.755 278.5,199.5C 280.5,203.5 282.5,207.5 284.5,211.5C 287.798,212.965 290.298,215.298 292,218.5C 299.074,232.315 307.407,245.315 317,257.5C 318.49,266.674 323.49,273.341 332,277.5C 332.802,282.419 332.635,287.252 331.5,292C 322.751,294.94 314.751,293.607 307.5,288C 298.512,279.492 290.345,270.325 283,260.5C 283.551,265.099 281.718,268.265 277.5,270C 272.802,269.546 268.969,271.046 266,274.5C 266.19,278.825 266.857,283.158 268,287.5C 282.593,297.217 297.759,306.05 313.5,314C 314.167,315 314.833,316 315.5,317C 318.5,317.333 321.5,317.667 324.5,318C 330.517,325.666 332.017,334.166 329,343.5C 325.013,347.831 321.347,352.498 318,357.5C 319.372,366.604 315.539,371.771 306.5,373C 298.832,374.263 291.499,373.263 284.5,370C 283.371,365.921 283.204,361.755 284,357.5C 286.582,355.772 288.082,353.439 288.5,350.5C 286.473,350.662 284.473,350.495 282.5,350C 279.12,344.953 274.786,340.953 269.5,338C 258.949,333.224 248.282,328.724 237.5,324.5C 236.098,329.732 235.431,335.066 235.5,340.5C 236.036,347.846 236.703,355.18 237.5,362.5C 236.103,370 235.27,377.667 235,385.5C 229.412,390.376 222.912,393.21 215.5,394C 205.526,395.279 195.526,395.613 185.5,395C 182.898,394.023 180.398,392.856 178,391.5C 177.333,387.167 177.333,382.833 178,378.5C 183.667,375.167 189.333,371.833 195,368.5C 195.866,358.669 196.7,348.836 197.5,339C 195.278,321.557 194.444,304.057 195,286.5C 201.333,278.167 207.667,269.833 214,261.5C 214.168,256.828 213.834,252.161 213,247.5C 209.148,245.77 204.982,244.937 200.5,245C 197.966,244.484 195.8,243.317 194,241.5C 190.972,230.691 189.972,219.691 191,208.5C 192.515,206.323 194.015,204.156 195.5,202C 191.715,196.267 188.048,190.434 184.5,184.5C 177.211,183.375 169.877,182.708 162.5,182.5C 154.504,183.267 146.504,183.433 138.5,183C 131.564,181.565 127.564,177.399 126.5,170.5C 118.852,171.43 111.185,171.597 103.5,171C 102.167,165.333 102.167,159.667 103.5,154C 112.339,151.609 121.339,149.942 130.5,149C 132.402,145.376 135.402,143.21 139.5,142.5C 148.79,141.047 158.124,139.88 167.5,139C 168.167,137 169.5,135.667 171.5,135C 176.085,133.775 180.752,133.275 185.5,133.5C 185.676,128.093 186.343,122.76 187.5,117.5C 185.892,116.682 184.225,116.015 182.5,115.5C 179.764,108.828 181.597,104.161 188,101.5C 189.211,88.5406 189.878,75.5406 190,62.5C 190.667,61.8333 191.333,61.1667 192,60.5C 192.333,57.1667 192.667,53.8333 193,50.5C 194.154,49.2567 195.488,48.2567 197,47.5C 197.333,43.5 197.667,39.5 198,35.5C 198.995,34.9341 199.828,34.2674 200.5,33.5 Z"/></g>
<g><path style="opacity:1" fill="#010101" d="M 202.5,35.5 C 209.218,34.5664 215.385,35.8997 221,39.5C 222.369,44.4374 221.203,48.604 217.5,52C 218.833,56.6667 218.833,61.3333 217.5,66C 227.333,66.3857 235.833,69.8857 243,76.5C 243.667,79.5 243.667,82.5 243,85.5C 240.198,91.4144 237.698,97.4144 235.5,103.5C 240.339,102.677 242.673,104.677 242.5,109.5C 244.5,109.5 246.5,109.5 248.5,109.5C 248.615,104.83 251.115,102.83 256,103.5C 260.775,103.204 262.942,105.537 262.5,110.5C 267.297,110.121 271.964,110.621 276.5,112C 277.894,115.455 279.228,118.955 280.5,122.5C 281.833,122.833 283.167,123.167 284.5,123.5C 300.253,121.097 315.92,118.263 331.5,115C 335.747,109.049 341.413,105.382 348.5,104C 369.498,103.95 390.498,104.283 411.5,105C 414.094,107.072 414.094,109.239 411.5,111.5C 391.976,114.502 372.309,116.002 352.5,116C 351.5,116.333 350.5,116.667 349.5,117C 350.617,120.073 350.784,123.24 350,126.5C 349.097,127.701 347.931,128.535 346.5,129C 323.365,132.56 300.365,136.894 277.5,142C 278.257,143.512 279.257,144.846 280.5,146C 293.329,153.164 303.163,163.331 310,176.5C 315.333,192.48 309.833,199.313 293.5,197C 289.469,195.568 285.636,193.734 282,191.5C 281.16,195.502 278.66,197.502 274.5,197.5C 277.167,202.833 279.833,208.167 282.5,213.5C 285.798,214.965 288.298,217.298 290,220.5C 297.074,234.315 305.407,247.315 315,259.5C 316.49,268.674 321.49,275.341 330,279.5C 330.667,282.833 330.667,286.167 330,289.5C 323.918,292.429 318.084,291.929 312.5,288C 307.032,283.533 301.865,278.7 297,273.5C 292.043,266.874 286.709,260.54 281,254.5C 282.378,264.789 277.878,269.622 267.5,269C 266.333,270.167 265.167,271.333 264,272.5C 263.819,278.236 264.485,283.903 266,289.5C 280.593,299.217 295.759,308.05 311.5,316C 312.167,317 312.833,318 313.5,319C 316.5,319.333 319.5,319.667 322.5,320C 331.383,331.432 330.216,341.598 319,350.5C 316.085,354.653 314.751,359.32 315,364.5C 312.599,368.291 309.099,370.458 304.5,371C 297.866,372.221 291.699,371.055 286,367.5C 284.452,362.472 285.785,358.472 290,355.5C 290.236,353.236 290.736,351.069 291.5,349C 289.167,348.667 286.833,348.333 284.5,348C 281.12,342.953 276.786,338.953 271.5,336C 259.316,330.829 247.15,325.662 235,320.5C 232.896,334.534 233.062,348.534 235.5,362.5C 234.008,369.321 233.175,376.321 233,383.5C 229.032,386.902 224.532,389.402 219.5,391C 208.9,392.873 198.233,393.54 187.5,393C 185.167,392 182.833,391 180.5,390C 179.383,386.927 179.216,383.76 180,380.5C 186.085,376.873 192.252,373.373 198.5,370C 197.869,368.094 197.536,366.094 197.5,364C 198.431,355.687 199.098,347.354 199.5,339C 197.639,322.205 196.806,305.372 197,288.5C 203.333,280.167 209.667,271.833 216,263.5C 216.722,256.278 215.889,249.278 213.5,242.5C 207.985,244.049 202.651,243.549 197.5,241C 196.107,239.829 195.273,238.329 195,236.5C 193.011,227.925 192.344,219.258 193,210.5C 194.667,208.167 196.333,205.833 198,203.5C 198.667,202.167 198.667,200.833 198,199.5C 193.672,194.179 189.838,188.512 186.5,182.5C 178.549,181.273 170.549,180.606 162.5,180.5C 155.159,181.002 147.826,181.168 140.5,181C 133.211,179.379 129.045,174.879 128,167.5C 120.617,169.17 113.117,169.67 105.5,169C 104.371,164.921 104.204,160.755 105,156.5C 105.75,155.874 106.584,155.374 107.5,155C 115.797,153.448 124.13,152.115 132.5,151C 134.984,146.919 138.65,144.585 143.5,144C 152.158,142.956 160.825,141.956 169.5,141C 171.158,137.832 173.825,136.165 177.5,136C 181.241,135.498 184.908,135.498 188.5,136C 187.892,134.769 187.559,133.436 187.5,132C 188.373,126.183 189.04,120.35 189.5,114.5C 184.425,114.82 182.592,112.486 184,107.5C 185.828,105.919 187.828,104.585 190,103.5C 191.211,90.5406 191.878,77.5406 192,64.5C 192.667,63.8333 193.333,63.1667 194,62.5C 194.333,59.1667 194.667,55.8333 195,52.5C 197.2,51.1645 199.033,49.4978 200.5,47.5C 199.504,44.2025 199.337,40.8692 200,37.5C 200.995,36.9341 201.828,36.2674 202.5,35.5 Z"/></g>
<g><path style="opacity:1" fill="#FF3A41" d="M 209.5,51.5 C 207.515,49.0794 206.181,46.246 205.5,43C 205.734,41.2676 206.734,40.4342 208.5,40.5C 211.321,41.0742 213.654,42.4076 215.5,44.5C 213.719,47.0912 211.719,49.4245 209.5,51.5 Z"/></g>
<g><path style="opacity:1" fill="#FF3A41" d="M 209.5,51.5 C 210.164,53.487 211.331,55.1537 213,56.5C 213.667,58.1667 213.667,59.8333 213,61.5C 210.287,63.7195 207.454,65.7195 204.5,67.5C 204.5,66.8333 204.167,66.5 203.5,66.5C 200.924,63.6769 199.757,60.3436 200,56.5C 203.141,54.6804 206.308,53.0138 209.5,51.5 Z"/></g>
<g><path style="opacity:1" fill="#f7f7f7" d="M 203.5,66.5 C 204.167,66.5 204.5,66.8333 204.5,67.5C 204.5,70.1667 204.5,72.8333 204.5,75.5C 203.518,76.1408 202.518,76.8075 201.5,77.5C 200.702,77.0431 200.369,76.3764 200.5,75.5C 202.439,74.9862 203.439,73.6528 203.5,71.5C 200.887,66.0849 198.554,66.2516 196.5,72C 197.305,73.1127 197.972,74.2794 198.5,75.5C 197.833,75.5 197.5,75.8333 197.5,76.5C 195.1,73.7321 194.934,70.7321 197,67.5C 199.041,66.5769 201.208,66.2436 203.5,66.5 Z"/></g>
<g><path style="opacity:1" fill="#FF3A41" d="M 200.5,75.5 C 199.833,75.5 199.167,75.5 198.5,75.5C 197.972,74.2794 197.305,73.1127 196.5,72C 198.554,66.2516 200.887,66.0849 203.5,71.5C 203.439,73.6528 202.439,74.9862 200.5,75.5 Z"/></g>
<g><path style="opacity:1" fill="#5D65EA" d="M 199.5,69.5 C 201.852,70.5426 202.019,71.8759 200,73.5C 198.232,72.3181 198.065,70.9848 199.5,69.5 Z"/></g>
<g><path style="opacity:1" fill="#F73C40" d="M 205.5,69.5 C 216.116,70.154 226.116,72.9874 235.5,78C 238.95,80.158 239.283,82.658 236.5,85.5C 233.678,82.5865 230.345,80.4198 226.5,79C 225.216,78.3162 224.049,78.4829 223,79.5C 223.407,88.1609 223.74,96.8276 224,105.5C 222.725,103.283 221.725,100.949 221,98.5C 220.093,91.8191 219.093,85.1525 218,78.5C 214.429,75.6091 210.262,74.2757 205.5,74.5C 205.5,72.8333 205.5,71.1667 205.5,69.5 Z"/></g>
<g><path style="opacity:1" fill="#383838" d="M 197.5,76.5 C 197.5,75.8333 197.833,75.5 198.5,75.5C 199.167,75.5 199.833,75.5 200.5,75.5C 200.369,76.3764 200.702,77.0431 201.5,77.5C 202.518,76.8075 203.518,76.1408 204.5,75.5C 208.529,76.3999 212.362,77.7332 216,79.5C 217.885,87.8075 219.218,96.1408 220,104.5C 218.2,102.683 216.034,101.516 213.5,101C 208.924,100.728 204.591,99.8951 200.5,98.5C 203.994,97.1698 206.328,94.6698 207.5,91C 206.898,89.437 206.065,89.6037 205,91.5C 202.073,89.9296 201.073,87.5962 202,84.5C 203.044,85.6226 203.71,86.9559 204,88.5C 205.375,86.0632 205.875,83.3965 205.5,80.5C 204.07,80.4208 202.736,80.7542 201.5,81.5C 200.849,79.1526 199.516,77.4859 197.5,76.5 Z"/></g>
<g><path style="opacity:1" fill="#E0E1E0" d="M 197.5,76.5 C 199.516,77.4859 200.849,79.1526 201.5,81.5C 202.736,80.7542 204.07,80.4208 205.5,80.5C 205.875,83.3965 205.375,86.0632 204,88.5C 203.71,86.9559 203.044,85.6226 202,84.5C 201.073,87.5962 202.073,89.9296 205,91.5C 206.065,89.6037 206.898,89.437 207.5,91C 206.328,94.6698 203.994,97.1698 200.5,98.5C 195.02,96.0708 194.353,92.7374 198.5,88.5C 195.851,84.8159 195.851,81.9826 198.5,80C 196.805,78.9541 196.472,77.7874 197.5,76.5 Z"/></g>
<g><path style="opacity:1" fill="#FF3A41" d="M 235.5,87.5 C 236.043,87.56 236.376,87.8933 236.5,88.5C 233.432,93.7279 230.598,99.0612 228,104.5C 227.282,105.451 226.449,105.617 225.5,105C 228.452,98.9271 231.785,93.0938 235.5,87.5 Z"/></g>
<g><path style="opacity:1" fill="#FF3A41" d="M 195.5,101.5 C 201.198,101.596 206.865,102.096 212.5,103C 214.997,103.412 216.997,104.578 218.5,106.5C 217.167,106.833 215.833,107.167 214.5,107.5C 209.178,106.89 203.844,106.39 198.5,106C 196.137,105.411 195.137,103.911 195.5,101.5 Z"/></g>
<g><path style="opacity:1" fill="#fefffe" d="M 234.5,108.5 C 235.693,108.97 236.36,109.97 236.5,111.5C 236.163,115.034 234.83,115.367 232.5,112.5C 233.18,111.14 233.847,109.807 234.5,108.5 Z"/></g>
<g><path style="opacity:1" fill="#fefffe" d="M 255.5,108.5 C 256.578,110.539 257.578,112.706 258.5,115C 255.433,116.164 253.767,115.164 253.5,112C 253.862,110.566 254.528,109.399 255.5,108.5 Z"/></g>
<g><path style="opacity:1" fill="#E0E1E0" d="M 352.5,108.5 C 369.17,108.333 385.837,108.5 402.5,109C 384.876,110.737 367.209,111.737 349.5,112C 346.045,112.727 344.379,114.893 344.5,118.5C 341.824,119.008 339.157,119.175 336.5,119C 340.815,113.693 346.148,110.193 352.5,108.5 Z"/></g>
<g><path style="opacity:1" fill="#DBDBDB" d="M 223.5,114.5 C 222.609,115.11 221.609,115.443 220.5,115.5C 219.282,114.839 217.949,114.172 216.5,113.5C 218.288,111.424 219.954,109.257 221.5,107C 227.961,107.849 227.961,109.516 221.5,112C 222.756,112.417 223.423,113.25 223.5,114.5 Z"/></g>
<g><path style="opacity:1" fill="#60322C" d="M 228.5,117.5 C 226.5,117.833 224.5,118.167 222.5,118.5C 222.218,117.222 221.551,116.222 220.5,115.5C 221.609,115.443 222.609,115.11 223.5,114.5C 226.511,108.99 228.511,109.324 229.5,115.5C 229.457,116.416 229.124,117.083 228.5,117.5 Z"/></g>
<g><path style="opacity:1" fill="#E48441" d="M 215.5,116.5 C 215.167,116.5 214.833,116.5 214.5,116.5C 209.618,118.41 204.618,119.577 199.5,120C 198.748,119.329 198.414,118.496 198.5,117.5C 196.275,116.668 194.942,117.668 194.5,120.5C 191.882,118.115 192.216,115.948 195.5,114C 194.5,113.667 193.5,113.333 192.5,113C 200.159,112.5 207.826,112.334 215.5,112.5C 215.5,113.833 215.5,115.167 215.5,116.5 Z"/></g>
<g><path style="opacity:1" fill="#000000" d="M 205.5,114.5 C 203.821,114.285 202.821,114.952 202.5,116.5C 198.853,114.943 199.353,113.943 204,113.5C 205.792,113.481 206.292,113.814 205.5,114.5 Z"/></g>
<g><path style="opacity:1" fill="#fefffe" d="M 205.5,114.5 C 205.027,115.906 204.027,116.573 202.5,116.5C 202.821,114.952 203.821,114.285 205.5,114.5 Z"/></g>
<g><path style="opacity:1" fill="#FFFFCD" d="M 244.5,114.5 C 247.397,114.125 250.063,114.625 252.5,116C 250.787,119.676 249.454,123.509 248.5,127.5C 247.15,128.95 245.484,129.617 243.5,129.5C 243.421,130.93 243.754,132.264 244.5,133.5C 242.067,135.054 239.4,135.72 236.5,135.5C 236.334,130.156 236.501,124.823 237,119.5C 237.5,118.5 238,117.5 238.5,116.5C 240.631,115.831 242.631,115.165 244.5,114.5 Z"/></g>
<g><path style="opacity:1" fill="#E0E1E0" d="M 220.5,115.5 C 221.551,116.222 222.218,117.222 222.5,118.5C 221.292,119.234 219.959,119.567 218.5,119.5C 217.1,118.9 216.1,117.9 215.5,116.5C 217.042,115.699 218.708,115.366 220.5,115.5 Z"/></g>
<g><path style="opacity:1" fill="#FFF8C6" d="M 271.5,124.5 C 269.795,127.287 268.628,126.954 268,123.5C 267.51,124.793 267.343,126.127 267.5,127.5C 263.606,126.483 259.773,126.483 256,127.5C 256.013,116.66 261.18,112.993 271.5,116.5C 273.42,119.339 275.087,122.339 276.5,125.5C 275.667,125.833 274.833,126.167 274,126.5C 272.624,126.316 271.791,125.649 271.5,124.5 Z"/></g>
<g><path style="opacity:1" fill="#000000" d="M 198.5,117.5 C 197.167,118.5 195.833,119.5 194.5,120.5C 194.942,117.668 196.275,116.668 198.5,117.5 Z"/></g>
<g><path style="opacity:1" fill="#FFBF9E" d="M 214.5,116.5 C 214.5,118.833 214.5,121.167 214.5,123.5C 213.596,124.209 213.263,125.209 213.5,126.5C 211.462,130.261 209.796,134.261 208.5,138.5C 205.194,140.961 201.528,141.627 197.5,140.5C 196.691,138.929 196.357,137.262 196.5,135.5C 199.283,138.351 201.616,138.017 203.5,134.5C 204.458,134.953 205.292,135.619 206,136.5C 208.035,133.314 207.701,130.314 205,127.5C 204.667,127.833 204.333,128.167 204,128.5C 202.67,127.418 201.17,126.751 199.5,126.5C 197.046,125.379 194.379,124.546 191.5,124C 192.71,122.961 193.71,121.794 194.5,120.5C 195.833,119.5 197.167,118.5 198.5,117.5C 198.414,118.496 198.748,119.329 199.5,120C 204.618,119.577 209.618,118.41 214.5,116.5 Z"/></g>
<g><path style="opacity:1" fill="#000000" d="M 214.5,116.5 C 214.833,116.5 215.167,116.5 215.5,116.5C 216.1,117.9 217.1,118.9 218.5,119.5C 217.325,119.281 216.325,119.614 215.5,120.5C 216.602,121.176 217.602,121.842 218.5,122.5C 217.041,122.433 215.708,122.766 214.5,123.5C 214.5,121.167 214.5,118.833 214.5,116.5 Z"/></g>
<g><path style="opacity:1" fill="#fefffe" d="M 232.5,116.5 C 233.675,116.281 234.675,116.614 235.5,117.5C 234.721,122.113 234.221,126.78 234,131.5C 232.779,130.226 231.946,128.726 231.5,127C 232.383,123.348 232.717,119.848 232.5,116.5 Z"/></g>
<g><path style="opacity:1" fill="#f9a884" d="M 228.5,117.5 C 230.972,123.531 229.305,127.531 223.5,129.5C 222.833,129.5 222.167,129.5 221.5,129.5C 221.567,128.041 221.234,126.708 220.5,125.5C 222.163,123.562 222.829,121.228 222.5,118.5C 224.5,118.167 226.5,117.833 228.5,117.5 Z"/></g>
<g><path style="opacity:1" fill="#fefffe" d="M 253.5,117.5 C 254.552,117.351 255.552,117.517 256.5,118C 255.092,121.126 253.759,124.293 252.5,127.5C 252.167,126.833 251.833,126.167 251.5,125.5C 252.171,122.815 252.838,120.148 253.5,117.5 Z"/></g>
<g><path style="opacity:1" fill="#000000" d="M 222.5,118.5 C 222.829,121.228 222.163,123.562 220.5,125.5C 220.218,124.222 219.551,123.222 218.5,122.5C 219.675,122.719 220.675,122.386 221.5,121.5C 220.398,120.824 219.398,120.158 218.5,119.5C 219.959,119.567 221.292,119.234 222.5,118.5 Z"/></g>
<g><path style="opacity:1" fill="#E0E1E0" d="M 218.5,119.5 C 219.398,120.158 220.398,120.824 221.5,121.5C 220.675,122.386 219.675,122.719 218.5,122.5C 217.602,121.842 216.602,121.176 215.5,120.5C 216.325,119.614 217.325,119.281 218.5,119.5 Z"/></g>
<g><path style="opacity:1" fill="#000000" d="M 225.5,120.5 C 227.496,119.312 228.329,119.979 228,122.5C 227.292,121.619 226.458,120.953 225.5,120.5 Z"/></g>
<g><path style="opacity:1" fill="#E0E1E0" d="M 341.5,119.5 C 344.932,119.248 345.932,120.581 344.5,123.5C 341.766,125.371 338.766,126.371 335.5,126.5C 335.5,124.5 335.5,122.5 335.5,120.5C 337.735,120.795 339.735,120.461 341.5,119.5 Z"/></g>
<g><path style="opacity:1" fill="#E0E1E0" d="M 318.5,125.5 C 318.577,124.25 319.244,123.417 320.5,123C 324.888,122.38 329.222,121.547 333.5,120.5C 334.938,122.998 334.604,125.164 332.5,127C 329.139,127.337 325.806,127.837 322.5,128.5C 320.557,128.213 319.223,127.213 318.5,125.5 Z"/></g>
<g><path style="opacity:1" fill="#000000" d="M 202.5,122.5 C 202.735,121.903 203.235,121.57 204,121.5C 207.249,123.356 208.915,126.023 209,129.5C 207.651,126.32 205.484,123.987 202.5,122.5 Z"/></g>
<g><path style="opacity:1" fill="#E0E1E0" d="M 218.5,122.5 C 219.551,123.222 220.218,124.222 220.5,125.5C 219.5,125.5 218.5,125.5 217.5,125.5C 216.5,124.833 215.5,124.167 214.5,123.5C 215.708,122.766 217.041,122.433 218.5,122.5 Z"/></g>
<g><path style="opacity:1" fill="#000000" d="M 223.5,122.5 C 227.099,122.262 227.433,123.262 224.5,125.5C 223.614,124.675 223.281,123.675 223.5,122.5 Z"/></g>
<g><path style="opacity:1" fill="#000000" d="M 271.5,124.5 C 271.783,123.711 272.283,123.044 273,122.5C 273.528,123.816 273.028,124.483 271.5,124.5 Z"/></g>
<g><path style="opacity:1" fill="#000000" d="M 214.5,123.5 C 215.5,124.167 216.5,124.833 217.5,125.5C 216.041,125.433 214.708,125.766 213.5,126.5C 213.263,125.209 213.596,124.209 214.5,123.5 Z"/></g>
<g><path style="opacity:1" fill="#8D6955" d="M 314.5,125.5 C 304.398,127.803 294.065,129.469 283.5,130.5C 277.792,130.508 277.459,130.008 282.5,129C 294.167,126.952 305.834,125.286 317.5,124C 316.263,124.232 315.263,124.732 314.5,125.5 Z"/></g>
<g><path style="opacity:1" fill="#E0E1E0" d="M 217.5,125.5 C 218.167,126.167 218.833,126.833 219.5,127.5C 217.265,127.795 215.265,127.461 213.5,126.5C 214.708,125.766 216.041,125.433 217.5,125.5 Z"/></g>
<g><path style="opacity:1" fill="#000000" d="M 217.5,125.5 C 218.5,125.5 219.5,125.5 220.5,125.5C 221.234,126.708 221.567,128.041 221.5,129.5C 220.833,128.833 220.167,128.167 219.5,127.5C 218.833,126.833 218.167,126.167 217.5,125.5 Z"/></g>
<g><path style="opacity:1" fill="#E0E1E0" d="M 314.5,125.5 C 315.833,125.5 317.167,125.5 318.5,125.5C 317.5,126.167 316.5,126.833 315.5,127.5C 304.346,129.327 293.346,131.327 282.5,133.5C 280.712,133.785 279.045,133.452 277.5,132.5C 279.631,131.831 281.631,131.165 283.5,130.5C 294.065,129.469 304.398,127.803 314.5,125.5 Z"/></g>
<g><path style="opacity:1" fill="#5C312B" d="M 199.5,126.5 C 201.17,126.751 202.67,127.418 204,128.5C 204.333,128.167 204.667,127.833 205,127.5C 207.701,130.314 208.035,133.314 206,136.5C 205.292,135.619 204.458,134.953 203.5,134.5C 203.586,133.504 203.252,132.671 202.5,132C 199.739,131.278 197.073,131.445 194.5,132.5C 191.698,135.22 190.532,134.553 191,130.5C 193.141,127.679 195.975,126.346 199.5,126.5 Z"/></g>
<g><path style="opacity:1" fill="#DE7E3B" d="M 219.5,127.5 C 220.167,128.167 220.833,128.833 221.5,129.5C 222.167,129.5 222.833,129.5 223.5,129.5C 224.239,129.369 224.906,129.536 225.5,130C 223.357,135.162 219.524,138.329 214,139.5C 213.53,138.423 213.697,137.423 214.5,136.5C 216.669,134.66 218.002,132.326 218.5,129.5C 219.338,129.158 219.672,128.492 219.5,127.5 Z"/></g>
<g><path style="opacity:1" fill="#946D57" d="M 315.5,127.5 C 317.379,127.393 317.712,127.893 316.5,129C 303.378,132.335 290.378,134.502 277.5,135.5C 279.291,134.83 280.958,134.163 282.5,133.5C 293.346,131.327 304.346,129.327 315.5,127.5 Z"/></g>
<g><path style="opacity:1" fill="#474BA7" d="M 229.5,132.5 C 229.262,134.404 228.262,135.738 226.5,136.5C 225.399,137.8 224.066,138.3 222.5,138C 225.037,135.094 227.204,131.927 229,128.5C 230.511,129.564 230.677,130.897 229.5,132.5 Z"/></g>
<g><path style="opacity:1" fill="#f9a884" d="M 250.5,131.5 C 250.791,130.351 251.624,129.684 253,129.5C 253.833,129.667 254.667,129.833 255.5,130C 258.231,132.626 260.064,135.793 261,139.5C 261.144,135.768 259.977,132.435 257.5,129.5C 258.776,128.355 260.109,128.355 261.5,129.5C 263.333,132.5 265.167,135.5 267,138.5C 266.582,135.479 265.415,132.645 263.5,130C 264.635,129.251 265.635,129.417 266.5,130.5C 270.573,138.616 271.573,147.116 269.5,156C 267.649,156.837 265.816,157.671 264,158.5C 262.748,156.999 261.748,155.332 261,153.5C 257.368,150.87 254.035,147.87 251,144.5C 249.005,140.683 247.505,136.683 246.5,132.5C 247.325,130.3 248.658,129.966 250.5,131.5 Z"/></g>
<g><path style="opacity:1" fill="#fec90d" d="M 272.5,128.5 C 274.95,128.874 275.95,130.374 275.5,133C 275.359,134.955 274.526,136.455 273,137.5C 271.374,135.083 269.874,132.583 268.5,130C 270.058,129.79 271.391,129.29 272.5,128.5 Z"/></g>
<g><path style="opacity:1" fill="#777777" d="M 213.5,126.5 C 215.265,127.461 217.265,127.795 219.5,127.5C 219.672,128.492 219.338,129.158 218.5,129.5C 218.002,132.326 216.669,134.66 214.5,136.5C 212.952,136.821 212.285,137.821 212.5,139.5C 211.178,139.33 210.011,139.663 209,140.5C 208.536,139.906 208.369,139.239 208.5,138.5C 209.796,134.261 211.462,130.261 213.5,126.5 Z"/></g>
<g><path style="opacity:1" fill="#E0E1E0" d="M 218.5,129.5 C 217.114,131.593 215.447,131.426 213.5,129C 215.387,128.22 217.054,128.387 218.5,129.5 Z"/></g>
<g><path style="opacity:1" fill="#f9a884" d="M 203.5,134.5 C 201.84,132.752 199.84,132.252 197.5,133C 196.748,133.671 196.414,134.504 196.5,135.5C 195.599,134.71 194.932,133.71 194.5,132.5C 197.073,131.445 199.739,131.278 202.5,132C 203.252,132.671 203.586,133.504 203.5,134.5 Z"/></g>
<g><path style="opacity:1" fill="#FF3A41" d="M 226.5,136.5 C 228.262,135.738 229.262,134.404 229.5,132.5C 230.117,132.389 230.617,132.056 231,131.5C 235.132,135.489 234.298,137.489 228.5,137.5C 227.584,137.457 226.917,137.124 226.5,136.5 Z"/></g>
<g><path style="opacity:1" fill="#000000" d="M 250.5,131.5 C 253.609,133.718 255.109,136.718 255,140.5C 253.489,137.478 251.989,134.478 250.5,131.5 Z"/></g>
<g><path style="opacity:1" fill="#000000" d="M 203.5,134.5 C 201.616,138.017 199.283,138.351 196.5,135.5C 196.414,134.504 196.748,133.671 197.5,133C 199.84,132.252 201.84,132.752 203.5,134.5 Z"/></g>
<g><path style="opacity:1" fill="#D69874" d="M 231.5,140.5 C 231.62,139.414 232.287,138.747 233.5,138.5C 237.013,137.879 240.513,137.213 244,136.5C 245.713,137.954 246.88,139.788 247.5,142C 242.714,143.537 237.881,144.704 233,145.5C 232.802,143.618 232.302,141.952 231.5,140.5 Z"/></g>
<g><path style="opacity:1" fill="#fec90d" d="M 231.5,140.5 C 231.5,142.167 231.5,143.833 231.5,145.5C 230.5,145.5 229.5,145.5 228.5,145.5C 228.737,144.209 228.404,143.209 227.5,142.5C 227.5,141.833 227.167,141.5 226.5,141.5C 227.607,139.153 229.274,138.82 231.5,140.5 Z"/></g>
<g><path style="opacity:1" fill="#D69774" d="M 226.5,141.5 C 227.167,141.5 227.5,141.833 227.5,142.5C 227.64,144.124 226.973,145.29 225.5,146C 211.249,148.789 197.083,151.623 183,154.5C 182.984,150.717 184.817,148.217 188.5,147C 200.156,144.769 211.823,142.602 223.5,140.5C 224.584,140.685 225.584,141.018 226.5,141.5 Z"/></g>
<g><path style="opacity:1" fill="#FF3B41" d="M 180.5,144.5 C 179.105,143.185 178.105,143.519 177.5,145.5C 176.508,145.328 175.842,145.662 175.5,146.5C 174.515,144.602 175.182,143.102 177.5,142C 179.403,141.226 181.07,141.56 182.5,143C 181.584,143.278 180.918,143.778 180.5,144.5 Z"/></g>
<g><path style="opacity:1" fill="#D4D4D4" d="M 181.5,147.5 C 178.874,145.994 176.874,146.661 175.5,149.5C 175.082,148.778 174.416,148.278 173.5,148C 174.416,147.722 175.082,147.222 175.5,146.5C 175.842,145.662 176.508,145.328 177.5,145.5C 178.791,145.737 179.791,145.404 180.5,144.5C 182.827,144.335 184.993,143.669 187,142.5C 188.734,143.249 190.567,143.749 192.5,144C 188.55,144.484 184.883,145.651 181.5,147.5 Z"/></g>
<g><path style="opacity:1" fill="#000000" d="M 180.5,144.5 C 179.791,145.404 178.791,145.737 177.5,145.5C 178.105,143.519 179.105,143.185 180.5,144.5 Z"/></g>
<g><path style="opacity:1" fill="#DF3D3D" d="M 253.5,150.5 C 254.167,152.5 254.833,154.5 255.5,156.5C 255.5,157.5 255.5,158.5 255.5,159.5C 253.876,159.64 252.71,158.973 252,157.5C 251.517,158.448 251.351,159.448 251.5,160.5C 250.5,160.5 249.5,160.5 248.5,160.5C 248.254,155.609 247.587,150.776 246.5,146C 246.85,144.743 247.517,144.409 248.5,145C 250.373,146.704 252.04,148.537 253.5,150.5 Z"/></g>
<g><path style="opacity:1" fill="#fefffe" d="M 241.5,145.5 C 242.5,145.5 243.5,145.5 244.5,145.5C 245.408,157.209 247.908,168.542 252,179.5C 258.562,185.864 266.396,189.698 275.5,191C 265.175,193.964 256.675,191.131 250,182.5C 248.667,180.5 247.333,178.5 246,176.5C 243.179,166.55 240.679,156.55 238.5,146.5C 239.791,146.737 240.791,146.404 241.5,145.5 Z"/></g>
<g><path style="opacity:1" fill="#E0E1E0" d="M 169.5,149.5 C 166.093,149.875 165.593,148.875 168,146.5C 169.039,147.244 169.539,148.244 169.5,149.5 Z"/></g>
<g><path style="opacity:1" fill="#fefffe" d="M 218.5,185.5 C 219.287,180.304 220.787,175.304 223,170.5C 226.784,163.266 230.284,155.933 233.5,148.5C 234.151,147.909 234.818,147.243 235.5,146.5C 236.288,149.899 237.288,153.233 238.5,156.5C 230.995,165.658 224.328,175.324 218.5,185.5 Z"/></g>
<g><path style="opacity:1" fill="#FF3A41" d="M 272.5,146.5 C 274.603,148.018 274.77,149.685 273,151.5C 272.506,149.866 272.34,148.199 272.5,146.5 Z"/></g>
<g><path style="opacity:1" fill="#f9a884" d="M 162.5,156.5 C 162.567,157.959 162.234,159.292 161.5,160.5C 160.508,160.328 159.842,160.662 159.5,161.5C 158.494,160.021 158.494,158.354 159.5,156.5C 159.147,154.269 158.314,152.269 157,150.5C 156.952,152.544 157.452,154.544 158.5,156.5C 158.216,158.759 157.216,160.426 155.5,161.5C 155.909,157.501 155.075,153.834 153,150.5C 153.916,154.015 154.416,157.682 154.5,161.5C 153.609,162.11 152.609,162.443 151.5,162.5C 151.231,158.526 150.064,154.86 148,151.5C 148.696,155.114 149.53,158.781 150.5,162.5C 148.958,163.301 147.292,163.634 145.5,163.5C 148.211,160.131 147.878,156.964 144.5,154C 143.563,153.308 142.897,153.475 142.5,154.5C 141.833,154.5 141.167,154.5 140.5,154.5C 137.875,153.559 137.875,152.393 140.5,151C 146.567,148.579 152.734,147.746 159,148.5C 160.719,151.025 161.886,153.692 162.5,156.5 Z"/></g>
<g><path style="opacity:1" fill="#9D735C" d="M 181.5,147.5 C 182.067,149.698 182.067,152.031 181.5,154.5C 178.056,155.591 174.556,156.591 171,157.5C 169.93,157.472 169.097,157.139 168.5,156.5C 170.74,155.736 173.073,154.902 175.5,154C 176.413,152.586 176.413,151.086 175.5,149.5C 176.874,146.661 178.874,145.994 181.5,147.5 Z"/></g>
<g><path style="opacity:1" fill="#7C2E30" d="M 233.5,148.5 C 230.284,155.933 226.784,163.266 223,170.5C 220.787,175.304 219.287,180.304 218.5,185.5C 218.279,188.097 217.779,188.097 217,185.5C 216.178,188.117 215.678,190.784 215.5,193.5C 214.833,198.833 214.167,204.167 213.5,209.5C 213.167,209.5 212.833,209.5 212.5,209.5C 211.732,210.263 211.232,211.263 211,212.5C 209.878,210.593 209.045,208.593 208.5,206.5C 209.776,193.729 212.776,181.396 217.5,169.5C 218.674,168.486 219.34,167.153 219.5,165.5C 220.728,164.694 221.728,163.694 222.5,162.5C 223.737,161.035 224.737,159.368 225.5,157.5C 225.328,156.508 225.662,155.842 226.5,155.5C 228.818,153.815 229.818,151.481 229.5,148.5C 230.961,147.314 232.295,147.314 233.5,148.5 Z"/></g>
<g><path style="opacity:1" fill="#FF3A41" d="M 225.5,150.5 C 223.809,151.864 222.142,153.197 220.5,154.5C 216.222,150.679 217.222,148.679 223.5,148.5C 224.713,148.747 225.38,149.414 225.5,150.5 Z"/></g>
<g><path style="opacity:1" fill="#fec90d" d="M 169.5,149.5 C 171.5,149.5 173.5,149.5 175.5,149.5C 176.413,151.086 176.413,152.586 175.5,154C 173.073,154.902 170.74,155.736 168.5,156.5C 166.5,156.5 164.5,156.5 162.5,156.5C 162.343,155.127 162.51,153.793 163,152.5C 165.166,151.269 167.333,150.269 169.5,149.5 Z"/></g>
<g><path style="opacity:1" fill="#000000" d="M 155.5,161.5 C 155.167,161.5 154.833,161.5 154.5,161.5C 154.416,157.682 153.916,154.015 153,150.5C 155.075,153.834 155.909,157.501 155.5,161.5 Z"/></g>
<g><path style="opacity:1" fill="#484CAD" d="M 217.5,155.5 C 216.791,156.404 215.791,156.737 214.5,156.5C 212.692,155.082 212.025,153.082 212.5,150.5C 215.255,150.963 216.922,152.63 217.5,155.5 Z"/></g>
<g><path style="opacity:1" fill="#817E88" d="M 229.5,148.5 C 229.818,151.481 228.818,153.815 226.5,155.5C 226.631,154.761 226.464,154.094 226,153.5C 224.512,155.16 222.679,156.16 220.5,156.5C 220.5,156.167 220.5,155.833 220.5,155.5C 220.5,155.167 220.5,154.833 220.5,154.5C 222.142,153.197 223.809,151.864 225.5,150.5C 226.267,149.828 226.934,148.995 227.5,148C 228.437,147.308 229.103,147.475 229.5,148.5 Z"/></g>
<g><path style="opacity:1" fill="#FF3A41" d="M 253.5,150.5 C 255.392,151.702 257.226,153.035 259,154.5C 259.392,158.552 258.225,159.219 255.5,156.5C 254.833,154.5 254.167,152.5 253.5,150.5 Z"/></g>
<g><path style="opacity:1" fill="#000000" d="M 151.5,162.5 C 151.167,162.5 150.833,162.5 150.5,162.5C 149.53,158.781 148.696,155.114 148,151.5C 150.064,154.86 151.231,158.526 151.5,162.5 Z"/></g>
<g><path style="opacity:1" fill="#FF3A41" d="M 208.5,155.5 C 208.158,154.662 207.492,154.328 206.5,154.5C 206.082,153.778 205.416,153.278 204.5,153C 206.345,151.872 208.345,151.372 210.5,151.5C 210.843,153.483 210.176,154.817 208.5,155.5 Z"/></g>
<g><path style="opacity:1" fill="#5A62DD" d="M 285.5,162.5 C 284.9,163.9 283.9,164.9 282.5,165.5C 279.169,166.615 275.836,167.949 272.5,169.5C 271.508,169.672 270.842,169.338 270.5,168.5C 270.5,167.167 269.833,166.5 268.5,166.5C 267.778,166.918 267.278,167.584 267,168.5C 264.696,166.22 263.196,163.554 262.5,160.5C 265.311,160.174 267.978,159.341 270.5,158C 272.733,155.767 274.9,153.6 277,151.5C 279.234,152.701 281.401,154.035 283.5,155.5C 284.067,157.982 284.734,160.316 285.5,162.5 Z"/></g>
<g><path style="opacity:1" fill="#fefffe" d="M 200.5,152.5 C 201.496,152.414 202.329,152.748 203,153.5C 204.456,160.58 207.623,166.747 212.5,172C 210.994,174.333 209.327,176.5 207.5,178.5C 203.762,175.09 200.762,171.09 198.5,166.5C 199.816,161.934 200.483,157.268 200.5,152.5 Z"/></g>
<g><path style="opacity:1" fill="#fefffe" d="M 193.5,153.5 C 195.167,153.5 196.833,153.5 198.5,153.5C 197.218,163.19 195.718,172.857 194,182.5C 193.385,180.884 192.385,179.551 191,178.5C 190.245,169.86 191.079,161.527 193.5,153.5 Z"/></g>
<g><path style="opacity:1" fill="#575BC9" d="M 226.5,155.5 C 225.662,155.842 225.328,156.508 225.5,157.5C 223.745,158.072 222.078,158.906 220.5,160C 218.714,163.612 216.38,166.779 213.5,169.5C 210.464,165.928 207.797,162.095 205.5,158C 206.094,157.536 206.761,157.369 207.5,157.5C 211.936,158.818 216.269,158.485 220.5,156.5C 222.679,156.16 224.512,155.16 226,153.5C 226.464,154.094 226.631,154.761 226.5,155.5 Z"/></g>
<g><path style="opacity:1" fill="#CC9170" d="M 140.5,154.5 C 140.167,155.167 139.833,155.833 139.5,156.5C 139.782,157.778 140.449,158.778 141.5,159.5C 132.694,161.47 123.694,163.137 114.5,164.5C 113.893,164.376 113.56,164.043 113.5,163.5C 114.833,162.5 114.833,161.5 113.5,160.5C 113.918,159.778 114.584,159.278 115.5,159C 124.079,158.331 132.412,156.831 140.5,154.5 Z"/></g>
<g><path style="opacity:1" fill="#000000" d="M 140.5,154.5 C 141.167,154.5 141.833,154.5 142.5,154.5C 142.027,155.906 141.027,156.573 139.5,156.5C 139.833,155.833 140.167,155.167 140.5,154.5 Z"/></g>
<g><path style="opacity:1" fill="#fec90d" d="M 142.5,154.5 C 144.054,155.914 145.388,157.581 146.5,159.5C 144.833,160.666 143.166,160.666 141.5,159.5C 140.449,158.778 139.782,157.778 139.5,156.5C 141.027,156.573 142.027,155.906 142.5,154.5 Z"/></g>
<g><path style="opacity:1" fill="#DA3D3D" d="M 186.5,154.5 C 187.5,154.5 188.5,154.5 189.5,154.5C 189.5,158.167 189.5,161.833 189.5,165.5C 187.326,165.08 185.326,165.08 183.5,165.5C 182.808,164.975 182.308,164.308 182,163.5C 181.692,164.308 181.192,164.975 180.5,165.5C 177.976,163.81 175.976,161.643 174.5,159C 178.808,158.054 182.808,156.554 186.5,154.5 Z"/></g>
<g><path style="opacity:1" fill="#FFFFFF" d="M 206.5,154.5 C 207.492,154.328 208.158,154.662 208.5,155.5C 210.32,157.461 212.32,157.794 214.5,156.5C 215.791,156.737 216.791,156.404 217.5,155.5C 218.5,155.5 219.5,155.5 220.5,155.5C 220.5,155.833 220.5,156.167 220.5,156.5C 216.269,158.485 211.936,158.818 207.5,157.5C 206.602,156.842 205.602,156.176 204.5,155.5C 204.957,154.702 205.624,154.369 206.5,154.5 Z"/></g>
<g><path style="opacity:1" fill="#5961DF" d="M 255.5,179.5 C 257.79,176.923 258.956,173.923 259,170.5C 256.898,172.095 255.398,174.095 254.5,176.5C 253.25,176.423 252.417,175.756 252,174.5C 250.717,170.586 249.884,166.586 249.5,162.5C 253.834,161.923 257.834,160.756 261.5,159C 259.032,160.588 258.866,162.422 261,164.5C 265.667,169.833 270.333,175.167 275,180.5C 276.903,182.441 277.736,184.774 277.5,187.5C 273.649,188.696 270.149,188.03 267,185.5C 262.29,185.559 258.456,183.559 255.5,179.5 Z"/></g>
<g><path style="opacity:1" fill="#fefffe" d="M 287.5,159.5 C 286.596,160.209 286.263,161.209 286.5,162.5C 286.167,162.5 285.833,162.5 285.5,162.5C 285.238,161.022 285.571,159.689 286.5,158.5C 287.107,158.624 287.44,158.957 287.5,159.5 Z"/></g>
<g><path style="opacity:1" fill="#5C64E6" d="M 181.5,175.5 C 179.577,172.397 177.41,169.397 175,166.5C 174.333,167.5 174.333,168.5 175,169.5C 176.394,171.388 177.56,173.388 178.5,175.5C 176.379,175.675 174.379,175.341 172.5,174.5C 168.781,163.726 167.781,164.06 169.5,175.5C 164.982,175.258 160.316,175.092 155.5,175C 156.653,170.582 157.986,166.415 159.5,162.5C 160.901,165.799 162.735,166.132 165,163.5C 165.692,162.563 165.525,161.897 164.5,161.5C 166.851,159.797 169.518,159.297 172.5,160C 175.594,166.915 180.927,169.415 188.5,167.5C 188.5,170.5 188.5,173.5 188.5,176.5C 186.05,176.702 183.717,176.369 181.5,175.5 Z"/></g>
<g><path style="opacity:1" fill="#716CC8" d="M 239.5,167.5 C 238.141,169.518 236.807,171.518 235.5,173.5C 234.596,174.209 234.263,175.209 234.5,176.5C 233.732,175.737 233.232,174.737 233,173.5C 232.764,175.119 231.931,176.119 230.5,176.5C 229.167,176.5 228.5,177.167 228.5,178.5C 227.662,178.158 227.328,177.492 227.5,176.5C 230.323,170.2 234.156,164.533 239,159.5C 240.415,162.002 240.581,164.668 239.5,167.5 Z"/></g>
<g><path style="opacity:1" fill="#5B64E3" d="M 287.5,159.5 C 296.867,165.879 303.2,174.545 306.5,185.5C 305.52,190.665 302.52,192.832 297.5,192C 291.713,189.606 286.046,186.94 280.5,184C 277.262,180.272 274.262,176.439 271.5,172.5C 275.531,169.266 280.198,167.599 285.5,167.5C 286.5,167.5 287.5,167.5 288.5,167.5C 288.784,165.585 288.451,163.919 287.5,162.5C 287.167,162.5 286.833,162.5 286.5,162.5C 286.263,161.209 286.596,160.209 287.5,159.5 Z"/></g>
<g><path style="opacity:1" fill="#fec90d" d="M 113.5,160.5 C 114.833,161.5 114.833,162.5 113.5,163.5C 112.292,164.234 110.959,164.567 109.5,164.5C 109.5,163.167 109.5,161.833 109.5,160.5C 110.833,160.5 112.167,160.5 113.5,160.5 Z"/></g>
<g><path style="opacity:1" fill="#B1826E" d="M 161.5,160.5 C 162.609,160.557 163.609,160.89 164.5,161.5C 165.525,161.897 165.692,162.563 165,163.5C 162.735,166.132 160.901,165.799 159.5,162.5C 159.5,162.167 159.5,161.833 159.5,161.5C 159.842,160.662 160.508,160.328 161.5,160.5 Z"/></g>
<g><path style="opacity:1" fill="#fefffe" d="M 222.5,162.5 C 221.728,163.694 220.728,164.694 219.5,165.5C 219.795,163.577 220.628,161.91 222,160.5C 222.464,161.094 222.631,161.761 222.5,162.5 Z"/></g>
<g><path style="opacity:1" fill="#C47239" d="M 154.5,161.5 C 154.833,161.5 155.167,161.5 155.5,161.5C 155.67,162.822 155.337,163.989 154.5,165C 149.267,168.595 144.601,167.928 140.5,163C 142.265,162.36 143.932,162.527 145.5,163.5C 147.292,163.634 148.958,163.301 150.5,162.5C 150.833,162.5 151.167,162.5 151.5,162.5C 152.609,162.443 153.609,162.11 154.5,161.5 Z"/></g>
<g><path style="opacity:1" fill="#000000" d="M 285.5,162.5 C 285.833,162.5 286.167,162.5 286.5,162.5C 286.5,163.5 286.5,164.5 286.5,165.5C 285.167,165.5 283.833,165.5 282.5,165.5C 283.9,164.9 284.9,163.9 285.5,162.5 Z"/></g>
<g><path style="opacity:1" fill="#fefffe" d="M 286.5,162.5 C 286.833,162.5 287.167,162.5 287.5,162.5C 287.635,164.554 286.968,166.221 285.5,167.5C 280.198,167.599 275.531,169.266 271.5,172.5C 270.957,172.44 270.624,172.107 270.5,171.5C 271.243,170.818 271.909,170.151 272.5,169.5C 275.836,167.949 279.169,166.615 282.5,165.5C 283.833,165.5 285.167,165.5 286.5,165.5C 286.5,164.5 286.5,163.5 286.5,162.5 Z"/></g>
<g><path style="opacity:1" fill="#000000" d="M 287.5,162.5 C 288.451,163.919 288.784,165.585 288.5,167.5C 287.5,167.5 286.5,167.5 285.5,167.5C 286.968,166.221 287.635,164.554 287.5,162.5 Z"/></g>
<g><path style="opacity:1" fill="#5254B3" d="M 147.5,170.5 C 145.735,171.461 143.735,171.795 141.5,171.5C 140.139,169.473 138.473,167.806 136.5,166.5C 135.114,164.24 135.781,163.406 138.5,164C 141.402,166.417 144.402,168.584 147.5,170.5 Z"/></g>
<g><path style="opacity:1" fill="#fefffe" d="M 219.5,165.5 C 219.34,167.153 218.674,168.486 217.5,169.5C 217.229,167.62 217.896,166.287 219.5,165.5 Z"/></g>
<g><path style="opacity:1" fill="#fefffe" d="M 136.5,166.5 C 138.473,167.806 140.139,169.473 141.5,171.5C 139.5,170.5 137.5,169.5 135.5,168.5C 133.969,167.075 134.302,166.409 136.5,166.5 Z"/></g>
<g><path style="opacity:1" fill="#fefffe" d="M 268.5,166.5 C 269.833,166.5 270.5,167.167 270.5,168.5C 269.167,168.5 268.5,167.833 268.5,166.5 Z"/></g>
<g><path style="opacity:1" fill="#5457BA" d="M 135.5,168.5 C 137.5,169.5 139.5,170.5 141.5,171.5C 145.711,172.991 149.711,172.325 153.5,169.5C 154.222,169.082 154.722,168.416 155,167.5C 155.731,173.974 152.731,176.974 146,176.5C 141.462,176.065 137.796,174.065 135,170.5C 134.308,169.563 134.475,168.897 135.5,168.5 Z"/></g>
<g><path style="opacity:1" fill="#43438A" d="M 181.5,175.5 C 180.5,176.833 179.5,176.833 178.5,175.5C 177.56,173.388 176.394,171.388 175,169.5C 174.333,168.5 174.333,167.5 175,166.5C 177.41,169.397 179.577,172.397 181.5,175.5 Z"/></g>
<g><path style="opacity:1" fill="#5861E0" d="M 239.5,167.5 C 240.75,167.577 241.583,168.244 242,169.5C 244.053,180.089 249.886,187.922 259.5,193C 261.81,193.497 264.143,193.663 266.5,193.5C 268.36,198.415 270.027,203.415 271.5,208.5C 265.007,204.254 258.007,201.088 250.5,199C 244.751,195.752 239.418,191.919 234.5,187.5C 234.5,186.5 234.5,185.5 234.5,184.5C 238.291,187.118 241.957,189.951 245.5,193C 246.759,193.982 248.092,194.315 249.5,194C 245.713,188.544 241.546,183.377 237,178.5C 235.991,176.975 235.491,175.308 235.5,173.5C 236.807,171.518 238.141,169.518 239.5,167.5 Z"/></g>
<g><path style="opacity:1" fill="#fefffe" d="M 153.5,169.5 C 149.711,172.325 145.711,172.991 141.5,171.5C 143.735,171.795 145.735,171.461 147.5,170.5C 149.094,170.08 150.594,169.414 152,168.5C 152.765,168.57 153.265,168.903 153.5,169.5 Z"/></g>
<g><path style="opacity:1" fill="#424285" d="M 172.5,174.5 C 171.791,175.404 170.791,175.737 169.5,175.5C 167.781,164.06 168.781,163.726 172.5,174.5 Z"/></g>
<g><path style="opacity:1" fill="#5D65EA" d="M 198.5,172.5 C 198.351,171.448 198.517,170.448 199,169.5C 199.707,171.081 200.54,172.581 201.5,174C 200.212,174.239 199.212,173.739 198.5,172.5 Z"/></g>
<g><path style="opacity:1" fill="#fefffe" d="M 217.5,169.5 C 212.776,181.396 209.776,193.729 208.5,206.5C 207.883,206.611 207.383,206.944 207,207.5C 206.128,203.42 204.961,199.42 203.5,195.5C 206.115,185.596 210.781,176.929 217.5,169.5 Z"/></g>
<g><path style="opacity:1" fill="#454696" d="M 255.5,179.5 C 253.519,178.895 253.185,177.895 254.5,176.5C 255.398,174.095 256.898,172.095 259,170.5C 258.956,173.923 257.79,176.923 255.5,179.5 Z"/></g>
<g><path style="opacity:1" fill="#fefffe" d="M 198.5,172.5 C 198.43,176.425 199.097,180.091 200.5,183.5C 200.205,185.735 200.539,187.735 201.5,189.5C 201.657,190.873 201.49,192.207 201,193.5C 200.057,190.749 199.224,188.083 198.5,185.5C 198.795,183.265 198.461,181.265 197.5,179.5C 197.198,176.941 197.532,174.607 198.5,172.5 Z"/></g>
<g><path style="opacity:1" fill="#fefffe" d="M 201.5,177.5 C 199.663,177.361 199.33,176.694 200.5,175.5C 201.298,175.957 201.631,176.624 201.5,177.5 Z"/></g>
<g><path style="opacity:1" fill="#5A61DC" d="M 204.5,184.5 C 203.833,184.167 203.167,183.833 202.5,183.5C 201.833,183.5 201.167,183.5 200.5,183.5C 200.325,181.379 200.659,179.379 201.5,177.5C 202.222,177.082 202.722,176.416 203,175.5C 203.536,177.869 204.703,179.869 206.5,181.5C 206.058,182.739 205.391,183.739 204.5,184.5 Z"/></g>
<g><path style="opacity:1" fill="#5B63E3" d="M 227.5,176.5 C 227.328,177.492 227.662,178.158 228.5,178.5C 229.167,178.5 229.833,178.5 230.5,178.5C 231.643,181.976 231.81,185.642 231,189.5C 228.173,187.506 225.673,185.172 223.5,182.5C 224.361,180.089 225.694,178.089 227.5,176.5 Z"/></g>
<g><path style="opacity:1" fill="#fefffe" d="M 230.5,176.5 C 230.5,177.167 230.5,177.833 230.5,178.5C 229.833,178.5 229.167,178.5 228.5,178.5C 228.5,177.167 229.167,176.5 230.5,176.5 Z"/></g>
<g><path style="opacity:1" fill="#4649A0" d="M 235.5,173.5 C 235.491,175.308 235.991,176.975 237,178.5C 241.546,183.377 245.713,188.544 249.5,194C 248.092,194.315 246.759,193.982 245.5,193C 241.957,189.951 238.291,187.118 234.5,184.5C 234.5,181.833 234.5,179.167 234.5,176.5C 234.263,175.209 234.596,174.209 235.5,173.5 Z"/></g>
<g><path style="opacity:1" fill="#5355B4" d="M 197.5,179.5 C 198.461,181.265 198.795,183.265 198.5,185.5C 197.847,189.009 196.847,188.676 195.5,184.5C 196.028,182.664 196.694,180.997 197.5,179.5 Z"/></g>
<g><path style="opacity:1" fill="#000000" d="M 200.5,183.5 C 201.167,183.5 201.833,183.5 202.5,183.5C 201.167,184.5 201.167,185.5 202.5,186.5C 201.596,187.209 201.263,188.209 201.5,189.5C 200.539,187.735 200.205,185.735 200.5,183.5 Z"/></g>
<g><path style="opacity:1" fill="#fefffe" d="M 202.5,183.5 C 203.167,183.833 203.833,184.167 204.5,184.5C 204.167,185.5 203.5,186.167 202.5,186.5C 201.167,185.5 201.167,184.5 202.5,183.5 Z"/></g>
<g><path style="opacity:1" fill="#fefffe" d="M 221.5,184.5 C 235.504,196.664 250.504,207.497 266.5,217C 263.865,218.961 262.031,221.461 261,224.5C 246.109,214.487 231.942,203.654 218.5,192C 219.651,189.535 220.651,187.035 221.5,184.5 Z"/></g>
<g><path style="opacity:1" fill="#5D65EA" d="M 202.5,186.5 C 204.129,188.196 203.796,189.196 201.5,189.5C 201.263,188.209 201.596,187.209 202.5,186.5 Z"/></g>
<g><path style="opacity:1" fill="#4C52BD" d="M 234.5,187.5 C 239.418,191.919 244.751,195.752 250.5,199C 258.007,201.088 265.007,204.254 271.5,208.5C 271.721,211.097 272.221,211.097 273,208.5C 273.464,209.094 273.631,209.761 273.5,210.5C 273.833,212.5 274.167,214.5 274.5,216.5C 274.649,217.552 274.483,218.552 274,219.5C 260.651,210.993 247.651,201.993 235,192.5C 234.506,190.866 234.34,189.199 234.5,187.5 Z"/></g>
<g><path style="opacity:1" fill="#5960D8" d="M 215.5,193.5 C 217.949,194.94 219.615,196.94 220.5,199.5C 221.39,205.386 222.723,211.053 224.5,216.5C 224.715,218.179 224.048,219.179 222.5,219.5C 221.329,218.655 219.995,217.989 218.5,217.5C 217.105,216.185 216.105,216.519 215.5,218.5C 214.883,218.389 214.383,218.056 214,217.5C 213.503,214.854 213.336,212.187 213.5,209.5C 214.167,204.167 214.833,198.833 215.5,193.5 Z"/></g>
<g><path style="opacity:1" fill="#BC5E1E" d="M 201.5,204.5 C 203.121,204.787 204.121,205.787 204.5,207.5C 203.167,208.833 201.833,208.833 200.5,207.5C 201.127,206.583 201.461,205.583 201.5,204.5 Z"/></g>
<g><path style="opacity:1" fill="#575AC4" d="M 232.5,211.5 C 232.5,212.833 233.167,213.5 234.5,213.5C 235.778,213.218 236.778,212.551 237.5,211.5C 237.5,212.167 237.5,212.833 237.5,213.5C 238.014,215.366 238.68,217.2 239.5,219C 239.43,219.765 239.097,220.265 238.5,220.5C 237.508,220.672 236.842,220.338 236.5,219.5C 235.5,216.833 234.5,216.833 233.5,219.5C 231.052,220.473 228.385,220.806 225.5,220.5C 225.768,218.901 225.434,217.568 224.5,216.5C 222.723,211.053 221.39,205.386 220.5,199.5C 220.369,198.761 220.536,198.094 221,197.5C 225.625,201.223 230.125,205.056 234.5,209C 233.944,210.011 233.278,210.844 232.5,211.5 Z"/></g>
<g><path style="opacity:1" fill="#fefffe" d="M 212.5,209.5 C 212.833,209.5 213.167,209.5 213.5,209.5C 213.336,212.187 213.503,214.854 214,217.5C 214.383,218.056 214.883,218.389 215.5,218.5C 215.158,219.338 214.492,219.672 213.5,219.5C 212.586,216.272 212.253,212.939 212.5,209.5 Z"/></g>
<g><path style="opacity:1" fill="#BC5E1E" d="M 200.5,210.5 C 202.604,210.201 204.604,210.534 206.5,211.5C 208.581,214.524 209.247,217.69 208.5,221C 204.438,222.59 200.605,222.09 197,219.5C 196.333,217.833 196.333,216.167 197,214.5C 198.376,213.295 199.542,211.962 200.5,210.5 Z"/></g>
<g><path style="opacity:1" fill="#585ED0" d="M 240.5,216.5 C 239.728,215.306 238.728,214.306 237.5,213.5C 237.5,212.833 237.5,212.167 237.5,211.5C 237.897,210.475 238.563,210.308 239.5,211C 242.688,213.432 245.688,216.099 248.5,219C 246.19,219.497 243.857,219.663 241.5,219.5C 241.737,218.209 241.404,217.209 240.5,216.5 Z"/></g>
<g><path style="opacity:1" fill="#fefffe" d="M 273.5,210.5 C 275.674,213.515 277.341,216.849 278.5,220.5C 277.662,220.842 277.328,221.508 277.5,222.5C 276.203,220.629 275.203,218.629 274.5,216.5C 274.167,214.5 273.833,212.5 273.5,210.5 Z"/></g>
<g><path style="opacity:1" fill="#fefffe" d="M 232.5,211.5 C 233.833,211.5 234.5,212.167 234.5,213.5C 234.5,212.167 233.833,211.5 232.5,211.5 Z"/></g>
<g><path style="opacity:1" fill="#fefffe" d="M 237.5,213.5 C 238.728,214.306 239.728,215.306 240.5,216.5C 240.5,217.833 240.5,219.167 240.5,220.5C 243.713,220.19 246.713,220.523 249.5,221.5C 246.287,221.19 243.287,221.523 240.5,222.5C 235.167,222.5 229.833,222.5 224.5,222.5C 223.432,221.566 222.099,221.232 220.5,221.5C 219.5,220.833 218.5,220.167 217.5,219.5C 219.167,219.5 220.833,219.5 222.5,219.5C 223.209,220.404 224.209,220.737 225.5,220.5C 229.833,221.833 234.167,221.833 238.5,220.5C 239.097,220.265 239.43,219.765 239.5,219C 238.68,217.2 238.014,215.366 237.5,213.5 Z"/></g>
<g><path style="opacity:1" fill="#fefffe" d="M 218.5,217.5 C 218.167,218.167 217.833,218.833 217.5,219.5C 216.833,219.167 216.167,218.833 215.5,218.5C 216.105,216.519 217.105,216.185 218.5,217.5 Z"/></g>
<g><path style="opacity:1" fill="#000000" d="M 224.5,216.5 C 225.434,217.568 225.768,218.901 225.5,220.5C 224.209,220.737 223.209,220.404 222.5,219.5C 224.048,219.179 224.715,218.179 224.5,216.5 Z"/></g>
<g><path style="opacity:1" fill="#000000" d="M 218.5,217.5 C 219.995,217.989 221.329,218.655 222.5,219.5C 220.833,219.5 219.167,219.5 217.5,219.5C 217.833,218.833 218.167,218.167 218.5,217.5 Z"/></g>
<g><path style="opacity:1" fill="#fefffe" d="M 236.5,219.5 C 235.5,220.833 234.5,220.833 233.5,219.5C 234.5,216.833 235.5,216.833 236.5,219.5 Z"/></g>
<g><path style="opacity:1" fill="#000000" d="M 215.5,218.5 C 216.167,218.833 216.833,219.167 217.5,219.5C 218.5,220.167 219.5,220.833 220.5,221.5C 219.71,222.609 219.21,223.942 219,225.5C 218.592,222.073 216.759,220.073 213.5,219.5C 214.492,219.672 215.158,219.338 215.5,218.5 Z"/></g>
<g><path style="opacity:1" fill="#000000" d="M 233.5,219.5 C 234.5,220.833 235.5,220.833 236.5,219.5C 236.842,220.338 237.508,220.672 238.5,220.5C 234.167,221.833 229.833,221.833 225.5,220.5C 228.385,220.806 231.052,220.473 233.5,219.5 Z"/></g>
<g><path style="opacity:1" fill="#fec90d" d="M 269.5,220.5 C 267.997,224.341 266.664,228.341 265.5,232.5C 262.888,228.103 263.221,223.937 266.5,220C 267.749,219.26 268.749,219.427 269.5,220.5 Z"/></g>
<g><path style="opacity:1" fill="#75612A" d="M 269.5,220.5 C 272.367,220.369 274.033,221.703 274.5,224.5C 272.105,227.861 269.105,230.528 265.5,232.5C 266.664,228.341 267.997,224.341 269.5,220.5 Z"/></g>
<g><path style="opacity:1" fill="#A51E32" d="M 208.5,222.5 C 209.675,222.281 210.675,222.614 211.5,223.5C 207.452,226.995 203.119,227.329 198.5,224.5C 200.44,223.472 202.44,223.472 204.5,224.5C 206.171,224.332 207.504,223.665 208.5,222.5 Z"/></g>
<g><path style="opacity:1" fill="#000000" d="M 282.5,223.5 C 282.5,224.833 281.833,225.5 280.5,225.5C 280.833,224.5 281.5,223.833 282.5,223.5 Z"/></g>
<g><path style="opacity:1" fill="#fefffe" d="M 282.5,223.5 C 283.492,223.328 284.158,223.662 284.5,224.5C 283.326,225.514 282.66,226.847 282.5,228.5C 281.778,228.918 281.278,229.584 281,230.5C 279.212,228.977 279.045,227.31 280.5,225.5C 281.833,225.5 282.5,224.833 282.5,223.5 Z"/></g>
<g><path style="opacity:1" fill="#B3B8F2" d="M 213.5,219.5 C 216.759,220.073 218.592,222.073 219,225.5C 219.21,223.942 219.71,222.609 220.5,221.5C 222.099,221.232 223.432,221.566 224.5,222.5C 225.718,223.161 227.051,223.828 228.5,224.5C 227.624,225.251 226.624,225.751 225.5,226C 227.133,226.48 228.466,227.313 229.5,228.5C 229.5,226.833 229.5,225.167 229.5,223.5C 232.5,223.5 235.5,223.5 238.5,223.5C 238.343,224.873 238.51,226.207 239,227.5C 239.352,225.753 239.852,224.086 240.5,222.5C 241.5,222.5 242.5,222.5 243.5,222.5C 243.523,224.927 244.023,227.26 245,229.5C 245.309,228.234 245.809,227.067 246.5,226C 245.027,225.29 244.36,224.124 244.5,222.5C 246.415,222.784 248.081,222.451 249.5,221.5C 252.226,221.264 254.559,222.097 256.5,224C 255.5,224.333 254.5,224.667 253.5,225C 256.043,225.14 258.377,225.806 260.5,227C 259.833,227.333 259.167,227.667 258.5,228C 259.784,228.684 260.951,228.517 262,227.5C 262.456,228.744 261.956,229.577 260.5,230C 261.973,230.71 262.64,231.876 262.5,233.5C 259.813,233.336 257.146,233.503 254.5,234C 257.587,234.259 260.587,234.759 263.5,235.5C 264.5,235.833 265.167,236.5 265.5,237.5C 265.131,239.993 265.797,240.66 267.5,239.5C 268.167,239.5 268.5,239.833 268.5,240.5C 269.987,251.686 266.82,261.02 259,268.5C 258.099,271.071 256.766,273.404 255,275.5C 246.228,285.278 236.561,293.945 226,301.5C 227.259,307.902 228.426,314.402 229.5,321C 228.104,335.573 228.27,350.073 230,364.5C 228.615,363.449 227.615,362.116 227,360.5C 224.464,354.087 223.131,347.421 223,340.5C 222.502,343.817 222.335,347.15 222.5,350.5C 220.211,340.248 217.711,329.915 215,319.5C 211.79,312.467 207.29,306.467 201.5,301.5C 200.923,297.131 201.757,293.131 204,289.5C 213.7,275.46 224.533,262.294 236.5,250C 239.328,247.752 242.328,245.752 245.5,244C 246.337,242.989 246.67,241.822 246.5,240.5C 236.806,244.344 228.973,250.677 223,259.5C 221.017,250.972 219.85,242.305 219.5,233.5C 218.5,233.5 217.5,233.5 216.5,233.5C 215.942,228.937 214.609,224.604 212.5,220.5C 212.624,219.893 212.957,219.56 213.5,219.5 Z"/></g>
<g><path style="opacity:1" fill="#000000" d="M 224.5,222.5 C 229.833,222.5 235.167,222.5 240.5,222.5C 239.852,224.086 239.352,225.753 239,227.5C 238.51,226.207 238.343,224.873 238.5,223.5C 235.5,223.5 232.5,223.5 229.5,223.5C 229.5,225.167 229.5,226.833 229.5,228.5C 228.466,227.313 227.133,226.48 225.5,226C 226.624,225.751 227.624,225.251 228.5,224.5C 227.051,223.828 225.718,223.161 224.5,222.5 Z"/></g>
<g><path style="opacity:1" fill="#000000" d="M 240.5,222.5 C 243.287,221.523 246.287,221.19 249.5,221.5C 248.081,222.451 246.415,222.784 244.5,222.5C 244.36,224.124 245.027,225.29 246.5,226C 245.809,227.067 245.309,228.234 245,229.5C 244.023,227.26 243.523,224.927 243.5,222.5C 242.5,222.5 241.5,222.5 240.5,222.5 Z"/></g>
<g><path style="opacity:1" fill="#BC5E1E" d="M 209.5,226.5 C 216.508,232.126 215.841,236.459 207.5,239.5C 201.569,237.618 198.569,233.618 198.5,227.5C 200.884,227.443 203.218,227.777 205.5,228.5C 207.171,228.332 208.504,227.665 209.5,226.5 Z"/></g>
<g><path style="opacity:1" fill="#41B962" d="M 282.5,223.5 C 281.5,223.833 280.833,224.5 280.5,225.5C 278.2,224.466 277.534,225.133 278.5,227.5C 276.418,229.422 275.084,231.755 274.5,234.5C 273.167,236.5 273.167,238.5 274.5,240.5C 276.262,241.262 277.262,242.596 277.5,244.5C 276.415,246.587 274.749,247.92 272.5,248.5C 271.172,245.768 269.839,243.101 268.5,240.5C 268.5,239.833 268.167,239.5 267.5,239.5C 267.5,238.167 266.833,237.5 265.5,237.5C 265.167,236.5 264.5,235.833 263.5,235.5C 264.167,234.5 264.833,233.5 265.5,232.5C 269.105,230.528 272.105,227.861 274.5,224.5C 276.179,224.715 277.179,224.048 277.5,222.5C 277.328,221.508 277.662,220.842 278.5,220.5C 281.4,219.046 282.733,220.046 282.5,223.5 Z"/></g>
<g><path style="opacity:1" fill="#000000" d="M 229.5,228.5 C 230.434,229.568 230.768,230.901 230.5,232.5C 224.833,232.336 224.5,232.003 229.5,231.5C 229.5,230.5 229.5,229.5 229.5,228.5 Z"/></g>
<g><path style="opacity:1" fill="#52472B" d="M 280.5,225.5 C 279.045,227.31 279.212,228.977 281,230.5C 281.278,229.584 281.778,228.918 282.5,228.5C 283.507,230.899 282.841,232.899 280.5,234.5C 280.631,233.761 280.464,233.094 280,232.5C 278.416,233.861 276.582,234.528 274.5,234.5C 275.084,231.755 276.418,229.422 278.5,227.5C 277.534,225.133 278.2,224.466 280.5,225.5 Z"/></g>
<g><path style="opacity:1" fill="#000000" d="M 242.5,231.5 C 243.043,231.56 243.376,231.893 243.5,232.5C 240.216,233.657 236.882,233.824 233.5,233C 236.695,232.819 239.695,232.319 242.5,231.5 Z"/></g>
<g><path style="opacity:1" fill="#000000" d="M 246.5,231.5 C 247.776,232.386 247.776,233.386 246.5,234.5C 245.913,233.767 245.913,232.767 246.5,231.5 Z"/></g>
<g><path style="opacity:1" fill="#FFFFFF" d="M 284.5,224.5 C 286.774,226.145 286.774,227.645 284.5,229C 286.327,229.899 287.66,231.233 288.5,233C 286.808,235.935 286.142,239.102 286.5,242.5C 285.5,243.5 284.5,244.5 283.5,245.5C 281.379,245.675 279.379,245.341 277.5,244.5C 277.262,242.596 276.262,241.262 274.5,240.5C 274.833,239.833 275.167,239.167 275.5,238.5C 277.349,237.407 279.016,236.074 280.5,234.5C 282.841,232.899 283.507,230.899 282.5,228.5C 282.66,226.847 283.326,225.514 284.5,224.5 Z"/></g>
<g><path style="opacity:1" fill="#fec90d" d="M 280.5,234.5 C 279.016,236.074 277.349,237.407 275.5,238.5C 274.566,237.432 274.232,236.099 274.5,234.5C 276.582,234.528 278.416,233.861 280,232.5C 280.464,233.094 280.631,233.761 280.5,234.5 Z"/></g>
<g><path style="opacity:1" fill="#000000" d="M 274.5,234.5 C 274.232,236.099 274.566,237.432 275.5,238.5C 275.167,239.167 274.833,239.833 274.5,240.5C 273.167,238.5 273.167,236.5 274.5,234.5 Z"/></g>
<g><path style="opacity:1" fill="#000000" d="M 282.5,234.5 C 284.807,235.405 284.807,236.738 282.5,238.5C 281.708,237.3 281.708,235.967 282.5,234.5 Z"/></g>
<g><path style="opacity:1" fill="#000000" d="M 265.5,237.5 C 266.833,237.5 267.5,238.167 267.5,239.5C 265.797,240.66 265.131,239.993 265.5,237.5 Z"/></g>
<g><path style="opacity:1" fill="#000000" d="M 233.5,241.5 C 235.085,242.002 235.585,243.002 235,244.5C 233.961,243.756 233.461,242.756 233.5,241.5 Z"/></g>
<g><path style="opacity:1" fill="#3B3B3B" d="M 283.5,245.5 C 284.5,244.5 285.5,243.5 286.5,242.5C 287.117,242.389 287.617,242.056 288,241.5C 289.413,244.661 291.08,247.661 293,250.5C 301.371,259.203 309.371,268.203 317,277.5C 317.798,279.259 317.631,280.926 316.5,282.5C 311.22,278.722 306.386,274.389 302,269.5C 297.043,262.874 291.709,256.54 286,250.5C 284.906,248.922 284.072,247.255 283.5,245.5 Z"/></g>
<g><path style="opacity:1" fill="#40CF69" d="M 272.5,248.5 C 272.768,250.099 272.434,251.432 271.5,252.5C 270.194,251.533 269.527,250.199 269.5,248.5C 270.5,248.5 271.5,248.5 272.5,248.5 Z"/></g>
<g><path style="opacity:1" fill="#FF3A41" d="M 271.5,252.5 C 272.624,254.792 273.957,256.958 275.5,259C 274.396,260.82 272.896,262.32 271,263.5C 269.912,261.712 269.412,259.712 269.5,257.5C 269.556,255.36 270.223,253.694 271.5,252.5 Z"/></g>
<g><path style="opacity:1" fill="#BCC3FF" d="M 296.5,331.5 C 285.146,322.198 272.146,316.031 257.5,313C 255.993,312.163 255.493,310.996 256,309.5C 259.453,307.524 262.953,305.691 266.5,304C 262.403,304.081 258.403,304.914 254.5,306.5C 250.779,300.574 248.446,294.241 247.5,287.5C 250.06,283.43 253.227,279.764 257,276.5C 258.793,282.041 260.126,287.708 261,293.5C 275.86,303.689 291.36,313.023 307.5,321.5C 307.977,322.478 308.643,323.311 309.5,324C 308.167,326.667 306.833,329.333 305.5,332C 302.493,332.301 299.493,332.135 296.5,331.5 Z"/></g>
<g><path style="opacity:1" fill="#fec90d" d="M 318.5,278.5 C 320.839,280.507 323.172,282.507 325.5,284.5C 319.907,286.521 317.573,284.521 318.5,278.5 Z"/></g>
<g><path style="opacity:1" fill="#B0B6F0" d="M 247.5,287.5 C 248.446,294.241 250.779,300.574 254.5,306.5C 258.403,304.914 262.403,304.081 266.5,304C 262.953,305.691 259.453,307.524 256,309.5C 255.493,310.996 255.993,312.163 257.5,313C 272.146,316.031 285.146,322.198 296.5,331.5C 295.626,334.231 296.626,336.398 299.5,338C 297.715,339.163 295.715,339.83 293.5,340C 289.829,346.21 286.996,345.71 285,338.5C 282.408,335.238 279.241,332.738 275.5,331C 263.207,325.736 250.874,320.569 238.5,315.5C 236.579,310.331 234.579,305.164 232.5,300C 237.393,295.599 242.393,291.432 247.5,287.5 Z"/></g>
<g><path style="opacity:1" fill="#A0A8F9" d="M 201.5,301.5 C 207.29,306.467 211.79,312.467 215,319.5C 217.711,329.915 220.211,340.248 222.5,350.5C 222.98,356.102 222.98,361.769 222.5,367.5C 215.329,368.354 208.663,367.021 202.5,363.5C 205.179,342.809 204.845,322.143 201.5,301.5 Z"/></g>
<g><path style="opacity:1" fill="#3B3C3B" d="M 311.5,324.5 C 318.231,324.223 321.898,327.556 322.5,334.5C 322.406,336.689 321.739,338.689 320.5,340.5C 316.593,343.239 313.593,346.739 311.5,351C 306.302,353.344 300.969,354.177 295.5,353.5C 296.823,349.593 297.823,345.593 298.5,341.5C 302.081,339.837 302.414,337.671 299.5,335C 301.833,334.667 304.167,334.333 306.5,334C 308.64,331.08 310.306,327.913 311.5,324.5 Z"/></g>
<g><path style="opacity:1" fill="#3B3C3B" d="M 224.5,361.5 C 225.315,362.429 226.148,363.429 227,364.5C 228.218,369.455 228.551,374.455 228,379.5C 227.25,380.126 226.416,380.626 225.5,381C 215.623,381.874 205.956,380.874 196.5,378C 198.746,376.961 200.913,375.794 203,374.5C 203.497,372.19 203.663,369.857 203.5,367.5C 210.039,369.372 216.706,369.872 223.5,369C 224.435,366.619 224.768,364.119 224.5,361.5 Z"/></g>
</svg>
