<?xml version="1.0" encoding="UTF-8"?>
<!DOCTYPE svg PUBLIC "-//W3C//DTD SVG 1.1//EN" "http://www.w3.org/Graphics/SVG/1.1/DTD/svg11.dtd">
<svg xmlns="http://www.w3.org/2000/svg" version="1.1" width="421px" height="441px" style="shape-rendering:geometricPrecision; text-rendering:geometricPrecision; image-rendering:optimizeQuality; fill-rule:evenodd; clip-rule:evenodd" xmlns:xlink="http://www.w3.org/1999/xlink">
<g><path style="opacity:1" fill="#fefffe" d="M 227.5,30.5 C 239.498,27.0188 244.998,31.3521 244,43.5C 246.903,44.0686 248.903,45.7352 250,48.5C 250.553,64.0299 252.553,79.3632 256,94.5C 259.947,96.0669 263.947,97.7335 268,99.5C 268.667,103.5 268.667,107.5 268,111.5C 263.401,112.82 262.568,115.653 265.5,120C 286.184,125.123 307.184,127.79 328.5,128C 331.86,128.694 333.86,130.694 334.5,134C 344.489,135.453 354.489,136.787 364.5,138C 365.333,138.833 366.167,139.667 367,140.5C 370.124,153.187 365.29,159.521 352.5,159.5C 344.339,159.047 336.339,157.88 328.5,156C 323.833,162 318.5,167.333 312.5,172C 306.577,175.582 300.911,179.582 295.5,184C 279.242,186.62 262.909,188.453 246.5,189.5C 241.932,197.312 238.432,205.645 236,214.5C 226.923,222.643 222.257,232.643 222,244.5C 235.304,256.804 248.304,269.47 261,282.5C 260.988,301.523 260.154,320.523 258.5,339.5C 259.015,346.564 260.015,353.564 261.5,360.5C 262.646,361.145 263.646,361.978 264.5,363C 266.619,363.098 268.286,363.931 269.5,365.5C 272.785,366.324 276.118,366.824 279.5,367C 280.333,367.833 281.167,368.667 282,369.5C 285.977,381.119 282.144,388.285 270.5,391C 268.5,391.167 266.5,391.333 264.5,391.5C 252.865,390.23 241.198,389.396 229.5,389C 225.145,388.89 220.978,388.057 217,386.5C 216.121,381.162 216.621,375.996 218.5,371C 215.008,369.123 213.674,366.123 214.5,362C 214.057,357.385 215.224,353.218 218,349.5C 218.333,337.833 218.667,326.167 219,314.5C 219.218,311.574 219.718,308.74 220.5,306C 213.025,303.098 206.359,298.931 200.5,293.5C 194.378,308.198 189.045,323.198 184.5,338.5C 170.386,345.057 156.386,351.89 142.5,359C 136.672,361.495 133.005,365.829 131.5,372C 128.518,372.498 125.518,372.665 122.5,372.5C 122.281,373.675 122.614,374.675 123.5,375.5C 125.413,376.373 127.247,377.373 129,378.5C 129.667,383.833 129.667,389.167 129,394.5C 128.25,395.126 127.416,395.626 126.5,396C 117.5,396.667 108.5,396.667 99.5,396C 97.6711,395.727 96.1711,394.893 95,393.5C 93.5184,385.848 91.3517,378.515 88.5,371.5C 87.1779,371.67 86.0113,371.337 85,370.5C 81.8181,363.48 80.8181,356.147 82,348.5C 83.7658,346.404 85.0991,344.071 86,341.5C 88.8748,340.196 91.8748,339.196 95,338.5C 100.227,332.792 106.727,328.959 114.5,327C 122.323,318.586 131.656,312.419 142.5,308.5C 142.876,305.611 144.376,303.611 147,302.5C 149.583,292.752 151.75,282.919 153.5,273C 153,272.5 152.5,272 152,271.5C 136.836,286.824 119.67,299.324 100.5,309C 94.0028,311.295 87.3362,311.961 80.5,311C 79.3676,306.587 79.2009,302.087 80,297.5C 89.7647,291.034 99.2647,284.201 108.5,277C 109.264,274.931 109.764,272.764 110,270.5C 116.833,263 123.667,255.5 130.5,248C 128.376,246.878 126.543,245.378 125,243.5C 124.333,239.5 124.333,235.5 125,231.5C 128.492,223.847 132.492,216.513 137,209.5C 141.152,205.113 146.319,203.279 152.5,204C 150.413,203.208 148.579,202.041 147,200.5C 146.517,196.533 145.184,192.866 143,189.5C 141.371,179.367 142.704,169.7 147,160.5C 147.26,156.75 147.927,153.084 149,149.5C 151.98,145.686 155.146,142.019 158.5,138.5C 157.186,133.303 157.186,128.136 158.5,123C 152.341,123.361 146.674,122.028 141.5,119C 140.875,116.2 140.208,113.366 139.5,110.5C 138.692,110.192 138.025,109.692 137.5,109C 115.876,107.53 94.5426,104.197 73.5,99C 72.2958,97.6472 71.6292,95.9806 71.5,94C 70.7489,90.4893 72.0823,88.4893 75.5,88C 101.589,87.4221 127.589,88.7555 153.5,92C 156.206,94.3706 158.539,97.0372 160.5,100C 165.297,101.949 170.297,103.116 175.5,103.5C 184.179,102.286 192.846,102.453 201.5,104C 203.015,106.105 203.515,105.939 203,103.5C 200,99.1667 197,94.8333 194,90.5C 193.333,86.5 193.333,82.5 194,78.5C 202.133,71.5125 211.3,66.1791 221.5,62.5C 222.659,58.878 222.825,55.2113 222,51.5C 221,50.5 220,49.5 219,48.5C 218.333,44.5 218.333,40.5 219,36.5C 220.943,33.122 223.776,31.122 227.5,30.5 Z M 262.5,145.5 C 266.523,144.995 270.523,145.828 274.5,148C 269.555,150.592 265.555,149.758 262.5,145.5 Z"/></g>
<g><path style="opacity:1" fill="#010101" d="M 229.5,32.5 C 239.526,31.0276 243.693,35.361 242,45.5C 244.903,46.0686 246.903,47.7352 248,50.5C 248.553,66.0299 250.553,81.3632 254,96.5C 257.947,98.0669 261.947,99.7335 266,101.5C 266.667,104.167 266.667,106.833 266,109.5C 263.19,110.79 260.357,111.957 257.5,113C 261.499,114.681 263.499,117.681 263.5,122C 278.193,125.846 293.026,128.679 308,130.5C 314.084,129.358 320.251,129.191 326.5,130C 329.86,130.694 331.86,132.694 332.5,136C 342.489,137.453 352.489,138.787 362.5,140C 365.428,143.257 366.262,147.091 365,151.5C 363.315,153.017 361.815,154.684 360.5,156.5C 355.198,157.663 349.864,157.829 344.5,157C 338.866,155.174 333.2,153.84 327.5,153C 322.5,159.333 316.833,165 310.5,170C 304.577,173.582 298.911,177.582 293.5,182C 277.242,184.62 260.909,186.453 244.5,187.5C 239.932,195.312 236.432,203.645 234,212.5C 224.361,221.565 219.361,232.565 219,245.5C 232.638,258.137 245.971,271.137 259,284.5C 258.722,302.843 257.889,321.176 256.5,339.5C 256.692,347.27 257.692,354.936 259.5,362.5C 260.646,363.145 261.646,363.978 262.5,365C 264.619,365.098 266.286,365.931 267.5,367.5C 278.765,366.597 282.931,371.597 280,382.5C 275.642,386.595 270.475,388.929 264.5,389.5C 253.54,388.16 242.54,387.327 231.5,387C 227.145,386.89 222.978,386.057 219,384.5C 218.316,379.405 219.149,374.571 221.5,370C 220.271,368.471 218.771,367.304 217,366.5C 215.826,361.06 216.826,356.06 220,351.5C 220.082,335.445 220.915,319.445 222.5,303.5C 213.525,300.371 205.691,295.371 199,288.5C 193.214,304.404 187.714,320.404 182.5,336.5C 168.386,343.057 154.386,349.89 140.5,357C 134.672,359.495 131.005,363.829 129.5,370C 125.759,370.502 122.092,370.502 118.5,370C 119.271,372.577 120.271,375.077 121.5,377.5C 123.413,378.373 125.247,379.373 127,380.5C 130.341,392.862 125.674,397.529 113,394.5C 108.083,394.577 103.25,394.077 98.5,393C 97.2986,392.097 96.4652,390.931 96,389.5C 95,384.5 94,379.5 93,374.5C 91.117,373.347 90.2837,371.681 90.5,369.5C 89.1779,369.67 88.0113,369.337 87,368.5C 85.2195,364.159 84.0529,359.659 83.5,355C 83.6667,353.5 83.8333,352 84,350.5C 85.7658,348.404 87.0991,346.071 88,343.5C 90.8748,342.196 93.8748,341.196 97,340.5C 102.227,334.792 108.727,330.959 116.5,329C 124.323,320.586 133.656,314.419 144.5,310.5C 144.876,307.611 146.376,305.611 149,304.5C 151.981,294.209 154.148,283.709 155.5,273C 155.142,270.968 154.308,269.134 153,267.5C 139.745,279.425 125.912,290.592 111.5,301C 107.047,302.726 102.714,304.726 98.5,307C 93.338,309.129 88.0047,309.796 82.5,309C 80.6984,304.517 81.3651,300.517 84.5,297C 93.8859,291.612 102.719,285.446 111,278.5C 111.333,276.5 111.667,274.5 112,272.5C 119.5,264.333 127,256.167 134.5,248C 131.72,246.188 129.22,244.021 127,241.5C 126.333,238.833 126.333,236.167 127,233.5C 130.492,225.847 134.492,218.513 139,211.5C 144.867,205.975 151.533,204.975 159,208.5C 159.309,207.234 159.809,206.067 160.5,205C 156.455,203.227 152.622,201.06 149,198.5C 148.517,194.533 147.184,190.866 145,187.5C 143.474,178.679 144.808,170.346 149,162.5C 149.26,158.75 149.927,155.084 151,151.5C 154.465,147.033 158.298,142.867 162.5,139C 158.833,133.462 158.5,127.628 161.5,121.5C 155.051,121.392 149.051,119.892 143.5,117C 142.875,114.2 142.208,111.366 141.5,108.5C 140.692,108.192 140.025,107.692 139.5,107C 117.483,105.593 95.8166,102.093 74.5,96.5C 72.6376,92.9322 73.6376,90.7655 77.5,90C 102.25,89.5885 126.917,90.9218 151.5,94C 154.206,96.3706 156.539,99.0372 158.5,102C 164.688,104.005 171.021,105.505 177.5,106.5C 179.913,105.051 182.58,104.384 185.5,104.5C 190.171,104.963 194.837,105.463 199.5,106C 208.38,112.114 210.213,110.614 205,101.5C 202,97.1667 199,92.8333 196,88.5C 195.333,85.8333 195.333,83.1667 196,80.5C 204.713,73.3066 214.379,67.6399 225,63.5C 224.224,59.6972 224.39,55.8639 225.5,52C 224.392,49.8876 222.892,48.0542 221,46.5C 219.047,38.7177 221.88,34.051 229.5,32.5 Z M 262.5,145.5 C 265.555,149.758 269.555,150.592 274.5,148C 270.523,145.828 266.523,144.995 262.5,145.5 Z"/></g>
<g><path style="opacity:1" fill="#FF3A41" d="M 233.5,37.5 C 234.812,38.1451 235.812,39.1451 236.5,40.5C 234.637,50.5962 231.303,51.0962 226.5,42C 226.645,41.228 226.978,40.5613 227.5,40C 229.611,39.1553 231.611,38.322 233.5,37.5 Z"/></g>
<g><path style="opacity:1" fill="#FF3A41" d="M 232.5,49.5 C 235.568,50.0218 238.568,50.8551 241.5,52C 244.074,54.8014 244.074,57.6347 241.5,60.5C 239.5,61.5 237.5,62.5 235.5,63.5C 229.917,59.9222 228.917,55.2555 232.5,49.5 Z"/></g>
<g><path style="opacity:1" fill="#3F3F3F" d="M 242.5,63.5 C 242.5,64.1667 242.5,64.8333 242.5,65.5C 242.5,66.8333 242.5,68.1667 242.5,69.5C 241.71,68.3915 241.21,67.0581 241,65.5C 240.691,66.7659 240.191,67.9326 239.5,69C 232.833,72.3333 226.167,75.6667 219.5,79C 213.932,81.1432 208.266,82.4766 202.5,83C 212.112,76.3602 222.445,71.0269 233.5,67C 236.03,64.8077 238.864,62.9744 242,61.5C 242.464,62.0944 242.631,62.7611 242.5,63.5 Z"/></g>
<g><path style="opacity:1" fill="#fefffe" d="M 244.5,64.5 C 243.833,64.8333 243.167,65.1667 242.5,65.5C 242.5,64.8333 242.5,64.1667 242.5,63.5C 243.967,60.7417 244.633,61.075 244.5,64.5 Z"/></g>
<g><path style="opacity:1" fill="#FF3A41" d="M 244.5,64.5 C 243.167,66.5 243.167,68.5 244.5,70.5C 243.833,70.1667 243.167,69.8333 242.5,69.5C 242.5,68.1667 242.5,66.8333 242.5,65.5C 243.167,65.1667 243.833,64.8333 244.5,64.5 Z"/></g>
<g><path style="opacity:1" fill="#DEDEDE" d="M 242.5,69.5 C 243.167,69.8333 243.833,70.1667 244.5,70.5C 244.737,71.791 244.404,72.791 243.5,73.5C 242.662,73.1583 242.328,72.4916 242.5,71.5C 242.5,70.8333 242.5,70.1667 242.5,69.5 Z"/></g>
<g><path style="opacity:1" fill="#FF3A41" d="M 242.5,71.5 C 242.328,72.4916 242.662,73.1583 243.5,73.5C 243.631,74.3764 243.298,75.0431 242.5,75.5C 231.002,81.9147 219.002,87.248 206.5,91.5C 204.96,89.6132 203.293,87.7799 201.5,86C 215.693,83.4885 228.859,78.3218 241,70.5C 241.383,71.056 241.883,71.3893 242.5,71.5 Z"/></g>
<g><path style="opacity:1" fill="#E0E1E0" d="M 244.5,78.5 C 245.573,79.2506 245.74,80.2506 245,81.5C 243.272,80.6477 243.105,79.6477 244.5,78.5 Z"/></g>
<g><path style="opacity:1" fill="#F43C3F" d="M 233.5,104.5 C 232.833,105.167 232.167,105.833 231.5,106.5C 227.098,100.591 222.098,95.0914 216.5,90C 218.165,89.2115 219.831,88.8782 221.5,89C 225.682,93.3487 230.015,97.5154 234.5,101.5C 235.665,74.8582 236.498,74.8582 237,101.5C 237.035,93.9998 237.702,86.6664 239,79.5C 239.065,87.4918 238.899,95.4918 238.5,103.5C 236.585,103.216 234.919,103.549 233.5,104.5 Z"/></g>
<g><path style="opacity:1" fill="#E0E1E0" d="M 244.5,89.5 C 246.496,88.3122 247.329,88.9789 247,91.5C 246.292,90.6195 245.458,89.9528 244.5,89.5 Z"/></g>
<g><path style="opacity:1" fill="#3B3C3B" d="M 211.5,91.5 C 212.873,91.3433 214.207,91.51 215.5,92C 220.015,96.3482 224.349,100.848 228.5,105.5C 224.941,108.281 220.941,109.948 216.5,110.5C 213.925,104.857 210.925,99.357 207.5,94C 208.858,93.0656 210.192,92.2323 211.5,91.5 Z"/></g>
<g><path style="opacity:1" fill="#DEDEDE" d="M 155.5,109.5 C 154.549,110.919 154.216,112.585 154.5,114.5C 153.07,114.579 151.736,114.246 150.5,113.5C 149.692,111.577 149.192,109.577 149,107.5C 148.667,109.167 148.333,110.833 148,112.5C 147.667,109.833 147.333,107.167 147,104.5C 145.745,103.789 144.579,102.956 143.5,102C 121.781,99.8022 100.115,97.1355 78.5,94C 101.547,94.7009 124.547,96.3675 147.5,99C 150.548,102.29 153.215,105.79 155.5,109.5 Z"/></g>
<g><path style="opacity:1" fill="#FF3A41" d="M 241.5,106.5 C 241.5,105.833 241.167,105.5 240.5,105.5C 243.022,103.639 245.522,101.639 248,99.5C 249.365,100.593 249.699,101.926 249,103.5C 246.815,104.928 244.815,106.595 243,108.5C 242.722,107.584 242.222,106.918 241.5,106.5 Z"/></g>
<g><path style="opacity:1" fill="#9A9A9A" d="M 233.5,104.5 C 235.903,104.448 238.236,104.781 240.5,105.5C 241.167,105.5 241.5,105.833 241.5,106.5C 241.5,107.833 241.5,109.167 241.5,110.5C 241.167,111.5 240.5,112.167 239.5,112.5C 237.297,112.396 235.297,111.73 233.5,110.5C 231.896,109.713 231.229,108.38 231.5,106.5C 232.167,105.833 232.833,105.167 233.5,104.5 Z"/></g>
<g><path style="opacity:1" fill="#FF3A41" d="M 231.5,106.5 C 231.229,108.38 231.896,109.713 233.5,110.5C 232.942,111.79 231.942,112.623 230.5,113C 226.886,114.047 223.22,114.88 219.5,115.5C 218.09,115.132 217.09,114.299 216.5,113C 221.998,111.916 226.998,109.749 231.5,106.5 Z"/></g>
<g><path style="opacity:1" fill="#E0E1E0" d="M 162.5,111.5 C 161.596,112.209 161.263,113.209 161.5,114.5C 157,116.224 155,114.558 155.5,109.5C 158.468,108.158 160.802,108.825 162.5,111.5 Z"/></g>
<g><path style="opacity:1" fill="#E0E1E0" d="M 167.5,111.5 C 166.566,112.568 166.232,113.901 166.5,115.5C 163.5,115.833 162.167,114.5 162.5,111.5C 164.332,109.043 165.999,109.043 167.5,111.5 Z"/></g>
<g><path style="opacity:1" fill="#fefffe" d="M 184.5,109.5 C 187.506,110.349 188.506,112.183 187.5,115C 182.676,115.183 181.676,113.35 184.5,109.5 Z"/></g>
<g><path style="opacity:1" fill="#D69874" d="M 175.5,113.5 C 172.833,112.833 170.167,112.167 167.5,111.5C 171.862,110.811 176.195,111.311 180.5,113C 178.866,113.494 177.199,113.66 175.5,113.5 Z"/></g>
<g><path style="opacity:1" fill="#fefffe" d="M 193.5,110.5 C 196.731,111.098 197.064,112.264 194.5,114C 195.333,114.833 196.167,115.667 197,116.5C 197.423,115.044 198.256,114.544 199.5,115C 198.929,116.205 198.262,117.372 197.5,118.5C 193.715,116.795 192.382,114.128 193.5,110.5 Z"/></g>
<g><path style="opacity:1" fill="#E5823B" d="M 254.5,115.5 C 250.933,116.068 248.599,118.068 247.5,121.5C 246.313,118.054 245.646,114.387 245.5,110.5C 248.187,110.336 250.854,110.503 253.5,111C 252.419,112.711 252.752,114.211 254.5,115.5 Z"/></g>
<g><path style="opacity:1" fill="#000000" d="M 185.5,111.5 C 186.773,112.077 186.773,112.743 185.5,113.5C 184.537,113.03 184.537,112.363 185.5,111.5 Z"/></g>
<g><path style="opacity:1" fill="#E0E1E0" d="M 175.5,113.5 C 177.292,114.309 179.292,114.809 181.5,115C 177.236,114.984 173.236,115.817 169.5,117.5C 167.889,116.68 167.222,115.346 167.5,113.5C 170.167,113.5 172.833,113.5 175.5,113.5 Z"/></g>
<g><path style="opacity:1" fill="#fefffe" d="M 201.5,113.5 C 205.563,115.3 207.229,118.3 206.5,122.5C 204.587,121.627 202.753,120.627 201,119.5C 200.82,117.512 200.986,115.512 201.5,113.5 Z"/></g>
<g><path style="opacity:1" fill="#f9a884" d="M 235.5,118.5 C 237.439,121.294 238.106,124.294 237.5,127.5C 235.708,127.634 234.042,127.301 232.5,126.5C 229.61,123.608 228.943,120.274 230.5,116.5C 233.441,113.593 235.107,114.26 235.5,118.5 Z"/></g>
<g><path style="opacity:1" fill="#C7C7C7" d="M 241.5,110.5 C 243.652,111.077 243.985,112.244 242.5,114C 244.957,115.512 244.957,116.846 242.5,118C 245.167,119 245.167,120 242.5,121C 245.464,121.84 245.797,122.84 243.5,124C 245.301,124.317 245.634,124.984 244.5,126C 245.167,127 245.833,128 246.5,129C 245.802,129.971 245.802,131.137 246.5,132.5C 246.058,133.739 245.391,134.739 244.5,135.5C 243.394,133.577 242.394,131.577 241.5,129.5C 244.076,128.117 243.742,127.283 240.5,127C 240.833,126.667 241.167,126.333 241.5,126C 240.029,121.919 238.362,117.919 236.5,114C 237.737,113.768 238.737,113.268 239.5,112.5C 240.5,112.167 241.167,111.5 241.5,110.5 Z"/></g>
<g><path style="opacity:1" fill="#6B332D" d="M 230.5,116.5 C 228.943,120.274 229.61,123.608 232.5,126.5C 231.833,126.833 231.167,127.167 230.5,127.5C 229.883,127.611 229.383,127.944 229,128.5C 211.872,120.759 212.372,116.759 230.5,116.5 Z"/></g>
<g><path style="opacity:1" fill="#f9a884" d="M 254.5,115.5 C 256.138,116.657 257.804,117.824 259.5,119C 257.825,119.985 256.158,120.819 254.5,121.5C 252.983,121.511 251.816,122.177 251,123.5C 250.333,126.167 250.333,128.833 251,131.5C 251.278,132.416 251.778,133.082 252.5,133.5C 253.41,135.501 252.577,136.835 250,137.5C 248.561,132.264 247.728,126.931 247.5,121.5C 248.599,118.068 250.933,116.068 254.5,115.5 Z"/></g>
<g><path style="opacity:1" fill="#FFFFCD" d="M 189.5,116.5 C 191.681,116.284 193.347,117.117 194.5,119C 186.459,122.895 182.292,129.395 182,138.5C 180.989,139.337 179.822,139.67 178.5,139.5C 178.234,135.395 178.734,131.395 180,127.5C 183.744,124.262 186.91,120.595 189.5,116.5 Z"/></g>
<g><path style="opacity:1" fill="#000000" d="M 202.5,116.5 C 203.627,117.122 204.627,117.955 205.5,119C 203.511,119.519 202.511,118.686 202.5,116.5 Z"/></g>
<g><path style="opacity:1" fill="#fefffe" d="M 172.5,117.5 C 173.239,117.369 173.906,117.536 174.5,118C 169.56,123.635 168.06,130.135 170,137.5C 167.352,130.29 168.185,123.623 172.5,117.5 Z"/></g>
<g><path style="opacity:1" fill="#FFFFCD" d="M 177.5,117.5 C 179.199,117.34 180.866,117.506 182.5,118C 177.069,123.029 173.902,129.196 173,136.5C 171.733,134.026 170.899,131.359 170.5,128.5C 172.429,124.572 174.762,120.905 177.5,117.5 Z"/></g>
<g><path style="opacity:1" fill="#fefffe" d="M 161.5,166.5 C 160.539,168.265 160.205,170.265 160.5,172.5C 159.527,174.948 159.194,177.615 159.5,180.5C 158.192,186.919 159.859,192.585 164.5,197.5C 164.631,198.239 164.464,198.906 164,199.5C 162.989,198.663 161.822,198.33 160.5,198.5C 160.737,197.209 160.404,196.209 159.5,195.5C 157.751,191.157 156.418,186.657 155.5,182C 156.915,175.506 158.249,169.006 159.5,162.5C 161.262,161.738 162.262,160.404 162.5,158.5C 166.426,153.398 170.592,148.398 175,143.5C 174.035,133.326 177.202,124.826 184.5,118C 185.167,117.333 185.833,117.333 186.5,118C 177.614,125.806 174.78,135.306 178,146.5C 169.288,150.083 163.788,156.75 161.5,166.5 Z"/></g>
<g><path style="opacity:1" fill="#D69874" d="M 211.5,120.5 C 207.599,117.575 208.266,116.909 213.5,118.5C 213.833,118.833 214.167,119.167 214.5,119.5C 213.675,120.386 212.675,120.719 211.5,120.5 Z"/></g>
<g><path style="opacity:1" fill="#000000" d="M 235.5,118.5 C 235.508,124.208 235.008,124.541 234,119.5C 232.984,118.366 232.317,118.699 232,120.5C 231.517,119.552 231.351,118.552 231.5,117.5C 232.959,117.433 234.292,117.766 235.5,118.5 Z"/></g>
<g><path style="opacity:1" fill="#FFFFCD" d="M 168.5,119.5 C 169.713,120.497 169.546,121.497 168,122.5C 167.646,127.338 167.48,132.005 167.5,136.5C 165.11,135.109 163.443,133.109 162.5,130.5C 163.736,126.357 165.736,122.691 168.5,119.5 Z"/></g>
<g><path style="opacity:1" fill="#fefffe" d="M 195.5,120.5 C 196.239,120.369 196.906,120.536 197.5,121C 193.542,123.234 190.042,126.067 187,129.5C 185.874,133.749 185.208,138.082 185,142.5C 182.985,136.165 184.152,130.331 188.5,125C 191.239,123.974 193.572,122.474 195.5,120.5 Z"/></g>
<g><path style="opacity:1" fill="#E0E1E0" d="M 211.5,120.5 C 212.609,121.29 213.942,121.79 215.5,122C 213.647,127.747 211.647,127.914 209.5,122.5C 209.747,121.287 210.414,120.62 211.5,120.5 Z"/></g>
<g><path style="opacity:1" fill="#FFFFCD" d="M 199.5,121.5 C 202.967,123.067 206.3,124.901 209.5,127C 194.556,124.448 187.889,130.615 189.5,145.5C 187.444,143.513 186.444,141.013 186.5,138C 186.762,135.453 187.262,132.953 188,130.5C 191.485,126.866 195.318,123.866 199.5,121.5 Z"/></g>
<g><path style="opacity:1" fill="#5F322C" d="M 254.5,121.5 C 256.213,122.635 256.88,124.302 256.5,126.5C 255.463,127.93 254.796,129.597 254.5,131.5C 253.833,132.167 253.167,132.833 252.5,133.5C 251.778,133.082 251.278,132.416 251,131.5C 250.333,128.833 250.333,126.167 251,123.5C 251.816,122.177 252.983,121.511 254.5,121.5 Z"/></g>
<g><path style="opacity:1" fill="#3F616E" d="M 216.5,124.5 C 224.972,127.9 232.639,132.567 239.5,138.5C 240.583,139.365 240.749,140.365 240,141.5C 233.446,135.136 225.946,130.136 217.5,126.5C 216.702,126.043 216.369,125.376 216.5,124.5 Z"/></g>
<g><path style="opacity:1" fill="#D2783A" d="M 232.5,126.5 C 234.042,127.301 235.708,127.634 237.5,127.5C 239.383,129.763 240.716,132.43 241.5,135.5C 241.167,135.833 240.833,136.167 240.5,136.5C 236.452,134.11 233.118,131.11 230.5,127.5C 231.167,127.167 231.833,126.833 232.5,126.5 Z"/></g>
<g><path style="opacity:1" fill="#D69874" d="M 256.5,126.5 C 267.722,128.723 278.722,131.39 289.5,134.5C 288.849,135.091 288.182,135.757 287.5,136.5C 277.268,133.692 266.935,131.359 256.5,129.5C 256.5,128.5 256.5,127.5 256.5,126.5 Z"/></g>
<g><path style="opacity:1" fill="#DCD4AB" d="M 200.5,127.5 C 203.271,127.421 205.937,127.921 208.5,129C 215.543,136.772 214.877,143.772 206.5,150C 203.355,150.111 200.355,150.278 197.5,150.5C 194.832,150.255 192.998,148.921 192,146.5C 188.922,137.334 191.755,131 200.5,127.5 Z"/></g>
<g><path style="opacity:1" fill="#FF3A41" d="M 214.5,127.5 C 219.965,130.066 225.298,132.899 230.5,136C 233.645,137.978 236.312,140.478 238.5,143.5C 238,143.833 237.5,144.167 237,144.5C 234.929,143.213 232.762,142.047 230.5,141C 225.511,140.501 220.511,140.334 215.5,140.5C 215.613,136.673 214.613,133.173 212.5,130C 213.381,129.292 214.047,128.458 214.5,127.5 Z"/></g>
<g><path style="opacity:1" fill="#E0E1E0" d="M 254.5,131.5 C 269.924,133.963 285.257,137.796 300.5,143C 299.601,144.236 298.434,145.07 297,145.5C 283.109,140.702 268.943,137.035 254.5,134.5C 254.5,133.5 254.5,132.5 254.5,131.5 Z"/></g>
<g><path style="opacity:1" fill="#fec90d" d="M 292.5,135.5 C 291.031,138.1 290.031,137.767 289.5,134.5C 291.306,131.662 292.306,131.995 292.5,135.5 Z"/></g>
<g><path style="opacity:1" fill="#B18064" d="M 305.5,136.5 C 306.338,136.842 306.672,137.508 306.5,138.5C 303.788,139.987 301.621,139.321 300,136.5C 299.722,137.416 299.222,138.082 298.5,138.5C 296.801,138.66 295.134,138.494 293.5,138C 292.748,137.329 292.414,136.496 292.5,135.5C 293.261,134.609 294.261,133.942 295.5,133.5C 299.059,134.005 302.392,135.005 305.5,136.5 Z"/></g>
<g><path style="opacity:1" fill="#f9a884" d="M 312.5,134.5 C 317.041,134.052 321.374,134.719 325.5,136.5C 326.614,137.723 326.781,139.056 326,140.5C 324.045,141.453 322.378,142.787 321,144.5C 318.035,140.96 314.201,139.293 309.5,139.5C 309.721,137.336 310.721,135.67 312.5,134.5 Z"/></g>
<g><path style="opacity:1" fill="#E0E1E0" d="M 244.5,135.5 C 245.675,135.281 246.675,135.614 247.5,136.5C 245.948,137.798 244.948,137.465 244.5,135.5 Z"/></g>
<g><path style="opacity:1" fill="#fec90d" d="M 305.5,136.5 C 306.302,135.115 306.969,135.282 307.5,137C 307.43,137.765 307.097,138.265 306.5,138.5C 306.672,137.508 306.338,136.842 305.5,136.5 Z"/></g>
<g><path style="opacity:1" fill="#fec90d" d="M 306.5,138.5 C 306.238,140.564 305.071,141.897 303,142.5C 301.141,141.421 299.641,140.088 298.5,138.5C 299.222,138.082 299.722,137.416 300,136.5C 301.621,139.321 303.788,139.987 306.5,138.5 Z"/></g>
<g><path style="opacity:1" fill="#A51E32" d="M 162.5,158.5 C 160.858,160.081 158.858,160.747 156.5,160.5C 155.25,158.032 155.417,155.699 157,153.5C 161.458,148.199 166.625,143.866 172.5,140.5C 173.568,142.187 173.401,143.854 172,145.5C 167.43,148.889 164.264,153.223 162.5,158.5 Z"/></g>
<g><path style="opacity:1" fill="#8F2831" d="M 186.5,148.5 C 184.877,149.779 183.21,151.113 181.5,152.5C 179.685,156.623 177.685,160.623 175.5,164.5C 173.47,163.828 171.47,163.162 169.5,162.5C 170.028,161.153 170.195,159.819 170,158.5C 168.961,159.71 167.794,160.71 166.5,161.5C 165.475,161.103 165.308,160.437 166,159.5C 169.489,154.335 173.822,150.335 179,147.5C 181.078,145.319 180.911,143.319 178.5,141.5C 178.833,141.167 179.167,140.833 179.5,140.5C 182.35,142.427 185.017,144.594 187.5,147C 186.944,147.383 186.611,147.883 186.5,148.5 Z"/></g>
<g><path style="opacity:1" fill="#fefffe" d="M 256.5,140.5 C 265.993,142.373 275.327,144.873 284.5,148C 280.981,148.395 277.648,149.395 274.5,151C 270.459,151.827 266.459,151.66 262.5,150.5C 261.428,146.598 259.095,143.764 255.5,142C 256.056,141.617 256.389,141.117 256.5,140.5 Z M 262.5,145.5 C 265.555,149.758 269.555,150.592 274.5,148C 270.523,145.828 266.523,144.995 262.5,145.5 Z"/></g>
<g><path style="opacity:1" fill="#5A61DB" d="M 313.5,157.5 C 314.833,155.167 314.833,152.833 313.5,150.5C 311.1,148.306 308.434,146.639 305.5,145.5C 305.389,144.883 305.056,144.383 304.5,144C 309.071,140.841 313.571,141.007 318,144.5C 321.372,149.646 320.539,154.146 315.5,158C 314.563,158.692 313.897,158.525 313.5,157.5 Z"/></g>
<g><path style="opacity:1" fill="#D69874" d="M 327.5,141.5 C 336.665,142.103 345.665,143.27 354.5,145C 351.362,146.244 348.028,146.911 344.5,147C 343.299,147.903 342.465,149.069 342,150.5C 335.868,147.61 329.534,146.943 323,148.5C 322.5,148 322,147.5 321.5,147C 323.396,144.932 325.396,143.099 327.5,141.5 Z"/></g>
<g><path style="opacity:1" fill="#fefffe" d="M 233.5,145.5 C 229.941,145.716 226.441,145.382 223,144.5C 219.85,144.947 217.017,145.947 214.5,147.5C 213.761,147.631 213.094,147.464 212.5,147C 213.293,145.915 213.96,144.748 214.5,143.5C 219.467,142.338 224.467,142.171 229.5,143C 231.066,143.608 232.4,144.442 233.5,145.5 Z"/></g>
<g><path style="opacity:1" fill="#EB3D3E" d="M 240.5,144.5 C 247.462,144.418 252.962,147.084 257,152.5C 257.667,153.833 257.667,155.167 257,156.5C 255.231,151.584 252.564,151.251 249,155.5C 248.026,153.122 247.359,153.456 247,156.5C 243.692,154.884 240.192,153.717 236.5,153C 236.799,151.68 236.966,150.18 237,148.5C 238.376,147.295 239.542,145.962 240.5,144.5 Z"/></g>
<g><path style="opacity:1" fill="#fec90d" d="M 357.5,144.5 C 358.627,145.122 359.627,145.955 360.5,147C 356.137,153.1 350.804,154.1 344.5,150C 347.638,148.756 350.972,148.089 354.5,148C 355.71,146.961 356.71,145.794 357.5,144.5 Z"/></g>
<g><path style="opacity:1" fill="#EDEDED" d="M 233.5,145.5 C 234.289,145.783 234.956,146.283 235.5,147C 224.597,147.475 214.597,150.642 205.5,156.5C 204.571,155.311 204.238,153.978 204.5,152.5C 208.302,151.68 211.636,150.014 214.5,147.5C 217.017,145.947 219.85,144.947 223,144.5C 226.441,145.382 229.941,145.716 233.5,145.5 Z"/></g>
<g><path style="opacity:1" fill="#fefffe" d="M 305.5,145.5 C 308.434,146.639 311.1,148.306 313.5,150.5C 313.737,151.791 313.404,152.791 312.5,153.5C 308.982,149.982 304.649,147.982 299.5,147.5C 300.99,145.72 302.99,145.054 305.5,145.5 Z"/></g>
<g><path style="opacity:1" fill="#5961DD" d="M 299.5,147.5 C 304.649,147.982 308.982,149.982 312.5,153.5C 313.234,154.708 313.567,156.041 313.5,157.5C 311.4,160.104 309.067,162.604 306.5,165C 300.692,168.743 295.025,172.743 289.5,177C 273.626,179.743 257.626,181.409 241.5,182C 229.26,188.153 216.093,192.653 202,195.5C 201.167,195.167 200.333,194.833 199.5,194.5C 200.979,184.486 202.645,174.486 204.5,164.5C 204.32,163.446 203.987,162.446 203.5,161.5C 212.217,153.426 222.551,149.593 234.5,150C 232.193,151.828 232.526,153.494 235.5,155C 239.411,156.47 243.411,157.637 247.5,158.5C 249.775,157.402 251.942,156.068 254,154.5C 254.098,156.619 254.931,158.286 256.5,159.5C 260.208,156.201 264.375,155.534 269,157.5C 272.949,157.43 276.616,156.43 280,154.5C 280.333,154.833 280.667,155.167 281,155.5C 287.684,153.888 293.851,151.221 299.5,147.5 Z"/></g>
<g><path style="opacity:1" fill="#fefffe" d="M 186.5,148.5 C 187.492,148.328 188.158,148.662 188.5,149.5C 186.12,151.237 184.453,153.57 183.5,156.5C 188.8,158.907 194.134,159.574 199.5,158.5C 200.165,156.631 200.831,154.631 201.5,152.5C 202.711,155.876 202.544,159.209 201,162.5C 196.32,174.706 191.153,186.706 185.5,198.5C 182.914,199.48 180.247,199.813 177.5,199.5C 176.952,202.084 175.285,203.084 172.5,202.5C 172.737,201.209 172.404,200.209 171.5,199.5C 168.896,193.817 168.062,187.817 169,181.5C 171.462,176.248 173.629,170.915 175.5,165.5C 172.607,165.969 170.607,164.969 169.5,162.5C 171.47,163.162 173.47,163.828 175.5,164.5C 177.685,160.623 179.685,156.623 181.5,152.5C 183.21,151.113 184.877,149.779 186.5,148.5 Z"/></g>
<g><path style="opacity:1" fill="#8C2930" d="M 199.5,158.5 C 194.134,159.574 188.8,158.907 183.5,156.5C 184.453,153.57 186.12,151.237 188.5,149.5C 189.15,149.196 189.817,148.863 190.5,148.5C 192.693,150.721 195.36,152.054 198.5,152.5C 199.466,154.396 199.799,156.396 199.5,158.5 Z"/></g>
<g><path style="opacity:1" fill="#000000" d="M 313.5,150.5 C 314.833,152.833 314.833,155.167 313.5,157.5C 313.567,156.041 313.234,154.708 312.5,153.5C 313.404,152.791 313.737,151.791 313.5,150.5 Z"/></g>
<g><path style="opacity:1" fill="#fefffe" d="M 154.5,170.5 C 152.255,172.417 151.922,174.75 153.5,177.5C 153.167,177.833 152.833,178.167 152.5,178.5C 151.818,177.757 151.151,177.091 150.5,176.5C 152.716,171.085 153.883,165.418 154,159.5C 154.654,158.304 155.154,158.304 155.5,159.5C 154.574,163.094 154.241,166.76 154.5,170.5 Z"/></g>
<g><path style="opacity:1" fill="#fefffe" d="M 169.5,162.5 C 168.442,163.6 167.608,164.934 167,166.5C 165.872,171.139 164.872,175.805 164,180.5C 163.583,181.756 162.75,182.423 161.5,182.5C 161.5,181.5 161.5,180.5 161.5,179.5C 162.943,175.385 163.943,171.052 164.5,166.5C 165.537,165.07 166.204,163.403 166.5,161.5C 167.794,160.71 168.961,159.71 170,158.5C 170.195,159.819 170.028,161.153 169.5,162.5 Z"/></g>
<g><path style="opacity:1" fill="#922731" d="M 177.5,199.5 C 172.645,197.143 170.312,193.143 170.5,187.5C 171.985,176.544 176.152,166.877 183,158.5C 188.583,159.568 194.083,160.901 199.5,162.5C 194.333,174.167 189.167,185.833 184,197.5C 181.723,198.117 179.556,198.784 177.5,199.5 Z"/></g>
<g><path style="opacity:1" fill="#822B2F" d="M 159.5,162.5 C 158.249,169.006 156.915,175.506 155.5,182C 156.418,186.657 157.751,191.157 159.5,195.5C 159.631,196.239 159.464,196.906 159,197.5C 157.333,196.5 155.667,195.5 154,194.5C 153.517,190.533 152.184,186.866 150,183.5C 149.204,180.961 149.371,178.628 150.5,176.5C 151.151,177.091 151.818,177.757 152.5,178.5C 152.833,178.167 153.167,177.833 153.5,177.5C 151.922,174.75 152.255,172.417 154.5,170.5C 155.477,167.713 155.81,164.713 155.5,161.5C 157.099,161.232 158.432,161.566 159.5,162.5 Z"/></g>
<g><path style="opacity:1" fill="#712D2D" d="M 164.5,166.5 C 163.943,171.052 162.943,175.385 161.5,179.5C 160.532,177.393 160.198,175.059 160.5,172.5C 160.205,170.265 160.539,168.265 161.5,166.5C 162.158,165.602 162.824,164.602 163.5,163.5C 164.386,164.325 164.719,165.325 164.5,166.5 Z"/></g>
<g><path style="opacity:1" fill="#7F2C2F" d="M 169.5,162.5 C 170.607,164.969 172.607,165.969 175.5,165.5C 173.629,170.915 171.462,176.248 169,181.5C 168.062,187.817 168.896,193.817 171.5,199.5C 169.735,200.461 167.735,200.795 165.5,200.5C 165.737,199.209 165.404,198.209 164.5,197.5C 159.859,192.585 158.192,186.919 159.5,180.5C 160.167,181.167 160.833,181.833 161.5,182.5C 162.75,182.423 163.583,181.756 164,180.5C 164.872,175.805 165.872,171.139 167,166.5C 167.608,164.934 168.442,163.6 169.5,162.5 Z"/></g>
<g><path style="opacity:1" fill="#A51E32" d="M 194.5,190.5 C 195.398,182.93 197.565,175.596 201,168.5C 199.889,177.786 198.722,187.12 197.5,196.5C 196.5,196.5 195.5,196.5 194.5,196.5C 194.5,194.5 194.5,192.5 194.5,190.5 Z"/></g>
<g><path style="opacity:1" fill="#000000" d="M 220.5,169.5 C 221.404,170.209 221.737,171.209 221.5,172.5C 227.509,172.334 233.509,172.501 239.5,173C 233.175,173.5 226.842,173.666 220.5,173.5C 220.5,172.167 220.5,170.833 220.5,169.5 Z"/></g>
<g><path style="opacity:1" fill="#000000" d="M 160.5,172.5 C 160.198,175.059 160.532,177.393 161.5,179.5C 161.5,180.5 161.5,181.5 161.5,182.5C 160.833,181.833 160.167,181.167 159.5,180.5C 159.194,177.615 159.527,174.948 160.5,172.5 Z"/></g>
<g><path style="opacity:1" fill="#4A51C1" d="M 194.5,190.5 C 193.835,192.369 193.169,194.369 192.5,196.5C 191.232,197.428 189.899,197.595 188.5,197C 190.734,193.364 192.568,189.531 194,185.5C 194.494,187.134 194.66,188.801 194.5,190.5 Z"/></g>
<g><path style="opacity:1" fill="#fefffe" d="M 233.5,187.5 C 234.873,187.343 236.207,187.51 237.5,188C 228.188,193.157 218.522,197.49 208.5,201C 198.545,202.498 188.545,202.831 178.5,202C 190.398,199.582 202.398,197.248 214.5,195C 221.146,193 227.48,190.5 233.5,187.5 Z"/></g>
<g><path style="opacity:1" fill="#5962E1" d="M 234.5,191.5 C 235.043,191.56 235.376,191.893 235.5,192.5C 226.954,204.263 215.288,210.596 200.5,211.5C 200.326,209.139 199.993,206.806 199.5,204.5C 211.953,202.099 223.619,197.766 234.5,191.5 Z"/></g>
<g><path style="opacity:1" fill="#fefffe" d="M 229.5,201.5 C 230.525,201.897 230.692,202.563 230,203.5C 226.333,207.833 222.667,212.167 219,216.5C 217.534,214.675 215.701,214.175 213.5,215C 210.37,217.128 207.537,219.628 205,222.5C 203.55,219.992 202.383,217.325 201.5,214.5C 208.14,212.338 214.806,210.171 221.5,208C 224.787,206.533 227.454,204.366 229.5,201.5 Z"/></g>
<g><path style="opacity:1" fill="#4A51C1" d="M 167.5,202.5 C 168.153,206.249 167.319,209.916 165,213.5C 165.203,209.737 166.036,206.07 167.5,202.5 Z"/></g>
<g><path style="opacity:1" fill="#fefffe" d="M 170.5,203.5 C 171.376,203.369 172.043,203.702 172.5,204.5C 171.45,209.672 169.45,214.339 166.5,218.5C 166.167,218.167 165.833,217.833 165.5,217.5C 168.308,213.221 169.975,208.555 170.5,203.5 Z"/></g>
<g><path style="opacity:1" fill="#5D65EA" d="M 174.5,204.5 C 180.833,204.5 187.167,204.5 193.5,204.5C 193.833,207.167 194.167,209.833 194.5,212.5C 186.041,214.531 177.707,216.697 169.5,219C 171.863,214.411 173.53,209.577 174.5,204.5 Z"/></g>
<g><path style="opacity:1" fill="#A51E32" d="M 195.5,204.5 C 196.586,204.62 197.253,205.287 197.5,206.5C 198.604,212.979 200.604,219.146 203.5,225C 202.978,225.561 202.645,226.228 202.5,227C 205.69,229.764 209.356,231.764 213.5,233C 214.451,233.718 214.617,234.551 214,235.5C 209.753,233.293 205.586,230.96 201.5,228.5C 198.882,220.648 196.882,212.648 195.5,204.5 Z"/></g>
<g><path style="opacity:1" fill="#5D65EA" d="M 230.5,204.5 C 231.621,206.089 231.454,207.756 230,209.5C 216.823,222.745 216.49,222.411 229,208.5C 229.791,207.255 230.291,205.922 230.5,204.5 Z"/></g>
<g><path style="opacity:1" fill="#3A3A3A" d="M 148.5,211.5 C 151.253,212.022 153.92,212.856 156.5,214C 161.167,217.333 165.833,220.667 170.5,224C 168.167,224.333 165.833,224.667 163.5,225C 159.588,229.077 156.255,233.577 153.5,238.5C 150.721,240.043 148.887,242.377 148,245.5C 147.196,246.804 146.029,247.471 144.5,247.5C 140.02,244.518 136.02,241.018 132.5,237C 135.99,227.151 141.324,218.651 148.5,211.5 Z"/></g>
<g><path style="opacity:1" fill="#fefffe" d="M 192.5,214.5 C 193.5,214.5 194.5,214.5 195.5,214.5C 196.167,217.5 196.833,220.5 197.5,223.5C 189.556,225.353 181.556,225.687 173.5,224.5C 173.023,223.522 172.357,222.689 171.5,222C 178.413,219.029 185.413,216.529 192.5,214.5 Z"/></g>
<g><path style="opacity:1" fill="#BC5E1E" d="M 214.5,216.5 C 215.497,216.47 216.164,216.97 216.5,218C 219.961,231.557 215.961,234.557 204.5,227C 207.363,222.972 210.696,219.472 214.5,216.5 Z"/></g>
<g><path style="opacity:1" fill="#9C9D9C" d="M 147.5,224.5 C 149.225,224.843 149.725,225.843 149,227.5C 146.507,230.514 143.841,233.514 141,236.5C 140.333,235.167 140.333,233.833 141,232.5C 143.797,230.217 145.964,227.551 147.5,224.5 Z"/></g>
<g><path style="opacity:1" fill="#5051A9" d="M 194.5,227.5 C 187.88,228.896 181.214,230.563 174.5,232.5C 173.957,232.44 173.624,232.107 173.5,231.5C 174.167,230.5 174.833,229.5 175.5,228.5C 183.179,227.389 190.846,226.556 198.5,226C 196.942,226.21 195.609,226.71 194.5,227.5 Z"/></g>
<g><path style="opacity:1" fill="#595A59" d="M 164.5,226.5 C 167.633,226.761 168.8,228.428 168,231.5C 164.703,236.628 160.87,241.294 156.5,245.5C 156.266,243.339 155.933,241.172 155.5,239C 158.387,234.716 161.387,230.549 164.5,226.5 Z"/></g>
<g><path style="opacity:1" fill="#fefffe" d="M 194.5,227.5 C 196.099,227.232 197.432,227.566 198.5,228.5C 189.667,229.458 181.334,231.791 173.5,235.5C 172.957,235.44 172.624,235.107 172.5,234.5C 173.243,233.818 173.909,233.151 174.5,232.5C 181.214,230.563 187.88,228.896 194.5,227.5 Z"/></g>
<g><path style="opacity:1" fill="#605ECF" d="M 198.5,228.5 C 199.773,229.077 199.773,229.743 198.5,230.5C 189.225,232.971 180.558,236.805 172.5,242C 165.697,249.813 158.03,256.48 149.5,262C 146.738,263.077 145.072,262.244 144.5,259.5C 145.345,257.238 146.678,256.571 148.5,257.5C 148.5,257.833 148.5,258.167 148.5,258.5C 149.789,259.501 151.122,259.334 152.5,258C 150.109,257.309 150.109,256.309 152.5,255C 151.915,253.698 151.249,252.531 150.5,251.5C 148.871,252.625 147.371,253.959 146,255.5C 145.51,254.207 145.343,252.873 145.5,251.5C 147.473,250.513 149.473,249.513 151.5,248.5C 155.019,250.941 158.686,251.108 162.5,249C 165.837,244.115 169.504,239.615 173.5,235.5C 181.334,231.791 189.667,229.458 198.5,228.5 Z"/></g>
<g><path style="opacity:1" fill="#BC5E1E" d="M 199.5,231.5 C 204.701,233.098 209.701,235.265 214.5,238C 214.438,244.213 211.771,248.88 206.5,252C 201.518,252.76 197.685,250.927 195,246.5C 194.305,240.783 195.805,235.783 199.5,231.5 Z"/></g>
<g><path style="opacity:1" fill="#B8BDFA" d="M 193.5,233.5 C 194.239,233.369 194.906,233.536 195.5,234C 190.09,242.483 191.756,249.149 200.5,254C 203.432,254.311 206.098,254.478 208.5,254.5C 206.285,259.219 203.119,263.219 199,266.5C 192.799,288.436 185.799,310.103 178,331.5C 164.121,338.19 150.287,345.023 136.5,352C 130.508,354.659 126.675,359.159 125,365.5C 122.04,364.714 119.206,363.548 116.5,362C 115.424,360.274 115.257,358.441 116,356.5C 117.626,354.083 119.126,351.583 120.5,349C 125.001,346.584 129.334,343.917 133.5,341C 130.298,341.086 127.298,342.086 124.5,344C 118.717,347.639 112.884,351.139 107,354.5C 105.043,350.673 104.043,346.673 104,342.5C 108.822,338.505 114.322,335.671 120.5,334C 129.122,325.104 139.289,318.604 151,314.5C 151.684,313.216 151.517,312.049 150.5,311C 155.12,309.398 156.454,306.398 154.5,302C 158.709,290.533 160.876,278.7 161,266.5C 160.25,265.874 159.416,265.374 158.5,265C 161.167,263 161.167,261 158.5,259C 165.885,249.939 174.718,242.772 185,237.5C 186.087,239.932 186.587,239.598 186.5,236.5C 189.346,236.448 191.68,235.448 193.5,233.5 Z"/></g>
<g><path style="opacity:1" fill="#B6BCFB" d="M 253.5,298.5 C 249.776,306.293 246.276,314.293 243,322.5C 239.249,335.49 240.249,348.156 246,360.5C 248.996,359.028 249.829,356.862 248.5,354C 250.082,354.193 251.416,355.026 252.5,356.5C 253.752,358.339 253.752,360.172 252.5,362C 248.735,363.827 244.902,364.327 241,363.5C 240.185,361.377 239.185,359.377 238,357.5C 237.667,346.5 237.333,335.5 237,324.5C 236.667,335.833 236.333,347.167 236,358.5C 232.738,366.19 227.905,367.357 221.5,362C 222.794,359.913 223.961,357.746 225,355.5C 225.011,337.718 226.011,320.052 228,302.5C 227.691,301.234 227.191,300.067 226.5,299C 216.343,294.087 207.009,287.921 198.5,280.5C 199.488,277.55 200.321,274.55 201,271.5C 203.734,270.638 203.901,269.805 201.5,269C 207.682,264.137 212.015,257.97 214.5,250.5C 228.122,262.621 241.289,275.287 254,288.5C 254.543,291.868 254.376,295.201 253.5,298.5 Z"/></g>
<g><path style="opacity:1" fill="#f5ebe9" d="M 145.5,251.5 C 145.343,252.873 145.51,254.207 146,255.5C 147.371,253.959 148.871,252.625 150.5,251.5C 149.37,253.315 148.704,255.315 148.5,257.5C 146.678,256.571 145.345,257.238 144.5,259.5C 144.276,257.298 143.943,254.965 143.5,252.5C 143.957,251.702 144.624,251.369 145.5,251.5 Z"/></g>
<g><path style="opacity:1" fill="#B24A71" d="M 150.5,251.5 C 151.249,252.531 151.915,253.698 152.5,255C 150.109,256.309 150.109,257.309 152.5,258C 151.122,259.334 149.789,259.501 148.5,258.5C 148.5,258.167 148.5,257.833 148.5,257.5C 148.704,255.315 149.37,253.315 150.5,251.5 Z"/></g>
<g><path style="opacity:1" fill="#FF3A41" d="M 148.5,258.5 C 148.26,261.293 147.26,261.793 145.5,260C 146.244,258.961 147.244,258.461 148.5,258.5 Z"/></g>
<g><path style="opacity:1" fill="#3B3C3B" d="M 141.5,260.5 C 143.073,262.206 145.073,263.373 147.5,264C 135.456,274.379 123.123,284.379 110.5,294C 107.906,294.449 105.906,293.449 104.5,291C 110.694,286.408 117.027,282.075 123.5,278C 130.004,272.663 136.004,266.829 141.5,260.5 Z"/></g>
<g><path style="opacity:1" fill="#000000" d="M 179.5,261.5 C 180.518,264.377 180.351,267.377 179,270.5C 178.699,267.493 178.865,264.493 179.5,261.5 Z"/></g>
<g><path style="opacity:1" fill="#fec90d" d="M 102.5,292.5 C 103.962,293.458 105.295,294.624 106.5,296C 100.173,299.841 93.5062,302.508 86.5,304C 92.0769,300.39 97.4102,296.557 102.5,292.5 Z"/></g>
<g><path style="opacity:1" fill="#A0A8F9" d="M 253.5,298.5 C 251.738,317.835 251.404,337.168 252.5,356.5C 251.416,355.026 250.082,354.193 248.5,354C 249.829,356.862 248.996,359.028 246,360.5C 240.249,348.156 239.249,335.49 243,322.5C 246.276,314.293 249.776,306.293 253.5,298.5 Z"/></g>
<g><path style="opacity:1" fill="#000000" d="M 151.5,329.5 C 153.379,329.393 153.712,329.893 152.5,331C 147.698,332.94 147.365,332.44 151.5,329.5 Z"/></g>
<g><path style="opacity:1" fill="#3B3B3B" d="M 99.5,345.5 C 100.496,345.414 101.329,345.748 102,346.5C 102.578,349.903 103.745,353.07 105.5,356C 108.472,356.288 111.139,355.455 113.5,353.5C 113.833,353.833 114.167,354.167 114.5,354.5C 113.205,357.366 113.205,360.199 114.5,363C 114.105,366.267 113.105,369.267 111.5,372C 113.671,373.174 114.671,375.007 114.5,377.5C 106.955,376.795 100.621,373.628 95.5,368C 96.0219,367.439 96.3552,366.772 96.5,366C 93.7496,359.951 93.2496,353.784 95,347.5C 96.6225,346.901 98.1225,346.234 99.5,345.5 Z"/></g>
<g><path style="opacity:1" fill="#3B3B3B" d="M 236.5,360.5 C 237.69,362.355 239.023,364.188 240.5,366C 244.477,366.531 248.31,366.031 252,364.5C 255.116,367.457 258.616,369.79 262.5,371.5C 251.608,382.691 239.441,384.358 226,376.5C 226.565,373.596 227.065,370.596 227.5,367.5C 232.564,367.765 235.564,365.431 236.5,360.5 Z"/></g>
</svg>
