<?xml version="1.0" encoding="UTF-8"?>
<!DOCTYPE svg PUBLIC "-//W3C//DTD SVG 1.1//EN" "http://www.w3.org/Graphics/SVG/1.1/DTD/svg11.dtd">
<svg xmlns="http://www.w3.org/2000/svg" version="1.1" width="432px" height="495px" style="shape-rendering:geometricPrecision; text-rendering:geometricPrecision; image-rendering:optimizeQuality; fill-rule:evenodd; clip-rule:evenodd" xmlns:xlink="http://www.w3.org/1999/xlink">
<g><path style="opacity:1" fill="#fefffe" d="M 226.5,93.5 C 230.182,93.3347 233.848,93.5014 237.5,94C 241.593,97.6395 245.093,101.806 248,106.5C 248.977,108.74 249.477,111.073 249.5,113.5C 254.448,114.914 259.448,116.248 264.5,117.5C 266.316,116.185 267.983,114.685 269.5,113C 277.5,112.333 285.5,112.333 293.5,113C 302.808,121.356 306.975,131.856 306,144.5C 314.967,157.684 322.634,171.684 329,186.5C 330.131,197.409 325.964,205.909 316.5,212C 322.323,219.532 328.49,226.699 335,233.5C 336.542,242.104 336.876,250.77 336,259.5C 334.877,262.249 333.377,264.749 331.5,267C 339.667,277.167 347.833,287.333 356,297.5C 356.667,301.833 356.667,306.167 356,310.5C 353.426,312.002 350.593,313.002 347.5,313.5C 350.605,317.646 352.439,322.313 353,327.5C 354.457,341.976 356.291,356.309 358.5,370.5C 360.716,391.12 351.716,399.286 331.5,395C 324.653,392.718 321.987,387.885 323.5,380.5C 323.627,376.799 323.96,373.132 324.5,369.5C 321.012,368.857 318.512,366.857 317,363.5C 318.786,349.184 314.452,337.184 304,327.5C 302.073,324.052 300.739,320.385 300,316.5C 296.748,311.666 293.748,306.666 291,301.5C 286.965,297.8 283.298,293.8 280,289.5C 275.826,296.516 271.159,303.183 266,309.5C 264.995,313.887 263.495,318.054 261.5,322C 263.069,326.042 264.236,330.209 265,334.5C 265.265,342.512 265.265,350.512 265,358.5C 265.26,360.618 266.26,362.284 268,363.5C 268.167,365.333 268.333,367.167 268.5,369C 267.271,377.851 266.105,386.684 265,395.5C 259.915,400.621 253.748,402.788 246.5,402C 240.5,403.667 234.5,405.333 228.5,407C 223.833,407.667 219.167,407.667 214.5,407C 212.919,406.293 211.419,405.46 210,404.5C 208.437,399.282 208.104,393.949 209,388.5C 209.833,387.5 210.667,386.5 211.5,385.5C 214.29,384.803 216.957,383.803 219.5,382.5C 220.473,380.36 221.973,378.693 224,377.5C 224.115,372.623 224.948,367.956 226.5,363.5C 224.847,347.763 222.68,332.096 220,316.5C 219.333,311.833 219.333,307.167 220,302.5C 225.941,286.009 232.274,269.676 239,253.5C 238.164,246.788 235.83,240.454 232,234.5C 231.821,231.447 231.321,228.447 230.5,225.5C 223.238,224.228 215.905,223.394 208.5,223C 205.438,221.939 202.938,220.106 201,217.5C 200.085,208.752 195.252,203.752 186.5,202.5C 184.718,198.831 182.718,195.331 180.5,192C 176.167,191.667 171.833,191.333 167.5,191C 164.949,187.647 161.616,185.481 157.5,184.5C 154.871,181.088 151.871,178.088 148.5,175.5C 139.128,168.967 129.128,163.134 118.5,158C 114.858,153.917 113.525,149.084 114.5,143.5C 119.844,143.334 125.177,143.501 130.5,144C 139.093,146.052 147.76,147.719 156.5,149C 158.167,152 160.5,154.333 163.5,156C 177.07,161.037 190.57,166.204 204,171.5C 205.283,166.343 205.95,161.01 206,155.5C 206.572,152.293 208.405,150.626 211.5,150.5C 211.286,148.856 211.62,147.356 212.5,146C 210.167,145.667 207.833,145.333 205.5,145C 204.374,141.256 204.207,137.423 205,133.5C 206.753,132.373 208.587,131.373 210.5,130.5C 211.281,129.271 211.781,127.938 212,126.5C 212.333,118.5 212.667,110.5 213,102.5C 217.778,99.7641 222.278,96.7641 226.5,93.5 Z"/></g>
<g><path style="opacity:1" fill="#010101" d="M 228.5,95.5 C 230.857,95.3367 233.19,95.5034 235.5,96C 237,98.8333 239.167,101 242,102.5C 245.466,106.136 247.299,110.469 247.5,115.5C 251.015,116.794 254.682,117.628 258.5,118C 261.308,118.598 263.808,119.765 266,121.5C 267.458,119.04 269.291,116.873 271.5,115C 278.167,114.333 284.833,114.333 291.5,115C 300.808,123.356 304.975,133.856 304,146.5C 312.967,159.684 320.634,173.684 327,188.5C 326.994,199.291 321.828,206.791 311.5,211C 319.123,218.944 326.29,227.111 333,235.5C 334.515,242.767 334.848,250.101 334,257.5C 332.365,260.632 330.532,263.632 328.5,266.5C 336.516,277.861 345.016,288.861 354,299.5C 354.667,302.5 354.667,305.5 354,308.5C 351.847,310.444 349.347,310.944 346.5,310C 343.369,305.867 339.869,302.034 336,298.5C 337.022,302.24 339.022,305.574 342,308.5C 344.701,313.853 347.368,319.186 350,324.5C 352.154,335.735 353.488,347.069 354,358.5C 357.135,368.086 357.135,377.753 354,387.5C 348.409,393.297 341.576,395.13 333.5,393C 327.101,391.373 324.434,387.206 325.5,380.5C 325.455,376.694 326.122,373.027 327.5,369.5C 319.263,365.851 316.597,359.685 319.5,351C 317.822,340.933 313.322,332.433 306,325.5C 304.073,322.052 302.739,318.385 302,314.5C 298.748,309.666 295.748,304.666 293,299.5C 287.945,294.948 283.445,289.948 279.5,284.5C 274.829,292.512 269.662,300.179 264,307.5C 263.16,311.063 261.826,314.397 260,317.5C 259.333,320.5 259.333,323.5 260,326.5C 262.185,331.425 263.352,336.592 263.5,342C 262.616,348.155 262.449,354.322 263,360.5C 264.667,363.154 265.833,365.987 266.5,369C 266.527,373.293 264.86,376.627 261.5,379C 267.214,388.341 264.881,395.007 254.5,399C 244.907,399.752 235.574,401.752 226.5,405C 211.254,406.974 206.92,401.14 213.5,387.5C 216.29,386.803 218.957,385.803 221.5,384.5C 223.455,382.174 225.455,379.841 227.5,377.5C 226.937,376.061 226.603,374.561 226.5,373C 227.853,370.05 228.519,366.883 228.5,363.5C 227.034,347.073 224.868,330.74 222,314.5C 221.333,311.167 221.333,307.833 222,304.5C 228.483,286.038 235.65,267.872 243.5,250C 237.769,242.036 234.102,233.202 232.5,223.5C 229.223,222.746 225.89,222.246 222.5,222C 221.069,221.535 219.903,220.701 219,219.5C 212.725,222.731 207.392,221.398 203,215.5C 202.085,206.752 197.252,201.752 188.5,200.5C 186.718,196.831 184.718,193.331 182.5,190C 178.167,189.667 173.833,189.333 169.5,189C 166.949,185.647 163.616,183.481 159.5,182.5C 158.5,181.167 157.5,179.833 156.5,178.5C 145.613,169.648 133.613,162.148 120.5,156C 117.13,153.303 115.796,149.803 116.5,145.5C 129.285,146.361 141.952,148.194 154.5,151C 156.167,154 158.5,156.333 161.5,158C 175.527,163.564 189.694,168.731 204,173.5C 205.107,173.415 206.107,173.081 207,172.5C 207.333,167.5 207.667,162.5 208,157.5C 208.572,154.293 210.405,152.626 213.5,152.5C 213.963,149.518 214.296,146.518 214.5,143.5C 207.327,145.161 204.827,142.494 207,135.5C 208.753,134.373 210.587,133.373 212.5,132.5C 213.281,131.271 213.781,129.938 214,128.5C 214.333,120.5 214.667,112.5 215,104.5C 219.778,101.764 224.278,98.7641 228.5,95.5 Z"/></g>
<g><path style="opacity:1" fill="#22644b" d="M 228.5,97.5 C 236.574,98.3099 237.074,99.9766 230,102.5C 224.749,101.747 224.249,100.08 228.5,97.5 Z"/></g>
<g><path style="opacity:1" fill="#1d1d1d" d="M 224.5,121.5 C 225.833,118.5 225.833,115.5 224.5,112.5C 226.379,112.607 226.712,112.107 225.5,111C 222.556,110.03 219.556,109.196 216.5,108.5C 218.434,104.899 221.434,102.899 225.5,102.5C 229.158,103.396 232.824,103.563 236.5,103C 239.102,105.131 241.768,106.965 244.5,108.5C 244.625,113.564 245.625,118.397 247.5,123C 242.571,123.279 237.738,122.779 233,121.5C 230.58,122.488 228.247,122.155 226,120.5C 225.617,121.056 225.117,121.389 224.5,121.5 Z"/></g>
<g><path style="opacity:1" fill="#ba9100" d="M 224.5,112.5 C 225.833,115.5 225.833,118.5 224.5,121.5C 223.833,121.5 223.5,121.833 223.5,122.5C 223.167,122.5 222.833,122.5 222.5,122.5C 220.533,122.739 218.699,122.406 217,121.5C 216.251,120.365 216.417,119.365 217.5,118.5C 220.283,121.351 222.616,121.017 224.5,117.5C 223.158,113.654 220.491,111.487 216.5,111C 219.498,110.109 222.164,110.609 224.5,112.5 Z"/></g>
<g><path style="opacity:1" fill="#7e7f7e" d="M 287.5,120.5 C 283.809,122.541 280.142,124.541 276.5,126.5C 275.448,126.649 274.448,126.483 273.5,126C 277.42,121.515 282.086,119.681 287.5,120.5 Z"/></g>
<g><path style="opacity:1" fill="#ea121c" d="M 222.5,122.5 C 222.833,122.5 223.167,122.5 223.5,122.5C 223.833,122.5 224.167,122.5 224.5,122.5C 224.833,123.833 225.167,125.167 225.5,126.5C 223.167,126.5 220.833,126.5 218.5,126.5C 218.5,125.5 218.5,124.5 218.5,123.5C 220.099,123.768 221.432,123.434 222.5,122.5 Z"/></g>
<g><path style="opacity:1" fill="#fefffe" d="M 224.5,122.5 C 226.861,122.674 229.194,123.007 231.5,123.5C 231.5,124.5 231.5,125.5 231.5,126.5C 229.5,126.5 227.5,126.5 225.5,126.5C 225.167,125.167 224.833,123.833 224.5,122.5 Z"/></g>
<g><path style="opacity:1" fill="#ea121c" d="M 231.5,123.5 C 233.833,123.5 236.167,123.5 238.5,123.5C 238.5,124.833 238.5,126.167 238.5,127.5C 236.05,127.702 233.717,127.369 231.5,126.5C 231.5,125.5 231.5,124.5 231.5,123.5 Z"/></g>
<g><path style="opacity:1" fill="#fefffe" d="M 238.5,123.5 C 240.117,124.038 241.784,124.371 243.5,124.5C 243.5,125.5 243.5,126.5 243.5,127.5C 241.833,127.5 240.167,127.5 238.5,127.5C 238.5,126.167 238.5,124.833 238.5,123.5 Z"/></g>
<g><path style="opacity:1" fill="#ea121c" d="M 243.5,124.5 C 244.833,124.5 246.167,124.5 247.5,124.5C 247.5,125.833 247.5,127.167 247.5,128.5C 246.041,128.567 244.708,128.234 243.5,127.5C 243.5,126.5 243.5,125.5 243.5,124.5 Z"/></g>
<g><path style="opacity:1" fill="#22644b" d="M 218.5,126.5 C 220.833,126.5 223.167,126.5 225.5,126.5C 225.5,128.167 225.5,129.833 225.5,131.5C 222.946,130.612 220.279,130.279 217.5,130.5C 217.433,129.041 217.766,127.708 218.5,126.5 Z"/></g>
<g><path style="opacity:1" fill="#be0f16" d="M 225.5,126.5 C 227.5,126.5 229.5,126.5 231.5,126.5C 232.038,128.117 232.371,129.784 232.5,131.5C 230.167,131.5 227.833,131.5 225.5,131.5C 225.5,129.833 225.5,128.167 225.5,126.5 Z"/></g>
<g><path style="opacity:1" fill="#22644b" d="M 231.5,126.5 C 233.717,127.369 236.05,127.702 238.5,127.5C 239.038,129.117 239.371,130.784 239.5,132.5C 237.283,131.631 234.95,131.298 232.5,131.5C 232.371,129.784 232.038,128.117 231.5,126.5 Z"/></g>
<g><path style="opacity:1" fill="#1c1c1c" d="M 287.5,120.5 C 289.129,121.625 290.629,122.959 292,124.5C 294.039,128.745 296.206,132.912 298.5,137C 298,137.5 297.5,138 297,138.5C 295.5,137 294,135.5 292.5,134C 290.5,133.667 288.5,133.333 286.5,133C 283.889,130.561 280.889,128.728 277.5,127.5C 277.167,127.5 276.833,127.5 276.5,127.5C 276.5,127.167 276.5,126.833 276.5,126.5C 280.142,124.541 283.809,122.541 287.5,120.5 Z"/></g>
<g><path style="opacity:1" fill="#be0f16" d="M 238.5,127.5 C 240.167,127.5 241.833,127.5 243.5,127.5C 243.629,129.216 243.962,130.883 244.5,132.5C 242.833,132.5 241.167,132.5 239.5,132.5C 239.371,130.784 239.038,129.117 238.5,127.5 Z"/></g>
<g><path style="opacity:1" fill="#22644b" d="M 243.5,127.5 C 244.708,128.234 246.041,128.567 247.5,128.5C 247.833,129.833 248.167,131.167 248.5,132.5C 247.167,132.5 245.833,132.5 244.5,132.5C 243.962,130.883 243.629,129.216 243.5,127.5 Z"/></g>
<g><path style="opacity:1" fill="#787878" d="M 276.5,127.5 C 276.833,127.5 277.167,127.5 277.5,127.5C 277.369,128.239 277.536,128.906 278,129.5C 280.333,131.006 282.5,132.673 284.5,134.5C 280.422,137.623 276.255,140.623 272,143.5C 271.836,148.179 271.836,152.845 272,157.5C 268.39,155.351 264.557,153.684 260.5,152.5C 259.676,149.215 259.176,145.882 259,142.5C 258.821,145.553 258.321,148.553 257.5,151.5C 256.675,147.878 256.175,144.211 256,140.5C 255.823,144.356 255.323,148.023 254.5,151.5C 254.5,149.5 254.5,147.5 254.5,145.5C 253.209,145.737 252.209,145.404 251.5,144.5C 251.702,142.05 251.369,139.717 250.5,137.5C 250.084,132.507 249.751,127.507 249.5,122.5C 257.175,124.517 264.842,126.517 272.5,128.5C 273.736,127.754 275.07,127.421 276.5,127.5 Z"/></g>
<g><path style="opacity:1" fill="#ea121c" d="M 217.5,130.5 C 220.279,130.279 222.946,130.612 225.5,131.5C 225.5,132.833 225.5,134.167 225.5,135.5C 222.833,134.833 220.167,134.167 217.5,133.5C 217.5,132.5 217.5,131.5 217.5,130.5 Z"/></g>
<g><path style="opacity:1" fill="#fefffe" d="M 225.5,131.5 C 227.833,131.5 230.167,131.5 232.5,131.5C 232.5,133.167 232.5,134.833 232.5,136.5C 229.941,136.802 227.607,136.468 225.5,135.5C 225.5,134.167 225.5,132.833 225.5,131.5 Z"/></g>
<g><path style="opacity:1" fill="#ea121c" d="M 232.5,131.5 C 234.95,131.298 237.283,131.631 239.5,132.5C 239.5,133.5 239.5,134.5 239.5,135.5C 237.236,136.219 234.903,136.552 232.5,136.5C 232.5,134.833 232.5,133.167 232.5,131.5 Z"/></g>
<g><path style="opacity:1" fill="#fefffe" d="M 239.5,132.5 C 241.167,132.5 242.833,132.5 244.5,132.5C 244.5,133.5 244.5,134.5 244.5,135.5C 242.833,135.5 241.167,135.5 239.5,135.5C 239.5,134.5 239.5,133.5 239.5,132.5 Z"/></g>
<g><path style="opacity:1" fill="#ea121c" d="M 244.5,132.5 C 245.833,132.5 247.167,132.5 248.5,132.5C 247.965,134.446 246.632,135.446 244.5,135.5C 244.5,134.5 244.5,133.5 244.5,132.5 Z"/></g>
<g><path style="opacity:1" fill="#7e7f7e" d="M 287.5,135.5 C 290.022,135.128 292.022,135.961 293.5,138C 280.823,138.001 275.323,144.168 277,156.5C 278.167,159 280,160.833 282.5,162C 279.946,162.558 277.946,161.725 276.5,159.5C 274.194,154.671 273.527,149.671 274.5,144.5C 278.725,141.231 283.059,138.231 287.5,135.5 Z"/></g>
<g><path style="opacity:1" fill="#946955" d="M 250.5,137.5 C 251.369,139.717 251.702,142.05 251.5,144.5C 250.072,146.074 249.739,147.741 250.5,149.5C 250.672,150.492 250.338,151.158 249.5,151.5C 249.631,150.761 249.464,150.094 249,149.5C 247.19,152.018 245.357,152.018 243.5,149.5C 243.66,147.847 244.326,146.514 245.5,145.5C 249.411,143.445 249.411,141.279 245.5,139C 246.743,136.697 248.409,136.197 250.5,137.5 Z"/></g>
<g><path style="opacity:1" fill="#e1b11c" d="M 238.5,138.5 C 240.265,137.539 242.265,137.205 244.5,137.5C 244.833,140.167 245.167,142.833 245.5,145.5C 244.326,146.514 243.66,147.847 243.5,149.5C 242.064,151.319 240.397,151.652 238.5,150.5C 241.974,146.259 241.974,142.259 238.5,138.5 Z"/></g>
<g><path style="opacity:1" fill="#be866b" d="M 238.5,138.5 C 241.974,142.259 241.974,146.259 238.5,150.5C 240.397,151.652 242.064,151.319 243.5,149.5C 245.357,152.018 247.19,152.018 249,149.5C 249.464,150.094 249.631,150.761 249.5,151.5C 249.573,153.027 248.906,154.027 247.5,154.5C 246.054,153.387 244.387,153.22 242.5,154C 239.747,158.861 235.747,162.028 230.5,163.5C 228.167,163.5 225.833,163.5 223.5,163.5C 223.167,162.5 222.5,161.833 221.5,161.5C 220.316,160.312 220.316,159.145 221.5,158C 218.997,156.216 218.997,154.549 221.5,153C 216.633,153.085 215.633,151.419 218.5,148C 217.151,146.365 217.318,144.865 219,143.5C 219.805,145.901 220.638,145.734 221.5,143C 220.007,141.844 220.174,141.01 222,140.5C 223.897,140.896 225.397,141.896 226.5,143.5C 230.112,140.885 234.112,139.218 238.5,138.5 Z"/></g>
<g><path style="opacity:1" fill="#7a7a7a" d="M 287.5,139.5 C 294.503,138.673 297.003,141.673 295,148.5C 287.825,155.746 288.158,156.08 296,149.5C 296.333,147.167 296.667,144.833 297,142.5C 297.781,143.729 298.281,145.062 298.5,146.5C 296.141,153.526 291.474,158.193 284.5,160.5C 278.132,158.432 275.965,154.098 278,147.5C 280.362,143.755 283.528,141.089 287.5,139.5 Z"/></g>
<g><path style="opacity:1" fill="#000000" d="M 251.5,144.5 C 252.209,145.404 253.209,145.737 254.5,145.5C 254.5,147.5 254.5,149.5 254.5,151.5C 254.167,151.5 253.833,151.5 253.5,151.5C 254.071,146.149 253.071,145.482 250.5,149.5C 249.739,147.741 250.072,146.074 251.5,144.5 Z"/></g>
<g><path style="opacity:1" fill="#000000" d="M 287.5,145.5 C 288.805,148.38 287.805,149.88 284.5,150C 286.141,148.871 287.141,147.371 287.5,145.5 Z"/></g>
<g><path style="opacity:1" fill="#000000" d="M 282.5,146.5 C 282.648,148.934 282.814,151.601 283,154.5C 286.171,157.751 285.837,158.085 282,155.5C 281.264,152.408 281.431,149.408 282.5,146.5 Z"/></g>
<g><path style="opacity:1" fill="#000000" d="M 228.5,147.5 C 232.746,149.997 234.246,153.664 233,158.5C 232.571,154.32 231.071,150.653 228.5,147.5 Z"/></g>
<g><path style="opacity:1" fill="#bfbfbf" d="M 121.5,150.5 C 121.735,149.903 122.235,149.57 123,149.5C 131.88,152.81 141.047,154.977 150.5,156C 152.102,157.935 153.269,160.101 154,162.5C 154.667,161.167 155.333,161.167 156,162.5C 156.449,165.094 155.449,167.094 153,168.5C 143.504,160.833 133.004,154.833 121.5,150.5 Z"/></g>
<g><path style="opacity:1" fill="#1d4a39" d="M 253.5,151.5 C 253.833,151.5 254.167,151.5 254.5,151.5C 255.6,152.605 256.267,153.938 256.5,155.5C 256.245,158.016 255.411,160.35 254,162.5C 250,166.5 246,170.5 242,174.5C 239.938,172.495 238.938,170.161 239,167.5C 244.438,162.569 249.272,157.236 253.5,151.5 Z"/></g>
<g><path style="opacity:1" fill="#1b1b1b" d="M 308.5,168.5 C 303.262,171.07 298.928,174.736 295.5,179.5C 292.973,177.49 291.139,174.823 290,171.5C 287.736,168.567 284.902,166.4 281.5,165C 284.311,163.175 287.311,161.842 290.5,161C 293.711,157.958 296.711,154.791 299.5,151.5C 302.901,155.957 306.068,160.623 309,165.5C 309.47,166.577 309.303,167.577 308.5,168.5 Z"/></g>
<g><path style="opacity:1" fill="#9b5230" d="M 247.5,154.5 C 245.188,158.812 241.855,162.145 237.5,164.5C 234.57,165.299 231.57,165.632 228.5,165.5C 229.167,164.833 229.833,164.167 230.5,163.5C 235.747,162.028 239.747,158.861 242.5,154C 244.387,153.22 246.054,153.387 247.5,154.5 Z"/></g>
<g><path style="opacity:1" fill="#9a1c20" d="M 258.5,161.5 C 257.539,159.735 257.205,157.735 257.5,155.5C 257.735,154.903 258.235,154.57 259,154.5C 261.5,155.333 264,156.167 266.5,157C 263.691,158.323 261.025,159.823 258.5,161.5 Z"/></g>
<g><path style="opacity:1" fill="#000000" d="M 227.5,155.5 C 228.043,155.56 228.376,155.893 228.5,156.5C 226.579,157.641 224.579,157.808 222.5,157C 224.382,156.802 226.048,156.302 227.5,155.5 Z"/></g>
<g><path style="opacity:1" fill="#fefffe" d="M 214.5,156.5 C 214.571,159.597 214.738,162.93 215,166.5C 216.139,170.404 217.472,174.071 219,177.5C 212.226,171.656 210.726,164.656 214.5,156.5 Z"/></g>
<g><path style="opacity:1" fill="#ec1c23" d="M 218.5,160.5 C 215.662,158.694 215.995,157.694 219.5,157.5C 219.737,158.791 219.404,159.791 218.5,160.5 Z"/></g>
<g><path style="opacity:1" fill="#fefffe" d="M 271.5,160.5 C 267.05,160.142 263.55,161.808 261,165.5C 258.308,171.563 255.141,177.229 251.5,182.5C 252.852,173.298 257.185,165.798 264.5,160C 267.039,159.204 269.372,159.371 271.5,160.5 Z"/></g>
<g><path style="opacity:1" fill="#fefffe" d="M 218.5,160.5 C 219.914,162.598 219.248,163.598 216.5,163.5C 216.285,161.821 216.952,160.821 218.5,160.5 Z"/></g>
<g><path style="opacity:1" fill="#ec1c23" d="M 271.5,160.5 C 274.057,161.188 276.391,162.354 278.5,164C 280.03,166.352 281.697,168.519 283.5,170.5C 284.167,171.5 284.833,172.5 285.5,173.5C 284.5,173.5 283.5,173.5 282.5,173.5C 281.033,173.106 279.533,172.773 278,172.5C 274.779,174.353 271.279,175.52 267.5,176C 262.587,178.618 258.254,181.952 254.5,186C 253.552,186.483 252.552,186.649 251.5,186.5C 251.5,185.167 251.5,183.833 251.5,182.5C 255.141,177.229 258.308,171.563 261,165.5C 263.55,161.808 267.05,160.142 271.5,160.5 Z"/></g>
<g><path style="opacity:1" fill="#fefffe" d="M 221.5,161.5 C 221.198,164.059 221.532,166.393 222.5,168.5C 222.111,171.553 222.777,174.22 224.5,176.5C 224.5,177.5 224.5,178.5 224.5,179.5C 223.5,179.5 222.5,179.5 221.5,179.5C 221.813,175.958 221.479,172.625 220.5,169.5C 220.194,166.615 220.527,163.948 221.5,161.5 Z"/></g>
<g><path style="opacity:1" fill="#000000" d="M 221.5,161.5 C 222.5,161.833 223.167,162.5 223.5,163.5C 222.549,164.919 222.216,166.585 222.5,168.5C 221.532,166.393 221.198,164.059 221.5,161.5 Z"/></g>
<g><path style="opacity:1" fill="#aaaaaa" d="M 159.5,164.5 C 159.735,163.903 160.235,163.57 161,163.5C 180.666,170.656 199.833,178.656 218.5,187.5C 217.833,187.5 217.167,187.5 216.5,187.5C 212.5,186.167 208.5,184.833 204.5,183.5C 201.903,183.279 201.903,182.779 204.5,182C 202.846,181.392 201.179,180.892 199.5,180.5C 186.46,174.654 173.126,169.321 159.5,164.5 Z"/></g>
<g><path style="opacity:1" fill="#e8e8e8" d="M 253.5,151.5 C 249.272,157.236 244.438,162.569 239,167.5C 238.938,170.161 239.938,172.495 242,174.5C 246,170.5 250,166.5 254,162.5C 255.411,160.35 256.245,158.016 256.5,155.5C 256.833,155.5 257.167,155.5 257.5,155.5C 257.205,157.735 257.539,159.735 258.5,161.5C 257.5,162.833 256.5,164.167 255.5,165.5C 251.378,167.787 248.045,170.954 245.5,175C 243.866,175.494 242.199,175.66 240.5,175.5C 240.217,174.711 239.717,174.044 239,173.5C 237.989,174.337 236.822,174.67 235.5,174.5C 234.199,173.118 233.366,171.452 233,169.5C 232.626,170.416 232.126,171.25 231.5,172C 230.937,180.034 232.27,187.867 235.5,195.5C 234.369,196.604 233.535,196.271 233,194.5C 232.667,195.167 232.333,195.833 232,196.5C 229.286,195.794 227.119,194.461 225.5,192.5C 226.163,190.527 226.496,188.361 226.5,186C 226.672,182.523 226.006,179.356 224.5,176.5C 222.777,174.22 222.111,171.553 222.5,168.5C 222.216,166.585 222.549,164.919 223.5,163.5C 223.369,164.239 223.536,164.906 224,165.5C 225.49,164.272 226.99,164.272 228.5,165.5C 228.783,166.289 229.283,166.956 230,167.5C 231.699,166.594 233.533,166.261 235.5,166.5C 235.34,168.199 235.506,169.866 236,171.5C 236.29,169.08 236.79,166.746 237.5,164.5C 241.855,162.145 245.188,158.812 247.5,154.5C 248.906,154.027 249.573,153.027 249.5,151.5C 250.338,151.158 250.672,150.492 250.5,149.5C 253.071,145.482 254.071,146.149 253.5,151.5 Z"/></g>
<g><path style="opacity:1" fill="#000000" d="M 223.5,163.5 C 225.833,163.5 228.167,163.5 230.5,163.5C 229.833,164.167 229.167,164.833 228.5,165.5C 226.99,164.272 225.49,164.272 224,165.5C 223.536,164.906 223.369,164.239 223.5,163.5 Z"/></g>
<g><path style="opacity:1" fill="#a06b4d" d="M 159.5,164.5 C 173.126,169.321 186.46,174.654 199.5,180.5C 193.054,182.993 193.054,185.993 199.5,189.5C 199.167,189.833 198.833,190.167 198.5,190.5C 186.528,184.476 175.361,179.142 165,174.5C 161.945,172.481 158.778,170.648 155.5,169C 157.07,167.603 158.404,166.103 159.5,164.5 Z"/></g>
<g><path style="opacity:1" fill="#ec1c23" d="M 220.5,169.5 C 220.649,170.552 220.483,171.552 220,172.5C 218.311,170.24 217.144,167.74 216.5,165C 217.448,164.517 218.448,164.351 219.5,164.5C 219.216,166.415 219.549,168.081 220.5,169.5 Z"/></g>
<g><path style="opacity:1" fill="#000000" d="M 237.5,164.5 C 236.79,166.746 236.29,169.08 236,171.5C 235.506,169.866 235.34,168.199 235.5,166.5C 233.533,166.261 231.699,166.594 230,167.5C 229.283,166.956 228.783,166.289 228.5,165.5C 231.57,165.632 234.57,165.299 237.5,164.5 Z"/></g>
<g><path style="opacity:1" fill="#000000" d="M 227.5,167.5 C 228.289,167.783 228.956,168.283 229.5,169C 228.697,173.414 228.197,177.914 228,182.5C 227.501,177.511 227.334,172.511 227.5,167.5 Z"/></g>
<g><path style="opacity:1" fill="#f0f0f0" d="M 285.5,173.5 C 284.833,172.5 284.167,171.5 283.5,170.5C 283.369,169.761 283.536,169.094 284,168.5C 287.036,170.491 288.703,173.158 289,176.5C 287.482,175.837 286.315,174.837 285.5,173.5 Z"/></g>
<g><path style="opacity:1" fill="#fefffe" d="M 308.5,168.5 C 311.336,168.837 312.002,170.171 310.5,172.5C 305.886,175.117 301.553,178.117 297.5,181.5C 294.559,184.129 293.893,183.462 295.5,179.5C 298.928,174.736 303.262,171.07 308.5,168.5 Z"/></g>
<g><path style="opacity:1" fill="#f8f8f8" d="M 282.5,173.5 C 275.64,176.405 268.64,179.238 261.5,182C 257.979,184.687 254.979,187.853 252.5,191.5C 251.692,191.192 251.025,190.692 250.5,190C 251.337,188.989 251.67,187.822 251.5,186.5C 252.552,186.649 253.552,186.483 254.5,186C 258.254,181.952 262.587,178.618 267.5,176C 271.279,175.52 274.779,174.353 278,172.5C 279.533,172.773 281.033,173.106 282.5,173.5 Z"/></g>
<g><path style="opacity:1" fill="#1a1a1a" d="M 310.5,172.5 C 312.433,173.642 313.933,175.308 315,177.5C 317.988,182.634 319.821,187.968 320.5,193.5C 318.654,199.524 314.654,202.69 308.5,203C 312.19,203.424 312.357,204.258 309,205.5C 306.376,205.53 303.709,205.197 301,204.5C 298.476,197.961 296.643,191.461 295.5,185C 296.823,184.184 297.489,183.017 297.5,181.5C 301.553,178.117 305.886,175.117 310.5,172.5 Z"/></g>
<g><path style="opacity:1" fill="#000000" d="M 240.5,175.5 C 238.585,175.784 236.919,175.451 235.5,174.5C 236.822,174.67 237.989,174.337 239,173.5C 239.717,174.044 240.217,174.711 240.5,175.5 Z"/></g>
<g><path style="opacity:1" fill="#fefffe" d="M 170.5,180.5 C 167.777,179.648 165.11,178.481 162.5,177C 161.549,176.282 161.383,175.449 162,174.5C 165.27,175.945 168.103,177.945 170.5,180.5 Z"/></g>
<g><path style="opacity:1" fill="#b31c23" d="M 225.5,192.5 C 224.833,192.167 224.167,191.833 223.5,191.5C 223.5,189.5 223.5,187.5 223.5,185.5C 218.343,183.892 213.343,181.892 208.5,179.5C 212.943,175.458 216.609,175.958 219.5,181C 221.134,181.494 222.801,181.66 224.5,181.5C 224.323,185.234 224.656,188.901 225.5,192.5 Z"/></g>
<g><path style="opacity:1" fill="#ec1c23" d="M 259.5,224.5 C 259.135,221.375 258.302,218.375 257,215.5C 252.289,210.294 247.789,204.961 243.5,199.5C 246.376,199.927 249.209,200.594 252,201.5C 252.5,201.167 253,200.833 253.5,200.5C 251.954,199.316 250.287,198.316 248.5,197.5C 249.14,194.303 250.807,193.137 253.5,194C 255.795,190.703 258.462,187.703 261.5,185C 268.177,181.744 275.01,178.91 282,176.5C 286.095,176.662 289.262,178.495 291.5,182C 282.955,195.586 274.789,209.42 267,223.5C 264.619,224.435 262.119,224.768 259.5,224.5 Z"/></g>
<g><path style="opacity:1" fill="#fefffe" d="M 235.5,177.5 C 236.5,177.5 237.5,177.5 238.5,177.5C 238.5,178.5 238.5,179.5 238.5,180.5C 237.5,180.5 236.5,180.5 235.5,180.5C 235.5,179.5 235.5,178.5 235.5,177.5 Z"/></g>
<g><path style="opacity:1" fill="#fefffe" d="M 249.5,177.5 C 250.043,177.56 250.376,177.893 250.5,178.5C 249.627,184.623 248.294,190.623 246.5,196.5C 244.163,197.512 241.83,197.345 239.5,196C 242.719,189.727 246.052,183.56 249.5,177.5 Z"/></g>
<g><path style="opacity:1" fill="#fefffe" d="M 170.5,180.5 C 172.924,181.03 175.257,181.864 177.5,183C 174.297,185.013 171.963,184.18 170.5,180.5 Z"/></g>
<g><path style="opacity:1" fill="#851c1d" d="M 255.5,165.5 C 256.525,165.897 256.692,166.563 256,167.5C 248.072,175.116 242.072,184.116 238,194.5C 235.811,190.436 234.311,186.102 233.5,181.5C 233.957,180.702 234.624,180.369 235.5,180.5C 236.5,180.5 237.5,180.5 238.5,180.5C 238.5,179.5 238.5,178.5 238.5,177.5C 237.5,177.5 236.5,177.5 235.5,177.5C 234.167,176.5 234.167,175.5 235.5,174.5C 236.919,175.451 238.585,175.784 240.5,175.5C 242.199,175.66 243.866,175.494 245.5,175C 248.045,170.954 251.378,167.787 255.5,165.5 Z"/></g>
<g><path style="opacity:1" fill="#fefffe" d="M 240.5,180.5 C 242.337,180.639 242.67,181.306 241.5,182.5C 240.702,182.043 240.369,181.376 240.5,180.5 Z"/></g>
<g><path style="opacity:1" fill="#dc9c7c" d="M 197.5,183.5 C 203.843,185.765 209.343,189.432 214,194.5C 214.048,196.544 213.548,198.544 212.5,200.5C 209.882,200.543 207.215,200.877 204.5,201.5C 200.306,198.717 195.973,196.217 191.5,194C 194.167,194 196.833,194 199.5,194C 205.1,190.543 204.767,187.877 198.5,186C 197.748,185.329 197.414,184.496 197.5,183.5 Z"/></g>
<g><path style="opacity:1" fill="#fefffe" d="M 204.5,183.5 C 208.5,184.833 212.5,186.167 216.5,187.5C 215.359,188.339 214.026,189.006 212.5,189.5C 209.508,187.829 206.841,185.829 204.5,183.5 Z"/></g>
<g><path style="opacity:1" fill="#fefffe" d="M 236.5,183.5 C 238.465,183.948 238.798,184.948 237.5,186.5C 236.614,185.675 236.281,184.675 236.5,183.5 Z"/></g>
<g><path style="opacity:1" fill="#ec1c23" d="M 291.5,184.5 C 292.117,184.611 292.617,184.944 293,185.5C 294.339,190.178 295.339,194.844 296,199.5C 291.265,202.636 286.098,204.136 280.5,204C 284.824,197.851 288.49,191.351 291.5,184.5 Z"/></g>
<g><path style="opacity:1" fill="#cb6a3c" d="M 223.5,191.5 C 223.483,193.028 222.816,193.528 221.5,193C 221.085,190.974 220.085,189.474 218.5,188.5C 218.5,188.167 218.5,187.833 218.5,187.5C 219.708,186.766 221.041,186.433 222.5,186.5C 222.216,188.415 222.549,190.081 223.5,191.5 Z"/></g>
<g><path style="opacity:1" fill="#7e7f7e" d="M 218.5,188.5 C 219.234,189.708 219.567,191.041 219.5,192.5C 212.164,192.202 211.83,190.868 218.5,188.5 Z"/></g>
<g><path style="opacity:1" fill="#fefffe" d="M 191.5,189.5 C 192.473,189.987 193.473,190.487 194.5,191C 192.843,191.725 191.843,191.225 191.5,189.5 Z"/></g>
<g><path style="opacity:1" fill="#b31c23" d="M 272.5,189.5 C 276.281,188.789 279.281,189.955 281.5,193C 277.117,192.992 272.784,192.326 268.5,191C 270.058,190.79 271.391,190.29 272.5,189.5 Z"/></g>
<g><path style="opacity:1" fill="#fefffe" d="M 229.5,198.5 C 228.508,198.328 227.842,198.662 227.5,199.5C 224.833,198.5 222.167,197.5 219.5,196.5C 219.082,195.778 218.416,195.278 217.5,195C 221.901,194.932 225.901,196.099 229.5,198.5 Z"/></g>
<g><path style="opacity:1" fill="#162c23" d="M 219.5,196.5 C 222.167,197.5 224.833,198.5 227.5,199.5C 227.833,200.167 228.167,200.833 228.5,201.5C 227.5,201.833 226.833,202.5 226.5,203.5C 225.844,204.278 225.011,204.944 224,205.5C 223.235,205.43 222.735,205.097 222.5,204.5C 223.497,204.53 224.164,204.03 224.5,203C 222.642,201.245 220.642,199.745 218.5,198.5C 216.969,197.075 217.302,196.409 219.5,196.5 Z"/></g>
<g><path style="opacity:1" fill="#d8d8d8" d="M 218.5,198.5 C 220.642,199.745 222.642,201.245 224.5,203C 224.164,204.03 223.497,204.53 222.5,204.5C 220.786,203.262 218.786,202.595 216.5,202.5C 215.483,200.528 216.15,199.195 218.5,198.5 Z"/></g>
<g><path style="opacity:1" fill="#ec1c23" d="M 239.5,198.5 C 244.083,203.949 248.916,209.283 254,214.5C 255.868,217.605 257.035,220.938 257.5,224.5C 253.665,224.583 249.998,223.917 246.5,222.5C 242.255,217.275 237.588,212.608 232.5,208.5C 232.692,205.399 233.358,202.399 234.5,199.5C 236.045,198.548 237.712,198.215 239.5,198.5 Z"/></g>
<g><path style="opacity:1" fill="#b31c23" d="M 239.5,198.5 C 240.833,198.833 242.167,199.167 243.5,199.5C 247.789,204.961 252.289,210.294 257,215.5C 258.302,218.375 259.135,221.375 259.5,224.5C 258.833,224.5 258.167,224.5 257.5,224.5C 257.035,220.938 255.868,217.605 254,214.5C 248.916,209.283 244.083,203.949 239.5,198.5 Z"/></g>
<g><path style="opacity:1" fill="#fefffe" d="M 228.5,201.5 C 229.5,203.833 228.833,204.5 226.5,203.5C 226.833,202.5 227.5,201.833 228.5,201.5 Z"/></g>
<g><path style="opacity:1" fill="#fefffe" d="M 299.5,206.5 C 292.171,209.714 284.505,211.214 276.5,211C 277.167,210 277.833,209 278.5,208C 284.991,206.672 291.157,204.505 297,201.5C 297.847,203.193 298.68,204.86 299.5,206.5 Z"/></g>
<g><path style="opacity:1" fill="#1f5541" d="M 229.5,198.5 C 230.552,198.351 231.552,198.517 232.5,199C 230.75,205.161 228.917,211.328 227,217.5C 226.25,216.874 225.416,216.374 224.5,216C 225.252,215.329 225.586,214.496 225.5,213.5C 225.586,212.504 225.252,211.671 224.5,211C 221.931,210.102 219.598,208.935 217.5,207.5C 216.081,206.549 214.415,206.216 212.5,206.5C 212.077,208.781 212.744,210.448 214.5,211.5C 216.786,211.595 218.786,212.262 220.5,213.5C 211.894,217.18 207.227,214.18 206.5,204.5C 210.079,204.684 213.413,204.017 216.5,202.5C 218.786,202.595 220.786,203.262 222.5,204.5C 222.735,205.097 223.235,205.43 224,205.5C 225.011,204.944 225.844,204.278 226.5,203.5C 228.833,204.5 229.5,203.833 228.5,201.5C 228.167,200.833 227.833,200.167 227.5,199.5C 227.842,198.662 228.508,198.328 229.5,198.5 Z"/></g>
<g><path style="opacity:1" fill="#000000" d="M 217.5,207.5 C 216.167,207.5 214.833,207.5 213.5,207.5C 213.433,208.959 213.766,210.292 214.5,211.5C 212.744,210.448 212.077,208.781 212.5,206.5C 214.415,206.216 216.081,206.549 217.5,207.5 Z"/></g>
<g><path style="opacity:1" fill="#fefffe" d="M 299.5,206.5 C 300.761,214.13 302.428,221.796 304.5,229.5C 302.5,230.833 300.5,232.167 298.5,233.5C 297.614,232.675 297.281,231.675 297.5,230.5C 298.451,229.081 298.784,227.415 298.5,225.5C 299.49,219.355 299.823,213.022 299.5,206.5 Z"/></g>
<g><path style="opacity:1" fill="#c6c6c6" d="M 217.5,207.5 C 219.598,208.935 221.931,210.102 224.5,211C 225.252,211.671 225.586,212.504 225.5,213.5C 224.027,214.071 222.36,214.071 220.5,213.5C 218.786,212.262 216.786,211.595 214.5,211.5C 213.766,210.292 213.433,208.959 213.5,207.5C 214.833,207.5 216.167,207.5 217.5,207.5 Z"/></g>
<g><path style="opacity:1" fill="#b31c23" d="M 232.5,208.5 C 237.588,212.608 242.255,217.275 246.5,222.5C 240.399,221.689 234.732,219.689 229.5,216.5C 230.516,213.718 231.516,211.051 232.5,208.5 Z"/></g>
<g><path style="opacity:1" fill="#ec1c23" d="M 297.5,213.5 C 291.89,217.246 285.89,220.413 279.5,223C 280.609,223.638 281.775,224.138 283,224.5C 286.504,223.871 289.837,222.871 293,221.5C 293.833,221.667 294.667,221.833 295.5,222C 296.833,222.667 296.833,223.333 295.5,224C 291.71,227.021 287.377,228.188 282.5,227.5C 278.363,225.598 274.363,223.431 270.5,221C 272.167,218.667 273.833,216.333 275.5,214C 282.739,213.468 289.739,211.968 296.5,209.5C 297.429,210.689 297.762,212.022 297.5,213.5 Z"/></g>
<g><path style="opacity:1" fill="#b31c23" d="M 302.5,211.5 C 308.686,216.506 313.853,222.173 318,228.5C 312.236,223.242 307.069,217.576 302.5,211.5 Z"/></g>
<g><path style="opacity:1" fill="#ae1c23" d="M 297.5,213.5 C 298.483,217.298 298.817,221.298 298.5,225.5C 298.784,227.415 298.451,229.081 297.5,230.5C 296.732,231.263 296.232,232.263 296,233.5C 291.052,232.357 286.552,230.357 282.5,227.5C 287.377,228.188 291.71,227.021 295.5,224C 296.833,223.333 296.833,222.667 295.5,222C 294.667,221.833 293.833,221.667 293,221.5C 289.837,222.871 286.504,223.871 283,224.5C 281.775,224.138 280.609,223.638 279.5,223C 285.89,220.413 291.89,217.246 297.5,213.5 Z"/></g>
<g><path style="opacity:1" fill="#eee4af" d="M 303.5,217.5 C 307.964,221.463 312.298,225.63 316.5,230C 312.848,230.499 309.182,230.665 305.5,230.5C 305.252,226.094 304.585,221.76 303.5,217.5 Z"/></g>
<g><path style="opacity:1" fill="#870014" d="M 269.5,223.5 C 279.634,234.472 289.634,245.639 299.5,257C 303.586,261.077 308.253,264.41 313.5,267C 309.798,266.824 306.465,265.49 303.5,263C 290.916,251.253 279.249,238.753 268.5,225.5C 268.863,224.817 269.196,224.15 269.5,223.5 Z"/></g>
<g><path style="opacity:1" fill="#fefffe" d="M 245.5,225.5 C 251.853,225.453 252.02,226.119 246,227.5C 245.536,226.906 245.369,226.239 245.5,225.5 Z"/></g>
<g><path style="opacity:1" fill="#fefffe" d="M 253.5,227.5 C 253.897,226.475 254.563,226.308 255.5,227C 259.292,231.06 263.626,234.393 268.5,237C 267.183,238.659 265.517,239.826 263.5,240.5C 258.468,238.567 253.635,236.234 249,233.5C 246.86,229.248 247.36,228.748 250.5,232C 252.74,232.977 255.073,233.477 257.5,233.5C 257.378,230.708 256.044,228.708 253.5,227.5 Z"/></g>
<g><path style="opacity:1" fill="#fefffe" d="M 257.5,227.5 C 260.304,226.362 263.304,226.195 266.5,227C 269.464,230.966 272.797,234.633 276.5,238C 269.865,235.233 263.531,231.733 257.5,227.5 Z"/></g>
<g><path style="opacity:1" fill="#fefffe" d="M 276.5,228.5 C 276.56,227.957 276.893,227.624 277.5,227.5C 283.34,231.42 289.673,234.253 296.5,236C 295.167,237.667 293.833,239.333 292.5,241C 291.167,241.667 289.833,241.667 288.5,241C 284.269,236.938 280.269,232.771 276.5,228.5 Z"/></g>
<g><path style="opacity:1" fill="#ec1c23" d="M 250.5,229.5 C 252.07,228.441 253.403,228.941 254.5,231C 252.934,231.3 251.601,230.8 250.5,229.5 Z"/></g>
<g><path style="opacity:1" fill="#870014" d="M 297.5,237.5 C 299.17,234.998 301.336,232.998 304,231.5C 304.5,232 305,232.5 305.5,233C 303.919,234.828 302.585,236.828 301.5,239C 299.934,239.3 298.601,238.8 297.5,237.5 Z"/></g>
<g><path style="opacity:1" fill="#1192d0" d="M 310.5,232.5 C 314.353,232.76 318.02,232.926 321.5,233C 326.095,235.262 328.762,238.929 329.5,244C 329.481,246.969 329.314,250.135 329,253.5C 322.647,267.371 314.314,268.704 304,257.5C 302.607,252.905 302.274,248.239 303,243.5C 305.039,239.391 307.539,235.725 310.5,232.5 Z"/></g>
<g><path style="opacity:1" fill="#006793" d="M 297.5,237.5 C 297.5,238.5 297.5,239.5 297.5,240.5C 297.037,243.482 296.704,246.482 296.5,249.5C 294.522,248.683 293.522,247.183 293.5,245C 293.944,241.941 295.277,239.441 297.5,237.5 Z"/></g>
<g><path style="opacity:1" fill="#727272" d="M 265.5,242.5 C 267.162,241.015 268.995,239.682 271,238.5C 273.317,239.826 275.651,241.16 278,242.5C 282.35,255.88 287.684,268.88 294,281.5C 295.833,283.333 297.667,285.167 299.5,287C 301.279,286.956 302.945,286.289 304.5,285C 308.375,281.619 312.375,278.453 316.5,275.5C 319.161,285.316 322.327,294.982 326,304.5C 331.254,313.339 336.254,322.339 341,331.5C 343.191,338.951 345.358,346.285 347.5,353.5C 347.762,354.978 347.429,356.311 346.5,357.5C 343.553,358.423 340.553,359.089 337.5,359.5C 339.151,358.03 340.985,356.697 343,355.5C 345.486,345.33 341.653,340.83 331.5,342C 329.041,339.554 326.708,337.054 324.5,334.5C 324.167,335 323.833,335.5 323.5,336C 324.933,339.467 326.266,342.967 327.5,346.5C 326.079,350.641 326.412,354.641 328.5,358.5C 330.323,359.747 332.323,360.414 334.5,360.5C 331.366,363.907 328.199,363.574 325,359.5C 324.626,358.584 324.126,357.75 323.5,357C 325.708,342.959 321.541,331.126 311,321.5C 306.199,307.693 298.532,295.693 288,285.5C 285.833,282 283.667,278.5 281.5,275C 277.687,274.852 274.521,273.352 272,270.5C 270.197,266.256 268.697,261.922 267.5,257.5C 266.503,257.47 265.836,257.97 265.5,259C 267.144,263.429 268.477,267.929 269.5,272.5C 263.691,281.435 257.857,290.435 252,299.5C 245.765,309.263 243.765,319.929 246,331.5C 246.85,340.023 248.017,348.356 249.5,356.5C 249.5,362.167 249.5,367.833 249.5,373.5C 244.474,375.91 239.474,375.91 234.5,373.5C 233.421,351.951 230.755,330.618 226.5,309.5C 234.039,289.382 241.873,269.382 250,249.5C 250.813,245.336 250.313,241.336 248.5,237.5C 248.833,237.167 249.167,236.833 249.5,236.5C 254.442,239.642 259.776,241.642 265.5,242.5 Z"/></g>
<g><path style="opacity:1" fill="#00a1e8" d="M 297.5,240.5 C 298.978,240.238 300.311,240.571 301.5,241.5C 300.167,245.833 300.167,250.167 301.5,254.5C 301.333,254.833 301.167,255.167 301,255.5C 298.873,253.886 297.373,251.886 296.5,249.5C 296.704,246.482 297.037,243.482 297.5,240.5 Z"/></g>
<g><path style="opacity:1" fill="#000000" d="M 265.5,242.5 C 270.65,245.145 272.817,249.145 272,254.5C 269.567,250.633 267.4,246.633 265.5,242.5 Z"/></g>
<g><path style="opacity:1" fill="#eee4af" d="M 289.5,243.5 C 290.209,242.596 291.209,242.263 292.5,242.5C 292.649,243.552 292.483,244.552 292,245.5C 291.292,244.619 290.458,243.953 289.5,243.5 Z"/></g>
<g><path style="opacity:1" fill="#000000" d="M 262.5,245.5 C 263.189,244.226 264.023,244.226 265,245.5C 266.874,247.569 267.874,249.902 268,252.5C 266.303,249.98 264.47,247.647 262.5,245.5 Z"/></g>
<g><path style="opacity:1" fill="#000000" d="M 252.5,250.5 C 253.239,250.369 253.906,250.536 254.5,251C 256.918,255.506 260.251,259.173 264.5,262C 258.498,260.503 254.498,256.67 252.5,250.5 Z"/></g>
<g><path style="opacity:1" fill="#000000" d="M 267.5,257.5 C 267.56,256.957 267.893,256.624 268.5,256.5C 270.193,258.027 272.027,259.36 274,260.5C 274.333,259.833 274.667,259.167 275,258.5C 276.481,261.956 278.148,265.289 280,268.5C 280.667,269.5 280.667,270.5 280,271.5C 276.71,266.043 272.543,261.377 267.5,257.5 Z"/></g>
<g><path style="opacity:1" fill="#e6dba9" d="M 280.5,244.5 C 280.56,243.957 280.893,243.624 281.5,243.5C 288.683,251.516 296.349,259.016 304.5,266C 303.833,266.333 303.167,266.667 302.5,267C 305.785,267.824 309.118,268.324 312.5,268.5C 316.16,267.637 319.827,267.137 323.5,267C 316.833,272.333 310.167,277.667 303.5,283C 300.313,284.901 297.813,284.067 296,280.5C 290.053,268.269 284.886,256.269 280.5,244.5 Z"/></g>
<g><path style="opacity:1" fill="#646464" d="M 269.5,272.5 C 272.116,273.48 274.449,274.98 276.5,277C 269.002,288.864 261.836,301.03 255,313.5C 254.333,319.167 254.333,324.833 255,330.5C 256.669,334.176 257.836,338.009 258.5,342C 257.383,349.463 257.216,356.963 258,364.5C 261.965,369.771 260.799,373.438 254.5,375.5C 253.255,371.123 252.255,366.79 251.5,362.5C 251.741,360.102 251.074,358.102 249.5,356.5C 248.017,348.356 246.85,340.023 246,331.5C 243.765,319.929 245.765,309.263 252,299.5C 257.857,290.435 263.691,281.435 269.5,272.5 Z"/></g>
<g><path style="opacity:1" fill="#5b5b5b" d="M 347.5,353.5 C 345.358,346.285 343.191,338.951 341,331.5C 336.254,322.339 331.254,313.339 326,304.5C 322.327,294.982 319.161,285.316 316.5,275.5C 317.251,274.427 318.251,274.26 319.5,275C 321,276.5 322.5,278 324,279.5C 325.673,286.841 327.34,294.174 329,301.5C 335.001,308.827 340.001,316.827 344,325.5C 346.65,334.859 347.817,344.192 347.5,353.5 Z"/></g>
<g><path style="opacity:1" fill="#fec90d" d="M 341.5,292.5 C 344.469,295.642 347.302,298.975 350,302.5C 350.749,303.635 350.583,304.635 349.5,305.5C 346.377,301.875 343.044,298.375 339.5,295C 340.381,294.292 341.047,293.458 341.5,292.5 Z"/></g>
<g><path style="opacity:1" fill="#545554" d="M 337.5,359.5 C 336.609,360.11 335.609,360.443 334.5,360.5C 332.323,360.414 330.323,359.747 328.5,358.5C 326.412,354.641 326.079,350.641 327.5,346.5C 326.266,342.967 324.933,339.467 323.5,336C 323.833,335.5 324.167,335 324.5,334.5C 326.708,337.054 329.041,339.554 331.5,342C 341.653,340.83 345.486,345.33 343,355.5C 340.985,356.697 339.151,358.03 337.5,359.5 Z"/></g>
<g><path style="opacity:1" fill="#1a1a1a" d="M 347.5,360.5 C 354.031,368.359 352.697,374.193 343.5,378C 339.775,378.76 336.108,378.593 332.5,377.5C 332.167,377 331.833,376.5 331.5,376C 332.736,372.124 334.07,368.29 335.5,364.5C 339.511,362.84 343.511,361.506 347.5,360.5 Z"/></g>
<g><path style="opacity:1" fill="#1c1c1c" d="M 251.5,362.5 C 252.255,366.79 253.255,371.123 254.5,375.5C 255.473,377.068 255.64,378.735 255,380.5C 252.293,382.936 249.127,384.436 245.5,385C 249.588,385.711 253.088,384.544 256,381.5C 256.972,383.305 258.139,384.972 259.5,386.5C 257.73,390.397 254.73,392.897 250.5,394C 245.777,394.624 241.11,394.29 236.5,393C 232.619,392.393 229.286,390.726 226.5,388C 229.535,384.63 232.868,381.63 236.5,379C 240.985,378.855 245.318,378.022 249.5,376.5C 250.167,371.683 250.834,367.017 251.5,362.5 Z"/></g>
</svg>
