<?xml version="1.0" encoding="UTF-8"?>
<!DOCTYPE svg PUBLIC "-//W3C//DTD SVG 1.1//EN" "http://www.w3.org/Graphics/SVG/1.1/DTD/svg11.dtd">
<svg xmlns="http://www.w3.org/2000/svg" version="1.1" width="557px" height="648px" style="shape-rendering:geometricPrecision; text-rendering:geometricPrecision; image-rendering:optimizeQuality; fill-rule:evenodd; clip-rule:evenodd" xmlns:xlink="http://www.w3.org/1999/xlink">
<g><path style="opacity:1" fill="#fefffe" d="M 364.5,79.5 C 368.846,79.3343 373.179,79.501 377.5,80C 378.406,81.6995 378.739,83.5328 378.5,85.5C 381.119,85.2317 383.619,85.565 386,86.5C 387.1,94.7428 386.434,102.743 384,110.5C 380.708,111.39 380.041,113.057 382,115.5C 382.167,118.5 382.333,121.5 382.5,124.5C 381.342,133.794 380.509,143.127 380,152.5C 375.848,155.656 372.348,159.49 369.5,164C 370.732,167.19 372.065,170.357 373.5,173.5C 382.349,175.519 389.849,179.853 396,186.5C 405.584,203.34 415.917,219.673 427,235.5C 428.536,241.749 428.87,248.083 428,254.5C 426.698,258.274 424.531,261.441 421.5,264C 422.635,268.748 422.802,273.581 422,278.5C 419.417,279.874 416.917,281.374 414.5,283C 417.226,286.302 420.059,289.468 423,292.5C 423.667,299.5 423.667,306.5 423,313.5C 422.691,314.766 422.191,315.933 421.5,317C 429.836,321.499 437.836,326.499 445.5,332C 448.289,332.241 450.956,332.908 453.5,334C 455.5,336.333 457.5,338.667 459.5,341C 485.355,338.016 506.521,346.516 523,366.5C 526.138,371.271 529.638,375.771 533.5,380C 537.309,383.238 541.642,385.404 546.5,386.5C 546.666,393.175 546.5,399.842 546,406.5C 540.833,411.667 535.667,416.833 530.5,422C 519.5,422.667 508.5,422.667 497.5,422C 495.274,420.773 493.774,418.939 493,416.5C 490.689,409.254 488.689,401.921 487,394.5C 485.186,389.036 482.02,384.536 477.5,381C 477.109,398.512 470.109,413.845 456.5,427C 450,431.5 443.5,436 437,440.5C 437.083,447.261 438.083,453.928 440,460.5C 443.058,468.283 446.392,475.95 450,483.5C 452.849,495.982 450.183,506.982 442,516.5C 425.373,531.452 412.206,548.952 402.5,569C 398.036,570.74 393.536,570.907 389,569.5C 389.222,574.322 387.722,578.489 384.5,582C 372.122,583.255 360.122,581.755 348.5,577.5C 347.11,572.416 347.277,567.416 349,562.5C 354.654,556.511 361.154,551.677 368.5,548C 379.793,538.222 388.793,526.722 395.5,513.5C 395.333,513.167 395.167,512.833 395,512.5C 388.994,515.415 382.828,518.249 376.5,521C 373.854,521.497 371.187,521.664 368.5,521.5C 369.36,528.092 367.36,533.592 362.5,538C 351.255,543.943 339.421,546.109 327,544.5C 326.333,539.5 326.333,534.5 327,529.5C 331.44,522.166 335.107,514.499 338,506.5C 343.833,500.667 349.667,494.833 355.5,489C 365.553,487.904 375.22,485.404 384.5,481.5C 376.147,472.315 367.98,462.981 360,453.5C 354.893,446.288 350.56,438.621 347,430.5C 339.873,431.664 332.706,432.831 325.5,434C 325.761,437.7 327.594,440.2 331,441.5C 331.667,448.5 331.667,455.5 331,462.5C 329.833,463.667 328.667,464.833 327.5,466C 319.503,468.045 312.669,466.212 307,460.5C 307.444,451.275 305.944,442.441 302.5,434C 297.319,433.638 292.152,433.138 287,432.5C 284.395,432.907 282.229,434.073 280.5,436C 269.5,436.667 258.5,436.667 247.5,436C 245.196,431.835 243.863,427.335 243.5,422.5C 239.3,421.863 235.134,421.196 231,420.5C 230.667,421.5 230.333,422.5 230,423.5C 226.484,425.926 223.151,428.593 220,431.5C 215.833,437.667 211.667,443.833 207.5,450C 208.833,451.333 210.167,452.667 211.5,454C 214.636,454.315 217.303,455.482 219.5,457.5C 237.365,454.843 249.532,461.843 256,478.5C 259.746,492.087 254.746,497.087 241,493.5C 223.816,494.037 207.816,490.037 193,481.5C 190,484.5 187,487.5 184,490.5C 177.137,503.232 171.637,516.566 167.5,530.5C 165.067,532.054 162.4,532.72 159.5,532.5C 159.666,536.846 159.499,541.179 159,545.5C 155.249,547.291 151.749,549.457 148.5,552C 136.811,552.721 125.145,552.555 113.5,551.5C 111.226,540.714 115.226,533.38 125.5,529.5C 126.223,526.93 127.39,524.597 129,522.5C 131.963,520.539 134.629,518.206 137,515.5C 141.281,504.939 146.614,494.939 153,485.5C 153.415,471.328 156.915,457.994 163.5,445.5C 160.643,436.039 159.809,426.372 161,416.5C 164.312,413.344 167.979,410.677 172,408.5C 172.769,401.211 174.603,394.211 177.5,387.5C 168.405,367.828 171.238,350.162 186,334.5C 186.208,330.082 186.874,325.749 188,321.5C 189.154,320.257 190.488,319.257 192,318.5C 193.509,307.537 194.175,296.537 194,285.5C 187.178,278.532 181.845,270.532 178,261.5C 174,251.5 170,241.5 166,231.5C 163.125,228.537 159.625,226.704 155.5,226C 151.607,222.61 148.273,218.777 145.5,214.5C 140.42,209.92 134.92,205.92 129,202.5C 129.045,197.57 128.045,192.903 126,188.5C 123.923,180.235 125.923,173.235 132,167.5C 133.333,164.167 134.667,160.833 136,157.5C 142.802,154.854 149.635,154.854 156.5,157.5C 159.222,155.937 162.222,155.271 165.5,155.5C 169.763,155.069 173.596,156.069 177,158.5C 184.13,157.718 191.297,157.218 198.5,157C 201.774,153.784 205.774,152.617 210.5,153.5C 210.055,150.635 210.722,148.135 212.5,146C 223.559,145.094 234.559,145.427 245.5,147C 247.552,150.899 249.886,151.232 252.5,148C 257.5,147.333 262.5,147.333 267.5,148C 268.177,155.229 268.51,162.396 268.5,169.5C 268.653,172.706 267.986,175.706 266.5,178.5C 272.096,181.014 275.263,185.347 276,191.5C 281.392,199.638 284.559,208.638 285.5,218.5C 288.777,218.784 291.943,218.451 295,217.5C 302.992,204.464 311.158,191.797 319.5,179.5C 318.855,178.354 318.022,177.354 317,176.5C 316.697,172.471 316.197,168.471 315.5,164.5C 314.722,162.853 313.556,161.52 312,160.5C 311.824,157.118 311.324,153.785 310.5,150.5C 308.677,149.253 306.677,148.586 304.5,148.5C 301.791,139.239 305.125,133.906 314.5,132.5C 316.473,126.026 315.306,120.359 311,115.5C 310.333,111.167 310.333,106.833 311,102.5C 311.414,102.043 311.914,101.709 312.5,101.5C 313.497,94.5316 313.83,87.5316 313.5,80.5C 321.646,80.5338 329.646,81.3671 337.5,83C 340.5,84.8333 343.5,86.6667 346.5,88.5C 348.111,87.6798 348.778,86.3464 348.5,84.5C 354.73,85.199 360.063,83.5323 364.5,79.5 Z"/></g>
<g><path style="opacity:1" fill="#000000" d="M 366.5,81.5 C 369.518,81.3354 372.518,81.502 375.5,82C 376.406,83.6995 376.739,85.5328 376.5,87.5C 383.494,85.8275 386.161,88.4942 384.5,95.5C 384.703,100.101 383.87,104.434 382,108.5C 376.97,110.582 376.303,113.582 380,117.5C 380.758,123.891 380.424,130.224 379,136.5C 378.535,137.931 377.701,139.097 376.5,140C 378.523,143.183 379.023,146.683 378,150.5C 373.675,153.992 369.842,157.992 366.5,162.5C 367.97,166.912 369.637,171.245 371.5,175.5C 380.349,177.519 387.849,181.853 394,188.5C 403.584,205.34 413.917,221.673 425,237.5C 428.935,248.031 426.435,256.531 417.5,263C 418.701,263.903 419.535,265.069 420,266.5C 420.667,269.833 420.667,273.167 420,276.5C 416.579,278.461 413.079,280.294 409.5,282C 413.73,285.893 417.563,290.059 421,294.5C 421.667,300.167 421.667,305.833 421,311.5C 419.972,313.844 419.306,316.177 419,318.5C 427.434,323.272 435.6,328.438 443.5,334C 446.289,334.241 448.956,334.908 451.5,336C 453.5,338.333 455.5,340.667 457.5,343C 483.355,340.016 504.521,348.516 521,368.5C 524.138,373.271 527.638,377.771 531.5,382C 535.309,385.238 539.642,387.404 544.5,388.5C 544.666,393.844 544.499,399.177 544,404.5C 538.833,409.667 533.667,414.833 528.5,420C 518.833,420.667 509.167,420.667 499.5,420C 497.274,418.773 495.774,416.939 495,414.5C 492.689,407.254 490.689,399.921 489,392.5C 485.952,384.287 480.452,378.621 472.5,375.5C 474.114,382.083 474.614,388.749 474,395.5C 467.074,414.423 454.574,428.257 436.5,437C 435.101,438.062 434.101,439.395 433.5,441C 434.871,448.189 436.371,455.356 438,462.5C 441.058,470.283 444.392,477.95 448,485.5C 449.638,494.059 448.304,502.059 444,509.5C 434.63,519.202 425.63,529.202 417,539.5C 410.472,547.717 405.139,556.717 401,566.5C 396.563,569.041 392.063,569.041 387.5,566.5C 387.31,571.595 385.644,576.095 382.5,580C 371.477,580.878 360.811,579.378 350.5,575.5C 348.106,568.447 350.106,562.947 356.5,559C 369.833,551.006 381.333,540.84 391,528.5C 394.4,522.371 397.234,516.037 399.5,509.5C 395.514,510.329 391.514,511.163 387.5,512C 381.296,516.771 374.296,519.271 366.5,519.5C 367.36,526.092 365.36,531.592 360.5,536C 350.48,541.133 339.98,543.3 329,542.5C 328.333,538.833 328.333,535.167 329,531.5C 333.086,525.328 336.086,518.661 338,511.5C 344.135,504.364 350.635,497.531 357.5,491C 368.747,489.362 379.747,486.696 390.5,483C 380.63,472.799 371.13,462.299 362,451.5C 356.998,444.49 352.832,436.99 349.5,429C 340.472,429.411 331.472,430.411 322.5,432C 323.573,435.12 324.573,438.287 325.5,441.5C 326.628,442.262 327.795,442.929 329,443.5C 329.667,449.167 329.667,454.833 329,460.5C 325.692,464.327 321.526,465.494 316.5,464C 314,462.167 311.5,460.333 309,458.5C 309.444,449.275 307.944,440.441 304.5,432C 298.522,431.852 292.688,431.018 287,429.5C 283.697,430.184 280.864,431.684 278.5,434C 268.833,434.667 259.167,434.667 249.5,434C 247.196,429.835 245.863,425.335 245.5,420.5C 239.876,419.594 234.209,418.928 228.5,418.5C 227.3,421.828 224.967,424.328 221.5,426C 215.389,433.056 209.889,440.556 205,448.5C 205.088,451.642 206.588,454.142 209.5,456C 213.624,456.645 217.291,458.145 220.5,460.5C 225.688,460.585 231.021,460.751 236.5,461C 245.124,464.96 250.958,471.46 254,480.5C 255.973,490.962 251.64,494.629 241,491.5C 225.341,491.544 210.508,488.044 196.5,481C 195,479.5 193.5,478 192,476.5C 189.447,481.061 186.114,485.061 182,488.5C 175.137,501.232 169.637,514.566 165.5,528.5C 162.763,529.812 159.929,530.812 157,531.5C 157.731,535.677 157.564,539.844 156.5,544C 152.835,545.497 149.502,547.497 146.5,550C 136.144,550.704 125.811,550.537 115.5,549.5C 115.008,540.635 119.008,534.635 127.5,531.5C 128.223,528.93 129.39,526.597 131,524.5C 133.963,522.539 136.629,520.206 139,517.5C 143.281,506.939 148.614,496.939 155,487.5C 156,480.5 157,473.5 158,466.5C 160.507,459.49 163.007,452.49 165.5,445.5C 162.803,436.675 161.969,427.675 163,418.5C 166.312,415.344 169.979,412.677 174,410.5C 174.75,402.584 176.917,395.084 180.5,388C 170.401,368.931 172.901,351.764 188,336.5C 188.208,332.082 188.874,327.749 190,323.5C 191.154,322.257 192.488,321.257 194,320.5C 195.124,308.611 196.291,296.778 197.5,285C 192.235,279.737 187.735,273.904 184,267.5C 178.115,255.064 172.782,242.397 168,229.5C 165.125,226.537 161.625,224.704 157.5,224C 153.607,220.61 150.273,216.777 147.5,212.5C 142.42,207.92 136.92,203.92 131,200.5C 131.045,195.57 130.045,190.903 128,186.5C 126.626,179.622 128.626,173.956 134,169.5C 135.333,166.167 136.667,162.833 138,159.5C 144.592,156.766 151.092,157.099 157.5,160.5C 159.586,158.081 162.253,157.081 165.5,157.5C 169.571,157.798 173.405,158.798 177,160.5C 184.816,159.784 192.649,159.284 200.5,159C 203.774,155.784 207.774,154.617 212.5,155.5C 212.055,152.635 212.722,150.135 214.5,148C 224.228,147.109 233.894,147.443 243.5,149C 245.359,150.558 246.859,152.391 248,154.5C 250.428,153.37 252.595,151.87 254.5,150C 258.167,149.333 261.833,149.333 265.5,150C 266.989,154.611 266.656,159.111 264.5,163.5C 267.242,168.606 266.908,173.606 263.5,178.5C 269.103,181.95 272.603,186.95 274,193.5C 275,194.5 276,195.5 277,196.5C 280.278,204.616 282.778,212.95 284.5,221.5C 288.7,220.863 292.866,220.196 297,219.5C 304.586,208.61 311.253,197.277 317,185.5C 318.8,183.683 320.966,182.516 323.5,182C 324.337,180.989 324.67,179.822 324.5,178.5C 318.66,176.21 316.993,172.044 319.5,166C 318.278,163.058 316.445,160.558 314,158.5C 313.064,155.208 313.564,152.208 315.5,149.5C 312.578,148.202 309.578,147.202 306.5,146.5C 305.753,139.238 309.086,135.238 316.5,134.5C 318.606,126.734 317.44,119.734 313,113.5C 312.333,110.5 312.333,107.5 313,104.5C 313.414,104.043 313.914,103.709 314.5,103.5C 315.497,96.5316 315.83,89.5316 315.5,82.5C 319.839,81.8461 323.673,82.8461 327,85.5C 329.737,84.3895 332.571,84.2228 335.5,85C 339.753,87.7097 343.92,90.543 348,93.5C 349.118,91.2346 349.951,88.9013 350.5,86.5C 356.73,87.199 362.063,85.5323 366.5,81.5 Z"/></g>
<g><path style="opacity:1" fill="#c1c1c1" d="M 370.5,85.5 C 371.097,85.7352 371.43,86.2352 371.5,87C 368.266,91.2653 369.266,93.432 374.5,93.5C 373.79,96.8595 375.124,98.6929 378.5,99C 376.246,100.054 375.913,101.554 377.5,103.5C 375.709,105.46 373.543,106.793 371,107.5C 370.086,116.066 365.753,122.066 358,125.5C 357.06,127.942 355.894,130.275 354.5,132.5C 351.847,134.155 349.514,136.155 347.5,138.5C 345.958,139.747 344.458,139.747 343,138.5C 342.709,136.217 343.209,134.05 344.5,132C 344.241,130.739 343.574,129.739 342.5,129C 345.281,124.14 347.448,118.973 349,113.5C 349.72,111.888 349.554,110.388 348.5,109C 349.416,108.626 350.25,108.126 351,107.5C 351.705,103.092 352.705,98.7591 354,94.5C 355.32,94.201 356.82,94.0343 358.5,94C 360.826,91.5864 363.659,90.0864 367,89.5C 368.402,88.3551 369.569,87.0217 370.5,85.5 Z"/></g>
<g><path style="opacity:1" fill="#c7c8c7" d="M 322.5,92.5 C 321.549,93.9187 321.216,95.5853 321.5,97.5C 320.2,94.9759 320.2,92.3092 321.5,89.5C 322.386,90.325 322.719,91.325 322.5,92.5 Z"/></g>
<g><path style="opacity:1" fill="#1d1d1d" d="M 321.5,97.5 C 321.216,95.5853 321.549,93.9187 322.5,92.5C 325.841,90.5386 329.508,90.0386 333.5,91C 338.167,94.3333 342.833,97.6667 347.5,101C 349.155,102.444 349.822,104.278 349.5,106.5C 348.5,106.5 347.5,106.5 346.5,106.5C 346.357,108.262 346.691,109.929 347.5,111.5C 345.536,117.306 343.203,122.973 340.5,128.5C 340.529,130.029 341.196,131.196 342.5,132C 341.54,133.419 340.707,134.919 340,136.5C 336.043,125.548 330.043,115.881 322,107.5C 321.502,104.183 321.335,100.85 321.5,97.5 Z"/></g>
<g><path style="opacity:1" fill="#fec90d" d="M 317.5,109.5 C 318.251,108.427 319.251,108.26 320.5,109C 326.441,115.608 331.608,122.775 336,130.5C 336.991,132.447 337.325,134.447 337,136.5C 332.151,126.174 325.651,117.174 317.5,109.5 Z"/></g>
<g><path style="opacity:1" fill="#1d1e1d" d="M 370.5,116.5 C 373.676,118.179 375.343,120.846 375.5,124.5C 375.064,127.179 374.564,129.845 374,132.5C 370.534,136.33 369.701,140.664 371.5,145.5C 363.856,145.59 356.523,144.09 349.5,141C 350.995,138.008 353.328,135.841 356.5,134.5C 357.894,132.275 359.06,129.942 360,127.5C 363.732,125.42 367.065,122.753 370,119.5C 370.483,118.552 370.649,117.552 370.5,116.5 Z"/></g>
<g><path style="opacity:1" fill="#fec90d" d="M 322.5,121.5 C 324.64,125.103 326.807,128.77 329,132.5C 330.207,140.976 328.374,141.81 323.5,135C 322.655,130.539 322.322,126.039 322.5,121.5 Z"/></g>
<g><path style="opacity:1" fill="#fec90d" d="M 339.5,139.5 C 345.361,141.925 351.361,144.091 357.5,146C 362.437,147.085 367.437,147.752 372.5,148C 370.545,150.071 368.212,150.738 365.5,150C 358.742,148.31 352.075,146.31 345.5,144C 342.823,143.186 340.823,141.686 339.5,139.5 Z"/></g>
<g><path style="opacity:1" fill="#e6d2a9" d="M 323.5,146.5 C 326.962,145.518 330.629,145.185 334.5,145.5C 332.507,155.487 328.84,164.82 323.5,173.5C 322.119,173 321.453,172 321.5,170.5C 322.286,168.429 323.619,166.762 325.5,165.5C 324.345,164.05 322.845,163.05 321,162.5C 321.019,160.893 321.185,159.226 321.5,157.5C 319.052,157.99 317.385,157.157 316.5,155C 318.112,152.384 320.112,150.05 322.5,148C 321.288,146.893 321.621,146.393 323.5,146.5 Z"/></g>
<g><path style="opacity:1" fill="#000000" d="M 323.5,146.5 C 325.199,146.34 326.866,146.506 328.5,147C 327.069,147.465 325.903,148.299 325,149.5C 324.487,148.473 323.987,147.473 323.5,146.5 Z"/></g>
<g><path style="opacity:1" fill="#fec90d" d="M 336.5,148.5 C 338.14,149.32 339.807,150.153 341.5,151C 339.282,158.317 336.282,165.317 332.5,172C 330.635,173.301 328.635,173.635 326.5,173C 330.805,165.225 334.138,157.058 336.5,148.5 Z"/></g>
<g><path style="opacity:1" fill="#aeaeae" d="M 218.5,152.5 C 225.574,152.161 232.574,152.661 239.5,154C 242.657,157.315 245.323,160.981 247.5,165C 243.797,166.851 240.13,168.685 236.5,170.5C 231.7,168.923 226.7,167.423 221.5,166C 218.225,163.939 217.892,161.606 220.5,159C 218.081,157.253 217.415,155.086 218.5,152.5 Z"/></g>
<g><path style="opacity:1" fill="#a94400" d="M 349.5,153.5 C 357.981,153.313 361.981,157.313 361.5,165.5C 354.542,164.542 350.542,160.542 349.5,153.5 Z"/></g>
<g><path style="opacity:1" fill="#d5d6d5" d="M 258.5,154.5 C 259.675,154.281 260.675,154.614 261.5,155.5C 260.336,159.507 258.336,163.007 255.5,166C 254.451,166.492 253.451,166.326 252.5,165.5C 250.679,163.757 248.679,162.257 246.5,161C 251.288,160.109 255.288,157.942 258.5,154.5 Z"/></g>
<g><path style="opacity:1" fill="#eddcb7" d="M 343.5,151.5 C 344.833,151.5 346.167,151.5 347.5,151.5C 347.739,153.467 347.406,155.301 346.5,157C 349.039,159.042 351.039,161.542 352.5,164.5C 347.621,166.772 342.621,168.772 337.5,170.5C 337.167,170.167 336.833,169.833 336.5,169.5C 337.942,166.95 339.108,164.284 340,161.5C 341.491,159.996 343.324,159.163 345.5,159C 344.207,158.51 342.873,158.343 341.5,158.5C 342.167,156.167 342.833,153.833 343.5,151.5 Z"/></g>
<g><path style="opacity:1" fill="#fefffe" d="M 207.5,160.5 C 210.5,160.5 213.5,160.5 216.5,160.5C 216.317,162.936 216.984,165.103 218.5,167C 224.5,169 230.5,171 236.5,173C 235.115,176.679 234.282,180.512 234,184.5C 232.636,185.696 231.136,186.696 229.5,187.5C 224.53,186.771 219.53,186.271 214.5,186C 213.674,180.837 211.841,176.004 209,171.5C 205.498,168.534 202.665,169.034 200.5,173C 201.816,178.313 204.816,182.313 209.5,185C 196.789,185.625 184.122,185.125 171.5,183.5C 172.241,177.529 172.575,171.529 172.5,165.5C 183.166,165.067 193.833,164.567 204.5,164C 205.71,162.961 206.71,161.794 207.5,160.5 Z"/></g>
<g><path style="opacity:1" fill="#f5f5f5" d="M 150.5,187.5 C 144.178,187.337 138.844,185.004 134.5,180.5C 138.232,175.37 141.232,169.704 143.5,163.5C 144.293,163.069 145.127,162.735 146,162.5C 150.534,164.921 155.367,165.921 160.5,165.5C 160.554,171.956 159.72,178.29 158,184.5C 156.355,184.693 154.521,184.86 152.5,185C 151.619,185.708 150.953,186.542 150.5,187.5 Z"/></g>
<g><path style="opacity:1" fill="#870014" d="M 164.5,162.5 C 166.17,162.751 167.67,163.418 169,164.5C 169.608,170.874 169.275,177.207 168,183.5C 166.301,182.594 164.467,182.261 162.5,182.5C 162.915,175.76 163.581,169.094 164.5,162.5 Z"/></g>
<g><path style="opacity:1" fill="#ec1c23" d="M 248.5,166.5 C 249.922,166.709 251.255,167.209 252.5,168C 242.392,169.017 238.892,174.517 242,184.5C 247.951,186.692 252.951,185.359 257,180.5C 258.221,181.774 259.054,183.274 259.5,185C 256.994,190.104 252.994,193.604 247.5,195.5C 247.302,192.215 245.635,190.548 242.5,190.5C 242.833,186.167 240.833,184.167 236.5,184.5C 236.384,180.298 237.217,176.298 239,172.5C 241.848,169.848 245.015,167.848 248.5,166.5 Z"/></g>
<g><path style="opacity:1" fill="#3f47cc" d="M 353.5,166.5 C 356.785,166.736 359.785,167.736 362.5,169.5C 363.684,173.557 365.351,177.39 367.5,181C 357.851,182.498 348.184,183.498 338.5,184C 337.167,183.333 335.833,182.667 334.5,182C 335.432,178.915 336.099,175.748 336.5,172.5C 342.532,171.269 348.199,169.269 353.5,166.5 Z"/></g>
<g><path style="opacity:1" fill="#000000" d="M 144.5,167.5 C 149.668,168.339 150.668,170.839 147.5,175C 139.695,175.222 138.695,172.722 144.5,167.5 Z"/></g>
<g><path style="opacity:1" fill="#d5d6d5" d="M 259.5,169.5 C 260.465,170.721 260.298,172.054 259,173.5C 256.131,176.704 252.965,179.537 249.5,182C 247.866,182.494 246.199,182.66 244.5,182.5C 244.107,179.07 244.773,175.904 246.5,173C 251.042,172.133 255.375,170.967 259.5,169.5 Z"/></g>
<g><path style="opacity:1" fill="#fefffe" d="M 203.5,171.5 C 205.103,171.312 206.437,171.812 207.5,173C 205.833,173.667 204.167,173.667 202.5,173C 203.056,172.617 203.389,172.117 203.5,171.5 Z"/></g>
<g><path style="opacity:1" fill="#fef200" d="M 331.5,174.5 C 332.693,174.97 333.36,175.97 333.5,177.5C 332.124,181.206 330.791,180.872 329.5,176.5C 330.243,175.818 330.909,175.151 331.5,174.5 Z"/></g>
<g><path style="opacity:1" fill="#c7c8c7" d="M 134.5,180.5 C 138.844,185.004 144.178,187.337 150.5,187.5C 150.286,189.144 150.62,190.644 151.5,192C 147.329,191.958 143.163,191.458 139,190.5C 134.92,188.032 133.42,184.699 134.5,180.5 Z"/></g>
<g><path style="opacity:1" fill="#870014" d="M 371.5,182.5 C 372.675,182.281 373.675,182.614 374.5,183.5C 376.333,187.167 378.167,190.833 380,194.5C 379.843,213.486 373.51,230.152 361,244.5C 359.395,247.274 357.228,247.94 354.5,246.5C 359.527,239.973 364.36,233.307 369,226.5C 374.023,215.001 376.356,203.001 376,190.5C 375.047,188.545 373.713,186.878 372,185.5C 371.517,184.552 371.351,183.552 371.5,182.5 Z"/></g>
<g><path style="opacity:1" fill="#e71c23" d="M 357.5,195.5 C 354.795,193.488 352.128,191.488 349.5,189.5C 347.26,188.736 344.927,187.902 342.5,187C 342.833,186.667 343.167,186.333 343.5,186C 351.846,184.943 360.179,184.277 368.5,184C 375.267,191.192 376.434,199.359 372,208.5C 366.907,204.245 362.074,199.912 357.5,195.5 Z"/></g>
<g><path style="opacity:1" fill="#870014" d="M 161.5,184.5 C 162.833,184.5 164.167,184.5 165.5,184.5C 165.808,186.924 165.474,189.257 164.5,191.5C 162.459,190.764 160.459,189.931 158.5,189C 160.141,187.871 161.141,186.371 161.5,184.5 Z"/></g>
<g><path style="opacity:1" fill="#fec90d" d="M 333.5,184.5 C 335.337,184.639 335.67,185.306 334.5,186.5C 332.167,187.667 329.833,188.833 327.5,190C 325.741,190.798 324.074,190.631 322.5,189.5C 326.15,187.625 329.817,185.958 333.5,184.5 Z"/></g>
<g><path style="opacity:1" fill="#fefffe" d="M 377.5,184.5 C 379.708,185.894 381.208,187.894 382,190.5C 385.065,199.448 384.398,208.115 380,216.5C 380.811,211.23 381.645,205.897 382.5,200.5C 382.368,194.626 380.702,189.293 377.5,184.5 Z"/></g>
<g><path style="opacity:1" fill="#fec90d" d="M 170.5,189.5 C 169.994,187.895 169.327,187.561 168.5,188.5C 167.732,189.263 167.232,190.263 167,191.5C 166.505,189.527 166.338,187.527 166.5,185.5C 168.5,185.833 170.5,186.167 172.5,186.5C 172.663,188.857 172.497,191.19 172,193.5C 171.79,191.942 171.29,190.609 170.5,189.5 Z"/></g>
<g><path style="opacity:1" fill="#fec90d" d="M 153.5,186.5 C 154.649,186.791 155.316,187.624 155.5,189C 154.706,192.122 153.706,192.122 152.5,189C 152.743,188.098 153.077,187.265 153.5,186.5 Z"/></g>
<g><path style="opacity:1" fill="#870014" d="M 219.5,195.5 C 204.326,195.784 188.992,195.117 173.5,193.5C 173.192,191.076 173.526,188.743 174.5,186.5C 189.103,188.078 203.769,189.078 218.5,189.5C 218.205,191.735 218.539,193.735 219.5,195.5 Z"/></g>
<g><path style="opacity:1" fill="#d41e21" d="M 238.5,193.5 C 238.167,193.5 237.833,193.5 237.5,193.5C 236.298,191.608 234.965,189.774 233.5,188C 240.207,185.208 241.874,187.041 238.5,193.5 Z"/></g>
<g><path style="opacity:1" fill="#acacac" d="M 282.5,249.5 C 282.859,251.371 283.859,252.871 285.5,254C 281.906,255.741 278.239,255.908 274.5,254.5C 273.059,255.304 271.559,255.971 270,256.5C 265.123,256.44 260.289,256.44 255.5,256.5C 254.5,256.333 253.5,256.167 252.5,256C 253.888,255.111 253.722,254.611 252,254.5C 249.285,255.493 246.785,254.993 244.5,253C 247.167,252.333 247.167,251.667 244.5,251C 247.584,245.666 250.251,240.166 252.5,234.5C 249.854,234.892 247.354,234.892 245,234.5C 244.713,232.109 244.213,229.776 243.5,227.5C 246.621,223.95 247.121,219.95 245,215.5C 244.768,216.737 244.268,217.737 243.5,218.5C 243.172,216.609 242.505,215.109 241.5,214C 243.65,211.366 243.316,208.033 240.5,204C 240.833,203.833 241.167,203.667 241.5,203.5C 245.087,207.242 247.587,211.576 249,216.5C 249.333,216.167 249.667,215.833 250,215.5C 252.818,219.424 255.818,219.424 259,215.5C 261.667,216.833 264.333,216.833 267,215.5C 268.187,213.956 268.52,212.289 268,210.5C 263.159,204.669 257.326,200.169 250.5,197C 255.291,194.373 259.291,190.873 262.5,186.5C 263.281,187.729 263.781,189.062 264,190.5C 264.333,189.833 264.667,189.167 265,188.5C 266.65,189.891 267.15,191.391 266.5,193C 267.844,195.787 269.677,198.287 272,200.5C 275.896,210.544 278.729,220.877 280.5,231.5C 277.231,236.209 276.398,241.209 278,246.5C 279.129,248.141 280.629,249.141 282.5,249.5 Z"/></g>
<g><path style="opacity:1" fill="#e2e2e2" d="M 343.5,191.5 C 341.777,193.218 339.777,194.551 337.5,195.5C 335.66,193.832 333.66,192.332 331.5,191C 335.954,186.184 339.954,186.351 343.5,191.5 Z"/></g>
<g><path style="opacity:1" fill="#6c0b12" d="M 170.5,189.5 C 170.719,190.675 170.386,191.675 169.5,192.5C 168.571,191.311 168.238,189.978 168.5,188.5C 169.327,187.561 169.994,187.895 170.5,189.5 Z"/></g>
<g><path style="opacity:1" fill="#fec90d" d="M 225.5,195.5 C 223.5,196.833 221.5,196.833 219.5,195.5C 219.5,193.5 219.5,191.5 219.5,189.5C 224.5,188.5 226.5,190.5 225.5,195.5 Z"/></g>
<g><path style="opacity:1" fill="#cc1f20" d="M 235.5,196.5 C 234.199,197.882 233.366,199.548 233,201.5C 232.259,202.641 231.425,202.641 230.5,201.5C 229.386,200.277 229.219,198.944 230,197.5C 231,196.167 232,196.167 233,197.5C 233.167,197 233.333,196.5 233.5,196C 232.303,194.48 230.803,193.313 229,192.5C 228.517,191.552 228.351,190.552 228.5,189.5C 229.873,189.343 231.207,189.51 232.5,190C 233.731,192.166 234.731,194.333 235.5,196.5 Z"/></g>
<g><path style="opacity:1" fill="#fec90d" d="M 349.5,189.5 C 352.128,191.488 354.795,193.488 357.5,195.5C 357.5,196.833 357.5,198.167 357.5,199.5C 355.167,201.167 353.167,203.167 351.5,205.5C 350.127,205.657 348.793,205.49 347.5,205C 344.271,201.601 340.938,198.435 337.5,195.5C 339.777,194.551 341.777,193.218 343.5,191.5C 345.297,190.27 347.297,189.604 349.5,189.5 Z"/></g>
<g><path style="opacity:1" fill="#870014" d="M 158.5,191.5 C 164.309,193.619 170.309,195.119 176.5,196C 189.152,196.944 201.818,197.61 214.5,198C 198.799,198.412 183.132,198.078 167.5,197C 166.39,199.737 166.223,202.571 167,205.5C 169.092,208.681 171.425,211.681 174,214.5C 174.667,215.167 174.667,215.833 174,216.5C 168.968,211.133 163.635,206.133 158,201.5C 157.457,198.132 157.624,194.799 158.5,191.5 Z"/></g>
<g><path style="opacity:1" fill="#40100c" d="M 221.5,190.5 C 224.956,191.536 225.29,193.203 222.5,195.5C 220.296,194.218 219.962,192.551 221.5,190.5 Z"/></g>
<g><path style="opacity:1" fill="#e61c23" d="M 326.5,251.5 C 327.94,245.886 330.107,240.553 333,235.5C 339.888,231.943 339.721,229.943 332.5,229.5C 333.765,228.521 335.099,227.521 336.5,226.5C 335.635,225.417 334.635,225.251 333.5,226C 326.206,231.737 320.706,238.904 317,247.5C 315.167,250.667 312.667,253.167 309.5,255C 303.612,256.794 297.612,257.461 291.5,257C 287.496,254.529 285.496,251.029 285.5,246.5C 285.683,240.143 288.016,234.809 292.5,230.5C 293.791,230.737 294.791,230.404 295.5,229.5C 297.027,229.573 298.027,228.906 298.5,227.5C 305.807,217.575 312.64,207.242 319,196.5C 322.044,192.966 325.877,191.466 330.5,192C 339.371,199.204 347.205,207.371 354,216.5C 356.373,222.619 358.539,228.786 360.5,235C 357.5,238.667 354.5,242.333 351.5,246C 346.983,246.263 342.649,247.263 338.5,249C 335.816,252.506 333.816,256.34 332.5,260.5C 329.748,257.996 327.748,254.996 326.5,251.5 Z"/></g>
<g><path style="opacity:1" fill="#870014" d="M 225.5,195.5 C 226.268,194.737 226.768,193.737 227,192.5C 227.5,193.5 228,194.5 228.5,195.5C 227.386,196.776 226.386,196.776 225.5,195.5 Z"/></g>
<g><path style="opacity:1" fill="#ec1c23" d="M 238.5,193.5 C 246.029,192.526 246.195,193.193 239,195.5C 238.536,194.906 238.369,194.239 238.5,193.5 Z"/></g>
<g><path style="opacity:1" fill="#a7a7a7" d="M 347.5,191.5 C 350.445,191.989 352.778,193.489 354.5,196C 352.093,198.285 349.593,200.451 347,202.5C 345.167,200.667 343.333,198.833 341.5,197C 343.396,194.932 345.396,193.099 347.5,191.5 Z"/></g>
<g><path style="opacity:1" fill="#fefffe" d="M 138.5,196.5 C 137.602,195.842 136.602,195.176 135.5,194.5C 137.195,193.708 138.862,194.042 140.5,195.5C 140.043,196.298 139.376,196.631 138.5,196.5 Z"/></g>
<g><path style="opacity:1" fill="#fec90d" d="M 152.5,193.5 C 154.337,193.639 154.67,194.306 153.5,195.5C 152.702,195.043 152.369,194.376 152.5,193.5 Z"/></g>
<g><path style="opacity:1" fill="#ec1c23" d="M 237.5,193.5 C 237.5,194.5 237.5,195.5 237.5,196.5C 236.833,196.5 236.167,196.5 235.5,196.5C 235.285,194.821 235.952,193.821 237.5,193.5 Z"/></g>
<g><path style="opacity:1" fill="#c7c8c7" d="M 138.5,196.5 C 142.647,197.325 146.981,197.825 151.5,198C 146.321,202.523 141.321,202.189 136.5,197C 137.094,196.536 137.761,196.369 138.5,196.5 Z"/></g>
<g><path style="opacity:1" fill="#c81f20" d="M 237.5,196.5 C 240.839,198.147 241.173,200.147 238.5,202.5C 236.261,200.867 235.928,198.867 237.5,196.5 Z"/></g>
<g><path style="opacity:1" fill="#ec1c23" d="M 246.5,198.5 C 254.112,200.832 260.778,205.332 266.5,212C 265.033,214.186 263.033,214.852 260.5,214C 256.707,208.041 252.041,202.874 246.5,198.5 Z"/></g>
<g><path style="opacity:1" fill="#ec1c23" d="M 242.5,198.5 C 247.791,201.957 252.291,206.29 256,211.5C 257.249,215.396 256.083,216.73 252.5,215.5C 250.076,210.314 246.909,205.647 243,201.5C 242.517,200.552 242.351,199.552 242.5,198.5 Z"/></g>
<g><path style="opacity:1" fill="#c7c8c7" d="M 177.5,200.5 C 181.487,203.392 185.82,205.725 190.5,207.5C 190.53,208.497 190.03,209.164 189,209.5C 182.561,207.186 176.061,205.186 169.5,203.5C 169.33,202.178 169.663,201.011 170.5,200C 172.797,199.982 175.131,200.149 177.5,200.5 Z"/></g>
<g><path style="opacity:1" fill="#ec1c23" d="M 400.5,255.5 C 402.505,250.867 401.172,247.534 396.5,245.5C 394.787,244.365 394.12,242.698 394.5,240.5C 395.645,238.047 395.312,235.713 393.5,233.5C 391.423,229.682 389.09,226.015 386.5,222.5C 388.341,220.151 389.674,217.485 390.5,214.5C 392.074,212.898 392.741,210.898 392.5,208.5C 393.833,206.5 393.833,204.5 392.5,202.5C 392.351,201.448 392.517,200.448 393,199.5C 400.606,212.103 408.606,224.436 417,236.5C 423.532,246.832 421.199,254.832 410,260.5C 407.831,256.81 404.664,255.143 400.5,255.5 Z"/></g>
<g><path style="opacity:1" fill="#fefffe" d="M 177.5,200.5 C 191.841,200.938 206.174,201.604 220.5,202.5C 217.975,209.57 213.975,215.57 208.5,220.5C 201.164,218.667 196.164,214.167 193.5,207C 192.251,206.26 191.251,206.427 190.5,207.5C 185.82,205.725 181.487,203.392 177.5,200.5 Z"/></g>
<g><path style="opacity:1" fill="#c5c5c5" d="M 357.5,199.5 C 362.126,202.954 366.626,206.621 371,210.5C 371.484,212.913 371.15,215.246 370,217.5C 369.584,215.45 368.417,214.116 366.5,213.5C 365.177,211.238 363.843,208.904 362.5,206.5C 359.798,208.22 357.132,209.887 354.5,211.5C 352.75,210.258 351.083,208.758 349.5,207C 350.416,206.722 351.082,206.222 351.5,205.5C 353.167,203.167 355.167,201.167 357.5,199.5 Z"/></g>
<g><path style="opacity:1" fill="#870014" d="M 224.5,201.5 C 227.524,201.364 229.024,202.698 229,205.5C 225.213,210.956 221.046,216.123 216.5,221C 215.241,221.982 213.908,222.315 212.5,222C 217.911,216.015 221.911,209.182 224.5,201.5 Z"/></g>
<g><path style="opacity:1" fill="#cf1f21" d="M 392.5,202.5 C 393.833,204.5 393.833,206.5 392.5,208.5C 390.72,209.99 390.054,211.99 390.5,214.5C 389.674,217.485 388.341,220.151 386.5,222.5C 384.611,221.599 383.278,220.099 382.5,218C 384.168,212.296 385.835,206.629 387.5,201C 386.229,196.521 384.562,192.188 382.5,188C 384.908,188.815 387.074,190.315 389,192.5C 390.184,195.942 391.35,199.275 392.5,202.5 Z"/></g>
<g><path style="opacity:1" fill="#870014" d="M 153.5,202.5 C 165.079,213.915 177.412,224.415 190.5,234C 209.792,243.978 229.792,252.311 250.5,259C 262.898,259.882 275.231,259.382 287.5,257.5C 291.267,259.092 295.267,259.925 299.5,260C 274.29,265.102 249.623,263.102 225.5,254C 213.333,249.055 201.333,243.722 189.5,238C 182.985,233.241 176.652,228.241 170.5,223C 167.785,221.092 164.785,219.759 161.5,219C 157.35,215.005 153.683,210.672 150.5,206C 151.071,204.401 152.071,203.234 153.5,202.5 Z"/></g>
<g><path style="opacity:1" fill="#fefffe" d="M 243.5,218.5 C 242.942,221.344 242.275,224.178 241.5,227C 242.223,230.837 242.889,234.67 243.5,238.5C 245.582,238.528 247.416,237.861 249,236.5C 249.167,236.833 249.333,237.167 249.5,237.5C 246.221,242.403 243.221,247.403 240.5,252.5C 234.615,249.724 228.615,247.224 222.5,245C 221.62,243.644 221.286,242.144 221.5,240.5C 222.648,236.019 222.815,231.352 222,226.5C 221.184,225.177 220.017,224.511 218.5,224.5C 224.721,217.733 230.221,210.4 235,202.5C 237.14,203.728 238.807,205.395 240,207.5C 239.392,210.847 239.559,214.18 240.5,217.5C 241.325,218.386 242.325,218.719 243.5,218.5 Z"/></g>
<g><path style="opacity:1" fill="#fefffe" d="M 366.5,213.5 C 364.205,216.297 361.705,218.964 359,221.5C 357.531,218.416 355.698,215.583 353.5,213C 354.056,212.617 354.389,212.117 354.5,211.5C 357.132,209.887 359.798,208.22 362.5,206.5C 363.843,208.904 365.177,211.238 366.5,213.5 Z"/></g>
<g><path style="opacity:1" fill="#000000" d="M 392.5,208.5 C 392.741,210.898 392.074,212.898 390.5,214.5C 390.054,211.99 390.72,209.99 392.5,208.5 Z"/></g>
<g><path style="opacity:1" fill="#fefffe" d="M 183.5,214.5 C 186.578,215.202 189.578,216.202 192.5,217.5C 196.622,222.851 201.955,226.185 208.5,227.5C 208.421,228.93 208.754,230.264 209.5,231.5C 207.048,232.314 204.715,231.814 202.5,230C 196.833,226.333 191.167,222.667 185.5,219C 183.963,217.89 183.297,216.39 183.5,214.5 Z"/></g>
<g><path style="opacity:1" fill="#fec90d" d="M 366.5,216.5 C 368.938,219.224 369.105,222.224 367,225.5C 364.206,226.846 361.706,226.346 359.5,224C 362.039,221.63 364.372,219.13 366.5,216.5 Z"/></g>
<g><path style="opacity:1" fill="#fefffe" d="M 378.5,218.5 C 382.49,222.495 386.156,226.829 389.5,231.5C 387.183,233.316 385.016,235.316 383,237.5C 380.167,234 377.333,230.5 374.5,227C 376.246,224.341 377.58,221.508 378.5,218.5 Z"/></g>
<g><path style="opacity:1" fill="#bbbbbb" d="M 218.5,224.5 C 220.017,224.511 221.184,225.177 222,226.5C 222.815,231.352 222.648,236.019 221.5,240.5C 220.596,241.209 220.263,242.209 220.5,243.5C 218.418,243.528 216.584,242.861 215,241.5C 214.807,236.25 214.307,231.083 213.5,226C 215.154,225.392 216.821,224.892 218.5,224.5 Z"/></g>
<g><path style="opacity:1" fill="#a21717" d="M 291.5,227.5 C 287.146,233.249 284.146,239.583 282.5,246.5C 278.737,244.308 277.903,241.308 280,237.5C 281.91,232.091 285.41,228.091 290.5,225.5C 291.298,225.957 291.631,226.624 291.5,227.5 Z"/></g>
<g><path style="opacity:1" fill="#ac9464" d="M 298.5,227.5 C 298.027,228.906 297.027,229.573 295.5,229.5C 294.355,228.207 294.689,227.041 296.5,226C 297.816,225.472 298.483,225.972 298.5,227.5 Z"/></g>
<g><path style="opacity:1" fill="#fef200" d="M 291.5,227.5 C 292.404,228.209 292.737,229.209 292.5,230.5C 288.016,234.809 285.683,240.143 285.5,246.5C 284.9,247.9 283.9,248.9 282.5,249.5C 282.5,248.5 282.5,247.5 282.5,246.5C 284.146,239.583 287.146,233.249 291.5,227.5 Z"/></g>
<g><path style="opacity:1" fill="#fefffe" d="M 360.5,227.5 C 361.766,228.09 363.099,228.59 364.5,229C 363.299,229.903 362.465,231.069 362,232.5C 361.392,230.846 360.892,229.179 360.5,227.5 Z"/></g>
<g><path style="opacity:1" fill="#c81019" d="M 332.5,229.5 C 339.721,229.943 339.888,231.943 333,235.5C 330.107,240.553 327.94,245.886 326.5,251.5C 325.427,252.251 325.26,253.251 326,254.5C 328.213,257.095 330.047,259.928 331.5,263C 331.37,264.059 330.87,264.892 330,265.5C 319.34,258.851 317.34,250.184 324,239.5C 326.614,235.91 329.448,232.576 332.5,229.5 Z"/></g>
<g><path style="opacity:1" fill="#fefffe" d="M 372.5,230.5 C 373.117,230.611 373.617,230.944 374,231.5C 376.149,239.43 377.982,247.43 379.5,255.5C 379.215,259.983 377.715,263.983 375,267.5C 372.294,258.993 369.461,250.493 366.5,242C 368.646,238.207 370.646,234.374 372.5,230.5 Z"/></g>
<g><path style="opacity:1" fill="#870014" d="M 175.5,232.5 C 179.013,234.757 182.347,237.257 185.5,240C 190.545,261.464 202.212,278.131 220.5,290C 226.03,290.914 231.363,290.247 236.5,288C 250.402,282.049 263.735,275.049 276.5,267C 277.5,266.333 278.5,266.333 279.5,267C 265.227,278.307 249.56,287.307 232.5,294C 230.167,294.667 227.833,294.667 225.5,294C 213.451,289.402 203.284,282.235 195,272.5C 187.066,259.862 180.566,246.529 175.5,232.5 Z"/></g>
<g><path style="opacity:1" fill="#c81019" d="M 376.5,233.5 C 378.148,235.429 379.815,237.429 381.5,239.5C 381.081,240.672 380.415,241.672 379.5,242.5C 378.296,239.556 377.296,236.556 376.5,233.5 Z"/></g>
<g><path style="opacity:1" fill="#1d1d1d" d="M 393.5,233.5 C 395.312,235.713 395.645,238.047 394.5,240.5C 393.118,243.411 393.452,246.245 395.5,249C 391.689,251.478 388.522,254.645 386,258.5C 378.325,249.991 379.159,242.158 388.5,235C 390.025,233.991 391.692,233.491 393.5,233.5 Z"/></g>
<g><path style="opacity:1" fill="#e3d8a7" d="M 366.5,277.5 C 367.5,277.5 368.5,277.5 369.5,277.5C 369.5,276.5 369.5,275.5 369.5,274.5C 368.909,273.849 368.243,273.182 367.5,272.5C 369.917,268.293 370.084,263.959 368,259.5C 366.024,255.715 364.19,251.882 362.5,248C 363.637,242.356 365.137,242.523 367,248.5C 368.556,256.067 370.723,263.401 373.5,270.5C 373.001,274.335 371.668,277.835 369.5,281C 362.157,283.673 354.823,286.34 347.5,289C 343.833,289.667 340.167,289.667 336.5,289C 333.203,286.705 330.203,284.038 327.5,281C 327.838,275.836 329.338,271.003 332,266.5C 338.896,284.27 350.396,287.936 366.5,277.5 Z"/></g>
<g><path style="opacity:1" fill="#c81019" d="M 396.5,245.5 C 401.172,247.534 402.505,250.867 400.5,255.5C 395.355,259.145 390.689,263.312 386.5,268C 383.5,268.667 380.5,268.667 377.5,268C 379.526,264.732 381.026,261.232 382,257.5C 383.351,259.019 384.851,260.352 386.5,261.5C 388.66,259.169 390.66,256.669 392.5,254C 397.338,252.814 398.671,249.981 396.5,245.5 Z"/></g>
<g><path style="opacity:1" fill="#fefffe" d="M 200.5,251.5 C 202.125,250.675 203.792,251.008 205.5,252.5C 205,253.5 204.5,254.5 204,255.5C 203.051,253.907 201.885,252.574 200.5,251.5 Z"/></g>
<g><path style="opacity:1" fill="#026d9b" d="M 358.5,252.5 C 366.445,260.336 366.445,268.169 358.5,276C 351.536,279.727 345.203,278.894 339.5,273.5C 338.841,270.592 338.007,270.258 337,272.5C 334.626,269.199 333.96,265.533 335,261.5C 335.333,263.833 335.667,266.167 336,268.5C 336.663,265.131 336.496,261.797 335.5,258.5C 338.471,250.052 344.471,246.886 353.5,249C 351.167,249.333 348.833,249.667 346.5,250C 350.675,250.185 354.675,251.019 358.5,252.5 Z"/></g>
<g><path style="opacity:1" fill="#b7b7b7" d="M 217.5,256.5 C 214.944,262.842 212.611,269.176 210.5,275.5C 208.029,276.228 206.695,275.062 206.5,272C 206.697,264.743 208.863,258.243 213,252.5C 215.521,252.822 217.021,254.156 217.5,256.5 Z"/></g>
<g><path style="opacity:1" fill="#870014" d="M 194.5,253.5 C 197.422,257.601 200.589,261.601 204,265.5C 204.315,266.908 203.982,268.241 203,269.5C 199.377,264.588 196.544,259.255 194.5,253.5 Z"/></g>
<g><path style="opacity:1" fill="#fefffe" d="M 210.5,275.5 C 212.611,269.176 214.944,262.842 217.5,256.5C 218.265,256.077 219.098,255.743 220,255.5C 228.759,258.897 237.592,262.064 246.5,265C 247.059,265.725 247.392,266.558 247.5,267.5C 246.434,271.197 245.268,274.864 244,278.5C 243.167,280.667 241.667,282.167 239.5,283C 234.993,285.002 230.326,286.502 225.5,287.5C 218.633,285.614 213.633,281.614 210.5,275.5 Z"/></g>
<g><path style="opacity:1" fill="#fec90d" d="M 317.5,255.5 C 319.067,256.681 319.901,258.347 320,260.5C 323.148,262.655 325.981,265.155 328.5,268C 327.63,272.511 325.297,273.511 321.5,271C 318.403,268.609 316.237,265.776 315,262.5C 317.486,265.828 320.652,268.161 324.5,269.5C 324.833,269 325.167,268.5 325.5,268C 322.2,265.028 319.2,261.695 316.5,258C 317.252,257.329 317.586,256.496 317.5,255.5 Z"/></g>
<g><path style="opacity:1" fill="#154d6c" d="M 339.5,273.5 C 345.203,278.894 351.536,279.727 358.5,276C 366.445,268.169 366.445,260.336 358.5,252.5C 359.892,251.478 361.225,251.811 362.5,253.5C 368.496,261.105 368.663,268.772 363,276.5C 354.61,283.449 346.61,283.115 339,275.5C 338.308,274.563 338.475,273.897 339.5,273.5 Z"/></g>
<g><path style="opacity:1" fill="#fec90d" d="M 400.5,257.5 C 401.873,257.343 403.207,257.51 404.5,258C 408.356,262.355 412.023,266.855 415.5,271.5C 414.758,272.287 413.925,272.953 413,273.5C 408.667,269.167 404.333,264.833 400,260.5C 399.53,259.423 399.697,258.423 400.5,257.5 Z"/></g>
<g><path style="opacity:1" fill="#b87a56" d="M 396.5,260.5 C 401.298,264.797 405.965,269.297 410.5,274C 409.226,275.221 407.726,276.054 406,276.5C 400.729,272.634 394.895,270.134 388.5,269C 391.316,266.35 393.982,263.516 396.5,260.5 Z"/></g>
<g><path style="opacity:1" fill="#870014" d="M 297.5,263.5 C 301.306,265.065 304.306,267.565 306.5,271C 304.728,274.602 302.395,277.768 299.5,280.5C 297.016,277.516 294.35,274.682 291.5,272C 288.167,271.333 284.833,271.333 281.5,272C 276.5,275.833 271.5,279.667 266.5,283.5C 265.692,283.192 265.025,282.692 264.5,282C 272.188,277.156 279.521,271.823 286.5,266C 290.347,265.367 294.014,264.533 297.5,263.5 Z"/></g>
<g><path style="opacity:1" fill="#fefffe" d="M 311.5,266.5 C 315.471,271.303 319.971,275.636 325,279.5C 325.667,281.833 325.667,284.167 325,286.5C 320,282.833 315.667,278.5 312,273.5C 311.503,271.19 311.337,268.857 311.5,266.5 Z"/></g>
<g><path style="opacity:1" fill="#a7a7a7" d="M 249.5,264.5 C 255.502,264.909 261.502,265.409 267.5,266C 264.833,266.667 264.833,267.333 267.5,268C 263.069,271.481 258.069,273.814 252.5,275C 253.167,275.333 253.833,275.667 254.5,276C 252.664,277.419 250.664,278.586 248.5,279.5C 247.5,279.167 246.833,278.5 246.5,277.5C 246.901,275.566 247.901,274.066 249.5,273C 249.173,270.315 249.173,267.482 249.5,264.5 Z"/></g>
<g><path style="opacity:1" fill="#870014" d="M 308.5,269.5 C 309.83,272.44 309.663,275.44 308,278.5C 301.752,287.419 294.752,295.752 287,303.5C 286.333,302.833 286.333,302.167 287,301.5C 294,292.167 301,282.833 308,273.5C 308.49,272.207 308.657,270.873 308.5,269.5 Z"/></g>
<g><path style="opacity:1" fill="#870014" d="M 375.5,270.5 C 383.78,270.471 391.78,271.971 399.5,275C 392.125,275.686 384.792,275.353 377.5,274C 376.027,273.29 375.36,272.124 375.5,270.5 Z"/></g>
<g><path style="opacity:1" fill="#b87a56" d="M 282.5,273.5 C 285.187,273.336 287.854,273.503 290.5,274C 293.538,276.703 296.205,279.703 298.5,283C 294.212,288.41 290.045,293.91 286,299.5C 285.506,297.866 285.34,296.199 285.5,294.5C 282.15,294.335 278.817,294.502 275.5,295C 272.125,296.029 270.958,298.196 272,301.5C 273.02,302.891 273.853,304.391 274.5,306C 272.226,308.344 271.059,311.178 271,314.5C 266.08,311.29 261.246,307.957 256.5,304.5C 265.19,294.147 273.856,283.814 282.5,273.5 Z"/></g>
<g><path style="opacity:1" fill="#fec90d" d="M 369.5,274.5 C 369.5,275.5 369.5,276.5 369.5,277.5C 368.5,277.5 367.5,277.5 366.5,277.5C 366.5,276.5 366.5,275.5 366.5,274.5C 367.5,274.5 368.5,274.5 369.5,274.5 Z"/></g>
<g><path style="opacity:1" fill="#d5d6d5" d="M 374.5,275.5 C 381.749,276.866 389.082,277.699 396.5,278C 393.514,283.14 391.514,288.64 390.5,294.5C 385.287,290.089 379.62,289.422 373.5,292.5C 371.97,290.774 370.97,288.774 370.5,286.5C 371.565,282.709 372.899,279.042 374.5,275.5 Z"/></g>
<g><path style="opacity:1" fill="#959695" d="M 311.5,276.5 C 314.266,279.164 316.933,281.997 319.5,285C 312.474,288.357 305.474,291.357 298.5,294C 303.821,288.853 308.155,283.02 311.5,276.5 Z"/></g>
<g><path style="opacity:1" fill="#fec90d" d="M 332.5,280.5 C 333.5,280.5 334.5,280.5 335.5,280.5C 335.5,281.5 335.5,282.5 335.5,283.5C 334.5,283.5 333.5,283.5 332.5,283.5C 332.5,282.5 332.5,281.5 332.5,280.5 Z"/></g>
<g><path style="opacity:1" fill="#c6c6c6" d="M 245.5,294.5 C 249.505,293.502 252.839,291.502 255.5,288.5C 257.656,286.159 260.156,284.159 263,282.5C 263.684,283.784 263.517,284.951 262.5,286C 263.167,286.167 263.833,286.333 264.5,286.5C 266.967,285.579 269.301,284.745 271.5,284C 268.066,288.19 264.4,292.19 260.5,296C 255.833,296.667 251.167,296.667 246.5,296C 245.944,295.617 245.611,295.117 245.5,294.5 Z"/></g>
<g><path style="opacity:1" fill="#870014" d="M 398.5,282.5 C 399.163,284.641 399.497,286.975 399.5,289.5C 399,296.5 398.5,303.5 398,310.5C 397.333,311.167 396.667,311.833 396,312.5C 396.392,308.072 396.892,303.572 397.5,299C 397.42,297.106 397.087,295.273 396.5,293.5C 397.921,289.972 398.588,286.306 398.5,282.5 Z"/></g>
<g><path style="opacity:1" fill="#d5d6d5" d="M 401.5,282.5 C 403.105,284.308 403.439,286.308 402.5,288.5C 401.534,286.604 401.201,284.604 401.5,282.5 Z"/></g>
<g><path style="opacity:1" fill="#e0d5a5" d="M 367.5,283.5 C 368.518,286.377 368.351,289.377 367,292.5C 361.787,296.046 357.62,300.546 354.5,306C 334.252,312.644 325.419,305.477 328,284.5C 334.746,291.736 342.913,293.569 352.5,290C 357.468,287.474 362.468,285.307 367.5,283.5 Z"/></g>
<g><path style="opacity:1" fill="#d5d6d5" d="M 395.5,283.5 C 396.208,287.102 395.708,290.769 394,294.5C 393.415,290.678 393.915,287.011 395.5,283.5 Z"/></g>
<g><path style="opacity:1" fill="#a1a1a1" d="M 205.5,290.5 C 204.664,294.323 203.664,297.989 202.5,301.5C 201.205,296.276 201.372,290.943 203,285.5C 204.892,286.617 205.725,288.284 205.5,290.5 Z"/></g>
<g><path style="opacity:1" fill="#f6f6f6" d="M 303.5,301.5 C 301.738,300.738 300.738,299.404 300.5,297.5C 300.369,296.624 300.702,295.957 301.5,295.5C 308.075,292.629 314.575,289.629 321,286.5C 322.512,287.257 323.846,288.257 325,289.5C 325.688,290.332 325.521,290.998 324.5,291.5C 320.76,293.691 316.76,295.191 312.5,296C 309.472,297.844 306.472,299.678 303.5,301.5 Z"/></g>
<g><path style="opacity:1" fill="#868686" d="M 255.5,288.5 C 252.839,291.502 249.505,293.502 245.5,294.5C 244.226,293.811 244.226,292.977 245.5,292C 248.5,290.5 251.5,289 254.5,287.5C 255.107,287.624 255.44,287.957 255.5,288.5 Z"/></g>
<g><path style="opacity:1" fill="#870014" d="M 413.5,304.5 C 413.421,297.841 410.755,292.341 405.5,288C 405.833,287.833 406.167,287.667 406.5,287.5C 409.56,290.607 412.394,293.941 415,297.5C 415.275,300.058 414.775,302.392 413.5,304.5 Z"/></g>
<g><path style="opacity:1" fill="#fefffe" d="M 202.5,301.5 C 203.664,297.989 204.664,294.323 205.5,290.5C 206.151,289.909 206.818,289.243 207.5,288.5C 212.389,292.112 217.723,294.945 223.5,297C 227.167,297.667 230.833,297.667 234.5,297C 237.458,296.771 239.958,295.604 242,293.5C 242.785,295.286 243.951,296.786 245.5,298C 249.833,298.333 254.167,298.667 258.5,299C 255.462,301.703 252.795,304.703 250.5,308C 232.228,307.942 215.395,312.775 200,322.5C 201.375,316.37 202.208,309.37 202.5,301.5 Z"/></g>
<g><path style="opacity:1" fill="#ec1c23" d="M 402.5,290.5 C 411.865,294.441 413.698,300.774 408,309.5C 405.749,313.126 402.582,314.293 398.5,313C 399,312.5 399.5,312 400,311.5C 400.174,304.37 401.007,297.37 402.5,290.5 Z"/></g>
<g><path style="opacity:1" fill="#ec1c23" d="M 378.5,292.5 C 380.199,292.34 381.866,292.506 383.5,293C 386.4,294.742 389.4,296.242 392.5,297.5C 393.442,297.392 394.275,297.059 395,296.5C 395.273,301.928 394.606,307.261 393,312.5C 390.333,314.5 387.667,316.5 385,318.5C 382.562,313.733 379.729,309.233 376.5,305C 372.954,303.826 369.287,303.16 365.5,303C 368.355,297.584 372.688,294.084 378.5,292.5 Z"/></g>
<g><path style="opacity:1" fill="#fbfbfb" d="M 305.5,332.5 C 303.973,332.573 302.973,331.906 302.5,330.5C 302.196,329.85 301.863,329.183 301.5,328.5C 306.578,318.01 311.911,307.677 317.5,297.5C 320.07,296.298 322.57,294.965 325,293.5C 325.667,295.167 325.667,296.833 325,298.5C 321.582,304.337 317.916,310.004 314,315.5C 311.237,321.35 308.403,327.016 305.5,332.5 Z"/></g>
<g><path style="opacity:1" fill="#7e7f7e" d="M 281.5,296.5 C 282.21,298.893 282.877,301.393 283.5,304C 281.782,304.346 280.115,304.846 278.5,305.5C 277.123,303.711 276.123,301.711 275.5,299.5C 277.444,298.199 279.444,297.199 281.5,296.5 Z"/></g>
<g><path style="opacity:1" fill="#fec90d" d="M 300.5,297.5 C 300.738,299.404 301.738,300.738 303.5,301.5C 301.049,304.277 298.049,306.277 294.5,307.5C 293.488,306.128 292.488,304.795 291.5,303.5C 291.427,301.973 292.094,300.973 293.5,300.5C 293.833,301.5 294.5,302.167 295.5,302.5C 295.786,304.933 296.452,304.933 297.5,302.5C 299.557,302.043 299.557,301.043 297.5,299.5C 296.342,298.05 296.842,297.05 299,296.5C 299.383,297.056 299.883,297.389 300.5,297.5 Z"/></g>
<g><path style="opacity:1" fill="#3f47cc" d="M 309.5,302.5 C 309.389,301.883 309.056,301.383 308.5,301C 315.5,296.131 316.333,297.298 311,304.5C 310.722,303.584 310.222,302.918 309.5,302.5 Z"/></g>
<g><path style="opacity:1" fill="#fefffe" d="M 297.5,299.5 C 297.5,300.5 297.5,301.5 297.5,302.5C 296.833,302.5 296.167,302.5 295.5,302.5C 295.5,301.833 295.5,301.167 295.5,300.5C 296.167,300.167 296.833,299.833 297.5,299.5 Z"/></g>
<g><path style="opacity:1" fill="#000000" d="M 297.5,299.5 C 299.557,301.043 299.557,302.043 297.5,302.5C 297.5,301.5 297.5,300.5 297.5,299.5 Z"/></g>
<g><path style="opacity:1" fill="#000000" d="M 293.5,300.5 C 294.167,300.5 294.833,300.5 295.5,300.5C 295.5,301.167 295.5,301.833 295.5,302.5C 294.5,302.167 293.833,301.5 293.5,300.5 Z"/></g>
<g><path style="opacity:1" fill="#fdfdfd" d="M 317.5,337.5 C 316.833,337.5 316.5,337.167 316.5,336.5C 316.082,335.778 315.416,335.278 314.5,335C 319.525,327.254 321.691,318.754 321,309.5C 322.667,306.5 324.333,303.5 326,300.5C 328.271,303.12 328.938,306.12 328,309.5C 325.797,318.648 323.13,327.648 320,336.5C 319.329,337.252 318.496,337.586 317.5,337.5 Z"/></g>
<g><path style="opacity:1" fill="#000000" d="M 295.5,302.5 C 296.167,302.5 296.833,302.5 297.5,302.5C 296.452,304.933 295.786,304.933 295.5,302.5 Z"/></g>
<g><path style="opacity:1" fill="#fec90d" d="M 309.5,302.5 C 309.5,303.5 309.5,304.5 309.5,305.5C 308.5,305.5 307.5,305.5 306.5,305.5C 306.5,304.5 306.5,303.5 306.5,302.5C 307.5,302.5 308.5,302.5 309.5,302.5 Z"/></g>
<g><path style="opacity:1" fill="#dbdbdb" d="M 291.5,303.5 C 292.488,304.795 293.488,306.128 294.5,307.5C 291.52,311.087 289.187,310.92 287.5,307C 288.103,304.929 289.436,303.762 291.5,303.5 Z"/></g>
<g><path style="opacity:1" fill="#ec1c23" d="M 415.5,303.5 C 417.214,307.614 416.38,311.281 413,314.5C 412.5,314 412,313.5 411.5,313C 414.62,310.592 415.953,307.426 415.5,303.5 Z"/></g>
<g><path style="opacity:1" fill="#870014" d="M 413.5,304.5 C 413.539,307.089 412.539,309.089 410.5,310.5C 410.992,308.181 411.992,306.181 413.5,304.5 Z"/></g>
<g><path style="opacity:1" fill="#870014" d="M 361.5,305.5 C 366.297,305.121 370.964,305.621 375.5,307C 379.274,311.88 382.274,317.213 384.5,323C 383.667,323.833 382.833,324.667 382,325.5C 381.088,317.252 376.588,312.085 368.5,310C 365.167,309.333 361.833,309.333 358.5,310C 357.667,310.833 356.833,311.667 356,312.5C 355.333,311.833 355.333,311.167 356,310.5C 357.812,308.7 359.645,307.033 361.5,305.5 Z"/></g>
<g><path style="opacity:1" fill="#780713" d="M 257.5,309.5 C 257.068,310.71 256.401,311.71 255.5,312.5C 252.834,312.934 251.667,311.934 252,309.5C 253,308.5 254,307.5 255,306.5C 256.417,307.078 257.25,308.078 257.5,309.5 Z"/></g>
<g><path style="opacity:1" fill="#7e7f7e" d="M 281.5,307.5 C 283.359,307.461 284.692,308.294 285.5,310C 282.333,312.124 279,312.624 275.5,311.5C 275.833,310.833 276.167,310.167 276.5,309.5C 278.291,308.83 279.958,308.163 281.5,307.5 Z"/></g>
<g><path style="opacity:1" fill="#959695" d="M 330.5,307.5 C 332.09,307.628 333.423,308.295 334.5,309.5C 333.923,315.511 331.423,320.511 327,324.5C 327.989,318.865 329.156,313.199 330.5,307.5 Z"/></g>
<g><path style="opacity:1" fill="#959695" d="M 351.5,308.5 C 352.552,308.351 353.552,308.517 354.5,309C 352.276,315.682 350.442,322.515 349,329.5C 345.693,331.937 342.026,333.603 338,334.5C 340.619,326.643 343.286,318.643 346,310.5C 347.948,309.891 349.782,309.224 351.5,308.5 Z"/></g>
<g><path style="opacity:1" fill="#fec90d" d="M 257.5,309.5 C 259.389,310.604 261.055,311.937 262.5,313.5C 261.026,314.436 260.026,315.77 259.5,317.5C 257.413,316.415 256.08,314.749 255.5,312.5C 256.401,311.71 257.068,310.71 257.5,309.5 Z"/></g>
<g><path style="opacity:1" fill="#fdfdfd" d="M 331.5,338.5 C 330.833,338.5 330.5,338.167 330.5,337.5C 330.082,336.778 329.416,336.278 328.5,336C 332.352,327.41 335.352,318.576 337.5,309.5C 339.444,310.189 341.444,310.689 343.5,311C 340.399,320.138 337.399,329.304 334.5,338.5C 333.5,338.5 332.5,338.5 331.5,338.5 Z"/></g>
<g><path style="opacity:1" fill="#383ca5" d="M 302.5,309.5 C 303.5,309.5 304.5,309.5 305.5,309.5C 306.404,308.791 306.737,307.791 306.5,306.5C 308.355,306.272 309.188,306.939 309,308.5C 303.588,312.792 297.755,316.459 291.5,319.5C 289.596,318.743 289.263,317.743 290.5,316.5C 291.5,316.5 292.5,316.5 293.5,316.5C 293.5,315.5 293.5,314.5 293.5,313.5C 293.082,312.778 292.416,312.278 291.5,312C 292.5,311.5 293.5,311 294.5,310.5C 295.176,311.602 295.842,312.602 296.5,313.5C 297.5,313.5 298.5,313.5 299.5,313.5C 299.5,312.5 299.5,311.5 299.5,310.5C 299.082,309.778 298.416,309.278 297.5,309C 298.931,308.535 300.097,307.701 301,306.5C 301.232,307.737 301.732,308.737 302.5,309.5 Z"/></g>
<g><path style="opacity:1" fill="#fec90d" d="M 305.5,309.5 C 304.5,309.5 303.5,309.5 302.5,309.5C 302.5,308.5 302.5,307.5 302.5,306.5C 303.5,306.5 304.5,306.5 305.5,306.5C 305.5,307.5 305.5,308.5 305.5,309.5 Z"/></g>
<g><path style="opacity:1" fill="#fec90d" d="M 299.5,310.5 C 299.5,311.5 299.5,312.5 299.5,313.5C 298.5,313.5 297.5,313.5 296.5,313.5C 296.5,312.5 296.5,311.5 296.5,310.5C 297.5,310.5 298.5,310.5 299.5,310.5 Z"/></g>
<g><path style="opacity:1" fill="#870014" d="M 410.5,310.5 C 409.758,312.426 408.758,314.259 407.5,316C 406.5,316.667 405.5,316.667 404.5,316C 406.37,313.96 408.37,312.127 410.5,310.5 Z"/></g>
<g><path style="opacity:1" fill="#870014" d="M 244.5,311.5 C 245.376,311.369 246.043,311.702 246.5,312.5C 244.855,316.074 242.355,317.407 239,316.5C 225.018,317.823 211.852,321.656 199.5,328C 197.667,329.833 195.833,331.667 194,333.5C 193.658,331.182 194.158,329.015 195.5,327C 205.186,323.211 214.853,319.211 224.5,315C 231.254,313.502 237.921,312.335 244.5,311.5 Z"/></g>
<g><path style="opacity:1" fill="#ec1c23" d="M 359.5,311.5 C 373.188,310.722 380.022,317.055 380,330.5C 379.333,331.833 378.667,331.833 378,330.5C 373.843,319.669 366.009,315.502 354.5,318C 356.054,315.713 357.721,313.546 359.5,311.5 Z"/></g>
<g><path style="opacity:1" fill="#b87a56" d="M 248.5,312.5 C 253.89,315.71 258.89,319.544 263.5,324C 259.994,328.999 256.327,333.833 252.5,338.5C 247.179,334.511 242.179,330.178 237.5,325.5C 241.588,321.421 245.255,317.088 248.5,312.5 Z"/></g>
<g><path style="opacity:1" fill="#000000" d="M 257.5,312.5 C 259.337,312.639 259.67,313.306 258.5,314.5C 257.702,314.043 257.369,313.376 257.5,312.5 Z"/></g>
<g><path style="opacity:1" fill="#7d0514" d="M 259.5,317.5 C 260.026,315.77 261.026,314.436 262.5,313.5C 270.416,314.117 271.083,316.784 264.5,321.5C 262.581,320.388 260.914,319.054 259.5,317.5 Z"/></g>
<g><path style="opacity:1" fill="#959695" d="M 305.5,312.5 C 306.043,312.56 306.376,312.893 306.5,313.5C 302.667,321.167 298.833,328.833 295,336.5C 293.265,332.055 291.765,327.555 290.5,323C 295.566,319.478 300.566,315.978 305.5,312.5 Z"/></g>
<g><path style="opacity:1" fill="#fec90d" d="M 293.5,313.5 C 293.5,314.5 293.5,315.5 293.5,316.5C 292.5,316.5 291.5,316.5 290.5,316.5C 290.5,315.5 290.5,314.5 290.5,313.5C 291.5,313.5 292.5,313.5 293.5,313.5 Z"/></g>
<g><path style="opacity:1" fill="#959695" d="M 317.5,313.5 C 319.445,321.487 316.945,327.82 310,332.5C 311.355,325.778 313.855,319.445 317.5,313.5 Z"/></g>
<g><path style="opacity:1" fill="#7e7f7e" d="M 282.5,314.5 C 283.822,314.33 284.989,314.663 286,315.5C 287.386,324.044 289.553,332.377 292.5,340.5C 291.561,342.053 290.394,343.387 289,344.5C 288.055,344.095 287.388,343.428 287,342.5C 285.225,333.898 283.058,325.398 280.5,317C 281.056,315.989 281.722,315.156 282.5,314.5 Z"/></g>
<g><path style="opacity:1" fill="#870014" d="M 272.5,315.5 C 273.873,315.343 275.207,315.51 276.5,316C 268.57,324.594 261.403,333.76 255,343.5C 253.77,342.725 253.437,341.725 254,340.5C 260.164,332.175 266.331,323.842 272.5,315.5 Z"/></g>
<g><path style="opacity:1" fill="#aeaf9c" d="M 390.5,316.5 C 391.239,316.369 391.906,316.536 392.5,317C 391.219,319.403 389.386,321.237 387,322.5C 386.5,322 386,321.5 385.5,321C 387.24,319.483 388.906,317.983 390.5,316.5 Z"/></g>
<g><path style="opacity:1" fill="#870014" d="M 396.5,316.5 C 399.899,317.016 403.232,317.85 406.5,319C 417.999,324.913 428.999,331.58 439.5,339C 442.289,339.241 444.956,339.908 447.5,341C 453.374,349.245 458.874,357.745 464,366.5C 464.781,367.944 464.614,369.277 463.5,370.5C 461.386,369.966 459.552,368.966 458,367.5C 453.285,357.895 447.451,349.062 440.5,341C 426.5,331.5 411.5,323.833 395.5,318C 396.056,317.617 396.389,317.117 396.5,316.5 Z"/></g>
<g><path style="opacity:1" fill="#959695" d="M 276.5,318.5 C 278.326,320.455 278.826,322.788 278,325.5C 273.767,329.643 269.767,333.977 266,338.5C 264.101,341.374 263.267,344.541 263.5,348C 265.788,362.985 268.788,377.818 272.5,392.5C 269.762,392.851 267.096,393.518 264.5,394.5C 264.322,388.561 264.155,382.561 264,376.5C 261.042,367.004 258.876,357.337 257.5,347.5C 257.478,345.035 257.978,342.702 259,340.5C 265.047,333.292 270.88,325.958 276.5,318.5 Z"/></g>
<g><path style="opacity:1" fill="#f8f8f8" d="M 262.5,411.5 C 255.541,408.008 248.208,405.175 240.5,403C 237.961,402.204 235.628,402.371 233.5,403.5C 232.761,403.631 232.094,403.464 231.5,403C 234.817,397.871 237.151,392.371 238.5,386.5C 237.325,386.281 236.325,386.614 235.5,387.5C 230.253,396.492 226.253,405.992 223.5,416C 219.939,419.042 216.439,422.209 213,425.5C 204.278,438.048 195.778,450.715 187.5,463.5C 186.143,464.685 184.643,465.685 183,466.5C 182.228,466.355 181.561,466.022 181,465.5C 180,461.167 179,456.833 178,452.5C 176.264,455.739 173.764,458.073 170.5,459.5C 170.335,455.818 170.501,452.152 171,448.5C 175.736,433.821 179.069,418.821 181,403.5C 183.875,395.707 187.042,388.04 190.5,380.5C 190.444,379.263 189.944,378.263 189,377.5C 187.833,379.167 186.667,380.833 185.5,382.5C 180.894,376.188 179.06,369.188 180,361.5C 185.141,348.385 193.307,337.552 204.5,329C 215.763,324.217 227.43,321.217 239.5,320C 232.716,326.236 233.049,332.236 240.5,338C 242.833,339.667 245.167,341.333 247.5,343C 240.957,355.141 235.29,367.641 230.5,380.5C 240.424,384.564 250.757,386.897 261.5,387.5C 261.776,395.666 263.109,403.666 265.5,411.5C 264.5,411.5 263.5,411.5 262.5,411.5 Z"/></g>
<g><path style="opacity:1" fill="#c81019" d="M 357.5,319.5 C 364.902,318.785 370.735,321.452 375,327.5C 376.886,333.912 374.719,338.746 368.5,342C 358.812,341.322 353.145,335.988 351.5,326C 352.038,322.334 354.038,320.167 357.5,319.5 Z"/></g>
<g><path style="opacity:1" fill="#fefffe" d="M 435.5,487.5 C 433.545,488.323 431.545,488.49 429.5,488C 426.582,486.291 423.748,484.458 421,482.5C 420.021,484.32 418.521,485.487 416.5,486C 417.833,488 419.167,490 420.5,492C 417.819,491.509 415.153,490.676 412.5,489.5C 409.969,486.621 408.969,487.288 409.5,491.5C 402.631,486.14 396.131,480.14 390,473.5C 381.962,465.13 374.295,456.464 367,447.5C 359.874,438.079 355.04,427.579 352.5,416C 353.511,410.474 355.511,405.307 358.5,400.5C 362.459,399.673 366.459,399.173 370.5,399C 371,398.5 371.5,398 372,397.5C 371.834,388.173 371.834,378.839 372,369.5C 372.245,355.182 375.912,341.849 383,329.5C 386.035,326.13 389.368,323.13 393,320.5C 409.092,326.629 424.259,334.462 438.5,344C 444.872,351.904 450.372,360.404 455,369.5C 458.828,372.415 462.828,375.081 467,377.5C 467.78,381.682 468.614,385.849 469.5,390C 465.421,401.505 459.088,411.505 450.5,420C 439.071,427.464 427.904,435.297 417,443.5C 417.549,450.699 419.216,457.699 422,464.5C 426.007,472.523 430.507,480.19 435.5,487.5 Z"/></g>
<g><path style="opacity:1" fill="#fefffe" d="M 330.5,323.5 C 331.043,323.56 331.376,323.893 331.5,324.5C 330.305,326.751 329.305,329.085 328.5,331.5C 326.578,332.711 324.745,334.044 323,335.5C 323.788,333.371 324.455,331.038 325,328.5C 327.191,327.167 329.024,325.5 330.5,323.5 Z"/></g>
<g><path style="opacity:1" fill="#343795" d="M 277.5,330.5 C 277.5,331.5 277.5,332.5 277.5,333.5C 278.5,333.5 279.5,333.5 280.5,333.5C 281.573,334.251 281.74,335.251 281,336.5C 278.064,339.451 275.731,342.784 274,346.5C 273.685,353.449 274.518,360.282 276.5,367C 276.43,367.765 276.097,368.265 275.5,368.5C 274.5,368.5 273.5,368.5 272.5,368.5C 272.5,369.5 272.5,370.5 272.5,371.5C 273.5,371.5 274.5,371.5 275.5,371.5C 276.117,371.389 276.617,371.056 277,370.5C 279.171,377 278.171,383 274,388.5C 270.453,375.146 267.62,361.646 265.5,348C 265.329,344.871 266.162,342.037 268,339.5C 271.592,336.579 274.425,333.079 276.5,329C 277.877,327.759 279.21,327.592 280.5,328.5C 279.398,329.176 278.398,329.842 277.5,330.5 Z"/></g>
<g><path style="opacity:1" fill="#870014" d="M 236.5,328.5 C 242.459,332.813 247.459,337.48 251.5,342.5C 247.996,340.582 244.663,338.416 241.5,336C 238.8,334.143 237.134,331.643 236.5,328.5 Z"/></g>
<g><path style="opacity:1" fill="#fec90d" d="M 277.5,330.5 C 278.5,330.5 279.5,330.5 280.5,330.5C 280.5,331.5 280.5,332.5 280.5,333.5C 280.5,332.5 280.5,331.5 280.5,330.5C 279.5,330.5 278.5,330.5 277.5,330.5 Z"/></g>
<g><path style="opacity:1" fill="#fec90d" d="M 302.5,330.5 C 302.973,331.906 303.973,332.573 305.5,332.5C 305.206,335.754 303.873,338.421 301.5,340.5C 300.486,339.326 299.153,338.66 297.5,338.5C 297.12,336.302 297.787,334.635 299.5,333.5C 299.5,331.5 300.5,330.5 302.5,330.5 Z"/></g>
<g><path style="opacity:1" fill="#aeaf9c" d="M 337.5,359.5 C 338.181,354.85 339.347,350.184 341,345.5C 343.446,341.606 345.612,337.606 347.5,333.5C 348.458,333.047 349.292,332.381 350,331.5C 352.785,336.619 356.618,340.786 361.5,344C 367.062,345.581 371.562,344.081 375,339.5C 373.695,344.72 372.362,350.054 371,355.5C 370.501,359.821 370.334,364.154 370.5,368.5C 359.487,368.499 348.487,368.166 337.5,367.5C 337.5,364.833 337.5,362.167 337.5,359.5 Z"/></g>
<g><path style="opacity:1" fill="#fefffe" d="M 311.5,333.5 C 312.043,333.56 312.376,333.893 312.5,334.5C 310.167,338.5 307.833,342.5 305.5,346.5C 304.5,346 303.5,345.5 302.5,345C 304.294,341.912 305.961,338.746 307.5,335.5C 308.949,334.828 310.282,334.161 311.5,333.5 Z"/></g>
<g><path style="opacity:1" fill="#838383" d="M 347.5,333.5 C 345.612,337.606 343.446,341.606 341,345.5C 339.347,350.184 338.181,354.85 337.5,359.5C 336.532,361.607 336.198,363.941 336.5,366.5C 335.127,366.657 333.793,366.49 332.5,366C 333.471,360.928 333.805,355.762 333.5,350.5C 332.448,350.649 331.448,350.483 330.5,350C 332.372,347.707 333.872,345.207 335,342.5C 335.813,340.564 336.313,338.564 336.5,336.5C 340.314,335.964 343.981,334.964 347.5,333.5 Z"/></g>
<g><path style="opacity:1" fill="#585858" d="M 299.5,333.5 C 304.333,333.84 304.833,335.507 301,338.5C 300.075,337.953 299.242,337.287 298.5,336.5C 299.127,335.583 299.461,334.583 299.5,333.5 Z"/></g>
<g><path style="opacity:1" fill="#959695" d="M 325.5,335.5 C 326.043,335.56 326.376,335.893 326.5,336.5C 325.52,337.981 324.353,339.315 323,340.5C 322.667,342.5 322.333,344.5 322,346.5C 320.867,348.211 319.367,348.711 317.5,348C 320.094,343.741 322.76,339.574 325.5,335.5 Z"/></g>
<g><path style="opacity:1" fill="#fec90d" d="M 273.5,336.5 C 274.5,336.5 275.5,336.5 276.5,336.5C 276.5,337.5 276.5,338.5 276.5,339.5C 275.5,339.5 274.5,339.5 273.5,339.5C 273.5,338.5 273.5,337.5 273.5,336.5 Z"/></g>
<g><path style="opacity:1" fill="#fec90d" d="M 316.5,336.5 C 316.5,337.167 316.833,337.5 317.5,337.5C 320.593,341.427 319.593,343.76 314.5,344.5C 313.432,343.566 312.099,343.232 310.5,343.5C 309.984,338.814 311.984,336.481 316.5,336.5 Z"/></g>
<g><path style="opacity:1" fill="#fec90d" d="M 330.5,337.5 C 330.5,338.167 330.833,338.5 331.5,338.5C 332.091,339.151 332.757,339.818 333.5,340.5C 332.05,341.85 331.383,343.516 331.5,345.5C 329.833,345.5 328.167,345.5 326.5,345.5C 326.5,344.833 326.167,344.5 325.5,344.5C 324.29,340.348 325.957,338.015 330.5,337.5 Z"/></g>
<g><path style="opacity:1" fill="#959695" d="M 281.5,338.5 C 282.665,339.496 283.332,340.829 283.5,342.5C 282.037,344.631 281.037,346.965 280.5,349.5C 281.545,353.26 282.878,356.926 284.5,360.5C 283.559,364.324 282.226,367.99 280.5,371.5C 276.888,362.895 275.722,353.895 277,344.5C 278.332,342.34 279.832,340.34 281.5,338.5 Z"/></g>
<g><path style="opacity:1" fill="#d8d8d8" d="M 297.5,338.5 C 299.153,338.66 300.486,339.326 301.5,340.5C 301.473,344.699 299.807,345.533 296.5,343C 295.833,342.667 295.167,342.333 294.5,342C 295.163,340.482 296.163,339.315 297.5,338.5 Z"/></g>
<g><path style="opacity:1" fill="#717171" d="M 313.5,337.5 C 316.487,337.948 317.487,339.448 316.5,342C 311.517,342.867 310.517,341.367 313.5,337.5 Z"/></g>
<g><path style="opacity:1" fill="#5f5f5f" d="M 327.5,339.5 C 330.131,340.425 330.798,342.091 329.5,344.5C 325.565,343.663 324.899,341.997 327.5,339.5 Z"/></g>
<g><path style="opacity:1" fill="#fec90d" d="M 268.5,341.5 C 269.5,341.5 270.5,341.5 271.5,341.5C 271.5,342.5 271.5,343.5 271.5,344.5C 270.5,344.5 269.5,344.5 268.5,344.5C 268.5,343.5 268.5,342.5 268.5,341.5 Z"/></g>
<g><path style="opacity:1" fill="#d6d6d6" d="M 310.5,343.5 C 312.099,343.232 313.432,343.566 314.5,344.5C 314.918,345.222 315.584,345.722 316.5,346C 313.833,348 311.167,348 308.5,346C 309.066,345.005 309.733,344.172 310.5,343.5 Z"/></g>
<g><path style="opacity:1" fill="#aeaf9c" d="M 248.5,344.5 C 250.806,344.993 253.139,345.326 255.5,345.5C 255.808,347.924 255.474,350.257 254.5,352.5C 251.875,351.236 249.208,350.069 246.5,349C 247.582,347.67 248.249,346.17 248.5,344.5 Z"/></g>
<g><path style="opacity:1" fill="#f2f2f2" d="M 325.5,344.5 C 326.167,344.5 326.5,344.833 326.5,345.5C 327.609,346.29 328.942,346.79 330.5,347C 328.316,349.368 325.649,350.035 322.5,349C 323.781,347.591 324.781,346.091 325.5,344.5 Z"/></g>
<g><path style="opacity:1" fill="#fec90d" d="M 267.5,347.5 C 268.5,347.5 269.5,347.5 270.5,347.5C 270.5,348.5 270.5,349.5 270.5,350.5C 269.5,350.5 268.5,350.5 267.5,350.5C 267.5,349.5 267.5,348.5 267.5,347.5 Z"/></g>
<g><path style="opacity:1" fill="#e4e4e4" d="M 457.5,349.5 C 468.727,347.398 479.727,348.565 490.5,353C 495.167,355.667 499.833,358.333 504.5,361C 512.872,369.103 520.539,377.77 527.5,387C 530.837,389.671 534.504,391.837 538.5,393.5C 540.892,398.99 539.225,402.49 533.5,404C 533.833,404.333 534.167,404.667 534.5,405C 531.167,408.333 527.833,411.667 524.5,415C 523.552,415.483 522.552,415.649 521.5,415.5C 521.167,410.167 520.833,410.167 520.5,415.5C 514.975,415.168 509.309,415.001 503.5,415C 502.667,414.167 501.833,413.333 501,412.5C 498.048,404.692 495.714,396.692 494,388.5C 488.846,376.68 480.013,369.18 467.5,366C 464.267,360.353 460.933,354.853 457.5,349.5 Z"/></g>
<g><path style="opacity:1" fill="#3f47cc" d="M 245.5,351.5 C 249.037,352.267 252.371,353.6 255.5,355.5C 256.888,356.591 257.388,357.924 257,359.5C 253.27,357.477 249.437,355.644 245.5,354C 244.402,353.23 244.402,352.397 245.5,351.5 Z"/></g>
<g><path style="opacity:1" fill="#fec90d" d="M 268.5,354.5 C 269.5,354.5 270.5,354.5 271.5,354.5C 271.5,355.5 271.5,356.5 271.5,357.5C 270.5,357.5 269.5,357.5 268.5,357.5C 268.5,356.5 268.5,355.5 268.5,354.5 Z"/></g>
<g><path style="opacity:1" fill="#aeaf9c" d="M 243.5,355.5 C 247.428,357.424 251.428,359.257 255.5,361C 250.796,361.163 246.463,359.83 242.5,357C 243.056,356.617 243.389,356.117 243.5,355.5 Z"/></g>
<g><path style="opacity:1" fill="#3f47cc" d="M 241.5,359.5 C 246.887,362.246 252.554,364.246 258.5,365.5C 259.428,366.768 259.595,368.101 259,369.5C 253.025,368.213 247.191,366.379 241.5,364C 240.272,362.51 240.272,361.01 241.5,359.5 Z"/></g>
<g><path style="opacity:1" fill="#fec90d" d="M 270.5,361.5 C 271.5,361.5 272.5,361.5 273.5,361.5C 273.5,362.5 273.5,363.5 273.5,364.5C 272.5,364.5 271.5,364.5 270.5,364.5C 270.5,363.5 270.5,362.5 270.5,361.5 Z"/></g>
<g><path style="opacity:1" fill="#aeaf9c" d="M 238.5,365.5 C 245.741,368.143 253.074,370.477 260.5,372.5C 262.004,375.467 262.338,378.467 261.5,381.5C 252.364,378.102 243.031,376.602 233.5,377C 235.308,373.219 236.974,369.385 238.5,365.5 Z"/></g>
<g><path style="opacity:1" fill="#fec90d" d="M 275.5,368.5 C 275.5,369.5 275.5,370.5 275.5,371.5C 274.5,371.5 273.5,371.5 272.5,371.5C 272.5,370.5 272.5,369.5 272.5,368.5C 273.5,368.5 274.5,368.5 275.5,368.5 Z"/></g>
<g><path style="opacity:1" fill="#3f47cc" d="M 332.5,368.5 C 344.775,370.043 357.109,370.71 369.5,370.5C 369.5,371.833 369.5,373.167 369.5,374.5C 357.148,374.066 344.815,373.399 332.5,372.5C 332.5,371.167 332.5,369.833 332.5,368.5 Z"/></g>
<g><path style="opacity:1" fill="#aeaf9c" d="M 337.5,376.5 C 348,375.605 358.667,375.605 369.5,376.5C 369.5,377.5 369.5,378.5 369.5,379.5C 358.896,377.915 348.23,376.915 337.5,376.5 Z"/></g>
<g><path style="opacity:1" fill="#fec90d" d="M 273.5,376.5 C 274.5,376.5 275.5,376.5 276.5,376.5C 276.5,377.5 276.5,378.5 276.5,379.5C 275.5,379.5 274.5,379.5 273.5,379.5C 273.5,378.5 273.5,377.5 273.5,376.5 Z"/></g>
<g><path style="opacity:1" fill="#3f47cc" d="M 331.5,377.5 C 344.192,378.614 356.858,379.947 369.5,381.5C 369.5,382.833 369.5,384.167 369.5,385.5C 356.797,384.466 344.131,383.133 331.5,381.5C 331.5,380.167 331.5,378.833 331.5,377.5 Z"/></g>
<g><path style="opacity:1" fill="#aeaf9c" d="M 236.5,378.5 C 245.475,379.244 254.142,381.244 262.5,384.5C 254.075,385.271 245.908,383.938 238,380.5C 236.97,380.164 236.47,379.497 236.5,378.5 Z"/></g>
<g><path style="opacity:1" fill="#aeaf9c" d="M 330.5,383.5 C 343.783,385.253 357.116,386.586 370.5,387.5C 370.665,390.518 370.498,393.518 370,396.5C 369.439,397.022 368.772,397.355 368,397.5C 355.14,393.542 341.973,391.376 328.5,391C 329.867,388.699 330.534,386.199 330.5,383.5 Z"/></g>
<g><path style="opacity:1" fill="#000000" d="M 500.5,391.5 C 501.289,391.783 501.956,392.283 502.5,393C 501.184,393.528 500.517,393.028 500.5,391.5 Z"/></g>
<g><path style="opacity:1" fill="#363a9f" d="M 279.5,395.5 C 279.5,396.5 279.5,397.5 279.5,398.5C 280.5,398.5 281.5,398.5 282.5,398.5C 283.5,398.5 284.5,398.5 285.5,398.5C 285.648,402.261 286.648,405.761 288.5,409C 288,409.5 287.5,410 287,410.5C 286.768,409.263 286.268,408.263 285.5,407.5C 284.5,407.5 283.5,407.5 282.5,407.5C 282.5,408.5 282.5,409.5 282.5,410.5C 281.923,412.652 280.756,412.985 279,411.5C 277.368,405.666 275.868,399.833 274.5,394C 276.391,393.797 278.057,394.297 279.5,395.5 Z"/></g>
<g><path style="opacity:1" fill="#aeaf9c" d="M 327.5,394.5 C 336.061,393.681 344.727,394.181 353.5,396C 344.801,396.231 336.134,395.731 327.5,394.5 Z"/></g>
<g><path style="opacity:1" fill="#876414" d="M 270.5,394.5 C 271.496,394.414 272.329,394.748 273,395.5C 273.87,401.528 275.37,407.361 277.5,413C 275.527,413.495 273.527,413.662 271.5,413.5C 271.313,411.436 270.813,409.436 270,407.5C 267.529,404.726 265.695,401.56 264.5,398C 266.223,396.251 268.223,395.084 270.5,394.5 Z"/></g>
<g><path style="opacity:1" fill="#fec90d" d="M 279.5,395.5 C 280.833,396.167 281.833,397.167 282.5,398.5C 281.5,398.5 280.5,398.5 279.5,398.5C 279.5,397.5 279.5,396.5 279.5,395.5 Z"/></g>
<g><path style="opacity:1" fill="#d5d6d5" d="M 326.5,396.5 C 336.136,397.597 345.802,398.43 355.5,399C 350.072,405.928 348.405,413.595 350.5,422C 339.894,424.494 329.228,425.66 318.5,425.5C 316.418,418.925 314.752,412.258 313.5,405.5C 321.853,407.952 326.187,404.952 326.5,396.5 Z"/></g>
<g><path style="opacity:1" fill="#101010" d="M 529.5,394.5 C 530.304,396.189 531.304,397.855 532.5,399.5C 532.192,400.308 531.692,400.975 531,401.5C 530.355,400.354 529.522,399.354 528.5,398.5C 529.246,397.264 529.579,395.93 529.5,394.5 Z"/></g>
<g><path style="opacity:1" fill="#876414" d="M 287.5,400.5 C 290.245,401.737 292.578,403.57 294.5,406C 293.421,406.956 292.255,407.789 291,408.5C 289.155,406.133 287.989,403.467 287.5,400.5 Z"/></g>
<g><path style="opacity:1" fill="#fec90d" d="M 280.5,401.5 C 281.5,401.5 282.5,401.5 283.5,401.5C 283.5,402.5 283.5,403.5 283.5,404.5C 282.5,404.5 281.5,404.5 280.5,404.5C 280.5,403.5 280.5,402.5 280.5,401.5 Z"/></g>
<g><path style="opacity:1" fill="#c0c0c0" d="M 262.5,411.5 C 262.918,412.222 263.584,412.722 264.5,413C 263.148,415.092 261.314,416.592 259,417.5C 248.652,415.043 238.152,413.543 227.5,413C 228.638,409.21 230.638,406.043 233.5,403.5C 235.628,402.371 237.961,402.204 240.5,403C 248.208,405.175 255.541,408.008 262.5,411.5 Z"/></g>
<g><path style="opacity:1" fill="#797979" d="M 307.5,405.5 C 308.75,405.577 309.583,406.244 310,407.5C 313.178,419.877 316.511,432.21 320,444.5C 321.333,446.5 322.667,448.5 324,450.5C 325.209,454.268 324.209,457.268 321,459.5C 318.142,457.635 315.642,455.468 313.5,453C 314.268,450.864 314.934,448.697 315.5,446.5C 311.727,433.568 307.727,420.735 303.5,408C 304.858,407.066 306.192,406.232 307.5,405.5 Z"/></g>
<g><path style="opacity:1" fill="#fec90d" d="M 285.5,407.5 C 285.5,408.5 285.5,409.5 285.5,410.5C 284.5,410.5 283.5,410.5 282.5,410.5C 282.5,409.5 282.5,408.5 282.5,407.5C 283.5,407.5 284.5,407.5 285.5,407.5 Z"/></g>
<g><path style="opacity:1" fill="#7e7f7e" d="M 267.5,408.5 C 269.775,415.224 272.775,421.724 276.5,428C 275.5,428.667 274.5,428.667 273.5,428C 270.397,421.857 268.397,415.357 267.5,408.5 Z"/></g>
<g><path style="opacity:1" fill="#d5d6d5" d="M 298.5,409.5 C 302.31,410.754 302.31,411.754 298.5,412.5C 298.5,411.5 298.5,410.5 298.5,409.5 Z"/></g>
<g><path style="opacity:1" fill="#7e7f7e" d="M 296.5,414.5 C 297.978,414.238 299.311,414.571 300.5,415.5C 294.563,417.871 288.563,419.704 282.5,421C 287.396,419.101 292.063,416.935 296.5,414.5 Z"/></g>
<g><path style="opacity:1" fill="#d5d6d5" d="M 301.5,417.5 C 303.956,419.818 305.289,422.818 305.5,426.5C 302.428,426.817 299.428,426.484 296.5,425.5C 299.544,423.739 301.211,421.072 301.5,417.5 Z"/></g>
<g><path style="opacity:1" fill="#1d1d1d" d="M 426.5,440.5 C 427.117,440.611 427.617,440.944 428,441.5C 429.113,447.677 430.279,453.843 431.5,460C 431.355,461.226 431.022,462.393 430.5,463.5C 435.203,471.895 439.037,480.562 442,489.5C 437.754,484.009 433.754,478.342 430,472.5C 429.667,469.833 429.333,467.167 429,464.5C 428.667,465.833 428.333,467.167 428,468.5C 424.506,461.685 422.006,454.518 420.5,447C 421.987,444.347 423.987,442.18 426.5,440.5 Z"/></g>
<g><path style="opacity:1" fill="#c0c0c0" d="M 198.5,453.5 C 201.604,458.938 206.27,461.938 212.5,462.5C 212.5,463.5 212.5,464.5 212.5,465.5C 215.685,465.02 218.519,465.686 221,467.5C 220.498,471.092 220.498,474.759 221,478.5C 222.301,480.402 222.968,482.402 223,484.5C 215.295,482.264 207.795,479.431 200.5,476C 197.217,472.603 194.551,468.77 192.5,464.5C 194.857,460.972 196.857,457.305 198.5,453.5 Z"/></g>
<g><path style="opacity:1" fill="#1c1c1c" d="M 187.5,463.5 C 188.097,463.735 188.43,464.235 188.5,465C 187.256,468.81 186.089,472.644 185,476.5C 179.059,480.778 175.059,486.444 173,493.5C 171.855,494.636 170.688,495.636 169.5,496.5C 166.493,498.175 163.16,498.841 159.5,498.5C 159.5,497.5 159.5,496.5 159.5,495.5C 160.102,481.207 163.269,467.541 169,454.5C 169.198,456.382 169.698,458.048 170.5,459.5C 173.764,458.073 176.264,455.739 178,452.5C 179,456.833 180,461.167 181,465.5C 181.561,466.022 182.228,466.355 183,466.5C 184.643,465.685 186.143,464.685 187.5,463.5 Z"/></g>
<g><path style="opacity:1" fill="#3f271b" d="M 227.5,469.5 C 229.47,471.647 231.303,473.98 233,476.5C 236.665,479.399 240.165,482.399 243.5,485.5C 237.971,486.559 232.305,486.393 226.5,485C 222.664,479.645 221.664,473.812 223.5,467.5C 225.199,467.527 226.533,468.194 227.5,469.5 Z"/></g>
<g><path style="opacity:1" fill="#c2c3c2" d="M 243.5,485.5 C 240.165,482.399 236.665,479.399 233,476.5C 231.303,473.98 229.47,471.647 227.5,469.5C 227.517,467.972 228.184,467.472 229.5,468C 235.531,474.366 241.864,480.366 248.5,486C 246.803,486.384 245.137,486.218 243.5,485.5 Z"/></g>
<g><path style="opacity:1" fill="#1c1c1c" d="M 435.5,487.5 C 437.803,489.978 439.969,492.645 442,495.5C 442.667,496.833 442.667,498.167 442,499.5C 440.416,503.675 438.082,507.341 435,510.5C 428.26,516.736 422.093,523.403 416.5,530.5C 411.991,529.797 411.658,527.797 415.5,524.5C 415.167,524.167 414.833,523.833 414.5,523.5C 413.086,524.624 411.586,525.624 410,526.5C 409.833,526.167 409.667,525.833 409.5,525.5C 410.963,523.271 411.797,520.937 412,518.5C 410,520.5 408,522.5 406,524.5C 406.003,522.144 406.503,519.811 407.5,517.5C 407.333,517.167 407.167,516.833 407,516.5C 406.292,517.381 405.458,518.047 404.5,518.5C 403.957,518.44 403.624,518.107 403.5,517.5C 407.981,509.64 408.981,501.473 406.5,493C 407.793,492.51 409.127,492.343 410.5,492.5C 410.285,490.821 410.952,489.821 412.5,489.5C 415.153,490.676 417.819,491.509 420.5,492C 419.167,490 417.833,488 416.5,486C 418.521,485.487 420.021,484.32 421,482.5C 423.748,484.458 426.582,486.291 429.5,488C 431.545,488.49 433.545,488.323 435.5,487.5 Z"/></g>
<g><path style="opacity:1" fill="#d5d6d5" d="M 394.5,487.5 C 396.49,487.993 396.49,489.16 394.5,491C 395.68,493.598 397.68,495.264 400.5,496C 397.622,497.599 394.956,499.433 392.5,501.5C 393.665,502.584 394.998,503.417 396.5,504C 392.203,505.158 387.869,506.158 383.5,507C 379.093,510.252 374.26,512.752 369,514.5C 357.166,508.835 354.332,511.835 360.5,523.5C 353.806,522.992 347.472,521.158 341.5,518C 347.428,510.068 354.095,502.735 361.5,496C 372.95,494.453 383.95,491.62 394.5,487.5 Z"/></g>
<g><path style="opacity:1" fill="#cccccc" d="M 159.5,495.5 C 159.5,496.5 159.5,497.5 159.5,498.5C 163.16,498.841 166.493,498.175 169.5,496.5C 170.239,496.369 170.906,496.536 171.5,497C 167.035,505.386 163.535,514.219 161,523.5C 157.387,524.957 153.72,526.291 150,527.5C 149.118,531.531 149.951,535.198 152.5,538.5C 147.895,542.978 142.895,543.144 137.5,539C 135.968,536.966 134.635,534.799 133.5,532.5C 136.762,528.735 140.262,525.068 144,521.5C 147.377,511.801 152.044,502.801 158,494.5C 158.383,495.056 158.883,495.389 159.5,495.5 Z"/></g>
<g><path style="opacity:1" fill="#d5d6d5" d="M 416.5,530.5 C 408.099,539.614 401.433,549.947 396.5,561.5C 395.833,561.833 395.167,562.167 394.5,562.5C 390.618,561.309 386.785,559.976 383,558.5C 382.228,558.645 381.561,558.978 381,559.5C 380.721,563.17 380.888,566.837 381.5,570.5C 374.67,569.664 369.004,566.664 364.5,561.5C 381.303,550.365 394.636,536.032 404.5,518.5C 405.458,518.047 406.292,517.381 407,516.5C 407.167,516.833 407.333,517.167 407.5,517.5C 406.503,519.811 406.003,522.144 406,524.5C 408,522.5 410,520.5 412,518.5C 411.797,520.937 410.963,523.271 409.5,525.5C 409.667,525.833 409.833,526.167 410,526.5C 411.586,525.624 413.086,524.624 414.5,523.5C 414.833,523.833 415.167,524.167 415.5,524.5C 411.658,527.797 411.991,529.797 416.5,530.5 Z"/></g>
<g><path style="opacity:1" fill="#442b1c" d="M 341.5,520.5 C 347.486,523.439 353.819,525.272 360.5,526C 358.773,529.393 356.106,531.726 352.5,533C 346.464,534.734 340.464,536.568 334.5,538.5C 333.417,537.635 333.251,536.635 334,535.5C 337.041,530.752 339.541,525.752 341.5,520.5 Z"/></g>
<g><path style="opacity:1" fill="#442b1c" d="M 130.5,536.5 C 131.552,536.351 132.552,536.517 133.5,537C 135.741,540.796 139.074,543.129 143.5,544C 140.353,545.128 137.02,545.628 133.5,545.5C 129.413,545.552 125.413,545.052 121.5,544C 124.106,540.882 127.106,538.382 130.5,536.5 Z"/></g>
<g><path style="opacity:1" fill="#442b1c" d="M 360.5,563.5 C 366.049,566.859 371.883,569.859 378,572.5C 379.762,574.465 379.096,575.465 376,575.5C 369.362,574.755 362.862,573.422 356.5,571.5C 355.417,570.635 355.251,569.635 356,568.5C 357.707,566.963 359.207,565.296 360.5,563.5 Z"/></g>
</svg>
