<?xml version="1.0" encoding="UTF-8"?>
<!DOCTYPE svg PUBLIC "-//W3C//DTD SVG 1.1//EN" "http://www.w3.org/Graphics/SVG/1.1/DTD/svg11.dtd">
<svg xmlns="http://www.w3.org/2000/svg" version="1.1" width="600px" height="600px" style="shape-rendering:geometricPrecision; text-rendering:geometricPrecision; image-rendering:optimizeQuality; fill-rule:evenodd; clip-rule:evenodd" xmlns:xlink="http://www.w3.org/1999/xlink">
<g><path style="opacity:1" fill="#000000" d="M 83.5,74.5 C 86.1873,74.3359 88.854,74.5026 91.5,75C 111,94.5 130.5,114 150,133.5C 150.333,137.5 150.667,141.5 151,145.5C 176.171,171.338 202.004,196.504 228.5,221C 236.031,228.197 243.198,235.697 250,243.5C 251.516,240.994 253.682,240.16 256.5,241C 258.235,243.192 259.402,245.692 260,248.5C 263.93,252.219 267.764,256.053 271.5,260C 274.905,261.469 278.072,263.303 281,265.5C 282.509,263.081 284.675,262.081 287.5,262.5C 287.335,259.482 287.502,256.482 288,253.5C 290.328,250.663 292.495,247.663 294.5,244.5C 297.008,242.123 299.508,239.789 302,237.5C 303.579,232.446 302.079,228.279 297.5,225C 294.341,224.989 291.507,224.155 289,222.5C 288.871,219.997 287.871,217.997 286,216.5C 284.857,212.206 284.023,207.873 283.5,203.5C 281.052,203.915 279.719,202.915 279.5,200.5C 280.048,198.444 281.214,196.777 283,195.5C 284.22,190.679 282.387,187.679 277.5,186.5C 274.649,183.717 274.983,181.384 278.5,179.5C 281.428,178.516 284.428,178.183 287.5,178.5C 288.065,173.851 288.565,169.184 289,164.5C 290,163.167 291,161.833 292,160.5C 293.088,154.122 295.088,148.122 298,142.5C 305.409,139.731 311.076,141.731 315,148.5C 315.318,144.805 315.818,141.138 316.5,137.5C 318.473,134.754 319.973,131.754 321,128.5C 327.081,126.194 332.081,127.528 336,132.5C 336.667,135.833 336.667,139.167 336,142.5C 331.959,147.066 329.126,152.4 327.5,158.5C 330.826,161.598 334.326,164.598 338,167.5C 338.167,169 338.333,170.5 338.5,172C 337.296,181.104 335.296,190.104 332.5,199C 333.091,201.239 333.758,203.406 334.5,205.5C 339.866,205.323 345.2,205.656 350.5,206.5C 353.92,205.626 357.253,204.459 360.5,203C 367.235,202.966 373.735,201.8 380,199.5C 381.167,199.667 382.333,199.833 383.5,200C 385.705,202.54 388.205,204.707 391,206.5C 391.888,210.983 393.054,215.316 394.5,219.5C 394.819,224.044 392.819,226.877 388.5,228C 390.348,229.518 391.848,231.351 393,233.5C 396.981,243.797 401.815,253.63 407.5,263C 409.84,270.038 412.173,277.038 414.5,284C 415.012,287.154 413.679,288.82 410.5,289C 409.833,290.333 409.167,291.667 408.5,293C 400.135,297.339 391.802,301.672 383.5,306C 385.925,311.742 389.592,313.075 394.5,310C 400.064,308.99 405.398,309.657 410.5,312C 415.532,317.701 420.199,323.701 424.5,330C 429.037,335.771 428.37,340.771 422.5,345C 418.546,346.154 414.546,346.987 410.5,347.5C 408.237,352.8 406.237,358.3 404.5,364C 406.744,381.613 410.577,398.78 416,415.5C 416.667,416.833 417.667,417.833 419,418.5C 420.264,422.636 422.097,426.47 424.5,430C 425.91,435.651 427.744,441.151 430,446.5C 431.153,457.151 432.153,467.818 433,478.5C 434.803,481.788 435.97,485.288 436.5,489C 435.998,492.461 434.664,495.461 432.5,498C 440.652,513.772 435.985,520.105 418.5,517C 416.139,516.803 414.472,515.636 413.5,513.5C 404.573,514.072 401.406,510.072 404,501.5C 405.745,500.044 407.578,498.711 409.5,497.5C 407.063,496.197 404.896,494.53 403,492.5C 404.161,483.095 403.661,473.762 401.5,464.5C 398.889,454.164 395.389,444.164 391,434.5C 390,433.833 389,433.167 388,432.5C 382.577,418 376.91,403.667 371,389.5C 370.311,388.643 369.478,387.977 368.5,387.5C 353.785,397.711 342.952,411.044 336,427.5C 333.536,428.795 332.036,430.795 331.5,433.5C 331.828,437.439 331.995,441.439 332,445.5C 333.74,448.909 334.74,452.576 335,456.5C 335.073,469.231 335.907,481.898 337.5,494.5C 337.364,496.865 337.03,499.198 336.5,501.5C 337.472,505.084 338.805,508.417 340.5,511.5C 338.828,515.683 336.161,519.183 332.5,522C 317.19,525.062 301.857,525.062 286.5,522C 284.841,516.91 285.341,512.076 288,507.5C 291.333,506.167 294.667,506.167 298,507.5C 301.2,506.394 304.034,504.727 306.5,502.5C 308.963,499.041 308.129,496.375 304,494.5C 303.768,482.805 303.102,471.138 302,459.5C 299.323,447.264 297.157,434.931 295.5,422.5C 295.295,418.54 296.128,414.873 298,411.5C 305.023,396.944 312.523,382.61 320.5,368.5C 317.495,364.494 314.995,360.16 313,355.5C 312.806,346.698 311.639,338.031 309.5,329.5C 306.31,333.087 302.31,334.254 297.5,333C 296.087,330.798 294.587,328.632 293,326.5C 292.519,322.236 291.353,318.236 289.5,314.5C 280.744,322.398 272.244,322.398 264,314.5C 262.379,312.507 260.713,310.507 259,308.5C 257.101,302.29 254.768,296.29 252,290.5C 251,288.833 249.667,287.5 248,286.5C 247.662,281.453 246.995,276.453 246,271.5C 242.667,268.167 239.333,264.833 236,261.5C 235.667,259.167 235.333,256.833 235,254.5C 224.5,244 214,233.5 203.5,223C 202.167,222.667 200.833,222.333 199.5,222C 191.333,213.833 183.167,205.667 175,197.5C 173.827,193.663 171.827,190.329 169,187.5C 158.602,176.773 148.602,165.773 139,154.5C 138.5,152.5 138,150.5 137.5,148.5C 138.396,146.199 138.562,143.866 138,141.5C 120,121.5 102,101.5 84,81.5C 82.9525,79.0794 82.7858,76.7461 83.5,74.5 Z"/></g>
<g><path style="opacity:1" fill="#c2c3c2" d="M 85.5,77.5 C 86.2506,76.4265 87.2506,76.2599 88.5,77C 107.667,96.1667 126.833,115.333 146,134.5C 146.333,138.833 146.667,143.167 147,147.5C 149.869,150.704 153.035,153.537 156.5,156C 154.953,157.849 153.119,159.349 151,160.5C 142.741,155.731 139.408,148.731 141,139.5C 122.717,118.572 104.217,97.9055 85.5,77.5 Z"/></g>
<g><path style="opacity:1" fill="#fefffe" d="M 324.5,131.5 C 329.155,130.819 331.822,132.819 332.5,137.5C 330.808,141.73 328.641,145.73 326,149.5C 326.171,155.443 323.671,156.943 318.5,154C 319.272,148.538 320.105,143.038 321,137.5C 322.936,135.963 324.103,133.963 324.5,131.5 Z"/></g>
<g><path style="opacity:1" fill="#6c6c6c" d="M 314.5,156.5 C 317.748,156.416 320.748,157.249 323.5,159C 325.22,162.086 324.553,164.419 321.5,166C 319.167,166.667 316.833,166.667 314.5,166C 313.605,162.905 313.605,159.738 314.5,156.5 Z"/></g>
<g><path style="opacity:1" fill="#c2c3c2" d="M 157.5,160.5 C 158.251,159.427 159.251,159.26 160.5,160C 190.667,189.5 220.833,219 251,248.5C 251.667,249.833 251.667,251.167 251,252.5C 220.082,221.078 188.916,190.412 157.5,160.5 Z"/></g>
<g><path style="opacity:1" fill="#b87a56" d="M 153.5,160.5 C 168.611,175.11 183.611,189.944 198.5,205C 201.369,206.748 204.036,208.748 206.5,211C 221.167,225.667 235.833,240.333 250.5,255C 248.714,255.785 247.214,256.951 246,258.5C 245.667,257.167 245.333,255.833 245,254.5C 232.196,242.696 219.696,230.53 207.5,218C 206.167,217.667 204.833,217.333 203.5,217C 195.077,207.906 186.077,199.572 176.5,192C 168.167,182.333 159.833,172.667 151.5,163C 152.381,162.292 153.047,161.458 153.5,160.5 Z"/></g>
<g><path style="opacity:1" fill="#fefffe" d="M 316.5,161.5 C 317.5,161.5 318.5,161.5 319.5,161.5C 319.5,162.5 319.5,163.5 319.5,164.5C 318.5,164.5 317.5,164.5 316.5,164.5C 316.5,163.5 316.5,162.5 316.5,161.5 Z"/></g>
<g><path style="opacity:1" fill="#fefffe" d="M 309.5,163.5 C 310.043,163.56 310.376,163.893 310.5,164.5C 309.258,166.733 307.924,168.899 306.5,171C 303.167,173.333 299.833,175.667 296.5,178C 295.167,178.667 293.833,178.667 292.5,178C 295.059,175.561 297.392,172.895 299.5,170C 303.069,168.058 306.402,165.892 309.5,163.5 Z"/></g>
<g><path style="opacity:1" fill="#7e7f7e" d="M 286.5,180.5 C 287.601,179.402 288.934,179.235 290.5,180C 296.663,182.551 302.663,185.384 308.5,188.5C 308.167,188.833 307.833,189.167 307.5,189.5C 300.595,186.212 293.595,183.212 286.5,180.5 Z"/></g>
<g><path style="opacity:1" fill="#66402c" d="M 308.5,193.5 C 307.714,198.891 305.88,203.891 303,208.5C 301.274,209.576 299.441,209.743 297.5,209C 296.978,208.439 296.645,207.772 296.5,207C 298.726,205.232 300.393,203.065 301.5,200.5C 302.244,197.64 302.911,194.64 303.5,191.5C 305.045,190.548 306.712,190.215 308.5,190.5C 308.5,191.5 308.5,192.5 308.5,193.5 Z"/></g>
<g><path style="opacity:1" fill="#f3a381" d="M 291.5,195.5 C 292.812,194.855 293.812,193.855 294.5,192.5C 296.743,191.526 299.076,191.192 301.5,191.5C 301.5,194.5 301.5,197.5 301.5,200.5C 300.393,203.065 298.726,205.232 296.5,207C 296.645,207.772 296.978,208.439 297.5,209C 299.441,209.743 301.274,209.576 303,208.5C 305.88,203.891 307.714,198.891 308.5,193.5C 310.353,190.978 312.353,190.978 314.5,193.5C 315.474,195.743 315.808,198.076 315.5,200.5C 314.354,202.475 312.687,203.975 310.5,205C 312.609,205.907 313.942,207.407 314.5,209.5C 314.489,211.017 313.823,212.184 312.5,213C 308.319,214.513 304.652,216.846 301.5,220C 298.401,222.389 295.067,222.889 291.5,221.5C 291.128,218.534 289.795,216.2 287.5,214.5C 293.95,211.349 293.45,209.016 286,207.5C 285.464,205.433 285.964,203.599 287.5,202C 280.908,202.113 280.074,200.28 285,196.5C 285.494,194.866 285.66,193.199 285.5,191.5C 289.099,191.262 289.433,192.262 286.5,194.5C 287.655,195.95 289.155,196.95 291,197.5C 291.464,196.906 291.631,196.239 291.5,195.5 Z"/></g>
<g><path style="opacity:1" fill="#fefffe" d="M 176.5,194.5 C 176.897,193.475 177.563,193.308 178.5,194C 186.5,202 194.5,210 202.5,218C 203.833,218.333 205.167,218.667 206.5,219C 218.833,231.333 231.167,243.667 243.5,256C 242.833,256.667 242.167,256.667 241.5,256C 228.974,244.23 216.641,232.23 204.5,220C 203.167,219.667 201.833,219.333 200.5,219C 192.27,210.938 184.27,202.772 176.5,194.5 Z"/></g>
<g><path style="opacity:1" fill="#fefffe" d="M 291.5,195.5 C 290.711,195.217 290.044,194.717 289.5,194C 290.816,193.472 291.483,193.972 291.5,195.5 Z"/></g>
<g><path style="opacity:1" fill="#000000" d="M 311.5,193.5 C 312.932,196.267 312.599,198.934 310.5,201.5C 310.011,198.886 310.344,196.22 311.5,193.5 Z"/></g>
<g><path style="opacity:1" fill="#835236" d="M 314.5,209.5 C 313.942,207.407 312.609,205.907 310.5,205C 312.687,203.975 314.354,202.475 315.5,200.5C 316.461,198.735 316.795,196.735 316.5,194.5C 319.358,194.595 321.691,195.762 323.5,198C 325.473,198.495 327.473,198.662 329.5,198.5C 329.363,202.179 330.029,205.679 331.5,209C 325.796,212.009 320.129,212.176 314.5,209.5 Z"/></g>
<g><path style="opacity:1" fill="#fefffe" d="M 378.5,205.5 C 378.369,204.761 378.536,204.094 379,203.5C 384.512,208.439 387.512,214.439 388,221.5C 387.902,223.619 387.069,225.286 385.5,226.5C 384.495,225.89 384.662,225.224 386,224.5C 386.995,221.874 387.328,219.207 387,216.5C 384.714,212.384 381.88,208.717 378.5,205.5 Z"/></g>
<g><path style="opacity:1" fill="#7e7f7e" d="M 378.5,205.5 C 381.144,209.819 383.811,214.152 386.5,218.5C 385.694,221.446 384.361,224.112 382.5,226.5C 376.848,227.37 371.181,228.037 365.5,228.5C 364.654,220.795 361.321,214.295 355.5,209C 362.902,205.769 370.568,204.603 378.5,205.5 Z"/></g>
<g><path style="opacity:1" fill="#7e7f7e" d="M 382.5,205.5 C 382.56,204.957 382.893,204.624 383.5,204.5C 388.676,209.47 391.176,215.47 391,222.5C 390.581,223.672 389.915,224.672 389,225.5C 389.502,221.908 389.502,218.241 389,214.5C 387.278,211.133 385.111,208.133 382.5,205.5 Z"/></g>
<g><path style="opacity:1" fill="#6b6b6b" d="M 335.5,208.5 C 341.947,207.42 347.613,208.92 352.5,213C 353.96,216.089 355.793,218.922 358,221.5C 358.498,224.482 358.665,227.482 358.5,230.5C 356.473,230.338 354.473,230.505 352.5,231C 346.205,233.797 340.372,237.297 335,241.5C 331.825,240.314 330.159,237.981 330,234.5C 326.717,232.134 325.217,228.801 325.5,224.5C 325.682,221.774 326.182,219.107 327,216.5C 329.375,213.29 332.208,210.624 335.5,208.5 Z"/></g>
<g><path style="opacity:1" fill="#fef200" d="M 314.5,213.5 C 318.514,213.334 322.514,213.501 326.5,214C 324.077,217.753 323.077,221.92 323.5,226.5C 321.801,226.34 320.134,226.506 318.5,227C 314.363,230.054 309.863,231.221 305,230.5C 302.836,228.189 301.836,225.522 302,222.5C 305.651,218.609 309.818,215.609 314.5,213.5 Z"/></g>
<g><path style="opacity:1" fill="#fefffe" d="M 355.5,213.5 C 357.337,213.639 357.67,214.306 356.5,215.5C 355.702,215.043 355.369,214.376 355.5,213.5 Z"/></g>
<g><path style="opacity:1" fill="#fefffe" d="M 358.5,217.5 C 361.944,220.3 363.61,223.967 363.5,228.5C 362.5,228.5 361.5,228.5 360.5,228.5C 360.584,224.669 359.917,221.002 358.5,217.5 Z"/></g>
<g><path style="opacity:1" fill="#fefffe" d="M 319.5,228.5 C 321.167,228.5 322.833,228.5 324.5,228.5C 324.34,230.199 324.506,231.866 325,233.5C 327.064,235.243 327.564,237.243 326.5,239.5C 319.868,238.494 313.201,238.494 306.5,239.5C 306.5,237.5 306.5,235.5 306.5,233.5C 311.368,232.881 315.702,231.215 319.5,228.5 Z"/></g>
<g><path style="opacity:1" fill="#fefffe" d="M 383.5,230.5 C 384.239,230.369 384.906,230.536 385.5,231C 387.046,233.257 388.712,235.424 390.5,237.5C 392.803,244.765 395.637,251.765 399,258.5C 400,259.5 401,260.5 402,261.5C 404.391,267.949 407.058,274.282 410,280.5C 410.667,282.5 410.667,284.5 410,286.5C 406.265,275.141 401.265,264.475 395,254.5C 394.133,249.88 392.133,245.88 389,242.5C 387.63,238.195 385.797,234.195 383.5,230.5 Z"/></g>
<g><path style="opacity:1" fill="#fefffe" d="M 363.5,232.5 C 365.377,231.375 367.21,231.709 369,233.5C 377.817,251.633 386.817,269.633 396,287.5C 397.102,290.905 396.268,293.572 393.5,295.5C 393.236,291.915 392.403,288.248 391,284.5C 386.712,276.193 382.378,267.86 378,259.5C 375.869,252.578 373.202,245.911 370,239.5C 367.817,237.093 365.65,234.76 363.5,232.5 Z"/></g>
<g><path style="opacity:1" fill="#a5a5a5" d="M 316.5,243.5 C 322.144,248.812 326.81,254.812 330.5,261.5C 330.167,261.5 329.833,261.5 329.5,261.5C 326.998,259.83 324.998,257.664 323.5,255C 321.934,254.7 320.601,255.2 319.5,256.5C 316.929,254.422 316.929,252.256 319.5,250C 317.86,247.946 316.194,247.613 314.5,249C 310.499,250.16 309.165,248.994 310.5,245.5C 312.199,245.66 313.866,245.494 315.5,245C 313.212,244.178 310.878,243.511 308.5,243C 311.192,242.57 313.859,242.737 316.5,243.5 Z"/></g>
<g><path style="opacity:1" fill="#f9a884" d="M 253.5,243.5 C 254.117,243.611 254.617,243.944 255,244.5C 256,250.184 257.5,255.684 259.5,261C 255.148,262.682 251.314,265.182 248,268.5C 243.946,265.947 240.779,262.614 238.5,258.5C 238.833,257.833 239.167,257.167 239.5,256.5C 244.782,262.062 249.282,261.395 253,254.5C 253.499,250.848 253.665,247.182 253.5,243.5 Z"/></g>
<g><path style="opacity:1" fill="#fefffe" d="M 307.5,245.5 C 302.186,245.761 301.686,245.094 306,243.5C 307.03,243.836 307.53,244.503 307.5,245.5 Z"/></g>
<g><path style="opacity:1" fill="#ec1c23" d="M 307.5,245.5 C 308.652,244.375 309.652,244.375 310.5,245.5C 309.165,248.994 310.499,250.16 314.5,249C 316.194,247.613 317.86,247.946 319.5,250C 316.929,252.256 316.929,254.422 319.5,256.5C 318.391,256.443 317.391,256.11 316.5,255.5C 316.5,254.167 315.833,253.5 314.5,253.5C 312.109,251.638 309.442,250.304 306.5,249.5C 303.695,248.681 300.695,248.181 297.5,248C 299.055,243.89 301.388,243.39 304.5,246.5C 305.726,246.48 306.726,246.147 307.5,245.5 Z"/></g>
<g><path style="opacity:1" fill="#fec90d" d="M 382.5,248.5 C 385.997,247.891 388.663,249.057 390.5,252C 392.839,256.203 393.839,260.703 393.5,265.5C 392.07,265.579 390.736,265.246 389.5,264.5C 387.727,261.94 385.727,259.607 383.5,257.5C 382.593,254.579 382.26,251.579 382.5,248.5 Z"/></g>
<g><path style="opacity:1" fill="#e2e2e2" d="M 306.5,249.5 C 309.442,250.304 312.109,251.638 314.5,253.5C 314.833,254.5 315.5,255.167 316.5,255.5C 317.391,256.11 318.391,256.443 319.5,256.5C 320.453,258.61 322.119,259.777 324.5,260C 326.141,261.129 327.141,262.629 327.5,264.5C 328.209,265.404 329.209,265.737 330.5,265.5C 330.5,264.167 330.5,262.833 330.5,261.5C 332.033,263.634 332.7,266.134 332.5,269C 332.333,270.833 332.167,272.667 332,274.5C 331.275,275.059 330.442,275.392 329.5,275.5C 322.808,268.977 315.141,263.811 306.5,260C 301.771,259.004 297.271,259.504 293,261.5C 292.667,262.833 292.333,264.167 292,265.5C 290.977,261.683 291.477,258.183 293.5,255C 310.833,254.333 310.833,253.667 293.5,253C 294.833,252.333 295.833,251.333 296.5,250C 299.817,249.502 303.15,249.335 306.5,249.5 Z"/></g>
<g><path style="opacity:1" fill="#c2c3c2" d="M 259.5,251.5 C 261.66,253.325 263.16,255.659 264,258.5C 264.903,259.701 266.069,260.535 267.5,261C 265.191,261.756 263.191,261.256 261.5,259.5C 260.451,256.92 259.784,254.254 259.5,251.5 Z"/></g>
<g><path style="opacity:1" fill="#000000" d="M 314.5,253.5 C 315.833,253.5 316.5,254.167 316.5,255.5C 315.5,255.167 314.833,254.5 314.5,253.5 Z"/></g>
<g><path style="opacity:1" fill="#ec1c23" d="M 329.5,261.5 C 329.715,263.179 329.048,264.179 327.5,264.5C 327.141,262.629 326.141,261.129 324.5,260C 322.119,259.777 320.453,258.61 319.5,256.5C 320.601,255.2 321.934,254.7 323.5,255C 324.998,257.664 326.998,259.83 329.5,261.5 Z"/></g>
<g><path style="opacity:1" fill="#ba0f16" d="M 338.5,254.5 C 344.508,260.06 348.008,267.06 349,275.5C 349.667,276.833 350.667,277.833 352,278.5C 352.409,282.491 353.576,286.157 355.5,289.5C 351.473,288.861 347.473,288.028 343.5,287C 342.167,286 342.167,285 343.5,284C 345.5,283.667 347.5,283.333 349.5,283C 345.131,273.72 341.464,264.22 338.5,254.5 Z"/></g>
<g><path style="opacity:1" fill="#fefffe" d="M 362.5,258.5 C 364.655,258.372 366.655,258.872 368.5,260C 364.167,263 359.833,266 355.5,269C 354.552,269.483 353.552,269.649 352.5,269.5C 352.298,267.011 352.798,264.677 354,262.5C 357.047,261.438 359.88,260.105 362.5,258.5 Z"/></g>
<g><path style="opacity:1" fill="#e61c23" d="M 338.5,254.5 C 341.464,264.22 345.131,273.72 349.5,283C 347.5,283.333 345.5,283.667 343.5,284C 342.167,285 342.167,286 343.5,287C 347.473,288.028 351.473,288.861 355.5,289.5C 355.5,290.5 355.5,291.5 355.5,292.5C 357.359,292.461 358.692,293.294 359.5,295C 346.984,295.408 334.651,294.074 322.5,291C 323.696,290.346 323.696,289.846 322.5,289.5C 319.78,291.111 316.78,291.944 313.5,292C 310.5,293.667 308.167,296 306.5,299C 304.385,299.557 302.385,300.391 300.5,301.5C 298.024,304.232 295.357,306.732 292.5,309C 288.005,310.811 284.005,313.478 280.5,317C 277.5,317.667 274.5,317.667 271.5,317C 261.238,306.969 256.072,295.469 256,282.5C 257.385,281.449 258.385,280.116 259,278.5C 269.455,273.62 274.788,276.953 275,288.5C 275.791,287.255 276.291,285.922 276.5,284.5C 277.492,284.672 278.158,284.338 278.5,283.5C 280.359,282.406 282.359,281.573 284.5,281C 288.808,275.107 292.642,268.94 296,262.5C 300.657,261.06 305.157,261.56 309.5,264C 315.784,267.629 321.451,271.962 326.5,277C 327.448,277.483 328.448,277.649 329.5,277.5C 329.5,278.5 329.5,279.5 329.5,280.5C 330.167,279.5 330.833,278.5 331.5,277.5C 331.5,278.5 331.5,279.5 331.5,280.5C 334.521,281.005 337.521,281.672 340.5,282.5C 344.094,281.876 344.428,280.376 341.5,278C 338.94,277.616 336.606,276.783 334.5,275.5C 334.666,270.821 334.499,266.155 334,261.5C 329.544,255.375 324.711,249.542 319.5,244C 318.552,243.517 317.552,243.351 316.5,243.5C 315.638,240.983 316.805,239.983 320,240.5C 326.725,241.172 332.725,243.505 338,247.5C 338.497,249.81 338.663,252.143 338.5,254.5 Z"/></g>
<g><path style="opacity:1" fill="#000000" d="M 329.5,261.5 C 329.833,261.5 330.167,261.5 330.5,261.5C 330.5,262.833 330.5,264.167 330.5,265.5C 329.209,265.737 328.209,265.404 327.5,264.5C 329.048,264.179 329.715,263.179 329.5,261.5 Z"/></g>
<g><path style="opacity:1" fill="#fef200" d="M 251.5,269.5 C 253.497,266.157 256.497,264.49 260.5,264.5C 264.694,262.612 268.194,263.612 271,267.5C 272.504,270.684 274.004,273.851 275.5,277C 272.666,275.063 269.333,274.23 265.5,274.5C 263.5,274.667 261.5,274.833 259.5,275C 259,275.5 258.5,276 258,276.5C 258.408,271.742 256.241,269.409 251.5,269.5 Z"/></g>
<g><path style="opacity:1" fill="#000000" d="M 260.5,264.5 C 266.02,263.868 268.853,266.201 269,271.5C 261.813,273.863 258.98,271.53 260.5,264.5 Z"/></g>
<g><path style="opacity:1" fill="#fefffe" d="M 261.5,265.5 C 264.731,265.559 267.065,267.059 268.5,270C 266.244,271.867 263.91,271.867 261.5,270C 260.272,268.51 260.272,267.01 261.5,265.5 Z"/></g>
<g><path style="opacity:1" fill="#c2c3c2" d="M 273.5,265.5 C 274.978,265.238 276.311,265.571 277.5,266.5C 277.968,268.134 278.968,269.3 280.5,270C 279.271,271.529 277.771,272.696 276,273.5C 274.856,270.92 274.022,268.253 273.5,265.5 Z"/></g>
<g><path style="opacity:1" fill="#c2c3c2" d="M 285.5,266.5 C 286.88,266.962 287.547,267.962 287.5,269.5C 285.551,271.792 284.551,274.459 284.5,277.5C 282.286,277.709 280.619,276.876 279.5,275C 281.705,272.298 283.705,269.464 285.5,266.5 Z"/></g>
<g><path style="opacity:1" fill="#fef200" d="M 251.5,269.5 C 251.337,271.857 251.503,274.19 252,276.5C 253.399,277.227 254.899,277.727 256.5,278C 254.348,280.12 252.848,282.62 252,285.5C 251.333,284.833 250.667,284.167 250,283.5C 249.682,279.805 249.182,276.138 248.5,272.5C 248.868,270.825 249.868,269.825 251.5,269.5 Z"/></g>
<g><path style="opacity:1" fill="#fefffe" d="M 252.5,270.5 C 256.647,271.6 257.313,273.6 254.5,276.5C 252.717,274.977 252.051,272.977 252.5,270.5 Z"/></g>
<g><path style="opacity:1" fill="#ba0f16" d="M 334.5,275.5 C 336.606,276.783 338.94,277.616 341.5,278C 344.428,280.376 344.094,281.876 340.5,282.5C 337.521,281.672 334.521,281.005 331.5,280.5C 331.5,279.5 331.5,278.5 331.5,277.5C 332.71,277.068 333.71,276.401 334.5,275.5 Z"/></g>
<g><path style="opacity:1" fill="#000000" d="M 329.5,280.5 C 329.128,283.716 327.794,284.216 325.5,282C 326.901,281.59 328.234,281.09 329.5,280.5 Z"/></g>
<g><path style="opacity:1" fill="#946247" d="M 278.5,283.5 C 278.158,284.338 277.492,284.672 276.5,284.5C 275.596,283.791 275.263,282.791 275.5,281.5C 277.179,281.285 278.179,281.952 278.5,283.5 Z"/></g>
<g><path style="opacity:1" fill="#fefffe" d="M 315.5,293.5 C 330.143,295.298 344.809,296.964 359.5,298.5C 360.09,299.799 361.09,300.632 362.5,301C 346.56,302.139 330.893,300.639 315.5,296.5C 315.5,295.5 315.5,294.5 315.5,293.5 Z"/></g>
<g><path style="opacity:1" fill="#870014" d="M 324.5,366.5 C 320.827,364.201 318.327,360.867 317,356.5C 316.485,346.378 315.152,336.378 313,326.5C 312.333,316.167 312.333,305.833 313,295.5C 313.368,296.91 314.201,297.91 315.5,298.5C 315.989,311.266 317.322,323.933 319.5,336.5C 317.676,342.39 317.176,348.39 318,354.5C 319.994,358.643 322.161,362.643 324.5,366.5 Z"/></g>
<g><path style="opacity:1" fill="#fef200" d="M 308.5,298.5 C 309.629,300.628 309.796,302.961 309,305.5C 307.978,304.646 307.145,303.646 306.5,302.5C 307.63,301.378 308.297,300.044 308.5,298.5 Z"/></g>
<g><path style="opacity:1" fill="#ec1c23" d="M 318.5,299.5 C 329.987,302.216 341.654,303.549 353.5,303.5C 353.174,306.311 352.341,308.978 351,311.5C 350.667,315.833 350.333,320.167 350,324.5C 349.586,324.957 349.086,325.291 348.5,325.5C 345.422,323.87 342.089,323.037 338.5,323C 332.314,317.313 325.981,311.813 319.5,306.5C 318.526,304.257 318.192,301.924 318.5,299.5 Z"/></g>
<g><path style="opacity:1" fill="#b87a56" d="M 302.5,303.5 C 308.243,306.383 310.91,311.05 310.5,317.5C 310.167,320.167 309.833,322.833 309.5,325.5C 306.727,326.97 303.894,328.303 301,329.5C 299.347,329.18 298.347,328.18 298,326.5C 296.812,321.72 295.312,317.053 293.5,312.5C 296.521,309.479 299.521,306.479 302.5,303.5 Z"/></g>
<g><path style="opacity:1" fill="#fefffe" d="M 358.5,305.5 C 357.737,304.732 356.737,304.232 355.5,304C 358.379,303.126 361.045,303.46 363.5,305C 361.866,305.494 360.199,305.66 358.5,305.5 Z"/></g>
<g><path style="opacity:1" fill="#fec90d" d="M 358.5,305.5 C 359.568,306.434 360.901,306.768 362.5,306.5C 362.5,307.833 362.5,309.167 362.5,310.5C 361.5,310.5 360.5,310.5 359.5,310.5C 358.486,309.326 357.153,308.66 355.5,308.5C 355.5,307.5 355.5,306.5 355.5,305.5C 356.5,305.5 357.5,305.5 358.5,305.5 Z"/></g>
<g><path style="opacity:1" fill="#ededed" d="M 382.5,317.5 C 380.712,316.378 378.712,316.211 376.5,317C 374.947,319.362 372.78,320.862 370,321.5C 369.805,320.181 369.972,318.847 370.5,317.5C 370.973,316.094 371.973,315.427 373.5,315.5C 374.477,312.713 374.81,309.713 374.5,306.5C 375.93,306.579 377.264,306.246 378.5,305.5C 379.281,306.729 379.781,308.062 380,309.5C 382.485,310.987 384.652,312.821 386.5,315C 385.307,316.095 383.973,316.928 382.5,317.5 Z"/></g>
<g><path style="opacity:1" fill="#870014" d="M 324.5,366.5 C 327.843,367.224 331.176,368.057 334.5,369C 340.626,369.638 346.626,368.971 352.5,367C 354.333,364.5 356.5,362.333 359,360.5C 359.376,357.99 360.21,355.657 361.5,353.5C 362.012,337.765 363.179,322.098 365,306.5C 367.063,310.496 367.897,314.829 367.5,319.5C 365.921,332.47 364.421,345.47 363,358.5C 359.507,362.993 355.673,367.159 351.5,371C 344.833,371.667 338.167,371.667 331.5,371C 329.276,369.219 326.942,367.719 324.5,366.5 Z"/></g>
<g><path style="opacity:1" fill="#ec1c23" d="M 373.5,315.5 C 371.973,315.427 370.973,316.094 370.5,317.5C 369.842,316.207 369.508,314.707 369.5,313C 369.561,310.358 370.561,308.191 372.5,306.5C 373.484,309.428 373.817,312.428 373.5,315.5 Z"/></g>
<g><path style="opacity:1" fill="#fefffe" d="M 318.5,308.5 C 324.147,313.143 329.814,317.81 335.5,322.5C 336.833,323.5 336.833,324.5 335.5,325.5C 333.189,326.497 330.856,326.997 328.5,327C 326.833,322.162 323.833,318.328 319.5,315.5C 318.526,313.257 318.192,310.924 318.5,308.5 Z"/></g>
<g><path style="opacity:1" fill="#cfcfcf" d="M 355.5,308.5 C 357.153,308.66 358.486,309.326 359.5,310.5C 361.075,312.114 361.741,314.114 361.5,316.5C 360.5,316.5 359.5,316.5 358.5,316.5C 356.597,316.204 354.93,315.537 353.5,314.5C 353.054,311.99 353.72,309.99 355.5,308.5 Z"/></g>
<g><path style="opacity:1" fill="#000000" d="M 376.5,311.5 C 382.982,313.049 382.982,314.049 376.5,314.5C 376.5,313.5 376.5,312.5 376.5,311.5 Z"/></g>
<g><path style="opacity:1" fill="#fec90d" d="M 353.5,314.5 C 354.93,315.537 356.597,316.204 358.5,316.5C 359.209,317.404 360.209,317.737 361.5,317.5C 361.5,318.833 361.5,320.167 361.5,321.5C 357.766,321.982 354.933,320.649 353,317.5C 352.26,316.251 352.427,315.251 353.5,314.5 Z"/></g>
<g><path style="opacity:1" fill="#ec1c23" d="M 318.5,317.5 C 324.387,320.672 326.22,325.338 324,331.5C 323,332.167 322,332.833 321,333.5C 320.002,328.18 319.169,322.847 318.5,317.5 Z"/></g>
<g><path style="opacity:1" fill="#e41c22" d="M 382.5,317.5 C 384.452,320.244 385.952,323.244 387,326.5C 388.333,327.167 389.667,327.833 391,328.5C 391.438,331.376 392.438,334.043 394,336.5C 397.087,339.295 399.92,342.295 402.5,345.5C 403.917,350.158 403.584,354.658 401.5,359C 395.012,361.456 388.345,363.289 381.5,364.5C 381.664,361.813 381.497,359.146 381,356.5C 377.678,347.298 374.511,337.965 371.5,328.5C 371.79,326.956 372.456,325.623 373.5,324.5C 372.975,323.808 372.308,323.308 371.5,323C 372.766,322.691 373.933,322.191 375,321.5C 379.864,331.322 385.364,340.655 391.5,349.5C 392.223,347.836 391.89,346.169 390.5,344.5C 385.558,336.941 380.892,329.274 376.5,321.5C 378.289,319.863 380.289,318.53 382.5,317.5 Z"/></g>
<g><path style="opacity:1" fill="#4d4e4d" d="M 398.5,317.5 C 403.482,323.429 408.482,329.429 413.5,335.5C 416.5,336.167 419.5,336.833 422.5,337.5C 419.893,338.318 417.226,338.818 414.5,339C 407.766,346.466 407.099,345.966 412.5,337.5C 407.394,331.074 402.727,324.407 398.5,317.5 Z"/></g>
<g><path style="opacity:1" fill="#fefffe" d="M 352.5,320.5 C 354.82,322.226 357.487,322.893 360.5,322.5C 360.666,326.514 360.499,330.514 360,334.5C 354.602,331.296 352.102,326.63 352.5,320.5 Z"/></g>
<g><path style="opacity:1" fill="#736635" d="M 368.5,323.5 C 368.755,328.479 370.255,333.146 373,337.5C 374.98,344.111 376.98,350.778 379,357.5C 380.33,363.799 380.996,370.132 381,376.5C 378.715,377.819 376.548,379.319 374.5,381C 361.833,382.145 349.166,383.311 336.5,384.5C 335.167,384.167 333.833,383.833 332.5,383.5C 331.355,380.252 330.521,376.919 330,373.5C 329.075,372.953 328.242,372.287 327.5,371.5C 329.123,370.524 330.457,371.024 331.5,373C 337.833,373.667 344.167,373.667 350.5,373C 355.634,368.867 360.468,364.367 365,359.5C 366.396,347.52 367.563,335.52 368.5,323.5 Z"/></g>
<g><path style="opacity:1" fill="#00a1e8" d="M 335.5,331.5 C 335.5,330.167 335.5,328.833 335.5,327.5C 337.833,327.5 340.167,327.5 342.5,327.5C 342.5,328.833 342.5,330.167 342.5,331.5C 340.167,331.5 337.833,331.5 335.5,331.5 Z"/></g>
<g><path style="opacity:1" fill="#049ee3" d="M 343.5,327.5 C 346.32,327.248 348.986,327.748 351.5,329C 352.976,331.643 354.976,333.81 357.5,335.5C 358.802,338.708 359.469,342.041 359.5,345.5C 358.167,345.5 356.833,345.5 355.5,345.5C 354.813,338.481 351.146,333.814 344.5,331.5C 343.571,330.311 343.238,328.978 343.5,327.5 Z"/></g>
<g><path style="opacity:1" fill="#059de1" d="M 335.5,331.5 C 327.27,334.923 323.27,341.256 323.5,350.5C 322.167,350.5 320.833,350.5 319.5,350.5C 318.882,343.085 321.215,336.918 326.5,332C 328.871,330.121 331.538,328.955 334.5,328.5C 334.263,329.791 334.596,330.791 335.5,331.5 Z"/></g>
<g><path style="opacity:1" fill="#158cc8" d="M 349.5,347.5 C 343.442,349.579 337.109,350.913 330.5,351.5C 329.178,351.67 328.011,351.337 327,350.5C 326.505,348.527 326.338,346.527 326.5,344.5C 330.056,344.725 330.39,343.892 327.5,342C 329.558,338.098 332.891,336.431 337.5,337C 336.167,336.667 334.833,336.333 333.5,336C 339.259,332.512 344.592,333.179 349.5,338C 348.833,338.333 348.167,338.667 347.5,339C 351.851,339.46 353.851,341.96 353.5,346.5C 351.901,346.232 350.568,346.566 349.5,347.5 Z"/></g>
<g><path style="opacity:1" fill="#00a1e8" d="M 349.5,347.5 C 350.833,347.5 352.167,347.5 353.5,347.5C 353.88,352.778 351.546,355.444 346.5,355.5C 342.958,355.187 339.625,355.521 336.5,356.5C 332.831,357.303 330.164,356.136 328.5,353C 329.416,352.722 330.082,352.222 330.5,351.5C 337.109,350.913 343.442,349.579 349.5,347.5 Z"/></g>
<g><path style="opacity:1" fill="#1689c3" d="M 346.5,355.5 C 350.099,355.262 350.433,356.262 347.5,358.5C 342.349,361.307 337.349,361.14 332.5,358C 334.058,357.79 335.391,357.29 336.5,356.5C 339.625,355.521 342.958,355.187 346.5,355.5 Z"/></g>
<g><path style="opacity:1" fill="#049ee3" d="M 323.5,350.5 C 325.816,356.314 329.983,360.314 336,362.5C 336.667,364.167 336.667,365.833 336,367.5C 327.262,365.596 322.096,360.263 320.5,351.5C 321.791,351.737 322.791,351.404 323.5,350.5 Z"/></g>
<g><path style="opacity:1" fill="#049ee2" d="M 355.5,347.5 C 359.796,347.588 360.129,349.421 356.5,353C 354.794,363.112 348.461,367.945 337.5,367.5C 337.5,365.833 337.5,364.167 337.5,362.5C 348.407,363.252 354.407,358.252 355.5,347.5 Z"/></g>
<g><path style="opacity:1" fill="#7e7f7e" d="M 404.5,392.5 C 400.681,392.395 397.014,391.562 393.5,390C 392.511,387.842 390.844,386.675 388.5,386.5C 384.464,380.611 382.464,374.111 382.5,367C 388.454,365.848 394.12,364.015 399.5,361.5C 399.162,364.325 400.162,366.492 402.5,368C 401.919,368.893 401.585,369.893 401.5,371C 402.568,378.168 403.568,385.335 404.5,392.5 Z"/></g>
<g><path style="opacity:1" fill="#7a7a7a" d="M 338.5,412.5 C 336.358,411.402 335.025,412.236 334.5,415C 329.833,419 325.167,423 320.5,427C 321.593,428.365 322.926,428.699 324.5,428C 325.949,426.883 327.616,426.216 329.5,426C 330.163,424.482 331.163,423.315 332.5,422.5C 330.821,425.841 329.154,429.174 327.5,432.5C 327.903,437.02 327.903,441.687 327.5,446.5C 322.811,444.077 317.811,442.744 312.5,442.5C 312.323,444.981 313.323,446.814 315.5,448C 319.399,450.515 323.399,451.348 327.5,450.5C 328.496,450.414 329.329,450.748 330,451.5C 331.142,463.468 331.808,475.468 332,487.5C 332.424,489.976 333.257,492.309 334.5,494.5C 334.081,495.672 333.415,496.672 332.5,497.5C 329.833,498.833 327.167,498.833 324.5,497.5C 323.135,496.059 321.635,494.726 320,493.5C 319.506,491.866 319.34,490.199 319.5,488.5C 318.5,488.5 317.5,488.5 316.5,488.5C 316.167,491.833 315.833,495.167 315.5,498.5C 314.5,498.5 313.5,498.5 312.5,498.5C 311.72,495.899 310.054,493.899 307.5,492.5C 306.707,480.496 305.873,468.496 305,456.5C 302.631,446.593 300.631,436.593 299,426.5C 298.333,423.833 298.333,421.167 299,418.5C 301.877,412.675 304.544,406.675 307,400.5C 307.333,400.833 307.667,401.167 308,401.5C 310.162,396.208 312.329,390.875 314.5,385.5C 315.242,384.713 316.075,384.047 317,383.5C 318.253,378.287 320.92,373.954 325,370.5C 327.923,375.435 329.756,380.768 330.5,386.5C 341.5,385.666 352.5,385.166 363.5,385C 354.96,394.037 346.627,403.204 338.5,412.5 Z"/></g>
<g><path style="opacity:1" fill="#870014" d="M 381.5,378.5 C 389.187,392.706 396.52,407.206 403.5,422C 402,423.5 400.5,425 399,426.5C 391.577,411.987 384.41,397.32 377.5,382.5C 379.188,381.479 380.521,380.145 381.5,378.5 Z"/></g>
<g><path style="opacity:1" fill="#525252" d="M 392.5,418.5 C 390.883,417.962 389.216,417.629 387.5,417.5C 383.781,412.054 381.114,406.054 379.5,399.5C 377.923,397.551 376.423,395.551 375,393.5C 374.884,390.068 373.717,387.068 371.5,384.5C 373.006,383.253 374.506,383.253 376,384.5C 381.786,395.737 387.286,407.071 392.5,418.5 Z"/></g>
<g><path style="opacity:1" fill="#4f4f4f" d="M 388.5,386.5 C 390.844,386.675 392.511,387.842 393.5,390C 397.014,391.562 400.681,392.395 404.5,392.5C 405.473,394.948 405.806,397.615 405.5,400.5C 405.083,401.124 404.416,401.457 403.5,401.5C 400.408,400.692 397.408,399.692 394.5,398.5C 392.322,394.662 390.322,390.662 388.5,386.5 Z"/></g>
<g><path style="opacity:1" fill="#464646" d="M 342.5,389.5 C 343.5,389.5 344.5,389.5 345.5,389.5C 344.472,392.714 342.138,394.548 338.5,395C 334.025,398.804 329.525,402.637 325,406.5C 323.926,405.382 322.76,404.382 321.5,403.5C 323.603,400.586 325.437,397.586 327,394.5C 327.805,399.529 329.305,399.696 331.5,395C 333.715,393.956 336.048,393.29 338.5,393C 340.324,392.34 341.657,391.173 342.5,389.5 Z"/></g>
<g><path style="opacity:1" fill="#4e4f4e" d="M 338.5,398.5 C 340.562,399.505 341.396,401.171 341,403.5C 333.525,409.971 326.025,416.471 318.5,423C 316.48,425.052 314.813,424.885 313.5,422.5C 315.436,418.689 318.436,416.022 322.5,414.5C 325.417,409.681 329.417,406.015 334.5,403.5C 335.612,401.581 336.946,399.914 338.5,398.5 Z"/></g>
<g><path style="opacity:1" fill="#515151" d="M 338.5,412.5 C 337.192,415.486 335.859,418.486 334.5,421.5C 334.043,422.298 333.376,422.631 332.5,422.5C 331.163,423.315 330.163,424.482 329.5,426C 327.616,426.216 325.949,426.883 324.5,428C 322.926,428.699 321.593,428.365 320.5,427C 325.167,423 329.833,419 334.5,415C 335.025,412.236 336.358,411.402 338.5,412.5 Z"/></g>
<g><path style="opacity:1" fill="#7e7e7e" d="M 394.5,398.5 C 397.408,399.692 400.408,400.692 403.5,401.5C 404.416,401.457 405.083,401.124 405.5,400.5C 406.496,400.414 407.329,400.748 408,401.5C 408.872,406.195 409.872,410.861 411,415.5C 414.128,419.611 416.794,423.944 419,428.5C 420.463,433.516 422.297,438.35 424.5,443C 426.545,455.794 428.379,468.628 430,481.5C 430.761,484.053 431.594,486.553 432.5,489C 431.833,490.333 431.167,491.667 430.5,493C 424.449,493.208 418.449,493.708 412.5,494.5C 409.745,492.99 407.412,490.99 405.5,488.5C 406.732,485.7 407.399,482.7 407.5,479.5C 405.718,465.096 402.218,451.096 397,437.5C 392.457,431.416 389.29,424.749 387.5,417.5C 389.216,417.629 390.883,417.962 392.5,418.5C 396.106,426.211 400.106,433.711 404.5,441C 408.581,441.923 410.581,440.256 410.5,436C 405.585,423.334 400.251,410.834 394.5,398.5 Z"/></g>
<g><path style="opacity:1" fill="#fec90d" d="M 404.5,425.5 C 406.808,429.497 408.141,433.83 408.5,438.5C 404.248,437.582 401.582,434.916 400.5,430.5C 401.857,428.814 403.19,427.148 404.5,425.5 Z"/></g>
<g><path style="opacity:1" fill="#4e4f4e" d="M 313.5,434.5 C 317.819,433.799 321.486,434.966 324.5,438C 320.83,441.139 316.997,441.306 313,438.5C 312.421,437.072 312.588,435.738 313.5,434.5 Z"/></g>
<g><path style="opacity:1" fill="#4e4f4e" d="M 327.5,446.5 C 327.5,447.833 327.5,449.167 327.5,450.5C 323.399,451.348 319.399,450.515 315.5,448C 313.323,446.814 312.323,444.981 312.5,442.5C 317.811,442.744 322.811,444.077 327.5,446.5 Z"/></g>
<g><path style="opacity:1" fill="#4e4f4e" d="M 312.5,451.5 C 315.132,453.113 317.798,454.78 320.5,456.5C 321.452,458.045 321.785,459.712 321.5,461.5C 315.017,461.349 312.017,458.016 312.5,451.5 Z"/></g>
<g><path style="opacity:1" fill="#000000" d="M 310.5,478.5 C 311.777,479.694 312.444,481.36 312.5,483.5C 312.167,485.167 311.833,486.833 311.5,488.5C 310.513,485.232 310.18,481.898 310.5,478.5 Z"/></g>
<g><path style="opacity:1" fill="#c2c3c2" d="M 318.5,498.5 C 321.861,499.203 322.194,500.537 319.5,502.5C 317.358,501.563 317.024,500.23 318.5,498.5 Z"/></g>
<g><path style="opacity:1" fill="#c2c3c2" d="M 318.5,504.5 C 321.861,505.203 322.194,506.537 319.5,508.5C 317.358,507.563 317.024,506.23 318.5,504.5 Z"/></g>
<g><path style="opacity:1" fill="#c2c3c2" d="M 317.5,511.5 C 320.861,512.203 321.194,513.537 318.5,515.5C 316.358,514.563 316.024,513.23 317.5,511.5 Z"/></g>
</svg>
