<?xml version="1.0" encoding="UTF-8"?>
<!DOCTYPE svg PUBLIC "-//W3C//DTD SVG 1.1//EN" "http://www.w3.org/Graphics/SVG/1.1/DTD/svg11.dtd">
<svg xmlns="http://www.w3.org/2000/svg" version="1.1" width="563px" height="491px" style="shape-rendering:geometricPrecision; text-rendering:geometricPrecision; image-rendering:optimizeQuality; fill-rule:evenodd; clip-rule:evenodd" xmlns:xlink="http://www.w3.org/1999/xlink">
<g><path style="opacity:1" fill="#000000" d="M -0.5,-0.5 C 187.167,-0.5 374.833,-0.5 562.5,-0.5C 562.5,163.167 562.5,326.833 562.5,490.5C 374.833,490.5 187.167,490.5 -0.5,490.5C -0.5,326.833 -0.5,163.167 -0.5,-0.5 Z"/></g>
<g><path style="opacity:1" fill="#fefefe" d="M 409.5,165.5 C 412.849,167.934 416.349,170.267 420,172.5C 423.762,180.43 427.596,188.263 431.5,196C 430.5,196.667 429.5,196.667 428.5,196C 425.861,193.517 422.861,191.684 419.5,190.5C 423.469,193.825 427.469,197.159 431.5,200.5C 435.972,209.418 437.806,218.418 437,227.5C 435.649,225.982 434.149,224.649 432.5,223.5C 434.024,227.202 436.19,230.536 439,233.5C 439.453,236.84 439.953,240.174 440.5,243.5C 440.291,244.994 439.624,246.161 438.5,247C 440.389,250.836 441.055,255.003 440.5,259.5C 439.325,259.719 438.325,259.386 437.5,258.5C 434.252,251.306 429.585,245.306 423.5,240.5C 424.15,242.435 424.483,244.435 424.5,246.5C 427.263,246.744 429.429,248.077 431,250.5C 434.186,254.873 436.853,259.54 439,264.5C 439.92,269.644 439.087,274.477 436.5,279C 437.022,279.561 437.355,280.228 437.5,281C 436.833,284 436.167,287 435.5,290C 432.599,291.701 431.933,294.035 433.5,297C 432.049,302.643 430.215,308.143 428,313.5C 424.336,323.081 422.169,322.747 421.5,312.5C 420.698,317.293 420.698,321.959 421.5,326.5C 417.898,333.429 413.898,340.095 409.5,346.5C 408.914,346.709 408.414,347.043 408,347.5C 407.667,345.167 407.333,342.833 407,340.5C 405.409,345.024 404.409,349.691 404,354.5C 398.699,360.802 393.032,366.802 387,372.5C 386.667,370.5 386.333,368.5 386,366.5C 384.839,372.287 382.005,377.121 377.5,381C 372.572,385.09 367.239,388.59 361.5,391.5C 360.749,390.624 360.249,389.624 360,388.5C 358.076,390.009 356.909,392.009 356.5,394.5C 349.467,398.759 342.134,402.426 334.5,405.5C 333.833,405.167 333.167,404.833 332.5,404.5C 333.472,402.695 334.639,401.028 336,399.5C 336.667,398.5 336.667,397.5 336,396.5C 333.193,401.302 329.693,405.469 325.5,409C 322.233,409.453 319.066,410.287 316,411.5C 315.228,411.355 314.561,411.022 314,410.5C 313.612,411.428 312.945,412.095 312,412.5C 309.146,413.114 306.313,413.781 303.5,414.5C 302.692,414.192 302.025,413.692 301.5,413C 303.056,412.28 304.056,411.113 304.5,409.5C 301.337,411.811 298.003,413.978 294.5,416C 291.443,416.256 288.443,416.756 285.5,417.5C 280.221,417.595 274.888,417.261 269.5,416.5C 277.289,410.551 284.956,404.384 292.5,398C 291.5,397.333 290.5,397.333 289.5,398C 288.271,399.529 286.771,400.696 285,401.5C 281.855,400.008 278.689,398.675 275.5,397.5C 274.5,397.667 273.5,397.833 272.5,398C 276.37,399.287 280.036,400.953 283.5,403C 278.232,408.639 272.232,412.972 265.5,416C 256.187,417.029 247.187,416.029 238.5,413C 239.551,411.615 240.884,410.615 242.5,410C 241.234,409.691 240.067,409.191 239,408.5C 237.278,410.444 235.111,411.444 232.5,411.5C 218.342,408.175 205.009,403.008 192.5,396C 188.717,393.725 185.051,391.225 181.5,388.5C 200.122,386.466 199.955,385.133 181,384.5C 178.698,385.907 176.531,385.741 174.5,384C 169.859,378.87 164.692,374.37 159,370.5C 158.342,368.892 158.842,367.725 160.5,367C 157.833,366 155.167,365 152.5,364C 147.511,357.706 142.511,351.372 137.5,345C 138.167,344.333 138.833,343.667 139.5,343C 137.376,341.878 135.543,340.378 134,338.5C 129.9,331.964 126.067,325.298 122.5,318.5C 124.095,317.566 125.761,317.566 127.5,318.5C 125.53,316.366 123.363,314.366 121,312.5C 119.227,306.287 116.894,300.287 114,294.5C 113.192,292.421 113.359,290.421 114.5,288.5C 115.417,289.127 116.417,289.461 117.5,289.5C 115.14,287.287 113.306,284.621 112,281.5C 111.149,274.491 109.982,267.491 108.5,260.5C 108.833,259.167 109.167,257.833 109.5,256.5C 113.194,260.86 117.194,264.86 121.5,268.5C 122.429,267.311 122.762,265.978 122.5,264.5C 120.632,265.757 118.965,265.424 117.5,263.5C 114.005,259.523 111.172,255.19 109,250.5C 107.395,241.385 107.729,232.385 110,223.5C 111.55,224.591 112.717,225.924 113.5,227.5C 113.054,223.705 112.054,220.038 110.5,216.5C 111.15,211.71 112.484,207.21 114.5,203C 113.483,201.951 113.316,200.784 114,199.5C 115.171,197.158 116.338,194.824 117.5,192.5C 118.333,193.5 119.167,194.5 120,195.5C 120.333,195.167 120.667,194.833 121,194.5C 121.092,191.453 120.592,188.453 119.5,185.5C 123.244,177.754 127.077,170.088 131,162.5C 131.667,161.167 132.333,161.167 133,162.5C 133.333,166.167 133.667,169.833 134,173.5C 134.821,167.694 135.154,162.027 135,156.5C 136.912,154.343 138.579,152.009 140,149.5C 143.491,145.875 146.991,142.209 150.5,138.5C 150.185,142.469 150.685,146.469 152,150.5C 152.342,144.405 153.342,138.738 155,133.5C 160.819,128.592 166.819,123.925 173,119.5C 173.561,120.022 174.228,120.355 175,120.5C 177.863,117.647 181.029,115.147 184.5,113C 186.5,112.333 188.5,111.667 190.5,111C 192.722,107.547 195.722,106.38 199.5,107.5C 196.37,115.093 192.704,122.426 188.5,129.5C 191.657,125.843 194.99,122.343 198.5,119C 197.387,109.753 201.387,103.753 210.5,101C 215.51,100 220.343,98.5001 225,96.5C 225.915,97.3279 226.581,98.3279 227,99.5C 228.684,97.6487 230.517,95.982 232.5,94.5C 236.523,97.1783 240.857,99.345 245.5,101C 246.598,101.77 246.598,102.603 245.5,103.5C 250.821,103.262 256.154,103.095 261.5,103C 260.257,104.154 259.257,105.488 258.5,107C 253.571,109.597 248.904,112.597 244.5,116C 229.118,119.198 214.784,124.864 201.5,133C 154.069,168.545 134.236,216.045 142,275.5C 155.847,330.681 190.347,365.181 245.5,379C 305.055,388.587 351.889,368.42 386,318.5C 406.987,280.631 409.987,241.298 395,200.5C 381.113,169.28 358.613,146.78 327.5,133C 319.152,130.159 310.818,127.159 302.5,124C 294.157,121.559 285.657,119.726 277,118.5C 268.324,119.563 259.824,121.396 251.5,124C 240.684,124.828 230.017,126.161 219.5,128C 227.367,123.706 235.7,120.373 244.5,118C 253.861,113.127 262.195,106.96 269.5,99.5C 264.586,99.569 259.752,100.236 255,101.5C 252.226,100.464 249.393,99.6309 246.5,99C 236.375,93.6027 226.042,88.7693 215.5,84.5C 215.877,87.5248 216.044,90.5248 216,93.5C 213.208,90.7952 211.874,87.4618 212,83.5C 210.509,81.9963 208.676,81.1629 206.5,81C 204.46,78.219 202.793,75.219 201.5,72C 202.886,70.3968 204.719,69.5634 207,69.5C 222.573,70.6809 238.073,72.5142 253.5,75C 262.833,75.3333 272.167,75.6667 281.5,76C 295.186,80.1322 308.852,84.1322 322.5,88C 331.492,91.9932 340.492,96.3265 349.5,101C 350.337,102.011 350.67,103.178 350.5,104.5C 352.989,104.298 355.323,104.798 357.5,106C 363.57,110.03 369.237,114.53 374.5,119.5C 373.624,120.251 372.624,120.751 371.5,121C 374.784,122.125 378.117,123.125 381.5,124C 386.009,129.209 390.842,134.043 396,138.5C 397.983,140.997 397.15,142.164 393.5,142C 395.957,144.257 398.624,145.257 401.5,145C 406.699,151.232 411.532,157.732 416,164.5C 416.749,165.635 416.583,166.635 415.5,167.5C 413.677,166.253 411.677,165.586 409.5,165.5 Z"/></g>
<g><path style="opacity:1" fill="#000000" d="M 242.5,80.5 C 244.5,80.8333 246.5,81.1667 248.5,81.5C 248.61,84.9521 246.943,86.9521 243.5,87.5C 238.662,85.6795 238.329,83.3462 242.5,80.5 Z"/></g>
<g><path style="opacity:1" fill="#000000" d="M 316.5,91.5 C 318.288,91.2148 319.955,91.5481 321.5,92.5C 318.336,94.1942 315.002,94.6942 311.5,94C 313.491,93.6264 315.158,92.793 316.5,91.5 Z"/></g>
<g><path style="opacity:1" fill="#000000" d="M 303.5,102.5 C 302.417,102.461 301.417,102.127 300.5,101.5C 297.33,103.195 293.996,103.695 290.5,103C 296.894,101.028 303.061,98.5283 309,95.5C 309.5,95.6667 310,95.8333 310.5,96C 307.146,97.2978 304.812,99.4644 303.5,102.5 Z"/></g>
<g><path style="opacity:1" fill="#000000" d="M 269.5,99.5 C 271.288,98.3775 273.288,98.2109 275.5,99C 278.376,101.437 281.71,102.77 285.5,103C 281.252,104.017 277.586,103.017 274.5,100C 272.866,99.5065 271.199,99.3398 269.5,99.5 Z"/></g>
<g><path style="opacity:1" fill="#000000" d="M 224.5,100.5 C 225.103,102.626 225.103,104.959 224.5,107.5C 221.14,109.341 218.14,111.841 215.5,115C 214.5,115.667 213.5,115.667 212.5,115C 217.808,111.198 221.808,106.364 224.5,100.5 Z"/></g>
<g><path style="opacity:1" fill="#000000" d="M 303.5,102.5 C 305.886,103.373 307.886,104.873 309.5,107C 310.833,107.333 312.167,107.667 313.5,108C 320.144,108.311 326.477,108.311 332.5,108C 332.043,108.414 331.709,108.914 331.5,109.5C 333.976,113.81 337.31,117.31 341.5,120C 339.402,119.968 337.402,119.301 335.5,118C 333.743,115.154 331.743,112.488 329.5,110C 322.348,111.198 315.348,110.532 308.5,108C 306.314,106.588 304.648,104.755 303.5,102.5 Z"/></g>
<g><path style="opacity:1" fill="#000000" d="M 245.5,103.5 C 245.631,104.376 245.298,105.043 244.5,105.5C 239.185,108.66 238.518,108.16 242.5,104C 243.448,103.517 244.448,103.351 245.5,103.5 Z"/></g>
<g><path style="opacity:1" fill="#000000" d="M 341.5,103.5 C 342.978,103.238 344.311,103.571 345.5,104.5C 342.291,105.439 339.124,106.439 336,107.5C 335.5,107 335,106.5 334.5,106C 337.004,105.302 339.337,104.469 341.5,103.5 Z"/></g>
<g><path style="opacity:1" fill="#000000" d="M 208.5,116.5 C 209.552,116.351 210.552,116.517 211.5,117C 209.545,119.071 207.212,119.738 204.5,119C 205.858,118.066 207.192,117.232 208.5,116.5 Z"/></g>
<g><path style="opacity:1" fill="#000000" d="M 344.5,121.5 C 350.987,120.346 357.654,120.179 364.5,121C 359.971,120.993 357.471,123.159 357,127.5C 356.666,123.345 354.666,122.011 351,123.5C 348.846,122.77 346.679,122.103 344.5,121.5 Z"/></g>
<g><path style="opacity:1" fill="#000000" d="M 173.5,123.5 C 174.399,126.428 174.066,129.428 172.5,132.5C 171.892,129.495 172.226,126.495 173.5,123.5 Z"/></g>
<g><path style="opacity:1" fill="#000000" d="M 358.5,128.5 C 360.769,130.425 363.103,132.425 365.5,134.5C 364.635,135.583 363.635,135.749 362.5,135C 360.768,133.028 359.435,130.861 358.5,128.5 Z"/></g>
<g><path style="opacity:1" fill="#000000" d="M 188.5,129.5 C 188.361,131.337 187.694,131.67 186.5,130.5C 186.957,129.702 187.624,129.369 188.5,129.5 Z"/></g>
<g><path style="opacity:1" fill="#000000" d="M 181.5,132.5 C 185.236,132.66 185.236,133.493 181.5,135C 179.099,136.039 176.766,136.206 174.5,135.5C 176.764,134.131 179.097,133.131 181.5,132.5 Z"/></g>
<g><path style="opacity:1" fill="#000000" d="M 171.5,134.5 C 174.001,134.511 174.168,135.178 172,136.5C 171.536,135.906 171.369,135.239 171.5,134.5 Z"/></g>
<g><path style="opacity:1" fill="#000000" d="M 369.5,136.5 C 372.804,137.494 376.137,138.494 379.5,139.5C 380.133,149.18 385.133,156.014 394.5,160C 387.684,158.869 382.851,155.035 380,148.5C 379.178,146.212 378.511,143.878 378,141.5C 375.667,140.123 373.167,139.123 370.5,138.5C 369.702,138.043 369.369,137.376 369.5,136.5 Z"/></g>
<g><path style="opacity:1" fill="#000000" d="M 386.5,139.5 C 388.983,139.73 389.483,140.397 388,141.5C 386.97,141.164 386.47,140.497 386.5,139.5 Z"/></g>
<g><path style="opacity:1" fill="#000000" d="M 169.5,140.5 C 170.598,141.601 170.765,142.934 170,144.5C 166.447,151.864 160.614,156.197 152.5,157.5C 152.302,162.564 151.635,162.397 150.5,157C 150.862,155.775 151.362,154.609 152,153.5C 152.388,154.428 153.055,155.095 154,155.5C 162.3,153.699 167.467,148.699 169.5,140.5 Z"/></g>
<g><path style="opacity:1" fill="#000000" d="M 409.5,165.5 C 406.689,165.429 404.022,164.762 401.5,163.5C 400.09,163.868 399.09,164.701 398.5,166C 399.711,166.893 399.711,167.726 398.5,168.5C 397.779,166.314 397.113,164.147 396.5,162C 401.395,161.472 405.728,162.638 409.5,165.5 Z"/></g>
<g><path style="opacity:1" fill="#000000" d="M 134.5,199.5 C 135.609,191.834 135.776,184.167 135,176.5C 135.923,177.759 136.757,179.092 137.5,180.5C 142.643,178.225 146.476,174.558 149,169.5C 147.963,175.387 144.463,179.387 138.5,181.5C 138.439,186.068 137.939,190.734 137,195.5C 136.8,197.32 135.966,198.653 134.5,199.5 Z"/></g>
<g><path style="opacity:1" fill="#000000" d="M 419.5,190.5 C 417.146,190.162 414.813,189.662 412.5,189C 408.667,185.833 404.833,182.667 401,179.5C 399.813,177.956 399.48,176.289 400,174.5C 404.966,181.874 411.466,187.207 419.5,190.5 Z"/></g>
<g><path style="opacity:1" fill="#fefefe" d="M 270.5,188.5 C 276.071,189.367 281.571,189.367 287,188.5C 288.54,190.955 288.874,193.621 288,196.5C 285.799,191.787 281.966,189.787 276.5,190.5C 274.44,190.572 272.44,190.905 270.5,191.5C 269.913,190.767 269.913,189.767 270.5,188.5 Z"/></g>
<g><path style="opacity:1" fill="#fefefe" d="M 348.5,190.5 C 346.856,190.286 345.356,190.62 344,191.5C 341.935,189.618 342.435,188.618 345.5,188.5C 347.03,188.64 348.03,189.307 348.5,190.5 Z"/></g>
<g><path style="opacity:1" fill="#fefefe" d="M 172.5,190.5 C 179.989,189.344 187.655,189.178 195.5,190C 193.5,190.333 191.5,190.667 189.5,191C 188.874,191.75 188.374,192.584 188,193.5C 187.333,205.167 187.333,216.833 188,228.5C 193.313,230.474 198.813,230.974 204.5,230C 209.376,221.302 210.709,222.135 208.5,232.5C 198.81,232.832 189.144,232.498 179.5,231.5C 180.648,218.212 180.815,204.879 180,191.5C 177.619,190.565 175.119,190.232 172.5,190.5 Z"/></g>
<g><path style="opacity:1" fill="#fefefe" d="M 210.5,190.5 C 220.987,189.506 231.654,189.172 242.5,189.5C 242.662,191.527 242.495,193.527 242,195.5C 241.044,194.421 240.211,193.255 239.5,192C 234.771,191.004 230.271,191.504 226,193.5C 225.333,198.833 225.333,204.167 226,209.5C 229.786,210.795 233.62,210.795 237.5,209.5C 239.308,204.239 240.308,204.572 240.5,210.5C 240.414,215.967 239.414,216.467 237.5,212C 233.833,211.333 230.167,211.333 226.5,212C 225.193,217.779 225.193,223.612 226.5,229.5C 230.777,230.606 235.11,230.772 239.5,230C 240.667,228.833 241.833,227.667 243,226.5C 243.667,227.833 243.667,229.167 243,230.5C 236.115,232.441 228.948,233.108 221.5,232.5C 221.667,218.829 221.5,205.163 221,191.5C 220.333,194.833 219.667,198.167 219,201.5C 218.667,198.5 218.333,195.5 218,192.5C 215.865,190.722 213.365,190.055 210.5,190.5 Z"/></g>
<g><path style="opacity:1" fill="#fefefe" d="M 262.5,189.5 C 264.604,189.201 266.604,189.534 268.5,190.5C 256.446,197.338 252.946,207.338 258,220.5C 260.717,224.719 264.217,228.052 268.5,230.5C 267.829,231.946 266.662,232.612 265,232.5C 251.47,227.949 246.137,218.616 249,204.5C 250.527,200.614 252.694,197.114 255.5,194C 257.993,192.581 260.326,191.081 262.5,189.5 Z"/></g>
<g><path style="opacity:1" fill="#fefefe" d="M 296.5,190.5 C 306.47,188.841 311.47,188.841 311.5,190.5C 310.167,204.5 310.167,218.5 311.5,232.5C 309.833,232.5 308.167,232.5 306.5,232.5C 306.667,218.829 306.5,205.163 306,191.5C 305.586,191.957 305.086,192.291 304.5,192.5C 302.149,190.771 299.482,190.104 296.5,190.5 Z"/></g>
<g><path style="opacity:1" fill="#fefefe" d="M 335.5,190.5 C 336.097,189.861 336.93,189.528 338,189.5C 339.662,189.388 340.829,190.054 341.5,191.5C 339.696,192.768 337.696,193.435 335.5,193.5C 336.625,192.348 336.625,191.348 335.5,190.5 Z"/></g>
<g><path style="opacity:1" fill="#fefefe" d="M 362.5,217.5 C 362.334,213.486 362.501,209.486 363,205.5C 364.232,208.3 364.899,211.3 365,214.5C 366.902,209.092 366.068,204.092 362.5,199.5C 361.647,196.482 359.647,194.649 356.5,194C 356.833,193.667 357.167,193.333 357.5,193C 353.932,194.192 350.932,193.358 348.5,190.5C 359.271,189.048 366.104,194.048 369,205.5C 371.497,216.366 367.997,224.533 358.5,230C 357.551,230.617 356.718,230.451 356,229.5C 355.626,230.416 355.126,231.25 354.5,232C 350.129,232.828 345.795,232.661 341.5,231.5C 346.419,231.052 351.086,229.885 355.5,228C 358.512,224.846 360.845,221.346 362.5,217.5 Z"/></g>
<g><path style="opacity:1" fill="#fefefe" d="M 335.5,190.5 C 336.625,191.348 336.625,192.348 335.5,193.5C 328.839,201.955 327.339,211.288 331,221.5C 333.5,225.333 336.667,228.5 340.5,231C 339.407,232.365 338.074,232.699 336.5,232C 322.689,224.904 318.523,214.07 324,199.5C 327.131,195.529 330.964,192.529 335.5,190.5 Z"/></g>
<g><path style="opacity:1" fill="#000000" d="M 328.5,196.5 C 329.043,196.56 329.376,196.893 329.5,197.5C 325.109,203.742 323.442,210.409 324.5,217.5C 322.211,209.667 323.545,202.667 328.5,196.5 Z"/></g>
<g><path style="opacity:1" fill="#000000" d="M 134.5,199.5 C 132.69,203.993 129.69,207.659 125.5,210.5C 123.332,208.196 122.499,205.529 123,202.5C 123.899,204.327 125.233,205.66 127,206.5C 130.013,204.652 132.513,202.318 134.5,199.5 Z"/></g>
<g><path style="opacity:1" fill="#fefefe" d="M 362.5,199.5 C 362.782,203.588 362.115,204.088 360.5,201C 360.836,199.97 361.503,199.47 362.5,199.5 Z"/></g>
<g><path style="opacity:1" fill="#000000" d="M 251.5,201.5 C 251.179,207.047 251.679,212.713 253,218.5C 254.23,221.732 256.23,224.399 259,226.5C 259.667,227.167 259.667,227.833 259,228.5C 250.788,221.222 248.288,212.222 251.5,201.5 Z"/></g>
<g><path style="opacity:1" fill="#fefefe" d="M 218.5,202.5 C 219.366,212.336 220.033,222.336 220.5,232.5C 219.127,232.657 217.793,232.49 216.5,232C 217.191,230.933 217.691,229.766 218,228.5C 218.5,219.84 218.666,211.173 218.5,202.5 Z"/></g>
<g><path style="opacity:1" fill="#000000" d="M 416.5,209.5 C 413.724,207.948 412.557,205.614 413,202.5C 414.705,204.577 415.872,206.91 416.5,209.5 Z"/></g>
<g><path style="opacity:1" fill="#000000" d="M 416.5,209.5 C 417.5,209.833 418.167,210.5 418.5,211.5C 417.167,211.5 416.5,210.833 416.5,209.5 Z"/></g>
<g><path style="opacity:1" fill="#000000" d="M 418.5,211.5 C 423.961,214.565 428.628,218.565 432.5,223.5C 429.536,221.552 426.536,219.552 423.5,217.5C 422.833,217.833 422.167,218.167 421.5,218.5C 420.645,216.045 419.645,213.712 418.5,211.5 Z"/></g>
<g><path style="opacity:1" fill="#000000" d="M 126.5,213.5 C 127.809,215.571 128.475,218.071 128.5,221C 128.167,223.5 127.833,226 127.5,228.5C 126.503,223.523 126.17,218.523 126.5,213.5 Z"/></g>
<g><path style="opacity:1" fill="#fefefe" d="M 275.5,217.5 C 283.074,216.201 288.074,216.201 290.5,217.5C 290.854,221.637 290.354,225.637 289,229.5C 283.118,232.449 276.952,233.116 270.5,231.5C 274.571,230.863 278.571,230.029 282.5,229C 283.126,228.25 283.626,227.416 284,226.5C 284.333,226.833 284.667,227.167 285,227.5C 285.667,224.5 285.667,221.5 285,218.5C 284.667,219.5 284.333,220.5 284,221.5C 282.323,217.949 279.49,216.616 275.5,217.5 Z"/></g>
<g><path style="opacity:1" fill="#000000" d="M 362.5,217.5 C 363.423,216.697 364.423,216.53 365.5,217C 364.54,218.419 363.707,219.919 363,221.5C 362.51,220.207 362.343,218.873 362.5,217.5 Z"/></g>
<g><path style="opacity:1" fill="#000000" d="M 113.5,227.5 C 115.727,228.401 116.727,230.067 116.5,232.5C 114.273,231.599 113.273,229.933 113.5,227.5 Z"/></g>
<g><path style="opacity:1" fill="#fefefe" d="M 304.5,227.5 C 305.451,228.919 305.784,230.585 305.5,232.5C 304.5,232.5 303.5,232.5 302.5,232.5C 302.392,230.486 303.058,228.82 304.5,227.5 Z"/></g>
<g><path style="opacity:1" fill="#000000" d="M 118.5,235.5 C 121.988,234.857 124.488,232.857 126,229.5C 126.667,230.5 126.667,231.5 126,232.5C 123.528,234.298 121.861,236.632 121,239.5C 119.294,238.692 118.461,237.359 118.5,235.5 Z"/></g>
<g><path style="opacity:1" fill="#000000" d="M 116.5,232.5 C 117.906,232.973 118.573,233.973 118.5,235.5C 117.094,235.027 116.427,234.027 116.5,232.5 Z"/></g>
<g><path style="opacity:1" fill="#000000" d="M 423.5,240.5 C 420.843,239.521 420.177,237.854 421.5,235.5C 422.562,237.022 423.229,238.688 423.5,240.5 Z"/></g>
<g><path style="opacity:1" fill="#000000" d="M 122.5,241.5 C 124.462,243.425 125.295,245.758 125,248.5C 123.175,246.52 122.341,244.187 122.5,241.5 Z"/></g>
<g><path style="opacity:1" fill="#000000" d="M 422.5,247.5 C 423.239,247.369 423.906,247.536 424.5,248C 423.33,250.185 422.164,252.351 421,254.5C 420.5,254 420,253.5 419.5,253C 420.758,251.259 421.758,249.426 422.5,247.5 Z"/></g>
<g><path style="opacity:1" fill="#000000" d="M 124.5,250.5 C 126.326,252.437 126.493,254.437 125,256.5C 124.505,254.527 124.338,252.527 124.5,250.5 Z"/></g>
<g><path style="opacity:1" fill="#000000" d="M 122.5,264.5 C 122.284,262.319 123.117,260.653 125,259.5C 125.249,261.668 124.416,263.335 122.5,264.5 Z"/></g>
<g><path style="opacity:1" fill="#fefefe" d="M 248.5,261.5 C 268.661,260.827 278.161,270.494 277,290.5C 269.322,305.395 257.488,309.895 241.5,304C 238.048,302.215 235.214,299.715 233,296.5C 233.155,294.189 233.155,291.856 233,289.5C 232.751,290.624 232.251,291.624 231.5,292.5C 227.649,282.071 229.983,273.237 238.5,266C 242.118,264.788 245.452,263.288 248.5,261.5 Z"/></g>
<g><path style="opacity:1" fill="#fefefe" d="M 366.5,300.5 C 365.645,297.094 364.479,293.761 363,290.5C 356.779,292.273 350.279,293.106 343.5,293C 341.484,296.545 340.151,300.378 339.5,304.5C 341.604,304.201 343.604,304.534 345.5,305.5C 340.533,306.662 335.533,306.829 330.5,306C 332.219,304.943 334.053,304.11 336,303.5C 341.196,290.913 346.196,278.246 351,265.5C 351.625,262.294 353.291,261.294 356,262.5C 361.793,276.096 367.626,289.763 373.5,303.5C 375.167,304.167 376.833,304.833 378.5,305.5C 372.167,306.833 365.833,306.833 359.5,305.5C 361.396,304.534 363.396,304.201 365.5,304.5C 365.232,302.901 365.566,301.568 366.5,300.5 Z"/></g>
<g><path style="opacity:1" fill="#fefefe" d="M 177.5,262.5 C 180.927,263.098 184.26,263.265 187.5,263C 196.337,273.669 205.671,283.835 215.5,293.5C 216.734,283.156 216.734,272.823 215.5,262.5C 217.429,262.231 219.095,262.731 220.5,264C 219.841,278.104 219.175,292.27 218.5,306.5C 215.667,305.184 214.834,303.184 216,300.5C 206.019,289.018 195.852,277.684 185.5,266.5C 185.167,266.667 184.833,266.833 184.5,267C 185.293,268.085 185.96,269.252 186.5,270.5C 184.552,281.648 183.885,292.981 184.5,304.5C 186.75,304.181 188.75,304.681 190.5,306C 185.833,306.667 181.167,306.667 176.5,306C 177.905,304.731 179.571,304.231 181.5,304.5C 182.605,292.533 182.771,280.533 182,268.5C 179.873,266.886 178.373,264.886 177.5,262.5 Z"/></g>
<g><path style="opacity:1" fill="#fefefe" d="M 294.5,279.5 C 294.617,277.516 293.95,275.85 292.5,274.5C 291.808,275.025 291.308,275.692 291,276.5C 290.46,274.865 290.96,273.532 292.5,272.5C 292.058,271.261 291.391,270.261 290.5,269.5C 289.386,264.371 288.719,264.371 288.5,269.5C 287.03,267.849 285.697,266.015 284.5,264C 287.556,262.224 290.722,262.057 294,263.5C 296.498,274.49 300.664,284.823 306.5,294.5C 311.876,285.578 316.21,276.078 319.5,266C 318.097,263.871 318.764,262.705 321.5,262.5C 322.737,262.556 323.737,263.056 324.5,264C 317.617,277.98 311.117,292.147 305,306.5C 304.167,305.667 303.333,304.833 302.5,304C 304.211,302.867 304.711,301.367 304,299.5C 303.02,297.941 302.187,296.274 301.5,294.5C 300.604,295.506 299.938,295.506 299.5,294.5C 300.428,293.232 300.595,291.899 300,290.5C 298.697,289.888 297.53,289.554 296.5,289.5C 298.66,287.907 298.827,286.24 297,284.5C 296.667,284.833 296.333,285.167 296,285.5C 295.647,284.328 295.813,283.162 296.5,282C 296.361,280.699 295.695,279.866 294.5,279.5 Z"/></g>
<g><path style="opacity:1" fill="#000000" d="M 420.5,277.5 C 421.431,275.967 422.098,274.3 422.5,272.5C 420.898,269.662 420.398,266.662 421,263.5C 424.396,270.503 427.896,277.503 431.5,284.5C 431.518,286.373 431.018,286.706 430,285.5C 429.063,282.344 427.563,279.511 425.5,277C 423.803,276.616 422.137,276.782 420.5,277.5 Z"/></g>
<g><path style="opacity:1" fill="#000000" d="M 269.5,271.5 C 270.674,272.514 271.34,273.847 271.5,275.5C 270.275,276.152 269.608,277.319 269.5,279C 272.157,290.641 268.157,298.974 257.5,304C 247.235,304.738 240.402,300.238 237,290.5C 235.139,280.542 237.972,272.209 245.5,265.5C 250.237,264.787 255.07,264.453 260,264.5C 260.5,264.667 261,264.833 261.5,265C 260.167,265.667 260.167,266.333 261.5,267C 265.22,266.76 267.887,268.26 269.5,271.5 Z"/></g>
<g><path style="opacity:1" fill="#000000" d="M 290.5,269.5 C 289.833,269.5 289.167,269.5 288.5,269.5C 288.719,264.371 289.386,264.371 290.5,269.5 Z"/></g>
<g><path style="opacity:1" fill="#000000" d="M 238.5,267.5 C 241.001,267.511 241.168,268.178 239,269.5C 238.536,268.906 238.369,268.239 238.5,267.5 Z"/></g>
<g><path style="opacity:1" fill="#000000" d="M 122.5,269.5 C 124.446,270.254 125.279,271.588 125,273.5C 123.519,272.529 122.685,271.196 122.5,269.5 Z"/></g>
<g><path style="opacity:1" fill="#fefefe" d="M 288.5,269.5 C 289.167,269.5 289.833,269.5 290.5,269.5C 289.833,272.167 289.167,272.167 288.5,269.5 Z"/></g>
<g><path style="opacity:1" fill="#000000" d="M 234.5,273.5 C 234.783,272.711 235.283,272.044 236,271.5C 236.528,272.816 236.028,273.483 234.5,273.5 Z"/></g>
<g><path style="opacity:1" fill="#fefefe" d="M 269.5,271.5 C 269.541,275.243 268.874,275.41 267.5,272C 268.094,271.536 268.761,271.369 269.5,271.5 Z"/></g>
<g><path style="opacity:1" fill="#000000" d="M 354.5,271.5 C 355.586,271.62 356.253,272.287 356.5,273.5C 359.032,278.676 361.032,284.009 362.5,289.5C 356.622,290.721 350.789,290.721 345,289.5C 346.78,283.911 348.613,278.244 350.5,272.5C 351.822,272.33 352.989,272.663 354,273.5C 354.464,272.906 354.631,272.239 354.5,271.5 Z"/></g>
<g><path style="opacity:1" fill="#000000" d="M 234.5,273.5 C 234.405,275.786 233.738,277.786 232.5,279.5C 232.259,277.102 232.926,275.102 234.5,273.5 Z"/></g>
<g><path style="opacity:1" fill="#000000" d="M 126.5,275.5 C 129.254,277.053 130.087,279.386 129,282.5C 127.589,280.35 126.755,278.016 126.5,275.5 Z"/></g>
<g><path style="opacity:1" fill="#000000" d="M 271.5,275.5 C 272.222,275.918 272.722,276.584 273,277.5C 273.888,282.618 273.555,287.618 272,292.5C 272.756,286.847 272.589,281.18 271.5,275.5 Z"/></g>
<g><path style="opacity:1" fill="#000000" d="M 420.5,277.5 C 419.872,280.09 418.705,282.423 417,284.5C 416.5,284 416,283.5 415.5,283C 417.033,280.971 418.699,279.138 420.5,277.5 Z"/></g>
<g><path style="opacity:1" fill="#fefefe" d="M 294.5,279.5 C 293.923,280.773 293.257,280.773 292.5,279.5C 292.97,278.537 293.637,278.537 294.5,279.5 Z"/></g>
<g><path style="opacity:1" fill="#000000" d="M 232.5,279.5 C 232.892,282.722 232.392,285.722 231,288.5C 230.333,285.833 230.333,283.167 231,280.5C 231.383,279.944 231.883,279.611 232.5,279.5 Z"/></g>
<g><path style="opacity:1" fill="#000000" d="M 128.5,297.5 C 125.883,296.214 123.55,294.547 121.5,292.5C 125.654,294.495 128.154,293.161 129,288.5C 129.044,291.475 128.877,294.475 128.5,297.5 Z"/></g>
<g><path style="opacity:1" fill="#000000" d="M 415.5,288.5 C 416.622,290.288 416.789,292.288 416,294.5C 414.311,292.68 414.145,290.68 415.5,288.5 Z"/></g>
<g><path style="opacity:1" fill="#000000" d="M 117.5,289.5 C 119.404,289.738 120.738,290.738 121.5,292.5C 119.381,292.532 118.048,291.532 117.5,289.5 Z"/></g>
<g><path style="opacity:1" fill="#000000" d="M 128.5,297.5 C 133.29,299.785 136.123,303.452 137,308.5C 134.642,304.442 131.808,300.775 128.5,297.5 Z"/></g>
<g><path style="opacity:1" fill="#000000" d="M 416.5,298.5 C 418.227,300.516 419.061,302.849 419,305.5C 416.867,304.582 414.7,304.416 412.5,305C 414.923,303.429 416.256,301.263 416.5,298.5 Z"/></g>
<g><path style="opacity:1" fill="#000000" d="M 366.5,300.5 C 368.344,301.204 368.844,302.537 368,304.5C 367.209,303.255 366.709,301.922 366.5,300.5 Z"/></g>
<g><path style="opacity:1" fill="#000000" d="M 409.5,306.5 C 410.239,306.369 410.906,306.536 411.5,307C 405.174,316.029 403.841,325.862 407.5,336.5C 407.167,337.167 406.833,337.833 406.5,338.5C 404.771,336.149 404.104,333.482 404.5,330.5C 402.774,330.815 401.107,330.981 399.5,331C 403.449,329.274 404.782,326.441 403.5,322.5C 404.094,316.596 406.094,311.262 409.5,306.5 Z"/></g>
<g><path style="opacity:1" fill="#000000" d="M 127.5,318.5 C 130.089,318.461 132.089,319.461 133.5,321.5C 131.03,321.346 129.03,320.346 127.5,318.5 Z"/></g>
<g><path style="opacity:1" fill="#000000" d="M 145.5,327.5 C 141.151,325.992 137.151,323.992 133.5,321.5C 135.144,321.714 136.644,321.38 138,320.5C 140.396,323.067 142.896,325.4 145.5,327.5 Z"/></g>
<g><path style="opacity:1" fill="#000000" d="M 145.5,327.5 C 147.833,327.833 149.167,329.167 149.5,331.5C 149.167,329.167 147.833,327.833 145.5,327.5 Z"/></g>
<g><path style="opacity:1" fill="#000000" d="M 149.5,331.5 C 152.786,333.215 154.286,335.882 154,339.5C 152.223,336.941 150.723,334.274 149.5,331.5 Z"/></g>
<g><path style="opacity:1" fill="#000000" d="M 395.5,333.5 C 395.843,331.775 396.843,331.275 398.5,332C 397.756,333.039 396.756,333.539 395.5,333.5 Z"/></g>
<g><path style="opacity:1" fill="#000000" d="M 395.5,333.5 C 394.25,335.932 392.75,338.266 391,340.5C 390,344.833 389,349.167 388,353.5C 382.784,353.527 377.95,355.193 373.5,358.5C 373.414,357.504 373.748,356.671 374.5,356C 378.22,353.569 382.22,351.736 386.5,350.5C 387.426,345.979 388.926,341.645 391,337.5C 392.371,335.959 393.871,334.625 395.5,333.5 Z"/></g>
<g><path style="opacity:1" fill="#000000" d="M 140.5,344.5 C 143.152,343.738 145.818,344.238 148.5,346C 145.562,346.712 142.896,346.212 140.5,344.5 Z"/></g>
<g><path style="opacity:1" fill="#000000" d="M 154.5,343.5 C 155.434,344.568 155.768,345.901 155.5,347.5C 154.127,347.657 152.793,347.49 151.5,347C 153.426,346.578 154.426,345.411 154.5,343.5 Z"/></g>
<g><path style="opacity:1" fill="#000000" d="M 166.5,352.5 C 163.395,351.448 160.395,350.115 157.5,348.5C 161.205,347.858 164.205,349.192 166.5,352.5 Z"/></g>
<g><path style="opacity:1" fill="#000000" d="M 166.5,352.5 C 171.267,354.828 174.267,358.661 175.5,364C 174.551,364.617 173.718,364.451 173,363.5C 171.846,359.186 169.679,355.519 166.5,352.5 Z"/></g>
<g><path style="opacity:1" fill="#000000" d="M 373.5,358.5 C 372.876,360.754 371.543,362.421 369.5,363.5C 369.369,360.633 370.703,358.967 373.5,358.5 Z"/></g>
<g><path style="opacity:1" fill="#000000" d="M 369.5,363.5 C 369.435,365.696 368.768,367.696 367.5,369.5C 366.412,366.992 367.078,364.992 369.5,363.5 Z"/></g>
<g><path style="opacity:1" fill="#000000" d="M 174.5,366.5 C 177.137,368.154 176.803,368.654 173.5,368C 174.056,367.617 174.389,367.117 174.5,366.5 Z"/></g>
<g><path style="opacity:1" fill="#000000" d="M 190.5,372.5 C 187.422,371.798 184.422,370.798 181.5,369.5C 185.12,368.47 188.12,369.47 190.5,372.5 Z"/></g>
<g><path style="opacity:1" fill="#000000" d="M 365.5,370.5 C 366.598,371.601 366.765,372.934 366,374.5C 362.937,373.325 362.77,371.991 365.5,370.5 Z"/></g>
<g><path style="opacity:1" fill="#000000" d="M 190.5,372.5 C 192.09,372.628 193.423,373.295 194.5,374.5C 196.711,377.756 199.045,380.922 201.5,384C 204.23,384.728 206.897,384.562 209.5,383.5C 210.308,383.808 210.975,384.308 211.5,385C 206.845,385.499 202.179,385.666 197.5,385.5C 197.477,383.073 196.977,380.74 196,378.5C 193.96,376.63 192.127,374.63 190.5,372.5 Z"/></g>
<g><path style="opacity:1" fill="#000000" d="M 349.5,376.5 C 351.317,373.425 353.984,372.259 357.5,373C 354.929,374.454 352.262,375.62 349.5,376.5 Z"/></g>
<g><path style="opacity:1" fill="#000000" d="M 349.5,376.5 C 344.731,382.139 340.898,388.472 338,395.5C 337.658,393.182 338.158,391.015 339.5,389C 339.167,388.667 338.833,388.333 338.5,388C 334.425,387.482 330.425,387.482 326.5,388C 327.167,387.333 327.833,386.667 328.5,386C 332.833,385.667 337.167,385.333 341.5,385C 343.16,381.149 345.827,378.315 349.5,376.5 Z"/></g>
<g><path style="opacity:1" fill="#000000" d="M 364.5,376.5 C 365.659,379.253 365.159,381.919 363,384.5C 362.554,381.667 363.054,379.001 364.5,376.5 Z"/></g>
<g><path style="opacity:1" fill="#000000" d="M 247.5,396.5 C 240.086,394.972 232.752,395.305 225.5,397.5C 223.305,391.805 219.305,387.972 213.5,386C 217.16,386.151 220.494,387.485 223.5,390C 224.479,392.137 225.812,393.971 227.5,395.5C 233.013,393.55 238.68,393.05 244.5,394C 245.942,394.377 246.942,395.21 247.5,396.5 Z"/></g>
<g><path style="opacity:1" fill="#000000" d="M 304.5,409.5 C 307.241,405.691 309.741,401.691 312,397.5C 314.702,394.299 317.869,391.632 321.5,389.5C 319.507,392.895 316.674,396.229 313,399.5C 310.969,403.684 308.136,407.017 304.5,409.5 Z"/></g>
<g><path style="opacity:1" fill="#000000" d="M 297.5,394.5 C 300.898,394.18 304.232,394.513 307.5,395.5C 304.571,395.393 301.571,395.727 298.5,396.5C 296.279,396.561 295.946,395.895 297.5,394.5 Z"/></g>
<g><path style="opacity:1" fill="#000000" d="M 247.5,396.5 C 250.608,396.375 252.608,397.708 253.5,400.5C 251.223,399.551 249.223,398.218 247.5,396.5 Z"/></g>
<g><path style="opacity:1" fill="#000000" d="M 219.5,397.5 C 224.22,397.225 224.554,398.059 220.5,400C 218.5,400.667 216.5,400.667 214.5,400C 216.491,399.626 218.158,398.793 219.5,397.5 Z"/></g>
<g><path style="opacity:1" fill="#000000" d="M 262.5,397.5 C 264.199,397.34 265.866,397.506 267.5,398C 264.304,399.63 260.97,400.63 257.5,401C 259.233,399.811 260.9,398.644 262.5,397.5 Z"/></g>
<g><path style="opacity:1" fill="#000000" d="M 253.5,400.5 C 254.643,400.908 255.643,401.575 256.5,402.5C 254.757,404.038 252.757,405.038 250.5,405.5C 252.279,404.33 253.279,402.664 253.5,400.5 Z"/></g>
<g><path style="opacity:1" fill="#000000" d="M 250.5,405.5 C 249.594,407.914 247.928,408.747 245.5,408C 246.91,406.628 248.577,405.795 250.5,405.5 Z"/></g>
</svg>
