<?xml version="1.0" encoding="UTF-8"?>
<!DOCTYPE svg PUBLIC "-//W3C//DTD SVG 1.1//EN" "http://www.w3.org/Graphics/SVG/1.1/DTD/svg11.dtd">
<svg xmlns="http://www.w3.org/2000/svg" version="1.1" width="430px" height="432px" style="shape-rendering:geometricPrecision; text-rendering:geometricPrecision; image-rendering:optimizeQuality; fill-rule:evenodd; clip-rule:evenodd" xmlns:xlink="http://www.w3.org/1999/xlink">
<g><path style="opacity:1" fill="#fefffe" d="M 200.5,50.5 C 206.176,50.3339 211.843,50.5006 217.5,51C 218.667,52.1667 219.833,53.3333 221,54.5C 222.305,64.5371 223.805,74.5371 225.5,84.5C 225.955,88.6318 224.955,92.2985 222.5,95.5C 224.686,96.2208 226.853,96.8875 229,97.5C 232.28,95.7287 235.446,93.7287 238.5,91.5C 238.998,88.4074 239.998,85.5741 241.5,83C 243.167,82.8333 244.833,82.6667 246.5,82.5C 250.897,84.3227 255.563,85.4893 260.5,86C 263.888,88.5313 266.221,91.698 267.5,95.5C 269.592,95.5614 271.092,96.5614 272,98.5C 272.333,103.833 272.667,109.167 273,114.5C 278.405,116.231 281.072,119.897 281,125.5C 286.258,131.692 290.758,138.358 294.5,145.5C 294.833,148 295.167,150.5 295.5,153C 295.439,157.37 294.939,161.536 294,165.5C 298.056,169.886 301.723,174.553 305,179.5C 305.667,185.5 305.667,191.5 305,197.5C 300.016,198.773 299.35,201.107 303,204.5C 303.172,209.202 303.672,213.868 304.5,218.5C 308.01,225.597 311.677,232.597 315.5,239.5C 325.705,247.012 328.205,256.679 323,268.5C 318.96,273.622 314.127,277.955 308.5,281.5C 307.407,285.108 307.24,288.775 308,292.5C 310.185,293.928 312.185,295.595 314,297.5C 319.489,307.457 321.822,318.124 321,329.5C 322.968,334.608 324.301,339.941 325,345.5C 325.667,353.833 325.667,362.167 325,370.5C 322.072,371.76 320.239,373.927 319.5,377C 314.325,380.86 308.491,382.36 302,381.5C 290.045,383.293 285.712,378.293 289,366.5C 290.433,363.402 292.266,360.569 294.5,358C 294.994,356.538 295.327,355.038 295.5,353.5C 291.975,344.926 288.641,336.26 285.5,327.5C 284.5,327.5 283.5,327.5 282.5,327.5C 282.649,326.448 282.483,325.448 282,324.5C 280.488,323.743 279.154,322.743 278,321.5C 277.751,318.823 276.751,316.49 275,314.5C 270.333,311.167 266.333,307.167 263,302.5C 262.667,299.5 262.333,296.5 262,293.5C 255.846,290.729 249.679,288.063 243.5,285.5C 242.334,295.817 242.168,306.151 243,316.5C 249.008,325.919 248.508,335.086 241.5,344C 226.5,344.778 211.5,345.111 196.5,345C 193.823,344.751 191.49,343.751 189.5,342C 188.363,336.918 188.196,331.751 189,326.5C 192.238,324.642 195.738,323.308 199.5,322.5C 202.542,319.98 205.876,317.98 209.5,316.5C 209.666,312.486 209.499,308.486 209,304.5C 207.181,295.075 205.181,285.742 203,276.5C 200.879,272.12 198.879,267.787 197,263.5C 196.333,258.5 196.333,253.5 197,248.5C 203.083,239.746 209.917,231.58 217.5,224C 208.852,224.277 200.519,222.944 192.5,220C 188.167,219.667 183.833,219.333 179.5,219C 173.001,214.443 167.001,209.443 161.5,204C 158.376,202.686 155.209,201.52 152,200.5C 145.193,201.572 138.36,201.739 131.5,201C 130.193,198.676 128.193,197.343 125.5,197C 110.167,196.667 94.8333,196.333 79.5,196C 77.5,195 75.5,194 73.5,193C 73.0037,191.004 72.0037,189.337 70.5,188C 48.8079,186.831 27.1412,185.165 5.5,183C 4.54948,179.943 4.21614,176.777 4.5,173.5C 29.8047,171.934 55.138,171.434 80.5,172C 86.7946,173.824 93.1279,175.324 99.5,176.5C 118.513,175.916 137.513,175.083 156.5,174C 157.357,173.311 158.023,172.478 158.5,171.5C 165.828,170.314 173.161,170.314 180.5,171.5C 185.491,170.91 190.491,170.41 195.5,170C 194.81,167.304 193.31,165.137 191,163.5C 190.667,157.5 190.333,151.5 190,145.5C 188.117,144.347 187.284,142.681 187.5,140.5C 183.486,140.666 179.486,140.499 175.5,140C 172.817,133.934 170.484,127.768 168.5,121.5C 164.106,121.946 162.44,119.946 163.5,115.5C 163.667,113.833 163.833,112.167 164,110.5C 165.464,109.541 166.297,108.208 166.5,106.5C 165.051,104.087 164.384,101.42 164.5,98.5C 164.288,95.9886 164.955,93.8219 166.5,92C 165.024,88.8683 164.357,85.5349 164.5,82C 165.534,76.2102 166.534,70.3769 167.5,64.5C 171.098,59.7295 175.431,55.8962 180.5,53C 186.833,52.6667 193.167,52.3333 199.5,52C 200.056,51.6174 200.389,51.1174 200.5,50.5 Z"/></g>
<g><path style="opacity:1" fill="#060607" d="M 202.5,52.5 C 217.852,50.3583 223.518,56.8583 219.5,72C 225.207,81.12 224.707,89.9533 218,98.5C 217.333,99.5 217.333,100.5 218,101.5C 218.5,100.333 219.333,99.5 220.5,99C 223.359,98.447 226.192,98.6137 229,99.5C 233.255,98.3558 237.089,96.3558 240.5,93.5C 241.314,91.2338 241.814,88.9005 242,86.5C 243.126,85.0564 244.626,84.3898 246.5,84.5C 250.057,86.8085 254.057,87.9752 258.5,88C 261.888,90.5313 264.221,93.698 265.5,97.5C 267.592,97.5614 269.092,98.5614 270,100.5C 270.796,104.755 270.629,108.921 269.5,113C 270.191,114.067 270.691,115.234 271,116.5C 276.405,118.231 279.072,121.897 279,127.5C 284.258,133.692 288.758,140.358 292.5,147.5C 294.364,154.068 293.364,160.068 289.5,165.5C 294.705,170.248 299.205,175.581 303,181.5C 303.667,186.167 303.667,190.833 303,195.5C 300.75,196.708 298.583,198.041 296.5,199.5C 301.32,204.545 302.654,210.378 300.5,217C 304.504,225.34 308.838,233.507 313.5,241.5C 318.414,245.393 321.747,250.227 323.5,256C 323.671,259.792 322.838,263.292 321,266.5C 315.686,271.98 310.186,277.314 304.5,282.5C 305.197,286.471 305.697,290.471 306,294.5C 308.185,295.928 310.185,297.595 312,299.5C 317.489,309.457 319.822,320.124 319,331.5C 323.145,343.446 324.479,355.78 323,368.5C 320.072,369.76 318.239,371.927 317.5,375C 312.974,378.591 307.807,380.091 302,379.5C 292.917,381.084 289.25,377.417 291,368.5C 292.433,365.402 294.266,362.569 296.5,360C 297.562,356.211 297.729,352.377 297,348.5C 295.117,343.615 292.784,338.948 290,334.5C 288.57,331.647 287.737,328.647 287.5,325.5C 286.5,325.5 285.5,325.5 284.5,325.5C 284.649,324.448 284.483,323.448 284,322.5C 282.488,321.743 281.154,320.743 280,319.5C 279.751,316.823 278.751,314.49 277,312.5C 272.333,309.167 268.333,305.167 265,300.5C 264.788,297.242 264.288,294.076 263.5,291C 256.242,287.037 248.575,284.203 240.5,282.5C 240.788,293.199 240.454,303.866 239.5,314.5C 241.772,318.92 243.772,323.42 245.5,328C 244.548,333.183 242.548,337.849 239.5,342C 228.289,341.793 216.956,342.293 205.5,343.5C 200.392,343.89 195.725,342.723 191.5,340C 190.374,336.256 190.207,332.423 191,328.5C 194.238,326.642 197.738,325.308 201.5,324.5C 204.542,321.98 207.876,319.98 211.5,318.5C 211.946,311.214 211.446,303.881 210,296.5C 207.509,289.452 205.842,282.118 205,274.5C 200.718,266.96 198.718,258.96 199,250.5C 205.598,241.068 213.098,232.401 221.5,224.5C 223.124,223.131 223.624,221.464 223,219.5C 211.919,222.71 201.086,221.71 190.5,216.5C 187.562,217.575 184.562,217.741 181.5,217C 175.001,212.443 169.001,207.443 163.5,202C 160.013,200.755 156.679,199.255 153.5,197.5C 146.941,199.373 140.275,199.873 133.5,199C 132.193,196.676 130.193,195.343 127.5,195C 112.167,194.667 96.8333,194.333 81.5,194C 79.5,193 77.5,192 75.5,191C 75.0037,189.004 74.0037,187.337 72.5,186C 50.8079,184.831 29.1412,183.165 7.5,181C 6.59391,179.301 6.26057,177.467 6.5,175.5C 30.4723,174.001 54.4723,173.501 78.5,174C 85.3841,176.244 92.3841,177.744 99.5,178.5C 119.182,177.95 138.849,177.116 158.5,176C 160.808,173.428 163.808,172.261 167.5,172.5C 170.371,172.618 173.038,173.284 175.5,174.5C 183.103,173.283 190.769,172.449 198.5,172C 197.798,167.887 195.965,164.387 193,161.5C 192.264,156.134 192.431,150.8 193.5,145.5C 192.722,143.853 191.556,142.52 190,141.5C 189.506,139.866 189.34,138.199 189.5,136.5C 185.737,138.304 181.737,138.804 177.5,138C 174.817,131.934 172.484,125.768 170.5,119.5C 167.07,120.245 165.403,118.911 165.5,115.5C 166.973,112.68 167.973,109.68 168.5,106.5C 168.31,103.672 167.643,101.006 166.5,98.5C 166.931,96.2456 167.597,94.0789 168.5,92C 167.416,88.7495 166.75,85.4161 166.5,82C 167.68,76.8983 168.68,71.7316 169.5,66.5C 173.098,61.7295 177.431,57.8962 182.5,55C 188.833,54.6667 195.167,54.3333 201.5,54C 202.056,53.6174 202.389,53.1174 202.5,52.5 Z"/></g>
<g><path style="opacity:1" fill="#efefef" d="M 215.5,67.5 C 210.908,66.4016 206.241,65.7349 201.5,65.5C 202.609,62.5711 203.942,59.7377 205.5,57C 213.605,55.6316 216.939,59.1316 215.5,67.5 Z"/></g>
<g><path style="opacity:1" fill="#e41a22" d="M 201.5,65.5 C 206.241,65.7349 210.908,66.4016 215.5,67.5C 212.745,74.5962 208.412,80.5962 202.5,85.5C 200.912,84.9904 199.745,83.9904 199,82.5C 198.333,77.8333 198.333,73.1667 199,68.5C 199.852,67.4293 200.685,66.4293 201.5,65.5 Z"/></g>
<g><path style="opacity:1" fill="#ec1c23" d="M 180.5,81.5 C 180.5,83.1667 180.5,84.8333 180.5,86.5C 176.828,86.1826 175.162,87.8493 175.5,91.5C 174.833,91.5 174.167,91.5 173.5,91.5C 174.473,88.3662 175.807,85.3662 177.5,82.5C 178.325,81.6143 179.325,81.281 180.5,81.5 Z"/></g>
<g><path style="opacity:1" fill="#fefffe" d="M 180.5,81.5 C 182.167,81.5 183.833,81.5 185.5,81.5C 185.5,83.1667 185.5,84.8333 185.5,86.5C 183.833,86.5 182.167,86.5 180.5,86.5C 180.5,84.8333 180.5,83.1667 180.5,81.5 Z"/></g>
<g><path style="opacity:1" fill="#ec1c23" d="M 185.5,81.5 C 188.188,81.1658 190.521,81.8325 192.5,83.5C 192.5,84.5 192.5,85.5 192.5,86.5C 191.833,87.1667 191.167,87.8333 190.5,88.5C 189.796,86.6558 188.463,86.1558 186.5,87C 185.594,88.6995 185.261,90.5328 185.5,92.5C 187.167,92.5 188.833,92.5 190.5,92.5C 190.5,93.1667 190.5,93.8333 190.5,94.5C 190.672,95.4916 190.338,96.1583 189.5,96.5C 188.167,96.5 186.833,96.5 185.5,96.5C 185.463,93.2984 183.797,91.6317 180.5,91.5C 180.5,89.8333 180.5,88.1667 180.5,86.5C 182.167,86.5 183.833,86.5 185.5,86.5C 185.5,84.8333 185.5,83.1667 185.5,81.5 Z"/></g>
<g><path style="opacity:1" fill="#ffe1da" d="M 192.5,83.5 C 200.09,83.342 200.09,84.342 192.5,86.5C 192.5,85.5 192.5,84.5 192.5,83.5 Z"/></g>
<g><path style="opacity:1" fill="#1b8d3c" d="M 180.5,86.5 C 180.5,88.1667 180.5,89.8333 180.5,91.5C 179.167,91.5 177.833,91.5 176.5,91.5C 176.167,91.5 175.833,91.5 175.5,91.5C 175.162,87.8493 176.828,86.1826 180.5,86.5 Z"/></g>
<g><path style="opacity:1" fill="#1b8d3c" d="M 190.5,88.5 C 190.5,89.8333 190.5,91.1667 190.5,92.5C 188.833,92.5 187.167,92.5 185.5,92.5C 185.261,90.5328 185.594,88.6995 186.5,87C 188.463,86.1558 189.796,86.6558 190.5,88.5 Z"/></g>
<g><path style="opacity:1" fill="#ec1c23" d="M 208.5,90.5 C 207.833,90.8333 207.167,91.1667 206.5,91.5C 205.15,90.1765 205.317,89.1765 207,88.5C 208.03,88.8361 208.53,89.5028 208.5,90.5 Z"/></g>
<g><path style="opacity:1" fill="#fefffe" d="M 245.5,89.5 C 250.386,90.8568 250.553,92.5234 246,94.5C 245.506,92.8659 245.34,91.1992 245.5,89.5 Z"/></g>
<g><path style="opacity:1" fill="#fefffe" d="M 208.5,90.5 C 209.833,91.1667 209.833,91.8333 208.5,92.5C 207.833,92.5 207.167,92.5 206.5,92.5C 206.5,92.1667 206.5,91.8333 206.5,91.5C 207.167,91.1667 207.833,90.8333 208.5,90.5 Z"/></g>
<g><path style="opacity:1" fill="#fefffe" d="M 173.5,91.5 C 174.167,91.5 174.833,91.5 175.5,91.5C 175.833,91.5 176.167,91.5 176.5,91.5C 176.5,93.1667 176.5,94.8333 176.5,96.5C 175.022,96.762 173.689,96.4287 172.5,95.5C 173.246,94.2638 173.579,92.9305 173.5,91.5 Z"/></g>
<g><path style="opacity:1" fill="#ec1c23" d="M 176.5,91.5 C 177.833,91.5 179.167,91.5 180.5,91.5C 180.5,93.1667 180.5,94.8333 180.5,96.5C 179.167,96.5 177.833,96.5 176.5,96.5C 176.5,94.8333 176.5,93.1667 176.5,91.5 Z"/></g>
<g><path style="opacity:1" fill="#fefffe" d="M 180.5,91.5 C 183.797,91.6317 185.463,93.2984 185.5,96.5C 183.833,96.5 182.167,96.5 180.5,96.5C 180.5,94.8333 180.5,93.1667 180.5,91.5 Z"/></g>
<g><path style="opacity:1" fill="#ec1c23" d="M 206.5,92.5 C 207.167,92.5 207.833,92.5 208.5,92.5C 208.371,94.2161 208.038,95.8828 207.5,97.5C 205.824,98.1834 205.157,99.5168 205.5,101.5C 204.005,101.585 203.005,100.919 202.5,99.5C 204.17,97.3317 205.503,94.9984 206.5,92.5 Z"/></g>
<g><path style="opacity:1" fill="#fefffe" d="M 190.5,94.5 C 192.048,94.8212 192.715,95.8212 192.5,97.5C 191.209,97.7373 190.209,97.404 189.5,96.5C 190.338,96.1583 190.672,95.4916 190.5,94.5 Z"/></g>
<g><path style="opacity:1" fill="#737496" d="M 245.5,116.5 C 243.613,113.423 241.446,110.423 239,107.5C 237.698,106.915 236.531,106.249 235.5,105.5C 235.389,104.883 235.056,104.383 234.5,104C 239.473,101.511 244.14,98.5112 248.5,95C 250.464,94.376 252.131,94.876 253.5,96.5C 253.489,95.5585 253.989,94.8919 255,94.5C 256.338,95.5061 257.671,96.5061 259,97.5C 259.414,97.0426 259.914,96.7093 260.5,96.5C 262.055,98.8174 263.222,101.151 264,103.5C 261.317,102.325 258.983,100.658 257,98.5C 256.383,99.4491 256.549,100.282 257.5,101C 252.905,103.657 249.238,107.157 246.5,111.5C 247.649,114.436 248.149,117.436 248,120.5C 247.667,120.833 247.333,121.167 247,121.5C 246.802,119.618 246.302,117.952 245.5,116.5 Z"/></g>
<g><path style="opacity:1" fill="#e75c00" d="M 203.5,121.5 C 202.234,120.91 200.901,120.41 199.5,120C 201.442,117.863 203.109,115.529 204.5,113C 203.652,110.23 203.319,107.397 203.5,104.5C 198.291,103.705 196.291,105.705 197.5,110.5C 193.87,114.017 192.536,118.35 193.5,123.5C 192.167,123.5 190.833,123.5 189.5,123.5C 190.084,120.33 190.75,117.163 191.5,114C 191.316,112.624 190.649,111.791 189.5,111.5C 188.527,109.7 187.527,107.866 186.5,106C 183.253,104.208 179.919,102.708 176.5,101.5C 174.631,100.835 172.631,100.169 170.5,99.5C 170.709,98.914 171.043,98.414 171.5,98C 185.058,97.5185 198.058,99.8518 210.5,105C 209.978,105.561 209.645,106.228 209.5,107C 211.04,109.083 212.04,111.416 212.5,114C 210.569,117.763 207.569,120.263 203.5,121.5 Z"/></g>
<g><path style="opacity:1" fill="#fefffe" d="M 207.5,97.5 C 207.833,98.1667 208.167,98.8333 208.5,99.5C 208.5,100.167 208.5,100.833 208.5,101.5C 207.5,101.5 206.5,101.5 205.5,101.5C 205.157,99.5168 205.824,98.1834 207.5,97.5 Z"/></g>
<g><path style="opacity:1" fill="#ec1c23" d="M 208.5,99.5 C 211.167,100.167 211.167,100.833 208.5,101.5C 208.5,100.833 208.5,100.167 208.5,99.5 Z"/></g>
<g><path style="opacity:1" fill="#dfcda8" d="M 176.5,101.5 C 179.919,102.708 183.253,104.208 186.5,106C 187.527,107.866 188.527,109.7 189.5,111.5C 187.981,114.703 186.314,117.87 184.5,121C 185.282,123.74 185.782,126.574 186,129.5C 186.708,130.381 187.542,131.047 188.5,131.5C 185.876,132.494 183.21,133.494 180.5,134.5C 181.093,131.404 180.093,129.071 177.5,127.5C 179.475,126.725 180.309,125.391 180,123.5C 176,121.85 173.667,118.85 173,114.5C 172.174,116.405 171.007,116.739 169.5,115.5C 171.415,113.929 172.415,111.929 172.5,109.5C 173.873,109.657 175.207,109.49 176.5,109C 175.939,107.434 176.606,106.101 178.5,105C 176.433,104.464 174.599,104.964 173,106.5C 172.506,104.866 172.34,103.199 172.5,101.5C 173.833,101.5 175.167,101.5 176.5,101.5 Z"/></g>
<g><path style="opacity:1" fill="#fefffe" d="M 222.5,103.5 C 224.827,103.247 226.827,103.914 228.5,105.5C 225.982,107.464 223.316,108.13 220.5,107.5C 221.18,106.14 221.847,104.807 222.5,103.5 Z"/></g>
<g><path style="opacity:1" fill="#b7a98b" d="M 203.5,121.5 C 203.611,122.117 203.944,122.617 204.5,123C 201.167,126.333 197.833,129.667 194.5,133C 192.689,132.293 190.689,131.793 188.5,131.5C 190.667,129.17 192.334,126.503 193.5,123.5C 192.536,118.35 193.87,114.017 197.5,110.5C 196.291,105.705 198.291,103.705 203.5,104.5C 203.319,107.397 203.652,110.23 204.5,113C 203.109,115.529 201.442,117.863 199.5,120C 200.901,120.41 202.234,120.91 203.5,121.5 Z"/></g>
<g><path style="opacity:1" fill="#fefffe" d="M 235.5,105.5 C 236.531,106.249 237.698,106.915 239,107.5C 241.446,110.423 243.613,113.423 245.5,116.5C 245.852,119.073 245.352,121.406 244,123.5C 243.536,122.906 243.369,122.239 243.5,121.5C 243.049,114.387 239.383,110.053 232.5,108.5C 231.909,107.849 231.243,107.182 230.5,106.5C 232.045,105.548 233.712,105.215 235.5,105.5 Z"/></g>
<g><path style="opacity:1" fill="#626384" d="M 232.5,108.5 C 239.383,110.053 243.049,114.387 243.5,121.5C 242.751,122.531 242.085,123.698 241.5,125C 237.119,127.521 233.119,130.521 229.5,134C 227.527,134.495 225.527,134.662 223.5,134.5C 221.231,132.357 218.564,130.69 215.5,129.5C 216.241,124.537 216.408,119.537 216,114.5C 220.515,110.151 226.015,108.151 232.5,108.5 Z"/></g>
<g><path style="opacity:1" fill="#b59c69" d="M 189.5,111.5 C 190.649,111.791 191.316,112.624 191.5,114C 190.75,117.163 190.084,120.33 189.5,123.5C 190.833,123.5 192.167,123.5 193.5,123.5C 192.334,126.503 190.667,129.17 188.5,131.5C 187.542,131.047 186.708,130.381 186,129.5C 185.782,126.574 185.282,123.74 184.5,121C 186.314,117.87 187.981,114.703 189.5,111.5 Z"/></g>
<g><path style="opacity:1" fill="#fefffe" d="M 271.5,131.5 C 270.504,131.586 269.671,131.252 269,130.5C 265.97,126.302 263.137,121.968 260.5,117.5C 260.833,117.167 261.167,116.833 261.5,116.5C 265.203,121.32 268.536,126.32 271.5,131.5 Z"/></g>
<g><path style="opacity:1" fill="#b9b9b9" d="M 212.5,121.5 C 207.138,127.942 201.138,133.608 194.5,138.5C 193.711,138.217 193.044,137.717 192.5,137C 199.083,130.079 205.917,123.579 213,117.5C 213.195,118.819 213.028,120.153 212.5,121.5 Z"/></g>
<g><path style="opacity:1" fill="#fef200" d="M 212.5,121.5 C 214.805,123.045 215.138,125.045 213.5,127.5C 209.854,129.817 206.52,132.484 203.5,135.5C 202.504,135.414 201.671,135.748 201,136.5C 200.027,138.392 199.36,140.392 199,142.5C 197.333,141.267 195.833,139.933 194.5,138.5C 201.138,133.608 207.138,127.942 212.5,121.5 Z"/></g>
<g><path style="opacity:1" fill="#fefffe" d="M 266.5,144.5 C 265.504,144.586 264.671,144.252 264,143.5C 259.186,136.359 254.02,129.526 248.5,123C 249.944,122.219 251.277,122.386 252.5,123.5C 257.218,130.536 261.885,137.536 266.5,144.5 Z"/></g>
<g><path style="opacity:1" fill="#a3a3a3" d="M 213.5,127.5 C 214.354,128.632 214.354,129.965 213.5,131.5C 211.095,132.687 208.761,134.187 206.5,136C 205.251,136.74 204.251,136.573 203.5,135.5C 206.52,132.484 209.854,129.817 213.5,127.5 Z"/></g>
<g><path style="opacity:1" fill="#ec1c23" d="M 218.5,134.5 C 215.502,135.342 212.502,135.842 209.5,136C 211.041,134.629 212.375,133.129 213.5,131.5C 214.496,131.586 215.329,131.252 216,130.5C 216.903,131.701 218.069,132.535 219.5,133C 218.944,133.383 218.611,133.883 218.5,134.5 Z"/></g>
<g><path style="opacity:1" fill="#ec1c23" d="M 271.5,134.5 C 271.5,134.833 271.5,135.167 271.5,135.5C 270.153,136.171 268.986,136.171 268,135.5C 267.333,136.5 267.333,137.5 268,138.5C 268.654,137.304 269.154,137.304 269.5,138.5C 269.137,139.183 268.804,139.85 268.5,140.5C 266.182,138.375 265.348,135.709 266,132.5C 266.414,132.043 266.914,131.709 267.5,131.5C 268.642,132.826 269.976,133.826 271.5,134.5 Z"/></g>
<g><path style="opacity:1" fill="#fefffe" d="M 271.5,131.5 C 274.605,134.275 276.938,137.608 278.5,141.5C 275.954,139.436 273.621,137.103 271.5,134.5C 271.5,133.5 271.5,132.5 271.5,131.5 Z"/></g>
<g><path style="opacity:1" fill="#ebebeb" d="M 218.5,134.5 C 220.167,134.5 221.833,134.5 223.5,134.5C 226.775,135.317 229.108,137.317 230.5,140.5C 223.592,141.994 216.592,142.827 209.5,143C 207.892,145.609 205.559,146.942 202.5,147C 203.793,147.49 205.127,147.657 206.5,147.5C 206.657,148.873 206.49,150.207 206,151.5C 204.278,154.363 202.445,157.03 200.5,159.5C 198.983,159.489 197.816,158.823 197,157.5C 196.333,155.167 196.333,152.833 197,150.5C 198.671,147.018 200.837,144.018 203.5,141.5C 208.504,138.954 213.504,136.621 218.5,134.5 Z"/></g>
<g><path style="opacity:1" fill="#fff6f4" d="M 271.5,135.5 C 271.833,136.167 272.167,136.833 272.5,137.5C 270.451,137.706 270.117,138.539 271.5,140C 270.552,140.483 269.552,140.649 268.5,140.5C 268.804,139.85 269.137,139.183 269.5,138.5C 269.154,137.304 268.654,137.304 268,138.5C 267.333,137.5 267.333,136.5 268,135.5C 268.986,136.171 270.153,136.171 271.5,135.5 Z"/></g>
<g><path style="opacity:1" fill="#ee2929" d="M 272.5,137.5 C 273.848,139.645 274.182,141.812 273.5,144C 274.938,144.219 276.271,144.719 277.5,145.5C 272.907,146.936 269.907,145.27 268.5,140.5C 269.552,140.649 270.552,140.483 271.5,140C 270.117,138.539 270.451,137.706 272.5,137.5 Z"/></g>
<g><path style="opacity:1" fill="#fefffe" d="M 203.5,141.5 C 202.504,141.414 201.671,141.748 201,142.5C 200.762,139.35 202.262,138.184 205.5,139C 204.619,139.708 203.953,140.542 203.5,141.5 Z"/></g>
<g><path style="opacity:1" fill="#fefffe" d="M 278.5,141.5 C 280.984,143.8 282.984,146.467 284.5,149.5C 281.544,147.604 279.544,144.938 278.5,141.5 Z"/></g>
<g><path style="opacity:1" fill="#e71a22" d="M 230.5,174.5 C 227.54,185.592 225.04,196.925 223,208.5C 221.426,211.322 219.926,214.156 218.5,217C 214.5,217.667 210.5,217.667 206.5,217C 200.367,214.4 194.034,212.4 187.5,211C 186.541,209.293 185.875,207.459 185.5,205.5C 186.762,202.978 187.429,200.311 187.5,197.5C 189.5,197.5 190.5,196.5 190.5,194.5C 193.311,194.571 195.978,195.238 198.5,196.5C 200.577,195.063 202.91,194.396 205.5,194.5C 204.195,186.239 203.362,177.905 203,169.5C 201.236,166.443 200.402,163.11 200.5,159.5C 203.41,157.761 205.91,155.428 208,152.5C 208.226,149.905 208.726,147.405 209.5,145C 215.841,144.595 222.174,144.095 228.5,143.5C 230.167,143.833 231.833,144.167 233.5,144.5C 238.723,154.604 244.723,164.271 251.5,173.5C 248.368,175.135 245.368,176.968 242.5,179C 238.582,180.156 234.582,180.656 230.5,180.5C 230.5,178.5 230.5,176.5 230.5,174.5 Z"/></g>
<g><path style="opacity:1" fill="#fefffe" d="M 266.5,144.5 C 268.9,146.296 270.567,148.63 271.5,151.5C 269.1,149.704 267.433,147.37 266.5,144.5 Z"/></g>
<g><path style="opacity:1" fill="#f2f3f2" d="M 245.5,149.5 C 247.344,150.204 247.844,151.537 247,153.5C 245.812,152.437 245.312,151.103 245.5,149.5 Z"/></g>
<g><path style="opacity:1" fill="#494949" d="M 248.5,147.5 C 251.625,148.597 254.792,149.597 258,150.5C 262.188,158.361 267.188,165.694 273,172.5C 273.688,173.332 273.521,173.998 272.5,174.5C 268.667,169.5 264.833,164.5 261,159.5C 258.016,161.707 257.85,161.207 260.5,158C 258.835,155.927 257.335,153.76 256,151.5C 253.876,150.773 251.709,150.106 249.5,149.5C 248.702,149.043 248.369,148.376 248.5,147.5 Z"/></g>
<g><path style="opacity:1" fill="#fefffe" d="M 284.5,149.5 C 285.906,149.973 286.573,150.973 286.5,152.5C 285.094,152.027 284.427,151.027 284.5,149.5 Z"/></g>
<g><path style="opacity:1" fill="#fefffe" d="M 271.5,151.5 C 273.048,151.821 273.715,152.821 273.5,154.5C 272.094,154.027 271.427,153.027 271.5,151.5 Z"/></g>
<g><path style="opacity:1" fill="#fefffe" d="M 286.5,152.5 C 288.085,153.002 288.585,154.002 288,155.5C 286.961,154.756 286.461,153.756 286.5,152.5 Z"/></g>
<g><path style="opacity:1" fill="#fefffe" d="M 273.5,154.5 C 275.5,154.5 276.5,155.5 276.5,157.5C 276.5,155.5 275.5,154.5 273.5,154.5 Z"/></g>
<g><path style="opacity:1" fill="#fefffe" d="M 276.5,157.5 C 277.906,157.973 278.573,158.973 278.5,160.5C 277.094,160.027 276.427,159.027 276.5,157.5 Z"/></g>
<g><path style="opacity:1" fill="#fefffe" d="M 278.5,160.5 C 279.748,161.334 280.415,162.667 280.5,164.5C 280.333,165.833 280.167,167.167 280,168.5C 279.605,165.793 279.105,163.127 278.5,160.5 Z"/></g>
<g><path style="opacity:1" fill="#831915" d="M 230.5,168.5 C 230.5,169.167 230.5,169.833 230.5,170.5C 229.038,171.458 227.705,172.624 226.5,174C 225.365,174.749 224.365,174.583 223.5,173.5C 226.322,170.844 228.988,168.011 231.5,165C 232.167,164.333 232.833,164.333 233.5,165C 232.635,166.359 231.635,167.526 230.5,168.5 Z"/></g>
<g><path style="opacity:1" fill="#000000" d="M 230.5,168.5 C 231.497,168.47 232.164,168.97 232.5,170C 232.101,171.728 231.434,173.228 230.5,174.5C 230.5,173.167 230.5,171.833 230.5,170.5C 230.5,169.833 230.5,169.167 230.5,168.5 Z"/></g>
<g><path style="opacity:1" fill="#d9dad9" d="M 235.5,184.5 C 233.396,184.799 231.396,184.466 229.5,183.5C 237.782,182.938 245.282,180.271 252,175.5C 253.171,176.34 254.338,177.173 255.5,178C 249.205,181.405 242.538,183.572 235.5,184.5 Z"/></g>
<g><path style="opacity:1" fill="#7e7f7e" d="M 15.5,178.5 C 35.9959,177.337 56.6626,177.171 77.5,178C 82.7027,179.123 87.7027,180.623 92.5,182.5C 92.1667,185.167 91.8333,187.833 91.5,190.5C 86.6104,191.216 82.4437,189.883 79,186.5C 78.51,185.207 78.3433,183.873 78.5,182.5C 57.5565,180.323 36.5565,178.989 15.5,178.5 Z"/></g>
<g><path style="opacity:1" fill="#edd9ae" d="M 167.5,182.5 C 170.298,183.887 172.798,185.887 175,188.5C 175.667,190.167 175.667,191.833 175,193.5C 173.165,195.449 171.999,197.783 171.5,200.5C 167.79,198.763 164.123,196.929 160.5,195C 162.046,192.743 163.712,190.576 165.5,188.5C 161.924,184.859 161.757,181.192 165,177.5C 165.757,179.315 166.59,180.981 167.5,182.5 Z"/></g>
<g><path style="opacity:1" fill="#e2c481" d="M 167.5,177.5 C 171.588,177.218 172.088,177.885 169,179.5C 167.97,179.164 167.47,178.497 167.5,177.5 Z"/></g>
<g><path style="opacity:1" fill="#5c5d5c" d="M 195.5,182.5 C 186.167,182.5 176.833,182.5 167.5,182.5C 168.23,180.955 169.563,180.122 171.5,180C 181.818,178.923 192.152,178.09 202.5,177.5C 202.5,178.833 202.5,180.167 202.5,181.5C 199.941,181.198 197.607,181.532 195.5,182.5 Z"/></g>
<g><path style="opacity:1" fill="#870014" d="M 268.5,199.5 C 269.152,198.551 269.486,197.385 269.5,196C 268.927,191.842 268.427,187.676 268,183.5C 267.5,183 267,182.5 266.5,182C 268.369,180.499 270.203,178.999 272,177.5C 273.083,187.488 274.083,197.488 275,207.5C 277.622,209.373 278.456,211.707 277.5,214.5C 275.533,210.699 272.7,207.699 269,205.5C 268.505,203.527 268.338,201.527 268.5,199.5 Z"/></g>
<g><path style="opacity:1" fill="#e51921" d="M 256.5,202.5 C 247.372,200.357 238.039,198.69 228.5,197.5C 228.142,193.599 228.142,189.599 228.5,185.5C 231.059,185.802 233.393,185.468 235.5,184.5C 242.919,185.029 249.753,183.362 256,179.5C 261.832,186.138 262.999,193.638 259.5,202C 258.552,202.483 257.552,202.649 256.5,202.5 Z"/></g>
<g><path style="opacity:1" fill="#7e7f7e" d="M 149.5,180.5 C 153.167,180.5 156.833,180.5 160.5,180.5C 160.5,181.5 160.5,182.5 160.5,183.5C 138.506,184.262 116.506,184.928 94.5,185.5C 94.5,184.5 94.5,183.5 94.5,182.5C 113.025,182.781 131.359,182.115 149.5,180.5 Z"/></g>
<g><path style="opacity:1" fill="#885537" d="M 195.5,182.5 C 201.485,181.27 204.152,183.604 203.5,189.5C 194.385,190.049 185.552,190.049 177,189.5C 176.215,187.714 175.049,186.214 173.5,185C 180.963,184.03 188.296,183.196 195.5,182.5 Z"/></g>
<g><path style="opacity:1" fill="#d9dad9" d="M 268.5,199.5 C 267.661,200.641 266.994,201.974 266.5,203.5C 259.148,203.211 252.982,205.545 248,210.5C 241.474,208.483 235.308,205.816 229.5,202.5C 229.5,201.5 229.5,200.5 229.5,199.5C 238.412,201.263 247.412,202.263 256.5,202.5C 258.994,204.077 260.827,203.41 262,200.5C 262.333,194.833 262.667,189.167 263,183.5C 265.09,182.209 266.424,182.876 267,185.5C 267.665,190.156 268.165,194.823 268.5,199.5 Z"/></g>
<g><path style="opacity:1" fill="#ec1c23" d="M 286.5,209.5 C 286.649,208.448 286.483,207.448 286,206.5C 282.909,201.986 279.575,197.653 276,193.5C 274.715,189.828 274.548,186.161 275.5,182.5C 280.275,186.437 284.109,191.104 287,196.5C 291.47,200.806 294.97,205.806 297.5,211.5C 295.644,214.409 293.977,217.409 292.5,220.5C 291.25,216.327 289.25,212.661 286.5,209.5 Z"/></g>
<g><path style="opacity:1" fill="#b87a56" d="M 159.5,185.5 C 163.467,186.254 164.133,188.087 161.5,191C 155.167,191.667 148.833,191.667 142.5,191C 141.975,190.308 141.308,189.808 140.5,189.5C 139.369,190.751 138.036,191.751 136.5,192.5C 134.803,192.101 133.137,191.601 131.5,191C 119.171,190.5 106.838,190.333 94.5,190.5C 94.5,189.5 94.5,188.5 94.5,187.5C 112.503,187.667 130.503,187.5 148.5,187C 152.356,186.823 156.023,186.323 159.5,185.5 Z"/></g>
<g><path style="opacity:1" fill="#fef200" d="M 190.5,194.5 C 188.5,194.5 187.5,195.5 187.5,197.5C 186.883,197.611 186.383,197.944 186,198.5C 184.174,203.117 184.007,207.784 185.5,212.5C 184.5,212.5 183.5,212.5 182.5,212.5C 182.923,210.219 182.256,208.552 180.5,207.5C 179.71,206.599 178.71,205.932 177.5,205.5C 177.5,205.167 177.5,204.833 177.5,204.5C 183.305,205.371 183.971,203.538 179.5,199C 178.099,198.59 176.766,198.09 175.5,197.5C 175.531,191.814 178.197,189.314 183.5,190C 185.898,191.524 188.231,193.024 190.5,194.5 Z"/></g>
<g><path style="opacity:1" fill="#fafafa" d="M 142.5,192.5 C 148.509,192.334 154.509,192.501 160.5,193C 155.481,193.335 150.481,193.835 145.5,194.5C 143.97,194.36 142.97,193.693 142.5,192.5 Z"/></g>
<g><path style="opacity:1" fill="#000000" d="M 190.5,194.5 C 190.5,196.5 189.5,197.5 187.5,197.5C 187.5,195.5 188.5,194.5 190.5,194.5 Z"/></g>
<g><path style="opacity:1" fill="#000000" d="M 205.5,194.5 C 209.55,194.624 211.883,196.291 212.5,199.5C 209.923,198.057 207.59,196.39 205.5,194.5 Z"/></g>
<g><path style="opacity:1" fill="#c57232" d="M 275.5,195.5 C 276.779,197.123 278.113,198.79 279.5,200.5C 278.469,201.7 277.635,203.034 277,204.5C 276.304,201.522 275.804,198.522 275.5,195.5 Z"/></g>
<g><path style="opacity:1" fill="#9a9a9a" d="M 175.5,197.5 C 176.766,198.09 178.099,198.59 179.5,199C 183.971,203.538 183.305,205.371 177.5,204.5C 176.5,203.833 175.5,203.167 174.5,202.5C 173.294,200.563 173.627,198.896 175.5,197.5 Z"/></g>
<g><path style="opacity:1" fill="#000000" d="M 215.5,200.5 C 216.473,200.987 217.473,201.487 218.5,202C 216.843,202.725 215.843,202.225 215.5,200.5 Z"/></g>
<g><path style="opacity:1" fill="#fef200" d="M 174.5,202.5 C 175.5,203.167 176.5,203.833 177.5,204.5C 175.571,204.769 173.905,204.269 172.5,203C 173.094,202.536 173.761,202.369 174.5,202.5 Z"/></g>
<g><path style="opacity:1" fill="#c26f32" d="M 286.5,209.5 C 289.795,217.681 292.628,226.014 295,234.5C 296.292,236.249 297.458,238.082 298.5,240C 293.326,241.751 288.659,244.251 284.5,247.5C 281.911,247.461 279.911,248.461 278.5,250.5C 272.829,252.419 267.329,254.752 262,257.5C 261.127,257.265 260.293,256.931 259.5,256.5C 259.094,253.061 258.094,250.061 256.5,247.5C 256.351,246.448 256.517,245.448 257,244.5C 261.079,245.629 265.245,245.796 269.5,245C 270.381,244.292 271.047,243.458 271.5,242.5C 278.464,239.758 282.131,234.591 282.5,227C 281.927,222.842 281.427,218.676 281,214.5C 279.93,211.758 278.43,209.258 276.5,207C 277.726,205.365 279.059,203.865 280.5,202.5C 282.755,204.719 284.755,207.052 286.5,209.5 Z"/></g>
<g><path style="opacity:1" fill="#870014" d="M 235.5,227.5 C 235.167,226.5 234.5,225.833 233.5,225.5C 232.7,223.318 231.2,221.651 229,220.5C 227.692,216.24 226.192,212.074 224.5,208C 225.09,206.491 225.756,204.991 226.5,203.5C 230.313,211.737 235.48,219.07 242,225.5C 242.986,227.925 242.319,229.591 240,230.5C 238.877,228.9 237.377,227.9 235.5,227.5 Z"/></g>
<g><path style="opacity:1" fill="#148dca" d="M 262.5,242.5 C 262.167,242.5 261.833,242.5 261.5,242.5C 259.876,242.64 258.71,241.973 258,240.5C 256.951,242.107 255.451,242.773 253.5,242.5C 252.113,238.978 250.113,236.311 247.5,234.5C 246.527,232.861 245.194,231.527 243.5,230.5C 243.5,226.167 243.5,221.833 243.5,217.5C 244.5,217.5 245.5,217.5 246.5,217.5C 246.5,216.5 246.5,215.5 246.5,214.5C 247.167,214.5 247.833,214.5 248.5,214.5C 249.864,211.62 251.864,209.12 254.5,207C 269.177,203.668 276.844,209.502 277.5,224.5C 276.167,224.5 274.833,224.5 273.5,224.5C 273.662,222.473 273.495,220.473 273,218.5C 272.346,217.304 271.846,217.304 271.5,218.5C 272.246,219.736 272.579,221.07 272.5,222.5C 265.833,222.833 265.833,223.167 272.5,223.5C 272.343,224.873 272.51,226.207 273,227.5C 274.049,225.893 275.549,225.227 277.5,225.5C 277.985,230.542 275.985,234.376 271.5,237C 268.702,239.304 265.702,241.138 262.5,242.5 Z"/></g>
<g><path style="opacity:1" fill="#cdcdcd" d="M 177.5,205.5 C 178.71,205.932 179.71,206.599 180.5,207.5C 181.463,208.363 181.463,209.03 180.5,209.5C 178.833,208.333 177.167,207.167 175.5,206C 176.094,205.536 176.761,205.369 177.5,205.5 Z"/></g>
<g><path style="opacity:1" fill="#d9dad9" d="M 246.5,214.5 C 241.01,214.483 237.676,212.15 236.5,207.5C 239.742,209.14 243.076,210.473 246.5,211.5C 246.5,212.5 246.5,213.5 246.5,214.5 Z"/></g>
<g><path style="opacity:1" fill="#679114" d="M 243.5,217.5 C 241.115,222.117 238.448,221.783 235.5,216.5C 236,215.119 237,214.453 238.5,214.5C 240.869,214.595 242.536,215.595 243.5,217.5 Z"/></g>
<g><path style="opacity:1" fill="#000000" d="M 248.5,214.5 C 250.086,215.148 251.753,215.648 253.5,216C 251.567,216.251 249.734,216.751 248,217.5C 247.53,216.423 247.697,215.423 248.5,214.5 Z"/></g>
<g><path style="opacity:1" fill="#870014" d="M 271.5,242.5 C 267.555,243.656 263.555,244.156 259.5,244C 260.416,243.722 261.082,243.222 261.5,242.5C 261.833,242.5 262.167,242.5 262.5,242.5C 269.072,241.443 274.239,238.109 278,232.5C 278.333,226.833 278.667,221.167 279,215.5C 283.467,226.535 280.967,235.535 271.5,242.5 Z"/></g>
<g><path style="opacity:1" fill="#d1f31a" d="M 296.5,222.5 C 296.297,224.39 296.963,225.89 298.5,227C 297.944,227.383 297.611,227.883 297.5,228.5C 294.911,227.352 293.245,225.352 292.5,222.5C 294.147,220.066 295.48,220.066 296.5,222.5 Z"/></g>
<g><path style="opacity:1" fill="#142a92" d="M 296.5,222.5 C 297.652,223.834 298.652,225.334 299.5,227C 299.164,228.03 298.497,228.53 297.5,228.5C 297.611,227.883 297.944,227.383 298.5,227C 296.963,225.89 296.297,224.39 296.5,222.5 Z"/></g>
<g><path style="opacity:1" fill="#2d6f72" d="M 233.5,225.5 C 234.5,225.833 235.167,226.5 235.5,227.5C 235.5,228.167 235.5,228.833 235.5,229.5C 233.882,231.785 231.882,233.785 229.5,235.5C 227.994,233.599 226.327,231.932 224.5,230.5C 224.577,229.25 225.244,228.417 226.5,228C 226.167,227.667 225.833,227.333 225.5,227C 226.981,226.02 228.315,224.853 229.5,223.5C 230.524,224.853 231.857,225.52 233.5,225.5 Z"/></g>
<g><path style="opacity:1" fill="#6a8436" d="M 235.5,229.5 C 238.034,232.485 240.701,232.818 243.5,230.5C 243.5,231.167 243.5,231.833 243.5,232.5C 242.503,232.47 241.836,232.97 241.5,234C 241.989,235.138 242.322,236.305 242.5,237.5C 241.833,238.167 241.167,238.833 240.5,239.5C 241.833,240.5 241.833,241.5 240.5,242.5C 237.833,243.5 237.833,244.5 240.5,245.5C 241.156,246.278 241.989,246.944 243,247.5C 245.507,245.812 247.007,243.479 247.5,240.5C 249.718,240.614 251.718,241.28 253.5,242.5C 254.234,243.708 254.567,245.041 254.5,246.5C 254.19,247.738 253.69,247.738 253,246.5C 252.498,249.513 251.998,252.513 251.5,255.5C 256.862,255.546 258.862,258.213 257.5,263.5C 256.489,263.02 255.155,263.02 253.5,263.5C 254.518,264.852 255.851,265.852 257.5,266.5C 256.404,268.513 256.737,270.346 258.5,272C 257.877,275.215 257.21,278.382 256.5,281.5C 255.094,281.027 254.427,280.027 254.5,278.5C 255.833,276.167 255.833,273.833 254.5,271.5C 252.811,270.696 251.145,269.696 249.5,268.5C 247.296,271.447 246.296,274.78 246.5,278.5C 244.901,278.768 243.568,278.434 242.5,277.5C 243.172,270.98 245.505,265.147 249.5,260C 248.887,257.853 248.221,255.686 247.5,253.5C 246.264,252.754 244.93,252.421 243.5,252.5C 242.531,252.555 241.864,253.555 241.5,255.5C 241.814,258.564 242.814,261.397 244.5,264C 243.527,268.081 242.193,271.914 240.5,275.5C 238.741,276.261 237.074,275.928 235.5,274.5C 237.313,271.067 239.313,267.734 241.5,264.5C 239.016,262.517 236.683,260.35 234.5,258C 233.207,257.51 231.873,257.343 230.5,257.5C 229.6,261.881 227.933,265.881 225.5,269.5C 223.103,267.441 221.103,265.108 219.5,262.5C 217.718,261.28 215.718,260.614 213.5,260.5C 213.5,259.833 213.5,259.167 213.5,258.5C 217.057,255.064 220.391,251.397 223.5,247.5C 225.659,248.785 226.326,250.452 225.5,252.5C 224.287,253.497 224.454,254.497 226,255.5C 227.039,254.756 227.539,253.756 227.5,252.5C 228.313,251.347 229.313,251.347 230.5,252.5C 231.333,251.5 232.167,250.5 233,249.5C 233.718,250.451 234.551,250.617 235.5,250C 234.969,247.088 233.636,244.254 231.5,241.5C 230.994,239.895 230.327,239.561 229.5,240.5C 228.527,241.791 227.527,241.791 226.5,240.5C 224.719,237.909 222.719,235.575 220.5,233.5C 221.262,231.738 222.596,230.738 224.5,230.5C 226.327,231.932 227.994,233.599 229.5,235.5C 231.882,233.785 233.882,231.785 235.5,229.5 Z"/></g>
<g><path style="opacity:1" fill="#06040d" d="M 243.5,230.5 C 245.194,231.527 246.527,232.861 247.5,234.5C 250.113,236.311 252.113,238.978 253.5,242.5C 251.718,241.28 249.718,240.614 247.5,240.5C 247.539,237.911 246.539,235.911 244.5,234.5C 244.167,233.833 243.833,233.167 243.5,232.5C 243.5,231.833 243.5,231.167 243.5,230.5 Z"/></g>
<g><path style="opacity:1" fill="#142a92" d="M 300.5,230.5 C 302.749,232.331 303.915,234.664 304,237.5C 301.762,235.691 300.595,233.358 300.5,230.5 Z"/></g>
<g><path style="opacity:1" fill="#20348e" d="M 243.5,232.5 C 243.833,233.167 244.167,233.833 244.5,234.5C 244.068,235.71 243.401,236.71 242.5,237.5C 242.322,236.305 241.989,235.138 241.5,234C 241.836,232.97 242.503,232.47 243.5,232.5 Z"/></g>
<g><path style="opacity:1" fill="#000000" d="M 247.5,234.5 C 247.783,233.711 248.283,233.044 249,232.5C 250.734,233.249 252.567,233.749 254.5,234C 252.05,235.06 249.717,235.227 247.5,234.5 Z"/></g>
<g><path style="opacity:1" fill="#d0f21a" d="M 220.5,233.5 C 222.719,235.575 224.719,237.909 226.5,240.5C 227.527,241.791 228.527,241.791 229.5,240.5C 229.842,241.338 230.508,241.672 231.5,241.5C 233.636,244.254 234.969,247.088 235.5,250C 234.551,250.617 233.718,250.451 233,249.5C 232.167,250.5 231.333,251.5 230.5,252.5C 229.313,251.347 228.313,251.347 227.5,252.5C 226.604,253.506 225.938,253.506 225.5,252.5C 226.326,250.452 225.659,248.785 223.5,247.5C 223.5,247.167 223.5,246.833 223.5,246.5C 224.837,245.685 225.837,244.518 226.5,243C 224.14,240.049 221.474,237.549 218.5,235.5C 218.833,234.5 219.5,233.833 220.5,233.5 Z"/></g>
<g><path style="opacity:1" fill="#678035" d="M 218.5,235.5 C 221.474,237.549 224.14,240.049 226.5,243C 225.837,244.518 224.837,245.685 223.5,246.5C 221.039,244.314 218.706,241.98 216.5,239.5C 215.939,237.934 216.606,236.601 218.5,235.5 Z"/></g>
<g><path style="opacity:1" fill="#142a92" d="M 240.5,239.5 C 238.108,240.368 237.941,239.701 240,237.5C 240.464,238.094 240.631,238.761 240.5,239.5 Z"/></g>
<g><path style="opacity:1" fill="#679114" d="M 303.5,247.5 C 303.167,247.5 302.833,247.5 302.5,247.5C 301.833,247.5 301.5,247.833 301.5,248.5C 300.093,246.468 298.76,244.301 297.5,242C 298.967,240.902 299.801,239.402 300,237.5C 300.937,240.656 302.437,243.489 304.5,246C 303.944,246.383 303.611,246.883 303.5,247.5 Z"/></g>
<g><path style="opacity:1" fill="#2b7a73" d="M 216.5,239.5 C 218.706,241.98 221.039,244.314 223.5,246.5C 223.5,246.833 223.5,247.167 223.5,247.5C 220.391,251.397 217.057,255.064 213.5,258.5C 211.184,255.905 208.851,253.239 206.5,250.5C 208.26,245.251 211.593,241.584 216.5,239.5 Z"/></g>
<g><path style="opacity:1" fill="#142a92" d="M 231.5,241.5 C 230.508,241.672 229.842,241.338 229.5,240.5C 230.327,239.561 230.994,239.895 231.5,241.5 Z"/></g>
<g><path style="opacity:1" fill="#2d636e" d="M 244.5,234.5 C 246.539,235.911 247.539,237.911 247.5,240.5C 247.007,243.479 245.507,245.812 243,247.5C 241.989,246.944 241.156,246.278 240.5,245.5C 240.5,244.5 240.5,243.5 240.5,242.5C 241.833,241.5 241.833,240.5 240.5,239.5C 241.167,238.833 241.833,238.167 242.5,237.5C 243.401,236.71 244.068,235.71 244.5,234.5 Z"/></g>
<g><path style="opacity:1" fill="#000000" d="M 261.5,242.5 C 261.082,243.222 260.416,243.722 259.5,244C 263.555,244.156 267.555,243.656 271.5,242.5C 271.047,243.458 270.381,244.292 269.5,245C 265.245,245.796 261.079,245.629 257,244.5C 256.517,245.448 256.351,246.448 256.5,247.5C 256.167,247.5 255.833,247.5 255.5,247.5C 255.5,246.833 255.167,246.5 254.5,246.5C 254.567,245.041 254.234,243.708 253.5,242.5C 255.451,242.773 256.951,242.107 258,240.5C 258.71,241.973 259.876,242.64 261.5,242.5 Z"/></g>
<g><path style="opacity:1" fill="#142a92" d="M 240.5,242.5 C 240.5,243.5 240.5,244.5 240.5,245.5C 237.833,244.5 237.833,243.5 240.5,242.5 Z"/></g>
<g><path style="opacity:1" fill="#d1f31a" d="M 309.5,247.5 C 309.427,249.027 310.094,250.027 311.5,250.5C 312.677,252.103 312.511,253.436 311,254.5C 309.733,251.725 308.233,249.059 306.5,246.5C 306.833,246.167 307.167,245.833 307.5,245.5C 308.182,246.243 308.849,246.909 309.5,247.5 Z"/></g>
<g><path style="opacity:1" fill="#d1f31a" d="M 311.5,247.5 C 310.833,247.5 310.167,247.5 309.5,247.5C 309.786,245.067 310.452,245.067 311.5,247.5 Z"/></g>
<g><path style="opacity:1" fill="#343435" d="M 286.5,257.5 C 285.833,256.833 285.167,256.167 284.5,255.5C 284.003,253.403 283.67,251.57 283.5,250C 281.893,250.019 280.226,250.185 278.5,250.5C 279.911,248.461 281.911,247.461 284.5,247.5C 286.46,246.862 288.293,246.862 290,247.5C 293.149,257.43 295.982,267.43 298.5,277.5C 296.194,277.993 293.861,278.326 291.5,278.5C 290.785,271.166 289.118,264.166 286.5,257.5 Z"/></g>
<g><path style="opacity:1" fill="#cff01a" d="M 302.5,247.5 C 302.461,248.756 302.961,249.756 304,250.5C 304.47,249.423 304.303,248.423 303.5,247.5C 304.376,247.369 305.043,247.702 305.5,248.5C 306.196,251.357 307.529,253.857 309.5,256C 308.748,256.671 308.414,257.504 308.5,258.5C 307.348,257.375 306.348,257.375 305.5,258.5C 302.819,255.808 301.486,252.475 301.5,248.5C 301.5,247.833 301.833,247.5 302.5,247.5 Z"/></g>
<g><path style="opacity:1" fill="#191a4c" d="M 309.5,247.5 C 310.167,247.5 310.833,247.5 311.5,247.5C 311.5,248.5 311.5,249.5 311.5,250.5C 310.094,250.027 309.427,249.027 309.5,247.5 Z"/></g>
<g><path style="opacity:1" fill="#1b3090" d="M 297.5,247.5 C 297.833,248.167 298.167,248.833 298.5,249.5C 296.88,253.181 295.547,253.181 294.5,249.5C 295.782,249.912 296.782,249.246 297.5,247.5 Z"/></g>
<g><path style="opacity:1" fill="#19226f" d="M 302.5,247.5 C 302.833,247.5 303.167,247.5 303.5,247.5C 304.303,248.423 304.47,249.423 304,250.5C 302.961,249.756 302.461,248.756 302.5,247.5 Z"/></g>
<g><path style="opacity:1" fill="#188664" d="M 284.5,255.5 C 283.833,255.167 283.167,254.833 282.5,254.5C 281.947,252.448 280.947,252.115 279.5,253.5C 277.519,252.895 277.185,251.895 278.5,250.5C 280.226,250.185 281.893,250.019 283.5,250C 283.67,251.57 284.003,253.403 284.5,255.5 Z"/></g>
<g><path style="opacity:1" fill="#598b3e" d="M 297.5,247.5 C 296.782,249.246 295.782,249.912 294.5,249.5C 295.547,253.181 296.88,253.181 298.5,249.5C 300.115,251.328 300.448,253.328 299.5,255.5C 298.395,256.6 297.062,257.267 295.5,257.5C 294.843,254.133 293.51,250.633 291.5,247C 291.393,244.302 292.06,243.968 293.5,246C 293.167,246.333 292.833,246.667 292.5,247C 294.047,247.333 295.38,246.833 296.5,245.5C 297.298,245.957 297.631,246.624 297.5,247.5 Z"/></g>
<g><path style="opacity:1" fill="#142a92" d="M 243.5,252.5 C 243.715,254.179 243.048,255.179 241.5,255.5C 241.864,253.555 242.531,252.555 243.5,252.5 Z"/></g>
<g><path style="opacity:1" fill="#142a92" d="M 304.5,251.5 C 305.848,252.527 306.348,253.86 306,255.5C 304.812,254.437 304.312,253.103 304.5,251.5 Z"/></g>
<g><path style="opacity:1" fill="#86ac17" d="M 311.5,247.5 C 314.366,250.11 317.033,252.943 319.5,256C 319.333,256.5 319.167,257 319,257.5C 316.63,254.961 314.13,252.628 311.5,250.5C 311.5,249.5 311.5,248.5 311.5,247.5 Z"/></g>
<g><path style="opacity:1" fill="#e2d0aa" d="M 213.5,260.5 C 217.095,263.825 220.762,267.325 224.5,271C 228.052,272.216 231.385,273.883 234.5,276C 233.263,276.232 232.263,276.732 231.5,277.5C 230.711,277.783 230.044,278.283 229.5,279C 225.311,279.336 221.144,279.836 217,280.5C 214.914,279.582 212.747,278.915 210.5,278.5C 209.665,271.678 207.498,265.345 204,259.5C 203.503,257.19 203.337,254.857 203.5,252.5C 207.274,253.306 209.774,255.639 211,259.5C 211.671,260.252 212.504,260.586 213.5,260.5 Z"/></g>
<g><path style="opacity:1" fill="#18257a" d="M 225.5,252.5 C 225.938,253.506 226.604,253.506 227.5,252.5C 227.539,253.756 227.039,254.756 226,255.5C 224.454,254.497 224.287,253.497 225.5,252.5 Z"/></g>
<g><path style="opacity:1" fill="#d1f31a" d="M 243.5,252.5 C 244.93,252.421 246.264,252.754 247.5,253.5C 248.221,255.686 248.887,257.853 249.5,260C 245.505,265.147 243.172,270.98 242.5,277.5C 241.167,277.5 240.5,276.833 240.5,275.5C 242.193,271.914 243.527,268.081 244.5,264C 242.814,261.397 241.814,258.564 241.5,255.5C 243.048,255.179 243.715,254.179 243.5,252.5 Z"/></g>
<g><path style="opacity:1" fill="#142a92" d="M 279.5,253.5 C 280.947,252.115 281.947,252.448 282.5,254.5C 281.609,253.89 280.609,253.557 279.5,253.5 Z"/></g>
<g><path style="opacity:1" fill="#24836f" d="M 279.5,253.5 C 280.609,253.557 281.609,253.89 282.5,254.5C 282.833,255.833 283.167,257.167 283.5,258.5C 283.158,259.338 282.492,259.672 281.5,259.5C 280.685,258.571 279.852,257.571 279,256.5C 278.296,258.727 277.129,259.06 275.5,257.5C 276.833,256.167 278.167,254.833 279.5,253.5 Z"/></g>
<g><path style="opacity:1" fill="#d1f31a" d="M 275.5,257.5 C 275.088,259.973 276.088,261.306 278.5,261.5C 278.281,262.675 278.614,263.675 279.5,264.5C 281.45,263.628 283.45,262.961 285.5,262.5C 286.338,262.842 286.672,263.508 286.5,264.5C 284.139,264.674 281.806,265.007 279.5,265.5C 278.846,268.494 278.179,271.494 277.5,274.5C 278.116,278.145 278.45,281.812 278.5,285.5C 277.833,285.5 277.167,285.5 276.5,285.5C 276.5,280.5 276.5,275.5 276.5,270.5C 275.5,270.5 274.5,270.5 273.5,270.5C 273.737,269.209 273.404,268.209 272.5,267.5C 272.167,267.5 271.833,267.5 271.5,267.5C 267.985,268.393 264.652,268.727 261.5,268.5C 261.5,269.167 261.5,269.833 261.5,270.5C 259.744,271.552 259.077,273.219 259.5,275.5C 258.539,277.265 258.205,279.265 258.5,281.5C 258.5,281.833 258.5,282.167 258.5,282.5C 258.5,282.833 258.5,283.167 258.5,283.5C 257.167,283.5 256.5,282.833 256.5,281.5C 257.21,278.382 257.877,275.215 258.5,272C 256.737,270.346 256.404,268.513 257.5,266.5C 255.851,265.852 254.518,264.852 253.5,263.5C 255.155,263.02 256.489,263.02 257.5,263.5C 258.404,262.791 258.737,261.791 258.5,260.5C 259.71,260.932 260.71,261.599 261.5,262.5C 261.5,263.5 261.5,264.5 261.5,265.5C 264.962,266.482 268.629,266.815 272.5,266.5C 272.5,265.167 272.5,263.833 272.5,262.5C 273.552,262.649 274.552,262.483 275.5,262C 274.619,261.292 273.953,260.458 273.5,259.5C 272.566,257.761 272.566,256.095 273.5,254.5C 274.176,255.602 274.842,256.602 275.5,257.5 Z"/></g>
<g><path style="opacity:1" fill="#142a92" d="M 282.5,254.5 C 283.167,254.833 283.833,255.167 284.5,255.5C 284.737,256.791 284.404,257.791 283.5,258.5C 283.167,257.167 282.833,255.833 282.5,254.5 Z"/></g>
<g><path style="opacity:1" fill="#202a4d" d="M 254.5,246.5 C 255.167,246.5 255.5,246.833 255.5,247.5C 255.193,249.446 255.193,251.113 255.5,252.5C 257.754,251.286 258.087,249.619 256.5,247.5C 258.094,250.061 259.094,253.061 259.5,256.5C 260.293,256.931 261.127,257.265 262,257.5C 267.329,254.752 272.829,252.419 278.5,250.5C 277.185,251.895 277.519,252.895 279.5,253.5C 278.167,254.833 276.833,256.167 275.5,257.5C 274.842,256.602 274.176,255.602 273.5,254.5C 272.566,256.095 272.566,257.761 273.5,259.5C 270.555,260.468 267.555,260.634 264.5,260C 266.256,259.798 267.922,259.298 269.5,258.5C 268.483,255.972 267.316,255.972 266,258.5C 263.766,258.626 261.432,258.293 259,257.5C 258.517,258.448 258.351,259.448 258.5,260.5C 258.737,261.791 258.404,262.791 257.5,263.5C 258.862,258.213 256.862,255.546 251.5,255.5C 251.998,252.513 252.498,249.513 253,246.5C 253.69,247.738 254.19,247.738 254.5,246.5 Z"/></g>
<g><path style="opacity:1" fill="#178e69" d="M 255.5,247.5 C 255.833,247.5 256.167,247.5 256.5,247.5C 258.087,249.619 257.754,251.286 255.5,252.5C 255.193,251.113 255.193,249.446 255.5,247.5 Z"/></g>
<g><path style="opacity:1" fill="#d1f31a" d="M 299.5,255.5 C 300.376,255.369 301.043,255.702 301.5,256.5C 300.388,257.265 299.721,258.265 299.5,259.5C 298.391,259.557 297.391,259.89 296.5,260.5C 294.519,259.895 294.185,258.895 295.5,257.5C 297.062,257.267 298.395,256.6 299.5,255.5 Z"/></g>
<g><path style="opacity:1" fill="#357860" d="M 273.5,259.5 C 273.953,260.458 274.619,261.292 275.5,262C 274.552,262.483 273.552,262.649 272.5,262.5C 272.167,262.5 271.833,262.5 271.5,262.5C 268.167,262.5 264.833,262.5 261.5,262.5C 260.71,261.599 259.71,260.932 258.5,260.5C 258.351,259.448 258.517,258.448 259,257.5C 261.432,258.293 263.766,258.626 266,258.5C 267.316,255.972 268.483,255.972 269.5,258.5C 267.922,259.298 266.256,259.798 264.5,260C 267.555,260.634 270.555,260.468 273.5,259.5 Z"/></g>
<g><path style="opacity:1" fill="#2e6973" d="M 235.5,274.5 C 232.372,272.295 229.038,270.628 225.5,269.5C 227.933,265.881 229.6,261.881 230.5,257.5C 231.873,257.343 233.207,257.51 234.5,258C 236.683,260.35 239.016,262.517 241.5,264.5C 239.313,267.734 237.313,271.067 235.5,274.5 Z"/></g>
<g><path style="opacity:1" fill="#618030" d="M 284.5,255.5 C 285.167,256.167 285.833,256.833 286.5,257.5C 286.634,259.292 286.301,260.958 285.5,262.5C 283.45,262.961 281.45,263.628 279.5,264.5C 278.614,263.675 278.281,262.675 278.5,261.5C 279.5,260.833 280.5,260.167 281.5,259.5C 282.492,259.672 283.158,259.338 283.5,258.5C 284.404,257.791 284.737,256.791 284.5,255.5 Z"/></g>
<g><path style="opacity:1" fill="#305284" d="M 281.5,259.5 C 280.5,260.167 279.5,260.833 278.5,261.5C 276.088,261.306 275.088,259.973 275.5,257.5C 277.129,259.06 278.296,258.727 279,256.5C 279.852,257.571 280.685,258.571 281.5,259.5 Z"/></g>
<g><path style="opacity:1" fill="#67872a" d="M 302.5,260.5 C 301.5,261.5 300.5,262.5 299.5,263.5C 298.504,263.414 297.671,263.748 297,264.5C 296.51,263.207 296.343,261.873 296.5,260.5C 297.391,259.89 298.391,259.557 299.5,259.5C 301.196,257.871 302.196,258.204 302.5,260.5 Z"/></g>
<g><path style="opacity:1" fill="#67842f" d="M 308.5,258.5 C 310.27,259.856 311.603,261.689 312.5,264C 311.577,266.041 311.244,268.208 311.5,270.5C 310.5,270.5 309.5,270.5 308.5,270.5C 307.401,266.96 306.068,263.46 304.5,260C 305.056,259.617 305.389,259.117 305.5,258.5C 306.348,257.375 307.348,257.375 308.5,258.5 Z"/></g>
<g><path style="opacity:1" fill="#2e2748" d="M 219.5,262.5 C 219.795,260.577 220.628,258.91 222,257.5C 222.617,258.449 222.451,259.282 221.5,260C 223.709,260.957 223.543,262.124 221,263.5C 220.617,262.944 220.117,262.611 219.5,262.5 Z"/></g>
<g><path style="opacity:1" fill="#24846e" d="M 302.5,260.5 C 302.501,261.755 302.834,263.088 303.5,264.5C 300.18,265.761 299.846,267.428 302.5,269.5C 302.443,270.609 302.11,271.609 301.5,272.5C 300.504,272.586 299.671,272.252 299,271.5C 298.55,269.481 297.717,267.648 296.5,266C 297.942,265.623 298.942,264.79 299.5,263.5C 300.5,262.5 301.5,261.5 302.5,260.5 Z"/></g>
<g><path style="opacity:1" fill="#679114" d="M 261.5,262.5 C 264.833,262.5 268.167,262.5 271.5,262.5C 271.5,263.5 271.5,264.5 271.5,265.5C 268.167,265.5 264.833,265.5 261.5,265.5C 261.5,264.5 261.5,263.5 261.5,262.5 Z"/></g>
<g><path style="opacity:1" fill="#142a92" d="M 271.5,262.5 C 271.833,262.5 272.167,262.5 272.5,262.5C 272.5,263.833 272.5,265.167 272.5,266.5C 268.629,266.815 264.962,266.482 261.5,265.5C 264.833,265.5 268.167,265.5 271.5,265.5C 271.5,264.5 271.5,263.5 271.5,262.5 Z"/></g>
<g><path style="opacity:1" fill="#678233" d="M 286.5,264.5 C 288.115,266.328 288.448,268.328 287.5,270.5C 284.663,270.684 282.663,272.018 281.5,274.5C 281.232,276.099 281.566,277.432 282.5,278.5C 282.519,280.06 282.852,281.56 283.5,283C 282.944,284.011 282.278,284.844 281.5,285.5C 280.5,285.5 279.5,285.5 278.5,285.5C 278.45,281.812 278.116,278.145 277.5,274.5C 278.179,271.494 278.846,268.494 279.5,265.5C 281.806,265.007 284.139,264.674 286.5,264.5 Z"/></g>
<g><path style="opacity:1" fill="#18267d" d="M 303.5,264.5 C 304.338,264.842 304.672,265.508 304.5,266.5C 302.952,266.821 302.285,267.821 302.5,269.5C 299.846,267.428 300.18,265.761 303.5,264.5 Z"/></g>
<g><path style="opacity:1" fill="#178e69" d="M 304.5,266.5 C 305.401,267.29 306.068,268.29 306.5,269.5C 305.036,270.405 303.702,270.405 302.5,269.5C 302.285,267.821 302.952,266.821 304.5,266.5 Z"/></g>
<g><path style="opacity:1" fill="#142a92" d="M 261.5,268.5 C 264.652,268.727 267.985,268.393 271.5,267.5C 268.434,269.639 265.101,269.973 261.5,268.5 Z"/></g>
<g><path style="opacity:1" fill="#679114" d="M 271.5,267.5 C 271.833,267.5 272.167,267.5 272.5,267.5C 272.5,268.833 272.5,270.167 272.5,271.5C 273.5,271.5 274.5,271.5 275.5,271.5C 275.5,276.167 275.5,280.833 275.5,285.5C 274.292,286.234 272.959,286.567 271.5,286.5C 271.795,284.265 271.461,282.265 270.5,280.5C 270.5,278.5 270.5,276.5 270.5,274.5C 267.167,274.5 263.833,274.5 260.5,274.5C 260.433,273.041 260.766,271.708 261.5,270.5C 261.5,269.833 261.5,269.167 261.5,268.5C 265.101,269.973 268.434,269.639 271.5,267.5 Z"/></g>
<g><path style="opacity:1" fill="#142a92" d="M 272.5,267.5 C 273.404,268.209 273.737,269.209 273.5,270.5C 274.5,270.5 275.5,270.5 276.5,270.5C 276.5,275.5 276.5,280.5 276.5,285.5C 276.167,285.5 275.833,285.5 275.5,285.5C 275.5,280.833 275.5,276.167 275.5,271.5C 274.5,271.5 273.5,271.5 272.5,271.5C 272.5,270.167 272.5,268.833 272.5,267.5 Z"/></g>
<g><path style="opacity:1" fill="#2d6b6f" d="M 254.5,271.5 C 254.631,272.239 254.464,272.906 254,273.5C 252.989,272.663 251.822,272.33 250.5,272.5C 250.675,274.621 250.341,276.621 249.5,278.5C 248.798,279.116 247.798,279.116 246.5,278.5C 246.296,274.78 247.296,271.447 249.5,268.5C 251.145,269.696 252.811,270.696 254.5,271.5 Z"/></g>
<g><path style="opacity:1" fill="#172785" d="M 302.5,269.5 C 303.702,270.405 305.036,270.405 306.5,269.5C 305.833,270.833 305.167,272.167 304.5,273.5C 303.609,272.89 302.609,272.557 301.5,272.5C 302.11,271.609 302.443,270.609 302.5,269.5 Z"/></g>
<g><path style="opacity:1" fill="#1a2f90" d="M 261.5,270.5 C 260.766,271.708 260.433,273.041 260.5,274.5C 263.833,274.5 267.167,274.5 270.5,274.5C 270.5,276.5 270.5,278.5 270.5,280.5C 271.461,282.265 271.795,284.265 271.5,286.5C 270.842,285.602 270.176,284.602 269.5,283.5C 268.824,284.602 268.158,285.602 267.5,286.5C 267.473,284.801 266.806,283.467 265.5,282.5C 264.596,283.209 264.263,284.209 264.5,285.5C 264.167,285.5 263.833,285.5 263.5,285.5C 263.5,284.5 263.5,283.5 263.5,282.5C 261.833,282.5 260.167,282.5 258.5,282.5C 258.5,282.167 258.5,281.833 258.5,281.5C 260.167,281.5 261.833,281.5 263.5,281.5C 263.5,279.5 263.5,277.5 263.5,275.5C 262.167,275.5 260.833,275.5 259.5,275.5C 259.077,273.219 259.744,271.552 261.5,270.5 Z"/></g>
<g><path style="opacity:1" fill="#278070" d="M 287.5,270.5 C 287.414,271.496 287.748,272.329 288.5,273C 287.584,273.278 286.918,273.778 286.5,274.5C 285.075,272.969 284.409,273.302 284.5,275.5C 283.391,275.443 282.391,275.11 281.5,274.5C 282.663,272.018 284.663,270.684 287.5,270.5 Z"/></g>
<g><path style="opacity:1" fill="#23388d" d="M 254.5,271.5 C 255.833,273.833 255.833,276.167 254.5,278.5C 254.657,277.127 254.49,275.793 254,274.5C 253.333,276.5 252.667,278.5 252,280.5C 251.583,279.244 250.75,278.577 249.5,278.5C 250.341,276.621 250.675,274.621 250.5,272.5C 251.822,272.33 252.989,272.663 254,273.5C 254.464,272.906 254.631,272.239 254.5,271.5 Z"/></g>
<g><path style="opacity:1" fill="#178e69" d="M 301.5,272.5 C 302.609,272.557 303.609,272.89 304.5,273.5C 303.269,274.718 302.102,276.051 301,277.5C 298.99,275.604 299.157,273.937 301.5,272.5 Z"/></g>
<g><path style="opacity:1" fill="#142a92" d="M 286.5,274.5 C 286.657,275.873 286.49,277.207 286,278.5C 285.768,277.263 285.268,276.263 284.5,275.5C 284.409,273.302 285.075,272.969 286.5,274.5 Z"/></g>
<g><path style="opacity:1" fill="#142a92" d="M 281.5,274.5 C 282.391,275.11 283.391,275.443 284.5,275.5C 283.449,276.222 282.782,277.222 282.5,278.5C 281.566,277.432 281.232,276.099 281.5,274.5 Z"/></g>
<g><path style="opacity:1" fill="#277f70" d="M 259.5,275.5 C 260.833,275.5 262.167,275.5 263.5,275.5C 263.5,277.5 263.5,279.5 263.5,281.5C 261.833,281.5 260.167,281.5 258.5,281.5C 258.205,279.265 258.539,277.265 259.5,275.5 Z"/></g>
<g><path style="opacity:1" fill="#178e69" d="M 265.5,282.5 C 264.631,280.283 264.298,277.95 264.5,275.5C 265.5,275.5 266.5,275.5 267.5,275.5C 267.64,277.124 266.973,278.29 265.5,279C 268.125,280.376 268.125,281.542 265.5,282.5 Z"/></g>
<g><path style="opacity:1" fill="#1e896c" d="M 286.5,274.5 C 290.978,275.415 291.644,277.749 288.5,281.5C 286.786,280.391 286.119,281.058 286.5,283.5C 284.818,282.173 283.485,280.506 282.5,278.5C 282.782,277.222 283.449,276.222 284.5,275.5C 285.268,276.263 285.768,277.263 286,278.5C 286.49,277.207 286.657,275.873 286.5,274.5 Z"/></g>
<g><path style="opacity:1" fill="#e21e24" d="M 231.5,277.5 C 233.124,277.36 234.29,278.027 235,279.5C 235.132,284.65 235.298,289.65 235.5,294.5C 233.431,293.465 231.765,294.132 230.5,296.5C 230.624,297.107 230.957,297.44 231.5,297.5C 229.016,298.369 226.349,299.036 223.5,299.5C 222.584,299.457 221.917,299.124 221.5,298.5C 222.922,298.25 223.922,297.417 224.5,296C 223.271,294.471 221.771,293.304 220,292.5C 218.951,294.384 217.451,295.718 215.5,296.5C 214.596,295.791 214.263,294.791 214.5,293.5C 216.023,291.414 215.69,289.748 213.5,288.5C 211.5,285.487 210.5,282.154 210.5,278.5C 212.747,278.915 214.914,279.582 217,280.5C 221.144,279.836 225.311,279.336 229.5,279C 230.044,278.283 230.711,277.783 231.5,277.5 Z"/></g>
<g><path style="opacity:1" fill="#fec90d" d="M 294.5,288.5 C 294.708,286.08 294.374,283.747 293.5,281.5C 295.071,279.585 297.071,278.585 299.5,278.5C 299.635,284.181 299.968,289.848 300.5,295.5C 299.178,295.67 298.011,295.337 297,294.5C 296.76,292.148 295.927,290.148 294.5,288.5 Z"/></g>
<g><path style="opacity:1" fill="#178e69" d="M 270.5,280.5 C 270.631,281.376 270.298,282.043 269.5,282.5C 268.127,280.192 268.46,279.525 270.5,280.5 Z"/></g>
<g><path style="opacity:1" fill="#178e69" d="M 258.5,283.5 C 258.5,283.167 258.5,282.833 258.5,282.5C 260.167,282.5 261.833,282.5 263.5,282.5C 263.5,283.5 263.5,284.5 263.5,285.5C 261.833,284.833 260.167,284.167 258.5,283.5 Z"/></g>
<g><path style="opacity:1" fill="#178e69" d="M 265.5,282.5 C 266.806,283.467 267.473,284.801 267.5,286.5C 266.609,285.89 265.609,285.557 264.5,285.5C 264.263,284.209 264.596,283.209 265.5,282.5 Z"/></g>
<g><path style="opacity:1" fill="#f4f4f4" d="M 232.5,283.5 C 233.376,283.369 234.043,283.702 234.5,284.5C 233.725,288.251 232.391,288.418 230.5,285C 231.416,284.722 232.082,284.222 232.5,283.5 Z"/></g>
<g><path style="opacity:1" fill="#14122e" d="M 282.5,278.5 C 283.485,280.506 284.818,282.173 286.5,283.5C 285.365,285.213 283.698,285.88 281.5,285.5C 282.278,284.844 282.944,284.011 283.5,283C 282.852,281.56 282.519,280.06 282.5,278.5 Z"/></g>
<g><path style="opacity:1" fill="#e7d5af" d="M 294.5,288.5 C 293.739,293.999 296.072,296.999 301.5,297.5C 302.549,299.216 303.882,300.549 305.5,301.5C 304.024,304.037 302.024,306.037 299.5,307.5C 299.977,308.478 300.643,309.311 301.5,310C 296.713,309.51 293.046,311.177 290.5,315C 288.527,315.495 286.527,315.662 284.5,315.5C 284.038,313.243 283.038,311.243 281.5,309.5C 276.59,305.58 272.423,301.58 269,297.5C 268.502,294.518 268.335,291.518 268.5,288.5C 272.56,288.515 276.56,288.015 280.5,287C 281.056,286.617 281.389,286.117 281.5,285.5C 283.698,285.88 285.365,285.213 286.5,283.5C 291.192,281.851 293.859,283.518 294.5,288.5 Z"/></g>
<g><path style="opacity:1" fill="#f2f3f2" d="M 218.5,286.5 C 222.588,286.218 223.088,286.885 220,288.5C 218.97,288.164 218.47,287.497 218.5,286.5 Z"/></g>
<g><path style="opacity:1" fill="#f5f5f5" d="M 227.5,286.5 C 228.828,287.507 229.828,288.84 230.5,290.5C 230.566,292.266 229.732,293.266 228,293.5C 224.88,291.533 224.713,289.199 227.5,286.5 Z"/></g>
<g><path style="opacity:1" fill="#f2f3f2" d="M 213.5,288.5 C 215.69,289.748 216.023,291.414 214.5,293.5C 213.549,292.081 213.216,290.415 213.5,288.5 Z"/></g>
<g><path style="opacity:1" fill="#f5f5f5" d="M 221.5,298.5 C 220.5,298.5 219.5,298.5 218.5,298.5C 217.5,297.833 216.5,297.167 215.5,296.5C 217.451,295.718 218.951,294.384 220,292.5C 221.771,293.304 223.271,294.471 224.5,296C 223.922,297.417 222.922,298.25 221.5,298.5 Z"/></g>
<g><path style="opacity:1" fill="#f4f4f4" d="M 235.5,294.5 C 235.5,294.833 235.5,295.167 235.5,295.5C 233.938,295.733 232.605,296.4 231.5,297.5C 230.957,297.44 230.624,297.107 230.5,296.5C 231.765,294.132 233.431,293.465 235.5,294.5 Z"/></g>
<g><path style="opacity:1" fill="#383838" d="M 235.5,295.5 C 236.043,295.56 236.376,295.893 236.5,296.5C 235.816,303.653 235.149,310.82 234.5,318C 236.581,321.491 238.915,324.825 241.5,328C 233.204,330.435 224.704,331.935 216,332.5C 211.887,332.026 208.387,330.36 205.5,327.5C 208.421,326.457 210.921,324.79 213,322.5C 213.333,322.833 213.667,323.167 214,323.5C 215.629,319.986 216.795,316.32 217.5,312.5C 215.752,308.007 215.085,303.34 215.5,298.5C 216.5,298.5 217.5,298.5 218.5,298.5C 219.5,298.5 220.5,298.5 221.5,298.5C 221.917,299.124 222.584,299.457 223.5,299.5C 226.349,299.036 229.016,298.369 231.5,297.5C 232.605,296.4 233.938,295.733 235.5,295.5 Z"/></g>
<g><path style="opacity:1" fill="#e41922" d="M 305.5,301.5 C 306.268,302.263 306.768,303.263 307,304.5C 307.667,303.167 308.333,303.167 309,304.5C 310.131,307.445 310.964,310.445 311.5,313.5C 310.883,313.389 310.383,313.056 310,312.5C 309.713,314.891 309.213,317.224 308.5,319.5C 310.304,320.768 312.304,321.435 314.5,321.5C 313.375,323 312.041,324.333 310.5,325.5C 309.167,325.5 307.833,325.5 306.5,325.5C 306.719,326.675 306.386,327.675 305.5,328.5C 304.261,328.942 303.261,329.609 302.5,330.5C 302.167,330.5 301.833,330.5 301.5,330.5C 301.869,328.559 302.536,326.725 303.5,325C 301.187,324.338 298.854,323.838 296.5,323.5C 296.5,325.833 296.5,328.167 296.5,330.5C 292.68,329.535 291.18,327.202 292,323.5C 289.612,320.616 287.112,317.949 284.5,315.5C 286.527,315.662 288.527,315.495 290.5,315C 293.046,311.177 296.713,309.51 301.5,310C 300.643,309.311 299.977,308.478 299.5,307.5C 302.024,306.037 304.024,304.037 305.5,301.5 Z"/></g>
<g><path style="opacity:1" fill="#fefffe" d="M 311.5,313.5 C 313.397,315.698 314.397,318.364 314.5,321.5C 312.304,321.435 310.304,320.768 308.5,319.5C 309.213,317.224 309.713,314.891 310,312.5C 310.383,313.056 310.883,313.389 311.5,313.5 Z"/></g>
<g><path style="opacity:1" fill="#fefffe" d="M 301.5,315.5 C 302.5,315.5 303.5,315.5 304.5,315.5C 304.5,316.833 304.5,318.167 304.5,319.5C 302.712,319.785 301.045,319.452 299.5,318.5C 300.612,317.735 301.279,316.735 301.5,315.5 Z"/></g>
<g><path style="opacity:1" fill="#fefffe" d="M 301.5,330.5 C 299.833,330.5 298.167,330.5 296.5,330.5C 296.5,328.167 296.5,325.833 296.5,323.5C 298.854,323.838 301.187,324.338 303.5,325C 302.536,326.725 301.869,328.559 301.5,330.5 Z"/></g>
<g><path style="opacity:1" fill="#3d3d3d" d="M 310.5,325.5 C 312.113,325.944 313.28,326.944 314,328.5C 314.064,331.763 314.898,334.763 316.5,337.5C 314.009,338.541 314.009,339.374 316.5,340C 316.167,340.333 315.833,340.667 315.5,341C 315.996,342.996 316.996,344.663 318.5,346C 315.833,346.667 315.833,347.333 318.5,348C 315.724,349.779 316.057,350.779 319.5,351C 315.551,351.807 315.551,352.307 319.5,352.5C 319.408,356.061 319.075,359.728 318.5,363.5C 316.057,364.112 313.557,364.445 311,364.5C 301.726,365.322 298.892,361.322 302.5,352.5C 300.968,345.572 298.635,338.905 295.5,332.5C 297.969,331.832 300.302,331.165 302.5,330.5C 303.261,329.609 304.261,328.942 305.5,328.5C 306.386,327.675 306.719,326.675 306.5,325.5C 307.833,325.5 309.167,325.5 310.5,325.5 Z"/></g>
</svg>
