<?xml version="1.0" encoding="UTF-8"?>
<!DOCTYPE svg PUBLIC "-//W3C//DTD SVG 1.1//EN" "http://www.w3.org/Graphics/SVG/1.1/DTD/svg11.dtd">
<svg xmlns="http://www.w3.org/2000/svg" version="1.1" width="600px" height="600px" style="shape-rendering:geometricPrecision; text-rendering:geometricPrecision; image-rendering:optimizeQuality; fill-rule:evenodd; clip-rule:evenodd" xmlns:xlink="http://www.w3.org/1999/xlink">
<g><path style="opacity:1" fill="#fefefe" d="M 312.5,138.5 C 308.804,137.791 305.138,137.457 301.5,137.5C 298.99,137.833 296.823,138.833 295,140.5C 292.705,147.635 290.039,154.635 287,161.5C 286.034,167.13 285.367,172.796 285,178.5C 281.411,179.531 277.911,180.864 274.5,182.5C 273.319,184.135 273.319,185.802 274.5,187.5C 277.009,188.921 279.343,190.588 281.5,192.5C 277.76,195.676 276.594,199.676 278,204.5C 279.011,205.337 280.178,205.67 281.5,205.5C 281.794,212.518 284.128,218.685 288.5,224C 291.482,224.498 294.482,224.665 297.5,224.5C 297.767,227.875 298.767,231.042 300.5,234C 295.069,239.309 290.236,245.142 286,251.5C 285.502,254.482 285.335,257.482 285.5,260.5C 283.856,260.286 282.356,260.62 281,261.5C 279.601,260.773 278.101,260.273 276.5,260C 271.952,255.152 267.119,250.652 262,246.5C 261.021,239.237 256.854,236.403 249.5,238C 216.767,207.056 184.6,175.556 153,143.5C 152.667,139.5 152.333,135.5 152,131.5C 132.5,112 113,92.5 93.5,73C 89.5,72.3333 85.5,72.3333 81.5,73C 80.3777,76.4847 80.5443,79.9847 82,83.5C 100.167,103.667 118.333,123.833 136.5,144C 135.285,148.156 135.452,152.322 137,156.5C 146.602,167.773 156.602,178.773 167,189.5C 169.827,192.329 171.827,195.663 173,199.5C 181.167,207.667 189.333,215.833 197.5,224C 198.833,224.333 200.167,224.667 201.5,225C 212,235.5 222.5,246 233,256.5C 233.333,258.833 233.667,261.167 234,263.5C 237.333,266.833 240.667,270.167 244,273.5C 244.995,278.453 245.662,283.453 246,288.5C 247.667,289.5 249,290.833 250,292.5C 252.768,298.29 255.101,304.29 257,310.5C 260.159,314.659 263.659,318.492 267.5,322C 272.833,322.667 278.167,322.667 283.5,322C 285.584,321.222 287.417,320.055 289,318.5C 289.192,324.857 291.359,330.357 295.5,335C 299.558,335.767 303.558,335.6 307.5,334.5C 309.807,341.976 310.974,349.643 311,357.5C 312.794,361.593 314.961,365.426 317.5,369C 309.952,382.32 302.786,395.82 296,409.5C 295.784,411.384 295.117,413.051 294,414.5C 294.042,430.389 296.042,446.056 300,461.5C 301.102,473.138 301.768,484.805 302,496.5C 303.255,497.211 304.421,498.044 305.5,499C 303.985,500.726 302.318,502.226 300.5,503.5C 295.617,504.191 290.784,504.857 286,505.5C 285.581,506.672 284.915,507.672 284,508.5C 283.333,513.5 283.333,518.5 284,523.5C 300.769,527.091 317.602,527.258 334.5,524C 339.076,520.949 341.743,516.782 342.5,511.5C 342.167,509.5 341.833,507.5 341.5,505.5C 340.914,505.291 340.414,504.957 340,504.5C 338.192,487.896 337.192,471.229 337,454.5C 336.347,450.184 335.18,446.017 333.5,442C 334.058,438.486 334.724,434.986 335.5,431.5C 342.626,417.514 351.96,405.014 363.5,394C 365.217,392.441 367.217,391.608 369.5,391.5C 370.505,394.721 371.339,398.054 372,401.5C 377.254,412.266 381.921,423.266 386,434.5C 387,435.167 388,435.833 389,436.5C 394.715,450.024 398.882,464.024 401.5,478.5C 400.557,483.816 400.39,489.149 401,494.5C 403.562,495.898 403.895,497.565 402,499.5C 401.333,503.833 401.333,508.167 402,512.5C 404.908,514.025 408.074,515.025 411.5,515.5C 412.472,517.636 414.139,518.803 416.5,519C 422.859,519.831 429.193,519.664 435.5,518.5C 439.565,511.545 439.232,504.711 434.5,498C 437.882,495.981 439.216,492.981 438.5,489C 438.548,484.48 437.382,480.313 435,476.5C 434.153,465.818 433.153,455.151 432,444.5C 429.744,439.151 427.91,433.651 426.5,428C 424.097,424.47 422.264,420.636 421,416.5C 419.667,415.833 418.667,414.833 418,413.5C 411.981,396.391 408.647,378.725 408,360.5C 409.229,356.628 410.729,352.962 412.5,349.5C 416.546,348.987 420.546,348.154 424.5,347C 428.404,345.025 430.071,341.858 429.5,337.5C 429.522,335.035 429.022,332.702 428,330.5C 423.44,323.215 418.273,316.381 412.5,310C 408.573,308.069 404.406,307.236 400,307.5C 396.431,307.286 393.098,307.953 390,309.5C 388.978,308.646 388.145,307.646 387.5,306.5C 395.421,303.14 403.087,299.307 410.5,295C 411,291.833 412.833,290 416,289.5C 416.667,285.833 416.667,282.167 416,278.5C 408.982,261.946 401.482,245.613 393.5,229.5C 395.913,226.633 396.913,223.299 396.5,219.5C 395.472,214.558 394.306,209.558 393,204.5C 390.205,202.707 387.705,200.54 385.5,198C 383.667,197.833 381.833,197.667 380,197.5C 373.042,199.681 365.875,200.848 358.5,201C 355.716,201.892 353.05,203.058 350.5,204.5C 345.9,203.557 341.233,203.223 336.5,203.5C 336.64,201.876 335.973,200.71 334.5,200C 336.517,193.608 338.35,187.108 340,180.5C 340.861,174.415 340.527,168.415 339,162.5C 331.184,156.681 323.684,150.515 316.5,144C 314.859,142.871 313.859,141.371 313.5,139.5C 317.57,142.06 321.236,145.227 324.5,149C 331.427,152.542 337.261,157.376 342,163.5C 342.667,169.167 342.667,174.833 342,180.5C 340.379,187.434 339.213,194.434 338.5,201.5C 344.732,202.061 350.732,201.228 356.5,199C 364.471,198.446 372.304,197.279 380,195.5C 382.5,195.667 385,195.833 387.5,196C 389.705,198.54 392.205,200.707 395,202.5C 395.253,205.79 396.253,208.79 398,211.5C 398.455,218.53 398.455,225.53 398,232.5C 401.333,239.833 404.667,247.167 408,254.5C 409.161,255.995 410.327,257.495 411.5,259C 412.974,265.11 415.14,270.943 418,276.5C 418.667,281.5 418.667,286.5 418,291.5C 414.833,292 413,293.833 412.5,297C 407.257,300.453 401.591,303.12 395.5,305C 400.167,305.333 404.833,305.667 409.5,306C 411.246,306.471 412.913,307.138 414.5,308C 420.535,315.094 426.035,322.594 431,330.5C 434.628,344.703 429.128,351.703 414.5,351.5C 412.729,354.962 411.229,358.628 410,362.5C 410.944,379.363 414.277,395.697 420,411.5C 420.667,412.833 421.667,413.833 423,414.5C 424.264,418.636 426.097,422.47 428.5,426C 429.91,431.651 431.744,437.151 434,442.5C 435.153,453.151 436.153,463.818 437,474.5C 440.334,481.451 441.334,488.784 440,496.5C 439.5,497.667 438.667,498.5 437.5,499C 438.516,499.519 439.182,500.353 439.5,501.5C 441.102,507.661 440.769,513.661 438.5,519.5C 434.519,520.766 430.352,521.432 426,521.5C 422.167,521.333 418.333,521.167 414.5,521C 412.139,520.803 410.472,519.636 409.5,517.5C 406.074,517.025 402.908,516.025 400,514.5C 398.831,502.485 398.664,490.485 399.5,478.5C 396.566,464.757 392.399,451.424 387,438.5C 386,437.833 385,437.167 384,436.5C 379.217,422.298 373.384,408.632 366.5,395.5C 354.971,405.576 346.138,417.576 340,431.5C 337.483,433.457 336.316,436.124 336.5,439.5C 337.032,443.877 337.865,448.21 339,452.5C 339.192,469.229 340.192,485.896 342,502.5C 342.414,502.957 342.914,503.291 343.5,503.5C 346.425,512.946 344.092,520.446 336.5,526C 318.269,529.296 300.103,529.13 282,525.5C 281.333,519.167 281.333,512.833 282,506.5C 282.956,505.421 283.789,504.255 284.5,503C 289.202,502.828 293.868,502.328 298.5,501.5C 298.977,500.522 299.643,499.689 300.5,499C 299.782,487.215 298.949,475.382 298,463.5C 293.519,446.771 291.519,429.771 292,412.5C 299.489,398.065 306.989,383.565 314.5,369C 312.288,366.079 310.455,362.912 309,359.5C 308.7,352.092 307.867,344.758 306.5,337.5C 302.154,337.666 297.821,337.499 293.5,337C 292.258,335.125 290.924,333.291 289.5,331.5C 288.994,328.609 287.994,325.942 286.5,323.5C 279.55,324.63 272.55,324.797 265.5,324C 261.659,320.492 258.159,316.659 255,312.5C 253.101,306.29 250.768,300.29 248,294.5C 247,292.833 245.667,291.5 244,290.5C 243.662,285.453 242.995,280.453 242,275.5C 238.667,272.167 235.333,268.833 232,265.5C 231.667,263.167 231.333,260.833 231,258.5C 220.5,248 210,237.5 199.5,227C 198.167,226.667 196.833,226.333 195.5,226C 187.333,217.833 179.167,209.667 171,201.5C 169.827,197.663 167.827,194.329 165,191.5C 154.602,180.773 144.602,169.773 135,158.5C 133.939,153.896 133.273,149.229 133,144.5C 115.333,124.833 97.6667,105.167 80,85.5C 78.3952,80.6565 78.2285,75.8232 79.5,71C 84.8333,70.3333 90.1667,70.3333 95.5,71C 115,90.5 134.5,110 154,129.5C 154.333,133.5 154.667,137.5 155,141.5C 186.6,173.556 218.767,205.056 251.5,236C 258.854,234.403 263.021,237.237 264,244.5C 267.93,248.219 271.764,252.053 275.5,256C 277.769,258.023 280.436,258.856 283.5,258.5C 283.335,255.482 283.502,252.482 284,249.5C 287.705,243.53 292.205,238.197 297.5,233.5C 296.054,231.382 295.387,229.049 295.5,226.5C 292.482,226.665 289.482,226.498 286.5,226C 282.128,220.685 279.794,214.518 279.5,207.5C 278.178,207.67 277.011,207.337 276,206.5C 275.333,202.5 275.333,198.5 276,194.5C 276.5,194 277,193.5 277.5,193C 271.743,190.553 270.076,186.387 272.5,180.5C 275.012,179.62 277.179,178.287 279,176.5C 280.333,177.833 281.667,177.833 283,176.5C 283.93,171.201 284.597,165.867 285,160.5C 287.902,156.718 289.568,152.385 290,147.5C 291.203,144.089 292.703,140.756 294.5,137.5C 300.137,136.337 305.804,136.17 311.5,137C 312.056,137.383 312.389,137.883 312.5,138.5 Z"/></g>
<g><path style="opacity:1" fill="#000000" d="M 312.5,138.5 C 313.167,138.5 313.5,138.833 313.5,139.5C 313.859,141.371 314.859,142.871 316.5,144C 323.684,150.515 331.184,156.681 339,162.5C 340.527,168.415 340.861,174.415 340,180.5C 338.35,187.108 336.517,193.608 334.5,200C 335.973,200.71 336.64,201.876 336.5,203.5C 341.233,203.223 345.9,203.557 350.5,204.5C 353.05,203.058 355.716,201.892 358.5,201C 365.875,200.848 373.042,199.681 380,197.5C 381.833,197.667 383.667,197.833 385.5,198C 387.705,200.54 390.205,202.707 393,204.5C 394.306,209.558 395.472,214.558 396.5,219.5C 396.913,223.299 395.913,226.633 393.5,229.5C 401.482,245.613 408.982,261.946 416,278.5C 416.667,282.167 416.667,285.833 416,289.5C 412.833,290 411,291.833 410.5,295C 403.087,299.307 395.421,303.14 387.5,306.5C 388.145,307.646 388.978,308.646 390,309.5C 393.098,307.953 396.431,307.286 400,307.5C 404.406,307.236 408.573,308.069 412.5,310C 418.273,316.381 423.44,323.215 428,330.5C 429.022,332.702 429.522,335.035 429.5,337.5C 430.071,341.858 428.404,345.025 424.5,347C 420.546,348.154 416.546,348.987 412.5,349.5C 410.729,352.962 409.229,356.628 408,360.5C 408.647,378.725 411.981,396.391 418,413.5C 418.667,414.833 419.667,415.833 421,416.5C 422.264,420.636 424.097,424.47 426.5,428C 427.91,433.651 429.744,439.151 432,444.5C 433.153,455.151 434.153,465.818 435,476.5C 437.382,480.313 438.548,484.48 438.5,489C 439.216,492.981 437.882,495.981 434.5,498C 439.232,504.711 439.565,511.545 435.5,518.5C 429.193,519.664 422.859,519.831 416.5,519C 414.139,518.803 412.472,517.636 411.5,515.5C 408.074,515.025 404.908,514.025 402,512.5C 401.333,508.167 401.333,503.833 402,499.5C 403.895,497.565 403.562,495.898 401,494.5C 400.39,489.149 400.557,483.816 401.5,478.5C 398.882,464.024 394.715,450.024 389,436.5C 388,435.833 387,435.167 386,434.5C 381.921,423.266 377.254,412.266 372,401.5C 371.339,398.054 370.505,394.721 369.5,391.5C 367.217,391.608 365.217,392.441 363.5,394C 351.96,405.014 342.626,417.514 335.5,431.5C 334.724,434.986 334.058,438.486 333.5,442C 335.18,446.017 336.347,450.184 337,454.5C 337.192,471.229 338.192,487.896 340,504.5C 340.414,504.957 340.914,505.291 341.5,505.5C 341.833,507.5 342.167,509.5 342.5,511.5C 341.743,516.782 339.076,520.949 334.5,524C 317.602,527.258 300.769,527.091 284,523.5C 283.333,518.5 283.333,513.5 284,508.5C 284.915,507.672 285.581,506.672 286,505.5C 290.784,504.857 295.617,504.191 300.5,503.5C 302.318,502.226 303.985,500.726 305.5,499C 304.421,498.044 303.255,497.211 302,496.5C 301.768,484.805 301.102,473.138 300,461.5C 296.042,446.056 294.042,430.389 294,414.5C 295.117,413.051 295.784,411.384 296,409.5C 302.786,395.82 309.952,382.32 317.5,369C 314.961,365.426 312.794,361.593 311,357.5C 310.974,349.643 309.807,341.976 307.5,334.5C 303.558,335.6 299.558,335.767 295.5,335C 291.359,330.357 289.192,324.857 289,318.5C 287.417,320.055 285.584,321.222 283.5,322C 278.167,322.667 272.833,322.667 267.5,322C 263.659,318.492 260.159,314.659 257,310.5C 255.101,304.29 252.768,298.29 250,292.5C 249,290.833 247.667,289.5 246,288.5C 245.662,283.453 244.995,278.453 244,273.5C 240.667,270.167 237.333,266.833 234,263.5C 233.667,261.167 233.333,258.833 233,256.5C 222.5,246 212,235.5 201.5,225C 200.167,224.667 198.833,224.333 197.5,224C 189.333,215.833 181.167,207.667 173,199.5C 171.827,195.663 169.827,192.329 167,189.5C 156.602,178.773 146.602,167.773 137,156.5C 135.452,152.322 135.285,148.156 136.5,144C 118.333,123.833 100.167,103.667 82,83.5C 80.5443,79.9847 80.3777,76.4847 81.5,73C 85.5,72.3333 89.5,72.3333 93.5,73C 113,92.5 132.5,112 152,131.5C 152.333,135.5 152.667,139.5 153,143.5C 184.6,175.556 216.767,207.056 249.5,238C 256.854,236.403 261.021,239.237 262,246.5C 267.119,250.652 271.952,255.152 276.5,260C 278.101,260.273 279.601,260.773 281,261.5C 282.356,260.62 283.856,260.286 285.5,260.5C 285.335,257.482 285.502,254.482 286,251.5C 290.236,245.142 295.069,239.309 300.5,234C 298.767,231.042 297.767,227.875 297.5,224.5C 294.482,224.665 291.482,224.498 288.5,224C 284.128,218.685 281.794,212.518 281.5,205.5C 280.178,205.67 279.011,205.337 278,204.5C 276.594,199.676 277.76,195.676 281.5,192.5C 279.343,190.588 277.009,188.921 274.5,187.5C 273.319,185.802 273.319,184.135 274.5,182.5C 277.911,180.864 281.411,179.531 285,178.5C 285.367,172.796 286.034,167.13 287,161.5C 290.039,154.635 292.705,147.635 295,140.5C 296.823,138.833 298.99,137.833 301.5,137.5C 305.138,137.457 308.804,137.791 312.5,138.5 Z"/></g>
<g><path style="opacity:1" fill="#c2c3c2" d="M 85.5,77.5 C 86.2506,76.4265 87.2506,76.2599 88.5,77C 107.667,96.1667 126.833,115.333 146,134.5C 146.333,138.833 146.667,143.167 147,147.5C 149.869,150.704 153.035,153.537 156.5,156C 154.953,157.849 153.119,159.349 151,160.5C 142.741,155.731 139.408,148.731 141,139.5C 122.717,118.572 104.217,97.9055 85.5,77.5 Z"/></g>
<g><path style="opacity:1" fill="#555454" d="M 298.5,140.5 C 300.833,140.5 303.167,140.5 305.5,140.5C 306.187,153.486 306.687,166.486 307,179.5C 308.31,182.503 308.476,185.503 307.5,188.5C 302.187,185.674 296.52,184.174 290.5,184C 288.246,183.376 286.579,182.043 285.5,180C 287.353,174.788 288.52,169.288 289,163.5C 291.859,155.676 295.026,148.009 298.5,140.5 Z"/></g>
<g><path style="opacity:1" fill="#000000" d="M 328.5,149.5 C 329.833,150.167 329.833,150.167 328.5,149.5 Z"/></g>
<g><path style="opacity:1" fill="#565555" d="M 329.5,198.5 C 324.837,198.754 320.671,197.42 317,194.5C 316.809,196.708 316.309,198.708 315.5,200.5C 315.662,198.473 315.495,196.473 315,194.5C 314.329,193.748 313.496,193.414 312.5,193.5C 312.167,192.833 311.833,192.167 311.5,191.5C 312.147,190.726 312.48,189.726 312.5,188.5C 308.787,172.665 307.787,156.665 309.5,140.5C 317.859,149.026 326.693,157.026 336,164.5C 336.852,169.826 337.186,175.16 337,180.5C 334.183,186.454 331.683,192.454 329.5,198.5 Z"/></g>
<g><path style="opacity:1" fill="#c2c3c2" d="M 157.5,160.5 C 158.251,159.427 159.251,159.26 160.5,160C 190.667,189.5 220.833,219 251,248.5C 251.667,249.833 251.667,251.167 251,252.5C 220.082,221.078 188.916,190.412 157.5,160.5 Z"/></g>
<g><path style="opacity:1" fill="#b87a56" d="M 153.5,160.5 C 168.611,175.11 183.611,189.944 198.5,205C 201.369,206.748 204.036,208.748 206.5,211C 221.167,225.667 235.833,240.333 250.5,255C 248.714,255.785 247.214,256.951 246,258.5C 245.667,257.167 245.333,255.833 245,254.5C 232.196,242.696 219.696,230.53 207.5,218C 206.167,217.667 204.833,217.333 203.5,217C 195.077,207.906 186.077,199.572 176.5,192C 168.167,182.333 159.833,172.667 151.5,163C 152.381,162.292 153.047,161.458 153.5,160.5 Z"/></g>
<g><path style="opacity:1" fill="#66402c" d="M 308.5,193.5 C 307.714,198.891 305.88,203.891 303,208.5C 301.274,209.576 299.441,209.743 297.5,209C 296.978,208.439 296.645,207.772 296.5,207C 298.726,205.232 300.393,203.065 301.5,200.5C 302.244,197.64 302.911,194.64 303.5,191.5C 305.045,190.548 306.712,190.215 308.5,190.5C 308.5,191.5 308.5,192.5 308.5,193.5 Z"/></g>
<g><path style="opacity:1" fill="#f3a381" d="M 291.5,195.5 C 292.812,194.855 293.812,193.855 294.5,192.5C 296.743,191.526 299.076,191.192 301.5,191.5C 301.5,194.5 301.5,197.5 301.5,200.5C 300.393,203.065 298.726,205.232 296.5,207C 296.645,207.772 296.978,208.439 297.5,209C 299.441,209.743 301.274,209.576 303,208.5C 305.88,203.891 307.714,198.891 308.5,193.5C 309.222,192.449 310.222,191.782 311.5,191.5C 311.833,192.167 312.167,192.833 312.5,193.5C 313.496,193.414 314.329,193.748 315,194.5C 315.495,196.473 315.662,198.473 315.5,200.5C 314.354,202.475 312.687,203.975 310.5,205C 312.609,205.907 313.942,207.407 314.5,209.5C 314.489,211.017 313.823,212.184 312.5,213C 308.663,214.173 305.329,216.173 302.5,219C 298.903,220.277 295.236,220.61 291.5,220C 290.971,217.571 289.637,215.738 287.5,214.5C 289.167,213.333 290.833,212.167 292.5,211C 290.624,209.983 288.624,209.149 286.5,208.5C 285.224,206.139 285.558,203.972 287.5,202C 280.908,202.113 280.074,200.28 285,196.5C 285.494,194.866 285.66,193.199 285.5,191.5C 289.099,191.262 289.433,192.262 286.5,194.5C 287.655,195.95 289.155,196.95 291,197.5C 291.464,196.906 291.631,196.239 291.5,195.5 Z"/></g>
<g><path style="opacity:1" fill="#fefffe" d="M 176.5,194.5 C 176.897,193.475 177.563,193.308 178.5,194C 186.5,202 194.5,210 202.5,218C 203.833,218.333 205.167,218.667 206.5,219C 218.833,231.333 231.167,243.667 243.5,256C 242.833,256.667 242.167,256.667 241.5,256C 228.974,244.23 216.641,232.23 204.5,220C 203.167,219.667 201.833,219.333 200.5,219C 192.27,210.938 184.27,202.772 176.5,194.5 Z"/></g>
<g><path style="opacity:1" fill="#fefffe" d="M 291.5,195.5 C 290.711,195.217 290.044,194.717 289.5,194C 290.816,193.472 291.483,193.972 291.5,195.5 Z"/></g>
<g><path style="opacity:1" fill="#000000" d="M 312.5,193.5 C 312.896,196.482 312.229,199.149 310.5,201.5C 310.167,201.167 309.833,200.833 309.5,200.5C 309.887,197.762 310.887,195.428 312.5,193.5 Z"/></g>
<g><path style="opacity:1" fill="#835236" d="M 329.5,198.5 C 329.363,202.179 330.029,205.679 331.5,209C 325.796,212.009 320.129,212.176 314.5,209.5C 313.942,207.407 312.609,205.907 310.5,205C 312.687,203.975 314.354,202.475 315.5,200.5C 316.309,198.708 316.809,196.708 317,194.5C 320.671,197.42 324.837,198.754 329.5,198.5 Z"/></g>
<g><path style="opacity:1" fill="#fefffe" d="M 378.5,205.5 C 378.369,204.761 378.536,204.094 379,203.5C 384.512,208.439 387.512,214.439 388,221.5C 387.902,223.619 387.069,225.286 385.5,226.5C 384.495,225.89 384.662,225.224 386,224.5C 386.995,221.874 387.328,219.207 387,216.5C 384.714,212.384 381.88,208.717 378.5,205.5 Z"/></g>
<g><path style="opacity:1" fill="#474746" d="M 378.5,205.5 C 381.144,209.819 383.811,214.152 386.5,218.5C 385.694,221.446 384.361,224.112 382.5,226.5C 376.848,227.37 371.181,228.037 365.5,228.5C 364.654,220.795 361.321,214.295 355.5,209C 362.902,205.769 370.568,204.603 378.5,205.5 Z"/></g>
<g><path style="opacity:1" fill="#474746" d="M 382.5,205.5 C 382.56,204.957 382.893,204.624 383.5,204.5C 388.676,209.47 391.176,215.47 391,222.5C 390.581,223.672 389.915,224.672 389,225.5C 389.502,221.908 389.502,218.241 389,214.5C 387.278,211.133 385.111,208.133 382.5,205.5 Z"/></g>
<g><path style="opacity:1" fill="#3e3d3d" d="M 335.5,208.5 C 341.947,207.42 347.613,208.92 352.5,213C 353.96,216.089 355.793,218.922 358,221.5C 358.498,224.482 358.665,227.482 358.5,230.5C 356.473,230.338 354.473,230.505 352.5,231C 346.205,233.797 340.372,237.297 335,241.5C 331.825,240.314 330.159,237.981 330,234.5C 326.717,232.134 325.217,228.801 325.5,224.5C 325.682,221.774 326.182,219.107 327,216.5C 329.375,213.29 332.208,210.624 335.5,208.5 Z"/></g>
<g><path style="opacity:1" fill="#fef200" d="M 314.5,213.5 C 318.514,213.334 322.514,213.501 326.5,214C 324.077,217.753 323.077,221.92 323.5,226.5C 321.801,226.34 320.134,226.506 318.5,227C 314.363,230.054 309.863,231.221 305,230.5C 303.833,228.667 302.667,226.833 301.5,225C 302.191,223.933 302.691,222.766 303,221.5C 306.498,218.183 310.331,215.516 314.5,213.5 Z"/></g>
<g><path style="opacity:1" fill="#fefffe" d="M 355.5,213.5 C 357.337,213.639 357.67,214.306 356.5,215.5C 355.702,215.043 355.369,214.376 355.5,213.5 Z"/></g>
<g><path style="opacity:1" fill="#fefffe" d="M 358.5,217.5 C 361.944,220.3 363.61,223.967 363.5,228.5C 362.5,228.5 361.5,228.5 360.5,228.5C 360.584,224.669 359.917,221.002 358.5,217.5 Z"/></g>
<g><path style="opacity:1" fill="#fefffe" d="M 319.5,228.5 C 321.167,228.5 322.833,228.5 324.5,228.5C 324.34,230.199 324.506,231.866 325,233.5C 327.064,235.243 327.564,237.243 326.5,239.5C 319.868,238.494 313.201,238.494 306.5,239.5C 306.5,237.5 306.5,235.5 306.5,233.5C 311.368,232.881 315.702,231.215 319.5,228.5 Z"/></g>
<g><path style="opacity:1" fill="#fefffe" d="M 383.5,230.5 C 384.239,230.369 384.906,230.536 385.5,231C 387.046,233.257 388.712,235.424 390.5,237.5C 392.803,244.765 395.637,251.765 399,258.5C 400,259.5 401,260.5 402,261.5C 404.391,267.949 407.058,274.282 410,280.5C 410.667,282.5 410.667,284.5 410,286.5C 406.265,275.141 401.265,264.475 395,254.5C 394.133,249.88 392.133,245.88 389,242.5C 387.63,238.195 385.797,234.195 383.5,230.5 Z"/></g>
<g><path style="opacity:1" fill="#fefffe" d="M 363.5,232.5 C 365.377,231.375 367.21,231.709 369,233.5C 377.817,251.633 386.817,269.633 396,287.5C 397.102,290.905 396.268,293.572 393.5,295.5C 393.236,291.915 392.403,288.248 391,284.5C 386.712,276.193 382.378,267.86 378,259.5C 375.869,252.578 373.202,245.911 370,239.5C 367.817,237.093 365.65,234.76 363.5,232.5 Z"/></g>
<g><path style="opacity:1" fill="#e71c23" d="M 338.5,254.5 C 341.464,264.22 345.131,273.72 349.5,283C 347.5,283.333 345.5,283.667 343.5,284C 342.167,285 342.167,286 343.5,287C 347.473,288.028 351.473,288.861 355.5,289.5C 355.5,290.5 355.5,291.5 355.5,292.5C 357.359,292.461 358.692,293.294 359.5,295C 346.984,295.408 334.651,294.074 322.5,291C 323.696,290.346 323.696,289.846 322.5,289.5C 319.78,291.111 316.78,291.944 313.5,292C 310.5,293.667 308.167,296 306.5,299C 304.385,299.557 302.385,300.391 300.5,301.5C 298.024,304.232 295.357,306.732 292.5,309C 288.005,310.811 284.005,313.478 280.5,317C 277.5,317.667 274.5,317.667 271.5,317C 261.238,306.969 256.072,295.469 256,282.5C 257.385,281.449 258.385,280.116 259,278.5C 269.455,273.62 274.788,276.953 275,288.5C 275.791,287.255 276.291,285.922 276.5,284.5C 277.492,284.672 278.158,284.338 278.5,283.5C 280.359,282.406 282.359,281.573 284.5,281C 285.856,278.602 287.023,276.102 288,273.5C 291.582,271.406 292.415,268.406 290.5,264.5C 290.892,260.538 292.058,256.872 294,253.5C 295.384,260.54 299.551,263.04 306.5,261C 307.579,260.044 308.745,259.211 310,258.5C 312.568,252.793 314.735,246.96 316.5,241C 324.473,240.617 331.64,242.783 338,247.5C 338.497,249.81 338.663,252.143 338.5,254.5 Z"/></g>
<g><path style="opacity:1" fill="#e7e7e7" d="M 302.5,242.5 C 305.85,242.335 309.183,242.502 312.5,243C 311.711,246.595 310.544,250.095 309,253.5C 307.654,256.179 305.654,258.179 303,259.5C 300.525,259.016 298.692,257.683 297.5,255.5C 300.447,254.679 303.447,254.179 306.5,254C 303.183,253.502 299.85,253.335 296.5,253.5C 296.5,252.167 296.5,250.833 296.5,249.5C 299.85,249.665 303.183,249.498 306.5,249C 303.5,248.667 300.5,248.333 297.5,248C 298.762,245.724 300.429,243.891 302.5,242.5 Z"/></g>
<g><path style="opacity:1" fill="#f9a884" d="M 253.5,243.5 C 254.117,243.611 254.617,243.944 255,244.5C 256,250.184 257.5,255.684 259.5,261C 255.148,262.682 251.314,265.182 248,268.5C 243.946,265.947 240.779,262.614 238.5,258.5C 238.833,257.833 239.167,257.167 239.5,256.5C 244.782,262.062 249.282,261.395 253,254.5C 253.499,250.848 253.665,247.182 253.5,243.5 Z"/></g>
<g><path style="opacity:1" fill="#fec90d" d="M 382.5,248.5 C 385.997,247.891 388.663,249.057 390.5,252C 392.839,256.203 393.839,260.703 393.5,265.5C 392.07,265.579 390.736,265.246 389.5,264.5C 387.727,261.94 385.727,259.607 383.5,257.5C 382.593,254.579 382.26,251.579 382.5,248.5 Z"/></g>
<g><path style="opacity:1" fill="#c2c3c2" d="M 259.5,251.5 C 261.66,253.325 263.16,255.659 264,258.5C 264.903,259.701 266.069,260.535 267.5,261C 265.191,261.756 263.191,261.256 261.5,259.5C 260.451,256.92 259.784,254.254 259.5,251.5 Z"/></g>
<g><path style="opacity:1" fill="#ba0f16" d="M 338.5,254.5 C 344.508,260.06 348.008,267.06 349,275.5C 349.667,276.833 350.667,277.833 352,278.5C 352.409,282.491 353.576,286.157 355.5,289.5C 351.473,288.861 347.473,288.028 343.5,287C 342.167,286 342.167,285 343.5,284C 345.5,283.667 347.5,283.333 349.5,283C 345.131,273.72 341.464,264.22 338.5,254.5 Z"/></g>
<g><path style="opacity:1" fill="#fefffe" d="M 362.5,258.5 C 364.655,258.372 366.655,258.872 368.5,260C 364.167,263 359.833,266 355.5,269C 354.552,269.483 353.552,269.649 352.5,269.5C 352.298,267.011 352.798,264.677 354,262.5C 357.047,261.438 359.88,260.105 362.5,258.5 Z"/></g>
<g><path style="opacity:1" fill="#fef200" d="M 251.5,269.5 C 253.497,266.157 256.497,264.49 260.5,264.5C 264.694,262.612 268.194,263.612 271,267.5C 272.504,270.684 274.004,273.851 275.5,277C 272.666,275.063 269.333,274.23 265.5,274.5C 263.5,274.667 261.5,274.833 259.5,275C 259,275.5 258.5,276 258,276.5C 258.408,271.742 256.241,269.409 251.5,269.5 Z"/></g>
<g><path style="opacity:1" fill="#000000" d="M 260.5,264.5 C 266.02,263.868 268.853,266.201 269,271.5C 261.813,273.863 258.98,271.53 260.5,264.5 Z"/></g>
<g><path style="opacity:1" fill="#fefffe" d="M 261.5,265.5 C 264.731,265.559 267.065,267.059 268.5,270C 266.244,271.867 263.91,271.867 261.5,270C 260.272,268.51 260.272,267.01 261.5,265.5 Z"/></g>
<g><path style="opacity:1" fill="#c2c3c2" d="M 273.5,265.5 C 274.978,265.238 276.311,265.571 277.5,266.5C 277.968,268.134 278.968,269.3 280.5,270C 279.271,271.529 277.771,272.696 276,273.5C 274.856,270.92 274.022,268.253 273.5,265.5 Z"/></g>
<g><path style="opacity:1" fill="#c2c3c2" d="M 285.5,266.5 C 286.88,266.962 287.547,267.962 287.5,269.5C 285.551,271.792 284.551,274.459 284.5,277.5C 282.286,277.709 280.619,276.876 279.5,275C 281.705,272.298 283.705,269.464 285.5,266.5 Z"/></g>
<g><path style="opacity:1" fill="#fef200" d="M 251.5,269.5 C 251.337,271.857 251.503,274.19 252,276.5C 253.399,277.227 254.899,277.727 256.5,278C 254.348,280.12 252.848,282.62 252,285.5C 251.333,284.833 250.667,284.167 250,283.5C 249.682,279.805 249.182,276.138 248.5,272.5C 248.868,270.825 249.868,269.825 251.5,269.5 Z"/></g>
<g><path style="opacity:1" fill="#fefffe" d="M 252.5,270.5 C 256.647,271.6 257.313,273.6 254.5,276.5C 252.717,274.977 252.051,272.977 252.5,270.5 Z"/></g>
<g><path style="opacity:1" fill="#000000" d="M 328.5,280.5 C 329.311,283.484 328.311,283.984 325.5,282C 326.737,281.768 327.737,281.268 328.5,280.5 Z"/></g>
<g><path style="opacity:1" fill="#946247" d="M 278.5,283.5 C 278.158,284.338 277.492,284.672 276.5,284.5C 275.596,283.791 275.263,282.791 275.5,281.5C 277.179,281.285 278.179,281.952 278.5,283.5 Z"/></g>
<g><path style="opacity:1" fill="#fefffe" d="M 315.5,293.5 C 330.143,295.298 344.809,296.964 359.5,298.5C 360.09,299.799 361.09,300.632 362.5,301C 346.56,302.139 330.893,300.639 315.5,296.5C 315.5,295.5 315.5,294.5 315.5,293.5 Z"/></g>
<g><path style="opacity:1" fill="#870014" d="M 324.5,366.5 C 320.827,364.201 318.327,360.867 317,356.5C 316.485,346.378 315.152,336.378 313,326.5C 312.333,316.167 312.333,305.833 313,295.5C 313.368,296.91 314.201,297.91 315.5,298.5C 315.989,311.266 317.322,323.933 319.5,336.5C 317.676,342.39 317.176,348.39 318,354.5C 319.994,358.643 322.161,362.643 324.5,366.5 Z"/></g>
<g><path style="opacity:1" fill="#fef200" d="M 308.5,298.5 C 309.629,300.628 309.796,302.961 309,305.5C 307.978,304.646 307.145,303.646 306.5,302.5C 307.63,301.378 308.297,300.044 308.5,298.5 Z"/></g>
<g><path style="opacity:1" fill="#ec1c23" d="M 318.5,299.5 C 329.987,302.216 341.654,303.549 353.5,303.5C 353.174,306.311 352.341,308.978 351,311.5C 350.667,315.833 350.333,320.167 350,324.5C 349.586,324.957 349.086,325.291 348.5,325.5C 345.422,323.87 342.089,323.037 338.5,323C 332.314,317.313 325.981,311.813 319.5,306.5C 318.526,304.257 318.192,301.924 318.5,299.5 Z"/></g>
<g><path style="opacity:1" fill="#b87a56" d="M 302.5,303.5 C 308.243,306.383 310.91,311.05 310.5,317.5C 310.167,320.167 309.833,322.833 309.5,325.5C 306.727,326.97 303.894,328.303 301,329.5C 299.347,329.18 298.347,328.18 298,326.5C 296.812,321.72 295.312,317.053 293.5,312.5C 296.521,309.479 299.521,306.479 302.5,303.5 Z"/></g>
<g><path style="opacity:1" fill="#fefffe" d="M 358.5,305.5 C 357.737,304.732 356.737,304.232 355.5,304C 358.379,303.126 361.045,303.46 363.5,305C 361.866,305.494 360.199,305.66 358.5,305.5 Z"/></g>
<g><path style="opacity:1" fill="#fec90d" d="M 358.5,305.5 C 359.568,306.434 360.901,306.768 362.5,306.5C 362.5,307.833 362.5,309.167 362.5,310.5C 361.5,310.5 360.5,310.5 359.5,310.5C 358.486,309.326 357.153,308.66 355.5,308.5C 355.5,307.5 355.5,306.5 355.5,305.5C 356.5,305.5 357.5,305.5 358.5,305.5 Z"/></g>
<g><path style="opacity:1" fill="#ededed" d="M 382.5,317.5 C 380.712,316.378 378.712,316.211 376.5,317C 374.947,319.362 372.78,320.862 370,321.5C 369.805,320.181 369.972,318.847 370.5,317.5C 370.973,316.094 371.973,315.427 373.5,315.5C 374.477,312.713 374.81,309.713 374.5,306.5C 375.93,306.579 377.264,306.246 378.5,305.5C 379.281,306.729 379.781,308.062 380,309.5C 382.485,310.987 384.652,312.821 386.5,315C 385.307,316.095 383.973,316.928 382.5,317.5 Z"/></g>
<g><path style="opacity:1" fill="#870014" d="M 324.5,366.5 C 327.843,367.224 331.176,368.057 334.5,369C 340.626,369.638 346.626,368.971 352.5,367C 354.333,364.5 356.5,362.333 359,360.5C 359.376,357.99 360.21,355.657 361.5,353.5C 362.012,337.765 363.179,322.098 365,306.5C 367.063,310.496 367.897,314.829 367.5,319.5C 365.921,332.47 364.421,345.47 363,358.5C 359.507,362.993 355.673,367.159 351.5,371C 344.833,371.667 338.167,371.667 331.5,371C 329.276,369.219 326.942,367.719 324.5,366.5 Z"/></g>
<g><path style="opacity:1" fill="#ec1c23" d="M 373.5,315.5 C 371.973,315.427 370.973,316.094 370.5,317.5C 369.842,316.207 369.508,314.707 369.5,313C 369.561,310.358 370.561,308.191 372.5,306.5C 373.484,309.428 373.817,312.428 373.5,315.5 Z"/></g>
<g><path style="opacity:1" fill="#fefffe" d="M 318.5,308.5 C 324.147,313.143 329.814,317.81 335.5,322.5C 336.833,323.5 336.833,324.5 335.5,325.5C 333.189,326.497 330.856,326.997 328.5,327C 326.833,322.162 323.833,318.328 319.5,315.5C 318.526,313.257 318.192,310.924 318.5,308.5 Z"/></g>
<g><path style="opacity:1" fill="#cfcfcf" d="M 355.5,308.5 C 357.153,308.66 358.486,309.326 359.5,310.5C 361.075,312.114 361.741,314.114 361.5,316.5C 360.5,316.5 359.5,316.5 358.5,316.5C 356.597,316.204 354.93,315.537 353.5,314.5C 353.054,311.99 353.72,309.99 355.5,308.5 Z"/></g>
<g><path style="opacity:1" fill="#000000" d="M 376.5,311.5 C 382.982,313.049 382.982,314.049 376.5,314.5C 376.5,313.5 376.5,312.5 376.5,311.5 Z"/></g>
<g><path style="opacity:1" fill="#fec90d" d="M 353.5,314.5 C 354.93,315.537 356.597,316.204 358.5,316.5C 359.209,317.404 360.209,317.737 361.5,317.5C 361.5,318.833 361.5,320.167 361.5,321.5C 357.766,321.982 354.933,320.649 353,317.5C 352.26,316.251 352.427,315.251 353.5,314.5 Z"/></g>
<g><path style="opacity:1" fill="#ec1c23" d="M 318.5,317.5 C 324.387,320.672 326.22,325.338 324,331.5C 323,332.167 322,332.833 321,333.5C 320.002,328.18 319.169,322.847 318.5,317.5 Z"/></g>
<g><path style="opacity:1" fill="#e41c22" d="M 382.5,317.5 C 384.452,320.244 385.952,323.244 387,326.5C 388.333,327.167 389.667,327.833 391,328.5C 391.438,331.376 392.438,334.043 394,336.5C 397.087,339.295 399.92,342.295 402.5,345.5C 403.917,350.158 403.584,354.658 401.5,359C 395.012,361.456 388.345,363.289 381.5,364.5C 381.664,361.813 381.497,359.146 381,356.5C 377.678,347.298 374.511,337.965 371.5,328.5C 371.79,326.956 372.456,325.623 373.5,324.5C 372.975,323.808 372.308,323.308 371.5,323C 372.766,322.691 373.933,322.191 375,321.5C 379.864,331.322 385.364,340.655 391.5,349.5C 392.223,347.836 391.89,346.169 390.5,344.5C 385.558,336.941 380.892,329.274 376.5,321.5C 378.289,319.863 380.289,318.53 382.5,317.5 Z"/></g>
<g><path style="opacity:1" fill="#4d4e4d" d="M 398.5,317.5 C 403.482,323.429 408.482,329.429 413.5,335.5C 416.5,336.167 419.5,336.833 422.5,337.5C 419.893,338.318 417.226,338.818 414.5,339C 407.766,346.466 407.099,345.966 412.5,337.5C 407.394,331.074 402.727,324.407 398.5,317.5 Z"/></g>
<g><path style="opacity:1" fill="#fefffe" d="M 352.5,320.5 C 354.82,322.226 357.487,322.893 360.5,322.5C 360.666,326.514 360.499,330.514 360,334.5C 354.602,331.296 352.102,326.63 352.5,320.5 Z"/></g>
<g><path style="opacity:1" fill="#736635" d="M 368.5,323.5 C 368.755,328.479 370.255,333.146 373,337.5C 374.98,344.111 376.98,350.778 379,357.5C 380.33,363.799 380.996,370.132 381,376.5C 378.715,377.819 376.548,379.319 374.5,381C 361.833,382.145 349.166,383.311 336.5,384.5C 335.167,384.167 333.833,383.833 332.5,383.5C 331.355,380.252 330.521,376.919 330,373.5C 329.075,372.953 328.242,372.287 327.5,371.5C 329.123,370.524 330.457,371.024 331.5,373C 337.833,373.667 344.167,373.667 350.5,373C 355.634,368.867 360.468,364.367 365,359.5C 366.396,347.52 367.563,335.52 368.5,323.5 Z"/></g>
<g><path style="opacity:1" fill="#00a1e8" d="M 335.5,331.5 C 335.5,330.167 335.5,328.833 335.5,327.5C 337.833,327.5 340.167,327.5 342.5,327.5C 342.5,328.833 342.5,330.167 342.5,331.5C 340.167,331.5 337.833,331.5 335.5,331.5 Z"/></g>
<g><path style="opacity:1" fill="#049ee3" d="M 343.5,327.5 C 346.32,327.248 348.986,327.748 351.5,329C 352.976,331.643 354.976,333.81 357.5,335.5C 358.802,338.708 359.469,342.041 359.5,345.5C 358.167,345.5 356.833,345.5 355.5,345.5C 354.813,338.481 351.146,333.814 344.5,331.5C 343.571,330.311 343.238,328.978 343.5,327.5 Z"/></g>
<g><path style="opacity:1" fill="#059de1" d="M 335.5,331.5 C 327.27,334.923 323.27,341.256 323.5,350.5C 322.167,350.5 320.833,350.5 319.5,350.5C 318.882,343.085 321.215,336.918 326.5,332C 328.871,330.121 331.538,328.955 334.5,328.5C 334.263,329.791 334.596,330.791 335.5,331.5 Z"/></g>
<g><path style="opacity:1" fill="#158cc8" d="M 349.5,347.5 C 343.442,349.579 337.109,350.913 330.5,351.5C 329.178,351.67 328.011,351.337 327,350.5C 326.505,348.527 326.338,346.527 326.5,344.5C 330.056,344.725 330.39,343.892 327.5,342C 329.558,338.098 332.891,336.431 337.5,337C 336.167,336.667 334.833,336.333 333.5,336C 339.259,332.512 344.592,333.179 349.5,338C 348.833,338.333 348.167,338.667 347.5,339C 351.851,339.46 353.851,341.96 353.5,346.5C 351.901,346.232 350.568,346.566 349.5,347.5 Z"/></g>
<g><path style="opacity:1" fill="#00a1e8" d="M 349.5,347.5 C 350.833,347.5 352.167,347.5 353.5,347.5C 353.88,352.778 351.546,355.444 346.5,355.5C 342.958,355.187 339.625,355.521 336.5,356.5C 332.831,357.303 330.164,356.136 328.5,353C 329.416,352.722 330.082,352.222 330.5,351.5C 337.109,350.913 343.442,349.579 349.5,347.5 Z"/></g>
<g><path style="opacity:1" fill="#1689c3" d="M 346.5,355.5 C 350.099,355.262 350.433,356.262 347.5,358.5C 342.349,361.307 337.349,361.14 332.5,358C 334.058,357.79 335.391,357.29 336.5,356.5C 339.625,355.521 342.958,355.187 346.5,355.5 Z"/></g>
<g><path style="opacity:1" fill="#049ee3" d="M 323.5,350.5 C 325.816,356.314 329.983,360.314 336,362.5C 336.667,364.167 336.667,365.833 336,367.5C 327.262,365.596 322.096,360.263 320.5,351.5C 321.791,351.737 322.791,351.404 323.5,350.5 Z"/></g>
<g><path style="opacity:1" fill="#049ee2" d="M 355.5,347.5 C 359.796,347.588 360.129,349.421 356.5,353C 354.794,363.112 348.461,367.945 337.5,367.5C 337.5,365.833 337.5,364.167 337.5,362.5C 348.407,363.252 354.407,358.252 355.5,347.5 Z"/></g>
<g><path style="opacity:1" fill="#464545" d="M 324.5,370.5 C 327.85,375.203 329.85,380.537 330.5,386.5C 341.5,385.666 352.5,385.166 363.5,385C 355.333,393.833 347.167,402.667 339,411.5C 337.012,418.152 333.512,423.819 328.5,428.5C 328.154,433.76 327.821,438.927 327.5,444C 329.539,448.817 330.706,453.983 331,459.5C 331.333,468.833 331.667,478.167 332,487.5C 332.424,489.976 333.257,492.309 334.5,494.5C 334.081,495.672 333.415,496.672 332.5,497.5C 329.833,498.833 327.167,498.833 324.5,497.5C 323.135,496.059 321.635,494.726 320,493.5C 319.506,491.866 319.34,490.199 319.5,488.5C 318.5,488.5 317.5,488.5 316.5,488.5C 316.167,491.833 315.833,495.167 315.5,498.5C 314.5,498.5 313.5,498.5 312.5,498.5C 311.72,495.899 310.054,493.899 307.5,492.5C 306.707,480.496 305.873,468.496 305,456.5C 302.418,445.265 300.251,433.932 298.5,422.5C 299.652,418.572 300.818,414.572 302,410.5C 304.603,407.725 306.27,404.392 307,400.5C 307.333,400.833 307.667,401.167 308,401.5C 310.162,396.208 312.329,390.875 314.5,385.5C 317.466,380.303 320.799,375.303 324.5,370.5 Z"/></g>
<g><path style="opacity:1" fill="#870014" d="M 381.5,378.5 C 389.187,392.706 396.52,407.206 403.5,422C 402,423.5 400.5,425 399,426.5C 391.577,411.987 384.41,397.32 377.5,382.5C 379.188,381.479 380.521,380.145 381.5,378.5 Z"/></g>
<g><path style="opacity:1" fill="#484747" d="M 396.5,361.5 C 397.5,361.5 398.5,361.5 399.5,361.5C 399.162,364.325 400.162,366.492 402.5,368C 401.919,368.893 401.585,369.893 401.5,371C 402.768,379.509 404.102,388.009 405.5,396.5C 408.136,402.447 409.969,408.781 411,415.5C 414.128,419.611 416.794,423.944 419,428.5C 420.463,433.516 422.297,438.35 424.5,443C 426.545,455.794 428.379,468.628 430,481.5C 430.761,484.053 431.594,486.553 432.5,489C 431.833,490.333 431.167,491.667 430.5,493C 424.449,493.208 418.449,493.708 412.5,494.5C 409.745,492.99 407.412,490.99 405.5,488.5C 406.732,485.7 407.399,482.7 407.5,479.5C 405.995,468.797 403.829,458.131 401,447.5C 391.385,426.389 381.552,405.389 371.5,384.5C 373.006,383.253 374.506,383.253 376,384.5C 384.845,403.691 394.345,422.524 404.5,441C 406.701,441.825 408.534,441.325 410,439.5C 410.667,437.167 410.667,434.833 410,432.5C 401.606,414.046 392.94,395.712 384,377.5C 383.793,373.911 383.293,370.411 382.5,367C 387.763,366.366 392.429,364.533 396.5,361.5 Z"/></g>
<g><path style="opacity:1" fill="#fec90d" d="M 404.5,425.5 C 406.808,429.497 408.141,433.83 408.5,438.5C 404.248,437.582 401.582,434.916 400.5,430.5C 401.857,428.814 403.19,427.148 404.5,425.5 Z"/></g>
<g><path style="opacity:1" fill="#c2c3c2" d="M 318.5,498.5 C 321.861,499.203 322.194,500.537 319.5,502.5C 317.358,501.563 317.024,500.23 318.5,498.5 Z"/></g>
<g><path style="opacity:1" fill="#c2c3c2" d="M 318.5,504.5 C 321.861,505.203 322.194,506.537 319.5,508.5C 317.358,507.563 317.024,506.23 318.5,504.5 Z"/></g>
<g><path style="opacity:1" fill="#c2c3c2" d="M 317.5,511.5 C 320.861,512.203 321.194,513.537 318.5,515.5C 316.358,514.563 316.024,513.23 317.5,511.5 Z"/></g>
</svg>
