<?xml version="1.0" encoding="UTF-8"?>
<!DOCTYPE svg PUBLIC "-//W3C//DTD SVG 1.1//EN" "http://www.w3.org/Graphics/SVG/1.1/DTD/svg11.dtd">
<svg xmlns="http://www.w3.org/2000/svg" version="1.1" width="257px" height="490px" style="shape-rendering:geometricPrecision; text-rendering:geometricPrecision; image-rendering:optimizeQuality; fill-rule:evenodd; clip-rule:evenodd" xmlns:xlink="http://www.w3.org/1999/xlink">
<g><path style="opacity:1" fill="#fefffe" d="M 112.5,45.5 C 115.777,45.2161 118.943,45.5495 122,46.5C 126.195,57.8876 131.195,68.8876 137,79.5C 137.494,81.1341 137.66,82.8008 137.5,84.5C 138.833,84.5 140.167,84.5 141.5,84.5C 141.665,88.1817 141.499,91.8484 141,95.5C 140.5,96 140,96.5 139.5,97C 144.868,115.306 149.535,133.806 153.5,152.5C 161.587,152.886 169.587,153.719 177.5,155C 181.547,162.385 187.047,168.552 194,173.5C 200.417,181.994 206.083,190.994 211,200.5C 211.667,205.833 211.667,211.167 211,216.5C 209.226,221.214 207.059,225.714 204.5,230C 206.206,232.572 208.039,235.072 210,237.5C 210.667,242.833 210.667,248.167 210,253.5C 208.536,254.459 207.703,255.792 207.5,257.5C 208.442,263.814 209.276,270.147 210,276.5C 221.604,304.576 228.604,333.576 231,363.5C 230.5,364 230,364.5 229.5,365C 223.167,365.667 216.833,365.667 210.5,365C 207.657,361.825 204.49,358.991 201,356.5C 198.617,357.766 195.95,358.432 193,358.5C 190.245,358.475 187.578,358.141 185,357.5C 178.677,331.208 172.51,304.874 166.5,278.5C 164.308,274.588 162.308,270.588 160.5,266.5C 149.364,278.613 140.364,292.113 133.5,307C 135.973,315.432 136.973,324.098 136.5,333C 136.313,344.181 135.813,355.347 135,366.5C 126.092,374.369 115.926,379.703 104.5,382.5C 100.14,382.234 95.8066,381.734 91.5,381C 90.3333,379.833 89.1667,378.667 88,377.5C 87.3333,373.833 87.3333,370.167 88,366.5C 91.9541,361.378 96.4541,356.711 101.5,352.5C 104.071,342.153 102.904,332.153 98,322.5C 96.4572,312.547 95.7905,302.547 96,292.5C 101.516,270.794 110.349,250.461 122.5,231.5C 119.734,225.105 117.901,218.438 117,211.5C 115.171,207.172 112.838,203.172 110,199.5C 104.803,202.682 99.3026,205.182 93.5,207C 91.208,208.29 89.208,209.957 87.5,212C 82.1667,212.667 76.8333,212.667 71.5,212C 69.3911,210.859 67.5578,209.359 66,207.5C 65.0991,199.421 65.4325,191.421 67,183.5C 70.8692,180.401 75.3692,178.901 80.5,179C 81.8333,176.667 83.1667,174.333 84.5,172C 89.165,170.019 93.3317,167.186 97,163.5C 96.2228,156.443 99.3895,153.11 106.5,153.5C 103.562,152.511 100.562,151.844 97.5,151.5C 97.467,142.692 96.6337,134.025 95,125.5C 94.1698,120.677 92.8365,116.011 91,111.5C 90.3333,107.5 90.3333,103.5 91,99.5C 98.2575,98.3418 105.424,96.6752 112.5,94.5C 112.961,89.6411 113.961,84.9744 115.5,80.5C 111.734,69.0244 110.734,57.3577 112.5,45.5 Z"/></g>
<g><path style="opacity:1" fill="#000000" d="M 114.5,47.5 C 116.467,47.2606 118.301,47.5939 120,48.5C 124.195,59.8876 129.195,70.8876 135,81.5C 135.494,83.1341 135.66,84.8008 135.5,86.5C 136.833,86.5 138.167,86.5 139.5,86.5C 140.1,90.5351 139.1,94.0351 136.5,97C 142.506,115.856 147.506,135.023 151.5,154.5C 159.528,156.146 167.528,156.979 175.5,157C 179.547,164.385 185.047,170.552 192,175.5C 198.417,183.994 204.083,192.994 209,202.5C 209.667,206.5 209.667,210.5 209,214.5C 206.737,219.603 204.237,224.603 201.5,229.5C 203.045,233.217 205.212,236.55 208,239.5C 208.667,243.5 208.667,247.5 208,251.5C 206.437,252.725 205.27,254.225 204.5,256C 206.176,263.408 207.342,270.908 208,278.5C 218.96,305.34 225.96,333.007 229,361.5C 228.5,362 228,362.5 227.5,363C 222.5,363.667 217.5,363.667 212.5,363C 209.325,359.492 205.825,356.325 202,353.5C 201.206,350.529 200.539,347.529 200,344.5C 199.586,344.043 199.086,343.709 198.5,343.5C 198.346,347.652 198.346,351.985 198.5,356.5C 194.563,356.793 190.73,356.46 187,355.5C 180.677,329.208 174.51,302.874 168.5,276.5C 166.19,272.746 164.357,268.746 163,264.5C 162.311,263.643 161.478,262.977 160.5,262.5C 148.39,274.768 138.89,288.768 132,304.5C 133.843,313.843 134.676,323.343 134.5,333C 134.235,343.511 133.735,354.011 133,364.5C 125.594,370.791 117.427,375.958 108.5,380C 103.47,380.414 98.4698,380.081 93.5,379C 89.7882,376.398 88.6215,372.898 90,368.5C 93.9541,363.378 98.4541,358.711 103.5,354.5C 106.582,342.74 105.416,331.407 100,320.5C 99.7504,313.411 98.917,306.411 97.5,299.5C 102.244,275.168 111.578,252.668 125.5,232C 122.171,224.851 120.004,217.351 119,209.5C 117.088,205.34 114.921,201.34 112.5,197.5C 111.635,196.417 110.635,196.251 109.5,197C 103.726,200.222 97.7256,202.888 91.5,205C 86.6358,210.26 80.6358,211.927 73.5,210C 71.3911,208.859 69.5578,207.359 68,205.5C 67.3333,199.833 67.3333,194.167 68,188.5C 68.3459,186.152 69.5125,184.319 71.5,183C 75.1141,182.055 78.7808,181.388 82.5,181C 83.8333,178.667 85.1667,176.333 86.5,174C 91.165,172.019 95.3317,169.186 99,165.5C 98.1368,158.196 101.303,155.196 108.5,156.5C 108.5,154.5 108.5,152.5 108.5,150.5C 105.455,150.492 102.455,150.159 99.5,149.5C 99.2108,145.894 99.5442,142.394 100.5,139C 99.7894,137.745 98.956,136.579 98,135.5C 97.9191,126.513 96.2525,117.847 93,109.5C 92.3333,106.833 92.3333,104.167 93,101.5C 101.798,100.435 110.298,98.2687 118.5,95C 116.081,93.3144 115.081,90.981 115.5,88C 115.957,85.443 116.624,82.943 117.5,80.5C 114.135,69.6395 113.135,58.6395 114.5,47.5 Z"/></g>
<g><path style="opacity:1" fill="#c2c3c2" d="M 116.5,51.5 C 120.155,62.6558 124.821,73.4891 130.5,84C 128.476,86.6397 128.143,89.473 129.5,92.5C 130.869,90.876 132.536,90.376 134.5,91C 132.465,95.3831 130.631,99.8831 129,104.5C 126.123,99.0221 122.957,93.6888 119.5,88.5C 119.667,88.1667 119.833,87.8333 120,87.5C 121.171,89.6157 122.671,90.2824 124.5,89.5C 123.687,88.1861 122.687,87.0195 121.5,86C 122.602,83.5991 122.769,81.0991 122,78.5C 120.001,69.5097 118.168,60.5097 116.5,51.5 Z"/></g>
<g><path style="opacity:1" fill="#242424" d="M 126.5,117.5 C 126.167,118.167 125.833,118.833 125.5,119.5C 122.792,123.139 119.626,126.473 116,129.5C 115.517,130.448 115.351,131.448 115.5,132.5C 113.124,131.183 111.457,131.85 110.5,134.5C 110.5,133.167 109.833,132.5 108.5,132.5C 106.801,132.66 105.134,132.494 103.5,132C 102.433,129.573 103.1,129.073 105.5,130.5C 106.833,129.833 108.167,129.167 109.5,128.5C 112.236,126.142 113.07,123.142 112,119.5C 109.539,115.2 106.206,111.867 102,109.5C 101.228,109.645 100.561,109.978 100,110.5C 99.5983,109.128 99.0983,107.795 98.5,106.5C 106.523,105.189 114.357,103.189 122,100.5C 123.353,101.685 124.52,103.019 125.5,104.5C 123.661,106.527 123.161,108.86 124,111.5C 128.544,112.316 129.377,114.316 126.5,117.5 Z"/></g>
<g><path style="opacity:1" fill="#b87a56" d="M 133.5,107.5 C 127.349,108.309 127.015,106.976 132.5,103.5C 133.429,104.689 133.762,106.022 133.5,107.5 Z"/></g>
<g><path style="opacity:1" fill="#a8816b" d="M 133.5,107.5 C 135.312,109.713 135.645,112.047 134.5,114.5C 133.737,113.732 132.737,113.232 131.5,113C 131.833,112.667 132.167,112.333 132.5,112C 131.692,111.692 131.025,111.192 130.5,110.5C 131.993,109.859 132.993,108.859 133.5,107.5 Z"/></g>
<g><path style="opacity:1" fill="#fec90d" d="M 109.5,128.5 C 108.167,129.167 106.833,129.833 105.5,130.5C 103.203,125.453 101.536,120.119 100.5,114.5C 100.865,113.098 101.699,112.098 103,111.5C 105.967,114.14 108.634,117.14 111,120.5C 111.428,123.322 110.928,125.988 109.5,128.5 Z"/></g>
<g><path style="opacity:1" fill="#c2c3c2" d="M 134.5,114.5 C 136.917,116.496 136.25,117.496 132.5,117.5C 132.285,115.821 132.952,114.821 134.5,114.5 Z"/></g>
<g><path style="opacity:1" fill="#fec90d" d="M 126.5,117.5 C 127.5,117.5 128.5,117.5 129.5,117.5C 129.935,119.703 129.935,121.703 129.5,123.5C 128.833,123.833 128.167,124.167 127.5,124.5C 127.204,122.597 126.537,120.93 125.5,119.5C 125.833,118.833 126.167,118.167 126.5,117.5 Z"/></g>
<g><path style="opacity:1" fill="#b87a56" d="M 133.5,118.5 C 134.833,118.5 136.167,118.5 137.5,118.5C 145.913,156.152 155.58,193.485 166.5,230.5C 165.017,232.946 163.851,232.612 163,229.5C 152.835,191.957 143.001,154.957 133.5,118.5 Z"/></g>
<g><path style="opacity:1" fill="#202020" d="M 129.5,123.5 C 130.117,123.611 130.617,123.944 131,124.5C 132.31,128.07 133.143,131.737 133.5,135.5C 130.357,135.969 128.023,137.636 126.5,140.5C 124.116,142.885 121.45,144.885 118.5,146.5C 117.732,147.263 117.232,148.263 117,149.5C 116.722,148.584 116.222,147.918 115.5,147.5C 111.833,147.5 108.167,147.5 104.5,147.5C 104.357,145.738 104.691,144.071 105.5,142.5C 109.122,141.675 112.789,141.175 116.5,141C 113.183,140.502 109.85,140.335 106.5,140.5C 106.527,138.801 107.194,137.467 108.5,136.5C 108.833,135.5 109.5,134.833 110.5,134.5C 112.824,135.833 114.491,135.166 115.5,132.5C 116.265,132.923 117.098,133.257 118,133.5C 122.372,131.625 125.539,128.625 127.5,124.5C 128.167,124.167 128.833,123.833 129.5,123.5 Z"/></g>
<g><path style="opacity:1" fill="#c59b17" d="M 125.5,119.5 C 126.537,120.93 127.204,122.597 127.5,124.5C 125.539,128.625 122.372,131.625 118,133.5C 117.098,133.257 116.265,132.923 115.5,132.5C 115.351,131.448 115.517,130.448 116,129.5C 119.626,126.473 122.792,123.139 125.5,119.5 Z"/></g>
<g><path style="opacity:1" fill="#fec90d" d="M 115.5,132.5 C 114.491,135.166 112.824,135.833 110.5,134.5C 111.457,131.85 113.124,131.183 115.5,132.5 Z"/></g>
<g><path style="opacity:1" fill="#fec90d" d="M 108.5,132.5 C 109.833,132.5 110.5,133.167 110.5,134.5C 109.5,134.833 108.833,135.5 108.5,136.5C 107.448,136.649 106.448,136.483 105.5,136C 106.365,134.641 107.365,133.474 108.5,132.5 Z"/></g>
<g><path style="opacity:1" fill="#fec90d" d="M 103.5,133.5 C 106.001,133.511 106.168,134.178 104,135.5C 103.536,134.906 103.369,134.239 103.5,133.5 Z"/></g>
<g><path style="opacity:1" fill="#3f291c" d="M 138.5,155.5 C 138.5,156.167 138.167,156.5 137.5,156.5C 136.167,156.5 134.833,156.5 133.5,156.5C 135.709,150.108 134.375,144.608 129.5,140C 130.927,137.631 132.761,137.131 135,138.5C 136.716,144.32 137.883,149.986 138.5,155.5 Z"/></g>
<g><path style="opacity:1" fill="#ec8f00" d="M 126.5,140.5 C 128.446,141.035 129.446,142.368 129.5,144.5C 126.886,145.938 124.386,147.605 122,149.5C 118.863,150.361 115.697,151.027 112.5,151.5C 112.586,150.504 112.252,149.671 111.5,149C 113.058,148.79 114.391,148.29 115.5,147.5C 116.222,147.918 116.722,148.584 117,149.5C 117.232,148.263 117.732,147.263 118.5,146.5C 121.45,144.885 124.116,142.885 126.5,140.5 Z"/></g>
<g><path style="opacity:1" fill="#ec9a77" d="M 129.5,144.5 C 131.387,145.768 132.387,147.601 132.5,150C 131.841,152.462 131.507,154.962 131.5,157.5C 133.355,157.272 134.188,157.939 134,159.5C 130.694,163.566 126.527,166.233 121.5,167.5C 116.436,165.981 116.77,164.814 122.5,164C 118.068,163.377 117.735,162.377 121.5,161C 118.46,160.404 115.794,159.237 113.5,157.5C 113.649,156.448 113.483,155.448 113,154.5C 112.111,155.888 111.611,155.722 111.5,154C 111.743,153.098 112.077,152.265 112.5,151.5C 115.697,151.027 118.863,150.361 122,149.5C 124.386,147.605 126.886,145.938 129.5,144.5 Z"/></g>
<g><path style="opacity:1" fill="#000000" d="M 118.5,146.5 C 119.167,146.5 119.833,146.5 120.5,146.5C 120.167,147.167 119.833,147.833 119.5,148.5C 118.662,148.158 118.328,147.492 118.5,146.5 Z"/></g>
<g><path style="opacity:1" fill="#fefffe" d="M 120.5,146.5 C 122.793,147.301 122.46,147.968 119.5,148.5C 119.833,147.833 120.167,147.167 120.5,146.5 Z"/></g>
<g><path style="opacity:1" fill="#fef200" d="M 138.5,155.5 C 140.109,156.665 140.443,157.999 139.5,159.5C 138.512,160.795 137.512,162.128 136.5,163.5C 135.167,166.167 135.167,168.833 136.5,171.5C 136.167,172.167 135.833,172.833 135.5,173.5C 133.744,172.448 133.077,170.781 133.5,168.5C 134.016,164.246 135.349,160.246 137.5,156.5C 138.167,156.5 138.5,156.167 138.5,155.5 Z"/></g>
<g><path style="opacity:1" fill="#bb1f1f" d="M 139.5,159.5 C 141.44,161.63 142.106,163.964 141.5,166.5C 140.564,167.974 139.23,168.974 137.5,169.5C 136.539,167.735 136.205,165.735 136.5,163.5C 137.512,162.128 138.512,160.795 139.5,159.5 Z"/></g>
<g><path style="opacity:1" fill="#fec90d" d="M 105.5,170.5 C 104.565,167.887 104.398,165.221 105,162.5C 105.561,161.978 106.228,161.645 107,161.5C 110.03,164.383 112.697,164.05 115,160.5C 115.5,161.5 116,162.5 116.5,163.5C 112.636,165.594 108.969,167.928 105.5,170.5 Z"/></g>
<g><path style="opacity:1" fill="#a8201c" d="M 163.5,166.5 C 159.849,165.341 156.515,163.674 153.5,161.5C 157.88,160.478 161.88,161.645 165.5,165C 164.956,165.717 164.289,166.217 163.5,166.5 Z"/></g>
<g><path style="opacity:1" fill="#fec90d" d="M 153.5,161.5 C 156.515,163.674 159.849,165.341 163.5,166.5C 163.631,167.376 163.298,168.043 162.5,168.5C 158.673,166.754 155.007,164.754 151.5,162.5C 151.957,161.702 152.624,161.369 153.5,161.5 Z"/></g>
<g><path style="opacity:1" fill="#fec90d" d="M 169.5,161.5 C 171.89,161.685 172.89,163.018 172.5,165.5C 171.573,169.636 169.573,170.302 166.5,167.5C 167.129,165.259 168.129,163.259 169.5,161.5 Z"/></g>
<g><path style="opacity:1" fill="#1d1f61" d="M 133.5,168.5 C 132.833,170.167 132.167,171.833 131.5,173.5C 129.246,172.876 127.579,171.543 126.5,169.5C 128.498,167.4 130.665,165.4 133,163.5C 133.494,165.134 133.66,166.801 133.5,168.5 Z"/></g>
<g><path style="opacity:1" fill="#000000" d="M 136.5,163.5 C 136.205,165.735 136.539,167.735 137.5,169.5C 137.167,170.167 136.833,170.833 136.5,171.5C 135.167,168.833 135.167,166.167 136.5,163.5 Z"/></g>
<g><path style="opacity:1" fill="#2121b7" d="M 121.5,182.5 C 118.731,184.663 118.898,186.663 122,188.5C 123.011,187.663 124.178,187.33 125.5,187.5C 127.134,188.207 128.468,189.373 129.5,191C 126.964,191.186 124.631,191.686 122.5,192.5C 121.375,193.348 121.375,194.348 122.5,195.5C 126.312,196.324 130.312,196.824 134.5,197C 135.381,197.708 136.047,198.542 136.5,199.5C 134.139,199.326 131.806,198.993 129.5,198.5C 128.726,197.853 127.726,197.52 126.5,197.5C 124.97,197.64 123.97,198.307 123.5,199.5C 123.953,200.458 124.619,201.292 125.5,202C 129.859,202.534 134.192,202.368 138.5,201.5C 140.404,201.738 141.738,202.738 142.5,204.5C 141.89,205.391 141.557,206.391 141.5,207.5C 143.631,208.314 145.964,208.814 148.5,209C 146.942,209.21 145.609,209.71 144.5,210.5C 143.71,211.401 142.71,212.068 141.5,212.5C 140.833,212.5 140.167,212.5 139.5,212.5C 137.383,211.986 135.216,211.653 133,211.5C 131.014,211.569 129.514,212.235 128.5,213.5C 130.969,214.317 133.635,214.817 136.5,215C 134.942,215.21 133.609,215.71 132.5,216.5C 132.5,217.167 132.167,217.5 131.5,217.5C 129.097,217.607 127.264,216.607 126,214.5C 124.188,204.547 120.021,195.881 113.5,188.5C 105.806,191.764 98.3056,195.431 91,199.5C 90.9796,194.075 89.9796,189.075 88,184.5C 88.3468,182.82 89.3468,181.82 91,181.5C 94.991,182.164 98.8243,183.331 102.5,185C 104.167,185.667 105.833,185.667 107.5,185C 108.731,183.817 108.731,182.651 107.5,181.5C 103.947,179.557 100.281,177.89 96.5,176.5C 99.0536,174.292 101.554,171.959 104,169.5C 104.383,170.056 104.883,170.389 105.5,170.5C 105.56,171.043 105.893,171.376 106.5,171.5C 109.533,169.302 112.7,167.302 116,165.5C 115.81,171.647 117.977,176.814 122.5,181C 121.944,181.383 121.611,181.883 121.5,182.5 Z"/></g>
<g><path style="opacity:1" fill="#fef200" d="M 141.5,166.5 C 142.625,167.348 142.625,168.348 141.5,169.5C 139.95,170.441 138.284,171.107 136.5,171.5C 136.833,170.833 137.167,170.167 137.5,169.5C 139.23,168.974 140.564,167.974 141.5,166.5 Z"/></g>
<g><path style="opacity:1" fill="#1e22c8" d="M 164.5,183.5 C 163.671,184.332 162.838,183.999 162,182.5C 161.333,183.833 161.333,185.167 162,186.5C 166.181,187.914 167.347,190.58 165.5,194.5C 169.043,196.158 169.209,197.825 166,199.5C 164.56,198.852 163.06,198.519 161.5,198.5C 158.65,188.339 155.65,178.006 152.5,167.5C 152.833,167.167 153.167,166.833 153.5,166.5C 156.167,167.833 158.833,169.167 161.5,170.5C 163.006,174.721 164.006,179.054 164.5,183.5 Z"/></g>
<g><path style="opacity:1" fill="#000000" d="M 133.5,168.5 C 133.077,170.781 133.744,172.448 135.5,173.5C 134.432,174.434 133.099,174.768 131.5,174.5C 131.5,174.167 131.5,173.833 131.5,173.5C 132.167,171.833 132.833,170.167 133.5,168.5 Z"/></g>
<g><path style="opacity:1" fill="#1e22c8" d="M 174.5,168.5 C 178.506,172.173 182.506,175.84 186.5,179.5C 185.833,182.167 185.167,184.833 184.5,187.5C 181.571,189.312 178.405,190.646 175,191.5C 166.921,187.522 164.088,181.189 166.5,172.5C 169.714,172.05 172.381,170.717 174.5,168.5 Z"/></g>
<g><path style="opacity:1" fill="#fefffe" d="M 118.5,169.5 C 119.675,169.281 120.675,169.614 121.5,170.5C 126.601,177.771 132.268,184.604 138.5,191C 142.974,193.973 147.307,197.14 151.5,200.5C 152.813,203.405 153.313,206.405 153,209.5C 137.985,199.094 126.485,185.761 118.5,169.5 Z"/></g>
<g><path style="opacity:1" fill="#fec90d" d="M 126.5,169.5 C 127.579,171.543 129.246,172.876 131.5,173.5C 131.5,173.833 131.5,174.167 131.5,174.5C 128.511,173.702 125.845,172.202 123.5,170C 124.448,169.517 125.448,169.351 126.5,169.5 Z"/></g>
<g><path style="opacity:1" fill="#231fa5" d="M 141.5,169.5 C 143.026,170.105 144.026,171.271 144.5,173C 142.618,173.198 140.952,173.698 139.5,174.5C 138.2,175.827 136.867,177.16 135.5,178.5C 135.957,179.298 136.624,179.631 137.5,179.5C 140.518,179.335 143.518,179.502 146.5,180C 144.942,180.21 143.609,180.71 142.5,181.5C 141.791,182.404 140.791,182.737 139.5,182.5C 138.508,182.328 137.842,182.662 137.5,183.5C 136.778,183.918 136.278,184.584 136,185.5C 133.688,182.354 131.188,179.354 128.5,176.5C 129.602,175.824 130.602,175.158 131.5,174.5C 133.099,174.768 134.432,174.434 135.5,173.5C 135.833,172.833 136.167,172.167 136.5,171.5C 138.284,171.107 139.95,170.441 141.5,169.5 Z"/></g>
<g><path style="opacity:1" fill="#fec90d" d="M 139.5,174.5 C 141.199,174.34 142.866,174.506 144.5,175C 137.872,176.787 138.206,177.787 145.5,178C 142.635,178.183 139.969,178.683 137.5,179.5C 136.624,179.631 135.957,179.298 135.5,178.5C 136.867,177.16 138.2,175.827 139.5,174.5 Z"/></g>
<g><path style="opacity:1" fill="#fef200" d="M 90.5,179.5 C 95.7914,178.569 100.791,179.736 105.5,183C 100.708,181.405 95.7079,180.238 90.5,179.5 Z"/></g>
<g><path style="opacity:1" fill="#fec90d" d="M 142.5,181.5 C 143.978,181.238 145.311,181.571 146.5,182.5C 144.027,183.797 141.693,183.797 139.5,182.5C 140.791,182.737 141.791,182.404 142.5,181.5 Z"/></g>
<g><path style="opacity:1" fill="#fef200" d="M 187.5,181.5 C 190.92,184.701 190.92,188.201 187.5,192C 183.229,194.504 178.896,195.171 174.5,194C 178.243,192.864 181.91,191.53 185.5,190C 187.179,187.435 187.846,184.602 187.5,181.5 Z"/></g>
<g><path style="opacity:1" fill="#fec90d" d="M 121.5,182.5 C 124.297,182.967 125.631,184.633 125.5,187.5C 124.178,187.33 123.011,187.663 122,188.5C 118.898,186.663 118.731,184.663 121.5,182.5 Z"/></g>
<g><path style="opacity:1" fill="#1e226f" d="M 164.5,183.5 C 166.767,186.271 169.267,188.938 172,191.5C 172.492,194.639 173.825,197.306 176,199.5C 177.845,200.05 179.345,201.05 180.5,202.5C 179.044,205.286 178.044,208.286 177.5,211.5C 172.388,209.778 167.721,207.278 163.5,204C 162.139,202.416 161.472,200.582 161.5,198.5C 163.06,198.519 164.56,198.852 166,199.5C 169.209,197.825 169.043,196.158 165.5,194.5C 167.347,190.58 166.181,187.914 162,186.5C 161.333,185.167 161.333,183.833 162,182.5C 162.838,183.999 163.671,184.332 164.5,183.5 Z"/></g>
<g><path style="opacity:1" fill="#fec90d" d="M 137.5,183.5 C 139.601,185.727 142.101,186.06 145,184.5C 146.376,184.684 147.209,185.351 147.5,186.5C 146.833,186.5 146.5,186.833 146.5,187.5C 144.833,187.5 143.167,187.5 141.5,187.5C 140.432,186.566 139.099,186.232 137.5,186.5C 137.5,185.5 137.5,184.5 137.5,183.5 Z"/></g>
<g><path style="opacity:1" fill="#ec1c23" d="M 79.5,203.5 C 83.3377,202.316 85.3377,199.649 85.5,195.5C 85.5466,193.962 84.8799,192.962 83.5,192.5C 83.5,190.5 82.5,189.5 80.5,189.5C 77.9548,188.549 77.9548,187.549 80.5,186.5C 82.8333,187.667 85.1667,188.833 87.5,190C 89.0668,193.892 88.7334,197.558 86.5,201C 84.1667,202.667 81.8333,204.333 79.5,206C 78.365,206.749 77.365,206.583 76.5,205.5C 77.6016,204.824 78.6016,204.158 79.5,203.5 Z"/></g>
<g><path style="opacity:1" fill="#231fa3" d="M 147.5,186.5 C 148.833,187.5 148.833,188.5 147.5,189.5C 147.167,188.833 146.833,188.167 146.5,187.5C 146.5,186.833 146.833,186.5 147.5,186.5 Z"/></g>
<g><path style="opacity:1" fill="#1e22c8" d="M 141.5,187.5 C 142.167,188.167 142.833,188.833 143.5,189.5C 141.571,189.769 139.905,189.269 138.5,188C 139.448,187.517 140.448,187.351 141.5,187.5 Z"/></g>
<g><path style="opacity:1" fill="#000000" d="M 141.5,187.5 C 143.167,187.5 144.833,187.5 146.5,187.5C 146.833,188.167 147.167,188.833 147.5,189.5C 146.167,189.5 144.833,189.5 143.5,189.5C 142.833,188.833 142.167,188.167 141.5,187.5 Z"/></g>
<g><path style="opacity:1" fill="#fef200" d="M 191.5,187.5 C 194.14,189.879 194.14,192.379 191.5,195C 187.927,196.371 184.427,197.871 181,199.5C 179.933,198.809 178.766,198.309 177.5,198C 181.217,196.82 184.884,195.487 188.5,194C 190.451,192.266 191.451,190.099 191.5,187.5 Z"/></g>
<g><path style="opacity:1" fill="#ed9b77" d="M 73.5,193.5 C 72.4649,188.019 73.4649,187.519 76.5,192C 75.7562,193.039 74.7562,193.539 73.5,193.5 Z"/></g>
<g><path style="opacity:1" fill="#fec90d" d="M 143.5,189.5 C 144.833,189.5 146.167,189.5 147.5,189.5C 148.463,190.363 148.463,191.03 147.5,191.5C 146.167,190.167 144.833,190.167 143.5,191.5C 142.537,191.03 142.537,190.363 143.5,189.5 Z"/></g>
<g><path style="opacity:1" fill="#e09271" d="M 80.5,189.5 C 82.5,189.5 83.5,190.5 83.5,192.5C 82.8832,195.355 81.8832,198.022 80.5,200.5C 79.1779,200.33 78.0113,200.663 77,201.5C 76.5357,200.906 76.369,200.239 76.5,199.5C 77.8333,197.833 77.8333,196.167 76.5,194.5C 78.2922,193.691 80.2922,193.191 82.5,193C 79.9973,192.871 77.9973,191.871 76.5,190C 77.7932,189.51 79.1266,189.343 80.5,189.5 Z"/></g>
<g><path style="opacity:1" fill="#fec90d" d="M 122.5,192.5 C 125.488,194.14 128.821,194.974 132.5,195C 129.183,195.498 125.85,195.665 122.5,195.5C 121.375,194.348 121.375,193.348 122.5,192.5 Z"/></g>
<g><path style="opacity:1" fill="#1e226f" d="M 145.5,193.5 C 146.708,192.218 148.042,192.218 149.5,193.5C 150.952,196.758 150.286,197.258 147.5,195C 147.833,194.667 148.167,194.333 148.5,194C 147.552,193.517 146.552,193.351 145.5,193.5 Z"/></g>
<g><path style="opacity:1" fill="#fef200" d="M 195.5,192.5 C 196.811,194.56 196.811,196.726 195.5,199C 191.372,201.066 187.039,201.732 182.5,201C 185.833,199.667 189.167,198.333 192.5,197C 194.141,195.871 195.141,194.371 195.5,192.5 Z"/></g>
<g><path style="opacity:1" fill="#ed9b77" d="M 73.5,193.5 C 74.209,194.404 75.209,194.737 76.5,194.5C 75.4479,196.256 73.7812,196.923 71.5,196.5C 71.2852,194.821 71.9519,193.821 73.5,193.5 Z"/></g>
<g><path style="opacity:1" fill="#ed9b77" d="M 76.5,199.5 C 74.712,199.785 73.0453,199.452 71.5,198.5C 72.3333,198.167 73.1667,197.833 74,197.5C 75.3756,197.684 76.2089,198.351 76.5,199.5 Z"/></g>
<g><path style="opacity:1" fill="#46120b" d="M 83.5,192.5 C 84.8799,192.962 85.5466,193.962 85.5,195.5C 85.3377,199.649 83.3377,202.316 79.5,203.5C 78.448,203.649 77.448,203.483 76.5,203C 78.0664,202.392 79.3998,201.558 80.5,200.5C 81.8832,198.022 82.8832,195.355 83.5,192.5 Z"/></g>
<g><path style="opacity:1" fill="#000000" d="M 129.5,198.5 C 127.379,198.325 125.379,198.659 123.5,199.5C 123.97,198.307 124.97,197.64 126.5,197.5C 127.726,197.52 128.726,197.853 129.5,198.5 Z"/></g>
<g><path style="opacity:1" fill="#fec90d" d="M 129.5,198.5 C 129.918,199.222 130.584,199.722 131.5,200C 129.793,200.195 128.126,200.195 126.5,200C 129.93,201.747 133.263,201.581 136.5,199.5C 137.5,199.833 138.167,200.5 138.5,201.5C 134.192,202.368 129.859,202.534 125.5,202C 124.619,201.292 123.953,200.458 123.5,199.5C 125.379,198.659 127.379,198.325 129.5,198.5 Z"/></g>
<g><path style="opacity:1" fill="#000000" d="M 129.5,198.5 C 131.806,198.993 134.139,199.326 136.5,199.5C 133.263,201.581 129.93,201.747 126.5,200C 128.126,200.195 129.793,200.195 131.5,200C 130.584,199.722 129.918,199.222 129.5,198.5 Z"/></g>
<g><path style="opacity:1" fill="#1f22bf" d="M 198.5,198.5 C 200.993,201.476 202.993,204.809 204.5,208.5C 201.464,216.238 197.631,223.571 193,230.5C 191.674,224.507 188.174,220.34 182.5,218C 185.167,214 188.5,210.667 192.5,208C 190.433,207.464 188.599,207.964 187,209.5C 186.365,208.034 185.531,206.7 184.5,205.5C 188.345,203.701 192.345,202.201 196.5,201C 197.381,200.292 198.047,199.458 198.5,198.5 Z"/></g>
<g><path style="opacity:1" fill="#ed9b77" d="M 71.5,200.5 C 72.9778,200.238 74.3112,200.571 75.5,201.5C 74.8333,201.833 74.1667,202.167 73.5,202.5C 72.2867,202.253 71.62,201.586 71.5,200.5 Z"/></g>
<g><path style="opacity:1" fill="#000000" d="M 131.5,205.5 C 128.433,205.121 127.433,206.121 128.5,208.5C 126.824,207.817 126.157,206.483 126.5,204.5C 128.415,204.216 130.081,204.549 131.5,205.5 Z"/></g>
<g><path style="opacity:1" fill="#fec90d" d="M 142.5,204.5 C 143.025,205.728 144.358,206.562 146.5,207C 144.866,207.494 143.199,207.66 141.5,207.5C 141.557,206.391 141.89,205.391 142.5,204.5 Z"/></g>
<g><path style="opacity:1" fill="#fec90d" d="M 131.5,205.5 C 133.715,206.268 136.048,206.935 138.5,207.5C 135.375,208.479 132.042,208.813 128.5,208.5C 127.433,206.121 128.433,205.121 131.5,205.5 Z"/></g>
<g><path style="opacity:1" fill="#cfcfcf" d="M 167.5,209.5 C 167.167,210.5 166.5,211.167 165.5,211.5C 162.497,206.144 163.164,205.477 167.5,209.5 Z"/></g>
<g><path style="opacity:1" fill="#000000" d="M 138.5,207.5 C 139.043,207.56 139.376,207.893 139.5,208.5C 135.685,209.808 132.019,209.808 128.5,208.5C 132.042,208.813 135.375,208.479 138.5,207.5 Z"/></g>
<g><path style="opacity:1" fill="#fec90d" d="M 167.5,209.5 C 168.5,209.833 169.167,210.5 169.5,211.5C 168.167,212.167 167.167,213.167 166.5,214.5C 165.596,213.791 165.263,212.791 165.5,211.5C 166.5,211.167 167.167,210.5 167.5,209.5 Z"/></g>
<g><path style="opacity:1" fill="#967719" d="M 144.5,210.5 C 146.527,210.338 148.527,210.505 150.5,211C 151.252,211.671 151.586,212.504 151.5,213.5C 151.5,213.833 151.5,214.167 151.5,214.5C 147.985,215.239 144.652,215.239 141.5,214.5C 141.5,213.833 141.5,213.167 141.5,212.5C 142.71,212.068 143.71,211.401 144.5,210.5 Z"/></g>
<g><path style="opacity:1" fill="#fec90d" d="M 139.5,212.5 C 139.5,213.167 139.5,213.833 139.5,214.5C 135.901,213.656 132.234,213.323 128.5,213.5C 129.514,212.235 131.014,211.569 133,211.5C 135.216,211.653 137.383,211.986 139.5,212.5 Z"/></g>
<g><path style="opacity:1" fill="#f1f1f1" d="M 169.5,211.5 C 177.752,212.424 178.586,215.424 172,220.5C 169.273,219.241 167.439,217.241 166.5,214.5C 167.167,213.167 168.167,212.167 169.5,211.5 Z"/></g>
<g><path style="opacity:1" fill="#000000" d="M 139.5,212.5 C 140.167,212.5 140.833,212.5 141.5,212.5C 141.5,213.167 141.5,213.833 141.5,214.5C 140.833,214.5 140.167,214.5 139.5,214.5C 139.5,213.833 139.5,213.167 139.5,212.5 Z"/></g>
<g><path style="opacity:1" fill="#1e22c8" d="M 153.5,214.5 C 152.833,214.5 152.167,214.5 151.5,214.5C 151.5,214.167 151.5,213.833 151.5,213.5C 153.838,211.989 154.504,212.323 153.5,214.5 Z"/></g>
<g><path style="opacity:1" fill="#000000" d="M 128.5,213.5 C 132.234,213.323 135.901,213.656 139.5,214.5C 139.5,215.167 139.5,215.833 139.5,216.5C 137.167,216.5 134.833,216.5 132.5,216.5C 133.609,215.71 134.942,215.21 136.5,215C 133.635,214.817 130.969,214.317 128.5,213.5 Z"/></g>
<g><path style="opacity:1" fill="#ec1c23" d="M 179.5,213.5 C 181.212,216.824 180.212,218.657 176.5,219C 177.971,217.417 178.971,215.583 179.5,213.5 Z"/></g>
<g><path style="opacity:1" fill="#231a78" d="M 139.5,214.5 C 140.167,214.5 140.833,214.5 141.5,214.5C 144.652,215.239 147.985,215.239 151.5,214.5C 152.167,214.5 152.833,214.5 153.5,214.5C 152.833,215.167 152.167,215.833 151.5,216.5C 149.901,216.232 148.568,216.566 147.5,217.5C 146.833,217.5 146.167,217.5 145.5,217.5C 144.833,217.5 144.167,217.5 143.5,217.5C 141.901,217.768 140.568,217.434 139.5,216.5C 139.5,215.833 139.5,215.167 139.5,214.5 Z"/></g>
<g><path style="opacity:1" fill="#fec90d" d="M 153.5,214.5 C 157.462,216.979 156.796,218.312 151.5,218.5C 151.918,217.778 152.584,217.278 153.5,217C 152.906,216.536 152.239,216.369 151.5,216.5C 152.167,215.833 152.833,215.167 153.5,214.5 Z"/></g>
<g><path style="opacity:1" fill="#be9518" d="M 132.5,216.5 C 134.833,216.5 137.167,216.5 139.5,216.5C 140.568,217.434 141.901,217.768 143.5,217.5C 143.5,217.833 143.5,218.167 143.5,218.5C 142.791,219.404 141.791,219.737 140.5,219.5C 137.813,219.664 135.146,219.497 132.5,219C 131.944,218.617 131.611,218.117 131.5,217.5C 132.167,217.5 132.5,217.167 132.5,216.5 Z"/></g>
<g><path style="opacity:1" fill="#000000" d="M 143.5,218.5 C 143.5,218.167 143.5,217.833 143.5,217.5C 144.167,217.5 144.833,217.5 145.5,217.5C 145.5,218.167 145.5,218.833 145.5,219.5C 144.833,219.167 144.167,218.833 143.5,218.5 Z"/></g>
<g><path style="opacity:1" fill="#fec90d" d="M 145.5,217.5 C 146.167,217.5 146.833,217.5 147.5,217.5C 148.568,218.434 149.901,218.768 151.5,218.5C 149.735,219.461 147.735,219.795 145.5,219.5C 145.5,218.833 145.5,218.167 145.5,217.5 Z"/></g>
<g><path style="opacity:1" fill="#271f0e" d="M 151.5,216.5 C 152.239,216.369 152.906,216.536 153.5,217C 152.584,217.278 151.918,217.778 151.5,218.5C 149.901,218.768 148.568,218.434 147.5,217.5C 148.568,216.566 149.901,216.232 151.5,216.5 Z"/></g>
<g><path style="opacity:1" fill="#ec1c23" d="M 126.5,218.5 C 127.973,219.072 129.307,219.905 130.5,221C 128.055,221.91 126.722,221.076 126.5,218.5 Z"/></g>
<g><path style="opacity:1" fill="#1e22c8" d="M 143.5,218.5 C 144.167,218.833 144.833,219.167 145.5,219.5C 143.833,220.833 142.167,220.833 140.5,219.5C 141.791,219.737 142.791,219.404 143.5,218.5 Z"/></g>
<g><path style="opacity:1" fill="#e31d23" d="M 143.5,228.5 C 137.077,229.702 131.743,227.869 127.5,223C 132.599,222.429 137.599,222.929 142.5,224.5C 143.833,224.333 145.167,224.167 146.5,224C 144.167,223.667 141.833,223.333 139.5,223C 145.295,223.041 150.795,221.875 156,219.5C 156.692,220.025 157.192,220.692 157.5,221.5C 146.855,225.688 147.188,226.355 158.5,223.5C 158.643,225.262 158.309,226.929 157.5,228.5C 152.682,229.812 148.015,229.812 143.5,228.5 Z"/></g>
<g><path style="opacity:1" fill="#fec90d" d="M 191.5,234.5 C 190.833,234.833 190.167,235.167 189.5,235.5C 189.302,227.472 185.302,222.639 177.5,221C 179.695,219.627 182.029,219.294 184.5,220C 189.935,223.369 192.268,228.202 191.5,234.5 Z"/></g>
<g><path style="opacity:1" fill="#ec1c23" d="M 167.5,220.5 C 169.094,220.92 170.594,221.586 172,222.5C 173.473,222.097 174.806,221.43 176,220.5C 174.869,222.814 173.036,224.814 170.5,226.5C 168.447,225.061 167.447,223.061 167.5,220.5 Z"/></g>
<g><path style="opacity:1" fill="#ec1c23" d="M 177.5,224.5 C 174.894,225.85 174.894,227.35 177.5,229C 176.906,229.464 176.239,229.631 175.5,229.5C 172.982,227.643 172.982,225.81 175.5,224C 176.437,223.308 177.103,223.475 177.5,224.5 Z"/></g>
<g><path style="opacity:1" fill="#fec90d" d="M 181.5,227.5 C 180.833,227.5 180.5,227.833 180.5,228.5C 178.158,228.225 178.158,227.392 180.5,226C 179.551,225.383 178.718,225.549 178,226.5C 177.536,225.906 177.369,225.239 177.5,224.5C 179.455,223.677 181.455,223.51 183.5,224C 182.177,224.816 181.511,225.983 181.5,227.5 Z"/></g>
<g><path style="opacity:1" fill="#d5191f" d="M 182.5,234.5 C 183.779,235.715 184.779,235.382 185.5,233.5C 186.75,233.423 187.583,232.756 188,231.5C 188.49,232.793 188.657,234.127 188.5,235.5C 185.564,237.255 182.731,239.255 180,241.5C 179.873,239.366 180.039,237.199 180.5,235C 180.646,232.966 179.98,231.299 178.5,230C 179.416,229.722 180.082,229.222 180.5,228.5C 180.5,227.833 180.833,227.5 181.5,227.5C 182.458,227.047 183.292,226.381 184,225.5C 184.833,226.333 185.667,227.167 186.5,228C 182.228,228.713 180.895,230.88 182.5,234.5 Z"/></g>
<g><path style="opacity:1" fill="#000000" d="M 143.5,228.5 C 143.918,227.778 144.584,227.278 145.5,227C 148.167,226.333 150.833,226.333 153.5,227C 150.146,227.455 146.813,227.955 143.5,228.5 Z"/></g>
<g><path style="opacity:1" fill="#ec9a77" d="M 175.5,229.5 C 178.33,231.362 179.163,234.029 178,237.5C 176.944,241.796 174.778,245.296 171.5,248C 169.5,248.667 167.5,248.667 165.5,248C 167.608,247.64 169.608,246.973 171.5,246C 169.821,245.605 168.155,245.772 166.5,246.5C 165.263,246.444 164.263,245.944 163.5,245C 165.9,244.814 168.234,244.314 170.5,243.5C 170.333,243.167 170.167,242.833 170,242.5C 166.782,244.103 163.949,243.603 161.5,241C 164.882,240.824 168.215,240.324 171.5,239.5C 171.333,239.167 171.167,238.833 171,238.5C 167.927,239.617 164.76,239.784 161.5,239C 160.663,237.989 160.33,236.822 160.5,235.5C 166.826,237.159 169.826,234.826 169.5,228.5C 171.565,228.517 173.565,228.85 175.5,229.5 Z"/></g>
<g><path style="opacity:1" fill="#7c7cad" d="M 161.5,245.5 C 158.43,245.632 155.43,245.299 152.5,244.5C 152.508,238.792 152.008,238.459 151,243.5C 145.411,241.045 145.245,241.378 150.5,244.5C 151.429,245.689 151.762,247.022 151.5,248.5C 149.02,247.088 146.687,245.422 144.5,243.5C 143.628,245.466 143.795,247.466 145,249.5C 150.813,252.618 150.313,254.952 143.5,256.5C 138.195,261.634 132.695,266.634 127,271.5C 126.333,272.167 126.333,272.833 127,273.5C 133.908,268.295 141.074,263.462 148.5,259C 150.422,257.58 151.755,255.747 152.5,253.5C 153.288,254.77 154.288,255.77 155.5,256.5C 147.579,267.083 139.745,277.749 132,288.5C 131.236,292.905 129.569,296.905 127,300.5C 126.501,304.821 126.334,309.154 126.5,313.5C 122.036,317.682 117.869,317.349 114,312.5C 113.996,314.368 114.496,316.202 115.5,318C 114.309,322.411 111.642,323.578 107.5,321.5C 106.59,319.981 105.757,318.315 105,316.5C 104.952,310.686 104.119,305.019 102.5,299.5C 108.55,275.868 118.383,253.868 132,233.5C 132.684,232.216 132.517,231.049 131.5,230C 133.107,230.019 134.774,230.185 136.5,230.5C 136.336,233.187 136.503,235.854 137,238.5C 137.236,236.236 137.736,234.069 138.5,232C 144.599,232.353 150.599,232.186 156.5,231.5C 156.351,232.552 156.517,233.552 157,234.5C 157.667,232.5 158.333,230.5 159,228.5C 159.402,229.872 159.902,231.205 160.5,232.5C 159.16,233.688 158.493,235.188 158.5,237C 159.021,240.066 160.021,242.899 161.5,245.5 Z"/></g>
<g><path style="opacity:1" fill="#fec90d" d="M 185.5,233.5 C 184.391,233.557 183.391,233.89 182.5,234.5C 182.495,231 184.162,229.5 187.5,230C 186.695,231.113 186.028,232.279 185.5,233.5 Z"/></g>
<g><path style="opacity:1" fill="#fec90d" d="M 195.5,235.5 C 193.167,238.5 190.5,241.167 187.5,243.5C 186.5,243.167 185.833,242.5 185.5,241.5C 188.908,240.422 190.908,238.089 191.5,234.5C 193.624,233.969 195.124,232.635 196,230.5C 196.384,232.197 196.218,233.863 195.5,235.5 Z"/></g>
<g><path style="opacity:1" fill="#000000" d="M 185.5,233.5 C 184.779,235.382 183.779,235.715 182.5,234.5C 183.391,233.89 184.391,233.557 185.5,233.5 Z"/></g>
<g><path style="opacity:1" fill="#000000" d="M 191.5,234.5 C 190.908,238.089 188.908,240.422 185.5,241.5C 187.252,239.754 188.585,237.754 189.5,235.5C 190.167,235.167 190.833,234.833 191.5,234.5 Z"/></g>
<g><path style="opacity:1" fill="#c81f20" d="M 200.5,242.5 C 199.5,248.167 196.167,251.5 190.5,252.5C 189.503,252.53 188.836,252.03 188.5,251C 187.359,248.377 187.026,245.877 187.5,243.5C 190.5,241.167 193.167,238.5 195.5,235.5C 196.117,235.389 196.617,235.056 197,234.5C 198.445,237.09 199.612,239.757 200.5,242.5 Z"/></g>
<g><path style="opacity:1" fill="#fec90d" d="M 188.5,235.5 C 188.833,235.5 189.167,235.5 189.5,235.5C 188.585,237.754 187.252,239.754 185.5,241.5C 184.957,241.44 184.624,241.107 184.5,240.5C 185.857,238.814 187.19,237.148 188.5,235.5 Z"/></g>
<g><path style="opacity:1" fill="#000000" d="M 152.5,244.5 C 152.663,246.857 152.497,249.19 152,251.5C 151.517,250.552 151.351,249.552 151.5,248.5C 151.762,247.022 151.429,245.689 150.5,244.5C 145.245,241.378 145.411,241.045 151,243.5C 152.008,238.459 152.508,238.792 152.5,244.5 Z"/></g>
<g><path style="opacity:1" fill="#900c10" d="M 181.5,241.5 C 183.379,241.393 183.712,241.893 182.5,243C 181.167,243.667 179.833,243.667 178.5,243C 179.737,242.768 180.737,242.268 181.5,241.5 Z"/></g>
<g><path style="opacity:1" fill="#fec90d" d="M 200.5,242.5 C 201.492,242.328 202.158,242.662 202.5,243.5C 200.192,249.141 196.192,253.141 190.5,255.5C 187.902,254.472 187.902,253.472 190.5,252.5C 196.167,251.5 199.5,248.167 200.5,242.5 Z"/></g>
<g><path style="opacity:1" fill="#5b5c96" d="M 151.5,248.5 C 151.351,249.552 151.517,250.552 152,251.5C 152.497,249.19 152.663,246.857 152.5,244.5C 155.43,245.299 158.43,245.632 161.5,245.5C 162.208,247.378 163.374,249.045 165,250.5C 165.364,253.738 166.03,256.738 167,259.5C 164.589,257.422 161.922,255.755 159,254.5C 157.697,254.978 156.531,255.645 155.5,256.5C 154.288,255.77 153.288,254.77 152.5,253.5C 151.755,255.747 150.422,257.58 148.5,259C 141.074,263.462 133.908,268.295 127,273.5C 126.333,272.833 126.333,272.167 127,271.5C 132.695,266.634 138.195,261.634 143.5,256.5C 150.313,254.952 150.813,252.618 145,249.5C 143.795,247.466 143.628,245.466 144.5,243.5C 146.687,245.422 149.02,247.088 151.5,248.5 Z"/></g>
<g><path style="opacity:1" fill="#7979ac" d="M 210.5,334.5 C 210.387,331.951 211.054,329.618 212.5,327.5C 209.465,327.002 206.965,325.668 205,323.5C 203.574,326.861 201.407,327.361 198.5,325C 197.809,323.933 197.309,322.766 197,321.5C 196.617,322.056 196.117,322.389 195.5,322.5C 193.383,317.37 191.883,312.036 191,306.5C 188.963,300.987 186.63,295.653 184,290.5C 181.552,276.658 178.385,262.991 174.5,249.5C 176.234,245.333 179.401,243.333 184,243.5C 185.82,249.769 187.32,256.103 188.5,262.5C 192.505,262.443 196.005,261.11 199,258.5C 201.06,266.363 202.393,274.363 203,282.5C 209.14,297.42 213.973,312.753 217.5,328.5C 216.398,331.935 214.065,333.935 210.5,334.5 Z"/></g>
<g><path style="opacity:1" fill="#b71f1e" d="M 202.5,243.5 C 203.613,244.946 203.78,246.613 203,248.5C 200.072,250.418 198.406,253.085 198,256.5C 195.96,258.353 193.627,259.686 191,260.5C 189.481,258.861 189.314,257.194 190.5,255.5C 196.192,253.141 200.192,249.141 202.5,243.5 Z"/></g>
<g><path style="opacity:1" fill="#b87a56" d="M 168.5,250.5 C 171.645,251.077 173.145,253.077 173,256.5C 179.931,288.056 187.097,319.556 194.5,351C 193.99,352.826 193.156,352.993 192,351.5C 184.005,317.856 176.172,284.189 168.5,250.5 Z"/></g>
<g><path style="opacity:1" fill="#000000" d="M 143.5,256.5 C 139.863,257.497 136.196,257.997 132.5,258C 136.231,256.292 139.898,255.792 143.5,256.5 Z"/></g>
<g><path style="opacity:1" fill="#5b5c96" d="M 145.5,265.5 C 146.239,265.369 146.906,265.536 147.5,266C 144.181,270.586 140.514,274.919 136.5,279C 133,281.833 129.5,284.667 126,287.5C 124.211,287.623 122.378,287.623 120.5,287.5C 123.678,282.049 128.344,278.215 134.5,276C 138.624,272.945 142.291,269.445 145.5,265.5 Z"/></g>
<g><path style="opacity:1" fill="#000000" d="M 208.5,308.5 C 209.765,312.849 209.265,317.182 207,321.5C 206.626,320.584 206.126,319.75 205.5,319C 207.042,315.666 208.042,312.166 208.5,308.5 Z"/></g>
<g><path style="opacity:1" fill="#5b5c96" d="M 126.5,313.5 C 129.371,323.168 130.204,333.168 129,343.5C 127.607,349.105 123.94,351.439 118,350.5C 114.948,350.636 112.114,349.969 109.5,348.5C 110.739,346.689 111.406,344.689 111.5,342.5C 110.42,335.432 109.086,328.432 107.5,321.5C 111.642,323.578 114.309,322.411 115.5,318C 114.496,316.202 113.996,314.368 114,312.5C 117.869,317.349 122.036,317.682 126.5,313.5 Z"/></g>
<g><path style="opacity:1" fill="#5b5c96" d="M 210.5,334.5 C 207.583,338.119 203.916,339.119 199.5,337.5C 198.416,332.403 197.083,327.403 195.5,322.5C 196.117,322.389 196.617,322.056 197,321.5C 197.309,322.766 197.809,323.933 198.5,325C 201.407,327.361 203.574,326.861 205,323.5C 206.965,325.668 209.465,327.002 212.5,327.5C 211.054,329.618 210.387,331.951 210.5,334.5 Z"/></g>
<g><path style="opacity:1" fill="#252525" d="M 216.5,333.5 C 217.5,333.5 218.5,333.5 219.5,333.5C 220.011,337.03 219.344,340.196 217.5,343C 218.416,343.374 219.25,343.874 220,344.5C 221.503,348.172 223.003,351.838 224.5,355.5C 224.099,357.947 222.599,358.947 220,358.5C 215.174,356.362 210.841,353.362 207,349.5C 205.617,346.312 205.451,343.146 206.5,340C 210.411,338.556 213.744,336.389 216.5,333.5 Z"/></g>
<g><path style="opacity:1" fill="#242424" d="M 124.5,351.5 C 125.833,351.5 127.167,351.5 128.5,351.5C 128.665,354.518 128.498,357.518 128,360.5C 120.34,367.052 111.673,371.719 102,374.5C 96.1813,374.747 94.848,372.747 98,368.5C 101.841,364.327 106.007,360.493 110.5,357C 113.711,355.847 117.044,355.18 120.5,355C 117.3,354.899 114.3,354.232 111.5,353C 116.019,352.825 120.353,352.325 124.5,351.5 Z"/></g>
</svg>
