<?xml version="1.0" encoding="UTF-8"?>
<!DOCTYPE svg PUBLIC "-//W3C//DTD SVG 1.1//EN" "http://www.w3.org/Graphics/SVG/1.1/DTD/svg11.dtd">
<svg xmlns="http://www.w3.org/2000/svg" version="1.1" width="539px" height="755px" style="shape-rendering:geometricPrecision; text-rendering:geometricPrecision; image-rendering:optimizeQuality; fill-rule:evenodd; clip-rule:evenodd" xmlns:xlink="http://www.w3.org/1999/xlink">
<g><path style="opacity:1" fill="#fefffe" d="M 314.5,32.5 C 319.844,32.334 325.177,32.5006 330.5,33C 331.333,33.8333 332.167,34.6667 333,35.5C 333.333,39.1667 333.667,42.8333 334,46.5C 340.606,59.3775 346.939,72.3775 353,85.5C 356.093,92.8714 358.093,100.538 359,108.5C 361.531,110.965 363.031,113.965 363.5,117.5C 378.085,115.724 392.751,115.058 407.5,115.5C 407.666,123.507 407.5,131.507 407,139.5C 405.147,144.288 403.981,149.288 403.5,154.5C 404.211,164.859 405.378,175.193 407,185.5C 407.667,186.833 408.333,188.167 409,189.5C 409.5,199.161 409.666,208.828 409.5,218.5C 411.39,218.297 412.89,218.963 414,220.5C 414.889,225.931 415.889,231.264 417,236.5C 416.419,230.826 418.586,226.659 423.5,224C 427.716,222.796 432.049,222.13 436.5,222C 440.155,219.951 444.155,219.117 448.5,219.5C 455.585,218.798 461.751,220.798 467,225.5C 468.195,229.751 468.695,234.085 468.5,238.5C 477.839,238.334 487.173,238.5 496.5,239C 498.523,242.73 500.356,246.563 502,250.5C 502.786,260.207 502.453,269.874 501,279.5C 499.789,282.759 497.956,285.592 495.5,288C 491.472,288.392 487.472,288.892 483.5,289.5C 486.212,306.719 487.045,324.052 486,341.5C 484.066,348.637 481.732,355.637 479,362.5C 477.207,365.295 475.04,367.795 472.5,370C 462.464,371.301 452.798,373.968 443.5,378C 444.167,378.667 444.833,379.333 445.5,380C 450.853,380.908 456.187,381.908 461.5,383C 465.846,385.148 468.679,388.648 470,393.5C 472.22,410.103 472.887,426.769 472,443.5C 471.5,444 471,444.5 470.5,445C 464.96,445.764 459.46,445.597 454,444.5C 448.872,445.259 443.705,445.759 438.5,446C 437.794,450.579 436.627,455.079 435,459.5C 434.81,465.416 434.31,471.249 433.5,477C 434.681,515.135 436.514,553.301 439,591.5C 440.594,603.66 442.094,615.827 443.5,628C 441.414,635.826 440.247,643.993 440,652.5C 437.795,655.04 435.295,657.207 432.5,659C 418.871,660.123 405.371,659.29 392,656.5C 389.815,656.921 387.649,657.421 385.5,658C 385.454,662.428 383.621,665.928 380,668.5C 379.506,670.134 379.34,671.801 379.5,673.5C 364.308,677.572 348.975,681.072 333.5,684C 322.5,684.667 311.5,684.667 300.5,684C 298.185,682.891 296.685,681.057 296,678.5C 295.333,673.833 295.333,669.167 296,664.5C 303.865,661.151 311.365,657.151 318.5,652.5C 319.318,649.893 319.818,647.226 320,644.5C 322.667,641.833 325.333,639.167 328,636.5C 330.86,575.511 333.36,514.511 335.5,453.5C 334.33,436.099 332.663,418.766 330.5,401.5C 330.149,393.569 331.983,386.236 336,379.5C 336.965,374.507 337.798,369.507 338.5,364.5C 337.552,359.565 337.219,354.565 337.5,349.5C 332.204,348.685 327.537,346.519 323.5,343C 315.333,335.5 307.167,328 299,320.5C 293.833,325.667 288.667,330.833 283.5,336C 280.785,337.908 277.785,339.241 274.5,340C 261.238,341.217 248.238,339.884 235.5,336C 225.742,328.031 218.242,318.197 213,306.5C 207.7,290.298 202.866,273.964 198.5,257.5C 196,257.167 193.5,256.833 191,256.5C 167.527,258.915 144.027,259.082 120.5,257C 119.684,253.731 118.684,250.564 117.5,247.5C 78.4659,246.705 39.4659,245.372 0.5,243.5C 0.5,239.833 0.5,236.167 0.5,232.5C 38.8312,224.709 77.4979,219.542 116.5,217C 120.796,218.815 124.796,221.148 128.5,224C 183.518,224.992 238.518,226.492 293.5,228.5C 293.394,224.203 295.061,220.87 298.5,218.5C 298.997,211.165 302.83,208.165 310,209.5C 317.791,208.291 321.458,211.625 321,219.5C 322.905,221.424 324.072,223.757 324.5,226.5C 329.412,227.978 334.412,228.978 339.5,229.5C 338.121,226.053 337.454,222.386 337.5,218.5C 337.559,216.109 337.893,213.775 338.5,211.5C 335.215,210.676 331.882,210.176 328.5,210C 328,209.5 327.5,209 327,208.5C 326.333,204.167 326.333,199.833 327,195.5C 330.379,192.215 331.379,188.215 330,183.5C 329.333,182.833 328.667,182.167 328,181.5C 328.186,173.791 326.853,166.458 324,159.5C 323.503,157.19 323.337,154.857 323.5,152.5C 322.127,152.657 320.793,152.49 319.5,152C 316.943,149.108 314.776,145.941 313,142.5C 308.954,107.179 305.954,71.8454 304,36.5C 307.284,34.3843 310.784,33.0509 314.5,32.5 Z M 232.5,256.5 C 235.833,256.5 239.167,256.5 242.5,256.5C 242.545,260.346 243.378,264.013 245,267.5C 248.167,270.667 251.333,273.833 254.5,277C 258.577,278.787 262.41,280.954 266,283.5C 266.333,286.167 266.667,288.833 267,291.5C 269.988,294.323 272.822,297.323 275.5,300.5C 272.737,306.707 268.57,311.707 263,315.5C 254.302,313.467 247.969,308.467 244,300.5C 238.078,286.397 234.245,271.731 232.5,256.5 Z"/></g>
<g><path style="opacity:1" fill="#000000" d="M 344.5,232.5 C 343.005,227.918 341.672,223.251 340.5,218.5C 341.33,214.851 341.996,211.185 342.5,207.5C 338.818,207.665 335.152,207.499 331.5,207C 329.522,204.503 329.022,201.669 330,198.5C 332.111,196.898 333.611,194.898 334.5,192.5C 333.803,188.529 333.303,184.529 333,180.5C 329.624,176.727 329.791,173.061 333.5,169.5C 332.185,167.684 330.685,166.017 329,164.5C 327.55,159.601 326.716,154.601 326.5,149.5C 323.675,149.919 321.509,148.919 320,146.5C 316.939,142.71 315.272,138.377 315,133.5C 312.353,103.763 309.52,74.0958 306.5,44.5C 306.288,41.9886 306.955,39.8219 308.5,38C 314.694,35.9473 321.027,35.2806 327.5,36C 330.607,39.1705 331.274,42.8371 329.5,47C 336.733,60.633 343.566,74.4663 350,88.5C 353.247,99.3098 356.414,109.976 359.5,120.5C 374.454,118.946 389.454,118.279 404.5,118.5C 405.139,126.429 404.306,134.096 402,141.5C 400.544,157.223 401.211,172.889 404,188.5C 404.667,189.833 405.333,191.167 406,192.5C 406.693,202.189 406.527,211.856 405.5,221.5C 407.722,221.178 409.556,221.845 411,223.5C 412.161,228.416 412.827,233.416 413,238.5C 415.192,239.399 417.358,240.399 419.5,241.5C 420.321,238.553 420.821,235.553 421,232.5C 425.481,226.238 431.648,223.738 439.5,225C 448.368,220.922 456.535,222.089 464,228.5C 465.225,233.085 465.725,237.752 465.5,242.5C 475.054,241.292 484.554,241.292 494,242.5C 499.8,253.225 501.133,264.559 498,276.5C 496.789,279.759 494.956,282.592 492.5,285C 487.399,285.288 482.399,286.122 477.5,287.5C 479.897,291.523 481.397,295.856 482,300.5C 486.04,321.655 483.707,341.988 475,361.5C 473.167,363.333 471.333,365.167 469.5,367C 459.258,368.561 449.258,371.061 439.5,374.5C 439.415,377.747 440.415,380.581 442.5,383C 447.853,383.908 453.187,384.908 458.5,386C 462.846,388.148 465.679,391.648 467,396.5C 469.108,411.103 469.775,425.77 469,440.5C 463.761,443.238 458.595,442.905 453.5,439.5C 450.644,441.914 447.31,442.914 443.5,442.5C 441.5,442.333 439.5,442.167 437.5,442C 437,441.5 436.5,441 436,440.5C 435.035,445.923 433.701,451.256 432,456.5C 431.278,474.037 430.778,491.537 430.5,509C 432.614,537.421 434.447,565.921 436,594.5C 437.313,605.692 438.813,616.859 440.5,628C 440.333,629.5 440.167,631 440,632.5C 438.391,633.147 436.891,633.98 435.5,635C 439.856,643.991 437.856,650.991 429.5,656C 417.087,657.272 404.92,656.105 393,652.5C 389.502,653.333 386.002,654.166 382.5,655C 382.454,659.428 380.621,662.928 377,665.5C 376.506,667.134 376.34,668.801 376.5,670.5C 357.012,676.165 337.178,679.831 317,681.5C 311.725,681.616 306.558,681.116 301.5,680C 298.541,675.987 297.874,671.653 299.5,667C 307.275,663.947 314.608,660.113 321.5,655.5C 322.318,652.893 322.818,650.226 323,647.5C 326.349,644.318 329.516,640.985 332.5,637.5C 331.872,634.22 331.539,630.887 331.5,627.5C 334.259,569.516 336.593,511.516 338.5,453.5C 337.578,436.078 335.912,418.745 333.5,401.5C 333.965,393.301 336.132,385.634 340,378.5C 341.505,367.865 341.672,357.198 340.5,346.5C 335.204,345.685 330.537,343.519 326.5,340C 317.333,331.5 308.167,323 299,314.5C 292.833,320.667 286.667,326.833 280.5,333C 273.742,337.167 266.409,338.5 258.5,337C 251.71,336.303 245.044,334.969 238.5,333C 228.742,325.031 221.242,315.197 216,303.5C 210.7,287.298 205.866,270.964 201.5,254.5C 196.859,253.654 192.192,252.987 187.5,252.5C 177.802,254.775 167.969,255.775 158,255.5C 146.494,255.15 134.994,254.65 123.5,254C 122.684,250.731 121.684,247.564 120.5,244.5C 81.4659,243.705 42.4659,242.372 3.5,240.5C 3.5,238.833 3.5,237.167 3.5,235.5C 38.4344,228.819 73.6011,223.485 109,219.5C 115.39,220.073 120.89,222.573 125.5,227C 182.514,228.088 239.514,229.588 296.5,231.5C 296.394,227.203 298.061,223.87 301.5,221.5C 302.257,213.248 306.59,210.415 314.5,213C 317.027,215.574 318.194,218.74 318,222.5C 319.905,224.424 321.072,226.757 321.5,229.5C 328.965,231.972 336.632,232.972 344.5,232.5 Z M 232.5,256.5 C 234.245,271.731 238.078,286.397 244,300.5C 247.969,308.467 254.302,313.467 263,315.5C 268.57,311.707 272.737,306.707 275.5,300.5C 272.822,297.323 269.988,294.323 267,291.5C 266.667,288.833 266.333,286.167 266,283.5C 262.41,280.954 258.577,278.787 254.5,277C 251.333,273.833 248.167,270.667 245,267.5C 243.378,264.013 242.545,260.346 242.5,256.5C 239.167,256.5 235.833,256.5 232.5,256.5 Z"/></g>
<g><path style="opacity:1" fill="#28252d" d="M 321.5,40.5 C 323.252,40.4176 324.252,41.2509 324.5,43C 324.235,45.1515 323.235,46.8181 321.5,48C 322.416,48.3742 323.25,48.8742 324,49.5C 331.272,63.7107 338.272,78.044 345,92.5C 348.093,99.8714 350.093,107.538 351,115.5C 353.366,119.793 355.533,124.126 357.5,128.5C 357.152,130.697 356.152,132.53 354.5,134C 346.223,138.672 337.89,142.172 329.5,144.5C 327.626,144.61 326.126,143.944 325,142.5C 323.414,140.33 322.08,137.996 321,135.5C 317.451,107.574 315.117,79.5736 314,51.5C 314.75,50.8742 315.584,50.3742 316.5,50C 312.999,48.6496 311.666,46.3163 312.5,43C 315.628,42.1588 318.628,41.3254 321.5,40.5 Z"/></g>
<g><path style="opacity:1" fill="#1e1e23" d="M 381.5,123.5 C 387.5,123.5 393.5,123.5 399.5,123.5C 399.5,126.5 399.5,129.5 399.5,132.5C 385.115,133.16 370.782,133.993 356.5,135C 358.93,132.695 359.93,129.862 359.5,126.5C 366.985,125.635 374.318,124.635 381.5,123.5 Z"/></g>
<g><path style="opacity:1" fill="#393840" d="M 348.5,177.5 C 348.421,176.07 348.754,174.736 349.5,173.5C 346.5,171.667 343.5,169.833 340.5,168C 343.562,166.939 346.062,165.106 348,162.5C 348.732,160.294 348.065,158.628 346,157.5C 344.459,161.05 342.126,164.05 339,166.5C 337.955,165.627 337.122,164.627 336.5,163.5C 337.859,161.173 339.359,158.84 341,156.5C 342.006,152.198 341.506,148.198 339.5,144.5C 344.159,141.749 348.992,139.082 354,136.5C 355.231,137.108 356.564,137.441 358,137.5C 371.138,136.09 384.305,135.09 397.5,134.5C 395.244,148.436 394.911,162.436 396.5,176.5C 381.3,176.549 366.133,177.216 351,178.5C 349.93,178.472 349.097,178.139 348.5,177.5 Z"/></g>
<g><path style="opacity:1" fill="#c2c3c2" d="M 339.5,144.5 C 341.506,148.198 342.006,152.198 341,156.5C 339.359,158.84 337.859,161.173 336.5,163.5C 336.744,159.573 334.91,157.24 331,156.5C 327.998,148.641 330.831,144.641 339.5,144.5 Z"/></g>
<g><path style="opacity:1" fill="#000000" d="M 336.5,146.5 C 337.496,146.414 338.329,146.748 339,147.5C 339.814,149.902 339.647,152.235 338.5,154.5C 335.426,152.471 334.76,149.804 336.5,146.5 Z"/></g>
<g><path style="opacity:1" fill="#000000" d="M 331.5,148.5 C 332.725,149.152 333.392,150.319 333.5,152C 333.342,156.262 332.342,156.262 330.5,152C 330.989,150.862 331.322,149.695 331.5,148.5 Z"/></g>
<g><path style="opacity:1" fill="#000000" d="M 334.5,153.5 C 336.332,154.14 336.665,155.14 335.5,156.5C 334.614,155.675 334.281,154.675 334.5,153.5 Z"/></g>
<g><path style="opacity:1" fill="#bdbdbd" d="M 348.5,177.5 C 347.833,177.5 347.167,177.5 346.5,177.5C 344.539,175.037 342.372,172.703 340,170.5C 338.905,171.693 338.072,173.027 337.5,174.5C 336.842,175.398 336.176,176.398 335.5,177.5C 334.5,177.167 333.833,176.5 333.5,175.5C 335.642,173.43 336.976,170.93 337.5,168C 335.112,165.95 333.112,163.616 331.5,161C 331.667,160.5 331.833,160 332,159.5C 333.371,161.041 334.871,162.375 336.5,163.5C 337.122,164.627 337.955,165.627 339,166.5C 342.126,164.05 344.459,161.05 346,157.5C 348.065,158.628 348.732,160.294 348,162.5C 346.062,165.106 343.562,166.939 340.5,168C 343.5,169.833 346.5,171.667 349.5,173.5C 348.754,174.736 348.421,176.07 348.5,177.5 Z"/></g>
<g><path style="opacity:1" fill="#323138" d="M 346.5,177.5 C 346.611,178.117 346.944,178.617 347.5,179C 344.804,179.765 342.304,180.932 340,182.5C 338.409,180.073 337.575,177.407 337.5,174.5C 338.072,173.027 338.905,171.693 340,170.5C 342.372,172.703 344.539,175.037 346.5,177.5 Z"/></g>
<g><path style="opacity:1" fill="#1e1e23" d="M 375.5,178.5 C 379.97,178.03 380.47,179.03 377,181.5C 376.843,183.995 376.676,186.328 376.5,188.5C 364.145,188.076 351.811,188.743 339.5,190.5C 339.643,188.738 339.309,187.071 338.5,185.5C 341.264,184.035 344.097,182.701 347,181.5C 356.593,180.075 366.093,179.075 375.5,178.5 Z"/></g>
<g><path style="opacity:1" fill="#7b0613" d="M 392.5,214.5 C 392.5,214.167 392.5,213.833 392.5,213.5C 395.276,209.614 396.609,205.281 396.5,200.5C 396.843,198.517 396.176,197.183 394.5,196.5C 390.085,195.039 386.751,196.372 384.5,200.5C 383.903,200.265 383.57,199.765 383.5,199C 384.975,195.65 385.642,192.15 385.5,188.5C 389.185,188.105 392.852,187.938 396.5,188C 401.279,195.484 402.779,203.65 401,212.5C 400.703,215.914 400.036,219.247 399,222.5C 397.513,219.141 395.346,216.475 392.5,214.5 Z"/></g>
<g><path style="opacity:1" fill="#1e1e23" d="M 378.5,188.5 C 380.042,189.301 381.708,189.634 383.5,189.5C 381.511,202.922 379.011,216.256 376,229.5C 375.138,231.087 374.471,232.754 374,234.5C 370.613,237.887 367.279,241.221 364,244.5C 363.075,243.953 362.242,243.287 361.5,242.5C 365.1,238.3 367.933,233.633 370,228.5C 372.834,215.164 375.667,201.831 378.5,188.5 Z"/></g>
<g><path style="opacity:1" fill="#1e1e23" d="M 355.5,190.5 C 361.523,190.669 367.523,191.169 373.5,192C 362.795,198.235 351.295,202.068 339,203.5C 336.949,203.577 335.116,203.077 333.5,202C 336.598,199.572 338.931,196.572 340.5,193C 345.625,192.075 350.625,191.241 355.5,190.5 Z"/></g>
<g><path style="opacity:1" fill="#8b5243" d="M 373.5,201.5 C 367.362,206.636 360.362,209.97 352.5,211.5C 350.506,210.511 348.506,209.511 346.5,208.5C 346.489,206.983 345.823,205.816 344.5,205C 355.362,202.985 365.529,199.151 375,193.5C 374.959,196.206 374.459,198.872 373.5,201.5 Z"/></g>
<g><path style="opacity:1" fill="#c69983" d="M 394.5,196.5 C 394.989,197.995 395.655,199.329 396.5,200.5C 396.609,205.281 395.276,209.614 392.5,213.5C 391.5,213.833 390.833,214.5 390.5,215.5C 389.5,215.5 388.5,215.5 387.5,215.5C 387.5,218.833 387.5,222.167 387.5,225.5C 385.4,228.104 383.067,230.604 380.5,233C 380.728,233.399 381.062,233.565 381.5,233.5C 379.821,235.175 377.821,236.008 375.5,236C 376.796,233.239 377.963,230.405 379,227.5C 380.625,218.403 382.459,209.403 384.5,200.5C 386.751,196.372 390.085,195.039 394.5,196.5 Z"/></g>
<g><path style="opacity:1" fill="#000000" d="M 394.5,196.5 C 396.176,197.183 396.843,198.517 396.5,200.5C 395.655,199.329 394.989,197.995 394.5,196.5 Z"/></g>
<g><path style="opacity:1" fill="#8b5243" d="M 388.5,199.5 C 390.162,201.224 391.162,203.391 391.5,206C 391.22,207.395 390.553,208.562 389.5,209.5C 389.985,207.223 389.319,205.056 387.5,203C 388.337,201.989 388.67,200.822 388.5,199.5 Z"/></g>
<g><path style="opacity:1" fill="#c49881" d="M 373.5,201.5 C 371.437,210.098 369.604,218.764 368,227.5C 365.845,233.143 362.679,238.143 358.5,242.5C 353.46,240.102 351.46,236.102 352.5,230.5C 355.059,230.802 357.393,230.468 359.5,229.5C 362.139,227.162 361.806,224.995 358.5,223C 355.475,222.867 352.808,221.867 350.5,220C 351.167,219.667 351.833,219.333 352.5,219C 349.788,218.174 347.455,218.674 345.5,220.5C 344.522,220.189 343.855,219.522 343.5,218.5C 344.506,215.137 345.506,211.804 346.5,208.5C 348.506,209.511 350.506,210.511 352.5,211.5C 360.362,209.97 367.362,206.636 373.5,201.5 Z"/></g>
<g><path style="opacity:1" fill="#804b3f" d="M 392.5,213.5 C 392.5,213.833 392.5,214.167 392.5,214.5C 393.816,218.631 395.816,222.464 398.5,226C 393.312,229.594 387.646,232.094 381.5,233.5C 381.062,233.565 380.728,233.399 380.5,233C 383.067,230.604 385.4,228.104 387.5,225.5C 388.011,222.037 389.011,218.704 390.5,215.5C 390.833,214.5 391.5,213.833 392.5,213.5 Z"/></g>
<g><path style="opacity:1" fill="#000000" d="M 390.5,215.5 C 389.011,218.704 388.011,222.037 387.5,225.5C 387.5,222.167 387.5,218.833 387.5,215.5C 388.5,215.5 389.5,215.5 390.5,215.5 Z"/></g>
<g><path style="opacity:1" fill="#b0b0b0" d="M 314.5,233.5 C 310.434,233.307 306.434,233.64 302.5,234.5C 301.456,230.498 302.956,227.498 307,225.5C 309.618,215.051 311.618,215.384 313,226.5C 314.827,228.302 315.994,230.468 316.5,233C 315.906,233.464 315.239,233.631 314.5,233.5 Z"/></g>
<g><path style="opacity:1" fill="#700a12" d="M 359.5,229.5 C 355.039,229.223 350.706,229.056 346.5,229C 345.228,226.956 345.561,225.122 347.5,223.5C 346.807,222.482 346.141,221.482 345.5,220.5C 347.455,218.674 349.788,218.174 352.5,219C 351.833,219.333 351.167,219.667 350.5,220C 352.808,221.867 355.475,222.867 358.5,223C 361.806,224.995 362.139,227.162 359.5,229.5 Z"/></g>
<g><path style="opacity:1" fill="#c2c3c2" d="M 107.5,223.5 C 113.699,225.182 119.366,228.015 124.5,232C 132.167,232.333 139.833,232.667 147.5,233C 148.293,234.085 148.96,235.252 149.5,236.5C 148.408,239.094 146.741,241.261 144.5,243C 140.177,244.809 135.677,245.976 131,246.5C 129.248,245.042 127.415,243.709 125.5,242.5C 126.582,242.251 127.915,242.085 129.5,242C 131.916,238.974 131.083,236.807 127,235.5C 125.739,235.759 124.739,236.426 124,237.5C 120.857,235.828 118.357,236.494 116.5,239.5C 114.333,239.833 112.167,240.167 110,240.5C 77.8492,239.149 45.6825,238.316 13.5,238C 44.8796,232.543 76.2129,227.709 107.5,223.5 Z"/></g>
<g><path style="opacity:1" fill="#375da6" d="M 402.5,226.5 C 405.388,226.22 406.888,227.553 407,230.5C 407.307,235.357 407.807,240.19 408.5,245C 408.197,247.724 407.364,250.224 406,252.5C 399.641,250.678 393.141,250.178 386.5,251C 380.086,253.62 374.253,257.12 369,261.5C 363.548,255.855 363.048,249.689 367.5,243C 374.755,238.876 382.422,235.543 390.5,233C 394.753,231.045 398.753,228.878 402.5,226.5 Z"/></g>
<g><path style="opacity:1" fill="#7e7f7e" d="M 446.5,230.5 C 442.581,231.133 442.581,230.3 446.5,228C 448.635,227.365 450.635,227.699 452.5,229C 450.292,229.191 448.292,229.691 446.5,230.5 Z"/></g>
<g><path style="opacity:1" fill="#7e7f7e" d="M 446.5,230.5 C 451.093,229.418 454.093,231.085 455.5,235.5C 454.833,238.833 452.833,240.167 449.5,239.5C 449.343,238.127 449.51,236.793 450,235.5C 451.131,236.604 451.965,236.271 452.5,234.5C 451.635,233.417 450.635,233.251 449.5,234C 448.577,236.041 448.244,238.208 448.5,240.5C 453.083,241.657 455.75,239.99 456.5,235.5C 456.152,233.303 455.152,231.47 453.5,230C 457.949,230.286 460.282,232.786 460.5,237.5C 458.376,239.121 456.376,240.954 454.5,243C 450.891,244.072 447.891,243.239 445.5,240.5C 445.824,237.154 446.157,233.82 446.5,230.5 Z"/></g>
<g><path style="opacity:1" fill="#7e7f7e" d="M 436.5,231.5 C 436.56,230.957 436.893,230.624 437.5,230.5C 443.825,232.802 445.325,236.802 442,242.5C 437.917,246.142 433.084,247.475 427.5,246.5C 427.045,243.797 426.378,241.13 425.5,238.5C 425.856,235.312 427.523,233.145 430.5,232C 434.926,230.748 437.592,232.414 438.5,237C 437.446,242.078 434.613,243.578 430,241.5C 429.333,240.5 429.333,239.5 430,238.5C 431.073,239.28 432.24,239.113 433.5,238C 432.567,235.152 431.067,234.986 429,237.5C 428.257,239.441 428.424,241.274 429.5,243C 435.352,245.04 438.685,243.04 439.5,237C 439.387,234.601 438.387,232.768 436.5,231.5 Z"/></g>
<g><path style="opacity:1" fill="#c2c3c2" d="M 302.5,234.5 C 306.434,233.64 310.434,233.307 314.5,233.5C 316.776,235.584 319.443,237.084 322.5,238C 265.465,238.893 208.465,237.893 151.5,235C 151.043,234.586 150.709,234.086 150.5,233.5C 195.996,233.46 241.496,234.46 287,236.5C 291.5,236.333 296,236.167 300.5,236C 301.416,235.722 302.082,235.222 302.5,234.5 Z"/></g>
<g><path style="opacity:1" fill="#fefffe" d="M 344.5,232.5 C 346.167,232.5 347.833,232.5 349.5,232.5C 349.182,236.794 350.015,240.794 352,244.5C 354.587,246.196 357.421,247.196 360.5,247.5C 360.66,249.199 360.494,250.866 360,252.5C 351.254,249.671 346.921,243.671 347,234.5C 346.005,233.934 345.172,233.267 344.5,232.5 Z"/></g>
<g><path style="opacity:1" fill="#552b25" d="M 335.5,242.5 C 336.427,246.636 338.427,247.302 341.5,244.5C 343.707,246.446 345.707,248.612 347.5,251C 353.78,254.387 359.947,257.887 366,261.5C 365.676,268.828 362.843,269.995 357.5,265C 355.26,264.023 352.927,263.523 350.5,263.5C 350.768,261.901 350.434,260.568 349.5,259.5C 346.167,259.167 342.833,258.833 339.5,258.5C 339.649,259.552 339.483,260.552 339,261.5C 338.506,259.866 338.34,258.199 338.5,256.5C 333.075,255.252 327.575,255.586 322,257.5C 317.8,256.828 313.633,255.994 309.5,255C 307.884,254.385 306.551,253.385 305.5,252C 297.391,251.406 289.391,251.906 281.5,253.5C 279.37,251.873 277.37,250.04 275.5,248C 273.975,246.991 272.308,246.491 270.5,246.5C 269.566,247.568 269.232,248.901 269.5,250.5C 242.195,248.977 214.862,247.977 187.5,247.5C 167.597,250.975 147.597,251.475 127.5,249C 132.896,248.277 138.229,247.277 143.5,246C 147.167,244.333 149.833,241.667 151.5,238C 209.472,239.802 267.472,240.636 325.5,240.5C 325.67,239.178 325.337,238.011 324.5,237C 325,236.833 325.5,236.667 326,236.5C 328.705,237.939 331.538,238.939 334.5,239.5C 334.263,240.791 334.596,241.791 335.5,242.5 Z"/></g>
<g><path style="opacity:1" fill="#ca9d85" d="M 341.5,244.5 C 338.427,247.302 336.427,246.636 335.5,242.5C 334.848,237.673 336.848,235.84 341.5,237C 342.308,237.308 342.975,237.808 343.5,238.5C 342.628,240.45 341.961,242.45 341.5,244.5 Z"/></g>
<g><path style="opacity:1" fill="#7e7f7e" d="M 444.5,242.5 C 447.675,243.865 451.008,244.865 454.5,245.5C 449.869,246.662 445.202,246.828 440.5,246C 442.324,245.34 443.657,244.173 444.5,242.5 Z"/></g>
<g><path style="opacity:1" fill="#202225" d="M 410.5,244.5 C 414.862,245.349 418.195,247.682 420.5,251.5C 419.185,253.316 417.685,254.983 416,256.5C 413.65,254.317 411.483,251.984 409.5,249.5C 410.309,247.929 410.643,246.262 410.5,244.5 Z"/></g>
<g><path style="opacity:1" fill="#ca9d85" d="M 270.5,246.5 C 272.308,246.491 273.975,246.991 275.5,248C 277.37,250.04 279.37,251.873 281.5,253.5C 283.646,258.297 286.646,262.463 290.5,266C 286.333,270.167 282.167,274.333 278,278.5C 272.908,274.702 267.408,271.535 261.5,269C 258.667,266.167 255.833,263.333 253,260.5C 251.698,257.625 250.865,254.625 250.5,251.5C 252.5,251.5 254.5,251.5 256.5,251.5C 257.996,256.654 260.663,261.154 264.5,265C 268.089,265.207 271.589,265.707 275,266.5C 276.586,265.624 278.086,264.624 279.5,263.5C 277.883,259.477 275.216,255.811 271.5,252.5C 270.85,250.565 270.517,248.565 270.5,246.5 Z"/></g>
<g><path style="opacity:1" fill="#ced2c0" d="M 474.5,246.5 C 478.5,246.5 482.5,246.5 486.5,246.5C 487.093,257.839 487.76,269.172 488.5,280.5C 476.516,281.277 464.516,281.61 452.5,281.5C 452.5,270.5 452.5,259.5 452.5,248.5C 459.979,247.936 467.313,247.269 474.5,246.5 Z"/></g>
<g><path style="opacity:1" fill="#202225" d="M 488.5,246.5 C 495.586,255.879 496.419,265.879 491,276.5C 489.688,266.553 488.854,256.553 488.5,246.5 Z"/></g>
<g><path style="opacity:1" fill="#7d7d7d" d="M 427.5,279.5 C 430.305,278.021 431.972,275.688 432.5,272.5C 433.622,270.712 433.789,268.712 433,266.5C 432.583,265.244 431.75,264.577 430.5,264.5C 427.768,261.101 424.434,260.601 420.5,263C 419.295,264.376 417.962,265.542 416.5,266.5C 416.5,265.833 416.5,265.167 416.5,264.5C 414.864,265.749 413.697,267.416 413,269.5C 412.294,267.029 412.627,264.695 414,262.5C 417.799,257.699 421.966,253.199 426.5,249C 429.5,248.333 432.5,248.333 435.5,249C 439.967,252.465 444.133,256.298 448,260.5C 448.639,265.98 447.972,271.313 446,276.5C 438.923,281.192 431.256,284.526 423,286.5C 420.602,285.144 418.102,283.977 415.5,283C 413.664,281.149 412.83,278.983 413,276.5C 417.363,280.364 422.196,281.364 427.5,279.5 Z"/></g>
<g><path style="opacity:1" fill="#7e7f7e" d="M 439.5,249.5 C 442.962,248.518 446.629,248.185 450.5,248.5C 450.665,252.182 450.499,255.848 450,259.5C 446.631,255.963 443.131,252.629 439.5,249.5 Z"/></g>
<g><path style="opacity:1" fill="#27282c" d="M 207.5,251.5 C 213.167,251.5 218.833,251.5 224.5,251.5C 224.154,254.885 223.488,258.218 222.5,261.5C 225.142,274.875 227.975,288.209 231,301.5C 231.333,300.5 231.667,299.5 232,298.5C 237.815,317.654 250.649,326.154 270.5,324C 277.673,317.148 283.507,309.315 288,300.5C 291.295,302.297 294.128,304.63 296.5,307.5C 290.015,314.486 283.348,321.319 276.5,328C 268.529,333.687 260.362,333.854 252,328.5C 247.275,328.825 242.775,327.658 238.5,325C 231.105,317.599 225.271,309.099 221,299.5C 215.561,283.742 211.061,267.742 207.5,251.5 Z"/></g>
<g><path style="opacity:1" fill="#864f41" d="M 256.5,251.5 C 261.463,252.254 266.463,252.587 271.5,252.5C 275.216,255.811 277.883,259.477 279.5,263.5C 278.086,264.624 276.586,265.624 275,266.5C 271.589,265.707 268.089,265.207 264.5,265C 260.663,261.154 257.996,256.654 256.5,251.5 Z"/></g>
<g><path style="opacity:1" fill="#1e1e22" d="M 414.5,296.5 C 408.588,285.074 401.254,274.574 392.5,265C 386.808,263.143 381.141,263.143 375.5,265C 370.043,268.625 365.043,272.791 360.5,277.5C 359.475,277.103 359.308,276.437 360,275.5C 363.833,271 367.667,266.5 371.5,262C 377.518,257.32 384.185,254.32 391.5,253C 398.262,257.758 404.429,263.258 410,269.5C 410.303,273.894 410.97,278.227 412,282.5C 413.952,284.894 416.452,286.394 419.5,287C 417.132,289.907 415.465,293.074 414.5,296.5 Z"/></g>
<g><path style="opacity:1" fill="#403f4b" d="M 395.5,253.5 C 395.735,252.903 396.235,252.57 397,252.5C 400.152,253.22 403.319,253.887 406.5,254.5C 407.647,254.182 408.481,253.516 409,252.5C 410.833,254.333 412.667,256.167 414.5,258C 412.348,260.469 410.848,263.302 410,266.5C 405.594,261.589 400.76,257.255 395.5,253.5 Z"/></g>
<g><path style="opacity:1" fill="#fefffe" d="M 229.5,253.5 C 234.833,253.5 240.167,253.5 245.5,253.5C 245.545,257.346 246.378,261.013 248,264.5C 251.167,267.667 254.333,270.833 257.5,274C 261.577,275.787 265.41,277.954 269,280.5C 269.333,283.167 269.667,285.833 270,288.5C 273.508,292.341 277.341,295.841 281.5,299C 277.654,306.515 272.654,313.182 266.5,319C 254.985,318.825 246.485,313.658 241,303.5C 234.3,287.501 230.467,270.835 229.5,253.5 Z M 232.5,256.5 C 234.245,271.731 238.078,286.397 244,300.5C 247.969,308.467 254.302,313.467 263,315.5C 268.57,311.707 272.737,306.707 275.5,300.5C 272.822,297.323 269.988,294.323 267,291.5C 266.667,288.833 266.333,286.167 266,283.5C 262.41,280.954 258.577,278.787 254.5,277C 251.333,273.833 248.167,270.667 245,267.5C 243.378,264.013 242.545,260.346 242.5,256.5C 239.167,256.5 235.833,256.5 232.5,256.5 Z"/></g>
<g><path style="opacity:1" fill="#27292d" d="M 307.5,256.5 C 312.411,257.877 317.411,259.043 322.5,260C 320.661,263.25 318.328,266.083 315.5,268.5C 312.467,266.302 309.3,264.302 306,262.5C 305.591,260.305 306.091,258.305 307.5,256.5 Z"/></g>
<g><path style="opacity:1" fill="#000000" d="M 416.5,264.5 C 416.393,262.097 417.393,260.264 419.5,259C 437.707,253.546 442.541,259.38 434,276.5C 434.668,272.624 435.835,268.791 437.5,265C 435.992,258.575 431.992,256.242 425.5,258C 421.475,258.873 418.475,261.039 416.5,264.5 Z"/></g>
<g><path style="opacity:1" fill="#493904" d="M 330.5,260.5 C 329.902,263.821 328.235,264.821 325.5,263.5C 323.256,262.388 323.256,260.888 325.5,259C 327.101,258.727 328.601,258.227 330,257.5C 330.483,258.448 330.649,259.448 330.5,260.5 Z"/></g>
<g><path style="opacity:1" fill="#e9b600" d="M 334.5,259.5 C 333.585,262.086 331.918,264.086 329.5,265.5C 326.438,267.121 323.772,266.621 321.5,264C 322.793,263.51 324.127,263.343 325.5,263.5C 328.235,264.821 329.902,263.821 330.5,260.5C 331.404,259.791 331.737,258.791 331.5,257.5C 333.179,257.285 334.179,257.952 334.5,259.5 Z"/></g>
<g><path style="opacity:1" fill="#ac8672" d="M 338.5,256.5 C 338.34,258.199 338.506,259.866 339,261.5C 339.483,260.552 339.649,259.552 339.5,258.5C 342.833,258.833 346.167,259.167 349.5,259.5C 349.5,261.167 349.5,262.833 349.5,264.5C 346.874,266.823 344.207,269.157 341.5,271.5C 336.962,270.564 332.962,268.564 329.5,265.5C 331.918,264.086 333.585,262.086 334.5,259.5C 335.404,258.791 335.737,257.791 335.5,256.5C 336.5,256.5 337.5,256.5 338.5,256.5 Z"/></g>
<g><path style="opacity:1" fill="#403f4b" d="M 296.5,260.5 C 302.154,263.08 307.654,266.08 313,269.5C 313.243,274.942 314.077,280.275 315.5,285.5C 306.412,288.476 297.578,292.143 289,296.5C 283.577,293.081 278.744,288.915 274.5,284C 283.104,277.233 290.438,269.4 296.5,260.5 Z"/></g>
<g><path style="opacity:1" fill="#000000" d="M 430.5,264.5 C 425.529,261.449 421.362,262.449 418,267.5C 417.632,271.814 419.632,274.481 424,275.5C 426.373,274.576 428.206,273.076 429.5,271C 429.07,269.566 428.236,268.399 427,267.5C 425.833,269.167 424.667,270.833 423.5,272.5C 421.31,271.252 420.977,269.586 422.5,267.5C 428.456,265.294 430.956,267.294 430,273.5C 421.847,278.506 417.347,276.173 416.5,266.5C 417.962,265.542 419.295,264.376 420.5,263C 424.434,260.601 427.768,261.101 430.5,264.5 Z"/></g>
<g><path style="opacity:1" fill="#7e7f7e" d="M 430.5,264.5 C 432.051,266.913 432.717,269.579 432.5,272.5C 430.478,274.531 428.811,276.865 427.5,279.5C 422.323,280.297 417.823,278.964 414,275.5C 413.136,271.966 413.969,268.966 416.5,266.5C 417.347,276.173 421.847,278.506 430,273.5C 430.956,267.294 428.456,265.294 422.5,267.5C 420.977,269.586 421.31,271.252 423.5,272.5C 424.667,270.833 425.833,269.167 427,267.5C 428.236,268.399 429.07,269.566 429.5,271C 428.206,273.076 426.373,274.576 424,275.5C 419.632,274.481 417.632,271.814 418,267.5C 421.362,262.449 425.529,261.449 430.5,264.5 Z"/></g>
<g><path style="opacity:1" fill="#403f4b" d="M 414.5,296.5 C 412.953,315.871 411.786,335.204 411,354.5C 397.754,348.132 385.254,340.632 373.5,332C 382.66,327.728 391.493,322.894 400,317.5C 402.401,312.768 403.068,307.768 402,302.5C 396.018,283.426 383.518,276.926 364.5,283C 361.804,283.765 359.304,284.932 357,286.5C 357.463,283.286 358.63,280.286 360.5,277.5C 365.043,272.791 370.043,268.625 375.5,265C 381.141,263.143 386.808,263.143 392.5,265C 401.254,274.574 408.588,285.074 414.5,296.5 Z"/></g>
<g><path style="opacity:1" fill="#3d3b48" d="M 349.5,264.5 C 354.165,265.444 358.165,267.61 361.5,271C 359.457,272.708 357.79,274.708 356.5,277C 353.558,278.124 350.558,278.458 347.5,278C 345.167,276.333 342.833,274.667 340.5,273C 341.056,272.617 341.389,272.117 341.5,271.5C 344.207,269.157 346.874,266.823 349.5,264.5 Z"/></g>
<g><path style="opacity:1" fill="#000000" d="M 430.5,264.5 C 431.75,264.577 432.583,265.244 433,266.5C 433.789,268.712 433.622,270.712 432.5,272.5C 432.717,269.579 432.051,266.913 430.5,264.5 Z"/></g>
<g><path style="opacity:1" fill="#b87a56" d="M 464.5,284.5 C 465.809,287.778 467.642,290.778 470,293.5C 472.342,300.56 474.509,307.56 476.5,314.5C 476.5,316.5 476.5,318.5 476.5,320.5C 474.684,329.367 472.851,338.367 471,347.5C 469.789,352.926 467.289,357.593 463.5,361.5C 459.451,364.503 455.118,365.169 450.5,363.5C 453.997,359.852 456.497,355.519 458,350.5C 462.593,332.365 462.259,314.365 457,296.5C 453.733,290.407 449.566,285.074 444.5,280.5C 448.112,277.893 449.945,274.226 450,269.5C 450.333,273.833 450.667,278.167 451,282.5C 455.497,283.194 459.997,283.861 464.5,284.5 Z"/></g>
<g><path style="opacity:1" fill="#fefffe" d="M 323.5,271.5 C 323.56,270.957 323.893,270.624 324.5,270.5C 331.176,274.17 337.509,278.336 343.5,283C 350.741,282.951 351.407,284.951 345.5,289C 344.833,289.667 344.167,289.667 343.5,289C 336.962,282.958 330.295,277.125 323.5,271.5 Z"/></g>
<g><path style="opacity:1" fill="#3c3c43" d="M 315.5,272.5 C 317.934,273.771 319.434,275.771 320,278.5C 321.393,283.095 321.726,287.761 321,292.5C 312.636,296.621 303.969,299.955 295,302.5C 294.07,300.448 292.57,298.948 290.5,298C 299.123,293.905 307.957,290.405 317,287.5C 316.578,282.536 316.078,277.536 315.5,272.5 Z"/></g>
<g><path style="opacity:1" fill="#000000" d="M 432.5,272.5 C 431.972,275.688 430.305,278.021 427.5,279.5C 428.811,276.865 430.478,274.531 432.5,272.5 Z"/></g>
<g><path style="opacity:1" fill="#403f4b" d="M 322.5,279.5 C 329.559,286.06 337.059,292.06 345,297.5C 354.437,288.453 365.77,283.453 379,282.5C 383.795,283.541 388.128,285.541 392,288.5C 394.921,293.341 397.588,298.341 400,303.5C 401.879,310.101 400.046,315.268 394.5,319C 387.414,322.14 380.414,325.474 373.5,329C 365.77,334.902 357.437,339.735 348.5,343.5C 338.448,340.641 329.781,335.475 322.5,328C 314.446,319.946 306.446,311.946 298.5,304C 307.128,301.461 315.295,297.961 323,293.5C 323.717,288.78 323.55,284.114 322.5,279.5 Z"/></g>
<g><path style="opacity:1" fill="#1d1e21" d="M 444.5,280.5 C 449.566,285.074 453.733,290.407 457,296.5C 462.259,314.365 462.593,332.365 458,350.5C 456.497,355.519 453.997,359.852 450.5,363.5C 447.932,365.784 444.932,366.951 441.5,367C 447.77,361.062 451.937,353.895 454,345.5C 455.515,332.871 455.848,320.205 455,307.5C 453.107,300.858 449.607,295.358 444.5,291C 438.011,289.037 431.344,288.037 424.5,288C 431.551,286.374 438.217,283.874 444.5,280.5 Z"/></g>
<g><path style="opacity:1" fill="#1a1a1d" d="M 476.5,314.5 C 474.509,307.56 472.342,300.56 470,293.5C 467.642,290.778 465.809,287.778 464.5,284.5C 465.708,283.218 467.042,283.218 468.5,284.5C 475.528,293.546 478.194,303.546 476.5,314.5 Z"/></g>
<g><path style="opacity:1" fill="#b87a56" d="M 419.5,290.5 C 427.685,289.95 435.685,290.784 443.5,293C 448.045,297.244 451.211,302.411 453,308.5C 454.077,321.94 453.41,335.273 451,348.5C 447.084,357.686 441.25,365.352 433.5,371.5C 427.457,370.572 421.791,368.572 416.5,365.5C 414.262,359.205 412.928,352.705 412.5,346C 414.064,332.206 415.231,318.372 416,304.5C 416.236,299.555 417.403,294.888 419.5,290.5 Z"/></g>
<g><path style="opacity:1" fill="#191a1d" d="M 463.5,361.5 C 467.289,357.593 469.789,352.926 471,347.5C 472.851,338.367 474.684,329.367 476.5,320.5C 477.268,319.737 477.768,318.737 478,317.5C 479.155,331.554 476.488,344.888 470,357.5C 468.5,359 467,360.5 465.5,362C 464.563,362.692 463.897,362.525 463.5,361.5 Z"/></g>
<g><path style="opacity:1" fill="#202225" d="M 370.5,333.5 C 383.126,342.154 396.459,349.821 410.5,356.5C 411.949,358.611 412.949,360.944 413.5,363.5C 393.995,363.067 374.995,359.4 356.5,352.5C 354.422,350.61 353.089,348.276 352.5,345.5C 358.813,341.833 364.813,337.833 370.5,333.5 Z"/></g>
<g><path style="opacity:1" fill="#770713" d="M 348.5,362.5 C 349.617,366.295 350.283,370.295 350.5,374.5C 350.082,377.439 348.582,379.772 346,381.5C 346.686,371.335 346.52,361.168 345.5,351C 345.833,349.167 346.167,347.333 346.5,345.5C 347.167,351.319 347.833,356.986 348.5,362.5 Z"/></g>
<g><path style="opacity:1" fill="#ced2c0" d="M 350.5,374.5 C 350.283,370.295 349.617,366.295 348.5,362.5C 348.171,356.794 348.505,351.128 349.5,345.5C 350.761,347.453 351.927,349.453 353,351.5C 353.06,356.39 354.06,361.057 356,365.5C 357.11,367.037 358.61,367.703 360.5,367.5C 360.617,369.484 359.95,371.15 358.5,372.5C 356.082,373.457 353.916,374.791 352,376.5C 351.722,375.584 351.222,374.918 350.5,374.5 Z"/></g>
<g><path style="opacity:1" fill="#403f4b" d="M 355.5,354.5 C 367.741,359.227 380.407,362.394 393.5,364C 392.782,365.987 391.782,367.821 390.5,369.5C 379.967,367.193 369.301,365.693 358.5,365C 356.481,361.794 355.481,358.294 355.5,354.5 Z"/></g>
<g><path style="opacity:1" fill="#870014" d="M 395.5,364.5 C 396.693,364.97 397.36,365.97 397.5,367.5C 396.4,377.154 396.4,386.821 397.5,396.5C 398.062,414.222 390.728,427.388 375.5,436C 370.833,436.667 366.167,436.667 361.5,436C 367.163,435.918 372.496,434.584 377.5,432C 382.746,427.425 387.246,422.258 391,416.5C 394.33,406.309 393.497,396.475 388.5,387C 390.757,379.47 393.09,371.97 395.5,364.5 Z"/></g>
<g><path style="opacity:1" fill="#403f4b" d="M 399.5,364.5 C 404.499,365.266 409.499,366.1 414.5,367C 416.332,367.748 417.999,368.748 419.5,370C 416.845,371.441 414.012,372.274 411,372.5C 407.143,371.895 403.31,371.228 399.5,370.5C 399.5,368.5 399.5,366.5 399.5,364.5 Z"/></g>
<g><path style="opacity:1" fill="#99d9e9" d="M 371.5,371.5 C 371.842,372.338 372.508,372.672 373.5,372.5C 373.083,373.124 372.416,373.457 371.5,373.5C 367.862,372.818 364.195,372.318 360.5,372C 361.38,370.644 361.714,369.144 361.5,367.5C 364.518,367.704 367.518,368.037 370.5,368.5C 370.263,369.791 370.596,370.791 371.5,371.5 Z"/></g>
<g><path style="opacity:1" fill="#b5b8a9" d="M 387.5,379.5 C 384.43,376.969 381.096,374.969 377.5,373.5C 376.432,372.566 375.099,372.232 373.5,372.5C 372.508,372.672 371.842,372.338 371.5,371.5C 371.5,370.5 371.5,369.5 371.5,368.5C 377.612,368.852 383.612,369.852 389.5,371.5C 389.833,372 390.167,372.5 390.5,373C 390.162,375.609 389.162,377.776 387.5,379.5 Z"/></g>
<g><path style="opacity:1" fill="#ced2c0" d="M 437.5,391.5 C 433.851,392.267 430.518,393.6 427.5,395.5C 426.414,395.62 425.747,396.287 425.5,397.5C 425.543,398.416 425.876,399.083 426.5,399.5C 426.322,403.122 426.989,406.456 428.5,409.5C 418.501,415.791 407.834,416.958 396.5,413C 398.216,406.155 399.216,399.155 399.5,392C 398.763,385.519 398.43,379.019 398.5,372.5C 405.147,374.63 411.814,374.797 418.5,373C 419.931,372.535 421.097,371.701 422,370.5C 425.037,371.709 428.204,372.543 431.5,373C 432.428,373.388 433.095,374.055 433.5,375C 433.804,380.218 435.47,384.885 438.5,389C 438.257,389.902 437.923,390.735 437.5,391.5 Z"/></g>
<g><path style="opacity:1" fill="#99d9e9" d="M 377.5,373.5 C 381.096,374.969 384.43,376.969 387.5,379.5C 388.935,380.985 388.768,382.318 387,383.5C 383.642,379.241 379.475,376.074 374.5,374C 375.448,373.517 376.448,373.351 377.5,373.5 Z"/></g>
<g><path style="opacity:1" fill="#8ec9d8" d="M 343.5,419.5 C 350.933,418.864 358.266,418.198 365.5,417.5C 371.425,417.192 377.259,417.525 383,418.5C 383.717,417.956 384.217,417.289 384.5,416.5C 384.802,413.627 385.469,410.961 386.5,408.5C 387.798,404.592 387.632,400.592 386,396.5C 385.517,397.448 385.351,398.448 385.5,399.5C 378.313,399.175 371.313,399.509 364.5,400.5C 356.833,400.5 349.167,400.5 341.5,400.5C 341.657,399.127 341.49,397.793 341,396.5C 340.503,398.81 340.337,401.143 340.5,403.5C 339.414,403.38 338.747,402.713 338.5,401.5C 340.384,389.109 347.05,380.276 358.5,375C 379.444,374.103 390.444,384.27 391.5,405.5C 389.093,419.073 381.426,428.24 368.5,433C 356.258,435.568 347.925,431.068 343.5,419.5 Z"/></g>
<g><path style="opacity:1" fill="#000000" d="M 363.5,384.5 C 367.899,383.809 372.399,383.142 377,382.5C 377.5,383 378,383.5 378.5,384C 373.511,384.499 368.511,384.666 363.5,384.5 Z"/></g>
<g><path style="opacity:1" fill="#000000" d="M 363.5,384.5 C 358.684,385.65 353.684,385.816 348.5,385C 349,384.5 349.5,384 350,383.5C 354.401,384.467 358.901,384.8 363.5,384.5 Z"/></g>
<g><path style="opacity:1" fill="#202125" d="M 440.5,388.5 C 442.993,388.329 444.826,389.329 446,391.5C 446.519,390.484 447.353,389.818 448.5,389.5C 455.813,389.737 460.313,393.404 462,400.5C 463.791,412.447 464.458,424.447 464,436.5C 463.667,436.833 463.333,437.167 463,437.5C 457.636,434.012 452.136,433.678 446.5,436.5C 445.679,433.553 445.179,430.553 445,427.5C 444.502,430.817 444.335,434.15 444.5,437.5C 441.07,435.427 437.403,433.76 433.5,432.5C 434.192,424.858 434.692,417.192 435,409.5C 436.912,408.308 438.912,407.308 441,406.5C 441.575,400.478 441.409,394.478 440.5,388.5 Z"/></g>
<g><path style="opacity:1" fill="#a5a79a" d="M 437.5,391.5 C 438.268,392.263 438.768,393.263 439,394.5C 439.667,398.167 439.667,401.833 439,405.5C 438.333,397.5 437.667,397.5 437,405.5C 434.273,407.061 431.439,408.395 428.5,409.5C 426.989,406.456 426.322,403.122 426.5,399.5C 426.433,398.041 426.766,396.708 427.5,395.5C 430.518,393.6 433.851,392.267 437.5,391.5 Z"/></g>
<g><path style="opacity:1" fill="#000000" d="M 427.5,395.5 C 426.766,396.708 426.433,398.041 426.5,399.5C 425.876,399.083 425.543,398.416 425.5,397.5C 425.747,396.287 426.414,395.62 427.5,395.5 Z"/></g>
<g><path style="opacity:1" fill="#000000" d="M 364.5,400.5 C 356.414,400.898 348.414,401.898 340.5,403.5C 340.337,401.143 340.503,398.81 341,396.5C 341.49,397.793 341.657,399.127 341.5,400.5C 349.167,400.5 356.833,400.5 364.5,400.5 Z"/></g>
<g><path style="opacity:1" fill="#000000" d="M 386.5,408.5 C 386.5,405.833 386.5,403.167 386.5,400.5C 379.167,400.5 371.833,400.5 364.5,400.5C 371.313,399.509 378.313,399.175 385.5,399.5C 385.351,398.448 385.517,397.448 386,396.5C 387.632,400.592 387.798,404.592 386.5,408.5 Z"/></g>
<g><path style="opacity:1" fill="#96d5e6" d="M 364.5,400.5 C 371.833,400.5 379.167,400.5 386.5,400.5C 386.5,403.167 386.5,405.833 386.5,408.5C 385.469,410.961 384.802,413.627 384.5,416.5C 377.978,416.177 371.645,416.51 365.5,417.5C 358.08,417.797 350.746,417.464 343.5,416.5C 342.331,413.659 341.331,410.659 340.5,407.5C 340.5,406.167 340.5,404.833 340.5,403.5C 348.414,401.898 356.414,400.898 364.5,400.5 Z"/></g>
<g><path style="opacity:1" fill="#99d9e9" d="M 340.5,407.5 C 341.331,410.659 342.331,413.659 343.5,416.5C 343.5,417.5 343.5,418.5 343.5,419.5C 341.505,416.362 340.172,412.862 339.5,409C 339.57,408.235 339.903,407.735 340.5,407.5 Z"/></g>
<g><path style="opacity:1" fill="#ced2c0" d="M 431.5,410.5 C 432.933,420.961 432.266,431.461 429.5,442C 429.245,443.326 428.578,444.326 427.5,445C 405.154,451.917 382.487,453.251 359.5,449C 354.971,447.486 350.805,445.319 347,442.5C 346.333,438.167 346.333,433.833 347,429.5C 355.151,437.983 364.984,440.816 376.5,438C 385.977,433.191 392.643,425.858 396.5,416C 409.013,419.128 420.68,417.295 431.5,410.5 Z"/></g>
<g><path style="opacity:1" fill="#000000" d="M 343.5,416.5 C 350.746,417.464 358.08,417.797 365.5,417.5C 358.266,418.198 350.933,418.864 343.5,419.5C 343.5,418.5 343.5,417.5 343.5,416.5 Z"/></g>
<g><path style="opacity:1" fill="#000000" d="M 365.5,417.5 C 371.645,416.51 377.978,416.177 384.5,416.5C 384.217,417.289 383.717,417.956 383,418.5C 377.259,417.525 371.425,417.192 365.5,417.5 Z"/></g>
<g><path style="opacity:1" fill="#52525e" d="M 369.5,454.5 C 367.922,489.815 366.755,525.148 366,560.5C 364.587,583.993 363.087,607.326 361.5,630.5C 360.532,632.607 360.198,634.941 360.5,637.5C 354.459,637.747 348.459,637.414 342.5,636.5C 338.064,635.073 336.064,632.073 336.5,627.5C 339.472,569.528 341.806,511.528 343.5,453.5C 343.315,444.464 342.648,435.464 341.5,426.5C 341.506,421.427 342.339,421.427 344,426.5C 344.333,432.167 344.667,437.833 345,443.5C 348.081,446.293 351.581,448.46 355.5,450C 360.587,450.957 365.254,452.457 369.5,454.5 Z"/></g>
<g><path style="opacity:1" fill="#555661" d="M 424.5,447.5 C 425.978,447.238 427.311,447.571 428.5,448.5C 426.991,458.27 425.658,468.103 424.5,478C 426.762,488.246 427.095,498.58 425.5,509C 427.483,538.82 429.316,568.654 431,598.5C 431.947,608.462 433.447,618.295 435.5,628C 432.367,628.96 429.2,629.793 426,630.5C 414.334,629.167 402.834,627 391.5,624C 390.5,623.5 389.5,623 388.5,622.5C 388.167,619.667 387.833,616.833 387.5,614C 388.44,599.437 389.94,584.937 392,570.5C 392.668,553.146 393.668,535.812 395,518.5C 397.989,500.602 400.322,482.602 402,464.5C 403.709,461.582 405.542,458.748 407.5,456C 412.685,451.927 418.352,449.093 424.5,447.5 Z"/></g>
<g><path style="opacity:1" fill="#52525d" d="M 366.5,630.5 C 368.725,575.672 371.058,521.005 373.5,466.5C 374.166,461.983 374.833,457.317 375.5,452.5C 378.175,472.76 380.342,493.094 382,513.5C 383.46,516.21 385.46,516.876 388,515.5C 387.091,494.856 386.257,474.19 385.5,453.5C 393.574,453.43 401.574,452.93 409.5,452C 405.042,454.74 401.875,458.573 400,463.5C 398.322,481.602 395.989,499.602 393,517.5C 391.868,546.606 389.535,575.606 386,604.5C 385.04,614.601 385.54,624.601 387.5,634.5C 386.271,635.281 384.938,635.781 383.5,636C 377.843,636.499 372.176,636.666 366.5,636.5C 366.5,634.5 366.5,632.5 366.5,630.5 Z"/></g>
<g><path style="opacity:1" fill="#375da6" d="M 373.5,466.5 C 371.058,521.005 368.725,575.672 366.5,630.5C 365.539,632.265 365.205,634.265 365.5,636.5C 364.178,636.33 363.011,636.663 362,637.5C 361.503,635.19 361.337,632.857 361.5,630.5C 363.087,607.326 364.587,583.993 366,560.5C 366.755,525.148 367.922,489.815 369.5,454.5C 370.467,453.194 371.801,452.527 373.5,452.5C 373.5,457.167 373.5,461.833 373.5,466.5 Z"/></g>
<g><path style="opacity:1" fill="#202225" d="M 378.5,453.5 C 380.167,453.5 381.833,453.5 383.5,453.5C 383.962,468.841 384.628,484.174 385.5,499.5C 385.603,502.037 385.103,504.371 384,506.5C 381.777,488.879 379.944,471.213 378.5,453.5 Z"/></g>
<g><path style="opacity:1" fill="#e9b600" d="M 385.5,507.5 C 386.629,509.628 386.796,511.961 386,514.5C 382.879,512.326 382.712,509.993 385.5,507.5 Z"/></g>
<g><path style="opacity:1" fill="#414651" d="M 397.5,628.5 C 407.921,629.703 418.254,631.369 428.5,633.5C 430.136,636.911 431.469,640.411 432.5,644C 414.474,648.832 397.141,647.165 380.5,639C 383.432,638.047 386.432,637.547 389.5,637.5C 389.281,636.325 389.614,635.325 390.5,634.5C 393.464,633.192 395.797,631.192 397.5,628.5 Z"/></g>
<g><path style="opacity:1" fill="#40444f" d="M 366.5,640.5 C 367.708,641.234 369.041,641.567 370.5,641.5C 371.404,640.791 371.737,639.791 371.5,638.5C 373.167,638.5 374.833,638.5 376.5,638.5C 376.844,642.228 377.51,645.895 378.5,649.5C 377.675,650.386 376.675,650.719 375.5,650.5C 377.054,657.304 374.387,661.637 367.5,663.5C 353.69,666.375 340.69,664.375 328.5,657.5C 327.359,655.579 327.192,653.579 328,651.5C 332.386,646.611 337.22,642.278 342.5,638.5C 349.833,639.833 357.167,639.833 364.5,638.5C 365.182,639.243 365.849,639.909 366.5,640.5 Z"/></g>
<g><path style="opacity:1" fill="#c2c3c2" d="M 370.5,641.5 C 369.041,641.567 367.708,641.234 366.5,640.5C 367.183,638.824 368.517,638.157 370.5,638.5C 370.5,639.5 370.5,640.5 370.5,641.5 Z"/></g>
<g><path style="opacity:1" fill="#c2c3c2" d="M 368.5,646.5 C 369.5,646.5 370.5,646.5 371.5,646.5C 371.426,650.541 370.093,651.208 367.5,648.5C 367.863,647.817 368.196,647.15 368.5,646.5 Z"/></g>
<g><path style="opacity:1" fill="#c2c3c2" d="M 369.5,654.5 C 372.861,655.203 373.194,656.537 370.5,658.5C 368.358,657.563 368.024,656.23 369.5,654.5 Z"/></g>
</svg>
