<?xml version="1.0" encoding="UTF-8"?>
<!DOCTYPE svg PUBLIC "-//W3C//DTD SVG 1.1//EN" "http://www.w3.org/Graphics/SVG/1.1/DTD/svg11.dtd">
<svg xmlns="http://www.w3.org/2000/svg" version="1.1" width="600px" height="631px" style="shape-rendering:geometricPrecision; text-rendering:geometricPrecision; image-rendering:optimizeQuality; fill-rule:evenodd; clip-rule:evenodd" xmlns:xlink="http://www.w3.org/1999/xlink">
<g><path style="opacity:1" fill="#fefffe" d="M 173.5,35.5 C 184.284,32.4101 191.451,36.0768 195,46.5C 195.699,56.5142 195.533,66.5142 194.5,76.5C 194.833,78.1667 195.167,79.8333 195.5,81.5C 200.822,82.9232 203.155,86.4232 202.5,92C 201.61,96.9463 200.277,101.78 198.5,106.5C 200.266,117.338 200.6,128.171 199.5,139C 202.962,141.56 204.296,145.06 203.5,149.5C 204.861,156.133 202.195,159.467 195.5,159.5C 194.294,165.426 196.46,169.426 202,171.5C 202.495,173.473 202.662,175.473 202.5,177.5C 205.665,176.964 208.331,177.797 210.5,180C 296.198,190.421 381.865,201.087 467.5,212C 468.499,214.761 470.499,216.094 473.5,216C 511.311,221.857 548.977,228.357 586.5,235.5C 588.697,240.897 589.031,246.397 587.5,252C 581.362,252.849 575.195,253.349 569,253.5C 513.821,248.971 458.654,244.471 403.5,240C 388.345,236.402 373.012,233.902 357.5,232.5C 355.912,233.01 354.745,234.01 354,235.5C 345.48,251.697 334.646,266.197 321.5,279C 308.167,286.667 294.833,294.333 281.5,302C 275.833,302.667 270.167,302.667 264.5,302C 256.405,299.773 248.072,298.439 239.5,298C 232.303,295.483 225.47,292.316 219,288.5C 216.094,289.383 214.927,291.383 215.5,294.5C 213.571,294.231 211.905,294.731 210.5,296C 214.889,301.389 218.889,307.056 222.5,313C 229.167,313.333 235.833,313.667 242.5,314C 244.794,316.718 245.794,319.885 245.5,323.5C 247.924,323.192 250.257,323.526 252.5,324.5C 253.645,327.748 254.479,331.081 255,334.5C 256.573,353.466 256.906,372.466 256,391.5C 253.07,393.066 249.903,393.9 246.5,394C 245.833,394.667 245.167,395.333 244.5,396C 234.916,396.009 225.583,397.176 216.5,399.5C 215.871,413.028 214.871,426.528 213.5,440C 218.767,465.808 220.767,491.808 219.5,518C 221.728,526.649 222.894,535.483 223,544.5C 224.726,548.953 226.726,553.286 229,557.5C 228.976,562.783 230.643,567.45 234,571.5C 234.667,580.5 234.667,589.5 234,598.5C 233.5,600.333 232.333,601.5 230.5,602C 220.833,602.667 211.167,602.667 201.5,602C 200.167,601.333 198.833,600.667 197.5,600C 193.841,593.846 190.841,587.346 188.5,580.5C 186.183,578.684 184.016,576.684 182,574.5C 180.253,566.946 179.42,559.279 179.5,551.5C 176.813,551.664 174.146,551.497 171.5,551C 170.874,550.25 170.374,549.416 170,548.5C 168.86,534.628 166.527,520.961 163,507.5C 162.667,500.833 162.333,494.167 162,487.5C 159.042,475.554 156.042,463.554 153,451.5C 152.082,459.178 151.082,466.844 150,474.5C 149.887,476.974 148.887,478.974 147,480.5C 147.124,487.426 145.958,494.093 143.5,500.5C 145.396,509.751 145.896,519.085 145,528.5C 143.374,531.128 141.374,533.461 139,535.5C 139.794,542.789 137.627,548.956 132.5,554C 130.913,554.862 129.246,555.529 127.5,556C 105.552,558.204 83.5523,558.87 61.5,558C 59.3333,556.5 57.1667,555 55,553.5C 54.3333,547.5 54.3333,541.5 55,535.5C 57.6643,531.368 61.4976,528.868 66.5,528C 70.3411,522.736 75.3411,518.903 81.5,516.5C 83.0884,509.896 85.9218,503.896 90,498.5C 90.3333,488.5 90.6667,478.5 91,468.5C 92.8474,460.39 94.0141,452.223 94.5,444C 92.769,432.044 93.6023,420.211 97,408.5C 97.9522,390.839 98.7855,373.172 99.5,355.5C 98.4547,338.175 98.2881,320.842 99,303.5C 99.343,300.807 100.676,298.807 103,297.5C 104.453,287.829 105.953,278.162 107.5,268.5C 106.393,261.538 105.726,254.538 105.5,247.5C 86.1748,244.253 67.8414,238.086 50.5,229C 49.8742,228.25 49.3742,227.416 49,226.5C 48.3333,220.833 48.3333,215.167 49,209.5C 53.1461,204.053 57.6461,198.886 62.5,194C 68.8777,193.245 75.211,192.245 81.5,191C 83.3945,189.225 85.0611,187.225 86.5,185C 96.1074,183.775 105.774,183.108 115.5,183C 119.386,178.314 124.386,176.481 130.5,177.5C 128.686,156.529 124.853,135.862 119,115.5C 112.825,105.705 110.825,95.0384 113,83.5C 117.172,79.9926 122.006,77.8259 127.5,77C 140.116,75.3203 152.782,74.1537 165.5,73.5C 163.66,62.3008 164.494,51.3008 168,40.5C 170.191,39.1666 172.024,37.5 173.5,35.5 Z M 235.5,219.5 C 235.56,218.957 235.893,218.624 236.5,218.5C 238.444,219.189 240.444,219.689 242.5,220C 241.789,221.255 240.956,222.421 240,223.5C 238.629,221.959 237.129,220.625 235.5,219.5 Z M 297.5,223.5 C 306.68,223.487 315.68,224.32 324.5,226C 319.459,234.583 314.292,243.083 309,251.5C 299.584,262.114 288.084,268.947 274.5,272C 284.366,257.562 290.366,241.728 292.5,224.5C 294.415,224.784 296.081,224.451 297.5,223.5 Z"/></g>
<g><path style="opacity:1" fill="#000001" d="M 177.5,39.5 C 184.426,39.9049 188.926,43.5715 191,50.5C 191.576,61.2165 191.076,71.8832 189.5,82.5C 189.608,83.4419 189.941,84.2753 190.5,85C 194.495,85.9717 197.161,88.305 198.5,92C 196.599,96.666 195.266,101.499 194.5,106.5C 195.598,112.203 195.598,117.87 194.5,123.5C 195.993,125.364 196.66,127.53 196.5,130C 196.311,133.154 195.644,136.154 194.5,139C 194.37,142.042 195.703,144.209 198.5,145.5C 200.643,152.468 197.976,155.801 190.5,155.5C 191.164,160.468 191.664,165.468 192,170.5C 193.365,172.86 195.365,174.527 198,175.5C 198.179,178.553 198.679,181.553 199.5,184.5C 201.258,183.872 202.758,182.872 204,181.5C 204.833,182.333 205.667,183.167 206.5,184C 292.198,194.421 377.865,205.087 463.5,216C 464.499,218.761 466.499,220.094 469.5,220C 507.311,225.857 544.977,232.357 582.5,239.5C 584.48,242.21 584.814,245.043 583.5,248C 578.674,248.573 573.841,249.073 569,249.5C 533.105,246.689 497.271,243.356 461.5,239.5C 455.532,240.581 449.532,240.748 443.5,240C 413.262,236.084 383.096,231.917 353,227.5C 346.084,237.663 339.417,247.997 333,258.5C 328.2,264.302 323.033,269.802 317.5,275C 304.167,282.667 290.833,290.333 277.5,298C 272.549,298.933 267.882,298.266 263.5,296C 249.402,296.979 236.735,293.312 225.5,285C 221.129,284.172 216.795,284.339 212.5,285.5C 211.691,287.071 211.357,288.738 211.5,290.5C 207.902,290.135 205.235,291.468 203.5,294.5C 209.754,304.008 216.254,313.341 223,322.5C 227.055,317.684 232.222,316.184 238.5,318C 240.794,320.718 241.794,323.885 241.5,327.5C 243.924,327.192 246.257,327.526 248.5,328.5C 249.645,331.748 250.479,335.081 251,338.5C 252.555,354.798 252.888,371.131 252,387.5C 249.07,389.066 245.903,389.9 242.5,390C 241.833,390.667 241.167,391.333 240.5,392C 235.958,392.746 231.458,392.579 227,391.5C 222.688,394.402 217.855,395.735 212.5,395.5C 211.947,411.238 210.614,426.905 208.5,442.5C 211.73,451.542 213.563,460.876 214,470.5C 215.789,486.316 216.289,502.149 215.5,518C 217.375,528.086 218.542,538.252 219,548.5C 220.726,552.953 222.726,557.286 225,561.5C 224.976,566.783 226.643,571.45 230,575.5C 230.667,581.833 230.667,588.167 230,594.5C 229.5,596.333 228.333,597.5 226.5,598C 219.5,598.667 212.5,598.667 205.5,598C 203.919,597.293 202.419,596.46 201,595.5C 197.635,589.434 194.801,583.1 192.5,576.5C 190.183,574.684 188.016,572.684 186,570.5C 184.253,562.946 183.42,555.279 183.5,547.5C 180.813,547.664 178.146,547.497 175.5,547C 174.874,546.25 174.374,545.416 174,544.5C 172.86,530.628 170.527,516.961 167,503.5C 166.667,496.833 166.333,490.167 166,483.5C 163.955,479.097 162.955,474.43 163,469.5C 161.026,464.272 159.359,458.938 158,453.5C 156.644,443.363 154.644,433.363 152,423.5C 150.084,439.164 148.084,454.831 146,470.5C 145.384,473.787 143.884,476.621 141.5,479C 142.622,482.409 142.789,485.909 142,489.5C 138.418,497.155 138.085,504.821 141,512.5C 143.178,520.266 141.178,526.599 135,531.5C 135.794,538.789 133.627,544.956 128.5,550C 126.913,550.862 125.246,551.529 123.5,552C 104.218,554.084 84.8851,554.751 65.5,554C 57.9232,549.934 56.4232,544.1 61,536.5C 63.9431,534.625 67.1098,533.125 70.5,532C 74.3411,526.736 79.3411,522.903 85.5,520.5C 87.3246,513.184 90.4913,506.518 95,500.5C 93.4161,486.068 94.5827,471.901 98.5,458C 97.1365,453.256 97.4698,448.59 99.5,444C 96.8243,433.424 97.3243,422.924 101,412.5C 101.93,390.457 103.096,368.457 104.5,346.5C 104,345.5 103.5,344.5 103,343.5C 102.333,331.5 102.333,319.5 103,307.5C 103.343,304.807 104.676,302.807 107,301.5C 108.6,290.131 110.434,278.797 112.5,267.5C 110.624,259.619 109.624,251.619 109.5,243.5C 90.1748,240.253 71.8414,234.086 54.5,225C 52.5441,221.405 52.0441,217.572 53,213.5C 57.1461,208.053 61.6461,202.886 66.5,198C 72.8777,197.245 79.211,196.245 85.5,195C 87.3945,193.225 89.0611,191.225 90.5,189C 100.107,187.775 109.774,187.108 119.5,187C 123.386,182.314 128.386,180.481 134.5,181.5C 134.032,176.63 134.698,171.964 136.5,167.5C 133.941,165.048 132.441,162.048 132,158.5C 130.704,144.683 128.371,131.016 125,117.5C 122.591,111.021 119.925,104.688 117,98.5C 116.333,94.8333 116.333,91.1667 117,87.5C 123.038,83.0407 129.871,80.5407 137.5,80C 148.491,78.3518 159.491,78.1851 170.5,79.5C 167.347,67.6578 167.847,55.9911 172,44.5C 174.191,43.1666 176.024,41.5 177.5,39.5 Z M 235.5,219.5 C 237.129,220.625 238.629,221.959 240,223.5C 240.956,222.421 241.789,221.255 242.5,220C 240.444,219.689 238.444,219.189 236.5,218.5C 235.893,218.624 235.56,218.957 235.5,219.5 Z M 297.5,223.5 C 296.081,224.451 294.415,224.784 292.5,224.5C 290.366,241.728 284.366,257.562 274.5,272C 288.084,268.947 299.584,262.114 309,251.5C 314.292,243.083 319.459,234.583 324.5,226C 315.68,224.32 306.68,223.487 297.5,223.5 Z"/></g>
<g><path style="opacity:1" fill="#72cce1" d="M 188.5,68.5 C 182.833,68.5 177.167,68.5 171.5,68.5C 170.903,68.2648 170.57,67.7648 170.5,67C 172.153,60.9004 173.487,54.7337 174.5,48.5C 178.237,43.2289 182.07,43.2289 186,48.5C 186.803,51.2442 187.803,53.9109 189,56.5C 189.357,60.5104 189.19,64.5104 188.5,68.5 Z"/></g>
<g><path style="opacity:1" fill="#fef200" d="M 171.5,68.5 C 177.167,68.5 182.833,68.5 188.5,68.5C 189.192,75.9167 187.859,82.9167 184.5,89.5C 181.496,93.1335 178.662,93.1335 176,89.5C 173.252,82.7645 171.752,75.7645 171.5,68.5 Z"/></g>
<g><path style="opacity:1" fill="#3a3941" d="M 157.5,81.5 C 162.292,81.7316 166.959,82.5649 171.5,84C 172.456,86.8771 173.789,89.5438 175.5,92C 164.64,92.4743 153.64,92.9743 142.5,93.5C 137.462,93.3727 132.462,92.8727 127.5,92C 125.956,91.7104 124.623,91.0437 123.5,90C 134.787,86.4078 146.121,83.5744 157.5,81.5 Z"/></g>
<g><path style="opacity:1" fill="#1f1e24" d="M 121.5,92.5 C 128.325,94.5227 135.325,95.5227 142.5,95.5C 159.505,94.6235 176.505,94.1235 193.5,94C 190.866,95.5863 189.199,97.9197 188.5,101C 167.865,104.666 147.198,104.999 126.5,102C 125.584,101.626 124.75,101.126 124,100.5C 123.059,97.846 122.226,95.1794 121.5,92.5 Z"/></g>
<g><path style="opacity:1" fill="#3a3a41" d="M 190.5,116.5 C 189.078,116.709 187.745,117.209 186.5,118C 184.942,121.06 182.609,123.226 179.5,124.5C 174.559,123.077 169.892,121.077 165.5,118.5C 167.189,126.033 172.023,131.033 180,133.5C 185.5,131.171 189,127.171 190.5,121.5C 192.084,126.44 191.584,131.107 189,135.5C 187.933,136.191 186.766,136.691 185.5,137C 169.213,139.769 152.879,140.102 136.5,138C 135.422,137.326 134.755,136.326 134.5,135C 133.231,124.589 130.564,114.589 126.5,105C 142.784,106.496 159.117,106.996 175.5,106.5C 179.968,104.368 184.635,104.034 189.5,105.5C 190.426,109.094 190.759,112.76 190.5,116.5 Z"/></g>
<g><path style="opacity:1" fill="#cccdcc" d="M 190.5,116.5 C 191.72,118.05 191.72,119.716 190.5,121.5C 189,127.171 185.5,131.171 180,133.5C 172.023,131.033 167.189,126.033 165.5,118.5C 169.892,121.077 174.559,123.077 179.5,124.5C 182.609,123.226 184.942,121.06 186.5,118C 187.745,117.209 189.078,116.709 190.5,116.5 Z"/></g>
<g><path style="opacity:1" fill="#1c1b20" d="M 149.5,154.5 C 150.907,157.031 152.573,159.365 154.5,161.5C 159.088,171.419 166.088,179.086 175.5,184.5C 174.365,186.213 172.698,186.88 170.5,186.5C 160.458,178.391 151.791,169.058 144.5,158.5C 143.773,156.046 142.773,153.713 141.5,151.5C 140.313,150.466 139.48,149.133 139,147.5C 138.692,148.308 138.192,148.975 137.5,149.5C 136.516,146.572 136.183,143.572 136.5,140.5C 148.14,141.58 159.807,141.746 171.5,141C 176.961,140.853 182.294,140.02 187.5,138.5C 188.769,140.695 188.769,142.861 187.5,145C 191.922,146.244 194.256,149.077 194.5,153.5C 186.116,154.245 177.783,155.412 169.5,157C 161.174,159.488 154.841,157.154 150.5,150C 155.167,149.667 159.833,149.333 164.5,149C 159.25,148.807 154.083,148.307 149,147.5C 148.535,148.931 147.701,150.097 146.5,151C 147.814,151.985 148.814,153.152 149.5,154.5 Z"/></g>
<g><path style="opacity:1" fill="#432a1c" d="M 141.5,151.5 C 142.773,153.713 143.773,156.046 144.5,158.5C 144.784,160.415 144.451,162.081 143.5,163.5C 142.883,163.611 142.383,163.944 142,164.5C 138.523,160.878 136.69,156.545 136.5,151.5C 138.167,151.5 139.833,151.5 141.5,151.5 Z"/></g>
<g><path style="opacity:1" fill="#8b5143" d="M 149.5,154.5 C 149.56,153.957 149.893,153.624 150.5,153.5C 151.415,156.467 153.415,158.3 156.5,159C 166.285,159.704 175.951,158.87 185.5,156.5C 187.03,156.64 188.03,157.307 188.5,158.5C 187.108,160.273 185.941,162.273 185,164.5C 183.818,162.643 182.151,161.643 180,161.5C 177.361,163.446 174.361,164.446 171,164.5C 165.392,163.982 159.892,162.982 154.5,161.5C 152.573,159.365 150.907,157.031 149.5,154.5 Z"/></g>
<g><path style="opacity:1" fill="#ca9d85" d="M 144.5,158.5 C 151.791,169.058 160.458,178.391 170.5,186.5C 169.791,187.404 168.791,187.737 167.5,187.5C 163.828,186.759 160.161,185.593 156.5,184C 153.182,179.185 149.515,174.685 145.5,170.5C 144.893,170.624 144.56,170.957 144.5,171.5C 143.733,170.828 143.066,169.995 142.5,169C 143.406,167.301 143.739,165.467 143.5,163.5C 144.451,162.081 144.784,160.415 144.5,158.5 Z"/></g>
<g><path style="opacity:1" fill="#c49882" d="M 188.5,158.5 C 189.791,162.601 189.791,166.601 188.5,170.5C 187.167,169.833 185.833,169.167 184.5,168.5C 181.09,168.457 177.757,168.957 174.5,170C 174.833,170.333 175.167,170.667 175.5,171C 173.833,172.667 172.167,174.333 170.5,176C 171.772,177.046 173.272,177.546 175,177.5C 178.152,177.029 181.318,176.696 184.5,176.5C 186.952,176.539 188.952,177.206 190.5,178.5C 189.87,180.75 188.87,182.75 187.5,184.5C 183.5,185.833 179.5,185.833 175.5,184.5C 166.088,179.086 159.088,171.419 154.5,161.5C 159.892,162.982 165.392,163.982 171,164.5C 174.361,164.446 177.361,163.446 180,161.5C 182.151,161.643 183.818,162.643 185,164.5C 185.941,162.273 187.108,160.273 188.5,158.5 Z"/></g>
<g><path style="opacity:1" fill="#000000" d="M 184.5,168.5 C 185.531,167.751 186.698,167.085 188,166.5C 188.167,166.833 188.333,167.167 188.5,167.5C 187.311,168.429 185.978,168.762 184.5,168.5 Z"/></g>
<g><path style="opacity:1" fill="#332117" d="M 184.5,168.5 C 185.833,169.167 187.167,169.833 188.5,170.5C 190.063,171.945 191.396,173.611 192.5,175.5C 192.068,176.71 191.401,177.71 190.5,178.5C 188.952,177.206 186.952,176.539 184.5,176.5C 181.318,176.696 178.152,177.029 175,177.5C 173.272,177.546 171.772,177.046 170.5,176C 172.167,174.333 173.833,172.667 175.5,171C 175.167,170.667 174.833,170.333 174.5,170C 177.757,168.957 181.09,168.457 184.5,168.5 Z"/></g>
<g><path style="opacity:1" fill="#6d4136" d="M 167.5,187.5 C 164.662,188.635 161.662,189.635 158.5,190.5C 151.166,186.18 146.5,179.846 144.5,171.5C 144.56,170.957 144.893,170.624 145.5,170.5C 149.515,174.685 153.182,179.185 156.5,184C 160.161,185.593 163.828,186.759 167.5,187.5 Z"/></g>
<g><path style="opacity:1" fill="#f42b13" d="M 140.5,172.5 C 143.7,175.866 146.2,179.866 148,184.5C 150.205,187.04 152.705,189.207 155.5,191C 152.898,191.977 150.398,193.144 148,194.5C 140.942,188.7 138.442,181.367 140.5,172.5 Z"/></g>
<g><path style="opacity:1" fill="#c2c3c2" d="M 192.5,175.5 C 193.583,175.539 194.583,175.873 195.5,176.5C 196.661,180.795 196.828,185.129 196,189.5C 194.622,191.213 192.955,192.547 191,193.5C 190.667,196.5 190.333,199.5 190,202.5C 186.283,206.258 183.45,205.424 181.5,200C 181.645,199.228 181.978,198.561 182.5,198C 184.615,197.443 186.615,196.609 188.5,195.5C 189.788,193.701 189.788,192.035 188.5,190.5C 188.167,189.833 187.833,189.167 187.5,188.5C 188.354,187.368 188.354,186.035 187.5,184.5C 188.87,182.75 189.87,180.75 190.5,178.5C 191.401,177.71 192.068,176.71 192.5,175.5 Z"/></g>
<g><path style="opacity:1" fill="#403f4b" d="M 130.5,186.5 C 133.572,186.183 136.572,186.516 139.5,187.5C 140.93,190.433 142.93,192.933 145.5,195C 145,195.5 144.5,196 144,196.5C 137.728,193.973 131.228,192.139 124.5,191C 126.141,188.837 128.141,187.337 130.5,186.5 Z"/></g>
<g><path style="opacity:1" fill="#c49882" d="M 187.5,188.5 C 180.958,187.706 175.958,190.04 172.5,195.5C 174.151,200.146 177.151,203.48 181.5,205.5C 182.833,206.5 184.167,207.5 185.5,208.5C 184.596,209.209 184.263,210.209 184.5,211.5C 184.158,212.338 183.492,212.672 182.5,212.5C 180.443,214.043 180.443,215.043 182.5,215.5C 182.389,216.117 182.056,216.617 181.5,217C 176.207,218.209 170.874,219.209 165.5,220C 166.888,220.889 166.722,221.389 165,221.5C 161.098,219.131 157.265,216.631 153.5,214C 150.647,212.57 147.647,211.737 144.5,211.5C 144.064,207.089 144.064,202.756 144.5,198.5C 158.228,191.48 172.561,188.147 187.5,188.5 Z"/></g>
<g><path style="opacity:1" fill="#c2c3c2" d="M 202.5,187.5 C 204.275,191.386 205.108,195.72 205,200.5C 206.457,202.658 208.29,204.491 210.5,206C 205.382,206.888 200.382,206.555 195.5,205C 199.891,199.993 202.225,194.16 202.5,187.5 Z"/></g>
<g><path style="opacity:1" fill="#45241f" d="M 187.5,188.5 C 187.833,189.167 188.167,189.833 188.5,190.5C 188.719,191.675 188.386,192.675 187.5,193.5C 184.811,194.557 182.311,195.89 180,197.5C 178.91,200.579 179.743,202.912 182.5,204.5C 182.376,205.107 182.043,205.44 181.5,205.5C 177.151,203.48 174.151,200.146 172.5,195.5C 175.958,190.04 180.958,187.706 187.5,188.5 Z"/></g>
<g><path style="opacity:1" fill="#522924" d="M 279.5,208.5 C 277.589,209.075 275.922,210.075 274.5,211.5C 273.833,215.5 273.167,219.5 272.5,223.5C 271.883,223.389 271.383,223.056 271,222.5C 270.501,216.843 270.334,211.176 270.5,205.5C 269.178,205.33 268.011,205.663 267,206.5C 266.818,212.897 266.152,219.23 265,225.5C 263.991,218.535 263.158,211.535 262.5,204.5C 261.304,206.145 260.304,207.811 259.5,209.5C 258.209,209.263 257.209,209.596 256.5,210.5C 256.5,211.167 256.167,211.5 255.5,211.5C 244.553,209.987 233.553,208.987 222.5,208.5C 210.145,209.28 197.812,210.28 185.5,211.5C 185.167,211.5 184.833,211.5 184.5,211.5C 184.263,210.209 184.596,209.209 185.5,208.5C 191.758,205.982 194.258,201.316 193,194.5C 195.292,193.21 197.292,191.543 199,189.5C 199.667,191.167 199.667,192.833 199,194.5C 197.333,197.5 195.667,200.5 194,203.5C 193.333,204.5 193.333,205.5 194,206.5C 196.587,208.014 199.42,208.68 202.5,208.5C 205.855,208.276 209.188,207.943 212.5,207.5C 212.057,204.376 210.39,202.043 207.5,200.5C 206.691,198.929 206.357,197.262 206.5,195.5C 252.487,201.036 298.487,206.536 344.5,212C 342.622,213.543 341.122,215.376 340,217.5C 326.269,215.673 312.436,214.339 298.5,213.5C 294.296,213.926 290.129,214.593 286,215.5C 281.55,215.219 279.384,212.886 279.5,208.5 Z"/></g>
<g><path style="opacity:1" fill="#c2c3c2" d="M 206.5,189.5 C 281.156,198.665 355.823,207.832 430.5,217C 431.308,217.308 431.975,217.808 432.5,218.5C 430.344,222.889 430.011,227.389 431.5,232C 429.888,232.72 428.388,232.554 427,231.5C 426.595,227.787 426.595,224.121 427,220.5C 353.621,210.89 280.121,201.89 206.5,193.5C 206.5,192.167 206.5,190.833 206.5,189.5 Z"/></g>
<g><path style="opacity:1" fill="#403f4b" d="M 98.5,234.5 C 83.5314,232.016 69.8647,226.516 57.5,218C 61.8333,213 66.1667,208 70.5,203C 76.8777,202.245 83.211,201.245 89.5,200C 91.8598,198.635 93.5265,196.635 94.5,194C 107.225,191.836 119.892,192.169 132.5,195C 124.068,199.931 117.068,206.431 111.5,214.5C 115.38,219.776 120.38,223.609 126.5,226C 121.189,227.072 115.855,228.072 110.5,229C 106.05,230.061 102.05,231.895 98.5,234.5 Z"/></g>
<g><path style="opacity:1" fill="#403f4b" d="M 134.5,195.5 C 135.376,195.369 136.043,195.702 136.5,196.5C 130.462,201.537 125.129,207.203 120.5,213.5C 125.093,218.59 130.426,222.757 136.5,226C 127.749,225.123 120.416,221.289 114.5,214.5C 119.925,206.739 126.591,200.406 134.5,195.5 Z"/></g>
<g><path style="opacity:1" fill="#403f4b" d="M 139.5,196.5 C 140.117,196.611 140.617,196.944 141,197.5C 141.934,205.176 142.934,212.843 144,220.5C 145.333,221.833 146.667,221.833 148,220.5C 149.135,223.901 147.968,225.901 144.5,226.5C 136.378,223.941 129.378,219.608 123.5,213.5C 128.179,207.157 133.512,201.49 139.5,196.5 Z"/></g>
<g><path style="opacity:1" fill="#c29680" d="M 272.5,223.5 C 272.987,224.473 273.487,225.473 274,226.5C 274.499,221.511 274.666,216.511 274.5,211.5C 275.922,210.075 277.589,209.075 279.5,208.5C 279.322,215.423 280.322,222.089 282.5,228.5C 281.627,230.413 280.627,232.247 279.5,234C 274.385,235.538 269.385,237.372 264.5,239.5C 258.43,237.595 254.097,233.762 251.5,228C 253.487,226.681 254.654,224.848 255,222.5C 255.499,218.848 255.665,215.182 255.5,211.5C 256.167,211.5 256.5,211.167 256.5,210.5C 258.275,214.386 259.108,218.72 259,223.5C 259.499,218.845 259.666,214.179 259.5,209.5C 260.304,207.811 261.304,206.145 262.5,204.5C 263.158,211.535 263.991,218.535 265,225.5C 266.152,219.23 266.818,212.897 267,206.5C 268.011,205.663 269.178,205.33 270.5,205.5C 270.334,211.176 270.501,216.843 271,222.5C 271.383,223.056 271.883,223.389 272.5,223.5 Z"/></g>
<g><path style="opacity:1" fill="#000000" d="M 256.5,210.5 C 257.209,209.596 258.209,209.263 259.5,209.5C 259.666,214.179 259.499,218.845 259,223.5C 259.108,218.72 258.275,214.386 256.5,210.5 Z"/></g>
<g><path style="opacity:1" fill="#35343b" d="M 239.5,241.5 C 239.419,247.023 239.752,252.523 240.5,258C 240.577,260.051 240.077,261.884 239,263.5C 235.875,255.132 232.541,246.799 229,238.5C 225.219,234.371 221.052,233.705 216.5,236.5C 215.503,236.53 214.836,236.03 214.5,235C 212.025,227.242 209.359,219.575 206.5,212C 208.355,211.578 210.189,211.078 212,210.5C 220.71,214.878 227.044,221.545 231,230.5C 233.067,233.07 235.567,235.07 238.5,236.5C 239.452,238.045 239.785,239.712 239.5,241.5 Z"/></g>
<g><path style="opacity:1" fill="#fef200" d="M 184.5,211.5 C 184.833,211.5 185.167,211.5 185.5,211.5C 187.635,213.369 190.302,214.036 193.5,213.5C 193.5,214.833 193.5,216.167 193.5,217.5C 192.833,217.5 192.5,217.833 192.5,218.5C 190.5,218.5 188.5,218.5 186.5,218.5C 185.564,217.026 184.23,216.026 182.5,215.5C 182.5,214.5 182.5,213.5 182.5,212.5C 183.492,212.672 184.158,212.338 184.5,211.5 Z"/></g>
<g><path style="opacity:0" fill="#27282d" d="M 338.5,225.5 C 339.552,225.649 340.552,225.483 341.5,225C 343.37,222.96 345.37,221.127 347.5,219.5C 348.097,219.735 348.43,220.235 348.5,221C 339.293,239.077 327.626,255.41 313.5,270C 299.918,277.707 286.418,285.54 273,293.5C 271.491,292.91 269.991,292.244 268.5,291.5C 251.415,292.624 236.915,287.29 225,275.5C 213.587,259.674 205.087,242.34 199.5,223.5C 200.993,222.859 201.993,221.859 202.5,220.5C 203.586,220.38 204.253,219.713 204.5,218.5C 203.604,216.199 203.438,213.866 204,211.5C 208.47,224.576 213.136,237.576 218,250.5C 221.582,258.003 225.915,265.003 231,271.5C 232.375,278.867 236.875,282.701 244.5,283C 248.225,283.76 251.892,283.593 255.5,282.5C 258.861,283.852 262.361,284.518 266,284.5C 286.602,283.537 303.935,275.203 318,259.5C 325.111,248.269 331.944,236.936 338.5,225.5 Z M 297.5,223.5 C 296.081,224.451 294.415,224.784 292.5,224.5C 290.366,241.728 284.366,257.562 274.5,272C 288.084,268.947 299.584,262.114 309,251.5C 314.292,243.083 319.459,234.583 324.5,226C 315.68,224.32 306.68,223.487 297.5,223.5 Z"/></g>
<g><path style="opacity:1" fill="#000000" d="M 274.5,211.5 C 274.666,216.511 274.499,221.511 274,226.5C 273.487,225.473 272.987,224.473 272.5,223.5C 273.167,219.5 273.833,215.5 274.5,211.5 Z"/></g>
<g><path style="opacity:1" fill="#000000" d="M 182.5,212.5 C 182.5,213.5 182.5,214.5 182.5,215.5C 180.443,215.043 180.443,214.043 182.5,212.5 Z"/></g>
<g><path style="opacity:1" fill="#fec90d" d="M 202.5,220.5 C 201.142,221.626 199.808,221.626 198.5,220.5C 196.416,218.155 195.083,215.489 194.5,212.5C 197.167,212.5 199.833,212.5 202.5,212.5C 202.957,215.309 202.957,217.976 202.5,220.5 Z"/></g>
<g><path style="opacity:1" fill="#fefffe" d="M 223.5,213.5 C 224.097,212.861 224.93,212.528 226,212.5C 234.143,214.016 242.309,215.349 250.5,216.5C 250.554,219.967 249.054,222.634 246,224.5C 244.734,227.466 243.567,230.466 242.5,233.5C 237.747,230.003 233.914,225.67 231,220.5C 228.63,217.961 226.13,215.628 223.5,213.5 Z M 235.5,219.5 C 237.129,220.625 238.629,221.959 240,223.5C 240.956,222.421 241.789,221.255 242.5,220C 240.444,219.689 238.444,219.189 236.5,218.5C 235.893,218.624 235.56,218.957 235.5,219.5 Z"/></g>
<g><path style="opacity:1" fill="#562c25" d="M 349.5,213.5 C 374.717,215.321 400.05,218.154 425.5,222C 424.544,225.394 424.211,228.894 424.5,232.5C 399.986,227.797 375.319,224.13 350.5,221.5C 350.806,218.615 350.473,215.948 349.5,213.5 Z"/></g>
<g><path style="opacity:1" fill="#fec90d" d="M 347.5,219.5 C 345.37,221.127 343.37,222.96 341.5,225C 340.552,225.483 339.552,225.649 338.5,225.5C 338.929,221.976 340.429,218.976 343,216.5C 344.444,214.845 346.278,214.178 348.5,214.5C 348.634,216.292 348.301,217.958 347.5,219.5 Z"/></g>
<g><path style="opacity:1" fill="#202125" d="M 193.5,217.5 C 194.804,218.987 195.97,220.654 197,222.5C 202.143,241.45 210.476,258.784 222,274.5C 222.982,275.759 223.315,277.092 223,278.5C 218.251,279.305 213.418,279.805 208.5,280C 207.406,281.78 206.406,283.614 205.5,285.5C 197.075,275.409 191.408,263.909 188.5,251C 190.894,249.048 192.394,246.548 193,243.5C 193.433,235.765 192.933,228.098 191.5,220.5C 191.863,219.817 192.196,219.15 192.5,218.5C 192.5,217.833 192.833,217.5 193.5,217.5 Z"/></g>
<g><path style="opacity:1" fill="#c2c3c2" d="M 435.5,217.5 C 439.142,218.08 442.809,218.58 446.5,219C 443.45,223.848 442.784,229.014 444.5,234.5C 440.881,233.756 437.215,233.423 433.5,233.5C 431.71,227.818 432.377,222.485 435.5,217.5 Z"/></g>
<g><path style="opacity:1" fill="#403e4b" d="M 186.5,218.5 C 187.568,219.434 188.901,219.768 190.5,219.5C 190.764,227.182 190.931,234.849 191,242.5C 190.144,245.714 188.644,248.547 186.5,251C 189.25,263.774 194.583,275.274 202.5,285.5C 200.803,286.364 199.637,287.697 199,289.5C 198.667,294.167 198.333,298.833 198,303.5C 183.317,281.747 169.483,259.747 156.5,237.5C 159.041,232.918 161.707,228.418 164.5,224C 171.764,221.844 179.097,220.011 186.5,218.5 Z"/></g>
<g><path style="opacity:1" fill="#fefffe" d="M 297.5,218.5 C 309.167,219.477 320.834,220.643 332.5,222C 326.631,233.576 320.131,244.743 313,255.5C 299.528,270.669 283.028,278.169 263.5,278C 276.445,262.281 284.612,244.448 288,224.5C 286.978,223.646 286.145,222.646 285.5,221.5C 289.71,220.822 293.71,219.822 297.5,218.5 Z M 297.5,223.5 C 296.081,224.451 294.415,224.784 292.5,224.5C 290.366,241.728 284.366,257.562 274.5,272C 288.084,268.947 299.584,262.114 309,251.5C 314.292,243.083 319.459,234.583 324.5,226C 315.68,224.32 306.68,223.487 297.5,223.5 Z"/></g>
<g><path style="opacity:1" fill="#c2c3c2" d="M 448.5,219.5 C 453.072,219.105 457.072,220.272 460.5,223C 498.833,229.333 537.167,235.667 575.5,242C 578.003,242.129 580.003,243.129 581.5,245C 545.13,243.164 508.797,240.497 472.5,237C 465.642,234.434 458.642,233.934 451.5,235.5C 450.167,235.167 448.833,234.833 447.5,234.5C 444.804,229.306 445.138,224.306 448.5,219.5 Z"/></g>
<g><path style="opacity:1" fill="#870014" d="M 148.5,227.5 C 149.497,227.47 150.164,227.97 150.5,229C 153.029,235.225 155.696,241.392 158.5,247.5C 174.916,272.269 191.416,297.269 208,322.5C 216.254,333.425 225.254,343.758 235,353.5C 237.152,356.033 237.652,358.7 236.5,361.5C 232.808,362.029 229.642,361.029 227,358.5C 209.129,337.967 192.796,316.3 178,293.5C 168.333,278.167 158.667,262.833 149,247.5C 146.627,241.381 144.461,235.214 142.5,229C 144.708,228.809 146.708,228.309 148.5,227.5 Z"/></g>
<g><path style="opacity:1" fill="#141516" d="M 98.5,234.5 C 104.208,233.322 109.874,231.822 115.5,230C 121.149,229.243 126.816,228.743 132.5,228.5C 132.478,232.436 133.478,236.103 135.5,239.5C 129.667,247.167 123.833,254.833 118,262.5C 115.488,254.733 114.321,246.733 114.5,238.5C 108.906,237.768 103.573,236.435 98.5,234.5 Z"/></g>
<g><path style="opacity:1" fill="#403f4b" d="M 249.5,230.5 C 253.054,236.042 258.054,239.709 264.5,241.5C 269.05,239.928 273.55,238.262 278,236.5C 277.985,239.57 277.318,242.57 276,245.5C 265.857,250.127 257.857,247.46 252,237.5C 250.864,235.257 250.03,232.924 249.5,230.5 Z"/></g>
<g><path style="opacity:1" fill="#403f4b" d="M 239.5,241.5 C 240.29,240.391 240.79,239.058 241,237.5C 245.667,239.5 249,242.833 251,247.5C 253.205,250.04 255.705,252.207 258.5,254C 262.903,254.064 267.236,254.231 271.5,254.5C 267.167,261.167 262.833,267.833 258.5,274.5C 247.25,276.027 237.417,273.027 229,265.5C 222.504,256.542 218.337,246.876 216.5,236.5C 221.052,233.705 225.219,234.371 229,238.5C 232.541,246.799 235.875,255.132 239,263.5C 240.077,261.884 240.577,260.051 240.5,258C 239.752,252.523 239.419,247.023 239.5,241.5 Z"/></g>
<g><path style="opacity:1" fill="#202125" d="M 141.5,235.5 C 143.809,240.732 146.143,246.065 148.5,251.5C 137.146,264.353 125.98,277.353 115,290.5C 115.545,281.762 116.879,273.095 119,264.5C 126.715,254.958 134.215,245.291 141.5,235.5 Z"/></g>
<g><path style="opacity:1" fill="#403f4b" d="M 247.5,236.5 C 250.917,239.755 254.25,243.255 257.5,247C 259.5,248 261.5,249 263.5,250C 267.167,249.667 270.833,249.333 274.5,249C 266.591,254.351 259.424,253.517 253,246.5C 250.361,243.55 248.527,240.217 247.5,236.5 Z"/></g>
<g><path style="opacity:1" fill="#202125" d="M 149.5,253.5 C 165.077,277.595 180.911,301.595 197,325.5C 205.624,336.46 214.624,347.126 224,357.5C 224.167,359.667 224.333,361.833 224.5,364C 224.419,366.625 223.752,368.959 222.5,371C 224.183,374.892 225.183,379.059 225.5,383.5C 221.141,388.755 215.475,391.255 208.5,391C 202.884,397.148 197.218,397.481 191.5,392C 189.241,387.441 188.075,382.607 188,377.5C 187.119,357.407 186.452,337.407 186,317.5C 171.143,298.958 157.643,279.458 145.5,259C 146.965,257.226 148.298,255.392 149.5,253.5 Z"/></g>
<g><path style="opacity:1" fill="#393742" d="M 143.5,260.5 C 145.019,263.021 146.686,265.521 148.5,268C 147.552,268.483 146.552,268.649 145.5,268.5C 145.275,272.056 146.108,272.39 148,269.5C 158.87,280.65 156.87,283.316 142,277.5C 137.394,279.634 132.894,279.634 128.5,277.5C 130.167,275.167 132.167,273.167 134.5,271.5C 136.768,272.544 139.101,272.711 141.5,272C 140.663,270.989 140.33,269.822 140.5,268.5C 139.127,268.657 137.793,268.49 136.5,268C 139.039,265.63 141.372,263.13 143.5,260.5 Z"/></g>
<g><path style="opacity:1" fill="#403f4b" d="M 124.5,281.5 C 133.54,283.219 142.54,284.553 151.5,285.5C 154.196,284.379 156.863,284.379 159.5,285.5C 161.623,288.246 163.623,291.079 165.5,294C 156.443,294.86 148.277,292.694 141,287.5C 135.839,289.426 130.672,289.593 125.5,288C 123.714,287.804 122.381,286.971 121.5,285.5C 122.524,284.148 123.524,282.815 124.5,281.5 Z"/></g>
<g><path style="opacity:1" fill="#403e4b" d="M 145.5,386.5 C 142.333,390.436 138.667,393.936 134.5,397C 134.833,397.333 135.167,397.667 135.5,398C 132.281,401.552 129.448,405.385 127,409.5C 123.417,420.258 121.417,431.258 121,442.5C 121.984,444.795 122.817,444.461 123.5,441.5C 135.075,430.933 143.408,418.266 148.5,403.5C 149.898,404.777 150.564,406.443 150.5,408.5C 148.492,415.177 146.492,421.844 144.5,428.5C 137.35,436.093 130.183,443.759 123,451.5C 120.167,455.833 117.333,460.167 114.5,464.5C 114.833,464.833 115.167,465.167 115.5,465.5C 120.69,464.052 125.356,461.718 129.5,458.5C 130.5,458.833 131.167,459.5 131.5,460.5C 129.192,463.975 126.692,467.308 124,470.5C 120.201,473.297 116.701,476.464 113.5,480C 116.524,483.198 120.191,484.198 124.5,483C 128.116,481.189 131.783,479.689 135.5,478.5C 136.162,480.47 136.828,482.47 137.5,484.5C 136.481,486.604 135.481,488.604 134.5,490.5C 130.333,488.222 126,488.055 121.5,490C 115.957,495.874 110.79,502.041 106,508.5C 105.333,509.5 105.333,510.5 106,511.5C 115.001,506.589 123.834,501.589 132.5,496.5C 133.5,503.845 134.833,511.178 136.5,518.5C 134.426,525.377 129.759,528.544 122.5,528C 111.221,530.268 100.887,528.268 91.5,522C 94.0639,514.213 97.3972,506.88 101.5,500C 100.552,494.365 99.8855,488.699 99.5,483C 100.83,474.677 102.163,466.343 103.5,458C 103.456,456.236 103.122,454.569 102.5,453C 104.491,450.517 105.491,447.684 105.5,444.5C 105.009,440.528 104.009,436.695 102.5,433C 103.539,427.472 104.706,421.972 106,416.5C 107.024,393.158 108.191,369.825 109.5,346.5C 107.504,334.951 107.004,323.284 108,311.5C 108.518,308.977 109.852,306.977 112,305.5C 111.862,298.49 114.362,292.823 119.5,288.5C 122.035,290.85 125.035,292.35 128.5,293C 136.372,293.174 144.039,294.508 151.5,297C 156.167,297.667 160.833,297.667 165.5,297C 166,296.5 166.5,296 167,295.5C 172.667,303.167 178.333,310.833 184,318.5C 184.624,338.501 185.29,358.501 186,378.5C 186.104,384.145 187.437,389.478 190,394.5C 195.241,399.354 200.741,399.687 206.5,395.5C 206.879,411.393 205.546,427.226 202.5,443C 205.03,449.954 206.864,457.121 208,464.5C 210.376,485.137 211.376,505.803 211,526.5C 211.57,530.76 212.403,534.926 213.5,539C 206.463,541.141 199.296,542.641 192,543.5C 187.378,543.217 183.045,542.217 179,540.5C 177.86,526.628 175.527,512.961 172,499.5C 171.76,493.486 171.76,487.486 172,481.5C 169.105,476.588 167.771,471.255 168,465.5C 163.493,451.464 160.159,437.131 158,422.5C 153.11,410.605 149.943,398.272 148.5,385.5C 147.209,385.263 146.209,385.596 145.5,386.5 Z"/></g>
<g><path style="opacity:1" fill="#141416" d="M 116.5,297.5 C 124.295,300.885 132.128,301.218 140,298.5C 141.434,298.93 142.601,299.764 143.5,301C 151.659,302.298 159.659,303.964 167.5,306C 165.521,307.208 163.355,308.041 161,308.5C 154.946,307.422 148.946,306.089 143,304.5C 142,304.833 141,305.167 140,305.5C 134.538,304.736 129.038,304.236 123.5,304C 120.177,303.517 117.51,302.017 115.5,299.5C 115.863,298.817 116.196,298.15 116.5,297.5 Z"/></g>
<g><path style="opacity:1" fill="#870014" d="M 200.5,302.5 C 208.137,312.987 215.637,323.654 223,334.5C 223.667,335.5 223.667,336.5 223,337.5C 214.397,327.565 206.563,317.065 199.5,306C 200.337,304.989 200.67,303.822 200.5,302.5 Z"/></g>
<g><path style="opacity:1" fill="#151517" d="M 113.5,306.5 C 118.452,308.095 123.452,309.595 128.5,311C 132.377,311.729 136.211,311.562 140,310.5C 142.057,312.544 144.557,313.71 147.5,314C 154.482,315.536 161.482,315.703 168.5,314.5C 170.389,314.436 172.056,314.936 173.5,316C 172.672,316.915 171.672,317.581 170.5,318C 160.833,320.102 151.333,319.602 142,316.5C 141.439,317.022 140.772,317.355 140,317.5C 132.189,315.256 124.355,313.089 116.5,311C 113.781,310.195 112.781,308.695 113.5,306.5 Z"/></g>
<g><path style="opacity:1" fill="#99d9e9" d="M 233.5,333.5 C 231.833,333.5 230.167,333.5 228.5,333.5C 226.222,328.276 227.722,324.609 233,322.5C 233.772,322.645 234.439,322.978 235,323.5C 235.937,327.167 235.437,330.501 233.5,333.5 Z"/></g>
<g><path style="opacity:1" fill="#161719" d="M 165.5,327.5 C 167.745,327.541 168.412,328.375 167.5,330C 158.502,332.045 149.502,333.711 140.5,335C 142.657,333.088 144.991,331.421 147.5,330C 153.634,329.088 159.634,328.255 165.5,327.5 Z"/></g>
<g><path style="opacity:1" fill="#86becc" d="M 244.5,381.5 C 241.142,370.885 239.808,359.885 240.5,348.5C 240.5,343.167 240.5,337.833 240.5,332.5C 241.822,332.33 242.989,332.663 244,333.5C 247.515,350.011 248.349,366.678 246.5,383.5C 245.818,382.757 245.151,382.091 244.5,381.5 Z"/></g>
<g><path style="opacity:1" fill="#99d9e9" d="M 233.5,333.5 C 235.5,333.5 237.5,333.5 239.5,333.5C 239.179,338.695 239.513,343.695 240.5,348.5C 239.808,359.885 241.142,370.885 244.5,381.5C 243.448,383.256 241.781,383.923 239.5,383.5C 239.5,379.833 239.5,376.167 239.5,372.5C 236.833,372.5 234.167,372.5 231.5,372.5C 231.5,374.167 231.5,375.833 231.5,377.5C 230.539,379.265 230.205,381.265 230.5,383.5C 228.442,385.996 227.276,385.33 227,381.5C 226.169,374.808 226.336,368.142 227.5,361.5C 238.068,366.097 241.235,363.097 237,352.5C 233,348.5 229,344.5 225,340.5C 224.506,338.866 224.34,337.199 224.5,335.5C 227.689,335.142 230.689,334.475 233.5,333.5 Z"/></g>
<g><path style="opacity:1" fill="#141416" d="M 117.5,353.5 C 124.05,357.541 129.883,362.541 135,368.5C 135.315,369.908 134.982,371.241 134,372.5C 129.354,367.523 124.354,362.856 119,358.5C 117.991,356.975 117.491,355.308 117.5,353.5 Z"/></g>
<g><path style="opacity:1" fill="#1b1c1f" d="M 155.5,361.5 C 156.376,361.369 157.043,361.702 157.5,362.5C 152.979,369.215 146.979,373.715 139.5,376C 141.5,373.333 143.5,370.667 145.5,368C 149.411,366.556 152.744,364.389 155.5,361.5 Z"/></g>
<g><path style="opacity:1" fill="#7f0414" d="M 230.5,383.5 C 230.205,381.265 230.539,379.265 231.5,377.5C 232.434,376.432 232.768,375.099 232.5,373.5C 234.5,373.5 236.5,373.5 238.5,373.5C 238.867,377.967 238.367,382.3 237,386.5C 233.472,388.252 231.306,387.252 230.5,383.5 Z"/></g>
<g><path style="opacity:1" fill="#202125" d="M 145.5,386.5 C 147.452,391.873 148.452,397.54 148.5,403.5C 143.408,418.266 135.075,430.933 123.5,441.5C 122.817,444.461 121.984,444.795 121,442.5C 121.417,431.258 123.417,420.258 127,409.5C 129.448,405.385 132.281,401.552 135.5,398C 135.167,397.667 134.833,397.333 134.5,397C 138.667,393.936 142.333,390.436 145.5,386.5 Z"/></g>
<g><path style="opacity:1" fill="#202125" d="M 144.5,428.5 C 145.441,434.81 144.774,440.977 142.5,447C 143.059,447.725 143.392,448.558 143.5,449.5C 142.585,455.151 141.752,460.818 141,466.5C 138.894,470.42 137.06,474.42 135.5,478.5C 131.783,479.689 128.116,481.189 124.5,483C 120.191,484.198 116.524,483.198 113.5,480C 116.701,476.464 120.201,473.297 124,470.5C 126.692,467.308 129.192,463.975 131.5,460.5C 131.167,459.5 130.5,458.833 129.5,458.5C 125.356,461.718 120.69,464.052 115.5,465.5C 115.167,465.167 114.833,464.833 114.5,464.5C 117.333,460.167 120.167,455.833 123,451.5C 130.183,443.759 137.35,436.093 144.5,428.5 Z"/></g>
<g><path style="opacity:1" fill="#5a5868" d="M 184.5,447.5 C 195.687,446.184 201.521,451.184 202,462.5C 201.945,474.503 201.445,486.503 200.5,498.5C 201.739,507.872 201.572,517.206 200,526.5C 199.311,527.357 198.478,528.023 197.5,528.5C 196.294,518.2 195.46,507.866 195,497.5C 185.794,486.588 179.961,474.088 177.5,460C 178.812,455.206 181.146,451.039 184.5,447.5 Z"/></g>
<g><path style="opacity:1" fill="#1f2024" d="M 134.5,490.5 C 134.975,493.082 134.308,495.082 132.5,496.5C 123.834,501.589 115.001,506.589 106,511.5C 105.333,510.5 105.333,509.5 106,508.5C 110.79,502.041 115.957,495.874 121.5,490C 126,488.055 130.333,488.222 134.5,490.5 Z"/></g>
<g><path style="opacity:1" fill="#202225" d="M 90.5,524.5 C 94.1401,526.32 97.8068,528.153 101.5,530C 110.523,530.681 119.523,530.514 128.5,529.5C 130.344,535.47 129.011,540.637 124.5,545C 119.542,546.996 114.376,548.162 109,548.5C 97.8357,546.169 87.3357,542.169 77.5,536.5C 76.2747,534.157 76.9414,532.323 79.5,531C 83.2299,528.807 86.8965,526.64 90.5,524.5 Z"/></g>
<g><path style="opacity:1" fill="#202225" d="M 212.5,542.5 C 213.949,549.83 216.615,556.83 220.5,563.5C 211.348,565.562 202.348,568.062 193.5,571C 191.19,569.363 189.69,567.196 189,564.5C 187.935,558.189 187.602,551.856 188,545.5C 196.423,546.343 204.59,545.343 212.5,542.5 Z"/></g>
</svg>
