<?xml version="1.0" encoding="UTF-8"?>
<!DOCTYPE svg PUBLIC "-//W3C//DTD SVG 1.1//EN" "http://www.w3.org/Graphics/SVG/1.1/DTD/svg11.dtd">
<svg xmlns="http://www.w3.org/2000/svg" version="1.1" width="600px" height="631px" style="shape-rendering:geometricPrecision; text-rendering:geometricPrecision; image-rendering:optimizeQuality; fill-rule:evenodd; clip-rule:evenodd" xmlns:xlink="http://www.w3.org/1999/xlink">
<g><path style="opacity:1" fill="#fefffe" d="M 146.5,1.5 C 153.841,1.33368 161.174,1.50034 168.5,2C 170.074,3.82586 170.907,5.99253 171,8.5C 175.154,11.6516 178.154,15.6516 180,20.5C 182.029,27.2884 184.362,33.955 187,40.5C 194.755,51.6694 201.755,63.3361 208,75.5C 210,83.1667 210,90.8333 208,98.5C 205.227,99.9263 202.393,101.26 199.5,102.5C 198.304,103.559 197.637,104.893 197.5,106.5C 198.949,116.79 199.449,127.123 199,137.5C 198.5,138 198,138.5 197.5,139C 201.499,140.681 203.499,143.681 203.5,148C 207.537,148.568 211.37,149.735 215,151.5C 218.371,161.167 219.205,171 217.5,181C 298.729,191.987 380.062,202.32 461.5,212C 464.825,211.775 467.158,213.108 468.5,216C 506.131,222.519 543.798,228.852 581.5,235C 584.423,235.207 586.256,236.707 587,239.5C 587.793,243.423 587.626,247.256 586.5,251C 580.692,251.794 574.858,252.294 569,252.5C 526.209,248.698 483.375,245.531 440.5,243C 412.661,240.248 384.994,236.415 357.5,231.5C 355.42,231.686 353.92,232.686 353,234.5C 344.48,250.697 333.646,265.197 320.5,278C 307.167,285.667 293.833,293.333 280.5,301C 275.5,301.667 270.5,301.667 265.5,301C 257.405,298.773 249.072,297.439 240.5,297C 233.076,294.2 225.91,291.034 219,287.5C 215.346,287.789 213.846,289.789 214.5,293.5C 212.345,293.372 210.345,293.872 208.5,295C 213.705,301.908 218.538,309.074 223,316.5C 223.5,316 224,315.5 224.5,315C 230.167,314.333 235.833,314.333 241.5,315C 243.794,317.718 244.794,320.885 244.5,324.5C 246.924,324.192 249.257,324.526 251.5,325.5C 252.645,328.748 253.479,332.081 254,335.5C 255.569,353.799 255.902,372.132 255,390.5C 252.07,392.066 248.903,392.9 245.5,393C 244.833,393.667 244.167,394.333 243.5,395C 233.916,395.009 224.583,396.176 215.5,398.5C 214.832,412.355 213.832,426.188 212.5,440C 217.662,465.777 219.662,491.777 218.5,518C 220.681,527.031 221.848,536.198 222,545.5C 223.726,549.953 225.726,554.286 228,558.5C 227.976,563.783 229.643,568.45 233,572.5C 233.667,580.833 233.667,589.167 233,597.5C 232.5,599.333 231.333,600.5 229.5,601C 220.5,601.667 211.5,601.667 202.5,601C 201.167,600.333 199.833,599.667 198.5,599C 194.841,592.846 191.841,586.346 189.5,579.5C 187.183,577.684 185.016,575.684 183,573.5C 181.253,565.946 180.42,558.279 180.5,550.5C 177.813,550.664 175.146,550.497 172.5,550C 171.874,549.25 171.374,548.416 171,547.5C 169.86,533.628 167.527,519.961 164,506.5C 163.667,499.833 163.333,493.167 163,486.5C 160.955,482.097 159.955,477.43 160,472.5C 156.414,463.491 154.081,454.158 153,444.5C 151.585,454.155 150.252,463.821 149,473.5C 148.887,475.974 147.887,477.974 146,479.5C 146.074,486.742 144.907,493.742 142.5,500.5C 144.329,509.426 144.829,518.426 144,527.5C 142.374,530.128 140.374,532.461 138,534.5C 138.794,541.789 136.627,547.956 131.5,553C 129.913,553.862 128.246,554.529 126.5,555C 105.219,557.179 83.8857,557.845 62.5,557C 60.3333,555.5 58.1667,554 56,552.5C 55.3333,547.167 55.3333,541.833 56,536.5C 58.6643,532.368 62.4976,529.868 67.5,529C 71.3411,523.736 76.3411,519.903 82.5,517.5C 84.3665,509.934 87.6998,503.101 92.5,497C 91.3497,487.911 91.183,478.745 92,469.5C 93.8896,461.1 95.0563,452.6 95.5,444C 93.781,432.334 94.6144,420.834 98,409.5C 98.976,391.507 99.8093,373.507 100.5,355.5C 99.4764,338.508 99.3097,321.508 100,304.5C 100.343,301.807 101.676,299.807 104,298.5C 105.546,288.509 107.046,278.509 108.5,268.5C 107.466,261.195 106.799,253.861 106.5,246.5C 87.1748,243.253 68.8414,237.086 51.5,228C 50.8742,227.25 50.3742,226.416 50,225.5C 49.3333,220.5 49.3333,215.5 50,210.5C 54.1461,205.053 58.6461,199.886 63.5,195C 69.8777,194.245 76.211,193.245 82.5,192C 84.3945,190.225 86.0611,188.225 87.5,186C 97.1074,184.775 106.774,184.108 116.5,184C 120.386,179.314 125.386,177.481 131.5,178.5C 130.108,156.794 126.275,135.461 120,114.5C 113.887,105.389 111.887,95.3891 114,84.5C 116.875,81.537 120.375,79.7037 124.5,79C 132.097,77.3075 139.764,76.1408 147.5,75.5C 146.008,65.5462 144.841,55.5462 144,45.5C 143.225,38.9616 143.391,32.4616 144.5,26C 141.538,19.5404 140.704,12.707 142,5.5C 143.667,4.26683 145.167,2.9335 146.5,1.5 Z M 236.5,218.5 C 239.397,218.125 242.063,218.625 244.5,220C 242.959,221.579 241.792,223.413 241,225.5C 238.98,223.449 237.48,221.116 236.5,218.5 Z M 296.5,222.5 C 306.62,222.437 316.62,223.27 326.5,225C 321.126,234.25 315.626,243.416 310,252.5C 301.824,261.675 291.991,268.508 280.5,273C 277.773,273.818 275.106,273.652 272.5,272.5C 282.982,257.711 289.316,241.378 291.5,223.5C 293.415,223.784 295.081,223.451 296.5,222.5 Z"/></g>
<g><path style="opacity:1" fill="#000000" d="M 149.5,4.5 C 154.844,4.33398 160.177,4.50065 165.5,5C 167.074,6.82586 167.907,8.99253 168,11.5C 172.154,14.6516 175.154,18.6516 177,23.5C 179.029,30.2884 181.362,36.955 184,43.5C 191.755,54.6694 198.755,66.3361 205,78.5C 207,84.1667 207,89.8333 205,95.5C 201.175,96.7653 197.842,98.7653 195,101.5C 195.295,108.874 195.128,116.207 194.5,123.5C 195.993,125.364 196.66,127.53 196.5,130C 196.311,133.154 195.644,136.154 194.5,139C 194.96,141.834 196.46,144.001 199,145.5C 199.251,147.433 199.751,149.266 200.5,151C 204.537,151.568 208.37,152.735 212,154.5C 216.176,164.363 216.343,174.197 212.5,184C 296.138,194.886 379.804,205.552 463.5,216C 464.499,218.761 466.499,220.094 469.5,220C 507.311,225.857 544.977,232.357 582.5,239.5C 584.48,242.21 584.814,245.043 583.5,248C 578.674,248.573 573.841,249.073 569,249.5C 533.105,246.689 497.271,243.356 461.5,239.5C 455.532,240.581 449.532,240.748 443.5,240C 413.262,236.084 383.096,231.917 353,227.5C 346.084,237.663 339.417,247.997 333,258.5C 328.2,264.302 323.033,269.802 317.5,275C 304.167,282.667 290.833,290.333 277.5,298C 272.549,298.933 267.882,298.266 263.5,296C 249.402,296.979 236.735,293.312 225.5,285C 221.129,284.172 216.795,284.339 212.5,285.5C 211.691,287.071 211.357,288.738 211.5,290.5C 207.902,290.135 205.235,291.468 203.5,294.5C 209.754,304.008 216.254,313.341 223,322.5C 227.055,317.684 232.222,316.184 238.5,318C 240.794,320.718 241.794,323.885 241.5,327.5C 243.924,327.192 246.257,327.526 248.5,328.5C 249.645,331.748 250.479,335.081 251,338.5C 252.555,354.798 252.888,371.131 252,387.5C 249.07,389.066 245.903,389.9 242.5,390C 241.833,390.667 241.167,391.333 240.5,392C 235.958,392.746 231.458,392.579 227,391.5C 222.688,394.402 217.855,395.735 212.5,395.5C 211.947,411.238 210.614,426.905 208.5,442.5C 211.73,451.542 213.563,460.876 214,470.5C 215.789,486.316 216.289,502.149 215.5,518C 217.375,528.086 218.542,538.252 219,548.5C 220.726,552.953 222.726,557.286 225,561.5C 224.976,566.783 226.643,571.45 230,575.5C 230.667,581.833 230.667,588.167 230,594.5C 229.5,596.333 228.333,597.5 226.5,598C 219.5,598.667 212.5,598.667 205.5,598C 203.919,597.293 202.419,596.46 201,595.5C 197.635,589.434 194.801,583.1 192.5,576.5C 190.183,574.684 188.016,572.684 186,570.5C 184.253,562.946 183.42,555.279 183.5,547.5C 180.813,547.664 178.146,547.497 175.5,547C 174.874,546.25 174.374,545.416 174,544.5C 172.86,530.628 170.527,516.961 167,503.5C 166.667,496.833 166.333,490.167 166,483.5C 163.955,479.097 162.955,474.43 163,469.5C 161.026,464.272 159.359,458.938 158,453.5C 156.644,443.363 154.644,433.363 152,423.5C 150.084,439.164 148.084,454.831 146,470.5C 145.384,473.787 143.884,476.621 141.5,479C 142.622,482.409 142.789,485.909 142,489.5C 138.418,497.155 138.085,504.821 141,512.5C 143.178,520.266 141.178,526.599 135,531.5C 135.794,538.789 133.627,544.956 128.5,550C 126.913,550.862 125.246,551.529 123.5,552C 104.218,554.084 84.8851,554.751 65.5,554C 57.9232,549.934 56.4232,544.1 61,536.5C 63.9431,534.625 67.1098,533.125 70.5,532C 74.3411,526.736 79.3411,522.903 85.5,520.5C 87.3246,513.184 90.4913,506.518 95,500.5C 93.4161,486.068 94.5827,471.901 98.5,458C 97.1365,453.256 97.4698,448.59 99.5,444C 96.8243,433.424 97.3243,422.924 101,412.5C 101.93,390.457 103.096,368.457 104.5,346.5C 104,345.5 103.5,344.5 103,343.5C 102.333,331.5 102.333,319.5 103,307.5C 103.343,304.807 104.676,302.807 107,301.5C 108.6,290.131 110.434,278.797 112.5,267.5C 110.624,259.619 109.624,251.619 109.5,243.5C 90.1748,240.253 71.8414,234.086 54.5,225C 52.5441,221.405 52.0441,217.572 53,213.5C 57.1461,208.053 61.6461,202.886 66.5,198C 72.8777,197.245 79.211,196.245 85.5,195C 87.3945,193.225 89.0611,191.225 90.5,189C 100.107,187.775 109.774,187.108 119.5,187C 123.386,182.314 128.386,180.481 134.5,181.5C 134.032,176.63 134.698,171.964 136.5,167.5C 133.941,165.048 132.441,162.048 132,158.5C 130.704,144.683 128.371,131.016 125,117.5C 122.591,111.021 119.925,104.688 117,98.5C 113.992,88.844 117.492,83.344 127.5,82C 135.744,80.1757 144.077,79.0091 152.5,78.5C 147.939,61.2694 146.273,43.7694 147.5,26C 146.61,21.7486 145.61,17.582 144.5,13.5C 144.667,11.8333 144.833,10.1667 145,8.5C 146.667,7.26683 148.167,5.9335 149.5,4.5 Z M 236.5,218.5 C 237.48,221.116 238.98,223.449 241,225.5C 241.792,223.413 242.959,221.579 244.5,220C 242.063,218.625 239.397,218.125 236.5,218.5 Z M 296.5,222.5 C 295.081,223.451 293.415,223.784 291.5,223.5C 289.316,241.378 282.982,257.711 272.5,272.5C 275.106,273.652 277.773,273.818 280.5,273C 291.991,268.508 301.824,261.675 310,252.5C 315.626,243.416 321.126,234.25 326.5,225C 316.62,223.27 306.62,222.437 296.5,222.5 Z"/></g>
<g><path style="opacity:1" fill="#2a272f" d="M 153.5,9.5 C 156.187,9.33591 158.854,9.50258 161.5,10C 162.307,14.8312 164.807,18.6645 169,21.5C 172.457,28.5383 175.124,35.8716 177,43.5C 185.102,56.7735 192.768,69.7735 200,82.5C 200.684,83.7839 200.517,84.9505 199.5,86C 201.46,87.9852 201.293,90.1518 199,92.5C 198.586,92.0426 198.086,91.7093 197.5,91.5C 195.417,92.9587 193.25,94.2921 191,95.5C 190.163,97.3506 189.329,99.1839 188.5,101C 183.779,100.133 179.279,100.966 175,103.5C 169.409,99.9618 164.075,95.2951 159,89.5C 158.296,87.7216 157.796,85.8882 157.5,84C 159.098,78.6225 158.598,73.4559 156,68.5C 152.399,51.9569 151.232,35.2902 152.5,18.5C 153.873,18.6567 155.207,18.49 156.5,18C 153.19,17.9188 150.857,16.4188 149.5,13.5C 150.867,12.16 152.2,10.8267 153.5,9.5 Z"/></g>
<g><path style="opacity:1" fill="#3a3a41" d="M 151.5,83.5 C 152.5,83.5 153.5,83.5 154.5,83.5C 154.342,86.5455 155.009,89.3788 156.5,92C 146.838,93.9589 137.171,93.9589 127.5,92C 125.956,91.7104 124.623,91.0437 123.5,90C 132.639,86.4293 141.973,84.2626 151.5,83.5 Z"/></g>
<g><path style="opacity:1" fill="#1e1e23" d="M 121.5,92.5 C 125.371,93.8402 129.371,94.6735 133.5,95C 142.183,95.3685 150.85,95.3685 159.5,95C 162.203,98.038 165.203,100.705 168.5,103C 155.84,104.847 143.173,104.847 130.5,103C 124.489,102.233 121.489,98.7333 121.5,92.5 Z"/></g>
<g><path style="opacity:1" fill="#38373f" d="M 175.5,109.5 C 175.293,112.745 176.793,114.745 180,115.5C 180.49,116.793 180.657,118.127 180.5,119.5C 182.604,119.201 184.604,119.534 186.5,120.5C 185.307,122.384 183.641,122.884 181.5,122C 179,120.167 176.5,118.333 174,116.5C 173.202,118.259 173.369,119.926 174.5,121.5C 177.133,122.3 179.133,123.8 180.5,126C 177.833,128.667 175.167,131.333 172.5,134C 172.85,135.257 173.517,135.591 174.5,135C 177.131,132.023 180.131,129.523 183.5,127.5C 185.521,128.855 187.188,130.521 188.5,132.5C 189.684,133.688 189.684,134.855 188.5,136C 177.847,138.605 167.013,139.772 156,139.5C 149.053,139.693 142.22,139.027 135.5,137.5C 133.733,129.499 131.899,121.499 130,113.5C 129.22,110.488 128.053,107.655 126.5,105C 141.437,106.483 156.437,106.816 171.5,106C 173.324,106.66 174.657,107.827 175.5,109.5 Z"/></g>
<g><path style="opacity:1" fill="#bebebe" d="M 188.5,132.5 C 187.188,130.521 185.521,128.855 183.5,127.5C 180.131,129.523 177.131,132.023 174.5,135C 173.517,135.591 172.85,135.257 172.5,134C 175.167,131.333 177.833,128.667 180.5,126C 179.133,123.8 177.133,122.3 174.5,121.5C 173.369,119.926 173.202,118.259 174,116.5C 176.5,118.333 179,120.167 181.5,122C 183.641,122.884 185.307,122.384 186.5,120.5C 184.604,119.534 182.604,119.201 180.5,119.5C 180.657,118.127 180.49,116.793 180,115.5C 176.793,114.745 175.293,112.745 175.5,109.5C 177.959,105.276 181.626,103.776 186.5,105C 184.604,106.808 184.104,108.975 185,111.5C 186,112.833 187,112.833 188,111.5C 191.248,116.647 190.415,121.147 185.5,125C 187.792,126.29 189.792,127.957 191.5,130C 190.627,131.045 189.627,131.878 188.5,132.5 Z"/></g>
<g><path style="opacity:1" fill="#000000" d="M 182.5,112.5 C 184.337,112.639 184.67,113.306 183.5,114.5C 182.702,114.043 182.369,113.376 182.5,112.5 Z"/></g>
<g><path style="opacity:1" fill="#000000" d="M 179.5,106.5 C 181.484,106.484 182.484,107.484 182.5,109.5C 181.167,113.5 179.833,113.5 178.5,109.5C 178.685,108.416 179.018,107.416 179.5,106.5 Z"/></g>
<g><path style="opacity:1" fill="#1c1c21" d="M 149.5,154.5 C 150.907,157.031 152.573,159.365 154.5,161.5C 159.088,171.419 166.088,179.086 175.5,184.5C 174.365,186.213 172.698,186.88 170.5,186.5C 160.458,178.391 151.791,169.058 144.5,158.5C 143.773,156.046 142.773,153.713 141.5,151.5C 140.313,150.466 139.48,149.133 139,147.5C 138.692,148.308 138.192,148.975 137.5,149.5C 136.516,146.572 136.183,143.572 136.5,140.5C 148.14,141.58 159.807,141.746 171.5,141C 176.961,140.853 182.294,140.02 187.5,138.5C 188.769,140.695 188.769,142.861 187.5,145C 191.922,146.244 194.256,149.077 194.5,153.5C 186.116,154.245 177.783,155.412 169.5,157C 161.174,159.488 154.841,157.154 150.5,150C 155.167,149.667 159.833,149.333 164.5,149C 159.25,148.807 154.083,148.307 149,147.5C 148.535,148.931 147.701,150.097 146.5,151C 147.814,151.985 148.814,153.152 149.5,154.5 Z"/></g>
<g><path style="opacity:1" fill="#7e0414" d="M 141.5,151.5 C 142.773,153.713 143.773,156.046 144.5,158.5C 144.784,160.415 144.451,162.081 143.5,163.5C 142.883,163.611 142.383,163.944 142,164.5C 138.523,160.878 136.69,156.545 136.5,151.5C 138.167,151.5 139.833,151.5 141.5,151.5 Z"/></g>
<g><path style="opacity:1" fill="#8b5143" d="M 149.5,154.5 C 149.56,153.957 149.893,153.624 150.5,153.5C 151.415,156.467 153.415,158.3 156.5,159C 166.285,159.704 175.951,158.87 185.5,156.5C 187.03,156.64 188.03,157.307 188.5,158.5C 187.108,160.273 185.941,162.273 185,164.5C 183.818,162.643 182.151,161.643 180,161.5C 177.361,163.446 174.361,164.446 171,164.5C 165.392,163.982 159.892,162.982 154.5,161.5C 152.573,159.365 150.907,157.031 149.5,154.5 Z"/></g>
<g><path style="opacity:1" fill="#747474" d="M 196.5,176.5 C 195.292,175.766 193.959,175.433 192.5,175.5C 191.833,174.167 191.167,172.833 190.5,171.5C 190.817,167.298 190.483,163.298 189.5,159.5C 189.5,158.167 189.5,156.833 189.5,155.5C 195.455,155.255 200.955,156.588 206,159.5C 206.333,159.167 206.667,158.833 207,158.5C 208.646,162.878 209.813,167.378 210.5,172C 208.321,176.926 207.154,182.092 207,187.5C 205.667,186.833 204.667,185.833 204,184.5C 202.414,185.376 200.914,186.376 199.5,187.5C 199.112,183.411 198.112,179.744 196.5,176.5 Z"/></g>
<g><path style="opacity:1" fill="#ca9d85" d="M 144.5,158.5 C 151.791,169.058 160.458,178.391 170.5,186.5C 169.791,187.404 168.791,187.737 167.5,187.5C 163.828,186.759 160.161,185.593 156.5,184C 153.182,179.185 149.515,174.685 145.5,170.5C 144.893,170.624 144.56,170.957 144.5,171.5C 143.733,170.828 143.066,169.995 142.5,169C 143.406,167.301 143.739,165.467 143.5,163.5C 144.451,162.081 144.784,160.415 144.5,158.5 Z"/></g>
<g><path style="opacity:1" fill="#000000" d="M 189.5,159.5 C 190.483,163.298 190.817,167.298 190.5,171.5C 189.508,171.672 188.842,171.338 188.5,170.5C 189.482,167.038 189.815,163.371 189.5,159.5 Z"/></g>
<g><path style="opacity:1" fill="#c49882" d="M 188.5,158.5 C 188.5,159.167 188.833,159.5 189.5,159.5C 189.815,163.371 189.482,167.038 188.5,170.5C 187.432,169.566 186.099,169.232 184.5,169.5C 184.5,169.167 184.5,168.833 184.5,168.5C 181.09,168.457 177.757,168.957 174.5,170C 175.056,170.383 175.389,170.883 175.5,171.5C 168.867,176.894 169.867,178.561 178.5,176.5C 182.971,175.911 186.971,176.577 190.5,178.5C 189.87,180.75 188.87,182.75 187.5,184.5C 183.5,185.833 179.5,185.833 175.5,184.5C 166.088,179.086 159.088,171.419 154.5,161.5C 159.892,162.982 165.392,163.982 171,164.5C 174.361,164.446 177.361,163.446 180,161.5C 182.151,161.643 183.818,162.643 185,164.5C 185.941,162.273 187.108,160.273 188.5,158.5 Z"/></g>
<g><path style="opacity:1" fill="#000000" d="M 184.5,168.5 C 185.531,167.751 186.698,167.085 188,166.5C 188.167,166.833 188.333,167.167 188.5,167.5C 187.311,168.429 185.978,168.762 184.5,168.5 Z"/></g>
<g><path style="opacity:1" fill="#000000" d="M 184.5,168.5 C 184.5,168.833 184.5,169.167 184.5,169.5C 181.308,169.405 178.308,170.071 175.5,171.5C 175.389,170.883 175.056,170.383 174.5,170C 177.757,168.957 181.09,168.457 184.5,168.5 Z"/></g>
<g><path style="opacity:1" fill="#740913" d="M 184.5,169.5 C 186.099,169.232 187.432,169.566 188.5,170.5C 188.842,171.338 189.508,171.672 190.5,171.5C 191.167,172.833 191.833,174.167 192.5,175.5C 187.637,175.181 182.97,175.514 178.5,176.5C 169.867,178.561 168.867,176.894 175.5,171.5C 178.308,170.071 181.308,169.405 184.5,169.5 Z"/></g>
<g><path style="opacity:1" fill="#6d4136" d="M 167.5,187.5 C 164.662,188.635 161.662,189.635 158.5,190.5C 151.166,186.18 146.5,179.846 144.5,171.5C 144.56,170.957 144.893,170.624 145.5,170.5C 149.515,174.685 153.182,179.185 156.5,184C 160.161,185.593 163.828,186.759 167.5,187.5 Z"/></g>
<g><path style="opacity:1" fill="#375da6" d="M 140.5,172.5 C 143.7,175.866 146.2,179.866 148,184.5C 150.205,187.04 152.705,189.207 155.5,191C 152.898,191.977 150.398,193.144 148,194.5C 140.942,188.7 138.442,181.367 140.5,172.5 Z"/></g>
<g><path style="opacity:1" fill="#000000" d="M 178.5,176.5 C 182.97,175.514 187.637,175.181 192.5,175.5C 192.068,176.71 191.401,177.71 190.5,178.5C 186.971,176.577 182.971,175.911 178.5,176.5 Z"/></g>
<g><path style="opacity:1" fill="#c2c3c2" d="M 192.5,175.5 C 193.959,175.433 195.292,175.766 196.5,176.5C 196.666,180.846 196.499,185.179 196,189.5C 194.622,191.213 192.955,192.547 191,193.5C 190.667,196.5 190.333,199.5 190,202.5C 186.283,206.258 183.45,205.424 181.5,200C 181.645,199.228 181.978,198.561 182.5,198C 184.615,197.443 186.615,196.609 188.5,195.5C 189.788,193.701 189.788,192.035 188.5,190.5C 188.167,189.833 187.833,189.167 187.5,188.5C 188.354,187.368 188.354,186.035 187.5,184.5C 188.87,182.75 189.87,180.75 190.5,178.5C 191.401,177.71 192.068,176.71 192.5,175.5 Z"/></g>
<g><path style="opacity:1" fill="#403f4b" d="M 130.5,186.5 C 133.572,186.183 136.572,186.516 139.5,187.5C 140.93,190.433 142.93,192.933 145.5,195C 145,195.5 144.5,196 144,196.5C 137.728,193.973 131.228,192.139 124.5,191C 126.141,188.837 128.141,187.337 130.5,186.5 Z"/></g>
<g><path style="opacity:1" fill="#c49882" d="M 187.5,188.5 C 180.958,187.706 175.958,190.04 172.5,195.5C 174.151,200.146 177.151,203.48 181.5,205.5C 182.833,206.5 184.167,207.5 185.5,208.5C 184.596,209.209 184.263,210.209 184.5,211.5C 184.158,212.338 183.492,212.672 182.5,212.5C 180.443,214.043 180.443,215.043 182.5,215.5C 182.389,216.117 182.056,216.617 181.5,217C 176.207,218.209 170.874,219.209 165.5,220C 166.888,220.889 166.722,221.389 165,221.5C 161.098,219.131 157.265,216.631 153.5,214C 150.647,212.57 147.647,211.737 144.5,211.5C 144.064,207.089 144.064,202.756 144.5,198.5C 158.228,191.48 172.561,188.147 187.5,188.5 Z"/></g>
<g><path style="opacity:1" fill="#c2c3c2" d="M 202.5,187.5 C 204.275,191.386 205.108,195.72 205,200.5C 206.457,202.658 208.29,204.491 210.5,206C 205.382,206.888 200.382,206.555 195.5,205C 199.891,199.993 202.225,194.16 202.5,187.5 Z"/></g>
<g><path style="opacity:1" fill="#45241f" d="M 187.5,188.5 C 187.833,189.167 188.167,189.833 188.5,190.5C 188.719,191.675 188.386,192.675 187.5,193.5C 184.811,194.557 182.311,195.89 180,197.5C 178.91,200.579 179.743,202.912 182.5,204.5C 182.376,205.107 182.043,205.44 181.5,205.5C 177.151,203.48 174.151,200.146 172.5,195.5C 175.958,190.04 180.958,187.706 187.5,188.5 Z"/></g>
<g><path style="opacity:1" fill="#522924" d="M 279.5,208.5 C 277.589,209.075 275.922,210.075 274.5,211.5C 273.833,215.5 273.167,219.5 272.5,223.5C 271.883,223.389 271.383,223.056 271,222.5C 270.501,216.843 270.334,211.176 270.5,205.5C 269.178,205.33 268.011,205.663 267,206.5C 266.818,212.897 266.152,219.23 265,225.5C 263.991,218.535 263.158,211.535 262.5,204.5C 261.304,206.145 260.304,207.811 259.5,209.5C 258.209,209.263 257.209,209.596 256.5,210.5C 256.5,211.167 256.167,211.5 255.5,211.5C 244.553,209.987 233.553,208.987 222.5,208.5C 210.145,209.28 197.812,210.28 185.5,211.5C 185.167,211.5 184.833,211.5 184.5,211.5C 184.263,210.209 184.596,209.209 185.5,208.5C 191.758,205.982 194.258,201.316 193,194.5C 195.292,193.21 197.292,191.543 199,189.5C 199.667,191.167 199.667,192.833 199,194.5C 197.333,197.5 195.667,200.5 194,203.5C 193.333,204.5 193.333,205.5 194,206.5C 196.587,208.014 199.42,208.68 202.5,208.5C 205.855,208.276 209.188,207.943 212.5,207.5C 212.057,204.376 210.39,202.043 207.5,200.5C 206.691,198.929 206.357,197.262 206.5,195.5C 252.487,201.036 298.487,206.536 344.5,212C 342.622,213.543 341.122,215.376 340,217.5C 326.269,215.673 312.436,214.339 298.5,213.5C 294.296,213.926 290.129,214.593 286,215.5C 281.55,215.219 279.384,212.886 279.5,208.5 Z"/></g>
<g><path style="opacity:1" fill="#c2c3c2" d="M 206.5,189.5 C 281.156,198.665 355.823,207.832 430.5,217C 431.308,217.308 431.975,217.808 432.5,218.5C 430.344,222.889 430.011,227.389 431.5,232C 429.888,232.72 428.388,232.554 427,231.5C 426.595,227.787 426.595,224.121 427,220.5C 353.621,210.89 280.121,201.89 206.5,193.5C 206.5,192.167 206.5,190.833 206.5,189.5 Z"/></g>
<g><path style="opacity:1" fill="#403f4b" d="M 98.5,234.5 C 83.5314,232.016 69.8647,226.516 57.5,218C 61.8333,213 66.1667,208 70.5,203C 76.8777,202.245 83.211,201.245 89.5,200C 91.8598,198.635 93.5265,196.635 94.5,194C 107.225,191.836 119.892,192.169 132.5,195C 124.068,199.931 117.068,206.431 111.5,214.5C 115.38,219.776 120.38,223.609 126.5,226C 121.189,227.072 115.855,228.072 110.5,229C 106.05,230.061 102.05,231.895 98.5,234.5 Z"/></g>
<g><path style="opacity:1" fill="#403f4b" d="M 134.5,195.5 C 135.376,195.369 136.043,195.702 136.5,196.5C 130.462,201.537 125.129,207.203 120.5,213.5C 125.093,218.59 130.426,222.757 136.5,226C 127.749,225.123 120.416,221.289 114.5,214.5C 119.925,206.739 126.591,200.406 134.5,195.5 Z"/></g>
<g><path style="opacity:1" fill="#403f4b" d="M 139.5,196.5 C 140.117,196.611 140.617,196.944 141,197.5C 141.934,205.176 142.934,212.843 144,220.5C 145.333,221.833 146.667,221.833 148,220.5C 149.135,223.901 147.968,225.901 144.5,226.5C 136.378,223.941 129.378,219.608 123.5,213.5C 128.179,207.157 133.512,201.49 139.5,196.5 Z"/></g>
<g><path style="opacity:1" fill="#c29680" d="M 272.5,223.5 C 272.987,224.473 273.487,225.473 274,226.5C 274.499,221.511 274.666,216.511 274.5,211.5C 275.922,210.075 277.589,209.075 279.5,208.5C 279.322,215.423 280.322,222.089 282.5,228.5C 281.627,230.413 280.627,232.247 279.5,234C 274.385,235.538 269.385,237.372 264.5,239.5C 258.43,237.595 254.097,233.762 251.5,228C 253.487,226.681 254.654,224.848 255,222.5C 255.499,218.848 255.665,215.182 255.5,211.5C 256.167,211.5 256.5,211.167 256.5,210.5C 258.275,214.386 259.108,218.72 259,223.5C 259.499,218.845 259.666,214.179 259.5,209.5C 260.304,207.811 261.304,206.145 262.5,204.5C 263.158,211.535 263.991,218.535 265,225.5C 266.152,219.23 266.818,212.897 267,206.5C 268.011,205.663 269.178,205.33 270.5,205.5C 270.334,211.176 270.501,216.843 271,222.5C 271.383,223.056 271.883,223.389 272.5,223.5 Z"/></g>
<g><path style="opacity:1" fill="#000000" d="M 256.5,210.5 C 257.209,209.596 258.209,209.263 259.5,209.5C 259.666,214.179 259.499,218.845 259,223.5C 259.108,218.72 258.275,214.386 256.5,210.5 Z"/></g>
<g><path style="opacity:1" fill="#35343b" d="M 239.5,241.5 C 239.419,247.023 239.752,252.523 240.5,258C 240.577,260.051 240.077,261.884 239,263.5C 235.875,255.132 232.541,246.799 229,238.5C 225.219,234.371 221.052,233.705 216.5,236.5C 215.503,236.53 214.836,236.03 214.5,235C 212.025,227.242 209.359,219.575 206.5,212C 208.355,211.578 210.189,211.078 212,210.5C 220.71,214.878 227.044,221.545 231,230.5C 233.067,233.07 235.567,235.07 238.5,236.5C 239.452,238.045 239.785,239.712 239.5,241.5 Z"/></g>
<g><path style="opacity:1" fill="#b87a56" d="M 217.5,211.5 C 219.948,210.527 222.615,210.194 225.5,210.5C 225.75,213.214 225.917,215.881 226,218.5C 223.584,215.577 220.75,213.243 217.5,211.5 Z"/></g>
<g><path style="opacity:1" fill="#fef200" d="M 184.5,211.5 C 184.833,211.5 185.167,211.5 185.5,211.5C 187.635,213.369 190.302,214.036 193.5,213.5C 193.5,214.833 193.5,216.167 193.5,217.5C 192.833,217.5 192.5,217.833 192.5,218.5C 190.5,218.5 188.5,218.5 186.5,218.5C 186.5,217.833 186.167,217.5 185.5,217.5C 184.71,216.599 183.71,215.932 182.5,215.5C 182.5,214.5 182.5,213.5 182.5,212.5C 183.492,212.672 184.158,212.338 184.5,211.5 Z"/></g>
<g><path style="opacity:0" fill="#27282d" d="M 338.5,225.5 C 339.552,225.649 340.552,225.483 341.5,225C 343.37,222.96 345.37,221.127 347.5,219.5C 348.097,219.735 348.43,220.235 348.5,221C 339.293,239.077 327.626,255.41 313.5,270C 299.918,277.707 286.418,285.54 273,293.5C 271.491,292.91 269.991,292.244 268.5,291.5C 251.415,292.624 236.915,287.29 225,275.5C 213.587,259.674 205.087,242.34 199.5,223.5C 200.993,222.859 201.993,221.859 202.5,220.5C 203.586,220.38 204.253,219.713 204.5,218.5C 203.604,216.199 203.438,213.866 204,211.5C 208.47,224.576 213.136,237.576 218,250.5C 221.582,258.003 225.915,265.003 231,271.5C 232.375,278.867 236.875,282.701 244.5,283C 248.225,283.76 251.892,283.593 255.5,282.5C 258.861,283.852 262.361,284.518 266,284.5C 286.602,283.537 303.935,275.203 318,259.5C 325.111,248.269 331.944,236.936 338.5,225.5 Z M 296.5,222.5 C 295.081,223.451 293.415,223.784 291.5,223.5C 289.316,241.378 282.982,257.711 272.5,272.5C 275.106,273.652 277.773,273.818 280.5,273C 291.991,268.508 301.824,261.675 310,252.5C 315.626,243.416 321.126,234.25 326.5,225C 316.62,223.27 306.62,222.437 296.5,222.5 Z"/></g>
<g><path style="opacity:1" fill="#000000" d="M 274.5,211.5 C 274.666,216.511 274.499,221.511 274,226.5C 273.487,225.473 272.987,224.473 272.5,223.5C 273.167,219.5 273.833,215.5 274.5,211.5 Z"/></g>
<g><path style="opacity:1" fill="#000000" d="M 182.5,212.5 C 182.5,213.5 182.5,214.5 182.5,215.5C 180.443,215.043 180.443,214.043 182.5,212.5 Z"/></g>
<g><path style="opacity:1" fill="#fec90d" d="M 202.5,220.5 C 201.142,221.626 199.808,221.626 198.5,220.5C 196.416,218.155 195.083,215.489 194.5,212.5C 197.167,212.5 199.833,212.5 202.5,212.5C 202.957,215.309 202.957,217.976 202.5,220.5 Z"/></g>
<g><path style="opacity:1" fill="#562c25" d="M 349.5,213.5 C 374.717,215.321 400.05,218.154 425.5,222C 424.544,225.394 424.211,228.894 424.5,232.5C 399.986,227.797 375.319,224.13 350.5,221.5C 350.806,218.615 350.473,215.948 349.5,213.5 Z"/></g>
<g><path style="opacity:1" fill="#fefffe" d="M 231.5,214.5 C 237.863,214.92 244.196,215.587 250.5,216.5C 250.554,219.967 249.054,222.634 246,224.5C 245.115,227 243.948,229.333 242.5,231.5C 236.012,227.675 232.345,222.008 231.5,214.5 Z M 236.5,218.5 C 237.48,221.116 238.98,223.449 241,225.5C 241.792,223.413 242.959,221.579 244.5,220C 242.063,218.625 239.397,218.125 236.5,218.5 Z"/></g>
<g><path style="opacity:1" fill="#fec90d" d="M 347.5,219.5 C 345.37,221.127 343.37,222.96 341.5,225C 340.552,225.483 339.552,225.649 338.5,225.5C 338.929,221.976 340.429,218.976 343,216.5C 344.444,214.845 346.278,214.178 348.5,214.5C 348.634,216.292 348.301,217.958 347.5,219.5 Z"/></g>
<g><path style="opacity:1" fill="#38373e" d="M 185.5,217.5 C 186.167,217.5 186.5,217.833 186.5,218.5C 187.568,219.434 188.901,219.768 190.5,219.5C 190.383,225.69 190.716,231.857 191.5,238C 191.523,244.975 188.523,249.975 182.5,253C 183.5,253.333 184.5,253.667 185.5,254C 181.854,260.124 176.52,262.124 169.5,260C 167.176,256.901 165.676,253.401 165,249.5C 163.622,247.787 161.955,246.453 160,245.5C 158.024,242.895 156.857,240.228 156.5,237.5C 159.041,232.918 161.707,228.418 164.5,224C 171.665,222.244 178.665,220.077 185.5,217.5 Z"/></g>
<g><path style="opacity:1" fill="#202125" d="M 193.5,217.5 C 194.804,218.987 195.97,220.654 197,222.5C 202.143,241.45 210.476,258.784 222,274.5C 222.982,275.759 223.315,277.092 223,278.5C 218.251,279.305 213.418,279.805 208.5,280C 207.406,281.78 206.406,283.614 205.5,285.5C 197.075,275.409 191.408,263.909 188.5,251C 190.894,249.048 192.394,246.548 193,243.5C 193.433,235.765 192.933,228.098 191.5,220.5C 191.863,219.817 192.196,219.15 192.5,218.5C 192.5,217.833 192.833,217.5 193.5,217.5 Z"/></g>
<g><path style="opacity:1" fill="#c2c3c2" d="M 435.5,217.5 C 439.142,218.08 442.809,218.58 446.5,219C 443.45,223.848 442.784,229.014 444.5,234.5C 440.881,233.756 437.215,233.423 433.5,233.5C 431.71,227.818 432.377,222.485 435.5,217.5 Z"/></g>
<g><path style="opacity:1" fill="#fefffe" d="M 297.5,218.5 C 309.167,219.477 320.834,220.643 332.5,222C 326.631,233.576 320.131,244.743 313,255.5C 299.528,270.669 283.028,278.169 263.5,278C 276.445,262.281 284.612,244.448 288,224.5C 286.978,223.646 286.145,222.646 285.5,221.5C 289.71,220.822 293.71,219.822 297.5,218.5 Z M 296.5,222.5 C 295.081,223.451 293.415,223.784 291.5,223.5C 289.316,241.378 282.982,257.711 272.5,272.5C 275.106,273.652 277.773,273.818 280.5,273C 291.991,268.508 301.824,261.675 310,252.5C 315.626,243.416 321.126,234.25 326.5,225C 316.62,223.27 306.62,222.437 296.5,222.5 Z"/></g>
<g><path style="opacity:1" fill="#c2c3c2" d="M 448.5,219.5 C 453.072,219.105 457.072,220.272 460.5,223C 498.833,229.333 537.167,235.667 575.5,242C 578.003,242.129 580.003,243.129 581.5,245C 545.13,243.164 508.797,240.497 472.5,237C 465.642,234.434 458.642,233.934 451.5,235.5C 450.167,235.167 448.833,234.833 447.5,234.5C 444.804,229.306 445.138,224.306 448.5,219.5 Z"/></g>
<g><path style="opacity:1" fill="#870014" d="M 148.5,227.5 C 149.497,227.47 150.164,227.97 150.5,229C 153.029,235.225 155.696,241.392 158.5,247.5C 174.916,272.269 191.416,297.269 208,322.5C 216.254,333.425 225.254,343.758 235,353.5C 237.152,356.033 237.652,358.7 236.5,361.5C 232.808,362.029 229.642,361.029 227,358.5C 209.129,337.967 192.796,316.3 178,293.5C 168.333,278.167 158.667,262.833 149,247.5C 146.627,241.381 144.461,235.214 142.5,229C 144.708,228.809 146.708,228.309 148.5,227.5 Z"/></g>
<g><path style="opacity:1" fill="#141516" d="M 98.5,234.5 C 104.208,233.322 109.874,231.822 115.5,230C 121.149,229.243 126.816,228.743 132.5,228.5C 132.478,232.436 133.478,236.103 135.5,239.5C 129.667,247.167 123.833,254.833 118,262.5C 115.488,254.733 114.321,246.733 114.5,238.5C 108.906,237.768 103.573,236.435 98.5,234.5 Z"/></g>
<g><path style="opacity:1" fill="#eee4af" d="M 134.5,228.5 C 142.444,228.998 143.444,231.998 137.5,237.5C 135.506,234.85 134.506,231.85 134.5,228.5 Z"/></g>
<g><path style="opacity:1" fill="#403f4b" d="M 249.5,230.5 C 253.054,236.042 258.054,239.709 264.5,241.5C 269.05,239.928 273.55,238.262 278,236.5C 277.985,239.57 277.318,242.57 276,245.5C 265.857,250.127 257.857,247.46 252,237.5C 250.864,235.257 250.03,232.924 249.5,230.5 Z"/></g>
<g><path style="opacity:1" fill="#403f4b" d="M 239.5,241.5 C 240.29,240.391 240.79,239.058 241,237.5C 245.667,239.5 249,242.833 251,247.5C 253.205,250.04 255.705,252.207 258.5,254C 262.903,254.064 267.236,254.231 271.5,254.5C 267.167,261.167 262.833,267.833 258.5,274.5C 247.25,276.027 237.417,273.027 229,265.5C 222.504,256.542 218.337,246.876 216.5,236.5C 221.052,233.705 225.219,234.371 229,238.5C 232.541,246.799 235.875,255.132 239,263.5C 240.077,261.884 240.577,260.051 240.5,258C 239.752,252.523 239.419,247.023 239.5,241.5 Z"/></g>
<g><path style="opacity:1" fill="#202125" d="M 141.5,235.5 C 143.809,240.732 146.143,246.065 148.5,251.5C 137.146,264.353 125.98,277.353 115,290.5C 115.545,281.762 116.879,273.095 119,264.5C 126.715,254.958 134.215,245.291 141.5,235.5 Z"/></g>
<g><path style="opacity:1" fill="#403f4b" d="M 247.5,236.5 C 250.917,239.755 254.25,243.255 257.5,247C 259.5,248 261.5,249 263.5,250C 267.167,249.667 270.833,249.333 274.5,249C 266.591,254.351 259.424,253.517 253,246.5C 250.361,243.55 248.527,240.217 247.5,236.5 Z"/></g>
<g><path style="opacity:1" fill="#fec90d" d="M 164.5,237.5 C 167.861,238.203 168.194,239.537 165.5,241.5C 163.358,240.563 163.024,239.23 164.5,237.5 Z"/></g>
<g><path style="opacity:1" fill="#fec90d" d="M 176.5,241.5 C 180.61,243.746 180.277,245.079 175.5,245.5C 175.433,244.041 175.766,242.708 176.5,241.5 Z"/></g>
<g><path style="opacity:1" fill="#e9dfac" d="M 149.5,253.5 C 165.077,277.595 180.911,301.595 197,325.5C 205.624,336.46 214.624,347.126 224,357.5C 224.167,359.667 224.333,361.833 224.5,364C 224.419,366.625 223.752,368.959 222.5,371C 224.183,374.892 225.183,379.059 225.5,383.5C 221.141,388.755 215.475,391.255 208.5,391C 202.884,397.148 197.218,397.481 191.5,392C 189.241,387.441 188.075,382.607 188,377.5C 187.119,357.407 186.452,337.407 186,317.5C 171.143,298.958 157.643,279.458 145.5,259C 146.965,257.226 148.298,255.392 149.5,253.5 Z"/></g>
<g><path style="opacity:1" fill="#403f4b" d="M 186.5,255.5 C 189.383,261.583 192.216,267.916 195,274.5C 197.5,278.167 200,281.833 202.5,285.5C 200.803,286.364 199.637,287.697 199,289.5C 198.667,294.167 198.333,298.833 198,303.5C 189.167,290 180.333,276.5 171.5,263C 178.525,264.155 183.525,261.655 186.5,255.5 Z"/></g>
<g><path style="opacity:1" fill="#393742" d="M 143.5,260.5 C 145.019,263.021 146.686,265.521 148.5,268C 147.552,268.483 146.552,268.649 145.5,268.5C 145.275,272.056 146.108,272.39 148,269.5C 158.87,280.65 156.87,283.316 142,277.5C 137.394,279.634 132.894,279.634 128.5,277.5C 130.167,275.167 132.167,273.167 134.5,271.5C 136.768,272.544 139.101,272.711 141.5,272C 140.663,270.989 140.33,269.822 140.5,268.5C 139.127,268.657 137.793,268.49 136.5,268C 139.039,265.63 141.372,263.13 143.5,260.5 Z"/></g>
<g><path style="opacity:1" fill="#403f4b" d="M 124.5,281.5 C 133.54,283.219 142.54,284.553 151.5,285.5C 154.196,284.379 156.863,284.379 159.5,285.5C 161.623,288.246 163.623,291.079 165.5,294C 156.443,294.86 148.277,292.694 141,287.5C 135.839,289.426 130.672,289.593 125.5,288C 123.714,287.804 122.381,286.971 121.5,285.5C 122.524,284.148 123.524,282.815 124.5,281.5 Z"/></g>
<g><path style="opacity:1" fill="#403e4b" d="M 145.5,386.5 C 142.333,390.436 138.667,393.936 134.5,397C 134.833,397.333 135.167,397.667 135.5,398C 132.281,401.552 129.448,405.385 127,409.5C 123.417,420.258 121.417,431.258 121,442.5C 121.984,444.795 122.817,444.461 123.5,441.5C 135.075,430.933 143.408,418.266 148.5,403.5C 149.898,404.777 150.564,406.443 150.5,408.5C 148.492,415.177 146.492,421.844 144.5,428.5C 137.35,436.093 130.183,443.759 123,451.5C 120.167,455.833 117.333,460.167 114.5,464.5C 114.833,464.833 115.167,465.167 115.5,465.5C 120.69,464.052 125.356,461.718 129.5,458.5C 130.5,458.833 131.167,459.5 131.5,460.5C 129.192,463.975 126.692,467.308 124,470.5C 120.201,473.297 116.701,476.464 113.5,480C 116.524,483.198 120.191,484.198 124.5,483C 128.116,481.189 131.783,479.689 135.5,478.5C 136.162,480.47 136.828,482.47 137.5,484.5C 136.481,486.604 135.481,488.604 134.5,490.5C 130.333,488.222 126,488.055 121.5,490C 115.957,495.874 110.79,502.041 106,508.5C 105.333,509.5 105.333,510.5 106,511.5C 115.001,506.589 123.834,501.589 132.5,496.5C 133.5,503.845 134.833,511.178 136.5,518.5C 134.426,525.377 129.759,528.544 122.5,528C 111.221,530.268 100.887,528.268 91.5,522C 94.0639,514.213 97.3972,506.88 101.5,500C 100.552,494.365 99.8855,488.699 99.5,483C 100.83,474.677 102.163,466.343 103.5,458C 103.456,456.236 103.122,454.569 102.5,453C 104.491,450.517 105.491,447.684 105.5,444.5C 105.009,440.528 104.009,436.695 102.5,433C 103.539,427.472 104.706,421.972 106,416.5C 107.024,393.158 108.191,369.825 109.5,346.5C 107.504,334.951 107.004,323.284 108,311.5C 108.518,308.977 109.852,306.977 112,305.5C 111.862,298.49 114.362,292.823 119.5,288.5C 122.035,290.85 125.035,292.35 128.5,293C 136.372,293.174 144.039,294.508 151.5,297C 156.167,297.667 160.833,297.667 165.5,297C 166,296.5 166.5,296 167,295.5C 172.667,303.167 178.333,310.833 184,318.5C 184.624,338.501 185.29,358.501 186,378.5C 186.104,384.145 187.437,389.478 190,394.5C 195.241,399.354 200.741,399.687 206.5,395.5C 206.879,411.393 205.546,427.226 202.5,443C 205.03,449.954 206.864,457.121 208,464.5C 210.376,485.137 211.376,505.803 211,526.5C 211.57,530.76 212.403,534.926 213.5,539C 206.463,541.141 199.296,542.641 192,543.5C 187.378,543.217 183.045,542.217 179,540.5C 177.86,526.628 175.527,512.961 172,499.5C 171.76,493.486 171.76,487.486 172,481.5C 169.105,476.588 167.771,471.255 168,465.5C 163.493,451.464 160.159,437.131 158,422.5C 153.11,410.605 149.943,398.272 148.5,385.5C 147.209,385.263 146.209,385.596 145.5,386.5 Z"/></g>
<g><path style="opacity:1" fill="#141416" d="M 116.5,297.5 C 124.295,300.885 132.128,301.218 140,298.5C 141.434,298.93 142.601,299.764 143.5,301C 151.659,302.298 159.659,303.964 167.5,306C 165.521,307.208 163.355,308.041 161,308.5C 154.946,307.422 148.946,306.089 143,304.5C 142,304.833 141,305.167 140,305.5C 134.538,304.736 129.038,304.236 123.5,304C 120.177,303.517 117.51,302.017 115.5,299.5C 115.863,298.817 116.196,298.15 116.5,297.5 Z"/></g>
<g><path style="opacity:1" fill="#870014" d="M 200.5,302.5 C 208.137,312.987 215.637,323.654 223,334.5C 223.667,335.5 223.667,336.5 223,337.5C 214.397,327.565 206.563,317.065 199.5,306C 200.337,304.989 200.67,303.822 200.5,302.5 Z"/></g>
<g><path style="opacity:1" fill="#151517" d="M 113.5,306.5 C 118.452,308.095 123.452,309.595 128.5,311C 132.377,311.729 136.211,311.562 140,310.5C 142.057,312.544 144.557,313.71 147.5,314C 154.482,315.536 161.482,315.703 168.5,314.5C 170.389,314.436 172.056,314.936 173.5,316C 172.672,316.915 171.672,317.581 170.5,318C 160.833,320.102 151.333,319.602 142,316.5C 141.439,317.022 140.772,317.355 140,317.5C 132.189,315.256 124.355,313.089 116.5,311C 113.781,310.195 112.781,308.695 113.5,306.5 Z"/></g>
<g><path style="opacity:1" fill="#99d9e9" d="M 233.5,333.5 C 231.833,333.5 230.167,333.5 228.5,333.5C 226.222,328.276 227.722,324.609 233,322.5C 233.772,322.645 234.439,322.978 235,323.5C 235.937,327.167 235.437,330.501 233.5,333.5 Z"/></g>
<g><path style="opacity:1" fill="#161719" d="M 165.5,327.5 C 167.745,327.541 168.412,328.375 167.5,330C 158.502,332.045 149.502,333.711 140.5,335C 142.657,333.088 144.991,331.421 147.5,330C 153.634,329.088 159.634,328.255 165.5,327.5 Z"/></g>
<g><path style="opacity:1" fill="#86becc" d="M 244.5,381.5 C 241.142,370.885 239.808,359.885 240.5,348.5C 240.5,343.167 240.5,337.833 240.5,332.5C 241.822,332.33 242.989,332.663 244,333.5C 247.515,350.011 248.349,366.678 246.5,383.5C 245.818,382.757 245.151,382.091 244.5,381.5 Z"/></g>
<g><path style="opacity:1" fill="#99d9e9" d="M 233.5,333.5 C 235.5,333.5 237.5,333.5 239.5,333.5C 239.179,338.695 239.513,343.695 240.5,348.5C 239.808,359.885 241.142,370.885 244.5,381.5C 243.448,383.256 241.781,383.923 239.5,383.5C 239.5,379.833 239.5,376.167 239.5,372.5C 236.833,372.5 234.167,372.5 231.5,372.5C 231.5,374.167 231.5,375.833 231.5,377.5C 230.539,379.265 230.205,381.265 230.5,383.5C 228.442,385.996 227.276,385.33 227,381.5C 226.169,374.808 226.336,368.142 227.5,361.5C 238.068,366.097 241.235,363.097 237,352.5C 233,348.5 229,344.5 225,340.5C 224.506,338.866 224.34,337.199 224.5,335.5C 227.689,335.142 230.689,334.475 233.5,333.5 Z"/></g>
<g><path style="opacity:1" fill="#141416" d="M 117.5,353.5 C 124.05,357.541 129.883,362.541 135,368.5C 135.315,369.908 134.982,371.241 134,372.5C 129.354,367.523 124.354,362.856 119,358.5C 117.991,356.975 117.491,355.308 117.5,353.5 Z"/></g>
<g><path style="opacity:1" fill="#1b1c1f" d="M 155.5,361.5 C 156.376,361.369 157.043,361.702 157.5,362.5C 152.979,369.215 146.979,373.715 139.5,376C 141.5,373.333 143.5,370.667 145.5,368C 149.411,366.556 152.744,364.389 155.5,361.5 Z"/></g>
<g><path style="opacity:1" fill="#000000" d="M 200.5,368.5 C 201.289,368.783 201.956,369.283 202.5,370C 201.184,370.528 200.517,370.028 200.5,368.5 Z"/></g>
<g><path style="opacity:1" fill="#7f0414" d="M 230.5,383.5 C 230.205,381.265 230.539,379.265 231.5,377.5C 232.434,376.432 232.768,375.099 232.5,373.5C 234.5,373.5 236.5,373.5 238.5,373.5C 238.867,377.967 238.367,382.3 237,386.5C 233.472,388.252 231.306,387.252 230.5,383.5 Z"/></g>
<g><path style="opacity:1" fill="#202125" d="M 145.5,386.5 C 147.452,391.873 148.452,397.54 148.5,403.5C 143.408,418.266 135.075,430.933 123.5,441.5C 122.817,444.461 121.984,444.795 121,442.5C 121.417,431.258 123.417,420.258 127,409.5C 129.448,405.385 132.281,401.552 135.5,398C 135.167,397.667 134.833,397.333 134.5,397C 138.667,393.936 142.333,390.436 145.5,386.5 Z"/></g>
<g><path style="opacity:1" fill="#202125" d="M 144.5,428.5 C 145.441,434.81 144.774,440.977 142.5,447C 143.059,447.725 143.392,448.558 143.5,449.5C 142.585,455.151 141.752,460.818 141,466.5C 138.894,470.42 137.06,474.42 135.5,478.5C 131.783,479.689 128.116,481.189 124.5,483C 120.191,484.198 116.524,483.198 113.5,480C 116.701,476.464 120.201,473.297 124,470.5C 126.692,467.308 129.192,463.975 131.5,460.5C 131.167,459.5 130.5,458.833 129.5,458.5C 125.356,461.718 120.69,464.052 115.5,465.5C 115.167,465.167 114.833,464.833 114.5,464.5C 117.333,460.167 120.167,455.833 123,451.5C 130.183,443.759 137.35,436.093 144.5,428.5 Z"/></g>
<g><path style="opacity:1" fill="#5a5868" d="M 184.5,447.5 C 195.687,446.184 201.521,451.184 202,462.5C 201.945,474.503 201.445,486.503 200.5,498.5C 201.739,507.872 201.572,517.206 200,526.5C 199.311,527.357 198.478,528.023 197.5,528.5C 196.294,518.2 195.46,507.866 195,497.5C 185.794,486.588 179.961,474.088 177.5,460C 178.812,455.206 181.146,451.039 184.5,447.5 Z"/></g>
<g><path style="opacity:1" fill="#1f2024" d="M 134.5,490.5 C 134.975,493.082 134.308,495.082 132.5,496.5C 123.834,501.589 115.001,506.589 106,511.5C 105.333,510.5 105.333,509.5 106,508.5C 110.79,502.041 115.957,495.874 121.5,490C 126,488.055 130.333,488.222 134.5,490.5 Z"/></g>
<g><path style="opacity:1" fill="#202225" d="M 90.5,524.5 C 94.1401,526.32 97.8068,528.153 101.5,530C 110.523,530.681 119.523,530.514 128.5,529.5C 130.344,535.47 129.011,540.637 124.5,545C 119.542,546.996 114.376,548.162 109,548.5C 97.8357,546.169 87.3357,542.169 77.5,536.5C 76.2747,534.157 76.9414,532.323 79.5,531C 83.2299,528.807 86.8965,526.64 90.5,524.5 Z"/></g>
<g><path style="opacity:1" fill="#202225" d="M 212.5,542.5 C 213.949,549.83 216.615,556.83 220.5,563.5C 211.348,565.562 202.348,568.062 193.5,571C 191.19,569.363 189.69,567.196 189,564.5C 187.935,558.189 187.602,551.856 188,545.5C 196.423,546.343 204.59,545.343 212.5,542.5 Z"/></g>
</svg>
