<?xml version="1.0" encoding="UTF-8"?>
<!DOCTYPE svg PUBLIC "-//W3C//DTD SVG 1.1//EN" "http://www.w3.org/Graphics/SVG/1.1/DTD/svg11.dtd">
<svg xmlns="http://www.w3.org/2000/svg" version="1.1" width="495px" height="295px" style="shape-rendering:geometricPrecision; text-rendering:geometricPrecision; image-rendering:optimizeQuality; fill-rule:evenodd; clip-rule:evenodd" xmlns:xlink="http://www.w3.org/1999/xlink">
<g><path style="opacity:1" fill="#fefffe" d="M 173.5,2.5 C 181.174,2.33365 188.841,2.50031 196.5,3C 204.063,4.76451 211.73,6.43117 219.5,8C 226.072,12.4179 233.072,16.0846 240.5,19C 247.439,25.6937 254.272,32.527 261,39.5C 262.197,42.0891 263.197,44.7558 264,47.5C 266.696,48.6722 268.363,50.6722 269,53.5C 275.477,53.8812 280.811,56.5478 285,61.5C 285.49,62.7932 285.657,64.1266 285.5,65.5C 295.874,63.1562 300.874,67.1562 300.5,77.5C 300.917,87.9045 295.917,92.0712 285.5,90C 281.047,94.1741 279.547,99.3407 281,105.5C 284.411,106.293 287.911,106.793 291.5,107C 292,107.5 292.5,108 293,108.5C 293.667,112.5 293.667,116.5 293,120.5C 291.509,122.004 289.676,122.837 287.5,123C 291.282,126.78 295.616,129.78 300.5,132C 305.167,132.333 309.833,132.667 314.5,133C 316.7,135.046 319.367,136.046 322.5,136C 325.939,141.391 330.939,144.224 337.5,144.5C 337.178,146.722 337.845,148.556 339.5,150C 348.833,154.333 358.167,158.667 367.5,163C 370.167,163.333 372.833,163.667 375.5,164C 377.604,164.791 378.937,166.291 379.5,168.5C 385.833,171.667 392.167,174.833 398.5,178C 403.833,178.333 409.167,178.667 414.5,179C 417.242,180.886 418.909,183.386 419.5,186.5C 426.84,186.371 434.173,186.038 441.5,185.5C 445.858,185.302 450.025,185.968 454,187.5C 461.027,185.631 468.193,185.131 475.5,186C 476.333,186.833 477.167,187.667 478,188.5C 478.667,194.167 478.667,199.833 478,205.5C 477.5,206 477,206.5 476.5,207C 471.167,207.333 465.833,207.667 460.5,208C 456.357,212.233 452.023,216.233 447.5,220C 443.751,220.708 440.084,221.708 436.5,223C 423.148,223.599 409.815,223.266 396.5,222C 392.833,220.167 389.167,218.333 385.5,216.5C 384.738,215.372 384.071,214.205 383.5,213C 377.601,209.546 371.267,207.546 364.5,207C 363.421,204.957 361.754,203.624 359.5,203C 356.167,202.667 352.833,202.333 349.5,202C 321.304,188.768 292.304,177.601 262.5,168.5C 261.989,176.854 261.156,185.188 260,193.5C 259,194.5 258,195.5 257,196.5C 256.446,201.716 255.113,206.716 253,211.5C 249.066,216.395 245.4,221.395 242,226.5C 215.296,255.406 182.129,266.906 142.5,261C 120.635,258.399 101.968,249.399 86.5,234C 75.5135,225.163 66.8468,214.33 60.5,201.5C 57.2605,199.879 55.7605,197.213 56,193.5C 55.3333,192.833 54.6667,192.167 54,191.5C 53.1315,183.482 52.1315,175.482 51,167.5C 50.5814,166.328 49.9147,165.328 49,164.5C 48.3333,157.167 48.3333,149.833 49,142.5C 49.9147,141.672 50.5814,140.672 51,139.5C 51.3333,135.833 51.6667,132.167 52,128.5C 52.6667,127.833 53.3333,127.167 54,126.5C 54.3333,123.833 54.6667,121.167 55,118.5C 60.4336,115.982 63.1003,111.649 63,105.5C 65.039,103.126 67.3723,101.126 70,99.5C 70.3333,98.1667 70.6667,96.8333 71,95.5C 74.5453,94.4602 76.3786,92.1269 76.5,88.5C 80.0982,88.8654 82.7648,87.5321 84.5,84.5C 81.5,84.1667 78.5,83.8333 75.5,83.5C 66.9826,84.5263 58.4826,84.5263 50,83.5C 42.576,85.5578 35.076,85.8911 27.5,84.5C 25.7725,81.7127 24.6058,78.7127 24,75.5C 22.9205,66.6573 23.5872,57.9907 26,49.5C 27.5,48 29,46.5 30.5,45C 38.5388,43.3424 45.8722,44.8424 52.5,49.5C 57.1113,48.3897 61.778,48.2231 66.5,49C 67.1667,49.6667 67.8333,50.3333 68.5,51C 82.5,51.6667 96.5,51.6667 110.5,51C 112.02,48.4039 112.853,45.5706 113,42.5C 113.667,40.5 115,39.1667 117,38.5C 117.059,34.0199 119.226,31.3533 123.5,30.5C 126.658,25.1794 130.658,20.6794 135.5,17C 140.29,13.971 145.29,11.3043 150.5,9C 157.775,6.94579 165.108,5.27913 172.5,4C 173.056,3.61742 173.389,3.11742 173.5,2.5 Z M 184.5,29.5 C 187.753,29.5622 190.753,30.3956 193.5,32C 192.112,35.7166 191.112,39.55 190.5,43.5C 188.076,43.8076 185.743,43.4742 183.5,42.5C 182.085,38.5912 181.085,34.5912 180.5,30.5C 182.099,30.7678 183.432,30.4345 184.5,29.5 Z M 160.5,36.5 C 164.791,41.0851 164.458,45.4184 159.5,49.5C 156.781,47.7807 154.781,45.4474 153.5,42.5C 155.678,40.2553 158.012,38.2553 160.5,36.5 Z M 210.5,37.5 C 215.168,39.1671 219.168,41.8337 222.5,45.5C 220.066,48.2226 217.399,50.7226 214.5,53C 211.421,54.0904 209.088,53.2571 207.5,50.5C 208.974,46.2693 209.974,41.936 210.5,37.5 Z M 101.5,111.5 C 105.934,116.84 110.268,122.34 114.5,128C 107.872,126.119 101.372,123.619 95,120.5C 95.732,116.582 97.8986,113.582 101.5,111.5 Z M 82.5,140.5 C 94.5808,144.695 106.581,149.195 118.5,154C 105.497,154.5 92.4968,155 79.5,155.5C 80.3721,150.473 81.3721,145.473 82.5,140.5 Z M 106.5,173.5 C 109.187,173.336 111.854,173.503 114.5,174C 106.251,178.707 98.0842,183.541 90,188.5C 87.3156,184.137 85.4822,179.47 84.5,174.5C 92.0191,174.825 99.3524,174.492 106.5,173.5 Z M 217.5,174.5 C 221.534,174.505 225.534,174.838 229.5,175.5C 229.354,179.607 228.02,183.273 225.5,186.5C 220.002,183.585 214.668,180.419 209.5,177C 212.251,176.057 214.917,175.224 217.5,174.5 Z M 126.5,191.5 C 127.239,191.369 127.906,191.536 128.5,192C 123.873,200.086 119.373,208.253 115,216.5C 111.651,213.318 108.484,209.985 105.5,206.5C 112.743,201.724 119.743,196.724 126.5,191.5 Z M 194.5,193.5 C 201.275,197.057 207.942,200.89 214.5,205C 212,207.5 209.5,210 207,212.5C 202.315,206.452 198.149,200.119 194.5,193.5 Z M 149.5,196.5 C 150.222,196.918 150.722,197.584 151,198.5C 151.889,208.835 152.722,219.168 153.5,229.5C 147.322,228.665 141.656,226.665 136.5,223.5C 141.117,214.6 145.451,205.6 149.5,196.5 Z M 170.5,198.5 C 175.773,206.793 181.106,215.126 186.5,223.5C 182.135,225.955 177.469,227.622 172.5,228.5C 171.612,218.516 170.946,208.516 170.5,198.5 Z"/></g>
<g><path style="opacity:1" fill="#000000" d="M 175.5,4.5 C 189.469,4.84998 203.469,6.68331 217.5,10C 224.072,14.4179 231.072,18.0846 238.5,21C 245.439,27.6937 252.272,34.527 259,41.5C 260.197,44.0891 261.197,46.7558 262,49.5C 264.928,50.7598 266.761,52.9265 267.5,56C 273.901,56.0188 279.068,58.5188 283,63.5C 283.333,65.1667 283.667,66.8333 284,68.5C 295.864,65.6963 300.53,70.363 298,82.5C 297.215,84.286 296.049,85.786 294.5,87C 290.579,87.203 286.745,87.703 283,88.5C 282.363,90.3031 281.197,91.6364 279.5,92.5C 278.778,96.8468 278.112,101.18 277.5,105.5C 277.977,106.478 278.643,107.311 279.5,108C 288.959,105.8 292.793,109.3 291,118.5C 287.847,120.502 284.347,121.668 280.5,122C 284.858,124.513 288.858,127.513 292.5,131C 295.5,132.5 298.5,134 301.5,135.5C 305.108,134.407 308.775,134.24 312.5,135C 314.7,137.046 317.367,138.046 320.5,138C 323.939,143.391 328.939,146.224 335.5,146.5C 335.178,148.722 335.845,150.556 337.5,152C 346.833,156.333 356.167,160.667 365.5,165C 368.167,165.333 370.833,165.667 373.5,166C 375.604,166.791 376.937,168.291 377.5,170.5C 385.411,174.372 393.245,178.372 401,182.5C 407.151,179.115 412.484,180.115 417,185.5C 417.483,186.448 417.649,187.448 417.5,188.5C 425.515,188.558 433.515,188.225 441.5,187.5C 445.791,187.437 449.958,188.103 454,189.5C 460.424,187.855 466.924,187.355 473.5,188C 474.333,188.833 475.167,189.667 476,190.5C 479.422,205.233 473.922,209.9 459.5,204.5C 453.092,213.101 444.759,218.601 434.5,221C 422.483,221.523 410.483,221.19 398.5,220C 394.833,218.167 391.167,216.333 387.5,214.5C 386.738,213.372 386.071,212.205 385.5,211C 379.601,207.546 373.267,205.546 366.5,205C 365.421,202.957 363.754,201.624 361.5,201C 350.354,199.728 340.02,196.062 330.5,190C 308.905,182.025 287.405,173.858 266,165.5C 264.301,166.406 262.467,166.739 260.5,166.5C 260.666,170.514 260.499,174.514 260,178.5C 258.978,179.354 258.145,180.354 257.5,181.5C 259.454,186.481 258.621,190.815 255,194.5C 254.446,199.716 253.113,204.716 251,209.5C 247.066,214.395 243.4,219.395 240,224.5C 214.529,252.555 182.696,264.055 144.5,259C 122.635,256.399 103.968,247.399 88.5,232C 77.5135,223.163 68.8468,212.33 62.5,199.5C 59.2605,197.879 57.7605,195.213 58,191.5C 57.3333,190.833 56.6667,190.167 56,189.5C 55.1315,181.482 54.1315,173.482 53,165.5C 49.9615,161.391 49.7949,157.224 52.5,153C 49.5204,148.194 50.1871,143.861 54.5,140C 52.8155,135.816 53.3155,131.983 56,128.5C 56.3333,125.833 56.6667,123.167 57,120.5C 62.4336,117.982 65.1003,113.649 65,107.5C 67.039,105.126 69.3723,103.126 72,101.5C 72.3333,100.167 72.6667,98.8333 73,97.5C 76.5453,96.4602 78.3786,94.1269 78.5,90.5C 83.1656,90.9452 86.1656,88.9452 87.5,84.5C 89.8622,83.7285 92.1955,82.8952 94.5,82C 79.6436,81.824 64.8102,81.6574 50,81.5C 43.2233,83.357 36.39,83.6903 29.5,82.5C 24.7711,72.3942 24.2711,62.0609 28,51.5C 31.3433,46.7817 35.8433,45.2817 41.5,47C 45.3814,49.0367 49.3814,50.87 53.5,52.5C 57.9931,49.687 62.3264,49.8537 66.5,53C 81.8333,53.6667 97.1667,53.6667 112.5,53C 114.02,50.4039 114.853,47.5706 115,44.5C 115.667,42.5 117,41.1667 119,40.5C 119.059,36.0199 121.226,33.3533 125.5,32.5C 128.658,27.1794 132.658,22.6794 137.5,19C 142.29,15.971 147.29,13.3043 152.5,11C 159.775,8.94579 167.108,7.27913 174.5,6C 175.056,5.61742 175.389,5.11742 175.5,4.5 Z M 184.5,29.5 C 183.432,30.4345 182.099,30.7678 180.5,30.5C 181.085,34.5912 182.085,38.5912 183.5,42.5C 185.743,43.4742 188.076,43.8076 190.5,43.5C 191.112,39.55 192.112,35.7166 193.5,32C 190.753,30.3956 187.753,29.5622 184.5,29.5 Z M 160.5,36.5 C 158.012,38.2553 155.678,40.2553 153.5,42.5C 154.781,45.4474 156.781,47.7807 159.5,49.5C 164.458,45.4184 164.791,41.0851 160.5,36.5 Z M 210.5,37.5 C 209.974,41.936 208.974,46.2693 207.5,50.5C 209.088,53.2571 211.421,54.0904 214.5,53C 217.399,50.7226 220.066,48.2226 222.5,45.5C 219.168,41.8337 215.168,39.1671 210.5,37.5 Z M 101.5,111.5 C 97.8986,113.582 95.732,116.582 95,120.5C 101.372,123.619 107.872,126.119 114.5,128C 110.268,122.34 105.934,116.84 101.5,111.5 Z M 82.5,140.5 C 81.3721,145.473 80.3721,150.473 79.5,155.5C 92.4968,155 105.497,154.5 118.5,154C 106.581,149.195 94.5808,144.695 82.5,140.5 Z M 106.5,173.5 C 99.3524,174.492 92.0191,174.825 84.5,174.5C 85.4822,179.47 87.3156,184.137 90,188.5C 98.0842,183.541 106.251,178.707 114.5,174C 111.854,173.503 109.187,173.336 106.5,173.5 Z M 217.5,174.5 C 214.917,175.224 212.251,176.057 209.5,177C 214.668,180.419 220.002,183.585 225.5,186.5C 228.02,183.273 229.354,179.607 229.5,175.5C 225.534,174.838 221.534,174.505 217.5,174.5 Z M 126.5,191.5 C 119.743,196.724 112.743,201.724 105.5,206.5C 108.484,209.985 111.651,213.318 115,216.5C 119.373,208.253 123.873,200.086 128.5,192C 127.906,191.536 127.239,191.369 126.5,191.5 Z M 194.5,193.5 C 198.149,200.119 202.315,206.452 207,212.5C 209.5,210 212,207.5 214.5,205C 207.942,200.89 201.275,197.057 194.5,193.5 Z M 149.5,196.5 C 145.451,205.6 141.117,214.6 136.5,223.5C 141.656,226.665 147.322,228.665 153.5,229.5C 152.722,219.168 151.889,208.835 151,198.5C 150.722,197.584 150.222,196.918 149.5,196.5 Z M 170.5,198.5 C 170.946,208.516 171.612,218.516 172.5,228.5C 177.469,227.622 182.135,225.955 186.5,223.5C 181.106,215.126 175.773,206.793 170.5,198.5 Z"/></g>
<g><path style="opacity:1" fill="#c2c3c2" d="M 133.5,33.5 C 135.772,29.5586 138.772,26.2253 142.5,23.5C 147.118,20.9505 151.784,18.4505 156.5,16C 161.455,14.7469 166.289,13.2469 171,11.5C 175.554,11.7246 180.054,11.7246 184.5,11.5C 186.593,11.5142 188.426,10.8476 190,9.5C 190.5,10 191,10.5 191.5,11C 198.921,11.9033 206.254,13.2367 213.5,15C 216.999,18.0829 220.999,20.0829 225.5,21C 228.048,23.4416 231.048,25.1083 234.5,26C 240.672,32.3607 247.172,38.5273 254,44.5C 256.799,49.1044 259.299,53.771 261.5,58.5C 258.355,57.9233 256.855,55.9233 257,52.5C 249.435,43.2538 240.935,34.7538 231.5,27C 209.822,14.7755 186.822,11.1089 162.5,16C 156.713,18.3935 151.046,21.0602 145.5,24C 142.224,28.1118 138.224,31.2785 133.5,33.5 Z"/></g>
<g><path style="opacity:1" fill="#b7b895" d="M 152.5,23.5 C 162.02,17.4945 172.52,14.8279 184,15.5C 196.692,16.048 208.859,18.8813 220.5,24C 217.121,24.711 215.621,26.8777 216,30.5C 200.225,21.6192 183.892,20.2859 167,26.5C 164.094,25.5876 161.427,26.2543 159,28.5C 158.997,24.1178 156.831,22.4511 152.5,23.5 Z"/></g>
<g><path style="opacity:1" fill="#b7b895" d="M 152.5,23.5 C 150.952,26.2585 151.285,28.7585 153.5,31C 150.898,31.8834 148.731,33.3834 147,35.5C 146.644,32.2712 144.81,30.7712 141.5,31C 144.244,27.0799 147.911,24.5799 152.5,23.5 Z"/></g>
<g><path style="opacity:1" fill="#c2c3c2" d="M 153.5,25.5 C 154.5,25.5 155.5,25.5 156.5,25.5C 156.5,26.5 156.5,27.5 156.5,28.5C 155.5,28.5 154.5,28.5 153.5,28.5C 153.5,27.5 153.5,26.5 153.5,25.5 Z"/></g>
<g><path style="opacity:1" fill="#b7b895" d="M 223.5,25.5 C 227.469,27.1512 231.135,29.3178 234.5,32C 230.21,31.436 228.043,33.2693 228,37.5C 225.5,35.6667 223,33.8333 220.5,32C 223.145,30.7135 224.145,28.5468 223.5,25.5 Z"/></g>
<g><path style="opacity:1" fill="#c2c3c2" d="M 218.5,26.5 C 219.5,26.5 220.5,26.5 221.5,26.5C 221.5,27.5 221.5,28.5 221.5,29.5C 220.5,29.5 219.5,29.5 218.5,29.5C 218.5,28.5 218.5,27.5 218.5,26.5 Z"/></g>
<g><path style="opacity:1" fill="#b7b895" d="M 168.5,27.5 C 169.75,27.5774 170.583,28.244 171,29.5C 172.606,35.7636 174.44,41.9303 176.5,48C 175.552,48.4828 174.552,48.6495 173.5,48.5C 171.675,41.535 170.009,34.535 168.5,27.5 Z"/></g>
<g><path style="opacity:1" fill="#fefffe" d="M 182.5,27.5 C 187.382,27.193 192.049,28.0264 196.5,30C 194.779,35.0505 193.446,40.2172 192.5,45.5C 188.774,45.8226 185.107,45.4892 181.5,44.5C 179.548,39.3129 178.215,33.9796 177.5,28.5C 179.415,28.7845 181.081,28.4511 182.5,27.5 Z M 184.5,29.5 C 183.432,30.4345 182.099,30.7678 180.5,30.5C 181.085,34.5912 182.085,38.5912 183.5,42.5C 185.743,43.4742 188.076,43.8076 190.5,43.5C 191.112,39.55 192.112,35.7166 193.5,32C 190.753,30.3956 187.753,29.5622 184.5,29.5 Z"/></g>
<g><path style="opacity:1" fill="#b7b895" d="M 202.5,27.5 C 203.649,27.7911 204.316,28.6244 204.5,30C 202.604,38.6237 200.271,47.1237 197.5,55.5C 197.167,54.6667 196.833,53.8333 196.5,53C 198.583,44.5041 200.583,36.0041 202.5,27.5 Z"/></g>
<g><path style="opacity:1" fill="#b7b895" d="M 138.5,32.5 C 139.302,33.9516 139.802,35.6183 140,37.5C 140.75,38.1258 141.584,38.6258 142.5,39C 137.033,43.4616 132.7,48.7949 129.5,55C 126.833,55.6667 124.167,55.6667 121.5,55C 123.664,51.1848 125.831,47.3515 128,43.5C 131.759,39.9114 135.259,36.2447 138.5,32.5 Z"/></g>
<g><path style="opacity:1" fill="#c2c3c2" d="M 133.5,33.5 C 131.612,36.8991 129.112,39.8991 126,42.5C 124.3,45.52 122.634,48.52 121,51.5C 120.727,49.8988 120.227,48.3988 119.5,47C 123.313,45.5694 125.313,42.7361 125.5,38.5C 126.552,38.6495 127.552,38.4828 128.5,38C 129.78,36.0336 131.447,34.5336 133.5,33.5 Z"/></g>
<g><path style="opacity:1" fill="#c2c3c2" d="M 141.5,33.5 C 142.5,33.5 143.5,33.5 144.5,33.5C 144.5,34.5 144.5,35.5 144.5,36.5C 143.5,36.5 142.5,36.5 141.5,36.5C 141.5,35.5 141.5,34.5 141.5,33.5 Z"/></g>
<g><path style="opacity:1" fill="#fefffe" d="M 161.5,33.5 C 162.75,33.5774 163.583,34.244 164,35.5C 164.94,39.1011 166.107,42.6011 167.5,46C 164.311,47.8555 161.811,50.3555 160,53.5C 155.512,50.3457 151.679,46.5124 148.5,42C 152.59,38.6329 156.924,35.7995 161.5,33.5 Z M 160.5,36.5 C 158.012,38.2553 155.678,40.2553 153.5,42.5C 154.781,45.4474 156.781,47.7807 159.5,49.5C 164.458,45.4184 164.791,41.0851 160.5,36.5 Z"/></g>
<g><path style="opacity:1" fill="#b7b895" d="M 235.5,33.5 C 244.13,40.2948 251.13,48.4614 256.5,58C 253.118,58.8236 249.784,58.657 246.5,57.5C 245.333,55.1667 244.167,52.8333 243,50.5C 240.667,48.8333 238.333,47.1667 236,45.5C 234.878,43.3762 233.378,41.5429 231.5,40C 235.03,39.3282 236.363,37.1616 235.5,33.5 Z"/></g>
<g><path style="opacity:1" fill="#fefffe" d="M 209.5,34.5 C 216.233,36.7012 222.233,40.2012 227.5,45C 224.133,48.7026 220.466,52.036 216.5,55C 211.97,56.2274 207.97,55.3941 204.5,52.5C 206.173,46.471 207.84,40.471 209.5,34.5 Z M 210.5,37.5 C 209.974,41.936 208.974,46.2693 207.5,50.5C 209.088,53.2571 211.421,54.0904 214.5,53C 217.399,50.7226 220.066,48.2226 222.5,45.5C 219.168,41.8337 215.168,39.1671 210.5,37.5 Z"/></g>
<g><path style="opacity:1" fill="#c2c3c2" d="M 230.5,34.5 C 231.5,34.5 232.5,34.5 233.5,34.5C 233.5,35.5 233.5,36.5 233.5,37.5C 232.5,37.5 231.5,37.5 230.5,37.5C 230.5,36.5 230.5,35.5 230.5,34.5 Z"/></g>
<g><path style="opacity:1" fill="#b7b895" d="M 140.5,44.5 C 141.239,44.369 141.906,44.5357 142.5,45C 145.734,48.1446 148.734,51.4779 151.5,55C 150.833,55.6667 150.167,55.6667 149.5,55C 145.893,51.9023 142.893,48.4023 140.5,44.5 Z"/></g>
<g><path style="opacity:1" fill="#b7b895" d="M 233.5,47.5 C 234.756,47.4614 235.756,47.9614 236.5,49C 233.167,52 229.833,55 226.5,58C 225.167,58.6667 223.833,58.6667 222.5,58C 226.241,54.4841 229.908,50.9841 233.5,47.5 Z"/></g>
<g><path style="opacity:1" fill="#fef049" d="M 194.5,58.5 C 193.833,58.5 193.167,58.5 192.5,58.5C 192.739,56.5328 192.406,54.6995 191.5,53C 184.167,52.3333 176.833,52.3333 169.5,53C 168.603,55.1265 167.269,55.6265 165.5,54.5C 166.313,53.1861 167.313,52.0195 168.5,51C 176.5,50.3333 184.5,50.3333 192.5,51C 194.278,53.1354 194.945,55.6354 194.5,58.5 Z"/></g>
<g><path style="opacity:1" fill="#b7b895" d="M 175.5,53.5 C 177.337,53.6395 177.67,54.3061 176.5,55.5C 175.702,55.0431 175.369,54.3764 175.5,53.5 Z"/></g>
<g><path style="opacity:1" fill="#fef049" d="M 193.5,65.5 C 191.39,63.8949 189.39,62.0616 187.5,60C 180.833,59.3333 174.167,59.3333 167.5,60C 166.601,61.6516 165.601,63.1516 164.5,64.5C 164.104,61.9556 164.771,59.7889 166.5,58C 173.5,57.3333 180.5,57.3333 187.5,58C 190.857,59.5125 192.857,62.0125 193.5,65.5 Z"/></g>
<g><path style="opacity:1" fill="#deb63d" d="M 162.5,64.5 C 163.919,65.4511 165.585,65.7845 167.5,65.5C 167.33,64.1779 167.663,63.0113 168.5,62C 174.833,61.3333 181.167,61.3333 187.5,62C 189.022,63.5218 190.522,65.0218 192,66.5C 192.765,66.4301 193.265,66.0967 193.5,65.5C 194.878,63.0298 194.545,60.6965 192.5,58.5C 193.167,58.5 193.833,58.5 194.5,58.5C 196.961,61.0673 199.461,61.0673 202,58.5C 202.5,59 203,59.5 203.5,60C 225.536,61.2281 247.536,61.8947 269.5,62C 272.582,63.4086 275.415,65.2419 278,67.5C 278.498,70.4816 278.665,73.4816 278.5,76.5C 276.771,77.1175 275.271,78.1175 274,79.5C 273.163,81.8442 271.829,83.8442 270,85.5C 268.401,82.4415 265.901,80.4415 262.5,79.5C 261.692,77.5767 261.192,75.5767 261,73.5C 260.758,79.1667 260.925,84.8333 261.5,90.5C 260.5,90.5 259.5,90.5 258.5,90.5C 258.265,84.1505 257.765,77.8172 257,71.5C 256.503,73.8098 256.337,76.1432 256.5,78.5C 253.193,77.9492 249.86,77.6159 246.5,77.5C 244.821,74.4189 244.821,78.4189 246.5,89.5C 244.545,92.1325 242.545,92.1325 240.5,89.5C 242.172,78.2681 242.172,74.6015 240.5,78.5C 227.443,77.9853 214.443,76.9853 201.5,75.5C 201.663,73.1432 201.497,70.8098 201,68.5C 200.503,71.146 200.336,73.8127 200.5,76.5C 190.16,72.249 179.493,69.249 168.5,67.5C 161.73,67.9788 154.897,67.9788 148,67.5C 143.098,67.8 138.265,68.4667 133.5,69.5C 132.228,68.954 130.894,68.6207 129.5,68.5C 125.399,70.1811 121.065,70.8478 116.5,70.5C 97.4909,71.293 78.4909,70.9596 59.5,69.5C 57.8423,66.7279 58.509,69.0613 61.5,76.5C 59.9504,77.7199 58.2837,77.7199 56.5,76.5C 55.9645,72.181 55.4645,67.8477 55,63.5C 54.5045,65.4727 54.3379,67.4727 54.5,69.5C 46.4387,69.4892 38.4387,68.8226 30.5,67.5C 30.6744,64.1262 31.1744,60.7928 32,57.5C 33.3922,54.6058 35.5589,52.6058 38.5,51.5C 43.3066,54.3809 48.4733,56.3809 54,57.5C 56.3428,57.3184 58.1761,56.3184 59.5,54.5C 60.8448,55.3467 61.8448,56.5134 62.5,58C 95.9226,58.3239 129.256,58.8239 162.5,59.5C 162.5,61.1667 162.5,62.8333 162.5,64.5 Z"/></g>
<g><path style="opacity:1" fill="#a47e1e" d="M 193.5,65.5 C 193.265,66.0967 192.765,66.4301 192,66.5C 190.522,65.0218 189.022,63.5218 187.5,62C 181.167,61.3333 174.833,61.3333 168.5,62C 167.663,63.0113 167.33,64.1779 167.5,65.5C 165.585,65.7845 163.919,65.4511 162.5,64.5C 163.167,64.5 163.833,64.5 164.5,64.5C 165.601,63.1516 166.601,61.6516 167.5,60C 174.167,59.3333 180.833,59.3333 187.5,60C 189.39,62.0616 191.39,63.8949 193.5,65.5 Z"/></g>
<g><path style="opacity:1" fill="#a47d1f" d="M 56.5,76.5 C 49.2378,75.928 42.2378,76.928 35.5,79.5C 32.7173,75.9383 31.0506,71.9383 30.5,67.5C 38.4387,68.8226 46.4387,69.4892 54.5,69.5C 54.3379,67.4727 54.5045,65.4727 55,63.5C 55.4645,67.8477 55.9645,72.181 56.5,76.5 Z"/></g>
<g><path style="opacity:1" fill="#a47e1e" d="M 116.5,70.5 C 116.196,71.1499 115.863,71.8165 115.5,72.5C 110.541,73.6603 105.874,75.327 101.5,77.5C 88.1862,76.5746 74.8529,76.2413 61.5,76.5C 58.509,69.0613 57.8423,66.7279 59.5,69.5C 78.4909,70.9596 97.4909,71.293 116.5,70.5 Z"/></g>
<g><path style="opacity:1" fill="#a47e1e" d="M 240.5,89.5 C 231.764,88.927 223.097,87.5937 214.5,85.5C 214.023,84.5224 213.357,83.6891 212.5,83C 207.712,82.109 203.712,79.9423 200.5,76.5C 200.336,73.8127 200.503,71.146 201,68.5C 201.497,70.8098 201.663,73.1432 201.5,75.5C 214.443,76.9853 227.443,77.9853 240.5,78.5C 242.172,74.6015 242.172,78.2681 240.5,89.5 Z"/></g>
<g><path style="opacity:1" fill="#c2c3c2" d="M 143.5,70.5 C 174.74,67.2385 201.073,76.5719 222.5,98.5C 223.912,99.8064 225.579,100.64 227.5,101C 232.145,107.528 237.145,113.861 242.5,120C 244.047,124.503 245.214,129.003 246,133.5C 232.827,105.616 211.327,87.1158 181.5,78C 156.282,71.06 131.616,72.7267 107.5,83C 86.516,93.3255 71.6826,109.492 63,131.5C 61.4104,138.115 60.077,144.782 59,151.5C 58.5,150 58,148.5 57.5,147C 59.6661,143.169 59.9994,139.169 58.5,135C 61.7525,132.25 62.7525,128.917 61.5,125C 66.5912,121.549 69.7579,116.715 71,110.5C 75.2546,105.778 79.4212,101.111 83.5,96.5C 91.7272,89.7041 100.394,83.5374 109.5,78C 112.044,76.908 114.711,76.2414 117.5,76C 118.167,75 118.833,74 119.5,73C 127.659,72.2284 135.659,71.3951 143.5,70.5 Z M 101.5,111.5 C 97.8986,113.582 95.732,116.582 95,120.5C 101.372,123.619 107.872,126.119 114.5,128C 110.268,122.34 105.934,116.84 101.5,111.5 Z"/></g>
<g><path style="opacity:1" fill="#a47e1e" d="M 258.5,90.5 C 254.534,89.8379 250.534,89.5045 246.5,89.5C 244.821,78.4189 244.821,74.4189 246.5,77.5C 249.86,77.6159 253.193,77.9492 256.5,78.5C 256.337,76.1432 256.503,73.8098 257,71.5C 257.765,77.8172 258.265,84.1505 258.5,90.5 Z"/></g>
<g><path style="opacity:1" fill="#fef049" d="M 288.5,72.5 C 294.866,75.5548 295.033,78.8881 289,82.5C 281.902,79.5965 281.735,76.2631 288.5,72.5 Z"/></g>
<g><path style="opacity:1" fill="#a47e1e" d="M 278.5,76.5 C 280.162,83.3225 277.495,87.8225 270.5,90C 267.518,90.498 264.518,90.6646 261.5,90.5C 260.925,84.8333 260.758,79.1667 261,73.5C 261.192,75.5767 261.692,77.5767 262.5,79.5C 265.901,80.4415 268.401,82.4415 270,85.5C 271.829,83.8442 273.163,81.8442 274,79.5C 275.271,78.1175 276.771,77.1175 278.5,76.5 Z"/></g>
<g><path style="opacity:1" fill="#b7b895" d="M 69.5,194.5 C 66.9193,191.68 65.0859,188.346 64,184.5C 58.1675,164.442 59.5009,144.775 68,125.5C 70.6057,120.565 73.6057,115.898 77,111.5C 76.6294,117.14 78.9628,118.807 84,116.5C 85.4054,111.731 83.572,109.398 78.5,109.5C 89.5419,94.0146 104.542,84.1812 123.5,80C 165.769,69.8699 201.603,80.7032 231,112.5C 248.989,135.081 254.322,160.415 247,188.5C 245.797,194.314 244.13,199.981 242,205.5C 236.064,215.261 228.898,223.928 220.5,231.5C 220.602,226.428 218.269,224.595 213.5,226C 211.193,231.037 212.86,233.371 218.5,233C 185.073,255.942 150.073,258.608 113.5,241C 103.717,234.218 94.2166,227.051 85,219.5C 78.3932,212.06 73.2266,203.726 69.5,194.5 Z M 101.5,111.5 C 97.8986,113.582 95.732,116.582 95,120.5C 101.372,123.619 107.872,126.119 114.5,128C 110.268,122.34 105.934,116.84 101.5,111.5 Z M 82.5,140.5 C 81.3721,145.473 80.3721,150.473 79.5,155.5C 92.4968,155 105.497,154.5 118.5,154C 106.581,149.195 94.5808,144.695 82.5,140.5 Z M 106.5,173.5 C 99.3524,174.492 92.0191,174.825 84.5,174.5C 85.4822,179.47 87.3156,184.137 90,188.5C 98.0842,183.541 106.251,178.707 114.5,174C 111.854,173.503 109.187,173.336 106.5,173.5 Z M 217.5,174.5 C 214.917,175.224 212.251,176.057 209.5,177C 214.668,180.419 220.002,183.585 225.5,186.5C 228.02,183.273 229.354,179.607 229.5,175.5C 225.534,174.838 221.534,174.505 217.5,174.5 Z M 126.5,191.5 C 119.743,196.724 112.743,201.724 105.5,206.5C 108.484,209.985 111.651,213.318 115,216.5C 119.373,208.253 123.873,200.086 128.5,192C 127.906,191.536 127.239,191.369 126.5,191.5 Z M 194.5,193.5 C 198.149,200.119 202.315,206.452 207,212.5C 209.5,210 212,207.5 214.5,205C 207.942,200.89 201.275,197.057 194.5,193.5 Z M 149.5,196.5 C 145.451,205.6 141.117,214.6 136.5,223.5C 141.656,226.665 147.322,228.665 153.5,229.5C 152.722,219.168 151.889,208.835 151,198.5C 150.722,197.584 150.222,196.918 149.5,196.5 Z M 170.5,198.5 C 170.946,208.516 171.612,218.516 172.5,228.5C 177.469,227.622 182.135,225.955 186.5,223.5C 181.106,215.126 175.773,206.793 170.5,198.5 Z"/></g>
<g><path style="opacity:1" fill="#a47e1e" d="M 280.5,76.5 C 282.337,76.6395 282.67,77.3061 281.5,78.5C 280.702,78.0431 280.369,77.3764 280.5,76.5 Z"/></g>
<g><path style="opacity:1" fill="#000000" d="M 162.5,78.5 C 168.158,77.6794 169.825,79.846 167.5,85C 161.741,86.1387 160.074,83.972 162.5,78.5 Z"/></g>
<g><path style="opacity:1" fill="#c2c3c2" d="M 163.5,80.5 C 164.5,80.5 165.5,80.5 166.5,80.5C 166.5,81.5 166.5,82.5 166.5,83.5C 165.5,83.5 164.5,83.5 163.5,83.5C 163.5,82.5 163.5,81.5 163.5,80.5 Z"/></g>
<g><path style="opacity:1" fill="#000000" d="M 176.5,82.5 C 182.158,81.6794 183.825,83.846 181.5,89C 176.213,89.5502 174.546,87.3836 176.5,82.5 Z"/></g>
<g><path style="opacity:1" fill="#c2c3c2" d="M 177.5,84.5 C 178.5,84.5 179.5,84.5 180.5,84.5C 180.5,85.5 180.5,86.5 180.5,87.5C 179.5,87.5 178.5,87.5 177.5,87.5C 177.5,86.5 177.5,85.5 177.5,84.5 Z"/></g>
<g><path style="opacity:1" fill="#000000" d="M 128.5,86.5 C 139.838,86.3335 151.172,86.5001 162.5,87C 169.078,87.2283 175.411,88.5616 181.5,91C 190.693,95.7606 199.693,100.761 208.5,106C 214.033,111.198 219.2,116.698 224,122.5C 226.19,128.367 228.857,134.034 232,139.5C 240.176,159.774 240.176,180.107 232,200.5C 225.25,209.921 217.75,218.754 209.5,227C 198.837,232.499 187.837,237.166 176.5,241C 147.11,246.24 121.443,238.906 99.5,219C 94.6667,214.167 89.8333,209.333 85,204.5C 80.2107,194.132 76.2107,183.466 73,172.5C 71.395,158.511 72.7283,144.844 77,131.5C 81.2875,122.213 86.7875,113.713 93.5,106C 100.236,101.641 106.903,97.3076 113.5,93C 118.367,90.2259 123.367,88.0593 128.5,86.5 Z M 101.5,111.5 C 97.8986,113.582 95.732,116.582 95,120.5C 101.372,123.619 107.872,126.119 114.5,128C 110.268,122.34 105.934,116.84 101.5,111.5 Z M 82.5,140.5 C 81.3721,145.473 80.3721,150.473 79.5,155.5C 92.4968,155 105.497,154.5 118.5,154C 106.581,149.195 94.5808,144.695 82.5,140.5 Z M 106.5,173.5 C 99.3524,174.492 92.0191,174.825 84.5,174.5C 85.4822,179.47 87.3156,184.137 90,188.5C 98.0842,183.541 106.251,178.707 114.5,174C 111.854,173.503 109.187,173.336 106.5,173.5 Z M 217.5,174.5 C 214.917,175.224 212.251,176.057 209.5,177C 214.668,180.419 220.002,183.585 225.5,186.5C 228.02,183.273 229.354,179.607 229.5,175.5C 225.534,174.838 221.534,174.505 217.5,174.5 Z M 126.5,191.5 C 119.743,196.724 112.743,201.724 105.5,206.5C 108.484,209.985 111.651,213.318 115,216.5C 119.373,208.253 123.873,200.086 128.5,192C 127.906,191.536 127.239,191.369 126.5,191.5 Z M 194.5,193.5 C 198.149,200.119 202.315,206.452 207,212.5C 209.5,210 212,207.5 214.5,205C 207.942,200.89 201.275,197.057 194.5,193.5 Z M 149.5,196.5 C 145.451,205.6 141.117,214.6 136.5,223.5C 141.656,226.665 147.322,228.665 153.5,229.5C 152.722,219.168 151.889,208.835 151,198.5C 150.722,197.584 150.222,196.918 149.5,196.5 Z M 170.5,198.5 C 170.946,208.516 171.612,218.516 172.5,228.5C 177.469,227.622 182.135,225.955 186.5,223.5C 181.106,215.126 175.773,206.793 170.5,198.5 Z"/></g>
<g><path style="opacity:1" fill="#b7b895" d="M 148.5,88.5 C 149.5,88.5 150.5,88.5 151.5,88.5C 153.227,106.825 154.893,125.159 156.5,143.5C 155.5,143.5 154.5,143.5 153.5,143.5C 151.421,125.2 149.754,106.866 148.5,88.5 Z"/></g>
<g><path style="opacity:1" fill="#6a6a5e" d="M 130.5,89.5 C 135.167,89.5 139.833,89.5 144.5,89.5C 145.929,100.856 147.095,112.189 148,123.5C 146.499,121.631 144.999,119.797 143.5,118C 136.637,115.268 129.637,112.934 122.5,111C 120.874,108.372 118.874,106.039 116.5,104C 117.757,100.476 119.09,96.976 120.5,93.5C 123.865,91.9409 127.198,90.6076 130.5,89.5 Z"/></g>
<g><path style="opacity:1" fill="#6d6e61" d="M 155.5,89.5 C 157.474,91.2931 159.64,92.9598 162,94.5C 164.553,93.7771 166.72,92.4438 168.5,90.5C 172.947,91.2413 177.281,92.4079 181.5,94C 188.192,95.8448 189.025,99.0115 184,103.5C 176.96,100.542 169.794,97.8751 162.5,95.5C 161.558,95.6082 160.725,95.9415 160,96.5C 159.163,98.8442 157.829,100.844 156,102.5C 155.501,98.1794 155.334,93.8461 155.5,89.5 Z"/></g>
<g><path style="opacity:1" fill="#a47e1e" d="M 159.5,90.5 C 161.288,89.3775 163.288,89.2109 165.5,90C 163.663,93.1019 161.663,93.2686 159.5,90.5 Z"/></g>
<g><path style="opacity:1" fill="#b7b895" d="M 256.5,93.5 C 261.167,93.5 265.833,93.5 270.5,93.5C 270.932,99.0037 270.265,104.337 268.5,109.5C 266.477,110.54 264.477,111.54 262.5,112.5C 259.353,111.186 257.02,109.019 255.5,106C 256.329,101.874 256.663,97.7071 256.5,93.5 Z"/></g>
<g><path style="opacity:1" fill="#fefffe" d="M 248.5,95.5 C 249.5,95.5 250.5,95.5 251.5,95.5C 251.753,97.8273 251.086,99.8273 249.5,101.5C 247.684,100.185 246.017,98.6851 244.5,97C 246.058,96.79 247.391,96.29 248.5,95.5 Z"/></g>
<g><path style="opacity:1" fill="#b97a56" d="M 161.5,96.5 C 168.29,99.4301 175.29,101.763 182.5,103.5C 182.509,105.308 182.009,106.975 181,108.5C 177.97,112.698 175.137,117.032 172.5,121.5C 167.199,119.789 162.032,117.789 157,115.5C 156.333,112.167 156.333,108.833 157,105.5C 158.513,102.473 160.013,99.4734 161.5,96.5 Z"/></g>
<g><path style="opacity:1" fill="#000000" d="M 89.5,97.5 C 95.1581,96.6794 96.8248,98.846 94.5,104C 88.741,105.139 87.0744,102.972 89.5,97.5 Z"/></g>
<g><path style="opacity:1" fill="#c2c3c2" d="M 90.5,99.5 C 91.5,99.5 92.5,99.5 93.5,99.5C 93.5,100.5 93.5,101.5 93.5,102.5C 92.5,102.5 91.5,102.5 90.5,102.5C 90.5,101.5 90.5,100.5 90.5,99.5 Z"/></g>
<g><path style="opacity:1" fill="#b7b895" d="M 190.5,99.5 C 193.465,100.582 193.965,102.249 192,104.5C 183.361,117.305 174.528,129.971 165.5,142.5C 164.635,143.583 163.635,143.749 162.5,143C 172.477,128.868 181.811,114.368 190.5,99.5 Z"/></g>
<g><path style="opacity:1" fill="#000000" d="M 259.5,99.5 C 265.158,98.6794 266.825,100.846 264.5,106C 258.741,107.139 257.074,104.972 259.5,99.5 Z"/></g>
<g><path style="opacity:1" fill="#b7b895" d="M 105.5,101.5 C 107.153,100.201 108.653,100.534 110,102.5C 121.123,116.625 132.623,130.459 144.5,144C 142.045,145.864 139.878,145.698 138,143.5C 126.905,129.612 116.071,115.612 105.5,101.5 Z"/></g>
<g><path style="opacity:1" fill="#c2c3c2" d="M 260.5,101.5 C 261.5,101.5 262.5,101.5 263.5,101.5C 263.5,102.5 263.5,103.5 263.5,104.5C 262.5,104.5 261.5,104.5 260.5,104.5C 260.5,103.5 260.5,102.5 260.5,101.5 Z"/></g>
<g><path style="opacity:1" fill="#fefffe" d="M 100.5,108.5 C 101.822,108.33 102.989,108.663 104,109.5C 110,117.5 116,125.5 122,133.5C 122.667,134.167 122.667,134.833 122,135.5C 111.667,130.833 101.333,126.167 91,121.5C 92.6698,116.195 95.8365,111.861 100.5,108.5 Z M 101.5,111.5 C 97.8986,113.582 95.732,116.582 95,120.5C 101.372,123.619 107.872,126.119 114.5,128C 110.268,122.34 105.934,116.84 101.5,111.5 Z"/></g>
<g><path style="opacity:1" fill="#b87a56" d="M 192.5,108.5 C 196.781,109.284 199.114,111.784 199.5,116C 199.109,118.953 198.275,121.787 197,124.5C 196.359,126.813 195.026,128.48 193,129.5C 189.009,128.117 185.175,126.45 181.5,124.5C 185.177,119.138 188.843,113.804 192.5,108.5 Z"/></g>
<g><path style="opacity:1" fill="#795f47" d="M 268.5,111.5 C 275.716,110.688 277.716,113.355 274.5,119.5C 268.351,121.7 265.518,119.7 266,113.5C 266.995,112.934 267.828,112.267 268.5,111.5 Z"/></g>
<g><path style="opacity:1" fill="#c2c3c2" d="M 79.5,112.5 C 80.5,112.5 81.5,112.5 82.5,112.5C 82.5,113.5 82.5,114.5 82.5,115.5C 81.5,115.5 80.5,115.5 79.5,115.5C 79.5,114.5 79.5,113.5 79.5,112.5 Z"/></g>
<g><path style="opacity:1" fill="#796046" d="M 277.5,112.5 C 280.187,112.336 282.854,112.503 285.5,113C 286.337,114.011 286.67,115.178 286.5,116.5C 283.859,117.263 281.192,117.43 278.5,117C 277.62,115.644 277.286,114.144 277.5,112.5 Z"/></g>
<g><path style="opacity:1" fill="#5d5d42" d="M 195.5,103.5 C 199.14,104.15 202.473,105.65 205.5,108C 209.527,112.027 213.527,116.027 217.5,120C 210.5,123.833 203.5,127.667 196.5,131.5C 196.167,131.167 195.833,130.833 195.5,130.5C 197.696,125.91 199.696,121.243 201.5,116.5C 201,114.5 200.5,112.5 200,110.5C 197.815,109.33 195.649,108.164 193.5,107C 194.305,105.887 194.972,104.721 195.5,103.5 Z"/></g>
<g><path style="opacity:1" fill="#796046" d="M 260.5,114.5 C 261.833,114.5 263.167,114.5 264.5,114.5C 264.5,115.5 264.5,116.5 264.5,117.5C 261.784,117.322 259.117,116.822 256.5,116C 258.058,115.79 259.391,115.29 260.5,114.5 Z"/></g>
<g><path style="opacity:1" fill="#5e5f40" d="M 126.5,115.5 C 128.117,116.038 129.784,116.371 131.5,116.5C 134.959,122.527 139.292,128.027 144.5,133C 146.387,133.163 147.887,132.329 149,130.5C 150.102,133.905 149.268,136.572 146.5,138.5C 139.59,132.421 133.09,125.755 127,118.5C 126.517,117.552 126.351,116.552 126.5,115.5 Z"/></g>
<g><path style="opacity:1" fill="#45463b" d="M 157.5,118.5 C 162.18,119.893 166.846,121.393 171.5,123C 169.5,126 167.5,129 165.5,132C 163.236,132.236 161.069,132.736 159,133.5C 157.95,128.552 157.45,123.552 157.5,118.5 Z"/></g>
<g><path style="opacity:1" fill="#b7b895" d="M 219.5,122.5 C 221.973,122.604 222.639,123.604 221.5,125.5C 206.672,133.413 192.005,141.58 177.5,150C 175.926,150.699 174.593,150.365 173.5,149C 189.002,140.303 204.335,131.47 219.5,122.5 Z"/></g>
<g><path style="opacity:1" fill="#796046" d="M 268.5,125.5 C 268.856,124.13 269.69,123.13 271,122.5C 272.853,124.685 275.02,126.518 277.5,128C 276.892,128.87 276.059,129.37 275,129.5C 272.429,128.75 270.262,127.417 268.5,125.5 Z"/></g>
<g><path style="opacity:1" fill="#c1c1c1" d="M 221.5,91.5 C 222.601,90.4017 223.934,90.235 225.5,91C 229.543,95.3414 234.21,98.6748 239.5,101C 242.138,104.975 245.805,107.308 250.5,108C 252.208,110.043 254.208,111.71 256.5,113C 253.766,113.718 253.1,115.218 254.5,117.5C 257.748,118.645 261.081,119.479 264.5,120C 265.5,120.833 266.5,121.667 267.5,122.5C 262.56,124.304 257.893,126.637 253.5,129.5C 257.835,132.336 262.501,134.503 267.5,136C 266.437,137.188 265.103,137.688 263.5,137.5C 261.506,145.314 259.006,152.981 256,160.5C 255.383,155.462 254.549,150.462 253.5,145.5C 250.437,135.521 247.604,125.855 245,116.5C 241.462,113.969 239.128,110.636 238,106.5C 232.931,100.927 227.431,95.9265 221.5,91.5 Z"/></g>
<g><path style="opacity:1" fill="#b7b895" d="M 84.5,125.5 C 102.745,132.956 120.745,140.956 138.5,149.5C 137.833,150.833 136.833,151.833 135.5,152.5C 117.541,144.569 99.5413,136.736 81.5,129C 82.365,127.641 83.365,126.474 84.5,125.5 Z"/></g>
<g><path style="opacity:1" fill="#796046" d="M 268.5,125.5 C 270.077,129.622 273.077,131.122 277.5,130C 279.751,128.742 281.751,129.409 283.5,132C 280.774,134.03 277.774,135.53 274.5,136.5C 268.972,134.549 263.639,132.215 258.5,129.5C 261.4,127.049 264.734,125.715 268.5,125.5 Z"/></g>
<g><path style="opacity:1" fill="#45463b" d="M 179.5,126.5 C 184.468,128.1 189.468,129.6 194.5,131C 190.187,135.587 185.02,139.087 179,141.5C 177.833,139 176,137.167 173.5,136C 175.636,132.89 177.636,129.723 179.5,126.5 Z"/></g>
<g><path style="opacity:1" fill="#5e5e40" d="M 220.5,129.5 C 221.496,129.414 222.329,129.748 223,130.5C 228.12,138.207 231.453,146.541 233,155.5C 222.934,149.717 212.434,144.884 201.5,141C 207.897,137.141 214.23,133.308 220.5,129.5 Z"/></g>
<g><path style="opacity:1" fill="#000000" d="M 235.5,133.5 C 241.158,132.679 242.825,134.846 240.5,140C 234.741,141.139 233.074,138.972 235.5,133.5 Z"/></g>
<g><path style="opacity:1" fill="#aaaa8c" d="M 303.5,142.5 C 311.128,146.153 318.795,149.486 326.5,152.5C 339.12,159.23 351.954,165.896 365,172.5C 367.041,171.577 369.208,171.244 371.5,171.5C 371.421,172.93 371.754,174.264 372.5,175.5C 370.162,177.049 370.662,178.049 374,178.5C 375.439,176.079 376.939,176.079 378.5,178.5C 382.334,179.035 383.001,180.535 380.5,183C 381.448,183.483 382.448,183.649 383.5,183.5C 383.351,182.448 383.517,181.448 384,180.5C 385.419,181.46 386.919,182.293 388.5,183C 387.167,184 387.167,185 388.5,186C 389.745,186.791 391.078,187.291 392.5,187.5C 395.842,190.268 399.342,192.934 403,195.5C 403.5,196.5 404,197.5 404.5,198.5C 404.043,199.298 403.376,199.631 402.5,199.5C 401.328,197.461 399.662,196.128 397.5,195.5C 398.239,195.631 398.906,195.464 399.5,195C 389.942,190.387 380.275,186.053 370.5,182C 371.833,181.667 373.167,181.333 374.5,181C 365.73,176.438 356.73,172.771 347.5,170C 353.053,172.608 358.387,175.441 363.5,178.5C 334.181,166.677 305.181,154.01 276.5,140.5C 275.167,139.833 275.167,139.167 276.5,138.5C 279.661,137.087 282.661,135.42 285.5,133.5C 290.964,137.565 296.964,140.565 303.5,142.5 Z"/></g>
<g><path style="opacity:1" fill="#45463b" d="M 160.5,134.5 C 161.552,134.351 162.552,134.517 163.5,135C 162.333,136.833 161.167,138.667 160,140.5C 157.909,138.17 158.075,136.17 160.5,134.5 Z"/></g>
<g><path style="opacity:1" fill="#c2c3c2" d="M 236.5,135.5 C 237.5,135.5 238.5,135.5 239.5,135.5C 239.5,136.5 239.5,137.5 239.5,138.5C 238.5,138.5 237.5,138.5 236.5,138.5C 236.5,137.5 236.5,136.5 236.5,135.5 Z"/></g>
<g><path style="opacity:1" fill="#fefffe" d="M 81.5,136.5 C 97.8077,142.984 114.141,149.484 130.5,156C 112.83,156.482 95.1637,156.982 77.5,157.5C 77.8078,150.295 79.1411,143.295 81.5,136.5 Z M 82.5,140.5 C 81.3721,145.473 80.3721,150.473 79.5,155.5C 92.4968,155 105.497,154.5 118.5,154C 106.581,149.195 94.5808,144.695 82.5,140.5 Z"/></g>
<g><path style="opacity:1" fill="#c2c3c2" d="M 269.5,137.5 C 270.922,137.709 272.255,138.209 273.5,139C 270.671,145.483 267.837,151.983 265,158.5C 263.078,161.089 260.911,161.589 258.5,160C 260.859,153.925 263.025,147.759 265,141.5C 266.25,139.807 267.75,138.473 269.5,137.5 Z"/></g>
<g><path style="opacity:1" fill="#45463b" d="M 171.5,138.5 C 173.903,138.695 175.57,139.862 176.5,142C 174.71,143.734 172.71,145.234 170.5,146.5C 169.328,146.081 168.328,145.415 167.5,144.5C 168.844,142.471 170.177,140.471 171.5,138.5 Z"/></g>
<g><path style="opacity:1" fill="#c2c3c2" d="M 326.5,152.5 C 318.795,149.486 311.128,146.153 303.5,142.5C 304.184,140.815 305.517,139.815 307.5,139.5C 314.732,144.177 322.399,148.344 330.5,152C 329.207,152.49 327.873,152.657 326.5,152.5 Z"/></g>
<g><path style="opacity:1" fill="#b0b08f" d="M 342.5,178.5 C 341.551,180.777 340.218,182.777 338.5,184.5C 337.778,184.918 337.278,185.584 337,186.5C 329.042,183.243 321.209,179.91 313.5,176.5C 314.873,176.657 316.207,176.49 317.5,176C 301.062,169.465 284.395,163.632 267.5,158.5C 268.11,157.609 268.443,156.609 268.5,155.5C 274.259,157.544 279.926,159.878 285.5,162.5C 286.833,161.833 286.833,161.167 285.5,160.5C 283.167,159.333 280.833,158.167 278.5,157C 284.327,157.828 289.993,159.495 295.5,162C 296.833,162.667 298.167,162.667 299.5,162C 290.255,158.209 280.922,154.709 271.5,151.5C 271.635,148.226 272.635,145.226 274.5,142.5C 296.683,153.09 319.016,163.424 341.5,173.5C 342.452,175.045 342.785,176.712 342.5,178.5 Z"/></g>
<g><path style="opacity:1" fill="#b7b895" d="M 145.5,145.5 C 151.509,145.334 157.509,145.501 163.5,146C 174.506,149.192 179.006,156.359 177,167.5C 176.8,155.627 170.633,149.127 158.5,148C 146.673,145.17 139.506,149.67 137,161.5C 137.017,154.655 139.85,149.322 145.5,145.5 Z"/></g>
<g><path style="opacity:1" fill="#5e5f40" d="M 202.5,146.5 C 203.209,145.596 204.209,145.263 205.5,145.5C 207.981,154.343 206.981,154.676 202.5,146.5 Z"/></g>
<g><path style="opacity:1" fill="#fefffe" d="M 195.5,146.5 C 196.267,147.172 196.934,148.005 197.5,149C 195.635,150.301 193.635,150.635 191.5,150C 193.093,149.051 194.426,147.885 195.5,146.5 Z"/></g>
<g><path style="opacity:1" fill="#000000" d="M 240.5,147.5 C 246.158,146.679 247.825,148.846 245.5,154C 239.741,155.139 238.074,152.972 240.5,147.5 Z"/></g>
<g><path style="opacity:1" fill="#5e5f40" d="M 147.5,149.5 C 155.355,148.771 162.688,150.271 169.5,154C 175.077,159.854 175.91,166.354 172,173.5C 170.533,156.338 161.366,149.838 144.5,154C 143.069,154.465 141.903,155.299 141,156.5C 141.892,153.104 144.059,150.77 147.5,149.5 Z"/></g>
<g><path style="opacity:1" fill="#c2c3c2" d="M 241.5,149.5 C 242.5,149.5 243.5,149.5 244.5,149.5C 244.5,150.5 244.5,151.5 244.5,152.5C 243.5,152.5 242.5,152.5 241.5,152.5C 241.5,151.5 241.5,150.5 241.5,149.5 Z"/></g>
<g><path style="opacity:1" fill="#c2c3c2" d="M 250.5,149.5 C 251.117,149.611 251.617,149.944 252,150.5C 252.449,158.041 253.615,165.375 255.5,172.5C 252.437,176.944 251.77,181.777 253.5,187C 251.622,188.543 250.122,190.376 249,192.5C 250.473,183.944 251.64,175.277 252.5,166.5C 251.978,160.802 251.311,155.135 250.5,149.5 Z"/></g>
<g><path style="opacity:1" fill="#5e5f40" d="M 216.5,150.5 C 222.193,152.179 227.526,154.679 232.5,158C 214.819,158.025 197.152,157.358 179.5,156C 176.736,154.456 176.903,153.289 180,152.5C 187.867,155.989 195.867,156.322 204,153.5C 207.111,154.293 210.277,154.126 213.5,153C 214.942,152.623 215.942,151.79 216.5,150.5 Z"/></g>
<g><path style="opacity:1" fill="#515145" d="M 271.5,151.5 C 280.922,154.709 290.255,158.209 299.5,162C 298.167,162.667 296.833,162.667 295.5,162C 289.993,159.495 284.327,157.828 278.5,157C 280.833,158.167 283.167,159.333 285.5,160.5C 286.833,161.167 286.833,161.833 285.5,162.5C 279.926,159.878 274.259,157.544 268.5,155.5C 269.026,153.77 270.026,152.436 271.5,151.5 Z"/></g>
<g><path style="opacity:1" fill="#5e5f40" d="M 149.5,154.5 C 162.877,154.045 169.377,160.379 169,173.5C 163.946,184.52 155.78,187.687 144.5,183C 134.708,175.445 134.042,167.112 142.5,158C 144.925,156.787 147.259,155.621 149.5,154.5 Z"/></g>
<g><path style="opacity:1" fill="#000000" d="M 149.5,158.5 C 160.473,158.305 165.306,163.639 164,174.5C 156.718,185.156 149.384,185.156 142,174.5C 140.485,167.2 142.985,161.867 149.5,158.5 Z"/></g>
<g><path style="opacity:1" fill="#5c5c4d" d="M 267.5,158.5 C 284.395,163.632 301.062,169.465 317.5,176C 316.207,176.49 314.873,176.657 313.5,176.5C 298.232,171.966 283.232,166.633 268.5,160.5C 267.702,160.043 267.369,159.376 267.5,158.5 Z"/></g>
<g><path style="opacity:1" fill="#b7b895" d="M 179.5,159.5 C 198.504,160.786 217.504,162.119 236.5,163.5C 236.5,165.167 236.5,166.833 236.5,168.5C 217.518,166.779 198.518,165.113 179.5,163.5C 179.5,162.167 179.5,160.833 179.5,159.5 Z"/></g>
<g><path style="opacity:1" fill="#a47e1e" d="M 150.5,160.5 C 160.17,161.321 163.67,166.321 161,175.5C 152.667,183.097 146.833,181.43 143.5,170.5C 144.288,166.052 146.621,162.718 150.5,160.5 Z"/></g>
<g><path style="opacity:1" fill="#b7b895" d="M 100.5,161.5 C 111.833,161.5 123.167,161.5 134.5,161.5C 134.714,163.144 134.38,164.644 133.5,166C 113.833,166.563 94.1664,167.063 74.5,167.5C 74.5,165.833 74.5,164.167 74.5,162.5C 83.3494,162.826 92.0161,162.493 100.5,161.5 Z"/></g>
<g><path style="opacity:1" fill="#5e5f40" d="M 184.5,168.5 C 185.964,167.84 187.631,167.507 189.5,167.5C 194.83,168.03 200.164,168.53 205.5,169C 198.379,171.064 191.379,170.897 184.5,168.5 Z"/></g>
<g><path style="opacity:1" fill="#424238" d="M 338.5,166.5 C 338.735,165.903 339.235,165.57 340,165.5C 341.893,166.196 343.726,167.03 345.5,168C 343.078,168.135 340.745,167.635 338.5,166.5 Z"/></g>
<g><path style="opacity:1" fill="#b7b895" d="M 178.5,169.5 C 195.945,179.105 213.278,188.939 230.5,199C 229.382,200.074 228.382,201.24 227.5,202.5C 211.167,193 194.833,183.5 178.5,174C 177.587,172.586 177.587,171.086 178.5,169.5 Z"/></g>
<g><path style="opacity:1" fill="#fefffe" d="M 104.5,171.5 C 110.509,171.334 116.509,171.501 122.5,172C 111.083,178.457 99.9163,185.29 89,192.5C 85.4704,186.277 82.6371,179.777 80.5,173C 88.6772,172.829 96.6772,172.329 104.5,171.5 Z M 106.5,173.5 C 99.3524,174.492 92.0191,174.825 84.5,174.5C 85.4822,179.47 87.3156,184.137 90,188.5C 98.0842,183.541 106.251,178.707 114.5,174C 111.854,173.503 109.187,173.336 106.5,173.5 Z"/></g>
<g><path style="opacity:1" fill="#b7b895" d="M 133.5,172.5 C 134.954,173.52 135.287,174.687 134.5,176C 119.711,185.473 105.211,195.306 91,205.5C 89.7263,204.465 88.5596,203.298 87.5,202C 89.6152,199.8 91.9486,197.8 94.5,196C 107.896,188.644 120.896,180.81 133.5,172.5 Z"/></g>
<g><path style="opacity:1" fill="#fefffe" d="M 215.5,172.5 C 221.232,172.283 226.899,172.783 232.5,174C 231.991,180.025 229.991,185.525 226.5,190.5C 218.167,185.667 209.833,180.833 201.5,176C 206.251,174.717 210.918,173.55 215.5,172.5 Z M 217.5,174.5 C 214.917,175.224 212.251,176.057 209.5,177C 214.668,180.419 220.002,183.585 225.5,186.5C 228.02,183.273 229.354,179.607 229.5,175.5C 225.534,174.838 221.534,174.505 217.5,174.5 Z"/></g>
<g><path style="opacity:1" fill="#b7b7b7" d="M 363.5,184.5 C 361.796,187.256 360.463,190.256 359.5,193.5C 355.681,194.775 352.014,194.275 348.5,192C 345.95,190.558 343.284,189.392 340.5,188.5C 339.295,187.423 338.628,186.09 338.5,184.5C 340.218,182.777 341.551,180.777 342.5,178.5C 343.29,177.391 343.79,176.058 344,174.5C 350.796,177.48 357.296,180.813 363.5,184.5 Z"/></g>
<g><path style="opacity:1" fill="#000000" d="M 65.5,177.5 C 71.1581,176.679 72.8248,178.846 70.5,184C 64.741,185.139 63.0744,182.972 65.5,177.5 Z"/></g>
<g><path style="opacity:1" fill="#000000" d="M 378.5,178.5 C 377.998,180.085 376.998,180.585 375.5,180C 376.244,178.961 377.244,178.461 378.5,178.5 Z"/></g>
<g><path style="opacity:1" fill="#c2c3c2" d="M 66.5,179.5 C 67.5,179.5 68.5,179.5 69.5,179.5C 69.5,180.5 69.5,181.5 69.5,182.5C 68.5,182.5 67.5,182.5 66.5,182.5C 66.5,181.5 66.5,180.5 66.5,179.5 Z"/></g>
<g><path style="opacity:1" fill="#b7b895" d="M 172.5,179.5 C 183.137,194.32 193.637,209.32 204,224.5C 204.163,226.731 202.997,228.065 200.5,228.5C 190.667,213.5 180.833,198.5 171,183.5C 170.7,181.934 171.2,180.601 172.5,179.5 Z"/></g>
<g><path style="opacity:1" fill="#929279" d="M 363.5,178.5 C 365.593,179.045 367.593,179.878 369.5,181C 368.584,181.278 367.918,181.778 367.5,182.5C 365.407,181.955 363.407,181.122 361.5,180C 362.416,179.722 363.082,179.222 363.5,178.5 Z"/></g>
<g><path style="opacity:1" fill="#fefffe" d="M 133.5,183.5 C 134.376,183.369 135.043,183.702 135.5,184.5C 129.071,196.365 122.404,208.031 115.5,219.5C 110.052,215.555 105.052,211.055 100.5,206C 111.913,198.972 122.913,191.472 133.5,183.5 Z M 126.5,191.5 C 119.743,196.724 112.743,201.724 105.5,206.5C 108.484,209.985 111.651,213.318 115,216.5C 119.373,208.253 123.873,200.086 128.5,192C 127.906,191.536 127.239,191.369 126.5,191.5 Z"/></g>
<g><path style="opacity:1" fill="#b7b895" d="M 142.5,184.5 C 143.627,185.122 144.627,185.955 145.5,187C 137.769,200.963 130.435,215.129 123.5,229.5C 121.813,230.568 120.146,230.401 118.5,229C 126.73,214.276 134.73,199.442 142.5,184.5 Z"/></g>
<g><path style="opacity:1" fill="#fefffe" d="M 184.5,185.5 C 185.721,184.535 187.054,184.702 188.5,186C 198.5,192 208.5,198 218.5,204C 215,208.833 210.833,213 206,216.5C 198.97,205.988 191.804,195.654 184.5,185.5 Z M 194.5,193.5 C 198.149,200.119 202.315,206.452 207,212.5C 209.5,210 212,207.5 214.5,205C 207.942,200.89 201.275,197.057 194.5,193.5 Z"/></g>
<g><path style="opacity:1" fill="#a3a386" d="M 363.5,184.5 C 375.002,188.837 386.335,193.671 397.5,199C 396.263,199.232 395.263,199.732 394.5,200.5C 394.5,201.833 394.5,203.167 394.5,204.5C 394.167,205.167 393.833,205.833 393.5,206.5C 391.345,206.628 389.345,206.128 387.5,205C 388.604,203.869 388.271,203.035 386.5,202.5C 385.707,202.931 384.873,203.265 384,203.5C 380.886,202.026 377.719,200.693 374.5,199.5C 372.14,201.305 370.473,200.805 369.5,198C 366.185,196.17 362.851,194.67 359.5,193.5C 360.463,190.256 361.796,187.256 363.5,184.5 Z"/></g>
<g><path style="opacity:1" fill="#606052" d="M 397.5,195.5 C 387.496,191.164 377.496,186.831 367.5,182.5C 367.918,181.778 368.584,181.278 369.5,181C 367.593,179.878 365.593,179.045 363.5,178.5C 358.387,175.441 353.053,172.608 347.5,170C 356.73,172.771 365.73,176.438 374.5,181C 373.167,181.333 371.833,181.667 370.5,182C 380.275,186.053 389.942,190.387 399.5,195C 398.906,195.464 398.239,195.631 397.5,195.5 Z"/></g>
<g><path style="opacity:1" fill="#b7b895" d="M 160.5,185.5 C 162.822,203.321 164.822,221.321 166.5,239.5C 164.549,239.773 163.049,239.107 162,237.5C 160.334,220.508 158.834,203.508 157.5,186.5C 158.791,186.737 159.791,186.404 160.5,185.5 Z"/></g>
<g><path style="opacity:1" fill="#262626" d="M 423.5,204.5 C 422.694,205.997 422.028,207.664 421.5,209.5C 415.577,210.475 410.244,208.975 405.5,205C 401.333,203.833 399.833,205.333 401,209.5C 403.235,211.202 405.735,212.202 408.5,212.5C 412.066,213.903 415.733,214.903 419.5,215.5C 409.344,217.029 400.011,215.029 391.5,209.5C 392.193,208.482 392.859,207.482 393.5,206.5C 393.833,205.833 394.167,205.167 394.5,204.5C 395.833,204.5 397.167,204.5 398.5,204.5C 399.128,202.338 400.461,200.672 402.5,199.5C 403.376,199.631 404.043,199.298 404.5,198.5C 404,197.5 403.5,196.5 403,195.5C 399.342,192.934 395.842,190.268 392.5,187.5C 392.735,186.903 393.235,186.57 394,186.5C 397.225,187.408 400.225,188.741 403,190.5C 404.599,188.944 406.099,187.277 407.5,185.5C 410.448,187.277 412.448,189.777 413.5,193C 421.521,193.168 429.521,193.668 437.5,194.5C 440.861,198.272 444.528,198.438 448.5,195C 452.887,194.774 457.221,194.274 461.5,193.5C 463.149,194.648 464.649,195.981 466,197.5C 471.514,197.249 471.68,195.749 466.5,193C 471.288,193.098 472.621,195.431 470.5,200C 468.5,200.667 466.5,200.667 464.5,200C 462.361,198.596 460.028,197.763 457.5,197.5C 455.681,197.342 454.348,198.009 453.5,199.5C 443.183,200.332 432.849,200.832 422.5,201C 423.337,202.011 423.67,203.178 423.5,204.5 Z"/></g>
<g><path style="opacity:1" fill="#000000" d="M 69.5,194.5 C 68.6794,188.842 70.846,187.175 76,189.5C 77.1387,195.259 74.972,196.926 69.5,194.5 Z"/></g>
<g><path style="opacity:1" fill="#fefffe" d="M 167.5,188.5 C 175.267,200.518 182.934,212.685 190.5,225C 184.266,228.355 177.599,230.189 170.5,230.5C 169.279,216.517 168.279,202.517 167.5,188.5 Z M 170.5,198.5 C 170.946,208.516 171.612,218.516 172.5,228.5C 177.469,227.622 182.135,225.955 186.5,223.5C 181.106,215.126 175.773,206.793 170.5,198.5 Z"/></g>
<g><path style="opacity:1" fill="#fefffe" d="M 150.5,189.5 C 152.197,191.305 153.03,193.639 153,196.5C 154.11,208.152 154.943,219.818 155.5,231.5C 147.412,231.138 139.745,229.138 132.5,225.5C 138.513,213.473 144.513,201.473 150.5,189.5 Z M 149.5,196.5 C 145.451,205.6 141.117,214.6 136.5,223.5C 141.656,226.665 147.322,228.665 153.5,229.5C 152.722,219.168 151.889,208.835 151,198.5C 150.722,197.584 150.222,196.918 149.5,196.5 Z"/></g>
<g><path style="opacity:1" fill="#c2c3c2" d="M 71.5,190.5 C 72.5,190.5 73.5,190.5 74.5,190.5C 74.5,191.5 74.5,192.5 74.5,193.5C 73.5,193.5 72.5,193.5 71.5,193.5C 71.5,192.5 71.5,191.5 71.5,190.5 Z"/></g>
<g><path style="opacity:1" fill="#c2c3c2" d="M 394.5,200.5 C 395.833,200.5 397.167,200.5 398.5,200.5C 398.5,201.833 398.5,203.167 398.5,204.5C 397.167,204.5 395.833,204.5 394.5,204.5C 394.5,203.167 394.5,201.833 394.5,200.5 Z"/></g>
<g><path style="opacity:1" fill="#c2c3c2" d="M 419.5,215.5 C 423.886,214.06 428.219,212.727 432.5,211.5C 433.801,210.116 433.801,208.616 432.5,207C 430.613,206.22 428.946,206.387 427.5,207.5C 426.292,208.234 424.959,208.567 423.5,208.5C 423.5,207.167 423.5,205.833 423.5,204.5C 432.756,203.362 442.089,203.195 451.5,204C 442.729,213.376 432.062,217.209 419.5,215.5 Z"/></g>
<g><path style="opacity:1" fill="#000000" d="M 423.5,204.5 C 423.5,205.833 423.5,207.167 423.5,208.5C 424.959,208.567 426.292,208.234 427.5,207.5C 427.5,208.833 427.5,210.167 427.5,211.5C 429.167,211.5 430.833,211.5 432.5,211.5C 428.219,212.727 423.886,214.06 419.5,215.5C 415.733,214.903 412.066,213.903 408.5,212.5C 405.735,212.202 403.235,211.202 401,209.5C 399.833,205.333 401.333,203.833 405.5,205C 410.244,208.975 415.577,210.475 421.5,209.5C 422.028,207.664 422.694,205.997 423.5,204.5 Z"/></g>
<g><path style="opacity:1" fill="#c2c3c2" d="M 408.5,212.5 C 406.941,210.376 404.941,208.709 402.5,207.5C 402.833,207.167 403.167,206.833 403.5,206.5C 406.329,207.747 408.995,209.247 411.5,211C 416.338,211.354 421.005,211.52 425.5,211.5C 423.293,213.029 420.793,213.695 418,213.5C 414.814,213.256 411.647,212.923 408.5,212.5 Z"/></g>
<g><path style="opacity:1" fill="#5e5f40" d="M 91.5,208.5 C 91.8966,207.475 92.5632,207.308 93.5,208C 100.538,214.707 107.872,221.04 115.5,227C 114.833,227.667 114.167,227.667 113.5,227C 105.39,221.721 98.0568,215.554 91.5,208.5 Z"/></g>
<g><path style="opacity:1" fill="#8a8a8a" d="M 432.5,211.5 C 430.833,211.5 429.167,211.5 427.5,211.5C 427.5,210.167 427.5,208.833 427.5,207.5C 428.946,206.387 430.613,206.22 432.5,207C 433.801,208.616 433.801,210.116 432.5,211.5 Z"/></g>
<g><path style="opacity:1" fill="#000000" d="M 224.5,213.5 C 230.158,212.679 231.825,214.846 229.5,220C 223.741,221.139 222.074,218.972 224.5,213.5 Z"/></g>
<g><path style="opacity:1" fill="#c2c3c2" d="M 225.5,215.5 C 226.5,215.5 227.5,215.5 228.5,215.5C 228.5,216.5 228.5,217.5 228.5,218.5C 227.5,218.5 226.5,218.5 225.5,218.5C 225.5,217.5 225.5,216.5 225.5,215.5 Z"/></g>
<g><path style="opacity:1" fill="#c2c3c2" d="M 214.5,227.5 C 215.5,227.5 216.5,227.5 217.5,227.5C 217.5,228.5 217.5,229.5 217.5,230.5C 216.5,230.5 215.5,230.5 214.5,230.5C 214.5,229.5 214.5,228.5 214.5,227.5 Z"/></g>
<g><path style="opacity:1" fill="#5e5f40" d="M 194.5,229.5 C 195.552,229.351 196.552,229.517 197.5,230C 188.55,235.481 178.883,238.648 168.5,239.5C 168.5,238.5 168.5,237.5 168.5,236.5C 171.91,236.543 175.243,236.043 178.5,235C 183.851,232.846 189.184,231.013 194.5,229.5 Z"/></g>
<g><path style="opacity:1" fill="#5e5f40" d="M 125.5,230.5 C 131.844,232.225 138.178,234.058 144.5,236C 149.137,236.829 153.804,237.329 158.5,237.5C 158.5,238.5 158.5,239.5 158.5,240.5C 146.937,240.352 135.937,237.852 125.5,233C 124.402,232.23 124.402,231.397 125.5,230.5 Z"/></g>
<g><path style="opacity:1" fill="#000000" d="M 127.5,239.5 C 133.158,238.679 134.825,240.846 132.5,246C 126.741,247.139 125.074,244.972 127.5,239.5 Z"/></g>
<g><path style="opacity:1" fill="#c2c3c2" d="M 128.5,241.5 C 129.5,241.5 130.5,241.5 131.5,241.5C 131.5,242.5 131.5,243.5 131.5,244.5C 130.5,244.5 129.5,244.5 128.5,244.5C 128.5,243.5 128.5,242.5 128.5,241.5 Z"/></g>
<g><path style="opacity:1" fill="#000000" d="M 146.5,243.5 C 152.158,242.679 153.825,244.846 151.5,250C 145.741,251.139 144.074,248.972 146.5,243.5 Z"/></g>
<g><path style="opacity:1" fill="#c2c3c2" d="M 147.5,245.5 C 148.5,245.5 149.5,245.5 150.5,245.5C 150.5,246.5 150.5,247.5 150.5,248.5C 149.5,248.5 148.5,248.5 147.5,248.5C 147.5,247.5 147.5,246.5 147.5,245.5 Z"/></g>
</svg>
