<?xml version="1.0" encoding="UTF-8"?>
<!DOCTYPE svg PUBLIC "-//W3C//DTD SVG 1.1//EN" "http://www.w3.org/Graphics/SVG/1.1/DTD/svg11.dtd">
<svg xmlns="http://www.w3.org/2000/svg" version="1.1" width="495px" height="495px" style="shape-rendering:geometricPrecision; text-rendering:geometricPrecision; image-rendering:optimizeQuality; fill-rule:evenodd; clip-rule:evenodd" xmlns:xlink="http://www.w3.org/1999/xlink">
<g><path style="opacity:1" fill="#fefffe" d="M 167.5,47.5 C 171.846,47.3343 176.179,47.501 180.5,48C 182.167,50.3333 183.833,52.6667 185.5,55C 190.5,55.3333 195.5,55.6667 200.5,56C 202.34,58.8263 203.006,61.9929 202.5,65.5C 206.793,64.5356 209.96,65.8689 212,69.5C 212.498,72.8168 212.665,76.1501 212.5,79.5C 213.822,79.33 214.989,79.6634 216,80.5C 216.497,83.146 216.664,85.8127 216.5,88.5C 218.792,88.2436 220.959,88.5769 223,89.5C 223.333,93.1667 223.667,96.8333 224,100.5C 258.863,145.063 293.363,189.896 327.5,235C 332.433,226.962 338.433,219.295 345.5,212C 352.494,206.17 360.494,202.503 369.5,201C 395.899,195.796 417.399,203.629 434,224.5C 439.932,234.035 445.599,243.701 451,253.5C 461.764,283.45 464.431,314.117 459,345.5C 455.877,359.578 449.711,372.078 440.5,383C 455.383,401.548 469.883,420.381 484,439.5C 484.667,444.167 484.667,448.833 484,453.5C 479.132,454.915 474.299,454.748 469.5,453C 465.713,447.544 461.546,442.377 457,437.5C 452.013,440.677 451.68,444.011 456,447.5C 456.884,454.582 456.551,461.582 455,468.5C 453.581,469.46 452.081,470.293 450.5,471C 443.209,472.216 436.209,471.383 429.5,468.5C 425.248,465.676 422.748,461.676 422,456.5C 421,455.5 420,454.5 419,453.5C 412.799,456.313 406.299,457.146 399.5,456C 374.123,419.413 348.623,382.913 323,346.5C 319.049,341.563 314.882,336.897 310.5,332.5C 303.72,334.194 297.054,336.194 290.5,338.5C 292.905,360.105 291.405,381.439 286,402.5C 282.187,413.307 276.02,422.473 267.5,430C 239.896,445.653 215.063,442.153 193,419.5C 179.999,403.501 170.666,385.501 165,365.5C 156.46,333.764 155.293,301.764 161.5,269.5C 131.106,274.232 100.773,279.399 70.5,285C 54.8333,300.667 39.1667,316.333 23.5,332C 18.2487,332.804 13.082,332.637 8,331.5C 7.33333,326.833 7.33333,322.167 8,317.5C 61.7097,264.465 116.043,210.798 171,156.5C 171.667,153.167 171.667,149.833 171,146.5C 168.473,143.061 165.473,140.061 162,137.5C 161.559,133.952 160.059,130.952 157.5,128.5C 150.039,128.015 142.706,126.849 135.5,125C 133.899,121.733 133.066,118.233 133,114.5C 131.468,112.438 129.468,111.104 127,110.5C 126.517,109.552 126.351,108.552 126.5,107.5C 123.956,107.896 121.789,107.229 120,105.5C 119.84,101.713 119.174,98.0458 118,94.5C 115.667,92.5 113.333,90.5 111,88.5C 110.032,83.6402 110.532,78.9735 112.5,74.5C 108.171,66.9865 108.505,59.8198 113.5,53C 118.167,52.3333 122.833,52.3333 127.5,53C 128.357,53.6891 129.023,54.5224 129.5,55.5C 134.132,56.3283 138.798,56.8283 143.5,57C 146.231,59.8966 147.231,63.3966 146.5,67.5C 148.467,67.2606 150.301,67.5939 152,68.5C 153.042,73.4707 153.876,78.4707 154.5,83.5C 157.701,87.4387 161.701,88.4387 166.5,86.5C 167.327,82.5408 167.827,78.5408 168,74.5C 168.833,72.8333 169.667,71.1667 170.5,69.5C 165.067,62.7916 164.067,55.4582 167.5,47.5 Z M 186.5,168.5 C 188.017,168.511 189.184,169.177 190,170.5C 194.468,177.268 199.301,183.768 204.5,190C 199.537,202.095 194.704,214.262 190,226.5C 180.945,231.222 174.278,238.222 170,247.5C 144.936,252.78 119.77,257.28 94.5,261C 125.368,230.299 156.035,199.465 186.5,168.5 Z M 232.5,180.5 C 235.607,180.174 237.94,181.341 239.5,184C 237.444,184.311 235.444,184.811 233.5,185.5C 230.721,183.79 230.388,182.123 232.5,180.5 Z M 249.5,203.5 C 254.035,203.346 257.369,205.346 259.5,209.5C 253.567,212.274 250.233,210.274 249.5,203.5 Z M 217.5,208.5 C 219.121,208.787 220.121,209.787 220.5,211.5C 219.184,215.429 218.184,219.429 217.5,223.5C 215.833,223.5 214.167,223.5 212.5,223.5C 213.965,218.438 215.632,213.438 217.5,208.5 Z M 270.5,225.5 C 271.239,225.369 271.906,225.536 272.5,226C 274.461,228.963 276.794,231.629 279.5,234C 277.246,235.15 274.913,235.484 272.5,235C 269.931,232.521 267.598,229.854 265.5,227C 267.382,226.802 269.048,226.302 270.5,225.5 Z M 381.5,228.5 C 383.308,228.491 384.975,228.991 386.5,230C 384.873,232.754 383.373,235.588 382,238.5C 381.502,235.183 381.335,231.85 381.5,228.5 Z M 404.5,242.5 C 409.562,245.197 409.729,248.197 405,251.5C 404.167,250.667 403.333,249.833 402.5,249C 403.669,246.993 404.335,244.827 404.5,242.5 Z M 290.5,250.5 C 292.5,251.976 294.167,253.809 295.5,256C 291.79,257.224 289.123,256.058 287.5,252.5C 288.602,251.824 289.602,251.158 290.5,250.5 Z M 420.5,267.5 C 423.911,270.321 425.744,273.988 426,278.5C 421.533,280.074 417.033,281.241 412.5,282C 411.833,281 411.167,280 410.5,279C 414.416,275.59 417.749,271.757 420.5,267.5 Z M 188.5,296.5 C 191.449,299.788 194.449,303.121 197.5,306.5C 197,306.833 196.5,307.167 196,307.5C 193.209,306.594 190.376,305.927 187.5,305.5C 187.264,302.391 187.597,299.391 188.5,296.5 Z M 429.5,297.5 C 430.222,297.918 430.722,298.584 431,299.5C 431.748,304.481 432.248,309.481 432.5,314.5C 424.485,311.993 416.818,308.66 409.5,304.5C 416.22,302.15 422.887,299.816 429.5,297.5 Z M 188.5,326.5 C 192.5,327.167 196.5,327.833 200.5,328.5C 200.66,330.199 200.494,331.866 200,333.5C 197,335.5 194,337.5 191,339.5C 189.95,335.197 189.116,330.863 188.5,326.5 Z M 413.5,331.5 C 413.56,330.957 413.893,330.624 414.5,330.5C 418.5,332.167 422.5,333.833 426.5,335.5C 427.419,338.626 426.919,341.626 425,344.5C 421.301,339.973 417.468,335.639 413.5,331.5 Z M 205.5,356.5 C 204.252,359.996 202.252,362.996 199.5,365.5C 198.264,363.966 197.764,362.3 198,360.5C 200.448,359.027 202.948,357.693 205.5,356.5 Z M 216.5,381.5 C 217.124,381.917 217.457,382.584 217.5,383.5C 217.046,386.222 216.38,388.889 215.5,391.5C 214.167,390.833 213.167,389.833 212.5,388.5C 213.861,386.15 215.194,383.816 216.5,381.5 Z"/></g>
<g><path style="opacity:1" fill="#000000" d="M 169.5,49.5 C 172.518,49.3354 175.518,49.502 178.5,50C 180.167,52.3333 181.833,54.6667 183.5,57C 188.5,57.3333 193.5,57.6667 198.5,58C 200.34,60.8263 201.006,63.9929 200.5,67.5C 208.273,67.0015 211.439,70.6681 210,78.5C 209.626,79.4162 209.126,80.2496 208.5,81C 210.433,81.2511 212.266,81.7511 214,82.5C 214.497,85.146 214.664,87.8127 214.5,90.5C 221.374,89.8873 223.374,92.8873 220.5,99.5C 256.424,147.013 292.591,194.347 329,241.5C 344.967,205.382 371.8,193.882 409.5,207C 417.886,212.379 425.386,218.879 432,226.5C 436.667,233.833 441.333,241.167 446,248.5C 458.788,279.107 462.455,310.774 457,343.5C 453.668,358.164 447.168,371.164 437.5,382.5C 452.141,402.308 466.975,421.975 482,441.5C 485.075,452.095 481.575,455.261 471.5,451C 466.454,444.409 461.287,437.909 456,431.5C 454.51,436.308 451.677,440.141 447.5,443C 454.756,449.333 456.589,457.166 453,466.5C 443.357,471.382 434.69,470.049 427,462.5C 425.59,458.156 423.59,454.156 421,450.5C 414.615,453.863 407.948,454.863 401,453.5C 371.881,410.248 341.547,367.914 310,326.5C 309.293,328.081 308.46,329.581 307.5,331C 301.189,332.661 294.856,334.161 288.5,335.5C 290.953,357.464 289.453,379.131 284,400.5C 280.187,411.307 274.02,420.473 265.5,428C 235.784,443.782 210.617,438.282 190,411.5C 166.716,376.035 156.716,337.035 160,294.5C 160.746,285.269 162.58,276.269 165.5,267.5C 164.5,267.167 163.5,266.833 162.5,266.5C 131.147,271.892 99.814,277.392 68.5,283C 52.8333,298.667 37.1667,314.333 21.5,330C 17.577,330.793 13.7436,330.626 10,329.5C 9.33333,326.167 9.33333,322.833 10,319.5C 64.0431,266.131 118.71,212.131 174,157.5C 173.421,153.528 173.421,149.528 174,145.5C 171.333,141.5 168,138.167 164,135.5C 163.393,131.619 161.726,128.286 159,125.5C 154.368,125.551 149.535,125.384 144.5,125C 142.212,124.178 139.878,123.511 137.5,123C 135.899,119.733 135.066,116.233 135,112.5C 133.468,110.438 131.468,109.104 129,108.5C 128.517,107.552 128.351,106.552 128.5,105.5C 125.956,105.896 123.789,105.229 122,103.5C 121.84,99.7125 121.174,96.0458 120,92.5C 111.788,88.0583 110.288,81.8917 115.5,74C 110.302,67.5259 110.302,61.1926 115.5,55C 118.833,54.3333 122.167,54.3333 125.5,55C 126.357,55.6891 127.023,56.5224 127.5,57.5C 132.132,58.3283 136.798,58.8283 141.5,59C 144.231,61.8966 145.231,65.3966 144.5,69.5C 146.467,69.2606 148.301,69.5939 150,70.5C 151.651,74.6585 151.817,78.8252 150.5,83C 152.376,85.1372 154.376,87.1372 156.5,89C 161.854,89.5285 167.187,89.3619 172.5,88.5C 170.65,86.2605 169.65,83.5938 169.5,80.5C 170.12,76.4246 171.454,72.5912 173.5,69C 169.993,65.4879 167.993,61.3213 167.5,56.5C 167.319,53.8368 167.985,51.5034 169.5,49.5 Z M 186.5,168.5 C 156.035,199.465 125.368,230.299 94.5,261C 119.77,257.28 144.936,252.78 170,247.5C 174.278,238.222 180.945,231.222 190,226.5C 194.704,214.262 199.537,202.095 204.5,190C 199.301,183.768 194.468,177.268 190,170.5C 189.184,169.177 188.017,168.511 186.5,168.5 Z M 232.5,180.5 C 230.388,182.123 230.721,183.79 233.5,185.5C 235.444,184.811 237.444,184.311 239.5,184C 237.94,181.341 235.607,180.174 232.5,180.5 Z M 249.5,203.5 C 250.233,210.274 253.567,212.274 259.5,209.5C 257.369,205.346 254.035,203.346 249.5,203.5 Z M 217.5,208.5 C 215.632,213.438 213.965,218.438 212.5,223.5C 214.167,223.5 215.833,223.5 217.5,223.5C 218.184,219.429 219.184,215.429 220.5,211.5C 220.121,209.787 219.121,208.787 217.5,208.5 Z M 270.5,225.5 C 269.048,226.302 267.382,226.802 265.5,227C 267.598,229.854 269.931,232.521 272.5,235C 274.913,235.484 277.246,235.15 279.5,234C 276.794,231.629 274.461,228.963 272.5,226C 271.906,225.536 271.239,225.369 270.5,225.5 Z M 381.5,228.5 C 381.335,231.85 381.502,235.183 382,238.5C 383.373,235.588 384.873,232.754 386.5,230C 384.975,228.991 383.308,228.491 381.5,228.5 Z M 404.5,242.5 C 404.335,244.827 403.669,246.993 402.5,249C 403.333,249.833 404.167,250.667 405,251.5C 409.729,248.197 409.562,245.197 404.5,242.5 Z M 290.5,250.5 C 289.602,251.158 288.602,251.824 287.5,252.5C 289.123,256.058 291.79,257.224 295.5,256C 294.167,253.809 292.5,251.976 290.5,250.5 Z M 420.5,267.5 C 417.749,271.757 414.416,275.59 410.5,279C 411.167,280 411.833,281 412.5,282C 417.033,281.241 421.533,280.074 426,278.5C 425.744,273.988 423.911,270.321 420.5,267.5 Z M 188.5,296.5 C 187.597,299.391 187.264,302.391 187.5,305.5C 190.376,305.927 193.209,306.594 196,307.5C 196.5,307.167 197,306.833 197.5,306.5C 194.449,303.121 191.449,299.788 188.5,296.5 Z M 429.5,297.5 C 422.887,299.816 416.22,302.15 409.5,304.5C 416.818,308.66 424.485,311.993 432.5,314.5C 432.248,309.481 431.748,304.481 431,299.5C 430.722,298.584 430.222,297.918 429.5,297.5 Z M 188.5,326.5 C 189.116,330.863 189.95,335.197 191,339.5C 194,337.5 197,335.5 200,333.5C 200.494,331.866 200.66,330.199 200.5,328.5C 196.5,327.833 192.5,327.167 188.5,326.5 Z M 413.5,331.5 C 417.468,335.639 421.301,339.973 425,344.5C 426.919,341.626 427.419,338.626 426.5,335.5C 422.5,333.833 418.5,332.167 414.5,330.5C 413.893,330.624 413.56,330.957 413.5,331.5 Z M 205.5,356.5 C 202.948,357.693 200.448,359.027 198,360.5C 197.764,362.3 198.264,363.966 199.5,365.5C 202.252,362.996 204.252,359.996 205.5,356.5 Z M 216.5,381.5 C 215.194,383.816 213.861,386.15 212.5,388.5C 213.167,389.833 214.167,390.833 215.5,391.5C 216.38,388.889 217.046,386.222 217.5,383.5C 217.457,382.584 217.124,381.917 216.5,381.5 Z"/></g>
<g><path style="opacity:1" fill="#cb9d83" d="M 173.5,54.5 C 175.636,56.8123 177.636,59.3123 179.5,62C 178.874,62.7504 178.374,63.5838 178,64.5C 175.971,61.9708 174.138,59.3041 172.5,56.5C 172.863,55.8165 173.196,55.1499 173.5,54.5 Z"/></g>
<g><path style="opacity:1" fill="#744830" d="M 119.5,59.5 C 121.196,59.6854 122.529,60.5187 123.5,62C 121.932,64.3041 120.765,66.8041 120,69.5C 117.053,66.2167 116.887,62.8834 119.5,59.5 Z"/></g>
<g><path style="opacity:1" fill="#6a6b6a" d="M 182.5,61.5 C 186.846,61.3343 191.179,61.501 195.5,62C 196.951,65.028 196.284,67.528 193.5,69.5C 193.834,67.8347 193.834,66.0014 193.5,64C 190.167,63.3333 186.833,63.3333 183.5,64C 179.831,69.5045 176.831,75.3378 174.5,81.5C 175.94,74.5792 178.607,67.9125 182.5,61.5 Z"/></g>
<g><path style="opacity:1" fill="#6a6b6a" d="M 126.5,62.5 C 130.514,62.3345 134.514,62.5012 138.5,63C 140.532,65.8625 140.199,68.6958 137.5,71.5C 137.167,71 136.833,70.5 136.5,70C 137.649,68.2703 137.649,66.6037 136.5,65C 132.577,64.2073 128.744,64.374 125,65.5C 124.761,64.212 125.261,63.212 126.5,62.5 Z"/></g>
<g><path style="opacity:1" fill="#744830" d="M 126.5,66.5 C 130.446,68.9504 131.28,72.2837 129,76.5C 127.028,75.6948 125.528,74.3615 124.5,72.5C 125.372,70.5504 126.039,68.5504 126.5,66.5 Z"/></g>
<g><path style="opacity:1" fill="#cb9d83" d="M 183.5,67.5 C 186.393,68.6877 187.393,70.6877 186.5,73.5C 185.636,71.8035 184.303,70.6368 182.5,70C 183.252,69.3292 183.586,68.4959 183.5,67.5 Z"/></g>
<g><path style="opacity:1" fill="#6a6b6a" d="M 184.5,84.5 C 184.586,83.5041 184.252,82.6708 183.5,82C 186.572,79.1914 188.905,75.8581 190.5,72C 195.202,71.1717 199.869,71.3384 204.5,72.5C 204.977,73.4776 205.643,74.3109 206.5,75C 205.206,77.087 204.039,79.2537 203,81.5C 203.131,78.905 202.964,76.405 202.5,74C 198.833,73.3333 195.167,73.3333 191.5,74C 189.304,77.6767 186.97,81.1767 184.5,84.5 Z"/></g>
<g><path style="opacity:1" fill="#6a6b6a" d="M 132.5,73.5 C 137.167,73.5 141.833,73.5 146.5,73.5C 148.213,76.8638 147.713,79.8638 145,82.5C 145.155,80.1893 145.155,77.856 145,75.5C 139.068,73.46 134.402,75.1267 131,80.5C 129.519,83.9561 127.852,87.2895 126,90.5C 127.314,84.6238 129.481,78.9571 132.5,73.5 Z"/></g>
<g><path style="opacity:1" fill="#6a6b6a" d="M 119.5,75.5 C 120.438,77.9227 119.938,80.256 118,82.5C 118.157,80.1693 118.657,77.8359 119.5,75.5 Z"/></g>
<g><path style="opacity:1" fill="#697076" d="M 184.5,84.5 C 184.5,85.8333 185.167,86.5 186.5,86.5C 193.131,95.1317 200.131,103.465 207.5,111.5C 207.987,112.473 208.487,113.473 209,114.5C 209.335,112.497 210.168,110.83 211.5,109.5C 214.354,110.973 216.688,113.14 218.5,116C 215.901,116.769 213.401,116.602 211,115.5C 210.333,117.167 210.333,118.833 211,120.5C 218.163,128.95 224.997,137.783 231.5,147C 233.818,147.342 235.985,146.842 238,145.5C 236.909,148.328 236.575,151.328 237,154.5C 238.62,156.241 240.12,158.075 241.5,160C 240.423,160.47 239.423,160.303 238.5,159.5C 218.443,135.051 199.11,110.051 180.5,84.5C 179.77,83.2876 178.77,82.2876 177.5,81.5C 178.667,78.5 179.833,75.5 181,72.5C 182.167,74.1667 183.333,75.8333 184.5,77.5C 183.289,78.8745 182.289,80.3745 181.5,82C 181.748,83.7491 182.748,84.5824 184.5,84.5 Z"/></g>
<g><path style="opacity:1" fill="#d28641" d="M 192.5,75.5 C 193.978,75.238 195.311,75.5713 196.5,76.5C 197.921,79.0094 199.588,81.3428 201.5,83.5C 200.409,84.8876 199.076,85.3876 197.5,85C 195.5,82.6667 193.5,80.3333 191.5,78C 192.252,77.3292 192.586,76.4959 192.5,75.5 Z"/></g>
<g><path style="opacity:1" fill="#d28641" d="M 136.5,77.5 C 139.241,78.4394 141.241,80.2728 142.5,83C 141.069,83.4652 139.903,84.2986 139,85.5C 136.198,83.2819 135.364,80.6152 136.5,77.5 Z"/></g>
<g><path style="opacity:1" fill="#7d858c" d="M 123.5,75.5 C 125.022,76.4312 126.355,77.5979 127.5,79C 127.184,81.8262 126.017,84.6595 124,87.5C 119.579,84.8682 119.412,82.0349 123.5,79C 122.316,77.8545 122.316,76.6879 123.5,75.5 Z"/></g>
<g><path style="opacity:1" fill="#838d93" d="M 195.5,92.5 C 193.157,89.7928 190.823,87.1261 188.5,84.5C 188.527,81.6097 189.693,80.6097 192,81.5C 193.833,84 195.667,86.5 197.5,89C 196.915,90.3024 196.249,91.469 195.5,92.5 Z"/></g>
<g><path style="opacity:1" fill="#838d93" d="M 130.5,87.5 C 130.504,85.1579 131.337,83.1579 133,81.5C 134.833,83.8333 136.667,86.1667 138.5,88.5C 137.011,93.6459 136.344,93.3125 136.5,87.5C 134.5,87.5 132.5,87.5 130.5,87.5 Z"/></g>
<g><path style="opacity:1" fill="#838d93" d="M 180.5,84.5 C 199.11,110.051 218.443,135.051 238.5,159.5C 238.389,160.117 238.056,160.617 237.5,161C 235.527,161.495 233.527,161.662 231.5,161.5C 231.762,160.022 231.429,158.689 230.5,157.5C 228.887,159.123 227.22,160.29 225.5,161C 227.813,158.061 228.146,154.895 226.5,151.5C 218.426,151.315 210.426,151.981 202.5,153.5C 201.263,153.444 200.263,152.944 199.5,152C 208.132,150.785 216.798,149.951 225.5,149.5C 225.5,148.5 225.5,147.5 225.5,146.5C 223.278,146.822 221.444,146.155 220,144.5C 217.385,140.217 214.385,136.217 211,132.5C 209.956,130.285 209.29,127.952 209,125.5C 206.802,123.379 204.302,121.712 201.5,120.5C 194.476,111.977 187.643,103.31 181,94.5C 177.838,91.2244 177.672,87.891 180.5,84.5 Z"/></g>
<g><path style="opacity:1" fill="#51565a" d="M 188.5,84.5 C 190.823,87.1261 193.157,89.7928 195.5,92.5C 196.08,94.7488 197.413,96.4154 199.5,97.5C 202.848,100.851 205.848,104.518 208.5,108.5C 208.737,109.791 208.404,110.791 207.5,111.5C 200.131,103.465 193.131,95.1317 186.5,86.5C 186.833,85.5 187.5,84.8333 188.5,84.5 Z"/></g>
<g><path style="opacity:1" fill="#c2c3c2" d="M 141.5,85.5 C 144.346,85.0301 146.679,85.8634 148.5,88C 143.505,87.9926 140.672,90.4926 140,95.5C 139.5,95 139,94.5 138.5,94C 139.798,91.2731 140.798,88.4398 141.5,85.5 Z"/></g>
<g><path style="opacity:1" fill="#c2c3c2" d="M 201.5,85.5 C 204.5,85.5 207.5,85.5 210.5,85.5C 210.798,88.3356 210.131,88.8356 208.5,87C 202.487,85.6653 199.32,88.1653 199,94.5C 198.515,91.1244 199.348,88.1244 201.5,85.5 Z"/></g>
<g><path style="opacity:1" fill="#838d93" d="M 130.5,87.5 C 130.114,91.8764 130.781,96.0431 132.5,100C 130.833,100.667 129.167,100.667 127.5,100C 126.941,99.2753 126.608,98.4419 126.5,97.5C 127.663,93.9928 128.996,90.6595 130.5,87.5 Z"/></g>
<g><path style="opacity:1" fill="#d38541" d="M 203.5,88.5 C 206.41,90.2391 208.91,92.5724 211,95.5C 300,211.833 389,328.167 478,444.5C 478.719,449.035 477.386,449.701 474,446.5C 383.53,327.73 292.697,209.23 201.5,91C 202.381,90.2917 203.047,89.4584 203.5,88.5 Z"/></g>
<g><path style="opacity:1" fill="#d28641" d="M 144.5,90.5 C 147.325,90.0807 149.491,91.0807 151,93.5C 190.805,144.939 230.972,196.106 271.5,247C 268.903,249.033 266.737,248.533 265,245.5C 224.989,194.794 184.989,144.128 145,93.5C 144.517,92.552 144.351,91.552 144.5,90.5 Z"/></g>
<g><path style="opacity:1" fill="#838d93" d="M 171.5,93.5 C 174.864,92.7893 177.197,93.956 178.5,97C 171.528,98.1648 164.528,98.4981 157.5,98C 156.5,97 155.5,96 154.5,95C 160.348,94.8272 166.015,94.3272 171.5,93.5 Z"/></g>
<g><path style="opacity:1" fill="#838d93" d="M 211.5,109.5 C 210.391,109.443 209.391,109.11 208.5,108.5C 205.848,104.518 202.848,100.851 199.5,97.5C 200.122,96.3734 200.955,95.3734 202,94.5C 204.615,98.7829 207.615,102.783 211,106.5C 211.483,107.448 211.649,108.448 211.5,109.5 Z"/></g>
<g><path style="opacity:1" fill="#838d93" d="M 213.5,94.5 C 217.97,94.0301 218.47,95.0301 215,97.5C 213.961,96.7562 213.461,95.7562 213.5,94.5 Z"/></g>
<g><path style="opacity:1" fill="#c2c3c2" d="M 143.5,97.5 C 144.675,97.281 145.675,97.6143 146.5,98.5C 142.652,101.997 138.318,103.663 133.5,103.5C 136.275,100.451 139.608,98.4508 143.5,97.5 Z"/></g>
<g><path style="opacity:1" fill="#fefffe" d="M 173.5,102.5 C 176.665,101.964 179.331,102.797 181.5,105C 177.767,106.127 173.934,106.961 170,107.5C 169.044,106.421 168.211,105.255 167.5,104C 169.708,103.809 171.708,103.309 173.5,102.5 Z"/></g>
<g><path style="opacity:1" fill="#80888f" d="M 147.5,100.5 C 150.635,103.808 153.635,107.308 156.5,111C 154.19,111.497 151.857,111.663 149.5,111.5C 149.665,114.518 149.498,117.518 149,120.5C 145.756,119.66 142.922,118.16 140.5,116C 142.36,111.849 141.36,108.516 137.5,106C 139.705,104.573 141.872,104.073 144,104.5C 144.69,102.65 145.856,101.316 147.5,100.5 Z"/></g>
<g><path style="opacity:1" fill="#000000" d="M 208.5,108.5 C 209.391,109.11 210.391,109.443 211.5,109.5C 210.168,110.83 209.335,112.497 209,114.5C 208.487,113.473 207.987,112.473 207.5,111.5C 208.404,110.791 208.737,109.791 208.5,108.5 Z"/></g>
<g><path style="opacity:1" fill="#838d93" d="M 184.5,110.5 C 188.224,109.773 190.891,111.106 192.5,114.5C 185.577,116.16 178.577,116.66 171.5,116C 170.5,115 169.5,114 168.5,113C 173.988,112.226 179.321,111.393 184.5,110.5 Z"/></g>
<g><path style="opacity:1" fill="#838d93" d="M 150.5,112.5 C 155.489,111.391 159.156,113.058 161.5,117.5C 161.291,118.086 160.957,118.586 160.5,119C 157.146,119.455 153.813,119.955 150.5,120.5C 150.5,117.833 150.5,115.167 150.5,112.5 Z"/></g>
<g><path style="opacity:1" fill="#b8b8b8" d="M 184.5,120.5 C 188.472,121.108 192.472,121.608 196.5,122C 198.848,122.346 200.681,123.513 202,125.5C 202.725,123.842 203.892,123.342 205.5,124C 207.607,125.264 208.607,127.097 208.5,129.5C 207.178,129.67 206.011,129.337 205,128.5C 203.647,136.262 199.147,139.096 191.5,137C 186.282,135.114 182.282,131.781 179.5,127C 181.539,125.074 183.206,122.907 184.5,120.5 Z"/></g>
<g><path style="opacity:1" fill="#000000" d="M 185.5,124.5 C 190.003,124.501 194.337,125.334 198.5,127C 200.879,129.025 201.713,131.525 201,134.5C 199.951,135.517 198.784,135.684 197.5,135C 197.833,134.667 198.167,134.333 198.5,134C 195.776,133.73 193.109,133.23 190.5,132.5C 188.671,133.282 187.171,132.616 186,130.5C 184.759,128.452 184.592,126.452 185.5,124.5 Z"/></g>
<g><path style="opacity:1" fill="#838d93" d="M 167.5,125.5 C 173.694,133.355 180.028,141.188 186.5,149C 185.833,149.667 185.167,149.667 184.5,149C 180.019,142.521 174.852,136.688 169,131.5C 168.495,129.482 167.995,127.482 167.5,125.5 Z"/></g>
<g><path style="opacity:1" fill="#fefffe" d="M 206.5,137.5 C 208.636,139.812 210.636,142.312 212.5,145C 208.294,145.261 204.127,145.761 200,146.5C 197.846,145.68 196.346,144.18 195.5,142C 197.833,141.667 200.167,141.333 202.5,141C 204.324,140.34 205.657,139.173 206.5,137.5 Z"/></g>
<g><path style="opacity:1" fill="#c2c3c2" d="M 180.5,152.5 C 181.675,152.281 182.675,152.614 183.5,153.5C 182.101,158.529 181.101,158.196 180.5,152.5 Z"/></g>
<g><path style="opacity:1" fill="#838d93" d="M 190.5,157.5 C 190.897,156.475 191.563,156.308 192.5,157C 216.881,187.046 240.881,217.379 264.5,248C 263.725,249.23 262.725,249.563 261.5,249C 238.176,218.16 214.509,187.66 190.5,157.5 Z"/></g>
<g><path style="opacity:1" fill="#fefffe" d="M 216.5,156.5 C 218.103,156.312 219.437,156.812 220.5,158C 217.94,160.049 214.94,161.216 211.5,161.5C 210.167,160.833 209.167,159.833 208.5,158.5C 211.306,157.832 213.972,157.166 216.5,156.5 Z"/></g>
<g><path style="opacity:1" fill="#838d93" d="M 179.5,160.5 C 180.239,160.369 180.906,160.536 181.5,161C 126.833,215.667 72.1667,270.333 17.5,325C 16.365,325.749 15.365,325.583 14.5,324.5C 69.5209,269.812 124.521,215.146 179.5,160.5 Z"/></g>
<g><path style="opacity:1" fill="#585d60" d="M 316.5,256.5 C 298.152,234.815 280.152,212.815 262.5,190.5C 262.068,189.29 261.401,188.29 260.5,187.5C 255.115,181.758 249.948,175.758 245,169.5C 240.683,171.148 236.183,171.814 231.5,171.5C 224.301,172.151 217.634,170.651 211.5,167C 220.782,165.58 230.115,164.58 239.5,164C 243.822,163.755 247.822,162.588 251.5,160.5C 252.539,163.047 251.705,165.047 249,166.5C 248.333,167.5 248.333,168.5 249,169.5C 266.948,193.05 285.615,216.05 305,238.5C 309,243.833 313,249.167 317,254.5C 317.692,255.437 317.525,256.103 316.5,256.5 Z"/></g>
<g><path style="opacity:1" fill="#fefffe" d="M 187.5,163.5 C 194.303,171.814 200.97,180.314 207.5,189C 202.481,202.208 197.314,215.374 192,228.5C 182.945,233.222 176.278,240.222 172,249.5C 144.026,255.468 115.86,260.301 87.5,264C 121.035,230.632 154.368,197.132 187.5,163.5 Z M 186.5,168.5 C 156.035,199.465 125.368,230.299 94.5,261C 119.77,257.28 144.936,252.78 170,247.5C 174.278,238.222 180.945,231.222 190,226.5C 194.704,214.262 199.537,202.095 204.5,190C 199.301,183.768 194.468,177.268 190,170.5C 189.184,169.177 188.017,168.511 186.5,168.5 Z"/></g>
<g><path style="opacity:1" fill="#6e7578" d="M 260.5,187.5 C 260.03,188.693 259.03,189.36 257.5,189.5C 256.5,189.333 255.5,189.167 254.5,189C 250.5,183.667 246.5,178.333 242.5,173C 237.167,173 231.833,173 226.5,173C 228.382,172.802 230.048,172.302 231.5,171.5C 236.183,171.814 240.683,171.148 245,169.5C 249.948,175.758 255.115,181.758 260.5,187.5 Z"/></g>
<g><path style="opacity:1" fill="#6e7578" d="M 216.5,174.5 C 216.735,173.903 217.235,173.57 218,173.5C 222.507,173.76 223.174,175.093 220,177.5C 218.961,176.29 217.794,175.29 216.5,174.5 Z"/></g>
<g><path style="opacity:1" fill="#fefffe" d="M 230.5,178.5 C 233.572,178.183 236.572,178.516 239.5,179.5C 241.38,182.091 243.38,184.591 245.5,187C 242.572,186.544 239.572,186.544 236.5,187C 235.789,188.255 234.956,189.421 234,190.5C 231.049,187.428 228.216,184.261 225.5,181C 227.175,180.015 228.842,179.181 230.5,178.5 Z M 232.5,180.5 C 230.388,182.123 230.721,183.79 233.5,185.5C 235.444,184.811 237.444,184.311 239.5,184C 237.94,181.341 235.607,180.174 232.5,180.5 Z"/></g>
<g><path style="opacity:1" fill="#cb9d83" d="M 239.5,190.5 C 242.79,192.95 243.957,196.284 243,200.5C 240.399,203.304 238.899,202.971 238.5,199.5C 239.5,199.5 240.5,199.5 241.5,199.5C 241.5,197.5 241.5,195.5 241.5,193.5C 240.448,193.649 239.448,193.483 238.5,193C 239.252,192.329 239.586,191.496 239.5,190.5 Z"/></g>
<g><path style="opacity:1" fill="#696f73" d="M 262.5,190.5 C 280.152,212.815 298.152,234.815 316.5,256.5C 317.159,259.408 317.993,259.742 319,257.5C 320.617,258.536 320.784,259.703 319.5,261C 324.224,263.815 329.557,268.482 335.5,275C 333.673,275.899 332.34,277.233 331.5,279C 333.875,282.24 336.375,285.406 339,288.5C 339.667,291.833 339.667,295.167 339,298.5C 335.257,295.379 331.424,292.379 327.5,289.5C 326.676,286.215 326.176,282.882 326,279.5C 323.147,276.948 320.647,274.115 318.5,271C 321.046,269.479 321.046,267.979 318.5,266.5C 310.044,259.567 303.044,251.734 297.5,243C 289.963,243.171 282.463,244.004 275,245.5C 273.596,245.491 272.43,244.991 271.5,244C 280.239,242.658 288.905,240.992 297.5,239C 296.5,238.667 295.5,238.333 294.5,238C 289.167,231.667 283.833,225.333 278.5,219C 279.517,217.951 279.684,216.784 279,215.5C 277.991,216.658 276.658,217.325 275,217.5C 267.828,218.716 260.661,219.55 253.5,220C 261.565,218.254 269.565,216.254 277.5,214C 276.5,213.667 275.5,213.333 274.5,213C 270.167,208 265.833,203 261.5,198C 264.046,196.479 264.046,194.979 261.5,193.5C 261.263,192.209 261.596,191.209 262.5,190.5 Z"/></g>
<g><path style="opacity:1" fill="#6e7578" d="M 212.5,191.5 C 213.267,192.172 213.934,193.005 214.5,194C 209.788,205.973 204.788,217.806 199.5,229.5C 199.167,229.333 198.833,229.167 198.5,229C 203.464,216.609 208.13,204.109 212.5,191.5 Z"/></g>
<g><path style="opacity:1" fill="#6e7578" d="M 261.5,193.5 C 256.869,194.86 252.036,195.86 247,196.5C 246.5,196.167 246,195.833 245.5,195.5C 250.777,193.507 256.11,192.84 261.5,193.5 Z"/></g>
<g><path style="opacity:1" fill="#6e7578" d="M 238.5,194.5 C 240.048,194.821 240.715,195.821 240.5,197.5C 237.927,197.852 235.594,197.352 233.5,196C 235.382,195.802 237.048,195.302 238.5,194.5 Z"/></g>
<g><path style="opacity:1" fill="#fefffe" d="M 252.5,200.5 C 253.978,200.238 255.311,200.571 256.5,201.5C 259.355,204.52 262.021,207.687 264.5,211C 260.35,212.295 256.184,213.462 252,214.5C 249.64,211.64 247.473,208.64 245.5,205.5C 247.084,202.68 249.417,201.013 252.5,200.5 Z M 249.5,203.5 C 250.233,210.274 253.567,212.274 259.5,209.5C 257.369,205.346 254.035,203.346 249.5,203.5 Z"/></g>
<g><path style="opacity:1" fill="#fefffe" d="M 217.5,202.5 C 219.934,205.171 222.267,208.004 224.5,211C 221.691,215.387 220.024,220.22 219.5,225.5C 215.818,225.665 212.152,225.499 208.5,225C 211.405,217.448 214.405,209.948 217.5,202.5 Z M 217.5,208.5 C 215.632,213.438 213.965,218.438 212.5,223.5C 214.167,223.5 215.833,223.5 217.5,223.5C 218.184,219.429 219.184,215.429 220.5,211.5C 220.121,209.787 219.121,208.787 217.5,208.5 Z"/></g>
<g><path style="opacity:1" fill="#28292c" d="M 419.5,224.5 C 419.5,225.833 420.167,226.5 421.5,226.5C 423.716,227.203 425.549,228.536 427,230.5C 430.167,235.667 433.333,240.833 436.5,246C 435.584,246.278 434.918,246.778 434.5,247.5C 434.5,248.833 435.167,249.5 436.5,249.5C 437.222,249.082 437.722,248.416 438,247.5C 445.581,260.72 449.748,274.72 450.5,289.5C 447.833,290.167 447.833,290.833 450.5,291.5C 451.117,291.389 451.617,291.056 452,290.5C 452.315,293.372 452.815,296.205 453.5,299C 451.733,300.826 449.566,301.993 447,302.5C 446.722,301.584 446.222,300.918 445.5,300.5C 443.489,287.107 440.489,273.773 436.5,260.5C 436.672,259.508 436.338,258.842 435.5,258.5C 427.774,238.932 414.774,223.765 396.5,213C 392.628,212.096 388.961,210.93 385.5,209.5C 382.359,208.679 379.025,208.179 375.5,208C 390.048,205.639 403.048,208.972 414.5,218C 416.79,219.777 418.457,221.944 419.5,224.5 Z"/></g>
<g><path style="opacity:1" fill="#7e8285" d="M 372.5,209.5 C 374.833,209.5 377.167,209.5 379.5,209.5C 379.5,213.167 379.5,216.833 379.5,220.5C 371.022,220.619 363.522,223.286 357,228.5C 356.667,228.167 356.333,227.833 356,227.5C 354.007,230.681 351.173,233.681 347.5,236.5C 345.041,237.326 342.541,237.993 340,238.5C 338.941,238.37 338.108,237.87 337.5,237C 345.814,223.516 357.481,214.349 372.5,209.5 Z"/></g>
<g><path style="opacity:1" fill="#7e8286" d="M 385.5,209.5 C 388.961,210.93 392.628,212.096 396.5,213C 414.774,223.765 427.774,238.932 435.5,258.5C 433.849,259.97 432.015,261.303 430,262.5C 428.706,258.238 426.206,254.905 422.5,252.5C 421.596,251.791 421.263,250.791 421.5,249.5C 416.813,240.146 409.813,233.146 400.5,228.5C 395.35,223.436 389.017,220.769 381.5,220.5C 381.5,216.833 381.5,213.167 381.5,209.5C 382.833,209.5 384.167,209.5 385.5,209.5 Z"/></g>
<g><path style="opacity:1" fill="#cb9d83" d="M 228.5,212.5 C 229.695,212.866 230.361,213.699 230.5,215C 228.57,219.66 226.57,224.16 224.5,228.5C 223.938,222.824 225.271,217.49 228.5,212.5 Z"/></g>
<g><path style="opacity:1" fill="#fefffe" d="M 232.5,222.5 C 234.701,225.021 237.034,227.521 239.5,230C 236.137,229.993 233.137,228.827 230.5,226.5C 231.18,225.14 231.847,223.807 232.5,222.5 Z"/></g>
<g><path style="opacity:1" fill="#fefffe" d="M 268.5,223.5 C 270.527,223.338 272.527,223.505 274.5,224C 277.833,228 281.167,232 284.5,236C 279.923,236.652 275.423,237.485 271,238.5C 267.833,234.167 264.667,229.833 261.5,225.5C 263.969,224.832 266.302,224.165 268.5,223.5 Z M 270.5,225.5 C 269.048,226.302 267.382,226.802 265.5,227C 267.598,229.854 269.931,232.521 272.5,235C 274.913,235.484 277.246,235.15 279.5,234C 276.794,231.629 274.461,228.963 272.5,226C 271.906,225.536 271.239,225.369 270.5,225.5 Z"/></g>
<g><path style="opacity:1" fill="#949a9d" d="M 372.5,223.5 C 373.818,226.258 374.485,229.424 374.5,233C 374.333,236.167 374.167,239.333 374,242.5C 373.047,240.545 371.713,238.878 370,237.5C 369.501,233.179 369.334,228.846 369.5,224.5C 370.791,224.737 371.791,224.404 372.5,223.5 Z"/></g>
<g><path style="opacity:1" fill="#c2c3c2" d="M 419.5,224.5 C 420.833,224.5 421.5,225.167 421.5,226.5C 421.5,225.167 420.833,224.5 419.5,224.5 Z"/></g>
<g><path style="opacity:1" fill="#fefffe" d="M 380.5,225.5 C 384.035,225.789 387.035,227.123 389.5,229.5C 379.808,252.214 376.808,250.88 380.5,225.5 Z M 381.5,228.5 C 381.335,231.85 381.502,235.183 382,238.5C 383.373,235.588 384.873,232.754 386.5,230C 384.975,228.991 383.308,228.491 381.5,228.5 Z"/></g>
<g><path style="opacity:1" fill="#949a9d" d="M 400.5,228.5 C 398.446,235.164 396.279,241.831 394,248.5C 392.082,247.458 390.249,246.292 388.5,245C 391.461,239.578 394.294,234.078 397,228.5C 398.145,227.316 399.312,227.316 400.5,228.5 Z"/></g>
<g><path style="opacity:1" fill="#949a9d" d="M 358.5,229.5 C 359.239,229.369 359.906,229.536 360.5,230C 358.649,231.684 356.982,233.517 355.5,235.5C 353.902,236.485 352.235,236.651 350.5,236C 353.355,233.969 356.022,231.803 358.5,229.5 Z"/></g>
<g><path style="opacity:1" fill="#28292c" d="M 226.5,233.5 C 226.5,234.833 227.167,235.5 228.5,235.5C 229.222,235.082 229.722,234.416 230,233.5C 245.565,243.238 257.065,256.572 264.5,273.5C 262.546,275.993 260.213,276.993 257.5,276.5C 251.476,263.804 243.476,252.47 233.5,242.5C 232.486,241.326 231.153,240.66 229.5,240.5C 224.38,237.273 219.047,234.607 213.5,232.5C 213.389,231.883 213.056,231.383 212.5,231C 216.905,230.304 221.239,230.637 225.5,232C 226.056,232.383 226.389,232.883 226.5,233.5 Z"/></g>
<g><path style="opacity:1" fill="#7c8083" d="M 213.5,232.5 C 219.047,234.607 224.38,237.273 229.5,240.5C 230.533,244.979 230.033,249.312 228,253.5C 215.658,243.346 202.825,242.846 189.5,252C 188.12,253.925 186.62,255.759 185,257.5C 182.529,254.726 180.695,251.56 179.5,248C 182.451,244.046 185.784,240.379 189.5,237C 191.843,237.707 194.176,237.374 196.5,236C 195.5,235.667 194.5,235.333 193.5,235C 199.877,231.684 206.544,230.851 213.5,232.5 Z"/></g>
<g><path style="opacity:1" fill="#c2c3c2" d="M 226.5,233.5 C 227.833,233.5 228.5,234.167 228.5,235.5C 228.5,234.167 227.833,233.5 226.5,233.5 Z"/></g>
<g><path style="opacity:1" fill="#b06a31" d="M 247.5,239.5 C 244.642,239.405 242.309,238.238 240.5,236C 243.649,234.965 246.316,235.632 248.5,238C 247.944,238.383 247.611,238.883 247.5,239.5 Z"/></g>
<g><path style="opacity:1" fill="#949a9d" d="M 362.5,237.5 C 363.978,237.238 365.311,237.571 366.5,238.5C 379.379,255.091 392.379,271.591 405.5,288C 398.457,289.677 391.457,291.511 384.5,293.5C 382.971,293.471 381.804,292.804 381,291.5C 376.909,285.653 372.576,279.987 368,274.5C 368.422,271.902 368.422,269.236 368,266.5C 364.5,263 361,259.5 357.5,256C 356.167,255.667 354.833,255.333 353.5,255C 349.5,250.333 345.5,245.667 341.5,241C 348.693,240.142 355.693,238.976 362.5,237.5 Z"/></g>
<g><path style="opacity:1" fill="#fefffe" d="M 403.5,237.5 C 406.812,240.146 409.812,243.146 412.5,246.5C 410.547,250.12 407.881,253.12 404.5,255.5C 403.018,253.517 401.351,251.684 399.5,250C 401.335,245.996 402.668,241.83 403.5,237.5 Z M 404.5,242.5 C 404.335,244.827 403.669,246.993 402.5,249C 403.333,249.833 404.167,250.667 405,251.5C 409.729,248.197 409.562,245.197 404.5,242.5 Z"/></g>
<g><path style="opacity:1" fill="#b06a31" d="M 247.5,239.5 C 249.371,239.859 250.871,240.859 252,242.5C 253.833,245 255.667,247.5 257.5,250C 255.633,250.711 254.133,250.211 253,248.5C 251.207,245.705 249.04,243.205 246.5,241C 247.056,240.617 247.389,240.117 247.5,239.5 Z"/></g>
<g><path style="opacity:1" fill="#696f72" d="M 336.5,240.5 C 342.01,245.847 347.01,251.68 351.5,258C 349.333,260.833 347.167,263.667 345,266.5C 340.141,261.276 335.641,255.776 331.5,250C 334.008,247.335 335.675,244.168 336.5,240.5 Z"/></g>
<g><path style="opacity:1" fill="#878b8f" d="M 233.5,242.5 C 243.476,252.47 251.476,263.804 257.5,276.5C 257.796,278.403 258.463,280.07 259.5,281.5C 263.833,295.514 267.833,309.514 271.5,323.5C 271.5,324.5 271.5,325.5 271.5,326.5C 269.833,326.5 268.167,326.5 266.5,326.5C 265.947,324.061 265.947,321.727 266.5,319.5C 263.425,315.251 261.258,309.918 260,303.5C 260.45,300.127 260.617,296.793 260.5,293.5C 259.481,291.396 258.481,289.396 257.5,287.5C 256.68,285.188 255.847,282.854 255,280.5C 254.667,281.167 254.333,281.833 254,282.5C 250.835,276.166 247.169,270.166 243,264.5C 242.536,265.094 242.369,265.761 242.5,266.5C 238.188,262.854 234.188,258.854 230.5,254.5C 231.297,250.331 232.297,246.331 233.5,242.5 Z"/></g>
<g><path style="opacity:1" fill="#c2c3c2" d="M 240.5,244.5 C 242.337,244.639 242.67,245.306 241.5,246.5C 240.702,246.043 240.369,245.376 240.5,244.5 Z"/></g>
<g><path style="opacity:1" fill="#c2c3c2" d="M 434.5,247.5 C 435.833,247.5 436.5,248.167 436.5,249.5C 436.5,248.167 435.833,247.5 434.5,247.5 Z"/></g>
<g><path style="opacity:1" fill="#fefffe" d="M 288.5,248.5 C 290.199,248.34 291.866,248.506 293.5,249C 295.644,251.979 297.978,254.812 300.5,257.5C 296.807,257.793 293.64,259.127 291,261.5C 287.833,257.667 284.667,253.833 281.5,250C 284.036,249.814 286.369,249.314 288.5,248.5 Z M 290.5,250.5 C 289.602,251.158 288.602,251.824 287.5,252.5C 289.123,256.058 291.79,257.224 295.5,256C 294.167,253.809 292.5,251.976 290.5,250.5 Z"/></g>
<g><path style="opacity:1" fill="#c2c3c2" d="M 386.5,248.5 C 398.047,252.535 401.547,260.202 397,271.5C 396.626,270.584 396.126,269.75 395.5,269C 399.267,260.398 396.767,254.231 388,250.5C 381.375,255.928 380.875,255.262 386.5,248.5 Z"/></g>
<g><path style="opacity:1" fill="#949a9d" d="M 421.5,249.5 C 421.263,250.791 421.596,251.791 422.5,252.5C 414.857,259.982 407.69,267.982 401,276.5C 400.333,274.167 400.333,271.833 401,269.5C 406.833,263 412.667,256.5 418.5,250C 419.448,249.517 420.448,249.351 421.5,249.5 Z"/></g>
<g><path style="opacity:1" fill="#949a9d" d="M 200.5,250.5 C 210.71,268.087 219.71,286.254 227.5,305C 225.782,305.346 224.115,305.846 222.5,306.5C 220.808,304.641 219.308,302.641 218,300.5C 212.615,286.729 206.949,273.062 201,259.5C 200.117,256.898 198.617,254.731 196.5,253C 198.066,252.392 199.4,251.558 200.5,250.5 Z"/></g>
<g><path style="opacity:1" fill="#949a9d" d="M 272.5,250.5 C 274.017,250.511 275.184,251.177 276,252.5C 288.667,268.5 301.333,284.5 314,300.5C 314.617,301.449 314.451,302.282 313.5,303C 305.24,304.94 297.073,307.106 289,309.5C 285.425,305.347 282.091,301.014 279,296.5C 273.03,281.726 265.863,267.56 257.5,254C 262.564,252.608 267.564,251.441 272.5,250.5 Z"/></g>
<g><path style="opacity:1" fill="#fefffe" d="M 210.5,251.5 C 211.833,251.5 213.167,251.5 214.5,251.5C 215.13,256.195 215.63,260.862 216,265.5C 213.961,261.255 211.794,257.088 209.5,253C 210.056,252.617 210.389,252.117 210.5,251.5 Z"/></g>
<g><path style="opacity:1" fill="#828689" d="M 177.5,252.5 C 178.547,255.098 180.547,257.598 183.5,260C 181.273,262.564 179.439,265.397 178,268.5C 170.522,288.026 168.689,308.192 172.5,329C 172.821,333.342 170.821,335.176 166.5,334.5C 161.704,305.985 165.371,278.651 177.5,252.5 Z"/></g>
<g><path style="opacity:1" fill="#6e7578" d="M 194.5,252.5 C 195.043,252.56 195.376,252.893 195.5,253.5C 191.061,258.04 187.894,263.373 186,269.5C 184.506,270.747 183.006,270.747 181.5,269.5C 185.138,263.186 189.471,257.519 194.5,252.5 Z"/></g>
<g><path style="opacity:1" fill="#949a9d" d="M 219.5,253.5 C 219.897,252.475 220.563,252.308 221.5,253C 223.122,254.295 224.455,255.795 225.5,257.5C 229.462,274.48 232.962,291.48 236,308.5C 233.278,307.155 231.278,305.155 230,302.5C 226.667,285.992 223.167,269.658 219.5,253.5 Z"/></g>
<g><path style="opacity:1" fill="#949a9d" d="M 387.5,252.5 C 388.5,252.5 389.5,252.5 390.5,252.5C 390.357,255.097 389.523,257.431 388,259.5C 384.879,257.326 384.712,254.993 387.5,252.5 Z"/></g>
<g><path style="opacity:1" fill="#838d93" d="M 166.5,256.5 C 172.756,256.069 173.09,257.236 167.5,260C 135.514,265.775 103.514,271.109 71.5,276C 73.108,273.391 75.4413,272.058 78.5,272C 108.026,267.136 137.36,261.969 166.5,256.5 Z"/></g>
<g><path style="opacity:1" fill="#c2c3c2" d="M 354.5,257.5 C 359.486,260.486 363.486,264.486 366.5,269.5C 364.806,275.221 362.306,280.554 359,285.5C 360.049,281.382 361.716,277.382 364,273.5C 364.327,267.289 361.494,262.956 355.5,260.5C 353.971,260.529 352.804,261.196 352,262.5C 350.333,264.833 348.667,267.167 347,269.5C 346.833,269.167 346.667,268.833 346.5,268.5C 348.931,264.627 351.598,260.96 354.5,257.5 Z"/></g>
<g><path style="opacity:1" fill="#b06a31" d="M 229.5,259.5 C 233.146,262.479 236.479,265.812 239.5,269.5C 236.914,270.48 234.247,270.813 231.5,270.5C 230.992,266.803 230.326,263.136 229.5,259.5 Z"/></g>
<g><path style="opacity:1" fill="#84888c" d="M 436.5,260.5 C 440.489,273.773 443.489,287.107 445.5,300.5C 445.5,308.5 445.5,316.5 445.5,324.5C 444.458,334.676 442.125,344.676 438.5,354.5C 437.883,354.611 437.383,354.944 437,355.5C 435.257,353.679 433.757,351.679 432.5,349.5C 435.254,342.985 436.254,336.318 435.5,329.5C 436.23,326.422 437.397,323.422 439,320.5C 439.717,311.464 439.384,302.464 438,293.5C 437.163,291.156 435.829,289.156 434,287.5C 424.773,291.181 415.273,293.681 405.5,295C 406.46,293.581 407.293,292.081 408,290.5C 408.725,291.059 409.558,291.392 410.5,291.5C 418.781,289.46 426.948,287.127 435,284.5C 435.158,277.633 433.658,271.133 430.5,265C 432.66,263.668 434.66,262.168 436.5,260.5 Z"/></g>
<g><path style="opacity:1" fill="#c2c3c2" d="M 297.5,262.5 C 299.39,262.297 300.89,262.963 302,264.5C 305.132,268.466 307.632,272.799 309.5,277.5C 308.333,279.833 307.167,282.167 306,284.5C 305.852,282.095 306.352,279.761 307.5,277.5C 306.032,272.242 303.199,267.908 299,264.5C 292.475,269.795 291.975,269.128 297.5,262.5 Z"/></g>
<g><path style="opacity:1" fill="#949a9d" d="M 329.5,262.5 C 332.719,264.528 334.886,267.195 336,270.5C 333.218,268.229 331.051,265.563 329.5,262.5 Z"/></g>
<g><path style="opacity:1" fill="#6b7174" d="M 354.5,262.5 C 363.61,266.639 364.61,272.139 357.5,279C 358.784,280.297 358.617,281.464 357,282.5C 354.167,279 351.333,275.5 348.5,272C 350.329,268.682 352.329,265.516 354.5,262.5 Z"/></g>
<g><path style="opacity:1" fill="#fefffe" d="M 421.5,262.5 C 425.436,267.38 428.103,273.047 429.5,279.5C 423.654,281.799 417.654,283.799 411.5,285.5C 410.167,283.5 408.833,281.5 407.5,279.5C 412.19,273.814 416.857,268.147 421.5,262.5 Z M 420.5,267.5 C 417.749,271.757 414.416,275.59 410.5,279C 411.167,280 411.833,281 412.5,282C 417.033,281.241 421.533,280.074 426,278.5C 425.744,273.988 423.911,270.321 420.5,267.5 Z"/></g>
<g><path style="opacity:1" fill="#fefffe" d="M 195.5,263.5 C 198.557,268.839 200.724,274.506 202,280.5C 199,277.5 196,274.5 193,271.5C 192.933,268.613 193.767,265.946 195.5,263.5 Z"/></g>
<g><path style="opacity:1" fill="#c2c3c2" d="M 255.5,265.5 C 257.337,265.639 257.67,266.306 256.5,267.5C 255.702,267.043 255.369,266.376 255.5,265.5 Z"/></g>
<g><path style="opacity:1" fill="#6e7578" d="M 318.5,266.5 C 315.534,267.867 312.367,268.867 309,269.5C 308.5,269 308,268.5 307.5,268C 311.086,266.892 314.753,266.392 318.5,266.5 Z"/></g>
<g><path style="opacity:1" fill="#c2c3c2" d="M 442.5,266.5 C 444.337,266.639 444.67,267.306 443.5,268.5C 442.702,268.043 442.369,267.376 442.5,266.5 Z"/></g>
<g><path style="opacity:1" fill="#6e7578" d="M 297.5,267.5 C 301.181,269.12 301.181,270.453 297.5,271.5C 297.094,270.443 297.094,269.109 297.5,267.5 Z"/></g>
<g><path style="opacity:1" fill="#949a9d" d="M 181.5,276.5 C 181.5,274.833 181.5,273.167 181.5,271.5C 182.978,271.238 184.311,271.571 185.5,272.5C 195.152,282.653 204.986,292.653 215,302.5C 216.182,304.344 217.349,306.177 218.5,308C 217.303,309.52 215.803,310.687 214,311.5C 204.313,300.648 194.813,289.648 185.5,278.5C 184.234,277.638 182.901,276.971 181.5,276.5 Z"/></g>
<g><path style="opacity:1" fill="#838d93" d="M 58.5,273.5 C 62.1331,273.443 62.2998,274.443 59,276.5C 58.5172,275.552 58.3505,274.552 58.5,273.5 Z"/></g>
<g><path style="opacity:1" fill="#6e7578" d="M 181.5,276.5 C 181.821,277.817 182.154,279.151 182.5,280.5C 181.14,289.796 180.14,299.129 179.5,308.5C 178.167,308.5 176.833,308.5 175.5,308.5C 175.5,309.833 175.5,311.167 175.5,312.5C 173.91,299.32 175.41,286.32 180,273.5C 180.232,274.737 180.732,275.737 181.5,276.5 Z"/></g>
<g><path style="opacity:1" fill="#949a9d" d="M 242.5,274.5 C 245.013,276.695 246.346,279.529 246.5,283C 245.722,293.365 244.222,303.531 242,313.5C 240.196,311.723 239.363,309.556 239.5,307C 240.577,296.164 241.577,285.331 242.5,274.5 Z"/></g>
<g><path style="opacity:1" fill="#56585b" d="M 257.5,287.5 C 257.291,288.922 256.791,290.255 256,291.5C 251.984,282.794 247.484,274.46 242.5,266.5C 242.369,265.761 242.536,265.094 243,264.5C 247.169,270.166 250.835,276.166 254,282.5C 254.333,281.833 254.667,281.167 255,280.5C 255.847,282.854 256.68,285.188 257.5,287.5 Z"/></g>
<g><path style="opacity:1" fill="#292a2e" d="M 272.5,385.5 C 275.101,366.514 275.101,347.514 272.5,328.5C 272.784,326.585 272.451,324.919 271.5,323.5C 267.833,309.514 263.833,295.514 259.5,281.5C 260.574,278.932 262.574,277.265 265.5,276.5C 271.506,285.673 275.673,295.673 278,306.5C 282.886,327.918 284.886,349.585 284,371.5C 283.574,376.584 282.74,381.584 281.5,386.5C 279.116,386.443 276.782,386.777 274.5,387.5C 273.287,387.253 272.62,386.586 272.5,385.5 Z"/></g>
<g><path style="opacity:1" fill="#fefffe" d="M 314.5,276.5 C 316.6,279.104 318.933,281.604 321.5,284C 318.558,285.124 315.558,285.458 312.5,285C 314.179,282.435 314.846,279.602 314.5,276.5 Z"/></g>
<g><path style="opacity:1" fill="#949a9d" d="M 340.5,276.5 C 342.846,278.674 344.846,281.174 346.5,284C 345.362,286.045 343.695,286.712 341.5,286C 339.47,284.104 337.803,281.937 336.5,279.5C 337.901,278.479 339.235,277.479 340.5,276.5 Z"/></g>
<g><path style="opacity:1" fill="#6e7578" d="M 249.5,287.5 C 253.318,292.139 255.151,297.472 255,303.5C 252.333,306.167 249.667,308.833 247,311.5C 247.059,307.963 248.893,305.463 252.5,304C 253.293,302.915 253.96,301.748 254.5,300.5C 253.294,297.125 251.46,294.125 249,291.5C 248.421,290.072 248.588,288.738 249.5,287.5 Z"/></g>
<g><path style="opacity:1" fill="#c2c3c2" d="M 266.5,287.5 C 268.337,287.639 268.67,288.306 267.5,289.5C 266.702,289.043 266.369,288.376 266.5,287.5 Z"/></g>
<g><path style="opacity:1" fill="#6e7578" d="M 348.5,287.5 C 353.957,292.802 358.957,298.635 363.5,305C 362.004,305.507 360.837,305.007 360,303.5C 355.923,298.27 352.09,292.936 348.5,287.5 Z"/></g>
<g><path style="opacity:1" fill="#fefffe" d="M 186.5,289.5 C 192.596,296.77 198.93,303.937 205.5,311C 198.406,310.48 191.406,309.147 184.5,307C 185.494,301.248 186.16,295.415 186.5,289.5 Z M 188.5,296.5 C 187.597,299.391 187.264,302.391 187.5,305.5C 190.376,305.927 193.209,306.594 196,307.5C 196.5,307.167 197,306.833 197.5,306.5C 194.449,303.121 191.449,299.788 188.5,296.5 Z"/></g>
<g><path style="opacity:1" fill="#949a9d" d="M 321.5,289.5 C 322.552,289.351 323.552,289.517 324.5,290C 327.167,292 329.833,294 332.5,296C 327.537,297.526 322.537,298.526 317.5,299C 315.126,296.961 313.126,294.628 311.5,292C 314.909,291.004 318.242,290.171 321.5,289.5 Z"/></g>
<g><path style="opacity:1" fill="#c2c3c2" d="M 450.5,289.5 C 450.5,290.167 450.5,290.833 450.5,291.5C 447.833,290.833 447.833,290.167 450.5,289.5 Z"/></g>
<g><path style="opacity:1" fill="#808487" d="M 342.5,290.5 C 345.099,290.549 347.266,291.549 349,293.5C 352.519,297.359 355.686,301.525 358.5,306C 352.277,311.488 347.11,310.655 343,303.5C 343.55,299.206 343.383,294.872 342.5,290.5 Z"/></g>
<g><path style="opacity:1" fill="#646a6d" d="M 365.5,277.5 C 366.496,277.414 367.329,277.748 368,278.5C 371.667,283.5 375.333,288.5 379,293.5C 379.333,295.833 379.667,298.167 380,300.5C 380.494,298.866 380.66,297.199 380.5,295.5C 388.939,294.29 397.273,292.79 405.5,291C 401.301,297.703 397.301,304.537 393.5,311.5C 389.245,312.894 384.912,313.394 380.5,313C 373.847,304.716 367.18,296.383 360.5,288C 362.579,284.676 364.246,281.176 365.5,277.5 Z"/></g>
<g><path style="opacity:1" fill="#fefffe" d="M 427.5,295.5 C 429.766,295.141 431.599,295.808 433,297.5C 433.623,301.986 434.123,306.486 434.5,311C 434.536,313.63 434.036,316.13 433,318.5C 424.809,314.934 416.642,311.268 408.5,307.5C 407.062,305.002 407.396,302.836 409.5,301C 415.764,299.631 421.764,297.798 427.5,295.5 Z M 429.5,297.5 C 422.887,299.816 416.22,302.15 409.5,304.5C 416.818,308.66 424.485,311.993 432.5,314.5C 432.248,309.481 431.748,304.481 431,299.5C 430.722,298.584 430.222,297.918 429.5,297.5 Z"/></g>
<g><path style="opacity:1" fill="#6e7578" d="M 333.5,297.5 C 334.973,298.072 336.307,298.905 337.5,300C 331.706,302.115 325.706,303.615 319.5,304.5C 319.281,303.325 319.614,302.325 320.5,301.5C 325.026,300.407 329.359,299.073 333.5,297.5 Z"/></g>
<g><path style="opacity:1" fill="#949a9d" d="M 402.5,299.5 C 403.103,301.626 403.103,303.959 402.5,306.5C 401.325,306.719 400.325,306.386 399.5,305.5C 400.559,303.466 401.559,301.466 402.5,299.5 Z"/></g>
<g><path style="opacity:1" fill="#676c70" d="M 337.5,302.5 C 339.574,304.762 341.574,307.262 343.5,310C 338.617,311.593 333.617,312.759 328.5,313.5C 325.391,312.226 323.058,310.06 321.5,307C 326.939,305.477 332.273,303.977 337.5,302.5 Z"/></g>
<g><path style="opacity:1" fill="#2b2c30" d="M 453.5,311.5 C 450.833,312.167 450.833,312.833 453.5,313.5C 455.309,338.572 447.809,360.572 431,379.5C 429.558,377.609 428.391,375.609 427.5,373.5C 430.496,370.355 432.162,366.855 432.5,363C 434.07,361.603 435.404,360.103 436.5,358.5C 437.674,357.486 438.34,356.153 438.5,354.5C 442.125,344.676 444.458,334.676 445.5,324.5C 446.167,317.988 446.833,311.321 447.5,304.5C 449.5,303.833 451.5,303.167 453.5,302.5C 454.803,305.645 454.803,308.645 453.5,311.5 Z"/></g>
<g><path style="opacity:1" fill="#949a9d" d="M 256.5,305.5 C 257.718,307.828 258.718,310.328 259.5,313C 255.167,315.5 250.833,318 246.5,320.5C 245.479,319.998 245.312,319.332 246,318.5C 249.713,314.292 253.213,309.959 256.5,305.5 Z"/></g>
<g><path style="opacity:1" fill="#d28641" d="M 315.5,305.5 C 317.716,306.203 319.549,307.536 321,309.5C 358,356.5 395,403.5 432,450.5C 433.559,452.217 434.392,454.217 434.5,456.5C 432.61,456.703 431.11,456.037 430,454.5C 391.548,405.046 352.714,355.879 313.5,307C 314.416,306.722 315.082,306.222 315.5,305.5 Z"/></g>
<g><path style="opacity:1" fill="#5f6568" d="M 281.5,306.5 C 284.478,308.675 285.978,311.675 286,315.5C 286.483,314.552 286.649,313.552 286.5,312.5C 294.252,311.313 301.919,309.646 309.5,307.5C 310.442,307.608 311.275,307.941 312,308.5C 310.279,314.609 307.445,320.276 303.5,325.5C 297.884,327.321 292.218,328.987 286.5,330.5C 284.083,328.506 284.083,326.673 286.5,325C 284.072,323.838 283.405,322.171 284.5,320C 283.017,315.6 282.017,311.1 281.5,306.5 Z"/></g>
<g><path style="opacity:1" fill="#646a6d" d="M 364.5,307.5 C 372.343,316.689 380.509,327.022 389,338.5C 390.309,340.747 390.975,343.08 391,345.5C 384.134,336.933 377.634,328.1 371.5,319C 359.81,319.585 348.144,320.752 336.5,322.5C 333.176,322.017 330.842,320.184 329.5,317C 340.833,314.667 352.167,312.333 363.5,310C 364.252,309.329 364.586,308.496 364.5,307.5 Z"/></g>
<g><path style="opacity:1" fill="#949a9d" d="M 225.5,308.5 C 229.481,308.776 233.148,310.11 236.5,312.5C 242.966,319.007 244.466,326.34 241,334.5C 239.042,339.59 236.208,344.09 232.5,348C 229.923,349.25 227.257,349.584 224.5,349C 233.398,338.683 233.565,328.183 225,317.5C 223.075,315.787 220.908,314.453 218.5,313.5C 221.077,312.057 223.41,310.39 225.5,308.5 Z"/></g>
<g><path style="opacity:1" fill="#949a9d" d="M 435.5,329.5 C 421.867,324.345 408.534,318.511 395.5,312C 396.155,310.513 397.155,309.347 398.5,308.5C 410.209,315.515 422.542,321.181 435.5,325.5C 435.5,326.833 435.5,328.167 435.5,329.5 Z"/></g>
<g><path style="opacity:1" fill="#c2c3c2" d="M 273.5,309.5 C 275.465,309.948 275.798,310.948 274.5,312.5C 273.614,311.675 273.281,310.675 273.5,309.5 Z"/></g>
<g><path style="opacity:1" fill="#949a9d" d="M 175.5,312.5 C 176.416,312.018 177.416,311.685 178.5,311.5C 188.234,313.812 197.901,316.312 207.5,319C 206.91,320.299 205.91,321.132 204.5,321.5C 195.833,319.333 187.167,317.167 178.5,315C 176.881,314.764 175.881,313.931 175.5,312.5 Z"/></g>
<g><path style="opacity:1" fill="#454a4c" d="M 313.5,311.5 C 315.951,313.123 317.951,315.289 319.5,318C 318.197,318.21 316.864,318.043 315.5,317.5C 313.62,317.925 312.12,318.925 311,320.5C 310.5,320.333 310,320.167 309.5,320C 311.246,317.341 312.58,314.508 313.5,311.5 Z"/></g>
<g><path style="opacity:1" fill="#c2c3c2" d="M 453.5,311.5 C 453.5,312.167 453.5,312.833 453.5,313.5C 450.833,312.833 450.833,312.167 453.5,311.5 Z"/></g>
<g><path style="opacity:1" fill="#93989b" d="M 427.5,360.5 C 425.833,362.833 423.833,364.833 421.5,366.5C 409.194,350.532 396.194,333.698 382.5,316C 384.698,315.627 386.865,315.127 389,314.5C 400.357,328.193 411.357,342.193 422,356.5C 423.5,358.469 425.333,359.802 427.5,360.5 Z"/></g>
<g><path style="opacity:1" fill="#6c7175" d="M 183.5,352.5 C 183.025,355.313 184.025,357.313 186.5,358.5C 190.468,367.427 194.134,376.427 197.5,385.5C 198.5,386.5 199.5,387.5 200.5,388.5C 203.786,391.698 206.619,395.364 209,399.5C 213.072,403.085 217.239,406.418 221.5,409.5C 222.167,409.5 222.5,409.833 222.5,410.5C 224.158,411.181 225.825,412.015 227.5,413C 225.447,413.325 223.447,412.991 221.5,412C 205.782,402.949 194.282,390.116 187,373.5C 179.67,354.848 175.67,335.515 175,315.5C 175.589,317.863 177.089,318.863 179.5,318.5C 180.886,328.868 182.553,339.202 184.5,349.5C 184.315,350.584 183.982,351.584 183.5,352.5 Z"/></g>
<g><path style="opacity:1" fill="#6e7578" d="M 259.5,316.5 C 263.189,323.255 265.022,330.588 265,338.5C 263.442,336.641 261.609,335.141 259.5,334C 260.558,328.014 260.558,322.18 259.5,316.5 Z"/></g>
<g><path style="opacity:1" fill="#878b8f" d="M 216.5,337.5 C 219.019,333.876 219.019,330.21 216.5,326.5C 214.031,325.683 211.365,325.183 208.5,325C 212.601,315.706 217.434,315.206 223,323.5C 224.044,325.715 224.71,328.048 225,330.5C 225.333,329.167 225.667,327.833 226,326.5C 228.585,331.364 228.585,336.364 226,341.5C 225.363,343.303 224.197,344.636 222.5,345.5C 220.437,345.608 218.27,345.275 216,344.5C 214.188,342.688 212.355,340.855 210.5,339C 212.708,338.809 214.708,338.309 216.5,337.5 Z"/></g>
<g><path style="opacity:1" fill="#6e7578" d="M 254.5,319.5 C 257.444,323.021 258.111,327.021 256.5,331.5C 253.19,329.518 250.19,327.185 247.5,324.5C 250.077,323.057 252.41,321.39 254.5,319.5 Z"/></g>
<g><path style="opacity:1" fill="#949a9d" d="M 314.5,319.5 C 317.203,319.952 319.87,320.619 322.5,321.5C 318.485,325.938 315.819,325.271 314.5,319.5 Z"/></g>
<g><path style="opacity:1" fill="#949a9d" d="M 439.5,421.5 C 415.155,388.795 390.822,356.128 366.5,323.5C 367.255,321.534 368.421,321.2 370,322.5C 393.359,355.881 417.692,388.547 443,420.5C 442.778,422.828 441.612,423.162 439.5,421.5 Z"/></g>
<g><path style="opacity:1" fill="#fefffe" d="M 185.5,322.5 C 191.034,324.3 196.701,325.633 202.5,326.5C 202.876,329.627 202.876,332.627 202.5,335.5C 197.999,337.916 193.666,340.583 189.5,343.5C 187.842,336.549 186.508,329.549 185.5,322.5 Z M 188.5,326.5 C 189.116,330.863 189.95,335.197 191,339.5C 194,337.5 197,335.5 200,333.5C 200.494,331.866 200.66,330.199 200.5,328.5C 196.5,327.833 192.5,327.167 188.5,326.5 Z"/></g>
<g><path style="opacity:1" fill="#7a7e82" d="M 366.5,323.5 C 390.822,356.128 415.155,388.795 439.5,421.5C 438.928,424.244 437.262,425.077 434.5,424C 430.631,420.466 427.131,416.633 424,412.5C 423.607,410.801 424.107,409.301 425.5,408C 424.171,406.34 423.171,404.507 422.5,402.5C 410.451,397.945 403.285,389.278 401,376.5C 399.56,378.046 397.727,378.879 395.5,379C 390.813,379.726 386.146,380.559 381.5,381.5C 380.09,381.132 379.09,380.299 378.5,379C 383.785,377.974 389.118,377.307 394.5,377C 401.167,375.667 401.167,374.333 394.5,373C 391.623,368.745 388.623,364.578 385.5,360.5C 385.709,359.914 386.043,359.414 386.5,359C 383.317,355.985 380.317,352.818 377.5,349.5C 378.325,348.614 379.325,348.281 380.5,348.5C 380.688,346.897 380.188,345.563 379,344.5C 371.366,347.367 363.533,349.201 355.5,350C 363.057,348.258 370.39,345.925 377.5,343C 375.624,341.983 373.624,341.149 371.5,340.5C 368.116,334.276 364.116,328.442 359.5,323C 361.929,322.297 364.262,322.463 366.5,323.5 Z"/></g>
<g><path style="opacity:1" fill="#fefffe" d="M 404.5,324.5 C 404.56,323.957 404.893,323.624 405.5,323.5C 413.642,327.268 421.809,330.934 430,334.5C 429.948,339.99 428.281,344.99 425,349.5C 418.626,340.729 411.793,332.395 404.5,324.5 Z M 413.5,331.5 C 417.468,335.639 421.301,339.973 425,344.5C 426.919,341.626 427.419,338.626 426.5,335.5C 422.5,333.833 418.5,332.167 414.5,330.5C 413.893,330.624 413.56,330.957 413.5,331.5 Z"/></g>
<g><path style="opacity:1" fill="#949a9d" d="M 326.5,327.5 C 325.057,328.335 324.057,329.668 323.5,331.5C 317.858,327.317 318.525,325.151 325.5,325C 326.252,325.671 326.586,326.504 326.5,327.5 Z"/></g>
<g><path style="opacity:1" fill="#6e7578" d="M 341.5,324.5 C 342.833,324.5 344.167,324.5 345.5,324.5C 346.818,330.142 348.985,335.475 352,340.5C 354.455,336.469 356.121,332.136 357,327.5C 357.972,329.305 359.139,330.972 360.5,332.5C 358.428,337.05 356.762,341.717 355.5,346.5C 353.097,346.607 351.264,345.607 350,343.5C 345.5,337.667 341,331.833 336.5,326C 338.382,325.802 340.048,325.302 341.5,324.5 Z"/></g>
<g><path style="opacity:1" fill="#c2c3c2" d="M 216.5,326.5 C 219.019,330.21 219.019,333.876 216.5,337.5C 208.748,337.687 206.082,334.021 208.5,326.5C 211.167,326.5 213.833,326.5 216.5,326.5 Z"/></g>
<g><path style="opacity:1" fill="#949a9d" d="M 245.5,328.5 C 251.842,333.336 258.342,338.002 265,342.5C 265.667,344.833 265.667,347.167 265,349.5C 258.586,345.043 252.086,340.709 245.5,336.5C 244.795,333.911 244.795,331.244 245.5,328.5 Z"/></g>
<g><path style="opacity:1" fill="#91969a" d="M 272.5,328.5 C 275.101,347.514 275.101,366.514 272.5,385.5C 271.566,386.568 271.232,387.901 271.5,389.5C 268.516,399.1 264.183,408.1 258.5,416.5C 255.924,414.223 253.924,411.389 252.5,408C 260.775,397.609 265.941,385.775 268,372.5C 268.187,360.454 268.687,348.454 269.5,336.5C 267.934,334.038 267.601,331.538 268.5,329C 269.793,328.51 271.127,328.343 272.5,328.5 Z"/></g>
<g><path style="opacity:1" fill="#c2c3c2" d="M 278.5,334.5 C 280.465,334.948 280.798,335.948 279.5,337.5C 278.614,336.675 278.281,335.675 278.5,334.5 Z"/></g>
<g><path style="opacity:1" fill="#83878a" d="M 169.5,335.5 C 170.833,335.5 172.167,335.5 173.5,335.5C 176.439,354.816 182.273,373.149 191,390.5C 195,394.5 199,398.5 203,402.5C 203.201,405.515 202.868,408.515 202,411.5C 201.586,411.957 201.086,412.291 200.5,412.5C 192.271,404.084 185.771,394.418 181,383.5C 174.488,369.297 169.988,354.464 167.5,339C 167.862,337.566 168.528,336.399 169.5,335.5 Z"/></g>
<g><path style="opacity:1" fill="#949a9d" d="M 242.5,339.5 C 244.564,340.058 246.23,341.225 247.5,343C 252.736,354.875 258.07,366.709 263.5,378.5C 262.431,381.539 261.265,384.539 260,387.5C 253.412,372.826 247.245,357.993 241.5,343C 241.648,341.744 241.982,340.577 242.5,339.5 Z"/></g>
<g><path style="opacity:1" fill="#949a9d" d="M 186.5,358.5 C 184.025,357.313 183.025,355.313 183.5,352.5C 185.655,352.628 187.655,352.128 189.5,351C 195.034,347.302 200.701,343.802 206.5,340.5C 208.762,341.345 209.429,342.678 208.5,344.5C 201.658,348.422 194.658,352.088 187.5,355.5C 186.614,356.325 186.281,357.325 186.5,358.5 Z"/></g>
<g><path style="opacity:1" fill="#949a9d" d="M 238.5,347.5 C 241.268,352.941 243.768,358.607 246,364.5C 247.301,378.487 247.968,392.487 248,406.5C 245.247,410.735 243.58,410.401 243,405.5C 241.279,386.178 239.779,366.845 238.5,347.5 Z"/></g>
<g><path style="opacity:1" fill="#202021" d="M 343.5,348.5 C 343.427,350.027 344.094,351.027 345.5,351.5C 345.5,352.167 345.5,352.833 345.5,353.5C 344.778,353.918 344.278,354.584 344,355.5C 343.426,353.508 342.259,352.008 340.5,351C 341.691,350.302 342.691,349.469 343.5,348.5 Z"/></g>
<g><path style="opacity:1" fill="#949a9d" d="M 343.5,348.5 C 344.906,348.973 345.573,349.973 345.5,351.5C 344.094,351.027 343.427,350.027 343.5,348.5 Z"/></g>
<g><path style="opacity:1" fill="#fefffe" d="M 209.5,350.5 C 210.675,350.281 211.675,350.614 212.5,351.5C 208.248,358.339 203.748,365.006 199,371.5C 196.442,367.359 195.275,363.025 195.5,358.5C 200.463,356.17 205.13,353.503 209.5,350.5 Z M 205.5,356.5 C 202.948,357.693 200.448,359.027 198,360.5C 197.764,362.3 198.264,363.966 199.5,365.5C 202.252,362.996 204.252,359.996 205.5,356.5 Z"/></g>
<g><path style="opacity:1" fill="#949a9d" d="M 200.5,388.5 C 199.5,387.5 198.5,386.5 197.5,385.5C 205.47,374.01 213.304,362.344 221,350.5C 222.171,351.893 223.671,352.727 225.5,353C 217.514,365.163 209.18,376.996 200.5,388.5 Z"/></g>
<g><path style="opacity:1" fill="#949a9d" d="M 222.5,410.5 C 222.5,409.833 222.167,409.5 221.5,409.5C 223.84,391.795 226.506,374.128 229.5,356.5C 229.43,355.228 229.097,354.062 228.5,353C 230.762,352.358 232.929,351.525 235,350.5C 235.282,354.039 235.782,357.539 236.5,361C 232.258,377.38 228.591,393.88 225.5,410.5C 224.5,410.5 223.5,410.5 222.5,410.5 Z"/></g>
<g><path style="opacity:1" fill="#6e7578" d="M 371.5,350.5 C 374.091,351.254 375.924,352.921 377,355.5C 377.667,360.167 377.667,364.833 377,369.5C 374.103,371.054 371.603,370.554 369.5,368C 371.425,362.464 372.092,356.631 371.5,350.5 Z"/></g>
<g><path style="opacity:1" fill="#8e9296" d="M 345.5,351.5 C 355.869,362.567 365.036,374.567 373,387.5C 385.056,403.89 396.723,420.557 408,437.5C 410,438.833 412,438.833 414,437.5C 415.728,438.352 415.895,439.352 414.5,440.5C 412.742,440.877 411.075,441.544 409.5,442.5C 402.141,433.376 395.141,424.043 388.5,414.5C 387.89,412.566 386.89,410.899 385.5,409.5C 378.855,399.53 371.855,389.863 364.5,380.5C 358.902,370.966 352.569,361.966 345.5,353.5C 345.5,352.833 345.5,352.167 345.5,351.5 Z"/></g>
<g><path style="opacity:1" fill="#727578" d="M 436.5,358.5 C 435.404,360.103 434.07,361.603 432.5,363C 432.162,366.855 430.496,370.355 427.5,373.5C 425.155,371.486 423.155,369.153 421.5,366.5C 423.833,364.833 425.833,362.833 427.5,360.5C 427.965,357.855 429.298,355.188 431.5,352.5C 433.701,354.056 433.701,355.223 431.5,356C 432.667,356.5 433.5,357.333 434,358.5C 434.705,356.014 435.538,356.014 436.5,358.5 Z"/></g>
<g><path style="opacity:1" fill="#fefffe" d="M 259.5,353.5 C 263.332,355.234 264.498,358.234 263,362.5C 261.336,359.673 260.17,356.673 259.5,353.5 Z"/></g>
<g><path style="opacity:1" fill="#7c8083" d="M 326.5,327.5 C 331.591,335.576 337.257,342.576 343.5,348.5C 342.691,349.469 341.691,350.302 340.5,351C 342.259,352.008 343.426,353.508 344,355.5C 344.278,354.584 344.778,353.918 345.5,353.5C 352.569,361.966 358.902,370.966 364.5,380.5C 364.511,382.017 365.177,383.184 366.5,384C 365.619,384.708 364.953,385.542 364.5,386.5C 362.39,385.547 361.223,383.881 361,381.5C 360.667,382.167 360.333,382.833 360,383.5C 359.385,381.884 358.385,380.551 357,379.5C 352.825,374.449 349.825,369.116 348,363.5C 347.667,364.167 347.333,364.833 347,365.5C 342.493,358.227 338.16,352.227 334,347.5C 333.365,346.034 332.531,344.7 331.5,343.5C 331.709,342.914 332.043,342.414 332.5,342C 331,339.833 329.5,337.667 328,335.5C 326.636,336.258 325.469,335.758 324.5,334C 326.229,332.211 326.896,330.044 326.5,327.5 Z"/></g>
<g><path style="opacity:1" fill="#6e7578" d="M 358.5,354.5 C 358.897,353.475 359.563,353.308 360.5,354C 363,356.5 365.5,359 368,361.5C 368.667,362.833 368.667,364.167 368,365.5C 364.968,361.641 361.802,357.974 358.5,354.5 Z"/></g>
<g><path style="opacity:1" fill="#fefffe" d="M 220.5,370.5 C 220.26,379.713 219.093,389.046 217,398.5C 214.167,395 211.333,391.5 208.5,388C 213.137,382.543 217.137,376.709 220.5,370.5 Z M 216.5,381.5 C 215.194,383.816 213.861,386.15 212.5,388.5C 213.167,389.833 214.167,390.833 215.5,391.5C 216.38,388.889 217.046,386.222 217.5,383.5C 217.457,382.584 217.124,381.917 216.5,381.5 Z"/></g>
<g><path style="opacity:1" fill="#6e7578" d="M 378.5,372.5 C 380.103,372.312 381.437,372.812 382.5,374C 380.447,375.08 378.28,375.914 376,376.5C 375.626,375.584 375.126,374.75 374.5,374C 376.058,373.79 377.391,373.29 378.5,372.5 Z"/></g>
<g><path style="opacity:1" fill="#949a9d" d="M 417.5,376.5 C 414.795,378.154 412.795,377.487 411.5,374.5C 414.211,373.011 416.211,373.678 417.5,376.5 Z"/></g>
<g><path style="opacity:1" fill="#949a9d" d="M 417.5,376.5 C 420.279,378.302 420.112,379.969 417,381.5C 416.167,380.667 415.333,379.833 414.5,379C 415.942,378.623 416.942,377.79 417.5,376.5 Z"/></g>
<g><path style="opacity:1" fill="#c2c3c2" d="M 277.5,378.5 C 279.337,378.639 279.67,379.306 278.5,380.5C 277.702,380.043 277.369,379.376 277.5,378.5 Z"/></g>
<g><path style="opacity:1" fill="#656b6e" d="M 391.5,382.5 C 393.527,382.338 395.527,382.505 397.5,383C 398.552,384.716 397.886,385.716 395.5,386C 398.308,386.019 400.641,387.019 402.5,389C 397.369,390.41 392.202,390.91 387,390.5C 385.878,388.376 384.378,386.543 382.5,385C 385.628,384.159 388.628,383.325 391.5,382.5 Z"/></g>
<g><path style="opacity:1" fill="#6b6f71" d="M 364.5,380.5 C 371.855,389.863 378.855,399.53 385.5,409.5C 385.218,410.778 384.551,411.778 383.5,412.5C 382.778,412.918 382.278,413.584 382,414.5C 376.245,405.99 370.245,397.657 364,389.5C 363.53,388.423 363.697,387.423 364.5,386.5C 364.953,385.542 365.619,384.708 366.5,384C 365.177,383.184 364.511,382.017 364.5,380.5 Z"/></g>
<g><path style="opacity:1" fill="#fefffe" d="M 252.5,386.5 C 254.898,389.257 255.398,392.257 254,395.5C 252.851,392.607 252.351,389.607 252.5,386.5 Z"/></g>
<g><path style="opacity:1" fill="#fefffe" d="M 235.5,387.5 C 236.875,394.289 237.542,401.289 237.5,408.5C 235.25,408.819 233.25,408.319 231.5,407C 233.278,400.612 234.611,394.112 235.5,387.5 Z"/></g>
<g><path style="opacity:1" fill="#28292c" d="M 211.5,421.5 C 219.515,424.836 227.848,427.17 236.5,428.5C 239.912,427.98 243.245,427.147 246.5,426C 249.379,423.615 252.379,421.448 255.5,419.5C 256.833,418.833 257.833,417.833 258.5,416.5C 264.183,408.1 268.516,399.1 271.5,389.5C 274.545,389.492 277.545,389.159 280.5,388.5C 275.849,414.652 260.349,429.318 234,432.5C 225.175,430.503 217.008,427.003 209.5,422C 210.094,421.536 210.761,421.369 211.5,421.5 Z"/></g>
<g><path style="opacity:1" fill="#c2c3c2" d="M 274.5,394.5 C 275.675,394.281 276.675,394.614 277.5,395.5C 275.948,396.798 274.948,396.465 274.5,394.5 Z"/></g>
<g><path style="opacity:1" fill="#fefffe" d="M 398.5,398.5 C 402.302,397.88 405.635,398.714 408.5,401C 403.644,405.121 400.311,404.288 398.5,398.5 Z"/></g>
<g><path style="opacity:1" fill="#949a9d" d="M 419.5,404.5 C 423.278,405.193 423.278,406.36 419.5,408C 414.833,409.167 410.167,410.333 405.5,411.5C 404.263,411.444 403.263,410.944 402.5,410C 408.238,408.031 413.905,406.197 419.5,404.5 Z"/></g>
<g><path style="opacity:1" fill="#84898c" d="M 255.5,419.5 C 252.379,421.448 249.379,423.615 246.5,426C 243.245,427.147 239.912,427.98 236.5,428.5C 227.848,427.17 219.515,424.836 211.5,421.5C 209.188,419.364 206.688,417.364 204,415.5C 203.888,412.06 204.555,408.726 206,405.5C 211.686,411.008 218.352,414.675 226,416.5C 232.121,415.095 238.287,413.928 244.5,413C 246.848,412.654 248.681,411.487 250,409.5C 252.276,411.307 252.443,412.807 250.5,414C 251.667,414.5 252.5,415.333 253,416.5C 253.333,416.167 253.667,415.833 254,415.5C 254.791,416.745 255.291,418.078 255.5,419.5 Z"/></g>
<g><path style="opacity:1" fill="#000000" d="M 385.5,409.5 C 386.89,410.899 387.89,412.566 388.5,414.5C 387.833,415.5 387.167,416.5 386.5,417.5C 386.741,414.966 385.741,413.3 383.5,412.5C 384.551,411.778 385.218,410.778 385.5,409.5 Z"/></g>
<g><path style="opacity:1" fill="#949a9d" d="M 383.5,412.5 C 385.741,413.3 386.741,414.966 386.5,417.5C 384.259,416.7 383.259,415.034 383.5,412.5 Z"/></g>
<g><path style="opacity:1" fill="#73777a" d="M 388.5,414.5 C 395.141,424.043 402.141,433.376 409.5,442.5C 411.075,441.544 412.742,440.877 414.5,440.5C 416.729,441.055 418.395,442.389 419.5,444.5C 415.768,446.06 411.934,447.393 408,448.5C 407.055,448.095 406.388,447.428 406,446.5C 405.667,446.833 405.333,447.167 405,447.5C 397.749,438.656 391.249,429.323 385.5,419.5C 385.863,418.817 386.196,418.15 386.5,417.5C 387.167,416.5 387.833,415.5 388.5,414.5 Z"/></g>
<g><path style="opacity:1" fill="#fefffe" d="M 415.5,414.5 C 416.675,414.281 417.675,414.614 418.5,415.5C 421.048,418.759 423.714,421.926 426.5,425C 424.156,426.028 421.823,426.694 419.5,427C 416.642,423.642 413.975,420.142 411.5,416.5C 412.949,415.828 414.282,415.161 415.5,414.5 Z"/></g>
<g><path style="opacity:1" fill="#949a9d" d="M 447.5,428.5 C 439.826,430.059 432.492,432.393 425.5,435.5C 424.448,435.649 423.448,435.483 422.5,435C 421.167,434.333 421.167,433.667 422.5,433C 430.118,430.179 437.784,427.513 445.5,425C 447.579,424.192 449.579,424.359 451.5,425.5C 450.376,426.859 449.042,427.859 447.5,428.5 Z"/></g>
<g><path style="opacity:1" fill="#5e6366" d="M 447.5,428.5 C 448.5,428.5 449.5,428.5 450.5,428.5C 449.255,435.075 445.255,438.408 438.5,438.5C 437.672,437.585 436.672,436.919 435.5,436.5C 432.559,437.203 429.725,438.203 427,439.5C 423.684,438.505 423.184,437.172 425.5,435.5C 432.492,432.393 439.826,430.059 447.5,428.5 Z"/></g>
<g><path style="opacity:1" fill="#b1b3a4" d="M 431.5,439.5 C 432.5,439.5 433.5,439.5 434.5,439.5C 434.104,442.044 434.771,444.211 436.5,446C 445.551,447.349 449.551,452.349 448.5,461C 443.132,465.364 438.132,464.697 433.5,459C 436.637,460.196 439.971,461.363 443.5,462.5C 445.739,462.426 446.739,461.259 446.5,459C 444.408,454.249 440.741,451.916 435.5,452C 432.833,448.667 430.167,445.333 427.5,442C 429.066,441.392 430.4,440.558 431.5,439.5 Z"/></g>
</svg>
