<?xml version="1.0" encoding="UTF-8"?>
<!DOCTYPE svg PUBLIC "-//W3C//DTD SVG 1.1//EN" "http://www.w3.org/Graphics/SVG/1.1/DTD/svg11.dtd">
<svg xmlns="http://www.w3.org/2000/svg" version="1.1" width="391px" height="500px" style="shape-rendering:geometricPrecision; text-rendering:geometricPrecision; image-rendering:optimizeQuality; fill-rule:evenodd; clip-rule:evenodd" xmlns:xlink="http://www.w3.org/1999/xlink">
<g><path style="opacity:1" fill="#fefffe" d="M 203.5,105.5 C 216.275,102.618 222.275,107.618 221.5,120.5C 230.207,122.135 238.707,124.468 247,127.5C 247.667,131.167 247.667,134.833 247,138.5C 243.715,144.357 241.215,150.524 239.5,157C 242.15,161.657 244.817,166.323 247.5,171C 249.112,171.72 250.612,171.554 252,170.5C 252.8,167.133 253.966,163.966 255.5,161C 259.167,160.333 262.833,160.333 266.5,161C 269.746,164.455 273.746,166.455 278.5,167C 293.424,179.504 298.757,195.337 294.5,214.5C 297.794,214.259 300.794,215.092 303.5,217C 307.362,221.229 310.862,225.729 314,230.5C 315.581,236.723 315.915,243.056 315,249.5C 313.702,250.56 312.535,251.726 311.5,253C 313.53,258.091 315.364,263.258 317,268.5C 320.799,271.297 324.299,274.464 327.5,278C 331.5,278.333 335.5,278.667 339.5,279C 340.126,279.75 340.626,280.584 341,281.5C 344.603,279.872 348.437,279.038 352.5,279C 355.351,276.075 358.851,274.909 363,275.5C 367.464,274.781 371.131,276.114 374,279.5C 374.76,283.819 375.427,288.152 376,292.5C 377.713,293.878 379.047,295.545 380,297.5C 380.839,306.22 380.505,314.887 379,323.5C 378.5,324 378,324.5 377.5,325C 373.1,325.978 368.933,325.478 365,323.5C 364.094,317.768 360.928,314.101 355.5,312.5C 338.653,314.712 321.986,317.878 305.5,322C 300.167,324.333 294.833,326.667 289.5,329C 286.167,329.667 282.833,329.667 279.5,329C 278.697,324.586 278.197,320.086 278,315.5C 275.473,312.061 272.473,309.061 269,306.5C 267.5,308.833 266,311.167 264.5,313.5C 268.504,321.173 271.67,329.173 274,337.5C 280.028,348.036 283.028,359.37 283,371.5C 281.167,373.333 279.333,375.167 277.5,377C 265.841,377.963 254.175,378.296 242.5,378C 240.112,377.697 237.945,376.863 236,375.5C 235.333,371.833 235.333,368.167 236,364.5C 239.074,361.714 242.241,359.048 245.5,356.5C 241.522,341.735 235.689,327.735 228,314.5C 227.161,309.079 227.494,303.746 229,298.5C 233.374,290.917 237.874,283.417 242.5,276C 241.201,269.71 241.201,263.376 242.5,257C 240.681,254.511 238.848,252.011 237,249.5C 225.524,253.497 213.691,254.997 201.5,254C 197.752,249.964 193.086,247.631 187.5,247C 183.757,244.172 179.424,242.839 174.5,243C 171.959,241.917 169.459,240.75 167,239.5C 149.909,236.968 132.743,235.135 115.5,234C 101.257,231.193 86.924,227.86 72.5,224C 69.0482,222.774 65.7148,221.274 62.5,219.5C 61.5258,217.257 61.1924,214.924 61.5,212.5C 103.067,212.923 144.4,216.257 185.5,222.5C 190.133,221.447 194.799,221.281 199.5,222C 200.167,222.667 200.833,223.333 201.5,224C 207.833,224.667 214.167,224.667 220.5,224C 221.5,223 222.5,222 223.5,221C 219.125,211.003 217.292,200.503 218,189.5C 214.943,186.206 211.11,184.372 206.5,184C 205.667,183.167 204.833,182.333 204,181.5C 203.01,178.374 201.844,175.374 200.5,172.5C 198.856,172.714 197.356,172.38 196,171.5C 195.297,168.287 195.464,165.121 196.5,162C 195.303,160.48 193.803,159.313 192,158.5C 191.104,155.975 191.604,153.808 193.5,152C 195.746,150.961 197.913,149.794 200,148.5C 200.954,137.881 200.454,127.381 198.5,117C 198.132,112.241 199.798,108.407 203.5,105.5 Z"/></g>
<g><path style="opacity:1" fill="#000000" d="M 205.5,107.5 C 216.401,106.564 220.735,111.398 218.5,122C 227.518,123.962 236.351,126.462 245,129.5C 245.667,131.833 245.667,134.167 245,136.5C 240.292,143.886 237.959,151.886 238,160.5C 240.877,164.418 243.377,168.585 245.5,173C 247.698,173.373 249.865,173.873 252,174.5C 254.503,170.992 256.336,167.159 257.5,163C 261.584,161.718 264.918,162.718 267.5,166C 281.2,170.707 289.7,180.207 293,194.5C 293.057,201.824 292.891,209.157 292.5,216.5C 295.794,216.259 298.794,217.092 301.5,219C 305.362,223.229 308.862,227.729 312,232.5C 313.555,237.382 313.888,242.382 313,247.5C 311.075,248.88 309.241,250.38 307.5,252C 310.778,257.829 313.278,263.996 315,270.5C 319.3,273.798 323.3,277.465 327,281.5C 330.409,280.378 333.909,280.211 337.5,281C 338.227,282.399 338.727,283.899 339,285.5C 343.614,282.205 348.781,280.705 354.5,281C 360.471,276.219 366.304,276.385 372,281.5C 372.76,285.819 373.427,290.152 374,294.5C 375.713,295.878 377.047,297.545 378,299.5C 378.801,306.889 378.467,314.223 377,321.5C 370.31,325.155 366.31,323.155 365,315.5C 362,312.5 359,309.5 356,306.5C 355.51,307.793 355.343,309.127 355.5,310.5C 330.952,312.741 307.286,318.407 284.5,327.5C 283.228,327.43 282.062,327.097 281,326.5C 280.297,323.287 280.464,320.121 281.5,317C 281.138,315.775 280.638,314.609 280,313.5C 276.419,309.85 272.752,306.184 269,302.5C 266.308,305.692 263.808,309.025 261.5,312.5C 265.561,321.287 269.061,330.287 272,339.5C 277.648,348.729 280.648,358.729 281,369.5C 275.818,375.555 269.318,377.222 261.5,374.5C 253.511,377.359 245.678,377.026 238,373.5C 237.333,371.167 237.333,368.833 238,366.5C 241.426,363.542 244.926,360.709 248.5,358C 244.292,342.042 238.125,326.875 230,312.5C 229.233,308.406 229.566,304.406 231,300.5C 235.908,292.514 240.408,284.347 244.5,276C 243.049,268.55 243.382,261.216 245.5,254C 242.833,252.667 240.833,250.667 239.5,248C 231.166,249 222.833,250.333 214.5,252C 208.535,253.692 203.535,252.359 199.5,248C 191.772,245.27 184.105,242.936 176.5,241C 173.959,239.917 171.459,238.75 169,237.5C 151.909,234.968 134.743,233.135 117.5,232C 102.215,229.014 86.8814,225.348 71.5,221C 69.1667,219.833 66.8333,218.667 64.5,217.5C 63.6143,216.675 63.281,215.675 63.5,214.5C 104.365,215.32 145.032,218.653 185.5,224.5C 189.486,223.667 193.486,223.501 197.5,224C 198.167,224.667 198.833,225.333 199.5,226C 207.167,226.667 214.833,226.667 222.5,226C 224.019,224.649 225.352,223.149 226.5,221.5C 220.833,211.771 219.166,201.438 221.5,190.5C 219.164,184.672 214.831,181.839 208.5,182C 207.667,181.167 206.833,180.333 206,179.5C 205.01,176.374 203.844,173.374 202.5,170.5C 199.41,171.17 197.743,170.003 197.5,167C 198.178,164.476 199.512,162.309 201.5,160.5C 198.509,159.459 195.842,157.959 193.5,156C 193.645,155.228 193.978,154.561 194.5,154C 197.196,153.235 199.696,152.068 202,150.5C 202.195,141.785 202.695,133.119 203.5,124.5C 199.109,118.24 199.775,112.573 205.5,107.5 Z"/></g>
<g><path style="opacity:1" fill="#00a1e8" d="M 206.5,111.5 C 215.058,110.528 217.391,113.694 213.5,121C 204.812,122.481 202.479,119.314 206.5,111.5 Z"/></g>
<g><path style="opacity:1" fill="#f6cdcc" d="M 206.5,129.5 C 209.167,132.167 209.167,134.833 206.5,137.5C 206.167,137.5 205.833,137.5 205.5,137.5C 205.194,134.615 205.527,131.948 206.5,129.5 Z"/></g>
<g><path style="opacity:1" fill="#1a1a1a" d="M 225.5,157.5 C 223.09,157.921 221.257,159.254 220,161.5C 219.819,164.695 219.319,167.695 218.5,170.5C 218.603,166.91 218.27,163.41 217.5,160C 219.119,158.517 219.286,157.35 218,156.5C 216.831,157.009 215.998,157.842 215.5,159C 215.493,160.583 215.826,162.249 216.5,164C 215.956,164.717 215.289,165.217 214.5,165.5C 215.01,162.612 214.344,160.279 212.5,158.5C 211.833,158.5 211.5,158.167 211.5,157.5C 207.825,156.317 203.991,156.317 200,157.5C 198.596,157.491 197.43,156.991 196.5,156C 203.043,156.601 206.376,153.767 206.5,147.5C 207.873,147.657 209.207,147.49 210.5,147C 208.942,146.79 207.609,146.29 206.5,145.5C 207.791,144.527 207.791,143.527 206.5,142.5C 210.478,141.8 210.478,140.133 206.5,137.5C 209.167,134.833 209.167,132.167 206.5,129.5C 207.341,127.621 207.675,125.621 207.5,123.5C 218.751,126.649 230.085,129.815 241.5,133C 240.377,134.044 239.044,134.71 237.5,135C 240.001,136.418 239.668,137.418 236.5,138C 237.167,138.333 237.833,138.667 238.5,139C 235.158,144.56 233.491,150.393 233.5,156.5C 230.914,157.48 228.247,157.813 225.5,157.5 Z"/></g>
<g><path style="opacity:1" fill="#7e7f7e" d="M 205.5,137.5 C 205.833,137.5 206.167,137.5 206.5,137.5C 210.478,140.133 210.478,141.8 206.5,142.5C 207.791,143.527 207.791,144.527 206.5,145.5C 205.527,143.052 205.194,140.385 205.5,137.5 Z"/></g>
<g><path style="opacity:1" fill="#727272" d="M 218.5,148.5 C 220.701,148.858 222.035,150.192 222.5,152.5C 220.225,156.403 218.225,156.403 216.5,152.5C 216.752,150.927 217.418,149.594 218.5,148.5 Z"/></g>
<g><path style="opacity:1" fill="#ce6f2f" d="M 211.5,157.5 C 211.5,158.167 211.833,158.5 212.5,158.5C 210.622,159.208 208.955,160.374 207.5,162C 206.207,162.49 204.873,162.657 203.5,162.5C 204.587,158.427 207.254,156.761 211.5,157.5 Z"/></g>
<g><path style="opacity:1" fill="#e99d7c" d="M 225.5,157.5 C 226.301,159.042 226.634,160.708 226.5,162.5C 225.427,164.347 225.427,166.347 226.5,168.5C 223.833,170.5 221.5,172.833 219.5,175.5C 218.549,174.081 218.216,172.415 218.5,170.5C 219.319,167.695 219.819,164.695 220,161.5C 221.257,159.254 223.09,157.921 225.5,157.5 Z"/></g>
<g><path style="opacity:1" fill="#f6a583" d="M 212.5,158.5 C 214.344,160.279 215.01,162.612 214.5,165.5C 213.517,169.298 213.183,173.298 213.5,177.5C 212.077,181.275 210.244,181.275 208,177.5C 207.517,176.552 207.351,175.552 207.5,174.5C 210.167,173.5 210.167,172.5 207.5,171.5C 206.791,170.596 205.791,170.263 204.5,170.5C 204.911,167.724 204.078,167.057 202,168.5C 200.941,168.37 200.108,167.87 199.5,167C 201.041,165.629 202.375,164.129 203.5,162.5C 204.873,162.657 206.207,162.49 207.5,162C 208.955,160.374 210.622,159.208 212.5,158.5 Z"/></g>
<g><path style="opacity:1" fill="#4b150f" d="M 228.5,166.5 C 228.167,167.5 227.5,168.167 226.5,168.5C 225.427,166.347 225.427,164.347 226.5,162.5C 227.404,161.791 227.737,160.791 227.5,159.5C 232.161,158.832 234.161,160.832 233.5,165.5C 231.585,165.216 229.919,165.549 228.5,166.5 Z"/></g>
<g><path style="opacity:1" fill="#717171" d="M 218.5,170.5 C 217.609,171.11 216.609,171.443 215.5,171.5C 214.821,169.412 214.488,167.412 214.5,165.5C 215.289,165.217 215.956,164.717 216.5,164C 215.826,162.249 215.493,160.583 215.5,159C 215.998,157.842 216.831,157.009 218,156.5C 219.286,157.35 219.119,158.517 217.5,160C 218.27,163.41 218.603,166.91 218.5,170.5 Z"/></g>
<g><path style="opacity:1" fill="#000000" d="M 221.5,163.5 C 222.497,162.287 223.497,162.454 224.5,164C 223.281,165.795 222.281,165.628 221.5,163.5 Z"/></g>
<g><path style="opacity:1" fill="#3a3a3a" d="M 214.5,165.5 C 214.488,167.412 214.821,169.412 215.5,171.5C 217.931,172.741 217.931,173.908 215.5,175C 217.797,176.16 217.464,177.16 214.5,178C 217.173,179.271 217.173,179.937 214.5,180C 213.748,179.329 213.414,178.496 213.5,177.5C 213.183,173.298 213.517,169.298 214.5,165.5 Z"/></g>
<g><path style="opacity:1" fill="#4b5528" d="M 228.5,166.5 C 229.873,166.343 231.207,166.51 232.5,167C 227.638,171.567 222.638,175.567 217.5,179C 218.305,177.887 218.972,176.721 219.5,175.5C 221.5,172.833 223.833,170.5 226.5,168.5C 227.5,168.167 228.167,167.5 228.5,166.5 Z"/></g>
<g><path style="opacity:1" fill="#58662e" d="M 234.5,166.5 C 237.43,168.311 239.43,170.978 240.5,174.5C 234.98,177.83 229.814,181.83 225,186.5C 223.167,184.667 221.333,182.833 219.5,181C 224.342,175.991 229.342,171.158 234.5,166.5 Z"/></g>
<g><path style="opacity:1" fill="#d7cdb4" d="M 260.5,164.5 C 261.962,165.458 263.295,166.624 264.5,168C 259.259,171.355 257.925,170.188 260.5,164.5 Z"/></g>
<g><path style="opacity:1" fill="#eee4c7" d="M 265.5,190.5 C 263.553,188.784 262.219,186.617 261.5,184C 262.737,183.768 263.737,183.268 264.5,182.5C 269.059,182.389 273.392,181.389 277.5,179.5C 274.599,173.551 269.932,171.051 263.5,172C 262.058,172.377 261.058,173.21 260.5,174.5C 259.691,176.292 259.191,178.292 259,180.5C 256.784,177.243 257.284,174.41 260.5,172C 264.278,169.056 268.278,168.723 272.5,171C 285.461,180.099 290.961,192.599 289,208.5C 284.432,215.664 279.432,215.664 274,208.5C 270.346,202.861 267.513,196.861 265.5,190.5 Z"/></g>
<g><path style="opacity:1" fill="#611612" d="M 207.5,171.5 C 210.167,172.5 210.167,173.5 207.5,174.5C 203.94,172.717 203.94,171.717 207.5,171.5 Z"/></g>
<g><path style="opacity:1" fill="#6b0b12" d="M 264.5,182.5 C 263.178,182.67 262.011,182.337 261,181.5C 260.503,179.19 260.337,176.857 260.5,174.5C 261.058,173.21 262.058,172.377 263.5,172C 269.932,171.051 274.599,173.551 277.5,179.5C 273.392,181.389 269.059,182.389 264.5,182.5 Z"/></g>
<g><path style="opacity:1" fill="#eee4c7" d="M 240.5,178.5 C 240.917,177.876 241.584,177.543 242.5,177.5C 247.671,178.418 252.671,179.918 257.5,182C 260.116,183.709 261.116,185.876 260.5,188.5C 259.019,187.52 257.685,186.353 256.5,185C 251.005,182.892 245.672,180.725 240.5,178.5 Z"/></g>
<g><path style="opacity:1" fill="#eee4c7" d="M 236.5,178.5 C 237.5,178.5 238.5,178.5 239.5,178.5C 238.679,184.806 235.012,187.639 228.5,187C 226.011,191.105 224.511,195.605 224,200.5C 223.533,196.025 224.199,191.691 226,187.5C 230.258,185.411 233.758,182.411 236.5,178.5 Z"/></g>
<g><path style="opacity:1" fill="#a9b86f" d="M 261.5,192.5 C 260.761,192.369 260.094,192.536 259.5,193C 261.422,195.43 263.755,197.263 266.5,198.5C 268.674,201.515 270.341,204.849 271.5,208.5C 267.49,209.893 263.49,211.393 259.5,213C 263.821,213.499 268.154,213.666 272.5,213.5C 265.741,215.385 258.741,215.885 251.5,215C 254.343,209.981 256.343,204.648 257.5,199C 257.557,194.499 255.723,190.999 252,188.5C 252.398,190.631 253.398,192.631 255,194.5C 255.667,197.167 255.667,199.833 255,202.5C 252.61,207.003 250.61,211.669 249,216.5C 247.377,224.286 245.377,231.952 243,239.5C 241.833,240.667 240.667,241.833 239.5,243C 231.783,244.286 224.117,245.786 216.5,247.5C 213.157,244.115 211.157,240.115 210.5,235.5C 211.048,232.916 212.715,231.916 215.5,232.5C 215.833,239.167 216.167,239.167 216.5,232.5C 219.26,231.431 222.093,230.431 225,229.5C 225.333,229.833 225.667,230.167 226,230.5C 226.66,228.676 227.827,227.343 229.5,226.5C 242.362,229.536 242.695,228.536 230.5,223.5C 231.979,221.088 231.479,219.088 229,217.5C 228.131,215.419 227.631,213.253 227.5,211C 228.279,205.825 229.113,200.658 230,195.5C 230.5,194.333 231.333,193.5 232.5,193C 230.431,192.676 230.098,191.842 231.5,190.5C 235.721,188.615 239.387,185.949 242.5,182.5C 250.168,183.498 256.501,186.832 261.5,192.5 Z"/></g>
<g><path style="opacity:1" fill="#000000" d="M 271.5,183.5 C 272.622,182.844 273.955,182.511 275.5,182.5C 277.333,182.585 278.666,183.252 279.5,184.5C 276.946,183.612 274.279,183.279 271.5,183.5 Z"/></g>
<g><path style="opacity:1" fill="#730913" d="M 271.5,183.5 C 274.279,183.279 276.946,183.612 279.5,184.5C 284.906,191.552 287.406,199.552 287,208.5C 282.588,214.039 278.588,213.705 275,207.5C 271.806,201.771 268.639,196.104 265.5,190.5C 263.749,185.341 265.749,183.008 271.5,183.5 Z"/></g>
<g><path style="opacity:1" fill="#eee4c7" d="M 228.5,188.5 C 229.239,188.369 229.906,188.536 230.5,189C 228.306,194.609 226.806,200.442 226,206.5C 225.86,200.386 226.693,194.386 228.5,188.5 Z"/></g>
<g><path style="opacity:1" fill="#58662e" d="M 261.5,192.5 C 264.107,193.712 265.774,195.712 266.5,198.5C 263.755,197.263 261.422,195.43 259.5,193C 260.094,192.536 260.761,192.369 261.5,192.5 Z"/></g>
<g><path style="opacity:1" fill="#58662e" d="M 251.5,197.5 C 254.97,197.71 254.97,198.877 251.5,201C 247.167,201.667 242.833,201.667 238.5,201C 242.942,199.826 247.275,198.659 251.5,197.5 Z"/></g>
<g><path style="opacity:1" fill="#58662e" d="M 234.5,202.5 C 238.273,202.263 241.94,202.763 245.5,204C 240.763,205.146 236.097,206.146 231.5,207C 232.386,205.385 233.386,203.885 234.5,202.5 Z"/></g>
<g><path style="opacity:1" fill="#58662e" d="M 250.5,203.5 C 252.549,203.706 252.883,204.539 251.5,206C 248.262,207.368 244.928,207.701 241.5,207C 244.571,205.704 247.571,204.538 250.5,203.5 Z"/></g>
<g><path style="opacity:1" fill="#58662e" d="M 271.5,208.5 C 272.601,209.848 273.601,211.348 274.5,213C 273.906,213.464 273.239,213.631 272.5,213.5C 268.154,213.666 263.821,213.499 259.5,213C 263.49,211.393 267.49,209.893 271.5,208.5 Z"/></g>
<g><path style="opacity:1" fill="#efe4c8" d="M 287.5,212.5 C 288.097,212.735 288.43,213.235 288.5,214C 287.728,215.221 286.728,216.221 285.5,217C 278.687,217.704 272.02,219.038 265.5,221C 260.472,221.588 255.472,221.422 250.5,220.5C 250.5,219.5 250.5,218.5 250.5,217.5C 259.676,217.956 268.676,216.956 277.5,214.5C 280.132,215.44 282.798,215.607 285.5,215C 286.381,214.292 287.047,213.458 287.5,212.5 Z"/></g>
<g><path style="opacity:1" fill="#c2c3c2" d="M 70.5,217.5 C 71.7933,216.842 73.2933,216.508 75,216.5C 89.9091,218.293 104.742,220.293 119.5,222.5C 119.167,223.167 118.833,223.833 118.5,224.5C 114.205,225.661 109.871,225.828 105.5,225C 93.9877,221.705 82.321,219.205 70.5,217.5 Z"/></g>
<g><path style="opacity:1" fill="#58662e" d="M 287.5,217.5 C 289.337,217.639 289.67,218.306 288.5,219.5C 282.245,222.187 281.912,221.52 287.5,217.5 Z"/></g>
<g><path style="opacity:1" fill="#870014" d="M 278.5,219.5 C 280.164,220.949 280.998,222.949 281,225.5C 281.667,229.167 281.667,232.833 281,236.5C 280.964,231.536 279.798,226.869 277.5,222.5C 276.624,221.749 275.624,221.249 274.5,221C 276.058,220.79 277.391,220.29 278.5,219.5 Z"/></g>
<g><path style="opacity:1" fill="#fec90d" d="M 123.5,221.5 C 127.674,222.079 128.341,224.246 125.5,228C 124.207,228.49 122.873,228.657 121.5,228.5C 121.767,226.035 122.434,223.701 123.5,221.5 Z"/></g>
<g><path style="opacity:1" fill="#adbe72" d="M 273.5,222.5 C 265.557,226.37 257.224,229.036 248.5,230.5C 248.575,227.794 248.908,225.127 249.5,222.5C 257.682,223.121 265.682,223.121 273.5,222.5 Z"/></g>
<g><path style="opacity:1" fill="#c2c3c2" d="M 129.5,222.5 C 132.167,222.5 134.833,222.5 137.5,222.5C 137.5,224.833 137.5,227.167 137.5,229.5C 134.751,229.726 132.084,229.393 129.5,228.5C 128.481,226.54 128.481,224.54 129.5,222.5 Z"/></g>
<g><path style="opacity:1" fill="#58662e" d="M 273.5,222.5 C 273.5,223.167 273.5,223.833 273.5,224.5C 268.706,229.951 262.706,233.285 255.5,234.5C 253.436,234.313 251.436,233.813 249.5,233C 248.748,232.329 248.414,231.496 248.5,230.5C 257.224,229.036 265.557,226.37 273.5,222.5 Z"/></g>
<g><path style="opacity:1" fill="#58662e" d="M 230.5,223.5 C 242.695,228.536 242.362,229.536 229.5,226.5C 229.557,225.391 229.89,224.391 230.5,223.5 Z"/></g>
<g><path style="opacity:1" fill="#adbe72" d="M 255.5,234.5 C 262.706,233.285 268.706,229.951 273.5,224.5C 274.397,223.402 275.23,223.402 276,224.5C 277.513,227.024 278.18,229.691 278,232.5C 275.083,230.607 271.916,230.107 268.5,231C 266.061,234.44 266.061,237.773 268.5,241C 263.973,239.403 259.639,237.236 255.5,234.5 Z"/></g>
<g><path style="opacity:1" fill="#b87a56" d="M 139.5,224.5 C 150.5,225.833 161.5,227.167 172.5,228.5C 172.5,230.167 172.5,231.833 172.5,233.5C 161.523,232.021 150.523,230.688 139.5,229.5C 139.5,227.833 139.5,226.167 139.5,224.5 Z"/></g>
<g><path style="opacity:1" fill="#fec90d" d="M 175.5,227.5 C 177.388,229.988 178.055,232.988 177.5,236.5C 176.5,236.5 175.5,236.5 174.5,236.5C 174.368,233.43 174.701,230.43 175.5,227.5 Z"/></g>
<g><path style="opacity:1" fill="#f9a884" d="M 193.5,227.5 C 196.084,229.422 198.751,231.255 201.5,233C 199.379,236.174 199.046,239.507 200.5,243C 196.824,243.246 193.491,242.246 190.5,240C 192.167,239.667 193.833,239.333 195.5,239C 197.18,238.653 198.18,237.653 198.5,236C 196.439,233.374 194.772,230.541 193.5,227.5 Z"/></g>
<g><path style="opacity:1" fill="#adbe72" d="M 283.5,227.5 C 289.801,233.97 295.967,240.637 302,247.5C 301.805,249.126 301.805,250.793 302,252.5C 306.16,258.973 309.16,265.973 311,273.5C 315.133,276.631 318.966,280.131 322.5,284C 318.619,283.573 314.953,282.24 311.5,280C 302.833,272.667 294.167,265.333 285.5,258C 295.093,250.661 294.593,243.827 284,237.5C 283.502,234.183 283.335,230.85 283.5,227.5 Z"/></g>
<g><path style="opacity:1" fill="#b87a56" d="M 179.5,229.5 C 183.853,229.765 188.187,230.265 192.5,231C 193.257,232.512 194.257,233.846 195.5,235C 190.5,235.112 185.5,234.779 180.5,234C 179.62,232.644 179.286,231.144 179.5,229.5 Z"/></g>
<g><path style="opacity:1" fill="#fec90d" d="M 202.5,231.5 C 203.251,230.427 204.251,230.26 205.5,231C 204.648,232.728 203.648,232.895 202.5,231.5 Z"/></g>
<g><path style="opacity:1" fill="#cd9f00" d="M 269.5,232.5 C 272.564,232.144 275.231,232.977 277.5,235C 275.333,237.167 273.167,239.333 271,241.5C 270.15,239.99 269.317,238.49 268.5,237C 269.148,235.56 269.481,234.06 269.5,232.5 Z"/></g>
<g><path style="opacity:1" fill="#7a0613" d="M 280.5,239.5 C 277.94,241.273 275.607,243.273 273.5,245.5C 264.496,244.504 256.163,241.504 248.5,236.5C 247.417,235.635 247.251,234.635 248,233.5C 255.163,237.415 262.496,241.081 270,244.5C 272.968,242.369 275.801,240.036 278.5,237.5C 279.522,237.855 280.189,238.522 280.5,239.5 Z"/></g>
<g><path style="opacity:1" fill="#adbe72" d="M 206.5,234.5 C 208.077,238.716 209.41,243.216 210.5,248C 203.164,247.305 200.497,243.305 202.5,236C 204.058,235.79 205.391,235.29 206.5,234.5 Z"/></g>
<g><path style="opacity:1" fill="#58662e" d="M 210.5,235.5 C 211.157,240.115 213.157,244.115 216.5,247.5C 214.856,247.714 213.356,247.38 212,246.5C 210.763,242.94 210.263,239.273 210.5,235.5 Z"/></g>
<g><path style="opacity:1" fill="#eee4c7" d="M 179.5,237.5 C 182.304,236.362 185.304,236.195 188.5,237C 185.508,238.574 182.508,238.741 179.5,237.5 Z"/></g>
<g><path style="opacity:1" fill="#fefffe" d="M 304.5,236.5 C 308.784,237.385 310.284,240.051 309,244.5C 304.477,247.656 301.644,246.49 300.5,241C 300.667,240.167 300.833,239.333 301,238.5C 302.302,237.915 303.469,237.249 304.5,236.5 Z"/></g>
<g><path style="opacity:1" fill="#adbe72" d="M 249.5,243.5 C 248.18,242.058 246.514,241.392 244.5,241.5C 245.09,240.234 245.59,238.901 246,237.5C 249.421,239.461 252.921,241.294 256.5,243C 254.19,243.497 251.857,243.663 249.5,243.5 Z"/></g>
<g><path style="opacity:1" fill="#cd9f00" d="M 280.5,239.5 C 286.779,240.604 289.945,244.271 290,250.5C 288.493,253.426 286.159,255.426 283,256.5C 278.5,253.844 275.334,250.178 273.5,245.5C 275.607,243.273 277.94,241.273 280.5,239.5 Z"/></g>
<g><path style="opacity:1" fill="#000000" d="M 303.5,239.5 C 307.089,240.372 307.423,242.039 304.5,244.5C 301.14,243.209 300.806,241.543 303.5,239.5 Z"/></g>
<g><path style="opacity:1" fill="#58662e" d="M 244.5,241.5 C 246.514,241.392 248.18,242.058 249.5,243.5C 250.091,246.359 251.424,248.693 253.5,250.5C 254.25,254.921 256.583,258.254 260.5,260.5C 260.333,260.833 260.167,261.167 260,261.5C 257.269,259.255 254.436,257.255 251.5,255.5C 248.175,252.168 245.175,248.501 242.5,244.5C 242.942,243.261 243.609,242.261 244.5,241.5 Z"/></g>
<g><path style="opacity:1" fill="#adbe72" d="M 252.5,246.5 C 253.274,245.853 254.274,245.52 255.5,245.5C 260.468,246.527 265.468,247.36 270.5,248C 273.5,251 276.5,254 279.5,257C 289.833,265.333 300.167,273.667 310.5,282C 315.532,284.564 320.699,286.731 326,288.5C 327.314,291.089 327.981,293.756 328,296.5C 322.082,302.942 315.249,307.942 307.5,311.5C 303.548,296.802 297.381,283.135 289,270.5C 277.995,260.649 265.828,252.649 252.5,246.5 Z"/></g>
<g><path style="opacity:1" fill="#adbe72" d="M 253.5,250.5 C 260.142,251.654 265.809,254.654 270.5,259.5C 276.28,264.368 280.613,270.368 283.5,277.5C 282.998,278.521 282.332,278.688 281.5,278C 278.088,273.31 273.754,270.81 268.5,270.5C 274.735,281.922 281.235,293.255 288,304.5C 288.499,310.157 288.666,315.824 288.5,321.5C 287.399,322.598 286.066,322.765 284.5,322C 286.284,316.726 285.45,311.893 282,307.5C 269.373,298.54 258.373,287.874 249,275.5C 248.26,272.824 247.927,270.158 248,267.5C 256.433,277.936 265.599,287.769 275.5,297C 276.332,297.688 276.998,297.521 277.5,296.5C 269.181,287.681 260.681,279.014 252,270.5C 245.868,255.817 247.701,254.317 257.5,266C 258.167,266.667 258.833,266.667 259.5,266C 255.786,263.142 253.12,259.642 251.5,255.5C 254.436,257.255 257.269,259.255 260,261.5C 260.167,261.167 260.333,260.833 260.5,260.5C 256.583,258.254 254.25,254.921 253.5,250.5 Z"/></g>
<g><path style="opacity:1" fill="#58662e" d="M 270.5,259.5 C 283.273,265.445 292.107,275.112 297,288.5C 300.171,296.683 303.338,304.85 306.5,313C 300.595,316.12 294.595,318.954 288.5,321.5C 288.666,315.824 288.499,310.157 288,304.5C 281.235,293.255 274.735,281.922 268.5,270.5C 273.754,270.81 278.088,273.31 281.5,278C 282.332,278.688 282.998,278.521 283.5,277.5C 280.613,270.368 276.28,264.368 270.5,259.5 Z"/></g>
<g><path style="opacity:1" fill="#000000" d="M 253.5,266.5 C 258.32,270.477 263.32,274.31 268.5,278C 270.667,280.167 272.833,282.333 275,284.5C 275.667,285.5 275.667,286.5 275,287.5C 271.419,283.248 267.252,279.748 262.5,277C 258.893,273.902 255.893,270.402 253.5,266.5 Z"/></g>
<g><path style="opacity:1" fill="#9ea5e3" d="M 261.5,295.5 C 257.149,300.171 251.816,303.171 245.5,304.5C 245.425,307.206 245.092,309.873 244.5,312.5C 240.926,311.379 237.592,309.713 234.5,307.5C 237.807,298.169 242.474,289.502 248.5,281.5C 252.827,286.161 257.16,290.827 261.5,295.5 Z"/></g>
<g><path style="opacity:1" fill="#adbe72" d="M 330.5,284.5 C 334.102,284.678 334.102,285.678 330.5,287.5C 327.955,286.451 327.955,285.451 330.5,284.5 Z"/></g>
<g><path style="opacity:1" fill="#9ea5e3" d="M 336.5,299.5 C 334.901,299.232 333.568,299.566 332.5,300.5C 331.448,300.649 330.448,300.483 329.5,300C 331.729,297.447 332.062,294.614 330.5,291.5C 336.304,290.335 341.971,288.668 347.5,286.5C 348.008,289.806 347.508,293.139 346,296.5C 342.687,297.32 339.521,298.32 336.5,299.5 Z"/></g>
<g><path style="opacity:1" fill="#7c83d0" d="M 261.5,295.5 C 262.683,296.504 264.016,297.338 265.5,298C 264.333,299.833 263.167,301.667 262,303.5C 257.964,305.999 253.798,307.999 249.5,309.5C 251.602,309.479 253.768,309.813 256,310.5C 261.833,324.833 267.667,339.167 273.5,353.5C 271.999,354.752 270.332,355.752 268.5,356.5C 264.127,353.291 260.627,349.291 258,344.5C 258.403,348.166 259.57,351.666 261.5,355C 260.892,355.87 260.059,356.37 259,356.5C 256.774,356.022 254.608,355.355 252.5,354.5C 248.114,338.336 241.78,323.003 233.5,308.5C 233.624,307.893 233.957,307.56 234.5,307.5C 237.592,309.713 240.926,311.379 244.5,312.5C 245.092,309.873 245.425,307.206 245.5,304.5C 251.816,303.171 257.149,300.171 261.5,295.5 Z"/></g>
<g><path style="opacity:1" fill="#7c84d1" d="M 332.5,300.5 C 333.568,299.566 334.901,299.232 336.5,299.5C 338.884,299.557 341.218,299.223 343.5,298.5C 346.341,300.086 349.007,301.92 351.5,304C 346.167,304.667 346.167,305.333 351.5,306C 339.434,308.011 327.434,310.011 315.5,312C 318.463,310.039 321.129,307.706 323.5,305C 326.098,302.472 329.098,300.972 332.5,300.5 Z"/></g>
</svg>
