<?xml version="1.0" encoding="UTF-8"?>
<!DOCTYPE svg PUBLIC "-//W3C//DTD SVG 1.1//EN" "http://www.w3.org/Graphics/SVG/1.1/DTD/svg11.dtd">
<svg xmlns="http://www.w3.org/2000/svg" version="1.1" width="388px" height="422px" style="shape-rendering:geometricPrecision; text-rendering:geometricPrecision; image-rendering:optimizeQuality; fill-rule:evenodd; clip-rule:evenodd" xmlns:xlink="http://www.w3.org/1999/xlink">
<g><path style="opacity:1" fill="#fefffe" d="M 147.5,33.5 C 153.509,33.3338 159.509,33.5005 165.5,34C 168.612,34.625 170.445,36.4583 171,39.5C 171.212,44.258 171.378,48.9247 171.5,53.5C 174.992,54.1609 178.159,55.4942 181,57.5C 181.667,60.8333 181.667,64.1667 181,67.5C 178.201,74.914 176.034,82.5806 174.5,90.5C 178.809,97.0569 178.476,103.39 173.5,109.5C 177.453,114.542 178.62,120.209 177,126.5C 179.744,128.984 181.744,131.984 183,135.5C 186.621,146.024 189.621,156.69 192,167.5C 193.333,168.833 194.667,170.167 196,171.5C 196.823,179.817 198.323,187.817 200.5,195.5C 219.628,194.601 238.628,192.435 257.5,189C 259.663,188.755 261.33,187.755 262.5,186C 266.696,185.336 270.862,185.503 275,186.5C 283.616,184.267 292.283,184.267 301,186.5C 326.725,182.87 352.558,181.037 378.5,181C 379.576,182.726 379.743,184.559 379,186.5C 373.137,189.876 366.804,191.876 360,192.5C 339.136,195.838 318.302,199.338 297.5,203C 296.833,204 296.167,205 295.5,206C 291.623,206.729 287.789,206.562 284,205.5C 282.566,205.93 281.399,206.764 280.5,208C 257.556,209.325 234.889,212.491 212.5,217.5C 211.96,218.748 211.293,219.915 210.5,221C 204.485,221.535 198.485,222.201 192.5,223C 189.135,230.857 183.135,235.024 174.5,235.5C 174.203,242.848 174.036,250.181 174,257.5C 176.838,261.172 179.171,265.172 181,269.5C 184.964,283.251 186.298,297.251 185,311.5C 184.363,313.303 183.197,314.636 181.5,315.5C 178.213,334.815 174.213,353.982 169.5,373C 171.085,377.281 171.918,381.781 172,386.5C 173.333,387.833 174.667,389.167 176,390.5C 179.687,401.122 176.02,406.455 165,406.5C 158.355,406.285 152.189,404.452 146.5,401C 142.333,397.5 138.167,394 134,390.5C 133.333,385.167 133.333,379.833 134,374.5C 138.294,362.145 139.628,349.478 138,336.5C 140.413,331.428 141.913,326.095 142.5,320.5C 141.588,314.419 138.755,309.419 134,305.5C 133.222,299.039 131.222,293.039 128,287.5C 123.69,296.092 120.357,305.092 118,314.5C 117.667,318.5 117.333,322.5 117,326.5C 115.333,329.833 113.667,333.167 112,336.5C 111.737,340.895 112.237,345.228 113.5,349.5C 113.742,352.514 112.742,355.014 110.5,357C 98.1072,362.705 88.9406,359.539 83,347.5C 82.9432,341.08 81.7765,335.08 79.5,329.5C 75.713,330.186 72.5463,329.186 70,326.5C 68.458,320.662 66.458,314.995 64,309.5C 60.8064,305.395 57.1397,301.728 53,298.5C 52.964,292.513 53.1307,286.513 53.5,280.5C 64.2841,280.633 72.9508,276.466 79.5,268C 78.1915,263.864 78.1915,259.698 79.5,255.5C 76.8076,252.387 75.8076,248.721 76.5,244.5C 74.8008,244.34 73.1341,244.506 71.5,245C 64.8333,248.667 58.1667,252.333 51.5,256C 49.1667,256.667 46.8333,256.667 44.5,256C 41.4847,253.137 39.6513,249.637 39,245.5C 38.3333,239.833 38.3333,234.167 39,228.5C 45.4105,226.084 51.9105,223.751 58.5,221.5C 50.504,203.548 47.3373,184.881 49,165.5C 56.6405,158.844 64.9738,153.177 74,148.5C 74.2542,139.403 77.0875,131.236 82.5,124C 84.0249,122.991 85.6916,122.491 87.5,122.5C 87.9844,117.177 90.651,113.344 95.5,111C 104.468,109.835 113.468,109.002 122.5,108.5C 121.565,103.191 123.565,99.6912 128.5,98C 127.917,86.7561 125.417,75.9228 121,65.5C 119.581,59.5599 121.748,55.3933 127.5,53C 133.123,51.971 138.79,51.471 144.5,51.5C 143.778,45.1264 144.778,39.1264 147.5,33.5 Z M 82.5,187.5 C 83.4098,189.019 84.2432,190.685 85,192.5C 89.294,194.201 90.4606,197.201 88.5,201.5C 84.5937,197.611 82.5937,192.945 82.5,187.5 Z"/></g>
<g><path style="opacity:1" fill="#000000" d="M 376.5,183.5 C 350.01,186.43 323.51,189.43 297,192.5C 293.102,191.225 289.102,190.225 285,189.5C 283.583,190.078 282.75,191.078 282.5,192.5C 281.292,191.766 279.959,191.433 278.5,191.5C 278.5,192.833 278.5,194.167 278.5,195.5C 279.434,196.568 279.768,197.901 279.5,199.5C 281.099,199.768 282.432,199.434 283.5,198.5C 285.51,200.04 287.844,201.04 290.5,201.5C 291.364,199.803 292.697,198.637 294.5,198C 318.062,194.684 341.395,190.85 364.5,186.5C 367.518,186.296 370.518,185.963 373.5,185.5C 368.004,188.513 362.004,190.346 355.5,191C 335.46,194.118 315.46,197.451 295.5,201C 294.833,202 294.167,203 293.5,204C 289.523,204.531 285.69,204.031 282,202.5C 280.833,203.667 279.667,204.833 278.5,206C 255.724,207.292 233.057,210.459 210.5,215.5C 208.511,219.601 205.344,220.601 201,218.5C 197.751,220.101 194.251,220.934 190.5,221C 186.818,229.021 180.485,233.355 171.5,234C 172.967,239.574 172.634,245.074 170.5,250.5C 171.244,253.443 171.744,256.443 172,259.5C 174.838,263.172 177.171,267.172 179,271.5C 182.587,283.939 183.92,296.606 183,309.5C 181.96,312.04 180.126,313.707 177.5,314.5C 178.046,315.772 178.379,317.106 178.5,318.5C 175.394,337.362 171.394,356.028 166.5,374.5C 167.729,376.562 168.729,378.729 169.5,381C 169.507,382.812 168.84,384.312 167.5,385.5C 169.483,387.984 171.65,390.317 174,392.5C 175.989,398.292 174.155,402.125 168.5,404C 161.321,404.539 154.654,402.872 148.5,399C 144.333,395.5 140.167,392 136,388.5C 136.265,384.961 136.099,381.461 135.5,378C 140.109,365.188 141.609,352.021 140,338.5C 144.27,330.167 145.27,321.5 143,312.5C 140.667,309.5 138.333,306.5 136,303.5C 135.164,297.315 133.331,291.482 130.5,286C 128.854,284.599 127.187,284.432 125.5,285.5C 121.144,296.086 117.477,306.92 114.5,318C 115.459,320.12 115.626,322.287 115,324.5C 112.422,329.156 110.255,333.989 108.5,339C 114.716,351.91 110.716,357.91 96.5,357C 90.6667,355.167 86.8333,351.333 85,345.5C 84.9432,339.08 83.7765,333.08 81.5,327.5C 77.713,328.186 74.5463,327.186 72,324.5C 70.458,318.662 68.458,312.995 66,307.5C 62.8064,303.395 59.1397,299.728 55,296.5C 54.3131,294.08 54.8131,291.913 56.5,290C 55.565,287.619 55.2317,285.119 55.5,282.5C 67.3455,282.972 76.0121,278.139 81.5,268C 80.213,263.838 80.213,259.671 81.5,255.5C 80.7334,252.902 79.7334,250.402 78.5,248C 79.3338,245.152 81.0005,242.818 83.5,241C 79.0125,242.054 74.3458,242.721 69.5,243C 62.397,246.968 55.2303,250.801 48,254.5C 45.6977,252.523 43.6977,250.19 42,247.5C 40.5439,241.903 40.2106,236.237 41,230.5C 47.5101,227.61 54.3434,225.61 61.5,224.5C 56.7448,210.818 52.9115,196.818 50,182.5C 47.9965,174.78 49.8298,168.28 55.5,163C 62.1695,158.33 69.1695,154.163 76.5,150.5C 75.9878,143.123 77.6545,136.123 81.5,129.5C 83.2226,126.306 85.8893,124.639 89.5,124.5C 89.9844,119.177 92.651,115.344 97.5,113C 106.468,111.835 115.468,111.002 124.5,110.5C 124.248,107.68 124.748,105.014 126,102.5C 127.11,100.963 128.61,100.297 130.5,100.5C 129.643,96.5935 129.643,92.7602 130.5,89C 128.372,79.3167 125.872,69.8167 123,60.5C 124.873,58.2911 127.04,56.4578 129.5,55C 136.135,54.0281 142.801,53.3614 149.5,53C 145.56,47.401 145.56,41.7343 149.5,36C 154.167,35.3333 158.833,35.3333 163.5,36C 168.563,38.1524 170.396,41.9857 169,47.5C 168.654,49.8477 167.487,51.6811 165.5,53C 169.095,55.5694 173.095,57.2361 177.5,58C 178.944,59.126 179.61,60.626 179.5,62.5C 176.701,69.914 174.534,77.5806 173,85.5C 172.333,88.8333 172.333,92.1667 173,95.5C 174.698,96.5289 175.532,98.0289 175.5,100C 174.227,103.38 172.56,106.547 170.5,109.5C 172.56,112.453 174.227,115.62 175.5,119C 175.174,121.484 174.174,123.651 172.5,125.5C 176.305,128.806 179.138,132.806 181,137.5C 184.621,148.024 187.621,158.69 190,169.5C 191.892,171.054 193.392,172.888 194.5,175C 194.925,178.424 194.925,181.924 194.5,185.5C 199.103,189.341 199.769,193.841 196.5,199C 217.391,197.209 238.391,194.543 259.5,191C 262.264,189.859 264.931,188.692 267.5,187.5C 269.611,187.486 271.445,188.152 273,189.5C 277.033,188.627 281.033,187.627 285,186.5C 289.23,186.859 293.23,187.859 297,189.5C 323.514,185.247 350.014,183.247 376.5,183.5 Z M 82.5,187.5 C 82.5937,192.945 84.5937,197.611 88.5,201.5C 90.4606,197.201 89.294,194.201 85,192.5C 84.2432,190.685 83.4098,189.019 82.5,187.5 Z"/></g>
<g><path style="opacity:1" fill="#3e46c7" d="M 159.5,53.5 C 158.167,53.5 156.833,53.5 155.5,53.5C 149.532,50.2161 148.199,45.5494 151.5,39.5C 155.991,38.0495 160.324,38.3828 164.5,40.5C 165.357,41.7357 166.023,43.069 166.5,44.5C 165.092,47.5402 163.759,50.5402 162.5,53.5C 161.5,53.5 160.5,53.5 159.5,53.5 Z"/></g>
<g><path style="opacity:1" fill="#fefffe" d="M 155.5,53.5 C 156.833,53.5 158.167,53.5 159.5,53.5C 163.733,55.0615 166.066,58.0615 166.5,62.5C 165.599,63.2905 164.932,64.2905 164.5,65.5C 163.508,65.3284 162.842,65.6618 162.5,66.5C 161.604,67.5063 160.938,67.5063 160.5,66.5C 160.5,65.5 160.5,64.5 160.5,63.5C 164.445,60.3286 163.779,57.9952 158.5,56.5C 155.864,57.1356 154.198,58.8022 153.5,61.5C 153.855,62.5223 154.522,63.189 155.5,63.5C 154.89,64.391 154.557,65.391 154.5,66.5C 154.167,66.5 153.833,66.5 153.5,66.5C 153.5,65.8333 153.167,65.5 152.5,65.5C 150.688,63.5395 149.688,61.2061 149.5,58.5C 151.5,56.8333 153.5,55.1667 155.5,53.5 Z"/></g>
<g><path style="opacity:1" fill="#fe004f" d="M 160.5,63.5 C 159.833,63.5 159.5,63.1667 159.5,62.5C 161.843,61.0327 161.51,59.6994 158.5,58.5C 157.155,59.3467 156.155,60.5134 155.5,62C 155.728,62.3988 156.062,62.5654 156.5,62.5C 156.5,63.1667 156.167,63.5 155.5,63.5C 154.522,63.189 153.855,62.5223 153.5,61.5C 154.198,58.8022 155.864,57.1356 158.5,56.5C 163.779,57.9952 164.445,60.3286 160.5,63.5 Z"/></g>
<g><path style="opacity:1" fill="#292930" d="M 149.5,58.5 C 149.688,61.2061 150.688,63.5395 152.5,65.5C 148.707,69.289 148.54,73.289 152,77.5C 153,75.8333 154,74.1667 155,72.5C 155.251,74.433 155.751,76.2663 156.5,78C 155.601,79.2362 154.434,80.0696 153,80.5C 151.118,79.394 149.284,79.394 147.5,80.5C 154.468,92.5917 161.135,92.4251 167.5,80C 167.167,79.5 166.833,79 166.5,78.5C 164.302,81.2433 162.302,81.0767 160.5,78C 161.249,76.2663 161.749,74.433 162,72.5C 162.973,76.989 164.307,77.3223 166,73.5C 166.891,70.5024 166.391,67.8357 164.5,65.5C 164.932,64.2905 165.599,63.2905 166.5,62.5C 167.29,61.3915 167.79,60.0581 168,58.5C 171.212,59.1742 174.045,60.5075 176.5,62.5C 175.846,64.1151 175.346,65.7818 175,67.5C 174.25,68.1258 173.416,68.6258 172.5,69C 172.73,73.7838 171.896,78.6171 170,83.5C 169.501,87.1516 169.335,90.8183 169.5,94.5C 167.167,94.5 164.833,94.5 162.5,94.5C 154.33,93.5212 145.997,93.5212 137.5,94.5C 137.737,93.209 137.404,92.209 136.5,91.5C 135.662,91.1583 135.328,90.4916 135.5,89.5C 134.531,88.6906 133.698,87.6906 133,86.5C 132.004,80.178 130.504,74.0113 128.5,68C 129.167,67.6667 129.833,67.3333 130.5,67C 125.017,63.5716 125.351,60.5716 131.5,58C 135.644,57.3127 139.811,56.8127 144,56.5C 146.295,56.5465 148.129,57.2132 149.5,58.5 Z"/></g>
<g><path style="opacity:1" fill="#fec90d" d="M 156.5,62.5 C 157.5,62.5 158.5,62.5 159.5,62.5C 159.5,63.1667 159.833,63.5 160.5,63.5C 160.5,64.5 160.5,65.5 160.5,66.5C 159.441,68.0699 159.941,69.4032 162,70.5C 162.49,69.2068 162.657,67.8734 162.5,66.5C 162.842,65.6618 163.508,65.3284 164.5,65.5C 166.391,67.8357 166.891,70.5024 166,73.5C 164.307,77.3223 162.973,76.989 162,72.5C 161.749,74.433 161.249,76.2663 160.5,78C 162.302,81.0767 164.302,81.2433 166.5,78.5C 166.833,79 167.167,79.5 167.5,80C 161.135,92.4251 154.468,92.5917 147.5,80.5C 149.284,79.394 151.118,79.394 153,80.5C 154.434,80.0696 155.601,79.2362 156.5,78C 155.751,76.2663 155.251,74.433 155,72.5C 154,74.1667 153,75.8333 152,77.5C 148.54,73.289 148.707,69.289 152.5,65.5C 153.167,65.5 153.5,65.8333 153.5,66.5C 153.492,71.1365 154.826,71.3032 157.5,67C 157.333,66.5 157.167,66 157,65.5C 156.329,66.2524 155.496,66.5858 154.5,66.5C 154.557,65.391 154.89,64.391 155.5,63.5C 156.167,63.5 156.5,63.1667 156.5,62.5 Z"/></g>
<g><path style="opacity:1" fill="#3f47cc" d="M 159.5,62.5 C 158.5,62.5 157.5,62.5 156.5,62.5C 156.062,62.5654 155.728,62.3988 155.5,62C 156.155,60.5134 157.155,59.3467 158.5,58.5C 161.51,59.6994 161.843,61.0327 159.5,62.5 Z"/></g>
<g><path style="opacity:1" fill="#000000" d="M 153.5,66.5 C 153.833,66.5 154.167,66.5 154.5,66.5C 155.496,66.5858 156.329,66.2524 157,65.5C 157.167,66 157.333,66.5 157.5,67C 154.826,71.3032 153.492,71.1365 153.5,66.5 Z"/></g>
<g><path style="opacity:1" fill="#000000" d="M 160.5,66.5 C 160.938,67.5063 161.604,67.5063 162.5,66.5C 162.657,67.8734 162.49,69.2068 162,70.5C 159.941,69.4032 159.441,68.0699 160.5,66.5 Z"/></g>
<g><path style="opacity:1" fill="#1a1a20" d="M 136.5,91.5 C 137.404,92.209 137.737,93.209 137.5,94.5C 145.997,93.5212 154.33,93.5212 162.5,94.5C 166.609,94.8049 169.942,96.6382 172.5,100C 171.257,101.154 170.257,102.488 169.5,104C 162.615,105.425 155.615,105.925 148.5,105.5C 144.574,105.953 141.408,104.62 139,101.5C 138.51,102.793 138.343,104.127 138.5,105.5C 138.167,105.5 137.833,105.5 137.5,105.5C 137.5,104.5 137.5,103.5 137.5,102.5C 136.5,102.5 135.5,102.5 134.5,102.5C 135.209,101.596 136.209,101.263 137.5,101.5C 136.949,98.1933 136.616,94.8599 136.5,91.5 Z"/></g>
<g><path style="opacity:1" fill="#866509" d="M 135.5,89.5 C 135.328,90.4916 135.662,91.1583 136.5,91.5C 136.616,94.8599 136.949,98.1933 137.5,101.5C 136.209,101.263 135.209,101.596 134.5,102.5C 134.167,102.5 133.833,102.5 133.5,102.5C 134.811,98.928 134.477,95.5947 132.5,92.5C 132.879,90.7869 133.879,89.7869 135.5,89.5 Z"/></g>
<g><path style="opacity:1" fill="#ed8e55" d="M 148.5,105.5 C 148.415,106.995 149.081,107.995 150.5,108.5C 154.833,105.833 159.167,105.833 163.5,108.5C 165.901,105.587 167.234,105.921 167.5,109.5C 165.321,110.059 163.154,110.726 161,111.5C 159.108,111.223 157.775,110.223 157,108.5C 155.537,110.57 153.537,111.903 151,112.5C 147.211,110.025 143.377,107.692 139.5,105.5C 139.167,105.5 138.833,105.5 138.5,105.5C 138.343,104.127 138.51,102.793 139,101.5C 141.408,104.62 144.574,105.953 148.5,105.5 Z"/></g>
<g><path style="opacity:1" fill="#e9aa64" d="M 133.5,102.5 C 133.5,103.5 133.5,104.5 133.5,105.5C 132.448,105.351 131.448,105.517 130.5,106C 132.133,106.48 133.466,107.313 134.5,108.5C 134.216,110.415 134.549,112.081 135.5,113.5C 135.217,114.289 134.717,114.956 134,115.5C 130.707,113.951 128.207,111.617 126.5,108.5C 127.185,104.382 129.518,102.382 133.5,102.5 Z"/></g>
<g><path style="opacity:1" fill="#000000" d="M 133.5,102.5 C 133.833,102.5 134.167,102.5 134.5,102.5C 135.5,102.5 136.5,102.5 137.5,102.5C 137.5,103.5 137.5,104.5 137.5,105.5C 136.1,106.1 135.1,107.1 134.5,108.5C 133.466,107.313 132.133,106.48 130.5,106C 131.448,105.517 132.448,105.351 133.5,105.5C 133.5,104.5 133.5,103.5 133.5,102.5 Z"/></g>
<g><path style="opacity:1" fill="#8a6907" d="M 134.5,102.5 C 135.5,102.5 136.5,102.5 137.5,102.5C 137.5,103.5 137.5,104.5 137.5,105.5C 136.5,105.5 135.5,105.5 134.5,105.5C 134.5,104.5 134.5,103.5 134.5,102.5 Z"/></g>
<g><path style="opacity:1" fill="#8a6907" d="M 137.5,105.5 C 137.833,105.5 138.167,105.5 138.5,105.5C 138.5,106.5 138.5,107.5 138.5,108.5C 137.167,108.5 135.833,108.5 134.5,108.5C 135.1,107.1 136.1,106.1 137.5,105.5 Z"/></g>
<g><path style="opacity:1" fill="#f9b369" d="M 139.5,105.5 C 143.377,107.692 147.211,110.025 151,112.5C 153.537,111.903 155.537,110.57 157,108.5C 157.775,110.223 159.108,111.223 161,111.5C 163.154,110.726 165.321,110.059 167.5,109.5C 167.325,111.621 167.659,113.621 168.5,115.5C 166.512,118.161 165.179,121.161 164.5,124.5C 163.094,124.973 162.427,125.973 162.5,127.5C 161.463,128.93 160.796,130.597 160.5,132.5C 159.167,133.167 158.167,134.167 157.5,135.5C 155.194,135.993 152.861,136.326 150.5,136.5C 149.341,135.26 148.341,133.926 147.5,132.5C 146.226,129.24 144.56,126.24 142.5,123.5C 142.672,122.508 142.338,121.842 141.5,121.5C 141.737,120.209 141.404,119.209 140.5,118.5C 139.92,114.19 139.586,109.857 139.5,105.5 Z"/></g>
<g><path style="opacity:1" fill="#8a6907" d="M 135.5,113.5 C 135.5,112.167 135.5,110.833 135.5,109.5C 136.5,109.5 137.5,109.5 138.5,109.5C 138.532,111.619 137.532,112.952 135.5,113.5 Z"/></g>
<g><path style="opacity:1" fill="#8f7c20" d="M 125.5,126.5 C 124.932,122.443 123.932,118.443 122.5,114.5C 123.251,113.427 124.251,113.26 125.5,114C 127.249,115.292 129.082,116.458 131,117.5C 131.466,120.312 130.966,122.979 129.5,125.5C 128.264,126.246 126.93,126.579 125.5,126.5 Z"/></g>
<g><path style="opacity:1" fill="#a99321" d="M 118.5,116.5 C 118.665,118.827 119.331,120.993 120.5,123C 119.908,128.975 116.574,131.641 110.5,131C 114.888,125.048 114.221,119.715 108.5,115C 112.167,114.063 115.501,114.563 118.5,116.5 Z"/></g>
<g><path style="opacity:1" fill="#fefffe" d="M 122.5,114.5 C 123.932,118.443 124.932,122.443 125.5,126.5C 121.099,129.619 119.766,128.452 121.5,123C 120.961,120.518 119.961,118.352 118.5,116.5C 119.183,114.824 120.517,114.157 122.5,114.5 Z"/></g>
<g><path style="opacity:1" fill="#a89121" d="M 97.5,117.5 C 101.918,114.488 105.918,114.988 109.5,119C 107.167,119.333 104.833,119.667 102.5,120C 101.944,120.383 101.611,120.883 101.5,121.5C 108.264,118.744 110.597,120.744 108.5,127.5C 110.011,125.524 110.844,123.191 111,120.5C 112.236,128.022 109.07,132.355 101.5,133.5C 91.8604,131.057 89.5271,125.557 94.5,117C 96.3036,115.188 97.3036,115.354 97.5,117.5 Z"/></g>
<g><path style="opacity:1" fill="#806e1e" d="M 168.5,115.5 C 170.134,116.207 171.468,117.373 172.5,119C 171.038,121.832 169.038,123.999 166.5,125.5C 165.833,125.167 165.167,124.833 164.5,124.5C 165.179,121.161 166.512,118.161 168.5,115.5 Z"/></g>
<g><path style="opacity:1" fill="#8a6907" d="M 139.5,118.5 C 135.412,118.782 134.912,118.115 138,116.5C 139.03,116.836 139.53,117.503 139.5,118.5 Z"/></g>
<g><path style="opacity:1" fill="#000000" d="M 152.5,116.5 C 154.01,117.836 155.677,119.003 157.5,120C 154.632,120.64 152.965,119.473 152.5,116.5 Z"/></g>
<g><path style="opacity:1" fill="#000000" d="M 97.5,117.5 C 95.8557,120.004 94.3557,122.671 93,125.5C 92.6579,121.855 94.1579,119.189 97.5,117.5 Z"/></g>
<g><path style="opacity:1" fill="#434343" d="M 136.5,122.5 C 138.415,122.784 140.081,122.451 141.5,121.5C 142.338,121.842 142.672,122.508 142.5,123.5C 135.864,124.022 135.864,124.855 142.5,126C 137.379,126.577 137.379,127.577 142.5,129C 142.167,129.333 141.833,129.667 141.5,130C 143.609,131.141 145.442,132.641 147,134.5C 147.464,133.906 147.631,133.239 147.5,132.5C 148.341,133.926 149.341,135.26 150.5,136.5C 151.087,137.767 151.087,138.767 150.5,139.5C 143.705,136.867 137.872,132.867 133,127.5C 132.67,124.134 133.003,120.801 134,117.5C 134.757,119.315 135.59,120.981 136.5,122.5 Z"/></g>
<g><path style="opacity:1" fill="#75580c" d="M 139.5,118.5 C 139.833,118.5 140.167,118.5 140.5,118.5C 141.404,119.209 141.737,120.209 141.5,121.5C 140.081,122.451 138.415,122.784 136.5,122.5C 136.5,121.5 136.5,120.5 136.5,119.5C 137.791,119.737 138.791,119.404 139.5,118.5 Z"/></g>
<g><path style="opacity:1" fill="#000000" d="M 101.5,121.5 C 101.906,123.109 101.906,124.443 101.5,125.5C 100.218,124.042 100.218,122.708 101.5,121.5 Z"/></g>
<g><path style="opacity:1" fill="#5b070b" d="M 151.5,123.5 C 154.187,123.336 156.854,123.503 159.5,124C 160.833,125 160.833,126 159.5,127C 156.032,128.081 153.032,127.415 150.5,125C 151.056,124.617 151.389,124.117 151.5,123.5 Z"/></g>
<g><path style="opacity:1" fill="#e7d5d5" d="M 164.5,124.5 C 165.167,124.833 165.833,125.167 166.5,125.5C 169.231,139.009 171.231,152.675 172.5,166.5C 172.113,171.047 170.947,175.381 169,179.5C 167.558,165.54 166.558,151.54 166,137.5C 164.6,134.26 163.433,130.927 162.5,127.5C 162.427,125.973 163.094,124.973 164.5,124.5 Z"/></g>
<g><path style="opacity:1" fill="#7f0414" d="M 90.5,140.5 C 87.7067,141.746 85.04,141.413 82.5,139.5C 82.1645,134.194 84.4979,130.194 89.5,127.5C 92.826,130.817 94.4926,134.817 94.5,139.5C 92.901,139.232 91.5676,139.566 90.5,140.5 Z"/></g>
<g><path style="opacity:1" fill="#000000" d="M 108.5,127.5 C 108.586,128.496 108.252,129.329 107.5,130C 102.832,132.248 98.4984,131.748 94.5,128.5C 94.6667,128.167 94.8333,127.833 95,127.5C 99.5275,131.31 104.027,131.31 108.5,127.5 Z"/></g>
<g><path style="opacity:1" fill="#694f0e" d="M 142.5,123.5 C 144.56,126.24 146.226,129.24 147.5,132.5C 147.631,133.239 147.464,133.906 147,134.5C 145.442,132.641 143.609,131.141 141.5,130C 141.833,129.667 142.167,129.333 142.5,129C 137.379,127.577 137.379,126.577 142.5,126C 135.864,124.855 135.864,124.022 142.5,123.5 Z"/></g>
<g><path style="opacity:1" fill="#ebd9d8" d="M 123.5,129.5 C 127.72,144.632 126.887,159.632 121,174.5C 115.663,184.261 107.496,190.261 96.5,192.5C 93.9859,191.078 91.3193,189.912 88.5,189C 97.3527,187.157 105.186,183.323 112,177.5C 115.754,171.992 118.42,165.992 120,159.5C 120.667,151.167 120.667,142.833 120,134.5C 119.308,133.975 118.808,133.308 118.5,132.5C 120.145,131.304 121.811,130.304 123.5,129.5 Z"/></g>
<g><path style="opacity:1" fill="#ebd9d8" d="M 149.5,150.5 C 149.427,152.027 150.094,153.027 151.5,153.5C 151.829,155.991 152.829,158.157 154.5,160C 153.206,162.087 152.039,164.254 151,166.5C 149.591,162.684 147.924,159.017 146,155.5C 140.366,148.864 134.366,142.531 128,136.5C 127.333,134.167 127.333,131.833 128,129.5C 136.361,135.362 143.527,142.362 149.5,150.5 Z"/></g>
<g><path style="opacity:1" fill="#7b7b7b" d="M 113.5,169.5 C 111.876,169.64 110.71,168.973 110,167.5C 108.167,170.667 105.667,173.167 102.5,175C 97.6366,177.066 92.6366,178.732 87.5,180C 86.6195,180.708 85.9528,181.542 85.5,182.5C 81.8307,181.697 79.164,182.864 77.5,186C 77.1524,191.093 78.4857,195.927 81.5,200.5C 75.2527,204.44 68.4194,206.773 61,207.5C 60.0546,207.095 59.3879,206.428 59,205.5C 57.1521,197.774 55.1521,190.108 53,182.5C 52.2093,178.074 52.5427,173.741 54,169.5C 64.9512,160.938 76.7846,153.772 89.5,148C 97.3144,141.446 105.981,136.279 115.5,132.5C 116.971,133.381 117.804,134.714 118,136.5C 118.667,143.833 118.667,151.167 118,158.5C 117.356,162.619 115.856,166.285 113.5,169.5 Z"/></g>
<g><path style="opacity:1" fill="#777777" d="M 160.5,132.5 C 161.29,133.609 161.79,134.942 162,136.5C 162.333,135.5 162.667,134.5 163,133.5C 163.997,136.801 164.33,140.134 164,143.5C 161.167,148.5 158.333,153.5 155.5,158.5C 154.388,156.581 153.054,154.914 151.5,153.5C 150.094,153.027 149.427,152.027 149.5,150.5C 146.795,145.614 143.461,141.114 139.5,137C 143.721,138.353 148.055,139.853 152.5,141.5C 154.197,141.101 155.863,140.601 157.5,140C 153.85,138.738 153.85,137.238 157.5,135.5C 158.167,134.167 159.167,133.167 160.5,132.5 Z"/></g>
<g><path style="opacity:1" fill="#5d000d" d="M 95.5,134.5 C 97.8008,135.06 100.134,135.56 102.5,136C 100.336,136.914 98.3359,138.081 96.5,139.5C 95.5481,137.955 95.2148,136.288 95.5,134.5 Z"/></g>
<g><path style="opacity:1" fill="#7b7b7b" d="M 127.5,138.5 C 131.579,142.143 132.579,146.643 130.5,152C 131.553,161.703 132.886,171.37 134.5,181C 134.167,181.833 133.833,182.667 133.5,183.5C 122.291,191.686 109.791,196.686 96,198.5C 93.9803,197.968 93.147,196.635 93.5,194.5C 112.206,191.966 123.372,181.299 127,162.5C 128.478,154.486 128.644,146.486 127.5,138.5 Z"/></g>
<g><path style="opacity:1" fill="#fefffe" d="M 82.5,139.5 C 85.04,141.413 87.7067,141.746 90.5,140.5C 95.2203,140.225 95.5537,141.059 91.5,143C 88.854,143.497 86.1873,143.664 83.5,143.5C 82.221,142.285 81.221,142.618 80.5,144.5C 79.6509,142.49 80.3176,140.823 82.5,139.5 Z"/></g>
<g><path style="opacity:1" fill="#750613" d="M 83.5,143.5 C 85.2922,144.309 87.2922,144.809 89.5,145C 87.5318,146.544 85.3651,147.711 83,148.5C 82.5811,144.148 81.9145,143.815 81,147.5C 80.5172,146.552 80.3505,145.552 80.5,144.5C 81.221,142.618 82.221,142.285 83.5,143.5 Z"/></g>
<g><path style="opacity:1" fill="#787878" d="M 139.5,175.5 C 138.5,175.5 137.5,175.5 136.5,175.5C 134.728,167.873 133.395,160.04 132.5,152C 133.161,149.536 133.661,147.036 134,144.5C 141.512,150.505 146.345,158.172 148.5,167.5C 146.597,170.911 144.097,173.911 141,176.5C 140.617,175.944 140.117,175.611 139.5,175.5 Z"/></g>
<g><path style="opacity:1" fill="#ebd9d8" d="M 163.5,147.5 C 164.634,149.966 164.801,152.633 164,155.5C 150.902,186.1 128.069,204.767 95.5,211.5C 93.9466,210.561 92.6133,209.394 91.5,208C 92.3632,205.773 93.3632,203.607 94.5,201.5C 127.278,195.889 150.278,177.889 163.5,147.5 Z"/></g>
<g><path style="opacity:1" fill="#fec90d" d="M 136.5,153.5 C 137.5,153.5 138.5,153.5 139.5,153.5C 139.5,154.5 139.5,155.5 139.5,156.5C 138.5,156.5 137.5,156.5 136.5,156.5C 136.5,155.5 136.5,154.5 136.5,153.5 Z"/></g>
<g><path style="opacity:1" fill="#7e7f7e" d="M 164.5,158.5 C 165.271,167.209 166.271,176.043 167.5,185C 167.491,186.404 166.991,187.57 166,188.5C 163.339,182.684 160.839,176.851 158.5,171C 160.904,167.025 162.904,162.858 164.5,158.5 Z"/></g>
<g><path style="opacity:1" fill="#717171" d="M 180.5,202.5 C 177.7,200.854 175.367,201.354 173.5,204C 174.416,204.278 175.082,204.778 175.5,205.5C 174.5,205.5 173.5,205.5 172.5,205.5C 172.167,221.5 171.833,221.5 171.5,205.5C 170.5,205.5 169.5,205.5 168.5,205.5C 167.761,205.631 167.094,205.464 166.5,205C 167.941,198.289 168.775,191.456 169,184.5C 171.422,178.733 172.922,172.733 173.5,166.5C 172.524,161.927 172.524,157.427 173.5,153C 172.802,146.649 171.302,140.482 169,134.5C 168.13,127.555 170.13,127.222 175,133.5C 179.612,142.669 182.612,152.335 184,162.5C 185.305,167.928 187.472,172.928 190.5,177.5C 191.437,180.823 191.604,184.157 191,187.5C 193.016,188.839 194.183,190.672 194.5,193C 194.1,195.9 193.434,198.733 192.5,201.5C 188.493,202.954 184.493,203.287 180.5,202.5 Z"/></g>
<g><path style="opacity:1" fill="#555555" d="M 113.5,169.5 C 110.927,175.991 106.26,180.491 99.5,183C 95.8586,184.269 92.1919,185.436 88.5,186.5C 87.4756,185.148 86.4756,183.815 85.5,182.5C 85.9528,181.542 86.6195,180.708 87.5,180C 92.6366,178.732 97.6366,177.066 102.5,175C 105.667,173.167 108.167,170.667 110,167.5C 110.71,168.973 111.876,169.64 113.5,169.5 Z"/></g>
<g><path style="opacity:1" fill="#ebd9d8" d="M 156.5,172.5 C 159.636,178.773 162.803,185.106 166,191.5C 166.004,195.483 165.671,199.483 165,203.5C 160.224,195.337 156.724,186.67 154.5,177.5C 155.187,175.823 155.854,174.156 156.5,172.5 Z"/></g>
<g><path style="opacity:1" fill="#fec90d" d="M 136.5,175.5 C 137.5,175.5 138.5,175.5 139.5,175.5C 139.5,176.5 139.5,177.5 139.5,178.5C 138.5,178.5 137.5,178.5 136.5,178.5C 136.5,177.5 136.5,176.5 136.5,175.5 Z"/></g>
<g><path style="opacity:1" fill="#777777" d="M 135.5,199.5 C 136.5,199.5 137.5,199.5 138.5,199.5C 138.5,198.5 138.5,197.5 138.5,196.5C 138.389,195.883 138.056,195.383 137.5,195C 143.378,190.79 148.211,185.623 152,179.5C 154.859,188.39 158.693,196.89 163.5,205C 155.27,206.493 146.937,207.493 138.5,208C 136.973,209.632 135.307,209.799 133.5,208.5C 134.089,205.36 134.756,202.36 135.5,199.5 Z"/></g>
<g><path style="opacity:1" fill="#888888" d="M 376.5,183.5 C 377.738,183.81 377.738,184.31 376.5,185C 375.552,185.483 374.552,185.649 373.5,185.5C 370.518,185.963 367.518,186.296 364.5,186.5C 339.969,189.894 315.469,193.561 291,197.5C 288.785,197.1 286.952,196.1 285.5,194.5C 284.71,193.599 283.71,192.932 282.5,192.5C 282.75,191.078 283.583,190.078 285,189.5C 289.102,190.225 293.102,191.225 297,192.5C 323.51,189.43 350.01,186.43 376.5,183.5 Z"/></g>
<g><path style="opacity:1" fill="#fefffe" d="M 80.5,184.5 C 81.8734,184.343 83.2068,184.51 84.5,185C 85.3295,186.816 86.1628,188.649 87,190.5C 88.676,191.061 90.0094,192.061 91,193.5C 91.9414,199.756 91.1081,205.756 88.5,211.5C 87.3342,205.504 84.8342,200.17 81,195.5C 80.5779,193.645 80.0779,191.811 79.5,190C 80.2335,188.234 80.5668,186.401 80.5,184.5 Z M 82.5,187.5 C 82.5937,192.945 84.5937,197.611 88.5,201.5C 90.4606,197.201 89.294,194.201 85,192.5C 84.2432,190.685 83.4098,189.019 82.5,187.5 Z"/></g>
<g><path style="opacity:1" fill="#c2c3c2" d="M 364.5,186.5 C 341.395,190.85 318.062,194.684 294.5,198C 292.697,198.637 291.364,199.803 290.5,201.5C 287.844,201.04 285.51,200.04 283.5,198.5C 283.157,196.517 283.824,195.183 285.5,194.5C 286.952,196.1 288.785,197.1 291,197.5C 315.469,193.561 339.969,189.894 364.5,186.5 Z"/></g>
<g><path style="opacity:1" fill="#fec90d" d="M 272.5,197.5 C 273.492,197.672 274.158,197.338 274.5,196.5C 275.181,194.842 276.015,193.175 277,191.5C 277.21,193.058 277.71,194.391 278.5,195.5C 278.945,198.365 278.278,200.865 276.5,203C 272.568,202.538 268.568,202.705 264.5,203.5C 264.5,201.833 264.5,200.167 264.5,198.5C 265.083,195.759 266.083,193.092 267.5,190.5C 268.086,190.709 268.586,191.043 269,191.5C 269.497,193.81 269.663,196.143 269.5,198.5C 270.791,198.737 271.791,198.404 272.5,197.5 Z"/></g>
<g><path style="opacity:1" fill="#c2c3c2" d="M 282.5,192.5 C 282.205,194.735 282.539,196.735 283.5,198.5C 282.432,199.434 281.099,199.768 279.5,199.5C 279.768,197.901 279.434,196.568 278.5,195.5C 278.5,194.167 278.5,192.833 278.5,191.5C 279.959,191.433 281.292,191.766 282.5,192.5 Z"/></g>
<g><path style="opacity:1" fill="#afafaf" d="M 274.5,196.5 C 274.158,197.338 273.492,197.672 272.5,197.5C 270.744,196.448 270.077,194.781 270.5,192.5C 271.833,192.5 273.167,192.5 274.5,192.5C 274.5,193.833 274.5,195.167 274.5,196.5 Z"/></g>
<g><path style="opacity:1" fill="#000000" d="M 282.5,192.5 C 283.71,192.932 284.71,193.599 285.5,194.5C 283.824,195.183 283.157,196.517 283.5,198.5C 282.539,196.735 282.205,194.735 282.5,192.5 Z"/></g>
<g><path style="opacity:1" fill="#c2c3c2" d="M 260.5,196.5 C 243.959,197.929 227.626,199.929 211.5,202.5C 207.107,202.543 206.774,202.043 210.5,201C 228.077,198.987 245.577,196.487 263,193.5C 263.5,193.833 264,194.167 264.5,194.5C 263.051,195.172 261.718,195.839 260.5,196.5 Z"/></g>
<g><path style="opacity:1" fill="#fec90d" d="M 138.5,196.5 C 138.5,197.5 138.5,198.5 138.5,199.5C 137.5,199.5 136.5,199.5 135.5,199.5C 135.5,198.5 135.5,197.5 135.5,196.5C 136.5,196.5 137.5,196.5 138.5,196.5 Z"/></g>
<g><path style="opacity:1" fill="#865439" d="M 260.5,196.5 C 262.483,196.157 263.817,196.824 264.5,198.5C 263.549,199.919 263.216,201.585 263.5,203.5C 245.785,205.793 228.118,208.459 210.5,211.5C 209.416,211.315 208.416,210.982 207.5,210.5C 205.018,208.915 204.352,206.915 205.5,204.5C 207.626,203.952 209.626,203.285 211.5,202.5C 227.626,199.929 243.959,197.929 260.5,196.5 Z"/></g>
<g><path style="opacity:1" fill="#808080" d="M 90.5,216.5 C 90.1667,216.5 89.8333,216.5 89.5,216.5C 88.4017,215.399 88.235,214.066 89,212.5C 89.9147,213.328 90.5814,214.328 91,215.5C 91.3333,214.167 91.6667,212.833 92,211.5C 92.804,212.804 93.9707,213.471 95.5,213.5C 108.586,211.365 120.586,206.698 131.5,199.5C 132.46,203.139 132.46,206.805 131.5,210.5C 117.839,212.61 104.172,214.61 90.5,216.5 Z"/></g>
<g><path style="opacity:1" fill="#c2c3c2" d="M 205.5,204.5 C 204.352,206.915 205.018,208.915 207.5,210.5C 207.167,211.167 206.833,211.833 206.5,212.5C 203.522,211.522 201.522,209.522 200.5,206.5C 200.79,203.472 202.457,201.472 205.5,200.5C 206.292,201.7 206.292,203.033 205.5,204.5 Z"/></g>
<g><path style="opacity:1" fill="#fdb96b" d="M 180.5,202.5 C 180.5,203.167 180.5,203.833 180.5,204.5C 179.833,204.5 179.5,204.833 179.5,205.5C 178.167,205.5 176.833,205.5 175.5,205.5C 175.082,204.778 174.416,204.278 173.5,204C 175.367,201.354 177.7,200.854 180.5,202.5 Z"/></g>
<g><path style="opacity:1" fill="#7e7f7e" d="M 82.5,202.5 C 85.4185,207.092 86.4185,212.092 85.5,217.5C 79.2563,219.269 73.0896,221.269 67,223.5C 64.3355,219.504 62.1688,215.171 60.5,210.5C 65.7668,208.896 71.1001,207.396 76.5,206C 78.7274,205.059 80.7274,203.892 82.5,202.5 Z"/></g>
<g><path style="opacity:1" fill="#bbbbbb" d="M 198.5,204.5 C 192.589,205.013 186.756,206.013 181,207.5C 179.97,207.164 179.47,206.497 179.5,205.5C 179.5,204.833 179.833,204.5 180.5,204.5C 186.69,205.114 192.857,204.447 199,202.5C 199.5,202.667 200,202.833 200.5,203C 199.584,203.278 198.918,203.778 198.5,204.5 Z"/></g>
<g><path style="opacity:1" fill="#714731" d="M 198.5,204.5 C 199.833,204.5 200.5,205.167 200.5,206.5C 201.522,209.522 203.522,211.522 206.5,212.5C 197.101,214.58 187.768,216.913 178.5,219.5C 175.85,215.441 175.85,211.274 178.5,207C 177.263,206.768 176.263,206.268 175.5,205.5C 176.833,205.5 178.167,205.5 179.5,205.5C 179.47,206.497 179.97,207.164 181,207.5C 186.756,206.013 192.589,205.013 198.5,204.5 Z"/></g>
<g><path style="opacity:1" fill="#f5b268" d="M 168.5,205.5 C 169.5,205.5 170.5,205.5 171.5,205.5C 171.833,221.5 172.167,221.5 172.5,205.5C 173.5,205.5 174.5,205.5 175.5,205.5C 176.263,206.268 177.263,206.768 178.5,207C 175.85,211.274 175.85,215.441 178.5,219.5C 178.5,220.167 178.833,220.5 179.5,220.5C 180.058,221.79 181.058,222.623 182.5,223C 180.937,224.736 179.27,226.236 177.5,227.5C 172.807,227.54 168.141,227.873 163.5,228.5C 162.488,227.128 161.488,225.795 160.5,224.5C 159.681,222.228 159.015,219.894 158.5,217.5C 159.473,215.052 159.806,212.385 159.5,209.5C 161.26,212.701 162.094,216.367 162,220.5C 162.499,216.179 162.666,211.846 162.5,207.5C 163.833,207.5 165.167,207.5 166.5,207.5C 166.334,211.514 166.501,215.514 167,219.5C 167.281,214.785 167.781,210.118 168.5,205.5 Z"/></g>
<g><path style="opacity:1" fill="#c2c3c2" d="M 159.5,209.5 C 153.5,210.5 147.5,211.5 141.5,212.5C 141.5,211.5 141.5,210.5 141.5,209.5C 147.675,208.794 153.675,208.794 159.5,209.5 Z"/></g>
<g><path style="opacity:1" fill="#c2c3c2" d="M 141.5,212.5 C 141.253,215.939 141.586,219.272 142.5,222.5C 140.466,221.409 139.132,219.743 138.5,217.5C 138.125,214.603 138.625,211.937 140,209.5C 140.232,210.737 140.732,211.737 141.5,212.5 Z"/></g>
<g><path style="opacity:1" fill="#724831" d="M 159.5,209.5 C 159.806,212.385 159.473,215.052 158.5,217.5C 157.26,218.659 155.926,219.659 154.5,220.5C 150.733,221.795 146.733,222.461 142.5,222.5C 141.586,219.272 141.253,215.939 141.5,212.5C 147.5,211.5 153.5,210.5 159.5,209.5 Z"/></g>
<g><path style="opacity:1" fill="#b7b7b7" d="M 135.5,213.5 C 124.146,215.471 112.813,217.637 101.5,220C 104.234,220.718 104.9,222.218 103.5,224.5C 99.308,225.731 95.1413,227.064 91,228.5C 89.8261,227.456 88.6594,226.456 87.5,225.5C 88.062,222.454 88.7287,219.454 89.5,216.5C 89.8333,216.5 90.1667,216.5 90.5,216.5C 90.9126,218.89 91.5793,221.223 92.5,223.5C 92.8072,222.113 92.8072,220.446 92.5,218.5C 107.519,216.107 122.519,213.94 137.5,212C 136.584,212.278 135.918,212.778 135.5,213.5 Z"/></g>
<g><path style="opacity:1" fill="#e6d4d4" d="M 206.5,212.5 C 207.522,213.892 207.189,215.225 205.5,216.5C 201.292,215.51 197.292,215.51 193.5,216.5C 190.338,217.365 187.338,218.365 184.5,219.5C 182.708,219.366 181.042,219.699 179.5,220.5C 178.833,220.5 178.5,220.167 178.5,219.5C 187.768,216.913 197.101,214.58 206.5,212.5 Z"/></g>
<g><path style="opacity:1" fill="#734932" d="M 135.5,213.5 C 136.978,214.448 137.978,215.781 138.5,217.5C 139.132,219.743 140.466,221.409 142.5,222.5C 130.063,225.127 117.396,227.127 104.5,228.5C 101.941,228.198 99.6074,228.532 97.5,229.5C 97.5,230.167 97.1667,230.5 96.5,230.5C 93.9009,230.549 91.7342,231.549 90,233.5C 87.0153,231.265 86.182,228.598 87.5,225.5C 88.6594,226.456 89.8261,227.456 91,228.5C 95.1413,227.064 99.308,225.731 103.5,224.5C 104.9,222.218 104.234,220.718 101.5,220C 112.813,217.637 124.146,215.471 135.5,213.5 Z"/></g>
<g><path style="opacity:1" fill="#454545" d="M 184.5,219.5 C 185.376,219.369 186.043,219.702 186.5,220.5C 184.17,227.813 179.504,230.646 172.5,229C 174.382,228.802 176.048,228.302 177.5,227.5C 179.27,226.236 180.937,224.736 182.5,223C 181.058,222.623 180.058,221.79 179.5,220.5C 181.042,219.699 182.708,219.366 184.5,219.5 Z"/></g>
<g><path style="opacity:1" fill="#fdb96b" d="M 81.5,220.5 C 83.288,220.215 84.9547,220.548 86.5,221.5C 83.5828,226.635 83.9161,231.469 87.5,236C 87.3699,237.059 86.8699,237.892 86,238.5C 83.828,237.415 81.828,236.081 80,234.5C 79.3772,238.932 78.3772,239.265 77,235.5C 76.51,236.793 76.3433,238.127 76.5,239.5C 75.5,239.5 74.5,239.5 73.5,239.5C 73.4427,234.318 72.776,234.318 71.5,239.5C 67.8771,234.78 67.5438,229.78 70.5,224.5C 74.3318,223.304 77.9985,221.97 81.5,220.5 Z"/></g>
<g><path style="opacity:1" fill="#ebd9d8" d="M 154.5,220.5 C 155.978,220.238 157.311,220.571 158.5,221.5C 139.63,226.099 120.63,229.099 101.5,230.5C 102.602,229.824 103.602,229.158 104.5,228.5C 117.396,227.127 130.063,225.127 142.5,222.5C 146.733,222.461 150.733,221.795 154.5,220.5 Z"/></g>
<g><path style="opacity:1" fill="#777777" d="M 160.5,224.5 C 161.488,225.795 162.488,227.128 163.5,228.5C 164.568,229.434 165.901,229.768 167.5,229.5C 168.322,233.126 168.989,236.793 169.5,240.5C 169.042,243.875 168.375,247.208 167.5,250.5C 168.047,253.826 168.547,257.16 169,260.5C 178.428,275.757 181.595,292.09 178.5,309.5C 177.808,308.975 177.308,308.308 177,307.5C 175.313,294.711 172.98,282.044 170,269.5C 155.94,258.608 143.774,245.941 133.5,231.5C 133.833,229.833 134.833,228.833 136.5,228.5C 144.362,226.35 152.362,225.017 160.5,224.5 Z"/></g>
<g><path style="opacity:1" fill="#985f3f" d="M 66.5,225.5 C 66.0757,230.185 66.5757,234.851 68,239.5C 61.6667,243.167 55.3333,246.833 49,250.5C 44.2326,245.438 42.5659,239.438 44,232.5C 51.6163,230.237 59.1163,227.904 66.5,225.5 Z"/></g>
<g><path style="opacity:1" fill="#c2c3c2" d="M 97.5,229.5 C 98.5,229.5 99.5,229.5 100.5,229.5C 100.5,230.5 100.5,231.5 100.5,232.5C 98.2732,236.39 94.9399,238.724 90.5,239.5C 88.7871,235.539 89.4538,234.872 92.5,237.5C 96.5787,236.475 97.912,234.142 96.5,230.5C 97.1667,230.5 97.5,230.167 97.5,229.5 Z"/></g>
<g><path style="opacity:1" fill="#7e7e7e" d="M 131.5,233.5 C 127.702,243.803 122.035,252.97 114.5,261C 97.6337,274.099 79.3004,284.599 59.5,292.5C 59.6816,290.409 59.3482,288.409 58.5,286.5C 63.4657,285.001 68.4657,283.501 73.5,282C 78.4935,278.85 82.1601,274.683 84.5,269.5C 91.1338,262.697 97.6338,255.697 104,248.5C 107.321,243.526 109.821,238.193 111.5,232.5C 118.07,230.942 124.737,229.942 131.5,229.5C 131.5,230.833 131.5,232.167 131.5,233.5 Z"/></g>
<g><path style="opacity:1" fill="#2c2c2c" d="M 100.5,232.5 C 102.085,233.002 102.585,234.002 102,235.5C 97.0328,241.469 91.6995,247.135 86,252.5C 85.0701,250.448 83.5701,248.948 81.5,248C 84.4424,244.885 87.4424,242.051 90.5,239.5C 94.9399,238.724 98.2732,236.39 100.5,232.5 Z"/></g>
<g><path style="opacity:1" fill="#5b5c5b" d="M 111.5,232.5 C 109.821,238.193 107.321,243.526 104,248.5C 97.6338,255.697 91.1338,262.697 84.5,269.5C 83.0008,264.687 83.3341,260.02 85.5,255.5C 93.2462,249.09 99.9129,241.757 105.5,233.5C 107.396,232.534 109.396,232.201 111.5,232.5 Z"/></g>
<g><path style="opacity:1" fill="#5b5c5b" d="M 131.5,233.5 C 132.82,235.463 134.154,237.463 135.5,239.5C 131.216,251.754 124.216,262.087 114.5,270.5C 98.5482,281.246 82.2148,291.246 65.5,300.5C 63.093,299.206 60.9263,297.539 59,295.5C 58.5304,294.423 58.6971,293.423 59.5,292.5C 79.3004,284.599 97.6337,274.099 114.5,261C 122.035,252.97 127.702,243.803 131.5,233.5 Z"/></g>
<g><path style="opacity:1" fill="#808080" d="M 135.5,239.5 C 136.649,239.791 137.316,240.624 137.5,242C 135.632,252.942 131.798,263.108 126,272.5C 122.956,277.045 119.123,280.711 114.5,283.5C 99.8951,293.118 85.8951,303.451 72.5,314.5C 71.2187,309.271 68.8854,304.604 65.5,300.5C 82.2148,291.246 98.5482,281.246 114.5,270.5C 124.216,262.087 131.216,251.754 135.5,239.5 Z"/></g>
<g><path style="opacity:1" fill="#fefffe" d="M 147.5,252.5 C 153.869,259.036 160.702,265.036 168,270.5C 170.932,283.43 173.432,296.43 175.5,309.5C 174.992,314.203 174.658,318.87 174.5,323.5C 172.364,324.403 170.364,325.569 168.5,327C 166.167,327.667 163.833,327.667 161.5,327C 156.341,323.339 151.674,319.172 147.5,314.5C 146.606,311.043 144.94,308.043 142.5,305.5C 142.665,301.818 142.499,298.152 142,294.5C 140.348,289.901 139.348,285.235 139,280.5C 141.833,283.333 144.667,286.167 147.5,289C 148.167,289.667 148.833,289.667 149.5,289C 146.025,284.025 142.359,279.191 138.5,274.5C 143.408,274.404 148.408,274.237 153.5,274C 148.934,272.358 144.268,271.025 139.5,270C 152.601,265.419 151.934,263.753 137.5,265C 141.992,262.915 145.992,260.082 149.5,256.5C 149,256.167 148.5,255.833 148,255.5C 145.547,256.827 143.047,257.661 140.5,258C 143.266,256.629 145.599,254.796 147.5,252.5 Z"/></g>
<g><path style="opacity:1" fill="#d5d5d5" d="M 147.5,252.5 C 145.599,254.796 143.266,256.629 140.5,258C 143.047,257.661 145.547,256.827 148,255.5C 148.5,255.833 149,256.167 149.5,256.5C 145.992,260.082 141.992,262.915 137.5,265C 151.934,263.753 152.601,265.419 139.5,270C 144.268,271.025 148.934,272.358 153.5,274C 148.408,274.237 143.408,274.404 138.5,274.5C 142.359,279.191 146.025,284.025 149.5,289C 148.833,289.667 148.167,289.667 147.5,289C 144.667,286.167 141.833,283.333 139,280.5C 139.348,285.235 140.348,289.901 142,294.5C 142.499,298.152 142.665,301.818 142.5,305.5C 141.571,304.064 140.405,302.731 139,301.5C 138.087,295.593 136.42,289.927 134,284.5C 130.696,280.631 127.03,279.964 123,282.5C 120.517,287.477 118.35,292.477 116.5,297.5C 115.404,299.103 114.07,300.603 112.5,302C 111.668,302.688 111.002,302.521 110.5,301.5C 112.67,295.827 115.337,290.494 118.5,285.5C 124.223,278.756 129.223,271.423 133.5,263.5C 134.376,262.749 135.376,262.249 136.5,262C 135.692,261.692 135.025,261.192 134.5,260.5C 136.342,255.115 138.175,249.781 140,244.5C 142.705,247.036 145.205,249.703 147.5,252.5 Z"/></g>
<g><path style="opacity:1" fill="#a3a4a3" d="M 114.5,283.5 C 111.437,288.072 107.77,292.239 103.5,296C 97.2392,301.383 91.0725,306.883 85,312.5C 82.6452,316.091 80.8119,319.924 79.5,324C 77.6332,324.711 76.1332,324.211 75,322.5C 74.0594,319.846 73.2261,317.179 72.5,314.5C 85.8951,303.451 99.8951,293.118 114.5,283.5 Z"/></g>
<g><path style="opacity:1" fill="#f8f8f8" d="M 118.5,285.5 C 115.337,290.494 112.67,295.827 110.5,301.5C 111.002,302.521 111.668,302.688 112.5,302C 114.07,300.603 115.404,299.103 116.5,297.5C 114.392,305.32 112.392,313.153 110.5,321C 111.167,321.333 111.833,321.667 112.5,322C 109.599,326.968 107.099,332.135 105,337.5C 100.285,342.093 95.1186,342.426 89.5,338.5C 88.5344,336.604 88.2011,334.604 88.5,332.5C 87.1779,332.67 86.0113,332.337 85,331.5C 85.1554,329.189 85.1554,326.856 85,324.5C 84.2496,323.874 83.4162,323.374 82.5,323C 83.2546,320.825 84.088,318.659 85,316.5C 95.5,306 106,295.5 116.5,285C 117.437,284.308 118.103,284.475 118.5,285.5 Z"/></g>
<g><path style="opacity:1" fill="#e7e8e7" d="M 147.5,314.5 C 151.674,319.172 156.341,323.339 161.5,327C 163.833,327.667 166.167,327.667 168.5,327C 170.364,325.569 172.364,324.403 174.5,323.5C 171.577,339.279 168.077,354.946 164,370.5C 163.333,373.167 163.333,375.833 164,378.5C 164.5,379.667 165.333,380.5 166.5,381C 163.986,382.452 161.32,383.618 158.5,384.5C 153.054,383.841 147.721,382.674 142.5,381C 140.82,380.653 139.82,379.653 139.5,378C 143.236,366.553 144.236,354.887 142.5,343C 146.418,333.907 148.085,324.407 147.5,314.5 Z"/></g>
<g><path style="opacity:1" fill="#454300" d="M 87.5,340.5 C 90.9591,341.574 94.4591,342.574 98,343.5C 100.413,342.976 102.58,341.976 104.5,340.5C 106.75,343.835 107.584,347.502 107,351.5C 104.667,352.877 102.167,353.877 99.5,354.5C 92.2527,352.588 88.2527,347.921 87.5,340.5 Z"/></g>
<g><path style="opacity:1" fill="#454300" d="M 140.5,382.5 C 147.607,384.875 154.94,386.375 162.5,387C 165.63,389.128 168.463,391.628 171,394.5C 171.667,395.833 171.667,397.167 171,398.5C 169.139,399.764 167.139,400.764 165,401.5C 154.426,399.249 145.592,394.082 138.5,386C 139.305,384.887 139.972,383.721 140.5,382.5 Z"/></g>
</svg>
