<?xml version="1.0" encoding="UTF-8"?>
<!DOCTYPE svg PUBLIC "-//W3C//DTD SVG 1.1//EN" "http://www.w3.org/Graphics/SVG/1.1/DTD/svg11.dtd">
<svg xmlns="http://www.w3.org/2000/svg" version="1.1" width="601px" height="601px" style="shape-rendering:geometricPrecision; text-rendering:geometricPrecision; image-rendering:optimizeQuality; fill-rule:evenodd; clip-rule:evenodd" xmlns:xlink="http://www.w3.org/1999/xlink">
<g><path style="opacity:1" fill="#fefffe" d="M 255.5,73.5 C 262.508,73.3337 269.508,73.5004 276.5,74C 281.395,74.8987 285.228,77.3987 288,81.5C 288.667,90.5 288.667,99.5 288,108.5C 285.063,115.06 283.563,122.06 283.5,129.5C 293.393,130.299 302.893,132.633 312,136.5C 313.559,138.217 314.392,140.217 314.5,142.5C 318.268,143.137 321.101,145.137 323,148.5C 323.913,157.576 323.58,166.576 322,175.5C 318.273,177.609 316.606,180.942 317,185.5C 316.333,186.167 315.667,186.833 315,187.5C 314.251,192.489 313.585,197.489 313,202.5C 311.549,207.182 309.882,211.849 308,216.5C 309.486,227.652 309.819,238.985 309,250.5C 307.913,253.581 306.08,256.081 303.5,258C 304.284,265.464 304.784,272.964 305,280.5C 306.667,283.5 309,285.833 312,287.5C 313.737,291.649 314.737,295.983 315,300.5C 316.895,302.777 318.062,305.444 318.5,308.5C 320.94,310.109 322.107,312.443 322,315.5C 330.275,320.456 337.942,326.122 345,332.5C 345.483,333.448 345.649,334.448 345.5,335.5C 351.484,336.332 357.484,336.499 363.5,336C 372.214,333.594 380.881,331.094 389.5,328.5C 389.33,327.178 389.663,326.011 390.5,325C 394.541,324.827 398.541,324.327 402.5,323.5C 403.381,322.029 404.714,321.196 406.5,321C 412.659,321.361 418.326,320.028 423.5,317C 431.5,316.333 439.5,316.333 447.5,317C 448,317.5 448.5,318 449,318.5C 475.528,312.925 502.361,309.925 529.5,309.5C 530.101,316.289 529.434,322.789 527.5,329C 505.5,335.667 483.5,342.333 461.5,349C 456.167,349.333 450.833,349.667 445.5,350C 442.362,351.244 439.028,351.911 435.5,352C 432.538,356.052 428.538,357.552 423.5,356.5C 423.607,358.903 422.607,360.736 420.5,362C 406.293,364.385 392.293,367.718 378.5,372C 375.212,373.358 373.712,375.858 374,379.5C 364.579,385.732 354.079,388.232 342.5,387C 334.859,389.641 327.025,391.808 319,393.5C 317.831,394.009 316.998,394.842 316.5,396C 317.49,399.759 318.323,403.593 319,407.5C 322.333,409.5 325,412.167 327,415.5C 327.423,429.502 327.256,443.502 326.5,457.5C 326.335,465.585 327.002,473.585 328.5,481.5C 334.765,483.983 340.431,487.483 345.5,492C 349.167,492.333 352.833,492.667 356.5,493C 358.09,494.046 359.59,495.213 361,496.5C 361.667,504.5 361.667,512.5 361,520.5C 358.108,523.057 354.941,525.224 351.5,527C 330.515,528.378 309.515,528.712 288.5,528C 285.686,526.169 282.852,524.335 280,522.5C 278.893,518.112 278.393,513.612 278.5,509C 278.871,502.815 279.037,496.648 279,490.5C 276.762,483.103 273.762,476.103 270,469.5C 268.969,460.212 269.469,451.045 271.5,442C 270.514,438.346 268.681,435.18 266,432.5C 263.63,434.371 261.13,436.038 258.5,437.5C 256.684,443.183 253.517,447.85 249,451.5C 247.57,455.249 245.736,458.749 243.5,462C 239.673,463.79 235.673,464.956 231.5,465.5C 231.471,468.656 229.804,470.322 226.5,470.5C 224.686,475.484 221.852,479.818 218,483.5C 214.037,489.094 210.87,495.094 208.5,501.5C 210.326,507.471 212.826,513.138 216,518.5C 216.813,526.08 216.647,533.58 215.5,541C 200.927,542.633 186.26,542.966 171.5,542C 165.333,535.167 159.167,528.333 153,521.5C 151.219,518.726 149.885,515.726 149,512.5C 148.333,504.833 148.333,497.167 149,489.5C 150.358,486.619 151.858,483.786 153.5,481C 155.764,480.764 157.931,480.264 160,479.5C 160.011,476.341 160.845,473.507 162.5,471C 161.352,462.912 161.185,454.746 162,446.5C 166.016,442.652 169.849,438.652 173.5,434.5C 172,431.5 170.5,428.5 169,425.5C 168.168,416.482 168.335,407.482 169.5,398.5C 172.715,396.726 176.048,395.226 179.5,394C 179,393.5 178.5,393 178,392.5C 176.632,375.987 177.632,359.654 181,343.5C 182.746,340.25 185.246,337.917 188.5,336.5C 186.294,334.915 183.961,333.415 181.5,332C 180.181,329.715 178.681,327.548 177,325.5C 176.259,306.165 175.926,286.832 176,267.5C 177.427,262.878 179.427,258.545 182,254.5C 182.333,248.5 182.667,242.5 183,236.5C 184.776,233.059 186.943,229.892 189.5,227C 193.06,225.763 196.727,225.263 200.5,225.5C 200.335,222.482 200.502,219.482 201,216.5C 201.833,215.667 202.667,214.833 203.5,214C 211.171,213.388 218.838,212.722 226.5,212C 227.624,211.751 228.624,211.251 229.5,210.5C 227.859,207.442 227.026,204.108 227,200.5C 226.333,191.833 226.333,183.167 227,174.5C 233.84,167.488 238.006,159.154 239.5,149.5C 238.325,135.137 236.825,120.804 235,106.5C 234.095,98.0887 234.428,89.7554 236,81.5C 241.809,76.9575 248.309,74.2909 255.5,73.5 Z"/></g>
<g><path style="opacity:1" fill="#000000" d="M 260.5,78.5 C 269.577,77.134 277.077,79.8007 283,86.5C 284.375,94.9577 283.375,102.958 280,110.5C 279.256,118.525 278.422,126.525 277.5,134.5C 287.766,135.09 297.6,137.424 307,141.5C 308.559,143.217 309.392,145.217 309.5,147.5C 313.268,148.137 316.101,150.137 318,153.5C 318.851,159.253 318.517,164.92 317,170.5C 313.273,172.609 311.606,175.942 312,180.5C 311.333,181.167 310.667,181.833 310,182.5C 309.251,187.489 308.585,192.489 308,197.5C 306.549,202.182 304.882,206.849 303,211.5C 302.747,216.039 302.247,220.539 301.5,225C 301.93,226.434 302.764,227.601 304,228.5C 306.696,239.294 304.196,248.461 296.5,256C 294.5,256.333 292.5,256.667 290.5,257C 292.416,260.585 295.249,263.085 299,264.5C 299.807,270.416 299.641,276.25 298.5,282C 299.556,287.008 302.389,290.508 307,292.5C 308.737,296.649 309.737,300.983 310,305.5C 311.895,307.777 313.062,310.444 313.5,313.5C 315.94,315.109 317.107,317.443 317,320.5C 325.275,325.456 332.942,331.122 340,337.5C 340.483,338.448 340.649,339.448 340.5,340.5C 348.817,341.532 357.15,342.032 365.5,342C 375.215,339.261 384.881,336.428 394.5,333.5C 394.33,332.178 394.663,331.011 395.5,330C 399.541,329.827 403.541,329.327 407.5,328.5C 408.381,327.029 409.714,326.196 411.5,326C 417.659,326.361 423.326,325.028 428.5,322C 434.904,320.712 440.904,321.546 446.5,324.5C 472.303,319.576 498.303,316.242 524.5,314.5C 525.011,318.03 524.344,321.196 522.5,324C 500.5,330.667 478.5,337.333 456.5,344C 452.11,344.772 447.777,344.606 443.5,343.5C 439.596,345.999 435.263,347.166 430.5,347C 427.538,351.052 423.538,352.552 418.5,351.5C 418.607,353.903 417.607,355.736 415.5,357C 401.293,359.385 387.293,362.718 373.5,367C 370.212,368.358 368.712,370.858 369,374.5C 359.579,380.732 349.079,383.232 337.5,382C 331.478,384.62 325.145,386.287 318.5,387C 314.475,388.855 310.475,390.522 306.5,392C 307.165,395.827 308.998,398.994 312,401.5C 312.559,405.186 313.226,408.853 314,412.5C 317.333,414.5 320,417.167 322,420.5C 322.725,429.407 322.225,438.24 320.5,447C 320.979,460.21 321.979,473.376 323.5,486.5C 329.765,488.983 335.431,492.483 340.5,497C 354.703,495.538 359.869,501.705 356,515.5C 350.929,521.2 344.595,523.533 337,522.5C 322.508,523.48 308.008,523.647 293.5,523C 290.686,521.169 287.852,519.335 285,517.5C 283.037,510.49 283.204,503.49 285.5,496.5C 284.918,492.845 284.418,489.178 284,485.5C 281.762,478.103 278.762,471.103 275,464.5C 273.769,457.114 274.769,450.114 278,443.5C 278.667,441.5 278.667,439.5 278,437.5C 273.301,430.81 268.634,424.143 264,417.5C 262.143,420.937 260.809,424.604 260,428.5C 257.96,430.041 255.793,431.374 253.5,432.5C 251.684,438.183 248.517,442.85 244,446.5C 242.853,449.618 241.52,452.618 240,455.5C 235.995,458.416 231.495,460.083 226.5,460.5C 226.471,463.656 224.804,465.322 221.5,465.5C 219.686,470.484 216.852,474.818 213,478.5C 209.145,484.21 205.812,490.21 203,496.5C 201.421,498.041 199.587,499.208 197.5,500C 198.931,500.465 200.097,501.299 201,502.5C 204.571,508.309 207.571,514.309 210,520.5C 211.696,525.661 211.863,530.827 210.5,536C 199.264,537.622 187.931,537.955 176.5,537C 170.333,530.167 164.167,523.333 158,516.5C 151.846,506.196 152.013,496.03 158.5,486C 160.764,485.764 162.931,485.264 165,484.5C 165.333,482.167 165.667,479.833 166,477.5C 166.925,476.953 167.758,476.287 168.5,475.5C 169.362,472.401 170.695,469.567 172.5,467C 170.567,466.749 168.734,466.249 167,465.5C 166.333,460.833 166.333,456.167 167,451.5C 172.213,446.623 177.046,441.456 181.5,436C 179.136,430.772 176.636,425.606 174,420.5C 173.17,414.804 173.337,409.137 174.5,403.5C 181.177,400.498 187.843,397.498 194.5,394.5C 190.583,392.292 186.75,389.959 183,387.5C 181.757,374.309 182.757,361.309 186,348.5C 187.668,344.835 190.501,342.668 194.5,342C 193.703,338.255 193.203,334.421 193,330.5C 187.733,328.899 184.067,325.565 182,320.5C 181.444,304.49 181.111,288.49 181,272.5C 182.427,267.878 184.427,263.545 187,259.5C 187.333,253.5 187.667,247.5 188,241.5C 189.776,238.059 191.943,234.892 194.5,232C 198.06,230.763 201.727,230.263 205.5,230.5C 205.335,227.482 205.502,224.482 206,221.5C 206.833,220.667 207.667,219.833 208.5,219C 217.525,218.316 226.525,217.483 235.5,216.5C 235.249,209.281 234.083,202.281 232,195.5C 231.333,190.167 231.333,184.833 232,179.5C 239.001,172.165 243.334,163.499 245,153.5C 245.465,152.069 246.299,150.903 247.5,150C 245.646,147.457 244.479,144.624 244,141.5C 242.055,124.215 240.722,106.882 240,89.5C 240.333,88.5 240.667,87.5 241,86.5C 246.809,81.9575 253.309,79.2909 260.5,78.5 Z"/></g>
<g><path style="opacity:1" fill="#db181f" d="M 265.5,84.5 C 267.767,85.4231 270.1,86.2564 272.5,87C 273.5,89.3333 275.167,91 277.5,92C 276.233,93.7959 276.233,95.6293 277.5,97.5C 276.149,100.095 274.983,102.762 274,105.5C 273.043,116.526 271.876,127.526 270.5,138.5C 265.858,141.443 261.024,144.109 256,146.5C 252.475,144.122 250.475,140.789 250,136.5C 248.78,122.807 247.28,109.14 245.5,95.5C 246.859,92.1406 249.192,89.6406 252.5,88C 256.919,86.6476 261.252,85.481 265.5,84.5 Z"/></g>
<g><path style="opacity:1" fill="#ec1c23" d="M 269.5,141.5 C 276.091,141.231 282.425,142.397 288.5,145C 284.307,149.737 279.307,153.403 273.5,156C 267.851,158.646 262.017,160.813 256,162.5C 253.717,162.051 252.217,160.717 251.5,158.5C 253.602,155.295 255.435,151.962 257,148.5C 261.342,146.252 265.508,143.918 269.5,141.5 Z"/></g>
<g><path style="opacity:1" fill="#343434" d="M 270.5,143.5 C 273.741,141.861 276.408,142.695 278.5,146C 277.627,147.045 276.627,147.878 275.5,148.5C 274.402,147.603 274.402,146.77 275.5,146C 274.667,145.167 273.833,144.333 273,143.5C 272.23,144.598 271.397,144.598 270.5,143.5 Z"/></g>
<g><path style="opacity:1" fill="#a5a5a5" d="M 270.5,143.5 C 271.397,144.598 272.23,144.598 273,143.5C 273.833,144.333 274.667,145.167 275.5,146C 274.402,146.77 274.402,147.603 275.5,148.5C 274.54,149.515 273.373,149.515 272,148.5C 269.296,152.1 265.796,153.934 261.5,154C 260.446,152.612 260.28,151.112 261,149.5C 264.186,147.429 267.352,145.429 270.5,143.5 Z"/></g>
<g><path style="opacity:1" fill="#fefffe" d="M 282.5,154.5 C 287.244,154.038 288.244,155.538 285.5,159C 284.552,159.483 283.552,159.649 282.5,159.5C 282.5,157.833 282.5,156.167 282.5,154.5 Z"/></g>
<g><path style="opacity:1" fill="#fefffe" d="M 278.5,155.5 C 279.5,155.5 280.5,155.5 281.5,155.5C 282.862,160.787 280.862,163.454 275.5,163.5C 275.34,161.801 275.506,160.134 276,158.5C 277.417,157.922 278.25,156.922 278.5,155.5 Z"/></g>
<g><path style="opacity:1" fill="#fefffe" d="M 288.5,155.5 C 292.355,156.673 296.188,158.006 300,159.5C 301.824,162.329 303.991,164.829 306.5,167C 305.874,167.75 305.374,168.584 305,169.5C 303.954,167.91 302.787,166.41 301.5,165C 297.381,162.274 293.048,160.107 288.5,158.5C 288.5,157.5 288.5,156.5 288.5,155.5 Z"/></g>
<g><path style="opacity:1" fill="#fefffe" d="M 308.5,155.5 C 310.411,155.574 311.578,156.574 312,158.5C 312.484,160.913 312.15,163.246 311,165.5C 309.818,163.656 308.651,161.823 307.5,160C 308.148,158.56 308.481,157.06 308.5,155.5 Z"/></g>
<g><path style="opacity:1" fill="#fefffe" d="M 272.5,159.5 C 275.646,164.014 274.646,167.681 269.5,170.5C 267.522,165.82 268.522,162.153 272.5,159.5 Z"/></g>
<g><path style="opacity:1" fill="#fefffe" d="M 266.5,162.5 C 267.641,165.64 267.808,168.973 267,172.5C 266,173.167 265,173.833 264,174.5C 262.443,171.706 262.11,168.706 263,165.5C 264.518,164.837 265.685,163.837 266.5,162.5 Z"/></g>
<g><path style="opacity:1" fill="#fefffe" d="M 260.5,165.5 C 261.638,168.304 261.805,171.304 261,174.5C 259.89,176.037 258.39,176.703 256.5,176.5C 255.658,171.949 256.992,168.283 260.5,165.5 Z"/></g>
<g><path style="opacity:1" fill="#fefffe" d="M 253.5,170.5 C 254.748,171.334 255.415,172.667 255.5,174.5C 255.918,177.271 254.918,179.271 252.5,180.5C 251.057,176.877 251.391,173.544 253.5,170.5 Z"/></g>
<g><path style="opacity:1" fill="#fefffe" d="M 248.5,172.5 C 249.765,173.514 250.431,175.014 250.5,177C 251.03,181.812 249.03,184.646 244.5,185.5C 243.664,180.406 244.998,176.073 248.5,172.5 Z"/></g>
<g><path style="opacity:1" fill="#fefffe" d="M 242.5,178.5 C 243.629,180.628 243.796,182.961 243,185.5C 241.333,187.167 239.667,188.833 238,190.5C 236.56,189.07 236.226,187.403 237,185.5C 238.666,183.004 240.5,180.671 242.5,178.5 Z"/></g>
<g><path style="opacity:1" fill="#f5f5f5" d="M 288.5,222.5 C 288.5,222.833 288.5,223.167 288.5,223.5C 287.778,223.082 287.278,222.416 287,221.5C 286.667,222.833 286.333,224.167 286,225.5C 285.683,223.699 285.016,223.366 284,224.5C 283.571,222.331 284.071,220.331 285.5,218.5C 284.277,217.386 282.944,217.219 281.5,218C 282.76,219.814 282.76,221.647 281.5,223.5C 279.866,223.032 278.7,222.032 278,220.5C 277.667,220.833 277.333,221.167 277,221.5C 276.51,220.207 276.343,218.873 276.5,217.5C 280.97,217.97 281.47,216.97 278,214.5C 276.621,209.785 277.621,205.785 281,202.5C 281.926,194.759 283.259,187.093 285,179.5C 285.654,180.696 286.154,180.696 286.5,179.5C 284.49,178.935 282.824,177.935 281.5,176.5C 284.174,170.799 286.841,165.132 289.5,159.5C 290.086,159.709 290.586,160.043 291,160.5C 291.23,166.94 292.063,173.273 293.5,179.5C 292.5,179.5 291.5,179.5 290.5,179.5C 290.876,185.754 290.876,191.92 290.5,198C 290.234,201.447 291.734,203.614 295,204.5C 297.511,209.124 296.344,212.458 291.5,214.5C 289.517,216.81 288.517,219.477 288.5,222.5 Z"/></g>
<g><path style="opacity:1" fill="#000000" d="M 286.5,181.5 C 287.268,182.263 287.768,183.263 288,184.5C 288.19,190.416 288.69,196.249 289.5,202C 289,202.5 288.5,203 288,203.5C 286.89,201.963 285.39,201.297 283.5,201.5C 284.716,194.868 285.716,188.201 286.5,181.5 Z"/></g>
<g><path style="opacity:1" fill="#fec90d" d="M 288.5,223.5 C 288.5,223.167 288.5,222.833 288.5,222.5C 290.532,221.439 291.866,219.772 292.5,217.5C 293.748,216.96 294.915,216.293 296,215.5C 296.15,218.421 295.65,221.254 294.5,224C 292.402,224.678 290.402,224.511 288.5,223.5 Z"/></g>
<g><path style="opacity:1" fill="#fefffe" d="M 236.5,222.5 C 237.5,222.5 238.5,222.5 239.5,222.5C 239.5,225.167 239.5,227.833 239.5,230.5C 237.738,230.357 236.071,230.691 234.5,231.5C 232.922,227.958 233.588,224.958 236.5,222.5 Z"/></g>
<g><path style="opacity:1" fill="#fefffe" d="M 225.5,223.5 C 230.119,224.127 232.119,226.794 231.5,231.5C 222.164,234.048 220.164,231.381 225.5,223.5 Z"/></g>
<g><path style="opacity:1" fill="#fefffe" d="M 213.5,224.5 C 219.292,224.779 221.292,227.612 219.5,233C 216.832,233.567 214.166,234.067 211.5,234.5C 211.034,230.838 211.701,227.505 213.5,224.5 Z"/></g>
<g><path style="opacity:1" fill="#fefffe" d="M 292.5,228.5 C 292.843,226.775 293.843,226.275 295.5,227C 294.756,228.039 293.756,228.539 292.5,228.5 Z"/></g>
<g><path style="opacity:1" fill="#7a4d34" d="M 286.5,227.5 C 288.615,232.052 289.282,236.718 288.5,241.5C 286.958,242.301 285.292,242.634 283.5,242.5C 283.81,239.287 283.477,236.287 282.5,233.5C 282.87,230.733 284.204,228.733 286.5,227.5 Z"/></g>
<g><path style="opacity:1" fill="#faa581" d="M 292.5,228.5 C 292.082,229.222 291.416,229.722 290.5,230C 292.701,230.825 294.534,230.325 296,228.5C 297.685,230.017 299.185,231.684 300.5,233.5C 298.647,234.76 296.814,234.76 295,233.5C 294.544,234.744 295.044,235.577 296.5,236C 295.748,236.671 295.414,237.504 295.5,238.5C 293.707,240.426 292.707,242.759 292.5,245.5C 291.957,245.56 291.624,245.893 291.5,246.5C 292.167,247.5 292.833,248.5 293.5,249.5C 292.975,250.192 292.308,250.692 291.5,251C 287.052,250.865 283.385,252.365 280.5,255.5C 278.604,254.725 276.937,253.725 275.5,252.5C 277.667,250.17 279.334,247.503 280.5,244.5C 281.167,244.5 281.5,244.167 281.5,243.5C 284.388,244.01 286.721,243.344 288.5,241.5C 289.282,236.718 288.615,232.052 286.5,227.5C 286.783,226.711 287.283,226.044 288,225.5C 289.615,226.386 291.115,227.386 292.5,228.5 Z"/></g>
<g><path style="opacity:1" fill="#6380a7" d="M 238.5,254.5 C 238.666,249.821 238.499,245.155 238,240.5C 236.906,238.922 236.072,237.255 235.5,235.5C 236.048,232.916 237.715,231.916 240.5,232.5C 240.34,234.199 240.506,235.866 241,237.5C 242.585,238.376 243.585,239.709 244,241.5C 244.333,244.167 244.667,246.833 245,249.5C 245.75,250.126 246.584,250.626 247.5,251C 246.577,253.041 246.244,255.208 246.5,257.5C 243.833,257.833 241.167,258.167 238.5,258.5C 238.5,257.167 238.5,255.833 238.5,254.5 Z"/></g>
<g><path style="opacity:1" fill="#5b7699" d="M 230.5,234.5 C 232.588,236.336 233.921,238.669 234.5,241.5C 235.262,247.785 235.262,254.119 234.5,260.5C 231.376,260.943 229.043,262.61 227.5,265.5C 226.675,266.386 225.675,266.719 224.5,266.5C 223.475,266.103 223.308,265.437 224,264.5C 227.946,261.749 229.446,257.916 228.5,253C 228.333,250.5 228.167,248 228,245.5C 226.214,242.264 224.714,238.93 223.5,235.5C 225.218,234.776 227.052,234.109 229,233.5C 229.383,234.056 229.883,234.389 230.5,234.5 Z"/></g>
<g><path style="opacity:1" fill="#fefffe" d="M 230.5,234.5 C 232.357,233.235 234.024,233.568 235.5,235.5C 236.072,237.255 236.906,238.922 238,240.5C 238.499,245.155 238.666,249.821 238.5,254.5C 237.819,256.158 236.985,257.825 236,259.5C 235.641,255.498 235.808,251.498 236.5,247.5C 236.333,245.833 236.167,244.167 236,242.5C 235.617,241.944 235.117,241.611 234.5,241.5C 233.921,238.669 232.588,236.336 230.5,234.5 Z"/></g>
<g><path style="opacity:1" fill="#f9a884" d="M 282.5,233.5 C 282.808,235.924 282.474,238.257 281.5,240.5C 280.817,240.137 280.15,239.804 279.5,239.5C 279.654,237.03 280.654,235.03 282.5,233.5 Z"/></g>
<g><path style="opacity:1" fill="#000000" d="M 282.5,233.5 C 283.477,236.287 283.81,239.287 283.5,242.5C 285.292,242.634 286.958,242.301 288.5,241.5C 286.721,243.344 284.388,244.01 281.5,243.5C 281.611,242.883 281.944,242.383 282.5,242C 280.881,241.764 279.881,240.931 279.5,239.5C 280.15,239.804 280.817,240.137 281.5,240.5C 282.474,238.257 282.808,235.924 282.5,233.5 Z"/></g>
<g><path style="opacity:1" fill="#fefffe" d="M 220.5,235.5 C 221.348,234.375 222.348,234.375 223.5,235.5C 224.714,238.93 226.214,242.264 228,245.5C 228.167,248 228.333,250.5 228.5,253C 229.446,257.916 227.946,261.749 224,264.5C 223.308,265.437 223.475,266.103 224.5,266.5C 223.167,267.833 221.833,267.833 220.5,266.5C 222.099,264.396 223.932,262.396 226,260.5C 228.086,251.109 226.252,242.776 220.5,235.5 Z"/></g>
<g><path style="opacity:1" fill="#465972" d="M 220.5,235.5 C 226.252,242.776 228.086,251.109 226,260.5C 223.932,262.396 222.099,264.396 220.5,266.5C 217.238,267.752 213.905,268.752 210.5,269.5C 208.887,268.308 207.22,267.308 205.5,266.5C 210.085,266.526 214.419,265.526 218.5,263.5C 220.371,263.141 221.871,262.141 223,260.5C 223.817,254.984 223.651,249.65 222.5,244.5C 221.091,242.028 219.424,239.695 217.5,237.5C 217.389,236.883 217.056,236.383 216.5,236C 217.793,235.51 219.127,235.343 220.5,235.5 Z"/></g>
<g><path style="opacity:1" fill="#6f90bc" d="M 217.5,237.5 C 219.424,239.695 221.091,242.028 222.5,244.5C 222.666,249.511 222.499,254.511 222,259.5C 220.624,260.705 219.458,262.038 218.5,263.5C 214.419,265.526 210.085,266.526 205.5,266.5C 203.326,266.25 201.659,265.25 200.5,263.5C 194.117,258.36 191.95,251.693 194,243.5C 195.458,241.04 197.291,238.873 199.5,237C 205.551,236.254 211.551,236.421 217.5,237.5 Z"/></g>
<g><path style="opacity:1" fill="#7e5036" d="M 292.5,245.5 C 292.707,242.759 293.707,240.426 295.5,238.5C 299.071,237.243 300.238,238.576 299,242.5C 297.792,246.152 295.625,247.152 292.5,245.5 Z"/></g>
<g><path style="opacity:1" fill="#f9a884" d="M 279.5,239.5 C 279.881,240.931 280.881,241.764 282.5,242C 281.944,242.383 281.611,242.883 281.5,243.5C 280.041,243.567 278.708,243.234 277.5,242.5C 277.343,241.127 277.51,239.793 278,238.5C 278.383,239.056 278.883,239.389 279.5,239.5 Z"/></g>
<g><path style="opacity:1" fill="#000000" d="M 201.5,253.5 C 205.084,258.047 209.75,259.547 215.5,258C 217.973,254.654 218.14,251.154 216,247.5C 213.795,244.96 211.295,242.793 208.5,241C 199.333,239.5 195.5,243.333 197,252.5C 198.305,255.961 200.471,258.628 203.5,260.5C 199.618,259.789 197.118,257.456 196,253.5C 193.833,242.333 198.333,237.833 209.5,240C 217.806,244.257 220.139,250.591 216.5,259C 211.4,260.195 206.733,259.362 202.5,256.5C 201.614,255.675 201.281,254.675 201.5,253.5 Z"/></g>
<g><path style="opacity:1" fill="#f7763e" d="M 277.5,242.5 C 277.821,244.048 278.821,244.715 280.5,244.5C 279.334,247.503 277.667,250.17 275.5,252.5C 273.287,252.152 271.287,251.319 269.5,250C 271.667,247.167 273.833,244.333 276,241.5C 276.383,242.056 276.883,242.389 277.5,242.5 Z"/></g>
<g><path style="opacity:1" fill="#000000" d="M 277.5,242.5 C 278.708,243.234 280.041,243.567 281.5,243.5C 281.5,244.167 281.167,244.5 280.5,244.5C 278.821,244.715 277.821,244.048 277.5,242.5 Z"/></g>
<g><path style="opacity:1" fill="#000000" d="M 201.5,253.5 C 197.404,246.473 199.404,243.306 207.5,244C 210.503,246.609 212.003,249.775 212,253.5C 209.124,254.389 206.624,253.556 204.5,251C 206.678,250.835 208.511,251.668 210,253.5C 210.692,252.975 211.192,252.308 211.5,251.5C 209.775,248.684 207.608,246.35 205,244.5C 203.527,244.903 202.194,245.57 201,246.5C 200.982,248.797 201.149,251.131 201.5,253.5 Z"/></g>
<g><path style="opacity:1" fill="#000000" d="M 222.5,244.5 C 223.651,249.65 223.817,254.984 223,260.5C 221.871,262.141 220.371,263.141 218.5,263.5C 219.458,262.038 220.624,260.705 222,259.5C 222.499,254.511 222.666,249.511 222.5,244.5 Z"/></g>
<g><path style="opacity:1" fill="#3f47cc" d="M 249.5,250.5 C 260.753,249.687 271.086,252.354 280.5,258.5C 278.914,260.173 278.247,262.173 278.5,264.5C 270.333,264.747 262.999,262.58 256.5,258C 253.937,256.921 251.271,256.421 248.5,256.5C 248.517,254.435 248.85,252.435 249.5,250.5 Z"/></g>
<g><path style="opacity:1" fill="#a50d13" d="M 247.5,259.5 C 250.068,258.357 252.735,258.524 255.5,260C 252.739,260.722 250.073,260.555 247.5,259.5 Z"/></g>
<g><path style="opacity:1" fill="#000000" d="M 203.5,260.5 C 206.899,261.016 210.232,261.85 213.5,263C 209.79,263.406 206.456,262.572 203.5,260.5 Z"/></g>
<g><path style="opacity:1" fill="#fefffe" d="M 237.5,260.5 C 243.639,260.357 249.639,261.19 255.5,263C 250.834,262.93 246.168,262.43 241.5,261.5C 239.476,262.021 237.476,262.188 235.5,262C 236.416,261.722 237.082,261.222 237.5,260.5 Z"/></g>
<g><path style="opacity:1" fill="#2c33a3" d="M 273.5,266.5 C 269.894,266.211 266.394,266.544 263,267.5C 261.5,266 260,264.5 258.5,263C 263.38,264.571 268.38,265.738 273.5,266.5 Z"/></g>
<g><path style="opacity:1" fill="#e5e6e5" d="M 200.5,263.5 C 201.659,265.25 203.326,266.25 205.5,266.5C 207.22,267.308 208.887,268.308 210.5,269.5C 210.932,270.71 211.599,271.71 212.5,272.5C 212.5,274.5 212.5,276.5 212.5,278.5C 211.5,278.833 210.833,279.5 210.5,280.5C 209.209,280.263 208.209,280.596 207.5,281.5C 202.094,282.351 196.761,282.351 191.5,281.5C 190.791,280.596 189.791,280.263 188.5,280.5C 188.667,292.171 188.5,303.838 188,315.5C 187.814,303.121 187.314,290.788 186.5,278.5C 187.519,276.396 188.519,274.396 189.5,272.5C 189.899,265.43 193.566,262.43 200.5,263.5 Z"/></g>
<g><path style="opacity:1" fill="#ec1c23" d="M 239.5,263.5 C 246.785,262.426 252.785,264.592 257.5,270C 248.197,273.77 239.197,273.104 230.5,268C 232.974,265.276 235.974,263.776 239.5,263.5 Z"/></g>
<g><path style="opacity:1" fill="#e1e1e1" d="M 286.5,266.5 C 287.449,268.777 288.782,270.777 290.5,272.5C 290.737,273.791 290.404,274.791 289.5,275.5C 289.672,274.508 289.338,273.842 288.5,273.5C 286.051,268.366 284.884,269.032 285,275.5C 282.758,273.13 281.258,270.464 280.5,267.5C 280.378,258.675 282.378,258.341 286.5,266.5 Z"/></g>
<g><path style="opacity:1" fill="#a50d13" d="M 243.5,264.5 C 253.502,265.665 253.835,267.665 244.5,270.5C 242.289,269.877 240.289,268.877 238.5,267.5C 240.36,266.675 242.026,265.675 243.5,264.5 Z"/></g>
<g><path style="opacity:1" fill="#fefffe" d="M 256.5,264.5 C 265.107,269.873 267.94,277.54 265,287.5C 261.856,299.126 255.69,308.793 246.5,316.5C 245.692,316.192 245.025,315.692 244.5,315C 251.707,306.764 257.54,297.598 262,287.5C 262.667,282.5 262.667,277.5 262,272.5C 259.9,269.949 258.067,267.283 256.5,264.5 Z"/></g>
<g><path style="opacity:1" fill="#8a1312" d="M 291.5,277.5 C 291.784,275.585 291.451,273.919 290.5,272.5C 288.782,270.777 287.449,268.777 286.5,266.5C 286.56,265.957 286.893,265.624 287.5,265.5C 289.193,267.027 291.027,268.36 293,269.5C 293.667,271.833 293.667,274.167 293,276.5C 292.617,277.056 292.117,277.389 291.5,277.5 Z"/></g>
<g><path style="opacity:1" fill="#2c33a3" d="M 273.5,266.5 C 275.95,266.298 278.283,266.631 280.5,267.5C 280.719,268.675 280.386,269.675 279.5,270.5C 277.089,269.639 275.089,268.306 273.5,266.5 Z"/></g>
<g><path style="opacity:1" fill="#000000" d="M 189.5,272.5 C 190.601,271.152 191.601,269.652 192.5,268C 197.697,267.133 202.697,267.8 207.5,270C 210.257,271.819 211.257,274.152 210.5,277C 205.467,277.634 200.633,278.801 196,280.5C 190.362,280.693 188.196,278.027 189.5,272.5 Z"/></g>
<g><path style="opacity:1" fill="#fdfdfd" d="M 264.5,269.5 C 266.966,268.366 269.633,268.199 272.5,269C 275.339,270.92 278.339,272.587 281.5,274C 284,277.167 286.5,280.333 289,283.5C 290.59,285.65 291.257,287.983 291,290.5C 287.246,284.742 282.746,279.575 277.5,275C 274.247,273.964 270.914,273.297 267.5,273C 266.837,271.482 265.837,270.315 264.5,269.5 Z"/></g>
<g><path style="opacity:1" fill="#870014" d="M 193.5,269.5 C 198.034,269.267 202.368,270.1 206.5,272C 207.357,272.689 208.023,273.522 208.5,274.5C 205.016,275.367 201.683,276.534 198.5,278C 195.376,279.087 193.043,278.253 191.5,275.5C 192.178,273.484 192.844,271.484 193.5,269.5 Z"/></g>
<g><path style="opacity:1" fill="#840114" d="M 212.5,278.5 C 212.5,276.5 212.5,274.5 212.5,272.5C 213.589,270.883 215.256,270.05 217.5,270C 224.973,268.088 226.473,269.588 222,274.5C 220.977,278.317 221.477,281.817 223.5,285C 220.333,290.167 217.167,295.333 214,300.5C 213.799,293.088 213.299,285.754 212.5,278.5 Z"/></g>
<g><path style="opacity:1" fill="#d7171f" d="M 228.5,269.5 C 231.752,271.866 235.419,273.366 239.5,274C 246.286,274.543 252.952,274.21 259.5,273C 260.629,277.079 260.796,281.245 260,285.5C 257.981,287.682 255.481,288.682 252.5,288.5C 242.754,287.218 233.088,285.218 223.5,282.5C 223.337,280.143 223.503,277.81 224,275.5C 225.332,273.34 226.832,271.34 228.5,269.5 Z"/></g>
<g><path style="opacity:1" fill="#000000" d="M 290.5,272.5 C 291.451,273.919 291.784,275.585 291.5,277.5C 290.5,277.167 289.833,276.5 289.5,275.5C 290.404,274.791 290.737,273.791 290.5,272.5 Z"/></g>
<g><path style="opacity:1" fill="#3c42bb" d="M 288.5,273.5 C 289.338,273.842 289.672,274.508 289.5,275.5C 289.833,276.5 290.5,277.167 291.5,277.5C 291.75,280.214 291.917,282.881 292,285.5C 290.92,283.004 289.586,280.67 288,278.5C 287.22,276.613 287.387,274.946 288.5,273.5 Z"/></g>
<g><path style="opacity:1" fill="#2c33a3" d="M 267.5,275.5 C 268.88,275.962 269.547,276.962 269.5,278.5C 268.631,284.49 267.797,290.49 267,296.5C 265.311,299.891 263.144,302.891 260.5,305.5C 260.167,305.333 259.833,305.167 259.5,305C 265.891,296.23 268.557,286.397 267.5,275.5 Z"/></g>
<g><path style="opacity:1" fill="#2c33a3" d="M 271.5,275.5 C 273.465,275.948 273.798,276.948 272.5,278.5C 271.614,277.675 271.281,276.675 271.5,275.5 Z"/></g>
<g><path style="opacity:1" fill="#fec90d" d="M 274.5,278.5 C 277.686,278.974 278.186,280.307 276,282.5C 275.25,281.874 274.416,281.374 273.5,281C 274.252,280.329 274.586,279.496 274.5,278.5 Z"/></g>
<g><path style="opacity:1" fill="#2c33a3" d="M 278.5,279.5 C 280.806,281.384 280.639,283.384 278,285.5C 277.5,285 277,284.5 276.5,284C 278.037,282.89 278.703,281.39 278.5,279.5 Z"/></g>
<g><path style="opacity:1" fill="#000000" d="M 207.5,281.5 C 208.209,280.596 209.209,280.263 210.5,280.5C 209.857,290.265 209.19,299.932 208.5,309.5C 208.827,299.985 208.494,290.652 207.5,281.5 Z"/></g>
<g><path style="opacity:1" fill="#e5e6e5" d="M 210.5,280.5 C 211.658,289.657 211.824,298.991 211,308.5C 210,310.5 209,312.5 208,314.5C 207.517,313.552 207.351,312.552 207.5,311.5C 208.338,311.158 208.672,310.492 208.5,309.5C 209.19,299.932 209.857,290.265 210.5,280.5 Z"/></g>
<g><path style="opacity:1" fill="#fefffe" d="M 271.5,280.5 C 272.899,282.942 274.566,285.276 276.5,287.5C 274.333,290.5 272.167,293.5 270,296.5C 269.806,291.083 270.306,285.749 271.5,280.5 Z"/></g>
<g><path style="opacity:1" fill="#810314" d="M 191.5,281.5 C 196.761,282.351 202.094,282.351 207.5,281.5C 208.494,290.652 208.827,299.985 208.5,309.5C 208.672,310.492 208.338,311.158 207.5,311.5C 206.842,313.639 205.842,315.639 204.5,317.5C 203.48,319.352 201.98,320.685 200,321.5C 196.849,320.53 194.016,319.197 191.5,317.5C 191.217,316.711 190.717,316.044 190,315.5C 189.833,309.833 189.667,304.167 189.5,298.5C 189.504,292.458 190.171,286.792 191.5,281.5 Z"/></g>
<g><path style="opacity:1" fill="#2c34a3" d="M 230.5,331.5 C 227.525,331.307 225.025,332.307 223,334.5C 221.989,333.663 220.822,333.33 219.5,333.5C 219.34,331.801 219.506,330.134 220,328.5C 222.938,323.387 226.105,318.387 229.5,313.5C 233.833,310.667 238.167,307.833 242.5,305C 245.103,302.571 247.436,300.071 249.5,297.5C 249.125,295.541 248.459,293.707 247.5,292C 241.895,291.432 236.562,289.932 231.5,287.5C 229.742,288.128 228.242,289.128 227,290.5C 226.583,289.244 225.75,288.577 224.5,288.5C 224.709,287.078 225.209,285.745 226,284.5C 229.399,285.893 232.899,287.06 236.5,288C 243.915,289.839 251.248,290.672 258.5,290.5C 254.471,299.225 248.971,306.891 242,313.5C 238.698,319.942 234.865,325.942 230.5,331.5 Z"/></g>
<g><path style="opacity:1" fill="#fefffe" d="M 281.5,284.5 C 282.721,285.028 283.887,285.695 285,286.5C 285.667,289.5 285.667,292.5 285,295.5C 267.876,309.623 251.709,324.79 236.5,341C 234.598,342.301 232.598,342.968 230.5,343C 230.167,342.667 229.833,342.333 229.5,342C 243.539,324.955 258.706,308.788 275,293.5C 277.176,290.471 279.343,287.471 281.5,284.5 Z"/></g>
<g><path style="opacity:1" fill="#3e47ca" d="M 230.5,331.5 C 229.034,334.936 227.7,338.436 226.5,342C 228.266,350.565 230.266,359.065 232.5,367.5C 230.955,368.452 229.288,368.785 227.5,368.5C 227.161,360.496 223.494,358.496 216.5,362.5C 214.203,360.706 212.037,358.706 210,356.5C 209.699,353.493 209.865,350.493 210.5,347.5C 213.166,347.067 215.832,346.567 218.5,346C 219.428,345.612 220.095,344.945 220.5,344C 217.958,338.909 214.292,337.742 209.5,340.5C 208.558,340.392 207.725,340.059 207,339.5C 205.275,340.464 203.441,341.131 201.5,341.5C 200.197,338.624 199.697,335.624 200,332.5C 202.031,329.645 204.197,326.978 206.5,324.5C 209.009,326.157 211.175,325.824 213,323.5C 214.427,318.878 216.427,314.545 219,310.5C 219.694,306.446 219.527,302.446 218.5,298.5C 219.998,294.832 221.998,291.498 224.5,288.5C 225.75,288.577 226.583,289.244 227,290.5C 228.242,289.128 229.742,288.128 231.5,287.5C 236.562,289.932 241.895,291.432 247.5,292C 248.459,293.707 249.125,295.541 249.5,297.5C 247.436,300.071 245.103,302.571 242.5,305C 238.167,307.833 233.833,310.667 229.5,313.5C 226.105,318.387 222.938,323.387 220,328.5C 219.506,330.134 219.34,331.801 219.5,333.5C 220.822,333.33 221.989,333.663 223,334.5C 225.025,332.307 227.525,331.307 230.5,331.5 Z"/></g>
<g><path style="opacity:1" fill="#fefffe" d="M 287.5,289.5 C 290.95,294.745 291.45,300.412 289,306.5C 288.367,300.839 287.867,295.172 287.5,289.5 Z"/></g>
<g><path style="opacity:1" fill="#3b44c4" d="M 290.5,310.5 C 291.769,303.987 292.936,297.32 294,290.5C 294.794,293.149 296.294,295.316 298.5,297C 299.448,297.483 300.448,297.649 301.5,297.5C 302.49,304.836 304.324,311.836 307,318.5C 309.368,320.594 311.202,323.094 312.5,326C 317.374,328.607 321.708,331.94 325.5,336C 318.061,338.044 313.727,342.877 312.5,350.5C 308.441,348.979 304.441,347.146 300.5,345C 297.963,342.128 295.13,339.628 292,337.5C 291.035,328.523 290.535,319.523 290.5,310.5 Z"/></g>
<g><path style="opacity:1" fill="#2c33a3" d="M 218.5,298.5 C 219.527,302.446 219.694,306.446 219,310.5C 216.427,314.545 214.427,318.878 213,323.5C 211.175,325.824 209.009,326.157 206.5,324.5C 209.28,317.94 211.78,311.273 214,304.5C 215.277,302.253 216.777,300.253 218.5,298.5 Z"/></g>
<g><path style="opacity:1" fill="#fefffe" d="M 285.5,298.5 C 286.634,300.966 286.801,303.633 286,306.5C 281.179,315.169 275.179,322.836 268,329.5C 265.486,329.003 263.652,327.669 262.5,325.5C 262.833,324.833 263.167,324.167 263.5,323.5C 268.446,325.561 270.446,323.894 269.5,318.5C 274.761,318.047 277.261,315.047 277,309.5C 280.049,305.957 282.882,302.291 285.5,298.5 Z"/></g>
<g><path style="opacity:1" fill="#fefffe" d="M 278.5,302.5 C 279.525,302.897 279.692,303.563 279,304.5C 277.578,306.638 275.745,307.805 273.5,308C 275.373,306.296 277.04,304.463 278.5,302.5 Z"/></g>
<g><path style="opacity:1" fill="#fec90d" d="M 290.5,310.5 C 289.5,310.5 288.5,310.5 287.5,310.5C 287.5,309.5 287.5,308.5 287.5,307.5C 288.5,307.5 289.5,307.5 290.5,307.5C 290.5,308.5 290.5,309.5 290.5,310.5 Z"/></g>
<g><path style="opacity:1" fill="#fec90d" d="M 272.5,309.5 C 276.095,310.905 276.262,312.572 273,314.5C 272.167,313.667 271.333,312.833 270.5,312C 271.381,311.292 272.047,310.458 272.5,309.5 Z"/></g>
<g><path style="opacity:1" fill="#c1bcb2" d="M 287.5,310.5 C 288.811,314.957 288.811,319.457 287.5,324C 290.145,330.815 289.979,337.648 287,344.5C 286.692,343.692 286.192,343.025 285.5,342.5C 284.335,332.851 284.168,323.184 285,313.5C 285.377,312.058 286.21,311.058 287.5,310.5 Z"/></g>
<g><path style="opacity:1" fill="#2c33a3" d="M 260.5,323.5 C 250.271,333.223 240.938,343.89 232.5,355.5C 230.72,352.107 229.886,348.44 230,344.5C 232.647,345.464 235.147,344.964 237.5,343C 247.749,332.415 258.249,322.248 269,312.5C 269.5,314.333 270.667,315.5 272.5,316C 269.833,316.667 267.167,317.333 264.5,318C 263.588,320.205 262.255,322.038 260.5,323.5 Z"/></g>
<g><path style="opacity:1" fill="#2c33a3" d="M 242.5,316.5 C 243.683,317.504 245.016,318.338 246.5,319C 241.667,324.5 236.833,330 232,335.5C 231.685,334.092 232.018,332.759 233,331.5C 236.812,326.866 239.979,321.866 242.5,316.5 Z"/></g>
<g><path style="opacity:1" fill="#efefef" d="M 282.5,315.5 C 283.657,324.324 283.824,333.324 283,342.5C 282.87,346.951 282.204,351.284 281,355.5C 279.421,357.041 277.587,358.208 275.5,359C 266.833,359.667 258.167,359.667 249.5,359C 250.717,357.352 251.55,355.519 252,353.5C 254.833,352 257,349.833 258.5,347C 263.833,346.667 269.167,346.333 274.5,346C 269.833,345.667 265.167,345.333 260.5,345C 267.637,335.029 274.97,325.195 282.5,315.5 Z"/></g>
<g><path style="opacity:1" fill="#e5e6e5" d="M 191.5,317.5 C 194.016,319.197 196.849,320.53 200,321.5C 201.98,320.685 203.48,319.352 204.5,317.5C 205.376,317.369 206.043,317.702 206.5,318.5C 202.122,324.979 196.955,325.645 191,320.5C 190.26,319.251 190.427,318.251 191.5,317.5 Z"/></g>
<g><path style="opacity:1" fill="#fec90d" d="M 266.5,318.5 C 269.284,320.281 269.117,321.947 266,323.5C 265.626,322.584 265.126,321.75 264.5,321C 265.381,320.292 266.047,319.458 266.5,318.5 Z"/></g>
<g><path style="opacity:1" fill="#7e7f7e" d="M 501.5,321.5 C 502.873,321.343 504.207,321.51 505.5,322C 487.028,327.035 468.695,332.535 450.5,338.5C 444.595,333.998 439.262,334.498 434.5,340C 428.462,341.75 424.795,339.583 423.5,333.5C 427.272,331.065 431.272,329.065 435.5,327.5C 440.783,330.362 446.45,331.195 452.5,330C 469.111,327.941 485.444,325.107 501.5,321.5 Z"/></g>
<g><path style="opacity:1" fill="#3f47cc" d="M 260.5,323.5 C 260.34,325.199 260.506,326.866 261,328.5C 263.25,329.708 265.417,331.041 267.5,332.5C 266.807,333.518 266.141,334.518 265.5,335.5C 255.309,343.04 247.642,352.706 242.5,364.5C 240.147,366.523 237.814,368.523 235.5,370.5C 233.714,365.683 232.714,360.683 232.5,355.5C 240.938,343.89 250.271,333.223 260.5,323.5 Z"/></g>
<g><path style="opacity:1" fill="#000000" d="M 257.5,330.5 C 262.493,330.997 263.493,333.164 260.5,337C 255.382,336.824 254.382,334.658 257.5,330.5 Z"/></g>
<g><path style="opacity:1" fill="#fec90d" d="M 258.5,331.5 C 262.095,332.905 262.262,334.572 259,336.5C 258.167,335.667 257.333,334.833 256.5,334C 257.381,333.292 258.047,332.458 258.5,331.5 Z"/></g>
<g><path style="opacity:1" fill="#fec90d" d="M 416.5,331.5 C 420.557,332.552 423.057,335.218 424,339.5C 423.981,344.023 421.815,345.689 417.5,344.5C 415.556,340.669 414.223,336.669 413.5,332.5C 414.791,332.737 415.791,332.404 416.5,331.5 Z"/></g>
<g><path style="opacity:1" fill="#ec1c23" d="M 265.5,335.5 C 261.186,341.313 256.353,346.647 251,351.5C 248.07,359.705 243.403,366.705 237,372.5C 236.283,371.956 235.783,371.289 235.5,370.5C 237.814,368.523 240.147,366.523 242.5,364.5C 247.642,352.706 255.309,343.04 265.5,335.5 Z"/></g>
<g><path style="opacity:1" fill="#fec90d" d="M 400.5,335.5 C 401.552,335.351 402.552,335.517 403.5,336C 406.333,339.5 409.167,343 412,346.5C 412.289,350.709 410.456,352.042 406.5,350.5C 403.641,345.79 401.641,340.79 400.5,335.5 Z"/></g>
<g><path style="opacity:1" fill="#7e7f7e" d="M 408.5,335.5 C 411.109,335.83 412.776,337.33 413.5,340C 410.841,341.622 408.841,340.789 407.5,337.5C 407.863,336.817 408.196,336.15 408.5,335.5 Z"/></g>
<g><path style="opacity:1" fill="#e91a22" d="M 328.5,337.5 C 331.687,339.344 333.687,342.011 334.5,345.5C 325.994,346.651 322.661,351.317 324.5,359.5C 322.966,360.736 321.3,361.236 319.5,361C 320.022,360.439 320.355,359.772 320.5,359C 319.056,356.551 317.222,354.385 315,352.5C 315.376,343.728 319.876,338.728 328.5,337.5 Z"/></g>
<g><path style="opacity:1" fill="#2c33a3" d="M 216.5,362.5 C 214.097,363.065 212.43,364.565 211.5,367C 212.504,369.35 213.504,371.684 214.5,374C 211.568,374.953 208.568,375.453 205.5,375.5C 203.513,364.244 202.18,352.911 201.5,341.5C 203.441,341.131 205.275,340.464 207,339.5C 207.725,340.059 208.558,340.392 209.5,340.5C 214.292,337.742 217.958,338.909 220.5,344C 220.095,344.945 219.428,345.612 218.5,346C 215.832,346.567 213.166,347.067 210.5,347.5C 209.865,350.493 209.699,353.493 210,356.5C 212.037,358.706 214.203,360.706 216.5,362.5 Z"/></g>
<g><path style="opacity:1" fill="#000000" d="M 250.5,338.5 C 255.493,338.997 256.493,341.164 253.5,345C 248.382,344.824 247.382,342.658 250.5,338.5 Z"/></g>
<g><path style="opacity:1" fill="#fec90d" d="M 251.5,339.5 C 255.095,340.905 255.262,342.572 252,344.5C 251.167,343.667 250.333,342.833 249.5,342C 250.381,341.292 251.047,340.458 251.5,339.5 Z"/></g>
<g><path style="opacity:1" fill="#7e7f7e" d="M 396.5,339.5 C 399.506,340.349 400.506,342.183 399.5,345C 388.57,347.94 377.737,351.106 367,354.5C 366.293,352.919 365.46,351.419 364.5,350C 375.37,346.79 386.037,343.29 396.5,339.5 Z"/></g>
<g><path style="opacity:1" fill="#fefffe" d="M 248.5,368.5 C 247.566,367.432 247.232,366.099 247.5,364.5C 247.414,363.504 247.748,362.671 248.5,362C 257.833,361.667 267.167,361.333 276.5,361C 283.348,358.144 286.181,352.978 285,345.5C 287.603,349.522 288.103,353.855 286.5,358.5C 278.492,363.339 270.159,367.339 261.5,370.5C 257.382,368.941 253.048,368.275 248.5,368.5 Z"/></g>
<g><path style="opacity:1" fill="#f9a884" d="M 336.5,346.5 C 343.623,346.911 350.623,347.911 357.5,349.5C 357.785,351.288 357.452,352.955 356.5,354.5C 355.167,353.5 353.833,352.5 352.5,351.5C 343.954,354.094 335.454,356.76 327,359.5C 324.523,355.22 325.356,351.72 329.5,349C 331.927,348.098 334.26,347.264 336.5,346.5 Z"/></g>
<g><path style="opacity:1" fill="#955e3e" d="M 400.5,346.5 C 403.697,347.906 404.031,349.739 401.5,352C 390.248,354.974 379.081,358.141 368,361.5C 367.257,359.559 367.424,357.726 368.5,356C 379.376,353.12 390.043,349.953 400.5,346.5 Z"/></g>
<g><path style="opacity:1" fill="#fec90d" d="M 359.5,348.5 C 364.654,352.163 366.487,357.163 365,363.5C 363.981,364.687 362.814,365.687 361.5,366.5C 359.921,363.574 358.921,360.407 358.5,357C 359.348,354.23 359.681,351.397 359.5,348.5 Z"/></g>
<g><path style="opacity:1" fill="#fefffe" d="M 293.5,349.5 C 298.706,352.265 303.706,355.265 308.5,358.5C 304.139,359.455 299.806,359.955 295.5,360C 293.737,356.757 293.071,353.257 293.5,349.5 Z"/></g>
<g><path style="opacity:1" fill="#7e7f7e" d="M 348.5,354.5 C 351.564,354.144 354.231,354.977 356.5,357C 340.743,361.398 324.909,365.565 309,369.5C 307.831,368.991 306.998,368.158 306.5,367C 320.817,363.502 334.817,359.335 348.5,354.5 Z"/></g>
<g><path style="opacity:1" fill="#955e3e" d="M 355.5,359.5 C 357.344,360.204 357.844,361.537 357,363.5C 351.463,362.53 345.963,363.03 340.5,365C 339.167,367.333 337.833,369.667 336.5,372C 327.538,374.691 318.538,377.191 309.5,379.5C 309.012,376.289 309.679,373.456 311.5,371C 326.37,367.451 341.036,363.617 355.5,359.5 Z"/></g>
<g><path style="opacity:1" fill="#e5e6e5" d="M 286.5,360.5 C 288.693,362.522 289.693,365.189 289.5,368.5C 282.172,369.668 274.839,370.502 267.5,371C 274.185,367.994 280.519,364.494 286.5,360.5 Z"/></g>
<g><path style="opacity:1" fill="#ec1c23" d="M 218.5,378.5 C 217.019,374.693 215.352,370.86 213.5,367C 214.593,365.635 215.926,365.301 217.5,366C 216.187,369.692 217.52,371.359 221.5,371C 224.341,367.841 223.674,365.508 219.5,364C 220.766,363.691 221.933,363.191 223,362.5C 225.692,369.575 228.192,376.742 230.5,384C 229.437,385.188 228.103,385.688 226.5,385.5C 227.035,382.762 226.035,380.928 223.5,380C 226.5,376 225.5,374 220.5,374C 218.963,375.11 218.297,376.61 218.5,378.5 Z"/></g>
<g><path style="opacity:1" fill="#c8c9c8" d="M 247.5,364.5 C 247.232,366.099 247.566,367.432 248.5,368.5C 247.046,370.571 245.713,372.738 244.5,375C 245.017,377.077 245.684,379.077 246.5,381C 244.421,381.808 242.421,381.641 240.5,380.5C 239.627,378.587 238.627,376.753 237.5,375C 241.065,371.604 244.398,368.104 247.5,364.5 Z"/></g>
<g><path style="opacity:1" fill="#f9a884" d="M 350.5,364.5 C 351.317,366.831 351.984,369.331 352.5,372C 352.37,373.059 351.87,373.892 351,374.5C 349.552,371.149 349.385,367.816 350.5,364.5 Z"/></g>
<g><path style="opacity:1" fill="#f9a884" d="M 353.5,364.5 C 354.75,364.577 355.583,365.244 356,366.5C 356.814,368.902 356.647,371.235 355.5,373.5C 354.068,370.673 353.401,367.673 353.5,364.5 Z"/></g>
<g><path style="opacity:1" fill="#fec90d" d="M 219.5,365.5 C 223.095,366.905 223.262,368.572 220,370.5C 219.167,369.667 218.333,368.833 217.5,368C 218.381,367.292 219.047,366.458 219.5,365.5 Z"/></g>
<g><path style="opacity:1" fill="#fec90d" d="M 300.5,365.5 C 301.833,365.5 303.167,365.5 304.5,365.5C 304.504,367.842 305.337,369.842 307,371.5C 307.667,374.833 307.667,378.167 307,381.5C 305.879,375.614 303.713,370.281 300.5,365.5 Z"/></g>
<g><path style="opacity:1" fill="#f9a884" d="M 345.5,365.5 C 346.693,365.97 347.36,366.97 347.5,368.5C 347.997,370.818 348.33,373.152 348.5,375.5C 347.5,375.5 346.5,375.5 345.5,375.5C 344.788,372.075 344.788,368.742 345.5,365.5 Z"/></g>
<g><path style="opacity:1" fill="#f9a884" d="M 341.5,366.5 C 342.999,369.342 343.333,372.342 342.5,375.5C 340.456,372.636 340.123,369.636 341.5,366.5 Z"/></g>
<g><path style="opacity:1" fill="#7e7f7e" d="M 362.5,367.5 C 365.1,369.244 364.934,370.577 362,371.5C 361.626,370.584 361.126,369.75 360.5,369C 361.416,368.722 362.082,368.222 362.5,367.5 Z"/></g>
<g><path style="opacity:1" fill="#7e7f7e" d="M 298.5,370.5 C 290.216,372.595 282.216,375.261 274.5,378.5C 269.223,379.069 264.223,378.235 259.5,376C 272.002,373.5 284.502,371 297,368.5C 298.03,368.836 298.53,369.503 298.5,370.5 Z"/></g>
<g><path style="opacity:1" fill="#ec1c23" d="M 228.5,370.5 C 230.288,370.215 231.955,370.548 233.5,371.5C 235.039,374.746 236.706,377.912 238.5,381C 236.409,382.675 234.242,383.175 232,382.5C 230.829,378.482 229.663,374.482 228.5,370.5 Z"/></g>
<g><path style="opacity:1" fill="#6d6d6d" d="M 272.5,380.5 C 271.662,380.842 271.328,381.508 271.5,382.5C 266.114,387.267 259.781,389.1 252.5,388C 250.959,386.629 249.625,385.129 248.5,383.5C 248.38,380.52 247.713,377.687 246.5,375C 248.476,370.641 251.643,369.474 256,371.5C 256.45,373.519 257.283,375.352 258.5,377C 263.097,378.878 267.764,380.045 272.5,380.5 Z"/></g>
<g><path style="opacity:1" fill="#565656" d="M 298.5,370.5 C 300.705,370.846 300.872,371.513 299,372.5C 290.538,375.599 282.038,378.599 273.5,381.5C 272.893,381.376 272.56,381.043 272.5,380.5C 273.5,380.167 274.167,379.5 274.5,378.5C 282.216,375.261 290.216,372.595 298.5,370.5 Z"/></g>
<g><path style="opacity:1" fill="#fefffe" d="M 257.5,373.5 C 258.946,372.387 260.613,372.22 262.5,373C 260.701,374.036 259.034,374.203 257.5,373.5 Z"/></g>
<g><path style="opacity:1" fill="#955e3e" d="M 248.5,383.5 C 249.625,385.129 250.959,386.629 252.5,388C 259.781,389.1 266.114,387.267 271.5,382.5C 272.265,382.923 273.098,383.257 274,383.5C 283.456,380.436 292.789,377.102 302,373.5C 304.258,376.278 304.758,379.278 303.5,382.5C 290.034,386.284 276.701,390.117 263.5,394C 261.913,394.862 260.246,395.529 258.5,396C 256.752,400.098 253.752,402.265 249.5,402.5C 249.649,399.393 249.149,396.393 248,393.5C 245.64,390.64 243.473,387.64 241.5,384.5C 243.743,383.526 246.076,383.192 248.5,383.5 Z"/></g>
<g><path style="opacity:1" fill="#fec90d" d="M 221.5,374.5 C 225.095,375.905 225.262,377.572 222,379.5C 221.167,378.667 220.333,377.833 219.5,377C 220.381,376.292 221.047,375.458 221.5,374.5 Z"/></g>
<g><path style="opacity:1" fill="#eaeaea" d="M 309.5,383.5 C 309.62,382.414 310.287,381.747 311.5,381.5C 320.907,378.481 330.241,376.148 339.5,374.5C 329.478,377.508 319.478,380.508 309.5,383.5 Z"/></g>
<g><path style="opacity:1" fill="#ec1c23" d="M 211.5,376.5 C 212.978,376.238 214.311,376.571 215.5,377.5C 216.638,380.913 217.971,384.246 219.5,387.5C 217.103,392.61 213.603,393.61 209,390.5C 208.272,386.464 207.439,382.464 206.5,378.5C 208.291,377.83 209.958,377.163 211.5,376.5 Z"/></g>
<g><path style="opacity:1" fill="#ec1c23" d="M 218.5,378.5 C 219.683,379.504 221.016,380.338 222.5,381C 221.773,382.399 221.273,383.899 221,385.5C 219.711,383.355 218.878,381.022 218.5,378.5 Z"/></g>
<g><path style="opacity:1" fill="#fec90d" d="M 223.5,381.5 C 225.852,382.543 226.019,383.876 224,385.5C 222.232,384.318 222.065,382.985 223.5,381.5 Z"/></g>
<g><path style="opacity:1" fill="#000000" d="M 260.5,382.5 C 261.5,382.5 262.5,382.5 263.5,382.5C 263.5,383.5 263.5,384.5 263.5,385.5C 260.506,385.854 259.506,384.854 260.5,382.5 Z"/></g>
<g><path style="opacity:1" fill="#f9a784" d="M 237.5,383.5 C 240.469,386.642 243.302,389.975 246,393.5C 247.325,397.428 247.658,401.428 247,405.5C 243.661,402.097 240.995,398.097 239,393.5C 240.753,403.548 239.253,403.882 234.5,394.5C 233.833,393.167 233.167,393.167 232.5,394.5C 233.833,397.167 235.167,399.833 236.5,402.5C 236.167,403.5 235.5,404.167 234.5,404.5C 232.747,401.995 231.247,399.329 230,396.5C 229.107,395.289 228.274,395.289 227.5,396.5C 228.706,399.079 230.039,401.579 231.5,404C 230.975,404.692 230.308,405.192 229.5,405.5C 226.764,401.704 224.264,397.704 222,393.5C 221.316,392.216 221.483,391.049 222.5,390C 227.807,388.295 232.807,386.129 237.5,383.5 Z"/></g>
<g><path style="opacity:1" fill="#fefffe" d="M 309.5,383.5 C 307.142,386.236 304.142,387.07 300.5,386C 303.353,384.57 306.353,383.737 309.5,383.5 Z"/></g>
<g><path style="opacity:1" fill="#e5e6e5" d="M 297.5,386.5 C 298.289,386.783 298.956,387.283 299.5,388C 296.285,388.274 293.619,389.607 291.5,392C 282.897,393.988 274.23,395.321 265.5,396C 276.003,392.267 286.669,389.1 297.5,386.5 Z"/></g>
<g><path style="opacity:1" fill="#fdfdfd" d="M 314.5,435.5 C 304.814,438.352 296.148,436.519 288.5,430C 288.759,428.739 289.426,427.739 290.5,427C 286.988,425.686 283.321,424.686 279.5,424C 276.304,419.636 273.304,415.136 270.5,410.5C 271,410.167 271.5,409.833 272,409.5C 275.232,411.2 278.399,413.034 281.5,415C 283.641,415.884 285.307,415.384 286.5,413.5C 285.363,411.393 284.363,409.227 283.5,407C 283.734,405.268 284.734,404.434 286.5,404.5C 290.213,406.04 293.547,408.207 296.5,411C 298.949,411.775 300.616,410.942 301.5,408.5C 297.042,404.396 294.375,399.396 293.5,393.5C 293.811,392.522 294.478,391.855 295.5,391.5C 296.653,394.152 298.487,396.152 301,397.5C 301.366,401.232 303.032,404.232 306,406.5C 306.515,410.577 307.349,414.577 308.5,418.5C 311.798,419.965 314.298,422.298 316,425.5C 316.682,429.069 316.182,432.402 314.5,435.5 Z"/></g>
<g><path style="opacity:1" fill="#955e3e" d="M 218.5,392.5 C 220.64,396.103 222.807,399.77 225,403.5C 225.667,404.5 225.667,405.5 225,406.5C 214.882,413.616 205.049,421.116 195.5,429C 192.909,430.718 190.242,431.218 187.5,430.5C 185,425.5 182.5,420.5 180,415.5C 179.333,413.5 179.333,411.5 180,409.5C 192.97,403.908 205.804,398.241 218.5,392.5 Z"/></g>
<g><path style="opacity:1" fill="#c3c4c3" d="M 293.5,393.5 C 294.375,399.396 297.042,404.396 301.5,408.5C 300.616,410.942 298.949,411.775 296.5,411C 293.547,408.207 290.213,406.04 286.5,404.5C 284.734,404.434 283.734,405.268 283.5,407C 284.363,409.227 285.363,411.393 286.5,413.5C 285.307,415.384 283.641,415.884 281.5,415C 278.399,413.034 275.232,411.2 272,409.5C 271.5,409.833 271,410.167 270.5,410.5C 273.304,415.136 276.304,419.636 279.5,424C 283.321,424.686 286.988,425.686 290.5,427C 289.426,427.739 288.759,428.739 288.5,430C 296.148,436.519 304.814,438.352 314.5,435.5C 314.5,436.5 314.5,437.5 314.5,438.5C 311.274,441.353 307.44,442.687 303,442.5C 296.747,441.562 290.58,440.228 284.5,438.5C 285.473,436.932 285.64,435.265 285,433.5C 279.283,426.944 274.117,419.944 269.5,412.5C 266.232,411.513 262.898,411.18 259.5,411.5C 260.038,409.883 260.371,408.216 260.5,406.5C 258.453,406.489 256.453,406.156 254.5,405.5C 252.783,406.717 250.95,407.717 249,408.5C 248.235,408.43 247.735,408.097 247.5,407.5C 249.584,405.17 252.251,404.003 255.5,404C 257.368,400.799 259.868,398.299 263,396.5C 264.473,398.007 266.307,398.674 268.5,398.5C 276.916,396.977 285.25,395.31 293.5,393.5 Z"/></g>
<g><path style="opacity:1" fill="#c3c4c3" d="M 246.5,407.5 C 238.269,415.507 229.603,423.174 220.5,430.5C 223.988,422.855 227.488,415.188 231,407.5C 234.654,407.624 237.82,406.124 240.5,403C 241.448,402.517 242.448,402.351 243.5,402.5C 243.273,404.933 244.273,406.599 246.5,407.5 Z"/></g>
<g><path style="opacity:1" fill="#f3f3f3" d="M 259.5,411.5 C 257.827,412.343 256.66,413.676 256,415.5C 256.392,421.435 253.726,425.102 248,426.5C 245.929,432.461 242.595,437.461 238,441.5C 236.853,444.618 235.52,447.618 234,450.5C 230.068,452.589 225.901,454.089 221.5,455C 220.663,456.011 220.33,457.178 220.5,458.5C 218.5,458.833 216.5,459.167 214.5,459.5C 214.018,465.173 211.518,469.84 207,473.5C 203.145,479.21 199.812,485.21 197,491.5C 194.948,492.793 192.781,493.793 190.5,494.5C 186.935,493.534 183.435,493.534 180,494.5C 177.293,492.238 176.293,489.571 177,486.5C 173.85,484.839 172.35,485.839 172.5,489.5C 171.203,487.307 171.203,484.973 172.5,482.5C 175.415,476.951 178.249,471.284 181,465.5C 182.419,464.54 183.919,463.707 185.5,463C 186.819,460.715 188.319,458.548 190,456.5C 190.671,457.252 191.504,457.586 192.5,457.5C 193.5,457.5 194.5,457.5 195.5,457.5C 198.083,455.842 200.75,454.176 203.5,452.5C 203.333,452.167 203.167,451.833 203,451.5C 200.765,453.202 198.265,454.202 195.5,454.5C 194.5,454.5 193.5,454.5 192.5,454.5C 191.352,455.895 190.352,455.728 189.5,454C 192.371,449.313 195.705,445.147 199.5,441.5C 205.553,443.812 210.553,442.478 214.5,437.5C 215.496,437.586 216.329,437.252 217,436.5C 218.459,434.568 219.625,432.568 220.5,430.5C 229.603,423.174 238.269,415.507 246.5,407.5C 246.833,407.5 247.167,407.5 247.5,407.5C 247.735,408.097 248.235,408.43 249,408.5C 250.95,407.717 252.783,406.717 254.5,405.5C 256.453,406.156 258.453,406.489 260.5,406.5C 260.371,408.216 260.038,409.883 259.5,411.5 Z"/></g>
<g><path style="opacity:1" fill="#2c33a3" d="M 221.5,421.5 C 215.082,422.878 208.748,424.545 202.5,426.5C 210.507,419.838 218.84,413.505 227.5,407.5C 227.833,407.833 228.167,408.167 228.5,408.5C 226.392,413.054 224.059,417.388 221.5,421.5 Z"/></g>
<g><path style="opacity:1" fill="#d01019" d="M 221.5,421.5 C 219.895,427.067 217.062,431.734 213,435.5C 206.753,434.926 200.587,433.926 194.5,432.5C 196.902,430.091 199.569,428.091 202.5,426.5C 208.748,424.545 215.082,422.878 221.5,421.5 Z"/></g>
<g><path style="opacity:1" fill="#c3c4c3" d="M 214.5,437.5 C 210.553,442.478 205.553,443.812 199.5,441.5C 199.751,439.83 200.418,438.33 201.5,437C 205.848,436.585 210.181,436.751 214.5,437.5 Z"/></g>
<g><path style="opacity:1" fill="#fcfcfc" d="M 284.5,438.5 C 290.58,440.228 296.747,441.562 303,442.5C 307.44,442.687 311.274,441.353 314.5,438.5C 315.043,438.56 315.376,438.893 315.5,439.5C 313.834,440.992 312.834,442.825 312.5,445C 313.831,447.628 314.664,450.462 315,453.5C 315.579,463.18 315.412,472.847 314.5,482.5C 308.92,484.233 303.92,487.066 299.5,491C 296.937,492.079 294.271,492.579 291.5,492.5C 291.726,482.703 288.893,474.036 283,466.5C 279.631,460.282 279.964,454.282 284,448.5C 284.498,445.183 284.665,441.85 284.5,438.5 Z"/></g>
<g><path style="opacity:1" fill="#fec90d" d="M 181.5,447.5 C 183.27,448.856 184.603,450.689 185.5,453C 181.492,456.199 177.159,458.699 172.5,460.5C 172.343,459.127 172.51,457.793 173,456.5C 176.038,453.631 178.871,450.631 181.5,447.5 Z"/></g>
<g><path style="opacity:1" fill="#fefffe" d="M 195.5,448.5 C 196.5,448.5 197.5,448.5 198.5,448.5C 198.5,449.5 198.5,450.5 198.5,451.5C 197.5,451.5 196.5,451.5 195.5,451.5C 195.5,450.5 195.5,449.5 195.5,448.5 Z"/></g>
<g><path style="opacity:1" fill="#000000" d="M 195.5,457.5 C 195.5,456.5 195.5,455.5 195.5,454.5C 198.265,454.202 200.765,453.202 203,451.5C 203.167,451.833 203.333,452.167 203.5,452.5C 200.75,454.176 198.083,455.842 195.5,457.5 Z"/></g>
<g><path style="opacity:1" fill="#fefffe" d="M 192.5,454.5 C 193.5,454.5 194.5,454.5 195.5,454.5C 195.5,455.5 195.5,456.5 195.5,457.5C 194.5,457.5 193.5,457.5 192.5,457.5C 192.5,456.5 192.5,455.5 192.5,454.5 Z"/></g>
<g><path style="opacity:1" fill="#fefffe" d="M 190.5,460.5 C 191.5,460.5 192.5,460.5 193.5,460.5C 193.5,461.5 193.5,462.5 193.5,463.5C 192.5,463.5 191.5,463.5 190.5,463.5C 190.5,462.5 190.5,461.5 190.5,460.5 Z"/></g>
<g><path style="opacity:1" fill="#fefffe" d="M 186.5,465.5 C 187.5,465.5 188.5,465.5 189.5,465.5C 189.5,466.5 189.5,467.5 189.5,468.5C 188.5,468.5 187.5,468.5 186.5,468.5C 186.5,467.5 186.5,466.5 186.5,465.5 Z"/></g>
<g><path style="opacity:1" fill="#fefffe" d="M 182.5,470.5 C 183.5,470.5 184.5,470.5 185.5,470.5C 185.5,471.5 185.5,472.5 185.5,473.5C 184.5,473.5 183.5,473.5 182.5,473.5C 182.5,472.5 182.5,471.5 182.5,470.5 Z"/></g>
<g><path style="opacity:1" fill="#fefffe" d="M 179.5,475.5 C 180.5,475.5 181.5,475.5 182.5,475.5C 182.5,476.5 182.5,477.5 182.5,478.5C 181.5,478.5 180.5,478.5 179.5,478.5C 179.5,477.5 179.5,476.5 179.5,475.5 Z"/></g>
<g><path style="opacity:1" fill="#fefffe" d="M 176.5,480.5 C 177.5,480.5 178.5,480.5 179.5,480.5C 179.5,481.5 179.5,482.5 179.5,483.5C 178.5,483.5 177.5,483.5 176.5,483.5C 176.5,482.5 176.5,481.5 176.5,480.5 Z"/></g>
<g><path style="opacity:1" fill="#c3c4c3" d="M 314.5,482.5 C 315.167,482.5 315.5,482.833 315.5,483.5C 311,486.478 306.333,489.311 301.5,492C 298.526,492.993 295.526,493.826 292.5,494.5C 291.662,494.158 291.328,493.492 291.5,492.5C 294.271,492.579 296.937,492.079 299.5,491C 303.92,487.066 308.92,484.233 314.5,482.5 Z"/></g>
<g><path style="opacity:1" fill="#fcfcfc" d="M 315.5,483.5 C 314.6,486.072 314.6,488.906 315.5,492C 322.864,494.348 329.531,498.015 335.5,503C 326.756,508.706 317.422,513.372 307.5,517C 304.5,517.667 301.5,517.667 298.5,517C 296.517,515.111 294.184,513.778 291.5,513C 290.57,511.806 289.903,510.473 289.5,509C 291.374,504.337 292.374,499.504 292.5,494.5C 295.526,493.826 298.526,492.993 301.5,492C 306.333,489.311 311,486.478 315.5,483.5 Z"/></g>
<g><path style="opacity:1" fill="#b4b4b4" d="M 190.5,494.5 C 190.5,495.5 190.5,496.5 190.5,497.5C 185.272,498.496 179.938,499.329 174.5,500C 177.148,501.649 179.481,503.649 181.5,506C 181,507.833 179.833,509 178,509.5C 172.167,507.667 168.333,503.833 166.5,498C 167.274,495.846 167.941,493.679 168.5,491.5C 169.995,491.011 171.329,490.345 172.5,489.5C 172.35,485.839 173.85,484.839 177,486.5C 176.293,489.571 177.293,492.238 180,494.5C 183.435,493.534 186.935,493.534 190.5,494.5 Z"/></g>
<g><path style="opacity:1" fill="#fefffe" d="M 168.5,491.5 C 167.941,493.679 167.274,495.846 166.5,498C 168.333,503.833 172.167,507.667 178,509.5C 179.833,509 181,507.833 181.5,506C 179.481,503.649 177.148,501.649 174.5,500C 179.938,499.329 185.272,498.496 190.5,497.5C 190.216,501.79 191.716,505.123 195,507.5C 197.019,511.191 198.686,514.858 200,518.5C 193.237,520.731 186.403,520.898 179.5,519C 172.657,513.816 166.157,508.316 160,502.5C 159.856,498.768 161.023,495.435 163.5,492.5C 165.045,491.548 166.712,491.215 168.5,491.5 Z"/></g>
<g><path style="opacity:1" fill="#181918" d="M 341.5,502.5 C 351.682,503.637 353.015,507.47 345.5,514C 344.167,514.667 342.833,515.333 341.5,516C 331.827,516.685 322.161,517.018 312.5,517C 322.993,513.366 332.66,508.532 341.5,502.5 Z"/></g>
<g><path style="opacity:1" fill="#181918" d="M 163.5,509.5 C 168.8,512.831 173.8,516.664 178.5,521C 181.598,521.918 184.765,522.418 188,522.5C 192.168,521.855 196.335,521.688 200.5,522C 203.144,523.817 204.81,526.317 205.5,529.5C 204.975,530.192 204.308,530.692 203.5,531C 196.167,531.667 188.833,531.667 181.5,531C 174.889,524.233 168.889,517.067 163.5,509.5 Z"/></g>
</svg>
