<?xml version="1.0" encoding="UTF-8"?>
<!DOCTYPE svg PUBLIC "-//W3C//DTD SVG 1.1//EN" "http://www.w3.org/Graphics/SVG/1.1/DTD/svg11.dtd">
<svg xmlns="http://www.w3.org/2000/svg" version="1.1" width="640px" height="426px" style="shape-rendering:geometricPrecision; text-rendering:geometricPrecision; image-rendering:optimizeQuality; fill-rule:evenodd; clip-rule:evenodd" xmlns:xlink="http://www.w3.org/1999/xlink">
<g><path style="opacity:1" fill="#fefffe" d="M 215.5,110.5 C 255.612,104.347 287.112,117.68 310,150.5C 347.367,136.238 381.867,141.405 413.5,166C 426.201,177.348 435.701,190.848 442,206.5C 443.128,211.139 444.128,215.805 445,220.5C 445.11,218.152 446.277,216.652 448.5,216C 454.154,215.096 459.654,215.596 465,217.5C 471.745,215.725 478.578,215.225 485.5,216C 499.5,220.667 513.5,225.333 527.5,230C 533,238.167 538.5,246.333 544,254.5C 544.784,257.76 544.617,260.927 543.5,264C 550.903,265.881 558.236,265.548 565.5,263C 574.933,261.121 583.6,262.788 591.5,268C 593.041,269.579 594.208,271.413 595,273.5C 595.667,278.833 595.667,284.167 595,289.5C 584.52,309.613 567.854,319.28 545,318.5C 534.188,318.42 523.688,316.586 513.5,313C 490.145,303.571 466.978,293.738 444,283.5C 440.957,292.589 437.624,301.589 434,310.5C 423.166,331.332 408.666,349.165 390.5,364C 371.462,376.04 350.628,381.54 328,380.5C 286.039,381.296 256.206,362.962 238.5,325.5C 215.656,325.206 193.989,320.039 173.5,310C 166.871,305.428 160.704,300.262 155,294.5C 135.407,269.208 127.241,240.541 130.5,208.5C 127.91,208.604 125.577,207.937 123.5,206.5C 114.321,208.983 104.988,209.816 95.5,209C 85.4984,203.491 81.4984,194.991 83.5,183.5C 82.6296,175.027 84.1296,167.027 88,159.5C 94.3693,153.717 101.869,151.884 110.5,154C 114.817,156.499 119.483,158.332 124.5,159.5C 129.133,158.447 133.799,158.281 138.5,159C 140.116,159.615 141.449,160.615 142.5,162C 143.5,162.667 144.5,162.667 145.5,162C 162.52,136.132 185.854,118.965 215.5,110.5 Z M 230.5,139.5 C 233.119,139.232 235.619,139.565 238,140.5C 238.268,148.2 238.768,155.867 239.5,163.5C 237.08,163.292 234.747,163.626 232.5,164.5C 229.639,157.253 226.973,149.919 224.5,142.5C 226.444,141.199 228.444,140.199 230.5,139.5 Z M 259.5,147.5 C 262.447,148.973 265.447,150.473 268.5,152C 265.167,152.667 261.833,152.667 258.5,152C 259.38,150.644 259.714,149.144 259.5,147.5 Z M 201.5,151.5 C 202.675,151.281 203.675,151.614 204.5,152.5C 206.464,156.754 208.131,161.088 209.5,165.5C 204.508,165.001 199.508,164.501 194.5,164C 192.668,162.511 191.835,160.678 192,158.5C 195.501,156.512 198.668,154.178 201.5,151.5 Z M 162.5,214.5 C 171.84,215.89 181.173,217.39 190.5,219C 192.457,221.121 192.957,223.621 192,226.5C 182.74,229.316 173.407,231.983 164,234.5C 163.055,234.095 162.388,233.428 162,232.5C 160.49,226.489 160.656,220.489 162.5,214.5 Z M 201.5,241.5 C 202.239,241.369 202.906,241.536 203.5,242C 194.667,250.833 185.833,259.667 177,268.5C 175.248,265.328 173.248,262.328 171,259.5C 169.813,257.956 169.48,256.289 170,254.5C 180.543,250.048 191.043,245.714 201.5,241.5 Z M 214.5,261.5 C 215.043,261.56 215.376,261.893 215.5,262.5C 212.088,271.906 208.588,281.239 205,290.5C 200.585,288.377 196.418,285.877 192.5,283C 199.729,275.603 207.062,268.437 214.5,261.5 Z M 372.5,263.5 C 381.484,264.322 390.484,266.322 399.5,269.5C 401.29,270.786 402.957,272.286 404.5,274C 393.675,271.225 383.008,267.725 372.5,263.5 Z M 264.5,264.5 C 265.933,265.833 267.267,267.333 268.5,269C 267.109,270.02 265.609,270.853 264,271.5C 263.666,269.153 263.833,266.819 264.5,264.5 Z M 228.5,284.5 C 229.201,287.563 229.868,290.73 230.5,294C 228.393,294.854 227.059,294.188 226.5,292C 227.249,289.503 227.916,287.003 228.5,284.5 Z M 367.5,284.5 C 378.894,287.853 389.894,292.186 400.5,297.5C 401.583,298.365 401.749,299.365 401,300.5C 398.873,304.589 396.373,308.423 393.5,312C 392.092,312.315 390.759,311.982 389.5,311C 381.178,302.857 373.844,294.024 367.5,284.5 Z M 350.5,299.5 C 360.31,308.618 368.31,319.118 374.5,331C 370.469,335.8 365.636,338.633 360,339.5C 356.004,326.349 352.837,313.016 350.5,299.5 Z M 307.5,302.5 C 306.088,315.594 302.255,328.261 296,340.5C 291.994,338.082 288.494,335.082 285.5,331.5C 292.09,321.247 299.423,311.58 307.5,302.5 Z M 329.5,308.5 C 330.117,308.611 330.617,308.944 331,309.5C 334.472,322.61 335.972,335.944 335.5,349.5C 330.586,350.016 325.586,349.849 320.5,349C 322.922,335.393 325.922,321.893 329.5,308.5 Z"/></g>
<g><path style="opacity:1" fill="#000000" d="M 218.5,113.5 C 257.386,108.824 287.22,122.824 308,155.5C 334.406,142.759 360.906,142.592 387.5,155C 408.506,165.006 424.672,180.172 436,200.5C 438.805,208.721 441.138,217.054 443,225.5C 444.584,226.861 446.418,227.528 448.5,227.5C 447.188,220.151 450.188,217.317 457.5,219C 459.39,220.112 461.39,220.946 463.5,221.5C 468.63,220.307 473.796,219.307 479,218.5C 494.279,222.926 509.446,227.76 524.5,233C 530.575,241.407 536.242,250.074 541.5,259C 541.355,259.772 541.022,260.439 540.5,261C 538.423,261.192 536.423,261.692 534.5,262.5C 533.289,263.72 533.289,264.887 534.5,266C 540.457,267.16 546.457,267.993 552.5,268.5C 561.109,266.809 569.776,265.976 578.5,266C 582.609,267.801 586.442,269.968 590,272.5C 592.374,276.894 593.041,281.56 592,286.5C 578.723,310.383 558.557,319.549 531.5,314C 526.448,312.872 521.448,311.538 516.5,310C 491.378,299.793 466.378,289.293 441.5,278.5C 433.044,308.125 417.711,333.625 395.5,355C 372.934,372.729 347.267,380.062 318.5,377C 282.194,373.541 256.527,355.374 241.5,322.5C 220.212,322.261 199.879,317.761 180.5,309C 172.142,304.313 164.642,298.48 158,291.5C 138.409,266.211 130.242,237.544 133.5,205.5C 130.326,204.985 127.326,203.985 124.5,202.5C 117.353,204.777 110.02,206.11 102.5,206.5C 98.1063,206.65 94.6063,204.983 92,201.5C 87.1383,196.476 85.305,190.476 86.5,183.5C 85.9466,176.049 87.4466,169.049 91,162.5C 95.2948,157.105 100.795,155.271 107.5,157C 108.167,157.667 108.833,158.333 109.5,159C 115.009,160.336 120.343,162.17 125.5,164.5C 130.344,160.365 135.011,160.532 139.5,165C 146.167,167.329 150.334,165.163 152,158.5C 165.177,142.316 181.01,129.483 199.5,120C 205.979,117.897 212.313,115.73 218.5,113.5 Z M 230.5,139.5 C 228.444,140.199 226.444,141.199 224.5,142.5C 226.973,149.919 229.639,157.253 232.5,164.5C 234.747,163.626 237.08,163.292 239.5,163.5C 238.768,155.867 238.268,148.2 238,140.5C 235.619,139.565 233.119,139.232 230.5,139.5 Z M 259.5,147.5 C 259.714,149.144 259.38,150.644 258.5,152C 261.833,152.667 265.167,152.667 268.5,152C 265.447,150.473 262.447,148.973 259.5,147.5 Z M 201.5,151.5 C 198.668,154.178 195.501,156.512 192,158.5C 191.835,160.678 192.668,162.511 194.5,164C 199.508,164.501 204.508,165.001 209.5,165.5C 208.131,161.088 206.464,156.754 204.5,152.5C 203.675,151.614 202.675,151.281 201.5,151.5 Z M 162.5,214.5 C 160.656,220.489 160.49,226.489 162,232.5C 162.388,233.428 163.055,234.095 164,234.5C 173.407,231.983 182.74,229.316 192,226.5C 192.957,223.621 192.457,221.121 190.5,219C 181.173,217.39 171.84,215.89 162.5,214.5 Z M 201.5,241.5 C 191.043,245.714 180.543,250.048 170,254.5C 169.48,256.289 169.813,257.956 171,259.5C 173.248,262.328 175.248,265.328 177,268.5C 185.833,259.667 194.667,250.833 203.5,242C 202.906,241.536 202.239,241.369 201.5,241.5 Z M 214.5,261.5 C 207.062,268.437 199.729,275.603 192.5,283C 196.418,285.877 200.585,288.377 205,290.5C 208.588,281.239 212.088,271.906 215.5,262.5C 215.376,261.893 215.043,261.56 214.5,261.5 Z M 372.5,263.5 C 383.008,267.725 393.675,271.225 404.5,274C 402.957,272.286 401.29,270.786 399.5,269.5C 390.484,266.322 381.484,264.322 372.5,263.5 Z M 264.5,264.5 C 263.833,266.819 263.666,269.153 264,271.5C 265.609,270.853 267.109,270.02 268.5,269C 267.267,267.333 265.933,265.833 264.5,264.5 Z M 228.5,284.5 C 227.916,287.003 227.249,289.503 226.5,292C 227.059,294.188 228.393,294.854 230.5,294C 229.868,290.73 229.201,287.563 228.5,284.5 Z M 367.5,284.5 C 373.844,294.024 381.178,302.857 389.5,311C 390.759,311.982 392.092,312.315 393.5,312C 396.373,308.423 398.873,304.589 401,300.5C 401.749,299.365 401.583,298.365 400.5,297.5C 389.894,292.186 378.894,287.853 367.5,284.5 Z M 350.5,299.5 C 352.837,313.016 356.004,326.349 360,339.5C 365.636,338.633 370.469,335.8 374.5,331C 368.31,319.118 360.31,308.618 350.5,299.5 Z M 307.5,302.5 C 299.423,311.58 292.09,321.247 285.5,331.5C 288.494,335.082 291.994,338.082 296,340.5C 302.255,328.261 306.088,315.594 307.5,302.5 Z M 329.5,308.5 C 325.922,321.893 322.922,335.393 320.5,349C 325.586,349.849 330.586,350.016 335.5,349.5C 335.972,335.944 334.472,322.61 331,309.5C 330.617,308.944 330.117,308.611 329.5,308.5 Z"/></g>
<g><path style="opacity:1" fill="#7e7f7e" d="M 177.5,138.5 C 192.752,124.58 210.752,117.413 231.5,117C 224.374,117.692 217.374,119.025 210.5,121C 204.5,123.667 198.5,126.333 192.5,129C 187.444,132.188 182.444,135.355 177.5,138.5 Z"/></g>
<g><path style="opacity:1" fill="#5d953b" d="M 254.5,137.5 C 253.209,137.737 252.209,137.404 251.5,136.5C 237.972,131.687 224.972,132.687 212.5,139.5C 211.07,140.537 209.403,141.204 207.5,141.5C 197.976,144.173 189.809,149.173 183,156.5C 182.626,157.416 182.126,158.25 181.5,159C 182.795,161.758 184.461,164.258 186.5,166.5C 184.833,166.833 183.167,167.167 181.5,167.5C 178.989,167.712 176.822,167.045 175,165.5C 169.25,166.641 163.416,166.807 157.5,166C 172.042,145.114 191.375,130.781 215.5,123C 246.393,116.076 273.56,123.243 297,144.5C 299.07,148.908 301.57,153.075 304.5,157C 300.732,159.3 296.898,161.467 293,163.5C 290.981,161.812 289.314,159.812 288,157.5C 287.692,158.308 287.192,158.975 286.5,159.5C 283.716,158.608 281.05,157.442 278.5,156C 279.614,154.43 280.947,153.097 282.5,152C 276.175,141.139 266.842,136.306 254.5,137.5 Z M 259.5,147.5 C 259.714,149.144 259.38,150.644 258.5,152C 261.833,152.667 265.167,152.667 268.5,152C 265.447,150.473 262.447,148.973 259.5,147.5 Z"/></g>
<g><path style="opacity:1" fill="#000000" d="M 209.5,125.5 C 215.144,125.297 217.144,127.797 215.5,133C 209.28,133.944 207.28,131.444 209.5,125.5 Z"/></g>
<g><path style="opacity:1" fill="#7e7f7e" d="M 210.5,126.5 C 214.143,126.943 215.477,128.776 214.5,132C 210.222,132.228 208.888,130.395 210.5,126.5 Z"/></g>
<g><path style="opacity:1" fill="#fefffe" d="M 227.5,136.5 C 232.099,136.2 236.599,136.533 241,137.5C 241.467,147.173 241.967,156.84 242.5,166.5C 240.473,166.338 238.473,166.505 236.5,167C 234.626,169.455 232.293,169.955 229.5,168.5C 226.26,158.946 222.927,149.446 219.5,140C 222.158,138.522 224.825,137.355 227.5,136.5 Z M 230.5,139.5 C 228.444,140.199 226.444,141.199 224.5,142.5C 226.973,149.919 229.639,157.253 232.5,164.5C 234.747,163.626 237.08,163.292 239.5,163.5C 238.768,155.867 238.268,148.2 238,140.5C 235.619,139.565 233.119,139.232 230.5,139.5 Z"/></g>
<g><path style="opacity:1" fill="#5d973b" d="M 251.5,136.5 C 252.209,137.404 253.209,137.737 254.5,137.5C 253.551,143.862 252.384,150.196 251,156.5C 250.333,157.167 249.667,157.833 249,158.5C 248.931,151.19 248.098,144.023 246.5,137C 248.134,136.506 249.801,136.34 251.5,136.5 Z"/></g>
<g><path style="opacity:1" fill="#7e7f7e" d="M 177.5,138.5 C 168.41,147.559 160.077,156.559 152.5,165.5C 159.123,154.878 167.457,145.878 177.5,138.5 Z"/></g>
<g><path style="opacity:1" fill="#415028" d="M 257.5,139.5 C 258.601,138.402 259.934,138.235 261.5,139C 267.427,141.935 273.094,145.268 278.5,149C 279.451,149.718 279.617,150.551 279,151.5C 272.673,146.008 265.506,142.008 257.5,139.5 Z"/></g>
<g><path style="opacity:1" fill="#5d973b" d="M 212.5,139.5 C 213.833,139.5 215.167,139.5 216.5,139.5C 219.092,148.944 222.092,158.277 225.5,167.5C 223.5,168.833 221.5,168.833 219.5,167.5C 215.486,158.807 211.486,150.14 207.5,141.5C 209.403,141.204 211.07,140.537 212.5,139.5 Z"/></g>
<g><path style="opacity:1" fill="#fefffe" d="M 256.5,142.5 C 259.311,142.826 261.978,143.659 264.5,145C 268.844,147.171 272.844,149.837 276.5,153C 275.833,153.667 275.167,154.333 274.5,155C 267.833,155.667 261.167,155.667 254.5,155C 255.756,150.961 256.423,146.794 256.5,142.5 Z M 259.5,147.5 C 259.714,149.144 259.38,150.644 258.5,152C 261.833,152.667 265.167,152.667 268.5,152C 265.447,150.473 262.447,148.973 259.5,147.5 Z"/></g>
<g><path style="opacity:1" fill="#000000" d="M 289.5,143.5 C 296.004,143.138 297.671,145.638 294.5,151C 292.866,151.494 291.199,151.66 289.5,151.5C 289.5,148.833 289.5,146.167 289.5,143.5 Z"/></g>
<g><path style="opacity:1" fill="#7e7f7e" d="M 290.5,144.5 C 297.167,146.5 297.167,148.5 290.5,150.5C 290.5,148.5 290.5,146.5 290.5,144.5 Z"/></g>
<g><path style="opacity:1" fill="#fefffe" d="M 203.5,145.5 C 204.496,145.414 205.329,145.748 206,146.5C 209.167,153.5 212.333,160.5 215.5,167.5C 207.497,168.525 199.497,168.358 191.5,167C 189.5,164.333 187.5,161.667 185.5,159C 191.389,154.236 197.389,149.736 203.5,145.5 Z M 201.5,151.5 C 198.668,154.178 195.501,156.512 192,158.5C 191.835,160.678 192.668,162.511 194.5,164C 199.508,164.501 204.508,165.001 209.5,165.5C 208.131,161.088 206.464,156.754 204.5,152.5C 203.675,151.614 202.675,151.281 201.5,151.5 Z"/></g>
<g><path style="opacity:1" fill="#7e7f7e" d="M 337.5,148.5 C 342.179,148.334 346.845,148.501 351.5,149C 337.77,148.945 324.77,151.945 312.5,158C 269.423,179.915 244.923,215.082 239,263.5C 235.395,299.024 245.895,329.524 270.5,355C 270.167,355.167 269.833,355.333 269.5,355.5C 250.082,337.484 238.915,315.15 236,288.5C 235.206,282.692 234.706,276.858 234.5,271C 240.322,211.857 270.989,171.857 326.5,151C 330.347,150.367 334.014,149.533 337.5,148.5 Z"/></g>
<g><path style="opacity:1" fill="#5d973b" d="M 351.5,367.5 C 352.453,369.61 354.119,370.777 356.5,371C 337.829,375.623 319.162,375.623 300.5,371C 292.5,366 284.5,361 276.5,356C 252.925,333.669 241.258,306.169 241.5,273.5C 243.042,247.328 251.042,223.328 265.5,201.5C 287.597,170.692 317.764,154.025 356,151.5C 394.74,155.592 421.406,175.592 436,211.5C 442.873,238.553 441.873,265.22 433,291.5C 432.257,287.264 429.757,285.597 425.5,286.5C 424.751,290.819 424.585,295.152 425,299.5C 426.419,300.46 427.919,301.293 429.5,302C 420.629,320.878 408.629,337.545 393.5,352C 383.222,360.137 371.889,366.137 359.5,370C 362.749,364.811 361.416,361.145 355.5,359C 351.451,357.516 349.451,358.849 349.5,363C 349.307,365.008 349.974,366.508 351.5,367.5 Z M 372.5,263.5 C 383.008,267.725 393.675,271.225 404.5,274C 402.957,272.286 401.29,270.786 399.5,269.5C 390.484,266.322 381.484,264.322 372.5,263.5 Z M 264.5,264.5 C 263.833,266.819 263.666,269.153 264,271.5C 265.609,270.853 267.109,270.02 268.5,269C 267.267,267.333 265.933,265.833 264.5,264.5 Z M 367.5,284.5 C 373.844,294.024 381.178,302.857 389.5,311C 390.759,311.982 392.092,312.315 393.5,312C 396.373,308.423 398.873,304.589 401,300.5C 401.749,299.365 401.583,298.365 400.5,297.5C 389.894,292.186 378.894,287.853 367.5,284.5 Z M 350.5,299.5 C 352.837,313.016 356.004,326.349 360,339.5C 365.636,338.633 370.469,335.8 374.5,331C 368.31,319.118 360.31,308.618 350.5,299.5 Z M 307.5,302.5 C 299.423,311.58 292.09,321.247 285.5,331.5C 288.494,335.082 291.994,338.082 296,340.5C 302.255,328.261 306.088,315.594 307.5,302.5 Z M 329.5,308.5 C 325.922,321.893 322.922,335.393 320.5,349C 325.586,349.849 330.586,350.016 335.5,349.5C 335.972,335.944 334.472,322.61 331,309.5C 330.617,308.944 330.117,308.611 329.5,308.5 Z"/></g>
<g><path style="opacity:1" fill="#000000" d="M 336.5,156.5 C 338.722,156.178 340.556,156.845 342,158.5C 342.493,162.028 341.66,165.195 339.5,168C 351.68,167.817 363.68,169.151 375.5,172C 384.131,175.562 391.631,180.729 398,187.5C 401.955,193.123 406.288,198.457 411,203.5C 426.539,223.325 431.872,245.659 427,270.5C 421.917,300.865 407.084,325.032 382.5,343C 373.484,347.782 364.15,351.782 354.5,355C 337.705,357.434 321.038,356.767 304.5,353C 294.723,349.368 286.223,343.868 279,336.5C 276.066,330.967 272.4,325.967 268,321.5C 254.069,294.687 252.736,267.354 264,239.5C 260.567,241.798 257.067,241.631 253.5,239C 250.001,229.504 253.001,226.171 262.5,229C 264.041,230.579 265.208,232.413 266,234.5C 278.738,202.095 301.571,180.262 334.5,169C 333.584,168.626 332.75,168.126 332,167.5C 330.391,162.391 331.891,158.725 336.5,156.5 Z M 372.5,263.5 C 383.008,267.725 393.675,271.225 404.5,274C 402.957,272.286 401.29,270.786 399.5,269.5C 390.484,266.322 381.484,264.322 372.5,263.5 Z M 264.5,264.5 C 263.833,266.819 263.666,269.153 264,271.5C 265.609,270.853 267.109,270.02 268.5,269C 267.267,267.333 265.933,265.833 264.5,264.5 Z M 367.5,284.5 C 373.844,294.024 381.178,302.857 389.5,311C 390.759,311.982 392.092,312.315 393.5,312C 396.373,308.423 398.873,304.589 401,300.5C 401.749,299.365 401.583,298.365 400.5,297.5C 389.894,292.186 378.894,287.853 367.5,284.5 Z M 350.5,299.5 C 352.837,313.016 356.004,326.349 360,339.5C 365.636,338.633 370.469,335.8 374.5,331C 368.31,319.118 360.31,308.618 350.5,299.5 Z M 307.5,302.5 C 299.423,311.58 292.09,321.247 285.5,331.5C 288.494,335.082 291.994,338.082 296,340.5C 302.255,328.261 306.088,315.594 307.5,302.5 Z M 329.5,308.5 C 325.922,321.893 322.922,335.393 320.5,349C 325.586,349.849 330.586,350.016 335.5,349.5C 335.972,335.944 334.472,322.61 331,309.5C 330.617,308.944 330.117,308.611 329.5,308.5 Z"/></g>
<g><path style="opacity:1" fill="#7e7f7e" d="M 337.5,157.5 C 342.503,159.426 342.503,160.759 337.5,161.5C 337.808,163.924 337.474,166.257 336.5,168.5C 332.532,167.04 331.532,164.374 333.5,160.5C 334.901,159.479 336.235,158.479 337.5,157.5 Z"/></g>
<g><path style="opacity:1" fill="#dfb83e" d="M 254.5,158.5 C 256.527,158.338 258.527,158.505 260.5,159C 257.424,161.315 254.924,164.149 253,167.5C 251.268,167.266 250.434,166.266 250.5,164.5C 250.866,161.744 252.2,159.744 254.5,158.5 Z"/></g>
<g><path style="opacity:1" fill="#d0ab3b" d="M 127.5,169.5 C 129.705,171.363 131.039,173.697 131.5,176.5C 123.5,177.167 115.5,177.833 107.5,178.5C 107.663,176.143 107.497,173.81 107,171.5C 107.307,181.007 105.474,190.007 101.5,198.5C 100.5,198.833 99.8333,199.5 99.5,200.5C 98.8333,200.5 98.5,200.833 98.5,201.5C 95.9683,201.171 94.9683,200.005 95.5,198C 92.6193,196.749 90.786,194.583 90,191.5C 88.4841,182.043 89.8174,173.043 94,164.5C 96.5286,161.968 99.5286,160.302 103,159.5C 111.223,162.523 119.39,165.857 127.5,169.5 Z"/></g>
<g><path style="opacity:1" fill="#dfb83e" d="M 262.5,160.5 C 269.841,160.334 277.174,160.5 284.5,161C 286.813,161.641 288.48,162.974 289.5,165C 286.923,168.258 284.59,167.924 282.5,164C 276.167,163.333 269.833,163.333 263.5,164C 260.307,165.026 258.974,167.192 259.5,170.5C 258.5,170.5 257.5,170.5 256.5,170.5C 256.992,166.169 258.992,162.836 262.5,160.5 Z"/></g>
<g><path style="opacity:1" fill="#7e7f7e" d="M 338.5,162.5 C 340.97,163.36 341.137,164.694 339,166.5C 338.51,165.207 338.343,163.873 338.5,162.5 Z"/></g>
<g><path style="opacity:1" fill="#dfb83e" d="M 135.5,165.5 C 138.795,170.255 141.129,175.422 142.5,181C 141.648,187.925 139.648,194.425 136.5,200.5C 133.723,203.353 131.39,203.02 129.5,199.5C 131.41,198.025 132.576,196.025 133,193.5C 134.901,186.477 134.901,179.477 133,172.5C 131.629,170.959 130.129,169.625 128.5,168.5C 129.757,165.039 132.09,164.039 135.5,165.5 Z"/></g>
<g><path style="opacity:1" fill="#a47e1e" d="M 135.5,165.5 C 137.674,165.75 139.341,166.75 140.5,168.5C 141.605,171.439 142.939,174.273 144.5,177C 177.821,178.806 211.154,180.306 244.5,181.5C 245.896,180.581 246.23,183.247 245.5,189.5C 239.491,189.334 233.491,189.501 227.5,190C 226.5,190.5 225.5,191 224.5,191.5C 222.857,196.02 221.857,200.687 221.5,205.5C 193.065,203.939 164.732,202.272 136.5,200.5C 139.648,194.425 141.648,187.925 142.5,181C 141.129,175.422 138.795,170.255 135.5,165.5 Z"/></g>
<g><path style="opacity:1" fill="#5d973b" d="M 265.5,167.5 C 266.964,166.84 268.631,166.507 270.5,166.5C 272.712,166.412 274.712,166.912 276.5,168C 272.871,167.89 269.204,167.724 265.5,167.5 Z"/></g>
<g><path style="opacity:1" fill="#dfb83e" d="M 277.5,167.5 C 279.185,166.156 280.852,166.323 282.5,168C 280.735,168.64 279.068,168.473 277.5,167.5 Z"/></g>
<g><path style="opacity:1" fill="#9e781e" d="M 128.5,168.5 C 130.129,169.625 131.629,170.959 133,172.5C 134.901,179.477 134.901,186.477 133,193.5C 132.576,196.025 131.41,198.025 129.5,199.5C 128.584,199.018 127.584,198.685 126.5,198.5C 118.669,201 110.669,202.666 102.5,203.5C 100.829,203.332 99.4961,202.665 98.5,201.5C 98.5,200.833 98.8333,200.5 99.5,200.5C 100.833,200.5 101.5,199.833 101.5,198.5C 105.474,190.007 107.307,181.007 107,171.5C 107.497,173.81 107.663,176.143 107.5,178.5C 115.5,177.833 123.5,177.167 131.5,176.5C 131.039,173.697 129.705,171.363 127.5,169.5C 127.5,168.833 127.833,168.5 128.5,168.5 Z"/></g>
<g><path style="opacity:1" fill="#deb63e" d="M 140.5,168.5 C 173.172,170.301 205.839,171.301 238.5,171.5C 238.833,170.5 239.5,169.833 240.5,169.5C 243.366,170.795 246.199,170.795 249,169.5C 250.622,170.099 252.122,170.766 253.5,171.5C 258.262,177.622 264.595,180.289 272.5,179.5C 272.5,180.167 272.167,180.5 271.5,180.5C 264.969,181.778 258.469,181.778 252,180.5C 251.503,182.81 251.337,185.143 251.5,187.5C 250.01,189.28 248.01,189.946 245.5,189.5C 246.23,183.247 245.896,180.581 244.5,181.5C 211.154,180.306 177.821,178.806 144.5,177C 142.939,174.273 141.605,171.439 140.5,168.5 Z"/></g>
<g><path style="opacity:1" fill="#dfb83e" d="M 277.5,175.5 C 272.795,176.901 268.129,176.734 263.5,175C 261.218,173.916 260.884,172.416 262.5,170.5C 263.274,169.853 264.274,169.52 265.5,169.5C 271.147,170.189 276.814,170.689 282.5,171C 280.963,172.707 279.296,174.207 277.5,175.5 Z"/></g>
<g><path style="opacity:1" fill="#000000" d="M 93.5,170.5 C 94.8221,170.33 95.9887,170.663 97,171.5C 97.7511,176.572 97.4178,181.572 96,186.5C 95.3848,188.116 94.3848,189.449 93,190.5C 89.7315,183.749 89.8982,177.082 93.5,170.5 Z"/></g>
<g><path style="opacity:1" fill="#a47e1e" d="M 262.5,170.5 C 260.884,172.416 261.218,173.916 263.5,175C 268.129,176.734 272.795,176.901 277.5,175.5C 276.055,177.063 274.389,178.396 272.5,179.5C 264.595,180.289 258.262,177.622 253.5,171.5C 254.817,171.821 256.151,172.154 257.5,172.5C 259.177,171.813 260.844,171.146 262.5,170.5 Z"/></g>
<g><path style="opacity:1" fill="#fefffe" d="M 350.5,172.5 C 354.193,171.082 357.86,171.415 361.5,173.5C 361.167,173.833 360.833,174.167 360.5,174.5C 357.34,172.973 354.007,172.307 350.5,172.5 Z"/></g>
<g><path style="opacity:1" fill="#5d973b" d="M 335.5,172.5 C 336.833,172.5 338.167,172.5 339.5,172.5C 337.866,192.124 336.866,211.791 336.5,231.5C 333.881,231.232 331.381,231.565 329,232.5C 329.661,227.844 330.661,223.178 332,218.5C 333.137,204.299 331.971,190.299 328.5,176.5C 330.482,174.436 332.816,173.103 335.5,172.5 Z"/></g>
<g><path style="opacity:1" fill="#5d973b" d="M 368.5,174.5 C 372.762,174.429 376.762,175.929 380.5,179C 370.151,195.864 360.984,213.364 353,231.5C 350.383,233.653 347.55,233.82 344.5,232C 355.202,217.768 363.702,202.268 370,185.5C 370.667,182.167 370.667,178.833 370,175.5C 369.617,174.944 369.117,174.611 368.5,174.5 Z"/></g>
<g><path style="opacity:1" fill="#dfb83e" d="M 362.5,185.5 C 355.766,188.676 348.766,189.343 341.5,187.5C 341.467,183.131 341.8,178.798 342.5,174.5C 349.226,174.873 355.893,175.706 362.5,177C 363.523,179.774 363.523,182.607 362.5,185.5 Z"/></g>
<g><path style="opacity:1" fill="#dfb83e" d="M 324.5,186.5 C 319.99,186.116 315.657,185.449 311.5,184.5C 314.933,181.941 318.599,179.608 322.5,177.5C 323.932,180.327 324.599,183.327 324.5,186.5 Z"/></g>
<g><path style="opacity:1" fill="#415028" d="M 366.5,179.5 C 366.684,186.487 364.851,193.153 361,199.5C 354.56,210.27 347.727,220.77 340.5,231C 339.5,231.667 338.5,231.667 337.5,231C 346.11,220.951 353.61,210.117 360,198.5C 363.257,192.564 365.423,186.231 366.5,179.5 Z"/></g>
<g><path style="opacity:1" fill="#a47e1e" d="M 271.5,180.5 C 270.368,182.799 268.535,184.132 266,184.5C 263.07,182.762 259.903,182.262 256.5,183C 254.963,184.707 253.296,186.207 251.5,187.5C 251.337,185.143 251.503,182.81 252,180.5C 258.469,181.778 264.969,181.778 271.5,180.5 Z"/></g>
<g><path style="opacity:1" fill="#dfb83e" d="M 390.5,191.5 C 388.956,191.297 387.622,190.63 386.5,189.5C 384.367,198.268 381.7,198.601 378.5,190.5C 382.298,179.296 386.298,179.629 390.5,191.5 Z"/></g>
<g><path style="opacity:1" fill="#7e7f7e" d="M 257.5,184.5 C 260.407,184.575 263.073,185.409 265.5,187C 264.833,187.667 264.167,188.333 263.5,189C 260.167,189.667 256.833,189.667 253.5,189C 255.041,187.629 256.375,186.129 257.5,184.5 Z"/></g>
<g><path style="opacity:1" fill="#a47e1e" d="M 311.5,184.5 C 315.657,185.449 319.99,186.116 324.5,186.5C 325.341,191.199 325.341,195.866 324.5,200.5C 315.372,200.776 309.038,196.776 305.5,188.5C 306.728,185.929 308.728,184.595 311.5,184.5 Z"/></g>
<g><path style="opacity:1" fill="#a47e1e" d="M 362.5,185.5 C 361.509,190.159 358.843,191.493 354.5,189.5C 350.416,190.188 346.416,191.188 342.5,192.5C 341.548,190.955 341.215,189.288 341.5,187.5C 348.766,189.343 355.766,188.676 362.5,185.5 Z"/></g>
<g><path style="opacity:1" fill="#fefffe" d="M 391.5,186.5 C 393.332,187.14 393.665,188.14 392.5,189.5C 391.614,188.675 391.281,187.675 391.5,186.5 Z"/></g>
<g><path style="opacity:1" fill="#a47e1e" d="M 390.5,191.5 C 390.664,194.187 390.497,196.854 390,199.5C 389.902,201.619 389.069,203.286 387.5,204.5C 383.961,200.799 379.961,197.632 375.5,195C 375.899,193.019 376.899,191.519 378.5,190.5C 381.7,198.601 384.367,198.268 386.5,189.5C 387.622,190.63 388.956,191.297 390.5,191.5 Z"/></g>
<g><path style="opacity:1" fill="#7e7f7e" d="M 301.5,190.5 C 303.554,194.058 306.22,197.225 309.5,200C 314.629,202.043 319.963,203.21 325.5,203.5C 325.5,204.5 325.5,205.5 325.5,206.5C 313.035,208.057 305.035,202.724 301.5,190.5 Z"/></g>
<g><path style="opacity:1" fill="#a47e1e" d="M 393.5,190.5 C 396.044,191.708 397.378,193.708 397.5,196.5C 392.74,196.799 391.406,194.799 393.5,190.5 Z"/></g>
<g><path style="opacity:1" fill="#c2c3c2" d="M 228.5,191.5 C 239.172,191.333 249.839,191.5 260.5,192C 259.833,193 259.167,194 258.5,195C 250.167,195.333 241.833,195.667 233.5,196C 231.683,197.8 230.516,199.966 230,202.5C 228.972,208.584 227.972,214.584 227,220.5C 232.022,221.966 237.189,222.966 242.5,223.5C 241.66,226.887 239.493,228.22 236,227.5C 231.15,226.886 226.316,226.219 221.5,225.5C 222.778,213.801 225.111,202.468 228.5,191.5 Z"/></g>
<g><path style="opacity:1" fill="#0c0c0c" d="M 424.5,202.5 C 422.847,203.799 421.347,203.466 420,201.5C 419.502,198.183 419.335,194.85 419.5,191.5C 425.052,191.911 427.218,194.911 426,200.5C 425.722,201.416 425.222,202.082 424.5,202.5 Z"/></g>
<g><path style="opacity:1" fill="#5d973b" d="M 297.5,192.5 C 304.904,204.432 311.737,216.766 318,229.5C 320.761,231.681 322.594,234.015 323.5,236.5C 321.5,237.5 319.5,238.5 317.5,239.5C 310.205,225.066 301.538,211.566 291.5,199C 293.027,196.31 295.027,194.143 297.5,192.5 Z"/></g>
<g><path style="opacity:1" fill="#7e7f7e" d="M 353.5,192.5 C 355.311,192.572 356.644,193.405 357.5,195C 355.467,198.898 353.3,202.732 351,206.5C 348.336,202.165 345.003,201.499 341,204.5C 340.182,201.773 340.348,199.106 341.5,196.5C 345.614,195.147 349.614,193.814 353.5,192.5 Z"/></g>
<g><path style="opacity:1" fill="#7e7f7e" d="M 424.5,202.5 C 420.664,201.63 420.164,200.297 423,198.5C 423.483,197.552 423.649,196.552 423.5,195.5C 422.5,195.5 421.5,195.5 420.5,195.5C 420.656,191.865 421.822,191.532 424,194.5C 425.656,197.053 425.823,199.719 424.5,202.5 Z"/></g>
<g><path style="opacity:1" fill="#7e7f7e" d="M 234.5,197.5 C 236.857,197.337 239.19,197.503 241.5,198C 239.073,205.114 236.74,212.28 234.5,219.5C 232.599,220.231 230.599,220.231 228.5,219.5C 230.226,212.064 232.226,204.73 234.5,197.5 Z"/></g>
<g><path style="opacity:1" fill="#2c6509" d="M 243.5,197.5 C 247.846,197.334 252.179,197.501 256.5,198C 251.866,204.763 247.866,211.93 244.5,219.5C 241.894,220.652 239.227,220.818 236.5,220C 239.133,212.601 241.466,205.101 243.5,197.5 Z"/></g>
<g><path style="opacity:1" fill="#fefffe" d="M 392.5,197.5 C 394.339,198.752 396.172,198.752 398,197.5C 398.5,198 399,198.5 399.5,199C 397.301,200.697 394.968,202.197 392.5,203.5C 391.769,201.599 391.769,199.599 392.5,197.5 Z"/></g>
<g><path style="opacity:1" fill="#000000" d="M 101.5,198.5 C 101.5,199.833 100.833,200.5 99.5,200.5C 99.8333,199.5 100.5,198.833 101.5,198.5 Z"/></g>
<g><path style="opacity:1" fill="#7e7f7e" d="M 372.5,198.5 C 378.004,200.34 382.337,203.673 385.5,208.5C 382.26,210.515 378.76,211.848 375,212.5C 371.824,211.489 369.991,209.322 369.5,206C 370.651,203.535 371.651,201.035 372.5,198.5 Z"/></g>
<g><path style="opacity:1" fill="#415028" d="M 328.5,199.5 C 330.021,207.803 329.521,216.136 327,224.5C 327.971,216.238 328.471,207.905 328.5,199.5 Z"/></g>
<g><path style="opacity:1" fill="#7e7f7e" d="M 137.5,202.5 C 138.675,202.281 139.675,202.614 140.5,203.5C 138.619,212.402 138.119,221.402 139,230.5C 140.612,238.118 141.945,245.784 143,253.5C 144.726,257.953 146.726,262.286 149,266.5C 149.667,267.5 149.667,268.5 149,269.5C 140.65,253.935 136.15,237.268 135.5,219.5C 136.167,213.814 136.834,208.148 137.5,202.5 Z"/></g>
<g><path style="opacity:1" fill="#5d973b" d="M 403.5,202.5 C 406.786,203.242 408.12,205.075 407.5,208C 392.333,219.167 377.167,230.333 362,241.5C 360.833,240.333 359.667,239.167 358.5,238C 375.411,228.589 390.411,216.756 403.5,202.5 Z"/></g>
<g><path style="opacity:1" fill="#5d963b" d="M 157.5,242.5 C 158.488,245.076 159.488,247.743 160.5,250.5C 162.584,262.366 168.417,271.7 178,278.5C 178.483,277.552 178.649,276.552 178.5,275.5C 181.243,274.612 183.91,273.445 186.5,272C 198.687,261.144 210.854,250.31 223,239.5C 224.257,239.85 224.591,240.517 224,241.5C 209.473,254.694 195.64,268.527 182.5,283C 190.129,292.983 200.129,297.816 212.5,297.5C 219.489,299.762 226.823,300.928 234.5,301C 235.78,305.944 237.446,310.777 239.5,315.5C 214.405,316.812 192.071,309.645 172.5,294C 178.725,292.686 180.058,289.352 176.5,284C 171.517,284.345 169.351,287.178 170,292.5C 158.144,281.126 150.144,267.459 146,251.5C 144.238,241.362 142.738,231.195 141.5,221C 141.747,215.106 142.414,209.273 143.5,203.5C 146.822,204.492 150.155,205.492 153.5,206.5C 154.994,206.291 156.161,205.624 157,204.5C 165.456,205.241 173.956,206.074 182.5,207C 184.842,209.786 187.842,211.453 191.5,212C 181.708,210.674 171.875,209.174 162,207.5C 159.296,207.185 157.296,208.185 156,210.5C 153.749,221.431 154.249,232.097 157.5,242.5 Z M 201.5,241.5 C 191.043,245.714 180.543,250.048 170,254.5C 169.48,256.289 169.813,257.956 171,259.5C 173.248,262.328 175.248,265.328 177,268.5C 185.833,259.667 194.667,250.833 203.5,242C 202.906,241.536 202.239,241.369 201.5,241.5 Z"/></g>
<g><path style="opacity:1" fill="#415028" d="M 395.5,203.5 C 396.239,203.369 396.906,203.536 397.5,204C 385.332,217.164 371.165,227.664 355,235.5C 364.094,228.647 373.594,221.813 383.5,215C 387.672,211.327 391.672,207.494 395.5,203.5 Z"/></g>
<g><path style="opacity:1" fill="#2c6509" d="M 344.5,204.5 C 346.922,205.085 348.589,206.585 349.5,209C 346.209,213.748 343.042,218.581 340,223.5C 339.581,217.77 340.081,212.103 341.5,206.5C 342.739,206.058 343.739,205.391 344.5,204.5 Z"/></g>
<g><path style="opacity:1" fill="#2c6509" d="M 287.5,205.5 C 294.884,214.578 301.551,224.245 307.5,234.5C 304.849,236.65 302.349,238.983 300,241.5C 290.433,237.638 281.6,232.638 273.5,226.5C 276.624,218.394 281.291,211.394 287.5,205.5 Z"/></g>
<g><path style="opacity:1" fill="#c2c3c2" d="M 185.5,207.5 C 190.032,206.467 194.698,206.634 199.5,208C 198.929,209.205 198.262,210.372 197.5,211.5C 193.363,210.468 189.363,209.135 185.5,207.5 Z"/></g>
<g><path style="opacity:1" fill="#2c6509" d="M 310.5,206.5 C 314.827,209.458 319.494,210.124 324.5,208.5C 324.697,214.877 323.697,221.211 321.5,227.5C 318.078,220.32 314.411,213.32 310.5,206.5 Z"/></g>
<g><path style="opacity:1" fill="#7e7f7e" d="M 201.5,207.5 C 203.604,207.201 205.604,207.534 207.5,208.5C 205.093,217.429 203.926,226.429 204,235.5C 199.599,232.196 197.433,227.696 197.5,222C 198.759,217.129 200.092,212.295 201.5,207.5 Z"/></g>
<g><path style="opacity:1" fill="#2c6509" d="M 209.5,207.5 C 213.099,208.344 216.766,208.677 220.5,208.5C 219.556,214.154 219.056,219.82 219,225.5C 221.268,226.76 223.434,228.094 225.5,229.5C 224.607,232.084 224.274,234.751 224.5,237.5C 219.821,237.666 215.155,237.499 210.5,237C 207.528,235.859 205.861,233.692 205.5,230.5C 206.832,222.839 208.165,215.172 209.5,207.5 Z"/></g>
<g><path style="opacity:1" fill="#2c6509" d="M 367.5,208.5 C 369.804,212.985 373.47,214.819 378.5,214C 371.322,219.561 363.988,224.561 356.5,229C 361.082,222.67 364.749,215.836 367.5,208.5 Z"/></g>
<g><path style="opacity:1" fill="#fefffe" d="M 160.5,210.5 C 172.663,212.193 184.663,214.526 196.5,217.5C 195.805,221.534 195.472,225.534 195.5,229.5C 183.957,233.136 172.29,235.97 160.5,238C 156.555,228.776 156.555,219.61 160.5,210.5 Z M 162.5,214.5 C 160.656,220.489 160.49,226.489 162,232.5C 162.388,233.428 163.055,234.095 164,234.5C 173.407,231.983 182.74,229.316 192,226.5C 192.957,223.621 192.457,221.121 190.5,219C 181.173,217.39 171.84,215.89 162.5,214.5 Z"/></g>
<g><path style="opacity:1" fill="#fefffe" d="M 409.5,210.5 C 410.496,210.414 411.329,210.748 412,211.5C 412.837,213.821 413.17,216.155 413,218.5C 410.417,217.126 407.917,215.626 405.5,214C 406.731,212.595 408.064,211.429 409.5,210.5 Z"/></g>
<g><path style="opacity:1" fill="#2c6509" d="M 401.5,216.5 C 406.547,218.774 411.381,221.44 416,224.5C 417.634,227.801 417.468,231.134 415.5,234.5C 398.962,240.308 381.962,243.475 364.5,244C 377.016,234.97 389.35,225.803 401.5,216.5 Z"/></g>
<g><path style="opacity:1" fill="#c2c3c2" d="M 452.5,220.5 C 455.425,220.46 458.091,221.293 460.5,223C 464.633,226.131 468.466,229.631 472,233.5C 473.124,236.442 473.458,239.442 473,242.5C 471.347,248.325 468.847,253.658 465.5,258.5C 464.692,258.192 464.025,257.692 463.5,257C 467.897,250.811 470.064,243.978 470,236.5C 468.058,231.58 464.558,228.08 459.5,226C 457.536,225.376 455.869,225.876 454.5,227.5C 452.433,235.031 449.767,242.365 446.5,249.5C 445.176,250.687 444.176,250.354 443.5,248.5C 445.885,244.397 447.718,240.064 449,235.5C 449.299,230.159 450.465,225.159 452.5,220.5 Z"/></g>
<g><path style="opacity:1" fill="#5d973b" d="M 477.5,221.5 C 490.574,225.358 503.574,229.524 516.5,234C 505.685,236.579 494.851,239.079 484,241.5C 481.208,240.784 478.374,240.451 475.5,240.5C 475.308,237.399 474.642,234.399 473.5,231.5C 471.016,229.517 468.683,227.35 466.5,225C 470.173,223.639 473.84,222.473 477.5,221.5 Z"/></g>
<g><path style="opacity:1" fill="#5d973b" d="M 457.5,228.5 C 458.721,227.535 460.054,227.702 461.5,229C 462.729,230.529 464.229,231.696 466,232.5C 466.667,233.167 466.667,233.833 466,234.5C 463.287,232.28 460.454,230.28 457.5,228.5 Z"/></g>
<g><path style="opacity:1" fill="#7e7f7e" d="M 227.5,228.5 C 229.806,228.993 232.139,229.326 234.5,229.5C 234.427,235.895 233.761,242.228 232.5,248.5C 230.5,247.167 228.833,245.5 227.5,243.5C 226.334,238.497 226.334,233.497 227.5,228.5 Z"/></g>
<g><path style="opacity:1" fill="#7e7f7e" d="M 256.5,228.5 C 262.814,229.144 265.148,232.477 263.5,238.5C 260.311,240.535 257.145,240.201 254,237.5C 252.779,233.718 253.613,230.718 256.5,228.5 Z"/></g>
<g><path style="opacity:1" fill="#7e7f7e" d="M 420.5,228.5 C 421.738,230.214 422.405,232.214 422.5,234.5C 421.5,234.5 420.5,234.5 419.5,234.5C 419.833,232.5 420.167,230.5 420.5,228.5 Z"/></g>
<g><path style="opacity:1" fill="#2c6509" d="M 236.5,229.5 C 237.675,229.281 238.675,229.614 239.5,230.5C 238.332,234.227 237.165,237.893 236,241.5C 236.353,237.587 236.52,233.587 236.5,229.5 Z"/></g>
<g><path style="opacity:1" fill="#2c6509" d="M 442.5,230.5 C 444.924,229.597 446.924,230.431 448.5,233C 446.447,233.325 444.447,232.991 442.5,232C 443.738,231.31 443.738,230.81 442.5,230.5 Z"/></g>
<g><path style="opacity:1" fill="#5d973b" d="M 271.5,230.5 C 284.561,238.531 298.228,245.198 312.5,250.5C 311.905,253.317 310.572,255.65 308.5,257.5C 295.504,250.835 281.838,246.168 267.5,243.5C 268.042,238.877 269.376,234.543 271.5,230.5 Z"/></g>
<g><path style="opacity:1" fill="#5d973b" d="M 160.5,250.5 C 159.488,247.743 158.488,245.076 157.5,242.5C 170.439,240.012 183.773,236.679 197.5,232.5C 198.287,233.242 198.953,234.075 199.5,235C 185.909,239.836 172.909,245.003 160.5,250.5 Z"/></g>
<g><path style="opacity:1" fill="#c2c3c2" d="M 454.5,232.5 C 459.848,234.016 464.515,236.85 468.5,241C 463.945,240.235 459.612,238.568 455.5,236C 454.663,234.989 454.33,233.822 454.5,232.5 Z"/></g>
<g><path style="opacity:1" fill="#415028" d="M 331.5,234.5 C 343.081,233.226 352.748,236.726 360.5,245C 348.295,238.015 337.128,239.848 327,250.5C 320.883,262.197 319.883,274.197 324,286.5C 319.95,284.068 317.95,280.401 318,275.5C 313.694,270.569 312.028,264.903 313,258.5C 315.152,253.553 317.152,248.553 319,243.5C 323.885,241.441 328.052,238.441 331.5,234.5 Z"/></g>
<g><path style="opacity:1" fill="#2c6509" d="M 442.5,234.5 C 446.794,235.977 447.294,238.643 444,242.5C 443.178,239.883 442.678,237.216 442.5,234.5 Z"/></g>
<g><path style="opacity:1" fill="#5d973b" d="M 521.5,235.5 C 526.582,243.098 531.915,250.598 537.5,258C 535.098,258.814 532.765,258.647 530.5,257.5C 527.043,252.754 523.71,247.92 520.5,243C 514.268,243.351 508.268,244.851 502.5,247.5C 499.204,246.235 495.871,245.068 492.5,244C 502.213,241.096 511.879,238.263 521.5,235.5 Z"/></g>
<g><path style="opacity:1" fill="#fefffe" d="M 201.5,237.5 C 204.733,238.609 208.066,239.442 211.5,240C 200.247,251.924 188.414,263.09 176,273.5C 170.713,267.583 167.047,260.916 165,253.5C 166.214,251.951 167.714,250.785 169.5,250C 180.384,246.1 191.051,241.933 201.5,237.5 Z M 201.5,241.5 C 191.043,245.714 180.543,250.048 170,254.5C 169.48,256.289 169.813,257.956 171,259.5C 173.248,262.328 175.248,265.328 177,268.5C 185.833,259.667 194.667,250.833 203.5,242C 202.906,241.536 202.239,241.369 201.5,241.5 Z"/></g>
<g><path style="opacity:1" fill="#415028" d="M 415.5,237.5 C 417.705,237.846 417.872,238.513 416,239.5C 399.898,243.756 383.731,246.756 367.5,248.5C 383.772,245.582 399.772,241.915 415.5,237.5 Z"/></g>
<g><path style="opacity:1" fill="#415028" d="M 307.5,238.5 C 309.734,239.704 312.067,240.87 314.5,242C 315.388,243.717 314.721,244.884 312.5,245.5C 309.674,244.892 307.008,243.892 304.5,242.5C 305.524,241.148 306.524,239.815 307.5,238.5 Z"/></g>
<g><path style="opacity:1" fill="#7e7f7e" d="M 216.5,239.5 C 217.239,239.369 217.906,239.536 218.5,240C 217,241.5 215.5,243 214,244.5C 214.058,242.565 214.891,240.898 216.5,239.5 Z"/></g>
<g><path style="opacity:1" fill="#5d973b" d="M 422.5,239.5 C 423.496,239.414 424.329,239.748 425,240.5C 425.825,244.211 425.659,247.878 424.5,251.5C 423.5,251 422.5,250.5 421.5,250C 403.621,249.191 385.954,250.691 368.5,254.5C 368.36,252.876 369.027,251.71 370.5,251C 388.505,249.617 405.838,245.784 422.5,239.5 Z"/></g>
<g><path style="opacity:1" fill="#2c6509" d="M 452.5,239.5 C 457.277,240.804 461.777,242.804 466,245.5C 465.288,248.947 463.955,252.281 462,255.5C 459.062,249.327 454.729,247.994 449,251.5C 450.035,247.55 451.202,243.55 452.5,239.5 Z"/></g>
<g><path style="opacity:1" fill="#5d973b" d="M 344.5,242.5 C 347.187,242.336 349.854,242.503 352.5,243C 353.895,246.457 355.562,249.791 357.5,253C 356.167,253.667 354.833,253.667 353.5,253C 350.872,250.246 348.872,247.079 347.5,243.5C 346.652,247.667 347.985,251.167 351.5,254C 349.212,254.418 347.212,253.751 345.5,252C 344.174,249.842 342.507,248.008 340.5,246.5C 340.534,250.316 342.534,253.149 346.5,255C 345.534,256.678 344.201,257.345 342.5,257C 339.6,253.727 336.267,251.894 332.5,251.5C 335.202,253.942 338.035,256.276 341,258.5C 341.215,260.42 340.548,262.086 339,263.5C 334.493,261.334 330.66,258.334 327.5,254.5C 328.592,251.906 330.259,249.739 332.5,248C 336.475,245.854 340.475,244.02 344.5,242.5 Z"/></g>
<g><path style="opacity:1" fill="#5d973b" d="M 474.5,243.5 C 479.299,244.908 483.632,247.408 487.5,251C 483.352,250.224 479.352,248.724 475.5,246.5C 474.614,245.675 474.281,244.675 474.5,243.5 Z"/></g>
<g><path style="opacity:1" fill="#b9b9b9" d="M 503.5,251.5 C 503.768,253.099 503.434,254.432 502.5,255.5C 495.578,253.039 489.244,249.539 483.5,245C 489.847,245.442 496.014,246.942 502,249.5C 503.03,249.836 503.53,250.503 503.5,251.5 Z"/></g>
<g><path style="opacity:1" fill="#fefffe" d="M 223.5,246.5 C 224.043,246.56 224.376,246.893 224.5,247.5C 219.333,262.5 214.167,277.5 209,292.5C 207.915,293.293 206.748,293.96 205.5,294.5C 198.495,292.338 192.495,288.671 187.5,283.5C 188.531,282.3 189.365,280.966 190,279.5C 201.062,268.271 212.228,257.271 223.5,246.5 Z M 214.5,261.5 C 207.062,268.437 199.729,275.603 192.5,283C 196.418,285.877 200.585,288.377 205,290.5C 208.588,281.239 212.088,271.906 215.5,262.5C 215.376,261.893 215.043,261.56 214.5,261.5 Z"/></g>
<g><path style="opacity:1" fill="#5d973b" d="M 265.5,246.5 C 276.48,248.548 287.147,251.715 297.5,256C 291.164,256.152 284.83,255.819 278.5,255C 277.743,253.488 276.743,252.154 275.5,251C 271.728,250.594 268.061,249.761 264.5,248.5C 264.863,247.817 265.196,247.15 265.5,246.5 Z"/></g>
<g><path style="opacity:1" fill="#5d973b" d="M 356.5,247.5 C 356.897,246.475 357.563,246.308 358.5,247C 360.373,249.209 362.54,251.042 365,252.5C 365.667,253.833 365.667,255.167 365,256.5C 363.559,255.13 361.892,254.13 360,253.5C 359.059,251.273 357.892,249.273 356.5,247.5 Z"/></g>
<g><path style="opacity:1" fill="#5d973b" d="M 526.5,260.5 C 522.134,257.988 517.467,255.988 512.5,254.5C 510.967,252.645 509.3,250.812 507.5,249C 511.108,247.677 514.775,247.011 518.5,247C 521.211,250.922 524.045,254.756 527,258.5C 527.692,259.437 527.525,260.103 526.5,260.5 Z"/></g>
<g><path style="opacity:1" fill="#5d973b" d="M 212.5,297.5 C 212.082,296.778 211.416,296.278 210.5,296C 217,280.148 222.834,263.981 228,247.5C 229.214,249.049 230.714,250.215 232.5,251C 226.835,265.152 222.169,279.652 218.5,294.5C 218.608,295.442 218.941,296.275 219.5,297C 217.19,297.497 214.857,297.663 212.5,297.5 Z"/></g>
<g><path style="opacity:1" fill="#2c6509" d="M 472.5,249.5 C 492.191,258.841 512.524,266.507 533.5,272.5C 529.976,284.574 526.142,296.574 522,308.5C 495.17,297.556 468.503,286.223 442,274.5C 442.396,267.2 443.063,259.867 444,252.5C 445.067,253.191 446.234,253.691 447.5,254C 444.783,264.276 448.449,268.276 458.5,266C 460.213,264.075 461.547,261.908 462.5,259.5C 464.516,260.706 466.516,260.706 468.5,259.5C 470.4,256.371 471.733,253.037 472.5,249.5 Z"/></g>
<g><path style="opacity:1" fill="#6b6b6b" d="M 451.5,251.5 C 459.459,252.08 461.626,256.08 458,263.5C 452.277,266.968 449.11,265.301 448.5,258.5C 448.695,255.782 449.695,253.449 451.5,251.5 Z"/></g>
<g><path style="opacity:1" fill="#c2c3c2" d="M 503.5,251.5 C 508.923,251.603 509.756,253.603 506,257.5C 504.698,256.915 503.531,256.249 502.5,255.5C 503.434,254.432 503.768,253.099 503.5,251.5 Z"/></g>
<g><path style="opacity:1" fill="#5d953b" d="M 265.5,253.5 C 265.897,252.475 266.563,252.308 267.5,253C 273.827,257.992 280.66,262.159 288,265.5C 291.322,265.301 293.489,263.635 294.5,260.5C 296.966,259.119 298.966,259.619 300.5,262C 296.167,263.833 291.833,265.667 287.5,267.5C 286.914,267.291 286.414,266.957 286,266.5C 284.084,268.209 281.918,269.543 279.5,270.5C 275.054,264.579 270.387,258.912 265.5,253.5 Z"/></g>
<g><path style="opacity:1" fill="#2c6509" d="M 401.5,252.5 C 404.167,252.5 406.833,252.5 409.5,252.5C 409.186,255.947 408.352,259.28 407,262.5C 406.275,263.059 405.442,263.392 404.5,263.5C 395.254,260.688 385.92,258.188 376.5,256C 385.011,255.063 393.345,253.897 401.5,252.5 Z"/></g>
<g><path style="opacity:1" fill="#7e7f7e" d="M 413.5,252.5 C 414.978,252.238 416.311,252.571 417.5,253.5C 416.655,258.892 415.488,264.225 414,269.5C 412.644,268.62 411.144,268.286 409.5,268.5C 410.627,263.118 411.96,257.785 413.5,252.5 Z"/></g>
<g><path style="opacity:1" fill="#415028" d="M 420.5,253.5 C 423.175,254.175 424.842,255.842 425.5,258.5C 424.549,265.92 423.216,273.254 421.5,280.5C 419.143,280.663 416.81,280.497 414.5,280C 417.581,271.431 419.581,262.598 420.5,253.5 Z"/></g>
<g><path style="opacity:1" fill="#5f5f5f" d="M 512.5,254.5 C 517.467,255.988 522.134,257.988 526.5,260.5C 531.809,262.187 531.809,263.854 526.5,265.5C 520.871,264.071 515.537,262.071 510.5,259.5C 510.082,258.778 509.416,258.278 508.5,258C 509.532,256.373 510.866,255.207 512.5,254.5 Z"/></g>
<g><path style="opacity:1" fill="#fefffe" d="M 262.5,255.5 C 267.172,260.318 271.505,265.485 275.5,271C 270.381,273.777 265.048,274.943 259.5,274.5C 260.427,268.154 261.427,261.82 262.5,255.5 Z M 264.5,264.5 C 263.833,266.819 263.666,269.153 264,271.5C 265.609,270.853 267.109,270.02 268.5,269C 267.267,267.333 265.933,265.833 264.5,264.5 Z"/></g>
<g><path style="opacity:1" fill="#5d973b" d="M 354.5,256.5 C 362.854,257.36 366.687,262.027 366,270.5C 361.108,262.516 355.108,261.516 348,267.5C 344.085,273.761 344.918,279.261 350.5,284C 350,284.167 349.5,284.333 349,284.5C 338.31,276.763 337.81,268.263 347.5,259C 349.927,258.098 352.26,257.264 354.5,256.5 Z"/></g>
<g><path style="opacity:1" fill="#5d973b" d="M 325.5,257.5 C 329.875,260.019 333.875,263.019 337.5,266.5C 337.333,267.167 337.167,267.833 337,268.5C 332.638,267.139 328.138,266.472 323.5,266.5C 324.01,263.461 324.677,260.461 325.5,257.5 Z"/></g>
<g><path style="opacity:1" fill="#fefffe" d="M 368.5,257.5 C 379.901,260.184 391.234,263.184 402.5,266.5C 404.29,267.786 405.957,269.286 407.5,271C 409.608,271.36 411.608,272.027 413.5,273C 412.773,274.399 412.273,275.899 412,277.5C 411.326,278.578 410.326,279.245 409,279.5C 396.229,276.132 383.729,271.965 371.5,267C 368.973,264.411 367.973,261.244 368.5,257.5 Z M 372.5,263.5 C 383.008,267.725 393.675,271.225 404.5,274C 402.957,272.286 401.29,270.786 399.5,269.5C 390.484,266.322 381.484,264.322 372.5,263.5 Z"/></g>
<g><path style="opacity:1" fill="#fefffe" d="M 282.5,259.5 C 285.196,258.227 287.862,258.561 290.5,260.5C 289.833,260.833 289.167,261.167 288.5,261.5C 286.484,260.822 284.484,260.156 282.5,259.5 Z"/></g>
<g><path style="opacity:1" fill="#5d973b" d="M 510.5,259.5 C 515.537,262.071 520.871,264.071 526.5,265.5C 526.918,266.222 527.584,266.722 528.5,267C 527.167,267.667 525.833,267.667 524.5,267C 518.266,264.382 511.932,262.049 505.5,260C 507.134,259.506 508.801,259.34 510.5,259.5 Z"/></g>
<g><path style="opacity:1" fill="#5d973b" d="M 307.5,262.5 C 310.539,269.1 313.539,275.933 316.5,283C 315.5,283.333 314.5,283.667 313.5,284C 300.526,297.968 288.693,312.802 278,328.5C 275.833,325.667 273.667,322.833 271.5,320C 286.935,308.071 299.268,293.571 308.5,276.5C 307.777,274.218 307.443,271.884 307.5,269.5C 291.278,274.022 275.945,280.689 261.5,289.5C 259.037,285.867 259.037,282.367 261.5,279C 277.469,274.957 292.803,269.457 307.5,262.5 Z"/></g>
<g><path style="opacity:1" fill="#fefffe" d="M 230.5,264.5 C 231.457,275.356 232.457,286.356 233.5,297.5C 230.482,297.665 227.482,297.498 224.5,297C 223.376,296.161 222.709,294.994 222.5,293.5C 225.172,283.821 227.838,274.154 230.5,264.5 Z M 228.5,284.5 C 227.916,287.003 227.249,289.503 226.5,292C 227.059,294.188 228.393,294.854 230.5,294C 229.868,290.73 229.201,287.563 228.5,284.5 Z"/></g>
<g><path style="opacity:1" fill="#7e7f7e" d="M 353.5,265.5 C 360.797,265.864 361.464,266.698 355.5,268C 349.473,271.486 347.973,276.319 351,282.5C 345.947,275.936 346.781,270.269 353.5,265.5 Z"/></g>
<g><path style="opacity:1" fill="#5d973b" d="M 323.5,268.5 C 327.534,268.672 331.534,269.172 335.5,270C 337.107,271.049 337.773,272.549 337.5,274.5C 332.822,272.852 328.322,273.186 324,275.5C 323.503,273.19 323.337,270.857 323.5,268.5 Z"/></g>
<g><path style="opacity:1" fill="#7e7f7e" d="M 570.5,268.5 C 573.32,268.248 575.986,268.748 578.5,270C 569.574,271.208 560.907,273.375 552.5,276.5C 547.011,273.877 541.344,271.711 535.5,270C 541.087,270.704 546.753,271.204 552.5,271.5C 558.796,271.503 564.796,270.503 570.5,268.5 Z"/></g>
<g><path style="opacity:1" fill="#7e7f7e" d="M 356.5,269.5 C 363.037,270.178 365.204,273.511 363,279.5C 357.697,284.953 353.864,283.953 351.5,276.5C 352.06,273.288 353.727,270.955 356.5,269.5 Z"/></g>
<g><path style="opacity:1" fill="#5d973b" d="M 369.5,270.5 C 379.761,274.087 390.094,277.587 400.5,281C 407.093,282.466 413.759,283.466 420.5,284C 418.21,289.419 416.043,294.919 414,300.5C 411.167,296.333 407.667,292.833 403.5,290C 391.702,285.068 379.702,280.734 367.5,277C 369.25,275.246 369.917,273.079 369.5,270.5 Z"/></g>
<g><path style="opacity:1" fill="#2c6509" d="M 577.5,273.5 C 587.608,272.36 591.108,276.693 588,286.5C 588.044,280.542 585.21,278.375 579.5,280C 573.186,283.596 571.52,288.596 574.5,295C 576.392,295.973 578.392,296.64 580.5,297C 567.333,310.004 551.667,314.504 533.5,310.5C 537.248,299.668 540.914,288.835 544.5,278C 548.312,279.306 552.312,279.639 556.5,279C 563.388,276.306 570.388,274.473 577.5,273.5 Z"/></g>
<g><path style="opacity:1" fill="#fefffe" d="M 302.5,274.5 C 304.344,275.204 304.844,276.537 304,278.5C 294.776,293.057 283.443,305.724 270,316.5C 267.334,313.881 266.501,310.881 267.5,307.5C 281.433,298.901 293.099,287.901 302.5,274.5 Z"/></g>
<g><path style="opacity:1" fill="#7e7f7e" d="M 535.5,274.5 C 537.96,274.699 540.293,275.365 542.5,276.5C 539.001,287.161 535.501,297.828 532,308.5C 531.612,309.428 530.945,310.095 530,310.5C 527.736,310.146 525.902,309.146 524.5,307.5C 528.372,296.55 532.039,285.55 535.5,274.5 Z"/></g>
<g><path style="opacity:1" fill="#7e7f7e" d="M 158.5,285.5 C 156.653,283.818 155.153,281.818 154,279.5C 153.018,278.241 152.685,276.908 153,275.5C 155.495,278.502 157.329,281.835 158.5,285.5 Z"/></g>
<g><path style="opacity:1" fill="#5d973b" d="M 328.5,275.5 C 332.056,275.642 335.39,276.476 338.5,278C 335.241,279.211 332.408,281.044 330,283.5C 329.251,284.635 329.417,285.635 330.5,286.5C 334.023,280.811 338.023,279.977 342.5,284C 339.147,289.941 334.481,290.941 328.5,287C 325.786,284.57 324.119,281.57 323.5,278C 325.315,277.243 326.981,276.41 328.5,275.5 Z"/></g>
<g><path style="opacity:1" fill="#5d973b" d="M 292.5,277.5 C 295.907,277.125 296.407,278.125 294,280.5C 285.818,290.192 276.318,298.192 265.5,304.5C 263.867,301.099 262.534,297.599 261.5,294C 271.609,287.947 281.943,282.447 292.5,277.5 Z"/></g>
<g><path style="opacity:1" fill="#fefffe" d="M 365.5,279.5 C 376.921,283.375 388.254,287.542 399.5,292C 402.524,293.513 405.191,295.513 407.5,298C 403.527,305.448 398.694,312.281 393,318.5C 381.747,309.668 372.08,299.334 364,287.5C 363.097,286.299 361.931,285.465 360.5,285C 363.079,283.924 364.746,282.091 365.5,279.5 Z M 367.5,284.5 C 373.844,294.024 381.178,302.857 389.5,311C 390.759,311.982 392.092,312.315 393.5,312C 396.373,308.423 398.873,304.589 401,300.5C 401.749,299.365 401.583,298.365 400.5,297.5C 389.894,292.186 378.894,287.853 367.5,284.5 Z"/></g>
<g><path style="opacity:1" fill="#7b7b7b" d="M 580.5,281.5 C 584.49,280.824 586.157,282.49 585.5,286.5C 585.172,292.481 582.172,294.814 576.5,293.5C 574.081,290.501 574.247,287.501 577,284.5C 578.145,283.364 579.312,282.364 580.5,281.5 Z"/></g>
<g><path style="opacity:1" fill="#000000" d="M 580.5,283.5 C 581.833,283.5 583.167,283.5 584.5,283.5C 584.653,289.324 583.987,289.657 582.5,284.5C 581.158,286.342 579.491,287.842 577.5,289C 578.623,290.044 579.956,290.71 581.5,291C 579.075,291.986 577.409,291.319 576.5,289C 578.413,287.587 579.746,285.754 580.5,283.5 Z"/></g>
<g><path style="opacity:1" fill="#7e7f7e" d="M 174.5,284.5 C 178.606,287.416 178.439,290.083 174,292.5C 172.268,292.266 171.434,291.266 171.5,289.5C 172.092,287.577 173.092,285.911 174.5,284.5 Z"/></g>
<g><path style="opacity:1" fill="#7e7f7e" d="M 158.5,285.5 C 161.903,287.9 164.57,290.9 166.5,294.5C 163.097,292.1 160.43,289.1 158.5,285.5 Z"/></g>
<g><path style="opacity:1" fill="#5d973b" d="M 353.5,285.5 C 355.5,285.5 357.5,285.5 359.5,285.5C 359.608,287.783 360.441,289.783 362,291.5C 370.111,302.945 379.611,313.112 390.5,322C 391.861,324.264 391.694,326.43 390,328.5C 388.019,330.657 385.686,332.324 383,333.5C 381.012,325.876 377.679,318.876 373,312.5C 365.853,303.718 358.353,295.218 350.5,287C 351.737,286.768 352.737,286.268 353.5,285.5 Z"/></g>
<g><path style="opacity:1" fill="#000000" d="M 543.5,286.5 C 549.093,286.193 554.593,286.527 560,287.5C 560.587,293.786 560.087,299.953 558.5,306C 552.873,306.596 547.373,306.096 542,304.5C 541.515,298.388 542.015,292.388 543.5,286.5 Z"/></g>
<g><path style="opacity:1" fill="#7e7f7e" d="M 426.5,287.5 C 430.487,287.652 431.987,289.652 431,293.5C 427.408,293.074 425.908,291.074 426.5,287.5 Z"/></g>
<g><path style="opacity:1" fill="#fefffe" d="M 346.5,288.5 C 357.603,299.439 367.437,311.439 376,324.5C 376.934,327.136 377.768,329.803 378.5,332.5C 372.948,339.112 365.948,343.446 357.5,345.5C 352.61,327.721 348.61,309.721 345.5,291.5C 345.685,290.416 346.018,289.416 346.5,288.5 Z M 350.5,299.5 C 352.837,313.016 356.004,326.349 360,339.5C 365.636,338.633 370.469,335.8 374.5,331C 368.31,319.118 360.31,308.618 350.5,299.5 Z"/></g>
<g><path style="opacity:1" fill="#7e7f7e" d="M 557.5,296.5 C 557.5,299.167 557.5,301.833 557.5,304.5C 552.833,304.167 548.167,303.833 543.5,303.5C 543.916,298.507 544.249,293.507 544.5,288.5C 549.167,288.5 553.833,288.5 558.5,288.5C 558.806,291.385 558.473,294.052 557.5,296.5 Z"/></g>
<g><path style="opacity:1" fill="#fefffe" d="M 312.5,289.5 C 312.229,309.237 307.229,327.903 297.5,345.5C 290.425,342.473 284.758,337.807 280.5,331.5C 285.138,324.362 289.972,317.362 295,310.5C 301.445,303.9 307.278,296.9 312.5,289.5 Z M 307.5,302.5 C 299.423,311.58 292.09,321.247 285.5,331.5C 288.494,335.082 291.994,338.082 296,340.5C 302.255,328.261 306.088,315.594 307.5,302.5 Z"/></g>
<g><path style="opacity:1" fill="#5d973b" d="M 321.5,289.5 C 323.589,289.857 325.589,290.523 327.5,291.5C 321.236,311.222 316.236,331.222 312.5,351.5C 308.972,350.894 305.639,349.728 302.5,348C 307.941,340.879 312.108,333.046 315,324.5C 317.599,312.905 319.766,301.238 321.5,289.5 Z"/></g>
<g><path style="opacity:1" fill="#000000" d="M 557.5,296.5 C 555.539,298.312 553.206,299.312 550.5,299.5C 550.178,297.278 550.845,295.444 552.5,294C 551.663,292.989 551.33,291.822 551.5,290.5C 555.833,290.167 557.833,292.167 557.5,296.5 Z"/></g>
<g><path style="opacity:1" fill="#5d973b" d="M 354.5,349.5 C 353.833,349.5 353.5,349.833 353.5,350.5C 351.067,352.05 348.567,352.384 346,351.5C 345.377,331.544 342.211,312.044 336.5,293C 338.436,292.187 340.436,291.687 342.5,291.5C 345.117,310.757 349.451,329.591 355.5,348C 354.944,348.383 354.611,348.883 354.5,349.5 Z"/></g>
<g><path style="opacity:1" fill="#000000" d="M 532.5,291.5 C 535.861,292.203 536.194,293.537 533.5,295.5C 531.358,294.563 531.024,293.23 532.5,291.5 Z"/></g>
<g><path style="opacity:1" fill="#7e7f7e" d="M 552.5,292.5 C 554.268,291.493 555.601,292.159 556.5,294.5C 552.059,299.593 551.059,299.426 553.5,294C 553.43,293.235 553.097,292.735 552.5,292.5 Z"/></g>
<g><path style="opacity:1" fill="#7e7f7e" d="M 425.5,292.5 C 428.946,292.647 430.446,294.314 430,297.5C 427.33,296.776 425.83,295.109 425.5,292.5 Z"/></g>
<g><path style="opacity:1" fill="#7e7f7e" d="M 166.5,294.5 C 175.252,301.377 184.919,306.877 195.5,311C 184.041,308.72 174.374,303.22 166.5,294.5 Z"/></g>
<g><path style="opacity:1" fill="#fefffe" d="M 329.5,294.5 C 330.586,294.62 331.253,295.287 331.5,296.5C 337.115,314.757 339.449,333.424 338.5,352.5C 331.147,353.501 323.813,353.167 316.5,351.5C 319.733,332.235 324.066,313.235 329.5,294.5 Z M 329.5,308.5 C 325.922,321.893 322.922,335.393 320.5,349C 325.586,349.849 330.586,350.016 335.5,349.5C 335.972,335.944 334.472,322.61 331,309.5C 330.617,308.944 330.117,308.611 329.5,308.5 Z"/></g>
<g><path style="opacity:1" fill="#415028" d="M 315.5,296.5 C 315.87,309.704 313.037,322.37 307,334.5C 310.727,322.125 313.56,309.458 315.5,296.5 Z"/></g>
<g><path style="opacity:1" fill="#7e7f7e" d="M 425.5,296.5 C 427.958,296.926 429.124,298.259 429,300.5C 426.929,299.897 425.762,298.564 425.5,296.5 Z"/></g>
<g><path style="opacity:1" fill="#414f28" d="M 353.5,350.5 C 353.5,349.833 353.833,349.5 354.5,349.5C 360.225,348.758 365.559,346.925 370.5,344C 376.166,339.5 382.166,335.5 388.5,332C 396.056,322.267 403.056,312.1 409.5,301.5C 410.672,301.919 411.672,302.585 412.5,303.5C 400.155,327.679 380.989,343.679 355,351.5C 354.235,351.43 353.735,351.097 353.5,350.5 Z"/></g>
<g><path style="opacity:1" fill="#000000" d="M 272.5,341.5 C 271.415,344.294 269.582,344.961 267,343.5C 264.841,339.808 265.007,336.308 267.5,333C 273.413,331.959 275.913,334.459 275,340.5C 274.329,341.252 273.496,341.586 272.5,341.5 Z"/></g>
<g><path style="opacity:1" fill="#7e7f7e" d="M 272.5,341.5 C 268.75,344.324 266.75,343.157 266.5,338C 269.236,331.841 271.903,332.008 274.5,338.5C 273.807,339.518 273.141,340.518 272.5,341.5 Z"/></g>
<g><path style="opacity:1" fill="#7e7f7e" d="M 351.5,367.5 C 349.023,359.476 351.356,357.642 358.5,362C 361.582,365.582 360.915,368.082 356.5,369.5C 354.823,368.813 353.156,368.146 351.5,367.5 Z"/></g>
</svg>
