<?xml version="1.0" encoding="UTF-8"?>
<!DOCTYPE svg PUBLIC "-//W3C//DTD SVG 1.1//EN" "http://www.w3.org/Graphics/SVG/1.1/DTD/svg11.dtd">
<svg xmlns="http://www.w3.org/2000/svg" version="1.1" width="640px" height="426px" style="shape-rendering:geometricPrecision; text-rendering:geometricPrecision; image-rendering:optimizeQuality; fill-rule:evenodd; clip-rule:evenodd" xmlns:xlink="http://www.w3.org/1999/xlink">
<g><path style="opacity:1" fill="#fefffe" d="M 389.5,110.5 C 415.166,106.585 438.5,112.085 459.5,127C 473.013,137.229 484.846,149.062 495,162.5C 500.898,158.403 507.398,157.403 514.5,159.5C 519.517,158.332 524.183,156.499 528.5,154C 543.048,150.576 551.881,156.076 555,170.5C 555.667,179.167 555.667,187.833 555,196.5C 550.371,208.278 541.871,212.445 529.5,209C 524.714,208.784 520.047,207.95 515.5,206.5C 513.423,207.937 511.09,208.604 508.5,208.5C 511.759,240.541 503.593,269.208 484,294.5C 474.35,305.41 462.516,312.91 448.5,317C 432.961,322.352 416.961,325.185 400.5,325.5C 382.794,362.962 352.961,381.296 311,380.5C 271.646,381.491 240.979,365.824 219,333.5C 214.082,326 209.416,318.333 205,310.5C 201.376,301.589 198.043,292.589 195,283.5C 172.022,293.738 148.855,303.571 125.5,313C 104.963,320.605 84.63,320.272 64.5,312C 55.5656,306.4 48.7322,298.9 44,289.5C 43.3333,284.167 43.3333,278.833 44,273.5C 44.6667,272.167 45.3333,270.833 46,269.5C 54.0042,262.869 63.1708,260.703 73.5,263C 80.764,265.548 88.0973,265.881 95.5,264C 94.3832,260.927 94.2165,257.76 95,254.5C 100.5,246.333 106,238.167 111.5,230C 125.5,225.333 139.5,220.667 153.5,216C 160.422,215.225 167.255,215.725 174,217.5C 180.39,214.935 186.723,214.935 193,217.5C 193.333,218.5 193.667,219.5 194,220.5C 195.272,211.077 197.939,202.077 202,193.5C 227.004,155.584 262.17,139.084 307.5,144C 315.179,144.561 322.346,146.727 329,150.5C 337.213,137.954 347.713,127.787 360.5,120C 369.873,115.486 379.54,112.319 389.5,110.5 Z M 401.5,139.5 C 406.203,139.12 410.536,140.12 414.5,142.5C 412.027,149.919 409.361,157.253 406.5,164.5C 404.253,163.626 401.92,163.292 399.5,163.5C 400.101,155.454 400.768,147.454 401.5,139.5 Z M 377.5,147.5 C 379.085,148.474 380.085,149.974 380.5,152C 377.167,152.667 373.833,152.667 370.5,152C 373.239,150.974 375.572,149.474 377.5,147.5 Z M 434.5,151.5 C 436.308,151.491 437.975,151.991 439.5,153C 442.336,155.007 445.003,157.174 447.5,159.5C 446.872,161.258 445.872,162.758 444.5,164C 439.492,164.501 434.492,165.001 429.5,165.5C 431.16,160.844 432.826,156.177 434.5,151.5 Z M 472.5,214.5 C 474.144,214.286 475.644,214.62 477,215.5C 478.705,221.205 478.705,226.872 477,232.5C 476.612,233.428 475.945,234.095 475,234.5C 465.593,231.983 456.26,229.316 447,226.5C 446.043,223.621 446.543,221.121 448.5,219C 456.695,217.804 464.695,216.304 472.5,214.5 Z M 435.5,242.5 C 446.496,245.337 457.496,249.17 468.5,254C 469.517,255.049 469.684,256.216 469,257.5C 466.667,261.167 464.333,264.833 462,268.5C 453.298,259.631 444.465,250.964 435.5,242.5 Z M 423.5,261.5 C 431.598,268.095 439.265,275.261 446.5,283C 442.582,285.877 438.415,288.377 434,290.5C 430.208,280.958 426.708,271.291 423.5,261.5 Z M 263.5,262.5 C 264.552,262.351 265.552,262.517 266.5,263C 256.085,267.693 245.418,271.36 234.5,274C 236.043,272.286 237.71,270.786 239.5,269.5C 247.618,267.142 255.618,264.809 263.5,262.5 Z M 373.5,264.5 C 375.088,266.527 375.588,268.861 375,271.5C 373.391,270.853 371.891,270.02 370.5,269C 371.883,267.729 372.883,266.229 373.5,264.5 Z M 268.5,284.5 C 270.355,284.272 271.188,284.939 271,286.5C 264.206,294.963 257.039,303.13 249.5,311C 248.241,311.982 246.908,312.315 245.5,312C 242.627,308.423 240.127,304.589 238,300.5C 237.251,299.365 237.417,298.365 238.5,297.5C 248.402,292.761 258.402,288.428 268.5,284.5 Z M 409.5,284.5 C 411.018,286.681 412.018,289.181 412.5,292C 411.941,294.188 410.607,294.854 408.5,294C 409.451,290.943 409.784,287.777 409.5,284.5 Z M 287.5,299.5 C 286.189,312.871 283.356,326.204 279,339.5C 273.364,338.633 268.531,335.8 264.5,331C 266.352,326.129 268.852,321.629 272,317.5C 277.376,311.628 282.543,305.628 287.5,299.5 Z M 330.5,302.5 C 339.254,311.26 346.921,320.927 353.5,331.5C 350.506,335.082 347.006,338.082 343,340.5C 337.128,328.385 332.962,315.718 330.5,302.5 Z M 308.5,308.5 C 313.027,321.617 316.361,335.117 318.5,349C 313.414,349.849 308.414,350.016 303.5,349.5C 302.956,335.52 304.623,321.853 308.5,308.5 Z"/></g>
<g><path style="opacity:1" fill="#000000" d="M 392.5,113.5 C 410.393,111.241 427.393,114.074 443.5,122C 460.098,131.593 474.598,143.759 487,158.5C 488.666,165.163 492.833,167.329 499.5,165C 503.989,160.532 508.656,160.365 513.5,164.5C 521.017,161.497 528.517,158.83 536,156.5C 543.785,157.567 548.785,161.901 551,169.5C 552.53,177.436 552.863,185.436 552,193.5C 549.552,197.615 546.719,201.448 543.5,205C 541.256,205.906 538.923,206.406 536.5,206.5C 528.98,206.11 521.647,204.777 514.5,202.5C 511.674,203.985 508.674,204.985 505.5,205.5C 508.758,237.544 500.591,266.211 481,291.5C 468.991,304.76 454.158,313.26 436.5,317C 423.66,319.876 410.66,321.71 397.5,322.5C 382.473,355.374 356.806,373.541 320.5,377C 280.042,380.515 247.875,366.015 224,333.5C 220.165,326.492 215.831,319.826 211,313.5C 206.383,301.807 201.883,290.14 197.5,278.5C 172.622,289.293 147.622,299.793 122.5,310C 106.368,316.165 90.0349,316.831 73.5,312C 61.7225,306.556 52.8892,298.056 47,286.5C 45.9595,281.56 46.6261,276.894 49,272.5C 52.558,269.968 56.3913,267.801 60.5,266C 69.2241,265.976 77.8908,266.809 86.5,268.5C 92.543,267.993 98.543,267.16 104.5,266C 105.711,264.887 105.711,263.72 104.5,262.5C 102.577,261.692 100.577,261.192 98.5,261C 97.9781,260.439 97.6448,259.772 97.5,259C 102.758,250.074 108.425,241.407 114.5,233C 129.554,227.76 144.721,222.926 160,218.5C 165.204,219.307 170.37,220.307 175.5,221.5C 177.61,220.946 179.61,220.112 181.5,219C 188.812,217.317 191.812,220.151 190.5,227.5C 192.582,227.528 194.416,226.861 196,225.5C 204.89,186.269 228.723,160.769 267.5,149C 289.459,143.602 310.626,145.769 331,155.5C 345.4,132.397 365.9,118.397 392.5,113.5 Z M 401.5,139.5 C 400.768,147.454 400.101,155.454 399.5,163.5C 401.92,163.292 404.253,163.626 406.5,164.5C 409.361,157.253 412.027,149.919 414.5,142.5C 410.536,140.12 406.203,139.12 401.5,139.5 Z M 377.5,147.5 C 375.572,149.474 373.239,150.974 370.5,152C 373.833,152.667 377.167,152.667 380.5,152C 380.085,149.974 379.085,148.474 377.5,147.5 Z M 434.5,151.5 C 432.826,156.177 431.16,160.844 429.5,165.5C 434.492,165.001 439.492,164.501 444.5,164C 445.872,162.758 446.872,161.258 447.5,159.5C 445.003,157.174 442.336,155.007 439.5,153C 437.975,151.991 436.308,151.491 434.5,151.5 Z M 472.5,214.5 C 464.695,216.304 456.695,217.804 448.5,219C 446.543,221.121 446.043,223.621 447,226.5C 456.26,229.316 465.593,231.983 475,234.5C 475.945,234.095 476.612,233.428 477,232.5C 478.705,226.872 478.705,221.205 477,215.5C 475.644,214.62 474.144,214.286 472.5,214.5 Z M 435.5,242.5 C 444.465,250.964 453.298,259.631 462,268.5C 464.333,264.833 466.667,261.167 469,257.5C 469.684,256.216 469.517,255.049 468.5,254C 457.496,249.17 446.496,245.337 435.5,242.5 Z M 423.5,261.5 C 426.708,271.291 430.208,280.958 434,290.5C 438.415,288.377 442.582,285.877 446.5,283C 439.265,275.261 431.598,268.095 423.5,261.5 Z M 263.5,262.5 C 255.618,264.809 247.618,267.142 239.5,269.5C 237.71,270.786 236.043,272.286 234.5,274C 245.418,271.36 256.085,267.693 266.5,263C 265.552,262.517 264.552,262.351 263.5,262.5 Z M 373.5,264.5 C 372.883,266.229 371.883,267.729 370.5,269C 371.891,270.02 373.391,270.853 375,271.5C 375.588,268.861 375.088,266.527 373.5,264.5 Z M 268.5,284.5 C 258.402,288.428 248.402,292.761 238.5,297.5C 237.417,298.365 237.251,299.365 238,300.5C 240.127,304.589 242.627,308.423 245.5,312C 246.908,312.315 248.241,311.982 249.5,311C 257.039,303.13 264.206,294.963 271,286.5C 271.188,284.939 270.355,284.272 268.5,284.5 Z M 409.5,284.5 C 409.784,287.777 409.451,290.943 408.5,294C 410.607,294.854 411.941,294.188 412.5,292C 412.018,289.181 411.018,286.681 409.5,284.5 Z M 287.5,299.5 C 282.543,305.628 277.376,311.628 272,317.5C 268.852,321.629 266.352,326.129 264.5,331C 268.531,335.8 273.364,338.633 279,339.5C 283.356,326.204 286.189,312.871 287.5,299.5 Z M 330.5,302.5 C 332.962,315.718 337.128,328.385 343,340.5C 347.006,338.082 350.506,335.082 353.5,331.5C 346.921,320.927 339.254,311.26 330.5,302.5 Z M 308.5,308.5 C 304.623,321.853 302.956,335.52 303.5,349.5C 308.414,350.016 313.414,349.849 318.5,349C 316.361,335.117 313.027,321.617 308.5,308.5 Z"/></g>
<g><path style="opacity:1" fill="#7e7f7e" d="M 461.5,138.5 C 456.556,135.355 451.556,132.188 446.5,129C 440.5,126.333 434.5,123.667 428.5,121C 421.626,119.025 414.626,117.692 407.5,117C 428.248,117.413 446.248,124.58 461.5,138.5 Z"/></g>
<g><path style="opacity:1" fill="#5d953b" d="M 431.5,141.5 C 429.597,141.204 427.93,140.537 426.5,139.5C 414.028,132.687 401.028,131.687 387.5,136.5C 386.791,137.404 385.791,137.737 384.5,137.5C 372.158,136.306 362.825,141.139 356.5,152C 358.053,153.097 359.386,154.43 360.5,156C 357.95,157.442 355.284,158.608 352.5,159.5C 351.808,158.975 351.308,158.308 351,157.5C 349.686,159.812 348.019,161.812 346,163.5C 342.102,161.467 338.268,159.3 334.5,157C 337.43,153.075 339.93,148.908 342,144.5C 380.44,112.12 419.607,111.286 459.5,142C 467.57,149.4 474.904,157.4 481.5,166C 475.584,166.807 469.75,166.641 464,165.5C 462.178,167.045 460.011,167.712 457.5,167.5C 455.833,167.167 454.167,166.833 452.5,166.5C 454.539,164.258 456.205,161.758 457.5,159C 451.328,151.904 443.995,146.238 435.5,142C 434.207,141.51 432.873,141.343 431.5,141.5 Z M 377.5,147.5 C 375.572,149.474 373.239,150.974 370.5,152C 373.833,152.667 377.167,152.667 380.5,152C 380.085,149.974 379.085,148.474 377.5,147.5 Z"/></g>
<g><path style="opacity:1" fill="#000000" d="M 425.5,125.5 C 426.833,125.5 428.167,125.5 429.5,125.5C 431.72,131.444 429.72,133.944 423.5,133C 422.057,129.939 422.724,127.439 425.5,125.5 Z"/></g>
<g><path style="opacity:1" fill="#7e7f7e" d="M 426.5,126.5 C 430.346,128.843 430.179,130.843 426,132.5C 424.72,132.387 423.887,131.72 423.5,130.5C 424.172,128.84 425.172,127.507 426.5,126.5 Z"/></g>
<g><path style="opacity:1" fill="#5d973b" d="M 387.5,136.5 C 389.199,136.34 390.866,136.506 392.5,137C 390.902,144.023 390.069,151.19 390,158.5C 389.333,157.833 388.667,157.167 388,156.5C 386.616,150.196 385.449,143.862 384.5,137.5C 385.791,137.737 386.791,137.404 387.5,136.5 Z"/></g>
<g><path style="opacity:1" fill="#fefffe" d="M 398.5,136.5 C 405.856,135.768 412.856,136.934 419.5,140C 416.073,149.446 412.74,158.946 409.5,168.5C 406.707,169.955 404.374,169.455 402.5,167C 400.527,166.505 398.527,166.338 396.5,166.5C 396.903,156.428 397.569,146.428 398.5,136.5 Z M 401.5,139.5 C 400.768,147.454 400.101,155.454 399.5,163.5C 401.92,163.292 404.253,163.626 406.5,164.5C 409.361,157.253 412.027,149.919 414.5,142.5C 410.536,140.12 406.203,139.12 401.5,139.5 Z"/></g>
<g><path style="opacity:1" fill="#415028" d="M 377.5,138.5 C 378.873,138.343 380.207,138.51 381.5,139C 373.576,141.937 366.409,146.104 360,151.5C 359.383,150.551 359.549,149.718 360.5,149C 366.074,145.24 371.741,141.74 377.5,138.5 Z"/></g>
<g><path style="opacity:1" fill="#7e7f7e" d="M 461.5,138.5 C 471.543,145.878 479.877,154.878 486.5,165.5C 478.923,156.559 470.59,147.559 461.5,138.5 Z"/></g>
<g><path style="opacity:1" fill="#5d973b" d="M 426.5,139.5 C 427.93,140.537 429.597,141.204 431.5,141.5C 427.514,150.14 423.514,158.807 419.5,167.5C 417.5,168.833 415.5,168.833 413.5,167.5C 416.908,158.277 419.908,148.944 422.5,139.5C 423.833,139.5 425.167,139.5 426.5,139.5 Z"/></g>
<g><path style="opacity:1" fill="#fefffe" d="M 379.5,142.5 C 380.5,142.5 381.5,142.5 382.5,142.5C 382.577,146.794 383.244,150.961 384.5,155C 357.994,157.76 356.328,153.593 379.5,142.5 Z M 377.5,147.5 C 375.572,149.474 373.239,150.974 370.5,152C 373.833,152.667 377.167,152.667 380.5,152C 380.085,149.974 379.085,148.474 377.5,147.5 Z"/></g>
<g><path style="opacity:1" fill="#000000" d="M 344.5,143.5 C 346.167,143.5 347.833,143.5 349.5,143.5C 349.5,146.167 349.5,148.833 349.5,151.5C 342.741,151.767 341.074,149.1 344.5,143.5 Z"/></g>
<g><path style="opacity:1" fill="#7e7f7e" d="M 345.5,144.5 C 346.5,144.5 347.5,144.5 348.5,144.5C 348.5,146.5 348.5,148.5 348.5,150.5C 343.707,150.089 342.707,148.089 345.5,144.5 Z"/></g>
<g><path style="opacity:1" fill="#fefffe" d="M 433.5,145.5 C 440.814,148.97 447.48,153.47 453.5,159C 451.5,161.667 449.5,164.333 447.5,167C 439.503,168.358 431.503,168.525 423.5,167.5C 426.848,160.141 430.181,152.807 433.5,145.5 Z M 434.5,151.5 C 432.826,156.177 431.16,160.844 429.5,165.5C 434.492,165.001 439.492,164.501 444.5,164C 445.872,162.758 446.872,161.258 447.5,159.5C 445.003,157.174 442.336,155.007 439.5,153C 437.975,151.991 436.308,151.491 434.5,151.5 Z"/></g>
<g><path style="opacity:1" fill="#7e7f7e" d="M 287.5,149.5 C 301.442,147.786 314.775,150.286 327.5,157C 374.293,180.548 399.96,218.548 404.5,271C 404.202,297.22 396.702,321.054 382,342.5C 378.352,347.315 374.185,351.648 369.5,355.5C 390.336,332.726 400.669,305.392 400.5,273.5C 396.995,213.538 367.329,173.038 311.5,152C 303.613,150.073 295.613,149.239 287.5,149.5 Z"/></g>
<g><path style="opacity:1" fill="#5d973b" d="M 287.5,367.5 C 289.026,366.508 289.693,365.008 289.5,363C 289.549,358.849 287.549,357.516 283.5,359C 277.584,361.145 276.251,364.811 279.5,370C 264.034,365.225 250.534,357.058 239,345.5C 228.189,333.216 218.856,319.883 211,305.5C 210.691,304.234 210.191,303.067 209.5,302C 211.081,301.293 212.581,300.46 214,299.5C 214.415,295.152 214.249,290.819 213.5,286.5C 209.243,285.597 206.743,287.264 206,291.5C 197.127,265.22 196.127,238.553 203,211.5C 217.594,175.592 244.26,155.592 283,151.5C 321.236,154.025 351.403,170.692 373.5,201.5C 395.199,234.081 401.699,269.414 393,307.5C 387.498,326.687 377.331,342.854 362.5,356C 354.5,361 346.5,366 338.5,371C 319.838,375.623 301.171,375.623 282.5,371C 284.881,370.777 286.547,369.61 287.5,367.5 Z M 263.5,262.5 C 255.618,264.809 247.618,267.142 239.5,269.5C 237.71,270.786 236.043,272.286 234.5,274C 245.418,271.36 256.085,267.693 266.5,263C 265.552,262.517 264.552,262.351 263.5,262.5 Z M 373.5,264.5 C 372.883,266.229 371.883,267.729 370.5,269C 371.891,270.02 373.391,270.853 375,271.5C 375.588,268.861 375.088,266.527 373.5,264.5 Z M 268.5,284.5 C 258.402,288.428 248.402,292.761 238.5,297.5C 237.417,298.365 237.251,299.365 238,300.5C 240.127,304.589 242.627,308.423 245.5,312C 246.908,312.315 248.241,311.982 249.5,311C 257.039,303.13 264.206,294.963 271,286.5C 271.188,284.939 270.355,284.272 268.5,284.5 Z M 287.5,299.5 C 282.543,305.628 277.376,311.628 272,317.5C 268.852,321.629 266.352,326.129 264.5,331C 268.531,335.8 273.364,338.633 279,339.5C 283.356,326.204 286.189,312.871 287.5,299.5 Z M 330.5,302.5 C 332.962,315.718 337.128,328.385 343,340.5C 347.006,338.082 350.506,335.082 353.5,331.5C 346.921,320.927 339.254,311.26 330.5,302.5 Z M 308.5,308.5 C 304.623,321.853 302.956,335.52 303.5,349.5C 308.414,350.016 313.414,349.849 318.5,349C 316.361,335.117 313.027,321.617 308.5,308.5 Z"/></g>
<g><path style="opacity:1" fill="#000000" d="M 298.5,156.5 C 306.032,156.532 308.865,160.199 307,167.5C 306.25,168.126 305.416,168.626 304.5,169C 337.429,180.262 360.262,202.095 373,234.5C 375.645,228.261 379.978,226.594 386,229.5C 388.605,236.849 386.105,240.849 378.5,241.5C 376.971,241.471 375.804,240.804 375,239.5C 386.264,267.354 384.931,294.687 371,321.5C 366.6,325.967 362.934,330.967 360,336.5C 345.501,350.825 328.001,357.492 307.5,356.5C 267.706,356.178 239.206,338.178 222,302.5C 212.538,282.187 208.871,260.854 211,238.5C 212.996,232.511 214.996,226.511 217,220.5C 225.952,204.881 237.118,191.048 250.5,179C 258.827,172.916 268.16,169.583 278.5,169C 285.5,168.667 292.5,168.333 299.5,168C 296.427,164.278 296.094,160.444 298.5,156.5 Z M 263.5,262.5 C 255.618,264.809 247.618,267.142 239.5,269.5C 237.71,270.786 236.043,272.286 234.5,274C 245.418,271.36 256.085,267.693 266.5,263C 265.552,262.517 264.552,262.351 263.5,262.5 Z M 373.5,264.5 C 372.883,266.229 371.883,267.729 370.5,269C 371.891,270.02 373.391,270.853 375,271.5C 375.588,268.861 375.088,266.527 373.5,264.5 Z M 268.5,284.5 C 258.402,288.428 248.402,292.761 238.5,297.5C 237.417,298.365 237.251,299.365 238,300.5C 240.127,304.589 242.627,308.423 245.5,312C 246.908,312.315 248.241,311.982 249.5,311C 257.039,303.13 264.206,294.963 271,286.5C 271.188,284.939 270.355,284.272 268.5,284.5 Z M 287.5,299.5 C 282.543,305.628 277.376,311.628 272,317.5C 268.852,321.629 266.352,326.129 264.5,331C 268.531,335.8 273.364,338.633 279,339.5C 283.356,326.204 286.189,312.871 287.5,299.5 Z M 330.5,302.5 C 332.962,315.718 337.128,328.385 343,340.5C 347.006,338.082 350.506,335.082 353.5,331.5C 346.921,320.927 339.254,311.26 330.5,302.5 Z M 308.5,308.5 C 304.623,321.853 302.956,335.52 303.5,349.5C 308.414,350.016 313.414,349.849 318.5,349C 316.361,335.117 313.027,321.617 308.5,308.5 Z"/></g>
<g><path style="opacity:1" fill="#7e7f7e" d="M 299.5,157.5 C 304.999,158.158 307.165,161.158 306,166.5C 304.915,167.293 303.748,167.96 302.5,168.5C 301.526,166.257 301.192,163.924 301.5,161.5C 297.155,161.702 296.488,160.369 299.5,157.5 Z"/></g>
<g><path style="opacity:1" fill="#dfb83e" d="M 378.5,159.5 C 384.964,157.318 388.131,159.651 388,166.5C 386.817,167.731 385.651,167.731 384.5,166.5C 383.634,163.047 381.634,160.714 378.5,159.5 Z"/></g>
<g><path style="opacity:1" fill="#d0ab3b" d="M 540.5,201.5 C 540.5,200.833 540.167,200.5 539.5,200.5C 539.167,199.5 538.5,198.833 537.5,198.5C 533.526,190.007 531.693,181.007 532,171.5C 531.503,173.81 531.337,176.143 531.5,178.5C 523.5,177.833 515.5,177.167 507.5,176.5C 507.961,173.697 509.295,171.363 511.5,169.5C 519.61,165.857 527.777,162.523 536,159.5C 544.087,161.625 548.42,166.958 549,175.5C 549.667,180.833 549.667,186.167 549,191.5C 548.214,194.583 546.381,196.749 543.5,198C 544.032,200.005 543.032,201.171 540.5,201.5 Z"/></g>
<g><path style="opacity:1" fill="#dfb83e" d="M 354.5,160.5 C 361.841,160.334 369.174,160.5 376.5,161C 380.135,163.096 382.135,166.263 382.5,170.5C 381.5,170.5 380.5,170.5 379.5,170.5C 380.026,167.192 378.693,165.026 375.5,164C 369.167,163.333 362.833,163.333 356.5,164C 354.41,167.924 352.077,168.258 349.5,165C 350.761,163.038 352.428,161.538 354.5,160.5 Z"/></g>
<g><path style="opacity:1" fill="#7e7f7e" d="M 298.5,162.5 C 300.344,163.204 300.844,164.537 300,166.5C 298.812,165.437 298.312,164.103 298.5,162.5 Z"/></g>
<g><path style="opacity:1" fill="#dfb83e" d="M 510.5,168.5 C 505.72,171.645 503.72,176.145 504.5,182C 504.594,185.888 505.094,189.721 506,193.5C 506.424,196.025 507.59,198.025 509.5,199.5C 507.61,203.02 505.277,203.353 502.5,200.5C 499.352,194.425 497.352,187.925 496.5,181C 497.871,175.422 500.205,170.255 503.5,165.5C 506.91,164.039 509.243,165.039 510.5,168.5 Z"/></g>
<g><path style="opacity:1" fill="#a47e1e" d="M 503.5,165.5 C 500.205,170.255 497.871,175.422 496.5,181C 497.352,187.925 499.352,194.425 502.5,200.5C 474.268,202.272 445.935,203.939 417.5,205.5C 417.143,200.687 416.143,196.02 414.5,191.5C 413.5,191 412.5,190.5 411.5,190C 405.509,189.501 399.509,189.334 393.5,189.5C 392.77,183.247 393.104,180.581 394.5,181.5C 427.846,180.306 461.179,178.806 494.5,177C 496.061,174.273 497.395,171.439 498.5,168.5C 499.659,166.75 501.326,165.75 503.5,165.5 Z"/></g>
<g><path style="opacity:1" fill="#dfb83e" d="M 357.5,166.5 C 362.1,166.345 362.433,167.012 358.5,168.5C 356.279,168.561 355.946,167.895 357.5,166.5 Z"/></g>
<g><path style="opacity:1" fill="#5d973b" d="M 363.5,166.5 C 366.85,166.335 370.183,166.502 373.5,167C 369.823,167.718 366.157,168.051 362.5,168C 363.056,167.617 363.389,167.117 363.5,166.5 Z"/></g>
<g><path style="opacity:1" fill="#deb63e" d="M 498.5,168.5 C 497.395,171.439 496.061,174.273 494.5,177C 461.179,178.806 427.846,180.306 394.5,181.5C 393.104,180.581 392.77,183.247 393.5,189.5C 390.99,189.946 388.99,189.28 387.5,187.5C 387.663,185.143 387.497,182.81 387,180.5C 380.531,181.778 374.031,181.778 367.5,180.5C 366.833,180.5 366.5,180.167 366.5,179.5C 374.405,180.289 380.738,177.622 385.5,171.5C 386.878,170.766 388.378,170.099 390,169.5C 392.801,170.795 395.634,170.795 398.5,169.5C 401.175,171.612 404.342,172.612 408,172.5C 438.167,171.1 468.334,169.767 498.5,168.5 Z"/></g>
<g><path style="opacity:1" fill="#9e781e" d="M 510.5,168.5 C 511.167,168.5 511.5,168.833 511.5,169.5C 509.295,171.363 507.961,173.697 507.5,176.5C 515.5,177.167 523.5,177.833 531.5,178.5C 531.337,176.143 531.503,173.81 532,171.5C 531.693,181.007 533.526,190.007 537.5,198.5C 537.5,199.833 538.167,200.5 539.5,200.5C 540.167,200.5 540.5,200.833 540.5,201.5C 539.504,202.665 538.171,203.332 536.5,203.5C 528.331,202.666 520.331,201 512.5,198.5C 511.416,198.685 510.416,199.018 509.5,199.5C 507.59,198.025 506.424,196.025 506,193.5C 505.094,189.721 504.594,185.888 504.5,182C 503.72,176.145 505.72,171.645 510.5,168.5 Z"/></g>
<g><path style="opacity:1" fill="#dfb83e" d="M 376.5,170.5 C 378.116,172.416 377.782,173.916 375.5,175C 370.871,176.734 366.205,176.901 361.5,175.5C 359.704,174.207 358.037,172.707 356.5,171C 362.186,170.689 367.853,170.189 373.5,169.5C 374.726,169.52 375.726,169.853 376.5,170.5 Z"/></g>
<g><path style="opacity:1" fill="#a47e1e" d="M 376.5,170.5 C 378.156,171.146 379.823,171.813 381.5,172.5C 382.849,172.154 384.183,171.821 385.5,171.5C 380.738,177.622 374.405,180.289 366.5,179.5C 364.611,178.396 362.945,177.063 361.5,175.5C 366.205,176.901 370.871,176.734 375.5,175C 377.782,173.916 378.116,172.416 376.5,170.5 Z"/></g>
<g><path style="opacity:1" fill="#000000" d="M 542.5,170.5 C 546.667,170.846 548.5,173.18 548,177.5C 549.004,182.147 548.338,186.481 546,190.5C 543.607,188.381 542.274,185.715 542,182.5C 541.238,178.413 541.404,174.413 542.5,170.5 Z"/></g>
<g><path style="opacity:1" fill="#fefffe" d="M 280.5,171.5 C 283.187,171.336 285.854,171.503 288.5,172C 285.026,172.301 281.692,173.134 278.5,174.5C 278.167,174.167 277.833,173.833 277.5,173.5C 278.602,172.824 279.602,172.158 280.5,171.5 Z"/></g>
<g><path style="opacity:1" fill="#5d973b" d="M 299.5,172.5 C 303.756,172.472 307.422,173.805 310.5,176.5C 307.029,190.299 305.863,204.299 307,218.5C 308.339,223.178 309.339,227.844 310,232.5C 307.619,231.565 305.119,231.232 302.5,231.5C 302.134,211.791 301.134,192.124 299.5,172.5 Z"/></g>
<g><path style="opacity:1" fill="#5d973b" d="M 268.5,173.5 C 271.001,173.511 271.168,174.178 269,175.5C 268.024,182.915 269.357,189.915 273,196.5C 279.287,208.915 286.454,220.749 294.5,232C 291.45,233.82 288.617,233.653 286,231.5C 278.016,213.364 268.849,195.864 258.5,179C 261.767,176.87 265.1,175.037 268.5,173.5 Z"/></g>
<g><path style="opacity:1" fill="#dfb83e" d="M 297.5,187.5 C 290.234,189.343 283.234,188.676 276.5,185.5C 275.477,182.607 275.477,179.774 276.5,177C 283.107,175.706 289.774,174.873 296.5,174.5C 297.2,178.798 297.533,183.131 297.5,187.5 Z"/></g>
<g><path style="opacity:1" fill="#dfb83e" d="M 327.5,184.5 C 323.343,185.449 319.01,186.116 314.5,186.5C 314.401,183.327 315.068,180.327 316.5,177.5C 320.401,179.608 324.067,181.941 327.5,184.5 Z"/></g>
<g><path style="opacity:1" fill="#415028" d="M 271.5,179.5 C 278.232,198.448 288.232,215.615 301.5,231C 299.097,231.63 297.263,230.797 296,228.5C 288.232,217.298 281.232,205.631 275,193.5C 273.203,188.977 272.036,184.31 271.5,179.5 Z"/></g>
<g><path style="opacity:1" fill="#a47e1e" d="M 367.5,180.5 C 374.031,181.778 380.531,181.778 387,180.5C 387.497,182.81 387.663,185.143 387.5,187.5C 385.704,186.207 384.037,184.707 382.5,183C 379.097,182.262 375.93,182.762 373,184.5C 370.465,184.132 368.632,182.799 367.5,180.5 Z"/></g>
<g><path style="opacity:1" fill="#dfb83e" d="M 260.5,190.5 C 257.3,198.601 254.633,198.268 252.5,189.5C 251.378,190.63 250.044,191.297 248.5,191.5C 252.702,179.629 256.702,179.296 260.5,190.5 Z"/></g>
<g><path style="opacity:1" fill="#a47e1e" d="M 327.5,184.5 C 333.693,185.552 334.86,188.552 331,193.5C 326.494,198.061 320.994,200.394 314.5,200.5C 313.659,195.866 313.659,191.199 314.5,186.5C 319.01,186.116 323.343,185.449 327.5,184.5 Z"/></g>
<g><path style="opacity:1" fill="#7e7f7e" d="M 377.5,184.5 C 380.967,184.446 383.634,185.946 385.5,189C 382.167,189.667 378.833,189.667 375.5,189C 374.833,188.333 374.167,187.667 373.5,187C 375.32,186.8 376.653,185.966 377.5,184.5 Z"/></g>
<g><path style="opacity:1" fill="#a47e1e" d="M 276.5,185.5 C 283.234,188.676 290.234,189.343 297.5,187.5C 297.785,189.288 297.452,190.955 296.5,192.5C 291.152,190.115 285.652,189.448 280,190.5C 278.225,189.23 277.058,187.564 276.5,185.5 Z"/></g>
<g><path style="opacity:1" fill="#fefffe" d="M 246.5,186.5 C 247.776,187.386 247.776,188.386 246.5,189.5C 245.438,188.575 245.438,187.575 246.5,186.5 Z"/></g>
<g><path style="opacity:1" fill="#a47e1e" d="M 260.5,190.5 C 262.101,191.519 263.101,193.019 263.5,195C 259.039,197.632 255.039,200.799 251.5,204.5C 249.931,203.286 249.098,201.619 249,199.5C 248.503,196.854 248.336,194.187 248.5,191.5C 250.044,191.297 251.378,190.63 252.5,189.5C 254.633,198.268 257.3,198.601 260.5,190.5 Z"/></g>
<g><path style="opacity:1" fill="#a47e1e" d="M 244.5,190.5 C 246.377,191.659 246.877,193.326 246,195.5C 244.644,196.38 243.144,196.714 241.5,196.5C 241.615,194.053 242.615,192.053 244.5,190.5 Z"/></g>
<g><path style="opacity:1" fill="#7e7f7e" d="M 336.5,190.5 C 337.043,190.56 337.376,190.893 337.5,191.5C 333.497,203.157 325.497,208.157 313.5,206.5C 313.5,205.5 313.5,204.5 313.5,203.5C 324.387,204.562 332.054,200.229 336.5,190.5 Z"/></g>
<g><path style="opacity:1" fill="#0c0c0c" d="M 214.5,202.5 C 211.721,198.842 212.054,195.342 215.5,192C 216.793,191.51 218.127,191.343 219.5,191.5C 219.665,194.85 219.498,198.183 219,201.5C 217.653,203.466 216.153,203.799 214.5,202.5 Z"/></g>
<g><path style="opacity:1" fill="#c2c3c2" d="M 378.5,192.5 C 389.372,191.179 400.372,191.179 411.5,192.5C 414.038,203.396 416.038,214.396 417.5,225.5C 411.226,226.88 404.893,227.38 398.5,227C 397.707,225.915 397.04,224.748 396.5,223.5C 401.811,222.966 406.978,221.966 412,220.5C 411.028,214.584 410.028,208.584 409,202.5C 408.484,199.966 407.317,197.8 405.5,196C 397.167,195.667 388.833,195.333 380.5,195C 379.934,194.005 379.267,193.172 378.5,192.5 Z"/></g>
<g><path style="opacity:1" fill="#7e7f7e" d="M 214.5,202.5 C 212.672,198.319 213.672,194.985 217.5,192.5C 218.386,193.325 218.719,194.325 218.5,195.5C 217.5,195.5 216.5,195.5 215.5,195.5C 215.137,197.911 216.137,199.411 218.5,200C 217.529,201.481 216.196,202.315 214.5,202.5 Z"/></g>
<g><path style="opacity:1" fill="#7e7f7e" d="M 283.5,192.5 C 288.244,193.52 292.91,194.853 297.5,196.5C 298.652,199.106 298.818,201.773 298,204.5C 293.997,201.499 290.664,202.165 288,206.5C 285.7,202.732 283.533,198.898 281.5,195C 282.056,193.989 282.722,193.156 283.5,192.5 Z"/></g>
<g><path style="opacity:1" fill="#5d973b" d="M 340.5,192.5 C 343.617,193.782 345.95,195.949 347.5,199C 337.462,211.566 328.795,225.066 321.5,239.5C 319.004,238.42 316.67,237.086 314.5,235.5C 316.817,233.684 318.984,231.684 321,229.5C 327.322,217.028 333.822,204.694 340.5,192.5 Z"/></g>
<g><path style="opacity:1" fill="#fefffe" d="M 240.5,197.5 C 242.339,198.752 244.172,198.752 246,197.5C 247.205,199.534 247.372,201.534 246.5,203.5C 244.37,202.533 242.37,201.366 240.5,200C 239.402,199.23 239.402,198.397 240.5,197.5 Z"/></g>
<g><path style="opacity:1" fill="#2c6509" d="M 382.5,198.5 C 386.683,197.189 391.016,197.189 395.5,198.5C 397.74,205.72 400.073,212.886 402.5,220C 399.773,220.818 397.106,220.652 394.5,219.5C 391.231,211.949 387.231,204.949 382.5,198.5 Z"/></g>
<g><path style="opacity:1" fill="#7e7f7e" d="M 397.5,198.5 C 399.895,197.186 402.395,197.186 405,198.5C 406.879,205.495 408.713,212.495 410.5,219.5C 408.401,220.231 406.401,220.231 404.5,219.5C 402.332,212.329 399.998,205.329 397.5,198.5 Z"/></g>
<g><path style="opacity:1" fill="#7e7f7e" d="M 265.5,198.5 C 271.289,203.935 270.789,208.601 264,212.5C 260.24,211.848 256.74,210.515 253.5,208.5C 256.619,204.043 260.619,200.709 265.5,198.5 Z"/></g>
<g><path style="opacity:1" fill="#000000" d="M 537.5,198.5 C 538.5,198.833 539.167,199.5 539.5,200.5C 538.167,200.5 537.5,199.833 537.5,198.5 Z"/></g>
<g><path style="opacity:1" fill="#415028" d="M 309.5,199.5 C 310.518,207.708 311.351,216.042 312,224.5C 309.822,216.316 308.989,207.983 309.5,199.5 Z"/></g>
<g><path style="opacity:1" fill="#5d973b" d="M 233.5,202.5 C 242.291,209.748 250.957,217.248 259.5,225C 266.332,229.584 273.332,233.917 280.5,238C 278.957,241 276.957,241.666 274.5,240C 259.952,228.61 245.285,217.444 230.5,206.5C 231.524,205.148 232.524,203.815 233.5,202.5 Z"/></g>
<g><path style="opacity:1" fill="#7e7f7e" d="M 498.5,202.5 C 500.124,202.36 501.29,203.027 502,204.5C 503.65,221.013 502.317,237.346 498,253.5C 495.333,258.833 492.667,264.167 490,269.5C 489.333,268.5 489.333,267.5 490,266.5C 492.274,262.286 494.274,257.953 496,253.5C 497.055,245.784 498.388,238.118 500,230.5C 500.846,221.072 500.346,211.738 498.5,202.5 Z"/></g>
<g><path style="opacity:1" fill="#415028" d="M 241.5,204.5 C 241.897,203.475 242.563,203.308 243.5,204C 255.879,215.877 269.546,226.044 284.5,234.5C 284.333,234.833 284.167,235.167 284,235.5C 267.967,227.62 253.8,217.287 241.5,204.5 Z"/></g>
<g><path style="opacity:1" fill="#5d963b" d="M 426.5,297.5 C 438.871,297.816 448.871,292.983 456.5,283C 443.36,268.527 429.527,254.694 415,241.5C 414.409,240.517 414.743,239.85 416,239.5C 428.146,250.31 440.313,261.144 452.5,272C 455.09,273.445 457.757,274.612 460.5,275.5C 460.351,276.552 460.517,277.552 461,278.5C 470.583,271.7 476.416,262.366 478.5,250.5C 479.512,247.743 480.512,245.076 481.5,242.5C 485.385,231.19 485.385,219.857 481.5,208.5C 480.061,207.937 478.561,207.603 477,207.5C 467.125,209.174 457.292,210.674 447.5,212C 451.158,211.453 454.158,209.786 456.5,207C 465.044,206.074 473.544,205.241 482,204.5C 482.839,205.624 484.006,206.291 485.5,206.5C 488.845,205.492 492.178,204.492 495.5,203.5C 496.586,209.273 497.253,215.106 497.5,221C 497.353,244.455 490.52,265.621 477,284.5C 474.333,287.167 471.667,289.833 469,292.5C 469.649,287.178 467.483,284.345 462.5,284C 458.942,289.352 460.275,292.686 466.5,294C 446.929,309.645 424.595,316.812 399.5,315.5C 401.554,310.777 403.22,305.944 404.5,301C 412.177,300.928 419.511,299.762 426.5,297.5 Z M 435.5,242.5 C 444.465,250.964 453.298,259.631 462,268.5C 464.333,264.833 466.667,261.167 469,257.5C 469.684,256.216 469.517,255.049 468.5,254C 457.496,249.17 446.496,245.337 435.5,242.5 Z"/></g>
<g><path style="opacity:1" fill="#2c6509" d="M 292.5,204.5 C 294.258,204.877 295.925,205.544 297.5,206.5C 298.919,212.103 299.419,217.77 299,223.5C 295.958,218.581 292.791,213.748 289.5,209C 290.386,207.385 291.386,205.885 292.5,204.5 Z"/></g>
<g><path style="opacity:1" fill="#2c6509" d="M 350.5,205.5 C 357.382,211.065 362.382,218.065 365.5,226.5C 357.4,232.638 348.567,237.638 339,241.5C 336.651,238.983 334.151,236.65 331.5,234.5C 337.605,224.605 343.939,214.939 350.5,205.5 Z"/></g>
<g><path style="opacity:1" fill="#2c6509" d="M 327.5,206.5 C 328.043,206.56 328.376,206.893 328.5,207.5C 324.311,213.877 320.645,220.544 317.5,227.5C 315.303,221.211 314.303,214.877 314.5,208.5C 319.297,210.195 323.631,209.528 327.5,206.5 Z"/></g>
<g><path style="opacity:1" fill="#c2c3c2" d="M 445.5,206.5 C 448.187,206.336 450.854,206.503 453.5,207C 449.768,209.104 445.768,210.604 441.5,211.5C 440.738,210.372 440.071,209.205 439.5,208C 441.708,207.809 443.708,207.309 445.5,206.5 Z"/></g>
<g><path style="opacity:1" fill="#2c6509" d="M 427.5,207.5 C 428.931,207.881 429.764,208.881 430,210.5C 431.235,217.173 432.402,223.84 433.5,230.5C 433.139,233.692 431.472,235.859 428.5,237C 423.845,237.499 419.179,237.666 414.5,237.5C 414.726,234.751 414.393,232.084 413.5,229.5C 414.714,227.931 416.381,227.098 418.5,227C 419.944,225.874 420.61,224.374 420.5,222.5C 419.615,217.855 418.948,213.189 418.5,208.5C 421.713,208.81 424.713,208.477 427.5,207.5 Z"/></g>
<g><path style="opacity:1" fill="#7e7f7e" d="M 431.5,207.5 C 433.604,207.201 435.604,207.534 437.5,208.5C 442.405,216.805 442.571,225.139 438,233.5C 434.404,236.074 433.571,235.074 435.5,230.5C 434.421,222.773 433.087,215.106 431.5,207.5 Z"/></g>
<g><path style="opacity:1" fill="#2c6509" d="M 270.5,208.5 C 274.095,215.517 278.095,222.35 282.5,229C 275.012,224.561 267.678,219.561 260.5,214C 263.697,214.837 266.697,214.17 269.5,212C 270.337,210.989 270.67,209.822 270.5,208.5 Z"/></g>
<g><path style="opacity:1" fill="#fefffe" d="M 227.5,210.5 C 229.937,210.886 231.937,212.053 233.5,214C 231.083,215.626 228.583,217.126 226,218.5C 225.855,215.739 226.355,213.073 227.5,210.5 Z"/></g>
<g><path style="opacity:1" fill="#fefffe" d="M 475.5,210.5 C 477.39,210.297 478.89,210.963 480,212.5C 482.342,221.231 481.842,229.731 478.5,238C 466.71,235.97 455.043,233.136 443.5,229.5C 443.528,225.534 443.195,221.534 442.5,217.5C 443,217.167 443.5,216.833 444,216.5C 454.66,214.643 465.16,212.643 475.5,210.5 Z M 472.5,214.5 C 464.695,216.304 456.695,217.804 448.5,219C 446.543,221.121 446.043,223.621 447,226.5C 456.26,229.316 465.593,231.983 475,234.5C 475.945,234.095 476.612,233.428 477,232.5C 478.705,226.872 478.705,221.205 477,215.5C 475.644,214.62 474.144,214.286 472.5,214.5 Z"/></g>
<g><path style="opacity:1" fill="#2c6509" d="M 236.5,216.5 C 249.288,225.448 261.955,234.615 274.5,244C 257.038,243.475 240.038,240.308 223.5,234.5C 221.532,231.134 221.366,227.801 223,224.5C 227.481,221.681 231.981,219.014 236.5,216.5 Z"/></g>
<g><path style="opacity:1" fill="#c2c3c2" d="M 182.5,220.5 C 184.262,220.357 185.929,220.691 187.5,221.5C 188.157,231.1 190.823,240.1 195.5,248.5C 194.824,250.354 193.824,250.687 192.5,249.5C 189.233,242.365 186.567,235.031 184.5,227.5C 183.131,225.876 181.464,225.376 179.5,226C 174.442,228.08 170.942,231.58 169,236.5C 168.936,243.978 171.103,250.811 175.5,257C 174.975,257.692 174.308,258.192 173.5,258.5C 168.744,252.318 166.244,245.318 166,237.5C 166.333,236.167 166.667,234.833 167,233.5C 171.775,228.553 176.942,224.22 182.5,220.5 Z"/></g>
<g><path style="opacity:1" fill="#5d973b" d="M 158.5,221.5 C 163.361,222.103 168.027,223.27 172.5,225C 170.317,227.35 167.984,229.517 165.5,231.5C 164.358,234.399 163.692,237.399 163.5,240.5C 160.626,240.451 157.792,240.784 155,241.5C 144.149,239.079 133.315,236.579 122.5,234C 134.71,230.098 146.71,225.931 158.5,221.5 Z"/></g>
<g><path style="opacity:1" fill="#5d973b" d="M 179.5,227.5 C 180.239,227.369 180.906,227.536 181.5,228C 178.667,230.167 175.833,232.333 173,234.5C 172.333,233.833 172.333,233.167 173,232.5C 175.352,230.97 177.519,229.303 179.5,227.5 Z"/></g>
<g><path style="opacity:1" fill="#7e7f7e" d="M 217.5,228.5 C 218.738,230.214 219.405,232.214 219.5,234.5C 218.5,234.5 217.5,234.5 216.5,234.5C 216.833,232.5 217.167,230.5 217.5,228.5 Z"/></g>
<g><path style="opacity:1" fill="#7e7f7e" d="M 381.5,228.5 C 385.332,230.234 386.498,233.234 385,237.5C 378.79,242.385 375.456,241.052 375,233.5C 376.272,230.508 378.438,228.841 381.5,228.5 Z"/></g>
<g><path style="opacity:1" fill="#7e7f7e" d="M 408.5,228.5 C 409.5,228.5 410.5,228.5 411.5,228.5C 412.666,233.497 412.666,238.497 411.5,243.5C 410.167,245.5 408.5,247.167 406.5,248.5C 405.239,242.228 404.573,235.895 404.5,229.5C 406.099,229.768 407.432,229.434 408.5,228.5 Z"/></g>
<g><path style="opacity:1" fill="#2c6509" d="M 194.5,229.5 C 195.239,229.369 195.906,229.536 196.5,230C 195.167,230.667 195.167,231.333 196.5,232C 189.59,234.348 188.923,233.515 194.5,229.5 Z"/></g>
<g><path style="opacity:1" fill="#2c6509" d="M 399.5,229.5 C 400.5,229.5 401.5,229.5 402.5,229.5C 403.905,245.258 402.905,245.258 399.5,229.5 Z"/></g>
<g><path style="opacity:1" fill="#5d973b" d="M 366.5,230.5 C 369.517,234.203 371.184,238.536 371.5,243.5C 357.162,246.168 343.496,250.835 330.5,257.5C 327.771,255.142 326.771,252.309 327.5,249C 341.623,244.936 354.623,238.77 366.5,230.5 Z"/></g>
<g><path style="opacity:1" fill="#c2c3c2" d="M 180.5,232.5 C 181.833,232.5 183.167,232.5 184.5,232.5C 184.67,233.822 184.337,234.989 183.5,236C 167.75,244.052 166.75,242.885 180.5,232.5 Z"/></g>
<g><path style="opacity:1" fill="#5d973b" d="M 481.5,242.5 C 480.512,245.076 479.512,247.743 478.5,250.5C 466.091,245.003 453.091,239.836 439.5,235C 440.047,234.075 440.713,233.242 441.5,232.5C 455.227,236.679 468.561,240.012 481.5,242.5 Z"/></g>
<g><path style="opacity:1" fill="#2c6509" d="M 195.5,234.5 C 196.124,234.917 196.457,235.584 196.5,236.5C 196,238.5 195.5,240.5 195,242.5C 194.163,240.649 193.329,238.816 192.5,237C 193.571,236.148 194.571,235.315 195.5,234.5 Z"/></g>
<g><path style="opacity:1" fill="#415028" d="M 299.5,234.5 C 302.187,234.336 304.854,234.503 307.5,235C 310.652,238.154 314.319,240.487 318.5,242C 321.52,247.214 324.02,252.714 326,258.5C 326.972,264.903 325.306,270.569 321,275.5C 321.05,280.401 319.05,284.068 315,286.5C 319.117,274.197 318.117,262.197 312,250.5C 301.872,239.848 290.705,238.015 278.5,245C 281.203,241.962 284.203,239.295 287.5,237C 291.665,236.295 295.665,235.461 299.5,234.5 Z"/></g>
<g><path style="opacity:1" fill="#5d973b" d="M 116.5,235.5 C 126.576,238.147 136.576,240.98 146.5,244C 143.129,245.068 139.796,246.235 136.5,247.5C 130.732,244.851 124.732,243.351 118.5,243C 115.29,247.92 111.957,252.754 108.5,257.5C 106.235,258.647 103.902,258.814 101.5,258C 107.14,250.872 112.14,243.372 116.5,235.5 Z"/></g>
<g><path style="opacity:1" fill="#415028" d="M 221.5,237.5 C 238.065,241.679 254.732,245.346 271.5,248.5C 255.269,246.756 239.102,243.756 223,239.5C 221.97,239.164 221.47,238.497 221.5,237.5 Z"/></g>
<g><path style="opacity:1" fill="#fefffe" d="M 434.5,237.5 C 446.245,241.36 457.912,245.527 469.5,250C 471.286,250.785 472.786,251.951 474,253.5C 471.953,260.916 468.287,267.583 463,273.5C 450.586,263.09 438.753,251.924 427.5,240C 430.191,239.844 432.524,239.011 434.5,237.5 Z M 435.5,242.5 C 444.465,250.964 453.298,259.631 462,268.5C 464.333,264.833 466.667,261.167 469,257.5C 469.684,256.216 469.517,255.049 468.5,254C 457.496,249.17 446.496,245.337 435.5,242.5 Z"/></g>
<g><path style="opacity:1" fill="#415028" d="M 328.5,238.5 C 331.272,238.595 333.272,239.929 334.5,242.5C 331.992,243.892 329.326,244.892 326.5,245.5C 322.422,243.361 322.755,241.861 327.5,241C 328.252,240.329 328.586,239.496 328.5,238.5 Z"/></g>
<g><path style="opacity:1" fill="#2c6509" d="M 183.5,239.5 C 184.5,239.5 185.5,239.5 186.5,239.5C 187.798,243.55 188.965,247.55 190,251.5C 184.271,247.994 179.938,249.327 177,255.5C 175.5,252.5 174,249.5 172.5,246.5C 176.026,243.906 179.692,241.573 183.5,239.5 Z"/></g>
<g><path style="opacity:1" fill="#5d973b" d="M 214.5,239.5 C 232.006,245.542 250.006,249.376 268.5,251C 269.973,251.71 270.64,252.876 270.5,254.5C 253.046,250.691 235.379,249.191 217.5,250C 216.5,250.5 215.5,251 214.5,251.5C 213.235,247.454 213.235,243.454 214.5,239.5 Z"/></g>
<g><path style="opacity:1" fill="#7e7f7e" d="M 420.5,240.5 C 420.897,239.475 421.563,239.308 422.5,240C 424.329,241.113 425.163,242.613 425,244.5C 423.629,242.959 422.129,241.625 420.5,240.5 Z"/></g>
<g><path style="opacity:1" fill="#5d973b" d="M 286.5,242.5 C 295.604,242.256 303.438,245.256 310,251.5C 310.982,252.759 311.315,254.092 311,255.5C 307.688,258.656 304.021,261.323 300,263.5C 298.452,262.086 297.785,260.42 298,258.5C 300.965,256.276 303.798,253.942 306.5,251.5C 302.733,251.894 299.4,253.727 296.5,257C 294.799,257.345 293.466,256.678 292.5,255C 296.466,253.149 298.466,250.316 298.5,246.5C 296.493,248.008 294.826,249.842 293.5,252C 291.788,253.751 289.788,254.418 287.5,254C 291.015,251.167 292.348,247.667 291.5,243.5C 290.128,247.079 288.128,250.246 285.5,253C 284.167,253.667 282.833,253.667 281.5,253C 283.582,249.671 285.248,246.171 286.5,242.5 Z"/></g>
<g><path style="opacity:1" fill="#5d973b" d="M 159.5,243.5 C 161.167,243.5 162.833,243.5 164.5,243.5C 164.719,244.675 164.386,245.675 163.5,246.5C 159.648,248.724 155.648,250.224 151.5,251C 154.739,248.922 157.406,246.422 159.5,243.5 Z"/></g>
<g><path style="opacity:1" fill="#b9b9b9" d="M 136.5,255.5 C 135.566,254.432 135.232,253.099 135.5,251.5C 135.47,250.503 135.97,249.836 137,249.5C 142.986,246.942 149.153,245.442 155.5,245C 149.756,249.539 143.422,253.039 136.5,255.5 Z"/></g>
<g><path style="opacity:1" fill="#5d973b" d="M 126.5,254.5 C 121.533,255.988 116.866,257.988 112.5,260.5C 111.475,260.103 111.308,259.437 112,258.5C 114.955,254.756 117.789,250.922 120.5,247C 124.225,247.011 127.892,247.677 131.5,249C 129.7,250.812 128.033,252.645 126.5,254.5 Z"/></g>
<g><path style="opacity:1" fill="#5d973b" d="M 280.5,246.5 C 281.239,246.369 281.906,246.536 282.5,247C 281.206,249.087 280.039,251.254 279,253.5C 277.108,254.13 275.441,255.13 274,256.5C 273.333,255.167 273.333,253.833 274,252.5C 276.664,251.002 278.83,249.002 280.5,246.5 Z"/></g>
<g><path style="opacity:1" fill="#5d973b" d="M 369.5,246.5 C 371.665,246.116 373.332,246.783 374.5,248.5C 370.939,249.761 367.272,250.594 363.5,251C 362.257,252.154 361.257,253.488 360.5,255C 354.17,255.819 347.836,256.152 341.5,256C 350.841,252.498 360.175,249.331 369.5,246.5 Z"/></g>
<g><path style="opacity:1" fill="#fefffe" d="M 414.5,246.5 C 427.812,257.812 440.146,270.146 451.5,283.5C 446.505,288.671 440.505,292.338 433.5,294.5C 432.252,293.96 431.085,293.293 430,292.5C 424.54,277.251 419.373,261.917 414.5,246.5 Z M 423.5,261.5 C 426.708,271.291 430.208,280.958 434,290.5C 438.415,288.377 442.582,285.877 446.5,283C 439.265,275.261 431.598,268.095 423.5,261.5 Z"/></g>
<g><path style="opacity:1" fill="#5d973b" d="M 426.5,297.5 C 424.143,297.663 421.81,297.497 419.5,297C 420.443,294.2 420.276,291.366 419,288.5C 415.626,275.71 411.459,263.21 406.5,251C 408.286,250.215 409.786,249.049 411,247.5C 416.166,263.981 422,280.148 428.5,296C 427.584,296.278 426.918,296.778 426.5,297.5 Z"/></g>
<g><path style="opacity:1" fill="#2c6509" d="M 164.5,249.5 C 165.376,249.369 166.043,249.702 166.5,250.5C 167.559,253.618 168.892,256.618 170.5,259.5C 172.484,260.706 174.484,260.706 176.5,259.5C 177.698,264.534 180.865,267.2 186,267.5C 190.588,266.345 192.755,263.345 192.5,258.5C 192.449,256.9 192.116,255.4 191.5,254C 192.766,253.691 193.933,253.191 195,252.5C 195.937,259.867 196.604,267.2 197,274.5C 170.497,286.223 143.83,297.556 117,308.5C 112.858,296.574 109.024,284.574 105.5,272.5C 126.026,266.797 145.692,259.13 164.5,249.5 Z"/></g>
<g><path style="opacity:1" fill="#c2c3c2" d="M 135.5,251.5 C 135.232,253.099 135.566,254.432 136.5,255.5C 133.755,258.634 131.755,258.134 130.5,254C 131.385,251.843 133.052,251.01 135.5,251.5 Z"/></g>
<g><path style="opacity:1" fill="#6b6b6b" d="M 182.5,251.5 C 189.063,251.589 191.563,254.922 190,261.5C 188.227,265.757 185.394,266.59 181.5,264C 178.598,259.501 178.932,255.335 182.5,251.5 Z"/></g>
<g><path style="opacity:1" fill="#7e7f7e" d="M 221.5,252.5 C 222.978,252.238 224.311,252.571 225.5,253.5C 227.247,258.406 228.581,263.406 229.5,268.5C 227.856,268.286 226.356,268.62 225,269.5C 223.416,263.903 222.249,258.236 221.5,252.5 Z"/></g>
<g><path style="opacity:1" fill="#2c6509" d="M 229.5,252.5 C 240.536,253.263 251.536,254.43 262.5,256C 253.08,258.188 243.746,260.688 234.5,263.5C 233.558,263.392 232.725,263.059 232,262.5C 230.648,259.28 229.814,255.947 229.5,252.5 Z"/></g>
<g><path style="opacity:1" fill="#5d953b" d="M 371.5,252.5 C 372.239,252.369 372.906,252.536 373.5,253C 368.713,258.742 364.047,264.575 359.5,270.5C 357.082,269.543 354.916,268.209 353,266.5C 352.586,266.957 352.086,267.291 351.5,267.5C 347.167,265.667 342.833,263.833 338.5,262C 341.977,258.576 344.644,259.242 346.5,264C 348.101,264.273 349.601,264.773 351,265.5C 358.521,262.124 365.355,257.791 371.5,252.5 Z"/></g>
<g><path style="opacity:1" fill="#415028" d="M 217.5,253.5 C 219.375,262.342 221.708,271.175 224.5,280C 222.19,280.497 219.857,280.663 217.5,280.5C 215.784,273.254 214.451,265.92 213.5,258.5C 214.127,256.213 215.46,254.546 217.5,253.5 Z"/></g>
<g><path style="opacity:1" fill="#5f5f5f" d="M 126.5,254.5 C 128.134,255.207 129.468,256.373 130.5,258C 129.584,258.278 128.918,258.778 128.5,259.5C 123.463,262.071 118.129,264.071 112.5,265.5C 107.191,263.854 107.191,262.187 112.5,260.5C 116.866,257.988 121.533,255.988 126.5,254.5 Z"/></g>
<g><path style="opacity:1" fill="#fefffe" d="M 375.5,255.5 C 376.222,255.918 376.722,256.584 377,257.5C 377.726,263.203 378.559,268.869 379.5,274.5C 373.952,274.943 368.619,273.777 363.5,271C 367.63,265.894 371.63,260.727 375.5,255.5 Z M 373.5,264.5 C 372.883,266.229 371.883,267.729 370.5,269C 371.891,270.02 373.391,270.853 375,271.5C 375.588,268.861 375.088,266.527 373.5,264.5 Z"/></g>
<g><path style="opacity:1" fill="#5d973b" d="M 280.5,256.5 C 288.984,255.99 294.818,259.657 298,267.5C 299.551,274.52 297.385,280.02 291.5,284C 290.5,284.667 289.5,284.667 288.5,284C 295.089,277.742 295.089,271.409 288.5,265C 281.589,261.871 276.422,263.704 273,270.5C 272.136,263.888 274.636,259.221 280.5,256.5 Z"/></g>
<g><path style="opacity:1" fill="#fefffe" d="M 267.5,257.5 C 268.5,257.5 269.5,257.5 270.5,257.5C 270.795,260.734 270.129,263.734 268.5,266.5C 255.976,271.73 243.143,276.064 230,279.5C 229.167,279.167 228.333,278.833 227.5,278.5C 226.907,276.618 226.24,274.785 225.5,273C 229.356,272.467 232.356,270.634 234.5,267.5C 245.561,263.99 256.561,260.657 267.5,257.5 Z M 263.5,262.5 C 255.618,264.809 247.618,267.142 239.5,269.5C 237.71,270.786 236.043,272.286 234.5,274C 245.418,271.36 256.085,267.693 266.5,263C 265.552,262.517 264.552,262.351 263.5,262.5 Z"/></g>
<g><path style="opacity:1" fill="#5d973b" d="M 311.5,257.5 C 312.75,257.577 313.583,258.244 314,259.5C 314.662,261.813 315.162,264.146 315.5,266.5C 310.862,266.472 306.362,267.139 302,268.5C 301.219,267.056 301.386,265.723 302.5,264.5C 306.112,262.871 309.112,260.538 311.5,257.5 Z"/></g>
<g><path style="opacity:1" fill="#fefffe" d="M 351.5,258.5 C 357.599,258.739 357.266,259.739 350.5,261.5C 349.833,261.167 349.167,260.833 348.5,260.5C 349.602,259.824 350.602,259.158 351.5,258.5 Z"/></g>
<g><path style="opacity:1" fill="#5d973b" d="M 128.5,259.5 C 130.199,259.34 131.866,259.506 133.5,260C 127.068,262.049 120.734,264.382 114.5,267C 113.167,267.667 111.833,267.667 110.5,267C 111.416,266.722 112.082,266.222 112.5,265.5C 118.129,264.071 123.463,262.071 128.5,259.5 Z"/></g>
<g><path style="opacity:1" fill="#5d973b" d="M 329.5,262.5 C 345.468,269.156 361.801,274.823 378.5,279.5C 379.857,283 379.524,286.333 377.5,289.5C 363.055,280.689 347.722,274.022 331.5,269.5C 329.466,274.695 330.3,279.361 334,283.5C 339,290.167 344,296.833 349,303.5C 355.073,309.117 361.239,314.617 367.5,320C 365.333,322.833 363.167,325.667 361,328.5C 351.479,313.974 340.812,300.307 329,287.5C 327.363,285.19 325.196,283.69 322.5,283C 324.241,278.015 326.408,273.181 329,268.5C 329.495,266.527 329.662,264.527 329.5,262.5 Z"/></g>
<g><path style="opacity:1" fill="#fefffe" d="M 407.5,264.5 C 411.068,273.877 414.068,283.544 416.5,293.5C 416.291,294.994 415.624,296.161 414.5,297C 411.518,297.498 408.518,297.665 405.5,297.5C 406.87,286.547 407.536,275.547 407.5,264.5 Z M 409.5,284.5 C 409.784,287.777 409.451,290.943 408.5,294C 410.607,294.854 411.941,294.188 412.5,292C 412.018,289.181 411.018,286.681 409.5,284.5 Z"/></g>
<g><path style="opacity:1" fill="#7e7f7e" d="M 280.5,265.5 C 288.395,265.613 291.895,269.613 291,277.5C 290.252,279.332 289.252,280.999 288,282.5C 291.402,273.486 288.235,268.319 278.5,267C 279.416,266.722 280.082,266.222 280.5,265.5 Z"/></g>
<g><path style="opacity:1" fill="#7e7f7e" d="M 62.5,268.5 C 70.4624,269.759 78.4624,270.759 86.5,271.5C 92.2468,271.204 97.9135,270.704 103.5,270C 97.6557,271.711 91.989,273.877 86.5,276.5C 78.093,273.375 69.4263,271.208 60.5,270C 61.4158,269.722 62.0825,269.222 62.5,268.5 Z"/></g>
<g><path style="opacity:1" fill="#5d973b" d="M 309.5,268.5 C 311.5,268.5 313.5,268.5 315.5,268.5C 315.663,270.857 315.497,273.19 315,275.5C 310.678,273.186 306.178,272.852 301.5,274.5C 301.238,273.022 301.571,271.689 302.5,270.5C 304.982,269.933 307.316,269.266 309.5,268.5 Z"/></g>
<g><path style="opacity:1" fill="#7e7f7e" d="M 278.5,269.5 C 286.018,269.887 288.518,273.554 286,280.5C 282.402,284.404 279.069,284.07 276,279.5C 275.219,278.271 274.719,276.938 274.5,275.5C 275.432,273.235 276.765,271.235 278.5,269.5 Z"/></g>
<g><path style="opacity:1" fill="#5d973b" d="M 266.5,270.5 C 267.5,270.5 268.5,270.5 269.5,270.5C 269.083,273.079 269.75,275.246 271.5,277C 259.298,280.734 247.298,285.068 235.5,290C 231.333,292.833 227.833,296.333 225,300.5C 222.957,294.919 220.79,289.419 218.5,284C 235.416,282.412 251.416,277.912 266.5,270.5 Z"/></g>
<g><path style="opacity:1" fill="#2c6509" d="M 52.5,273.5 C 64.1776,273.779 75.511,275.779 86.5,279.5C 89.3211,279.222 91.9878,278.722 94.5,278C 98.0857,288.835 101.752,299.668 105.5,310.5C 87.3333,314.504 71.6667,310.004 58.5,297C 66.7287,295.259 68.562,290.759 64,283.5C 60.4814,279.247 56.4814,278.58 52,281.5C 51.6667,283.167 51.3333,284.833 51,286.5C 48.8794,281.885 49.3794,277.552 52.5,273.5 Z"/></g>
<g><path style="opacity:1" fill="#7e7f7e" d="M 100.5,274.5 C 102.124,274.36 103.29,275.027 104,276.5C 107.401,286.87 110.901,297.204 114.5,307.5C 113.098,309.146 111.264,310.146 109,310.5C 108.055,310.095 107.388,309.428 107,308.5C 103.499,297.828 99.999,287.161 96.5,276.5C 97.9492,275.828 99.2825,275.161 100.5,274.5 Z"/></g>
<g><path style="opacity:1" fill="#fefffe" d="M 334.5,274.5 C 342.528,283.031 350.861,291.531 359.5,300C 363.332,302.75 367.332,305.25 371.5,307.5C 372.499,310.881 371.666,313.881 369,316.5C 353.904,305.258 342.404,291.258 334.5,274.5 Z"/></g>
<g><path style="opacity:1" fill="#5d973b" d="M 306.5,275.5 C 314.772,274.922 316.939,277.922 313,284.5C 306.894,291.308 301.394,291.141 296.5,284C 300.977,279.977 304.977,280.811 308.5,286.5C 309.725,284.157 309.059,282.323 306.5,281C 304.5,280 302.5,279 300.5,278C 302.502,276.981 304.502,276.148 306.5,275.5 Z"/></g>
<g><path style="opacity:1" fill="#7e7f7e" d="M 480.5,285.5 C 481.671,281.835 483.505,278.502 486,275.5C 486.315,276.908 485.982,278.241 485,279.5C 483.847,281.818 482.347,283.818 480.5,285.5 Z"/></g>
<g><path style="opacity:1" fill="#5d973b" d="M 343.5,278.5 C 343.735,277.903 344.235,277.57 345,277.5C 356.332,282.082 367.165,287.582 377.5,294C 376.466,297.599 375.133,301.099 373.5,304.5C 361.953,297.62 351.953,288.953 343.5,278.5 Z"/></g>
<g><path style="opacity:1" fill="#fefffe" d="M 271.5,279.5 C 273.628,281.446 275.961,283.279 278.5,285C 277.069,285.465 275.903,286.299 275,287.5C 266.92,299.334 257.253,309.668 246,318.5C 240.306,312.281 235.473,305.448 231.5,298C 233.809,295.513 236.476,293.513 239.5,292C 250.367,288.056 261.033,283.889 271.5,279.5 Z M 268.5,284.5 C 258.402,288.428 248.402,292.761 238.5,297.5C 237.417,298.365 237.251,299.365 238,300.5C 240.127,304.589 242.627,308.423 245.5,312C 246.908,312.315 248.241,311.982 249.5,311C 257.039,303.13 264.206,294.963 271,286.5C 271.188,284.939 270.355,284.272 268.5,284.5 Z"/></g>
<g><path style="opacity:1" fill="#7b7b7b" d="M 54.5,281.5 C 60.088,281.582 63.4214,284.416 64.5,290C 61.9617,295.298 58.6283,295.798 54.5,291.5C 53.174,288.136 53.174,284.803 54.5,281.5 Z"/></g>
<g><path style="opacity:1" fill="#000000" d="M 54.5,283.5 C 55.8734,283.343 57.2068,283.51 58.5,284C 59.478,285.975 60.8113,287.642 62.5,289C 61.5915,291.319 59.9248,291.986 57.5,291C 59.0441,290.71 60.3774,290.044 61.5,289C 59.5091,287.842 57.8424,286.342 56.5,284.5C 55.0133,289.657 54.3466,289.324 54.5,283.5 Z"/></g>
<g><path style="opacity:1" fill="#7e7f7e" d="M 463.5,284.5 C 467.911,286.759 468.411,289.425 465,292.5C 461.005,290.518 460.505,287.851 463.5,284.5 Z"/></g>
<g><path style="opacity:1" fill="#5d973b" d="M 279.5,285.5 C 282.607,285.351 285.607,285.851 288.5,287C 280.647,295.218 273.147,303.718 266,312.5C 261.321,318.876 257.988,325.876 256,333.5C 251.82,331.987 248.987,329.154 247.5,325C 247.833,324 248.167,323 248.5,322C 259.389,313.112 268.889,302.945 277,291.5C 278.559,289.783 279.392,287.783 279.5,285.5 Z"/></g>
<g><path style="opacity:1" fill="#7e7f7e" d="M 480.5,285.5 C 478.57,289.1 475.903,292.1 472.5,294.5C 474.43,290.9 477.097,287.9 480.5,285.5 Z"/></g>
<g><path style="opacity:1" fill="#000000" d="M 79.5,286.5 C 85.0934,286.193 90.5934,286.527 96,287.5C 97.2896,293.381 97.4563,299.215 96.5,305C 90.9589,306.363 85.4589,306.529 80,305.5C 78.6233,299.122 78.4567,292.789 79.5,286.5 Z"/></g>
<g><path style="opacity:1" fill="#7e7f7e" d="M 209.5,287.5 C 210.5,287.5 211.5,287.5 212.5,287.5C 213.092,291.074 211.592,293.074 208,293.5C 207.252,291.16 207.752,289.16 209.5,287.5 Z"/></g>
<g><path style="opacity:1" fill="#7e7f7e" d="M 81.5,296.5 C 80.5269,294.052 80.1936,291.385 80.5,288.5C 85.1667,288.5 89.8333,288.5 94.5,288.5C 94.7509,293.507 95.0843,298.507 95.5,303.5C 90.8333,303.833 86.1667,304.167 81.5,304.5C 81.5,301.833 81.5,299.167 81.5,296.5 Z"/></g>
<g><path style="opacity:1" fill="#fefffe" d="M 291.5,288.5 C 292.88,288.962 293.547,289.962 293.5,291.5C 290.39,309.721 286.39,327.721 281.5,345.5C 273.052,343.446 266.052,339.112 260.5,332.5C 261.998,325.839 264.831,319.839 269,314.5C 276.336,305.666 283.836,296.999 291.5,288.5 Z M 287.5,299.5 C 282.543,305.628 277.376,311.628 272,317.5C 268.852,321.629 266.352,326.129 264.5,331C 268.531,335.8 273.364,338.633 279,339.5C 283.356,326.204 286.189,312.871 287.5,299.5 Z"/></g>
<g><path style="opacity:1" fill="#5d973b" d="M 315.5,289.5 C 316.931,289.881 317.764,290.881 318,292.5C 319.582,304.326 321.915,315.993 325,327.5C 328.186,334.706 332.019,341.539 336.5,348C 333.361,349.728 330.028,350.894 326.5,351.5C 322.764,331.222 317.764,311.222 311.5,291.5C 312.949,290.828 314.282,290.161 315.5,289.5 Z"/></g>
<g><path style="opacity:1" fill="#fefffe" d="M 325.5,289.5 C 337.971,302.309 348.971,316.309 358.5,331.5C 354.242,337.807 348.575,342.473 341.5,345.5C 332.132,328.033 326.798,309.366 325.5,289.5 Z M 330.5,302.5 C 332.962,315.718 337.128,328.385 343,340.5C 347.006,338.082 350.506,335.082 353.5,331.5C 346.921,320.927 339.254,311.26 330.5,302.5 Z"/></g>
<g><path style="opacity:1" fill="#000000" d="M 81.5,296.5 C 81.1667,292.167 83.1667,290.167 87.5,290.5C 87.67,291.822 87.3366,292.989 86.5,294C 88.1554,295.444 88.822,297.278 88.5,299.5C 85.7939,299.312 83.4605,298.312 81.5,296.5 Z"/></g>
<g><path style="opacity:1" fill="#7e7f7e" d="M 84.5,291.5 C 86.7645,291.441 87.0978,292.274 85.5,294C 87.9406,299.426 86.9406,299.593 82.5,294.5C 83.1925,293.482 83.8592,292.482 84.5,291.5 Z"/></g>
<g><path style="opacity:1" fill="#000000" d="M 104.5,291.5 C 107.861,292.203 108.194,293.537 105.5,295.5C 103.358,294.563 103.024,293.23 104.5,291.5 Z"/></g>
<g><path style="opacity:1" fill="#5d973b" d="M 285.5,350.5 C 285.5,349.833 285.167,349.5 284.5,349.5C 284.389,348.883 284.056,348.383 283.5,348C 289.549,329.591 293.883,310.757 296.5,291.5C 298.564,291.687 300.564,292.187 302.5,293C 296.789,312.044 293.623,331.544 293,351.5C 290.433,352.384 287.933,352.05 285.5,350.5 Z"/></g>
<g><path style="opacity:1" fill="#7e7f7e" d="M 212.5,292.5 C 213.776,293.386 213.776,294.386 212.5,295.5C 211.252,296.04 210.085,296.707 209,297.5C 208.333,296.5 208.333,295.5 209,294.5C 210.302,293.915 211.469,293.249 212.5,292.5 Z"/></g>
<g><path style="opacity:1" fill="#fefffe" d="M 307.5,294.5 C 308.586,294.62 309.253,295.287 309.5,296.5C 315.235,314.511 319.569,332.844 322.5,351.5C 315.187,353.167 307.853,353.501 300.5,352.5C 300.334,344.493 300.5,336.493 301,328.5C 302.592,317.043 304.758,305.709 307.5,294.5 Z M 308.5,308.5 C 304.623,321.853 302.956,335.52 303.5,349.5C 308.414,350.016 313.414,349.849 318.5,349C 316.361,335.117 313.027,321.617 308.5,308.5 Z"/></g>
<g><path style="opacity:1" fill="#7e7f7e" d="M 472.5,294.5 C 464.626,303.22 454.959,308.72 443.5,311C 454.081,306.877 463.748,301.377 472.5,294.5 Z"/></g>
<g><path style="opacity:1" fill="#7e7f7e" d="M 212.5,296.5 C 213.525,296.897 213.692,297.563 213,298.5C 210.946,300.547 209.946,300.547 210,298.5C 210.995,297.934 211.828,297.267 212.5,296.5 Z"/></g>
<g><path style="opacity:1" fill="#415028" d="M 322.5,296.5 C 325.35,309.221 328.516,321.888 332,334.5C 326.335,322.508 323.169,309.841 322.5,296.5 Z"/></g>
<g><path style="opacity:1" fill="#414f28" d="M 284.5,349.5 C 285.167,349.5 285.5,349.833 285.5,350.5C 285.265,351.097 284.765,351.43 284,351.5C 258.011,343.679 238.845,327.679 226.5,303.5C 227.328,302.585 228.328,301.919 229.5,301.5C 235.944,312.1 242.944,322.267 250.5,332C 256.834,335.5 262.834,339.5 268.5,344C 273.441,346.925 278.775,348.758 284.5,349.5 Z"/></g>
<g><path style="opacity:1" fill="#000000" d="M 366.5,341.5 C 364.516,341.516 363.516,340.516 363.5,338.5C 363.996,333.502 366.663,331.669 371.5,333C 373.993,336.308 374.159,339.808 372,343.5C 369.418,344.961 367.585,344.294 366.5,341.5 Z"/></g>
<g><path style="opacity:1" fill="#7e7f7e" d="M 366.5,341.5 C 364.051,339.306 364.051,336.973 366.5,334.5C 370.044,332.863 372.044,334.029 372.5,338C 372.25,343.157 370.25,344.324 366.5,341.5 Z"/></g>
<g><path style="opacity:1" fill="#7e7f7e" d="M 287.5,367.5 C 285.844,368.146 284.177,368.813 282.5,369.5C 278.085,368.082 277.418,365.582 280.5,362C 287.644,357.642 289.977,359.476 287.5,367.5 Z"/></g>
</svg>
