<?xml version="1.0" encoding="UTF-8"?>
<!DOCTYPE svg PUBLIC "-//W3C//DTD SVG 1.1//EN" "http://www.w3.org/Graphics/SVG/1.1/DTD/svg11.dtd">
<svg xmlns="http://www.w3.org/2000/svg" version="1.1" width="430px" height="400px" style="shape-rendering:geometricPrecision; text-rendering:geometricPrecision; image-rendering:optimizeQuality; fill-rule:evenodd; clip-rule:evenodd" xmlns:xlink="http://www.w3.org/1999/xlink">
<g><path style="opacity:1" fill="#fefffe" d="M 142.5,0.5 C 146.637,0.146307 150.637,0.646307 154.5,2C 163.167,12 172.5,21.3333 182.5,30C 189.281,29.8188 195.114,31.9855 200,36.5C 202.824,42.2879 203.99,48.4546 203.5,55C 203.62,60.3704 202.953,65.5371 201.5,70.5C 204.321,70.4613 206.988,69.7946 209.5,68.5C 204.396,51.216 204.23,33.8827 209,16.5C 219.77,3.58829 233.27,-0.245039 249.5,5C 252.728,6.56292 254.895,9.06292 256,12.5C 256.984,18.7046 256.317,24.7046 254,30.5C 251.586,32.2907 249.086,33.9574 246.5,35.5C 247.861,37.0284 249.028,38.6951 250,40.5C 251.796,47.2228 253.963,53.7228 256.5,60C 256.695,62.3523 256.028,64.3523 254.5,66C 252.105,66.6813 249.772,67.5147 247.5,68.5C 253.142,68.4866 257.476,70.8199 260.5,75.5C 265.132,76.3283 269.798,76.8283 274.5,77C 280.293,80.7269 286.626,83.0602 293.5,84C 295.333,85.1667 297.167,86.3333 299,87.5C 298.545,92.5437 300.712,95.877 305.5,97.5C 308.294,96.0141 311.294,95.3474 314.5,95.5C 320.024,96.0809 325.691,96.0809 331.5,95.5C 337.039,95.2073 342.372,96.0406 347.5,98C 351.6,100.467 355.434,103.301 359,106.5C 362.166,114.147 366.833,120.814 373,126.5C 380.579,136.658 387.912,146.991 395,157.5C 398.921,167.913 396.421,176.413 387.5,183C 380.738,184.381 374.738,187.381 369.5,192C 365.5,192.667 361.5,192.667 357.5,192C 351.53,186.178 345.197,181.011 338.5,176.5C 332.81,179.513 328.143,183.68 324.5,189C 321.576,189.988 318.576,190.654 315.5,191C 315.043,191.414 314.709,191.914 314.5,192.5C 316.034,195.971 316.7,199.638 316.5,203.5C 315.98,212.456 314.646,221.289 312.5,230C 316.419,243.671 322.586,256.171 331,267.5C 338.27,285.892 348.437,302.392 361.5,317C 373.151,322.652 377.651,331.819 375,344.5C 366.101,349.118 356.601,350.618 346.5,349C 341.408,344.735 339.241,339.235 340,332.5C 336.57,331 333.07,329.5 329.5,328C 315.334,301.491 298.334,276.991 278.5,254.5C 274.745,261.009 271.245,267.676 268,274.5C 266.855,279.083 266.189,283.749 266,288.5C 261.711,297.368 258.211,306.534 255.5,316C 256.59,319.011 258.09,321.844 260,324.5C 265.711,328.544 270.378,333.544 274,339.5C 274.667,343.5 274.667,347.5 274,351.5C 272.786,353.049 271.286,354.215 269.5,355C 259.898,357.484 250.565,356.817 241.5,353C 240.667,352.167 239.833,351.333 239,350.5C 239.107,343.908 236.44,338.908 231,335.5C 229.586,328.215 229.253,320.882 230,313.5C 232.969,301.687 234.635,289.687 235,277.5C 237.789,270.017 239.456,262.35 240,254.5C 224.491,256.052 208.991,255.552 193.5,253C 187.252,249.627 181.085,246.127 175,242.5C 172.886,246.948 169.719,250.448 165.5,253C 156.166,257.834 146.5,261.834 136.5,265C 128.597,269.632 123.764,276.465 122,285.5C 121.24,289.819 120.573,294.152 120,298.5C 115.338,304.499 111.504,310.999 108.5,318C 103.61,318.06 98.9435,319.06 94.5,321C 90.5,321.667 86.5,321.667 82.5,321C 82,320.5 81.5,320 81,319.5C 80.501,315.179 80.3343,310.846 80.5,306.5C 74.3213,306.783 68.3213,305.95 62.5,304C 61.358,297.916 61.1913,291.749 62,285.5C 66.0958,277.536 72.5958,273.87 81.5,274.5C 82.6318,260.41 84.4652,246.41 87,232.5C 88.214,230.951 89.714,229.785 91.5,229C 98.5789,228.886 105.579,228.219 112.5,227C 110.321,222.092 109.154,216.926 109,211.5C 108.667,211.167 108.333,210.833 108,210.5C 98.1432,213.849 89.6432,219.349 82.5,227C 76.6997,229.151 70.6997,229.984 64.5,229.5C 64.5,227.5 64.5,225.5 64.5,223.5C 58.4547,223.572 52.4547,223.072 46.5,222C 44.8446,220.556 44.178,218.722 44.5,216.5C 40.6252,215.823 37.2918,213.99 34.5,211C 31.0946,209.456 27.5946,208.289 24,207.5C 19.2132,199.604 18.3799,191.437 21.5,183C 30.8603,181.734 40.1937,181.567 49.5,182.5C 54.766,181.343 60.0993,180.509 65.5,180C 76.1833,174.883 87.1833,170.55 98.5,167C 109.914,164.441 121.414,163.941 133,165.5C 139.35,163.473 145.85,162.14 152.5,161.5C 152.35,152.483 153.35,143.65 155.5,135C 157.5,134.333 159.5,133.667 161.5,133C 163.984,130.256 166.984,128.256 170.5,127C 177.826,126.5 185.159,126.334 192.5,126.5C 192.701,123.492 193.034,120.492 193.5,117.5C 193.485,115.366 192.985,113.366 192,111.5C 186.167,107 180.333,102.5 174.5,98C 173.206,95.913 172.039,93.7463 171,91.5C 170.095,82.8406 169.762,74.174 170,65.5C 170.833,63.8333 171.667,62.1667 172.5,60.5C 170.98,55.2938 170.147,49.9605 170,44.5C 160.282,34.0512 151.282,23.0512 143,11.5C 142.501,7.84841 142.335,4.18174 142.5,0.5 Z M 247.5,106.5 C 248.583,106.539 249.583,106.873 250.5,107.5C 251.197,111.377 251.864,115.21 252.5,119C 250.167,119.667 247.833,119.667 245.5,119C 247.312,115.078 247.979,110.911 247.5,106.5 Z"/></g>
<g><path style="opacity:1" fill="#000000" d="M 144.5,2.5 C 147.32,2.24751 149.986,2.74751 152.5,4C 161.167,14 170.5,23.3333 180.5,32C 187.281,31.8188 193.114,33.9855 198,38.5C 200.563,43.6441 201.73,49.1441 201.5,55C 199.784,61.9885 199.284,69.1552 200,76.5C 202.965,72.9595 206.799,71.2929 211.5,71.5C 211.519,69.9397 211.852,68.4397 212.5,67C 206.439,51.0548 205.939,34.8881 211,18.5C 220.55,6.47989 232.717,2.64656 247.5,7C 253.364,10.5663 255.53,15.733 254,22.5C 253.728,27.4377 251.228,30.6044 246.5,32C 244.1,32.1858 241.766,32.6858 239.5,33.5C 242.798,34.9647 245.298,37.298 247,40.5C 248.922,47.2712 251.422,53.7712 254.5,60C 254.561,61.7106 253.894,63.044 252.5,64C 250.26,64.977 247.927,65.477 245.5,65.5C 245.5,67.5 245.5,69.5 245.5,71.5C 252.748,70.5775 257.582,73.5775 260,80.5C 263.933,78.5223 268.1,78.0223 272.5,79C 278.293,82.7269 284.626,85.0602 291.5,86C 293.333,87.1667 295.167,88.3333 297,89.5C 296.449,94.0988 298.282,97.2655 302.5,99C 306.614,99.4445 310.614,98.9445 314.5,97.5C 317.684,97.5087 320.517,98.5087 323,100.5C 323.483,99.552 323.649,98.552 323.5,97.5C 330.241,97.1712 336.908,97.6712 343.5,99C 347.5,101.667 351.5,104.333 355.5,107C 357.235,109.192 358.402,111.692 359,114.5C 371.885,129.274 383.551,144.941 394,161.5C 395.473,167.298 394.14,172.298 390,176.5C 388.5,178 387,179.5 385.5,181C 378.738,182.381 372.738,185.381 367.5,190C 364.036,190.817 360.702,190.483 357.5,189C 353.672,184.161 349.005,180.494 343.5,178C 342.602,175.6 340.936,174.1 338.5,173.5C 332.202,176.821 326.869,181.321 322.5,187C 319.576,187.988 316.576,188.654 313.5,189C 311.128,191.844 311.294,194.677 314,197.5C 314.457,208.758 312.957,219.758 309.5,230.5C 312,236.833 314.5,243.167 317,249.5C 327.521,267.21 337.521,285.21 347,303.5C 350.787,308.956 354.954,314.123 359.5,319C 369.615,323.741 374.115,331.574 373,342.5C 365.431,346.813 357.265,348.313 348.5,347C 343.408,342.735 341.241,337.235 342,330.5C 338.57,329 335.07,327.5 331.5,326C 330.667,325.167 329.833,324.333 329,323.5C 325.861,315.888 322.194,308.554 318,301.5C 305.635,283.445 292.302,266.112 278,249.5C 273.745,257.009 269.745,264.676 266,272.5C 264.855,277.083 264.189,281.749 264,286.5C 259.214,295.899 255.714,305.732 253.5,316C 253.997,319.862 255.497,323.362 258,326.5C 263.711,330.544 268.378,335.544 272,341.5C 273.724,346.731 272.224,350.565 267.5,353C 259.218,355.421 251.218,354.754 243.5,351C 242.667,350.167 241.833,349.333 241,348.5C 241.107,341.908 238.44,336.908 233,333.5C 232.173,329.541 231.673,325.541 231.5,321.5C 234.309,307.64 236.143,293.64 237,279.5C 240.264,270.778 242.098,261.778 242.5,252.5C 226.771,254.117 211.104,253.617 195.5,251C 188.088,247.212 180.921,243.045 174,238.5C 170.37,246.795 164.203,252.295 155.5,255C 148.449,257.514 141.449,260.18 134.5,263C 126.597,267.632 121.764,274.465 120,283.5C 119.24,287.819 118.573,292.152 118,296.5C 113.338,302.499 109.504,308.999 106.5,316C 101.61,316.06 96.9435,317.06 92.5,319C 89.8333,319.667 87.1667,319.667 84.5,319C 82.9546,317.178 82.288,315.011 82.5,312.5C 82.9379,309.473 83.1045,306.473 83,303.5C 76.4636,304.946 70.1302,304.28 64,301.5C 60.8397,290.333 64.3397,282.166 74.5,277C 77.4294,276.223 80.2628,276.39 83,277.5C 84.5341,263.095 86.5341,248.762 89,234.5C 90.214,232.951 91.714,231.785 93.5,231C 100.533,230.721 107.533,230.221 114.5,229.5C 112.983,221.77 111.317,214.104 109.5,206.5C 105.613,209.378 101.28,211.212 96.5,212C 90.8521,215.985 85.5188,220.318 80.5,225C 76.0374,226.975 71.3708,227.808 66.5,227.5C 66.8076,225.076 66.4742,222.743 65.5,220.5C 59.8436,221.56 54.177,221.394 48.5,220C 46.8446,218.556 46.178,216.722 46.5,214.5C 42.6252,213.823 39.2918,211.99 36.5,209C 33.0946,207.456 29.5946,206.289 26,205.5C 21.9897,199.722 20.6563,193.388 22,186.5C 22.5,186 23,185.5 23.5,185C 29.5066,184.576 35.5066,184.076 41.5,183.5C 44.5395,183.417 47.3729,184.084 50,185.5C 55.6049,183.505 61.4382,182.339 67.5,182C 78.1833,176.883 89.1833,172.55 100.5,169C 111.828,166.028 123.161,165.862 134.5,168.5C 140.662,165.633 147.162,163.966 154,163.5C 154.833,163.167 155.667,162.833 156.5,162.5C 153.741,156.565 154.074,150.731 157.5,145C 154.763,138.826 156.763,135.492 163.5,135C 165.984,132.256 168.984,130.256 172.5,129C 179.826,128.5 187.159,128.334 194.5,128.5C 194.685,124.756 195.352,121.089 196.5,117.5C 195.974,114.728 195.141,112.062 194,109.5C 188.167,105 182.333,100.5 176.5,96C 172.539,90.1284 171.539,83.7951 173.5,77C 170.409,70.7719 171.409,65.1052 176.5,60C 175.667,59.1667 174.833,58.3333 174,57.5C 172.915,52.5634 172.248,47.5634 172,42.5C 162.282,32.0512 153.282,21.0512 145,9.5C 144.503,7.19018 144.337,4.85684 144.5,2.5 Z M 247.5,106.5 C 247.979,110.911 247.312,115.078 245.5,119C 247.833,119.667 250.167,119.667 252.5,119C 251.864,115.21 251.197,111.377 250.5,107.5C 249.583,106.873 248.583,106.539 247.5,106.5 Z"/></g>
<g><path style="opacity:1" fill="#c2c3c2" d="M 147.5,5.5 C 157.634,16.4671 168.301,26.9671 179.5,37C 178.333,38.1667 177.167,39.3333 176,40.5C 165.526,29.5059 156.026,17.8393 147.5,5.5 Z"/></g>
<g><path style="opacity:1" fill="#ec1c23" d="M 215.5,49.5 C 215.216,51.4147 215.549,53.0813 216.5,54.5C 216.5,55.1667 216.5,55.8333 216.5,56.5C 215.5,56.5 214.5,56.5 213.5,56.5C 210.448,44.5764 211.281,32.9098 216,21.5C 222.932,12.7705 231.766,9.27048 242.5,11C 248.608,14.3235 249.941,18.9902 246.5,25C 245.127,25.8749 243.627,26.3749 242,26.5C 238.333,25.5 234.667,24.5 231,23.5C 219.438,26.4137 213.938,33.9137 214.5,46C 214.514,47.3847 214.848,48.5514 215.5,49.5 Z"/></g>
<g><path style="opacity:1" fill="#b28a00" d="M 240.5,42.5 C 239.833,42.5 239.167,42.5 238.5,42.5C 235.198,39.598 231.365,37.598 227,36.5C 223.418,37.5165 220.251,39.1831 217.5,41.5C 218.172,32.9905 222.672,27.6571 231,25.5C 232.763,25.9755 234.43,26.6422 236,27.5C 235.518,30.76 235.518,34.0934 236,37.5C 237.707,39.0375 239.207,40.7041 240.5,42.5 Z"/></g>
<g><path style="opacity:1" fill="#fec90d" d="M 238.5,42.5 C 235.789,46.2119 232.456,49.2119 228.5,51.5C 227.391,51.4431 226.391,51.1098 225.5,50.5C 225.489,48.9826 224.823,47.8159 223.5,47C 221.288,46.2109 219.288,46.3775 217.5,47.5C 216.258,45.6112 216.258,43.6112 217.5,41.5C 220.251,39.1831 223.418,37.5165 227,36.5C 231.365,37.598 235.198,39.598 238.5,42.5 Z"/></g>
<g><path style="opacity:1" fill="#fec90d" d="M 191.5,51.5 C 191.5,52.5 191.5,53.5 191.5,54.5C 189.473,54.3379 187.473,54.5045 185.5,55C 184.944,55.3826 184.611,55.8826 184.5,56.5C 179.334,55.3101 177,51.9767 177.5,46.5C 177.939,42.0574 180.272,39.0574 184.5,37.5C 185.478,37.9767 186.311,38.6433 187,39.5C 188.266,43.3951 188.766,47.3951 188.5,51.5C 189.5,51.5 190.5,51.5 191.5,51.5 Z"/></g>
<g><path style="opacity:1" fill="#eee4af" d="M 192.5,44.5 C 191.325,44.719 190.325,44.3857 189.5,43.5C 190.723,42.3861 192.056,42.2195 193.5,43C 192.944,43.3826 192.611,43.8826 192.5,44.5 Z"/></g>
<g><path style="opacity:1" fill="#fec90d" d="M 240.5,42.5 C 241.376,42.3691 242.043,42.7025 242.5,43.5C 243.653,44.6868 243.653,45.6868 242.5,46.5C 241.833,45.1667 241.167,43.8333 240.5,42.5 Z"/></g>
<g><path style="opacity:1" fill="#949494" d="M 238.5,42.5 C 239.167,42.5 239.833,42.5 240.5,42.5C 241.167,43.8333 241.833,45.1667 242.5,46.5C 244.339,48.7898 244.672,51.1231 243.5,53.5C 242.662,53.1583 242.328,52.4916 242.5,51.5C 242.291,50.0783 241.791,48.745 241,47.5C 240.517,48.448 240.351,49.448 240.5,50.5C 239.732,53.5616 237.732,55.2283 234.5,55.5C 229.36,56.7498 229.36,57.4165 234.5,57.5C 236.415,57.2155 238.081,57.5489 239.5,58.5C 242.899,59.8198 246.399,59.8198 250,58.5C 250.5,59 251,59.5 251.5,60C 248.829,61.903 245.829,62.7363 242.5,62.5C 239.375,61.5206 236.042,61.1872 232.5,61.5C 230.5,60.8333 228.5,60.1667 226.5,59.5C 224.112,58.6515 221.779,57.6515 219.5,56.5C 218.71,55.5987 217.71,54.9321 216.5,54.5C 215.549,53.0813 215.216,51.4147 215.5,49.5C 216.167,48.8333 216.833,48.1667 217.5,47.5C 219.288,46.3775 221.288,46.2109 223.5,47C 224.823,47.8159 225.489,48.9826 225.5,50.5C 226.053,52.5518 227.053,52.8852 228.5,51.5C 232.456,49.2119 235.789,46.2119 238.5,42.5 Z"/></g>
<g><path style="opacity:1" fill="#eee4af" d="M 192.5,44.5 C 195.098,45.5278 195.098,46.5278 192.5,47.5C 191.325,47.719 190.325,47.3857 189.5,46.5C 190.602,45.8243 191.602,45.1577 192.5,44.5 Z"/></g>
<g><path style="opacity:1" fill="#eee4af" d="M 192.5,47.5 C 196.005,47.6941 196.338,48.6941 193.5,50.5C 192.833,50.8333 192.167,51.1667 191.5,51.5C 190.909,50.8485 190.243,50.1818 189.5,49.5C 190.602,48.8243 191.602,48.1577 192.5,47.5 Z"/></g>
<g><path style="opacity:1" fill="#000000" d="M 242.5,51.5 C 241.833,51.1667 241.167,50.8333 240.5,50.5C 240.351,49.448 240.517,48.448 241,47.5C 241.791,48.745 242.291,50.0783 242.5,51.5 Z"/></g>
<g><path style="opacity:1" fill="#8b6b0c" d="M 193.5,50.5 C 196.084,51.0483 197.084,52.715 196.5,55.5C 195.5,55.5 194.5,55.5 193.5,55.5C 192.833,55.1667 192.167,54.8333 191.5,54.5C 191.5,53.5 191.5,52.5 191.5,51.5C 192.167,51.1667 192.833,50.8333 193.5,50.5 Z"/></g>
<g><path style="opacity:1" fill="#363636" d="M 219.5,49.5 C 223.095,50.9051 223.262,52.5717 220,54.5C 219.167,53.6667 218.333,52.8333 217.5,52C 218.381,51.2917 219.047,50.4584 219.5,49.5 Z"/></g>
<g><path style="opacity:1" fill="#000000" d="M 225.5,50.5 C 226.391,51.1098 227.391,51.4431 228.5,51.5C 227.053,52.8852 226.053,52.5518 225.5,50.5 Z"/></g>
<g><path style="opacity:1" fill="#fec90d" d="M 240.5,50.5 C 241.167,50.8333 241.833,51.1667 242.5,51.5C 242.328,52.4916 242.662,53.1583 243.5,53.5C 248.863,58.1969 247.53,59.8636 239.5,58.5C 238.081,57.5489 236.415,57.2155 234.5,57.5C 234.5,56.8333 234.5,56.1667 234.5,55.5C 237.732,55.2283 239.732,53.5616 240.5,50.5 Z"/></g>
<g><path style="opacity:1" fill="#e2d8a6" d="M 191.5,54.5 C 192.167,54.8333 192.833,55.1667 193.5,55.5C 194.398,56.1577 195.398,56.8243 196.5,57.5C 195.714,62.7813 195.214,68.1146 195,73.5C 192.257,71.0197 190.257,68.0197 189,64.5C 188.202,67.8931 187.202,71.2265 186,74.5C 182.178,76.3022 179.345,75.3022 177.5,71.5C 180.102,66.6299 182.435,61.6299 184.5,56.5C 184.611,55.8826 184.944,55.3826 185.5,55C 187.473,54.5045 189.473,54.3379 191.5,54.5 Z"/></g>
<g><path style="opacity:1" fill="#000000" d="M 216.5,54.5 C 217.71,54.9321 218.71,55.5987 219.5,56.5C 218.5,56.5 217.5,56.5 216.5,56.5C 216.5,55.8333 216.5,55.1667 216.5,54.5 Z"/></g>
<g><path style="opacity:1" fill="#000000" d="M 234.5,55.5 C 234.5,56.1667 234.5,56.8333 234.5,57.5C 229.36,57.4165 229.36,56.7498 234.5,55.5 Z"/></g>
<g><path style="opacity:1" fill="#8a6b0c" d="M 216.5,56.5 C 217.5,56.5 218.5,56.5 219.5,56.5C 221.779,57.6515 224.112,58.6515 226.5,59.5C 226.5,60.1667 226.167,60.5 225.5,60.5C 224.167,60.5 222.833,60.5 221.5,60.5C 219.482,59.0674 217.815,59.4008 216.5,61.5C 215.28,59.9504 215.28,58.2837 216.5,56.5 Z"/></g>
<g><path style="opacity:1" fill="#e9926d" d="M 221.5,60.5 C 221.5,60.8333 221.5,61.1667 221.5,61.5C 218.833,63.1667 218.833,64.8333 221.5,66.5C 221.784,68.4147 221.451,70.0813 220.5,71.5C 219.631,67.9698 218.297,64.6364 216.5,61.5C 217.815,59.4008 219.482,59.0674 221.5,60.5 Z"/></g>
<g><path style="opacity:1" fill="#f7763e" d="M 226.5,59.5 C 228.5,60.1667 230.5,60.8333 232.5,61.5C 232.5,61.8333 232.5,62.1667 232.5,62.5C 231.561,63.3274 231.895,63.9941 233.5,64.5C 234.75,64.4226 235.583,63.756 236,62.5C 236.278,63.4158 236.778,64.0825 237.5,64.5C 233.289,65.9912 229.289,65.3245 225.5,62.5C 225.5,61.8333 225.5,61.1667 225.5,60.5C 226.167,60.5 226.5,60.1667 226.5,59.5 Z"/></g>
<g><path style="opacity:1" fill="#100c03" d="M 221.5,60.5 C 222.833,60.5 224.167,60.5 225.5,60.5C 225.5,61.1667 225.5,61.8333 225.5,62.5C 225.334,66.5138 225.501,70.5138 226,74.5C 228.301,75.7599 230.468,77.0933 232.5,78.5C 229.482,78.2962 226.482,77.9629 223.5,77.5C 223.5,76.8333 223.167,76.5 222.5,76.5C 222.107,74.7162 221.441,73.0495 220.5,71.5C 221.451,70.0813 221.784,68.4147 221.5,66.5C 218.833,64.8333 218.833,63.1667 221.5,61.5C 221.5,61.1667 221.5,60.8333 221.5,60.5 Z"/></g>
<g><path style="opacity:1" fill="#b28a00" d="M 221.5,61.5 C 222.675,61.281 223.675,61.6143 224.5,62.5C 222.948,63.7979 221.948,63.4646 221.5,61.5 Z"/></g>
<g><path style="opacity:1" fill="#000000" d="M 232.5,62.5 C 232.5,62.1667 232.5,61.8333 232.5,61.5C 236.042,61.1872 239.375,61.5206 242.5,62.5C 241.849,63.0906 241.182,63.7573 240.5,64.5C 240.511,63.5585 240.011,62.8919 239,62.5C 237.97,62.8361 237.47,63.5028 237.5,64.5C 236.778,64.0825 236.278,63.4158 236,62.5C 235.583,63.756 234.75,64.4226 233.5,64.5C 235.031,63.0755 234.698,62.4088 232.5,62.5 Z"/></g>
<g><path style="opacity:1" fill="#f3a17e" d="M 225.5,62.5 C 229.289,65.3245 233.289,65.9912 237.5,64.5C 237.47,63.5028 237.97,62.8361 239,62.5C 240.011,62.8919 240.511,63.5585 240.5,64.5C 241.182,63.7573 241.849,63.0906 242.5,62.5C 242.675,64.6208 242.341,66.6208 241.5,68.5C 240.778,68.0825 240.278,67.4158 240,66.5C 236.727,67.2562 233.727,68.5895 231,70.5C 230.333,71.5 230.333,72.5 231,73.5C 233.369,73.2734 235.869,73.1067 238.5,73C 239.044,72.2828 239.711,71.7828 240.5,71.5C 240.025,73.7837 239.025,75.7837 237.5,77.5C 237.5,78.1667 237.167,78.5 236.5,78.5C 235.167,78.5 233.833,78.5 232.5,78.5C 230.468,77.0933 228.301,75.7599 226,74.5C 225.501,70.5138 225.334,66.5138 225.5,62.5 Z"/></g>
<g><path style="opacity:1" fill="#fefffe" d="M 232.5,62.5 C 234.698,62.4088 235.031,63.0755 233.5,64.5C 231.895,63.9941 231.561,63.3274 232.5,62.5 Z"/></g>
<g><path style="opacity:1" fill="#b28a00" d="M 221.5,66.5 C 221.948,64.5354 222.948,64.2021 224.5,65.5C 223.675,66.3857 222.675,66.719 221.5,66.5 Z"/></g>
<g><path style="opacity:1" fill="#b28a00" d="M 222.5,67.5 C 224.337,67.6395 224.67,68.3061 223.5,69.5C 222.702,69.0431 222.369,68.3764 222.5,67.5 Z"/></g>
<g><path style="opacity:1" fill="#4b291b" d="M 241.5,68.5 C 241.539,69.5832 241.873,70.5832 242.5,71.5C 242.03,72.463 241.363,72.463 240.5,71.5C 239.711,71.7828 239.044,72.2828 238.5,73C 235.869,73.1067 233.369,73.2734 231,73.5C 230.333,72.5 230.333,71.5 231,70.5C 233.727,68.5895 236.727,67.2562 240,66.5C 240.278,67.4158 240.778,68.0825 241.5,68.5 Z"/></g>
<g><path style="opacity:1" fill="#e6dcd6" d="M 188.5,69.5 C 190.335,70.1223 191.502,71.4556 192,73.5C 192.333,75.8333 192.667,78.1667 193,80.5C 198.839,84.0078 202.839,89.0078 205,95.5C 204.961,98.9451 203.794,102.112 201.5,105C 197.458,104.96 195.292,102.793 195,98.5C 194.667,99.5 194.333,100.5 194,101.5C 188.796,98.3097 185.129,93.9764 183,88.5C 182.751,89.624 182.251,90.624 181.5,91.5C 177.469,87.3815 176.636,82.7148 179,77.5C 181.405,76.7256 183.905,76.2256 186.5,76C 188.229,74.2111 188.896,72.0444 188.5,69.5 Z"/></g>
<g><path style="opacity:1" fill="#b28a00" d="M 222.5,70.5 C 224.337,70.6395 224.67,71.3061 223.5,72.5C 222.702,72.0431 222.369,71.3764 222.5,70.5 Z"/></g>
<g><path style="opacity:1" fill="#6689b9" d="M 220.5,71.5 C 221.441,73.0495 222.107,74.7162 222.5,76.5C 221.167,75.5 219.833,74.5 218.5,73.5C 218.5,73.1667 218.5,72.8333 218.5,72.5C 218.842,71.6618 219.508,71.3284 220.5,71.5 Z"/></g>
<g><path style="opacity:1" fill="#b28a00" d="M 218.5,72.5 C 218.5,72.8333 218.5,73.1667 218.5,73.5C 222.708,81.5695 229.041,83.9028 237.5,80.5C 237.5,80.8333 237.5,81.1667 237.5,81.5C 236.173,83.9642 234.007,84.9642 231,84.5C 228.409,84.4347 225.909,83.9347 223.5,83C 221.595,81.5787 219.595,80.412 217.5,79.5C 216.833,78.8333 216.167,78.1667 215.5,77.5C 215.592,75.1523 216.592,73.4856 218.5,72.5 Z"/></g>
<g><path style="opacity:1" fill="#fbfbfd" d="M 218.5,73.5 C 219.833,74.5 221.167,75.5 222.5,76.5C 223.167,76.5 223.5,76.8333 223.5,77.5C 227.648,80.9526 231.981,81.2859 236.5,78.5C 237.167,78.5 237.5,78.1667 237.5,77.5C 238.338,77.8417 238.672,78.5084 238.5,79.5C 237.833,79.5 237.5,79.8333 237.5,80.5C 229.041,83.9028 222.708,81.5695 218.5,73.5 Z"/></g>
<g><path style="opacity:1" fill="#d7cec8" d="M 244.5,75.5 C 246.674,75.7497 248.341,76.7497 249.5,78.5C 249.932,79.7095 250.599,80.7095 251.5,81.5C 251.5,85.8333 251.5,90.1667 251.5,94.5C 250.999,96.246 250.332,97.246 249.5,97.5C 249.443,95.1155 249.777,92.7822 250.5,90.5C 250.635,84.0238 247.968,79.3571 242.5,76.5C 242.842,75.6618 243.508,75.3284 244.5,75.5 Z"/></g>
<g><path style="opacity:1" fill="#81640e" d="M 215.5,77.5 C 216.167,78.1667 216.833,78.8333 217.5,79.5C 220.255,82.9166 222.588,86.5833 224.5,90.5C 224.427,92.0269 225.094,93.0269 226.5,93.5C 229.476,98.6315 231.81,104.131 233.5,110C 232.914,113.341 231.414,116.174 229,118.5C 225.973,114.756 224.307,110.423 224,105.5C 222.059,101.278 219.892,97.2784 217.5,93.5C 214.167,88.5 210.833,83.5 207.5,78.5C 210.004,76.8742 212.67,76.5409 215.5,77.5 Z"/></g>
<g><path style="opacity:1" fill="#6283b1" d="M 242.5,76.5 C 247.968,79.3571 250.635,84.0238 250.5,90.5C 249.777,92.7822 249.443,95.1155 249.5,97.5C 247.833,97.5 246.167,97.5 244.5,97.5C 244.821,92.3054 244.487,87.3054 243.5,82.5C 242.512,81.205 241.512,79.8717 240.5,78.5C 240.5,77.1667 241.167,76.5 242.5,76.5 Z"/></g>
<g><path style="opacity:1" fill="#567299" d="M 223.5,77.5 C 226.482,77.9629 229.482,78.2962 232.5,78.5C 233.833,78.5 235.167,78.5 236.5,78.5C 231.981,81.2859 227.648,80.9526 223.5,77.5 Z"/></g>
<g><path style="opacity:1" fill="#d71e21" d="M 244.5,75.5 C 251.102,74.3769 255.102,77.3769 256.5,84.5C 256.154,85.8492 255.821,87.1825 255.5,88.5C 255.167,88.5 254.833,88.5 254.5,88.5C 253.596,87.791 253.263,86.791 253.5,85.5C 253.011,84.0048 252.345,82.6715 251.5,81.5C 251.715,79.8212 251.048,78.8212 249.5,78.5C 248.341,76.7497 246.674,75.7497 244.5,75.5 Z"/></g>
<g><path style="opacity:1" fill="#b28a00" d="M 207.5,78.5 C 210.833,83.5 214.167,88.5 217.5,93.5C 215.062,101.682 210.562,108.682 204,114.5C 204.251,117.831 205.751,120.664 208.5,123C 218.094,128.165 227.761,128.665 237.5,124.5C 237.982,127.831 236.982,130.497 234.5,132.5C 229.821,132.666 225.155,132.499 220.5,132C 214.381,130.105 208.381,127.938 202.5,125.5C 202.082,124.778 201.416,124.278 200.5,124C 201.464,119.934 201.797,115.767 201.5,111.5C 208.412,106.325 212.078,99.6583 212.5,91.5C 212.5,91.1667 212.5,90.8333 212.5,90.5C 211.175,86.5348 208.841,83.2015 205.5,80.5C 205.855,79.4777 206.522,78.811 207.5,78.5 Z"/></g>
<g><path style="opacity:1" fill="#7b5f0e" d="M 240.5,78.5 C 241.512,79.8717 242.512,81.205 243.5,82.5C 243.5,87.8333 243.5,93.1667 243.5,98.5C 242.878,99.6266 242.045,100.627 241,101.5C 240.667,104.833 240.333,108.167 240,111.5C 239.276,113.959 237.943,114.959 236,114.5C 235.583,104.828 236.75,95.3276 239.5,86C 239.693,83.9919 239.026,82.4919 237.5,81.5C 237.5,81.1667 237.5,80.8333 237.5,80.5C 237.5,79.8333 237.833,79.5 238.5,79.5C 239.167,79.1667 239.833,78.8333 240.5,78.5 Z"/></g>
<g><path style="opacity:1" fill="#000000" d="M 249.5,78.5 C 251.048,78.8212 251.715,79.8212 251.5,81.5C 250.599,80.7095 249.932,79.7095 249.5,78.5 Z"/></g>
<g><path style="opacity:1" fill="#fec90d" d="M 217.5,79.5 C 219.595,80.412 221.595,81.5787 223.5,83C 225.909,83.9347 228.409,84.4347 231,84.5C 234.007,84.9642 236.173,83.9642 237.5,81.5C 239.026,82.4919 239.693,83.9919 239.5,86C 236.75,95.3276 235.583,104.828 236,114.5C 237.943,114.959 239.276,113.959 240,111.5C 240.333,108.167 240.667,104.833 241,101.5C 242.045,100.627 242.878,99.6266 243.5,98.5C 244.559,100.07 244.059,101.403 242,102.5C 242.293,108.007 240.96,113.007 238,117.5C 237.503,119.81 237.337,122.143 237.5,124.5C 227.761,128.665 218.094,128.165 208.5,123C 205.751,120.664 204.251,117.831 204,114.5C 210.562,108.682 215.062,101.682 217.5,93.5C 219.892,97.2784 222.059,101.278 224,105.5C 224.307,110.423 225.973,114.756 229,118.5C 231.414,116.174 232.914,113.341 233.5,110C 231.81,104.131 229.476,98.6315 226.5,93.5C 226.573,91.9731 225.906,90.9731 224.5,90.5C 222.588,86.5833 220.255,82.9166 217.5,79.5 Z"/></g>
<g><path style="opacity:1" fill="#ec1c23" d="M 205.5,83.5 C 204.508,83.3284 203.842,83.6618 203.5,84.5C 200.86,84.046 198.527,82.8793 196.5,81C 200.142,79.9302 203.142,80.7636 205.5,83.5 Z"/></g>
<g><path style="opacity:1" fill="#000000" d="M 251.5,81.5 C 252.345,82.6715 253.011,84.0048 253.5,85.5C 252.876,85.9169 252.543,86.5836 252.5,87.5C 252.747,88.7133 253.414,89.38 254.5,89.5C 253.233,91.0389 252.233,92.7056 251.5,94.5C 251.5,90.1667 251.5,85.8333 251.5,81.5 Z"/></g>
<g><path style="opacity:1" fill="#000000" d="M 214.5,83.5 C 215.189,82.2264 216.023,82.2264 217,83.5C 221.743,90.3623 225.743,97.6957 229,105.5C 229.667,107.167 229.667,108.833 229,110.5C 225.743,100.483 220.91,91.4833 214.5,83.5 Z"/></g>
<g><path style="opacity:1" fill="#870014" d="M 283.5,92.5 C 281.167,92.5 278.833,92.5 276.5,92.5C 277.684,91.3121 277.684,90.1455 276.5,89C 271.367,88.1251 266.367,86.7918 261.5,85C 263.39,83.8877 265.39,83.0544 267.5,82.5C 272.46,85.4867 277.793,87.4867 283.5,88.5C 283.5,89.8333 283.5,91.1667 283.5,92.5 Z"/></g>
<g><path style="opacity:1" fill="#000000" d="M 266.5,83.5 C 268.423,83.795 270.09,84.6283 271.5,86C 269.365,86.6347 267.365,86.3014 265.5,85C 266.056,84.6174 266.389,84.1174 266.5,83.5 Z"/></g>
<g><path style="opacity:1" fill="#ec1c23" d="M 253.5,85.5 C 253.263,86.791 253.596,87.791 254.5,88.5C 254.5,88.8333 254.5,89.1667 254.5,89.5C 253.414,89.38 252.747,88.7133 252.5,87.5C 252.543,86.5836 252.876,85.9169 253.5,85.5 Z"/></g>
<g><path style="opacity:1" fill="#a8201c" d="M 205.5,83.5 C 206.496,83.4142 207.329,83.7476 208,84.5C 210.152,87.0335 210.652,89.7002 209.5,92.5C 209.672,93.4916 209.338,94.1583 208.5,94.5C 206.616,93.6184 205.283,92.1184 204.5,90C 204.833,89.6667 205.167,89.3333 205.5,89C 204.5,88 203.5,87 202.5,86C 203.056,85.6174 203.389,85.1174 203.5,84.5C 203.842,83.6618 204.508,83.3284 205.5,83.5 Z"/></g>
<g><path style="opacity:1" fill="#eee4dd" d="M 254.5,88.5 C 254.833,88.5 255.167,88.5 255.5,88.5C 259.685,89.5397 263.685,90.873 267.5,92.5C 266.36,94.0455 265.36,95.7121 264.5,97.5C 263.691,99.2922 263.191,101.292 263,103.5C 259.544,101.07 255.71,99.7369 251.5,99.5C 251.5,97.8333 251.5,96.1667 251.5,94.5C 252.233,92.7056 253.233,91.0389 254.5,89.5C 254.5,89.1667 254.5,88.8333 254.5,88.5 Z"/></g>
<g><path style="opacity:1" fill="#fefffe" d="M 212.5,90.5 C 212.5,90.8333 212.5,91.1667 212.5,91.5C 209.963,96.5691 207.13,101.569 204,106.5C 202.961,107.71 201.794,108.71 200.5,109.5C 203.441,104.616 206.108,99.616 208.5,94.5C 209.338,94.1583 209.672,93.4916 209.5,92.5C 210.222,91.4489 211.222,90.7822 212.5,90.5 Z"/></g>
<g><path style="opacity:1" fill="#000000" d="M 224.5,90.5 C 225.906,90.9731 226.573,91.9731 226.5,93.5C 225.094,93.0269 224.427,92.0269 224.5,90.5 Z"/></g>
<g><path style="opacity:1" fill="#837d62" d="M 290.5,91.5 C 289.569,95.4287 287.236,98.0953 283.5,99.5C 282.662,99.1583 282.328,98.4916 282.5,97.5C 284.543,95.792 286.21,93.792 287.5,91.5C 288.652,90.375 289.652,90.375 290.5,91.5 Z"/></g>
<g><path style="opacity:1" fill="#6689b9" d="M 212.5,91.5 C 212.078,99.6583 208.412,106.325 201.5,111.5C 200.662,111.158 200.328,110.492 200.5,109.5C 201.794,108.71 202.961,107.71 204,106.5C 207.13,101.569 209.963,96.5691 212.5,91.5 Z"/></g>
<g><path style="opacity:1" fill="#dad0a1" d="M 287.5,91.5 C 286.21,93.792 284.543,95.792 282.5,97.5C 280.51,97.9931 280.51,99.1598 282.5,101C 279.792,102.069 277.125,103.236 274.5,104.5C 271.5,103.167 268.5,103.167 265.5,104.5C 264.526,102.257 264.192,99.924 264.5,97.5C 265.36,95.7121 266.36,94.0455 267.5,92.5C 270.444,91.4116 273.444,91.4116 276.5,92.5C 278.556,93.2161 280.723,93.8828 283,94.5C 283.464,93.9056 283.631,93.2389 283.5,92.5C 284.404,91.791 284.737,90.791 284.5,89.5C 286.179,89.2852 287.179,89.9519 287.5,91.5 Z"/></g>
<g><path style="opacity:1" fill="#000000" d="M 276.5,92.5 C 278.833,92.5 281.167,92.5 283.5,92.5C 283.631,93.2389 283.464,93.9056 283,94.5C 280.723,93.8828 278.556,93.2161 276.5,92.5 Z"/></g>
<g><path style="opacity:1" fill="#c3ba90" d="M 290.5,91.5 C 293.495,93.1433 294.161,95.4767 292.5,98.5C 291.29,98.9321 290.29,99.5987 289.5,100.5C 287.328,101.448 285.328,101.115 283.5,99.5C 287.236,98.0953 289.569,95.4287 290.5,91.5 Z"/></g>
<g><path style="opacity:1" fill="#7f0414" d="M 292.5,98.5 C 295.268,100.087 297.935,101.92 300.5,104C 297.062,105.611 294.062,107.777 291.5,110.5C 292.259,108.564 293.259,106.731 294.5,105C 292.91,103.368 291.244,101.868 289.5,100.5C 290.29,99.5987 291.29,98.9321 292.5,98.5 Z"/></g>
<g><path style="opacity:1" fill="#2d2d2d" d="M 334.5,114.5 C 333.178,114.33 332.011,114.663 331,115.5C 329.987,113.154 328.321,111.487 326,110.5C 314.005,115.079 302.838,121.079 292.5,128.5C 288.205,126.192 284.205,123.526 280.5,120.5C 282.624,119.851 284.624,119.017 286.5,118C 284.833,116.333 283.167,114.667 281.5,113C 283.817,111.287 285.817,111.787 287.5,114.5C 289.216,113.451 290.549,112.118 291.5,110.5C 291.5,111.5 291.5,112.5 291.5,113.5C 294.817,114.221 298.151,114.388 301.5,114C 302.61,110.951 303.277,107.784 303.5,104.5C 307.342,104.132 311.009,103.132 314.5,101.5C 318.381,103.607 322.381,105.441 326.5,107C 327.701,107.903 328.535,109.069 329,110.5C 328.296,107.903 327.796,105.403 327.5,103C 331.572,102.342 335.572,102.675 339.5,104C 343.5,106.667 347.5,109.333 351.5,112C 352.638,113.734 353.138,115.568 353,117.5C 351.4,116.134 349.567,115.134 347.5,114.5C 344.887,109.853 340.887,107.186 335.5,106.5C 334.908,109.127 334.575,111.794 334.5,114.5 Z"/></g>
<g><path style="opacity:1" fill="#fefffe" d="M 246.5,103.5 C 249.678,104.211 252.678,105.378 255.5,107C 252.475,112.13 253.142,116.796 257.5,121C 252.15,121.039 246.983,121.872 242,123.5C 244.61,117.168 246.11,110.501 246.5,103.5 Z M 247.5,106.5 C 247.979,110.911 247.312,115.078 245.5,119C 247.833,119.667 250.167,119.667 252.5,119C 251.864,115.21 251.197,111.377 250.5,107.5C 249.583,106.873 248.583,106.539 247.5,106.5 Z"/></g>
<g><path style="opacity:1" fill="#fefffe" d="M 267.5,110.5 C 270.625,109.521 273.958,109.187 277.5,109.5C 277.799,111.604 277.466,113.604 276.5,115.5C 273.607,113.555 270.607,111.889 267.5,110.5 Z"/></g>
<g><path style="opacity:1" fill="#6a6b6a" d="M 339.5,110.5 C 338.258,113.74 338.424,117.074 340,120.5C 342.702,121.739 344.868,121.073 346.5,118.5C 347.151,119.091 347.818,119.757 348.5,120.5C 350.412,118.844 352.412,118.511 354.5,119.5C 350.5,121.833 346.5,124.167 342.5,126.5C 338.025,121.745 336.358,116.245 337.5,110C 338.437,109.308 339.103,109.475 339.5,110.5 Z"/></g>
<g><path style="opacity:1" fill="#860014" d="M 336.5,157.5 C 337.167,158.833 338.167,159.833 339.5,160.5C 341.884,163.391 344.551,166.224 347.5,169C 348.833,169.667 350.167,169.667 351.5,169C 359.5,162.667 367.5,156.333 375.5,150C 377.074,149.301 378.407,149.635 379.5,151C 371.088,157.289 362.588,163.456 354,169.5C 355.455,173.143 357.955,176.143 361.5,178.5C 363.167,179.5 364.5,180.833 365.5,182.5C 364.686,184.273 363.352,184.773 361.5,184C 358.5,181 355.5,178 352.5,175C 346.57,171.451 340.403,168.284 334,165.5C 331.252,166.194 330.418,167.694 331.5,170C 326.214,172.953 321.88,176.953 318.5,182C 316.011,182.941 314.011,182.441 312.5,180.5C 313.377,178.272 314.71,176.272 316.5,174.5C 322.648,175.325 326.814,172.658 329,166.5C 329.667,165.5 329.667,164.5 329,163.5C 308.41,145.24 286.41,128.906 263,114.5C 263.472,118.018 265.306,120.851 268.5,123C 264.221,121.073 260.721,117.906 258,113.5C 257.437,112.275 257.77,111.275 259,110.5C 273.167,119.333 287.333,128.167 301.5,137C 312.425,145.254 322.758,154.254 332.5,164C 334.513,164.309 334.846,163.642 333.5,162C 334.781,160.591 335.781,159.091 336.5,157.5 Z"/></g>
<g><path style="opacity:1" fill="#2b2b2b" d="M 339.5,110.5 C 343.664,111.459 345.998,114.126 346.5,118.5C 344.868,121.073 342.702,121.739 340,120.5C 338.424,117.074 338.258,113.74 339.5,110.5 Z"/></g>
<g><path style="opacity:1" fill="#870014" d="M 333.5,145.5 C 332.833,145.5 332.5,145.833 332.5,146.5C 330.466,148.365 329.799,150.532 330.5,153C 329.906,153.464 329.239,153.631 328.5,153.5C 328.509,151.692 328.009,150.025 327,148.5C 321.625,139.583 316.125,130.749 310.5,122C 311.579,121.044 312.745,120.211 314,119.5C 316.752,129.003 321.085,137.67 327,145.5C 327.371,135.115 327.038,124.782 326,114.5C 326.689,115.357 327.522,116.023 328.5,116.5C 329.332,125.816 329.832,135.149 330,144.5C 334.38,138.908 338.88,133.408 343.5,128C 347.785,124.851 352.451,122.851 357.5,122C 345.656,126.011 337.656,133.845 333.5,145.5 Z"/></g>
<g><path style="opacity:1" fill="#870014" d="M 334.5,114.5 C 335.215,119.443 337.215,123.943 340.5,128C 338.536,129.794 337.036,129.294 336,126.5C 334.548,123.263 333.381,119.93 332.5,116.5C 333.243,115.818 333.909,115.151 334.5,114.5 Z"/></g>
<g><path style="opacity:1" fill="#6a6b6a" d="M 331.5,121.5 C 332.863,125.061 334.53,128.561 336.5,132C 334.88,134.738 333.38,137.572 332,140.5C 331.5,134.175 331.334,127.842 331.5,121.5 Z"/></g>
<g><path style="opacity:1" fill="#636363" d="M 322.5,115.5 C 324.641,123.576 325.474,131.909 325,140.5C 320.807,134.076 317.974,127.076 316.5,119.5C 318.565,118.143 320.565,116.81 322.5,115.5 Z"/></g>
<g><path style="opacity:1" fill="#313231" d="M 272.5,123.5 C 277.096,126.092 281.429,129.092 285.5,132.5C 285.167,132.833 284.833,133.167 284.5,133.5C 281.275,130.554 277.608,128.721 273.5,128C 276.017,130.349 278.35,132.849 280.5,135.5C 279.667,135.833 278.833,136.167 278,136.5C 274.455,135.127 270.955,133.961 267.5,133C 269.976,134.309 271.976,136.142 273.5,138.5C 270.249,140.375 267.082,142.375 264,144.5C 262.017,137.551 263.684,131.884 269,127.5C 269.483,126.552 269.649,125.552 269.5,124.5C 270.791,124.737 271.791,124.404 272.5,123.5 Z"/></g>
<g><path style="opacity:1" fill="#6a6b6a" d="M 356.5,124.5 C 358.39,124.297 359.89,124.963 361,126.5C 366.531,133.064 371.698,139.898 376.5,147C 373.333,149.5 370.167,152 367,154.5C 360.62,146.242 354.12,138.076 347.5,130C 350.564,128.141 353.564,126.308 356.5,124.5 Z"/></g>
<g><path style="opacity:1" fill="#496081" d="M 202.5,125.5 C 208.381,127.938 214.381,130.105 220.5,132C 225.155,132.499 229.821,132.666 234.5,132.5C 235.473,134.292 234.806,135.625 232.5,136.5C 229.291,136.411 226.125,136.744 223,137.5C 219.879,136.171 216.713,135.338 213.5,135C 207.234,137.593 202.568,141.759 199.5,147.5C 198.523,144.713 198.19,141.713 198.5,138.5C 201.062,135.777 204.062,133.611 207.5,132C 204.813,130.951 202.48,129.451 200.5,127.5C 200.5,126.167 201.167,125.5 202.5,125.5 Z"/></g>
<g><path style="opacity:1" fill="#cea693" d="M 261.5,131.5 C 261.5,135.167 261.5,138.833 261.5,142.5C 257.809,143.519 254.143,143.685 250.5,143C 245.721,147.779 240.554,152.946 235,158.5C 233.069,155.12 231.902,151.454 231.5,147.5C 232.97,141.906 234.97,136.573 237.5,131.5C 238.5,131.5 239.5,131.5 240.5,131.5C 244.276,129.806 248.442,128.139 253,126.5C 259.048,126.383 259.881,128.216 255.5,132C 257.425,131.865 259.425,131.698 261.5,131.5 Z"/></g>
<g><path style="opacity:1" fill="#fefffe" d="M 200.5,127.5 C 202.48,129.451 204.813,130.951 207.5,132C 204.062,133.611 201.062,135.777 198.5,138.5C 198.646,134.613 199.313,130.946 200.5,127.5 Z"/></g>
<g><path style="opacity:1" fill="#606060" d="M 328.5,153.5 C 330.095,155.374 329.761,156.207 327.5,156C 317.578,146.903 307.245,138.403 296.5,130.5C 300.195,127.638 304.029,124.972 308,122.5C 313.006,128.503 317.006,135.17 320,142.5C 322.37,146.597 325.203,150.264 328.5,153.5 Z"/></g>
<g><path style="opacity:1" fill="#d5ac97" d="M 261.5,131.5 C 260.737,130.732 259.737,130.232 258.5,130C 259.819,128.372 261.152,128.539 262.5,130.5C 262.376,131.107 262.043,131.44 261.5,131.5 Z"/></g>
<g><path style="opacity:1" fill="#000000" d="M 240.5,131.5 C 241.552,131.351 242.552,131.517 243.5,132C 242.333,132.5 241.5,133.333 241,134.5C 240.517,133.552 240.351,132.552 240.5,131.5 Z"/></g>
<g><path style="opacity:1" fill="#7d0514" d="M 347.5,134.5 C 347.5,135.167 347.167,135.5 346.5,135.5C 343.612,134.46 343.279,133.127 345.5,131.5C 346.919,132.005 347.585,133.005 347.5,134.5 Z"/></g>
<g><path style="opacity:1" fill="#000000" d="M 358.5,131.5 C 360.809,132.388 362.476,134.054 363.5,136.5C 360.073,140.03 357.073,139.364 354.5,134.5C 355.624,133.141 356.958,132.141 358.5,131.5 Z"/></g>
<g><path style="opacity:1" fill="#000000" d="M 250.5,132.5 C 252.085,133.002 252.585,134.002 252,135.5C 250.961,134.756 250.461,133.756 250.5,132.5 Z"/></g>
<g><path style="opacity:1" fill="#510f0f" d="M 180.5,134.5 C 183.434,135.639 186.1,137.306 188.5,139.5C 189.5,140.167 190.5,140.833 191.5,141.5C 192.058,146.516 192.725,151.516 193.5,156.5C 193.44,157.043 193.107,157.376 192.5,157.5C 191.818,156.757 191.151,156.091 190.5,155.5C 189.865,152.069 188.865,148.736 187.5,145.5C 187.567,144.041 187.234,142.708 186.5,141.5C 182.771,138.926 178.771,136.926 174.5,135.5C 175.172,134.733 176.005,134.066 177,133.5C 178.011,134.337 179.178,134.67 180.5,134.5 Z"/></g>
<g><path style="opacity:1" fill="#557097" d="M 193.5,134.5 C 192.139,136.527 190.473,138.194 188.5,139.5C 186.1,137.306 183.434,135.639 180.5,134.5C 184.833,133.167 189.167,133.167 193.5,134.5 Z"/></g>
<g><path style="opacity:1" fill="#fefffe" d="M 359.5,133.5 C 360.773,134.077 360.773,134.743 359.5,135.5C 358.537,135.03 358.537,134.363 359.5,133.5 Z"/></g>
<g><path style="opacity:1" fill="#fefffe" d="M 193.5,134.5 C 194.5,134.5 195.5,134.5 196.5,134.5C 195.079,137.009 193.412,139.343 191.5,141.5C 190.5,140.833 189.5,140.167 188.5,139.5C 190.473,138.194 192.139,136.527 193.5,134.5 Z"/></g>
<g><path style="opacity:1" fill="#6689b9" d="M 196.5,134.5 C 197.653,140.319 197.819,146.319 197,152.5C 196.34,154.324 195.173,155.657 193.5,156.5C 192.725,151.516 192.058,146.516 191.5,141.5C 193.412,139.343 195.079,137.009 196.5,134.5 Z"/></g>
<g><path style="opacity:1" fill="#e7d1c5" d="M 232.5,136.5 C 230.684,140.284 229.684,144.284 229.5,148.5C 226.439,144.112 222.439,140.778 217.5,138.5C 214.855,139.108 212.188,139.608 209.5,140C 207.98,141.885 206.98,144.051 206.5,146.5C 209.73,153.293 213.23,159.96 217,166.5C 218.697,169.02 220.53,171.353 222.5,173.5C 221.38,180.052 220.547,180.052 220,173.5C 215.29,166.579 210.456,159.746 205.5,153C 203.51,151.249 201.177,150.249 198.5,150C 199.252,149.329 199.586,148.496 199.5,147.5C 202.568,141.759 207.234,137.593 213.5,135C 216.713,135.338 219.879,136.171 223,137.5C 226.125,136.744 229.291,136.411 232.5,136.5 Z"/></g>
<g><path style="opacity:1" fill="#690c12" d="M 343.5,136.5 C 343.167,137.5 342.5,138.167 341.5,138.5C 340.441,136.93 340.941,135.597 343,134.5C 343.464,135.094 343.631,135.761 343.5,136.5 Z"/></g>
<g><path style="opacity:1" fill="#fec90d" d="M 347.5,134.5 C 348.5,134.833 349.167,135.5 349.5,136.5C 348.508,136.328 347.842,136.662 347.5,137.5C 346.662,137.158 346.328,136.492 346.5,135.5C 347.167,135.5 347.5,135.167 347.5,134.5 Z"/></g>
<g><path style="opacity:1" fill="#6486b5" d="M 174.5,135.5 C 178.771,136.926 182.771,138.926 186.5,141.5C 185.579,142.981 184.412,144.314 183,145.5C 178.074,143.321 172.908,142.154 167.5,142C 166.944,141.617 166.611,141.117 166.5,140.5C 168.652,138.015 171.319,136.349 174.5,135.5 Z"/></g>
<g><path style="opacity:1" fill="#4d4d4d" d="M 293.5,138.5 C 287.564,143.261 281.731,148.261 276,153.5C 275.421,154.928 275.588,156.262 276.5,157.5C 274.396,157.799 272.396,157.466 270.5,156.5C 270.942,155.261 271.609,154.261 272.5,153.5C 273.043,153.44 273.376,153.107 273.5,152.5C 271.709,151.83 270.042,151.163 268.5,150.5C 268.328,149.508 268.662,148.842 269.5,148.5C 270.043,148.44 270.376,148.107 270.5,147.5C 269.624,146.749 268.624,146.249 267.5,146C 274.198,142.651 280.864,139.318 287.5,136C 290.294,135.028 292.294,135.861 293.5,138.5 Z"/></g>
<g><path style="opacity:1" fill="#fec90d" d="M 343.5,136.5 C 344.906,136.973 345.573,137.973 345.5,139.5C 344.5,139.833 343.833,140.5 343.5,141.5C 342.599,140.71 341.932,139.71 341.5,138.5C 342.5,138.167 343.167,137.5 343.5,136.5 Z"/></g>
<g><path style="opacity:1" fill="#620d11" d="M 349.5,136.5 C 350.5,136.833 351.167,137.5 351.5,138.5C 351.167,139.5 350.5,140.167 349.5,140.5C 348.094,140.027 347.427,139.027 347.5,137.5C 347.842,136.662 348.508,136.328 349.5,136.5 Z"/></g>
<g><path style="opacity:1" fill="#f1e8e0" d="M 229.5,148.5 C 230.898,156.132 233.565,163.298 237.5,170C 233.477,170.054 229.477,169.554 225.5,168.5C 222.915,169.073 221.915,170.739 222.5,173.5C 220.53,171.353 218.697,169.02 217,166.5C 213.23,159.96 209.73,153.293 206.5,146.5C 206.98,144.051 207.98,141.885 209.5,140C 212.188,139.608 214.855,139.108 217.5,138.5C 222.439,140.778 226.439,144.112 229.5,148.5 Z"/></g>
<g><path style="opacity:1" fill="#000000" d="M 236.5,138.5 C 237.239,138.369 237.906,138.536 238.5,139C 235.856,143.838 235.189,143.672 236.5,138.5 Z"/></g>
<g><path style="opacity:1" fill="#696969" d="M 293.5,138.5 C 299.041,141.436 304.041,145.103 308.5,149.5C 299.382,161.325 294.049,174.825 292.5,190C 294.753,193.261 296.587,196.761 298,200.5C 299.366,202.362 300.866,204.028 302.5,205.5C 301.749,206.573 300.749,206.74 299.5,206C 292.235,201.539 284.901,197.372 277.5,193.5C 280.436,191.692 283.436,189.859 286.5,188C 287.43,186.806 288.097,185.473 288.5,184C 287.536,180.106 286.369,176.273 285,172.5C 284.623,171.058 283.79,170.058 282.5,169.5C 281.292,168.766 279.959,168.433 278.5,168.5C 278.263,167.209 278.596,166.209 279.5,165.5C 280.404,164.791 280.737,163.791 280.5,162.5C 278.585,162.784 276.919,162.451 275.5,161.5C 275.433,160.041 275.766,158.708 276.5,157.5C 275.588,156.262 275.421,154.928 276,153.5C 281.731,148.261 287.564,143.261 293.5,138.5 Z"/></g>
<g><path style="opacity:1" fill="#fec90d" d="M 351.5,138.5 C 352.401,139.29 353.068,140.29 353.5,141.5C 352.5,141.833 351.833,142.5 351.5,143.5C 350.599,142.71 349.932,141.71 349.5,140.5C 350.5,140.167 351.167,139.5 351.5,138.5 Z"/></g>
<g><path style="opacity:1" fill="#626262" d="M 339.5,160.5 C 338.167,159.833 337.167,158.833 336.5,157.5C 334.673,156.068 333.006,154.401 331.5,152.5C 332.348,150.591 332.682,148.591 332.5,146.5C 332.5,145.833 332.833,145.5 333.5,145.5C 336.006,144.185 337.839,142.185 339,139.5C 345.024,146.689 350.857,154.023 356.5,161.5C 355.135,162.941 353.635,164.274 352,165.5C 351.167,163.333 349.667,161.833 347.5,161C 344.854,160.503 342.187,160.336 339.5,160.5 Z"/></g>
<g><path style="opacity:1" fill="#5e0e11" d="M 345.5,139.5 C 346.5,139.833 347.167,140.5 347.5,141.5C 347.167,142.5 346.5,143.167 345.5,143.5C 344.5,143.167 343.833,142.5 343.5,141.5C 343.833,140.5 344.5,139.833 345.5,139.5 Z"/></g>
<g><path style="opacity:1" fill="#fefffe" d="M 166.5,140.5 C 166.611,141.117 166.944,141.617 167.5,142C 172.908,142.154 178.074,143.321 183,145.5C 184.412,144.314 185.579,142.981 186.5,141.5C 187.234,142.708 187.567,144.041 187.5,145.5C 186.777,147.213 185.443,148.213 183.5,148.5C 180.578,147.202 177.578,146.202 174.5,145.5C 170.758,144.989 167.091,144.156 163.5,143C 162.167,142.333 162.167,141.667 163.5,141C 164.448,140.517 165.448,140.351 166.5,140.5 Z"/></g>
<g><path style="opacity:1" fill="#fec90d" d="M 347.5,141.5 C 348.906,141.973 349.573,142.973 349.5,144.5C 348.833,144.5 348.5,144.833 348.5,145.5C 346.973,145.573 345.973,144.906 345.5,143.5C 346.5,143.167 347.167,142.5 347.5,141.5 Z"/></g>
<g><path style="opacity:1" fill="#7a0613" d="M 353.5,141.5 C 356.185,144.19 358.518,147.19 360.5,150.5C 360.158,151.338 359.492,151.672 358.5,151.5C 355.502,149.497 353.169,146.83 351.5,143.5C 351.833,142.5 352.5,141.833 353.5,141.5 Z"/></g>
<g><path style="opacity:1" fill="#870014" d="M 258.5,144.5 C 259.552,144.351 260.552,144.517 261.5,145C 257.317,147.257 252.984,149.257 248.5,151C 243.917,154.912 240.083,159.412 237,164.5C 236.691,163.234 236.191,162.067 235.5,161C 239.833,156.667 244.167,152.333 248.5,148C 251.85,146.514 255.184,145.347 258.5,144.5 Z"/></g>
<g><path style="opacity:1" fill="#850114" d="M 349.5,144.5 C 352.469,147.642 355.302,150.975 358,154.5C 359.289,156.055 359.956,157.721 360,159.5C 359.667,159.833 359.333,160.167 359,160.5C 355.167,156 351.333,151.5 347.5,147C 348.056,146.617 348.389,146.117 348.5,145.5C 348.5,144.833 348.833,144.5 349.5,144.5 Z"/></g>
<g><path style="opacity:1" fill="#6689b9" d="M 174.5,145.5 C 177.578,146.202 180.578,147.202 183.5,148.5C 185.443,148.213 186.777,147.213 187.5,145.5C 188.865,148.736 189.865,152.069 190.5,155.5C 188.666,160.178 185.5,163.844 181,166.5C 182.828,162.786 183.495,158.786 183,154.5C 180.638,150.973 177.804,147.973 174.5,145.5 Z"/></g>
<g><path style="opacity:1" fill="#fefffe" d="M 164.5,146.5 C 172.212,145.459 177.712,148.459 181,155.5C 181.667,156.833 181.667,158.167 181,159.5C 180.018,164.66 177.184,168.327 172.5,170.5C 162.82,167.675 158.654,161.341 160,151.5C 161.025,149.313 162.525,147.646 164.5,146.5 Z"/></g>
<g><path style="opacity:1" fill="#000000" d="M 238.5,146.5 C 239.376,146.369 240.043,146.702 240.5,147.5C 237.709,151.589 237.042,151.255 238.5,146.5 Z"/></g>
<g><path style="opacity:1" fill="#00a1e8" d="M 269.5,148.5 C 268.662,148.842 268.328,149.508 268.5,150.5C 267.883,150.611 267.383,150.944 267,151.5C 263.188,146.331 264.021,145.331 269.5,148.5 Z"/></g>
<g><path style="opacity:1" fill="#cca491" d="M 261.5,147.5 C 262.653,148.313 262.653,149.313 261.5,150.5C 262.5,151.167 263.5,151.833 264.5,152.5C 267.736,159.518 271.736,166.018 276.5,172C 267.497,181.586 256.997,189.086 245,194.5C 243.956,193.377 243.29,192.044 243,190.5C 242.725,184.151 242.725,177.818 243,171.5C 239.638,170.762 238.305,168.762 239,165.5C 241.748,160.748 245.248,156.581 249.5,153C 253.71,151.391 257.71,149.558 261.5,147.5 Z"/></g>
<g><path style="opacity:1" fill="#678ab9" d="M 165.5,148.5 C 168.187,148.336 170.854,148.503 173.5,149C 181.361,155.962 180.694,162.129 171.5,167.5C 161.067,163.664 159.067,157.33 165.5,148.5 Z"/></g>
<g><path style="opacity:1" fill="#515151" d="M 308.5,149.5 C 313.984,153.417 319.318,157.583 324.5,162C 321.947,166.28 319.281,170.446 316.5,174.5C 314.71,176.272 313.377,178.272 312.5,180.5C 305.14,185.943 303.807,192.609 308.5,200.5C 307.069,202.938 305.069,204.604 302.5,205.5C 300.866,204.028 299.366,202.362 298,200.5C 296.587,196.761 294.753,193.261 292.5,190C 294.049,174.825 299.382,161.325 308.5,149.5 Z"/></g>
<g><path style="opacity:1" fill="#fefffe" d="M 169.5,150.5 C 170.218,152.246 171.218,152.912 172.5,152.5C 171.833,153.167 171.167,153.833 170.5,154.5C 171.167,154.833 171.833,155.167 172.5,155.5C 170.078,157.048 170.078,158.714 172.5,160.5C 170.833,163.167 169.167,163.167 167.5,160.5C 169.922,158.714 169.922,157.048 167.5,155.5C 168.167,155.167 168.833,154.833 169.5,154.5C 168.833,153.833 168.167,153.167 167.5,152.5C 167.846,151.304 168.346,151.304 169,152.5C 169.464,151.906 169.631,151.239 169.5,150.5 Z"/></g>
<g><path style="opacity:1" fill="#fec90d" d="M 360.5,150.5 C 361.5,150.833 362.167,151.5 362.5,152.5C 361.508,152.328 360.842,152.662 360.5,153.5C 359.167,153.5 358.5,152.833 358.5,151.5C 359.492,151.672 360.158,151.338 360.5,150.5 Z"/></g>
<g><path style="opacity:1" fill="#00a1e8" d="M 272.5,153.5 C 271.609,154.261 270.942,155.261 270.5,156.5C 272.396,157.466 274.396,157.799 276.5,157.5C 275.766,158.708 275.433,160.041 275.5,161.5C 274.957,161.56 274.624,161.893 274.5,162.5C 276.655,163.001 278.322,164.001 279.5,165.5C 278.596,166.209 278.263,167.209 278.5,168.5C 279.959,168.433 281.292,168.766 282.5,169.5C 281.306,170.272 280.306,171.272 279.5,172.5C 275.275,166.4 271.275,160.067 267.5,153.5C 269.299,152.212 270.965,152.212 272.5,153.5 Z"/></g>
<g><path style="opacity:1" fill="#790713" d="M 362.5,152.5 C 364.22,153.751 364.553,155.251 363.5,157C 360.721,157.07 359.721,155.903 360.5,153.5C 360.842,152.662 361.508,152.328 362.5,152.5 Z"/></g>
<g><path style="opacity:1" fill="#2e2e2e" d="M 376.5,173.5 C 375.504,173.586 374.671,173.252 374,172.5C 373.667,173.5 373.333,174.5 373,175.5C 372.669,171.845 371.502,168.512 369.5,165.5C 368.391,164.71 367.058,164.21 365.5,164C 370.014,160.909 374.347,157.575 378.5,154C 379.635,153.251 380.635,153.417 381.5,154.5C 383.306,157.472 385.306,160.305 387.5,163C 383.056,165.111 382.389,168.111 385.5,172C 384.315,173.353 382.981,174.52 381.5,175.5C 380.15,174.05 378.484,173.383 376.5,173.5 Z"/></g>
<g><path style="opacity:1" fill="#000000" d="M 259.5,154.5 C 261.337,154.639 261.67,155.306 260.5,156.5C 259.702,156.043 259.369,155.376 259.5,154.5 Z"/></g>
<g><path style="opacity:1" fill="#d1a28c" d="M 199.5,152.5 C 202.899,154.388 205.899,156.888 208.5,160C 205.723,162.173 205.89,162.673 209,161.5C 210.833,164 212.667,166.5 214.5,169C 212.177,168.694 209.844,168.028 207.5,167C 204.378,164.573 201.378,162.74 198.5,161.5C 197.643,160.264 196.977,158.931 196.5,157.5C 197.763,155.971 198.763,154.305 199.5,152.5 Z"/></g>
<g><path style="opacity:1" fill="#870014" d="M 191.5,159.5 C 192.833,159.5 194.167,159.5 195.5,159.5C 195.33,160.822 195.663,161.989 196.5,163C 203.107,167.424 210.107,171.091 217.5,174C 212.986,174.029 208.653,173.029 204.5,171C 201.003,168.417 197.336,166.084 193.5,164C 192.418,162.67 191.751,161.17 191.5,159.5 Z"/></g>
<g><path style="opacity:1" fill="#000000" d="M 275.5,161.5 C 276.919,162.451 278.585,162.784 280.5,162.5C 280.737,163.791 280.404,164.791 279.5,165.5C 278.322,164.001 276.655,163.001 274.5,162.5C 274.624,161.893 274.957,161.56 275.5,161.5 Z"/></g>
<g><path style="opacity:1" fill="#000000" d="M 251.5,162.5 C 252.713,163.497 252.546,164.497 251,165.5C 250.53,164.423 250.697,163.423 251.5,162.5 Z"/></g>
<g><path style="opacity:1" fill="#000000" d="M 336.5,162.5 C 338.384,162.712 339.717,163.712 340.5,165.5C 337.943,166.534 336.609,165.534 336.5,162.5 Z"/></g>
<g><path style="opacity:1" fill="#000000" d="M 254.5,165.5 C 255.239,165.369 255.906,165.536 256.5,166C 255.167,166.667 255.167,167.333 256.5,168C 254.939,168.188 254.272,167.355 254.5,165.5 Z"/></g>
<g><path style="opacity:1" fill="#b4b4b4" d="M 369.5,165.5 C 371.502,168.512 372.669,171.845 373,175.5C 373.333,174.5 373.667,173.5 374,172.5C 374.671,173.252 375.504,173.586 376.5,173.5C 374.249,178.138 370.583,181.138 365.5,182.5C 364.5,180.833 363.167,179.5 361.5,178.5C 363.481,176.856 365.481,175.19 367.5,173.5C 366.833,172.167 365.833,171.167 364.5,170.5C 363.548,168.955 363.215,167.288 363.5,165.5C 365.5,165.5 367.5,165.5 369.5,165.5 Z"/></g>
<g><path style="opacity:1" fill="#00a1e8" d="M 210.5,204.5 C 207.745,205.795 206.078,204.795 205.5,201.5C 204.261,201.942 203.261,202.609 202.5,203.5C 200.744,202.448 200.077,200.781 200.5,198.5C 198.901,198.232 197.568,198.566 196.5,199.5C 194.692,198.082 194.025,196.082 194.5,193.5C 193.167,193.5 191.833,193.5 190.5,193.5C 190.5,191.833 190.5,190.167 190.5,188.5C 188.5,188.5 186.5,188.5 184.5,188.5C 185.5,187.167 186.5,185.833 187.5,184.5C 188.043,184.44 188.376,184.107 188.5,183.5C 187.675,182.614 186.675,182.281 185.5,182.5C 184.833,181.833 184.167,181.167 183.5,180.5C 186.884,178.297 186.884,176.63 183.5,175.5C 183.082,174.778 182.416,174.278 181.5,174C 185.996,172.45 186.33,170.617 182.5,168.5C 183.52,167.046 184.687,166.713 186,167.5C 188.216,175.482 191.216,183.149 195,190.5C 198.876,195.191 203.709,198.524 209.5,200.5C 210.429,201.689 210.762,203.022 210.5,204.5 Z"/></g>
<g><path style="opacity:1" fill="#d1a894" d="M 188.5,162.5 C 196.92,169.378 206.254,174.712 216.5,178.5C 217.696,178.154 217.696,177.654 216.5,177C 217.448,176.517 218.448,176.351 219.5,176.5C 219.666,183.841 219.5,191.174 219,198.5C 217.582,200.363 215.749,200.863 213.5,200C 206.677,197.412 201.177,193.912 197,189.5C 195.5,186.5 194,183.5 192.5,180.5C 194.461,179.152 194.628,177.819 193,176.5C 192.667,177.167 192.333,177.833 192,178.5C 190.5,174 189,169.5 187.5,165C 187.743,164.098 188.077,163.265 188.5,162.5 Z"/></g>
<g><path style="opacity:1" fill="#870014" d="M 156.5,167.5 C 157.873,167.343 159.207,167.51 160.5,168C 154.331,170.304 147.998,171.638 141.5,172C 146.593,170.425 151.593,168.925 156.5,167.5 Z"/></g>
<g><path style="opacity:1" fill="#6689b9" d="M 162.5,168.5 C 160.891,171.946 159.057,175.279 157,178.5C 156.599,186.552 155.765,194.552 154.5,202.5C 154.667,204.5 154.833,206.5 155,208.5C 155.5,209 156,209.5 156.5,210C 168.762,211.606 181.096,211.939 193.5,211C 194.416,210.626 195.25,210.126 196,209.5C 196.498,206.518 196.665,203.518 196.5,200.5C 196.5,200.167 196.5,199.833 196.5,199.5C 197.675,199.281 198.675,199.614 199.5,200.5C 198.567,204.429 198.234,208.429 198.5,212.5C 184.526,213.596 170.526,213.762 156.5,213C 153.703,210.904 152.37,208.071 152.5,204.5C 153.183,197.149 154.017,189.816 155,182.5C 155.912,176.293 158.412,171.627 162.5,168.5 Z"/></g>
<g><path style="opacity:1" fill="#fefffe" d="M 162.5,168.5 C 162.833,168.5 163.167,168.5 163.5,168.5C 162.292,171.919 160.792,175.253 159,178.5C 158.5,187.16 158.334,195.827 158.5,204.5C 168.5,204.5 178.5,204.5 188.5,204.5C 188.5,201.833 188.5,199.167 188.5,196.5C 189.167,196.5 189.833,196.5 190.5,196.5C 191.209,197.404 192.209,197.737 193.5,197.5C 193.5,198.5 193.5,199.5 193.5,200.5C 194.5,200.5 195.5,200.5 196.5,200.5C 196.665,203.518 196.498,206.518 196,209.5C 195.25,210.126 194.416,210.626 193.5,211C 181.096,211.939 168.762,211.606 156.5,210C 156,209.5 155.5,209 155,208.5C 154.833,206.5 154.667,204.5 154.5,202.5C 155.765,194.552 156.599,186.552 157,178.5C 159.057,175.279 160.891,171.946 162.5,168.5 Z"/></g>
<g><path style="opacity:1" fill="#6689b9" d="M 163.5,168.5 C 164.167,168.833 164.833,169.167 165.5,169.5C 164.013,172.473 162.513,175.473 161,178.5C 160.5,186.827 160.334,195.16 160.5,203.5C 169.5,203.5 178.5,203.5 187.5,203.5C 187.5,201.167 187.5,198.833 187.5,196.5C 187.833,196.5 188.167,196.5 188.5,196.5C 188.5,199.167 188.5,201.833 188.5,204.5C 178.5,204.5 168.5,204.5 158.5,204.5C 158.334,195.827 158.5,187.16 159,178.5C 160.792,175.253 162.292,171.919 163.5,168.5 Z"/></g>
<g><path style="opacity:1" fill="#6486b5" d="M 182.5,168.5 C 186.33,170.617 185.996,172.45 181.5,174C 182.416,174.278 183.082,174.778 183.5,175.5C 183.573,177.027 182.906,178.027 181.5,178.5C 180.347,184.319 180.181,190.319 181,196.5C 182.356,197.38 183.856,197.714 185.5,197.5C 185.5,198.833 185.5,200.167 185.5,201.5C 177.471,201.344 169.471,201.677 161.5,202.5C 162.097,194.847 162.597,187.18 163,179.5C 164.513,176.473 166.013,173.473 167.5,170.5C 172.761,172.882 177.761,172.215 182.5,168.5 Z"/></g>
<g><path style="opacity:1" fill="#fefffe" d="M 165.5,169.5 C 166.167,169.833 166.833,170.167 167.5,170.5C 166.013,173.473 164.513,176.473 163,179.5C 162.597,187.18 162.097,194.847 161.5,202.5C 169.471,201.677 177.471,201.344 185.5,201.5C 185.5,200.167 185.5,198.833 185.5,197.5C 185.842,196.662 186.508,196.328 187.5,196.5C 187.5,198.833 187.5,201.167 187.5,203.5C 178.5,203.5 169.5,203.5 160.5,203.5C 160.334,195.16 160.5,186.827 161,178.5C 162.513,175.473 164.013,172.473 165.5,169.5 Z"/></g>
<g><path style="opacity:1" fill="#000000" d="M 194.5,169.5 C 196.337,169.639 196.67,170.306 195.5,171.5C 194.702,171.043 194.369,170.376 194.5,169.5 Z"/></g>
<g><path style="opacity:1" fill="#474747" d="M 282.5,169.5 C 283.79,170.058 284.623,171.058 285,172.5C 286.369,176.273 287.536,180.106 288.5,184C 288.097,185.473 287.43,186.806 286.5,188C 283.436,189.859 280.436,191.692 277.5,193.5C 273.914,192.207 270.248,191.207 266.5,190.5C 266.5,189.167 266.5,187.833 266.5,186.5C 267.833,186.5 269.167,186.5 270.5,186.5C 271.461,184.735 271.795,182.735 271.5,180.5C 273.441,180.869 275.275,181.536 277,182.5C 276.865,180.575 276.698,178.575 276.5,176.5C 278.575,176.698 280.575,176.865 282.5,177C 281.29,175.961 280.29,174.794 279.5,173.5C 279.5,173.167 279.5,172.833 279.5,172.5C 280.306,171.272 281.306,170.272 282.5,169.5 Z"/></g>
<g><path style="opacity:1" fill="#2d2d2d" d="M 115.5,171.5 C 122.163,171.2 128.496,172.367 134.5,175C 125.797,184.371 116.463,193.037 106.5,201C 102.07,203.491 97.4029,205.491 92.5,207C 86.6473,211.525 80.814,216.025 75,220.5C 73.899,221.291 73.0656,221.291 72.5,220.5C 74.9971,216.508 77.9971,213.008 81.5,210C 80.6634,208.989 80.33,207.822 80.5,206.5C 78.8008,206.34 77.1341,206.506 75.5,207C 70.8411,210.992 65.6744,214.158 60,216.5C 57.595,215.726 55.095,215.226 52.5,215C 54.5268,213.604 54.8602,211.938 53.5,210C 48.1134,210.28 43.7801,208.28 40.5,204C 37.2683,202.534 33.935,201.367 30.5,200.5C 28.4234,197.376 27.2567,194.042 27,190.5C 31.8873,191.112 36.7207,190.445 41.5,188.5C 44.1678,189.852 47.0011,190.519 50,190.5C 57.0571,188.872 64.2238,187.705 71.5,187C 85.6199,179.907 100.287,174.74 115.5,171.5 Z"/></g>
<g><path style="opacity:1" fill="#515251" d="M 151.5,186.5 C 146.628,186.309 141.795,186.642 137,187.5C 135.113,187.031 133.613,186.031 132.5,184.5C 131.338,186.824 130.171,189.158 129,191.5C 126.69,193.199 124.857,195.199 123.5,197.5C 124.421,199.13 125.255,200.797 126,202.5C 126.956,203.894 128.289,204.561 130,204.5C 137.608,202.443 144.775,199.443 151.5,195.5C 149.568,202.014 150.234,208.181 153.5,214C 155.345,215.128 157.345,215.628 159.5,215.5C 157.83,221.842 155.997,228.175 154,234.5C 153.586,234.957 153.086,235.291 152.5,235.5C 148.502,228.649 144.669,221.649 141,214.5C 139.273,220.948 137.106,227.281 134.5,233.5C 129.559,231.205 124.892,228.539 120.5,225.5C 118.047,218.688 116.38,211.688 115.5,204.5C 116.716,200.4 118.216,196.4 120,192.5C 125.207,185.625 131.374,179.792 138.5,175C 144.476,174.548 150.309,173.381 156,171.5C 156.5,171.667 157,171.833 157.5,172C 154.358,176.45 152.358,181.283 151.5,186.5 Z"/></g>
<g><path style="opacity:1" fill="#000000" d="M 201.5,173.5 C 202.473,173.987 203.473,174.487 204.5,175C 202.843,175.725 201.843,175.225 201.5,173.5 Z"/></g>
<g><path style="opacity:1" fill="#00a1e8" d="M 279.5,173.5 C 280.29,174.794 281.29,175.961 282.5,177C 280.575,176.865 278.575,176.698 276.5,176.5C 276.698,178.575 276.865,180.575 277,182.5C 275.275,181.536 273.441,180.869 271.5,180.5C 273.569,177.427 276.236,175.094 279.5,173.5 Z"/></g>
<g><path style="opacity:1" fill="#790713" d="M 183.5,175.5 C 186.884,176.63 186.884,178.297 183.5,180.5C 182.957,180.56 182.624,180.893 182.5,181.5C 183.325,182.386 184.325,182.719 185.5,182.5C 186.167,183.167 186.833,183.833 187.5,184.5C 186.5,185.833 185.5,187.167 184.5,188.5C 185.919,189.451 187.585,189.784 189.5,189.5C 189.5,191.167 189.5,192.833 189.5,194.5C 190.978,194.238 192.311,194.571 193.5,195.5C 192.675,196.386 191.675,196.719 190.5,196.5C 188.052,195.527 185.385,195.194 182.5,195.5C 182.468,189.811 182.134,184.145 181.5,178.5C 182.906,178.027 183.573,177.027 183.5,175.5 Z"/></g>
<g><path style="opacity:1" fill="#000000" d="M 260.5,177.5 C 262.337,177.639 262.67,178.306 261.5,179.5C 260.702,179.043 260.369,178.376 260.5,177.5 Z"/></g>
<g><path style="opacity:1" fill="#000000" d="M 316.5,177.5 C 319.14,178.794 319.14,180.127 316.5,181.5C 314.206,180.375 314.206,179.041 316.5,177.5 Z"/></g>
<g><path style="opacity:1" fill="#000000" d="M 181.5,178.5 C 182.134,184.145 182.468,189.811 182.5,195.5C 185.385,195.194 188.052,195.527 190.5,196.5C 189.833,196.5 189.167,196.5 188.5,196.5C 188.167,196.5 187.833,196.5 187.5,196.5C 186.508,196.328 185.842,196.662 185.5,197.5C 183.856,197.714 182.356,197.38 181,196.5C 180.181,190.319 180.347,184.319 181.5,178.5 Z"/></g>
<g><path style="opacity:1" fill="#000000" d="M 183.5,180.5 C 184.167,181.167 184.833,181.833 185.5,182.5C 184.325,182.719 183.325,182.386 182.5,181.5C 182.624,180.893 182.957,180.56 183.5,180.5 Z"/></g>
<g><path style="opacity:1" fill="#00a1e8" d="M 271.5,180.5 C 271.795,182.735 271.461,184.735 270.5,186.5C 269.081,185.549 267.415,185.216 265.5,185.5C 266.911,183.086 268.911,181.419 271.5,180.5 Z"/></g>
<g><path style="opacity:1" fill="#000000" d="M 206.5,181.5 C 207.376,181.369 208.043,181.702 208.5,182.5C 206.993,186.355 206.326,186.021 206.5,181.5 Z"/></g>
<g><path style="opacity:1" fill="#000000" d="M 215.5,181.5 C 216.376,181.369 217.043,181.702 217.5,182.5C 215.192,183.873 214.525,183.54 215.5,181.5 Z"/></g>
<g><path style="opacity:1" fill="#000000" d="M 185.5,182.5 C 186.675,182.281 187.675,182.614 188.5,183.5C 188.376,184.107 188.043,184.44 187.5,184.5C 186.833,183.833 186.167,183.167 185.5,182.5 Z"/></g>
<g><path style="opacity:1" fill="#6a6b6a" d="M 151.5,186.5 C 151.5,189.5 151.5,192.5 151.5,195.5C 144.775,199.443 137.608,202.443 130,204.5C 128.289,204.561 126.956,203.894 126,202.5C 125.255,200.797 124.421,199.13 123.5,197.5C 124.857,195.199 126.69,193.199 129,191.5C 130.171,189.158 131.338,186.824 132.5,184.5C 133.613,186.031 135.113,187.031 137,187.5C 141.795,186.642 146.628,186.309 151.5,186.5 Z"/></g>
<g><path style="opacity:1" fill="#000000" d="M 91.5,185.5 C 90.3789,192.124 87.7122,198.458 83.5,204.5C 82.1667,203.833 81.1667,202.833 80.5,201.5C 84.1766,196.138 87.8432,190.804 91.5,185.5 Z"/></g>
<g><path style="opacity:1" fill="#000000" d="M 249.5,187.5 C 245.86,188.541 245.694,187.875 249,185.5C 249.464,186.094 249.631,186.761 249.5,187.5 Z"/></g>
<g><path style="opacity:1" fill="#00a1e8" d="M 265.5,185.5 C 265.975,188.082 265.308,190.082 263.5,191.5C 263.573,189.973 262.906,188.973 261.5,188.5C 262.436,187.026 263.77,186.026 265.5,185.5 Z"/></g>
<g><path style="opacity:1" fill="#000000" d="M 249.5,187.5 C 251.337,187.639 251.67,188.306 250.5,189.5C 249.702,189.043 249.369,188.376 249.5,187.5 Z"/></g>
<g><path style="opacity:1" fill="#000000" d="M 184.5,188.5 C 186.5,188.5 188.5,188.5 190.5,188.5C 190.5,190.167 190.5,191.833 190.5,193.5C 191.833,193.5 193.167,193.5 194.5,193.5C 194.025,196.082 194.692,198.082 196.5,199.5C 196.5,199.833 196.5,200.167 196.5,200.5C 195.5,200.5 194.5,200.5 193.5,200.5C 193.5,199.5 193.5,198.5 193.5,197.5C 192.209,197.737 191.209,197.404 190.5,196.5C 191.675,196.719 192.675,196.386 193.5,195.5C 192.311,194.571 190.978,194.238 189.5,194.5C 189.5,192.833 189.5,191.167 189.5,189.5C 187.585,189.784 185.919,189.451 184.5,188.5 Z"/></g>
<g><path style="opacity:1" fill="#00a1e8" d="M 261.5,188.5 C 260.79,190.746 260.29,193.08 260,195.5C 258.961,194.29 257.794,193.29 256.5,192.5C 257.539,190.469 259.205,189.136 261.5,188.5 Z"/></g>
<g><path style="opacity:1" fill="#515151" d="M 261.5,188.5 C 262.906,188.973 263.573,189.973 263.5,191.5C 264.484,193.48 265.817,195.147 267.5,196.5C 262.059,197.613 257.059,199.779 252.5,203C 250.552,204.439 249.219,206.272 248.5,208.5C 248.59,210.425 249.59,211.592 251.5,212C 250.853,215.249 250.519,218.582 250.5,222C 248.241,232.387 252.241,236.887 262.5,235.5C 261.375,229.949 263.042,225.616 267.5,222.5C 263.625,218.461 259.292,214.961 254.5,212C 259.321,210.721 264.321,210.054 269.5,210C 273.939,208.944 277.939,207.111 281.5,204.5C 286.133,206.775 290.8,209.108 295.5,211.5C 296.614,212.723 296.781,214.056 296,215.5C 292.883,225.741 287.716,234.741 280.5,242.5C 277.973,243.214 275.473,243.88 273,244.5C 270.487,249.527 267.987,254.527 265.5,259.5C 261.662,256.112 257.828,256.446 254,260.5C 250.264,268.488 252.431,271.488 260.5,269.5C 259.792,273.785 259.292,278.118 259,282.5C 254.615,291.486 251.115,300.82 248.5,310.5C 245.219,309.372 241.885,309.372 238.5,310.5C 240.79,301.694 241.957,292.694 242,283.5C 246.293,271.537 248.459,259.204 248.5,246.5C 232.136,249.302 215.803,249.135 199.5,246C 193.003,242.586 186.67,238.919 180.5,235C 177.439,232.965 174.105,231.799 170.5,231.5C 169.206,230.71 168.039,229.71 167,228.5C 166.371,224.129 166.537,219.796 167.5,215.5C 178.245,215.929 188.912,215.429 199.5,214C 199.955,210.262 200.955,206.762 202.5,203.5C 203.261,202.609 204.261,201.942 205.5,201.5C 206.078,204.795 207.745,205.795 210.5,204.5C 210.833,204.5 211.167,204.5 211.5,204.5C 212.315,205.429 213.148,206.429 214,207.5C 214.608,205.934 215.442,204.6 216.5,203.5C 216.833,203.5 217.167,203.5 217.5,203.5C 218.345,204.671 219.011,206.005 219.5,207.5C 219.544,213.382 219.711,219.382 220,225.5C 221.586,228.341 223.42,231.007 225.5,233.5C 223.492,239.02 225.492,242.186 231.5,243C 242.87,244.299 247.037,239.466 244,228.5C 242.23,225.958 240.73,223.291 239.5,220.5C 240.121,214.781 240.787,209.114 241.5,203.5C 241.796,201.597 242.463,199.93 243.5,198.5C 243.833,198.5 244.167,198.5 244.5,198.5C 245.482,199.141 246.482,199.807 247.5,200.5C 248.17,198.709 248.837,197.042 249.5,195.5C 249.833,195.5 250.167,195.5 250.5,195.5C 251.833,196.5 253.167,197.5 254.5,198.5C 255.167,196.5 255.833,194.5 256.5,192.5C 257.794,193.29 258.961,194.29 260,195.5C 260.29,193.08 260.79,190.746 261.5,188.5 Z"/></g>
<g><path style="opacity:1" fill="#fefffe" d="M 168.5,194.5 C 168.343,193.127 168.51,191.793 169,190.5C 169.5,192.333 170.667,193.5 172.5,194C 171.207,194.49 169.873,194.657 168.5,194.5 Z"/></g>
<g><path style="opacity:1" fill="#870014" d="M 266.5,191.5 C 277.552,196.193 288.219,201.693 298.5,208C 302.883,208.648 306.383,207.148 309,203.5C 308.192,207.484 305.692,210.15 301.5,211.5C 298.437,224.297 292.271,235.297 283,244.5C 285.102,240.347 287.769,236.347 291,232.5C 295.057,226.223 297.557,219.389 298.5,212C 291.914,206.695 284.581,202.362 276.5,199C 272.657,196.965 269.324,194.465 266.5,191.5 Z"/></g>
<g><path style="opacity:1" fill="#fefffe" d="M 168.5,194.5 C 169.263,195.268 170.263,195.768 171.5,196C 169.866,196.494 168.199,196.66 166.5,196.5C 166.343,195.127 166.51,193.793 167,192.5C 167.278,193.416 167.778,194.082 168.5,194.5 Z"/></g>
<g><path style="opacity:1" fill="#00a1e8" d="M 254.5,198.5 C 253.167,197.5 251.833,196.5 250.5,195.5C 250.787,193.879 251.787,192.879 253.5,192.5C 254.466,194.396 254.799,196.396 254.5,198.5 Z"/></g>
<g><path style="opacity:1" fill="#000000" d="M 206.5,193.5 C 208.337,193.639 208.67,194.306 207.5,195.5C 206.702,195.043 206.369,194.376 206.5,193.5 Z"/></g>
<g><path style="opacity:1" fill="#fefffe" d="M 166.5,196.5 C 169.258,197.967 168.925,198.633 165.5,198.5C 165.5,199.5 165.5,200.5 165.5,201.5C 164.5,201.5 163.5,201.5 162.5,201.5C 163.31,199.202 164.144,196.868 165,194.5C 165.278,195.416 165.778,196.082 166.5,196.5 Z"/></g>
<g><path style="opacity:1" fill="#00a1e8" d="M 249.5,195.5 C 248.837,197.042 248.17,198.709 247.5,200.5C 246.482,199.807 245.482,199.141 244.5,198.5C 244.937,196.926 245.937,195.759 247.5,195C 248.437,194.308 249.103,194.475 249.5,195.5 Z"/></g>
<g><path style="opacity:1" fill="#6a6b6a" d="M 267.5,196.5 C 272.446,198.803 277.113,201.469 281.5,204.5C 277.939,207.111 273.939,208.944 269.5,210C 264.321,210.054 259.321,210.721 254.5,212C 259.292,214.961 263.625,218.461 267.5,222.5C 263.042,225.616 261.375,229.949 262.5,235.5C 252.241,236.887 248.241,232.387 250.5,222C 250.519,218.582 250.853,215.249 251.5,212C 249.59,211.592 248.59,210.425 248.5,208.5C 249.219,206.272 250.552,204.439 252.5,203C 257.059,199.779 262.059,197.613 267.5,196.5 Z"/></g>
<g><path style="opacity:1" fill="#00a1e8" d="M 243.5,198.5 C 242.463,199.93 241.796,201.597 241.5,203.5C 240.387,202.054 240.22,200.387 241,198.5C 241.977,197.226 242.811,197.226 243.5,198.5 Z"/></g>
<g><path style="opacity:1" fill="#00a1e8" d="M 216.5,203.5 C 215.442,204.6 214.608,205.934 214,207.5C 213.148,206.429 212.315,205.429 211.5,204.5C 211.351,203.448 211.517,202.448 212,201.5C 213.622,202.099 215.122,202.766 216.5,203.5 Z"/></g>
<g><path style="opacity:1" fill="#00a1e8" d="M 219.5,207.5 C 219.011,206.005 218.345,204.671 217.5,203.5C 218.172,202.733 219.005,202.066 220,201.5C 220.789,203.712 220.622,205.712 219.5,207.5 Z"/></g>
<g><path style="opacity:1" fill="#c2c3c2" d="M 234.5,224.5 C 235.06,216.749 236.226,209.082 238,201.5C 238.414,208.857 238.414,216.19 238,223.5C 240.78,226.392 242.446,229.726 243,233.5C 241.667,231.5 240.333,229.5 239,227.5C 237.871,225.859 236.371,224.859 234.5,224.5 Z"/></g>
<g><path style="opacity:1" fill="#515251" d="M 339.5,304.5 C 338.518,303.859 337.518,303.193 336.5,302.5C 334.791,306.29 332.124,307.623 328.5,306.5C 315.049,285.7 300.382,265.7 284.5,246.5C 293.707,237.759 299.54,227.092 302,214.5C 303.95,212.612 306.117,211.446 308.5,211C 306.737,218.484 305.237,225.984 304,233.5C 308.373,245.623 313.706,257.29 320,268.5C 321.333,269.833 322.667,271.167 324,272.5C 328.393,283.617 333.56,294.284 339.5,304.5 Z"/></g>
<g><path style="opacity:1" fill="#6a6b6a" d="M 159.5,215.5 C 162.167,215.5 164.833,215.5 167.5,215.5C 166.537,219.796 166.371,224.129 167,228.5C 168.039,229.71 169.206,230.71 170.5,231.5C 168.717,236.232 166.051,240.399 162.5,244C 154.917,248.861 146.75,252.361 138,254.5C 127.499,252.631 116.999,252.464 106.5,254C 105.956,254.717 105.289,255.217 104.5,255.5C 102.139,254.565 99.9719,253.232 98,251.5C 97.5683,250.4 98.0683,249.733 99.5,249.5C 110.484,248.593 121.484,247.76 132.5,247C 134.658,245.688 134.991,244.022 133.5,242C 126.986,238.589 120.152,237.756 113,239.5C 111.831,240.009 110.998,240.842 110.5,242C 106.833,242.667 103.167,242.667 99.5,242C 97.7295,241.465 97.3961,240.631 98.5,239.5C 103.388,238.532 108.055,237.198 112.5,235.5C 119.2,235.462 121.867,232.128 120.5,225.5C 124.892,228.539 129.559,231.205 134.5,233.5C 137.106,227.281 139.273,220.948 141,214.5C 144.669,221.649 148.502,228.649 152.5,235.5C 153.086,235.291 153.586,234.957 154,234.5C 155.997,228.175 157.83,221.842 159.5,215.5 Z"/></g>
<g><path style="opacity:1" fill="#c2c3c2" d="M 234.5,224.5 C 232.271,227.952 230.271,231.619 228.5,235.5C 232.958,240.067 237.625,240.4 242.5,236.5C 242.833,236.667 243.167,236.833 243.5,237C 237.83,242.809 232.163,242.809 226.5,237C 227.036,231.419 229.703,227.252 234.5,224.5 Z"/></g>
<g><path style="opacity:1" fill="#535353" d="M 112.5,235.5 C 108.055,237.198 103.388,238.532 98.5,239.5C 97.3961,240.631 97.7295,241.465 99.5,242C 103.167,242.667 106.833,242.667 110.5,242C 110.998,240.842 111.831,240.009 113,239.5C 120.152,237.756 126.986,238.589 133.5,242C 134.991,244.022 134.658,245.688 132.5,247C 121.484,247.76 110.484,248.593 99.5,249.5C 98.0683,249.733 97.5683,250.4 98,251.5C 99.9719,253.232 102.139,254.565 104.5,255.5C 102.486,258.194 100.986,261.194 100,264.5C 97.918,272.747 96.2513,281.081 95,289.5C 90.1181,292.025 85.2848,294.692 80.5,297.5C 77.952,295.72 76.6187,293.22 76.5,290C 76.9212,287.815 77.4212,285.649 78,283.5C 81.3089,283.481 84.6423,283.148 88,282.5C 89.4404,267.751 91.4404,253.084 94,238.5C 94.9025,237.299 96.0692,236.465 97.5,236C 102.489,235.501 107.489,235.334 112.5,235.5 Z"/></g>
<g><path style="opacity:1" fill="#6a6b6a" d="M 296.5,244.5 C 298.223,243.193 300.057,243.193 302,244.5C 305.379,250.627 308.379,256.961 311,263.5C 315.737,268.068 320.237,272.735 324.5,277.5C 324.167,277.833 323.833,278.167 323.5,278.5C 319.961,276.154 316.128,274.487 312,273.5C 308.667,268.833 305.333,264.167 302,259.5C 299.692,254.553 297.859,249.553 296.5,244.5 Z"/></g>
<g><path style="opacity:1" fill="#313231" d="M 114.5,255.5 C 120.493,255.999 126.493,256.499 132.5,257C 119.451,265.079 112.951,276.912 113,292.5C 108.905,298.257 105.238,304.257 102,310.5C 95.713,308.108 94.213,304.108 97.5,298.5C 99.0777,297.702 100.744,297.202 102.5,297C 103.022,296.439 103.355,295.772 103.5,295C 102.691,293.216 102.024,291.383 101.5,289.5C 105.903,278.889 108.903,267.889 110.5,256.5C 112.099,256.768 113.432,256.434 114.5,255.5 Z"/></g>
<g><path style="opacity:1" fill="#6a6b6a" d="M 265.5,259.5 C 263.833,262.833 262.167,266.167 260.5,269.5C 252.431,271.488 250.264,268.488 254,260.5C 257.828,256.446 261.662,256.112 265.5,259.5 Z"/></g>
<g><path style="opacity:1" fill="#6a6b6a" d="M 339.5,304.5 C 343.237,308.302 346.237,312.635 348.5,317.5C 347.585,319.754 346.252,321.754 344.5,323.5C 340.413,323.706 336.913,322.373 334,319.5C 332.154,315.145 330.321,310.812 328.5,306.5C 332.124,307.623 334.791,306.29 336.5,302.5C 337.518,303.193 338.518,303.859 339.5,304.5 Z"/></g>
<g><path style="opacity:1" fill="#696969" d="M 248.5,310.5 C 245.899,320.538 248.899,328.371 257.5,334C 253.538,336.564 249.371,338.731 245,340.5C 245.135,335.295 242.802,331.628 238,329.5C 237.608,326.812 237.108,324.145 236.5,321.5C 237.922,317.966 238.589,314.3 238.5,310.5C 241.885,309.372 245.219,309.372 248.5,310.5 Z"/></g>
<g><path style="opacity:1" fill="#515251" d="M 348.5,317.5 C 350.923,319.051 352.923,321.051 354.5,323.5C 356.51,324.502 358.51,325.502 360.5,326.5C 357.728,332.512 353.395,335.345 347.5,335C 348.621,330.651 347.621,326.817 344.5,323.5C 346.252,321.754 347.585,319.754 348.5,317.5 Z"/></g>
</svg>
