<?xml version="1.0" encoding="UTF-8"?>
<!DOCTYPE svg PUBLIC "-//W3C//DTD SVG 1.1//EN" "http://www.w3.org/Graphics/SVG/1.1/DTD/svg11.dtd">
<svg xmlns="http://www.w3.org/2000/svg" version="1.1" width="474px" height="452px" style="shape-rendering:geometricPrecision; text-rendering:geometricPrecision; image-rendering:optimizeQuality; fill-rule:evenodd; clip-rule:evenodd" xmlns:xlink="http://www.w3.org/1999/xlink">
<g><path style="opacity:1" fill="#fefffe" d="M 328.5,49.5 C 335.175,49.3337 341.842,49.5004 348.5,50C 350.007,54.3206 351.007,58.8206 351.5,63.5C 360.533,67.4333 369.366,71.7666 378,76.5C 378.667,81.8333 378.667,87.1667 378,92.5C 373.886,99.7549 370.053,107.088 366.5,114.5C 368.647,115.835 370.647,115.669 372.5,114C 379.5,113.333 386.5,113.333 393.5,114C 394.406,115.699 394.739,117.533 394.5,119.5C 401.57,118.934 406.07,121.934 408,128.5C 408.667,136.833 408.667,145.167 408,153.5C 406.833,154.667 405.667,155.833 404.5,157C 407.806,160.112 409.639,163.945 410,168.5C 411.085,178.643 410.418,188.643 408,198.5C 406.692,200.641 405.192,202.641 403.5,204.5C 407.19,207.205 409.356,210.872 410,215.5C 413.137,225.967 414.137,236.633 413,247.5C 411.833,248.667 410.667,249.833 409.5,251C 402.985,253.413 396.485,255.58 390,257.5C 388.735,265.827 389.569,273.827 392.5,281.5C 395.755,282.66 397.588,284.993 398,288.5C 404.768,296.108 409.268,304.942 411.5,315C 412.697,316.52 414.197,317.687 416,318.5C 417.697,324.154 420.03,329.487 423,334.5C 423.667,340.167 423.667,345.833 423,351.5C 422.047,353.455 420.713,355.122 419,356.5C 418.548,359.877 417.882,363.211 417,366.5C 415.2,368.317 413.034,369.484 410.5,370C 403.5,370.667 396.5,370.667 389.5,370C 387.254,368.961 385.087,367.794 383,366.5C 382.196,361.249 382.363,356.082 383.5,351C 375.784,333.94 365.617,318.44 353,304.5C 350.775,300.719 349.109,296.719 348,292.5C 343.821,298.873 343.488,305.539 347,312.5C 347.333,317.833 347.667,323.167 348,328.5C 348.725,330.949 349.725,333.283 351,335.5C 351.667,347.833 351.667,360.167 351,372.5C 349.833,373.667 348.667,374.833 347.5,376C 331.197,377.664 314.864,378.331 298.5,378C 297.333,376.833 296.167,375.667 295,374.5C 294.333,367.833 294.333,361.167 295,354.5C 298.937,352.856 302.77,351.023 306.5,349C 308.045,347.178 308.712,345.011 308.5,342.5C 306.401,328.367 302.568,314.7 297,301.5C 296.333,296.167 296.333,290.833 297,285.5C 300.774,274.179 304.94,263.012 309.5,252C 305.068,246.496 303.401,240.163 304.5,233C 304.667,229.167 304.833,225.333 305,221.5C 308.113,212.382 310.28,203.048 311.5,193.5C 310.833,193.167 310.167,192.833 309.5,192.5C 297.364,195.857 285.03,197.023 272.5,196C 269.433,192.703 267.267,188.869 266,184.5C 262.734,172.341 260.568,160.007 259.5,147.5C 253.577,145.706 247.577,144.206 241.5,143C 225.128,142.098 208.795,140.765 192.5,139C 191.663,137.989 191.33,136.822 191.5,135.5C 168.15,135.105 144.816,134.271 121.5,133C 120.663,131.989 120.33,130.822 120.5,129.5C 98.0789,129.393 75.7455,128.226 53.5,126C 51.4127,125.208 49.5793,124.041 48,122.5C 47.501,118.179 47.3343,113.846 47.5,109.5C 84.0814,106.573 120.748,105.739 157.5,107C 160.028,109.057 163.028,110.057 166.5,110C 205.378,112.206 244.211,114.039 283,115.5C 284.849,113.953 286.349,112.119 287.5,110C 293.862,109.347 300.195,109.513 306.5,110.5C 306.334,105.821 306.501,101.155 307,96.5C 310.059,95.2581 313.059,93.9247 316,92.5C 319.419,79.655 322.085,66.655 324,53.5C 325.397,51.9297 326.897,50.5964 328.5,49.5 Z M 294.5,149.5 C 297.85,149.335 301.183,149.502 304.5,150C 301.922,152.207 299.089,154.04 296,155.5C 295.187,153.564 294.687,151.564 294.5,149.5 Z"/></g>
<g><path style="opacity:1" fill="#000000" d="M 361.5,118.5 C 365.934,117.995 370.268,117.161 374.5,116C 380.167,115.333 385.833,115.333 391.5,116C 392.406,117.699 392.739,119.533 392.5,121.5C 399.57,120.934 404.07,123.934 406,130.5C 406.667,137.5 406.667,144.5 406,151.5C 403.984,152.839 402.817,154.672 402.5,157C 405.272,161.054 407.105,165.554 408,170.5C 410.673,183.665 407.84,195.331 399.5,205.5C 402.415,206.704 404.581,208.704 406,211.5C 410.133,222.492 411.799,233.825 411,245.5C 409.833,246.667 408.667,247.833 407.5,249C 400.985,251.413 394.485,253.58 388,255.5C 387.333,262.833 387.333,270.167 388,277.5C 389.017,279.376 389.851,281.376 390.5,283.5C 393.755,284.66 395.588,286.993 396,290.5C 402.768,298.108 407.268,306.942 409.5,317C 410.697,318.52 412.197,319.687 414,320.5C 414.771,323.19 415.604,325.856 416.5,328.5C 418.197,329.364 419.363,330.697 420,332.5C 421.456,338.097 421.789,343.763 421,349.5C 420.047,351.455 418.713,353.122 417,354.5C 416.968,365.711 411.302,370.378 400,368.5C 394.424,369.217 389.424,367.883 385,364.5C 384.333,360.833 384.333,357.167 385,353.5C 385.465,352.069 386.299,350.903 387.5,350C 385.322,348.198 383.489,346.031 382,343.5C 380.136,337.44 377.47,331.774 374,326.5C 368.047,318.212 361.714,310.212 355,302.5C 351.599,296.567 349.266,290.234 348,283.5C 345.45,289.314 343.617,295.314 342.5,301.5C 344.783,311.012 345.95,320.679 346,330.5C 346.725,332.949 347.725,335.283 349,337.5C 349.667,348.5 349.667,359.5 349,370.5C 347.833,371.667 346.667,372.833 345.5,374C 330.518,375.399 315.518,376.066 300.5,376C 299.333,374.833 298.167,373.667 297,372.5C 296.333,367.167 296.333,361.833 297,356.5C 301.766,354.916 306.1,352.583 310,349.5C 310.711,342.785 310.378,336.118 309,329.5C 304.976,317.6 301.476,305.6 298.5,293.5C 301.657,279.197 306.323,265.363 312.5,252C 310.683,248.843 308.85,245.677 307,242.5C 306.333,236.167 306.333,229.833 307,223.5C 309.985,213.595 312.485,203.595 314.5,193.5C 313.754,192.264 313.421,190.93 313.5,189.5C 300.687,192.747 287.687,194.247 274.5,194C 271.433,190.703 269.267,186.869 268,182.5C 264.734,170.341 262.568,158.007 261.5,145.5C 255.577,143.706 249.577,142.206 243.5,141C 227.128,140.098 210.795,138.765 194.5,137C 193.663,135.989 193.33,134.822 193.5,133.5C 170.15,133.105 146.816,132.271 123.5,131C 122.663,129.989 122.33,128.822 122.5,127.5C 100.079,127.393 77.7455,126.226 55.5,124C 49.9265,121.762 47.9265,117.596 49.5,111.5C 84.7474,108.585 120.081,107.752 155.5,109C 158.028,111.057 161.028,112.057 164.5,112C 204.046,114.288 243.546,116.121 283,117.5C 284.226,117.355 285.393,117.022 286.5,116.5C 287.704,112.15 290.538,110.484 295,111.5C 299.189,111.813 303.356,112.313 307.5,113C 308.423,115.041 308.756,117.208 308.5,119.5C 309.5,119.5 310.5,119.5 311.5,119.5C 311.665,116.482 311.498,113.482 311,110.5C 310.333,109.833 309.667,109.167 309,108.5C 308.333,105.167 308.333,101.833 309,98.5C 312.059,97.2581 315.059,95.9247 318,94.5C 321.419,81.655 324.085,68.655 326,55.5C 329.399,52.05 333.566,50.7167 338.5,51.5C 341.421,51.5235 344.254,51.8568 347,52.5C 348.042,56.7594 348.875,61.0928 349.5,65.5C 358.533,69.4333 367.366,73.7666 376,78.5C 376.667,82.5 376.667,86.5 376,90.5C 370.87,99.7229 366.037,109.056 361.5,118.5 Z M 294.5,149.5 C 294.687,151.564 295.187,153.564 296,155.5C 299.089,154.04 301.922,152.207 304.5,150C 301.183,149.502 297.85,149.335 294.5,149.5 Z"/></g>
<g><path style="opacity:1" fill="#296296" d="M 336.5,58.5 C 342.449,59.8789 342.949,62.5456 338,66.5C 336.644,65.6198 335.144,65.2865 333.5,65.5C 333.67,64.1779 333.337,63.0113 332.5,62C 333.731,60.5952 335.064,59.4286 336.5,58.5 Z"/></g>
<g><path style="opacity:1" fill="#242424" d="M 350.5,113.5 C 347.333,113.6 344.333,112.933 341.5,111.5C 340.702,111.957 340.369,112.624 340.5,113.5C 339.596,112.791 339.263,111.791 339.5,110.5C 337.784,110.371 336.117,110.038 334.5,109.5C 334.586,108.504 334.252,107.671 333.5,107C 332.128,106.598 330.795,106.098 329.5,105.5C 328.261,107.007 328.595,108.174 330.5,109C 329.473,109.513 328.473,110.013 327.5,110.5C 327.229,108.57 326.229,107.236 324.5,106.5C 321.628,105.675 318.628,104.841 315.5,104C 318.167,103.333 320.833,102.667 323.5,102C 325.41,99.2731 326.744,96.2731 327.5,93C 330.199,93.4382 332.865,93.2716 335.5,92.5C 333.5,90.1667 331.5,87.8333 329.5,85.5C 331.741,85.5018 334.074,85.1684 336.5,84.5C 334.5,82.1667 332.5,79.8333 330.5,77.5C 330.17,74.8977 330.67,72.2311 332,69.5C 332.739,68.4258 333.739,67.7591 335,67.5C 344.126,72.9798 353.626,77.8131 363.5,82C 362.5,82.3333 361.5,82.6667 360.5,83C 363.327,83.7015 365.994,84.7015 368.5,86C 366.752,89.4991 364.752,92.8324 362.5,96C 359.106,96.7517 355.773,96.5851 352.5,95.5C 351.692,95.8076 351.025,96.3076 350.5,97C 353.679,98.4613 357.012,99.2946 360.5,99.5C 360.649,100.552 360.483,101.552 360,102.5C 352.426,99.1256 351.26,100.292 356.5,106C 354.02,106.96 351.52,107.793 349,108.5C 348.312,109.332 348.479,109.998 349.5,110.5C 350.931,110.977 352.264,111.643 353.5,112.5C 352.675,113.386 351.675,113.719 350.5,113.5 Z"/></g>
<g><path style="opacity:1" fill="#c7641d" d="M 324.5,106.5 C 326.229,107.236 327.229,108.57 327.5,110.5C 327.167,110.5 326.833,110.5 326.5,110.5C 325.518,111.141 324.518,111.807 323.5,112.5C 322.583,111.873 321.583,111.539 320.5,111.5C 321.487,109.449 322.82,107.782 324.5,106.5 Z"/></g>
<g><path style="opacity:1" fill="#5e5e5e" d="M 334.5,109.5 C 334.802,112.059 334.468,114.393 333.5,116.5C 331.806,117.686 330.139,117.519 328.5,116C 327.926,114.081 327.593,112.247 327.5,110.5C 328.473,110.013 329.473,109.513 330.5,109C 328.595,108.174 328.261,107.007 329.5,105.5C 330.795,106.098 332.128,106.598 333.5,107C 334.252,107.671 334.586,108.504 334.5,109.5 Z"/></g>
<g><path style="opacity:1" fill="#f9a884" d="M 334.5,109.5 C 336.117,110.038 337.784,110.371 339.5,110.5C 339.263,111.791 339.596,112.791 340.5,113.5C 341.385,118.283 339.385,120.616 334.5,120.5C 334.5,119.833 334.167,119.5 333.5,119.5C 333.5,118.5 333.5,117.5 333.5,116.5C 334.468,114.393 334.802,112.059 334.5,109.5 Z"/></g>
<g><path style="opacity:1" fill="#f9a884" d="M 326.5,110.5 C 325.92,114.81 325.586,119.143 325.5,123.5C 324.539,125.265 324.205,127.265 324.5,129.5C 323.167,129.5 321.833,129.5 320.5,129.5C 321.37,125.801 321.37,122.301 320.5,119C 319.315,117.647 317.981,116.48 316.5,115.5C 317.521,113.812 318.855,112.479 320.5,111.5C 321.583,111.539 322.583,111.873 323.5,112.5C 324.518,111.807 325.518,111.141 326.5,110.5 Z"/></g>
<g><path style="opacity:1" fill="#a76e4f" d="M 350.5,113.5 C 351.575,114.713 352.241,116.213 352.5,118C 352.083,120.498 351.749,122.998 351.5,125.5C 347.928,125.938 344.428,126.604 341,127.5C 340.617,126.944 340.117,126.611 339.5,126.5C 338.299,124.091 336.633,122.091 334.5,120.5C 339.385,120.616 341.385,118.283 340.5,113.5C 340.369,112.624 340.702,111.957 341.5,111.5C 344.333,112.933 347.333,113.6 350.5,113.5 Z"/></g>
<g><path style="opacity:1" fill="#000000" d="M 336.5,112.5 C 337.874,114.517 337.707,116.517 336,118.5C 335.82,116.512 335.986,114.512 336.5,112.5 Z"/></g>
<g><path style="opacity:1" fill="#7e7f7e" d="M 80.5,115.5 C 95.837,115.333 111.17,115.5 126.5,116C 127.38,117.356 127.714,118.856 127.5,120.5C 103.728,120.295 80.0611,119.128 56.5,117C 64.6772,116.829 72.6772,116.329 80.5,115.5 Z"/></g>
<g><path style="opacity:1" fill="#7e7f7e" d="M 133.5,115.5 C 135.164,116.949 135.998,118.949 136,121.5C 136.494,119.866 136.66,118.199 136.5,116.5C 142.367,116.206 144.033,118.872 141.5,124.5C 137.541,123.598 133.541,123.598 129.5,124.5C 128.908,121.873 128.575,119.206 128.5,116.5C 130.415,116.784 132.081,116.451 133.5,115.5 Z"/></g>
<g><path style="opacity:1" fill="#7e7f7e" d="M 148.5,115.5 C 149.117,115.611 149.617,115.944 150,116.5C 150.667,119.167 150.667,121.833 150,124.5C 147.959,125.423 145.792,125.756 143.5,125.5C 143.797,115.791 144.63,115.458 146,124.5C 146.057,121.189 146.89,118.189 148.5,115.5 Z"/></g>
<g><path style="opacity:1" fill="#3b3b3b" d="M 326.5,110.5 C 326.833,110.5 327.167,110.5 327.5,110.5C 327.593,112.247 327.926,114.081 328.5,116C 330.139,117.519 331.806,117.686 333.5,116.5C 333.5,117.5 333.5,118.5 333.5,119.5C 332.5,121.5 331.5,123.5 330.5,125.5C 328.447,125.598 326.78,124.931 325.5,123.5C 325.586,119.143 325.92,114.81 326.5,110.5 Z"/></g>
<g><path style="opacity:1" fill="#7e7f7e" d="M 152.5,118.5 C 167.701,118.24 183.034,119.073 198.5,121C 183.167,120.5 167.834,119.667 152.5,118.5 Z"/></g>
<g><path style="opacity:1" fill="#7e7f7e" d="M 294.5,117.5 C 295.234,118.878 295.901,120.378 296.5,122C 295.167,122.667 293.833,122.667 292.5,122C 293.267,120.53 293.933,119.03 294.5,117.5 Z"/></g>
<g><path style="opacity:1" fill="#7e7f7e" d="M 300.5,118.5 C 301.376,118.369 302.043,118.702 302.5,119.5C 299.709,123.589 299.042,123.255 300.5,118.5 Z"/></g>
<g><path style="opacity:1" fill="#fefffe" d="M 361.5,118.5 C 361.539,119.756 361.039,120.756 360,121.5C 359.415,120.002 359.915,119.002 361.5,118.5 Z"/></g>
<g><path style="opacity:1" fill="#fec90d" d="M 200.5,119.5 C 201.675,119.281 202.675,119.614 203.5,120.5C 201.083,129.791 200.083,129.458 200.5,119.5 Z"/></g>
<g><path style="opacity:1" fill="#c4621d" d="M 333.5,119.5 C 334.167,119.5 334.5,119.833 334.5,120.5C 336.633,122.091 338.299,124.091 339.5,126.5C 336.383,128.448 333.049,129.114 329.5,128.5C 330.127,127.583 330.461,126.583 330.5,125.5C 331.5,123.5 332.5,121.5 333.5,119.5 Z"/></g>
<g><path style="opacity:1" fill="#b87a56" d="M 152.5,120.5 C 167.833,121.5 183.166,122.5 198.5,123.5C 198.5,124.5 198.5,125.5 198.5,126.5C 183.151,126.148 167.818,125.482 152.5,124.5C 152.5,123.167 152.5,121.833 152.5,120.5 Z"/></g>
<g><path style="opacity:1" fill="#7e7f7e" d="M 205.5,121.5 C 207.134,120.839 208.967,120.506 211,120.5C 225.538,121.035 240.038,122.035 254.5,123.5C 253.167,123.833 251.833,124.167 250.5,124.5C 235.511,123.292 220.511,122.292 205.5,121.5 Z"/></g>
<g><path style="opacity:1" fill="#fec90d" d="M 256.5,127.5 C 256.201,125.396 256.534,123.396 257.5,121.5C 257.833,122.5 258.167,123.5 258.5,124.5C 258.36,126.03 257.693,127.03 256.5,127.5 Z"/></g>
<g><path style="opacity:1" fill="#fefffe" d="M 380.5,121.5 C 382.167,121.5 383.833,121.5 385.5,121.5C 384.721,127.306 382.721,127.806 379.5,123C 380.056,122.617 380.389,122.117 380.5,121.5 Z"/></g>
<g><path style="opacity:1" fill="#7e7f7e" d="M 260.5,122.5 C 273.188,122.733 285.855,123.399 298.5,124.5C 290.711,125.043 282.877,125.043 275,124.5C 269.784,124.494 264.951,123.827 260.5,122.5 Z"/></g>
<g><path style="opacity:1" fill="#b47755" d="M 252.5,127.5 C 252.771,129.43 253.771,130.764 255.5,131.5C 254.833,131.5 254.167,131.5 253.5,131.5C 236.77,130.83 220.104,129.496 203.5,127.5C 204.246,126.264 204.579,124.93 204.5,123.5C 220.714,124.094 236.714,125.427 252.5,127.5 Z"/></g>
<g><path style="opacity:1" fill="#fefffe" d="M 368.5,123.5 C 370.948,123.085 372.281,124.085 372.5,126.5C 372.167,128.167 371.167,129.167 369.5,129.5C 366.481,127.626 366.148,125.626 368.5,123.5 Z"/></g>
<g><path style="opacity:1" fill="#a46d50" d="M 320.5,129.5 C 322.265,130.461 324.265,130.795 326.5,130.5C 327.607,133.231 328.607,136.064 329.5,139C 329.646,141.188 328.646,142.521 326.5,143C 323.204,145.101 320.37,144.601 318,141.5C 317.667,142.167 317.333,142.833 317,143.5C 314.418,142.716 312.751,141.049 312,138.5C 310.84,140.797 309.84,140.464 309,137.5C 308.082,139.376 306.582,140.376 304.5,140.5C 303.833,140.5 303.5,140.167 303.5,139.5C 304.625,137.871 305.959,136.371 307.5,135C 304.151,134.612 300.817,134.779 297.5,135.5C 295.958,134.699 294.292,134.366 292.5,134.5C 292.167,134.5 291.833,134.5 291.5,134.5C 286.18,133.834 280.847,133.168 275.5,132.5C 274.274,132.52 273.274,132.853 272.5,133.5C 269.164,131.949 265.831,130.615 262.5,129.5C 261.909,128.849 261.243,128.182 260.5,127.5C 269.816,126.335 279.149,126.168 288.5,127C 287.944,127.383 287.611,127.883 287.5,128.5C 287.611,129.117 287.944,129.617 288.5,130C 292.5,130.667 296.5,130.667 300.5,130C 301.056,129.617 301.389,129.117 301.5,128.5C 299.098,127.266 299.264,125.933 302,124.5C 305.92,125.627 309.587,127.294 313,129.5C 313.523,127.777 314.523,126.444 316,125.5C 317.699,126.704 319.199,128.038 320.5,129.5 Z"/></g>
<g><path style="opacity:1" fill="#eaa081" d="M 252.5,127.5 C 253.833,127.5 255.167,127.5 256.5,127.5C 258.102,129.074 260.102,129.741 262.5,129.5C 265.831,130.615 269.164,131.949 272.5,133.5C 273.492,133.328 274.158,133.662 274.5,134.5C 275.29,135.794 276.29,136.961 277.5,138C 270.655,139.984 263.988,139.65 257.5,137C 257.167,136.667 256.833,136.333 256.5,136C 257.833,135.667 259.167,135.333 260.5,135C 258.256,134.95 256.589,134.117 255.5,132.5C 255.5,132.167 255.5,131.833 255.5,131.5C 253.771,130.764 252.771,129.43 252.5,127.5 Z"/></g>
<g><path style="opacity:1" fill="#fec90d" d="M 287.5,128.5 C 292.167,128.5 296.833,128.5 301.5,128.5C 301.389,129.117 301.056,129.617 300.5,130C 296.5,130.667 292.5,130.667 288.5,130C 287.944,129.617 287.611,129.117 287.5,128.5 Z"/></g>
<g><path style="opacity:1" fill="#ec1c23" d="M 350.5,128.5 C 354.225,128.78 355.392,130.78 354,134.5C 348.326,135.847 343.66,138.847 340,143.5C 337.667,142.123 335.167,141.123 332.5,140.5C 331.708,138.535 331.041,136.535 330.5,134.5C 330.833,134.167 331.167,133.833 331.5,133.5C 337.983,131.944 344.316,130.277 350.5,128.5 Z"/></g>
<g><path style="opacity:1" fill="#99bac2" d="M 384.5,129.5 C 389.804,133.913 391.637,139.58 390,146.5C 389.722,147.416 389.222,148.082 388.5,148.5C 385.728,148.22 383.228,148.887 381,150.5C 380.536,149.906 380.369,149.239 380.5,148.5C 381.737,141.834 380.07,136.167 375.5,131.5C 378.211,129.299 381.211,128.632 384.5,129.5 Z"/></g>
<g><path style="opacity:1" fill="#fefffe" d="M 384.5,129.5 C 385.705,128.314 387.039,128.314 388.5,129.5C 388.833,130.5 389.5,131.167 390.5,131.5C 391.048,133.626 391.715,135.626 392.5,137.5C 392.5,140.5 392.5,143.5 392.5,146.5C 391.596,147.209 391.263,148.209 391.5,149.5C 390.209,149.737 389.209,149.404 388.5,148.5C 389.222,148.082 389.722,147.416 390,146.5C 391.637,139.58 389.804,133.913 384.5,129.5 Z"/></g>
<g><path style="opacity:1" fill="#fefffe" d="M 200.5,130.5 C 200.56,129.957 200.893,129.624 201.5,129.5C 216.533,130.669 231.533,132.169 246.5,134C 231.039,134.094 215.706,132.928 200.5,130.5 Z"/></g>
<g><path style="opacity:1" fill="#fefffe" d="M 356.5,129.5 C 360.206,129.77 361.539,131.603 360.5,135C 359.216,135.684 358.049,135.517 357,134.5C 356.506,132.866 356.34,131.199 356.5,129.5 Z"/></g>
<g><path style="opacity:1" fill="#97c9d6" d="M 392.5,146.5 C 392.5,143.5 392.5,140.5 392.5,137.5C 392.975,134.918 392.308,132.918 390.5,131.5C 389.5,131.167 388.833,130.5 388.5,129.5C 388.47,128.503 388.97,127.836 390,127.5C 398.312,130.617 401.312,136.617 399,145.5C 397.429,147.923 395.263,149.256 392.5,149.5C 392.5,148.5 392.5,147.5 392.5,146.5 Z"/></g>
<g><path style="opacity:1" fill="#fefffe" d="M 375.5,131.5 C 380.07,136.167 381.737,141.834 380.5,148.5C 379.596,149.209 379.263,150.209 379.5,151.5C 377.821,151.715 376.821,151.048 376.5,149.5C 379.025,142.596 377.358,136.93 371.5,132.5C 372.211,130.158 373.544,129.825 375.5,131.5 Z"/></g>
<g><path style="opacity:1" fill="#fec90d" d="M 253.5,131.5 C 254.167,131.5 254.833,131.5 255.5,131.5C 255.5,131.833 255.5,132.167 255.5,132.5C 254.16,136.172 251.826,137.005 248.5,135C 250.233,133.811 251.9,132.644 253.5,131.5 Z"/></g>
<g><path style="opacity:1" fill="#9ec0c8" d="M 371.5,132.5 C 377.358,136.93 379.025,142.596 376.5,149.5C 375.566,150.568 375.232,151.901 375.5,153.5C 373.323,153.586 371.323,154.253 369.5,155.5C 368.571,154.311 368.238,152.978 368.5,151.5C 369.625,145.468 367.959,140.468 363.5,136.5C 363.5,135.5 363.5,134.5 363.5,133.5C 365.6,133.523 367.433,132.856 369,131.5C 369.902,131.743 370.735,132.077 371.5,132.5 Z"/></g>
<g><path style="opacity:1" fill="#000000" d="M 390.5,131.5 C 392.308,132.918 392.975,134.918 392.5,137.5C 391.715,135.626 391.048,133.626 390.5,131.5 Z"/></g>
<g><path style="opacity:1" fill="#fefffe" d="M 272.5,133.5 C 273.274,132.853 274.274,132.52 275.5,132.5C 280.847,133.168 286.18,133.834 291.5,134.5C 286.013,135.133 280.346,135.133 274.5,134.5C 274.158,133.662 273.492,133.328 272.5,133.5 Z"/></g>
<g><path style="opacity:1" fill="#000000" d="M 317.5,132.5 C 318.309,133.469 319.309,134.302 320.5,135C 319.552,135.483 318.552,135.649 317.5,135.5C 317.5,134.5 317.5,133.5 317.5,132.5 Z"/></g>
<g><path style="opacity:1" fill="#fec90d" d="M 292.5,134.5 C 294.292,134.366 295.958,134.699 297.5,135.5C 298.122,138.776 300.122,140.109 303.5,139.5C 303.5,140.167 303.833,140.5 304.5,140.5C 303.054,141.613 301.387,141.78 299.5,141C 297.271,138.6 294.937,136.433 292.5,134.5 Z"/></g>
<g><path style="opacity:1" fill="#000000" d="M 303.5,139.5 C 300.122,140.109 298.122,138.776 297.5,135.5C 300.817,134.779 304.151,134.612 307.5,135C 305.959,136.371 304.625,137.871 303.5,139.5 Z"/></g>
<g><path style="opacity:1" fill="#a3c6ce" d="M 359.5,138.5 C 360.833,140.5 362.5,142.167 364.5,143.5C 363.158,144.793 361.491,145.626 359.5,146C 357.963,147.11 357.297,148.61 357.5,150.5C 356.069,147.703 354.402,145.036 352.5,142.5C 350.369,141.686 348.036,141.186 345.5,141C 348.839,139.5 352.173,138 355.5,136.5C 356.86,137.18 358.193,137.847 359.5,138.5 Z"/></g>
<g><path style="opacity:1" fill="#fefffe" d="M 363.5,136.5 C 367.959,140.468 369.625,145.468 368.5,151.5C 367.942,153.789 366.776,155.789 365,157.5C 364.51,156.207 364.343,154.873 364.5,153.5C 365.833,150.167 365.833,146.833 364.5,143.5C 362.5,142.167 360.833,140.5 359.5,138.5C 360.514,137.326 361.847,136.66 363.5,136.5 Z"/></g>
<g><path style="opacity:1" fill="#285d8f" d="M 274.5,146.5 C 273.486,147.674 272.153,148.34 270.5,148.5C 268.859,146.797 267.859,144.63 267.5,142C 272.398,140.695 277.398,139.862 282.5,139.5C 282.357,141.262 282.691,142.929 283.5,144.5C 280.358,145.167 277.358,145.834 274.5,146.5 Z"/></g>
<g><path style="opacity:1" fill="#fefffe" d="M 339.5,146.5 C 338.833,147.167 338.167,147.833 337.5,148.5C 336.22,147.069 334.553,146.402 332.5,146.5C 331.048,145.698 329.382,145.198 327.5,145C 328.966,144.365 330.3,143.531 331.5,142.5C 334.714,142.95 337.381,144.283 339.5,146.5 Z"/></g>
<g><path style="opacity:1" fill="#93b2ba" d="M 352.5,142.5 C 354.402,145.036 356.069,147.703 357.5,150.5C 357.784,152.415 357.451,154.081 356.5,155.5C 355.125,161.362 351.458,163.028 345.5,160.5C 340.979,156.943 338.979,152.276 339.5,146.5C 342.984,142.868 347.317,141.535 352.5,142.5 Z"/></g>
<g><path style="opacity:1" fill="#fefffe" d="M 291.5,144.5 C 292.627,145.122 293.627,145.955 294.5,147C 299.533,147.171 304.533,147.671 309.5,148.5C 305.4,153.095 300.567,156.762 295,159.5C 292.886,154.772 291.719,149.772 291.5,144.5 Z M 294.5,149.5 C 294.687,151.564 295.187,153.564 296,155.5C 299.089,154.04 301.922,152.207 304.5,150C 301.183,149.502 297.85,149.335 294.5,149.5 Z"/></g>
<g><path style="opacity:1" fill="#4e99ad" d="M 364.5,143.5 C 365.833,146.833 365.833,150.167 364.5,153.5C 364.66,151.801 364.494,150.134 364,148.5C 362.089,150.689 359.923,151.356 357.5,150.5C 357.297,148.61 357.963,147.11 359.5,146C 361.491,145.626 363.158,144.793 364.5,143.5 Z"/></g>
<g><path style="opacity:1" fill="#fefffe" d="M 274.5,146.5 C 277.518,146.335 280.518,146.502 283.5,147C 281.942,147.21 280.609,147.71 279.5,148.5C 275.64,148.054 272.64,149.387 270.5,152.5C 269.314,151.295 269.314,149.961 270.5,148.5C 272.153,148.34 273.486,147.674 274.5,146.5 Z"/></g>
<g><path style="opacity:1" fill="#d6d6d6" d="M 332.5,146.5 C 334.553,146.402 336.22,147.069 337.5,148.5C 338.412,149.738 338.579,151.072 338,152.5C 333.23,147.985 327.73,146.318 321.5,147.5C 325.107,146.511 328.774,146.177 332.5,146.5 Z"/></g>
<g><path style="opacity:1" fill="#000000" d="M 345.5,148.5 C 348.001,148.511 348.168,149.178 346,150.5C 345.536,149.906 345.369,149.239 345.5,148.5 Z"/></g>
<g><path style="opacity:1" fill="#000000" d="M 348.5,149.5 C 348.56,148.957 348.893,148.624 349.5,148.5C 350.583,149.365 350.749,150.365 350,151.5C 349.722,150.584 349.222,149.918 348.5,149.5 Z"/></g>
<g><path style="opacity:1" fill="#bde7f0" d="M 364.5,153.5 C 364.244,158.423 361.577,161.09 356.5,161.5C 356.5,159.5 356.5,157.5 356.5,155.5C 357.451,154.081 357.784,152.415 357.5,150.5C 359.923,151.356 362.089,150.689 364,148.5C 364.494,150.134 364.66,151.801 364.5,153.5 Z"/></g>
<g><path style="opacity:1" fill="#275988" d="M 279.5,148.5 C 281.144,148.286 282.644,148.62 284,149.5C 284.744,154.552 285.744,159.552 287,164.5C 287.667,166.5 289,167.833 291,168.5C 296.599,166.746 301.932,164.413 307,161.5C 311.172,157.994 315.338,154.494 319.5,151C 322.748,150.241 325.748,149.741 328.5,149.5C 334.849,152.013 339.849,156.179 343.5,162C 341.543,171.453 340.21,180.953 339.5,190.5C 335.99,186.416 331.657,183.916 326.5,183C 330.538,186.674 334.871,189.841 339.5,192.5C 339.875,195.907 338.875,196.407 336.5,194C 331.61,191.046 327.277,187.379 323.5,183C 323.833,182.667 324.167,182.333 324.5,182C 322.316,181.133 320.149,180.299 318,179.5C 307.738,182.149 297.404,184.482 287,186.5C 286.055,186.095 285.388,185.428 285,184.5C 284.07,186.545 282.57,187.379 280.5,187C 278.014,183.863 276.181,180.363 275,176.5C 272.792,168.625 271.292,160.625 270.5,152.5C 272.64,149.387 275.64,148.054 279.5,148.5 Z M 294.5,149.5 C 294.687,151.564 295.187,153.564 296,155.5C 299.089,154.04 301.922,152.207 304.5,150C 301.183,149.502 297.85,149.335 294.5,149.5 Z"/></g>
<g><path style="opacity:1" fill="#870014" d="M 384.5,150.5 C 387.096,151.265 389.763,151.599 392.5,151.5C 393.011,154.028 393.678,156.528 394.5,159C 394.167,159.833 393.833,160.667 393.5,161.5C 389.754,160.131 387.088,157.631 385.5,154C 380.521,153.853 380.188,152.687 384.5,150.5 Z"/></g>
<g><path style="opacity:1" fill="#000000" d="M 347.5,152.5 C 348.773,153.077 348.773,153.743 347.5,154.5C 346.537,154.03 346.537,153.363 347.5,152.5 Z"/></g>
<g><path style="opacity:1" fill="#830214" d="M 362.5,178.5 C 359.593,176.685 358.259,174.019 358.5,170.5C 358.192,168.076 358.526,165.743 359.5,163.5C 365.704,159.059 372.37,155.893 379.5,154C 377.845,156.507 377.011,159.341 377,162.5C 372.029,166.777 368.862,172.11 367.5,178.5C 365.833,178.5 364.167,178.5 362.5,178.5 Z"/></g>
<g><path style="opacity:1" fill="#ececec" d="M 383.5,161.5 C 382.167,161.5 380.833,161.5 379.5,161.5C 378.99,155.318 380.99,154.152 385.5,158C 384.695,159.113 384.028,160.279 383.5,161.5 Z"/></g>
<g><path style="opacity:1" fill="#fefffe" d="M 392.5,172.5 C 392.177,178.69 392.51,184.69 393.5,190.5C 393.664,193.187 393.497,195.854 393,198.5C 392.311,199.357 391.478,200.023 390.5,200.5C 389.833,197.023 389.166,193.689 388.5,190.5C 388.822,184.642 388.489,178.975 387.5,173.5C 387.815,169.629 387.482,165.962 386.5,162.5C 386.5,161.833 386.167,161.5 385.5,161.5C 385.369,160.761 385.536,160.094 386,159.5C 387.586,160.376 389.086,161.376 390.5,162.5C 391.097,165.971 391.764,169.305 392.5,172.5 Z"/></g>
<g><path style="opacity:1" fill="#000000" d="M 386.5,162.5 C 387.482,165.962 387.815,169.629 387.5,173.5C 386.799,170.437 386.132,167.27 385.5,164C 386.056,163.617 386.389,163.117 386.5,162.5 Z"/></g>
<g><path style="opacity:1" fill="#730913" d="M 355.5,166.5 C 355.5,167.5 355.5,168.5 355.5,169.5C 354.5,169.5 353.5,169.5 352.5,169.5C 350.205,168.525 348.205,167.192 346.5,165.5C 346.791,164.351 347.624,163.684 349,163.5C 351.649,163.652 353.816,164.652 355.5,166.5 Z"/></g>
<g><path style="opacity:1" fill="#fefffe" d="M 358.5,170.5 C 358.259,174.019 359.593,176.685 362.5,178.5C 363.952,179.302 365.618,179.802 367.5,180C 365.825,180.985 364.158,181.819 362.5,182.5C 361.35,188.311 360.517,194.311 360,200.5C 359.743,202.907 358.576,204.573 356.5,205.5C 354.598,206.511 352.598,206.678 350.5,206C 339.627,201.293 329.96,194.793 321.5,186.5C 320.417,185.635 320.251,184.635 321,183.5C 329.426,192.457 339.259,199.124 350.5,203.5C 350.811,204.478 351.478,205.145 352.5,205.5C 355.133,204.699 356.967,203.033 358,200.5C 359.11,193.189 359.443,185.856 359,178.5C 356.362,173.936 352.529,170.936 347.5,169.5C 346.791,168.596 345.791,168.263 344.5,168.5C 344.343,167.127 344.51,165.793 345,164.5C 345.383,165.056 345.883,165.389 346.5,165.5C 348.205,167.192 350.205,168.525 352.5,169.5C 353.568,170.434 354.901,170.768 356.5,170.5C 356.768,168.901 356.434,167.568 355.5,166.5C 355.281,165.325 355.614,164.325 356.5,163.5C 357.168,165.969 357.835,168.302 358.5,170.5 Z"/></g>
<g><path style="opacity:1" fill="#b1b1b1" d="M 393.5,190.5 C 392.51,184.69 392.177,178.69 392.5,172.5C 392.336,169.813 392.503,167.146 393,164.5C 393.414,164.043 393.914,163.709 394.5,163.5C 403.646,174.035 403.812,184.701 395,195.5C 394.802,193.618 394.302,191.952 393.5,190.5 Z"/></g>
<g><path style="opacity:1" fill="#b2b2b2" d="M 383.5,161.5 C 384.167,161.5 384.833,161.5 385.5,161.5C 386.167,161.5 386.5,161.833 386.5,162.5C 386.389,163.117 386.056,163.617 385.5,164C 386.132,167.27 386.799,170.437 387.5,173.5C 388.489,178.975 388.822,184.642 388.5,190.5C 390.465,202.372 386.131,205.539 375.5,200C 368.47,193.495 366.637,185.662 370,176.5C 372.353,169.325 376.853,164.325 383.5,161.5 Z"/></g>
<g><path style="opacity:1" fill="#000000" d="M 355.5,166.5 C 356.434,167.568 356.768,168.901 356.5,170.5C 354.901,170.768 353.568,170.434 352.5,169.5C 353.5,169.5 354.5,169.5 355.5,169.5C 355.5,168.5 355.5,167.5 355.5,166.5 Z"/></g>
<g><path style="opacity:1" fill="#fefffe" d="M 344.5,168.5 C 344.194,171.385 344.527,174.052 345.5,176.5C 345.503,183.533 346.003,190.533 347,197.5C 347.232,198.737 347.732,199.737 348.5,200.5C 348.631,201.239 348.464,201.906 348,202.5C 347,201.5 346,200.5 345,199.5C 344.823,195.644 344.323,191.977 343.5,188.5C 343.176,181.646 343.509,174.979 344.5,168.5 Z"/></g>
<g><path style="opacity:1" fill="#000000" d="M 344.5,168.5 C 345.791,168.263 346.791,168.596 347.5,169.5C 345.656,171.279 344.99,173.612 345.5,176.5C 344.527,174.052 344.194,171.385 344.5,168.5 Z"/></g>
<g><path style="opacity:1" fill="#710a13" d="M 347.5,169.5 C 352.529,170.936 356.362,173.936 359,178.5C 359.443,185.856 359.11,193.189 358,200.5C 356.967,203.033 355.133,204.699 352.5,205.5C 351.478,205.145 350.811,204.478 350.5,203.5C 350.068,202.29 349.401,201.29 348.5,200.5C 347.732,199.737 347.232,198.737 347,197.5C 346.003,190.533 345.503,183.533 345.5,176.5C 344.99,173.612 345.656,171.279 347.5,169.5 Z"/></g>
<g><path style="opacity:1" fill="#152d45" d="M 302.5,170.5 C 306.714,171.941 310.714,173.941 314.5,176.5C 307.717,178.138 301.717,176.638 296.5,172C 298.708,171.809 300.708,171.309 302.5,170.5 Z"/></g>
<g><path style="opacity:1" fill="#163654" d="M 339.5,190.5 C 339.5,191.167 339.5,191.833 339.5,192.5C 334.871,189.841 330.538,186.674 326.5,183C 331.657,183.916 335.99,186.416 339.5,190.5 Z"/></g>
<g><path style="opacity:1" fill="#760813" d="M 362.5,182.5 C 363.833,182.5 365.167,182.5 366.5,182.5C 365.364,190.597 368.03,197.097 374.5,202C 368.875,203.021 363.375,204.521 358,206.5C 357.235,206.43 356.735,206.097 356.5,205.5C 358.576,204.573 359.743,202.907 360,200.5C 360.517,194.311 361.35,188.311 362.5,182.5 Z"/></g>
<g><path style="opacity:1" fill="#870014" d="M 343.5,188.5 C 343.665,191.85 343.498,195.183 343,198.5C 340.956,195.004 341.122,191.67 343.5,188.5 Z"/></g>
<g><path style="opacity:1" fill="#296296" d="M 337.5,203.5 C 335.114,202.702 332.78,201.702 330.5,200.5C 330.167,200.833 329.833,201.167 329.5,201.5C 331.332,204.672 333.999,206.672 337.5,207.5C 338.456,211.38 338.956,215.38 339,219.5C 335.96,216.034 332.126,214.7 327.5,215.5C 326.277,207.034 324.777,198.7 323,190.5C 326.718,194.273 330.884,197.44 335.5,200C 336.823,200.816 337.489,201.983 337.5,203.5 Z"/></g>
<g><path style="opacity:1" fill="#870014" d="M 321.5,199.5 C 322.339,200.641 323.006,201.974 323.5,203.5C 321.307,208.32 319.64,213.32 318.5,218.5C 317.939,212.006 318.939,205.673 321.5,199.5 Z"/></g>
<g><path style="opacity:1" fill="#152a40" d="M 337.5,203.5 C 337.5,204.833 337.5,206.167 337.5,207.5C 333.999,206.672 331.332,204.672 329.5,201.5C 329.833,201.167 330.167,200.833 330.5,200.5C 332.78,201.702 335.114,202.702 337.5,203.5 Z"/></g>
<g><path style="opacity:1" fill="#870014" d="M 339.5,203.5 C 340.496,203.414 341.329,203.748 342,204.5C 343.211,216.816 343.545,229.149 343,241.5C 340.653,244.34 337.82,246.673 334.5,248.5C 334.167,248.333 333.833,248.167 333.5,248C 336,246.833 337.833,245 339,242.5C 339.741,238.052 340.908,233.719 342.5,229.5C 341.499,220.82 340.499,212.153 339.5,203.5 Z"/></g>
<g><path style="opacity:1" fill="#fefffe" d="M 372.5,203.5 C 374.267,206.334 376.101,209.334 378,212.5C 382.636,214.407 382.469,216.074 377.5,217.5C 374.112,214.403 371.445,210.736 369.5,206.5C 370.993,205.859 371.993,204.859 372.5,203.5 Z"/></g>
<g><path style="opacity:1" fill="#152e46" d="M 358.5,212.5 C 356.657,213.283 354.657,213.95 352.5,214.5C 352.167,214.833 351.833,215.167 351.5,215.5C 352.325,216.386 353.325,216.719 354.5,216.5C 353.791,217.404 352.791,217.737 351.5,217.5C 351.649,218.552 351.483,219.552 351,220.5C 350.667,218.5 350.333,216.5 350,214.5C 348.698,213.915 347.531,213.249 346.5,212.5C 344.685,210.532 344.185,208.198 345,205.5C 347.851,206.923 350.518,208.589 353,210.5C 357.01,208.858 361.176,207.525 365.5,206.5C 368.611,208.419 370.445,211.086 371,214.5C 367.447,210.174 363.281,209.508 358.5,212.5 Z"/></g>
<g><path style="opacity:1" fill="#fefffe" d="M 351.5,208.5 C 352.251,207.427 353.251,207.26 354.5,208C 353.648,209.728 352.648,209.895 351.5,208.5 Z"/></g>
<g><path style="opacity:1" fill="#e4e4e4" d="M 358.5,212.5 C 359.5,212.5 360.5,212.5 361.5,212.5C 361.187,216.042 361.521,219.375 362.5,222.5C 362.833,223.167 363.167,223.833 363.5,224.5C 360.708,223.608 359.375,221.608 359.5,218.5C 359.5,217.833 359.5,217.167 359.5,216.5C 357.833,215.167 356.167,215.167 354.5,216.5C 353.325,216.719 352.325,216.386 351.5,215.5C 351.833,215.167 352.167,214.833 352.5,214.5C 354.657,213.95 356.657,213.283 358.5,212.5 Z"/></g>
<g><path style="opacity:1" fill="#fefffe" d="M 365.5,212.5 C 368.21,214.945 371.044,217.278 374,219.5C 374.749,220.635 374.583,221.635 373.5,222.5C 369.833,219.833 366.167,217.167 362.5,214.5C 363.602,213.824 364.602,213.158 365.5,212.5 Z"/></g>
<g><path style="opacity:1" fill="#272827" d="M 391.5,213.5 C 393.936,213.317 396.103,213.984 398,215.5C 400.945,222.948 403.112,230.614 404.5,238.5C 401.3,242.413 397.133,244.747 392,245.5C 391.228,245.355 390.561,245.022 390,244.5C 388.712,237.059 387.046,229.726 385,222.5C 382.834,220.879 380.334,220.045 377.5,220C 382.377,218.058 387.044,215.892 391.5,213.5 Z"/></g>
<g><path style="opacity:1" fill="#000000" d="M 354.5,216.5 C 356.167,215.167 357.833,215.167 359.5,216.5C 358.167,216.5 357.5,217.167 357.5,218.5C 356.778,217.449 355.778,216.782 354.5,216.5 Z"/></g>
<g><path style="opacity:1" fill="#26527d" d="M 346.5,212.5 C 347.531,213.249 348.698,213.915 350,214.5C 350.333,216.5 350.667,218.5 351,220.5C 351.483,219.552 351.649,218.552 351.5,217.5C 352.791,217.737 353.791,217.404 354.5,216.5C 355.778,216.782 356.778,217.449 357.5,218.5C 358.167,218.5 358.833,218.5 359.5,218.5C 359.375,221.608 360.708,223.608 363.5,224.5C 364.423,228.064 364.756,231.731 364.5,235.5C 364.737,236.791 364.404,237.791 363.5,238.5C 362.167,238.5 361.5,239.167 361.5,240.5C 361.833,241.167 362.167,241.833 362.5,242.5C 361.833,243.5 361.167,244.5 360.5,245.5C 358.833,244.5 357.5,243.167 356.5,241.5C 356.666,237.486 356.499,233.486 356,229.5C 355.821,233.025 355.321,236.359 354.5,239.5C 351.139,237.105 348.472,234.105 346.5,230.5C 345.716,225.566 345.049,220.566 344.5,215.5C 344.64,213.97 345.307,212.97 346.5,212.5 Z"/></g>
<g><path style="opacity:1" fill="#fefffe" d="M 359.5,216.5 C 359.5,217.167 359.5,217.833 359.5,218.5C 358.833,218.5 358.167,218.5 357.5,218.5C 357.5,217.167 358.167,216.5 359.5,216.5 Z"/></g>
<g><path style="opacity:1" fill="#00a1e8" d="M 327.5,218.5 C 332.182,216.733 336.016,218.066 339,222.5C 339.667,224.167 339.667,225.833 339,227.5C 336.435,222.757 332.602,219.757 327.5,218.5 Z"/></g>
<g><path style="opacity:1" fill="#24486d" d="M 367.5,238.5 C 366.62,236.863 365.954,235.03 365.5,233C 366.493,230.547 366.66,228.047 366,225.5C 365.329,224.748 364.496,224.414 363.5,224.5C 363.167,223.833 362.833,223.167 362.5,222.5C 362.197,216.788 364.03,216.454 368,221.5C 368.818,227.349 368.652,233.015 367.5,238.5 Z"/></g>
<g><path style="opacity:1" fill="#fefffe" d="M 365.5,255.5 C 363.183,251.854 360.516,248.52 357.5,245.5C 354.167,241.5 350.5,237.833 346.5,234.5C 345.314,233.039 345.314,231.705 346.5,230.5C 348.472,234.105 351.139,237.105 354.5,239.5C 354.833,240.5 355.5,241.167 356.5,241.5C 357.5,243.167 358.833,244.5 360.5,245.5C 362.388,248.899 364.888,251.899 368,254.5C 368.399,254.272 368.565,253.938 368.5,253.5C 369.33,243.341 369.83,233.008 370,222.5C 370.667,233.5 370.667,244.5 370,255.5C 368.51,256.728 367.01,256.728 365.5,255.5 Z"/></g>
<g><path style="opacity:1" fill="#158bc6" d="M 334.5,225.5 C 335.965,226.406 336.965,227.739 337.5,229.5C 336.675,230.386 335.675,230.719 334.5,230.5C 334.337,232.857 334.503,235.19 335,237.5C 335.383,238.056 335.883,238.389 336.5,238.5C 337.139,241.293 336.139,243.627 333.5,245.5C 332.808,244.975 332.308,244.308 332,243.5C 332.592,247.898 330.759,249.898 326.5,249.5C 326.286,247.856 326.62,246.356 327.5,245C 320.833,244.333 320.833,243.667 327.5,243C 324.413,242.741 321.413,242.241 318.5,241.5C 322.647,240.675 326.981,240.175 331.5,240C 326.845,239.501 322.179,239.334 317.5,239.5C 316.962,237.883 316.629,236.216 316.5,234.5C 323.167,234.167 323.167,233.833 316.5,233.5C 316.869,231.007 316.203,230.34 314.5,231.5C 313.744,227.447 315.077,223.947 318.5,221C 320.929,220.297 323.262,220.463 325.5,221.5C 325.369,220.761 325.536,220.094 326,219.5C 329.656,220.405 332.49,222.405 334.5,225.5 Z"/></g>
<g><path style="opacity:1" fill="#000000" d="M 322.5,223.5 C 323.263,224.268 324.263,224.768 325.5,225C 323.597,225.774 321.93,225.44 320.5,224C 321.094,223.536 321.761,223.369 322.5,223.5 Z"/></g>
<g><path style="opacity:1" fill="#000000" d="M 325.5,221.5 C 326.473,221.987 327.473,222.487 328.5,223C 326.527,223.495 324.527,223.662 322.5,223.5C 323.5,222.833 324.5,222.167 325.5,221.5 Z"/></g>
<g><path style="opacity:1" fill="#fefffe" d="M 363.5,224.5 C 364.496,224.414 365.329,224.748 366,225.5C 366.66,228.047 366.493,230.547 365.5,233C 365.954,235.03 366.62,236.863 367.5,238.5C 368.562,240.234 368.562,241.901 367.5,243.5C 365.097,243.393 363.264,244.393 362,246.5C 361.617,245.944 361.117,245.611 360.5,245.5C 361.167,244.5 361.833,243.5 362.5,242.5C 363.833,242.5 365.167,242.5 366.5,242.5C 366.279,239.933 365.612,237.599 364.5,235.5C 364.756,231.731 364.423,228.064 363.5,224.5 Z"/></g>
<g><path style="opacity:1" fill="#29537d" d="M 373.5,253.5 C 374.122,252.373 374.955,251.373 376,250.5C 376.015,248.209 376.182,246.042 376.5,244C 375.365,243.251 374.365,243.417 373.5,244.5C 376.501,247.428 376.168,249.761 372.5,251.5C 371.178,242.658 371.178,233.658 372.5,224.5C 373.086,224.709 373.586,225.043 374,225.5C 375.774,233.209 377.607,240.875 379.5,248.5C 379.614,251.951 377.947,253.951 374.5,254.5C 373.893,254.376 373.56,254.043 373.5,253.5 Z"/></g>
<g><path style="opacity:1" fill="#000000" d="M 334.5,225.5 C 333.703,229.029 332.703,229.195 331.5,226C 332.448,225.517 333.448,225.351 334.5,225.5 Z"/></g>
<g><path style="opacity:1" fill="#fefffe" d="M 359.5,226.5 C 361.337,226.639 361.67,227.306 360.5,228.5C 359.702,228.043 359.369,227.376 359.5,226.5 Z"/></g>
<g><path style="opacity:1" fill="#000000" d="M 356.5,241.5 C 355.5,241.167 354.833,240.5 354.5,239.5C 355.321,236.359 355.821,233.025 356,229.5C 356.499,233.486 356.666,237.486 356.5,241.5 Z"/></g>
<g><path style="opacity:1" fill="#00a1e8" d="M 314.5,231.5 C 315.626,232.858 315.626,234.192 314.5,235.5C 313.218,234.042 313.218,232.708 314.5,231.5 Z"/></g>
<g><path style="opacity:1" fill="#00a1e8" d="M 336.5,238.5 C 335.781,236.236 335.448,233.903 335.5,231.5C 336.5,231.5 337.5,231.5 338.5,231.5C 338.662,233.527 338.495,235.527 338,237.5C 337.617,238.056 337.117,238.389 336.5,238.5 Z"/></g>
<g><path style="opacity:1" fill="#265481" d="M 346.5,234.5 C 350.5,237.833 354.167,241.5 357.5,245.5C 356.833,246.167 356.167,246.833 355.5,247.5C 355.167,248.167 354.833,248.833 354.5,249.5C 354.5,250.833 354.5,252.167 354.5,253.5C 351.53,249.68 348.696,245.68 346,241.5C 345.204,238.961 345.371,236.628 346.5,234.5 Z"/></g>
<g><path style="opacity:1" fill="#fefffe" d="M 363.5,238.5 C 363.5,239.833 362.833,240.5 361.5,240.5C 361.5,239.167 362.167,238.5 363.5,238.5 Z"/></g>
<g><path style="opacity:1" fill="#00a1e8" d="M 317.5,239.5 C 317.328,240.492 317.662,241.158 318.5,241.5C 316.824,242.71 315.49,242.21 314.5,240C 315.448,239.517 316.448,239.351 317.5,239.5 Z"/></g>
<g><path style="opacity:1" fill="#000000" d="M 317.5,239.5 C 322.179,239.334 326.845,239.501 331.5,240C 326.981,240.175 322.647,240.675 318.5,241.5C 317.662,241.158 317.328,240.492 317.5,239.5 Z"/></g>
<g><path style="opacity:1" fill="#090c11" d="M 364.5,235.5 C 365.612,237.599 366.279,239.933 366.5,242.5C 365.167,242.5 363.833,242.5 362.5,242.5C 362.167,241.833 361.833,241.167 361.5,240.5C 362.833,240.5 363.5,239.833 363.5,238.5C 364.404,237.791 364.737,236.791 364.5,235.5 Z"/></g>
<g><path style="opacity:1" fill="#00a1e8" d="M 321.5,246.5 C 317.94,244.717 317.94,243.717 321.5,243.5C 321.5,244.5 321.5,245.5 321.5,246.5 Z"/></g>
<g><path style="opacity:1" fill="#23466a" d="M 367.5,243.5 C 368.479,246.625 368.813,249.958 368.5,253.5C 368.565,253.938 368.399,254.272 368,254.5C 364.888,251.899 362.388,248.899 360.5,245.5C 361.117,245.611 361.617,245.944 362,246.5C 363.264,244.393 365.097,243.393 367.5,243.5 Z"/></g>
<g><path style="opacity:1" fill="#fefffe" d="M 373.5,253.5 C 372.662,253.158 372.328,252.492 372.5,251.5C 376.168,249.761 376.501,247.428 373.5,244.5C 374.365,243.417 375.365,243.251 376.5,244C 376.182,246.042 376.015,248.209 376,250.5C 374.955,251.373 374.122,252.373 373.5,253.5 Z"/></g>
<g><path style="opacity:1" fill="#00a1e8" d="M 321.5,246.5 C 322.708,245.766 324.041,245.433 325.5,245.5C 325.5,246.833 325.5,248.167 325.5,249.5C 323.381,249.532 322.048,248.532 321.5,246.5 Z"/></g>
<g><path style="opacity:1" fill="#fefffe" d="M 355.5,247.5 C 357.912,247.694 358.912,249.027 358.5,251.5C 357.167,251.5 356.5,252.167 356.5,253.5C 355.833,252.167 355.167,250.833 354.5,249.5C 354.833,248.833 355.167,248.167 355.5,247.5 Z"/></g>
<g><path style="opacity:1" fill="#1c3047" d="M 357.5,245.5 C 360.516,248.52 363.183,251.854 365.5,255.5C 362.36,256.641 359.027,256.808 355.5,256C 354.748,255.329 354.414,254.496 354.5,253.5C 354.5,252.167 354.5,250.833 354.5,249.5C 355.167,250.833 355.833,252.167 356.5,253.5C 357.946,254.613 359.613,254.78 361.5,254C 360.627,252.955 359.627,252.122 358.5,251.5C 358.912,249.027 357.912,247.694 355.5,247.5C 356.167,246.833 356.833,246.167 357.5,245.5 Z"/></g>
<g><path style="opacity:1" fill="#7c5239" d="M 321.5,301.5 C 319.447,301.598 317.78,300.931 316.5,299.5C 316.167,298.833 315.833,298.167 315.5,297.5C 314.167,299.5 314.167,301.5 315.5,303.5C 319.386,311.691 322.053,320.358 323.5,329.5C 323.668,335.034 324.335,340.367 325.5,345.5C 325.66,347.199 325.494,348.866 325,350.5C 324.329,349.748 323.496,349.414 322.5,349.5C 321.017,347.906 319.517,346.24 318,344.5C 317.643,336.805 316.976,329.138 316,321.5C 312.434,312.134 309.267,302.634 306.5,293C 310.752,279.078 316.085,265.578 322.5,252.5C 326.38,251.205 330.214,251.205 334,252.5C 337.153,249.492 340.653,246.826 344.5,244.5C 348.498,248.489 351.498,253.156 353.5,258.5C 348.079,265.763 343.246,273.43 339,281.5C 338.489,283.878 337.822,286.212 337,288.5C 333.173,291.798 332.006,295.798 333.5,300.5C 329.555,301.491 325.555,301.824 321.5,301.5 Z"/></g>
<g><path style="opacity:1" fill="#000000" d="M 358.5,251.5 C 358.5,252.833 357.833,253.5 356.5,253.5C 356.5,252.167 357.167,251.5 358.5,251.5 Z"/></g>
<g><path style="opacity:1" fill="#fefffe" d="M 358.5,251.5 C 359.627,252.122 360.627,252.955 361.5,254C 359.613,254.78 357.946,254.613 356.5,253.5C 357.833,253.5 358.5,252.833 358.5,251.5 Z"/></g>
<g><path style="opacity:1" fill="#664832" d="M 380.5,280.5 C 376.502,283.636 372.502,286.47 368.5,289C 372.97,282.092 375.97,274.592 377.5,266.5C 374.589,263.7 371.589,261.033 368.5,258.5C 372.188,257.66 375.688,256.326 379,254.5C 380.339,263.107 380.839,271.774 380.5,280.5 Z"/></g>
<g><path style="opacity:1" fill="#664832" d="M 366.5,258.5 C 361.661,267.186 358.994,276.519 358.5,286.5C 355.272,279.926 353.439,272.926 353,265.5C 355.077,263.924 356.577,261.924 357.5,259.5C 360.428,258.516 363.428,258.183 366.5,258.5 Z"/></g>
<g><path style="opacity:1" fill="#85573c" d="M 366.5,258.5 C 367.167,258.5 367.833,258.5 368.5,258.5C 371.589,261.033 374.589,263.7 377.5,266.5C 375.97,274.592 372.97,282.092 368.5,289C 372.502,286.47 376.502,283.636 380.5,280.5C 382.087,283.919 382.753,287.585 382.5,291.5C 386.421,290.93 388.588,292.597 389,296.5C 390.667,298.167 392.333,299.833 394,301.5C 397.838,308.842 400.838,316.508 403,324.5C 404.417,325.078 405.25,326.078 405.5,327.5C 400.514,331.155 395.847,335.155 391.5,339.5C 390.542,339.047 389.708,338.381 389,337.5C 387.02,331.546 384.52,325.88 381.5,320.5C 385.638,320.054 389.305,318.554 392.5,316C 391.333,314.167 390.167,312.333 389,310.5C 382.58,308.449 376.08,306.449 369.5,304.5C 363.37,300.03 359.703,294.03 358.5,286.5C 358.994,276.519 361.661,267.186 366.5,258.5 Z"/></g>
<g><path style="opacity:1" fill="#573d2c" d="M 315.5,297.5 C 315.697,293.378 316.53,289.378 318,285.5C 318.333,286.5 318.667,287.5 319,288.5C 324.316,285.582 329.816,283.415 335.5,282C 329.844,286.496 323.844,290.496 317.5,294C 316.915,295.302 316.249,296.469 315.5,297.5 Z"/></g>
<g><path style="opacity:1" fill="#000000" d="M 315.5,297.5 C 315.833,298.167 316.167,298.833 316.5,299.5C 315.566,300.568 315.232,301.901 315.5,303.5C 314.167,301.5 314.167,299.5 315.5,297.5 Z"/></g>
<g><path style="opacity:1" fill="#87583c" d="M 316.5,299.5 C 317.78,300.931 319.447,301.598 321.5,301.5C 325.634,302.485 329.968,302.818 334.5,302.5C 335.088,308.606 336.254,314.606 338,320.5C 338.333,325.833 338.667,331.167 339,336.5C 339.695,338.722 340.528,340.889 341.5,343C 339.107,346.134 339.107,349.134 341.5,352C 339.19,352.497 336.857,352.663 334.5,352.5C 332.052,351.527 329.385,351.194 326.5,351.5C 326.795,349.265 326.461,347.265 325.5,345.5C 325.5,342.833 325.5,340.167 325.5,337.5C 329.379,339.075 333.379,339.908 337.5,340C 333.458,338.263 329.458,336.43 325.5,334.5C 324.83,332.709 324.163,331.042 323.5,329.5C 322.053,320.358 319.386,311.691 315.5,303.5C 315.232,301.901 315.566,300.568 316.5,299.5 Z"/></g>
<g><path style="opacity:1" fill="#664832" d="M 369.5,304.5 C 376.08,306.449 382.58,308.449 389,310.5C 390.167,312.333 391.333,314.167 392.5,316C 389.305,318.554 385.638,320.054 381.5,320.5C 377.016,315.533 373.016,310.2 369.5,304.5 Z"/></g>
<g><path style="opacity:1" fill="#593e2c" d="M 405.5,327.5 C 407.908,328.315 408.741,329.981 408,332.5C 402.844,335.237 398.511,338.904 395,343.5C 393.989,342.663 392.822,342.33 391.5,342.5C 391.5,341.5 391.5,340.5 391.5,339.5C 395.847,335.155 400.514,331.155 405.5,327.5 Z"/></g>
<g><path style="opacity:1" fill="#453124" d="M 323.5,329.5 C 324.163,331.042 324.83,332.709 325.5,334.5C 329.458,336.43 333.458,338.263 337.5,340C 333.379,339.908 329.379,339.075 325.5,337.5C 325.5,340.167 325.5,342.833 325.5,345.5C 324.335,340.367 323.668,335.034 323.5,329.5 Z"/></g>
<g><path style="opacity:1" fill="#272727" d="M 408.5,334.5 C 412.075,336.127 414.075,338.96 414.5,343C 412.689,345.978 410.356,348.478 407.5,350.5C 403.861,348.724 403.528,346.39 406.5,343.5C 406.167,343.167 405.833,342.833 405.5,342.5C 402.676,345.458 399.842,348.458 397,351.5C 396.727,349.899 396.227,348.399 395.5,347C 397.167,344.667 398.833,342.333 400.5,340C 403.407,338.391 406.073,336.558 408.5,334.5 Z"/></g>
<g><path style="opacity:1" fill="#4b3526" d="M 325.5,345.5 C 326.461,347.265 326.795,349.265 326.5,351.5C 329.385,351.194 332.052,351.527 334.5,352.5C 336.631,353.314 338.964,353.814 341.5,354C 333.647,354.726 325.98,353.893 318.5,351.5C 319.32,349.889 320.654,349.222 322.5,349.5C 323.496,349.414 324.329,349.748 325,350.5C 325.494,348.866 325.66,347.199 325.5,345.5 Z"/></g>
<g><path style="opacity:1" fill="#272827" d="M 317.5,354.5 C 325.769,355.88 334.102,356.546 342.5,356.5C 342.799,358.604 342.466,360.604 341.5,362.5C 331.239,367.608 321.906,366.442 313.5,359C 315.041,357.629 316.375,356.129 317.5,354.5 Z"/></g>
</svg>
