<?xml version="1.0" encoding="UTF-8"?>
<!DOCTYPE svg PUBLIC "-//W3C//DTD SVG 1.1//EN" "http://www.w3.org/Graphics/SVG/1.1/DTD/svg11.dtd">
<svg xmlns="http://www.w3.org/2000/svg" version="1.1" width="430px" height="400px" style="shape-rendering:geometricPrecision; text-rendering:geometricPrecision; image-rendering:optimizeQuality; fill-rule:evenodd; clip-rule:evenodd" xmlns:xlink="http://www.w3.org/1999/xlink">
<g><path style="opacity:1" fill="#fefffe" d="M 227.5,17.5 C 242.875,18.1461 248.208,25.4794 243.5,39.5C 242.675,43.1224 242.175,46.789 242,50.5C 240.89,52.0368 239.39,52.7035 237.5,52.5C 234.992,55.5879 233.492,59.2546 233,63.5C 229.509,64.9176 227.842,67.5842 228,71.5C 226.287,72.8782 224.953,74.5448 224,76.5C 223.501,80.1516 223.335,83.8183 223.5,87.5C 227.514,87.3345 231.514,87.5012 235.5,88C 237.015,89.7258 238.682,91.2258 240.5,92.5C 246.472,93.3303 252.472,93.8303 258.5,94C 265.395,96.2692 268.229,101.103 267,108.5C 267.5,109 268,109.5 268.5,110C 273.785,111.026 279.118,111.693 284.5,112C 287.167,113.333 289.833,114.667 292.5,116C 299.239,116.781 305.906,117.781 312.5,119C 314.378,120.543 315.878,122.376 317,124.5C 317.333,129.5 317.667,134.5 318,139.5C 320.023,142.52 322.69,144.854 326,146.5C 327.126,150.749 327.792,155.082 328,159.5C 333.42,166.667 338.087,174.333 342,182.5C 343,183.167 344,183.833 345,184.5C 346.132,192.445 345.132,200.111 342,207.5C 338.673,211.052 334.506,212.886 329.5,213C 326.616,216.845 322.783,218.345 318,217.5C 313.851,218.091 310.351,216.925 307.5,214C 300.594,214.532 294.427,212.699 289,208.5C 286.023,209.149 285.689,210.483 288,212.5C 288.167,216.167 288.333,219.833 288.5,223.5C 288.583,232.181 287.583,240.681 285.5,249C 287.317,250.8 288.484,252.966 289,255.5C 290.667,262.5 292.333,269.5 294,276.5C 300.915,284.901 304.915,294.568 306,305.5C 311.937,316.375 317.604,327.375 323,338.5C 325.743,340.788 328.577,342.955 331.5,345C 334.333,348.5 337.167,352 340,355.5C 340.974,361.187 340.474,366.687 338.5,372C 328.991,374.36 319.324,375.026 309.5,374C 304.546,369.25 303.212,363.584 305.5,357C 303.191,354.441 300.357,352.607 297,351.5C 293.193,343.081 289.193,334.747 285,326.5C 275.239,310.649 266.239,294.315 258,277.5C 254.523,269.983 249.523,268.649 243,273.5C 240.058,279.718 237.391,286.051 235,292.5C 234.667,298.167 234.333,303.833 234,309.5C 228.898,319.53 228.231,329.863 232,340.5C 237.168,344.469 241.168,349.469 244,355.5C 244.667,359.167 244.667,362.833 244,366.5C 243.535,367.931 242.701,369.097 241.5,370C 232.114,370.853 222.781,370.519 213.5,369C 210.273,364.759 208.773,359.926 209,354.5C 208,352.833 207,351.167 206,349.5C 203.901,323.091 204.401,296.758 207.5,270.5C 201.848,269.968 196.181,269.635 190.5,269.5C 190.335,271.827 189.669,273.993 188.5,276C 179.384,277.482 170.717,276.149 162.5,272C 161.029,269.757 160.029,267.257 159.5,264.5C 153.45,266.047 148.616,269.381 145,274.5C 142.038,282.301 139.705,290.301 138,298.5C 137.027,300.64 135.527,302.307 133.5,303.5C 133.002,306.593 132.002,309.426 130.5,312C 122.27,313.604 113.937,313.937 105.5,313C 103.722,310.865 103.055,308.365 103.5,305.5C 98.4889,305.666 93.4889,305.499 88.5,305C 84.9732,304.14 82.8066,301.973 82,298.5C 81.3333,293.833 81.3333,289.167 82,284.5C 82.5088,277.992 86.0088,275.159 92.5,276C 94.0905,274.954 95.5905,273.787 97,272.5C 97.5996,263.49 97.433,254.49 96.5,245.5C 95.9447,240.341 97.278,235.841 100.5,232C 104.486,231.501 108.486,231.334 112.5,231.5C 112.11,228.161 111.61,224.827 111,221.5C 105.371,229.097 97.8708,231.93 88.5,230C 86.9632,228.89 86.2965,227.39 86.5,225.5C 76.8886,227.277 70.0552,223.943 66,215.5C 61.1471,211.737 56.4804,207.737 52,203.5C 52.0133,199.876 50.6799,196.876 48,194.5C 47.3333,190.833 47.3333,187.167 48,183.5C 50.2426,182.863 52.5759,182.53 55,182.5C 63.4571,183.996 71.9571,184.829 80.5,185C 91.1273,179.736 101.794,174.402 112.5,169C 118.157,168.501 123.824,168.334 129.5,168.5C 129.336,165.813 129.503,163.146 130,160.5C 133.05,156.905 136.216,153.405 139.5,150C 146.398,148.719 152.732,146.052 158.5,142C 159.444,139.281 159.777,136.448 159.5,133.5C 153.689,133.217 148.022,132.051 142.5,130C 140.667,129.5 139.5,128.333 139,126.5C 138.333,122.167 138.333,117.833 139,113.5C 140.308,110.27 141.308,106.936 142,103.5C 143.11,101.963 144.61,101.297 146.5,101.5C 146.297,99.6096 146.963,98.1096 148.5,97C 152.167,96.6667 155.833,96.3333 159.5,96C 160.5,95 161.5,94 162.5,93C 165.5,92.6667 168.5,92.3333 171.5,92C 175.397,90.3035 179.397,88.9702 183.5,88C 182.584,87.6258 181.75,87.1258 181,86.5C 180.854,74.8041 181.521,63.1375 183,51.5C 184,50.5 185,49.5 186,48.5C 186.342,42.974 188.842,38.8073 193.5,36C 198.42,34.7497 203.42,34.2497 208.5,34.5C 207.739,26.2604 211.405,22.927 219.5,24.5C 219.33,23.1779 219.663,22.0113 220.5,21C 223.069,20.1016 225.402,18.935 227.5,17.5 Z M 221.5,131.5 C 224.001,131.511 224.168,132.178 222,133.5C 221.536,132.906 221.369,132.239 221.5,131.5 Z"/></g>
<g><path style="opacity:1" fill="#000000" d="M 227.5,20.5 C 238.699,20.1961 243.865,25.5294 243,36.5C 242.586,36.9574 242.086,37.2907 241.5,37.5C 240.675,41.1224 240.175,44.789 240,48.5C 238.89,50.0368 237.39,50.7035 235.5,50.5C 232.992,53.5879 231.492,57.2546 231,61.5C 227.509,62.9176 225.842,65.5842 226,69.5C 222.469,72.531 220.636,76.3643 220.5,81C 221.444,83.7191 221.777,86.5525 221.5,89.5C 225.514,89.3345 229.514,89.5012 233.5,90C 234.595,91.6753 236.095,92.842 238,93.5C 238.483,94.448 238.649,95.448 238.5,96.5C 246.344,94.7674 254.011,95.2674 261.5,98C 264.035,101.693 265.202,105.859 265,110.5C 265.5,111 266,111.5 266.5,112C 271.785,113.026 277.118,113.693 282.5,114C 285.167,115.333 287.833,116.667 290.5,118C 297.239,118.781 303.906,119.781 310.5,121C 312.378,122.543 313.878,124.376 315,126.5C 315.457,130.882 315.457,135.216 315,139.5C 316.667,143.833 319.667,146.833 324,148.5C 325.126,152.749 325.792,157.082 326,161.5C 331.42,168.667 336.087,176.333 340,184.5C 341,185.167 342,185.833 343,186.5C 344.16,195.038 341.993,202.538 336.5,209C 333.529,209.794 330.529,210.461 327.5,211C 321.779,216.562 315.779,216.895 309.5,212C 301.054,212.359 293.888,209.526 288,203.5C 287.144,206.188 285.31,207.854 282.5,208.5C 285.921,212.886 287.254,217.886 286.5,223.5C 286.323,232.105 285.323,240.605 283.5,249C 287.33,258.475 290.163,268.308 292,278.5C 298.915,286.901 302.915,296.568 304,307.5C 309.937,318.375 315.604,329.375 321,340.5C 323.743,342.788 326.577,344.955 329.5,347C 332.333,350.5 335.167,354 338,357.5C 338.886,361.866 338.386,366.033 336.5,370C 328.328,372.282 319.995,372.949 311.5,372C 309.641,370.442 308.141,368.609 307,366.5C 307.088,362.11 306.921,357.777 306.5,353.5C 304.063,352.074 301.563,350.741 299,349.5C 295.193,341.081 291.193,332.747 287,324.5C 277.239,308.649 268.239,292.315 260,275.5C 255.219,266.553 248.885,265.22 241,271.5C 238.058,277.718 235.391,284.051 233,290.5C 232.667,296.167 232.333,301.833 232,307.5C 226.831,318.874 226.164,330.541 230,342.5C 231.775,344.394 233.775,346.061 236,347.5C 237.271,350.433 238.938,353.099 241,355.5C 243.303,360.038 242.803,364.205 239.5,368C 231.445,368.822 223.445,368.488 215.5,367C 212.273,362.759 210.773,357.926 211,352.5C 210,350.833 209,349.167 208,347.5C 207.703,333.158 207.203,318.825 206.5,304.5C 207.633,292.506 208.633,280.506 209.5,268.5C 202.468,268.073 195.468,267.406 188.5,266.5C 189.274,272.47 186.774,275.137 181,274.5C 175.37,273.626 169.87,272.126 164.5,270C 163.223,267.079 161.89,264.245 160.5,261.5C 153.3,263.015 147.466,266.682 143,272.5C 140.038,280.301 137.705,288.301 136,296.5C 135.027,298.64 133.527,300.307 131.5,301.5C 130.686,303.766 130.186,306.1 130,308.5C 129.097,309.701 127.931,310.535 126.5,311C 120.167,311.667 113.833,311.667 107.5,311C 105.845,308.493 105.011,305.659 105,302.5C 85.4814,306.645 79.1481,299.312 86,280.5C 88.5074,278.845 91.3408,278.011 94.5,278C 96.0905,276.954 97.5905,275.787 99,274.5C 99.6939,264.819 99.5272,255.152 98.5,245.5C 98.3646,241.069 99.698,237.236 102.5,234C 107.202,233.828 111.868,233.328 116.5,232.5C 114.281,227.763 113.114,222.763 113,217.5C 112.667,216.833 112.333,216.167 112,215.5C 107.563,224.521 100.396,228.687 90.5,228C 89.1341,226.4 88.1341,224.567 87.5,222.5C 78.3071,224.983 71.8071,221.983 68,213.5C 63.1471,209.737 58.4804,205.737 54,201.5C 54.0133,197.876 52.6799,194.876 50,192.5C 49.3333,190.167 49.3333,187.833 50,185.5C 51.5691,184.878 53.2358,184.544 55,184.5C 64.0802,186.435 73.2469,187.268 82.5,187C 93.1273,181.736 103.794,176.402 114.5,171C 120.157,170.501 125.824,170.334 131.5,170.5C 131.336,167.813 131.503,165.146 132,162.5C 135.05,158.905 138.216,155.405 141.5,152C 148.647,150.677 155.147,147.844 161,143.5C 161.499,139.514 161.666,135.514 161.5,131.5C 155.689,131.217 150.022,130.051 144.5,128C 142.667,127.5 141.5,126.333 141,124.5C 140.333,121.5 140.333,118.5 141,115.5C 142.308,112.27 143.308,108.936 144,105.5C 145.11,103.963 146.61,103.297 148.5,103.5C 148.297,101.61 148.963,100.11 150.5,99C 153.76,98.2165 156.927,98.3832 160,99.5C 163.357,95.1051 167.857,93.2718 173.5,94C 177.803,92.3645 182.136,90.8645 186.5,89.5C 186.002,87.336 184.836,85.6694 183,84.5C 183.148,74.1568 183.815,63.8235 185,53.5C 186,52.5 187,51.5 188,50.5C 190.069,39.7816 196.569,35.2816 207.5,37C 208.416,37.3742 209.25,37.8742 210,38.5C 209.98,34.2383 211.147,30.405 213.5,27C 216.146,26.5026 218.813,26.3359 221.5,26.5C 221.351,25.448 221.517,24.448 222,23.5C 223.876,22.3913 225.709,21.3913 227.5,20.5 Z M 221.5,131.5 C 221.369,132.239 221.536,132.906 222,133.5C 224.168,132.178 224.001,131.511 221.5,131.5 Z"/></g>
<g><path style="opacity:1" fill="#e31921" d="M 231.5,26.5 C 234.245,27.7372 236.578,29.5705 238.5,32C 236.487,32.6797 235.154,34.013 234.5,36C 234.478,38.6064 234.812,41.273 235.5,44C 230.177,47 226.677,51.5 225,57.5C 222.018,59.1962 220.684,61.8629 221,65.5C 220.333,66.1667 219.667,66.8333 219,67.5C 219.777,58.1913 220.777,48.8579 222,39.5C 224.084,35.5924 225.918,31.5924 227.5,27.5C 228.716,28.0016 229.883,28.3349 231,28.5C 231.464,27.9056 231.631,27.2389 231.5,26.5 Z"/></g>
<g><path style="opacity:1" fill="#575857" d="M 217.5,31.5 C 218.5,31.5 219.5,31.5 220.5,31.5C 219.505,35.4877 218.505,39.4877 217.5,43.5C 215.976,42.4729 215.309,40.9729 215.5,39C 215.668,36.3351 216.335,33.8351 217.5,31.5 Z"/></g>
<g><path style="opacity:1" fill="#1d1d1d" d="M 190.5,76.5 C 190.557,77.609 190.89,78.609 191.5,79.5C 190.391,79.5569 189.391,79.8902 188.5,80.5C 187.957,80.44 187.624,80.1067 187.5,79.5C 188.624,74.715 189.958,70.0484 191.5,65.5C 188.433,61.338 188.933,57.6713 193,54.5C 193.517,46.2131 197.684,42.5464 205.5,43.5C 205.833,44.1667 206.167,44.8333 206.5,45.5C 202.777,48.613 200.944,52.613 201,57.5C 194.881,62.4057 191.381,68.739 190.5,76.5 Z"/></g>
<g><path style="opacity:1" fill="#e9b813" d="M 211.5,43.5 C 216.323,43.3272 218.323,45.6606 217.5,50.5C 216.5,50.5 215.5,50.5 214.5,50.5C 216.059,54.0775 215.225,57.0775 212,59.5C 212.128,61.445 211.962,63.2784 211.5,65C 210.5,65.6667 209.5,65.6667 208.5,65C 204.135,60.8182 202.968,55.9849 205,50.5C 207.372,48.2968 209.539,45.9635 211.5,43.5 Z"/></g>
<g><path style="opacity:1" fill="#c2c3c2" d="M 207.5,68.5 C 204.63,67.3664 201.63,66.6997 198.5,66.5C 198.082,65.7784 197.416,65.2784 196.5,65C 198.333,63.1667 200.167,61.3333 202,59.5C 203.467,62.2664 205.3,64.7664 207.5,67C 209.167,67.6667 210.833,67.6667 212.5,67C 213.18,63.7359 214.347,60.5692 216,57.5C 216.548,61.1704 217.048,64.8371 217.5,68.5C 214.167,68.5 210.833,68.5 207.5,68.5 Z"/></g>
<g><path style="opacity:1" fill="#1d1d1d" d="M 198.5,66.5 C 201.63,66.6997 204.63,67.3664 207.5,68.5C 210.641,69.3213 213.975,69.8213 217.5,70C 216.568,73.0854 215.901,76.2521 215.5,79.5C 207.703,79.9014 200.369,78.2348 193.5,74.5C 194.167,72.1667 194.833,69.8333 195.5,67.5C 196.325,66.6143 197.325,66.281 198.5,66.5 Z"/></g>
<g><path style="opacity:1" fill="#b28a00" d="M 190.5,76.5 C 191.833,76.5 193.167,76.5 194.5,76.5C 194.5,77.5 194.5,78.5 194.5,79.5C 193.5,79.5 192.5,79.5 191.5,79.5C 190.89,78.609 190.557,77.609 190.5,76.5 Z"/></g>
<g><path style="opacity:1" fill="#c2c3c2" d="M 195.5,77.5 C 201.706,80.9171 208.373,82.2504 215.5,81.5C 215.5,82.5 215.5,83.5 215.5,84.5C 208.527,85.4642 202.193,83.9642 196.5,80C 195.748,79.3292 195.414,78.4959 195.5,77.5 Z"/></g>
<g><path style="opacity:1" fill="#cd8b6e" d="M 191.5,79.5 C 191.5,82.1667 191.5,84.8333 191.5,87.5C 188.979,85.9696 187.979,83.6363 188.5,80.5C 189.391,79.8902 190.391,79.5569 191.5,79.5 Z"/></g>
<g><path style="opacity:1" fill="#b28a00" d="M 192.5,80.5 C 194.465,80.9483 194.798,81.9483 193.5,83.5C 192.614,82.675 192.281,81.675 192.5,80.5 Z"/></g>
<g><path style="opacity:1" fill="#ec9f7e" d="M 201.5,87.5 C 200.561,88.3274 200.895,88.9941 202.5,89.5C 204.923,87.8628 207.59,87.3628 210.5,88C 209.304,88.6543 209.304,89.1543 210.5,89.5C 211.167,88.8333 211.833,88.1667 212.5,87.5C 213.205,90.089 213.205,92.7557 212.5,95.5C 212.5,96.1667 212.167,96.5 211.5,96.5C 209.859,95.853 208.526,94.853 207.5,93.5C 207.66,91.8008 207.494,90.1341 207,88.5C 206.517,89.448 206.351,90.448 206.5,91.5C 201.906,92.3428 198.239,91.0094 195.5,87.5C 195.343,86.1266 195.51,84.7932 196,83.5C 197.812,84.9771 199.645,86.3104 201.5,87.5 Z"/></g>
<g><path style="opacity:1" fill="#b28a00" d="M 192.5,84.5 C 194.337,84.6395 194.67,85.3061 193.5,86.5C 192.702,86.0431 192.369,85.3764 192.5,84.5 Z"/></g>
<g><path style="opacity:1" fill="#b28a00" d="M 191.5,87.5 C 193.465,87.9483 193.798,88.9483 192.5,90.5C 191.614,89.675 191.281,88.675 191.5,87.5 Z"/></g>
<g><path style="opacity:1" fill="#ec9f7e" d="M 195.5,87.5 C 198.239,91.0094 201.906,92.3428 206.5,91.5C 206.351,90.448 206.517,89.448 207,88.5C 207.494,90.1341 207.66,91.8008 207.5,93.5C 206.545,95.7099 205.045,96.0432 203,94.5C 200.929,95.5248 198.762,96.3581 196.5,97C 199.144,98.5704 201.977,99.737 205,100.5C 206.939,100.046 208.772,99.379 210.5,98.5C 210.167,99.1667 209.833,99.8333 209.5,100.5C 204.836,103.449 200.503,103.116 196.5,99.5C 195.952,97.3736 195.285,95.3736 194.5,93.5C 194.205,91.2646 194.539,89.2646 195.5,87.5 Z"/></g>
<g><path style="opacity:1" fill="#fefffe" d="M 201.5,87.5 C 203.698,87.4088 204.031,88.0755 202.5,89.5C 200.895,88.9941 200.561,88.3274 201.5,87.5 Z"/></g>
<g><path style="opacity:1" fill="#b28a00" d="M 194.5,93.5 C 194.5,94.8333 193.833,95.5 192.5,95.5C 192.672,94.5084 192.338,93.8417 191.5,93.5C 191.369,92.6236 191.702,91.9569 192.5,91.5C 193.182,92.2427 193.849,92.9094 194.5,93.5 Z"/></g>
<g><path style="opacity:1" fill="#941514" d="M 191.5,93.5 C 192.338,93.8417 192.672,94.5084 192.5,95.5C 192.833,97.8333 194.167,99.1667 196.5,99.5C 200.503,103.116 204.836,103.449 209.5,100.5C 210.338,100.842 210.672,101.508 210.5,102.5C 206.873,106.76 202.54,107.593 197.5,105C 193.915,101.922 190.915,98.4219 188.5,94.5C 189.391,93.8902 190.391,93.5569 191.5,93.5 Z"/></g>
<g><path style="opacity:1" fill="#140f04" d="M 194.5,93.5 C 195.285,95.3736 195.952,97.3736 196.5,99.5C 194.167,99.1667 192.833,97.8333 192.5,95.5C 193.833,95.5 194.5,94.8333 194.5,93.5 Z"/></g>
<g><path style="opacity:1" fill="#fefffe" d="M 188.5,94.5 C 190.915,98.4219 193.915,101.922 197.5,105C 202.54,107.593 206.873,106.76 210.5,102.5C 209.431,106.643 206.765,108.643 202.5,108.5C 201.048,107.698 199.382,107.198 197.5,107C 195.297,104.628 192.963,102.461 190.5,100.5C 189.26,99.027 188.26,97.3604 187.5,95.5C 187.624,94.8933 187.957,94.56 188.5,94.5 Z"/></g>
<g><path style="opacity:1" fill="#fefffe" d="M 211.5,98.5 C 212.239,98.631 212.906,98.4643 213.5,98C 212.584,97.7216 211.918,97.2216 211.5,96.5C 212.167,96.5 212.5,96.1667 212.5,95.5C 214.274,94.119 215.774,94.4523 217,96.5C 215.198,110.781 209.531,123.448 200,134.5C 198.846,133.257 197.512,132.257 196,131.5C 199.992,122.778 204.992,114.445 211,106.5C 211.497,103.854 211.664,101.187 211.5,98.5 Z"/></g>
<g><path style="opacity:1" fill="#ec1c23" d="M 230.5,97.5 C 229.5,97.8333 228.833,98.5 228.5,99.5C 227.833,99.5 227.167,99.5 226.5,99.5C 225.833,98.1667 224.833,97.1667 223.5,96.5C 226.333,93.5362 228.666,93.8695 230.5,97.5 Z"/></g>
<g><path style="opacity:1" fill="#d2a516" d="M 185.5,98.5 C 184.486,99.6737 183.153,100.34 181.5,100.5C 180.078,100.25 179.078,99.417 178.5,98C 180.615,97.4427 182.615,96.6094 184.5,95.5C 185.386,96.325 185.719,97.325 185.5,98.5 Z"/></g>
<g><path style="opacity:1" fill="#47271b" d="M 207.5,93.5 C 208.526,94.853 209.859,95.853 211.5,96.5C 211.918,97.2216 212.584,97.7216 213.5,98C 212.906,98.4643 212.239,98.631 211.5,98.5C 211.167,98.5 210.833,98.5 210.5,98.5C 208.772,99.379 206.939,100.046 205,100.5C 201.977,99.737 199.144,98.5704 196.5,97C 198.762,96.3581 200.929,95.5248 203,94.5C 205.045,96.0432 206.545,95.7099 207.5,93.5 Z"/></g>
<g><path style="opacity:1" fill="#cfcfcf" d="M 223.5,96.5 C 224.833,97.1667 225.833,98.1667 226.5,99.5C 226.5,100.5 226.5,101.5 226.5,102.5C 224.833,101.167 223.167,99.8333 221.5,98.5C 221.5,97.1667 222.167,96.5 223.5,96.5 Z"/></g>
<g><path style="opacity:1" fill="#000000" d="M 230.5,97.5 C 230.5,98.8333 229.833,99.5 228.5,99.5C 228.833,98.5 229.5,97.8333 230.5,97.5 Z"/></g>
<g><path style="opacity:1" fill="#b0201d" d="M 230.5,97.5 C 231.5,97.5 232.5,97.5 233.5,97.5C 233.383,99.4835 234.05,101.15 235.5,102.5C 234.273,103.59 233.44,104.924 233,106.5C 231.701,106.034 230.201,106.034 228.5,106.5C 227.566,105.432 227.232,104.099 227.5,102.5C 227.557,101.391 227.89,100.391 228.5,99.5C 229.833,99.5 230.5,98.8333 230.5,97.5 Z"/></g>
<g><path style="opacity:1" fill="#d6a916" d="M 185.5,98.5 C 187.104,99.287 187.771,100.62 187.5,102.5C 186.486,103.674 185.153,104.34 183.5,104.5C 181.896,103.713 181.229,102.38 181.5,100.5C 183.153,100.34 184.486,99.6737 185.5,98.5 Z"/></g>
<g><path style="opacity:1" fill="#ec1c23" d="M 221.5,98.5 C 223.167,99.8333 224.833,101.167 226.5,102.5C 226.351,107.575 225.685,112.575 224.5,117.5C 222.473,117.662 220.473,117.495 218.5,117C 222.02,111.235 223.02,105.068 221.5,98.5 Z"/></g>
<g><path style="opacity:1" fill="#ec1c23" d="M 173.5,103.5 C 174.114,107.135 174.448,110.802 174.5,114.5C 173.833,115.167 173.167,115.833 172.5,116.5C 172.88,114.302 172.213,112.635 170.5,111.5C 169.5,109.833 168.167,108.5 166.5,107.5C 165.859,106.518 165.193,105.518 164.5,104.5C 167.294,98.5408 170.294,98.2074 173.5,103.5 Z"/></g>
<g><path style="opacity:1" fill="#9e9e9e" d="M 180.5,117.5 C 180.693,112.562 179.693,107.895 177.5,103.5C 176.159,98.9675 176.659,98.6341 179,102.5C 181.597,108.125 184.097,113.792 186.5,119.5C 184.063,120.926 181.563,122.259 179,123.5C 179.15,121.494 179.65,119.494 180.5,117.5 Z"/></g>
<g><path style="opacity:1" fill="#000000" d="M 226.5,99.5 C 227.167,99.5 227.833,99.5 228.5,99.5C 227.89,100.391 227.557,101.391 227.5,102.5C 227.167,102.5 226.833,102.5 226.5,102.5C 226.5,101.5 226.5,100.5 226.5,99.5 Z"/></g>
<g><path style="opacity:1" fill="#a0a0a0" d="M 190.5,100.5 C 192.963,102.461 195.297,104.628 197.5,107C 199.382,107.198 201.048,107.698 202.5,108.5C 200.801,111.196 198.467,113.196 195.5,114.5C 193.778,110.056 191.778,105.722 189.5,101.5C 189.624,100.893 189.957,100.56 190.5,100.5 Z"/></g>
<g><path style="opacity:1" fill="#3f47cc" d="M 245.5,100.5 C 250.155,100.117 254.488,101.117 258.5,103.5C 261.243,105.698 261.077,107.698 258,109.5C 257.348,107.277 255.848,106.11 253.5,106C 249.262,105.177 245.262,105.844 241.5,108C 240.663,109.011 240.33,110.178 240.5,111.5C 236.578,111.845 232.745,112.512 229,113.5C 228.506,111.866 228.34,110.199 228.5,108.5C 234.144,109.519 237.144,107.186 237.5,101.5C 240.385,101.806 243.052,101.473 245.5,100.5 Z"/></g>
<g><path style="opacity:1" fill="#641711" d="M 176.5,106.5 C 177.861,110.93 177.527,115.263 175.5,119.5C 174.075,121.031 173.409,120.698 173.5,118.5C 174.434,117.432 174.768,116.099 174.5,114.5C 174.448,110.802 174.114,107.135 173.5,103.5C 173.369,102.624 173.702,101.957 174.5,101.5C 175.17,103.291 175.837,104.958 176.5,106.5 Z"/></g>
<g><path style="opacity:1" fill="#d6a916" d="M 187.5,102.5 C 188.625,103.348 188.625,104.348 187.5,105.5C 187.158,106.338 186.492,106.672 185.5,106.5C 184.167,106.5 183.5,105.833 183.5,104.5C 185.153,104.34 186.486,103.674 187.5,102.5 Z"/></g>
<g><path style="opacity:1" fill="#fefffe" d="M 226.5,102.5 C 226.833,102.5 227.167,102.5 227.5,102.5C 227.232,104.099 227.566,105.432 228.5,106.5C 228.258,110.679 226.925,114.345 224.5,117.5C 225.685,112.575 226.351,107.575 226.5,102.5 Z"/></g>
<g><path style="opacity:1" fill="#e6e6e6" d="M 166.5,107.5 C 168.167,108.5 169.5,109.833 170.5,111.5C 170.5,112.167 170.167,112.5 169.5,112.5C 167.271,111.945 165.605,110.611 164.5,108.5C 158.781,105.36 153.615,106.027 149,110.5C 148.333,109.833 148.333,109.167 149,108.5C 151.185,107.072 153.185,105.405 155,103.5C 158.867,104.733 162.7,106.067 166.5,107.5 Z"/></g>
<g><path style="opacity:1" fill="#b60f16" d="M 177.5,103.5 C 179.693,107.895 180.693,112.562 180.5,117.5C 178.864,118.749 177.697,120.416 177,122.5C 175.961,121.756 175.461,120.756 175.5,119.5C 177.527,115.263 177.861,110.93 176.5,106.5C 176.263,105.209 176.596,104.209 177.5,103.5 Z"/></g>
<g><path style="opacity:1" fill="#b99218" d="M 187.5,105.5 C 188.833,105.5 189.5,106.167 189.5,107.5C 188.486,108.674 187.153,109.34 185.5,109.5C 184.375,108.652 184.375,107.652 185.5,106.5C 186.492,106.672 187.158,106.338 187.5,105.5 Z"/></g>
<g><path style="opacity:1" fill="#fec90d" d="M 218.5,105.5 C 220.656,105.872 220.656,106.872 218.5,108.5C 217.913,107.767 217.913,106.767 218.5,105.5 Z"/></g>
<g><path style="opacity:1" fill="#fec90d" d="M 157.5,107.5 C 161.272,110.227 165.272,112.727 169.5,115C 168.953,115.925 168.287,116.758 167.5,117.5C 165.958,116.253 164.458,116.253 163,117.5C 162.061,120.121 161.228,122.788 160.5,125.5C 159.833,125.833 159.167,126.167 158.5,126.5C 156.453,124.985 154.119,124.151 151.5,124C 155.903,122.611 158.403,119.778 159,115.5C 156.909,119.423 153.742,122.089 149.5,123.5C 148.692,123.192 148.025,122.692 147.5,122C 151.814,120.354 154.648,117.52 156,113.5C 153.364,117.387 149.864,119.553 145.5,120C 148.128,118.374 150.461,116.374 152.5,114C 150.613,113.837 149.113,114.671 148,116.5C 149.596,112.076 152.762,109.076 157.5,107.5 Z"/></g>
<g><path style="opacity:1" fill="#c79d17" d="M 189.5,107.5 C 190.625,108.348 190.625,109.348 189.5,110.5C 188.791,111.404 187.791,111.737 186.5,111.5C 185.662,111.158 185.328,110.492 185.5,109.5C 187.153,109.34 188.486,108.674 189.5,107.5 Z"/></g>
<g><path style="opacity:1" fill="#f8f8f8" d="M 247.5,107.5 C 251.455,106.921 254.455,108.254 256.5,111.5C 254.526,115.308 251.692,118.308 248,120.5C 246.213,127.128 245.213,126.794 245,119.5C 243.545,128.633 242.545,128.633 242,119.5C 240.545,128.633 239.545,128.633 239,119.5C 238.86,122.043 238.194,124.377 237,126.5C 235.806,118.453 239.306,114.286 247.5,114C 245.866,113.506 244.199,113.34 242.5,113.5C 242.238,112.022 242.571,110.689 243.5,109.5C 245.026,109.006 246.359,108.339 247.5,107.5 Z"/></g>
<g><path style="opacity:1" fill="#fec90d" d="M 216.5,109.5 C 218.355,109.272 219.188,109.939 219,111.5C 215.877,113.098 215.044,112.431 216.5,109.5 Z"/></g>
<g><path style="opacity:1" fill="#bd9518" d="M 189.5,110.5 C 190.833,110.5 191.5,111.167 191.5,112.5C 190.486,113.674 189.153,114.34 187.5,114.5C 186.596,113.791 186.263,112.791 186.5,111.5C 187.791,111.737 188.791,111.404 189.5,110.5 Z"/></g>
<g><path style="opacity:1" fill="#fefffe" d="M 203.5,110.5 C 204.043,110.56 204.376,110.893 204.5,111.5C 201.249,118.917 196.083,124.584 189,128.5C 186.75,127.292 184.583,125.959 182.5,124.5C 190.727,121.561 197.727,116.895 203.5,110.5 Z"/></g>
<g><path style="opacity:1" fill="#343695" d="M 170.5,111.5 C 172.213,112.635 172.88,114.302 172.5,116.5C 172.833,117.167 173.167,117.833 173.5,118.5C 172.85,118.804 172.183,119.137 171.5,119.5C 170.725,117.157 170.058,114.823 169.5,112.5C 170.167,112.5 170.5,112.167 170.5,111.5 Z"/></g>
<g><path style="opacity:1" fill="#ddae15" d="M 191.5,112.5 C 192.097,112.735 192.43,113.235 192.5,114C 191.944,115.011 191.278,115.844 190.5,116.5C 190.158,117.338 189.492,117.672 188.5,117.5C 187.596,116.791 187.263,115.791 187.5,114.5C 189.153,114.34 190.486,113.674 191.5,112.5 Z"/></g>
<g><path style="opacity:1" fill="#fec90d" d="M 214.5,113.5 C 215.675,113.281 216.675,113.614 217.5,114.5C 215.948,115.798 214.948,115.465 214.5,113.5 Z"/></g>
<g><path style="opacity:1" fill="#000000" d="M 174.5,114.5 C 174.768,116.099 174.434,117.432 173.5,118.5C 173.167,117.833 172.833,117.167 172.5,116.5C 173.167,115.833 173.833,115.167 174.5,114.5 Z"/></g>
<g><path style="opacity:1" fill="#fec90d" d="M 190.5,116.5 C 191.239,116.369 191.906,116.536 192.5,117C 191.421,117.956 190.255,118.789 189,119.5C 188.536,118.906 188.369,118.239 188.5,117.5C 189.492,117.672 190.158,117.338 190.5,116.5 Z"/></g>
<g><path style="opacity:1" fill="#fec90d" d="M 213.5,116.5 C 216.797,116.329 217.131,116.995 214.5,118.5C 213.702,118.043 213.369,117.376 213.5,116.5 Z"/></g>
<g><path style="opacity:1" fill="#1b1b1b" d="M 303.5,129.5 C 304.798,133.408 304.632,137.408 303,141.5C 300.833,143.464 298.499,143.798 296,142.5C 293.886,136.217 289.719,132.217 283.5,130.5C 284.08,134.649 283.414,138.316 281.5,141.5C 281.368,138.993 280.368,138.326 278.5,139.5C 277.054,138.06 275.221,137.393 273,137.5C 269.669,138.415 266.502,139.748 263.5,141.5C 262.414,141.38 261.747,140.713 261.5,139.5C 260.892,136.855 260.392,134.188 260,131.5C 259.727,129.671 258.893,128.171 257.5,127C 258.701,126.097 259.535,124.931 260,123.5C 261.733,125.602 263.733,125.935 266,124.5C 266.92,121.692 266.087,119.525 263.5,118C 267.933,118.022 272.266,118.855 276.5,120.5C 280.071,119.752 283.405,120.585 286.5,123C 293.116,123.005 298.782,125.172 303.5,129.5 Z"/></g>
<g><path style="opacity:1" fill="#bfbfbf" d="M 237.5,150.5 C 234.375,151.479 231.042,151.813 227.5,151.5C 225.901,151.768 224.568,151.434 223.5,150.5C 203.227,140.698 182.894,130.865 162.5,121C 162.998,119.842 163.831,119.009 165,118.5C 186.652,130.82 209.152,141.32 232.5,150C 234.134,150.494 235.801,150.66 237.5,150.5 Z"/></g>
<g><path style="opacity:1" fill="#870014" d="M 217.5,118.5 C 223.442,119.378 229.442,120.378 235.5,121.5C 235.5,122.5 235.5,123.5 235.5,124.5C 228.103,125.355 220.77,125.188 213.5,124C 212.833,123.333 212.167,122.667 211.5,122C 213.91,121.4 215.91,120.234 217.5,118.5 Z"/></g>
<g><path style="opacity:1" fill="#000000" d="M 218.5,119.5 C 222.167,119.164 225.5,119.997 228.5,122C 225.167,122.667 221.833,122.667 218.5,122C 217.402,121.23 217.402,120.397 218.5,119.5 Z"/></g>
<g><path style="opacity:1" fill="#870014" d="M 267.5,167.5 C 264.949,165.422 263.116,162.756 262,159.5C 259.892,149.849 257.892,140.183 256,130.5C 254.75,127.084 252.583,124.417 249.5,122.5C 249.833,121.5 250.5,120.833 251.5,120.5C 253.115,121.154 254.782,121.654 256.5,122C 252.721,123.11 252.554,124.61 256,126.5C 259.059,140.406 262.893,154.073 267.5,167.5 Z"/></g>
<g><path style="opacity:1" fill="#a3a4a3" d="M 209.5,123.5 C 211.315,124.63 213.315,125.296 215.5,125.5C 215.361,128.757 214.694,131.924 213.5,135C 213.685,137.402 214.185,139.569 215,141.5C 210.881,139.191 206.714,137.024 202.5,135C 205.484,131.527 207.817,127.694 209.5,123.5 Z"/></g>
<g><path style="opacity:1" fill="#b57755" d="M 168.5,155.5 C 167.609,154.89 166.609,154.557 165.5,154.5C 164.957,154.44 164.624,154.107 164.5,153.5C 165.141,144.529 165.808,135.529 166.5,126.5C 168.156,124.978 169.323,125.311 170,127.5C 170.518,134.61 171.685,141.61 173.5,148.5C 172.039,151.039 170.373,153.372 168.5,155.5 Z"/></g>
<g><path style="opacity:1" fill="#c2c3c2" d="M 193.5,126.5 C 194.239,126.369 194.906,126.536 195.5,127C 194.299,127.903 193.465,129.069 193,130.5C 191.413,129.154 191.58,127.821 193.5,126.5 Z"/></g>
<g><path style="opacity:1" fill="#fefffe" d="M 172.5,127.5 C 176.09,128.628 179.423,130.295 182.5,132.5C 175.31,137.823 171.976,136.156 172.5,127.5 Z"/></g>
<g><path style="opacity:1" fill="#fefffe" d="M 227.5,128.5 C 236.766,130.787 236.432,132.287 226.5,133C 221.515,140.293 219.182,139.126 219.5,129.5C 222.385,129.806 225.052,129.473 227.5,128.5 Z M 221.5,131.5 C 221.369,132.239 221.536,132.906 222,133.5C 224.168,132.178 224.001,131.511 221.5,131.5 Z"/></g>
<g><path style="opacity:1" fill="#1c1c1c" d="M 256.5,146.5 C 253.69,149.136 250.69,151.636 247.5,154C 248.056,154.383 248.389,154.883 248.5,155.5C 246.251,154.92 244.585,153.587 243.5,151.5C 242.71,150.599 241.71,149.932 240.5,149.5C 236.518,146.848 232.851,143.848 229.5,140.5C 229.414,139.504 229.748,138.671 230.5,138C 234.471,137.915 238.138,136.915 241.5,135C 242.167,133.667 242.833,132.333 243.5,131C 246.249,129.916 249.082,129.083 252,128.5C 253.735,129.682 254.735,131.349 255,133.5C 255.735,137.813 256.235,142.147 256.5,146.5 Z"/></g>
<g><path style="opacity:1" fill="#794e2b" d="M 306.5,141.5 C 300.483,145.601 294.317,149.601 288,153.5C 286.325,151.409 285.825,149.242 286.5,147C 285.667,146.167 284.833,145.333 284,144.5C 283.073,148.449 283.906,151.949 286.5,155C 283.917,158.068 281.584,161.235 279.5,164.5C 278.517,160.702 278.183,156.702 278.5,152.5C 278.517,148.466 279.517,144.799 281.5,141.5C 283.414,138.316 284.08,134.649 283.5,130.5C 289.719,132.217 293.886,136.217 296,142.5C 298.499,143.798 300.833,143.464 303,141.5C 304.632,137.408 304.798,133.408 303.5,129.5C 306.129,124.86 308.462,125.527 310.5,131.5C 308.594,134.64 307.26,137.973 306.5,141.5 Z"/></g>
<g><path style="opacity:1" fill="#b7b7b7" d="M 177.5,144.5 C 176.508,144.672 175.842,144.338 175.5,143.5C 175.123,141.742 174.456,140.075 173.5,138.5C 177.969,137.932 181.969,136.265 185.5,133.5C 186.5,134 187.5,134.5 188.5,135C 185.844,139.5 182.178,142.666 177.5,144.5 Z"/></g>
<g><path style="opacity:1" fill="#fefffe" d="M 189.5,136.5 C 192.016,136.755 194.35,137.589 196.5,139C 192.042,145.792 186.542,151.625 180,156.5C 179.424,160.488 178.091,164.155 176,167.5C 173.776,163.4 172.443,159.067 172,154.5C 178.735,149.266 184.569,143.266 189.5,136.5 Z"/></g>
<g><path style="opacity:1" fill="#89582f" d="M 278.5,139.5 C 277.317,145.938 276.317,152.271 275.5,158.5C 274.833,161.5 274.167,164.5 273.5,167.5C 272.29,167.068 271.29,166.401 270.5,165.5C 266.588,158.947 263.922,151.78 262.5,144C 262.743,143.098 263.077,142.265 263.5,141.5C 266.502,139.748 269.669,138.415 273,137.5C 275.221,137.393 277.054,138.06 278.5,139.5 Z"/></g>
<g><path style="opacity:1" fill="#800314" d="M 281.5,141.5 C 279.517,144.799 278.517,148.466 278.5,152.5C 277.349,157.65 277.183,162.984 278,168.5C 278.791,167.255 279.291,165.922 279.5,164.5C 281.584,161.235 283.917,158.068 286.5,155C 283.906,151.949 283.073,148.449 284,144.5C 284.833,145.333 285.667,146.167 286.5,147C 285.825,149.242 286.325,151.409 288,153.5C 294.317,149.601 300.483,145.601 306.5,141.5C 307.833,142.167 308.833,143.167 309.5,144.5C 302.899,147.468 296.566,150.968 290.5,155C 292.581,156.6 293.248,158.434 292.5,160.5C 292.027,161.906 291.027,162.573 289.5,162.5C 287.926,162.063 286.759,161.063 286,159.5C 284.833,161.833 283.667,164.167 282.5,166.5C 285.5,171.5 289.5,175.5 294.5,178.5C 294.833,178.167 295.167,177.833 295.5,177.5C 294.253,175.677 293.586,173.677 293.5,171.5C 294.5,169.833 295.833,168.5 297.5,167.5C 300.802,170.974 303.968,174.641 307,178.5C 308.439,180.275 309.439,182.275 310,184.5C 314.068,179.601 318.901,175.601 324.5,172.5C 326.587,173.585 327.92,175.251 328.5,177.5C 322.087,181.042 316.421,185.542 311.5,191C 313.72,193.255 316.053,195.422 318.5,197.5C 317.597,199.62 316.263,199.954 314.5,198.5C 313.242,195.636 311.242,194.97 308.5,196.5C 306.659,195.598 305.326,194.264 304.5,192.5C 304.511,190.983 305.177,189.816 306.5,189C 304.216,187.083 302.549,187.583 301.5,190.5C 299.273,189.599 298.273,187.933 298.5,185.5C 299.738,185.19 299.738,184.69 298.5,184C 291.135,180.567 285.302,175.4 281,168.5C 280.727,170.329 279.893,171.829 278.5,173C 282.67,178.336 287.337,183.17 292.5,187.5C 291.791,188.404 290.791,188.737 289.5,188.5C 289.622,192.147 291.288,194.981 294.5,197C 296.455,197.953 298.122,199.287 299.5,201C 301.804,201.895 304.138,202.729 306.5,203.5C 305.855,204.646 305.022,205.646 304,206.5C 298.896,203.727 294.063,200.56 289.5,197C 287.926,195.174 287.093,193.007 287,190.5C 280.69,184.522 274.69,178.188 269,171.5C 268.209,170.255 267.709,168.922 267.5,167.5C 271.812,172.146 276.145,176.813 280.5,181.5C 281.521,180.998 281.688,180.332 281,179.5C 277.353,175.018 273.519,170.685 269.5,166.5C 269.624,165.893 269.957,165.56 270.5,165.5C 271.29,166.401 272.29,167.068 273.5,167.5C 273.783,168.289 274.283,168.956 275,169.5C 275.499,165.848 275.665,162.182 275.5,158.5C 276.317,152.271 277.317,145.938 278.5,139.5C 280.368,138.326 281.368,138.993 281.5,141.5 Z"/></g>
<g><path style="opacity:1" fill="#382516" d="M 284.5,136.5 C 289.21,138.371 292.876,141.537 295.5,146C 293.941,147.756 292.274,147.756 290.5,146C 287.853,143.199 285.853,140.032 284.5,136.5 Z"/></g>
<g><path style="opacity:1" fill="#870014" d="M 229.5,140.5 C 232.851,143.848 236.518,146.848 240.5,149.5C 239.791,150.404 238.791,150.737 237.5,150.5C 234.393,147.919 231.059,145.419 227.5,143C 228.066,142.005 228.733,141.172 229.5,140.5 Z"/></g>
<g><path style="opacity:1" fill="#ec1c23" d="M 175.5,143.5 C 175.842,144.338 176.508,144.672 177.5,144.5C 179.887,146.658 179.22,147.492 175.5,147C 174.209,145.708 174.209,144.542 175.5,143.5 Z"/></g>
<g><path style="opacity:1" fill="#a8a8a8" d="M 194.5,152.5 C 192.901,152.768 191.568,152.434 190.5,151.5C 192.357,147.141 195.19,143.474 199,140.5C 202.721,141.943 206.221,143.777 209.5,146C 207.69,148.644 205.69,151.144 203.5,153.5C 200.579,152.593 197.579,152.26 194.5,152.5 Z"/></g>
<g><path style="opacity:1" fill="#82532d" d="M 309.5,144.5 C 311.167,145.5 312.5,146.833 313.5,148.5C 311.402,147.037 309.402,147.204 307.5,149C 311.299,151.797 314.799,154.964 318,158.5C 318.048,155.587 317.215,152.921 315.5,150.5C 316.721,151.028 317.887,151.695 319,152.5C 320.126,156.749 320.792,161.082 321,165.5C 322.193,167.886 323.36,170.22 324.5,172.5C 318.901,175.601 314.068,179.601 310,184.5C 309.439,182.275 308.439,180.275 307,178.5C 303.968,174.641 300.802,170.974 297.5,167.5C 296.544,164.561 294.877,162.228 292.5,160.5C 293.248,158.434 292.581,156.6 290.5,155C 296.566,150.968 302.899,147.468 309.5,144.5 Z"/></g>
<g><path style="opacity:1" fill="#f6f1d6" d="M 223.5,150.5 C 224.568,151.434 225.901,151.768 227.5,151.5C 227.309,155.074 226.309,158.407 224.5,161.5C 216.192,164.373 208.525,168.373 201.5,173.5C 201.117,163.172 204.617,154.172 212,146.5C 215.181,149.672 219.014,151.006 223.5,150.5 Z"/></g>
<g><path style="opacity:1" fill="#85502c" d="M 256.5,146.5 C 257.677,152.19 259.344,157.856 261.5,163.5C 260.429,165.325 261.096,166.492 263.5,167C 260.399,167.619 258.399,166.452 257.5,163.5C 254.5,160.833 251.5,158.167 248.5,155.5C 248.389,154.883 248.056,154.383 247.5,154C 250.69,151.636 253.69,149.136 256.5,146.5 Z"/></g>
<g><path style="opacity:1" fill="#fefffe" d="M 313.5,148.5 C 313.833,149.5 314.5,150.167 315.5,150.5C 317.215,152.921 318.048,155.587 318,158.5C 314.799,154.964 311.299,151.797 307.5,149C 309.402,147.204 311.402,147.037 313.5,148.5 Z"/></g>
<g><path style="opacity:1" fill="#a91216" d="M 159.5,155.5 C 158.508,155.672 157.842,155.338 157.5,154.5C 158.439,151.759 160.273,149.759 163,148.5C 163.334,150.847 163.167,153.181 162.5,155.5C 161.5,155.5 160.5,155.5 159.5,155.5 Z"/></g>
<g><path style="opacity:1" fill="#ec1c23" d="M 190.5,151.5 C 191.568,152.434 192.901,152.768 194.5,152.5C 196.833,153.167 199.167,153.833 201.5,154.5C 196.336,156.141 191.336,155.808 186.5,153.5C 187.514,152.326 188.847,151.66 190.5,151.5 Z"/></g>
<g><path style="opacity:1" fill="#870014" d="M 243.5,151.5 C 244.585,153.587 246.251,154.92 248.5,155.5C 251.5,158.167 254.5,160.833 257.5,163.5C 250.865,160.706 244.865,156.873 239.5,152C 240.793,151.51 242.127,151.343 243.5,151.5 Z"/></g>
<g><path style="opacity:1" fill="#1c1c1c" d="M 242.5,158.5 C 241.618,160.384 240.118,161.717 238,162.5C 237.517,163.448 237.351,164.448 237.5,165.5C 235.46,167.177 233.46,168.844 231.5,170.5C 231.5,169.833 231.5,169.167 231.5,168.5C 230.048,167.698 228.382,167.198 226.5,167C 228.911,166.144 230.244,164.477 230.5,162C 228.928,159.081 228.261,155.915 228.5,152.5C 234.806,151.317 239.472,153.317 242.5,158.5 Z"/></g>
<g><path style="opacity:1" fill="#000000" d="M 278.5,152.5 C 278.183,156.702 278.517,160.702 279.5,164.5C 279.291,165.922 278.791,167.255 278,168.5C 277.183,162.984 277.349,157.65 278.5,152.5 Z"/></g>
<g><path style="opacity:1" fill="#dbd1a2" d="M 186.5,153.5 C 191.336,155.808 196.336,156.141 201.5,154.5C 202.239,154.369 202.906,154.536 203.5,155C 202.378,158.07 200.712,160.737 198.5,163C 200.715,164.391 200.715,166.057 198.5,168C 198.957,168.414 199.291,168.914 199.5,169.5C 198.598,176.452 197.931,183.452 197.5,190.5C 197.461,192.952 196.794,194.952 195.5,196.5C 190.58,194.557 185.58,194.224 180.5,195.5C 178.941,192.132 178.108,188.465 178,184.5C 177.333,179.5 177.333,174.5 178,169.5C 179.947,165.716 181.28,161.716 182,157.5C 183.371,155.959 184.871,154.625 186.5,153.5 Z"/></g>
<g><path style="opacity:1" fill="#000000" d="M 300.5,157.5 C 302.927,157.523 305.26,158.023 307.5,159C 310.167,161 310.167,163 307.5,165C 303.181,166.46 300.181,165.126 298.5,161C 298.978,159.697 299.645,158.531 300.5,157.5 Z"/></g>
<g><path style="opacity:1" fill="#861614" d="M 150.5,158.5 C 152.854,158.838 155.187,159.338 157.5,160C 156.167,160.333 154.833,160.667 153.5,161C 150.59,165.926 146.923,166.76 142.5,163.5C 141.119,161.726 141.452,160.226 143.5,159C 145.81,158.503 148.143,158.337 150.5,158.5 Z"/></g>
<g><path style="opacity:1" fill="#945f32" d="M 242.5,158.5 C 249.806,162.488 257.14,166.488 264.5,170.5C 261.912,173.988 259.078,177.321 256,180.5C 254.314,183.088 254.147,185.755 255.5,188.5C 252.898,194.053 249.564,199.053 245.5,203.5C 243.863,197.392 241.529,191.558 238.5,186C 238.735,185.127 239.069,184.293 239.5,183.5C 238.227,179.937 236.894,176.437 235.5,173C 236.479,170.567 237.145,168.067 237.5,165.5C 237.351,164.448 237.517,163.448 238,162.5C 240.118,161.717 241.618,160.384 242.5,158.5 Z"/></g>
<g><path style="opacity:1" fill="#000000" d="M 275.5,158.5 C 275.665,162.182 275.499,165.848 275,169.5C 274.283,168.956 273.783,168.289 273.5,167.5C 274.167,164.5 274.833,161.5 275.5,158.5 Z"/></g>
<g><path style="opacity:1" fill="#fdfdfd" d="M 157.5,154.5 C 157.842,155.338 158.508,155.672 159.5,155.5C 160.391,156.261 161.058,157.261 161.5,158.5C 160.733,160.357 159.733,162.024 158.5,163.5C 156.438,165.564 154.105,167.231 151.5,168.5C 147.556,167.444 143.556,166.777 139.5,166.5C 138.506,164.146 139.506,163.146 142.5,163.5C 146.923,166.76 150.59,165.926 153.5,161C 154.833,160.667 156.167,160.333 157.5,160C 155.187,159.338 152.854,158.838 150.5,158.5C 149.048,157.698 147.382,157.198 145.5,157C 149.594,156.443 153.594,155.61 157.5,154.5 Z"/></g>
<g><path style="opacity:1" fill="#870014" d="M 227.5,160.5 C 228.097,160.735 228.43,161.235 228.5,162C 221.547,166.481 214.213,170.481 206.5,174C 204.04,175.458 201.873,177.291 200,179.5C 200.195,177.255 201.362,175.422 203.5,174C 210.208,170.095 217.208,166.762 224.5,164C 226.063,163.241 227.063,162.074 227.5,160.5 Z"/></g>
<g><path style="opacity:1" fill="#52361f" d="M 289.5,162.5 C 288.615,164.673 289.282,166.506 291.5,168C 290.646,169.785 291.313,170.951 293.5,171.5C 293.586,173.677 294.253,175.677 295.5,177.5C 295.167,177.833 294.833,178.167 294.5,178.5C 289.5,175.5 285.5,171.5 282.5,166.5C 283.667,164.167 284.833,161.833 286,159.5C 286.759,161.063 287.926,162.063 289.5,162.5 Z"/></g>
<g><path style="opacity:1" fill="#fefffe" d="M 306.5,161.5 C 307.773,162.077 307.773,162.743 306.5,163.5C 305.537,163.03 305.537,162.363 306.5,161.5 Z"/></g>
<g><path style="opacity:1" fill="#313184" d="M 159.5,166.5 C 157.091,167.701 155.091,169.367 153.5,171.5C 153.167,171.5 152.833,171.5 152.5,171.5C 149.615,171.806 146.948,171.473 144.5,170.5C 142.369,169.686 140.036,169.186 137.5,169C 136.391,167.187 137.058,166.354 139.5,166.5C 143.556,166.777 147.556,167.444 151.5,168.5C 154.105,167.231 156.438,165.564 158.5,163.5C 160.783,162.924 161.117,163.924 159.5,166.5 Z"/></g>
<g><path style="opacity:1" fill="#222882" d="M 171.5,163.5 C 176.985,170.169 176.819,176.836 171,183.5C 171.377,176.893 171.544,170.226 171.5,163.5 Z"/></g>
<g><path style="opacity:1" fill="#afafaf" d="M 292.5,160.5 C 294.877,162.228 296.544,164.561 297.5,167.5C 295.833,168.5 294.5,169.833 293.5,171.5C 291.313,170.951 290.646,169.785 291.5,168C 289.282,166.506 288.615,164.673 289.5,162.5C 291.027,162.573 292.027,161.906 292.5,160.5 Z"/></g>
<g><path style="opacity:1" fill="#b9b9b9" d="M 165.5,154.5 C 166.609,154.557 167.609,154.89 168.5,155.5C 170.753,158.57 170.753,161.737 168.5,165C 169.078,175.423 169.078,185.923 168.5,196.5C 167.167,196.5 165.833,196.5 164.5,196.5C 164.666,188.16 164.5,179.827 164,171.5C 163.308,170.975 162.808,170.308 162.5,169.5C 169.073,168.362 169.073,167.528 162.5,167C 167.794,166.182 167.794,165.682 162.5,165.5C 162.726,161.593 163.726,157.926 165.5,154.5 Z"/></g>
<g><path style="opacity:1" fill="#21277a" d="M 159.5,166.5 C 162.416,173.714 163.249,181.381 162,189.5C 158.703,183.804 155.869,177.804 153.5,171.5C 155.091,169.367 157.091,167.701 159.5,166.5 Z"/></g>
<g><path style="opacity:1" fill="#f6f1d6" d="M 223.5,167.5 C 227.399,177.431 229.899,187.764 231,198.5C 223.59,204.454 216.09,210.287 208.5,216C 204.099,218.522 199.432,220.356 194.5,221.5C 192.066,217.281 192.566,213.281 196,209.5C 198.272,199.848 200.272,190.181 202,180.5C 203.558,178.641 205.391,177.141 207.5,176C 213.053,173.392 218.387,170.559 223.5,167.5 Z"/></g>
<g><path style="opacity:1" fill="#ec1c23" d="M 231.5,168.5 C 231.5,169.167 231.5,169.833 231.5,170.5C 230.5,170.833 229.833,171.5 229.5,172.5C 227.824,171.817 227.157,170.483 227.5,168.5C 228.833,168.5 230.167,168.5 231.5,168.5 Z"/></g>
<g><path style="opacity:1" fill="#fefffe" d="M 144.5,170.5 C 146.948,171.473 149.615,171.806 152.5,171.5C 153.332,175.83 154.665,179.996 156.5,184C 150.59,183.348 144.59,182.848 138.5,182.5C 138.232,180.901 138.566,179.568 139.5,178.5C 139.833,179.5 140.5,180.167 141.5,180.5C 145.019,181.808 148.685,181.808 152.5,180.5C 152.376,179.893 152.043,179.56 151.5,179.5C 151.008,177.181 150.008,175.181 148.5,173.5C 145.359,172.679 142.025,172.179 138.5,172C 138.167,171.667 137.833,171.333 137.5,171C 139.81,170.503 142.143,170.337 144.5,170.5 Z"/></g>
<g><path style="opacity:1" fill="#664223" d="M 237.5,165.5 C 237.145,168.067 236.479,170.567 235.5,173C 236.894,176.437 238.227,179.937 239.5,183.5C 239.069,184.293 238.735,185.127 238.5,186C 241.529,191.558 243.863,197.392 245.5,203.5C 249.564,199.053 252.898,194.053 255.5,188.5C 254.147,185.755 254.314,183.088 256,180.5C 259.078,177.321 261.912,173.988 264.5,170.5C 267.851,172.854 270.518,175.854 272.5,179.5C 270.537,180.96 268.704,182.627 267,184.5C 264.165,188.419 261.499,192.419 259,196.5C 258.564,198.847 258.064,201.181 257.5,203.5C 258.422,209.222 259.255,214.889 260,220.5C 253.502,209.947 244.336,206.114 232.5,209C 231.941,209.725 231.608,210.558 231.5,211.5C 232.187,213.177 232.854,214.844 233.5,216.5C 229.834,214.496 226.834,211.829 224.5,208.5C 226.639,207.842 228.639,206.842 230.5,205.5C 232.167,205.5 233.833,205.5 235.5,205.5C 235.768,203.901 235.434,202.568 234.5,201.5C 233.833,201.5 233.5,201.167 233.5,200.5C 234.167,199.833 234.833,199.167 235.5,198.5C 235.953,197.542 236.619,196.708 237.5,196C 236.167,195 234.833,194 233.5,193C 235.019,191.649 236.352,190.149 237.5,188.5C 231.824,187.494 231.157,185.16 235.5,181.5C 229.481,180.362 229.148,178.529 234.5,176C 232.825,175.015 231.158,174.181 229.5,173.5C 229.5,173.167 229.5,172.833 229.5,172.5C 229.833,171.5 230.5,170.833 231.5,170.5C 233.46,168.844 235.46,167.177 237.5,165.5 Z"/></g>
<g><path style="opacity:1" fill="#49301b" d="M 298.5,185.5 C 296.886,187.075 294.886,187.741 292.5,187.5C 287.337,183.17 282.67,178.336 278.5,173C 279.893,171.829 280.727,170.329 281,168.5C 285.302,175.4 291.135,180.567 298.5,184C 299.738,184.69 299.738,185.19 298.5,185.5 Z"/></g>
<g><path style="opacity:1" fill="#3a3fb1" d="M 148.5,173.5 C 150.008,175.181 151.008,177.181 151.5,179.5C 148.375,180.479 145.042,180.813 141.5,180.5C 140.5,180.167 139.833,179.5 139.5,178.5C 139.714,176.856 139.38,175.356 138.5,174C 141.817,173.502 145.15,173.335 148.5,173.5 Z"/></g>
<g><path style="opacity:1" fill="#ec1c23" d="M 229.5,173.5 C 231.158,174.181 232.825,175.015 234.5,176C 229.148,178.529 229.481,180.362 235.5,181.5C 231.157,185.16 231.824,187.494 237.5,188.5C 236.352,190.149 235.019,191.649 233.5,193C 234.833,194 236.167,195 237.5,196C 236.619,196.708 235.953,197.542 235.5,198.5C 233.955,197.77 233.122,196.437 233,194.5C 231.882,187.91 230.382,181.41 228.5,175C 228.57,174.235 228.903,173.735 229.5,173.5 Z"/></g>
<g><path style="opacity:1" fill="#fefffe" d="M 141.5,175.5 C 142.919,174.549 144.585,174.216 146.5,174.5C 146.716,176.681 145.883,178.347 144,179.5C 143.493,178.004 143.993,176.837 145.5,176C 144.207,175.51 142.873,175.343 141.5,175.5 Z"/></g>
<g><path style="opacity:1" fill="#1d1e1d" d="M 118.5,175.5 C 123.739,174.756 128.406,175.922 132.5,179C 123.246,185.752 116.913,194.585 113.5,205.5C 108.59,209.821 104.257,214.654 100.5,220C 99.1279,220.402 97.7946,220.902 96.5,221.5C 97.3887,218.171 97.3887,214.671 96.5,211C 95.5,210.333 94.5,210.333 93.5,211C 90.1444,214.521 86.1444,217.021 81.5,218.5C 79.9991,217.248 78.3325,216.248 76.5,215.5C 75.5328,213.37 74.3662,211.37 73,209.5C 68.5,205.667 64,201.833 59.5,198C 60.5171,196.951 60.6838,195.784 60,194.5C 58.8333,193.333 57.6667,192.167 56.5,191C 66.4189,192.217 76.4189,192.55 86.5,192C 89.9927,191.058 93.326,189.725 96.5,188C 103.733,183.553 111.067,179.386 118.5,175.5 Z"/></g>
<g><path style="opacity:1" fill="#654122" d="M 328.5,177.5 C 330.64,181.103 332.807,184.77 335,188.5C 335.903,189.701 337.069,190.535 338.5,191C 337.91,192.509 337.244,194.009 336.5,195.5C 333.624,192.92 330.79,192.92 328,195.5C 328.251,198.831 329.751,201.664 332.5,204C 329.497,205.31 326.497,205.476 323.5,204.5C 321.566,202.276 319.899,199.942 318.5,197.5C 316.053,195.422 313.72,193.255 311.5,191C 316.421,185.542 322.087,181.042 328.5,177.5 Z"/></g>
<g><path style="opacity:1" fill="#c2c3c2" d="M 302.5,178.5 C 304.337,178.639 304.67,179.306 303.5,180.5C 302.702,180.043 302.369,179.376 302.5,178.5 Z"/></g>
<g><path style="opacity:1" fill="#945f32" d="M 135.5,225.5 C 136.758,229.762 137.258,234.096 137,238.5C 135.649,240.019 134.149,241.352 132.5,242.5C 128.435,238.441 124.768,234.107 121.5,229.5C 117.945,220.062 117.112,210.396 119,200.5C 123.186,191.978 129.186,184.978 137,179.5C 133.759,188.134 131.592,197.134 130.5,206.5C 130.842,212.573 131.676,218.573 133,224.5C 133.671,225.252 134.504,225.586 135.5,225.5 Z"/></g>
<g><path style="opacity:1" fill="#000000" d="M 151.5,179.5 C 152.043,179.56 152.376,179.893 152.5,180.5C 148.685,181.808 145.019,181.808 141.5,180.5C 145.042,180.813 148.375,180.479 151.5,179.5 Z"/></g>
<g><path style="opacity:1" fill="#945f32" d="M 272.5,179.5 C 276.199,181.88 278.866,185.214 280.5,189.5C 277.658,195.03 275.658,200.863 274.5,207C 276.367,210.565 278.367,214.065 280.5,217.5C 271.439,226.598 260.772,229.098 248.5,225C 243.113,222.646 238.113,219.812 233.5,216.5C 232.854,214.844 232.187,213.177 231.5,211.5C 231.608,210.558 231.941,209.725 232.5,209C 244.336,206.114 253.502,209.947 260,220.5C 259.255,214.889 258.422,209.222 257.5,203.5C 258.064,201.181 258.564,198.847 259,196.5C 261.499,192.419 264.165,188.419 267,184.5C 268.704,182.627 270.537,180.96 272.5,179.5 Z"/></g>
<g><path style="opacity:1" fill="#fefffe" d="M 174.5,181.5 C 175.942,185.775 176.942,190.275 177.5,195C 175.9,199.989 174.733,205.156 174,210.5C 172.772,214.059 171.106,217.392 169,220.5C 169.497,209.522 170.164,198.522 171,187.5C 172.442,185.609 173.609,183.609 174.5,181.5 Z"/></g>
<g><path style="opacity:1" fill="#fefffe" d="M 140.5,186.5 C 138.254,188.649 136.754,191.316 136,194.5C 135.333,202.5 135.333,210.5 136,218.5C 143.009,220.356 150.176,221.356 157.5,221.5C 158.919,222.451 160.585,222.784 162.5,222.5C 162.915,224.948 161.915,226.281 159.5,226.5C 151.19,225.28 142.857,224.28 134.5,223.5C 130.64,209.426 132.306,196.092 139.5,183.5C 140.386,184.325 140.719,185.325 140.5,186.5 Z"/></g>
<g><path style="opacity:1" fill="#3c43bc" d="M 157.5,221.5 C 150.176,221.356 143.009,220.356 136,218.5C 135.333,210.5 135.333,202.5 136,194.5C 136.754,191.316 138.254,188.649 140.5,186.5C 141.261,185.609 142.261,184.942 143.5,184.5C 148.81,185.386 154.143,186.053 159.5,186.5C 159.178,188.722 159.845,190.556 161.5,192C 155.551,197.793 153.885,204.459 156.5,212C 161.96,212.842 163.96,216.008 162.5,221.5C 160.833,221.5 159.167,221.5 157.5,221.5 Z"/></g>
<g><path style="opacity:1" fill="#c2c3c2" d="M 304.5,192.5 C 302.632,193.674 301.632,193.007 301.5,190.5C 302.549,187.583 304.216,187.083 306.5,189C 305.177,189.816 304.511,190.983 304.5,192.5 Z"/></g>
<g><path style="opacity:1" fill="#ec1c23" d="M 161.5,194.5 C 163.085,200.066 163.585,206.066 163,212.5C 161.352,211.283 159.519,210.45 157.5,210C 156.701,204.366 158.034,199.199 161.5,194.5 Z"/></g>
<g><path style="opacity:1" fill="#eee4af" d="M 195.5,196.5 C 195.611,197.117 195.944,197.617 196.5,198C 190.571,201.212 185.237,200.378 180.5,195.5C 185.58,194.224 190.58,194.557 195.5,196.5 Z"/></g>
<g><path style="opacity:1" fill="#b4b4b4" d="M 314.5,198.5 C 313.962,200.117 313.629,201.784 313.5,203.5C 311.922,202.934 310.588,201.934 309.5,200.5C 310.025,199.808 310.692,199.308 311.5,199C 310.058,198.623 309.058,197.79 308.5,196.5C 311.242,194.97 313.242,195.636 314.5,198.5 Z"/></g>
<g><path style="opacity:1" fill="#fec90d" d="M 166.5,201.5 C 162.484,198.84 163.151,197.507 168.5,197.5C 168.843,199.483 168.176,200.817 166.5,201.5 Z"/></g>
<g><path style="opacity:1" fill="#1d1d1d" d="M 177.5,198.5 C 180.911,199.36 184.244,200.526 187.5,202C 190.332,202.212 192.998,202.379 195.5,202.5C 190.824,216.361 185.658,230.028 180,243.5C 178.16,242.167 177.66,242.334 178.5,244C 177.377,245.044 176.044,245.71 174.5,246C 174.833,246.333 175.167,246.667 175.5,247C 172.763,248.614 170.597,250.781 169,253.5C 168.1,247.366 168.6,241.366 170.5,235.5C 169.389,234.389 168.722,233.055 168.5,231.5C 169.641,228.245 170.474,224.911 171,221.5C 175.808,214.605 177.975,206.938 177.5,198.5 Z"/></g>
<g><path style="opacity:1" fill="#ec1c23" d="M 233.5,200.5 C 233.5,201.167 233.833,201.5 234.5,201.5C 234.5,202.5 234.5,203.5 234.5,204.5C 232.901,204.232 231.568,204.566 230.5,205.5C 228.639,206.842 226.639,207.842 224.5,208.5C 223.566,209.568 223.232,210.901 223.5,212.5C 221.833,212.5 220.167,212.5 218.5,212.5C 222.579,207.301 227.579,203.301 233.5,200.5 Z"/></g>
<g><path style="opacity:1" fill="#c2c3c2" d="M 166.5,201.5 C 167.566,209.151 167.232,216.818 165.5,224.5C 165.167,223 164.833,221.5 164.5,220C 164.959,213.66 165.626,207.494 166.5,201.5 Z"/></g>
<g><path style="opacity:1" fill="#000000" d="M 234.5,201.5 C 235.434,202.568 235.768,203.901 235.5,205.5C 233.833,205.5 232.167,205.5 230.5,205.5C 231.568,204.566 232.901,204.232 234.5,204.5C 234.5,203.5 234.5,202.5 234.5,201.5 Z"/></g>
<g><path style="opacity:1" fill="#6c4624" d="M 313.5,203.5 C 314.222,203.082 314.722,202.416 315,201.5C 316.5,204.333 318.667,206.5 321.5,208C 317.618,210.934 314.618,209.934 312.5,205C 313.056,204.617 313.389,204.117 313.5,203.5 Z"/></g>
<g><path style="opacity:1" fill="#fefffe" d="M 145.5,207.5 C 145.443,203.867 146.443,203.7 148.5,207C 147.552,207.483 146.552,207.649 145.5,207.5 Z"/></g>
<g><path style="opacity:1" fill="#fefffe" d="M 145.5,207.5 C 145.918,208.222 146.584,208.722 147.5,209C 146.207,209.49 144.873,209.657 143.5,209.5C 143.343,208.127 143.51,206.793 144,205.5C 144.278,206.416 144.778,207.082 145.5,207.5 Z"/></g>
<g><path style="opacity:1" fill="#fefffe" d="M 143.5,209.5 C 144.263,210.268 145.263,210.768 146.5,211C 139.973,216.138 138.473,214.971 142,207.5C 142.278,208.416 142.778,209.082 143.5,209.5 Z"/></g>
<g><path style="opacity:1" fill="#ec1c23" d="M 218.5,212.5 C 218.5,212.833 218.5,213.167 218.5,213.5C 217.566,214.568 217.232,215.901 217.5,217.5C 215.265,217.205 213.265,217.539 211.5,218.5C 210.596,219.209 210.263,220.209 210.5,221.5C 209.167,221.5 207.833,221.5 206.5,221.5C 206.5,220.833 206.167,220.5 205.5,220.5C 209.658,217.586 213.991,214.919 218.5,212.5 Z"/></g>
<g><path style="opacity:1" fill="#840114" d="M 218.5,212.5 C 220.167,212.5 221.833,212.5 223.5,212.5C 231.825,218.668 240.825,223.835 250.5,228C 259.133,230.213 267.467,229.379 275.5,225.5C 272.473,227.583 269.307,229.583 266,231.5C 264.865,242.77 260.698,252.77 253.5,261.5C 253.167,261.333 252.833,261.167 252.5,261C 259.272,252.631 263.105,243.131 264,232.5C 253.218,231.794 243.385,228.294 234.5,222C 230.489,220.665 226.489,219.331 222.5,218C 220.365,217.124 219.031,215.624 218.5,213.5C 218.5,213.167 218.5,212.833 218.5,212.5 Z"/></g>
<g><path style="opacity:1" fill="#6b4524" d="M 217.5,217.5 C 219.754,218.124 221.421,219.457 222.5,221.5C 220.039,223.824 217.205,224.491 214,223.5C 210.653,224.18 208.653,226.18 208,229.5C 208.062,237.52 208.729,245.52 210,253.5C 211.07,256.242 212.57,258.742 214.5,261C 215.635,261.749 216.635,261.583 217.5,260.5C 220.051,256.168 219.718,252.001 216.5,248C 219.199,248.438 221.865,248.272 224.5,247.5C 223.064,244.862 221.231,242.529 219,240.5C 217.813,238.956 217.48,237.289 218,235.5C 224.422,241.599 229.755,248.599 234,256.5C 236.589,254.789 239.089,252.955 241.5,251C 238.784,249.258 236.117,247.425 233.5,245.5C 230.335,240.022 226.335,235.188 221.5,231C 222.167,230.333 222.833,230.333 223.5,231C 229.284,236.115 235.618,240.448 242.5,244C 247.938,244.944 251.605,242.778 253.5,237.5C 254.308,237.808 254.975,238.308 255.5,239C 254.093,243.317 252.26,247.484 250,251.5C 245.258,255.454 240.424,259.287 235.5,263C 233.162,263.837 230.828,264.67 228.5,265.5C 224.265,263.449 219.932,263.116 215.5,264.5C 205.816,263.33 196.15,261.83 186.5,260C 187.307,254.917 187.807,249.75 188,244.5C 189.717,238.494 191.884,232.827 194.5,227.5C 195.785,225.938 197.285,224.604 199,223.5C 200.261,223.759 201.261,224.426 202,225.5C 203.176,223.804 204.343,222.138 205.5,220.5C 206.167,220.5 206.5,220.833 206.5,221.5C 207.919,222.451 209.585,222.784 211.5,222.5C 211.5,221.167 211.5,219.833 211.5,218.5C 213.265,217.539 215.265,217.205 217.5,217.5 Z"/></g>
<g><path style="opacity:1" fill="#000000" d="M 211.5,218.5 C 211.5,219.833 211.5,221.167 211.5,222.5C 209.585,222.784 207.919,222.451 206.5,221.5C 207.833,221.5 209.167,221.5 210.5,221.5C 210.263,220.209 210.596,219.209 211.5,218.5 Z"/></g>
<g><path style="opacity:1" fill="#ec1c23" d="M 205.5,220.5 C 204.343,222.138 203.176,223.804 202,225.5C 201.261,224.426 200.261,223.759 199,223.5C 197.285,224.604 195.785,225.938 194.5,227.5C 194.461,226.417 194.127,225.417 193.5,224.5C 197.407,222.857 201.407,221.524 205.5,220.5 Z"/></g>
<g><path style="opacity:1" fill="#870014" d="M 275.5,225.5 C 276.879,222.927 278.879,221.427 281.5,221C 279.886,223.127 277.886,224.627 275.5,225.5 Z"/></g>
<g><path style="opacity:1" fill="#a3a4a3" d="M 184.5,238.5 C 186.647,232.865 188.813,227.198 191,221.5C 191.287,227.031 190.287,232.364 188,237.5C 186.989,238.337 185.822,238.67 184.5,238.5 Z"/></g>
<g><path style="opacity:1" fill="#945f32" d="M 222.5,221.5 C 226.319,221.605 229.986,222.438 233.5,224C 242.194,230.176 251.86,233.676 262.5,234.5C 260.114,243.937 256.114,252.603 250.5,260.5C 247.428,262.272 244.095,263.439 240.5,264C 238.714,264.785 237.214,265.951 236,267.5C 233.821,272.521 231.654,277.521 229.5,282.5C 226.813,282.664 224.146,282.497 221.5,282C 220.274,280.365 218.941,278.865 217.5,277.5C 216.583,278.127 215.583,278.461 214.5,278.5C 214.833,273.833 215.167,269.167 215.5,264.5C 219.932,263.116 224.265,263.449 228.5,265.5C 230.828,264.67 233.162,263.837 235.5,263C 240.424,259.287 245.258,255.454 250,251.5C 252.26,247.484 254.093,243.317 255.5,239C 254.975,238.308 254.308,237.808 253.5,237.5C 251.605,242.778 247.938,244.944 242.5,244C 235.618,240.448 229.284,236.115 223.5,231C 222.833,230.333 222.167,230.333 221.5,231C 226.335,235.188 230.335,240.022 233.5,245.5C 236.117,247.425 238.784,249.258 241.5,251C 239.089,252.955 236.589,254.789 234,256.5C 229.755,248.599 224.422,241.599 218,235.5C 217.48,237.289 217.813,238.956 219,240.5C 221.231,242.529 223.064,244.862 224.5,247.5C 221.865,248.272 219.199,248.438 216.5,248C 219.718,252.001 220.051,256.168 217.5,260.5C 216.635,261.583 215.635,261.749 214.5,261C 212.57,258.742 211.07,256.242 210,253.5C 208.729,245.52 208.062,237.52 208,229.5C 208.653,226.18 210.653,224.18 214,223.5C 217.205,224.491 220.039,223.824 222.5,221.5 Z"/></g>
<g><path style="opacity:1" fill="#945f32" d="M 277.5,242.5 C 276.599,238.264 275.599,233.93 274.5,229.5C 276.907,228.206 279.074,226.539 281,224.5C 280.937,229.142 280.604,233.809 280,238.5C 279.878,240.437 279.045,241.77 277.5,242.5 Z"/></g>
<g><path style="opacity:1" fill="#6c4624" d="M 135.5,225.5 C 142.122,226.532 148.788,227.199 155.5,227.5C 155.437,232.754 154.27,237.754 152,242.5C 149.425,245.319 147.092,248.319 145,251.5C 139.584,252.625 134.75,254.958 130.5,258.5C 128.302,258.125 126.302,257.458 124.5,256.5C 125.823,254.529 127.156,252.529 128.5,250.5C 125.491,246.807 122.825,242.807 120.5,238.5C 121.403,235.609 121.736,232.609 121.5,229.5C 124.768,234.107 128.435,238.441 132.5,242.5C 134.149,241.352 135.649,240.019 137,238.5C 137.258,234.096 136.758,229.762 135.5,225.5 Z"/></g>
<g><path style="opacity:1" fill="#fec90d" d="M 164.5,228.5 C 163.356,226.465 164.023,225.632 166.5,226C 167.609,227.813 166.942,228.646 164.5,228.5 Z"/></g>
<g><path style="opacity:1" fill="#945f32" d="M 155.5,227.5 C 157.379,228.341 159.379,228.675 161.5,228.5C 161.607,233.21 161.774,237.877 162,242.5C 159.936,241.409 157.769,241.242 155.5,242C 151.554,248.279 147.221,254.279 142.5,260C 137.978,262.188 133.978,261.688 130.5,258.5C 134.75,254.958 139.584,252.625 145,251.5C 147.092,248.319 149.425,245.319 152,242.5C 154.27,237.754 155.437,232.754 155.5,227.5 Z"/></g>
<g><path style="opacity:1" fill="#c2c3c2" d="M 164.5,228.5 C 165.968,229.779 166.635,231.446 166.5,233.5C 165.5,233.5 164.5,233.5 163.5,233.5C 163.216,231.585 163.549,229.919 164.5,228.5 Z"/></g>
<g><path style="opacity:1" fill="#6c4624" d="M 274.5,229.5 C 275.599,233.93 276.599,238.264 277.5,242.5C 277.354,246.519 277.021,250.519 276.5,254.5C 273.985,256.182 271.985,258.348 270.5,261C 276.478,268.45 281.311,276.617 285,285.5C 287.625,287.505 287.625,289.839 285,292.5C 277.365,284.555 270.698,275.888 265,266.5C 264.014,265.829 262.847,265.829 261.5,266.5C 259.709,265.213 258.043,263.713 256.5,262C 257.226,259.366 258.559,257.199 260.5,255.5C 260.491,257.308 260.991,258.975 262,260.5C 264.039,258.126 266.372,256.126 269,254.5C 270.517,248.92 270.851,243.253 270,237.5C 269.583,236.244 268.75,235.577 267.5,235.5C 267.33,234.178 267.663,233.011 268.5,232C 270.488,231.062 272.488,230.228 274.5,229.5 Z"/></g>
<g><path style="opacity:1" fill="#fec90d" d="M 165.5,238.5 C 164.194,237.533 163.527,236.199 163.5,234.5C 165.635,234.147 166.968,234.98 167.5,237C 167.164,238.03 166.497,238.53 165.5,238.5 Z"/></g>
<g><path style="opacity:1" fill="#b6743d" d="M 267.5,235.5 C 268.75,235.577 269.583,236.244 270,237.5C 270.851,243.253 270.517,248.92 269,254.5C 266.372,256.126 264.039,258.126 262,260.5C 260.991,258.975 260.491,257.308 260.5,255.5C 263.965,249.235 266.298,242.569 267.5,235.5 Z"/></g>
<g><path style="opacity:1" fill="#955f33" d="M 120.5,238.5 C 122.825,242.807 125.491,246.807 128.5,250.5C 127.156,252.529 125.823,254.529 124.5,256.5C 121.398,256.154 118.565,256.821 116,258.5C 114.874,266.339 113.708,274.172 112.5,282C 112.559,283.436 112.892,284.769 113.5,286C 112.906,286.464 112.239,286.631 111.5,286.5C 109.196,283.859 106.862,281.192 104.5,278.5C 104.288,272.963 104.622,267.463 105.5,262C 104.909,256.471 104.242,250.971 103.5,245.5C 104.026,242.427 105.526,240.094 108,238.5C 112.163,239.709 116.329,239.709 120.5,238.5 Z"/></g>
<g><path style="opacity:1" fill="#c2c3c2" d="M 165.5,238.5 C 166.621,244.418 166.788,250.418 166,256.5C 164.875,253.522 164.375,250.355 164.5,247C 164.502,243.979 164.836,241.146 165.5,238.5 Z"/></g>
<g><path style="opacity:1" fill="#a3a4a3" d="M 184.5,238.5 C 185.263,239.268 186.263,239.768 187.5,240C 186.915,241.302 186.249,242.469 185.5,243.5C 184.791,242.596 183.791,242.263 182.5,242.5C 182.229,240.62 182.896,239.287 184.5,238.5 Z"/></g>
<g><path style="opacity:1" fill="#6c4624" d="M 157.5,244.5 C 159.017,244.511 160.184,245.177 161,246.5C 161.667,249.167 161.667,251.833 161,254.5C 156.69,256.826 152.19,258.326 147.5,259C 151.717,254.718 155.05,249.884 157.5,244.5 Z"/></g>
<g><path style="opacity:1" fill="#a2a2a2" d="M 185.5,243.5 C 185.5,245.167 185.5,246.833 185.5,248.5C 179.833,248.664 179.5,248.997 184.5,249.5C 184.433,251.401 184.767,253.234 185.5,255C 184.306,259.804 183.306,264.637 182.5,269.5C 177.903,267.968 173.236,266.635 168.5,265.5C 168.308,258.223 171.475,252.889 178,249.5C 178.903,245.469 181.403,243.469 185.5,243.5 Z"/></g>
<g><path style="opacity:1" fill="#181818" d="M 176.5,251.5 C 179.655,251.605 182.322,252.772 184.5,255C 183.711,258.595 182.544,262.095 181,265.5C 176.264,266.887 172.431,265.554 169.5,261.5C 171.045,257.62 173.379,254.287 176.5,251.5 Z"/></g>
<g><path style="opacity:1" fill="#945e32" d="M 276.5,254.5 C 278.752,254.916 280.252,256.249 281,258.5C 283.254,266.435 285.254,274.435 287,282.5C 293.915,290.901 297.915,300.568 299,311.5C 304.04,321.08 309.206,330.58 314.5,340C 313.944,340.383 313.611,340.883 313.5,341.5C 311.97,343.346 309.97,344.346 307.5,344.5C 306.178,344.33 305.011,344.663 304,345.5C 290.344,318.853 276.178,292.519 261.5,266.5C 262.847,265.829 264.014,265.829 265,266.5C 270.698,275.888 277.365,284.555 285,292.5C 287.625,289.839 287.625,287.505 285,285.5C 281.311,276.617 276.478,268.45 270.5,261C 271.985,258.348 273.985,256.182 276.5,254.5 Z"/></g>
<g><path style="opacity:1" fill="#fefffe" d="M 120.5,262.5 C 121.5,262.5 122.5,262.5 123.5,262.5C 124.03,267.287 122.863,271.62 120,275.5C 119.737,271.165 119.903,266.832 120.5,262.5 Z"/></g>
<g><path style="opacity:1" fill="#694324" d="M 130.5,284.5 C 128.316,285.108 126.316,284.441 124.5,282.5C 125.092,279.309 126.259,276.309 128,273.5C 128.333,270.167 128.667,266.833 129,263.5C 132.573,264.583 136.407,264.583 140.5,263.5C 141.167,263.667 141.833,263.833 142.5,264C 136.715,269.18 133.715,275.68 133.5,283.5C 132.209,283.263 131.209,283.596 130.5,284.5 Z"/></g>
<g><path style="opacity:1" fill="#6c4624" d="M 229.5,282.5 C 227.718,286.629 226.718,290.962 226.5,295.5C 222.009,293.205 217.342,292.538 212.5,293.5C 213.232,288.518 213.898,283.518 214.5,278.5C 215.583,278.461 216.583,278.127 217.5,277.5C 218.941,278.865 220.274,280.365 221.5,282C 224.146,282.497 226.813,282.664 229.5,282.5 Z"/></g>
<g><path style="opacity:1" fill="#e2c9b6" d="M 104.5,278.5 C 106.862,281.192 109.196,283.859 111.5,286.5C 112.974,292.047 110.64,294.714 104.5,294.5C 102.851,295.648 101.351,296.981 100,298.5C 95.14,295.154 93.4733,290.821 95,285.5C 96.3333,284.833 97.6667,284.167 99,283.5C 99.3333,284.833 99.6667,286.167 100,287.5C 99.6476,283.458 101.148,280.458 104.5,278.5 Z"/></g>
<g><path style="opacity:1" fill="#e1c9b5" d="M 124.5,282.5 C 126.316,284.441 128.316,285.108 130.5,284.5C 131.675,284.281 132.675,284.614 133.5,285.5C 132.736,290.681 130.236,294.681 126,297.5C 125.667,299.833 125.333,302.167 125,304.5C 122.778,307.044 120.611,307.044 118.5,304.5C 115.727,298.994 116.894,294.327 122,290.5C 122.333,288.167 122.667,285.833 123,283.5C 123.383,282.944 123.883,282.611 124.5,282.5 Z"/></g>
<g><path style="opacity:1" fill="#925d32" d="M 226.5,295.5 C 227.555,298.073 227.722,300.739 227,303.5C 222.838,313.132 221.338,323.132 222.5,333.5C 218.448,335.387 215.115,334.72 212.5,331.5C 212.155,319.04 212.155,306.374 212.5,293.5C 217.342,292.538 222.009,293.205 226.5,295.5 Z"/></g>
<g><path style="opacity:1" fill="#e0c8b5" d="M 212.5,331.5 C 215.115,334.72 218.448,335.387 222.5,333.5C 223.111,338.108 224.111,342.608 225.5,347C 225.167,347.333 224.833,347.667 224.5,348C 226.5,349 228.5,350 230.5,351C 225.742,352.251 221.242,354.085 217,356.5C 216.289,354.633 216.789,353.133 218.5,352C 213.049,346.255 211.049,339.422 212.5,331.5 Z"/></g>
<g><path style="opacity:1" fill="#ddc5b2" d="M 313.5,341.5 C 315.587,344.415 318.254,346.915 321.5,349C 321.167,349.333 320.833,349.667 320.5,350C 322.997,350.412 324.997,351.578 326.5,353.5C 322.869,357.148 318.536,359.482 313.5,360.5C 314.319,356.363 313.486,352.363 311,348.5C 309.352,347.283 307.519,346.45 305.5,346C 306.416,345.722 307.082,345.222 307.5,344.5C 309.97,344.346 311.97,343.346 313.5,341.5 Z"/></g>
</svg>
