<?xml version="1.0" encoding="UTF-8"?>
<!DOCTYPE svg PUBLIC "-//W3C//DTD SVG 1.1//EN" "http://www.w3.org/Graphics/SVG/1.1/DTD/svg11.dtd">
<svg xmlns="http://www.w3.org/2000/svg" version="1.1" width="512px" height="400px" style="shape-rendering:geometricPrecision; text-rendering:geometricPrecision; image-rendering:optimizeQuality; fill-rule:evenodd; clip-rule:evenodd" xmlns:xlink="http://www.w3.org/1999/xlink">
<g><path style="opacity:1" fill="#fefffe" d="M 294.5,21.5 C 297.833,21.5 301.167,21.5 304.5,21.5C 304.789,25.1064 304.456,28.6064 303.5,32C 281.083,45.6258 258.583,59.1258 236,72.5C 234.814,77.3683 235.814,81.7016 239,85.5C 240.792,93.6199 242.792,101.62 245,109.5C 245.779,116.933 245.279,124.266 243.5,131.5C 243.411,135.255 244.578,138.588 247,141.5C 247.333,144.5 247.667,147.5 248,150.5C 248.75,149.874 249.584,149.374 250.5,149C 257.5,148.333 264.5,148.333 271.5,149C 277.285,149.79 280.785,152.957 282,158.5C 282.499,164.491 282.666,170.491 282.5,176.5C 287.815,176.497 289.815,179.164 288.5,184.5C 296.222,185.246 303.889,186.413 311.5,188C 314.196,188.765 316.696,189.932 319,191.5C 323.666,189.987 328.499,189.321 333.5,189.5C 343.437,190.981 353.437,192.148 363.5,193C 377.592,199.92 392.259,205.253 407.5,209C 413.834,209.349 420.168,209.183 426.5,208.5C 434.416,209.186 442.25,210.186 450,211.5C 450.667,216.833 450.667,222.167 450,227.5C 442.791,234.186 434.958,240.019 426.5,245C 419.302,245.166 412.469,246.332 406,248.5C 403.207,248.695 400.707,248.029 398.5,246.5C 397.792,249.366 397.125,252.2 396.5,255C 392.167,255.667 387.833,255.667 383.5,255C 375.363,250.889 367.696,245.889 360.5,240C 356.833,239 353.167,238 349.5,237C 347.627,234.791 345.46,232.958 343,231.5C 343.329,238.121 343.496,244.788 343.5,251.5C 348.511,251.334 353.511,251.501 358.5,252C 360.587,252.792 362.421,253.959 364,255.5C 366.091,262.037 367.758,268.703 369,275.5C 369.915,276.328 370.581,277.328 371,278.5C 372.21,286.675 373.877,294.675 376,302.5C 380.333,301.167 384.667,301.167 389,302.5C 390.943,308.328 393.276,313.995 396,319.5C 396.767,323.558 396.6,327.558 395.5,331.5C 396.145,332.646 396.978,333.646 398,334.5C 398.841,339.531 399.841,344.531 401,349.5C 401.796,353.755 401.629,357.921 400.5,362C 396.167,362.667 391.833,362.667 387.5,362C 383.339,360.263 379.005,359.263 374.5,359C 370.462,351.956 365.296,345.789 359,340.5C 357.847,319.325 347.68,304.491 328.5,296C 319.873,293.791 311.54,290.791 303.5,287C 298.295,282.897 292.628,279.563 286.5,277C 282.2,273.702 278.2,270.035 274.5,266C 265.733,269.484 256.733,272.817 247.5,276C 244.211,276.882 240.877,277.548 237.5,278C 223.819,278.671 210.152,278.505 196.5,277.5C 197.493,282.313 198.993,286.98 201,291.5C 202.451,305.97 205.785,319.97 211,333.5C 211.667,339.167 211.667,344.833 211,350.5C 208.541,354.218 205.208,356.884 201,358.5C 200.941,361.822 199.774,364.656 197.5,367C 192.609,368.114 187.609,368.614 182.5,368.5C 169.904,372.235 165.404,367.902 169,355.5C 171.479,352.04 173.479,348.373 175,344.5C 176.978,342.261 179.478,340.928 182.5,340.5C 183.572,338.283 184.239,335.95 184.5,333.5C 180.953,324.736 177.12,316.07 173,307.5C 171.378,302.968 170.378,298.301 170,293.5C 168.587,290.339 166.92,287.339 165,284.5C 153.82,293.008 144.82,303.342 138,315.5C 128.224,324.715 121.224,335.715 117,348.5C 113.28,349.709 109.613,351.043 106,352.5C 105.152,358.083 103.319,363.25 100.5,368C 97.793,369.057 94.9597,369.557 92,369.5C 85.1493,368.831 78.316,367.997 71.5,367C 71,366.5 70.5,366 70,365.5C 67.0692,352.428 71.9026,343.595 84.5,339C 97.1761,324.636 107.009,308.47 114,290.5C 116.901,287.688 119.568,284.688 122,281.5C 126.077,273.088 130.244,264.754 134.5,256.5C 129.913,244.242 127.746,231.575 128,218.5C 126.199,215.215 123.365,213.381 119.5,213C 112.185,206.429 104.019,201.263 95,197.5C 91.5226,202.974 87.356,207.807 82.5,212C 77.6178,213.555 72.6178,213.888 67.5,213C 63.8105,209.825 59.8105,207.158 55.5,205C 45.2506,204.911 40.9172,199.744 42.5,189.5C 42.4628,185.744 42.9628,182.078 44,178.5C 52.9878,164.867 62.6544,151.867 73,139.5C 74.2051,138.929 75.3717,138.262 76.5,137.5C 78.0198,132.29 80.6865,127.79 84.5,124C 100.207,119.137 116.207,118.137 132.5,121C 135.79,124.367 138.623,123.867 141,119.5C 141.926,111.577 146.426,107.41 154.5,107C 161.669,100.759 170.003,98.7592 179.5,101C 183.205,101.04 185.372,102.873 186,106.5C 186.229,103.542 187.396,101.042 189.5,99C 185.949,97.3229 184.616,94.4896 185.5,90.5C 182.091,90.7507 178.758,90.4173 175.5,89.5C 174.341,85.878 174.175,82.2113 175,78.5C 177.237,76.7193 179.237,74.7193 181,72.5C 182.14,68.1898 183.974,64.1898 186.5,60.5C 180.784,61.0143 176.95,58.681 175,53.5C 174.19,46.9184 174.357,40.4184 175.5,34C 187.93,28.4293 200.597,28.096 213.5,33C 221.801,37.8105 226.801,44.9772 228.5,54.5C 250.84,43.9969 272.84,32.9969 294.5,21.5 Z M 176.5,142.5 C 177.708,141.218 179.042,141.218 180.5,142.5C 180,143.5 179.5,144.5 179,145.5C 178.623,144.058 177.79,143.058 176.5,142.5 Z"/></g>
<g><path style="opacity:1" fill="#000000" d="M 296.5,23.5 C 298.5,23.5 300.5,23.5 302.5,23.5C 302.756,25.7925 302.423,27.9592 301.5,30C 279.332,43.585 256.999,56.9184 234.5,70C 234.001,73.3494 233.001,76.516 231.5,79.5C 233.58,81.9928 235.414,84.6595 237,87.5C 238.792,95.6199 240.792,103.62 243,111.5C 243.473,118.244 242.973,124.911 241.5,131.5C 240.936,136.046 242.103,140.046 245,143.5C 245.333,146.833 245.667,150.167 246,153.5C 256.224,149.356 266.39,149.522 276.5,154C 278.768,155.558 279.934,157.724 280,160.5C 280.499,166.491 280.666,172.491 280.5,178.5C 285.815,178.497 287.815,181.164 286.5,186.5C 297.719,187.174 308.553,189.507 319,193.5C 323.73,192.11 328.564,191.444 333.5,191.5C 342.728,193.304 352.062,194.471 361.5,195C 375.592,201.92 390.259,207.253 405.5,211C 412.511,211.566 419.511,211.4 426.5,210.5C 433.472,211.527 440.472,212.361 447.5,213C 450.376,220.931 448.376,227.264 441.5,232C 435.833,235.667 430.167,239.333 424.5,243C 419.806,243.564 415.14,243.397 410.5,242.5C 410.763,245.734 409.263,247.068 406,246.5C 402.613,245.48 399.28,244.146 396,242.5C 395.5,242.833 395,243.167 394.5,243.5C 397.878,252.623 394.878,255.79 385.5,253C 377.363,248.889 369.696,243.889 362.5,238C 358.833,237 355.167,236 351.5,235C 348.275,231.807 344.775,228.974 341,226.5C 341.04,235.488 341.207,244.488 341.5,253.5C 346.511,253.334 351.511,253.501 356.5,254C 358.587,254.792 360.421,255.959 362,257.5C 364.091,264.037 365.758,270.703 367,277.5C 367.915,278.328 368.581,279.328 369,280.5C 370.371,288.624 371.871,296.624 373.5,304.5C 377.819,303.751 382.152,303.585 386.5,304C 388.801,309.898 391.301,315.732 394,321.5C 394.769,324.099 394.602,326.599 393.5,329C 379.908,330.443 379.575,331.777 392.5,333C 393.667,334.167 394.833,335.333 396,336.5C 398.049,344.065 399.049,351.731 399,359.5C 395.927,360.617 392.76,360.784 389.5,360C 385.339,358.263 381.005,357.263 376.5,357C 372.462,349.956 367.296,343.789 361,338.5C 359.847,317.325 349.68,302.491 330.5,294C 321.873,291.791 313.54,288.791 305.5,285C 300.295,280.897 294.628,277.563 288.5,275C 283.366,270.867 278.532,266.367 274,261.5C 248.693,276.868 221.693,280.868 193,273.5C 194.158,280.318 196.158,286.985 199,293.5C 200.451,307.97 203.785,321.97 209,335.5C 209.667,339.833 209.667,344.167 209,348.5C 206.541,352.218 203.208,354.884 199,356.5C 198.941,359.822 197.774,362.656 195.5,365C 191.28,366.104 186.947,366.604 182.5,366.5C 171.417,369.586 167.917,365.919 172,355.5C 174.546,352.963 176.212,349.963 177,346.5C 178.978,344.261 181.478,342.928 184.5,342.5C 185.599,339.704 186.599,336.871 187.5,334C 183.751,324.334 179.585,314.834 175,305.5C 174.377,295.757 171.044,287.091 165,279.5C 158.387,286.113 151.721,292.779 145,299.5C 139.88,308.732 133.547,317.065 126,324.5C 121.785,331.596 118.119,338.929 115,346.5C 111.28,347.709 107.613,349.043 104,350.5C 103.152,356.083 101.319,361.25 98.5,366C 96.4664,367.006 94.2998,367.506 92,367.5C 85.8415,366.613 79.6748,365.779 73.5,365C 73,364.5 72.5,364 72,363.5C 71.3333,359.833 71.3333,356.167 72,352.5C 74.8529,349.948 77.3529,347.115 79.5,344C 84.7409,342.761 88.9075,339.928 92,335.5C 96.2744,328.228 100.941,321.228 106,314.5C 109.721,307.335 113.054,300.002 116,292.5C 118.901,289.688 121.568,286.688 124,283.5C 128.007,275.465 132.007,267.465 136,259.5C 135.461,251 133.794,242.666 131,234.5C 130.254,229.958 130.421,225.458 131.5,221C 130.819,214.986 127.486,211.653 121.5,211C 113.879,203.702 105.046,198.536 95,195.5C 94.1667,195.833 93.3333,196.167 92.5,196.5C 88.9993,201.497 84.9993,205.997 80.5,210C 76.9613,211.504 73.2946,211.837 69.5,211C 65.8105,207.825 61.8105,205.158 57.5,203C 52.9023,203.307 49.0689,201.807 46,198.5C 44.5076,193.589 44.1743,188.589 45,183.5C 54.2209,167.144 65.3875,152.477 78.5,139.5C 80.0198,134.29 82.6865,129.79 86.5,126C 95.4588,124.025 104.459,122.525 113.5,121.5C 113.351,122.552 113.517,123.552 114,124.5C 119.313,122.526 124.813,122.026 130.5,123C 134.883,127.059 139.05,126.559 143,121.5C 143.926,113.577 148.426,109.41 156.5,109C 163.724,102.359 172.057,100.693 181.5,104C 182,104.5 182.5,105 183,105.5C 183.333,108.167 183.667,110.833 184,113.5C 185.011,112.663 186.178,112.33 187.5,112.5C 187.834,107.658 189.167,103.158 191.5,99C 191.473,96.6367 190.306,95.1367 188,94.5C 187.505,92.5273 187.338,90.5273 187.5,88.5C 184.091,88.7507 180.758,88.4173 177.5,87.5C 176.353,85.2351 176.186,82.9018 177,80.5C 179.237,78.7193 181.237,76.7193 183,74.5C 184.997,68.3403 188.164,62.8403 192.5,58C 188.5,57.6667 184.5,57.3333 180.5,57C 178.959,55.4207 177.792,53.5873 177,51.5C 176.196,46.2487 176.363,41.082 177.5,36C 191.375,29.5032 204.708,30.5032 217.5,39C 222.762,44.0255 225.428,50.1922 225.5,57.5C 249.731,47.3137 273.397,35.9804 296.5,23.5 Z M 176.5,142.5 C 177.79,143.058 178.623,144.058 179,145.5C 179.5,144.5 180,143.5 180.5,142.5C 179.042,141.218 177.708,141.218 176.5,142.5 Z"/></g>
<g><path style="opacity:1" fill="#c2c3c2" d="M 284.5,33.5 C 286.842,33.7748 286.842,34.6081 284.5,36C 268.204,44.815 252.204,54.1483 236.5,64C 234.091,65.7068 231.425,66.5402 228.5,66.5C 228.286,64.8561 228.62,63.3561 229.5,62C 248.24,52.9657 266.573,43.4657 284.5,33.5 Z"/></g>
<g><path style="opacity:1" fill="#ec1c23" d="M 190.5,36.5 C 212.036,37.0352 222.703,48.0352 222.5,69.5C 221.915,74.1195 220.582,78.4528 218.5,82.5C 217.911,79.1631 216.911,75.9965 215.5,73C 218.157,59.1354 212.657,50.6354 199,47.5C 193.891,47.3522 189.557,49.0188 186,52.5C 181.774,49.49 180.607,45.49 182.5,40.5C 185.259,39.1207 187.925,37.7874 190.5,36.5 Z"/></g>
<g><path style="opacity:1" fill="#b28a00" d="M 195.5,49.5 C 208.526,50.3634 214.693,57.3634 214,70.5C 210.791,64.1227 205.624,60.7894 198.5,60.5C 198.09,56.6133 197.09,52.9466 195.5,49.5 Z"/></g>
<g><path style="opacity:1" fill="#fec90d" d="M 222.5,60.5 C 223.675,60.281 224.675,60.6143 225.5,61.5C 226.838,64.8747 228.171,68.208 229.5,71.5C 228.556,75.11 226.223,76.7767 222.5,76.5C 223.616,71.1825 223.616,65.8492 222.5,60.5 Z"/></g>
<g><path style="opacity:1" fill="#fec90d" d="M 212.5,84.5 C 209.466,82.5957 206.133,81.2623 202.5,80.5C 206.266,74.3537 204.599,71.5204 197.5,72C 196.385,74.1313 195.052,75.9646 193.5,77.5C 192.974,75.7697 191.974,74.4363 190.5,73.5C 190.461,72.4168 190.127,71.4168 189.5,70.5C 192.981,62.0996 198.648,60.2663 206.5,65C 212.899,69.962 215.899,76.462 215.5,84.5C 214.5,84.5 213.5,84.5 212.5,84.5 Z"/></g>
<g><path style="opacity:1" fill="#a1a1a1" d="M 190.5,73.5 C 191.974,74.4363 192.974,75.7697 193.5,77.5C 196.084,79.4725 199.084,80.4725 202.5,80.5C 206.133,81.2623 209.466,82.5957 212.5,84.5C 213.568,85.4345 214.901,85.7678 216.5,85.5C 214.393,86.4682 212.059,86.8016 209.5,86.5C 208.713,84.8958 207.38,84.2291 205.5,84.5C 204.5,84.5 203.5,84.5 202.5,84.5C 202.167,84.5 201.833,84.5 201.5,84.5C 199.412,83.0605 197.079,82.3939 194.5,82.5C 190.888,83.0532 187.388,84.0532 184,85.5C 182.596,85.4907 181.43,84.9907 180.5,84C 185.116,81.484 187.95,77.6506 189,72.5C 189.383,73.056 189.883,73.3893 190.5,73.5 Z"/></g>
<g><path style="opacity:1" fill="#777777" d="M 202.5,80.5 C 199.084,80.4725 196.084,79.4725 193.5,77.5C 195.052,75.9646 196.385,74.1313 197.5,72C 204.599,71.5204 206.266,74.3537 202.5,80.5 Z"/></g>
<g><path style="opacity:1" fill="#eee4af" d="M 227.5,87.5 C 224.46,88.6803 221.794,90.347 219.5,92.5C 218.131,90.3085 217.131,87.9752 216.5,85.5C 217.335,84.0568 218.668,83.0568 220.5,82.5C 221.246,81.2638 221.579,79.9305 221.5,78.5C 222.5,78.5 223.5,78.5 224.5,78.5C 225.126,81.3149 226.46,83.8149 228.5,86C 227.944,86.3826 227.611,86.8826 227.5,87.5 Z"/></g>
<g><path style="opacity:1" fill="#b28a00" d="M 194.5,83.5 C 194.5,83.1667 194.5,82.8333 194.5,82.5C 197.079,82.3939 199.412,83.0605 201.5,84.5C 201.672,85.4916 201.338,86.1583 200.5,86.5C 199.432,85.5655 198.099,85.2322 196.5,85.5C 196.167,84.5 195.5,83.8333 194.5,83.5 Z"/></g>
<g><path style="opacity:1" fill="#000000" d="M 194.5,83.5 C 195.5,83.8333 196.167,84.5 196.5,85.5C 195.662,85.8417 195.328,86.5084 195.5,87.5C 194.566,86.4324 194.232,85.099 194.5,83.5 Z"/></g>
<g><path style="opacity:1" fill="#000000" d="M 201.5,84.5 C 201.833,84.5 202.167,84.5 202.5,84.5C 202.784,86.4147 202.451,88.0813 201.5,89.5C 201.443,88.391 201.11,87.391 200.5,86.5C 201.338,86.1583 201.672,85.4916 201.5,84.5 Z"/></g>
<g><path style="opacity:1" fill="#bf8167" d="M 202.5,84.5 C 203.5,84.5 204.5,84.5 205.5,84.5C 205.5,86.1667 205.5,87.8333 205.5,89.5C 204.758,91.3497 203.758,92.0164 202.5,91.5C 202.167,90.8333 201.833,90.1667 201.5,89.5C 202.451,88.0813 202.784,86.4147 202.5,84.5 Z"/></g>
<g><path style="opacity:1" fill="#452b1d" d="M 205.5,84.5 C 207.38,84.2291 208.713,84.8958 209.5,86.5C 211.607,87.4682 213.941,87.8016 216.5,87.5C 216.67,88.8221 216.337,89.9887 215.5,91C 213.071,91.7033 210.738,91.5366 208.5,90.5C 207.778,90.0825 207.278,89.4158 207,88.5C 206.617,89.056 206.117,89.3893 205.5,89.5C 205.5,87.8333 205.5,86.1667 205.5,84.5 Z"/></g>
<g><path style="opacity:1" fill="#000000" d="M 216.5,85.5 C 217.131,87.9752 218.131,90.3085 219.5,92.5C 218.89,93.391 218.557,94.391 218.5,95.5C 218.167,95.5 217.833,95.5 217.5,95.5C 217.423,94.2502 216.756,93.4169 215.5,93C 212.854,92.5026 210.187,92.3359 207.5,92.5C 207.833,91.8333 208.167,91.1667 208.5,90.5C 210.738,91.5366 213.071,91.7033 215.5,91C 216.337,89.9887 216.67,88.8221 216.5,87.5C 213.941,87.8016 211.607,87.4682 209.5,86.5C 212.059,86.8016 214.393,86.4682 216.5,85.5 Z"/></g>
<g><path style="opacity:1" fill="#fb9f77" d="M 194.5,83.5 C 194.232,85.099 194.566,86.4324 195.5,87.5C 195.216,89.4147 195.549,91.0813 196.5,92.5C 196.631,93.2389 196.464,93.9056 196,94.5C 194.4,93.1341 192.567,92.1341 190.5,91.5C 192.353,89.3086 192.687,86.9752 191.5,84.5C 192.325,83.6143 193.325,83.281 194.5,83.5 Z"/></g>
<g><path style="opacity:1" fill="#000000" d="M 195.5,87.5 C 196.239,87.369 196.906,87.5357 197.5,88C 196.62,89.3561 196.286,90.8561 196.5,92.5C 195.549,91.0813 195.216,89.4147 195.5,87.5 Z"/></g>
<g><path style="opacity:1" fill="#d2c9c3" d="M 227.5,87.5 C 229.752,87.9156 231.252,89.249 232,91.5C 234.134,96.5883 235.134,101.588 235,106.5C 230.93,100.582 225.43,96.9153 218.5,95.5C 218.557,94.391 218.89,93.391 219.5,92.5C 221.794,90.347 224.46,88.6803 227.5,87.5 Z"/></g>
<g><path style="opacity:1" fill="#95730a" d="M 196.5,85.5 C 198.099,85.2322 199.432,85.5655 200.5,86.5C 201.11,87.391 201.443,88.391 201.5,89.5C 199.352,89.3894 199.019,90.056 200.5,91.5C 199.311,92.4287 197.978,92.762 196.5,92.5C 196.286,90.8561 196.62,89.3561 197.5,88C 196.906,87.5357 196.239,87.369 195.5,87.5C 195.328,86.5084 195.662,85.8417 196.5,85.5 Z"/></g>
<g><path style="opacity:1" fill="#f7763e" d="M 208.5,90.5 C 208.167,91.1667 207.833,91.8333 207.5,92.5C 204.856,93.1439 203.189,94.8106 202.5,97.5C 201.167,95.5 201.167,93.5 202.5,91.5C 203.758,92.0164 204.758,91.3497 205.5,89.5C 206.117,89.3893 206.617,89.056 207,88.5C 207.278,89.4158 207.778,90.0825 208.5,90.5 Z"/></g>
<g><path style="opacity:1" fill="#b28a00" d="M 197.5,93.5 C 198.675,93.281 199.675,93.6143 200.5,94.5C 198.948,95.7979 197.948,95.4646 197.5,93.5 Z"/></g>
<g><path style="opacity:1" fill="#f9a884" d="M 197.5,97.5 C 197.443,98.609 197.11,99.609 196.5,100.5C 194.623,99.3409 194.123,97.6742 195,95.5C 195.708,96.3805 196.542,97.0472 197.5,97.5 Z"/></g>
<g><path style="opacity:1" fill="#9f9994" d="M 216.5,96.5 C 216.389,97.1174 216.056,97.6174 215.5,98C 213.19,98.4966 210.857,98.6633 208.5,98.5C 206.621,98.6068 206.288,98.1068 207.5,97C 210.224,96.7305 212.891,96.2305 215.5,95.5C 216.107,95.6236 216.44,95.9569 216.5,96.5 Z"/></g>
<g><path style="opacity:1" fill="#fec90d" d="M 217.5,95.5 C 217.833,95.5 218.167,95.5 218.5,95.5C 225.314,99.795 231.481,105.128 237,111.5C 237.346,113.218 237.846,114.885 238.5,116.5C 236.84,123.715 235.84,131.049 235.5,138.5C 229.079,138.991 222.746,139.991 216.5,141.5C 213.489,138.475 211.822,134.808 211.5,130.5C 213.651,126.871 215.818,123.204 218,119.5C 219.125,112.16 216.958,105.993 211.5,101C 209.866,100.506 208.199,100.34 206.5,100.5C 207.167,99.8333 207.833,99.1667 208.5,98.5C 210.857,98.6633 213.19,98.4966 215.5,98C 216.056,97.6174 216.389,97.1174 216.5,96.5C 217.167,96.5 217.5,96.1667 217.5,95.5 Z"/></g>
<g><path style="opacity:1" fill="#9b7708" d="M 197.5,97.5 C 198.947,96.1148 199.947,96.4482 200.5,98.5C 200.5,99.1667 200.167,99.5 199.5,99.5C 198.833,98.8333 198.167,98.1667 197.5,97.5 Z"/></g>
<g><path style="opacity:1" fill="#000000" d="M 197.5,97.5 C 198.167,98.1667 198.833,98.8333 199.5,99.5C 198.791,100.404 197.791,100.737 196.5,100.5C 197.11,99.609 197.443,98.609 197.5,97.5 Z"/></g>
<g><path style="opacity:1" fill="#7086aa" d="M 207.5,92.5 C 210.187,92.3359 212.854,92.5026 215.5,93C 216.756,93.4169 217.423,94.2502 217.5,95.5C 217.5,96.1667 217.167,96.5 216.5,96.5C 216.44,95.9569 216.107,95.6236 215.5,95.5C 212.891,96.2305 210.224,96.7305 207.5,97C 206.288,98.1068 206.621,98.6068 208.5,98.5C 207.833,99.1667 207.167,99.8333 206.5,100.5C 217.019,105.949 219.186,113.949 213,124.5C 211.491,126.919 209.325,127.919 206.5,127.5C 206.5,126.833 206.5,126.167 206.5,125.5C 208.582,125.528 210.416,124.861 212,123.5C 212.667,119.833 212.667,116.167 212,112.5C 211.169,125.817 210.669,125.817 210.5,112.5C 212.57,105.375 209.736,101.709 202,101.5C 199.657,102.999 197.824,102.666 196.5,100.5C 197.791,100.737 198.791,100.404 199.5,99.5C 200.167,99.5 200.5,99.1667 200.5,98.5C 201.492,98.6716 202.158,98.3382 202.5,97.5C 203.189,94.8106 204.856,93.1439 207.5,92.5 Z"/></g>
<g><path style="opacity:1" fill="#cb1f20" d="M 200.5,103.5 C 204.137,103.487 207.137,104.82 209.5,107.5C 204.987,107.77 200.154,109.103 195,111.5C 194.667,110.5 194.333,109.5 194,108.5C 193.781,109.938 193.281,111.271 192.5,112.5C 192.081,110.014 192.748,107.514 194.5,105C 196.708,104.809 198.708,104.309 200.5,103.5 Z"/></g>
<g><path style="opacity:1" fill="#870014" d="M 168.5,106.5 C 172.665,106.127 176.332,107.127 179.5,109.5C 178.395,110.892 177.061,112.059 175.5,113C 170.798,113.828 166.131,113.662 161.5,112.5C 163.307,109.781 165.64,107.781 168.5,106.5 Z"/></g>
<g><path style="opacity:1" fill="#000000" d="M 169.5,107.5 C 171.842,107.504 173.842,108.337 175.5,110C 172.384,111.69 169.051,112.357 165.5,112C 165.167,111.667 164.833,111.333 164.5,111C 166.233,109.811 167.9,108.644 169.5,107.5 Z"/></g>
<g><path style="opacity:1" fill="#d1c9c3" d="M 210.5,112.5 C 210.669,125.817 211.169,125.817 212,112.5C 212.667,116.167 212.667,119.833 212,123.5C 210.416,124.861 208.582,125.528 206.5,125.5C 206.918,124.778 207.584,124.278 208.5,124C 206.447,123.675 204.447,124.009 202.5,125C 197.605,128.072 192.605,130.905 187.5,133.5C 181.342,133.108 175.342,132.108 169.5,130.5C 171.068,122.429 175.901,118.095 184,117.5C 184.772,117.645 185.439,117.978 186,118.5C 187.718,117.15 189.552,115.983 191.5,115C 195.833,114.667 200.167,114.333 204.5,114C 201.833,113.667 199.167,113.333 196.5,113C 200.291,111.982 204.125,111.149 208,110.5C 209.011,111.056 209.844,111.722 210.5,112.5 Z"/></g>
<g><path style="opacity:1" fill="#e8ddab" d="M 153.5,113.5 C 155.199,113.34 156.866,113.506 158.5,114C 161.586,116.872 165.253,118.706 169.5,119.5C 170.768,118.572 172.101,118.405 173.5,119C 170.526,122.45 168.192,126.283 166.5,130.5C 162.493,129.77 160.327,127.437 160,123.5C 159.751,124.624 159.251,125.624 158.5,126.5C 155.035,123.993 151.369,121.66 147.5,119.5C 149.215,117.118 151.215,115.118 153.5,113.5 Z"/></g>
<g><path style="opacity:1" fill="#870014" d="M 147.5,122.5 C 148.922,122.709 150.255,123.209 151.5,124C 149.833,125.667 148.167,127.333 146.5,129C 142.491,129.748 138.824,131.248 135.5,133.5C 134.692,133.192 134.025,132.692 133.5,132C 136.363,130.601 139.363,129.601 142.5,129C 144.79,127.223 146.457,125.056 147.5,122.5 Z"/></g>
<g><path style="opacity:1" fill="#313131" d="M 108.5,125.5 C 109.065,127.386 110.065,129.053 111.5,130.5C 116.483,127.557 121.816,126.391 127.5,127C 130.317,129.638 132.65,132.638 134.5,136C 141.203,135.772 147.369,137.272 153,140.5C 154.285,140.05 155.452,139.383 156.5,138.5C 155.869,140.478 155.869,142.645 156.5,145C 162.493,144.888 167.826,146.555 172.5,150C 169.384,153.867 170.05,156.867 174.5,159C 172.457,162.253 170.29,165.42 168,168.5C 165.106,165.639 161.939,163.139 158.5,161C 161.487,159.896 164.487,158.73 167.5,157.5C 162.198,156.671 156.864,156.171 151.5,156C 149.651,154.907 147.984,153.574 146.5,152C 151.53,151.552 156.53,150.886 161.5,150C 154.957,148.612 148.457,148.446 142,149.5C 141.097,148.299 139.931,147.465 138.5,147C 142.642,146.273 146.642,145.273 150.5,144C 144.916,143.194 139.416,143.361 134,144.5C 132.581,143.54 131.081,142.707 129.5,142C 134.151,141.101 138.818,140.268 143.5,139.5C 142.5,139.167 141.5,138.833 140.5,138.5C 135.266,139.031 130.1,139.698 125,140.5C 123.933,139.809 122.766,139.309 121.5,139C 124.597,136.609 126.763,133.776 128,130.5C 124.655,133.339 120.989,135.672 117,137.5C 114.965,136.399 112.798,135.732 110.5,135.5C 103.261,136.907 96.2607,138.74 89.5,141C 94.1667,137.333 98.8333,133.667 103.5,130C 97.2879,132.194 91.4546,135.361 86,139.5C 86.2672,136.137 87.7672,133.303 90.5,131C 95.0801,129.617 99.7468,128.617 104.5,128C 106.066,127.392 107.4,126.558 108.5,125.5 Z"/></g>
<g><path style="opacity:1" fill="#b28a00" d="M 206.5,127.5 C 207.531,128.249 208.698,128.915 210,129.5C 210.591,133.882 212.091,137.882 214.5,141.5C 212.23,143.975 209.563,145.975 206.5,147.5C 204.172,142.23 201.839,136.897 199.5,131.5C 199.464,128.699 200.797,126.865 203.5,126C 204.788,125.761 205.788,126.261 206.5,127.5 Z"/></g>
<g><path style="opacity:1" fill="#fefffe" d="M 152.5,129.5 C 156.134,130.292 159.467,131.792 162.5,134C 158.074,134.791 153.741,134.457 149.5,133C 150.71,131.961 151.71,130.794 152.5,129.5 Z"/></g>
<g><path style="opacity:1" fill="#690c12" d="M 186.5,150.5 C 179.02,169.134 167.02,184.134 150.5,195.5C 149.508,195.328 148.842,195.662 148.5,196.5C 148.167,197.5 147.5,198.167 146.5,198.5C 140.896,201.445 135.562,204.779 130.5,208.5C 127.079,208.482 124.412,207.149 122.5,204.5C 125.307,205.657 127.974,205.657 130.5,204.5C 137.348,201.247 143.681,197.247 149.5,192.5C 155.138,187.033 160.971,181.699 167,176.5C 172.358,169.106 177.191,161.44 181.5,153.5C 185.309,148.628 186.642,143.128 185.5,137C 182.634,135.543 179.634,135.21 176.5,136C 170.307,137.432 164.64,139.932 159.5,143.5C 158.833,143.333 158.167,143.167 157.5,143C 164.652,134.838 173.652,131.838 184.5,134C 186.871,135.743 188.205,138.077 188.5,141C 187.75,144.163 187.084,147.33 186.5,150.5 Z"/></g>
<g><path style="opacity:1" fill="#fefffe" d="M 192.5,136.5 C 193.376,136.369 194.043,136.702 194.5,137.5C 196.509,141.172 198.509,144.839 200.5,148.5C 200.333,149.167 200.167,149.833 200,150.5C 198.266,147.078 195.433,145.411 191.5,145.5C 191.264,142.391 191.597,139.391 192.5,136.5 Z"/></g>
<g><path style="opacity:1" fill="#6a6b6a" d="M 109.5,138.5 C 109.56,137.957 109.893,137.624 110.5,137.5C 115.319,139.049 119.986,140.882 124.5,143C 121.005,146.251 117.005,148.751 112.5,150.5C 111.822,146.29 110.822,142.29 109.5,138.5 Z"/></g>
<g><path style="opacity:1" fill="#870014" d="M 106.5,138.5 C 108.067,139.681 108.901,141.347 109,143.5C 109.667,146.167 109.667,148.833 109,151.5C 107.842,147.225 107.008,142.891 106.5,138.5 Z"/></g>
<g><path style="opacity:1" fill="#fefffe" d="M 178.5,138.5 C 180.308,138.491 181.975,138.991 183.5,140C 182.773,142.124 182.106,144.291 181.5,146.5C 179.807,147.228 178.307,148.228 177,149.5C 176.667,148.167 176.333,146.833 176,145.5C 173.815,144.33 171.649,143.164 169.5,142C 172.571,140.704 175.571,139.538 178.5,138.5 Z M 176.5,142.5 C 177.79,143.058 178.623,144.058 179,145.5C 179.5,144.5 180,143.5 180.5,142.5C 179.042,141.218 177.708,141.218 176.5,142.5 Z"/></g>
<g><path style="opacity:1" fill="#6a6b6a" d="M 96.5,140.5 C 97.9778,140.238 99.3112,140.571 100.5,141.5C 98.1829,145.146 95.5162,148.48 92.5,151.5C 89.6328,149.958 87.2994,147.791 85.5,145C 89.6188,144.356 93.2855,142.856 96.5,140.5 Z"/></g>
<g><path style="opacity:1" fill="#6689b9" d="M 238.5,146.5 C 232.491,146.334 226.491,146.501 220.5,147C 215.592,148.121 211.259,150.287 207.5,153.5C 207.063,151.926 206.063,150.759 204.5,150C 213.495,143.764 223.495,140.598 234.5,140.5C 237.036,141.702 238.37,143.702 238.5,146.5 Z"/></g>
<g><path style="opacity:1" fill="#870014" d="M 112.5,153.5 C 117.62,151.099 122.286,147.932 126.5,144C 127.332,143.312 127.998,143.479 128.5,144.5C 127.872,146.258 126.872,147.758 125.5,149C 121.135,150.521 116.802,152.021 112.5,153.5 Z"/></g>
<g><path style="opacity:1" fill="#6a6b6a" d="M 104.5,144.5 C 105.657,147.273 106.324,150.273 106.5,153.5C 103.421,153.804 100.587,154.804 98,156.5C 97.5,156 97,155.5 96.5,155C 100.175,152.172 102.842,148.672 104.5,144.5 Z"/></g>
<g><path style="opacity:1" fill="#676767" d="M 165.5,171.5 C 160.251,177.087 154.918,182.754 149.5,188.5C 148.218,189.958 148.218,191.292 149.5,192.5C 143.681,197.247 137.348,201.247 130.5,204.5C 129.508,204.672 128.842,204.338 128.5,203.5C 131.536,195.931 131.036,188.598 127,181.5C 122.269,176.938 117.769,172.271 113.5,167.5C 113.105,163.815 112.938,160.148 113,156.5C 117.315,154.261 121.815,152.428 126.5,151C 128.228,149.027 130.061,147.194 132,145.5C 144.056,152.89 155.556,161.057 166.5,170C 165.944,170.383 165.611,170.883 165.5,171.5 Z"/></g>
<g><path style="opacity:1" fill="#fef200" d="M 237.5,148.5 C 238.167,148.5 238.833,148.5 239.5,148.5C 240.125,159.725 241.458,170.725 243.5,181.5C 243.581,186.477 244.581,191.143 246.5,195.5C 246.631,196.376 246.298,197.043 245.5,197.5C 245.26,192.201 243.76,191.535 241,195.5C 240.335,189.646 240.501,183.813 241.5,178C 239.381,168.351 238.048,158.518 237.5,148.5 Z"/></g>
<g><path style="opacity:1" fill="#626262" d="M 86.5,156.5 C 86.1667,157.167 85.8333,157.833 85.5,158.5C 83.7376,159.262 82.7376,160.596 82.5,162.5C 81.8333,162.5 81.1667,162.5 80.5,162.5C 79.2089,161.458 79.2089,160.292 80.5,159C 78.6618,156.697 76.3285,156.031 73.5,157C 71.9644,158.599 71.4644,160.433 72,162.5C 74.0581,163.229 75.8914,164.229 77.5,165.5C 74.8579,169.775 71.5246,173.442 67.5,176.5C 61.2126,174.471 60.046,170.804 64,165.5C 67.995,159.342 72.8283,154.008 78.5,149.5C 81.6136,151.38 84.2802,153.713 86.5,156.5 Z"/></g>
<g><path style="opacity:1" fill="#f1e8e0" d="M 230.5,150.5 C 231.833,152.167 231.833,153.833 230.5,155.5C 229.883,155.611 229.383,155.944 229,156.5C 226.257,154.212 223.423,152.045 220.5,150C 223.924,149.253 227.257,149.42 230.5,150.5 Z"/></g>
<g><path style="opacity:1" fill="#5d7da8" d="M 230.5,155.5 C 231.833,153.833 231.833,152.167 230.5,150.5C 231.919,149.549 233.585,149.216 235.5,149.5C 236.496,154.463 236.663,159.463 236,164.5C 234.311,161.333 232.478,158.333 230.5,155.5 Z"/></g>
<g><path style="opacity:1" fill="#ece3dc" d="M 238.5,146.5 C 240.105,147.006 240.439,147.673 239.5,148.5C 238.833,148.5 238.167,148.5 237.5,148.5C 230.411,148.116 223.411,148.616 216.5,150C 216.957,150.414 217.291,150.914 217.5,151.5C 214.472,161.6 212.805,171.933 212.5,182.5C 209.897,181.438 207.23,181.272 204.5,182C 202.352,184.075 202.018,186.408 203.5,189C 206.956,190.481 210.289,192.148 213.5,194C 209.486,197.164 206.486,200.997 204.5,205.5C 203.5,205.167 202.833,204.5 202.5,203.5C 207.801,194.932 205.468,190.765 195.5,191C 195.043,190.586 194.709,190.086 194.5,189.5C 199.47,181.365 204.636,173.365 210,165.5C 210.667,163.167 210.667,160.833 210,158.5C 208.628,157.09 207.795,155.423 207.5,153.5C 211.259,150.287 215.592,148.121 220.5,147C 226.491,146.501 232.491,146.334 238.5,146.5 Z"/></g>
<g><path style="opacity:1" fill="#d5ac97" d="M 181.5,153.5 C 177.191,161.44 172.358,169.106 167,176.5C 160.971,181.699 155.138,187.033 149.5,192.5C 148.218,191.292 148.218,189.958 149.5,188.5C 154.918,182.754 160.251,177.087 165.5,171.5C 167.716,170.797 169.549,169.464 171,167.5C 173.693,162.093 176.86,157.093 180.5,152.5C 181.107,152.624 181.44,152.957 181.5,153.5 Z"/></g>
<g><path style="opacity:1" fill="#7291be" d="M 232.5,163.5 C 231.373,164.122 230.373,164.955 229.5,166C 230.756,166.417 231.423,167.25 231.5,168.5C 228.164,167.477 226.664,165.144 227,161.5C 224.186,158.824 222.186,155.824 221,152.5C 223.743,154.788 226.577,156.955 229.5,159C 231.141,160.129 232.141,161.629 232.5,163.5 Z"/></g>
<g><path style="opacity:1" fill="#fef200" d="M 218.5,154.5 C 219.872,155.888 220.872,157.555 221.5,159.5C 220.233,168.548 219.733,177.548 220,186.5C 218.915,185.707 217.748,185.04 216.5,184.5C 215.018,174.355 215.685,164.355 218.5,154.5 Z"/></g>
<g><path style="opacity:1" fill="#6385b4" d="M 249.5,160.5 C 250.734,162.66 252.067,164.827 253.5,167C 273.487,168.333 273.487,167.667 253.5,165C 252.594,162.779 251.594,160.612 250.5,158.5C 257.796,154.393 265.129,154.559 272.5,159C 273.215,161.081 274.215,163.247 275.5,165.5C 274.877,167.711 273.877,169.711 272.5,171.5C 268.745,170.457 264.912,169.791 261,169.5C 256.804,170.346 252.637,171.346 248.5,172.5C 248.237,168.4 248.57,164.4 249.5,160.5 Z"/></g>
<g><path style="opacity:1" fill="#0c0c0c" d="M 80.5,162.5 C 80.1667,163.167 79.8333,163.833 79.5,164.5C 78.8333,164.833 78.1667,165.167 77.5,165.5C 75.8914,164.229 74.0581,163.229 72,162.5C 71.4644,160.433 71.9644,158.599 73.5,157C 76.3285,156.031 78.6618,156.697 80.5,159C 79.2089,160.292 79.2089,161.458 80.5,162.5 Z"/></g>
<g><path style="opacity:1" fill="#870014" d="M 109.5,157.5 C 110.302,158.952 110.802,160.618 111,162.5C 111.667,169.167 111.667,175.833 111,182.5C 110.028,180.695 108.861,179.028 107.5,177.5C 108.687,172.365 108.687,167.198 107.5,162C 107.759,160.213 108.425,158.713 109.5,157.5 Z"/></g>
<g><path style="opacity:1" fill="#d7aa15" d="M 85.5,158.5 C 86.5794,160.543 88.246,161.876 90.5,162.5C 90.1436,164.19 89.1436,165.19 87.5,165.5C 86.7095,164.599 85.7095,163.932 84.5,163.5C 83.5084,163.672 82.8417,163.338 82.5,162.5C 82.7376,160.596 83.7376,159.262 85.5,158.5 Z"/></g>
<g><path style="opacity:1" fill="#6b0b12" d="M 86.5,156.5 C 88.7952,157.475 90.7952,158.808 92.5,160.5C 91.8333,161.167 91.1667,161.833 90.5,162.5C 88.246,161.876 86.5794,160.543 85.5,158.5C 85.8333,157.833 86.1667,157.167 86.5,156.5 Z"/></g>
<g><path style="opacity:1" fill="#f1e8e0" d="M 250.5,158.5 C 251.594,160.612 252.594,162.779 253.5,165C 273.487,167.667 273.487,168.333 253.5,167C 252.067,164.827 250.734,162.66 249.5,160.5C 249.328,159.508 249.662,158.842 250.5,158.5 Z"/></g>
<g><path style="opacity:1" fill="#2c2c2c" d="M 92.5,160.5 C 92.8333,160.5 93.1667,160.5 93.5,160.5C 94.6006,161.848 95.6006,163.348 96.5,165C 92.4722,167.349 88.8055,170.183 85.5,173.5C 84.5713,172.311 84.238,170.978 84.5,169.5C 86.9118,169.306 87.9118,167.973 87.5,165.5C 89.1436,165.19 90.1436,164.19 90.5,162.5C 91.1667,161.833 91.8333,161.167 92.5,160.5 Z"/></g>
<g><path style="opacity:1" fill="#e7d1c5" d="M 223.5,161.5 C 225.828,162.736 226.994,164.736 227,167.5C 230.004,169.674 232.837,172.008 235.5,174.5C 231.815,179.019 227.648,183.019 223,186.5C 222.131,184.419 221.631,182.253 221.5,180C 222.05,173.768 222.717,167.601 223.5,161.5 Z"/></g>
<g><path style="opacity:1" fill="#000000" d="M 84.5,163.5 C 85.7095,163.932 86.7095,164.599 87.5,165.5C 85.8212,165.715 84.8212,165.048 84.5,163.5 Z"/></g>
<g><path style="opacity:1" fill="#c4cfe3" d="M 232.5,163.5 C 235.308,165.417 236.475,168.084 236,171.5C 234.591,170.219 233.091,169.219 231.5,168.5C 231.423,167.25 230.756,166.417 229.5,166C 230.373,164.955 231.373,164.122 232.5,163.5 Z"/></g>
<g><path style="opacity:1" fill="#840214" d="M 79.5,164.5 C 80.5,164.833 81.1667,165.5 81.5,166.5C 78.2317,171.107 74.5651,175.441 70.5,179.5C 68.8998,180.512 67.5665,180.012 66.5,178C 67.056,177.617 67.3893,177.117 67.5,176.5C 71.5246,173.442 74.8579,169.775 77.5,165.5C 78.1667,165.167 78.8333,164.833 79.5,164.5 Z"/></g>
<g><path style="opacity:1" fill="#f8c30f" d="M 80.5,162.5 C 81.1667,162.5 81.8333,162.5 82.5,162.5C 82.8417,163.338 83.5084,163.672 84.5,163.5C 84.8212,165.048 85.8212,165.715 87.5,165.5C 87.9118,167.973 86.9118,169.306 84.5,169.5C 84.1436,167.81 83.1436,166.81 81.5,166.5C 81.1667,165.5 80.5,164.833 79.5,164.5C 79.8333,163.833 80.1667,163.167 80.5,162.5 Z"/></g>
<g><path style="opacity:1" fill="#7f0414" d="M 112.5,153.5 C 108.027,155.905 103.694,158.571 99.5,161.5C 101.483,163.984 103.65,166.317 106,168.5C 106.765,170.066 106.598,171.399 105.5,172.5C 104.055,170.937 102.389,169.604 100.5,168.5C 100.189,167.522 99.5223,166.855 98.5,166.5C 97.3067,168.527 95.64,170.027 93.5,171C 94.3081,171.308 94.9747,171.808 95.5,172.5C 93.5832,177.099 91.9165,181.766 90.5,186.5C 90.5165,183.191 91.1832,179.691 92.5,176C 91.7252,173.016 90.7252,172.849 89.5,175.5C 85.183,178.486 81.183,181.82 77.5,185.5C 75.0882,185.306 74.0882,183.973 74.5,181.5C 78.2101,177.792 81.5434,173.792 84.5,169.5C 84.238,170.978 84.5713,172.311 85.5,173.5C 88.8055,170.183 92.4722,167.349 96.5,165C 95.6006,163.348 94.6006,161.848 93.5,160.5C 93.719,159.325 93.3857,158.325 92.5,157.5C 87.8482,154.179 83.5149,150.513 79.5,146.5C 80.6283,145.738 81.7949,145.071 83,144.5C 84.8994,148.66 87.8994,151.66 92,153.5C 97.8528,149.981 101.853,144.981 104,138.5C 104.667,139.833 104.667,141.167 104,142.5C 101.757,146.748 98.7565,150.414 95,153.5C 94.2765,156.125 95.2765,157.792 98,158.5C 102.756,156.526 107.59,154.859 112.5,153.5 Z"/></g>
<g><path style="opacity:1" fill="#000000" d="M 100.5,168.5 C 99.5041,168.414 98.6708,168.748 98,169.5C 96.6379,173.723 95.1379,177.889 93.5,182C 93.6842,183.376 94.3509,184.209 95.5,184.5C 94.9094,185.151 94.2427,185.818 93.5,186.5C 93.6236,187.107 93.9569,187.44 94.5,187.5C 90.2063,186.244 85.8729,186.244 81.5,187.5C 83.8734,186.101 86.3734,184.768 89,183.5C 89.7611,180.947 90.5944,178.447 91.5,176C 90.9056,175.536 90.2389,175.369 89.5,175.5C 90.7252,172.849 91.7252,173.016 92.5,176C 91.1832,179.691 90.5165,183.191 90.5,186.5C 91.9165,181.766 93.5832,177.099 95.5,172.5C 94.9747,171.808 94.3081,171.308 93.5,171C 95.64,170.027 97.3067,168.527 98.5,166.5C 99.5223,166.855 100.189,167.522 100.5,168.5 Z"/></g>
<g><path style="opacity:1" fill="#515251" d="M 113.5,167.5 C 117.769,172.271 122.269,176.938 127,181.5C 131.036,188.598 131.536,195.931 128.5,203.5C 126.871,202.375 125.371,201.041 124,199.5C 121.489,193.655 118.156,188.322 114,183.5C 113.501,178.177 113.334,172.844 113.5,167.5 Z"/></g>
<g><path style="opacity:1" fill="#444444" d="M 81.5,166.5 C 83.1436,166.81 84.1436,167.81 84.5,169.5C 81.5434,173.792 78.2101,177.792 74.5,181.5C 72.1707,183.002 70.8373,182.336 70.5,179.5C 74.5651,175.441 78.2317,171.107 81.5,166.5 Z"/></g>
<g><path style="opacity:1" fill="#4d4d4d" d="M 100.5,168.5 C 102.389,169.604 104.055,170.937 105.5,172.5C 106.275,174.388 106.275,176.388 105.5,178.5C 102.324,179.34 99.6576,181.007 97.5,183.5C 97.1583,184.338 96.4916,184.672 95.5,184.5C 94.3509,184.209 93.6842,183.376 93.5,182C 95.1379,177.889 96.6379,173.723 98,169.5C 98.6708,168.748 99.5041,168.414 100.5,168.5 Z"/></g>
<g><path style="opacity:1" fill="#6689b9" d="M 273.5,182.5 C 271.342,175.078 266.342,172.245 258.5,174C 251.131,175.611 248.464,180.111 250.5,187.5C 249.007,186.688 248.34,185.355 248.5,183.5C 248.738,180.201 249.738,177.201 251.5,174.5C 254.658,173.504 257.825,172.504 261,171.5C 265.188,172.115 269.355,172.781 273.5,173.5C 274.551,176.656 274.551,179.656 273.5,182.5 Z"/></g>
<g><path style="opacity:1" fill="#870014" d="M 77.5,190.5 C 76.7456,192.446 75.4122,193.279 73.5,193C 70.3333,189.167 67.1667,185.333 64,181.5C 62.0657,178.966 60.7323,176.299 60,173.5C 65.7552,179.424 71.5886,185.091 77.5,190.5 Z"/></g>
<g><path style="opacity:1" fill="#6182b0" d="M 275.5,188.5 C 275.894,195.496 276.227,202.496 276.5,209.5C 267.297,205.735 257.964,202.235 248.5,199C 247.915,197.698 247.249,196.531 246.5,195.5C 244.581,191.143 243.581,186.477 243.5,181.5C 243.5,178.833 243.5,176.167 243.5,173.5C 245.288,173.215 246.955,173.548 248.5,174.5C 244.055,183.94 246.389,191.107 255.5,196C 264.745,199.864 271.412,197.364 275.5,188.5 Z"/></g>
<g><path style="opacity:1" fill="#fefffe" d="M 273.5,182.5 C 272.79,193.714 267.124,197.547 256.5,194C 253.591,192.594 251.591,190.428 250.5,187.5C 248.464,180.111 251.131,175.611 258.5,174C 266.342,172.245 271.342,175.078 273.5,182.5 Z"/></g>
<g><path style="opacity:1" fill="#d0a794" d="M 186.5,150.5 C 196.449,151.98 203.115,157.48 206.5,167C 201.709,174.081 197.042,181.248 192.5,188.5C 190.267,189.742 188.101,191.076 186,192.5C 185.333,195.167 185.333,197.833 186,200.5C 189.122,207.232 190.289,214.232 189.5,221.5C 181.956,219.263 174.29,217.429 166.5,216C 165.141,214.796 164.141,213.296 163.5,211.5C 162.304,211.846 162.304,212.346 163.5,213C 155.28,210.254 150.947,204.421 150.5,195.5C 167.02,184.134 179.02,169.134 186.5,150.5 Z"/></g>
<g><path style="opacity:1" fill="#000000" d="M 187.5,166.5 C 190.674,166.952 191.007,167.952 188.5,169.5C 187.614,168.675 187.281,167.675 187.5,166.5 Z"/></g>
<g><path style="opacity:1" fill="#000000" d="M 192.5,160.5 C 194.973,160.947 195.14,161.947 193,163.5C 192.517,162.552 192.351,161.552 192.5,160.5 Z"/></g>
<g><path style="opacity:1" fill="#000000" d="M 191.5,154.5 C 195.339,154.612 195.339,155.279 191.5,156.5C 190.537,156.03 190.537,155.363 191.5,154.5 Z"/></g>
<g><path style="opacity:1" fill="#c08465" d="M 237.5,174.5 C 238.947,175.134 239.613,176.301 239.5,178C 238.787,183.476 238.287,188.976 238,194.5C 233.723,191.964 229.223,189.797 224.5,188C 229.731,184.27 234.065,179.77 237.5,174.5 Z"/></g>
<g><path style="opacity:1" fill="#6689b9" d="M 260.5,174.5 C 269.146,175.143 272.313,179.809 270,188.5C 264.894,194.618 259.56,194.951 254,189.5C 250.75,182.01 252.917,177.01 260.5,174.5 Z"/></g>
<g><path style="opacity:1" fill="#656565" d="M 68.5,191.5 C 66.4352,191.517 64.4352,191.85 62.5,192.5C 61.5655,193.568 61.2322,194.901 61.5,196.5C 51.5031,198.332 48.0031,194.332 51,184.5C 53.0917,181.319 55.425,178.319 58,175.5C 60.5844,181.077 64.251,185.743 69,189.5C 69.6917,190.437 69.525,191.103 68.5,191.5 Z"/></g>
<g><path style="opacity:1" fill="#444444" d="M 89.5,175.5 C 90.2389,175.369 90.9056,175.536 91.5,176C 90.5944,178.447 89.7611,180.947 89,183.5C 86.3734,184.768 83.8734,186.101 81.5,187.5C 81.1667,188.5 80.5,189.167 79.5,189.5C 78.8333,189.833 78.1667,190.167 77.5,190.5C 77.5,188.833 77.5,187.167 77.5,185.5C 81.183,181.82 85.183,178.486 89.5,175.5 Z"/></g>
<g><path style="opacity:1" fill="#fefffe" d="M 261.5,177.5 C 263.508,178.301 264.008,179.634 263,181.5C 263.654,180.304 264.154,180.304 264.5,181.5C 263.833,182.167 263.167,182.833 262.5,183.5C 263.167,183.833 263.833,184.167 264.5,184.5C 261.972,185.517 261.972,186.684 264.5,188C 263.667,188.833 262.833,189.667 262,190.5C 259.174,189.083 259.007,187.583 261.5,186C 260.692,185.692 260.025,185.192 259.5,184.5C 260.167,184.167 260.833,183.833 261.5,183.5C 260.833,182.833 260.167,182.167 259.5,181.5C 259.846,180.304 260.346,180.304 261,181.5C 260.645,180.041 260.811,178.707 261.5,177.5 Z"/></g>
<g><path style="opacity:1" fill="#840114" d="M 122.5,204.5 C 117.732,201.58 113.066,198.414 108.5,195C 102.177,191.869 95.5108,190.535 88.5,191C 87.7262,193.44 86.0595,194.773 83.5,195C 83.9574,195.414 84.2907,195.914 84.5,196.5C 83.635,197.583 82.635,197.749 81.5,197C 80.4495,195.615 79.1161,194.615 77.5,194C 78.5822,192.67 79.2488,191.17 79.5,189.5C 80.5,189.167 81.1667,188.5 81.5,187.5C 85.8729,186.244 90.2063,186.244 94.5,187.5C 98.3069,189.361 102.307,190.527 106.5,191C 107.972,187.448 106.638,185.782 102.5,186C 101.934,185.005 101.267,184.172 100.5,183.5C 104.468,179.154 107.802,179.654 110.5,185C 110.153,192.553 113.82,197.553 121.5,200C 120.833,200.333 120.167,200.667 119.5,201C 120.71,202.039 121.71,203.206 122.5,204.5 Z"/></g>
<g><path style="opacity:1" fill="#870014" d="M 97.5,183.5 C 98.5,183.5 99.5,183.5 100.5,183.5C 98.5,184.833 96.5,186.167 94.5,187.5C 93.9569,187.44 93.6236,187.107 93.5,186.5C 94.2427,185.818 94.9094,185.151 95.5,184.5C 96.4916,184.672 97.1583,184.338 97.5,183.5 Z"/></g>
<g><path style="opacity:1" fill="#000000" d="M 100.5,183.5 C 101.267,184.172 101.934,185.005 102.5,186C 106.638,185.782 107.972,187.448 106.5,191C 102.307,190.527 98.3069,189.361 94.5,187.5C 96.5,186.167 98.5,184.833 100.5,183.5 Z"/></g>
<g><path style="opacity:1" fill="#6689b9" d="M 280.5,184.5 C 282.351,193.639 283.351,202.973 283.5,212.5C 281.716,212.107 280.05,211.441 278.5,210.5C 278.269,202.495 277.935,194.495 277.5,186.5C 277.5,185.5 277.5,184.5 277.5,183.5C 278.791,183.263 279.791,183.596 280.5,184.5 Z"/></g>
<g><path style="opacity:1" fill="#f1e8e0" d="M 280.5,184.5 C 284.19,193.641 285.69,203.307 285,213.5C 284.617,212.944 284.117,212.611 283.5,212.5C 283.351,202.973 282.351,193.639 280.5,184.5 Z"/></g>
<g><path style="opacity:1" fill="#f1e8e0" d="M 277.5,186.5 C 277.935,194.495 278.269,202.495 278.5,210.5C 277.508,210.672 276.842,210.338 276.5,209.5C 276.227,202.496 275.894,195.496 275.5,188.5C 275.5,187.167 276.167,186.5 277.5,186.5 Z"/></g>
<g><path style="opacity:1" fill="#000000" d="M 165.5,189.5 C 166.043,189.56 166.376,189.893 166.5,190.5C 163.23,192.959 162.897,192.625 165.5,189.5 Z"/></g>
<g><path style="opacity:1" fill="#bbbbbb" d="M 68.5,191.5 C 69.9302,193.155 70.7635,195.155 71,197.5C 74.1785,199.543 73.8452,201.209 70,202.5C 69.0546,202.095 68.3879,201.428 68,200.5C 66.3718,201.097 64.7051,200.763 63,199.5C 62.5034,197.19 62.3367,194.857 62.5,192.5C 64.4352,191.85 66.4352,191.517 68.5,191.5 Z"/></g>
<g><path style="opacity:1" fill="#676767" d="M 375.5,331.5 C 376.029,333.583 377.029,335.417 378.5,337C 380.78,337.233 382.78,338.066 384.5,339.5C 382.309,343.24 380.809,347.24 380,351.5C 377.563,348.624 376.23,345.29 376,341.5C 375.667,342.167 375.333,342.833 375,343.5C 372.877,340.701 370.21,338.701 367,337.5C 366.316,336.216 366.483,335.049 367.5,334C 366.572,333.612 365.905,332.945 365.5,332C 364.032,317.013 358.365,305.346 348.5,297C 337.711,290.066 326.045,285.066 313.5,282C 306.737,277.568 299.737,273.568 292.5,270C 284.197,262.698 276.197,255.031 268.5,247C 267.552,246.517 266.552,246.351 265.5,246.5C 266.264,249.787 268.097,252.454 271,254.5C 271.688,255.332 271.521,255.998 270.5,256.5C 260.193,262.602 249.193,266.935 237.5,269.5C 229.502,268.757 223.335,265.09 219,258.5C 218.801,250.784 218.301,243.118 217.5,235.5C 217.863,234.817 218.196,234.15 218.5,233.5C 219.241,228.564 221.074,228.23 224,232.5C 224.116,226.891 225.782,226.224 229,230.5C 229.049,225.575 230.882,224.575 234.5,227.5C 235.123,225.034 235.957,222.701 237,220.5C 238.039,221.244 238.539,222.244 238.5,223.5C 239.153,229.608 240.819,235.442 243.5,241C 258.531,239.913 273.531,238.247 288.5,236C 289.022,235.439 289.355,234.772 289.5,234C 288.263,230.902 287.763,227.735 288,224.5C 293.148,226.935 298.314,229.269 303.5,231.5C 310.591,230.505 312.258,227.005 308.5,221C 302.071,217.412 295.238,215.245 288,214.5C 287.634,207.269 286.801,200.103 285.5,193C 301.13,191.769 314.963,196.602 327,207.5C 328.783,213.067 331.117,218.401 334,223.5C 336.527,238.097 337.194,252.764 336,267.5C 340.561,271.866 345.728,275.366 351.5,278C 350.833,278.333 350.167,278.667 349.5,279C 351.167,279.833 352.833,280.667 354.5,281.5C 357.904,280.1 360.904,280.766 363.5,283.5C 365.096,289.741 366.263,296.074 367,302.5C 368.361,307.328 370.695,312.661 374,318.5C 375.771,319.304 377.271,320.471 378.5,322C 378.002,325.42 377.002,328.587 375.5,331.5 Z"/></g>
<g><path style="opacity:1" fill="#c08465" d="M 221.5,197.5 C 215.473,201.527 210.473,206.527 206.5,212.5C 206.573,205.146 209.906,199.146 216.5,194.5C 218.396,195.275 220.063,196.275 221.5,197.5 Z"/></g>
<g><path style="opacity:1" fill="#01a0e6" d="M 148.5,196.5 C 149.429,199.675 150.262,203.009 151,206.5C 157.455,213.449 164.955,218.449 173.5,221.5C 171.771,222.117 170.271,223.117 169,224.5C 167.795,219.024 165.628,218.357 162.5,222.5C 161.833,222.5 161.167,222.5 160.5,222.5C 160.291,221.078 159.791,219.745 159,218.5C 158.31,217.262 157.81,217.262 157.5,218.5C 156.833,217.833 156.167,217.167 155.5,216.5C 154.97,212.971 153.637,212.638 151.5,215.5C 151.12,213.979 150.954,212.313 151,210.5C 149.601,209.773 148.101,209.273 146.5,209C 147.672,208.581 148.672,207.915 149.5,207C 148.051,205.883 146.384,205.216 144.5,205C 145.833,203.667 147.167,202.333 148.5,201C 147.619,200.292 146.953,199.458 146.5,198.5C 147.5,198.167 148.167,197.5 148.5,196.5 Z"/></g>
<g><path style="opacity:1" fill="#2c2c2c" d="M 329.5,196.5 C 338.723,198.302 348.057,199.469 357.5,200C 371.592,206.92 386.259,212.253 401.5,216C 409.863,216.774 418.196,216.607 426.5,215.5C 432.066,217.023 437.733,217.69 443.5,217.5C 443.029,221.503 441.029,224.669 437.5,227C 431.634,231.031 425.634,234.864 419.5,238.5C 415.678,236.405 411.678,235.238 407.5,235C 406.95,236.845 405.95,238.345 404.5,239.5C 397.738,236.52 390.738,234.686 383.5,234C 382.976,237.262 384.143,240.095 387,242.5C 387.982,243.759 388.315,245.092 388,246.5C 385.553,245.594 383.053,244.761 380.5,244C 374.072,237.227 366.406,232.561 357.5,230C 350.069,219.734 341.735,210.234 332.5,201.5C 331.556,205.535 332.223,209.368 334.5,213C 334.167,213.167 333.833,213.333 333.5,213.5C 331.919,207.085 328.252,202.252 322.5,199C 325.004,198.302 327.337,197.469 329.5,196.5 Z"/></g>
<g><path style="opacity:1" fill="#000000" d="M 155.5,197.5 C 157.983,197.73 158.483,198.397 157,199.5C 155.97,199.164 155.47,198.497 155.5,197.5 Z"/></g>
<g><path style="opacity:1" fill="#d4aa96" d="M 221.5,197.5 C 229.353,199.757 237.02,202.59 244.5,206C 245.956,206.423 246.456,207.256 246,208.5C 235.34,218.748 222.84,225.748 208.5,229.5C 207.248,223.901 206.582,218.234 206.5,212.5C 210.473,206.527 215.473,201.527 221.5,197.5 Z"/></g>
<g><path style="opacity:1" fill="#fec90d" d="M 240.5,198.5 C 241.5,198.5 242.5,198.5 243.5,198.5C 243.66,200.199 243.494,201.866 243,203.5C 241.581,202.54 240.081,201.707 238.5,201C 239.381,200.292 240.047,199.458 240.5,198.5 Z"/></g>
<g><path style="opacity:1" fill="#5c5c5c" d="M 146.5,198.5 C 146.953,199.458 147.619,200.292 148.5,201C 147.167,202.333 145.833,203.667 144.5,205C 146.384,205.216 148.051,205.883 149.5,207C 148.672,207.915 147.672,208.581 146.5,209C 148.101,209.273 149.601,209.773 151,210.5C 150.954,212.313 151.12,213.979 151.5,215.5C 153.637,212.638 154.97,212.971 155.5,216.5C 155.719,217.675 155.386,218.675 154.5,219.5C 149.226,222.191 143.726,224.191 138,225.5C 136.556,219.286 134.056,213.619 130.5,208.5C 135.562,204.779 140.896,201.445 146.5,198.5 Z"/></g>
<g><path style="opacity:1" fill="#000000" d="M 166.5,204.5 C 168.337,204.639 168.67,205.306 167.5,206.5C 166.702,206.043 166.369,205.376 166.5,204.5 Z"/></g>
<g><path style="opacity:1" fill="#000000" d="M 226.5,204.5 C 228.76,205.238 228.927,206.238 227,207.5C 226.517,206.552 226.351,205.552 226.5,204.5 Z"/></g>
<g><path style="opacity:1" fill="#000000" d="M 174.5,205.5 C 176.337,205.639 176.67,206.306 175.5,207.5C 174.702,207.043 174.369,206.376 174.5,205.5 Z"/></g>
<g><path style="opacity:1" fill="#000000" d="M 211.5,212.5 C 212.251,211.427 213.251,211.26 214.5,212C 213.648,213.728 212.648,213.895 211.5,212.5 Z"/></g>
<g><path style="opacity:1" fill="#000000" d="M 184.5,212.5 C 185.586,212.62 186.253,213.287 186.5,214.5C 186.167,215.167 185.833,215.833 185.5,216.5C 184.571,215.311 184.238,213.978 184.5,212.5 Z"/></g>
<g><path style="opacity:1" fill="#00a1e8" d="M 245.5,212.5 C 245.5,214.167 245.5,215.833 245.5,217.5C 243.833,217.5 242.167,217.5 240.5,217.5C 240.5,219.5 240.5,221.5 240.5,223.5C 239.833,223.5 239.167,223.5 238.5,223.5C 238.539,222.244 238.039,221.244 237,220.5C 235.957,222.701 235.123,225.034 234.5,227.5C 230.882,224.575 229.049,225.575 229,230.5C 225.782,226.224 224.116,226.891 224,232.5C 221.074,228.23 219.241,228.564 218.5,233.5C 215.807,230.566 213.641,230.9 212,234.5C 211.617,233.944 211.117,233.611 210.5,233.5C 209.909,232.849 209.243,232.182 208.5,231.5C 222.374,228.064 234.707,221.73 245.5,212.5 Z"/></g>
<g><path style="opacity:1" fill="#000000" d="M 245.5,212.5 C 246.239,212.369 246.906,212.536 247.5,213C 246.891,214.948 246.224,216.782 245.5,218.5C 244.167,218.5 242.833,218.5 241.5,218.5C 241.5,219.833 241.5,221.167 241.5,222.5C 241.5,223.167 241.167,223.5 240.5,223.5C 240.5,221.5 240.5,219.5 240.5,217.5C 242.167,217.5 243.833,217.5 245.5,217.5C 245.5,215.833 245.5,214.167 245.5,212.5 Z"/></g>
<g><path style="opacity:1" fill="#000000" d="M 233.5,213.5 C 235.337,213.639 235.67,214.306 234.5,215.5C 233.702,215.043 233.369,214.376 233.5,213.5 Z"/></g>
<g><path style="opacity:1" fill="#6689b8" d="M 276.5,220.5 C 276.67,221.822 276.337,222.989 275.5,224C 267.891,225.822 260.225,227.322 252.5,228.5C 252.001,224.51 251.501,220.51 251,216.5C 250.333,215.833 249.667,215.167 249,214.5C 249.627,219.476 250.46,224.476 251.5,229.5C 260.522,228.636 269.355,226.969 278,224.5C 278.483,223.552 278.649,222.552 278.5,221.5C 279.959,221.433 281.292,221.766 282.5,222.5C 283.363,226.162 282.03,228.328 278.5,229C 268.222,230.935 257.889,232.435 247.5,233.5C 246.647,228.53 245.98,223.53 245.5,218.5C 246.224,216.782 246.891,214.948 247.5,213C 246.906,212.536 246.239,212.369 245.5,212.5C 247.516,209.856 250.183,209.023 253.5,210C 261.476,213.038 269.143,216.538 276.5,220.5 Z"/></g>
<g><path style="opacity:1" fill="#000000" d="M 223.5,214.5 C 225.337,214.639 225.67,215.306 224.5,216.5C 223.702,216.043 223.369,215.376 223.5,214.5 Z"/></g>
<g><path style="opacity:1" fill="#f1e8e0" d="M 276.5,220.5 C 277.492,220.328 278.158,220.662 278.5,221.5C 278.649,222.552 278.483,223.552 278,224.5C 269.355,226.969 260.522,228.636 251.5,229.5C 250.46,224.476 249.627,219.476 249,214.5C 249.667,215.167 250.333,215.833 251,216.5C 251.501,220.51 252.001,224.51 252.5,228.5C 260.225,227.322 267.891,225.822 275.5,224C 276.337,222.989 276.67,221.822 276.5,220.5 Z"/></g>
<g><path style="opacity:1" fill="#000000" d="M 215.5,217.5 C 217.085,218.002 217.585,219.002 217,220.5C 215.961,219.756 215.461,218.756 215.5,217.5 Z"/></g>
<g><path style="opacity:1" fill="#fec90d" d="M 292.5,217.5 C 297.435,218.368 302.102,220.034 306.5,222.5C 309.32,225.901 308.486,228.235 304,229.5C 300.27,227.477 296.437,225.644 292.5,224C 292.014,221.973 292.014,219.807 292.5,217.5 Z"/></g>
<g><path style="opacity:1" fill="#7e0414" d="M 160.5,222.5 C 157.32,224.847 153.653,226.347 149.5,227C 145.318,227.78 141.151,228.614 137,229.5C 136.5,229.167 136,228.833 135.5,228.5C 142.381,226.78 149.048,224.446 155.5,221.5C 156.425,220.643 157.092,219.643 157.5,218.5C 157.81,217.262 158.31,217.262 159,218.5C 159.791,219.745 160.291,221.078 160.5,222.5 Z"/></g>
<g><path style="opacity:1" fill="#f1e8e0" d="M 245.5,218.5 C 245.98,223.53 246.647,228.53 247.5,233.5C 257.889,232.435 268.222,230.935 278.5,229C 282.03,228.328 283.363,226.162 282.5,222.5C 283.15,222.804 283.817,223.137 284.5,223.5C 285.489,226.438 286.156,229.438 286.5,232.5C 272.821,233.713 259.154,235.047 245.5,236.5C 244.584,231.589 243.251,226.922 241.5,222.5C 241.5,221.167 241.5,219.833 241.5,218.5C 242.833,218.5 244.167,218.5 245.5,218.5 Z"/></g>
<g><path style="opacity:1" fill="#666666" d="M 173.5,221.5 C 173.833,221.5 174.167,221.5 174.5,221.5C 175.232,222.808 176.066,224.142 177,225.5C 178.271,224.117 179.771,223.117 181.5,222.5C 181.833,222.5 182.167,222.5 182.5,222.5C 183.404,223.209 183.737,224.209 183.5,225.5C 183.665,228.518 183.498,231.518 183,234.5C 178.293,242.749 173.459,250.916 168.5,259C 165.661,260.92 162.661,262.587 159.5,264C 157.167,267 154.833,270 152.5,273C 155.836,272.506 159.169,271.672 162.5,270.5C 161.872,273.09 160.705,275.423 159,277.5C 147.488,286.339 138.155,297.006 131,309.5C 121.601,317.887 114.768,328.554 110.5,341.5C 106.165,342.936 101.832,344.436 97.5,346C 98.0219,346.561 98.3552,347.228 98.5,348C 97.8729,350.135 97.3729,352.302 97,354.5C 93.3779,351.94 89.5446,349.773 85.5,348C 89.0785,346.738 92.4118,345.071 95.5,343C 95.1667,342.667 94.8333,342.333 94.5,342C 105.758,328.327 114.592,313.16 121,296.5C 123.901,293.688 126.568,290.688 129,287.5C 133.007,279.465 137.007,271.465 141,263.5C 141.5,261.5 142,259.5 142.5,257.5C 141.007,249.035 139.007,240.702 136.5,232.5C 144.512,230.528 152.512,228.362 160.5,226C 161.305,224.887 161.972,223.721 162.5,222.5C 165.628,218.357 167.795,219.024 169,224.5C 170.271,223.117 171.771,222.117 173.5,221.5 Z"/></g>
<g><path style="opacity:1" fill="#00a1e8" d="M 174.5,221.5 C 175.449,220.848 176.615,220.514 178,220.5C 179.681,220.608 180.848,221.275 181.5,222.5C 179.771,223.117 178.271,224.117 177,225.5C 176.066,224.142 175.232,222.808 174.5,221.5 Z"/></g>
<g><path style="opacity:1" fill="#fefffe" d="M 271.5,220.5 C 272.5,220.5 273.5,220.5 274.5,220.5C 274.5,221.5 274.5,222.5 274.5,223.5C 273.5,223.5 272.5,223.5 271.5,223.5C 271.5,222.5 271.5,221.5 271.5,220.5 Z"/></g>
<g><path style="opacity:1" fill="#00a1e8" d="M 182.5,222.5 C 184.338,221.322 186.005,221.655 187.5,223.5C 186.442,224.6 185.608,225.934 185,227.5C 184.722,226.584 184.222,225.918 183.5,225.5C 183.737,224.209 183.404,223.209 182.5,222.5 Z"/></g>
<g><path style="opacity:1" fill="#000000" d="M 211.5,221.5 C 213.861,221.963 215.528,223.296 216.5,225.5C 216.167,225.833 215.833,226.167 215.5,226.5C 214.476,225.147 213.143,224.48 211.5,224.5C 211.5,223.5 211.5,222.5 211.5,221.5 Z"/></g>
<g><path style="opacity:1" fill="#6689b9" d="M 241.5,222.5 C 243.251,226.922 244.584,231.589 245.5,236.5C 259.154,235.047 272.821,233.713 286.5,232.5C 287.043,232.56 287.376,232.893 287.5,233.5C 273.894,235.743 260.227,237.743 246.5,239.5C 242.4,235.108 240.4,229.775 240.5,223.5C 241.167,223.5 241.5,223.167 241.5,222.5 Z"/></g>
<g><path style="opacity:1" fill="#00a1e8" d="M 187.5,223.5 C 190.776,224.122 192.109,226.122 191.5,229.5C 189.204,228.267 187.87,226.267 187.5,223.5 Z"/></g>
<g><path style="opacity:1" fill="#4f4f4f" d="M 187.5,223.5 C 187.87,226.267 189.204,228.267 191.5,229.5C 192.598,230.601 192.765,231.934 192,233.5C 190.667,234.833 189.333,236.167 188,237.5C 186.608,244.474 183.108,249.974 177.5,254C 173.373,260.294 168.373,265.794 162.5,270.5C 159.169,271.672 155.836,272.506 152.5,273C 154.833,270 157.167,267 159.5,264C 162.661,262.587 165.661,260.92 168.5,259C 173.459,250.916 178.293,242.749 183,234.5C 183.498,231.518 183.665,228.518 183.5,225.5C 184.222,225.918 184.722,226.584 185,227.5C 185.608,225.934 186.442,224.6 187.5,223.5 Z"/></g>
<g><path style="opacity:1" fill="#505050" d="M 218.5,233.5 C 218.196,234.15 217.863,234.817 217.5,235.5C 218.301,243.118 218.801,250.784 219,258.5C 223.335,265.09 229.502,268.757 237.5,269.5C 235.708,270.309 233.708,270.809 231.5,271C 220.807,271.65 210.14,271.316 199.5,270C 197.283,268.725 194.949,267.725 192.5,267C 193.966,266.365 195.3,265.531 196.5,264.5C 201.069,267.428 205.236,267.094 209,263.5C 209.541,255.824 209.375,248.158 208.5,240.5C 208.529,237.731 209.195,235.397 210.5,233.5C 211.117,233.611 211.617,233.944 212,234.5C 213.641,230.9 215.807,230.566 218.5,233.5 Z"/></g>
<g><path style="opacity:1" fill="#b0b0b0" d="M 190.5,237.5 C 191.747,244.054 193.413,250.554 195.5,257C 195.369,259.253 194.869,261.419 194,263.5C 189.079,264.39 184.246,264.724 179.5,264.5C 178.808,263.975 178.308,263.308 178,262.5C 177.275,264.158 176.108,264.658 174.5,264C 175.559,259.539 177.725,258.706 181,261.5C 185.333,260.5 189.667,259.5 194,258.5C 193.869,255.049 192.702,251.882 190.5,249C 189.365,248.251 188.365,248.417 187.5,249.5C 187.081,250.672 186.415,251.672 185.5,252.5C 185.167,252.167 184.833,251.833 184.5,251.5C 187.072,247.029 189.072,242.363 190.5,237.5 Z"/></g>
<g><path style="opacity:1" fill="#686868" d="M 338.5,258.5 C 344.762,257.872 350.762,258.705 356.5,261C 359.058,266.17 360.392,271.67 360.5,277.5C 354.66,274.536 348.66,271.703 342.5,269C 338.952,266.409 337.618,262.909 338.5,258.5 Z"/></g>
<g><path style="opacity:1" fill="#515251" d="M 188.5,283.5 C 185.884,280.545 183.218,277.545 180.5,274.5C 178.386,275.953 177.052,277.953 176.5,280.5C 176.997,282.818 177.33,285.152 177.5,287.5C 174.427,281.908 171.094,276.408 167.5,271C 168.5,270 169.5,269 170.5,268C 175.828,267.831 181.162,267.998 186.5,268.5C 187.058,273.516 187.725,278.516 188.5,283.5 Z"/></g>
<g><path style="opacity:1" fill="#696969" d="M 188.5,283.5 C 194.17,295.019 196.837,307.186 196.5,320C 197.516,320.519 198.182,321.353 198.5,322.5C 200.117,329.141 202.117,335.641 204.5,342C 204.142,344.032 203.308,345.866 202,347.5C 200.108,348.13 198.441,349.13 197,350.5C 196.667,350.167 196.333,349.833 196,349.5C 195.028,351.305 193.861,352.972 192.5,354.5C 189.285,352.726 185.952,351.226 182.5,350C 185.644,349.034 188.644,347.701 191.5,346C 190.978,345.439 190.645,344.772 190.5,344C 193.533,335.533 192.867,327.366 188.5,319.5C 189.025,318.808 189.692,318.308 190.5,318C 189.234,317.691 188.067,317.191 187,316.5C 181.505,307.53 178.338,297.863 177.5,287.5C 177.33,285.152 176.997,282.818 176.5,280.5C 177.052,277.953 178.386,275.953 180.5,274.5C 183.218,277.545 185.884,280.545 188.5,283.5 Z"/></g>
<g><path style="opacity:1" fill="#000000" d="M 375.5,331.5 C 371.228,324.724 367.895,317.391 365.5,309.5C 365.833,309.167 366.167,308.833 366.5,308.5C 370.089,315.932 373.089,323.599 375.5,331.5 Z"/></g>
</svg>
