<?xml version="1.0" encoding="UTF-8"?>
<!DOCTYPE svg PUBLIC "-//W3C//DTD SVG 1.1//EN" "http://www.w3.org/Graphics/SVG/1.1/DTD/svg11.dtd">
<svg xmlns="http://www.w3.org/2000/svg" version="1.1" width="432px" height="466px" style="shape-rendering:geometricPrecision; text-rendering:geometricPrecision; image-rendering:optimizeQuality; fill-rule:evenodd; clip-rule:evenodd" xmlns:xlink="http://www.w3.org/1999/xlink">
<g><path style="opacity:1" fill="#fefefe" d="M 235.5,69.5 C 243.507,69.3336 251.507,69.5003 259.5,70C 263.266,74.4659 264.933,79.6326 264.5,85.5C 273.652,87.2382 282.318,90.4049 290.5,95C 292,96.5 293.5,98 295,99.5C 296.544,106.084 296.877,112.751 296,119.5C 292.981,125.703 289.815,131.87 286.5,138C 287.333,138.833 288.167,139.667 289,140.5C 290.8,138.683 292.966,137.516 295.5,137C 303.167,136.333 310.833,136.333 318.5,137C 324.925,138.427 329.092,142.26 331,148.5C 331.169,155.191 331.669,161.858 332.5,168.5C 335.894,170.272 339.227,171.939 342.5,173.5C 342.491,175.308 342.991,176.975 344,178.5C 350.554,185.265 354.054,193.265 354.5,202.5C 354.446,205.939 353.78,209.106 352.5,212C 353.315,219.087 353.815,226.253 354,233.5C 356.77,235.601 358.77,238.268 360,241.5C 361.204,251.784 361.87,262.118 362,272.5C 363.981,274.657 366.314,276.324 369,277.5C 369.713,287.532 369.379,297.532 368,307.5C 365.328,308.867 362.495,309.867 359.5,310.5C 362.04,318.273 367.206,323.273 375,325.5C 375.259,336.84 374.926,348.173 374,359.5C 373.626,360.416 373.126,361.25 372.5,362C 374.412,363.2 375.745,364.867 376.5,367C 383.762,370.879 390.595,375.379 397,380.5C 403.158,388.473 405.158,397.473 403,407.5C 400,412.167 397,416.833 394,421.5C 390.919,424.293 387.419,426.46 383.5,428C 375.5,428.667 367.5,428.667 359.5,428C 357.667,427.5 356.5,426.333 356,424.5C 355.333,418.833 355.333,413.167 356,407.5C 356.5,405.667 357.667,404.5 359.5,404C 349.003,398.252 338.67,392.252 328.5,386C 324.941,382.778 321.774,379.278 319,375.5C 316.193,379.648 313.36,383.815 310.5,388C 304.5,388.667 298.5,388.667 292.5,388C 292,387.5 291.5,387 291,386.5C 290.667,379.5 290.333,372.5 290,365.5C 289.044,362.623 287.711,359.956 286,357.5C 282.932,360.738 279.765,363.738 276.5,366.5C 278.443,380.817 280.109,395.15 281.5,409.5C 281.153,416.555 280.32,423.555 279,430.5C 278.097,431.701 276.931,432.535 275.5,433C 255.516,438.712 235.516,438.879 215.5,433.5C 215.068,425.721 215.568,418.054 217,410.5C 222.591,406.578 228.758,403.911 235.5,402.5C 236.696,401.441 237.363,400.107 237.5,398.5C 234.509,386.87 231.676,375.203 229,363.5C 228.333,354.5 228.333,345.5 229,336.5C 230.901,331.698 233.568,327.364 237,323.5C 243.635,315.864 250.635,308.53 258,301.5C 258.284,292.475 258.784,283.475 259.5,274.5C 247.41,276.163 235.41,275.663 223.5,273C 218.086,271.7 215.42,268.2 215.5,262.5C 209.407,262.721 204.073,260.888 199.5,257C 193.5,256 187.5,255 181.5,254C 180.001,251.46 177.834,249.96 175,249.5C 164.604,248.599 154.27,247.599 144,246.5C 143.5,247 143,247.5 142.5,248C 136.833,248.667 131.167,248.667 125.5,248C 121.351,246.731 117.018,246.065 112.5,246C 110.167,245 108.5,243.333 107.5,241C 89.4374,239.993 71.4374,238.326 53.5,236C 47.9415,234.633 42.4415,233.133 37,231.5C 36.1725,227.129 36.3391,222.795 37.5,218.5C 40.443,217.756 43.443,217.256 46.5,217C 71.8384,216.412 97.1718,216.079 122.5,216C 131.091,217.244 139.758,217.911 148.5,218C 149.167,219 149.833,220 150.5,221C 167.138,222.582 183.805,223.748 200.5,224.5C 200.33,223.178 200.663,222.011 201.5,221C 207.5,220.333 213.5,220.333 219.5,221C 221.108,223.609 223.441,224.942 226.5,225C 233.167,225.667 239.833,225.667 246.5,225C 241.363,218.751 239.363,211.584 240.5,203.5C 239.529,197.067 241.029,191.4 245,186.5C 245.494,184.866 245.66,183.199 245.5,181.5C 241.993,182.006 238.826,181.34 236,179.5C 233.622,173.243 231.122,167.077 228.5,161C 227.303,159.48 225.803,158.313 224,157.5C 223.503,154.854 223.336,152.187 223.5,149.5C 221.097,149.607 219.264,148.607 218,146.5C 217.333,141.167 217.333,135.833 218,130.5C 221.788,127.692 225.788,125.359 230,123.5C 231.047,114.515 231.38,105.515 231,96.5C 230.333,95.8333 229.667,95.1667 229,94.5C 227.666,86.8001 228.666,79.4668 232,72.5C 233.145,71.3636 234.312,70.3636 235.5,69.5 Z"/></g>
<g><path style="opacity:1" fill="#000000" d="M 238.5,72.5 C 244.509,72.3338 250.509,72.5005 256.5,73C 260.266,77.4659 261.933,82.6326 261.5,88.5C 270.652,90.2382 279.318,93.4049 287.5,98C 291.998,101.154 293.998,105.487 293.5,111C 293.418,114.235 292.918,117.402 292,120.5C 287.758,126.317 284.591,132.651 282.5,139.5C 284.739,142.091 286.239,145.091 287,148.5C 289.812,144.338 293.645,141.505 298.5,140C 323.885,136.202 332.885,146.368 325.5,170.5C 330.482,171.997 335.148,173.997 339.5,176.5C 339.491,178.308 339.991,179.975 341,181.5C 346.666,187.498 350.166,194.498 351.5,202.5C 351.101,205.725 350.435,208.892 349.5,212C 350.221,220.149 350.721,228.316 351,236.5C 353.77,238.601 355.77,241.268 357,244.5C 358.204,254.784 358.87,265.118 359,275.5C 360.981,277.657 363.314,279.324 366,280.5C 366.598,288.531 366.265,296.531 365,304.5C 362.096,306.227 358.93,306.893 355.5,306.5C 355.926,317.702 361.426,325.035 372,328.5C 372.911,333.229 372.411,337.729 370.5,342C 371.525,346.805 371.692,351.638 371,356.5C 370.07,358.552 368.57,360.052 366.5,361C 368.872,364.03 371.205,367.03 373.5,370C 379.764,373.27 385.764,376.936 391.5,381C 398.303,387.408 401.136,395.242 400,404.5C 396.203,410.952 391.703,416.786 386.5,422C 384.5,423 382.5,424 380.5,425C 373.724,425.92 367.057,425.586 360.5,424C 357.833,418.667 357.833,413.333 360.5,408C 362.715,406.956 365.048,406.29 367.5,406C 368.167,405.333 368.833,404.667 369.5,404C 357.674,397.921 346.007,391.588 334.5,385C 329.645,381.478 325.478,377.311 322,372.5C 319.88,371.541 317.713,371.374 315.5,372C 313.23,376.598 310.563,380.931 307.5,385C 303.5,385.667 299.5,385.667 295.5,385C 295,384.5 294.5,384 294,383.5C 296.256,371.524 293.923,360.524 287,350.5C 283.833,353.667 280.667,356.833 277.5,360C 275.975,361.009 274.308,361.509 272.5,361.5C 274.372,377.525 276.372,393.525 278.5,409.5C 277.669,415.494 276.836,421.494 276,427.5C 275.097,428.701 273.931,429.535 272.5,430C 262.96,432.342 253.293,433.842 243.5,434.5C 235.037,433.94 226.703,432.607 218.5,430.5C 218.096,424.71 218.596,419.044 220,413.5C 225.219,409.647 231.052,407.147 237.5,406C 238.667,405.5 239.5,404.667 240,403.5C 240.667,400.167 240.667,396.833 240,393.5C 237.176,382.537 234.509,371.537 232,360.5C 231.333,353.5 231.333,346.5 232,339.5C 233.901,334.698 236.568,330.364 240,326.5C 246.635,318.864 253.635,311.53 261,304.5C 260.795,293.308 261.962,282.308 264.5,271.5C 251.721,273.268 239.054,272.768 226.5,270C 221.086,268.7 218.42,265.2 218.5,259.5C 212.407,259.721 207.073,257.888 202.5,254C 196.5,253 190.5,252 184.5,251C 183.001,248.46 180.834,246.96 178,246.5C 166.671,245.453 155.337,244.453 144,243.5C 139.045,245.375 133.878,245.875 128.5,245C 124.351,243.731 120.018,243.065 115.5,243C 113.167,242 111.5,240.333 110.5,238C 92.4374,236.993 74.4374,235.326 56.5,233C 50.9415,231.633 45.4415,230.133 40,228.5C 39.0426,225.621 39.5426,223.121 41.5,221C 64.979,219.84 88.479,219.006 112,218.5C 123.13,220.498 134.297,221.331 145.5,221C 146.167,222 146.833,223 147.5,224C 166.125,225.831 184.792,226.997 203.5,227.5C 203.33,226.178 203.663,225.011 204.5,224C 208.5,223.333 212.5,223.333 216.5,224C 218.108,226.609 220.441,227.942 223.5,228C 232.351,228.269 241.184,228.769 250,229.5C 251.167,229.167 252.333,228.833 253.5,228.5C 249.812,223.124 246.646,217.458 244,211.5C 243.333,206.167 243.333,200.833 244,195.5C 248.08,190.613 249.58,184.947 248.5,178.5C 244.993,179.006 241.826,178.34 239,176.5C 236.622,170.243 234.122,164.077 231.5,158C 230.303,156.48 228.803,155.313 227,154.5C 226.503,151.854 226.336,149.187 226.5,146.5C 224.097,146.607 222.264,145.607 221,143.5C 220.333,140.167 220.333,136.833 221,133.5C 224.788,130.692 228.788,128.359 233,126.5C 234.232,115.521 234.566,104.521 234,93.5C 229.973,85.3927 231.473,78.3927 238.5,72.5 Z"/></g>
<g><path style="opacity:1" fill="#3f47cc" d="M 243.5,78.5 C 251.168,77.5224 254.668,80.8557 254,88.5C 252.229,89.3041 250.729,90.4708 249.5,92C 247.5,92.6667 245.5,92.6667 243.5,92C 242.667,89.8333 241.167,88.3333 239,87.5C 238.909,83.6818 240.409,80.6818 243.5,78.5 Z"/></g>
<g><path style="opacity:1" fill="#2d2e35" d="M 246.5,93.5 C 259.238,94.3629 271.238,97.8629 282.5,104C 284.607,105.264 285.607,107.097 285.5,109.5C 275.372,110.294 265.372,109.127 255.5,106C 250.58,103.084 246.247,99.4177 242.5,95C 244.058,94.79 245.391,94.29 246.5,93.5 Z"/></g>
<g><path style="opacity:1" fill="#1b1b20" d="M 281.5,117.5 C 270.216,118.482 259.216,116.649 248.5,112C 245.961,109.63 243.628,107.13 241.5,104.5C 241.389,103.883 241.056,103.383 240.5,103C 241.264,100.931 241.764,98.764 242,96.5C 247.656,105.474 255.823,110.307 266.5,111C 273.219,111.867 279.886,112.033 286.5,111.5C 286.942,115.384 285.275,117.384 281.5,117.5 Z"/></g>
<g><path style="opacity:1" fill="#2c2b32" d="M 241.5,104.5 C 243.628,107.13 245.961,109.63 248.5,112C 259.216,116.649 270.216,118.482 281.5,117.5C 282.376,117.369 283.043,117.702 283.5,118.5C 278.554,127.168 275.554,135.835 274.5,144.5C 269.386,145.955 264.386,145.622 259.5,143.5C 261.423,142.692 263.423,142.192 265.5,142C 263.744,141.798 262.078,141.298 260.5,140.5C 256.535,132.418 251.535,131.585 245.5,138C 246.167,138.333 246.833,138.667 247.5,139C 246.663,140.011 246.33,141.178 246.5,142.5C 245.209,142.263 244.209,142.596 243.5,143.5C 239.812,143.219 236.145,142.719 232.5,142C 230.445,141.313 228.779,140.146 227.5,138.5C 230.789,135.766 234.455,133.766 238.5,132.5C 239.26,129.813 239.927,127.147 240.5,124.5C 241.72,122.716 241.72,121.05 240.5,119.5C 240.062,119.565 239.728,119.399 239.5,119C 240.167,117.667 240.833,116.333 241.5,115C 240.644,111.226 240.644,107.726 241.5,104.5 Z"/></g>
<g><path style="opacity:1" fill="#fec90d" d="M 240.5,119.5 C 241.72,121.05 241.72,122.716 240.5,124.5C 239.28,122.95 239.28,121.284 240.5,119.5 Z"/></g>
<g><path style="opacity:1" fill="#fec90d" d="M 249.5,144.5 C 248.44,140.926 249.44,137.926 252.5,135.5C 260.662,140.764 259.662,143.764 249.5,144.5 Z"/></g>
<g><path style="opacity:1" fill="#fec90d" d="M 249.5,144.5 C 250.718,145.161 252.051,145.828 253.5,146.5C 252.757,147.182 252.091,147.849 251.5,148.5C 250.167,148.5 248.833,148.5 247.5,148.5C 247.157,146.517 247.824,145.183 249.5,144.5 Z"/></g>
<g><path style="opacity:1" fill="#5d3715" d="M 263.5,167.5 C 262.504,167.586 261.671,167.252 261,166.5C 260.998,163.949 260.164,161.949 258.5,160.5C 260.235,158.765 261.568,156.765 262.5,154.5C 262.115,149.973 259.782,147.64 255.5,147.5C 254.957,147.44 254.624,147.107 254.5,146.5C 257.239,145.233 259.906,145.399 262.5,147C 268.104,147.229 273.604,147.396 279,147.5C 280.837,150.73 280.671,153.73 278.5,156.5C 273.744,160.602 268.744,164.269 263.5,167.5 Z"/></g>
<g><path style="opacity:1" fill="#9d8821" d="M 303.5,145.5 C 313.568,144.681 319.902,149.014 322.5,158.5C 320.84,169.582 314.173,174.082 302.5,172C 297.025,170.109 293.025,166.609 290.5,161.5C 291.488,158.55 292.321,155.55 293,152.5C 296.154,149.488 299.654,147.155 303.5,145.5 Z"/></g>
<g><path style="opacity:1" fill="#e09d5c" d="M 243.5,143.5 C 244.5,143.5 245.5,143.5 246.5,143.5C 246.779,150.937 246.112,158.27 244.5,165.5C 243.566,166.568 243.232,167.901 243.5,169.5C 241.296,170.351 239.963,169.351 239.5,166.5C 240.527,163.946 239.694,161.946 237,160.5C 236.805,158.793 236.805,157.126 237,155.5C 235.288,153.247 233.121,151.58 230.5,150.5C 232.5,148.167 234.5,145.833 236.5,143.5C 237.251,144.376 237.751,145.376 238,146.5C 239.719,145.131 241.552,144.131 243.5,143.5 Z"/></g>
<g><path style="opacity:1" fill="#fdb96b" d="M 255.5,147.5 C 259.782,147.64 262.115,149.973 262.5,154.5C 261.568,156.765 260.235,158.765 258.5,160.5C 256.801,160.473 255.467,159.806 254.5,158.5C 252.898,154.58 253.232,150.913 255.5,147.5 Z"/></g>
<g><path style="opacity:1" fill="#fec90d" d="M 251.5,148.5 C 252.097,148.735 252.43,149.235 252.5,150C 251.944,151.011 251.278,151.844 250.5,152.5C 249.5,152.5 248.5,152.5 247.5,152.5C 247.5,151.5 247.5,150.5 247.5,149.5C 249.099,149.768 250.432,149.434 251.5,148.5 Z"/></g>
<g><path style="opacity:1" fill="#fec90d" d="M 250.5,152.5 C 251.586,152.62 252.253,153.287 252.5,154.5C 252.058,155.739 251.391,156.739 250.5,157.5C 249.5,157.5 248.5,157.5 247.5,157.5C 247.5,156.167 247.5,154.833 247.5,153.5C 248.791,153.737 249.791,153.404 250.5,152.5 Z"/></g>
<g><path style="opacity:1" fill="#000000" d="M 256.5,152.5 C 258.476,153.427 258.809,154.76 257.5,156.5C 256.571,155.311 256.238,153.978 256.5,152.5 Z"/></g>
<g><path style="opacity:1" fill="#fec90d" d="M 250.5,157.5 C 251.833,157.5 252.5,158.167 252.5,159.5C 251.005,159.989 249.671,160.655 248.5,161.5C 246.952,161.179 246.285,160.179 246.5,158.5C 248.099,158.768 249.432,158.434 250.5,157.5 Z"/></g>
<g><path style="opacity:1" fill="#e9a45f" d="M 254.5,158.5 C 255.467,159.806 256.801,160.473 258.5,160.5C 260.164,161.949 260.998,163.949 261,166.5C 261.671,167.252 262.504,167.586 263.5,167.5C 260.792,171.724 257.125,174.557 252.5,176C 252.092,171.433 252.092,165.933 252.5,159.5C 253.167,159.167 253.833,158.833 254.5,158.5 Z"/></g>
<g><path style="opacity:1" fill="#5b5c5b" d="M 279.5,158.5 C 281.991,158.829 284.157,159.829 286,161.5C 287.639,164.742 288.639,168.076 289,171.5C 279.697,177.818 269.697,182.818 259,186.5C 254.794,185.407 253.461,182.74 255,178.5C 263.065,171.591 271.232,164.924 279.5,158.5 Z"/></g>
<g><path style="opacity:1" fill="#ffc80d" d="M 248.5,161.5 C 252.005,161.694 252.338,162.694 249.5,164.5C 244.725,164.33 244.392,163.33 248.5,161.5 Z"/></g>
<g><path style="opacity:1" fill="#fec90d" d="M 249.5,164.5 C 250.376,164.369 251.043,164.702 251.5,165.5C 250.398,166.176 249.398,166.842 248.5,167.5C 246.517,167.843 245.183,167.176 244.5,165.5C 246.415,165.784 248.081,165.451 249.5,164.5 Z"/></g>
<g><path style="opacity:1" fill="#000000" d="M 244.5,165.5 C 245.183,167.176 246.517,167.843 248.5,167.5C 246.972,168.309 245.306,168.976 243.5,169.5C 243.232,167.901 243.566,166.568 244.5,165.5 Z"/></g>
<g><path style="opacity:1" fill="#fec90d" d="M 248.5,167.5 C 249.5,167.5 250.5,167.5 251.5,167.5C 251.5,168.5 251.5,169.5 251.5,170.5C 248.615,170.806 245.948,170.473 243.5,169.5C 245.306,168.976 246.972,168.309 248.5,167.5 Z"/></g>
<g><path style="opacity:1" fill="#2e2e2e" d="M 315.5,175.5 C 312.202,177.485 308.869,179.485 305.5,181.5C 301.106,177.138 295.772,174.638 289.5,174C 291.723,173.348 292.89,171.848 293,169.5C 299.103,174.331 305.937,175.664 313.5,173.5C 314.713,173.747 315.38,174.414 315.5,175.5 Z"/></g>
<g><path style="opacity:1" fill="#fec90d" d="M 242.5,171.5 C 245.247,171.187 247.914,171.52 250.5,172.5C 249.652,173.991 248.319,174.658 246.5,174.5C 244.018,174.89 242.685,173.89 242.5,171.5 Z"/></g>
<g><path style="opacity:1" fill="#51050c" d="M 315.5,175.5 C 316.492,175.328 317.158,175.662 317.5,176.5C 315.604,178.043 313.771,179.709 312,181.5C 311.503,184.146 311.336,186.813 311.5,189.5C 311.665,192.518 311.498,195.518 311,198.5C 309.1,194.7 307.267,191.033 305.5,187.5C 305.5,185.5 305.5,183.5 305.5,181.5C 308.869,179.485 312.202,177.485 315.5,175.5 Z"/></g>
<g><path style="opacity:1" fill="#ebd9d8" d="M 305.5,187.5 C 305.631,188.239 305.464,188.906 305,189.5C 297.808,181.254 289.308,178.921 279.5,182.5C 276.279,183.517 273.446,185.184 271,187.5C 269.049,193.341 268.216,199.341 268.5,205.5C 267.306,198.649 267.306,191.649 268.5,184.5C 275.125,181.859 281.792,179.192 288.5,176.5C 296.674,176.732 302.341,180.399 305.5,187.5 Z"/></g>
<g><path style="opacity:1" fill="#fefefe" d="M 317.5,176.5 C 323.121,175.674 328.121,177.007 332.5,180.5C 333.776,181.614 333.776,182.614 332.5,183.5C 327.845,179.789 322.511,178.622 316.5,180C 312.701,184.333 312.534,188.833 316,193.5C 322.73,194.955 329.564,195.455 336.5,195C 336.833,194.667 337.167,194.333 337.5,194C 336.358,191.55 335.358,189.05 334.5,186.5C 338.61,190.951 341.944,195.951 344.5,201.5C 343.167,200.5 341.833,199.5 340.5,198.5C 340.013,197.527 339.513,196.527 339,195.5C 335.851,197.362 332.351,198.029 328.5,197.5C 324.767,196.179 320.934,196.179 317,197.5C 318.571,210.12 321.571,222.453 326,234.5C 329.392,238.532 333.559,239.532 338.5,237.5C 338.423,238.75 337.756,239.583 336.5,240C 333.445,240.634 330.445,240.468 327.5,239.5C 326.5,238.5 325.5,237.5 324.5,236.5C 320.091,224.365 315.757,212.198 311.5,200C 312.82,196.399 312.82,192.899 311.5,189.5C 311.336,186.813 311.503,184.146 312,181.5C 313.771,179.709 315.604,178.043 317.5,176.5 Z"/></g>
<g><path style="opacity:1" fill="#6e0e14" d="M 332.5,183.5 C 332.413,186.598 332.913,186.932 334,184.5C 334.464,185.094 334.631,185.761 334.5,186.5C 335.358,189.05 336.358,191.55 337.5,194C 337.167,194.333 336.833,194.667 336.5,195C 329.564,195.455 322.73,194.955 316,193.5C 312.534,188.833 312.701,184.333 316.5,180C 322.511,178.622 327.845,179.789 332.5,183.5 Z"/></g>
<g><path style="opacity:1" fill="#7b7b7b" d="M 279.5,182.5 C 290.348,181.341 299.181,185.008 306,193.5C 312.326,206.646 317.16,220.312 320.5,234.5C 312.411,234.56 304.745,232.893 297.5,229.5C 303.459,217.564 304.626,205.231 301,192.5C 300.581,191.328 299.915,190.328 299,189.5C 299.56,194.98 300.393,200.48 301.5,206C 297.193,225.116 291.026,243.616 283,261.5C 281.581,262.46 280.081,263.293 278.5,264C 266.499,265.158 254.499,265.825 242.5,266C 237.681,260.221 237.181,254.055 241,247.5C 245.749,246.695 250.582,246.195 255.5,246C 257.664,245.086 259.664,243.919 261.5,242.5C 266.858,230.737 269.191,218.403 268.5,205.5C 268.216,199.341 269.049,193.341 271,187.5C 273.446,185.184 276.279,183.517 279.5,182.5 Z"/></g>
<g><path style="opacity:1" fill="#7e7f7e" d="M 263.5,186.5 C 264.552,186.351 265.552,186.517 266.5,187C 263.374,192.085 260.374,197.251 257.5,202.5C 254.613,195.062 256.613,189.729 263.5,186.5 Z"/></g>
<g><path style="opacity:1" fill="#ebd9d8" d="M 264.5,193.5 C 264.37,201.764 260.87,208.764 254,214.5C 253.626,213.584 253.126,212.75 252.5,212C 258.325,207.01 262.325,200.844 264.5,193.5 Z"/></g>
<g><path style="opacity:1" fill="#ebd9d8" d="M 253.5,194.5 C 254.319,197.305 254.819,200.305 255,203.5C 256.634,204.99 256.301,206.324 254,207.5C 252.178,203.269 252.011,198.935 253.5,194.5 Z"/></g>
<g><path style="opacity:1" fill="#000000" d="M 340.5,198.5 C 339.539,200.265 339.205,202.265 339.5,204.5C 338.539,202.735 338.205,200.735 338.5,198.5C 334.958,198.813 331.625,198.479 328.5,197.5C 332.351,198.029 335.851,197.362 339,195.5C 339.513,196.527 340.013,197.527 340.5,198.5 Z"/></g>
<g><path style="opacity:1" fill="#7e7f7e" d="M 249.5,197.5 C 250.388,200.483 251.054,203.65 251.5,207C 251.491,208.404 250.991,209.57 250,210.5C 248.236,206.205 248.069,201.871 249.5,197.5 Z"/></g>
<g><path style="opacity:1" fill="#7b0915" d="M 328.5,197.5 C 331.625,198.479 334.958,198.813 338.5,198.5C 338.205,200.735 338.539,202.735 339.5,204.5C 339.344,208.764 340.011,212.764 341.5,216.5C 343.51,221.623 343.843,226.956 342.5,232.5C 341.876,234.754 340.543,236.421 338.5,237.5C 333.559,239.532 329.392,238.532 326,234.5C 321.571,222.453 318.571,210.12 317,197.5C 320.934,196.179 324.767,196.179 328.5,197.5 Z"/></g>
<g><path style="opacity:1" fill="#471414" d="M 340.5,198.5 C 341.833,199.5 343.167,200.5 344.5,201.5C 345.043,201.56 345.376,201.893 345.5,202.5C 344.52,203.981 343.353,205.315 342,206.5C 341.506,208.134 341.34,209.801 341.5,211.5C 341.5,213.167 341.5,214.833 341.5,216.5C 340.011,212.764 339.344,208.764 339.5,204.5C 339.205,202.265 339.539,200.265 340.5,198.5 Z"/></g>
<g><path style="opacity:1" fill="#7f7e7e" d="M 264.5,201.5 C 265.399,206.322 266.066,211.322 266.5,216.5C 266.637,221.905 265.137,222.571 262,218.5C 261.265,216.129 260.432,213.795 259.5,211.5C 262.081,208.596 263.748,205.263 264.5,201.5 Z"/></g>
<g><path style="opacity:1" fill="#fefffe" d="M 341.5,211.5 C 343.245,215.881 344.245,220.548 344.5,225.5C 344.684,228.205 344.017,230.538 342.5,232.5C 343.843,226.956 343.51,221.623 341.5,216.5C 341.5,214.833 341.5,213.167 341.5,211.5 Z"/></g>
<g><path style="opacity:1" fill="#ebd9d8" d="M 257.5,213.5 C 258.388,218.237 261.054,221.737 265.5,224C 264.953,224.925 264.287,225.758 263.5,226.5C 259.923,224.091 257.257,220.924 255.5,217C 256.305,215.887 256.972,214.721 257.5,213.5 Z"/></g>
<g><path style="opacity:1" fill="#4f4f4f" d="M 292.5,217.5 C 294.199,217.34 295.866,217.506 297.5,218C 294.13,219.346 291.13,221.179 288.5,223.5C 289.729,224.281 291.062,224.781 292.5,225C 284.944,227.87 277.277,228.204 269.5,226C 277.161,222.839 284.827,220.006 292.5,217.5 Z"/></g>
<g><path style="opacity:1" fill="#bebebe" d="M 125.5,226.5 C 125.5,229.167 125.5,231.833 125.5,234.5C 120.645,238.512 117.478,237.178 116,230.5C 114.431,231.122 112.764,231.456 111,231.5C 98.1744,230.574 85.3411,229.741 72.5,229C 63.0185,228.648 53.6851,227.315 44.5,225C 48.0187,224.623 51.5187,224.123 55,223.5C 74.8418,224.878 94.6751,225.378 114.5,225C 115.362,227.734 116.195,227.901 117,225.5C 118.011,226.337 119.178,226.67 120.5,226.5C 120.557,231.682 121.224,231.682 122.5,226.5C 123.527,225.209 124.527,225.209 125.5,226.5 Z"/></g>
<g><path style="opacity:1" fill="#c2c3c2" d="M 125.5,226.5 C 127.523,225.479 129.523,225.812 131.5,227.5C 131.5,228.833 130.833,229.5 129.5,229.5C 128.074,228.659 126.74,227.659 125.5,226.5 Z"/></g>
<g><path style="opacity:1" fill="#fec90d" d="M 146.5,231.5 C 145.699,233.042 145.366,234.708 145.5,236.5C 142.253,237.252 138.919,237.752 135.5,238C 133.771,239.545 132.438,239.045 131.5,236.5C 132.833,233.5 132.833,230.5 131.5,227.5C 132.077,226.227 132.743,226.227 133.5,227.5C 134.028,229.336 134.694,231.003 135.5,232.5C 135.435,232.938 135.601,233.272 136,233.5C 137.718,232.15 139.552,230.983 141.5,230C 140.934,229.005 140.267,228.172 139.5,227.5C 139.369,226.624 139.702,225.957 140.5,225.5C 142.215,227.882 144.215,229.882 146.5,231.5 Z"/></g>
<g><path style="opacity:1" fill="#000000" d="M 125.5,226.5 C 126.74,227.659 128.074,228.659 129.5,229.5C 128.5,229.5 127.5,229.5 126.5,229.5C 126.784,231.415 126.451,233.081 125.5,234.5C 125.5,231.833 125.5,229.167 125.5,226.5 Z"/></g>
<g><path style="opacity:1" fill="#7e7f7e" d="M 259.5,226.5 C 261.75,226.951 263.084,228.285 263.5,230.5C 262.768,233.197 261.934,235.864 261,238.5C 259.576,234.703 259.076,230.703 259.5,226.5 Z"/></g>
<g><path style="opacity:1" fill="#000000" d="M 131.5,227.5 C 132.833,230.5 132.833,233.5 131.5,236.5C 131.815,233.789 131.148,231.456 129.5,229.5C 130.833,229.5 131.5,228.833 131.5,227.5 Z"/></g>
<g><path style="opacity:1" fill="#797979" d="M 139.5,227.5 C 140.267,228.172 140.934,229.005 141.5,230C 139.552,230.983 137.718,232.15 136,233.5C 135.601,233.272 135.435,232.938 135.5,232.5C 135.5,231.167 135.5,229.833 135.5,228.5C 136.959,228.567 138.292,228.234 139.5,227.5 Z"/></g>
<g><path style="opacity:1" fill="#985f3f" d="M 129.5,229.5 C 131.148,231.456 131.815,233.789 131.5,236.5C 128.918,236.975 126.918,236.308 125.5,234.5C 126.451,233.081 126.784,231.415 126.5,229.5C 127.5,229.5 128.5,229.5 129.5,229.5 Z"/></g>
<g><path style="opacity:1" fill="#c2c3c2" d="M 178.5,233.5 C 168.007,232.49 157.341,231.823 146.5,231.5C 146.791,230.351 147.624,229.684 149,229.5C 162.192,230.439 175.358,231.606 188.5,233C 185.183,233.498 181.85,233.665 178.5,233.5 Z"/></g>
<g><path style="opacity:1" fill="#fdb96b" d="M 218.5,235.5 C 218.833,236.5 219.5,237.167 220.5,237.5C 222.196,239.525 223.863,241.525 225.5,243.5C 224.115,246.659 223.115,249.992 222.5,253.5C 216.752,253.59 211.752,251.756 207.5,248C 201.5,247 195.5,246 189.5,245C 189.167,244.667 188.833,244.333 188.5,244C 189.448,243.517 190.448,243.351 191.5,243.5C 199.328,244.943 207.328,245.777 215.5,246C 216.591,241.666 215.257,238.166 211.5,235.5C 211.672,234.508 211.338,233.842 210.5,233.5C 210.5,232.833 210.167,232.5 209.5,232.5C 209.281,231.325 209.614,230.325 210.5,229.5C 212.921,231.934 215.588,233.934 218.5,235.5 Z"/></g>
<g><path style="opacity:1" fill="#845338" d="M 146.5,231.5 C 157.341,231.823 168.007,232.49 178.5,233.5C 181.625,234.479 184.958,234.813 188.5,234.5C 188.5,236.167 188.5,237.833 188.5,239.5C 187.778,239.918 187.278,240.584 187,241.5C 173.071,239.807 159.238,238.141 145.5,236.5C 145.366,234.708 145.699,233.042 146.5,231.5 Z"/></g>
<g><path style="opacity:1" fill="#c2c3c2" d="M 192.5,237.5 C 191.596,238.209 191.263,239.209 191.5,240.5C 189.694,243.338 188.694,243.005 188.5,239.5C 189.468,237.393 189.802,235.059 189.5,232.5C 190.5,232.5 191.5,232.5 192.5,232.5C 192.5,234.167 192.5,235.833 192.5,237.5 Z"/></g>
<g><path style="opacity:1" fill="#b1b1b1" d="M 209.5,232.5 C 210.167,232.5 210.5,232.833 210.5,233.5C 207.713,234.477 204.713,234.81 201.5,234.5C 204.053,233.745 206.72,233.078 209.5,232.5 Z"/></g>
<g><path style="opacity:1" fill="#e4d2d2" d="M 324.5,236.5 C 325.5,237.5 326.5,238.5 327.5,239.5C 327.611,240.117 327.944,240.617 328.5,241C 317.056,241.75 305.723,240.416 294.5,237C 295.376,235.414 296.376,233.914 297.5,232.5C 306.193,235.86 315.193,237.193 324.5,236.5 Z"/></g>
<g><path style="opacity:1" fill="#000000" d="M 210.5,233.5 C 211.338,233.842 211.672,234.508 211.5,235.5C 207.958,235.813 204.625,235.479 201.5,234.5C 204.713,234.81 207.713,234.477 210.5,233.5 Z"/></g>
<g><path style="opacity:1" fill="#805036" d="M 201.5,234.5 C 204.625,235.479 207.958,235.813 211.5,235.5C 215.257,238.166 216.591,241.666 215.5,246C 207.328,245.777 199.328,244.943 191.5,243.5C 191.5,242.5 191.5,241.5 191.5,240.5C 191.263,239.209 191.596,238.209 192.5,237.5C 193.404,236.791 193.737,235.791 193.5,234.5C 196.167,234.5 198.833,234.5 201.5,234.5 Z"/></g>
<g><path style="opacity:1" fill="#c2c3c2" d="M 218.5,235.5 C 225.068,234.191 231.734,234.191 238.5,235.5C 235.375,236.479 232.042,236.813 228.5,236.5C 225.375,235.521 222.042,235.187 218.5,235.5 Z"/></g>
<g><path style="opacity:1" fill="#c2c3c2" d="M 238.5,235.5 C 238.735,234.903 239.235,234.57 240,234.5C 241.303,234.978 242.469,235.645 243.5,236.5C 243.5,239.167 243.5,241.833 243.5,244.5C 242.5,244.5 241.5,244.5 240.5,244.5C 240.795,242.265 240.461,240.265 239.5,238.5C 239.737,237.209 239.404,236.209 238.5,235.5 Z"/></g>
<g><path style="opacity:1" fill="#000000" d="M 218.5,235.5 C 222.042,235.187 225.375,235.521 228.5,236.5C 225.615,236.194 222.948,236.527 220.5,237.5C 219.5,237.167 218.833,236.5 218.5,235.5 Z"/></g>
<g><path style="opacity:1" fill="#000000" d="M 238.5,235.5 C 239.404,236.209 239.737,237.209 239.5,238.5C 235.727,237.897 232.061,237.23 228.5,236.5C 232.042,236.813 235.375,236.479 238.5,235.5 Z"/></g>
<g><path style="opacity:1" fill="#c2c3c2" d="M 243.5,236.5 C 248.081,235.475 252.747,235.808 257.5,237.5C 255.604,238.466 253.604,238.799 251.5,238.5C 248.947,237.745 246.28,237.078 243.5,236.5 Z"/></g>
<g><path style="opacity:1" fill="#905a3c" d="M 228.5,236.5 C 232.061,237.23 235.727,237.897 239.5,238.5C 239.5,240.5 239.5,242.5 239.5,244.5C 234.587,244.29 229.921,243.957 225.5,243.5C 223.863,241.525 222.196,239.525 220.5,237.5C 222.948,236.527 225.615,236.194 228.5,236.5 Z"/></g>
<g><path style="opacity:1" fill="#985f3f" d="M 251.5,238.5 C 253.607,239.468 255.941,239.802 258.5,239.5C 258.67,240.822 258.337,241.989 257.5,243C 253.27,244.29 248.936,244.79 244.5,244.5C 244.5,242.5 244.5,240.5 244.5,238.5C 246.833,238.5 249.167,238.5 251.5,238.5 Z"/></g>
<g><path style="opacity:1" fill="#7e7f7e" d="M 304.5,265.5 C 304.16,263.321 303.16,261.488 301.5,260C 297.071,257.786 292.738,255.619 288.5,253.5C 290.563,248.978 292.23,244.312 293.5,239.5C 300.8,240.96 308.133,242.293 315.5,243.5C 317.453,242.844 319.453,242.511 321.5,242.5C 321.636,245.35 321.969,248.183 322.5,251C 322.458,252.967 321.958,254.801 321,256.5C 316.503,261.496 311.003,264.496 304.5,265.5 Z"/></g>
<g><path style="opacity:1" fill="#7e7e7e" d="M 341.5,239.5 C 345.817,241.653 348.984,244.986 351,249.5C 352.488,257.445 352.822,265.445 352,273.5C 346.756,265.586 340.756,258.252 334,251.5C 332.247,248.995 330.747,246.329 329.5,243.5C 332.107,242.682 334.774,242.182 337.5,242C 339.32,241.8 340.653,240.966 341.5,239.5 Z"/></g>
<g><path style="opacity:1" fill="#eadfad" d="M 323.5,243.5 C 324.978,243.238 326.311,243.571 327.5,244.5C 332.035,252.226 337.535,259.226 344,265.5C 344.667,266.833 344.667,268.167 344,269.5C 335.415,274.875 326.915,280.375 318.5,286C 315.378,287.645 312.212,289.145 309,290.5C 303.324,287.822 298.324,284.155 294,279.5C 291.233,273.742 288.066,268.242 284.5,263C 285.46,261.581 286.293,260.081 287,258.5C 292.816,266.822 300.649,269.655 310.5,267C 314.951,264.217 319.117,261.05 323,257.5C 324.772,252.916 324.939,248.249 323.5,243.5 Z"/></g>
<g><path style="opacity:1" fill="#7e7f7e" d="M 228.5,245.5 C 231.764,246.324 235.098,246.658 238.5,246.5C 237.758,249.973 237.091,253.473 236.5,257C 236.657,259.981 237.657,262.648 239.5,265C 235.775,264.989 232.108,264.323 228.5,263C 223.209,257.213 223.209,251.38 228.5,245.5 Z"/></g>
<g><path style="opacity:1" fill="#5b5c5b" d="M 288.5,253.5 C 292.738,255.619 297.071,257.786 301.5,260C 303.16,261.488 304.16,263.321 304.5,265.5C 297.41,265.536 291.91,262.536 288,256.5C 287.53,255.423 287.697,254.423 288.5,253.5 Z"/></g>
<g><path style="opacity:1" fill="#7b7b7b" d="M 303.5,319.5 C 303.589,322.709 303.256,325.875 302.5,329C 305.916,340.833 309.249,352.666 312.5,364.5C 311.312,365.364 310.145,366.364 309,367.5C 307.337,371.496 305.171,375.163 302.5,378.5C 301.726,379.711 300.893,379.711 300,378.5C 301.362,369.583 300.362,360.917 297,352.5C 295.067,345.435 290.901,340.268 284.5,337C 278.369,327.909 272.869,318.409 268,308.5C 265.741,294.394 267.908,281.061 274.5,268.5C 277.495,267.867 280.328,266.867 283,265.5C 286.755,270.003 289.755,275.003 292,280.5C 295.627,292.955 298.627,305.622 301,318.5C 301.671,319.252 302.504,319.586 303.5,319.5 Z"/></g>
<g><path style="opacity:1" fill="#eee4af" d="M 345.5,270.5 C 348.956,272.623 351.289,275.623 352.5,279.5C 351.448,279.649 350.448,279.483 349.5,279C 347.845,274.872 345.345,274.372 342,277.5C 340.72,277.387 339.887,276.72 339.5,275.5C 341.571,273.815 343.571,272.148 345.5,270.5 Z"/></g>
<g><path style="opacity:1" fill="#eee4b0" d="M 336.5,276.5 C 337.364,277.688 338.364,278.855 339.5,280C 336.714,283.16 337.048,285.993 340.5,288.5C 339.456,290.768 339.289,293.101 340,295.5C 341.833,297.333 343.667,299.167 345.5,301C 342.748,306.753 338.415,310.753 332.5,313C 322.569,314.991 312.569,316.491 302.5,317.5C 300.637,306.352 298.47,295.352 296,284.5C 302.822,293.12 310.656,294.287 319.5,288C 324.887,283.648 330.553,279.815 336.5,276.5 Z"/></g>
<g><path style="opacity:1" fill="#a14100" d="M 344.5,278.5 C 346.912,278.694 347.912,280.027 347.5,282.5C 353.228,281.03 357.561,282.864 360.5,288C 360.015,291.865 359.348,295.698 358.5,299.5C 351.727,301.954 346.227,300.288 342,294.5C 341.245,291.503 342.078,289.003 344.5,287C 342.668,286.252 341.001,285.252 339.5,284C 340.762,281.724 342.429,279.891 344.5,278.5 Z"/></g>
<g><path style="opacity:1" fill="#525252" d="M 360.5,335.5 C 352.298,330.474 344.798,324.474 338,317.5C 337.517,316.552 337.351,315.552 337.5,314.5C 341.187,310.811 344.52,306.811 347.5,302.5C 347.436,312.954 350.77,322.121 357.5,330C 360.377,330.956 363.044,332.289 365.5,334C 364.095,335.269 362.429,335.769 360.5,335.5 Z"/></g>
<g><path style="opacity:1" fill="#fefffe" d="M 277.5,331.5 C 271.792,334.705 266.792,338.872 262.5,344C 258.419,345.471 254.419,347.138 250.5,349C 246.08,349.768 241.747,349.602 237.5,348.5C 237.717,344.015 239.217,340.015 242,336.5C 249.944,327.601 258.111,318.934 266.5,310.5C 270.434,317.369 274.101,324.369 277.5,331.5 Z"/></g>
<g><path style="opacity:1" fill="#7e7f7e" d="M 337.5,314.5 C 337.351,315.552 337.517,316.552 338,317.5C 344.798,324.474 352.298,330.474 360.5,335.5C 361.96,340.546 363.626,345.546 365.5,350.5C 363.498,353.592 360.665,355.592 357,356.5C 354.202,361.263 351.036,365.763 347.5,370C 345.593,371.122 343.593,371.955 341.5,372.5C 331.192,355.539 324.525,337.206 321.5,317.5C 326.828,316.501 332.161,315.501 337.5,314.5 Z"/></g>
<g><path style="opacity:1" fill="#5b5c5b" d="M 321.5,317.5 C 324.525,337.206 331.192,355.539 341.5,372.5C 337.694,372.588 334.027,371.921 330.5,370.5C 329.931,367.763 328.264,366.263 325.5,366C 321.249,364.805 316.915,364.305 312.5,364.5C 309.249,352.666 305.916,340.833 302.5,329C 303.256,325.875 303.589,322.709 303.5,319.5C 309.479,318.669 315.479,318.003 321.5,317.5 Z"/></g>
<g><path style="opacity:1" fill="#d9d9d9" d="M 277.5,331.5 C 279.821,334.629 282.488,337.462 285.5,340C 283.265,343.072 280.598,345.572 277.5,347.5C 271.2,350.879 264.533,353.379 257.5,355C 260.817,355.498 264.15,355.665 267.5,355.5C 267.389,356.117 267.056,356.617 266.5,357C 262.152,357.465 257.819,357.965 253.5,358.5C 253.336,352.833 253.003,352.5 252.5,357.5C 247.558,357.187 242.891,355.853 238.5,353.5C 237.548,351.955 237.215,350.288 237.5,348.5C 241.747,349.602 246.08,349.768 250.5,349C 254.419,347.138 258.419,345.471 262.5,344C 266.792,338.872 271.792,334.705 277.5,331.5 Z"/></g>
<g><path style="opacity:1" fill="#888888" d="M 277.5,347.5 C 278.522,348.892 278.189,350.225 276.5,351.5C 274.483,352.174 272.817,353.341 271.5,355C 270.207,355.49 268.873,355.657 267.5,355.5C 264.15,355.665 260.817,355.498 257.5,355C 264.533,353.379 271.2,350.879 277.5,347.5 Z"/></g>
<g><path style="opacity:1" fill="#2e2c00" d="M 238.5,357.5 C 247.608,360.175 256.941,361.175 266.5,360.5C 268.28,376.515 270.28,392.515 272.5,408.5C 271.86,413.2 271.027,417.866 270,422.5C 255.774,428.568 241.274,429.402 226.5,425C 224.099,422.827 224.099,420.494 226.5,418C 231.791,415.238 237.291,413.071 243,411.5C 246.592,414.401 250.425,414.901 254.5,413C 252.167,412.667 249.833,412.333 247.5,412C 246.572,411.612 245.905,410.945 245.5,410C 246.85,407.79 247.85,405.456 248.5,403C 245.732,387.755 242.398,372.588 238.5,357.5 Z"/></g>
<g><path style="opacity:1" fill="#c2c3c2" d="M 251.5,361.5 C 253.76,362.238 253.927,363.238 252,364.5C 251.25,363.874 250.416,363.374 249.5,363C 250.416,362.722 251.082,362.222 251.5,361.5 Z"/></g>
<g><path style="opacity:1" fill="#e7e8e7" d="M 360.5,366.5 C 357.536,368.962 354.703,371.629 352,374.5C 351.722,373.584 351.222,372.918 350.5,372.5C 351.572,368.529 353.572,365.029 356.5,362C 358.583,362.559 359.916,364.059 360.5,366.5 Z"/></g>
<g><path style="opacity:1" fill="#c2c3c2" d="M 252.5,365.5 C 254.76,366.238 254.927,367.238 253,368.5C 251.272,367.648 251.105,366.648 252.5,365.5 Z"/></g>
<g><path style="opacity:1" fill="#2d2b00" d="M 360.5,366.5 C 369.88,374.032 379.713,381.032 390,387.5C 390.938,392.136 392.438,396.636 394.5,401C 390.481,409.35 384.148,415.35 375.5,419C 371.057,420.336 367.391,419.336 364.5,416C 366.368,413.211 369.034,411.878 372.5,412C 375.027,409.426 376.194,406.26 376,402.5C 377.167,401.333 378.333,400.167 379.5,399C 378.451,398.508 377.451,398.674 376.5,399.5C 365.707,393.867 355.04,388.034 344.5,382C 342.937,381.241 341.937,380.074 341.5,378.5C 344.051,377.516 346.718,376.516 349.5,375.5C 350.386,374.675 350.719,373.675 350.5,372.5C 351.222,372.918 351.722,373.584 352,374.5C 354.703,371.629 357.536,368.962 360.5,366.5 Z"/></g>
<g><path style="opacity:1" fill="#c2c3c2" d="M 253.5,370.5 C 255.852,371.543 256.019,372.876 254,374.5C 252.232,373.318 252.065,371.985 253.5,370.5 Z"/></g>
<g><path style="opacity:1" fill="#e7e8e7" d="M 350.5,372.5 C 350.719,373.675 350.386,374.675 349.5,375.5C 346.718,376.516 344.051,377.516 341.5,378.5C 337.45,378.376 335.117,376.709 334.5,373.5C 339.677,375.203 344.51,374.536 349,371.5C 349.383,372.056 349.883,372.389 350.5,372.5 Z"/></g>
<g><path style="opacity:1" fill="#c2c3c2" d="M 254.5,376.5 C 256.76,377.238 256.927,378.238 255,379.5C 253.272,378.648 253.105,377.648 254.5,376.5 Z"/></g>
<g><path style="opacity:1" fill="#c2c3c2" d="M 255.5,380.5 C 257.76,381.238 257.927,382.238 256,383.5C 254.272,382.648 254.105,381.648 255.5,380.5 Z"/></g>
<g><path style="opacity:1" fill="#c2c3c2" d="M 255.5,385.5 C 257.76,386.238 257.927,387.238 256,388.5C 254.272,387.648 254.105,386.648 255.5,385.5 Z"/></g>
<g><path style="opacity:1" fill="#c2c3c2" d="M 256.5,390.5 C 257.473,390.987 258.473,391.487 259.5,392C 258.333,392.5 257.5,393.333 257,394.5C 255.666,393.122 255.499,391.789 256.5,390.5 Z"/></g>
<g><path style="opacity:1" fill="#c2c3c2" d="M 257.5,396.5 C 260.674,396.952 261.007,397.952 258.5,399.5C 256.481,398.867 256.147,397.867 257.5,396.5 Z"/></g>
<g><path style="opacity:1" fill="#c2c3c2" d="M 259.5,400.5 C 261.76,401.238 261.927,402.238 260,403.5C 259.25,402.874 258.416,402.374 257.5,402C 258.416,401.722 259.082,401.222 259.5,400.5 Z"/></g>
<g><path style="opacity:1" fill="#c2c3c2" d="M 259.5,405.5 C 261.76,406.238 261.927,407.238 260,408.5C 259.25,407.874 258.416,407.374 257.5,407C 258.416,406.722 259.082,406.222 259.5,405.5 Z"/></g>
<g><path style="opacity:1" fill="#c3c2c3" d="M 257.5,409.5 C 260.674,409.952 261.007,410.952 258.5,412.5C 256.481,411.867 256.147,410.867 257.5,409.5 Z"/></g>
<g><path style="opacity:1" fill="#c2c3c2" d="M 257.5,415.5 C 260.674,415.952 261.007,416.952 258.5,418.5C 256.481,417.867 256.147,416.867 257.5,415.5 Z"/></g>
<g><path style="opacity:1" fill="#c2c3c2" d="M 257.5,420.5 C 260.674,420.952 261.007,421.952 258.5,423.5C 256.481,422.867 256.147,421.867 257.5,420.5 Z"/></g>
</svg>
