<?xml version="1.0" encoding="UTF-8"?>
<!DOCTYPE svg PUBLIC "-//W3C//DTD SVG 1.1//EN" "http://www.w3.org/Graphics/SVG/1.1/DTD/svg11.dtd">
<svg xmlns="http://www.w3.org/2000/svg" version="1.1" width="443px" height="462px" style="shape-rendering:geometricPrecision; text-rendering:geometricPrecision; image-rendering:optimizeQuality; fill-rule:evenodd; clip-rule:evenodd" xmlns:xlink="http://www.w3.org/1999/xlink">
<g><path style="opacity:1" fill="#fefffe" d="M 234.5,32.5 C 241.618,31.6419 248.285,32.8085 254.5,36C 255.893,37.1711 256.727,38.6711 257,40.5C 258.237,47.6914 257.404,54.5247 254.5,61C 254.144,66.7688 256.311,71.2688 261,74.5C 261.667,78.5 261.667,82.5 261,86.5C 258.772,88.9679 255.938,90.1346 252.5,90C 256.639,91.5276 260.972,92.5276 265.5,93C 267.731,94.6097 269.731,96.443 271.5,98.5C 278.291,99.0339 284.958,100.201 291.5,102C 296,103.833 299.167,107 301,111.5C 301.667,116.5 301.667,121.5 301,126.5C 300.07,128.552 298.57,130.052 296.5,131C 302.411,137.743 307.745,144.91 312.5,152.5C 317.838,153.651 321.171,156.818 322.5,162C 326.381,163.19 330.381,163.857 334.5,164C 335.333,164.833 336.167,165.667 337,166.5C 337.059,163.178 338.226,160.344 340.5,158C 345.167,157.333 349.833,157.333 354.5,158C 360.966,167.765 367.799,177.265 375,186.5C 376.127,189.377 376.794,192.377 377,195.5C 380,197.833 383,200.167 386,202.5C 386.234,212.965 390.234,221.631 398,228.5C 399.677,234.849 403.011,240.182 408,244.5C 409.011,253.971 408.344,263.304 406,272.5C 402.879,278.146 398.045,280.813 391.5,280.5C 391.023,281.478 390.357,282.311 389.5,283C 381.574,284.194 373.907,283.361 366.5,280.5C 361.2,281.569 355.866,281.736 350.5,281C 349.784,276.49 347.451,273.157 343.5,271C 337.035,267.365 330.702,263.532 324.5,259.5C 322.282,261.651 320.948,264.318 320.5,267.5C 321.773,272.8 322.939,278.133 324,283.5C 324.667,284.167 325.333,284.833 326,285.5C 327.001,291.831 326.501,297.998 324.5,304C 329.172,310.176 332.672,317.01 335,324.5C 338.982,326.817 342.315,329.817 345,333.5C 346.496,345.122 347.496,356.788 348,368.5C 350.066,373.363 351.732,378.363 353,383.5C 353.522,397.224 352.855,410.89 351,424.5C 348.713,439.91 339.879,445.743 324.5,442C 320.363,441.349 316.863,439.515 314,436.5C 313.667,431.833 313.333,427.167 313,422.5C 309.344,418.553 307.01,413.886 306,408.5C 305.667,404.167 305.333,399.833 305,395.5C 297.48,391.826 292.813,385.826 291,377.5C 285.754,369.587 279.254,363.087 271.5,358C 262.245,355.02 252.912,352.686 243.5,351C 246.884,357.713 251.05,363.88 256,369.5C 255.176,379.32 258.509,387.32 266,393.5C 266.079,397.358 266.746,401.024 268,404.5C 271.946,424.554 263.779,432.721 243.5,429C 237.801,428.067 233.301,425.234 230,420.5C 229.19,413.918 229.357,407.418 230.5,401C 229.419,398.09 227.752,395.59 225.5,393.5C 224.313,387.42 222.813,381.42 221,375.5C 217,370.167 213,364.833 209,359.5C 207.267,351.183 207.1,342.849 208.5,334.5C 207.453,330.222 206.62,325.888 206,321.5C 200.696,317.934 196.029,313.6 192,308.5C 191.163,310.351 190.329,312.184 189.5,314C 185.24,314.57 181.074,315.403 177,316.5C 174.363,323.777 170.696,330.444 166,336.5C 164.533,349.429 167.2,361.429 174,372.5C 175,376.833 176,381.167 177,385.5C 186.183,396.237 189.35,408.571 186.5,422.5C 174.902,424.942 163.236,425.109 151.5,423C 150.874,422.25 150.374,421.416 150,420.5C 149.537,413.148 148.87,405.815 148,398.5C 146.333,395.5 144.667,392.5 143,389.5C 142.847,379.081 141.847,368.748 140,358.5C 138.799,355.29 136.799,352.623 134,350.5C 133.333,340.167 133.333,329.833 134,319.5C 137.649,314.616 139.815,309.116 140.5,303C 138.48,297.352 137.147,291.518 136.5,285.5C 123.909,287.317 111.242,287.817 98.5,287C 97.8742,286.25 97.3742,285.416 97,284.5C 96.3333,279.5 96.3333,274.5 97,269.5C 105.7,264.067 114.867,259.567 124.5,256C 123.257,254.846 122.257,253.512 121.5,252C 119.236,251.764 117.069,251.264 115,250.5C 114.882,247.629 114.216,244.962 113,242.5C 111.036,235.05 112.702,228.716 118,223.5C 120.984,216.195 125.15,209.695 130.5,204C 131.833,203.333 133.167,202.667 134.5,202C 141.36,201.261 148.193,201.428 155,202.5C 161.143,199.285 167.643,196.951 174.5,195.5C 168.528,194.67 162.528,194.17 156.5,194C 154.791,192.455 152.791,191.622 150.5,191.5C 126.234,194.509 101.901,196.343 77.5,197C 77,196.5 76.5,196 76,195.5C 75.3333,190.833 75.3333,186.167 76,181.5C 100.493,178.6 124.993,175.6 149.5,172.5C 148.855,171.354 148.022,170.354 147,169.5C 146.333,164.833 146.333,160.167 147,155.5C 148.29,153.208 149.957,151.208 152,149.5C 152.333,143.5 152.667,137.5 153,131.5C 161.288,125.547 169.288,119.214 177,112.5C 178.147,106.052 180.647,100.219 184.5,95C 185.833,94.3333 187.167,93.6667 188.5,93C 195.703,92.9518 202.703,92.1184 209.5,90.5C 210.893,80.7221 210.06,71.0554 207,61.5C 205.279,59.2893 203.279,57.2893 201,55.5C 200.333,50.1667 200.333,44.8333 201,39.5C 201.833,38.6667 202.667,37.8333 203.5,37C 214.142,36.6977 224.476,35.1977 234.5,32.5 Z M 193.5,146.5 C 194.693,146.97 195.36,147.97 195.5,149.5C 193.517,155.09 191.684,160.757 190,166.5C 188.507,168.56 186.674,168.893 184.5,167.5C 183.696,166.059 183.029,164.559 182.5,163C 184.771,159.907 185.938,156.407 186,152.5C 188.478,150.361 190.978,148.361 193.5,146.5 Z M 264.5,148.5 C 268.508,151.186 272.175,154.353 275.5,158C 272.381,159.405 269.048,159.905 265.5,159.5C 265.677,155.766 265.344,152.099 264.5,148.5 Z"/></g>
<g><path style="opacity:1" fill="#010101" d="M 237.5,35.5 C 240.187,35.3359 242.854,35.5026 245.5,36C 247.221,37.5272 249.221,38.5272 251.5,39C 255.767,45.423 255.434,51.5897 250.5,57.5C 251.413,62.4685 252.247,67.4685 253,72.5C 255.891,74.5379 257.724,77.2046 258.5,80.5C 257.699,85.6169 254.699,87.6169 249.5,86.5C 249.756,88.7925 249.423,90.9592 248.5,93C 253.052,94.4264 257.719,95.4264 262.5,96C 264.731,97.6097 266.731,99.443 268.5,101.5C 275.291,102.034 281.958,103.201 288.5,105C 296.564,108.629 299.731,114.795 298,123.5C 296.201,125.83 294.035,127.83 291.5,129.5C 297.5,138.167 303.5,146.833 309.5,155.5C 314.838,156.651 318.171,159.818 319.5,165C 320.931,165.465 322.097,166.299 323,167.5C 325.737,166.39 328.571,166.223 331.5,167C 333.645,170.312 336.312,173.146 339.5,175.5C 340.325,171.878 340.825,168.211 341,164.5C 341.465,163.069 342.299,161.903 343.5,161C 346.993,159.996 350.159,160.496 353,162.5C 358.595,172.026 364.929,181.026 372,189.5C 373.127,192.377 373.794,195.377 374,198.5C 377,200.833 380,203.167 383,205.5C 383.234,215.965 387.234,224.631 395,231.5C 396.677,237.849 400.011,243.182 405,247.5C 405.861,254.975 405.194,262.309 403,269.5C 399.879,275.146 395.045,277.813 388.5,277.5C 388.023,278.478 387.357,279.311 386.5,280C 378.386,281.628 371.552,279.461 366,273.5C 363.103,278.155 358.937,279.655 353.5,278C 352.544,275.123 351.211,272.456 349.5,270C 340.794,264.314 331.794,259.147 322.5,254.5C 318.362,259.381 316.862,265.048 318,271.5C 318.848,279.061 320.681,286.227 323.5,293C 323.34,297.487 321.673,301.321 318.5,304.5C 325.044,310.915 329.544,318.582 332,327.5C 335.982,329.817 339.315,332.817 342,336.5C 343.496,348.122 344.496,359.788 345,371.5C 347.066,376.363 348.732,381.363 350,386.5C 349.738,398.164 349.071,409.83 348,421.5C 344.87,438.649 335.37,443.482 319.5,436C 318.667,435.167 317.833,434.333 317,433.5C 316.233,429.442 316.4,425.442 317.5,421.5C 310.594,414.116 307.927,405.449 309.5,395.5C 307.474,391.558 304.307,388.891 300,387.5C 297.19,383.547 295.19,379.213 294,374.5C 288.754,366.587 282.254,360.087 274.5,355C 264.167,352 253.833,349 243.5,346C 241,344.833 239.167,343 238,340.5C 239.699,352.571 244.699,363.238 253,372.5C 252.176,382.32 255.509,390.32 263,396.5C 263.313,402.339 264.146,408.006 265.5,413.5C 265.507,419.682 262.507,423.849 256.5,426C 247.053,427.519 239.22,424.685 233,417.5C 232.695,410.817 232.695,404.15 233,397.5C 232.088,394.761 230.588,392.428 228.5,390.5C 227.313,384.42 225.813,378.42 224,372.5C 220,367.167 216,361.833 212,356.5C 209.844,349.223 210.011,342.056 212.5,335C 210.855,329.64 209.688,324.14 209,318.5C 203.696,314.934 199.029,310.6 195,305.5C 193.69,300.876 191.356,296.876 188,293.5C 187.895,296.473 188.062,299.473 188.5,302.5C 188.458,305.259 187.958,307.925 187,310.5C 182.667,311.5 178.333,312.5 174,313.5C 171.363,320.777 167.696,327.444 163,333.5C 160.314,348.583 162.98,362.583 171,375.5C 172,379.833 173,384.167 174,388.5C 182.117,397.348 185.283,407.681 183.5,419.5C 173.651,422.053 163.818,422.053 154,419.5C 152.646,411.589 151.646,403.589 151,395.5C 149.333,392.5 147.667,389.5 146,386.5C 145.847,376.081 144.847,365.748 143,355.5C 141.799,352.29 139.799,349.623 137,347.5C 136.333,339.167 136.333,330.833 137,322.5C 141.034,316.715 143.201,310.215 143.5,303C 142.42,297.847 141.42,292.681 140.5,287.5C 140.924,285.13 141.091,282.796 141,280.5C 138.34,281.834 135.506,282.668 132.5,283C 122.19,284.245 111.856,284.578 101.5,284C 98.8937,279.601 98.8937,275.267 101.5,271C 109.461,266.52 117.794,262.854 126.5,260C 130.333,256.833 134.167,253.667 138,250.5C 138.667,249.5 138.667,248.5 138,247.5C 136.471,248.729 135.304,250.229 134.5,252C 131.833,252.667 129.167,252.667 126.5,252C 125.833,251 125.167,250 124.5,249C 122.236,248.764 120.069,248.264 118,247.5C 117.882,244.629 117.216,241.962 116,239.5C 114.733,234.082 116.399,229.748 121,226.5C 123.412,221.341 126.079,216.341 129,211.5C 134.357,204.915 141.191,202.749 149.5,205C 152,205.375 154.333,206.208 156.5,207.5C 162.999,202.553 170.333,199.553 178.5,198.5C 177.194,194.635 177.194,190.802 178.5,187C 177.552,186.517 176.552,186.351 175.5,186.5C 175.714,188.144 175.38,189.644 174.5,191C 169.5,191.667 164.5,191.667 159.5,191C 157.714,190.215 156.214,189.049 155,187.5C 130.282,190.686 105.449,192.853 80.5,194C 78.2799,190.899 77.9465,187.565 79.5,184C 103.81,181.236 128.144,178.736 152.5,176.5C 152.472,174.418 153.139,172.584 154.5,171C 149.331,167.19 148.165,162.357 151,156.5C 153.018,154.65 154.851,152.65 156.5,150.5C 155.382,145.22 155.216,139.887 156,134.5C 164.288,128.547 172.288,122.214 180,115.5C 181.147,109.052 183.647,103.219 187.5,98C 189.9,96.2993 192.567,95.466 195.5,95.5C 202.142,97.3344 207.975,96.001 213,91.5C 214.387,79.5914 213.054,67.9247 209,56.5C 203.714,53.3281 202.047,48.6614 204,42.5C 204.833,41.6667 205.667,40.8333 206.5,40C 217.142,39.6977 227.476,38.1977 237.5,35.5 Z M 193.5,146.5 C 190.978,148.361 188.478,150.361 186,152.5C 185.938,156.407 184.771,159.907 182.5,163C 183.029,164.559 183.696,166.059 184.5,167.5C 186.674,168.893 188.507,168.56 190,166.5C 191.684,160.757 193.517,155.09 195.5,149.5C 195.36,147.97 194.693,146.97 193.5,146.5 Z M 264.5,148.5 C 265.344,152.099 265.677,155.766 265.5,159.5C 269.048,159.905 272.381,159.405 275.5,158C 272.175,154.353 268.508,151.186 264.5,148.5 Z"/></g>
<g><path style="opacity:1" fill="#fefffe" d="M 236.5,42.5 C 237.492,44.0265 238.992,44.6932 241,44.5C 242.167,44.3333 243.333,44.1667 244.5,44C 243.944,43.6174 243.611,43.1174 243.5,42.5C 246.937,42.7701 248.937,44.6034 249.5,48C 247.197,50.302 245.197,52.802 243.5,55.5C 240.763,56.031 238.096,56.8644 235.5,58C 230.698,59.9013 226.364,62.568 222.5,66C 223.43,66.9907 224.596,67.4907 226,67.5C 228.462,66.8405 230.962,66.5072 233.5,66.5C 233.167,67.1667 232.833,67.8333 232.5,68.5C 229.468,68.505 226.468,68.8384 223.5,69.5C 221.486,69.5635 219.819,68.8968 218.5,67.5C 217.699,65.9582 217.366,64.2915 217.5,62.5C 218.601,60.0121 217.934,58.0121 215.5,56.5C 215.291,55.0783 214.791,53.745 214,52.5C 211.842,51.1741 210.008,49.5075 208.5,47.5C 208.977,46.5224 209.643,45.6891 210.5,45C 219.222,44.5917 227.888,43.7583 236.5,42.5 Z"/></g>
<g><path style="opacity:1" fill="#ec1c23" d="M 236.5,42.5 C 238.833,42.5 241.167,42.5 243.5,42.5C 243.611,43.1174 243.944,43.6174 244.5,44C 243.333,44.1667 242.167,44.3333 241,44.5C 238.992,44.6932 237.492,44.0265 236.5,42.5 Z"/></g>
<g><path style="opacity:1" fill="#ec1c23" d="M 230.5,44.5 C 234.222,45.0166 237.888,45.85 241.5,47C 235.283,48.9809 228.95,49.9809 222.5,50C 224.573,47.0597 227.24,45.2264 230.5,44.5 Z"/></g>
<g><path style="opacity:1" fill="#ec1c23" d="M 215.5,45.5 C 218.073,45.1485 220.406,45.6485 222.5,47C 219.753,48.6044 216.753,49.4378 213.5,49.5C 213.527,47.8007 214.194,46.4674 215.5,45.5 Z"/></g>
<g><path style="opacity:1" fill="#ec1c23" d="M 236.5,50.5 C 239.187,50.3359 241.854,50.5026 244.5,51C 236.224,52.092 228.39,54.592 221,58.5C 219.606,57.3867 218.439,56.0534 217.5,54.5C 223.954,53.1648 230.287,51.8315 236.5,50.5 Z"/></g>
<g><path style="opacity:1" fill="#ec1c23" d="M 243.5,55.5 C 243.5,56.1667 243.5,56.8333 243.5,57.5C 238.245,58.4239 234.912,61.4239 233.5,66.5C 230.962,66.5072 228.462,66.8405 226,67.5C 224.596,67.4907 223.43,66.9907 222.5,66C 226.364,62.568 230.698,59.9013 235.5,58C 238.096,56.8644 240.763,56.031 243.5,55.5 Z"/></g>
<g><path style="opacity:1" fill="#ec1c23" d="M 215.5,56.5 C 217.934,58.0121 218.601,60.0121 217.5,62.5C 216.883,62.3893 216.383,62.056 216,61.5C 215.727,59.8988 215.227,58.3988 214.5,57C 214.728,56.6012 215.062,56.4346 215.5,56.5 Z"/></g>
<g><path style="opacity:1" fill="#eebc12" d="M 243.5,57.5 C 244.931,57.8807 245.764,58.8807 246,60.5C 247.513,65.5102 248.013,70.5102 247.5,75.5C 242.638,75.7875 238.304,77.4542 234.5,80.5C 231.914,80.0542 230.58,78.5542 230.5,76C 230.94,73.4026 231.607,70.9026 232.5,68.5C 232.833,67.8333 233.167,67.1667 233.5,66.5C 234.912,61.4239 238.245,58.4239 243.5,57.5 Z"/></g>
<g><path style="opacity:1" fill="#000000" d="M 237.5,62.5 C 238.983,64.0938 240.483,65.7605 242,67.5C 242.667,68.5 242.667,69.5 242,70.5C 239.843,68.1829 238.343,65.5162 237.5,62.5 Z"/></g>
<g><path style="opacity:1" fill="#333333" d="M 218.5,67.5 C 219.819,68.8968 221.486,69.5635 223.5,69.5C 226.468,68.8384 229.468,68.505 232.5,68.5C 231.607,70.9026 230.94,73.4026 230.5,76C 230.58,78.5542 231.914,80.0542 234.5,80.5C 238.304,77.4542 242.638,75.7875 247.5,75.5C 248.673,77.5041 250.34,79.0041 252.5,80C 251.833,80.6667 251.167,81.3333 250.5,82C 245.944,81.9757 241.277,82.1424 236.5,82.5C 234.194,82.0074 231.861,81.6741 229.5,81.5C 229.158,80.6618 228.492,80.3284 227.5,80.5C 224.583,76.2563 222.583,76.5896 221.5,81.5C 221.167,81.5 220.833,81.5 220.5,81.5C 220.5,80.5 220.5,79.5 220.5,78.5C 219.791,77.596 218.791,77.2627 217.5,77.5C 217.557,75.1155 217.223,72.7822 216.5,70.5C 216.453,68.9623 217.12,67.9623 218.5,67.5 Z"/></g>
<g><path style="opacity:1" fill="#000000" d="M 234.5,68.5 C 236.487,69.1642 238.154,70.3308 239.5,72C 238.833,72.6667 238.167,72.6667 237.5,72C 235.937,71.2411 234.937,70.0744 234.5,68.5 Z"/></g>
<g><path style="opacity:1" fill="#fefffe" d="M 227.5,80.5 C 227.333,85.8646 228.5,91.1979 231,96.5C 233.68,99.0107 236.847,100.677 240.5,101.5C 242.038,101.547 243.038,100.88 243.5,99.5C 243.833,99.5 244.167,99.5 244.5,99.5C 244.229,101.43 243.229,102.764 241.5,103.5C 239.379,103.675 237.379,103.341 235.5,102.5C 232.614,101.121 230.114,99.1208 228,96.5C 225.906,91.3577 223.74,86.3577 221.5,81.5C 222.583,76.5896 224.583,76.2563 227.5,80.5 Z"/></g>
<g><path style="opacity:1" fill="#660d12" d="M 220.5,78.5 C 220.5,79.5 220.5,80.5 220.5,81.5C 218.567,84.083 217.9,86.7496 218.5,89.5C 216.698,88.6845 215.698,87.1845 215.5,85C 216.078,83.1886 216.578,81.3553 217,79.5C 218.011,78.6634 219.178,78.33 220.5,78.5 Z"/></g>
<g><path style="opacity:1" fill="#e5b5a7" d="M 227.5,80.5 C 228.492,80.3284 229.158,80.6618 229.5,81.5C 233.807,86.3797 239.14,88.0464 245.5,86.5C 245.539,87.5832 245.873,88.5832 246.5,89.5C 244.369,90.1687 242.369,90.8354 240.5,91.5C 237.023,91.6118 235.523,93.2785 236,96.5C 238.301,95.1328 240.801,94.4661 243.5,94.5C 242.929,96.36 242.929,98.0267 243.5,99.5C 243.038,100.88 242.038,101.547 240.5,101.5C 236.847,100.677 233.68,99.0107 231,96.5C 228.5,91.1979 227.333,85.8646 227.5,80.5 Z"/></g>
<g><path style="opacity:1" fill="#e5b5a7" d="M 220.5,81.5 C 220.833,81.5 221.167,81.5 221.5,81.5C 223.74,86.3577 225.906,91.3577 228,96.5C 230.114,99.1208 232.614,101.121 235.5,102.5C 234.749,103.573 233.749,103.74 232.5,103C 225.694,100.02 221.027,95.52 218.5,89.5C 217.9,86.7496 218.567,84.083 220.5,81.5 Z"/></g>
<g><path style="opacity:1" fill="#e27e61" d="M 229.5,81.5 C 231.861,81.6741 234.194,82.0074 236.5,82.5C 239.028,83.1657 241.694,83.8324 244.5,84.5C 244.863,85.1835 245.196,85.8501 245.5,86.5C 239.14,88.0464 233.807,86.3797 229.5,81.5 Z"/></g>
<g><path style="opacity:1" fill="#870014" d="M 240.5,91.5 C 241.5,91.5 242.5,91.5 243.5,91.5C 243.5,92.5 243.5,93.5 243.5,94.5C 240.801,94.4661 238.301,95.1328 236,96.5C 235.523,93.2785 237.023,91.6118 240.5,91.5 Z"/></g>
<g><path style="opacity:1" fill="#ec1c23" d="M 217.5,93.5 C 223.041,100.038 230.041,104.038 238.5,105.5C 237.499,108.173 235.999,110.507 234,112.5C 228.102,109.199 222.435,105.533 217,101.5C 216.398,98.7795 216.565,96.1128 217.5,93.5 Z"/></g>
<g><path style="opacity:1" fill="#fcebca" d="M 233.5,142.5 C 232.153,141.829 230.986,141.829 230,142.5C 223.556,152.609 216.723,162.443 209.5,172C 206.167,172.667 202.833,172.667 199.5,172C 209.394,161.719 216.894,149.886 222,136.5C 230.05,126.397 236.55,115.397 241.5,103.5C 243.229,102.764 244.229,101.43 244.5,99.5C 244.281,98.325 244.614,97.325 245.5,96.5C 246.719,97.6461 248.052,98.6461 249.5,99.5C 246.015,113.799 240.348,127.132 232.5,139.5C 233.127,140.417 233.461,141.417 233.5,142.5 Z"/></g>
<g><path style="opacity:1" fill="#fefffe" d="M 211.5,97.5 C 214.173,97.6845 214.84,98.8511 213.5,101C 208.364,102.98 203.031,104.313 197.5,105C 201.013,106.149 203.013,108.649 203.5,112.5C 198.833,115.167 194.167,117.833 189.5,120.5C 188.264,119.754 186.93,119.421 185.5,119.5C 186.039,114.679 187.205,110.012 189,105.5C 189.914,109.185 190.581,108.852 191,104.5C 192.667,102.833 194.333,101.167 196,99.5C 201.641,102.432 206.807,101.766 211.5,97.5 Z"/></g>
<g><path style="opacity:1" fill="#fefffe" d="M 291.5,115.5 C 292.665,116.496 293.332,117.829 293.5,119.5C 292.214,121.29 290.714,122.957 289,124.5C 284.492,120.916 279.826,117.582 275,114.5C 274.228,114.645 273.561,114.978 273,115.5C 272.506,117.134 272.34,118.801 272.5,120.5C 274.12,125.839 273.786,131.005 271.5,136C 269.975,137.009 268.308,137.509 266.5,137.5C 261.773,137.952 257.94,136.285 255,132.5C 254.828,139.346 254.328,146.013 253.5,152.5C 253.5,145.833 253.5,139.167 253.5,132.5C 253.585,131.005 252.919,130.005 251.5,129.5C 250.77,131.341 250.103,133.175 249.5,135C 248.216,135.684 247.049,135.517 246,134.5C 245.749,131.406 246.249,128.406 247.5,125.5C 247.672,124.508 247.338,123.842 246.5,123.5C 246.167,122.5 245.5,121.833 244.5,121.5C 245.648,118.711 246.981,116.044 248.5,113.5C 250.858,113.253 252.858,113.919 254.5,115.5C 258.712,120.653 263.045,120.487 267.5,115C 266.139,113.416 265.472,111.582 265.5,109.5C 265.573,107.973 264.906,106.973 263.5,106.5C 260.982,103.744 257.982,101.744 254.5,100.5C 253.737,99.7321 252.737,99.2321 251.5,99C 254.985,98.7025 258.318,99.3692 261.5,101C 263.393,103.303 265.393,105.47 267.5,107.5C 275.329,106.233 282.662,107.733 289.5,112C 290.823,112.816 291.489,113.983 291.5,115.5 Z"/></g>
<g><path style="opacity:1" fill="#2827e3" d="M 254.5,100.5 C 257.982,101.744 260.982,103.744 263.5,106.5C 263.427,108.027 264.094,109.027 265.5,109.5C 265.472,111.582 266.139,113.416 267.5,115C 263.045,120.487 258.712,120.653 254.5,115.5C 255.686,111.296 254.353,107.963 250.5,105.5C 249.756,102.05 251.09,100.384 254.5,100.5 Z"/></g>
<g><path style="opacity:1" fill="#2827e3" d="M 214.5,102.5 C 216.671,104.5 219.004,106.334 221.5,108C 215.392,110.084 212.558,114.25 213,120.5C 215.783,124.951 218.95,129.117 222.5,133C 217.032,139.469 211.199,145.636 205,151.5C 204.722,145.051 203.722,138.718 202,132.5C 201.439,131.978 200.772,131.645 200,131.5C 192.175,135.411 184.842,140.078 178,145.5C 177.764,147.764 177.264,149.931 176.5,152C 174.053,150.97 171.386,150.137 168.5,149.5C 166.161,149.669 163.994,150.336 162,151.5C 160.676,146.961 160.51,142.461 161.5,138C 169.119,132.716 176.452,127.049 183.5,121C 186.026,121.904 188.692,122.238 191.5,122C 195.674,119.412 200.007,117.079 204.5,115C 205.579,112.101 205.246,109.267 203.5,106.5C 207.614,106.077 211.28,104.744 214.5,102.5 Z"/></g>
<g><path style="opacity:1" fill="#fefffe" d="M 250.5,105.5 C 254.353,107.963 255.686,111.296 254.5,115.5C 252.858,113.919 250.858,113.253 248.5,113.5C 249.609,112.71 250.942,112.21 252.5,112C 251.429,111.148 250.429,110.315 249.5,109.5C 249.232,107.901 249.566,106.568 250.5,105.5 Z"/></g>
<g><path style="opacity:1" fill="#000000" d="M 263.5,106.5 C 264.906,106.973 265.573,107.973 265.5,109.5C 264.094,109.027 263.427,108.027 263.5,106.5 Z"/></g>
<g><path style="opacity:1" fill="#000000" d="M 291.5,115.5 C 291.978,118.278 290.978,120.278 288.5,121.5C 282.833,117.667 277.167,113.833 271.5,110C 272.108,109.13 272.941,108.63 274,108.5C 280.307,109.766 286.141,112.1 291.5,115.5 Z"/></g>
<g><path style="opacity:1" fill="#fefffe" d="M 232.5,115.5 C 225.403,109.109 220.069,110.276 216.5,119C 217.124,121.085 218.124,122.918 219.5,124.5C 220.167,125.833 221.167,126.833 222.5,127.5C 223.5,127.833 224.167,128.5 224.5,129.5C 224.217,130.289 223.717,130.956 223,131.5C 219.254,127.587 216.087,123.254 213.5,118.5C 217.031,109.317 223.031,107.15 231.5,112C 233.311,113.041 233.645,114.207 232.5,115.5 Z"/></g>
<g><path style="opacity:1" fill="#ec1c23" d="M 249.5,109.5 C 250.429,110.315 251.429,111.148 252.5,112C 250.942,112.21 249.609,112.71 248.5,113.5C 247.529,112.038 247.862,110.705 249.5,109.5 Z"/></g>
<g><path style="opacity:1" fill="#ec1c23" d="M 232.5,115.5 C 232.018,121.103 229.351,125.77 224.5,129.5C 224.167,128.5 223.5,127.833 222.5,127.5C 222.833,126.833 223.167,126.167 223.5,125.5C 224.525,125.103 224.692,124.437 224,123.5C 223.023,122.226 222.189,122.226 221.5,123.5C 220.833,123.833 220.167,124.167 219.5,124.5C 218.124,122.918 217.124,121.085 216.5,119C 220.069,110.276 225.403,109.109 232.5,115.5 Z"/></g>
<g><path style="opacity:1" fill="#2827e3" d="M 272.5,120.5 C 281.012,124.673 287.679,131.006 292.5,139.5C 289.167,143.167 285.833,146.833 282.5,150.5C 277.097,146.148 271.763,141.814 266.5,137.5C 268.308,137.509 269.975,137.009 271.5,136C 273.786,131.005 274.12,125.839 272.5,120.5 Z"/></g>
<g><path style="opacity:1" fill="#d81e21" d="M 244.5,121.5 C 244.5,122.167 244.5,122.833 244.5,123.5C 243.593,126.237 244.593,126.904 247.5,125.5C 246.249,128.406 245.749,131.406 246,134.5C 247.049,135.517 248.216,135.684 249.5,135C 250.103,133.175 250.77,131.341 251.5,129.5C 252.919,130.005 253.585,131.005 253.5,132.5C 252.767,134.294 251.767,135.961 250.5,137.5C 250.5,138.167 250.5,138.833 250.5,139.5C 253.167,141.833 253.167,144.167 250.5,146.5C 250.5,147.167 250.5,147.833 250.5,148.5C 251.659,149.74 252.659,151.074 253.5,152.5C 253.218,153.778 252.551,154.778 251.5,155.5C 251.5,156.167 251.5,156.833 251.5,157.5C 252.806,158.467 253.473,159.801 253.5,161.5C 251.143,161.663 248.81,161.497 246.5,161C 245.186,160.015 244.186,158.848 243.5,157.5C 241.799,151.081 241.133,144.415 241.5,137.5C 241.335,133.818 241.501,130.152 242,126.5C 242.099,124.347 242.933,122.681 244.5,121.5 Z"/></g>
<g><path style="opacity:1" fill="#000000" d="M 244.5,121.5 C 245.5,121.833 246.167,122.5 246.5,123.5C 245.833,123.5 245.167,123.5 244.5,123.5C 244.5,122.833 244.5,122.167 244.5,121.5 Z"/></g>
<g><path style="opacity:1" fill="#2827e3" d="M 268.5,122.5 C 269.765,123.514 270.431,125.014 270.5,127C 271.031,131.452 269.198,134.285 265,135.5C 260.514,132.856 257.347,129.189 255.5,124.5C 257.903,124.393 259.736,125.393 261,127.5C 262.243,125.167 263.909,124.5 266,125.5C 267.045,124.627 267.878,123.627 268.5,122.5 Z"/></g>
<g><path style="opacity:1" fill="#000000" d="M 221.5,123.5 C 221.5,124.833 222.167,125.5 223.5,125.5C 223.167,126.167 222.833,126.833 222.5,127.5C 221.167,126.833 220.167,125.833 219.5,124.5C 220.167,124.167 220.833,123.833 221.5,123.5 Z"/></g>
<g><path style="opacity:1" fill="#fefffe" d="M 223.5,125.5 C 222.167,125.5 221.5,124.833 221.5,123.5C 222.189,122.226 223.023,122.226 224,123.5C 224.692,124.437 224.525,125.103 223.5,125.5 Z"/></g>
<g><path style="opacity:1" fill="#fefffe" d="M 244.5,123.5 C 245.167,123.5 245.833,123.5 246.5,123.5C 247.338,123.842 247.672,124.508 247.5,125.5C 244.593,126.904 243.593,126.237 244.5,123.5 Z"/></g>
<g><path style="opacity:1" fill="#ec1c23" d="M 241.5,137.5 C 241.133,144.415 241.799,151.081 243.5,157.5C 243.5,158.5 243.5,159.5 243.5,160.5C 238.859,161.127 234.193,161.46 229.5,161.5C 229.5,160.5 229.5,159.5 229.5,158.5C 230.167,158.5 230.5,158.167 230.5,157.5C 230.833,157.5 231.167,157.5 231.5,157.5C 231.897,158.525 232.563,158.692 233.5,158C 234.774,157.023 234.774,156.189 233.5,155.5C 230.833,153.5 230.833,151.5 233.5,149.5C 234.833,148.833 234.833,148.167 233.5,147.5C 231.489,146.258 231.489,144.591 233.5,142.5C 235.369,138.434 237.536,134.434 240,130.5C 240.186,133.036 240.686,135.369 241.5,137.5 Z"/></g>
<g><path style="opacity:1" fill="#000000" d="M 253.5,132.5 C 253.5,139.167 253.5,145.833 253.5,152.5C 252.659,151.074 251.659,149.74 250.5,148.5C 253.167,147.833 253.167,147.167 250.5,146.5C 253.167,144.167 253.167,141.833 250.5,139.5C 253.167,138.833 253.167,138.167 250.5,137.5C 251.767,135.961 252.767,134.294 253.5,132.5 Z"/></g>
<g><path style="opacity:1" fill="#fefffe" d="M 250.5,137.5 C 253.167,138.167 253.167,138.833 250.5,139.5C 250.5,138.833 250.5,138.167 250.5,137.5 Z"/></g>
<g><path style="opacity:1" fill="#feeecb" d="M 219.5,138.5 C 220.043,138.56 220.376,138.893 220.5,139.5C 215.079,149.348 208.912,158.681 202,167.5C 202.972,162.929 203.972,158.263 205,153.5C 210.037,148.631 214.87,143.631 219.5,138.5 Z"/></g>
<g><path style="opacity:1" fill="#fefffe" d="M 195.5,140.5 C 196.496,140.414 197.329,140.748 198,141.5C 198.446,144.343 198.946,147.176 199.5,150C 196.952,156.354 194.785,162.854 193,169.5C 189.527,171.46 185.694,172.46 181.5,172.5C 181.107,169.215 179.774,166.382 177.5,164C 180.072,159.371 181.906,154.538 183,149.5C 187.322,146.601 191.489,143.601 195.5,140.5 Z M 193.5,146.5 C 190.978,148.361 188.478,150.361 186,152.5C 185.938,156.407 184.771,159.907 182.5,163C 183.029,164.559 183.696,166.059 184.5,167.5C 186.674,168.893 188.507,168.56 190,166.5C 191.684,160.757 193.517,155.09 195.5,149.5C 195.36,147.97 194.693,146.97 193.5,146.5 Z"/></g>
<g><path style="opacity:1" fill="#fefffe" d="M 260.5,140.5 C 261.552,140.351 262.552,140.517 263.5,141C 270.167,147 276.833,153 283.5,159C 276.897,162.127 269.897,163.627 262.5,163.5C 262.312,155.771 261.646,148.104 260.5,140.5 Z M 264.5,148.5 C 265.344,152.099 265.677,155.766 265.5,159.5C 269.048,159.905 272.381,159.405 275.5,158C 272.175,154.353 268.508,151.186 264.5,148.5 Z"/></g>
<g><path style="opacity:1" fill="#feeecb" d="M 291.5,144.5 C 292.552,144.351 293.552,144.517 294.5,145C 298.866,149.561 302.366,154.728 305,160.5C 308.665,161.408 311.498,163.408 313.5,166.5C 313,166.833 312.5,167.167 312,167.5C 309.889,166.528 307.722,165.695 305.5,165C 306.833,164.333 306.833,163.667 305.5,163C 302.475,162.639 299.475,162.139 296.5,161.5C 292.5,158.5 288.5,155.5 284.5,152.5C 285.827,148.847 288.16,146.18 291.5,144.5 Z"/></g>
<g><path style="opacity:1" fill="#e3e3e3" d="M 230.5,157.5 C 230.5,158.167 230.167,158.5 229.5,158.5C 228.732,159.263 228.232,160.263 228,161.5C 227.51,160.207 227.343,158.873 227.5,157.5C 227.5,156.833 227.833,156.5 228.5,156.5C 229.323,153.023 229.823,149.356 230,145.5C 230.499,149.486 230.666,153.486 230.5,157.5 Z"/></g>
<g><path style="opacity:1" fill="#fefffe" d="M 250.5,146.5 C 253.167,147.167 253.167,147.833 250.5,148.5C 250.5,147.833 250.5,147.167 250.5,146.5 Z"/></g>
<g><path style="opacity:1" fill="#b8b8b8" d="M 233.5,147.5 C 234.833,148.167 234.833,148.833 233.5,149.5C 230.833,148.833 230.833,148.167 233.5,147.5 Z"/></g>
<g><path style="opacity:1" fill="#2827e3" d="M 228.5,156.5 C 227.833,156.5 227.5,156.833 227.5,157.5C 226.566,158.568 226.232,159.901 226.5,161.5C 224.473,161.662 222.473,161.495 220.5,161C 223,157.167 225.5,153.333 228,149.5C 228.497,151.81 228.663,154.143 228.5,156.5 Z"/></g>
<g><path style="opacity:1" fill="#fefffe" d="M 233.5,155.5 C 234.774,156.189 234.774,157.023 233.5,158C 232.563,158.692 231.897,158.525 231.5,157.5C 231.5,156.167 232.167,155.5 233.5,155.5 Z"/></g>
<g><path style="opacity:1" fill="#fefffe" d="M 251.5,155.5 C 254.167,156.167 254.167,156.833 251.5,157.5C 251.5,156.833 251.5,156.167 251.5,155.5 Z"/></g>
<g><path style="opacity:1" fill="#fefffe" d="M 239.5,162.5 C 240.468,164.607 240.802,166.941 240.5,169.5C 234.112,169.688 227.778,169.188 221.5,168C 218.354,167.89 217.354,166.557 218.5,164C 225.679,163.829 232.679,163.329 239.5,162.5 Z"/></g>
<g><path style="opacity:1" fill="#fec90d" d="M 250.5,164.5 C 250.64,166.124 249.973,167.29 248.5,168C 246.19,168.497 243.857,168.663 241.5,168.5C 241.5,166.5 241.5,164.5 241.5,162.5C 244.63,162.7 247.63,163.366 250.5,164.5 Z"/></g>
<g><path style="opacity:1" fill="#bebebe" d="M 276.5,170.5 C 275.167,169.5 275.167,168.5 276.5,167.5C 285.208,162.462 294.541,161.295 304.5,164C 296.943,167.13 289.277,169.963 281.5,172.5C 279.7,172.098 278.033,171.431 276.5,170.5 Z"/></g>
<g><path style="opacity:1" fill="#fefffe" d="M 250.5,164.5 C 251.919,163.549 253.585,163.216 255.5,163.5C 254.253,167.99 252.586,168.324 250.5,164.5 Z"/></g>
<g><path style="opacity:1" fill="#f3e3c2" d="M 168.5,177.5 C 167.07,179.455 167.403,181.121 169.5,182.5C 169.33,183.822 169.663,184.989 170.5,186C 168.951,185.478 167.451,185.645 166,186.5C 165.055,186.095 164.388,185.428 164,184.5C 163.107,185.711 162.274,185.711 161.5,184.5C 160.208,182.333 159.375,180 159,177.5C 158.667,178.833 158.333,180.167 158,181.5C 156.513,179.728 156.18,177.728 157,175.5C 158.164,173.351 159.33,171.185 160.5,169C 157.745,167.289 155.411,165.122 153.5,162.5C 156.355,159.48 159.021,156.313 161.5,153C 166.655,150.21 170.988,151.043 174.5,155.5C 172.879,158.652 171.879,161.985 171.5,165.5C 160.854,165.671 160.854,166.171 171.5,167C 173.684,169.016 175.684,171.183 177.5,173.5C 174.467,174.83 171.467,176.163 168.5,177.5 Z"/></g>
<g><path style="opacity:1" fill="#fefffe" d="M 276.5,167.5 C 275.167,168.5 275.167,169.5 276.5,170.5C 276.5,171.167 276.5,171.833 276.5,172.5C 269.144,173.077 261.811,173.91 254.5,175C 258.203,175.579 261.869,175.412 265.5,174.5C 265.369,175.239 265.536,175.906 266,176.5C 268.137,177.479 269.971,178.812 271.5,180.5C 271.167,181.167 270.833,181.833 270.5,182.5C 266.878,183.325 263.211,183.825 259.5,184C 256.509,186.141 255.342,188.975 256,192.5C 258.769,197.039 261.269,201.706 263.5,206.5C 259.32,211.543 255.653,216.877 252.5,222.5C 241.014,225.824 230.847,231.491 222,239.5C 223.977,234.088 227.144,229.255 231.5,225C 237.667,220.167 243.833,215.333 250,210.5C 251.747,206.132 251.747,201.798 250,197.5C 247.167,194 244.333,190.5 241.5,187C 242.167,186 242.833,185 243.5,184C 248.189,183.709 252.856,183.709 257.5,184C 258.996,179.629 257.329,177.129 252.5,176.5C 250.097,175.935 248.43,174.435 247.5,172C 247.905,171.055 248.572,170.388 249.5,170C 257.654,168.761 265.821,167.594 274,166.5C 275.07,166.528 275.903,166.861 276.5,167.5 Z"/></g>
<g><path style="opacity:1" fill="#393939" d="M 326.5,184.5 C 322.57,181.903 319.236,178.57 316.5,174.5C 316.167,174.667 315.833,174.833 315.5,175C 317.623,179.287 320.623,182.787 324.5,185.5C 325.694,187.516 325.694,189.516 324.5,191.5C 321.342,196.783 318.842,202.449 317,208.5C 316.077,206.966 315.577,205.299 315.5,203.5C 316.147,200.767 316.647,198.1 317,195.5C 312.943,198.891 309.61,202.891 307,207.5C 305.908,204.956 305.241,202.289 305,199.5C 304.292,200.381 303.458,201.047 302.5,201.5C 299.26,201.232 296.094,200.566 293,199.5C 290.431,200.895 288.431,200.228 287,197.5C 284.451,194.235 282.284,190.735 280.5,187C 281.651,185.177 282.818,183.344 284,181.5C 284.604,177.412 282.77,174.912 278.5,174C 286.651,172.505 294.484,170.005 302,166.5C 306.595,169.796 311.762,171.296 317.5,171C 322.42,174.385 325.42,178.885 326.5,184.5 Z"/></g>
<g><path style="opacity:1" fill="#34281d" d="M 346.5,166.5 C 350.179,169.474 353.179,173.141 355.5,177.5C 353.51,178.498 351.51,179.498 349.5,180.5C 346.79,176.077 345.79,171.411 346.5,166.5 Z"/></g>
<g><path style="opacity:1" fill="#0f0e71" d="M 214.5,168.5 C 223.89,171.064 223.557,171.898 213.5,171C 214.252,170.329 214.586,169.496 214.5,168.5 Z"/></g>
<g><path style="opacity:1" fill="#68412c" d="M 169.5,182.5 C 167.403,181.121 167.07,179.455 168.5,177.5C 194.231,175.706 219.897,173.373 245.5,170.5C 245.286,172.144 245.62,173.644 246.5,175C 220.885,178.01 195.218,180.51 169.5,182.5 Z"/></g>
<g><path style="opacity:1" fill="#000000" d="M 294.5,171.5 C 296.64,174.917 298.473,178.583 300,182.5C 302.748,184.458 305.582,186.291 308.5,188C 299.366,186.361 294.699,180.861 294.5,171.5 Z"/></g>
<g><path style="opacity:1" fill="#000000" d="M 276.5,172.5 C 273.091,173.903 269.425,174.57 265.5,174.5C 261.869,175.412 258.203,175.579 254.5,175C 261.811,173.91 269.144,173.077 276.5,172.5 Z"/></g>
<g><path style="opacity:1" fill="#ec1c23" d="M 276.5,172.5 C 277.161,173.718 277.828,175.051 278.5,176.5C 280.23,177.026 281.564,178.026 282.5,179.5C 280,183.167 277.5,186.833 275,190.5C 273.798,196.773 271.798,202.773 269,208.5C 263.759,214.652 258.759,220.985 254,227.5C 252.76,235.757 252.093,244.091 252,252.5C 250.667,254.5 249.333,256.5 248,258.5C 247.377,246.196 248.877,234.196 252.5,222.5C 255.653,216.877 259.32,211.543 263.5,206.5C 261.269,201.706 258.769,197.039 256,192.5C 255.342,188.975 256.509,186.141 259.5,184C 263.211,183.825 266.878,183.325 270.5,182.5C 270.833,181.833 271.167,181.167 271.5,180.5C 269.971,178.812 268.137,177.479 266,176.5C 265.536,175.906 265.369,175.239 265.5,174.5C 269.425,174.57 273.091,173.903 276.5,172.5 Z"/></g>
<g><path style="opacity:1" fill="#000000" d="M 289.5,172.5 C 291.408,176.356 293.241,180.356 295,184.5C 298.416,186.792 301.916,188.959 305.5,191C 300.857,191.061 297.024,189.227 294,185.5C 291.793,181.376 290.293,177.043 289.5,172.5 Z"/></g>
<g><path style="opacity:1" fill="#000000" d="M 300.5,174.5 C 307.495,177.661 313.828,181.828 319.5,187C 315.705,187.837 312.039,187.504 308.5,186C 305.833,184 303.167,182 300.5,180C 305.026,180.101 308.693,182.101 311.5,186C 313.074,186.699 314.407,186.365 315.5,185C 311.228,181.571 306.562,178.738 301.5,176.5C 300.702,176.043 300.369,175.376 300.5,174.5 Z"/></g>
<g><path style="opacity:1" fill="#000000" d="M 326.5,184.5 C 327.01,187.388 326.344,189.721 324.5,191.5C 325.694,189.516 325.694,187.516 324.5,185.5C 320.623,182.787 317.623,179.287 315.5,175C 315.833,174.833 316.167,174.667 316.5,174.5C 319.236,178.57 322.57,181.903 326.5,184.5 Z"/></g>
<g><path style="opacity:1" fill="#69422c" d="M 150.5,180.5 C 156.344,180.98 156.678,182.147 151.5,184C 129.651,186.047 107.817,188.214 86,190.5C 84.3376,190.612 83.1709,189.946 82.5,188.5C 105.26,185.56 127.926,182.893 150.5,180.5 Z"/></g>
<g><path style="opacity:1" fill="#19159d" d="M 218.5,181.5 C 222.295,183.231 225.962,185.231 229.5,187.5C 228.833,187.5 228.5,187.833 228.5,188.5C 225.507,187.865 222.507,187.699 219.5,188C 221.713,189.616 224.047,190.783 226.5,191.5C 225.094,191.973 224.427,192.973 224.5,194.5C 223.512,195.795 222.512,197.128 221.5,198.5C 219.264,199.389 217.264,200.722 215.5,202.5C 208.668,213.011 202.668,224.011 197.5,235.5C 193.958,235.813 190.625,235.479 187.5,234.5C 191.828,222.683 195.661,210.683 199,198.5C 201.778,192.588 205.278,187.255 209.5,182.5C 212.2,180.233 215.2,179.9 218.5,181.5 Z"/></g>
<g><path style="opacity:1" fill="#41110a" d="M 223.5,180.5 C 226.897,182.528 230.564,184.028 234.5,185C 232.548,185.366 230.882,186.199 229.5,187.5C 225.962,185.231 222.295,183.231 218.5,181.5C 219.919,180.549 221.585,180.216 223.5,180.5 Z"/></g>
<g><path style="opacity:1" fill="#333333" d="M 202.5,182.5 C 197.974,189.553 193.974,196.886 190.5,204.5C 184.865,201.568 182.032,196.902 182,190.5C 188.076,186.962 194.409,183.962 201,181.5C 201.765,181.57 202.265,181.903 202.5,182.5 Z"/></g>
<g><path style="opacity:1" fill="#baad95" d="M 206.5,182.5 C 201.347,190.474 197.014,198.807 193.5,207.5C 191.5,207.5 190.5,206.5 190.5,204.5C 193.974,196.886 197.974,189.553 202.5,182.5C 203.961,181.314 205.295,181.314 206.5,182.5 Z"/></g>
<g><path style="opacity:1" fill="#ec1c23" d="M 209.5,182.5 C 205.278,187.255 201.778,192.588 199,198.5C 195.661,210.683 191.828,222.683 187.5,234.5C 186.596,235.209 186.263,236.209 186.5,237.5C 178.991,253.365 173.657,270.032 170.5,287.5C 169.167,287.5 168.5,286.833 168.5,285.5C 168.668,282.028 169.335,278.695 170.5,275.5C 171.657,272.727 172.324,269.727 172.5,266.5C 173.924,264.485 174.59,262.152 174.5,259.5C 175.404,258.791 175.737,257.791 175.5,256.5C 176.339,255.359 177.006,254.026 177.5,252.5C 177.376,251.893 177.043,251.56 176.5,251.5C 177.248,249.668 178.248,248.001 179.5,246.5C 180.833,245.833 180.833,245.167 179.5,244.5C 182.938,235.549 186.271,226.549 189.5,217.5C 190.309,215.972 190.976,214.306 191.5,212.5C 192.309,210.972 192.976,209.306 193.5,207.5C 197.014,198.807 201.347,190.474 206.5,182.5C 207.652,181.375 208.652,181.375 209.5,182.5 Z"/></g>
<g><path style="opacity:1" fill="#393939" d="M 353.5,180.5 C 355.441,180.869 357.275,181.536 359,182.5C 361.615,186.783 364.615,190.783 368,194.5C 368.667,195.167 368.667,195.833 368,196.5C 366.622,194.787 364.955,193.453 363,192.5C 360.852,199.584 357.519,200.251 353,194.5C 351.04,191.415 349.207,188.248 347.5,185C 349.684,183.637 351.684,182.137 353.5,180.5 Z"/></g>
<g><path style="opacity:1" fill="#0f0e6f" d="M 252.5,176.5 C 253.263,178.567 254.596,180.234 256.5,181.5C 251.955,181.542 247.288,181.709 242.5,182C 240.919,183.828 239.585,185.828 238.5,188C 244.381,192.043 248.047,197.543 249.5,204.5C 246.101,206.031 242.767,207.865 239.5,210C 232.223,211.467 224.889,211.801 217.5,211C 220.817,205.871 223.151,200.371 224.5,194.5C 224.427,192.973 225.094,191.973 226.5,191.5C 227.401,190.71 228.068,189.71 228.5,188.5C 228.5,187.833 228.833,187.5 229.5,187.5C 230.882,186.199 232.548,185.366 234.5,185C 230.564,184.028 226.897,182.528 223.5,180.5C 233.016,179.053 242.683,177.72 252.5,176.5 Z"/></g>
<g><path style="opacity:1" fill="#000000" d="M 228.5,188.5 C 228.068,189.71 227.401,190.71 226.5,191.5C 224.047,190.783 221.713,189.616 219.5,188C 222.507,187.699 225.507,187.865 228.5,188.5 Z"/></g>
<g><path style="opacity:1" fill="#161616" d="M 352.5,249.5 C 348.679,245.194 345.345,240.527 342.5,235.5C 345.167,233.5 347.5,231.167 349.5,228.5C 354.31,237.159 360.143,245.159 367,252.5C 368.447,244.45 368.947,236.45 368.5,228.5C 369.649,228.209 370.316,227.376 370.5,226C 371.234,222.499 371.9,218.999 372.5,215.5C 369.167,214.833 365.833,214.167 362.5,213.5C 362.5,214.833 362.5,216.167 362.5,217.5C 361.549,216.081 361.216,214.415 361.5,212.5C 355.544,211.64 350.044,209.64 345,206.5C 343.127,208.709 340.96,210.542 338.5,212C 339.973,214.448 341.307,216.948 342.5,219.5C 339.595,221.756 337.928,224.756 337.5,228.5C 330.337,219.871 327.17,209.871 328,198.5C 330.127,201.132 332.46,203.466 335,205.5C 339.721,201.936 344.554,198.602 349.5,195.5C 351.833,195.833 353.167,197.167 353.5,199.5C 352.571,200.315 351.571,201.148 350.5,202C 355.319,204.941 360.485,207.108 366,208.5C 368.085,207.876 369.918,206.876 371.5,205.5C 372.453,208.701 373.786,211.701 375.5,214.5C 376.398,215.158 377.398,215.824 378.5,216.5C 378.137,217.183 377.804,217.85 377.5,218.5C 376.685,220.754 376.019,223.087 375.5,225.5C 376.22,230.137 376.72,234.803 377,239.5C 379.029,236.404 381.862,234.738 385.5,234.5C 390.052,234.311 391.718,236.311 390.5,240.5C 387.409,241.977 384.409,243.644 381.5,245.5C 376.789,247.879 373.456,251.546 371.5,256.5C 373.392,258.793 375.725,260.626 378.5,262C 381.094,264.086 383.094,266.586 384.5,269.5C 384.251,271.936 383.251,273.936 381.5,275.5C 376.379,272.371 371.045,269.704 365.5,267.5C 364.5,267.667 363.5,267.833 362.5,268C 361.274,269.635 359.941,271.135 358.5,272.5C 357.288,269.698 355.621,267.198 353.5,265C 343.793,258.813 333.793,253.146 323.5,248C 321.432,247.313 319.432,247.48 317.5,248.5C 297.922,242.074 281.089,231.407 267,216.5C 266.312,215.668 266.479,215.002 267.5,214.5C 278.857,222.179 289.857,230.346 300.5,239C 305.035,241.623 309.869,243.456 315,244.5C 316.662,244.612 317.829,243.946 318.5,242.5C 302.977,227.487 289.144,211.154 277,193.5C 276.612,191.924 277.112,190.591 278.5,189.5C 292.782,209.63 308.782,228.463 326.5,246C 337.218,253.899 349.051,258.399 362,259.5C 362.667,258.833 362.667,258.167 362,257.5C 358.444,255.161 355.277,252.495 352.5,249.5 Z"/></g>
<g><path style="opacity:1" fill="#523f2e" d="M 349.5,195.5 C 344.554,198.602 339.721,201.936 335,205.5C 332.46,203.466 330.127,201.132 328,198.5C 327.17,209.871 330.337,219.871 337.5,228.5C 338.338,228.842 338.672,229.508 338.5,230.5C 339.512,231.872 340.512,233.205 341.5,234.5C 342.167,234.5 342.5,234.833 342.5,235.5C 345.345,240.527 348.679,245.194 352.5,249.5C 344.347,248.941 337.014,245.774 330.5,240C 328.311,239.791 326.311,240.125 324.5,241C 312.546,229.386 301.713,216.886 292,203.5C 291.437,202.275 291.77,201.275 293,200.5C 296.185,202.252 299.352,202.585 302.5,201.5C 303.458,201.047 304.292,200.381 305,199.5C 305.241,202.289 305.908,204.956 307,207.5C 309.61,202.891 312.943,198.891 317,195.5C 316.647,198.1 316.147,200.767 315.5,203.5C 315.577,205.299 316.077,206.966 317,208.5C 318.842,202.449 321.342,196.783 324.5,191.5C 326.344,189.721 327.01,187.388 326.5,184.5C 327.371,180.979 328.205,177.312 329,173.5C 331.833,177.667 335.333,181.167 339.5,184C 341.762,184.642 343.929,185.475 346,186.5C 347.123,189.249 348.623,191.749 350.5,194C 349.944,194.383 349.611,194.883 349.5,195.5 Z"/></g>
<g><path style="opacity:1" fill="#231b15" d="M 329.5,179.5 C 335.293,184.119 338.126,190.119 338,197.5C 335.756,196.046 333.423,194.712 331,193.5C 329.274,188.85 328.774,184.184 329.5,179.5 Z"/></g>
<g><path style="opacity:1" fill="#52402e" d="M 275.5,195.5 C 287.098,212.281 300.431,227.781 315.5,242C 310.577,241.357 305.91,239.69 301.5,237C 290.802,228.658 280.135,220.324 269.5,212C 272.785,206.978 274.785,201.478 275.5,195.5 Z"/></g>
<g><path style="opacity:1" fill="#52402e" d="M 371.5,205.5 C 369.918,206.876 368.085,207.876 366,208.5C 360.485,207.108 355.319,204.941 350.5,202C 351.571,201.148 352.571,200.315 353.5,199.5C 358.584,201.868 362.084,200.535 364,195.5C 364.63,198.094 365.797,200.427 367.5,202.5C 369.261,203.035 370.594,204.035 371.5,205.5 Z"/></g>
<g><path style="opacity:1" fill="#0f0e6f" d="M 221.5,198.5 C 215.494,210.202 209.494,221.869 203.5,233.5C 202.89,234.391 202.557,235.391 202.5,236.5C 202.44,237.043 202.107,237.376 201.5,237.5C 199.974,237.006 198.641,236.339 197.5,235.5C 202.668,224.011 208.668,213.011 215.5,202.5C 217.264,200.722 219.264,199.389 221.5,198.5 Z"/></g>
<g><path style="opacity:1" fill="#52402e" d="M 182.5,203.5 C 183.675,203.281 184.675,203.614 185.5,204.5C 177.31,209.183 170.143,215.183 164,222.5C 157.379,231.456 150.379,240.123 143,248.5C 140.84,239.63 142.173,231.297 147,223.5C 156.825,213.011 168.658,206.344 182.5,203.5 Z"/></g>
<g><path style="opacity:1" fill="#fec90d" d="M 371.5,205.5 C 376.28,206.695 378.614,209.695 378.5,214.5C 377.5,214.5 376.5,214.5 375.5,214.5C 373.786,211.701 372.453,208.701 371.5,205.5 Z"/></g>
<g><path style="opacity:1" fill="#ec1c23" d="M 187.5,207.5 C 182.908,210.586 178.742,214.253 175,218.5C 164.373,231.462 153.373,244.129 142,256.5C 136.296,262.262 130.129,267.428 123.5,272C 127.155,274.977 131.155,275.311 135.5,273C 141.623,270.878 146.623,267.212 150.5,262C 157.267,261.856 163.934,262.689 170.5,264.5C 171.167,265.167 171.833,265.833 172.5,266.5C 171.9,267.9 170.9,268.9 169.5,269.5C 163.242,266.437 156.576,264.937 149.5,265C 142.9,272.967 134.567,277.134 124.5,277.5C 118.74,277.985 113.074,277.985 107.5,277.5C 107.833,276.833 108.167,276.167 108.5,275.5C 111.673,274.83 114.673,273.664 117.5,272C 121.58,269.971 125.246,267.471 128.5,264.5C 143.674,252.83 156.174,238.83 166,222.5C 171.524,215.633 178.191,210.299 186,206.5C 186.765,206.57 187.265,206.903 187.5,207.5 Z"/></g>
<g><path style="opacity:1" fill="#ec1c23" d="M 233.5,219.5 C 234.434,218.432 234.768,217.099 234.5,215.5C 239.249,213.185 243.749,210.185 248,206.5C 248.167,207 248.333,207.5 248.5,208C 244.081,212.387 239.415,216.554 234.5,220.5C 233.893,220.376 233.56,220.043 233.5,219.5 Z"/></g>
<g><path style="opacity:1" fill="#503e2d" d="M 362.5,217.5 C 363.325,220.372 364.159,223.372 365,226.5C 366.302,227.085 367.469,227.751 368.5,228.5C 368.947,236.45 368.447,244.45 367,252.5C 360.143,245.159 354.31,237.159 349.5,228.5C 348.833,228.5 348.5,228.167 348.5,227.5C 347.396,225.611 346.063,223.945 344.5,222.5C 343.094,222.027 342.427,221.027 342.5,219.5C 341.307,216.948 339.973,214.448 338.5,212C 340.96,210.542 343.127,208.709 345,206.5C 350.044,209.64 355.544,211.64 361.5,212.5C 361.216,214.415 361.549,216.081 362.5,217.5 Z"/></g>
<g><path style="opacity:1" fill="#fefffe" d="M 187.5,207.5 C 188.492,207.328 189.158,207.662 189.5,208.5C 185.874,212.1 182.041,215.433 178,218.5C 165.255,235.417 151.421,251.584 136.5,267C 135.016,267.662 133.683,268.496 132.5,269.5C 130.86,270.32 129.193,271.153 127.5,272C 130.419,272.433 133.086,271.933 135.5,270.5C 141.269,266.899 146.602,262.732 151.5,258C 158.585,257.939 165.251,259.439 171.5,262.5C 173.031,263.925 172.698,264.591 170.5,264.5C 163.934,262.689 157.267,261.856 150.5,262C 146.623,267.212 141.623,270.878 135.5,273C 131.155,275.311 127.155,274.977 123.5,272C 130.129,267.428 136.296,262.262 142,256.5C 153.373,244.129 164.373,231.462 175,218.5C 178.742,214.253 182.908,210.586 187.5,207.5 Z"/></g>
<g><path style="opacity:1" fill="#19159d" d="M 189.5,208.5 C 190.674,209.514 191.34,210.847 191.5,212.5C 189.744,213.552 189.077,215.219 189.5,217.5C 186.271,226.549 182.938,235.549 179.5,244.5C 178.167,245.167 178.167,245.833 179.5,246.5C 178.248,248.001 177.248,249.668 176.5,251.5C 175.549,252.919 175.216,254.585 175.5,256.5C 175.737,257.791 175.404,258.791 174.5,259.5C 173.9,260.9 172.9,261.9 171.5,262.5C 165.251,259.439 158.585,257.939 151.5,258C 146.602,262.732 141.269,266.899 135.5,270.5C 134.209,270.737 133.209,270.404 132.5,269.5C 133.683,268.496 135.016,267.662 136.5,267C 151.421,251.584 165.255,235.417 178,218.5C 182.041,215.433 185.874,212.1 189.5,208.5 Z"/></g>
<g><path style="opacity:1" fill="#171717" d="M 141.5,209.5 C 146.33,209.623 150.663,211.123 154.5,214C 145.504,219.994 140.171,228.328 138.5,239C 135.688,240.977 133.022,243.144 130.5,245.5C 129.719,244.271 129.219,242.938 129,241.5C 127.989,242.337 126.822,242.67 125.5,242.5C 125.318,240.409 125.652,238.409 126.5,236.5C 125.183,236.687 123.85,236.02 122.5,234.5C 126.836,228.499 130.669,222.166 134,215.5C 136.114,212.879 138.614,210.879 141.5,209.5 Z"/></g>
<g><path style="opacity:1" fill="#000000" d="M 191.5,212.5 C 190.976,214.306 190.309,215.972 189.5,217.5C 189.077,215.219 189.744,213.552 191.5,212.5 Z"/></g>
<g><path style="opacity:1" fill="#1c158f" d="M 229.5,215.5 C 229.073,218.01 228.407,220.343 227.5,222.5C 226.691,224.292 226.191,226.292 226,228.5C 223.207,231.453 221.04,234.787 219.5,238.5C 220.921,242.276 222.755,242.276 225,238.5C 225.464,239.094 225.631,239.761 225.5,240.5C 225.422,246.161 222.756,249.995 217.5,252C 212.648,252.815 207.981,252.648 203.5,251.5C 203.5,250.833 203.5,250.167 203.5,249.5C 203.5,248.833 203.833,248.5 204.5,248.5C 205.321,245.359 205.821,242.025 206,238.5C 206.383,239.056 206.883,239.389 207.5,239.5C 214.931,248.352 217.597,247.018 215.5,235.5C 215.5,233.5 216.5,232.5 218.5,232.5C 220.652,231.923 220.985,230.756 219.5,229C 214.662,227.672 212.329,229.506 212.5,234.5C 212.768,236.099 212.434,237.432 211.5,238.5C 210.197,236.858 208.864,235.191 207.5,233.5C 206.797,231.966 206.964,230.299 208,228.5C 210.866,223.647 213.699,218.813 216.5,214C 218.667,213.833 220.833,213.667 223,213.5C 225.61,213.533 227.777,214.2 229.5,215.5 Z"/></g>
<g><path style="opacity:1" fill="#e8e8e8" d="M 234.5,215.5 C 234.768,217.099 234.434,218.432 233.5,219.5C 232.142,221.801 230.309,223.801 228,225.5C 227.517,224.552 227.351,223.552 227.5,222.5C 228.407,220.343 229.073,218.01 229.5,215.5C 230.261,214.609 231.261,213.942 232.5,213.5C 233.713,213.747 234.38,214.414 234.5,215.5 Z"/></g>
<g><path style="opacity:1" fill="#e9e2da" d="M 368.5,228.5 C 367.469,227.751 366.302,227.085 365,226.5C 364.159,223.372 363.325,220.372 362.5,217.5C 362.5,216.167 362.5,214.833 362.5,213.5C 365.833,214.167 369.167,214.833 372.5,215.5C 371.9,218.999 371.234,222.499 370.5,226C 370.316,227.376 369.649,228.209 368.5,228.5 Z"/></g>
<g><path style="opacity:1" fill="#121212" d="M 350.5,214.5 C 354.776,215.798 358.109,218.298 360.5,222C 357.081,224.846 353.414,225.18 349.5,223C 346.573,219.565 346.906,216.731 350.5,214.5 Z"/></g>
<g><path style="opacity:1" fill="#52402e" d="M 296.5,242.5 C 290.795,255.856 283.461,268.189 274.5,279.5C 265.995,272.678 258.995,264.511 253.5,255C 254.287,247.202 254.787,239.369 255,231.5C 256.767,225.897 259.934,221.23 264.5,217.5C 274.637,226.651 285.303,234.985 296.5,242.5 Z"/></g>
<g><path style="opacity:1" fill="#e9e2da" d="M 377.5,218.5 C 380.282,222.694 383.116,227.027 386,231.5C 386.47,232.577 386.303,233.577 385.5,234.5C 381.862,234.738 379.029,236.404 377,239.5C 376.72,234.803 376.22,230.137 375.5,225.5C 376.019,223.087 376.685,220.754 377.5,218.5 Z"/></g>
<g><path style="opacity:1" fill="#fec90d" d="M 342.5,219.5 C 342.427,221.027 343.094,222.027 344.5,222.5C 342.853,225.473 340.853,228.14 338.5,230.5C 338.672,229.508 338.338,228.842 337.5,228.5C 337.928,224.756 339.595,221.756 342.5,219.5 Z"/></g>
<g><path style="opacity:1" fill="#101010" d="M 344.5,222.5 C 346.063,223.945 347.396,225.611 348.5,227.5C 345.909,229.424 343.575,231.758 341.5,234.5C 340.512,233.205 339.512,231.872 338.5,230.5C 340.853,228.14 342.853,225.473 344.5,222.5 Z"/></g>
<g><path style="opacity:1" fill="#33271d" d="M 245.5,255.5 C 244.325,255.281 243.325,255.614 242.5,256.5C 237.806,264.554 233.639,272.888 230,281.5C 230.576,289.221 231.742,296.887 233.5,304.5C 233.03,309.104 231.697,313.438 229.5,317.5C 226.012,317.295 222.679,316.461 219.5,315C 212.256,308.768 208.09,300.935 207,291.5C 206.154,283.838 205.82,276.171 206,268.5C 216.629,272.239 226.462,270.739 235.5,264C 242.019,252.766 245.519,240.6 246,227.5C 247,226.833 248,226.167 249,225.5C 246.939,235.27 245.773,245.27 245.5,255.5 Z"/></g>
<g><path style="opacity:1" fill="#fec90d" d="M 348.5,227.5 C 348.5,228.167 348.833,228.5 349.5,228.5C 347.5,231.167 345.167,233.5 342.5,235.5C 342.5,234.833 342.167,234.5 341.5,234.5C 343.575,231.758 345.909,229.424 348.5,227.5 Z"/></g>
<g><path style="opacity:1" fill="#fefffe" d="M 218.5,232.5 C 216.788,230.236 215.455,230.736 214.5,234C 214.57,234.765 214.903,235.265 215.5,235.5C 217.597,247.018 214.931,248.352 207.5,239.5C 207.459,237.255 206.625,236.588 205,237.5C 204.501,241.152 204.335,244.818 204.5,248.5C 203.833,248.5 203.5,248.833 203.5,249.5C 202.637,250.463 201.97,250.463 201.5,249.5C 203.545,245.146 203.878,240.812 202.5,236.5C 202.557,235.391 202.89,234.391 203.5,233.5C 204.833,233.5 206.167,233.5 207.5,233.5C 208.864,235.191 210.197,236.858 211.5,238.5C 212.219,240.317 213.219,240.984 214.5,240.5C 213.95,238.343 213.283,236.343 212.5,234.5C 212.329,229.506 214.662,227.672 219.5,229C 220.985,230.756 220.652,231.923 218.5,232.5 Z"/></g>
<g><path style="opacity:1" fill="#fefffe" d="M 196.5,262.5 C 202.892,263.091 209.225,264.091 215.5,265.5C 225.199,264.62 232.366,259.953 237,251.5C 238.125,246.354 239.291,241.354 240.5,236.5C 241.314,234.369 241.814,232.036 242,229.5C 242.333,229.167 242.667,228.833 243,228.5C 243.043,239.33 240.71,249.663 236,259.5C 230.982,265.175 224.648,268.175 217,268.5C 208.816,267.079 200.649,265.579 192.5,264C 193.563,262.812 194.897,262.312 196.5,262.5 Z"/></g>
<g><path style="opacity:1" fill="#000000" d="M 218.5,232.5 C 216.5,232.5 215.5,233.5 215.5,235.5C 214.903,235.265 214.57,234.765 214.5,234C 215.455,230.736 216.788,230.236 218.5,232.5 Z"/></g>
<g><path style="opacity:1" fill="#ec1c23" d="M 240.5,236.5 C 239.291,241.354 238.125,246.354 237,251.5C 232.366,259.953 225.199,264.62 215.5,265.5C 209.225,264.091 202.892,263.091 196.5,262.5C 196.082,261.778 195.416,261.278 194.5,261C 195.454,257.208 197.787,255.042 201.5,254.5C 208.358,256.532 215.358,256.698 222.5,255C 227.634,251.569 230.3,246.736 230.5,240.5C 231.309,238.708 231.809,236.708 232,234.5C 234.7,232.731 237.534,231.398 240.5,230.5C 240.5,232.5 240.5,234.5 240.5,236.5 Z"/></g>
<g><path style="opacity:1" fill="#000000" d="M 212.5,234.5 C 213.283,236.343 213.95,238.343 214.5,240.5C 213.219,240.984 212.219,240.317 211.5,238.5C 212.434,237.432 212.768,236.099 212.5,234.5 Z"/></g>
<g><path style="opacity:1" fill="#fefffe" d="M 230.5,240.5 C 230.3,246.736 227.634,251.569 222.5,255C 215.358,256.698 208.358,256.532 201.5,254.5C 198.96,252.334 199.627,251.334 203.5,251.5C 207.981,252.648 212.648,252.815 217.5,252C 222.756,249.995 225.422,246.161 225.5,240.5C 226.764,238.73 228.264,237.063 230,235.5C 230.494,237.134 230.66,238.801 230.5,240.5 Z"/></g>
<g><path style="opacity:1" fill="#000000" d="M 207.5,239.5 C 206.883,239.389 206.383,239.056 206,238.5C 205.821,242.025 205.321,245.359 204.5,248.5C 204.335,244.818 204.501,241.152 205,237.5C 206.625,236.588 207.459,237.255 207.5,239.5 Z"/></g>
<g><path style="opacity:1" fill="#171717" d="M 186.5,237.5 C 191.337,237.116 196.003,237.783 200.5,239.5C 201.356,242.139 201.19,244.806 200,247.5C 195.144,255.212 190.81,263.212 187,271.5C 185.875,277.466 184.375,283.3 182.5,289C 184.608,294.362 185.274,299.862 184.5,305.5C 184.182,306.647 183.516,307.481 182.5,308C 171.47,309.498 164.47,304.998 161.5,294.5C 164.349,291.916 167.349,289.583 170.5,287.5C 173.657,270.032 178.991,253.365 186.5,237.5 Z"/></g>
<g><path style="opacity:1" fill="#e9e2da" d="M 390.5,240.5 C 394.686,244.375 398.02,248.875 400.5,254C 399.934,257.897 399.101,261.731 398,265.5C 397.124,267.635 395.624,268.969 393.5,269.5C 391.229,267.734 389.063,265.734 387,263.5C 384.419,257.599 382.585,251.599 381.5,245.5C 384.409,243.644 387.409,241.977 390.5,240.5 Z"/></g>
<g><path style="opacity:1" fill="#34271d" d="M 296.5,242.5 C 303.218,245.238 309.884,248.072 316.5,251C 312.599,257.587 311.266,264.587 312.5,272C 310.133,276.244 306.966,279.744 303,282.5C 302.667,282.167 302.333,281.833 302,281.5C 301.125,284.215 299.292,285.548 296.5,285.5C 302.667,279.833 306.167,272.833 307,264.5C 303.237,267.873 300.07,271.706 297.5,276C 292.331,278.665 286.998,280.832 281.5,282.5C 278.759,282.293 276.426,281.293 274.5,279.5C 283.461,268.189 290.795,255.856 296.5,242.5 Z"/></g>
<g><path style="opacity:1" fill="#503f15" d="M 179.5,244.5 C 180.833,245.167 180.833,245.833 179.5,246.5C 178.167,245.833 178.167,245.167 179.5,244.5 Z"/></g>
<g><path style="opacity:1" fill="#49392a" d="M 381.5,245.5 C 382.585,251.599 384.419,257.599 387,263.5C 389.063,265.734 391.229,267.734 393.5,269.5C 393.038,270.88 392.038,271.547 390.5,271.5C 388.403,271.023 386.403,270.357 384.5,269.5C 383.094,266.586 381.094,264.086 378.5,262C 375.725,260.626 373.392,258.793 371.5,256.5C 373.456,251.546 376.789,247.879 381.5,245.5 Z"/></g>
<g><path style="opacity:1" fill="#392d12" d="M 176.5,251.5 C 177.043,251.56 177.376,251.893 177.5,252.5C 177.006,254.026 176.339,255.359 175.5,256.5C 175.216,254.585 175.549,252.919 176.5,251.5 Z"/></g>
<g><path style="opacity:1" fill="#513f2e" d="M 245.5,255.5 C 245.34,257.199 245.506,258.866 246,260.5C 251.284,268.119 256.951,275.452 263,282.5C 266.941,285.552 271.107,288.218 275.5,290.5C 274.677,296.278 273.344,301.945 271.5,307.5C 272.786,311.702 274.453,315.702 276.5,319.5C 276.243,321.692 275.243,323.359 273.5,324.5C 269.829,322.152 266.496,319.486 263.5,316.5C 265.158,320.672 267.825,324.172 271.5,327C 277.581,329.771 283.914,331.771 290.5,333C 295.709,338.206 299.209,344.373 301,351.5C 302.787,355.577 304.954,359.41 307.5,363C 306.234,363.309 305.067,363.809 304,364.5C 303.207,370.277 303.707,375.943 305.5,381.5C 305.167,382.167 304.833,382.833 304.5,383.5C 300.124,375.889 295.291,368.555 290,361.5C 285.939,356.095 280.772,352.262 274.5,350C 272.926,348.174 272.093,346.007 272,343.5C 271.798,345.256 271.298,346.922 270.5,348.5C 260.97,347.405 251.97,344.571 243.5,340C 236.916,333.658 232.249,326.158 229.5,317.5C 231.697,313.438 233.03,309.104 233.5,304.5C 231.742,296.887 230.576,289.221 230,281.5C 233.639,272.888 237.806,264.554 242.5,256.5C 243.325,255.614 244.325,255.281 245.5,255.5 Z"/></g>
<g><path style="opacity:1" fill="#111111" d="M 389.5,255.5 C 394.239,256.563 395.905,259.396 394.5,264C 388.742,263.303 387.076,260.47 389.5,255.5 Z"/></g>
<g><path style="opacity:1" fill="#181918" d="M 251.5,257.5 C 257.267,264.17 262.934,271.004 268.5,278C 274.899,283.25 282.232,286.584 290.5,288C 291.369,289.465 290.869,290.631 289,291.5C 280.195,290.679 272.361,287.512 265.5,282C 259.589,275.257 254.255,268.09 249.5,260.5C 250.193,259.482 250.859,258.482 251.5,257.5 Z"/></g>
<g><path style="opacity:1" fill="#000000" d="M 174.5,259.5 C 174.59,262.152 173.924,264.485 172.5,266.5C 171.833,265.833 171.167,265.167 170.5,264.5C 172.698,264.591 173.031,263.925 171.5,262.5C 172.9,261.9 173.9,260.9 174.5,259.5 Z"/></g>
<g><path style="opacity:1" fill="#fefffe" d="M 128.5,264.5 C 125.246,267.471 121.58,269.971 117.5,272C 114.673,273.664 111.673,274.83 108.5,275.5C 106.576,275.711 106.243,276.377 107.5,277.5C 113.074,277.985 118.74,277.985 124.5,277.5C 127.833,277.5 131.167,277.5 134.5,277.5C 125.032,279.601 115.365,280.268 105.5,279.5C 103.525,278.251 103.191,276.751 104.5,275C 112.198,271.151 119.864,267.318 127.5,263.5C 128.107,263.624 128.44,263.957 128.5,264.5 Z"/></g>
<g><path style="opacity:1" fill="#e9e2da" d="M 296.5,285.5 C 291.176,286.254 286.176,285.254 281.5,282.5C 286.998,280.832 292.331,278.665 297.5,276C 300.07,271.706 303.237,267.873 307,264.5C 306.167,272.833 302.667,279.833 296.5,285.5 Z"/></g>
<g><path style="opacity:1" fill="#fefffe" d="M 169.5,269.5 C 170.85,270.65 170.684,271.317 169,271.5C 163.209,270.236 157.542,268.569 152,266.5C 149.407,268.798 146.907,271.298 144.5,274C 141.395,275.868 138.062,277.035 134.5,277.5C 131.167,277.5 127.833,277.5 124.5,277.5C 134.567,277.134 142.9,272.967 149.5,265C 156.576,264.937 163.242,266.437 169.5,269.5 Z"/></g>
<g><path style="opacity:1" fill="#34281d" d="M 191.5,266.5 C 193.016,274.327 193.849,282.327 194,290.5C 192.355,288.338 190.188,287.005 187.5,286.5C 186.909,279.518 188.242,272.852 191.5,266.5 Z"/></g>
<g><path style="opacity:1" fill="#181918" d="M 194.5,267.5 C 197.448,267.223 200.281,267.556 203,268.5C 203.757,277.51 204.59,286.51 205.5,295.5C 206.82,301.621 208.82,307.454 211.5,313C 211.167,313.167 210.833,313.333 210.5,313.5C 207.019,311.554 204.185,308.887 202,305.5C 200.333,301.833 198.667,298.167 197,294.5C 195.956,285.514 195.122,276.514 194.5,267.5 Z"/></g>
<g><path style="opacity:1" fill="#34271d" d="M 170.5,275.5 C 169.335,278.695 168.668,282.028 168.5,285.5C 167.146,287.696 165.146,289.196 162.5,290C 160.876,291.117 159.876,292.617 159.5,294.5C 160.008,301.37 163.342,306.203 169.5,309C 166.568,316.368 162.734,323.201 158,329.5C 157.333,339.5 157.333,349.5 158,359.5C 159.041,363.998 160.541,368.331 162.5,372.5C 162.043,373.298 161.376,373.631 160.5,373.5C 156.975,372.241 153.975,370.241 151.5,367.5C 149.773,361.281 148.273,354.947 147,348.5C 142.09,345.324 140.257,340.824 141.5,335C 140.603,329.359 142.103,324.526 146,320.5C 149.098,309.37 149.265,298.203 146.5,287C 147,282.5 147.5,278 148,273.5C 149.167,271.833 150.333,270.167 151.5,268.5C 156.977,270.77 162.644,272.436 168.5,273.5C 169.713,273.747 170.38,274.414 170.5,275.5 Z"/></g>
<g><path style="opacity:1" fill="#000000" d="M 132.5,269.5 C 133.209,270.404 134.209,270.737 135.5,270.5C 133.086,271.933 130.419,272.433 127.5,272C 129.193,271.153 130.86,270.32 132.5,269.5 Z"/></g>
<g><path style="opacity:1" fill="#000000" d="M 108.5,275.5 C 108.167,276.167 107.833,276.833 107.5,277.5C 106.243,276.377 106.576,275.711 108.5,275.5 Z"/></g>
<g><path style="opacity:1" fill="#523f2e" d="M 288.5,325.5 C 292.67,324.498 296.67,322.998 300.5,321C 302.041,319.421 303.208,317.587 304,315.5C 304.419,311.058 305.252,306.725 306.5,302.5C 306.255,298.263 305.255,294.263 303.5,290.5C 307.701,288.316 311.201,285.316 314,281.5C 313.684,286.696 313.85,291.863 314.5,297C 313.73,298.775 312.563,300.275 311,301.5C 310.333,302.833 310.333,304.167 311,305.5C 318.775,312.62 324.108,321.287 327,331.5C 330.683,334.187 334.017,337.187 337,340.5C 338.442,349.798 339.108,359.132 339,368.5C 337.654,365.821 335.654,363.821 333,362.5C 331.555,363.742 330.055,364.575 328.5,365C 323.613,359.114 319.113,352.947 315,346.5C 311.579,344.539 308.079,342.706 304.5,341C 301.593,337.849 298.926,334.516 296.5,331C 292.75,330.74 289.084,330.073 285.5,329C 286.163,327.482 287.163,326.315 288.5,325.5 Z"/></g>
<g><path style="opacity:1" fill="#fec90d" d="M 296.5,287.5 C 301.65,290.288 301.65,293.288 296.5,296.5C 291.185,293.459 291.185,290.459 296.5,287.5 Z"/></g>
<g><path style="opacity:1" fill="#e9e2da" d="M 275.5,290.5 C 280.048,291.926 284.714,292.926 289.5,293.5C 289.519,305.943 285.852,317.11 278.5,327C 276.332,327.249 274.665,326.416 273.5,324.5C 275.243,323.359 276.243,321.692 276.5,319.5C 274.453,315.702 272.786,311.702 271.5,307.5C 273.344,301.945 274.677,296.278 275.5,290.5 Z"/></g>
<g><path style="opacity:1" fill="#e9e2da" d="M 303.5,290.5 C 305.255,294.263 306.255,298.263 306.5,302.5C 305.252,306.725 304.419,311.058 304,315.5C 303.208,317.587 302.041,319.421 300.5,321C 296.67,322.998 292.67,324.498 288.5,325.5C 293.729,317.652 296.896,308.985 298,299.5C 300.374,296.737 302.208,293.737 303.5,290.5 Z"/></g>
<g><path style="opacity:1" fill="#34281d" d="M 213.5,312.5 C 217.471,316.987 222.471,319.654 228.5,320.5C 229.414,322.664 230.581,324.664 232,326.5C 232.095,341.323 235.095,355.323 241,368.5C 237.823,366.217 234.323,365.383 230.5,366C 229.874,366.75 229.374,367.584 229,368.5C 225,363.167 221,357.833 217,352.5C 216.17,350.172 215.337,347.838 214.5,345.5C 215.816,341.889 217.15,338.223 218.5,334.5C 214.943,327.604 213.276,320.27 213.5,312.5 Z"/></g>
<g><path style="opacity:1" fill="#000000" d="M 263.5,316.5 C 252.914,313.828 244.08,316.495 237,324.5C 241.341,314.87 248.841,311.703 259.5,315C 261.058,315.21 262.391,315.71 263.5,316.5 Z"/></g>
<g><path style="opacity:1" fill="#fefffe" d="M 304.5,346.5 C 310.445,347.944 314.278,351.611 316,357.5C 319.333,361.5 322.667,365.5 326,369.5C 326.667,371.833 326.667,374.167 326,376.5C 325.529,374.754 324.862,373.087 324,371.5C 319.967,367.132 315.634,363.132 311,359.5C 308.295,355.423 306.128,351.09 304.5,346.5 Z"/></g>
<g><path style="opacity:1" fill="#e9e2da" d="M 332.5,364.5 C 339.029,371.894 343.195,380.561 345,390.5C 345.166,396.673 344.166,402.673 342,408.5C 338.743,406.731 337.91,404.231 339.5,401C 338.448,395.21 335.114,391.544 329.5,390C 328.978,389.439 328.645,388.772 328.5,388C 329.81,380.092 331.144,372.259 332.5,364.5 Z"/></g>
<g><path style="opacity:1" fill="#e9e2da" d="M 305.5,365.5 C 307.199,365.34 308.866,365.506 310.5,366C 313.965,368.463 317.131,371.296 320,374.5C 321.384,379.786 323.384,384.786 326,389.5C 328.07,391.787 330.57,393.453 333.5,394.5C 334.959,396.583 336.292,398.75 337.5,401C 335.26,403.902 332.427,406.069 329,407.5C 324.013,404.947 318.846,402.781 313.5,401C 316.355,394.212 314.688,388.545 308.5,384C 306.297,378.023 305.297,371.856 305.5,365.5 Z"/></g>
<g><path style="opacity:1" fill="#e9e2da" d="M 151.5,367.5 C 153.975,370.241 156.975,372.241 160.5,373.5C 162.993,374.762 164.826,376.762 166,379.5C 167,383.833 168,388.167 169,392.5C 172.122,395.906 174.622,399.74 176.5,404C 173.804,404.765 171.304,405.932 169,407.5C 166.489,404.106 163.322,403.106 159.5,404.5C 158.416,403.335 157.583,402.002 157,400.5C 156.667,397.5 156.333,394.5 156,391.5C 150.619,384.137 149.119,376.137 151.5,367.5 Z"/></g>
<g><path style="opacity:1" fill="#e9e2da" d="M 231.5,367.5 C 238.176,368.584 243.676,371.584 248,376.5C 247.176,386.32 250.509,394.32 258,400.5C 258.694,404.002 258.194,407.336 256.5,410.5C 250.265,411.652 244.765,409.985 240,405.5C 239.184,400.454 238.184,395.454 237,390.5C 234.852,389.023 233.518,387.023 233,384.5C 231.004,378.895 230.504,373.228 231.5,367.5 Z"/></g>
<g><path style="opacity:1" fill="#181918" d="M 314.5,405.5 C 319.286,407.262 324.119,408.929 329,410.5C 332.072,409.964 334.739,408.63 337,406.5C 342.132,410.024 342.632,414.024 338.5,418.5C 335.548,419.654 332.548,420.654 329.5,421.5C 325.079,419.208 320.912,416.541 317,413.5C 315.659,410.978 314.826,408.311 314.5,405.5 Z"/></g>
<g><path style="opacity:1" fill="#e9e2da" d="M 342.5,415.5 C 343.043,415.56 343.376,415.893 343.5,416.5C 342.227,420.71 340.894,424.876 339.5,429C 335.197,429.445 331.864,427.779 329.5,424C 332.681,422.367 336.014,421.034 339.5,420C 340.883,418.729 341.883,417.229 342.5,415.5 Z"/></g>
</svg>
