<?xml version="1.0" encoding="UTF-8"?>
<!DOCTYPE svg PUBLIC "-//W3C//DTD SVG 1.1//EN" "http://www.w3.org/Graphics/SVG/1.1/DTD/svg11.dtd">
<svg xmlns="http://www.w3.org/2000/svg" version="1.1" width="528px" height="504px" style="shape-rendering:geometricPrecision; text-rendering:geometricPrecision; image-rendering:optimizeQuality; fill-rule:evenodd; clip-rule:evenodd" xmlns:xlink="http://www.w3.org/1999/xlink">
<g><path style="opacity:1" fill="#fefffe" d="M 272.5,40.5 C 279.841,40.3337 287.174,40.5003 294.5,41C 296.758,42.9296 299.258,44.4296 302,45.5C 302.667,50.8333 302.667,56.1667 302,61.5C 300.468,63.5624 298.468,64.8957 296,65.5C 295.667,69.5 295.333,73.5 295,77.5C 293,78.8333 291,80.1667 289,81.5C 287.961,83.7463 286.794,85.913 285.5,88C 288.629,97.4286 292.462,106.595 297,115.5C 299.63,119.132 302.63,122.465 306,125.5C 306.667,130.833 306.667,136.167 306,141.5C 302.411,143.53 298.578,144.863 294.5,145.5C 294.665,148.85 294.498,152.183 294,155.5C 289.336,156.28 286.836,159.113 286.5,164C 289.132,172.228 291.965,180.395 295,188.5C 298.396,192.279 301.563,196.279 304.5,200.5C 312.058,197.957 319.392,195.124 326.5,192C 327.833,190 329.167,188 330.5,186C 335.1,186.011 339.433,185.011 343.5,183C 381.472,156.971 421.472,133.305 463.5,112C 468.519,111.327 473.186,109.66 477.5,107C 482.419,106.198 487.252,106.365 492,107.5C 492.802,112.419 492.635,117.252 491.5,122C 487.957,123.608 484.957,125.942 482.5,129C 461.499,141.165 440.833,153.832 420.5,167C 418.996,168.491 418.163,170.324 418,172.5C 410.886,175.947 405.386,181.114 401.5,188C 396.944,189.972 392.278,191.639 387.5,193C 376.544,199.634 365.878,206.634 355.5,214C 352.122,222.212 346.122,227.378 337.5,229.5C 337.662,231.527 337.495,233.527 337,235.5C 332.083,238.386 327.583,241.886 323.5,246C 320.167,246.333 316.833,246.667 313.5,247C 310.797,250.038 307.797,252.705 304.5,255C 292.749,260.955 281.582,267.788 271,275.5C 270.667,277.833 270.333,280.167 270,282.5C 266.506,286.136 262.673,289.136 258.5,291.5C 260.088,297.713 260.921,304.047 261,310.5C 262.117,311.949 262.784,313.616 263,315.5C 263.546,329.516 263.213,343.516 262,357.5C 255.125,373.08 248.958,388.913 243.5,405C 246.876,409.582 249.876,414.415 252.5,419.5C 257.841,420.371 262.674,422.371 267,425.5C 271.097,437.679 267.263,445.512 255.5,449C 248.5,449.667 241.5,449.667 234.5,449C 223.145,444.576 212.645,438.742 203,431.5C 201.674,418.116 203.341,405.116 208,392.5C 207.504,375.945 209.671,359.778 214.5,344C 213.204,339.929 212.371,335.762 212,331.5C 211.581,330.328 210.915,329.328 210,328.5C 208.167,331.667 205.667,334.167 202.5,336C 197.5,336.667 192.5,336.667 187.5,336C 185.641,334.442 184.141,332.609 183,330.5C 181.623,332.754 180.123,334.92 178.5,337C 165.297,344.699 153.463,354.199 143,365.5C 137.162,376.839 132.162,388.505 128,400.5C 126.138,407.702 125.138,415.035 125,422.5C 123.421,424.041 121.587,425.208 119.5,426C 112.833,426.667 106.167,426.667 99.5,426C 97,423.5 94.5,421 92,418.5C 89.5817,408.643 88.915,398.643 90,388.5C 90.8061,385.554 92.1395,382.888 94,380.5C 94.2736,374.704 95.2736,369.037 97,363.5C 102.94,351.286 108.607,338.953 114,326.5C 117.118,321.714 120.618,317.214 124.5,313C 123.357,306.582 123.19,300.082 124,293.5C 129.338,285.494 134.172,277.161 138.5,268.5C 137.009,267.756 135.509,267.09 134,266.5C 132.601,249.025 137.101,233.192 147.5,219C 148.938,218.781 150.271,218.281 151.5,217.5C 147.907,201.23 150.74,186.23 160,172.5C 160.26,168.75 160.927,165.084 162,161.5C 166.015,154.124 170.515,147.124 175.5,140.5C 176.772,129.762 178.272,119.095 180,108.5C 181.834,103.338 184.501,98.6717 188,94.5C 188.333,89.8333 188.667,85.1667 189,80.5C 196.557,74.6109 204.39,69.1109 212.5,64C 218.547,58.6204 223.88,52.6204 228.5,46C 237.696,43.656 247.029,42.9894 256.5,44C 260.901,44.9109 265.068,46.4109 269,48.5C 269.003,45.251 270.17,42.5844 272.5,40.5 Z"/></g>
<g><path style="opacity:1" fill="#000000" d="M 276.5,44.5 C 284.494,43.2291 291.66,44.8957 298,49.5C 300.087,55.6674 298.087,59.6674 292,61.5C 291.667,65.5 291.333,69.5 291,73.5C 289,74.8333 287,76.1667 285,77.5C 280.135,84.405 279.801,91.7383 284,99.5C 287.458,111.093 293.458,121.093 302,129.5C 302.667,132.167 302.667,134.833 302,137.5C 298.081,139.362 294.081,141.029 290,142.5C 290.456,145.428 290.456,148.428 290,151.5C 288.333,152.167 286.667,152.833 285,153.5C 283.016,157.246 281.85,161.246 281.5,165.5C 284.561,174.515 287.728,183.515 291,192.5C 294.419,195.812 297.253,199.645 299.5,204C 304.455,206.133 308.788,205.466 312.5,202C 316.142,201.086 319.808,200.252 323.5,199.5C 325.109,197.06 327.443,195.893 330.5,196C 331.833,194 333.167,192 334.5,190C 339.1,190.011 343.433,189.011 347.5,187C 385.472,160.971 425.472,137.305 467.5,116C 472.519,115.327 477.186,113.66 481.5,111C 487.667,109.167 489.833,111.333 488,117.5C 484.379,119.398 481.212,121.898 478.5,125C 457.499,137.165 436.833,149.832 416.5,163C 414.996,164.491 414.163,166.324 414,168.5C 406.886,171.947 401.386,177.114 397.5,184C 392.944,185.972 388.278,187.639 383.5,189C 372.544,195.634 361.878,202.634 351.5,210C 348.122,218.212 342.122,223.378 333.5,225.5C 333.662,227.527 333.495,229.527 333,231.5C 328.083,234.386 323.583,237.886 319.5,242C 316.167,242.333 312.833,242.667 309.5,243C 306.797,246.038 303.797,248.705 300.5,251C 288.749,256.955 277.582,263.788 267,271.5C 266.056,280.609 260.889,285.609 251.5,286.5C 255.521,295.399 257.355,304.733 257,314.5C 258.117,315.949 258.784,317.616 259,319.5C 259.333,330.843 259,342.176 258,353.5C 250.238,370.122 244.071,387.289 239.5,405C 239.667,406.5 239.833,408 240,409.5C 243.085,414 245.918,418.667 248.5,423.5C 253.841,424.371 258.674,426.371 263,429.5C 263.784,432.76 263.617,435.927 262.5,439C 255.562,445.029 247.562,447.029 238.5,445C 227.145,440.576 216.645,434.742 207,427.5C 206.43,416.828 208.096,406.495 212,396.5C 211.478,378.376 213.978,360.709 219.5,343.5C 217.706,338.322 216.539,332.989 216,327.5C 214.853,324.382 213.52,321.382 212,318.5C 208.131,322.034 204.631,325.867 201.5,330C 198.541,332.33 195.207,332.996 191.5,332C 187.95,328.117 184.783,323.951 182,319.5C 179.574,324.011 177.074,328.511 174.5,333C 161.297,340.699 149.463,350.199 139,361.5C 132.552,373.726 127.218,386.393 123,399.5C 121.977,405.793 121.311,412.126 121,418.5C 109.631,425.787 100.964,423.454 95,411.5C 93.5755,405.224 93.2422,398.891 94,392.5C 94.8061,389.554 96.1395,386.888 98,384.5C 98.3807,377.644 99.714,370.977 102,364.5C 107.547,354.074 112.547,343.408 117,332.5C 121.559,325.218 126.726,318.385 132.5,312C 130.152,311.89 128.652,310.723 128,308.5C 127.333,304.833 127.333,301.167 128,297.5C 134.546,286.911 140.713,276.077 146.5,265C 143.775,263.893 140.941,263.059 138,262.5C 137.204,256.995 137.871,251.662 140,246.5C 142.865,238.438 146.531,230.771 151,223.5C 153.473,222.88 155.973,222.214 158.5,221.5C 158.931,220.707 159.265,219.873 159.5,219C 158.015,216.844 156.515,214.677 155,212.5C 152.982,199.238 155.982,187.238 164,176.5C 164.26,172.75 164.927,169.084 166,165.5C 170.015,158.124 174.515,151.124 179.5,144.5C 180.388,138.175 181.222,131.842 182,125.5C 182.707,123.919 183.54,122.419 184.5,121C 183.375,112.703 185.708,105.37 191.5,99C 195.156,95.8372 199.156,93.1705 203.5,91C 199.891,91.2384 196.225,91.4051 192.5,91.5C 191.431,86.4568 193.097,82.6235 197.5,80C 211.943,73.2229 223.609,63.2229 232.5,50C 247.026,45.5033 260.526,47.6699 273,56.5C 272.761,51.9485 273.928,47.9485 276.5,44.5 Z"/></g>
<g><path style="opacity:1" fill="#daa909" d="M 276.5,77.5 C 276.158,76.6618 275.492,76.3284 274.5,76.5C 272.847,76.3404 271.514,75.6737 270.5,74.5C 268.562,72.8372 266.228,72.1706 263.5,72.5C 260.995,71.5033 258.328,71.5033 255.5,72.5C 254.209,72.2627 253.209,72.596 252.5,73.5C 251.791,74.404 250.791,74.7373 249.5,74.5C 248.508,74.3284 247.842,74.6618 247.5,75.5C 246.833,75.5 246.5,75.8333 246.5,76.5C 245.5,76.8333 244.833,77.5 244.5,78.5C 243.373,79.1217 242.373,79.955 241.5,81C 243.3,82.8119 244.967,84.6452 246.5,86.5C 244.83,89.1748 243.164,91.8414 241.5,94.5C 239.992,92.8185 238.992,90.8185 238.5,88.5C 242.111,69.4819 253.778,62.1485 273.5,66.5C 275.356,69.1897 277.689,71.3563 280.5,73C 279.717,75.1184 278.384,76.6184 276.5,77.5 Z"/></g>
<g><path style="opacity:1" fill="#2f2b29" d="M 280.5,49.5 C 285.118,49.2695 289.118,50.7695 292.5,54C 288.901,55.603 285.901,57.9363 283.5,61C 284.408,63.2321 285.408,65.3987 286.5,67.5C 286.392,68.4419 286.059,69.2753 285.5,70C 284.234,70.3095 283.067,70.8095 282,71.5C 278.833,69.6667 276.333,67.1667 274.5,64C 263.154,63.5931 251.82,63.9264 240.5,65C 243.833,65.3333 247.167,65.6667 250.5,66C 247.833,67 245.167,68 242.5,69C 243.5,69.3333 244.5,69.6667 245.5,70C 235.687,79.4331 233.354,90.4331 238.5,103C 237.271,107.427 236.271,111.927 235.5,116.5C 232.973,117.214 230.473,117.88 228,118.5C 227.683,116.699 227.016,116.366 226,117.5C 223.56,116.726 222.227,115.06 222,112.5C 217.213,115.473 212.047,117.806 206.5,119.5C 204.603,119.272 203.27,118.272 202.5,116.5C 204.446,112.624 203.28,110.291 199,109.5C 196.888,110.608 195.054,112.108 193.5,114C 192.241,114.982 190.908,115.315 189.5,115C 191.206,110.792 193.539,106.959 196.5,103.5C 202.662,98.5825 209.329,94.4158 216.5,91C 217.167,90 217.833,89 218.5,88C 216.981,86.6487 215.648,85.1487 214.5,83.5C 211.484,82.5374 208.484,82.3708 205.5,83C 214.675,76.9127 223.675,70.5793 232.5,64C 231.833,63.6667 231.167,63.3333 230.5,63C 232.5,60.3333 234.5,57.6667 236.5,55C 244.749,51.7172 252.749,52.3838 260.5,57C 259.167,57.3333 257.833,57.6667 256.5,58C 262.057,59.297 267.557,60.797 273,62.5C 275.499,61.9169 277.499,60.5836 279,58.5C 279.333,58.8333 279.667,59.1667 280,59.5C 280.944,56.6529 280.444,54.1529 278.5,52C 279.381,51.2917 280.047,50.4584 280.5,49.5 Z"/></g>
<g><path style="opacity:1" fill="#efba00" d="M 263.5,72.5 C 261.882,75.1709 261.215,78.1709 261.5,81.5C 260.732,82.2625 260.232,83.2625 260,84.5C 258.45,83.4092 257.283,82.0758 256.5,80.5C 256.768,78.901 256.434,77.5676 255.5,76.5C 255.5,75.1667 255.5,73.8333 255.5,72.5C 258.328,71.5033 260.995,71.5033 263.5,72.5 Z"/></g>
<g><path style="opacity:1" fill="#000000" d="M 252.5,73.5 C 253.209,72.596 254.209,72.2627 255.5,72.5C 255.5,73.8333 255.5,75.1667 255.5,76.5C 254.9,75.0998 253.9,74.0998 252.5,73.5 Z"/></g>
<g><path style="opacity:1" fill="#977514" d="M 263.5,72.5 C 266.228,72.1706 268.562,72.8372 270.5,74.5C 269.624,74.3691 268.957,74.7025 268.5,75.5C 267.059,78.7235 265.392,81.7235 263.5,84.5C 262.883,84.6107 262.383,84.944 262,85.5C 261.51,84.2068 261.343,82.8734 261.5,81.5C 261.215,78.1709 261.882,75.1709 263.5,72.5 Z"/></g>
<g><path style="opacity:1" fill="#d8a70a" d="M 252.5,73.5 C 253.9,74.0998 254.9,75.0998 255.5,76.5C 256.434,77.5676 256.768,78.901 256.5,80.5C 256.598,83.2476 255.598,83.9143 253.5,82.5C 252.551,80.2228 251.218,78.2228 249.5,76.5C 249.5,75.8333 249.5,75.1667 249.5,74.5C 250.791,74.7373 251.791,74.404 252.5,73.5 Z"/></g>
<g><path style="opacity:1" fill="#000000" d="M 247.5,75.5 C 247.842,74.6618 248.508,74.3284 249.5,74.5C 249.5,75.1667 249.5,75.8333 249.5,76.5C 248.833,76.1667 248.167,75.8333 247.5,75.5 Z"/></g>
<g><path style="opacity:1" fill="#000000" d="M 246.5,76.5 C 246.5,77.8333 245.833,78.5 244.5,78.5C 244.833,77.5 245.5,76.8333 246.5,76.5 Z"/></g>
<g><path style="opacity:1" fill="#000000" d="M 274.5,76.5 C 275.492,76.3284 276.158,76.6618 276.5,77.5C 275.075,79.0311 274.409,78.6977 274.5,76.5 Z"/></g>
<g><path style="opacity:1" fill="#dfac07" d="M 270.5,74.5 C 271.514,75.6737 272.847,76.3404 274.5,76.5C 274.409,78.6977 275.075,79.0311 276.5,77.5C 276.611,78.1174 276.944,78.6174 277.5,79C 276.112,81.4601 275.446,84.1267 275.5,87C 276.073,90.1762 276.24,93.3429 276,96.5C 272.403,92.9647 268.57,89.7981 264.5,87C 263.748,86.3292 263.414,85.4959 263.5,84.5C 265.392,81.7235 267.059,78.7235 268.5,75.5C 268.957,74.7025 269.624,74.3691 270.5,74.5 Z"/></g>
<g><path style="opacity:1" fill="#b18a12" d="M 247.5,75.5 C 248.167,75.8333 248.833,76.1667 249.5,76.5C 251.218,78.2228 252.551,80.2228 253.5,82.5C 252.011,85.7158 249.678,87.0491 246.5,86.5C 244.967,84.6452 243.3,82.8119 241.5,81C 242.373,79.955 243.373,79.1217 244.5,78.5C 245.833,78.5 246.5,77.8333 246.5,76.5C 246.5,75.8333 246.833,75.5 247.5,75.5 Z"/></g>
<g><path style="opacity:1" fill="#efba00" d="M 254.5,85.5 C 258.604,85.8839 262.271,87.3839 265.5,90C 269.835,93.0011 273.335,96.5011 276,100.5C 264.925,109.925 252.425,113.258 238.5,110.5C 240.885,104.188 243.385,97.8546 246,91.5C 248.988,89.6009 251.821,87.6009 254.5,85.5 Z"/></g>
<g><path style="opacity:1" fill="#efba00" d="M 238.5,88.5 C 238.992,90.8185 239.992,92.8185 241.5,94.5C 241.313,96.5643 240.813,98.5643 240,100.5C 237.829,96.5223 237.329,92.5223 238.5,88.5 Z"/></g>
<g><path style="opacity:1" fill="#c88e4c" d="M 282.5,110.5 C 281.542,110.047 280.708,109.381 280,108.5C 278.829,109.893 277.329,110.727 275.5,111C 276.833,112.333 276.833,113.667 275.5,115C 277.329,115.273 278.829,116.107 280,117.5C 282.172,116.491 283.338,114.824 283.5,112.5C 286.352,120.86 291.352,127.693 298.5,133C 295.691,134.741 292.691,135.908 289.5,136.5C 285.853,133.595 282.853,134.261 280.5,138.5C 276.007,138.731 271.674,138.064 267.5,136.5C 268.828,135.493 269.828,134.16 270.5,132.5C 266.019,128.073 264.019,129.073 264.5,135.5C 261.074,134.289 257.741,132.789 254.5,131C 253.029,129.417 252.029,127.583 251.5,125.5C 255.605,125.504 257.105,123.504 256,119.5C 254,116.833 252,116.833 250,119.5C 249.617,118.944 249.117,118.611 248.5,118.5C 246.661,117.248 244.828,117.248 243,118.5C 242.333,121.5 242.333,124.5 243,127.5C 243.995,128.066 244.828,128.733 245.5,129.5C 245.346,131.97 244.346,133.97 242.5,135.5C 242.628,133.345 242.128,131.345 241,129.5C 240.617,130.056 240.117,130.389 239.5,130.5C 238,126.674 237.334,122.674 237.5,118.5C 240.367,118.631 242.033,117.297 242.5,114.5C 251.186,114.578 259.519,112.912 267.5,109.5C 270.934,110.954 273.267,109.788 274.5,106C 274.272,105.601 273.938,105.435 273.5,105.5C 275.123,104.221 276.79,102.887 278.5,101.5C 280.608,104.157 281.941,107.157 282.5,110.5 Z"/></g>
<g><path style="opacity:1" fill="#870014" d="M 273.5,105.5 C 273.938,105.435 274.272,105.601 274.5,106C 273.267,109.788 270.934,110.954 267.5,109.5C 269.118,107.684 271.118,106.351 273.5,105.5 Z"/></g>
<g><path style="opacity:1" fill="#870014" d="M 282.5,110.5 C 282.833,111.167 283.167,111.833 283.5,112.5C 283.338,114.824 282.172,116.491 280,117.5C 278.829,116.107 277.329,115.273 275.5,115C 276.833,113.667 276.833,112.333 275.5,111C 277.329,110.727 278.829,109.893 280,108.5C 280.708,109.381 281.542,110.047 282.5,110.5 Z"/></g>
<g><path style="opacity:1" fill="#870014" d="M 242.5,114.5 C 242.033,117.297 240.367,118.631 237.5,118.5C 237.892,116.821 238.392,115.154 239,113.5C 240.011,114.337 241.178,114.67 242.5,114.5 Z"/></g>
<g><path style="opacity:1" fill="#870014" d="M 265.5,113.5 C 270.649,114.953 271.649,117.786 268.5,122C 264.237,123.513 261.904,122.013 261.5,117.5C 262.867,116.16 264.2,114.827 265.5,113.5 Z"/></g>
<g><path style="opacity:1" fill="#686868" d="M 400.5,168.5 C 399.833,168.5 399.5,168.167 399.5,167.5C 398.859,166.518 398.193,165.518 397.5,164.5C 399.5,162.5 401.5,160.5 403.5,158.5C 430.346,142.176 457.679,127.51 485.5,114.5C 483.641,116.192 481.641,117.692 479.5,119C 471.99,122.087 465.324,125.42 459.5,129C 459.833,129.333 460.167,129.667 460.5,130C 443.997,139.165 427.997,149.165 412.5,160C 410.608,160.973 408.608,161.64 406.5,162C 408.405,162.826 408.739,163.993 407.5,165.5C 405.513,167.327 403.179,168.327 400.5,168.5 Z"/></g>
<g><path style="opacity:1" fill="#333dbd" d="M 219.5,117.5 C 219.897,116.475 220.563,116.308 221.5,117C 223.692,118.359 225.359,120.192 226.5,122.5C 228.592,119.848 231.258,119.014 234.5,120C 235.022,120.561 235.355,121.228 235.5,122C 232.952,124.196 230.118,126.029 227,127.5C 225.209,123.561 222.709,120.228 219.5,117.5 Z"/></g>
<g><path style="opacity:1" fill="#fefffe" d="M 216.5,117.5 C 218.371,117.859 219.871,118.859 221,120.5C 222.167,122.833 223.333,125.167 224.5,127.5C 224.167,127.833 223.833,128.167 223.5,128.5C 220.754,126.377 217.921,124.377 215,122.5C 214.5,121.5 214,120.5 213.5,119.5C 214.602,118.824 215.602,118.158 216.5,117.5 Z"/></g>
<g><path style="opacity:1" fill="#d2d3ab" d="M 248.5,118.5 C 248.796,120.403 249.463,122.07 250.5,123.5C 250.467,127.406 251.801,130.74 254.5,133.5C 251.914,134.48 249.247,134.813 246.5,134.5C 246.227,132.549 246.893,131.049 248.5,130C 247.552,129.517 246.552,129.351 245.5,129.5C 244.828,128.733 243.995,128.066 243,127.5C 242.333,124.5 242.333,121.5 243,118.5C 244.828,117.248 246.661,117.248 248.5,118.5 Z"/></g>
<g><path style="opacity:1" fill="#790613" d="M 251.5,125.5 C 251.672,124.508 251.338,123.842 250.5,123.5C 249.463,122.07 248.796,120.403 248.5,118.5C 249.117,118.611 249.617,118.944 250,119.5C 252,116.833 254,116.833 256,119.5C 257.105,123.504 255.605,125.504 251.5,125.5 Z"/></g>
<g><path style="opacity:1" fill="#333dbd" d="M 200.5,121.5 C 203.68,121.536 207.014,121.203 210.5,120.5C 212.719,123.882 215.719,126.382 219.5,128C 217.386,129.518 215.053,129.851 212.5,129C 208.948,125.727 204.948,123.227 200.5,121.5 Z"/></g>
<g><path style="opacity:1" fill="#333dbd" d="M 204.5,127.5 C 194.194,125.608 188.027,129.941 186,140.5C 185.077,133.768 186.91,127.935 191.5,123C 193.365,121.699 195.365,121.365 197.5,122C 200.52,123.7 203.52,125.366 206.5,127C 205.906,127.464 205.239,127.631 204.5,127.5 Z"/></g>
<g><path style="opacity:1" fill="#870014" d="M 274.5,123.5 C 276.484,123.484 277.484,124.484 277.5,126.5C 275.998,130.308 273.998,130.475 271.5,127C 272.544,125.826 273.544,124.659 274.5,123.5 Z"/></g>
<g><path style="opacity:1" fill="#870014" d="M 284.5,123.5 C 286.844,123.979 288.178,125.479 288.5,128C 288.046,129.622 287.046,130.788 285.5,131.5C 283.833,130.667 282.167,129.833 280.5,129C 282.439,127.568 283.772,125.735 284.5,123.5 Z"/></g>
<g><path style="opacity:1" fill="#333dbd" d="M 238.5,138.5 C 235.73,141.219 232.396,142.885 228.5,143.5C 228.476,138.773 228.31,134.107 228,129.5C 230.333,128.167 232.667,126.833 235,125.5C 236.938,129.584 238.105,133.917 238.5,138.5 Z"/></g>
<g><path style="opacity:1" fill="#333dbd" d="M 204.5,127.5 C 208.078,128.872 210.911,131.206 213,134.5C 215.428,140.119 215.761,145.786 214,151.5C 211.088,155.028 207.588,157.695 203.5,159.5C 198.026,159.268 194.026,156.768 191.5,152C 194.249,152.945 197.083,154.111 200,155.5C 202.958,154.692 205.124,153.026 206.5,150.5C 204.219,151.608 202.052,152.942 200,154.5C 192.922,152.094 188.755,147.261 187.5,140C 189.556,131.13 195.223,126.963 204.5,127.5 Z"/></g>
<g><path style="opacity:1" fill="#870014" d="M 242.5,135.5 C 240.259,134.7 239.259,133.034 239.5,130.5C 240.117,130.389 240.617,130.056 241,129.5C 242.128,131.345 242.628,133.345 242.5,135.5 Z"/></g>
<g><path style="opacity:1" fill="#870014" d="M 267.5,136.5 C 266.609,135.89 265.609,135.557 264.5,135.5C 264.019,129.073 266.019,128.073 270.5,132.5C 269.828,134.16 268.828,135.493 267.5,136.5 Z"/></g>
<g><path style="opacity:1" fill="#000000" d="M 209.5,147.5 C 210.999,143.875 211.333,140.208 210.5,136.5C 204.748,130.928 198.915,130.595 193,135.5C 190.554,140.324 191.387,144.491 195.5,148C 199.553,148.559 202.72,147.059 205,143.5C 205.651,141.765 205.485,140.098 204.5,138.5C 202.235,137.353 199.902,137.186 197.5,138C 196.588,140.488 197.588,142.155 200.5,143C 196.028,143.185 194.695,141.185 196.5,137C 199.554,136.179 202.554,136.345 205.5,137.5C 207.823,143.018 206.156,146.851 200.5,149C 195.88,150.538 192.713,149.038 191,144.5C 188.924,135.988 192.258,131.321 201,130.5C 204.956,131.313 208.456,132.98 211.5,135.5C 212.669,139.184 212.502,142.85 211,146.5C 210.617,147.056 210.117,147.389 209.5,147.5 Z"/></g>
<g><path style="opacity:1" fill="#333dbd" d="M 219.5,130.5 C 226.994,141.443 224.661,150.443 212.5,157.5C 212.167,157.333 211.833,157.167 211.5,157C 215.607,154.45 217.607,150.783 217.5,146C 217.201,141.336 216.201,136.836 214.5,132.5C 216.291,131.83 217.958,131.163 219.5,130.5 Z"/></g>
<g><path style="opacity:1" fill="#fefffe" d="M 227.5,145.5 C 226.644,148.873 224.977,151.873 222.5,154.5C 217.585,155.791 217.419,154.791 222,151.5C 226.063,145.285 226.563,138.785 223.5,132C 223.85,130.743 224.517,130.409 225.5,131C 227.272,135.631 227.938,140.464 227.5,145.5 Z"/></g>
<g><path style="opacity:1" fill="#c9a697" d="M 257.5,134.5 C 259.576,139.224 263.242,142.058 268.5,143C 271.5,143.667 274.5,143.667 277.5,143C 278.942,142.623 279.942,141.79 280.5,140.5C 282.144,140.286 283.644,140.62 285,141.5C 286.341,144.022 287.174,146.689 287.5,149.5C 283.173,150.744 278.839,151.744 274.5,152.5C 270.777,154.155 270.777,155.489 274.5,156.5C 275.919,157.451 277.585,157.784 279.5,157.5C 279.221,160.118 278.554,162.618 277.5,165C 274.469,165.495 271.469,165.329 268.5,164.5C 268.631,163.761 268.464,163.094 268,162.5C 265.333,163.833 262.667,163.833 260,162.5C 259.833,162.167 259.667,161.833 259.5,161.5C 261.5,160.833 263.5,160.167 265.5,159.5C 265.376,158.893 265.043,158.56 264.5,158.5C 263.094,158.027 262.427,157.027 262.5,155.5C 262.672,154.508 262.338,153.842 261.5,153.5C 260.833,153.5 260.5,153.167 260.5,152.5C 260.204,150.597 259.537,148.93 258.5,147.5C 258.737,146.209 258.404,145.209 257.5,144.5C 256.596,143.791 256.263,142.791 256.5,141.5C 256.768,139.901 256.434,138.568 255.5,137.5C 255.343,136.127 255.51,134.793 256,133.5C 256.383,134.056 256.883,134.389 257.5,134.5 Z"/></g>
<g><path style="opacity:1" fill="#49000b" d="M 246.5,134.5 C 246.232,136.099 246.566,137.432 247.5,138.5C 247.595,140.786 248.262,142.786 249.5,144.5C 249.833,145.833 250.167,147.167 250.5,148.5C 249.391,148.557 248.391,148.89 247.5,149.5C 244.416,146.74 242.083,143.407 240.5,139.5C 242.832,138.18 244.832,136.513 246.5,134.5 Z"/></g>
<g><path style="opacity:1" fill="#9a6951" d="M 257.5,134.5 C 264.626,138.541 272.292,140.541 280.5,140.5C 279.942,141.79 278.942,142.623 277.5,143C 274.5,143.667 271.5,143.667 268.5,143C 263.242,142.058 259.576,139.224 257.5,134.5 Z"/></g>
<g><path style="opacity:1" fill="#870014" d="M 289.5,136.5 C 286.781,137.913 283.781,138.58 280.5,138.5C 282.853,134.261 285.853,133.595 289.5,136.5 Z"/></g>
<g><path style="opacity:1" fill="#d6d8ae" d="M 255.5,137.5 C 255.5,138.5 255.5,139.5 255.5,140.5C 252.467,140.868 249.8,140.202 247.5,138.5C 247.5,137.5 247.5,136.5 247.5,135.5C 250.533,135.132 253.2,135.798 255.5,137.5 Z"/></g>
<g><path style="opacity:1" fill="#000000" d="M 255.5,137.5 C 256.434,138.568 256.768,139.901 256.5,141.5C 254.167,141.5 251.833,141.5 249.5,141.5C 249.5,142.5 249.5,143.5 249.5,144.5C 248.262,142.786 247.595,140.786 247.5,138.5C 249.8,140.202 252.467,140.868 255.5,140.5C 255.5,139.5 255.5,138.5 255.5,137.5 Z"/></g>
<g><path style="opacity:1" fill="#1d2267" d="M 238.5,138.5 C 238.519,140.06 238.852,141.56 239.5,143C 236.099,150.068 230.599,154.568 223,156.5C 222.536,155.906 222.369,155.239 222.5,154.5C 224.977,151.873 226.644,148.873 227.5,145.5C 228.338,145.158 228.672,144.492 228.5,143.5C 232.396,142.885 235.73,141.219 238.5,138.5 Z"/></g>
<g><path style="opacity:1" fill="#d6d8ae" d="M 256.5,141.5 C 256.263,142.791 256.596,143.791 257.5,144.5C 254.939,145.767 252.272,145.767 249.5,144.5C 249.5,143.5 249.5,142.5 249.5,141.5C 251.833,141.5 254.167,141.5 256.5,141.5 Z"/></g>
<g><path style="opacity:1" fill="#000000" d="M 249.5,144.5 C 252.272,145.767 254.939,145.767 257.5,144.5C 258.404,145.209 258.737,146.209 258.5,147.5C 255.541,145.94 252.874,146.273 250.5,148.5C 250.167,147.167 249.833,145.833 249.5,144.5 Z"/></g>
<g><path style="opacity:1" fill="#ec1c23" d="M 240.5,145.5 C 246.174,153.795 253.008,161.128 261,167.5C 261.498,170.482 261.665,173.482 261.5,176.5C 249.557,174.557 241.557,167.89 237.5,156.5C 236.263,155.719 235.263,154.719 234.5,153.5C 236.909,151.098 238.909,148.431 240.5,145.5 Z"/></g>
<g><path style="opacity:1" fill="#000000" d="M 209.5,147.5 C 209.5,149.5 208.5,150.5 206.5,150.5C 207.167,149.167 208.167,148.167 209.5,147.5 Z"/></g>
<g><path style="opacity:1" fill="#000000" d="M 258.5,147.5 C 259.537,148.93 260.204,150.597 260.5,152.5C 257.998,151.221 255.498,151.221 253,152.5C 252.833,152.167 252.667,151.833 252.5,151.5C 254.396,150.534 256.396,150.201 258.5,150.5C 258.5,149.5 258.5,148.5 258.5,147.5 Z"/></g>
<g><path style="opacity:1" fill="#c9b79d" d="M 258.5,147.5 C 258.5,148.5 258.5,149.5 258.5,150.5C 256.396,150.201 254.396,150.534 252.5,151.5C 252.667,151.833 252.833,152.167 253,152.5C 255.498,151.221 257.998,151.221 260.5,152.5C 260.5,153.167 260.833,153.5 261.5,153.5C 260.5,154.167 259.5,154.833 258.5,155.5C 259.833,155.5 261.167,155.5 262.5,155.5C 262.427,157.027 263.094,158.027 264.5,158.5C 262.44,159.811 260.274,159.811 258,158.5C 257.383,159.449 257.549,160.282 258.5,161C 257.833,161.667 257.167,161.667 256.5,161C 252.879,157.559 249.879,153.726 247.5,149.5C 248.391,148.89 249.391,148.557 250.5,148.5C 252.874,146.273 255.541,145.94 258.5,147.5 Z"/></g>
<g><path style="opacity:1" fill="#802a00" d="M 186.5,149.5 C 189.824,153.324 193.324,156.991 197,160.5C 197.42,165.741 195.92,170.408 192.5,174.5C 188.833,171.333 185.167,168.167 181.5,165C 185.716,160.885 186.383,156.385 183.5,151.5C 183.973,150.094 184.973,149.427 186.5,149.5 Z"/></g>
<g><path style="opacity:1" fill="#840b2c" d="M 274.5,152.5 C 276.857,152.337 279.19,152.503 281.5,153C 280.197,156.044 277.864,157.211 274.5,156.5C 270.777,155.489 270.777,154.155 274.5,152.5 Z"/></g>
<g><path style="opacity:1" fill="#d5d5cb" d="M 186.5,149.5 C 184.973,149.427 183.973,150.094 183.5,151.5C 182.522,151.811 181.855,152.478 181.5,153.5C 182.962,153.065 183.962,153.898 184.5,156C 182.833,159 181.167,162 179.5,165C 183.684,169.775 188.351,174.109 193.5,178C 192.956,178.717 192.289,179.217 191.5,179.5C 187.617,174.434 182.951,170.601 177.5,168C 171.4,178.033 166.233,188.533 162,199.5C 161.772,204.986 163.272,209.986 166.5,214.5C 163.834,213.699 161.667,211.699 160,208.5C 160.425,197.623 163.758,187.623 170,178.5C 169.008,175.43 169.341,172.43 171,169.5C 175.041,162.583 179.208,155.75 183.5,149C 184.749,148.26 185.749,148.427 186.5,149.5 Z"/></g>
<g><path style="opacity:1" fill="#000000" d="M 261.5,153.5 C 262.338,153.842 262.672,154.508 262.5,155.5C 261.167,155.5 259.833,155.5 258.5,155.5C 259.5,154.833 260.5,154.167 261.5,153.5 Z"/></g>
<g><path style="opacity:1" fill="#ec1c23" d="M 233.5,155.5 C 230.968,156.596 228.635,157.929 226.5,159.5C 224.295,159.154 224.128,158.487 226,157.5C 228.227,156.637 230.393,155.637 232.5,154.5C 233.107,154.624 233.44,154.957 233.5,155.5 Z"/></g>
<g><path style="opacity:1" fill="#415f3c" d="M 233.5,155.5 C 236.412,156.345 237.412,158.012 236.5,160.5C 235.055,162.063 233.389,163.396 231.5,164.5C 228.736,164.001 227.069,162.335 226.5,159.5C 228.635,157.929 230.968,156.596 233.5,155.5 Z"/></g>
<g><path style="opacity:1" fill="#000000" d="M 258.5,155.5 C 257.828,156.267 256.995,156.934 256,157.5C 255.812,155.939 256.645,155.272 258.5,155.5 Z"/></g>
<g><path style="opacity:1" fill="#edede2" d="M 219.5,158.5 C 222.075,159.568 224.242,161.235 226,163.5C 228.254,167.007 230.254,170.673 232,174.5C 234.39,200.073 223.39,216.407 199,223.5C 199.546,220.907 201.046,218.74 203.5,217C 211.472,216.02 217.639,212.187 222,205.5C 223.667,202.167 225.333,198.833 227,195.5C 227.667,187.833 227.667,180.167 227,172.5C 224.838,164.358 219.671,160.524 211.5,161C 214.166,159.939 216.833,159.106 219.5,158.5 Z"/></g>
<g><path style="opacity:1" fill="#ecede1" d="M 199.5,160.5 C 200.708,161.234 202.041,161.567 203.5,161.5C 201.997,166.166 199.664,170.499 196.5,174.5C 196.167,174.333 195.833,174.167 195.5,174C 198.349,169.952 199.683,165.452 199.5,160.5 Z"/></g>
<g><path style="opacity:1" fill="#ec1c23" d="M 236.5,160.5 C 237.376,160.369 238.043,160.702 238.5,161.5C 236.766,164.2 234.432,166.2 231.5,167.5C 228.955,166.451 228.955,165.451 231.5,164.5C 233.389,163.396 235.055,162.063 236.5,160.5 Z"/></g>
<g><path style="opacity:1" fill="#4d7347" d="M 214.5,162.5 C 216.379,162.393 216.712,162.893 215.5,164C 212.313,164.889 209.147,165.722 206,166.5C 202.653,170.996 203.153,175.162 207.5,179C 212.287,179.879 216.953,179.545 221.5,178C 222.304,176.229 223.471,174.729 225,173.5C 228.803,188.701 224.969,201.534 213.5,212C 205.876,215.23 205.709,214.396 213,209.5C 214.752,206.328 216.752,203.328 219,200.5C 219.667,197.167 219.667,193.833 219,190.5C 218.127,201.736 212.627,209.903 202.5,215C 196.171,219.989 193.338,226.489 194,234.5C 197.115,236.647 199.948,239.147 202.5,242C 200.726,242.97 198.893,243.804 197,244.5C 194.888,243.392 193.054,241.892 191.5,240C 181.648,240.011 179.315,244.178 184.5,252.5C 184.167,252.833 183.833,253.167 183.5,253.5C 175.966,246.098 169.133,238.098 163,229.5C 162.333,227.5 162.333,225.5 163,223.5C 177,204.167 191,184.833 205,165.5C 208.245,164.428 211.411,163.428 214.5,162.5 Z"/></g>
<g><path style="opacity:1" fill="#d6d8ae" d="M 268.5,164.5 C 269.167,165.167 269.833,165.833 270.5,166.5C 267.663,167.616 264.996,167.116 262.5,165C 264.473,164.505 266.473,164.338 268.5,164.5 Z"/></g>
<g><path style="opacity:1" fill="#fec90d" d="M 392.5,164.5 C 396.595,165.326 397.095,166.993 394,169.5C 393.272,172.23 393.438,174.897 394.5,177.5C 392.092,180.549 389.092,181.549 385.5,180.5C 384.03,177.727 382.697,174.894 381.5,172C 381.613,170.72 382.28,169.887 383.5,169.5C 384.62,170.833 385.953,171.333 387.5,171C 389.765,169.242 391.432,167.075 392.5,164.5 Z"/></g>
<g><path style="opacity:1" fill="#ec1c23" d="M 217.5,166.5 C 214.472,166.965 211.638,167.965 209,169.5C 208.731,172.28 209.898,174.446 212.5,176C 216.143,174.545 219.143,172.045 221.5,168.5C 222.497,168.47 223.164,168.97 223.5,170C 220.663,177.33 215.497,179.497 208,176.5C 205.593,173.732 205.093,170.732 206.5,167.5C 209.74,167.232 212.906,166.566 216,165.5C 216.765,165.57 217.265,165.903 217.5,166.5 Z"/></g>
<g><path style="opacity:1" fill="#3b5536" d="M 221.5,168.5 C 219.143,172.045 216.143,174.545 212.5,176C 209.898,174.446 208.731,172.28 209,169.5C 211.638,167.965 214.472,166.965 217.5,166.5C 218.738,165.588 220.072,165.421 221.5,166C 222.598,166.77 222.598,167.603 221.5,168.5 Z"/></g>
<g><path style="opacity:1" fill="#ec1c23" d="M 238.5,165.5 C 242.606,168.429 246.606,171.596 250.5,175C 253.375,176.302 256.375,177.135 259.5,177.5C 259.142,181.509 258.642,185.509 258,189.5C 252.021,181.027 245.521,173.027 238.5,165.5 Z"/></g>
<g><path style="opacity:1" fill="#ecede1" d="M 270.5,166.5 C 271.5,166.5 272.5,166.5 273.5,166.5C 274.277,172.822 274.444,179.155 274,185.5C 273.23,186.598 272.397,186.598 271.5,185.5C 271.705,179.122 271.372,172.789 270.5,166.5 Z"/></g>
<g><path style="opacity:1" fill="#ecede1" d="M 236.5,167.5 C 244.411,175.801 251.744,184.635 258.5,194C 256.457,197.253 254.29,200.42 252,203.5C 247.053,195.951 241.386,188.951 235,182.5C 234.962,178.437 234.128,174.603 232.5,171C 234.093,170.051 235.426,168.885 236.5,167.5 Z"/></g>
<g><path style="opacity:1" fill="#b87a56" d="M 399.5,167.5 C 399.5,168.167 399.833,168.5 400.5,168.5C 399.627,170.886 398.127,172.886 396,174.5C 395.136,171.187 396.302,168.854 399.5,167.5 Z"/></g>
<g><path style="opacity:1" fill="#ec1c23" d="M 263.5,168.5 C 264.497,168.47 265.164,168.97 265.5,170C 265.062,171.92 264.395,173.754 263.5,175.5C 262.286,173.141 262.286,170.808 263.5,168.5 Z"/></g>
<g><path style="opacity:1" fill="#ecede1" d="M 267.5,168.5 C 268.75,168.577 269.583,169.244 270,170.5C 269.487,187.702 263.987,203.202 253.5,217C 240.088,228.723 224.921,237.557 208,243.5C 204.5,240.667 201,237.833 197.5,235C 211.663,231.055 225.329,225.721 238.5,219C 243.621,215.547 248.454,211.714 253,207.5C 261.283,195.822 266.116,182.822 267.5,168.5 Z"/></g>
<g><path style="opacity:1" fill="#812b00" d="M 191.5,179.5 C 184.243,191.002 176.243,202.002 167.5,212.5C 164.988,209.495 163.321,205.995 162.5,202C 166.481,190.017 172.147,179.35 179.5,170C 183.394,173.404 187.394,176.571 191.5,179.5 Z"/></g>
<g><path style="opacity:1" fill="#4e7648" d="M 281.5,216.5 C 279.616,216.288 278.283,215.288 277.5,213.5C 278.456,211.925 279.123,210.258 279.5,208.5C 282.465,206.044 285.798,204.211 289.5,203C 285.284,203.46 281.284,204.46 277.5,206C 279.208,203.957 281.208,202.29 283.5,201C 277.826,201.501 272.826,203.668 268.5,207.5C 266.519,206.895 266.185,205.895 267.5,204.5C 275.338,194.482 278.171,183.148 276,170.5C 279.726,179.01 283.059,187.677 286,196.5C 289.462,199.126 291.962,202.46 293.5,206.5C 287.937,208.071 283.937,211.404 281.5,216.5 Z"/></g>
<g><path style="opacity:1" fill="#545454" d="M 379.5,175.5 C 368.203,182.486 356.869,189.486 345.5,196.5C 344.761,196.631 344.094,196.464 343.5,196C 354.744,188.127 366.244,180.627 378,173.5C 378.717,174.044 379.217,174.711 379.5,175.5 Z"/></g>
<g><path style="opacity:1" fill="#b87a56" d="M 379.5,175.5 C 381.96,177.398 382.96,179.731 382.5,182.5C 371.167,189.5 359.833,196.5 348.5,203.5C 347.018,201.517 345.351,199.684 343.5,198C 344.416,197.722 345.082,197.222 345.5,196.5C 356.869,189.486 368.203,182.486 379.5,175.5 Z"/></g>
<g><path style="opacity:1" fill="#ec1c23" d="M 262.5,176.5 C 263.097,176.735 263.43,177.235 263.5,178C 262.709,181.678 261.543,185.178 260,188.5C 259.574,184.208 260.408,180.208 262.5,176.5 Z"/></g>
<g><path style="opacity:1" fill="#db1e22" d="M 243.5,196.5 C 241.871,198.196 242.204,199.196 244.5,199.5C 246.909,201.367 249.242,203.534 251.5,206C 250,207.5 248.5,209 247,210.5C 246.722,209.584 246.222,208.918 245.5,208.5C 242.167,207.167 241.167,208.167 242.5,211.5C 242.489,213.017 241.823,214.184 240.5,215C 238.167,216.5 235.833,218 233.5,219.5C 232.893,219.376 232.56,219.043 232.5,218.5C 242.253,209.759 242.92,200.426 234.5,190.5C 233.677,188.545 233.51,186.545 234,184.5C 237.381,188.375 240.547,192.375 243.5,196.5 Z"/></g>
<g><path style="opacity:1" fill="#ec1c23" d="M 271.5,185.5 C 272.435,188.113 272.602,190.779 272,193.5C 271.617,192.944 271.117,192.611 270.5,192.5C 269.35,189.951 269.684,187.617 271.5,185.5 Z"/></g>
<g><path style="opacity:1" fill="#486c43" d="M 234.5,190.5 C 242.92,200.426 242.253,209.759 232.5,218.5C 225.753,223.512 218.419,226.512 210.5,227.5C 212.145,226.521 213.479,225.188 214.5,223.5C 213.995,222.081 212.995,221.415 211.5,221.5C 215.485,218.363 219.652,215.363 224,212.5C 228.917,206.332 231.917,199.332 233,191.5C 233.383,190.944 233.883,190.611 234.5,190.5 Z"/></g>
<g><path style="opacity:1" fill="#fec90d" d="M 270.5,192.5 C 270.5,193.833 269.833,194.5 268.5,194.5C 268.5,193.167 269.167,192.5 270.5,192.5 Z"/></g>
<g><path style="opacity:1" fill="#ec1c23" d="M 268.5,194.5 C 268.918,195.222 269.584,195.722 270.5,196C 269.406,198.727 267.74,200.893 265.5,202.5C 264.957,202.44 264.624,202.107 264.5,201.5C 266.127,199.235 267.461,196.901 268.5,194.5 Z"/></g>
<g><path style="opacity:1" fill="#fec90d" d="M 344.5,210.5 C 342.345,206.861 340.178,203.194 338,199.5C 337.226,197.597 337.56,195.93 339,194.5C 341.333,197.833 343.667,201.167 346,204.5C 346.405,206.775 345.905,208.775 344.5,210.5 Z"/></g>
<g><path style="opacity:1" fill="#000000" d="M 234.5,196.5 C 235.643,201.316 234.81,205.983 232,210.5C 227.405,216.014 221.905,219.847 215.5,222C 226.644,217.03 232.977,208.53 234.5,196.5 Z"/></g>
<g><path style="opacity:1" fill="#fec90d" d="M 243.5,196.5 C 245.481,197.105 245.815,198.105 244.5,199.5C 242.204,199.196 241.871,198.196 243.5,196.5 Z"/></g>
<g><path style="opacity:1" fill="#424b3b" d="M 279.5,208.5 C 279.103,207.475 278.437,207.308 277.5,208C 274.667,210.167 271.833,212.333 269,214.5C 268.503,212.19 268.337,209.857 268.5,207.5C 272.826,203.668 277.826,201.501 283.5,201C 281.208,202.29 279.208,203.957 277.5,206C 281.284,204.46 285.284,203.46 289.5,203C 285.798,204.211 282.465,206.044 279.5,208.5 Z"/></g>
<g><path style="opacity:1" fill="#a46f52" d="M 342.5,210.5 C 341.421,212.543 339.754,213.876 337.5,214.5C 336.949,210.821 335.615,207.321 333.5,204C 336.167,203.333 336.167,202.667 333.5,202C 334.333,201.167 335.167,200.333 336,199.5C 338.682,202.865 340.849,206.531 342.5,210.5 Z"/></g>
<g><path style="opacity:1" fill="#fec90d" d="M 265.5,202.5 C 266.833,202.5 267.5,203.167 267.5,204.5C 267.5,203.167 266.833,202.5 265.5,202.5 Z"/></g>
<g><path style="opacity:1" fill="#fec90d" d="M 328.5,202.5 C 329.496,202.414 330.329,202.748 331,203.5C 332.08,205.996 333.414,208.33 335,210.5C 335.798,212.259 335.631,213.926 334.5,215.5C 331.139,211.778 329.139,207.445 328.5,202.5 Z"/></g>
<g><path style="opacity:1" fill="#ecede1" d="M 262.5,205.5 C 265.223,207.104 266.556,209.604 266.5,213C 264.831,216.16 262.997,219.327 261,222.5C 260.163,220.162 259.33,217.828 258.5,215.5C 259.843,212.15 261.177,208.817 262.5,205.5 Z"/></g>
<g><path style="opacity:1" fill="#d7b1a1" d="M 319.5,205.5 C 322.681,205.002 325.347,205.835 327.5,208C 322.601,209.368 317.601,210.368 312.5,211C 307.396,213.773 302.563,216.94 298,220.5C 297.835,218.322 298.668,216.489 300.5,215C 306.894,211.803 313.227,208.636 319.5,205.5 Z"/></g>
<g><path style="opacity:1" fill="#fec90d" d="M 245.5,208.5 C 245.5,209.5 245.5,210.5 245.5,211.5C 244.5,211.5 243.5,211.5 242.5,211.5C 241.167,208.167 242.167,207.167 245.5,208.5 Z"/></g>
<g><path style="opacity:1" fill="#424b3b" d="M 279.5,208.5 C 279.123,210.258 278.456,211.925 277.5,213.5C 278.283,215.288 279.616,216.288 281.5,216.5C 281.708,220.622 282.208,224.622 283,228.5C 276.098,227.264 271.265,223.431 268.5,217C 272.558,214.642 276.225,211.808 279.5,208.5 Z"/></g>
<g><path style="opacity:1" fill="#ec1c23" d="M 289.5,209.5 C 294.361,209.063 299.028,209.563 303.5,211C 298.055,213.213 294.722,217.213 293.5,223C 290.893,225.105 287.893,225.938 284.5,225.5C 283.865,222.507 283.699,219.507 284,216.5C 285.666,214.004 287.5,211.671 289.5,209.5 Z"/></g>
<g><path style="opacity:1" fill="#b07453" d="M 332.5,217.5 C 330.786,218.738 328.786,219.405 326.5,219.5C 325.5,219.5 324.5,219.5 323.5,219.5C 321.901,218.438 320.234,218.438 318.5,219.5C 316.901,219.232 315.568,219.566 314.5,220.5C 314.5,221.167 314.167,221.5 313.5,221.5C 312.599,222.29 311.932,223.29 311.5,224.5C 311.672,225.492 311.338,226.158 310.5,226.5C 309.599,227.29 308.932,228.29 308.5,229.5C 305.511,232.819 302.178,235.819 298.5,238.5C 295.78,235.726 294.113,232.393 293.5,228.5C 301.873,223.987 309.873,218.987 317.5,213.5C 320.64,212.08 323.973,211.08 327.5,210.5C 329.573,212.568 331.239,214.901 332.5,217.5 Z"/></g>
<g><path style="opacity:1" fill="#ecede1" d="M 342.5,210.5 C 343.167,210.5 343.833,210.5 344.5,210.5C 339.857,216.991 333.524,220.658 325.5,221.5C 325.833,220.833 326.167,220.167 326.5,219.5C 328.786,219.405 330.786,218.738 332.5,217.5C 334.674,217.25 336.341,216.25 337.5,214.5C 339.754,213.876 341.421,212.543 342.5,210.5 Z"/></g>
<g><path style="opacity:1" fill="#5a5a5a" d="M 317.5,213.5 C 309.873,218.987 301.873,223.987 293.5,228.5C 291.767,227.992 291.434,227.159 292.5,226C 299.5,221.667 306.5,217.333 313.5,213C 315.066,212.235 316.399,212.402 317.5,213.5 Z"/></g>
<g><path style="opacity:1" fill="#424b3b" d="M 191.5,214.5 C 191.917,217.226 190.917,219.726 188.5,222C 183.924,223.476 179.257,223.81 174.5,223C 180.506,220.663 186.173,217.83 191.5,214.5 Z"/></g>
<g><path style="opacity:1" fill="#ec1c23" d="M 252.5,248.5 C 251.351,248.209 250.684,247.376 250.5,246C 251.167,242.333 251.833,238.667 252.5,235C 252.415,233.893 252.081,232.893 251.5,232C 254.3,227.942 256.134,223.442 257,218.5C 258.131,220.725 258.964,223.058 259.5,225.5C 257.67,229.828 255.836,234.162 254,238.5C 253.752,241.919 253.252,245.253 252.5,248.5 Z"/></g>
<g><path style="opacity:1" fill="#d7b1a1" d="M 323.5,219.5 C 323.833,220.5 324.5,221.167 325.5,221.5C 327.2,223.21 328.533,225.21 329.5,227.5C 329,227.833 328.5,228.167 328,228.5C 324.345,226.012 321.178,223.012 318.5,219.5C 320.234,218.438 321.901,218.438 323.5,219.5 Z"/></g>
<g><path style="opacity:1" fill="#ec1c23" d="M 252.5,219.5 C 253.376,219.369 254.043,219.702 254.5,220.5C 253.337,224.83 251.503,228.83 249,232.5C 238.724,239.055 228.89,246.222 219.5,254C 218.833,254.667 218.167,254.667 217.5,254C 214.833,251 212.167,248 209.5,245C 226.032,239.918 240.365,231.418 252.5,219.5 Z"/></g>
<g><path style="opacity:1" fill="#000000" d="M 323.5,219.5 C 324.5,219.5 325.5,219.5 326.5,219.5C 326.167,220.167 325.833,220.833 325.5,221.5C 324.5,221.167 323.833,220.5 323.5,219.5 Z"/></g>
<g><path style="opacity:1" fill="#d7b1a1" d="M 314.5,220.5 C 318.812,222.289 322.479,225.123 325.5,229C 324.667,229.833 323.833,230.667 323,231.5C 320.297,228.462 317.297,225.795 314,223.5C 313.536,222.906 313.369,222.239 313.5,221.5C 314.167,221.5 314.5,221.167 314.5,220.5 Z"/></g>
<g><path style="opacity:1" fill="#404839" d="M 211.5,221.5 C 212.995,221.415 213.995,222.081 214.5,223.5C 213.479,225.188 212.145,226.521 210.5,227.5C 205.648,230.13 200.648,231.463 195.5,231.5C 196.093,229.618 196.76,227.785 197.5,226C 202.288,224.793 206.955,223.293 211.5,221.5 Z"/></g>
<g><path style="opacity:1" fill="#d7b1a1" d="M 311.5,224.5 C 314.953,226.739 318.286,229.239 321.5,232C 320.667,233.5 319.5,234.667 318,235.5C 314.888,232.899 312.388,229.899 310.5,226.5C 311.338,226.158 311.672,225.492 311.5,224.5 Z"/></g>
<g><path style="opacity:1" fill="#fefffe" d="M 265.5,225.5 C 267.671,227.5 270.004,229.334 272.5,231C 268.333,233.833 264.167,236.667 260,239.5C 260.934,234.539 262.768,229.873 265.5,225.5 Z"/></g>
<g><path style="opacity:1" fill="#35322e" d="M 155.5,227.5 C 156.552,227.351 157.552,227.517 158.5,228C 161.069,230.479 163.402,233.146 165.5,236C 161.24,236.57 157.074,237.403 153,238.5C 153.383,244.592 156.05,249.592 161,253.5C 162.246,257.73 161.08,261.064 157.5,263.5C 153.232,259.798 148.232,257.965 142.5,258C 145.609,247.286 149.942,237.119 155.5,227.5 Z"/></g>
<g><path style="opacity:1" fill="#fec90d" d="M 286.5,227.5 C 287.822,227.33 288.989,227.663 290,228.5C 291.667,231.833 293.333,235.167 295,238.5C 295.749,239.635 295.583,240.635 294.5,241.5C 289.649,237.77 286.982,233.103 286.5,227.5 Z"/></g>
<g><path style="opacity:1" fill="#d7b1a1" d="M 308.5,229.5 C 311.944,231.108 314.61,233.608 316.5,237C 315.991,238.169 315.158,239.002 314,239.5C 311.062,236.74 309.228,233.406 308.5,229.5 Z"/></g>
<g><path style="opacity:1" fill="#5c5c5c" d="M 283.5,234.5 C 278.767,237.89 273.767,240.89 268.5,243.5C 267.262,244.412 265.928,244.579 264.5,244C 270.5,240 276.5,236 282.5,232C 285.72,232.023 286.053,232.857 283.5,234.5 Z"/></g>
<g><path style="opacity:1" fill="#ecede1" d="M 260.5,266.5 C 271.011,256.225 283.344,248.392 297.5,243C 300.721,239.779 303.887,236.613 307,233.5C 307.374,234.416 307.874,235.25 308.5,236C 298.86,244.492 288.193,251.492 276.5,257C 272.656,259.422 268.99,262.089 265.5,265C 263.975,266.009 262.308,266.509 260.5,266.5 Z"/></g>
<g><path style="opacity:1" fill="#d8d8ce" d="M 247.5,249.5 C 244.914,248.585 242.914,246.918 241.5,244.5C 239.821,244.285 238.821,244.952 238.5,246.5C 241.1,247.969 240.767,248.969 237.5,249.5C 235.821,249.285 234.821,249.952 234.5,251.5C 235.806,252.467 236.473,253.801 236.5,255.5C 238.099,255.232 239.432,255.566 240.5,256.5C 238.413,257.585 237.08,259.251 236.5,261.5C 235.504,261.414 234.671,261.748 234,262.5C 229.698,259.933 225.198,257.766 220.5,256C 229.89,248.222 239.724,241.055 250,234.5C 249.591,239.624 248.757,244.624 247.5,249.5 Z"/></g>
<g><path style="opacity:1" fill="#b87a56" d="M 283.5,234.5 C 287.079,236.079 289.746,238.745 291.5,242.5C 278.367,250.469 265.367,258.636 252.5,267C 250,269.5 247.5,272 245,274.5C 241.887,271.375 238.72,268.375 235.5,265.5C 235.833,265.167 236.167,264.833 236.5,264.5C 237.791,267.297 239.958,268.63 243,268.5C 246.012,268.274 248.845,267.441 251.5,266C 257.667,261.167 263.833,256.333 270,251.5C 270.428,248.678 269.928,246.012 268.5,243.5C 273.767,240.89 278.767,237.89 283.5,234.5 Z"/></g>
<g><path style="opacity:1" fill="#cdcdc4" d="M 160.5,238.5 C 162.857,238.337 165.19,238.503 167.5,239C 170.647,242.981 173.98,246.814 177.5,250.5C 173.413,251.151 169.579,252.484 166,254.5C 160.615,251.266 156.782,246.6 154.5,240.5C 156.631,239.831 158.631,239.165 160.5,238.5 Z"/></g>
<g><path style="opacity:1" fill="#fec90d" d="M 160.5,241.5 C 163.861,242.203 164.194,243.537 161.5,245.5C 159.358,244.563 159.024,243.23 160.5,241.5 Z"/></g>
<g><path style="opacity:1" fill="#c61f20" d="M 186.5,241.5 C 187.873,241.343 189.207,241.51 190.5,242C 197.199,248.364 203.532,255.031 209.5,262C 207.165,265.313 204.165,267.313 200.5,268C 194.102,261.191 188.436,253.857 183.5,246C 184.315,244.357 185.315,242.857 186.5,241.5 Z"/></g>
<g><path style="opacity:1" fill="#fec90d" d="M 187.5,243.5 C 190.956,244.536 191.29,246.203 188.5,248.5C 186.296,247.218 185.962,245.551 187.5,243.5 Z"/></g>
<g><path style="opacity:1" fill="#ec1c23" d="M 203.5,243.5 C 204.239,243.369 204.906,243.536 205.5,244C 209.4,247.81 213.066,251.81 216.5,256C 214.92,258.295 212.92,259.628 210.5,260C 206.868,255.366 202.868,251.033 198.5,247C 200.233,245.811 201.9,244.644 203.5,243.5 Z"/></g>
<g><path style="opacity:1" fill="#fec90d" d="M 241.5,244.5 C 241.179,246.048 240.179,246.715 238.5,246.5C 238.821,244.952 239.821,244.285 241.5,244.5 Z"/></g>
<g><path style="opacity:1" fill="#7c7c7c" d="M 236.5,261.5 C 237.08,259.251 238.413,257.585 240.5,256.5C 241.117,256.389 241.617,256.056 242,255.5C 243.717,256.988 244.884,258.821 245.5,261C 251.089,261.455 253.089,258.955 251.5,253.5C 248.912,252.806 246.579,251.64 244.5,250C 245.448,249.517 246.448,249.351 247.5,249.5C 249.338,250.678 251.005,250.345 252.5,248.5C 265.137,246.441 265.471,248.275 253.5,254C 257.752,253.369 261.418,251.369 264.5,248C 264.167,247.667 263.833,247.333 263.5,247C 267.295,246.196 268.629,247.53 267.5,251C 261.448,256.053 255.115,260.719 248.5,265C 243.18,267.78 239.18,266.613 236.5,261.5 Z"/></g>
<g><path style="opacity:1" fill="#4e4e4e" d="M 241.5,244.5 C 242.914,246.918 244.914,248.585 247.5,249.5C 246.448,249.351 245.448,249.517 244.5,250C 246.579,251.64 248.912,252.806 251.5,253.5C 253.089,258.955 251.089,261.455 245.5,261C 244.884,258.821 243.717,256.988 242,255.5C 241.617,256.056 241.117,256.389 240.5,256.5C 239.432,255.566 238.099,255.232 236.5,255.5C 236.473,253.801 235.806,252.467 234.5,251.5C 236.179,251.715 237.179,251.048 237.5,249.5C 240.767,248.969 241.1,247.969 238.5,246.5C 240.179,246.715 241.179,246.048 241.5,244.5 Z"/></g>
<g><path style="opacity:1" fill="#fec90d" d="M 163.5,248.5 C 164.995,248.415 165.995,249.081 166.5,250.5C 163.623,251.911 162.623,251.244 163.5,248.5 Z"/></g>
<g><path style="opacity:1" fill="#fec90d" d="M 237.5,249.5 C 237.179,251.048 236.179,251.715 234.5,251.5C 234.821,249.952 235.821,249.285 237.5,249.5 Z"/></g>
<g><path style="opacity:1" fill="#fec90d" d="M 194.5,252.5 C 197.861,253.203 198.194,254.537 195.5,256.5C 193.358,255.563 193.024,254.23 194.5,252.5 Z"/></g>
<g><path style="opacity:1" fill="#4d7247" d="M 176.5,260.5 C 176.5,261.5 176.5,262.5 176.5,263.5C 177.5,263.5 178.5,263.5 179.5,263.5C 181.23,262.024 182.563,262.358 183.5,264.5C 171.284,263.905 160.117,266.905 150,273.5C 150.418,270.479 151.585,267.645 153.5,265C 160.271,265.912 163.771,262.746 164,255.5C 166.925,256.323 169.758,255.823 172.5,254C 175.146,253.503 177.813,253.336 180.5,253.5C 180.167,255.5 179.833,257.5 179.5,259.5C 178.209,259.263 177.209,259.596 176.5,260.5 Z"/></g>
<g><path style="opacity:1" fill="#ec1c23" d="M 185.5,254.5 C 189.968,259.139 194.301,263.972 198.5,269C 192.199,267.589 186.699,264.422 182,259.5C 181.508,258.451 181.674,257.451 182.5,256.5C 183.602,255.824 184.602,255.158 185.5,254.5 Z"/></g>
<g><path style="opacity:1" fill="#fec90d" d="M 232.5,255.5 C 233.675,255.281 234.675,255.614 235.5,256.5C 233.948,257.798 232.948,257.465 232.5,255.5 Z"/></g>
<g><path style="opacity:1" fill="#d7b1a1" d="M 217.5,257.5 C 222.043,258.769 226.376,260.603 230.5,263C 236.033,268.198 241.2,273.698 246,279.5C 246.781,280.944 246.614,282.277 245.5,283.5C 242.849,281.35 240.349,279.017 238,276.5C 239.237,279.776 241.403,282.609 244.5,285C 243.07,286.44 241.403,286.774 239.5,286C 236.72,284.188 234.22,282.021 232,279.5C 231.333,280.167 231.333,280.833 232,281.5C 234.593,283.549 237.093,285.715 239.5,288C 238.234,288.309 237.067,288.809 236,289.5C 233.892,287.041 231.392,285.541 228.5,285C 230.241,286.62 232.075,288.12 234,289.5C 234.563,290.725 234.23,291.725 233,292.5C 221.606,287.106 212.773,278.94 206.5,268C 210.624,264.945 214.291,261.445 217.5,257.5 Z"/></g>
<g><path style="opacity:1" fill="#fec90d" d="M 200.5,259.5 C 202.912,259.694 203.912,261.027 203.5,263.5C 200.046,263.733 199.046,262.4 200.5,259.5 Z"/></g>
<g><path style="opacity:1" fill="#fec90d" d="M 176.5,260.5 C 177.5,260.5 178.5,260.5 179.5,260.5C 179.5,261.5 179.5,262.5 179.5,263.5C 179.5,262.5 179.5,261.5 179.5,260.5C 178.5,260.5 177.5,260.5 176.5,260.5 Z"/></g>
<g><path style="opacity:1" fill="#ec1c23" d="M 185.5,265.5 C 187.358,266.595 189.025,267.929 190.5,269.5C 186.144,270.563 181.811,271.729 177.5,273C 171.892,276.276 166.558,279.943 161.5,284C 154.277,291.885 147.11,299.718 140,307.5C 137.853,306.887 135.686,306.221 133.5,305.5C 132.572,304.232 132.405,302.899 133,301.5C 138.338,293.494 143.172,285.161 147.5,276.5C 152.677,273.746 158.01,271.246 163.5,269C 170.449,267.878 177.449,267.211 184.5,267C 185.056,266.617 185.389,266.117 185.5,265.5 Z"/></g>
<g><path style="opacity:1" fill="#fec90d" d="M 260.5,266.5 C 263.75,273.839 261.25,278.505 253,280.5C 250.594,280.297 248.594,279.297 247,277.5C 246.437,276.275 246.77,275.275 248,274.5C 253.073,279.893 256.907,279.06 259.5,272C 259.385,270.105 258.718,268.438 257.5,267C 258.352,265.272 259.352,265.105 260.5,266.5 Z"/></g>
<g><path style="opacity:1" fill="#c9c9c9" d="M 204.5,286.5 C 195.012,288.437 187.012,285.937 180.5,279C 184.051,279.131 187.385,279.965 190.5,281.5C 194.437,282.88 198.437,282.714 202.5,281C 201.552,280.517 200.552,280.351 199.5,280.5C 198.127,280.657 196.793,280.49 195.5,280C 199.801,278.215 201.801,275.048 201.5,270.5C 202.583,270.461 203.583,270.127 204.5,269.5C 207.411,272.99 210.078,276.656 212.5,280.5C 210.098,282.909 207.431,284.909 204.5,286.5 Z"/></g>
<g><path style="opacity:1" fill="#e7e7dd" d="M 201.5,270.5 C 201.801,275.048 199.801,278.215 195.5,280C 196.793,280.49 198.127,280.657 199.5,280.5C 196.713,281.477 193.713,281.81 190.5,281.5C 187.385,279.965 184.051,279.131 180.5,279C 187.012,285.937 195.012,288.437 204.5,286.5C 200.349,289.803 196.015,292.97 191.5,296C 186.25,297.174 180.916,297.841 175.5,298C 179.167,298.333 182.833,298.667 186.5,299C 184.774,300.53 182.774,301.53 180.5,302C 180.957,302.414 181.291,302.914 181.5,303.5C 180.77,306.109 180.27,308.776 180,311.5C 176.699,315.946 173.532,320.446 170.5,325C 158.889,328.949 150.723,325.115 146,313.5C 145.035,309.218 145.702,305.218 148,301.5C 156.343,290.485 166.51,281.652 178.5,275C 186.055,272.852 193.722,271.352 201.5,270.5 Z"/></g>
<g><path style="opacity:1" fill="#7e7f7e" d="M 250.5,270.5 C 254.673,274.108 254.34,274.941 249.5,273C 250.252,272.329 250.586,271.496 250.5,270.5 Z"/></g>
<g><path style="opacity:1" fill="#000000" d="M 199.5,280.5 C 200.552,280.351 201.552,280.517 202.5,281C 198.437,282.714 194.437,282.88 190.5,281.5C 193.713,281.81 196.713,281.477 199.5,280.5 Z"/></g>
<g><path style="opacity:1" fill="#b37654" d="M 196.5,325.5 C 192.153,321.314 188.32,316.647 185,311.5C 184.333,309.167 184.333,306.833 185,304.5C 185.383,303.944 185.883,303.611 186.5,303.5C 196.149,296.859 205.815,290.192 215.5,283.5C 218.934,287.269 222.934,290.269 227.5,292.5C 223.142,297.69 218.976,303.023 215,308.5C 213.601,309.227 212.101,309.727 210.5,310C 205.968,315.362 201.301,320.528 196.5,325.5 Z"/></g>
<g><path style="opacity:1" fill="#ecede1" d="M 244.5,287.5 C 245.117,287.611 245.617,287.944 246,288.5C 249.965,297.184 251.465,306.184 250.5,315.5C 239.97,315.704 230.136,318.371 221,323.5C 219.643,319.254 217.81,315.254 215.5,311.5C 220.047,305.575 224.713,299.742 229.5,294C 231.126,294.195 232.793,294.195 234.5,294C 237.627,291.368 240.96,289.201 244.5,287.5 Z"/></g>
<g><path style="opacity:1" fill="#efba00" d="M 186.5,303.5 C 185.883,303.611 185.383,303.944 185,304.5C 184.333,306.833 184.333,309.167 185,311.5C 188.32,316.647 192.153,321.314 196.5,325.5C 196.459,327.745 195.625,328.412 194,327.5C 190.274,322.772 186.941,317.772 184,312.5C 183.333,309.5 183.333,306.5 184,303.5C 184.977,302.226 185.811,302.226 186.5,303.5 Z"/></g>
<g><path style="opacity:1" fill="#34302d" d="M 107.5,370.5 C 109.048,370.179 109.715,369.179 109.5,367.5C 108.046,365.737 108.38,364.403 110.5,363.5C 112.048,363.179 112.715,362.179 112.5,360.5C 111.185,359.105 111.519,358.105 113.5,357.5C 115.048,357.179 115.715,356.179 115.5,354.5C 114.185,353.105 114.519,352.105 116.5,351.5C 118.048,351.179 118.715,350.179 118.5,348.5C 117.185,347.105 117.519,346.105 119.5,345.5C 121.048,345.179 121.715,344.179 121.5,342.5C 120.375,341.348 120.375,340.348 121.5,339.5C 123.048,339.179 123.715,338.179 123.5,336.5C 121.969,335.075 122.302,334.409 124.5,334.5C 126.048,334.179 126.715,333.179 126.5,331.5C 126.131,329.007 126.797,328.34 128.5,329.5C 130.048,329.179 130.715,328.179 130.5,326.5C 129.5,324.167 130.167,323.5 132.5,324.5C 134.048,324.179 134.715,323.179 134.5,321.5C 133.5,319.167 134.167,318.5 136.5,319.5C 138.048,319.179 138.715,318.179 138.5,316.5C 138.981,313.545 140.481,311.211 143,309.5C 146.159,325.038 155.326,331.204 170.5,328C 156.886,335.937 144.72,345.771 134,357.5C 129.16,366.844 125.16,376.51 122,386.5C 120.526,389.957 118.693,393.124 116.5,396C 117.081,396.893 117.415,397.893 117.5,399C 117.295,403.324 116.295,407.324 114.5,411C 116.592,411.953 116.925,413.286 115.5,415C 113.086,416.885 110.419,417.552 107.5,417C 105.333,414.833 103.167,412.667 101,410.5C 100.316,409.216 100.483,408.049 101.5,407C 97.4205,400.591 97.9205,394.424 103,388.5C 103.274,382.704 104.274,377.037 106,371.5C 106.383,370.944 106.883,370.611 107.5,370.5 Z"/></g>
<g><path style="opacity:1" fill="#efba00" d="M 138.5,316.5 C 138.715,318.179 138.048,319.179 136.5,319.5C 136.285,317.821 136.952,316.821 138.5,316.5 Z"/></g>
<g><path style="opacity:1" fill="#35312e" d="M 247.5,317.5 C 251.717,317.215 253.883,319.215 254,323.5C 254.02,332.16 253.687,340.827 253,349.5C 247.275,362.674 241.942,376.007 237,389.5C 235.204,395.926 234.038,402.426 233.5,409C 235.418,415.086 238.418,420.586 242.5,425.5C 241.975,426.192 241.308,426.692 240.5,427C 246.726,428.724 252.726,431.058 258.5,434C 254.598,437.367 250.098,439.534 245,440.5C 236.257,437.382 227.757,433.548 219.5,429C 216.244,427.541 213.577,425.374 211.5,422.5C 212.729,417.525 213.895,412.525 215,407.5C 217.734,406.638 217.901,405.805 215.5,405C 218.833,398.821 219.499,392.321 217.5,385.5C 217.688,370.89 220.688,356.89 226.5,343.5C 225.433,340.466 224.266,337.466 223,334.5C 221.876,331.558 221.542,328.558 222,325.5C 230.009,320.884 238.509,318.217 247.5,317.5 Z"/></g>
<g><path style="opacity:1" fill="#efba00" d="M 134.5,321.5 C 134.715,323.179 134.048,324.179 132.5,324.5C 132.285,322.821 132.952,321.821 134.5,321.5 Z"/></g>
<g><path style="opacity:1" fill="#efba00" d="M 130.5,326.5 C 130.715,328.179 130.048,329.179 128.5,329.5C 128.285,327.821 128.952,326.821 130.5,326.5 Z"/></g>
<g><path style="opacity:1" fill="#efba00" d="M 126.5,331.5 C 126.715,333.179 126.048,334.179 124.5,334.5C 124.285,332.821 124.952,331.821 126.5,331.5 Z"/></g>
<g><path style="opacity:1" fill="#efba00" d="M 123.5,336.5 C 123.715,338.179 123.048,339.179 121.5,339.5C 121.285,337.821 121.952,336.821 123.5,336.5 Z"/></g>
<g><path style="opacity:1" fill="#efba00" d="M 121.5,342.5 C 121.715,344.179 121.048,345.179 119.5,345.5C 119.285,343.821 119.952,342.821 121.5,342.5 Z"/></g>
<g><path style="opacity:1" fill="#efba00" d="M 118.5,348.5 C 118.715,350.179 118.048,351.179 116.5,351.5C 116.285,349.821 116.952,348.821 118.5,348.5 Z"/></g>
<g><path style="opacity:1" fill="#efba00" d="M 115.5,354.5 C 115.715,356.179 115.048,357.179 113.5,357.5C 113.285,355.821 113.952,354.821 115.5,354.5 Z"/></g>
<g><path style="opacity:1" fill="#efba00" d="M 112.5,360.5 C 112.715,362.179 112.048,363.179 110.5,363.5C 110.285,361.821 110.952,360.821 112.5,360.5 Z"/></g>
<g><path style="opacity:1" fill="#efba00" d="M 109.5,367.5 C 109.715,369.179 109.048,370.179 107.5,370.5C 107.285,368.821 107.952,367.821 109.5,367.5 Z"/></g>
</svg>
