<?xml version="1.0" encoding="UTF-8"?>
<!DOCTYPE svg PUBLIC "-//W3C//DTD SVG 1.1//EN" "http://www.w3.org/Graphics/SVG/1.1/DTD/svg11.dtd">
<svg xmlns="http://www.w3.org/2000/svg" version="1.1" width="471px" height="504px" style="shape-rendering:geometricPrecision; text-rendering:geometricPrecision; image-rendering:optimizeQuality; fill-rule:evenodd; clip-rule:evenodd" xmlns:xlink="http://www.w3.org/1999/xlink">
<g><path style="opacity:1" fill="#fefffe" d="M 211.5,44.5 C 218.175,44.3337 224.842,44.5004 231.5,45C 232.456,48.3936 232.789,51.8936 232.5,55.5C 244.807,54.4152 257.141,54.2485 269.5,55C 278.093,68.5891 289.593,79.0891 304,86.5C 304.17,92.5275 304.67,98.5275 305.5,104.5C 310.974,107.759 314.807,112.426 317,118.5C 318.072,126.797 318.739,135.13 319,143.5C 320.333,144.833 321.667,146.167 323,147.5C 326.745,155.324 330.745,162.991 335,170.5C 335.333,173.5 335.667,176.5 336,179.5C 342.604,187.072 345.104,195.905 343.5,206C 343.487,210.747 343.153,215.414 342.5,220C 345.328,223.172 348.828,225.005 353,225.5C 358.685,237.24 360.685,249.574 359,262.5C 358.5,263 358,263.5 357.5,264C 360.396,272.625 364.23,280.791 369,288.5C 369.667,295.833 369.667,303.167 369,310.5C 368.167,311.333 367.333,312.167 366.5,313C 381.382,327.92 391.215,345.754 396,366.5C 403.027,375.245 406.694,385.245 407,396.5C 412.024,409.367 411.524,422.033 405.5,434.5C 395.469,435.808 385.469,435.808 375.5,434.5C 366.525,392.541 345.858,357.541 313.5,329.5C 311.998,330.083 310.665,330.916 309.5,332C 302.918,332.81 296.418,332.643 290,331.5C 289.598,332.872 289.098,334.205 288.5,335.5C 291.117,340.518 292.617,345.852 293,351.5C 293.333,360.833 293.667,370.167 294,379.5C 294.819,384.141 296.486,388.475 299,392.5C 299.667,400.833 299.667,409.167 299,417.5C 297.2,419.317 295.034,420.484 292.5,421C 280.5,421.667 268.5,421.667 256.5,421C 251.036,420.174 245.703,418.841 240.5,417C 239.358,410.916 239.191,404.749 240,398.5C 243.872,396.319 248.039,394.819 252.5,394C 254.871,392.257 256.205,389.923 256.5,387C 254.117,379.188 250.95,371.688 247,364.5C 244.179,354.882 241.512,345.216 239,335.5C 238.333,327.167 238.333,318.833 239,310.5C 239.759,307.215 241.092,304.215 243,301.5C 243.421,297.128 244.088,292.795 245,288.5C 246.736,283.068 248.403,277.735 250,272.5C 245.758,270.085 241.258,268.251 236.5,267C 230.258,260.144 223.592,253.811 216.5,248C 209.404,247.572 202.404,246.572 195.5,245C 193.5,242.667 191.5,240.333 189.5,238C 183.34,236.92 178.007,234.253 173.5,230C 171.374,227.567 170.041,224.734 169.5,221.5C 165.25,219.794 161.417,217.461 158,214.5C 157.474,211.728 156.641,209.062 155.5,206.5C 144.076,199.789 132.41,193.622 120.5,188C 112.188,182.017 104.188,175.684 96.5,169C 76.9931,158.079 57.3264,147.412 37.5,137C 35.6217,135.457 34.1217,133.624 33,131.5C 32.5006,125.843 32.3339,120.176 32.5,114.5C 38.8421,114.334 45.1754,114.5 51.5,115C 75.5022,125.166 99.1689,136.166 122.5,148C 124.375,152.282 127.708,154.615 132.5,155C 135.137,158.817 138.804,160.484 143.5,160C 155.429,167.463 167.762,174.13 180.5,180C 185.946,184.757 192.28,187.757 199.5,189C 203.167,192.667 206.833,196.333 210.5,200C 211.448,200.483 212.448,200.649 213.5,200.5C 214.814,190.262 217.148,180.262 220.5,170.5C 216.796,164.689 214.462,158.356 213.5,151.5C 211.856,151.714 210.356,151.38 209,150.5C 208.502,147.518 208.335,144.518 208.5,141.5C 205.223,141.784 202.057,141.451 199,140.5C 198.333,134.5 198.333,128.5 199,122.5C 206.219,115.731 210.552,107.397 212,97.5C 213.353,96.3147 214.52,94.9814 215.5,93.5C 213,89.8333 210.5,86.1667 208,82.5C 206.898,78.5841 206.231,74.5841 206,70.5C 204.333,69.5 202.667,68.5 201,67.5C 200.333,61.8333 200.333,56.1667 201,50.5C 204.069,47.5545 207.569,45.5545 211.5,44.5 Z"/></g>
<g><path style="opacity:1" fill="#000000" d="M 216.5,49.5 C 220.106,49.2108 223.606,49.5442 227,50.5C 227.333,54.1667 227.667,57.8333 228,61.5C 240.063,59.7293 252.23,59.2293 264.5,60C 273.093,73.5891 284.593,84.0891 299,91.5C 299.667,94.8333 299.667,98.1667 299,101.5C 296.72,102.086 294.553,102.92 292.5,104C 310.304,112.78 316.971,126.947 312.5,146.5C 319.339,155.502 325.172,165.169 330,175.5C 329.45,181.052 331.117,185.718 335,189.5C 338.336,197.498 339.336,205.832 338,214.5C 335.795,217.04 333.295,219.207 330.5,221C 335.742,224.934 341.409,227.934 347.5,230C 351.955,238.652 354.122,247.818 354,257.5C 351.619,258.435 349.119,258.768 346.5,258.5C 346.725,263.244 348.892,266.91 353,269.5C 354.152,272.44 355.152,275.44 356,278.5C 359.103,283.269 361.769,288.269 364,293.5C 364.667,297.5 364.667,301.5 364,305.5C 362.509,307.004 360.676,307.837 358.5,308C 360.2,311.291 361.367,314.791 362,318.5C 376.592,333.342 386.259,351.009 391,371.5C 398.027,380.245 401.694,390.245 402,401.5C 405.162,406.777 406.162,412.443 405,418.5C 403.207,422.046 401.707,425.713 400.5,429.5C 393.807,430.796 387.141,430.796 380.5,429.5C 374.713,399.597 362.213,372.93 343,349.5C 333.894,339.06 324.394,329.56 314.5,321C 308.887,325.686 302.554,327.686 295.5,327C 293.714,326.215 292.214,325.049 291,323.5C 289.667,320.167 288.333,316.833 287,313.5C 286.129,321.006 284.296,328.34 281.5,335.5C 283.607,340.05 285.441,344.717 287,349.5C 288.166,361.13 288.832,372.797 289,384.5C 289.819,389.141 291.486,393.475 294,397.5C 294.667,402.5 294.667,407.5 294,412.5C 292.2,414.317 290.034,415.484 287.5,416C 273.191,417.58 259.191,416.246 245.5,412C 244.39,409.263 244.223,406.429 245,403.5C 248.872,401.319 253.039,399.819 257.5,399C 260.538,395.926 262.538,392.26 263.5,388C 259.366,375.232 254.533,362.732 249,350.5C 246.29,341.495 244.456,332.328 243.5,323C 243.178,316.972 244.678,311.472 248,306.5C 249.276,293.674 252.776,281.507 258.5,270C 253.499,266 247.832,263.334 241.5,262C 235.258,255.144 228.592,248.811 221.5,243C 214.404,242.572 207.404,241.572 200.5,240C 198.5,237.667 196.5,235.333 194.5,233C 187.722,231.552 181.889,228.385 177,223.5C 176.105,221.196 175.271,218.862 174.5,216.5C 170.25,214.794 166.417,212.461 163,209.5C 162.474,206.728 161.641,204.062 160.5,201.5C 149.076,194.789 137.41,188.622 125.5,183C 117.188,177.017 109.188,170.684 101.5,164C 81.9931,153.079 62.3264,142.412 42.5,132C 38.2051,128.907 36.5384,124.74 37.5,119.5C 40.5184,119.335 43.5184,119.502 46.5,120C 70.5022,130.166 94.1689,141.166 117.5,153C 119.375,157.282 122.708,159.615 127.5,160C 130.137,163.817 133.804,165.484 138.5,165C 150.429,172.463 162.762,179.13 175.5,185C 180.946,189.757 187.28,192.757 194.5,194C 198.5,198 202.5,202 206.5,206C 210.537,206.607 214.537,206.44 218.5,205.5C 220.903,192.464 223.403,179.464 226,166.5C 226.75,165.874 227.584,165.374 228.5,165C 226.899,164.727 225.399,164.227 224,163.5C 221.394,158.074 219.561,152.408 218.5,146.5C 216.856,146.714 215.356,146.38 214,145.5C 213.223,142.571 213.39,139.737 214.5,137C 211.167,136.667 207.833,136.333 204.5,136C 203.39,133.263 203.223,130.429 204,127.5C 211.219,120.731 215.552,112.397 217,102.5C 221.143,99.0813 222.476,94.748 221,89.5C 218.333,85.5 215.667,81.5 213,77.5C 211.898,73.5841 211.231,69.5841 211,65.5C 205.181,63.1277 204.014,59.2944 207.5,54C 210.324,51.9212 213.324,50.4212 216.5,49.5 Z"/></g>
<g><path style="opacity:1" fill="#35322e" d="M 219.5,63.5 C 217.068,62.2498 214.734,60.7498 212.5,59C 215.685,55.5286 219.019,54.6952 222.5,56.5C 222.244,59.2487 221.244,61.582 219.5,63.5 Z"/></g>
<g><path style="opacity:1" fill="#312e2b" d="M 219.5,63.5 C 221.196,63.6854 222.529,64.5187 223.5,66C 225,66.1667 226.5,66.3333 228,66.5C 238.805,65.13 249.638,64.63 260.5,65C 261.227,66.3988 261.727,67.8988 262,69.5C 266.833,74.3333 271.667,79.1667 276.5,84C 275.833,84.3333 275.167,84.6667 274.5,85C 281.298,88.5668 287.964,92.4001 294.5,96.5C 292.52,96.3035 290.52,96.9701 288.5,98.5C 286.487,97.4036 284.654,97.7369 283,99.5C 279.27,97.7761 276.103,95.2761 273.5,92C 274.5,91.6667 275.5,91.3333 276.5,91C 274.744,90.7978 273.078,90.2978 271.5,89.5C 268.135,83.9608 263.802,79.7941 258.5,77C 265.657,86.1625 273.157,94.9958 281,103.5C 287.833,108.333 294.667,113.167 301.5,118C 303.661,120.149 304.828,122.649 305,125.5C 303.921,123.606 302.587,123.273 301,124.5C 298.649,123.286 296.149,122.452 293.5,122C 290.097,117.263 285.597,114.096 280,112.5C 279.5,112.833 279,113.167 278.5,113.5C 292.851,120.205 299.851,131.538 299.5,147.5C 298.553,149.4 297.053,150.733 295,151.5C 294.667,147.167 294.333,142.833 294,138.5C 290.298,131.792 285.465,125.959 279.5,121C 278.668,120.312 278.002,120.479 277.5,121.5C 283.282,126.777 288.115,132.777 292,139.5C 292.499,143.152 292.665,146.818 292.5,150.5C 291.325,150.719 290.325,150.386 289.5,149.5C 287.318,145.136 285.151,140.802 283,136.5C 277.27,133.461 272.27,129.461 268,124.5C 264.915,119.328 261.581,114.328 258,109.5C 257.405,96.3797 253.238,84.5464 245.5,74C 236.745,67.9246 227.579,67.0913 218,71.5C 217.5,71 217,70.5 216.5,70C 217.069,67.568 218.069,65.4013 219.5,63.5 Z"/></g>
<g><path style="opacity:1" fill="#efba00" d="M 247.5,82.5 C 242.394,77.9468 236.394,74.9468 229.5,73.5C 226.235,74.0573 223.235,75.0573 220.5,76.5C 218.534,75.7455 218.2,74.5788 219.5,73C 231.375,68.5498 241.042,71.3831 248.5,81.5C 248.376,82.1067 248.043,82.44 247.5,82.5 Z"/></g>
<g><path style="opacity:1" fill="#000000" d="M 247.5,82.5 C 241.788,79.3132 235.788,76.6465 229.5,74.5C 226.601,75.6416 223.601,76.3083 220.5,76.5C 223.235,75.0573 226.235,74.0573 229.5,73.5C 236.394,74.9468 242.394,77.9468 247.5,82.5 Z"/></g>
<g><path style="opacity:1" fill="#efba00" d="M 247.5,82.5 C 254.157,93.0786 257.157,104.745 256.5,117.5C 249.445,117.73 242.445,117.23 235.5,116C 225.335,112.993 222.668,106.826 227.5,97.5C 236.436,93.1885 243.936,95.1885 250,103.5C 251.562,105.957 252.562,108.624 253,111.5C 252.057,101.876 246.724,95.876 237,93.5C 233.592,94.3506 230.259,95.3506 227,96.5C 226.383,95.5509 226.549,94.7175 227.5,94C 230.554,91.792 233.887,90.792 237.5,91C 244.046,93.0182 249.213,96.8515 253,102.5C 251.316,96.8146 247.482,92.9813 241.5,91C 236.682,88.7202 232.182,89.2202 228,92.5C 226.833,86.5005 224.333,81.1671 220.5,76.5C 223.601,76.3083 226.601,75.6416 229.5,74.5C 235.788,76.6465 241.788,79.3132 247.5,82.5 Z"/></g>
<g><path style="opacity:1" fill="#000000" d="M 224.5,77.5 C 227.415,80.6632 229.248,84.3299 230,88.5C 227.628,85.0901 225.795,81.4234 224.5,77.5 Z"/></g>
<g><path style="opacity:1" fill="#c48849" d="M 229.5,116.5 C 228.5,116.833 227.833,117.5 227.5,118.5C 226.488,119.872 225.488,121.205 224.5,122.5C 223.732,123.263 223.232,124.263 223,125.5C 221.535,124.631 220.369,125.131 219.5,127C 221.132,129.859 222.798,130.026 224.5,127.5C 225.167,127.5 225.5,127.833 225.5,128.5C 223.71,130.931 221.21,132.264 218,132.5C 215.815,131.242 213.648,131.242 211.5,132.5C 209.855,131.964 209.522,131.297 210.5,130.5C 213.626,129.762 214.96,128.095 214.5,125.5C 215.475,123.205 216.808,121.205 218.5,119.5C 219.497,120.713 220.497,120.546 221.5,119C 220.934,118.005 220.267,117.172 219.5,116.5C 220.016,113.101 220.85,109.768 222,106.5C 223.185,108.377 224.185,110.377 225,112.5C 226.667,113.733 228.167,115.067 229.5,116.5 Z"/></g>
<g><path style="opacity:1" fill="#c58c4b" d="M 263.5,121.5 C 258.782,122.319 258.448,123.986 262.5,126.5C 263.919,125.995 264.585,124.995 264.5,123.5C 267.446,125.77 267.113,127.604 263.5,129C 260.789,127.504 257.789,126.838 254.5,127C 250.544,128.118 248.211,130.618 247.5,134.5C 244.159,134.656 241.326,135.989 239,138.5C 236.638,134.973 233.804,131.973 230.5,129.5C 233.489,126.281 233.823,122.947 231.5,119.5C 231.5,118.833 231.5,118.167 231.5,117.5C 233.806,117.993 236.139,118.326 238.5,118.5C 239.15,120.435 239.483,122.435 239.5,124.5C 243.284,124.475 244.284,122.808 242.5,119.5C 247.511,119.666 252.511,119.499 257.5,119C 258.227,117.601 258.727,116.101 259,114.5C 260.511,116.862 262.011,119.195 263.5,121.5 Z"/></g>
<g><path style="opacity:1" fill="#870014" d="M 219.5,116.5 C 220.267,117.172 220.934,118.005 221.5,119C 220.497,120.546 219.497,120.713 218.5,119.5C 216.871,117.804 217.204,116.804 219.5,116.5 Z"/></g>
<g><path style="opacity:1" fill="#560f10" d="M 229.5,116.5 C 230.492,116.328 231.158,116.662 231.5,117.5C 231.5,118.167 231.5,118.833 231.5,119.5C 230.167,119.167 228.833,118.833 227.5,118.5C 227.833,117.5 228.5,116.833 229.5,116.5 Z"/></g>
<g><path style="opacity:1" fill="#d6d8ae" d="M 227.5,118.5 C 228.833,118.833 230.167,119.167 231.5,119.5C 233.823,122.947 233.489,126.281 230.5,129.5C 228.708,129.634 227.042,129.301 225.5,128.5C 225.5,127.833 225.167,127.5 224.5,127.5C 224.5,125.833 224.5,124.167 224.5,122.5C 225.488,121.205 226.488,119.872 227.5,118.5 Z"/></g>
<g><path style="opacity:1" fill="#870014" d="M 238.5,118.5 C 239.833,118.833 241.167,119.167 242.5,119.5C 244.284,122.808 243.284,124.475 239.5,124.5C 239.483,122.435 239.15,120.435 238.5,118.5 Z"/></g>
<g><path style="opacity:1" fill="#870014" d="M 253.5,120.5 C 254.239,120.369 254.906,120.536 255.5,121C 255.012,123.176 254.012,125.009 252.5,126.5C 251.911,124.519 252.245,122.519 253.5,120.5 Z"/></g>
<g><path style="opacity:1" fill="#870014" d="M 263.5,121.5 C 263.833,122.167 264.167,122.833 264.5,123.5C 264.585,124.995 263.919,125.995 262.5,126.5C 258.448,123.986 258.782,122.319 263.5,121.5 Z"/></g>
<g><path style="opacity:1" fill="#7d7d7d" d="M 40.5,123.5 C 41.2506,122.427 42.2506,122.26 43.5,123C 64.9954,132.746 86.3287,143.079 107.5,154C 111.619,157.752 110.952,159.752 105.5,160C 84.8649,149.015 64.1982,138.015 43.5,127C 42.3636,125.855 41.3636,124.688 40.5,123.5 Z"/></g>
<g><path style="opacity:1" fill="#6c0b12" d="M 224.5,122.5 C 224.5,124.167 224.5,125.833 224.5,127.5C 222.798,130.026 221.132,129.859 219.5,127C 220.369,125.131 221.535,124.631 223,125.5C 223.232,124.263 223.732,123.263 224.5,122.5 Z"/></g>
<g><path style="opacity:1" fill="#333dbd" d="M 304.5,148.5 C 303.504,148.414 302.671,148.748 302,149.5C 301.073,143.484 300.073,137.484 299,131.5C 298.464,129.131 297.297,127.131 295.5,125.5C 300.991,126.088 305.158,129.088 308,134.5C 308.667,136.833 308.667,139.167 308,141.5C 306.121,143.527 304.954,145.86 304.5,148.5 Z"/></g>
<g><path style="opacity:1" fill="#870014" d="M 214.5,125.5 C 214.96,128.095 213.626,129.762 210.5,130.5C 211.124,128.246 212.457,126.579 214.5,125.5 Z"/></g>
<g><path style="opacity:1" fill="#870014" d="M 241.5,126.5 C 242.5,126.5 243.5,126.5 244.5,126.5C 245.093,129.596 244.093,131.929 241.5,133.5C 238.962,131.26 238.962,128.927 241.5,126.5 Z"/></g>
<g><path style="opacity:1" fill="#fefffe" d="M 255.5,128.5 C 258.193,129.02 260.193,130.52 261.5,133C 271.6,134.184 275.933,139.851 274.5,150C 274.618,153.027 274.118,155.861 273,158.5C 275.001,142.891 268.501,134.058 253.5,132C 252.457,133.976 251.123,134.476 249.5,133.5C 251.162,131.348 253.162,129.682 255.5,128.5 Z"/></g>
<g><path style="opacity:1" fill="#333dbd" d="M 267.5,128.5 C 271.685,131.852 276.185,134.852 281,137.5C 283.151,141.802 285.318,146.136 287.5,150.5C 284.411,153.131 280.911,155.131 277,156.5C 276.862,150.419 276.196,144.419 275,138.5C 272.369,134.921 268.869,132.421 264.5,131C 265.571,130.148 266.571,129.315 267.5,128.5 Z"/></g>
<g><path style="opacity:1" fill="#d6d8ae" d="M 226.5,130.5 C 227.675,130.281 228.675,130.614 229.5,131.5C 227.948,132.798 226.948,132.465 226.5,130.5 Z"/></g>
<g><path style="opacity:1" fill="#d6d8ae" d="M 225.5,133.5 C 226.833,133.5 228.167,133.5 229.5,133.5C 229.5,134.833 229.5,136.167 229.5,137.5C 228.167,137.5 226.833,137.5 225.5,137.5C 225.5,136.167 225.5,134.833 225.5,133.5 Z"/></g>
<g><path style="opacity:1" fill="#333dbd" d="M 254.5,133.5 C 256.92,135.92 259.92,137.087 263.5,137C 269.873,142.75 272.207,149.917 270.5,158.5C 267.989,158.838 265.655,158.838 263.5,158.5C 267.041,151.158 266.041,144.658 260.5,139C 258.004,137.92 255.67,136.586 253.5,135C 254.056,134.617 254.389,134.117 254.5,133.5 Z"/></g>
<g><path style="opacity:1" fill="#d3ab9c" d="M 225.5,133.5 C 224.167,137.167 224.167,140.833 225.5,144.5C 225.216,146.415 225.549,148.081 226.5,149.5C 226.216,151.415 226.549,153.081 227.5,154.5C 227.232,156.099 227.566,157.432 228.5,158.5C 228.719,159.675 228.386,160.675 227.5,161.5C 224.578,156.167 222.412,150.5 221,144.5C 219.644,143.62 218.144,143.286 216.5,143.5C 217.548,138.767 220.215,135.1 224.5,132.5C 225.107,132.624 225.44,132.957 225.5,133.5 Z"/></g>
<g><path style="opacity:1" fill="#333dbd" d="M 244.5,136.5 C 252.288,136.111 258.454,139.111 263,145.5C 264.884,156.061 261.05,163.395 251.5,167.5C 245.062,166.57 240.895,162.903 239,156.5C 235.66,148.321 238.16,142.654 246.5,139.5C 258.43,142.52 261.43,149.353 255.5,160C 252.783,162.076 249.783,162.743 246.5,162C 242.704,157.955 241.871,153.455 244,148.5C 247.145,144.936 250.145,144.936 253,148.5C 253.93,151.974 252.763,154.307 249.5,155.5C 245.725,153.34 246.058,151.507 250.5,150C 246.148,149.521 244.815,151.355 246.5,155.5C 253.186,157.224 255.686,154.558 254,147.5C 251.261,144.253 248.094,143.753 244.5,146C 240.558,151.49 240.724,156.99 245,162.5C 251.442,164.612 256.109,162.612 259,156.5C 261.368,146.027 257.202,140.027 246.5,138.5C 239.941,141.285 239.274,140.618 244.5,136.5 Z"/></g>
<g><path style="opacity:1" fill="#d6d8ae" d="M 225.5,138.5 C 226.833,138.5 228.167,138.5 229.5,138.5C 229.5,139.833 229.5,141.167 229.5,142.5C 228.167,142.5 226.833,142.5 225.5,142.5C 225.5,141.167 225.5,139.833 225.5,138.5 Z"/></g>
<g><path style="opacity:1" fill="#d6d8ae" d="M 225.5,144.5 C 226.919,143.549 228.585,143.216 230.5,143.5C 230.5,144.5 230.5,145.5 230.5,146.5C 228.446,146.635 226.779,145.968 225.5,144.5 Z"/></g>
<g><path style="opacity:1" fill="#d5afa0" d="M 232.5,157.5 C 232.122,155.354 231.788,153.187 231.5,151C 231.675,149.342 232.342,148.009 233.5,147C 231.258,144.881 230.925,142.381 232.5,139.5C 230.894,137.41 230.394,135.076 231,132.5C 232.385,133.551 233.385,134.884 234,136.5C 234.58,142.887 235.413,149.221 236.5,155.5C 235.68,157.111 234.346,157.778 232.5,157.5 Z"/></g>
<g><path style="opacity:1" fill="#d6d8ae" d="M 226.5,149.5 C 227.183,147.824 228.517,147.157 230.5,147.5C 230.5,148.5 230.5,149.5 230.5,150.5C 229.041,150.567 227.708,150.234 226.5,149.5 Z"/></g>
<g><path style="opacity:1" fill="#dcdcd2" d="M 304.5,149.5 C 304.5,149.167 304.5,148.833 304.5,148.5C 308.912,149.07 312.078,151.403 314,155.5C 318.255,163.009 322.255,170.676 326,178.5C 326.333,180.833 326.667,183.167 327,185.5C 333.074,193.126 335.407,201.793 334,211.5C 331.463,214.372 328.63,216.872 325.5,219C 324.563,219.692 323.897,219.525 323.5,218.5C 326.516,215.48 329.183,212.146 331.5,208.5C 332.905,206.775 333.405,204.775 333,202.5C 331.599,204.192 329.766,204.859 327.5,204.5C 327.068,203.29 326.401,202.29 325.5,201.5C 326.552,199.744 328.219,199.077 330.5,199.5C 330.663,197.143 330.497,194.81 330,192.5C 329.505,194.473 329.338,196.473 329.5,198.5C 327.708,198.634 326.042,198.301 324.5,197.5C 323.833,195.833 323.167,194.167 322.5,192.5C 323.467,191.194 324.801,190.527 326.5,190.5C 326.768,188.901 326.434,187.568 325.5,186.5C 324.833,185.833 324.167,185.167 323.5,184.5C 323.122,182.079 322.455,179.746 321.5,177.5C 321.539,176.417 321.873,175.417 322.5,174.5C 318.463,166.253 313.796,158.42 308.5,151C 307.255,150.209 305.922,149.709 304.5,149.5 Z"/></g>
<g><path style="opacity:1" fill="#732701" d="M 304.5,149.5 C 305.922,149.709 307.255,150.209 308.5,151C 313.796,158.42 318.463,166.253 322.5,174.5C 321.873,175.417 321.539,176.417 321.5,177.5C 320.134,175.649 318.467,175.316 316.5,176.5C 317.513,178.527 318.513,180.527 319.5,182.5C 317.5,183.167 315.5,183.833 313.5,184.5C 307.608,174.389 301.941,164.056 296.5,153.5C 299.284,152.29 301.951,150.957 304.5,149.5 Z"/></g>
<g><path style="opacity:1" fill="#d6d8ae" d="M 227.5,154.5 C 227.5,153.5 227.5,152.5 227.5,151.5C 228.5,151.5 229.5,151.5 230.5,151.5C 230.5,152.5 230.5,153.5 230.5,154.5C 229.5,154.5 228.5,154.5 227.5,154.5 Z"/></g>
<g><path style="opacity:1" fill="#ecede1" d="M 288.5,153.5 C 289.601,152.402 290.934,152.235 292.5,153C 300.608,164.716 306.941,177.216 311.5,190.5C 311.744,193.263 313.077,195.429 315.5,197C 314.207,197.49 312.873,197.657 311.5,197.5C 308.991,195.673 307.324,193.173 306.5,190C 303.881,190.083 301.214,190.25 298.5,190.5C 300.944,188.928 303.61,187.428 306.5,186C 303.372,181.625 301.206,176.792 300,171.5C 296.479,166.458 293.479,161.125 291,155.5C 290.292,154.619 289.458,153.953 288.5,153.5 Z"/></g>
<g><path style="opacity:1" fill="#752701" d="M 288.5,153.5 C 289.458,153.953 290.292,154.619 291,155.5C 293.479,161.125 296.479,166.458 300,171.5C 301.206,176.792 303.372,181.625 306.5,186C 303.61,187.428 300.944,188.928 298.5,190.5C 297.122,187.58 295.455,184.746 293.5,182C 292.4,181.568 291.733,182.068 291.5,183.5C 291.846,184.849 292.179,186.183 292.5,187.5C 292.539,188.756 292.039,189.756 291,190.5C 285.041,180.749 279.207,170.916 273.5,161C 278.451,158.405 283.451,155.905 288.5,153.5 Z"/></g>
<g><path style="opacity:1" fill="#bfc09b" d="M 232.5,157.5 C 232.833,158.167 233.167,158.833 233.5,159.5C 233.158,160.338 232.492,160.672 231.5,160.5C 230.222,160.218 229.222,159.551 228.5,158.5C 228.5,157.5 228.5,156.5 228.5,155.5C 230.199,155.527 231.533,156.194 232.5,157.5 Z"/></g>
<g><path style="opacity:1" fill="#7e7f7e" d="M 112.5,157.5 C 114.334,161.285 117.334,163.952 121.5,165.5C 120.764,167.541 119.931,169.541 119,171.5C 114.549,168.717 110.383,165.55 106.5,162C 109.464,161.694 111.464,160.194 112.5,157.5 Z"/></g>
<g><path style="opacity:1" fill="#ec1c23" d="M 231.5,160.5 C 232.492,160.672 233.158,160.338 233.5,159.5C 235.201,159.034 236.701,159.034 238,159.5C 238.85,161.01 239.683,162.51 240.5,164C 239.499,166.502 237.833,167.002 235.5,165.5C 234.143,163.814 232.81,162.148 231.5,160.5 Z"/></g>
<g><path style="opacity:1" fill="#e9e9de" d="M 292.5,187.5 C 292.179,186.183 291.846,184.849 291.5,183.5C 291.733,182.068 292.4,181.568 293.5,182C 295.455,184.746 297.122,187.58 298.5,190.5C 300.31,193.93 299.643,196.597 296.5,198.5C 294.787,197.365 294.12,195.698 294.5,193.5C 291.939,193.447 289.939,194.447 288.5,196.5C 291.55,201.932 294.05,207.598 296,213.5C 296.301,216.507 296.135,219.507 295.5,222.5C 289.487,230.386 283.32,230.386 277,222.5C 273.321,216.148 270.488,209.481 268.5,202.5C 264.108,194.046 259.941,185.38 256,176.5C 254.609,167.393 258.443,162.06 267.5,160.5C 268.938,160.719 270.271,161.219 271.5,162C 276.968,171.631 282.634,181.131 288.5,190.5C 289.723,191.614 291.056,191.781 292.5,191C 293.791,189.708 293.791,188.542 292.5,187.5 Z"/></g>
<g><path style="opacity:1" fill="#682403" d="M 261.5,162.5 C 264.32,162.248 266.986,162.748 269.5,164C 271.849,167.531 273.515,171.365 274.5,175.5C 274.471,177.029 273.804,178.196 272.5,179C 268.833,180.833 265.167,182.667 261.5,184.5C 259.055,180.835 257.389,176.835 256.5,172.5C 257.324,168.695 258.991,165.362 261.5,162.5 Z"/></g>
<g><path style="opacity:1" fill="#fec90d" d="M 123.5,165.5 C 124.745,168.067 126.412,170.401 128.5,172.5C 130.071,170.585 132.071,169.585 134.5,169.5C 133.887,173.393 132.22,176.726 129.5,179.5C 126.19,177.854 123.523,175.52 121.5,172.5C 122.173,170.149 122.84,167.816 123.5,165.5 Z"/></g>
<g><path style="opacity:1" fill="#ec1c23" d="M 240.5,166.5 C 241.239,166.369 241.906,166.536 242.5,167C 241.167,169 239.833,171 238.5,173C 235.46,175.155 232.627,174.988 230,172.5C 229.383,171.551 229.549,170.718 230.5,170C 233.776,168.308 237.109,167.141 240.5,166.5 Z"/></g>
<g><path style="opacity:1" fill="#5d5d5d" d="M 168.5,192.5 C 157.908,187.227 147.575,181.56 137.5,175.5C 137.082,174.778 136.416,174.278 135.5,174C 136.126,173.25 136.626,172.416 137,171.5C 147.419,177.626 157.919,183.626 168.5,189.5C 169.776,190.614 169.776,191.614 168.5,192.5 Z"/></g>
<g><path style="opacity:1" fill="#4d7347" d="M 267.5,209.5 C 265.007,210.797 262.34,211.797 259.5,212.5C 257.667,211.948 256,211.115 254.5,210C 266.591,204.274 265.925,203.107 252.5,206.5C 254.417,202.762 254.917,198.762 254,194.5C 253.817,197.365 253.317,200.031 252.5,202.5C 251.763,200.695 250.763,199.029 249.5,197.5C 248.522,197.977 247.689,198.643 247,199.5C 240.454,210.089 234.287,220.923 228.5,232C 226.365,232.635 224.365,232.301 222.5,231C 219.238,228.408 216.738,225.241 215,221.5C 214.333,223.5 214.333,225.5 215,227.5C 217.121,230.747 218.954,234.081 220.5,237.5C 215.424,237.87 211.424,236.036 208.5,232C 209.931,231.535 211.097,230.701 212,229.5C 212.667,226.833 212.667,224.167 212,221.5C 210.601,220.773 209.101,220.273 207.5,220C 211.501,214.906 216.667,211.406 223,209.5C 225.186,198.402 227.686,187.402 230.5,176.5C 235.639,177.261 239.973,175.761 243.5,172C 242.631,170.535 243.131,169.369 245,168.5C 247.77,169.348 250.603,169.681 253.5,169.5C 253.263,173.273 253.763,176.94 255,180.5C 259.868,189.961 264.035,199.627 267.5,209.5 Z"/></g>
<g><path style="opacity:1" fill="#b77856" d="M 137.5,175.5 C 147.575,181.56 157.908,187.227 168.5,192.5C 167.766,193.708 167.433,195.041 167.5,196.5C 167.672,197.492 167.338,198.158 166.5,198.5C 154.801,192.96 143.468,186.793 132.5,180C 133.411,177.585 135.078,176.085 137.5,175.5 Z"/></g>
<g><path style="opacity:1" fill="#deded4" d="M 321.5,177.5 C 322.455,179.746 323.122,182.079 323.5,184.5C 322.5,184.5 321.5,184.5 320.5,184.5C 319.662,184.158 319.328,183.492 319.5,182.5C 318.513,180.527 317.513,178.527 316.5,176.5C 318.467,175.316 320.134,175.649 321.5,177.5 Z"/></g>
<g><path style="opacity:1" fill="#702602" d="M 268.5,202.5 C 266.901,197.376 264.901,192.376 262.5,187.5C 266.399,183.404 271.066,180.904 276.5,180C 282.968,190.456 288.468,201.956 293,214.5C 293.667,216.5 293.667,218.5 293,220.5C 288.154,227.491 283.154,227.825 278,221.5C 274.787,215.075 271.621,208.741 268.5,202.5 Z"/></g>
<g><path style="opacity:1" fill="#ecede1" d="M 319.5,182.5 C 319.328,183.492 319.662,184.158 320.5,184.5C 319.087,185.935 317.42,186.935 315.5,187.5C 311.627,187.666 310.96,186.666 313.5,184.5C 315.5,183.833 317.5,183.167 319.5,182.5 Z"/></g>
<g><path style="opacity:1" fill="#000000" d="M 320.5,184.5 C 321.5,184.5 322.5,184.5 323.5,184.5C 322.306,185.272 321.306,186.272 320.5,187.5C 318.833,187.5 317.167,187.5 315.5,187.5C 317.42,186.935 319.087,185.935 320.5,184.5 Z"/></g>
<g><path style="opacity:1" fill="#ecede1" d="M 323.5,184.5 C 324.167,185.167 324.833,185.833 325.5,186.5C 325.5,187.5 325.5,188.5 325.5,189.5C 324.5,189.5 323.5,189.5 322.5,189.5C 322.167,188.5 321.5,187.833 320.5,187.5C 321.306,186.272 322.306,185.272 323.5,184.5 Z"/></g>
<g><path style="opacity:1" fill="#000000" d="M 325.5,186.5 C 326.434,187.568 326.768,188.901 326.5,190.5C 324.801,190.527 323.467,191.194 322.5,192.5C 322.5,191.5 322.5,190.5 322.5,189.5C 323.5,189.5 324.5,189.5 325.5,189.5C 325.5,188.5 325.5,187.5 325.5,186.5 Z"/></g>
<g><path style="opacity:1" fill="#6b2502" d="M 315.5,187.5 C 317.167,187.5 318.833,187.5 320.5,187.5C 321.5,187.833 322.167,188.5 322.5,189.5C 322.5,190.5 322.5,191.5 322.5,192.5C 323.167,194.167 323.833,195.833 324.5,197.5C 324.232,199.099 324.566,200.432 325.5,201.5C 326.401,202.29 327.068,203.29 327.5,204.5C 328.568,205.434 329.901,205.768 331.5,205.5C 331.5,206.5 331.5,207.5 331.5,208.5C 329.183,212.146 326.516,215.48 323.5,218.5C 321.523,220.188 319.523,220.521 317.5,219.5C 319.151,214.96 319.651,210.293 319,205.5C 317.592,201.589 315.092,198.922 311.5,197.5C 312.873,197.657 314.207,197.49 315.5,197C 313.077,195.429 311.744,193.263 311.5,190.5C 312.448,189.022 313.781,188.022 315.5,187.5 Z"/></g>
<g><path style="opacity:1" fill="#fec90d" d="M 172.5,192.5 C 171.596,193.209 171.263,194.209 171.5,195.5C 170.11,196.899 169.11,198.566 168.5,200.5C 166.797,201.66 166.131,200.993 166.5,198.5C 167.338,198.158 167.672,197.492 167.5,196.5C 169.694,194.779 170.861,192.445 171,189.5C 172.039,190.244 172.539,191.244 172.5,192.5 Z"/></g>
<g><path style="opacity:1" fill="#662403" d="M 311.5,197.5 C 310.957,197.56 310.624,197.893 310.5,198.5C 319.141,207.983 318.475,216.65 308.5,224.5C 306.5,224.5 304.5,224.5 302.5,224.5C 301.167,224.5 299.833,224.5 298.5,224.5C 296.821,224.715 295.821,224.048 295.5,222.5C 296.135,219.507 296.301,216.507 296,213.5C 294.05,207.598 291.55,201.932 288.5,196.5C 289.939,194.447 291.939,193.447 294.5,193.5C 294.12,195.698 294.787,197.365 296.5,198.5C 299.643,196.597 300.31,193.93 298.5,190.5C 301.214,190.25 303.881,190.083 306.5,190C 307.324,193.173 308.991,195.673 311.5,197.5 Z"/></g>
<g><path style="opacity:1" fill="#4e4e4e" d="M 179.5,197.5 C 179.672,198.492 179.338,199.158 178.5,199.5C 177.011,196.284 174.678,194.951 171.5,195.5C 171.263,194.209 171.596,193.209 172.5,192.5C 173.117,192.389 173.617,192.056 174,191.5C 175.242,192.872 176.742,193.872 178.5,194.5C 179.386,195.325 179.719,196.325 179.5,197.5 Z"/></g>
<g><path style="opacity:1" fill="#000000" d="M 294.5,193.5 C 294.517,191.972 295.184,191.472 296.5,192C 295.956,192.717 295.289,193.217 294.5,193.5 Z"/></g>
<g><path style="opacity:1" fill="#000000" d="M 325.5,201.5 C 324.566,200.432 324.232,199.099 324.5,197.5C 326.042,198.301 327.708,198.634 329.5,198.5C 329.338,196.473 329.505,194.473 330,192.5C 330.497,194.81 330.663,197.143 330.5,199.5C 328.219,199.077 326.552,199.744 325.5,201.5 Z"/></g>
<g><path style="opacity:1" fill="#9a6649" d="M 178.5,199.5 C 177.89,201.434 176.89,203.101 175.5,204.5C 173.125,203.098 170.791,201.765 168.5,200.5C 169.11,198.566 170.11,196.899 171.5,195.5C 174.678,194.951 177.011,196.284 178.5,199.5 Z"/></g>
<g><path style="opacity:1" fill="#fec90d" d="M 181.5,200.5 C 180.197,202.142 178.864,203.809 177.5,205.5C 176.508,205.672 175.842,205.338 175.5,204.5C 176.89,203.101 177.89,201.434 178.5,199.5C 179.338,199.158 179.672,198.492 179.5,197.5C 182.261,196.65 182.928,197.65 181.5,200.5 Z"/></g>
<g><path style="opacity:1" fill="#d7b1a1" d="M 185.5,197.5 C 191.764,200.24 197.098,204.407 201.5,210C 199.383,211.731 197.883,213.898 197,216.5C 196.667,220.167 196.333,223.833 196,227.5C 189.972,225.656 184.972,222.323 181,217.5C 180.333,216.167 180.333,214.833 181,213.5C 181.414,213.957 181.914,214.291 182.5,214.5C 186.756,211.014 188.423,206.681 187.5,201.5C 184.841,200.898 184.174,199.565 185.5,197.5 Z"/></g>
<g><path style="opacity:1" fill="#424b3b" d="M 252.5,202.5 C 244.527,212.452 239.194,223.785 236.5,236.5C 231.23,237.451 225.897,237.785 220.5,237.5C 218.954,234.081 217.121,230.747 215,227.5C 214.333,225.5 214.333,223.5 215,221.5C 216.738,225.241 219.238,228.408 222.5,231C 224.365,232.301 226.365,232.635 228.5,232C 234.287,220.923 240.454,210.089 247,199.5C 247.689,198.643 248.522,197.977 249.5,197.5C 250.763,199.029 251.763,200.695 252.5,202.5 Z"/></g>
<g><path style="opacity:1" fill="#ecede1" d="M 296.5,198.5 C 299.326,198.998 301.66,200.331 303.5,202.5C 302.221,203.968 300.554,204.635 298.5,204.5C 297.544,203.341 296.544,202.174 295.5,201C 295.743,200.098 296.077,199.265 296.5,198.5 Z"/></g>
<g><path style="opacity:1" fill="#a76e4f" d="M 181.5,200.5 C 183.358,201.595 185.025,202.929 186.5,204.5C 184.166,212.144 181.166,212.477 177.5,205.5C 178.864,203.809 180.197,202.142 181.5,200.5 Z"/></g>
<g><path style="opacity:1" fill="#ecede1" d="M 167.5,202.5 C 172.928,204.393 177.594,207.559 181.5,212C 177.203,211.866 173.203,210.533 169.5,208C 167.845,206.556 167.178,204.722 167.5,202.5 Z"/></g>
<g><path style="opacity:1" fill="#000000" d="M 303.5,202.5 C 303.5,203.5 303.5,204.5 303.5,205.5C 302.167,205.5 300.833,205.5 299.5,205.5C 299.5,206.5 299.5,207.5 299.5,208.5C 298.566,207.432 298.232,206.099 298.5,204.5C 300.554,204.635 302.221,203.968 303.5,202.5 Z"/></g>
<g><path style="opacity:1" fill="#000000" d="M 331.5,208.5 C 331.5,207.5 331.5,206.5 331.5,205.5C 329.901,205.768 328.568,205.434 327.5,204.5C 329.766,204.859 331.599,204.192 333,202.5C 333.405,204.775 332.905,206.775 331.5,208.5 Z"/></g>
<g><path style="opacity:1" fill="#404739" d="M 267.5,209.5 C 270.326,211.203 270.659,213.036 268.5,215C 271.595,215.818 273.595,217.818 274.5,221C 264.816,220.437 256.149,217.103 248.5,211C 250.041,209.629 251.375,208.129 252.5,206.5C 265.925,203.107 266.591,204.274 254.5,210C 256,211.115 257.667,211.948 259.5,212.5C 262.34,211.797 265.007,210.797 267.5,209.5 Z"/></g>
<g><path style="opacity:1" fill="#ecede1" d="M 303.5,205.5 C 304.73,207.297 305.396,209.297 305.5,211.5C 302.911,211.539 300.911,210.539 299.5,208.5C 299.5,207.5 299.5,206.5 299.5,205.5C 300.833,205.5 302.167,205.5 303.5,205.5 Z"/></g>
<g><path style="opacity:1" fill="#ec1c23" d="M 204.5,219.5 C 203.07,218.463 201.403,217.796 199.5,217.5C 199.84,215.321 200.84,213.488 202.5,212C 205.833,211.333 209.167,211.333 212.5,212C 209.308,214.028 206.641,216.528 204.5,219.5 Z"/></g>
<g><path style="opacity:1" fill="#ecede1" d="M 247.5,213.5 C 256.649,219.386 266.649,223.219 277.5,225C 281.568,228.179 280.902,229.179 275.5,228C 267.09,226.53 259.09,223.863 251.5,220C 249.833,218.333 248.167,216.667 246.5,215C 247.056,214.617 247.389,214.117 247.5,213.5 Z"/></g>
<g><path style="opacity:1" fill="#a7201c" d="M 199.5,217.5 C 201.403,217.796 203.07,218.463 204.5,219.5C 206.418,220.868 208.585,221.868 211,222.5C 212.168,225.893 211.334,228.559 208.5,230.5C 207.537,230.03 207.537,229.363 208.5,228.5C 208.281,223.371 207.614,223.371 206.5,228.5C 205.833,227.5 205.167,226.5 204.5,225.5C 204.598,222.752 203.598,222.086 201.5,223.5C 200.833,222.833 200.167,222.167 199.5,221.5C 198.314,220.039 198.314,218.705 199.5,217.5 Z"/></g>
<g><path style="opacity:1" fill="#4e7648" d="M 245.5,217.5 C 249.451,220.482 253.785,222.982 258.5,225C 266.806,227.494 275.14,229.494 283.5,231C 279.942,232.362 276.442,233.862 273,235.5C 261.73,232.952 252.23,227.452 244.5,219C 245.056,218.617 245.389,218.117 245.5,217.5 Z"/></g>
<g><path style="opacity:1" fill="#000000" d="M 199.5,221.5 C 200.167,222.167 200.833,222.833 201.5,223.5C 201.5,224.5 201.5,225.5 201.5,226.5C 200.833,225.833 200.167,225.167 199.5,224.5C 199.5,223.5 199.5,222.5 199.5,221.5 Z"/></g>
<g><path style="opacity:1" fill="#ecede1" d="M 243.5,221.5 C 251.391,228.616 260.391,233.949 270.5,237.5C 269.029,240.136 267.363,242.636 265.5,245C 264.5,245.667 263.5,245.667 262.5,245C 255.088,240.259 248.255,234.759 242,228.5C 242.157,226.169 242.657,223.836 243.5,221.5 Z"/></g>
<g><path style="opacity:1" fill="#ddddd3" d="M 311.5,197.5 C 315.092,198.922 317.592,201.589 319,205.5C 319.651,210.293 319.151,214.96 317.5,219.5C 316.957,219.56 316.624,219.893 316.5,220.5C 320.964,223.57 325.631,226.403 330.5,229C 329.584,229.278 328.918,229.778 328.5,230.5C 329.183,232.176 330.517,232.843 332.5,232.5C 333.222,232.082 333.722,231.416 334,230.5C 334.833,231.333 335.667,232.167 336.5,233C 332.742,234.923 329.409,237.423 326.5,240.5C 325.575,239.643 324.908,238.643 324.5,237.5C 324.715,235.821 324.048,234.821 322.5,234.5C 317.55,231.547 312.883,228.214 308.5,224.5C 318.475,216.65 319.141,207.983 310.5,198.5C 310.624,197.893 310.957,197.56 311.5,197.5 Z"/></g>
<g><path style="opacity:1" fill="#efba00" d="M 204.5,225.5 C 203.609,226.11 202.609,226.443 201.5,226.5C 201.5,225.5 201.5,224.5 201.5,223.5C 203.598,222.086 204.598,222.752 204.5,225.5 Z"/></g>
<g><path style="opacity:1" fill="#c91f20" d="M 199.5,224.5 C 200.167,225.167 200.833,225.833 201.5,226.5C 202.609,226.443 203.609,226.11 204.5,225.5C 205.167,226.5 205.833,227.5 206.5,228.5C 206.158,229.338 205.492,229.672 204.5,229.5C 203.048,228.698 201.382,228.198 199.5,228C 198.316,226.855 198.316,225.688 199.5,224.5 Z"/></g>
<g><path style="opacity:1" fill="#efba00" d="M 208.5,228.5 C 207.833,228.5 207.167,228.5 206.5,228.5C 207.614,223.371 208.281,223.371 208.5,228.5 Z"/></g>
<g><path style="opacity:1" fill="#ecede1" d="M 298.5,224.5 C 299.833,224.5 301.167,224.5 302.5,224.5C 301.078,229.178 298.744,233.345 295.5,237C 289.936,240.07 284.269,242.903 278.5,245.5C 276.631,242.948 274.631,240.448 272.5,238C 282.071,234.993 290.738,230.493 298.5,224.5 Z"/></g>
<g><path style="opacity:1" fill="#4e7548" d="M 306.5,291.5 C 306.5,290.833 306.833,290.5 307.5,290.5C 308.497,290.53 309.164,290.03 309.5,289C 308.377,286.061 306.711,283.561 304.5,281.5C 303.833,281.5 303.5,281.167 303.5,280.5C 302.483,274.175 302.316,267.842 303,261.5C 295.834,254.546 294.167,246.546 298,237.5C 300.671,234.163 302.837,230.496 304.5,226.5C 305.325,225.614 306.325,225.281 307.5,225.5C 307.567,227.401 307.233,229.234 306.5,231C 308.511,237.72 310.011,244.553 311,251.5C 312.791,267.181 313.624,282.848 313.5,298.5C 310.659,296.914 307.993,295.08 305.5,293C 306.056,292.617 306.389,292.117 306.5,291.5 Z"/></g>
<g><path style="opacity:1" fill="#ec1c23" d="M 204.5,229.5 C 206.101,231.422 207.435,233.589 208.5,236C 207.092,236.315 205.759,235.982 204.5,235C 203.167,233.333 201.833,231.667 200.5,230C 201.793,229.51 203.127,229.343 204.5,229.5 Z"/></g>
<g><path style="opacity:1" fill="#6f452d" d="M 240.5,230.5 C 243.003,232.833 245.669,234.999 248.5,237C 246.979,240.644 246.145,244.477 246,248.5C 241.559,246.058 237.393,243.224 233.5,240C 238.685,239.053 241.019,235.886 240.5,230.5 Z"/></g>
<g><path style="opacity:1" fill="#35322e" d="M 312.5,230.5 C 320.609,235.083 325.776,241.75 328,250.5C 323.046,243.554 317.88,236.887 312.5,230.5 Z"/></g>
<g><path style="opacity:1" fill="#efba00" d="M 328.5,230.5 C 330.483,230.157 331.817,230.824 332.5,232.5C 330.517,232.843 329.183,232.176 328.5,230.5 Z"/></g>
<g><path style="opacity:1" fill="#ec1c23" d="M 309.5,231.5 C 312.674,239.527 316.174,247.527 320,255.5C 324.799,271.925 330.299,288.092 336.5,304C 331.584,305.723 326.584,305.89 321.5,304.5C 325.459,303.673 329.459,303.173 333.5,303C 328.833,302.667 324.167,302.333 319.5,302C 318.584,301.626 317.75,301.126 317,300.5C 316.066,277.303 313.566,254.303 309.5,231.5 Z"/></g>
<g><path style="opacity:1" fill="#efba00" d="M 322.5,234.5 C 324.048,234.821 324.715,235.821 324.5,237.5C 323.094,237.027 322.427,236.027 322.5,234.5 Z"/></g>
<g><path style="opacity:1" fill="#35322e" d="M 336.5,234.5 C 338.924,234.192 341.257,234.526 343.5,235.5C 346.342,241.314 347.676,247.314 347.5,253.5C 346.201,252.91 345.368,251.91 345,250.5C 344.417,245.561 343.083,240.894 341,236.5C 337.588,239.123 334.088,241.623 330.5,244C 334.088,242.547 337.755,241.047 341.5,239.5C 341.626,243.923 342.293,248.256 343.5,252.5C 341.119,256.42 337.785,257.42 333.5,255.5C 331.547,251.091 329.213,246.924 326.5,243C 329.438,239.551 332.771,236.718 336.5,234.5 Z"/></g>
<g><path style="opacity:1" fill="#ed1f23" d="M 346.5,286.5 C 347.906,286.973 348.573,287.973 348.5,289.5C 347.942,290.79 346.942,291.623 345.5,292C 346.5,292.333 347.5,292.667 348.5,293C 347.159,294.826 347.659,295.993 350,296.5C 351.28,296.387 352.113,295.72 352.5,294.5C 351.174,293.358 350.174,292.024 349.5,290.5C 355.812,293.499 356.145,297.166 350.5,301.5C 346.58,296.648 342.913,291.648 339.5,286.5C 336.167,283.336 332.667,280.336 329,277.5C 326.512,269.88 324.178,262.213 322,254.5C 318.993,248.171 316.326,241.837 314,235.5C 324.825,249.816 335.159,264.483 345,279.5C 345.977,281.74 346.477,284.073 346.5,286.5 Z"/></g>
<g><path style="opacity:1" fill="#ec1c23" d="M 259.5,256.5 C 260.167,256.5 260.5,256.833 260.5,257.5C 261.167,258.833 262.167,259.833 263.5,260.5C 264.167,261.833 265.167,262.833 266.5,263.5C 270.207,268.208 274.54,272.208 279.5,275.5C 283.417,284.172 286.25,293.172 288,302.5C 281.919,291.337 275.586,280.337 269,269.5C 262,263.833 255.667,257.5 250,250.5C 248,246.5 248,242.5 250,238.5C 253.151,241.407 256.484,244.074 260,246.5C 259.572,248.746 259.072,251.079 258.5,253.5C 258.52,254.726 258.853,255.726 259.5,256.5 Z"/></g>
<g><path style="opacity:1" fill="#ecede1" d="M 227.5,240.5 C 231.193,240.88 234.526,242.714 237.5,246C 236.725,247.23 235.725,247.563 234.5,247C 232.297,244.628 229.963,242.461 227.5,240.5 Z"/></g>
<g><path style="opacity:1" fill="#e41d23" d="M 303.5,280.5 C 303.5,281.167 303.833,281.5 304.5,281.5C 305.172,284.342 306.506,286.842 308.5,289C 307.944,289.383 307.611,289.883 307.5,290.5C 306.833,290.5 306.5,290.833 306.5,291.5C 303.668,292.982 302.668,292.315 303.5,289.5C 303.5,288.5 303.5,287.5 303.5,286.5C 302.261,283.411 300.761,280.411 299,277.5C 298.76,273.748 298.26,270.081 297.5,266.5C 297.5,265.5 297.5,264.5 297.5,263.5C 296.5,261.833 295.167,260.5 293.5,259.5C 293.515,255.44 293.015,251.44 292,247.5C 291.426,245.508 290.259,244.008 288.5,243C 290.746,241.961 292.913,240.794 295,239.5C 292.974,248.458 295.307,256.125 302,262.5C 302.08,265.638 301.913,268.804 301.5,272C 301.36,275.15 302.027,277.983 303.5,280.5 Z"/></g>
<g><path style="opacity:1" fill="#efba00" d="M 271.5,240.5 C 275.259,242.683 276.925,246.017 276.5,250.5C 272.821,250.249 269.487,249.082 266.5,247C 267.269,244.074 268.935,241.907 271.5,240.5 Z"/></g>
<g><path style="opacity:1" fill="#000000" d="M 270.5,242.5 C 271.675,242.281 272.675,242.614 273.5,243.5C 276.621,248.409 275.288,249.743 269.5,247.5C 268.348,245.603 268.681,243.936 270.5,242.5 Z"/></g>
<g><path style="opacity:1" fill="#4e7648" d="M 271.5,243.5 C 274.398,247.103 273.732,247.936 269.5,246C 270.381,245.292 271.047,244.458 271.5,243.5 Z"/></g>
<g><path style="opacity:1" fill="#d8d8ce" d="M 285.5,244.5 C 286.708,245.234 288.041,245.567 289.5,245.5C 291.847,251.529 291.847,257.529 289.5,263.5C 286.947,264.805 284.28,265.805 281.5,266.5C 277.589,262.347 276.589,257.514 278.5,252C 278.833,250.5 279.167,249 279.5,247.5C 281.604,246.481 283.604,245.481 285.5,244.5 Z"/></g>
<g><path style="opacity:1" fill="#efba00" d="M 239.5,246.5 C 242.472,248.322 245.472,250.156 248.5,252C 250.461,254.963 252.794,257.629 255.5,260C 252.216,259.243 248.883,258.243 245.5,257C 242.833,254.333 240.167,251.667 237.5,249C 238.381,248.292 239.047,247.458 239.5,246.5 Z"/></g>
<g><path style="opacity:1" fill="#43633e" d="M 279.5,275.5 C 274.54,272.208 270.207,268.208 266.5,263.5C 266.833,262.833 267.167,262.167 267.5,261.5C 267.715,259.821 267.048,258.821 265.5,258.5C 264.833,259.167 264.167,259.833 263.5,260.5C 262.167,259.833 261.167,258.833 260.5,257.5C 263.167,256.5 263.167,255.5 260.5,254.5C 259.921,251.649 261.087,249.315 264,247.5C 267.769,249.986 271.935,251.319 276.5,251.5C 276.33,253.848 275.997,256.182 275.5,258.5C 277.159,263.823 278.826,269.156 280.5,274.5C 280.376,275.107 280.043,275.44 279.5,275.5 Z"/></g>
<g><path style="opacity:1" fill="#efba00" d="M 260.5,254.5 C 263.167,255.5 263.167,256.5 260.5,257.5C 260.5,256.833 260.167,256.5 259.5,256.5C 259.833,255.833 260.167,255.167 260.5,254.5 Z"/></g>
<g><path style="opacity:1" fill="#efba00" d="M 280.5,255.5 C 283.633,255.761 284.8,257.428 284,260.5C 283,261.833 282,261.833 281,260.5C 280.506,258.866 280.34,257.199 280.5,255.5 Z"/></g>
<g><path style="opacity:1" fill="#000000" d="M 265.5,258.5 C 265.285,260.179 265.952,261.179 267.5,261.5C 267.167,262.167 266.833,262.833 266.5,263.5C 265.167,262.833 264.167,261.833 263.5,260.5C 264.167,259.833 264.833,259.167 265.5,258.5 Z"/></g>
<g><path style="opacity:1" fill="#efba00" d="M 265.5,258.5 C 267.048,258.821 267.715,259.821 267.5,261.5C 265.952,261.179 265.285,260.179 265.5,258.5 Z"/></g>
<g><path style="opacity:1" fill="#4e7648" d="M 333.5,259.5 C 335.607,258.532 337.941,258.198 340.5,258.5C 340.482,263.113 341.982,267.113 345,270.5C 345.667,272.167 345.667,273.833 345,275.5C 341.39,269.923 337.557,264.59 333.5,259.5 Z"/></g>
<g><path style="opacity:1" fill="#3e5c3a" d="M 293.5,259.5 C 295.167,260.5 296.5,261.833 297.5,263.5C 294.833,264.5 294.833,265.5 297.5,266.5C 298.26,270.081 298.76,273.748 299,277.5C 300.761,280.411 302.261,283.411 303.5,286.5C 302.5,286.5 301.5,286.5 300.5,286.5C 299.043,288.752 297.543,288.419 296,285.5C 294.562,278.808 293.062,272.142 291.5,265.5C 292.05,263.343 292.717,261.343 293.5,259.5 Z"/></g>
<g><path style="opacity:1" fill="#efba00" d="M 270.5,262.5 C 272.465,262.948 272.798,263.948 271.5,265.5C 270.614,264.675 270.281,263.675 270.5,262.5 Z"/></g>
<g><path style="opacity:1" fill="#efba00" d="M 297.5,263.5 C 297.5,264.5 297.5,265.5 297.5,266.5C 294.833,265.5 294.833,264.5 297.5,263.5 Z"/></g>
<g><path style="opacity:1" fill="#35322e" d="M 287.5,266.5 C 288.496,266.414 289.329,266.748 290,267.5C 293.5,284.333 297,301.167 300.5,318C 298.864,322.499 297.031,322.333 295,317.5C 290.768,301.139 285.935,284.972 280.5,269C 283.004,268.302 285.337,267.469 287.5,266.5 Z"/></g>
<g><path style="opacity:1" fill="#ededed" d="M 264.5,268.5 C 272.685,279.682 280.018,291.516 286.5,304C 283.882,306.739 281.382,309.573 279,312.5C 278.57,315.192 278.737,317.859 279.5,320.5C 275.863,321.497 272.196,321.997 268.5,322C 264.757,320.864 261.09,319.53 257.5,318C 255.513,316.681 254.346,314.848 254,312.5C 253.339,307.442 253.672,302.442 255,297.5C 258.669,287.993 261.836,278.326 264.5,268.5 Z"/></g>
<g><path style="opacity:1" fill="#ec1c23" d="M 347.5,273.5 C 350.492,281.478 353.992,289.145 358,296.5C 355,292.833 352,289.167 349,285.5C 347.844,281.582 347.344,277.582 347.5,273.5 Z"/></g>
<g><path style="opacity:1" fill="#000000" d="M 304.5,281.5 C 306.711,283.561 308.377,286.061 309.5,289C 309.164,290.03 308.497,290.53 307.5,290.5C 307.611,289.883 307.944,289.383 308.5,289C 306.506,286.842 305.172,284.342 304.5,281.5 Z"/></g>
<g><path style="opacity:1" fill="#eeefee" d="M 330.5,281.5 C 337.201,286.39 341.868,292.39 344.5,299.5C 342.097,300.704 339.764,301.038 337.5,300.5C 334.963,294.22 332.63,287.887 330.5,281.5 Z"/></g>
<g><path style="opacity:1" fill="#efba00" d="M 339.5,286.5 C 341.144,285.684 342.31,284.35 343,282.5C 343.49,283.793 343.657,285.127 343.5,286.5C 342.167,286.5 340.833,286.5 339.5,286.5 Z"/></g>
<g><path style="opacity:1" fill="#efba00" d="M 322.5,283.5 C 323.218,285.246 324.218,285.912 325.5,285.5C 324.833,286.5 324.167,287.5 323.5,288.5C 323.846,289.696 324.346,289.696 325,288.5C 325.311,289.742 324.811,290.742 323.5,291.5C 326.078,291.677 326.078,292.843 323.5,295C 327.327,296.58 327.161,298.08 323,299.5C 318.839,298.08 318.673,296.58 322.5,295C 319.922,292.843 319.922,291.677 322.5,291.5C 321.833,290.833 321.167,290.167 320.5,289.5C 321.167,289.167 321.833,288.833 322.5,288.5C 321.833,287.5 321.167,286.5 320.5,285.5C 320.846,284.304 321.346,284.304 322,285.5C 322.464,284.906 322.631,284.239 322.5,283.5 Z"/></g>
<g><path style="opacity:1" fill="#efba00" d="M 300.5,286.5 C 301.5,286.5 302.5,286.5 303.5,286.5C 303.5,287.5 303.5,288.5 303.5,289.5C 302.5,289.5 301.5,289.5 300.5,289.5C 300.5,288.5 300.5,287.5 300.5,286.5 Z"/></g>
<g><path style="opacity:1" fill="#efba00" d="M 346.5,286.5 C 346.5,287.5 346.5,288.5 346.5,289.5C 341.634,289.521 341.634,288.521 346.5,286.5 Z"/></g>
<g><path style="opacity:1" fill="#ec1c23" d="M 300.5,305.5 C 301.167,305.5 301.833,305.5 302.5,305.5C 302.66,303.801 302.494,302.134 302,300.5C 301.086,304.185 300.419,303.852 300,299.5C 299.617,300.056 299.117,300.389 298.5,300.5C 298.133,296.733 297.633,293.067 297,289.5C 303.562,295.2 310.729,300.033 318.5,304C 313.635,309.2 308.468,314.033 303,318.5C 301.843,314.218 301.01,309.884 300.5,305.5 Z"/></g>
<g><path style="opacity:1" fill="#efba00" d="M 348.5,289.5 C 349.167,289.5 349.5,289.833 349.5,290.5C 350.174,292.024 351.174,293.358 352.5,294.5C 352.113,295.72 351.28,296.387 350,296.5C 347.659,295.993 347.159,294.826 348.5,293C 347.5,292.667 346.5,292.333 345.5,292C 346.942,291.623 347.942,290.79 348.5,289.5 Z"/></g>
<g><path style="opacity:1" fill="#424b3b" d="M 355.5,297.5 C 358.519,297.972 359.519,299.472 358.5,302C 356.833,302.667 355.167,302.667 353.5,302C 354.582,300.67 355.249,299.17 355.5,297.5 Z"/></g>
<g><path style="opacity:1" fill="#f0b404" d="M 302.5,305.5 C 301.833,305.5 301.167,305.5 300.5,305.5C 299.833,303.833 299.167,302.167 298.5,300.5C 299.117,300.389 299.617,300.056 300,299.5C 300.419,303.852 301.086,304.185 302,300.5C 302.494,302.134 302.66,303.801 302.5,305.5 Z"/></g>
<g><path style="opacity:1" fill="#35312e" d="M 344.5,301.5 C 347.042,302.624 349.708,303.458 352.5,304C 351.446,305.388 351.28,306.888 352,308.5C 354.584,312.833 356.251,317.5 357,322.5C 358.022,323.354 358.855,324.354 359.5,325.5C 355.183,328.486 351.183,331.82 347.5,335.5C 348.002,336.521 348.668,336.688 349.5,336C 353.052,332.781 356.885,329.948 361,327.5C 373.073,340.641 381.24,355.975 385.5,373.5C 383.922,374.298 382.256,374.798 380.5,375C 386.435,376.09 390.435,379.59 392.5,385.5C 389.788,386.228 387.121,387.061 384.5,388C 381.174,394.242 380.84,400.576 383.5,407C 383.375,408.627 382.875,410.127 382,411.5C 371.692,376.544 353.025,346.878 326,322.5C 325.506,317.809 327.006,313.809 330.5,310.5C 333.72,308.397 336.72,306.064 339.5,303.5C 341.336,302.972 343.003,302.306 344.5,301.5 Z"/></g>
<g><path style="opacity:1" fill="#efba00" d="M 302.5,305.5 C 304.23,304.024 305.563,304.358 306.5,306.5C 305.123,309.726 303.457,310.059 301.5,307.5C 301.863,306.817 302.196,306.15 302.5,305.5 Z"/></g>
<g><path style="opacity:1" fill="#424b3b" d="M 318.5,306.5 C 322.081,307.26 325.748,307.76 329.5,308C 329.167,308.333 328.833,308.667 328.5,309C 320.624,311.141 313.291,314.141 306.5,318C 311.002,314.664 315.002,310.831 318.5,306.5 Z"/></g>
<g><path style="opacity:1" fill="#d0d1d0" d="M 324.5,312.5 C 325.239,312.369 325.906,312.536 326.5,313C 325.213,314.41 324.046,315.91 323,317.5C 321.12,315.236 321.62,313.57 324.5,312.5 Z"/></g>
<g><path style="opacity:1" fill="#332f2c" d="M 269.5,388.5 C 272.167,387.833 272.167,387.167 269.5,386.5C 268.314,385.295 268.314,383.961 269.5,382.5C 269.5,381.833 269.5,381.167 269.5,380.5C 266.636,379.242 265.97,377.242 267.5,374.5C 267.5,373.167 266.833,372.5 265.5,372.5C 264.206,371.71 263.039,370.71 262,369.5C 259.184,360.552 255.851,351.885 252,343.5C 251.133,340.479 251.633,337.812 253.5,335.5C 253.5,334.167 252.833,333.5 251.5,333.5C 250.957,333.44 250.624,333.107 250.5,332.5C 251.243,331.818 251.909,331.151 252.5,330.5C 252.5,329.167 251.833,328.5 250.5,328.5C 247.869,323.492 248.202,318.492 251.5,313.5C 253.452,317.952 256.786,320.785 261.5,322C 267.103,325.047 272.769,325.214 278.5,322.5C 278.833,323 279.167,323.5 279.5,324C 277.693,327.78 276.026,331.613 274.5,335.5C 277.273,341.38 279.773,347.38 282,353.5C 283.166,365.13 283.832,376.797 284,388.5C 284.524,392.715 286.024,396.548 288.5,400C 282.933,405.79 276.266,408.79 268.5,409C 265.068,408.884 262.068,407.717 259.5,405.5C 265.18,401.129 268.514,395.462 269.5,388.5 Z"/></g>
<g><path style="opacity:1" fill="#efba00" d="M 251.5,321.5 C 253.337,321.639 253.67,322.306 252.5,323.5C 251.702,323.043 251.369,322.376 251.5,321.5 Z"/></g>
<g><path style="opacity:1" fill="#efba00" d="M 250.5,328.5 C 251.833,328.5 252.5,329.167 252.5,330.5C 251.167,330.5 250.5,329.833 250.5,328.5 Z"/></g>
<g><path style="opacity:1" fill="#efba00" d="M 251.5,333.5 C 252.833,333.5 253.5,334.167 253.5,335.5C 252.167,335.5 251.5,334.833 251.5,333.5 Z"/></g>
<g><path style="opacity:1" fill="#efba00" d="M 254.5,340.5 C 256.76,341.238 256.927,342.238 255,343.5C 253.272,342.648 253.105,341.648 254.5,340.5 Z"/></g>
<g><path style="opacity:1" fill="#efba00" d="M 256.5,346.5 C 258.76,347.238 258.927,348.238 257,349.5C 255.272,348.648 255.105,347.648 256.5,346.5 Z"/></g>
<g><path style="opacity:1" fill="#efba00" d="M 259.5,352.5 C 261.76,353.238 261.927,354.238 260,355.5C 258.272,354.648 258.105,353.648 259.5,352.5 Z"/></g>
<g><path style="opacity:1" fill="#efba00" d="M 262.5,359.5 C 264.76,360.238 264.927,361.238 263,362.5C 261.272,361.648 261.105,360.648 262.5,359.5 Z"/></g>
<g><path style="opacity:1" fill="#efba00" d="M 264.5,366.5 C 266.76,367.238 266.927,368.238 265,369.5C 263.272,368.648 263.105,367.648 264.5,366.5 Z"/></g>
<g><path style="opacity:1" fill="#efba00" d="M 265.5,372.5 C 266.833,372.5 267.5,373.167 267.5,374.5C 266.167,374.5 265.5,373.833 265.5,372.5 Z"/></g>
<g><path style="opacity:1" fill="#efba00" d="M 269.5,380.5 C 269.5,381.167 269.5,381.833 269.5,382.5C 266.833,381.833 266.833,381.167 269.5,380.5 Z"/></g>
<g><path style="opacity:1" fill="#efba00" d="M 269.5,386.5 C 272.167,387.167 272.167,387.833 269.5,388.5C 269.5,387.833 269.5,387.167 269.5,386.5 Z"/></g>
<g><path style="opacity:1" fill="#35322e" d="M 387.5,388.5 C 389.527,388.338 391.527,388.505 393.5,389C 395.896,392.25 396.563,395.75 395.5,399.5C 384.373,406.843 380.873,404.177 385,391.5C 385.698,390.309 386.531,389.309 387.5,388.5 Z"/></g>
<g><path style="opacity:1" fill="#efba00" d="M 271.5,391.5 C 274.125,392.466 274.125,393.466 271.5,394.5C 270.438,393.575 270.438,392.575 271.5,391.5 Z"/></g>
<g><path style="opacity:1" fill="#efba00" d="M 272.5,397.5 C 274.76,398.238 274.927,399.238 273,400.5C 271.272,399.648 271.105,398.648 272.5,397.5 Z"/></g>
<g><path style="opacity:1" fill="#35322e" d="M 395.5,401.5 C 396.748,405.55 398.414,409.55 400.5,413.5C 398.511,416.966 397.011,420.632 396,424.5C 392.27,425.46 388.437,425.793 384.5,425.5C 384.048,422.124 383.382,418.791 382.5,415.5C 384.668,412.502 385.668,409.169 385.5,405.5C 389.327,405.248 392.66,403.915 395.5,401.5 Z"/></g>
<g><path style="opacity:1" fill="#efba00" d="M 272.5,403.5 C 274.76,404.238 274.927,405.238 273,406.5C 271.272,405.648 271.105,404.648 272.5,403.5 Z"/></g>
</svg>
