<?xml version="1.0" encoding="UTF-8"?>
<!DOCTYPE svg PUBLIC "-//W3C//DTD SVG 1.1//EN" "http://www.w3.org/Graphics/SVG/1.1/DTD/svg11.dtd">
<svg xmlns="http://www.w3.org/2000/svg" version="1.1" width="451px" height="400px" style="shape-rendering:geometricPrecision; text-rendering:geometricPrecision; image-rendering:optimizeQuality; fill-rule:evenodd; clip-rule:evenodd" xmlns:xlink="http://www.w3.org/1999/xlink">
<g><path style="opacity:1" fill="#fefffe" d="M 134.5,4.5 C 139.179,4.33418 143.845,4.50085 148.5,5C 149.333,7.16667 150.833,8.66667 153,9.5C 154.293,13.074 155.793,16.4073 157.5,19.5C 160.282,19.7727 162.449,21.106 164,23.5C 180.955,19.6929 196.788,22.5262 211.5,32C 212.167,34.3333 212.833,36.6667 213.5,39C 218.713,38.5245 222.88,40.3578 226,44.5C 226.772,49.9042 226.439,55.2375 225,60.5C 223.933,61.1905 222.766,61.6905 221.5,62C 223.587,62.7922 225.421,63.9588 227,65.5C 227.667,69.1667 227.667,72.8333 227,76.5C 225.829,77.8932 224.329,78.7265 222.5,79C 219.774,79.1816 217.107,79.6816 214.5,80.5C 218.519,85.8674 220.853,91.8674 221.5,98.5C 226.245,98.4784 230.745,99.4784 235,101.5C 235.804,106.751 235.637,111.918 234.5,117C 239.8,121.432 243.133,126.932 244.5,133.5C 250.509,133.334 256.509,133.501 262.5,134C 264.667,136.167 266.833,138.333 269,140.5C 270.045,147.125 270.711,153.792 271,160.5C 271.374,161.416 271.874,162.25 272.5,163C 279.607,164.621 286.607,166.621 293.5,169C 300.835,169.372 308.169,169.206 315.5,168.5C 325.562,168.299 335.229,170.132 344.5,174C 356.559,181.02 369.225,186.686 382.5,191C 396.782,192.622 411.116,193.622 425.5,194C 426.333,194.833 427.167,195.667 428,196.5C 429.38,202.993 428.38,208.993 425,214.5C 417.58,222.922 408.413,228.422 397.5,231C 396.449,232.385 395.116,233.385 393.5,234C 386.831,234.288 380.164,234.122 373.5,233.5C 373.714,235.144 373.38,236.644 372.5,238C 363.211,239.902 354.878,237.902 347.5,232C 341.166,225.322 333.999,219.822 326,215.5C 325.501,221.157 325.334,226.824 325.5,232.5C 330.536,232.588 335.536,233.088 340.5,234C 341.931,234.465 343.097,235.299 344,236.5C 345.913,243.699 347.246,251.032 348,258.5C 349.667,259.5 351.333,260.5 353,261.5C 353.782,268.206 354.782,274.873 356,281.5C 360.549,281.816 364.549,283.483 368,286.5C 371.41,294.14 372.91,302.14 372.5,310.5C 377.102,310.384 380.935,312.051 384,315.5C 386.044,323.734 386.71,332.067 386,340.5C 385.5,341 385,341.5 384.5,342C 382.5,342.167 380.5,342.333 378.5,342.5C 371.419,341.784 364.419,340.617 357.5,339C 354.723,332.557 350.223,327.723 344,324.5C 341.671,319.681 339.838,314.681 338.5,309.5C 334.277,308.709 330.777,306.709 328,303.5C 326.446,298.326 324.946,293.159 323.5,288C 308.436,280.469 293.102,273.469 277.5,267C 276.373,265.247 275.373,263.413 274.5,261.5C 272.138,260.729 269.804,259.895 267.5,259C 263.5,255 259.5,251 255.5,247C 254.101,246.405 252.768,246.572 251.5,247.5C 250.507,252.12 250.173,256.786 250.5,261.5C 245.821,261.666 241.155,261.499 236.5,261C 234.624,258.954 232.624,257.121 230.5,255.5C 223.1,257.044 215.6,257.71 208,257.5C 202.255,257.489 196.588,257.156 191,256.5C 186.908,259.126 182.408,260.126 177.5,259.5C 178.705,264.248 180.205,268.915 182,273.5C 182.333,277.5 182.667,281.5 183,285.5C 186.153,297.448 188.653,309.448 190.5,321.5C 190.987,329.52 187.32,334.52 179.5,336.5C 178.686,338.766 178.186,341.1 178,343.5C 177.535,344.931 176.701,346.097 175.5,347C 168.582,348.551 161.582,348.884 154.5,348C 150.924,347.81 147.758,346.643 145,344.5C 142.905,336.737 144.739,330.237 150.5,325C 153.58,322.71 156.747,320.543 160,318.5C 163.212,313.2 163.212,307.866 160,302.5C 157.255,296.675 154.255,291.008 151,285.5C 149.607,276.382 146.274,268.049 141,260.5C 129.844,272.622 118.344,284.455 106.5,296C 105.234,296.309 104.067,296.809 103,297.5C 97.6005,305.908 92.6005,314.575 88,323.5C 84.4152,324.926 80.7485,326.26 77,327.5C 77.6181,338.882 72.2847,344.215 61,343.5C 54.1783,343.291 47.5117,342.291 41,340.5C 40.3333,335.833 40.3333,331.167 41,326.5C 44.0498,322.905 47.2164,319.405 50.5,316C 54.7217,314.974 58.2217,312.807 61,309.5C 66.6125,300.888 72.6125,292.554 79,284.5C 82,278.5 85,272.5 88,266.5C 98.6941,256.972 106.194,245.305 110.5,231.5C 107.666,220.189 105.499,208.855 104,197.5C 102.5,195.333 101,193.167 99.5,191C 97.1218,190.489 94.7885,189.822 92.5,189C 87.4557,183.624 82.789,177.958 78.5,172C 77.1667,171.333 75.8333,171.333 74.5,172C 64.5487,185.128 51.5487,189.462 35.5,185C 32.5127,181.108 28.5127,179.441 23.5,180C 16.7791,173.584 14.6125,165.75 17,156.5C 28.8725,138.339 41.7058,121.172 55.5,105C 50.4473,104.783 45.4473,104.283 40.5,103.5C 39.1667,100.5 39.1667,97.5 40.5,94.5C 73.3927,88.2956 106.393,82.6289 139.5,77.5C 138.833,74.1668 140.167,72.1668 143.5,71.5C 144.324,68.2152 144.824,64.8818 145,61.5C 146.046,59.9095 147.213,58.4095 148.5,57C 147.137,55.0551 146.303,52.8884 146,50.5C 143.263,49.0126 141.597,46.6793 141,43.5C 136.644,37.4278 132.31,31.4278 128,25.5C 126.873,19.2453 127.54,13.2453 130,7.5C 131.652,6.60064 133.152,5.60064 134.5,4.5 Z M 159.5,112.5 C 162.167,112.5 164.833,112.5 167.5,112.5C 167.851,115.238 168.518,117.904 169.5,120.5C 167.257,121.474 164.924,121.808 162.5,121.5C 162.57,117.399 160.57,114.899 156.5,114C 157.737,113.768 158.737,113.268 159.5,112.5 Z"/></g>
<g><path style="opacity:1" fill="#000000" d="M 136.5,6.5 C 139.85,6.33499 143.183,6.50166 146.5,7C 147.333,9.16667 148.833,10.6667 151,11.5C 152.293,15.074 153.793,18.4073 155.5,21.5C 158.73,21.561 160.563,23.2277 161,26.5C 178.211,21.5012 194.377,24.0012 209.5,34C 210.167,36.3333 210.833,38.6667 211.5,41C 223.363,41.5323 227.196,47.3656 223,58.5C 219.924,59.2883 216.758,59.7883 213.5,60C 217.248,62.6244 221.081,65.1244 225,67.5C 225.978,70.6693 225.478,73.5027 223.5,76C 219.259,77.4573 214.926,77.7907 210.5,77C 202.462,72.9549 194.962,68.1216 188,62.5C 187.691,63.7659 187.191,64.9326 186.5,66C 191.182,71.5725 197.182,74.9058 204.5,76C 210.989,79.778 215.489,85.278 218,92.5C 219.079,95.0627 219.579,97.7294 219.5,100.5C 224.245,100.478 228.745,101.478 233,103.5C 233.968,108.36 233.468,113.026 231.5,117.5C 234.854,121.019 238.02,124.686 241,128.5C 241.92,131.101 242.587,133.768 243,136.5C 248.75,135.359 254.584,135.193 260.5,136C 262.667,138.167 264.833,140.333 267,142.5C 268.045,149.125 268.711,155.792 269,162.5C 269.374,163.416 269.874,164.25 270.5,165C 279.173,166.891 287.673,169.391 296,172.5C 311.862,169.05 327.362,170.216 342.5,176C 356.277,184.224 370.944,190.224 386.5,194C 398.825,194.825 411.158,195.492 423.5,196C 427.491,201.494 427.324,206.994 423,212.5C 418.123,217.046 412.956,221.213 407.5,225C 400.676,226.937 394.176,229.437 388,232.5C 383.511,231.901 379.011,231.401 374.5,231C 373.667,230.167 372.833,229.333 372,228.5C 371.667,230.833 371.333,233.167 371,235.5C 364.358,237.297 358.191,236.13 352.5,232C 346.833,227 341.167,222 335.5,217C 330.105,215.554 325.605,212.721 322,208.5C 323.197,217.04 323.697,225.706 323.5,234.5C 328.536,234.588 333.536,235.088 338.5,236C 339.931,236.465 341.097,237.299 342,238.5C 343.913,245.699 345.246,253.032 346,260.5C 347.667,261.5 349.333,262.5 351,263.5C 351.782,270.206 352.782,276.873 354,283.5C 358.549,283.816 362.549,285.483 366,288.5C 367.181,292.891 368.514,297.224 370,301.5C 370.789,305.091 370.622,308.591 369.5,312C 374.465,312.067 378.632,313.9 382,317.5C 383.113,322.957 383.946,328.457 384.5,334C 384.695,336.352 384.028,338.352 382.5,340C 379.833,340.667 377.167,340.667 374.5,340C 369.585,338.584 364.585,337.584 359.5,337C 356.723,330.557 352.223,325.723 346,322.5C 343.671,317.681 341.838,312.681 340.5,307.5C 336.277,306.709 332.777,304.709 330,301.5C 328.446,296.326 326.946,291.159 325.5,286C 310.436,278.469 295.102,271.469 279.5,265C 278.373,263.247 277.373,261.413 276.5,259.5C 274.138,258.729 271.804,257.895 269.5,257C 265.167,252.667 260.833,248.333 256.5,244C 253.07,243.541 250.07,244.541 247.5,247C 248.464,251.066 248.797,255.233 248.5,259.5C 245.15,259.665 241.817,259.498 238.5,259C 236.288,256.957 234.288,254.791 232.5,252.5C 218.822,255.656 204.989,256.323 191,254.5C 185.457,256.917 179.624,258.084 173.5,258C 175.665,263.828 177.832,269.661 180,275.5C 180.333,279.5 180.667,283.5 181,287.5C 183.989,298.804 186.489,310.137 188.5,321.5C 188.125,328.547 184.458,332.88 177.5,334.5C 176.686,336.766 176.186,339.1 176,341.5C 175.535,342.931 174.701,344.097 173.5,345C 167.92,346.517 162.253,346.851 156.5,346C 147.633,346.136 144.466,341.969 147,333.5C 151.172,328.242 156.172,323.909 162,320.5C 165.265,313.861 165.265,307.195 162,300.5C 159.255,294.675 156.255,289.008 153,283.5C 151.356,273.548 147.523,264.548 141.5,256.5C 128.832,268.668 116.499,281.168 104.5,294C 103.234,294.309 102.067,294.809 101,295.5C 95.6005,303.908 90.6005,312.575 86,321.5C 82.4152,322.926 78.7485,324.26 75,325.5C 75.9204,335.905 71.2537,341.238 61,341.5C 39.3766,341.253 36.5433,333.42 52.5,318C 56.7217,316.974 60.2217,314.807 63,311.5C 68.6125,302.888 74.6125,294.554 81,286.5C 84,280.5 87,274.5 90,268.5C 94.7007,264.134 99.034,259.467 103,254.5C 106.108,247.118 109.608,239.952 113.5,233C 110.4,222.206 108.233,211.372 107,200.5C 107.5,200 108,199.5 108.5,199C 105.963,196.094 103.796,192.927 102,189.5C 99.5529,188.594 97.0529,187.761 94.5,187C 89.4557,181.624 84.789,175.958 80.5,170C 78.7818,169.654 77.1151,169.154 75.5,168.5C 70.9879,173.172 65.9879,177.339 60.5,181C 53.171,184.969 45.5044,185.635 37.5,183C 34.5127,179.108 30.5127,177.441 25.5,178C 18.5127,172.185 16.6794,165.018 20,156.5C 30.3623,140.686 41.8623,126.019 54.5,112.5C 56.1207,108.756 58.1207,105.256 60.5,102C 54.9106,102.568 49.2439,102.568 43.5,102C 40.6558,98.2795 41.6558,95.9461 46.5,95C 78.1797,89.8311 109.846,84.6644 141.5,79.5C 141.286,77.8561 141.62,76.3561 142.5,75C 146.386,73.1951 150.386,71.6951 154.5,70.5C 151.92,69.4512 149.254,68.7845 146.5,68.5C 146.353,64.4643 147.853,61.1309 151,58.5C 151.667,57.5 151.667,56.5 151,55.5C 149.249,53.5101 148.249,51.1768 148,48.5C 145.263,47.0126 143.597,44.6793 143,41.5C 138.644,35.4278 134.31,29.4278 130,23.5C 127.803,15.9295 129.969,10.2628 136.5,6.5 Z M 159.5,112.5 C 158.737,113.268 157.737,113.768 156.5,114C 160.57,114.899 162.57,117.399 162.5,121.5C 164.924,121.808 167.257,121.474 169.5,120.5C 168.518,117.904 167.851,115.238 167.5,112.5C 164.833,112.5 162.167,112.5 159.5,112.5 Z"/></g>
<g><path style="opacity:1" fill="#d81b20" d="M 154.5,34.5 C 158.188,39.046 159.188,44.046 157.5,49.5C 156.425,50.5624 155.425,50.5624 154.5,49.5C 153.846,47.8849 153.346,46.2182 153,44.5C 146.089,36.3364 139.922,27.6698 134.5,18.5C 137.77,10.8045 141.77,10.1378 146.5,16.5C 149.166,22.5076 151.833,28.5076 154.5,34.5 Z"/></g>
<g><path style="opacity:1" fill="#1d1e1d" d="M 173.5,28.5 C 184.704,29.216 195.037,32.5493 204.5,38.5C 204.592,45.0899 207.926,47.9233 214.5,47C 217.941,48.3184 219.275,50.8184 218.5,54.5C 214.085,54.3054 209.751,54.8054 205.5,56C 204.941,56.7247 204.608,57.5581 204.5,58.5C 207.859,64.5291 212.859,68.6957 219.5,71C 215.586,72.5861 211.919,71.9194 208.5,69C 203.328,65.9148 198.328,62.5814 193.5,59C 186.167,51.3333 178.833,43.6667 171.5,36C 169.33,34.4138 166.996,33.0804 164.5,32C 168.005,31.8809 171.005,30.7143 173.5,28.5 Z"/></g>
<g><path style="opacity:1" fill="#fec90d" d="M 177.5,51.5 C 170.519,40.499 164.186,40.8323 158.5,52.5C 157.596,51.791 157.263,50.791 157.5,49.5C 159.188,44.046 158.188,39.046 154.5,34.5C 154.461,33.2438 154.961,32.2438 156,31.5C 166.947,34.0892 175.447,40.2559 181.5,50C 180.683,52.3725 179.35,52.8725 177.5,51.5 Z"/></g>
<g><path style="opacity:1" fill="#a5a5a5" d="M 177.5,51.5 C 177.586,52.4959 177.252,53.3292 176.5,54C 174.863,54.6012 173.197,55.1012 171.5,55.5C 166.965,54.8077 162.631,53.8077 158.5,52.5C 164.186,40.8323 170.519,40.499 177.5,51.5 Z"/></g>
<g><path style="opacity:1" fill="#fec90d" d="M 160.5,56.5 C 164.976,56.8003 166.31,58.9669 164.5,63C 158.738,63.4178 157.404,61.2511 160.5,56.5 Z"/></g>
<g><path style="opacity:1" fill="#000000" d="M 163.5,59.5 C 164.773,60.0768 164.773,60.7435 163.5,61.5C 162.537,61.0302 162.537,60.3635 163.5,59.5 Z"/></g>
<g><path style="opacity:1" fill="#c2c3c2" d="M 154.5,64.5 C 156.517,63.126 158.517,63.2926 160.5,65C 158.402,65.6776 156.402,65.5109 154.5,64.5 Z"/></g>
<g><path style="opacity:1" fill="#fec90d" d="M 161.5,65.5 C 162.849,64.2035 164.182,64.3702 165.5,66C 164.072,66.5791 162.738,66.4124 161.5,65.5 Z"/></g>
<g><path style="opacity:1" fill="#4b2e1f" d="M 181.5,71.5 C 179.735,72.4614 177.735,72.7947 175.5,72.5C 175.737,73.791 175.404,74.791 174.5,75.5C 174.713,72.5491 174.046,69.8825 172.5,67.5C 174.912,65.838 177.746,64.838 181,64.5C 181.497,66.8098 181.663,69.1432 181.5,71.5 Z"/></g>
<g><path style="opacity:1" fill="#e18d69" d="M 172.5,67.5 C 174.046,69.8825 174.713,72.5491 174.5,75.5C 173.29,75.9321 172.29,76.5987 171.5,77.5C 170.226,76.8106 170.226,75.9772 171.5,75C 170.906,74.5357 170.239,74.369 169.5,74.5C 169.34,72.847 168.674,71.5137 167.5,70.5C 167.525,66.7162 169.192,65.7162 172.5,67.5 Z"/></g>
<g><path style="opacity:1" fill="#fec90d" d="M 162.5,68.5 C 163.708,67.218 165.042,67.218 166.5,68.5C 165.192,69.6256 163.858,69.6256 162.5,68.5 Z"/></g>
<g><path style="opacity:1" fill="#000000" d="M 169.5,67.5 C 171.273,68.3143 171.773,69.6476 171,71.5C 170.209,70.255 169.709,68.9217 169.5,67.5 Z"/></g>
<g><path style="opacity:1" fill="#eda789" d="M 162.5,68.5 C 162.263,69.791 162.596,70.791 163.5,71.5C 163.263,72.791 163.596,73.791 164.5,74.5C 164.796,76.403 165.463,78.0697 166.5,79.5C 167.338,79.8417 167.672,80.5084 167.5,81.5C 166.094,84.6974 164.261,85.0307 162,82.5C 161.182,87.7937 160.682,87.7937 160.5,82.5C 160.5,81.8333 160.5,81.1667 160.5,80.5C 161.793,79.3552 162.959,79.6885 164,81.5C 164.366,75.7728 161.866,74.1062 156.5,76.5C 156.962,74.2433 157.962,72.2433 159.5,70.5C 158.694,67.7196 159.694,67.0529 162.5,68.5 Z"/></g>
<g><path style="opacity:1" fill="#fec90d" d="M 163.5,71.5 C 164.568,70.5655 165.901,70.2322 167.5,70.5C 166.789,72.8418 165.456,73.1751 163.5,71.5 Z"/></g>
<g><path style="opacity:1" fill="#000000" d="M 167.5,70.5 C 168.674,71.5137 169.34,72.847 169.5,74.5C 167.716,73.2801 166.05,73.2801 164.5,74.5C 163.596,73.791 163.263,72.791 163.5,71.5C 165.456,73.1751 166.789,72.8418 167.5,70.5 Z"/></g>
<g><path style="opacity:1" fill="#a91216" d="M 181.5,71.5 C 183.933,71.2729 185.599,72.2729 186.5,74.5C 183.482,74.3354 180.482,74.502 177.5,75C 175.559,77.4536 173.225,79.287 170.5,80.5C 170.557,79.391 170.89,78.391 171.5,77.5C 172.29,76.5987 173.29,75.9321 174.5,75.5C 175.404,74.791 175.737,73.791 175.5,72.5C 177.735,72.7947 179.735,72.4614 181.5,71.5 Z"/></g>
<g><path style="opacity:1" fill="#fec90d" d="M 164.5,74.5 C 166.05,73.2801 167.716,73.2801 169.5,74.5C 167.95,75.7199 166.284,75.7199 164.5,74.5 Z"/></g>
<g><path style="opacity:1" fill="#fec90d" d="M 155.5,76.5 C 150.304,78.2824 148.304,81.6158 149.5,86.5C 150.677,88.1026 150.511,89.436 149,90.5C 143.949,83.3088 145.616,77.9754 154,74.5C 155.03,74.8361 155.53,75.5028 155.5,76.5 Z"/></g>
<g><path style="opacity:1" fill="#000000" d="M 164.5,74.5 C 166.284,75.7199 167.95,75.7199 169.5,74.5C 170.239,74.369 170.906,74.5357 171.5,75C 170.226,75.9772 170.226,76.8106 171.5,77.5C 170.89,78.391 170.557,79.391 170.5,80.5C 169.566,79.4324 169.232,78.099 169.5,76.5C 168.5,76.5 167.5,76.5 166.5,76.5C 166.5,77.5 166.5,78.5 166.5,79.5C 165.463,78.0697 164.796,76.403 164.5,74.5 Z"/></g>
<g><path style="opacity:1" fill="#b2b2b2" d="M 186.5,74.5 C 184.43,75.2518 181.763,75.9184 178.5,76.5C 177.167,78.1667 175.833,79.8333 174.5,81.5C 173.5,82.1667 172.5,82.8333 171.5,83.5C 170.89,82.609 170.557,81.609 170.5,80.5C 173.225,79.287 175.559,77.4536 177.5,75C 180.482,74.502 183.482,74.3354 186.5,74.5 Z"/></g>
<g><path style="opacity:1" fill="#533222" d="M 160.5,80.5 C 159.5,78.8333 158.167,77.5 156.5,76.5C 161.866,74.1062 164.366,75.7728 164,81.5C 162.959,79.6885 161.793,79.3552 160.5,80.5 Z"/></g>
<g><path style="opacity:1" fill="#d6d6d6" d="M 155.5,76.5 C 155.833,76.5 156.167,76.5 156.5,76.5C 158.167,77.5 159.5,78.8333 160.5,80.5C 160.5,81.1667 160.5,81.8333 160.5,82.5C 159.508,82.3284 158.842,82.6618 158.5,83.5C 157.448,83.3505 156.448,83.5172 155.5,84C 156.747,85.4936 156.747,86.9936 155.5,88.5C 154.833,87.5 154.167,86.5 153.5,85.5C 153.331,86.3966 152.998,87.3966 152.5,88.5C 151.482,87.8075 150.482,87.1408 149.5,86.5C 148.304,81.6158 150.304,78.2824 155.5,76.5 Z"/></g>
<g><path style="opacity:1" fill="#fec90d" d="M 170.5,80.5 C 170.557,81.609 170.89,82.609 171.5,83.5C 169.801,83.4729 168.467,82.8062 167.5,81.5C 167.672,80.5084 167.338,79.8417 166.5,79.5C 166.5,78.5 166.5,77.5 166.5,76.5C 167.5,76.5 168.5,76.5 169.5,76.5C 169.232,78.099 169.566,79.4324 170.5,80.5 Z"/></g>
<g><path style="opacity:1" fill="#fefffe" d="M 178.5,76.5 C 184.037,76.0866 189.37,76.9199 194.5,79C 196.107,80.049 196.773,81.549 196.5,83.5C 191.685,82.6856 187.019,81.3522 182.5,79.5C 179.978,80.762 177.311,81.4287 174.5,81.5C 175.833,79.8333 177.167,78.1667 178.5,76.5 Z"/></g>
<g><path style="opacity:1" fill="#fec90d" d="M 199.5,82.5 C 199.833,83.5 200.5,84.1667 201.5,84.5C 201.833,85.1667 202.167,85.8333 202.5,86.5C 201.391,86.4431 200.391,86.1098 199.5,85.5C 197.86,84.2099 197.36,82.5433 198,80.5C 198.278,81.4158 198.778,82.0825 199.5,82.5 Z"/></g>
<g><path style="opacity:1" fill="#c6c6c6" d="M 201.5,84.5 C 200.5,84.1667 199.833,83.5 199.5,82.5C 199.389,80.3523 200.056,80.019 201.5,81.5C 202.776,82.6136 202.776,83.6136 201.5,84.5 Z"/></g>
<g><path style="opacity:1" fill="#ec1c23" d="M 174.5,81.5 C 176.22,82.3077 177.887,83.3077 179.5,84.5C 181.529,86.8585 183.529,89.1918 185.5,91.5C 185.795,93.7354 185.461,95.7354 184.5,97.5C 184.228,94.2678 182.562,92.2678 179.5,91.5C 179.082,90.7784 178.416,90.2784 177.5,90C 174.854,89.5026 172.187,89.3359 169.5,89.5C 169.259,87.1137 169.925,85.1137 171.5,83.5C 172.5,82.8333 173.5,82.1667 174.5,81.5 Z"/></g>
<g><path style="opacity:1" fill="#989898" d="M 211.5,116.5 C 209.343,117.407 207.01,118.073 204.5,118.5C 202.976,117.826 201.642,116.826 200.5,115.5C 194.597,118.406 189.597,122.406 185.5,127.5C 182.785,125.098 180.285,122.432 178,119.5C 176.824,115.973 175.658,112.473 174.5,109C 175.094,108.536 175.761,108.369 176.5,108.5C 178.265,109.461 180.265,109.795 182.5,109.5C 183.583,109.461 184.583,109.127 185.5,108.5C 187.803,105.884 189.136,102.884 189.5,99.5C 189.324,96.2727 188.657,93.2727 187.5,90.5C 186.079,87.9906 184.412,85.6572 182.5,83.5C 181.537,82.6365 181.537,81.9698 182.5,81.5C 197.226,88.2303 207.559,99.2303 213.5,114.5C 212.757,115.182 212.091,115.849 211.5,116.5 Z"/></g>
<g><path style="opacity:1" fill="#dedede" d="M 182.5,83.5 C 184.412,85.6572 186.079,87.9906 187.5,90.5C 187.215,93.8291 187.882,96.8291 189.5,99.5C 189.136,102.884 187.803,105.884 185.5,108.5C 184.583,109.127 183.583,109.461 182.5,109.5C 182.5,108.833 182.5,108.167 182.5,107.5C 183.492,107.672 184.158,107.338 184.5,106.5C 187.218,104.618 187.885,102.285 186.5,99.5C 186.806,96.6146 186.473,93.9479 185.5,91.5C 183.529,89.1918 181.529,86.8585 179.5,84.5C 179.369,83.7611 179.536,83.0944 180,82.5C 180.671,83.2524 181.504,83.5858 182.5,83.5 Z"/></g>
<g><path style="opacity:1" fill="#bebebe" d="M 207.5,89.5 C 207.565,89.9382 207.399,90.2716 207,90.5C 205.905,89.3066 205.072,87.9733 204.5,86.5C 203.588,85.2618 203.421,83.9285 204,82.5C 206.244,84.3206 207.41,86.654 207.5,89.5 Z"/></g>
<g><path style="opacity:1" fill="#c2c3c2" d="M 140.5,83.5 C 145.797,84.0325 145.797,84.8658 140.5,86C 109.622,91.5364 78.622,95.8698 47.5,99C 78.7032,94.2439 109.703,89.0772 140.5,83.5 Z"/></g>
<g><path style="opacity:1" fill="#fefffe" d="M 158.5,83.5 C 159.782,84.7082 159.782,86.0416 158.5,87.5C 157.374,86.1916 157.374,84.8583 158.5,83.5 Z"/></g>
<g><path style="opacity:1" fill="#dedede" d="M 199.5,85.5 C 200.391,86.1098 201.391,86.4431 202.5,86.5C 203.8,89.4323 205.8,91.7656 208.5,93.5C 209.222,93.0825 209.722,92.4158 210,91.5C 213.616,95.9951 214.949,100.995 214,106.5C 216.095,111.646 218.261,116.646 220.5,121.5C 219.833,121.5 219.167,121.5 218.5,121.5C 217.5,120.5 216.5,119.5 215.5,118.5C 213.025,104.455 205.692,93.2888 193.5,85C 195.488,84.8195 197.488,84.9862 199.5,85.5 Z"/></g>
<g><path style="opacity:1" fill="#fec90d" d="M 202.5,86.5 C 203.167,86.5 203.833,86.5 204.5,86.5C 205.072,87.9733 205.905,89.3066 207,90.5C 207.399,90.2716 207.565,89.9382 207.5,89.5C 208.434,90.5676 208.768,91.901 208.5,93.5C 205.8,91.7656 203.8,89.4323 202.5,86.5 Z"/></g>
<g><path style="opacity:1" fill="#fefffe" d="M 138.5,89.5 C 140.527,89.3379 142.527,89.5045 144.5,90C 140.429,93.0253 135.762,94.3587 130.5,94C 128.348,96.12 126.848,98.62 126,101.5C 124.561,99.7254 123.561,97.7254 123,95.5C 122.097,94.2986 120.931,93.4652 119.5,93C 126.01,92.0286 132.343,90.8619 138.5,89.5 Z"/></g>
<g><path style="opacity:1" fill="#3c45c3" d="M 177.5,92.5 C 180.34,95.6823 182.34,99.349 183.5,103.5C 182.849,104.091 182.182,104.757 181.5,105.5C 179.032,103.931 176.366,102.931 173.5,102.5C 166.82,103.502 160.154,104.502 153.5,105.5C 152.594,104.035 151.261,103.035 149.5,102.5C 147.925,103.456 146.258,104.123 144.5,104.5C 143.427,103.749 143.26,102.749 144,101.5C 145.926,99.4611 148.093,97.7945 150.5,96.5C 154.64,94.2103 158.973,93.377 163.5,94C 166.083,92.5687 168.75,91.402 171.5,90.5C 173.693,90.7186 175.693,91.3852 177.5,92.5 Z"/></g>
<g><path style="opacity:1" fill="#000000" d="M 187.5,90.5 C 188.657,93.2727 189.324,96.2727 189.5,99.5C 187.882,96.8291 187.215,93.8291 187.5,90.5 Z"/></g>
<g><path style="opacity:1" fill="#000000" d="M 185.5,91.5 C 186.473,93.9479 186.806,96.6146 186.5,99.5C 185.5,99.1667 184.833,98.5 184.5,97.5C 185.461,95.7354 185.795,93.7354 185.5,91.5 Z"/></g>
<g><path style="opacity:1" fill="#621711" d="M 179.5,91.5 C 182.562,92.2678 184.228,94.2678 184.5,97.5C 184.833,98.5 185.5,99.1667 186.5,99.5C 187.885,102.285 187.218,104.618 184.5,106.5C 183.596,105.791 183.263,104.791 183.5,103.5C 182.34,99.349 180.34,95.6823 177.5,92.5C 177.842,91.6618 178.508,91.3284 179.5,91.5 Z"/></g>
<g><path style="opacity:1" fill="#c2c3c2" d="M 192.5,92.5 C 195.226,92.2639 197.559,93.0972 199.5,95C 202.549,98.4301 204.215,102.43 204.5,107C 204.437,109.281 203.603,111.114 202,112.5C 196.955,106.743 193.788,100.076 192.5,92.5 Z"/></g>
<g><path style="opacity:1" fill="#fefffe" d="M 150.5,96.5 C 148.093,97.7945 145.926,99.4611 144,101.5C 143.26,102.749 143.427,103.749 144.5,104.5C 144.842,105.338 145.508,105.672 146.5,105.5C 144.107,106.21 141.607,106.877 139,107.5C 138.292,106.619 137.458,105.953 136.5,105.5C 136.027,104.094 135.027,103.427 133.5,103.5C 132.119,101.726 132.452,100.226 134.5,99C 137.833,98.6667 141.167,98.3333 144.5,98C 146.205,95.5719 148.205,95.0719 150.5,96.5 Z"/></g>
<g><path style="opacity:1" fill="#1d1e1d" d="M 88.5,98.5 C 91.605,98.7817 94.4383,99.7817 97,101.5C 103.84,100.734 110.34,99.7343 116.5,98.5C 118.615,101.137 120.115,104.137 121,107.5C 121.925,108.047 122.758,108.713 123.5,109.5C 119.424,113.748 114.924,117.415 110,120.5C 104.594,117.547 99.094,114.713 93.5,112C 88.2074,111.023 82.8741,110.523 77.5,110.5C 77.3482,106.513 75.3482,105.013 71.5,106C 67.6865,108.647 64.3531,111.813 61.5,115.5C 61.5696,110.562 63.903,106.729 68.5,104C 73.4057,102.524 78.4057,101.524 83.5,101C 85.4913,100.626 87.158,99.793 88.5,98.5 Z"/></g>
<g><path style="opacity:1" fill="#212677" d="M 153.5,105.5 C 152.359,106.339 151.026,107.006 149.5,107.5C 148.735,106.388 147.735,105.721 146.5,105.5C 145.508,105.672 144.842,105.338 144.5,104.5C 146.258,104.123 147.925,103.456 149.5,102.5C 151.261,103.035 152.594,104.035 153.5,105.5 Z"/></g>
<g><path style="opacity:1" fill="#850114" d="M 133.5,103.5 C 135.027,103.427 136.027,104.094 136.5,105.5C 133.977,106.384 131.31,107.218 128.5,108C 111.312,127.208 93.3119,144.541 74.5,160C 70.9368,165.065 66.6035,169.232 61.5,172.5C 84.2848,148.045 108.285,125.045 133.5,103.5 Z"/></g>
<g><path style="opacity:1" fill="#b60f16" d="M 182.5,107.5 C 180.621,108.341 178.621,108.675 176.5,108.5C 174.73,107.236 173.063,105.736 171.5,104C 175.545,104.025 179.212,105.192 182.5,107.5 Z"/></g>
<g><path style="opacity:1" fill="#fec90d" d="M 227.5,109.5 C 227.167,108.5 226.5,107.833 225.5,107.5C 223.369,106.686 221.036,106.186 218.5,106C 221.167,105.333 223.833,105.333 226.5,106C 228.311,107.041 228.645,108.207 227.5,109.5 Z"/></g>
<g><path style="opacity:1" fill="#83542d" d="M 72.5,107.5 C 73.9953,107.415 74.9953,108.081 75.5,109.5C 74.6677,112.161 73.8344,114.828 73,117.5C 59.2387,123.385 58.0721,121.218 69.5,111C 70.4491,110.383 71.2825,110.549 72,111.5C 72.4561,110.256 71.9561,109.423 70.5,109C 71.4158,108.722 72.0825,108.222 72.5,107.5 Z"/></g>
<g><path style="opacity:1" fill="#1d1e1d" d="M 132.5,107.5 C 134.262,107.357 135.929,107.691 137.5,108.5C 138.962,111.986 140.295,115.486 141.5,119C 145.797,120.158 150.131,121.158 154.5,122C 148.25,127.045 141.417,131.212 134,134.5C 128.555,130.864 123.055,127.364 117.5,124C 122.381,118.29 127.381,112.79 132.5,107.5 Z"/></g>
<g><path style="opacity:1" fill="#000000" d="M 182.5,107.5 C 182.5,108.167 182.5,108.833 182.5,109.5C 180.265,109.795 178.265,109.461 176.5,108.5C 178.621,108.675 180.621,108.341 182.5,107.5 Z"/></g>
<g><path style="opacity:1" fill="#b37654" d="M 225.5,107.5 C 226.5,107.833 227.167,108.5 227.5,109.5C 226.824,113.187 225.324,116.52 223,119.5C 220.316,116.298 218.483,112.632 217.5,108.5C 220.086,107.52 222.753,107.187 225.5,107.5 Z"/></g>
<g><path style="opacity:1" fill="#fefffe" d="M 165.5,109.5 C 166.822,109.33 167.989,109.663 169,110.5C 170.119,115.149 171.619,119.649 173.5,124C 173,124.167 172.5,124.333 172,124.5C 168.288,123.231 164.622,123.231 161,124.5C 161.053,121.387 159.886,118.887 157.5,117C 153.665,116.293 149.998,115.126 146.5,113.5C 152.959,112.108 159.293,110.775 165.5,109.5 Z M 159.5,112.5 C 158.737,113.268 157.737,113.768 156.5,114C 160.57,114.899 162.57,117.399 162.5,121.5C 164.924,121.808 167.257,121.474 169.5,120.5C 168.518,117.904 167.851,115.238 167.5,112.5C 164.833,112.5 162.167,112.5 159.5,112.5 Z"/></g>
<g><path style="opacity:1" fill="#784d2a" d="M 79.5,115.5 C 76.8579,119.775 73.5246,123.442 69.5,126.5C 67.9897,125.164 66.3231,123.997 64.5,123C 71.5197,122.807 75.5197,119.307 76.5,112.5C 78.1992,112.34 79.8659,112.506 81.5,113C 80.6195,113.708 79.9528,114.542 79.5,115.5 Z"/></g>
<g><path style="opacity:1" fill="#870014" d="M 84.5,112.5 C 85.9889,119.64 87.1555,126.973 88,134.5C 90.887,138.509 90.5536,141.842 87,144.5C 85.8372,142.715 85.1705,140.715 85,138.5C 83.8232,129.773 83.6565,121.106 84.5,112.5 Z"/></g>
<g><path style="opacity:1" fill="#6c4624" d="M 103.5,126.5 C 101.095,125.602 99.0948,124.102 97.5,122C 94.6907,120.259 91.6907,119.092 88.5,118.5C 87.6993,116.958 87.366,115.292 87.5,113.5C 95.2069,115.019 102.207,118.185 108.5,123C 107.211,124.802 105.544,125.969 103.5,126.5 Z"/></g>
<g><path style="opacity:1" fill="#870014" d="M 79.5,115.5 C 81.8418,116.211 82.1751,117.544 80.5,119.5C 77.4838,122.52 74.8171,125.854 72.5,129.5C 71.1667,128.833 70.1667,127.833 69.5,126.5C 73.5246,123.442 76.8579,119.775 79.5,115.5 Z"/></g>
<g><path style="opacity:1" fill="#520f0f" d="M 204.5,118.5 C 197.866,121.83 191.866,126.163 186.5,131.5C 185.566,130.432 185.232,129.099 185.5,127.5C 189.597,122.406 194.597,118.406 200.5,115.5C 201.642,116.826 202.976,117.826 204.5,118.5 Z"/></g>
<g><path style="opacity:1" fill="#ec1c23" d="M 211.5,116.5 C 213.199,116.527 214.533,117.194 215.5,118.5C 215.5,119.5 215.5,120.5 215.5,121.5C 208.341,123.085 201.674,125.751 195.5,129.5C 192.547,130.787 190.214,132.787 188.5,135.5C 187.655,134.329 186.989,132.995 186.5,131.5C 191.866,126.163 197.866,121.83 204.5,118.5C 207.01,118.073 209.343,117.407 211.5,116.5 Z"/></g>
<g><path style="opacity:1" fill="#870014" d="M 55.5,118.5 C 62.7,123.189 69.2,128.856 75,135.5C 77.3124,138.979 80.1458,141.979 83.5,144.5C 84.8229,146.204 84.4896,147.537 82.5,148.5C 78.8489,144.348 75.0156,140.348 71,136.5C 65.601,130.608 60.4343,124.608 55.5,118.5 Z"/></g>
<g><path style="opacity:1" fill="#945f32" d="M 88.5,118.5 C 91.6907,119.092 94.6907,120.259 97.5,122C 99.0948,124.102 101.095,125.602 103.5,126.5C 99.5032,130.665 95.6699,134.998 92,139.5C 89.5366,132.719 88.3699,125.719 88.5,118.5 Z"/></g>
<g><path style="opacity:1" fill="#000000" d="M 215.5,118.5 C 216.5,119.5 217.5,120.5 218.5,121.5C 217.5,121.5 216.5,121.5 215.5,121.5C 215.5,120.5 215.5,119.5 215.5,118.5 Z"/></g>
<g><path style="opacity:1" fill="#88572f" d="M 80.5,119.5 C 82.0678,126.685 82.9012,134.018 83,141.5C 79.2567,137.656 75.7567,133.656 72.5,129.5C 74.8171,125.854 77.4838,122.52 80.5,119.5 Z"/></g>
<g><path style="opacity:1" fill="#fefffe" d="M 215.5,121.5 C 216.5,121.5 217.5,121.5 218.5,121.5C 217.833,122.167 217.167,122.833 216.5,123.5C 216.167,123.5 215.833,123.5 215.5,123.5C 213.402,122.516 211.402,122.849 209.5,124.5C 207.847,124.66 206.514,125.326 205.5,126.5C 202.139,127.556 198.806,128.556 195.5,129.5C 201.674,125.751 208.341,123.085 215.5,121.5 Z"/></g>
<g><path style="opacity:1" fill="#1b1b1b" d="M 218.5,121.5 C 219.167,121.5 219.833,121.5 220.5,121.5C 223.253,122.022 225.92,122.856 228.5,124C 231.216,127.261 234.049,130.428 237,133.5C 237.483,134.448 237.649,135.448 237.5,136.5C 234.833,137.5 232.167,138.5 229.5,139.5C 228.094,139.027 227.427,138.027 227.5,136.5C 227.167,135.5 226.5,134.833 225.5,134.5C 222.036,131.054 219.036,127.387 216.5,123.5C 217.167,122.833 217.833,122.167 218.5,121.5 Z"/></g>
<g><path style="opacity:1" fill="#945f32" d="M 56.5,140.5 C 52.154,144.513 48.154,148.846 44.5,153.5C 41.675,150.505 39.0083,147.338 36.5,144C 41.3866,138.114 45.8866,131.947 50,125.5C 51.586,124.624 53.086,123.624 54.5,122.5C 57.6511,125.15 60.6511,127.984 63.5,131C 60.9245,134.063 58.5912,137.229 56.5,140.5 Z"/></g>
<g><path style="opacity:1" fill="#870014" d="M 155.5,123.5 C 156.097,123.735 156.43,124.235 156.5,125C 151.218,129.982 145.218,133.982 138.5,137C 120.605,142.78 103.272,149.947 86.5,158.5C 81.3059,156.828 81.3059,154.995 86.5,153C 107.593,147.284 127.926,139.618 147.5,130C 150.355,127.969 153.022,125.803 155.5,123.5 Z"/></g>
<g><path style="opacity:1" fill="#393ca3" d="M 215.5,123.5 C 215.833,123.5 216.167,123.5 216.5,123.5C 216.343,124.873 216.51,126.207 217,127.5C 222.946,132.834 225.446,139.501 224.5,147.5C 224.736,150.226 223.903,152.559 222,154.5C 219.857,151.228 218.024,147.895 216.5,144.5C 215.833,144.5 215.5,144.167 215.5,143.5C 216.478,141.336 217.478,139.17 218.5,137C 216.553,133 214.886,128.834 213.5,124.5C 213.957,123.702 214.624,123.369 215.5,123.5 Z"/></g>
<g><path style="opacity:1" fill="#fefffe" d="M 216.5,123.5 C 219.036,127.387 222.036,131.054 225.5,134.5C 225.818,139.032 225.485,143.366 224.5,147.5C 225.446,139.501 222.946,132.834 217,127.5C 216.51,126.207 216.343,124.873 216.5,123.5 Z"/></g>
<g><path style="opacity:1" fill="#eeeeef" d="M 209.5,124.5 C 210.675,124.281 211.675,124.614 212.5,125.5C 213.689,129.574 215.355,133.407 217.5,137C 217.333,138.5 216.5,139.333 215,139.5C 213.02,138.685 211.52,137.352 210.5,135.5C 214.394,137.105 215.227,136.105 213,132.5C 212.617,133.056 212.117,133.389 211.5,133.5C 211.283,129.94 210.283,129.94 208.5,133.5C 207.264,131.351 206.264,129.018 205.5,126.5C 206.514,125.326 207.847,124.66 209.5,124.5 Z"/></g>
<g><path style="opacity:1" fill="#6c4624" d="M 121.5,138.5 C 118.165,135.161 114.165,132.828 109.5,131.5C 111.127,129.37 112.96,127.37 115,125.5C 119.258,128.38 123.758,130.88 128.5,133C 129.167,133.667 129.833,134.333 130.5,135C 127.673,136.664 124.673,137.83 121.5,138.5 Z"/></g>
<g><path style="opacity:1" fill="#f6f1d6" d="M 180.5,170.5 C 171.356,163.417 162.356,156.083 153.5,148.5C 152.968,145.51 153.468,142.51 155,139.5C 156.8,135.709 159.3,132.543 162.5,130C 176.786,128.259 184.619,134.759 186,149.5C 187.067,150.191 188.234,150.691 189.5,151C 186.899,156.874 184.565,162.874 182.5,169C 182.164,170.03 181.497,170.53 180.5,170.5 Z"/></g>
<g><path style="opacity:1" fill="#ec1c23" d="M 215.5,143.5 C 215.5,144.167 215.833,144.5 216.5,144.5C 216.631,145.239 216.464,145.906 216,146.5C 211.652,141.985 207.152,137.651 202.5,133.5C 201.548,131.955 201.215,130.288 201.5,128.5C 204.888,128.874 206.722,130.874 207,134.5C 209.396,137.999 212.229,140.999 215.5,143.5 Z"/></g>
<g><path style="opacity:1" fill="#e6dcae" d="M 195.5,129.5 C 197.323,136.362 197.823,143.362 197,150.5C 196.312,154.209 194.812,157.543 192.5,160.5C 191.352,158.65 190.019,157.983 188.5,158.5C 193.072,150.731 193.072,143.065 188.5,135.5C 190.214,132.787 192.547,130.787 195.5,129.5 Z"/></g>
<g><path style="opacity:1" fill="#222882" d="M 211.5,133.5 C 210.5,133.5 209.5,133.5 208.5,133.5C 210.283,129.94 211.283,129.94 211.5,133.5 Z"/></g>
<g><path style="opacity:1" fill="#870014" d="M 64.5,131.5 C 66.7565,132.562 67.9232,134.228 68,136.5C 66.1978,135.211 65.0312,133.544 64.5,131.5 Z"/></g>
<g><path style="opacity:1" fill="#915c31" d="M 109.5,131.5 C 114.165,132.828 118.165,135.161 121.5,138.5C 111.604,143.299 101.27,146.799 90.5,149C 97.0036,143.329 103.337,137.495 109.5,131.5 Z"/></g>
<g><path style="opacity:1" fill="#fefffe" d="M 200.5,154.5 C 199.909,153.849 199.243,153.182 198.5,152.5C 199.541,145.511 199.708,138.511 199,131.5C 201.107,139.227 201.607,146.894 200.5,154.5 Z"/></g>
<g><path style="opacity:1" fill="#131313" d="M 50.5,131.5 C 53.4245,131.46 56.0912,132.293 58.5,134C 56.1311,134.536 54.1311,135.703 52.5,137.5C 50.6666,136.948 48.9999,136.115 47.5,135C 48.7101,133.961 49.7101,132.794 50.5,131.5 Z"/></g>
<g><path style="opacity:1" fill="#1d1e1d" d="M 150.5,132.5 C 152.484,132.383 154.15,133.05 155.5,134.5C 152.993,138.513 151.16,142.847 150,147.5C 146.764,144.129 142.931,141.629 138.5,140C 142.407,137.241 146.407,134.741 150.5,132.5 Z"/></g>
<g><path style="opacity:1" fill="#222882" d="M 210.5,135.5 C 210.833,134.833 211.167,134.167 211.5,133.5C 212.117,133.389 212.617,133.056 213,132.5C 215.227,136.105 214.394,137.105 210.5,135.5 Z"/></g>
<g><path style="opacity:1" fill="#fefffe" d="M 50.5,133.5 C 51.2891,133.783 51.9558,134.283 52.5,135C 51.184,135.528 50.5173,135.028 50.5,133.5 Z"/></g>
<g><path style="opacity:1" fill="#fefffe" d="M 208.5,133.5 C 209.5,133.5 210.5,133.5 211.5,133.5C 211.167,134.167 210.833,134.833 210.5,135.5C 209.5,135.167 208.833,134.5 208.5,133.5 Z"/></g>
<g><path style="opacity:1" fill="#eee4af" d="M 209.5,143.5 C 207.326,146.515 205.659,149.849 204.5,153.5C 203.319,148.011 202.819,142.344 203,136.5C 205.372,138.703 207.539,141.037 209.5,143.5 Z"/></g>
<g><path style="opacity:1" fill="#fefffe" d="M 227.5,136.5 C 227.427,138.027 228.094,139.027 229.5,139.5C 230.11,140.391 230.443,141.391 230.5,142.5C 229.167,143.167 228.167,144.167 227.5,145.5C 226.167,142.5 226.167,139.5 227.5,136.5 Z"/></g>
<g><path style="opacity:1" fill="#870014" d="M 63.5,140.5 C 63.1583,139.662 62.4916,139.328 61.5,139.5C 62.5619,137.121 63.8952,137.121 65.5,139.5C 65.0431,140.298 64.3764,140.631 63.5,140.5 Z"/></g>
<g><path style="opacity:1" fill="#945f32" d="M 68.5,138.5 C 70.1958,138.685 71.5291,139.519 72.5,141C 69.3333,143.5 66.1667,146 63,148.5C 64.5223,145.132 66.3557,141.799 68.5,138.5 Z"/></g>
<g><path style="opacity:1" fill="#4f4f4f" d="M 61.5,139.5 C 62.4916,139.328 63.1583,139.662 63.5,140.5C 63.7148,142.179 63.0481,143.179 61.5,143.5C 60.1529,142.829 58.9862,142.829 58,143.5C 57.4153,142.002 57.9153,141.002 59.5,140.5C 60.1667,140.167 60.8333,139.833 61.5,139.5 Z"/></g>
<g><path style="opacity:1" fill="#664223" d="M 141.5,154.5 C 140.791,155.404 139.791,155.737 138.5,155.5C 139.167,159.5 137.5,161.167 133.5,160.5C 135.043,153.389 133.043,147.722 127.5,143.5C 130.291,142.281 133.124,140.948 136,139.5C 136.374,140.416 136.874,141.25 137.5,142C 140.912,143.455 144.079,145.288 147,147.5C 147.49,148.793 147.657,150.127 147.5,151.5C 145.5,151.5 143.5,151.5 141.5,151.5C 141.5,152.5 141.5,153.5 141.5,154.5 Z"/></g>
<g><path style="opacity:1" fill="#9f1415" d="M 254.5,143.5 C 252.052,144.473 249.385,144.806 246.5,144.5C 242.5,144.5 238.5,144.5 234.5,144.5C 241.462,141.583 248.795,140.417 256.5,141C 256.833,141.333 257.167,141.667 257.5,142C 256.263,142.232 255.263,142.732 254.5,143.5 Z"/></g>
<g><path style="opacity:1" fill="#780713" d="M 59.5,140.5 C 57.9153,141.002 57.4153,142.002 58,143.5C 58.9862,142.829 60.1529,142.829 61.5,143.5C 58.3052,149.541 54.4718,155.208 50,160.5C 48.2029,159.073 47.0362,157.24 46.5,155C 49.7069,149.981 53.0402,145.147 56.5,140.5C 57.4584,140.047 58.2917,139.381 59,138.5C 59.4643,139.094 59.631,139.761 59.5,140.5 Z"/></g>
<g><path style="opacity:1" fill="#212471" d="M 230.5,142.5 C 232.062,142.733 233.395,143.4 234.5,144.5C 234.328,145.492 234.662,146.158 235.5,146.5C 239.833,146.5 244.167,146.5 248.5,146.5C 252.767,146.797 256.934,146.464 261,145.5C 262.188,146.563 262.688,147.897 262.5,149.5C 253.136,150.155 243.802,150.322 234.5,150C 233.667,150.833 232.833,151.667 232,152.5C 231.824,156.688 231.324,160.688 230.5,164.5C 228.992,162.819 227.992,160.819 227.5,158.5C 225.286,154.066 225.286,149.732 227.5,145.5C 228.167,144.167 229.167,143.167 230.5,142.5 Z"/></g>
<g><path style="opacity:1" fill="#870014" d="M 72.5,143.5 C 75.999,143.259 76.3323,144.092 73.5,146C 67.5768,148.876 62.0768,152.376 57,156.5C 56.3828,155.551 56.5494,154.718 57.5,154C 62.9164,150.97 67.9164,147.47 72.5,143.5 Z"/></g>
<g><path style="opacity:1" fill="#905c31" d="M 127.5,143.5 C 133.043,147.722 135.043,153.389 133.5,160.5C 133.66,162.199 133.494,163.866 133,165.5C 132.023,166.774 131.189,166.774 130.5,165.5C 129.791,164.596 128.791,164.263 127.5,164.5C 127.263,165.791 127.596,166.791 128.5,167.5C 129.525,167.897 129.692,168.563 129,169.5C 124.01,170.432 123.51,172.265 127.5,175C 125.713,176.319 123.713,177.152 121.5,177.5C 120.093,181.239 117.426,183.572 113.5,184.5C 109.491,174.133 105.491,163.8 101.5,153.5C 109.868,149.66 118.534,146.326 127.5,143.5 Z"/></g>
<g><path style="opacity:1" fill="#e3d9a7" d="M 209.5,143.5 C 212.123,144.953 213.79,147.12 214.5,150C 212.774,159.95 208.274,168.45 201,175.5C 199.779,174.226 198.946,172.726 198.5,171C 200.807,165.244 202.807,159.411 204.5,153.5C 205.659,149.849 207.326,146.515 209.5,143.5 Z"/></g>
<g><path style="opacity:1" fill="#fefffe" d="M 254.5,143.5 C 256.288,143.215 257.955,143.548 259.5,144.5C 255.687,145.167 252.021,145.834 248.5,146.5C 244.167,146.5 239.833,146.5 235.5,146.5C 239.167,145.833 242.833,145.167 246.5,144.5C 249.385,144.806 252.052,144.473 254.5,143.5 Z"/></g>
<g><path style="opacity:1" fill="#000000" d="M 234.5,144.5 C 238.5,144.5 242.5,144.5 246.5,144.5C 242.833,145.167 239.167,145.833 235.5,146.5C 234.662,146.158 234.328,145.492 234.5,144.5 Z"/></g>
<g><path style="opacity:1" fill="#810314" d="M 60.5,159.5 C 64.4268,159.074 68.0935,158.074 71.5,156.5C 72.2389,156.369 72.9056,156.536 73.5,157C 71.0419,160.449 67.7086,162.449 63.5,163C 61.3333,165.167 59.1667,167.333 57,169.5C 56.7741,173.109 58.2741,174.109 61.5,172.5C 55.8822,177.644 49.2156,179.477 41.5,178C 39.3498,176.808 38.6832,175.308 39.5,173.5C 40.2905,172.599 41.2905,171.932 42.5,171.5C 44.7035,174.197 47.5369,175.863 51,176.5C 56.7761,175.974 57.6094,173.974 53.5,170.5C 47.5979,174.216 44.2646,172.549 43.5,165.5C 44.3311,163.527 44.4978,161.527 44,159.5C 40.6667,156.167 37.3333,152.833 34,149.5C 33.6848,148.092 34.0181,146.759 35,145.5C 39.4562,151.625 44.2895,157.458 49.5,163C 51.3867,163.163 52.8867,162.329 54,160.5C 54.414,160.957 54.914,161.291 55.5,161.5C 57.3361,160.972 59.0028,160.306 60.5,159.5 Z"/></g>
<g><path style="opacity:1" fill="#634022" d="M 71.5,156.5 C 68.0935,158.074 64.4268,159.074 60.5,159.5C 59.1266,159.657 57.7932,159.49 56.5,159C 63.0996,154.45 69.9329,150.284 77,146.5C 79.3,147.439 80.3,149.106 80,151.5C 77.4692,153.903 74.6359,155.57 71.5,156.5 Z"/></g>
<g><path style="opacity:1" fill="#5f0e11" d="M 153.5,148.5 C 162.356,156.083 171.356,163.417 180.5,170.5C 181.72,172.284 181.72,173.95 180.5,175.5C 170.242,168.903 160.575,161.57 151.5,153.5C 150.566,151.313 151.233,149.646 153.5,148.5 Z"/></g>
<g><path style="opacity:1" fill="#6c4624" d="M 31.5,150.5 C 34.6306,153.129 37.6306,155.962 40.5,159C 39.5838,159.374 38.7504,159.874 38,160.5C 37.6943,162.906 36.861,165.073 35.5,167C 36.1476,168.44 36.4809,169.94 36.5,171.5C 33.915,171.568 31.5817,172.068 29.5,173C 25.8872,170.94 25.5539,168.44 28.5,165.5C 27.1667,164.167 25.8333,162.833 24.5,161.5C 27.2811,158.066 29.6144,154.399 31.5,150.5 Z"/></g>
<g><path style="opacity:1" fill="#fefffe" d="M 250.5,152.5 C 254.566,151.178 258.733,151.178 263,152.5C 263.828,156.871 263.661,161.205 262.5,165.5C 253.594,168.125 244.594,168.625 235.5,167C 235,166.5 234.5,166 234,165.5C 233.333,161.5 233.333,157.5 234,153.5C 234.5,153 235,152.5 235.5,152C 240.456,152.251 245.456,152.418 250.5,152.5 Z"/></g>
<g><path style="opacity:1" fill="#ec1c23" d="M 129.5,183.5 C 129.12,185.698 129.787,187.365 131.5,188.5C 132.5,190.167 133.833,191.5 135.5,192.5C 135.973,193.906 136.973,194.573 138.5,194.5C 139.987,195.804 141.654,196.97 143.5,198C 148.305,198.217 152.972,199.051 157.5,200.5C 157.5,201.5 157.5,202.5 157.5,203.5C 156.185,202.524 154.852,201.524 153.5,200.5C 152.167,201.5 150.833,202.5 149.5,203.5C 148.108,202.395 146.941,201.061 146,199.5C 144.624,200.705 143.458,202.038 142.5,203.5C 141.1,202.9 140.1,201.9 139.5,200.5C 138.081,199.549 136.415,199.216 134.5,199.5C 134.768,197.901 134.434,196.568 133.5,195.5C 132.432,194.566 131.099,194.232 129.5,194.5C 129.5,193.5 129.5,192.5 129.5,191.5C 130.738,191.19 130.738,190.69 129.5,190C 127.833,189.667 126.167,189.333 124.5,189C 126.983,188.433 127.65,187.267 126.5,185.5C 125.391,184.71 124.058,184.21 122.5,184C 126.973,182.98 127.306,181.813 123.5,180.5C 122.833,179.5 122.167,178.5 121.5,177.5C 123.713,177.152 125.713,176.319 127.5,175C 123.51,172.265 124.01,170.432 129,169.5C 129.692,168.563 129.525,167.897 128.5,167.5C 128.5,166.167 129.167,165.5 130.5,165.5C 131.189,166.774 132.023,166.774 133,165.5C 133.494,163.866 133.66,162.199 133.5,160.5C 137.5,161.167 139.167,159.5 138.5,155.5C 139.791,155.737 140.791,155.404 141.5,154.5C 143.126,152.757 145.126,152.257 147.5,153C 140.293,158.54 134.126,165.04 129,172.5C 127.271,176.321 127.437,179.987 129.5,183.5 Z"/></g>
<g><path style="opacity:1" fill="#000000" d="M 250.5,153.5 C 250.5,153.167 250.5,152.833 250.5,152.5C 253.833,152.5 257.167,152.5 260.5,152.5C 260.815,156.371 260.482,160.038 259.5,163.5C 259.5,160.167 259.5,156.833 259.5,153.5C 256.5,153.5 253.5,153.5 250.5,153.5 Z"/></g>
<g><path style="opacity:1" fill="#6c4624" d="M 101.5,153.5 C 105.491,163.8 109.491,174.133 113.5,184.5C 110.07,183.286 106.736,181.786 103.5,180C 99.5414,173.917 95.7081,167.751 92,161.5C 90.9326,160.809 89.7659,160.309 88.5,160C 92.8599,157.82 97.1932,155.653 101.5,153.5 Z"/></g>
<g><path style="opacity:1" fill="#f3edd3" d="M 151.5,153.5 C 160.575,161.57 170.242,168.903 180.5,175.5C 179.739,176.391 178.739,177.058 177.5,177.5C 176.093,183.134 176.926,188.468 180,193.5C 180.781,198.917 180.615,204.25 179.5,209.5C 178.609,208.89 177.609,208.557 176.5,208.5C 175.791,207.596 174.791,207.263 173.5,207.5C 170.35,203.925 166.35,201.925 161.5,201.5C 160.432,200.566 159.099,200.232 157.5,200.5C 152.972,199.051 148.305,198.217 143.5,198C 141.654,196.97 139.987,195.804 138.5,194.5C 138.027,193.094 137.027,192.427 135.5,192.5C 133.833,191.5 132.5,190.167 131.5,188.5C 131.204,186.597 130.537,184.93 129.5,183.5C 129.708,175.249 133.041,168.416 139.5,163C 143.394,159.596 147.394,156.429 151.5,153.5 Z"/></g>
<g><path style="opacity:1" fill="#f7f7f7" d="M 218.5,184.5 C 217.662,184.158 217.328,183.492 217.5,182.5C 221.226,174.26 223.059,165.594 223,156.5C 223.915,155.672 224.581,154.672 225,153.5C 224.804,159.452 224.47,165.452 224,171.5C 222.818,176.243 220.985,180.576 218.5,184.5 Z"/></g>
<g><path style="opacity:1" fill="#20236a" d="M 250.5,153.5 C 253.5,153.5 256.5,153.5 259.5,153.5C 259.5,156.833 259.5,160.167 259.5,163.5C 251.765,164.827 243.932,164.827 236,163.5C 235.216,160.24 235.383,157.073 236.5,154C 241.155,153.501 245.821,153.334 250.5,153.5 Z"/></g>
<g><path style="opacity:1" fill="#fec90d" d="M 200.5,154.5 C 200.715,156.179 200.048,157.179 198.5,157.5C 197.326,155.632 197.993,154.632 200.5,154.5 Z"/></g>
<g><path style="opacity:1" fill="#fefffe" d="M 244.5,156.5 C 246.364,155.207 248.364,155.207 250.5,156.5C 248.808,158.359 247.308,160.359 246,162.5C 245.37,160.097 246.203,158.263 248.5,157C 247.207,156.51 245.873,156.343 244.5,156.5 Z"/></g>
<g><path style="opacity:1" fill="#a1881f" d="M 220.5,164.5 C 217.758,171.049 212.758,174.382 205.5,174.5C 209.171,169.32 212.671,163.986 216,158.5C 217.566,159.061 218.899,158.394 220,156.5C 220.497,159.146 220.664,161.813 220.5,164.5 Z"/></g>
<g><path style="opacity:1" fill="#fefffe" d="M 198.5,157.5 C 199.091,158.151 199.757,158.818 200.5,159.5C 199.431,162.539 198.265,165.539 197,168.5C 192.972,164.456 193.472,160.789 198.5,157.5 Z"/></g>
<g><path style="opacity:1" fill="#ded8c1" d="M 227.5,158.5 C 227.992,160.819 228.992,162.819 230.5,164.5C 231.458,165.962 232.624,167.295 234,168.5C 234.494,170.134 234.66,171.801 234.5,173.5C 232.528,185.449 226.528,194.782 216.5,201.5C 215.399,200.152 214.399,198.652 213.5,197C 222.651,185.708 227.317,172.875 227.5,158.5 Z"/></g>
<g><path style="opacity:1" fill="#a3a4a3" d="M 42.5,171.5 C 41.2905,171.932 40.2905,172.599 39.5,173.5C 38.7839,171.444 38.1172,169.277 37.5,167C 39.1554,165.556 39.822,163.722 39.5,161.5C 40.552,161.351 41.552,161.517 42.5,162C 41.7402,163.441 41.0736,164.941 40.5,166.5C 41.9501,167.85 42.6168,169.516 42.5,171.5 Z"/></g>
<g><path style="opacity:1" fill="#870014" d="M 123.5,180.5 C 121.221,184.462 117.887,186.795 113.5,187.5C 108.528,186.02 103.528,184.52 98.5,183C 96.714,182.215 95.214,181.049 94,179.5C 91.7337,171.072 86.567,165.405 78.5,162.5C 80.8872,162.165 83.5539,161.998 86.5,162C 89.6334,167.813 92.8001,173.647 96,179.5C 96.9025,180.701 98.0692,181.535 99.5,182C 104.266,183.217 108.932,184.717 113.5,186.5C 114.5,186.333 115.5,186.167 116.5,186C 118.441,183.546 120.775,181.713 123.5,180.5 Z"/></g>
<g><path style="opacity:1" fill="#a3a4a3" d="M 189.5,161.5 C 207.559,191.272 225.392,221.272 243,251.5C 243.667,252.5 243.667,253.5 243,254.5C 224.714,224.766 206.548,194.933 188.5,165C 188.989,163.862 189.322,162.695 189.5,161.5 Z"/></g>
<g><path style="opacity:1" fill="#000000" d="M 130.5,165.5 C 129.167,165.5 128.5,166.167 128.5,167.5C 127.596,166.791 127.263,165.791 127.5,164.5C 128.791,164.263 129.791,164.596 130.5,165.5 Z"/></g>
<g><path style="opacity:1" fill="#f6f1d6" d="M 220.5,164.5 C 219.36,174.11 215.527,182.443 209,189.5C 206.7,185.732 204.533,181.898 202.5,178C 202.978,176.358 203.978,175.191 205.5,174.5C 212.758,174.382 217.758,171.049 220.5,164.5 Z"/></g>
<g><path style="opacity:1" fill="#eee4af" d="M 185.5,165.5 C 187.019,168.021 188.686,170.521 190.5,173C 188.323,174.202 185.989,174.702 183.5,174.5C 184.167,171.5 184.833,168.5 185.5,165.5 Z"/></g>
<g><path style="opacity:1" fill="#a3a4a3" d="M 48.5,166.5 C 49.5,166.5 50.5,166.5 51.5,166.5C 51.5,167.5 51.5,168.5 51.5,169.5C 50.5,169.5 49.5,169.5 48.5,169.5C 48.5,168.5 48.5,167.5 48.5,166.5 Z"/></g>
<g><path style="opacity:1" fill="#fefffe" d="M 263.5,167.5 C 264.458,167.953 265.292,168.619 266,169.5C 267.753,183.856 269.586,198.189 271.5,212.5C 257.244,215.299 242.91,217.632 228.5,219.5C 227.718,213.473 226.718,207.473 225.5,201.5C 225.833,200.833 226.167,200.167 226.5,199.5C 228.146,200.779 229.313,202.445 230,204.5C 230.826,207.793 231.326,211.126 231.5,214.5C 243.212,213.541 254.878,212.208 266.5,210.5C 265.551,196.162 264.551,181.829 263.5,167.5 Z"/></g>
<g><path style="opacity:1" fill="#3f48cc" d="M 258.5,168.5 C 259.5,168.5 260.5,168.5 261.5,168.5C 262.405,181.841 263.405,195.175 264.5,208.5C 254.196,210.02 243.863,211.353 233.5,212.5C 233.32,208.424 232.32,204.591 230.5,201C 234.388,201.512 238.221,201.346 242,200.5C 242.758,190.466 242.591,180.466 241.5,170.5C 247.36,170.283 253.027,169.617 258.5,168.5 Z"/></g>
<g><path style="opacity:1" fill="#ec1c23" d="M 238.5,171.5 C 236.198,172.999 236.531,174.332 239.5,175.5C 239.5,175.833 239.5,176.167 239.5,176.5C 233.507,177.615 233.174,179.448 238.5,182C 237.944,182.383 237.611,182.883 237.5,183.5C 236.167,183.5 234.833,183.5 233.5,183.5C 233.232,185.099 233.566,186.432 234.5,187.5C 235.11,188.391 235.443,189.391 235.5,190.5C 233.833,190.5 232.167,190.5 230.5,190.5C 230.5,191.833 230.5,193.167 230.5,194.5C 229.178,194.67 228.011,194.337 227,193.5C 226.506,195.134 226.34,196.801 226.5,198.5C 224.833,198.5 223.167,198.5 221.5,198.5C 221.5,200.5 221.5,202.5 221.5,204.5C 219.011,204.759 217.344,203.759 216.5,201.5C 226.528,194.782 232.528,185.449 234.5,173.5C 235.434,172.432 235.768,171.099 235.5,169.5C 236.873,169.343 238.207,169.51 239.5,170C 238.944,170.383 238.611,170.883 238.5,171.5 Z"/></g>
<g><path style="opacity:1" fill="#870014" d="M 268.5,171.5 C 279.985,172.884 290.985,176.55 301.5,182.5C 301.333,182.833 301.167,183.167 301,183.5C 290.662,178.22 279.829,174.22 268.5,171.5 Z"/></g>
<g><path style="opacity:1" fill="#560f10" d="M 238.5,171.5 C 240.138,172.705 240.471,174.038 239.5,175.5C 236.531,174.332 236.198,172.999 238.5,171.5 Z"/></g>
<g><path style="opacity:1" fill="#925d32" d="M 356.5,304.5 C 354.102,306.974 351.102,308.308 347.5,308.5C 344.525,298.737 339.525,289.903 332.5,282C 316.66,274.55 300.66,267.383 284.5,260.5C 282.962,258.757 281.962,256.757 281.5,254.5C 291.15,254.547 300.817,253.714 310.5,252C 312.667,251.167 314.167,249.667 315,247.5C 316.213,244.232 316.546,240.899 316,237.5C 314.874,236.056 313.374,235.39 311.5,235.5C 306.023,237.327 300.523,238.993 295,240.5C 291.231,240.41 287.731,239.41 284.5,237.5C 283.833,234.833 283.167,232.167 282.5,229.5C 285.142,225.691 287.975,222.024 291,218.5C 291.986,216.222 292.82,213.889 293.5,211.5C 287.176,207.162 280.176,204.162 272.5,202.5C 270.922,192.873 269.755,183.207 269,173.5C 283.863,177.601 297.863,183.601 311,191.5C 318.064,211.259 320.397,231.592 318,252.5C 326.478,258.658 335.645,263.658 345.5,267.5C 346.818,275.861 348.318,284.194 350,292.5C 352.872,296.183 355.038,300.183 356.5,304.5 Z"/></g>
<g><path style="opacity:1" fill="#1e1e1e" d="M 207.5,236.5 C 207.938,236.435 208.272,236.601 208.5,237C 207.142,237.934 205.808,238.768 204.5,239.5C 204.5,241.167 204.5,242.833 204.5,244.5C 201.715,244.067 199.381,242.734 197.5,240.5C 196.019,241.48 194.685,242.647 193.5,244C 191.527,244.495 189.527,244.662 187.5,244.5C 187.643,242.738 187.309,241.071 186.5,239.5C 189.043,237.309 190.709,234.642 191.5,231.5C 190.835,226.519 190.335,221.519 190,216.5C 186.844,204.707 183.01,193.207 178.5,182C 178.756,179.523 180.089,177.856 182.5,177C 185.854,176.545 189.187,176.045 192.5,175.5C 192.334,179.514 192.501,183.514 193,187.5C 194.339,189.665 195.839,191.665 197.5,193.5C 200.252,206.933 202.586,220.433 204.5,234C 204.095,234.945 203.428,235.612 202.5,236C 204.134,236.494 205.801,236.66 207.5,236.5 Z"/></g>
<g><path style="opacity:1" fill="#1d1e1d" d="M 312.5,175.5 C 321.541,175.547 330.208,177.38 338.5,181C 352.277,189.224 366.944,195.224 382.5,199C 394.825,199.825 407.158,200.492 419.5,201C 420.167,201.667 420.833,202.333 421.5,203C 416.13,210.366 409.464,216.366 401.5,221C 398.167,222 394.833,223 391.5,224C 390.842,225.905 389.675,227.405 388,228.5C 384.924,227.712 381.758,227.212 378.5,227C 374.833,224 371.167,221 367.5,218C 365.5,217.333 363.5,217.333 361.5,218C 360.921,222.689 362.755,226.522 367,229.5C 367.374,230.416 367.874,231.25 368.5,232C 363.222,230.531 358.222,228.198 353.5,225C 346.938,217.761 339.271,212.095 330.5,208C 326.301,203.466 321.801,199.299 317,195.5C 313.167,187.667 307.333,181.833 299.5,178C 303.906,176.959 308.239,176.126 312.5,175.5 Z"/></g>
<g><path style="opacity:1" fill="#7c0513" d="M 239.5,176.5 C 240.492,183.982 240.825,191.648 240.5,199.5C 236.19,198.92 231.857,198.586 227.5,198.5C 227.5,197.5 227.5,196.5 227.5,195.5C 228.833,195.5 230.167,195.5 231.5,195.5C 231.5,194.167 231.5,192.833 231.5,191.5C 233.099,191.768 234.432,191.434 235.5,190.5C 235.443,189.391 235.11,188.391 234.5,187.5C 234.5,186.5 234.5,185.5 234.5,184.5C 235.791,184.737 236.791,184.404 237.5,183.5C 237.611,182.883 237.944,182.383 238.5,182C 233.174,179.448 233.507,177.615 239.5,176.5 Z"/></g>
<g><path style="opacity:1" fill="#eee4af" d="M 194.5,180.5 C 197.53,182.88 198.53,185.88 197.5,189.5C 194.924,187.122 193.924,184.122 194.5,180.5 Z"/></g>
<g><path style="opacity:1" fill="#fec90d" d="M 217.5,182.5 C 217.328,183.492 217.662,184.158 218.5,184.5C 218.737,185.791 218.404,186.791 217.5,187.5C 217.5,186.833 217.167,186.5 216.5,186.5C 214.922,184.625 215.255,183.292 217.5,182.5 Z"/></g>
<g><path style="opacity:1" fill="#000000" d="M 129.5,183.5 C 130.537,184.93 131.204,186.597 131.5,188.5C 129.787,187.365 129.12,185.698 129.5,183.5 Z"/></g>
<g><path style="opacity:1" fill="#000000" d="M 237.5,183.5 C 236.791,184.404 235.791,184.737 234.5,184.5C 234.5,185.5 234.5,186.5 234.5,187.5C 233.566,186.432 233.232,185.099 233.5,183.5C 234.833,183.5 236.167,183.5 237.5,183.5 Z"/></g>
<g><path style="opacity:1" fill="#89572f" d="M 126.5,185.5 C 127.65,187.267 126.983,188.433 124.5,189C 126.167,189.333 127.833,189.667 129.5,190C 130.738,190.69 130.738,191.19 129.5,191.5C 128.566,192.568 128.232,193.901 128.5,195.5C 130.167,195.5 131.833,195.5 133.5,195.5C 133.5,196.833 133.5,198.167 133.5,199.5C 127.581,200.819 121.581,201.486 115.5,201.5C 115.067,196.887 113.067,193.054 109.5,190C 112.5,189.667 115.5,189.333 118.5,189C 120.372,186.056 123.039,184.889 126.5,185.5 Z"/></g>
<g><path style="opacity:1" fill="#f5f5f5" d="M 216.5,186.5 C 217.167,186.5 217.5,186.833 217.5,187.5C 216.246,190.093 214.58,192.427 212.5,194.5C 211.713,193.758 211.047,192.925 210.5,192C 212,189.833 213.5,187.667 215,185.5C 215.383,186.056 215.883,186.389 216.5,186.5 Z"/></g>
<g><path style="opacity:1" fill="#f6f1d6" d="M 209.5,205.5 C 208.833,205.5 208.5,205.833 208.5,206.5C 206.901,206.232 205.568,206.566 204.5,207.5C 203.25,207.423 202.417,206.756 202,205.5C 200.671,199.872 200.005,194.205 200,188.5C 203.698,193.898 206.864,199.565 209.5,205.5 Z"/></g>
<g><path style="opacity:1" fill="#000000" d="M 129.5,191.5 C 129.5,192.5 129.5,193.5 129.5,194.5C 131.099,194.232 132.432,194.566 133.5,195.5C 131.833,195.5 130.167,195.5 128.5,195.5C 128.232,193.901 128.566,192.568 129.5,191.5 Z"/></g>
<g><path style="opacity:1" fill="#000000" d="M 135.5,192.5 C 137.027,192.427 138.027,193.094 138.5,194.5C 136.973,194.573 135.973,193.906 135.5,192.5 Z"/></g>
<g><path style="opacity:1" fill="#fefffe" d="M 252.5,197.5 C 251.127,197.657 249.793,197.49 248.5,197C 250.333,196.5 251.5,195.333 252,193.5C 252.49,194.793 252.657,196.127 252.5,197.5 Z"/></g>
<g><path style="opacity:1" fill="#fefffe" d="M 254.5,199.5 C 253.127,199.657 251.793,199.49 250.5,199C 251.416,198.722 252.082,198.222 252.5,197.5C 252.082,198.222 251.416,198.722 250.5,199C 251.793,199.49 253.127,199.657 254.5,199.5 Z"/></g>
<g><path style="opacity:1" fill="#fefffe" d="M 254.5,199.5 C 255.222,199.082 255.722,198.416 256,197.5C 257.122,199.42 257.956,201.42 258.5,203.5C 256.42,202.956 254.42,202.122 252.5,201C 253.416,200.722 254.082,200.222 254.5,199.5 Z"/></g>
<g><path style="opacity:1" fill="#6c4624" d="M 222.5,199.5 C 223.928,205.022 225.262,210.689 226.5,216.5C 226.154,217.696 225.654,217.696 225,216.5C 222.959,212.916 220.792,209.416 218.5,206C 219.793,205.51 221.127,205.343 222.5,205.5C 222.5,203.5 222.5,201.5 222.5,199.5 Z"/></g>
<g><path style="opacity:1" fill="#870014" d="M 139.5,200.5 C 139.53,201.497 139.03,202.164 138,202.5C 133.224,203.902 128.391,205.069 123.5,206C 119.638,206.913 115.972,206.58 112.5,205C 121.46,203.729 130.46,202.229 139.5,200.5 Z"/></g>
<g><path style="opacity:1" fill="#694323" d="M 157.5,203.5 C 155.648,206.289 153.148,208.289 150,209.5C 149.624,212.01 148.79,214.343 147.5,216.5C 139.146,222.687 131.98,230.02 126,238.5C 123.993,237.331 121.827,236.665 119.5,236.5C 119.5,235.5 119.5,234.5 119.5,233.5C 128.373,233.787 132.207,229.454 131,220.5C 125.966,218.925 120.799,217.925 115.5,217.5C 115.5,216.833 115.5,216.167 115.5,215.5C 122.585,214.43 129.585,212.93 136.5,211C 139.409,209.594 141.409,207.428 142.5,204.5C 142.5,204.167 142.5,203.833 142.5,203.5C 143.458,202.038 144.624,200.705 146,199.5C 146.941,201.061 148.108,202.395 149.5,203.5C 150.833,202.5 152.167,201.5 153.5,200.5C 154.852,201.524 156.185,202.524 157.5,203.5 Z"/></g>
<g><path style="opacity:1" fill="#000000" d="M 157.5,200.5 C 159.099,200.232 160.432,200.566 161.5,201.5C 159.007,201.131 158.34,201.797 159.5,203.5C 158.833,203.5 158.167,203.5 157.5,203.5C 157.5,202.5 157.5,201.5 157.5,200.5 Z"/></g>
<g><path style="opacity:1" fill="#a3a4a3" d="M 182.5,200.5 C 183.791,202.949 184.791,205.616 185.5,208.5C 185.17,216.504 184.836,224.504 184.5,232.5C 184.612,236.521 184.946,240.521 185.5,244.5C 185.79,246.044 186.456,247.377 187.5,248.5C 184.736,249.965 181.903,251.299 179,252.5C 176.812,251.941 176.146,250.607 177,248.5C 178.171,246.384 179.671,245.718 181.5,246.5C 182.418,244.242 183.085,241.909 183.5,239.5C 182.186,235.578 181.186,231.578 180.5,227.5C 181.664,218.536 182.33,209.536 182.5,200.5 Z"/></g>
<g><path style="opacity:1" fill="#941514" d="M 161.5,201.5 C 166.35,201.925 170.35,203.925 173.5,207.5C 173.167,208.167 172.833,208.833 172.5,209.5C 171.292,210.234 169.959,210.567 168.5,210.5C 168.67,209.178 168.337,208.011 167.5,207C 165.19,206.503 162.857,206.337 160.5,206.5C 160.737,205.209 160.404,204.209 159.5,203.5C 158.34,201.797 159.007,201.131 161.5,201.5 Z"/></g>
<g><path style="opacity:1" fill="#6c4624" d="M 272.5,202.5 C 280.176,204.162 287.176,207.162 293.5,211.5C 292.82,213.889 291.986,216.222 291,218.5C 287.975,222.024 285.142,225.691 282.5,229.5C 283.167,232.167 283.833,234.833 284.5,237.5C 287.731,239.41 291.231,240.41 295,240.5C 300.523,238.993 306.023,237.327 311.5,235.5C 313.374,235.39 314.874,236.056 316,237.5C 316.546,240.899 316.213,244.232 315,247.5C 314.167,249.667 312.667,251.167 310.5,252C 300.817,253.714 291.15,254.547 281.5,254.5C 278.802,253.857 276.135,253.024 273.5,252C 267.957,246.121 262.123,240.621 256,235.5C 251.744,237.476 247.578,239.642 243.5,242C 242.5,242.667 241.5,242.667 240.5,242C 236.375,235.584 232.375,229.084 228.5,222.5C 243.187,219.901 257.853,217.067 272.5,214C 273.141,210.257 273.141,206.423 272.5,202.5 Z"/></g>
<g><path style="opacity:1" fill="#976033" d="M 157.5,203.5 C 158.167,203.5 158.833,203.5 159.5,203.5C 157.712,213.751 154.212,223.418 149,232.5C 144.767,235.729 140.267,238.562 135.5,241C 134.257,242.154 133.257,243.488 132.5,245C 134.432,246.459 136.432,247.625 138.5,248.5C 127.539,260.63 116.372,272.63 105,284.5C 100.584,282.088 96.7508,278.922 93.5,275C 98.3333,269.5 103.167,264 108,258.5C 111.066,250.698 114.9,243.365 119.5,236.5C 121.827,236.665 123.993,237.331 126,238.5C 131.98,230.02 139.146,222.687 147.5,216.5C 148.79,214.343 149.624,212.01 150,209.5C 153.148,208.289 155.648,206.289 157.5,203.5 Z"/></g>
<g><path style="opacity:1" fill="#945f32" d="M 142.5,204.5 C 141.409,207.428 139.409,209.594 136.5,211C 129.585,212.93 122.585,214.43 115.5,215.5C 114.897,213.321 114.23,211.154 113.5,209C 123.291,208.208 132.957,206.708 142.5,204.5 Z"/></g>
<g><path style="opacity:1" fill="#ad1116" d="M 209.5,205.5 C 211.822,206.802 213.155,208.802 213.5,211.5C 212.883,211.611 212.383,211.944 212,212.5C 211.051,210.907 209.885,209.574 208.5,208.5C 208.5,207.833 208.5,207.167 208.5,206.5C 208.5,205.833 208.833,205.5 209.5,205.5 Z"/></g>
<g><path style="opacity:1" fill="#6c4524" d="M 159.5,203.5 C 160.404,204.209 160.737,205.209 160.5,206.5C 162.5,207.167 164.5,207.833 166.5,208.5C 165.229,216.719 163.062,224.719 160,232.5C 156.998,236.334 153.831,240 150.5,243.5C 148.516,243.617 146.85,242.95 145.5,241.5C 144.812,243.718 145.812,245.218 148.5,246C 154.601,246.953 160.434,248.453 166,250.5C 168.198,260.427 171.198,270.093 175,279.5C 175.781,289.515 177.614,299.348 180.5,309C 179.929,310.599 178.929,311.766 177.5,312.5C 175.833,313.833 174.167,313.833 172.5,312.5C 171.722,311.844 171.056,311.011 170.5,310C 168.412,298.99 164.246,288.824 158,279.5C 155.46,267.591 150.626,256.757 143.5,247C 141.67,246.818 140.003,247.318 138.5,248.5C 136.432,247.625 134.432,246.459 132.5,245C 133.257,243.488 134.257,242.154 135.5,241C 140.267,238.562 144.767,235.729 149,232.5C 154.212,223.418 157.712,213.751 159.5,203.5 Z"/></g>
<g><path style="opacity:1" fill="#000000" d="M 160.5,206.5 C 162.857,206.337 165.19,206.503 167.5,207C 168.337,208.011 168.67,209.178 168.5,210.5C 167.833,209.833 167.167,209.167 166.5,208.5C 164.5,207.833 162.5,207.167 160.5,206.5 Z"/></g>
<g><path style="opacity:1" fill="#000000" d="M 204.5,207.5 C 205.568,206.566 206.901,206.232 208.5,206.5C 208.5,207.167 208.5,207.833 208.5,208.5C 208.167,208.5 207.833,208.5 207.5,208.5C 206.791,207.596 205.791,207.263 204.5,207.5 Z"/></g>
<g><path style="opacity:1" fill="#000000" d="M 173.5,207.5 C 174.791,207.263 175.791,207.596 176.5,208.5C 175.508,208.328 174.842,208.662 174.5,209.5C 173.833,209.5 173.167,209.5 172.5,209.5C 172.833,208.833 173.167,208.167 173.5,207.5 Z"/></g>
<g><path style="opacity:1" fill="#b60f16" d="M 204.5,207.5 C 205.791,207.263 206.791,207.596 207.5,208.5C 206.313,210.072 205.313,211.739 204.5,213.5C 202.286,211.239 202.286,209.239 204.5,207.5 Z"/></g>
<g><path style="opacity:1" fill="#925d32" d="M 166.5,208.5 C 167.167,209.167 167.833,209.833 168.5,210.5C 169.959,210.567 171.292,210.234 172.5,209.5C 173.167,209.5 173.833,209.5 174.5,209.5C 175.593,211.349 176.926,213.016 178.5,214.5C 178.805,220.624 179.138,226.791 179.5,233C 178.922,234.811 178.422,236.645 178,238.5C 172.862,239.883 172.362,242.049 176.5,245C 175.874,245.75 175.374,246.584 175,247.5C 171.223,245.227 167.223,244.894 163,246.5C 159.5,246 156,245.5 152.5,245C 151.584,244.722 150.918,244.222 150.5,243.5C 153.831,240 156.998,236.334 160,232.5C 163.062,224.719 165.229,216.719 166.5,208.5 Z"/></g>
<g><path style="opacity:1" fill="#9d1415" d="M 174.5,209.5 C 174.842,208.662 175.508,208.328 176.5,208.5C 177.609,208.557 178.609,208.89 179.5,209.5C 180.043,209.56 180.376,209.893 180.5,210.5C 180.006,212.026 179.339,213.359 178.5,214.5C 176.926,213.016 175.593,211.349 174.5,209.5 Z"/></g>
<g><path style="opacity:1" fill="#925d32" d="M 207.5,208.5 C 207.833,208.5 208.167,208.5 208.5,208.5C 209.885,209.574 211.051,210.907 212,212.5C 212.383,211.944 212.883,211.611 213.5,211.5C 220.637,222.159 227.637,232.992 234.5,244C 229.755,247.487 224.422,249.487 218.5,250C 208.82,250.579 199.153,250.412 189.5,249.5C 189.5,248.5 189.5,247.5 189.5,246.5C 192.755,246.986 195.422,245.986 197.5,243.5C 199.592,246.152 202.258,246.986 205.5,246C 207.1,243.36 206.766,241.193 204.5,239.5C 205.808,238.768 207.142,237.934 208.5,237C 208.272,236.601 207.938,236.435 207.5,236.5C 205.256,228.812 204.256,221.145 204.5,213.5C 205.313,211.739 206.313,210.072 207.5,208.5 Z"/></g>
<g><path style="opacity:1" fill="#6c4624" d="M 186.5,213.5 C 188.048,219.268 189.048,225.268 189.5,231.5C 189.297,233.208 188.464,234.541 187,235.5C 187.18,228.132 187.013,220.798 186.5,213.5 Z"/></g>
<g><path style="opacity:1" fill="#945f32" d="M 115.5,217.5 C 120.799,217.925 125.966,218.925 131,220.5C 132.207,229.454 128.373,233.787 119.5,233.5C 118.194,228.276 116.861,222.943 115.5,217.5 Z"/></g>
<g><path style="opacity:1" fill="#905b31" d="M 321.5,239.5 C 326.906,239.532 332.073,240.532 337,242.5C 339.021,248.704 340.021,255.038 340,261.5C 333.667,257.833 327.333,254.167 321,250.5C 320.938,246.852 321.105,243.185 321.5,239.5 Z"/></g>
<g><path style="opacity:1" fill="#6b4524" d="M 74.5,317.5 C 72.246,316.876 70.5794,315.543 69.5,313.5C 74.7563,305.73 80.2563,298.064 86,290.5C 88.079,286.007 90.4123,281.674 93,277.5C 95.921,281.092 99.421,283.925 103.5,286C 101.362,288.371 98.8621,290.204 96,291.5C 90.6005,299.908 85.6005,308.575 81,317.5C 78.8797,318.605 76.7131,318.605 74.5,317.5 Z"/></g>
<g><path style="opacity:1" fill="#945f32" d="M 332.5,288.5 C 336.091,292.158 339.091,296.325 341.5,301C 338.802,301.065 336.636,299.898 335,297.5C 333.698,294.625 332.865,291.625 332.5,288.5 Z"/></g>
<g><path style="opacity:1" fill="#e7cfba" d="M 172.5,312.5 C 174.167,313.833 175.833,313.833 177.5,312.5C 179.074,312.937 180.241,313.937 181,315.5C 182.717,319.204 182.551,322.704 180.5,326C 177.588,327.373 174.754,328.873 172,330.5C 171.667,331.833 171.333,333.167 171,334.5C 167.579,332.539 164.079,330.706 160.5,329C 162.754,327.623 164.92,326.123 167,324.5C 168.395,320.078 170.229,316.078 172.5,312.5 Z"/></g>
<g><path style="opacity:1" fill="#e7cfba" d="M 69.5,313.5 C 70.5794,315.543 72.246,316.876 74.5,317.5C 73.1667,318.933 71.6667,320.267 70,321.5C 69.8214,324.553 69.3214,327.553 68.5,330.5C 64.5,328.167 60.5,325.833 56.5,323.5C 62.0359,321.619 66.3692,318.286 69.5,313.5 Z"/></g>
<g><path style="opacity:1" fill="#dcc5b2" d="M 356.5,304.5 C 360.901,307.615 361.567,311.449 358.5,316C 361.018,317.502 363.518,319.002 366,320.5C 367.342,319.098 368.176,319.431 368.5,321.5C 367.677,325.477 366.177,329.143 364,332.5C 362.115,326.884 357.782,322.217 351,318.5C 349.132,315.395 347.965,312.062 347.5,308.5C 351.102,308.308 354.102,306.974 356.5,304.5 Z"/></g>
<g><path style="opacity:1" fill="#1d1e1d" d="M 371.5,318.5 C 373.394,319.048 375.06,320.048 376.5,321.5C 377.732,325.643 378.732,329.81 379.5,334C 375.191,334.732 371.191,333.899 367.5,331.5C 369.242,327.275 370.575,322.942 371.5,318.5 Z"/></g>
</svg>
