<?xml version="1.0" encoding="UTF-8"?>
<!DOCTYPE svg PUBLIC "-//W3C//DTD SVG 1.1//EN" "http://www.w3.org/Graphics/SVG/1.1/DTD/svg11.dtd">
<svg xmlns="http://www.w3.org/2000/svg" version="1.1" width="420px" height="501px" style="shape-rendering:geometricPrecision; text-rendering:geometricPrecision; image-rendering:optimizeQuality; fill-rule:evenodd; clip-rule:evenodd" xmlns:xlink="http://www.w3.org/1999/xlink">
<g><path style="opacity:1" fill="#fefffe" d="M 158.5,19.5 C 170.317,19.136 181.984,20.3026 193.5,23C 201.117,26.4729 208.784,29.9729 216.5,33.5C 217.48,34.9814 218.647,36.3147 220,37.5C 220.829,42.8643 220.663,48.1977 219.5,53.5C 217.931,54.714 217.098,56.3807 217,58.5C 216.803,63.0855 216.303,67.5855 215.5,72C 221.064,77.3208 222.897,83.8208 221,91.5C 214.219,94.5361 207.052,95.8694 199.5,95.5C 199.192,97.924 199.526,100.257 200.5,102.5C 202.737,103.269 204.737,104.436 206.5,106C 209.89,106.246 213.223,106.746 216.5,107.5C 220.785,112.328 223.619,117.995 225,124.5C 228.686,131.594 234.186,136.76 241.5,140C 248.388,145.892 254.888,152.059 261,158.5C 264.767,176.351 267.767,194.351 270,212.5C 270.5,222.494 270.666,232.494 270.5,242.5C 283.402,245.106 295.902,248.773 308,253.5C 310.544,253.616 312.711,252.783 314.5,251C 320.167,250.333 325.833,250.333 331.5,251C 343.814,255.326 356.148,259.493 368.5,263.5C 369.809,265.976 371.642,267.976 374,269.5C 375.976,280.182 374.143,290.015 368.5,299C 366.725,300.439 364.725,301.439 362.5,302C 355.118,302.747 347.785,302.414 340.5,301C 331.685,297.218 322.685,294.218 313.5,292C 311.507,290.001 309.173,288.501 306.5,287.5C 303.648,282.481 299.648,278.648 294.5,276C 285.801,272.434 276.968,269.267 268,266.5C 260.911,268.59 254.411,267.424 248.5,263C 245.5,262.667 242.5,262.333 239.5,262C 238.405,260.325 236.905,259.158 235,258.5C 234.598,257.128 234.098,255.795 233.5,254.5C 226.833,252.333 220.167,250.167 213.5,248C 210.523,246.682 207.69,245.182 205,243.5C 204.878,245.169 205.212,246.835 206,248.5C 214.433,265.917 221.433,283.917 227,302.5C 227.029,320.497 226.695,338.497 226,356.5C 223.987,366.755 222.487,377.088 221.5,387.5C 224.85,387.335 228.183,387.502 231.5,388C 236.89,390.111 238.89,394.111 237.5,400C 237.764,404.406 236.931,408.573 235,412.5C 224.185,419.622 212.185,423.289 199,423.5C 188,423.984 183.5,418.651 185.5,407.5C 186.943,396.735 187.61,385.902 187.5,375C 187.755,361.825 186.755,348.825 184.5,336C 184.667,331.167 184.833,326.333 185,321.5C 186.783,318.922 187.949,316.089 188.5,313C 185.743,308.821 182.743,304.821 179.5,301C 174.647,300.971 169.98,300.138 165.5,298.5C 162.17,299.094 158.836,299.76 155.5,300.5C 161.366,313.558 168.366,326.058 176.5,338C 177.43,343.45 177.763,348.95 177.5,354.5C 170.352,355.837 164.185,354.17 159,349.5C 154.387,343.879 150.221,337.879 146.5,331.5C 140.514,321.324 134.68,310.99 129,300.5C 125.832,322.168 122.665,343.835 119.5,365.5C 119.297,369.411 120.13,373.078 122,376.5C 124.419,387.759 122.253,397.759 115.5,406.5C 109.193,407.664 102.859,407.831 96.5,407C 93.115,406.119 91.4483,403.952 91.5,400.5C 90.1266,400.657 88.7932,400.49 87.5,400C 82.1386,394.819 80.1386,388.485 81.5,381C 79.705,373.764 82.0384,368.598 88.5,365.5C 90.5595,361.265 90.3928,356.931 88,352.5C 86.2344,336.159 86.2344,319.826 88,303.5C 92.8837,294.794 94.7171,285.461 93.5,275.5C 89.737,275.143 86.0704,274.31 82.5,273C 80.9085,266.69 81.4085,260.524 84,254.5C 89.2013,249.46 94.368,244.293 99.5,239C 96.8644,235.321 95.3644,231.154 95,226.5C 94.6667,220.833 94.3333,215.167 94,209.5C 84.8465,205.498 75.3465,202.332 65.5,200C 61.712,198.022 57.8787,196.189 54,194.5C 51.5233,197.774 48.19,199.107 44,198.5C 36.9147,196.384 29.748,194.384 22.5,192.5C 15.4693,160.536 26.8026,151.536 56.5,165.5C 60.8599,175.357 68.5265,180.191 79.5,180C 82.6841,181.504 85.8507,183.004 89,184.5C 89.0774,171.274 92.7441,159.274 100,148.5C 101.378,146.787 103.045,145.453 105,144.5C 107.731,140.216 109.898,135.55 111.5,130.5C 113.061,127.324 115.061,124.491 117.5,122C 114.645,111.835 116.645,102.835 123.5,95C 125.473,94.5045 127.473,94.3379 129.5,94.5C 129.07,91.1379 130.07,88.3046 132.5,86C 138.204,85.3127 143.87,85.4793 149.5,86.5C 149.5,83.8333 149.5,81.1667 149.5,78.5C 147.856,78.7135 146.356,78.3802 145,77.5C 144.172,73.1287 144.339,68.7953 145.5,64.5C 146.524,63.1468 147.857,62.4802 149.5,62.5C 149.334,57.4889 149.501,52.4889 150,47.5C 151.889,45.5172 153.222,43.1838 154,40.5C 154.333,34.5 154.667,28.5 155,22.5C 156.518,21.8366 157.685,20.8366 158.5,19.5 Z M 207.5,168.5 C 209.512,169.228 211.512,170.062 213.5,171C 218.716,175.426 224.05,179.593 229.5,183.5C 232.219,192.205 234.219,201.038 235.5,210C 234.556,216.425 233.889,222.925 233.5,229.5C 221.362,225.306 209.029,221.639 196.5,218.5C 197.224,210.148 198.224,201.815 199.5,193.5C 203.907,185.886 206.574,177.553 207.5,168.5 Z"/></g>
<g><path style="opacity:1" fill="#000000" d="M 161.5,22.5 C 171.263,22.7935 180.93,23.9601 190.5,26C 198.602,29.5506 206.602,33.3839 214.5,37.5C 216.919,39.586 217.919,42.2526 217.5,45.5C 215.243,50.4945 213.576,55.8278 212.5,61.5C 213.491,66.2273 213.157,70.894 211.5,75.5C 212.675,75.281 213.675,75.6143 214.5,76.5C 215.194,79.0876 216.36,81.421 218,83.5C 218.667,85.1667 218.667,86.8333 218,88.5C 211.219,91.5361 204.052,92.8694 196.5,92.5C 196.793,96.4367 196.46,100.27 195.5,104C 200.6,108.556 206.6,110.722 213.5,110.5C 217.785,115.328 220.619,120.995 222,127.5C 225.686,134.594 231.186,139.76 238.5,143C 245.388,148.892 251.888,155.059 258,161.5C 261.767,179.351 264.767,197.351 267,215.5C 267.491,225.192 267.491,234.859 267,244.5C 278.818,247.55 290.318,251.384 301.5,256C 310.578,255.888 319.578,255.221 328.5,254C 338.969,257.898 349.636,261.231 360.5,264C 364.553,266.043 368.053,268.876 371,272.5C 372.23,281.125 370.396,288.959 365.5,296C 358.563,299.96 351.23,300.626 343.5,298C 334.685,294.218 325.685,291.218 316.5,289C 314.507,287.001 312.173,285.501 309.5,284.5C 305.747,277.62 300.08,273.12 292.5,271C 286.382,268.406 280.049,266.406 273.5,265C 271.099,264.205 268.932,263.038 267,261.5C 265.745,263.594 263.912,264.594 261.5,264.5C 257.866,263.707 254.532,262.207 251.5,260C 248.5,259.667 245.5,259.333 242.5,259C 239.071,256.82 236.404,253.987 234.5,250.5C 222.115,246.876 209.948,242.876 198,238.5C 197.5,238.833 197,239.167 196.5,239.5C 202.609,250.718 208.442,262.052 214,273.5C 213.807,278.352 215.14,282.685 218,286.5C 219.624,292.957 221.624,299.29 224,305.5C 223.915,321.492 223.581,337.492 223,353.5C 222.596,359.625 221.596,365.625 220,371.5C 219.56,373.076 218.727,374.41 217.5,375.5C 218.451,380.77 218.785,386.103 218.5,391.5C 234.16,389.276 238.494,395.443 231.5,410C 227.172,411.829 223.172,414.162 219.5,417C 214.041,417.358 208.708,418.358 203.5,420C 192.922,422.451 187.922,418.284 188.5,407.5C 190.72,394.109 191.72,380.776 191.5,367.5C 190.456,356.904 189.122,346.404 187.5,336C 187.667,332.167 187.833,328.333 188,324.5C 191.385,319.142 192.051,313.475 190,307.5C 186.715,302.546 183.048,297.88 179,293.5C 178.51,294.793 178.343,296.127 178.5,297.5C 168.153,296.097 157.819,295.264 147.5,295C 156.883,309.966 165.55,325.299 173.5,341C 174.382,344.441 174.716,347.941 174.5,351.5C 172.143,351.663 169.81,351.497 167.5,351C 153.46,335.767 142.293,318.6 134,299.5C 132.341,298.183 131.174,296.517 130.5,294.5C 128.671,293.718 127.171,294.384 126,296.5C 124.343,305.082 123.343,313.749 123,322.5C 120.56,333.746 118.56,345.079 117,356.5C 116.414,368.665 117.081,380.665 119,392.5C 117.244,396.32 115.077,399.987 112.5,403.5C 108.205,404.661 103.871,404.828 99.5,404C 96.115,403.119 94.4483,400.952 94.5,397.5C 93.1266,397.657 91.7932,397.49 90.5,397C 85.7485,392.751 83.7485,387.417 84.5,381C 83.2034,374.797 85.5368,370.631 91.5,368.5C 92.277,366.223 93.277,364.057 94.5,362C 86.8723,337.386 87.8723,313.219 97.5,289.5C 96.108,284.079 96.4414,278.746 98.5,273.5C 94.1292,272.491 89.7959,271.324 85.5,270C 84.1162,265.676 84.6162,261.509 87,257.5C 91.5964,252.576 96.5964,247.909 102,243.5C 102.745,241.797 103.579,240.13 104.5,238.5C 98.5994,230.519 96.4327,221.519 98,211.5C 99.1667,210.333 100.333,209.167 101.5,208C 86.9594,202.42 72.2927,197.087 57.5,192C 53.6918,190.819 50.5252,191.652 48,194.5C 46.6994,194.96 45.366,195.294 44,195.5C 38.1118,192.687 31.9451,190.687 25.5,189.5C 23.4778,183.68 22.9778,177.68 24,171.5C 26.5908,163.9 31.7574,161.067 39.5,163C 43.8935,165.436 48.5601,167.27 53.5,168.5C 55.3202,173.746 58.6535,177.579 63.5,180C 74.6564,183.093 85.6564,186.427 96.5,190C 93.7807,187.227 92.4473,183.894 92.5,180C 94.094,169.786 97.594,160.286 103,151.5C 108.989,145.461 113.489,138.295 116.5,130C 118.397,128.217 120.063,126.217 121.5,124C 117.608,114.212 119.275,105.545 126.5,98C 128.473,97.5045 130.473,97.3379 132.5,97.5C 132.216,89.621 135.883,86.7877 143.5,89C 144.766,89.3095 145.933,89.8095 147,90.5C 147.498,93.4816 147.665,96.4816 147.5,99.5C 148.833,99.5 150.167,99.5 151.5,99.5C 151.427,96.119 152.427,93.119 154.5,90.5C 152.958,85.6274 152.292,80.6274 152.5,75.5C 148.76,76.2585 147.093,74.7585 147.5,71C 147.642,67.6938 149.309,65.8605 152.5,65.5C 152.334,60.4889 152.501,55.4889 153,50.5C 154.889,48.5172 156.222,46.1838 157,43.5C 157.333,37.5 157.667,31.5 158,25.5C 159.518,24.8366 160.685,23.8366 161.5,22.5 Z M 207.5,168.5 C 206.574,177.553 203.907,185.886 199.5,193.5C 198.224,201.815 197.224,210.148 196.5,218.5C 209.029,221.639 221.362,225.306 233.5,229.5C 233.889,222.925 234.556,216.425 235.5,210C 234.219,201.038 232.219,192.205 229.5,183.5C 224.05,179.593 218.716,175.426 213.5,171C 211.512,170.062 209.512,169.228 207.5,168.5 Z"/></g>
<g><path style="opacity:1" fill="#e41a22" d="M 163.5,28.5 C 165.5,29.8333 167.5,31.1667 169.5,32.5C 175.694,35.8395 182.027,39.0062 188.5,42C 195.326,44.2909 202.326,45.4576 209.5,45.5C 210.609,46.29 211.942,46.79 213.5,47C 212.307,49.0267 210.64,50.5267 208.5,51.5C 195.74,51.5234 184.073,48.0234 173.5,41C 172.207,40.51 170.873,40.3433 169.5,40.5C 169.66,42.1992 169.494,43.8659 169,45.5C 168.606,40.7782 166.273,37.4449 162,35.5C 161.833,34.3333 161.667,33.1667 161.5,32C 161.608,30.3189 162.275,29.1522 163.5,28.5 Z"/></g>
<g><path style="opacity:1" fill="#000000" d="M 169.5,32.5 C 169.607,34.3786 169.107,34.7119 168,33.5C 165.827,36.277 165.327,36.1103 166.5,33C 167.448,32.5172 168.448,32.3505 169.5,32.5 Z"/></g>
<g><path style="opacity:1" fill="#2d2d2d" d="M 209.5,45.5 C 202.326,45.4576 195.326,44.2909 188.5,42C 182.027,39.0062 175.694,35.8395 169.5,32.5C 167.5,31.1667 165.5,29.8333 163.5,28.5C 163.389,27.8826 163.056,27.3826 162.5,27C 163.873,26.1251 165.373,25.6251 167,25.5C 173.045,26.3102 178.879,27.8102 184.5,30C 180.845,30.6411 177.345,30.1411 174,28.5C 172.596,28.5093 171.43,29.0093 170.5,30C 172.75,30.6108 174.417,31.9441 175.5,34C 183.937,37.6108 192.603,40.6108 201.5,43C 204.993,44.0037 208.159,43.5037 211,41.5C 215.886,44.3255 215.386,45.6588 209.5,45.5 Z"/></g>
<g><path style="opacity:1" fill="#ec1c23" d="M 163.5,42.5 C 164.559,44.0699 164.059,45.4032 162,46.5C 161.7,44.9343 162.2,43.601 163.5,42.5 Z"/></g>
<g><path style="opacity:1" fill="#ec1c23" d="M 160.5,47.5 C 161.573,48.2506 161.74,49.2506 161,50.5C 159.188,52.552 157.855,54.8853 157,57.5C 156.333,55.5 156.333,53.5 157,51.5C 159.071,50.8971 160.238,49.5638 160.5,47.5 Z"/></g>
<g><path style="opacity:1" fill="#ec1c23" d="M 175.5,55.5 C 177.406,52.4223 179.906,49.7556 183,47.5C 183.903,48.7014 185.069,49.5348 186.5,50C 184.395,51.1934 182.728,52.8601 181.5,55C 179.45,56.3318 177.45,56.4985 175.5,55.5 Z"/></g>
<g><path style="opacity:1" fill="#ec1c23" d="M 175.5,55.5 C 182.797,65.4021 192.464,68.5688 204.5,65C 205.701,64.0975 206.535,62.9308 207,61.5C 206.651,65.3458 204.818,68.5125 201.5,71C 197.309,72.8008 192.975,73.4675 188.5,73C 177.34,68.4786 171.173,60.3119 170,48.5C 172.278,50.5695 174.111,52.9029 175.5,55.5 Z"/></g>
<g><path style="opacity:1" fill="#ec1c23" d="M 163.5,50.5 C 165.347,53.6068 165.68,56.9401 164.5,60.5C 163.513,57.2317 163.18,53.8984 163.5,50.5 Z"/></g>
<g><path style="opacity:1" fill="#ec1c23" d="M 170.5,59.5 C 174.544,62.4015 174.044,64.7348 169,66.5C 168.391,63.9348 168.891,61.6015 170.5,59.5 Z"/></g>
<g><path style="opacity:1" fill="#fec90d" d="M 165.5,62.5 C 166.649,62.7911 167.316,63.6244 167.5,65C 165.293,69.9704 163.46,75.1371 162,80.5C 161.333,75.5 161.333,70.5 162,65.5C 163.518,64.8366 164.685,63.8366 165.5,62.5 Z"/></g>
<g><path style="opacity:1" fill="#e51a22" d="M 208.5,64.5 C 209.139,65.0968 209.472,65.9302 209.5,67C 206.112,72.7395 207.279,77.2395 213,80.5C 213.5,82 214,83.5 214.5,85C 213.022,86.4782 211.522,87.9782 210,89.5C 209,85.1667 208,80.8333 207,76.5C 205.644,75.6198 204.144,75.2865 202.5,75.5C 203.214,79.9912 204.047,84.3245 205,88.5C 203.333,89.8333 201.667,89.8333 200,88.5C 200.361,86.0666 200.861,83.5666 201.5,81C 201.306,79.1404 200.972,77.3071 200.5,75.5C 203.927,72.2832 206.593,68.6166 208.5,64.5 Z"/></g>
<g><path style="opacity:1" fill="#ec1c23" d="M 166.5,69.5 C 170.556,71.0252 174.556,72.8585 178.5,75C 184.589,75.5362 190.589,76.5362 196.5,78C 196.966,79.2988 196.966,80.7988 196.5,82.5C 191.041,81.969 185.708,80.8023 180.5,79C 176.672,76.2726 172.505,74.1059 168,72.5C 167.228,72.6448 166.561,72.9781 166,73.5C 165.805,72.1807 165.972,70.8474 166.5,69.5 Z"/></g>
<g><path style="opacity:1" fill="#f9a884" d="M 156.5,75.5 C 157.5,75.5 158.5,75.5 159.5,75.5C 158.497,96.8158 157.497,96.8158 156.5,75.5 Z"/></g>
<g><path style="opacity:1" fill="#faa581" d="M 167.5,85.5 C 166.5,85.8333 165.833,86.5 165.5,87.5C 163.086,86.2233 162.919,84.5566 165,82.5C 165.556,84.5951 166.056,84.7618 166.5,83C 164.592,80.8072 164.425,78.3072 166,75.5C 167.073,77.361 168.24,79.1944 169.5,81C 168.586,82.4064 167.92,83.9064 167.5,85.5 Z"/></g>
<g><path style="opacity:1" fill="#ba9703" d="M 168.5,76.5 C 169.601,75.4017 170.934,75.235 172.5,76C 179.25,81.2351 186.916,83.7351 195.5,83.5C 195.994,87.5266 194.494,90.5266 191,92.5C 189.745,91.7894 188.579,90.956 187.5,90C 183.469,89.5193 179.469,88.8527 175.5,88C 173.067,84.1602 170.734,80.3269 168.5,76.5 Z"/></g>
<g><path style="opacity:1" fill="#fec90d" d="M 161.5,91.5 C 161.167,91.5 160.833,91.5 160.5,91.5C 160.335,88.4816 160.502,85.4816 161,82.5C 162.065,85.5727 162.232,88.5727 161.5,91.5 Z"/></g>
<g><path style="opacity:1" fill="#f9a884" d="M 166.5,89.5 C 166.167,89.5 165.833,89.5 165.5,89.5C 165.5,88.8333 165.5,88.1667 165.5,87.5C 166.833,87.5 167.5,86.8333 167.5,85.5C 169.862,83.1331 171.862,83.6331 173.5,87C 171.167,88.043 168.834,88.8763 166.5,89.5 Z"/></g>
<g><path style="opacity:1" fill="#000000" d="M 167.5,85.5 C 167.5,86.8333 166.833,87.5 165.5,87.5C 165.833,86.5 166.5,85.8333 167.5,85.5 Z"/></g>
<g><path style="opacity:1" fill="#ec1c23" d="M 165.5,89.5 C 165.833,89.5 166.167,89.5 166.5,89.5C 172.555,89.3379 178.555,89.8379 184.5,91C 186.359,91.6839 188.026,92.6839 189.5,94C 188.906,94.4643 188.239,94.631 187.5,94.5C 186.292,93.7659 184.959,93.4326 183.5,93.5C 181.786,92.2616 179.786,91.595 177.5,91.5C 175.5,91.5 173.5,91.5 171.5,91.5C 168.813,91.6641 166.146,91.4974 163.5,91C 164.416,90.7216 165.082,90.2216 165.5,89.5 Z"/></g>
<g><path style="opacity:1" fill="#f9f5e1" d="M 137.5,91.5 C 139.5,91.5 141.5,91.5 143.5,91.5C 143.664,94.1873 143.497,96.854 143,99.5C 140.606,100.136 138.106,100.136 135.5,99.5C 135.584,96.6726 136.25,94.006 137.5,91.5 Z"/></g>
<g><path style="opacity:1" fill="#ec1c23" d="M 160.5,91.5 C 160.833,91.5 161.167,91.5 161.5,91.5C 162.506,91.9377 162.506,92.6043 161.5,93.5C 160.391,93.5569 159.391,93.8902 158.5,94.5C 158.782,93.2223 159.449,92.2223 160.5,91.5 Z"/></g>
<g><path style="opacity:1" fill="#28319a" d="M 171.5,91.5 C 173.5,91.5 175.5,91.5 177.5,91.5C 179.102,93.0739 181.102,93.7406 183.5,93.5C 184.959,93.4326 186.292,93.7659 187.5,94.5C 189.016,96.1857 190.35,98.019 191.5,100C 190.478,106.771 189.644,106.938 189,100.5C 185.791,99.1459 182.624,99.3125 179.5,101C 178.663,102.011 178.33,103.178 178.5,104.5C 173.819,104.331 169.152,103.998 164.5,103.5C 164.692,99.7468 163.692,96.4135 161.5,93.5C 164.983,92.9899 168.316,92.3232 171.5,91.5 Z"/></g>
<g><path style="opacity:1" fill="#000000" d="M 177.5,91.5 C 179.786,91.595 181.786,92.2616 183.5,93.5C 181.102,93.7406 179.102,93.0739 177.5,91.5 Z"/></g>
<g><path style="opacity:1" fill="#f9f5e1" d="M 158.5,94.5 C 160.255,95.9618 161.588,97.7951 162.5,100C 159.999,103.068 157.333,103.068 154.5,100C 155.032,97.5368 156.366,95.7035 158.5,94.5 Z"/></g>
<g><path style="opacity:1" fill="#272d8c" d="M 134.5,101.5 C 134.589,105.3 133.922,108.966 132.5,112.5C 132.843,116.599 134.176,120.266 136.5,123.5C 132.994,124.498 129.328,124.498 125.5,123.5C 125.797,120.276 125.13,117.276 123.5,114.5C 124.634,111.93 125.468,109.264 126,106.5C 127.599,104.944 129.099,103.277 130.5,101.5C 131.958,100.218 133.292,100.218 134.5,101.5 Z"/></g>
<g><path style="opacity:1" fill="#faf5e2" d="M 138.5,102.5 C 137.167,108.5 137.167,114.5 138.5,120.5C 138.427,122.027 139.094,123.027 140.5,123.5C 140.842,124.338 141.508,124.672 142.5,124.5C 140.477,125.521 138.477,125.188 136.5,123.5C 134.176,120.266 132.843,116.599 132.5,112.5C 133.922,108.966 134.589,105.3 134.5,101.5C 136.456,99.8249 137.789,100.158 138.5,102.5 Z"/></g>
<g><path style="opacity:1" fill="#f9f5e1" d="M 183.5,100.5 C 184.833,100.5 186.167,100.5 187.5,100.5C 187.988,106.674 185.654,108.007 180.5,104.5C 181.524,103.148 182.524,101.815 183.5,100.5 Z"/></g>
<g><path style="opacity:1" fill="#282e8f" d="M 153.5,105.5 C 152.553,107.287 151.387,108.953 150,110.5C 148.955,115.785 149.455,120.785 151.5,125.5C 151.631,126.239 151.464,126.906 151,127.5C 147.951,126.972 145.118,125.972 142.5,124.5C 141.508,124.672 140.842,124.338 140.5,123.5C 140.573,121.973 139.906,120.973 138.5,120.5C 137.167,114.5 137.167,108.5 138.5,102.5C 139.817,102.179 141.151,101.846 142.5,101.5C 145.755,102.641 149.089,103.474 152.5,104C 153.056,104.383 153.389,104.883 153.5,105.5 Z"/></g>
<g><path style="opacity:1" fill="#faf5e2" d="M 157.5,105.5 C 152.988,109.631 151.322,114.631 152.5,120.5C 152.317,122.936 152.984,125.103 154.5,127C 153.212,127.239 152.212,126.739 151.5,125.5C 149.455,120.785 148.955,115.785 150,110.5C 151.387,108.953 152.553,107.287 153.5,105.5C 155.073,103.164 156.406,103.164 157.5,105.5 Z"/></g>
<g><path style="opacity:1" fill="#282f93" d="M 178.5,107.5 C 174.368,113.465 172.368,120.132 172.5,127.5C 172.649,128.552 172.483,129.552 172,130.5C 166.977,129.045 161.81,128.212 156.5,128C 154.996,125.486 153.662,122.986 152.5,120.5C 151.322,114.631 152.988,109.631 157.5,105.5C 158.416,105.018 159.416,104.685 160.5,104.5C 166.473,105.718 172.473,106.718 178.5,107.5 Z"/></g>
<g><path style="opacity:1" fill="#f9f5e1" d="M 178.5,107.5 C 180.415,107.216 182.081,107.549 183.5,108.5C 182.022,108.238 180.689,108.571 179.5,109.5C 179.072,112.243 177.905,114.576 176,116.5C 175.188,120.689 175.355,124.689 176.5,128.5C 176.179,130.048 175.179,130.715 173.5,130.5C 173.737,129.209 173.404,128.209 172.5,127.5C 172.368,120.132 174.368,113.465 178.5,107.5 Z"/></g>
<g><path style="opacity:1" fill="#282e8f" d="M 183.5,108.5 C 186.85,108.335 190.183,108.502 193.5,109C 190.694,111.806 187.86,114.64 185,117.5C 184.333,121.5 184.333,125.5 185,129.5C 185.465,130.931 186.299,132.097 187.5,133C 185.527,133.495 183.527,133.662 181.5,133.5C 179.5,132.167 177.833,130.5 176.5,128.5C 175.355,124.689 175.188,120.689 176,116.5C 177.905,114.576 179.072,112.243 179.5,109.5C 180.689,108.571 182.022,108.238 183.5,108.5 Z"/></g>
<g><path style="opacity:1" fill="#262e91" d="M 196.5,133.5 C 193.518,133.896 190.851,133.229 188.5,131.5C 185.922,126.8 185.588,122.134 187.5,117.5C 190.52,114.645 193.687,111.979 197,109.5C 202.96,114.779 204.126,121.112 200.5,128.5C 198.389,129.605 197.055,131.271 196.5,133.5 Z"/></g>
<g><path style="opacity:1" fill="#e41921" d="M 204.5,114.5 C 206.527,114.338 208.527,114.505 210.5,115C 212.806,119.276 215.473,123.276 218.5,127C 213.627,128.163 208.627,128.997 203.5,129.5C 203.167,128.667 202.833,127.833 202.5,127C 203.958,122.96 204.625,118.793 204.5,114.5 Z"/></g>
<g><path style="opacity:1" fill="#000000" d="M 138.5,120.5 C 139.906,120.973 140.573,121.973 140.5,123.5C 139.094,123.027 138.427,122.027 138.5,120.5 Z"/></g>
<g><path style="opacity:1" fill="#bf6c43" d="M 151.5,129.5 C 148.563,133.589 146.063,137.923 144,142.5C 143.929,150.146 142.762,157.479 140.5,164.5C 137.824,166.22 134.824,167.386 131.5,168C 136.898,167.079 139.231,169.246 138.5,174.5C 138.577,178.877 139.077,183.21 140,187.5C 140.415,189.291 141.415,190.624 143,191.5C 143.315,193.586 143.815,195.586 144.5,197.5C 144.631,198.239 144.464,198.906 144,199.5C 140.924,198.712 137.758,198.212 134.5,198C 131.084,196.419 128.084,194.252 125.5,191.5C 123.784,191.371 122.117,191.038 120.5,190.5C 120.167,189.167 119.833,187.833 119.5,186.5C 120.167,186.5 120.5,186.167 120.5,185.5C 121.833,184.833 122.833,183.833 123.5,182.5C 124.5,182.167 125.167,181.5 125.5,180.5C 126.906,180.027 127.573,179.027 127.5,177.5C 128.496,177.586 129.329,177.252 130,176.5C 130.796,173.961 130.629,171.628 129.5,169.5C 129.34,167.801 129.506,166.134 130,164.5C 130.654,165.696 131.154,165.696 131.5,164.5C 130.456,163.377 129.79,162.044 129.5,160.5C 129.84,158.488 130.173,156.488 130.5,154.5C 130.5,153.833 130.5,153.167 130.5,152.5C 130.586,151.504 130.252,150.671 129.5,150C 127.559,149.257 125.726,149.424 124,150.5C 123.501,154.152 123.335,157.818 123.5,161.5C 122.167,161.5 120.833,161.5 119.5,161.5C 119.167,160.167 118.833,158.833 118.5,157.5C 119.388,154.946 119.721,152.279 119.5,149.5C 119.5,148.167 119.5,146.833 119.5,145.5C 120.268,146.263 120.768,147.263 121,148.5C 121.813,146.564 122.313,144.564 122.5,142.5C 124.104,141.713 124.771,140.38 124.5,138.5C 124.629,136.784 124.962,135.117 125.5,133.5C 127.452,132.215 129.118,130.549 130.5,128.5C 131.474,127.365 132.641,126.365 134,125.5C 139.836,127.298 145.67,128.631 151.5,129.5 Z"/></g>
<g><path style="opacity:1" fill="#f9f5e1" d="M 130.5,128.5 C 127.856,129.144 126.189,130.811 125.5,133.5C 124.962,135.117 124.629,136.784 124.5,138.5C 123.326,139.514 122.66,140.847 122.5,142.5C 121.033,145.258 120.367,144.925 120.5,141.5C 120.5,140.5 120.5,139.5 120.5,138.5C 121.537,137.07 122.204,135.403 122.5,133.5C 123.783,130.217 126.116,127.883 129.5,126.5C 130.298,126.957 130.631,127.624 130.5,128.5 Z"/></g>
<g><path style="opacity:1" fill="#000000" d="M 130.5,128.5 C 129.118,130.549 127.452,132.215 125.5,133.5C 126.189,130.811 127.856,129.144 130.5,128.5 Z"/></g>
<g><path style="opacity:1" fill="#f9f5e1" d="M 156.5,130.5 C 153.683,132.972 151.516,135.972 150,139.5C 149.5,147.159 149.334,154.826 149.5,162.5C 148.419,165.627 147.753,168.96 147.5,172.5C 142.999,182.005 143.666,191.005 149.5,199.5C 147.446,199.635 145.779,198.968 144.5,197.5C 143.815,195.586 143.315,193.586 143,191.5C 141.415,190.624 140.415,189.291 140,187.5C 139.077,183.21 138.577,178.877 138.5,174.5C 139.785,171.411 140.451,168.078 140.5,164.5C 142.762,157.479 143.929,150.146 144,142.5C 146.063,137.923 148.563,133.589 151.5,129.5C 153.586,127.977 155.252,128.31 156.5,130.5 Z"/></g>
<g><path style="opacity:1" fill="#c26c43" d="M 181.5,133.5 C 181.918,134.222 182.584,134.722 183.5,135C 181.907,135.949 180.574,137.115 179.5,138.5C 178.766,139.708 178.433,141.041 178.5,142.5C 178.167,142.5 177.833,142.5 177.5,142.5C 175.552,144.32 174.552,146.654 174.5,149.5C 174.167,153.5 173.833,157.5 173.5,161.5C 172.497,164.518 171.164,167.518 169.5,170.5C 167.599,171.231 165.599,171.231 163.5,170.5C 161.952,170.179 161.285,169.179 161.5,167.5C 162.972,165.883 163.639,163.883 163.5,161.5C 163.489,159.955 163.156,158.622 162.5,157.5C 162.167,157.5 161.833,157.5 161.5,157.5C 159.891,153.832 158.557,153.832 157.5,157.5C 157.296,160.518 156.963,163.518 156.5,166.5C 155.596,167.209 155.263,168.209 155.5,169.5C 154.167,169.5 152.833,169.5 151.5,169.5C 149.852,167.544 149.185,165.211 149.5,162.5C 149.334,154.826 149.5,147.159 150,139.5C 151.516,135.972 153.683,132.972 156.5,130.5C 157.695,130.322 158.862,129.989 160,129.5C 167.043,131.535 174.21,132.868 181.5,133.5 Z"/></g>
<g><path style="opacity:1" fill="#28319a" d="M 221.5,135.5 C 213.857,134.906 207.191,137.072 201.5,142C 210.494,142.5 219.494,142.666 228.5,142.5C 230.973,142.088 232.306,143.088 232.5,145.5C 204.718,147.609 204.718,148.775 232.5,149C 227.747,153.543 222.08,156.209 215.5,157C 221.853,157.487 228.186,158.153 234.5,159C 236.099,160.786 236.933,162.953 237,165.5C 242.681,167.788 248.515,168.121 254.5,166.5C 255.772,169.022 256.105,171.522 255.5,174C 255.946,175.726 256.779,177.226 258,178.5C 259.443,190.822 260.776,203.155 262,215.5C 263.95,219.6 262.45,221.767 257.5,222C 251.374,223.235 246.041,221.735 241.5,217.5C 243.397,207.077 242.23,197.077 238,187.5C 239.732,179.103 236.565,173.936 228.5,172C 222.94,165.777 216.274,161.111 208.5,158C 206.19,157.503 203.857,157.337 201.5,157.5C 201.657,158.873 201.49,160.207 201,161.5C 198.873,163.114 197.373,165.114 196.5,167.5C 196.5,167.833 196.5,168.167 196.5,168.5C 193.289,170.707 191.289,173.707 190.5,177.5C 189.307,177.03 188.64,176.03 188.5,174.5C 189.277,170.173 189.944,165.84 190.5,161.5C 191.072,155.497 191.738,149.497 192.5,143.5C 192.363,141.117 192.029,138.783 191.5,136.5C 193.531,136.028 195.198,135.028 196.5,133.5C 198.39,133.703 199.89,133.037 201,131.5C 201.414,131.957 201.914,132.291 202.5,132.5C 207.635,130.409 212.969,129.576 218.5,130C 219.527,131.866 220.527,133.7 221.5,135.5 Z"/></g>
<g><path style="opacity:1" fill="#283199" d="M 122.5,133.5 C 120.787,134.635 120.12,136.302 120.5,138.5C 120.5,139.5 120.5,140.5 120.5,141.5C 119.566,142.568 119.232,143.901 119.5,145.5C 119.5,146.833 119.5,148.167 119.5,149.5C 118.167,152.167 116.833,154.833 115.5,157.5C 114.069,158.78 113.402,160.447 113.5,162.5C 114.5,162.5 115.5,162.5 116.5,162.5C 116.5,162.833 116.5,163.167 116.5,163.5C 116.5,164.833 116.5,166.167 116.5,167.5C 115.207,168.842 114.374,170.509 114,172.5C 113.192,176.027 113.359,179.36 114.5,182.5C 114.66,184.153 115.326,185.486 116.5,186.5C 116.5,186.833 116.5,187.167 116.5,187.5C 114.395,192.482 112.228,197.482 110,202.5C 109.399,199.363 108.399,196.363 107,193.5C 104,191.176 101.333,188.509 99,185.5C 98.0862,183.711 97.2529,181.877 96.5,180C 97.6991,172.791 99.8657,165.958 103,159.5C 110.654,152.208 116.321,143.541 120,133.5C 121.392,131.158 122.225,131.158 122.5,133.5 Z"/></g>
<g><path style="opacity:1" fill="#000000" d="M 122.5,133.5 C 122.204,135.403 121.537,137.07 120.5,138.5C 120.12,136.302 120.787,134.635 122.5,133.5 Z"/></g>
<g><path style="opacity:1" fill="#f9f5e1" d="M 191.5,136.5 C 192.029,138.783 192.363,141.117 192.5,143.5C 191.738,149.497 191.072,155.497 190.5,161.5C 189.184,164.408 188.184,167.408 187.5,170.5C 187.5,167.167 187.5,163.833 187.5,160.5C 187.5,158.833 187.5,157.167 187.5,155.5C 188.11,154.609 188.443,153.609 188.5,152.5C 189.674,151.486 190.34,150.153 190.5,148.5C 190.5,145.167 190.5,141.833 190.5,138.5C 188.09,137.562 185.756,137.562 183.5,138.5C 182.094,138.973 181.427,139.973 181.5,141.5C 180.391,141.557 179.391,141.89 178.5,142.5C 178.433,141.041 178.766,139.708 179.5,138.5C 181.423,138.205 183.09,137.372 184.5,136C 186.929,135.297 189.262,135.463 191.5,136.5 Z"/></g>
<g><path style="opacity:1" fill="#555fd2" d="M 221.5,135.5 C 223.5,138.167 225.833,140.5 228.5,142.5C 219.494,142.666 210.494,142.5 201.5,142C 207.191,137.072 213.857,134.906 221.5,135.5 Z"/></g>
<g><path style="opacity:1" fill="#000000" d="M 124.5,138.5 C 124.771,140.38 124.104,141.713 122.5,142.5C 122.66,140.847 123.326,139.514 124.5,138.5 Z"/></g>
<g><path style="opacity:1" fill="#000000" d="M 183.5,138.5 C 183.573,140.027 182.906,141.027 181.5,141.5C 181.427,139.973 182.094,138.973 183.5,138.5 Z"/></g>
<g><path style="opacity:1" fill="#b5663f" d="M 190.5,148.5 C 188.896,149.287 188.229,150.62 188.5,152.5C 188.443,153.609 188.11,154.609 187.5,155.5C 186.5,155.833 185.833,156.5 185.5,157.5C 185.167,157.5 184.833,157.5 184.5,157.5C 181.802,157.845 179.802,159.178 178.5,161.5C 176.088,161.306 175.088,159.973 175.5,157.5C 177.538,152.716 178.538,147.716 178.5,142.5C 179.391,141.89 180.391,141.557 181.5,141.5C 182.906,141.027 183.573,140.027 183.5,138.5C 185.756,137.562 188.09,137.562 190.5,138.5C 190.5,141.833 190.5,145.167 190.5,148.5 Z"/></g>
<g><path style="opacity:1" fill="#000000" d="M 120.5,141.5 C 120.367,144.925 121.033,145.258 122.5,142.5C 122.313,144.564 121.813,146.564 121,148.5C 120.768,147.263 120.268,146.263 119.5,145.5C 119.232,143.901 119.566,142.568 120.5,141.5 Z"/></g>
<g><path style="opacity:1" fill="#000000" d="M 177.5,142.5 C 177.065,145.157 176.065,147.491 174.5,149.5C 174.552,146.654 175.552,144.32 177.5,142.5 Z"/></g>
<g><path style="opacity:1" fill="#f9f5e1" d="M 177.5,142.5 C 177.833,142.5 178.167,142.5 178.5,142.5C 178.538,147.716 177.538,152.716 175.5,157.5C 174.523,160.287 174.19,163.287 174.5,166.5C 173.89,167.391 173.557,168.391 173.5,169.5C 172.637,170.463 171.97,170.463 171.5,169.5C 173.055,167.057 173.722,164.39 173.5,161.5C 173.833,157.5 174.167,153.5 174.5,149.5C 176.065,147.491 177.065,145.157 177.5,142.5 Z"/></g>
<g><path style="opacity:1" fill="#555fd2" d="M 232.5,145.5 C 239.523,149.696 245.356,155.029 250,161.5C 252.693,161.953 254.527,163.453 255.5,166C 255.272,166.399 254.938,166.565 254.5,166.5C 248.515,168.121 242.681,167.788 237,165.5C 236.933,162.953 236.099,160.786 234.5,159C 228.186,158.153 221.853,157.487 215.5,157C 222.08,156.209 227.747,153.543 232.5,149C 204.718,148.775 204.718,147.609 232.5,145.5 Z"/></g>
<g><path style="opacity:1" fill="#000000" d="M 190.5,148.5 C 190.34,150.153 189.674,151.486 188.5,152.5C 188.229,150.62 188.896,149.287 190.5,148.5 Z"/></g>
<g><path style="opacity:1" fill="#f9f5e1" d="M 119.5,149.5 C 119.721,152.279 119.388,154.946 118.5,157.5C 117.147,159.128 117.481,160.462 119.5,161.5C 120.718,162.161 122.051,162.828 123.5,163.5C 122.833,163.833 122.167,164.167 121.5,164.5C 119.823,163.813 118.156,163.146 116.5,162.5C 116.082,161.778 115.416,161.278 114.5,161C 115.337,159.989 115.67,158.822 115.5,157.5C 116.833,154.833 118.167,152.167 119.5,149.5 Z"/></g>
<g><path style="opacity:1" fill="#000000" d="M 130.5,152.5 C 128.91,150.576 127.076,150.243 125,151.5C 124.287,158.203 124.454,164.87 125.5,171.5C 124.833,170.833 124.167,170.167 123.5,169.5C 123.5,168.167 123.5,166.833 123.5,165.5C 122.167,165.5 120.833,165.5 119.5,165.5C 118.5,164.833 117.5,164.167 116.5,163.5C 116.5,163.167 116.5,162.833 116.5,162.5C 118.156,163.146 119.823,163.813 121.5,164.5C 122.167,164.167 122.833,163.833 123.5,163.5C 122.051,162.828 120.718,162.161 119.5,161.5C 120.833,161.5 122.167,161.5 123.5,161.5C 123.335,157.818 123.501,154.152 124,150.5C 125.726,149.424 127.559,149.257 129.5,150C 130.252,150.671 130.586,151.504 130.5,152.5 Z"/></g>
<g><path style="opacity:1" fill="#f9f5e1" d="M 130.5,152.5 C 130.5,153.167 130.5,153.833 130.5,154.5C 129.778,154.918 129.278,155.584 129,156.5C 128.667,160.5 128.333,164.5 128,168.5C 127.764,170.119 126.931,171.119 125.5,171.5C 124.454,164.87 124.287,158.203 125,151.5C 127.076,150.243 128.91,150.576 130.5,152.5 Z"/></g>
<g><path style="opacity:1" fill="#000000" d="M 130.5,154.5 C 130.173,156.488 129.84,158.488 129.5,160.5C 129.79,162.044 130.456,163.377 131.5,164.5C 131.154,165.696 130.654,165.696 130,164.5C 129.506,166.134 129.34,167.801 129.5,169.5C 128.596,170.209 128.263,171.209 128.5,172.5C 127.209,172.737 126.209,172.404 125.5,171.5C 126.931,171.119 127.764,170.119 128,168.5C 128.333,164.5 128.667,160.5 129,156.5C 129.278,155.584 129.778,154.918 130.5,154.5 Z"/></g>
<g><path style="opacity:1" fill="#000000" d="M 161.5,157.5 C 160.167,156.167 158.833,156.167 157.5,157.5C 158.557,153.832 159.891,153.832 161.5,157.5 Z"/></g>
<g><path style="opacity:1" fill="#000000" d="M 187.5,155.5 C 187.5,157.167 187.5,158.833 187.5,160.5C 186.833,160.5 186.167,160.5 185.5,160.5C 186.625,159.348 186.625,158.348 185.5,157.5C 185.833,156.5 186.5,155.833 187.5,155.5 Z"/></g>
<g><path style="opacity:1" fill="#fdfcf8" d="M 161.5,157.5 C 161.833,157.5 162.167,157.5 162.5,157.5C 162.54,160.881 162.207,164.214 161.5,167.5C 161.285,169.179 161.952,170.179 163.5,170.5C 165.371,171.797 167.371,172.797 169.5,173.5C 166.751,173.726 164.084,173.393 161.5,172.5C 160.702,172.957 160.369,173.624 160.5,174.5C 159.732,175.263 159.232,176.263 159,177.5C 158.329,178.252 157.496,178.586 156.5,178.5C 155.89,177.609 155.557,176.609 155.5,175.5C 155.5,174.5 155.5,173.5 155.5,172.5C 154.5,172.5 153.5,172.5 152.5,172.5C 151.282,171.839 149.949,171.172 148.5,170.5C 149.325,169.614 150.325,169.281 151.5,169.5C 152.878,170.234 154.378,170.901 156,171.5C 156.494,169.866 156.66,168.199 156.5,166.5C 156.963,163.518 157.296,160.518 157.5,157.5C 158.833,156.167 160.167,156.167 161.5,157.5 Z"/></g>
<g><path style="opacity:1" fill="#000000" d="M 115.5,157.5 C 115.67,158.822 115.337,159.989 114.5,161C 115.416,161.278 116.082,161.778 116.5,162.5C 115.5,162.5 114.5,162.5 113.5,162.5C 113.402,160.447 114.069,158.78 115.5,157.5 Z"/></g>
<g><path style="opacity:1" fill="#000000" d="M 118.5,157.5 C 118.833,158.833 119.167,160.167 119.5,161.5C 117.481,160.462 117.147,159.128 118.5,157.5 Z"/></g>
<g><path style="opacity:1" fill="#000000" d="M 162.5,157.5 C 163.156,158.622 163.489,159.955 163.5,161.5C 163.639,163.883 162.972,165.883 161.5,167.5C 162.207,164.214 162.54,160.881 162.5,157.5 Z"/></g>
<g><path style="opacity:1" fill="#000000" d="M 175.5,157.5 C 175.088,159.973 176.088,161.306 178.5,161.5C 178.5,161.833 178.5,162.167 178.5,162.5C 177.325,162.281 176.325,162.614 175.5,163.5C 175.957,164.298 176.624,164.631 177.5,164.5C 176.71,165.401 175.71,166.068 174.5,166.5C 174.19,163.287 174.523,160.287 175.5,157.5 Z"/></g>
<g><path style="opacity:1" fill="#000000" d="M 184.5,157.5 C 182.853,159.326 180.853,160.66 178.5,161.5C 179.802,159.178 181.802,157.845 184.5,157.5 Z"/></g>
<g><path style="opacity:1" fill="#f9f5e1" d="M 184.5,157.5 C 184.833,157.5 185.167,157.5 185.5,157.5C 186.625,158.348 186.625,159.348 185.5,160.5C 183.973,160.427 182.973,161.094 182.5,162.5C 181.167,162.5 179.833,162.5 178.5,162.5C 178.5,162.167 178.5,161.833 178.5,161.5C 180.853,160.66 182.853,159.326 184.5,157.5 Z"/></g>
<g><path style="opacity:1" fill="#000000" d="M 185.5,160.5 C 185.027,161.906 184.027,162.573 182.5,162.5C 182.973,161.094 183.973,160.427 185.5,160.5 Z"/></g>
<g><path style="opacity:1" fill="#b4653f" d="M 185.5,160.5 C 186.167,160.5 186.833,160.5 187.5,160.5C 187.5,163.833 187.5,167.167 187.5,170.5C 185.79,177.256 184.79,184.256 184.5,191.5C 184.167,191.5 183.833,191.5 183.5,191.5C 181.164,192.845 179.497,194.845 178.5,197.5C 177.426,199.216 175.759,200.216 173.5,200.5C 171.866,200.032 170.7,199.032 170,197.5C 167.067,190.373 167.234,183.373 170.5,176.5C 171.736,174.351 172.736,172.018 173.5,169.5C 173.557,168.391 173.89,167.391 174.5,166.5C 175.71,166.068 176.71,165.401 177.5,164.5C 177.833,163.833 178.167,163.167 178.5,162.5C 179.833,162.5 181.167,162.5 182.5,162.5C 184.027,162.573 185.027,161.906 185.5,160.5 Z"/></g>
<g><path style="opacity:1" fill="#1a1a1a" d="M 173.5,161.5 C 173.722,164.39 173.055,167.057 171.5,169.5C 171.97,170.463 172.637,170.463 173.5,169.5C 172.736,172.018 171.736,174.351 170.5,176.5C 170.737,175.209 170.404,174.209 169.5,173.5C 167.371,172.797 165.371,171.797 163.5,170.5C 165.599,171.231 167.599,171.231 169.5,170.5C 171.164,167.518 172.497,164.518 173.5,161.5 Z"/></g>
<g><path style="opacity:1" fill="#040209" d="M 190.5,161.5 C 189.944,165.84 189.277,170.173 188.5,174.5C 188.64,176.03 189.307,177.03 190.5,177.5C 190.205,179.423 189.372,181.09 188,182.5C 187.501,178.514 187.334,174.514 187.5,170.5C 188.184,167.408 189.184,164.408 190.5,161.5 Z"/></g>
<g><path style="opacity:1" fill="#000000" d="M 149.5,162.5 C 149.185,165.211 149.852,167.544 151.5,169.5C 150.325,169.281 149.325,169.614 148.5,170.5C 149.949,171.172 151.282,171.839 152.5,172.5C 150.833,172.5 149.167,172.5 147.5,172.5C 147.753,168.96 148.419,165.627 149.5,162.5 Z"/></g>
<g><path style="opacity:1" fill="#f9f5e1" d="M 178.5,162.5 C 178.167,163.167 177.833,163.833 177.5,164.5C 176.624,164.631 175.957,164.298 175.5,163.5C 176.325,162.614 177.325,162.281 178.5,162.5 Z"/></g>
<g><path style="opacity:1" fill="#fefffe" d="M 205.5,162.5 C 208.834,164.834 212.501,166.667 216.5,168C 221.716,172.426 227.05,176.593 232.5,180.5C 235.686,190.079 237.686,199.912 238.5,210C 237.87,217.525 237.037,225.025 236,232.5C 228.407,232.809 221.24,230.976 214.5,227C 207.327,224.598 199.994,222.765 192.5,221.5C 193.888,211.187 195.221,200.854 196.5,190.5C 201.062,181.811 204.062,172.478 205.5,162.5 Z M 207.5,168.5 C 206.574,177.553 203.907,185.886 199.5,193.5C 198.224,201.815 197.224,210.148 196.5,218.5C 209.029,221.639 221.362,225.306 233.5,229.5C 233.889,222.925 234.556,216.425 235.5,210C 234.219,201.038 232.219,192.205 229.5,183.5C 224.05,179.593 218.716,175.426 213.5,171C 211.512,170.062 209.512,169.228 207.5,168.5 Z"/></g>
<g><path style="opacity:1" fill="#f9f5e1" d="M 116.5,163.5 C 117.5,164.167 118.5,164.833 119.5,165.5C 119.5,165.833 119.5,166.167 119.5,166.5C 118.883,166.611 118.383,166.944 118,167.5C 117.333,173.167 117.333,178.833 118,184.5C 118.278,185.416 118.778,186.082 119.5,186.5C 119.833,187.833 120.167,189.167 120.5,190.5C 119.833,190.5 119.167,190.5 118.5,190.5C 118.068,189.29 117.401,188.29 116.5,187.5C 116.5,187.167 116.5,186.833 116.5,186.5C 116.771,184.62 116.104,183.287 114.5,182.5C 114.292,177.364 114.959,172.364 116.5,167.5C 116.5,166.167 116.5,164.833 116.5,163.5 Z"/></g>
<g><path style="opacity:1" fill="#161514" d="M 140.5,164.5 C 140.451,168.078 139.785,171.411 138.5,174.5C 139.231,169.246 136.898,167.079 131.5,168C 134.824,167.386 137.824,166.22 140.5,164.5 Z"/></g>
<g><path style="opacity:1" fill="#f9f4e1" d="M 183.5,207.5 C 180.58,209.662 178.913,212.662 178.5,216.5C 178.5,216.833 178.5,217.167 178.5,217.5C 177.101,219.942 175.434,222.276 173.5,224.5C 169.415,223.624 165.415,222.458 161.5,221C 160.667,218.919 160.667,216.752 161.5,214.5C 161.5,214.167 161.5,213.833 161.5,213.5C 164.059,210.067 166.392,206.401 168.5,202.5C 172.095,203.896 175.429,203.562 178.5,201.5C 174.498,201.964 170.831,201.298 167.5,199.5C 167.156,195.947 166.489,192.447 165.5,189C 166.619,185.239 167.286,181.406 167.5,177.5C 168.345,176.329 169.011,174.995 169.5,173.5C 170.404,174.209 170.737,175.209 170.5,176.5C 167.234,183.373 167.067,190.373 170,197.5C 170.7,199.032 171.866,200.032 173.5,200.5C 175.759,200.216 177.426,199.216 178.5,197.5C 180.836,196.155 182.503,194.155 183.5,191.5C 183.833,191.5 184.167,191.5 184.5,191.5C 184.79,184.256 185.79,177.256 187.5,170.5C 187.334,174.514 187.501,178.514 188,182.5C 189.372,181.09 190.205,179.423 190.5,177.5C 193.318,175.021 195.318,172.021 196.5,168.5C 196.5,168.167 196.5,167.833 196.5,167.5C 198.371,167.141 199.871,166.141 201,164.5C 200.947,166.788 200.614,169.121 200,171.5C 197.563,174.376 196.23,177.71 196,181.5C 192.6,187.965 188.933,194.298 185,200.5C 184.023,202.74 183.523,205.073 183.5,207.5 Z"/></g>
<g><path style="opacity:1" fill="#bb6941" d="M 119.5,165.5 C 120.833,165.5 122.167,165.5 123.5,165.5C 123.5,166.833 123.5,168.167 123.5,169.5C 122.629,172.003 121.963,174.67 121.5,177.5C 121.029,179.579 120.363,181.579 119.5,183.5C 118.238,177.963 118.238,172.297 119.5,166.5C 119.5,166.167 119.5,165.833 119.5,165.5 Z"/></g>
<g><path style="opacity:1" fill="#373837" d="M 33.5,166.5 C 36.1656,166.933 38.8323,167.433 41.5,168C 43.3766,170.106 45.71,171.439 48.5,172C 46.1853,173.109 44.6853,174.943 44,177.5C 43.8275,181.871 43.3275,186.204 42.5,190.5C 37.4704,188.807 32.6371,186.807 28,184.5C 26.7496,181.923 26.4163,179.257 27,176.5C 29.0078,173.006 31.1745,169.673 33.5,166.5 Z"/></g>
<g><path style="opacity:1" fill="#000000" d="M 119.5,166.5 C 118.238,172.297 118.238,177.963 119.5,183.5C 119.5,184.5 119.5,185.5 119.5,186.5C 118.778,186.082 118.278,185.416 118,184.5C 117.333,178.833 117.333,173.167 118,167.5C 118.383,166.944 118.883,166.611 119.5,166.5 Z"/></g>
<g><path style="opacity:1" fill="#000000" d="M 156.5,166.5 C 156.66,168.199 156.494,169.866 156,171.5C 154.378,170.901 152.878,170.234 151.5,169.5C 152.833,169.5 154.167,169.5 155.5,169.5C 155.263,168.209 155.596,167.209 156.5,166.5 Z"/></g>
<g><path style="opacity:1" fill="#000000" d="M 116.5,167.5 C 114.959,172.364 114.292,177.364 114.5,182.5C 113.359,179.36 113.192,176.027 114,172.5C 114.374,170.509 115.207,168.842 116.5,167.5 Z"/></g>
<g><path style="opacity:1" fill="#000000" d="M 196.5,168.5 C 195.318,172.021 193.318,175.021 190.5,177.5C 191.289,173.707 193.289,170.707 196.5,168.5 Z"/></g>
<g><path style="opacity:1" fill="#000000" d="M 123.5,169.5 C 123.663,171.857 123.497,174.19 123,176.5C 122.617,177.056 122.117,177.389 121.5,177.5C 121.963,174.67 122.629,172.003 123.5,169.5 Z"/></g>
<g><path style="opacity:1" fill="#f9f5e1" d="M 123.5,169.5 C 124.167,170.167 124.833,170.833 125.5,171.5C 126.209,172.404 127.209,172.737 128.5,172.5C 128.263,171.209 128.596,170.209 129.5,169.5C 129.893,172.513 129.226,175.18 127.5,177.5C 126.094,177.973 125.427,178.973 125.5,180.5C 125.167,181.5 124.5,182.167 123.5,182.5C 121.5,182.5 120.5,183.5 120.5,185.5C 120.5,186.167 120.167,186.5 119.5,186.5C 119.5,185.5 119.5,184.5 119.5,183.5C 120.363,181.579 121.029,179.579 121.5,177.5C 122.117,177.389 122.617,177.056 123,176.5C 123.497,174.19 123.663,171.857 123.5,169.5 Z"/></g>
<g><path style="opacity:1" fill="#000000" d="M 129.5,169.5 C 130.629,171.628 130.796,173.961 130,176.5C 129.329,177.252 128.496,177.586 127.5,177.5C 129.226,175.18 129.893,172.513 129.5,169.5 Z"/></g>
<g><path style="opacity:1" fill="#b4653f" d="M 147.5,172.5 C 149.167,172.5 150.833,172.5 152.5,172.5C 153.5,172.5 154.5,172.5 155.5,172.5C 155.5,173.5 155.5,174.5 155.5,175.5C 154.167,177.5 154.167,179.5 155.5,181.5C 156.021,185.481 156.354,189.481 156.5,193.5C 156.5,195.5 156.5,197.5 156.5,199.5C 154.167,199.5 151.833,199.5 149.5,199.5C 143.666,191.005 142.999,182.005 147.5,172.5 Z"/></g>
<g><path style="opacity:1" fill="#000000" d="M 169.5,173.5 C 169.011,174.995 168.345,176.329 167.5,177.5C 167.5,176.5 167.5,175.5 167.5,174.5C 165.167,174.5 162.833,174.5 160.5,174.5C 160.369,173.624 160.702,172.957 161.5,172.5C 164.084,173.393 166.751,173.726 169.5,173.5 Z"/></g>
<g><path style="opacity:1" fill="#000000" d="M 160.5,174.5 C 161.263,182.142 161.597,189.809 161.5,197.5C 160.673,192.349 160.173,187.016 160,181.5C 159.015,180.186 157.848,179.186 156.5,178.5C 157.496,178.586 158.329,178.252 159,177.5C 159.232,176.263 159.732,175.263 160.5,174.5 Z"/></g>
<g><path style="opacity:1" fill="#b4653f" d="M 160.5,174.5 C 162.833,174.5 165.167,174.5 167.5,174.5C 167.5,175.5 167.5,176.5 167.5,177.5C 167.286,181.406 166.619,185.239 165.5,189C 166.489,192.447 167.156,195.947 167.5,199.5C 167.53,200.497 167.03,201.164 166,201.5C 164.56,200.852 163.06,200.519 161.5,200.5C 161.5,199.5 161.5,198.5 161.5,197.5C 161.597,189.809 161.263,182.142 160.5,174.5 Z"/></g>
<g><path style="opacity:1" fill="#000000" d="M 155.5,175.5 C 155.557,176.609 155.89,177.609 156.5,178.5C 155.596,179.209 155.263,180.209 155.5,181.5C 154.167,179.5 154.167,177.5 155.5,175.5 Z"/></g>
<g><path style="opacity:1" fill="#000000" d="M 127.5,177.5 C 127.573,179.027 126.906,180.027 125.5,180.5C 125.427,178.973 126.094,177.973 127.5,177.5 Z"/></g>
<g><path style="opacity:1" fill="#f9f5e1" d="M 156.5,178.5 C 157.848,179.186 159.015,180.186 160,181.5C 160.173,187.016 160.673,192.349 161.5,197.5C 161.5,198.5 161.5,199.5 161.5,200.5C 160.178,200.67 159.011,200.337 158,199.5C 157.809,197.292 157.309,195.292 156.5,193.5C 156.354,189.481 156.021,185.481 155.5,181.5C 155.263,180.209 155.596,179.209 156.5,178.5 Z"/></g>
<g><path style="opacity:1" fill="#373837" d="M 56.5,182.5 C 67.6836,185.964 79.0169,189.131 90.5,192C 95.1417,194.818 100.142,196.818 105.5,198C 108.712,199.709 108.878,201.209 106,202.5C 96.0036,199.54 86.1703,196.04 76.5,192C 69.4786,190.15 62.4786,188.317 55.5,186.5C 55.4326,185.041 55.7659,183.708 56.5,182.5 Z"/></g>
<g><path style="opacity:1" fill="#000000" d="M 114.5,182.5 C 116.104,183.287 116.771,184.62 116.5,186.5C 115.326,185.486 114.66,184.153 114.5,182.5 Z"/></g>
<g><path style="opacity:1" fill="#000000" d="M 123.5,182.5 C 122.833,183.833 121.833,184.833 120.5,185.5C 120.5,183.5 121.5,182.5 123.5,182.5 Z"/></g>
<g><path style="opacity:1" fill="#000000" d="M 184.5,191.5 C 185.79,190.942 186.623,189.942 187,188.5C 187.167,189 187.333,189.5 187.5,190C 186.287,191.63 185.454,193.464 185,195.5C 184.51,194.207 184.343,192.873 184.5,191.5 Z"/></g>
<g><path style="opacity:1" fill="#28319b" d="M 118.5,190.5 C 119.167,190.5 119.833,190.5 120.5,190.5C 120.5,190.833 120.5,191.167 120.5,191.5C 122.272,193.776 124.272,195.943 126.5,198C 125.663,199.011 125.33,200.178 125.5,201.5C 125.5,202.167 125.5,202.833 125.5,203.5C 122.823,206.277 120.99,209.611 120,213.5C 117.456,211.446 115.123,209.113 113,206.5C 112.389,202.318 113.056,198.318 115,194.5C 115.498,192.456 116.665,191.122 118.5,190.5 Z"/></g>
<g><path style="opacity:1" fill="#f9f5e1" d="M 120.5,191.5 C 120.5,191.167 120.5,190.833 120.5,190.5C 122.117,191.038 123.784,191.371 125.5,191.5C 125.631,192.376 125.298,193.043 124.5,193.5C 123.14,192.82 121.807,192.153 120.5,191.5 Z"/></g>
<g><path style="opacity:1" fill="#000000" d="M 183.5,191.5 C 182.503,194.155 180.836,196.155 178.5,197.5C 179.497,194.845 181.164,192.845 183.5,191.5 Z"/></g>
<g><path style="opacity:1" fill="#f5f1de" d="M 134.5,211.5 C 133.442,212.6 132.608,213.934 132,215.5C 131.092,220.853 130.092,226.187 129,231.5C 127.678,234.468 126.511,237.468 125.5,240.5C 124.325,240.281 123.325,240.614 122.5,241.5C 121.333,243.833 120.167,246.167 119,248.5C 117.032,243.05 114.865,237.717 112.5,232.5C 112.681,228.299 114.014,224.632 116.5,221.5C 117.496,221.586 118.329,221.252 119,220.5C 121.438,214.91 123.605,209.243 125.5,203.5C 125.5,202.833 125.5,202.167 125.5,201.5C 127.145,200.521 128.479,199.188 129.5,197.5C 131.851,199.229 134.518,199.896 137.5,199.5C 136.488,203.515 135.488,207.515 134.5,211.5 Z"/></g>
<g><path style="opacity:1" fill="#000000" d="M 181.5,199.5 C 181.783,198.711 182.283,198.044 183,197.5C 183.528,198.816 183.028,199.483 181.5,199.5 Z"/></g>
<g><path style="opacity:1" fill="#29319c" d="M 183.5,223.5 C 181.494,225.519 179.828,227.852 178.5,230.5C 177.248,228.999 176.248,227.332 175.5,225.5C 177.623,223.255 178.623,220.588 178.5,217.5C 178.5,217.167 178.5,216.833 178.5,216.5C 181.45,214.272 183.116,211.272 183.5,207.5C 185.075,203.922 187.075,200.589 189.5,197.5C 190.655,200.446 190.821,203.446 190,206.5C 188.187,209.388 186.521,212.388 185,215.5C 184.178,218.117 183.678,220.784 183.5,223.5 Z"/></g>
<g><path style="opacity:1" fill="#f9f5e1" d="M 156.5,215.5 C 156.649,216.552 156.483,217.552 156,218.5C 151.496,216.08 146.663,215.08 141.5,215.5C 140.5,210.168 139.5,204.835 138.5,199.5C 144.155,200.232 149.821,200.899 155.5,201.5C 155.181,206.363 155.514,211.03 156.5,215.5 Z"/></g>
<g><path style="opacity:1" fill="#000000" d="M 181.5,199.5 C 181.027,200.906 180.027,201.573 178.5,201.5C 178.973,200.094 179.973,199.427 181.5,199.5 Z"/></g>
<g><path style="opacity:1" fill="#29319c" d="M 161.5,213.5 C 161.5,213.833 161.5,214.167 161.5,214.5C 159.827,215.343 158.66,216.676 158,218.5C 157.768,217.263 157.268,216.263 156.5,215.5C 156.5,210.833 156.5,206.167 156.5,201.5C 159.545,201.508 162.545,201.841 165.5,202.5C 163.699,205.978 162.365,209.645 161.5,213.5 Z"/></g>
<g><path style="opacity:1" fill="#29319c" d="M 134.5,211.5 C 136.446,209.266 137.613,206.599 138,203.5C 138.282,207.039 138.782,210.539 139.5,214C 138.381,215.876 136.714,216.709 134.5,216.5C 134.5,214.833 134.5,213.167 134.5,211.5 Z"/></g>
<g><path style="opacity:1" fill="#fec90d" d="M 105.5,204.5 C 106.873,204.343 108.207,204.51 109.5,205C 112.097,207.672 114.43,210.505 116.5,213.5C 112.996,216.531 110.329,215.864 108.5,211.5C 105.752,210.356 103.919,211.356 103,214.5C 102.667,217.833 102.333,221.167 102,224.5C 100.682,221.594 100.348,218.594 101,215.5C 102.3,212.705 103.8,210.039 105.5,207.5C 104.209,206.473 104.209,205.473 105.5,204.5 Z"/></g>
<g><path style="opacity:1" fill="#000000" d="M 183.5,207.5 C 183.116,211.272 181.45,214.272 178.5,216.5C 178.913,212.662 180.58,209.662 183.5,207.5 Z"/></g>
<g><path style="opacity:1" fill="#ec1c23" d="M 183.5,223.5 C 185.892,219.044 188.058,214.377 190,209.5C 190.167,210.333 190.333,211.167 190.5,212C 185.242,224.772 181.409,237.938 179,251.5C 178.333,245.5 178.333,239.5 179,233.5C 181.365,230.576 182.865,227.243 183.5,223.5 Z"/></g>
<g><path style="opacity:1" fill="#ec1c23" d="M 116.5,221.5 C 114.876,221.36 113.71,222.027 113,223.5C 112.451,226.923 111.618,230.256 110.5,233.5C 111.926,236.976 111.26,239.976 108.5,242.5C 108.664,239.813 108.497,237.146 108,234.5C 106.559,233.13 104.892,232.13 103,231.5C 102.333,230.5 102.333,229.5 103,228.5C 107.266,223.763 111.933,219.43 117,215.5C 117.5,216 118,216.5 118.5,217C 116.963,218.11 116.297,219.61 116.5,221.5 Z"/></g>
<g><path style="opacity:1" fill="#fefffe" d="M 106.5,216.5 C 108.337,216.639 108.67,217.306 107.5,218.5C 106.702,218.043 106.369,217.376 106.5,216.5 Z"/></g>
<g><path style="opacity:1" fill="#373837" d="M 138.5,216.5 C 139.364,217.688 140.364,218.855 141.5,220C 148.485,223.656 155.818,226.49 163.5,228.5C 166.006,228.252 167.672,226.919 168.5,224.5C 174.409,225.868 174.909,228.201 170,231.5C 169.667,234.167 169.333,236.833 169,239.5C 167.692,237.359 166.192,235.359 164.5,233.5C 157.373,229.736 149.873,227.069 142,225.5C 139.183,226.031 136.35,226.364 133.5,226.5C 133.574,222.352 135.241,219.019 138.5,216.5 Z"/></g>
<g><path style="opacity:1" fill="#ec1c23" d="M 242.5,221.5 C 248.612,223.475 254.945,223.975 261.5,223C 262,222.5 262.5,222 263,221.5C 263.828,226.202 263.662,230.869 262.5,235.5C 256.012,237.043 249.679,236.543 243.5,234C 242.5,233 241.5,232 240.5,231C 241.207,227.839 241.874,224.672 242.5,221.5 Z"/></g>
<g><path style="opacity:1" fill="#29319c" d="M 207.5,314.5 C 207.167,314.5 206.833,314.5 206.5,314.5C 203.375,313.521 200.042,313.187 196.5,313.5C 196.662,311.473 196.495,309.473 196,307.5C 190.339,300.332 184.839,292.999 179.5,285.5C 178.52,282.914 178.187,280.247 178.5,277.5C 178.5,275.167 178.5,272.833 178.5,270.5C 179.984,259.978 181.484,249.311 183,238.5C 184.38,233.405 186.047,228.405 188,223.5C 192.555,240.391 199.221,256.391 208,271.5C 209,275.5 210,279.5 211,283.5C 213.708,291.254 216.708,298.921 220,306.5C 220.818,309.227 220.652,311.894 219.5,314.5C 215.529,315.556 211.529,315.556 207.5,314.5 Z"/></g>
<g><path style="opacity:1" fill="#373837" d="M 191.5,225.5 C 206.355,229.539 221.022,234.206 235.5,239.5C 236.641,241.421 236.808,243.421 236,245.5C 233.057,243.625 229.89,242.125 226.5,241C 214.876,237.531 203.209,234.031 191.5,230.5C 191.5,228.833 191.5,227.167 191.5,225.5 Z"/></g>
<g><path style="opacity:1" fill="#29319c" d="M 134.5,260.5 C 133.21,261.058 132.377,262.058 132,263.5C 130.407,258.78 128.24,254.447 125.5,250.5C 125.5,249.833 125.5,249.167 125.5,248.5C 124.37,245.803 124.37,243.137 125.5,240.5C 127.017,240.489 128.184,239.823 129,238.5C 129.794,235.529 130.461,232.529 131,229.5C 131.168,237.521 131.668,245.521 132.5,253.5C 133.944,255.608 134.61,257.941 134.5,260.5 Z"/></g>
<g><path style="opacity:1" fill="#373837" d="M 173.5,234.5 C 174.458,234.953 175.292,235.619 176,236.5C 176.499,242.491 176.666,248.491 176.5,254.5C 174.418,254.472 172.584,255.139 171,256.5C 170.03,248.926 170.864,241.593 173.5,234.5 Z"/></g>
<g><path style="opacity:1" fill="#fec90d" d="M 141.5,236.5 C 143.621,238.734 146.288,240.234 149.5,241C 146.224,241.373 143.224,240.54 140.5,238.5C 140.863,237.817 141.196,237.15 141.5,236.5 Z"/></g>
<g><path style="opacity:1" fill="#f9a884" d="M 243.5,236.5 C 246.167,237.833 248.833,239.167 251.5,240.5C 249.08,240.292 246.747,240.626 244.5,241.5C 241.631,244.61 241.298,247.777 243.5,251C 243.37,252.059 242.87,252.892 242,253.5C 237.462,248.588 236.295,242.922 238.5,236.5C 240.167,236.5 241.833,236.5 243.5,236.5 Z"/></g>
<g><path style="opacity:1" fill="#f7814d" d="M 243.5,236.5 C 248.516,236.978 253.516,237.645 258.5,238.5C 260.03,238.64 261.03,239.307 261.5,240.5C 258.5,240.5 255.5,240.5 252.5,240.5C 252.167,240.5 251.833,240.5 251.5,240.5C 248.833,239.167 246.167,237.833 243.5,236.5 Z"/></g>
<g><path style="opacity:1" fill="#29319c" d="M 120.5,256.5 C 120.657,257.873 120.49,259.207 120,260.5C 117.277,257.443 114.944,254.11 113,250.5C 112.333,246.833 112.333,243.167 113,239.5C 115.193,245.45 117.693,251.116 120.5,256.5 Z"/></g>
<g><path style="opacity:1" fill="#fec90d" d="M 152.5,245.5 C 148.978,246.004 145.478,246.671 142,247.5C 138.816,246.276 138.983,245.109 142.5,244C 148.725,241.684 155.058,240.851 161.5,241.5C 158.588,243.24 155.588,244.573 152.5,245.5 Z"/></g>
<g><path style="opacity:1" fill="#f9a884" d="M 252.5,240.5 C 255.5,240.5 258.5,240.5 261.5,240.5C 262.511,242.402 262.678,244.402 262,246.5C 259.122,245.311 256.288,243.978 253.5,242.5C 252.702,242.043 252.369,241.376 252.5,240.5 Z"/></g>
<g><path style="opacity:1" fill="#373837" d="M 246.5,242.5 C 259.934,246.431 273.268,250.931 286.5,256C 289.833,256.667 293.167,257.333 296.5,258C 298.847,258.712 300.847,259.879 302.5,261.5C 301.469,262.7 300.635,264.034 300,265.5C 296.851,264.004 293.684,262.504 290.5,261C 274.697,256.882 259.031,252.215 243.5,247C 244.386,245.385 245.386,243.885 246.5,242.5 Z"/></g>
<g><path style="opacity:1" fill="#fec90d" d="M 152.5,245.5 C 155.351,246.323 158.018,247.656 160.5,249.5C 161.614,250.723 161.781,252.056 161,253.5C 157.696,252.388 154.863,250.555 152.5,248C 151.402,247.23 151.402,246.397 152.5,245.5 Z"/></g>
<g><path style="opacity:1" fill="#29319c" d="M 113.5,314.5 C 110.332,313.556 106.999,313.556 103.5,314.5C 100.472,314.339 97.6388,315.006 95,316.5C 94.5,316.167 94,315.833 93.5,315.5C 96.032,307.071 98.8653,298.738 102,290.5C 102.778,287.725 102.278,285.225 100.5,283C 101.211,275.956 103.377,269.456 107,263.5C 108.085,258.563 108.752,253.563 109,248.5C 109.317,246.699 109.984,246.366 111,247.5C 110.871,261.834 110.371,276.168 109.5,290.5C 114.214,290.173 118.88,290.507 123.5,291.5C 122.097,293.731 120.93,296.064 120,298.5C 120.221,304.367 119.887,310.367 119,316.5C 117.556,314.845 115.722,314.178 113.5,314.5 Z"/></g>
<g><path style="opacity:1" fill="#373837" d="M 125.5,248.5 C 125.5,249.167 125.5,249.833 125.5,250.5C 128.867,260.25 132.7,269.916 137,279.5C 137.338,284.954 139.338,289.621 143,293.5C 142.893,296.557 144.06,298.891 146.5,300.5C 150.342,309.096 154.676,317.429 159.5,325.5C 158.234,326.724 157.067,328.057 156,329.5C 148.989,317.16 141.989,304.827 135,292.5C 132.565,287.764 130.899,282.764 130,277.5C 128.974,274.761 127.474,272.428 125.5,270.5C 125.5,269.833 125.5,269.167 125.5,268.5C 125.373,263.768 123.707,259.768 120.5,256.5C 118.811,252.58 119.477,249.246 122.5,246.5C 123.518,247.193 124.518,247.859 125.5,248.5 Z"/></g>
<g><path style="opacity:1" fill="#f9a884" d="M 245.5,250.5 C 246.5,250.5 247.5,250.5 248.5,250.5C 248.978,253.278 247.978,255.278 245.5,256.5C 244.769,254.599 244.769,252.599 245.5,250.5 Z"/></g>
<g><path style="opacity:1" fill="#f9f5e1" d="M 140.5,255.5 C 139.849,256.091 139.182,256.757 138.5,257.5C 137.534,255.604 137.201,253.604 137.5,251.5C 138.5,251.5 139.5,251.5 140.5,251.5C 140.5,252.833 140.5,254.167 140.5,255.5 Z"/></g>
<g><path style="opacity:1" fill="#e31921" d="M 108.5,242.5 C 108.66,244.199 108.494,245.866 108,247.5C 104.456,249.039 102.456,251.706 102,255.5C 101.333,254.167 100.667,254.167 100,255.5C 99.7292,259.954 99.5626,264.287 99.5,268.5C 95.0078,269.96 91.3411,268.793 88.5,265C 89.8633,263.055 90.6966,260.888 91,258.5C 96.8119,253.033 102.645,247.7 108.5,242.5 Z"/></g>
<g><path style="opacity:1" fill="#373837" d="M 158.5,260.5 C 157.566,261.568 157.232,262.901 157.5,264.5C 152.32,262.206 146.987,260.039 141.5,258C 140.748,257.329 140.414,256.496 140.5,255.5C 141.158,254.602 141.824,253.602 142.5,252.5C 146.851,257.017 152.184,258.684 158.5,257.5C 158.5,258.5 158.5,259.5 158.5,260.5 Z"/></g>
<g><path style="opacity:1" fill="#f9a884" d="M 250.5,252.5 C 254.708,254.926 254.375,256.259 249.5,256.5C 249.433,255.041 249.766,253.708 250.5,252.5 Z"/></g>
<g><path style="opacity:1" fill="#ec1c23" d="M 113.5,271.5 C 113.721,272.735 114.388,273.735 115.5,274.5C 113.364,275.852 113.03,277.518 114.5,279.5C 118.124,281.396 120.124,280.396 120.5,276.5C 120.136,274.307 119.136,272.473 117.5,271C 119.56,269.507 119.893,267.674 118.5,265.5C 117.158,266.902 116.324,266.569 116,264.5C 114.628,265.91 113.795,267.577 113.5,269.5C 112.349,264.35 112.183,259.016 113,253.5C 115.306,257.127 117.639,260.794 120,264.5C 120.59,270.221 121.423,275.888 122.5,281.5C 119.588,283.921 116.255,285.588 112.5,286.5C 111.609,281.332 111.942,276.332 113.5,271.5 Z"/></g>
<g><path style="opacity:1" fill="#f9a884" d="M 254.5,255.5 C 257.293,255.74 257.793,256.74 256,258.5C 254.961,257.756 254.461,256.756 254.5,255.5 Z"/></g>
<g><path style="opacity:1" fill="#373837" d="M 174.5,265.5 C 171.167,265.5 167.833,265.5 164.5,265.5C 164.167,265.5 163.833,265.5 163.5,265.5C 163.158,264.662 162.492,264.328 161.5,264.5C 161.5,263.5 161.5,262.5 161.5,261.5C 162.268,260.737 162.768,259.737 163,258.5C 165.882,260.96 168.382,260.793 170.5,258C 172.436,257.187 174.436,256.687 176.5,256.5C 176.244,259.598 175.578,262.598 174.5,265.5 Z"/></g>
<g><path style="opacity:1" fill="#f9a884" d="M 258.5,256.5 C 261.588,256.197 263.254,257.53 263.5,260.5C 260.05,261.244 258.384,259.91 258.5,256.5 Z"/></g>
<g><path style="opacity:1" fill="#f9f5e1" d="M 161.5,261.5 C 161.5,262.5 161.5,263.5 161.5,264.5C 160.5,264.5 159.5,264.5 158.5,264.5C 158.5,263.167 158.5,261.833 158.5,260.5C 160.33,256.392 161.33,256.725 161.5,261.5 Z"/></g>
<g><path style="opacity:1" fill="#ec1c23" d="M 134.5,260.5 C 135.458,260.047 136.292,259.381 137,258.5C 143.544,260.722 149.877,263.388 156,266.5C 157.05,272.439 158.55,278.272 160.5,284C 157.589,288.71 153.256,290.877 147.5,290.5C 146.451,284.683 144.784,279.016 142.5,273.5C 141.331,276.198 140.164,278.865 139,281.5C 137.021,276.377 135.187,271.21 133.5,266C 134.233,264.234 134.567,262.401 134.5,260.5 Z"/></g>
<g><path style="opacity:1" fill="#373837" d="M 318.5,259.5 C 320.045,260.23 320.878,261.563 321,263.5C 321.669,260.733 322.836,260.233 324.5,262C 324.241,263.261 323.574,264.261 322.5,265C 324.832,264.351 327.166,264.518 329.5,265.5C 330.478,265.023 331.311,264.357 332,263.5C 332.617,264.449 332.451,265.282 331.5,266C 332.449,266.617 333.282,266.451 334,265.5C 334.317,267.301 334.984,267.634 336,266.5C 337.385,267.551 338.385,268.884 339,270.5C 343.422,270.355 347.755,270.355 352,270.5C 352.725,268.842 353.892,268.342 355.5,269C 356.051,270.398 356.384,271.732 356.5,273C 354.074,276.516 351.407,279.849 348.5,283C 347.552,283.483 346.552,283.649 345.5,283.5C 345.627,281.085 345.793,278.751 346,276.5C 345.667,276.833 345.333,277.167 345,277.5C 339.797,274.983 334.463,272.65 329,270.5C 325.128,271.529 321.794,270.529 319,267.5C 317.561,269.014 316.061,269.347 314.5,268.5C 315.84,265.471 317.173,262.471 318.5,259.5 Z"/></g>
<g><path style="opacity:1" fill="#373837" d="M 306.5,260.5 C 309.167,260.5 311.833,260.5 314.5,260.5C 313.018,265.751 311.518,271.085 310,276.5C 308.079,274.037 305.746,272.037 303,270.5C 302.333,268.833 302.333,267.167 303,265.5C 304.802,264.211 305.969,262.544 306.5,260.5 Z"/></g>
<g><path style="opacity:1" fill="#ec1c23" d="M 178.5,270.5 C 178.5,272.833 178.5,275.167 178.5,277.5C 177.663,282.767 176.496,288.1 175,293.5C 170.453,291.652 166.287,289.152 162.5,286C 164.474,282.19 166.14,278.356 167.5,274.5C 167.523,272.073 168.023,269.74 169,267.5C 170.948,266.891 172.782,266.224 174.5,265.5C 175.5,265.5 176.5,265.5 177.5,265.5C 177.351,264.448 177.517,263.448 178,262.5C 178.497,265.146 178.664,267.813 178.5,270.5 Z"/></g>
<g><path style="opacity:1" fill="#29319c" d="M 125.5,268.5 C 125.5,269.167 125.5,269.833 125.5,270.5C 125.5,272.833 125.5,275.167 125.5,277.5C 124.778,277.918 124.278,278.584 124,279.5C 123.084,274.514 122.75,269.514 123,264.5C 123.934,265.858 124.768,267.192 125.5,268.5 Z"/></g>
<g><path style="opacity:1" fill="#24256e" d="M 113.5,271.5 C 113.5,270.833 113.5,270.167 113.5,269.5C 113.795,267.577 114.628,265.91 116,264.5C 116.324,266.569 117.158,266.902 118.5,265.5C 119.893,267.674 119.56,269.507 117.5,271C 119.136,272.473 120.136,274.307 120.5,276.5C 120.124,280.396 118.124,281.396 114.5,279.5C 113.03,277.518 113.364,275.852 115.5,274.5C 114.388,273.735 113.721,272.735 113.5,271.5 Z"/></g>
<g><path style="opacity:1" fill="#29319c" d="M 163.5,265.5 C 163.833,265.5 164.167,265.5 164.5,265.5C 165.209,266.404 166.209,266.737 167.5,266.5C 166.284,272.021 164.451,277.354 162,282.5C 160.185,276.894 158.685,271.227 157.5,265.5C 159.5,265.5 161.5,265.5 163.5,265.5 Z"/></g>
<g><path style="opacity:1" fill="#555fd2" d="M 183.5,267.5 C 188.523,271.731 194.189,275.064 200.5,277.5C 201.452,279.045 201.785,280.712 201.5,282.5C 191.852,283.518 185.185,279.685 181.5,271C 181.978,269.697 182.645,268.531 183.5,267.5 Z"/></g>
<g><path style="opacity:1" fill="#24256d" d="M 151.5,270.5 C 155.503,271.86 156.836,274.527 155.5,278.5C 155.939,280.104 156.606,281.604 157.5,283C 154.937,287.494 152.271,287.494 149.5,283C 149.668,279.42 149.668,275.92 149.5,272.5C 150.243,271.818 150.909,271.151 151.5,270.5 Z"/></g>
<g><path style="opacity:1" fill="#262879" d="M 167.5,274.5 C 169.735,273.772 171.568,272.439 173,270.5C 173.333,271.167 173.667,271.833 174,272.5C 174.355,276.088 174.522,279.755 174.5,283.5C 173.339,287.722 171.172,288.388 168,285.5C 168.447,282.341 168.947,279.341 169.5,276.5C 168.757,275.818 168.091,275.151 167.5,274.5 Z"/></g>
<g><path style="opacity:1" fill="#ec1c23" d="M 125.5,285.5 C 124.37,282.863 124.37,280.197 125.5,277.5C 126.117,277.389 126.617,277.056 127,276.5C 129.533,280.203 130.866,284.203 131,288.5C 129.736,286.393 127.903,285.393 125.5,285.5 Z"/></g>
<g><path style="opacity:1" fill="#29319c" d="M 142.5,281.5 C 143.743,284.633 144.243,287.967 144,291.5C 141.871,288.307 141.371,284.973 142.5,281.5 Z"/></g>
<g><path style="opacity:1" fill="#29319c" d="M 125.5,285.5 C 126.626,287.453 128.292,288.953 130.5,290C 124.776,290.06 119.11,289.394 113.5,288C 117.253,285.345 121.253,284.512 125.5,285.5 Z"/></g>
<g><path style="opacity:1" fill="#555fd2" d="M 187.5,285.5 C 187.735,284.903 188.235,284.57 189,284.5C 193,285.167 197,285.833 201,286.5C 202.662,287.997 204.162,289.663 205.5,291.5C 198.79,296.868 192.123,296.701 185.5,291C 192.665,290.955 193.332,289.122 187.5,285.5 Z"/></g>
<g><path style="opacity:1" fill="#29319c" d="M 159.5,288.5 C 161.308,288.491 162.975,288.991 164.5,290C 161.479,290.673 158.479,291.007 155.5,291C 156.858,290.066 158.192,289.232 159.5,288.5 Z"/></g>
<g><path style="opacity:1" fill="#363636" d="M 113.5,314.5 C 116.223,316.223 118.223,318.556 119.5,321.5C 118.238,325.454 117.072,329.454 116,333.5C 115.45,342.592 114.283,351.592 112.5,360.5C 113.518,364.529 113.185,368.529 111.5,372.5C 112.369,375.941 113.536,379.274 115,382.5C 115.814,384.902 115.647,387.235 114.5,389.5C 111.022,391.13 107.356,392.13 103.5,392.5C 99.0676,391.118 94.7343,389.452 90.5,387.5C 88.7486,385.028 87.9153,382.361 88,379.5C 89.4229,377.655 90.5896,375.655 91.5,373.5C 93.3163,372.265 94.983,372.265 96.5,373.5C 96.2308,375.429 96.7308,377.095 98,378.5C 98.7891,376.288 98.6225,374.288 97.5,372.5C 95.9089,369.278 96.2422,366.278 98.5,363.5C 100.441,361.989 100.941,359.989 100,357.5C 99.31,356.262 98.81,356.262 98.5,357.5C 95.8333,356.167 95.8333,354.833 98.5,353.5C 98.8799,351.302 98.2132,349.635 96.5,348.5C 95.9569,348.44 95.6236,348.107 95.5,347.5C 96.2427,346.818 96.9094,346.151 97.5,345.5C 97.8432,343.517 97.1765,342.183 95.5,341.5C 94.1667,340.833 94.1667,340.167 95.5,339.5C 96.4511,338.081 96.7845,336.415 96.5,334.5C 96.5,333.833 96.5,333.167 96.5,332.5C 96.8432,330.517 96.1765,329.183 94.5,328.5C 92.8624,327.295 92.5291,325.962 93.5,324.5C 95.0481,324.179 95.7148,323.179 95.5,321.5C 95.0825,320.778 94.4158,320.278 93.5,320C 93.8333,319.667 94.1667,319.333 94.5,319C 97.7236,317.641 100.724,316.141 103.5,314.5C 106.999,313.556 110.332,313.556 113.5,314.5 Z"/></g>
<g><path style="opacity:1" fill="#363636" d="M 206.5,314.5 C 206.833,314.5 207.167,314.5 207.5,314.5C 207.953,315.458 208.619,316.292 209.5,317C 213.091,317.789 216.591,317.622 220,316.5C 220.497,319.146 220.664,321.813 220.5,324.5C 219.5,324.5 218.5,324.5 217.5,324.5C 217.12,326.698 217.787,328.365 219.5,329.5C 220.434,330.568 220.768,331.901 220.5,333.5C 219.5,333.5 218.5,333.5 217.5,333.5C 217.12,335.698 217.787,337.365 219.5,338.5C 220.147,339.274 220.48,340.274 220.5,341.5C 220.66,343.355 219.993,344.688 218.5,345.5C 216.748,345.418 215.748,346.251 215.5,348C 215.748,349.749 216.748,350.582 218.5,350.5C 219.833,353.167 219.833,355.833 218.5,358.5C 214.732,357.374 213.732,358.708 215.5,362.5C 215.918,363.222 216.584,363.722 217.5,364C 216.771,366.058 215.771,367.891 214.5,369.5C 214.217,368.711 213.717,368.044 213,367.5C 211.731,368.905 211.231,370.571 211.5,372.5C 212.5,372.5 213.5,372.5 214.5,372.5C 214.795,374.735 214.461,376.735 213.5,378.5C 210.833,380.5 210.833,382.5 213.5,384.5C 214.434,385.568 214.768,386.901 214.5,388.5C 213.5,388.5 212.5,388.5 211.5,388.5C 211.12,390.698 211.787,392.365 213.5,393.5C 214.404,394.209 214.737,395.209 214.5,396.5C 217.867,396.543 221.201,396.21 224.5,395.5C 232.942,397.61 233.609,401.443 226.5,407C 222.703,409.124 218.703,410.791 214.5,412C 208.5,412.667 202.5,412.667 196.5,412C 194.598,411.801 193.098,410.967 192,409.5C 193.85,401.724 195.017,393.724 195.5,385.5C 195.519,382.761 194.852,380.261 193.5,378C 195.039,374.807 196.039,371.474 196.5,368C 196.74,365.109 195.907,362.609 194,360.5C 193.443,352.424 192.61,344.424 191.5,336.5C 191.667,333.167 191.833,329.833 192,326.5C 194.39,322.829 195.89,318.829 196.5,314.5C 199.833,314.5 203.167,314.5 206.5,314.5 Z"/></g>
<g><path style="opacity:1" fill="#fec90d" d="M 95.5,321.5 C 95.7148,323.179 95.0481,324.179 93.5,324.5C 93.2852,322.821 93.9519,321.821 95.5,321.5 Z"/></g>
<g><path style="opacity:1" fill="#fec90d" d="M 220.5,324.5 C 220.634,326.292 220.301,327.958 219.5,329.5C 217.787,328.365 217.12,326.698 217.5,324.5C 218.5,324.5 219.5,324.5 220.5,324.5 Z"/></g>
<g><path style="opacity:1" fill="#fec90d" d="M 94.5,328.5 C 96.1765,329.183 96.8432,330.517 96.5,332.5C 94.8235,331.817 94.1568,330.483 94.5,328.5 Z"/></g>
<g><path style="opacity:1" fill="#fec90d" d="M 160.5,328.5 C 164.195,333.763 167.029,339.43 169,345.5C 164.088,341.259 159.921,336.425 156.5,331C 157.858,330.066 159.192,329.232 160.5,328.5 Z"/></g>
<g><path style="opacity:1" fill="#fec90d" d="M 220.5,333.5 C 220.634,335.292 220.301,336.958 219.5,338.5C 217.787,337.365 217.12,335.698 217.5,333.5C 218.5,333.5 219.5,333.5 220.5,333.5 Z"/></g>
<g><path style="opacity:1" fill="#fec90d" d="M 96.5,334.5 C 96.7845,336.415 96.4511,338.081 95.5,339.5C 93.9766,337.414 94.31,335.748 96.5,334.5 Z"/></g>
<g><path style="opacity:1" fill="#fec90d" d="M 95.5,341.5 C 97.1765,342.183 97.8432,343.517 97.5,345.5C 95.8235,344.817 95.1568,343.483 95.5,341.5 Z"/></g>
<g><path style="opacity:1" fill="#fec90d" d="M 218.5,345.5 C 219.833,347.167 219.833,348.833 218.5,350.5C 216.748,350.582 215.748,349.749 215.5,348C 215.748,346.251 216.748,345.418 218.5,345.5 Z"/></g>
<g><path style="opacity:1" fill="#fec90d" d="M 96.5,348.5 C 98.2132,349.635 98.8799,351.302 98.5,353.5C 96.744,352.448 96.0773,350.781 96.5,348.5 Z"/></g>
<g><path style="opacity:1" fill="#fec90d" d="M 98.5,363.5 C 98.5,361.5 98.5,359.5 98.5,357.5C 98.81,356.262 99.31,356.262 100,357.5C 100.941,359.989 100.441,361.989 98.5,363.5 Z"/></g>
<g><path style="opacity:1" fill="#fec90d" d="M 218.5,358.5 C 218.912,360.973 217.912,362.306 215.5,362.5C 213.732,358.708 214.732,357.374 218.5,358.5 Z"/></g>
<g><path style="opacity:1" fill="#fec90d" d="M 98.5,365.5 C 100.561,366.751 100.894,368.418 99.5,370.5C 98.5481,368.955 98.2148,367.288 98.5,365.5 Z"/></g>
<g><path style="opacity:1" fill="#fec90d" d="M 214.5,369.5 C 214.5,370.5 214.5,371.5 214.5,372.5C 213.5,372.5 212.5,372.5 211.5,372.5C 211.231,370.571 211.731,368.905 213,367.5C 213.717,368.044 214.217,368.711 214.5,369.5 Z"/></g>
<g><path style="opacity:1" fill="#fec90d" d="M 97.5,372.5 C 98.6225,374.288 98.7891,376.288 98,378.5C 96.7308,377.095 96.2308,375.429 96.5,373.5C 97.1667,373.5 97.5,373.167 97.5,372.5 Z"/></g>
<g><path style="opacity:1" fill="#fec90d" d="M 213.5,378.5 C 214.833,380.5 214.833,382.5 213.5,384.5C 210.833,382.5 210.833,380.5 213.5,378.5 Z"/></g>
<g><path style="opacity:1" fill="#fec90d" d="M 93.5,380.5 C 94.5862,380.62 95.2528,381.287 95.5,382.5C 95.1667,383.167 94.8333,383.833 94.5,384.5C 93.5713,383.311 93.238,381.978 93.5,380.5 Z"/></g>
<g><path style="opacity:1" fill="#fec90d" d="M 214.5,388.5 C 214.634,390.292 214.301,391.958 213.5,393.5C 211.787,392.365 211.12,390.698 211.5,388.5C 212.5,388.5 213.5,388.5 214.5,388.5 Z"/></g>
<g><path style="opacity:1" fill="#fec90d" d="M 211.5,397.5 C 212.5,397.5 213.5,397.5 214.5,397.5C 214.785,399.288 214.452,400.955 213.5,402.5C 211.783,401.332 211.116,399.665 211.5,397.5 Z"/></g>
<g><path style="opacity:1" fill="#fec90d" d="M 215.5,404.5 C 218.861,405.203 219.194,406.537 216.5,408.5C 214.358,407.563 214.024,406.23 215.5,404.5 Z"/></g>
</svg>
