<?xml version="1.0" encoding="UTF-8"?>
<!DOCTYPE svg PUBLIC "-//W3C//DTD SVG 1.1//EN" "http://www.w3.org/Graphics/SVG/1.1/DTD/svg11.dtd">
<svg xmlns="http://www.w3.org/2000/svg" version="1.1" width="493px" height="452px" style="shape-rendering:geometricPrecision; text-rendering:geometricPrecision; image-rendering:optimizeQuality; fill-rule:evenodd; clip-rule:evenodd" xmlns:xlink="http://www.w3.org/1999/xlink">
<g><path style="opacity:1" fill="#fefffe" d="M 128.5,71.5 C 133.179,71.3342 137.845,71.5008 142.5,72C 144.93,74.3046 145.93,77.1379 145.5,80.5C 149.054,80.3611 151.888,81.6944 154,84.5C 159.126,83.4081 164.293,83.2414 169.5,84C 175.675,94.0126 181.341,104.346 186.5,115C 189.833,115.333 193.167,115.667 196.5,116C 197.167,117 197.833,118 198.5,119C 202.5,119.333 206.5,119.667 210.5,120C 211.701,120.903 212.535,122.069 213,123.5C 213.832,131.483 214.332,139.483 214.5,147.5C 221.922,145.433 226.256,148.099 227.5,155.5C 247.169,156.109 266.835,155.442 286.5,153.5C 303.18,154.167 319.847,153.5 336.5,151.5C 336.709,150.914 337.043,150.414 337.5,150C 340,149.833 342.5,149.667 345,149.5C 352.363,149.761 359.863,149.927 367.5,150C 370.588,150.579 373.255,151.913 375.5,154C 398.21,154.177 420.876,154.677 443.5,155.5C 444.655,158.446 444.821,161.446 444,164.5C 440.32,165.964 436.82,167.798 433.5,170C 409.326,171.234 385.326,173.234 361.5,176C 353.5,176.667 345.5,176.667 337.5,176C 337,175.5 336.5,175 336,174.5C 325.555,175.301 315.055,176.134 304.5,177C 302.892,179.609 300.559,180.942 297.5,181C 280.376,181.373 263.376,182.54 246.5,184.5C 248.579,189.003 250.412,193.67 252,198.5C 252.667,203.833 252.667,209.167 252,214.5C 251.969,218.768 250.969,222.768 249,226.5C 247.053,227.11 245.219,227.943 243.5,229C 245.484,231.134 246.818,233.634 247.5,236.5C 255.725,236.521 261.559,240.188 265,247.5C 267.525,271.328 272.191,294.662 279,317.5C 279.346,319.848 280.513,321.681 282.5,323C 287.745,327.253 293.245,331.086 299,334.5C 299.667,339.5 299.667,344.5 299,349.5C 294.195,352.846 288.862,354.179 283,353.5C 276.256,353.618 269.756,352.451 263.5,350C 257.833,349.667 252.167,349.333 246.5,349C 245.195,342.468 245.529,335.968 247.5,329.5C 245.577,328.692 243.577,328.192 241.5,328C 240.874,327.25 240.374,326.416 240,325.5C 238.574,317.853 237.241,310.186 236,302.5C 235.479,299.126 234.146,296.126 232,293.5C 231.502,290.183 231.335,286.85 231.5,283.5C 226.173,284.285 220.839,285.118 215.5,286C 212.333,289.167 209.167,292.333 206,295.5C 205.333,296.5 205.333,297.5 206,298.5C 213.879,307.441 215.545,317.441 211,328.5C 209.59,329.787 208.09,330.954 206.5,332C 201.136,332.171 195.802,332.671 190.5,333.5C 179.72,338.39 169.053,343.556 158.5,349C 147.684,351.761 138.517,349.261 131,341.5C 130.079,322.515 133.912,304.515 142.5,287.5C 138.21,286.376 135.377,283.71 134,279.5C 133.333,272.167 133.333,264.833 134,257.5C 134.901,254.929 136.234,252.596 138,250.5C 138.333,246.833 138.667,243.167 139,239.5C 141.833,235.167 144.667,230.833 147.5,226.5C 147.038,224.709 145.871,223.709 144,223.5C 136.859,224.577 129.693,224.744 122.5,224C 119.619,222.749 117.786,220.583 117,217.5C 116.358,209.797 116.691,202.131 118,194.5C 123.38,188.194 126.046,180.86 126,172.5C 127.696,170.44 128.863,168.107 129.5,165.5C 125.423,155.866 123.923,145.866 125,135.5C 126.319,133.513 128.152,132.346 130.5,132C 127.299,128.464 123.799,125.297 120,122.5C 119.333,117.833 119.333,113.167 120,108.5C 122.043,106.288 124.209,104.288 126.5,102.5C 125.77,99.8908 125.27,97.2241 125,94.5C 123.333,93.5 121.667,92.5 120,91.5C 119.333,87.1667 119.333,82.8333 120,78.5C 122.996,76.2674 125.829,73.9341 128.5,71.5 Z"/></g>
<g><path style="opacity:1" fill="#010000" d="M 130.5,73.5 C 138.963,71.0363 143.297,74.0363 143.5,82.5C 147.555,82.3591 150.555,84.0257 152.5,87.5C 157.362,85.6804 162.362,85.1804 167.5,86C 173.969,96.4351 179.803,107.268 185,118.5C 188.073,117.383 191.24,117.216 194.5,118C 195.46,119.419 196.293,120.919 197,122.5C 200.744,121.374 204.577,121.207 208.5,122C 209.701,122.903 210.535,124.069 211,125.5C 211.832,133.483 212.332,141.483 212.5,149.5C 220.064,147.37 224.064,150.037 224.5,157.5C 234.981,156.58 245.481,156.58 256,157.5C 264.23,157.56 272.396,156.893 280.5,155.5C 299.713,156.563 319.046,155.896 338.5,153.5C 338.709,152.914 339.043,152.414 339.5,152C 341.333,151.833 343.167,151.667 345,151.5C 351.808,152.075 358.641,152.242 365.5,152C 368.588,152.579 371.255,153.913 373.5,156C 396.21,156.177 418.876,156.677 441.5,157.5C 442.631,159.074 442.798,160.741 442,162.5C 438.32,163.964 434.82,165.798 431.5,168C 402.014,169.616 372.848,171.783 344,174.5C 341.094,174.555 338.427,173.888 336,172.5C 324.833,173.238 313.666,174.072 302.5,175C 300.892,177.609 298.559,178.942 295.5,179C 278.048,179.402 260.715,180.569 243.5,182.5C 244.927,188.763 247.094,194.763 250,200.5C 250.964,208.787 249.964,216.787 247,224.5C 240.249,226.915 233.416,227.082 226.5,225C 222.884,222.258 220.384,218.758 219,214.5C 217.596,222.268 220.429,227.935 227.5,231.5C 236.534,225.74 242.534,228.074 245.5,238.5C 249.527,239.605 253.527,240.771 257.5,242C 259.359,243.558 260.859,245.391 262,247.5C 264.436,261.113 266.769,274.78 269,288.5C 271.816,299.936 274.816,311.27 278,322.5C 284.074,327.581 290.407,332.248 297,336.5C 299.748,344.378 297.248,349.211 289.5,351C 281.228,352.082 273.228,351.082 265.5,348C 259.833,347.667 254.167,347.333 248.5,347C 247.884,345.6 247.551,344.1 247.5,342.5C 248.386,337.186 249.053,331.853 249.5,326.5C 247.473,326.662 245.473,326.495 243.5,326C 242.874,325.25 242.374,324.416 242,323.5C 240.574,315.853 239.241,308.186 238,300.5C 237.479,297.126 236.146,294.126 234,291.5C 233.825,287.789 233.325,284.122 232.5,280.5C 226.241,281.99 219.908,283.157 213.5,284C 210,287.5 206.5,291 203,294.5C 202.986,296.471 203.319,298.471 204,300.5C 211.686,308.063 213.352,316.729 209,326.5C 207.59,327.787 206.09,328.954 204.5,330C 199.245,331.047 194.245,330.547 189.5,328.5C 188.571,329.689 188.238,331.022 188.5,332.5C 185.432,333.022 182.432,333.855 179.5,335C 172.274,339.78 164.608,343.78 156.5,347C 151.833,347.667 147.167,347.667 142.5,347C 139.333,344.5 136.167,342 133,339.5C 132.441,331.742 133.107,324.076 135,316.5C 138.245,305.764 142.078,295.264 146.5,285C 141.128,285.068 137.628,282.568 136,277.5C 135.333,271.5 135.333,265.5 136,259.5C 136.901,256.929 138.234,254.596 140,252.5C 140.333,248.833 140.667,245.167 141,241.5C 144.305,236.384 147.472,231.217 150.5,226C 149.206,223.913 148.039,221.746 147,219.5C 123.241,229.072 114.241,221.406 120,196.5C 125.38,190.194 128.046,182.86 128,174.5C 130.03,171.774 131.53,168.774 132.5,165.5C 128.432,156.57 126.599,147.237 127,137.5C 129.295,135.062 132.128,133.562 135.5,133C 131.301,128.466 126.801,124.299 122,120.5C 121.333,117.167 121.333,113.833 122,110.5C 124.739,107.882 127.573,105.382 130.5,103C 128.059,99.9886 126.893,96.4886 127,92.5C 125.333,91.5 123.667,90.5 122,89.5C 121.333,86.5 121.333,83.5 122,80.5C 124.996,78.2674 127.829,75.9341 130.5,73.5 Z"/></g>
<g><path style="opacity:1" fill="#fef200" d="M 134.5,78.5 C 135.496,78.4142 136.329,78.7476 137,79.5C 138.252,83.9255 136.586,86.5922 132,87.5C 130.107,86.8037 128.274,85.9704 126.5,85C 129.355,82.9692 132.022,80.8025 134.5,78.5 Z"/></g>
<g><path style="opacity:1" fill="#22a949" d="M 146.5,97.5 C 144.537,98.8202 142.537,100.154 140.5,101.5C 133.834,100.07 132.168,96.5704 135.5,91C 133.043,89.8456 133.043,88.5123 135.5,87C 138.596,87.5089 141.929,88.1755 145.5,89C 147.838,91.5417 148.172,94.3751 146.5,97.5 Z"/></g>
<g><path style="opacity:1" fill="#e3d70e" d="M 153.5,99.5 C 153.5,98.8333 153.167,98.5 152.5,98.5C 152.389,97.8826 152.056,97.3826 151.5,97C 154.869,94.3159 158.536,92.1492 162.5,90.5C 164.124,91.8689 164.624,93.5355 164,95.5C 161.629,98.206 158.963,100.539 156,102.5C 155.623,101.058 154.79,100.058 153.5,99.5 Z"/></g>
<g><path style="opacity:1" fill="#fbfbfb" d="M 146.5,97.5 C 148.435,98.1495 150.435,98.4828 152.5,98.5C 153.167,98.5 153.5,98.8333 153.5,99.5C 154.734,102.535 154.734,105.535 153.5,108.5C 152.624,108.631 151.957,108.298 151.5,107.5C 152.55,106.571 152.55,105.905 151.5,105.5C 150.661,100.332 148.161,99.3323 144,102.5C 142.432,106.917 143.932,108.917 148.5,108.5C 149.491,110.123 148.824,111.123 146.5,111.5C 144.685,110.37 142.685,109.704 140.5,109.5C 140.5,106.833 140.5,104.167 140.5,101.5C 142.537,100.154 144.537,98.8202 146.5,97.5 Z"/></g>
<g><path style="opacity:1" fill="#fef200" d="M 162.5,99.5 C 168.848,103.228 173.015,108.562 175,115.5C 169.866,111.367 165.032,106.867 160.5,102C 161.381,101.292 162.047,100.458 162.5,99.5 Z"/></g>
<g><path style="opacity:1" fill="#ec1c23" d="M 151.5,105.5 C 150.833,105.5 150.167,105.5 149.5,105.5C 148.797,102.139 147.463,101.806 145.5,104.5C 145.855,105.522 146.522,106.189 147.5,106.5C 147.833,107.167 148.167,107.833 148.5,108.5C 143.932,108.917 142.432,106.917 144,102.5C 148.161,99.3323 150.661,100.332 151.5,105.5 Z"/></g>
<g><path style="opacity:1" fill="#3f47cc" d="M 149.5,105.5 C 148.833,105.833 148.167,106.167 147.5,106.5C 146.522,106.189 145.855,105.522 145.5,104.5C 147.463,101.806 148.797,102.139 149.5,105.5 Z"/></g>
<g><path style="opacity:1" fill="#e4d80e" d="M 140.5,109.5 C 141.362,110.39 141.862,111.39 142,112.5C 138.908,115.422 135.408,117.755 131.5,119.5C 129.611,118.396 127.945,117.063 126.5,115.5C 130.536,112.057 134.703,108.724 139,105.5C 139.21,107.058 139.71,108.391 140.5,109.5 Z"/></g>
<g><path style="opacity:1" fill="#b5b5b5" d="M 149.5,105.5 C 150.167,105.5 150.833,105.5 151.5,105.5C 152.55,105.905 152.55,106.571 151.5,107.5C 151.957,108.298 152.624,108.631 153.5,108.5C 154.117,108.611 154.617,108.944 155,109.5C 155.49,108.207 155.657,106.873 155.5,105.5C 158.624,105.943 160.957,107.61 162.5,110.5C 160.655,112.071 158.655,112.905 156.5,113C 157.704,116.933 159.37,117.266 161.5,114C 163.025,112.991 164.692,112.491 166.5,112.5C 167.993,117.216 167.826,121.883 166,126.5C 164.259,127.758 162.426,128.758 160.5,129.5C 155.443,130.153 151.443,128.487 148.5,124.5C 149.34,123.265 150.34,122.265 151.5,121.5C 149.983,121.489 148.816,120.823 148,119.5C 146.833,117.667 145.667,115.833 144.5,114C 145.056,113.617 145.389,113.117 145.5,112.5C 146.167,112.5 146.5,112.167 146.5,111.5C 148.824,111.123 149.491,110.123 148.5,108.5C 148.167,107.833 147.833,107.167 147.5,106.5C 148.167,106.167 148.833,105.833 149.5,105.5 Z"/></g>
<g><path style="opacity:1" fill="#1d1e1d" d="M 145.5,112.5 C 145.389,113.117 145.056,113.617 144.5,114C 145.667,115.833 146.833,117.667 148,119.5C 148.816,120.823 149.983,121.489 151.5,121.5C 150.34,122.265 149.34,123.265 148.5,124.5C 151.443,128.487 155.443,130.153 160.5,129.5C 157.668,132.178 154.501,134.512 151,136.5C 147.44,129.877 144.273,123.044 141.5,116C 142.072,113.926 143.405,112.76 145.5,112.5 Z"/></g>
<g><path style="opacity:1" fill="#1d1e1d" d="M 151.5,121.5 C 151.277,119.222 151.11,116.889 151,114.5C 155.248,116.876 155.414,119.209 151.5,121.5 Z"/></g>
<g><path style="opacity:1" fill="#fef200" d="M 138.5,117.5 C 140.136,118.749 141.303,120.416 142,122.5C 144.296,127.061 145.963,131.728 147,136.5C 142.413,130.683 139.58,124.35 138.5,117.5 Z"/></g>
<g><path style="opacity:1" fill="#fef200" d="M 177.5,118.5 C 178.848,119.527 179.348,120.86 179,122.5C 171.489,130.673 162.656,137.006 152.5,141.5C 150.646,140.824 150.313,139.824 151.5,138.5C 161.318,133.266 169.984,126.599 177.5,118.5 Z"/></g>
<g><path style="opacity:1" fill="#fefffe" d="M 189.5,121.5 C 190.222,121.918 190.722,122.584 191,123.5C 192.234,132.809 192.567,142.142 192,151.5C 190.177,143.885 188.677,136.218 187.5,128.5C 187.643,125.887 188.31,123.553 189.5,121.5 Z"/></g>
<g><path style="opacity:1" fill="#c3b279" d="M 201.5,126.5 C 203.911,126.137 205.411,127.137 206,129.5C 206.944,137.156 207.277,144.822 207,152.5C 202.873,152.388 198.706,152.055 194.5,151.5C 194.646,143.804 194.313,136.138 193.5,128.5C 196.373,128.198 199.039,127.531 201.5,126.5 Z"/></g>
<g><path style="opacity:1" fill="#c8b87d" d="M 184.5,127.5 C 185.573,128.251 185.74,129.251 185,130.5C 183.272,129.648 183.105,128.648 184.5,127.5 Z"/></g>
<g><path style="opacity:1" fill="#c7641d" d="M 183.5,132.5 C 178.828,142.013 171.162,147.346 160.5,148.5C 159.027,147.928 157.693,147.095 156.5,146C 168.134,145.6 176.967,140.434 183,130.5C 183.464,131.094 183.631,131.761 183.5,132.5 Z"/></g>
<g><path style="opacity:1" fill="#e19778" d="M 183.5,132.5 C 186.06,136.819 188.06,141.486 189.5,146.5C 189.043,147.298 188.376,147.631 187.5,147.5C 185.158,146.992 182.991,145.992 181,144.5C 178.789,147.723 176.122,150.723 173,153.5C 172.51,154.793 172.343,156.127 172.5,157.5C 175.967,157.554 178.634,156.054 180.5,153C 183.445,152.861 185.779,151.694 187.5,149.5C 189.176,150.183 189.843,151.517 189.5,153.5C 189.024,156.071 187.69,158.071 185.5,159.5C 182.373,160.125 179.373,161.125 176.5,162.5C 171.57,159.535 167.237,155.869 163.5,151.5C 162.306,150.728 161.306,149.728 160.5,148.5C 171.162,147.346 178.828,142.013 183.5,132.5 Z"/></g>
<g><path style="opacity:1" fill="#fefffe" d="M 144.5,136.5 C 148.799,139.651 150.633,143.984 150,149.5C 150.975,152.76 152.142,155.927 153.5,159C 152.584,159.374 151.75,159.874 151,160.5C 148.323,152.635 146.156,144.635 144.5,136.5 Z"/></g>
<g><path style="opacity:1" fill="#c1b076" d="M 139.5,137.5 C 140.5,137.5 141.5,137.5 142.5,137.5C 144.088,145.266 146.088,152.933 148.5,160.5C 146.206,162.388 143.539,163.722 140.5,164.5C 138.515,162.543 137.015,160.21 136,157.5C 134.344,152.54 132.844,147.54 131.5,142.5C 131.977,141.522 132.643,140.689 133.5,140C 135.723,139.434 137.723,138.6 139.5,137.5 Z"/></g>
<g><path style="opacity:1" fill="#c6b57c" d="M 161.5,152.5 C 162.167,152.5 162.5,152.833 162.5,153.5C 161.069,156.435 158.736,157.935 155.5,158C 148.467,142.997 150.467,141.164 161.5,152.5 Z"/></g>
<g><path style="opacity:1" fill="#2b1b13" d="M 187.5,147.5 C 187.5,148.167 187.5,148.833 187.5,149.5C 185.779,151.694 183.445,152.861 180.5,153C 178.634,156.054 175.967,157.554 172.5,157.5C 172.343,156.127 172.51,154.793 173,153.5C 176.122,150.723 178.789,147.723 181,144.5C 182.991,145.992 185.158,146.992 187.5,147.5 Z"/></g>
<g><path style="opacity:1" fill="#fec90d" d="M 161.5,152.5 C 161.842,151.662 162.508,151.328 163.5,151.5C 167.237,155.869 171.57,159.535 176.5,162.5C 175.104,164.373 173.437,164.706 171.5,163.5C 171.167,162.5 170.5,161.833 169.5,161.5C 168.5,159.833 167.167,158.5 165.5,157.5C 164.488,156.128 163.488,154.795 162.5,153.5C 162.5,152.833 162.167,152.5 161.5,152.5 Z"/></g>
<g><path style="opacity:1" fill="#fef200" d="M 190.5,153.5 C 191.833,153.5 192.5,154.167 192.5,155.5C 191.842,156.398 191.176,157.398 190.5,158.5C 190.167,158.333 189.833,158.167 189.5,158C 190.38,156.644 190.714,155.144 190.5,153.5 Z"/></g>
<g><path style="opacity:1" fill="#22b14b" d="M 194.5,159.5 C 193.194,158.533 192.527,157.199 192.5,155.5C 193.467,154.194 194.801,153.527 196.5,153.5C 196.741,155.898 196.074,157.898 194.5,159.5 Z"/></g>
<g><path style="opacity:1" fill="#fefffe" d="M 199.5,154.5 C 203.395,154.857 204.395,156.857 202.5,160.5C 200.802,161.681 199.135,161.681 197.5,160.5C 198.172,158.47 198.838,156.47 199.5,154.5 Z"/></g>
<g><path style="opacity:1" fill="#22aa49" d="M 215.5,157.5 C 216.833,157.833 216.833,158.167 215.5,158.5C 203.193,158.674 202.693,157.341 214,154.5C 214.232,155.737 214.732,156.737 215.5,157.5 Z"/></g>
<g><path style="opacity:1" fill="#fef200" d="M 215.5,158.5 C 216.833,158.167 216.833,157.833 215.5,157.5C 215.281,156.325 215.614,155.325 216.5,154.5C 218.543,155.579 219.876,157.246 220.5,159.5C 215.869,160.662 211.202,160.828 206.5,160C 209.695,159.819 212.695,159.319 215.5,158.5 Z"/></g>
<g><path style="opacity:1" fill="#29100a" d="M 189.5,153.5 C 189.833,153.5 190.167,153.5 190.5,153.5C 190.714,155.144 190.38,156.644 189.5,158C 189.833,158.167 190.167,158.333 190.5,158.5C 191.176,157.398 191.842,156.398 192.5,155.5C 192.527,157.199 193.194,158.533 194.5,159.5C 192.983,159.511 191.816,160.177 191,161.5C 189.556,159.845 187.722,159.178 185.5,159.5C 187.69,158.071 189.024,156.071 189.5,153.5 Z"/></g>
<g><path style="opacity:1" fill="#fec90d" d="M 343.5,156.5 C 344.497,156.47 345.164,156.97 345.5,158C 344.167,161 344.167,164 345.5,167C 345.37,168.059 344.87,168.892 344,169.5C 341.592,165.133 341.425,160.8 343.5,156.5 Z"/></g>
<g><path style="opacity:1" fill="#fec90d" d="M 359.5,156.5 C 361.179,156.892 362.846,157.392 364.5,158C 362.579,158.36 360.912,159.194 359.5,160.5C 358.965,162.661 358.132,164.661 357,166.5C 356.13,165.892 355.63,165.059 355.5,164C 355.737,160.747 357.071,158.247 359.5,156.5 Z"/></g>
<g><path style="opacity:1" fill="#239341" d="M 165.5,157.5 C 167.167,158.5 168.5,159.833 169.5,161.5C 167.901,161.232 166.568,161.566 165.5,162.5C 160.675,161.644 160.675,159.978 165.5,157.5 Z"/></g>
<g><path style="opacity:1" fill="#7e7f7e" d="M 352.5,157.5 C 353.586,157.62 354.253,158.287 354.5,159.5C 353.48,162.839 353.313,166.173 354,169.5C 351.168,165.919 350.668,161.919 352.5,157.5 Z"/></g>
<g><path style="opacity:1" fill="#fefffe" d="M 159.5,158.5 C 159.865,160.588 159.865,162.921 159.5,165.5C 158.5,165.5 157.5,165.5 156.5,165.5C 156.545,162.679 157.545,160.346 159.5,158.5 Z"/></g>
<g><path style="opacity:1" fill="#7e7f7e" d="M 324.5,158.5 C 329.844,158.334 335.177,158.501 340.5,159C 340.167,159.333 339.833,159.667 339.5,160C 324.182,161.416 308.848,162.582 293.5,163.5C 293.5,162.5 293.5,161.5 293.5,160.5C 304.034,160.607 314.367,159.94 324.5,158.5 Z"/></g>
<g><path style="opacity:1" fill="#b87a56" d="M 347.5,158.5 C 348.765,159.514 349.431,161.014 349.5,163C 348.789,168.699 347.789,168.532 346.5,162.5C 346.846,161.151 347.179,159.817 347.5,158.5 Z"/></g>
<g><path style="opacity:1" fill="#686868" d="M 185.5,159.5 C 187.722,159.178 189.556,159.845 191,161.5C 191.816,160.177 192.983,159.511 194.5,159.5C 194.087,162.32 195.087,164.32 197.5,165.5C 198.512,166.872 199.512,168.205 200.5,169.5C 203.233,171.397 202.9,172.73 199.5,173.5C 195.78,172.88 192.114,172.047 188.5,171C 187.268,168.234 186.268,165.401 185.5,162.5C 185.5,161.5 185.5,160.5 185.5,159.5 Z"/></g>
<g><path style="opacity:1" fill="#7e7f7e" d="M 365.5,159.5 C 367.103,159.312 368.437,159.812 369.5,161C 392.185,161.564 414.851,161.564 437.5,161C 435.122,161.511 432.788,162.178 430.5,163C 409.309,164.22 388.142,165.72 367,167.5C 358.989,165.989 358.489,163.323 365.5,159.5 Z"/></g>
<g><path style="opacity:1" fill="#22ab49" d="M 141.5,172.5 C 140.508,172.672 139.842,172.338 139.5,171.5C 139.5,169.833 139.5,168.167 139.5,166.5C 145.08,165.584 150.247,163.584 155,160.5C 155.18,162.488 155.014,164.488 154.5,166.5C 150.708,166.726 147.041,167.56 143.5,169C 142.915,170.302 142.249,171.469 141.5,172.5 Z"/></g>
<g><path style="opacity:1" fill="#7e7f7e" d="M 273.5,160.5 C 275.549,160.706 275.883,161.539 274.5,163C 262.202,164.284 249.869,164.784 237.5,164.5C 237.5,163.5 237.5,162.5 237.5,161.5C 249.678,161.828 261.678,161.495 273.5,160.5 Z"/></g>
<g><path style="opacity:1" fill="#fec90d" d="M 279.5,160.5 C 279.604,164.35 280.104,168.35 281,172.5C 279.23,169.958 277.73,167.291 276.5,164.5C 276.787,162.557 277.787,161.223 279.5,160.5 Z"/></g>
<g><path style="opacity:1" fill="#7e7f7e" d="M 282.5,160.5 C 284.199,160.34 285.866,160.506 287.5,161C 286.383,162.892 284.716,163.725 282.5,163.5C 282.5,162.5 282.5,161.5 282.5,160.5 Z"/></g>
<g><path style="opacity:1" fill="#fec90d" d="M 290.5,160.5 C 290.938,162.638 291.105,164.972 291,167.5C 292.58,168.426 293.08,169.426 292.5,170.5C 288.105,167.86 287.439,164.526 290.5,160.5 Z"/></g>
<g><path style="opacity:1" fill="#831e18" d="M 165.5,162.5 C 166.568,161.566 167.901,161.232 169.5,161.5C 170.5,161.833 171.167,162.5 171.5,163.5C 171.158,164.338 170.492,164.672 169.5,164.5C 168.713,162.896 167.38,162.229 165.5,162.5 Z"/></g>
<g><path style="opacity:1" fill="#7e7f7e" d="M 233.5,162.5 C 221.776,164.749 209.776,165.749 197.5,165.5C 198.589,163.883 200.256,163.05 202.5,163C 211.853,162.753 221.186,162.253 230.5,161.5C 231.726,161.52 232.726,161.853 233.5,162.5 Z"/></g>
<g><path style="opacity:1" fill="#fec90d" d="M 233.5,162.5 C 235.598,161.086 236.598,161.752 236.5,164.5C 234.821,164.715 233.821,164.048 233.5,162.5 Z"/></g>
<g><path style="opacity:1" fill="#fefffe" d="M 165.5,162.5 C 167.38,162.229 168.713,162.896 169.5,164.5C 167.08,164.292 164.747,164.626 162.5,165.5C 162.167,165.167 161.833,164.833 161.5,164.5C 162.949,163.828 164.282,163.161 165.5,162.5 Z"/></g>
<g><path style="opacity:1" fill="#f6a583" d="M 183.5,163.5 C 175.581,167.07 175.581,170.57 183.5,174C 186.817,174.498 190.15,174.665 193.5,174.5C 194.429,175.315 195.429,176.148 196.5,177C 192.642,178.273 188.642,179.273 184.5,180C 185.5,180.333 186.5,180.667 187.5,181C 185.608,181.973 183.608,182.64 181.5,183C 182.833,183.333 184.167,183.667 185.5,184C 184.584,184.278 183.918,184.778 183.5,185.5C 182.209,185.263 181.209,185.596 180.5,186.5C 178.396,186.799 176.396,186.466 174.5,185.5C 167.667,175.106 170.167,167.44 182,162.5C 182.765,162.57 183.265,162.903 183.5,163.5 Z"/></g>
<g><path style="opacity:1" fill="#976448" d="M 185.5,162.5 C 186.268,165.401 187.268,168.234 188.5,171C 192.114,172.047 195.78,172.88 199.5,173.5C 202.9,172.73 203.233,171.397 200.5,169.5C 202.571,168.191 205.071,167.525 208,167.5C 216.512,166.443 225.012,166.443 233.5,167.5C 232.757,168.182 232.091,168.849 231.5,169.5C 231.662,171.527 231.495,173.527 231,175.5C 229.3,166.435 227.634,166.769 226,176.5C 225.506,174.866 225.34,173.199 225.5,171.5C 224.5,171.5 223.5,171.5 222.5,171.5C 222.662,173.527 222.495,175.527 222,177.5C 221.998,174.949 221.164,172.949 219.5,171.5C 211.116,173.556 202.45,174.556 193.5,174.5C 190.15,174.665 186.817,174.498 183.5,174C 175.581,170.57 175.581,167.07 183.5,163.5C 184.167,163.167 184.833,162.833 185.5,162.5 Z"/></g>
<g><path style="opacity:1" fill="#b87a56" d="M 332.5,162.5 C 334.857,162.337 337.19,162.503 339.5,163C 340.38,164.356 340.714,165.856 340.5,167.5C 327.828,168.008 315.161,168.675 302.5,169.5C 298.509,170.067 295.175,168.9 292.5,166C 305.984,164.828 319.318,163.661 332.5,162.5 Z"/></g>
<g><path style="opacity:1" fill="#fec90d" d="M 236.5,168.5 C 235.833,168.833 235.167,169.167 234.5,169.5C 234.238,168.022 234.571,166.689 235.5,165.5C 236.386,166.325 236.719,167.325 236.5,168.5 Z"/></g>
<g><path style="opacity:1" fill="#b87a56" d="M 244.5,170.5 C 245.833,169.833 245.833,169.167 244.5,168.5C 242.369,167.686 240.036,167.186 237.5,167C 248.515,166.741 259.515,166.241 270.5,165.5C 274.076,165.927 276.409,167.927 277.5,171.5C 264.271,172.175 251.104,172.842 238,173.5C 237.833,173.167 237.667,172.833 237.5,172.5C 239.969,171.832 242.302,171.165 244.5,170.5 Z"/></g>
<g><path style="opacity:1" fill="#b87a56" d="M 282.5,165.5 C 283.873,165.343 285.207,165.51 286.5,166C 287.257,167.512 288.257,168.846 289.5,170C 284.852,172.551 282.518,171.051 282.5,165.5 Z"/></g>
<g><path style="opacity:1" fill="#b87a56" d="M 163.5,166.5 C 166.187,166.336 168.854,166.503 171.5,167C 170.206,169.087 169.039,171.254 168,173.5C 167.311,172.643 166.478,171.977 165.5,171.5C 159.444,175.398 153.277,179.064 147,182.5C 145.844,178.56 145.01,174.56 144.5,170.5C 151.116,169.903 157.449,168.569 163.5,166.5 Z"/></g>
<g><path style="opacity:1" fill="#e99d7c" d="M 231.5,169.5 C 232.5,169.5 233.5,169.5 234.5,169.5C 234.274,172.249 234.607,174.916 235.5,177.5C 234.96,178.748 234.293,179.915 233.5,181C 229.049,182.974 224.382,183.807 219.5,183.5C 219.5,182.833 219.167,182.5 218.5,182.5C 219.344,178.901 219.677,175.234 219.5,171.5C 221.164,172.949 221.998,174.949 222,177.5C 222.495,175.527 222.662,173.527 222.5,171.5C 223.5,171.5 224.5,171.5 225.5,171.5C 225.34,173.199 225.506,174.866 226,176.5C 227.634,166.769 229.3,166.435 231,175.5C 231.495,173.527 231.662,171.527 231.5,169.5 Z"/></g>
<g><path style="opacity:1" fill="#717171" d="M 236.5,168.5 C 239.167,168.5 241.833,168.5 244.5,168.5C 245.833,169.167 245.833,169.833 244.5,170.5C 241.302,171.036 238.635,170.369 236.5,168.5 Z"/></g>
<g><path style="opacity:1" fill="#fef200" d="M 139.5,171.5 C 139.842,172.338 140.508,172.672 141.5,172.5C 141.611,173.117 141.944,173.617 142.5,174C 138.333,175.167 136.833,173.667 138,169.5C 138.278,170.416 138.778,171.082 139.5,171.5 Z"/></g>
<g><path style="opacity:1" fill="#fefffe" d="M 289.5,172.5 C 291.527,172.338 293.527,172.505 295.5,173C 291.239,174.363 286.905,174.696 282.5,174C 285.036,173.814 287.369,173.314 289.5,172.5 Z"/></g>
<g><path style="opacity:1" fill="#239541" d="M 135.5,174.5 C 137.82,176.226 140.487,176.893 143.5,176.5C 143.851,178.869 144.018,181.203 144,183.5C 142.284,184.552 141.284,183.886 141,181.5C 140.667,182.5 140.333,183.5 140,184.5C 137.713,183.526 135.713,182.193 134,180.5C 133.667,180.833 133.333,181.167 133,181.5C 132.683,178.793 133.516,176.46 135.5,174.5 Z"/></g>
<g><path style="opacity:1" fill="#29319a" d="M 172.5,190.5 C 170.167,189.5 169.5,190.167 170.5,192.5C 170.167,193.167 169.833,193.833 169.5,194.5C 164.636,191.378 159.303,189.545 153.5,189C 157.049,185.957 159.049,182.124 159.5,177.5C 161.402,176.632 163.235,175.632 165,174.5C 168.932,179.12 172.099,184.287 174.5,190C 173.906,190.464 173.239,190.631 172.5,190.5 Z"/></g>
<g><path style="opacity:1" fill="#fefffe" d="M 239.5,174.5 C 249.506,174.334 259.506,174.5 269.5,175C 261.833,175.333 254.167,175.667 246.5,176C 245.584,176.374 244.75,176.874 244,177.5C 242.266,176.751 240.433,176.251 238.5,176C 239.056,175.617 239.389,175.117 239.5,174.5 Z"/></g>
<g><path style="opacity:1" fill="#fec90d" d="M 199.5,180.5 C 198.833,180.5 198.5,180.833 198.5,181.5C 195.609,182.403 192.609,182.736 189.5,182.5C 189.389,181.883 189.056,181.383 188.5,181C 193.662,181.541 197.662,179.708 200.5,175.5C 201.652,177.397 201.319,179.064 199.5,180.5 Z"/></g>
<g><path style="opacity:1" fill="#fefffe" d="M 204.5,175.5 C 209.179,175.334 213.845,175.501 218.5,176C 213.53,177.081 208.53,177.414 203.5,177C 204.056,176.617 204.389,176.117 204.5,175.5 Z"/></g>
<g><path style="opacity:1" fill="#fefffe" d="M 159.5,177.5 C 159.049,182.124 157.049,185.957 153.5,189C 159.303,189.545 164.636,191.378 169.5,194.5C 169.167,195.5 168.5,196.167 167.5,196.5C 162.725,192.36 157.058,190.36 150.5,190.5C 154.071,187.601 156.404,183.934 157.5,179.5C 157.5,178.167 158.167,177.5 159.5,177.5 Z"/></g>
<g><path style="opacity:1" fill="#29319a" d="M 219.5,189.5 C 224.875,190.235 229.708,192.235 234,195.5C 235.059,192.197 236.559,189.197 238.5,186.5C 240.274,193.377 242.607,200.044 245.5,206.5C 245.066,210.994 244.066,215.327 242.5,219.5C 235.31,222.828 229.476,221.161 225,214.5C 223.089,209.071 220.256,204.238 216.5,200C 215.552,199.517 214.552,199.351 213.5,199.5C 211.85,192.898 210.516,186.231 209.5,179.5C 212.141,178.737 214.808,178.57 217.5,179C 215.522,181.497 215.022,184.331 216,187.5C 218.941,196.323 222.274,204.99 226,213.5C 227.5,215 229,216.5 230.5,218C 231.332,218.688 231.998,218.521 232.5,217.5C 230.476,215.31 228.643,212.977 227,210.5C 224.038,203.642 221.538,196.642 219.5,189.5 Z"/></g>
<g><path style="opacity:1" fill="#29319a" d="M 157.5,179.5 C 156.404,183.934 154.071,187.601 150.5,190.5C 157.058,190.36 162.725,192.36 167.5,196.5C 166.167,197.167 164.833,197.833 163.5,198.5C 161.167,197.5 160.5,198.167 161.5,200.5C 158.62,203.039 155.287,204.706 151.5,205.5C 146.017,208.278 140.35,210.778 134.5,213C 131.518,213.498 128.518,213.665 125.5,213.5C 124.475,212.626 123.808,211.459 123.5,210C 124.204,206.872 124.704,203.706 125,200.5C 126.558,199.655 127.558,200.321 128,202.5C 128.326,198.148 129.993,194.481 133,191.5C 133.167,191.833 133.333,192.167 133.5,192.5C 132.415,195.773 132.248,199.106 133,202.5C 133.528,197.109 135.528,192.442 139,188.5C 138.482,192.425 138.482,196.425 139,200.5C 139.13,195.448 140.463,190.781 143,186.5C 143.846,190.234 145.346,193.568 147.5,196.5C 147.833,196.167 148.167,195.833 148.5,195.5C 146.92,192.277 146.086,188.944 146,185.5C 149.498,182.836 153.332,180.836 157.5,179.5 Z"/></g>
<g><path style="opacity:1" fill="#fefffe" d="M 204.5,179.5 C 205.5,179.5 206.5,179.5 207.5,179.5C 209.019,188.224 210.519,196.89 212,205.5C 209.833,203.17 208.166,200.503 207,197.5C 205.848,191.546 204.015,185.88 201.5,180.5C 202.791,180.737 203.791,180.404 204.5,179.5 Z"/></g>
<g><path style="opacity:1" fill="#29319a" d="M 237.5,184.5 C 236.542,184.953 235.708,185.619 235,186.5C 234.767,188.78 233.934,190.78 232.5,192.5C 228.396,190.243 224.062,188.576 219.5,187.5C 222.167,186.833 224.833,186.167 227.5,185.5C 228.458,185.047 229.292,184.381 230,183.5C 233.383,184.519 235.717,183.185 237,179.5C 237.494,181.134 237.66,182.801 237.5,184.5 Z"/></g>
<g><path style="opacity:1" fill="#fbfbfb" d="M 199.5,180.5 C 200.468,182.607 200.802,184.941 200.5,187.5C 199.698,188.952 199.198,190.618 199,192.5C 198.5,198.825 198.334,205.158 198.5,211.5C 197.5,211.167 196.833,210.5 196.5,209.5C 197.035,206.762 196.035,204.928 193.5,204C 194.126,203.25 194.626,202.416 195,201.5C 195.333,201.833 195.667,202.167 196,202.5C 196.667,200.167 196.667,197.833 196,195.5C 195.292,196.381 194.458,197.047 193.5,197.5C 193.433,196.041 193.766,194.708 194.5,193.5C 195.117,193.611 195.617,193.944 196,194.5C 196.977,192.26 197.477,189.927 197.5,187.5C 198.461,185.735 198.795,183.735 198.5,181.5C 198.5,180.833 198.833,180.5 199.5,180.5 Z"/></g>
<g><path style="opacity:1" fill="#810314" d="M 189.5,182.5 C 189.804,183.15 190.137,183.817 190.5,184.5C 184.198,200.434 176.864,215.767 168.5,230.5C 168.5,231.167 168.5,231.833 168.5,232.5C 168.167,232.5 167.833,232.5 167.5,232.5C 164.865,235.079 162.699,238.079 161,241.5C 160.517,240.552 160.351,239.552 160.5,238.5C 161.906,238.027 162.573,237.027 162.5,235.5C 163.11,234.609 163.443,233.609 163.5,232.5C 164.167,232.167 164.833,231.833 165.5,231.5C 173.801,215.233 181.801,198.9 189.5,182.5 Z"/></g>
<g><path style="opacity:1" fill="#1a1e5d" d="M 218.5,182.5 C 219.167,182.5 219.5,182.833 219.5,183.5C 222.167,184.167 224.833,184.833 227.5,185.5C 224.482,185.665 221.482,185.498 218.5,185C 217.226,184.023 217.226,183.189 218.5,182.5 Z"/></g>
<g><path style="opacity:1" fill="#29319a" d="M 131.5,183.5 C 133.812,184.32 136.146,185.153 138.5,186C 135.734,187.467 133.234,189.3 131,191.5C 130.398,188.779 130.565,186.113 131.5,183.5 Z"/></g>
<g><path style="opacity:1" fill="#fefffe" d="M 192.5,183.5 C 193.978,183.238 195.311,183.571 196.5,184.5C 192.388,196.73 186.222,207.73 178,217.5C 183.579,206.654 188.412,195.321 192.5,183.5 Z"/></g>
<g><path style="opacity:1" fill="#fefffe" d="M 237.5,184.5 C 237.833,185.167 238.167,185.833 238.5,186.5C 236.559,189.197 235.059,192.197 234,195.5C 229.708,192.235 224.875,190.235 219.5,189.5C 218.167,188.833 218.167,188.167 219.5,187.5C 224.062,188.576 228.396,190.243 232.5,192.5C 233.934,190.78 234.767,188.78 235,186.5C 235.708,185.619 236.542,184.953 237.5,184.5 Z"/></g>
<g><path style="opacity:1" fill="#282e8d" d="M 183.5,185.5 C 184.376,185.369 185.043,185.702 185.5,186.5C 183.667,188.833 181.833,191.167 180,193.5C 178.708,191.751 177.542,189.918 176.5,188C 178.058,187.79 179.391,187.29 180.5,186.5C 181.209,185.596 182.209,185.263 183.5,185.5 Z"/></g>
<g><path style="opacity:1" fill="#29319a" d="M 197.5,187.5 C 197.477,189.927 196.977,192.26 196,194.5C 195.617,193.944 195.117,193.611 194.5,193.5C 195.514,191.426 196.514,189.426 197.5,187.5 Z"/></g>
<g><path style="opacity:1" fill="#2a3192" d="M 200.5,187.5 C 201.497,187.47 202.164,187.97 202.5,189C 203.654,196.806 206.821,203.639 212,209.5C 212.706,214.176 213.04,218.843 213,223.5C 211.129,222.003 210.129,220.003 210,217.5C 209.751,218.624 209.251,219.624 208.5,220.5C 204.498,218.161 201.165,215.161 198.5,211.5C 198.334,205.158 198.5,198.825 199,192.5C 199.198,190.618 199.698,188.952 200.5,187.5 Z"/></g>
<g><path style="opacity:1" fill="#fefffe" d="M 172.5,190.5 C 172.167,191.5 171.5,192.167 170.5,192.5C 169.5,190.167 170.167,189.5 172.5,190.5 Z"/></g>
<g><path style="opacity:1" fill="#fefffe" d="M 175.5,191.5 C 176.601,192.848 177.601,194.348 178.5,196C 177.213,197.41 176.046,198.91 175,200.5C 173.341,199.183 172.174,197.517 171.5,195.5C 172.867,194.16 174.2,192.827 175.5,191.5 Z"/></g>
<g><path style="opacity:1" fill="#fefffe" d="M 180.5,195.5 C 181.043,195.56 181.376,195.893 181.5,196.5C 175.675,206.456 170.508,216.79 166,227.5C 162.352,231.417 158.685,235.417 155,239.5C 154.148,234.998 154.648,230.665 156.5,226.5C 160.81,224.024 164.31,220.69 167,216.5C 172.009,209.811 176.509,202.811 180.5,195.5 Z"/></g>
<g><path style="opacity:1" fill="#29319a" d="M 196.5,209.5 C 194.188,207.854 192.188,205.854 190.5,203.5C 191.519,201.396 192.519,199.396 193.5,197.5C 194.458,197.047 195.292,196.381 196,195.5C 196.667,197.833 196.667,200.167 196,202.5C 195.667,202.167 195.333,201.833 195,201.5C 194.626,202.416 194.126,203.25 193.5,204C 196.035,204.928 197.035,206.762 196.5,209.5 Z"/></g>
<g><path style="opacity:1" fill="#fefffe" d="M 163.5,198.5 C 163.167,199.5 162.5,200.167 161.5,200.5C 160.5,198.167 161.167,197.5 163.5,198.5 Z"/></g>
<g><path style="opacity:1" fill="#29319a" d="M 167.5,210.5 C 167.414,209.504 167.748,208.671 168.5,208C 166.307,205.814 164.974,206.314 164.5,209.5C 163.527,207.052 163.194,204.385 163.5,201.5C 165.123,202.491 166.123,201.824 166.5,199.5C 167.261,198.609 168.261,197.942 169.5,197.5C 174.324,202.325 173.657,206.658 167.5,210.5 Z"/></g>
<g><path style="opacity:1" fill="#fefffe" d="M 166.5,199.5 C 166.123,201.824 165.123,202.491 163.5,201.5C 163.973,200.094 164.973,199.427 166.5,199.5 Z"/></g>
<g><path style="opacity:1" fill="#fefffe" d="M 163.5,201.5 C 163.194,204.385 163.527,207.052 164.5,209.5C 164.989,210.995 165.655,212.329 166.5,213.5C 166.167,214.5 165.5,215.167 164.5,215.5C 163.179,211.243 162.179,206.91 161.5,202.5C 162.167,202.167 162.833,201.833 163.5,201.5 Z"/></g>
<g><path style="opacity:1" fill="#282f92" d="M 161.5,202.5 C 162.179,206.91 163.179,211.243 164.5,215.5C 162.548,219.287 159.714,222.287 156,224.5C 153.278,219.789 151.944,214.789 152,209.5C 155.463,207.524 158.63,205.19 161.5,202.5 Z"/></g>
<g><path style="opacity:1" fill="#1b1f65" d="M 151.5,205.5 C 148.448,209.058 145.114,212.558 141.5,216C 137.203,217.092 132.869,217.425 128.5,217C 126.574,216.578 125.574,215.411 125.5,213.5C 128.518,213.665 131.518,213.498 134.5,213C 140.35,210.778 146.017,208.278 151.5,205.5 Z"/></g>
<g><path style="opacity:1" fill="#fefffe" d="M 167.5,210.5 C 166.609,209.89 165.609,209.557 164.5,209.5C 164.974,206.314 166.307,205.814 168.5,208C 167.748,208.671 167.414,209.504 167.5,210.5 Z"/></g>
<g><path style="opacity:1" fill="#fefffe" d="M 188.5,206.5 C 199.981,216.475 211.648,226.309 223.5,236C 219.375,236.854 215.375,236.52 211.5,235C 201.755,228.754 192.755,221.587 184.5,213.5C 185.861,211.15 187.194,208.816 188.5,206.5 Z"/></g>
<g><path style="opacity:1" fill="#29319a" d="M 164.5,209.5 C 165.609,209.557 166.609,209.89 167.5,210.5C 167.443,211.609 167.11,212.609 166.5,213.5C 165.655,212.329 164.989,210.995 164.5,209.5 Z"/></g>
<g><path style="opacity:1" fill="#29319a" d="M 195.5,227.5 C 195.586,228.496 195.252,229.329 194.5,230C 196.693,232.186 198.026,231.686 198.5,228.5C 198.833,228.5 199.167,228.5 199.5,228.5C 200.569,231.26 201.569,234.093 202.5,237C 201.5,237.5 200.5,238 199.5,238.5C 198.289,237.726 198.289,236.893 199.5,236C 198.584,235.626 197.75,235.126 197,234.5C 195.148,236.23 195.314,237.396 197.5,238C 196.944,238.383 196.611,238.883 196.5,239.5C 193.5,239.5 190.5,239.5 187.5,239.5C 187.579,238.07 187.246,236.736 186.5,235.5C 189.255,234.369 191.589,232.702 193.5,230.5C 192.426,229.92 191.426,230.42 190.5,232C 186.889,233.254 185.389,232.088 186,228.5C 190.569,225.505 190.069,224.838 184.5,226.5C 183.819,222.803 183.319,219.136 183,215.5C 186.167,218 189.333,220.5 192.5,223C 194.141,224.129 195.141,225.629 195.5,227.5 Z"/></g>
<g><path style="opacity:1" fill="#29319a" d="M 172.5,228.5 C 173.922,223.566 176.756,219.566 181,216.5C 182.669,220.125 183.169,223.791 182.5,227.5C 179.242,228.417 175.909,228.751 172.5,228.5 Z"/></g>
<g><path style="opacity:1" fill="#fefffe" d="M 195.5,227.5 C 196.391,228.11 197.391,228.443 198.5,228.5C 198.026,231.686 196.693,232.186 194.5,230C 195.252,229.329 195.586,228.496 195.5,227.5 Z"/></g>
<g><path style="opacity:1" fill="#33379d" d="M 172.5,228.5 C 176.298,229.483 180.298,229.817 184.5,229.5C 184.5,230.833 184.5,232.167 184.5,233.5C 182.143,233.337 179.81,233.503 177.5,234C 180.146,234.497 182.813,234.664 185.5,234.5C 185.402,236.553 186.069,238.22 187.5,239.5C 185.167,240.167 182.833,240.833 180.5,241.5C 180.5,241.833 180.5,242.167 180.5,242.5C 178.5,242.5 176.5,242.5 174.5,242.5C 172.278,242.822 170.444,242.155 169,240.5C 168.503,237.854 168.336,235.187 168.5,232.5C 168.5,231.833 168.5,231.167 168.5,230.5C 169.833,229.833 171.167,229.167 172.5,228.5 Z"/></g>
<g><path style="opacity:1" fill="#fefffe" d="M 199.5,228.5 C 200.728,229.306 201.728,230.306 202.5,231.5C 202.12,233.698 202.787,235.365 204.5,236.5C 203.694,237.728 202.694,238.728 201.5,239.5C 199.833,239.5 198.167,239.5 196.5,239.5C 196.611,238.883 196.944,238.383 197.5,238C 195.314,237.396 195.148,236.23 197,234.5C 197.75,235.126 198.584,235.626 199.5,236C 198.289,236.893 198.289,237.726 199.5,238.5C 200.5,238 201.5,237.5 202.5,237C 201.569,234.093 200.569,231.26 199.5,228.5 Z"/></g>
<g><path style="opacity:1" fill="#29319a" d="M 165.5,231.5 C 164.833,231.833 164.167,232.167 163.5,232.5C 164.032,229.54 164.699,229.207 165.5,231.5 Z"/></g>
<g><path style="opacity:1" fill="#fefffe" d="M 170.5,231.5 C 173.686,231.974 174.186,233.307 172,235.5C 171.25,234.874 170.416,234.374 169.5,234C 170.252,233.329 170.586,232.496 170.5,231.5 Z"/></g>
<g><path style="opacity:1" fill="#29319a" d="M 202.5,231.5 C 204.138,232.657 205.804,233.824 207.5,235C 206.263,235.232 205.263,235.732 204.5,236.5C 202.787,235.365 202.12,233.698 202.5,231.5 Z"/></g>
<g><path style="opacity:1" fill="#29319a" d="M 163.5,232.5 C 163.443,233.609 163.11,234.609 162.5,235.5C 161.285,234.221 161.618,233.221 163.5,232.5 Z"/></g>
<g><path style="opacity:1" fill="#fefffe" d="M 167.5,232.5 C 167.833,232.5 168.167,232.5 168.5,232.5C 168.336,235.187 168.503,237.854 169,240.5C 170.444,242.155 172.278,242.822 174.5,242.5C 172.735,243.461 170.735,243.795 168.5,243.5C 167.612,240.946 167.279,238.279 167.5,235.5C 167.5,234.5 167.5,233.5 167.5,232.5 Z"/></g>
<g><path style="opacity:1" fill="#fec90d" d="M 234.5,233.5 C 237.499,234.976 238.999,237.309 239,240.5C 235.963,239.291 232.796,238.457 229.5,238C 231.66,237.004 233.327,235.504 234.5,233.5 Z"/></g>
<g><path style="opacity:1" fill="#29319a" d="M 167.5,235.5 C 167.279,238.279 167.612,240.946 168.5,243.5C 166.5,244.167 164.5,244.833 162.5,245.5C 161.761,245.631 161.094,245.464 160.5,245C 163.083,241.932 165.416,238.765 167.5,235.5 Z"/></g>
<g><path style="opacity:1" fill="#29319a" d="M 160.5,238.5 C 156.236,243.974 155.736,243.641 159,237.5C 160.107,236.288 160.607,236.621 160.5,238.5 Z"/></g>
<g><path style="opacity:1" fill="#283095" d="M 204.5,236.5 C 207.32,236.248 209.986,236.748 212.5,238C 209.333,242.5 206.167,247 203,251.5C 201.236,249.611 199.736,247.611 198.5,245.5C 198.5,243.833 198.5,242.167 198.5,240.5C 199.791,240.737 200.791,240.404 201.5,239.5C 202.694,238.728 203.694,237.728 204.5,236.5 Z"/></g>
<g><path style="opacity:1" fill="#fefffe" d="M 172.5,237.5 C 175.686,237.974 176.186,239.307 174,241.5C 173.25,240.874 172.416,240.374 171.5,240C 172.252,239.329 172.586,238.496 172.5,237.5 Z"/></g>
<g><path style="opacity:1" fill="#283095" d="M 240.5,288.5 C 244.64,281.239 247.473,273.573 249,265.5C 246.058,270.406 242.891,275.072 239.5,279.5C 238.699,277.958 238.366,276.292 238.5,274.5C 228.24,276.352 217.906,277.685 207.5,278.5C 198.76,283.086 190.427,288.253 182.5,294C 179.018,299.146 175.685,304.313 172.5,309.5C 172.5,309.167 172.5,308.833 172.5,308.5C 172.5,308.167 172.5,307.833 172.5,307.5C 174.27,304.804 175.936,301.971 177.5,299C 177.167,298.833 176.833,298.667 176.5,298.5C 172.981,301.854 169.314,305.02 165.5,308C 162.938,310.289 161.271,313.123 160.5,316.5C 160.957,317.298 161.624,317.631 162.5,317.5C 158.91,323.012 155.577,328.679 152.5,334.5C 152.608,335.442 152.941,336.275 153.5,337C 155.885,337.556 158.218,337.39 160.5,336.5C 160.167,337.167 159.833,337.833 159.5,338.5C 155.745,341.582 151.411,342.748 146.5,342C 143.14,339.634 140.14,336.967 137.5,334C 140.452,316.811 145.619,300.311 153,284.5C 153.783,282.567 153.283,281.067 151.5,280C 157.573,269.683 160.24,258.516 159.5,246.5C 160.791,246.737 161.791,246.404 162.5,245.5C 164.5,244.833 166.5,244.167 168.5,243.5C 170.735,243.795 172.735,243.461 174.5,242.5C 176.5,242.5 178.5,242.5 180.5,242.5C 182.5,242.5 184.5,242.5 186.5,242.5C 186.66,244.199 186.494,245.866 186,247.5C 184.229,248.304 182.729,249.471 181.5,251C 183.982,251.677 185.815,250.844 187,248.5C 187.667,249.833 187.667,251.167 187,252.5C 185.365,253.726 183.865,255.059 182.5,256.5C 184.527,256.473 186.527,256.473 188.5,256.5C 188.5,255.5 188.5,254.5 188.5,253.5C 199.167,253.167 199.167,252.833 188.5,252.5C 188.5,251.167 188.5,249.833 188.5,248.5C 193.5,247.997 193.167,247.664 187.5,247.5C 187.325,245.379 187.659,243.379 188.5,241.5C 190.948,240.527 193.615,240.194 196.5,240.5C 197.167,242.167 197.833,243.833 198.5,245.5C 198.34,247.199 198.506,248.866 199,250.5C 200.221,251.774 201.054,253.274 201.5,255C 198.551,260.171 197.051,265.671 197,271.5C 200.628,259.407 206.461,248.574 214.5,239C 220.935,238.485 227.269,239.152 233.5,241C 239.199,243.544 245.199,245.211 251.5,246C 254.473,247.765 256.64,250.265 258,253.5C 259.675,266.549 261.675,279.549 264,292.5C 265.165,300.001 267.332,307.168 270.5,314C 268.693,316.276 267.193,316.443 266,314.5C 265.626,315.416 265.126,316.25 264.5,317C 261.318,317.407 258.151,317.907 255,318.5C 254.167,318.167 253.333,317.833 252.5,317.5C 249.496,307.479 246.496,297.479 243.5,287.5C 244.374,298.011 246.707,308.344 250.5,318.5C 249.758,319.287 248.925,319.953 248,320.5C 245.733,309.821 243.233,299.154 240.5,288.5 Z"/></g>
<g><path style="opacity:1" fill="#fefffe" d="M 187.5,239.5 C 190.5,239.5 193.5,239.5 196.5,239.5C 196.5,239.833 196.5,240.167 196.5,240.5C 193.615,240.194 190.948,240.527 188.5,241.5C 185.833,241.5 183.167,241.5 180.5,241.5C 182.833,240.833 185.167,240.167 187.5,239.5 Z"/></g>
<g><path style="opacity:1" fill="#000000" d="M 196.5,240.5 C 196.5,240.167 196.5,239.833 196.5,239.5C 198.167,239.5 199.833,239.5 201.5,239.5C 200.791,240.404 199.791,240.737 198.5,240.5C 198.5,242.167 198.5,243.833 198.5,245.5C 197.833,243.833 197.167,242.167 196.5,240.5 Z"/></g>
<g><path style="opacity:1" fill="#000000" d="M 180.5,242.5 C 180.5,242.167 180.5,241.833 180.5,241.5C 183.167,241.5 185.833,241.5 188.5,241.5C 187.659,243.379 187.325,245.379 187.5,247.5C 193.167,247.664 193.5,247.997 188.5,248.5C 188.5,249.833 188.5,251.167 188.5,252.5C 199.167,252.833 199.167,253.167 188.5,253.5C 188.5,254.5 188.5,255.5 188.5,256.5C 186.527,256.473 184.527,256.473 182.5,256.5C 183.865,255.059 185.365,253.726 187,252.5C 187.667,251.167 187.667,249.833 187,248.5C 185.815,250.844 183.982,251.677 181.5,251C 182.729,249.471 184.229,248.304 186,247.5C 186.494,245.866 186.66,244.199 186.5,242.5C 184.5,242.5 182.5,242.5 180.5,242.5 Z"/></g>
<g><path style="opacity:1" fill="#870014" d="M 158.5,242.5 C 159.525,242.897 159.692,243.563 159,244.5C 155.991,248.339 152.824,252.006 149.5,255.5C 148.479,254.998 148.312,254.332 149,253.5C 152.647,250.175 155.814,246.508 158.5,242.5 Z"/></g>
<g><path style="opacity:1" fill="#010002" d="M 210.5,254.5 C 207.977,258.213 205.977,262.213 204.5,266.5C 202.75,267.659 201.75,269.326 201.5,271.5C 200.503,271.53 199.836,271.03 199.5,270C 203.826,261.682 208.159,253.349 212.5,245C 213.932,244.73 214.932,245.396 215.5,247C 212.71,248.746 211.043,251.246 210.5,254.5 Z"/></g>
<g><path style="opacity:1" fill="#000000" d="M 175.5,245.5 C 176.956,250.383 178.123,255.383 179,260.5C 175.231,256.042 174.064,251.042 175.5,245.5 Z"/></g>
<g><path style="opacity:1" fill="#1b2066" d="M 204.5,266.5 C 205.977,262.213 207.977,258.213 210.5,254.5C 214.254,252.252 217.588,249.419 220.5,246C 221.167,245.333 221.833,245.333 222.5,246C 219.546,250.07 216.713,254.237 214,258.5C 211.234,261.777 208.067,264.443 204.5,266.5 Z"/></g>
<g><path style="opacity:1" fill="#1b1f65" d="M 234.5,266.5 C 234.5,265.833 234.5,265.167 234.5,264.5C 234.986,261.236 236.153,258.236 238,255.5C 240.46,254.042 242.627,252.209 244.5,250C 245.332,249.312 245.998,249.479 246.5,250.5C 243.986,254.865 241.486,259.199 239,263.5C 237.871,265.141 236.371,266.141 234.5,266.5 Z"/></g>
<g><path style="opacity:1" fill="#cc7742" d="M 155.5,251.5 C 156.797,253.693 156.797,256.027 155.5,258.5C 152.222,256.53 152.222,254.197 155.5,251.5 Z"/></g>
<g><path style="opacity:1" fill="#000000" d="M 166.5,252.5 C 168.347,252.234 169.014,252.568 168.5,253.5C 166.902,254.485 165.235,254.651 163.5,254C 164.737,253.768 165.737,253.268 166.5,252.5 Z"/></g>
<g><path style="opacity:1" fill="#000000" d="M 164.5,255.5 C 166.179,255.892 167.846,256.392 169.5,257C 166.944,258.438 164.278,258.438 161.5,257C 162.737,256.768 163.737,256.268 164.5,255.5 Z"/></g>
<g><path style="opacity:1" fill="#cc7742" d="M 144.5,256.5 C 149.339,256.92 153.339,258.92 156.5,262.5C 154.61,267.947 152.443,273.28 150,278.5C 145.451,279.999 142.451,278.332 141,273.5C 139.685,267.246 140.852,261.58 144.5,256.5 Z"/></g>
<g><path style="opacity:1" fill="#000000" d="M 172.5,256.5 C 174.202,260.043 176.535,263.21 179.5,266C 183.333,267.552 187,269.385 190.5,271.5C 189.635,272.583 188.635,272.749 187.5,272C 184.392,269.894 181.059,268.228 177.5,267C 173.808,264.45 172.142,260.95 172.5,256.5 Z"/></g>
<g><path style="opacity:1" fill="#000000" d="M 188.5,256.5 C 191.384,261.698 192.884,267.365 193,273.5C 190.092,268.201 188.592,262.535 188.5,256.5 Z"/></g>
<g><path style="opacity:1" fill="#000000" d="M 201.5,271.5 C 206.593,267.912 211.26,263.745 215.5,259C 216.167,258.333 216.833,258.333 217.5,259C 211.612,266.904 204.612,273.237 196.5,278C 198.054,275.713 199.721,273.546 201.5,271.5 Z"/></g>
<g><path style="opacity:1" fill="#000000" d="M 234.5,264.5 C 234.5,265.167 234.5,265.833 234.5,266.5C 235.694,268.484 235.694,270.484 234.5,272.5C 233.515,270.228 232.681,267.895 232,265.5C 231.184,264.177 230.017,263.511 228.5,263.5C 225.972,262.834 223.306,262.168 220.5,261.5C 225.869,259.608 230.535,260.608 234.5,264.5 Z"/></g>
<g><path style="opacity:1" fill="#000000" d="M 228.5,263.5 C 228.631,264.376 228.298,265.043 227.5,265.5C 219.734,268.288 213.068,272.622 207.5,278.5C 205.972,278.483 205.472,277.816 206,276.5C 212.16,269.838 219.66,265.505 228.5,263.5 Z"/></g>
<g><path style="opacity:1" fill="#1b1f65" d="M 240.5,288.5 C 239.522,288.189 238.855,287.522 238.5,286.5C 239.374,284.253 239.708,281.92 239.5,279.5C 242.891,275.072 246.058,270.406 249,265.5C 247.473,273.573 244.64,281.239 240.5,288.5 Z"/></g>
<g><path style="opacity:1" fill="#000000" d="M 163.5,266.5 C 170.725,266.41 177.392,268.243 183.5,272C 178.171,271.17 172.837,270.003 167.5,268.5C 164.846,269.268 162.179,269.434 159.5,269C 160.858,268.066 162.192,267.232 163.5,266.5 Z"/></g>
<g><path style="opacity:1" fill="#000000" d="M 173.5,274.5 C 176.976,273.357 180.642,273.19 184.5,274C 183.271,274.781 181.938,275.281 180.5,275.5C 178.218,274.777 175.884,274.443 173.5,274.5 Z"/></g>
<g><path style="opacity:1" fill="#1b1f65" d="M 185.5,282.5 C 186.873,282.343 188.207,282.51 189.5,283C 182.386,290.049 174.719,296.383 166.5,302C 164.888,302.72 163.388,302.554 162,301.5C 161.826,298.706 162.66,296.206 164.5,294C 171.883,290.646 178.883,286.813 185.5,282.5 Z"/></g>
<g><path style="opacity:1" fill="#1d1e1d" d="M 192.5,288.5 C 197.296,290.765 198.796,294.431 197,299.5C 200.402,305.3 203.568,311.3 206.5,317.5C 201.959,327.273 196.293,327.94 189.5,319.5C 188.301,312.844 185.968,306.678 182.5,301C 185.263,296.268 188.596,292.101 192.5,288.5 Z"/></g>
<g><path style="opacity:1" fill="#1b1f65" d="M 172.5,307.5 C 171.761,307.369 171.094,307.536 170.5,308C 168.647,311.887 165.98,315.053 162.5,317.5C 161.624,317.631 160.957,317.298 160.5,316.5C 161.271,313.123 162.938,310.289 165.5,308C 169.314,305.02 172.981,301.854 176.5,298.5C 176.833,298.667 177.167,298.833 177.5,299C 175.936,301.971 174.27,304.804 172.5,307.5 Z"/></g>
<g><path style="opacity:1" fill="#1b1f65" d="M 172.5,308.5 C 172.5,308.833 172.5,309.167 172.5,309.5C 171.272,313.015 169.938,316.515 168.5,320C 168.833,320.5 169.167,321 169.5,321.5C 172.478,314.877 175.978,308.543 180,302.5C 183.576,304.98 184.91,308.313 184,312.5C 175.754,320.75 166.921,328.25 157.5,335C 156.365,335.749 155.365,335.583 154.5,334.5C 160.041,325.385 166.041,316.718 172.5,308.5 Z"/></g>
<g><path style="opacity:1" fill="#1b1f65" d="M 159.5,338.5 C 159.833,337.833 160.167,337.167 160.5,336.5C 168.77,329.403 176.937,322.069 185,314.5C 186.557,317.294 186.89,320.294 186,323.5C 185.477,325.223 184.477,326.556 183,327.5C 174.964,330.768 167.131,334.435 159.5,338.5 Z"/></g>
<g><path style="opacity:1" fill="#1d1e1d" d="M 270.5,316.5 C 271.282,319.714 272.115,323.048 273,326.5C 278.289,331.549 284.123,335.716 290.5,339C 291.574,339.739 292.241,340.739 292.5,342C 289.935,344.639 286.768,346.139 283,346.5C 275.757,345.064 268.59,343.397 261.5,341.5C 258.86,342.095 256.193,342.428 253.5,342.5C 254.248,335.191 254.582,327.858 254.5,320.5C 258.163,320.048 261.83,319.548 265.5,319C 267.491,318.626 269.158,317.793 270.5,316.5 Z"/></g>
</svg>
