<?xml version="1.0" encoding="UTF-8"?>
<!DOCTYPE svg PUBLIC "-//W3C//DTD SVG 1.1//EN" "http://www.w3.org/Graphics/SVG/1.1/DTD/svg11.dtd">
<svg xmlns="http://www.w3.org/2000/svg" version="1.1" width="436px" height="438px" style="shape-rendering:geometricPrecision; text-rendering:geometricPrecision; image-rendering:optimizeQuality; fill-rule:evenodd; clip-rule:evenodd" xmlns:xlink="http://www.w3.org/1999/xlink">
<g><path style="opacity:1" fill="#fefffe" d="M 200.5,33.5 C 205.844,33.334 211.177,33.5006 216.5,34C 218.746,35.0395 220.913,36.2062 223,37.5C 223.667,41.5 223.667,45.5 223,49.5C 220.688,54.1538 219.854,59.1538 220.5,64.5C 229.986,64.6612 238.152,67.9946 245,74.5C 245.667,78.8333 245.667,83.1667 245,87.5C 242.83,92.0175 240.663,96.5175 238.5,101C 242.59,101.256 244.923,103.422 245.5,107.5C 245.915,104.921 247.248,103.087 249.5,102C 253.833,101.333 258.167,101.333 262.5,102C 263.669,104.007 264.335,106.173 264.5,108.5C 269.297,108.121 273.964,108.621 278.5,110C 279.894,113.455 281.228,116.955 282.5,120.5C 298.213,119.104 313.88,116.604 329.5,113C 333.747,107.049 339.413,103.382 346.5,102C 368.833,101.883 391.167,102.217 413.5,103C 416.124,106.421 416.124,109.921 413.5,113.5C 393.976,116.502 374.309,118.002 354.5,118C 352.795,121.168 351.962,124.668 352,128.5C 351.097,129.701 349.931,130.535 348.5,131C 326.26,134.181 304.26,138.515 282.5,144C 296.468,151.638 306.635,162.805 313,177.5C 317.109,196.058 309.942,203.224 291.5,199C 288.898,198.023 286.398,196.856 284,195.5C 282.58,197.422 280.747,198.755 278.5,199.5C 280.5,203.5 282.5,207.5 284.5,211.5C 287.798,212.965 290.298,215.298 292,218.5C 299.074,232.315 307.407,245.315 317,257.5C 318.49,266.674 323.49,273.341 332,277.5C 332.667,282.167 332.667,286.833 332,291.5C 324.602,294.509 317.435,294.009 310.5,290C 299.921,281.423 290.755,271.59 283,260.5C 283.551,265.099 281.718,268.265 277.5,270C 272.228,269.3 268.228,271.133 265.5,275.5C 266.286,279.496 267.119,283.496 268,287.5C 282.593,297.217 297.759,306.05 313.5,314C 314.167,315 314.833,316 315.5,317C 318.5,317.333 321.5,317.667 324.5,318C 330.517,325.666 332.017,334.166 329,343.5C 325.013,347.831 321.347,352.498 318,357.5C 317.667,360.5 317.333,363.5 317,366.5C 316.167,368.667 314.667,370.167 312.5,371C 303.02,374.561 293.687,374.227 284.5,370C 283.371,365.921 283.204,361.755 284,357.5C 288.233,354.045 289.733,349.712 288.5,344.5C 273.598,332.75 256.598,326.083 237.5,324.5C 235.898,336.617 234.565,348.783 233.5,361C 235.367,369.066 235.867,377.232 235,385.5C 229.412,390.376 222.912,393.21 215.5,394C 205.526,395.279 195.526,395.613 185.5,395C 182.898,394.023 180.398,392.856 178,391.5C 177.333,387.167 177.333,382.833 178,378.5C 184.335,375.261 190.168,371.428 195.5,367C 201.061,361.636 202.895,355.136 201,347.5C 195.819,327.515 193.819,307.182 195,286.5C 201.333,278.167 207.667,269.833 214,261.5C 214.168,256.828 213.834,252.161 213,247.5C 209.148,245.77 204.982,244.937 200.5,245C 197.966,244.484 195.8,243.317 194,241.5C 190.972,230.691 189.972,219.691 191,208.5C 192.515,206.323 194.015,204.156 195.5,202C 191.715,196.267 188.048,190.434 184.5,184.5C 177.211,183.375 169.877,182.708 162.5,182.5C 154.504,183.267 146.504,183.433 138.5,183C 131.564,181.565 127.564,177.399 126.5,170.5C 118.852,171.43 111.185,171.597 103.5,171C 102.167,165.333 102.167,159.667 103.5,154C 112.339,151.609 121.339,149.942 130.5,149C 132.402,145.376 135.402,143.21 139.5,142.5C 148.79,141.047 158.124,139.88 167.5,139C 168.167,137 169.5,135.667 171.5,135C 176.085,133.775 180.752,133.275 185.5,133.5C 185.676,128.093 186.343,122.76 187.5,117.5C 185.892,116.682 184.225,116.015 182.5,115.5C 179.764,108.828 181.597,104.161 188,101.5C 189.211,88.5406 189.878,75.5406 190,62.5C 190.667,61.8333 191.333,61.1667 192,60.5C 192.333,57.1667 192.667,53.8333 193,50.5C 194.154,49.2567 195.488,48.2567 197,47.5C 197.333,43.5 197.667,39.5 198,35.5C 198.995,34.9341 199.828,34.2674 200.5,33.5 Z"/></g>
<g><path style="opacity:1" fill="#000000" d="M 202.5,35.5 C 209.218,34.5664 215.385,35.8997 221,39.5C 222.369,44.4374 221.203,48.604 217.5,52C 218.833,56.6667 218.833,61.3333 217.5,66C 227.333,66.3857 235.833,69.8857 243,76.5C 243.667,79.5 243.667,82.5 243,85.5C 240.198,91.4144 237.698,97.4144 235.5,103.5C 240.339,102.677 242.673,104.677 242.5,109.5C 244.5,109.5 246.5,109.5 248.5,109.5C 248.615,104.83 251.115,102.83 256,103.5C 260.775,103.204 262.942,105.537 262.5,110.5C 267.297,110.121 271.964,110.621 276.5,112C 277.894,115.455 279.228,118.955 280.5,122.5C 281.833,122.833 283.167,123.167 284.5,123.5C 300.253,121.097 315.92,118.263 331.5,115C 335.747,109.049 341.413,105.382 348.5,104C 369.498,103.95 390.498,104.283 411.5,105C 414.094,107.072 414.094,109.239 411.5,111.5C 391.976,114.502 372.309,116.002 352.5,116C 351.5,116.333 350.5,116.667 349.5,117C 350.617,120.073 350.784,123.24 350,126.5C 349.097,127.701 347.931,128.535 346.5,129C 323.365,132.56 300.365,136.894 277.5,142C 278.257,143.512 279.257,144.846 280.5,146C 293.329,153.164 303.163,163.331 310,176.5C 315.333,192.48 309.833,199.313 293.5,197C 289.469,195.568 285.636,193.734 282,191.5C 281.16,195.502 278.66,197.502 274.5,197.5C 277.167,202.833 279.833,208.167 282.5,213.5C 285.798,214.965 288.298,217.298 290,220.5C 297.074,234.315 305.407,247.315 315,259.5C 316.49,268.674 321.49,275.341 330,279.5C 330.667,282.833 330.667,286.167 330,289.5C 323.918,292.429 318.084,291.929 312.5,288C 307.032,283.533 301.865,278.7 297,273.5C 292.043,266.874 286.709,260.54 281,254.5C 282.378,264.789 277.878,269.622 267.5,269C 266.333,270.167 265.167,271.333 264,272.5C 263.819,278.236 264.485,283.903 266,289.5C 280.593,299.217 295.759,308.05 311.5,316C 312.167,317 312.833,318 313.5,319C 316.5,319.333 319.5,319.667 322.5,320C 331.383,331.432 330.216,341.598 319,350.5C 316.085,354.653 314.751,359.32 315,364.5C 312.599,368.291 309.099,370.458 304.5,371C 298.153,372.098 292.153,371.098 286.5,368C 284.406,362.904 285.573,358.737 290,355.5C 290.462,351.55 291.296,347.716 292.5,344C 277.5,331.509 260.166,324.509 240.5,323C 238.481,322.55 236.648,321.717 235,320.5C 233.896,334.005 232.729,347.505 231.5,361C 233.172,368.41 233.672,375.91 233,383.5C 229.032,386.902 224.532,389.402 219.5,391C 208.9,392.873 198.233,393.54 187.5,393C 185.167,392 182.833,391 180.5,390C 179.383,386.927 179.216,383.76 180,380.5C 186.335,377.261 192.168,373.428 197.5,369C 200.43,366.88 202.263,364.047 203,360.5C 204.135,349.843 202.801,339.509 199,329.5C 197.065,315.886 196.398,302.22 197,288.5C 203.333,280.167 209.667,271.833 216,263.5C 216.722,256.278 215.889,249.278 213.5,242.5C 207.985,244.049 202.651,243.549 197.5,241C 196.107,239.829 195.273,238.329 195,236.5C 193.011,227.925 192.344,219.258 193,210.5C 194.667,208.167 196.333,205.833 198,203.5C 198.667,202.167 198.667,200.833 198,199.5C 193.672,194.179 189.838,188.512 186.5,182.5C 178.549,181.273 170.549,180.606 162.5,180.5C 155.159,181.002 147.826,181.168 140.5,181C 133.211,179.379 129.045,174.879 128,167.5C 120.617,169.17 113.117,169.67 105.5,169C 104.371,164.921 104.204,160.755 105,156.5C 105.75,155.874 106.584,155.374 107.5,155C 115.797,153.448 124.13,152.115 132.5,151C 134.984,146.919 138.65,144.585 143.5,144C 152.158,142.956 160.825,141.956 169.5,141C 171.158,137.832 173.825,136.165 177.5,136C 181.241,135.498 184.908,135.498 188.5,136C 187.892,134.769 187.559,133.436 187.5,132C 188.373,126.183 189.04,120.35 189.5,114.5C 184.425,114.82 182.592,112.486 184,107.5C 185.828,105.919 187.828,104.585 190,103.5C 191.211,90.5406 191.878,77.5406 192,64.5C 192.667,63.8333 193.333,63.1667 194,62.5C 194.333,59.1667 194.667,55.8333 195,52.5C 197.2,51.1645 199.033,49.4978 200.5,47.5C 199.504,44.2025 199.337,40.8692 200,37.5C 200.995,36.9341 201.828,36.2674 202.5,35.5 Z"/></g>
<g><path style="opacity:1" fill="#ec1c23" d="M 209.5,51.5 C 207.515,49.0794 206.181,46.246 205.5,43C 205.734,41.2676 206.734,40.4342 208.5,40.5C 211.321,41.0742 213.654,42.4076 215.5,44.5C 213.719,47.0912 211.719,49.4245 209.5,51.5 Z"/></g>
<g><path style="opacity:1" fill="#ec1c23" d="M 209.5,51.5 C 210.164,53.487 211.331,55.1537 213,56.5C 213.667,58.1667 213.667,59.8333 213,61.5C 210.287,63.7195 207.454,65.7195 204.5,67.5C 204.5,66.8333 204.167,66.5 203.5,66.5C 200.924,63.6769 199.757,60.3436 200,56.5C 203.141,54.6804 206.308,53.0138 209.5,51.5 Z"/></g>
<g><path style="opacity:1" fill="#f9f9f9" d="M 203.5,66.5 C 204.167,66.5 204.5,66.8333 204.5,67.5C 204.5,68.1667 204.5,68.8333 204.5,69.5C 205.833,71.1667 205.833,72.8333 204.5,74.5C 203.167,75.1667 202.167,76.1667 201.5,77.5C 200.609,76.8902 199.609,76.5569 198.5,76.5C 197.833,76.1667 197.167,75.8333 196.5,75.5C 195.37,72.8633 195.37,70.1967 196.5,67.5C 198.717,66.6314 201.05,66.298 203.5,66.5 Z"/></g>
<g><path style="opacity:1" fill="#ec1c23" d="M 196.5,67.5 C 195.37,70.1967 195.37,72.8633 196.5,75.5C 195.252,74.6661 194.585,73.3328 194.5,71.5C 194.585,69.6672 195.252,68.3339 196.5,67.5 Z"/></g>
<g><path style="opacity:1" fill="#ec1c23" d="M 198.5,68.5 C 202.35,68.7007 203.35,70.5341 201.5,74C 197.537,74.1177 196.537,72.2843 198.5,68.5 Z"/></g>
<g><path style="opacity:1" fill="#3f47cc" d="M 199.5,69.5 C 201.852,70.5426 202.019,71.8759 200,73.5C 198.232,72.3181 198.065,70.9848 199.5,69.5 Z"/></g>
<g><path style="opacity:1" fill="#d91e22" d="M 204.5,69.5 C 212.244,70.5931 219.91,72.0931 227.5,74C 231.419,75.5403 234.919,77.7069 238,80.5C 238.508,85.1915 237.008,86.1915 233.5,83.5C 230.595,80.2857 227.095,78.9524 223,79.5C 223.407,88.1609 223.74,96.8276 224,105.5C 222.725,103.283 221.725,100.949 221,98.5C 220.477,93.6383 219.644,88.9716 218.5,84.5C 219.125,81.0295 218.125,78.1962 215.5,76C 211.886,75.0642 208.22,74.5642 204.5,74.5C 205.833,72.8333 205.833,71.1667 204.5,69.5 Z"/></g>
<g><path style="opacity:1" fill="#1c1c1c" d="M 204.5,74.5 C 208.22,74.5642 211.886,75.0642 215.5,76C 218.125,78.1962 219.125,81.0295 218.5,84.5C 218.697,90.5462 219.364,96.5462 220.5,102.5C 220.36,104.03 219.693,105.03 218.5,105.5C 211.496,102.704 204.163,101.371 196.5,101.5C 196.5,100.167 196.5,98.8333 196.5,97.5C 200.594,99.731 204.094,98.731 207,94.5C 208.496,92.5497 208.663,90.5497 207.5,88.5C 203.218,91.0781 201.385,89.7448 202,84.5C 203.885,89.5399 205.385,89.2066 206.5,83.5C 206.238,79.1624 204.572,78.1624 201.5,80.5C 200.438,79.5754 200.438,78.5754 201.5,77.5C 202.167,76.1667 203.167,75.1667 204.5,74.5 Z"/></g>
<g><path style="opacity:1" fill="#fec90d" d="M 198.5,76.5 C 199.609,76.5569 200.609,76.8902 201.5,77.5C 200.438,78.5754 200.438,79.5754 201.5,80.5C 204.572,78.1624 206.238,79.1624 206.5,83.5C 205.385,89.2066 203.885,89.5399 202,84.5C 201.385,89.7448 203.218,91.0781 207.5,88.5C 208.663,90.5497 208.496,92.5497 207,94.5C 204.094,98.731 200.594,99.731 196.5,97.5C 194.891,93.9931 195.558,90.9931 198.5,88.5C 198,87.5 197.5,86.5 197,85.5C 196.667,85.8333 196.333,86.1667 196,86.5C 195.126,83.6213 195.46,80.9546 197,78.5C 197.333,79.1667 197.667,79.8333 198,80.5C 198.49,79.2068 198.657,77.8734 198.5,76.5 Z"/></g>
<g><path style="opacity:1" fill="#1d1e1d" d="M 233.5,83.5 C 233.539,84.5832 233.873,85.5832 234.5,86.5C 233.14,89.2198 231.807,91.8864 230.5,94.5C 229.017,96.0938 227.517,97.7605 226,99.5C 224.838,93.2047 224.004,86.8713 223.5,80.5C 227.007,80.9205 230.341,81.9205 233.5,83.5 Z"/></g>
<g><path style="opacity:1" fill="#ec1c23" d="M 230.5,94.5 C 232.708,93.1064 234.208,91.1064 235,88.5C 235.654,87.3044 236.154,87.3044 236.5,88.5C 233.099,94.209 229.766,99.8757 226.5,105.5C 226.167,105.333 225.833,105.167 225.5,105C 227.05,101.402 228.716,97.9021 230.5,94.5 Z"/></g>
<g><path style="opacity:1" fill="#ec1c23" d="M 196.5,101.5 C 204.163,101.371 211.496,102.704 218.5,105.5C 217.666,106.748 216.333,107.415 214.5,107.5C 209.178,106.89 203.844,106.39 198.5,106C 195.731,105.165 195.065,103.665 196.5,101.5 Z"/></g>
<g><path style="opacity:1" fill="#ebb912" d="M 221.5,111.5 C 220.508,111.672 219.842,111.338 219.5,110.5C 219.965,107.527 221.632,106.36 224.5,107C 225.956,107.423 226.456,108.256 226,109.5C 224.89,111.037 223.39,111.703 221.5,111.5 Z"/></g>
<g><path style="opacity:1" fill="#fefffe" d="M 234.5,108.5 C 235.693,108.97 236.36,109.97 236.5,111.5C 236.163,115.034 234.83,115.367 232.5,112.5C 233.18,111.14 233.847,109.807 234.5,108.5 Z"/></g>
<g><path style="opacity:1" fill="#fefffe" d="M 255.5,108.5 C 256.578,110.539 257.578,112.706 258.5,115C 255.433,116.164 253.767,115.164 253.5,112C 253.862,110.566 254.528,109.399 255.5,108.5 Z"/></g>
<g><path style="opacity:1" fill="#c2c3c2" d="M 352.5,108.5 C 369.17,108.333 385.837,108.5 402.5,109C 384.876,110.737 367.209,111.737 349.5,112C 346.045,112.727 344.379,114.893 344.5,118.5C 341.824,119.008 339.157,119.175 336.5,119C 340.815,113.693 346.148,110.193 352.5,108.5 Z"/></g>
<g><path style="opacity:1" fill="#fec90d" d="M 219.5,110.5 C 219.842,111.338 220.508,111.672 221.5,111.5C 222.551,112.222 223.218,113.222 223.5,114.5C 222.609,115.11 221.609,115.443 220.5,115.5C 215.713,114.626 215.38,112.959 219.5,110.5 Z"/></g>
<g><path style="opacity:1" fill="#42140e" d="M 228.5,117.5 C 226.5,117.833 224.5,118.167 222.5,118.5C 222.218,117.222 221.551,116.222 220.5,115.5C 221.609,115.443 222.609,115.11 223.5,114.5C 226.511,108.99 228.511,109.324 229.5,115.5C 229.457,116.416 229.124,117.083 228.5,117.5 Z"/></g>
<g><path style="opacity:1" fill="#c96723" d="M 205.5,116.5 C 208.46,115.968 208.793,115.301 206.5,114.5C 209.171,112.882 212.171,112.215 215.5,112.5C 215.5,113.833 215.5,115.167 215.5,116.5C 215.167,116.5 214.833,116.5 214.5,116.5C 210.542,116.86 206.376,117.86 202,119.5C 200.374,118.711 198.874,117.711 197.5,116.5C 195.784,117.549 194.451,118.882 193.5,120.5C 192.463,118.262 192.297,115.929 193,113.5C 193.249,114.624 193.749,115.624 194.5,116.5C 195.696,116.154 195.696,115.654 194.5,115C 195.738,115.077 196.738,114.911 197.5,114.5C 196.624,113.749 195.624,113.249 194.5,113C 198.167,112.333 201.833,112.333 205.5,113C 201.555,114.409 201.555,115.575 205.5,116.5 Z"/></g>
<g><path style="opacity:1" fill="#fefffe" d="M 206.5,114.5 C 208.793,115.301 208.46,115.968 205.5,116.5C 205.328,115.508 205.662,114.842 206.5,114.5 Z"/></g>
<g><path style="opacity:1" fill="#eee4af" d="M 244.5,114.5 C 247.397,114.125 250.063,114.625 252.5,116C 250.787,119.676 249.454,123.509 248.5,127.5C 247.15,128.95 245.484,129.617 243.5,129.5C 243.421,130.93 243.754,132.264 244.5,133.5C 242.067,135.054 239.4,135.72 236.5,135.5C 236.334,130.156 236.501,124.823 237,119.5C 237.5,118.5 238,117.5 238.5,116.5C 240.631,115.831 242.631,115.165 244.5,114.5 Z"/></g>
<g><path style="opacity:1" fill="#f6a581" d="M 214.5,116.5 C 214.5,118.833 214.5,121.167 214.5,123.5C 213.596,124.209 213.263,125.209 213.5,126.5C 212.463,127.93 211.796,129.597 211.5,131.5C 210.596,132.209 210.263,133.209 210.5,134.5C 209.662,134.842 209.328,135.508 209.5,136.5C 209.672,137.492 209.338,138.158 208.5,138.5C 205.194,140.961 201.528,141.627 197.5,140.5C 196.691,138.929 196.357,137.262 196.5,135.5C 195.599,134.71 194.932,133.71 194.5,132.5C 199.323,130.015 203.156,131.348 206,136.5C 208.074,133.863 207.907,131.363 205.5,129C 202.583,126.569 199.25,125.402 195.5,125.5C 194.282,124.839 192.949,124.172 191.5,123.5C 192.193,122.482 192.859,121.482 193.5,120.5C 194.451,118.882 195.784,117.549 197.5,116.5C 198.874,117.711 200.374,118.711 202,119.5C 206.376,117.86 210.542,116.86 214.5,116.5 Z"/></g>
<g><path style="opacity:1" fill="#fec90d" d="M 220.5,115.5 C 221.551,116.222 222.218,117.222 222.5,118.5C 221.292,119.234 219.959,119.567 218.5,119.5C 217.1,118.9 216.1,117.9 215.5,116.5C 217.042,115.699 218.708,115.366 220.5,115.5 Z"/></g>
<g><path style="opacity:1" fill="#e4daa8" d="M 271.5,124.5 C 269.795,127.287 268.628,126.954 268,123.5C 267.51,124.793 267.343,126.127 267.5,127.5C 263.606,126.483 259.773,126.483 256,127.5C 256.013,116.66 261.18,112.993 271.5,116.5C 273.42,119.339 275.087,122.339 276.5,125.5C 275.667,125.833 274.833,126.167 274,126.5C 272.624,126.316 271.791,125.649 271.5,124.5 Z"/></g>
<g><path style="opacity:1" fill="#000000" d="M 214.5,116.5 C 214.833,116.5 215.167,116.5 215.5,116.5C 216.1,117.9 217.1,118.9 218.5,119.5C 217.325,119.281 216.325,119.614 215.5,120.5C 216.602,121.176 217.602,121.842 218.5,122.5C 217.041,122.433 215.708,122.766 214.5,123.5C 214.5,121.167 214.5,118.833 214.5,116.5 Z"/></g>
<g><path style="opacity:1" fill="#fefffe" d="M 232.5,116.5 C 233.675,116.281 234.675,116.614 235.5,117.5C 234.721,122.113 234.221,126.78 234,131.5C 232.779,130.226 231.946,128.726 231.5,127C 232.383,123.348 232.717,119.848 232.5,116.5 Z"/></g>
<g><path style="opacity:1" fill="#f9a884" d="M 228.5,117.5 C 230.972,123.531 229.305,127.531 223.5,129.5C 222.833,129.5 222.167,129.5 221.5,129.5C 221.567,128.041 221.234,126.708 220.5,125.5C 222.163,123.562 222.829,121.228 222.5,118.5C 224.5,118.167 226.5,117.833 228.5,117.5 Z"/></g>
<g><path style="opacity:1" fill="#fefffe" d="M 253.5,117.5 C 254.552,117.351 255.552,117.517 256.5,118C 255.092,121.126 253.759,124.293 252.5,127.5C 252.167,126.833 251.833,126.167 251.5,125.5C 252.171,122.815 252.838,120.148 253.5,117.5 Z"/></g>
<g><path style="opacity:1" fill="#000000" d="M 222.5,118.5 C 222.829,121.228 222.163,123.562 220.5,125.5C 220.218,124.222 219.551,123.222 218.5,122.5C 219.675,122.719 220.675,122.386 221.5,121.5C 220.398,120.824 219.398,120.158 218.5,119.5C 219.959,119.567 221.292,119.234 222.5,118.5 Z"/></g>
<g><path style="opacity:1" fill="#fec90d" d="M 218.5,119.5 C 219.398,120.158 220.398,120.824 221.5,121.5C 220.675,122.386 219.675,122.719 218.5,122.5C 217.602,121.842 216.602,121.176 215.5,120.5C 216.325,119.614 217.325,119.281 218.5,119.5 Z"/></g>
<g><path style="opacity:1" fill="#000000" d="M 225.5,120.5 C 227.496,119.312 228.329,119.979 228,122.5C 227.292,121.619 226.458,120.953 225.5,120.5 Z"/></g>
<g><path style="opacity:1" fill="#c2c3c2" d="M 341.5,119.5 C 344.932,119.248 345.932,120.581 344.5,123.5C 341.766,125.371 338.766,126.371 335.5,126.5C 335.5,124.5 335.5,122.5 335.5,120.5C 337.735,120.795 339.735,120.461 341.5,119.5 Z"/></g>
<g><path style="opacity:1" fill="#c2c3c2" d="M 318.5,125.5 C 318.577,124.25 319.244,123.417 320.5,123C 324.888,122.38 329.222,121.547 333.5,120.5C 334.938,122.998 334.604,125.164 332.5,127C 329.139,127.337 325.806,127.837 322.5,128.5C 320.557,128.213 319.223,127.213 318.5,125.5 Z"/></g>
<g><path style="opacity:1" fill="#fec90d" d="M 218.5,122.5 C 219.551,123.222 220.218,124.222 220.5,125.5C 219.5,125.5 218.5,125.5 217.5,125.5C 216.5,124.833 215.5,124.167 214.5,123.5C 215.708,122.766 217.041,122.433 218.5,122.5 Z"/></g>
<g><path style="opacity:1" fill="#000000" d="M 223.5,122.5 C 227.099,122.262 227.433,123.262 224.5,125.5C 223.614,124.675 223.281,123.675 223.5,122.5 Z"/></g>
<g><path style="opacity:1" fill="#000000" d="M 271.5,124.5 C 271.783,123.711 272.283,123.044 273,122.5C 273.528,123.816 273.028,124.483 271.5,124.5 Z"/></g>
<g><path style="opacity:1" fill="#000000" d="M 214.5,123.5 C 215.5,124.167 216.5,124.833 217.5,125.5C 216.041,125.433 214.708,125.766 213.5,126.5C 213.263,125.209 213.596,124.209 214.5,123.5 Z"/></g>
<g><path style="opacity:1" fill="#6f4b37" d="M 314.5,125.5 C 304.398,127.803 294.065,129.469 283.5,130.5C 277.792,130.508 277.459,130.008 282.5,129C 294.167,126.952 305.834,125.286 317.5,124C 316.263,124.232 315.263,124.732 314.5,125.5 Z"/></g>
<g><path style="opacity:1" fill="#581813" d="M 195.5,125.5 C 199.25,125.402 202.583,126.569 205.5,129C 207.907,131.363 208.074,133.863 206,136.5C 203.156,131.348 199.323,130.015 194.5,132.5C 192.415,135.427 191.082,135.094 190.5,131.5C 191.488,128.852 193.155,126.852 195.5,125.5 Z"/></g>
<g><path style="opacity:1" fill="#fec90d" d="M 217.5,125.5 C 218.167,126.167 218.833,126.833 219.5,127.5C 217.265,127.795 215.265,127.461 213.5,126.5C 214.708,125.766 216.041,125.433 217.5,125.5 Z"/></g>
<g><path style="opacity:1" fill="#000000" d="M 217.5,125.5 C 218.5,125.5 219.5,125.5 220.5,125.5C 221.234,126.708 221.567,128.041 221.5,129.5C 220.833,128.833 220.167,128.167 219.5,127.5C 218.833,126.833 218.167,126.167 217.5,125.5 Z"/></g>
<g><path style="opacity:1" fill="#c2c3c2" d="M 314.5,125.5 C 315.833,125.5 317.167,125.5 318.5,125.5C 317.5,126.167 316.5,126.833 315.5,127.5C 304.346,129.327 293.346,131.327 282.5,133.5C 280.712,133.785 279.045,133.452 277.5,132.5C 279.631,131.831 281.631,131.165 283.5,130.5C 294.065,129.469 304.398,127.803 314.5,125.5 Z"/></g>
<g><path style="opacity:1" fill="#000000" d="M 213.5,126.5 C 215.265,127.461 217.265,127.795 219.5,127.5C 219.672,128.492 219.338,129.158 218.5,129.5C 217.054,128.387 215.387,128.22 213.5,129C 214.056,129.383 214.389,129.883 214.5,130.5C 213.391,130.557 212.391,130.89 211.5,131.5C 211.796,129.597 212.463,127.93 213.5,126.5 Z"/></g>
<g><path style="opacity:1" fill="#b7631c" d="M 219.5,127.5 C 220.167,128.167 220.833,128.833 221.5,129.5C 222.167,129.5 222.833,129.5 223.5,129.5C 224.239,129.369 224.906,129.536 225.5,130C 223.357,135.162 219.524,138.329 214,139.5C 213.383,138.551 213.549,137.718 214.5,137C 213.906,136.536 213.239,136.369 212.5,136.5C 211.833,135.833 211.167,135.167 210.5,134.5C 211.167,134.167 211.833,133.833 212.5,133.5C 213.964,134.405 215.298,134.405 216.5,133.5C 218.104,132.713 218.771,131.38 218.5,129.5C 219.338,129.158 219.672,128.492 219.5,127.5 Z"/></g>
<g><path style="opacity:1" fill="#764f39" d="M 315.5,127.5 C 317.379,127.393 317.712,127.893 316.5,129C 303.378,132.335 290.378,134.502 277.5,135.5C 279.291,134.83 280.958,134.163 282.5,133.5C 293.346,131.327 304.346,129.327 315.5,127.5 Z"/></g>
<g><path style="opacity:1" fill="#d3a716" d="M 218.5,129.5 C 217.833,130.167 217.167,130.833 216.5,131.5C 215.508,131.672 214.842,131.338 214.5,130.5C 214.389,129.883 214.056,129.383 213.5,129C 215.387,128.22 217.054,128.387 218.5,129.5 Z"/></g>
<g><path style="opacity:1" fill="#2c33a3" d="M 230.5,130.5 C 228.273,132.607 226.273,134.94 224.5,137.5C 224.103,138.525 223.437,138.692 222.5,138C 225.037,135.094 227.204,131.927 229,128.5C 229.717,129.044 230.217,129.711 230.5,130.5 Z"/></g>
<g><path style="opacity:1" fill="#f9a884" d="M 250.5,131.5 C 250.791,130.351 251.624,129.684 253,129.5C 253.833,129.667 254.667,129.833 255.5,130C 258.231,132.626 260.064,135.793 261,139.5C 261.144,135.768 259.977,132.435 257.5,129.5C 258.776,128.355 260.109,128.355 261.5,129.5C 263.333,132.5 265.167,135.5 267,138.5C 266.582,135.479 265.415,132.645 263.5,130C 264.635,129.251 265.635,129.417 266.5,130.5C 270.573,138.616 271.573,147.116 269.5,156C 267.649,156.837 265.816,157.671 264,158.5C 262.748,156.999 261.748,155.332 261,153.5C 257.368,150.87 254.035,147.87 251,144.5C 249.005,140.683 247.505,136.683 246.5,132.5C 247.325,130.3 248.658,129.966 250.5,131.5 Z"/></g>
<g><path style="opacity:1" fill="#fec90d" d="M 272.5,128.5 C 274.95,128.874 275.95,130.374 275.5,133C 275.359,134.955 274.526,136.455 273,137.5C 271.374,135.083 269.874,132.583 268.5,130C 270.058,129.79 271.391,129.29 272.5,128.5 Z"/></g>
<g><path style="opacity:1" fill="#000000" d="M 218.5,129.5 C 218.771,131.38 218.104,132.713 216.5,133.5C 216.5,132.833 216.5,132.167 216.5,131.5C 217.167,130.833 217.833,130.167 218.5,129.5 Z"/></g>
<g><path style="opacity:1" fill="#fec90d" d="M 214.5,130.5 C 214.842,131.338 215.508,131.672 216.5,131.5C 216.5,132.167 216.5,132.833 216.5,133.5C 215.298,134.405 213.964,134.405 212.5,133.5C 212.167,132.833 211.833,132.167 211.5,131.5C 212.391,130.89 213.391,130.557 214.5,130.5 Z"/></g>
<g><path style="opacity:1" fill="#fefffe" d="M 230.5,130.5 C 230.5,130.833 230.5,131.167 230.5,131.5C 229.559,133.772 228.226,135.772 226.5,137.5C 225.833,137.5 225.167,137.5 224.5,137.5C 226.273,134.94 228.273,132.607 230.5,130.5 Z"/></g>
<g><path style="opacity:1" fill="#000000" d="M 211.5,131.5 C 211.833,132.167 212.167,132.833 212.5,133.5C 211.833,133.833 211.167,134.167 210.5,134.5C 210.263,133.209 210.596,132.209 211.5,131.5 Z"/></g>
<g><path style="opacity:1" fill="#ec1c23" d="M 230.5,131.5 C 231.947,132.622 232.947,134.122 233.5,136C 231.26,136.977 228.927,137.477 226.5,137.5C 228.226,135.772 229.559,133.772 230.5,131.5 Z"/></g>
<g><path style="opacity:1" fill="#000000" d="M 250.5,131.5 C 253.609,133.718 255.109,136.718 255,140.5C 253.489,137.478 251.989,134.478 250.5,131.5 Z"/></g>
<g><path style="opacity:1" fill="#770a0e" d="M 196.5,135.5 C 196.97,134.307 197.97,133.64 199.5,133.5C 201.319,133.342 202.652,134.009 203.5,135.5C 201.26,138.038 198.927,138.038 196.5,135.5 Z"/></g>
<g><path style="opacity:1" fill="#000000" d="M 210.5,134.5 C 211.167,135.167 211.833,135.833 212.5,136.5C 211.5,136.5 210.5,136.5 209.5,136.5C 209.328,135.508 209.662,134.842 210.5,134.5 Z"/></g>
<g><path style="opacity:1" fill="#fec90d" d="M 209.5,136.5 C 210.5,136.5 211.5,136.5 212.5,136.5C 212.5,137.5 212.5,138.5 212.5,139.5C 211.178,139.33 210.011,139.663 209,140.5C 208.536,139.906 208.369,139.239 208.5,138.5C 209.338,138.158 209.672,137.492 209.5,136.5 Z"/></g>
<g><path style="opacity:1" fill="#b87a56" d="M 231.5,140.5 C 231.62,139.414 232.287,138.747 233.5,138.5C 237.013,137.879 240.513,137.213 244,136.5C 245.713,137.954 246.88,139.788 247.5,142C 242.714,143.537 237.881,144.704 233,145.5C 232.802,143.618 232.302,141.952 231.5,140.5 Z"/></g>
<g><path style="opacity:1" fill="#fec90d" d="M 231.5,140.5 C 231.5,142.167 231.5,143.833 231.5,145.5C 230.5,145.5 229.5,145.5 228.5,145.5C 228.737,144.209 228.404,143.209 227.5,142.5C 227.5,141.833 227.167,141.5 226.5,141.5C 227.607,139.153 229.274,138.82 231.5,140.5 Z"/></g>
<g><path style="opacity:1" fill="#b87956" d="M 226.5,141.5 C 227.167,141.5 227.5,141.833 227.5,142.5C 227.64,144.124 226.973,145.29 225.5,146C 211.249,148.789 197.083,151.623 183,154.5C 182.984,150.717 184.817,148.217 188.5,147C 200.156,144.769 211.823,142.602 223.5,140.5C 224.584,140.685 225.584,141.018 226.5,141.5 Z"/></g>
<g><path style="opacity:1" fill="#e41d23" d="M 180.5,144.5 C 179.105,143.185 178.105,143.519 177.5,145.5C 176.508,145.328 175.842,145.662 175.5,146.5C 174.515,144.602 175.182,143.102 177.5,142C 179.403,141.226 181.07,141.56 182.5,143C 181.584,143.278 180.918,143.778 180.5,144.5 Z"/></g>
<g><path style="opacity:1" fill="#b6b6b6" d="M 181.5,147.5 C 178.874,145.994 176.874,146.661 175.5,149.5C 175.082,148.778 174.416,148.278 173.5,148C 174.416,147.722 175.082,147.222 175.5,146.5C 175.842,145.662 176.508,145.328 177.5,145.5C 178.791,145.737 179.791,145.404 180.5,144.5C 182.827,144.335 184.993,143.669 187,142.5C 188.734,143.249 190.567,143.749 192.5,144C 188.55,144.484 184.883,145.651 181.5,147.5 Z"/></g>
<g><path style="opacity:1" fill="#000000" d="M 180.5,144.5 C 179.791,145.404 178.791,145.737 177.5,145.5C 178.105,143.519 179.105,143.185 180.5,144.5 Z"/></g>
<g><path style="opacity:1" fill="#c11f1f" d="M 253.5,150.5 C 254.167,152.5 254.833,154.5 255.5,156.5C 255.5,157.5 255.5,158.5 255.5,159.5C 253.876,159.64 252.71,158.973 252,157.5C 251.517,158.448 251.351,159.448 251.5,160.5C 250.5,160.5 249.5,160.5 248.5,160.5C 248.254,155.609 247.587,150.776 246.5,146C 246.85,144.743 247.517,144.409 248.5,145C 250.373,146.704 252.04,148.537 253.5,150.5 Z"/></g>
<g><path style="opacity:1" fill="#fefffe" d="M 241.5,145.5 C 242.5,145.5 243.5,145.5 244.5,145.5C 245.408,157.209 247.908,168.542 252,179.5C 258.562,185.864 266.396,189.698 275.5,191C 265.175,193.964 256.675,191.131 250,182.5C 248.667,180.5 247.333,178.5 246,176.5C 243.179,166.55 240.679,156.55 238.5,146.5C 239.791,146.737 240.791,146.404 241.5,145.5 Z"/></g>
<g><path style="opacity:1" fill="#c2c3c2" d="M 169.5,149.5 C 166.093,149.875 165.593,148.875 168,146.5C 169.039,147.244 169.539,148.244 169.5,149.5 Z"/></g>
<g><path style="opacity:1" fill="#fefffe" d="M 218.5,185.5 C 219.287,180.304 220.787,175.304 223,170.5C 226.784,163.266 230.284,155.933 233.5,148.5C 234.151,147.909 234.818,147.243 235.5,146.5C 236.288,149.899 237.288,153.233 238.5,156.5C 230.995,165.658 224.328,175.324 218.5,185.5 Z"/></g>
<g><path style="opacity:1" fill="#ec1c23" d="M 272.5,146.5 C 274.603,148.018 274.77,149.685 273,151.5C 272.506,149.866 272.34,148.199 272.5,146.5 Z"/></g>
<g><path style="opacity:1" fill="#f9a884" d="M 162.5,156.5 C 162.567,157.959 162.234,159.292 161.5,160.5C 160.508,160.328 159.842,160.662 159.5,161.5C 158.494,160.021 158.494,158.354 159.5,156.5C 159.147,154.269 158.314,152.269 157,150.5C 156.952,152.544 157.452,154.544 158.5,156.5C 158.216,158.759 157.216,160.426 155.5,161.5C 155.909,157.501 155.075,153.834 153,150.5C 153.916,154.015 154.416,157.682 154.5,161.5C 153.609,162.11 152.609,162.443 151.5,162.5C 151.231,158.526 150.064,154.86 148,151.5C 148.696,155.114 149.53,158.781 150.5,162.5C 148.958,163.301 147.292,163.634 145.5,163.5C 148.211,160.131 147.878,156.964 144.5,154C 143.563,153.308 142.897,153.475 142.5,154.5C 141.833,154.5 141.167,154.5 140.5,154.5C 137.875,153.559 137.875,152.393 140.5,151C 146.567,148.579 152.734,147.746 159,148.5C 160.719,151.025 161.886,153.692 162.5,156.5 Z"/></g>
<g><path style="opacity:1" fill="#7f553e" d="M 181.5,147.5 C 182.067,149.698 182.067,152.031 181.5,154.5C 178.056,155.591 174.556,156.591 171,157.5C 169.93,157.472 169.097,157.139 168.5,156.5C 170.74,155.736 173.073,154.902 175.5,154C 176.413,152.586 176.413,151.086 175.5,149.5C 176.874,146.661 178.874,145.994 181.5,147.5 Z"/></g>
<g><path style="opacity:1" fill="#e01d22" d="M 229.5,148.5 C 228.596,149.209 228.263,150.209 228.5,151.5C 225.382,153.563 222.048,155.396 218.5,157C 217.207,157.49 215.873,157.657 214.5,157.5C 215.29,156.599 216.29,155.932 217.5,155.5C 218.289,155.217 218.956,154.717 219.5,154C 218.418,152.67 217.751,151.17 217.5,149.5C 219.547,149.489 221.547,149.156 223.5,148.5C 224.647,148.818 225.481,149.484 226,150.5C 226.567,148.017 227.733,147.35 229.5,148.5 Z"/></g>
<g><path style="opacity:1" fill="#5c1012" d="M 233.5,148.5 C 230.284,155.933 226.784,163.266 223,170.5C 220.787,175.304 219.287,180.304 218.5,185.5C 218.279,188.097 217.779,188.097 217,185.5C 216.178,188.117 215.678,190.784 215.5,193.5C 214.833,198.833 214.167,204.167 213.5,209.5C 213.167,209.5 212.833,209.5 212.5,209.5C 211.732,210.263 211.232,211.263 211,212.5C 209.878,210.593 209.045,208.593 208.5,206.5C 209.776,193.729 212.776,181.396 217.5,169.5C 218.674,168.486 219.34,167.153 219.5,165.5C 220.728,164.694 221.728,163.694 222.5,162.5C 223.737,161.035 224.737,159.368 225.5,157.5C 225.975,155.216 226.975,153.216 228.5,151.5C 228.263,150.209 228.596,149.209 229.5,148.5C 230.961,147.314 232.295,147.314 233.5,148.5 Z"/></g>
<g><path style="opacity:1" fill="#fec90d" d="M 169.5,149.5 C 171.5,149.5 173.5,149.5 175.5,149.5C 176.413,151.086 176.413,152.586 175.5,154C 173.073,154.902 170.74,155.736 168.5,156.5C 166.5,156.5 164.5,156.5 162.5,156.5C 162.343,155.127 162.51,153.793 163,152.5C 165.166,151.269 167.333,150.269 169.5,149.5 Z"/></g>
<g><path style="opacity:1" fill="#fefffe" d="M 217.5,149.5 C 217.751,151.17 218.418,152.67 219.5,154C 218.956,154.717 218.289,155.217 217.5,155.5C 216.058,154.18 215.392,152.514 215.5,150.5C 216.167,150.167 216.833,149.833 217.5,149.5 Z"/></g>
<g><path style="opacity:1" fill="#000000" d="M 155.5,161.5 C 155.167,161.5 154.833,161.5 154.5,161.5C 154.416,157.682 153.916,154.015 153,150.5C 155.075,153.834 155.909,157.501 155.5,161.5 Z"/></g>
<g><path style="opacity:1" fill="#2c33a3" d="M 215.5,150.5 C 215.392,152.514 216.058,154.18 217.5,155.5C 216.29,155.932 215.29,156.599 214.5,157.5C 213.833,157.167 213.167,156.833 212.5,156.5C 212.5,154.833 212.5,153.167 212.5,151.5C 213.209,150.596 214.209,150.263 215.5,150.5 Z"/></g>
<g><path style="opacity:1" fill="#ec1c23" d="M 253.5,150.5 C 255.392,151.702 257.226,153.035 259,154.5C 259.392,158.552 258.225,159.219 255.5,156.5C 254.833,154.5 254.167,152.5 253.5,150.5 Z"/></g>
<g><path style="opacity:1" fill="#000000" d="M 151.5,162.5 C 151.167,162.5 150.833,162.5 150.5,162.5C 149.53,158.781 148.696,155.114 148,151.5C 150.064,154.86 151.231,158.526 151.5,162.5 Z"/></g>
<g><path style="opacity:1" fill="#ec1c23" d="M 210.5,151.5 C 210.12,153.698 210.787,155.365 212.5,156.5C 213.167,156.833 213.833,157.167 214.5,157.5C 213.903,158.139 213.07,158.472 212,158.5C 209.456,157.929 206.956,157.262 204.5,156.5C 204.44,152.515 206.44,150.848 210.5,151.5 Z"/></g>
<g><path style="opacity:1" fill="#fefffe" d="M 210.5,151.5 C 211.167,151.5 211.833,151.5 212.5,151.5C 212.5,153.167 212.5,154.833 212.5,156.5C 210.787,155.365 210.12,153.698 210.5,151.5 Z"/></g>
<g><path style="opacity:1" fill="#f4f4f4" d="M 228.5,151.5 C 226.975,153.216 225.975,155.216 225.5,157.5C 223.745,158.072 222.078,158.906 220.5,160C 218.714,163.612 216.38,166.779 213.5,169.5C 210.479,165.432 207.479,161.432 204.5,157.5C 204.5,157.167 204.5,156.833 204.5,156.5C 206.956,157.262 209.456,157.929 212,158.5C 213.07,158.472 213.903,158.139 214.5,157.5C 215.873,157.657 217.207,157.49 218.5,157C 222.048,155.396 225.382,153.563 228.5,151.5 Z"/></g>
<g><path style="opacity:1" fill="#ec1c23" d="M 275.5,152.5 C 276.251,151.427 277.251,151.26 278.5,152C 281.658,153.998 284.658,156.165 287.5,158.5C 286.686,160.273 285.352,160.773 283.5,160C 281.598,156.595 278.931,154.095 275.5,152.5 Z"/></g>
<g><path style="opacity:1" fill="#fefffe" d="M 204.5,157.5 C 205.727,163.12 208.394,167.953 212.5,172C 210.994,174.333 209.327,176.5 207.5,178.5C 204.998,174.181 201.998,170.181 198.5,166.5C 199.499,161.842 200.499,157.175 201.5,152.5C 202.935,153.947 203.935,155.614 204.5,157.5 Z"/></g>
<g><path style="opacity:1" fill="#f3f3f3" d="M 275.5,152.5 C 278.931,154.095 281.598,156.595 283.5,160C 285.352,160.773 286.686,160.273 287.5,158.5C 288.338,158.842 288.672,159.508 288.5,160.5C 286.167,161.833 283.833,161.833 281.5,160.5C 280.557,157.891 278.89,155.891 276.5,154.5C 275.833,154.5 275.5,154.167 275.5,153.5C 275.5,153.167 275.5,152.833 275.5,152.5 Z"/></g>
<g><path style="opacity:1" fill="#fefffe" d="M 193.5,153.5 C 195.167,153.5 196.833,153.5 198.5,153.5C 197.218,163.19 195.718,172.857 194,182.5C 193.385,180.884 192.385,179.551 191,178.5C 190.245,169.86 191.079,161.527 193.5,153.5 Z"/></g>
<g><path style="opacity:1" fill="#fec90d" d="M 275.5,153.5 C 275.5,154.167 275.833,154.5 276.5,154.5C 276.167,155.5 275.5,156.167 274.5,156.5C 274.5,155.833 274.167,155.5 273.5,155.5C 273.833,154.5 274.5,153.833 275.5,153.5 Z"/></g>
<g><path style="opacity:1" fill="#ae7352" d="M 140.5,154.5 C 140.167,155.167 139.833,155.833 139.5,156.5C 139.782,157.778 140.449,158.778 141.5,159.5C 132.694,161.47 123.694,163.137 114.5,164.5C 113.893,164.376 113.56,164.043 113.5,163.5C 114.833,162.5 114.833,161.5 113.5,160.5C 113.918,159.778 114.584,159.278 115.5,159C 124.079,158.331 132.412,156.831 140.5,154.5 Z"/></g>
<g><path style="opacity:1" fill="#000000" d="M 140.5,154.5 C 141.167,154.5 141.833,154.5 142.5,154.5C 142.027,155.906 141.027,156.573 139.5,156.5C 139.833,155.833 140.167,155.167 140.5,154.5 Z"/></g>
<g><path style="opacity:1" fill="#fec90d" d="M 142.5,154.5 C 144.054,155.914 145.388,157.581 146.5,159.5C 144.833,160.666 143.166,160.666 141.5,159.5C 140.449,158.778 139.782,157.778 139.5,156.5C 141.027,156.573 142.027,155.906 142.5,154.5 Z"/></g>
<g><path style="opacity:1" fill="#bc1f1f" d="M 186.5,154.5 C 187.5,154.5 188.5,154.5 189.5,154.5C 189.5,158.167 189.5,161.833 189.5,165.5C 187.326,165.08 185.326,165.08 183.5,165.5C 182.808,164.975 182.308,164.308 182,163.5C 181.692,164.308 181.192,164.975 180.5,165.5C 177.976,163.81 175.976,161.643 174.5,159C 178.808,158.054 182.808,156.554 186.5,154.5 Z"/></g>
<g><path style="opacity:1" fill="#f4f4f4" d="M 273.5,155.5 C 274.167,155.5 274.5,155.833 274.5,156.5C 276.167,158.5 277.833,160.5 279.5,162.5C 281.915,165.509 280.915,167.176 276.5,167.5C 277.058,166.21 278.058,165.377 279.5,165C 276.8,162.412 274.467,159.579 272.5,156.5C 272.5,155.833 272.833,155.5 273.5,155.5 Z"/></g>
<g><path style="opacity:1" fill="#33348d" d="M 276.5,154.5 C 278.89,155.891 280.557,157.891 281.5,160.5C 280.167,160.5 279.5,161.167 279.5,162.5C 277.833,160.5 276.167,158.5 274.5,156.5C 275.5,156.167 276.167,155.5 276.5,154.5 Z"/></g>
<g><path style="opacity:1" fill="#ec1c23" d="M 272.5,156.5 C 274.467,159.579 276.8,162.412 279.5,165C 278.058,165.377 277.058,166.21 276.5,167.5C 274.447,167.402 272.78,168.069 271.5,169.5C 266.209,168.876 263.209,165.876 262.5,160.5C 266.259,160.138 269.593,158.805 272.5,156.5 Z"/></g>
<g><path style="opacity:1" fill="#3b43c1" d="M 255.5,179.5 C 257.79,176.923 258.956,173.923 259,170.5C 256.898,172.095 255.398,174.095 254.5,176.5C 253.25,176.423 252.417,175.756 252,174.5C 250.717,170.586 249.884,166.586 249.5,162.5C 253.834,161.923 257.834,160.756 261.5,159C 259.032,160.588 258.866,162.422 261,164.5C 265.667,169.833 270.333,175.167 275,180.5C 276.903,182.441 277.736,184.774 277.5,187.5C 273.649,188.696 270.149,188.03 267,185.5C 262.29,185.559 258.456,183.559 255.5,179.5 Z"/></g>
<g><path style="opacity:1" fill="#3e46c8" d="M 181.5,175.5 C 179.577,172.397 177.41,169.397 175,166.5C 174.333,167.5 174.333,168.5 175,169.5C 176.394,171.388 177.56,173.388 178.5,175.5C 176.379,175.675 174.379,175.341 172.5,174.5C 168.781,163.726 167.781,164.06 169.5,175.5C 164.982,175.258 160.316,175.092 155.5,175C 156.653,170.582 157.986,166.415 159.5,162.5C 160.901,165.799 162.735,166.132 165,163.5C 165.692,162.563 165.525,161.897 164.5,161.5C 166.851,159.797 169.518,159.297 172.5,160C 175.594,166.915 180.927,169.415 188.5,167.5C 188.5,170.5 188.5,173.5 188.5,176.5C 186.05,176.702 183.717,176.369 181.5,175.5 Z"/></g>
<g><path style="opacity:1" fill="#f0efee" d="M 239.5,165.5 C 236.115,167.909 233.949,171.243 233,175.5C 232.501,180.489 232.334,185.489 232.5,190.5C 229.303,188.066 226.303,185.399 223.5,182.5C 227.676,174.143 232.843,166.476 239,159.5C 239.5,161 240,162.5 240.5,164C 240.43,164.765 240.097,165.265 239.5,165.5 Z"/></g>
<g><path style="opacity:1" fill="#fec90d" d="M 113.5,160.5 C 114.833,161.5 114.833,162.5 113.5,163.5C 112.292,164.234 110.959,164.567 109.5,164.5C 109.5,163.167 109.5,161.833 109.5,160.5C 110.833,160.5 112.167,160.5 113.5,160.5 Z"/></g>
<g><path style="opacity:1" fill="#936450" d="M 161.5,160.5 C 162.609,160.557 163.609,160.89 164.5,161.5C 165.525,161.897 165.692,162.563 165,163.5C 162.735,166.132 160.901,165.799 159.5,162.5C 159.5,162.167 159.5,161.833 159.5,161.5C 159.842,160.662 160.508,160.328 161.5,160.5 Z"/></g>
<g><path style="opacity:1" fill="#fefffe" d="M 222.5,162.5 C 221.728,163.694 220.728,164.694 219.5,165.5C 219.795,163.577 220.628,161.91 222,160.5C 222.464,161.094 222.631,161.761 222.5,162.5 Z"/></g>
<g><path style="opacity:1" fill="#fec90d" d="M 281.5,160.5 C 281.5,161.833 280.833,162.5 279.5,162.5C 279.5,161.167 280.167,160.5 281.5,160.5 Z"/></g>
<g><path style="opacity:1" fill="#3e46c7" d="M 281.5,160.5 C 283.833,161.833 286.167,161.833 288.5,160.5C 297.541,166.556 303.541,174.889 306.5,185.5C 305.52,190.665 302.52,192.832 297.5,192C 291.713,189.606 286.046,186.94 280.5,184C 276.833,179.667 273.167,175.333 269.5,171C 270.416,170.722 271.082,170.222 271.5,169.5C 273.553,169.598 275.22,168.931 276.5,167.5C 280.915,167.176 281.915,165.509 279.5,162.5C 280.833,162.5 281.5,161.833 281.5,160.5 Z"/></g>
<g><path style="opacity:1" fill="#a6541b" d="M 154.5,161.5 C 154.833,161.5 155.167,161.5 155.5,161.5C 155.67,162.822 155.337,163.989 154.5,165C 149.267,168.595 144.601,167.928 140.5,163C 142.265,162.36 143.932,162.527 145.5,163.5C 147.292,163.634 148.958,163.301 150.5,162.5C 150.833,162.5 151.167,162.5 151.5,162.5C 152.609,162.443 153.609,162.11 154.5,161.5 Z"/></g>
<g><path style="opacity:1" fill="#ec1c23" d="M 150.5,168.5 C 150.047,169.458 149.381,170.292 148.5,171C 145.833,171.667 143.167,171.667 140.5,171C 138.937,169.264 137.27,167.764 135.5,166.5C 135.5,165.5 135.5,164.5 135.5,163.5C 139.332,165.334 143.165,167.334 147,169.5C 148.138,169.011 149.305,168.678 150.5,168.5 Z"/></g>
<g><path style="opacity:1" fill="#fefffe" d="M 219.5,165.5 C 219.34,167.153 218.674,168.486 217.5,169.5C 217.229,167.62 217.896,166.287 219.5,165.5 Z"/></g>
<g><path style="opacity:1" fill="#ec1c23" d="M 239.5,165.5 C 239.5,166.167 239.5,166.833 239.5,167.5C 236.567,169.691 234.9,172.691 234.5,176.5C 233.532,178.607 233.198,180.941 233.5,183.5C 233.5,184.5 233.5,185.5 233.5,186.5C 233.5,188.167 233.5,189.833 233.5,191.5C 232.833,191.5 232.5,191.167 232.5,190.5C 232.334,185.489 232.501,180.489 233,175.5C 233.949,171.243 236.115,167.909 239.5,165.5 Z"/></g>
<g><path style="opacity:1" fill="#fec90d" d="M 284.5,165.5 C 286.337,165.639 286.67,166.306 285.5,167.5C 284.702,167.043 284.369,166.376 284.5,165.5 Z"/></g>
<g><path style="opacity:1" fill="#fefffe" d="M 135.5,166.5 C 137.27,167.764 138.937,169.264 140.5,171C 143.167,171.667 145.833,171.667 148.5,171C 149.381,170.292 150.047,169.458 150.5,168.5C 151.167,168.5 151.833,168.5 152.5,168.5C 150.932,171.876 148.265,173.209 144.5,172.5C 142.833,172.333 141.167,172.167 139.5,172C 138.154,170.331 136.487,169.164 134.5,168.5C 134.328,167.508 134.662,166.842 135.5,166.5 Z"/></g>
<g><path style="opacity:1" fill="#3f47cc" d="M 134.5,168.5 C 136.487,169.164 138.154,170.331 139.5,172C 141.167,172.167 142.833,172.333 144.5,172.5C 148.265,173.209 150.932,171.876 152.5,168.5C 153.496,168.586 154.329,168.252 155,167.5C 155.731,173.974 152.731,176.974 146,176.5C 140.427,176.145 136.594,173.479 134.5,168.5 Z"/></g>
<g><path style="opacity:1" fill="#25256c" d="M 181.5,175.5 C 180.5,176.833 179.5,176.833 178.5,175.5C 177.56,173.388 176.394,171.388 175,169.5C 174.333,168.5 174.333,167.5 175,166.5C 177.41,169.397 179.577,172.397 181.5,175.5 Z"/></g>
<g><path style="opacity:1" fill="#3b44c3" d="M 239.5,167.5 C 240.75,167.577 241.583,168.244 242,169.5C 244.053,180.089 249.886,187.922 259.5,193C 261.81,193.497 264.143,193.663 266.5,193.5C 268.36,198.415 270.027,203.415 271.5,208.5C 262.503,203.167 253.17,198.667 243.5,195C 240.588,191.581 237.254,188.748 233.5,186.5C 233.5,185.5 233.5,184.5 233.5,183.5C 237.625,186.453 241.625,189.619 245.5,193C 246.759,193.982 248.092,194.315 249.5,194C 244.957,187.635 239.957,181.802 234.5,176.5C 234.9,172.691 236.567,169.691 239.5,167.5 Z"/></g>
<g><path style="opacity:1" fill="#fefffe" d="M 276.5,167.5 C 275.22,168.931 273.553,169.598 271.5,169.5C 272.78,168.069 274.447,167.402 276.5,167.5 Z"/></g>
<g><path style="opacity:1" fill="#242467" d="M 172.5,174.5 C 171.791,175.404 170.791,175.737 169.5,175.5C 167.781,164.06 168.781,163.726 172.5,174.5 Z"/></g>
<g><path style="opacity:1" fill="#d3d3d3" d="M 204.5,184.5 C 202.167,183.5 201.5,184.167 202.5,186.5C 203.706,188.437 203.373,190.104 201.5,191.5C 200.021,185.248 199.021,178.915 198.5,172.5C 198.351,171.448 198.517,170.448 199,169.5C 201.826,172.484 204.159,175.817 206,179.5C 206.599,181.535 206.099,183.201 204.5,184.5 Z"/></g>
<g><path style="opacity:1" fill="#fefffe" d="M 217.5,169.5 C 212.776,181.396 209.776,193.729 208.5,206.5C 207.883,206.611 207.383,206.944 207,207.5C 206.128,203.42 204.961,199.42 203.5,195.5C 206.115,185.596 210.781,176.929 217.5,169.5 Z"/></g>
<g><path style="opacity:1" fill="#272878" d="M 255.5,179.5 C 253.519,178.895 253.185,177.895 254.5,176.5C 255.398,174.095 256.898,172.095 259,170.5C 258.956,173.923 257.79,176.923 255.5,179.5 Z"/></g>
<g><path style="opacity:1" fill="#ec1c23" d="M 198.5,172.5 C 199.021,178.915 200.021,185.248 201.5,191.5C 201.631,192.239 201.464,192.906 201,193.5C 200.209,192.255 199.709,190.922 199.5,189.5C 199.46,186.012 198.793,182.679 197.5,179.5C 197.198,176.941 197.532,174.607 198.5,172.5 Z"/></g>
<g><path style="opacity:1" fill="#fec90d" d="M 199.5,175.5 C 201.337,175.639 201.67,176.306 200.5,177.5C 199.702,177.043 199.369,176.376 199.5,175.5 Z"/></g>
<g><path style="opacity:1" fill="#fec90d" d="M 228.5,176.5 C 230.337,176.639 230.67,177.306 229.5,178.5C 228.702,178.043 228.369,177.376 228.5,176.5 Z"/></g>
<g><path style="opacity:1" fill="#292d88" d="M 234.5,176.5 C 239.957,181.802 244.957,187.635 249.5,194C 248.092,194.315 246.759,193.982 245.5,193C 241.625,189.619 237.625,186.453 233.5,183.5C 233.198,180.941 233.532,178.607 234.5,176.5 Z"/></g>
<g><path style="opacity:1" fill="#3f47cc" d="M 197.5,179.5 C 198.793,182.679 199.46,186.012 199.5,189.5C 195.127,186.795 194.46,183.462 197.5,179.5 Z"/></g>
<g><path style="opacity:1" fill="#fec90d" d="M 204.5,184.5 C 204.167,185.5 203.5,186.167 202.5,186.5C 201.5,184.167 202.167,183.5 204.5,184.5 Z"/></g>
<g><path style="opacity:1" fill="#fefffe" d="M 221.5,184.5 C 235.504,196.664 250.504,207.497 266.5,217C 263.865,218.961 262.031,221.461 261,224.5C 247.554,215.387 234.387,205.887 221.5,196C 220.101,194.938 219.101,193.605 218.5,192C 219.651,189.535 220.651,187.035 221.5,184.5 Z"/></g>
<g><path style="opacity:1" fill="#2e349f" d="M 233.5,186.5 C 237.254,188.748 240.588,191.581 243.5,195C 253.17,198.667 262.503,203.167 271.5,208.5C 271.721,211.097 272.221,211.097 273,208.5C 273.464,209.094 273.631,209.761 273.5,210.5C 273.833,212.5 274.167,214.5 274.5,216.5C 274.875,219.907 273.875,220.407 271.5,218C 258.63,209.403 245.963,200.57 233.5,191.5C 233.5,189.833 233.5,188.167 233.5,186.5 Z"/></g>
<g><path style="opacity:1" fill="#f2f2f2" d="M 215.5,193.5 C 217.949,194.94 219.615,196.94 220.5,199.5C 221.992,206.467 223.325,213.467 224.5,220.5C 222.236,219.781 219.903,219.448 217.5,219.5C 218.895,218.352 218.728,217.352 217,216.5C 216.283,217.044 215.783,217.711 215.5,218.5C 214.883,218.389 214.383,218.056 214,217.5C 213.503,214.854 213.336,212.187 213.5,209.5C 214.167,204.167 214.833,198.833 215.5,193.5 Z"/></g>
<g><path style="opacity:1" fill="#9e4000" d="M 201.5,204.5 C 203.121,204.787 204.121,205.787 204.5,207.5C 203.167,208.833 201.833,208.833 200.5,207.5C 201.127,206.583 201.461,205.583 201.5,204.5 Z"/></g>
<g><path style="opacity:1" fill="#cfcfcf" d="M 235.5,208.5 C 236.547,212.643 237.714,216.643 239,220.5C 234.167,221.808 229.334,221.808 224.5,220.5C 223.325,213.467 221.992,206.467 220.5,199.5C 220.369,198.761 220.536,198.094 221,197.5C 225.594,201.54 230.427,205.206 235.5,208.5 Z"/></g>
<g><path style="opacity:1" fill="#ec1c23" d="M 235.5,208.5 C 236.167,208.5 236.5,208.833 236.5,209.5C 238.666,212.838 239.999,216.505 240.5,220.5C 243.5,220.5 246.5,220.5 249.5,220.5C 249.5,220.833 249.5,221.167 249.5,221.5C 246.287,221.19 243.287,221.523 240.5,222.5C 235.167,222.5 229.833,222.5 224.5,222.5C 223.432,221.566 222.099,221.232 220.5,221.5C 219.5,220.833 218.5,220.167 217.5,219.5C 219.903,219.448 222.236,219.781 224.5,220.5C 229.334,221.808 234.167,221.808 239,220.5C 237.714,216.643 236.547,212.643 235.5,208.5 Z"/></g>
<g><path style="opacity:1" fill="#ec1c23" d="M 212.5,209.5 C 212.833,209.5 213.167,209.5 213.5,209.5C 213.336,212.187 213.503,214.854 214,217.5C 214.383,218.056 214.883,218.389 215.5,218.5C 215.158,219.338 214.492,219.672 213.5,219.5C 212.586,216.272 212.253,212.939 212.5,209.5 Z"/></g>
<g><path style="opacity:1" fill="#3f47cc" d="M 236.5,209.5 C 241.43,212.465 245.763,216.131 249.5,220.5C 246.5,220.5 243.5,220.5 240.5,220.5C 239.999,216.505 238.666,212.838 236.5,209.5 Z"/></g>
<g><path style="opacity:1" fill="#9e4000" d="M 200.5,210.5 C 202.604,210.201 204.604,210.534 206.5,211.5C 208.581,214.524 209.247,217.69 208.5,221C 204.438,222.59 200.605,222.09 197,219.5C 196.333,217.833 196.333,216.167 197,214.5C 198.376,213.295 199.542,211.962 200.5,210.5 Z"/></g>
<g><path style="opacity:1" fill="#fefffe" d="M 273.5,210.5 C 275.674,213.515 277.341,216.849 278.5,220.5C 277.662,220.842 277.328,221.508 277.5,222.5C 276.203,220.629 275.203,218.629 274.5,216.5C 274.167,214.5 273.833,212.5 273.5,210.5 Z"/></g>
<g><path style="opacity:1" fill="#fec90d" d="M 232.5,211.5 C 234.337,211.639 234.67,212.306 233.5,213.5C 232.702,213.043 232.369,212.376 232.5,211.5 Z"/></g>
<g><path style="opacity:1" fill="#fec90d" d="M 217.5,219.5 C 216.833,219.167 216.167,218.833 215.5,218.5C 215.783,217.711 216.283,217.044 217,216.5C 218.728,217.352 218.895,218.352 217.5,219.5 Z"/></g>
<g><path style="opacity:1" fill="#fec90d" d="M 234.5,217.5 C 236.76,218.238 236.927,219.238 235,220.5C 233.272,219.648 233.105,218.648 234.5,217.5 Z"/></g>
<g><path style="opacity:1" fill="#000000" d="M 215.5,218.5 C 216.167,218.833 216.833,219.167 217.5,219.5C 218.5,220.167 219.5,220.833 220.5,221.5C 219.71,222.609 219.21,223.942 219,225.5C 218.592,222.073 216.759,220.073 213.5,219.5C 214.492,219.672 215.158,219.338 215.5,218.5 Z"/></g>
<g><path style="opacity:1" fill="#fec90d" d="M 269.5,220.5 C 267.997,224.341 266.664,228.341 265.5,232.5C 262.888,228.103 263.221,223.937 266.5,220C 267.749,219.26 268.749,219.427 269.5,220.5 Z"/></g>
<g><path style="opacity:1" fill="#57430c" d="M 269.5,220.5 C 272.367,220.369 274.033,221.703 274.5,224.5C 272.105,227.861 269.105,230.528 265.5,232.5C 266.664,228.341 267.997,224.341 269.5,220.5 Z"/></g>
<g><path style="opacity:1" fill="#000000" d="M 240.5,222.5 C 243.287,221.523 246.287,221.19 249.5,221.5C 248.081,222.451 246.415,222.784 244.5,222.5C 244.285,224.179 244.952,225.179 246.5,225.5C 245.766,226.708 245.433,228.041 245.5,229.5C 244.076,227.485 243.41,225.152 243.5,222.5C 242.5,222.5 241.5,222.5 240.5,222.5 Z"/></g>
<g><path style="opacity:1" fill="#fefffe" d="M 249.5,221.5 C 252.226,221.264 254.559,222.097 256.5,224C 255.552,224.483 254.552,224.649 253.5,224.5C 251.047,223.355 248.713,223.688 246.5,225.5C 244.952,225.179 244.285,224.179 244.5,222.5C 246.415,222.784 248.081,222.451 249.5,221.5 Z"/></g>
<g><path style="opacity:1" fill="#870014" d="M 208.5,222.5 C 209.675,222.281 210.675,222.614 211.5,223.5C 207.452,226.995 203.119,227.329 198.5,224.5C 200.44,223.472 202.44,223.472 204.5,224.5C 206.171,224.332 207.504,223.665 208.5,222.5 Z"/></g>
<g><path style="opacity:1" fill="#000000" d="M 224.5,222.5 C 229.833,222.5 235.167,222.5 240.5,222.5C 239.852,224.086 239.352,225.753 239,227.5C 238.51,226.207 238.343,224.873 238.5,223.5C 235.5,223.5 232.5,223.5 229.5,223.5C 229.5,225.167 229.5,226.833 229.5,228.5C 228.466,227.313 227.133,226.48 225.5,226C 226.624,225.751 227.624,225.251 228.5,224.5C 227.051,223.828 225.718,223.161 224.5,222.5 Z"/></g>
<g><path style="opacity:1" fill="#e8e8e8" d="M 240.5,222.5 C 241.5,222.5 242.5,222.5 243.5,222.5C 243.41,225.152 244.076,227.485 245.5,229.5C 246.338,229.842 246.672,230.508 246.5,231.5C 246.443,232.609 246.11,233.609 245.5,234.5C 244.833,234.167 244.167,233.833 243.5,233.5C 243.631,232.761 243.464,232.094 243,231.5C 239.943,232.451 236.777,232.784 233.5,232.5C 232.069,232.881 231.236,233.881 231,235.5C 230.517,234.552 230.351,233.552 230.5,232.5C 230.768,230.901 230.434,229.568 229.5,228.5C 229.5,226.833 229.5,225.167 229.5,223.5C 232.5,223.5 235.5,223.5 238.5,223.5C 238.343,224.873 238.51,226.207 239,227.5C 239.352,225.753 239.852,224.086 240.5,222.5 Z"/></g>
<g><path style="opacity:1" fill="#000000" d="M 282.5,223.5 C 282.5,224.833 281.833,225.5 280.5,225.5C 280.833,224.5 281.5,223.833 282.5,223.5 Z"/></g>
<g><path style="opacity:1" fill="#fefffe" d="M 282.5,223.5 C 283.492,223.328 284.158,223.662 284.5,224.5C 283.326,225.514 282.66,226.847 282.5,228.5C 281.778,228.918 281.278,229.584 281,230.5C 279.212,228.977 279.045,227.31 280.5,225.5C 281.833,225.5 282.5,224.833 282.5,223.5 Z"/></g>
<g><path style="opacity:1" fill="#f0f0f0" d="M 213.5,219.5 C 216.759,220.073 218.592,222.073 219,225.5C 219.21,223.942 219.71,222.609 220.5,221.5C 222.099,221.232 223.432,221.566 224.5,222.5C 225.718,223.161 227.051,223.828 228.5,224.5C 227.624,225.251 226.624,225.751 225.5,226C 227.133,226.48 228.466,227.313 229.5,228.5C 229.5,229.5 229.5,230.5 229.5,231.5C 224.5,232.003 224.833,232.336 230.5,232.5C 230.351,233.552 230.517,234.552 231,235.5C 231.236,233.881 232.069,232.881 233.5,232.5C 236.625,233.479 239.958,233.813 243.5,233.5C 243.711,235.424 244.377,235.757 245.5,234.5C 247.552,233.947 247.885,232.947 246.5,231.5C 246.672,230.508 246.338,229.842 245.5,229.5C 245.433,228.041 245.766,226.708 246.5,225.5C 248.713,223.688 251.047,223.355 253.5,224.5C 255.292,225.309 257.292,225.809 259.5,226C 260.634,227.016 260.301,227.683 258.5,228C 259.784,228.684 260.951,228.517 262,227.5C 262.456,228.744 261.956,229.577 260.5,230C 261.973,230.71 262.64,231.876 262.5,233.5C 259.813,233.336 257.146,233.503 254.5,234C 257.587,234.259 260.587,234.759 263.5,235.5C 263.833,236.5 264.5,237.167 265.5,237.5C 265.131,239.993 265.797,240.66 267.5,239.5C 268.167,239.5 268.5,239.833 268.5,240.5C 269.987,251.686 266.82,261.02 259,268.5C 258.099,271.071 256.766,273.404 255,275.5C 246.228,285.278 236.561,293.945 226,301.5C 225.28,303.112 225.446,304.612 226.5,306C 225.584,306.278 224.918,306.778 224.5,307.5C 222.78,305.342 221.947,302.675 222,299.5C 221.503,302.146 221.336,304.813 221.5,307.5C 215.697,307.791 210.03,307.125 204.5,305.5C 203.791,304.596 202.791,304.263 201.5,304.5C 200.854,299.154 201.688,294.154 204,289.5C 213.7,275.46 224.533,262.294 236.5,250C 239.328,247.752 242.328,245.752 245.5,244C 246.337,242.989 246.67,241.822 246.5,240.5C 236.806,244.344 228.973,250.677 223,259.5C 221.017,250.972 219.85,242.305 219.5,233.5C 218.5,233.5 217.5,233.5 216.5,233.5C 215.942,228.937 214.609,224.604 212.5,220.5C 212.624,219.893 212.957,219.56 213.5,219.5 Z"/></g>
<g><path style="opacity:1" fill="#9e4000" d="M 209.5,226.5 C 216.508,232.126 215.841,236.459 207.5,239.5C 201.569,237.618 198.569,233.618 198.5,227.5C 200.884,227.443 203.218,227.777 205.5,228.5C 207.171,228.332 208.504,227.665 209.5,226.5 Z"/></g>
<g><path style="opacity:1" fill="#dd1d22" d="M 282.5,223.5 C 281.5,223.833 280.833,224.5 280.5,225.5C 278.2,224.466 277.534,225.133 278.5,227.5C 276.418,229.422 275.084,231.755 274.5,234.5C 273.167,236.5 273.167,238.5 274.5,240.5C 275.512,241.872 276.512,243.205 277.5,244.5C 276.415,246.587 274.749,247.92 272.5,248.5C 271.172,245.768 269.839,243.101 268.5,240.5C 268.5,239.833 268.167,239.5 267.5,239.5C 267.5,238.167 266.833,237.5 265.5,237.5C 264.5,237.167 263.833,236.5 263.5,235.5C 264.167,234.5 264.833,233.5 265.5,232.5C 269.105,230.528 272.105,227.861 274.5,224.5C 276.179,224.715 277.179,224.048 277.5,222.5C 277.328,221.508 277.662,220.842 278.5,220.5C 281.4,219.046 282.733,220.046 282.5,223.5 Z"/></g>
<g><path style="opacity:1" fill="#000000" d="M 229.5,228.5 C 230.434,229.568 230.768,230.901 230.5,232.5C 224.833,232.336 224.5,232.003 229.5,231.5C 229.5,230.5 229.5,229.5 229.5,228.5 Z"/></g>
<g><path style="opacity:1" fill="#34290d" d="M 280.5,225.5 C 279.045,227.31 279.212,228.977 281,230.5C 281.278,229.584 281.778,228.918 282.5,228.5C 283.507,230.899 282.841,232.899 280.5,234.5C 280.631,233.761 280.464,233.094 280,232.5C 278.416,233.861 276.582,234.528 274.5,234.5C 275.084,231.755 276.418,229.422 278.5,227.5C 277.534,225.133 278.2,224.466 280.5,225.5 Z"/></g>
<g><path style="opacity:1" fill="#000000" d="M 243.5,233.5 C 239.958,233.813 236.625,233.479 233.5,232.5C 236.777,232.784 239.943,232.451 243,231.5C 243.464,232.094 243.631,232.761 243.5,233.5 Z"/></g>
<g><path style="opacity:1" fill="#000000" d="M 246.5,231.5 C 247.885,232.947 247.552,233.947 245.5,234.5C 246.11,233.609 246.443,232.609 246.5,231.5 Z"/></g>
<g><path style="opacity:1" fill="#dcdcdc" d="M 284.5,224.5 C 286.774,226.145 286.774,227.645 284.5,229C 286.327,229.899 287.66,231.233 288.5,233C 286.808,235.935 286.142,239.102 286.5,242.5C 285.5,243.5 284.5,244.5 283.5,245.5C 281.379,245.675 279.379,245.341 277.5,244.5C 276.512,243.205 275.512,241.872 274.5,240.5C 274.833,239.833 275.167,239.167 275.5,238.5C 277.349,237.407 279.016,236.074 280.5,234.5C 282.841,232.899 283.507,230.899 282.5,228.5C 282.66,226.847 283.326,225.514 284.5,224.5 Z"/></g>
<g><path style="opacity:1" fill="#fec90d" d="M 280.5,234.5 C 279.016,236.074 277.349,237.407 275.5,238.5C 274.566,237.432 274.232,236.099 274.5,234.5C 276.582,234.528 278.416,233.861 280,232.5C 280.464,233.094 280.631,233.761 280.5,234.5 Z"/></g>
<g><path style="opacity:1" fill="#000000" d="M 243.5,233.5 C 244.167,233.833 244.833,234.167 245.5,234.5C 244.377,235.757 243.711,235.424 243.5,233.5 Z"/></g>
<g><path style="opacity:1" fill="#000000" d="M 274.5,234.5 C 274.232,236.099 274.566,237.432 275.5,238.5C 275.167,239.167 274.833,239.833 274.5,240.5C 273.167,238.5 273.167,236.5 274.5,234.5 Z"/></g>
<g><path style="opacity:1" fill="#000000" d="M 282.5,234.5 C 284.807,235.405 284.807,236.738 282.5,238.5C 281.708,237.3 281.708,235.967 282.5,234.5 Z"/></g>
<g><path style="opacity:1" fill="#000000" d="M 265.5,237.5 C 266.833,237.5 267.5,238.167 267.5,239.5C 265.797,240.66 265.131,239.993 265.5,237.5 Z"/></g>
<g><path style="opacity:1" fill="#000000" d="M 233.5,241.5 C 235.085,242.002 235.585,243.002 235,244.5C 233.961,243.756 233.461,242.756 233.5,241.5 Z"/></g>
<g><path style="opacity:1" fill="#1d1d1d" d="M 283.5,245.5 C 284.5,244.5 285.5,243.5 286.5,242.5C 287.117,242.389 287.617,242.056 288,241.5C 289.413,244.661 291.08,247.661 293,250.5C 301.371,259.203 309.371,268.203 317,277.5C 317.798,279.259 317.631,280.926 316.5,282.5C 311.22,278.722 306.386,274.389 302,269.5C 297.043,262.874 291.709,256.54 286,250.5C 284.906,248.922 284.072,247.255 283.5,245.5 Z"/></g>
<g><path style="opacity:1" fill="#ec1c23" d="M 272.5,248.5 C 272.768,250.099 272.434,251.432 271.5,252.5C 270.194,251.533 269.527,250.199 269.5,248.5C 270.5,248.5 271.5,248.5 272.5,248.5 Z"/></g>
<g><path style="opacity:1" fill="#ec1c23" d="M 271.5,252.5 C 272.624,254.792 273.957,256.958 275.5,259C 274.396,260.82 272.896,262.32 271,263.5C 269.912,261.712 269.412,259.712 269.5,257.5C 269.556,255.36 270.223,253.694 271.5,252.5 Z"/></g>
<g><path style="opacity:1" fill="#f0f0f0" d="M 268.5,300.5 C 267.167,301.5 265.833,302.5 264.5,303.5C 261.179,304.495 257.846,305.495 254.5,306.5C 253.818,305.757 253.151,305.091 252.5,304.5C 249.145,299.431 247.479,293.765 247.5,287.5C 250.06,283.43 253.227,279.764 257,276.5C 258.793,282.041 260.126,287.708 261,293.5C 263.423,296.096 265.923,298.429 268.5,300.5 Z"/></g>
<g><path style="opacity:1" fill="#fec90d" d="M 318.5,278.5 C 320.839,280.507 323.172,282.507 325.5,284.5C 319.907,286.521 317.573,284.521 318.5,278.5 Z"/></g>
<g><path style="opacity:1" fill="#fefffe" d="M 247.5,287.5 C 247.479,293.765 249.145,299.431 252.5,304.5C 252.631,305.376 252.298,306.043 251.5,306.5C 248.839,307.332 246.172,308.166 243.5,309C 247.152,309.499 250.818,309.665 254.5,309.5C 254.586,310.496 254.252,311.329 253.5,312C 249.944,313.608 246.611,315.441 243.5,317.5C 241.576,318.96 239.909,318.626 238.5,316.5C 236.727,310.901 234.727,305.401 232.5,300C 237.393,295.599 242.393,291.432 247.5,287.5 Z"/></g>
<g><path style="opacity:1" fill="#1d1d1d" d="M 243.5,317.5 C 246.611,315.441 249.944,313.608 253.5,312C 254.252,311.329 254.586,310.496 254.5,309.5C 258.809,309.661 262.142,307.661 264.5,303.5C 265.833,302.5 267.167,301.5 268.5,300.5C 269.117,300.389 269.617,300.056 270,299.5C 285.078,310.123 301.244,318.79 318.5,325.5C 321.719,328.928 322.885,332.928 322,337.5C 318.149,341.69 314.649,346.19 311.5,351C 306.302,353.344 300.969,354.177 295.5,353.5C 298.167,349.5 298.167,345.5 295.5,341.5C 287.532,336.178 279.198,331.344 270.5,327C 261.248,324.082 251.915,321.415 242.5,319C 243.056,318.617 243.389,318.117 243.5,317.5 Z"/></g>
<g><path style="opacity:1" fill="#c2c2c2" d="M 264.5,303.5 C 262.142,307.661 258.809,309.661 254.5,309.5C 250.818,309.665 247.152,309.499 243.5,309C 246.172,308.166 248.839,307.332 251.5,306.5C 252.298,306.043 252.631,305.376 252.5,304.5C 253.151,305.091 253.818,305.757 254.5,306.5C 257.846,305.495 261.179,304.495 264.5,303.5 Z"/></g>
<g><path style="opacity:1" fill="#1d1d1d" d="M 224.5,307.5 C 226.335,308.122 227.502,309.456 228,311.5C 228.759,314.626 229.259,317.793 229.5,321C 228.178,334.166 228.178,347.332 229.5,360.5C 229.149,363.089 228.482,365.589 227.5,368C 228.479,371.804 228.645,375.638 228,379.5C 227.25,380.126 226.416,380.626 225.5,381C 216.409,381.708 207.409,381.041 198.5,379C 197.572,378.612 196.905,377.945 196.5,377C 198.968,374.858 201.135,372.358 203,369.5C 205.222,363.335 206.722,357.001 207.5,350.5C 204.985,337.321 203.318,323.988 202.5,310.5C 202.556,308.36 203.223,306.694 204.5,305.5C 210.03,307.125 215.697,307.791 221.5,307.5C 221.336,304.813 221.503,302.146 222,299.5C 221.947,302.675 222.78,305.342 224.5,307.5 Z"/></g>
<g><path style="opacity:1" fill="#fec90d" d="M 220.5,310.5 C 222.76,311.238 222.927,312.238 221,313.5C 219.272,312.648 219.105,311.648 220.5,310.5 Z"/></g>
<g><path style="opacity:1" fill="#fec90d" d="M 221.5,315.5 C 223.76,316.238 223.927,317.238 222,318.5C 220.272,317.648 220.105,316.648 221.5,315.5 Z"/></g>
<g><path style="opacity:1" fill="#fec90d" d="M 222.5,320.5 C 224.76,321.238 224.927,322.238 223,323.5C 221.272,322.648 221.105,321.648 222.5,320.5 Z"/></g>
<g><path style="opacity:1" fill="#fec90d" d="M 223.5,326.5 C 225.76,327.238 225.927,328.238 224,329.5C 222.272,328.648 222.105,327.648 223.5,326.5 Z"/></g>
<g><path style="opacity:1" fill="#fec90d" d="M 223.5,333.5 C 225.76,334.238 225.927,335.238 224,336.5C 222.272,335.648 222.105,334.648 223.5,333.5 Z"/></g>
<g><path style="opacity:1" fill="#fec90d" d="M 223.5,339.5 C 225.76,340.238 225.927,341.238 224,342.5C 222.272,341.648 222.105,340.648 223.5,339.5 Z"/></g>
<g><path style="opacity:1" fill="#fec90d" d="M 223.5,345.5 C 225.76,346.238 225.927,347.238 224,348.5C 222.272,347.648 222.105,346.648 223.5,345.5 Z"/></g>
<g><path style="opacity:1" fill="#fec90d" d="M 223.5,350.5 C 225.76,351.238 225.927,352.238 224,353.5C 222.272,352.648 222.105,351.648 223.5,350.5 Z"/></g>
<g><path style="opacity:1" fill="#fec90d" d="M 222.5,357.5 C 224.76,358.238 224.927,359.238 223,360.5C 221.272,359.648 221.105,358.648 222.5,357.5 Z"/></g>
<g><path style="opacity:1" fill="#fec90d" d="M 222.5,363.5 C 224.76,364.238 224.927,365.238 223,366.5C 221.272,365.648 221.105,364.648 222.5,363.5 Z"/></g>
<g><path style="opacity:1" fill="#fec90d" d="M 223.5,369.5 C 225.76,370.238 225.927,371.238 224,372.5C 222.272,371.648 222.105,370.648 223.5,369.5 Z"/></g>
</svg>
