<?xml version="1.0" encoding="UTF-8"?>
<!DOCTYPE svg PUBLIC "-//W3C//DTD SVG 1.1//EN" "http://www.w3.org/Graphics/SVG/1.1/DTD/svg11.dtd">
<svg xmlns="http://www.w3.org/2000/svg" version="1.1" width="598px" height="783px" style="shape-rendering:geometricPrecision; text-rendering:geometricPrecision; image-rendering:optimizeQuality; fill-rule:evenodd; clip-rule:evenodd" xmlns:xlink="http://www.w3.org/1999/xlink">
<g><path style="opacity:1" fill="#fefffe" d="M 293.5,228.5 C 305.912,228.178 318.245,229.012 330.5,231C 340.789,234.653 351.122,238.32 361.5,242C 366.917,244.79 372.084,247.957 377,251.5C 377.667,257.833 377.667,264.167 377,270.5C 374.938,272.901 373.271,275.567 372,278.5C 371.773,284.704 371.273,290.871 370.5,297C 371.604,298.82 373.104,300.32 375,301.5C 375.249,304.177 376.249,306.51 378,308.5C 378.667,312.833 378.667,317.167 378,321.5C 376.075,322.88 374.241,324.38 372.5,326C 364.829,326.612 357.162,327.278 349.5,328C 348.383,331.073 348.216,334.24 349,337.5C 352.734,338.679 355.901,340.679 358.5,343.5C 362.459,344.327 366.459,344.827 370.5,345C 374.633,345.801 376.466,348.301 376,352.5C 381.372,356.911 384.372,362.577 385,369.5C 387.575,372.319 389.908,375.319 392,378.5C 407.494,388.652 421.827,400.319 435,413.5C 442.788,449.126 446.288,485.126 445.5,521.5C 462.989,527.496 480.656,532.996 498.5,538C 500.833,538.667 503.167,538.667 505.5,538C 507.221,536.473 509.221,535.473 511.5,535C 518.5,534.333 525.5,534.333 532.5,535C 546.873,540.347 561.54,544.68 576.5,548C 582.23,551.062 587.397,554.896 592,559.5C 592.667,566.5 592.667,573.5 592,580.5C 590.392,590.587 584.892,597.42 575.5,601C 568.833,601.667 562.167,601.667 555.5,601C 541.137,596.825 526.804,592.492 512.5,588C 505.156,585.268 499.323,580.768 495,574.5C 491.957,571.823 488.79,569.323 485.5,567C 472,562.5 458.5,558 445,553.5C 435.64,555.958 427.14,554.458 419.5,549C 415.167,548.667 410.833,548.333 406.5,548C 405.663,546.989 405.33,545.822 405.5,544.5C 404.022,544.762 402.689,544.429 401.5,543.5C 400.289,541.578 398.956,539.745 397.5,538C 382.857,532.895 368.191,528.229 353.5,524C 359.81,536.12 365.977,548.287 372,560.5C 376.235,575.113 381.235,589.446 387,603.5C 387.415,630.558 386.415,657.558 384,684.5C 382.797,690.314 381.13,695.981 379,701.5C 378.333,706.833 378.333,712.167 379,717.5C 383.748,716.365 388.581,716.198 393.5,717C 400.668,719.158 403.335,723.992 401.5,731.5C 401.769,736.709 400.936,741.709 399,746.5C 392.59,749.62 386.423,753.12 380.5,757C 367.034,760.451 353.367,761.784 339.5,761C 336.804,760.31 334.637,758.81 333,756.5C 330.734,743.861 331.234,731.361 334.5,719C 333.501,709.847 333.334,700.68 334,691.5C 335.615,689.989 335.615,688.656 334,687.5C 334.033,679.675 333.033,672.009 331,664.5C 330.333,652.833 330.333,641.167 331,629.5C 332.697,625.41 334.197,621.243 335.5,617C 331.907,610.487 327.574,604.487 322.5,599C 315.393,598.894 308.393,598.061 301.5,596.5C 296.186,597.178 290.852,597.678 285.5,598C 295.703,616.911 306.536,635.411 318,653.5C 318.499,659.157 318.666,664.824 318.5,670.5C 312.824,670.666 307.157,670.499 301.5,670C 294.294,662.463 287.46,654.629 281,646.5C 272,630.833 263,615.167 254,599.5C 253.311,598.643 252.478,597.977 251.5,597.5C 250.081,599.336 248.914,601.336 248,603.5C 247.166,615.516 246.166,627.516 245,639.5C 243.465,643.773 242.131,648.106 241,652.5C 240.992,660.639 239.992,668.639 238,676.5C 239.722,692.724 240.389,709.058 240,725.5C 237.745,730.437 234.912,735.103 231.5,739.5C 223.521,740.665 215.521,740.832 207.5,740C 203.473,739.573 200.973,737.406 200,733.5C 192.873,730.024 188.206,724.357 186,716.5C 185.333,709.833 185.333,703.167 186,696.5C 187.802,691.532 191.302,688.532 196.5,687.5C 198.896,681.147 198.729,674.814 196,668.5C 195.667,661.5 195.333,654.5 195,647.5C 192.508,639.371 191.842,631.038 193,622.5C 193.248,617.437 193.915,612.437 195,607.5C 197.864,599.908 200.531,592.242 203,584.5C 203.208,578.449 203.708,572.449 204.5,566.5C 199.432,565.545 194.432,564.379 189.5,563C 186.033,561.308 184.7,558.475 185.5,554.5C 185.886,548.716 187.719,543.383 191,538.5C 198.825,532.007 206.325,525.174 213.5,518C 211.91,516.954 210.41,515.787 209,514.5C 204.545,502.848 203.378,490.848 205.5,478.5C 186.146,471.785 166.646,465.452 147,459.5C 144.943,461.544 142.443,462.71 139.5,463C 134.833,463.667 130.167,463.667 125.5,463C 119.005,460.335 112.338,458.168 105.5,456.5C 103.301,454.617 101.801,452.284 101,449.5C 100.333,442.167 100.333,434.833 101,427.5C 106.438,414.806 115.938,410.639 129.5,415C 136.382,417.107 143.049,419.774 149.5,423C 152.011,425.326 153.344,428.159 153.5,431.5C 156.825,431.494 159.159,432.994 160.5,436C 172.77,439.814 185.104,443.314 197.5,446.5C 197.389,431.947 200.889,418.28 208,405.5C 217.407,395.032 225.073,383.365 231,370.5C 232.667,368.833 234.333,367.167 236,365.5C 235.486,358.206 235.486,350.872 236,343.5C 237.774,337.447 240.941,332.28 245.5,328C 248.146,327.503 250.813,327.336 253.5,327.5C 252.994,323.014 254.328,319.181 257.5,316C 263.5,315.333 269.5,315.333 275.5,316C 276.931,316.465 278.097,317.299 279,318.5C 279.333,320.833 279.667,323.167 280,325.5C 280.306,323.094 281.139,320.927 282.5,319C 281.761,314.873 281.261,310.706 281,306.5C 279.172,304.919 277.172,303.585 275,302.5C 274.333,297.833 274.333,293.167 275,288.5C 276.708,286.457 278.708,284.79 281,283.5C 281.333,277.5 281.667,271.5 282,265.5C 283.752,262.328 285.752,259.328 288,256.5C 288.333,248.167 288.667,239.833 289,231.5C 290.652,230.601 292.152,229.601 293.5,228.5 Z M 359.5,422.5 C 365.457,424.146 370.457,427.313 374.5,432C 380.002,435.585 385.669,438.919 391.5,442C 392.701,442.903 393.535,444.069 394,445.5C 396.211,456.913 398.711,468.246 401.5,479.5C 399.827,488.385 398.66,497.385 398,506.5C 397.586,506.957 397.086,507.291 396.5,507.5C 379.342,502.058 362.175,496.725 345,491.5C 345.167,481.501 345.833,471.501 347,461.5C 351.039,453.401 354.706,445.068 358,436.5C 358.829,431.863 359.329,427.196 359.5,422.5 Z"/></g>
<g><path style="opacity:1" fill="#000000" d="M 296.5,231.5 C 306.903,231.425 317.236,232.259 327.5,234C 337.789,237.653 348.122,241.32 358.5,245C 363.917,247.79 369.084,250.957 374,254.5C 374.667,258.833 374.667,263.167 374,267.5C 371.938,269.901 370.271,272.567 369,275.5C 368.832,283.374 367.999,291.208 366.5,299C 367.744,301.382 369.577,303.215 372,304.5C 372.249,307.177 373.249,309.51 375,311.5C 375.667,313.833 375.667,316.167 375,318.5C 373.075,319.88 371.241,321.38 369.5,323C 361.829,323.612 354.162,324.278 346.5,325C 345.833,325.667 345.167,326.333 344.5,327C 346.048,331.349 345.715,335.516 343.5,339.5C 348.013,341.1 352.013,343.433 355.5,346.5C 359.459,347.327 363.459,347.827 367.5,348C 371.633,348.801 373.466,351.301 373,355.5C 378.372,359.911 381.372,365.577 382,372.5C 384.575,375.319 386.908,378.319 389,381.5C 404.494,391.652 418.827,403.319 432,416.5C 439.866,452.427 443.366,488.76 442.5,525.5C 460.178,530.559 477.845,535.725 495.5,541C 502.285,542.331 508.618,541.331 514.5,538C 519.5,537.333 524.5,537.333 529.5,538C 543.873,543.347 558.54,547.68 573.5,551C 579.23,554.062 584.397,557.896 589,562.5C 590.948,573.032 588.948,582.699 583,591.5C 576.114,598.092 567.948,600.259 558.5,598C 544.137,593.825 529.804,589.492 515.5,585C 508.156,582.268 502.323,577.768 498,571.5C 494.957,568.823 491.79,566.323 488.5,564C 473.242,559.025 458.076,553.859 443,548.5C 439.743,551.428 435.909,552.262 431.5,551C 428.388,549.479 425.388,547.813 422.5,546C 418.167,545.667 413.833,545.333 409.5,545C 408.663,543.989 408.33,542.822 408.5,541.5C 407.022,541.762 405.689,541.429 404.5,540.5C 403.289,538.578 401.956,536.745 400.5,535C 382.574,528.858 364.574,523.025 346.5,517.5C 353.711,532.923 361.211,548.257 369,563.5C 373.235,578.113 378.235,592.446 384,606.5C 384.315,631.555 383.315,656.555 381,681.5C 379.822,686.543 378.489,691.543 377,696.5C 376.355,697.646 375.522,698.646 374.5,699.5C 375.464,706.442 375.797,713.442 375.5,720.5C 396.864,716.024 403.531,723.857 395.5,744C 388.48,747.7 381.48,751.367 374.5,755C 365.976,756.075 357.476,757.242 349,758.5C 337.619,758.61 332.785,752.943 334.5,741.5C 336.517,732.092 337.85,722.592 338.5,713C 335.631,704.9 335.964,696.9 339.5,689C 339.054,687.274 338.221,685.774 337,684.5C 335.618,672.021 334.452,659.521 333.5,647C 333.667,642.167 333.833,637.333 334,632.5C 336.131,627.273 337.965,621.94 339.5,616.5C 338.53,613.226 337.03,610.226 335,607.5C 330.667,601.833 326.333,596.167 322,590.5C 321.506,592.134 321.34,593.801 321.5,595.5C 313.695,595.565 306.028,594.565 298.5,592.5C 296.087,593.949 293.42,594.616 290.5,594.5C 286.021,593.939 281.687,593.105 277.5,592C 286.301,606.432 294.468,621.265 302,636.5C 306.333,643.167 310.667,649.833 315,656.5C 315.499,660.152 315.665,663.818 315.5,667.5C 311.818,667.665 308.152,667.499 304.5,667C 298.634,661.469 293.134,655.635 288,649.5C 277.414,631.998 267.081,614.331 257,596.5C 255.341,595.183 254.174,593.517 253.5,591.5C 252.635,590.417 251.635,590.251 250.5,591C 248.288,593.921 246.455,597.088 245,600.5C 244.166,612.516 243.166,624.516 242,636.5C 238.23,645.791 236.564,655.457 237,665.5C 235.831,670.177 234.664,674.844 233.5,679.5C 234.781,684.48 234.781,689.48 233.5,694.5C 240.296,709.793 238.629,723.793 228.5,736.5C 222.528,737.664 216.528,737.83 210.5,737C 208.754,736.529 207.087,735.862 205.5,735C 204.066,730.566 201.066,727.899 196.5,727C 189.329,719.149 186.829,709.982 189,699.5C 190.802,694.532 194.302,691.532 199.5,690.5C 200.089,687.145 201.089,683.978 202.5,681C 199.169,669.082 197.669,656.916 198,644.5C 196.087,640.741 195.253,636.741 195.5,632.5C 196.006,615.645 200.006,599.645 207.5,584.5C 206.195,577.116 206.529,569.783 208.5,562.5C 201.355,563.011 194.855,561.344 189,557.5C 188.88,551.708 190.547,546.374 194,541.5C 201.881,534.742 209.548,527.742 217,520.5C 217.667,518.833 217.667,517.167 217,515.5C 215.333,514.167 213.667,512.833 212,511.5C 207.899,502.248 206.565,492.581 208,482.5C 209.833,480.667 211.667,478.833 213.5,477C 192.968,469.934 172.301,463.267 151.5,457C 148.5,456.333 145.5,456.333 142.5,457C 138.364,460.107 133.697,461.107 128.5,460C 122.372,457.402 116.039,455.402 109.5,454C 106.705,452.226 104.872,449.726 104,446.5C 100.81,434.808 103.977,425.308 113.5,418C 126.175,416.877 137.675,420.044 148,427.5C 149.903,429.441 150.736,431.774 150.5,434.5C 153.825,434.494 156.159,435.994 157.5,439C 173.512,443.999 189.512,448.666 205.5,453C 201.756,449.676 200.089,445.509 200.5,440.5C 201.891,429.161 205.391,418.494 211,408.5C 220.407,398.032 228.073,386.365 234,373.5C 236.5,371 239,368.5 241.5,366C 235.746,352.71 238.079,341.043 248.5,331C 251.146,330.503 253.813,330.336 256.5,330.5C 255.994,326.014 257.328,322.181 260.5,319C 265.287,318.121 269.953,318.455 274.5,320C 275,320.5 275.5,321 276,321.5C 276.333,324.833 276.667,328.167 277,331.5C 278.699,332.406 280.533,332.739 282.5,332.5C 282.4,328.358 283.734,324.858 286.5,322C 285.128,315.914 284.295,309.747 284,303.5C 282.172,301.919 280.172,300.585 278,299.5C 275.98,293.291 277.98,288.957 284,286.5C 284.333,280.5 284.667,274.5 285,268.5C 286.752,265.328 288.752,262.328 291,259.5C 291.333,251.167 291.667,242.833 292,234.5C 293.652,233.601 295.152,232.601 296.5,231.5 Z M 359.5,422.5 C 359.329,427.196 358.829,431.863 358,436.5C 354.706,445.068 351.039,453.401 347,461.5C 345.833,471.501 345.167,481.501 345,491.5C 362.175,496.725 379.342,502.058 396.5,507.5C 397.086,507.291 397.586,506.957 398,506.5C 398.66,497.385 399.827,488.385 401.5,479.5C 398.711,468.246 396.211,456.913 394,445.5C 393.535,444.069 392.701,442.903 391.5,442C 385.669,438.919 380.002,435.585 374.5,432C 370.457,427.313 365.457,424.146 359.5,422.5 Z"/></g>
<g><path style="opacity:1" fill="#2d2d2d" d="M 364.5,262.5 C 351.329,261.899 338.662,259.066 326.5,254C 320.114,250.807 313.78,247.64 307.5,244.5C 304.833,242.833 302.167,241.167 299.5,239.5C 299.389,238.883 299.056,238.383 298.5,238C 313.107,236.411 327.107,238.744 340.5,245C 332.792,243.857 325.126,242.191 317.5,240C 314.621,239.126 311.955,239.46 309.5,241C 320.32,249.572 332.654,254.572 346.5,256C 352.071,259.467 358.071,260.301 364.5,258.5C 364.808,257.692 365.308,257.025 366,256.5C 368.265,257.916 369.431,259.916 369.5,262.5C 367.833,262.5 366.167,262.5 364.5,262.5 Z"/></g>
<g><path style="opacity:1" fill="#e91b23" d="M 299.5,239.5 C 302.167,241.167 304.833,242.833 307.5,244.5C 306.127,244.343 304.793,244.51 303.5,245C 302.277,247.052 301.277,249.219 300.5,251.5C 297.129,249.894 295.796,247.228 296.5,243.5C 296.667,241.833 296.833,240.167 297,238.5C 297.671,239.252 298.504,239.586 299.5,239.5 Z"/></g>
<g><path style="opacity:1" fill="#e51a22" d="M 307.5,244.5 C 313.78,247.64 320.114,250.807 326.5,254C 338.662,259.066 351.329,261.899 364.5,262.5C 365.609,263.29 366.942,263.79 368.5,264C 366.995,266.67 364.995,268.836 362.5,270.5C 352.4,269.247 342.4,267.413 332.5,265C 324.554,261.19 316.554,257.69 308.5,254.5C 308.5,253.5 308.5,252.5 308.5,251.5C 309.097,251.265 309.43,250.765 309.5,250C 308.68,248.2 308.014,246.366 307.5,244.5 Z"/></g>
<g><path style="opacity:1" fill="#ec1c23" d="M 308.5,251.5 C 307.677,254.977 307.177,258.644 307,262.5C 306.704,257.934 305.204,253.934 302.5,250.5C 304.959,243.872 306.959,244.206 308.5,251.5 Z"/></g>
<g><path style="opacity:1" fill="#ec1c23" d="M 299.5,258.5 C 300.043,258.56 300.376,258.893 300.5,259.5C 296.983,265.87 293.483,272.204 290,278.5C 289.333,276.5 289.333,274.5 290,272.5C 292.929,267.631 296.096,262.965 299.5,258.5 Z"/></g>
<g><path style="opacity:1" fill="#ec1c23" d="M 325.5,264.5 C 327.138,265.159 328.805,265.826 330.5,266.5C 331.521,267.002 331.688,267.668 331,268.5C 327.833,271 324.667,273.5 321.5,276C 318.478,276.636 316.978,275.47 317,272.5C 320.333,270.333 323.166,267.666 325.5,264.5 Z"/></g>
<g><path style="opacity:1" fill="#ec1c23" d="M 308.5,265.5 C 313.483,273.957 320.15,280.79 328.5,286C 336.971,289.437 345.638,290.104 354.5,288C 356.333,286.833 358.167,285.667 360,284.5C 358.73,290.78 354.896,294.947 348.5,297C 338.307,300.154 329.307,298.154 321.5,291C 313.375,284.39 309.042,275.89 308.5,265.5 Z"/></g>
<g><path style="opacity:1" fill="#ec1c23" d="M 299.5,267.5 C 300.807,272.316 301.807,277.316 302.5,282.5C 301.5,282.5 300.5,282.5 299.5,282.5C 299.5,277.5 299.5,272.5 299.5,267.5 Z"/></g>
<g><path style="opacity:1" fill="#ec1c23" d="M 309.5,281.5 C 310.837,282.315 311.837,283.482 312.5,285C 305.848,290.83 304.848,289.664 309.5,281.5 Z"/></g>
<g><path style="opacity:1" fill="#fec90d" d="M 295.5,322.5 C 294.838,320.696 294.505,318.696 294.5,316.5C 294.706,309.127 295.706,301.96 297.5,295C 295.36,289.279 297.36,285.779 303.5,284.5C 305.027,288.659 304.194,292.326 301,295.5C 297.874,303.983 297.04,312.65 298.5,321.5C 297.209,321.263 296.209,321.596 295.5,322.5 Z"/></g>
<g><path style="opacity:1" fill="#e71a22" d="M 362.5,286.5 C 363.152,287.449 363.486,288.615 363.5,290C 363.196,293.101 362.196,295.935 360.5,298.5C 361.29,303.067 363.79,306.4 368,308.5C 368.545,311.038 369.212,313.371 370,315.5C 368.045,316.453 366.378,317.787 365,319.5C 364.667,319.167 364.333,318.833 364,318.5C 362.775,313.493 361.441,308.493 360,303.5C 357.295,299.456 355.129,299.623 353.5,304C 354.732,308.66 356.399,313.16 358.5,317.5C 356.071,319.653 353.404,320.319 350.5,319.5C 351.799,312.659 351.799,305.659 350.5,298.5C 352.308,298.509 353.975,298.009 355.5,297C 358.515,293.844 360.848,290.344 362.5,286.5 Z"/></g>
<g><path style="opacity:1" fill="#ec1c23" d="M 304.5,293.5 C 311.512,297.007 318.846,299.84 326.5,302C 333.693,302.746 340.693,304.079 347.5,306C 346.743,307.512 345.743,308.846 344.5,310C 331.433,309.395 319.433,305.395 308.5,298C 306.559,297.257 304.726,297.424 303,298.5C 302.878,296.718 303.378,295.052 304.5,293.5 Z"/></g>
<g><path style="opacity:1" fill="#ba9703" d="M 305.5,299.5 C 317,307.209 329.667,311.543 343.5,312.5C 343.663,314.857 343.497,317.19 343,319.5C 341.333,321.167 339.667,322.833 338,324.5C 335.742,322.57 333.242,321.07 330.5,320C 325.833,319.333 321.167,318.667 316.5,318C 312.181,312.191 308.514,306.024 305.5,299.5 Z"/></g>
<g><path style="opacity:1" fill="#f9a884" d="M 301.5,301.5 C 309.424,306.952 309.257,312.286 301,317.5C 300.308,316.975 299.808,316.308 299.5,315.5C 302.824,314.841 304.157,312.841 303.5,309.5C 302.5,309.5 301.5,309.5 300.5,309.5C 301.092,306.873 301.425,304.206 301.5,301.5 Z"/></g>
<g><path style="opacity:1" fill="#f9a884" d="M 290.5,302.5 C 291.5,302.5 292.5,302.5 293.5,302.5C 292.953,309.156 292.453,315.823 292,322.5C 290.275,315.856 289.775,309.189 290.5,302.5 Z"/></g>
<g><path style="opacity:1" fill="#f7814d" d="M 300.5,310.5 C 302.973,310.947 303.14,311.947 301,313.5C 300.517,312.552 300.351,311.552 300.5,310.5 Z"/></g>
<g><path style="opacity:1" fill="#f9a884" d="M 307.5,311.5 C 309.67,312.838 311.336,314.672 312.5,317C 308.961,318.4 305.295,319.067 301.5,319C 304.817,317.52 306.817,315.02 307.5,311.5 Z"/></g>
<g><path style="opacity:1" fill="#ec1c23" d="M 295.5,322.5 C 298.688,322.382 301.688,321.549 304.5,320C 313.645,319.579 322.645,320.579 331.5,323C 334.06,324.773 336.393,326.773 338.5,329C 331.04,325.631 323.04,323.464 314.5,322.5C 309.17,323.03 303.836,323.53 298.5,324C 296.481,324.45 294.648,325.283 293,326.5C 293.193,324.918 294.026,323.584 295.5,322.5 Z"/></g>
<g><path style="opacity:1" fill="#f9f5e1" d="M 264.5,322.5 C 272.957,323.437 274.624,327.27 269.5,334C 259.411,334.219 257.744,330.385 264.5,322.5 Z"/></g>
<g><path style="opacity:1" fill="#29319c" d="M 310.5,323.5 C 317.32,323.704 323.987,324.871 330.5,327C 333.582,328.409 336.415,330.242 339,332.5C 338.436,335.526 337.436,338.526 336,341.5C 336.432,332.639 332.598,330.139 324.5,334C 322.081,335.509 321.081,337.675 321.5,340.5C 314.551,339.395 307.551,338.728 300.5,338.5C 301.577,333.307 299.91,329.474 295.5,327C 296.623,325.956 297.956,325.29 299.5,325C 303.356,324.823 307.023,324.323 310.5,323.5 Z"/></g>
<g><path style="opacity:1" fill="#f9f5e1" d="M 291.5,327.5 C 293.148,328.777 294.982,329.777 297,330.5C 298.864,332.955 298.698,335.122 296.5,337C 292.316,337.962 288.983,336.795 286.5,333.5C 287.497,330.845 289.164,328.845 291.5,327.5 Z"/></g>
<g><path style="opacity:1" fill="#f9f5e1" d="M 329.5,334.5 C 332.955,335.128 334.122,337.128 333,340.5C 332.196,341.804 331.029,342.471 329.5,342.5C 327.547,341.844 325.547,341.511 323.5,341.5C 324.089,337.914 326.089,335.58 329.5,334.5 Z"/></g>
<g><path style="opacity:1" fill="#282e8e" d="M 259.5,336.5 C 258.44,341.299 257.44,346.132 256.5,351C 256.397,356.298 258.064,360.798 261.5,364.5C 261.719,365.675 261.386,366.675 260.5,367.5C 256.212,366.589 251.879,365.922 247.5,365.5C 246.278,361.332 244.944,357.165 243.5,353C 245.301,346.394 248.634,340.727 253.5,336C 255.712,335.211 257.712,335.378 259.5,336.5 Z"/></g>
<g><path style="opacity:1" fill="#faf5e2" d="M 265.5,337.5 C 263.133,340.68 262.133,344.347 262.5,348.5C 262.427,353.199 263.427,357.533 265.5,361.5C 265.427,363.027 266.094,364.027 267.5,364.5C 267.427,366.027 268.094,367.027 269.5,367.5C 267.374,368.103 265.041,368.103 262.5,367.5C 262.737,366.209 262.404,365.209 261.5,364.5C 258.064,360.798 256.397,356.298 256.5,351C 257.44,346.132 258.44,341.299 259.5,336.5C 262.012,334.821 264.012,335.155 265.5,337.5 Z"/></g>
<g><path style="opacity:1" fill="#272d8b" d="M 286.5,340.5 C 278.802,348.822 277.468,358.156 282.5,368.5C 282.631,369.239 282.464,369.906 282,370.5C 277.745,369.864 273.578,368.864 269.5,367.5C 268.094,367.027 267.427,366.027 267.5,364.5C 267.573,362.973 266.906,361.973 265.5,361.5C 263.427,357.533 262.427,353.199 262.5,348.5C 262.133,344.347 263.133,340.68 265.5,337.5C 267.126,337.062 268.793,336.728 270.5,336.5C 276.071,337.418 281.405,338.751 286.5,340.5 Z"/></g>
<g><path style="opacity:1" fill="#faf5e3" d="M 292.5,340.5 C 285.896,345.365 282.896,351.698 283.5,359.5C 283.958,363.166 284.958,366.666 286.5,370C 284.807,370.484 283.473,369.984 282.5,368.5C 277.468,358.156 278.802,348.822 286.5,340.5C 288.545,337.867 290.545,337.867 292.5,340.5 Z"/></g>
<g><path style="opacity:1" fill="#282f93" d="M 319.5,345.5 C 314.033,352.902 311.366,361.236 311.5,370.5C 311.657,371.873 311.49,373.207 311,374.5C 303.923,373.06 296.756,371.893 289.5,371C 288.667,370.167 287.833,369.333 287,368.5C 286.275,365.21 285.108,362.21 283.5,359.5C 282.896,351.698 285.896,345.365 292.5,340.5C 293.583,340.461 294.583,340.127 295.5,339.5C 301.981,341.479 308.647,342.646 315.5,343C 317.437,343.122 318.77,343.955 319.5,345.5 Z"/></g>
<g><path style="opacity:1" fill="#f9f5e1" d="M 326.5,344.5 C 324.167,344.833 322.833,346.167 322.5,348.5C 321.094,348.973 320.427,349.973 320.5,351.5C 319.196,352.987 318.03,354.654 317,356.5C 316.183,362.016 316.349,367.35 317.5,372.5C 316.796,374.344 315.463,374.844 313.5,374C 312.915,372.698 312.249,371.531 311.5,370.5C 311.366,361.236 314.033,352.902 319.5,345.5C 321.696,343.455 324.03,343.122 326.5,344.5 Z"/></g>
<g><path style="opacity:1" fill="#282f92" d="M 326.5,344.5 C 331.93,344.161 337.264,344.661 342.5,346C 336.25,349.248 331.75,354.081 329,360.5C 328.914,364.829 329.248,369.163 330,373.5C 330.785,375.286 331.951,376.786 333.5,378C 327.198,378.669 321.865,376.836 317.5,372.5C 316.349,367.35 316.183,362.016 317,356.5C 318.03,354.654 319.196,352.987 320.5,351.5C 321.906,351.027 322.573,350.027 322.5,348.5C 322.833,346.167 324.167,344.833 326.5,344.5 Z"/></g>
<g><path style="opacity:1" fill="#273097" d="M 346.5,347.5 C 349.143,348.623 350.81,350.623 351.5,353.5C 352.325,354.386 353.325,354.719 354.5,354.5C 354.113,360.714 352.78,366.714 350.5,372.5C 347.978,374.856 345.312,377.023 342.5,379C 337.674,378.646 334.174,376.146 332,371.5C 329.318,363.545 331.484,357.045 338.5,352C 341.099,350.205 343.766,348.705 346.5,347.5 Z"/></g>
<g><path style="opacity:1" fill="#000000" d="M 322.5,348.5 C 322.573,350.027 321.906,351.027 320.5,351.5C 320.427,349.973 321.094,348.973 322.5,348.5 Z"/></g>
<g><path style="opacity:1" fill="#e41921" d="M 359.5,352.5 C 365.093,352.26 367.927,354.927 368,360.5C 371.7,363.459 373.866,366.959 374.5,371C 368.5,371.667 362.5,372.333 356.5,373C 355.584,373.374 354.75,373.874 354,374.5C 355.29,367.632 356.124,360.632 356.5,353.5C 357.791,353.737 358.791,353.404 359.5,352.5 Z"/></g>
<g><path style="opacity:1" fill="#1d226d" d="M 338.5,358.5 C 346.003,357.853 348.503,361.186 346,368.5C 344.214,371.362 341.881,372.028 339,370.5C 338.18,368.272 338.513,366.272 340,364.5C 338.811,370.658 340.478,371.658 345,367.5C 346.24,360.063 343.573,358.063 337,361.5C 332.583,368.466 334.25,373.132 342,375.5C 343.944,374.561 345.611,373.227 347,371.5C 347.163,373.387 346.329,374.887 344.5,376C 335.818,376.983 332.318,373.15 334,364.5C 334.804,361.854 336.304,359.854 338.5,358.5 Z"/></g>
<g><path style="opacity:1" fill="#000000" d="M 265.5,361.5 C 266.906,361.973 267.573,362.973 267.5,364.5C 266.094,364.027 265.427,363.027 265.5,361.5 Z"/></g>
<g><path style="opacity:1" fill="#f9f5e1" d="M 239.5,400.5 C 238.404,404.455 237.071,408.455 235.5,412.5C 235.529,414.029 236.196,415.196 237.5,416C 239.473,416.495 241.473,416.662 243.5,416.5C 243.5,417.5 243.5,418.5 243.5,419.5C 238.882,419.731 234.882,418.231 231.5,415C 232.337,413.989 232.67,412.822 232.5,411.5C 233.404,410.791 233.737,409.791 233.5,408.5C 234.558,407.4 235.392,406.066 236,404.5C 238.533,394.036 241.533,383.703 245,373.5C 247.812,371.008 250.978,369.508 254.5,369C 245.967,377.739 240.967,388.239 239.5,400.5 Z"/></g>
<g><path style="opacity:1" fill="#c26c43" d="M 282.5,373.5 C 277.599,379.323 274.099,385.989 272,393.5C 270.802,402.359 269.302,411.026 267.5,419.5C 266.596,420.209 266.263,421.209 266.5,422.5C 262.633,422.758 258.966,422.092 255.5,420.5C 254.713,418.896 253.38,418.229 251.5,418.5C 251.185,413.832 251.851,409.332 253.5,405C 253.561,403.289 252.894,401.956 251.5,401C 248.901,400.231 246.401,400.398 244,401.5C 243.501,406.155 243.334,410.821 243.5,415.5C 240.404,416.093 238.071,415.093 236.5,412.5C 238.732,408.804 239.732,404.804 239.5,400.5C 242.207,393.227 245.041,385.893 248,378.5C 250.69,374.31 254.19,370.976 258.5,368.5C 265.751,370.084 273.084,371.25 280.5,372C 281.416,372.278 282.082,372.778 282.5,373.5 Z"/></g>
<g><path style="opacity:1" fill="#faf5e2" d="M 290.5,374.5 C 286.162,377.477 282.995,381.477 281,386.5C 279.983,396.81 279.483,407.143 279.5,417.5C 278.437,421.639 277.77,425.972 277.5,430.5C 276.685,431.429 275.852,432.429 275,433.5C 274.056,441.156 273.723,448.822 274,456.5C 275.697,459.02 277.53,461.353 279.5,463.5C 277.682,466.015 275.682,466.015 273.5,463.5C 272.083,460.331 270.417,457.331 268.5,454.5C 267.976,452.694 267.309,451.028 266.5,449.5C 266.093,443.839 265.76,438.172 265.5,432.5C 266.895,428.409 267.562,424.076 267.5,419.5C 269.302,411.026 270.802,402.359 272,393.5C 274.099,385.989 277.599,379.323 282.5,373.5C 285.397,372.227 288.063,372.561 290.5,374.5 Z"/></g>
<g><path style="opacity:1" fill="#c26c43" d="M 299.5,427.5 C 298.909,426.849 298.243,426.182 297.5,425.5C 299.521,420.27 299.854,414.937 298.5,409.5C 296.587,408.627 294.753,407.627 293,406.5C 291.812,407.563 291.312,408.897 291.5,410.5C 291.461,414.733 290.795,418.733 289.5,422.5C 288.566,423.568 288.232,424.901 288.5,426.5C 286.5,426.5 284.5,426.5 282.5,426.5C 281.791,425.596 280.791,425.263 279.5,425.5C 279.5,422.833 279.5,420.167 279.5,417.5C 279.483,407.143 279.983,396.81 281,386.5C 282.995,381.477 286.162,377.477 290.5,374.5C 291.695,374.322 292.862,373.989 294,373.5C 301.784,374.945 309.618,376.112 317.5,377C 320.833,378.333 324.167,379.667 327.5,381C 322.269,383.232 318.769,387.065 317,392.5C 313.9,403.747 311.234,415.08 309,426.5C 308.196,427.804 307.029,428.471 305.5,428.5C 303.547,427.844 301.547,427.511 299.5,427.5 Z"/></g>
<g><path style="opacity:1" fill="#29319c" d="M 380.5,381.5 C 369.691,380.197 360.358,383.197 352.5,390.5C 365.114,390.681 377.781,390.681 390.5,390.5C 392.754,391.124 394.421,392.457 395.5,394.5C 385.779,394.963 376.112,395.963 366.5,397.5C 376.819,398.119 387.152,398.286 397.5,398C 393.5,400.667 389.5,403.333 385.5,406C 381.277,407.472 376.943,408.472 372.5,409C 381.069,410.976 389.736,412.309 398.5,413C 399.416,413.374 400.25,413.874 401,414.5C 399.809,419.022 401.642,421.855 406.5,423C 413.195,423.665 419.862,423.498 426.5,422.5C 428.765,425.552 429.431,428.885 428.5,432.5C 429.054,434.61 429.888,436.61 431,438.5C 433.067,456.445 435.567,474.278 438.5,492C 432.801,496.129 426.468,497.462 419.5,496C 416.274,493.425 412.607,491.925 408.5,491.5C 409.559,484.202 409.726,476.869 409,469.5C 406.073,458.974 403.74,448.307 402,437.5C 401.535,436.069 400.701,434.903 399.5,434C 390.956,429.451 382.956,424.118 375.5,418C 368.47,413.532 360.97,411.365 353,411.5C 347.405,421.026 341.071,430.026 334,438.5C 335.029,425.024 337.363,411.691 341,398.5C 341.667,393.833 341.667,389.167 341,384.5C 340.626,383.584 340.126,382.75 339.5,382C 344.177,381.16 348.177,378.994 351.5,375.5C 352.293,375.931 353.127,376.265 354,376.5C 361.027,374.423 368.194,373.59 375.5,374C 377.415,376.4 379.081,378.9 380.5,381.5 Z"/></g>
<g><path style="opacity:1" fill="#28319b" d="M 233.5,408.5 C 233.737,409.791 233.404,410.791 232.5,411.5C 229.812,413.733 229.979,415.733 233,417.5C 233.495,419.473 233.662,421.473 233.5,423.5C 230.687,430.123 229.854,437.123 231,444.5C 231.608,446.066 232.442,447.4 233.5,448.5C 231.145,456.072 228.312,463.406 225,470.5C 224.759,467.711 224.092,465.044 223,462.5C 216.563,455.774 210.73,448.607 205.5,441C 207.819,431.376 211.319,422.209 216,413.5C 225.239,402.916 232.906,391.249 239,378.5C 240,377.5 241,376.5 242,375.5C 239.872,386.627 237.038,397.627 233.5,408.5 Z"/></g>
<g><path style="opacity:1" fill="#f9f4e1" d="M 305.5,466.5 C 304.288,461.898 303.288,457.232 302.5,452.5C 303.363,446.051 304.696,439.718 306.5,433.5C 307.289,433.217 307.956,432.717 308.5,432C 305.167,431.667 301.833,431.333 298.5,431C 297.027,430.29 296.36,429.124 296.5,427.5C 297.5,427.5 298.5,427.5 299.5,427.5C 302.436,429.514 305.603,429.848 309,428.5C 309.513,429.527 310.013,430.527 310.5,431.5C 308.156,438.044 306.49,444.878 305.5,452C 306.105,456.991 307.772,461.491 310.5,465.5C 310.866,466.695 311.699,467.361 313,467.5C 315.368,466.283 317.868,465.449 320.5,465C 324.989,460.197 328.156,454.697 330,448.5C 330.434,441.488 330.934,434.488 331.5,427.5C 333.368,422.089 333.868,416.423 333,410.5C 331.905,411.693 331.072,413.027 330.5,414.5C 326.111,415.403 322.111,417.069 318.5,419.5C 316.952,419.179 316.285,418.179 316.5,416.5C 332.936,413.344 339.769,403.344 337,386.5C 330.158,382.059 325.325,383.725 322.5,391.5C 319.657,396.367 317.991,401.7 317.5,407.5C 316.778,407.918 316.278,408.584 316,409.5C 315.879,415.307 315.046,420.974 313.5,426.5C 312.233,427.087 311.233,427.087 310.5,426.5C 312.5,420.33 313.667,413.997 314,407.5C 315.339,400.484 317.672,393.817 321,387.5C 326.001,381.379 332.001,380.046 339,383.5C 340.545,388.047 340.879,392.713 340,397.5C 335.207,415.178 332.54,433.178 332,451.5C 330.036,461.128 324.369,467.128 315,469.5C 311.426,469.43 308.259,468.43 305.5,466.5 Z"/></g>
<g><path style="opacity:1" fill="#555fd2" d="M 380.5,381.5 C 383.211,385.212 386.544,388.212 390.5,390.5C 377.781,390.681 365.114,390.681 352.5,390.5C 360.358,383.197 369.691,380.197 380.5,381.5 Z"/></g>
<g><path style="opacity:1" fill="#000000" d="M 318.5,419.5 C 316.652,421.733 314.985,424.066 313.5,426.5C 315.046,420.974 315.879,415.307 316,409.5C 316.278,408.584 316.778,407.918 317.5,407.5C 316.833,409.819 316.666,412.153 317,414.5C 327.547,413.972 333.88,408.305 336,397.5C 336.667,394.167 336.667,390.833 336,387.5C 333.581,384.362 330.747,383.862 327.5,386C 326.167,388.191 324.5,390.024 322.5,391.5C 325.325,383.725 330.158,382.059 337,386.5C 339.769,403.344 332.936,413.344 316.5,416.5C 316.285,418.179 316.952,419.179 318.5,419.5 Z"/></g>
<g><path style="opacity:1" fill="#c97145" d="M 317.5,407.5 C 319.537,402.383 321.204,397.05 322.5,391.5C 324.5,390.024 326.167,388.191 327.5,386C 330.747,383.862 333.581,384.362 336,387.5C 336.667,390.833 336.667,394.167 336,397.5C 333.88,408.305 327.547,413.972 317,414.5C 316.666,412.153 316.833,409.819 317.5,407.5 Z"/></g>
<g><path style="opacity:1" fill="#000000" d="M 322.5,391.5 C 321.204,397.05 319.537,402.383 317.5,407.5C 317.991,401.7 319.657,396.367 322.5,391.5 Z"/></g>
<g><path style="opacity:1" fill="#555fd2" d="M 395.5,394.5 C 398.778,395.809 401.778,397.642 404.5,400C 412.167,407 419.833,414 427.5,421C 426.944,421.383 426.611,421.883 426.5,422.5C 419.862,423.498 413.195,423.665 406.5,423C 401.642,421.855 399.809,419.022 401,414.5C 400.25,413.874 399.416,413.374 398.5,413C 389.736,412.309 381.069,410.976 372.5,409C 376.943,408.472 381.277,407.472 385.5,406C 389.5,403.333 393.5,400.667 397.5,398C 387.152,398.286 376.819,398.119 366.5,397.5C 376.112,395.963 385.779,394.963 395.5,394.5 Z"/></g>
<g><path style="opacity:1" fill="#f9f5e1" d="M 245.5,401.5 C 251.437,400.918 253.271,403.252 251,408.5C 250.714,415.2 250.214,421.867 249.5,428.5C 247.089,428.863 245.589,427.863 245,425.5C 244.2,417.421 244.367,409.421 245.5,401.5 Z"/></g>
<g><path style="opacity:1" fill="#fefefd" d="M 287.5,434.5 C 288.461,432.735 288.795,430.735 288.5,428.5C 289.461,426.735 289.795,424.735 289.5,422.5C 290.795,418.733 291.461,414.733 291.5,410.5C 293.205,408.258 295.205,408.258 297.5,410.5C 298.655,413.446 298.821,416.446 298,419.5C 296.577,426.242 294.411,432.575 291.5,438.5C 289.192,438.035 287.858,436.701 287.5,434.5 Z"/></g>
<g><path style="opacity:1" fill="#000000" d="M 331.5,427.5 C 331.559,424.31 331.893,421.143 332.5,418C 332.392,416.319 331.725,415.152 330.5,414.5C 331.072,413.027 331.905,411.693 333,410.5C 333.868,416.423 333.368,422.089 331.5,427.5 Z"/></g>
<g><path style="opacity:1" fill="#000000" d="M 330.5,414.5 C 326.889,416.931 322.889,418.597 318.5,419.5C 322.111,417.069 326.111,415.403 330.5,414.5 Z"/></g>
<g><path style="opacity:1" fill="#c16c43" d="M 330.5,414.5 C 331.725,415.152 332.392,416.319 332.5,418C 331.893,421.143 331.559,424.31 331.5,427.5C 330.238,436.429 328.738,445.429 327,454.5C 324.5,457.667 322,460.833 319.5,464C 316.522,464.696 313.522,465.196 310.5,465.5C 307.772,461.491 306.105,456.991 305.5,452C 306.49,444.878 308.156,438.044 310.5,431.5C 311.308,429.78 312.308,428.113 313.5,426.5C 314.985,424.066 316.652,421.733 318.5,419.5C 322.889,418.597 326.889,416.931 330.5,414.5 Z"/></g>
<g><path style="opacity:1" fill="#000000" d="M 279.5,417.5 C 279.5,420.167 279.5,422.833 279.5,425.5C 280.791,425.263 281.791,425.596 282.5,426.5C 281.022,426.238 279.689,426.571 278.5,427.5C 280.631,428.169 282.631,428.835 284.5,429.5C 282.05,429.298 279.717,429.631 277.5,430.5C 277.77,425.972 278.437,421.639 279.5,417.5 Z"/></g>
<g><path style="opacity:1" fill="#fefffe" d="M 357.5,417.5 C 365.211,419.522 371.877,423.355 377.5,429C 383.002,432.585 388.669,435.919 394.5,439C 395.701,439.903 396.535,441.069 397,442.5C 400.099,454.703 402.599,467.037 404.5,479.5C 402.959,489.411 401.793,499.411 401,509.5C 399.534,511.325 397.701,511.825 395.5,511C 377.893,505.464 360.227,500.131 342.5,495C 341.484,494.481 340.818,493.647 340.5,492.5C 341.998,481.209 343.164,469.876 344,458.5C 348.039,450.401 351.706,442.068 355,433.5C 355.674,428.093 356.508,422.76 357.5,417.5 Z M 359.5,422.5 C 359.329,427.196 358.829,431.863 358,436.5C 354.706,445.068 351.039,453.401 347,461.5C 345.833,471.501 345.167,481.501 345,491.5C 362.175,496.725 379.342,502.058 396.5,507.5C 397.086,507.291 397.586,506.957 398,506.5C 398.66,497.385 399.827,488.385 401.5,479.5C 398.711,468.246 396.211,456.913 394,445.5C 393.535,444.069 392.701,442.903 391.5,442C 385.669,438.919 380.002,435.585 374.5,432C 370.457,427.313 365.457,424.146 359.5,422.5 Z"/></g>
<g><path style="opacity:1" fill="#f9f5e1" d="M 233.5,448.5 C 230.992,440.215 230.992,431.882 233.5,423.5C 234.302,422.048 234.802,420.382 235,418.5C 237.848,420.022 238.181,422.022 236,424.5C 235.333,431.833 235.333,439.167 236,446.5C 238.45,451.284 241.95,455.117 246.5,458C 244.711,458.52 243.044,458.187 241.5,457C 238.034,454.8 235.368,451.966 233.5,448.5 Z"/></g>
<g><path style="opacity:1" fill="#f9f5e1" d="M 255.5,420.5 C 256.058,421.79 257.058,422.623 258.5,423C 261.226,423.182 263.893,423.682 266.5,424.5C 265.311,425.429 263.978,425.762 262.5,425.5C 259.205,424.716 255.871,423.716 252.5,422.5C 251.438,421.425 251.438,420.425 252.5,419.5C 253.417,420.127 254.417,420.461 255.5,420.5 Z"/></g>
<g><path style="opacity:1" fill="#000000" d="M 267.5,419.5 C 267.562,424.076 266.895,428.409 265.5,432.5C 265.5,430.5 265.5,428.5 265.5,426.5C 264.209,426.737 263.209,426.404 262.5,425.5C 263.978,425.762 265.311,425.429 266.5,424.5C 263.893,423.682 261.226,423.182 258.5,423C 257.058,422.623 256.058,421.79 255.5,420.5C 258.966,422.092 262.633,422.758 266.5,422.5C 266.263,421.209 266.596,420.209 267.5,419.5 Z"/></g>
<g><path style="opacity:1" fill="#f9f5e1" d="M 350.5,419.5 C 351.043,419.56 351.376,419.893 351.5,420.5C 351.05,425.807 349.55,430.807 347,435.5C 335.551,456.064 324.885,477.064 315,498.5C 314.439,499.022 313.772,499.355 313,499.5C 307.129,497.599 301.296,495.599 295.5,493.5C 294.417,492.635 294.251,491.635 295,490.5C 298.167,484.167 301.333,477.833 304.5,471.5C 324.183,472.321 334.016,462.654 334,442.5C 339.719,434.955 345.219,427.288 350.5,419.5 Z"/></g>
<g><path style="opacity:1" fill="#c97145" d="M 243.5,426.5 C 242.561,433.09 240.394,439.424 237,445.5C 236.104,437.754 236.437,430.087 238,422.5C 239.401,420.808 241.234,420.141 243.5,420.5C 243.5,422.5 243.5,424.5 243.5,426.5 Z"/></g>
<g><path style="opacity:1" fill="#373837" d="M 118.5,422.5 C 125.435,423.799 132.102,425.966 138.5,429C 135.509,431.99 133.343,435.49 132,439.5C 131.828,444.202 131.328,448.868 130.5,453.5C 124.494,451.666 118.494,449.832 112.5,448C 109.43,444.361 108.263,440.195 109,435.5C 111.257,430.423 114.424,426.09 118.5,422.5 Z"/></g>
<g><path style="opacity:1" fill="#c26c43" d="M 252.5,422.5 C 253.058,423.79 254.058,424.623 255.5,425C 257.81,425.497 260.143,425.663 262.5,425.5C 263.209,426.404 264.209,426.737 265.5,426.5C 265.5,428.5 265.5,430.5 265.5,432.5C 265.76,438.172 266.093,443.839 266.5,449.5C 266.077,451.781 266.744,453.448 268.5,454.5C 270.417,457.331 272.083,460.331 273.5,463.5C 273.53,464.497 273.03,465.164 272,465.5C 266.789,464.905 261.622,464.072 256.5,463C 252.167,460 247.833,457 243.5,454C 240.593,452.377 239.593,450.21 240.5,447.5C 242.833,445.833 244.833,443.833 246.5,441.5C 252.235,437.781 253.902,432.781 251.5,426.5C 251.232,424.901 251.566,423.568 252.5,422.5 Z"/></g>
<g><path style="opacity:1" fill="#000000" d="M 252.5,422.5 C 255.871,423.716 259.205,424.716 262.5,425.5C 260.143,425.663 257.81,425.497 255.5,425C 254.058,424.623 253.058,423.79 252.5,422.5 Z"/></g>
<g><path style="opacity:1" fill="#000000" d="M 289.5,422.5 C 289.795,424.735 289.461,426.735 288.5,428.5C 286.5,427.833 284.5,427.167 282.5,426.5C 284.5,426.5 286.5,426.5 288.5,426.5C 288.232,424.901 288.566,423.568 289.5,422.5 Z"/></g>
<g><path style="opacity:1" fill="#000000" d="M 233.5,423.5 C 230.992,431.882 230.992,440.215 233.5,448.5C 232.442,447.4 231.608,446.066 231,444.5C 229.854,437.123 230.687,430.123 233.5,423.5 Z"/></g>
<g><path style="opacity:1" fill="#f9f5e1" d="M 243.5,426.5 C 246.231,431.79 248.898,431.79 251.5,426.5C 251.664,429.187 251.497,431.854 251,434.5C 248.98,436.551 247.48,438.884 246.5,441.5C 243.5,442.5 241.5,444.5 240.5,447.5C 239.105,449.054 238.439,448.721 238.5,446.5C 239.444,442.611 240.944,438.944 243,435.5C 243.498,432.518 243.665,429.518 243.5,426.5 Z"/></g>
<g><path style="opacity:1" fill="#000000" d="M 251.5,426.5 C 253.902,432.781 252.235,437.781 246.5,441.5C 247.48,438.884 248.98,436.551 251,434.5C 251.497,431.854 251.664,429.187 251.5,426.5 Z"/></g>
<g><path style="opacity:1" fill="#f9f5e1" d="M 282.5,426.5 C 284.5,427.167 286.5,427.833 288.5,428.5C 287.292,429.234 285.959,429.567 284.5,429.5C 282.631,428.835 280.631,428.169 278.5,427.5C 279.689,426.571 281.022,426.238 282.5,426.5 Z"/></g>
<g><path style="opacity:1" fill="#000000" d="M 331.5,427.5 C 330.934,434.488 330.434,441.488 330,448.5C 328.156,454.697 324.989,460.197 320.5,465C 317.868,465.449 315.368,466.283 313,467.5C 311.699,467.361 310.866,466.695 310.5,465.5C 313.522,465.196 316.522,464.696 319.5,464C 322,460.833 324.5,457.667 327,454.5C 328.738,445.429 330.238,436.429 331.5,427.5 Z"/></g>
<g><path style="opacity:1" fill="#000000" d="M 288.5,428.5 C 288.795,430.735 288.461,432.735 287.5,434.5C 287.5,433.167 287.5,431.833 287.5,430.5C 286.209,430.737 285.209,430.404 284.5,429.5C 285.959,429.567 287.292,429.234 288.5,428.5 Z"/></g>
<g><path style="opacity:1" fill="#ba6841" d="M 284.5,429.5 C 285.209,430.404 286.209,430.737 287.5,430.5C 287.5,431.833 287.5,433.167 287.5,434.5C 286.848,435.449 286.514,436.615 286.5,438C 287.902,447.504 289.235,457.004 290.5,466.5C 286.347,466.874 282.68,465.874 279.5,463.5C 277.53,461.353 275.697,459.02 274,456.5C 273.723,448.822 274.056,441.156 275,433.5C 275.852,432.429 276.685,431.429 277.5,430.5C 279.717,429.631 282.05,429.298 284.5,429.5 Z"/></g>
<g><path style="opacity:1" fill="#b3643f" d="M 306.5,433.5 C 304.696,439.718 303.363,446.051 302.5,452.5C 303.288,457.232 304.288,461.898 305.5,466.5C 305.209,467.649 304.376,468.316 303,468.5C 300.472,468.442 298.472,467.442 297,465.5C 295.851,456.043 295.017,446.543 294.5,437C 294.396,434.855 295.063,433.021 296.5,431.5C 299.971,432.097 303.305,432.764 306.5,433.5 Z"/></g>
<g><path style="opacity:1" fill="#f9f5e1" d="M 287.5,438.5 C 290.094,438.682 292.261,439.682 294,441.5C 294.333,448.5 294.667,455.5 295,462.5C 295.273,464.101 295.773,465.601 296.5,467C 294.567,467.783 293.067,467.283 292,465.5C 290.43,456.489 288.93,447.489 287.5,438.5 Z"/></g>
<g><path style="opacity:1" fill="#373837" d="M 145.5,440.5 C 146.552,440.351 147.552,440.517 148.5,441C 145.971,443.642 144.971,446.808 145.5,450.5C 144.022,450.762 142.689,450.429 141.5,449.5C 142.087,446.12 143.421,443.12 145.5,440.5 Z"/></g>
<g><path style="opacity:1" fill="#000000" d="M 246.5,441.5 C 244.833,443.833 242.833,445.833 240.5,447.5C 241.5,444.5 243.5,442.5 246.5,441.5 Z"/></g>
<g><path style="opacity:1" fill="#373837" d="M 151.5,443.5 C 173.179,449.892 194.846,456.392 216.5,463C 220.92,464.892 221.753,467.392 219,470.5C 196.068,462.467 172.901,455.134 149.5,448.5C 149.392,446.486 150.058,444.82 151.5,443.5 Z"/></g>
<g><path style="opacity:1" fill="#000000" d="M 266.5,449.5 C 267.309,451.028 267.976,452.694 268.5,454.5C 266.744,453.448 266.077,451.781 266.5,449.5 Z"/></g>
<g><path style="opacity:1" fill="#29319c" d="M 234.5,453.5 C 239.175,456.836 243.842,460.169 248.5,463.5C 245,471.167 241.5,478.833 238,486.5C 234.314,481.644 230.814,476.644 227.5,471.5C 229.831,465.517 232.165,459.517 234.5,453.5 Z"/></g>
<g><path style="opacity:1" fill="#29319c" d="M 337.5,458.5 C 338.124,458.917 338.457,459.584 338.5,460.5C 337.803,464.471 337.303,468.471 337,472.5C 331.333,485.167 325.667,497.833 320,510.5C 318.645,506.831 317.645,503.165 317,499.5C 323.333,485.501 330.166,471.835 337.5,458.5 Z"/></g>
<g><path style="opacity:1" fill="#f6f1de" d="M 250.5,463.5 C 254.678,465.128 259.011,466.295 263.5,467C 256.853,482.608 252.02,498.775 249,515.5C 244.027,520.118 240.027,525.451 237,531.5C 234.914,523.996 231.747,516.996 227.5,510.5C 229.24,507.019 230.407,503.352 231,499.5C 233.291,497.175 235.624,494.842 238,492.5C 242.156,482.853 246.322,473.186 250.5,463.5 Z"/></g>
<g><path style="opacity:1" fill="#f9f5e1" d="M 265.5,466.5 C 272.817,467.261 280.15,467.928 287.5,468.5C 288.233,476.188 288.733,483.855 289,491.5C 282.539,488.29 275.705,486.624 268.5,486.5C 267.5,479.833 266.5,473.167 265.5,466.5 Z"/></g>
<g><path style="opacity:1" fill="#29319c" d="M 289.5,469.5 C 293.915,469.305 298.249,469.805 302.5,471C 298.872,477.755 295.372,484.588 292,491.5C 290.887,484.194 290.054,476.861 289.5,469.5 Z"/></g>
<g><path style="opacity:1" fill="#fec90d" d="M 221.5,471.5 C 223.735,472.228 225.568,473.561 227,475.5C 229.167,478.5 231.333,481.5 233.5,484.5C 232.176,485.935 230.51,486.935 228.5,487.5C 229.506,488.396 229.506,489.062 228.5,489.5C 226.047,486.759 223.714,483.925 221.5,481C 220.365,480.251 219.365,480.417 218.5,481.5C 213.231,487.176 212.231,493.51 215.5,500.5C 215.167,500.833 214.833,501.167 214.5,501.5C 211.815,496.862 210.982,491.862 212,486.5C 214,483.833 216,481.167 218,478.5C 218.72,476.888 218.554,475.388 217.5,474C 218.858,473.066 220.192,472.232 221.5,471.5 Z"/></g>
<g><path style="opacity:1" fill="#29319c" d="M 263.5,471.5 C 264.646,475.836 265.646,480.336 266.5,485C 263.897,487.339 261.063,489.506 258,491.5C 259.303,484.748 261.136,478.081 263.5,471.5 Z"/></g>
<g><path style="opacity:1" fill="#ec1c23" d="M 335.5,479.5 C 336.622,481.288 336.789,483.288 336,485.5C 332.196,495.912 328.196,506.245 324,516.5C 321.78,537.812 319.78,559.145 318,580.5C 317.483,583.92 316.65,587.253 315.5,590.5C 309.833,587.333 304.167,584.167 298.5,581C 301.525,572.925 304.359,564.758 307,556.5C 309.74,555.718 312.574,555.218 315.5,555C 316.333,554.167 317.167,553.333 318,552.5C 319.273,540.237 319.94,527.903 320,515.5C 326.011,503.817 331.178,491.817 335.5,479.5 Z"/></g>
<g><path style="opacity:1" fill="#fefffe" d="M 220.5,488.5 C 223.125,489.466 223.125,490.466 220.5,491.5C 219.438,490.575 219.438,489.575 220.5,488.5 Z"/></g>
<g><path style="opacity:1" fill="#373837" d="M 265.5,489.5 C 266.364,490.688 267.364,491.855 268.5,493C 278.377,498.125 288.71,501.958 299.5,504.5C 302.936,504.4 305.269,502.734 306.5,499.5C 308.925,500.308 311.258,501.308 313.5,502.5C 308.853,506.799 306.686,512.132 307,518.5C 304.833,515 302,512.167 298.5,510C 290.721,506.407 282.721,503.407 274.5,501C 268.733,500.437 263.066,500.937 257.5,502.5C 256.951,496.073 259.618,491.74 265.5,489.5 Z"/></g>
<g><path style="opacity:1" fill="#ec1c23" d="M 409.5,494.5 C 412.223,495.352 414.89,496.519 417.5,498C 422.5,498.667 427.5,498.667 432.5,498C 434.519,497.55 436.352,496.717 438,495.5C 438.499,501.491 438.666,507.491 438.5,513.5C 436.253,513.915 434.086,514.582 432,515.5C 424.734,514.891 417.567,513.724 410.5,512C 408.588,510.8 407.255,509.133 406.5,507C 407.136,502.75 408.136,498.583 409.5,494.5 Z"/></g>
<g><path style="opacity:1" fill="#29319c" d="M 333.5,497.5 C 336.393,506.351 339.226,515.351 342,524.5C 349.861,538.888 357.194,553.555 364,568.5C 369.558,583.84 374.724,599.34 379.5,615C 379.441,616.436 379.108,617.769 378.5,619C 371.861,621.336 365.528,620.67 359.5,617C 354.511,616.501 349.511,616.334 344.5,616.5C 344.911,612.537 344.078,608.87 342,605.5C 336.025,597.357 329.858,589.357 323.5,581.5C 322.675,580.614 321.675,580.281 320.5,580.5C 321.837,559.461 323.67,538.461 326,517.5C 328.802,510.926 331.302,504.259 333.5,497.5 Z"/></g>
<g><path style="opacity:1" fill="#29319c" d="M 254.5,500.5 C 255.167,512.673 255.833,525.007 256.5,537.5C 257.409,539.404 258.409,541.238 259.5,543C 258.47,545.56 257.303,548.06 256,550.5C 251.981,542.118 248.147,533.618 244.5,525C 246.28,522.216 248.447,519.716 251,517.5C 252.645,511.921 253.812,506.254 254.5,500.5 Z"/></g>
<g><path style="opacity:1" fill="#373837" d="M 338.5,500.5 C 359.494,506.498 380.494,512.498 401.5,518.5C 401.813,521.247 401.48,523.914 400.5,526.5C 380.278,519.426 359.945,512.759 339.5,506.5C 339.167,504.5 338.833,502.5 338.5,500.5 Z"/></g>
<g><path style="opacity:1" fill="#373837" d="M 313.5,512.5 C 315.017,512.511 316.184,513.177 317,514.5C 317.5,522.493 317.666,530.493 317.5,538.5C 314.801,538.466 312.301,539.133 310,540.5C 308.497,530.681 309.664,521.348 313.5,512.5 Z"/></g>
<g><path style="opacity:1" fill="#fec90d" d="M 269.5,514.5 C 272.725,517.461 276.391,519.961 280.5,522C 278.5,522.667 276.5,522.667 274.5,522C 272.295,520.294 269.962,518.794 267.5,517.5C 268.193,516.482 268.859,515.482 269.5,514.5 Z"/></g>
<g><path style="opacity:1" fill="#faa784" d="M 411.5,515.5 C 419.361,518.954 427.695,520.287 436.5,519.5C 437.449,522.208 437.449,524.874 436.5,527.5C 432.275,525.758 427.941,524.424 423.5,523.5C 423.5,522.5 423.5,521.5 423.5,520.5C 419.027,520.327 414.86,521.327 411,523.5C 407.582,527.427 407.748,531.094 411.5,534.5C 410.855,535.646 410.022,536.646 409,537.5C 403.349,531.066 402.015,523.733 405,515.5C 407.17,513.172 409.337,513.172 411.5,515.5 Z"/></g>
<g><path style="opacity:1" fill="#f7814d" d="M 411.5,515.5 C 419.514,516.135 427.514,516.968 435.5,518C 436.056,518.383 436.389,518.883 436.5,519.5C 427.695,520.287 419.361,518.954 411.5,515.5 Z"/></g>
<g><path style="opacity:1" fill="#29319c" d="M 228.5,518.5 C 232.139,524.906 235.306,531.572 238,538.5C 239.445,542.15 240.445,545.817 241,549.5C 233.677,542.348 229.177,533.848 227.5,524C 227.581,522.076 227.914,520.243 228.5,518.5 Z"/></g>
<g><path style="opacity:1" fill="#fec90d" d="M 284.5,526.5 C 279.267,527.099 274.101,528.099 269,529.5C 264.761,528.27 264.927,526.77 269.5,525C 278.51,523.798 287.343,521.965 296,519.5C 296.309,520.766 296.809,521.933 297.5,523C 293.001,524.039 288.668,525.206 284.5,526.5 Z"/></g>
<g><path style="opacity:1" fill="#373837" d="M 415.5,523.5 C 441.772,531.199 468.106,539.032 494.5,547C 492.622,548.543 491.122,550.376 490,552.5C 463.827,544.581 437.661,536.581 411.5,528.5C 412.16,526.185 413.493,524.519 415.5,523.5 Z"/></g>
<g><path style="opacity:1" fill="#fec90d" d="M 284.5,526.5 C 289.996,527.993 293.996,531.326 296.5,536.5C 296.167,536.833 295.833,537.167 295.5,537.5C 290.199,535.382 285.532,532.215 281.5,528C 282.737,527.768 283.737,527.268 284.5,526.5 Z"/></g>
<g><path style="opacity:1" fill="#29319c" d="M 224.5,527.5 C 225.222,527.918 225.722,528.584 226,529.5C 225.889,548.168 225.389,566.835 224.5,585.5C 231.17,585.889 237.836,586.389 244.5,587C 242.539,590.421 240.706,593.921 239,597.5C 239.318,605.395 238.818,613.395 237.5,621.5C 233.822,618.576 229.655,616.91 225,616.5C 217.671,617.442 210.504,619.109 203.5,621.5C 202.833,621.167 202.167,620.833 201.5,620.5C 205.231,609.473 209.065,598.473 213,587.5C 213.807,583.814 213.307,580.314 211.5,577C 213.328,567.848 216.162,559.015 220,550.5C 221.663,542.85 223.163,535.183 224.5,527.5 Z"/></g>
<g><path style="opacity:1" fill="#373837" d="M 242.5,527.5 C 249.224,541.959 255.724,556.626 262,571.5C 263.578,574.657 264.578,577.991 265,581.5C 274.299,598.96 283.799,616.293 293.5,633.5C 292.135,634.941 290.635,636.274 289,637.5C 283.417,629.336 278.084,621.003 273,612.5C 267.935,602.704 262.601,593.038 257,583.5C 250.833,567 244.667,550.5 238.5,534C 240.043,531.958 241.376,529.792 242.5,527.5 Z"/></g>
<g><path style="opacity:1" fill="#f9a884" d="M 414.5,534.5 C 415.5,534.5 416.5,534.5 417.5,534.5C 417.88,537.792 416.547,540.125 413.5,541.5C 412.368,539.01 412.701,536.676 414.5,534.5 Z"/></g>
<g><path style="opacity:1" fill="#f9f5e1" d="M 267.5,539.5 C 266.839,540.718 266.172,542.051 265.5,543.5C 264.833,543.167 264.167,542.833 263.5,542.5C 262.637,540.229 262.637,537.895 263.5,535.5C 264.833,535.5 266.167,535.5 267.5,535.5C 267.5,536.833 267.5,538.167 267.5,539.5 Z"/></g>
<g><path style="opacity:1" fill="#e71a22" d="M 234.5,487.5 C 235.478,487.811 236.145,488.478 236.5,489.5C 234.522,492.645 232.022,495.312 229,497.5C 228.75,500.754 227.75,503.754 226,506.5C 225.297,509.713 225.464,512.879 226.5,516C 225.717,519.632 224.551,523.132 223,526.5C 219.315,530.524 215.981,534.857 213,539.5C 212.333,538.167 211.667,538.167 211,539.5C 210.77,545.575 210.603,551.575 210.5,557.5C 204.34,558.835 198.674,557.668 193.5,554C 195.127,551.246 196.627,548.412 198,545.5C 206.109,538.601 213.775,531.268 221,523.5C 223.719,516.991 222.053,511.991 216,508.5C 215.333,507.167 215.333,505.833 216,504.5C 218.951,501.428 221.784,498.261 224.5,495C 228.245,492.94 231.578,490.44 234.5,487.5 Z"/></g>
<g><path style="opacity:1" fill="#373837" d="M 292.5,547.5 C 291.566,548.568 291.232,549.901 291.5,551.5C 285.739,551.646 280.739,549.813 276.5,546C 273.899,545.08 271.232,544.413 268.5,544C 267.62,542.644 267.286,541.144 267.5,539.5C 268.158,538.602 268.824,537.602 269.5,536.5C 273.345,537.92 276.678,540.087 279.5,543C 283.139,542.722 286.806,542.722 290.5,543C 292.107,544.049 292.773,545.549 292.5,547.5 Z"/></g>
<g><path style="opacity:1" fill="#f9a884" d="M 421.5,536.5 C 425.754,539.002 425.42,540.669 420.5,541.5C 420.366,539.708 420.699,538.042 421.5,536.5 Z"/></g>
<g><path style="opacity:1" fill="#ec1c23" d="M 228.5,537.5 C 231.828,542.792 235.662,547.792 240,552.5C 240.768,560.517 241.602,568.517 242.5,576.5C 237.167,578.167 231.833,579.833 226.5,581.5C 227.167,566.833 227.833,552.167 228.5,537.5 Z"/></g>
<g><path style="opacity:1" fill="#f9a884" d="M 426.5,539.5 C 429.685,539.722 430.685,541.222 429.5,544C 428.551,544.617 427.718,544.451 427,543.5C 426.51,542.207 426.343,540.873 426.5,539.5 Z"/></g>
<g><path style="opacity:1" fill="#373837" d="M 297.5,548.5 C 298.29,547.391 298.79,546.058 299,544.5C 301.068,545.394 303.235,546.06 305.5,546.5C 308.939,543.447 312.939,541.447 317.5,540.5C 318.425,551.74 313.425,555.907 302.5,553C 299.475,552.846 297.809,551.346 297.5,548.5 Z"/></g>
<g><path style="opacity:1" fill="#f9a884" d="M 432.5,541.5 C 438.266,541.375 439.433,543.375 436,547.5C 433.09,546.55 431.923,544.55 432.5,541.5 Z"/></g>
<g><path style="opacity:1" fill="#f9f5e1" d="M 297.5,548.5 C 296.596,549.209 296.263,550.209 296.5,551.5C 295.167,551.5 293.833,551.5 292.5,551.5C 292.5,550.167 292.5,548.833 292.5,547.5C 293.161,546.282 293.828,544.949 294.5,543.5C 296.773,544.375 297.773,546.042 297.5,548.5 Z"/></g>
<g><path style="opacity:1" fill="#ec1c23" d="M 261.5,544.5 C 265.113,545.486 268.779,546.319 272.5,547C 277.867,550.266 283.367,553.099 289,555.5C 290.94,563.76 293.106,571.927 295.5,580C 289.954,583.797 283.954,585.63 277.5,585.5C 275.512,579.217 273.679,572.884 272,566.5C 271.29,565.027 270.124,564.36 268.5,564.5C 268.143,568.263 267.31,571.93 266,575.5C 263.024,568.233 259.857,561.066 256.5,554C 258.307,550.885 259.973,547.719 261.5,544.5 Z"/></g>
<g><path style="opacity:1" fill="#373837" d="M 524.5,544.5 C 525.043,544.56 525.376,544.893 525.5,545.5C 524.258,547.733 522.924,549.899 521.5,552C 521.833,552.167 522.167,552.333 522.5,552.5C 524.092,552.583 525.759,552.249 527.5,551.5C 529.088,552.01 530.255,553.01 531,554.5C 536.181,547.68 537.015,547.847 533.5,555C 534.749,556.824 535.915,556.657 537,554.5C 539.698,555.412 542.365,557.079 545,559.5C 545.561,558.978 546.228,558.645 547,558.5C 549.877,559.94 552.877,560.94 556,561.5C 558.781,558.958 561.781,557.624 565,557.5C 566.434,557.93 567.601,558.764 568.5,560C 568.347,562.61 567.014,564.943 564.5,567C 564.833,567.333 565.167,567.667 565.5,568C 562.462,570.703 559.795,573.703 557.5,577C 556.207,577.49 554.873,577.657 553.5,577.5C 553.543,574.413 553.71,571.413 554,568.5C 551.588,569.475 549.588,568.808 548,566.5C 546.644,567.38 545.144,567.714 543.5,567.5C 543.649,566.448 543.483,565.448 543,564.5C 542.667,564.833 542.333,565.167 542,565.5C 538.57,563.062 534.904,561.062 531,559.5C 529.806,560.43 528.473,561.097 527,561.5C 523.192,560.132 519.525,558.466 516,556.5C 514.308,558.245 512.475,558.578 510.5,557.5C 512.5,553.5 514.5,549.5 516.5,545.5C 517.167,547.833 517.833,550.167 518.5,552.5C 520.14,549.532 522.14,546.865 524.5,544.5 Z"/></g>
<g><path style="opacity:1" fill="#373837" d="M 500.5,546.5 C 503.898,546.18 507.232,546.513 510.5,547.5C 507.026,554.09 504.859,561.09 504,568.5C 501.834,564.914 498.834,562.247 495,560.5C 494.333,557.833 494.333,555.167 495,552.5C 497.068,550.604 498.901,548.604 500.5,546.5 Z"/></g>
<g><path style="opacity:1" fill="#29319c" d="M 242.5,551.5 C 244.336,555.661 246.003,559.995 247.5,564.5C 246.863,567.107 245.696,569.44 244,571.5C 243.169,564.854 242.669,558.187 242.5,551.5 Z"/></g>
<g><path style="opacity:1" fill="#232366" d="M 232.5,551.5 C 233.966,552.347 234.8,553.68 235,555.5C 236.825,554.429 237.992,555.096 238.5,557.5C 237.687,558.814 236.687,559.981 235.5,561C 237.718,562.767 239.385,564.933 240.5,567.5C 240.167,571.167 238.167,573.167 234.5,573.5C 230.352,571.721 229.686,569.055 232.5,565.5C 230.959,563.796 229.625,561.963 228.5,560C 230.653,557.563 231.986,554.73 232.5,551.5 Z"/></g>
<g><path style="opacity:1" fill="#29319c" d="M 290.5,554.5 C 291.449,553.848 292.615,553.514 294,553.5C 297.489,554.276 300.989,554.942 304.5,555.5C 302.506,563.314 300.006,570.981 297,578.5C 295.118,570.295 292.951,562.295 290.5,554.5 Z"/></g>
<g><path style="opacity:1" fill="#555fd2" d="M 326.5,556.5 C 334.589,561.878 343.255,566.211 352.5,569.5C 352.756,571.792 352.423,573.959 351.5,576C 340.95,576.599 332.45,572.765 326,564.5C 323.893,561.629 324.059,558.963 326.5,556.5 Z"/></g>
<g><path style="opacity:1" fill="#242670" d="M 287.5,569.5 C 286.115,570.947 286.448,571.947 288.5,572.5C 292.467,575.201 292.467,578.034 288.5,581C 283.16,581.989 280.66,579.822 281,574.5C 281.5,574 282,573.5 282.5,573C 279.317,570.521 278.984,567.854 281.5,565C 280.833,564.333 280.167,563.667 279.5,563C 281.09,561.954 282.59,560.787 284,559.5C 284.903,560.701 286.069,561.535 287.5,562C 288.833,563 288.833,564 287.5,565C 290.106,566.65 290.106,568.15 287.5,569.5 Z"/></g>
<g><path style="opacity:1" fill="#232469" d="M 311.5,559.5 C 316.543,564.339 316.543,568.839 311.5,573C 317.151,577.247 316.484,580.414 309.5,582.5C 303.319,579.77 302.985,576.436 308.5,572.5C 307.595,570.362 306.595,568.195 305.5,566C 308.294,564.465 310.294,562.298 311.5,559.5 Z"/></g>
<g><path style="opacity:1" fill="#ec1c23" d="M 248.5,568.5 C 251.029,573.255 252.863,578.255 254,583.5C 251,581.5 248,579.5 245,577.5C 244.833,576.667 244.667,575.833 244.5,575C 246.01,572.98 247.343,570.813 248.5,568.5 Z"/></g>
<g><path style="opacity:1" fill="#000000" d="M 287.5,569.5 C 287.557,570.609 287.89,571.609 288.5,572.5C 286.448,571.947 286.115,570.947 287.5,569.5 Z"/></g>
<g><path style="opacity:1" fill="#29319c" d="M 269.5,574.5 C 271.255,576.761 272.422,579.428 273,582.5C 273.667,584.5 273.667,586.5 273,588.5C 269.117,584.433 267.95,579.766 269.5,574.5 Z"/></g>
<g><path style="opacity:1" fill="#29319c" d="M 240.5,578.5 C 244.606,580.388 248.606,582.554 252.5,585C 245.121,585.041 237.788,584.374 230.5,583C 234.061,581.768 237.394,580.268 240.5,578.5 Z"/></g>
<g><path style="opacity:1" fill="#555fd2" d="M 333.5,578.5 C 340.13,579.775 346.796,580.941 353.5,582C 358.126,584.764 358.459,587.764 354.5,591C 345.829,594.614 337.829,593.447 330.5,587.5C 330.833,587.167 331.167,586.833 331.5,586.5C 334.428,586.104 337.428,585.937 340.5,586C 337.883,583.558 335.55,581.058 333.5,578.5 Z"/></g>
<g><path style="opacity:1" fill="#29319c" d="M 295.5,582.5 C 298.447,583.973 301.447,585.473 304.5,587C 299.643,587.307 294.81,587.807 290,588.5C 288.373,588.375 286.873,587.875 285.5,587C 289.061,585.768 292.394,584.268 295.5,582.5 Z"/></g>
<g><path style="opacity:1" fill="#363636" d="M 209.5,682.5 C 210.993,681.688 211.66,680.355 211.5,678.5C 211.841,675.492 210.841,674.492 208.5,675.5C 207.305,675.134 206.639,674.301 206.5,673C 207.429,671.923 208.096,670.756 208.5,669.5C 208.88,667.302 208.213,665.635 206.5,664.5C 204.481,663.462 204.147,662.128 205.5,660.5C 207.94,658.427 208.106,656.094 206,653.5C 205.617,654.056 205.117,654.389 204.5,654.5C 203.167,653.167 203.167,651.833 204.5,650.5C 207.167,648.833 207.167,647.167 204.5,645.5C 203.957,645.44 203.624,645.107 203.5,644.5C 204.243,643.818 204.909,643.151 205.5,642.5C 207.266,639.533 206.599,637.533 203.5,636.5C 202.624,636.631 201.957,636.298 201.5,635.5C 200.347,634.313 200.347,633.313 201.5,632.5C 203.596,633.604 204.596,632.77 204.5,630C 204.613,628.301 203.947,627.134 202.5,626.5C 201.226,625.811 201.226,624.977 202.5,624C 209.906,621.753 217.406,619.92 225,618.5C 229.243,619.204 233.076,620.871 236.5,623.5C 236.833,624.833 237.167,626.167 237.5,627.5C 236.311,633.236 234.811,638.903 233,644.5C 233.113,654.373 231.779,664.04 229,673.5C 228.228,677.89 228.394,682.223 229.5,686.5C 228.207,689.416 227.207,692.416 226.5,695.5C 228.579,700.004 230.413,704.671 232,709.5C 234.053,715.264 232.22,718.764 226.5,720C 215.51,723.005 205.51,721.005 196.5,714C 191.719,703.079 195.386,696.913 207.5,695.5C 207.683,693.064 207.016,690.897 205.5,689C 207.248,686.987 208.582,684.82 209.5,682.5 Z"/></g>
<g><path style="opacity:1" fill="#363636" d="M 377.5,631.5 C 374.756,632.072 373.923,633.738 375,636.5C 375.671,637.252 376.504,637.586 377.5,637.5C 378.833,639.5 378.833,641.5 377.5,643.5C 374.756,644.072 373.923,645.738 375,648.5C 375.671,649.252 376.504,649.586 377.5,649.5C 378.158,650.793 378.492,652.293 378.5,654C 378.664,656.544 377.997,658.71 376.5,660.5C 373.887,658.979 372.554,659.812 372.5,663C 372.278,665.275 373.278,666.441 375.5,666.5C 376.833,669.833 376.833,673.167 375.5,676.5C 374.312,675.316 373.145,675.316 372,676.5C 371.36,678.265 371.527,679.932 372.5,681.5C 373.091,682.151 373.757,682.818 374.5,683.5C 373.633,686.935 372.466,690.269 371,693.5C 370.79,691.942 370.29,690.609 369.5,689.5C 367.404,688.396 366.404,689.23 366.5,692C 366.387,693.699 367.053,694.866 368.5,695.5C 369.833,698.167 369.833,700.833 368.5,703.5C 367.007,704.312 366.34,705.645 366.5,707.5C 366.159,710.508 367.159,711.508 369.5,710.5C 370.833,712.5 370.833,714.5 369.5,716.5C 367.159,715.492 366.159,716.492 366.5,719.5C 366.159,722.508 367.159,723.508 369.5,722.5C 370.249,723.531 370.915,724.698 371.5,726C 375.849,726.536 380.182,726.369 384.5,725.5C 393.444,726.888 395.444,731.388 390.5,739C 376.578,747.053 361.578,749.72 345.5,747C 343.273,746.879 341.44,746.046 340,744.5C 341.848,734.014 343.015,723.347 343.5,712.5C 343.428,709.031 342.761,705.698 341.5,702.5C 343.408,698.011 344.742,693.345 345.5,688.5C 345.448,685.063 344.281,682.063 342,679.5C 341.394,668.588 340.228,657.755 338.5,647C 338.667,643.833 338.833,640.667 339,637.5C 341.753,631.409 343.587,625.076 344.5,618.5C 351.549,617.718 358.216,618.885 364.5,622C 369.087,622.799 373.587,622.632 378,621.5C 378.808,625.027 378.641,628.36 377.5,631.5 Z"/></g>
<g><path style="opacity:1" fill="#fec90d" d="M 202.5,626.5 C 203.947,627.134 204.613,628.301 204.5,630C 204.596,632.77 203.596,633.604 201.5,632.5C 201.325,630.379 201.659,628.379 202.5,626.5 Z"/></g>
<g><path style="opacity:1" fill="#fec90d" d="M 377.5,631.5 C 378.833,633.5 378.833,635.5 377.5,637.5C 376.504,637.586 375.671,637.252 375,636.5C 373.923,633.738 374.756,632.072 377.5,631.5 Z"/></g>
<g><path style="opacity:1" fill="#fec90d" d="M 203.5,636.5 C 206.599,637.533 207.266,639.533 205.5,642.5C 202.648,641.277 201.981,639.277 203.5,636.5 Z"/></g>
<g><path style="opacity:1" fill="#fec90d" d="M 294.5,636.5 C 298.976,643.435 303.476,650.435 308,657.5C 308.982,658.759 309.315,660.092 309,661.5C 302.363,654.875 296.196,647.875 290.5,640.5C 291.549,638.784 292.882,637.451 294.5,636.5 Z"/></g>
<g><path style="opacity:1" fill="#fec90d" d="M 377.5,643.5 C 378.833,645.5 378.833,647.5 377.5,649.5C 376.504,649.586 375.671,649.252 375,648.5C 373.923,645.738 374.756,644.072 377.5,643.5 Z"/></g>
<g><path style="opacity:1" fill="#fec90d" d="M 204.5,645.5 C 207.167,647.167 207.167,648.833 204.5,650.5C 203.167,648.833 203.167,647.167 204.5,645.5 Z"/></g>
<g><path style="opacity:1" fill="#fec90d" d="M 205.5,660.5 C 204.659,658.621 204.325,656.621 204.5,654.5C 205.117,654.389 205.617,654.056 206,653.5C 208.106,656.094 207.94,658.427 205.5,660.5 Z"/></g>
<g><path style="opacity:1" fill="#fec90d" d="M 376.5,660.5 C 376.675,662.621 376.341,664.621 375.5,666.5C 373.278,666.441 372.278,665.275 372.5,663C 372.554,659.812 373.887,658.979 376.5,660.5 Z"/></g>
<g><path style="opacity:1" fill="#fec90d" d="M 206.5,664.5 C 208.213,665.635 208.88,667.302 208.5,669.5C 207.603,670.598 206.77,670.598 206,669.5C 205.36,667.735 205.527,666.068 206.5,664.5 Z"/></g>
<g><path style="opacity:1" fill="#fec90d" d="M 209.5,682.5 C 208.631,680.283 208.298,677.95 208.5,675.5C 210.841,674.492 211.841,675.492 211.5,678.5C 211.66,680.355 210.993,681.688 209.5,682.5 Z"/></g>
<g><path style="opacity:1" fill="#fec90d" d="M 375.5,676.5 C 376.084,679.285 375.084,680.952 372.5,681.5C 371.527,679.932 371.36,678.265 372,676.5C 373.145,675.316 374.312,675.316 375.5,676.5 Z"/></g>
<g><path style="opacity:1" fill="#fec90d" d="M 209.5,686.5 C 211.616,688.088 211.949,690.088 210.5,692.5C 209.534,690.604 209.201,688.604 209.5,686.5 Z"/></g>
<g><path style="opacity:1" fill="#fec90d" d="M 369.5,689.5 C 369.675,691.621 369.341,693.621 368.5,695.5C 367.053,694.866 366.387,693.699 366.5,692C 366.404,689.23 367.404,688.396 369.5,689.5 Z"/></g>
<g><path style="opacity:1" fill="#fec90d" d="M 207.5,696.5 C 209.924,698.228 210.09,700.228 208,702.5C 206.2,700.635 206.034,698.635 207.5,696.5 Z"/></g>
<g><path style="opacity:1" fill="#fec90d" d="M 368.5,703.5 C 369.369,705.717 369.702,708.05 369.5,710.5C 367.159,711.508 366.159,710.508 366.5,707.5C 366.34,705.645 367.007,704.312 368.5,703.5 Z"/></g>
<g><path style="opacity:1" fill="#fec90d" d="M 202.5,705.5 C 204.94,707.573 205.106,709.906 203,712.5C 201.193,710.294 201.026,707.961 202.5,705.5 Z"/></g>
<g><path style="opacity:1" fill="#fec90d" d="M 369.5,716.5 C 369.5,718.5 369.5,720.5 369.5,722.5C 367.159,723.508 366.159,722.508 366.5,719.5C 366.159,716.492 367.159,715.492 369.5,716.5 Z"/></g>
<g><path style="opacity:1" fill="#fec90d" d="M 367.5,727.5 C 369.722,727.559 370.722,728.725 370.5,731C 369.167,735.667 367.833,735.667 366.5,731C 366.648,729.744 366.982,728.577 367.5,727.5 Z"/></g>
<g><path style="opacity:1" fill="#fec90d" d="M 372.5,737.5 C 374.484,737.484 375.484,738.484 375.5,740.5C 374.167,744.5 372.833,744.5 371.5,740.5C 371.685,739.416 372.018,738.416 372.5,737.5 Z"/></g>
</svg>
