<?xml version="1.0" encoding="UTF-8"?>
<!DOCTYPE svg PUBLIC "-//W3C//DTD SVG 1.1//EN" "http://www.w3.org/Graphics/SVG/1.1/DTD/svg11.dtd">
<svg xmlns="http://www.w3.org/2000/svg" version="1.1" width="306px" height="536px" style="shape-rendering:geometricPrecision; text-rendering:geometricPrecision; image-rendering:optimizeQuality; fill-rule:evenodd; clip-rule:evenodd" xmlns:xlink="http://www.w3.org/1999/xlink">
<g><path style="opacity:1" fill="#fefffe" d="M -0.5,319.5 C -0.5,312.833 -0.5,306.167 -0.5,299.5C 0.28913,299.217 0.955796,298.717 1.5,298C 7.52751,297.83 13.5275,297.33 19.5,296.5C 21.8175,289.996 24.3175,283.663 27,277.5C 28.498,263.677 30.8313,250.01 34,236.5C 41.8437,223.653 51.5104,212.32 63,202.5C 66.9402,196.902 70.4402,191.068 73.5,185C 78.2402,182.928 83.2402,181.928 88.5,182C 90.0905,180.954 91.5905,179.787 93,178.5C 93.4986,174.848 93.6653,171.182 93.5,167.5C 90.8431,167.838 88.5098,167.171 86.5,165.5C 84.3165,161.086 82.8165,156.419 82,151.5C 77.851,147.196 74.1843,142.53 71,137.5C 70.3333,132.167 70.3333,126.833 71,121.5C 74.6174,116.885 79.1174,113.385 84.5,111C 95.2145,106.403 106.215,102.57 117.5,99.5C 117.833,98.6667 118.167,97.8333 118.5,97C 117.82,92.523 117.32,88.023 117,83.5C 116.333,63.5 116.333,43.5 117,23.5C 118.669,18.107 120.335,12.7736 122,7.5C 123.487,6.84484 124.653,5.84484 125.5,4.5C 136.503,3.31505 147.503,3.31505 158.5,4.5C 158.5,6.16667 158.5,7.83333 158.5,9.5C 161.272,9.5952 163.272,10.9285 164.5,13.5C 166.355,22.4775 165.522,31.1442 162,39.5C 162.427,49.8039 159.76,59.1373 154,67.5C 150.553,77.8709 147.72,88.5375 145.5,99.5C 146.095,105.826 146.595,112.159 147,118.5C 147.912,121.997 149.578,124.997 152,127.5C 152.499,131.152 152.665,134.818 152.5,138.5C 155.33,138.694 157.996,139.361 160.5,140.5C 160.255,149.837 159.922,159.171 159.5,168.5C 162.375,169.623 165.375,170.456 168.5,171C 171.116,176.317 175.45,179.15 181.5,179.5C 208.556,177.622 235.556,175.455 262.5,173C 270.528,172.302 278.528,172.468 286.5,173.5C 286.624,182.947 285.624,192.281 283.5,201.5C 280.367,202.703 277.701,204.537 275.5,207C 259.651,209.026 243.651,210.692 227.5,212C 208.647,216.104 189.981,220.77 171.5,226C 169.787,227.378 168.453,229.045 167.5,231C 168.441,234.272 169.607,237.438 171,240.5C 171.362,250.847 171.862,261.18 172.5,271.5C 180.84,269.854 185.507,273.188 186.5,281.5C 187.853,282.685 189.02,284.019 190,285.5C 190.753,293.359 190.586,301.192 189.5,309C 187.613,312.053 185.946,315.22 184.5,318.5C 183.675,319.386 182.675,319.719 181.5,319.5C 181.284,321.681 182.117,323.347 184,324.5C 184.074,335.836 184.074,347.169 184,358.5C 184.692,361.936 185.692,365.27 187,368.5C 189.809,392.73 192.142,417.064 194,441.5C 194.956,442.579 195.789,443.745 196.5,445C 201.678,446.798 207.011,447.798 212.5,448C 213.5,448.833 214.5,449.667 215.5,450.5C 216.833,456.5 216.833,462.5 215.5,468.5C 214.335,469.584 213.002,470.417 211.5,471C 195.291,474.689 178.957,475.356 162.5,473C 158.759,472.306 155.259,471.139 152,469.5C 151.24,460.975 151.407,452.475 152.5,444C 148.813,431.134 146.98,417.967 147,404.5C 145.667,399.833 144.333,395.167 143,390.5C 134.174,412.356 123.84,433.356 112,453.5C 110.989,454.337 109.822,454.67 108.5,454.5C 108.848,459.065 108.181,463.399 106.5,467.5C 109.9,479.473 110.233,491.473 107.5,503.5C 103.687,504.762 99.6875,505.429 95.5,505.5C 91.8333,505.333 88.1667,505.167 84.5,505C 80.404,502.285 76.0706,500.119 71.5,498.5C 69.0366,471.517 68.8699,444.517 71,417.5C 72.0363,411.114 73.2029,404.781 74.5,398.5C 73.5,398.5 72.5,398.5 71.5,398.5C 72.16,383.835 72.3267,369.169 72,354.5C 66.5829,353.691 61.0829,353.191 55.5,353C 53.0623,351.818 50.729,350.485 48.5,349C 43.4671,348.829 38.4671,348.329 33.5,347.5C 29.6548,344.403 25.9881,341.069 22.5,337.5C 21.8333,334.833 21.1667,332.167 20.5,329.5C 17.7127,327.773 14.7127,326.606 11.5,326C 8.63294,324.264 5.96628,322.264 3.5,320C 2.20677,319.51 0.873441,319.343 -0.5,319.5 Z M 77.5,255.5 C 78.5251,256.374 79.1918,257.541 79.5,259C 78.7134,266.798 78.2134,274.631 78,282.5C 74.86,285.835 71.36,288.835 67.5,291.5C 67.1667,290.5 66.8333,289.5 66.5,288.5C 68.108,280.518 69.608,272.518 71,264.5C 72.5814,261.084 74.7481,258.084 77.5,255.5 Z M 65.5,295.5 C 66.8157,301.013 66.8157,306.68 65.5,312.5C 64.2584,306.812 64.2584,301.145 65.5,295.5 Z"/></g>
<g><path style="opacity:1" fill="#030101" d="M 128.5,6.5 C 137.524,6.35837 146.524,6.6917 155.5,7.5C 155.5,9.16667 155.5,10.8333 155.5,12.5C 158.272,12.5952 160.272,13.9285 161.5,16.5C 163.195,23.4931 162.362,30.1597 159,36.5C 159.427,46.8039 156.76,56.1373 151,64.5C 147.242,76.7995 143.742,89.2995 140.5,102C 141.329,103.816 142.163,105.649 143,107.5C 143.333,112.167 143.667,116.833 144,121.5C 144.912,124.997 146.578,127.997 149,130.5C 149.499,134.152 149.665,137.818 149.5,141.5C 152.33,141.694 154.996,142.361 157.5,143.5C 157.665,146.518 157.498,149.518 157,152.5C 156.56,154.076 155.727,155.41 154.5,156.5C 155.663,158.285 156.33,160.285 156.5,162.5C 155.954,165.566 155.288,168.566 154.5,171.5C 158.165,172.219 161.832,173.052 165.5,174C 167.432,175.352 168.766,177.185 169.5,179.5C 172.203,180.851 174.87,182.185 177.5,183.5C 209.186,180.791 240.853,178.124 272.5,175.5C 276.19,175.692 279.857,176.025 283.5,176.5C 283.154,183.907 282.154,191.241 280.5,198.5C 277.367,199.703 274.701,201.537 272.5,204C 266.448,204.79 260.448,204.624 254.5,203.5C 253.713,204.242 253.047,205.075 252.5,206C 239.808,207.535 227.141,209.201 214.5,211C 202.898,213.969 191.231,216.636 179.5,219C 164.234,221.702 160.4,229.869 168,243.5C 168.81,250.082 168.643,256.582 167.5,263C 169.046,266.65 169.713,270.484 169.5,274.5C 177.84,272.854 182.507,276.188 183.5,284.5C 184.853,285.685 186.02,287.019 187,288.5C 187.72,294.361 187.554,300.194 186.5,306C 184.613,309.053 182.946,312.22 181.5,315.5C 179.955,316.452 178.288,316.785 176.5,316.5C 176.348,320.853 177.848,324.52 181,327.5C 181.667,331.5 181.667,335.5 181,339.5C 180.355,340.646 179.522,341.646 178.5,342.5C 180.088,348.707 180.921,355.041 181,361.5C 181.692,364.936 182.692,368.27 184,371.5C 186.809,395.73 189.142,420.064 191,444.5C 191.956,445.579 192.789,446.745 193.5,448C 199.599,449.462 205.599,450.962 211.5,452.5C 213.744,456.621 214.077,460.954 212.5,465.5C 211.335,466.584 210.002,467.417 208.5,468C 194.294,471.586 179.961,472.252 165.5,470C 161.759,469.306 158.259,468.139 155,466.5C 154.383,458.987 154.55,451.487 155.5,444C 155.199,438.632 154.033,433.465 152,428.5C 150.767,420.807 150.6,413.14 151.5,405.5C 149.138,399.655 147.304,393.655 146,387.5C 144.667,385.5 143.333,383.5 142,381.5C 133.277,405.715 122.277,428.715 109,450.5C 107.989,451.337 106.822,451.67 105.5,451.5C 105.665,454.518 105.498,457.518 105,460.5C 103.481,462.556 102.647,464.89 102.5,467.5C 104.734,474.67 106.067,482.003 106.5,489.5C 106.633,493.336 105.967,497.002 104.5,500.5C 101.7,501.732 98.6996,502.399 95.5,502.5C 92.8333,502.333 90.1667,502.167 87.5,502C 83.404,499.285 79.0706,497.119 74.5,495.5C 72.0436,470.517 71.877,445.517 74,420.5C 74.7892,411.902 76.6225,403.568 79.5,395.5C 77.8333,395.5 76.1667,395.5 74.5,395.5C 74.8869,386.005 75.2203,376.505 75.5,367C 75.5365,359.788 75.0365,352.621 74,345.5C 72.3881,349.399 69.3881,351.066 65,350.5C 59.8063,350.991 55.3063,349.491 51.5,346C 46.4671,345.829 41.4671,345.329 36.5,344.5C 32.6548,341.403 28.9881,338.069 25.5,334.5C 24.8333,331.833 24.1667,329.167 23.5,326.5C 20.7127,324.773 17.7127,323.606 14.5,323C 11.6329,321.264 8.96628,319.264 6.5,317C 5.20677,316.51 3.87344,316.343 2.5,316.5C 2.33418,311.821 2.50085,307.155 3,302.5C 3.5,302 4,301.5 4.5,301C 6.5,300.833 8.5,300.667 10.5,300.5C 14.6742,300.965 18.6742,301.965 22.5,303.5C 23.8942,295.401 26.3942,287.734 30,280.5C 31.498,266.677 33.8313,253.01 37,239.5C 44.8437,226.653 54.5104,215.32 66,205.5C 69.9402,199.902 73.4402,194.068 76.5,188C 81.2402,185.928 86.2402,184.928 91.5,185C 94.3633,183.636 96.3633,181.47 97.5,178.5C 96.5565,173.9 96.2232,169.233 96.5,164.5C 92.6831,165.174 89.8497,163.841 88,160.5C 87.0913,156.46 86.0913,152.46 85,148.5C 80.851,144.196 77.1843,139.53 74,134.5C 73.3333,131.167 73.3333,127.833 74,124.5C 77.6174,119.885 82.1174,116.385 87.5,114C 96.357,111.05 105.024,107.716 113.5,104C 116.513,103.498 119.513,102.998 122.5,102.5C 119.606,77.2586 118.773,51.9252 120,26.5C 121.669,21.107 123.335,15.7736 125,10.5C 127.071,9.89713 128.238,8.5638 128.5,6.5 Z M 77.5,255.5 C 74.7481,258.084 72.5814,261.084 71,264.5C 69.608,272.518 68.108,280.518 66.5,288.5C 66.8333,289.5 67.1667,290.5 67.5,291.5C 71.36,288.835 74.86,285.835 78,282.5C 78.2134,274.631 78.7134,266.798 79.5,259C 79.1918,257.541 78.5251,256.374 77.5,255.5 Z M 65.5,295.5 C 64.2584,301.145 64.2584,306.812 65.5,312.5C 66.8157,306.68 66.8157,301.013 65.5,295.5 Z"/></g>
<g><path style="opacity:1" fill="#e61a22" d="M 137.5,88.5 C 135.717,95.2729 134.05,95.1062 132.5,88C 134.201,86.1397 135.201,83.973 135.5,81.5C 133.097,81.607 131.264,80.607 130,78.5C 131.455,74.4369 130.621,70.9369 127.5,68C 129.134,67.5065 130.801,67.3398 132.5,67.5C 133.377,63.0904 131.877,59.7571 128,57.5C 127.517,56.552 127.351,55.552 127.5,54.5C 129.912,54.244 131.579,55.244 132.5,57.5C 131.906,54.3275 132.573,51.3275 134.5,48.5C 132.833,48.5 131.167,48.5 129.5,48.5C 129.565,46.3043 130.232,44.3043 131.5,42.5C 133.071,43.3094 134.738,43.6427 136.5,43.5C 137.21,40.1405 135.876,38.3071 132.5,38C 134.701,37.1751 136.534,37.6751 138,39.5C 137.297,34.8514 136.131,30.1847 134.5,25.5C 134.919,24.3279 135.585,23.3279 136.5,22.5C 135.242,23.0164 134.242,22.3497 133.5,20.5C 134.035,18.7295 134.869,18.3961 136,19.5C 136.236,17.1548 137.07,15.1548 138.5,13.5C 139.511,10.9818 140.844,10.9818 142.5,13.5C 144.806,13.3543 147.139,13.021 149.5,12.5C 149.749,13.5821 149.915,14.9154 150,16.5C 151.419,17.4601 152.919,18.2935 154.5,19C 153.391,20.813 154.058,21.6463 156.5,21.5C 155.091,27.9588 153.425,34.2921 151.5,40.5C 151.833,41.1667 152.167,41.8333 152.5,42.5C 151.5,44.1667 150.5,45.8333 149.5,47.5C 149.818,48.6473 150.484,49.4806 151.5,50C 149.5,54.1069 147,57.9402 144,61.5C 143.28,63.1124 143.446,64.6124 144.5,66C 141.062,73.3206 138.728,80.8206 137.5,88.5 Z"/></g>
<g><path style="opacity:1" fill="#b00e15" d="M 138.5,13.5 C 137.07,15.1548 136.236,17.1548 136,19.5C 134.869,18.3961 134.035,18.7295 133.5,20.5C 134.242,22.3497 135.242,23.0164 136.5,22.5C 135.585,23.3279 134.919,24.3279 134.5,25.5C 136.131,30.1847 137.297,34.8514 138,39.5C 136.534,37.6751 134.701,37.1751 132.5,38C 135.876,38.3071 137.21,40.1405 136.5,43.5C 134.738,43.6427 133.071,43.3094 131.5,42.5C 130.232,44.3043 129.565,46.3043 129.5,48.5C 131.167,48.5 132.833,48.5 134.5,48.5C 132.573,51.3275 131.906,54.3275 132.5,57.5C 131.579,55.244 129.912,54.244 127.5,54.5C 127.351,55.552 127.517,56.552 128,57.5C 131.877,59.7571 133.377,63.0904 132.5,67.5C 130.801,67.3398 129.134,67.5065 127.5,68C 130.621,70.9369 131.455,74.4369 130,78.5C 131.264,80.607 133.097,81.607 135.5,81.5C 135.201,83.973 134.201,86.1397 132.5,88C 134.05,95.1062 135.717,95.2729 137.5,88.5C 136.372,94.3766 135.372,100.377 134.5,106.5C 133.28,107.711 132.113,107.711 131,106.5C 130.329,98.7422 128.495,91.4088 125.5,84.5C 127.069,80.7654 126.735,77.2654 124.5,74C 125.167,73 125.833,72 126.5,71C 125.63,68.7228 124.963,66.3894 124.5,64C 125.754,60.8412 125.754,57.6746 124.5,54.5C 124.594,52.3115 125.261,50.3115 126.5,48.5C 125.617,47.452 124.95,46.2853 124.5,45C 128.1,42.8149 128.433,40.1483 125.5,37C 125.786,33.7136 125.786,30.3803 125.5,27C 127.567,23.48 129.067,19.6467 130,15.5C 131.586,14.624 133.086,13.624 134.5,12.5C 135.736,13.2458 137.07,13.5792 138.5,13.5 Z"/></g>
<g><path style="opacity:1" fill="#cd9f00" d="M 131.5,109.5 C 135.058,115.211 134.058,120.044 128.5,124C 125.009,124.922 121.675,126.089 118.5,127.5C 117.468,121.797 115.468,121.297 112.5,126C 112.95,127.285 113.617,128.452 114.5,129.5C 106.345,133.335 97.8452,136.335 89,138.5C 84.8825,137.049 82.0492,134.216 80.5,130C 91.5133,128.58 102.18,125.913 112.5,122C 119.174,118.264 125.507,114.098 131.5,109.5 Z"/></g>
<g><path style="opacity:1" fill="#c4171e" d="M 136.5,109.5 C 138.035,111.939 138.868,114.606 139,117.5C 136.835,115.347 136.002,112.681 136.5,109.5 Z"/></g>
<g><path style="opacity:1" fill="#e2b20c" d="M 138.5,121.5 C 139.564,125.008 140.064,128.674 140,132.5C 139.612,131.572 138.945,130.905 138,130.5C 136.606,131.613 135.439,132.947 134.5,134.5C 133.03,130.932 133.364,127.599 135.5,124.5C 137.45,125.152 138.45,124.152 138.5,121.5 Z"/></g>
<g><path style="opacity:1" fill="#a68000" d="M 114.5,124.5 C 115.75,124.577 116.583,125.244 117,126.5C 117.256,129.557 117.756,132.557 118.5,135.5C 117.167,136.833 115.833,136.833 114.5,135.5C 115.447,133.941 116.113,132.274 116.5,130.5C 115.349,128.675 114.682,126.675 114.5,124.5 Z"/></g>
<g><path style="opacity:1" fill="#c99c00" d="M 121.5,135.5 C 121.56,134.957 121.893,134.624 122.5,134.5C 129.255,137.084 135.922,137.084 142.5,134.5C 144.657,135.966 144.99,137.8 143.5,140C 140.724,141.037 137.89,141.87 135,142.5C 130.128,140.773 125.628,138.44 121.5,135.5 Z"/></g>
<g><path style="opacity:1" fill="#c69900" d="M 113.5,138.5 C 114.274,137.853 115.274,137.52 116.5,137.5C 118.319,137.342 119.652,138.009 120.5,139.5C 119.055,141.063 117.389,142.396 115.5,143.5C 114.83,141.709 114.163,140.042 113.5,138.5 Z"/></g>
<g><path style="opacity:1" fill="#c69900" d="M 112.5,139.5 C 113.598,140.601 113.765,141.934 113,143.5C 109.57,146.438 107.237,150.105 106,154.5C 101.155,160.079 96.822,159.746 93,153.5C 92.2506,152.365 92.4173,151.365 93.5,150.5C 95.2118,153.791 97.5451,154.291 100.5,152C 104.731,147.938 108.731,143.771 112.5,139.5 Z"/></g>
<g><path style="opacity:1" fill="#7f6300" d="M 138.5,142.5 C 139.978,142.238 141.311,142.571 142.5,143.5C 138.068,145.463 133.901,147.797 130,150.5C 129.175,148.299 129.675,146.466 131.5,145C 134.004,144.302 136.337,143.469 138.5,142.5 Z"/></g>
<g><path style="opacity:1" fill="#cc9e00" d="M 113.5,144.5 C 117.855,146.403 119.355,149.736 118,154.5C 116.497,157.94 113.997,159.94 110.5,160.5C 110.679,158.046 110.013,155.879 108.5,154C 109.79,150.585 111.456,147.418 113.5,144.5 Z"/></g>
<g><path style="opacity:1" fill="#e7b60c" d="M 124.5,144.5 C 129.334,145.537 129.834,147.871 126,151.5C 125.208,149.413 124.041,147.579 122.5,146C 123.416,145.722 124.082,145.222 124.5,144.5 Z"/></g>
<g><path style="opacity:1" fill="#826400" d="M 118.5,145.5 C 121.37,146.528 123.37,148.528 124.5,151.5C 122.9,155.097 120.567,158.097 117.5,160.5C 117.167,160.333 116.833,160.167 116.5,160C 120.954,155.685 121.621,150.852 118.5,145.5 Z"/></g>
<g><path style="opacity:1" fill="#a38009" d="M 145.5,152.5 C 146.943,151.297 148.609,150.797 150.5,151C 149.095,152.269 147.429,152.769 145.5,152.5 Z"/></g>
<g><path style="opacity:1" fill="#ecba0d" d="M 125.5,152.5 C 127.144,152.286 128.644,152.62 130,153.5C 134.156,159.854 136.656,166.854 137.5,174.5C 137.167,175.833 136.833,177.167 136.5,178.5C 132.967,171.78 129.133,165.114 125,158.5C 124.51,156.455 124.677,154.455 125.5,152.5 Z"/></g>
<g><path style="opacity:1" fill="#d0a40b" d="M 145.5,152.5 C 143.866,153.161 142.033,153.494 140,153.5C 137.625,153.596 135.459,153.096 133.5,152C 137.441,152.267 141.441,152.434 145.5,152.5 Z"/></g>
<g><path style="opacity:1" fill="#f4a380" d="M 149.5,163.5 C 148.151,162.203 146.818,162.37 145.5,164C 145.833,164.333 146.167,164.667 146.5,165C 144.604,166.808 144.104,168.975 145,171.5C 145.383,170.944 145.883,170.611 146.5,170.5C 147.497,170.47 148.164,170.97 148.5,172C 148.808,178.878 145.808,181.378 139.5,179.5C 139.5,179.167 139.5,178.833 139.5,178.5C 139.449,176.43 140.115,174.597 141.5,173C 141.252,171.251 140.252,170.418 138.5,170.5C 137.193,165.081 135.193,159.915 132.5,155C 135.978,154.733 139.145,155.566 142,157.5C 142.689,156.643 143.522,155.977 144.5,155.5C 146.121,157.624 147.954,159.624 150,161.5C 150.692,162.437 150.525,163.103 149.5,163.5 Z"/></g>
<g><path style="opacity:1" fill="#54120d" d="M 106.5,155.5 C 108.089,158.577 109.756,161.743 111.5,165C 111.149,168.104 110.649,167.937 110,164.5C 107.851,166.724 108.351,168.224 111.5,169C 110.101,169.595 108.768,169.428 107.5,168.5C 106.333,170.167 105.167,171.833 104,173.5C 101.43,166.98 102.263,160.98 106.5,155.5 Z"/></g>
<g><path style="opacity:1" fill="#4e060b" d="M 112.5,170.5 C 112.183,167.428 112.516,164.428 113.5,161.5C 115.115,162.154 116.782,162.654 118.5,163C 117.368,166.288 115.368,168.788 112.5,170.5 Z"/></g>
<g><path style="opacity:1" fill="#680f15" d="M 149.5,163.5 C 149.312,166.206 148.312,168.539 146.5,170.5C 145.883,170.611 145.383,170.944 145,171.5C 144.104,168.975 144.604,166.808 146.5,165C 146.167,164.667 145.833,164.333 145.5,164C 146.818,162.37 148.151,162.203 149.5,163.5 Z"/></g>
<g><path style="opacity:1" fill="#b98f00" d="M 122.5,168.5 C 123.234,169.708 123.567,171.041 123.5,172.5C 121.167,172.5 118.833,172.5 116.5,172.5C 117.609,168.506 118.942,164.506 120.5,160.5C 121.446,162.075 121.446,163.742 120.5,165.5C 120.453,167.038 121.12,168.038 122.5,168.5 Z"/></g>
<g><path style="opacity:1" fill="#e0784c" d="M 132.5,183.5 C 130.309,184.869 127.975,185.869 125.5,186.5C 123.973,186.573 122.973,185.906 122.5,184.5C 123.492,184.672 124.158,184.338 124.5,183.5C 120.697,181.576 117.03,179.409 113.5,177C 114.191,175.933 114.691,174.766 115,173.5C 118.449,174.61 121.949,174.61 125.5,173.5C 125.33,172.178 125.663,171.011 126.5,170C 125.255,169.209 123.922,168.709 122.5,168.5C 121.862,165.247 122.028,161.913 123,158.5C 124.505,160.298 124.672,162.132 123.5,164C 125.531,164.632 127.198,165.799 128.5,167.5C 128.291,168.086 127.957,168.586 127.5,169C 128.931,169.465 130.097,170.299 131,171.5C 131.797,174.22 132.963,176.72 134.5,179C 131.096,179.014 128.43,180.347 126.5,183C 128.379,182.595 130.213,181.762 132,180.5C 132.833,180.667 133.667,180.833 134.5,181C 133.619,181.708 132.953,182.542 132.5,183.5 Z"/></g>
<g><path style="opacity:1" fill="#bd9200" d="M 112.5,170.5 C 112.966,172.201 112.966,173.701 112.5,175C 110.527,175.495 108.527,175.662 106.5,175.5C 106.488,171.554 108.488,169.887 112.5,170.5 Z"/></g>
<g><path style="opacity:1" fill="#6c2218" d="M 138.5,170.5 C 140.252,170.418 141.252,171.251 141.5,173C 140.115,174.597 139.449,176.43 139.5,178.5C 138.527,176.052 138.194,173.385 138.5,170.5 Z"/></g>
<g><path style="opacity:1" fill="#2a2e8f" d="M 108.5,178.5 C 112.716,181.397 117.382,183.397 122.5,184.5C 122.973,185.906 123.973,186.573 125.5,186.5C 126.15,186.804 126.817,187.137 127.5,187.5C 128.657,190.784 128.824,194.118 128,197.5C 127.292,198.381 126.458,199.047 125.5,199.5C 121.33,199.312 118.663,197.312 117.5,193.5C 113.153,193.68 109.819,191.847 107.5,188C 105.559,187.257 103.726,187.424 102,188.5C 103.007,185.415 104.173,182.248 105.5,179C 104.67,177.535 104.504,176.035 105,174.5C 105.66,176.324 106.827,177.657 108.5,178.5 Z"/></g>
<g><path style="opacity:1" fill="#c89b00" d="M 145.5,187.5 C 145.414,186.504 145.748,185.671 146.5,185C 144.893,185.019 143.226,185.185 141.5,185.5C 141.5,184.833 141.5,184.167 141.5,183.5C 143.203,181.859 145.37,180.859 148,180.5C 148,181.833 148,183.167 148,184.5C 149.163,182.715 149.83,180.715 150,178.5C 154.578,177.462 155.578,179.129 153,183.5C 150.815,185.54 148.315,186.874 145.5,187.5 Z"/></g>
<g><path style="opacity:1" fill="#bc161c" d="M 139.5,179.5 C 139.5,180.167 139.5,180.833 139.5,181.5C 137.519,183.303 135.352,184.97 133,186.5C 132.333,190.167 132.333,193.833 133,197.5C 134.113,196.695 135.279,196.028 136.5,195.5C 135.432,197.74 133.766,199.574 131.5,201C 129.011,201.941 127.011,201.441 125.5,199.5C 126.458,199.047 127.292,198.381 128,197.5C 128.824,194.118 128.657,190.784 127.5,187.5C 126.817,187.137 126.15,186.804 125.5,186.5C 127.975,185.869 130.309,184.869 132.5,183.5C 134.833,182.167 137.167,180.833 139.5,179.5 Z"/></g>
<g><path style="opacity:1" fill="#e31a22" d="M 108.5,178.5 C 108.735,177.903 109.235,177.57 110,177.5C 114.472,180.379 119.305,182.379 124.5,183.5C 124.158,184.338 123.492,184.672 122.5,184.5C 117.382,183.397 112.716,181.397 108.5,178.5 Z"/></g>
<g><path style="opacity:1" fill="#e7dcaa" d="M 271.5,186.5 C 268.432,187.022 265.432,187.855 262.5,189C 264.134,189.494 265.801,189.66 267.5,189.5C 267.567,190.959 267.234,192.292 266.5,193.5C 265.85,193.804 265.183,194.137 264.5,194.5C 263.38,193.167 262.047,192.667 260.5,193C 261.988,194.717 263.821,195.884 266,196.5C 266.167,196.833 266.333,197.167 266.5,197.5C 265.667,197.833 264.833,198.167 264,198.5C 260.875,197.744 257.709,197.411 254.5,197.5C 247.323,197.483 245.156,194.149 248,187.5C 249.145,186.364 250.312,185.364 251.5,184.5C 258.704,182.934 266.038,181.934 273.5,181.5C 275.067,181.477 276.4,181.977 277.5,183C 275.113,183.564 273.113,184.73 271.5,186.5 Z"/></g>
<g><path style="opacity:1" fill="#252a84" d="M 139.5,181.5 C 140.167,182.167 140.833,182.833 141.5,183.5C 141.5,184.167 141.5,184.833 141.5,185.5C 140.828,189.35 139.161,192.683 136.5,195.5C 135.279,196.028 134.113,196.695 133,197.5C 132.333,193.833 132.333,190.167 133,186.5C 135.352,184.97 137.519,183.303 139.5,181.5 Z"/></g>
<g><path style="opacity:1" fill="#b28a01" d="M 156.5,178.5 C 158.624,179.031 160.124,180.365 161,182.5C 161.667,183.167 161.667,183.833 161,184.5C 160.163,182.993 158.996,182.493 157.5,183C 158.685,184.353 160.019,185.52 161.5,186.5C 161.333,186.833 161.167,187.167 161,187.5C 154.409,183.381 153.909,184.047 159.5,189.5C 157.806,190.29 156.306,191.956 155,194.5C 152.782,192.818 150.949,190.818 149.5,188.5C 153.439,186.237 155.773,182.904 156.5,178.5 Z"/></g>
<g><path style="opacity:1" fill="#e31a22" d="M 246.5,185.5 C 244.634,187.001 243.301,189.001 242.5,191.5C 241.605,194.738 241.605,197.905 242.5,201C 237.844,201.665 233.177,202.165 228.5,202.5C 228.5,201.167 228.5,199.833 228.5,198.5C 230.085,194.128 232.085,189.794 234.5,185.5C 238.135,184.373 241.801,183.373 245.5,182.5C 246.386,183.325 246.719,184.325 246.5,185.5 Z"/></g>
<g><path style="opacity:1" fill="#283199" d="M 228.5,198.5 C 227.897,200.19 226.897,201.69 225.5,203C 210.065,205.572 194.732,208.572 179.5,212C 173.305,213.431 167.305,215.431 161.5,218C 161,218.5 160.5,219 160,219.5C 158.334,225.478 158.168,231.478 159.5,237.5C 158.833,237.167 158.167,236.833 157.5,236.5C 157.88,234.302 157.213,232.635 155.5,231.5C 155.818,228.519 154.818,226.185 152.5,224.5C 151.644,214.204 150.978,203.871 150.5,193.5C 151.594,194.582 152.927,195.248 154.5,195.5C 156.332,194.179 158.332,193.179 160.5,192.5C 160.5,191.167 160.5,189.833 160.5,188.5C 161.5,188.5 162.5,188.5 163.5,188.5C 163.281,187.325 163.614,186.325 164.5,185.5C 168.028,187.731 171.861,189.065 176,189.5C 194.719,187.795 213.386,186.129 232,184.5C 231.358,186.807 230.358,189.141 229,191.5C 228.503,193.81 228.337,196.143 228.5,198.5 Z"/></g>
<g><path style="opacity:1" fill="#7d775c" d="M 271.5,186.5 C 271.5,187.167 271.5,187.833 271.5,188.5C 271.508,194.208 271.008,194.541 270,189.5C 269.943,191.91 268.776,193.244 266.5,193.5C 267.234,192.292 267.567,190.959 267.5,189.5C 265.801,189.66 264.134,189.494 262.5,189C 265.432,187.855 268.432,187.022 271.5,186.5 Z"/></g>
<g><path style="opacity:1" fill="#c29600" d="M 98.5,193.5 C 98.5,192.5 98.5,191.5 98.5,190.5C 100.787,190.276 102.953,189.609 105,188.5C 107.145,190.645 109.312,192.812 111.5,195C 109.983,196.508 108.149,197.342 106,197.5C 103.378,196.375 100.878,195.041 98.5,193.5 Z"/></g>
<g><path style="opacity:1" fill="#eebb0d" d="M 140.5,192.5 C 143.949,197.672 144.116,203.005 141,208.5C 130.179,213.366 121.679,210.533 115.5,200C 116.5,199.5 117.5,199 118.5,198.5C 125.054,203.704 131.554,203.704 138,198.5C 139.122,196.593 139.955,194.593 140.5,192.5 Z"/></g>
<g><path style="opacity:1" fill="#4e0d0c" d="M 246.5,185.5 C 245.916,188.003 245.249,190.503 244.5,193C 245.348,194.666 246.348,196.166 247.5,197.5C 246.698,202.307 245.032,202.64 242.5,198.5C 243.766,196.028 243.766,193.694 242.5,191.5C 243.301,189.001 244.634,187.001 246.5,185.5 Z"/></g>
<g><path style="opacity:1" fill="#6a5625" d="M 251.5,184.5 C 250.312,185.364 249.145,186.364 248,187.5C 245.156,194.149 247.323,197.483 254.5,197.5C 252.167,197.5 249.833,197.5 247.5,197.5C 246.348,196.166 245.348,194.666 244.5,193C 245.249,190.503 245.916,188.003 246.5,185.5C 248.042,184.699 249.708,184.366 251.5,184.5 Z"/></g>
<g><path style="opacity:1" fill="#cec497" d="M 271.5,188.5 C 272.222,188.918 272.722,189.584 273,190.5C 273.957,188.291 275.124,188.457 276.5,191C 274.09,193.533 271.09,195.033 267.5,195.5C 266.702,195.043 266.369,194.376 266.5,193.5C 268.776,193.244 269.943,191.91 270,189.5C 271.008,194.541 271.508,194.208 271.5,188.5 Z"/></g>
<g><path style="opacity:1" fill="#c29700" d="M 98.5,193.5 C 99.4577,194.962 100.624,196.295 102,197.5C 102.692,198.437 102.525,199.103 101.5,199.5C 99.5168,198.529 97.5168,197.529 95.5,196.5C 94.4331,194.121 95.4331,193.121 98.5,193.5 Z"/></g>
<g><path style="opacity:1" fill="#d9ab0c" d="M 112.5,194.5 C 113.833,194.5 115.167,194.5 116.5,194.5C 116.833,197.5 115.5,198.833 112.5,198.5C 112.5,197.167 112.5,195.833 112.5,194.5 Z"/></g>
<g><path style="opacity:1" fill="#c49800" d="M 94.5,197.5 C 94.9175,198.222 95.5842,198.722 96.5,199C 94.2763,201.682 91.6096,202.182 88.5,200.5C 87.1938,199.533 86.5271,198.199 86.5,196.5C 89.3854,196.194 92.0521,196.527 94.5,197.5 Z"/></g>
<g><path style="opacity:1" fill="#2b2f93" d="M 140.5,221.5 C 138.926,223.102 138.259,225.102 138.5,227.5C 133.602,236.406 128.269,245.072 122.5,253.5C 120.674,255.147 119.34,257.147 118.5,259.5C 116.357,261.131 114.69,263.131 113.5,265.5C 111.628,263.396 109.295,262.063 106.5,261.5C 106.461,260.417 106.127,259.417 105.5,258.5C 107.481,254.878 109.148,251.212 110.5,247.5C 119.227,237.357 120.727,226.024 115,213.5C 111.849,210.593 108.516,207.926 105,205.5C 104.505,203.527 104.338,201.527 104.5,199.5C 106.55,199.039 108.55,198.372 110.5,197.5C 115.11,203.613 120.777,208.447 127.5,212C 132.762,213.163 137.596,212.329 142,209.5C 142.473,213.612 141.973,217.612 140.5,221.5 Z"/></g>
<g><path style="opacity:1" fill="#2a2105" d="M 95.5,196.5 C 97.5168,197.529 99.5168,198.529 101.5,199.5C 100.419,201.134 99.0855,202.467 97.5,203.5C 96.5595,206.125 95.3928,206.125 94,203.5C 93.4309,207.361 92.5976,207.361 91.5,203.5C 90.8281,204.949 90.1614,206.282 89.5,207.5C 89.4451,204.791 88.7784,202.791 87.5,201.5C 87.5,200.833 87.8333,200.5 88.5,200.5C 91.6096,202.182 94.2763,201.682 96.5,199C 95.5842,198.722 94.9175,198.222 94.5,197.5C 95.1667,197.5 95.5,197.167 95.5,196.5 Z"/></g>
<g><path style="opacity:1" fill="#b48e16" d="M 106.5,200.5 C 107.5,200.5 108.5,200.5 109.5,200.5C 109.5,201.833 109.5,203.167 109.5,204.5C 106.046,204.733 105.046,203.4 106.5,200.5 Z"/></g>
<g><path style="opacity:1" fill="#b82347" d="M 150.5,193.5 C 150.978,203.871 151.644,214.204 152.5,224.5C 151.883,224.389 151.383,224.056 151,223.5C 149.324,213.371 149.157,203.371 150.5,193.5 Z"/></g>
<g><path style="opacity:1" fill="#af8702" d="M 87.5,201.5 C 88.7784,202.791 89.4451,204.791 89.5,207.5C 84.1942,207.207 80.5276,204.541 78.5,199.5C 79.4036,196.261 81.4036,193.927 84.5,192.5C 95.139,193.527 95.139,194.527 84.5,195.5C 84.461,198.089 85.461,200.089 87.5,201.5 Z"/></g>
<g><path style="opacity:1" fill="#2a319a" d="M 102.5,201.5 C 103.165,203.369 103.831,205.369 104.5,207.5C 114.586,213.342 118.419,222.009 116,233.5C 114.437,238.29 112.604,242.956 110.5,247.5C 107.434,250.982 105.1,254.982 103.5,259.5C 104.005,260.919 105.005,261.585 106.5,261.5C 107.891,263.89 109.891,265.557 112.5,266.5C 108.72,271.885 105.053,277.385 101.5,283C 96.0717,283.605 91.0717,284.938 86.5,287C 86.9328,276.733 88.2662,266.567 90.5,256.5C 88.3302,250.828 86.1636,245.162 84,239.5C 82.1316,238.328 80.2983,238.495 78.5,240C 72.3768,243.789 67.2102,248.622 63,254.5C 59.7518,270.198 56.9185,285.865 54.5,301.5C 51.091,301.249 47.7577,301.583 44.5,302.5C 42.0665,307.181 40.7331,312.181 40.5,317.5C 37.1476,317.216 34.1476,316.05 31.5,314C 32.0659,313.005 32.7326,312.172 33.5,311.5C 34.9464,312.613 36.6131,312.78 38.5,312C 39.3366,310.989 39.67,309.822 39.5,308.5C 38.1667,308.5 36.8333,308.5 35.5,308.5C 33.631,306.365 32.9644,303.698 33.5,300.5C 34.262,297.547 35.5953,294.88 37.5,292.5C 37.5,291.167 37.5,289.833 37.5,288.5C 34.6112,291.491 33.2779,295.158 33.5,299.5C 32.325,299.719 31.325,299.386 30.5,298.5C 35.5049,288.477 38.0049,277.811 38,266.5C 39.6446,260.218 40.9779,253.885 42,247.5C 49.2044,233.471 59.0377,221.471 71.5,211.5C 72.5312,208.3 74.1979,205.467 76.5,203C 79.0862,205.187 82.0862,207.187 85.5,209C 89.5,209.667 93.5,209.667 97.5,209C 99.5204,206.625 101.187,204.125 102.5,201.5 Z"/></g>
<g><path style="opacity:1" fill="#c79a00" d="M 97.5,203.5 C 98.6843,204.688 98.6843,205.855 97.5,207C 95.3018,207.373 93.1351,207.873 91,208.5C 90.2352,208.43 89.7352,208.097 89.5,207.5C 90.1614,206.282 90.8281,204.949 91.5,203.5C 92.5976,207.361 93.4309,207.361 94,203.5C 95.3928,206.125 96.5595,206.125 97.5,203.5 Z"/></g>
<g><path style="opacity:1" fill="#df1e2d" d="M 104.5,199.5 C 104.338,201.527 104.505,203.527 105,205.5C 108.516,207.926 111.849,210.593 115,213.5C 120.727,226.024 119.227,237.357 110.5,247.5C 112.604,242.956 114.437,238.29 116,233.5C 118.419,222.009 114.586,213.342 104.5,207.5C 103.831,205.369 103.165,203.369 102.5,201.5C 102.833,200.5 103.5,199.833 104.5,199.5 Z"/></g>
<g><path style="opacity:1" fill="#d1a511" d="M 118.5,210.5 C 122.161,210.35 123.161,211.85 121.5,215C 120.552,215.483 119.552,215.649 118.5,215.5C 118.5,213.833 118.5,212.167 118.5,210.5 Z"/></g>
<g><path style="opacity:1" fill="#daac0c" d="M 121.5,221.5 C 124.861,222.203 125.194,223.537 122.5,225.5C 120.358,224.563 120.024,223.23 121.5,221.5 Z"/></g>
<g><path style="opacity:1" fill="#ae244c" d="M 152.5,224.5 C 154.818,226.185 155.818,228.519 155.5,231.5C 153.707,229.574 152.707,227.241 152.5,224.5 Z"/></g>
<g><path style="opacity:1" fill="#987816" d="M 120.5,230.5 C 123.956,231.536 124.29,233.203 121.5,235.5C 119.296,234.218 118.962,232.551 120.5,230.5 Z"/></g>
<g><path style="opacity:1" fill="#292e8d" d="M 145.5,187.5 C 147.413,189.291 149.08,191.291 150.5,193.5C 149.157,203.371 149.324,213.371 151,223.5C 151.383,224.056 151.883,224.389 152.5,224.5C 152.707,227.241 153.707,229.574 155.5,231.5C 155.12,233.698 155.787,235.365 157.5,236.5C 157.229,238.38 157.896,239.713 159.5,240.5C 160.421,243.684 161.421,246.85 162.5,250C 162.272,250.399 161.938,250.565 161.5,250.5C 160.414,250.62 159.747,251.287 159.5,252.5C 159.747,253.713 160.414,254.38 161.5,254.5C 162.376,254.369 163.043,254.702 163.5,255.5C 162.035,257.599 160.701,259.766 159.5,262C 161.299,266.761 162.632,271.261 163.5,275.5C 163.489,277.045 163.156,278.378 162.5,279.5C 162.167,279.5 161.833,279.5 161.5,279.5C 161.44,278.957 161.107,278.624 160.5,278.5C 155.289,280.874 150.456,283.874 146,287.5C 145.292,286.619 144.458,285.953 143.5,285.5C 143.249,283.83 142.582,282.33 141.5,281C 143.058,280.79 144.391,280.29 145.5,279.5C 145.5,278.167 145.5,276.833 145.5,275.5C 144.041,275.433 142.708,275.766 141.5,276.5C 140.778,276.918 140.278,277.584 140,278.5C 138.731,277.095 138.231,275.429 138.5,273.5C 139.833,263.833 139.833,254.167 138.5,244.5C 138.035,240.208 138.868,236.208 141,232.5C 141.72,234.255 142.887,235.089 144.5,235C 143.624,233.414 142.624,231.914 141.5,230.5C 142.309,228.929 142.643,227.262 142.5,225.5C 143.338,225.158 143.672,224.492 143.5,223.5C 144.322,221.611 145.155,219.611 146,217.5C 146.781,209.18 147.281,200.847 147.5,192.5C 142.705,193.141 141.039,191.307 142.5,187C 143.577,186.53 144.577,186.697 145.5,187.5 Z"/></g>
<g><path style="opacity:1" fill="#e2b20c" d="M 150.5,228.5 C 151.586,228.62 152.253,229.287 152.5,230.5C 152.167,231.167 151.833,231.833 151.5,232.5C 150.571,231.311 150.238,229.978 150.5,228.5 Z"/></g>
<g><path style="opacity:1" fill="#c99f17" d="M 147.5,220.5 C 148.586,220.62 149.253,221.287 149.5,222.5C 149.167,223.167 148.833,223.833 148.5,224.5C 147.571,223.311 147.238,221.978 147.5,220.5 Z"/></g>
<g><path style="opacity:1" fill="#c12140" d="M 155.5,231.5 C 157.213,232.635 157.88,234.302 157.5,236.5C 155.787,235.365 155.12,233.698 155.5,231.5 Z"/></g>
<g><path style="opacity:1" fill="#07040d" d="M 142.5,225.5 C 142.643,227.262 142.309,228.929 141.5,230.5C 142.624,231.914 143.624,233.414 144.5,235C 142.887,235.089 141.72,234.255 141,232.5C 138.868,236.208 138.035,240.208 138.5,244.5C 138.167,244.5 137.833,244.5 137.5,244.5C 137.784,242.585 137.451,240.919 136.5,239.5C 138.324,234.675 140.324,230.008 142.5,225.5 Z"/></g>
<g><path style="opacity:1" fill="#cfa30b" d="M 117.5,238.5 C 119.346,238.222 120.68,238.889 121.5,240.5C 120.68,242.111 119.346,242.778 117.5,242.5C 117.5,241.167 117.5,239.833 117.5,238.5 Z"/></g>
<g><path style="opacity:1" fill="#c22140" d="M 157.5,236.5 C 158.167,236.833 158.833,237.167 159.5,237.5C 159.5,238.5 159.5,239.5 159.5,240.5C 157.896,239.713 157.229,238.38 157.5,236.5 Z"/></g>
<g><path style="opacity:1" fill="#e0b10c" d="M 142.5,238.5 C 144.898,239.882 145.065,241.549 143,243.5C 141.212,241.977 141.045,240.31 142.5,238.5 Z"/></g>
<g><path style="opacity:1" fill="#8d583b" d="M 143.5,223.5 C 143.672,224.492 143.338,225.158 142.5,225.5C 140.324,230.008 138.324,234.675 136.5,239.5C 132.169,244.152 128.835,249.486 126.5,255.5C 123.777,258.586 121.277,261.92 119,265.5C 114.556,272.726 110.39,280.059 106.5,287.5C 105.542,287.953 104.708,288.619 104,289.5C 102.513,287.728 102.18,285.728 103,283.5C 108.437,275.613 113.604,267.613 118.5,259.5C 120.796,258.267 122.13,256.267 122.5,253.5C 127.626,247.849 132.292,241.682 136.5,235C 137.871,232.681 138.538,230.181 138.5,227.5C 138.259,225.102 138.926,223.102 140.5,221.5C 141.117,221.389 141.617,221.056 142,220.5C 144.133,211.535 144.966,202.535 144.5,193.5C 144.833,193.667 145.167,193.833 145.5,194C 146.122,195.569 146.456,197.236 146.5,199C 145.966,207.253 144.966,215.419 143.5,223.5 Z"/></g>
<g><path style="opacity:1" fill="#100a0d" d="M 138.5,227.5 C 138.538,230.181 137.871,232.681 136.5,235C 132.292,241.682 127.626,247.849 122.5,253.5C 128.269,245.072 133.602,236.406 138.5,227.5 Z"/></g>
<g><path style="opacity:1" fill="#a4820e" d="M 157.5,244.5 C 159.465,244.948 159.798,245.948 158.5,247.5C 157.614,246.675 157.281,245.675 157.5,244.5 Z"/></g>
<g><path style="opacity:1" fill="#d0a410" d="M 113.5,246.5 C 114.833,246.5 116.167,246.5 117.5,246.5C 117.5,247.5 117.5,248.5 117.5,249.5C 115.027,249.912 113.694,248.912 113.5,246.5 Z"/></g>
<g><path style="opacity:1" fill="#100a0b" d="M 136.5,239.5 C 134.165,245.514 130.831,250.848 126.5,255.5C 128.835,249.486 132.169,244.152 136.5,239.5 Z"/></g>
<g><path style="opacity:1" fill="#be960d" d="M 142.5,246.5 C 143.995,246.415 144.995,247.081 145.5,248.5C 144.68,250.111 143.346,250.778 141.5,250.5C 141.433,249.041 141.766,247.708 142.5,246.5 Z"/></g>
<g><path style="opacity:1" fill="#fefffe" d="M 79.5,249.5 C 83.0815,253.667 83.9148,258.334 82,263.5C 81.6667,270.833 81.3333,278.167 81,285.5C 77.86,288.835 74.36,291.835 70.5,294.5C 69.3354,301.811 69.1687,309.144 70,316.5C 71.2464,320.082 73.5797,322.749 77,324.5C 76.9813,326.107 76.8146,327.774 76.5,329.5C 69.3795,328.213 65.0462,324.046 63.5,317C 62.4911,315.832 61.4911,314.665 60.5,313.5C 61.8333,308.833 61.8333,304.167 60.5,299.5C 63.3028,286.945 65.8028,274.278 68,261.5C 70.6651,256.336 74.4985,252.336 79.5,249.5 Z M 77.5,255.5 C 74.7481,258.084 72.5814,261.084 71,264.5C 69.608,272.518 68.108,280.518 66.5,288.5C 66.8333,289.5 67.1667,290.5 67.5,291.5C 71.36,288.835 74.86,285.835 78,282.5C 78.2134,274.631 78.7134,266.798 79.5,259C 79.1918,257.541 78.5251,256.374 77.5,255.5 Z M 65.5,295.5 C 64.2584,301.145 64.2584,306.812 65.5,312.5C 66.8157,306.68 66.8157,301.013 65.5,295.5 Z"/></g>
<g><path style="opacity:1" fill="#da1f31" d="M 110.5,247.5 C 109.148,251.212 107.481,254.878 105.5,258.5C 106.127,259.417 106.461,260.417 106.5,261.5C 105.005,261.585 104.005,260.919 103.5,259.5C 105.1,254.982 107.434,250.982 110.5,247.5 Z"/></g>
<g><path style="opacity:1" fill="#141849" d="M 137.5,244.5 C 137.833,244.5 138.167,244.5 138.5,244.5C 139.833,254.167 139.833,263.833 138.5,273.5C 138.806,263.75 138.473,254.084 137.5,244.5 Z"/></g>
<g><path style="opacity:1" fill="#c29913" d="M 161.5,250.5 C 162.833,251.833 162.833,253.167 161.5,254.5C 160.414,254.38 159.747,253.713 159.5,252.5C 159.747,251.287 160.414,250.62 161.5,250.5 Z"/></g>
<g><path style="opacity:1" fill="#d2a511" d="M 143.5,254.5 C 145.048,254.821 145.715,255.821 145.5,257.5C 142.752,257.598 142.086,256.598 143.5,254.5 Z"/></g>
<g><path style="opacity:1" fill="#b28d19" d="M 109.5,255.5 C 110.978,255.238 112.311,255.571 113.5,256.5C 111.537,259.194 110.203,258.861 109.5,255.5 Z"/></g>
<g><path style="opacity:1" fill="#110a0e" d="M 122.5,253.5 C 122.13,256.267 120.796,258.267 118.5,259.5C 119.34,257.147 120.674,255.147 122.5,253.5 Z"/></g>
<g><path style="opacity:1" fill="#3e47ca" d="M 54.5,259.5 C 55.8333,259.5 57.1667,259.5 58.5,259.5C 57.8837,265.321 56.0504,270.655 53,275.5C 51.6124,274.446 50.1124,274.28 48.5,275C 45.8723,276.626 43.539,278.626 41.5,281C 40.5,281.667 39.5,281.667 38.5,281C 42.9472,277.743 45.9472,273.576 47.5,268.5C 45.0582,268.881 44.3915,268.214 45.5,266.5C 49.1022,264.874 52.1022,262.541 54.5,259.5 Z"/></g>
<g><path style="opacity:1" fill="#d61e32" d="M 106.5,261.5 C 109.295,262.063 111.628,263.396 113.5,265.5C 113.5,266.167 113.167,266.5 112.5,266.5C 109.891,265.557 107.891,263.89 106.5,261.5 Z"/></g>
<g><path style="opacity:1" fill="#c79d0f" d="M 143.5,262.5 C 145.465,262.948 145.798,263.948 144.5,265.5C 142.481,264.867 142.147,263.867 143.5,262.5 Z"/></g>
<g><path style="opacity:1" fill="#cda210" d="M 102.5,267.5 C 104.167,267.5 105.833,267.5 107.5,267.5C 107.65,271.161 106.15,272.161 103,270.5C 102.517,269.552 102.351,268.552 102.5,267.5 Z"/></g>
<g><path style="opacity:1" fill="#dcad0c" d="M 142.5,269.5 C 144.973,269.947 145.14,270.947 143,272.5C 142.517,271.552 142.351,270.552 142.5,269.5 Z"/></g>
<g><path style="opacity:1" fill="#b48e0e" d="M 99.5,273.5 C 104.218,274.319 104.552,275.986 100.5,278.5C 97.0749,277.249 96.7416,275.582 99.5,273.5 Z"/></g>
<g><path style="opacity:1" fill="#e8b710" d="M 145.5,279.5 C 144.167,279.5 142.833,279.5 141.5,279.5C 141.5,278.5 141.5,277.5 141.5,276.5C 142.708,275.766 144.041,275.433 145.5,275.5C 145.5,276.833 145.5,278.167 145.5,279.5 Z"/></g>
<g><path style="opacity:1" fill="#1c1837" d="M 138.5,273.5 C 138.231,275.429 138.731,277.095 140,278.5C 140.278,277.584 140.778,276.918 141.5,276.5C 141.5,277.5 141.5,278.5 141.5,279.5C 142.833,279.5 144.167,279.5 145.5,279.5C 144.391,280.29 143.058,280.79 141.5,281C 142.582,282.33 143.249,283.83 143.5,285.5C 141.682,283.922 140.682,284.422 140.5,287C 139.824,292.902 139.49,298.069 139.5,302.5C 138.728,298.548 138.395,294.548 138.5,290.5C 138.821,289.183 139.154,287.849 139.5,286.5C 139.253,285.287 138.586,284.62 137.5,284.5C 138.209,283.596 139.209,283.263 140.5,283.5C 140.716,281.319 139.883,279.653 138,278.5C 137.22,276.613 137.387,274.946 138.5,273.5 Z"/></g>
<g><path style="opacity:1" fill="#283199" d="M 136.5,239.5 C 137.451,240.919 137.784,242.585 137.5,244.5C 138.473,254.084 138.806,263.75 138.5,273.5C 137.387,274.946 137.22,276.613 138,278.5C 139.883,279.653 140.716,281.319 140.5,283.5C 139.209,283.263 138.209,283.596 137.5,284.5C 138.586,284.62 139.253,285.287 139.5,286.5C 139.154,287.849 138.821,289.183 138.5,290.5C 130.767,289.931 123.434,291.598 116.5,295.5C 113.87,294.622 111.203,293.955 108.5,293.5C 108.351,294.552 108.517,295.552 109,296.5C 113.253,299.045 116.087,302.212 117.5,306C 115.833,306.667 114.167,306.667 112.5,306C 111.534,304.322 110.201,303.655 108.5,304C 110.709,305.873 112.542,308.04 114,310.5C 113.113,314.015 113.446,317.348 115,320.5C 114.107,321.081 113.107,321.415 112,321.5C 109.321,320.72 106.821,319.887 104.5,319C 107.268,325.37 110.435,331.537 114,337.5C 115.273,344.295 113.607,350.295 109,355.5C 107.686,358.089 107.019,360.756 107,363.5C 113.83,349.036 122.83,336.036 134,324.5C 138.094,317.498 139.928,310.165 139.5,302.5C 139.49,298.069 139.824,292.902 140.5,287C 140.682,284.422 141.682,283.922 143.5,285.5C 143.709,286.922 144.209,288.255 145,289.5C 150.311,285.765 155.811,282.432 161.5,279.5C 161.833,279.5 162.167,279.5 162.5,279.5C 161.563,282.269 160.396,284.936 159,287.5C 159.077,291.229 158.91,294.896 158.5,298.5C 158.352,305.695 160.352,312.028 164.5,317.5C 165.93,321.354 167.597,325.021 169.5,328.5C 172.638,342.328 174.804,356.328 176,370.5C 179.108,378.536 180.275,386.869 179.5,395.5C 176.507,394.865 173.507,394.699 170.5,395C 167.93,397.067 165.93,399.567 164.5,402.5C 163.167,403.167 161.833,403.833 160.5,404.5C 159.264,403.754 157.93,403.421 156.5,403.5C 154.679,396.434 153.013,389.268 151.5,382C 146.889,372.052 142.056,362.219 137,352.5C 136,348.5 135,344.5 134,340.5C 132.604,338.473 130.938,338.14 129,339.5C 126.036,345.728 123.536,352.062 121.5,358.5C 121.565,358.062 121.399,357.728 121,357.5C 116.125,363.425 111.625,369.592 107.5,376C 103.796,376.804 100.296,376.304 97,374.5C 96.2496,375.126 95.4162,375.626 94.5,376C 96.6349,377.381 98.9682,378.381 101.5,379C 104.129,382.199 103.796,385.199 100.5,388C 97.6529,388.944 95.1529,388.444 93,386.5C 92.8433,390.182 94.6767,392.182 98.5,392.5C 98.5,393.833 98.5,395.167 98.5,396.5C 95.054,396.889 91.7206,397.722 88.5,399C 90.5161,399.899 92.1828,401.233 93.5,403C 91.7195,406.471 92.5528,408.971 96,410.5C 103.891,408.688 104.225,406.354 97,403.5C 96.0666,399.598 97.5666,397.098 101.5,396C 104.854,395.545 108.187,395.045 111.5,394.5C 111.611,395.117 111.944,395.617 112.5,396C 109.512,402.5 107.346,409.333 106,416.5C 105.667,416.833 105.333,417.167 105,417.5C 104.758,414.928 103.425,413.261 101,412.5C 99.0045,414.23 96.8379,415.563 94.5,416.5C 94.2759,413.278 92.6093,411.278 89.5,410.5C 86.0874,411.628 83.2541,413.628 81,416.5C 82.3071,410.842 83.9738,405.176 86,399.5C 88.0023,385.153 90.169,370.82 92.5,356.5C 90.5128,349.184 88.5128,341.85 86.5,334.5C 87.7472,332.677 88.4139,330.677 88.5,328.5C 88.3284,327.508 88.6618,326.842 89.5,326.5C 90.4098,324.981 91.2432,323.315 92,321.5C 100.472,317.703 103.306,311.536 100.5,303C 102.333,302.5 103.5,301.333 104,299.5C 104.185,295.325 105.019,291.325 106.5,287.5C 109.601,283.489 112.601,279.322 115.5,275C 117.594,274.555 119.094,275.388 120,277.5C 120.5,277 121,276.5 121.5,276C 119.839,275.005 118.505,273.672 117.5,272C 120.899,266.702 123.899,261.202 126.5,255.5C 130.831,250.848 134.165,245.514 136.5,239.5 Z"/></g>
<g><path style="opacity:1" fill="#110c14" d="M 126.5,255.5 C 123.899,261.202 120.899,266.702 117.5,272C 118.505,273.672 119.839,275.005 121.5,276C 121,276.5 120.5,277 120,277.5C 119.094,275.388 117.594,274.555 115.5,275C 112.601,279.322 109.601,283.489 106.5,287.5C 110.39,280.059 114.556,272.726 119,265.5C 121.277,261.92 123.777,258.586 126.5,255.5 Z"/></g>
<g><path style="opacity:1" fill="#14163f" d="M 161.5,279.5 C 155.811,282.432 150.311,285.765 145,289.5C 144.209,288.255 143.709,286.922 143.5,285.5C 144.458,285.953 145.292,286.619 146,287.5C 150.456,283.874 155.289,280.874 160.5,278.5C 161.107,278.624 161.44,278.957 161.5,279.5 Z"/></g>
<g><path style="opacity:1" fill="#f5c10d" d="M 171.5,280.5 C 174.257,280.378 176.257,281.545 177.5,284C 172.654,287.651 170.654,286.484 171.5,280.5 Z"/></g>
<g><path style="opacity:1" fill="#af7453" d="M 97.5,284.5 C 99.7453,284.541 100.412,285.375 99.5,287C 100.333,287.833 101.167,288.667 102,289.5C 104.769,299.053 101.269,303.553 91.5,303C 86.3523,299.666 85.1856,295.166 88,289.5C 89.2635,287.393 91.0968,286.393 93.5,286.5C 93.3505,287.552 93.5172,288.552 94,289.5C 94.7076,286.732 96.2076,285.899 98.5,287C 97.7476,286.329 97.4142,285.496 97.5,284.5 Z"/></g>
<g><path style="opacity:1" fill="#131333" d="M 137.5,284.5 C 135.326,286.081 132.993,287.581 130.5,289C 129.5,289.667 128.5,289.667 127.5,289C 130.533,286.792 133.866,285.292 137.5,284.5 Z"/></g>
<g><path style="opacity:1" fill="#fec80e" d="M 170.5,286.5 C 171.708,287.234 173.041,287.567 174.5,287.5C 174.657,288.873 174.49,290.207 174,291.5C 172.198,290.211 171.031,288.544 170.5,286.5 Z"/></g>
<g><path style="opacity:1" fill="#d12036" d="M 37.5,288.5 C 39.2884,287.378 41.2884,287.211 43.5,288C 44.5505,289.385 45.8839,290.385 47.5,291C 44.1504,290.508 40.817,289.675 37.5,288.5 Z"/></g>
<g><path style="opacity:1" fill="#3e47cb" d="M 138.5,290.5 C 138.395,294.548 138.728,298.548 139.5,302.5C 139.928,310.165 138.094,317.498 134,324.5C 122.83,336.036 113.83,349.036 107,363.5C 107.019,360.756 107.686,358.089 109,355.5C 113.607,350.295 115.273,344.295 114,337.5C 110.435,331.537 107.268,325.37 104.5,319C 106.821,319.887 109.321,320.72 112,321.5C 113.107,321.415 114.107,321.081 115,320.5C 113.446,317.348 113.113,314.015 114,310.5C 112.542,308.04 110.709,305.873 108.5,304C 110.201,303.655 111.534,304.322 112.5,306C 114.167,306.667 115.833,306.667 117.5,306C 116.087,302.212 113.253,299.045 109,296.5C 108.517,295.552 108.351,294.552 108.5,293.5C 111.203,293.955 113.87,294.622 116.5,295.5C 123.434,291.598 130.767,289.931 138.5,290.5 Z"/></g>
<g><path style="opacity:1" fill="#d61f33" d="M 37.5,288.5 C 37.5,289.833 37.5,291.167 37.5,292.5C 35.5953,294.88 34.262,297.547 33.5,300.5C 33.5,300.167 33.5,299.833 33.5,299.5C 33.2779,295.158 34.6112,291.491 37.5,288.5 Z"/></g>
<g><path style="opacity:1" fill="#d3a60d" d="M 37.5,292.5 C 42.7859,292.387 43.4525,293.72 39.5,296.5C 37.8888,295.68 37.2222,294.346 37.5,292.5 Z"/></g>
<g><path style="opacity:1" fill="#cca110" d="M 165.5,300.5 C 164.264,296.909 164.931,293.576 167.5,290.5C 170.063,289.189 171.73,290.022 172.5,293C 171.878,296.454 170.211,299.287 167.5,301.5C 166.817,301.137 166.15,300.804 165.5,300.5 Z"/></g>
<g><path style="opacity:1" fill="#b57755" d="M 82.5,294.5 C 83.3764,294.369 84.0431,294.702 84.5,295.5C 85.2709,298.877 86.9376,301.711 89.5,304C 93.1383,304.25 96.6383,304.417 100,304.5C 100.862,313.433 96.8616,318.766 88,320.5C 78.1143,317.95 73.781,311.617 75,301.5C 77.4786,299.034 79.9786,296.701 82.5,294.5 Z"/></g>
<g><path style="opacity:1" fill="#e8b70d" d="M 36.5,299.5 C 37.8333,299.5 39.1667,299.5 40.5,299.5C 40.5,300.833 40.5,302.167 40.5,303.5C 37.5,303.833 36.1667,302.5 36.5,299.5 Z"/></g>
<g><path style="opacity:1" fill="#f2bf0d" d="M 169.5,308.5 C 168.71,307.599 167.71,306.932 166.5,306.5C 162.869,306.067 161.536,304.234 162.5,301C 163.448,300.517 164.448,300.351 165.5,300.5C 168.698,302.494 171.865,304.827 175,307.5C 181.932,301.182 182.265,294.849 176,288.5C 182.65,291.688 184.317,296.688 181,303.5C 178.833,305.83 177.166,308.497 176,311.5C 174.13,309.781 171.963,308.781 169.5,308.5 Z"/></g>
<g><path style="opacity:1" fill="#e61b23" d="M 29.5,301.5 C 30.5,301.5 31.5,301.5 32.5,301.5C 30.0837,317.407 29.0837,317.407 29.5,301.5 Z"/></g>
<g><path style="opacity:1" fill="#e11a22" d="M 45.5,303.5 C 48.5719,303.183 51.5719,303.516 54.5,304.5C 55.0805,306.887 55.0805,309.387 54.5,312C 54.1667,313.5 53.8333,315 53.5,316.5C 49.8333,317.167 46.1667,317.833 42.5,318.5C 42.1667,318 41.8333,317.5 41.5,317C 42.3361,312.327 43.6695,307.827 45.5,303.5 Z"/></g>
<g><path style="opacity:1" fill="#e0b00c" d="M 11.5,308.5 C 16.9828,308.307 18.1494,309.973 15,313.5C 13.2287,312.696 11.7287,311.529 10.5,310C 11.056,309.617 11.3893,309.117 11.5,308.5 Z"/></g>
<g><path style="opacity:1" fill="#cca114" d="M 35.5,308.5 C 36.8333,308.5 38.1667,308.5 39.5,308.5C 39.67,309.822 39.3366,310.989 38.5,312C 36.6131,312.78 34.9464,312.613 33.5,311.5C 33.7822,310.222 34.4489,309.222 35.5,308.5 Z"/></g>
<g><path style="opacity:1" fill="#e8b70d" d="M 19.5,310.5 C 21.0898,310.628 22.4231,311.295 23.5,312.5C 22.316,314.046 21.316,315.713 20.5,317.5C 15.9314,315.98 15.5981,313.647 19.5,310.5 Z"/></g>
<g><path style="opacity:1" fill="#aa8301" d="M 166.5,306.5 C 167.71,306.932 168.71,307.599 169.5,308.5C 169.389,309.117 169.056,309.617 168.5,310C 170.674,315.02 171.34,320.186 170.5,325.5C 168.479,322.765 166.479,320.099 164.5,317.5C 164.242,313.628 164.909,309.961 166.5,306.5 Z"/></g>
<g><path style="opacity:1" fill="#e4daa8" d="M 31.5,316.5 C 39.2302,319.049 47.2302,320.215 55.5,320C 58.0867,321.525 58.9201,323.692 58,326.5C 55.3632,324.765 52.5299,323.432 49.5,322.5C 46.9937,327.884 45.9937,333.551 46.5,339.5C 40.2618,336.922 34.7618,332.922 30,327.5C 29.013,323.525 29.513,319.859 31.5,316.5 Z"/></g>
<g><path style="opacity:1" fill="#222982" d="M 87.5,324.5 C 85.2295,326.612 83.8961,329.279 83.5,332.5C 82.3622,329.696 82.1955,326.696 83,323.5C 84.4659,321.675 86.2992,321.175 88.5,322C 87.7476,322.671 87.4142,323.504 87.5,324.5 Z"/></g>
<g><path style="opacity:1" fill="#020107" d="M 87.5,324.5 C 86.7297,327.496 85.3964,330.163 83.5,332.5C 83.8961,329.279 85.2295,326.612 87.5,324.5 Z"/></g>
<g><path style="opacity:1" fill="#ebb90d" d="M 64.5,332.5 C 66.1998,333.016 67.5331,334.016 68.5,335.5C 66.056,338.054 64.3893,341.054 63.5,344.5C 60.6658,342.559 59.8325,339.893 61,336.5C 62.3756,335.295 63.5423,333.962 64.5,332.5 Z"/></g>
<g><path style="opacity:1" fill="#735903" d="M 169.5,328.5 C 169.369,327.624 169.702,326.957 170.5,326.5C 171.5,327 172.5,327.5 173.5,328C 173.167,328.333 172.833,328.667 172.5,329C 176.067,330.813 176.901,333.313 175,336.5C 174.333,335.167 173.667,335.167 173,336.5C 171.632,335.007 171.465,333.507 172.5,332C 171.186,331.015 170.186,329.848 169.5,328.5 Z"/></g>
<g><path style="opacity:1" fill="#c2171e" d="M 89.5,326.5 C 88.6618,326.842 88.3284,327.508 88.5,328.5C 85.3518,333.74 82.8518,339.406 81,345.5C 80.3333,342.5 80.3333,339.5 81,336.5C 82.7058,335.692 83.5391,334.359 83.5,332.5C 85.3964,330.163 86.7297,327.496 87.5,324.5C 89.2027,323.34 89.8693,324.007 89.5,326.5 Z"/></g>
<g><path style="opacity:1" fill="#3d46c9" d="M 139.5,338.5 C 148.392,343.222 155.559,349.889 161,358.5C 161.49,359.793 161.657,361.127 161.5,362.5C 157.336,362.857 154.169,361.19 152,357.5C 148.667,353.5 145.333,349.5 142,345.5C 140.587,343.348 139.754,341.014 139.5,338.5 Z"/></g>
<g><path style="opacity:1" fill="#9d0c13" d="M 85.5,336.5 C 85.8828,341.428 87.3828,346.095 90,350.5C 90.6667,355.167 90.6667,359.833 90,364.5C 87.8996,371.671 86.5663,379.004 86,386.5C 84.5557,388.155 82.7224,388.822 80.5,388.5C 80.1528,379.578 80.8195,370.745 82.5,362C 82.0917,357.958 81.4251,353.958 80.5,350C 83.6842,346.104 85.3509,341.604 85.5,336.5 Z"/></g>
<g><path style="opacity:1" fill="#9b0c13" d="M 130.5,341.5 C 131.117,341.611 131.617,341.944 132,342.5C 132.995,345.126 133.328,347.793 133,350.5C 128.06,359.073 124.56,368.24 122.5,378C 121.264,380.248 119.597,380.748 117.5,379.5C 121.835,366.825 126.168,354.159 130.5,341.5 Z"/></g>
<g><path style="opacity:1" fill="#3c45c6" d="M 121.5,358.5 C 117.284,369.406 114.784,380.74 114,392.5C 113.292,393.381 112.458,394.047 111.5,394.5C 108.187,395.045 104.854,395.545 101.5,396C 97.5666,397.098 96.0666,399.598 97,403.5C 104.225,406.354 103.891,408.688 96,410.5C 92.5528,408.971 91.7195,406.471 93.5,403C 92.1828,401.233 90.5161,399.899 88.5,399C 91.7206,397.722 95.054,396.889 98.5,396.5C 98.5,395.167 98.5,393.833 98.5,392.5C 94.6767,392.182 92.8433,390.182 93,386.5C 95.1529,388.444 97.6529,388.944 100.5,388C 103.796,385.199 104.129,382.199 101.5,379C 98.9682,378.381 96.6349,377.381 94.5,376C 95.4162,375.626 96.2496,375.126 97,374.5C 100.296,376.304 103.796,376.804 107.5,376C 111.625,369.592 116.125,363.425 121,357.5C 121.399,357.728 121.565,358.062 121.5,358.5 Z"/></g>
<g><path style="opacity:1" fill="#e1b10c" d="M 112.5,422.5 C 114.377,423.659 114.877,425.326 114,427.5C 111.032,432.48 108.032,437.48 105,442.5C 104.333,441.167 104.333,439.833 105,438.5C 107.419,433.048 109.919,427.715 112.5,422.5 Z"/></g>
</svg>
