<?xml version="1.0" encoding="UTF-8"?>
<!DOCTYPE svg PUBLIC "-//W3C//DTD SVG 1.1//EN" "http://www.w3.org/Graphics/SVG/1.1/DTD/svg11.dtd">
<svg xmlns="http://www.w3.org/2000/svg" version="1.1" width="495px" height="397px" style="shape-rendering:geometricPrecision; text-rendering:geometricPrecision; image-rendering:optimizeQuality; fill-rule:evenodd; clip-rule:evenodd" xmlns:xlink="http://www.w3.org/1999/xlink">
<g><path style="opacity:1" fill="#fefffe" d="M 152.5,44.5 C 158.176,44.3339 163.843,44.5006 169.5,45C 170.416,45.3742 171.25,45.8742 172,46.5C 172.333,48.5 172.667,50.5 173,52.5C 174.333,53.1667 175.667,53.8333 177,54.5C 179.586,65.3647 182.586,76.0313 186,86.5C 188.74,87.2822 191.574,87.7822 194.5,88C 195,88.5 195.5,89 196,89.5C 196.667,94.1667 196.667,98.8333 196,103.5C 195.333,104.167 194.667,104.833 194,105.5C 193.793,109.089 193.293,112.589 192.5,116C 192.833,116.167 193.167,116.333 193.5,116.5C 195.05,114.667 196.05,112.501 196.5,110C 199.651,110.012 202.318,109.012 204.5,107C 208.167,106.333 211.833,106.333 215.5,107C 217.036,108.96 218.869,110.46 221,111.5C 247.808,108.575 274.641,105.741 301.5,103C 322.098,99.6753 342.764,96.8419 363.5,94.5C 363.33,93.1779 363.663,92.0113 364.5,91C 376.324,89.5001 388.157,89.3335 400,90.5C 425.134,87.9538 450.301,86.9538 475.5,87.5C 476.68,96.4915 472.68,100.992 463.5,101C 442.167,104.333 420.833,107.667 399.5,111C 394.817,112.335 390.15,113.669 385.5,115C 366.05,116.302 346.717,118.636 327.5,122C 321.015,125.709 314.015,128.042 306.5,129C 291.84,130.999 277.174,132.832 262.5,134.5C 262.703,136.39 262.037,137.89 260.5,139C 257.207,139.826 253.874,140.326 250.5,140.5C 248.754,154.556 246.587,168.556 244,182.5C 243.654,184.848 242.487,186.681 240.5,188C 234.612,189.576 228.612,189.909 222.5,189C 215.392,185.696 208.225,182.529 201,179.5C 200.228,179.645 199.561,179.978 199,180.5C 197.865,183.65 196.699,186.817 195.5,190C 197.871,195.371 201.371,199.871 206,203.5C 211.555,215.376 211.889,227.376 207,239.5C 204.842,240.826 203.008,242.493 201.5,244.5C 208.289,259.699 213.789,275.365 218,291.5C 218.667,296.167 218.667,300.833 218,305.5C 211.329,321.192 208.662,337.525 210,354.5C 215.152,357.218 220.485,359.218 226,360.5C 230.064,373.451 225.23,379.951 211.5,380C 199.747,380.829 188.081,380.162 176.5,378C 174.04,376.542 171.873,374.709 170,372.5C 169.784,362.162 170.118,351.828 171,341.5C 172.64,328.383 174.14,315.217 175.5,302C 172.671,294.508 169.171,287.342 165,280.5C 163.277,292.058 160.61,303.391 157,314.5C 147.497,325.673 139.164,337.673 132,350.5C 131.206,353.471 130.539,356.471 130,359.5C 129.097,360.701 127.931,361.535 126.5,362C 127.603,365.039 129.103,367.873 131,370.5C 131.667,374.167 131.667,377.833 131,381.5C 118.953,386.476 107.62,385.143 97,377.5C 96.0481,368.309 94.8815,359.142 93.5,350C 93.7526,343.316 94.9193,336.816 97,330.5C 99.3745,328.461 101.374,326.128 103,323.5C 104.153,313.195 108.486,304.528 116,297.5C 119.371,289.55 120.871,281.216 120.5,272.5C 120.299,267.151 119.966,261.818 119.5,256.5C 114.246,257.231 112.079,254.898 113,249.5C 107.669,251.403 102.169,251.903 96.5,251C 95.1611,239.052 95.9945,227.219 99,215.5C 99.8333,214.667 100.667,213.833 101.5,213C 108.833,209.667 116.167,206.333 123.5,203C 120.833,202.667 118.167,202.333 115.5,202C 114.833,200.667 114.167,199.333 113.5,198C 111.101,197.269 108.935,196.102 107,194.5C 105.655,184.85 104.489,175.183 103.5,165.5C 103.355,160.215 104.022,155.048 105.5,150C 103.022,146.879 101.189,143.379 100,139.5C 99.0722,132.06 99.4055,124.726 101,117.5C 104.477,113.178 108.977,111.178 114.5,111.5C 114.02,108.315 114.686,105.481 116.5,103C 121.5,102.667 126.5,102.333 131.5,102C 132.759,101.077 134.092,100.243 135.5,99.5C 131.667,94.5 127.833,89.5 124,84.5C 121.648,76.6362 123.815,70.4695 130.5,66C 136.658,63.0881 142.658,59.9215 148.5,56.5C 149.321,53.5535 149.821,50.5535 150,47.5C 151.045,46.6266 151.878,45.6266 152.5,44.5 Z M 217.5,140.5 C 218.621,142.089 218.454,143.756 217,145.5C 216.5,145 216,144.5 215.5,144C 216.823,143.184 217.489,142.017 217.5,140.5 Z"/></g>
<g><path style="opacity:1" fill="#000000" d="M 154.5,46.5 C 158.846,46.3343 163.179,46.501 167.5,47C 168.416,47.3742 169.25,47.8742 170,48.5C 170.333,50.5 170.667,52.5 171,54.5C 173.398,54.9582 175.064,56.2915 176,58.5C 178.662,68.4976 181.328,78.4976 184,88.5C 186.74,89.2822 189.574,89.7822 192.5,90C 195.885,96.151 194.885,101.484 189.5,106C 190.944,107.126 191.61,108.626 191.5,110.5C 190.345,113.011 189.678,115.678 189.5,118.5C 195.333,120.519 198.333,118.352 198.5,112C 202.7,111.541 206.534,110.374 210,108.5C 213.68,110.191 217.347,111.858 221,113.5C 248.487,110.648 275.987,107.815 303.5,105C 324.098,101.675 344.764,98.8419 365.5,96.5C 365.33,95.1779 365.663,94.0113 366.5,93C 369.76,92.2165 372.927,92.3832 376,93.5C 381.907,90.9719 387.74,90.9719 393.5,93.5C 420.093,90.5527 446.76,89.2194 473.5,89.5C 473.752,92.3699 472.752,94.7033 470.5,96.5C 446.324,101.454 421.991,105.621 397.5,109C 392.817,110.335 388.15,111.669 383.5,113C 364.05,114.302 344.717,116.636 325.5,120C 319.015,123.709 312.015,126.042 304.5,127C 289.84,128.999 275.174,130.832 260.5,132.5C 260.703,134.39 260.037,135.89 258.5,137C 255.207,137.826 251.874,138.326 248.5,138.5C 246.754,152.556 244.587,166.556 242,180.5C 241.654,182.848 240.487,184.681 238.5,186C 233.953,187.545 229.287,187.879 224.5,187C 215.951,182.892 207.284,179.059 198.5,175.5C 196.556,180.263 194.889,185.096 193.5,190C 194.971,196.483 198.471,201.65 204,205.5C 209.526,216.035 209.859,226.702 205,237.5C 202.5,239.333 200,241.167 197.5,243C 206.324,260.637 212.657,279.137 216.5,298.5C 214.165,308.172 211.665,317.839 209,327.5C 208.017,336.37 207.184,345.204 206.5,354C 207.167,356 208.5,357.333 210.5,358C 215.09,359.498 219.59,360.998 224,362.5C 227.226,369.219 225.393,374.052 218.5,377C 205.109,379.08 191.776,378.747 178.5,376C 176.04,374.542 173.873,372.709 172,370.5C 171.941,361.504 172.274,352.504 173,343.5C 174.709,329.728 176.209,315.895 177.5,302C 174.243,291.648 169.743,281.815 164,272.5C 162.148,286.096 159.148,299.43 155,312.5C 145.497,323.673 137.164,335.673 130,348.5C 129.206,351.471 128.539,354.471 128,357.5C 126.829,358.893 125.329,359.727 123.5,360C 124.557,364.504 126.391,368.671 129,372.5C 130.716,377.339 129.216,380.506 124.5,382C 114.934,383.921 106.434,381.754 99,375.5C 98.4689,366.909 97.3022,358.409 95.5,350C 95.9704,344.007 97.1371,338.174 99,332.5C 101.374,330.461 103.374,328.128 105,325.5C 106.153,315.195 110.486,306.528 118,299.5C 121.537,290.89 123.037,281.89 122.5,272.5C 122.333,266.483 121.999,260.483 121.5,254.5C 119.533,254.739 117.699,254.406 116,253.5C 115.814,251.1 115.314,248.766 114.5,246.5C 109.402,248.943 104.069,249.776 98.5,249C 97.8656,246.925 97.5323,244.759 97.5,242.5C 97.8004,234.009 98.9671,225.676 101,217.5C 101.833,216.667 102.667,215.833 103.5,215C 110.833,211.667 118.167,208.333 125.5,205C 126.293,203.915 126.96,202.748 127.5,201.5C 124.215,200.676 120.882,200.176 117.5,200C 116.833,198.667 116.167,197.333 115.5,196C 111.807,195.09 109.307,192.923 108,189.5C 107.598,181.429 106.764,173.429 105.5,165.5C 105.542,159.335 106.542,153.335 108.5,147.5C 105.09,145.024 102.924,141.69 102,137.5C 101.333,132.167 101.333,126.833 102,121.5C 105.293,116.04 110.126,113.373 116.5,113.5C 116.02,110.315 116.686,107.481 118.5,105C 122.5,104.333 126.5,104.333 130.5,105C 131.249,106.734 131.749,108.567 132,110.5C 131.637,104.359 134.47,101.525 140.5,102C 136.052,95.2179 131.219,88.7179 126,82.5C 125.333,79.8333 125.333,77.1667 126,74.5C 133.227,67.7983 141.394,62.4649 150.5,58.5C 151.321,55.5535 151.821,52.5535 152,49.5C 153.045,48.6266 153.878,47.6266 154.5,46.5 Z M 217.5,140.5 C 217.489,142.017 216.823,143.184 215.5,144C 216,144.5 216.5,145 217,145.5C 218.454,143.756 218.621,142.089 217.5,140.5 Z"/></g>
<g><path style="opacity:1" fill="#296296" d="M 166.5,60.5 C 164.139,60.6741 161.806,61.0074 159.5,61.5C 154.34,54.2449 156.006,51.2449 164.5,52.5C 165.381,55.1303 166.048,57.797 166.5,60.5 Z"/></g>
<g><path style="opacity:1" fill="#272727" d="M 166.5,60.5 C 167.222,60.9175 167.722,61.5842 168,62.5C 169,59.8333 170,59.8333 171,62.5C 172.582,67.4168 173.749,72.4168 174.5,77.5C 170.981,80.8535 167.314,84.0202 163.5,87C 167.627,86.5297 171.461,85.0297 175,82.5C 177.32,86.1209 179.153,89.9542 180.5,94C 179.213,95.4095 178.046,96.9095 177,98.5C 176.261,97.4258 175.261,96.7591 174,96.5C 169.439,98.5304 164.939,100.697 160.5,103C 155.959,104.114 151.959,103.114 148.5,100C 153.421,97.4106 158.421,94.9106 163.5,92.5C 164.521,91.9984 164.688,91.3317 164,90.5C 157.319,92.8797 150.486,94.3797 143.5,95C 141.167,92 138.833,89 136.5,86C 146.642,84.7612 155.309,80.5945 162.5,73.5C 163.521,72.9984 163.688,72.3317 163,71.5C 153.828,75.4479 144.828,79.7813 136,84.5C 130.866,81.079 131.366,79.2457 137.5,79C 135.5,78.6667 133.5,78.3333 131.5,78C 133.167,76.3333 134.833,74.6667 136.5,73C 143.91,68.6284 151.577,64.7951 159.5,61.5C 161.806,61.0074 164.139,60.6741 166.5,60.5 Z"/></g>
<g><path style="opacity:1" fill="#000000" d="M 164.5,76.5 C 166.927,77.2789 166.927,78.4455 164.5,80C 160.5,82.3333 156.5,84.6667 152.5,87C 155.681,86.6131 158.848,85.7797 162,84.5C 163.563,85.1021 163.396,85.9354 161.5,87C 156.243,89.7529 150.743,91.9196 145,93.5C 144.5,92.5 144,91.5 143.5,90.5C 144.982,88.5171 146.649,86.6837 148.5,85C 153.858,82.0599 159.192,79.2265 164.5,76.5 Z"/></g>
<g><path style="opacity:1" fill="#7e7f7e" d="M 455.5,93.5 C 457.857,93.3367 460.19,93.5034 462.5,94C 439.061,96.8009 415.727,100.301 392.5,104.5C 390.914,102.827 390.247,100.827 390.5,98.5C 412.345,97.2229 434.012,95.5563 455.5,93.5 Z"/></g>
<g><path style="opacity:1" fill="#7e7f7e" d="M 384.5,96.5 C 385.822,96.33 386.989,96.6634 388,97.5C 388.287,99.8907 388.787,102.224 389.5,104.5C 387.653,105.83 386.153,105.497 385,103.5C 384.503,101.19 384.337,98.8568 384.5,96.5 Z"/></g>
<g><path style="opacity:1" fill="#7e7f7e" d="M 370.5,97.5 C 375.427,101.076 375.761,105.076 371.5,109.5C 371.786,105.613 371.453,101.613 370.5,97.5 Z"/></g>
<g><path style="opacity:1" fill="#7e7f7e" d="M 380.5,97.5 C 381.725,98.1522 382.392,99.3189 382.5,101C 383.876,106.542 381.543,108.875 375.5,108C 376.435,105.619 376.768,103.119 376.5,100.5C 378.973,100.912 380.306,99.9118 380.5,97.5 Z"/></g>
<g><path style="opacity:1" fill="#7e7f7e" d="M 365.5,101.5 C 370.797,102.032 370.797,102.866 365.5,104C 349.753,106.468 334.086,108.301 318.5,109.5C 320.657,108.21 322.99,107.376 325.5,107C 339.022,105.478 352.355,103.645 365.5,101.5 Z"/></g>
<g><path style="opacity:1" fill="#c5621d" d="M 184.5,106.5 C 183.752,108.332 182.752,109.999 181.5,111.5C 179.495,110.876 177.828,111.71 176.5,114C 174.527,114.495 172.527,114.662 170.5,114.5C 169.974,112.77 168.974,111.436 167.5,110.5C 169.597,108.518 172.264,107.518 175.5,107.5C 175.842,108.338 176.508,108.672 177.5,108.5C 178.922,108.25 179.922,107.417 180.5,106C 182.066,105.235 183.399,105.402 184.5,106.5 Z"/></g>
<g><path style="opacity:1" fill="#b87a56" d="M 366.5,105.5 C 368.942,105.119 369.609,105.786 368.5,107.5C 352.532,110.384 336.532,113.05 320.5,115.5C 319.5,115.167 318.833,114.5 318.5,113.5C 334.557,110.542 350.557,107.875 366.5,105.5 Z"/></g>
<g><path style="opacity:1" fill="#fefffe" d="M 177.5,108.5 C 176.508,108.672 175.842,108.338 175.5,107.5C 177.838,105.989 178.504,106.323 177.5,108.5 Z"/></g>
<g><path style="opacity:1" fill="#f9a884" d="M 184.5,106.5 C 189.739,109.239 189.573,111.239 184,112.5C 183.098,112.257 182.265,111.923 181.5,111.5C 182.752,109.999 183.752,108.332 184.5,106.5 Z"/></g>
<g><path style="opacity:1" fill="#fefffe" d="M 138.5,107.5 C 139.822,107.33 140.989,107.663 142,108.5C 144.228,114.91 146.728,121.244 149.5,127.5C 148.675,128.386 147.675,128.719 146.5,128.5C 146.516,122.533 144.349,117.533 140,113.5C 139.187,111.564 138.687,109.564 138.5,107.5 Z"/></g>
<g><path style="opacity:1" fill="#fefffe" d="M 313.5,108.5 C 314.5,108.5 315.5,108.5 316.5,108.5C 316.443,110.884 316.777,113.218 317.5,115.5C 317.547,117 316.881,118 315.5,118.5C 314.192,115.294 313.525,111.96 313.5,108.5 Z"/></g>
<g><path style="opacity:1" fill="#fefffe" d="M 122.5,109.5 C 123.833,109.5 125.167,109.5 126.5,109.5C 126.335,112.518 126.502,115.518 127,118.5C 131.258,121.576 134.091,125.576 135.5,130.5C 135,132.5 134.5,134.5 134,136.5C 129.029,143.006 128.362,142.339 132,134.5C 132.667,131.833 132.667,129.167 132,126.5C 129.705,123.203 127.038,120.203 124,117.5C 123.178,114.883 122.678,112.216 122.5,109.5 Z"/></g>
<g><path style="opacity:1" fill="#767676" d="M 220.5,126.5 C 218.562,128.163 216.228,128.829 213.5,128.5C 211.173,128.753 209.173,128.086 207.5,126.5C 206.619,129.853 204.953,130.353 202.5,128C 203.687,126.981 204.687,125.814 205.5,124.5C 204.091,121.688 203.424,119.022 203.5,116.5C 204.762,118.381 206.429,119.714 208.5,120.5C 210.425,120.41 211.592,119.41 212,117.5C 213.299,118.98 214.966,119.646 217,119.5C 229.254,118.306 241.421,116.639 253.5,114.5C 254.939,115.063 256.439,115.397 258,115.5C 275.887,113.127 293.72,111.461 311.5,110.5C 281.108,114.859 250.608,118.525 220,121.5C 218.5,121.833 217,122.167 215.5,122.5C 218.167,123.167 220.833,123.833 223.5,124.5C 222.398,125.176 221.398,125.842 220.5,126.5 Z"/></g>
<g><path style="opacity:1" fill="#f9a884" d="M 159.5,110.5 C 160.11,111.391 160.443,112.391 160.5,113.5C 162.262,114.262 163.262,115.596 163.5,117.5C 162.833,117.833 162.167,118.167 161.5,118.5C 158.163,118.813 155.829,117.48 154.5,114.5C 153.766,113.292 153.433,111.959 153.5,110.5C 155.5,110.5 157.5,110.5 159.5,110.5 Z"/></g>
<g><path style="opacity:1" fill="#e4997a" d="M 181.5,111.5 C 182.97,112.978 184.637,114.311 186.5,115.5C 182.639,116.598 182.639,117.431 186.5,118C 184.781,119.87 183.781,122.037 183.5,124.5C 181.388,125.275 179.388,125.275 177.5,124.5C 175.167,121.167 172.833,117.833 170.5,114.5C 172.527,114.662 174.527,114.495 176.5,114C 177.828,111.71 179.495,110.876 181.5,111.5 Z"/></g>
<g><path style="opacity:1" fill="#000000" d="M 160.5,113.5 C 160.128,115.656 159.128,115.656 157.5,113.5C 158.425,112.438 159.425,112.438 160.5,113.5 Z"/></g>
<g><path style="opacity:1" fill="#bde7f0" d="M 150.5,113.5 C 151.043,113.56 151.376,113.893 151.5,114.5C 150.756,117.443 150.256,120.443 150,123.5C 149.311,120.592 148.145,117.925 146.5,115.5C 147.949,114.828 149.282,114.161 150.5,113.5 Z"/></g>
<g><path style="opacity:1" fill="#4d4d4d" d="M 167.5,110.5 C 168.974,111.436 169.974,112.77 170.5,114.5C 172.833,117.833 175.167,121.167 177.5,124.5C 175.926,125.928 174.259,126.261 172.5,125.5C 169.5,122.833 166.5,120.167 163.5,117.5C 163.262,115.596 162.262,114.262 160.5,113.5C 160.443,112.391 160.11,111.391 159.5,110.5C 162.061,109.233 164.728,109.233 167.5,110.5 Z"/></g>
<g><path style="opacity:1" fill="#b77856" d="M 266.5,123.5 C 266.5,123.167 266.5,122.833 266.5,122.5C 266.5,121.833 266.5,121.167 266.5,120.5C 265.391,119.71 264.058,119.21 262.5,119C 278.194,117.349 293.86,115.516 309.5,113.5C 311.915,113.719 312.915,115.052 312.5,117.5C 297.204,119.78 281.87,121.78 266.5,123.5 Z"/></g>
<g><path style="opacity:1" fill="#885a41" d="M 154.5,114.5 C 155.829,117.48 158.163,118.813 161.5,118.5C 160.432,119.434 159.099,119.768 157.5,119.5C 156.732,120.263 156.232,121.263 156,122.5C 151.985,120.448 151.485,117.781 154.5,114.5 Z"/></g>
<g><path style="opacity:1" fill="#bde7f0" d="M 128.5,115.5 C 132.172,116.654 135.838,116.821 139.5,116C 142.927,119.882 144.427,124.382 144,129.5C 142.247,130.627 140.413,131.627 138.5,132.5C 137.604,129.856 136.771,127.19 136,124.5C 132.888,121.899 130.388,118.899 128.5,115.5 Z"/></g>
<g><path style="opacity:1" fill="#c5621d" d="M 163.5,117.5 C 166.5,120.167 169.5,122.833 172.5,125.5C 171.791,126.404 170.791,126.737 169.5,126.5C 165.839,125.902 162.172,124.902 158.5,123.5C 157.571,122.311 157.238,120.978 157.5,119.5C 159.099,119.768 160.432,119.434 161.5,118.5C 162.167,118.167 162.833,117.833 163.5,117.5 Z"/></g>
<g><path style="opacity:1" fill="#bde7f0" d="M 116.5,118.5 C 122.643,118.774 127.143,121.774 130,127.5C 130.679,132.791 129.345,137.458 126,141.5C 123.88,142.459 121.713,142.626 119.5,142C 120.459,140.293 121.125,138.459 121.5,136.5C 121.417,129.973 119.751,123.973 116.5,118.5 Z"/></g>
<g><path style="opacity:1" fill="#f9a884" d="M 251.5,131.5 C 252.404,130.791 252.737,129.791 252.5,128.5C 253.047,125.425 254.047,122.425 255.5,119.5C 256.666,123.527 256.499,127.527 255,131.5C 253.708,132.791 252.542,132.791 251.5,131.5 Z"/></g>
<g><path style="opacity:1" fill="#82573f" d="M 259.5,120.5 C 261.279,122.344 263.612,123.01 266.5,122.5C 266.5,122.833 266.5,123.167 266.5,123.5C 263.689,124.475 260.689,125.142 257.5,125.5C 257.201,123.396 257.534,121.396 258.5,119.5C 259.107,119.624 259.44,119.957 259.5,120.5 Z"/></g>
<g><path style="opacity:1" fill="#fefffe" d="M 306.5,119.5 C 308.199,119.34 309.866,119.506 311.5,120C 294.302,123.483 276.969,125.816 259.5,127C 275.37,124.896 291.037,122.396 306.5,119.5 Z"/></g>
<g><path style="opacity:1" fill="#c5856a" d="M 247.5,129.5 C 247.737,130.791 247.404,131.791 246.5,132.5C 245.089,133.908 243.423,134.908 241.5,135.5C 240.287,135.253 239.62,134.586 239.5,133.5C 242.165,131.165 243.498,128.165 243.5,124.5C 243.533,121.903 244.533,120.903 246.5,121.5C 247.393,124.084 247.726,126.751 247.5,129.5 Z"/></g>
<g><path style="opacity:1" fill="#e99d7c" d="M 252.5,128.5 C 252.737,129.791 252.404,130.791 251.5,131.5C 250.469,132.355 249.303,133.022 248,133.5C 247.235,133.43 246.735,133.097 246.5,132.5C 247.404,131.791 247.737,130.791 247.5,129.5C 248.047,126.425 249.047,123.425 250.5,120.5C 251.086,120.709 251.586,121.043 252,121.5C 252.497,123.81 252.663,126.143 252.5,128.5 Z"/></g>
<g><path style="opacity:1" fill="#fec90d" d="M 259.5,120.5 C 261.833,120.5 264.167,120.5 266.5,120.5C 266.5,121.167 266.5,121.833 266.5,122.5C 263.612,123.01 261.279,122.344 259.5,120.5 Z"/></g>
<g><path style="opacity:1" fill="#ac7251" d="M 239.5,122.5 C 238.549,123.919 238.216,125.585 238.5,127.5C 225.887,129.327 213.22,130.66 200.5,131.5C 196.578,131.931 193.078,130.931 190,128.5C 189.308,127.563 189.475,126.897 190.5,126.5C 194.673,126.581 198.339,125.248 201.5,122.5C 202.287,123.242 202.953,124.075 203.5,125C 202.315,126.353 200.981,127.52 199.5,128.5C 204.243,130.797 208.91,130.797 213.5,128.5C 216.228,128.829 218.562,128.163 220.5,126.5C 222.167,126.5 223.833,126.5 225.5,126.5C 225.5,125.167 225.5,123.833 225.5,122.5C 230.328,121.501 234.995,121.501 239.5,122.5 Z"/></g>
<g><path style="opacity:1" fill="#f9a884" d="M 239.5,122.5 C 241.199,122.527 242.533,123.194 243.5,124.5C 243.498,128.165 242.165,131.165 239.5,133.5C 236.498,135.108 233.832,134.775 231.5,132.5C 233.745,130.377 236.412,129.377 239.5,129.5C 239.5,127.167 239.5,124.833 239.5,122.5 Z"/></g>
<g><path style="opacity:1" fill="#99b9c1" d="M 112.5,119.5 C 115.144,121.153 117.144,123.487 118.5,126.5C 118.167,127.167 117.833,127.833 117.5,128.5C 118.167,131.167 118.833,133.833 119.5,136.5C 119.143,139.228 117.976,141.895 116,144.5C 113.708,143.21 111.708,141.543 110,139.5C 107.453,133.922 106.786,128.256 108,122.5C 109.878,121.947 111.378,120.947 112.5,119.5 Z"/></g>
<g><path style="opacity:1" fill="#000000" d="M 113.5,124.5 C 114.077,123.227 114.743,123.227 115.5,124.5C 115.03,125.463 114.363,125.463 113.5,124.5 Z"/></g>
<g><path style="opacity:1" fill="#ec1c23" d="M 169.5,126.5 C 163.795,127.984 157.961,129.318 152,130.5C 151.035,123.789 153.202,122.289 158.5,126C 162.152,126.499 165.818,126.665 169.5,126.5 Z"/></g>
<g><path style="opacity:1" fill="#f9a884" d="M 190.5,126.5 C 189.475,126.897 189.308,127.563 190,128.5C 193.078,130.931 196.578,131.931 200.5,131.5C 202.369,132.165 204.369,132.831 206.5,133.5C 204.157,134.275 201.823,134.942 199.5,135.5C 196.378,136.561 193.378,137.895 190.5,139.5C 189.71,138.391 189.21,137.058 189,135.5C 186.329,133.098 183.495,131.098 180.5,129.5C 181.5,129.167 182.167,128.5 182.5,127.5C 184.035,125.588 186.035,124.255 188.5,123.5C 189.425,124.357 190.092,125.357 190.5,126.5 Z"/></g>
<g><path style="opacity:1" fill="#b77856" d="M 182.5,127.5 C 182.167,128.5 181.5,129.167 180.5,129.5C 177.311,131.26 173.978,132.76 170.5,134C 165.89,138.889 160.39,142.389 154,144.5C 152.174,140.574 151.674,136.574 152.5,132.5C 162.217,130.757 171.883,128.757 181.5,126.5C 182.107,126.624 182.44,126.957 182.5,127.5 Z"/></g>
<g><path style="opacity:1" fill="#fefffe" d="M 147.5,130.5 C 149.475,133.038 150.309,136.038 150,139.5C 148.533,136.734 146.7,134.234 144.5,132C 145.737,131.768 146.737,131.268 147.5,130.5 Z"/></g>
<g><path style="opacity:1" fill="#fefffe" d="M 217.5,131.5 C 221.514,131.334 225.514,131.501 229.5,132C 222.912,133.164 216.246,133.997 209.5,134.5C 208.833,134.167 208.167,133.833 207.5,133.5C 210.977,132.833 214.311,132.166 217.5,131.5 Z"/></g>
<g><path style="opacity:1" fill="#34608e" d="M 180.5,145.5 C 179.105,143.307 178.105,140.974 177.5,138.5C 177.167,137.833 176.833,137.167 176.5,136.5C 176.45,134.41 177.45,133.077 179.5,132.5C 186.772,133.895 189.605,138.228 188,145.5C 186.045,146.453 184.378,147.787 183,149.5C 182.667,148.167 182.333,146.833 182,145.5C 181.174,153.473 180.674,153.473 180.5,145.5 Z"/></g>
<g><path style="opacity:1" fill="#fefffe" d="M 140.5,133.5 C 144.194,134.033 146.361,136.033 147,139.5C 144.168,138.038 142.001,136.038 140.5,133.5 Z"/></g>
<g><path style="opacity:1" fill="#fefffe" d="M 176.5,136.5 C 176.833,137.167 177.167,137.833 177.5,138.5C 176.833,138.5 176.167,138.5 175.5,138.5C 175.167,137.5 174.5,136.833 173.5,136.5C 174.528,133.902 175.528,133.902 176.5,136.5 Z"/></g>
<g><path style="opacity:1" fill="#285d8f" d="M 145.5,143.5 C 143.053,146.885 140.72,150.385 138.5,154C 141.945,152.593 144.945,150.259 147.5,147C 148.448,146.517 149.448,146.351 150.5,146.5C 153.568,146.453 156.568,145.953 159.5,145C 161.577,143.295 163.91,142.128 166.5,141.5C 167.976,146.069 169.142,150.735 170,155.5C 170.893,152.567 171.393,149.567 171.5,146.5C 171.684,143.795 171.017,141.462 169.5,139.5C 170.687,138.466 171.52,137.133 172,135.5C 172.383,136.056 172.883,136.389 173.5,136.5C 174.5,136.833 175.167,137.5 175.5,138.5C 176.065,140.952 176.732,143.285 177.5,145.5C 179.546,147.866 179.879,150.533 178.5,153.5C 173.223,158.293 168.557,162.793 164.5,167C 159.803,168.606 154.969,169.439 150,169.5C 144.141,168.995 138.307,168.329 132.5,167.5C 133.371,163.422 134.537,159.422 136,155.5C 136.667,153.833 136.667,152.167 136,150.5C 133.866,155.072 132.033,159.739 130.5,164.5C 129.883,164.389 129.383,164.056 129,163.5C 127.963,155.054 129.297,147.388 133,140.5C 134.667,138.833 136.333,137.167 138,135.5C 140.57,137.869 143.404,139.869 146.5,141.5C 146.137,142.183 145.804,142.85 145.5,143.5 Z"/></g>
<g><path style="opacity:1" fill="#c7641d" d="M 199.5,135.5 C 199.557,136.609 199.89,137.609 200.5,138.5C 197.381,140.427 194.048,141.761 190.5,142.5C 190.5,141.5 190.5,140.5 190.5,139.5C 193.378,137.895 196.378,136.561 199.5,135.5 Z"/></g>
<g><path style="opacity:1" fill="#fec90d" d="M 200.5,138.5 C 204.135,138.259 207.468,137.425 210.5,136C 208.798,140.126 205.798,141.46 201.5,140C 200.944,139.617 200.611,139.117 200.5,138.5 Z"/></g>
<g><path style="opacity:1" fill="#275886" d="M 230.5,143.5 C 230.672,144.492 230.338,145.158 229.5,145.5C 228.209,145.737 227.209,145.404 226.5,144.5C 225.562,142.244 225.562,139.91 226.5,137.5C 227.5,137.5 228.5,137.5 229.5,137.5C 229.205,139.735 229.539,141.735 230.5,143.5 Z"/></g>
<g><path style="opacity:1" fill="#285f92" d="M 240.5,146.5 C 238.026,145.895 235.693,144.895 233.5,143.5C 232.833,143.5 232.167,143.5 231.5,143.5C 231.167,143.5 230.833,143.5 230.5,143.5C 230.338,141.473 230.505,139.473 231,137.5C 234.622,138.769 238.288,138.769 242,137.5C 242.5,137.667 243,137.833 243.5,138C 242.726,140.405 242.226,142.905 242,145.5C 241.617,146.056 241.117,146.389 240.5,146.5 Z"/></g>
<g><path style="opacity:1" fill="#000000" d="M 175.5,138.5 C 176.167,138.5 176.833,138.5 177.5,138.5C 177.5,140.833 177.5,143.167 177.5,145.5C 176.732,143.285 176.065,140.952 175.5,138.5 Z"/></g>
<g><path style="opacity:1" fill="#fefffe" d="M 177.5,138.5 C 178.105,140.974 179.105,143.307 180.5,145.5C 179.5,145.5 178.5,145.5 177.5,145.5C 177.5,143.167 177.5,140.833 177.5,138.5 Z"/></g>
<g><path style="opacity:1" fill="#fefffe" d="M 215.5,138.5 C 217.167,138.5 218.833,138.5 220.5,138.5C 220.76,142.348 220.094,146.015 218.5,149.5C 215.891,148.557 213.891,146.89 212.5,144.5C 213.559,142.466 214.559,140.466 215.5,138.5 Z M 217.5,140.5 C 217.489,142.017 216.823,143.184 215.5,144C 216,144.5 216.5,145 217,145.5C 218.454,143.756 218.621,142.089 217.5,140.5 Z"/></g>
<g><path style="opacity:1" fill="#163654" d="M 169.5,139.5 C 171.017,141.462 171.684,143.795 171.5,146.5C 171.393,149.567 170.893,152.567 170,155.5C 169.142,150.735 167.976,146.069 166.5,141.5C 166.973,140.094 167.973,139.427 169.5,139.5 Z"/></g>
<g><path style="opacity:1" fill="#265a8a" d="M 227.5,147.5 C 228.5,148.167 229.5,148.833 230.5,149.5C 231.5,152.167 232.5,152.167 233.5,149.5C 235.628,148.371 237.961,148.204 240.5,149C 240.273,159.211 238.773,169.378 236,179.5C 232.9,183.421 231.234,183.087 231,178.5C 230.781,179.938 230.281,181.271 229.5,182.5C 227.615,181.391 225.615,180.557 223.5,180C 222.915,178.698 222.249,177.531 221.5,176.5C 220.072,173.054 219.239,169.387 219,165.5C 218.102,168.955 216.935,172.289 215.5,175.5C 209.699,173.845 204.199,171.512 199,168.5C 198.46,160.633 196.96,152.967 194.5,145.5C 195.738,143.363 197.571,142.029 200,141.5C 205.628,148.457 212.461,153.957 220.5,158C 221.126,158.75 221.626,159.584 222,160.5C 224.048,157.187 225.048,153.521 225,149.5C 225.417,148.244 226.25,147.577 227.5,147.5 Z"/></g>
<g><path style="opacity:1" fill="#810314" d="M 124.5,151.5 C 124.167,149.5 123.833,147.5 123.5,145.5C 124.78,144.069 126.447,143.402 128.5,143.5C 127.382,148.259 126.716,153.093 126.5,158C 127.381,166.54 128.215,175.04 129,183.5C 127.488,184.257 126.154,185.257 125,186.5C 124.5,174.838 124.333,163.171 124.5,151.5 Z"/></g>
<g><path style="opacity:1" fill="#163654" d="M 145.5,143.5 C 147.933,143.273 149.599,144.273 150.5,146.5C 149.448,146.351 148.448,146.517 147.5,147C 144.945,150.259 141.945,152.593 138.5,154C 140.72,150.385 143.053,146.885 145.5,143.5 Z"/></g>
<g><path style="opacity:1" fill="#000000" d="M 230.5,143.5 C 230.833,143.5 231.167,143.5 231.5,143.5C 232.167,146.167 232.833,146.167 233.5,143.5C 235.693,144.895 238.026,145.895 240.5,146.5C 236.629,146.815 232.962,146.482 229.5,145.5C 230.338,145.158 230.672,144.492 230.5,143.5 Z"/></g>
<g><path style="opacity:1" fill="#fefffe" d="M 231.5,143.5 C 232.167,143.5 232.833,143.5 233.5,143.5C 232.833,146.167 232.167,146.167 231.5,143.5 Z"/></g>
<g><path style="opacity:1" fill="#fefffe" d="M 191.5,144.5 C 194.845,152.062 196.345,160.062 196,168.5C 194.574,163.948 193.574,159.281 193,154.5C 192.361,151.888 191.194,149.554 189.5,147.5C 190.193,146.482 190.859,145.482 191.5,144.5 Z"/></g>
<g><path style="opacity:1" fill="#fefffe" d="M 226.5,144.5 C 227.209,145.404 228.209,145.737 229.5,145.5C 232.962,146.482 236.629,146.815 240.5,146.5C 236.366,147.485 232.032,147.818 227.5,147.5C 226.909,146.849 226.243,146.182 225.5,145.5C 225.624,144.893 225.957,144.56 226.5,144.5 Z"/></g>
<g><path style="opacity:1" fill="#760813" d="M 121.5,148.5 C 122.738,148.81 122.738,149.31 121.5,150C 120.255,150.791 118.922,151.291 117.5,151.5C 116.022,151.762 114.689,151.429 113.5,150.5C 114.246,149.264 114.579,147.93 114.5,146.5C 116.5,146.167 118.5,145.833 120.5,145.5C 120.263,146.791 120.596,147.791 121.5,148.5 Z"/></g>
<g><path style="opacity:1" fill="#fefffe" d="M 185.5,149.5 C 186.124,149.917 186.457,150.584 186.5,151.5C 185.155,156.546 183.655,161.546 182,166.5C 180.152,163.989 178.319,161.489 176.5,159C 179.636,156.029 182.636,152.862 185.5,149.5 Z"/></g>
<g><path style="opacity:1" fill="#fefffe" d="M 230.5,149.5 C 231.5,149.5 232.5,149.5 233.5,149.5C 232.5,152.167 231.5,152.167 230.5,149.5 Z"/></g>
<g><path style="opacity:1" fill="#163654" d="M 132.5,167.5 C 131.094,167.027 130.427,166.027 130.5,164.5C 132.033,159.739 133.866,155.072 136,150.5C 136.667,152.167 136.667,153.833 136,155.5C 134.537,159.422 133.371,163.422 132.5,167.5 Z"/></g>
<g><path style="opacity:1" fill="#000000" d="M 120.5,153.5 C 120.56,152.957 120.893,152.624 121.5,152.5C 122.824,164.327 122.824,175.993 121.5,187.5C 121.828,175.988 121.495,164.654 120.5,153.5 Z"/></g>
<g><path style="opacity:1" fill="#296296" d="M 188.5,171.5 C 189.328,165.347 189.828,159.013 190,152.5C 194.548,162.799 194.215,172.799 189,182.5C 188.501,178.848 188.335,175.182 188.5,171.5 Z"/></g>
<g><path style="opacity:1" fill="#820214" d="M 120.5,153.5 C 121.495,164.654 121.828,175.988 121.5,187.5C 118.526,190.309 115.859,189.976 113.5,186.5C 112.856,179.485 111.856,172.485 110.5,165.5C 110.682,162.774 111.182,160.107 112,157.5C 112.985,156.186 114.152,155.186 115.5,154.5C 116.919,153.549 118.585,153.216 120.5,153.5 Z"/></g>
<g><path style="opacity:1" fill="#fefffe" d="M 188.5,171.5 C 187.679,174.641 187.179,177.975 187,181.5C 186.501,177.514 186.334,173.514 186.5,169.5C 187.326,164.684 187.826,159.684 188,154.5C 188.499,160.157 188.666,165.824 188.5,171.5 Z"/></g>
<g><path style="opacity:1" fill="#870014" d="M 202.5,220.5 C 198.389,214.585 194.056,208.918 189.5,203.5C 188.35,200.702 187.017,198.035 185.5,195.5C 185.482,182.54 181.148,171.373 172.5,162C 173,161.5 173.5,161 174,160.5C 178.214,164.382 181.214,169.048 183,174.5C 184.794,181.804 186.461,189.138 188,196.5C 190.975,201.47 194.642,205.804 199,209.5C 200.674,213.021 201.84,216.687 202.5,220.5 Z"/></g>
<g><path style="opacity:1" fill="#163654" d="M 163.5,171.5 C 165.367,169.101 167.867,166.435 171,163.5C 171.667,164.167 171.667,164.833 171,165.5C 168.957,167.208 167.29,169.208 166,171.5C 165.23,172.598 164.397,172.598 163.5,171.5 Z"/></g>
<g><path style="opacity:1" fill="#fefffe" d="M 172.5,166.5 C 174.951,168.123 176.951,170.289 178.5,173C 171.531,180.97 164.198,188.636 156.5,196C 153.973,194.239 150.973,192.905 147.5,192C 156.706,184.295 165.039,175.795 172.5,166.5 Z"/></g>
<g><path style="opacity:1" fill="#fefffe" d="M 186.5,169.5 C 184.663,169.361 184.33,168.694 185.5,167.5C 186.298,167.957 186.631,168.624 186.5,169.5 Z"/></g>
<g><path style="opacity:1" fill="#163654" d="M 129.5,168.5 C 133.821,169.389 138.155,170.389 142.5,171.5C 139.147,174.687 135.647,177.687 132,180.5C 130.844,176.56 130.01,172.56 129.5,168.5 Z"/></g>
<g><path style="opacity:1" fill="#15293e" d="M 221.5,176.5 C 221.631,177.376 221.298,178.043 220.5,178.5C 218.604,177.725 216.937,176.725 215.5,175.5C 216.935,172.289 218.102,168.955 219,165.5C 219.239,169.387 220.072,173.054 221.5,176.5 Z"/></g>
<g><path style="opacity:1" fill="#1a3f61" d="M 158.5,173.5 C 151.752,178.397 145.085,183.563 138.5,189C 137.833,189.667 137.167,189.667 136.5,189C 138.706,186.963 140.706,184.797 142.5,182.5C 146.687,177.165 151.853,173.165 158,170.5C 158.483,171.448 158.649,172.448 158.5,173.5 Z"/></g>
<g><path style="opacity:1" fill="#fefffe" d="M 158.5,174.5 C 159.29,173.391 159.79,172.058 160,170.5C 160.584,173.257 160.25,175.923 159,178.5C 158.51,177.207 158.343,175.873 158.5,174.5 Z"/></g>
<g><path style="opacity:1" fill="#fbfbfb" d="M 123.5,145.5 C 123.833,147.5 124.167,149.5 124.5,151.5C 123.505,163.655 123.171,175.989 123.5,188.5C 125.783,188.392 127.783,187.559 129.5,186C 135.135,180.35 141.302,175.517 148,171.5C 148.833,171.667 149.667,171.833 150.5,172C 143.195,177.582 136.361,183.748 130,190.5C 129.138,192.087 128.471,193.754 128,195.5C 125.853,194.887 123.686,194.221 121.5,193.5C 120.359,192.575 120.359,191.741 121.5,191C 119.167,190.667 116.833,190.333 114.5,190C 112.689,188.959 112.355,187.793 113.5,186.5C 115.859,189.976 118.526,190.309 121.5,187.5C 122.824,175.993 122.824,164.327 121.5,152.5C 120.893,152.624 120.56,152.957 120.5,153.5C 118.585,153.216 116.919,153.549 115.5,154.5C 114.325,154.719 113.325,154.386 112.5,153.5C 114.291,152.83 115.958,152.163 117.5,151.5C 118.922,151.291 120.255,150.791 121.5,150C 122.738,149.31 122.738,148.81 121.5,148.5C 121.343,147.127 121.51,145.793 122,144.5C 122.383,145.056 122.883,145.389 123.5,145.5 Z"/></g>
<g><path style="opacity:1" fill="#fefffe" d="M 163.5,171.5 C 163.361,173.337 162.694,173.67 161.5,172.5C 161.957,171.702 162.624,171.369 163.5,171.5 Z"/></g>
<g><path style="opacity:1" fill="#296296" d="M 158.5,173.5 C 158.5,173.833 158.5,174.167 158.5,174.5C 157.691,176.292 157.191,178.292 157,180.5C 153.262,184.068 149.762,187.735 146.5,191.5C 144.978,192.562 143.312,193.229 141.5,193.5C 142.122,192.373 142.955,191.373 144,190.5C 144.667,189.5 144.667,188.5 144,187.5C 140.624,190.383 137.124,193.049 133.5,195.5C 132.972,194.279 132.305,193.113 131.5,192C 134.764,188.227 138.43,185.06 142.5,182.5C 140.706,184.797 138.706,186.963 136.5,189C 137.167,189.667 137.833,189.667 138.5,189C 145.085,183.563 151.752,178.397 158.5,173.5 Z"/></g>
<g><path style="opacity:1" fill="#255988" d="M 183.5,195.5 C 183.5,196.167 183.5,196.833 183.5,197.5C 183.5,199.833 183.5,202.167 183.5,204.5C 183.158,205.338 182.492,205.672 181.5,205.5C 178.5,205.5 175.5,205.5 172.5,205.5C 172.5,203.167 172.5,200.833 172.5,198.5C 173.327,193.015 173.827,187.348 174,181.5C 175.667,179.5 177.333,177.5 179,175.5C 181.201,182.004 182.701,188.671 183.5,195.5 Z"/></g>
<g><path style="opacity:1" fill="#275d8e" d="M 172.5,198.5 C 171.527,200.948 171.194,203.615 171.5,206.5C 169.167,206.5 166.833,206.5 164.5,206.5C 163.432,205.566 162.099,205.232 160.5,205.5C 160.579,204.07 160.246,202.736 159.5,201.5C 160.243,200.818 160.909,200.151 161.5,199.5C 161.5,198.833 161.5,198.167 161.5,197.5C 161.082,196.778 160.416,196.278 159.5,196C 163.667,191.833 167.833,187.667 172,183.5C 172.499,188.489 172.666,193.489 172.5,198.5 Z"/></g>
<g><path style="opacity:1" fill="#163654" d="M 141.5,193.5 C 138.357,194.134 135.857,195.8 134,198.5C 133.517,197.552 133.351,196.552 133.5,195.5C 137.124,193.049 140.624,190.383 144,187.5C 144.667,188.5 144.667,189.5 144,190.5C 142.955,191.373 142.122,192.373 141.5,193.5 Z"/></g>
<g><path style="opacity:1" fill="#f0f0f0" d="M 145.5,194.5 C 147.527,194.338 149.527,194.505 151.5,195C 154.083,197.795 156.417,200.795 158.5,204C 157.5,205 156.5,206 155.5,207C 150.442,207.661 145.442,207.328 140.5,206C 140.043,205.586 139.709,205.086 139.5,204.5C 142.548,201.729 144.548,198.396 145.5,194.5 Z"/></g>
<g><path style="opacity:1" fill="#fefffe" d="M 141.5,195.5 C 142.239,195.369 142.906,195.536 143.5,196C 140.34,199.828 137.84,203.995 136,208.5C 132.667,211.833 129.333,215.167 126,218.5C 128.176,212.782 130.676,207.115 133.5,201.5C 136.492,199.829 139.159,197.829 141.5,195.5 Z"/></g>
<g><path style="opacity:1" fill="#fefffe" d="M 183.5,195.5 C 184.167,195.5 184.833,195.5 185.5,195.5C 185.5,196.833 184.833,197.5 183.5,197.5C 183.5,196.833 183.5,196.167 183.5,195.5 Z"/></g>
<g><path style="opacity:1" fill="#fefffe" d="M 148.5,196.5 C 150.337,196.639 150.67,197.306 149.5,198.5C 148.702,198.043 148.369,197.376 148.5,196.5 Z"/></g>
<g><path style="opacity:1" fill="#fefffe" d="M 161.5,197.5 C 161.5,198.167 161.5,198.833 161.5,199.5C 158.833,198.833 158.833,198.167 161.5,197.5 Z"/></g>
<g><path style="opacity:1" fill="#000000" d="M 172.5,198.5 C 172.5,200.833 172.5,203.167 172.5,205.5C 175.5,205.5 178.5,205.5 181.5,205.5C 177.354,206.448 173.02,207.115 168.5,207.5C 166.955,207.489 165.622,207.156 164.5,206.5C 166.833,206.5 169.167,206.5 171.5,206.5C 171.194,203.615 171.527,200.948 172.5,198.5 Z"/></g>
<g><path style="opacity:1" fill="#fefffe" d="M 164.5,206.5 C 165.622,207.156 166.955,207.489 168.5,207.5C 173.02,207.115 177.354,206.448 181.5,205.5C 182.492,205.672 183.158,205.338 183.5,204.5C 184.309,202.708 184.809,200.708 185,198.5C 185.497,201.146 185.664,203.813 185.5,206.5C 176.921,208.309 168.254,208.809 159.5,208C 159.167,207.667 158.833,207.333 158.5,207C 160.473,206.505 162.473,206.338 164.5,206.5 Z"/></g>
<g><path style="opacity:1" fill="#0088c4" d="M 189.5,203.5 C 192.295,209.752 195.628,215.752 199.5,221.5C 197.62,221.229 196.287,221.896 195.5,223.5C 193.779,218.23 191.112,213.397 187.5,209C 188.109,207.052 188.776,205.218 189.5,203.5 Z"/></g>
<g><path style="opacity:1" fill="#000000" d="M 189.5,203.5 C 194.056,208.918 198.389,214.585 202.5,220.5C 201.791,221.404 200.791,221.737 199.5,221.5C 195.628,215.752 192.295,209.752 189.5,203.5 Z"/></g>
<g><path style="opacity:1" fill="#e8e8e8" d="M 139.5,207.5 C 144.198,208.1 148.864,208.933 153.5,210C 151.959,212.916 150.293,215.749 148.5,218.5C 145.894,219.652 143.227,219.818 140.5,219C 139.422,218.326 138.755,217.326 138.5,216C 139.216,213.208 139.549,210.374 139.5,207.5 Z"/></g>
<g><path style="opacity:1" fill="#296296" d="M 135.5,211.5 C 136.613,212.946 136.78,214.613 136,216.5C 126.585,224.666 122.085,234.999 122.5,247.5C 123.552,247.351 124.552,247.517 125.5,248C 123.899,248.273 122.399,248.773 121,249.5C 121.266,241.108 122.266,232.775 124,224.5C 127.67,219.998 131.503,215.665 135.5,211.5 Z"/></g>
<g><path style="opacity:1" fill="#000000" d="M 142.5,212.5 C 143.919,211.549 145.585,211.216 147.5,211.5C 147.737,212.791 147.404,213.791 146.5,214.5C 145.817,212.824 144.483,212.157 142.5,212.5 Z"/></g>
<g><path style="opacity:1" fill="#272827" d="M 123.5,212.5 C 124.239,212.369 124.906,212.536 125.5,213C 121.91,220.018 120.077,227.518 120,235.5C 119.804,237.904 118.638,239.571 116.5,240.5C 116.167,240.167 115.833,239.833 115.5,239.5C 116.731,234.056 117.731,228.556 118.5,223C 118.057,219.563 116.057,217.896 112.5,218C 116.227,216.136 119.894,214.303 123.5,212.5 Z"/></g>
<g><path style="opacity:1" fill="#fefffe" d="M 142.5,212.5 C 144.483,212.157 145.817,212.824 146.5,214.5C 145.533,215.806 144.199,216.473 142.5,216.5C 142.5,215.167 142.5,213.833 142.5,212.5 Z"/></g>
<g><path style="opacity:1" fill="#0088c4" d="M 187.5,213.5 C 192.819,219.637 194.319,226.637 192,234.5C 189.158,227.79 187.658,220.79 187.5,213.5 Z"/></g>
<g><path style="opacity:1" fill="#626262" d="M 202.5,220.5 C 203.043,220.56 203.376,220.893 203.5,221.5C 202.757,222.182 202.091,222.849 201.5,223.5C 199.259,223.954 197.259,223.954 195.5,223.5C 196.287,221.896 197.62,221.229 199.5,221.5C 200.791,221.737 201.791,221.404 202.5,220.5 Z"/></g>
<g><path style="opacity:1" fill="#0882ba" d="M 201.5,223.5 C 203.053,230.568 200.386,235.068 193.5,237C 194.167,236.333 194.833,235.667 195.5,235C 194.888,233.141 194.888,231.141 195.5,229C 195.833,227.833 196.167,226.667 196.5,225.5C 197.97,231.959 198.637,231.626 198.5,224.5C 199.791,224.737 200.791,224.404 201.5,223.5 Z"/></g>
<g><path style="opacity:1" fill="#84563b" d="M 208.5,306.5 C 201.252,310.912 195.085,316.578 190,323.5C 189.667,322.5 189.333,321.5 189,320.5C 187.364,325.375 186.531,330.375 186.5,335.5C 185.51,341.31 185.177,347.31 185.5,353.5C 184.167,353.5 182.833,353.5 181.5,353.5C 180.19,351.852 178.857,350.186 177.5,348.5C 178,347.5 178.5,346.5 179,345.5C 179.946,335.519 180.613,325.519 181,315.5C 181.393,312.367 182.226,309.367 183.5,306.5C 182.366,303.885 182.699,301.385 184.5,299C 182.684,295.204 181.017,291.37 179.5,287.5C 182.2,290.037 185.033,292.37 188,294.5C 183.821,282.944 177.821,272.277 170,262.5C 169.333,261.5 169.333,260.5 170,259.5C 174.917,262.375 179.751,265.375 184.5,268.5C 181.719,265.2 178.386,261.7 174.5,258C 177.437,257.639 180.27,258.139 183,259.5C 183.5,259.333 184,259.167 184.5,259C 181.497,257.834 178.83,256.167 176.5,254C 181.544,254.095 186.544,253.928 191.5,253.5C 184.755,251.367 177.922,250.701 171,251.5C 170.055,251.095 169.388,250.428 169,249.5C 168.667,250.5 168.333,251.5 168,252.5C 162.356,250.107 156.522,248.607 150.5,248C 154.706,250.602 159.039,252.936 163.5,255C 159.835,256.497 156.502,258.497 153.5,261C 155.929,261.703 158.262,261.537 160.5,260.5C 159.119,264.264 157.453,267.931 155.5,271.5C 155.667,271.833 155.833,272.167 156,272.5C 156.915,271.672 157.581,270.672 158,269.5C 157.008,282.793 154.341,295.793 150,308.5C 140.497,319.673 132.164,331.673 125,344.5C 124.206,347.471 123.539,350.471 123,353.5C 120.602,353.958 118.936,355.292 118,357.5C 116.184,356.671 114.351,355.837 112.5,355C 109.332,350.813 106.166,346.647 103,342.5C 102.123,340.326 102.623,338.659 104.5,337.5C 105.93,337.579 107.264,337.246 108.5,336.5C 109.192,337.025 109.692,337.692 110,338.5C 110.374,337.584 110.874,336.75 111.5,336C 116.769,334.894 122.103,334.227 127.5,334C 123.064,332.743 118.564,331.576 114,330.5C 112.275,331.464 110.441,332.131 108.5,332.5C 109.441,330.95 110.107,329.284 110.5,327.5C 112.582,327.472 114.416,328.139 116,329.5C 121.913,328.183 127.747,326.683 133.5,325C 126.458,322.974 119.458,321.808 112.5,321.5C 112.46,318.575 113.293,315.909 115,313.5C 119.528,308.322 123.195,302.656 126,296.5C 128.392,278.718 127.892,261.052 124.5,243.5C 125.332,233.837 129.332,225.837 136.5,219.5C 136.833,220 137.167,220.5 137.5,221C 133.855,238.226 130.855,255.56 128.5,273C 128.667,275.167 128.833,277.333 129,279.5C 129.414,279.957 129.914,280.291 130.5,280.5C 131.331,287.142 131.831,293.809 132,300.5C 132.333,293.5 132.667,286.5 133,279.5C 137.8,262.634 142.133,245.634 146,228.5C 148.069,227.736 150.236,227.236 152.5,227C 145.458,226.286 145.124,225.286 151.5,224C 150.062,223.781 148.729,223.281 147.5,222.5C 148.325,221.614 149.325,221.281 150.5,221.5C 151.774,217.619 153.607,213.952 156,210.5C 156.333,214.5 156.667,218.5 157,222.5C 157.333,218.167 157.667,213.833 158,209.5C 159.011,210.337 160.178,210.67 161.5,210.5C 161.833,229.167 162.167,229.167 162.5,210.5C 165.833,210.5 169.167,210.5 172.5,210.5C 172.833,214.5 173.167,214.5 173.5,210.5C 176.167,210.167 178.833,209.833 181.5,209.5C 181.672,218.81 182.172,218.81 183,209.5C 186.872,229.102 193.205,248.768 202,268.5C 205.168,278.506 208.334,288.506 211.5,298.5C 210.492,301.195 209.492,303.862 208.5,306.5 Z"/></g>
<g><path style="opacity:1" fill="#272827" d="M 139.5,221.5 C 141.604,221.201 143.604,221.534 145.5,222.5C 140.856,241.223 136.022,259.89 131,278.5C 130.598,277.128 130.098,275.795 129.5,274.5C 132.942,256.848 136.275,239.181 139.5,221.5 Z"/></g>
<g><path style="opacity:1" fill="#5c412e" d="M 179.5,287.5 C 174.409,278.319 169.576,268.986 165,259.5C 163.085,258.084 161.585,258.418 160.5,260.5C 158.262,261.537 155.929,261.703 153.5,261C 156.502,258.497 159.835,256.497 163.5,255C 159.039,252.936 154.706,250.602 150.5,248C 156.522,248.607 162.356,250.107 168,252.5C 168.333,251.5 168.667,250.5 169,249.5C 169.388,250.428 170.055,251.095 171,251.5C 177.922,250.701 184.755,251.367 191.5,253.5C 186.544,253.928 181.544,254.095 176.5,254C 178.83,256.167 181.497,257.834 184.5,259C 184,259.167 183.5,259.333 183,259.5C 180.27,258.139 177.437,257.639 174.5,258C 178.386,261.7 181.719,265.2 184.5,268.5C 179.751,265.375 174.917,262.375 170,259.5C 169.333,260.5 169.333,261.5 170,262.5C 177.821,272.277 183.821,282.944 188,294.5C 185.033,292.37 182.2,290.037 179.5,287.5 Z"/></g>
<g><path style="opacity:1" fill="#5a3f2d" d="M 208.5,306.5 C 208.167,307.833 207.833,309.167 207.5,310.5C 201.531,317.302 195.031,323.635 188,329.5C 187.333,331.5 187.333,333.5 188,335.5C 190.26,332.472 193.094,330.638 196.5,330C 193.297,333.371 189.964,336.538 186.5,339.5C 186.5,338.167 186.5,336.833 186.5,335.5C 186.531,330.375 187.364,325.375 189,320.5C 189.333,321.5 189.667,322.5 190,323.5C 195.085,316.578 201.252,310.912 208.5,306.5 Z"/></g>
<g><path style="opacity:1" fill="#87593c" d="M 207.5,310.5 C 206.808,313.936 205.808,317.27 204.5,320.5C 200.249,330.671 194.249,339.671 186.5,347.5C 186.5,344.833 186.5,342.167 186.5,339.5C 189.964,336.538 193.297,333.371 196.5,330C 193.094,330.638 190.26,332.472 188,335.5C 187.333,333.5 187.333,331.5 188,329.5C 195.031,323.635 201.531,317.302 207.5,310.5 Z"/></g>
<g><path style="opacity:1" fill="#5c402e" d="M 125.5,311.5 C 126.156,312.278 126.989,312.944 128,313.5C 132.384,314.086 136.551,315.253 140.5,317C 134.221,318.792 127.887,319.292 121.5,318.5C 123.11,316.275 124.443,313.941 125.5,311.5 Z"/></g>
<g><path style="opacity:1" fill="#6d4a34" d="M 204.5,320.5 C 202.97,330.086 202.137,339.752 202,349.5C 200.833,350.667 199.667,351.833 198.5,353C 201.258,355.402 200.925,357.402 197.5,359C 195.129,359.735 192.795,360.568 190.5,361.5C 187.971,359.937 186.971,357.604 187.5,354.5C 192.5,353.997 192.167,353.664 186.5,353.5C 186.5,351.5 186.5,349.5 186.5,347.5C 194.249,339.671 200.249,330.671 204.5,320.5 Z"/></g>
<g><path style="opacity:1" fill="#5e422f" d="M 112.5,321.5 C 119.458,321.808 126.458,322.974 133.5,325C 127.747,326.683 121.913,328.183 116,329.5C 114.416,328.139 112.582,327.472 110.5,327.5C 110.595,325.214 111.262,323.214 112.5,321.5 Z"/></g>
<g><path style="opacity:1" fill="#5e422f" d="M 104.5,337.5 C 105.08,335.251 106.413,333.585 108.5,332.5C 110.441,332.131 112.275,331.464 114,330.5C 118.564,331.576 123.064,332.743 127.5,334C 122.103,334.227 116.769,334.894 111.5,336C 110.874,336.75 110.374,337.584 110,338.5C 109.692,337.692 109.192,337.025 108.5,336.5C 107.264,337.246 105.93,337.579 104.5,337.5 Z"/></g>
<g><path style="opacity:1" fill="#272827" d="M 101.5,344.5 C 104.444,348.835 107.777,353.002 111.5,357C 113.459,357.931 115.459,358.764 117.5,359.5C 118.833,361.5 118.833,363.5 117.5,365.5C 107.05,365.893 101.383,360.727 100.5,350C 101.406,348.301 101.739,346.467 101.5,344.5 Z"/></g>
<g><path style="opacity:1" fill="#664832" d="M 181.5,353.5 C 182.919,354.451 184.585,354.784 186.5,354.5C 186.66,356.199 186.494,357.866 186,359.5C 183.423,358.729 180.923,357.729 178.5,356.5C 179.188,355.145 180.188,354.145 181.5,353.5 Z"/></g>
<g><path style="opacity:1" fill="#272827" d="M 201.5,358.5 C 203.335,360.835 205.335,363.001 207.5,365C 207.241,366.261 206.574,367.261 205.5,368C 198.355,372.749 190.689,373.749 182.5,371C 180.024,369.691 178.024,367.858 176.5,365.5C 177.123,363.289 178.123,361.289 179.5,359.5C 183.27,360.552 186.937,361.885 190.5,363.5C 194.72,362.772 198.387,361.106 201.5,358.5 Z"/></g>
</svg>
