<?xml version="1.0" encoding="UTF-8"?>
<!DOCTYPE svg PUBLIC "-//W3C//DTD SVG 1.1//EN" "http://www.w3.org/Graphics/SVG/1.1/DTD/svg11.dtd">
<svg xmlns="http://www.w3.org/2000/svg" version="1.1" width="400px" height="400px" style="shape-rendering:geometricPrecision; text-rendering:geometricPrecision; image-rendering:optimizeQuality; fill-rule:evenodd; clip-rule:evenodd" xmlns:xlink="http://www.w3.org/1999/xlink">
<g><path style="opacity:1" fill="#fefffe" d="M 41.5,41.5 C 42.552,41.3505 43.552,41.5172 44.5,42C 71.5358,66.7045 98.8691,91.0378 126.5,115C 128.5,115.667 130.5,116.333 132.5,117C 147.379,129.109 164.046,138.109 182.5,144C 200.16,148.003 217.16,146.003 233.5,138C 245.346,132.248 256.346,125.248 266.5,117C 269.417,115.472 272.417,114.139 275.5,113C 301.799,89.7025 327.799,66.0358 353.5,42C 354.793,41.51 356.127,41.3433 357.5,41.5C 357.649,42.552 357.483,43.552 357,44.5C 332.296,71.5358 307.962,98.8691 284,126.5C 283.333,128.5 282.667,130.5 282,132.5C 269.891,147.379 260.891,164.046 255,182.5C 250.981,199.063 252.648,215.063 260,230.5C 266.329,243.167 273.663,255.167 282,266.5C 282.667,268.5 283.333,270.5 284,272.5C 307.962,300.131 332.296,327.464 357,354.5C 357.483,355.448 357.649,356.448 357.5,357.5C 356.127,357.657 354.793,357.49 353.5,357C 327.097,331.927 300.097,307.593 272.5,284C 270.392,283.64 268.392,282.973 266.5,282C 247.349,265.094 225.016,255.261 199.5,252.5C 183.384,253.816 168.384,258.65 154.5,267C 146.893,271.609 139.559,276.609 132.5,282C 130.5,282.667 128.5,283.333 126.5,284C 98.8691,307.962 71.5358,332.296 44.5,357C 43.552,357.483 42.552,357.649 41.5,357.5C 41.3433,356.127 41.51,354.793 42,353.5C 66.0358,327.799 89.7025,301.799 113,275.5C 116.986,266.86 121.986,258.86 128,251.5C 138.629,235.781 144.796,218.447 146.5,199.5C 144.796,180.553 138.629,163.219 128,147.5C 121.969,140.096 116.969,132.096 113,123.5C 89.7025,97.2007 66.0358,71.2007 42,45.5C 41.51,44.2068 41.3433,42.8734 41.5,41.5 Z M 127.5,127.5 C 140.669,136.59 154.669,144.424 169.5,151C 193.363,159.165 216.696,157.831 239.5,147C 250.579,141.069 261.246,134.569 271.5,127.5C 262.41,140.669 254.576,154.669 248,169.5C 239.082,197.157 242.082,223.49 257,248.5C 261.855,256.223 266.688,263.89 271.5,271.5C 255.713,259.773 238.379,250.939 219.5,245C 194.961,240.034 171.961,244.034 150.5,257C 142.777,261.855 135.11,266.688 127.5,271.5C 139.227,255.713 148.061,238.379 154,219.5C 158.319,198.733 155.986,178.733 147,159.5C 141.069,148.421 134.569,137.754 127.5,127.5 Z"/></g>
<g><path style="opacity:1" fill="#3c2d2d" d="M 42.5,42.5 C 69.9983,67.1634 97.665,91.6634 125.5,116C 127.5,116.667 129.5,117.333 131.5,118C 146.379,130.109 163.046,139.109 181.5,145C 199.837,149.223 217.503,147.223 234.5,139C 246.346,133.248 257.346,126.248 267.5,118C 270.417,116.472 273.417,115.139 276.5,114C 302.799,90.7025 328.799,67.0358 354.5,43C 355.167,42.3333 355.833,42.3333 356.5,43C 331.629,70.2024 307.129,97.7024 283,125.5C 282.333,127.5 281.667,129.5 281,131.5C 268.891,146.379 259.891,163.046 254,181.5C 249.761,198.741 251.428,215.407 259,231.5C 265.329,244.167 272.663,256.167 281,267.5C 281.667,269.5 282.333,271.5 283,273.5C 307.129,301.298 331.629,328.798 356.5,356C 355.833,356.667 355.167,356.667 354.5,356C 328.097,330.927 301.097,306.593 273.5,283C 271.392,282.64 269.392,281.973 267.5,281C 252.589,268.876 235.923,259.876 217.5,254C 200.259,249.761 183.593,251.428 167.5,259C 154.833,265.329 142.833,272.663 131.5,281C 129.5,281.667 127.5,282.333 125.5,283C 97.7024,307.129 70.2024,331.629 43,356.5C 42.3333,355.833 42.3333,355.167 43,354.5C 67.0358,328.799 90.7025,302.799 114,276.5C 117.986,267.86 122.986,259.86 129,252.5C 139.838,236.487 146.005,218.82 147.5,199.5C 146.005,180.18 139.838,162.513 129,146.5C 122.969,139.096 117.969,131.096 114,122.5C 89.9368,95.9425 66.1035,69.2758 42.5,42.5 Z M 127.5,127.5 C 140.669,136.59 154.669,144.424 169.5,151C 193.363,159.165 216.696,157.831 239.5,147C 250.579,141.069 261.246,134.569 271.5,127.5C 262.41,140.669 254.576,154.669 248,169.5C 239.082,197.157 242.082,223.49 257,248.5C 261.855,256.223 266.688,263.89 271.5,271.5C 255.713,259.773 238.379,250.939 219.5,245C 194.961,240.034 171.961,244.034 150.5,257C 142.777,261.855 135.11,266.688 127.5,271.5C 139.227,255.713 148.061,238.379 154,219.5C 158.319,198.733 155.986,178.733 147,159.5C 141.069,148.421 134.569,137.754 127.5,127.5 Z"/></g>
<g><path style="opacity:1" fill="#fefffe" d="M 118.5,118.5 C 132.43,129.478 147.43,138.978 163.5,147C 188.632,158.535 213.632,158.202 238.5,146C 253.393,138.597 267.06,129.43 279.5,118.5C 280.521,119.002 280.688,119.668 280,120.5C 264.542,138.073 253.209,158.073 246,180.5C 241.998,199.484 243.998,217.817 252,235.5C 259.728,251.379 269.228,266.045 280.5,279.5C 279.998,280.521 279.332,280.688 278.5,280C 256.305,259.32 230.138,247.153 200,243.5C 178.557,244.806 159.057,251.639 141.5,264C 133.988,269.257 126.654,274.757 119.5,280.5C 118.479,279.998 118.312,279.332 119,278.5C 139.828,256.178 151.994,229.844 155.5,199.5C 153.784,177.516 146.617,157.516 134,139.5C 128.977,132.323 123.81,125.323 118.5,118.5 Z M 127.5,127.5 C 140.669,136.59 154.669,144.424 169.5,151C 193.363,159.165 216.696,157.831 239.5,147C 250.579,141.069 261.246,134.569 271.5,127.5C 262.41,140.669 254.576,154.669 248,169.5C 239.082,197.157 242.082,223.49 257,248.5C 261.855,256.223 266.688,263.89 271.5,271.5C 255.713,259.773 238.379,250.939 219.5,245C 194.961,240.034 171.961,244.034 150.5,257C 142.777,261.855 135.11,266.688 127.5,271.5C 139.227,255.713 148.061,238.379 154,219.5C 158.319,198.733 155.986,178.733 147,159.5C 141.069,148.421 134.569,137.754 127.5,127.5 Z"/></g>
</svg>
