<?xml version="1.0" encoding="UTF-8"?>
<!DOCTYPE svg PUBLIC "-//W3C//DTD SVG 1.1//EN" "http://www.w3.org/Graphics/SVG/1.1/DTD/svg11.dtd">
<svg xmlns="http://www.w3.org/2000/svg" version="1.1" width="400px" height="400px" style="shape-rendering:geometricPrecision; text-rendering:geometricPrecision; image-rendering:optimizeQuality; fill-rule:evenodd; clip-rule:evenodd" xmlns:xlink="http://www.w3.org/1999/xlink">
<g><path style="opacity:1" fill="#fefefe" d="M 40.5,40.5 C 42.1992,40.3398 43.8659,40.5065 45.5,41C 72.5358,65.7045 99.8691,90.0378 127.5,114C 129.5,114.667 131.5,115.333 133.5,116C 148.379,128.109 165.046,137.109 183.5,143C 200.481,146.783 216.815,144.783 232.5,137C 244.346,131.248 255.346,124.248 265.5,116C 268.417,114.472 271.417,113.139 274.5,112C 300.799,88.7025 326.799,65.0358 352.5,41C 354.473,40.5045 356.473,40.3379 358.5,40.5C 358.66,42.1992 358.494,43.8659 358,45.5C 333.296,72.5358 308.962,99.8691 285,127.5C 284.333,129.5 283.667,131.5 283,133.5C 270.891,148.379 261.891,165.046 256,183.5C 252.201,199.385 253.868,214.719 261,229.5C 267.329,242.167 274.663,254.167 283,265.5C 283.667,267.5 284.333,269.5 285,271.5C 308.962,299.131 333.296,326.464 358,353.5C 358.494,355.134 358.66,356.801 358.5,358.5C 356.473,358.662 354.473,358.495 352.5,358C 326.097,332.927 299.097,308.593 271.5,285C 269.392,284.64 267.392,283.973 265.5,283C 246.605,266.389 224.605,256.555 199.5,253.5C 183.757,255.025 169.091,259.859 155.5,268C 147.893,272.609 140.559,277.609 133.5,283C 131.5,283.667 129.5,284.333 127.5,285C 99.8691,308.962 72.5358,333.296 45.5,358C 43.8659,358.494 42.1992,358.66 40.5,358.5C 40.3379,356.473 40.5045,354.473 41,352.5C 65.0358,326.799 88.7025,300.799 112,274.5C 115.986,265.86 120.986,257.86 127,250.5C 137.421,235.074 143.587,218.074 145.5,199.5C 143.587,180.926 137.421,163.926 127,148.5C 120.969,141.096 115.969,133.096 112,124.5C 88.7025,98.2007 65.0358,72.2007 41,46.5C 40.5045,44.5273 40.3379,42.5273 40.5,40.5 Z M 132.5,132.5 C 146.562,142.363 161.895,149.863 178.5,155C 200.75,159.631 222.083,156.964 242.5,147C 250.694,142.407 258.694,137.573 266.5,132.5C 256.637,146.562 249.137,161.895 244,178.5C 238.814,203.716 242.814,227.383 256,249.5C 259.522,255.223 263.022,260.889 266.5,266.5C 252.381,256.607 237.047,249.107 220.5,244C 195.286,238.813 171.619,242.813 149.5,256C 143.777,259.522 138.111,263.022 132.5,266.5C 142.393,252.381 149.893,237.047 155,220.5C 159.631,198.252 156.965,176.919 147,156.5C 142.407,148.306 137.573,140.306 132.5,132.5 Z"/></g>
<g><path style="opacity:1" fill="#644040" d="M 42.5,42.5 C 69.9983,67.1634 97.665,91.6634 125.5,116C 127.5,116.667 129.5,117.333 131.5,118C 146.379,130.109 163.046,139.109 181.5,145C 199.837,149.223 217.503,147.223 234.5,139C 246.346,133.248 257.346,126.248 267.5,118C 270.417,116.472 273.417,115.139 276.5,114C 302.799,90.7025 328.799,67.0358 354.5,43C 355.167,42.3333 355.833,42.3333 356.5,43C 331.629,70.2024 307.129,97.7024 283,125.5C 282.333,127.5 281.667,129.5 281,131.5C 268.891,146.379 259.891,163.046 254,181.5C 249.761,198.741 251.428,215.407 259,231.5C 265.329,244.167 272.663,256.167 281,267.5C 281.667,269.5 282.333,271.5 283,273.5C 307.129,301.298 331.629,328.798 356.5,356C 355.833,356.667 355.167,356.667 354.5,356C 328.097,330.927 301.097,306.593 273.5,283C 271.392,282.64 269.392,281.973 267.5,281C 252.589,268.876 235.923,259.876 217.5,254C 200.259,249.761 183.593,251.428 167.5,259C 154.833,265.329 142.833,272.663 131.5,281C 129.5,281.667 127.5,282.333 125.5,283C 97.7024,307.129 70.2024,331.629 43,356.5C 42.3333,355.833 42.3333,355.167 43,354.5C 67.0358,328.799 90.7025,302.799 114,276.5C 117.986,267.86 122.986,259.86 129,252.5C 139.838,236.487 146.005,218.82 147.5,199.5C 146.005,180.18 139.838,162.513 129,146.5C 122.969,139.096 117.969,131.096 114,122.5C 89.9368,95.9425 66.1035,69.2758 42.5,42.5 Z M 132.5,132.5 C 146.562,142.363 161.895,149.863 178.5,155C 200.75,159.631 222.083,156.964 242.5,147C 250.694,142.407 258.694,137.573 266.5,132.5C 256.637,146.562 249.137,161.895 244,178.5C 238.814,203.716 242.814,227.383 256,249.5C 259.522,255.223 263.022,260.889 266.5,266.5C 252.381,256.607 237.047,249.107 220.5,244C 195.286,238.813 171.619,242.813 149.5,256C 143.777,259.522 138.111,263.022 132.5,266.5C 142.393,252.381 149.893,237.047 155,220.5C 159.631,198.252 156.965,176.919 147,156.5C 142.407,148.306 137.573,140.306 132.5,132.5 Z"/></g>
<g><path style="opacity:1" fill="#fefefe" d="M 118.5,118.5 C 132.43,129.478 147.43,138.978 163.5,147C 188.632,158.535 213.632,158.202 238.5,146C 253.393,138.597 267.06,129.43 279.5,118.5C 280.521,119.002 280.688,119.668 280,120.5C 264.542,138.073 253.209,158.073 246,180.5C 241.998,199.484 243.998,217.817 252,235.5C 259.728,251.379 269.228,266.045 280.5,279.5C 279.998,280.521 279.332,280.688 278.5,280C 256.305,259.32 230.138,247.153 200,243.5C 178.557,244.806 159.057,251.639 141.5,264C 133.988,269.257 126.654,274.757 119.5,280.5C 118.479,279.998 118.312,279.332 119,278.5C 139.828,256.178 151.994,229.844 155.5,199.5C 153.784,177.516 146.617,157.516 134,139.5C 128.977,132.323 123.81,125.323 118.5,118.5 Z M 132.5,132.5 C 146.562,142.363 161.895,149.863 178.5,155C 200.75,159.631 222.083,156.964 242.5,147C 250.694,142.407 258.694,137.573 266.5,132.5C 256.637,146.562 249.137,161.895 244,178.5C 238.814,203.716 242.814,227.383 256,249.5C 259.522,255.223 263.022,260.889 266.5,266.5C 252.381,256.607 237.047,249.107 220.5,244C 195.286,238.813 171.619,242.813 149.5,256C 143.777,259.522 138.111,263.022 132.5,266.5C 142.393,252.381 149.893,237.047 155,220.5C 159.631,198.252 156.965,176.919 147,156.5C 142.407,148.306 137.573,140.306 132.5,132.5 Z"/></g>
</svg>
