<?xml version="1.0" encoding="UTF-8"?>
<!DOCTYPE svg PUBLIC "-//W3C//DTD SVG 1.1//EN" "http://www.w3.org/Graphics/SVG/1.1/DTD/svg11.dtd">
<svg xmlns="http://www.w3.org/2000/svg" version="1.1" width="400px" height="400px" style="shape-rendering:geometricPrecision; text-rendering:geometricPrecision; image-rendering:optimizeQuality; fill-rule:evenodd; clip-rule:evenodd" xmlns:xlink="http://www.w3.org/1999/xlink">
<g><path style="opacity:1" fill="#fefffe" d="M 39.5,39.5 C 41.8568,39.3367 44.1902,39.5034 46.5,40C 73.5358,64.7045 100.869,89.0378 128.5,113C 130.5,113.667 132.5,114.333 134.5,115C 149.379,127.109 166.046,136.109 184.5,142C 189.464,143.05 194.464,143.883 199.5,144.5C 224.192,141.151 245.858,131.318 264.5,115C 267.417,113.472 270.417,112.139 273.5,111C 299.799,87.7025 325.799,64.0358 351.5,40C 354.146,39.5026 356.813,39.3359 359.5,39.5C 359.663,41.8568 359.497,44.1902 359,46.5C 334.296,73.5358 309.962,100.869 286,128.5C 285.333,130.5 284.667,132.5 284,134.5C 271.891,149.379 262.891,166.046 257,184.5C 253.42,199.706 255.087,214.373 262,228.5C 268.329,241.167 275.663,253.167 284,264.5C 284.667,266.5 285.333,268.5 286,270.5C 309.962,298.131 334.296,325.464 359,352.5C 359.497,354.81 359.663,357.143 359.5,359.5C 356.813,359.664 354.146,359.497 351.5,359C 325.097,333.927 298.097,309.593 270.5,286C 268.392,285.64 266.392,284.973 264.5,284C 245.858,267.682 224.192,257.849 199.5,254.5C 184.132,256.234 169.799,261.067 156.5,269C 148.893,273.609 141.559,278.609 134.5,284C 132.5,284.667 130.5,285.333 128.5,286C 100.869,309.962 73.5358,334.296 46.5,359C 44.1902,359.497 41.8568,359.663 39.5,359.5C 39.3359,356.813 39.5026,354.146 40,351.5C 64.0358,325.799 87.7025,299.799 111,273.5C 114.986,264.86 119.986,256.86 126,249.5C 136.213,234.365 142.379,217.699 144.5,199.5C 142.379,181.301 136.213,164.635 126,149.5C 119.969,142.096 114.969,134.096 111,125.5C 87.7025,99.2007 64.0358,73.2007 40,47.5C 39.5026,44.854 39.3359,42.1873 39.5,39.5 Z M 138.5,138.5 C 150.717,145.939 163.717,151.773 177.5,156C 199.615,160.697 220.949,158.364 241.5,149C 247.888,145.476 254.221,141.976 260.5,138.5C 253.061,150.717 247.227,163.717 243,177.5C 239.101,195.779 240.101,213.779 246,231.5C 250.333,241.499 255.166,251.165 260.5,260.5C 250.253,254.544 239.586,249.377 228.5,245C 208.065,238.829 187.731,239.163 167.5,246C 157.501,250.333 147.835,255.166 138.5,260.5C 165.167,219.833 165.167,179.167 138.5,138.5 Z"/></g>
<g><path style="opacity:1" fill="#7e4545" d="M 42.5,42.5 C 69.9983,67.1634 97.665,91.6634 125.5,116C 127.5,116.667 129.5,117.333 131.5,118C 146.379,130.109 163.046,139.109 181.5,145C 199.837,149.223 217.503,147.223 234.5,139C 246.346,133.248 257.346,126.248 267.5,118C 270.417,116.472 273.417,115.139 276.5,114C 302.799,90.7025 328.799,67.0358 354.5,43C 355.167,42.3333 355.833,42.3333 356.5,43C 331.629,70.2024 307.129,97.7024 283,125.5C 282.333,127.5 281.667,129.5 281,131.5C 268.891,146.379 259.891,163.046 254,181.5C 249.761,198.741 251.428,215.407 259,231.5C 265.329,244.167 272.663,256.167 281,267.5C 281.667,269.5 282.333,271.5 283,273.5C 307.129,301.298 331.629,328.798 356.5,356C 355.833,356.667 355.167,356.667 354.5,356C 328.097,330.927 301.097,306.593 273.5,283C 271.392,282.64 269.392,281.973 267.5,281C 252.589,268.876 235.923,259.876 217.5,254C 200.259,249.761 183.593,251.428 167.5,259C 154.833,265.329 142.833,272.663 131.5,281C 129.5,281.667 127.5,282.333 125.5,283C 97.7024,307.129 70.2024,331.629 43,356.5C 42.3333,355.833 42.3333,355.167 43,354.5C 67.0358,328.799 90.7025,302.799 114,276.5C 117.986,267.86 122.986,259.86 129,252.5C 139.838,236.487 146.005,218.82 147.5,199.5C 146.005,180.18 139.838,162.513 129,146.5C 122.969,139.096 117.969,131.096 114,122.5C 89.9368,95.9425 66.1035,69.2758 42.5,42.5 Z M 138.5,138.5 C 150.717,145.939 163.717,151.773 177.5,156C 199.615,160.697 220.949,158.364 241.5,149C 247.888,145.476 254.221,141.976 260.5,138.5C 253.061,150.717 247.227,163.717 243,177.5C 239.101,195.779 240.101,213.779 246,231.5C 250.333,241.499 255.166,251.165 260.5,260.5C 250.253,254.544 239.586,249.377 228.5,245C 208.065,238.829 187.731,239.163 167.5,246C 157.501,250.333 147.835,255.166 138.5,260.5C 165.167,219.833 165.167,179.167 138.5,138.5 Z"/></g>
<g><path style="opacity:1" fill="#fefffe" d="M 118.5,118.5 C 132.43,129.478 147.43,138.978 163.5,147C 188.632,158.535 213.632,158.202 238.5,146C 253.393,138.597 267.06,129.43 279.5,118.5C 280.521,119.002 280.688,119.668 280,120.5C 264.542,138.073 253.209,158.073 246,180.5C 241.998,199.484 243.998,217.817 252,235.5C 259.728,251.379 269.228,266.045 280.5,279.5C 279.998,280.521 279.332,280.688 278.5,280C 256.305,259.32 230.138,247.153 200,243.5C 178.557,244.806 159.057,251.639 141.5,264C 133.988,269.257 126.654,274.757 119.5,280.5C 118.479,279.998 118.312,279.332 119,278.5C 139.828,256.178 151.994,229.844 155.5,199.5C 153.784,177.516 146.617,157.516 134,139.5C 128.977,132.323 123.81,125.323 118.5,118.5 Z M 138.5,138.5 C 150.717,145.939 163.717,151.773 177.5,156C 199.615,160.697 220.949,158.364 241.5,149C 247.888,145.476 254.221,141.976 260.5,138.5C 253.061,150.717 247.227,163.717 243,177.5C 239.101,195.779 240.101,213.779 246,231.5C 250.333,241.499 255.166,251.165 260.5,260.5C 250.253,254.544 239.586,249.377 228.5,245C 208.065,238.829 187.731,239.163 167.5,246C 157.501,250.333 147.835,255.166 138.5,260.5C 165.167,219.833 165.167,179.167 138.5,138.5 Z"/></g>
</svg>
