<?xml version="1.0" encoding="UTF-8"?>
<!DOCTYPE svg PUBLIC "-//W3C//DTD SVG 1.1//EN" "http://www.w3.org/Graphics/SVG/1.1/DTD/svg11.dtd">
<svg xmlns="http://www.w3.org/2000/svg" version="1.1" width="400px" height="400px" style="shape-rendering:geometricPrecision; text-rendering:geometricPrecision; image-rendering:optimizeQuality; fill-rule:evenodd; clip-rule:evenodd" xmlns:xlink="http://www.w3.org/1999/xlink">
<g><path style="opacity:1" fill="#fefefe" d="M 38.5,38.5 C 41.5184,38.3354 44.5184,38.502 47.5,39C 74.5358,63.7045 101.869,88.0378 129.5,112C 131.5,112.667 133.5,113.333 135.5,114C 154.161,129.495 175.494,139.328 199.5,143.5C 223.777,139.859 245.11,130.026 263.5,114C 266.417,112.472 269.417,111.139 272.5,110C 298.799,86.7025 324.799,63.0358 350.5,39C 353.817,38.5017 357.15,38.335 360.5,38.5C 360.665,41.5184 360.498,44.5184 360,47.5C 335.296,74.5358 310.962,101.869 287,129.5C 286.333,131.5 285.667,133.5 285,135.5C 269.505,154.161 259.672,175.494 255.5,199.5C 259.672,223.506 269.505,244.839 285,263.5C 285.667,265.5 286.333,267.5 287,269.5C 310.962,297.131 335.296,324.464 360,351.5C 360.498,354.482 360.665,357.482 360.5,360.5C 357.15,360.665 353.817,360.498 350.5,360C 324.097,334.927 297.097,310.593 269.5,287C 267.392,286.64 265.392,285.973 263.5,285C 245.11,268.974 223.777,259.141 199.5,255.5C 175.494,259.672 154.161,269.505 135.5,285C 133.5,285.667 131.5,286.333 129.5,287C 101.869,310.962 74.5358,335.296 47.5,360C 44.5184,360.498 41.5184,360.665 38.5,360.5C 38.335,357.15 38.5017,353.817 39,350.5C 63.0358,324.799 86.7025,298.799 110,272.5C 113.986,263.86 118.986,255.86 125,248.5C 135.005,233.655 141.172,217.322 143.5,199.5C 141.172,181.678 135.005,165.345 125,150.5C 118.969,143.096 113.969,135.096 110,126.5C 86.7025,100.201 63.0358,74.2007 39,48.5C 38.5017,45.1832 38.335,41.8499 38.5,38.5 Z M 142.5,142.5 C 180.509,165.132 218.509,165.132 256.5,142.5C 233.833,180.5 233.833,218.5 256.5,256.5C 218.509,233.868 180.509,233.868 142.5,256.5C 165.167,218.5 165.167,180.5 142.5,142.5 Z"/></g>
<g><path style="opacity:1" fill="#9a4141" d="M 42.5,42.5 C 69.9983,67.1634 97.665,91.6634 125.5,116C 127.5,116.667 129.5,117.333 131.5,118C 146.379,130.109 163.046,139.109 181.5,145C 199.837,149.223 217.503,147.223 234.5,139C 246.346,133.248 257.346,126.248 267.5,118C 270.417,116.472 273.417,115.139 276.5,114C 302.799,90.7025 328.799,67.0358 354.5,43C 355.167,42.3333 355.833,42.3333 356.5,43C 331.629,70.2024 307.129,97.7024 283,125.5C 282.333,127.5 281.667,129.5 281,131.5C 268.891,146.379 259.891,163.046 254,181.5C 249.761,198.741 251.428,215.407 259,231.5C 265.329,244.167 272.663,256.167 281,267.5C 281.667,269.5 282.333,271.5 283,273.5C 307.129,301.298 331.629,328.798 356.5,356C 355.833,356.667 355.167,356.667 354.5,356C 328.097,330.927 301.097,306.593 273.5,283C 271.392,282.64 269.392,281.973 267.5,281C 252.589,268.876 235.923,259.876 217.5,254C 200.259,249.761 183.593,251.428 167.5,259C 154.833,265.329 142.833,272.663 131.5,281C 129.5,281.667 127.5,282.333 125.5,283C 97.7024,307.129 70.2024,331.629 43,356.5C 42.3333,355.833 42.3333,355.167 43,354.5C 67.0358,328.799 90.7025,302.799 114,276.5C 117.986,267.86 122.986,259.86 129,252.5C 139.838,236.487 146.005,218.82 147.5,199.5C 146.005,180.18 139.838,162.513 129,146.5C 122.969,139.096 117.969,131.096 114,122.5C 89.9368,95.9425 66.1035,69.2758 42.5,42.5 Z M 142.5,142.5 C 180.509,165.132 218.509,165.132 256.5,142.5C 233.833,180.5 233.833,218.5 256.5,256.5C 218.509,233.868 180.509,233.868 142.5,256.5C 165.167,218.5 165.167,180.5 142.5,142.5 Z"/></g>
<g><path style="opacity:1" fill="#fefffe" d="M 118.5,118.5 C 132.43,129.478 147.43,138.978 163.5,147C 188.632,158.535 213.632,158.202 238.5,146C 253.393,138.597 267.06,129.43 279.5,118.5C 280.521,119.002 280.688,119.668 280,120.5C 264.542,138.073 253.209,158.073 246,180.5C 241.998,199.484 243.998,217.817 252,235.5C 259.728,251.379 269.228,266.045 280.5,279.5C 279.998,280.521 279.332,280.688 278.5,280C 256.305,259.32 230.138,247.153 200,243.5C 178.557,244.806 159.057,251.639 141.5,264C 133.988,269.257 126.654,274.757 119.5,280.5C 118.479,279.998 118.312,279.332 119,278.5C 139.828,256.178 151.994,229.844 155.5,199.5C 153.784,177.516 146.617,157.516 134,139.5C 128.977,132.323 123.81,125.323 118.5,118.5 Z M 142.5,142.5 C 180.509,165.132 218.509,165.132 256.5,142.5C 233.833,180.5 233.833,218.5 256.5,256.5C 218.509,233.868 180.509,233.868 142.5,256.5C 165.167,218.5 165.167,180.5 142.5,142.5 Z"/></g>
</svg>
