<?xml version="1.0" encoding="UTF-8"?>
<!DOCTYPE svg PUBLIC "-//W3C//DTD SVG 1.1//EN" "http://www.w3.org/Graphics/SVG/1.1/DTD/svg11.dtd">
<svg xmlns="http://www.w3.org/2000/svg" version="1.1" width="400px" height="400px" style="shape-rendering:geometricPrecision; text-rendering:geometricPrecision; image-rendering:optimizeQuality; fill-rule:evenodd; clip-rule:evenodd" xmlns:xlink="http://www.w3.org/1999/xlink">
<g><path style="opacity:1" fill="#fefefe" d="M 37.5,37.5 C 41.1817,37.3347 44.8484,37.5014 48.5,38C 75.5358,62.7045 102.869,87.0378 130.5,111C 132.5,111.667 134.5,112.333 136.5,113C 154.915,128.206 175.915,138.039 199.5,142.5C 223.357,138.569 244.357,128.736 262.5,113C 265.417,111.472 268.417,110.139 271.5,109C 297.799,85.7025 323.799,62.0358 349.5,38C 353.486,37.5012 357.486,37.3345 361.5,37.5C 361.665,41.1817 361.499,44.8484 361,48.5C 336.296,75.5358 311.962,102.869 288,130.5C 287.333,132.5 286.667,134.5 286,136.5C 270.794,154.915 260.961,175.915 256.5,199.5C 260.961,223.085 270.794,244.085 286,262.5C 286.667,264.5 287.333,266.5 288,268.5C 311.962,296.131 336.296,323.464 361,350.5C 361.499,354.152 361.665,357.818 361.5,361.5C 357.486,361.666 353.486,361.499 349.5,361C 323.097,335.927 296.097,311.593 268.5,288C 266.392,287.64 264.392,286.973 262.5,286C 244.357,270.264 223.357,260.431 199.5,256.5C 175.915,260.961 154.915,270.794 136.5,286C 134.5,286.667 132.5,287.333 130.5,288C 102.869,311.962 75.5358,336.296 48.5,361C 44.8484,361.499 41.1817,361.665 37.5,361.5C 37.3345,357.486 37.5012,353.486 38,349.5C 62.0358,323.799 85.7025,297.799 109,271.5C 112.986,262.86 117.986,254.86 124,247.5C 133.78,232.932 139.947,216.932 142.5,199.5C 139.947,182.068 133.78,166.068 124,151.5C 117.969,144.096 112.969,136.096 109,127.5C 85.7025,101.201 62.0358,75.2007 38,49.5C 37.5012,45.5138 37.3345,41.5138 37.5,37.5 Z M 146.5,146.5 C 181.874,165.139 217.207,165.139 252.5,146.5C 233.833,181.833 233.833,217.167 252.5,252.5C 217.207,233.861 181.874,233.861 146.5,252.5C 165.167,217.167 165.167,181.833 146.5,146.5 Z"/></g>
<g><path style="opacity:1" fill="#b83636" d="M 42.5,42.5 C 69.9983,67.1634 97.665,91.6634 125.5,116C 127.5,116.667 129.5,117.333 131.5,118C 146.379,130.109 163.046,139.109 181.5,145C 199.837,149.223 217.503,147.223 234.5,139C 246.346,133.248 257.346,126.248 267.5,118C 270.417,116.472 273.417,115.139 276.5,114C 302.799,90.7025 328.799,67.0358 354.5,43C 355.167,42.3333 355.833,42.3333 356.5,43C 331.629,70.2024 307.129,97.7024 283,125.5C 282.333,127.5 281.667,129.5 281,131.5C 268.891,146.379 259.891,163.046 254,181.5C 249.761,198.741 251.428,215.407 259,231.5C 265.329,244.167 272.663,256.167 281,267.5C 281.667,269.5 282.333,271.5 283,273.5C 307.129,301.298 331.629,328.798 356.5,356C 355.833,356.667 355.167,356.667 354.5,356C 328.097,330.927 301.097,306.593 273.5,283C 271.392,282.64 269.392,281.973 267.5,281C 252.589,268.876 235.923,259.876 217.5,254C 200.259,249.761 183.593,251.428 167.5,259C 154.833,265.329 142.833,272.663 131.5,281C 129.5,281.667 127.5,282.333 125.5,283C 97.7024,307.129 70.2024,331.629 43,356.5C 42.3333,355.833 42.3333,355.167 43,354.5C 67.0358,328.799 90.7025,302.799 114,276.5C 117.986,267.86 122.986,259.86 129,252.5C 139.838,236.487 146.005,218.82 147.5,199.5C 146.005,180.18 139.838,162.513 129,146.5C 122.969,139.096 117.969,131.096 114,122.5C 89.9368,95.9425 66.1035,69.2758 42.5,42.5 Z M 146.5,146.5 C 181.874,165.139 217.207,165.139 252.5,146.5C 233.833,181.833 233.833,217.167 252.5,252.5C 217.207,233.861 181.874,233.861 146.5,252.5C 165.167,217.167 165.167,181.833 146.5,146.5 Z"/></g>
<g><path style="opacity:1" fill="#fefefe" d="M 118.5,118.5 C 132.43,129.478 147.43,138.978 163.5,147C 188.632,158.535 213.632,158.202 238.5,146C 253.393,138.597 267.06,129.43 279.5,118.5C 280.521,119.002 280.688,119.668 280,120.5C 264.542,138.073 253.209,158.073 246,180.5C 241.998,199.484 243.998,217.817 252,235.5C 259.728,251.379 269.228,266.045 280.5,279.5C 279.998,280.521 279.332,280.688 278.5,280C 256.305,259.32 230.138,247.153 200,243.5C 178.557,244.806 159.057,251.639 141.5,264C 133.988,269.257 126.654,274.757 119.5,280.5C 118.479,279.998 118.312,279.332 119,278.5C 139.828,256.178 151.994,229.844 155.5,199.5C 153.784,177.516 146.617,157.516 134,139.5C 128.977,132.323 123.81,125.323 118.5,118.5 Z M 146.5,146.5 C 181.874,165.139 217.207,165.139 252.5,146.5C 233.833,181.833 233.833,217.167 252.5,252.5C 217.207,233.861 181.874,233.861 146.5,252.5C 165.167,217.167 165.167,181.833 146.5,146.5 Z"/></g>
</svg>
