<?xml version="1.0" encoding="UTF-8"?>
<!DOCTYPE svg PUBLIC "-//W3C//DTD SVG 1.1//EN" "http://www.w3.org/Graphics/SVG/1.1/DTD/svg11.dtd">
<svg xmlns="http://www.w3.org/2000/svg" version="1.1" width="400px" height="400px" style="shape-rendering:geometricPrecision; text-rendering:geometricPrecision; image-rendering:optimizeQuality; fill-rule:evenodd; clip-rule:evenodd" xmlns:xlink="http://www.w3.org/1999/xlink">
<g><path style="opacity:1" fill="#fefefe" d="M 36.5,36.5 C 40.8461,36.3343 45.1794,36.501 49.5,37C 76.5358,61.7045 103.869,86.0378 131.5,110C 133.5,110.667 135.5,111.333 137.5,112C 155.681,126.923 176.348,136.756 199.5,141.5C 222.926,137.285 243.593,127.452 261.5,112C 264.417,110.472 267.417,109.139 270.5,108C 296.799,84.7025 322.799,61.0358 348.5,37C 353.155,36.5008 357.821,36.3342 362.5,36.5C 362.666,40.8461 362.499,45.1794 362,49.5C 337.296,76.5358 312.962,103.869 289,131.5C 288.333,133.5 287.667,135.5 287,137.5C 272.077,155.681 262.244,176.348 257.5,199.5C 262.244,222.652 272.077,243.319 287,261.5C 287.667,263.5 288.333,265.5 289,267.5C 312.962,295.131 337.296,322.464 362,349.5C 362.499,353.821 362.666,358.154 362.5,362.5C 357.821,362.666 353.155,362.499 348.5,362C 322.097,336.927 295.097,312.593 267.5,289C 265.392,288.64 263.392,287.973 261.5,287C 243.593,271.548 222.926,261.715 199.5,257.5C 176.348,262.244 155.681,272.077 137.5,287C 135.5,287.667 133.5,288.333 131.5,289C 103.869,312.962 76.5358,337.296 49.5,362C 45.1794,362.499 40.8461,362.666 36.5,362.5C 36.3342,357.821 36.5008,353.155 37,348.5C 61.0358,322.799 84.7025,296.799 108,270.5C 111.986,261.86 116.986,253.86 123,246.5C 132.495,232.172 138.662,216.505 141.5,199.5C 136.866,174.9 126.366,153.234 110,134.5C 109.64,132.392 108.973,130.392 108,128.5C 84.7025,102.201 61.0358,76.2007 37,50.5C 36.5008,45.8452 36.3342,41.1785 36.5,36.5 Z M 149.5,149.5 C 182.873,165.474 216.207,165.474 249.5,149.5C 233.5,182.833 233.5,216.167 249.5,249.5C 216.207,233.526 182.873,233.526 149.5,249.5C 165.5,216.167 165.5,182.833 149.5,149.5 Z"/></g>
<g><path style="opacity:1" fill="#d42626" d="M 42.5,42.5 C 69.9983,67.1634 97.665,91.6634 125.5,116C 127.5,116.667 129.5,117.333 131.5,118C 146.379,130.109 163.046,139.109 181.5,145C 199.837,149.223 217.503,147.223 234.5,139C 246.346,133.248 257.346,126.248 267.5,118C 270.417,116.472 273.417,115.139 276.5,114C 302.799,90.7025 328.799,67.0358 354.5,43C 355.167,42.3333 355.833,42.3333 356.5,43C 331.629,70.2024 307.129,97.7024 283,125.5C 282.333,127.5 281.667,129.5 281,131.5C 268.891,146.379 259.891,163.046 254,181.5C 249.761,198.741 251.428,215.407 259,231.5C 265.329,244.167 272.663,256.167 281,267.5C 281.667,269.5 282.333,271.5 283,273.5C 307.129,301.298 331.629,328.798 356.5,356C 355.833,356.667 355.167,356.667 354.5,356C 328.097,330.927 301.097,306.593 273.5,283C 271.392,282.64 269.392,281.973 267.5,281C 252.589,268.876 235.923,259.876 217.5,254C 200.259,249.761 183.593,251.428 167.5,259C 154.833,265.329 142.833,272.663 131.5,281C 129.5,281.667 127.5,282.333 125.5,283C 97.7024,307.129 70.2024,331.629 43,356.5C 42.3333,355.833 42.3333,355.167 43,354.5C 67.0358,328.799 90.7025,302.799 114,276.5C 117.986,267.86 122.986,259.86 129,252.5C 139.838,236.487 146.005,218.82 147.5,199.5C 146.005,180.18 139.838,162.513 129,146.5C 122.969,139.096 117.969,131.096 114,122.5C 89.9368,95.9425 66.1035,69.2758 42.5,42.5 Z M 149.5,149.5 C 182.873,165.474 216.207,165.474 249.5,149.5C 233.5,182.833 233.5,216.167 249.5,249.5C 216.207,233.526 182.873,233.526 149.5,249.5C 165.5,216.167 165.5,182.833 149.5,149.5 Z"/></g>
<g><path style="opacity:1" fill="#fefefe" d="M 118.5,118.5 C 132.43,129.478 147.43,138.978 163.5,147C 188.632,158.535 213.632,158.202 238.5,146C 253.393,138.597 267.06,129.43 279.5,118.5C 280.521,119.002 280.688,119.668 280,120.5C 264.542,138.073 253.209,158.073 246,180.5C 241.998,199.484 243.998,217.817 252,235.5C 259.728,251.379 269.228,266.045 280.5,279.5C 279.998,280.521 279.332,280.688 278.5,280C 256.305,259.32 230.138,247.153 200,243.5C 178.557,244.806 159.057,251.639 141.5,264C 133.988,269.257 126.654,274.757 119.5,280.5C 118.479,279.998 118.312,279.332 119,278.5C 139.828,256.178 151.994,229.844 155.5,199.5C 153.784,177.516 146.617,157.516 134,139.5C 128.977,132.323 123.81,125.323 118.5,118.5 Z M 149.5,149.5 C 182.873,165.474 216.207,165.474 249.5,149.5C 233.5,182.833 233.5,216.167 249.5,249.5C 216.207,233.526 182.873,233.526 149.5,249.5C 165.5,216.167 165.5,182.833 149.5,149.5 Z"/></g>
</svg>
