<?xml version="1.0" encoding="UTF-8"?>
<!DOCTYPE svg PUBLIC "-//W3C//DTD SVG 1.1//EN" "http://www.w3.org/Graphics/SVG/1.1/DTD/svg11.dtd">
<svg xmlns="http://www.w3.org/2000/svg" version="1.1" width="400px" height="400px" style="shape-rendering:geometricPrecision; text-rendering:geometricPrecision; image-rendering:optimizeQuality; fill-rule:evenodd; clip-rule:evenodd" xmlns:xlink="http://www.w3.org/1999/xlink">
<g><path style="opacity:1" fill="#fefefe" d="M 35.5,35.5 C 40.5111,35.3341 45.5111,35.5007 50.5,36C 77.5358,60.7045 104.869,85.0378 132.5,109C 134.5,109.667 136.5,110.333 138.5,111C 153.379,123.109 170.046,132.109 188.5,138C 195.833,140 203.167,140 210.5,138C 228.923,132.124 245.589,123.124 260.5,111C 263.417,109.472 266.417,108.139 269.5,107C 295.799,83.7025 321.799,60.0358 347.5,36C 352.823,35.5006 358.156,35.334 363.5,35.5C 363.666,40.5111 363.499,45.5111 363,50.5C 338.296,77.5358 313.962,104.869 290,132.5C 289.333,134.5 288.667,136.5 288,138.5C 275.891,153.379 266.891,170.046 261,188.5C 258.376,201.059 260.043,213.059 266,224.5C 272.329,237.167 279.663,249.167 288,260.5C 288.667,262.5 289.333,264.5 290,266.5C 313.962,294.131 338.296,321.464 363,348.5C 363.499,353.489 363.666,358.489 363.5,363.5C 358.156,363.666 352.823,363.499 347.5,363C 321.097,337.927 294.097,313.593 266.5,290C 264.392,289.64 262.392,288.973 260.5,288C 245.589,275.876 228.923,266.876 210.5,261C 197.941,258.376 185.941,260.043 174.5,266C 161.833,272.329 149.833,279.663 138.5,288C 136.5,288.667 134.5,289.333 132.5,290C 104.869,313.962 77.5358,338.296 50.5,363C 45.5111,363.499 40.5111,363.666 35.5,363.5C 35.334,358.156 35.5006,352.823 36,347.5C 60.0358,321.799 83.7025,295.799 107,269.5C 110.986,260.86 115.986,252.86 122,245.5C 131.47,231.559 137.303,216.225 139.5,199.5C 137.303,182.775 131.47,167.441 122,153.5C 115.969,146.096 110.969,138.096 107,129.5C 83.7025,103.201 60.0358,77.2007 36,51.5C 35.5006,46.1771 35.334,40.8437 35.5,35.5 Z M 152.5,153.5 C 152.56,152.957 152.893,152.624 153.5,152.5C 176.625,162.742 200.625,165.242 225.5,160C 232.61,158.192 239.443,155.692 246,152.5C 236.278,175.963 233.945,200.297 239,225.5C 241.121,232.703 243.455,239.703 246,246.5C 222.719,236.217 198.553,233.717 173.5,239C 166.297,241.121 159.297,243.455 152.5,246C 162.779,222.716 165.279,198.55 160,173.5C 158.284,166.426 155.784,159.759 152.5,153.5 Z"/></g>
<g><path style="opacity:1" fill="#fe0000" d="M 42.5,42.5 C 69.9983,67.1634 97.665,91.6634 125.5,116C 127.5,116.667 129.5,117.333 131.5,118C 146.379,130.109 163.046,139.109 181.5,145C 199.837,149.223 217.503,147.223 234.5,139C 246.346,133.248 257.346,126.248 267.5,118C 270.417,116.472 273.417,115.139 276.5,114C 302.799,90.7025 328.799,67.0358 354.5,43C 355.167,42.3333 355.833,42.3333 356.5,43C 331.629,70.2024 307.129,97.7024 283,125.5C 282.333,127.5 281.667,129.5 281,131.5C 268.891,146.379 259.891,163.046 254,181.5C 249.761,198.741 251.428,215.407 259,231.5C 265.329,244.167 272.663,256.167 281,267.5C 281.667,269.5 282.333,271.5 283,273.5C 307.129,301.298 331.629,328.798 356.5,356C 355.833,356.667 355.167,356.667 354.5,356C 328.097,330.927 301.097,306.593 273.5,283C 271.392,282.64 269.392,281.973 267.5,281C 252.589,268.876 235.923,259.876 217.5,254C 200.259,249.761 183.593,251.428 167.5,259C 154.833,265.329 142.833,272.663 131.5,281C 129.5,281.667 127.5,282.333 125.5,283C 97.7024,307.129 70.2024,331.629 43,356.5C 42.3333,355.833 42.3333,355.167 43,354.5C 67.0358,328.799 90.7025,302.799 114,276.5C 117.986,267.86 122.986,259.86 129,252.5C 139.838,236.487 146.005,218.82 147.5,199.5C 146.005,180.18 139.838,162.513 129,146.5C 122.969,139.096 117.969,131.096 114,122.5C 89.9368,95.9425 66.1035,69.2758 42.5,42.5 Z M 152.5,153.5 C 155.784,159.759 158.284,166.426 160,173.5C 165.279,198.55 162.779,222.716 152.5,246C 159.297,243.455 166.297,241.121 173.5,239C 198.553,233.717 222.719,236.217 246,246.5C 243.455,239.703 241.121,232.703 239,225.5C 233.945,200.297 236.278,175.963 246,152.5C 239.443,155.692 232.61,158.192 225.5,160C 200.625,165.242 176.625,162.742 153.5,152.5C 152.893,152.624 152.56,152.957 152.5,153.5 Z"/></g>
<g><path style="opacity:1" fill="#fefefe" d="M 118.5,118.5 C 132.43,129.478 147.43,138.978 163.5,147C 188.632,158.535 213.632,158.202 238.5,146C 253.393,138.597 267.06,129.43 279.5,118.5C 280.521,119.002 280.688,119.668 280,120.5C 264.542,138.073 253.209,158.073 246,180.5C 241.998,199.484 243.998,217.817 252,235.5C 259.728,251.379 269.228,266.045 280.5,279.5C 279.998,280.521 279.332,280.688 278.5,280C 256.305,259.32 230.138,247.153 200,243.5C 178.557,244.806 159.057,251.639 141.5,264C 133.988,269.257 126.654,274.757 119.5,280.5C 118.479,279.998 118.312,279.332 119,278.5C 139.828,256.178 151.994,229.844 155.5,199.5C 153.784,177.516 146.617,157.516 134,139.5C 128.977,132.323 123.81,125.323 118.5,118.5 Z M 152.5,153.5 C 155.784,159.759 158.284,166.426 160,173.5C 165.279,198.55 162.779,222.716 152.5,246C 159.297,243.455 166.297,241.121 173.5,239C 198.553,233.717 222.719,236.217 246,246.5C 243.455,239.703 241.121,232.703 239,225.5C 233.945,200.297 236.278,175.963 246,152.5C 239.443,155.692 232.61,158.192 225.5,160C 200.625,165.242 176.625,162.742 153.5,152.5C 152.893,152.624 152.56,152.957 152.5,153.5 Z"/></g>
</svg>
