<?xml version="1.0" encoding="UTF-8"?>
<!DOCTYPE svg PUBLIC "-//W3C//DTD SVG 1.1//EN" "http://www.w3.org/Graphics/SVG/1.1/DTD/svg11.dtd">
<svg xmlns="http://www.w3.org/2000/svg" version="1.1" width="299px" height="230px" style="shape-rendering:geometricPrecision; text-rendering:geometricPrecision; image-rendering:optimizeQuality; fill-rule:evenodd; clip-rule:evenodd" xmlns:xlink="http://www.w3.org/1999/xlink">
<g><path style="opacity:1" fill="#f7f7f7" d="M 71.5,16.5 C 102.861,14.8553 128.194,26.1887 147.5,50.5C 153.99,43.1774 160.99,36.3441 168.5,30C 185.31,19.1712 203.644,15.5045 223.5,19C 250.852,22.3512 267.352,37.5179 273,64.5C 275.325,80.8836 272.991,96.5502 266,111.5C 254.338,138.158 236.505,159.658 212.5,176C 194.876,188.649 175.876,198.983 155.5,207C 150.924,208.476 146.257,208.81 141.5,208C 106.655,194.177 76.1549,174.011 50,147.5C 37.0331,132.24 27.6998,114.906 22,95.5C 13.2989,52.8332 29.7989,26.4999 71.5,16.5 Z"/></g>
<g><path style="opacity:1" fill="#070404" d="M 70.5,20.5 C 103.562,18.5317 129.229,31.1983 147.5,58.5C 173.044,21.4013 206.377,12.2346 247.5,31C 271.888,52.4129 277.055,77.9129 263,107.5C 253.047,130.118 238.547,149.285 219.5,165C 197.09,182.799 172.423,196.132 145.5,205C 107.761,190.218 75.2605,168.051 48,138.5C 38.2088,124.251 30.5421,108.918 25,92.5C 18.7349,54.6559 33.9016,30.6559 70.5,20.5 Z"/></g>
<g><path style="opacity:1" fill="#eb1b22" d="M 70.5,30.5 C 103.576,28.7793 127.743,42.4459 143,71.5C 146.534,74.2008 149.867,73.8675 153,70.5C 169.493,37.7708 195.66,25.6041 231.5,34C 255.427,45.0221 264.594,63.5221 259,89.5C 256.615,97.6868 253.615,105.687 250,113.5C 225.481,152.033 191.648,178.533 148.5,193C 108.227,180.634 75.3934,157.8 50,124.5C 41.088,110.014 35.588,94.3472 33.5,77.5C 33.8513,52.9941 45.8513,37.8274 69.5,32C 70.056,31.6174 70.3893,31.1174 70.5,30.5 Z"/></g>
</svg>
