<?xml version="1.0" encoding="UTF-8"?>
<!DOCTYPE svg PUBLIC "-//W3C//DTD SVG 1.1//EN" "http://www.w3.org/Graphics/SVG/1.1/DTD/svg11.dtd">
<svg xmlns="http://www.w3.org/2000/svg" version="1.1" width="244px" height="207px" style="shape-rendering:geometricPrecision; text-rendering:geometricPrecision; image-rendering:optimizeQuality; fill-rule:evenodd; clip-rule:evenodd" xmlns:xlink="http://www.w3.org/1999/xlink">
<g><path style="opacity:1" fill="#fefffe" d="M 57.5,-0.5 C 58.8333,-0.5 60.1667,-0.5 61.5,-0.5C 60.6118,2.24296 59.4451,4.90962 58,7.5C 57.4265,11.8477 56.7599,16.181 56,20.5C 54.2725,17.3821 53.4392,14.0487 53.5,10.5C 51.5,10.5 49.5,10.5 47.5,10.5C 44.7565,16.47 43.0898,22.8033 42.5,29.5C 42.3957,34.5177 43.729,39.0177 46.5,43C 45.4645,44.9014 44.2978,46.7348 43,48.5C 41.855,41.732 39.5217,35.3987 36,29.5C 34.7532,27.315 32.9199,25.9817 30.5,25.5C 29.0055,25.7092 27.8388,26.3759 27,27.5C 25.1023,36.8615 25.1023,46.1948 27,55.5C 33.8562,58.6672 35.1896,63.3339 31,69.5C 28.785,64.9003 25.9517,60.7336 22.5,57C 19.4245,56.089 17.0911,54.2557 15.5,51.5C 13.5914,50.6518 11.5914,50.3184 9.5,50.5C 8.6256,62.2437 11.4589,72.9103 18,82.5C 20.37,84.3715 22.87,86.0381 25.5,87.5C 26.7059,89.5159 26.7059,91.5159 25.5,93.5C 24.1552,92.6533 23.1552,91.4866 22.5,90C 17.9994,87.5841 13.6661,84.9175 9.5,82C 6.46423,79.9937 3.1309,79.1604 -0.5,79.5C -0.5,78.5 -0.5,77.5 -0.5,76.5C 2.77659,76.2161 5.94325,76.5495 9,77.5C 7.33203,67.638 6.49869,57.638 6.5,47.5C 10.1817,47.3347 13.8484,47.5014 17.5,48C 19.1054,49.3603 20.6054,50.8603 22,52.5C 22.1835,43.1239 22.8502,33.7906 24,24.5C 25.8697,23.2565 28.0363,22.5899 30.5,22.5C 34.1899,22.2317 37.0232,23.565 39,26.5C 40.0738,19.8585 41.9072,13.5251 44.5,7.5C 47.8333,7.5 51.1667,7.5 54.5,7.5C 54.722,4.49585 55.722,1.82918 57.5,-0.5 Z"/></g>
<g><path style="opacity:1" fill="#010000" d="M 61.5,-0.5 C 63.1667,-0.5 64.8333,-0.5 66.5,-0.5C 68.8581,4.17063 70.0248,9.17063 70,14.5C 72.1709,9.66244 75.6709,6.16244 80.5,4C 84.0863,2.89241 87.753,2.39241 91.5,2.5C 91.6653,6.18174 91.4986,9.84841 91,13.5C 88.5,16.6667 86,19.8333 83.5,23C 85.6504,24.4114 87.9837,25.2447 90.5,25.5C 90.6602,27.1992 90.4935,28.8659 90,30.5C 86.7515,32.2071 83.5849,34.0404 80.5,36C 81.5762,37.7261 81.7429,39.5594 81,41.5C 77.3009,44.7639 73.1342,47.0972 68.5,48.5C 68.6602,50.1992 68.4935,51.8659 68,53.5C 65.6667,56.1667 63.3333,58.8333 61,61.5C 59.7806,67.9804 57.2806,73.9804 53.5,79.5C 54.325,80.3857 55.325,80.719 56.5,80.5C 56.6757,85.8797 56.3424,91.213 55.5,96.5C 56.8221,96.33 57.9887,96.6634 59,97.5C 59.3333,103.167 59.6667,108.833 60,114.5C 62.0408,113.577 64.2075,113.244 66.5,113.5C 67.5868,118.433 68.2534,123.433 68.5,128.5C 71.0444,128.104 73.2111,128.771 75,130.5C 76.6625,134.148 78.3291,137.814 80,141.5C 80.8222,136.559 83.6555,134.726 88.5,136C 90.285,139.452 92.785,142.286 96,144.5C 99.3461,149.869 101.513,155.702 102.5,162C 101.809,165.907 100.809,169.741 99.5,173.5C 100.046,175.135 100.38,176.801 100.5,178.5C 107.539,180.408 114.706,181.741 122,182.5C 128.551,181.603 135.051,180.436 141.5,179C 144.488,175.149 144.655,171.316 142,167.5C 141.333,163.833 141.333,160.167 142,156.5C 143.875,153.412 145.208,150.079 146,146.5C 148.933,143.275 151.767,139.942 154.5,136.5C 159.67,134.141 162.337,135.808 162.5,141.5C 164.881,138.071 166.715,134.404 168,130.5C 169.789,128.771 171.956,128.104 174.5,128.5C 175.266,124.168 176.1,119.834 177,115.5C 179.333,114.167 181.667,114.167 184,115.5C 184.499,109.509 184.666,103.509 184.5,97.5C 185.5,97.5 186.5,97.5 187.5,97.5C 186.708,91.8698 186.375,86.2031 186.5,80.5C 187.675,80.719 188.675,80.3857 189.5,79.5C 186.054,74.3294 183.887,68.6628 183,62.5C 180.772,59.3603 178.105,56.6936 175,54.5C 174.667,52.8333 174.333,51.1667 174,49.5C 169.911,46.4053 165.577,43.7386 161,41.5C 160.137,39.2511 160.637,37.4178 162.5,36C 159.274,33.4246 155.607,31.9246 151.5,31.5C 151.5,29.5 151.5,27.5 151.5,25.5C 154.794,25.741 157.794,24.9076 160.5,23C 154.022,17.7504 150.689,10.9171 150.5,2.5C 160.385,1.5266 167.885,5.19327 173,13.5C 173.728,8.68238 174.895,4.01571 176.5,-0.5C 178.167,-0.5 179.833,-0.5 181.5,-0.5C 184.711,5.73442 186.544,12.4011 187,19.5C 188.858,16.4284 190.024,13.095 190.5,9.5C 192.167,9.5 193.833,9.5 195.5,9.5C 196.835,13.8165 198.335,18.1499 200,22.5C 201.237,29.6914 200.404,36.5247 197.5,43C 197.858,45.0324 198.692,46.8657 200,48.5C 201.482,39.7079 204.982,31.8746 210.5,25C 212.134,24.5065 213.801,24.3398 215.5,24.5C 217.833,34.8121 217.999,45.1455 216,55.5C 213.815,56.9284 211.815,58.5951 210,60.5C 209.542,64.0487 210.208,67.382 212,70.5C 215.266,62.1505 220.766,55.6505 228.5,51C 230.134,50.5065 231.801,50.3398 233.5,50.5C 233.117,58.2149 232.283,65.8816 231,73.5C 229.333,76.1667 227.667,78.8333 226,81.5C 223.96,83.3531 221.627,84.6864 219,85.5C 215.579,94.7408 217.079,95.5741 223.5,88C 228.731,85.7694 233.731,83.1027 238.5,80C 240.134,79.5065 241.801,79.3398 243.5,79.5C 243.5,81.8333 243.5,84.1667 243.5,86.5C 240.74,91.9063 238.24,97.5729 236,103.5C 233.205,105.293 230.705,107.46 228.5,110C 225.956,111.092 223.289,111.759 220.5,112C 217.088,113.644 216.088,116.144 217.5,119.5C 225.58,115.106 234.247,113.44 243.5,114.5C 243.5,116.833 243.5,119.167 243.5,121.5C 241.302,124.187 239.302,127.187 237.5,130.5C 234.354,132.812 231.354,135.312 228.5,138C 222.944,139.239 217.278,139.906 211.5,140C 209.024,141.309 207.024,143.142 205.5,145.5C 213.145,146.331 220.812,146.831 228.5,147C 230.957,148.562 233.624,149.562 236.5,150C 237.406,151.699 237.739,153.533 237.5,155.5C 232.921,157.123 228.588,159.29 224.5,162C 217.423,164.949 210.09,165.949 202.5,165C 198.089,160.351 193.756,160.351 189.5,165C 198.766,165.976 207.099,169.143 214.5,174.5C 215.374,176.747 215.708,179.08 215.5,181.5C 212.86,181.954 210.527,183.121 208.5,185C 200.812,185.169 193.145,185.669 185.5,186.5C 187.19,189.024 189.357,191.024 192,192.5C 192.495,194.473 192.662,196.473 192.5,198.5C 185.163,199.001 177.83,199.168 170.5,199C 163.381,197.785 158.048,194.119 154.5,188C 152.579,187.64 150.912,186.806 149.5,185.5C 147.667,186.052 146,186.885 144.5,188C 154.698,189.876 158.698,196.043 156.5,206.5C 154.833,206.5 153.167,206.5 151.5,206.5C 142.76,199.884 132.927,195.217 122,192.5C 113.534,194.884 105.367,198.051 97.5,202C 95.3825,203.049 93.7158,204.549 92.5,206.5C 90.5,206.5 88.5,206.5 86.5,206.5C 86.7646,202.147 87.2646,197.813 88,193.5C 91.1371,191.014 94.6371,189.181 98.5,188C 95.7082,185.425 92.7082,185.092 89.5,187C 88.2141,190.153 86.2141,192.819 83.5,195C 72.6018,199.693 61.2684,200.86 49.5,198.5C 49.3398,196.801 49.5065,195.134 50,193.5C 53.4785,191.35 56.6451,188.85 59.5,186C 52.1667,185.667 44.8333,185.333 37.5,185C 34.9919,183.55 32.3252,182.383 29.5,181.5C 28.276,179.172 28.276,176.839 29.5,174.5C 36.7078,168.703 45.0411,165.537 54.5,165C 52.8659,164.506 51.1992,164.34 49.5,164.5C 49.5,163.5 49.5,162.5 49.5,161.5C 45.8377,161.003 42.8377,162.169 40.5,165C 32.0897,166.043 24.0897,164.709 16.5,161C 13.7742,158.704 10.7742,156.871 7.5,155.5C 6.36912,153.926 6.20245,152.259 7,150.5C 16.6784,145.797 26.8451,144.131 37.5,145.5C 35.9757,143.142 33.9757,141.309 31.5,140C 25.7818,139.789 20.1152,139.289 14.5,138.5C 11.6103,135.047 8.27696,132.047 4.5,129.5C 3.57131,128.311 3.23798,126.978 3.5,125.5C 2.5,125.5 1.5,125.5 0.5,125.5C 0.767809,123.901 0.434475,122.568 -0.5,121.5C -0.5,119.167 -0.5,116.833 -0.5,114.5C 4.17853,114.334 8.8452,114.501 13.5,115C 18.4605,115.844 23.1271,117.177 27.5,119C 26.9437,116.763 25.9437,114.763 24.5,113C 16.8965,111.869 10.8965,108.202 6.5,102C 4.61733,98.3583 3.11733,94.525 2,90.5C 1.2917,89.6195 0.458367,88.9528 -0.5,88.5C -0.5,85.5 -0.5,82.5 -0.5,79.5C 3.1309,79.1604 6.46423,79.9937 9.5,82C 13.6661,84.9175 17.9994,87.5841 22.5,90C 23.1552,91.4866 24.1552,92.6533 25.5,93.5C 26.7059,91.5159 26.7059,89.5159 25.5,87.5C 22.87,86.0381 20.37,84.3715 18,82.5C 11.4589,72.9103 8.6256,62.2437 9.5,50.5C 11.5914,50.3184 13.5914,50.6518 15.5,51.5C 17.0911,54.2557 19.4245,56.089 22.5,57C 25.9517,60.7336 28.785,64.9003 31,69.5C 35.1896,63.3339 33.8562,58.6672 27,55.5C 25.1023,46.1948 25.1023,36.8615 27,27.5C 27.8388,26.3759 29.0055,25.7092 30.5,25.5C 32.9199,25.9817 34.7532,27.315 36,29.5C 39.5217,35.3987 41.855,41.732 43,48.5C 44.2978,46.7348 45.4645,44.9014 46.5,43C 43.729,39.0177 42.3957,34.5177 42.5,29.5C 43.0898,22.8033 44.7565,16.47 47.5,10.5C 49.5,10.5 51.5,10.5 53.5,10.5C 53.4392,14.0487 54.2725,17.3821 56,20.5C 56.7599,16.181 57.4265,11.8477 58,7.5C 59.4451,4.90962 60.6118,2.24296 61.5,-0.5 Z"/></g>
<g><path style="opacity:1" fill="#fefffe" d="M 66.5,-0.5 C 67.8333,-0.5 69.1667,-0.5 70.5,-0.5C 70.9256,1.28488 72.0922,2.28488 74,2.5C 76.5346,1.41678 79.0346,0.416782 81.5,-0.5C 85.8333,-0.5 90.1667,-0.5 94.5,-0.5C 94.6661,5.17645 94.4994,10.8431 94,16.5C 92.3409,17.8168 91.1743,19.4835 90.5,21.5C 91.325,22.3857 92.325,22.719 93.5,22.5C 93.6653,26.1817 93.4986,29.8484 93,33.5C 90.5794,34.9606 88.0794,36.2939 85.5,37.5C 85.0019,40.5926 84.0019,43.4259 82.5,46C 79.1403,48.5457 75.4736,50.3791 71.5,51.5C 71.6602,53.1992 71.4935,54.8659 71,56.5C 68.6667,59.1667 66.3333,61.8333 64,64.5C 63.6581,68.8377 62.3247,72.8377 60,76.5C 59.1701,82.1959 59.3368,87.8625 60.5,93.5C 61.086,93.7093 61.586,94.0426 62,94.5C 62.4994,99.8229 62.666,105.156 62.5,110.5C 64.8333,110.5 67.1667,110.5 69.5,110.5C 70.5868,115.433 71.2534,120.433 71.5,125.5C 73.1992,125.34 74.8659,125.506 76.5,126C 77.8333,128 79.1667,130 80.5,132C 84.1667,132.333 87.8333,132.667 91.5,133C 93.285,136.452 95.785,139.286 99,141.5C 105.753,152.109 107.253,163.442 103.5,175.5C 109.648,177.029 115.814,178.363 122,179.5C 127.45,178.284 132.95,177.118 138.5,176C 140.968,174.412 141.134,172.578 139,170.5C 136.581,155.817 140.748,143.484 151.5,133.5C 155.459,132.673 159.459,132.173 163.5,132C 163.932,127.067 166.598,124.901 171.5,125.5C 172.266,121.168 173.1,116.834 174,112.5C 176.381,111.565 178.881,111.232 181.5,111.5C 181.544,102.792 182.21,94.1255 183.5,85.5C 183.333,82.5 183.167,79.5 183,76.5C 181.257,73.0433 180.257,69.3767 180,65.5C 175.855,61.4472 172.689,56.9472 170.5,52C 166.549,49.1094 162.383,46.6094 158,44.5C 158.199,38.009 155.033,34.6756 148.5,34.5C 148.5,30.5 148.5,26.5 148.5,22.5C 153.242,23.188 154.075,22.188 151,19.5C 148.073,13.1442 146.907,6.47756 147.5,-0.5C 152.833,-0.5 158.167,-0.5 163.5,-0.5C 166.021,1.01922 168.521,2.68589 171,4.5C 171.352,2.75251 171.852,1.08584 172.5,-0.5C 173.833,-0.5 175.167,-0.5 176.5,-0.5C 174.895,4.01571 173.728,8.68238 173,13.5C 167.885,5.19327 160.385,1.5266 150.5,2.5C 150.689,10.9171 154.022,17.7504 160.5,23C 157.794,24.9076 154.794,25.741 151.5,25.5C 151.5,27.5 151.5,29.5 151.5,31.5C 155.607,31.9246 159.274,33.4246 162.5,36C 160.637,37.4178 160.137,39.2511 161,41.5C 165.577,43.7386 169.911,46.4053 174,49.5C 174.333,51.1667 174.667,52.8333 175,54.5C 178.105,56.6936 180.772,59.3603 183,62.5C 183.887,68.6628 186.054,74.3294 189.5,79.5C 188.675,80.3857 187.675,80.719 186.5,80.5C 186.375,86.2031 186.708,91.8698 187.5,97.5C 186.5,97.5 185.5,97.5 184.5,97.5C 184.666,103.509 184.499,109.509 184,115.5C 181.667,114.167 179.333,114.167 177,115.5C 176.1,119.834 175.266,124.168 174.5,128.5C 171.956,128.104 169.789,128.771 168,130.5C 166.715,134.404 164.881,138.071 162.5,141.5C 162.337,135.808 159.67,134.141 154.5,136.5C 151.767,139.942 148.933,143.275 146,146.5C 145.208,150.079 143.875,153.412 142,156.5C 141.333,160.167 141.333,163.833 142,167.5C 144.655,171.316 144.488,175.149 141.5,179C 135.051,180.436 128.551,181.603 122,182.5C 114.706,181.741 107.539,180.408 100.5,178.5C 100.38,176.801 100.046,175.135 99.5,173.5C 100.809,169.741 101.809,165.907 102.5,162C 101.513,155.702 99.3461,149.869 96,144.5C 92.785,142.286 90.285,139.452 88.5,136C 83.6555,134.726 80.8222,136.559 80,141.5C 78.3291,137.814 76.6625,134.148 75,130.5C 73.2111,128.771 71.0444,128.104 68.5,128.5C 68.2534,123.433 67.5868,118.433 66.5,113.5C 64.2075,113.244 62.0408,113.577 60,114.5C 59.6667,108.833 59.3333,103.167 59,97.5C 57.9887,96.6634 56.8221,96.33 55.5,96.5C 56.3424,91.213 56.6757,85.8797 56.5,80.5C 55.325,80.719 54.325,80.3857 53.5,79.5C 57.2806,73.9804 59.7806,67.9804 61,61.5C 63.3333,58.8333 65.6667,56.1667 68,53.5C 68.4935,51.8659 68.6602,50.1992 68.5,48.5C 73.1342,47.0972 77.3009,44.7639 81,41.5C 81.7429,39.5594 81.5762,37.7261 80.5,36C 83.5849,34.0404 86.7515,32.2071 90,30.5C 90.4935,28.8659 90.6602,27.1992 90.5,25.5C 87.9837,25.2447 85.6504,24.4114 83.5,23C 86,19.8333 88.5,16.6667 91,13.5C 91.4986,9.84841 91.6653,6.18174 91.5,2.5C 87.753,2.39241 84.0863,2.89241 80.5,4C 75.6709,6.16244 72.1709,9.66244 70,14.5C 70.0248,9.17063 68.8581,4.17063 66.5,-0.5 Z"/></g>
<g><path style="opacity:1" fill="#fefffe" d="M 181.5,-0.5 C 183.167,-0.5 184.833,-0.5 186.5,-0.5C 186.586,1.67702 187.253,3.67702 188.5,5.5C 191.768,6.48702 195.102,6.82036 198.5,6.5C 201.032,13.2715 202.865,20.2715 204,27.5C 205.292,25.7513 206.458,23.918 207.5,22C 211.152,21.5014 214.818,21.3347 218.5,21.5C 220.088,31.4112 220.921,41.4112 221,51.5C 225.43,47.8208 230.597,46.4875 236.5,47.5C 236.434,55.5242 235.934,63.5242 235,71.5C 234.907,74.0075 234.074,76.1741 232.5,78C 235.897,76.7815 239.563,76.2815 243.5,76.5C 243.5,77.5 243.5,78.5 243.5,79.5C 241.801,79.3398 240.134,79.5065 238.5,80C 233.731,83.1027 228.731,85.7694 223.5,88C 217.079,95.5741 215.579,94.7408 219,85.5C 221.627,84.6864 223.96,83.3531 226,81.5C 227.667,78.8333 229.333,76.1667 231,73.5C 232.283,65.8816 233.117,58.2149 233.5,50.5C 231.801,50.3398 230.134,50.5065 228.5,51C 220.766,55.6505 215.266,62.1505 212,70.5C 210.208,67.382 209.542,64.0487 210,60.5C 211.815,58.5951 213.815,56.9284 216,55.5C 217.999,45.1455 217.833,34.8121 215.5,24.5C 213.801,24.3398 212.134,24.5065 210.5,25C 204.982,31.8746 201.482,39.7079 200,48.5C 198.692,46.8657 197.858,45.0324 197.5,43C 200.404,36.5247 201.237,29.6914 200,22.5C 198.335,18.1499 196.835,13.8165 195.5,9.5C 193.833,9.5 192.167,9.5 190.5,9.5C 190.024,13.095 188.858,16.4284 187,19.5C 186.544,12.4011 184.711,5.73442 181.5,-0.5 Z"/></g>
<g><path style="opacity:1" fill="#fed609" d="M 63.5,1.5 C 66.6306,4.9649 67.9639,9.13157 67.5,14C 68.0817,19.4304 66.4151,23.9304 62.5,27.5C 63.2739,28.7112 64.1072,28.7112 65,27.5C 65.4561,28.7441 64.9561,29.5774 63.5,30C 64.448,30.4828 65.448,30.6495 66.5,30.5C 66.281,29.325 66.6143,28.325 67.5,27.5C 74.492,23.5254 81.492,23.6921 88.5,28C 81.2678,34.2798 73.4345,35.4465 65,31.5C 63.4504,31.9505 61.9504,32.1171 60.5,32C 60.3731,30.0578 60.7064,28.0578 61.5,26C 60.5,23.6667 59.5,21.3333 58.5,19C 59.0931,15.8486 59.5931,12.682 60,9.5C 61.4451,6.90962 62.6118,4.24296 63.5,1.5 Z"/></g>
<g><path style="opacity:1" fill="#fed609" d="M 183.5,33.5 C 182.181,32.1032 180.514,31.4365 178.5,31.5C 175.634,32.7593 172.634,33.7593 169.5,34.5C 163.72,33.6064 158.386,31.6064 153.5,28.5C 157.634,27.0136 161.801,25.6802 166,24.5C 170.946,24.6397 174.946,26.6397 178,30.5C 178.617,29.5509 178.451,28.7175 177.5,28C 178.5,27.6667 179.5,27.3333 180.5,27C 174.438,18.9553 173.938,10.4553 179,1.5C 184.564,9.83658 185.397,18.5032 181.5,27.5C 181.719,29.6931 182.385,31.6931 183.5,33.5 Z"/></g>
<g><path style="opacity:1" fill="#fed609" d="M 86.5,4.5 C 87.5,4.5 88.5,4.5 89.5,4.5C 89.0414,12.2319 85.3747,18.0652 78.5,22C 75.1134,21.0049 72.1134,21.8382 69.5,24.5C 69.1667,24.3333 68.8333,24.1667 68.5,24C 70.8329,22.7574 71.4996,21.0907 70.5,19C 71.7865,16.9777 72.7865,14.8111 73.5,12.5C 75.1667,11.5 76.5,10.1667 77.5,8.5C 80.7374,6.72818 83.7374,5.39485 86.5,4.5 Z"/></g>
<g><path style="opacity:1" fill="#fed609" d="M 173.5,23.5 C 162.014,22.5189 155.014,16.3522 152.5,5C 154.521,4.85983 156.355,4.69317 158,4.5C 161.5,6.66667 165,8.83333 168.5,11C 170.599,15.0141 172.266,19.1808 173.5,23.5 Z"/></g>
<g><path style="opacity:1" fill="#fed50a" d="M 31.5,127.5 C 30.577,122.785 29.4103,117.785 28,112.5C 22.8463,110.592 17.8463,108.259 13,105.5C 8.31102,98.8057 4.47769,91.6391 1.5,84C 1.83333,83.1667 2.16667,82.3333 2.5,81.5C 8.37031,85.1995 14.3703,88.6995 20.5,92C 24.7727,97.0464 26.9394,102.88 27,109.5C 27.5,109 28,108.5 28.5,108C 27.6915,101.177 27.5249,94.0107 28,86.5C 15.7942,78.6095 10.4609,67.2762 12,52.5C 19.2589,57.3087 24.9256,63.642 29,71.5C 29.3631,75.866 29.3631,80.1994 29,84.5C 31.1909,77.7727 33.6909,71.106 36.5,64.5C 36.1895,59.3537 33.6895,55.687 29,53.5C 27.0037,45.2376 27.1704,36.9043 29.5,28.5C 29.8333,28.1667 30.1667,27.8333 30.5,27.5C 36.1367,33.943 39.47,41.443 40.5,50C 39.6245,53.2071 38.2912,56.2071 36.5,59C 36.8623,60.2247 37.3623,61.3914 38,62.5C 39.5621,60.0427 40.5621,57.376 41,54.5C 46.3524,50.8007 48.6857,45.8007 48,39.5C 47.3333,38.8333 46.6667,38.1667 46,37.5C 43.7637,28.7206 45.2637,20.3872 50.5,12.5C 52.5739,17.7208 54.2405,23.0541 55.5,28.5C 55.3771,31.4901 54.7104,34.3234 53.5,37C 55.745,36.8047 57.5784,35.6381 59,33.5C 58.2281,36.4644 56.3948,38.7977 53.5,40.5C 53.1412,42.371 52.1412,43.871 50.5,45C 51.8989,45.5946 53.2322,45.4279 54.5,44.5C 55.5841,41.9121 57.2507,39.7455 59.5,38C 63.1782,37.5819 66.8449,37.0819 70.5,36.5C 72.5925,36.4858 74.4259,37.1524 76,38.5C 77.544,35.7364 78.7107,35.9031 79.5,39C 73.6924,45.0776 66.6924,48.0776 58.5,48C 57.737,47.0565 56.737,46.5565 55.5,46.5C 50.0293,46.0195 46.696,48.3528 45.5,53.5C 49.687,52.771 53.687,51.4377 57.5,49.5C 60.6061,50.3279 63.6061,50.6612 66.5,50.5C 62.8826,56.9444 57.5493,61.4444 50.5,64C 45.894,62.765 41.7274,63.5983 38,66.5C 34.6661,73.1547 32.9994,80.1547 33,87.5C 34.6501,86.1092 35.1501,84.6092 34.5,83C 36.6674,74.4952 42.0007,68.8286 50.5,66C 53.0001,65.6253 55.3334,64.7919 57.5,63.5C 55.484,73.2294 50.1506,80.8961 41.5,86.5C 37.4863,85.4136 34.3196,86.7469 32,90.5C 31.3333,97.5 31.3333,104.5 32,111.5C 32.3333,112.167 32.6667,112.833 33,113.5C 34.7047,110.618 34.8714,107.618 33.5,104.5C 33.6922,102.423 34.1922,100.423 35,98.5C 40.0054,91.1256 46.3387,85.7923 54,82.5C 55.0537,88.8423 53.887,95.009 50.5,101C 50.6135,102.28 51.2801,103.113 52.5,103.5C 53.8613,101.972 55.028,100.305 56,98.5C 56.3333,98.8333 56.6667,99.1667 57,99.5C 57.6667,104.833 57.6667,110.167 57,115.5C 55.4749,118.72 54.8083,122.053 55,125.5C 57.4758,121.85 60.3092,118.516 63.5,115.5C 66.8228,124.666 67.3228,134 65,143.5C 62.6549,146.177 59.9883,148.51 57,150.5C 55.627,152.695 55.2937,155.029 56,157.5C 60.9032,163.319 66.9032,167.986 74,171.5C 74.5205,169.711 74.1871,168.044 73,166.5C 70.8601,165.272 69.1934,163.605 68,161.5C 66.7839,157.753 65.9506,153.92 65.5,150C 66.5921,143.309 68.4254,136.809 71,130.5C 74.0361,134.925 76.7028,139.592 79,144.5C 79.6667,150.167 79.6667,155.833 79,161.5C 75.4962,164.48 74.6629,168.147 76.5,172.5C 82.8503,175.915 89.5169,178.082 96.5,179C 95.8732,176.657 94.8732,174.49 93.5,172.5C 90.2139,170.549 87.2139,168.215 84.5,165.5C 82.8524,157.402 82.1858,149.402 82.5,141.5C 83.3557,139.456 84.689,138.289 86.5,138C 88.285,141.452 90.785,144.286 94,146.5C 96.63,151.466 98.7967,156.633 100.5,162C 99.2635,165.876 97.9302,169.71 96.5,173.5C 97.4669,175.762 98.1336,178.095 98.5,180.5C 113.434,185.539 128.434,185.705 143.5,181C 146.974,175.953 147.141,170.786 144,165.5C 143.333,163.167 143.333,160.833 144,158.5C 146.657,150.338 151.157,143.338 157.5,137.5C 162.659,147.182 162.492,157.182 157,167.5C 152.013,169.974 148.513,173.808 146.5,179C 153.076,178.1 159.409,176.1 165.5,173C 167.478,170.503 167.978,167.669 167,164.5C 165.615,163.449 164.615,162.116 164,160.5C 163.333,155.5 163.333,150.5 164,145.5C 166.447,140.268 169.113,135.268 172,130.5C 174.732,136.924 176.565,143.59 177.5,150.5C 177.377,153.49 176.71,156.323 175.5,159C 175.833,159.333 176.167,159.667 176.5,160C 173.444,163.317 170.777,166.817 168.5,170.5C 168.667,170.833 168.833,171.167 169,171.5C 175.055,167.979 180.722,163.979 186,159.5C 187.422,156.97 187.755,154.303 187,151.5C 183.527,148.939 180.527,145.939 178,142.5C 175.868,134.08 176.202,125.746 179,117.5C 179.718,116.549 180.551,116.383 181.5,117C 187.08,123.735 190.747,131.402 192.5,140C 191.167,143.667 189.833,147.333 188.5,151C 188.625,152.627 189.125,154.127 190,155.5C 194.802,150.864 198.636,145.531 201.5,139.5C 200.233,134.731 197.233,131.898 192.5,131C 189.441,126.121 187.441,120.787 186.5,115C 186.392,109.949 186.725,104.782 187.5,99.5C 193.302,105.11 198.136,111.444 202,118.5C 202.883,123.333 202.383,128 200.5,132.5C 200.637,134.107 201.304,135.441 202.5,136.5C 206.516,130.469 209.182,123.803 210.5,116.5C 207.05,112.613 202.717,110.113 197.5,109C 191.381,101.108 188.714,92.2744 189.5,82.5C 197.732,86.5631 204.232,92.5631 209,100.5C 209.2,116.477 210.366,116.477 212.5,100.5C 211.647,96.1724 210.647,91.8391 209.5,87.5C 210.376,87.6309 211.043,87.2975 211.5,86.5C 210.351,79.386 208.018,72.7193 204.5,66.5C 202.807,65.7717 201.307,64.7717 200,63.5C 194.298,65.0508 189.131,63.8842 184.5,60C 182.553,56.9301 180.053,54.4301 177,52.5C 176.517,51.552 176.351,50.552 176.5,49.5C 185.171,49.0308 192.837,51.3641 199.5,56.5C 198.119,50.2857 194.285,46.619 188,45.5C 185.347,48.1941 182.18,49.0274 178.5,48C 172.911,45.4005 167.577,42.4005 162.5,39C 169.938,36.5361 177.271,36.5361 184.5,39C 186.346,41.5625 188.513,43.7292 191,45.5C 191.5,45.3333 192,45.1667 192.5,45C 189.3,41.3029 186.3,37.4696 183.5,33.5C 185.853,35.1013 188.02,37.1013 190,39.5C 189.921,37.1537 189.088,34.987 187.5,33C 188.285,31.4569 188.285,29.7902 187.5,28C 189.314,22.5573 191.148,17.0573 193,11.5C 197.088,19.0047 198.755,27.0047 198,35.5C 194.444,39.0484 193.778,43.0484 196,47.5C 199.403,51.904 202.403,56.5707 205,61.5C 205.692,60.9747 206.192,60.3081 206.5,59.5C 205.843,56.0255 204.51,52.8588 202.5,50C 203.762,41.1007 207.262,33.2673 213,26.5C 215.787,35.4252 216.121,44.4252 214,53.5C 209.301,55.6943 206.801,59.3609 206.5,64.5C 209.481,70.9393 211.981,77.606 214,84.5C 214.5,84 215,83.5 215.5,83C 214.642,81.43 213.975,79.7633 213.5,78C 215.304,66.8417 221.138,58.3417 231,52.5C 231.955,62.4026 229.622,71.4026 224,79.5C 222.2,81.317 220.034,82.4837 217.5,83C 216.54,84.4194 215.707,85.9194 215,87.5C 215.021,94.8219 215.354,102.155 216,109.5C 216.093,101.48 219.26,94.9803 225.5,90C 230.9,87.6013 236.067,84.768 241,81.5C 241.167,82 241.333,82.5 241.5,83C 238.225,89.1327 235.725,95.2994 234,101.5C 231.205,103.293 228.705,105.46 226.5,108C 223.956,109.092 221.289,109.759 218.5,110C 217.5,110.833 216.5,111.667 215.5,112.5C 213.332,119.84 211.498,127.173 210,134.5C 211.789,131.266 213.456,127.932 215,124.5C 222.902,118.486 231.736,115.82 241.5,116.5C 239.968,121.228 237.635,125.561 234.5,129.5C 231.308,132.192 227.975,134.692 224.5,137C 220.442,137.767 216.442,137.6 212.5,136.5C 210.833,137.333 209.167,138.167 207.5,139C 203.547,145.582 198.88,151.582 193.5,157C 195.684,157.442 197.684,156.942 199.5,155.5C 200.704,152.585 202.704,150.419 205.5,149C 212.5,148.333 219.5,148.333 226.5,149C 229.481,150.487 232.481,151.821 235.5,153C 227.993,157.503 219.993,160.836 211.5,163C 206.421,164.568 202.587,163.068 200,158.5C 197.036,158.666 193.869,159.166 190.5,160C 185.373,165.061 179.707,169.394 173.5,173C 177.446,173.366 180.779,172.032 183.5,169C 185.581,168.131 187.747,167.631 190,167.5C 195.672,168.391 201.172,169.891 206.5,172C 209.297,173.721 211.631,175.887 213.5,178.5C 210.839,180.158 208.173,181.824 205.5,183.5C 199.007,183.569 192.34,183.402 185.5,183C 183.5,181.667 181.5,180.333 179.5,179C 179.167,178 178.833,177 178.5,176C 176.801,175.042 174.967,174.542 173,174.5C 166.137,176.288 159.637,178.954 153.5,182.5C 154.333,182.833 155.167,183.167 156,183.5C 159.249,181.912 162.415,180.912 165.5,180.5C 169.496,181.499 173.496,182.499 177.5,183.5C 181.823,187.444 186.157,191.444 190.5,195.5C 180.743,198.973 171.41,198.14 162.5,193C 160.037,191.079 158.037,188.746 156.5,186C 154.242,184.897 151.909,184.064 149.5,183.5C 144.839,184.665 140.173,185.832 135.5,187C 139.916,189.251 144.583,190.917 149.5,192C 150.833,193.333 152.167,194.667 153.5,196C 153.167,196.333 152.833,196.667 152.5,197C 154.037,199.313 154.537,201.813 154,204.5C 144.414,197.521 133.747,192.854 122,190.5C 109.809,192.082 98.809,197.082 89,205.5C 89.0409,202.196 89.3743,198.863 90,195.5C 95.3389,191.775 101.172,189.108 107.5,187.5C 101.059,184.169 94.392,183.336 87.5,185C 86.2141,188.153 84.2141,190.819 81.5,193C 71.9308,197.814 61.9308,198.814 51.5,196C 56.9481,191.436 62.6147,187.102 68.5,183C 75.1254,180.068 81.4587,180.234 87.5,183.5C 88.737,183.444 89.737,182.944 90.5,182C 83.8003,179.064 76.967,176.564 70,174.5C 67.4557,174.384 65.289,175.217 63.5,177C 62.1667,179.667 60.1667,181.667 57.5,183C 48.3682,184.519 39.7016,183.352 31.5,179.5C 30.4104,178.609 30.4104,177.609 31.5,176.5C 38.9551,170.182 47.6218,167.349 57.5,168C 60.5,169.667 63.5,171.333 66.5,173C 67.5,173.667 68.5,173.667 69.5,173C 63.8333,168.667 58.1667,164.333 52.5,160C 47.0942,157.467 42.4276,158.467 38.5,163C 34.4932,163.713 30.6598,163.213 27,161.5C 26.6667,161.833 26.3333,162.167 26,162.5C 20.1667,159.333 14.3333,156.167 8.5,153C 13.032,150.378 17.8654,148.545 23,147.5C 28.083,148.307 33.2497,148.807 38.5,149C 40.8745,151.039 42.8745,153.372 44.5,156C 50.6206,158.074 50.9539,157.407 45.5,154C 45.8333,153.667 46.1667,153.333 46.5,153C 43.0745,148.152 39.4078,143.485 35.5,139C 34.0337,138.365 32.7003,137.531 31.5,136.5C 26.5,137.833 21.5,137.833 16.5,136.5C 13.6103,133.047 10.277,130.047 6.5,127.5C 5.57131,126.311 5.23798,124.978 5.5,123.5C 4.5,123.5 3.5,123.5 2.5,123.5C 2.32588,121.139 1.99255,118.806 1.5,116.5C 6.76414,116.302 12.0975,116.802 17.5,118C 19.8877,119.861 22.5544,121.194 25.5,122C 26.759,124.727 28.759,126.561 31.5,127.5 Z"/></g>
<g><path style="opacity:1" fill="#fed609" d="M 173.5,23.5 C 175.028,23.5173 175.528,24.184 175,25.5C 174.283,24.9558 173.783,24.2891 173.5,23.5 Z"/></g>
<g><path style="opacity:1" fill="#fefffe" d="M 57.5,24.5 C 58.2891,24.7828 58.9558,25.2828 59.5,26C 58.7734,27.3988 58.2734,28.8988 58,30.5C 57.5045,28.5273 57.3379,26.5273 57.5,24.5 Z"/></g>
<g><path style="opacity:1" fill="#fefffe" d="M 183.5,26.5 C 185.225,26.8425 185.725,27.8425 185,29.5C 183.961,28.7562 183.461,27.7562 183.5,26.5 Z"/></g>
<g><path style="opacity:1" fill="#fefffe" d="M 64.5,33.5 C 65.0431,33.56 65.3764,33.8933 65.5,34.5C 64.635,35.5827 63.635,35.7494 62.5,35C 63.4158,34.7216 64.0825,34.2216 64.5,33.5 Z"/></g>
<g><path style="opacity:1" fill="#fefffe" d="M 177.5,34.5 C 178.497,33.2875 179.497,33.4542 180.5,35C 179.423,35.4696 178.423,35.3029 177.5,34.5 Z"/></g>
<g><path style="opacity:1" fill="#000000" d="M 53.5,40.5 C 52.5416,40.9528 51.7083,41.6195 51,42.5C 50.4487,40.6467 51.1153,39.3133 53,38.5C 53.4643,39.0944 53.631,39.7611 53.5,40.5 Z"/></g>
<g><path style="opacity:1" fill="#000000" d="M 45.5,53.5 C 45.6882,55.1033 45.1882,56.4366 44,57.5C 43.2274,55.6476 43.7274,54.3143 45.5,53.5 Z"/></g>
<g><path style="opacity:1" fill="#000000" d="M 199.5,56.5 C 201.104,57.287 201.771,58.6203 201.5,60.5C 200.326,59.4863 199.66,58.153 199.5,56.5 Z"/></g>
<g><path style="opacity:1" fill="#000000" d="M 41.5,58.5 C 42.7965,59.8488 42.6298,61.1821 41,62.5C 40.805,61.1807 40.9717,59.8474 41.5,58.5 Z"/></g>
<g><path style="opacity:1" fill="#000000" d="M 201.5,60.5 C 203.085,61.0024 203.585,62.0024 203,63.5C 201.961,62.7562 201.461,61.7562 201.5,60.5 Z"/></g>
<g><path style="opacity:1" fill="#fed609" d="M 209.5,87.5 C 205.948,86.0828 202.281,85.2495 198.5,85C 191.828,79.1396 187.662,71.9729 186,63.5C 194.231,65.7852 201.231,70.1186 207,76.5C 207.107,80.4206 207.94,84.0873 209.5,87.5 Z"/></g>
<g><path style="opacity:1" fill="#fefffe" d="M 243.5,86.5 C 243.5,89.8333 243.5,93.1667 243.5,96.5C 242.12,99.7735 240.62,103.107 239,106.5C 236.876,107.622 235.043,109.122 233.5,111C 236.817,111.498 240.15,111.665 243.5,111.5C 243.5,112.5 243.5,113.5 243.5,114.5C 234.247,113.44 225.58,115.106 217.5,119.5C 216.088,116.144 217.088,113.644 220.5,112C 223.289,111.759 225.956,111.092 228.5,110C 230.705,107.46 233.205,105.293 236,103.5C 238.24,97.5729 240.74,91.9063 243.5,86.5 Z"/></g>
<g><path style="opacity:1" fill="#fefffe" d="M -0.5,88.5 C 0.458367,88.9528 1.2917,89.6195 2,90.5C 3.11733,94.525 4.61733,98.3583 6.5,102C 10.8965,108.202 16.8965,111.869 24.5,113C 25.9437,114.763 26.9437,116.763 27.5,119C 23.1271,117.177 18.4605,115.844 13.5,115C 8.8452,114.501 4.17853,114.334 -0.5,114.5C -0.5,113.5 -0.5,112.5 -0.5,111.5C 9.40389,113.21 10.7372,111.043 3.5,105C 2.72422,101.778 1.39089,98.9443 -0.5,96.5C -0.5,93.8333 -0.5,91.1667 -0.5,88.5 Z"/></g>
<g><path style="opacity:1" fill="#fefffe" d="M 203.5,89.5 C 206.808,88.3213 208.308,89.6546 208,93.5C 206.629,91.9586 205.129,90.6253 203.5,89.5 Z"/></g>
<g><path style="opacity:1" fill="#fefffe" d="M 36.5,89.5 C 37.4215,91.6718 36.5882,93.3385 34,94.5C 34.0579,92.5646 34.8912,90.8979 36.5,89.5 Z"/></g>
<g><path style="opacity:1" fill="#000000" d="M 43.5,109.5 C 44.3764,109.369 45.0431,109.702 45.5,110.5C 43.8485,114.108 42.3485,117.774 41,121.5C 40.2018,124.711 40.7018,127.711 42.5,130.5C 42.0921,139.701 40.2588,139.701 37,130.5C 35.3646,126.291 34.1979,121.958 33.5,117.5C 33.3898,115.626 34.0564,114.126 35.5,113C 38.3093,111.907 40.976,110.74 43.5,109.5 Z"/></g>
<g><path style="opacity:1" fill="#fefffe" d="M 39.5,113.5 C 40.2389,113.369 40.9056,113.536 41.5,114C 39.34,117.459 38.1734,121.292 38,125.5C 37.1656,122.828 36.3323,120.161 35.5,117.5C 36.5487,115.784 37.882,114.451 39.5,113.5 Z"/></g>
<g><path style="opacity:1" fill="#fefffe" d="M 202.5,113.5 C 204.89,114.512 206.556,116.179 207.5,118.5C 206.768,121.197 205.934,123.864 205,126.5C 204.95,121.917 204.117,117.584 202.5,113.5 Z"/></g>
<g><path style="opacity:1" fill="#fefffe" d="M -0.5,121.5 C 0.434475,122.568 0.767809,123.901 0.5,125.5C 1.5,125.5 2.5,125.5 3.5,125.5C 3.23798,126.978 3.57131,128.311 4.5,129.5C 8.27696,132.047 11.6103,135.047 14.5,138.5C 20.1152,139.289 25.7818,139.789 31.5,140C 33.9757,141.309 35.9757,143.142 37.5,145.5C 26.8451,144.131 16.6784,145.797 7,150.5C 6.20245,152.259 6.36912,153.926 7.5,155.5C 10.7742,156.871 13.7742,158.704 16.5,161C 24.0897,164.709 32.0897,166.043 40.5,165C 42.8377,162.169 45.8377,161.003 49.5,161.5C 49.5,162.5 49.5,163.5 49.5,164.5C 51.1992,164.34 52.8659,164.506 54.5,165C 45.0411,165.537 36.7078,168.703 29.5,174.5C 28.276,176.839 28.276,179.172 29.5,181.5C 32.3252,182.383 34.9919,183.55 37.5,185C 44.8333,185.333 52.1667,185.667 59.5,186C 56.6451,188.85 53.4785,191.35 50,193.5C 49.5065,195.134 49.3398,196.801 49.5,198.5C 61.2684,200.86 72.6018,199.693 83.5,195C 86.2141,192.819 88.2141,190.153 89.5,187C 92.7082,185.092 95.7082,185.425 98.5,188C 94.6371,189.181 91.1371,191.014 88,193.5C 87.2646,197.813 86.7646,202.147 86.5,206.5C 85.5,206.5 84.5,206.5 83.5,206.5C 83.5,204.167 83.5,201.833 83.5,199.5C 80.9837,199.755 78.6504,200.589 76.5,202C 66.4837,202.63 56.4837,202.463 46.5,201.5C 46.3347,197.818 46.5014,194.152 47,190.5C 47.5,190 48,189.5 48.5,189C 40.6883,189.429 33.3549,187.929 26.5,184.5C 25.3401,180.541 25.1735,176.541 26,172.5C 27.008,170.741 28.508,169.574 30.5,169C 21.0013,167.413 12.3346,163.913 4.5,158.5C 3.3414,154.878 3.17473,151.211 4,147.5C 8.21493,145.206 12.7149,143.706 17.5,143C 15.444,142.689 13.444,142.189 11.5,141.5C 8.61029,138.047 5.27696,135.047 1.5,132.5C 0.828112,131.051 0.161445,129.718 -0.5,128.5C -0.5,126.167 -0.5,123.833 -0.5,121.5 Z"/></g>
<g><path style="opacity:1" fill="#fefffe" d="M 243.5,121.5 C 243.5,124.167 243.5,126.833 243.5,129.5C 239.553,134.334 234.887,138.5 229.5,142C 224.5,142.333 219.5,142.667 214.5,143C 223.162,142.66 231.495,143.994 239.5,147C 240.46,150.73 240.793,154.563 240.5,158.5C 235.921,160.123 231.588,162.29 227.5,165C 222.903,166.586 218.236,167.919 213.5,169C 215.492,169.574 216.992,170.741 218,172.5C 218.499,176.486 218.666,180.486 218.5,184.5C 215.86,184.954 213.527,186.121 211.5,188C 205.833,188.333 200.167,188.667 194.5,189C 195.464,193.066 195.797,197.233 195.5,201.5C 186.173,202.235 176.84,202.402 167.5,202C 165.129,201.265 162.795,200.432 160.5,199.5C 159.526,201.743 159.192,204.076 159.5,206.5C 158.5,206.5 157.5,206.5 156.5,206.5C 158.698,196.043 154.698,189.876 144.5,188C 146,186.885 147.667,186.052 149.5,185.5C 150.912,186.806 152.579,187.64 154.5,188C 158.048,194.119 163.381,197.785 170.5,199C 177.83,199.168 185.163,199.001 192.5,198.5C 192.662,196.473 192.495,194.473 192,192.5C 189.357,191.024 187.19,189.024 185.5,186.5C 193.145,185.669 200.812,185.169 208.5,185C 210.527,183.121 212.86,181.954 215.5,181.5C 215.708,179.08 215.374,176.747 214.5,174.5C 207.099,169.143 198.766,165.976 189.5,165C 193.756,160.351 198.089,160.351 202.5,165C 210.09,165.949 217.423,164.949 224.5,162C 228.588,159.29 232.921,157.123 237.5,155.5C 237.739,153.533 237.406,151.699 236.5,150C 233.624,149.562 230.957,148.562 228.5,147C 220.812,146.831 213.145,146.331 205.5,145.5C 207.024,143.142 209.024,141.309 211.5,140C 217.278,139.906 222.944,139.239 228.5,138C 231.354,135.312 234.354,132.812 237.5,130.5C 239.302,127.187 241.302,124.187 243.5,121.5 Z"/></g>
<g><path style="opacity:1" fill="#000000" d="M 31.5,127.5 C 33.0057,129.975 34.3391,132.642 35.5,135.5C 33.4609,136.359 32.1275,135.526 31.5,133C 30.2453,131.113 30.2453,129.28 31.5,127.5 Z"/></g>
<g><path style="opacity:1" fill="#050505" d="M 52.5,128.5 C 53.1239,128.917 53.4573,129.584 53.5,130.5C 50.7674,136.316 50.9341,141.983 54,147.5C 54.8184,150.227 54.6517,152.894 53.5,155.5C 49.5311,151.572 46.0311,147.239 43,142.5C 42.1593,138.88 42.826,135.546 45,132.5C 48.005,131.973 50.505,130.64 52.5,128.5 Z"/></g>
<g><path style="opacity:1" fill="#fefffe" d="M 47.5,133.5 C 48.7943,135.048 49.4609,137.048 49.5,139.5C 49.3333,141.5 49.1667,143.5 49,145.5C 47.6924,143.359 46.1924,141.359 44.5,139.5C 45.5133,137.473 46.5133,135.473 47.5,133.5 Z"/></g>
<g><path style="opacity:1" fill="#fefffe" d="M 193.5,133.5 C 199.908,137.436 200.074,141.769 194,146.5C 194.822,142.188 194.656,137.854 193.5,133.5 Z"/></g>
<g><path style="opacity:1" fill="#fefffe" d="M 62.5,149.5 C 63.8504,152.952 64.3504,156.619 64,160.5C 56.3811,157.479 55.8811,153.812 62.5,149.5 Z"/></g>
<g><path style="opacity:1" fill="#fefffe" d="M 179.5,149.5 C 182.069,150.396 184.069,152.062 185.5,154.5C 183.99,157.255 181.99,159.588 179.5,161.5C 179.002,157.575 179.002,153.575 179.5,149.5 Z"/></g>
<g><path style="opacity:1" fill="#fefffe" d="M 161.5,162.5 C 163.842,164.317 165.009,166.65 165,169.5C 161.392,172.304 157.392,174.304 153,175.5C 152.333,174.833 152.333,174.167 153,173.5C 158.235,171.699 161.068,168.033 161.5,162.5 Z"/></g>
<g><path style="opacity:1" fill="#fefffe" d="M 80.5,163.5 C 83.0608,168.061 86.7275,171.728 91.5,174.5C 91.1667,174.833 90.8333,175.167 90.5,175.5C 86.2807,174.391 82.2807,172.725 78.5,170.5C 77.3861,169.277 77.2195,167.944 78,166.5C 79.045,165.627 79.8783,164.627 80.5,163.5 Z"/></g>
<g><path style="opacity:1" fill="#fefffe" d="M 68.5,176.5 C 70.8421,176.504 72.8421,177.337 74.5,179C 71.3728,179.392 68.3728,180.225 65.5,181.5C 64.479,180.998 64.3123,180.332 65,179.5C 66.5185,178.837 67.6851,177.837 68.5,176.5 Z"/></g>
<g><path style="opacity:1" fill="#fefffe" d="M 171.5,176.5 C 174.588,176.197 176.254,177.53 176.5,180.5C 173.834,180.067 171.168,179.567 168.5,179C 169.571,178.148 170.571,177.315 171.5,176.5 Z"/></g>
<g><path style="opacity:1" fill="#fefffe" d="M 151.5,206.5 C 148.833,206.5 146.167,206.5 143.5,206.5C 136.922,201.847 129.589,198.514 121.5,196.5C 113.366,198.237 106.032,201.57 99.5,206.5C 97.1667,206.5 94.8333,206.5 92.5,206.5C 93.7158,204.549 95.3825,203.049 97.5,202C 105.367,198.051 113.534,194.884 122,192.5C 132.927,195.217 142.76,199.884 151.5,206.5 Z"/></g>
</svg>
