<?xml version="1.0" encoding="UTF-8"?>
<!DOCTYPE svg PUBLIC "-//W3C//DTD SVG 1.1//EN" "http://www.w3.org/Graphics/SVG/1.1/DTD/svg11.dtd">
<svg xmlns="http://www.w3.org/2000/svg" version="1.1" width="880px" height="960px" style="shape-rendering:geometricPrecision; text-rendering:geometricPrecision; image-rendering:optimizeQuality; fill-rule:evenodd; clip-rule:evenodd" xmlns:xlink="http://www.w3.org/1999/xlink">
<g><path style="opacity:1" fill="#fefffe" d="M 404.5,172.5 C 435.691,168.583 456.524,181.25 467,210.5C 473.121,235.801 466.288,256.635 446.5,273C 444.33,274.586 441.996,275.92 439.5,277C 438.782,278.987 437.782,280.821 436.5,282.5C 536.013,293.469 610.513,342.136 660,428.5C 696.274,501.045 703.274,576.378 681,654.5C 654.958,733.878 604.124,791.378 528.5,827C 462.839,854.151 395.839,857.818 327.5,838C 251.078,812.246 195.245,763.08 160,690.5C 132.598,628.295 126.265,563.961 141,497.5C 163.871,409.235 216.371,345.402 298.5,306C 327.89,293.319 358.556,285.653 390.5,283C 388.656,276.489 384.656,271.822 378.5,269C 363.986,254.453 358.486,236.953 362,216.5C 366.596,192.407 380.763,177.74 404.5,172.5 Z"/></g>
<g><path style="opacity:1" fill="#000000" d="M 407.5,175.5 C 436.058,173.853 454.891,186.52 464,213.5C 469.026,240.272 459.859,260.439 436.5,274C 434.811,278.379 432.144,282.045 428.5,285C 536.612,295.503 615.112,349.003 664,445.5C 699.333,526.179 699.333,606.845 664,687.5C 618.257,778.649 544.757,831.482 443.5,846C 340.612,853.839 257.112,817.673 193,737.5C 143.748,668.926 126.748,592.926 142,509.5C 162.931,416.915 216.097,350.081 301.5,309C 332.566,295.817 364.899,287.817 398.5,285C 394.106,281.932 391.272,277.765 390,272.5C 366.923,256.269 359.589,234.602 368,207.5C 376.01,190.311 389.176,179.644 407.5,175.5 Z"/></g>
<g><path style="opacity:1" fill="#f6cb63" d="M 409.5,178.5 C 441.322,179.154 458.988,195.32 462.5,227C 462.245,233.033 461.078,238.867 459,244.5C 456.033,250.118 452.7,255.452 449,260.5C 445.333,263.5 441.667,266.5 438,269.5C 437.762,265.778 437.262,262.111 436.5,258.5C 447.972,249.389 454.305,237.555 455.5,223C 451.941,199.613 438.274,187.113 414.5,185.5C 404.249,185.728 394.916,188.728 386.5,194.5C 382.985,199.522 379.652,204.689 376.5,210C 371.184,228.262 375.684,243.429 390,255.5C 390.004,259.483 389.671,263.483 389,267.5C 366.154,248.433 361.821,225.767 376,199.5C 384.515,188.13 395.682,181.13 409.5,178.5 Z"/></g>
<g><path style="opacity:1" fill="#fefffe" d="M 409.5,188.5 C 428.156,187.734 441.323,195.734 449,212.5C 453.985,229.377 449.485,243.043 435.5,253.5C 426.629,240.268 414.963,237.101 400.5,244C 397.114,246.263 394.281,249.097 392,252.5C 376.245,238.789 373.579,222.789 384,204.5C 390.541,195.983 399.041,190.649 409.5,188.5 Z"/></g>
<g><path style="opacity:0" fill="#d300f0" d="M 412.5,191.5 C 432.48,193.819 444.48,204.819 448.5,224.5C 447.068,233.575 443.068,241.241 436.5,247.5C 430.662,240.083 422.995,236.75 413.5,237.5C 404.527,236.658 397.193,239.658 391.5,246.5C 376.278,228.807 377.944,212.64 396.5,198C 401.603,194.938 406.936,192.771 412.5,191.5 Z"/></g>
<g><path style="opacity:1" fill="#f6cb63" d="M 409.5,243.5 C 424.062,243.727 432.395,251.06 434.5,265.5C 431.318,284.265 420.652,290.431 402.5,284C 390.907,274.021 389.574,262.854 398.5,250.5C 402.065,248.78 405.732,247.446 409.5,246.5C 409.5,245.5 409.5,244.5 409.5,243.5 Z"/></g>
<g><path style="opacity:1" fill="#f6cb63" d="M 398.5,288.5 C 503.667,287.326 585.501,329.993 644,416.5C 688.154,489.583 698.487,567.249 675,649.5C 649.295,728.54 598.795,785.707 523.5,821C 441.112,855.454 360.445,851.787 281.5,810C 195.659,758.218 148.492,682.051 140,581.5C 137.034,499.048 163.867,428.548 220.5,370C 221.448,369.517 222.448,369.351 223.5,369.5C 223.351,368.448 223.517,367.448 224,366.5C 272.607,319.558 330.773,293.558 398.5,288.5 Z"/></g>
<g><path style="opacity:1" fill="#000000" d="M 651.5,691.5 C 644.906,703.424 637.906,715.09 630.5,726.5C 561.782,815.816 471.448,851.316 359.5,833C 269.212,811.044 205.378,757.544 168,672.5C 135.757,587.661 141.757,505.661 186,426.5C 245.955,333.605 331.455,290.772 442.5,298C 545.21,313.061 617.71,367.894 660,462.5C 689.732,540.08 686.899,616.414 651.5,691.5 Z"/></g>
<g><path style="opacity:1" fill="#f6cb63" d="M 398.5,298.5 C 492.867,296.303 568.7,332.303 626,406.5C 680.806,486.145 692.472,571.811 661,663.5C 628.022,746.48 568.855,800.98 483.5,827C 380.461,851.041 292.295,825.208 219,749.5C 155.425,674.182 135.758,588.515 160,492.5C 183.336,415.171 231.17,358.671 303.5,323C 333.874,309.324 365.541,301.157 398.5,298.5 Z"/></g>
<g><path style="opacity:1" fill="#000000" d="M 398.5,317.5 C 498.692,315.999 574.858,357.666 627,442.5C 663.515,511.019 669.182,582.019 644,655.5C 612.58,734.59 556.08,786.09 474.5,810C 378.279,830.749 296.779,805.249 230,733.5C 175.123,666.491 157.123,590.491 176,505.5C 196.283,429.891 241.449,374.724 311.5,340C 339.288,327.349 368.288,319.849 398.5,317.5 Z"/></g>
<g><path style="opacity:1" fill="#9fb5e1" d="M 399.5,319.5 C 487.694,317.518 558.194,351.518 611,421.5C 659.6,493.959 669.933,571.626 642,654.5C 610.909,733.26 554.743,784.426 473.5,808C 378.551,828.316 298.051,803.149 232,732.5C 177.389,666.149 159.389,590.816 178,506.5C 198.13,431.375 242.963,376.542 312.5,342C 340.288,329.349 369.288,321.849 399.5,319.5 Z"/></g>
<g><path style="opacity:1" fill="#000000" d="M 396.5,325.5 C 407.659,324.341 418.992,324.174 430.5,325C 430,325.5 429.5,326 429,326.5C 428.333,338.167 428.333,349.833 429,361.5C 429.5,362 430,362.5 430.5,363C 419.167,363.667 407.833,363.667 396.5,363C 398,362.167 399.167,361 400,359.5C 402.03,354.409 403.864,349.242 405.5,344C 404.447,338.117 402.781,332.45 400.5,327C 399.099,326.59 397.766,326.09 396.5,325.5 Z"/></g>
<g><path style="opacity:1" fill="#9fb5e1" d="M 406.5,325.5 C 408.527,325.338 410.527,325.505 412.5,326C 411.204,328.761 410.037,331.595 409,334.5C 408.007,331.526 407.174,328.526 406.5,325.5 Z"/></g>
<g><path style="opacity:1" fill="#9fb5e1" d="M 414.5,326.5 C 415.829,331.96 416.496,337.793 416.5,344C 416.333,349.833 416.167,355.667 416,361.5C 413.752,354.005 411.585,346.505 409.5,339C 411.072,334.782 412.739,330.615 414.5,326.5 Z"/></g>
<g><path style="opacity:1" fill="#9fb5e1" d="M 421.5,326.5 C 422.829,332.128 423.496,338.128 423.5,344.5C 423.167,350.5 422.833,356.5 422.5,362.5C 421.501,350.518 421.168,338.518 421.5,326.5 Z"/></g>
<g><path style="opacity:1" fill="#000000" d="M 306.5,349.5 C 306.794,351.276 306.96,353.276 307,355.5C 312.133,363.618 316.8,371.951 321,380.5C 322.303,381.112 323.47,381.446 324.5,381.5C 317.633,386.857 310.466,391.857 303,396.5C 303.136,388.776 302.136,381.11 300,373.5C 296.464,370.299 293.297,366.799 290.5,363C 288.874,363.195 287.207,363.195 285.5,363C 292.565,358.476 299.565,353.976 306.5,349.5 Z"/></g>
<g><path style="opacity:1" fill="#9fb5e1" d="M 405.5,349.5 C 407.276,352.889 408.609,356.556 409.5,360.5C 406.894,361.652 404.227,361.818 401.5,361C 403.53,357.411 404.863,353.578 405.5,349.5 Z"/></g>
<g><path style="opacity:1" fill="#9fb5e1" d="M 299.5,356.5 C 300.077,355.227 300.743,355.227 301.5,356.5C 307.434,365.616 312.768,375.116 317.5,385C 312.167,381.001 307.334,376.168 303,370.5C 302.058,365.653 300.892,360.986 299.5,356.5 Z"/></g>
<g><path style="opacity:1" fill="#9fb5e1" d="M 296.5,357.5 C 299.135,359.429 299.968,362.095 299,365.5C 297.167,363.667 295.333,361.833 293.5,360C 294.571,359.148 295.571,358.315 296.5,357.5 Z"/></g>
<g><path style="opacity:1" fill="#000000" d="M 528.5,360.5 C 529.721,359.535 531.054,359.702 532.5,361C 534.208,362.51 535.874,364.01 537.5,365.5C 536.603,365.669 535.603,366.002 534.5,366.5C 529.5,374.5 524.5,382.5 519.5,390.5C 520.326,391.451 520.492,392.451 520,393.5C 517.5,391.667 515,389.833 512.5,388C 513.624,387.751 514.624,387.251 515.5,386.5C 520.625,378.417 525.625,370.25 530.5,362C 529.956,361.283 529.289,360.783 528.5,360.5 Z"/></g>
<g><path style="opacity:1" fill="#000000" d="M 399.5,365.5 C 468.856,363.02 524.856,388.853 567.5,443C 569,443.5 570.5,444 572,444.5C 582.72,438.552 592.887,431.718 602.5,424C 604.747,422.691 607.08,422.025 609.5,422C 598.858,430.637 588.191,439.303 577.5,448C 576.833,450.667 576.167,453.333 575.5,456C 584.859,468.212 592.026,481.712 597,496.5C 619.867,565.242 611.2,629.575 571,689.5C 516.64,759.18 446.14,784.014 359.5,764C 290.224,740.97 245.057,694.47 224,624.5C 206.496,553.664 220.496,489.997 266,433.5C 301.428,393.202 345.928,370.536 399.5,365.5 Z"/></g>
<g><path style="opacity:1" fill="#dfdccc" d="M 400.5,367.5 C 468.183,365.367 522.85,390.7 564.5,443.5C 558.422,446.814 555.756,451.981 556.5,459C 513.493,491.677 469.66,523.177 425,553.5C 411.031,546.262 400.864,550.096 394.5,565C 396.265,582.312 405.431,587.812 422,581.5C 430.352,588.351 437.852,596.018 444.5,604.5C 417.2,627.238 408.033,655.905 417,690.5C 428.173,720.436 449.507,738.436 481,744.5C 491.549,743.726 502.049,742.56 512.5,741C 457.471,773.302 400.137,777.969 340.5,755C 331.06,751.114 322.06,746.447 313.5,741C 357.05,749.643 387.883,733.81 406,693.5C 416.338,659.346 408.505,630.179 382.5,606C 351.5,584 320.5,584 289.5,606C 264.338,629.133 256.172,657.3 265,690.5C 266.902,695.213 268.568,699.88 270,704.5C 220.882,645.585 207.049,579.085 228.5,505C 257.889,424.102 315.222,378.269 400.5,367.5 Z"/></g>
<g><path style="opacity:1" fill="#9fb5e1" d="M 303.5,378.5 C 306.493,381.501 309.159,384.835 311.5,388.5C 309.807,390.027 307.973,391.36 306,392.5C 304.933,387.864 304.1,383.198 303.5,378.5 Z"/></g>
<g><path style="opacity:1" fill="#000000" d="M 213.5,435.5 C 218.168,449.76 228.001,455.427 243,452.5C 241.094,458.299 238.094,463.632 234,468.5C 234,467.167 234,465.833 234,464.5C 231.518,461.051 228.685,457.884 225.5,455C 218.451,452.467 211.284,451.634 204,452.5C 203.48,450.711 203.813,449.044 205,447.5C 208.089,443.646 210.922,439.646 213.5,435.5 Z"/></g>
<g><path style="opacity:1" fill="#9fb5e1" d="M 212.5,440.5 C 215.368,443.688 218.368,446.855 221.5,450C 217.282,449.69 213.115,448.856 209,447.5C 209.798,445.139 210.965,442.806 212.5,440.5 Z"/></g>
<g><path style="opacity:1" fill="#000000" d="M 616.5,441.5 C 620.639,445.457 623.472,450.124 625,455.5C 624.333,454.833 623.667,454.167 623,453.5C 612.802,459.262 602.802,465.262 593,471.5C 590.873,467.411 588.373,463.577 585.5,460C 596.079,456.044 606.079,451.044 615.5,445C 616.337,443.989 616.67,442.822 616.5,441.5 Z"/></g>
<g><path style="opacity:1" fill="#dfdccc" d="M 565.5,445.5 C 568.628,448.398 571.294,451.732 573.5,455.5C 569.802,460.473 565.635,460.806 561,456.5C 559.393,451.438 560.893,447.772 565.5,445.5 Z"/></g>
<g><path style="opacity:1" fill="#9fb5e1" d="M 569.5,446.5 C 569.897,445.475 570.563,445.308 571.5,446C 573.213,447.378 574.547,449.045 575.5,451C 575,451.5 574.5,452 574,452.5C 572.723,450.253 571.223,448.253 569.5,446.5 Z"/></g>
<g><path style="opacity:1" fill="#9fb5e1" d="M 617.5,448.5 C 619.942,448.354 620.609,449.187 619.5,451C 610.122,455.773 600.956,460.939 592,466.5C 591.333,465.833 591.333,465.167 592,464.5C 594.124,463.378 595.957,461.878 597.5,460C 604.719,456.898 611.386,453.064 617.5,448.5 Z"/></g>
<g><path style="opacity:1" fill="#9fb5e1" d="M 227.5,455.5 C 227.735,454.903 228.235,454.57 229,454.5C 232.602,455.546 236.102,456.713 239.5,458C 238.36,459.973 237.027,461.807 235.5,463.5C 232.827,460.8 230.16,458.133 227.5,455.5 Z"/></g>
<g><path style="opacity:1" fill="#dfdccc" d="M 574.5,457.5 C 598.742,495.126 609.575,536.459 607,581.5C 603.618,628.354 586.618,669.354 556,704.5C 569.821,673.77 566.821,644.77 547,617.5C 527.225,595.535 502.725,587.035 473.5,592C 464.522,594.508 455.855,597.508 447.5,601C 441.019,593.351 434.352,585.851 427.5,578.5C 429.646,572.096 429.98,565.596 428.5,559C 471.649,526.251 514.649,493.251 557.5,460C 561.679,461.227 566.012,461.56 570.5,461C 572.324,460.34 573.657,459.173 574.5,457.5 Z"/></g>
<g><path style="opacity:1" fill="#000000" d="M 173.5,550.5 C 174.289,550.783 174.956,551.283 175.5,552C 185.844,553.127 196.177,553.293 206.5,552.5C 206.808,551.692 207.308,551.025 208,550.5C 208.667,558.167 208.667,565.833 208,573.5C 207.333,572.833 206.667,572.167 206,571.5C 196.038,571.385 185.871,571.552 175.5,572C 175,572.5 174.5,573 174,573.5C 173.5,565.841 173.334,558.174 173.5,550.5 Z"/></g>
<g><path style="opacity:1" fill="#9fb5e1" d="M 175.5,554.5 C 181.621,554.09 187.621,554.59 193.5,556C 187.6,557.378 181.766,558.878 176,560.5C 175.505,558.527 175.338,556.527 175.5,554.5 Z"/></g>
<g><path style="opacity:1" fill="#9fb5e1" d="M 202.5,557.5 C 203.833,557.5 205.167,557.5 206.5,557.5C 206.5,560.833 206.5,564.167 206.5,567.5C 202.641,566.715 198.975,566.882 195.5,568C 188.842,568.5 182.175,568.666 175.5,568.5C 175.5,566.833 175.5,565.167 175.5,563.5C 183.787,561.81 192.12,560.31 200.5,559C 201.416,558.722 202.082,558.222 202.5,557.5 Z"/></g>
<g><path style="opacity:1" fill="#000000" d="M 614.5,559.5 C 615.289,559.783 615.956,560.283 616.5,561C 626.833,561.667 637.167,561.667 647.5,561C 648,560.5 648.5,560 649,559.5C 649.667,566.833 649.667,574.167 649,581.5C 648.5,581 648,580.5 647.5,580C 637.167,579.333 626.833,579.333 616.5,580C 616,580.5 615.5,581 615,581.5C 614.5,574.174 614.334,566.841 614.5,559.5 Z"/></g>
<g><path style="opacity:1" fill="#dfdccc" d="M 408.5,562.5 C 411.518,562.704 414.518,563.037 417.5,563.5C 417.5,566.5 417.5,569.5 417.5,572.5C 414.167,572.167 410.833,571.833 407.5,571.5C 407.704,568.482 408.037,565.482 408.5,562.5 Z"/></g>
<g><path style="opacity:1" fill="#9fb5e1" d="M 616.5,565.5 C 626.833,565.5 637.167,565.5 647.5,565.5C 647.5,566.5 647.5,567.5 647.5,568.5C 637.167,568.5 626.833,568.5 616.5,568.5C 616.5,567.5 616.5,566.5 616.5,565.5 Z"/></g>
<g><path style="opacity:1" fill="#9fb5e1" d="M 616.5,572.5 C 626.833,572.5 637.167,572.5 647.5,572.5C 647.5,573.5 647.5,574.5 647.5,575.5C 637.167,575.5 626.833,575.5 616.5,575.5C 616.5,574.5 616.5,573.5 616.5,572.5 Z"/></g>
<g><path style="opacity:1" fill="#96a9d3" d="M 328.5,591.5 C 354.031,590.223 375.031,599.223 391.5,618.5C 389.312,621.522 386.645,624.022 383.5,626C 384.025,626.692 384.692,627.192 385.5,627.5C 388.151,625.35 390.651,623.017 393,620.5C 413.907,652.02 413.573,683.353 392,714.5C 369.974,739.049 343.141,746.549 311.5,737C 281.114,723.424 265.114,699.924 263.5,666.5C 276.833,665.833 276.833,665.167 263.5,664.5C 264.268,648.642 269.268,634.309 278.5,621.5C 280.833,623.5 283.167,625.5 285.5,627.5C 286.308,627.192 286.975,626.692 287.5,626C 283.665,624.198 281.498,621.365 281,617.5C 293.693,602.948 309.526,594.281 328.5,591.5 Z"/></g>
<g><path style="opacity:1" fill="#000000" d="M 335.5,592.5 C 336.777,593.694 337.444,595.36 337.5,597.5C 337.167,599.167 336.833,600.833 336.5,602.5C 335.513,599.232 335.18,595.898 335.5,592.5 Z"/></g>
<g><path style="opacity:1" fill="#96a9d3" d="M 452.5,615.5 C 425.665,637.851 419.832,664.851 435,696.5C 445.725,712.604 460.558,722.271 479.5,725.5C 482.897,726.198 486.397,726.865 490,727.5C 491.622,726.901 493.122,726.234 494.5,725.5C 512.337,722.67 526.67,714.003 537.5,699.5C 539.604,701.099 541.604,702.932 543.5,705C 544.167,705.667 544.833,705.667 545.5,705C 543.255,702.269 541.255,699.436 539.5,696.5C 549.727,676.659 550.06,656.659 540.5,636.5C 541.366,634.856 541.866,633.189 542,631.5C 541.667,631.167 541.333,630.833 541,630.5C 540.148,631.571 539.315,632.571 538.5,633.5C 517.86,606.419 491.527,599.086 459.5,611.5C 456.728,609.232 454.062,606.732 451.5,604C 467.372,593.632 484.705,590.299 503.5,594C 534.435,601.935 553.602,621.435 561,652.5C 566.032,693.616 549.532,722.116 511.5,738C 475.386,746.855 446.886,736.022 426,705.5C 408.297,669.884 413.464,638.051 441.5,610C 443.305,609.028 444.972,607.861 446.5,606.5C 449.542,608.58 450.876,611.247 450.5,614.5C 452.886,613.012 453.552,613.345 452.5,615.5 Z"/></g>
<g><path style="opacity:1" fill="#000000" d="M 473.5,601.5 C 475.973,601.947 476.14,602.947 474,604.5C 473.517,603.552 473.351,602.552 473.5,601.5 Z"/></g>
<g><path style="opacity:1" fill="#000000" d="M 461.5,604.5 C 463.852,605.543 464.019,606.876 462,608.5C 460.232,607.318 460.065,605.985 461.5,604.5 Z"/></g>
<g><path style="opacity:1" fill="#000000" d="M 511.5,604.5 C 513.332,605.14 513.665,606.14 512.5,607.5C 510.481,606.867 510.147,605.867 511.5,604.5 Z"/></g>
<g><path style="opacity:1" fill="#dfdbcc" d="M 383.5,699.5 C 382.094,699.973 381.427,700.973 381.5,702.5C 362.786,724.097 339.786,730.264 312.5,721C 284.482,706.673 272.982,683.839 278,652.5C 287.161,620.019 308.661,604.519 342.5,606C 374.698,612.705 391.698,632.538 393.5,665.5C 393.181,677.784 389.848,689.117 383.5,699.5 Z"/></g>
<g><path style="opacity:1" fill="#dfdccc" d="M 538.5,633.5 C 538.932,634.71 539.599,635.71 540.5,636.5C 550.06,656.659 549.727,676.659 539.5,696.5C 534.489,691.651 529.989,686.317 526,680.5C 528.113,661.602 520.113,654.602 502,659.5C 487.661,644.827 473.661,629.827 460,614.5C 459.517,613.552 459.351,612.552 459.5,611.5C 491.527,599.086 517.86,606.419 538.5,633.5 Z"/></g>
<g><path style="opacity:1" fill="#000000" d="M 522.5,611.5 C 526.31,612.754 526.31,613.754 522.5,614.5C 522.5,613.5 522.5,612.5 522.5,611.5 Z"/></g>
<g><path style="opacity:1" fill="#dfdccc" d="M 452.5,615.5 C 453.873,615.343 455.207,615.51 456.5,616C 470.665,631.165 485.165,645.998 500,660.5C 494.457,678.642 501.29,687.142 520.5,686C 526.354,690.364 532.021,694.864 537.5,699.5C 526.67,714.003 512.337,722.67 494.5,725.5C 493.167,725.5 491.833,725.5 490.5,725.5C 489.406,709.617 488.406,693.784 487.5,678C 489.866,675.725 492.366,673.559 495,671.5C 496.815,661.475 492.649,657.309 482.5,659C 476.332,666.448 477.499,672.614 486,677.5C 487.186,693.504 488.353,709.504 489.5,725.5C 486.167,725.5 482.833,725.5 479.5,725.5C 460.558,722.271 445.725,712.604 435,696.5C 419.832,664.851 425.665,637.851 452.5,615.5 Z"/></g>
<g><path style="opacity:1" fill="#000000" d="M 440.5,620.5 C 442.048,620.821 442.715,621.821 442.5,623.5C 439.752,623.598 439.086,622.598 440.5,620.5 Z"/></g>
<g><path style="opacity:1" fill="#000000" d="M 532.5,620.5 C 534.048,620.821 534.715,621.821 534.5,623.5C 531.752,623.598 531.086,622.598 532.5,620.5 Z"/></g>
<g><path style="opacity:1" fill="#000000" d="M 540.5,636.5 C 539.599,635.71 538.932,634.71 538.5,633.5C 539.315,632.571 540.148,631.571 541,630.5C 541.333,630.833 541.667,631.167 542,631.5C 541.866,633.189 541.366,634.856 540.5,636.5 Z"/></g>
<g><path style="opacity:1" fill="#000000" d="M 426.5,643.5 C 428.337,643.639 428.67,644.306 427.5,645.5C 426.702,645.043 426.369,644.376 426.5,643.5 Z"/></g>
<g><path style="opacity:1" fill="#000000" d="M 224.5,650.5 C 230.517,659.351 236.184,668.518 241.5,678C 240.216,678.684 239.049,678.517 238,677.5C 233.763,681.036 229.263,684.202 224.5,687C 221.376,690.825 217.876,694.325 214,697.5C 213.667,698.5 213.333,699.5 213,700.5C 206.707,690.082 200.541,679.582 194.5,669C 195.784,668.316 196.951,668.483 198,669.5C 206.646,664.198 215.313,658.865 224,653.5C 224.483,652.552 224.649,651.552 224.5,650.5 Z"/></g>
<g><path style="opacity:1" fill="#000000" d="M 548.5,655.5 C 550.465,655.948 550.798,656.948 549.5,658.5C 548.614,657.675 548.281,656.675 548.5,655.5 Z"/></g>
<g><path style="opacity:1" fill="#9fb5e1" d="M 223.5,658.5 C 224.552,658.351 225.552,658.517 226.5,659C 223.688,660.977 221.022,663.144 218.5,665.5C 212.284,668.228 206.45,671.561 201,675.5C 199.759,674.123 199.592,672.79 200.5,671.5C 208.391,667.392 216.058,663.059 223.5,658.5 Z"/></g>
<g><path style="opacity:1" fill="#000000" d="M 357.5,682.5 C 354.618,681.189 351.618,680.022 348.5,679C 346.291,676.622 343.958,674.455 341.5,672.5C 336.583,675.147 332.416,674.147 329,669.5C 328.41,659.719 332.577,656.719 341.5,660.5C 343.614,663.279 344.281,666.279 343.5,669.5C 346.339,671.42 349.339,673.087 352.5,674.5C 353.802,677.427 355.469,680.094 357.5,682.5 Z"/></g>
<g><path style="opacity:1" fill="#000000" d="M 494.5,725.5 C 493.122,726.234 491.622,726.901 490,727.5C 486.397,726.865 482.897,726.198 479.5,725.5C 482.833,725.5 486.167,725.5 489.5,725.5C 488.353,709.504 487.186,693.504 486,677.5C 477.499,672.614 476.332,666.448 482.5,659C 492.649,657.309 496.815,661.475 495,671.5C 492.366,673.559 489.866,675.725 487.5,678C 488.406,693.784 489.406,709.617 490.5,725.5C 491.833,725.5 493.167,725.5 494.5,725.5 Z"/></g>
<g><path style="opacity:1" fill="#dfdccc" d="M 508.5,660.5 C 521.83,659.499 526.996,665.499 524,678.5C 518.735,686.104 512.235,687.271 504.5,682C 498.349,673.404 499.682,666.238 508.5,660.5 Z"/></g>
<g><path style="opacity:1" fill="#000000" d="M 593.5,660.5 C 594.381,662.304 595.714,663.804 597.5,665C 604.436,668.94 611.103,673.273 617.5,678C 619.055,679.646 620.721,679.979 622.5,679C 617.861,687.124 612.861,694.957 607.5,702.5C 606.41,701.609 606.41,700.609 607.5,699.5C 599.098,693.77 590.431,688.437 581.5,683.5C 580.522,683.977 579.689,684.643 579,685.5C 583.767,677.322 588.601,668.989 593.5,660.5 Z"/></g>
<g><path style="opacity:1" fill="#9fb5e1" d="M 229.5,662.5 C 230.267,663.172 230.934,664.005 231.5,665C 223.366,668.9 215.7,673.567 208.5,679C 206.975,680.009 205.308,680.509 203.5,680.5C 203.33,679.178 203.663,678.011 204.5,677C 212.878,672.148 221.211,667.314 229.5,662.5 Z"/></g>
<g><path style="opacity:1" fill="#dfdccc" d="M 485.5,663.5 C 490.041,663.815 491.041,665.649 488.5,669C 483.722,669.073 482.722,667.24 485.5,663.5 Z"/></g>
<g><path style="opacity:1" fill="#000000" d="M 396.5,664.5 C 399.898,664.18 403.232,664.513 406.5,665.5C 404.833,665.833 403.167,666.167 401.5,666.5C 399.36,666.444 397.694,665.777 396.5,664.5 Z"/></g>
<g><path style="opacity:1" fill="#9fb5e1" d="M 591.5,666.5 C 600.473,671.655 609.473,676.822 618.5,682C 617.874,682.75 617.374,683.584 617,684.5C 608.5,679.333 600,674.167 591.5,669C 590.402,668.23 590.402,667.397 591.5,666.5 Z"/></g>
<g><path style="opacity:1" fill="#9fb5e1" d="M 232.5,668.5 C 234.179,670 235.512,671.833 236.5,674C 229.646,677.258 222.646,680.258 215.5,683C 212.57,684.318 209.57,684.985 206.5,685C 215.062,679.226 223.729,673.726 232.5,668.5 Z"/></g>
<g><path style="opacity:1" fill="#000000" d="M 422.5,668.5 C 423.376,668.369 424.043,668.702 424.5,669.5C 422.192,670.873 421.525,670.54 422.5,668.5 Z"/></g>
<g><path style="opacity:1" fill="#9fb5e1" d="M 587.5,672.5 C 596.431,676.633 605.098,681.3 613.5,686.5C 614.745,687.955 614.578,689.289 613,690.5C 604.75,685.625 596.583,680.625 588.5,675.5C 587.614,674.675 587.281,673.675 587.5,672.5 Z"/></g>
<g><path style="opacity:1" fill="#9fb5e1" d="M 584.5,677.5 C 592.971,682.237 601.305,687.237 609.5,692.5C 610.745,693.955 610.578,695.289 609,696.5C 600.755,690.626 592.255,685.126 583.5,680C 584.252,679.329 584.586,678.496 584.5,677.5 Z"/></g>
<g><path style="opacity:1" fill="#000000" d="M 424.5,680.5 C 426.332,681.14 426.665,682.14 425.5,683.5C 423.481,682.867 423.147,681.867 424.5,680.5 Z"/></g>
<g><path style="opacity:1" fill="#9fb5e1" d="M 223.5,681.5 C 224.552,681.351 225.552,681.517 226.5,682C 221.533,686.058 216.7,690.225 212,694.5C 210.581,692.664 209.414,690.664 208.5,688.5C 213.653,686.346 218.653,684.012 223.5,681.5 Z"/></g>
<g><path style="opacity:1" fill="#000000" d="M 547.5,681.5 C 549.337,681.639 549.67,682.306 548.5,683.5C 547.702,683.043 547.369,682.376 547.5,681.5 Z"/></g>
<g><path style="opacity:1" fill="#000000" d="M 357.5,682.5 C 359.404,682.738 360.738,683.738 361.5,685.5C 359.596,685.262 358.262,684.262 357.5,682.5 Z"/></g>
<g><path style="opacity:1" fill="#000000" d="M 361.5,685.5 C 363.404,685.738 364.738,686.738 365.5,688.5C 363.596,688.262 362.262,687.262 361.5,685.5 Z"/></g>
<g><path style="opacity:1" fill="#000000" d="M 365.5,688.5 C 367.196,688.685 368.529,689.519 369.5,691C 367.588,691.279 366.254,690.446 365.5,688.5 Z"/></g>
<g><path style="opacity:1" fill="#000000" d="M 651.5,691.5 C 652.5,691.5 653.5,691.5 654.5,691.5C 654.5,692.5 654.5,693.5 654.5,694.5C 653.5,694.5 652.5,694.5 651.5,694.5C 651.5,693.5 651.5,692.5 651.5,691.5 Z"/></g>
<g><path style="opacity:1" fill="#000000" d="M 370.5,693.5 C 371.497,692.287 372.497,692.454 373.5,694C 372.423,694.47 371.423,694.303 370.5,693.5 Z"/></g>
<g><path style="opacity:1" fill="#000000" d="M 543.5,693.5 C 544.776,694.386 544.776,695.386 543.5,696.5C 542.438,695.575 542.438,694.575 543.5,693.5 Z"/></g>
<g><path style="opacity:1" fill="#000000" d="M 374.5,696.5 C 375.497,695.287 376.497,695.454 377.5,697C 376.423,697.47 375.423,697.303 374.5,696.5 Z"/></g>
<g><path style="opacity:1" fill="#000000" d="M 383.5,699.5 C 383.573,701.027 382.906,702.027 381.5,702.5C 381.427,700.973 382.094,699.973 383.5,699.5 Z"/></g>
<g><path style="opacity:1" fill="#000000" d="M 286.5,703.5 C 287.478,703.811 288.145,704.478 288.5,705.5C 286.5,708.167 284.167,710.5 281.5,712.5C 280.479,711.998 280.312,711.332 281,710.5C 283.454,708.559 285.287,706.225 286.5,703.5 Z"/></g>
<g><path style="opacity:1" fill="#000000" d="M 384.5,703.5 C 386.433,705.937 388.6,708.271 391,710.5C 391.688,711.332 391.521,711.998 390.5,712.5C 386.613,710.313 384.613,707.313 384.5,703.5 Z"/></g>
<g><path style="opacity:1" fill="#000000" d="M 434.5,705.5 C 436.337,705.639 436.67,706.306 435.5,707.5C 434.702,707.043 434.369,706.376 434.5,705.5 Z"/></g>
<g><path style="opacity:1" fill="#000000" d="M 443.5,714.5 C 445.337,714.639 445.67,715.306 444.5,716.5C 443.702,716.043 443.369,715.376 443.5,714.5 Z"/></g>
<g><path style="opacity:1" fill="#000000" d="M 454.5,721.5 C 456.332,722.14 456.665,723.14 455.5,724.5C 454.614,723.675 454.281,722.675 454.5,721.5 Z"/></g>
<g><path style="opacity:1" fill="#000000" d="M 630.5,726.5 C 631.5,726.5 632.5,726.5 633.5,726.5C 633.5,727.5 633.5,728.5 633.5,729.5C 632.5,729.5 631.5,729.5 630.5,729.5C 630.5,728.5 630.5,727.5 630.5,726.5 Z"/></g>
<g><path style="opacity:1" fill="#000000" d="M 504.5,727.5 C 506.337,727.639 506.67,728.306 505.5,729.5C 504.702,729.043 504.369,728.376 504.5,727.5 Z"/></g>
<g><path style="opacity:1" fill="#000000" d="M 333.5,728.5 C 334.777,729.694 335.444,731.36 335.5,733.5C 335.167,735.167 334.833,736.833 334.5,738.5C 333.513,735.232 333.18,731.898 333.5,728.5 Z"/></g>
<g><path style="opacity:1" fill="#000000" d="M 491.5,729.5 C 493.337,729.639 493.67,730.306 492.5,731.5C 491.702,731.043 491.369,730.376 491.5,729.5 Z"/></g>
<g><path style="opacity:1" fill="#010101" d="M 292.5,735.5 C 292.56,734.957 292.893,734.624 293.5,734.5C 301.199,739.014 308.866,743.514 316.5,748C 315.207,748.49 313.873,748.657 312.5,748.5C 309.909,757.022 306.742,765.355 303,773.5C 301.544,776.809 301.211,780.143 302,783.5C 292.749,777.792 283.582,771.958 274.5,766C 276.101,765.727 277.601,765.227 279,764.5C 281.302,760.266 283.969,756.266 287,752.5C 288.476,747.545 290.976,743.212 294.5,739.5C 294.006,737.974 293.339,736.641 292.5,735.5 Z"/></g>
<g><path style="opacity:1" fill="#9fb5e1" d="M 299.5,740.5 C 300.043,740.56 300.376,740.893 300.5,741.5C 295.842,751.484 290.676,761.151 285,770.5C 281.667,769.167 281.667,767.833 285,766.5C 289.086,757.319 293.92,748.652 299.5,740.5 Z"/></g>
<g><path style="opacity:1" fill="#9fb5e1" d="M 304.5,743.5 C 307.267,744.051 309.6,745.384 311.5,747.5C 304.852,755.315 298.019,762.982 291,770.5C 290.333,769.5 290.333,768.5 291,767.5C 295.765,759.635 300.265,751.635 304.5,743.5 Z"/></g>
<g><path style="opacity:1" fill="#000000" d="M 513.5,744.5 C 514.675,744.281 515.675,744.614 516.5,745.5C 515.167,746.5 513.833,747.5 512.5,748.5C 520.349,757.183 528.683,765.35 537.5,773C 529,778.167 520.5,783.333 512,788.5C 511.333,787.5 511.333,786.5 512,785.5C 513.471,784.619 514.304,783.286 514.5,781.5C 513.251,771.844 512.085,762.178 511,752.5C 510.751,751.376 510.251,750.376 509.5,749.5C 507.368,751.117 505.035,751.617 502.5,751C 506.56,749.311 510.227,747.144 513.5,744.5 Z"/></g>
<g><path style="opacity:1" fill="#9fb5e1" d="M 512.5,754.5 C 518.051,761.394 524.051,768.06 530.5,774.5C 526.167,777.167 521.833,779.833 517.5,782.5C 515.095,773.339 513.428,764.006 512.5,754.5 Z"/></g>
<g><path style="opacity:1" fill="#9fb5e1" d="M 301.5,762.5 C 302.043,762.56 302.376,762.893 302.5,763.5C 300.151,767.195 298.651,771.195 298,775.5C 293.515,776.952 292.182,775.619 294,771.5C 296.985,768.838 299.485,765.838 301.5,762.5 Z"/></g>
<g><path style="opacity:1" fill="#000000" d="M 397.5,774.5 C 404.989,773.344 412.655,773.178 420.5,774C 419.095,775.269 417.429,775.769 415.5,775.5C 416.659,786.449 418.326,797.282 420.5,808C 412.833,808.667 405.167,808.667 397.5,808C 398,807.5 398.5,807 399,806.5C 399.667,796.167 399.667,785.833 399,775.5C 398.617,774.944 398.117,774.611 397.5,774.5 Z"/></g>
<g><path style="opacity:1" fill="#9fb5e1" d="M 404.5,775.5 C 407.572,775.183 410.572,775.516 413.5,776.5C 410.707,786.464 408.04,796.464 405.5,806.5C 404.501,796.188 404.168,785.855 404.5,775.5 Z"/></g>
<g><path style="opacity:1" fill="#9fb5e1" d="M 410.5,791.5 C 412.576,796.175 413.91,801.175 414.5,806.5C 412.076,806.808 409.743,806.474 407.5,805.5C 409.012,800.94 410.012,796.274 410.5,791.5 Z"/></g>
</svg>
